<?xml version="1.0" encoding="utf-8" standalone="no"?>
<!DOCTYPE svg PUBLIC "-//W3C//DTD SVG 1.1//EN"
  "http://www.w3.org/Graphics/SVG/1.1/DTD/svg11.dtd">
<svg xmlns:xlink="http://www.w3.org/1999/xlink" width="240.944882pt" height="240.944882pt" viewBox="0 0 240.944882 240.944882" xmlns="http://www.w3.org/2000/svg" version="1.1">
 <metadata>
  <rdf:RDF xmlns:dc="http://purl.org/dc/elements/1.1/" xmlns:cc="http://creativecommons.org/ns#" xmlns:rdf="http://www.w3.org/1999/02/22-rdf-syntax-ns#">
   <cc:Work>
    <dc:type rdf:resource="http://purl.org/dc/dcmitype/StillImage"/>
    <dc:date>2025-02-19T15:52:55.305885</dc:date>
    <dc:format>image/svg+xml</dc:format>
    <dc:creator>
     <cc:Agent>
      <dc:title>Matplotlib v3.6.2, https://matplotlib.org/</dc:title>
     </cc:Agent>
    </dc:creator>
   </cc:Work>
  </rdf:RDF>
 </metadata>
 <defs>
  <style type="text/css">*{stroke-linejoin: round; stroke-linecap: butt}</style>
 </defs>
 <g id="figure_1">
  <g id="patch_1">
   <path d="M 0 240.944882 
L 240.944882 240.944882 
L 240.944882 0 
L 0 0 
L 0 240.944882 
z
" style="fill: none"/>
  </g>
  <g id="axes_1">
   <g id="patch_2">
    <path d="M 53.957638 188.936063 
L 227.984882 188.936063 
L 227.984882 14.908819 
L 53.957638 14.908819 
L 53.957638 188.936063 
z
" style="fill: none"/>
   </g>
   <g id="PathCollection_1">
    <path d="M 128.497728 158.469395 
L 129.558388 157.408734 
L 130.619048 158.469395 
L 131.679708 157.408734 
L 130.619048 156.348074 
L 131.679708 155.287414 
L 130.619048 154.226754 
L 129.558388 155.287414 
L 128.497728 154.226754 
L 127.437067 155.287414 
L 128.497728 156.348074 
L 127.437067 157.408734 
z
" clip-path="url(#p3fb2a7502e)" style="fill: #332288; fill-opacity: 0.6; stroke: #ffffff; stroke-opacity: 0.6; stroke-width: 0.339411"/>
    <path d="M 126.535451 116.76136 
L 127.596112 115.7007 
L 128.656772 116.76136 
L 129.717432 115.7007 
L 128.656772 114.64004 
L 129.717432 113.579379 
L 128.656772 112.518719 
L 127.596112 113.579379 
L 126.535451 112.518719 
L 125.474791 113.579379 
L 126.535451 114.64004 
L 125.474791 115.7007 
z
" clip-path="url(#p3fb2a7502e)" style="fill: #332288; fill-opacity: 0.6; stroke: #ffffff; stroke-opacity: 0.6; stroke-width: 0.339411"/>
    <path d="M 112.072204 164.661623 
L 113.132864 163.600963 
L 114.193525 164.661623 
L 115.254185 163.600963 
L 114.193525 162.540303 
L 115.254185 161.479643 
L 114.193525 160.418982 
L 113.132864 161.479643 
L 112.072204 160.418982 
L 111.011544 161.479643 
L 112.072204 162.540303 
L 111.011544 163.600963 
z
" clip-path="url(#p3fb2a7502e)" style="fill: #332288; fill-opacity: 0.6; stroke: #ffffff; stroke-opacity: 0.6; stroke-width: 0.339411"/>
    <path d="M 206.635066 136.890484 
L 207.695726 135.829824 
L 208.756386 136.890484 
L 209.817047 135.829824 
L 208.756386 134.769164 
L 209.817047 133.708504 
L 208.756386 132.647843 
L 207.695726 133.708504 
L 206.635066 132.647843 
L 205.574406 133.708504 
L 206.635066 134.769164 
L 205.574406 135.829824 
z
" clip-path="url(#p3fb2a7502e)" style="fill: #332288; fill-opacity: 0.6; stroke: #ffffff; stroke-opacity: 0.6; stroke-width: 0.339411"/>
    <path d="M 116.032097 160.827991 
L 117.092757 159.767331 
L 118.153418 160.827991 
L 119.214078 159.767331 
L 118.153418 158.706671 
L 119.214078 157.646011 
L 118.153418 156.58535 
L 117.092757 157.646011 
L 116.032097 156.58535 
L 114.971437 157.646011 
L 116.032097 158.706671 
L 114.971437 159.767331 
z
" clip-path="url(#p3fb2a7502e)" style="fill: #332288; fill-opacity: 0.6; stroke: #ffffff; stroke-opacity: 0.6; stroke-width: 0.339411"/>
    <path d="M 128.089048 115.997106 
L 129.149708 114.936446 
L 130.210368 115.997106 
L 131.271028 114.936446 
L 130.210368 113.875786 
L 131.271028 112.815126 
L 130.210368 111.754465 
L 129.149708 112.815126 
L 128.089048 111.754465 
L 127.028388 112.815126 
L 128.089048 113.875786 
L 127.028388 114.936446 
z
" clip-path="url(#p3fb2a7502e)" style="fill: #332288; fill-opacity: 0.6; stroke: #ffffff; stroke-opacity: 0.6; stroke-width: 0.339411"/>
    <path d="M 109.278049 135.313538 
L 110.338709 134.252878 
L 111.399369 135.313538 
L 112.46003 134.252878 
L 111.399369 133.192217 
L 112.46003 132.131557 
L 111.399369 131.070897 
L 110.338709 132.131557 
L 109.278049 131.070897 
L 108.217389 132.131557 
L 109.278049 133.192217 
L 108.217389 134.252878 
z
" clip-path="url(#p3fb2a7502e)" style="fill: #332288; fill-opacity: 0.6; stroke: #ffffff; stroke-opacity: 0.6; stroke-width: 0.339411"/>
    <path d="M 200.18258 155.952803 
L 201.24324 154.892143 
L 202.3039 155.952803 
L 203.364561 154.892143 
L 202.3039 153.831483 
L 203.364561 152.770823 
L 202.3039 151.710162 
L 201.24324 152.770823 
L 200.18258 151.710162 
L 199.12192 152.770823 
L 200.18258 153.831483 
L 199.12192 154.892143 
z
" clip-path="url(#p3fb2a7502e)" style="fill: #332288; fill-opacity: 0.6; stroke: #ffffff; stroke-opacity: 0.6; stroke-width: 0.339411"/>
    <path d="M 120.352404 162.192431 
L 121.413064 161.131771 
L 122.473724 162.192431 
L 123.534384 161.131771 
L 122.473724 160.071111 
L 123.534384 159.010451 
L 122.473724 157.949791 
L 121.413064 159.010451 
L 120.352404 157.949791 
L 119.291743 159.010451 
L 120.352404 160.071111 
L 119.291743 161.131771 
z
" clip-path="url(#p3fb2a7502e)" style="fill: #332288; fill-opacity: 0.6; stroke: #ffffff; stroke-opacity: 0.6; stroke-width: 0.339411"/>
    <path d="M 164.598642 123.397742 
L 165.659302 122.337082 
L 166.719962 123.397742 
L 167.780623 122.337082 
L 166.719962 121.276421 
L 167.780623 120.215761 
L 166.719962 119.155101 
L 165.659302 120.215761 
L 164.598642 119.155101 
L 163.537982 120.215761 
L 164.598642 121.276421 
L 163.537982 122.337082 
z
" clip-path="url(#p3fb2a7502e)" style="fill: #332288; fill-opacity: 0.6; stroke: #ffffff; stroke-opacity: 0.6; stroke-width: 0.339411"/>
    <path d="M 110.286572 137.713573 
L 111.347232 136.652913 
L 112.407892 137.713573 
L 113.468553 136.652913 
L 112.407892 135.592253 
L 113.468553 134.531593 
L 112.407892 133.470933 
L 111.347232 134.531593 
L 110.286572 133.470933 
L 109.225912 134.531593 
L 110.286572 135.592253 
L 109.225912 136.652913 
z
" clip-path="url(#p3fb2a7502e)" style="fill: #332288; fill-opacity: 0.6; stroke: #ffffff; stroke-opacity: 0.6; stroke-width: 0.339411"/>
    <path d="M 129.492228 159.391358 
L 130.552888 158.330697 
L 131.613549 159.391358 
L 132.674209 158.330697 
L 131.613549 157.270037 
L 132.674209 156.209377 
L 131.613549 155.148717 
L 130.552888 156.209377 
L 129.492228 155.148717 
L 128.431568 156.209377 
L 129.492228 157.270037 
L 128.431568 158.330697 
z
" clip-path="url(#p3fb2a7502e)" style="fill: #332288; fill-opacity: 0.6; stroke: #ffffff; stroke-opacity: 0.6; stroke-width: 0.339411"/>
    <path d="M 127.484167 112.491714 
L 128.544827 111.431054 
L 129.605487 112.491714 
L 130.666147 111.431054 
L 129.605487 110.370394 
L 130.666147 109.309734 
L 129.605487 108.249074 
L 128.544827 109.309734 
L 127.484167 108.249074 
L 126.423507 109.309734 
L 127.484167 110.370394 
L 126.423507 111.431054 
z
" clip-path="url(#p3fb2a7502e)" style="fill: #332288; fill-opacity: 0.6; stroke: #ffffff; stroke-opacity: 0.6; stroke-width: 0.339411"/>
    <path d="M 134.734037 137.330277 
L 135.794698 136.269617 
L 136.855358 137.330277 
L 137.916018 136.269617 
L 136.855358 135.208957 
L 137.916018 134.148297 
L 136.855358 133.087636 
L 135.794698 134.148297 
L 134.734037 133.087636 
L 133.673377 134.148297 
L 134.734037 135.208957 
L 133.673377 136.269617 
z
" clip-path="url(#p3fb2a7502e)" style="fill: #332288; fill-opacity: 0.6; stroke: #ffffff; stroke-opacity: 0.6; stroke-width: 0.339411"/>
    <path d="M 131.613957 118.009395 
L 132.674617 116.948735 
L 133.735278 118.009395 
L 134.795938 116.948735 
L 133.735278 115.888075 
L 134.795938 114.827415 
L 133.735278 113.766755 
L 132.674617 114.827415 
L 131.613957 113.766755 
L 130.553297 114.827415 
L 131.613957 115.888075 
L 130.553297 116.948735 
z
" clip-path="url(#p3fb2a7502e)" style="fill: #332288; fill-opacity: 0.6; stroke: #ffffff; stroke-opacity: 0.6; stroke-width: 0.339411"/>
    <path d="M 192.068221 143.968446 
L 193.128881 142.907786 
L 194.189541 143.968446 
L 195.250202 142.907786 
L 194.189541 141.847125 
L 195.250202 140.786465 
L 194.189541 139.725805 
L 193.128881 140.786465 
L 192.068221 139.725805 
L 191.007561 140.786465 
L 192.068221 141.847125 
L 191.007561 142.907786 
z
" clip-path="url(#p3fb2a7502e)" style="fill: #332288; fill-opacity: 0.6; stroke: #ffffff; stroke-opacity: 0.6; stroke-width: 0.339411"/>
    <path d="M 113.1225 140.728882 
L 114.18316 139.668222 
L 115.24382 140.728882 
L 116.30448 139.668222 
L 115.24382 138.607562 
L 116.30448 137.546902 
L 115.24382 136.486242 
L 114.18316 137.546902 
L 113.1225 136.486242 
L 112.06184 137.546902 
L 113.1225 138.607562 
L 112.06184 139.668222 
z
" clip-path="url(#p3fb2a7502e)" style="fill: #332288; fill-opacity: 0.6; stroke: #ffffff; stroke-opacity: 0.6; stroke-width: 0.339411"/>
    <path d="M 110.664311 140.540953 
L 111.724971 139.480293 
L 112.785631 140.540953 
L 113.846292 139.480293 
L 112.785631 138.419633 
L 113.846292 137.358973 
L 112.785631 136.298313 
L 111.724971 137.358973 
L 110.664311 136.298313 
L 109.603651 137.358973 
L 110.664311 138.419633 
L 109.603651 139.480293 
z
" clip-path="url(#p3fb2a7502e)" style="fill: #332288; fill-opacity: 0.6; stroke: #ffffff; stroke-opacity: 0.6; stroke-width: 0.339411"/>
    <path d="M 131.661134 140.176076 
L 132.721795 139.115416 
L 133.782455 140.176076 
L 134.843115 139.115416 
L 133.782455 138.054755 
L 134.843115 136.994095 
L 133.782455 135.933435 
L 132.721795 136.994095 
L 131.661134 135.933435 
L 130.600474 136.994095 
L 131.661134 138.054755 
L 130.600474 139.115416 
z
" clip-path="url(#p3fb2a7502e)" style="fill: #332288; fill-opacity: 0.6; stroke: #ffffff; stroke-opacity: 0.6; stroke-width: 0.339411"/>
    <path d="M 109.575755 137.067353 
L 110.636415 136.006693 
L 111.697075 137.067353 
L 112.757735 136.006693 
L 111.697075 134.946032 
L 112.757735 133.885372 
L 111.697075 132.824712 
L 110.636415 133.885372 
L 109.575755 132.824712 
L 108.515094 133.885372 
L 109.575755 134.946032 
L 108.515094 136.006693 
z
" clip-path="url(#p3fb2a7502e)" style="fill: #332288; fill-opacity: 0.6; stroke: #ffffff; stroke-opacity: 0.6; stroke-width: 0.339411"/>
    <path d="M 126.336968 136.139806 
L 127.397628 135.079145 
L 128.458288 136.139806 
L 129.518948 135.079145 
L 128.458288 134.018485 
L 129.518948 132.957825 
L 128.458288 131.897165 
L 127.397628 132.957825 
L 126.336968 131.897165 
L 125.276308 132.957825 
L 126.336968 134.018485 
L 125.276308 135.079145 
z
" clip-path="url(#p3fb2a7502e)" style="fill: #332288; fill-opacity: 0.6; stroke: #ffffff; stroke-opacity: 0.6; stroke-width: 0.339411"/>
    <path d="M 159.771152 112.322134 
L 160.831812 111.261474 
L 161.892472 112.322134 
L 162.953133 111.261474 
L 161.892472 110.200813 
L 162.953133 109.140153 
L 161.892472 108.079493 
L 160.831812 109.140153 
L 159.771152 108.079493 
L 158.710492 109.140153 
L 159.771152 110.200813 
L 158.710492 111.261474 
z
" clip-path="url(#p3fb2a7502e)" style="fill: #332288; fill-opacity: 0.6; stroke: #ffffff; stroke-opacity: 0.6; stroke-width: 0.339411"/>
    <path d="M 110.445862 166.746146 
L 111.506523 165.685486 
L 112.567183 166.746146 
L 113.627843 165.685486 
L 112.567183 164.624826 
L 113.627843 163.564165 
L 112.567183 162.503505 
L 111.506523 163.564165 
L 110.445862 162.503505 
L 109.385202 163.564165 
L 110.445862 164.624826 
L 109.385202 165.685486 
z
" clip-path="url(#p3fb2a7502e)" style="fill: #332288; fill-opacity: 0.6; stroke: #ffffff; stroke-opacity: 0.6; stroke-width: 0.339411"/>
    <path d="M 111.873522 135.08376 
L 112.934182 134.0231 
L 113.994842 135.08376 
L 115.055502 134.0231 
L 113.994842 132.96244 
L 115.055502 131.90178 
L 113.994842 130.84112 
L 112.934182 131.90178 
L 111.873522 130.84112 
L 110.812862 131.90178 
L 111.873522 132.96244 
L 110.812862 134.0231 
z
" clip-path="url(#p3fb2a7502e)" style="fill: #332288; fill-opacity: 0.6; stroke: #ffffff; stroke-opacity: 0.6; stroke-width: 0.339411"/>
    <path d="M 132.038071 116.418677 
L 133.098731 115.358017 
L 134.159391 116.418677 
L 135.220052 115.358017 
L 134.159391 114.297357 
L 135.220052 113.236697 
L 134.159391 112.176036 
L 133.098731 113.236697 
L 132.038071 112.176036 
L 130.977411 113.236697 
L 132.038071 114.297357 
L 130.977411 115.358017 
z
" clip-path="url(#p3fb2a7502e)" style="fill: #332288; fill-opacity: 0.6; stroke: #ffffff; stroke-opacity: 0.6; stroke-width: 0.339411"/>
    <path d="M 154.114125 124.26519 
L 155.174786 123.20453 
L 156.235446 124.26519 
L 157.296106 123.20453 
L 156.235446 122.14387 
L 157.296106 121.08321 
L 156.235446 120.02255 
L 155.174786 121.08321 
L 154.114125 120.02255 
L 153.053465 121.08321 
L 154.114125 122.14387 
L 153.053465 123.20453 
z
" clip-path="url(#p3fb2a7502e)" style="fill: #332288; fill-opacity: 0.6; stroke: #ffffff; stroke-opacity: 0.6; stroke-width: 0.339411"/>
    <path d="M 136.473591 142.510864 
L 137.534251 141.450204 
L 138.594912 142.510864 
L 139.655572 141.450204 
L 138.594912 140.389544 
L 139.655572 139.328884 
L 138.594912 138.268224 
L 137.534251 139.328884 
L 136.473591 138.268224 
L 135.412931 139.328884 
L 136.473591 140.389544 
L 135.412931 141.450204 
z
" clip-path="url(#p3fb2a7502e)" style="fill: #332288; fill-opacity: 0.6; stroke: #ffffff; stroke-opacity: 0.6; stroke-width: 0.339411"/>
    <path d="M 129.27456 115.532778 
L 130.33522 114.472118 
L 131.39588 115.532778 
L 132.45654 114.472118 
L 131.39588 113.411458 
L 132.45654 112.350797 
L 131.39588 111.290137 
L 130.33522 112.350797 
L 129.27456 111.290137 
L 128.2139 112.350797 
L 129.27456 113.411458 
L 128.2139 114.472118 
z
" clip-path="url(#p3fb2a7502e)" style="fill: #332288; fill-opacity: 0.6; stroke: #ffffff; stroke-opacity: 0.6; stroke-width: 0.339411"/>
    <path d="M 133.220507 137.8102 
L 134.281167 136.74954 
L 135.341827 137.8102 
L 136.402487 136.74954 
L 135.341827 135.68888 
L 136.402487 134.628219 
L 135.341827 133.567559 
L 134.281167 134.628219 
L 133.220507 133.567559 
L 132.159847 134.628219 
L 133.220507 135.68888 
L 132.159847 136.74954 
z
" clip-path="url(#p3fb2a7502e)" style="fill: #332288; fill-opacity: 0.6; stroke: #ffffff; stroke-opacity: 0.6; stroke-width: 0.339411"/>
    <path d="M 130.16362 113.130725 
L 131.22428 112.070065 
L 132.28494 113.130725 
L 133.3456 112.070065 
L 132.28494 111.009405 
L 133.3456 109.948745 
L 132.28494 108.888084 
L 131.22428 109.948745 
L 130.16362 108.888084 
L 129.102959 109.948745 
L 130.16362 111.009405 
L 129.102959 112.070065 
z
" clip-path="url(#p3fb2a7502e)" style="fill: #332288; fill-opacity: 0.6; stroke: #ffffff; stroke-opacity: 0.6; stroke-width: 0.339411"/>
    <path d="M 163.952921 123.140437 
L 165.013581 122.079777 
L 166.074241 123.140437 
L 167.134901 122.079777 
L 166.074241 121.019117 
L 167.134901 119.958456 
L 166.074241 118.897796 
L 165.013581 119.958456 
L 163.952921 118.897796 
L 162.892261 119.958456 
L 163.952921 121.019117 
L 162.892261 122.079777 
z
" clip-path="url(#p3fb2a7502e)" style="fill: #332288; fill-opacity: 0.6; stroke: #ffffff; stroke-opacity: 0.6; stroke-width: 0.339411"/>
    <path d="M 118.545938 162.851618 
L 119.606599 161.790958 
L 120.667259 162.851618 
L 121.727919 161.790958 
L 120.667259 160.730297 
L 121.727919 159.669637 
L 120.667259 158.608977 
L 119.606599 159.669637 
L 118.545938 158.608977 
L 117.485278 159.669637 
L 118.545938 160.730297 
L 117.485278 161.790958 
z
" clip-path="url(#p3fb2a7502e)" style="fill: #332288; fill-opacity: 0.6; stroke: #ffffff; stroke-opacity: 0.6; stroke-width: 0.339411"/>
    <path d="M 131.624201 137.117286 
L 132.684861 136.056625 
L 133.745522 137.117286 
L 134.806182 136.056625 
L 133.745522 134.995965 
L 134.806182 133.935305 
L 133.745522 132.874645 
L 132.684861 133.935305 
L 131.624201 132.874645 
L 130.563541 133.935305 
L 131.624201 134.995965 
L 130.563541 136.056625 
z
" clip-path="url(#p3fb2a7502e)" style="fill: #332288; fill-opacity: 0.6; stroke: #ffffff; stroke-opacity: 0.6; stroke-width: 0.339411"/>
    <path d="M 127.300532 118.03596 
L 128.361192 116.9753 
L 129.421852 118.03596 
L 130.482512 116.9753 
L 129.421852 115.91464 
L 130.482512 114.85398 
L 129.421852 113.793319 
L 128.361192 114.85398 
L 127.300532 113.793319 
L 126.239871 114.85398 
L 127.300532 115.91464 
L 126.239871 116.9753 
z
" clip-path="url(#p3fb2a7502e)" style="fill: #332288; fill-opacity: 0.6; stroke: #ffffff; stroke-opacity: 0.6; stroke-width: 0.339411"/>
    <path d="M 117.91874 163.469823 
L 118.9794 162.409163 
L 120.04006 163.469823 
L 121.100721 162.409163 
L 120.04006 161.348503 
L 121.100721 160.287843 
L 120.04006 159.227183 
L 118.9794 160.287843 
L 117.91874 159.227183 
L 116.85808 160.287843 
L 117.91874 161.348503 
L 116.85808 162.409163 
z
" clip-path="url(#p3fb2a7502e)" style="fill: #332288; fill-opacity: 0.6; stroke: #ffffff; stroke-opacity: 0.6; stroke-width: 0.339411"/>
    <path d="M 111.718305 162.711949 
L 112.778965 161.651289 
L 113.839625 162.711949 
L 114.900285 161.651289 
L 113.839625 160.590629 
L 114.900285 159.529969 
L 113.839625 158.469308 
L 112.778965 159.529969 
L 111.718305 158.469308 
L 110.657644 159.529969 
L 111.718305 160.590629 
L 110.657644 161.651289 
z
" clip-path="url(#p3fb2a7502e)" style="fill: #332288; fill-opacity: 0.6; stroke: #ffffff; stroke-opacity: 0.6; stroke-width: 0.339411"/>
    <path d="M 131.088646 112.708637 
L 132.149306 111.647976 
L 133.209966 112.708637 
L 134.270626 111.647976 
L 133.209966 110.587316 
L 134.270626 109.526656 
L 133.209966 108.465996 
L 132.149306 109.526656 
L 131.088646 108.465996 
L 130.027986 109.526656 
L 131.088646 110.587316 
L 130.027986 111.647976 
z
" clip-path="url(#p3fb2a7502e)" style="fill: #332288; fill-opacity: 0.6; stroke: #ffffff; stroke-opacity: 0.6; stroke-width: 0.339411"/>
    <path d="M 107.941166 165.123694 
L 109.001827 164.063034 
L 110.062487 165.123694 
L 111.123147 164.063034 
L 110.062487 163.002373 
L 111.123147 161.941713 
L 110.062487 160.881053 
L 109.001827 161.941713 
L 107.941166 160.881053 
L 106.880506 161.941713 
L 107.941166 163.002373 
L 106.880506 164.063034 
z
" clip-path="url(#p3fb2a7502e)" style="fill: #332288; fill-opacity: 0.6; stroke: #ffffff; stroke-opacity: 0.6; stroke-width: 0.339411"/>
    <path d="M 110.059861 140.444563 
L 111.120521 139.383903 
L 112.181181 140.444563 
L 113.241841 139.383903 
L 112.181181 138.323243 
L 113.241841 137.262583 
L 112.181181 136.201923 
L 111.120521 137.262583 
L 110.059861 136.201923 
L 108.999201 137.262583 
L 110.059861 138.323243 
L 108.999201 139.383903 
z
" clip-path="url(#p3fb2a7502e)" style="fill: #332288; fill-opacity: 0.6; stroke: #ffffff; stroke-opacity: 0.6; stroke-width: 0.339411"/>
    <path d="M 111.450615 136.556962 
L 112.511275 135.496302 
L 113.571936 136.556962 
L 114.632596 135.496302 
L 113.571936 134.435642 
L 114.632596 133.374982 
L 113.571936 132.314322 
L 112.511275 133.374982 
L 111.450615 132.314322 
L 110.389955 133.374982 
L 111.450615 134.435642 
L 110.389955 135.496302 
z
" clip-path="url(#p3fb2a7502e)" style="fill: #332288; fill-opacity: 0.6; stroke: #ffffff; stroke-opacity: 0.6; stroke-width: 0.339411"/>
    <path d="M 111.081107 141.046835 
L 112.141767 139.986175 
L 113.202427 141.046835 
L 114.263087 139.986175 
L 113.202427 138.925515 
L 114.263087 137.864855 
L 113.202427 136.804195 
L 112.141767 137.864855 
L 111.081107 136.804195 
L 110.020447 137.864855 
L 111.081107 138.925515 
L 110.020447 139.986175 
z
" clip-path="url(#p3fb2a7502e)" style="fill: #332288; fill-opacity: 0.6; stroke: #ffffff; stroke-opacity: 0.6; stroke-width: 0.339411"/>
    <path d="M 137.341365 151.873306 
L 138.402025 150.812646 
L 139.462685 151.873306 
L 140.523345 150.812646 
L 139.462685 149.751986 
L 140.523345 148.691325 
L 139.462685 147.630665 
L 138.402025 148.691325 
L 137.341365 147.630665 
L 136.280705 148.691325 
L 137.341365 149.751986 
L 136.280705 150.812646 
z
" clip-path="url(#p3fb2a7502e)" style="fill: #332288; fill-opacity: 0.6; stroke: #ffffff; stroke-opacity: 0.6; stroke-width: 0.339411"/>
    <path d="M 129.964057 160.460252 
L 131.024717 159.399592 
L 132.085377 160.460252 
L 133.146037 159.399592 
L 132.085377 158.338932 
L 133.146037 157.278272 
L 132.085377 156.217612 
L 131.024717 157.278272 
L 129.964057 156.217612 
L 128.903397 157.278272 
L 129.964057 158.338932 
L 128.903397 159.399592 
z
" clip-path="url(#p3fb2a7502e)" style="fill: #332288; fill-opacity: 0.6; stroke: #ffffff; stroke-opacity: 0.6; stroke-width: 0.339411"/>
    <path d="M 128.727569 123.589335 
L 129.788229 122.528675 
L 130.84889 123.589335 
L 131.90955 122.528675 
L 130.84889 121.468014 
L 131.90955 120.407354 
L 130.84889 119.346694 
L 129.788229 120.407354 
L 128.727569 119.346694 
L 127.666909 120.407354 
L 128.727569 121.468014 
L 127.666909 122.528675 
z
" clip-path="url(#p3fb2a7502e)" style="fill: #332288; fill-opacity: 0.6; stroke: #ffffff; stroke-opacity: 0.6; stroke-width: 0.339411"/>
    <path d="M 155.397313 116.39628 
L 156.457973 115.33562 
L 157.518633 116.39628 
L 158.579293 115.33562 
L 157.518633 114.274959 
L 158.579293 113.214299 
L 157.518633 112.153639 
L 156.457973 113.214299 
L 155.397313 112.153639 
L 154.336653 113.214299 
L 155.397313 114.274959 
L 154.336653 115.33562 
z
" clip-path="url(#p3fb2a7502e)" style="fill: #332288; fill-opacity: 0.6; stroke: #ffffff; stroke-opacity: 0.6; stroke-width: 0.339411"/>
    <path d="M 136.387576 141.560896 
L 137.448236 140.500236 
L 138.508896 141.560896 
L 139.569556 140.500236 
L 138.508896 139.439575 
L 139.569556 138.378915 
L 138.508896 137.318255 
L 137.448236 138.378915 
L 136.387576 137.318255 
L 135.326915 138.378915 
L 136.387576 139.439575 
L 135.326915 140.500236 
z
" clip-path="url(#p3fb2a7502e)" style="fill: #332288; fill-opacity: 0.6; stroke: #ffffff; stroke-opacity: 0.6; stroke-width: 0.339411"/>
    <path d="M 127.406879 133.442482 
L 128.467539 132.381821 
L 129.528199 133.442482 
L 130.588859 132.381821 
L 129.528199 131.321161 
L 130.588859 130.260501 
L 129.528199 129.199841 
L 128.467539 130.260501 
L 127.406879 129.199841 
L 126.346219 130.260501 
L 127.406879 131.321161 
L 126.346219 132.381821 
z
" clip-path="url(#p3fb2a7502e)" style="fill: #332288; fill-opacity: 0.6; stroke: #ffffff; stroke-opacity: 0.6; stroke-width: 0.339411"/>
    <path d="M 158.144816 112.797336 
L 159.205477 111.736675 
L 160.266137 112.797336 
L 161.326797 111.736675 
L 160.266137 110.676015 
L 161.326797 109.615355 
L 160.266137 108.554695 
L 159.205477 109.615355 
L 158.144816 108.554695 
L 157.084156 109.615355 
L 158.144816 110.676015 
L 157.084156 111.736675 
z
" clip-path="url(#p3fb2a7502e)" style="fill: #332288; fill-opacity: 0.6; stroke: #ffffff; stroke-opacity: 0.6; stroke-width: 0.339411"/>
    <path d="M 112.885625 139.011559 
L 113.946285 137.950899 
L 115.006945 139.011559 
L 116.067605 137.950899 
L 115.006945 136.890239 
L 116.067605 135.829579 
L 115.006945 134.768919 
L 113.946285 135.829579 
L 112.885625 134.768919 
L 111.824965 135.829579 
L 112.885625 136.890239 
L 111.824965 137.950899 
z
" clip-path="url(#p3fb2a7502e)" style="fill: #332288; fill-opacity: 0.6; stroke: #ffffff; stroke-opacity: 0.6; stroke-width: 0.339411"/>
    <path d="M 134.504621 143.687923 
L 135.565281 142.627263 
L 136.625941 143.687923 
L 137.686601 142.627263 
L 136.625941 141.566603 
L 137.686601 140.505943 
L 136.625941 139.445283 
L 135.565281 140.505943 
L 134.504621 139.445283 
L 133.443961 140.505943 
L 134.504621 141.566603 
L 133.443961 142.627263 
z
" clip-path="url(#p3fb2a7502e)" style="fill: #332288; fill-opacity: 0.6; stroke: #ffffff; stroke-opacity: 0.6; stroke-width: 0.339411"/>
    <path d="M 109.869357 168.301723 
L 110.930017 167.241063 
L 111.990677 168.301723 
L 113.051338 167.241063 
L 111.990677 166.180403 
L 113.051338 165.119743 
L 111.990677 164.059083 
L 110.930017 165.119743 
L 109.869357 164.059083 
L 108.808697 165.119743 
L 109.869357 166.180403 
L 108.808697 167.241063 
z
" clip-path="url(#p3fb2a7502e)" style="fill: #332288; fill-opacity: 0.6; stroke: #ffffff; stroke-opacity: 0.6; stroke-width: 0.339411"/>
    <path d="M 111.615918 166.286786 
L 112.676578 165.226126 
L 113.737238 166.286786 
L 114.797899 165.226126 
L 113.737238 164.165466 
L 114.797899 163.104806 
L 113.737238 162.044146 
L 112.676578 163.104806 
L 111.615918 162.044146 
L 110.555258 163.104806 
L 111.615918 164.165466 
L 110.555258 165.226126 
z
" clip-path="url(#p3fb2a7502e)" style="fill: #332288; fill-opacity: 0.6; stroke: #ffffff; stroke-opacity: 0.6; stroke-width: 0.339411"/>
    <path d="M 128.702452 155.470921 
L 129.763113 154.410261 
L 130.823773 155.470921 
L 131.884433 154.410261 
L 130.823773 153.349601 
L 131.884433 152.28894 
L 130.823773 151.22828 
L 129.763113 152.28894 
L 128.702452 151.22828 
L 127.641792 152.28894 
L 128.702452 153.349601 
L 127.641792 154.410261 
z
" clip-path="url(#p3fb2a7502e)" style="fill: #332288; fill-opacity: 0.6; stroke: #ffffff; stroke-opacity: 0.6; stroke-width: 0.339411"/>
    <path d="M 137.002833 151.529815 
L 138.063493 150.469155 
L 139.124154 151.529815 
L 140.184814 150.469155 
L 139.124154 149.408495 
L 140.184814 148.347834 
L 139.124154 147.287174 
L 138.063493 148.347834 
L 137.002833 147.287174 
L 135.942173 148.347834 
L 137.002833 149.408495 
L 135.942173 150.469155 
z
" clip-path="url(#p3fb2a7502e)" style="fill: #332288; fill-opacity: 0.6; stroke: #ffffff; stroke-opacity: 0.6; stroke-width: 0.339411"/>
    <path d="M 128.260201 134.313781 
L 129.320861 133.253121 
L 130.381521 134.313781 
L 131.442181 133.253121 
L 130.381521 132.19246 
L 131.442181 131.1318 
L 130.381521 130.07114 
L 129.320861 131.1318 
L 128.260201 130.07114 
L 127.199541 131.1318 
L 128.260201 132.19246 
L 127.199541 133.253121 
z
" clip-path="url(#p3fb2a7502e)" style="fill: #332288; fill-opacity: 0.6; stroke: #ffffff; stroke-opacity: 0.6; stroke-width: 0.339411"/>
    <path d="M 164.977552 124.257814 
L 166.038212 123.197154 
L 167.098872 124.257814 
L 168.159533 123.197154 
L 167.098872 122.136494 
L 168.159533 121.075834 
L 167.098872 120.015173 
L 166.038212 121.075834 
L 164.977552 120.015173 
L 163.916892 121.075834 
L 164.977552 122.136494 
L 163.916892 123.197154 
z
" clip-path="url(#p3fb2a7502e)" style="fill: #332288; fill-opacity: 0.6; stroke: #ffffff; stroke-opacity: 0.6; stroke-width: 0.339411"/>
    <path d="M 135.96274 150.229978 
L 137.0234 149.169317 
L 138.08406 150.229978 
L 139.14472 149.169317 
L 138.08406 148.108657 
L 139.14472 147.047997 
L 138.08406 145.987337 
L 137.0234 147.047997 
L 135.96274 145.987337 
L 134.902079 147.047997 
L 135.96274 148.108657 
L 134.902079 149.169317 
z
" clip-path="url(#p3fb2a7502e)" style="fill: #332288; fill-opacity: 0.6; stroke: #ffffff; stroke-opacity: 0.6; stroke-width: 0.339411"/>
    <path d="M 126.585826 134.67033 
L 127.646486 133.609669 
L 128.707146 134.67033 
L 129.767806 133.609669 
L 128.707146 132.549009 
L 129.767806 131.488349 
L 128.707146 130.427689 
L 127.646486 131.488349 
L 126.585826 130.427689 
L 125.525165 131.488349 
L 126.585826 132.549009 
L 125.525165 133.609669 
z
" clip-path="url(#p3fb2a7502e)" style="fill: #332288; fill-opacity: 0.6; stroke: #ffffff; stroke-opacity: 0.6; stroke-width: 0.339411"/>
    <path d="M 130.761843 121.744436 
L 131.822503 120.683776 
L 132.883163 121.744436 
L 133.943823 120.683776 
L 132.883163 119.623116 
L 133.943823 118.562456 
L 132.883163 117.501796 
L 131.822503 118.562456 
L 130.761843 117.501796 
L 129.701182 118.562456 
L 130.761843 119.623116 
L 129.701182 120.683776 
z
" clip-path="url(#p3fb2a7502e)" style="fill: #332288; fill-opacity: 0.6; stroke: #ffffff; stroke-opacity: 0.6; stroke-width: 0.339411"/>
    <path d="M 125.466599 136.316466 
L 126.527259 135.255805 
L 127.587919 136.316466 
L 128.64858 135.255805 
L 127.587919 134.195145 
L 128.64858 133.134485 
L 127.587919 132.073825 
L 126.527259 133.134485 
L 125.466599 132.073825 
L 124.405939 133.134485 
L 125.466599 134.195145 
L 124.405939 135.255805 
z
" clip-path="url(#p3fb2a7502e)" style="fill: #332288; fill-opacity: 0.6; stroke: #ffffff; stroke-opacity: 0.6; stroke-width: 0.339411"/>
    <path d="M 135.276965 160.148496 
L 136.337625 159.087836 
L 137.398285 160.148496 
L 138.458945 159.087836 
L 137.398285 158.027176 
L 138.458945 156.966515 
L 137.398285 155.905855 
L 136.337625 156.966515 
L 135.276965 155.905855 
L 134.216305 156.966515 
L 135.276965 158.027176 
L 134.216305 159.087836 
z
" clip-path="url(#p3fb2a7502e)" style="fill: #332288; fill-opacity: 0.6; stroke: #ffffff; stroke-opacity: 0.6; stroke-width: 0.339411"/>
    <path d="M 211.763549 140.718369 
L 212.824209 139.657709 
L 213.884869 140.718369 
L 214.945529 139.657709 
L 213.884869 138.597049 
L 214.945529 137.536389 
L 213.884869 136.475729 
L 212.824209 137.536389 
L 211.763549 136.475729 
L 210.702889 137.536389 
L 211.763549 138.597049 
L 210.702889 139.657709 
z
" clip-path="url(#p3fb2a7502e)" style="fill: #332288; fill-opacity: 0.6; stroke: #ffffff; stroke-opacity: 0.6; stroke-width: 0.339411"/>
    <path d="M 147.39908 116.009147 
L 148.45974 114.948487 
L 149.5204 116.009147 
L 150.581061 114.948487 
L 149.5204 113.887827 
L 150.581061 112.827167 
L 149.5204 111.766506 
L 148.45974 112.827167 
L 147.39908 111.766506 
L 146.33842 112.827167 
L 147.39908 113.887827 
L 146.33842 114.948487 
z
" clip-path="url(#p3fb2a7502e)" style="fill: #332288; fill-opacity: 0.6; stroke: #ffffff; stroke-opacity: 0.6; stroke-width: 0.339411"/>
    <path d="M 131.434489 158.158861 
L 132.49515 157.098201 
L 133.55581 158.158861 
L 134.61647 157.098201 
L 133.55581 156.037541 
L 134.61647 154.976881 
L 133.55581 153.91622 
L 132.49515 154.976881 
L 131.434489 153.91622 
L 130.373829 154.976881 
L 131.434489 156.037541 
L 130.373829 157.098201 
z
" clip-path="url(#p3fb2a7502e)" style="fill: #332288; fill-opacity: 0.6; stroke: #ffffff; stroke-opacity: 0.6; stroke-width: 0.339411"/>
    <path d="M 186.450286 146.539892 
L 187.8645 146.539892 
L 187.8645 145.125678 
L 189.278713 145.125678 
L 189.278713 143.711465 
L 187.8645 143.711465 
L 187.8645 142.297251 
L 186.450286 142.297251 
L 186.450286 143.711465 
L 185.036073 143.711465 
L 185.036073 145.125678 
L 186.450286 145.125678 
z
" clip-path="url(#p3fb2a7502e)" style="fill: #117733; fill-opacity: 0.6; stroke: #ffffff; stroke-opacity: 0.6; stroke-width: 0.339411"/>
    <path d="M 159.633752 117.825536 
L 161.047966 117.825536 
L 161.047966 116.411322 
L 162.462179 116.411322 
L 162.462179 114.997108 
L 161.047966 114.997108 
L 161.047966 113.582895 
L 159.633752 113.582895 
L 159.633752 114.997108 
L 158.219539 114.997108 
L 158.219539 116.411322 
L 159.633752 116.411322 
z
" clip-path="url(#p3fb2a7502e)" style="fill: #117733; fill-opacity: 0.6; stroke: #ffffff; stroke-opacity: 0.6; stroke-width: 0.339411"/>
    <path d="M 194.580144 162.7821 
L 195.994357 162.7821 
L 195.994357 161.367886 
L 197.408571 161.367886 
L 197.408571 159.953673 
L 195.994357 159.953673 
L 195.994357 158.539459 
L 194.580144 158.539459 
L 194.580144 159.953673 
L 193.16593 159.953673 
L 193.16593 161.367886 
L 194.580144 161.367886 
z
" clip-path="url(#p3fb2a7502e)" style="fill: #117733; fill-opacity: 0.6; stroke: #ffffff; stroke-opacity: 0.6; stroke-width: 0.339411"/>
    <path d="M 196.935461 162.135698 
L 198.349674 162.135698 
L 198.349674 160.721484 
L 199.763888 160.721484 
L 199.763888 159.307271 
L 198.349674 159.307271 
L 198.349674 157.893057 
L 196.935461 157.893057 
L 196.935461 159.307271 
L 195.521247 159.307271 
L 195.521247 160.721484 
L 196.935461 160.721484 
z
" clip-path="url(#p3fb2a7502e)" style="fill: #117733; fill-opacity: 0.6; stroke: #ffffff; stroke-opacity: 0.6; stroke-width: 0.339411"/>
    <path d="M 196.324001 134.873998 
L 197.738215 134.873998 
L 197.738215 133.459784 
L 199.152429 133.459784 
L 199.152429 132.04557 
L 197.738215 132.04557 
L 197.738215 130.631357 
L 196.324001 130.631357 
L 196.324001 132.04557 
L 194.909788 132.04557 
L 194.909788 133.459784 
L 196.324001 133.459784 
z
" clip-path="url(#p3fb2a7502e)" style="fill: #117733; fill-opacity: 0.6; stroke: #ffffff; stroke-opacity: 0.6; stroke-width: 0.339411"/>
    <path d="M 152.125646 118.15047 
L 153.53986 118.15047 
L 153.53986 116.736256 
L 154.954073 116.736256 
L 154.954073 115.322043 
L 153.53986 115.322043 
L 153.53986 113.907829 
L 152.125646 113.907829 
L 152.125646 115.322043 
L 150.711433 115.322043 
L 150.711433 116.736256 
L 152.125646 116.736256 
z
" clip-path="url(#p3fb2a7502e)" style="fill: #117733; fill-opacity: 0.6; stroke: #ffffff; stroke-opacity: 0.6; stroke-width: 0.339411"/>
    <path d="M 163.254167 147.551445 
L 164.668381 147.551445 
L 164.668381 146.137232 
L 166.082594 146.137232 
L 166.082594 144.723018 
L 164.668381 144.723018 
L 164.668381 143.308805 
L 163.254167 143.308805 
L 163.254167 144.723018 
L 161.839954 144.723018 
L 161.839954 146.137232 
L 163.254167 146.137232 
z
" clip-path="url(#p3fb2a7502e)" style="fill: #117733; fill-opacity: 0.6; stroke: #ffffff; stroke-opacity: 0.6; stroke-width: 0.339411"/>
    <path d="M 206.839972 145.724058 
L 208.254186 145.724058 
L 208.254186 144.309844 
L 209.668399 144.309844 
L 209.668399 142.895631 
L 208.254186 142.895631 
L 208.254186 141.481417 
L 206.839972 141.481417 
L 206.839972 142.895631 
L 205.425759 142.895631 
L 205.425759 144.309844 
L 206.839972 144.309844 
z
" clip-path="url(#p3fb2a7502e)" style="fill: #117733; fill-opacity: 0.6; stroke: #ffffff; stroke-opacity: 0.6; stroke-width: 0.339411"/>
    <path d="M 183.754701 177.644935 
L 185.168915 177.644935 
L 185.168915 176.230721 
L 186.583128 176.230721 
L 186.583128 174.816508 
L 185.168915 174.816508 
L 185.168915 173.402294 
L 183.754701 173.402294 
L 183.754701 174.816508 
L 182.340487 174.816508 
L 182.340487 176.230721 
L 183.754701 176.230721 
z
" clip-path="url(#p3fb2a7502e)" style="fill: #117733; fill-opacity: 0.6; stroke: #ffffff; stroke-opacity: 0.6; stroke-width: 0.339411"/>
    <path d="M 156.346522 117.147863 
L 157.760736 117.147863 
L 157.760736 115.733649 
L 159.174949 115.733649 
L 159.174949 114.319436 
L 157.760736 114.319436 
L 157.760736 112.905222 
L 156.346522 112.905222 
L 156.346522 114.319436 
L 154.932309 114.319436 
L 154.932309 115.733649 
L 156.346522 115.733649 
z
" clip-path="url(#p3fb2a7502e)" style="fill: #117733; fill-opacity: 0.6; stroke: #ffffff; stroke-opacity: 0.6; stroke-width: 0.339411"/>
    <path d="M 170.801742 177.893601 
L 172.215955 177.893601 
L 172.215955 176.479388 
L 173.630169 176.479388 
L 173.630169 175.065174 
L 172.215955 175.065174 
L 172.215955 173.650961 
L 170.801742 173.650961 
L 170.801742 175.065174 
L 169.387528 175.065174 
L 169.387528 176.479388 
L 170.801742 176.479388 
z
" clip-path="url(#p3fb2a7502e)" style="fill: #117733; fill-opacity: 0.6; stroke: #ffffff; stroke-opacity: 0.6; stroke-width: 0.339411"/>
    <path d="M 182.403535 157.23156 
L 183.817749 157.23156 
L 183.817749 155.817346 
L 185.231962 155.817346 
L 185.231962 154.403132 
L 183.817749 154.403132 
L 183.817749 152.988919 
L 182.403535 152.988919 
L 182.403535 154.403132 
L 180.989322 154.403132 
L 180.989322 155.817346 
L 182.403535 155.817346 
z
" clip-path="url(#p3fb2a7502e)" style="fill: #117733; fill-opacity: 0.6; stroke: #ffffff; stroke-opacity: 0.6; stroke-width: 0.339411"/>
    <path d="M 174.361518 144.14272 
L 175.775732 144.14272 
L 175.775732 142.728507 
L 177.189945 142.728507 
L 177.189945 141.314293 
L 175.775732 141.314293 
L 175.775732 139.90008 
L 174.361518 139.90008 
L 174.361518 141.314293 
L 172.947305 141.314293 
L 172.947305 142.728507 
L 174.361518 142.728507 
z
" clip-path="url(#p3fb2a7502e)" style="fill: #117733; fill-opacity: 0.6; stroke: #ffffff; stroke-opacity: 0.6; stroke-width: 0.339411"/>
    <path d="M 177.665883 178.330362 
L 179.080097 178.330362 
L 179.080097 176.916148 
L 180.494311 176.916148 
L 180.494311 175.501935 
L 179.080097 175.501935 
L 179.080097 174.087721 
L 177.665883 174.087721 
L 177.665883 175.501935 
L 176.25167 175.501935 
L 176.25167 176.916148 
L 177.665883 176.916148 
z
" clip-path="url(#p3fb2a7502e)" style="fill: #117733; fill-opacity: 0.6; stroke: #ffffff; stroke-opacity: 0.6; stroke-width: 0.339411"/>
    <path d="M 151.242194 114.235612 
L 152.656407 114.235612 
L 152.656407 112.821399 
L 154.070621 112.821399 
L 154.070621 111.407185 
L 152.656407 111.407185 
L 152.656407 109.992971 
L 151.242194 109.992971 
L 151.242194 111.407185 
L 149.82798 111.407185 
L 149.82798 112.821399 
L 151.242194 112.821399 
z
" clip-path="url(#p3fb2a7502e)" style="fill: #117733; fill-opacity: 0.6; stroke: #ffffff; stroke-opacity: 0.6; stroke-width: 0.339411"/>
    <path d="M 204.013845 145.066914 
L 205.428059 145.066914 
L 205.428059 143.652701 
L 206.842273 143.652701 
L 206.842273 142.238487 
L 205.428059 142.238487 
L 205.428059 140.824274 
L 204.013845 140.824274 
L 204.013845 142.238487 
L 202.599632 142.238487 
L 202.599632 143.652701 
L 204.013845 143.652701 
z
" clip-path="url(#p3fb2a7502e)" style="fill: #117733; fill-opacity: 0.6; stroke: #ffffff; stroke-opacity: 0.6; stroke-width: 0.339411"/>
    <path d="M 184.810835 177.010751 
L 186.225048 177.010751 
L 186.225048 175.596537 
L 187.639262 175.596537 
L 187.639262 174.182323 
L 186.225048 174.182323 
L 186.225048 172.76811 
L 184.810835 172.76811 
L 184.810835 174.182323 
L 183.396621 174.182323 
L 183.396621 175.596537 
L 184.810835 175.596537 
z
" clip-path="url(#p3fb2a7502e)" style="fill: #117733; fill-opacity: 0.6; stroke: #ffffff; stroke-opacity: 0.6; stroke-width: 0.339411"/>
    <path d="M 180.565251 177.068043 
L 181.979464 177.068043 
L 181.979464 175.65383 
L 183.393678 175.65383 
L 183.393678 174.239616 
L 181.979464 174.239616 
L 181.979464 172.825403 
L 180.565251 172.825403 
L 180.565251 174.239616 
L 179.151037 174.239616 
L 179.151037 175.65383 
L 180.565251 175.65383 
z
" clip-path="url(#p3fb2a7502e)" style="fill: #117733; fill-opacity: 0.6; stroke: #ffffff; stroke-opacity: 0.6; stroke-width: 0.339411"/>
    <path d="M 172.474155 144.198354 
L 173.888369 144.198354 
L 173.888369 142.78414 
L 175.302583 142.78414 
L 175.302583 141.369927 
L 173.888369 141.369927 
L 173.888369 139.955713 
L 172.474155 139.955713 
L 172.474155 141.369927 
L 171.059942 141.369927 
L 171.059942 142.78414 
L 172.474155 142.78414 
z
" clip-path="url(#p3fb2a7502e)" style="fill: #117733; fill-opacity: 0.6; stroke: #ffffff; stroke-opacity: 0.6; stroke-width: 0.339411"/>
    <path d="M 183.765691 166.928388 
L 185.179905 166.928388 
L 185.179905 165.514174 
L 186.594118 165.514174 
L 186.594118 164.099961 
L 185.179905 164.099961 
L 185.179905 162.685747 
L 183.765691 162.685747 
L 183.765691 164.099961 
L 182.351478 164.099961 
L 182.351478 165.514174 
L 183.765691 165.514174 
z
" clip-path="url(#p3fb2a7502e)" style="fill: #117733; fill-opacity: 0.6; stroke: #ffffff; stroke-opacity: 0.6; stroke-width: 0.339411"/>
    <path d="M 180.907669 170.08356 
L 182.321883 170.08356 
L 182.321883 168.669346 
L 183.736096 168.669346 
L 183.736096 167.255133 
L 182.321883 167.255133 
L 182.321883 165.840919 
L 180.907669 165.840919 
L 180.907669 167.255133 
L 179.493455 167.255133 
L 179.493455 168.669346 
L 180.907669 168.669346 
z
" clip-path="url(#p3fb2a7502e)" style="fill: #117733; fill-opacity: 0.6; stroke: #ffffff; stroke-opacity: 0.6; stroke-width: 0.339411"/>
    <path d="M 151.205774 111.015518 
L 152.619988 111.015518 
L 152.619988 109.601304 
L 154.034201 109.601304 
L 154.034201 108.187091 
L 152.619988 108.187091 
L 152.619988 106.772877 
L 151.205774 106.772877 
L 151.205774 108.187091 
L 149.79156 108.187091 
L 149.79156 109.601304 
L 151.205774 109.601304 
z
" clip-path="url(#p3fb2a7502e)" style="fill: #117733; fill-opacity: 0.6; stroke: #ffffff; stroke-opacity: 0.6; stroke-width: 0.339411"/>
    <path d="M 185.227632 165.695495 
L 186.641846 165.695495 
L 186.641846 164.281281 
L 188.05606 164.281281 
L 188.05606 162.867068 
L 186.641846 162.867068 
L 186.641846 161.452854 
L 185.227632 161.452854 
L 185.227632 162.867068 
L 183.813419 162.867068 
L 183.813419 164.281281 
L 185.227632 164.281281 
z
" clip-path="url(#p3fb2a7502e)" style="fill: #117733; fill-opacity: 0.6; stroke: #ffffff; stroke-opacity: 0.6; stroke-width: 0.339411"/>
    <path d="M 192.81514 166.151404 
L 194.229354 166.151404 
L 194.229354 164.737191 
L 195.643567 164.737191 
L 195.643567 163.322977 
L 194.229354 163.322977 
L 194.229354 161.908764 
L 192.81514 161.908764 
L 192.81514 163.322977 
L 191.400927 163.322977 
L 191.400927 164.737191 
L 192.81514 164.737191 
z
" clip-path="url(#p3fb2a7502e)" style="fill: #117733; fill-opacity: 0.6; stroke: #ffffff; stroke-opacity: 0.6; stroke-width: 0.339411"/>
    <path d="M 211.445446 142.853844 
L 212.85966 142.853844 
L 212.85966 141.439631 
L 214.273873 141.439631 
L 214.273873 140.025417 
L 212.85966 140.025417 
L 212.85966 138.611203 
L 211.445446 138.611203 
L 211.445446 140.025417 
L 210.031232 140.025417 
L 210.031232 141.439631 
L 211.445446 141.439631 
z
" clip-path="url(#p3fb2a7502e)" style="fill: #117733; fill-opacity: 0.6; stroke: #ffffff; stroke-opacity: 0.6; stroke-width: 0.339411"/>
    <path d="M 143.292205 114.510521 
L 144.706419 114.510521 
L 144.706419 113.096308 
L 146.120632 113.096308 
L 146.120632 111.682094 
L 144.706419 111.682094 
L 144.706419 110.267881 
L 143.292205 110.267881 
L 143.292205 111.682094 
L 141.877992 111.682094 
L 141.877992 113.096308 
L 143.292205 113.096308 
z
" clip-path="url(#p3fb2a7502e)" style="fill: #117733; fill-opacity: 0.6; stroke: #ffffff; stroke-opacity: 0.6; stroke-width: 0.339411"/>
    <path d="M 186.947665 147.024649 
L 188.361878 147.024649 
L 188.361878 145.610435 
L 189.776092 145.610435 
L 189.776092 144.196222 
L 188.361878 144.196222 
L 188.361878 142.782008 
L 186.947665 142.782008 
L 186.947665 144.196222 
L 185.533451 144.196222 
L 185.533451 145.610435 
L 186.947665 145.610435 
z
" clip-path="url(#p3fb2a7502e)" style="fill: #117733; fill-opacity: 0.6; stroke: #ffffff; stroke-opacity: 0.6; stroke-width: 0.339411"/>
    <path d="M 205.388371 146.006204 
L 206.802585 146.006204 
L 206.802585 144.59199 
L 208.216798 144.59199 
L 208.216798 143.177777 
L 206.802585 143.177777 
L 206.802585 141.763563 
L 205.388371 141.763563 
L 205.388371 143.177777 
L 203.974158 143.177777 
L 203.974158 144.59199 
L 205.388371 144.59199 
z
" clip-path="url(#p3fb2a7502e)" style="fill: #117733; fill-opacity: 0.6; stroke: #ffffff; stroke-opacity: 0.6; stroke-width: 0.339411"/>
    <path d="M 174.969392 144.241184 
L 176.383605 144.241184 
L 176.383605 142.82697 
L 177.797819 142.82697 
L 177.797819 141.412757 
L 176.383605 141.412757 
L 176.383605 139.998543 
L 174.969392 139.998543 
L 174.969392 141.412757 
L 173.555178 141.412757 
L 173.555178 142.82697 
L 174.969392 142.82697 
z
" clip-path="url(#p3fb2a7502e)" style="fill: #117733; fill-opacity: 0.6; stroke: #ffffff; stroke-opacity: 0.6; stroke-width: 0.339411"/>
    <path d="M 179.203905 155.236629 
L 180.618119 155.236629 
L 180.618119 153.822415 
L 182.032332 153.822415 
L 182.032332 152.408202 
L 180.618119 152.408202 
L 180.618119 150.993988 
L 179.203905 150.993988 
L 179.203905 152.408202 
L 177.789692 152.408202 
L 177.789692 153.822415 
L 179.203905 153.822415 
z
" clip-path="url(#p3fb2a7502e)" style="fill: #117733; fill-opacity: 0.6; stroke: #ffffff; stroke-opacity: 0.6; stroke-width: 0.339411"/>
    <path d="M 162.799305 165.651588 
L 164.213519 165.651588 
L 164.213519 164.237375 
L 165.627732 164.237375 
L 165.627732 162.823161 
L 164.213519 162.823161 
L 164.213519 161.408947 
L 162.799305 161.408947 
L 162.799305 162.823161 
L 161.385092 162.823161 
L 161.385092 164.237375 
L 162.799305 164.237375 
z
" clip-path="url(#p3fb2a7502e)" style="fill: #117733; fill-opacity: 0.6; stroke: #ffffff; stroke-opacity: 0.6; stroke-width: 0.339411"/>
    <path d="M 177.446972 172.528167 
L 178.861185 172.528167 
L 178.861185 171.113954 
L 180.275399 171.113954 
L 180.275399 169.69974 
L 178.861185 169.69974 
L 178.861185 168.285527 
L 177.446972 168.285527 
L 177.446972 169.69974 
L 176.032758 169.69974 
L 176.032758 171.113954 
L 177.446972 171.113954 
z
" clip-path="url(#p3fb2a7502e)" style="fill: #117733; fill-opacity: 0.6; stroke: #ffffff; stroke-opacity: 0.6; stroke-width: 0.339411"/>
    <path d="M 131.381228 158.881888 
L 132.795442 158.881888 
L 132.795442 157.467674 
L 134.209655 157.467674 
L 134.209655 156.053461 
L 132.795442 156.053461 
L 132.795442 154.639247 
L 131.381228 154.639247 
L 131.381228 156.053461 
L 129.967015 156.053461 
L 129.967015 157.467674 
L 131.381228 157.467674 
z
" clip-path="url(#p3fb2a7502e)" style="fill: #117733; fill-opacity: 0.6; stroke: #ffffff; stroke-opacity: 0.6; stroke-width: 0.339411"/>
    <path d="M 182.370517 161.92282 
L 183.78473 161.92282 
L 183.78473 160.508607 
L 185.198944 160.508607 
L 185.198944 159.094393 
L 183.78473 159.094393 
L 183.78473 157.680179 
L 182.370517 157.680179 
L 182.370517 159.094393 
L 180.956303 159.094393 
L 180.956303 160.508607 
L 182.370517 160.508607 
z
" clip-path="url(#p3fb2a7502e)" style="fill: #117733; fill-opacity: 0.6; stroke: #ffffff; stroke-opacity: 0.6; stroke-width: 0.339411"/>
    <path d="M 190.141744 164.762451 
L 191.555957 164.762451 
L 191.555957 163.348238 
L 192.970171 163.348238 
L 192.970171 161.934024 
L 191.555957 161.934024 
L 191.555957 160.519811 
L 190.141744 160.519811 
L 190.141744 161.934024 
L 188.72753 161.934024 
L 188.72753 163.348238 
L 190.141744 163.348238 
z
" clip-path="url(#p3fb2a7502e)" style="fill: #117733; fill-opacity: 0.6; stroke: #ffffff; stroke-opacity: 0.6; stroke-width: 0.339411"/>
    <path d="M 160.31104 112.235673 
L 161.725254 112.235673 
L 161.725254 110.821459 
L 163.139467 110.821459 
L 163.139467 109.407246 
L 161.725254 109.407246 
L 161.725254 107.993032 
L 160.31104 107.993032 
L 160.31104 109.407246 
L 158.896826 109.407246 
L 158.896826 110.821459 
L 160.31104 110.821459 
z
" clip-path="url(#p3fb2a7502e)" style="fill: #117733; fill-opacity: 0.6; stroke: #ffffff; stroke-opacity: 0.6; stroke-width: 0.339411"/>
    <path d="M 155.343791 118.6373 
L 156.758005 118.6373 
L 156.758005 117.223086 
L 158.172218 117.223086 
L 158.172218 115.808872 
L 156.758005 115.808872 
L 156.758005 114.394659 
L 155.343791 114.394659 
L 155.343791 115.808872 
L 153.929578 115.808872 
L 153.929578 117.223086 
L 155.343791 117.223086 
z
" clip-path="url(#p3fb2a7502e)" style="fill: #117733; fill-opacity: 0.6; stroke: #ffffff; stroke-opacity: 0.6; stroke-width: 0.339411"/>
    <path d="M 153.841555 119.748372 
L 155.255769 119.748372 
L 155.255769 118.334158 
L 156.669982 118.334158 
L 156.669982 116.919944 
L 155.255769 116.919944 
L 155.255769 115.505731 
L 153.841555 115.505731 
L 153.841555 116.919944 
L 152.427342 116.919944 
L 152.427342 118.334158 
L 153.841555 118.334158 
z
" clip-path="url(#p3fb2a7502e)" style="fill: #117733; fill-opacity: 0.6; stroke: #ffffff; stroke-opacity: 0.6; stroke-width: 0.339411"/>
    <path d="M 110.04008 167.332211 
L 111.454293 167.332211 
L 111.454293 165.917997 
L 112.868507 165.917997 
L 112.868507 164.503784 
L 111.454293 164.503784 
L 111.454293 163.08957 
L 110.04008 163.08957 
L 110.04008 164.503784 
L 108.625866 164.503784 
L 108.625866 165.917997 
L 110.04008 165.917997 
z
" clip-path="url(#p3fb2a7502e)" style="fill: #117733; fill-opacity: 0.6; stroke: #ffffff; stroke-opacity: 0.6; stroke-width: 0.339411"/>
    <path d="M 131.685743 160.712513 
L 133.099956 160.712513 
L 133.099956 159.2983 
L 134.51417 159.2983 
L 134.51417 157.884086 
L 133.099956 157.884086 
L 133.099956 156.469873 
L 131.685743 156.469873 
L 131.685743 157.884086 
L 130.271529 157.884086 
L 130.271529 159.2983 
L 131.685743 159.2983 
z
" clip-path="url(#p3fb2a7502e)" style="fill: #117733; fill-opacity: 0.6; stroke: #ffffff; stroke-opacity: 0.6; stroke-width: 0.339411"/>
    <path d="M 168.022263 169.847357 
L 169.436476 169.847357 
L 169.436476 168.433143 
L 170.85069 168.433143 
L 170.85069 167.01893 
L 169.436476 167.01893 
L 169.436476 165.604716 
L 168.022263 165.604716 
L 168.022263 167.01893 
L 166.608049 167.01893 
L 166.608049 168.433143 
L 168.022263 168.433143 
z
" clip-path="url(#p3fb2a7502e)" style="fill: #117733; fill-opacity: 0.6; stroke: #ffffff; stroke-opacity: 0.6; stroke-width: 0.339411"/>
    <path d="M 161.28506 114.549689 
L 162.699274 114.549689 
L 162.699274 113.135475 
L 164.113488 113.135475 
L 164.113488 111.721261 
L 162.699274 111.721261 
L 162.699274 110.307048 
L 161.28506 110.307048 
L 161.28506 111.721261 
L 159.870847 111.721261 
L 159.870847 113.135475 
L 161.28506 113.135475 
z
" clip-path="url(#p3fb2a7502e)" style="fill: #117733; fill-opacity: 0.6; stroke: #ffffff; stroke-opacity: 0.6; stroke-width: 0.339411"/>
    <path d="M 153.439518 110.496656 
L 154.853731 110.496656 
L 154.853731 109.082443 
L 156.267945 109.082443 
L 156.267945 107.668229 
L 154.853731 107.668229 
L 154.853731 106.254016 
L 153.439518 106.254016 
L 153.439518 107.668229 
L 152.025304 107.668229 
L 152.025304 109.082443 
L 153.439518 109.082443 
z
" clip-path="url(#p3fb2a7502e)" style="fill: #117733; fill-opacity: 0.6; stroke: #ffffff; stroke-opacity: 0.6; stroke-width: 0.339411"/>
    <path d="M 174.055352 170.230339 
L 175.469565 170.230339 
L 175.469565 168.816126 
L 176.883779 168.816126 
L 176.883779 167.401912 
L 175.469565 167.401912 
L 175.469565 165.987698 
L 174.055352 165.987698 
L 174.055352 167.401912 
L 172.641138 167.401912 
L 172.641138 168.816126 
L 174.055352 168.816126 
z
" clip-path="url(#p3fb2a7502e)" style="fill: #117733; fill-opacity: 0.6; stroke: #ffffff; stroke-opacity: 0.6; stroke-width: 0.339411"/>
    <path d="M 173.18536 144.061102 
L 174.599574 144.061102 
L 174.599574 142.646888 
L 176.013787 142.646888 
L 176.013787 141.232675 
L 174.599574 141.232675 
L 174.599574 139.818461 
L 173.18536 139.818461 
L 173.18536 141.232675 
L 171.771146 141.232675 
L 171.771146 142.646888 
L 173.18536 142.646888 
z
" clip-path="url(#p3fb2a7502e)" style="fill: #117733; fill-opacity: 0.6; stroke: #ffffff; stroke-opacity: 0.6; stroke-width: 0.339411"/>
    <path d="M 186.234174 167.345714 
L 187.648388 167.345714 
L 187.648388 165.9315 
L 189.062601 165.9315 
L 189.062601 164.517287 
L 187.648388 164.517287 
L 187.648388 163.103073 
L 186.234174 163.103073 
L 186.234174 164.517287 
L 184.819961 164.517287 
L 184.819961 165.9315 
L 186.234174 165.9315 
z
" clip-path="url(#p3fb2a7502e)" style="fill: #117733; fill-opacity: 0.6; stroke: #ffffff; stroke-opacity: 0.6; stroke-width: 0.339411"/>
    <path d="M 158.546076 123.086962 
L 159.96029 123.086962 
L 159.96029 121.672749 
L 161.374504 121.672749 
L 161.374504 120.258535 
L 159.96029 120.258535 
L 159.96029 118.844322 
L 158.546076 118.844322 
L 158.546076 120.258535 
L 157.131863 120.258535 
L 157.131863 121.672749 
L 158.546076 121.672749 
z
" clip-path="url(#p3fb2a7502e)" style="fill: #117733; fill-opacity: 0.6; stroke: #ffffff; stroke-opacity: 0.6; stroke-width: 0.339411"/>
    <path d="M 176.11907 142.460549 
L 177.533283 142.460549 
L 177.533283 141.046335 
L 178.947497 141.046335 
L 178.947497 139.632121 
L 177.533283 139.632121 
L 177.533283 138.217908 
L 176.11907 138.217908 
L 176.11907 139.632121 
L 174.704856 139.632121 
L 174.704856 141.046335 
L 176.11907 141.046335 
z
" clip-path="url(#p3fb2a7502e)" style="fill: #117733; fill-opacity: 0.6; stroke: #ffffff; stroke-opacity: 0.6; stroke-width: 0.339411"/>
    <path d="M 156.365013 113.527977 
L 157.779226 113.527977 
L 157.779226 112.113764 
L 159.19344 112.113764 
L 159.19344 110.69955 
L 157.779226 110.69955 
L 157.779226 109.285337 
L 156.365013 109.285337 
L 156.365013 110.69955 
L 154.950799 110.69955 
L 154.950799 112.113764 
L 156.365013 112.113764 
z
" clip-path="url(#p3fb2a7502e)" style="fill: #117733; fill-opacity: 0.6; stroke: #ffffff; stroke-opacity: 0.6; stroke-width: 0.339411"/>
    <path d="M 181.233393 156.617634 
L 182.647607 156.617634 
L 182.647607 155.20342 
L 184.06182 155.20342 
L 184.06182 153.789207 
L 182.647607 153.789207 
L 182.647607 152.374993 
L 181.233393 152.374993 
L 181.233393 153.789207 
L 179.81918 153.789207 
L 179.81918 155.20342 
L 181.233393 155.20342 
z
" clip-path="url(#p3fb2a7502e)" style="fill: #117733; fill-opacity: 0.6; stroke: #ffffff; stroke-opacity: 0.6; stroke-width: 0.339411"/>
    <path d="M 157.985059 108.803413 
L 159.399273 108.803413 
L 159.399273 107.3892 
L 160.813487 107.3892 
L 160.813487 105.974986 
L 159.399273 105.974986 
L 159.399273 104.560773 
L 157.985059 104.560773 
L 157.985059 105.974986 
L 156.570846 105.974986 
L 156.570846 107.3892 
L 157.985059 107.3892 
z
" clip-path="url(#p3fb2a7502e)" style="fill: #117733; fill-opacity: 0.6; stroke: #ffffff; stroke-opacity: 0.6; stroke-width: 0.339411"/>
    <path d="M 155.395324 111.758574 
L 156.809538 111.758574 
L 156.809538 110.34436 
L 158.223751 110.34436 
L 158.223751 108.930147 
L 156.809538 108.930147 
L 156.809538 107.515933 
L 155.395324 107.515933 
L 155.395324 108.930147 
L 153.981111 108.930147 
L 153.981111 110.34436 
L 155.395324 110.34436 
z
" clip-path="url(#p3fb2a7502e)" style="fill: #117733; fill-opacity: 0.6; stroke: #ffffff; stroke-opacity: 0.6; stroke-width: 0.339411"/>
    <path d="M 180.73786 173.782505 
L 182.152073 173.782505 
L 182.152073 172.368291 
L 183.566287 172.368291 
L 183.566287 170.954078 
L 182.152073 170.954078 
L 182.152073 169.539864 
L 180.73786 169.539864 
L 180.73786 170.954078 
L 179.323646 170.954078 
L 179.323646 172.368291 
L 180.73786 172.368291 
z
" clip-path="url(#p3fb2a7502e)" style="fill: #117733; fill-opacity: 0.6; stroke: #ffffff; stroke-opacity: 0.6; stroke-width: 0.339411"/>
    <path d="M 184.798433 154.485423 
L 186.212646 154.485423 
L 186.212646 153.071209 
L 187.62686 153.071209 
L 187.62686 151.656996 
L 186.212646 151.656996 
L 186.212646 150.242782 
L 184.798433 150.242782 
L 184.798433 151.656996 
L 183.384219 151.656996 
L 183.384219 153.071209 
L 184.798433 153.071209 
z
" clip-path="url(#p3fb2a7502e)" style="fill: #117733; fill-opacity: 0.6; stroke: #ffffff; stroke-opacity: 0.6; stroke-width: 0.339411"/>
    <path d="M 158.784209 139.109227 
L 160.198422 139.109227 
L 160.198422 137.695013 
L 161.612636 137.695013 
L 161.612636 136.2808 
L 160.198422 136.2808 
L 160.198422 134.866586 
L 158.784209 134.866586 
L 158.784209 136.2808 
L 157.369995 136.2808 
L 157.369995 137.695013 
L 158.784209 137.695013 
z
" clip-path="url(#p3fb2a7502e)" style="fill: #117733; fill-opacity: 0.6; stroke: #ffffff; stroke-opacity: 0.6; stroke-width: 0.339411"/>
    <path d="M 152.681256 112.332061 
L 154.09547 112.332061 
L 154.09547 110.917847 
L 155.509684 110.917847 
L 155.509684 109.503634 
L 154.09547 109.503634 
L 154.09547 108.08942 
L 152.681256 108.08942 
L 152.681256 109.503634 
L 151.267043 109.503634 
L 151.267043 110.917847 
L 152.681256 110.917847 
z
" clip-path="url(#p3fb2a7502e)" style="fill: #117733; fill-opacity: 0.6; stroke: #ffffff; stroke-opacity: 0.6; stroke-width: 0.339411"/>
    <path d="M 175.044437 174.292245 
L 176.458651 174.292245 
L 176.458651 172.878031 
L 177.872864 172.878031 
L 177.872864 171.463817 
L 176.458651 171.463817 
L 176.458651 170.049604 
L 175.044437 170.049604 
L 175.044437 171.463817 
L 173.630224 171.463817 
L 173.630224 172.878031 
L 175.044437 172.878031 
z
" clip-path="url(#p3fb2a7502e)" style="fill: #117733; fill-opacity: 0.6; stroke: #ffffff; stroke-opacity: 0.6; stroke-width: 0.339411"/>
    <path d="M 182.542644 159.250584 
L 183.956858 159.250584 
L 183.956858 157.836371 
L 185.371071 157.836371 
L 185.371071 156.422157 
L 183.956858 156.422157 
L 183.956858 155.007944 
L 182.542644 155.007944 
L 182.542644 156.422157 
L 181.128431 156.422157 
L 181.128431 157.836371 
L 182.542644 157.836371 
z
" clip-path="url(#p3fb2a7502e)" style="fill: #117733; fill-opacity: 0.6; stroke: #ffffff; stroke-opacity: 0.6; stroke-width: 0.339411"/>
    <path d="M 156.057611 110.044835 
L 157.471824 110.044835 
L 157.471824 108.630621 
L 158.886038 108.630621 
L 158.886038 107.216407 
L 157.471824 107.216407 
L 157.471824 105.802194 
L 156.057611 105.802194 
L 156.057611 107.216407 
L 154.643397 107.216407 
L 154.643397 108.630621 
L 156.057611 108.630621 
z
" clip-path="url(#p3fb2a7502e)" style="fill: #117733; fill-opacity: 0.6; stroke: #ffffff; stroke-opacity: 0.6; stroke-width: 0.339411"/>
    <path d="M 180.869934 169.087193 
L 182.284147 169.087193 
L 182.284147 167.672979 
L 183.698361 167.672979 
L 183.698361 166.258766 
L 182.284147 166.258766 
L 182.284147 164.844552 
L 180.869934 164.844552 
L 180.869934 166.258766 
L 179.45572 166.258766 
L 179.45572 167.672979 
L 180.869934 167.672979 
z
" clip-path="url(#p3fb2a7502e)" style="fill: #117733; fill-opacity: 0.6; stroke: #ffffff; stroke-opacity: 0.6; stroke-width: 0.339411"/>
    <path d="M 151.107986 119.463331 
L 152.5222 119.463331 
L 152.5222 118.049117 
L 153.936413 118.049117 
L 153.936413 116.634903 
L 152.5222 116.634903 
L 152.5222 115.22069 
L 151.107986 115.22069 
L 151.107986 116.634903 
L 149.693773 116.634903 
L 149.693773 118.049117 
L 151.107986 118.049117 
z
" clip-path="url(#p3fb2a7502e)" style="fill: #117733; fill-opacity: 0.6; stroke: #ffffff; stroke-opacity: 0.6; stroke-width: 0.339411"/>
    <path d="M 203.073838 146.402814 
L 204.488052 146.402814 
L 204.488052 144.988601 
L 205.902265 144.988601 
L 205.902265 143.574387 
L 204.488052 143.574387 
L 204.488052 142.160174 
L 203.073838 142.160174 
L 203.073838 143.574387 
L 201.659625 143.574387 
L 201.659625 144.988601 
L 203.073838 144.988601 
z
" clip-path="url(#p3fb2a7502e)" style="fill: #117733; fill-opacity: 0.6; stroke: #ffffff; stroke-opacity: 0.6; stroke-width: 0.339411"/>
    <path d="M 185.37936 171.509512 
L 186.793574 171.509512 
L 186.793574 170.095298 
L 188.207787 170.095298 
L 188.207787 168.681085 
L 186.793574 168.681085 
L 186.793574 167.266871 
L 185.37936 167.266871 
L 185.37936 168.681085 
L 183.965147 168.681085 
L 183.965147 170.095298 
L 185.37936 170.095298 
z
" clip-path="url(#p3fb2a7502e)" style="fill: #117733; fill-opacity: 0.6; stroke: #ffffff; stroke-opacity: 0.6; stroke-width: 0.339411"/>
    <path d="M 161.948159 156.974522 
L 163.748159 153.974522 
L 161.948159 150.974522 
L 160.148159 153.974522 
z
" clip-path="url(#p3fb2a7502e)" style="fill: #44aa99; fill-opacity: 0.6; stroke: #ffffff; stroke-opacity: 0.6; stroke-width: 0.339411"/>
    <path d="M 209.048801 142.452437 
L 210.848801 139.452437 
L 209.048801 136.452437 
L 207.248801 139.452437 
z
" clip-path="url(#p3fb2a7502e)" style="fill: #44aa99; fill-opacity: 0.6; stroke: #ffffff; stroke-opacity: 0.6; stroke-width: 0.339411"/>
    <path d="M 167.115588 176.152671 
L 168.915588 173.152671 
L 167.115588 170.152671 
L 165.315588 173.152671 
z
" clip-path="url(#p3fb2a7502e)" style="fill: #44aa99; fill-opacity: 0.6; stroke: #ffffff; stroke-opacity: 0.6; stroke-width: 0.339411"/>
    <path d="M 206.381157 144.182659 
L 208.181157 141.182659 
L 206.381157 138.182659 
L 204.581157 141.182659 
z
" clip-path="url(#p3fb2a7502e)" style="fill: #44aa99; fill-opacity: 0.6; stroke: #ffffff; stroke-opacity: 0.6; stroke-width: 0.339411"/>
    <path d="M 145.450014 151.151136 
L 147.250014 148.151136 
L 145.450014 145.151136 
L 143.650014 148.151136 
z
" clip-path="url(#p3fb2a7502e)" style="fill: #44aa99; fill-opacity: 0.6; stroke: #ffffff; stroke-opacity: 0.6; stroke-width: 0.339411"/>
    <path d="M 214.417558 132.191821 
L 216.217558 129.191821 
L 214.417558 126.191821 
L 212.617558 129.191821 
z
" clip-path="url(#p3fb2a7502e)" style="fill: #44aa99; fill-opacity: 0.6; stroke: #ffffff; stroke-opacity: 0.6; stroke-width: 0.339411"/>
    <path d="M 160.685836 135.596475 
L 162.485836 132.596475 
L 160.685836 129.596475 
L 158.885836 132.596475 
z
" clip-path="url(#p3fb2a7502e)" style="fill: #44aa99; fill-opacity: 0.6; stroke: #ffffff; stroke-opacity: 0.6; stroke-width: 0.339411"/>
    <path d="M 177.893091 159.091843 
L 179.693091 156.091843 
L 177.893091 153.091843 
L 176.093091 156.091843 
z
" clip-path="url(#p3fb2a7502e)" style="fill: #44aa99; fill-opacity: 0.6; stroke: #ffffff; stroke-opacity: 0.6; stroke-width: 0.339411"/>
    <path d="M 130.845835 149.113065 
L 132.645835 146.113065 
L 130.845835 143.113065 
L 129.045835 146.113065 
z
" clip-path="url(#p3fb2a7502e)" style="fill: #44aa99; fill-opacity: 0.6; stroke: #ffffff; stroke-opacity: 0.6; stroke-width: 0.339411"/>
    <path d="M 129.962559 146.389472 
L 131.762559 143.389472 
L 129.962559 140.389472 
L 128.162559 143.389472 
z
" clip-path="url(#p3fb2a7502e)" style="fill: #44aa99; fill-opacity: 0.6; stroke: #ffffff; stroke-opacity: 0.6; stroke-width: 0.339411"/>
    <path d="M 210.92081 139.618246 
L 212.72081 136.618246 
L 210.92081 133.618246 
L 209.12081 136.618246 
z
" clip-path="url(#p3fb2a7502e)" style="fill: #44aa99; fill-opacity: 0.6; stroke: #ffffff; stroke-opacity: 0.6; stroke-width: 0.339411"/>
    <path d="M 205.142451 133.596408 
L 206.942451 130.596408 
L 205.142451 127.596408 
L 203.342451 130.596408 
z
" clip-path="url(#p3fb2a7502e)" style="fill: #44aa99; fill-opacity: 0.6; stroke: #ffffff; stroke-opacity: 0.6; stroke-width: 0.339411"/>
    <path d="M 183.449121 175.358744 
L 185.249121 172.358744 
L 183.449121 169.358744 
L 181.649121 172.358744 
z
" clip-path="url(#p3fb2a7502e)" style="fill: #44aa99; fill-opacity: 0.6; stroke: #ffffff; stroke-opacity: 0.6; stroke-width: 0.339411"/>
    <path d="M 162.718485 133.736337 
L 164.518485 130.736337 
L 162.718485 127.736337 
L 160.918485 130.736337 
z
" clip-path="url(#p3fb2a7502e)" style="fill: #44aa99; fill-opacity: 0.6; stroke: #ffffff; stroke-opacity: 0.6; stroke-width: 0.339411"/>
    <path d="M 181.283251 162.465981 
L 183.083251 159.465981 
L 181.283251 156.465981 
L 179.483251 159.465981 
z
" clip-path="url(#p3fb2a7502e)" style="fill: #44aa99; fill-opacity: 0.6; stroke: #ffffff; stroke-opacity: 0.6; stroke-width: 0.339411"/>
    <path d="M 127.238059 146.612633 
L 129.038059 143.612633 
L 127.238059 140.612633 
L 125.438059 143.612633 
z
" clip-path="url(#p3fb2a7502e)" style="fill: #44aa99; fill-opacity: 0.6; stroke: #ffffff; stroke-opacity: 0.6; stroke-width: 0.339411"/>
    <path d="M 172.861065 170.012045 
L 174.661065 167.012045 
L 172.861065 164.012045 
L 171.061065 167.012045 
z
" clip-path="url(#p3fb2a7502e)" style="fill: #44aa99; fill-opacity: 0.6; stroke: #ffffff; stroke-opacity: 0.6; stroke-width: 0.339411"/>
    <path d="M 164.20714 135.063329 
L 166.00714 132.063329 
L 164.20714 129.063329 
L 162.40714 132.063329 
z
" clip-path="url(#p3fb2a7502e)" style="fill: #44aa99; fill-opacity: 0.6; stroke: #ffffff; stroke-opacity: 0.6; stroke-width: 0.339411"/>
    <path d="M 171.773373 164.879841 
L 173.573373 161.879841 
L 171.773373 158.879841 
L 169.973373 161.879841 
z
" clip-path="url(#p3fb2a7502e)" style="fill: #44aa99; fill-opacity: 0.6; stroke: #ffffff; stroke-opacity: 0.6; stroke-width: 0.339411"/>
    <path d="M 158.51022 151.351096 
L 160.31022 148.351096 
L 158.51022 145.351096 
L 156.71022 148.351096 
z
" clip-path="url(#p3fb2a7502e)" style="fill: #44aa99; fill-opacity: 0.6; stroke: #ffffff; stroke-opacity: 0.6; stroke-width: 0.339411"/>
    <path d="M 201.153298 132.484359 
L 202.953298 129.484359 
L 201.153298 126.484359 
L 199.353298 129.484359 
z
" clip-path="url(#p3fb2a7502e)" style="fill: #44aa99; fill-opacity: 0.6; stroke: #ffffff; stroke-opacity: 0.6; stroke-width: 0.339411"/>
    <path d="M 130.519906 148.420673 
L 132.319906 145.420673 
L 130.519906 142.420673 
L 128.719906 145.420673 
z
" clip-path="url(#p3fb2a7502e)" style="fill: #44aa99; fill-opacity: 0.6; stroke: #ffffff; stroke-opacity: 0.6; stroke-width: 0.339411"/>
    <path d="M 158.056769 159.91501 
L 159.856769 156.91501 
L 158.056769 153.91501 
L 156.256769 156.91501 
z
" clip-path="url(#p3fb2a7502e)" style="fill: #44aa99; fill-opacity: 0.6; stroke: #ffffff; stroke-opacity: 0.6; stroke-width: 0.339411"/>
    <path d="M 146.073763 140.692952 
L 147.873763 137.692952 
L 146.073763 134.692952 
L 144.273763 137.692952 
z
" clip-path="url(#p3fb2a7502e)" style="fill: #44aa99; fill-opacity: 0.6; stroke: #ffffff; stroke-opacity: 0.6; stroke-width: 0.339411"/>
    <path d="M 171.687746 159.722342 
L 173.487746 156.722342 
L 171.687746 153.722342 
L 169.887746 156.722342 
z
" clip-path="url(#p3fb2a7502e)" style="fill: #44aa99; fill-opacity: 0.6; stroke: #ffffff; stroke-opacity: 0.6; stroke-width: 0.339411"/>
    <path d="M 144.841503 148.891571 
L 146.641503 145.891571 
L 144.841503 142.891571 
L 143.041503 145.891571 
z
" clip-path="url(#p3fb2a7502e)" style="fill: #44aa99; fill-opacity: 0.6; stroke: #ffffff; stroke-opacity: 0.6; stroke-width: 0.339411"/>
    <path d="M 201.872998 138.499481 
L 203.672998 135.499481 
L 201.872998 132.499481 
L 200.072998 135.499481 
z
" clip-path="url(#p3fb2a7502e)" style="fill: #44aa99; fill-opacity: 0.6; stroke: #ffffff; stroke-opacity: 0.6; stroke-width: 0.339411"/>
    <path d="M 204.754693 140.363786 
L 206.554693 137.363786 
L 204.754693 134.363786 
L 202.954693 137.363786 
z
" clip-path="url(#p3fb2a7502e)" style="fill: #44aa99; fill-opacity: 0.6; stroke: #ffffff; stroke-opacity: 0.6; stroke-width: 0.339411"/>
    <path d="M 205.869531 142.460896 
L 207.669531 139.460896 
L 205.869531 136.460896 
L 204.069531 139.460896 
z
" clip-path="url(#p3fb2a7502e)" style="fill: #44aa99; fill-opacity: 0.6; stroke: #ffffff; stroke-opacity: 0.6; stroke-width: 0.339411"/>
    <path d="M 212.926281 130.792797 
L 214.726281 127.792797 
L 212.926281 124.792797 
L 211.126281 127.792797 
z
" clip-path="url(#p3fb2a7502e)" style="fill: #44aa99; fill-opacity: 0.6; stroke: #ffffff; stroke-opacity: 0.6; stroke-width: 0.339411"/>
    <path d="M 207.035173 137.210026 
L 208.835173 134.210026 
L 207.035173 131.210026 
L 205.235173 134.210026 
z
" clip-path="url(#p3fb2a7502e)" style="fill: #44aa99; fill-opacity: 0.6; stroke: #ffffff; stroke-opacity: 0.6; stroke-width: 0.339411"/>
    <path d="M 146.614076 141.725353 
L 148.414076 138.725353 
L 146.614076 135.725353 
L 144.814076 138.725353 
z
" clip-path="url(#p3fb2a7502e)" style="fill: #44aa99; fill-opacity: 0.6; stroke: #ffffff; stroke-opacity: 0.6; stroke-width: 0.339411"/>
    <path d="M 199.586975 137.261617 
L 201.386975 134.261617 
L 199.586975 131.261617 
L 197.786975 134.261617 
z
" clip-path="url(#p3fb2a7502e)" style="fill: #44aa99; fill-opacity: 0.6; stroke: #ffffff; stroke-opacity: 0.6; stroke-width: 0.339411"/>
    <path d="M 179.633034 152.100341 
L 181.433034 149.100341 
L 179.633034 146.100341 
L 177.833034 149.100341 
z
" clip-path="url(#p3fb2a7502e)" style="fill: #44aa99; fill-opacity: 0.6; stroke: #ffffff; stroke-opacity: 0.6; stroke-width: 0.339411"/>
    <path d="M 192.036617 157.159819 
L 193.836617 154.159819 
L 192.036617 151.159819 
L 190.236617 154.159819 
z
" clip-path="url(#p3fb2a7502e)" style="fill: #44aa99; fill-opacity: 0.6; stroke: #ffffff; stroke-opacity: 0.6; stroke-width: 0.339411"/>
    <path d="M 207.377639 133.323614 
L 209.177639 130.323614 
L 207.377639 127.323614 
L 205.577639 130.323614 
z
" clip-path="url(#p3fb2a7502e)" style="fill: #44aa99; fill-opacity: 0.6; stroke: #ffffff; stroke-opacity: 0.6; stroke-width: 0.339411"/>
    <path d="M 202.724057 133.555748 
L 204.524057 130.555748 
L 202.724057 127.555748 
L 200.924057 130.555748 
z
" clip-path="url(#p3fb2a7502e)" style="fill: #44aa99; fill-opacity: 0.6; stroke: #ffffff; stroke-opacity: 0.6; stroke-width: 0.339411"/>
    <path d="M 146.272568 138.64962 
L 148.072568 135.64962 
L 146.272568 132.64962 
L 144.472568 135.64962 
z
" clip-path="url(#p3fb2a7502e)" style="fill: #44aa99; fill-opacity: 0.6; stroke: #ffffff; stroke-opacity: 0.6; stroke-width: 0.339411"/>
    <path d="M 145.26958 139.861107 
L 147.06958 136.861107 
L 145.26958 133.861107 
L 143.46958 136.861107 
z
" clip-path="url(#p3fb2a7502e)" style="fill: #44aa99; fill-opacity: 0.6; stroke: #ffffff; stroke-opacity: 0.6; stroke-width: 0.339411"/>
    <path d="M 162.247009 136.07479 
L 164.047009 133.07479 
L 162.247009 130.07479 
L 160.447009 133.07479 
z
" clip-path="url(#p3fb2a7502e)" style="fill: #44aa99; fill-opacity: 0.6; stroke: #ffffff; stroke-opacity: 0.6; stroke-width: 0.339411"/>
    <path d="M 155.733508 146.398755 
L 157.533508 143.398755 
L 155.733508 140.398755 
L 153.933508 143.398755 
z
" clip-path="url(#p3fb2a7502e)" style="fill: #44aa99; fill-opacity: 0.6; stroke: #ffffff; stroke-opacity: 0.6; stroke-width: 0.339411"/>
    <path d="M 207.752025 134.105601 
L 209.552025 131.105601 
L 207.752025 128.105601 
L 205.952025 131.105601 
z
" clip-path="url(#p3fb2a7502e)" style="fill: #44aa99; fill-opacity: 0.6; stroke: #ffffff; stroke-opacity: 0.6; stroke-width: 0.339411"/>
    <path d="M 200.867314 141.820475 
L 202.667314 138.820475 
L 200.867314 135.820475 
L 199.067314 138.820475 
z
" clip-path="url(#p3fb2a7502e)" style="fill: #44aa99; fill-opacity: 0.6; stroke: #ffffff; stroke-opacity: 0.6; stroke-width: 0.339411"/>
    <path d="M 144.451651 137.549217 
L 146.251651 134.549217 
L 144.451651 131.549217 
L 142.651651 134.549217 
z
" clip-path="url(#p3fb2a7502e)" style="fill: #44aa99; fill-opacity: 0.6; stroke: #ffffff; stroke-opacity: 0.6; stroke-width: 0.339411"/>
    <path d="M 213.786574 130.207435 
L 215.586574 127.207435 
L 213.786574 124.207435 
L 211.986574 127.207435 
z
" clip-path="url(#p3fb2a7502e)" style="fill: #44aa99; fill-opacity: 0.6; stroke: #ffffff; stroke-opacity: 0.6; stroke-width: 0.339411"/>
    <path d="M 202.90809 134.119477 
L 204.70809 131.119477 
L 202.90809 128.119477 
L 201.10809 131.119477 
z
" clip-path="url(#p3fb2a7502e)" style="fill: #44aa99; fill-opacity: 0.6; stroke: #ffffff; stroke-opacity: 0.6; stroke-width: 0.339411"/>
    <path d="M 215.25786 133.254854 
L 217.05786 130.254854 
L 215.25786 127.254854 
L 213.45786 130.254854 
z
" clip-path="url(#p3fb2a7502e)" style="fill: #44aa99; fill-opacity: 0.6; stroke: #ffffff; stroke-opacity: 0.6; stroke-width: 0.339411"/>
    <path d="M 117.112832 138.489702 
L 118.912832 135.489702 
L 117.112832 132.489702 
L 115.312832 135.489702 
z
" clip-path="url(#p3fb2a7502e)" style="fill: #44aa99; fill-opacity: 0.6; stroke: #ffffff; stroke-opacity: 0.6; stroke-width: 0.339411"/>
    <path d="M 199.022404 132.179706 
L 200.822404 129.179706 
L 199.022404 126.179706 
L 197.222404 129.179706 
z
" clip-path="url(#p3fb2a7502e)" style="fill: #44aa99; fill-opacity: 0.6; stroke: #ffffff; stroke-opacity: 0.6; stroke-width: 0.339411"/>
    <path d="M 171.593785 157.879385 
L 173.393785 154.879385 
L 171.593785 151.879385 
L 169.793785 154.879385 
z
" clip-path="url(#p3fb2a7502e)" style="fill: #44aa99; fill-opacity: 0.6; stroke: #ffffff; stroke-opacity: 0.6; stroke-width: 0.339411"/>
    <path d="M 204.455345 138.222773 
L 206.255345 135.222773 
L 204.455345 132.222773 
L 202.655345 135.222773 
z
" clip-path="url(#p3fb2a7502e)" style="fill: #44aa99; fill-opacity: 0.6; stroke: #ffffff; stroke-opacity: 0.6; stroke-width: 0.339411"/>
    <path d="M 209.514132 136.969934 
L 211.314132 133.969934 
L 209.514132 130.969934 
L 207.714132 133.969934 
z
" clip-path="url(#p3fb2a7502e)" style="fill: #44aa99; fill-opacity: 0.6; stroke: #ffffff; stroke-opacity: 0.6; stroke-width: 0.339411"/>
    <path d="M 175.787451 159.76524 
L 177.587451 156.76524 
L 175.787451 153.76524 
L 173.987451 156.76524 
z
" clip-path="url(#p3fb2a7502e)" style="fill: #44aa99; fill-opacity: 0.6; stroke: #ffffff; stroke-opacity: 0.6; stroke-width: 0.339411"/>
    <path d="M 189.187074 154.357939 
L 190.987074 151.357939 
L 189.187074 148.357939 
L 187.387074 151.357939 
z
" clip-path="url(#p3fb2a7502e)" style="fill: #44aa99; fill-opacity: 0.6; stroke: #ffffff; stroke-opacity: 0.6; stroke-width: 0.339411"/>
    <path d="M 155.122234 155.378545 
L 156.922234 152.378545 
L 155.122234 149.378545 
L 153.322234 152.378545 
z
" clip-path="url(#p3fb2a7502e)" style="fill: #44aa99; fill-opacity: 0.6; stroke: #ffffff; stroke-opacity: 0.6; stroke-width: 0.339411"/>
    <path d="M 176.727378 162.605961 
L 178.527378 159.605961 
L 176.727378 156.605961 
L 174.927378 159.605961 
z
" clip-path="url(#p3fb2a7502e)" style="fill: #44aa99; fill-opacity: 0.6; stroke: #ffffff; stroke-opacity: 0.6; stroke-width: 0.339411"/>
    <path d="M 132.488287 115.731587 
L 134.288287 112.731587 
L 132.488287 109.731587 
L 130.688287 112.731587 
z
" clip-path="url(#p3fb2a7502e)" style="fill: #44aa99; fill-opacity: 0.6; stroke: #ffffff; stroke-opacity: 0.6; stroke-width: 0.339411"/>
    <path d="M 203.828852 136.511927 
L 205.628852 133.511927 
L 203.828852 130.511927 
L 202.028852 133.511927 
z
" clip-path="url(#p3fb2a7502e)" style="fill: #44aa99; fill-opacity: 0.6; stroke: #ffffff; stroke-opacity: 0.6; stroke-width: 0.339411"/>
    <path d="M 161.690677 134.602823 
L 163.490677 131.602823 
L 161.690677 128.602823 
L 159.890677 131.602823 
z
" clip-path="url(#p3fb2a7502e)" style="fill: #44aa99; fill-opacity: 0.6; stroke: #ffffff; stroke-opacity: 0.6; stroke-width: 0.339411"/>
    <path d="M 209.746184 137.733253 
L 211.546184 134.733253 
L 209.746184 131.733253 
L 207.946184 134.733253 
z
" clip-path="url(#p3fb2a7502e)" style="fill: #44aa99; fill-opacity: 0.6; stroke: #ffffff; stroke-opacity: 0.6; stroke-width: 0.339411"/>
    <path d="M 163.895775 152.143517 
L 165.695775 149.143517 
L 163.895775 146.143517 
L 162.095775 149.143517 
z
" clip-path="url(#p3fb2a7502e)" style="fill: #44aa99; fill-opacity: 0.6; stroke: #ffffff; stroke-opacity: 0.6; stroke-width: 0.339411"/>
    <path d="M 147.834347 139.735218 
L 149.634347 136.735218 
L 147.834347 133.735218 
L 146.034347 136.735218 
z
" clip-path="url(#p3fb2a7502e)" style="fill: #44aa99; fill-opacity: 0.6; stroke: #ffffff; stroke-opacity: 0.6; stroke-width: 0.339411"/>
    <path d="M 152.156244 134.664516 
L 153.956244 131.664516 
L 152.156244 128.664516 
L 150.356244 131.664516 
z
" clip-path="url(#p3fb2a7502e)" style="fill: #44aa99; fill-opacity: 0.6; stroke: #ffffff; stroke-opacity: 0.6; stroke-width: 0.339411"/>
    <path d="M 142.947229 141.617501 
L 140.825909 145.860142 
L 145.06855 145.860142 
z
" clip-path="url(#p3fb2a7502e)" style="fill: #88ccee; fill-opacity: 0.6; stroke: #ffffff; stroke-opacity: 0.6; stroke-width: 0.339411"/>
    <path d="M 183.047814 167.285437 
L 180.926494 171.528078 
L 185.169134 171.528078 
z
" clip-path="url(#p3fb2a7502e)" style="fill: #88ccee; fill-opacity: 0.6; stroke: #ffffff; stroke-opacity: 0.6; stroke-width: 0.339411"/>
    <path d="M 189.217076 156.669271 
L 187.095756 160.911911 
L 191.338396 160.911911 
z
" clip-path="url(#p3fb2a7502e)" style="fill: #88ccee; fill-opacity: 0.6; stroke: #ffffff; stroke-opacity: 0.6; stroke-width: 0.339411"/>
    <path d="M 161.172634 120.647057 
L 159.051314 124.889697 
L 163.293954 124.889697 
z
" clip-path="url(#p3fb2a7502e)" style="fill: #88ccee; fill-opacity: 0.6; stroke: #ffffff; stroke-opacity: 0.6; stroke-width: 0.339411"/>
    <path d="M 163.384414 158.285433 
L 161.263093 162.528074 
L 165.505734 162.528074 
z
" clip-path="url(#p3fb2a7502e)" style="fill: #88ccee; fill-opacity: 0.6; stroke: #ffffff; stroke-opacity: 0.6; stroke-width: 0.339411"/>
    <path d="M 164.408796 161.97783 
L 162.287476 166.220471 
L 166.530117 166.220471 
z
" clip-path="url(#p3fb2a7502e)" style="fill: #88ccee; fill-opacity: 0.6; stroke: #ffffff; stroke-opacity: 0.6; stroke-width: 0.339411"/>
    <path d="M 172.07889 146.017228 
L 169.95757 150.259869 
L 174.20021 150.259869 
z
" clip-path="url(#p3fb2a7502e)" style="fill: #88ccee; fill-opacity: 0.6; stroke: #ffffff; stroke-opacity: 0.6; stroke-width: 0.339411"/>
    <path d="M 170.043153 163.267559 
L 167.921832 167.5102 
L 172.164473 167.5102 
z
" clip-path="url(#p3fb2a7502e)" style="fill: #88ccee; fill-opacity: 0.6; stroke: #ffffff; stroke-opacity: 0.6; stroke-width: 0.339411"/>
    <path d="M 178.590594 150.625902 
L 176.469274 154.868543 
L 180.711915 154.868543 
z
" clip-path="url(#p3fb2a7502e)" style="fill: #88ccee; fill-opacity: 0.6; stroke: #ffffff; stroke-opacity: 0.6; stroke-width: 0.339411"/>
    <path d="M 156.271534 113.478954 
L 154.150214 117.721595 
L 158.392855 117.721595 
z
" clip-path="url(#p3fb2a7502e)" style="fill: #88ccee; fill-opacity: 0.6; stroke: #ffffff; stroke-opacity: 0.6; stroke-width: 0.339411"/>
    <path d="M 174.155459 147.037351 
L 172.034139 151.279991 
L 176.27678 151.279991 
z
" clip-path="url(#p3fb2a7502e)" style="fill: #88ccee; fill-opacity: 0.6; stroke: #ffffff; stroke-opacity: 0.6; stroke-width: 0.339411"/>
    <path d="M 181.556344 153.565294 
L 179.435023 157.807935 
L 183.677664 157.807935 
z
" clip-path="url(#p3fb2a7502e)" style="fill: #88ccee; fill-opacity: 0.6; stroke: #ffffff; stroke-opacity: 0.6; stroke-width: 0.339411"/>
    <path d="M 148.687961 145.190596 
L 146.566641 149.433237 
L 150.809282 149.433237 
z
" clip-path="url(#p3fb2a7502e)" style="fill: #88ccee; fill-opacity: 0.6; stroke: #ffffff; stroke-opacity: 0.6; stroke-width: 0.339411"/>
    <path d="M 178.987113 161.649092 
L 176.865792 165.891733 
L 181.108433 165.891733 
z
" clip-path="url(#p3fb2a7502e)" style="fill: #88ccee; fill-opacity: 0.6; stroke: #ffffff; stroke-opacity: 0.6; stroke-width: 0.339411"/>
    <path d="M 178.894379 160.759333 
L 176.773058 165.001973 
L 181.015699 165.001973 
z
" clip-path="url(#p3fb2a7502e)" style="fill: #88ccee; fill-opacity: 0.6; stroke: #ffffff; stroke-opacity: 0.6; stroke-width: 0.339411"/>
    <path d="M 164.208199 173.056976 
L 162.086878 177.299617 
L 166.329519 177.299617 
z
" clip-path="url(#p3fb2a7502e)" style="fill: #88ccee; fill-opacity: 0.6; stroke: #ffffff; stroke-opacity: 0.6; stroke-width: 0.339411"/>
    <path d="M 161.0391 159.386437 
L 158.91778 163.629078 
L 163.16042 163.629078 
z
" clip-path="url(#p3fb2a7502e)" style="fill: #88ccee; fill-opacity: 0.6; stroke: #ffffff; stroke-opacity: 0.6; stroke-width: 0.339411"/>
    <path d="M 166.045665 116.941204 
L 163.924344 121.183844 
L 168.166985 121.183844 
z
" clip-path="url(#p3fb2a7502e)" style="fill: #88ccee; fill-opacity: 0.6; stroke: #ffffff; stroke-opacity: 0.6; stroke-width: 0.339411"/>
    <path d="M 172.509759 155.849335 
L 170.388438 160.091975 
L 174.631079 160.091975 
z
" clip-path="url(#p3fb2a7502e)" style="fill: #88ccee; fill-opacity: 0.6; stroke: #ffffff; stroke-opacity: 0.6; stroke-width: 0.339411"/>
    <path d="M 188.802612 153.744963 
L 186.681292 157.987604 
L 190.923933 157.987604 
z
" clip-path="url(#p3fb2a7502e)" style="fill: #88ccee; fill-opacity: 0.6; stroke: #ffffff; stroke-opacity: 0.6; stroke-width: 0.339411"/>
    <path d="M 187.827405 143.038246 
L 185.706084 147.280887 
L 189.948725 147.280887 
z
" clip-path="url(#p3fb2a7502e)" style="fill: #88ccee; fill-opacity: 0.6; stroke: #ffffff; stroke-opacity: 0.6; stroke-width: 0.339411"/>
    <path d="M 151.435052 141.402323 
L 149.313731 145.644964 
L 153.556372 145.644964 
z
" clip-path="url(#p3fb2a7502e)" style="fill: #88ccee; fill-opacity: 0.6; stroke: #ffffff; stroke-opacity: 0.6; stroke-width: 0.339411"/>
    <path d="M 180.253454 169.502905 
L 178.132134 173.745546 
L 182.374774 173.745546 
z
" clip-path="url(#p3fb2a7502e)" style="fill: #88ccee; fill-opacity: 0.6; stroke: #ffffff; stroke-opacity: 0.6; stroke-width: 0.339411"/>
    <path d="M 176.200959 159.435179 
L 174.079639 163.67782 
L 178.32228 163.67782 
z
" clip-path="url(#p3fb2a7502e)" style="fill: #88ccee; fill-opacity: 0.6; stroke: #ffffff; stroke-opacity: 0.6; stroke-width: 0.339411"/>
    <path d="M 161.679647 156.269296 
L 159.558327 160.511937 
L 163.800967 160.511937 
z
" clip-path="url(#p3fb2a7502e)" style="fill: #88ccee; fill-opacity: 0.6; stroke: #ffffff; stroke-opacity: 0.6; stroke-width: 0.339411"/>
    <path d="M 162.181927 171.237334 
L 160.060607 175.479975 
L 164.303248 175.479975 
z
" clip-path="url(#p3fb2a7502e)" style="fill: #88ccee; fill-opacity: 0.6; stroke: #ffffff; stroke-opacity: 0.6; stroke-width: 0.339411"/>
    <path d="M 166.737392 158.042859 
L 164.616072 162.2855 
L 168.858712 162.2855 
z
" clip-path="url(#p3fb2a7502e)" style="fill: #88ccee; fill-opacity: 0.6; stroke: #ffffff; stroke-opacity: 0.6; stroke-width: 0.339411"/>
    <path d="M 166.503928 146.946879 
L 164.382608 151.18952 
L 168.625249 151.18952 
z
" clip-path="url(#p3fb2a7502e)" style="fill: #88ccee; fill-opacity: 0.6; stroke: #ffffff; stroke-opacity: 0.6; stroke-width: 0.339411"/>
    <path d="M 171.677663 163.064218 
L 169.556342 167.306859 
L 173.798983 167.306859 
z
" clip-path="url(#p3fb2a7502e)" style="fill: #88ccee; fill-opacity: 0.6; stroke: #ffffff; stroke-opacity: 0.6; stroke-width: 0.339411"/>
    <path d="M 178.119865 171.204176 
L 175.998544 175.446817 
L 180.241185 175.446817 
z
" clip-path="url(#p3fb2a7502e)" style="fill: #88ccee; fill-opacity: 0.6; stroke: #ffffff; stroke-opacity: 0.6; stroke-width: 0.339411"/>
    <path d="M 169.961649 159.24721 
L 167.840329 163.489851 
L 172.08297 163.489851 
z
" clip-path="url(#p3fb2a7502e)" style="fill: #88ccee; fill-opacity: 0.6; stroke: #ffffff; stroke-opacity: 0.6; stroke-width: 0.339411"/>
    <path d="M 165.654994 158.945888 
L 163.533674 163.188528 
L 167.776315 163.188528 
z
" clip-path="url(#p3fb2a7502e)" style="fill: #88ccee; fill-opacity: 0.6; stroke: #ffffff; stroke-opacity: 0.6; stroke-width: 0.339411"/>
    <path d="M 164.5285 134.772174 
L 162.40718 139.014814 
L 166.64982 139.014814 
z
" clip-path="url(#p3fb2a7502e)" style="fill: #88ccee; fill-opacity: 0.6; stroke: #ffffff; stroke-opacity: 0.6; stroke-width: 0.339411"/>
    <path d="M 168.016568 154.072351 
L 165.895248 158.314992 
L 170.137889 158.314992 
z
" clip-path="url(#p3fb2a7502e)" style="fill: #88ccee; fill-opacity: 0.6; stroke: #ffffff; stroke-opacity: 0.6; stroke-width: 0.339411"/>
    <path d="M 179.938776 143.660524 
L 177.817456 147.903165 
L 182.060096 147.903165 
z
" clip-path="url(#p3fb2a7502e)" style="fill: #88ccee; fill-opacity: 0.6; stroke: #ffffff; stroke-opacity: 0.6; stroke-width: 0.339411"/>
    <path d="M 195.411022 155.216671 
L 193.289701 159.459312 
L 197.532342 159.459312 
z
" clip-path="url(#p3fb2a7502e)" style="fill: #88ccee; fill-opacity: 0.6; stroke: #ffffff; stroke-opacity: 0.6; stroke-width: 0.339411"/>
    <path d="M 173.840155 152.387344 
L 171.718835 156.629985 
L 175.961476 156.629985 
z
" clip-path="url(#p3fb2a7502e)" style="fill: #88ccee; fill-opacity: 0.6; stroke: #ffffff; stroke-opacity: 0.6; stroke-width: 0.339411"/>
    <path d="M 184.756752 158.88795 
L 182.635432 163.130591 
L 186.878072 163.130591 
z
" clip-path="url(#p3fb2a7502e)" style="fill: #88ccee; fill-opacity: 0.6; stroke: #ffffff; stroke-opacity: 0.6; stroke-width: 0.339411"/>
    <path d="M 189.570741 140.601992 
L 187.449421 144.844632 
L 191.692061 144.844632 
z
" clip-path="url(#p3fb2a7502e)" style="fill: #88ccee; fill-opacity: 0.6; stroke: #ffffff; stroke-opacity: 0.6; stroke-width: 0.339411"/>
    <path d="M 202.41059 131.967554 
L 200.28927 136.210194 
L 204.531911 136.210194 
z
" clip-path="url(#p3fb2a7502e)" style="fill: #88ccee; fill-opacity: 0.6; stroke: #ffffff; stroke-opacity: 0.6; stroke-width: 0.339411"/>
    <path d="M 173.181752 151.681196 
L 171.060431 155.923836 
L 175.303072 155.923836 
z
" clip-path="url(#p3fb2a7502e)" style="fill: #88ccee; fill-opacity: 0.6; stroke: #ffffff; stroke-opacity: 0.6; stroke-width: 0.339411"/>
    <path d="M 149.947067 139.823456 
L 147.825747 144.066096 
L 152.068387 144.066096 
z
" clip-path="url(#p3fb2a7502e)" style="fill: #88ccee; fill-opacity: 0.6; stroke: #ffffff; stroke-opacity: 0.6; stroke-width: 0.339411"/>
    <path d="M 173.558207 161.256648 
L 171.436887 165.499288 
L 175.679527 165.499288 
z
" clip-path="url(#p3fb2a7502e)" style="fill: #88ccee; fill-opacity: 0.6; stroke: #ffffff; stroke-opacity: 0.6; stroke-width: 0.339411"/>
    <path d="M 176.213393 149.604078 
L 174.092073 153.846719 
L 178.334714 153.846719 
z
" clip-path="url(#p3fb2a7502e)" style="fill: #88ccee; fill-opacity: 0.6; stroke: #ffffff; stroke-opacity: 0.6; stroke-width: 0.339411"/>
    <path d="M 166.000405 171.466713 
L 163.879084 175.709354 
L 168.121725 175.709354 
z
" clip-path="url(#p3fb2a7502e)" style="fill: #88ccee; fill-opacity: 0.6; stroke: #ffffff; stroke-opacity: 0.6; stroke-width: 0.339411"/>
    <path d="M 172.819214 153.703422 
L 170.697894 157.946062 
L 174.940535 157.946062 
z
" clip-path="url(#p3fb2a7502e)" style="fill: #88ccee; fill-opacity: 0.6; stroke: #ffffff; stroke-opacity: 0.6; stroke-width: 0.339411"/>
    <path d="M 150.89867 113.478741 
L 148.77735 117.721382 
L 153.019991 117.721382 
z
" clip-path="url(#p3fb2a7502e)" style="fill: #88ccee; fill-opacity: 0.6; stroke: #ffffff; stroke-opacity: 0.6; stroke-width: 0.339411"/>
    <path d="M 169.099487 168.699934 
L 166.978167 172.942575 
L 171.220808 172.942575 
z
" clip-path="url(#p3fb2a7502e)" style="fill: #88ccee; fill-opacity: 0.6; stroke: #ffffff; stroke-opacity: 0.6; stroke-width: 0.339411"/>
    <path d="M 148.170668 141.029922 
L 146.049348 145.272563 
L 150.291989 145.272563 
z
" clip-path="url(#p3fb2a7502e)" style="fill: #88ccee; fill-opacity: 0.6; stroke: #ffffff; stroke-opacity: 0.6; stroke-width: 0.339411"/>
    <path d="M 190.396283 161.125541 
L 188.274962 165.368182 
L 192.517603 165.368182 
z
" clip-path="url(#p3fb2a7502e)" style="fill: #88ccee; fill-opacity: 0.6; stroke: #ffffff; stroke-opacity: 0.6; stroke-width: 0.339411"/>
    <path d="M 175.227998 157.42127 
L 173.106677 161.663911 
L 177.349318 161.663911 
z
" clip-path="url(#p3fb2a7502e)" style="fill: #88ccee; fill-opacity: 0.6; stroke: #ffffff; stroke-opacity: 0.6; stroke-width: 0.339411"/>
    <path d="M 153.707229 134.023448 
L 151.585909 138.266089 
L 155.828549 138.266089 
z
" clip-path="url(#p3fb2a7502e)" style="fill: #88ccee; fill-opacity: 0.6; stroke: #ffffff; stroke-opacity: 0.6; stroke-width: 0.339411"/>
    <path d="M 140.378319 137.075386 
L 138.256999 141.318026 
L 142.49964 141.318026 
z
" clip-path="url(#p3fb2a7502e)" style="fill: #88ccee; fill-opacity: 0.6; stroke: #ffffff; stroke-opacity: 0.6; stroke-width: 0.339411"/>
    <path d="M 174.090433 156.404196 
L 171.969113 160.646837 
L 176.211753 160.646837 
z
" clip-path="url(#p3fb2a7502e)" style="fill: #88ccee; fill-opacity: 0.6; stroke: #ffffff; stroke-opacity: 0.6; stroke-width: 0.339411"/>
    <path d="M 163.074717 169.358435 
L 160.953397 173.601076 
L 165.196038 173.601076 
z
" clip-path="url(#p3fb2a7502e)" style="fill: #88ccee; fill-opacity: 0.6; stroke: #ffffff; stroke-opacity: 0.6; stroke-width: 0.339411"/>
    <path d="M 190.55608 148.697362 
L 188.43476 152.940003 
L 192.677401 152.940003 
z
" clip-path="url(#p3fb2a7502e)" style="fill: #88ccee; fill-opacity: 0.6; stroke: #ffffff; stroke-opacity: 0.6; stroke-width: 0.339411"/>
    <path d="M 182.451685 145.502342 
L 180.330364 149.744983 
L 184.573005 149.744983 
z
" clip-path="url(#p3fb2a7502e)" style="fill: #88ccee; fill-opacity: 0.6; stroke: #ffffff; stroke-opacity: 0.6; stroke-width: 0.339411"/>
    <path d="M 150.519106 137.772313 
L 148.397786 142.014954 
L 152.640427 142.014954 
z
" clip-path="url(#p3fb2a7502e)" style="fill: #88ccee; fill-opacity: 0.6; stroke: #ffffff; stroke-opacity: 0.6; stroke-width: 0.339411"/>
    <path d="M 173.226233 158.346988 
L 171.104913 162.589628 
L 175.347554 162.589628 
z
" clip-path="url(#p3fb2a7502e)" style="fill: #88ccee; fill-opacity: 0.6; stroke: #ffffff; stroke-opacity: 0.6; stroke-width: 0.339411"/>
    <path d="M 150.585621 109.259077 
L 148.4643 113.501717 
L 152.706941 113.501717 
z
" clip-path="url(#p3fb2a7502e)" style="fill: #88ccee; fill-opacity: 0.6; stroke: #ffffff; stroke-opacity: 0.6; stroke-width: 0.339411"/>
    <path d="M 195.766949 155.397476 
L 193.645628 159.640116 
L 197.888269 159.640116 
z
" clip-path="url(#p3fb2a7502e)" style="fill: #88ccee; fill-opacity: 0.6; stroke: #ffffff; stroke-opacity: 0.6; stroke-width: 0.339411"/>
    <path d="M 160.441631 137.620585 
L 158.320311 141.863226 
L 162.562952 141.863226 
z
" clip-path="url(#p3fb2a7502e)" style="fill: #88ccee; fill-opacity: 0.6; stroke: #ffffff; stroke-opacity: 0.6; stroke-width: 0.339411"/>
    <path d="M 181.771694 145.768411 
L 179.650373 150.011052 
L 183.893014 150.011052 
z
" clip-path="url(#p3fb2a7502e)" style="fill: #88ccee; fill-opacity: 0.6; stroke: #ffffff; stroke-opacity: 0.6; stroke-width: 0.339411"/>
    <path d="M 181.980265 163.130474 
L 179.858945 167.373115 
L 184.101585 167.373115 
z
" clip-path="url(#p3fb2a7502e)" style="fill: #88ccee; fill-opacity: 0.6; stroke: #ffffff; stroke-opacity: 0.6; stroke-width: 0.339411"/>
   </g>
   <g id="matplotlib.axis_1">
    <g id="xtick_1">
     <g id="line2d_1">
      <defs>
       <path id="m9810394781" d="M 0 0 
L 0 8 
" style="stroke: #000000"/>
      </defs>
      <g>
       <use xlink:href="#m9810394781" x="84.127408" y="188.936063" style="stroke: #000000"/>
      </g>
     </g>
     <g id="text_1">
      <!-- 0 -->
      <g transform="translate(80.309908 209.554188) scale(0.12 -0.12)">
       <defs>
        <path id="DejaVuSans-30" d="M 2034 4250 
Q 1547 4250 1301 3770 
Q 1056 3291 1056 2328 
Q 1056 1369 1301 889 
Q 1547 409 2034 409 
Q 2525 409 2770 889 
Q 3016 1369 3016 2328 
Q 3016 3291 2770 3770 
Q 2525 4250 2034 4250 
z
M 2034 4750 
Q 2819 4750 3233 4129 
Q 3647 3509 3647 2328 
Q 3647 1150 3233 529 
Q 2819 -91 2034 -91 
Q 1250 -91 836 529 
Q 422 1150 422 2328 
Q 422 3509 836 4129 
Q 1250 4750 2034 4750 
z
" transform="scale(0.015625)"/>
       </defs>
       <use xlink:href="#DejaVuSans-30"/>
      </g>
     </g>
    </g>
    <g id="xtick_2">
     <g id="line2d_2">
      <g>
       <use xlink:href="#m9810394781" x="168.243943" y="188.936063" style="stroke: #000000"/>
      </g>
     </g>
     <g id="text_2">
      <!-- 10 -->
      <g transform="translate(160.608943 209.554188) scale(0.12 -0.12)">
       <defs>
        <path id="DejaVuSans-31" d="M 794 531 
L 1825 531 
L 1825 4091 
L 703 3866 
L 703 4441 
L 1819 4666 
L 2450 4666 
L 2450 531 
L 3481 531 
L 3481 0 
L 794 0 
L 794 531 
z
" transform="scale(0.015625)"/>
       </defs>
       <use xlink:href="#DejaVuSans-31"/>
       <use xlink:href="#DejaVuSans-30" x="63.623047"/>
      </g>
     </g>
    </g>
    <g id="text_3">
     <!-- UMAP 1 -->
     <g transform="translate(117.956572 225.167938) scale(0.12 -0.12)">
      <defs>
       <path id="DejaVuSans-55" d="M 556 4666 
L 1191 4666 
L 1191 1831 
Q 1191 1081 1462 751 
Q 1734 422 2344 422 
Q 2950 422 3222 751 
Q 3494 1081 3494 1831 
L 3494 4666 
L 4128 4666 
L 4128 1753 
Q 4128 841 3676 375 
Q 3225 -91 2344 -91 
Q 1459 -91 1007 375 
Q 556 841 556 1753 
L 556 4666 
z
" transform="scale(0.015625)"/>
       <path id="DejaVuSans-4d" d="M 628 4666 
L 1569 4666 
L 2759 1491 
L 3956 4666 
L 4897 4666 
L 4897 0 
L 4281 0 
L 4281 4097 
L 3078 897 
L 2444 897 
L 1241 4097 
L 1241 0 
L 628 0 
L 628 4666 
z
" transform="scale(0.015625)"/>
       <path id="DejaVuSans-41" d="M 2188 4044 
L 1331 1722 
L 3047 1722 
L 2188 4044 
z
M 1831 4666 
L 2547 4666 
L 4325 0 
L 3669 0 
L 3244 1197 
L 1141 1197 
L 716 0 
L 50 0 
L 1831 4666 
z
" transform="scale(0.015625)"/>
       <path id="DejaVuSans-50" d="M 1259 4147 
L 1259 2394 
L 2053 2394 
Q 2494 2394 2734 2622 
Q 2975 2850 2975 3272 
Q 2975 3691 2734 3919 
Q 2494 4147 2053 4147 
L 1259 4147 
z
M 628 4666 
L 2053 4666 
Q 2838 4666 3239 4311 
Q 3641 3956 3641 3272 
Q 3641 2581 3239 2228 
Q 2838 1875 2053 1875 
L 1259 1875 
L 1259 0 
L 628 0 
L 628 4666 
z
" transform="scale(0.015625)"/>
       <path id="DejaVuSans-20" transform="scale(0.015625)"/>
      </defs>
      <use xlink:href="#DejaVuSans-55"/>
      <use xlink:href="#DejaVuSans-4d" x="73.193359"/>
      <use xlink:href="#DejaVuSans-41" x="159.472656"/>
      <use xlink:href="#DejaVuSans-50" x="227.880859"/>
      <use xlink:href="#DejaVuSans-20" x="288.183594"/>
      <use xlink:href="#DejaVuSans-31" x="319.970703"/>
     </g>
    </g>
   </g>
   <g id="matplotlib.axis_2">
    <g id="ytick_1">
     <g id="line2d_3">
      <defs>
       <path id="m389aaf8831" d="M 0 0 
L -8 0 
" style="stroke: #000000"/>
      </defs>
      <g>
       <use xlink:href="#m389aaf8831" x="53.957638" y="158.766293" style="stroke: #000000"/>
      </g>
     </g>
     <g id="text_4">
      <!-- 0 -->
      <g transform="translate(34.822638 163.325356) scale(0.12 -0.12)">
       <use xlink:href="#DejaVuSans-30"/>
      </g>
     </g>
    </g>
    <g id="ytick_2">
     <g id="line2d_4">
      <g>
       <use xlink:href="#m389aaf8831" x="53.957638" y="74.649757" style="stroke: #000000"/>
      </g>
     </g>
     <g id="text_5">
      <!-- 10 -->
      <g transform="translate(27.187638 79.20882) scale(0.12 -0.12)">
       <use xlink:href="#DejaVuSans-31"/>
       <use xlink:href="#DejaVuSans-30" x="63.623047"/>
      </g>
     </g>
    </g>
    <g id="text_6">
     <!-- UMAP 2 -->
     <g transform="translate(20.692013 124.937128) rotate(-90) scale(0.12 -0.12)">
      <defs>
       <path id="DejaVuSans-32" d="M 1228 531 
L 3431 531 
L 3431 0 
L 469 0 
L 469 531 
Q 828 903 1448 1529 
Q 2069 2156 2228 2338 
Q 2531 2678 2651 2914 
Q 2772 3150 2772 3378 
Q 2772 3750 2511 3984 
Q 2250 4219 1831 4219 
Q 1534 4219 1204 4116 
Q 875 4013 500 3803 
L 500 4441 
Q 881 4594 1212 4672 
Q 1544 4750 1819 4750 
Q 2544 4750 2975 4387 
Q 3406 4025 3406 3419 
Q 3406 3131 3298 2873 
Q 3191 2616 2906 2266 
Q 2828 2175 2409 1742 
Q 1991 1309 1228 531 
z
" transform="scale(0.015625)"/>
      </defs>
      <use xlink:href="#DejaVuSans-55"/>
      <use xlink:href="#DejaVuSans-4d" x="73.193359"/>
      <use xlink:href="#DejaVuSans-41" x="159.472656"/>
      <use xlink:href="#DejaVuSans-50" x="227.880859"/>
      <use xlink:href="#DejaVuSans-20" x="288.183594"/>
      <use xlink:href="#DejaVuSans-32" x="319.970703"/>
     </g>
    </g>
   </g>
   <g id="patch_3">
    <path d="M 53.957638 188.936063 
L 53.957638 14.908819 
" style="fill: none; stroke: #000000; stroke-width: 2; stroke-linejoin: miter; stroke-linecap: square"/>
   </g>
   <g id="patch_4">
    <path d="M 53.957638 188.936063 
L 227.984882 188.936063 
" style="fill: none; stroke: #000000; stroke-width: 2; stroke-linejoin: miter; stroke-linecap: square"/>
   </g>
  </g>
 </g>
 <defs>
  <clipPath id="p3fb2a7502e">
   <rect x="53.957638" y="14.908819" width="174.027244" height="174.027244"/>
  </clipPath>
 </defs>
</svg>
