<?xml version="1.0" encoding="utf-8" standalone="no"?>
<!DOCTYPE svg PUBLIC "-//W3C//DTD SVG 1.1//EN"
  "http://www.w3.org/Graphics/SVG/1.1/DTD/svg11.dtd">
<svg xmlns:xlink="http://www.w3.org/1999/xlink" width="240.944882pt" height="240.944882pt" viewBox="0 0 240.944882 240.944882" xmlns="http://www.w3.org/2000/svg" version="1.1">
 <metadata>
  <rdf:RDF xmlns:dc="http://purl.org/dc/elements/1.1/" xmlns:cc="http://creativecommons.org/ns#" xmlns:rdf="http://www.w3.org/1999/02/22-rdf-syntax-ns#">
   <cc:Work>
    <dc:type rdf:resource="http://purl.org/dc/dcmitype/StillImage"/>
    <dc:date>2025-02-24T15:38:52.751380</dc:date>
    <dc:format>image/svg+xml</dc:format>
    <dc:creator>
     <cc:Agent>
      <dc:title>Matplotlib v3.6.2, https://matplotlib.org/</dc:title>
     </cc:Agent>
    </dc:creator>
   </cc:Work>
  </rdf:RDF>
 </metadata>
 <defs>
  <style type="text/css">*{stroke-linejoin: round; stroke-linecap: butt}</style>
 </defs>
 <g id="figure_1">
  <g id="patch_1">
   <path d="M 0 240.944882 
L 240.944882 240.944882 
L 240.944882 0 
L 0 0 
L 0 240.944882 
z
" style="fill: none"/>
  </g>
  <g id="axes_1">
   <g id="patch_2">
    <path d="M 64.037638 183.896063 
L 227.984882 183.896063 
L 227.984882 19.948819 
L 64.037638 19.948819 
L 64.037638 183.896063 
z
" style="fill: none"/>
   </g>
   <g id="PathCollection_1">
    <path d="M 208.702354 130.261251 
L 210.502354 127.261251 
L 208.702354 124.261251 
L 206.902354 127.261251 
z
" clip-path="url(#p0df283a62a)" style="fill: #332288; fill-opacity: 0.6; stroke: #ffffff; stroke-opacity: 0.6; stroke-width: 0.339411"/>
    <path d="M 148.09205 41.780496 
L 149.89205 38.780496 
L 148.09205 35.780496 
L 146.29205 38.780496 
z
" clip-path="url(#p0df283a62a)" style="fill: #332288; fill-opacity: 0.6; stroke: #ffffff; stroke-opacity: 0.6; stroke-width: 0.339411"/>
    <path d="M 154.42207 54.098673 
L 156.22207 51.098673 
L 154.42207 48.098673 
L 152.62207 51.098673 
z
" clip-path="url(#p0df283a62a)" style="fill: #332288; fill-opacity: 0.6; stroke: #ffffff; stroke-opacity: 0.6; stroke-width: 0.339411"/>
    <path d="M 208.195769 121.6749 
L 209.995769 118.6749 
L 208.195769 115.6749 
L 206.395769 118.6749 
z
" clip-path="url(#p0df283a62a)" style="fill: #332288; fill-opacity: 0.6; stroke: #ffffff; stroke-opacity: 0.6; stroke-width: 0.339411"/>
    <path d="M 213.653733 127.881762 
L 215.453733 124.881762 
L 213.653733 121.881762 
L 211.853733 124.881762 
z
" clip-path="url(#p0df283a62a)" style="fill: #332288; fill-opacity: 0.6; stroke: #ffffff; stroke-opacity: 0.6; stroke-width: 0.339411"/>
    <path d="M 208.300539 120.97868 
L 210.100539 117.97868 
L 208.300539 114.97868 
L 206.500539 117.97868 
z
" clip-path="url(#p0df283a62a)" style="fill: #332288; fill-opacity: 0.6; stroke: #ffffff; stroke-opacity: 0.6; stroke-width: 0.339411"/>
    <path d="M 208.523246 130.486998 
L 210.323246 127.486998 
L 208.523246 124.486998 
L 206.723246 127.486998 
z
" clip-path="url(#p0df283a62a)" style="fill: #332288; fill-opacity: 0.6; stroke: #ffffff; stroke-opacity: 0.6; stroke-width: 0.339411"/>
    <path d="M 205.799893 134.089575 
L 207.599893 131.089575 
L 205.799893 128.089575 
L 203.999893 131.089575 
z
" clip-path="url(#p0df283a62a)" style="fill: #332288; fill-opacity: 0.6; stroke: #ffffff; stroke-opacity: 0.6; stroke-width: 0.339411"/>
    <path d="M 206.175488 134.723971 
L 207.975488 131.723971 
L 206.175488 128.723971 
L 204.375488 131.723971 
z
" clip-path="url(#p0df283a62a)" style="fill: #332288; fill-opacity: 0.6; stroke: #ffffff; stroke-opacity: 0.6; stroke-width: 0.339411"/>
    <path d="M 162.173131 47.933168 
L 163.973131 44.933168 
L 162.173131 41.933168 
L 160.373131 44.933168 
z
" clip-path="url(#p0df283a62a)" style="fill: #332288; fill-opacity: 0.6; stroke: #ffffff; stroke-opacity: 0.6; stroke-width: 0.339411"/>
    <path d="M 214.179122 121.442894 
L 215.979122 118.442894 
L 214.179122 115.442894 
L 212.379122 118.442894 
z
" clip-path="url(#p0df283a62a)" style="fill: #332288; fill-opacity: 0.6; stroke: #ffffff; stroke-opacity: 0.6; stroke-width: 0.339411"/>
    <path d="M 203.037283 133.116537 
L 204.837283 130.116537 
L 203.037283 127.116537 
L 201.237283 130.116537 
z
" clip-path="url(#p0df283a62a)" style="fill: #332288; fill-opacity: 0.6; stroke: #ffffff; stroke-opacity: 0.6; stroke-width: 0.339411"/>
    <path d="M 203.117102 133.033088 
L 204.917102 130.033088 
L 203.117102 127.033088 
L 201.317102 130.033088 
z
" clip-path="url(#p0df283a62a)" style="fill: #332288; fill-opacity: 0.6; stroke: #ffffff; stroke-opacity: 0.6; stroke-width: 0.339411"/>
    <path d="M 199.508356 127.696467 
L 201.308356 124.696467 
L 199.508356 121.696467 
L 197.708356 124.696467 
z
" clip-path="url(#p0df283a62a)" style="fill: #332288; fill-opacity: 0.6; stroke: #ffffff; stroke-opacity: 0.6; stroke-width: 0.339411"/>
    <path d="M 210.259034 134.596441 
L 212.059034 131.596441 
L 210.259034 128.596441 
L 208.459034 131.596441 
z
" clip-path="url(#p0df283a62a)" style="fill: #332288; fill-opacity: 0.6; stroke: #ffffff; stroke-opacity: 0.6; stroke-width: 0.339411"/>
    <path d="M 207.903574 130.1102 
L 209.703574 127.1102 
L 207.903574 124.1102 
L 206.103574 127.1102 
z
" clip-path="url(#p0df283a62a)" style="fill: #332288; fill-opacity: 0.6; stroke: #ffffff; stroke-opacity: 0.6; stroke-width: 0.339411"/>
    <path d="M 206.078797 134.884412 
L 207.878797 131.884412 
L 206.078797 128.884412 
L 204.278797 131.884412 
z
" clip-path="url(#p0df283a62a)" style="fill: #332288; fill-opacity: 0.6; stroke: #ffffff; stroke-opacity: 0.6; stroke-width: 0.339411"/>
    <path d="M 205.053691 129.629259 
L 206.853691 126.629259 
L 205.053691 123.629259 
L 203.253691 126.629259 
z
" clip-path="url(#p0df283a62a)" style="fill: #332288; fill-opacity: 0.6; stroke: #ffffff; stroke-opacity: 0.6; stroke-width: 0.339411"/>
    <path d="M 207.750137 130.164339 
L 209.550137 127.164339 
L 207.750137 124.164339 
L 205.950137 127.164339 
z
" clip-path="url(#p0df283a62a)" style="fill: #332288; fill-opacity: 0.6; stroke: #ffffff; stroke-opacity: 0.6; stroke-width: 0.339411"/>
    <path d="M 127.377961 39.709298 
L 129.177961 36.709298 
L 127.377961 33.709298 
L 125.577961 36.709298 
z
" clip-path="url(#p0df283a62a)" style="fill: #332288; fill-opacity: 0.6; stroke: #ffffff; stroke-opacity: 0.6; stroke-width: 0.339411"/>
    <path d="M 206.136963 134.589985 
L 207.936963 131.589985 
L 206.136963 128.589985 
L 204.336963 131.589985 
z
" clip-path="url(#p0df283a62a)" style="fill: #332288; fill-opacity: 0.6; stroke: #ffffff; stroke-opacity: 0.6; stroke-width: 0.339411"/>
    <path d="M 130.192649 47.847938 
L 131.992649 44.847938 
L 130.192649 41.847938 
L 128.392649 44.847938 
z
" clip-path="url(#p0df283a62a)" style="fill: #332288; fill-opacity: 0.6; stroke: #ffffff; stroke-opacity: 0.6; stroke-width: 0.339411"/>
    <path d="M 207.653964 130.345585 
L 209.453964 127.345585 
L 207.653964 124.345585 
L 205.853964 127.345585 
z
" clip-path="url(#p0df283a62a)" style="fill: #332288; fill-opacity: 0.6; stroke: #ffffff; stroke-opacity: 0.6; stroke-width: 0.339411"/>
    <path d="M 213.249521 120.99087 
L 215.049521 117.99087 
L 213.249521 114.99087 
L 211.449521 117.99087 
z
" clip-path="url(#p0df283a62a)" style="fill: #332288; fill-opacity: 0.6; stroke: #ffffff; stroke-opacity: 0.6; stroke-width: 0.339411"/>
    <path d="M 207.74694 130.017548 
L 209.54694 127.017548 
L 207.74694 124.017548 
L 205.94694 127.017548 
z
" clip-path="url(#p0df283a62a)" style="fill: #332288; fill-opacity: 0.6; stroke: #ffffff; stroke-opacity: 0.6; stroke-width: 0.339411"/>
    <path d="M 205.14455 129.805654 
L 206.94455 126.805654 
L 205.14455 123.805654 
L 203.34455 126.805654 
z
" clip-path="url(#p0df283a62a)" style="fill: #332288; fill-opacity: 0.6; stroke: #ffffff; stroke-opacity: 0.6; stroke-width: 0.339411"/>
    <path d="M 206.144062 134.551278 
L 207.944062 131.551278 
L 206.144062 128.551278 
L 204.344062 131.551278 
z
" clip-path="url(#p0df283a62a)" style="fill: #332288; fill-opacity: 0.6; stroke: #ffffff; stroke-opacity: 0.6; stroke-width: 0.339411"/>
    <path d="M 203.056168 130.035008 
L 204.856168 127.035008 
L 203.056168 124.035008 
L 201.256168 127.035008 
z
" clip-path="url(#p0df283a62a)" style="fill: #332288; fill-opacity: 0.6; stroke: #ffffff; stroke-opacity: 0.6; stroke-width: 0.339411"/>
    <path d="M 207.817139 130.179055 
L 209.617139 127.179055 
L 207.817139 124.179055 
L 206.017139 127.179055 
z
" clip-path="url(#p0df283a62a)" style="fill: #332288; fill-opacity: 0.6; stroke: #ffffff; stroke-opacity: 0.6; stroke-width: 0.339411"/>
    <path d="M 203.092907 133.081728 
L 204.892907 130.081728 
L 203.092907 127.081728 
L 201.292907 130.081728 
z
" clip-path="url(#p0df283a62a)" style="fill: #332288; fill-opacity: 0.6; stroke: #ffffff; stroke-opacity: 0.6; stroke-width: 0.339411"/>
    <path d="M 126.561862 50.515722 
L 128.361862 47.515722 
L 126.561862 44.515722 
L 124.761862 47.515722 
z
" clip-path="url(#p0df283a62a)" style="fill: #332288; fill-opacity: 0.6; stroke: #ffffff; stroke-opacity: 0.6; stroke-width: 0.339411"/>
    <path d="M 207.693045 130.222245 
L 209.493045 127.222245 
L 207.693045 124.222245 
L 205.893045 127.222245 
z
" clip-path="url(#p0df283a62a)" style="fill: #332288; fill-opacity: 0.6; stroke: #ffffff; stroke-opacity: 0.6; stroke-width: 0.339411"/>
    <path d="M 125.335805 43.388612 
L 127.135805 40.388612 
L 125.335805 37.388612 
L 123.535805 40.388612 
z
" clip-path="url(#p0df283a62a)" style="fill: #332288; fill-opacity: 0.6; stroke: #ffffff; stroke-opacity: 0.6; stroke-width: 0.339411"/>
    <path d="M 206.015202 134.873276 
L 207.815202 131.873276 
L 206.015202 128.873276 
L 204.215202 131.873276 
z
" clip-path="url(#p0df283a62a)" style="fill: #332288; fill-opacity: 0.6; stroke: #ffffff; stroke-opacity: 0.6; stroke-width: 0.339411"/>
    <path d="M 210.410531 134.40341 
L 212.210531 131.40341 
L 210.410531 128.40341 
L 208.610531 131.40341 
z
" clip-path="url(#p0df283a62a)" style="fill: #332288; fill-opacity: 0.6; stroke: #ffffff; stroke-opacity: 0.6; stroke-width: 0.339411"/>
    <path d="M 144.476452 52.406956 
L 146.276452 49.406956 
L 144.476452 46.406956 
L 142.676452 49.406956 
z
" clip-path="url(#p0df283a62a)" style="fill: #332288; fill-opacity: 0.6; stroke: #ffffff; stroke-opacity: 0.6; stroke-width: 0.339411"/>
    <path d="M 144.7314 44.694808 
L 146.5314 41.694808 
L 144.7314 38.694808 
L 142.9314 41.694808 
z
" clip-path="url(#p0df283a62a)" style="fill: #332288; fill-opacity: 0.6; stroke: #ffffff; stroke-opacity: 0.6; stroke-width: 0.339411"/>
    <path d="M 194.369711 138.374527 
L 196.169711 135.374527 
L 194.369711 132.374527 
L 192.569711 135.374527 
z
" clip-path="url(#p0df283a62a)" style="fill: #332288; fill-opacity: 0.6; stroke: #ffffff; stroke-opacity: 0.6; stroke-width: 0.339411"/>
    <path d="M 208.280032 121.433955 
L 210.080032 118.433955 
L 208.280032 115.433955 
L 206.480032 118.433955 
z
" clip-path="url(#p0df283a62a)" style="fill: #332288; fill-opacity: 0.6; stroke: #ffffff; stroke-opacity: 0.6; stroke-width: 0.339411"/>
    <path d="M 204.328287 129.74395 
L 206.128287 126.74395 
L 204.328287 123.74395 
L 202.528287 126.74395 
z
" clip-path="url(#p0df283a62a)" style="fill: #332288; fill-opacity: 0.6; stroke: #ffffff; stroke-opacity: 0.6; stroke-width: 0.339411"/>
    <path d="M 153.887721 53.761281 
L 155.687721 50.761281 
L 153.887721 47.761281 
L 152.087721 50.761281 
z
" clip-path="url(#p0df283a62a)" style="fill: #332288; fill-opacity: 0.6; stroke: #ffffff; stroke-opacity: 0.6; stroke-width: 0.339411"/>
    <path d="M 208.172923 121.532809 
L 209.972923 118.532809 
L 208.172923 115.532809 
L 206.372923 118.532809 
z
" clip-path="url(#p0df283a62a)" style="fill: #332288; fill-opacity: 0.6; stroke: #ffffff; stroke-opacity: 0.6; stroke-width: 0.339411"/>
    <path d="M 208.112484 121.664912 
L 209.912484 118.664912 
L 208.112484 115.664912 
L 206.312484 118.664912 
z
" clip-path="url(#p0df283a62a)" style="fill: #332288; fill-opacity: 0.6; stroke: #ffffff; stroke-opacity: 0.6; stroke-width: 0.339411"/>
    <path d="M 210.210142 134.485131 
L 212.010142 131.485131 
L 210.210142 128.485131 
L 208.410142 131.485131 
z
" clip-path="url(#p0df283a62a)" style="fill: #332288; fill-opacity: 0.6; stroke: #ffffff; stroke-opacity: 0.6; stroke-width: 0.339411"/>
    <path d="M 204.104226 129.875611 
L 205.904226 126.875611 
L 204.104226 123.875611 
L 202.304226 126.875611 
z
" clip-path="url(#p0df283a62a)" style="fill: #332288; fill-opacity: 0.6; stroke: #ffffff; stroke-opacity: 0.6; stroke-width: 0.339411"/>
    <path d="M 208.24888 121.552157 
L 210.04888 118.552157 
L 208.24888 115.552157 
L 206.44888 118.552157 
z
" clip-path="url(#p0df283a62a)" style="fill: #332288; fill-opacity: 0.6; stroke: #ffffff; stroke-opacity: 0.6; stroke-width: 0.339411"/>
    <path d="M 207.81689 130.16192 
L 209.61689 127.16192 
L 207.81689 124.16192 
L 206.01689 127.16192 
z
" clip-path="url(#p0df283a62a)" style="fill: #332288; fill-opacity: 0.6; stroke: #ffffff; stroke-opacity: 0.6; stroke-width: 0.339411"/>
    <path d="M 154.015056 53.640714 
L 155.815056 50.640714 
L 154.015056 47.640714 
L 152.215056 50.640714 
z
" clip-path="url(#p0df283a62a)" style="fill: #332288; fill-opacity: 0.6; stroke: #ffffff; stroke-opacity: 0.6; stroke-width: 0.339411"/>
    <path d="M 206.253718 134.656731 
L 208.053718 131.656731 
L 206.253718 128.656731 
L 204.453718 131.656731 
z
" clip-path="url(#p0df283a62a)" style="fill: #332288; fill-opacity: 0.6; stroke: #ffffff; stroke-opacity: 0.6; stroke-width: 0.339411"/>
    <path d="M 210.568291 134.263122 
L 212.368291 131.263122 
L 210.568291 128.263122 
L 208.768291 131.263122 
z
" clip-path="url(#p0df283a62a)" style="fill: #332288; fill-opacity: 0.6; stroke: #ffffff; stroke-opacity: 0.6; stroke-width: 0.339411"/>
    <path d="M 207.917829 130.074172 
L 209.717829 127.074172 
L 207.917829 124.074172 
L 206.117829 127.074172 
z
" clip-path="url(#p0df283a62a)" style="fill: #332288; fill-opacity: 0.6; stroke: #ffffff; stroke-opacity: 0.6; stroke-width: 0.339411"/>
    <path d="M 214.941597 128.167529 
L 216.741597 125.167529 
L 214.941597 122.167529 
L 213.141597 125.167529 
z
" clip-path="url(#p0df283a62a)" style="fill: #332288; fill-opacity: 0.6; stroke: #ffffff; stroke-opacity: 0.6; stroke-width: 0.339411"/>
    <path d="M 206.183554 134.805594 
L 207.983554 131.805594 
L 206.183554 128.805594 
L 204.383554 131.805594 
z
" clip-path="url(#p0df283a62a)" style="fill: #332288; fill-opacity: 0.6; stroke: #ffffff; stroke-opacity: 0.6; stroke-width: 0.339411"/>
    <path d="M 210.993675 133.678155 
L 212.793675 130.678155 
L 210.993675 127.678155 
L 209.193675 130.678155 
z
" clip-path="url(#p0df283a62a)" style="fill: #332288; fill-opacity: 0.6; stroke: #ffffff; stroke-opacity: 0.6; stroke-width: 0.339411"/>
    <path d="M 205.074636 130.649145 
L 206.874636 127.649145 
L 205.074636 124.649145 
L 203.274636 127.649145 
z
" clip-path="url(#p0df283a62a)" style="fill: #332288; fill-opacity: 0.6; stroke: #ffffff; stroke-opacity: 0.6; stroke-width: 0.339411"/>
    <path d="M 147.512261 41.411049 
L 149.312261 38.411049 
L 147.512261 35.411049 
L 145.712261 38.411049 
z
" clip-path="url(#p0df283a62a)" style="fill: #332288; fill-opacity: 0.6; stroke: #ffffff; stroke-opacity: 0.6; stroke-width: 0.339411"/>
    <path d="M 214.235135 121.321115 
L 216.035135 118.321115 
L 214.235135 115.321115 
L 212.435135 118.321115 
z
" clip-path="url(#p0df283a62a)" style="fill: #332288; fill-opacity: 0.6; stroke: #ffffff; stroke-opacity: 0.6; stroke-width: 0.339411"/>
    <path d="M 207.689798 130.203243 
L 209.489798 127.203243 
L 207.689798 124.203243 
L 205.889798 127.203243 
z
" clip-path="url(#p0df283a62a)" style="fill: #332288; fill-opacity: 0.6; stroke: #ffffff; stroke-opacity: 0.6; stroke-width: 0.339411"/>
    <path d="M 214.884456 128.048337 
L 216.684456 125.048337 
L 214.884456 122.048337 
L 213.084456 125.048337 
z
" clip-path="url(#p0df283a62a)" style="fill: #332288; fill-opacity: 0.6; stroke: #ffffff; stroke-opacity: 0.6; stroke-width: 0.339411"/>
    <path d="M 205.847661 134.346174 
L 207.647661 131.346174 
L 205.847661 128.346174 
L 204.047661 131.346174 
z
" clip-path="url(#p0df283a62a)" style="fill: #332288; fill-opacity: 0.6; stroke: #ffffff; stroke-opacity: 0.6; stroke-width: 0.339411"/>
    <path d="M 213.309187 121.411642 
L 215.109187 118.411642 
L 213.309187 115.411642 
L 211.509187 118.411642 
z
" clip-path="url(#p0df283a62a)" style="fill: #332288; fill-opacity: 0.6; stroke: #ffffff; stroke-opacity: 0.6; stroke-width: 0.339411"/>
    <path d="M 210.738842 125.342055 
L 212.538842 122.342055 
L 210.738842 119.342055 
L 208.938842 122.342055 
z
" clip-path="url(#p0df283a62a)" style="fill: #332288; fill-opacity: 0.6; stroke: #ffffff; stroke-opacity: 0.6; stroke-width: 0.339411"/>
    <path d="M 205.088572 129.91027 
L 206.888572 126.91027 
L 205.088572 123.91027 
L 203.288572 126.91027 
z
" clip-path="url(#p0df283a62a)" style="fill: #332288; fill-opacity: 0.6; stroke: #ffffff; stroke-opacity: 0.6; stroke-width: 0.339411"/>
    <path d="M 152.57889 57.938728 
L 154.37889 54.938728 
L 152.57889 51.938728 
L 150.77889 54.938728 
z
" clip-path="url(#p0df283a62a)" style="fill: #332288; fill-opacity: 0.6; stroke: #ffffff; stroke-opacity: 0.6; stroke-width: 0.339411"/>
    <path d="M 148.423926 50.523186 
L 146.302605 54.765827 
L 150.545246 54.765827 
z
" clip-path="url(#p0df283a62a)" style="fill: #117733; fill-opacity: 0.6; stroke: #ffffff; stroke-opacity: 0.6; stroke-width: 0.339411"/>
    <path d="M 125.985846 37.67111 
L 123.864525 41.913751 
L 128.107166 41.913751 
z
" clip-path="url(#p0df283a62a)" style="fill: #117733; fill-opacity: 0.6; stroke: #ffffff; stroke-opacity: 0.6; stroke-width: 0.339411"/>
    <path d="M 87.30305 131.470011 
L 85.18173 135.712652 
L 89.42437 135.712652 
z
" clip-path="url(#p0df283a62a)" style="fill: #117733; fill-opacity: 0.6; stroke: #ffffff; stroke-opacity: 0.6; stroke-width: 0.339411"/>
    <path d="M 89.864436 126.86075 
L 87.743116 131.103391 
L 91.985757 131.103391 
z
" clip-path="url(#p0df283a62a)" style="fill: #117733; fill-opacity: 0.6; stroke: #ffffff; stroke-opacity: 0.6; stroke-width: 0.339411"/>
    <path d="M 157.577026 39.795392 
L 155.455706 44.038032 
L 159.698347 44.038032 
z
" clip-path="url(#p0df283a62a)" style="fill: #117733; fill-opacity: 0.6; stroke: #ffffff; stroke-opacity: 0.6; stroke-width: 0.339411"/>
    <path d="M 149.692573 50.018697 
L 147.571253 54.261338 
L 151.813893 54.261338 
z
" clip-path="url(#p0df283a62a)" style="fill: #117733; fill-opacity: 0.6; stroke: #ffffff; stroke-opacity: 0.6; stroke-width: 0.339411"/>
    <path d="M 129.047163 40.503544 
L 126.925842 44.746184 
L 131.168483 44.746184 
z
" clip-path="url(#p0df283a62a)" style="fill: #117733; fill-opacity: 0.6; stroke: #ffffff; stroke-opacity: 0.6; stroke-width: 0.339411"/>
    <path d="M 84.547063 129.766494 
L 82.425743 134.009135 
L 86.668383 134.009135 
z
" clip-path="url(#p0df283a62a)" style="fill: #117733; fill-opacity: 0.6; stroke: #ffffff; stroke-opacity: 0.6; stroke-width: 0.339411"/>
    <path d="M 88.779757 128.095417 
L 86.658436 132.338057 
L 90.901077 132.338057 
z
" clip-path="url(#p0df283a62a)" style="fill: #117733; fill-opacity: 0.6; stroke: #ffffff; stroke-opacity: 0.6; stroke-width: 0.339411"/>
    <path d="M 139.673918 35.171143 
L 137.552598 39.413784 
L 141.795239 39.413784 
z
" clip-path="url(#p0df283a62a)" style="fill: #117733; fill-opacity: 0.6; stroke: #ffffff; stroke-opacity: 0.6; stroke-width: 0.339411"/>
    <path d="M 84.618657 135.162077 
L 82.497337 139.404717 
L 86.739977 139.404717 
z
" clip-path="url(#p0df283a62a)" style="fill: #117733; fill-opacity: 0.6; stroke: #ffffff; stroke-opacity: 0.6; stroke-width: 0.339411"/>
    <path d="M 145.027445 47.447137 
L 142.906124 51.689778 
L 147.148765 51.689778 
z
" clip-path="url(#p0df283a62a)" style="fill: #117733; fill-opacity: 0.6; stroke: #ffffff; stroke-opacity: 0.6; stroke-width: 0.339411"/>
    <path d="M 93.014317 130.575621 
L 90.892996 134.818262 
L 95.135637 134.818262 
z
" clip-path="url(#p0df283a62a)" style="fill: #117733; fill-opacity: 0.6; stroke: #ffffff; stroke-opacity: 0.6; stroke-width: 0.339411"/>
    <path d="M 89.084547 132.245966 
L 86.963227 136.488606 
L 91.205867 136.488606 
z
" clip-path="url(#p0df283a62a)" style="fill: #117733; fill-opacity: 0.6; stroke: #ffffff; stroke-opacity: 0.6; stroke-width: 0.339411"/>
    <path d="M 87.211636 132.92933 
L 85.090315 137.171971 
L 89.332956 137.171971 
z
" clip-path="url(#p0df283a62a)" style="fill: #117733; fill-opacity: 0.6; stroke: #ffffff; stroke-opacity: 0.6; stroke-width: 0.339411"/>
    <path d="M 156.470824 50.124468 
L 154.349503 54.367109 
L 158.592144 54.367109 
z
" clip-path="url(#p0df283a62a)" style="fill: #117733; fill-opacity: 0.6; stroke: #ffffff; stroke-opacity: 0.6; stroke-width: 0.339411"/>
    <path d="M 139.731913 41.588762 
L 137.610593 45.831403 
L 141.853234 45.831403 
z
" clip-path="url(#p0df283a62a)" style="fill: #117733; fill-opacity: 0.6; stroke: #ffffff; stroke-opacity: 0.6; stroke-width: 0.339411"/>
    <path d="M 212.464695 115.812422 
L 210.343375 120.055063 
L 214.586016 120.055063 
z
" clip-path="url(#p0df283a62a)" style="fill: #117733; fill-opacity: 0.6; stroke: #ffffff; stroke-opacity: 0.6; stroke-width: 0.339411"/>
    <path d="M 197.029122 120.38637 
L 194.907802 124.62901 
L 199.150442 124.62901 
z
" clip-path="url(#p0df283a62a)" style="fill: #117733; fill-opacity: 0.6; stroke: #ffffff; stroke-opacity: 0.6; stroke-width: 0.339411"/>
    <path d="M 142.305256 79.359884 
L 140.183936 83.602524 
L 144.426577 83.602524 
z
" clip-path="url(#p0df283a62a)" style="fill: #117733; fill-opacity: 0.6; stroke: #ffffff; stroke-opacity: 0.6; stroke-width: 0.339411"/>
    <path d="M 87.756221 130.372285 
L 85.634901 134.614925 
L 89.877541 134.614925 
z
" clip-path="url(#p0df283a62a)" style="fill: #117733; fill-opacity: 0.6; stroke: #ffffff; stroke-opacity: 0.6; stroke-width: 0.339411"/>
    <path d="M 90.030627 126.760971 
L 87.909306 131.003612 
L 92.151947 131.003612 
z
" clip-path="url(#p0df283a62a)" style="fill: #117733; fill-opacity: 0.6; stroke: #ffffff; stroke-opacity: 0.6; stroke-width: 0.339411"/>
    <path d="M 147.120917 49.906192 
L 144.999596 54.148833 
L 149.242237 54.148833 
z
" clip-path="url(#p0df283a62a)" style="fill: #117733; fill-opacity: 0.6; stroke: #ffffff; stroke-opacity: 0.6; stroke-width: 0.339411"/>
    <path d="M 95.523616 135.517996 
L 93.402296 139.760637 
L 97.644936 139.760637 
z
" clip-path="url(#p0df283a62a)" style="fill: #117733; fill-opacity: 0.6; stroke: #ffffff; stroke-opacity: 0.6; stroke-width: 0.339411"/>
    <path d="M 85.820186 129.650029 
L 83.698865 133.89267 
L 87.941506 133.89267 
z
" clip-path="url(#p0df283a62a)" style="fill: #117733; fill-opacity: 0.6; stroke: #ffffff; stroke-opacity: 0.6; stroke-width: 0.339411"/>
    <path d="M 212.567394 115.938322 
L 210.446073 120.180963 
L 214.688714 120.180963 
z
" clip-path="url(#p0df283a62a)" style="fill: #117733; fill-opacity: 0.6; stroke: #ffffff; stroke-opacity: 0.6; stroke-width: 0.339411"/>
    <path d="M 145.376021 44.477639 
L 143.254701 48.72028 
L 147.497341 48.72028 
z
" clip-path="url(#p0df283a62a)" style="fill: #117733; fill-opacity: 0.6; stroke: #ffffff; stroke-opacity: 0.6; stroke-width: 0.339411"/>
    <path d="M 147.917088 84.93167 
L 145.795767 89.174311 
L 150.038408 89.174311 
z
" clip-path="url(#p0df283a62a)" style="fill: #117733; fill-opacity: 0.6; stroke: #ffffff; stroke-opacity: 0.6; stroke-width: 0.339411"/>
    <path d="M 122.669611 31.622807 
L 120.548291 35.865448 
L 124.790932 35.865448 
z
" clip-path="url(#p0df283a62a)" style="fill: #117733; fill-opacity: 0.6; stroke: #ffffff; stroke-opacity: 0.6; stroke-width: 0.339411"/>
    <path d="M 81.941385 139.469644 
L 79.820064 143.712284 
L 84.062705 143.712284 
z
" clip-path="url(#p0df283a62a)" style="fill: #117733; fill-opacity: 0.6; stroke: #ffffff; stroke-opacity: 0.6; stroke-width: 0.339411"/>
    <path d="M 113.465718 47.819454 
L 111.344398 52.062094 
L 115.587038 52.062094 
z
" clip-path="url(#p0df283a62a)" style="fill: #117733; fill-opacity: 0.6; stroke: #ffffff; stroke-opacity: 0.6; stroke-width: 0.339411"/>
    <path d="M 129.142507 37.812237 
L 127.021187 42.054878 
L 131.263828 42.054878 
z
" clip-path="url(#p0df283a62a)" style="fill: #117733; fill-opacity: 0.6; stroke: #ffffff; stroke-opacity: 0.6; stroke-width: 0.339411"/>
    <path d="M 147.158909 45.045429 
L 145.037589 49.28807 
L 149.28023 49.28807 
z
" clip-path="url(#p0df283a62a)" style="fill: #117733; fill-opacity: 0.6; stroke: #ffffff; stroke-opacity: 0.6; stroke-width: 0.339411"/>
    <path d="M 147.206773 43.640553 
L 145.085452 47.883194 
L 149.328093 47.883194 
z
" clip-path="url(#p0df283a62a)" style="fill: #117733; fill-opacity: 0.6; stroke: #ffffff; stroke-opacity: 0.6; stroke-width: 0.339411"/>
    <path d="M 152.340534 43.908902 
L 150.219214 48.151543 
L 154.461854 48.151543 
z
" clip-path="url(#p0df283a62a)" style="fill: #117733; fill-opacity: 0.6; stroke: #ffffff; stroke-opacity: 0.6; stroke-width: 0.339411"/>
    <path d="M 86.874998 133.193303 
L 84.753677 137.435943 
L 88.996318 137.435943 
z
" clip-path="url(#p0df283a62a)" style="fill: #117733; fill-opacity: 0.6; stroke: #ffffff; stroke-opacity: 0.6; stroke-width: 0.339411"/>
    <path d="M 89.046707 127.055344 
L 86.925387 131.297985 
L 91.168027 131.297985 
z
" clip-path="url(#p0df283a62a)" style="fill: #117733; fill-opacity: 0.6; stroke: #ffffff; stroke-opacity: 0.6; stroke-width: 0.339411"/>
    <path d="M 88.250244 126.512045 
L 86.128923 130.754686 
L 90.371564 130.754686 
z
" clip-path="url(#p0df283a62a)" style="fill: #117733; fill-opacity: 0.6; stroke: #ffffff; stroke-opacity: 0.6; stroke-width: 0.339411"/>
    <path d="M 147.449042 43.797753 
L 145.327722 48.040393 
L 149.570362 48.040393 
z
" clip-path="url(#p0df283a62a)" style="fill: #117733; fill-opacity: 0.6; stroke: #ffffff; stroke-opacity: 0.6; stroke-width: 0.339411"/>
    <path d="M 94.204006 134.734736 
L 92.082685 138.977376 
L 96.325326 138.977376 
z
" clip-path="url(#p0df283a62a)" style="fill: #117733; fill-opacity: 0.6; stroke: #ffffff; stroke-opacity: 0.6; stroke-width: 0.339411"/>
    <path d="M 80.727086 139.214186 
L 78.605766 143.456827 
L 82.848406 143.456827 
z
" clip-path="url(#p0df283a62a)" style="fill: #117733; fill-opacity: 0.6; stroke: #ffffff; stroke-opacity: 0.6; stroke-width: 0.339411"/>
    <path d="M 150.346467 51.186126 
L 148.225146 55.428767 
L 152.467787 55.428767 
z
" clip-path="url(#p0df283a62a)" style="fill: #117733; fill-opacity: 0.6; stroke: #ffffff; stroke-opacity: 0.6; stroke-width: 0.339411"/>
    <path d="M 157.588465 39.539924 
L 155.467144 43.782565 
L 159.709785 43.782565 
z
" clip-path="url(#p0df283a62a)" style="fill: #117733; fill-opacity: 0.6; stroke: #ffffff; stroke-opacity: 0.6; stroke-width: 0.339411"/>
    <path d="M 81.02104 139.039687 
L 78.89972 143.282328 
L 83.142361 143.282328 
z
" clip-path="url(#p0df283a62a)" style="fill: #117733; fill-opacity: 0.6; stroke: #ffffff; stroke-opacity: 0.6; stroke-width: 0.339411"/>
    <path d="M 86.534775 122.23983 
L 84.413454 126.482471 
L 88.656095 126.482471 
z
" clip-path="url(#p0df283a62a)" style="fill: #117733; fill-opacity: 0.6; stroke: #ffffff; stroke-opacity: 0.6; stroke-width: 0.339411"/>
    <path d="M 88.05437 127.256647 
L 85.933049 131.499287 
L 90.17569 131.499287 
z
" clip-path="url(#p0df283a62a)" style="fill: #117733; fill-opacity: 0.6; stroke: #ffffff; stroke-opacity: 0.6; stroke-width: 0.339411"/>
    <path d="M 83.834911 130.15543 
L 81.713591 134.398071 
L 85.956232 134.398071 
z
" clip-path="url(#p0df283a62a)" style="fill: #117733; fill-opacity: 0.6; stroke: #ffffff; stroke-opacity: 0.6; stroke-width: 0.339411"/>
    <path d="M 90.71473 136.379905 
L 88.59341 140.622546 
L 92.83605 140.622546 
z
" clip-path="url(#p0df283a62a)" style="fill: #117733; fill-opacity: 0.6; stroke: #ffffff; stroke-opacity: 0.6; stroke-width: 0.339411"/>
    <path d="M 83.645776 130.061517 
L 81.524456 134.304157 
L 85.767097 134.304157 
z
" clip-path="url(#p0df283a62a)" style="fill: #117733; fill-opacity: 0.6; stroke: #ffffff; stroke-opacity: 0.6; stroke-width: 0.339411"/>
    <path d="M 89.547851 136.214217 
L 87.426531 140.456858 
L 91.669172 140.456858 
z
" clip-path="url(#p0df283a62a)" style="fill: #117733; fill-opacity: 0.6; stroke: #ffffff; stroke-opacity: 0.6; stroke-width: 0.339411"/>
    <path d="M 150.473052 51.865358 
L 148.351732 56.107999 
L 152.594372 56.107999 
z
" clip-path="url(#p0df283a62a)" style="fill: #117733; fill-opacity: 0.6; stroke: #ffffff; stroke-opacity: 0.6; stroke-width: 0.339411"/>
    <path d="M 89.069726 127.340493 
L 86.948406 131.583134 
L 91.191046 131.583134 
z
" clip-path="url(#p0df283a62a)" style="fill: #117733; fill-opacity: 0.6; stroke: #ffffff; stroke-opacity: 0.6; stroke-width: 0.339411"/>
    <path d="M 81.872661 138.711416 
L 79.751341 142.954057 
L 83.993982 142.954057 
z
" clip-path="url(#p0df283a62a)" style="fill: #117733; fill-opacity: 0.6; stroke: #ffffff; stroke-opacity: 0.6; stroke-width: 0.339411"/>
    <path d="M 147.962322 51.170177 
L 145.841001 55.412817 
L 150.083642 55.412817 
z
" clip-path="url(#p0df283a62a)" style="fill: #117733; fill-opacity: 0.6; stroke: #ffffff; stroke-opacity: 0.6; stroke-width: 0.339411"/>
    <path d="M 146.812854 41.805359 
L 144.691534 46.047999 
L 148.934175 46.047999 
z
" clip-path="url(#p0df283a62a)" style="fill: #117733; fill-opacity: 0.6; stroke: #ffffff; stroke-opacity: 0.6; stroke-width: 0.339411"/>
    <path d="M 145.38968 46.155805 
L 143.26836 50.398446 
L 147.511001 50.398446 
z
" clip-path="url(#p0df283a62a)" style="fill: #117733; fill-opacity: 0.6; stroke: #ffffff; stroke-opacity: 0.6; stroke-width: 0.339411"/>
    <path d="M 132.147013 30.924662 
L 130.025692 35.167302 
L 134.268333 35.167302 
z
" clip-path="url(#p0df283a62a)" style="fill: #117733; fill-opacity: 0.6; stroke: #ffffff; stroke-opacity: 0.6; stroke-width: 0.339411"/>
    <path d="M 121.681402 29.568193 
L 119.560082 33.810833 
L 123.802722 33.810833 
z
" clip-path="url(#p0df283a62a)" style="fill: #117733; fill-opacity: 0.6; stroke: #ffffff; stroke-opacity: 0.6; stroke-width: 0.339411"/>
    <path d="M 94.10288 140.605247 
L 91.981559 144.847888 
L 96.2242 144.847888 
z
" clip-path="url(#p0df283a62a)" style="fill: #117733; fill-opacity: 0.6; stroke: #ffffff; stroke-opacity: 0.6; stroke-width: 0.339411"/>
    <path d="M 88.963599 127.201331 
L 86.842278 131.443972 
L 91.084919 131.443972 
z
" clip-path="url(#p0df283a62a)" style="fill: #117733; fill-opacity: 0.6; stroke: #ffffff; stroke-opacity: 0.6; stroke-width: 0.339411"/>
    <path d="M 201.520727 122.133298 
L 199.399406 126.375938 
L 203.642047 126.375938 
z
" clip-path="url(#p0df283a62a)" style="fill: #117733; fill-opacity: 0.6; stroke: #ffffff; stroke-opacity: 0.6; stroke-width: 0.339411"/>
    <path d="M 89.062141 126.040212 
L 86.940821 130.282852 
L 91.183461 130.282852 
z
" clip-path="url(#p0df283a62a)" style="fill: #117733; fill-opacity: 0.6; stroke: #ffffff; stroke-opacity: 0.6; stroke-width: 0.339411"/>
    <path d="M 147.449366 43.935096 
L 145.328046 48.177737 
L 149.570686 48.177737 
z
" clip-path="url(#p0df283a62a)" style="fill: #117733; fill-opacity: 0.6; stroke: #ffffff; stroke-opacity: 0.6; stroke-width: 0.339411"/>
    <path d="M 121.82156 36.642527 
L 119.70024 40.885167 
L 123.942881 40.885167 
z
" clip-path="url(#p0df283a62a)" style="fill: #117733; fill-opacity: 0.6; stroke: #ffffff; stroke-opacity: 0.6; stroke-width: 0.339411"/>
    <path d="M 125.951663 39.973742 
L 130.194303 39.973742 
L 130.194303 35.731101 
L 125.951663 35.731101 
z
" clip-path="url(#p0df283a62a)" style="fill: #44aa99; fill-opacity: 0.6; stroke: #ffffff; stroke-opacity: 0.6; stroke-width: 0.339411"/>
    <path d="M 202.611107 125.657916 
L 206.853747 125.657916 
L 206.853747 121.415275 
L 202.611107 121.415275 
z
" clip-path="url(#p0df283a62a)" style="fill: #44aa99; fill-opacity: 0.6; stroke: #ffffff; stroke-opacity: 0.6; stroke-width: 0.339411"/>
    <path d="M 112.899122 42.635479 
L 117.141763 42.635479 
L 117.141763 38.392838 
L 112.899122 38.392838 
z
" clip-path="url(#p0df283a62a)" style="fill: #44aa99; fill-opacity: 0.6; stroke: #ffffff; stroke-opacity: 0.6; stroke-width: 0.339411"/>
    <path d="M 201.444336 134.731265 
L 205.686977 134.731265 
L 205.686977 130.488625 
L 201.444336 130.488625 
z
" clip-path="url(#p0df283a62a)" style="fill: #44aa99; fill-opacity: 0.6; stroke: #ffffff; stroke-opacity: 0.6; stroke-width: 0.339411"/>
    <path d="M 203.140641 125.295902 
L 207.383281 125.295902 
L 207.383281 121.053261 
L 203.140641 121.053261 
z
" clip-path="url(#p0df283a62a)" style="fill: #44aa99; fill-opacity: 0.6; stroke: #ffffff; stroke-opacity: 0.6; stroke-width: 0.339411"/>
    <path d="M 93.339391 136.646296 
L 97.582032 136.646296 
L 97.582032 132.403655 
L 93.339391 132.403655 
z
" clip-path="url(#p0df283a62a)" style="fill: #44aa99; fill-opacity: 0.6; stroke: #ffffff; stroke-opacity: 0.6; stroke-width: 0.339411"/>
    <path d="M 143.006471 91.109222 
L 147.249111 91.109222 
L 147.249111 86.866582 
L 143.006471 86.866582 
z
" clip-path="url(#p0df283a62a)" style="fill: #44aa99; fill-opacity: 0.6; stroke: #ffffff; stroke-opacity: 0.6; stroke-width: 0.339411"/>
    <path d="M 196.097309 120.727262 
L 200.33995 120.727262 
L 200.33995 116.484622 
L 196.097309 116.484622 
z
" clip-path="url(#p0df283a62a)" style="fill: #44aa99; fill-opacity: 0.6; stroke: #ffffff; stroke-opacity: 0.6; stroke-width: 0.339411"/>
    <path d="M 86.040171 134.899565 
L 90.282811 134.899565 
L 90.282811 130.656924 
L 86.040171 130.656924 
z
" clip-path="url(#p0df283a62a)" style="fill: #44aa99; fill-opacity: 0.6; stroke: #ffffff; stroke-opacity: 0.6; stroke-width: 0.339411"/>
    <path d="M 152.221562 98.649594 
L 156.464203 98.649594 
L 156.464203 94.406953 
L 152.221562 94.406953 
z
" clip-path="url(#p0df283a62a)" style="fill: #44aa99; fill-opacity: 0.6; stroke: #ffffff; stroke-opacity: 0.6; stroke-width: 0.339411"/>
    <path d="M 118.608225 37.306888 
L 122.850865 37.306888 
L 122.850865 33.064247 
L 118.608225 33.064247 
z
" clip-path="url(#p0df283a62a)" style="fill: #44aa99; fill-opacity: 0.6; stroke: #ffffff; stroke-opacity: 0.6; stroke-width: 0.339411"/>
    <path d="M 131.942133 43.875703 
L 136.184774 43.875703 
L 136.184774 39.633062 
L 131.942133 39.633062 
z
" clip-path="url(#p0df283a62a)" style="fill: #44aa99; fill-opacity: 0.6; stroke: #ffffff; stroke-opacity: 0.6; stroke-width: 0.339411"/>
    <path d="M 123.703206 34.358718 
L 127.945846 34.358718 
L 127.945846 30.116078 
L 123.703206 30.116078 
z
" clip-path="url(#p0df283a62a)" style="fill: #44aa99; fill-opacity: 0.6; stroke: #ffffff; stroke-opacity: 0.6; stroke-width: 0.339411"/>
    <path d="M 126.495861 36.038812 
L 130.738502 36.038812 
L 130.738502 31.796171 
L 126.495861 31.796171 
z
" clip-path="url(#p0df283a62a)" style="fill: #44aa99; fill-opacity: 0.6; stroke: #ffffff; stroke-opacity: 0.6; stroke-width: 0.339411"/>
    <path d="M 200.432588 134.261277 
L 204.675229 134.261277 
L 204.675229 130.018636 
L 200.432588 130.018636 
z
" clip-path="url(#p0df283a62a)" style="fill: #44aa99; fill-opacity: 0.6; stroke: #ffffff; stroke-opacity: 0.6; stroke-width: 0.339411"/>
    <path d="M 83.873734 133.962544 
L 88.116375 133.962544 
L 88.116375 129.719903 
L 83.873734 129.719903 
z
" clip-path="url(#p0df283a62a)" style="fill: #44aa99; fill-opacity: 0.6; stroke: #ffffff; stroke-opacity: 0.6; stroke-width: 0.339411"/>
    <path d="M 122.056985 38.796181 
L 126.299626 38.796181 
L 126.299626 34.55354 
L 122.056985 34.55354 
z
" clip-path="url(#p0df283a62a)" style="fill: #44aa99; fill-opacity: 0.6; stroke: #ffffff; stroke-opacity: 0.6; stroke-width: 0.339411"/>
    <path d="M 202.081737 134.958723 
L 206.324378 134.958723 
L 206.324378 130.716082 
L 202.081737 130.716082 
z
" clip-path="url(#p0df283a62a)" style="fill: #44aa99; fill-opacity: 0.6; stroke: #ffffff; stroke-opacity: 0.6; stroke-width: 0.339411"/>
    <path d="M 202.192575 122.547141 
L 206.435216 122.547141 
L 206.435216 118.304501 
L 202.192575 118.304501 
z
" clip-path="url(#p0df283a62a)" style="fill: #44aa99; fill-opacity: 0.6; stroke: #ffffff; stroke-opacity: 0.6; stroke-width: 0.339411"/>
    <path d="M 84.729179 131.675531 
L 88.971819 131.675531 
L 88.971819 127.43289 
L 84.729179 127.43289 
z
" clip-path="url(#p0df283a62a)" style="fill: #44aa99; fill-opacity: 0.6; stroke: #ffffff; stroke-opacity: 0.6; stroke-width: 0.339411"/>
    <path d="M 200.232229 133.681244 
L 204.47487 133.681244 
L 204.47487 129.438604 
L 200.232229 129.438604 
z
" clip-path="url(#p0df283a62a)" style="fill: #44aa99; fill-opacity: 0.6; stroke: #ffffff; stroke-opacity: 0.6; stroke-width: 0.339411"/>
    <path d="M 125.765553 49.580102 
L 130.008193 49.580102 
L 130.008193 45.337462 
L 125.765553 45.337462 
z
" clip-path="url(#p0df283a62a)" style="fill: #44aa99; fill-opacity: 0.6; stroke: #ffffff; stroke-opacity: 0.6; stroke-width: 0.339411"/>
    <path d="M 203.703073 125.687029 
L 207.945713 125.687029 
L 207.945713 121.444388 
L 203.703073 121.444388 
z
" clip-path="url(#p0df283a62a)" style="fill: #44aa99; fill-opacity: 0.6; stroke: #ffffff; stroke-opacity: 0.6; stroke-width: 0.339411"/>
    <path d="M 122.193955 50.506052 
L 126.436596 50.506052 
L 126.436596 46.263411 
L 122.193955 46.263411 
z
" clip-path="url(#p0df283a62a)" style="fill: #44aa99; fill-opacity: 0.6; stroke: #ffffff; stroke-opacity: 0.6; stroke-width: 0.339411"/>
    <path d="M 131.168525 43.049839 
L 135.411166 43.049839 
L 135.411166 38.807199 
L 131.168525 38.807199 
z
" clip-path="url(#p0df283a62a)" style="fill: #44aa99; fill-opacity: 0.6; stroke: #ffffff; stroke-opacity: 0.6; stroke-width: 0.339411"/>
    <path d="M 139.55985 100.412068 
L 143.802491 100.412068 
L 143.802491 96.169427 
L 139.55985 96.169427 
z
" clip-path="url(#p0df283a62a)" style="fill: #44aa99; fill-opacity: 0.6; stroke: #ffffff; stroke-opacity: 0.6; stroke-width: 0.339411"/>
    <path d="M 203.390871 125.526183 
L 207.633512 125.526183 
L 207.633512 121.283542 
L 203.390871 121.283542 
z
" clip-path="url(#p0df283a62a)" style="fill: #44aa99; fill-opacity: 0.6; stroke: #ffffff; stroke-opacity: 0.6; stroke-width: 0.339411"/>
    <path d="M 84.966566 133.571445 
L 89.209207 133.571445 
L 89.209207 129.328804 
L 84.966566 129.328804 
z
" clip-path="url(#p0df283a62a)" style="fill: #44aa99; fill-opacity: 0.6; stroke: #ffffff; stroke-opacity: 0.6; stroke-width: 0.339411"/>
    <path d="M 83.842907 133.454891 
L 88.085548 133.454891 
L 88.085548 129.212251 
L 83.842907 129.212251 
z
" clip-path="url(#p0df283a62a)" style="fill: #44aa99; fill-opacity: 0.6; stroke: #ffffff; stroke-opacity: 0.6; stroke-width: 0.339411"/>
    <path d="M 122.089909 39.242622 
L 126.33255 39.242622 
L 126.33255 34.999982 
L 122.089909 34.999982 
z
" clip-path="url(#p0df283a62a)" style="fill: #44aa99; fill-opacity: 0.6; stroke: #ffffff; stroke-opacity: 0.6; stroke-width: 0.339411"/>
    <path d="M 203.090971 125.525988 
L 207.333612 125.525988 
L 207.333612 121.283347 
L 203.090971 121.283347 
z
" clip-path="url(#p0df283a62a)" style="fill: #44aa99; fill-opacity: 0.6; stroke: #ffffff; stroke-opacity: 0.6; stroke-width: 0.339411"/>
    <path d="M 203.631868 125.621296 
L 207.874508 125.621296 
L 207.874508 121.378655 
L 203.631868 121.378655 
z
" clip-path="url(#p0df283a62a)" style="fill: #44aa99; fill-opacity: 0.6; stroke: #ffffff; stroke-opacity: 0.6; stroke-width: 0.339411"/>
    <path d="M 93.518611 136.846086 
L 97.761251 136.846086 
L 97.761251 132.603445 
L 93.518611 132.603445 
z
" clip-path="url(#p0df283a62a)" style="fill: #44aa99; fill-opacity: 0.6; stroke: #ffffff; stroke-opacity: 0.6; stroke-width: 0.339411"/>
    <path d="M 130.678916 43.179277 
L 134.921557 43.179277 
L 134.921557 38.936637 
L 130.678916 38.936637 
z
" clip-path="url(#p0df283a62a)" style="fill: #44aa99; fill-opacity: 0.6; stroke: #ffffff; stroke-opacity: 0.6; stroke-width: 0.339411"/>
    <path d="M 122.52484 41.120502 
L 126.767481 41.120502 
L 126.767481 36.877862 
L 122.52484 36.877862 
z
" clip-path="url(#p0df283a62a)" style="fill: #44aa99; fill-opacity: 0.6; stroke: #ffffff; stroke-opacity: 0.6; stroke-width: 0.339411"/>
    <path d="M 119.99479 38.46131 
L 124.237431 38.46131 
L 124.237431 34.218669 
L 119.99479 34.218669 
z
" clip-path="url(#p0df283a62a)" style="fill: #44aa99; fill-opacity: 0.6; stroke: #ffffff; stroke-opacity: 0.6; stroke-width: 0.339411"/>
    <path d="M 131.87806 42.630667 
L 136.120701 42.630667 
L 136.120701 38.388026 
L 131.87806 38.388026 
z
" clip-path="url(#p0df283a62a)" style="fill: #44aa99; fill-opacity: 0.6; stroke: #ffffff; stroke-opacity: 0.6; stroke-width: 0.339411"/>
    <path d="M 203.19247 122.79724 
L 207.435111 122.79724 
L 207.435111 118.554599 
L 203.19247 118.554599 
z
" clip-path="url(#p0df283a62a)" style="fill: #44aa99; fill-opacity: 0.6; stroke: #ffffff; stroke-opacity: 0.6; stroke-width: 0.339411"/>
    <path d="M 207.423943 128.846277 
L 211.666584 128.846277 
L 211.666584 124.603636 
L 207.423943 124.603636 
z
" clip-path="url(#p0df283a62a)" style="fill: #44aa99; fill-opacity: 0.6; stroke: #ffffff; stroke-opacity: 0.6; stroke-width: 0.339411"/>
    <path d="M 82.417217 132.516988 
L 86.659857 132.516988 
L 86.659857 128.274347 
L 82.417217 128.274347 
z
" clip-path="url(#p0df283a62a)" style="fill: #44aa99; fill-opacity: 0.6; stroke: #ffffff; stroke-opacity: 0.6; stroke-width: 0.339411"/>
    <path d="M 201.358009 135.537023 
L 205.60065 135.537023 
L 205.60065 131.294382 
L 201.358009 131.294382 
z
" clip-path="url(#p0df283a62a)" style="fill: #44aa99; fill-opacity: 0.6; stroke: #ffffff; stroke-opacity: 0.6; stroke-width: 0.339411"/>
    <path d="M 206.228263 128.947428 
L 210.470904 128.947428 
L 210.470904 124.704788 
L 206.228263 124.704788 
z
" clip-path="url(#p0df283a62a)" style="fill: #44aa99; fill-opacity: 0.6; stroke: #ffffff; stroke-opacity: 0.6; stroke-width: 0.339411"/>
    <path d="M 203.558282 125.645614 
L 207.800923 125.645614 
L 207.800923 121.402974 
L 203.558282 121.402974 
z
" clip-path="url(#p0df283a62a)" style="fill: #44aa99; fill-opacity: 0.6; stroke: #ffffff; stroke-opacity: 0.6; stroke-width: 0.339411"/>
    <path d="M 204.679931 128.608926 
L 208.922571 128.608926 
L 208.922571 124.366285 
L 204.679931 124.366285 
z
" clip-path="url(#p0df283a62a)" style="fill: #44aa99; fill-opacity: 0.6; stroke: #ffffff; stroke-opacity: 0.6; stroke-width: 0.339411"/>
    <path d="M 78.597895 129.383817 
L 82.840536 129.383817 
L 82.840536 125.141177 
L 78.597895 125.141177 
z
" clip-path="url(#p0df283a62a)" style="fill: #44aa99; fill-opacity: 0.6; stroke: #ffffff; stroke-opacity: 0.6; stroke-width: 0.339411"/>
    <path d="M 126.068159 41.009691 
L 130.310799 41.009691 
L 130.310799 36.76705 
L 126.068159 36.76705 
z
" clip-path="url(#p0df283a62a)" style="fill: #44aa99; fill-opacity: 0.6; stroke: #ffffff; stroke-opacity: 0.6; stroke-width: 0.339411"/>
    <path d="M 147.851838 88.366305 
L 152.094478 88.366305 
L 152.094478 84.123664 
L 147.851838 84.123664 
z
" clip-path="url(#p0df283a62a)" style="fill: #44aa99; fill-opacity: 0.6; stroke: #ffffff; stroke-opacity: 0.6; stroke-width: 0.339411"/>
    <path d="M 199.885764 134.870801 
L 204.128405 134.870801 
L 204.128405 130.628161 
L 199.885764 130.628161 
z
" clip-path="url(#p0df283a62a)" style="fill: #44aa99; fill-opacity: 0.6; stroke: #ffffff; stroke-opacity: 0.6; stroke-width: 0.339411"/>
    <path d="M 141.8384 102.410322 
L 146.081041 102.410322 
L 146.081041 98.167682 
L 141.8384 98.167682 
z
" clip-path="url(#p0df283a62a)" style="fill: #44aa99; fill-opacity: 0.6; stroke: #ffffff; stroke-opacity: 0.6; stroke-width: 0.339411"/>
    <path d="M 123.437188 43.060958 
L 127.679829 43.060958 
L 127.679829 38.818317 
L 123.437188 38.818317 
z
" clip-path="url(#p0df283a62a)" style="fill: #44aa99; fill-opacity: 0.6; stroke: #ffffff; stroke-opacity: 0.6; stroke-width: 0.339411"/>
    <path d="M 201.989601 123.477504 
L 206.232241 123.477504 
L 206.232241 119.234863 
L 201.989601 119.234863 
z
" clip-path="url(#p0df283a62a)" style="fill: #44aa99; fill-opacity: 0.6; stroke: #ffffff; stroke-opacity: 0.6; stroke-width: 0.339411"/>
    <path d="M 207.205752 128.563822 
L 211.448393 128.563822 
L 211.448393 124.321181 
L 207.205752 124.321181 
z
" clip-path="url(#p0df283a62a)" style="fill: #44aa99; fill-opacity: 0.6; stroke: #ffffff; stroke-opacity: 0.6; stroke-width: 0.339411"/>
    <path d="M 124.108177 43.859615 
L 128.350818 43.859615 
L 128.350818 39.616974 
L 124.108177 39.616974 
z
" clip-path="url(#p0df283a62a)" style="fill: #44aa99; fill-opacity: 0.6; stroke: #ffffff; stroke-opacity: 0.6; stroke-width: 0.339411"/>
    <path d="M 198.797683 133.508175 
L 203.040324 133.508175 
L 203.040324 129.265534 
L 198.797683 129.265534 
z
" clip-path="url(#p0df283a62a)" style="fill: #44aa99; fill-opacity: 0.6; stroke: #ffffff; stroke-opacity: 0.6; stroke-width: 0.339411"/>
    <path d="M 120.533532 46.95975 
L 124.776173 46.95975 
L 124.776173 42.717109 
L 120.533532 42.717109 
z
" clip-path="url(#p0df283a62a)" style="fill: #44aa99; fill-opacity: 0.6; stroke: #ffffff; stroke-opacity: 0.6; stroke-width: 0.339411"/>
    <path d="M 86.148288 129.963942 
L 90.390928 129.963942 
L 90.390928 125.721301 
L 86.148288 125.721301 
z
" clip-path="url(#p0df283a62a)" style="fill: #44aa99; fill-opacity: 0.6; stroke: #ffffff; stroke-opacity: 0.6; stroke-width: 0.339411"/>
    <path d="M 95.966104 133.810254 
L 100.208745 133.810254 
L 100.208745 129.567614 
L 95.966104 129.567614 
z
" clip-path="url(#p0df283a62a)" style="fill: #44aa99; fill-opacity: 0.6; stroke: #ffffff; stroke-opacity: 0.6; stroke-width: 0.339411"/>
    <path d="M 200.226903 128.615282 
L 204.469544 128.615282 
L 204.469544 124.372641 
L 200.226903 124.372641 
z
" clip-path="url(#p0df283a62a)" style="fill: #44aa99; fill-opacity: 0.6; stroke: #ffffff; stroke-opacity: 0.6; stroke-width: 0.339411"/>
    <path d="M 203.606974 125.450142 
L 207.849614 125.450142 
L 207.849614 121.207502 
L 203.606974 121.207502 
z
" clip-path="url(#p0df283a62a)" style="fill: #44aa99; fill-opacity: 0.6; stroke: #ffffff; stroke-opacity: 0.6; stroke-width: 0.339411"/>
    <path d="M 136.667089 86.21981 
L 140.90973 86.21981 
L 140.90973 81.97717 
L 136.667089 81.97717 
z
" clip-path="url(#p0df283a62a)" style="fill: #44aa99; fill-opacity: 0.6; stroke: #ffffff; stroke-opacity: 0.6; stroke-width: 0.339411"/>
    <path d="M 82.563245 132.356193 
L 86.805886 132.356193 
L 86.805886 128.113553 
L 82.563245 128.113553 
z
" clip-path="url(#p0df283a62a)" style="fill: #44aa99; fill-opacity: 0.6; stroke: #ffffff; stroke-opacity: 0.6; stroke-width: 0.339411"/>
    <path d="M 124.129636 43.563249 
L 128.372276 43.563249 
L 128.372276 39.320609 
L 124.129636 39.320609 
z
" clip-path="url(#p0df283a62a)" style="fill: #44aa99; fill-opacity: 0.6; stroke: #ffffff; stroke-opacity: 0.6; stroke-width: 0.339411"/>
    <path d="M 117.788256 34.582736 
L 122.030896 34.582736 
L 122.030896 30.340096 
L 117.788256 30.340096 
z
" clip-path="url(#p0df283a62a)" style="fill: #44aa99; fill-opacity: 0.6; stroke: #ffffff; stroke-opacity: 0.6; stroke-width: 0.339411"/>
    <path d="M 132.01482 48.14756 
L 136.257461 48.14756 
L 136.257461 43.904919 
L 132.01482 43.904919 
z
" clip-path="url(#p0df283a62a)" style="fill: #44aa99; fill-opacity: 0.6; stroke: #ffffff; stroke-opacity: 0.6; stroke-width: 0.339411"/>
    <path d="M 89.650504 133.810001 
L 90.711164 132.74934 
L 91.771824 133.810001 
L 92.832484 132.74934 
L 91.771824 131.68868 
L 92.832484 130.62802 
L 91.771824 129.56736 
L 90.711164 130.62802 
L 89.650504 129.56736 
L 88.589844 130.62802 
L 89.650504 131.68868 
L 88.589844 132.74934 
z
" clip-path="url(#p0df283a62a)" style="fill: #88ccee; fill-opacity: 0.6; stroke: #ffffff; stroke-opacity: 0.6; stroke-width: 0.339411"/>
    <path d="M 86.910666 132.549514 
L 87.971326 131.488854 
L 89.031986 132.549514 
L 90.092646 131.488854 
L 89.031986 130.428194 
L 90.092646 129.367534 
L 89.031986 128.306874 
L 87.971326 129.367534 
L 86.910666 128.306874 
L 85.850006 129.367534 
L 86.910666 130.428194 
L 85.850006 131.488854 
z
" clip-path="url(#p0df283a62a)" style="fill: #88ccee; fill-opacity: 0.6; stroke: #ffffff; stroke-opacity: 0.6; stroke-width: 0.339411"/>
    <path d="M 78.837131 141.182369 
L 79.897792 140.121709 
L 80.958452 141.182369 
L 82.019112 140.121709 
L 80.958452 139.061049 
L 82.019112 138.000389 
L 80.958452 136.939729 
L 79.897792 138.000389 
L 78.837131 136.939729 
L 77.776471 138.000389 
L 78.837131 139.061049 
L 77.776471 140.121709 
z
" clip-path="url(#p0df283a62a)" style="fill: #88ccee; fill-opacity: 0.6; stroke: #ffffff; stroke-opacity: 0.6; stroke-width: 0.339411"/>
    <path d="M 94.774053 140.390546 
L 95.834713 139.329886 
L 96.895373 140.390546 
L 97.956033 139.329886 
L 96.895373 138.269226 
L 97.956033 137.208565 
L 96.895373 136.147905 
L 95.834713 137.208565 
L 94.774053 136.147905 
L 93.713393 137.208565 
L 94.774053 138.269226 
L 93.713393 139.329886 
z
" clip-path="url(#p0df283a62a)" style="fill: #88ccee; fill-opacity: 0.6; stroke: #ffffff; stroke-opacity: 0.6; stroke-width: 0.339411"/>
    <path d="M 116.32456 39.685172 
L 117.385221 38.624512 
L 118.445881 39.685172 
L 119.506541 38.624512 
L 118.445881 37.563852 
L 119.506541 36.503191 
L 118.445881 35.442531 
L 117.385221 36.503191 
L 116.32456 35.442531 
L 115.2639 36.503191 
L 116.32456 37.563852 
L 115.2639 38.624512 
z
" clip-path="url(#p0df283a62a)" style="fill: #88ccee; fill-opacity: 0.6; stroke: #ffffff; stroke-opacity: 0.6; stroke-width: 0.339411"/>
    <path d="M 199.368366 130.451186 
L 200.429026 129.390526 
L 201.489686 130.451186 
L 202.550346 129.390526 
L 201.489686 128.329866 
L 202.550346 127.269206 
L 201.489686 126.208546 
L 200.429026 127.269206 
L 199.368366 126.208546 
L 198.307706 127.269206 
L 199.368366 128.329866 
L 198.307706 129.390526 
z
" clip-path="url(#p0df283a62a)" style="fill: #88ccee; fill-opacity: 0.6; stroke: #ffffff; stroke-opacity: 0.6; stroke-width: 0.339411"/>
    <path d="M 151.997193 52.73841 
L 153.057854 51.677749 
L 154.118514 52.73841 
L 155.179174 51.677749 
L 154.118514 50.617089 
L 155.179174 49.556429 
L 154.118514 48.495769 
L 153.057854 49.556429 
L 151.997193 48.495769 
L 150.936533 49.556429 
L 151.997193 50.617089 
L 150.936533 51.677749 
z
" clip-path="url(#p0df283a62a)" style="fill: #88ccee; fill-opacity: 0.6; stroke: #ffffff; stroke-opacity: 0.6; stroke-width: 0.339411"/>
    <path d="M 147.639152 51.088763 
L 148.699812 50.028103 
L 149.760472 51.088763 
L 150.821133 50.028103 
L 149.760472 48.967442 
L 150.821133 47.906782 
L 149.760472 46.846122 
L 148.699812 47.906782 
L 147.639152 46.846122 
L 146.578492 47.906782 
L 147.639152 48.967442 
L 146.578492 50.028103 
z
" clip-path="url(#p0df283a62a)" style="fill: #88ccee; fill-opacity: 0.6; stroke: #ffffff; stroke-opacity: 0.6; stroke-width: 0.339411"/>
    <path d="M 91.174948 143.064475 
L 92.235608 142.003815 
L 93.296268 143.064475 
L 94.356928 142.003815 
L 93.296268 140.943155 
L 94.356928 139.882495 
L 93.296268 138.821835 
L 92.235608 139.882495 
L 91.174948 138.821835 
L 90.114287 139.882495 
L 91.174948 140.943155 
L 90.114287 142.003815 
z
" clip-path="url(#p0df283a62a)" style="fill: #88ccee; fill-opacity: 0.6; stroke: #ffffff; stroke-opacity: 0.6; stroke-width: 0.339411"/>
    <path d="M 83.831246 142.164541 
L 84.891906 141.103881 
L 85.952566 142.164541 
L 87.013226 141.103881 
L 85.952566 140.043221 
L 87.013226 138.982561 
L 85.952566 137.921901 
L 84.891906 138.982561 
L 83.831246 137.921901 
L 82.770585 138.982561 
L 83.831246 140.043221 
L 82.770585 141.103881 
z
" clip-path="url(#p0df283a62a)" style="fill: #88ccee; fill-opacity: 0.6; stroke: #ffffff; stroke-opacity: 0.6; stroke-width: 0.339411"/>
    <path d="M 84.321807 133.579439 
L 85.382467 132.518778 
L 86.443128 133.579439 
L 87.503788 132.518778 
L 86.443128 131.458118 
L 87.503788 130.397458 
L 86.443128 129.336798 
L 85.382467 130.397458 
L 84.321807 129.336798 
L 83.261147 130.397458 
L 84.321807 131.458118 
L 83.261147 132.518778 
z
" clip-path="url(#p0df283a62a)" style="fill: #88ccee; fill-opacity: 0.6; stroke: #ffffff; stroke-opacity: 0.6; stroke-width: 0.339411"/>
    <path d="M 84.989473 130.244165 
L 86.050133 129.183505 
L 87.110794 130.244165 
L 88.171454 129.183505 
L 87.110794 128.122845 
L 88.171454 127.062185 
L 87.110794 126.001524 
L 86.050133 127.062185 
L 84.989473 126.001524 
L 83.928813 127.062185 
L 84.989473 128.122845 
L 83.928813 129.183505 
z
" clip-path="url(#p0df283a62a)" style="fill: #88ccee; fill-opacity: 0.6; stroke: #ffffff; stroke-opacity: 0.6; stroke-width: 0.339411"/>
    <path d="M 90.053716 138.793617 
L 91.114377 137.732957 
L 92.175037 138.793617 
L 93.235697 137.732957 
L 92.175037 136.672296 
L 93.235697 135.611636 
L 92.175037 134.550976 
L 91.114377 135.611636 
L 90.053716 134.550976 
L 88.993056 135.611636 
L 90.053716 136.672296 
L 88.993056 137.732957 
z
" clip-path="url(#p0df283a62a)" style="fill: #88ccee; fill-opacity: 0.6; stroke: #ffffff; stroke-opacity: 0.6; stroke-width: 0.339411"/>
    <path d="M 92.119544 136.083643 
L 93.180204 135.022982 
L 94.240864 136.083643 
L 95.301525 135.022982 
L 94.240864 133.962322 
L 95.301525 132.901662 
L 94.240864 131.841002 
L 93.180204 132.901662 
L 92.119544 131.841002 
L 91.058884 132.901662 
L 92.119544 133.962322 
L 91.058884 135.022982 
z
" clip-path="url(#p0df283a62a)" style="fill: #88ccee; fill-opacity: 0.6; stroke: #ffffff; stroke-opacity: 0.6; stroke-width: 0.339411"/>
    <path d="M 78.955189 126.407479 
L 80.015849 125.346818 
L 81.076509 126.407479 
L 82.137169 125.346818 
L 81.076509 124.286158 
L 82.137169 123.225498 
L 81.076509 122.164838 
L 80.015849 123.225498 
L 78.955189 122.164838 
L 77.894529 123.225498 
L 78.955189 124.286158 
L 77.894529 125.346818 
z
" clip-path="url(#p0df283a62a)" style="fill: #88ccee; fill-opacity: 0.6; stroke: #ffffff; stroke-opacity: 0.6; stroke-width: 0.339411"/>
    <path d="M 82.292288 136.390679 
L 83.352948 135.330019 
L 84.413608 136.390679 
L 85.474268 135.330019 
L 84.413608 134.269358 
L 85.474268 133.208698 
L 84.413608 132.148038 
L 83.352948 133.208698 
L 82.292288 132.148038 
L 81.231628 133.208698 
L 82.292288 134.269358 
L 81.231628 135.330019 
z
" clip-path="url(#p0df283a62a)" style="fill: #88ccee; fill-opacity: 0.6; stroke: #ffffff; stroke-opacity: 0.6; stroke-width: 0.339411"/>
    <path d="M 83.169843 133.717914 
L 84.230503 132.657253 
L 85.291163 133.717914 
L 86.351823 132.657253 
L 85.291163 131.596593 
L 86.351823 130.535933 
L 85.291163 129.475273 
L 84.230503 130.535933 
L 83.169843 129.475273 
L 82.109183 130.535933 
L 83.169843 131.596593 
L 82.109183 132.657253 
z
" clip-path="url(#p0df283a62a)" style="fill: #88ccee; fill-opacity: 0.6; stroke: #ffffff; stroke-opacity: 0.6; stroke-width: 0.339411"/>
    <path d="M 193.556183 133.81449 
L 194.616843 132.75383 
L 195.677503 133.81449 
L 196.738163 132.75383 
L 195.677503 131.693169 
L 196.738163 130.632509 
L 195.677503 129.571849 
L 194.616843 130.632509 
L 193.556183 129.571849 
L 192.495522 130.632509 
L 193.556183 131.693169 
L 192.495522 132.75383 
z
" clip-path="url(#p0df283a62a)" style="fill: #88ccee; fill-opacity: 0.6; stroke: #ffffff; stroke-opacity: 0.6; stroke-width: 0.339411"/>
    <path d="M 77.461332 142.127231 
L 78.521993 141.066571 
L 79.582653 142.127231 
L 80.643313 141.066571 
L 79.582653 140.005911 
L 80.643313 138.945251 
L 79.582653 137.88459 
L 78.521993 138.945251 
L 77.461332 137.88459 
L 76.400672 138.945251 
L 77.461332 140.005911 
L 76.400672 141.066571 
z
" clip-path="url(#p0df283a62a)" style="fill: #88ccee; fill-opacity: 0.6; stroke: #ffffff; stroke-opacity: 0.6; stroke-width: 0.339411"/>
    <path d="M 87.828868 139.386441 
L 88.889528 138.325781 
L 89.950188 139.386441 
L 91.010848 138.325781 
L 89.950188 137.26512 
L 91.010848 136.20446 
L 89.950188 135.1438 
L 88.889528 136.20446 
L 87.828868 135.1438 
L 86.768208 136.20446 
L 87.828868 137.26512 
L 86.768208 138.325781 
z
" clip-path="url(#p0df283a62a)" style="fill: #88ccee; fill-opacity: 0.6; stroke: #ffffff; stroke-opacity: 0.6; stroke-width: 0.339411"/>
    <path d="M 84.308696 131.474025 
L 85.369356 130.413365 
L 86.430016 131.474025 
L 87.490676 130.413365 
L 86.430016 129.352705 
L 87.490676 128.292045 
L 86.430016 127.231385 
L 85.369356 128.292045 
L 84.308696 127.231385 
L 83.248035 128.292045 
L 84.308696 129.352705 
L 83.248035 130.413365 
z
" clip-path="url(#p0df283a62a)" style="fill: #88ccee; fill-opacity: 0.6; stroke: #ffffff; stroke-opacity: 0.6; stroke-width: 0.339411"/>
    <path d="M 141.232918 48.219353 
L 142.293579 47.158693 
L 143.354239 48.219353 
L 144.414899 47.158693 
L 143.354239 46.098033 
L 144.414899 45.037373 
L 143.354239 43.976713 
L 142.293579 45.037373 
L 141.232918 43.976713 
L 140.172258 45.037373 
L 141.232918 46.098033 
L 140.172258 47.158693 
z
" clip-path="url(#p0df283a62a)" style="fill: #88ccee; fill-opacity: 0.6; stroke: #ffffff; stroke-opacity: 0.6; stroke-width: 0.339411"/>
    <path d="M 86.052566 134.863055 
L 87.113226 133.802395 
L 88.173887 134.863055 
L 89.234547 133.802395 
L 88.173887 132.741735 
L 89.234547 131.681074 
L 88.173887 130.620414 
L 87.113226 131.681074 
L 86.052566 130.620414 
L 84.991906 131.681074 
L 86.052566 132.741735 
L 84.991906 133.802395 
z
" clip-path="url(#p0df283a62a)" style="fill: #88ccee; fill-opacity: 0.6; stroke: #ffffff; stroke-opacity: 0.6; stroke-width: 0.339411"/>
    <path d="M 85.311907 131.091659 
L 86.372567 130.030999 
L 87.433228 131.091659 
L 88.493888 130.030999 
L 87.433228 128.970339 
L 88.493888 127.909678 
L 87.433228 126.849018 
L 86.372567 127.909678 
L 85.311907 126.849018 
L 84.251247 127.909678 
L 85.311907 128.970339 
L 84.251247 130.030999 
z
" clip-path="url(#p0df283a62a)" style="fill: #88ccee; fill-opacity: 0.6; stroke: #ffffff; stroke-opacity: 0.6; stroke-width: 0.339411"/>
    <path d="M 84.233879 124.691803 
L 85.294539 123.631143 
L 86.3552 124.691803 
L 87.41586 123.631143 
L 86.3552 122.570483 
L 87.41586 121.509823 
L 86.3552 120.449162 
L 85.294539 121.509823 
L 84.233879 120.449162 
L 83.173219 121.509823 
L 84.233879 122.570483 
L 83.173219 123.631143 
z
" clip-path="url(#p0df283a62a)" style="fill: #88ccee; fill-opacity: 0.6; stroke: #ffffff; stroke-opacity: 0.6; stroke-width: 0.339411"/>
    <path d="M 88.837792 140.364198 
L 89.898452 139.303538 
L 90.959112 140.364198 
L 92.019772 139.303538 
L 90.959112 138.242878 
L 92.019772 137.182217 
L 90.959112 136.121557 
L 89.898452 137.182217 
L 88.837792 136.121557 
L 87.777131 137.182217 
L 88.837792 138.242878 
L 87.777131 139.303538 
z
" clip-path="url(#p0df283a62a)" style="fill: #88ccee; fill-opacity: 0.6; stroke: #ffffff; stroke-opacity: 0.6; stroke-width: 0.339411"/>
    <path d="M 84.251624 142.225863 
L 85.312285 141.165203 
L 86.372945 142.225863 
L 87.433605 141.165203 
L 86.372945 140.104543 
L 87.433605 139.043882 
L 86.372945 137.983222 
L 85.312285 139.043882 
L 84.251624 137.983222 
L 83.190964 139.043882 
L 84.251624 140.104543 
L 83.190964 141.165203 
z
" clip-path="url(#p0df283a62a)" style="fill: #88ccee; fill-opacity: 0.6; stroke: #ffffff; stroke-opacity: 0.6; stroke-width: 0.339411"/>
    <path d="M 89.539022 133.467292 
L 90.599682 132.406632 
L 91.660342 133.467292 
L 92.721002 132.406632 
L 91.660342 131.345972 
L 92.721002 130.285312 
L 91.660342 129.224651 
L 90.599682 130.285312 
L 89.539022 129.224651 
L 88.478362 130.285312 
L 89.539022 131.345972 
L 88.478362 132.406632 
z
" clip-path="url(#p0df283a62a)" style="fill: #88ccee; fill-opacity: 0.6; stroke: #ffffff; stroke-opacity: 0.6; stroke-width: 0.339411"/>
    <path d="M 196.187728 120.952425 
L 197.248388 119.891765 
L 198.309049 120.952425 
L 199.369709 119.891765 
L 198.309049 118.831105 
L 199.369709 117.770445 
L 198.309049 116.709784 
L 197.248388 117.770445 
L 196.187728 116.709784 
L 195.127068 117.770445 
L 196.187728 118.831105 
L 195.127068 119.891765 
z
" clip-path="url(#p0df283a62a)" style="fill: #88ccee; fill-opacity: 0.6; stroke: #ffffff; stroke-opacity: 0.6; stroke-width: 0.339411"/>
    <path d="M 198.704642 122.489625 
L 199.765303 121.428964 
L 200.825963 122.489625 
L 201.886623 121.428964 
L 200.825963 120.368304 
L 201.886623 119.307644 
L 200.825963 118.246984 
L 199.765303 119.307644 
L 198.704642 118.246984 
L 197.643982 119.307644 
L 198.704642 120.368304 
L 197.643982 121.428964 
z
" clip-path="url(#p0df283a62a)" style="fill: #88ccee; fill-opacity: 0.6; stroke: #ffffff; stroke-opacity: 0.6; stroke-width: 0.339411"/>
    <path d="M 88.264263 136.203151 
L 89.324923 135.142491 
L 90.385583 136.203151 
L 91.446243 135.142491 
L 90.385583 134.081831 
L 91.446243 133.021171 
L 90.385583 131.960511 
L 89.324923 133.021171 
L 88.264263 131.960511 
L 87.203603 133.021171 
L 88.264263 134.081831 
L 87.203603 135.142491 
z
" clip-path="url(#p0df283a62a)" style="fill: #88ccee; fill-opacity: 0.6; stroke: #ffffff; stroke-opacity: 0.6; stroke-width: 0.339411"/>
    <path d="M 85.053627 129.785631 
L 86.114288 128.724971 
L 87.174948 129.785631 
L 88.235608 128.724971 
L 87.174948 127.664311 
L 88.235608 126.603651 
L 87.174948 125.542991 
L 86.114288 126.603651 
L 85.053627 125.542991 
L 83.992967 126.603651 
L 85.053627 127.664311 
L 83.992967 128.724971 
z
" clip-path="url(#p0df283a62a)" style="fill: #88ccee; fill-opacity: 0.6; stroke: #ffffff; stroke-opacity: 0.6; stroke-width: 0.339411"/>
    <path d="M 83.495317 131.5803 
L 84.555977 130.51964 
L 85.616637 131.5803 
L 86.677298 130.51964 
L 85.616637 129.45898 
L 86.677298 128.39832 
L 85.616637 127.33766 
L 84.555977 128.39832 
L 83.495317 127.33766 
L 82.434657 128.39832 
L 83.495317 129.45898 
L 82.434657 130.51964 
z
" clip-path="url(#p0df283a62a)" style="fill: #88ccee; fill-opacity: 0.6; stroke: #ffffff; stroke-opacity: 0.6; stroke-width: 0.339411"/>
    <path d="M 140.954875 79.380934 
L 142.015535 78.320273 
L 143.076195 79.380934 
L 144.136856 78.320273 
L 143.076195 77.259613 
L 144.136856 76.198953 
L 143.076195 75.138293 
L 142.015535 76.198953 
L 140.954875 75.138293 
L 139.894215 76.198953 
L 140.954875 77.259613 
L 139.894215 78.320273 
z
" clip-path="url(#p0df283a62a)" style="fill: #88ccee; fill-opacity: 0.6; stroke: #ffffff; stroke-opacity: 0.6; stroke-width: 0.339411"/>
    <path d="M 88.298979 137.202392 
L 89.359639 136.141732 
L 90.4203 137.202392 
L 91.48096 136.141732 
L 90.4203 135.081072 
L 91.48096 134.020411 
L 90.4203 132.959751 
L 89.359639 134.020411 
L 88.298979 132.959751 
L 87.238319 134.020411 
L 88.298979 135.081072 
L 87.238319 136.141732 
z
" clip-path="url(#p0df283a62a)" style="fill: #88ccee; fill-opacity: 0.6; stroke: #ffffff; stroke-opacity: 0.6; stroke-width: 0.339411"/>
    <path d="M 86.426939 142.807984 
L 87.487599 141.747324 
L 88.54826 142.807984 
L 89.60892 141.747324 
L 88.54826 140.686663 
L 89.60892 139.626003 
L 88.54826 138.565343 
L 87.487599 139.626003 
L 86.426939 138.565343 
L 85.366279 139.626003 
L 86.426939 140.686663 
L 85.366279 141.747324 
z
" clip-path="url(#p0df283a62a)" style="fill: #88ccee; fill-opacity: 0.6; stroke: #ffffff; stroke-opacity: 0.6; stroke-width: 0.339411"/>
    <path d="M 89.505842 141.382873 
L 90.566502 140.322212 
L 91.627163 141.382873 
L 92.687823 140.322212 
L 91.627163 139.261552 
L 92.687823 138.200892 
L 91.627163 137.140232 
L 90.566502 138.200892 
L 89.505842 137.140232 
L 88.445182 138.200892 
L 89.505842 139.261552 
L 88.445182 140.322212 
z
" clip-path="url(#p0df283a62a)" style="fill: #88ccee; fill-opacity: 0.6; stroke: #ffffff; stroke-opacity: 0.6; stroke-width: 0.339411"/>
    <path d="M 74.717672 126.839686 
L 75.778332 125.779026 
L 76.838992 126.839686 
L 77.899652 125.779026 
L 76.838992 124.718366 
L 77.899652 123.657706 
L 76.838992 122.597045 
L 75.778332 123.657706 
L 74.717672 122.597045 
L 73.657012 123.657706 
L 74.717672 124.718366 
L 73.657012 125.779026 
z
" clip-path="url(#p0df283a62a)" style="fill: #88ccee; fill-opacity: 0.6; stroke: #ffffff; stroke-opacity: 0.6; stroke-width: 0.339411"/>
    <path d="M 85.181763 130.62775 
L 86.242423 129.567089 
L 87.303083 130.62775 
L 88.363743 129.567089 
L 87.303083 128.506429 
L 88.363743 127.445769 
L 87.303083 126.385109 
L 86.242423 127.445769 
L 85.181763 126.385109 
L 84.121102 127.445769 
L 85.181763 128.506429 
L 84.121102 129.567089 
z
" clip-path="url(#p0df283a62a)" style="fill: #88ccee; fill-opacity: 0.6; stroke: #ffffff; stroke-opacity: 0.6; stroke-width: 0.339411"/>
    <path d="M 83.744914 135.540897 
L 84.805574 134.480237 
L 85.866234 135.540897 
L 86.926894 134.480237 
L 85.866234 133.419577 
L 86.926894 132.358917 
L 85.866234 131.298257 
L 84.805574 132.358917 
L 83.744914 131.298257 
L 82.684253 132.358917 
L 83.744914 133.419577 
L 82.684253 134.480237 
z
" clip-path="url(#p0df283a62a)" style="fill: #88ccee; fill-opacity: 0.6; stroke: #ffffff; stroke-opacity: 0.6; stroke-width: 0.339411"/>
    <path d="M 83.643036 132.547608 
L 84.703696 131.486948 
L 85.764356 132.547608 
L 86.825017 131.486948 
L 85.764356 130.426288 
L 86.825017 129.365628 
L 85.764356 128.304968 
L 84.703696 129.365628 
L 83.643036 128.304968 
L 82.582376 129.365628 
L 83.643036 130.426288 
L 82.582376 131.486948 
z
" clip-path="url(#p0df283a62a)" style="fill: #88ccee; fill-opacity: 0.6; stroke: #ffffff; stroke-opacity: 0.6; stroke-width: 0.339411"/>
    <path d="M 201.927199 128.75838 
L 202.987859 127.69772 
L 204.048519 128.75838 
L 205.109179 127.69772 
L 204.048519 126.63706 
L 205.109179 125.5764 
L 204.048519 124.515739 
L 202.987859 125.5764 
L 201.927199 124.515739 
L 200.866539 125.5764 
L 201.927199 126.63706 
L 200.866539 127.69772 
z
" clip-path="url(#p0df283a62a)" style="fill: #88ccee; fill-opacity: 0.6; stroke: #ffffff; stroke-opacity: 0.6; stroke-width: 0.339411"/>
    <path d="M 88.09647 138.915089 
L 89.15713 137.854429 
L 90.21779 138.915089 
L 91.27845 137.854429 
L 90.21779 136.793769 
L 91.27845 135.733109 
L 90.21779 134.672448 
L 89.15713 135.733109 
L 88.09647 134.672448 
L 87.03581 135.733109 
L 88.09647 136.793769 
L 87.03581 137.854429 
z
" clip-path="url(#p0df283a62a)" style="fill: #88ccee; fill-opacity: 0.6; stroke: #ffffff; stroke-opacity: 0.6; stroke-width: 0.339411"/>
    <path d="M 151.717041 53.972914 
L 152.777702 52.912254 
L 153.838362 53.972914 
L 154.899022 52.912254 
L 153.838362 51.851594 
L 154.899022 50.790934 
L 153.838362 49.730274 
L 152.777702 50.790934 
L 151.717041 49.730274 
L 150.656381 50.790934 
L 151.717041 51.851594 
L 150.656381 52.912254 
z
" clip-path="url(#p0df283a62a)" style="fill: #88ccee; fill-opacity: 0.6; stroke: #ffffff; stroke-opacity: 0.6; stroke-width: 0.339411"/>
    <path d="M 86.676477 143.219545 
L 87.737137 142.158885 
L 88.797797 143.219545 
L 89.858457 142.158885 
L 88.797797 141.098225 
L 89.858457 140.037565 
L 88.797797 138.976904 
L 87.737137 140.037565 
L 86.676477 138.976904 
L 85.615816 140.037565 
L 86.676477 141.098225 
L 85.615816 142.158885 
z
" clip-path="url(#p0df283a62a)" style="fill: #88ccee; fill-opacity: 0.6; stroke: #ffffff; stroke-opacity: 0.6; stroke-width: 0.339411"/>
    <path d="M 142.532953 91.464433 
L 143.593614 90.403773 
L 144.654274 91.464433 
L 145.714934 90.403773 
L 144.654274 89.343113 
L 145.714934 88.282452 
L 144.654274 87.221792 
L 143.593614 88.282452 
L 142.532953 87.221792 
L 141.472293 88.282452 
L 142.532953 89.343113 
L 141.472293 90.403773 
z
" clip-path="url(#p0df283a62a)" style="fill: #88ccee; fill-opacity: 0.6; stroke: #ffffff; stroke-opacity: 0.6; stroke-width: 0.339411"/>
    <path d="M 201.483499 134.583337 
L 202.544159 133.522677 
L 203.604819 134.583337 
L 204.665479 133.522677 
L 203.604819 132.462017 
L 204.665479 131.401357 
L 203.604819 130.340696 
L 202.544159 131.401357 
L 201.483499 130.340696 
L 200.422838 131.401357 
L 201.483499 132.462017 
L 200.422838 133.522677 
z
" clip-path="url(#p0df283a62a)" style="fill: #88ccee; fill-opacity: 0.6; stroke: #ffffff; stroke-opacity: 0.6; stroke-width: 0.339411"/>
    <path d="M 91.024661 133.140339 
L 92.085321 132.079679 
L 93.145981 133.140339 
L 94.206642 132.079679 
L 93.145981 131.019018 
L 94.206642 129.958358 
L 93.145981 128.897698 
L 92.085321 129.958358 
L 91.024661 128.897698 
L 89.964001 129.958358 
L 91.024661 131.019018 
L 89.964001 132.079679 
z
" clip-path="url(#p0df283a62a)" style="fill: #88ccee; fill-opacity: 0.6; stroke: #ffffff; stroke-opacity: 0.6; stroke-width: 0.339411"/>
    <path d="M 93.390135 141.228058 
L 94.450796 140.167398 
L 95.511456 141.228058 
L 96.572116 140.167398 
L 95.511456 139.106738 
L 96.572116 138.046078 
L 95.511456 136.985417 
L 94.450796 138.046078 
L 93.390135 136.985417 
L 92.329475 138.046078 
L 93.390135 139.106738 
L 92.329475 140.167398 
z
" clip-path="url(#p0df283a62a)" style="fill: #88ccee; fill-opacity: 0.6; stroke: #ffffff; stroke-opacity: 0.6; stroke-width: 0.339411"/>
    <path d="M 79.770666 136.561126 
L 80.831326 135.500466 
L 81.891986 136.561126 
L 82.952646 135.500466 
L 81.891986 134.439806 
L 82.952646 133.379146 
L 81.891986 132.318485 
L 80.831326 133.379146 
L 79.770666 132.318485 
L 78.710006 133.379146 
L 79.770666 134.439806 
L 78.710006 135.500466 
z
" clip-path="url(#p0df283a62a)" style="fill: #88ccee; fill-opacity: 0.6; stroke: #ffffff; stroke-opacity: 0.6; stroke-width: 0.339411"/>
    <path d="M 146.174617 54.778883 
L 147.235277 53.718222 
L 148.295937 54.778883 
L 149.356597 53.718222 
L 148.295937 52.657562 
L 149.356597 51.596902 
L 148.295937 50.536242 
L 147.235277 51.596902 
L 146.174617 50.536242 
L 145.113957 51.596902 
L 146.174617 52.657562 
L 145.113957 53.718222 
z
" clip-path="url(#p0df283a62a)" style="fill: #88ccee; fill-opacity: 0.6; stroke: #ffffff; stroke-opacity: 0.6; stroke-width: 0.339411"/>
    <path d="M 93.919832 133.850636 
L 94.980493 132.789976 
L 96.041153 133.850636 
L 97.101813 132.789976 
L 96.041153 131.729316 
L 97.101813 130.668656 
L 96.041153 129.607996 
L 94.980493 130.668656 
L 93.919832 129.607996 
L 92.859172 130.668656 
L 93.919832 131.729316 
L 92.859172 132.789976 
z
" clip-path="url(#p0df283a62a)" style="fill: #88ccee; fill-opacity: 0.6; stroke: #ffffff; stroke-opacity: 0.6; stroke-width: 0.339411"/>
    <path d="M 82.610508 136.564371 
L 83.671168 135.503711 
L 84.731828 136.564371 
L 85.792489 135.503711 
L 84.731828 134.443051 
L 85.792489 133.382391 
L 84.731828 132.321731 
L 83.671168 133.382391 
L 82.610508 132.321731 
L 81.549848 133.382391 
L 82.610508 134.443051 
L 81.549848 135.503711 
z
" clip-path="url(#p0df283a62a)" style="fill: #88ccee; fill-opacity: 0.6; stroke: #ffffff; stroke-opacity: 0.6; stroke-width: 0.339411"/>
    <path d="M 88.241255 133.096117 
L 89.301915 132.035457 
L 90.362575 133.096117 
L 91.423235 132.035457 
L 90.362575 130.974797 
L 91.423235 129.914137 
L 90.362575 128.853477 
L 89.301915 129.914137 
L 88.241255 128.853477 
L 87.180595 129.914137 
L 88.241255 130.974797 
L 87.180595 132.035457 
z
" clip-path="url(#p0df283a62a)" style="fill: #88ccee; fill-opacity: 0.6; stroke: #ffffff; stroke-opacity: 0.6; stroke-width: 0.339411"/>
    <path d="M 87.293429 131.585985 
L 88.35409 130.525325 
L 89.41475 131.585985 
L 90.47541 130.525325 
L 89.41475 129.464664 
L 90.47541 128.404004 
L 89.41475 127.343344 
L 88.35409 128.404004 
L 87.293429 127.343344 
L 86.232769 128.404004 
L 87.293429 129.464664 
L 86.232769 130.525325 
z
" clip-path="url(#p0df283a62a)" style="fill: #88ccee; fill-opacity: 0.6; stroke: #ffffff; stroke-opacity: 0.6; stroke-width: 0.339411"/>
    <path d="M 85.255337 130.154721 
L 86.315997 129.094061 
L 87.376657 130.154721 
L 88.437317 129.094061 
L 87.376657 128.033401 
L 88.437317 126.972741 
L 87.376657 125.91208 
L 86.315997 126.972741 
L 85.255337 125.91208 
L 84.194676 126.972741 
L 85.255337 128.033401 
L 84.194676 129.094061 
z
" clip-path="url(#p0df283a62a)" style="fill: #88ccee; fill-opacity: 0.6; stroke: #ffffff; stroke-opacity: 0.6; stroke-width: 0.339411"/>
    <path d="M 93.595811 133.76533 
L 94.656471 132.70467 
L 95.717132 133.76533 
L 96.777792 132.70467 
L 95.717132 131.64401 
L 96.777792 130.58335 
L 95.717132 129.52269 
L 94.656471 130.58335 
L 93.595811 129.52269 
L 92.535151 130.58335 
L 93.595811 131.64401 
L 92.535151 132.70467 
z
" clip-path="url(#p0df283a62a)" style="fill: #88ccee; fill-opacity: 0.6; stroke: #ffffff; stroke-opacity: 0.6; stroke-width: 0.339411"/>
    <path d="M 188.718323 129.599076 
L 189.778983 128.538415 
L 190.839643 129.599076 
L 191.900304 128.538415 
L 190.839643 127.477755 
L 191.900304 126.417095 
L 190.839643 125.356435 
L 189.778983 126.417095 
L 188.718323 125.356435 
L 187.657663 126.417095 
L 188.718323 127.477755 
L 187.657663 128.538415 
z
" clip-path="url(#p0df283a62a)" style="fill: #88ccee; fill-opacity: 0.6; stroke: #ffffff; stroke-opacity: 0.6; stroke-width: 0.339411"/>
    <path d="M 78.165372 135.206109 
L 79.226032 134.145448 
L 80.286692 135.206109 
L 81.347353 134.145448 
L 80.286692 133.084788 
L 81.347353 132.024128 
L 80.286692 130.963468 
L 79.226032 132.024128 
L 78.165372 130.963468 
L 77.104712 132.024128 
L 78.165372 133.084788 
L 77.104712 134.145448 
z
" clip-path="url(#p0df283a62a)" style="fill: #88ccee; fill-opacity: 0.6; stroke: #ffffff; stroke-opacity: 0.6; stroke-width: 0.339411"/>
    <path d="M 85.210961 129.644187 
L 86.271621 128.583527 
L 87.332281 129.644187 
L 88.392941 128.583527 
L 87.332281 127.522867 
L 88.392941 126.462207 
L 87.332281 125.401546 
L 86.271621 126.462207 
L 85.210961 125.401546 
L 84.1503 126.462207 
L 85.210961 127.522867 
L 84.1503 128.583527 
z
" clip-path="url(#p0df283a62a)" style="fill: #88ccee; fill-opacity: 0.6; stroke: #ffffff; stroke-opacity: 0.6; stroke-width: 0.339411"/>
    <path d="M 79.939507 135.9582 
L 81.000167 134.89754 
L 82.060827 135.9582 
L 83.121488 134.89754 
L 82.060827 133.83688 
L 83.121488 132.776219 
L 82.060827 131.715559 
L 81.000167 132.776219 
L 79.939507 131.715559 
L 78.878847 132.776219 
L 79.939507 133.83688 
L 78.878847 134.89754 
z
" clip-path="url(#p0df283a62a)" style="fill: #88ccee; fill-opacity: 0.6; stroke: #ffffff; stroke-opacity: 0.6; stroke-width: 0.339411"/>
    <path d="M 90.088381 134.648516 
L 91.149042 133.587856 
L 92.209702 134.648516 
L 93.270362 133.587856 
L 92.209702 132.527196 
L 93.270362 131.466536 
L 92.209702 130.405876 
L 91.149042 131.466536 
L 90.088381 130.405876 
L 89.027721 131.466536 
L 90.088381 132.527196 
L 89.027721 133.587856 
z
" clip-path="url(#p0df283a62a)" style="fill: #88ccee; fill-opacity: 0.6; stroke: #ffffff; stroke-opacity: 0.6; stroke-width: 0.339411"/>
    <path d="M 88.297225 135.555828 
L 89.357886 134.495168 
L 90.418546 135.555828 
L 91.479206 134.495168 
L 90.418546 133.434508 
L 91.479206 132.373848 
L 90.418546 131.313188 
L 89.357886 132.373848 
L 88.297225 131.313188 
L 87.236565 132.373848 
L 88.297225 133.434508 
L 87.236565 134.495168 
z
" clip-path="url(#p0df283a62a)" style="fill: #88ccee; fill-opacity: 0.6; stroke: #ffffff; stroke-opacity: 0.6; stroke-width: 0.339411"/>
    <path d="M 88.355788 126.184261 
L 89.416448 125.1236 
L 90.477108 126.184261 
L 91.537768 125.1236 
L 90.477108 124.06294 
L 91.537768 123.00228 
L 90.477108 121.94162 
L 89.416448 123.00228 
L 88.355788 121.94162 
L 87.295127 123.00228 
L 88.355788 124.06294 
L 87.295127 125.1236 
z
" clip-path="url(#p0df283a62a)" style="fill: #88ccee; fill-opacity: 0.6; stroke: #ffffff; stroke-opacity: 0.6; stroke-width: 0.339411"/>
   </g>
   <g id="matplotlib.axis_1">
    <g id="xtick_1">
     <g id="line2d_1">
      <defs>
       <path id="m658fc56d3d" d="M 0 0 
L 0 8 
" style="stroke: #000000"/>
      </defs>
      <g>
       <use xlink:href="#m658fc56d3d" x="92.633616" y="183.896063" style="stroke: #000000"/>
      </g>
     </g>
     <g id="text_1">
      <!-- 10 -->
      <g transform="translate(79.970804 204.514188) scale(0.12 -0.12)">
       <defs>
        <path id="DejaVuSans-2212" d="M 678 2272 
L 4684 2272 
L 4684 1741 
L 678 1741 
L 678 2272 
z
" transform="scale(0.015625)"/>
        <path id="DejaVuSans-31" d="M 794 531 
L 1825 531 
L 1825 4091 
L 703 3866 
L 703 4441 
L 1819 4666 
L 2450 4666 
L 2450 531 
L 3481 531 
L 3481 0 
L 794 0 
L 794 531 
z
" transform="scale(0.015625)"/>
        <path id="DejaVuSans-30" d="M 2034 4250 
Q 1547 4250 1301 3770 
Q 1056 3291 1056 2328 
Q 1056 1369 1301 889 
Q 1547 409 2034 409 
Q 2525 409 2770 889 
Q 3016 1369 3016 2328 
Q 3016 3291 2770 3770 
Q 2525 4250 2034 4250 
z
M 2034 4750 
Q 2819 4750 3233 4129 
Q 3647 3509 3647 2328 
Q 3647 1150 3233 529 
Q 2819 -91 2034 -91 
Q 1250 -91 836 529 
Q 422 1150 422 2328 
Q 422 3509 836 4129 
Q 1250 4750 2034 4750 
z
" transform="scale(0.015625)"/>
       </defs>
       <use xlink:href="#DejaVuSans-2212"/>
       <use xlink:href="#DejaVuSans-31" x="83.789062"/>
       <use xlink:href="#DejaVuSans-30" x="147.412109"/>
      </g>
     </g>
    </g>
    <g id="xtick_2">
     <g id="line2d_2">
      <g>
       <use xlink:href="#m658fc56d3d" x="142.976196" y="183.896063" style="stroke: #000000"/>
      </g>
     </g>
     <g id="text_2">
      <!-- 0 -->
      <g transform="translate(139.158696 204.514188) scale(0.12 -0.12)">
       <use xlink:href="#DejaVuSans-30"/>
      </g>
     </g>
    </g>
    <g id="xtick_3">
     <g id="line2d_3">
      <g>
       <use xlink:href="#m658fc56d3d" x="193.318776" y="183.896063" style="stroke: #000000"/>
      </g>
     </g>
     <g id="text_3">
      <!-- 10 -->
      <g transform="translate(185.683776 204.514188) scale(0.12 -0.12)">
       <use xlink:href="#DejaVuSans-31"/>
       <use xlink:href="#DejaVuSans-30" x="63.623047"/>
      </g>
     </g>
    </g>
    <g id="text_4">
     <!-- PC 1 (19.05%) -->
     <g transform="translate(103.012822 220.127938) scale(0.12 -0.12)">
      <defs>
       <path id="DejaVuSans-50" d="M 1259 4147 
L 1259 2394 
L 2053 2394 
Q 2494 2394 2734 2622 
Q 2975 2850 2975 3272 
Q 2975 3691 2734 3919 
Q 2494 4147 2053 4147 
L 1259 4147 
z
M 628 4666 
L 2053 4666 
Q 2838 4666 3239 4311 
Q 3641 3956 3641 3272 
Q 3641 2581 3239 2228 
Q 2838 1875 2053 1875 
L 1259 1875 
L 1259 0 
L 628 0 
L 628 4666 
z
" transform="scale(0.015625)"/>
       <path id="DejaVuSans-43" d="M 4122 4306 
L 4122 3641 
Q 3803 3938 3442 4084 
Q 3081 4231 2675 4231 
Q 1875 4231 1450 3742 
Q 1025 3253 1025 2328 
Q 1025 1406 1450 917 
Q 1875 428 2675 428 
Q 3081 428 3442 575 
Q 3803 722 4122 1019 
L 4122 359 
Q 3791 134 3420 21 
Q 3050 -91 2638 -91 
Q 1578 -91 968 557 
Q 359 1206 359 2328 
Q 359 3453 968 4101 
Q 1578 4750 2638 4750 
Q 3056 4750 3426 4639 
Q 3797 4528 4122 4306 
z
" transform="scale(0.015625)"/>
       <path id="DejaVuSans-20" transform="scale(0.015625)"/>
       <path id="DejaVuSans-28" d="M 1984 4856 
Q 1566 4138 1362 3434 
Q 1159 2731 1159 2009 
Q 1159 1288 1364 580 
Q 1569 -128 1984 -844 
L 1484 -844 
Q 1016 -109 783 600 
Q 550 1309 550 2009 
Q 550 2706 781 3412 
Q 1013 4119 1484 4856 
L 1984 4856 
z
" transform="scale(0.015625)"/>
       <path id="DejaVuSans-39" d="M 703 97 
L 703 672 
Q 941 559 1184 500 
Q 1428 441 1663 441 
Q 2288 441 2617 861 
Q 2947 1281 2994 2138 
Q 2813 1869 2534 1725 
Q 2256 1581 1919 1581 
Q 1219 1581 811 2004 
Q 403 2428 403 3163 
Q 403 3881 828 4315 
Q 1253 4750 1959 4750 
Q 2769 4750 3195 4129 
Q 3622 3509 3622 2328 
Q 3622 1225 3098 567 
Q 2575 -91 1691 -91 
Q 1453 -91 1209 -44 
Q 966 3 703 97 
z
M 1959 2075 
Q 2384 2075 2632 2365 
Q 2881 2656 2881 3163 
Q 2881 3666 2632 3958 
Q 2384 4250 1959 4250 
Q 1534 4250 1286 3958 
Q 1038 3666 1038 3163 
Q 1038 2656 1286 2365 
Q 1534 2075 1959 2075 
z
" transform="scale(0.015625)"/>
       <path id="DejaVuSans-2e" d="M 684 794 
L 1344 794 
L 1344 0 
L 684 0 
L 684 794 
z
" transform="scale(0.015625)"/>
       <path id="DejaVuSans-35" d="M 691 4666 
L 3169 4666 
L 3169 4134 
L 1269 4134 
L 1269 2991 
Q 1406 3038 1543 3061 
Q 1681 3084 1819 3084 
Q 2600 3084 3056 2656 
Q 3513 2228 3513 1497 
Q 3513 744 3044 326 
Q 2575 -91 1722 -91 
Q 1428 -91 1123 -41 
Q 819 9 494 109 
L 494 744 
Q 775 591 1075 516 
Q 1375 441 1709 441 
Q 2250 441 2565 725 
Q 2881 1009 2881 1497 
Q 2881 1984 2565 2268 
Q 2250 2553 1709 2553 
Q 1456 2553 1204 2497 
Q 953 2441 691 2322 
L 691 4666 
z
" transform="scale(0.015625)"/>
       <path id="DejaVuSans-25" d="M 4653 2053 
Q 4381 2053 4226 1822 
Q 4072 1591 4072 1178 
Q 4072 772 4226 539 
Q 4381 306 4653 306 
Q 4919 306 5073 539 
Q 5228 772 5228 1178 
Q 5228 1588 5073 1820 
Q 4919 2053 4653 2053 
z
M 4653 2450 
Q 5147 2450 5437 2106 
Q 5728 1763 5728 1178 
Q 5728 594 5436 251 
Q 5144 -91 4653 -91 
Q 4153 -91 3862 251 
Q 3572 594 3572 1178 
Q 3572 1766 3864 2108 
Q 4156 2450 4653 2450 
z
M 1428 4353 
Q 1159 4353 1004 4120 
Q 850 3888 850 3481 
Q 850 3069 1003 2837 
Q 1156 2606 1428 2606 
Q 1700 2606 1854 2837 
Q 2009 3069 2009 3481 
Q 2009 3884 1853 4118 
Q 1697 4353 1428 4353 
z
M 4250 4750 
L 4750 4750 
L 1831 -91 
L 1331 -91 
L 4250 4750 
z
M 1428 4750 
Q 1922 4750 2215 4408 
Q 2509 4066 2509 3481 
Q 2509 2891 2217 2550 
Q 1925 2209 1428 2209 
Q 931 2209 642 2551 
Q 353 2894 353 3481 
Q 353 4063 643 4406 
Q 934 4750 1428 4750 
z
" transform="scale(0.015625)"/>
       <path id="DejaVuSans-29" d="M 513 4856 
L 1013 4856 
Q 1481 4119 1714 3412 
Q 1947 2706 1947 2009 
Q 1947 1309 1714 600 
Q 1481 -109 1013 -844 
L 513 -844 
Q 928 -128 1133 580 
Q 1338 1288 1338 2009 
Q 1338 2731 1133 3434 
Q 928 4138 513 4856 
z
" transform="scale(0.015625)"/>
      </defs>
      <use xlink:href="#DejaVuSans-50"/>
      <use xlink:href="#DejaVuSans-43" x="60.302734"/>
      <use xlink:href="#DejaVuSans-20" x="130.126953"/>
      <use xlink:href="#DejaVuSans-31" x="161.914062"/>
      <use xlink:href="#DejaVuSans-20" x="225.537109"/>
      <use xlink:href="#DejaVuSans-28" x="257.324219"/>
      <use xlink:href="#DejaVuSans-31" x="296.337891"/>
      <use xlink:href="#DejaVuSans-39" x="359.960938"/>
      <use xlink:href="#DejaVuSans-2e" x="423.583984"/>
      <use xlink:href="#DejaVuSans-30" x="455.371094"/>
      <use xlink:href="#DejaVuSans-35" x="518.994141"/>
      <use xlink:href="#DejaVuSans-25" x="582.617188"/>
      <use xlink:href="#DejaVuSans-29" x="677.636719"/>
     </g>
    </g>
   </g>
   <g id="matplotlib.axis_2">
    <g id="ytick_1">
     <g id="line2d_4">
      <defs>
       <path id="m2f7935c951" d="M 0 0 
L -8 0 
" style="stroke: #000000"/>
      </defs>
      <g>
       <use xlink:href="#m2f7935c951" x="64.037638" y="155.300085" style="stroke: #000000"/>
      </g>
     </g>
     <g id="text_5">
      <!-- 10 -->
      <g transform="translate(27.212013 159.859147) scale(0.12 -0.12)">
       <use xlink:href="#DejaVuSans-2212"/>
       <use xlink:href="#DejaVuSans-31" x="83.789062"/>
       <use xlink:href="#DejaVuSans-30" x="147.412109"/>
      </g>
     </g>
    </g>
    <g id="ytick_2">
     <g id="line2d_5">
      <g>
       <use xlink:href="#m2f7935c951" x="64.037638" y="104.957505" style="stroke: #000000"/>
      </g>
     </g>
     <g id="text_6">
      <!-- 0 -->
      <g transform="translate(44.902638 109.516567) scale(0.12 -0.12)">
       <use xlink:href="#DejaVuSans-30"/>
      </g>
     </g>
    </g>
    <g id="ytick_3">
     <g id="line2d_6">
      <g>
       <use xlink:href="#m2f7935c951" x="64.037638" y="54.614924" style="stroke: #000000"/>
      </g>
     </g>
     <g id="text_7">
      <!-- 10 -->
      <g transform="translate(37.267638 59.173987) scale(0.12 -0.12)">
       <use xlink:href="#DejaVuSans-31"/>
       <use xlink:href="#DejaVuSans-30" x="63.623047"/>
      </g>
     </g>
    </g>
    <g id="text_8">
     <!-- PC 2 (11.32%) -->
     <g transform="translate(20.716388 144.920878) rotate(-90) scale(0.12 -0.12)">
      <defs>
       <path id="DejaVuSans-32" d="M 1228 531 
L 3431 531 
L 3431 0 
L 469 0 
L 469 531 
Q 828 903 1448 1529 
Q 2069 2156 2228 2338 
Q 2531 2678 2651 2914 
Q 2772 3150 2772 3378 
Q 2772 3750 2511 3984 
Q 2250 4219 1831 4219 
Q 1534 4219 1204 4116 
Q 875 4013 500 3803 
L 500 4441 
Q 881 4594 1212 4672 
Q 1544 4750 1819 4750 
Q 2544 4750 2975 4387 
Q 3406 4025 3406 3419 
Q 3406 3131 3298 2873 
Q 3191 2616 2906 2266 
Q 2828 2175 2409 1742 
Q 1991 1309 1228 531 
z
" transform="scale(0.015625)"/>
       <path id="DejaVuSans-33" d="M 2597 2516 
Q 3050 2419 3304 2112 
Q 3559 1806 3559 1356 
Q 3559 666 3084 287 
Q 2609 -91 1734 -91 
Q 1441 -91 1130 -33 
Q 819 25 488 141 
L 488 750 
Q 750 597 1062 519 
Q 1375 441 1716 441 
Q 2309 441 2620 675 
Q 2931 909 2931 1356 
Q 2931 1769 2642 2001 
Q 2353 2234 1838 2234 
L 1294 2234 
L 1294 2753 
L 1863 2753 
Q 2328 2753 2575 2939 
Q 2822 3125 2822 3475 
Q 2822 3834 2567 4026 
Q 2313 4219 1838 4219 
Q 1578 4219 1281 4162 
Q 984 4106 628 3988 
L 628 4550 
Q 988 4650 1302 4700 
Q 1616 4750 1894 4750 
Q 2613 4750 3031 4423 
Q 3450 4097 3450 3541 
Q 3450 3153 3228 2886 
Q 3006 2619 2597 2516 
z
" transform="scale(0.015625)"/>
      </defs>
      <use xlink:href="#DejaVuSans-50"/>
      <use xlink:href="#DejaVuSans-43" x="60.302734"/>
      <use xlink:href="#DejaVuSans-20" x="130.126953"/>
      <use xlink:href="#DejaVuSans-32" x="161.914062"/>
      <use xlink:href="#DejaVuSans-20" x="225.537109"/>
      <use xlink:href="#DejaVuSans-28" x="257.324219"/>
      <use xlink:href="#DejaVuSans-31" x="296.337891"/>
      <use xlink:href="#DejaVuSans-31" x="359.960938"/>
      <use xlink:href="#DejaVuSans-2e" x="423.583984"/>
      <use xlink:href="#DejaVuSans-33" x="455.371094"/>
      <use xlink:href="#DejaVuSans-32" x="518.994141"/>
      <use xlink:href="#DejaVuSans-25" x="582.617188"/>
      <use xlink:href="#DejaVuSans-29" x="677.636719"/>
     </g>
    </g>
   </g>
   <g id="patch_3">
    <path d="M 64.037638 183.896063 
L 64.037638 19.948819 
" style="fill: none; stroke: #000000; stroke-width: 2; stroke-linejoin: miter; stroke-linecap: square"/>
   </g>
   <g id="patch_4">
    <path d="M 64.037638 183.896063 
L 227.984882 183.896063 
" style="fill: none; stroke: #000000; stroke-width: 2; stroke-linejoin: miter; stroke-linecap: square"/>
   </g>
  </g>
 </g>
 <defs>
  <clipPath id="p0df283a62a">
   <rect x="64.037638" y="19.948819" width="163.947244" height="163.947244"/>
  </clipPath>
 </defs>
</svg>
