<?xml version="1.0" encoding="utf-8" standalone="no"?>
<!DOCTYPE svg PUBLIC "-//W3C//DTD SVG 1.1//EN"
  "http://www.w3.org/Graphics/SVG/1.1/DTD/svg11.dtd">
<svg xmlns:xlink="http://www.w3.org/1999/xlink" width="240.944882pt" height="240.944882pt" viewBox="0 0 240.944882 240.944882" xmlns="http://www.w3.org/2000/svg" version="1.1">
 <metadata>
  <rdf:RDF xmlns:dc="http://purl.org/dc/elements/1.1/" xmlns:cc="http://creativecommons.org/ns#" xmlns:rdf="http://www.w3.org/1999/02/22-rdf-syntax-ns#">
   <cc:Work>
    <dc:type rdf:resource="http://purl.org/dc/dcmitype/StillImage"/>
    <dc:date>2025-02-24T15:44:12.703972</dc:date>
    <dc:format>image/svg+xml</dc:format>
    <dc:creator>
     <cc:Agent>
      <dc:title>Matplotlib v3.6.2, https://matplotlib.org/</dc:title>
     </cc:Agent>
    </dc:creator>
   </cc:Work>
  </rdf:RDF>
 </metadata>
 <defs>
  <style type="text/css">*{stroke-linejoin: round; stroke-linecap: butt}</style>
 </defs>
 <g id="figure_1">
  <g id="patch_1">
   <path d="M 0 240.944882 
L 240.944882 240.944882 
L 240.944882 0 
L 0 0 
L 0 240.944882 
z
" style="fill: none"/>
  </g>
  <g id="axes_1">
   <g id="patch_2">
    <path d="M 53.957638 188.936063 
L 227.984882 188.936063 
L 227.984882 14.908819 
L 53.957638 14.908819 
L 53.957638 188.936063 
z
" style="fill: none"/>
   </g>
   <g id="PathCollection_1">
    <path d="M 175.077988 138.457195 
L 176.877988 135.457195 
L 175.077988 132.457195 
L 173.277988 135.457195 
z
" clip-path="url(#p3caa25a26e)" style="fill: #332288; fill-opacity: 0.6; stroke: #ffffff; stroke-opacity: 0.6; stroke-width: 0.339411"/>
    <path d="M 122.082234 108.626242 
L 123.882234 105.626242 
L 122.082234 102.626242 
L 120.282234 105.626242 
z
" clip-path="url(#p3caa25a26e)" style="fill: #332288; fill-opacity: 0.6; stroke: #ffffff; stroke-opacity: 0.6; stroke-width: 0.339411"/>
    <path d="M 186.749722 172.612176 
L 188.549722 169.612176 
L 186.749722 166.612176 
L 184.949722 169.612176 
z
" clip-path="url(#p3caa25a26e)" style="fill: #332288; fill-opacity: 0.6; stroke: #ffffff; stroke-opacity: 0.6; stroke-width: 0.339411"/>
    <path d="M 158.144704 113.045981 
L 159.944704 110.045981 
L 158.144704 107.045981 
L 156.344704 110.045981 
z
" clip-path="url(#p3caa25a26e)" style="fill: #332288; fill-opacity: 0.6; stroke: #ffffff; stroke-opacity: 0.6; stroke-width: 0.339411"/>
    <path d="M 197.738201 164.70929 
L 199.538201 161.70929 
L 197.738201 158.70929 
L 195.938201 161.70929 
z
" clip-path="url(#p3caa25a26e)" style="fill: #332288; fill-opacity: 0.6; stroke: #ffffff; stroke-opacity: 0.6; stroke-width: 0.339411"/>
    <path d="M 150.434873 115.131083 
L 152.234873 112.131083 
L 150.434873 109.131083 
L 148.634873 112.131083 
z
" clip-path="url(#p3caa25a26e)" style="fill: #332288; fill-opacity: 0.6; stroke: #ffffff; stroke-opacity: 0.6; stroke-width: 0.339411"/>
    <path d="M 129.092274 108.7164 
L 130.892274 105.7164 
L 129.092274 102.7164 
L 127.292274 105.7164 
z
" clip-path="url(#p3caa25a26e)" style="fill: #332288; fill-opacity: 0.6; stroke: #ffffff; stroke-opacity: 0.6; stroke-width: 0.339411"/>
    <path d="M 184.57689 137.229378 
L 186.37689 134.229378 
L 184.57689 131.229378 
L 182.77689 134.229378 
z
" clip-path="url(#p3caa25a26e)" style="fill: #332288; fill-opacity: 0.6; stroke: #ffffff; stroke-opacity: 0.6; stroke-width: 0.339411"/>
    <path d="M 184.83645 143.305386 
L 186.63645 140.305386 
L 184.83645 137.305386 
L 183.03645 140.305386 
z
" clip-path="url(#p3caa25a26e)" style="fill: #332288; fill-opacity: 0.6; stroke: #ffffff; stroke-opacity: 0.6; stroke-width: 0.339411"/>
    <path d="M 194.811342 167.138864 
L 196.611342 164.138864 
L 194.811342 161.138864 
L 193.011342 164.138864 
z
" clip-path="url(#p3caa25a26e)" style="fill: #332288; fill-opacity: 0.6; stroke: #ffffff; stroke-opacity: 0.6; stroke-width: 0.339411"/>
    <path d="M 186.599328 169.932567 
L 188.399328 166.932567 
L 186.599328 163.932567 
L 184.799328 166.932567 
z
" clip-path="url(#p3caa25a26e)" style="fill: #332288; fill-opacity: 0.6; stroke: #ffffff; stroke-opacity: 0.6; stroke-width: 0.339411"/>
    <path d="M 181.021717 178.520981 
L 182.821717 175.520981 
L 181.021717 172.520981 
L 179.221717 175.520981 
z
" clip-path="url(#p3caa25a26e)" style="fill: #332288; fill-opacity: 0.6; stroke: #ffffff; stroke-opacity: 0.6; stroke-width: 0.339411"/>
    <path d="M 172.901606 138.466013 
L 174.701606 135.466013 
L 172.901606 132.466013 
L 171.101606 135.466013 
z
" clip-path="url(#p3caa25a26e)" style="fill: #332288; fill-opacity: 0.6; stroke: #ffffff; stroke-opacity: 0.6; stroke-width: 0.339411"/>
    <path d="M 124.290953 107.046289 
L 126.090953 104.046289 
L 124.290953 101.046289 
L 122.490953 104.046289 
z
" clip-path="url(#p3caa25a26e)" style="fill: #332288; fill-opacity: 0.6; stroke: #ffffff; stroke-opacity: 0.6; stroke-width: 0.339411"/>
    <path d="M 199.672451 168.898978 
L 201.472451 165.898978 
L 199.672451 162.898978 
L 197.872451 165.898978 
z
" clip-path="url(#p3caa25a26e)" style="fill: #332288; fill-opacity: 0.6; stroke: #ffffff; stroke-opacity: 0.6; stroke-width: 0.339411"/>
    <path d="M 201.448425 163.470296 
L 203.248425 160.470296 
L 201.448425 157.470296 
L 199.648425 160.470296 
z
" clip-path="url(#p3caa25a26e)" style="fill: #332288; fill-opacity: 0.6; stroke: #ffffff; stroke-opacity: 0.6; stroke-width: 0.339411"/>
    <path d="M 196.225396 166.961047 
L 198.025396 163.961047 
L 196.225396 160.961047 
L 194.425396 163.961047 
z
" clip-path="url(#p3caa25a26e)" style="fill: #332288; fill-opacity: 0.6; stroke: #ffffff; stroke-opacity: 0.6; stroke-width: 0.339411"/>
    <path d="M 122.96836 107.861726 
L 124.76836 104.861726 
L 122.96836 101.861726 
L 121.16836 104.861726 
z
" clip-path="url(#p3caa25a26e)" style="fill: #332288; fill-opacity: 0.6; stroke: #ffffff; stroke-opacity: 0.6; stroke-width: 0.339411"/>
    <path d="M 185.799907 170.309328 
L 187.599907 167.309328 
L 185.799907 164.309328 
L 183.999907 167.309328 
z
" clip-path="url(#p3caa25a26e)" style="fill: #332288; fill-opacity: 0.6; stroke: #ffffff; stroke-opacity: 0.6; stroke-width: 0.339411"/>
    <path d="M 129.811316 108.538798 
L 131.611316 105.538798 
L 129.811316 102.538798 
L 128.011316 105.538798 
z
" clip-path="url(#p3caa25a26e)" style="fill: #332288; fill-opacity: 0.6; stroke: #ffffff; stroke-opacity: 0.6; stroke-width: 0.339411"/>
    <path d="M 130.908095 109.411605 
L 132.708095 106.411605 
L 130.908095 103.411605 
L 129.108095 106.411605 
z
" clip-path="url(#p3caa25a26e)" style="fill: #332288; fill-opacity: 0.6; stroke: #ffffff; stroke-opacity: 0.6; stroke-width: 0.339411"/>
    <path d="M 188.336224 167.200466 
L 190.136224 164.200466 
L 188.336224 161.200466 
L 186.536224 164.200466 
z
" clip-path="url(#p3caa25a26e)" style="fill: #332288; fill-opacity: 0.6; stroke: #ffffff; stroke-opacity: 0.6; stroke-width: 0.339411"/>
    <path d="M 184.168541 167.387618 
L 185.968541 164.387618 
L 184.168541 161.387618 
L 182.368541 164.387618 
z
" clip-path="url(#p3caa25a26e)" style="fill: #332288; fill-opacity: 0.6; stroke: #ffffff; stroke-opacity: 0.6; stroke-width: 0.339411"/>
    <path d="M 124.174943 104.050104 
L 125.974943 101.050104 
L 124.174943 98.050104 
L 122.374943 101.050104 
z
" clip-path="url(#p3caa25a26e)" style="fill: #332288; fill-opacity: 0.6; stroke: #ffffff; stroke-opacity: 0.6; stroke-width: 0.339411"/>
    <path d="M 181.807723 177.464312 
L 183.607723 174.464312 
L 181.807723 171.464312 
L 180.007723 174.464312 
z
" clip-path="url(#p3caa25a26e)" style="fill: #332288; fill-opacity: 0.6; stroke: #ffffff; stroke-opacity: 0.6; stroke-width: 0.339411"/>
    <path d="M 197.720884 170.110588 
L 199.520884 167.110588 
L 197.720884 164.110588 
L 195.920884 167.110588 
z
" clip-path="url(#p3caa25a26e)" style="fill: #332288; fill-opacity: 0.6; stroke: #ffffff; stroke-opacity: 0.6; stroke-width: 0.339411"/>
    <path d="M 141.958177 114.268228 
L 143.758177 111.268228 
L 141.958177 108.268228 
L 140.158177 111.268228 
z
" clip-path="url(#p3caa25a26e)" style="fill: #332288; fill-opacity: 0.6; stroke: #ffffff; stroke-opacity: 0.6; stroke-width: 0.339411"/>
    <path d="M 151.745235 115.569626 
L 153.545235 112.569626 
L 151.745235 109.569626 
L 149.945235 112.569626 
z
" clip-path="url(#p3caa25a26e)" style="fill: #332288; fill-opacity: 0.6; stroke: #ffffff; stroke-opacity: 0.6; stroke-width: 0.339411"/>
    <path d="M 143.340458 114.570038 
L 145.140458 111.570038 
L 143.340458 108.570038 
L 141.540458 111.570038 
z
" clip-path="url(#p3caa25a26e)" style="fill: #332288; fill-opacity: 0.6; stroke: #ffffff; stroke-opacity: 0.6; stroke-width: 0.339411"/>
    <path d="M 172.792646 140.573387 
L 174.592646 137.573387 
L 172.792646 134.573387 
L 170.992646 137.573387 
z
" clip-path="url(#p3caa25a26e)" style="fill: #332288; fill-opacity: 0.6; stroke: #ffffff; stroke-opacity: 0.6; stroke-width: 0.339411"/>
    <path d="M 200.428282 164.590344 
L 202.228282 161.590344 
L 200.428282 158.590344 
L 198.628282 161.590344 
z
" clip-path="url(#p3caa25a26e)" style="fill: #332288; fill-opacity: 0.6; stroke: #ffffff; stroke-opacity: 0.6; stroke-width: 0.339411"/>
    <path d="M 170.661659 160.013963 
L 172.461659 157.013963 
L 170.661659 154.013963 
L 168.861659 157.013963 
z
" clip-path="url(#p3caa25a26e)" style="fill: #332288; fill-opacity: 0.6; stroke: #ffffff; stroke-opacity: 0.6; stroke-width: 0.339411"/>
    <path d="M 174.311667 140.411296 
L 176.111667 137.411296 
L 174.311667 134.411296 
L 172.511667 137.411296 
z
" clip-path="url(#p3caa25a26e)" style="fill: #332288; fill-opacity: 0.6; stroke: #ffffff; stroke-opacity: 0.6; stroke-width: 0.339411"/>
    <path d="M 199.808275 165.128265 
L 201.608275 162.128265 
L 199.808275 159.128265 
L 198.008275 162.128265 
z
" clip-path="url(#p3caa25a26e)" style="fill: #332288; fill-opacity: 0.6; stroke: #ffffff; stroke-opacity: 0.6; stroke-width: 0.339411"/>
    <path d="M 188.236067 166.539735 
L 190.036067 163.539735 
L 188.236067 160.539735 
L 186.436067 163.539735 
z
" clip-path="url(#p3caa25a26e)" style="fill: #332288; fill-opacity: 0.6; stroke: #ffffff; stroke-opacity: 0.6; stroke-width: 0.339411"/>
    <path d="M 125.990532 106.327697 
L 127.790532 103.327697 
L 125.990532 100.327697 
L 124.190532 103.327697 
z
" clip-path="url(#p3caa25a26e)" style="fill: #332288; fill-opacity: 0.6; stroke: #ffffff; stroke-opacity: 0.6; stroke-width: 0.339411"/>
    <path d="M 189.124472 165.78196 
L 190.924472 162.78196 
L 189.124472 159.78196 
L 187.324472 162.78196 
z
" clip-path="url(#p3caa25a26e)" style="fill: #332288; fill-opacity: 0.6; stroke: #ffffff; stroke-opacity: 0.6; stroke-width: 0.339411"/>
    <path d="M 173.257369 139.780541 
L 175.057369 136.780541 
L 173.257369 133.780541 
L 171.457369 136.780541 
z
" clip-path="url(#p3caa25a26e)" style="fill: #332288; fill-opacity: 0.6; stroke: #ffffff; stroke-opacity: 0.6; stroke-width: 0.339411"/>
    <path d="M 131.16818 110.810578 
L 132.96818 107.810578 
L 131.16818 104.810578 
L 129.36818 107.810578 
z
" clip-path="url(#p3caa25a26e)" style="fill: #332288; fill-opacity: 0.6; stroke: #ffffff; stroke-opacity: 0.6; stroke-width: 0.339411"/>
    <path d="M 194.968795 161.264478 
L 196.768795 158.264478 
L 194.968795 155.264478 
L 193.168795 158.264478 
z
" clip-path="url(#p3caa25a26e)" style="fill: #332288; fill-opacity: 0.6; stroke: #ffffff; stroke-opacity: 0.6; stroke-width: 0.339411"/>
    <path d="M 124.343094 103.369815 
L 126.143094 100.369815 
L 124.343094 97.369815 
L 122.543094 100.369815 
z
" clip-path="url(#p3caa25a26e)" style="fill: #332288; fill-opacity: 0.6; stroke: #ffffff; stroke-opacity: 0.6; stroke-width: 0.339411"/>
    <path d="M 125.016335 107.516678 
L 126.816335 104.516678 
L 125.016335 101.516678 
L 123.216335 104.516678 
z
" clip-path="url(#p3caa25a26e)" style="fill: #332288; fill-opacity: 0.6; stroke: #ffffff; stroke-opacity: 0.6; stroke-width: 0.339411"/>
    <path d="M 199.427951 165.556637 
L 201.227951 162.556637 
L 199.427951 159.556637 
L 197.627951 162.556637 
z
" clip-path="url(#p3caa25a26e)" style="fill: #332288; fill-opacity: 0.6; stroke: #ffffff; stroke-opacity: 0.6; stroke-width: 0.339411"/>
    <path d="M 185.782351 171.498826 
L 187.582351 168.498826 
L 185.782351 165.498826 
L 183.982351 168.498826 
z
" clip-path="url(#p3caa25a26e)" style="fill: #332288; fill-opacity: 0.6; stroke: #ffffff; stroke-opacity: 0.6; stroke-width: 0.339411"/>
    <path d="M 120.396558 108.084995 
L 122.196558 105.084995 
L 120.396558 102.084995 
L 118.596558 105.084995 
z
" clip-path="url(#p3caa25a26e)" style="fill: #332288; fill-opacity: 0.6; stroke: #ffffff; stroke-opacity: 0.6; stroke-width: 0.339411"/>
    <path d="M 120.881766 106.799095 
L 122.681766 103.799095 
L 120.881766 100.799095 
L 119.081766 103.799095 
z
" clip-path="url(#p3caa25a26e)" style="fill: #332288; fill-opacity: 0.6; stroke: #ffffff; stroke-opacity: 0.6; stroke-width: 0.339411"/>
    <path d="M 175.645402 135.287635 
L 177.445402 132.287635 
L 175.645402 129.287635 
L 173.845402 132.287635 
z
" clip-path="url(#p3caa25a26e)" style="fill: #332288; fill-opacity: 0.6; stroke: #ffffff; stroke-opacity: 0.6; stroke-width: 0.339411"/>
    <path d="M 122.362249 105.456741 
L 124.162249 102.456741 
L 122.362249 99.456741 
L 120.562249 102.456741 
z
" clip-path="url(#p3caa25a26e)" style="fill: #332288; fill-opacity: 0.6; stroke: #ffffff; stroke-opacity: 0.6; stroke-width: 0.339411"/>
    <path d="M 124.464153 104.764934 
L 126.264153 101.764934 
L 124.464153 98.764934 
L 122.664153 101.764934 
z
" clip-path="url(#p3caa25a26e)" style="fill: #332288; fill-opacity: 0.6; stroke: #ffffff; stroke-opacity: 0.6; stroke-width: 0.339411"/>
    <path d="M 147.523904 115.873433 
L 149.323904 112.873433 
L 147.523904 109.873433 
L 145.723904 112.873433 
z
" clip-path="url(#p3caa25a26e)" style="fill: #332288; fill-opacity: 0.6; stroke: #ffffff; stroke-opacity: 0.6; stroke-width: 0.339411"/>
    <path d="M 146.182254 117.480888 
L 147.982254 114.480888 
L 146.182254 111.480888 
L 144.382254 114.480888 
z
" clip-path="url(#p3caa25a26e)" style="fill: #332288; fill-opacity: 0.6; stroke: #ffffff; stroke-opacity: 0.6; stroke-width: 0.339411"/>
    <path d="M 197.596299 163.680476 
L 199.396299 160.680476 
L 197.596299 157.680476 
L 195.796299 160.680476 
z
" clip-path="url(#p3caa25a26e)" style="fill: #332288; fill-opacity: 0.6; stroke: #ffffff; stroke-opacity: 0.6; stroke-width: 0.339411"/>
    <path d="M 199.919472 162.804468 
L 201.719472 159.804468 
L 199.919472 156.804468 
L 198.119472 159.804468 
z
" clip-path="url(#p3caa25a26e)" style="fill: #332288; fill-opacity: 0.6; stroke: #ffffff; stroke-opacity: 0.6; stroke-width: 0.339411"/>
    <path d="M 199.781352 168.049494 
L 201.581352 165.049494 
L 199.781352 162.049494 
L 197.981352 165.049494 
z
" clip-path="url(#p3caa25a26e)" style="fill: #332288; fill-opacity: 0.6; stroke: #ffffff; stroke-opacity: 0.6; stroke-width: 0.339411"/>
    <path d="M 195.531399 166.14367 
L 197.331399 163.14367 
L 195.531399 160.14367 
L 193.731399 163.14367 
z
" clip-path="url(#p3caa25a26e)" style="fill: #332288; fill-opacity: 0.6; stroke: #ffffff; stroke-opacity: 0.6; stroke-width: 0.339411"/>
    <path d="M 176.666288 136.606628 
L 178.466288 133.606628 
L 176.666288 130.606628 
L 174.866288 133.606628 
z
" clip-path="url(#p3caa25a26e)" style="fill: #332288; fill-opacity: 0.6; stroke: #ffffff; stroke-opacity: 0.6; stroke-width: 0.339411"/>
    <path d="M 124.820736 102.597861 
L 126.620736 99.597861 
L 124.820736 96.597861 
L 123.020736 99.597861 
z
" clip-path="url(#p3caa25a26e)" style="fill: #332288; fill-opacity: 0.6; stroke: #ffffff; stroke-opacity: 0.6; stroke-width: 0.339411"/>
    <path d="M 142.738596 113.45104 
L 144.538596 110.45104 
L 142.738596 107.45104 
L 140.938596 110.45104 
z
" clip-path="url(#p3caa25a26e)" style="fill: #332288; fill-opacity: 0.6; stroke: #ffffff; stroke-opacity: 0.6; stroke-width: 0.339411"/>
    <path d="M 197.60576 170.480918 
L 199.40576 167.480918 
L 197.60576 164.480918 
L 195.80576 167.480918 
z
" clip-path="url(#p3caa25a26e)" style="fill: #332288; fill-opacity: 0.6; stroke: #ffffff; stroke-opacity: 0.6; stroke-width: 0.339411"/>
    <path d="M 144.553808 115.232016 
L 146.353808 112.232016 
L 144.553808 109.232016 
L 142.753808 112.232016 
z
" clip-path="url(#p3caa25a26e)" style="fill: #332288; fill-opacity: 0.6; stroke: #ffffff; stroke-opacity: 0.6; stroke-width: 0.339411"/>
    <path d="M 194.700557 169.482711 
L 196.500557 166.482711 
L 194.700557 163.482711 
L 192.900557 166.482711 
z
" clip-path="url(#p3caa25a26e)" style="fill: #332288; fill-opacity: 0.6; stroke: #ffffff; stroke-opacity: 0.6; stroke-width: 0.339411"/>
    <path d="M 195.701936 162.412827 
L 197.501936 159.412827 
L 195.701936 156.412827 
L 193.901936 159.412827 
z
" clip-path="url(#p3caa25a26e)" style="fill: #332288; fill-opacity: 0.6; stroke: #ffffff; stroke-opacity: 0.6; stroke-width: 0.339411"/>
    <path d="M 202.149481 164.888215 
L 203.949481 161.888215 
L 202.149481 158.888215 
L 200.349481 161.888215 
z
" clip-path="url(#p3caa25a26e)" style="fill: #332288; fill-opacity: 0.6; stroke: #ffffff; stroke-opacity: 0.6; stroke-width: 0.339411"/>
    <path d="M 133.164868 108.415838 
L 134.964868 105.415838 
L 133.164868 102.415838 
L 131.364868 105.415838 
z
" clip-path="url(#p3caa25a26e)" style="fill: #332288; fill-opacity: 0.6; stroke: #ffffff; stroke-opacity: 0.6; stroke-width: 0.339411"/>
    <path d="M 151.630807 148.802191 
L 149.509487 153.044831 
L 153.752127 153.044831 
z
" clip-path="url(#p3caa25a26e)" style="fill: #117733; fill-opacity: 0.6; stroke: #ffffff; stroke-opacity: 0.6; stroke-width: 0.339411"/>
    <path d="M 155.181554 103.031388 
L 153.060234 107.274028 
L 157.302875 107.274028 
z
" clip-path="url(#p3caa25a26e)" style="fill: #117733; fill-opacity: 0.6; stroke: #ffffff; stroke-opacity: 0.6; stroke-width: 0.339411"/>
    <path d="M 151.48245 109.257109 
L 149.361129 113.49975 
L 153.60377 113.49975 
z
" clip-path="url(#p3caa25a26e)" style="fill: #117733; fill-opacity: 0.6; stroke: #ffffff; stroke-opacity: 0.6; stroke-width: 0.339411"/>
    <path d="M 163.234914 145.53321 
L 161.113594 149.775851 
L 165.356234 149.775851 
z
" clip-path="url(#p3caa25a26e)" style="fill: #117733; fill-opacity: 0.6; stroke: #ffffff; stroke-opacity: 0.6; stroke-width: 0.339411"/>
    <path d="M 148.813931 92.446049 
L 146.69261 96.68869 
L 150.935251 96.68869 
z
" clip-path="url(#p3caa25a26e)" style="fill: #117733; fill-opacity: 0.6; stroke: #ffffff; stroke-opacity: 0.6; stroke-width: 0.339411"/>
    <path d="M 215.027054 131.982693 
L 212.905734 136.225334 
L 217.148374 136.225334 
z
" clip-path="url(#p3caa25a26e)" style="fill: #117733; fill-opacity: 0.6; stroke: #ffffff; stroke-opacity: 0.6; stroke-width: 0.339411"/>
    <path d="M 155.751019 106.786429 
L 153.629698 111.029069 
L 157.872339 111.029069 
z
" clip-path="url(#p3caa25a26e)" style="fill: #117733; fill-opacity: 0.6; stroke: #ffffff; stroke-opacity: 0.6; stroke-width: 0.339411"/>
    <path d="M 154.975748 90.081961 
L 152.854427 94.324602 
L 157.097068 94.324602 
z
" clip-path="url(#p3caa25a26e)" style="fill: #117733; fill-opacity: 0.6; stroke: #ffffff; stroke-opacity: 0.6; stroke-width: 0.339411"/>
    <path d="M 145.116969 94.110455 
L 142.995649 98.353096 
L 147.23829 98.353096 
z
" clip-path="url(#p3caa25a26e)" style="fill: #117733; fill-opacity: 0.6; stroke: #ffffff; stroke-opacity: 0.6; stroke-width: 0.339411"/>
    <path d="M 122.010043 120.522949 
L 119.888722 124.76559 
L 124.131363 124.76559 
z
" clip-path="url(#p3caa25a26e)" style="fill: #117733; fill-opacity: 0.6; stroke: #ffffff; stroke-opacity: 0.6; stroke-width: 0.339411"/>
    <path d="M 147.504551 95.922396 
L 145.383231 100.165037 
L 149.625871 100.165037 
z
" clip-path="url(#p3caa25a26e)" style="fill: #117733; fill-opacity: 0.6; stroke: #ffffff; stroke-opacity: 0.6; stroke-width: 0.339411"/>
    <path d="M 155.410688 94.968434 
L 153.289368 99.211075 
L 157.532009 99.211075 
z
" clip-path="url(#p3caa25a26e)" style="fill: #117733; fill-opacity: 0.6; stroke: #ffffff; stroke-opacity: 0.6; stroke-width: 0.339411"/>
    <path d="M 153.63965 104.554721 
L 151.51833 108.797362 
L 155.760971 108.797362 
z
" clip-path="url(#p3caa25a26e)" style="fill: #117733; fill-opacity: 0.6; stroke: #ffffff; stroke-opacity: 0.6; stroke-width: 0.339411"/>
    <path d="M 147.602512 100.680449 
L 145.481191 104.923089 
L 149.723832 104.923089 
z
" clip-path="url(#p3caa25a26e)" style="fill: #117733; fill-opacity: 0.6; stroke: #ffffff; stroke-opacity: 0.6; stroke-width: 0.339411"/>
    <path d="M 189.162409 125.717217 
L 187.041089 129.959857 
L 191.283729 129.959857 
z
" clip-path="url(#p3caa25a26e)" style="fill: #117733; fill-opacity: 0.6; stroke: #ffffff; stroke-opacity: 0.6; stroke-width: 0.339411"/>
    <path d="M 121.905255 120.653881 
L 119.783935 124.896521 
L 124.026575 124.896521 
z
" clip-path="url(#p3caa25a26e)" style="fill: #117733; fill-opacity: 0.6; stroke: #ffffff; stroke-opacity: 0.6; stroke-width: 0.339411"/>
    <path d="M 156.430008 90.510665 
L 154.308688 94.753306 
L 158.551328 94.753306 
z
" clip-path="url(#p3caa25a26e)" style="fill: #117733; fill-opacity: 0.6; stroke: #ffffff; stroke-opacity: 0.6; stroke-width: 0.339411"/>
    <path d="M 171.306148 173.440351 
L 169.184827 177.682991 
L 173.427468 177.682991 
z
" clip-path="url(#p3caa25a26e)" style="fill: #117733; fill-opacity: 0.6; stroke: #ffffff; stroke-opacity: 0.6; stroke-width: 0.339411"/>
    <path d="M 156.135934 96.210731 
L 154.014614 100.453371 
L 158.257254 100.453371 
z
" clip-path="url(#p3caa25a26e)" style="fill: #117733; fill-opacity: 0.6; stroke: #ffffff; stroke-opacity: 0.6; stroke-width: 0.339411"/>
    <path d="M 150.717363 98.811576 
L 148.596042 103.054217 
L 152.838683 103.054217 
z
" clip-path="url(#p3caa25a26e)" style="fill: #117733; fill-opacity: 0.6; stroke: #ffffff; stroke-opacity: 0.6; stroke-width: 0.339411"/>
    <path d="M 149.035441 97.491071 
L 146.914121 101.733711 
L 151.156762 101.733711 
z
" clip-path="url(#p3caa25a26e)" style="fill: #117733; fill-opacity: 0.6; stroke: #ffffff; stroke-opacity: 0.6; stroke-width: 0.339411"/>
    <path d="M 147.088353 88.683405 
L 144.967033 92.926046 
L 149.209674 92.926046 
z
" clip-path="url(#p3caa25a26e)" style="fill: #117733; fill-opacity: 0.6; stroke: #ffffff; stroke-opacity: 0.6; stroke-width: 0.339411"/>
    <path d="M 153.23373 98.064098 
L 151.112409 102.306739 
L 155.35505 102.306739 
z
" clip-path="url(#p3caa25a26e)" style="fill: #117733; fill-opacity: 0.6; stroke: #ffffff; stroke-opacity: 0.6; stroke-width: 0.339411"/>
    <path d="M 149.05573 100.542501 
L 146.93441 104.785142 
L 151.177051 104.785142 
z
" clip-path="url(#p3caa25a26e)" style="fill: #117733; fill-opacity: 0.6; stroke: #ffffff; stroke-opacity: 0.6; stroke-width: 0.339411"/>
    <path d="M 150.91479 90.904053 
L 148.79347 95.146693 
L 153.03611 95.146693 
z
" clip-path="url(#p3caa25a26e)" style="fill: #117733; fill-opacity: 0.6; stroke: #ffffff; stroke-opacity: 0.6; stroke-width: 0.339411"/>
    <path d="M 192.589493 133.731631 
L 190.468173 137.974272 
L 194.710814 137.974272 
z
" clip-path="url(#p3caa25a26e)" style="fill: #117733; fill-opacity: 0.6; stroke: #ffffff; stroke-opacity: 0.6; stroke-width: 0.339411"/>
    <path d="M 124.269971 121.722337 
L 122.14865 125.964977 
L 126.391291 125.964977 
z
" clip-path="url(#p3caa25a26e)" style="fill: #117733; fill-opacity: 0.6; stroke: #ffffff; stroke-opacity: 0.6; stroke-width: 0.339411"/>
    <path d="M 206.931584 133.349356 
L 204.810264 137.591997 
L 209.052905 137.591997 
z
" clip-path="url(#p3caa25a26e)" style="fill: #117733; fill-opacity: 0.6; stroke: #ffffff; stroke-opacity: 0.6; stroke-width: 0.339411"/>
    <path d="M 153.561362 94.457633 
L 151.440041 98.700274 
L 155.682682 98.700274 
z
" clip-path="url(#p3caa25a26e)" style="fill: #117733; fill-opacity: 0.6; stroke: #ffffff; stroke-opacity: 0.6; stroke-width: 0.339411"/>
    <path d="M 150.950776 88.273862 
L 148.829456 92.516503 
L 153.072096 92.516503 
z
" clip-path="url(#p3caa25a26e)" style="fill: #117733; fill-opacity: 0.6; stroke: #ffffff; stroke-opacity: 0.6; stroke-width: 0.339411"/>
    <path d="M 148.221285 88.872366 
L 146.099964 93.115007 
L 150.342605 93.115007 
z
" clip-path="url(#p3caa25a26e)" style="fill: #117733; fill-opacity: 0.6; stroke: #ffffff; stroke-opacity: 0.6; stroke-width: 0.339411"/>
    <path d="M 186.045494 157.460459 
L 183.924174 161.7031 
L 188.166815 161.7031 
z
" clip-path="url(#p3caa25a26e)" style="fill: #117733; fill-opacity: 0.6; stroke: #ffffff; stroke-opacity: 0.6; stroke-width: 0.339411"/>
    <path d="M 123.987162 123.982003 
L 121.865842 128.224643 
L 126.108483 128.224643 
z
" clip-path="url(#p3caa25a26e)" style="fill: #117733; fill-opacity: 0.6; stroke: #ffffff; stroke-opacity: 0.6; stroke-width: 0.339411"/>
    <path d="M 145.585076 97.444502 
L 143.463756 101.687143 
L 147.706397 101.687143 
z
" clip-path="url(#p3caa25a26e)" style="fill: #117733; fill-opacity: 0.6; stroke: #ffffff; stroke-opacity: 0.6; stroke-width: 0.339411"/>
    <path d="M 126.028579 122.995405 
L 123.907258 127.238045 
L 128.149899 127.238045 
z
" clip-path="url(#p3caa25a26e)" style="fill: #117733; fill-opacity: 0.6; stroke: #ffffff; stroke-opacity: 0.6; stroke-width: 0.339411"/>
    <path d="M 155.818493 101.973467 
L 153.697173 106.216108 
L 157.939813 106.216108 
z
" clip-path="url(#p3caa25a26e)" style="fill: #117733; fill-opacity: 0.6; stroke: #ffffff; stroke-opacity: 0.6; stroke-width: 0.339411"/>
    <path d="M 158.826613 145.895787 
L 156.705293 150.138427 
L 160.947933 150.138427 
z
" clip-path="url(#p3caa25a26e)" style="fill: #117733; fill-opacity: 0.6; stroke: #ffffff; stroke-opacity: 0.6; stroke-width: 0.339411"/>
    <path d="M 148.144051 98.271059 
L 146.02273 102.5137 
L 150.265371 102.5137 
z
" clip-path="url(#p3caa25a26e)" style="fill: #117733; fill-opacity: 0.6; stroke: #ffffff; stroke-opacity: 0.6; stroke-width: 0.339411"/>
    <path d="M 150.358296 91.898652 
L 148.236976 96.141292 
L 152.479616 96.141292 
z
" clip-path="url(#p3caa25a26e)" style="fill: #117733; fill-opacity: 0.6; stroke: #ffffff; stroke-opacity: 0.6; stroke-width: 0.339411"/>
    <path d="M 166.311981 147.500335 
L 164.190661 151.742976 
L 168.433301 151.742976 
z
" clip-path="url(#p3caa25a26e)" style="fill: #117733; fill-opacity: 0.6; stroke: #ffffff; stroke-opacity: 0.6; stroke-width: 0.339411"/>
    <path d="M 170.852803 155.302535 
L 168.731482 159.545176 
L 172.974123 159.545176 
z
" clip-path="url(#p3caa25a26e)" style="fill: #117733; fill-opacity: 0.6; stroke: #ffffff; stroke-opacity: 0.6; stroke-width: 0.339411"/>
    <path d="M 143.758964 95.117229 
L 141.637644 99.35987 
L 145.880285 99.35987 
z
" clip-path="url(#p3caa25a26e)" style="fill: #117733; fill-opacity: 0.6; stroke: #ffffff; stroke-opacity: 0.6; stroke-width: 0.339411"/>
    <path d="M 171.756321 152.744002 
L 169.635001 156.986643 
L 173.877642 156.986643 
z
" clip-path="url(#p3caa25a26e)" style="fill: #117733; fill-opacity: 0.6; stroke: #ffffff; stroke-opacity: 0.6; stroke-width: 0.339411"/>
    <path d="M 123.382189 122.896403 
L 121.260869 127.139043 
L 125.50351 127.139043 
z
" clip-path="url(#p3caa25a26e)" style="fill: #117733; fill-opacity: 0.6; stroke: #ffffff; stroke-opacity: 0.6; stroke-width: 0.339411"/>
    <path d="M 153.692004 91.730596 
L 151.570684 95.973237 
L 155.813325 95.973237 
z
" clip-path="url(#p3caa25a26e)" style="fill: #117733; fill-opacity: 0.6; stroke: #ffffff; stroke-opacity: 0.6; stroke-width: 0.339411"/>
    <path d="M 163.53541 159.20436 
L 161.41409 163.447 
L 165.656731 163.447 
z
" clip-path="url(#p3caa25a26e)" style="fill: #117733; fill-opacity: 0.6; stroke: #ffffff; stroke-opacity: 0.6; stroke-width: 0.339411"/>
    <path d="M 206.223681 134.567098 
L 204.102361 138.809739 
L 208.345002 138.809739 
z
" clip-path="url(#p3caa25a26e)" style="fill: #117733; fill-opacity: 0.6; stroke: #ffffff; stroke-opacity: 0.6; stroke-width: 0.339411"/>
    <path d="M 155.719916 91.459093 
L 153.598595 95.701734 
L 157.841236 95.701734 
z
" clip-path="url(#p3caa25a26e)" style="fill: #117733; fill-opacity: 0.6; stroke: #ffffff; stroke-opacity: 0.6; stroke-width: 0.339411"/>
    <path d="M 152.523929 106.146033 
L 150.402609 110.388674 
L 154.64525 110.388674 
z
" clip-path="url(#p3caa25a26e)" style="fill: #117733; fill-opacity: 0.6; stroke: #ffffff; stroke-opacity: 0.6; stroke-width: 0.339411"/>
    <path d="M 148.408209 93.652904 
L 146.286889 97.895545 
L 150.529529 97.895545 
z
" clip-path="url(#p3caa25a26e)" style="fill: #117733; fill-opacity: 0.6; stroke: #ffffff; stroke-opacity: 0.6; stroke-width: 0.339411"/>
    <path d="M 155.888104 93.134626 
L 153.766783 97.377266 
L 158.009424 97.377266 
z
" clip-path="url(#p3caa25a26e)" style="fill: #117733; fill-opacity: 0.6; stroke: #ffffff; stroke-opacity: 0.6; stroke-width: 0.339411"/>
    <path d="M 167.789582 147.220428 
L 165.668262 151.463068 
L 169.910902 151.463068 
z
" clip-path="url(#p3caa25a26e)" style="fill: #117733; fill-opacity: 0.6; stroke: #ffffff; stroke-opacity: 0.6; stroke-width: 0.339411"/>
    <path d="M 184.381938 137.465329 
L 182.260617 141.707969 
L 186.503258 141.707969 
z
" clip-path="url(#p3caa25a26e)" style="fill: #117733; fill-opacity: 0.6; stroke: #ffffff; stroke-opacity: 0.6; stroke-width: 0.339411"/>
    <path d="M 152.842929 95.858259 
L 150.721609 100.100899 
L 154.96425 100.100899 
z
" clip-path="url(#p3caa25a26e)" style="fill: #117733; fill-opacity: 0.6; stroke: #ffffff; stroke-opacity: 0.6; stroke-width: 0.339411"/>
    <path d="M 178.24591 149.173865 
L 176.124589 153.416506 
L 180.36723 153.416506 
z
" clip-path="url(#p3caa25a26e)" style="fill: #117733; fill-opacity: 0.6; stroke: #ffffff; stroke-opacity: 0.6; stroke-width: 0.339411"/>
    <path d="M 126.28515 124.814172 
L 124.16383 129.056813 
L 128.40647 129.056813 
z
" clip-path="url(#p3caa25a26e)" style="fill: #117733; fill-opacity: 0.6; stroke: #ffffff; stroke-opacity: 0.6; stroke-width: 0.339411"/>
    <path d="M 152.230253 88.619149 
L 150.108933 92.861789 
L 154.351574 92.861789 
z
" clip-path="url(#p3caa25a26e)" style="fill: #117733; fill-opacity: 0.6; stroke: #ffffff; stroke-opacity: 0.6; stroke-width: 0.339411"/>
    <path d="M 168.83487 140.046897 
L 166.71355 144.289538 
L 170.95619 144.289538 
z
" clip-path="url(#p3caa25a26e)" style="fill: #117733; fill-opacity: 0.6; stroke: #ffffff; stroke-opacity: 0.6; stroke-width: 0.339411"/>
    <path d="M 167.345313 142.432655 
L 165.223993 146.675295 
L 169.466634 146.675295 
z
" clip-path="url(#p3caa25a26e)" style="fill: #117733; fill-opacity: 0.6; stroke: #ffffff; stroke-opacity: 0.6; stroke-width: 0.339411"/>
    <path d="M 147.510064 97.027057 
L 145.388744 101.269698 
L 149.631385 101.269698 
z
" clip-path="url(#p3caa25a26e)" style="fill: #117733; fill-opacity: 0.6; stroke: #ffffff; stroke-opacity: 0.6; stroke-width: 0.339411"/>
    <path d="M 187.037267 124.341839 
L 184.915947 128.58448 
L 189.158587 128.58448 
z
" clip-path="url(#p3caa25a26e)" style="fill: #117733; fill-opacity: 0.6; stroke: #ffffff; stroke-opacity: 0.6; stroke-width: 0.339411"/>
    <path d="M 152.508676 105.572973 
L 150.387356 109.815613 
L 154.629997 109.815613 
z
" clip-path="url(#p3caa25a26e)" style="fill: #117733; fill-opacity: 0.6; stroke: #ffffff; stroke-opacity: 0.6; stroke-width: 0.339411"/>
    <path d="M 166.965964 154.0385 
L 164.844644 158.281141 
L 169.087285 158.281141 
z
" clip-path="url(#p3caa25a26e)" style="fill: #117733; fill-opacity: 0.6; stroke: #ffffff; stroke-opacity: 0.6; stroke-width: 0.339411"/>
    <path d="M 185.410533 133.794693 
L 189.653173 133.794693 
L 189.653173 129.552053 
L 185.410533 129.552053 
z
" clip-path="url(#p3caa25a26e)" style="fill: #44aa99; fill-opacity: 0.6; stroke: #ffffff; stroke-opacity: 0.6; stroke-width: 0.339411"/>
    <path d="M 163.88071 164.409363 
L 168.123351 164.409363 
L 168.123351 160.166723 
L 163.88071 160.166723 
z
" clip-path="url(#p3caa25a26e)" style="fill: #44aa99; fill-opacity: 0.6; stroke: #ffffff; stroke-opacity: 0.6; stroke-width: 0.339411"/>
    <path d="M 181.499239 153.924257 
L 185.74188 153.924257 
L 185.74188 149.681616 
L 181.499239 149.681616 
z
" clip-path="url(#p3caa25a26e)" style="fill: #44aa99; fill-opacity: 0.6; stroke: #ffffff; stroke-opacity: 0.6; stroke-width: 0.339411"/>
    <path d="M 176.957462 166.482399 
L 181.200103 166.482399 
L 181.200103 162.239759 
L 176.957462 162.239759 
z
" clip-path="url(#p3caa25a26e)" style="fill: #44aa99; fill-opacity: 0.6; stroke: #ffffff; stroke-opacity: 0.6; stroke-width: 0.339411"/>
    <path d="M 212.237042 137.20323 
L 216.479682 137.20323 
L 216.479682 132.96059 
L 212.237042 132.96059 
z
" clip-path="url(#p3caa25a26e)" style="fill: #44aa99; fill-opacity: 0.6; stroke: #ffffff; stroke-opacity: 0.6; stroke-width: 0.339411"/>
    <path d="M 179.991955 156.729932 
L 184.234596 156.729932 
L 184.234596 152.487291 
L 179.991955 152.487291 
z
" clip-path="url(#p3caa25a26e)" style="fill: #44aa99; fill-opacity: 0.6; stroke: #ffffff; stroke-opacity: 0.6; stroke-width: 0.339411"/>
    <path d="M 184.763536 156.992128 
L 189.006176 156.992128 
L 189.006176 152.749487 
L 184.763536 152.749487 
z
" clip-path="url(#p3caa25a26e)" style="fill: #44aa99; fill-opacity: 0.6; stroke: #ffffff; stroke-opacity: 0.6; stroke-width: 0.339411"/>
    <path d="M 182.687822 153.083037 
L 186.930463 153.083037 
L 186.930463 148.840396 
L 182.687822 148.840396 
z
" clip-path="url(#p3caa25a26e)" style="fill: #44aa99; fill-opacity: 0.6; stroke: #ffffff; stroke-opacity: 0.6; stroke-width: 0.339411"/>
    <path d="M 171.037631 164.371257 
L 175.280271 164.371257 
L 175.280271 160.128617 
L 171.037631 160.128617 
z
" clip-path="url(#p3caa25a26e)" style="fill: #44aa99; fill-opacity: 0.6; stroke: #ffffff; stroke-opacity: 0.6; stroke-width: 0.339411"/>
    <path d="M 205.824382 136.599932 
L 210.067023 136.599932 
L 210.067023 132.357292 
L 205.824382 132.357292 
z
" clip-path="url(#p3caa25a26e)" style="fill: #44aa99; fill-opacity: 0.6; stroke: #ffffff; stroke-opacity: 0.6; stroke-width: 0.339411"/>
    <path d="M 197.915425 169.528827 
L 202.158066 169.528827 
L 202.158066 165.286186 
L 197.915425 165.286186 
z
" clip-path="url(#p3caa25a26e)" style="fill: #44aa99; fill-opacity: 0.6; stroke: #ffffff; stroke-opacity: 0.6; stroke-width: 0.339411"/>
    <path d="M 213.261948 137.243546 
L 217.504588 137.243546 
L 217.504588 133.000905 
L 213.261948 133.000905 
z
" clip-path="url(#p3caa25a26e)" style="fill: #44aa99; fill-opacity: 0.6; stroke: #ffffff; stroke-opacity: 0.6; stroke-width: 0.339411"/>
    <path d="M 187.373829 136.439756 
L 191.61647 136.439756 
L 191.61647 132.197115 
L 187.373829 132.197115 
z
" clip-path="url(#p3caa25a26e)" style="fill: #44aa99; fill-opacity: 0.6; stroke: #ffffff; stroke-opacity: 0.6; stroke-width: 0.339411"/>
    <path d="M 210.734056 139.394294 
L 214.976697 139.394294 
L 214.976697 135.151653 
L 210.734056 135.151653 
z
" clip-path="url(#p3caa25a26e)" style="fill: #44aa99; fill-opacity: 0.6; stroke: #ffffff; stroke-opacity: 0.6; stroke-width: 0.339411"/>
    <path d="M 161.179171 166.046071 
L 165.421811 166.046071 
L 165.421811 161.803431 
L 161.179171 161.803431 
z
" clip-path="url(#p3caa25a26e)" style="fill: #44aa99; fill-opacity: 0.6; stroke: #ffffff; stroke-opacity: 0.6; stroke-width: 0.339411"/>
    <path d="M 175.947451 163.053767 
L 180.190092 163.053767 
L 180.190092 158.811126 
L 175.947451 158.811126 
z
" clip-path="url(#p3caa25a26e)" style="fill: #44aa99; fill-opacity: 0.6; stroke: #ffffff; stroke-opacity: 0.6; stroke-width: 0.339411"/>
    <path d="M 164.620659 163.381235 
L 168.863299 163.381235 
L 168.863299 159.138595 
L 164.620659 159.138595 
z
" clip-path="url(#p3caa25a26e)" style="fill: #44aa99; fill-opacity: 0.6; stroke: #ffffff; stroke-opacity: 0.6; stroke-width: 0.339411"/>
    <path d="M 192.842592 140.887284 
L 197.085232 140.887284 
L 197.085232 136.644643 
L 192.842592 136.644643 
z
" clip-path="url(#p3caa25a26e)" style="fill: #44aa99; fill-opacity: 0.6; stroke: #ffffff; stroke-opacity: 0.6; stroke-width: 0.339411"/>
    <path d="M 189.820008 135.265762 
L 194.062649 135.265762 
L 194.062649 131.023122 
L 189.820008 131.023122 
z
" clip-path="url(#p3caa25a26e)" style="fill: #44aa99; fill-opacity: 0.6; stroke: #ffffff; stroke-opacity: 0.6; stroke-width: 0.339411"/>
    <path d="M 185.775876 136.629238 
L 190.018517 136.629238 
L 190.018517 132.386597 
L 185.775876 132.386597 
z
" clip-path="url(#p3caa25a26e)" style="fill: #44aa99; fill-opacity: 0.6; stroke: #ffffff; stroke-opacity: 0.6; stroke-width: 0.339411"/>
    <path d="M 178.253201 163.239391 
L 182.495842 163.239391 
L 182.495842 158.99675 
L 178.253201 158.99675 
z
" clip-path="url(#p3caa25a26e)" style="fill: #44aa99; fill-opacity: 0.6; stroke: #ffffff; stroke-opacity: 0.6; stroke-width: 0.339411"/>
    <path d="M 199.0504 130.923141 
L 203.293041 130.923141 
L 203.293041 126.6805 
L 199.0504 126.6805 
z
" clip-path="url(#p3caa25a26e)" style="fill: #44aa99; fill-opacity: 0.6; stroke: #ffffff; stroke-opacity: 0.6; stroke-width: 0.339411"/>
    <path d="M 178.621782 166.675831 
L 182.864423 166.675831 
L 182.864423 162.43319 
L 178.621782 162.43319 
z
" clip-path="url(#p3caa25a26e)" style="fill: #44aa99; fill-opacity: 0.6; stroke: #ffffff; stroke-opacity: 0.6; stroke-width: 0.339411"/>
    <path d="M 206.334865 137.882558 
L 210.577505 137.882558 
L 210.577505 133.639917 
L 206.334865 133.639917 
z
" clip-path="url(#p3caa25a26e)" style="fill: #44aa99; fill-opacity: 0.6; stroke: #ffffff; stroke-opacity: 0.6; stroke-width: 0.339411"/>
    <path d="M 173.562961 178.455769 
L 177.805602 178.455769 
L 177.805602 174.213129 
L 173.562961 174.213129 
z
" clip-path="url(#p3caa25a26e)" style="fill: #44aa99; fill-opacity: 0.6; stroke: #ffffff; stroke-opacity: 0.6; stroke-width: 0.339411"/>
    <path d="M 161.252696 166.026697 
L 165.495336 166.026697 
L 165.495336 161.784056 
L 161.252696 161.784056 
z
" clip-path="url(#p3caa25a26e)" style="fill: #44aa99; fill-opacity: 0.6; stroke: #ffffff; stroke-opacity: 0.6; stroke-width: 0.339411"/>
    <path d="M 209.588798 135.275054 
L 213.831439 135.275054 
L 213.831439 131.032414 
L 209.588798 131.032414 
z
" clip-path="url(#p3caa25a26e)" style="fill: #44aa99; fill-opacity: 0.6; stroke: #ffffff; stroke-opacity: 0.6; stroke-width: 0.339411"/>
    <path d="M 161.484868 156.269801 
L 165.727509 156.269801 
L 165.727509 152.027161 
L 161.484868 152.027161 
z
" clip-path="url(#p3caa25a26e)" style="fill: #44aa99; fill-opacity: 0.6; stroke: #ffffff; stroke-opacity: 0.6; stroke-width: 0.339411"/>
    <path d="M 164.003823 160.748821 
L 168.246463 160.748821 
L 168.246463 156.50618 
L 164.003823 156.50618 
z
" clip-path="url(#p3caa25a26e)" style="fill: #44aa99; fill-opacity: 0.6; stroke: #ffffff; stroke-opacity: 0.6; stroke-width: 0.339411"/>
    <path d="M 206.876092 135.618709 
L 211.118733 135.618709 
L 211.118733 131.376068 
L 206.876092 131.376068 
z
" clip-path="url(#p3caa25a26e)" style="fill: #44aa99; fill-opacity: 0.6; stroke: #ffffff; stroke-opacity: 0.6; stroke-width: 0.339411"/>
    <path d="M 119.673282 128.233766 
L 123.915923 128.233766 
L 123.915923 123.991125 
L 119.673282 123.991125 
z
" clip-path="url(#p3caa25a26e)" style="fill: #44aa99; fill-opacity: 0.6; stroke: #ffffff; stroke-opacity: 0.6; stroke-width: 0.339411"/>
    <path d="M 181.670625 134.257562 
L 185.913266 134.257562 
L 185.913266 130.014922 
L 181.670625 130.014922 
z
" clip-path="url(#p3caa25a26e)" style="fill: #44aa99; fill-opacity: 0.6; stroke: #ffffff; stroke-opacity: 0.6; stroke-width: 0.339411"/>
    <path d="M 197.684566 129.857219 
L 201.927207 129.857219 
L 201.927207 125.614579 
L 197.684566 125.614579 
z
" clip-path="url(#p3caa25a26e)" style="fill: #44aa99; fill-opacity: 0.6; stroke: #ffffff; stroke-opacity: 0.6; stroke-width: 0.339411"/>
    <path d="M 185.341705 138.224922 
L 189.584346 138.224922 
L 189.584346 133.982281 
L 185.341705 133.982281 
z
" clip-path="url(#p3caa25a26e)" style="fill: #44aa99; fill-opacity: 0.6; stroke: #ffffff; stroke-opacity: 0.6; stroke-width: 0.339411"/>
    <path d="M 162.346529 162.892441 
L 166.58917 162.892441 
L 166.58917 158.649801 
L 162.346529 158.649801 
z
" clip-path="url(#p3caa25a26e)" style="fill: #44aa99; fill-opacity: 0.6; stroke: #ffffff; stroke-opacity: 0.6; stroke-width: 0.339411"/>
    <path d="M 185.47879 157.468381 
L 189.721431 157.468381 
L 189.721431 153.22574 
L 185.47879 153.22574 
z
" clip-path="url(#p3caa25a26e)" style="fill: #44aa99; fill-opacity: 0.6; stroke: #ffffff; stroke-opacity: 0.6; stroke-width: 0.339411"/>
    <path d="M 211.721371 138.716386 
L 215.964011 138.716386 
L 215.964011 134.473746 
L 211.721371 134.473746 
z
" clip-path="url(#p3caa25a26e)" style="fill: #44aa99; fill-opacity: 0.6; stroke: #ffffff; stroke-opacity: 0.6; stroke-width: 0.339411"/>
    <path d="M 176.52495 162.654421 
L 180.767591 162.654421 
L 180.767591 158.41178 
L 176.52495 158.41178 
z
" clip-path="url(#p3caa25a26e)" style="fill: #44aa99; fill-opacity: 0.6; stroke: #ffffff; stroke-opacity: 0.6; stroke-width: 0.339411"/>
    <path d="M 210.246424 134.262714 
L 214.489064 134.262714 
L 214.489064 130.020073 
L 210.246424 130.020073 
z
" clip-path="url(#p3caa25a26e)" style="fill: #44aa99; fill-opacity: 0.6; stroke: #ffffff; stroke-opacity: 0.6; stroke-width: 0.339411"/>
    <path d="M 208.694077 139.636867 
L 212.936717 139.636867 
L 212.936717 135.394226 
L 208.694077 135.394226 
z
" clip-path="url(#p3caa25a26e)" style="fill: #44aa99; fill-opacity: 0.6; stroke: #ffffff; stroke-opacity: 0.6; stroke-width: 0.339411"/>
    <path d="M 192.152788 127.797163 
L 196.395429 127.797163 
L 196.395429 123.554523 
L 192.152788 123.554523 
z
" clip-path="url(#p3caa25a26e)" style="fill: #44aa99; fill-opacity: 0.6; stroke: #ffffff; stroke-opacity: 0.6; stroke-width: 0.339411"/>
    <path d="M 160.754607 161.757921 
L 164.997247 161.757921 
L 164.997247 157.51528 
L 160.754607 157.51528 
z
" clip-path="url(#p3caa25a26e)" style="fill: #44aa99; fill-opacity: 0.6; stroke: #ffffff; stroke-opacity: 0.6; stroke-width: 0.339411"/>
    <path d="M 170.19864 165.122392 
L 174.441281 165.122392 
L 174.441281 160.879752 
L 170.19864 160.879752 
z
" clip-path="url(#p3caa25a26e)" style="fill: #44aa99; fill-opacity: 0.6; stroke: #ffffff; stroke-opacity: 0.6; stroke-width: 0.339411"/>
    <path d="M 174.912029 176.874269 
L 179.15467 176.874269 
L 179.15467 172.631628 
L 174.912029 172.631628 
z
" clip-path="url(#p3caa25a26e)" style="fill: #44aa99; fill-opacity: 0.6; stroke: #ffffff; stroke-opacity: 0.6; stroke-width: 0.339411"/>
    <path d="M 207.819644 132.518367 
L 212.062285 132.518367 
L 212.062285 128.275727 
L 207.819644 128.275727 
z
" clip-path="url(#p3caa25a26e)" style="fill: #44aa99; fill-opacity: 0.6; stroke: #ffffff; stroke-opacity: 0.6; stroke-width: 0.339411"/>
    <path d="M 175.592896 159.957769 
L 179.835536 159.957769 
L 179.835536 155.715129 
L 175.592896 155.715129 
z
" clip-path="url(#p3caa25a26e)" style="fill: #44aa99; fill-opacity: 0.6; stroke: #ffffff; stroke-opacity: 0.6; stroke-width: 0.339411"/>
    <path d="M 210.810169 135.46723 
L 215.05281 135.46723 
L 215.05281 131.224589 
L 210.810169 131.224589 
z
" clip-path="url(#p3caa25a26e)" style="fill: #44aa99; fill-opacity: 0.6; stroke: #ffffff; stroke-opacity: 0.6; stroke-width: 0.339411"/>
    <path d="M 207.52151 139.015639 
L 211.764151 139.015639 
L 211.764151 134.772998 
L 207.52151 134.772998 
z
" clip-path="url(#p3caa25a26e)" style="fill: #44aa99; fill-opacity: 0.6; stroke: #ffffff; stroke-opacity: 0.6; stroke-width: 0.339411"/>
    <path d="M 209.986863 141.177022 
L 214.229504 141.177022 
L 214.229504 136.934382 
L 209.986863 136.934382 
z
" clip-path="url(#p3caa25a26e)" style="fill: #44aa99; fill-opacity: 0.6; stroke: #ffffff; stroke-opacity: 0.6; stroke-width: 0.339411"/>
    <path d="M 179.339789 156.223788 
L 183.58243 156.223788 
L 183.58243 151.981148 
L 179.339789 151.981148 
z
" clip-path="url(#p3caa25a26e)" style="fill: #44aa99; fill-opacity: 0.6; stroke: #ffffff; stroke-opacity: 0.6; stroke-width: 0.339411"/>
    <path d="M 122.325198 129.852376 
L 126.567839 129.852376 
L 126.567839 125.609735 
L 122.325198 125.609735 
z
" clip-path="url(#p3caa25a26e)" style="fill: #44aa99; fill-opacity: 0.6; stroke: #ffffff; stroke-opacity: 0.6; stroke-width: 0.339411"/>
    <path d="M 168.7264 176.877477 
L 172.969041 176.877477 
L 172.969041 172.634836 
L 168.7264 172.634836 
z
" clip-path="url(#p3caa25a26e)" style="fill: #44aa99; fill-opacity: 0.6; stroke: #ffffff; stroke-opacity: 0.6; stroke-width: 0.339411"/>
    <path d="M 187.170212 143.960944 
L 191.412853 143.960944 
L 191.412853 139.718304 
L 187.170212 139.718304 
z
" clip-path="url(#p3caa25a26e)" style="fill: #44aa99; fill-opacity: 0.6; stroke: #ffffff; stroke-opacity: 0.6; stroke-width: 0.339411"/>
    <path d="M 187.27078 130.942886 
L 191.513421 130.942886 
L 191.513421 126.700245 
L 187.27078 126.700245 
z
" clip-path="url(#p3caa25a26e)" style="fill: #44aa99; fill-opacity: 0.6; stroke: #ffffff; stroke-opacity: 0.6; stroke-width: 0.339411"/>
    <path d="M 186.158934 148.651014 
L 190.401574 148.651014 
L 190.401574 144.408373 
L 186.158934 144.408373 
z
" clip-path="url(#p3caa25a26e)" style="fill: #44aa99; fill-opacity: 0.6; stroke: #ffffff; stroke-opacity: 0.6; stroke-width: 0.339411"/>
    <path d="M 176.884096 162.302487 
L 181.126737 162.302487 
L 181.126737 158.059846 
L 176.884096 158.059846 
z
" clip-path="url(#p3caa25a26e)" style="fill: #44aa99; fill-opacity: 0.6; stroke: #ffffff; stroke-opacity: 0.6; stroke-width: 0.339411"/>
    <path d="M 180.708456 163.123773 
L 184.951097 163.123773 
L 184.951097 158.881132 
L 180.708456 158.881132 
z
" clip-path="url(#p3caa25a26e)" style="fill: #44aa99; fill-opacity: 0.6; stroke: #ffffff; stroke-opacity: 0.6; stroke-width: 0.339411"/>
    <path d="M 178.193105 140.005328 
L 182.435745 140.005328 
L 182.435745 135.762687 
L 178.193105 135.762687 
z
" clip-path="url(#p3caa25a26e)" style="fill: #44aa99; fill-opacity: 0.6; stroke: #ffffff; stroke-opacity: 0.6; stroke-width: 0.339411"/>
    <path d="M 163.508852 166.885114 
L 167.751493 166.885114 
L 167.751493 162.642473 
L 163.508852 162.642473 
z
" clip-path="url(#p3caa25a26e)" style="fill: #44aa99; fill-opacity: 0.6; stroke: #ffffff; stroke-opacity: 0.6; stroke-width: 0.339411"/>
    <path d="M 174.514906 135.698693 
L 178.757546 135.698693 
L 178.757546 131.456052 
L 174.514906 131.456052 
z
" clip-path="url(#p3caa25a26e)" style="fill: #44aa99; fill-opacity: 0.6; stroke: #ffffff; stroke-opacity: 0.6; stroke-width: 0.339411"/>
    <path d="M 187.757842 138.745483 
L 192.000483 138.745483 
L 192.000483 134.502842 
L 187.757842 134.502842 
z
" clip-path="url(#p3caa25a26e)" style="fill: #44aa99; fill-opacity: 0.6; stroke: #ffffff; stroke-opacity: 0.6; stroke-width: 0.339411"/>
    <path d="M 160.073561 165.247643 
L 164.316201 165.247643 
L 164.316201 161.005002 
L 160.073561 161.005002 
z
" clip-path="url(#p3caa25a26e)" style="fill: #44aa99; fill-opacity: 0.6; stroke: #ffffff; stroke-opacity: 0.6; stroke-width: 0.339411"/>
    <path d="M 120.808824 128.790598 
L 125.051465 128.790598 
L 125.051465 124.547957 
L 120.808824 124.547957 
z
" clip-path="url(#p3caa25a26e)" style="fill: #44aa99; fill-opacity: 0.6; stroke: #ffffff; stroke-opacity: 0.6; stroke-width: 0.339411"/>
    <path d="M 173.179001 177.311536 
L 174.239661 176.250875 
L 175.300321 177.311536 
L 176.360981 176.250875 
L 175.300321 175.190215 
L 176.360981 174.129555 
L 175.300321 173.068895 
L 174.239661 174.129555 
L 173.179001 173.068895 
L 172.118341 174.129555 
L 173.179001 175.190215 
L 172.118341 176.250875 
z
" clip-path="url(#p3caa25a26e)" style="fill: #88ccee; fill-opacity: 0.6; stroke: #ffffff; stroke-opacity: 0.6; stroke-width: 0.339411"/>
    <path d="M 192.660955 135.356776 
L 193.721615 134.296116 
L 194.782275 135.356776 
L 195.842936 134.296116 
L 194.782275 133.235456 
L 195.842936 132.174796 
L 194.782275 131.114136 
L 193.721615 132.174796 
L 192.660955 131.114136 
L 191.600295 132.174796 
L 192.660955 133.235456 
L 191.600295 134.296116 
z
" clip-path="url(#p3caa25a26e)" style="fill: #88ccee; fill-opacity: 0.6; stroke: #ffffff; stroke-opacity: 0.6; stroke-width: 0.339411"/>
    <path d="M 148.127179 155.555292 
L 149.187839 154.494632 
L 150.248499 155.555292 
L 151.309159 154.494632 
L 150.248499 153.433972 
L 151.309159 152.373311 
L 150.248499 151.312651 
L 149.187839 152.373311 
L 148.127179 151.312651 
L 147.066519 152.373311 
L 148.127179 153.433972 
L 147.066519 154.494632 
z
" clip-path="url(#p3caa25a26e)" style="fill: #88ccee; fill-opacity: 0.6; stroke: #ffffff; stroke-opacity: 0.6; stroke-width: 0.339411"/>
    <path d="M 190.372627 138.042818 
L 191.433288 136.982157 
L 192.493948 138.042818 
L 193.554608 136.982157 
L 192.493948 135.921497 
L 193.554608 134.860837 
L 192.493948 133.800177 
L 191.433288 134.860837 
L 190.372627 133.800177 
L 189.311967 134.860837 
L 190.372627 135.921497 
L 189.311967 136.982157 
z
" clip-path="url(#p3caa25a26e)" style="fill: #88ccee; fill-opacity: 0.6; stroke: #ffffff; stroke-opacity: 0.6; stroke-width: 0.339411"/>
    <path d="M 161.959132 153.425622 
L 163.019792 152.364962 
L 164.080453 153.425622 
L 165.141113 152.364962 
L 164.080453 151.304301 
L 165.141113 150.243641 
L 164.080453 149.182981 
L 163.019792 150.243641 
L 161.959132 149.182981 
L 160.898472 150.243641 
L 161.959132 151.304301 
L 160.898472 152.364962 
z
" clip-path="url(#p3caa25a26e)" style="fill: #88ccee; fill-opacity: 0.6; stroke: #ffffff; stroke-opacity: 0.6; stroke-width: 0.339411"/>
    <path d="M 152.376023 155.510964 
L 153.436683 154.450304 
L 154.497344 155.510964 
L 155.558004 154.450304 
L 154.497344 153.389644 
L 155.558004 152.328984 
L 154.497344 151.268323 
L 153.436683 152.328984 
L 152.376023 151.268323 
L 151.315363 152.328984 
L 152.376023 153.389644 
L 151.315363 154.450304 
z
" clip-path="url(#p3caa25a26e)" style="fill: #88ccee; fill-opacity: 0.6; stroke: #ffffff; stroke-opacity: 0.6; stroke-width: 0.339411"/>
    <path d="M 203.74484 129.361157 
L 204.8055 128.300497 
L 205.86616 129.361157 
L 206.92682 128.300497 
L 205.86616 127.239837 
L 206.92682 126.179177 
L 205.86616 125.118517 
L 204.8055 126.179177 
L 203.74484 125.118517 
L 202.68418 126.179177 
L 203.74484 127.239837 
L 202.68418 128.300497 
z
" clip-path="url(#p3caa25a26e)" style="fill: #88ccee; fill-opacity: 0.6; stroke: #ffffff; stroke-opacity: 0.6; stroke-width: 0.339411"/>
    <path d="M 180.194053 173.615274 
L 181.254713 172.554614 
L 182.315373 173.615274 
L 183.376033 172.554614 
L 182.315373 171.493954 
L 183.376033 170.433294 
L 182.315373 169.372634 
L 181.254713 170.433294 
L 180.194053 169.372634 
L 179.133392 170.433294 
L 180.194053 171.493954 
L 179.133392 172.554614 
z
" clip-path="url(#p3caa25a26e)" style="fill: #88ccee; fill-opacity: 0.6; stroke: #ffffff; stroke-opacity: 0.6; stroke-width: 0.339411"/>
    <path d="M 155.076143 157.352037 
L 156.136803 156.291377 
L 157.197463 157.352037 
L 158.258124 156.291377 
L 157.197463 155.230717 
L 158.258124 154.170057 
L 157.197463 153.109397 
L 156.136803 154.170057 
L 155.076143 153.109397 
L 154.015483 154.170057 
L 155.076143 155.230717 
L 154.015483 156.291377 
z
" clip-path="url(#p3caa25a26e)" style="fill: #88ccee; fill-opacity: 0.6; stroke: #ffffff; stroke-opacity: 0.6; stroke-width: 0.339411"/>
    <path d="M 194.32893 129.181372 
L 195.389591 128.120712 
L 196.450251 129.181372 
L 197.510911 128.120712 
L 196.450251 127.060051 
L 197.510911 125.999391 
L 196.450251 124.938731 
L 195.389591 125.999391 
L 194.32893 124.938731 
L 193.26827 125.999391 
L 194.32893 127.060051 
L 193.26827 128.120712 
z
" clip-path="url(#p3caa25a26e)" style="fill: #88ccee; fill-opacity: 0.6; stroke: #ffffff; stroke-opacity: 0.6; stroke-width: 0.339411"/>
    <path d="M 152.66122 157.27301 
L 153.72188 156.21235 
L 154.78254 157.27301 
L 155.8432 156.21235 
L 154.78254 155.15169 
L 155.8432 154.09103 
L 154.78254 153.03037 
L 153.72188 154.09103 
L 152.66122 153.03037 
L 151.60056 154.09103 
L 152.66122 155.15169 
L 151.60056 156.21235 
z
" clip-path="url(#p3caa25a26e)" style="fill: #88ccee; fill-opacity: 0.6; stroke: #ffffff; stroke-opacity: 0.6; stroke-width: 0.339411"/>
    <path d="M 203.30633 126.509204 
L 204.36699 125.448543 
L 205.42765 126.509204 
L 206.48831 125.448543 
L 205.42765 124.387883 
L 206.48831 123.327223 
L 205.42765 122.266563 
L 204.36699 123.327223 
L 203.30633 122.266563 
L 202.24567 123.327223 
L 203.30633 124.387883 
L 202.24567 125.448543 
z
" clip-path="url(#p3caa25a26e)" style="fill: #88ccee; fill-opacity: 0.6; stroke: #ffffff; stroke-opacity: 0.6; stroke-width: 0.339411"/>
    <path d="M 195.512285 136.696443 
L 196.572945 135.635783 
L 197.633605 136.696443 
L 198.694266 135.635783 
L 197.633605 134.575123 
L 198.694266 133.514463 
L 197.633605 132.453803 
L 196.572945 133.514463 
L 195.512285 132.453803 
L 194.451625 133.514463 
L 195.512285 134.575123 
L 194.451625 135.635783 
z
" clip-path="url(#p3caa25a26e)" style="fill: #88ccee; fill-opacity: 0.6; stroke: #ffffff; stroke-opacity: 0.6; stroke-width: 0.339411"/>
    <path d="M 167.542269 164.53702 
L 168.602929 163.476359 
L 169.66359 164.53702 
L 170.72425 163.476359 
L 169.66359 162.415699 
L 170.72425 161.355039 
L 169.66359 160.294379 
L 168.602929 161.355039 
L 167.542269 160.294379 
L 166.481609 161.355039 
L 167.542269 162.415699 
L 166.481609 163.476359 
z
" clip-path="url(#p3caa25a26e)" style="fill: #88ccee; fill-opacity: 0.6; stroke: #ffffff; stroke-opacity: 0.6; stroke-width: 0.339411"/>
    <path d="M 168.222638 161.100674 
L 169.283299 160.040013 
L 170.343959 161.100674 
L 171.404619 160.040013 
L 170.343959 158.979353 
L 171.404619 157.918693 
L 170.343959 156.858033 
L 169.283299 157.918693 
L 168.222638 156.858033 
L 167.161978 157.918693 
L 168.222638 158.979353 
L 167.161978 160.040013 
z
" clip-path="url(#p3caa25a26e)" style="fill: #88ccee; fill-opacity: 0.6; stroke: #ffffff; stroke-opacity: 0.6; stroke-width: 0.339411"/>
    <path d="M 146.831108 157.687911 
L 147.891769 156.627251 
L 148.952429 157.687911 
L 150.013089 156.627251 
L 148.952429 155.566591 
L 150.013089 154.505931 
L 148.952429 153.44527 
L 147.891769 154.505931 
L 146.831108 153.44527 
L 145.770448 154.505931 
L 146.831108 155.566591 
L 145.770448 156.627251 
z
" clip-path="url(#p3caa25a26e)" style="fill: #88ccee; fill-opacity: 0.6; stroke: #ffffff; stroke-opacity: 0.6; stroke-width: 0.339411"/>
    <path d="M 149.402304 157.156619 
L 150.462964 156.095959 
L 151.523624 157.156619 
L 152.584284 156.095959 
L 151.523624 155.035299 
L 152.584284 153.974638 
L 151.523624 152.913978 
L 150.462964 153.974638 
L 149.402304 152.913978 
L 148.341644 153.974638 
L 149.402304 155.035299 
L 148.341644 156.095959 
z
" clip-path="url(#p3caa25a26e)" style="fill: #88ccee; fill-opacity: 0.6; stroke: #ffffff; stroke-opacity: 0.6; stroke-width: 0.339411"/>
    <path d="M 149.440838 159.245795 
L 150.501498 158.185134 
L 151.562158 159.245795 
L 152.622818 158.185134 
L 151.562158 157.124474 
L 152.622818 156.063814 
L 151.562158 155.003154 
L 150.501498 156.063814 
L 149.440838 155.003154 
L 148.380178 156.063814 
L 149.440838 157.124474 
L 148.380178 158.185134 
z
" clip-path="url(#p3caa25a26e)" style="fill: #88ccee; fill-opacity: 0.6; stroke: #ffffff; stroke-opacity: 0.6; stroke-width: 0.339411"/>
    <path d="M 176.975243 173.054931 
L 178.035903 171.994271 
L 179.096563 173.054931 
L 180.157224 171.994271 
L 179.096563 170.933611 
L 180.157224 169.872951 
L 179.096563 168.812291 
L 178.035903 169.872951 
L 176.975243 168.812291 
L 175.914583 169.872951 
L 176.975243 170.933611 
L 175.914583 171.994271 
z
" clip-path="url(#p3caa25a26e)" style="fill: #88ccee; fill-opacity: 0.6; stroke: #ffffff; stroke-opacity: 0.6; stroke-width: 0.339411"/>
    <path d="M 182.637737 143.532297 
L 183.698397 142.471637 
L 184.759057 143.532297 
L 185.819717 142.471637 
L 184.759057 141.410976 
L 185.819717 140.350316 
L 184.759057 139.289656 
L 183.698397 140.350316 
L 182.637737 139.289656 
L 181.577077 140.350316 
L 182.637737 141.410976 
L 181.577077 142.471637 
z
" clip-path="url(#p3caa25a26e)" style="fill: #88ccee; fill-opacity: 0.6; stroke: #ffffff; stroke-opacity: 0.6; stroke-width: 0.339411"/>
    <path d="M 168.271164 161.346805 
L 169.331824 160.286144 
L 170.392485 161.346805 
L 171.453145 160.286144 
L 170.392485 159.225484 
L 171.453145 158.164824 
L 170.392485 157.104164 
L 169.331824 158.164824 
L 168.271164 157.104164 
L 167.210504 158.164824 
L 168.271164 159.225484 
L 167.210504 160.286144 
z
" clip-path="url(#p3caa25a26e)" style="fill: #88ccee; fill-opacity: 0.6; stroke: #ffffff; stroke-opacity: 0.6; stroke-width: 0.339411"/>
    <path d="M 166.411335 173.91945 
L 167.471995 172.85879 
L 168.532655 173.91945 
L 169.593315 172.85879 
L 168.532655 171.79813 
L 169.593315 170.73747 
L 168.532655 169.676809 
L 167.471995 170.73747 
L 166.411335 169.676809 
L 165.350675 170.73747 
L 166.411335 171.79813 
L 165.350675 172.85879 
z
" clip-path="url(#p3caa25a26e)" style="fill: #88ccee; fill-opacity: 0.6; stroke: #ffffff; stroke-opacity: 0.6; stroke-width: 0.339411"/>
    <path d="M 162.990003 167.531313 
L 164.050663 166.470653 
L 165.111323 167.531313 
L 166.171984 166.470653 
L 165.111323 165.409993 
L 166.171984 164.349333 
L 165.111323 163.288673 
L 164.050663 164.349333 
L 162.990003 163.288673 
L 161.929343 164.349333 
L 162.990003 165.409993 
L 161.929343 166.470653 
z
" clip-path="url(#p3caa25a26e)" style="fill: #88ccee; fill-opacity: 0.6; stroke: #ffffff; stroke-opacity: 0.6; stroke-width: 0.339411"/>
    <path d="M 201.581973 138.619242 
L 202.642634 137.558582 
L 203.703294 138.619242 
L 204.763954 137.558582 
L 203.703294 136.497922 
L 204.763954 135.437261 
L 203.703294 134.376601 
L 202.642634 135.437261 
L 201.581973 134.376601 
L 200.521313 135.437261 
L 201.581973 136.497922 
L 200.521313 137.558582 
z
" clip-path="url(#p3caa25a26e)" style="fill: #88ccee; fill-opacity: 0.6; stroke: #ffffff; stroke-opacity: 0.6; stroke-width: 0.339411"/>
    <path d="M 149.542248 156.709681 
L 150.602909 155.649021 
L 151.663569 156.709681 
L 152.724229 155.649021 
L 151.663569 154.588361 
L 152.724229 153.527701 
L 151.663569 152.467041 
L 150.602909 153.527701 
L 149.542248 152.467041 
L 148.481588 153.527701 
L 149.542248 154.588361 
L 148.481588 155.649021 
z
" clip-path="url(#p3caa25a26e)" style="fill: #88ccee; fill-opacity: 0.6; stroke: #ffffff; stroke-opacity: 0.6; stroke-width: 0.339411"/>
    <path d="M 174.150571 165.339737 
L 175.211231 164.279076 
L 176.271891 165.339737 
L 177.332552 164.279076 
L 176.271891 163.218416 
L 177.332552 162.157756 
L 176.271891 161.097096 
L 175.211231 162.157756 
L 174.150571 161.097096 
L 173.089911 162.157756 
L 174.150571 163.218416 
L 173.089911 164.279076 
z
" clip-path="url(#p3caa25a26e)" style="fill: #88ccee; fill-opacity: 0.6; stroke: #ffffff; stroke-opacity: 0.6; stroke-width: 0.339411"/>
    <path d="M 178.199918 178.061939 
L 179.260578 177.001279 
L 180.321239 178.061939 
L 181.381899 177.001279 
L 180.321239 175.940619 
L 181.381899 174.879959 
L 180.321239 173.819299 
L 179.260578 174.879959 
L 178.199918 173.819299 
L 177.139258 174.879959 
L 178.199918 175.940619 
L 177.139258 177.001279 
z
" clip-path="url(#p3caa25a26e)" style="fill: #88ccee; fill-opacity: 0.6; stroke: #ffffff; stroke-opacity: 0.6; stroke-width: 0.339411"/>
    <path d="M 174.058661 175.096566 
L 175.119322 174.035906 
L 176.179982 175.096566 
L 177.240642 174.035906 
L 176.179982 172.975246 
L 177.240642 171.914585 
L 176.179982 170.853925 
L 175.119322 171.914585 
L 174.058661 170.853925 
L 172.998001 171.914585 
L 174.058661 172.975246 
L 172.998001 174.035906 
z
" clip-path="url(#p3caa25a26e)" style="fill: #88ccee; fill-opacity: 0.6; stroke: #ffffff; stroke-opacity: 0.6; stroke-width: 0.339411"/>
    <path d="M 203.962018 129.375863 
L 205.022678 128.315203 
L 206.083339 129.375863 
L 207.143999 128.315203 
L 206.083339 127.254543 
L 207.143999 126.193882 
L 206.083339 125.133222 
L 205.022678 126.193882 
L 203.962018 125.133222 
L 202.901358 126.193882 
L 203.962018 127.254543 
L 202.901358 128.315203 
z
" clip-path="url(#p3caa25a26e)" style="fill: #88ccee; fill-opacity: 0.6; stroke: #ffffff; stroke-opacity: 0.6; stroke-width: 0.339411"/>
    <path d="M 177.729655 138.308157 
L 178.790315 137.247497 
L 179.850975 138.308157 
L 180.911635 137.247497 
L 179.850975 136.186837 
L 180.911635 135.126176 
L 179.850975 134.065516 
L 178.790315 135.126176 
L 177.729655 134.065516 
L 176.668995 135.126176 
L 177.729655 136.186837 
L 176.668995 137.247497 
z
" clip-path="url(#p3caa25a26e)" style="fill: #88ccee; fill-opacity: 0.6; stroke: #ffffff; stroke-opacity: 0.6; stroke-width: 0.339411"/>
    <path d="M 198.964448 128.378282 
L 200.025108 127.317621 
L 201.085768 128.378282 
L 202.146429 127.317621 
L 201.085768 126.256961 
L 202.146429 125.196301 
L 201.085768 124.135641 
L 200.025108 125.196301 
L 198.964448 124.135641 
L 197.903788 125.196301 
L 198.964448 126.256961 
L 197.903788 127.317621 
z
" clip-path="url(#p3caa25a26e)" style="fill: #88ccee; fill-opacity: 0.6; stroke: #ffffff; stroke-opacity: 0.6; stroke-width: 0.339411"/>
    <path d="M 168.867844 173.004812 
L 169.928504 171.944151 
L 170.989164 173.004812 
L 172.049825 171.944151 
L 170.989164 170.883491 
L 172.049825 169.822831 
L 170.989164 168.762171 
L 169.928504 169.822831 
L 168.867844 168.762171 
L 167.807184 169.822831 
L 168.867844 170.883491 
L 167.807184 171.944151 
z
" clip-path="url(#p3caa25a26e)" style="fill: #88ccee; fill-opacity: 0.6; stroke: #ffffff; stroke-opacity: 0.6; stroke-width: 0.339411"/>
    <path d="M 166.609532 172.776747 
L 167.670192 171.716087 
L 168.730852 172.776747 
L 169.791512 171.716087 
L 168.730852 170.655427 
L 169.791512 169.594767 
L 168.730852 168.534106 
L 167.670192 169.594767 
L 166.609532 168.534106 
L 165.548871 169.594767 
L 166.609532 170.655427 
L 165.548871 171.716087 
z
" clip-path="url(#p3caa25a26e)" style="fill: #88ccee; fill-opacity: 0.6; stroke: #ffffff; stroke-opacity: 0.6; stroke-width: 0.339411"/>
    <path d="M 154.035931 102.243948 
L 155.096591 101.183288 
L 156.157251 102.243948 
L 157.217911 101.183288 
L 156.157251 100.122628 
L 157.217911 99.061968 
L 156.157251 98.001308 
L 155.096591 99.061968 
L 154.035931 98.001308 
L 152.975271 99.061968 
L 154.035931 100.122628 
L 152.975271 101.183288 
z
" clip-path="url(#p3caa25a26e)" style="fill: #88ccee; fill-opacity: 0.6; stroke: #ffffff; stroke-opacity: 0.6; stroke-width: 0.339411"/>
    <path d="M 196.386731 138.59754 
L 197.447391 137.53688 
L 198.508051 138.59754 
L 199.568711 137.53688 
L 198.508051 136.47622 
L 199.568711 135.41556 
L 198.508051 134.354899 
L 197.447391 135.41556 
L 196.386731 134.354899 
L 195.326071 135.41556 
L 196.386731 136.47622 
L 195.326071 137.53688 
z
" clip-path="url(#p3caa25a26e)" style="fill: #88ccee; fill-opacity: 0.6; stroke: #ffffff; stroke-opacity: 0.6; stroke-width: 0.339411"/>
    <path d="M 205.068836 140.579981 
L 206.129496 139.519321 
L 207.190156 140.579981 
L 208.250816 139.519321 
L 207.190156 138.45866 
L 208.250816 137.398 
L 207.190156 136.33734 
L 206.129496 137.398 
L 205.068836 136.33734 
L 204.008176 137.398 
L 205.068836 138.45866 
L 204.008176 139.519321 
z
" clip-path="url(#p3caa25a26e)" style="fill: #88ccee; fill-opacity: 0.6; stroke: #ffffff; stroke-opacity: 0.6; stroke-width: 0.339411"/>
    <path d="M 188.391497 141.700084 
L 189.452157 140.639424 
L 190.512817 141.700084 
L 191.573477 140.639424 
L 190.512817 139.578764 
L 191.573477 138.518104 
L 190.512817 137.457443 
L 189.452157 138.518104 
L 188.391497 137.457443 
L 187.330837 138.518104 
L 188.391497 139.578764 
L 187.330837 140.639424 
z
" clip-path="url(#p3caa25a26e)" style="fill: #88ccee; fill-opacity: 0.6; stroke: #ffffff; stroke-opacity: 0.6; stroke-width: 0.339411"/>
    <path d="M 147.413484 154.755832 
L 148.474144 153.695172 
L 149.534804 154.755832 
L 150.595464 153.695172 
L 149.534804 152.634512 
L 150.595464 151.573852 
L 149.534804 150.513192 
L 148.474144 151.573852 
L 147.413484 150.513192 
L 146.352824 151.573852 
L 147.413484 152.634512 
L 146.352824 153.695172 
z
" clip-path="url(#p3caa25a26e)" style="fill: #88ccee; fill-opacity: 0.6; stroke: #ffffff; stroke-opacity: 0.6; stroke-width: 0.339411"/>
    <path d="M 201.131123 133.934319 
L 202.191783 132.873659 
L 203.252443 133.934319 
L 204.313103 132.873659 
L 203.252443 131.812999 
L 204.313103 130.752339 
L 203.252443 129.691679 
L 202.191783 130.752339 
L 201.131123 129.691679 
L 200.070463 130.752339 
L 201.131123 131.812999 
L 200.070463 132.873659 
z
" clip-path="url(#p3caa25a26e)" style="fill: #88ccee; fill-opacity: 0.6; stroke: #ffffff; stroke-opacity: 0.6; stroke-width: 0.339411"/>
    <path d="M 170.368481 174.586548 
L 171.429141 173.525888 
L 172.489801 174.586548 
L 173.550461 173.525888 
L 172.489801 172.465227 
L 173.550461 171.404567 
L 172.489801 170.343907 
L 171.429141 171.404567 
L 170.368481 170.343907 
L 169.30782 171.404567 
L 170.368481 172.465227 
L 169.30782 173.525888 
z
" clip-path="url(#p3caa25a26e)" style="fill: #88ccee; fill-opacity: 0.6; stroke: #ffffff; stroke-opacity: 0.6; stroke-width: 0.339411"/>
    <path d="M 194.67356 132.161231 
L 195.73422 131.100571 
L 196.794881 132.161231 
L 197.855541 131.100571 
L 196.794881 130.039911 
L 197.855541 128.979251 
L 196.794881 127.918591 
L 195.73422 128.979251 
L 194.67356 127.918591 
L 193.6129 128.979251 
L 194.67356 130.039911 
L 193.6129 131.100571 
z
" clip-path="url(#p3caa25a26e)" style="fill: #88ccee; fill-opacity: 0.6; stroke: #ffffff; stroke-opacity: 0.6; stroke-width: 0.339411"/>
    <path d="M 191.638013 136.268927 
L 192.698673 135.208267 
L 193.759333 136.268927 
L 194.819993 135.208267 
L 193.759333 134.147607 
L 194.819993 133.086946 
L 193.759333 132.026286 
L 192.698673 133.086946 
L 191.638013 132.026286 
L 190.577353 133.086946 
L 191.638013 134.147607 
L 190.577353 135.208267 
z
" clip-path="url(#p3caa25a26e)" style="fill: #88ccee; fill-opacity: 0.6; stroke: #ffffff; stroke-opacity: 0.6; stroke-width: 0.339411"/>
    <path d="M 205.750505 128.775912 
L 206.811165 127.715252 
L 207.871826 128.775912 
L 208.932486 127.715252 
L 207.871826 126.654592 
L 208.932486 125.593932 
L 207.871826 124.533272 
L 206.811165 125.593932 
L 205.750505 124.533272 
L 204.689845 125.593932 
L 205.750505 126.654592 
L 204.689845 127.715252 
z
" clip-path="url(#p3caa25a26e)" style="fill: #88ccee; fill-opacity: 0.6; stroke: #ffffff; stroke-opacity: 0.6; stroke-width: 0.339411"/>
    <path d="M 155.601394 158.333594 
L 156.662055 157.272934 
L 157.722715 158.333594 
L 158.783375 157.272934 
L 157.722715 156.212274 
L 158.783375 155.151614 
L 157.722715 154.090954 
L 156.662055 155.151614 
L 155.601394 154.090954 
L 154.540734 155.151614 
L 155.601394 156.212274 
L 154.540734 157.272934 
z
" clip-path="url(#p3caa25a26e)" style="fill: #88ccee; fill-opacity: 0.6; stroke: #ffffff; stroke-opacity: 0.6; stroke-width: 0.339411"/>
    <path d="M 148.885306 159.551652 
L 149.945966 158.490992 
L 151.006627 159.551652 
L 152.067287 158.490992 
L 151.006627 157.430332 
L 152.067287 156.369672 
L 151.006627 155.309012 
L 149.945966 156.369672 
L 148.885306 155.309012 
L 147.824646 156.369672 
L 148.885306 157.430332 
L 147.824646 158.490992 
z
" clip-path="url(#p3caa25a26e)" style="fill: #88ccee; fill-opacity: 0.6; stroke: #ffffff; stroke-opacity: 0.6; stroke-width: 0.339411"/>
    <path d="M 194.363948 139.486187 
L 195.424608 138.425527 
L 196.485268 139.486187 
L 197.545929 138.425527 
L 196.485268 137.364867 
L 197.545929 136.304207 
L 196.485268 135.243547 
L 195.424608 136.304207 
L 194.363948 135.243547 
L 193.303288 136.304207 
L 194.363948 137.364867 
L 193.303288 138.425527 
z
" clip-path="url(#p3caa25a26e)" style="fill: #88ccee; fill-opacity: 0.6; stroke: #ffffff; stroke-opacity: 0.6; stroke-width: 0.339411"/>
    <path d="M 189.85896 140.788236 
L 190.91962 139.727575 
L 191.980281 140.788236 
L 193.040941 139.727575 
L 191.980281 138.666915 
L 193.040941 137.606255 
L 191.980281 136.545595 
L 190.91962 137.606255 
L 189.85896 136.545595 
L 188.7983 137.606255 
L 189.85896 138.666915 
L 188.7983 139.727575 
z
" clip-path="url(#p3caa25a26e)" style="fill: #88ccee; fill-opacity: 0.6; stroke: #ffffff; stroke-opacity: 0.6; stroke-width: 0.339411"/>
    <path d="M 198.37991 131.063991 
L 199.44057 130.003331 
L 200.50123 131.063991 
L 201.56189 130.003331 
L 200.50123 128.942671 
L 201.56189 127.882011 
L 200.50123 126.82135 
L 199.44057 127.882011 
L 198.37991 126.82135 
L 197.31925 127.882011 
L 198.37991 128.942671 
L 197.31925 130.003331 
z
" clip-path="url(#p3caa25a26e)" style="fill: #88ccee; fill-opacity: 0.6; stroke: #ffffff; stroke-opacity: 0.6; stroke-width: 0.339411"/>
    <path d="M 204.871163 129.642443 
L 205.931823 128.581783 
L 206.992484 129.642443 
L 208.053144 128.581783 
L 206.992484 127.521122 
L 208.053144 126.460462 
L 206.992484 125.399802 
L 205.931823 126.460462 
L 204.871163 125.399802 
L 203.810503 126.460462 
L 204.871163 127.521122 
L 203.810503 128.581783 
z
" clip-path="url(#p3caa25a26e)" style="fill: #88ccee; fill-opacity: 0.6; stroke: #ffffff; stroke-opacity: 0.6; stroke-width: 0.339411"/>
    <path d="M 153.049632 160.224047 
L 154.110292 159.163386 
L 155.170952 160.224047 
L 156.231612 159.163386 
L 155.170952 158.102726 
L 156.231612 157.042066 
L 155.170952 155.981406 
L 154.110292 157.042066 
L 153.049632 155.981406 
L 151.988972 157.042066 
L 153.049632 158.102726 
L 151.988972 159.163386 
z
" clip-path="url(#p3caa25a26e)" style="fill: #88ccee; fill-opacity: 0.6; stroke: #ffffff; stroke-opacity: 0.6; stroke-width: 0.339411"/>
    <path d="M 173.274201 161.609067 
L 174.334861 160.548407 
L 175.395522 161.609067 
L 176.456182 160.548407 
L 175.395522 159.487747 
L 176.456182 158.427087 
L 175.395522 157.366426 
L 174.334861 158.427087 
L 173.274201 157.366426 
L 172.213541 158.427087 
L 173.274201 159.487747 
L 172.213541 160.548407 
z
" clip-path="url(#p3caa25a26e)" style="fill: #88ccee; fill-opacity: 0.6; stroke: #ffffff; stroke-opacity: 0.6; stroke-width: 0.339411"/>
    <path d="M 212.080059 134.080699 
L 213.140719 133.020039 
L 214.20138 134.080699 
L 215.26204 133.020039 
L 214.20138 131.959379 
L 215.26204 130.898719 
L 214.20138 129.838059 
L 213.140719 130.898719 
L 212.080059 129.838059 
L 211.019399 130.898719 
L 212.080059 131.959379 
L 211.019399 133.020039 
z
" clip-path="url(#p3caa25a26e)" style="fill: #88ccee; fill-opacity: 0.6; stroke: #ffffff; stroke-opacity: 0.6; stroke-width: 0.339411"/>
    <path d="M 181.475441 151.827353 
L 182.536101 150.766693 
L 183.596761 151.827353 
L 184.657421 150.766693 
L 183.596761 149.706033 
L 184.657421 148.645373 
L 183.596761 147.584713 
L 182.536101 148.645373 
L 181.475441 147.584713 
L 180.414781 148.645373 
L 181.475441 149.706033 
L 180.414781 150.766693 
z
" clip-path="url(#p3caa25a26e)" style="fill: #88ccee; fill-opacity: 0.6; stroke: #ffffff; stroke-opacity: 0.6; stroke-width: 0.339411"/>
    <path d="M 157.617596 167.695162 
L 158.678256 166.634502 
L 159.738916 167.695162 
L 160.799576 166.634502 
L 159.738916 165.573842 
L 160.799576 164.513182 
L 159.738916 163.452522 
L 158.678256 164.513182 
L 157.617596 163.452522 
L 156.556935 164.513182 
L 157.617596 165.573842 
L 156.556935 166.634502 
z
" clip-path="url(#p3caa25a26e)" style="fill: #88ccee; fill-opacity: 0.6; stroke: #ffffff; stroke-opacity: 0.6; stroke-width: 0.339411"/>
    <path d="M 152.628863 159.908909 
L 153.689523 158.848249 
L 154.750183 159.908909 
L 155.810843 158.848249 
L 154.750183 157.787589 
L 155.810843 156.726929 
L 154.750183 155.666269 
L 153.689523 156.726929 
L 152.628863 155.666269 
L 151.568203 156.726929 
L 152.628863 157.787589 
L 151.568203 158.848249 
z
" clip-path="url(#p3caa25a26e)" style="fill: #88ccee; fill-opacity: 0.6; stroke: #ffffff; stroke-opacity: 0.6; stroke-width: 0.339411"/>
    <path d="M 197.368631 136.410351 
L 198.429291 135.349691 
L 199.489951 136.410351 
L 200.550612 135.349691 
L 199.489951 134.289031 
L 200.550612 133.22837 
L 199.489951 132.16771 
L 198.429291 133.22837 
L 197.368631 132.16771 
L 196.307971 133.22837 
L 197.368631 134.289031 
L 196.307971 135.349691 
z
" clip-path="url(#p3caa25a26e)" style="fill: #88ccee; fill-opacity: 0.6; stroke: #ffffff; stroke-opacity: 0.6; stroke-width: 0.339411"/>
    <path d="M 151.579322 154.545352 
L 152.639982 153.484692 
L 153.700643 154.545352 
L 154.761303 153.484692 
L 153.700643 152.424031 
L 154.761303 151.363371 
L 153.700643 150.302711 
L 152.639982 151.363371 
L 151.579322 150.302711 
L 150.518662 151.363371 
L 151.579322 152.424031 
L 150.518662 153.484692 
z
" clip-path="url(#p3caa25a26e)" style="fill: #88ccee; fill-opacity: 0.6; stroke: #ffffff; stroke-opacity: 0.6; stroke-width: 0.339411"/>
    <path d="M 151.585731 162.431048 
L 152.646391 161.370387 
L 153.707052 162.431048 
L 154.767712 161.370387 
L 153.707052 160.309727 
L 154.767712 159.249067 
L 153.707052 158.188407 
L 152.646391 159.249067 
L 151.585731 158.188407 
L 150.525071 159.249067 
L 151.585731 160.309727 
L 150.525071 161.370387 
z
" clip-path="url(#p3caa25a26e)" style="fill: #88ccee; fill-opacity: 0.6; stroke: #ffffff; stroke-opacity: 0.6; stroke-width: 0.339411"/>
    <path d="M 198.420381 137.495519 
L 199.481041 136.434859 
L 200.541701 137.495519 
L 201.602362 136.434859 
L 200.541701 135.374199 
L 201.602362 134.313539 
L 200.541701 133.252879 
L 199.481041 134.313539 
L 198.420381 133.252879 
L 197.359721 134.313539 
L 198.420381 135.374199 
L 197.359721 136.434859 
z
" clip-path="url(#p3caa25a26e)" style="fill: #88ccee; fill-opacity: 0.6; stroke: #ffffff; stroke-opacity: 0.6; stroke-width: 0.339411"/>
    <path d="M 158.557333 164.071114 
L 159.617993 163.010454 
L 160.678653 164.071114 
L 161.739313 163.010454 
L 160.678653 161.949794 
L 161.739313 160.889134 
L 160.678653 159.828474 
L 159.617993 160.889134 
L 158.557333 159.828474 
L 157.496673 160.889134 
L 158.557333 161.949794 
L 157.496673 163.010454 
z
" clip-path="url(#p3caa25a26e)" style="fill: #88ccee; fill-opacity: 0.6; stroke: #ffffff; stroke-opacity: 0.6; stroke-width: 0.339411"/>
    <path d="M 201.750148 132.807774 
L 202.810808 131.747114 
L 203.871469 132.807774 
L 204.932129 131.747114 
L 203.871469 130.686453 
L 204.932129 129.625793 
L 203.871469 128.565133 
L 202.810808 129.625793 
L 201.750148 128.565133 
L 200.689488 129.625793 
L 201.750148 130.686453 
L 200.689488 131.747114 
z
" clip-path="url(#p3caa25a26e)" style="fill: #88ccee; fill-opacity: 0.6; stroke: #ffffff; stroke-opacity: 0.6; stroke-width: 0.339411"/>
    <path d="M 202.183523 128.93374 
L 203.244183 127.87308 
L 204.304843 128.93374 
L 205.365504 127.87308 
L 204.304843 126.81242 
L 205.365504 125.75176 
L 204.304843 124.6911 
L 203.244183 125.75176 
L 202.183523 124.6911 
L 201.122863 125.75176 
L 202.183523 126.81242 
L 201.122863 127.87308 
z
" clip-path="url(#p3caa25a26e)" style="fill: #88ccee; fill-opacity: 0.6; stroke: #ffffff; stroke-opacity: 0.6; stroke-width: 0.339411"/>
    <path d="M 178.650941 150.905394 
L 179.711601 149.844733 
L 180.772262 150.905394 
L 181.832922 149.844733 
L 180.772262 148.784073 
L 181.832922 147.723413 
L 180.772262 146.662753 
L 179.711601 147.723413 
L 178.650941 146.662753 
L 177.590281 147.723413 
L 178.650941 148.784073 
L 177.590281 149.844733 
z
" clip-path="url(#p3caa25a26e)" style="fill: #88ccee; fill-opacity: 0.6; stroke: #ffffff; stroke-opacity: 0.6; stroke-width: 0.339411"/>
    <path d="M 166.024383 161.366388 
L 167.085043 160.305728 
L 168.145703 161.366388 
L 169.206363 160.305728 
L 168.145703 159.245068 
L 169.206363 158.184408 
L 168.145703 157.123748 
L 167.085043 158.184408 
L 166.024383 157.123748 
L 164.963723 158.184408 
L 166.024383 159.245068 
L 164.963723 160.305728 
z
" clip-path="url(#p3caa25a26e)" style="fill: #88ccee; fill-opacity: 0.6; stroke: #ffffff; stroke-opacity: 0.6; stroke-width: 0.339411"/>
   </g>
   <g id="matplotlib.axis_1">
    <g id="xtick_1">
     <g id="line2d_1">
      <defs>
       <path id="md8a714ff8a" d="M 0 0 
L 0 8 
" style="stroke: #000000"/>
      </defs>
      <g>
       <use xlink:href="#md8a714ff8a" x="71.822952" y="188.936063" style="stroke: #000000"/>
      </g>
     </g>
     <g id="text_1">
      <!-- 0 -->
      <g transform="translate(68.005452 209.554188) scale(0.12 -0.12)">
       <defs>
        <path id="DejaVuSans-30" d="M 2034 4250 
Q 1547 4250 1301 3770 
Q 1056 3291 1056 2328 
Q 1056 1369 1301 889 
Q 1547 409 2034 409 
Q 2525 409 2770 889 
Q 3016 1369 3016 2328 
Q 3016 3291 2770 3770 
Q 2525 4250 2034 4250 
z
M 2034 4750 
Q 2819 4750 3233 4129 
Q 3647 3509 3647 2328 
Q 3647 1150 3233 529 
Q 2819 -91 2034 -91 
Q 1250 -91 836 529 
Q 422 1150 422 2328 
Q 422 3509 836 4129 
Q 1250 4750 2034 4750 
z
" transform="scale(0.015625)"/>
       </defs>
       <use xlink:href="#DejaVuSans-30"/>
      </g>
     </g>
    </g>
    <g id="xtick_2">
     <g id="line2d_2">
      <g>
       <use xlink:href="#md8a714ff8a" x="141.392209" y="188.936063" style="stroke: #000000"/>
      </g>
     </g>
     <g id="text_2">
      <!-- 10 -->
      <g transform="translate(133.757209 209.554188) scale(0.12 -0.12)">
       <defs>
        <path id="DejaVuSans-31" d="M 794 531 
L 1825 531 
L 1825 4091 
L 703 3866 
L 703 4441 
L 1819 4666 
L 2450 4666 
L 2450 531 
L 3481 531 
L 3481 0 
L 794 0 
L 794 531 
z
" transform="scale(0.015625)"/>
       </defs>
       <use xlink:href="#DejaVuSans-31"/>
       <use xlink:href="#DejaVuSans-30" x="63.623047"/>
      </g>
     </g>
    </g>
    <g id="xtick_3">
     <g id="line2d_3">
      <g>
       <use xlink:href="#md8a714ff8a" x="210.961465" y="188.936063" style="stroke: #000000"/>
      </g>
     </g>
     <g id="text_3">
      <!-- 20 -->
      <g transform="translate(203.326465 209.554188) scale(0.12 -0.12)">
       <defs>
        <path id="DejaVuSans-32" d="M 1228 531 
L 3431 531 
L 3431 0 
L 469 0 
L 469 531 
Q 828 903 1448 1529 
Q 2069 2156 2228 2338 
Q 2531 2678 2651 2914 
Q 2772 3150 2772 3378 
Q 2772 3750 2511 3984 
Q 2250 4219 1831 4219 
Q 1534 4219 1204 4116 
Q 875 4013 500 3803 
L 500 4441 
Q 881 4594 1212 4672 
Q 1544 4750 1819 4750 
Q 2544 4750 2975 4387 
Q 3406 4025 3406 3419 
Q 3406 3131 3298 2873 
Q 3191 2616 2906 2266 
Q 2828 2175 2409 1742 
Q 1991 1309 1228 531 
z
" transform="scale(0.015625)"/>
       </defs>
       <use xlink:href="#DejaVuSans-32"/>
       <use xlink:href="#DejaVuSans-30" x="63.623047"/>
      </g>
     </g>
    </g>
    <g id="text_4">
     <!-- UMAP 1 -->
     <g transform="translate(117.956572 225.167938) scale(0.12 -0.12)">
      <defs>
       <path id="DejaVuSans-55" d="M 556 4666 
L 1191 4666 
L 1191 1831 
Q 1191 1081 1462 751 
Q 1734 422 2344 422 
Q 2950 422 3222 751 
Q 3494 1081 3494 1831 
L 3494 4666 
L 4128 4666 
L 4128 1753 
Q 4128 841 3676 375 
Q 3225 -91 2344 -91 
Q 1459 -91 1007 375 
Q 556 841 556 1753 
L 556 4666 
z
" transform="scale(0.015625)"/>
       <path id="DejaVuSans-4d" d="M 628 4666 
L 1569 4666 
L 2759 1491 
L 3956 4666 
L 4897 4666 
L 4897 0 
L 4281 0 
L 4281 4097 
L 3078 897 
L 2444 897 
L 1241 4097 
L 1241 0 
L 628 0 
L 628 4666 
z
" transform="scale(0.015625)"/>
       <path id="DejaVuSans-41" d="M 2188 4044 
L 1331 1722 
L 3047 1722 
L 2188 4044 
z
M 1831 4666 
L 2547 4666 
L 4325 0 
L 3669 0 
L 3244 1197 
L 1141 1197 
L 716 0 
L 50 0 
L 1831 4666 
z
" transform="scale(0.015625)"/>
       <path id="DejaVuSans-50" d="M 1259 4147 
L 1259 2394 
L 2053 2394 
Q 2494 2394 2734 2622 
Q 2975 2850 2975 3272 
Q 2975 3691 2734 3919 
Q 2494 4147 2053 4147 
L 1259 4147 
z
M 628 4666 
L 2053 4666 
Q 2838 4666 3239 4311 
Q 3641 3956 3641 3272 
Q 3641 2581 3239 2228 
Q 2838 1875 2053 1875 
L 1259 1875 
L 1259 0 
L 628 0 
L 628 4666 
z
" transform="scale(0.015625)"/>
       <path id="DejaVuSans-20" transform="scale(0.015625)"/>
      </defs>
      <use xlink:href="#DejaVuSans-55"/>
      <use xlink:href="#DejaVuSans-4d" x="73.193359"/>
      <use xlink:href="#DejaVuSans-41" x="159.472656"/>
      <use xlink:href="#DejaVuSans-50" x="227.880859"/>
      <use xlink:href="#DejaVuSans-20" x="288.183594"/>
      <use xlink:href="#DejaVuSans-31" x="319.970703"/>
     </g>
    </g>
   </g>
   <g id="matplotlib.axis_2">
    <g id="ytick_1">
     <g id="line2d_4">
      <defs>
       <path id="m68276fbaa6" d="M 0 0 
L -8 0 
" style="stroke: #000000"/>
      </defs>
      <g>
       <use xlink:href="#m68276fbaa6" x="53.957638" y="171.070749" style="stroke: #000000"/>
      </g>
     </g>
     <g id="text_5">
      <!-- 0 -->
      <g transform="translate(34.822638 175.629812) scale(0.12 -0.12)">
       <use xlink:href="#DejaVuSans-30"/>
      </g>
     </g>
    </g>
    <g id="ytick_2">
     <g id="line2d_5">
      <g>
       <use xlink:href="#m68276fbaa6" x="53.957638" y="101.501492" style="stroke: #000000"/>
      </g>
     </g>
     <g id="text_6">
      <!-- 10 -->
      <g transform="translate(27.187638 106.060555) scale(0.12 -0.12)">
       <use xlink:href="#DejaVuSans-31"/>
       <use xlink:href="#DejaVuSans-30" x="63.623047"/>
      </g>
     </g>
    </g>
    <g id="ytick_3">
     <g id="line2d_6">
      <g>
       <use xlink:href="#m68276fbaa6" x="53.957638" y="31.932235" style="stroke: #000000"/>
      </g>
     </g>
     <g id="text_7">
      <!-- 20 -->
      <g transform="translate(27.187638 36.491298) scale(0.12 -0.12)">
       <use xlink:href="#DejaVuSans-32"/>
       <use xlink:href="#DejaVuSans-30" x="63.623047"/>
      </g>
     </g>
    </g>
    <g id="text_8">
     <!-- UMAP 2 -->
     <g transform="translate(20.692013 124.937128) rotate(-90) scale(0.12 -0.12)">
      <use xlink:href="#DejaVuSans-55"/>
      <use xlink:href="#DejaVuSans-4d" x="73.193359"/>
      <use xlink:href="#DejaVuSans-41" x="159.472656"/>
      <use xlink:href="#DejaVuSans-50" x="227.880859"/>
      <use xlink:href="#DejaVuSans-20" x="288.183594"/>
      <use xlink:href="#DejaVuSans-32" x="319.970703"/>
     </g>
    </g>
   </g>
   <g id="patch_3">
    <path d="M 53.957638 188.936063 
L 53.957638 14.908819 
" style="fill: none; stroke: #000000; stroke-width: 2; stroke-linejoin: miter; stroke-linecap: square"/>
   </g>
   <g id="patch_4">
    <path d="M 53.957638 188.936063 
L 227.984882 188.936063 
" style="fill: none; stroke: #000000; stroke-width: 2; stroke-linejoin: miter; stroke-linecap: square"/>
   </g>
  </g>
 </g>
 <defs>
  <clipPath id="p3caa25a26e">
   <rect x="53.957638" y="14.908819" width="174.027244" height="174.027244"/>
  </clipPath>
 </defs>
</svg>
