<?xml version="1.0" encoding="utf-8" standalone="no"?>
<!DOCTYPE svg PUBLIC "-//W3C//DTD SVG 1.1//EN"
  "http://www.w3.org/Graphics/SVG/1.1/DTD/svg11.dtd">
<svg xmlns:xlink="http://www.w3.org/1999/xlink" width="240.944882pt" height="240.944882pt" viewBox="0 0 240.944882 240.944882" xmlns="http://www.w3.org/2000/svg" version="1.1">
 <metadata>
  <rdf:RDF xmlns:dc="http://purl.org/dc/elements/1.1/" xmlns:cc="http://creativecommons.org/ns#" xmlns:rdf="http://www.w3.org/1999/02/22-rdf-syntax-ns#">
   <cc:Work>
    <dc:type rdf:resource="http://purl.org/dc/dcmitype/StillImage"/>
    <dc:date>2025-02-19T15:03:35.898347</dc:date>
    <dc:format>image/svg+xml</dc:format>
    <dc:creator>
     <cc:Agent>
      <dc:title>Matplotlib v3.6.2, https://matplotlib.org/</dc:title>
     </cc:Agent>
    </dc:creator>
   </cc:Work>
  </rdf:RDF>
 </metadata>
 <defs>
  <style type="text/css">*{stroke-linejoin: round; stroke-linecap: butt}</style>
 </defs>
 <g id="figure_1">
  <g id="patch_1">
   <path d="M 0 240.944882 
L 240.944882 240.944882 
L 240.944882 0 
L 0 0 
L 0 240.944882 
z
" style="fill: none"/>
  </g>
  <g id="axes_1">
   <g id="patch_2">
    <path d="M 64.037638 182.717551 
L 225.627858 182.717551 
L 225.627858 21.127331 
L 64.037638 21.127331 
L 64.037638 182.717551 
z
" style="fill: none"/>
   </g>
   <g id="PathCollection_1">
    <path d="M 93.292395 34.770212 
L 94.706609 34.770212 
L 94.706609 33.355998 
L 96.120822 33.355998 
L 96.120822 31.941785 
L 94.706609 31.941785 
L 94.706609 30.527571 
L 93.292395 30.527571 
L 93.292395 31.941785 
L 91.878182 31.941785 
L 91.878182 33.355998 
L 93.292395 33.355998 
z
" clip-path="url(#p9b149df9c3)" style="fill: #332288; fill-opacity: 0.6; stroke: #ffffff; stroke-opacity: 0.6; stroke-width: 0.339411"/>
    <path d="M 191.817774 105.302234 
L 193.231987 105.302234 
L 193.231987 103.888021 
L 194.646201 103.888021 
L 194.646201 102.473807 
L 193.231987 102.473807 
L 193.231987 101.059593 
L 191.817774 101.059593 
L 191.817774 102.473807 
L 190.40356 102.473807 
L 190.40356 103.888021 
L 191.817774 103.888021 
z
" clip-path="url(#p9b149df9c3)" style="fill: #332288; fill-opacity: 0.6; stroke: #ffffff; stroke-opacity: 0.6; stroke-width: 0.339411"/>
    <path d="M 117.523496 125.258163 
L 118.93771 125.258163 
L 118.93771 123.843949 
L 120.351923 123.843949 
L 120.351923 122.429736 
L 118.93771 122.429736 
L 118.93771 121.015522 
L 117.523496 121.015522 
L 117.523496 122.429736 
L 116.109283 122.429736 
L 116.109283 123.843949 
L 117.523496 123.843949 
z
" clip-path="url(#p9b149df9c3)" style="fill: #332288; fill-opacity: 0.6; stroke: #ffffff; stroke-opacity: 0.6; stroke-width: 0.339411"/>
    <path d="M 93.324228 57.037494 
L 94.738441 57.037494 
L 94.738441 55.62328 
L 96.152655 55.62328 
L 96.152655 54.209067 
L 94.738441 54.209067 
L 94.738441 52.794853 
L 93.324228 52.794853 
L 93.324228 54.209067 
L 91.910014 54.209067 
L 91.910014 55.62328 
L 93.324228 55.62328 
z
" clip-path="url(#p9b149df9c3)" style="fill: #332288; fill-opacity: 0.6; stroke: #ffffff; stroke-opacity: 0.6; stroke-width: 0.339411"/>
    <path d="M 206.327839 92.560403 
L 207.742053 92.560403 
L 207.742053 91.146189 
L 209.156266 91.146189 
L 209.156266 89.731976 
L 207.742053 89.731976 
L 207.742053 88.317762 
L 206.327839 88.317762 
L 206.327839 89.731976 
L 204.913625 89.731976 
L 204.913625 91.146189 
L 206.327839 91.146189 
z
" clip-path="url(#p9b149df9c3)" style="fill: #332288; fill-opacity: 0.6; stroke: #ffffff; stroke-opacity: 0.6; stroke-width: 0.339411"/>
    <path d="M 99.2009 66.143565 
L 100.615113 66.143565 
L 100.615113 64.729352 
L 102.029327 64.729352 
L 102.029327 63.315138 
L 100.615113 63.315138 
L 100.615113 61.900925 
L 99.2009 61.900925 
L 99.2009 63.315138 
L 97.786686 63.315138 
L 97.786686 64.729352 
L 99.2009 64.729352 
z
" clip-path="url(#p9b149df9c3)" style="fill: #332288; fill-opacity: 0.6; stroke: #ffffff; stroke-opacity: 0.6; stroke-width: 0.339411"/>
    <path d="M 112.10095 107.855354 
L 113.515163 107.855354 
L 113.515163 106.441141 
L 114.929377 106.441141 
L 114.929377 105.026927 
L 113.515163 105.026927 
L 113.515163 103.612714 
L 112.10095 103.612714 
L 112.10095 105.026927 
L 110.686736 105.026927 
L 110.686736 106.441141 
L 112.10095 106.441141 
z
" clip-path="url(#p9b149df9c3)" style="fill: #332288; fill-opacity: 0.6; stroke: #ffffff; stroke-opacity: 0.6; stroke-width: 0.339411"/>
    <path d="M 94.313059 51.079519 
L 95.727273 51.079519 
L 95.727273 49.665305 
L 97.141486 49.665305 
L 97.141486 48.251092 
L 95.727273 48.251092 
L 95.727273 46.836878 
L 94.313059 46.836878 
L 94.313059 48.251092 
L 92.898846 48.251092 
L 92.898846 49.665305 
L 94.313059 49.665305 
z
" clip-path="url(#p9b149df9c3)" style="fill: #332288; fill-opacity: 0.6; stroke: #ffffff; stroke-opacity: 0.6; stroke-width: 0.339411"/>
    <path d="M 117.089547 125.400291 
L 118.50376 125.400291 
L 118.50376 123.986078 
L 119.917974 123.986078 
L 119.917974 122.571864 
L 118.50376 122.571864 
L 118.50376 121.157651 
L 117.089547 121.157651 
L 117.089547 122.571864 
L 115.675333 122.571864 
L 115.675333 123.986078 
L 117.089547 123.986078 
z
" clip-path="url(#p9b149df9c3)" style="fill: #332288; fill-opacity: 0.6; stroke: #ffffff; stroke-opacity: 0.6; stroke-width: 0.339411"/>
    <path d="M 207.965537 92.882525 
L 209.379751 92.882525 
L 209.379751 91.468312 
L 210.793964 91.468312 
L 210.793964 90.054098 
L 209.379751 90.054098 
L 209.379751 88.639884 
L 207.965537 88.639884 
L 207.965537 90.054098 
L 206.551323 90.054098 
L 206.551323 91.468312 
L 207.965537 91.468312 
z
" clip-path="url(#p9b149df9c3)" style="fill: #332288; fill-opacity: 0.6; stroke: #ffffff; stroke-opacity: 0.6; stroke-width: 0.339411"/>
    <path d="M 205.601269 101.577294 
L 207.015483 101.577294 
L 207.015483 100.163081 
L 208.429696 100.163081 
L 208.429696 98.748867 
L 207.015483 98.748867 
L 207.015483 97.334654 
L 205.601269 97.334654 
L 205.601269 98.748867 
L 204.187056 98.748867 
L 204.187056 100.163081 
L 205.601269 100.163081 
z
" clip-path="url(#p9b149df9c3)" style="fill: #332288; fill-opacity: 0.6; stroke: #ffffff; stroke-opacity: 0.6; stroke-width: 0.339411"/>
    <path d="M 192.596961 106.058904 
L 194.011174 106.058904 
L 194.011174 104.64469 
L 195.425388 104.64469 
L 195.425388 103.230476 
L 194.011174 103.230476 
L 194.011174 101.816263 
L 192.596961 101.816263 
L 192.596961 103.230476 
L 191.182747 103.230476 
L 191.182747 104.64469 
L 192.596961 104.64469 
z
" clip-path="url(#p9b149df9c3)" style="fill: #332288; fill-opacity: 0.6; stroke: #ffffff; stroke-opacity: 0.6; stroke-width: 0.339411"/>
    <path d="M 208.211831 93.169212 
L 209.626045 93.169212 
L 209.626045 91.754998 
L 211.040258 91.754998 
L 211.040258 90.340785 
L 209.626045 90.340785 
L 209.626045 88.926571 
L 208.211831 88.926571 
L 208.211831 90.340785 
L 206.797617 90.340785 
L 206.797617 91.754998 
L 208.211831 91.754998 
z
" clip-path="url(#p9b149df9c3)" style="fill: #332288; fill-opacity: 0.6; stroke: #ffffff; stroke-opacity: 0.6; stroke-width: 0.339411"/>
    <path d="M 113.396226 91.192425 
L 114.81044 91.192425 
L 114.81044 89.778211 
L 116.224653 89.778211 
L 116.224653 88.363998 
L 114.81044 88.363998 
L 114.81044 86.949784 
L 113.396226 86.949784 
L 113.396226 88.363998 
L 111.982013 88.363998 
L 111.982013 89.778211 
L 113.396226 89.778211 
z
" clip-path="url(#p9b149df9c3)" style="fill: #332288; fill-opacity: 0.6; stroke: #ffffff; stroke-opacity: 0.6; stroke-width: 0.339411"/>
    <path d="M 206.994867 100.322801 
L 208.40908 100.322801 
L 208.40908 98.908588 
L 209.823294 98.908588 
L 209.823294 97.494374 
L 208.40908 97.494374 
L 208.40908 96.080161 
L 206.994867 96.080161 
L 206.994867 97.494374 
L 205.580653 97.494374 
L 205.580653 98.908588 
L 206.994867 98.908588 
z
" clip-path="url(#p9b149df9c3)" style="fill: #332288; fill-opacity: 0.6; stroke: #ffffff; stroke-opacity: 0.6; stroke-width: 0.339411"/>
    <path d="M 91.590382 37.630153 
L 93.004596 37.630153 
L 93.004596 36.215939 
L 94.418809 36.215939 
L 94.418809 34.801726 
L 93.004596 34.801726 
L 93.004596 33.387512 
L 91.590382 33.387512 
L 91.590382 34.801726 
L 90.176169 34.801726 
L 90.176169 36.215939 
L 91.590382 36.215939 
z
" clip-path="url(#p9b149df9c3)" style="fill: #332288; fill-opacity: 0.6; stroke: #ffffff; stroke-opacity: 0.6; stroke-width: 0.339411"/>
    <path d="M 135.862116 98.345615 
L 137.27633 98.345615 
L 137.27633 96.931402 
L 138.690543 96.931402 
L 138.690543 95.517188 
L 137.27633 95.517188 
L 137.27633 94.102975 
L 135.862116 94.102975 
L 135.862116 95.517188 
L 134.447903 95.517188 
L 134.447903 96.931402 
L 135.862116 96.931402 
z
" clip-path="url(#p9b149df9c3)" style="fill: #332288; fill-opacity: 0.6; stroke: #ffffff; stroke-opacity: 0.6; stroke-width: 0.339411"/>
    <path d="M 210.413452 98.83554 
L 211.827665 98.83554 
L 211.827665 97.421327 
L 213.241879 97.421327 
L 213.241879 96.007113 
L 211.827665 96.007113 
L 211.827665 94.592899 
L 210.413452 94.592899 
L 210.413452 96.007113 
L 208.999238 96.007113 
L 208.999238 97.421327 
L 210.413452 97.421327 
z
" clip-path="url(#p9b149df9c3)" style="fill: #332288; fill-opacity: 0.6; stroke: #ffffff; stroke-opacity: 0.6; stroke-width: 0.339411"/>
    <path d="M 163.743896 92.508265 
L 165.158109 92.508265 
L 165.158109 91.094052 
L 166.572323 91.094052 
L 166.572323 89.679838 
L 165.158109 89.679838 
L 165.158109 88.265625 
L 163.743896 88.265625 
L 163.743896 89.679838 
L 162.329682 89.679838 
L 162.329682 91.094052 
L 163.743896 91.094052 
z
" clip-path="url(#p9b149df9c3)" style="fill: #332288; fill-opacity: 0.6; stroke: #ffffff; stroke-opacity: 0.6; stroke-width: 0.339411"/>
    <path d="M 208.150021 95.757003 
L 209.564234 95.757003 
L 209.564234 94.342789 
L 210.978448 94.342789 
L 210.978448 92.928576 
L 209.564234 92.928576 
L 209.564234 91.514362 
L 208.150021 91.514362 
L 208.150021 92.928576 
L 206.735807 92.928576 
L 206.735807 94.342789 
L 208.150021 94.342789 
z
" clip-path="url(#p9b149df9c3)" style="fill: #332288; fill-opacity: 0.6; stroke: #ffffff; stroke-opacity: 0.6; stroke-width: 0.339411"/>
    <path d="M 202.84078 90.732793 
L 204.254993 90.732793 
L 204.254993 89.31858 
L 205.669207 89.31858 
L 205.669207 87.904366 
L 204.254993 87.904366 
L 204.254993 86.490152 
L 202.84078 86.490152 
L 202.84078 87.904366 
L 201.426566 87.904366 
L 201.426566 89.31858 
L 202.84078 89.31858 
z
" clip-path="url(#p9b149df9c3)" style="fill: #332288; fill-opacity: 0.6; stroke: #ffffff; stroke-opacity: 0.6; stroke-width: 0.339411"/>
    <path d="M 204.56904 114.808144 
L 205.983253 114.808144 
L 205.983253 113.393931 
L 207.397467 113.393931 
L 207.397467 111.979717 
L 205.983253 111.979717 
L 205.983253 110.565504 
L 204.56904 110.565504 
L 204.56904 111.979717 
L 203.154826 111.979717 
L 203.154826 113.393931 
L 204.56904 113.393931 
z
" clip-path="url(#p9b149df9c3)" style="fill: #332288; fill-opacity: 0.6; stroke: #ffffff; stroke-opacity: 0.6; stroke-width: 0.339411"/>
    <path d="M 95.814253 35.327702 
L 97.228466 35.327702 
L 97.228466 33.913489 
L 98.64268 33.913489 
L 98.64268 32.499275 
L 97.228466 32.499275 
L 97.228466 31.085062 
L 95.814253 31.085062 
L 95.814253 32.499275 
L 94.400039 32.499275 
L 94.400039 33.913489 
L 95.814253 33.913489 
z
" clip-path="url(#p9b149df9c3)" style="fill: #332288; fill-opacity: 0.6; stroke: #ffffff; stroke-opacity: 0.6; stroke-width: 0.339411"/>
    <path d="M 89.04382 48.410763 
L 90.458033 48.410763 
L 90.458033 46.996549 
L 91.872247 46.996549 
L 91.872247 45.582336 
L 90.458033 45.582336 
L 90.458033 44.168122 
L 89.04382 44.168122 
L 89.04382 45.582336 
L 87.629606 45.582336 
L 87.629606 46.996549 
L 89.04382 46.996549 
z
" clip-path="url(#p9b149df9c3)" style="fill: #332288; fill-opacity: 0.6; stroke: #ffffff; stroke-opacity: 0.6; stroke-width: 0.339411"/>
    <path d="M 97.864216 62.665753 
L 99.278429 62.665753 
L 99.278429 61.25154 
L 100.692643 61.25154 
L 100.692643 59.837326 
L 99.278429 59.837326 
L 99.278429 58.423113 
L 97.864216 58.423113 
L 97.864216 59.837326 
L 96.450002 59.837326 
L 96.450002 61.25154 
L 97.864216 61.25154 
z
" clip-path="url(#p9b149df9c3)" style="fill: #332288; fill-opacity: 0.6; stroke: #ffffff; stroke-opacity: 0.6; stroke-width: 0.339411"/>
    <path d="M 90.976676 36.85959 
L 92.390889 36.85959 
L 92.390889 35.445376 
L 93.805103 35.445376 
L 93.805103 34.031163 
L 92.390889 34.031163 
L 92.390889 32.616949 
L 90.976676 32.616949 
L 90.976676 34.031163 
L 89.562462 34.031163 
L 89.562462 35.445376 
L 90.976676 35.445376 
z
" clip-path="url(#p9b149df9c3)" style="fill: #332288; fill-opacity: 0.6; stroke: #ffffff; stroke-opacity: 0.6; stroke-width: 0.339411"/>
    <path d="M 95.67155 35.225283 
L 97.085763 35.225283 
L 97.085763 33.811069 
L 98.499977 33.811069 
L 98.499977 32.396855 
L 97.085763 32.396855 
L 97.085763 30.982642 
L 95.67155 30.982642 
L 95.67155 32.396855 
L 94.257336 32.396855 
L 94.257336 33.811069 
L 95.67155 33.811069 
z
" clip-path="url(#p9b149df9c3)" style="fill: #332288; fill-opacity: 0.6; stroke: #ffffff; stroke-opacity: 0.6; stroke-width: 0.339411"/>
    <path d="M 103.200683 89.590813 
L 104.614896 89.590813 
L 104.614896 88.176599 
L 106.02911 88.176599 
L 106.02911 86.762386 
L 104.614896 86.762386 
L 104.614896 85.348172 
L 103.200683 85.348172 
L 103.200683 86.762386 
L 101.786469 86.762386 
L 101.786469 88.176599 
L 103.200683 88.176599 
z
" clip-path="url(#p9b149df9c3)" style="fill: #332288; fill-opacity: 0.6; stroke: #ffffff; stroke-opacity: 0.6; stroke-width: 0.339411"/>
    <path d="M 87.284424 104.06372 
L 88.698638 104.06372 
L 88.698638 102.649506 
L 90.112852 102.649506 
L 90.112852 101.235293 
L 88.698638 101.235293 
L 88.698638 99.821079 
L 87.284424 99.821079 
L 87.284424 101.235293 
L 85.870211 101.235293 
L 85.870211 102.649506 
L 87.284424 102.649506 
z
" clip-path="url(#p9b149df9c3)" style="fill: #332288; fill-opacity: 0.6; stroke: #ffffff; stroke-opacity: 0.6; stroke-width: 0.339411"/>
    <path d="M 92.311027 37.322769 
L 93.72524 37.322769 
L 93.72524 35.908555 
L 95.139454 35.908555 
L 95.139454 34.494342 
L 93.72524 34.494342 
L 93.72524 33.080128 
L 92.311027 33.080128 
L 92.311027 34.494342 
L 90.896813 34.494342 
L 90.896813 35.908555 
L 92.311027 35.908555 
z
" clip-path="url(#p9b149df9c3)" style="fill: #332288; fill-opacity: 0.6; stroke: #ffffff; stroke-opacity: 0.6; stroke-width: 0.339411"/>
    <path d="M 113.436499 105.389032 
L 114.850713 105.389032 
L 114.850713 103.974819 
L 116.264926 103.974819 
L 116.264926 102.560605 
L 114.850713 102.560605 
L 114.850713 101.146391 
L 113.436499 101.146391 
L 113.436499 102.560605 
L 112.022286 102.560605 
L 112.022286 103.974819 
L 113.436499 103.974819 
z
" clip-path="url(#p9b149df9c3)" style="fill: #332288; fill-opacity: 0.6; stroke: #ffffff; stroke-opacity: 0.6; stroke-width: 0.339411"/>
    <path d="M 193.026247 112.249123 
L 194.440461 112.249123 
L 194.440461 110.83491 
L 195.854674 110.83491 
L 195.854674 109.420696 
L 194.440461 109.420696 
L 194.440461 108.006482 
L 193.026247 108.006482 
L 193.026247 109.420696 
L 191.612033 109.420696 
L 191.612033 110.83491 
L 193.026247 110.83491 
z
" clip-path="url(#p9b149df9c3)" style="fill: #332288; fill-opacity: 0.6; stroke: #ffffff; stroke-opacity: 0.6; stroke-width: 0.339411"/>
    <path d="M 205.14174 112.611802 
L 206.555954 112.611802 
L 206.555954 111.197588 
L 207.970168 111.197588 
L 207.970168 109.783375 
L 206.555954 109.783375 
L 206.555954 108.369161 
L 205.14174 108.369161 
L 205.14174 109.783375 
L 203.727527 109.783375 
L 203.727527 111.197588 
L 205.14174 111.197588 
z
" clip-path="url(#p9b149df9c3)" style="fill: #332288; fill-opacity: 0.6; stroke: #ffffff; stroke-opacity: 0.6; stroke-width: 0.339411"/>
    <path d="M 202.964548 90.986057 
L 204.378762 90.986057 
L 204.378762 89.571843 
L 205.792975 89.571843 
L 205.792975 88.15763 
L 204.378762 88.15763 
L 204.378762 86.743416 
L 202.964548 86.743416 
L 202.964548 88.15763 
L 201.550335 88.15763 
L 201.550335 89.571843 
L 202.964548 89.571843 
z
" clip-path="url(#p9b149df9c3)" style="fill: #332288; fill-opacity: 0.6; stroke: #ffffff; stroke-opacity: 0.6; stroke-width: 0.339411"/>
    <path d="M 113.00222 82.999917 
L 114.416434 82.999917 
L 114.416434 81.585703 
L 115.830647 81.585703 
L 115.830647 80.171489 
L 114.416434 80.171489 
L 114.416434 78.757276 
L 113.00222 78.757276 
L 113.00222 80.171489 
L 111.588007 80.171489 
L 111.588007 81.585703 
L 113.00222 81.585703 
z
" clip-path="url(#p9b149df9c3)" style="fill: #332288; fill-opacity: 0.6; stroke: #ffffff; stroke-opacity: 0.6; stroke-width: 0.339411"/>
    <path d="M 91.389325 40.266262 
L 92.803539 40.266262 
L 92.803539 38.852049 
L 94.217753 38.852049 
L 94.217753 37.437835 
L 92.803539 37.437835 
L 92.803539 36.023621 
L 91.389325 36.023621 
L 91.389325 37.437835 
L 89.975112 37.437835 
L 89.975112 38.852049 
L 91.389325 38.852049 
z
" clip-path="url(#p9b149df9c3)" style="fill: #332288; fill-opacity: 0.6; stroke: #ffffff; stroke-opacity: 0.6; stroke-width: 0.339411"/>
    <path d="M 92.105141 35.705843 
L 93.519355 35.705843 
L 93.519355 34.291629 
L 94.933568 34.291629 
L 94.933568 32.877415 
L 93.519355 32.877415 
L 93.519355 31.463202 
L 92.105141 31.463202 
L 92.105141 32.877415 
L 90.690928 32.877415 
L 90.690928 34.291629 
L 92.105141 34.291629 
z
" clip-path="url(#p9b149df9c3)" style="fill: #332288; fill-opacity: 0.6; stroke: #ffffff; stroke-opacity: 0.6; stroke-width: 0.339411"/>
    <path d="M 204.189015 91.830684 
L 205.603228 91.830684 
L 205.603228 90.41647 
L 207.017442 90.41647 
L 207.017442 89.002257 
L 205.603228 89.002257 
L 205.603228 87.588043 
L 204.189015 87.588043 
L 204.189015 89.002257 
L 202.774801 89.002257 
L 202.774801 90.41647 
L 204.189015 90.41647 
z
" clip-path="url(#p9b149df9c3)" style="fill: #332288; fill-opacity: 0.6; stroke: #ffffff; stroke-opacity: 0.6; stroke-width: 0.339411"/>
    <path d="M 94.98204 63.810101 
L 96.396254 63.810101 
L 96.396254 62.395888 
L 97.810467 62.395888 
L 97.810467 60.981674 
L 96.396254 60.981674 
L 96.396254 59.567461 
L 94.98204 59.567461 
L 94.98204 60.981674 
L 93.567827 60.981674 
L 93.567827 62.395888 
L 94.98204 62.395888 
z
" clip-path="url(#p9b149df9c3)" style="fill: #332288; fill-opacity: 0.6; stroke: #ffffff; stroke-opacity: 0.6; stroke-width: 0.339411"/>
    <path d="M 205.103074 113.434789 
L 206.517287 113.434789 
L 206.517287 112.020575 
L 207.931501 112.020575 
L 207.931501 110.606361 
L 206.517287 110.606361 
L 206.517287 109.192148 
L 205.103074 109.192148 
L 205.103074 110.606361 
L 203.68886 110.606361 
L 203.68886 112.020575 
L 205.103074 112.020575 
z
" clip-path="url(#p9b149df9c3)" style="fill: #332288; fill-opacity: 0.6; stroke: #ffffff; stroke-opacity: 0.6; stroke-width: 0.339411"/>
    <path d="M 206.584542 92.640801 
L 207.998756 92.640801 
L 207.998756 91.226588 
L 209.41297 91.226588 
L 209.41297 89.812374 
L 207.998756 89.812374 
L 207.998756 88.398161 
L 206.584542 88.398161 
L 206.584542 89.812374 
L 205.170329 89.812374 
L 205.170329 91.226588 
L 206.584542 91.226588 
z
" clip-path="url(#p9b149df9c3)" style="fill: #332288; fill-opacity: 0.6; stroke: #ffffff; stroke-opacity: 0.6; stroke-width: 0.339411"/>
    <path d="M 207.783916 93.225283 
L 209.19813 93.225283 
L 209.19813 91.811069 
L 210.612343 91.811069 
L 210.612343 90.396856 
L 209.19813 90.396856 
L 209.19813 88.982642 
L 207.783916 88.982642 
L 207.783916 90.396856 
L 206.369702 90.396856 
L 206.369702 91.811069 
L 207.783916 91.811069 
z
" clip-path="url(#p9b149df9c3)" style="fill: #332288; fill-opacity: 0.6; stroke: #ffffff; stroke-opacity: 0.6; stroke-width: 0.339411"/>
    <path d="M 91.584957 37.649516 
L 92.999171 37.649516 
L 92.999171 36.235302 
L 94.413385 36.235302 
L 94.413385 34.821088 
L 92.999171 34.821088 
L 92.999171 33.406875 
L 91.584957 33.406875 
L 91.584957 34.821088 
L 90.170744 34.821088 
L 90.170744 36.235302 
L 91.584957 36.235302 
z
" clip-path="url(#p9b149df9c3)" style="fill: #332288; fill-opacity: 0.6; stroke: #ffffff; stroke-opacity: 0.6; stroke-width: 0.339411"/>
    <path d="M 113.388487 105.492662 
L 114.8027 105.492662 
L 114.8027 104.078449 
L 116.216914 104.078449 
L 116.216914 102.664235 
L 114.8027 102.664235 
L 114.8027 101.250021 
L 113.388487 101.250021 
L 113.388487 102.664235 
L 111.974273 102.664235 
L 111.974273 104.078449 
L 113.388487 104.078449 
z
" clip-path="url(#p9b149df9c3)" style="fill: #332288; fill-opacity: 0.6; stroke: #ffffff; stroke-opacity: 0.6; stroke-width: 0.339411"/>
    <path d="M 113.058241 105.325375 
L 114.472455 105.325375 
L 114.472455 103.911162 
L 115.886668 103.911162 
L 115.886668 102.496948 
L 114.472455 102.496948 
L 114.472455 101.082735 
L 113.058241 101.082735 
L 113.058241 102.496948 
L 111.644028 102.496948 
L 111.644028 103.911162 
L 113.058241 103.911162 
z
" clip-path="url(#p9b149df9c3)" style="fill: #332288; fill-opacity: 0.6; stroke: #ffffff; stroke-opacity: 0.6; stroke-width: 0.339411"/>
    <path d="M 90.699336 38.900541 
L 92.11355 38.900541 
L 92.11355 37.486327 
L 93.527763 37.486327 
L 93.527763 36.072114 
L 92.11355 36.072114 
L 92.11355 34.6579 
L 90.699336 34.6579 
L 90.699336 36.072114 
L 89.285123 36.072114 
L 89.285123 37.486327 
L 90.699336 37.486327 
z
" clip-path="url(#p9b149df9c3)" style="fill: #332288; fill-opacity: 0.6; stroke: #ffffff; stroke-opacity: 0.6; stroke-width: 0.339411"/>
    <path d="M 208.088587 93.044959 
L 209.502801 93.044959 
L 209.502801 91.630746 
L 210.917014 91.630746 
L 210.917014 90.216532 
L 209.502801 90.216532 
L 209.502801 88.802319 
L 208.088587 88.802319 
L 208.088587 90.216532 
L 206.674374 90.216532 
L 206.674374 91.630746 
L 208.088587 91.630746 
z
" clip-path="url(#p9b149df9c3)" style="fill: #332288; fill-opacity: 0.6; stroke: #ffffff; stroke-opacity: 0.6; stroke-width: 0.339411"/>
    <path d="M 91.349561 39.119782 
L 92.763775 39.119782 
L 92.763775 37.705569 
L 94.177988 37.705569 
L 94.177988 36.291355 
L 92.763775 36.291355 
L 92.763775 34.877141 
L 91.349561 34.877141 
L 91.349561 36.291355 
L 89.935348 36.291355 
L 89.935348 37.705569 
L 91.349561 37.705569 
z
" clip-path="url(#p9b149df9c3)" style="fill: #332288; fill-opacity: 0.6; stroke: #ffffff; stroke-opacity: 0.6; stroke-width: 0.339411"/>
    <path d="M 91.024719 37.077702 
L 92.438932 37.077702 
L 92.438932 35.663488 
L 93.853146 35.663488 
L 93.853146 34.249274 
L 92.438932 34.249274 
L 92.438932 32.835061 
L 91.024719 32.835061 
L 91.024719 34.249274 
L 89.610505 34.249274 
L 89.610505 35.663488 
L 91.024719 35.663488 
z
" clip-path="url(#p9b149df9c3)" style="fill: #332288; fill-opacity: 0.6; stroke: #ffffff; stroke-opacity: 0.6; stroke-width: 0.339411"/>
    <path d="M 86.136217 42.763657 
L 87.55043 42.763657 
L 87.55043 41.349443 
L 88.964644 41.349443 
L 88.964644 39.93523 
L 87.55043 39.93523 
L 87.55043 38.521016 
L 86.136217 38.521016 
L 86.136217 39.93523 
L 84.722003 39.93523 
L 84.722003 41.349443 
L 86.136217 41.349443 
z
" clip-path="url(#p9b149df9c3)" style="fill: #332288; fill-opacity: 0.6; stroke: #ffffff; stroke-opacity: 0.6; stroke-width: 0.339411"/>
    <path d="M 210.17879 99.030678 
L 211.593004 99.030678 
L 211.593004 97.616464 
L 213.007218 97.616464 
L 213.007218 96.20225 
L 211.593004 96.20225 
L 211.593004 94.788037 
L 210.17879 94.788037 
L 210.17879 96.20225 
L 208.764577 96.20225 
L 208.764577 97.616464 
L 210.17879 97.616464 
z
" clip-path="url(#p9b149df9c3)" style="fill: #332288; fill-opacity: 0.6; stroke: #ffffff; stroke-opacity: 0.6; stroke-width: 0.339411"/>
    <path d="M 210.252327 99.122404 
L 211.66654 99.122404 
L 211.66654 97.708191 
L 213.080754 97.708191 
L 213.080754 96.293977 
L 211.66654 96.293977 
L 211.66654 94.879764 
L 210.252327 94.879764 
L 210.252327 96.293977 
L 208.838113 96.293977 
L 208.838113 97.708191 
L 210.252327 97.708191 
z
" clip-path="url(#p9b149df9c3)" style="fill: #332288; fill-opacity: 0.6; stroke: #ffffff; stroke-opacity: 0.6; stroke-width: 0.339411"/>
    <path d="M 205.394196 112.803855 
L 206.808409 112.803855 
L 206.808409 111.389642 
L 208.222623 111.389642 
L 208.222623 109.975428 
L 206.808409 109.975428 
L 206.808409 108.561215 
L 205.394196 108.561215 
L 205.394196 109.975428 
L 203.979982 109.975428 
L 203.979982 111.389642 
L 205.394196 111.389642 
z
" clip-path="url(#p9b149df9c3)" style="fill: #332288; fill-opacity: 0.6; stroke: #ffffff; stroke-opacity: 0.6; stroke-width: 0.339411"/>
    <path d="M 111.658886 108.15451 
L 113.0731 108.15451 
L 113.0731 106.740297 
L 114.487313 106.740297 
L 114.487313 105.326083 
L 113.0731 105.326083 
L 113.0731 103.91187 
L 111.658886 103.91187 
L 111.658886 105.326083 
L 110.244673 105.326083 
L 110.244673 106.740297 
L 111.658886 106.740297 
z
" clip-path="url(#p9b149df9c3)" style="fill: #332288; fill-opacity: 0.6; stroke: #ffffff; stroke-opacity: 0.6; stroke-width: 0.339411"/>
    <path d="M 93.282301 56.353271 
L 94.696514 56.353271 
L 94.696514 54.939057 
L 96.110728 54.939057 
L 96.110728 53.524844 
L 94.696514 53.524844 
L 94.696514 52.11063 
L 93.282301 52.11063 
L 93.282301 53.524844 
L 91.868087 53.524844 
L 91.868087 54.939057 
L 93.282301 54.939057 
z
" clip-path="url(#p9b149df9c3)" style="fill: #332288; fill-opacity: 0.6; stroke: #ffffff; stroke-opacity: 0.6; stroke-width: 0.339411"/>
    <path d="M 110.234648 81.614869 
L 111.648861 81.614869 
L 111.648861 80.200655 
L 113.063075 80.200655 
L 113.063075 78.786441 
L 111.648861 78.786441 
L 111.648861 77.372228 
L 110.234648 77.372228 
L 110.234648 78.786441 
L 108.820434 78.786441 
L 108.820434 80.200655 
L 110.234648 80.200655 
z
" clip-path="url(#p9b149df9c3)" style="fill: #332288; fill-opacity: 0.6; stroke: #ffffff; stroke-opacity: 0.6; stroke-width: 0.339411"/>
    <path d="M 94.738478 38.720225 
L 96.152692 38.720225 
L 96.152692 37.306011 
L 97.566905 37.306011 
L 97.566905 35.891798 
L 96.152692 35.891798 
L 96.152692 34.477584 
L 94.738478 34.477584 
L 94.738478 35.891798 
L 93.324264 35.891798 
L 93.324264 37.306011 
L 94.738478 37.306011 
z
" clip-path="url(#p9b149df9c3)" style="fill: #332288; fill-opacity: 0.6; stroke: #ffffff; stroke-opacity: 0.6; stroke-width: 0.339411"/>
    <path d="M 91.701261 39.047433 
L 93.115474 39.047433 
L 93.115474 37.633219 
L 94.529688 37.633219 
L 94.529688 36.219006 
L 93.115474 36.219006 
L 93.115474 34.804792 
L 91.701261 34.804792 
L 91.701261 36.219006 
L 90.287047 36.219006 
L 90.287047 37.633219 
L 91.701261 37.633219 
z
" clip-path="url(#p9b149df9c3)" style="fill: #332288; fill-opacity: 0.6; stroke: #ffffff; stroke-opacity: 0.6; stroke-width: 0.339411"/>
    <path d="M 191.588448 112.79318 
L 193.002661 112.79318 
L 193.002661 111.378967 
L 194.416875 111.378967 
L 194.416875 109.964753 
L 193.002661 109.964753 
L 193.002661 108.55054 
L 191.588448 108.55054 
L 191.588448 109.964753 
L 190.174234 109.964753 
L 190.174234 111.378967 
L 191.588448 111.378967 
z
" clip-path="url(#p9b149df9c3)" style="fill: #332288; fill-opacity: 0.6; stroke: #ffffff; stroke-opacity: 0.6; stroke-width: 0.339411"/>
    <path d="M 94.762233 38.16634 
L 96.176447 38.16634 
L 96.176447 36.752126 
L 97.59066 36.752126 
L 97.59066 35.337913 
L 96.176447 35.337913 
L 96.176447 33.923699 
L 94.762233 33.923699 
L 94.762233 35.337913 
L 93.34802 35.337913 
L 93.34802 36.752126 
L 94.762233 36.752126 
z
" clip-path="url(#p9b149df9c3)" style="fill: #332288; fill-opacity: 0.6; stroke: #ffffff; stroke-opacity: 0.6; stroke-width: 0.339411"/>
    <path d="M 95.767133 57.948329 
L 97.181347 57.948329 
L 97.181347 56.534116 
L 98.59556 56.534116 
L 98.59556 55.119902 
L 97.181347 55.119902 
L 97.181347 53.705688 
L 95.767133 53.705688 
L 95.767133 55.119902 
L 94.35292 55.119902 
L 94.35292 56.534116 
L 95.767133 56.534116 
z
" clip-path="url(#p9b149df9c3)" style="fill: #332288; fill-opacity: 0.6; stroke: #ffffff; stroke-opacity: 0.6; stroke-width: 0.339411"/>
    <path d="M 207.359201 93.961163 
L 208.773414 93.961163 
L 208.773414 92.546949 
L 210.187628 92.546949 
L 210.187628 91.132735 
L 208.773414 91.132735 
L 208.773414 89.718522 
L 207.359201 89.718522 
L 207.359201 91.132735 
L 205.944987 91.132735 
L 205.944987 92.546949 
L 207.359201 92.546949 
z
" clip-path="url(#p9b149df9c3)" style="fill: #332288; fill-opacity: 0.6; stroke: #ffffff; stroke-opacity: 0.6; stroke-width: 0.339411"/>
    <path d="M 102.595244 91.581669 
L 104.009457 91.581669 
L 104.009457 90.167456 
L 105.423671 90.167456 
L 105.423671 88.753242 
L 104.009457 88.753242 
L 104.009457 87.339028 
L 102.595244 87.339028 
L 102.595244 88.753242 
L 101.18103 88.753242 
L 101.18103 90.167456 
L 102.595244 90.167456 
z
" clip-path="url(#p9b149df9c3)" style="fill: #332288; fill-opacity: 0.6; stroke: #ffffff; stroke-opacity: 0.6; stroke-width: 0.339411"/>
    <path d="M 207.363314 94.373529 
L 208.777528 94.373529 
L 208.777528 92.959316 
L 210.191741 92.959316 
L 210.191741 91.545102 
L 208.777528 91.545102 
L 208.777528 90.130889 
L 207.363314 90.130889 
L 207.363314 91.545102 
L 205.949101 91.545102 
L 205.949101 92.959316 
L 207.363314 92.959316 
z
" clip-path="url(#p9b149df9c3)" style="fill: #332288; fill-opacity: 0.6; stroke: #ffffff; stroke-opacity: 0.6; stroke-width: 0.339411"/>
    <path d="M 206.794356 114.869406 
L 208.594356 111.869406 
L 206.794356 108.869406 
L 204.994356 111.869406 
z
" clip-path="url(#p9b149df9c3)" style="fill: #117733; fill-opacity: 0.6; stroke: #ffffff; stroke-opacity: 0.6; stroke-width: 0.339411"/>
    <path d="M 106.727346 89.642025 
L 108.527346 86.642025 
L 106.727346 83.642025 
L 104.927346 86.642025 
z
" clip-path="url(#p9b149df9c3)" style="fill: #117733; fill-opacity: 0.6; stroke: #ffffff; stroke-opacity: 0.6; stroke-width: 0.339411"/>
    <path d="M 178.148169 113.26146 
L 179.948169 110.26146 
L 178.148169 107.26146 
L 176.348169 110.26146 
z
" clip-path="url(#p9b149df9c3)" style="fill: #117733; fill-opacity: 0.6; stroke: #ffffff; stroke-opacity: 0.6; stroke-width: 0.339411"/>
    <path d="M 117.24685 116.664811 
L 119.04685 113.664811 
L 117.24685 110.664811 
L 115.44685 113.664811 
z
" clip-path="url(#p9b149df9c3)" style="fill: #117733; fill-opacity: 0.6; stroke: #ffffff; stroke-opacity: 0.6; stroke-width: 0.339411"/>
    <path d="M 134.639616 119.185907 
L 136.439616 116.185907 
L 134.639616 113.185907 
L 132.839616 116.185907 
z
" clip-path="url(#p9b149df9c3)" style="fill: #117733; fill-opacity: 0.6; stroke: #ffffff; stroke-opacity: 0.6; stroke-width: 0.339411"/>
    <path d="M 103.617934 92.033183 
L 105.417934 89.033183 
L 103.617934 86.033183 
L 101.817934 89.033183 
z
" clip-path="url(#p9b149df9c3)" style="fill: #117733; fill-opacity: 0.6; stroke: #ffffff; stroke-opacity: 0.6; stroke-width: 0.339411"/>
    <path d="M 206.01539 112.048344 
L 207.81539 109.048344 
L 206.01539 106.048344 
L 204.21539 109.048344 
z
" clip-path="url(#p9b149df9c3)" style="fill: #117733; fill-opacity: 0.6; stroke: #ffffff; stroke-opacity: 0.6; stroke-width: 0.339411"/>
    <path d="M 185.380312 100.24733 
L 187.180312 97.24733 
L 185.380312 94.24733 
L 183.580312 97.24733 
z
" clip-path="url(#p9b149df9c3)" style="fill: #117733; fill-opacity: 0.6; stroke: #ffffff; stroke-opacity: 0.6; stroke-width: 0.339411"/>
    <path d="M 209.202694 122.711128 
L 211.002694 119.711128 
L 209.202694 116.711128 
L 207.402694 119.711128 
z
" clip-path="url(#p9b149df9c3)" style="fill: #117733; fill-opacity: 0.6; stroke: #ffffff; stroke-opacity: 0.6; stroke-width: 0.339411"/>
    <path d="M 138.443735 102.560382 
L 140.243735 99.560382 
L 138.443735 96.560382 
L 136.643735 99.560382 
z
" clip-path="url(#p9b149df9c3)" style="fill: #117733; fill-opacity: 0.6; stroke: #ffffff; stroke-opacity: 0.6; stroke-width: 0.339411"/>
    <path d="M 203.209119 110.911475 
L 205.009119 107.911475 
L 203.209119 104.911475 
L 201.409119 107.911475 
z
" clip-path="url(#p9b149df9c3)" style="fill: #117733; fill-opacity: 0.6; stroke: #ffffff; stroke-opacity: 0.6; stroke-width: 0.339411"/>
    <path d="M 210.724192 121.127992 
L 212.524192 118.127992 
L 210.724192 115.127992 
L 208.924192 118.127992 
z
" clip-path="url(#p9b149df9c3)" style="fill: #117733; fill-opacity: 0.6; stroke: #ffffff; stroke-opacity: 0.6; stroke-width: 0.339411"/>
    <path d="M 135.068488 120.320614 
L 136.868488 117.320614 
L 135.068488 114.320614 
L 133.268488 117.320614 
z
" clip-path="url(#p9b149df9c3)" style="fill: #117733; fill-opacity: 0.6; stroke: #ffffff; stroke-opacity: 0.6; stroke-width: 0.339411"/>
    <path d="M 201.08721 123.713461 
L 202.88721 120.713461 
L 201.08721 117.713461 
L 199.28721 120.713461 
z
" clip-path="url(#p9b149df9c3)" style="fill: #117733; fill-opacity: 0.6; stroke: #ffffff; stroke-opacity: 0.6; stroke-width: 0.339411"/>
    <path d="M 202.740521 117.204766 
L 204.540521 114.204766 
L 202.740521 111.204766 
L 200.940521 114.204766 
z
" clip-path="url(#p9b149df9c3)" style="fill: #117733; fill-opacity: 0.6; stroke: #ffffff; stroke-opacity: 0.6; stroke-width: 0.339411"/>
    <path d="M 159.509055 114.90769 
L 161.309055 111.90769 
L 159.509055 108.90769 
L 157.709055 111.90769 
z
" clip-path="url(#p9b149df9c3)" style="fill: #117733; fill-opacity: 0.6; stroke: #ffffff; stroke-opacity: 0.6; stroke-width: 0.339411"/>
    <path d="M 211.969229 119.074812 
L 213.769229 116.074812 
L 211.969229 113.074812 
L 210.169229 116.074812 
z
" clip-path="url(#p9b149df9c3)" style="fill: #117733; fill-opacity: 0.6; stroke: #ffffff; stroke-opacity: 0.6; stroke-width: 0.339411"/>
    <path d="M 180.588599 115.566652 
L 182.388599 112.566652 
L 180.588599 109.566652 
L 178.788599 112.566652 
z
" clip-path="url(#p9b149df9c3)" style="fill: #117733; fill-opacity: 0.6; stroke: #ffffff; stroke-opacity: 0.6; stroke-width: 0.339411"/>
    <path d="M 208.009993 117.027662 
L 209.809993 114.027662 
L 208.009993 111.027662 
L 206.209993 114.027662 
z
" clip-path="url(#p9b149df9c3)" style="fill: #117733; fill-opacity: 0.6; stroke: #ffffff; stroke-opacity: 0.6; stroke-width: 0.339411"/>
    <path d="M 188.59847 119.614664 
L 190.39847 116.614664 
L 188.59847 113.614664 
L 186.79847 116.614664 
z
" clip-path="url(#p9b149df9c3)" style="fill: #117733; fill-opacity: 0.6; stroke: #ffffff; stroke-opacity: 0.6; stroke-width: 0.339411"/>
    <path d="M 205.46957 114.205995 
L 207.26957 111.205995 
L 205.46957 108.205995 
L 203.66957 111.205995 
z
" clip-path="url(#p9b149df9c3)" style="fill: #117733; fill-opacity: 0.6; stroke: #ffffff; stroke-opacity: 0.6; stroke-width: 0.339411"/>
    <path d="M 177.17171 125.201834 
L 178.97171 122.201834 
L 177.17171 119.201834 
L 175.37171 122.201834 
z
" clip-path="url(#p9b149df9c3)" style="fill: #117733; fill-opacity: 0.6; stroke: #ffffff; stroke-opacity: 0.6; stroke-width: 0.339411"/>
    <path d="M 200.801939 104.951382 
L 202.601939 101.951382 
L 200.801939 98.951382 
L 199.001939 101.951382 
z
" clip-path="url(#p9b149df9c3)" style="fill: #117733; fill-opacity: 0.6; stroke: #ffffff; stroke-opacity: 0.6; stroke-width: 0.339411"/>
    <path d="M 174.555721 121.885548 
L 176.355721 118.885548 
L 174.555721 115.885548 
L 172.755721 118.885548 
z
" clip-path="url(#p9b149df9c3)" style="fill: #117733; fill-opacity: 0.6; stroke: #ffffff; stroke-opacity: 0.6; stroke-width: 0.339411"/>
    <path d="M 105.091736 154.819686 
L 106.891736 151.819686 
L 105.091736 148.819686 
L 103.291736 151.819686 
z
" clip-path="url(#p9b149df9c3)" style="fill: #117733; fill-opacity: 0.6; stroke: #ffffff; stroke-opacity: 0.6; stroke-width: 0.339411"/>
    <path d="M 179.091559 122.649307 
L 180.891559 119.649307 
L 179.091559 116.649307 
L 177.291559 119.649307 
z
" clip-path="url(#p9b149df9c3)" style="fill: #117733; fill-opacity: 0.6; stroke: #ffffff; stroke-opacity: 0.6; stroke-width: 0.339411"/>
    <path d="M 126.717343 128.235069 
L 128.517343 125.235069 
L 126.717343 122.235069 
L 124.917343 125.235069 
z
" clip-path="url(#p9b149df9c3)" style="fill: #117733; fill-opacity: 0.6; stroke: #ffffff; stroke-opacity: 0.6; stroke-width: 0.339411"/>
    <path d="M 125.23514 131.729912 
L 127.03514 128.729912 
L 125.23514 125.729912 
L 123.43514 128.729912 
z
" clip-path="url(#p9b149df9c3)" style="fill: #117733; fill-opacity: 0.6; stroke: #ffffff; stroke-opacity: 0.6; stroke-width: 0.339411"/>
    <path d="M 193.195644 108.623635 
L 194.995644 105.623635 
L 193.195644 102.623635 
L 191.395644 105.623635 
z
" clip-path="url(#p9b149df9c3)" style="fill: #117733; fill-opacity: 0.6; stroke: #ffffff; stroke-opacity: 0.6; stroke-width: 0.339411"/>
    <path d="M 120.47849 148.464323 
L 122.27849 145.464323 
L 120.47849 142.464323 
L 118.67849 145.464323 
z
" clip-path="url(#p9b149df9c3)" style="fill: #117733; fill-opacity: 0.6; stroke: #ffffff; stroke-opacity: 0.6; stroke-width: 0.339411"/>
    <path d="M 145.613006 129.447456 
L 147.413006 126.447456 
L 145.613006 123.447456 
L 143.813006 126.447456 
z
" clip-path="url(#p9b149df9c3)" style="fill: #117733; fill-opacity: 0.6; stroke: #ffffff; stroke-opacity: 0.6; stroke-width: 0.339411"/>
    <path d="M 119.453042 108.990966 
L 121.253042 105.990966 
L 119.453042 102.990966 
L 117.653042 105.990966 
z
" clip-path="url(#p9b149df9c3)" style="fill: #117733; fill-opacity: 0.6; stroke: #ffffff; stroke-opacity: 0.6; stroke-width: 0.339411"/>
    <path d="M 210.627378 120.22876 
L 212.427378 117.22876 
L 210.627378 114.22876 
L 208.827378 117.22876 
z
" clip-path="url(#p9b149df9c3)" style="fill: #117733; fill-opacity: 0.6; stroke: #ffffff; stroke-opacity: 0.6; stroke-width: 0.339411"/>
    <path d="M 182.976664 116.568727 
L 184.776664 113.568727 
L 182.976664 110.568727 
L 181.176664 113.568727 
z
" clip-path="url(#p9b149df9c3)" style="fill: #117733; fill-opacity: 0.6; stroke: #ffffff; stroke-opacity: 0.6; stroke-width: 0.339411"/>
    <path d="M 132.536444 121.238036 
L 134.336444 118.238036 
L 132.536444 115.238036 
L 130.736444 118.238036 
z
" clip-path="url(#p9b149df9c3)" style="fill: #117733; fill-opacity: 0.6; stroke: #ffffff; stroke-opacity: 0.6; stroke-width: 0.339411"/>
    <path d="M 129.259858 110.723064 
L 131.059858 107.723064 
L 129.259858 104.723064 
L 127.459858 107.723064 
z
" clip-path="url(#p9b149df9c3)" style="fill: #117733; fill-opacity: 0.6; stroke: #ffffff; stroke-opacity: 0.6; stroke-width: 0.339411"/>
    <path d="M 185.323263 103.487584 
L 187.123263 100.487584 
L 185.323263 97.487584 
L 183.523263 100.487584 
z
" clip-path="url(#p9b149df9c3)" style="fill: #117733; fill-opacity: 0.6; stroke: #ffffff; stroke-opacity: 0.6; stroke-width: 0.339411"/>
    <path d="M 206.814165 117.681354 
L 208.614165 114.681354 
L 206.814165 111.681354 
L 205.014165 114.681354 
z
" clip-path="url(#p9b149df9c3)" style="fill: #117733; fill-opacity: 0.6; stroke: #ffffff; stroke-opacity: 0.6; stroke-width: 0.339411"/>
    <path d="M 207.186851 119.623954 
L 208.986851 116.623954 
L 207.186851 113.623954 
L 205.386851 116.623954 
z
" clip-path="url(#p9b149df9c3)" style="fill: #117733; fill-opacity: 0.6; stroke: #ffffff; stroke-opacity: 0.6; stroke-width: 0.339411"/>
    <path d="M 183.069142 118.351714 
L 184.869142 115.351714 
L 183.069142 112.351714 
L 181.269142 115.351714 
z
" clip-path="url(#p9b149df9c3)" style="fill: #117733; fill-opacity: 0.6; stroke: #ffffff; stroke-opacity: 0.6; stroke-width: 0.339411"/>
    <path d="M 116.592842 115.488495 
L 118.392842 112.488495 
L 116.592842 109.488495 
L 114.792842 112.488495 
z
" clip-path="url(#p9b149df9c3)" style="fill: #117733; fill-opacity: 0.6; stroke: #ffffff; stroke-opacity: 0.6; stroke-width: 0.339411"/>
    <path d="M 121.88368 113.178094 
L 123.68368 110.178094 
L 121.88368 107.178094 
L 120.08368 110.178094 
z
" clip-path="url(#p9b149df9c3)" style="fill: #117733; fill-opacity: 0.6; stroke: #ffffff; stroke-opacity: 0.6; stroke-width: 0.339411"/>
    <path d="M 208.510357 105.794466 
L 210.310357 102.794466 
L 208.510357 99.794466 
L 206.710357 102.794466 
z
" clip-path="url(#p9b149df9c3)" style="fill: #117733; fill-opacity: 0.6; stroke: #ffffff; stroke-opacity: 0.6; stroke-width: 0.339411"/>
    <path d="M 209.02455 121.047649 
L 210.82455 118.047649 
L 209.02455 115.047649 
L 207.22455 118.047649 
z
" clip-path="url(#p9b149df9c3)" style="fill: #117733; fill-opacity: 0.6; stroke: #ffffff; stroke-opacity: 0.6; stroke-width: 0.339411"/>
    <path d="M 135.268643 114.659655 
L 137.068643 111.659655 
L 135.268643 108.659655 
L 133.468643 111.659655 
z
" clip-path="url(#p9b149df9c3)" style="fill: #117733; fill-opacity: 0.6; stroke: #ffffff; stroke-opacity: 0.6; stroke-width: 0.339411"/>
    <path d="M 198.058036 120.911347 
L 199.858036 117.911347 
L 198.058036 114.911347 
L 196.258036 117.911347 
z
" clip-path="url(#p9b149df9c3)" style="fill: #117733; fill-opacity: 0.6; stroke: #ffffff; stroke-opacity: 0.6; stroke-width: 0.339411"/>
    <path d="M 110.163047 135.142492 
L 111.963047 132.142492 
L 110.163047 129.142492 
L 108.363047 132.142492 
z
" clip-path="url(#p9b149df9c3)" style="fill: #117733; fill-opacity: 0.6; stroke: #ffffff; stroke-opacity: 0.6; stroke-width: 0.339411"/>
    <path d="M 189.656032 106.371533 
L 191.456032 103.371533 
L 189.656032 100.371533 
L 187.856032 103.371533 
z
" clip-path="url(#p9b149df9c3)" style="fill: #117733; fill-opacity: 0.6; stroke: #ffffff; stroke-opacity: 0.6; stroke-width: 0.339411"/>
    <path d="M 208.554091 117.385922 
L 210.354091 114.385922 
L 208.554091 111.385922 
L 206.754091 114.385922 
z
" clip-path="url(#p9b149df9c3)" style="fill: #117733; fill-opacity: 0.6; stroke: #ffffff; stroke-opacity: 0.6; stroke-width: 0.339411"/>
    <path d="M 119.716714 136.271227 
L 121.516714 133.271227 
L 119.716714 130.271227 
L 117.916714 133.271227 
z
" clip-path="url(#p9b149df9c3)" style="fill: #117733; fill-opacity: 0.6; stroke: #ffffff; stroke-opacity: 0.6; stroke-width: 0.339411"/>
    <path d="M 209.257971 121.116173 
L 211.057971 118.116173 
L 209.257971 115.116173 
L 207.457971 118.116173 
z
" clip-path="url(#p9b149df9c3)" style="fill: #117733; fill-opacity: 0.6; stroke: #ffffff; stroke-opacity: 0.6; stroke-width: 0.339411"/>
    <path d="M 187.2263 109.458192 
L 189.0263 106.458192 
L 187.2263 103.458192 
L 185.4263 106.458192 
z
" clip-path="url(#p9b149df9c3)" style="fill: #117733; fill-opacity: 0.6; stroke: #ffffff; stroke-opacity: 0.6; stroke-width: 0.339411"/>
    <path d="M 186.214723 98.609602 
L 188.014723 95.609602 
L 186.214723 92.609602 
L 184.414723 95.609602 
z
" clip-path="url(#p9b149df9c3)" style="fill: #117733; fill-opacity: 0.6; stroke: #ffffff; stroke-opacity: 0.6; stroke-width: 0.339411"/>
    <path d="M 203.563104 122.73464 
L 205.363104 119.73464 
L 203.563104 116.73464 
L 201.763104 119.73464 
z
" clip-path="url(#p9b149df9c3)" style="fill: #117733; fill-opacity: 0.6; stroke: #ffffff; stroke-opacity: 0.6; stroke-width: 0.339411"/>
    <path d="M 207.65031 119.708029 
L 209.45031 116.708029 
L 207.65031 113.708029 
L 205.85031 116.708029 
z
" clip-path="url(#p9b149df9c3)" style="fill: #117733; fill-opacity: 0.6; stroke: #ffffff; stroke-opacity: 0.6; stroke-width: 0.339411"/>
    <path d="M 189.618661 111.763937 
L 191.418661 108.763937 
L 189.618661 105.763937 
L 187.818661 108.763937 
z
" clip-path="url(#p9b149df9c3)" style="fill: #117733; fill-opacity: 0.6; stroke: #ffffff; stroke-opacity: 0.6; stroke-width: 0.339411"/>
    <path d="M 199.763299 118.592727 
L 201.563299 115.592727 
L 199.763299 112.592727 
L 197.963299 115.592727 
z
" clip-path="url(#p9b149df9c3)" style="fill: #117733; fill-opacity: 0.6; stroke: #ffffff; stroke-opacity: 0.6; stroke-width: 0.339411"/>
    <path d="M 188.830915 106.662526 
L 190.630915 103.662526 
L 188.830915 100.662526 
L 187.030915 103.662526 
z
" clip-path="url(#p9b149df9c3)" style="fill: #117733; fill-opacity: 0.6; stroke: #ffffff; stroke-opacity: 0.6; stroke-width: 0.339411"/>
    <path d="M 131.516182 121.209283 
L 133.316182 118.209283 
L 131.516182 115.209283 
L 129.716182 118.209283 
z
" clip-path="url(#p9b149df9c3)" style="fill: #117733; fill-opacity: 0.6; stroke: #ffffff; stroke-opacity: 0.6; stroke-width: 0.339411"/>
    <path d="M 125.108789 122.789875 
L 126.908789 119.789875 
L 125.108789 116.789875 
L 123.308789 119.789875 
z
" clip-path="url(#p9b149df9c3)" style="fill: #117733; fill-opacity: 0.6; stroke: #ffffff; stroke-opacity: 0.6; stroke-width: 0.339411"/>
    <path d="M 96.199045 102.429268 
L 97.999045 99.429268 
L 96.199045 96.429268 
L 94.399045 99.429268 
z
" clip-path="url(#p9b149df9c3)" style="fill: #117733; fill-opacity: 0.6; stroke: #ffffff; stroke-opacity: 0.6; stroke-width: 0.339411"/>
    <path d="M 212.097511 118.951114 
L 213.897511 115.951114 
L 212.097511 112.951114 
L 210.297511 115.951114 
z
" clip-path="url(#p9b149df9c3)" style="fill: #117733; fill-opacity: 0.6; stroke: #ffffff; stroke-opacity: 0.6; stroke-width: 0.339411"/>
    <path d="M 135.100159 141.813376 
L 136.900159 138.813376 
L 135.100159 135.813376 
L 133.300159 138.813376 
z
" clip-path="url(#p9b149df9c3)" style="fill: #117733; fill-opacity: 0.6; stroke: #ffffff; stroke-opacity: 0.6; stroke-width: 0.339411"/>
    <path d="M 115.165632 137.820789 
L 113.044312 142.063429 
L 117.286953 142.063429 
z
" clip-path="url(#p9b149df9c3)" style="fill: #44aa99; fill-opacity: 0.6; stroke: #ffffff; stroke-opacity: 0.6; stroke-width: 0.339411"/>
    <path d="M 93.872834 124.064281 
L 91.751514 128.306921 
L 95.994155 128.306921 
z
" clip-path="url(#p9b149df9c3)" style="fill: #44aa99; fill-opacity: 0.6; stroke: #ffffff; stroke-opacity: 0.6; stroke-width: 0.339411"/>
    <path d="M 106.14349 127.565786 
L 104.02217 131.808427 
L 108.264811 131.808427 
z
" clip-path="url(#p9b149df9c3)" style="fill: #44aa99; fill-opacity: 0.6; stroke: #ffffff; stroke-opacity: 0.6; stroke-width: 0.339411"/>
    <path d="M 96.179056 107.307824 
L 94.057736 111.550465 
L 98.300376 111.550465 
z
" clip-path="url(#p9b149df9c3)" style="fill: #44aa99; fill-opacity: 0.6; stroke: #ffffff; stroke-opacity: 0.6; stroke-width: 0.339411"/>
    <path d="M 107.120649 135.997438 
L 104.999329 140.240078 
L 109.24197 140.240078 
z
" clip-path="url(#p9b149df9c3)" style="fill: #44aa99; fill-opacity: 0.6; stroke: #ffffff; stroke-opacity: 0.6; stroke-width: 0.339411"/>
    <path d="M 108.010379 110.666863 
L 105.889058 114.909504 
L 110.131699 114.909504 
z
" clip-path="url(#p9b149df9c3)" style="fill: #44aa99; fill-opacity: 0.6; stroke: #ffffff; stroke-opacity: 0.6; stroke-width: 0.339411"/>
    <path d="M 81.929618 91.920997 
L 79.808298 96.163637 
L 84.050938 96.163637 
z
" clip-path="url(#p9b149df9c3)" style="fill: #44aa99; fill-opacity: 0.6; stroke: #ffffff; stroke-opacity: 0.6; stroke-width: 0.339411"/>
    <path d="M 102.117168 119.546407 
L 99.995847 123.789048 
L 104.238488 123.789048 
z
" clip-path="url(#p9b149df9c3)" style="fill: #44aa99; fill-opacity: 0.6; stroke: #ffffff; stroke-opacity: 0.6; stroke-width: 0.339411"/>
    <path d="M 129.369944 119.452016 
L 127.248623 123.694657 
L 131.491264 123.694657 
z
" clip-path="url(#p9b149df9c3)" style="fill: #44aa99; fill-opacity: 0.6; stroke: #ffffff; stroke-opacity: 0.6; stroke-width: 0.339411"/>
    <path d="M 122.298092 108.329112 
L 120.176772 112.571753 
L 124.419413 112.571753 
z
" clip-path="url(#p9b149df9c3)" style="fill: #44aa99; fill-opacity: 0.6; stroke: #ffffff; stroke-opacity: 0.6; stroke-width: 0.339411"/>
    <path d="M 103.824414 74.498939 
L 101.703094 78.74158 
L 105.945735 78.74158 
z
" clip-path="url(#p9b149df9c3)" style="fill: #44aa99; fill-opacity: 0.6; stroke: #ffffff; stroke-opacity: 0.6; stroke-width: 0.339411"/>
    <path d="M 118.04639 137.889571 
L 115.925069 142.132212 
L 120.16771 142.132212 
z
" clip-path="url(#p9b149df9c3)" style="fill: #44aa99; fill-opacity: 0.6; stroke: #ffffff; stroke-opacity: 0.6; stroke-width: 0.339411"/>
    <path d="M 120.15242 103.091647 
L 118.0311 107.334288 
L 122.27374 107.334288 
z
" clip-path="url(#p9b149df9c3)" style="fill: #44aa99; fill-opacity: 0.6; stroke: #ffffff; stroke-opacity: 0.6; stroke-width: 0.339411"/>
    <path d="M 95.040755 92.457535 
L 92.919435 96.700175 
L 97.162076 96.700175 
z
" clip-path="url(#p9b149df9c3)" style="fill: #44aa99; fill-opacity: 0.6; stroke: #ffffff; stroke-opacity: 0.6; stroke-width: 0.339411"/>
    <path d="M 118.103962 98.792848 
L 115.982642 103.035489 
L 120.225282 103.035489 
z
" clip-path="url(#p9b149df9c3)" style="fill: #44aa99; fill-opacity: 0.6; stroke: #ffffff; stroke-opacity: 0.6; stroke-width: 0.339411"/>
    <path d="M 95.307975 92.086636 
L 93.186655 96.329276 
L 97.429295 96.329276 
z
" clip-path="url(#p9b149df9c3)" style="fill: #44aa99; fill-opacity: 0.6; stroke: #ffffff; stroke-opacity: 0.6; stroke-width: 0.339411"/>
    <path d="M 77.27892 97.052201 
L 75.1576 101.294842 
L 79.400241 101.294842 
z
" clip-path="url(#p9b149df9c3)" style="fill: #44aa99; fill-opacity: 0.6; stroke: #ffffff; stroke-opacity: 0.6; stroke-width: 0.339411"/>
    <path d="M 115.982525 131.066955 
L 113.861205 135.309596 
L 118.103845 135.309596 
z
" clip-path="url(#p9b149df9c3)" style="fill: #44aa99; fill-opacity: 0.6; stroke: #ffffff; stroke-opacity: 0.6; stroke-width: 0.339411"/>
    <path d="M 118.12961 133.097536 
L 116.00829 137.340176 
L 120.25093 137.340176 
z
" clip-path="url(#p9b149df9c3)" style="fill: #44aa99; fill-opacity: 0.6; stroke: #ffffff; stroke-opacity: 0.6; stroke-width: 0.339411"/>
    <path d="M 115.498053 81.480592 
L 113.376732 85.723233 
L 117.619373 85.723233 
z
" clip-path="url(#p9b149df9c3)" style="fill: #44aa99; fill-opacity: 0.6; stroke: #ffffff; stroke-opacity: 0.6; stroke-width: 0.339411"/>
    <path d="M 109.06586 125.434827 
L 106.944539 129.677467 
L 111.18718 129.677467 
z
" clip-path="url(#p9b149df9c3)" style="fill: #44aa99; fill-opacity: 0.6; stroke: #ffffff; stroke-opacity: 0.6; stroke-width: 0.339411"/>
    <path d="M 108.463174 141.358936 
L 106.341854 145.601577 
L 110.584495 145.601577 
z
" clip-path="url(#p9b149df9c3)" style="fill: #44aa99; fill-opacity: 0.6; stroke: #ffffff; stroke-opacity: 0.6; stroke-width: 0.339411"/>
    <path d="M 107.22093 139.910181 
L 105.09961 144.152822 
L 109.34225 144.152822 
z
" clip-path="url(#p9b149df9c3)" style="fill: #44aa99; fill-opacity: 0.6; stroke: #ffffff; stroke-opacity: 0.6; stroke-width: 0.339411"/>
    <path d="M 101.35753 106.496136 
L 99.236209 110.738777 
L 103.47885 110.738777 
z
" clip-path="url(#p9b149df9c3)" style="fill: #44aa99; fill-opacity: 0.6; stroke: #ffffff; stroke-opacity: 0.6; stroke-width: 0.339411"/>
    <path d="M 118.258792 103.218165 
L 116.137472 107.460806 
L 120.380113 107.460806 
z
" clip-path="url(#p9b149df9c3)" style="fill: #44aa99; fill-opacity: 0.6; stroke: #ffffff; stroke-opacity: 0.6; stroke-width: 0.339411"/>
    <path d="M 123.020197 120.158243 
L 120.898877 124.400884 
L 125.141518 124.400884 
z
" clip-path="url(#p9b149df9c3)" style="fill: #44aa99; fill-opacity: 0.6; stroke: #ffffff; stroke-opacity: 0.6; stroke-width: 0.339411"/>
    <path d="M 111.18357 124.0323 
L 109.062249 128.274941 
L 113.30489 128.274941 
z
" clip-path="url(#p9b149df9c3)" style="fill: #44aa99; fill-opacity: 0.6; stroke: #ffffff; stroke-opacity: 0.6; stroke-width: 0.339411"/>
    <path d="M 112.701148 126.291437 
L 110.579828 130.534077 
L 114.822468 130.534077 
z
" clip-path="url(#p9b149df9c3)" style="fill: #44aa99; fill-opacity: 0.6; stroke: #ffffff; stroke-opacity: 0.6; stroke-width: 0.339411"/>
    <path d="M 120.326126 85.911587 
L 118.204805 90.154228 
L 122.447446 90.154228 
z
" clip-path="url(#p9b149df9c3)" style="fill: #44aa99; fill-opacity: 0.6; stroke: #ffffff; stroke-opacity: 0.6; stroke-width: 0.339411"/>
    <path d="M 103.443567 135.360555 
L 101.322247 139.603196 
L 105.564887 139.603196 
z
" clip-path="url(#p9b149df9c3)" style="fill: #44aa99; fill-opacity: 0.6; stroke: #ffffff; stroke-opacity: 0.6; stroke-width: 0.339411"/>
    <path d="M 119.629681 104.071507 
L 117.50836 108.314148 
L 121.751001 108.314148 
z
" clip-path="url(#p9b149df9c3)" style="fill: #44aa99; fill-opacity: 0.6; stroke: #ffffff; stroke-opacity: 0.6; stroke-width: 0.339411"/>
    <path d="M 111.892961 115.030232 
L 109.771641 119.272873 
L 114.014282 119.272873 
z
" clip-path="url(#p9b149df9c3)" style="fill: #44aa99; fill-opacity: 0.6; stroke: #ffffff; stroke-opacity: 0.6; stroke-width: 0.339411"/>
    <path d="M 112.241182 117.178153 
L 110.119862 121.420794 
L 114.362502 121.420794 
z
" clip-path="url(#p9b149df9c3)" style="fill: #44aa99; fill-opacity: 0.6; stroke: #ffffff; stroke-opacity: 0.6; stroke-width: 0.339411"/>
    <path d="M 122.34056 137.990621 
L 120.219239 142.233261 
L 124.46188 142.233261 
z
" clip-path="url(#p9b149df9c3)" style="fill: #44aa99; fill-opacity: 0.6; stroke: #ffffff; stroke-opacity: 0.6; stroke-width: 0.339411"/>
    <path d="M 129.895384 142.226326 
L 127.774064 146.468967 
L 132.016705 146.468967 
z
" clip-path="url(#p9b149df9c3)" style="fill: #44aa99; fill-opacity: 0.6; stroke: #ffffff; stroke-opacity: 0.6; stroke-width: 0.339411"/>
    <path d="M 90.126621 101.999482 
L 88.005301 106.242123 
L 92.247941 106.242123 
z
" clip-path="url(#p9b149df9c3)" style="fill: #44aa99; fill-opacity: 0.6; stroke: #ffffff; stroke-opacity: 0.6; stroke-width: 0.339411"/>
    <path d="M 116.021782 108.8439 
L 113.900462 113.08654 
L 118.143103 113.08654 
z
" clip-path="url(#p9b149df9c3)" style="fill: #44aa99; fill-opacity: 0.6; stroke: #ffffff; stroke-opacity: 0.6; stroke-width: 0.339411"/>
    <path d="M 114.704251 94.654196 
L 112.582931 98.896837 
L 116.825571 98.896837 
z
" clip-path="url(#p9b149df9c3)" style="fill: #44aa99; fill-opacity: 0.6; stroke: #ffffff; stroke-opacity: 0.6; stroke-width: 0.339411"/>
    <path d="M 87.057951 92.743034 
L 84.936631 96.985674 
L 89.179272 96.985674 
z
" clip-path="url(#p9b149df9c3)" style="fill: #44aa99; fill-opacity: 0.6; stroke: #ffffff; stroke-opacity: 0.6; stroke-width: 0.339411"/>
    <path d="M 98.218019 118.830463 
L 96.096699 123.073104 
L 100.339339 123.073104 
z
" clip-path="url(#p9b149df9c3)" style="fill: #44aa99; fill-opacity: 0.6; stroke: #ffffff; stroke-opacity: 0.6; stroke-width: 0.339411"/>
    <path d="M 77.350552 105.620158 
L 75.229232 109.862799 
L 79.471873 109.862799 
z
" clip-path="url(#p9b149df9c3)" style="fill: #44aa99; fill-opacity: 0.6; stroke: #ffffff; stroke-opacity: 0.6; stroke-width: 0.339411"/>
    <path d="M 106.869238 116.864795 
L 104.747918 121.107436 
L 108.990558 121.107436 
z
" clip-path="url(#p9b149df9c3)" style="fill: #44aa99; fill-opacity: 0.6; stroke: #ffffff; stroke-opacity: 0.6; stroke-width: 0.339411"/>
    <path d="M 108.508986 118.433118 
L 106.387665 122.675759 
L 110.630306 122.675759 
z
" clip-path="url(#p9b149df9c3)" style="fill: #44aa99; fill-opacity: 0.6; stroke: #ffffff; stroke-opacity: 0.6; stroke-width: 0.339411"/>
    <path d="M 111.76423 134.397314 
L 109.642909 138.639955 
L 113.88555 138.639955 
z
" clip-path="url(#p9b149df9c3)" style="fill: #44aa99; fill-opacity: 0.6; stroke: #ffffff; stroke-opacity: 0.6; stroke-width: 0.339411"/>
    <path d="M 105.066056 114.305185 
L 102.944736 118.547825 
L 107.187376 118.547825 
z
" clip-path="url(#p9b149df9c3)" style="fill: #44aa99; fill-opacity: 0.6; stroke: #ffffff; stroke-opacity: 0.6; stroke-width: 0.339411"/>
    <path d="M 102.410739 135.322611 
L 100.289419 139.565251 
L 104.53206 139.565251 
z
" clip-path="url(#p9b149df9c3)" style="fill: #44aa99; fill-opacity: 0.6; stroke: #ffffff; stroke-opacity: 0.6; stroke-width: 0.339411"/>
    <path d="M 113.136709 117.108254 
L 111.015389 121.350894 
L 115.258029 121.350894 
z
" clip-path="url(#p9b149df9c3)" style="fill: #44aa99; fill-opacity: 0.6; stroke: #ffffff; stroke-opacity: 0.6; stroke-width: 0.339411"/>
    <path d="M 117.904627 65.978984 
L 115.783307 70.221625 
L 120.025948 70.221625 
z
" clip-path="url(#p9b149df9c3)" style="fill: #44aa99; fill-opacity: 0.6; stroke: #ffffff; stroke-opacity: 0.6; stroke-width: 0.339411"/>
    <path d="M 102.256128 123.038537 
L 100.134808 127.281178 
L 104.377449 127.281178 
z
" clip-path="url(#p9b149df9c3)" style="fill: #44aa99; fill-opacity: 0.6; stroke: #ffffff; stroke-opacity: 0.6; stroke-width: 0.339411"/>
    <path d="M 115.268302 123.153928 
L 113.146981 127.396569 
L 117.389622 127.396569 
z
" clip-path="url(#p9b149df9c3)" style="fill: #44aa99; fill-opacity: 0.6; stroke: #ffffff; stroke-opacity: 0.6; stroke-width: 0.339411"/>
    <path d="M 119.039009 149.230952 
L 116.917689 153.473593 
L 121.16033 153.473593 
z
" clip-path="url(#p9b149df9c3)" style="fill: #44aa99; fill-opacity: 0.6; stroke: #ffffff; stroke-opacity: 0.6; stroke-width: 0.339411"/>
    <path d="M 121.602576 132.922437 
L 119.481255 137.165078 
L 123.723896 137.165078 
z
" clip-path="url(#p9b149df9c3)" style="fill: #44aa99; fill-opacity: 0.6; stroke: #ffffff; stroke-opacity: 0.6; stroke-width: 0.339411"/>
    <path d="M 94.433492 124.90288 
L 92.312171 129.145521 
L 96.554812 129.145521 
z
" clip-path="url(#p9b149df9c3)" style="fill: #44aa99; fill-opacity: 0.6; stroke: #ffffff; stroke-opacity: 0.6; stroke-width: 0.339411"/>
    <path d="M 109.4074 125.476168 
L 107.28608 129.718809 
L 111.528721 129.718809 
z
" clip-path="url(#p9b149df9c3)" style="fill: #44aa99; fill-opacity: 0.6; stroke: #ffffff; stroke-opacity: 0.6; stroke-width: 0.339411"/>
    <path d="M 119.674144 132.964391 
L 117.552823 137.207031 
L 121.795464 137.207031 
z
" clip-path="url(#p9b149df9c3)" style="fill: #44aa99; fill-opacity: 0.6; stroke: #ffffff; stroke-opacity: 0.6; stroke-width: 0.339411"/>
    <path d="M 98.484616 131.140582 
L 96.363296 135.383223 
L 100.605936 135.383223 
z
" clip-path="url(#p9b149df9c3)" style="fill: #44aa99; fill-opacity: 0.6; stroke: #ffffff; stroke-opacity: 0.6; stroke-width: 0.339411"/>
    <path d="M 121.297532 131.133312 
L 119.176212 135.375953 
L 123.418853 135.375953 
z
" clip-path="url(#p9b149df9c3)" style="fill: #44aa99; fill-opacity: 0.6; stroke: #ffffff; stroke-opacity: 0.6; stroke-width: 0.339411"/>
    <path d="M 119.153906 103.688858 
L 117.032586 107.931499 
L 121.275227 107.931499 
z
" clip-path="url(#p9b149df9c3)" style="fill: #44aa99; fill-opacity: 0.6; stroke: #ffffff; stroke-opacity: 0.6; stroke-width: 0.339411"/>
    <path d="M 103.697945 135.435463 
L 101.576625 139.678103 
L 105.819265 139.678103 
z
" clip-path="url(#p9b149df9c3)" style="fill: #44aa99; fill-opacity: 0.6; stroke: #ffffff; stroke-opacity: 0.6; stroke-width: 0.339411"/>
    <path d="M 116.486585 149.99359 
L 114.365265 154.236231 
L 118.607905 154.236231 
z
" clip-path="url(#p9b149df9c3)" style="fill: #44aa99; fill-opacity: 0.6; stroke: #ffffff; stroke-opacity: 0.6; stroke-width: 0.339411"/>
    <path d="M 122.861026 123.987015 
L 120.739706 128.229656 
L 124.982346 128.229656 
z
" clip-path="url(#p9b149df9c3)" style="fill: #44aa99; fill-opacity: 0.6; stroke: #ffffff; stroke-opacity: 0.6; stroke-width: 0.339411"/>
    <path d="M 132.315356 119.407937 
L 130.194036 123.650578 
L 134.436676 123.650578 
z
" clip-path="url(#p9b149df9c3)" style="fill: #44aa99; fill-opacity: 0.6; stroke: #ffffff; stroke-opacity: 0.6; stroke-width: 0.339411"/>
    <path d="M 118.362215 122.688553 
L 116.240895 126.931194 
L 120.483535 126.931194 
z
" clip-path="url(#p9b149df9c3)" style="fill: #44aa99; fill-opacity: 0.6; stroke: #ffffff; stroke-opacity: 0.6; stroke-width: 0.339411"/>
    <path d="M 103.387218 160.826011 
L 107.629859 160.826011 
L 107.629859 156.58337 
L 103.387218 156.58337 
z
" clip-path="url(#p9b149df9c3)" style="fill: #88ccee; fill-opacity: 0.6; stroke: #ffffff; stroke-opacity: 0.6; stroke-width: 0.339411"/>
    <path d="M 138.314448 150.725108 
L 142.557088 150.725108 
L 142.557088 146.482468 
L 138.314448 146.482468 
z
" clip-path="url(#p9b149df9c3)" style="fill: #88ccee; fill-opacity: 0.6; stroke: #ffffff; stroke-opacity: 0.6; stroke-width: 0.339411"/>
    <path d="M 90.968125 132.862246 
L 95.210766 132.862246 
L 95.210766 128.619605 
L 90.968125 128.619605 
z
" clip-path="url(#p9b149df9c3)" style="fill: #88ccee; fill-opacity: 0.6; stroke: #ffffff; stroke-opacity: 0.6; stroke-width: 0.339411"/>
    <path d="M 92.502547 163.036553 
L 96.745188 163.036553 
L 96.745188 158.793913 
L 92.502547 158.793913 
z
" clip-path="url(#p9b149df9c3)" style="fill: #88ccee; fill-opacity: 0.6; stroke: #ffffff; stroke-opacity: 0.6; stroke-width: 0.339411"/>
    <path d="M 125.369133 125.804457 
L 129.611774 125.804457 
L 129.611774 121.561817 
L 125.369133 121.561817 
z
" clip-path="url(#p9b149df9c3)" style="fill: #88ccee; fill-opacity: 0.6; stroke: #ffffff; stroke-opacity: 0.6; stroke-width: 0.339411"/>
    <path d="M 118.96901 158.926847 
L 123.211651 158.926847 
L 123.211651 154.684206 
L 118.96901 154.684206 
z
" clip-path="url(#p9b149df9c3)" style="fill: #88ccee; fill-opacity: 0.6; stroke: #ffffff; stroke-opacity: 0.6; stroke-width: 0.339411"/>
    <path d="M 108.115024 170.403844 
L 112.357664 170.403844 
L 112.357664 166.161203 
L 108.115024 166.161203 
z
" clip-path="url(#p9b149df9c3)" style="fill: #88ccee; fill-opacity: 0.6; stroke: #ffffff; stroke-opacity: 0.6; stroke-width: 0.339411"/>
    <path d="M 115.263522 103.494797 
L 119.506163 103.494797 
L 119.506163 99.252156 
L 115.263522 99.252156 
z
" clip-path="url(#p9b149df9c3)" style="fill: #88ccee; fill-opacity: 0.6; stroke: #ffffff; stroke-opacity: 0.6; stroke-width: 0.339411"/>
    <path d="M 125.229202 160.933528 
L 129.471843 160.933528 
L 129.471843 156.690887 
L 125.229202 156.690887 
z
" clip-path="url(#p9b149df9c3)" style="fill: #88ccee; fill-opacity: 0.6; stroke: #ffffff; stroke-opacity: 0.6; stroke-width: 0.339411"/>
    <path d="M 122.47589 144.048422 
L 126.718531 144.048422 
L 126.718531 139.805782 
L 122.47589 139.805782 
z
" clip-path="url(#p9b149df9c3)" style="fill: #88ccee; fill-opacity: 0.6; stroke: #ffffff; stroke-opacity: 0.6; stroke-width: 0.339411"/>
    <path d="M 134.43997 124.893484 
L 138.68261 124.893484 
L 138.68261 120.650844 
L 134.43997 120.650844 
z
" clip-path="url(#p9b149df9c3)" style="fill: #88ccee; fill-opacity: 0.6; stroke: #ffffff; stroke-opacity: 0.6; stroke-width: 0.339411"/>
    <path d="M 98.934746 160.87447 
L 103.177386 160.87447 
L 103.177386 156.631829 
L 98.934746 156.631829 
z
" clip-path="url(#p9b149df9c3)" style="fill: #88ccee; fill-opacity: 0.6; stroke: #ffffff; stroke-opacity: 0.6; stroke-width: 0.339411"/>
    <path d="M 144.626846 149.142797 
L 148.869486 149.142797 
L 148.869486 144.900156 
L 144.626846 144.900156 
z
" clip-path="url(#p9b149df9c3)" style="fill: #88ccee; fill-opacity: 0.6; stroke: #ffffff; stroke-opacity: 0.6; stroke-width: 0.339411"/>
    <path d="M 113.066253 137.986749 
L 117.308893 137.986749 
L 117.308893 133.744108 
L 113.066253 133.744108 
z
" clip-path="url(#p9b149df9c3)" style="fill: #88ccee; fill-opacity: 0.6; stroke: #ffffff; stroke-opacity: 0.6; stroke-width: 0.339411"/>
    <path d="M 101.756059 164.386613 
L 105.9987 164.386613 
L 105.9987 160.143972 
L 101.756059 160.143972 
z
" clip-path="url(#p9b149df9c3)" style="fill: #88ccee; fill-opacity: 0.6; stroke: #ffffff; stroke-opacity: 0.6; stroke-width: 0.339411"/>
    <path d="M 124.883335 119.074118 
L 129.125976 119.074118 
L 129.125976 114.831477 
L 124.883335 114.831477 
z
" clip-path="url(#p9b149df9c3)" style="fill: #88ccee; fill-opacity: 0.6; stroke: #ffffff; stroke-opacity: 0.6; stroke-width: 0.339411"/>
    <path d="M 87.42707 144.498177 
L 91.669711 144.498177 
L 91.669711 140.255536 
L 87.42707 140.255536 
z
" clip-path="url(#p9b149df9c3)" style="fill: #88ccee; fill-opacity: 0.6; stroke: #ffffff; stroke-opacity: 0.6; stroke-width: 0.339411"/>
    <path d="M 128.749991 154.323982 
L 132.992631 154.323982 
L 132.992631 150.081341 
L 128.749991 150.081341 
z
" clip-path="url(#p9b149df9c3)" style="fill: #88ccee; fill-opacity: 0.6; stroke: #ffffff; stroke-opacity: 0.6; stroke-width: 0.339411"/>
    <path d="M 109.684006 126.988218 
L 113.926647 126.988218 
L 113.926647 122.745577 
L 109.684006 122.745577 
z
" clip-path="url(#p9b149df9c3)" style="fill: #88ccee; fill-opacity: 0.6; stroke: #ffffff; stroke-opacity: 0.6; stroke-width: 0.339411"/>
    <path d="M 96.363459 143.672693 
L 100.6061 143.672693 
L 100.6061 139.430052 
L 96.363459 139.430052 
z
" clip-path="url(#p9b149df9c3)" style="fill: #88ccee; fill-opacity: 0.6; stroke: #ffffff; stroke-opacity: 0.6; stroke-width: 0.339411"/>
    <path d="M 121.473927 129.891416 
L 125.716568 129.891416 
L 125.716568 125.648775 
L 121.473927 125.648775 
z
" clip-path="url(#p9b149df9c3)" style="fill: #88ccee; fill-opacity: 0.6; stroke: #ffffff; stroke-opacity: 0.6; stroke-width: 0.339411"/>
    <path d="M 89.310444 153.359258 
L 93.553084 153.359258 
L 93.553084 149.116618 
L 89.310444 149.116618 
z
" clip-path="url(#p9b149df9c3)" style="fill: #88ccee; fill-opacity: 0.6; stroke: #ffffff; stroke-opacity: 0.6; stroke-width: 0.339411"/>
    <path d="M 106.133581 163.007819 
L 110.376221 163.007819 
L 110.376221 158.765178 
L 106.133581 158.765178 
z
" clip-path="url(#p9b149df9c3)" style="fill: #88ccee; fill-opacity: 0.6; stroke: #ffffff; stroke-opacity: 0.6; stroke-width: 0.339411"/>
    <path d="M 108.660233 165.571956 
L 112.902874 165.571956 
L 112.902874 161.329315 
L 108.660233 161.329315 
z
" clip-path="url(#p9b149df9c3)" style="fill: #88ccee; fill-opacity: 0.6; stroke: #ffffff; stroke-opacity: 0.6; stroke-width: 0.339411"/>
    <path d="M 104.042482 146.981561 
L 108.285122 146.981561 
L 108.285122 142.73892 
L 104.042482 142.73892 
z
" clip-path="url(#p9b149df9c3)" style="fill: #88ccee; fill-opacity: 0.6; stroke: #ffffff; stroke-opacity: 0.6; stroke-width: 0.339411"/>
    <path d="M 106.340668 147.678186 
L 110.583308 147.678186 
L 110.583308 143.435545 
L 106.340668 143.435545 
z
" clip-path="url(#p9b149df9c3)" style="fill: #88ccee; fill-opacity: 0.6; stroke: #ffffff; stroke-opacity: 0.6; stroke-width: 0.339411"/>
    <path d="M 127.021532 107.581483 
L 131.264173 107.581483 
L 131.264173 103.338843 
L 127.021532 103.338843 
z
" clip-path="url(#p9b149df9c3)" style="fill: #88ccee; fill-opacity: 0.6; stroke: #ffffff; stroke-opacity: 0.6; stroke-width: 0.339411"/>
    <path d="M 112.488593 158.601526 
L 116.731234 158.601526 
L 116.731234 154.358886 
L 112.488593 154.358886 
z
" clip-path="url(#p9b149df9c3)" style="fill: #88ccee; fill-opacity: 0.6; stroke: #ffffff; stroke-opacity: 0.6; stroke-width: 0.339411"/>
    <path d="M 98.385586 135.350124 
L 102.628227 135.350124 
L 102.628227 131.107483 
L 98.385586 131.107483 
z
" clip-path="url(#p9b149df9c3)" style="fill: #88ccee; fill-opacity: 0.6; stroke: #ffffff; stroke-opacity: 0.6; stroke-width: 0.339411"/>
    <path d="M 95.729858 119.749242 
L 99.972499 119.749242 
L 99.972499 115.506601 
L 95.729858 115.506601 
z
" clip-path="url(#p9b149df9c3)" style="fill: #88ccee; fill-opacity: 0.6; stroke: #ffffff; stroke-opacity: 0.6; stroke-width: 0.339411"/>
    <path d="M 106.340991 162.385679 
L 110.583632 162.385679 
L 110.583632 158.143039 
L 106.340991 158.143039 
z
" clip-path="url(#p9b149df9c3)" style="fill: #88ccee; fill-opacity: 0.6; stroke: #ffffff; stroke-opacity: 0.6; stroke-width: 0.339411"/>
    <path d="M 175.864755 114.686766 
L 180.107396 114.686766 
L 180.107396 110.444125 
L 175.864755 110.444125 
z
" clip-path="url(#p9b149df9c3)" style="fill: #88ccee; fill-opacity: 0.6; stroke: #ffffff; stroke-opacity: 0.6; stroke-width: 0.339411"/>
    <path d="M 108.845824 164.7081 
L 113.088465 164.7081 
L 113.088465 160.46546 
L 108.845824 160.46546 
z
" clip-path="url(#p9b149df9c3)" style="fill: #88ccee; fill-opacity: 0.6; stroke: #ffffff; stroke-opacity: 0.6; stroke-width: 0.339411"/>
    <path d="M 136.168963 148.696269 
L 140.411604 148.696269 
L 140.411604 144.453628 
L 136.168963 144.453628 
z
" clip-path="url(#p9b149df9c3)" style="fill: #88ccee; fill-opacity: 0.6; stroke: #ffffff; stroke-opacity: 0.6; stroke-width: 0.339411"/>
    <path d="M 88.343641 151.520668 
L 92.586282 151.520668 
L 92.586282 147.278027 
L 88.343641 147.278027 
z
" clip-path="url(#p9b149df9c3)" style="fill: #88ccee; fill-opacity: 0.6; stroke: #ffffff; stroke-opacity: 0.6; stroke-width: 0.339411"/>
    <path d="M 110.007872 157.102821 
L 114.250513 157.102821 
L 114.250513 152.86018 
L 110.007872 152.86018 
z
" clip-path="url(#p9b149df9c3)" style="fill: #88ccee; fill-opacity: 0.6; stroke: #ffffff; stroke-opacity: 0.6; stroke-width: 0.339411"/>
    <path d="M 137.654004 155.480065 
L 141.896645 155.480065 
L 141.896645 151.237425 
L 137.654004 151.237425 
z
" clip-path="url(#p9b149df9c3)" style="fill: #88ccee; fill-opacity: 0.6; stroke: #ffffff; stroke-opacity: 0.6; stroke-width: 0.339411"/>
    <path d="M 104.696159 164.781661 
L 108.9388 164.781661 
L 108.9388 160.53902 
L 104.696159 160.53902 
z
" clip-path="url(#p9b149df9c3)" style="fill: #88ccee; fill-opacity: 0.6; stroke: #ffffff; stroke-opacity: 0.6; stroke-width: 0.339411"/>
    <path d="M 104.819052 162.554782 
L 109.061693 162.554782 
L 109.061693 158.312141 
L 104.819052 158.312141 
z
" clip-path="url(#p9b149df9c3)" style="fill: #88ccee; fill-opacity: 0.6; stroke: #ffffff; stroke-opacity: 0.6; stroke-width: 0.339411"/>
    <path d="M 140.424049 135.506042 
L 144.666689 135.506042 
L 144.666689 131.263401 
L 140.424049 131.263401 
z
" clip-path="url(#p9b149df9c3)" style="fill: #88ccee; fill-opacity: 0.6; stroke: #ffffff; stroke-opacity: 0.6; stroke-width: 0.339411"/>
    <path d="M 110.347315 105.698044 
L 114.589956 105.698044 
L 114.589956 101.455403 
L 110.347315 101.455403 
z
" clip-path="url(#p9b149df9c3)" style="fill: #88ccee; fill-opacity: 0.6; stroke: #ffffff; stroke-opacity: 0.6; stroke-width: 0.339411"/>
    <path d="M 106.073407 140.462316 
L 110.316048 140.462316 
L 110.316048 136.219676 
L 106.073407 136.219676 
z
" clip-path="url(#p9b149df9c3)" style="fill: #88ccee; fill-opacity: 0.6; stroke: #ffffff; stroke-opacity: 0.6; stroke-width: 0.339411"/>
    <path d="M 109.350724 116.499103 
L 113.593364 116.499103 
L 113.593364 112.256462 
L 109.350724 112.256462 
z
" clip-path="url(#p9b149df9c3)" style="fill: #88ccee; fill-opacity: 0.6; stroke: #ffffff; stroke-opacity: 0.6; stroke-width: 0.339411"/>
    <path d="M 100.291629 161.465814 
L 104.53427 161.465814 
L 104.53427 157.223174 
L 100.291629 157.223174 
z
" clip-path="url(#p9b149df9c3)" style="fill: #88ccee; fill-opacity: 0.6; stroke: #ffffff; stroke-opacity: 0.6; stroke-width: 0.339411"/>
    <path d="M 93.849111 146.390317 
L 98.091752 146.390317 
L 98.091752 142.147676 
L 93.849111 142.147676 
z
" clip-path="url(#p9b149df9c3)" style="fill: #88ccee; fill-opacity: 0.6; stroke: #ffffff; stroke-opacity: 0.6; stroke-width: 0.339411"/>
    <path d="M 90.191888 115.853803 
L 94.434528 115.853803 
L 94.434528 111.611162 
L 90.191888 111.611162 
z
" clip-path="url(#p9b149df9c3)" style="fill: #88ccee; fill-opacity: 0.6; stroke: #ffffff; stroke-opacity: 0.6; stroke-width: 0.339411"/>
    <path d="M 99.529295 120.747279 
L 103.771936 120.747279 
L 103.771936 116.504638 
L 99.529295 116.504638 
z
" clip-path="url(#p9b149df9c3)" style="fill: #88ccee; fill-opacity: 0.6; stroke: #ffffff; stroke-opacity: 0.6; stroke-width: 0.339411"/>
    <path d="M 91.919825 160.815378 
L 96.162466 160.815378 
L 96.162466 156.572738 
L 91.919825 156.572738 
z
" clip-path="url(#p9b149df9c3)" style="fill: #88ccee; fill-opacity: 0.6; stroke: #ffffff; stroke-opacity: 0.6; stroke-width: 0.339411"/>
    <path d="M 138.566997 130.052264 
L 142.809638 130.052264 
L 142.809638 125.809624 
L 138.566997 125.809624 
z
" clip-path="url(#p9b149df9c3)" style="fill: #88ccee; fill-opacity: 0.6; stroke: #ffffff; stroke-opacity: 0.6; stroke-width: 0.339411"/>
    <path d="M 111.489497 159.417267 
L 115.732138 159.417267 
L 115.732138 155.174626 
L 111.489497 155.174626 
z
" clip-path="url(#p9b149df9c3)" style="fill: #88ccee; fill-opacity: 0.6; stroke: #ffffff; stroke-opacity: 0.6; stroke-width: 0.339411"/>
    <path d="M 115.818314 124.52486 
L 120.060955 124.52486 
L 120.060955 120.28222 
L 115.818314 120.28222 
z
" clip-path="url(#p9b149df9c3)" style="fill: #88ccee; fill-opacity: 0.6; stroke: #ffffff; stroke-opacity: 0.6; stroke-width: 0.339411"/>
    <path d="M 89.214873 173.317311 
L 93.457514 173.317311 
L 93.457514 169.07467 
L 89.214873 169.07467 
z
" clip-path="url(#p9b149df9c3)" style="fill: #88ccee; fill-opacity: 0.6; stroke: #ffffff; stroke-opacity: 0.6; stroke-width: 0.339411"/>
    <path d="M 127.600288 151.746605 
L 131.842929 151.746605 
L 131.842929 147.503964 
L 127.600288 147.503964 
z
" clip-path="url(#p9b149df9c3)" style="fill: #88ccee; fill-opacity: 0.6; stroke: #ffffff; stroke-opacity: 0.6; stroke-width: 0.339411"/>
    <path d="M 111.737822 113.870753 
L 115.980463 113.870753 
L 115.980463 109.628113 
L 111.737822 109.628113 
z
" clip-path="url(#p9b149df9c3)" style="fill: #88ccee; fill-opacity: 0.6; stroke: #ffffff; stroke-opacity: 0.6; stroke-width: 0.339411"/>
    <path d="M 115.881094 156.963513 
L 120.123735 156.963513 
L 120.123735 152.720873 
L 115.881094 152.720873 
z
" clip-path="url(#p9b149df9c3)" style="fill: #88ccee; fill-opacity: 0.6; stroke: #ffffff; stroke-opacity: 0.6; stroke-width: 0.339411"/>
    <path d="M 116.198912 96.471247 
L 120.441553 96.471247 
L 120.441553 92.228607 
L 116.198912 92.228607 
z
" clip-path="url(#p9b149df9c3)" style="fill: #88ccee; fill-opacity: 0.6; stroke: #ffffff; stroke-opacity: 0.6; stroke-width: 0.339411"/>
    <path d="M 102.28637 153.041163 
L 106.529011 153.041163 
L 106.529011 148.798522 
L 102.28637 148.798522 
z
" clip-path="url(#p9b149df9c3)" style="fill: #88ccee; fill-opacity: 0.6; stroke: #ffffff; stroke-opacity: 0.6; stroke-width: 0.339411"/>
    <path d="M 121.204139 142.811663 
L 125.44678 142.811663 
L 125.44678 138.569023 
L 121.204139 138.569023 
z
" clip-path="url(#p9b149df9c3)" style="fill: #88ccee; fill-opacity: 0.6; stroke: #ffffff; stroke-opacity: 0.6; stroke-width: 0.339411"/>
    <path d="M 132.054128 130.860397 
L 136.296769 130.860397 
L 136.296769 126.617756 
L 132.054128 126.617756 
z
" clip-path="url(#p9b149df9c3)" style="fill: #88ccee; fill-opacity: 0.6; stroke: #ffffff; stroke-opacity: 0.6; stroke-width: 0.339411"/>
    <path d="M 107.916202 108.575733 
L 112.158842 108.575733 
L 112.158842 104.333092 
L 107.916202 104.333092 
z
" clip-path="url(#p9b149df9c3)" style="fill: #88ccee; fill-opacity: 0.6; stroke: #ffffff; stroke-opacity: 0.6; stroke-width: 0.339411"/>
    <path d="M 125.026837 156.94862 
L 129.269478 156.94862 
L 129.269478 152.70598 
L 125.026837 152.70598 
z
" clip-path="url(#p9b149df9c3)" style="fill: #88ccee; fill-opacity: 0.6; stroke: #ffffff; stroke-opacity: 0.6; stroke-width: 0.339411"/>
    <path d="M 96.411572 123.724428 
L 100.654213 123.724428 
L 100.654213 119.481788 
L 96.411572 119.481788 
z
" clip-path="url(#p9b149df9c3)" style="fill: #88ccee; fill-opacity: 0.6; stroke: #ffffff; stroke-opacity: 0.6; stroke-width: 0.339411"/>
    <path d="M 114.341385 151.924883 
L 118.584026 151.924883 
L 118.584026 147.682243 
L 114.341385 147.682243 
z
" clip-path="url(#p9b149df9c3)" style="fill: #88ccee; fill-opacity: 0.6; stroke: #ffffff; stroke-opacity: 0.6; stroke-width: 0.339411"/>
    <path d="M 87.236068 104.619229 
L 91.478709 104.619229 
L 91.478709 100.376588 
L 87.236068 100.376588 
z
" clip-path="url(#p9b149df9c3)" style="fill: #88ccee; fill-opacity: 0.6; stroke: #ffffff; stroke-opacity: 0.6; stroke-width: 0.339411"/>
   </g>
   <g id="matplotlib.axis_1">
    <g id="xtick_1">
     <g id="line2d_1">
      <defs>
       <path id="m5bed0f0bcd" d="M 0 0 
L 0 8 
" style="stroke: #000000"/>
      </defs>
      <g>
       <use xlink:href="#m5bed0f0bcd" x="90.20457" y="182.717551" style="stroke: #000000"/>
      </g>
     </g>
     <g id="text_1">
      <!-- 10 -->
      <g transform="translate(77.541758 203.335676) scale(0.12 -0.12)">
       <defs>
        <path id="DejaVuSans-2212" d="M 678 2272 
L 4684 2272 
L 4684 1741 
L 678 1741 
L 678 2272 
z
" transform="scale(0.015625)"/>
        <path id="DejaVuSans-31" d="M 794 531 
L 1825 531 
L 1825 4091 
L 703 3866 
L 703 4441 
L 1819 4666 
L 2450 4666 
L 2450 531 
L 3481 531 
L 3481 0 
L 794 0 
L 794 531 
z
" transform="scale(0.015625)"/>
        <path id="DejaVuSans-30" d="M 2034 4250 
Q 1547 4250 1301 3770 
Q 1056 3291 1056 2328 
Q 1056 1369 1301 889 
Q 1547 409 2034 409 
Q 2525 409 2770 889 
Q 3016 1369 3016 2328 
Q 3016 3291 2770 3770 
Q 2525 4250 2034 4250 
z
M 2034 4750 
Q 2819 4750 3233 4129 
Q 3647 3509 3647 2328 
Q 3647 1150 3233 529 
Q 2819 -91 2034 -91 
Q 1250 -91 836 529 
Q 422 1150 422 2328 
Q 422 3509 836 4129 
Q 1250 4750 2034 4750 
z
" transform="scale(0.015625)"/>
       </defs>
       <use xlink:href="#DejaVuSans-2212"/>
       <use xlink:href="#DejaVuSans-31" x="83.789062"/>
       <use xlink:href="#DejaVuSans-30" x="147.412109"/>
      </g>
     </g>
    </g>
    <g id="xtick_2">
     <g id="line2d_2">
      <g>
       <use xlink:href="#m5bed0f0bcd" x="133.983861" y="182.717551" style="stroke: #000000"/>
      </g>
     </g>
     <g id="text_2">
      <!-- 0 -->
      <g transform="translate(130.166361 203.335676) scale(0.12 -0.12)">
       <use xlink:href="#DejaVuSans-30"/>
      </g>
     </g>
    </g>
    <g id="xtick_3">
     <g id="line2d_3">
      <g>
       <use xlink:href="#m5bed0f0bcd" x="177.763151" y="182.717551" style="stroke: #000000"/>
      </g>
     </g>
     <g id="text_3">
      <!-- 10 -->
      <g transform="translate(170.128151 203.335676) scale(0.12 -0.12)">
       <use xlink:href="#DejaVuSans-31"/>
       <use xlink:href="#DejaVuSans-30" x="63.623047"/>
      </g>
     </g>
    </g>
    <g id="xtick_4">
     <g id="line2d_4">
      <g>
       <use xlink:href="#m5bed0f0bcd" x="221.542442" y="182.717551" style="stroke: #000000"/>
      </g>
     </g>
     <g id="text_4">
      <!-- 20 -->
      <g transform="translate(213.907442 203.335676) scale(0.12 -0.12)">
       <defs>
        <path id="DejaVuSans-32" d="M 1228 531 
L 3431 531 
L 3431 0 
L 469 0 
L 469 531 
Q 828 903 1448 1529 
Q 2069 2156 2228 2338 
Q 2531 2678 2651 2914 
Q 2772 3150 2772 3378 
Q 2772 3750 2511 3984 
Q 2250 4219 1831 4219 
Q 1534 4219 1204 4116 
Q 875 4013 500 3803 
L 500 4441 
Q 881 4594 1212 4672 
Q 1544 4750 1819 4750 
Q 2544 4750 2975 4387 
Q 3406 4025 3406 3419 
Q 3406 3131 3298 2873 
Q 3191 2616 2906 2266 
Q 2828 2175 2409 1742 
Q 1991 1309 1228 531 
z
" transform="scale(0.015625)"/>
       </defs>
       <use xlink:href="#DejaVuSans-32"/>
       <use xlink:href="#DejaVuSans-30" x="63.623047"/>
      </g>
     </g>
    </g>
    <g id="text_5">
     <!-- PC 1 (17.10%) -->
     <g transform="translate(101.83431 218.949426) scale(0.12 -0.12)">
      <defs>
       <path id="DejaVuSans-50" d="M 1259 4147 
L 1259 2394 
L 2053 2394 
Q 2494 2394 2734 2622 
Q 2975 2850 2975 3272 
Q 2975 3691 2734 3919 
Q 2494 4147 2053 4147 
L 1259 4147 
z
M 628 4666 
L 2053 4666 
Q 2838 4666 3239 4311 
Q 3641 3956 3641 3272 
Q 3641 2581 3239 2228 
Q 2838 1875 2053 1875 
L 1259 1875 
L 1259 0 
L 628 0 
L 628 4666 
z
" transform="scale(0.015625)"/>
       <path id="DejaVuSans-43" d="M 4122 4306 
L 4122 3641 
Q 3803 3938 3442 4084 
Q 3081 4231 2675 4231 
Q 1875 4231 1450 3742 
Q 1025 3253 1025 2328 
Q 1025 1406 1450 917 
Q 1875 428 2675 428 
Q 3081 428 3442 575 
Q 3803 722 4122 1019 
L 4122 359 
Q 3791 134 3420 21 
Q 3050 -91 2638 -91 
Q 1578 -91 968 557 
Q 359 1206 359 2328 
Q 359 3453 968 4101 
Q 1578 4750 2638 4750 
Q 3056 4750 3426 4639 
Q 3797 4528 4122 4306 
z
" transform="scale(0.015625)"/>
       <path id="DejaVuSans-20" transform="scale(0.015625)"/>
       <path id="DejaVuSans-28" d="M 1984 4856 
Q 1566 4138 1362 3434 
Q 1159 2731 1159 2009 
Q 1159 1288 1364 580 
Q 1569 -128 1984 -844 
L 1484 -844 
Q 1016 -109 783 600 
Q 550 1309 550 2009 
Q 550 2706 781 3412 
Q 1013 4119 1484 4856 
L 1984 4856 
z
" transform="scale(0.015625)"/>
       <path id="DejaVuSans-37" d="M 525 4666 
L 3525 4666 
L 3525 4397 
L 1831 0 
L 1172 0 
L 2766 4134 
L 525 4134 
L 525 4666 
z
" transform="scale(0.015625)"/>
       <path id="DejaVuSans-2e" d="M 684 794 
L 1344 794 
L 1344 0 
L 684 0 
L 684 794 
z
" transform="scale(0.015625)"/>
       <path id="DejaVuSans-25" d="M 4653 2053 
Q 4381 2053 4226 1822 
Q 4072 1591 4072 1178 
Q 4072 772 4226 539 
Q 4381 306 4653 306 
Q 4919 306 5073 539 
Q 5228 772 5228 1178 
Q 5228 1588 5073 1820 
Q 4919 2053 4653 2053 
z
M 4653 2450 
Q 5147 2450 5437 2106 
Q 5728 1763 5728 1178 
Q 5728 594 5436 251 
Q 5144 -91 4653 -91 
Q 4153 -91 3862 251 
Q 3572 594 3572 1178 
Q 3572 1766 3864 2108 
Q 4156 2450 4653 2450 
z
M 1428 4353 
Q 1159 4353 1004 4120 
Q 850 3888 850 3481 
Q 850 3069 1003 2837 
Q 1156 2606 1428 2606 
Q 1700 2606 1854 2837 
Q 2009 3069 2009 3481 
Q 2009 3884 1853 4118 
Q 1697 4353 1428 4353 
z
M 4250 4750 
L 4750 4750 
L 1831 -91 
L 1331 -91 
L 4250 4750 
z
M 1428 4750 
Q 1922 4750 2215 4408 
Q 2509 4066 2509 3481 
Q 2509 2891 2217 2550 
Q 1925 2209 1428 2209 
Q 931 2209 642 2551 
Q 353 2894 353 3481 
Q 353 4063 643 4406 
Q 934 4750 1428 4750 
z
" transform="scale(0.015625)"/>
       <path id="DejaVuSans-29" d="M 513 4856 
L 1013 4856 
Q 1481 4119 1714 3412 
Q 1947 2706 1947 2009 
Q 1947 1309 1714 600 
Q 1481 -109 1013 -844 
L 513 -844 
Q 928 -128 1133 580 
Q 1338 1288 1338 2009 
Q 1338 2731 1133 3434 
Q 928 4138 513 4856 
z
" transform="scale(0.015625)"/>
      </defs>
      <use xlink:href="#DejaVuSans-50"/>
      <use xlink:href="#DejaVuSans-43" x="60.302734"/>
      <use xlink:href="#DejaVuSans-20" x="130.126953"/>
      <use xlink:href="#DejaVuSans-31" x="161.914062"/>
      <use xlink:href="#DejaVuSans-20" x="225.537109"/>
      <use xlink:href="#DejaVuSans-28" x="257.324219"/>
      <use xlink:href="#DejaVuSans-31" x="296.337891"/>
      <use xlink:href="#DejaVuSans-37" x="359.960938"/>
      <use xlink:href="#DejaVuSans-2e" x="423.583984"/>
      <use xlink:href="#DejaVuSans-31" x="455.371094"/>
      <use xlink:href="#DejaVuSans-30" x="518.994141"/>
      <use xlink:href="#DejaVuSans-25" x="582.617188"/>
      <use xlink:href="#DejaVuSans-29" x="677.636719"/>
     </g>
    </g>
   </g>
   <g id="matplotlib.axis_2">
    <g id="ytick_1">
     <g id="line2d_5">
      <defs>
       <path id="m1aa8ddcf93" d="M 0 0 
L -8 0 
" style="stroke: #000000"/>
      </defs>
      <g>
       <use xlink:href="#m1aa8ddcf93" x="64.037638" y="156.550618" style="stroke: #000000"/>
      </g>
     </g>
     <g id="text_6">
      <!-- 10 -->
      <g transform="translate(27.212013 161.109681) scale(0.12 -0.12)">
       <use xlink:href="#DejaVuSans-2212"/>
       <use xlink:href="#DejaVuSans-31" x="83.789062"/>
       <use xlink:href="#DejaVuSans-30" x="147.412109"/>
      </g>
     </g>
    </g>
    <g id="ytick_2">
     <g id="line2d_6">
      <g>
       <use xlink:href="#m1aa8ddcf93" x="64.037638" y="112.771328" style="stroke: #000000"/>
      </g>
     </g>
     <g id="text_7">
      <!-- 0 -->
      <g transform="translate(44.902638 117.330391) scale(0.12 -0.12)">
       <use xlink:href="#DejaVuSans-30"/>
      </g>
     </g>
    </g>
    <g id="ytick_3">
     <g id="line2d_7">
      <g>
       <use xlink:href="#m1aa8ddcf93" x="64.037638" y="68.992038" style="stroke: #000000"/>
      </g>
     </g>
     <g id="text_8">
      <!-- 10 -->
      <g transform="translate(37.267638 73.5511) scale(0.12 -0.12)">
       <use xlink:href="#DejaVuSans-31"/>
       <use xlink:href="#DejaVuSans-30" x="63.623047"/>
      </g>
     </g>
    </g>
    <g id="ytick_4">
     <g id="line2d_8">
      <g>
       <use xlink:href="#m1aa8ddcf93" x="64.037638" y="25.212747" style="stroke: #000000"/>
      </g>
     </g>
     <g id="text_9">
      <!-- 20 -->
      <g transform="translate(37.267638 29.77181) scale(0.12 -0.12)">
       <use xlink:href="#DejaVuSans-32"/>
       <use xlink:href="#DejaVuSans-30" x="63.623047"/>
      </g>
     </g>
    </g>
    <g id="text_10">
     <!-- PC 2 (9.39%) -->
     <g transform="translate(20.716388 141.103378) rotate(-90) scale(0.12 -0.12)">
      <defs>
       <path id="DejaVuSans-39" d="M 703 97 
L 703 672 
Q 941 559 1184 500 
Q 1428 441 1663 441 
Q 2288 441 2617 861 
Q 2947 1281 2994 2138 
Q 2813 1869 2534 1725 
Q 2256 1581 1919 1581 
Q 1219 1581 811 2004 
Q 403 2428 403 3163 
Q 403 3881 828 4315 
Q 1253 4750 1959 4750 
Q 2769 4750 3195 4129 
Q 3622 3509 3622 2328 
Q 3622 1225 3098 567 
Q 2575 -91 1691 -91 
Q 1453 -91 1209 -44 
Q 966 3 703 97 
z
M 1959 2075 
Q 2384 2075 2632 2365 
Q 2881 2656 2881 3163 
Q 2881 3666 2632 3958 
Q 2384 4250 1959 4250 
Q 1534 4250 1286 3958 
Q 1038 3666 1038 3163 
Q 1038 2656 1286 2365 
Q 1534 2075 1959 2075 
z
" transform="scale(0.015625)"/>
       <path id="DejaVuSans-33" d="M 2597 2516 
Q 3050 2419 3304 2112 
Q 3559 1806 3559 1356 
Q 3559 666 3084 287 
Q 2609 -91 1734 -91 
Q 1441 -91 1130 -33 
Q 819 25 488 141 
L 488 750 
Q 750 597 1062 519 
Q 1375 441 1716 441 
Q 2309 441 2620 675 
Q 2931 909 2931 1356 
Q 2931 1769 2642 2001 
Q 2353 2234 1838 2234 
L 1294 2234 
L 1294 2753 
L 1863 2753 
Q 2328 2753 2575 2939 
Q 2822 3125 2822 3475 
Q 2822 3834 2567 4026 
Q 2313 4219 1838 4219 
Q 1578 4219 1281 4162 
Q 984 4106 628 3988 
L 628 4550 
Q 988 4650 1302 4700 
Q 1616 4750 1894 4750 
Q 2613 4750 3031 4423 
Q 3450 4097 3450 3541 
Q 3450 3153 3228 2886 
Q 3006 2619 2597 2516 
z
" transform="scale(0.015625)"/>
      </defs>
      <use xlink:href="#DejaVuSans-50"/>
      <use xlink:href="#DejaVuSans-43" x="60.302734"/>
      <use xlink:href="#DejaVuSans-20" x="130.126953"/>
      <use xlink:href="#DejaVuSans-32" x="161.914062"/>
      <use xlink:href="#DejaVuSans-20" x="225.537109"/>
      <use xlink:href="#DejaVuSans-28" x="257.324219"/>
      <use xlink:href="#DejaVuSans-39" x="296.337891"/>
      <use xlink:href="#DejaVuSans-2e" x="359.960938"/>
      <use xlink:href="#DejaVuSans-33" x="391.748047"/>
      <use xlink:href="#DejaVuSans-39" x="455.371094"/>
      <use xlink:href="#DejaVuSans-25" x="518.994141"/>
      <use xlink:href="#DejaVuSans-29" x="614.013672"/>
     </g>
    </g>
   </g>
   <g id="patch_3">
    <path d="M 64.037638 182.717551 
L 64.037638 21.127331 
" style="fill: none; stroke: #000000; stroke-width: 2; stroke-linejoin: miter; stroke-linecap: square"/>
   </g>
   <g id="patch_4">
    <path d="M 64.037638 182.717551 
L 225.627858 182.717551 
" style="fill: none; stroke: #000000; stroke-width: 2; stroke-linejoin: miter; stroke-linecap: square"/>
   </g>
  </g>
 </g>
 <defs>
  <clipPath id="p9b149df9c3">
   <rect x="64.037638" y="21.127331" width="161.59022" height="161.59022"/>
  </clipPath>
 </defs>
</svg>
