<?xml version="1.0" encoding="utf-8" standalone="no"?>
<!DOCTYPE svg PUBLIC "-//W3C//DTD SVG 1.1//EN"
  "http://www.w3.org/Graphics/SVG/1.1/DTD/svg11.dtd">
<svg xmlns:xlink="http://www.w3.org/1999/xlink" width="240.944882pt" height="240.944882pt" viewBox="0 0 240.944882 240.944882" xmlns="http://www.w3.org/2000/svg" version="1.1">
 <metadata>
  <rdf:RDF xmlns:dc="http://purl.org/dc/elements/1.1/" xmlns:cc="http://creativecommons.org/ns#" xmlns:rdf="http://www.w3.org/1999/02/22-rdf-syntax-ns#">
   <cc:Work>
    <dc:type rdf:resource="http://purl.org/dc/dcmitype/StillImage"/>
    <dc:date>2025-02-24T15:44:11.081317</dc:date>
    <dc:format>image/svg+xml</dc:format>
    <dc:creator>
     <cc:Agent>
      <dc:title>Matplotlib v3.6.2, https://matplotlib.org/</dc:title>
     </cc:Agent>
    </dc:creator>
   </cc:Work>
  </rdf:RDF>
 </metadata>
 <defs>
  <style type="text/css">*{stroke-linejoin: round; stroke-linecap: butt}</style>
 </defs>
 <g id="figure_1">
  <g id="patch_1">
   <path d="M 0 240.944882 
L 240.944882 240.944882 
L 240.944882 0 
L 0 0 
L 0 240.944882 
z
" style="fill: none"/>
  </g>
  <g id="axes_1">
   <g id="patch_2">
    <path d="M 64.037638 182.532285 
L 225.257326 182.532285 
L 225.257326 21.312597 
L 64.037638 21.312597 
L 64.037638 182.532285 
z
" style="fill: none"/>
   </g>
   <g id="PathCollection_1">
    <path d="M 114.577408 109.944472 
L 116.377408 106.944472 
L 114.577408 103.944472 
L 112.777408 106.944472 
z
" clip-path="url(#p4dd114744a)" style="fill: #332288; fill-opacity: 0.6; stroke: #ffffff; stroke-opacity: 0.6; stroke-width: 0.339411"/>
    <path d="M 206.575978 90.973096 
L 208.375978 87.973096 
L 206.575978 84.973096 
L 204.775978 87.973096 
z
" clip-path="url(#p4dd114744a)" style="fill: #332288; fill-opacity: 0.6; stroke: #ffffff; stroke-opacity: 0.6; stroke-width: 0.339411"/>
    <path d="M 95.042266 51.155044 
L 96.842266 48.155044 
L 95.042266 45.155044 
L 93.242266 48.155044 
z
" clip-path="url(#p4dd114744a)" style="fill: #332288; fill-opacity: 0.6; stroke: #ffffff; stroke-opacity: 0.6; stroke-width: 0.339411"/>
    <path d="M 165.354509 93.264505 
L 167.154509 90.264505 
L 165.354509 87.264505 
L 163.554509 90.264505 
z
" clip-path="url(#p4dd114744a)" style="fill: #332288; fill-opacity: 0.6; stroke: #ffffff; stroke-opacity: 0.6; stroke-width: 0.339411"/>
    <path d="M 92.710195 41.274934 
L 94.510195 38.274934 
L 92.710195 35.274934 
L 90.910195 38.274934 
z
" clip-path="url(#p4dd114744a)" style="fill: #332288; fill-opacity: 0.6; stroke: #ffffff; stroke-opacity: 0.6; stroke-width: 0.339411"/>
    <path d="M 193.65477 104.525871 
L 195.45477 101.525871 
L 193.65477 98.525871 
L 191.85477 101.525871 
z
" clip-path="url(#p4dd114744a)" style="fill: #332288; fill-opacity: 0.6; stroke: #ffffff; stroke-opacity: 0.6; stroke-width: 0.339411"/>
    <path d="M 213.628883 98.239884 
L 215.428883 95.239884 
L 213.628883 92.239884 
L 211.828883 95.239884 
z
" clip-path="url(#p4dd114744a)" style="fill: #332288; fill-opacity: 0.6; stroke: #ffffff; stroke-opacity: 0.6; stroke-width: 0.339411"/>
    <path d="M 111.718419 83.019844 
L 113.518419 80.019844 
L 111.718419 77.019844 
L 109.918419 80.019844 
z
" clip-path="url(#p4dd114744a)" style="fill: #332288; fill-opacity: 0.6; stroke: #ffffff; stroke-opacity: 0.6; stroke-width: 0.339411"/>
    <path d="M 139.085255 99.461836 
L 140.885255 96.461836 
L 139.085255 93.461836 
L 137.285255 96.461836 
z
" clip-path="url(#p4dd114744a)" style="fill: #332288; fill-opacity: 0.6; stroke: #ffffff; stroke-opacity: 0.6; stroke-width: 0.339411"/>
    <path d="M 96.183568 39.961643 
L 97.983568 36.961643 
L 96.183568 33.961643 
L 94.383568 36.961643 
z
" clip-path="url(#p4dd114744a)" style="fill: #332288; fill-opacity: 0.6; stroke: #ffffff; stroke-opacity: 0.6; stroke-width: 0.339411"/>
    <path d="M 93.408132 56.359452 
L 95.208132 53.359452 
L 93.408132 50.359452 
L 91.608132 53.359452 
z
" clip-path="url(#p4dd114744a)" style="fill: #332288; fill-opacity: 0.6; stroke: #ffffff; stroke-opacity: 0.6; stroke-width: 0.339411"/>
    <path d="M 117.898262 91.375977 
L 119.698262 88.375977 
L 117.898262 85.375977 
L 116.098262 88.375977 
z
" clip-path="url(#p4dd114744a)" style="fill: #332288; fill-opacity: 0.6; stroke: #ffffff; stroke-opacity: 0.6; stroke-width: 0.339411"/>
    <path d="M 116.238109 107.236748 
L 118.038109 104.236748 
L 116.238109 101.236748 
L 114.438109 104.236748 
z
" clip-path="url(#p4dd114744a)" style="fill: #332288; fill-opacity: 0.6; stroke: #ffffff; stroke-opacity: 0.6; stroke-width: 0.339411"/>
    <path d="M 209.680233 92.903353 
L 211.480233 89.903353 
L 209.680233 86.903353 
L 207.880233 89.903353 
z
" clip-path="url(#p4dd114744a)" style="fill: #332288; fill-opacity: 0.6; stroke: #ffffff; stroke-opacity: 0.6; stroke-width: 0.339411"/>
    <path d="M 97.679109 37.486802 
L 99.479109 34.486802 
L 97.679109 31.486802 
L 95.879109 34.486802 
z
" clip-path="url(#p4dd114744a)" style="fill: #332288; fill-opacity: 0.6; stroke: #ffffff; stroke-opacity: 0.6; stroke-width: 0.339411"/>
    <path d="M 106.419105 90.562347 
L 108.219105 87.562347 
L 106.419105 84.562347 
L 104.619105 87.562347 
z
" clip-path="url(#p4dd114744a)" style="fill: #332288; fill-opacity: 0.6; stroke: #ffffff; stroke-opacity: 0.6; stroke-width: 0.339411"/>
    <path d="M 93.493254 39.513524 
L 95.293254 36.513524 
L 93.493254 33.513524 
L 91.693254 36.513524 
z
" clip-path="url(#p4dd114744a)" style="fill: #332288; fill-opacity: 0.6; stroke: #ffffff; stroke-opacity: 0.6; stroke-width: 0.339411"/>
    <path d="M 208.658402 91.600741 
L 210.458402 88.600741 
L 208.658402 85.600741 
L 206.858402 88.600741 
z
" clip-path="url(#p4dd114744a)" style="fill: #332288; fill-opacity: 0.6; stroke: #ffffff; stroke-opacity: 0.6; stroke-width: 0.339411"/>
    <path d="M 95.557313 57.547052 
L 97.357313 54.547052 
L 95.557313 51.547052 
L 93.757313 54.547052 
z
" clip-path="url(#p4dd114744a)" style="fill: #332288; fill-opacity: 0.6; stroke: #ffffff; stroke-opacity: 0.6; stroke-width: 0.339411"/>
    <path d="M 213.759765 98.684374 
L 215.559765 95.684374 
L 213.759765 92.684374 
L 211.959765 95.684374 
z
" clip-path="url(#p4dd114744a)" style="fill: #332288; fill-opacity: 0.6; stroke: #ffffff; stroke-opacity: 0.6; stroke-width: 0.339411"/>
    <path d="M 213.679006 98.596281 
L 215.479006 95.596281 
L 213.679006 92.596281 
L 211.879006 95.596281 
z
" clip-path="url(#p4dd114744a)" style="fill: #332288; fill-opacity: 0.6; stroke: #ffffff; stroke-opacity: 0.6; stroke-width: 0.339411"/>
    <path d="M 97.765603 65.508087 
L 99.565603 62.508087 
L 97.765603 59.508087 
L 95.965603 62.508087 
z
" clip-path="url(#p4dd114744a)" style="fill: #332288; fill-opacity: 0.6; stroke: #ffffff; stroke-opacity: 0.6; stroke-width: 0.339411"/>
    <path d="M 97.478247 62.631737 
L 99.278247 59.631737 
L 97.478247 56.631737 
L 95.678247 59.631737 
z
" clip-path="url(#p4dd114744a)" style="fill: #332288; fill-opacity: 0.6; stroke: #ffffff; stroke-opacity: 0.6; stroke-width: 0.339411"/>
    <path d="M 210.333919 91.983762 
L 212.133919 88.983762 
L 210.333919 85.983762 
L 208.533919 88.983762 
z
" clip-path="url(#p4dd114744a)" style="fill: #332288; fill-opacity: 0.6; stroke: #ffffff; stroke-opacity: 0.6; stroke-width: 0.339411"/>
    <path d="M 117.023771 83.417542 
L 118.823771 80.417542 
L 117.023771 77.417542 
L 115.223771 80.417542 
z
" clip-path="url(#p4dd114744a)" style="fill: #332288; fill-opacity: 0.6; stroke: #ffffff; stroke-opacity: 0.6; stroke-width: 0.339411"/>
    <path d="M 93.03234 39.237755 
L 94.83234 36.237755 
L 93.03234 33.237755 
L 91.23234 36.237755 
z
" clip-path="url(#p4dd114744a)" style="fill: #332288; fill-opacity: 0.6; stroke: #ffffff; stroke-opacity: 0.6; stroke-width: 0.339411"/>
    <path d="M 209.843342 113.358883 
L 211.643342 110.358883 
L 209.843342 107.358883 
L 208.043342 110.358883 
z
" clip-path="url(#p4dd114744a)" style="fill: #332288; fill-opacity: 0.6; stroke: #ffffff; stroke-opacity: 0.6; stroke-width: 0.339411"/>
    <path d="M 194.31344 105.162426 
L 196.11344 102.162426 
L 194.31344 99.162426 
L 192.51344 102.162426 
z
" clip-path="url(#p4dd114744a)" style="fill: #332288; fill-opacity: 0.6; stroke: #ffffff; stroke-opacity: 0.6; stroke-width: 0.339411"/>
    <path d="M 209.190159 114.676737 
L 210.990159 111.676737 
L 209.190159 108.676737 
L 207.390159 111.676737 
z
" clip-path="url(#p4dd114744a)" style="fill: #332288; fill-opacity: 0.6; stroke: #ffffff; stroke-opacity: 0.6; stroke-width: 0.339411"/>
    <path d="M 115.970147 107.077908 
L 117.770147 104.077908 
L 115.970147 101.077908 
L 114.170147 104.077908 
z
" clip-path="url(#p4dd114744a)" style="fill: #332288; fill-opacity: 0.6; stroke: #ffffff; stroke-opacity: 0.6; stroke-width: 0.339411"/>
    <path d="M 92.091595 41.274558 
L 93.891595 38.274558 
L 92.091595 35.274558 
L 90.291595 38.274558 
z
" clip-path="url(#p4dd114744a)" style="fill: #332288; fill-opacity: 0.6; stroke: #ffffff; stroke-opacity: 0.6; stroke-width: 0.339411"/>
    <path d="M 87.358643 106.978926 
L 89.158643 103.978926 
L 87.358643 100.978926 
L 85.558643 103.978926 
z
" clip-path="url(#p4dd114744a)" style="fill: #332288; fill-opacity: 0.6; stroke: #ffffff; stroke-opacity: 0.6; stroke-width: 0.339411"/>
    <path d="M 116.29461 107.16225 
L 118.09461 104.16225 
L 116.29461 101.16225 
L 114.49461 104.16225 
z
" clip-path="url(#p4dd114744a)" style="fill: #332288; fill-opacity: 0.6; stroke: #ffffff; stroke-opacity: 0.6; stroke-width: 0.339411"/>
    <path d="M 92.69051 41.429421 
L 94.49051 38.429421 
L 92.69051 35.429421 
L 90.89051 38.429421 
z
" clip-path="url(#p4dd114744a)" style="fill: #332288; fill-opacity: 0.6; stroke: #ffffff; stroke-opacity: 0.6; stroke-width: 0.339411"/>
    <path d="M 93.171201 56.368204 
L 94.971201 53.368204 
L 93.171201 50.368204 
L 91.371201 53.368204 
z
" clip-path="url(#p4dd114744a)" style="fill: #332288; fill-opacity: 0.6; stroke: #ffffff; stroke-opacity: 0.6; stroke-width: 0.339411"/>
    <path d="M 209.759054 93.334032 
L 211.559054 90.334032 
L 209.759054 87.334032 
L 207.959054 90.334032 
z
" clip-path="url(#p4dd114744a)" style="fill: #332288; fill-opacity: 0.6; stroke: #ffffff; stroke-opacity: 0.6; stroke-width: 0.339411"/>
    <path d="M 93.875477 63.072259 
L 95.675477 60.072259 
L 93.875477 57.072259 
L 92.075477 60.072259 
z
" clip-path="url(#p4dd114744a)" style="fill: #332288; fill-opacity: 0.6; stroke: #ffffff; stroke-opacity: 0.6; stroke-width: 0.339411"/>
    <path d="M 114.992095 109.600308 
L 116.792095 106.600308 
L 114.992095 103.600308 
L 113.192095 106.600308 
z
" clip-path="url(#p4dd114744a)" style="fill: #332288; fill-opacity: 0.6; stroke: #ffffff; stroke-opacity: 0.6; stroke-width: 0.339411"/>
    <path d="M 210.563709 100.122387 
L 212.363709 97.122387 
L 210.563709 94.122387 
L 208.763709 97.122387 
z
" clip-path="url(#p4dd114744a)" style="fill: #332288; fill-opacity: 0.6; stroke: #ffffff; stroke-opacity: 0.6; stroke-width: 0.339411"/>
    <path d="M 87.273343 44.977651 
L 89.073343 41.977651 
L 87.273343 38.977651 
L 85.473343 41.977651 
z
" clip-path="url(#p4dd114744a)" style="fill: #332288; fill-opacity: 0.6; stroke: #ffffff; stroke-opacity: 0.6; stroke-width: 0.339411"/>
    <path d="M 210.18649 94.597597 
L 211.98649 91.597597 
L 210.18649 88.597597 
L 208.38649 91.597597 
z
" clip-path="url(#p4dd114744a)" style="fill: #332288; fill-opacity: 0.6; stroke: #ffffff; stroke-opacity: 0.6; stroke-width: 0.339411"/>
    <path d="M 208.942876 91.65644 
L 210.742876 88.65644 
L 208.942876 85.65644 
L 207.142876 88.65644 
z
" clip-path="url(#p4dd114744a)" style="fill: #332288; fill-opacity: 0.6; stroke: #ffffff; stroke-opacity: 0.6; stroke-width: 0.339411"/>
    <path d="M 93.393175 37.773444 
L 95.193175 34.773444 
L 93.393175 31.773444 
L 91.593175 34.773444 
z
" clip-path="url(#p4dd114744a)" style="fill: #332288; fill-opacity: 0.6; stroke: #ffffff; stroke-opacity: 0.6; stroke-width: 0.339411"/>
    <path d="M 93.371193 56.792898 
L 95.171193 53.792898 
L 93.371193 50.792898 
L 91.571193 53.792898 
z
" clip-path="url(#p4dd114744a)" style="fill: #332288; fill-opacity: 0.6; stroke: #ffffff; stroke-opacity: 0.6; stroke-width: 0.339411"/>
    <path d="M 205.152446 89.929864 
L 206.952446 86.929864 
L 205.152446 83.929864 
L 203.352446 86.929864 
z
" clip-path="url(#p4dd114744a)" style="fill: #332288; fill-opacity: 0.6; stroke: #ffffff; stroke-opacity: 0.6; stroke-width: 0.339411"/>
    <path d="M 205.273017 90.1595 
L 207.073017 87.1595 
L 205.273017 84.1595 
L 203.473017 87.1595 
z
" clip-path="url(#p4dd114744a)" style="fill: #332288; fill-opacity: 0.6; stroke: #ffffff; stroke-opacity: 0.6; stroke-width: 0.339411"/>
    <path d="M 120.117697 126.696256 
L 121.917697 123.696256 
L 120.117697 120.696256 
L 118.317697 123.696256 
z
" clip-path="url(#p4dd114744a)" style="fill: #332288; fill-opacity: 0.6; stroke: #ffffff; stroke-opacity: 0.6; stroke-width: 0.339411"/>
    <path d="M 210.025443 92.144477 
L 211.825443 89.144477 
L 210.025443 86.144477 
L 208.225443 89.144477 
z
" clip-path="url(#p4dd114744a)" style="fill: #332288; fill-opacity: 0.6; stroke: #ffffff; stroke-opacity: 0.6; stroke-width: 0.339411"/>
    <path d="M 210.2017 91.826664 
L 212.0017 88.826664 
L 210.2017 85.826664 
L 208.4017 88.826664 
z
" clip-path="url(#p4dd114744a)" style="fill: #332288; fill-opacity: 0.6; stroke: #ffffff; stroke-opacity: 0.6; stroke-width: 0.339411"/>
    <path d="M 194.369137 112.520493 
L 196.169137 109.520493 
L 194.369137 106.520493 
L 192.569137 109.520493 
z
" clip-path="url(#p4dd114744a)" style="fill: #332288; fill-opacity: 0.6; stroke: #ffffff; stroke-opacity: 0.6; stroke-width: 0.339411"/>
    <path d="M 195.380908 111.959884 
L 197.180908 108.959884 
L 195.380908 105.959884 
L 193.580908 108.959884 
z
" clip-path="url(#p4dd114744a)" style="fill: #332288; fill-opacity: 0.6; stroke: #ffffff; stroke-opacity: 0.6; stroke-width: 0.339411"/>
    <path d="M 92.784179 39.804261 
L 94.584179 36.804261 
L 92.784179 33.804261 
L 90.984179 36.804261 
z
" clip-path="url(#p4dd114744a)" style="fill: #332288; fill-opacity: 0.6; stroke: #ffffff; stroke-opacity: 0.6; stroke-width: 0.339411"/>
    <path d="M 92.611943 42.42294 
L 94.411943 39.42294 
L 92.611943 36.42294 
L 90.811943 39.42294 
z
" clip-path="url(#p4dd114744a)" style="fill: #332288; fill-opacity: 0.6; stroke: #ffffff; stroke-opacity: 0.6; stroke-width: 0.339411"/>
    <path d="M 97.542126 37.390525 
L 99.342126 34.390525 
L 97.542126 31.390525 
L 95.742126 34.390525 
z
" clip-path="url(#p4dd114744a)" style="fill: #332288; fill-opacity: 0.6; stroke: #ffffff; stroke-opacity: 0.6; stroke-width: 0.339411"/>
    <path d="M 92.730659 39.842629 
L 94.530659 36.842629 
L 92.730659 33.842629 
L 90.930659 36.842629 
z
" clip-path="url(#p4dd114744a)" style="fill: #332288; fill-opacity: 0.6; stroke: #ffffff; stroke-opacity: 0.6; stroke-width: 0.339411"/>
    <path d="M 120.522173 126.504597 
L 122.322173 123.504597 
L 120.522173 120.504597 
L 118.722173 123.504597 
z
" clip-path="url(#p4dd114744a)" style="fill: #332288; fill-opacity: 0.6; stroke: #ffffff; stroke-opacity: 0.6; stroke-width: 0.339411"/>
    <path d="M 210.469044 92.098669 
L 212.269044 89.098669 
L 210.469044 86.098669 
L 208.669044 89.098669 
z
" clip-path="url(#p4dd114744a)" style="fill: #332288; fill-opacity: 0.6; stroke: #ffffff; stroke-opacity: 0.6; stroke-width: 0.339411"/>
    <path d="M 209.887764 112.509314 
L 211.687764 109.509314 
L 209.887764 106.509314 
L 208.087764 109.509314 
z
" clip-path="url(#p4dd114744a)" style="fill: #332288; fill-opacity: 0.6; stroke: #ffffff; stroke-opacity: 0.6; stroke-width: 0.339411"/>
    <path d="M 92.965129 39.017878 
L 94.765129 36.017878 
L 92.965129 33.017878 
L 91.165129 36.017878 
z
" clip-path="url(#p4dd114744a)" style="fill: #332288; fill-opacity: 0.6; stroke: #ffffff; stroke-opacity: 0.6; stroke-width: 0.339411"/>
    <path d="M 210.109334 112.675288 
L 211.909334 109.675288 
L 210.109334 106.675288 
L 208.309334 109.675288 
z
" clip-path="url(#p4dd114744a)" style="fill: #332288; fill-opacity: 0.6; stroke: #ffffff; stroke-opacity: 0.6; stroke-width: 0.339411"/>
    <path d="M 96.333546 39.433891 
L 98.133546 36.433891 
L 96.333546 33.433891 
L 94.533546 36.433891 
z
" clip-path="url(#p4dd114744a)" style="fill: #332288; fill-opacity: 0.6; stroke: #ffffff; stroke-opacity: 0.6; stroke-width: 0.339411"/>
    <path d="M 89.943701 51.062419 
L 91.743701 48.062419 
L 89.943701 45.062419 
L 88.143701 48.062419 
z
" clip-path="url(#p4dd114744a)" style="fill: #332288; fill-opacity: 0.6; stroke: #ffffff; stroke-opacity: 0.6; stroke-width: 0.339411"/>
    <path d="M 104.245681 92.491502 
L 106.045681 89.491502 
L 104.245681 86.491502 
L 102.445681 89.491502 
z
" clip-path="url(#p4dd114744a)" style="fill: #332288; fill-opacity: 0.6; stroke: #ffffff; stroke-opacity: 0.6; stroke-width: 0.339411"/>
    <path d="M 209.389278 101.482162 
L 211.189278 98.482162 
L 209.389278 95.482162 
L 207.589278 98.482162 
z
" clip-path="url(#p4dd114744a)" style="fill: #332288; fill-opacity: 0.6; stroke: #ffffff; stroke-opacity: 0.6; stroke-width: 0.339411"/>
    <path d="M 106.150599 134.875735 
L 104.029279 139.118376 
L 108.27192 139.118376 
z
" clip-path="url(#p4dd114744a)" style="fill: #117733; fill-opacity: 0.6; stroke: #ffffff; stroke-opacity: 0.6; stroke-width: 0.339411"/>
    <path d="M 181.275555 109.785459 
L 179.154235 114.0281 
L 183.396876 114.0281 
z
" clip-path="url(#p4dd114744a)" style="fill: #117733; fill-opacity: 0.6; stroke: #ffffff; stroke-opacity: 0.6; stroke-width: 0.339411"/>
    <path d="M 188.077898 106.219505 
L 185.956577 110.462146 
L 190.199218 110.462146 
z
" clip-path="url(#p4dd114744a)" style="fill: #117733; fill-opacity: 0.6; stroke: #ffffff; stroke-opacity: 0.6; stroke-width: 0.339411"/>
    <path d="M 144.866395 138.169178 
L 142.745075 142.411819 
L 146.987715 142.411819 
z
" clip-path="url(#p4dd114744a)" style="fill: #117733; fill-opacity: 0.6; stroke: #ffffff; stroke-opacity: 0.6; stroke-width: 0.339411"/>
    <path d="M 201.331803 97.435914 
L 199.210483 101.678555 
L 203.453124 101.678555 
z
" clip-path="url(#p4dd114744a)" style="fill: #117733; fill-opacity: 0.6; stroke: #ffffff; stroke-opacity: 0.6; stroke-width: 0.339411"/>
    <path d="M 133.811235 124.273304 
L 131.689914 128.515945 
L 135.932555 128.515945 
z
" clip-path="url(#p4dd114744a)" style="fill: #117733; fill-opacity: 0.6; stroke: #ffffff; stroke-opacity: 0.6; stroke-width: 0.339411"/>
    <path d="M 187.861919 97.848105 
L 185.740598 102.090746 
L 189.983239 102.090746 
z
" clip-path="url(#p4dd114744a)" style="fill: #117733; fill-opacity: 0.6; stroke: #ffffff; stroke-opacity: 0.6; stroke-width: 0.339411"/>
    <path d="M 198.477413 112.888626 
L 196.356093 117.131267 
L 200.598734 117.131267 
z
" clip-path="url(#p4dd114744a)" style="fill: #117733; fill-opacity: 0.6; stroke: #ffffff; stroke-opacity: 0.6; stroke-width: 0.339411"/>
    <path d="M 171.458952 117.057943 
L 169.337632 121.300584 
L 173.580272 121.300584 
z
" clip-path="url(#p4dd114744a)" style="fill: #117733; fill-opacity: 0.6; stroke: #ffffff; stroke-opacity: 0.6; stroke-width: 0.339411"/>
    <path d="M 131.601314 116.422164 
L 129.479994 120.664805 
L 133.722634 120.664805 
z
" clip-path="url(#p4dd114744a)" style="fill: #117733; fill-opacity: 0.6; stroke: #ffffff; stroke-opacity: 0.6; stroke-width: 0.339411"/>
    <path d="M 203.860995 104.493523 
L 201.739674 108.736163 
L 205.982315 108.736163 
z
" clip-path="url(#p4dd114744a)" style="fill: #117733; fill-opacity: 0.6; stroke: #ffffff; stroke-opacity: 0.6; stroke-width: 0.339411"/>
    <path d="M 207.952386 111.44738 
L 205.831066 115.69002 
L 210.073706 115.69002 
z
" clip-path="url(#p4dd114744a)" style="fill: #117733; fill-opacity: 0.6; stroke: #ffffff; stroke-opacity: 0.6; stroke-width: 0.339411"/>
    <path d="M 185.420455 106.240569 
L 183.299135 110.48321 
L 187.541775 110.48321 
z
" clip-path="url(#p4dd114744a)" style="fill: #117733; fill-opacity: 0.6; stroke: #ffffff; stroke-opacity: 0.6; stroke-width: 0.339411"/>
    <path d="M 185.512311 91.841046 
L 183.39099 96.083687 
L 187.633631 96.083687 
z
" clip-path="url(#p4dd114744a)" style="fill: #117733; fill-opacity: 0.6; stroke: #ffffff; stroke-opacity: 0.6; stroke-width: 0.339411"/>
    <path d="M 122.616485 114.039157 
L 120.495165 118.281798 
L 124.737805 118.281798 
z
" clip-path="url(#p4dd114744a)" style="fill: #117733; fill-opacity: 0.6; stroke: #ffffff; stroke-opacity: 0.6; stroke-width: 0.339411"/>
    <path d="M 136.620638 114.908695 
L 134.499318 119.151335 
L 138.741959 119.151335 
z
" clip-path="url(#p4dd114744a)" style="fill: #117733; fill-opacity: 0.6; stroke: #ffffff; stroke-opacity: 0.6; stroke-width: 0.339411"/>
    <path d="M 209.504909 112.197974 
L 207.383588 116.440614 
L 211.626229 116.440614 
z
" clip-path="url(#p4dd114744a)" style="fill: #117733; fill-opacity: 0.6; stroke: #ffffff; stroke-opacity: 0.6; stroke-width: 0.339411"/>
    <path d="M 110.761458 131.207836 
L 108.640138 135.450477 
L 112.882778 135.450477 
z
" clip-path="url(#p4dd114744a)" style="fill: #117733; fill-opacity: 0.6; stroke: #ffffff; stroke-opacity: 0.6; stroke-width: 0.339411"/>
    <path d="M 208.353294 110.602045 
L 206.231974 114.844685 
L 210.474615 114.844685 
z
" clip-path="url(#p4dd114744a)" style="fill: #117733; fill-opacity: 0.6; stroke: #ffffff; stroke-opacity: 0.6; stroke-width: 0.339411"/>
    <path d="M 208.850077 108.962372 
L 206.728757 113.205013 
L 210.971397 113.205013 
z
" clip-path="url(#p4dd114744a)" style="fill: #117733; fill-opacity: 0.6; stroke: #ffffff; stroke-opacity: 0.6; stroke-width: 0.339411"/>
    <path d="M 172.742678 127.048539 
L 170.621358 131.29118 
L 174.863998 131.29118 
z
" clip-path="url(#p4dd114744a)" style="fill: #117733; fill-opacity: 0.6; stroke: #ffffff; stroke-opacity: 0.6; stroke-width: 0.339411"/>
    <path d="M 207.645593 105.040435 
L 205.524272 109.283076 
L 209.766913 109.283076 
z
" clip-path="url(#p4dd114744a)" style="fill: #117733; fill-opacity: 0.6; stroke: #ffffff; stroke-opacity: 0.6; stroke-width: 0.339411"/>
    <path d="M 204.699764 110.138827 
L 202.578444 114.381468 
L 206.821084 114.381468 
z
" clip-path="url(#p4dd114744a)" style="fill: #117733; fill-opacity: 0.6; stroke: #ffffff; stroke-opacity: 0.6; stroke-width: 0.339411"/>
    <path d="M 183.790096 85.64574 
L 181.668775 89.888381 
L 185.911416 89.888381 
z
" clip-path="url(#p4dd114744a)" style="fill: #117733; fill-opacity: 0.6; stroke: #ffffff; stroke-opacity: 0.6; stroke-width: 0.339411"/>
    <path d="M 210.761971 112.491042 
L 208.640651 116.733683 
L 212.883292 116.733683 
z
" clip-path="url(#p4dd114744a)" style="fill: #117733; fill-opacity: 0.6; stroke: #ffffff; stroke-opacity: 0.6; stroke-width: 0.339411"/>
    <path d="M 130.831745 102.739741 
L 128.710425 106.982382 
L 132.953066 106.982382 
z
" clip-path="url(#p4dd114744a)" style="fill: #117733; fill-opacity: 0.6; stroke: #ffffff; stroke-opacity: 0.6; stroke-width: 0.339411"/>
    <path d="M 113.151493 108.960526 
L 111.030173 113.203167 
L 115.272813 113.203167 
z
" clip-path="url(#p4dd114744a)" style="fill: #117733; fill-opacity: 0.6; stroke: #ffffff; stroke-opacity: 0.6; stroke-width: 0.339411"/>
    <path d="M 152.99243 141.120742 
L 150.87111 145.363382 
L 155.11375 145.363382 
z
" clip-path="url(#p4dd114744a)" style="fill: #117733; fill-opacity: 0.6; stroke: #ffffff; stroke-opacity: 0.6; stroke-width: 0.339411"/>
    <path d="M 211.990363 107.037972 
L 209.869043 111.280613 
L 214.111684 111.280613 
z
" clip-path="url(#p4dd114744a)" style="fill: #117733; fill-opacity: 0.6; stroke: #ffffff; stroke-opacity: 0.6; stroke-width: 0.339411"/>
    <path d="M 209.561393 114.303038 
L 207.440072 118.545679 
L 211.682713 118.545679 
z
" clip-path="url(#p4dd114744a)" style="fill: #117733; fill-opacity: 0.6; stroke: #ffffff; stroke-opacity: 0.6; stroke-width: 0.339411"/>
    <path d="M 212.52386 111.626978 
L 210.402539 115.869618 
L 214.64518 115.869618 
z
" clip-path="url(#p4dd114744a)" style="fill: #117733; fill-opacity: 0.6; stroke: #ffffff; stroke-opacity: 0.6; stroke-width: 0.339411"/>
    <path d="M 83.933481 93.327364 
L 81.81216 97.570005 
L 86.054801 97.570005 
z
" clip-path="url(#p4dd114744a)" style="fill: #117733; fill-opacity: 0.6; stroke: #ffffff; stroke-opacity: 0.6; stroke-width: 0.339411"/>
    <path d="M 125.586736 114.623249 
L 123.465415 118.86589 
L 127.708056 118.86589 
z
" clip-path="url(#p4dd114744a)" style="fill: #117733; fill-opacity: 0.6; stroke: #ffffff; stroke-opacity: 0.6; stroke-width: 0.339411"/>
    <path d="M 180.365027 107.02864 
L 178.243707 111.27128 
L 182.486348 111.27128 
z
" clip-path="url(#p4dd114744a)" style="fill: #117733; fill-opacity: 0.6; stroke: #ffffff; stroke-opacity: 0.6; stroke-width: 0.339411"/>
    <path d="M 95.511072 96.3702 
L 93.389751 100.612841 
L 97.632392 100.612841 
z
" clip-path="url(#p4dd114744a)" style="fill: #117733; fill-opacity: 0.6; stroke: #ffffff; stroke-opacity: 0.6; stroke-width: 0.339411"/>
    <path d="M 180.19352 107.21363 
L 178.072199 111.45627 
L 182.31484 111.45627 
z
" clip-path="url(#p4dd114744a)" style="fill: #117733; fill-opacity: 0.6; stroke: #ffffff; stroke-opacity: 0.6; stroke-width: 0.339411"/>
    <path d="M 147.692701 119.004719 
L 145.571381 123.247359 
L 149.814022 123.247359 
z
" clip-path="url(#p4dd114744a)" style="fill: #117733; fill-opacity: 0.6; stroke: #ffffff; stroke-opacity: 0.6; stroke-width: 0.339411"/>
    <path d="M 199.071047 113.12042 
L 196.949727 117.363061 
L 201.192368 117.363061 
z
" clip-path="url(#p4dd114744a)" style="fill: #117733; fill-opacity: 0.6; stroke: #ffffff; stroke-opacity: 0.6; stroke-width: 0.339411"/>
    <path d="M 162.913532 137.904848 
L 160.792211 142.147488 
L 165.034852 142.147488 
z
" clip-path="url(#p4dd114744a)" style="fill: #117733; fill-opacity: 0.6; stroke: #ffffff; stroke-opacity: 0.6; stroke-width: 0.339411"/>
    <path d="M 107.96374 120.94767 
L 105.84242 125.190311 
L 110.085061 125.190311 
z
" clip-path="url(#p4dd114744a)" style="fill: #117733; fill-opacity: 0.6; stroke: #ffffff; stroke-opacity: 0.6; stroke-width: 0.339411"/>
    <path d="M 120.438931 106.231933 
L 118.31761 110.474574 
L 122.560251 110.474574 
z
" clip-path="url(#p4dd114744a)" style="fill: #117733; fill-opacity: 0.6; stroke: #ffffff; stroke-opacity: 0.6; stroke-width: 0.339411"/>
    <path d="M 184.189336 102.69961 
L 182.068016 106.94225 
L 186.310657 106.94225 
z
" clip-path="url(#p4dd114744a)" style="fill: #117733; fill-opacity: 0.6; stroke: #ffffff; stroke-opacity: 0.6; stroke-width: 0.339411"/>
    <path d="M 105.30903 88.779614 
L 103.187709 93.022254 
L 107.43035 93.022254 
z
" clip-path="url(#p4dd114744a)" style="fill: #117733; fill-opacity: 0.6; stroke: #ffffff; stroke-opacity: 0.6; stroke-width: 0.339411"/>
    <path d="M 121.2643 120.584679 
L 119.14298 124.827319 
L 123.385621 124.827319 
z
" clip-path="url(#p4dd114744a)" style="fill: #117733; fill-opacity: 0.6; stroke: #ffffff; stroke-opacity: 0.6; stroke-width: 0.339411"/>
    <path d="M 171.223639 127.606081 
L 169.102319 131.848722 
L 173.344959 131.848722 
z
" clip-path="url(#p4dd114744a)" style="fill: #117733; fill-opacity: 0.6; stroke: #ffffff; stroke-opacity: 0.6; stroke-width: 0.339411"/>
    <path d="M 115.326146 140.732592 
L 113.204825 144.975233 
L 117.447466 144.975233 
z
" clip-path="url(#p4dd114744a)" style="fill: #117733; fill-opacity: 0.6; stroke: #ffffff; stroke-opacity: 0.6; stroke-width: 0.339411"/>
    <path d="M 149.334318 152.251879 
L 147.212997 156.49452 
L 151.455638 156.49452 
z
" clip-path="url(#p4dd114744a)" style="fill: #117733; fill-opacity: 0.6; stroke: #ffffff; stroke-opacity: 0.6; stroke-width: 0.339411"/>
    <path d="M 211.486692 114.738882 
L 209.365371 118.981522 
L 213.608012 118.981522 
z
" clip-path="url(#p4dd114744a)" style="fill: #117733; fill-opacity: 0.6; stroke: #ffffff; stroke-opacity: 0.6; stroke-width: 0.339411"/>
    <path d="M 188.448649 104.490477 
L 186.327328 108.733118 
L 190.569969 108.733118 
z
" clip-path="url(#p4dd114744a)" style="fill: #117733; fill-opacity: 0.6; stroke: #ffffff; stroke-opacity: 0.6; stroke-width: 0.339411"/>
    <path d="M 200.957978 95.50851 
L 198.836657 99.751151 
L 203.079298 99.751151 
z
" clip-path="url(#p4dd114744a)" style="fill: #117733; fill-opacity: 0.6; stroke: #ffffff; stroke-opacity: 0.6; stroke-width: 0.339411"/>
    <path d="M 210.201004 113.391989 
L 208.079684 117.634629 
L 212.322325 117.634629 
z
" clip-path="url(#p4dd114744a)" style="fill: #117733; fill-opacity: 0.6; stroke: #ffffff; stroke-opacity: 0.6; stroke-width: 0.339411"/>
    <path d="M 113.966538 125.469641 
L 111.845218 129.712281 
L 116.087859 129.712281 
z
" clip-path="url(#p4dd114744a)" style="fill: #117733; fill-opacity: 0.6; stroke: #ffffff; stroke-opacity: 0.6; stroke-width: 0.339411"/>
    <path d="M 123.729021 112.129714 
L 121.607701 116.372354 
L 125.850342 116.372354 
z
" clip-path="url(#p4dd114744a)" style="fill: #117733; fill-opacity: 0.6; stroke: #ffffff; stroke-opacity: 0.6; stroke-width: 0.339411"/>
    <path d="M 204.684608 110.295664 
L 202.563288 114.538305 
L 206.805928 114.538305 
z
" clip-path="url(#p4dd114744a)" style="fill: #117733; fill-opacity: 0.6; stroke: #ffffff; stroke-opacity: 0.6; stroke-width: 0.339411"/>
    <path d="M 114.481922 128.514865 
L 112.360602 132.757505 
L 116.603242 132.757505 
z
" clip-path="url(#p4dd114744a)" style="fill: #117733; fill-opacity: 0.6; stroke: #ffffff; stroke-opacity: 0.6; stroke-width: 0.339411"/>
    <path d="M 99.0431 85.756487 
L 96.92178 89.999127 
L 101.16442 89.999127 
z
" clip-path="url(#p4dd114744a)" style="fill: #117733; fill-opacity: 0.6; stroke: #ffffff; stroke-opacity: 0.6; stroke-width: 0.339411"/>
    <path d="M 209.80981 111.35661 
L 207.68849 115.599251 
L 211.931131 115.599251 
z
" clip-path="url(#p4dd114744a)" style="fill: #117733; fill-opacity: 0.6; stroke: #ffffff; stroke-opacity: 0.6; stroke-width: 0.339411"/>
    <path d="M 136.492691 114.224603 
L 134.37137 118.467244 
L 138.614011 118.467244 
z
" clip-path="url(#p4dd114744a)" style="fill: #117733; fill-opacity: 0.6; stroke: #ffffff; stroke-opacity: 0.6; stroke-width: 0.339411"/>
    <path d="M 135.525125 110.319992 
L 133.403805 114.562633 
L 137.646446 114.562633 
z
" clip-path="url(#p4dd114744a)" style="fill: #117733; fill-opacity: 0.6; stroke: #ffffff; stroke-opacity: 0.6; stroke-width: 0.339411"/>
    <path d="M 202.795877 110.01338 
L 200.674556 114.25602 
L 204.917197 114.25602 
z
" clip-path="url(#p4dd114744a)" style="fill: #117733; fill-opacity: 0.6; stroke: #ffffff; stroke-opacity: 0.6; stroke-width: 0.339411"/>
    <path d="M 136.967427 111.33195 
L 134.846106 115.574591 
L 139.088747 115.574591 
z
" clip-path="url(#p4dd114744a)" style="fill: #117733; fill-opacity: 0.6; stroke: #ffffff; stroke-opacity: 0.6; stroke-width: 0.339411"/>
    <path d="M 184.51891 96.716364 
L 182.397589 100.959005 
L 186.64023 100.959005 
z
" clip-path="url(#p4dd114744a)" style="fill: #117733; fill-opacity: 0.6; stroke: #ffffff; stroke-opacity: 0.6; stroke-width: 0.339411"/>
    <path d="M 112.840224 123.883264 
L 110.718903 128.125905 
L 114.961544 128.125905 
z
" clip-path="url(#p4dd114744a)" style="fill: #117733; fill-opacity: 0.6; stroke: #ffffff; stroke-opacity: 0.6; stroke-width: 0.339411"/>
    <path d="M 113.9574 101.101356 
L 118.200041 101.101356 
L 118.200041 96.858715 
L 113.9574 96.858715 
z
" clip-path="url(#p4dd114744a)" style="fill: #44aa99; fill-opacity: 0.6; stroke: #ffffff; stroke-opacity: 0.6; stroke-width: 0.339411"/>
    <path d="M 103.094115 132.864246 
L 107.336756 132.864246 
L 107.336756 128.621605 
L 103.094115 128.621605 
z
" clip-path="url(#p4dd114744a)" style="fill: #44aa99; fill-opacity: 0.6; stroke: #ffffff; stroke-opacity: 0.6; stroke-width: 0.339411"/>
    <path d="M 119.433233 106.942107 
L 123.675874 106.942107 
L 123.675874 102.699467 
L 119.433233 102.699467 
z
" clip-path="url(#p4dd114744a)" style="fill: #44aa99; fill-opacity: 0.6; stroke: #ffffff; stroke-opacity: 0.6; stroke-width: 0.339411"/>
    <path d="M 74.633448 110.899704 
L 78.876088 110.899704 
L 78.876088 106.657063 
L 74.633448 106.657063 
z
" clip-path="url(#p4dd114744a)" style="fill: #44aa99; fill-opacity: 0.6; stroke: #ffffff; stroke-opacity: 0.6; stroke-width: 0.339411"/>
    <path d="M 114.763643 130.919513 
L 119.006284 130.919513 
L 119.006284 126.676872 
L 114.763643 126.676872 
z
" clip-path="url(#p4dd114744a)" style="fill: #44aa99; fill-opacity: 0.6; stroke: #ffffff; stroke-opacity: 0.6; stroke-width: 0.339411"/>
    <path d="M 112.612106 113.654289 
L 116.854747 113.654289 
L 116.854747 109.411649 
L 112.612106 109.411649 
z
" clip-path="url(#p4dd114744a)" style="fill: #44aa99; fill-opacity: 0.6; stroke: #ffffff; stroke-opacity: 0.6; stroke-width: 0.339411"/>
    <path d="M 94.21094 95.753083 
L 98.453581 95.753083 
L 98.453581 91.510443 
L 94.21094 91.510443 
z
" clip-path="url(#p4dd114744a)" style="fill: #44aa99; fill-opacity: 0.6; stroke: #ffffff; stroke-opacity: 0.6; stroke-width: 0.339411"/>
    <path d="M 115.212996 124.221703 
L 119.455636 124.221703 
L 119.455636 119.979062 
L 115.212996 119.979062 
z
" clip-path="url(#p4dd114744a)" style="fill: #44aa99; fill-opacity: 0.6; stroke: #ffffff; stroke-opacity: 0.6; stroke-width: 0.339411"/>
    <path d="M 99.851816 123.354541 
L 104.094457 123.354541 
L 104.094457 119.1119 
L 99.851816 119.1119 
z
" clip-path="url(#p4dd114744a)" style="fill: #44aa99; fill-opacity: 0.6; stroke: #ffffff; stroke-opacity: 0.6; stroke-width: 0.339411"/>
    <path d="M 127.618643 146.097363 
L 131.861284 146.097363 
L 131.861284 141.854723 
L 127.618643 141.854723 
z
" clip-path="url(#p4dd114744a)" style="fill: #44aa99; fill-opacity: 0.6; stroke: #ffffff; stroke-opacity: 0.6; stroke-width: 0.339411"/>
    <path d="M 116.887889 70.81657 
L 121.13053 70.81657 
L 121.13053 66.573929 
L 116.887889 66.573929 
z
" clip-path="url(#p4dd114744a)" style="fill: #44aa99; fill-opacity: 0.6; stroke: #ffffff; stroke-opacity: 0.6; stroke-width: 0.339411"/>
    <path d="M 122.213883 105.195288 
L 126.456524 105.195288 
L 126.456524 100.952647 
L 122.213883 100.952647 
z
" clip-path="url(#p4dd114744a)" style="fill: #44aa99; fill-opacity: 0.6; stroke: #ffffff; stroke-opacity: 0.6; stroke-width: 0.339411"/>
    <path d="M 113.156303 124.754915 
L 117.398943 124.754915 
L 117.398943 120.512274 
L 113.156303 120.512274 
z
" clip-path="url(#p4dd114744a)" style="fill: #44aa99; fill-opacity: 0.6; stroke: #ffffff; stroke-opacity: 0.6; stroke-width: 0.339411"/>
    <path d="M 109.900048 124.82893 
L 114.142688 124.82893 
L 114.142688 120.58629 
L 109.900048 120.58629 
z
" clip-path="url(#p4dd114744a)" style="fill: #44aa99; fill-opacity: 0.6; stroke: #ffffff; stroke-opacity: 0.6; stroke-width: 0.339411"/>
    <path d="M 99.021873 140.156383 
L 103.264514 140.156383 
L 103.264514 135.913742 
L 99.021873 135.913742 
z
" clip-path="url(#p4dd114744a)" style="fill: #44aa99; fill-opacity: 0.6; stroke: #ffffff; stroke-opacity: 0.6; stroke-width: 0.339411"/>
    <path d="M 83.489259 117.532233 
L 87.7319 117.532233 
L 87.7319 113.289592 
L 83.489259 113.289592 
z
" clip-path="url(#p4dd114744a)" style="fill: #44aa99; fill-opacity: 0.6; stroke: #ffffff; stroke-opacity: 0.6; stroke-width: 0.339411"/>
    <path d="M 102.839797 121.846655 
L 107.082437 121.846655 
L 107.082437 117.604015 
L 102.839797 117.604015 
z
" clip-path="url(#p4dd114744a)" style="fill: #44aa99; fill-opacity: 0.6; stroke: #ffffff; stroke-opacity: 0.6; stroke-width: 0.339411"/>
    <path d="M 125.503455 144.947653 
L 129.746095 144.947653 
L 129.746095 140.705012 
L 125.503455 140.705012 
z
" clip-path="url(#p4dd114744a)" style="fill: #44aa99; fill-opacity: 0.6; stroke: #ffffff; stroke-opacity: 0.6; stroke-width: 0.339411"/>
    <path d="M 133.208844 126.245468 
L 137.451484 126.245468 
L 137.451484 122.002827 
L 133.208844 122.002827 
z
" clip-path="url(#p4dd114744a)" style="fill: #44aa99; fill-opacity: 0.6; stroke: #ffffff; stroke-opacity: 0.6; stroke-width: 0.339411"/>
    <path d="M 122.276207 114.534873 
L 126.518848 114.534873 
L 126.518848 110.292232 
L 122.276207 110.292232 
z
" clip-path="url(#p4dd114744a)" style="fill: #44aa99; fill-opacity: 0.6; stroke: #ffffff; stroke-opacity: 0.6; stroke-width: 0.339411"/>
    <path d="M 87.67014 108.825654 
L 91.912781 108.825654 
L 91.912781 104.583014 
L 87.67014 104.583014 
z
" clip-path="url(#p4dd114744a)" style="fill: #44aa99; fill-opacity: 0.6; stroke: #ffffff; stroke-opacity: 0.6; stroke-width: 0.339411"/>
    <path d="M 118.149066 137.69856 
L 122.391707 137.69856 
L 122.391707 133.45592 
L 118.149066 133.45592 
z
" clip-path="url(#p4dd114744a)" style="fill: #44aa99; fill-opacity: 0.6; stroke: #ffffff; stroke-opacity: 0.6; stroke-width: 0.339411"/>
    <path d="M 83.545535 95.778158 
L 87.788176 95.778158 
L 87.788176 91.535517 
L 83.545535 91.535517 
z
" clip-path="url(#p4dd114744a)" style="fill: #44aa99; fill-opacity: 0.6; stroke: #ffffff; stroke-opacity: 0.6; stroke-width: 0.339411"/>
    <path d="M 120.467528 149.919872 
L 124.710169 149.919872 
L 124.710169 145.677232 
L 120.467528 145.677232 
z
" clip-path="url(#p4dd114744a)" style="fill: #44aa99; fill-opacity: 0.6; stroke: #ffffff; stroke-opacity: 0.6; stroke-width: 0.339411"/>
    <path d="M 104.97969 119.077824 
L 109.22233 119.077824 
L 109.22233 114.835184 
L 104.97969 114.835184 
z
" clip-path="url(#p4dd114744a)" style="fill: #44aa99; fill-opacity: 0.6; stroke: #ffffff; stroke-opacity: 0.6; stroke-width: 0.339411"/>
    <path d="M 105.200673 146.423925 
L 109.443314 146.423925 
L 109.443314 142.181285 
L 105.200673 142.181285 
z
" clip-path="url(#p4dd114744a)" style="fill: #44aa99; fill-opacity: 0.6; stroke: #ffffff; stroke-opacity: 0.6; stroke-width: 0.339411"/>
    <path d="M 127.061605 130.601935 
L 131.304246 130.601935 
L 131.304246 126.359294 
L 127.061605 126.359294 
z
" clip-path="url(#p4dd114744a)" style="fill: #44aa99; fill-opacity: 0.6; stroke: #ffffff; stroke-opacity: 0.6; stroke-width: 0.339411"/>
    <path d="M 121.759174 136.828935 
L 126.001814 136.828935 
L 126.001814 132.586294 
L 121.759174 132.586294 
z
" clip-path="url(#p4dd114744a)" style="fill: #44aa99; fill-opacity: 0.6; stroke: #ffffff; stroke-opacity: 0.6; stroke-width: 0.339411"/>
    <path d="M 117.20792 108.530575 
L 121.450561 108.530575 
L 121.450561 104.287935 
L 117.20792 104.287935 
z
" clip-path="url(#p4dd114744a)" style="fill: #44aa99; fill-opacity: 0.6; stroke: #ffffff; stroke-opacity: 0.6; stroke-width: 0.339411"/>
    <path d="M 113.768572 141.235799 
L 118.011213 141.235799 
L 118.011213 136.993158 
L 113.768572 136.993158 
z
" clip-path="url(#p4dd114744a)" style="fill: #44aa99; fill-opacity: 0.6; stroke: #ffffff; stroke-opacity: 0.6; stroke-width: 0.339411"/>
    <path d="M 110.147846 129.350416 
L 114.390486 129.350416 
L 114.390486 125.107775 
L 110.147846 125.107775 
z
" clip-path="url(#p4dd114744a)" style="fill: #44aa99; fill-opacity: 0.6; stroke: #ffffff; stroke-opacity: 0.6; stroke-width: 0.339411"/>
    <path d="M 113.930266 123.320552 
L 118.172907 123.320552 
L 118.172907 119.077912 
L 113.930266 119.077912 
z
" clip-path="url(#p4dd114744a)" style="fill: #44aa99; fill-opacity: 0.6; stroke: #ffffff; stroke-opacity: 0.6; stroke-width: 0.339411"/>
    <path d="M 123.044465 139.146892 
L 127.287105 139.146892 
L 127.287105 134.904252 
L 123.044465 134.904252 
z
" clip-path="url(#p4dd114744a)" style="fill: #44aa99; fill-opacity: 0.6; stroke: #ffffff; stroke-opacity: 0.6; stroke-width: 0.339411"/>
    <path d="M 113.068172 121.354353 
L 117.310812 121.354353 
L 117.310812 117.111712 
L 113.068172 117.111712 
z
" clip-path="url(#p4dd114744a)" style="fill: #44aa99; fill-opacity: 0.6; stroke: #ffffff; stroke-opacity: 0.6; stroke-width: 0.339411"/>
    <path d="M 118.40756 138.370692 
L 122.6502 138.370692 
L 122.6502 134.128051 
L 118.40756 134.128051 
z
" clip-path="url(#p4dd114744a)" style="fill: #44aa99; fill-opacity: 0.6; stroke: #ffffff; stroke-opacity: 0.6; stroke-width: 0.339411"/>
    <path d="M 93.925015 96.185757 
L 98.167656 96.185757 
L 98.167656 91.943116 
L 93.925015 91.943116 
z
" clip-path="url(#p4dd114744a)" style="fill: #44aa99; fill-opacity: 0.6; stroke: #ffffff; stroke-opacity: 0.6; stroke-width: 0.339411"/>
    <path d="M 116.409618 132.913209 
L 120.652258 132.913209 
L 120.652258 128.670568 
L 116.409618 128.670568 
z
" clip-path="url(#p4dd114744a)" style="fill: #44aa99; fill-opacity: 0.6; stroke: #ffffff; stroke-opacity: 0.6; stroke-width: 0.339411"/>
    <path d="M 94.314548 109.518654 
L 98.557188 109.518654 
L 98.557188 105.276013 
L 94.314548 105.276013 
z
" clip-path="url(#p4dd114744a)" style="fill: #44aa99; fill-opacity: 0.6; stroke: #ffffff; stroke-opacity: 0.6; stroke-width: 0.339411"/>
    <path d="M 126.801184 126.671563 
L 131.043825 126.671563 
L 131.043825 122.428922 
L 126.801184 122.428922 
z
" clip-path="url(#p4dd114744a)" style="fill: #44aa99; fill-opacity: 0.6; stroke: #ffffff; stroke-opacity: 0.6; stroke-width: 0.339411"/>
    <path d="M 120.658586 139.887393 
L 124.901227 139.887393 
L 124.901227 135.644753 
L 120.658586 135.644753 
z
" clip-path="url(#p4dd114744a)" style="fill: #44aa99; fill-opacity: 0.6; stroke: #ffffff; stroke-opacity: 0.6; stroke-width: 0.339411"/>
    <path d="M 124.938179 133.165017 
L 129.18082 133.165017 
L 129.18082 128.922377 
L 124.938179 128.922377 
z
" clip-path="url(#p4dd114744a)" style="fill: #44aa99; fill-opacity: 0.6; stroke: #ffffff; stroke-opacity: 0.6; stroke-width: 0.339411"/>
    <path d="M 113.0326 134.635778 
L 117.275241 134.635778 
L 117.275241 130.393138 
L 113.0326 130.393138 
z
" clip-path="url(#p4dd114744a)" style="fill: #44aa99; fill-opacity: 0.6; stroke: #ffffff; stroke-opacity: 0.6; stroke-width: 0.339411"/>
    <path d="M 94.062971 137.451011 
L 98.305611 137.451011 
L 98.305611 133.208371 
L 94.062971 133.208371 
z
" clip-path="url(#p4dd114744a)" style="fill: #44aa99; fill-opacity: 0.6; stroke: #ffffff; stroke-opacity: 0.6; stroke-width: 0.339411"/>
    <path d="M 99.903017 110.650686 
L 104.145657 110.650686 
L 104.145657 106.408045 
L 99.903017 106.408045 
z
" clip-path="url(#p4dd114744a)" style="fill: #44aa99; fill-opacity: 0.6; stroke: #ffffff; stroke-opacity: 0.6; stroke-width: 0.339411"/>
    <path d="M 122.317307 130.545451 
L 126.559948 130.545451 
L 126.559948 126.30281 
L 122.317307 126.30281 
z
" clip-path="url(#p4dd114744a)" style="fill: #44aa99; fill-opacity: 0.6; stroke: #ffffff; stroke-opacity: 0.6; stroke-width: 0.339411"/>
    <path d="M 74.343285 101.760347 
L 78.585926 101.760347 
L 78.585926 97.517706 
L 74.343285 97.517706 
z
" clip-path="url(#p4dd114744a)" style="fill: #44aa99; fill-opacity: 0.6; stroke: #ffffff; stroke-opacity: 0.6; stroke-width: 0.339411"/>
    <path d="M 103.699032 128.825135 
L 107.941672 128.825135 
L 107.941672 124.582494 
L 103.699032 124.582494 
z
" clip-path="url(#p4dd114744a)" style="fill: #44aa99; fill-opacity: 0.6; stroke: #ffffff; stroke-opacity: 0.6; stroke-width: 0.339411"/>
    <path d="M 121.324773 154.87116 
L 125.567414 154.87116 
L 125.567414 150.62852 
L 121.324773 150.62852 
z
" clip-path="url(#p4dd114744a)" style="fill: #44aa99; fill-opacity: 0.6; stroke: #ffffff; stroke-opacity: 0.6; stroke-width: 0.339411"/>
    <path d="M 121.31255 138.409124 
L 125.555191 138.409124 
L 125.555191 134.166483 
L 121.31255 134.166483 
z
" clip-path="url(#p4dd114744a)" style="fill: #44aa99; fill-opacity: 0.6; stroke: #ffffff; stroke-opacity: 0.6; stroke-width: 0.339411"/>
    <path d="M 115.185078 109.109422 
L 119.427719 109.109422 
L 119.427719 104.866781 
L 115.185078 104.866781 
z
" clip-path="url(#p4dd114744a)" style="fill: #44aa99; fill-opacity: 0.6; stroke: #ffffff; stroke-opacity: 0.6; stroke-width: 0.339411"/>
    <path d="M 92.946974 127.582295 
L 97.189614 127.582295 
L 97.189614 123.339655 
L 92.946974 123.339655 
z
" clip-path="url(#p4dd114744a)" style="fill: #44aa99; fill-opacity: 0.6; stroke: #ffffff; stroke-opacity: 0.6; stroke-width: 0.339411"/>
    <path d="M 105.588481 140.382428 
L 109.831122 140.382428 
L 109.831122 136.139788 
L 105.588481 136.139788 
z
" clip-path="url(#p4dd114744a)" style="fill: #44aa99; fill-opacity: 0.6; stroke: #ffffff; stroke-opacity: 0.6; stroke-width: 0.339411"/>
    <path d="M 116.011857 87.358037 
L 120.254497 87.358037 
L 120.254497 83.115396 
L 116.011857 83.115396 
z
" clip-path="url(#p4dd114744a)" style="fill: #44aa99; fill-opacity: 0.6; stroke: #ffffff; stroke-opacity: 0.6; stroke-width: 0.339411"/>
    <path d="M 131.123159 126.526094 
L 135.3658 126.526094 
L 135.3658 122.283453 
L 131.123159 122.283453 
z
" clip-path="url(#p4dd114744a)" style="fill: #44aa99; fill-opacity: 0.6; stroke: #ffffff; stroke-opacity: 0.6; stroke-width: 0.339411"/>
    <path d="M 102.897288 80.455011 
L 107.139928 80.455011 
L 107.139928 76.21237 
L 102.897288 76.21237 
z
" clip-path="url(#p4dd114744a)" style="fill: #44aa99; fill-opacity: 0.6; stroke: #ffffff; stroke-opacity: 0.6; stroke-width: 0.339411"/>
    <path d="M 82.672862 97.668235 
L 86.915503 97.668235 
L 86.915503 93.425594 
L 82.672862 93.425594 
z
" clip-path="url(#p4dd114744a)" style="fill: #44aa99; fill-opacity: 0.6; stroke: #ffffff; stroke-opacity: 0.6; stroke-width: 0.339411"/>
    <path d="M 77.907892 96.532175 
L 82.150533 96.532175 
L 82.150533 92.289534 
L 77.907892 92.289534 
z
" clip-path="url(#p4dd114744a)" style="fill: #44aa99; fill-opacity: 0.6; stroke: #ffffff; stroke-opacity: 0.6; stroke-width: 0.339411"/>
    <path d="M 120.792299 111.341757 
L 125.034939 111.341757 
L 125.034939 107.099116 
L 120.792299 107.099116 
z
" clip-path="url(#p4dd114744a)" style="fill: #44aa99; fill-opacity: 0.6; stroke: #ffffff; stroke-opacity: 0.6; stroke-width: 0.339411"/>
    <path d="M 104.091832 144.8614 
L 108.334473 144.8614 
L 108.334473 140.618759 
L 104.091832 140.618759 
z
" clip-path="url(#p4dd114744a)" style="fill: #44aa99; fill-opacity: 0.6; stroke: #ffffff; stroke-opacity: 0.6; stroke-width: 0.339411"/>
    <path d="M 97.846361 131.899699 
L 102.089002 131.899699 
L 102.089002 127.657058 
L 97.846361 127.657058 
z
" clip-path="url(#p4dd114744a)" style="fill: #44aa99; fill-opacity: 0.6; stroke: #ffffff; stroke-opacity: 0.6; stroke-width: 0.339411"/>
    <path d="M 117.414726 130.513573 
L 121.657367 130.513573 
L 121.657367 126.270933 
L 117.414726 126.270933 
z
" clip-path="url(#p4dd114744a)" style="fill: #44aa99; fill-opacity: 0.6; stroke: #ffffff; stroke-opacity: 0.6; stroke-width: 0.339411"/>
    <path d="M 99.953122 140.333965 
L 104.195763 140.333965 
L 104.195763 136.091324 
L 99.953122 136.091324 
z
" clip-path="url(#p4dd114744a)" style="fill: #44aa99; fill-opacity: 0.6; stroke: #ffffff; stroke-opacity: 0.6; stroke-width: 0.339411"/>
    <path d="M 97.982841 122.332193 
L 102.225482 122.332193 
L 102.225482 118.089553 
L 97.982841 118.089553 
z
" clip-path="url(#p4dd114744a)" style="fill: #44aa99; fill-opacity: 0.6; stroke: #ffffff; stroke-opacity: 0.6; stroke-width: 0.339411"/>
    <path d="M 100.751173 120.7117 
L 101.811833 119.65104 
L 102.872494 120.7117 
L 103.933154 119.65104 
L 102.872494 118.59038 
L 103.933154 117.529719 
L 102.872494 116.469059 
L 101.811833 117.529719 
L 100.751173 116.469059 
L 99.690513 117.529719 
L 100.751173 118.59038 
L 99.690513 119.65104 
z
" clip-path="url(#p4dd114744a)" style="fill: #88ccee; fill-opacity: 0.6; stroke: #ffffff; stroke-opacity: 0.6; stroke-width: 0.339411"/>
    <path d="M 144.338952 132.037852 
L 145.399612 130.977192 
L 146.460272 132.037852 
L 147.520932 130.977192 
L 146.460272 129.916532 
L 147.520932 128.855871 
L 146.460272 127.795211 
L 145.399612 128.855871 
L 144.338952 127.795211 
L 143.278291 128.855871 
L 144.338952 129.916532 
L 143.278291 130.977192 
z
" clip-path="url(#p4dd114744a)" style="fill: #88ccee; fill-opacity: 0.6; stroke: #ffffff; stroke-opacity: 0.6; stroke-width: 0.339411"/>
    <path d="M 92.247063 132.27507 
L 93.307723 131.21441 
L 94.368384 132.27507 
L 95.429044 131.21441 
L 94.368384 130.15375 
L 95.429044 129.09309 
L 94.368384 128.03243 
L 93.307723 129.09309 
L 92.247063 128.03243 
L 91.186403 129.09309 
L 92.247063 130.15375 
L 91.186403 131.21441 
z
" clip-path="url(#p4dd114744a)" style="fill: #88ccee; fill-opacity: 0.6; stroke: #ffffff; stroke-opacity: 0.6; stroke-width: 0.339411"/>
    <path d="M 119.032017 126.63977 
L 120.092677 125.57911 
L 121.153338 126.63977 
L 122.213998 125.57911 
L 121.153338 124.51845 
L 122.213998 123.457789 
L 121.153338 122.397129 
L 120.092677 123.457789 
L 119.032017 122.397129 
L 117.971357 123.457789 
L 119.032017 124.51845 
L 117.971357 125.57911 
z
" clip-path="url(#p4dd114744a)" style="fill: #88ccee; fill-opacity: 0.6; stroke: #ffffff; stroke-opacity: 0.6; stroke-width: 0.339411"/>
    <path d="M 112.565853 124.915102 
L 113.626514 123.854441 
L 114.687174 124.915102 
L 115.747834 123.854441 
L 114.687174 122.793781 
L 115.747834 121.733121 
L 114.687174 120.672461 
L 113.626514 121.733121 
L 112.565853 120.672461 
L 111.505193 121.733121 
L 112.565853 122.793781 
L 111.505193 123.854441 
z
" clip-path="url(#p4dd114744a)" style="fill: #88ccee; fill-opacity: 0.6; stroke: #ffffff; stroke-opacity: 0.6; stroke-width: 0.339411"/>
    <path d="M 138.891608 144.914388 
L 139.952268 143.853728 
L 141.012928 144.914388 
L 142.073588 143.853728 
L 141.012928 142.793067 
L 142.073588 141.732407 
L 141.012928 140.671747 
L 139.952268 141.732407 
L 138.891608 140.671747 
L 137.830947 141.732407 
L 138.891608 142.793067 
L 137.830947 143.853728 
z
" clip-path="url(#p4dd114744a)" style="fill: #88ccee; fill-opacity: 0.6; stroke: #ffffff; stroke-opacity: 0.6; stroke-width: 0.339411"/>
    <path d="M 120.496089 153.652469 
L 121.556749 152.591809 
L 122.617409 153.652469 
L 123.67807 152.591809 
L 122.617409 151.531148 
L 123.67807 150.470488 
L 122.617409 149.409828 
L 121.556749 150.470488 
L 120.496089 149.409828 
L 119.435429 150.470488 
L 120.496089 151.531148 
L 119.435429 152.591809 
z
" clip-path="url(#p4dd114744a)" style="fill: #88ccee; fill-opacity: 0.6; stroke: #ffffff; stroke-opacity: 0.6; stroke-width: 0.339411"/>
    <path d="M 102.144995 89.474544 
L 103.205655 88.413884 
L 104.266315 89.474544 
L 105.326976 88.413884 
L 104.266315 87.353224 
L 105.326976 86.292564 
L 104.266315 85.231904 
L 103.205655 86.292564 
L 102.144995 85.231904 
L 101.084335 86.292564 
L 102.144995 87.353224 
L 101.084335 88.413884 
z
" clip-path="url(#p4dd114744a)" style="fill: #88ccee; fill-opacity: 0.6; stroke: #ffffff; stroke-opacity: 0.6; stroke-width: 0.339411"/>
    <path d="M 115.462755 155.143869 
L 116.523416 154.083209 
L 117.584076 155.143869 
L 118.644736 154.083209 
L 117.584076 153.022548 
L 118.644736 151.961888 
L 117.584076 150.901228 
L 116.523416 151.961888 
L 115.462755 150.901228 
L 114.402095 151.961888 
L 115.462755 153.022548 
L 114.402095 154.083209 
z
" clip-path="url(#p4dd114744a)" style="fill: #88ccee; fill-opacity: 0.6; stroke: #ffffff; stroke-opacity: 0.6; stroke-width: 0.339411"/>
    <path d="M 108.122181 150.675653 
L 109.182841 149.614992 
L 110.243501 150.675653 
L 111.304162 149.614992 
L 110.243501 148.554332 
L 111.304162 147.493672 
L 110.243501 146.433012 
L 109.182841 147.493672 
L 108.122181 146.433012 
L 107.061521 147.493672 
L 108.122181 148.554332 
L 107.061521 149.614992 
z
" clip-path="url(#p4dd114744a)" style="fill: #88ccee; fill-opacity: 0.6; stroke: #ffffff; stroke-opacity: 0.6; stroke-width: 0.339411"/>
    <path d="M 108.414833 143.773954 
L 109.475493 142.713294 
L 110.536154 143.773954 
L 111.596814 142.713294 
L 110.536154 141.652634 
L 111.596814 140.591973 
L 110.536154 139.531313 
L 109.475493 140.591973 
L 108.414833 139.531313 
L 107.354173 140.591973 
L 108.414833 141.652634 
L 107.354173 142.713294 
z
" clip-path="url(#p4dd114744a)" style="fill: #88ccee; fill-opacity: 0.6; stroke: #ffffff; stroke-opacity: 0.6; stroke-width: 0.339411"/>
    <path d="M 113.524824 173.156044 
L 114.585484 172.095384 
L 115.646144 173.156044 
L 116.706804 172.095384 
L 115.646144 171.034724 
L 116.706804 169.974064 
L 115.646144 168.913403 
L 114.585484 169.974064 
L 113.524824 168.913403 
L 112.464164 169.974064 
L 113.524824 171.034724 
L 112.464164 172.095384 
z
" clip-path="url(#p4dd114744a)" style="fill: #88ccee; fill-opacity: 0.6; stroke: #ffffff; stroke-opacity: 0.6; stroke-width: 0.339411"/>
    <path d="M 127.094391 146.717845 
L 128.155051 145.657185 
L 129.215712 146.717845 
L 130.276372 145.657185 
L 129.215712 144.596525 
L 130.276372 143.535865 
L 129.215712 142.475204 
L 128.155051 143.535865 
L 127.094391 142.475204 
L 126.033731 143.535865 
L 127.094391 144.596525 
L 126.033731 145.657185 
z
" clip-path="url(#p4dd114744a)" style="fill: #88ccee; fill-opacity: 0.6; stroke: #ffffff; stroke-opacity: 0.6; stroke-width: 0.339411"/>
    <path d="M 108.13359 141.901889 
L 109.19425 140.841229 
L 110.25491 141.901889 
L 111.31557 140.841229 
L 110.25491 139.780569 
L 111.31557 138.719908 
L 110.25491 137.659248 
L 109.19425 138.719908 
L 108.13359 137.659248 
L 107.07293 138.719908 
L 108.13359 139.780569 
L 107.07293 140.841229 
z
" clip-path="url(#p4dd114744a)" style="fill: #88ccee; fill-opacity: 0.6; stroke: #ffffff; stroke-opacity: 0.6; stroke-width: 0.339411"/>
    <path d="M 112.915295 107.617441 
L 113.975955 106.55678 
L 115.036615 107.617441 
L 116.097275 106.55678 
L 115.036615 105.49612 
L 116.097275 104.43546 
L 115.036615 103.3748 
L 113.975955 104.43546 
L 112.915295 103.3748 
L 111.854635 104.43546 
L 112.915295 105.49612 
L 111.854635 106.55678 
z
" clip-path="url(#p4dd114744a)" style="fill: #88ccee; fill-opacity: 0.6; stroke: #ffffff; stroke-opacity: 0.6; stroke-width: 0.339411"/>
    <path d="M 90.256773 142.804577 
L 91.317433 141.743917 
L 92.378093 142.804577 
L 93.438753 141.743917 
L 92.378093 140.683256 
L 93.438753 139.622596 
L 92.378093 138.561936 
L 91.317433 139.622596 
L 90.256773 138.561936 
L 89.196112 139.622596 
L 90.256773 140.683256 
L 89.196112 141.743917 
z
" clip-path="url(#p4dd114744a)" style="fill: #88ccee; fill-opacity: 0.6; stroke: #ffffff; stroke-opacity: 0.6; stroke-width: 0.339411"/>
    <path d="M 102.089594 160.959772 
L 103.150254 159.899112 
L 104.210914 160.959772 
L 105.271574 159.899112 
L 104.210914 158.838452 
L 105.271574 157.777792 
L 104.210914 156.717132 
L 103.150254 157.777792 
L 102.089594 156.717132 
L 101.028934 157.777792 
L 102.089594 158.838452 
L 101.028934 159.899112 
z
" clip-path="url(#p4dd114744a)" style="fill: #88ccee; fill-opacity: 0.6; stroke: #ffffff; stroke-opacity: 0.6; stroke-width: 0.339411"/>
    <path d="M 112.367825 153.800233 
L 113.428485 152.739573 
L 114.489145 153.800233 
L 115.549805 152.739573 
L 114.489145 151.678913 
L 115.549805 150.618253 
L 114.489145 149.557593 
L 113.428485 150.618253 
L 112.367825 149.557593 
L 111.307165 150.618253 
L 112.367825 151.678913 
L 111.307165 152.739573 
z
" clip-path="url(#p4dd114744a)" style="fill: #88ccee; fill-opacity: 0.6; stroke: #ffffff; stroke-opacity: 0.6; stroke-width: 0.339411"/>
    <path d="M 92.645835 110.301611 
L 93.706495 109.240951 
L 94.767155 110.301611 
L 95.827815 109.240951 
L 94.767155 108.180291 
L 95.827815 107.119631 
L 94.767155 106.05897 
L 93.706495 107.119631 
L 92.645835 106.05897 
L 91.585175 107.119631 
L 92.645835 108.180291 
L 91.585175 109.240951 
z
" clip-path="url(#p4dd114744a)" style="fill: #88ccee; fill-opacity: 0.6; stroke: #ffffff; stroke-opacity: 0.6; stroke-width: 0.339411"/>
    <path d="M 130.831118 108.062871 
L 131.891778 107.002211 
L 132.952438 108.062871 
L 134.013098 107.002211 
L 132.952438 105.941551 
L 134.013098 104.880891 
L 132.952438 103.820231 
L 131.891778 104.880891 
L 130.831118 103.820231 
L 129.770458 104.880891 
L 130.831118 105.941551 
L 129.770458 107.002211 
z
" clip-path="url(#p4dd114744a)" style="fill: #88ccee; fill-opacity: 0.6; stroke: #ffffff; stroke-opacity: 0.6; stroke-width: 0.339411"/>
    <path d="M 118.400422 98.35743 
L 119.461082 97.29677 
L 120.521742 98.35743 
L 121.582402 97.29677 
L 120.521742 96.23611 
L 121.582402 95.17545 
L 120.521742 94.11479 
L 119.461082 95.17545 
L 118.400422 94.11479 
L 117.339762 95.17545 
L 118.400422 96.23611 
L 117.339762 97.29677 
z
" clip-path="url(#p4dd114744a)" style="fill: #88ccee; fill-opacity: 0.6; stroke: #ffffff; stroke-opacity: 0.6; stroke-width: 0.339411"/>
    <path d="M 96.835205 146.45139 
L 97.895865 145.39073 
L 98.956526 146.45139 
L 100.017186 145.39073 
L 98.956526 144.33007 
L 100.017186 143.269409 
L 98.956526 142.208749 
L 97.895865 143.269409 
L 96.835205 142.208749 
L 95.774545 143.269409 
L 96.835205 144.33007 
L 95.774545 145.39073 
z
" clip-path="url(#p4dd114744a)" style="fill: #88ccee; fill-opacity: 0.6; stroke: #ffffff; stroke-opacity: 0.6; stroke-width: 0.339411"/>
    <path d="M 103.172496 140.947998 
L 104.233156 139.887338 
L 105.293817 140.947998 
L 106.354477 139.887338 
L 105.293817 138.826678 
L 106.354477 137.766018 
L 105.293817 136.705358 
L 104.233156 137.766018 
L 103.172496 136.705358 
L 102.111836 137.766018 
L 103.172496 138.826678 
L 102.111836 139.887338 
z
" clip-path="url(#p4dd114744a)" style="fill: #88ccee; fill-opacity: 0.6; stroke: #ffffff; stroke-opacity: 0.6; stroke-width: 0.339411"/>
    <path d="M 133.19519 157.288259 
L 134.25585 156.227599 
L 135.31651 157.288259 
L 136.37717 156.227599 
L 135.31651 155.166939 
L 136.37717 154.106279 
L 135.31651 153.045619 
L 134.25585 154.106279 
L 133.19519 153.045619 
L 132.13453 154.106279 
L 133.19519 155.166939 
L 132.13453 156.227599 
z
" clip-path="url(#p4dd114744a)" style="fill: #88ccee; fill-opacity: 0.6; stroke: #ffffff; stroke-opacity: 0.6; stroke-width: 0.339411"/>
    <path d="M 100.768246 159.976399 
L 101.828906 158.915738 
L 102.889566 159.976399 
L 103.950226 158.915738 
L 102.889566 157.855078 
L 103.950226 156.794418 
L 102.889566 155.733758 
L 101.828906 156.794418 
L 100.768246 155.733758 
L 99.707586 156.794418 
L 100.768246 157.855078 
L 99.707586 158.915738 
z
" clip-path="url(#p4dd114744a)" style="fill: #88ccee; fill-opacity: 0.6; stroke: #ffffff; stroke-opacity: 0.6; stroke-width: 0.339411"/>
    <path d="M 96.983516 124.263152 
L 98.044176 123.202492 
L 99.104836 124.263152 
L 100.165496 123.202492 
L 99.104836 122.141832 
L 100.165496 121.081171 
L 99.104836 120.020511 
L 98.044176 121.081171 
L 96.983516 120.020511 
L 95.922856 121.081171 
L 96.983516 122.141832 
L 95.922856 123.202492 
z
" clip-path="url(#p4dd114744a)" style="fill: #88ccee; fill-opacity: 0.6; stroke: #ffffff; stroke-opacity: 0.6; stroke-width: 0.339411"/>
    <path d="M 120.707863 104.180299 
L 121.768523 103.119639 
L 122.829183 104.180299 
L 123.889843 103.119639 
L 122.829183 102.058979 
L 123.889843 100.998319 
L 122.829183 99.937659 
L 121.768523 100.998319 
L 120.707863 99.937659 
L 119.647202 100.998319 
L 120.707863 102.058979 
L 119.647202 103.119639 
z
" clip-path="url(#p4dd114744a)" style="fill: #88ccee; fill-opacity: 0.6; stroke: #ffffff; stroke-opacity: 0.6; stroke-width: 0.339411"/>
    <path d="M 88.238903 104.893567 
L 89.299563 103.832907 
L 90.360223 104.893567 
L 91.420884 103.832907 
L 90.360223 102.772247 
L 91.420884 101.711587 
L 90.360223 100.650926 
L 89.299563 101.711587 
L 88.238903 100.650926 
L 87.178243 101.711587 
L 88.238903 102.772247 
L 87.178243 103.832907 
z
" clip-path="url(#p4dd114744a)" style="fill: #88ccee; fill-opacity: 0.6; stroke: #ffffff; stroke-opacity: 0.6; stroke-width: 0.339411"/>
    <path d="M 109.322248 166.665393 
L 110.382909 165.604733 
L 111.443569 166.665393 
L 112.504229 165.604733 
L 111.443569 164.544073 
L 112.504229 163.483413 
L 111.443569 162.422752 
L 110.382909 163.483413 
L 109.322248 162.422752 
L 108.261588 163.483413 
L 109.322248 164.544073 
L 108.261588 165.604733 
z
" clip-path="url(#p4dd114744a)" style="fill: #88ccee; fill-opacity: 0.6; stroke: #ffffff; stroke-opacity: 0.6; stroke-width: 0.339411"/>
    <path d="M 114.031248 119.207045 
L 115.091908 118.146385 
L 116.152569 119.207045 
L 117.213229 118.146385 
L 116.152569 117.085725 
L 117.213229 116.025065 
L 116.152569 114.964405 
L 115.091908 116.025065 
L 114.031248 114.964405 
L 112.970588 116.025065 
L 114.031248 117.085725 
L 112.970588 118.146385 
z
" clip-path="url(#p4dd114744a)" style="fill: #88ccee; fill-opacity: 0.6; stroke: #ffffff; stroke-opacity: 0.6; stroke-width: 0.339411"/>
    <path d="M 134.421875 153.569643 
L 135.482535 152.508983 
L 136.543196 153.569643 
L 137.603856 152.508983 
L 136.543196 151.448323 
L 137.603856 150.387663 
L 136.543196 149.327002 
L 135.482535 150.387663 
L 134.421875 149.327002 
L 133.361215 150.387663 
L 134.421875 151.448323 
L 133.361215 152.508983 
z
" clip-path="url(#p4dd114744a)" style="fill: #88ccee; fill-opacity: 0.6; stroke: #ffffff; stroke-opacity: 0.6; stroke-width: 0.339411"/>
    <path d="M 98.555845 144.233145 
L 99.616505 143.172485 
L 100.677165 144.233145 
L 101.737825 143.172485 
L 100.677165 142.111825 
L 101.737825 141.051165 
L 100.677165 139.990504 
L 99.616505 141.051165 
L 98.555845 139.990504 
L 97.495185 141.051165 
L 98.555845 142.111825 
L 97.495185 143.172485 
z
" clip-path="url(#p4dd114744a)" style="fill: #88ccee; fill-opacity: 0.6; stroke: #ffffff; stroke-opacity: 0.6; stroke-width: 0.339411"/>
    <path d="M 90.886621 151.879371 
L 91.947281 150.818711 
L 93.007941 151.879371 
L 94.068601 150.818711 
L 93.007941 149.758051 
L 94.068601 148.697391 
L 93.007941 147.63673 
L 91.947281 148.697391 
L 90.886621 147.63673 
L 89.825961 148.697391 
L 90.886621 149.758051 
L 89.825961 150.818711 
z
" clip-path="url(#p4dd114744a)" style="fill: #88ccee; fill-opacity: 0.6; stroke: #ffffff; stroke-opacity: 0.6; stroke-width: 0.339411"/>
    <path d="M 179.071353 115.21711 
L 180.132013 114.156449 
L 181.192673 115.21711 
L 182.253333 114.156449 
L 181.192673 113.095789 
L 182.253333 112.035129 
L 181.192673 110.974469 
L 180.132013 112.035129 
L 179.071353 110.974469 
L 178.010693 112.035129 
L 179.071353 113.095789 
L 178.010693 114.156449 
z
" clip-path="url(#p4dd114744a)" style="fill: #88ccee; fill-opacity: 0.6; stroke: #ffffff; stroke-opacity: 0.6; stroke-width: 0.339411"/>
    <path d="M 147.253763 139.125471 
L 148.314423 138.064811 
L 149.375083 139.125471 
L 150.435743 138.064811 
L 149.375083 137.004151 
L 150.435743 135.94349 
L 149.375083 134.88283 
L 148.314423 135.94349 
L 147.253763 134.88283 
L 146.193102 135.94349 
L 147.253763 137.004151 
L 146.193102 138.064811 
z
" clip-path="url(#p4dd114744a)" style="fill: #88ccee; fill-opacity: 0.6; stroke: #ffffff; stroke-opacity: 0.6; stroke-width: 0.339411"/>
    <path d="M 129.561487 160.589244 
L 130.622147 159.528583 
L 131.682807 160.589244 
L 132.743467 159.528583 
L 131.682807 158.467923 
L 132.743467 157.407263 
L 131.682807 156.346603 
L 130.622147 157.407263 
L 129.561487 156.346603 
L 128.500827 157.407263 
L 129.561487 158.467923 
L 128.500827 159.528583 
z
" clip-path="url(#p4dd114744a)" style="fill: #88ccee; fill-opacity: 0.6; stroke: #ffffff; stroke-opacity: 0.6; stroke-width: 0.339411"/>
    <path d="M 129.312169 121.636372 
L 130.372829 120.575711 
L 131.433489 121.636372 
L 132.49415 120.575711 
L 131.433489 119.515051 
L 132.49415 118.454391 
L 131.433489 117.393731 
L 130.372829 118.454391 
L 129.312169 117.393731 
L 128.251509 118.454391 
L 129.312169 119.515051 
L 128.251509 120.575711 
z
" clip-path="url(#p4dd114744a)" style="fill: #88ccee; fill-opacity: 0.6; stroke: #ffffff; stroke-opacity: 0.6; stroke-width: 0.339411"/>
    <path d="M 104.006828 153.644494 
L 105.067488 152.583834 
L 106.128149 153.644494 
L 107.188809 152.583834 
L 106.128149 151.523174 
L 107.188809 150.462514 
L 106.128149 149.401854 
L 105.067488 150.462514 
L 104.006828 149.401854 
L 102.946168 150.462514 
L 104.006828 151.523174 
L 102.946168 152.583834 
z
" clip-path="url(#p4dd114744a)" style="fill: #88ccee; fill-opacity: 0.6; stroke: #ffffff; stroke-opacity: 0.6; stroke-width: 0.339411"/>
    <path d="M 144.828421 152.433467 
L 145.889081 151.372807 
L 146.949742 152.433467 
L 148.010402 151.372807 
L 146.949742 150.312147 
L 148.010402 149.251487 
L 146.949742 148.190826 
L 145.889081 149.251487 
L 144.828421 148.190826 
L 143.767761 149.251487 
L 144.828421 150.312147 
L 143.767761 151.372807 
z
" clip-path="url(#p4dd114744a)" style="fill: #88ccee; fill-opacity: 0.6; stroke: #ffffff; stroke-opacity: 0.6; stroke-width: 0.339411"/>
    <path d="M 91.667831 154.490352 
L 92.728491 153.429692 
L 93.789151 154.490352 
L 94.849811 153.429692 
L 93.789151 152.369032 
L 94.849811 151.308372 
L 93.789151 150.247712 
L 92.728491 151.308372 
L 91.667831 150.247712 
L 90.60717 151.308372 
L 91.667831 152.369032 
L 90.60717 153.429692 
z
" clip-path="url(#p4dd114744a)" style="fill: #88ccee; fill-opacity: 0.6; stroke: #ffffff; stroke-opacity: 0.6; stroke-width: 0.339411"/>
    <path d="M 119.681253 145.926556 
L 120.741913 144.865896 
L 121.802573 145.926556 
L 122.863233 144.865896 
L 121.802573 143.805236 
L 122.863233 142.744576 
L 121.802573 141.683915 
L 120.741913 142.744576 
L 119.681253 141.683915 
L 118.620593 142.744576 
L 119.681253 143.805236 
L 118.620593 144.865896 
z
" clip-path="url(#p4dd114744a)" style="fill: #88ccee; fill-opacity: 0.6; stroke: #ffffff; stroke-opacity: 0.6; stroke-width: 0.339411"/>
    <path d="M 138.113443 133.923314 
L 139.174103 132.862654 
L 140.234763 133.923314 
L 141.295424 132.862654 
L 140.234763 131.801994 
L 141.295424 130.741334 
L 140.234763 129.680674 
L 139.174103 130.741334 
L 138.113443 129.680674 
L 137.052783 130.741334 
L 138.113443 131.801994 
L 137.052783 132.862654 
z
" clip-path="url(#p4dd114744a)" style="fill: #88ccee; fill-opacity: 0.6; stroke: #ffffff; stroke-opacity: 0.6; stroke-width: 0.339411"/>
    <path d="M 107.777462 162.352533 
L 108.838122 161.291873 
L 109.898782 162.352533 
L 110.959443 161.291873 
L 109.898782 160.231213 
L 110.959443 159.170552 
L 109.898782 158.109892 
L 108.838122 159.170552 
L 107.777462 158.109892 
L 106.716802 159.170552 
L 107.777462 160.231213 
L 106.716802 161.291873 
z
" clip-path="url(#p4dd114744a)" style="fill: #88ccee; fill-opacity: 0.6; stroke: #ffffff; stroke-opacity: 0.6; stroke-width: 0.339411"/>
    <path d="M 110.697787 160.868878 
L 111.758447 159.808218 
L 112.819107 160.868878 
L 113.879767 159.808218 
L 112.819107 158.747558 
L 113.879767 157.686898 
L 112.819107 156.626237 
L 111.758447 157.686898 
L 110.697787 156.626237 
L 109.637127 157.686898 
L 110.697787 158.747558 
L 109.637127 159.808218 
z
" clip-path="url(#p4dd114744a)" style="fill: #88ccee; fill-opacity: 0.6; stroke: #ffffff; stroke-opacity: 0.6; stroke-width: 0.339411"/>
    <path d="M 92.08368 172.480777 
L 93.14434 171.420117 
L 94.205 172.480777 
L 95.265661 171.420117 
L 94.205 170.359457 
L 95.265661 169.298797 
L 94.205 168.238137 
L 93.14434 169.298797 
L 92.08368 168.238137 
L 91.02302 169.298797 
L 92.08368 170.359457 
L 91.02302 171.420117 
z
" clip-path="url(#p4dd114744a)" style="fill: #88ccee; fill-opacity: 0.6; stroke: #ffffff; stroke-opacity: 0.6; stroke-width: 0.339411"/>
    <path d="M 140.63788 127.643361 
L 141.69854 126.582701 
L 142.7592 127.643361 
L 143.81986 126.582701 
L 142.7592 125.522041 
L 143.81986 124.461381 
L 142.7592 123.40072 
L 141.69854 124.461381 
L 140.63788 123.40072 
L 139.577219 124.461381 
L 140.63788 125.522041 
L 139.577219 126.582701 
z
" clip-path="url(#p4dd114744a)" style="fill: #88ccee; fill-opacity: 0.6; stroke: #ffffff; stroke-opacity: 0.6; stroke-width: 0.339411"/>
    <path d="M 115.582465 115.967983 
L 116.643125 114.907323 
L 117.703785 115.967983 
L 118.764446 114.907323 
L 117.703785 113.846663 
L 118.764446 112.786003 
L 117.703785 111.725343 
L 116.643125 112.786003 
L 115.582465 111.725343 
L 114.521805 112.786003 
L 115.582465 113.846663 
L 114.521805 114.907323 
z
" clip-path="url(#p4dd114744a)" style="fill: #88ccee; fill-opacity: 0.6; stroke: #ffffff; stroke-opacity: 0.6; stroke-width: 0.339411"/>
    <path d="M 131.223133 163.067317 
L 132.283794 162.006657 
L 133.344454 163.067317 
L 134.405114 162.006657 
L 133.344454 160.945997 
L 134.405114 159.885337 
L 133.344454 158.824677 
L 132.283794 159.885337 
L 131.223133 158.824677 
L 130.162473 159.885337 
L 131.223133 160.945997 
L 130.162473 162.006657 
z
" clip-path="url(#p4dd114744a)" style="fill: #88ccee; fill-opacity: 0.6; stroke: #ffffff; stroke-opacity: 0.6; stroke-width: 0.339411"/>
    <path d="M 105.797386 166.33803 
L 106.858046 165.27737 
L 107.918706 166.33803 
L 108.979366 165.27737 
L 107.918706 164.21671 
L 108.979366 163.15605 
L 107.918706 162.095389 
L 106.858046 163.15605 
L 105.797386 162.095389 
L 104.736726 163.15605 
L 105.797386 164.21671 
L 104.736726 165.27737 
z
" clip-path="url(#p4dd114744a)" style="fill: #88ccee; fill-opacity: 0.6; stroke: #ffffff; stroke-opacity: 0.6; stroke-width: 0.339411"/>
    <path d="M 95.211428 159.761847 
L 96.272088 158.701187 
L 97.332749 159.761847 
L 98.393409 158.701187 
L 97.332749 157.640527 
L 98.393409 156.579867 
L 97.332749 155.519207 
L 96.272088 156.579867 
L 95.211428 155.519207 
L 94.150768 156.579867 
L 95.211428 157.640527 
L 94.150768 158.701187 
z
" clip-path="url(#p4dd114744a)" style="fill: #88ccee; fill-opacity: 0.6; stroke: #ffffff; stroke-opacity: 0.6; stroke-width: 0.339411"/>
    <path d="M 90.741218 116.794111 
L 91.801879 115.733451 
L 92.862539 116.794111 
L 93.923199 115.733451 
L 92.862539 114.672791 
L 93.923199 113.61213 
L 92.862539 112.55147 
L 91.801879 113.61213 
L 90.741218 112.55147 
L 89.680558 113.61213 
L 90.741218 114.672791 
L 89.680558 115.733451 
z
" clip-path="url(#p4dd114744a)" style="fill: #88ccee; fill-opacity: 0.6; stroke: #ffffff; stroke-opacity: 0.6; stroke-width: 0.339411"/>
    <path d="M 131.121884 128.172219 
L 132.182545 127.111559 
L 133.243205 128.172219 
L 134.303865 127.111559 
L 133.243205 126.050899 
L 134.303865 124.990238 
L 133.243205 123.929578 
L 132.182545 124.990238 
L 131.121884 123.929578 
L 130.061224 124.990238 
L 131.121884 126.050899 
L 130.061224 127.111559 
z
" clip-path="url(#p4dd114744a)" style="fill: #88ccee; fill-opacity: 0.6; stroke: #ffffff; stroke-opacity: 0.6; stroke-width: 0.339411"/>
    <path d="M 115.178176 138.2613 
L 116.238836 137.20064 
L 117.299496 138.2613 
L 118.360157 137.20064 
L 117.299496 136.13998 
L 118.360157 135.07932 
L 117.299496 134.01866 
L 116.238836 135.07932 
L 115.178176 134.01866 
L 114.117516 135.07932 
L 115.178176 136.13998 
L 114.117516 137.20064 
z
" clip-path="url(#p4dd114744a)" style="fill: #88ccee; fill-opacity: 0.6; stroke: #ffffff; stroke-opacity: 0.6; stroke-width: 0.339411"/>
    <path d="M 92.847008 160.675984 
L 93.907669 159.615324 
L 94.968329 160.675984 
L 96.028989 159.615324 
L 94.968329 158.554664 
L 96.028989 157.494004 
L 94.968329 156.433344 
L 93.907669 157.494004 
L 92.847008 156.433344 
L 91.786348 157.494004 
L 92.847008 158.554664 
L 91.786348 159.615324 
z
" clip-path="url(#p4dd114744a)" style="fill: #88ccee; fill-opacity: 0.6; stroke: #ffffff; stroke-opacity: 0.6; stroke-width: 0.339411"/>
    <path d="M 113.578423 155.252248 
L 114.639083 154.191587 
L 115.699743 155.252248 
L 116.760403 154.191587 
L 115.699743 153.130927 
L 116.760403 152.070267 
L 115.699743 151.009607 
L 114.639083 152.070267 
L 113.578423 151.009607 
L 112.517763 152.070267 
L 113.578423 153.130927 
L 112.517763 154.191587 
z
" clip-path="url(#p4dd114744a)" style="fill: #88ccee; fill-opacity: 0.6; stroke: #ffffff; stroke-opacity: 0.6; stroke-width: 0.339411"/>
    <path d="M 128.233743 147.126289 
L 129.294403 146.065629 
L 130.355063 147.126289 
L 131.415723 146.065629 
L 130.355063 145.004969 
L 131.415723 143.944309 
L 130.355063 142.883648 
L 129.294403 143.944309 
L 128.233743 142.883648 
L 127.173083 143.944309 
L 128.233743 145.004969 
L 127.173083 146.065629 
z
" clip-path="url(#p4dd114744a)" style="fill: #88ccee; fill-opacity: 0.6; stroke: #ffffff; stroke-opacity: 0.6; stroke-width: 0.339411"/>
    <path d="M 106.904248 161.417295 
L 107.964908 160.356635 
L 109.025568 161.417295 
L 110.086229 160.356635 
L 109.025568 159.295975 
L 110.086229 158.235315 
L 109.025568 157.174655 
L 107.964908 158.235315 
L 106.904248 157.174655 
L 105.843588 158.235315 
L 106.904248 159.295975 
L 105.843588 160.356635 
z
" clip-path="url(#p4dd114744a)" style="fill: #88ccee; fill-opacity: 0.6; stroke: #ffffff; stroke-opacity: 0.6; stroke-width: 0.339411"/>
    <path d="M 107.161538 161.330889 
L 108.222198 160.270228 
L 109.282858 161.330889 
L 110.343518 160.270228 
L 109.282858 159.209568 
L 110.343518 158.148908 
L 109.282858 157.088248 
L 108.222198 158.148908 
L 107.161538 157.088248 
L 106.100878 158.148908 
L 107.161538 159.209568 
L 106.100878 160.270228 
z
" clip-path="url(#p4dd114744a)" style="fill: #88ccee; fill-opacity: 0.6; stroke: #ffffff; stroke-opacity: 0.6; stroke-width: 0.339411"/>
    <path d="M 143.494372 158.706409 
L 144.555032 157.645749 
L 145.615692 158.706409 
L 146.676353 157.645749 
L 145.615692 156.585089 
L 146.676353 155.524429 
L 145.615692 154.463768 
L 144.555032 155.524429 
L 143.494372 154.463768 
L 142.433712 155.524429 
L 143.494372 156.585089 
L 142.433712 157.645749 
z
" clip-path="url(#p4dd114744a)" style="fill: #88ccee; fill-opacity: 0.6; stroke: #ffffff; stroke-opacity: 0.6; stroke-width: 0.339411"/>
    <path d="M 105.980239 161.596115 
L 107.040899 160.535454 
L 108.101559 161.596115 
L 109.162219 160.535454 
L 108.101559 159.474794 
L 109.162219 158.414134 
L 108.101559 157.353474 
L 107.040899 158.414134 
L 105.980239 157.353474 
L 104.919578 158.414134 
L 105.980239 159.474794 
L 104.919578 160.535454 
z
" clip-path="url(#p4dd114744a)" style="fill: #88ccee; fill-opacity: 0.6; stroke: #ffffff; stroke-opacity: 0.6; stroke-width: 0.339411"/>
    <path d="M 151.333767 150.706232 
L 152.394427 149.645571 
L 153.455087 150.706232 
L 154.515747 149.645571 
L 153.455087 148.584911 
L 154.515747 147.524251 
L 153.455087 146.463591 
L 152.394427 147.524251 
L 151.333767 146.463591 
L 150.273107 147.524251 
L 151.333767 148.584911 
L 150.273107 149.645571 
z
" clip-path="url(#p4dd114744a)" style="fill: #88ccee; fill-opacity: 0.6; stroke: #ffffff; stroke-opacity: 0.6; stroke-width: 0.339411"/>
    <path d="M 121.664167 158.409693 
L 122.724828 157.349033 
L 123.785488 158.409693 
L 124.846148 157.349033 
L 123.785488 156.288373 
L 124.846148 155.227713 
L 123.785488 154.167052 
L 122.724828 155.227713 
L 121.664167 154.167052 
L 120.603507 155.227713 
L 121.664167 156.288373 
L 120.603507 157.349033 
z
" clip-path="url(#p4dd114744a)" style="fill: #88ccee; fill-opacity: 0.6; stroke: #ffffff; stroke-opacity: 0.6; stroke-width: 0.339411"/>
    <path d="M 123.757298 147.483021 
L 124.817958 146.422361 
L 125.878618 147.483021 
L 126.939278 146.422361 
L 125.878618 145.361701 
L 126.939278 144.301041 
L 125.878618 143.24038 
L 124.817958 144.301041 
L 123.757298 143.24038 
L 122.696638 144.301041 
L 123.757298 145.361701 
L 122.696638 146.422361 
z
" clip-path="url(#p4dd114744a)" style="fill: #88ccee; fill-opacity: 0.6; stroke: #ffffff; stroke-opacity: 0.6; stroke-width: 0.339411"/>
    <path d="M 109.415274 110.324922 
L 110.475934 109.264262 
L 111.536595 110.324922 
L 112.597255 109.264262 
L 111.536595 108.203602 
L 112.597255 107.142941 
L 111.536595 106.082281 
L 110.475934 107.142941 
L 109.415274 106.082281 
L 108.354614 107.142941 
L 109.415274 108.203602 
L 108.354614 109.264262 
z
" clip-path="url(#p4dd114744a)" style="fill: #88ccee; fill-opacity: 0.6; stroke: #ffffff; stroke-opacity: 0.6; stroke-width: 0.339411"/>
   </g>
   <g id="matplotlib.axis_1">
    <g id="xtick_1">
     <g id="line2d_1">
      <defs>
       <path id="m4d891305a9" d="M 0 0 
L 0 8 
" style="stroke: #000000"/>
      </defs>
      <g>
       <use xlink:href="#m4d891305a9" x="89.62438" y="182.532285" style="stroke: #000000"/>
      </g>
     </g>
     <g id="text_1">
      <!-- 10 -->
      <g transform="translate(76.961568 203.15041) scale(0.12 -0.12)">
       <defs>
        <path id="DejaVuSans-2212" d="M 678 2272 
L 4684 2272 
L 4684 1741 
L 678 1741 
L 678 2272 
z
" transform="scale(0.015625)"/>
        <path id="DejaVuSans-31" d="M 794 531 
L 1825 531 
L 1825 4091 
L 703 3866 
L 703 4441 
L 1819 4666 
L 2450 4666 
L 2450 531 
L 3481 531 
L 3481 0 
L 794 0 
L 794 531 
z
" transform="scale(0.015625)"/>
        <path id="DejaVuSans-30" d="M 2034 4250 
Q 1547 4250 1301 3770 
Q 1056 3291 1056 2328 
Q 1056 1369 1301 889 
Q 1547 409 2034 409 
Q 2525 409 2770 889 
Q 3016 1369 3016 2328 
Q 3016 3291 2770 3770 
Q 2525 4250 2034 4250 
z
M 2034 4750 
Q 2819 4750 3233 4129 
Q 3647 3509 3647 2328 
Q 3647 1150 3233 529 
Q 2819 -91 2034 -91 
Q 1250 -91 836 529 
Q 422 1150 422 2328 
Q 422 3509 836 4129 
Q 1250 4750 2034 4750 
z
" transform="scale(0.015625)"/>
       </defs>
       <use xlink:href="#DejaVuSans-2212"/>
       <use xlink:href="#DejaVuSans-31" x="83.789062"/>
       <use xlink:href="#DejaVuSans-30" x="147.412109"/>
      </g>
     </g>
    </g>
    <g id="xtick_2">
     <g id="line2d_2">
      <g>
       <use xlink:href="#m4d891305a9" x="133.584008" y="182.532285" style="stroke: #000000"/>
      </g>
     </g>
     <g id="text_2">
      <!-- 0 -->
      <g transform="translate(129.766508 203.15041) scale(0.12 -0.12)">
       <use xlink:href="#DejaVuSans-30"/>
      </g>
     </g>
    </g>
    <g id="xtick_3">
     <g id="line2d_3">
      <g>
       <use xlink:href="#m4d891305a9" x="177.543635" y="182.532285" style="stroke: #000000"/>
      </g>
     </g>
     <g id="text_3">
      <!-- 10 -->
      <g transform="translate(169.908635 203.15041) scale(0.12 -0.12)">
       <use xlink:href="#DejaVuSans-31"/>
       <use xlink:href="#DejaVuSans-30" x="63.623047"/>
      </g>
     </g>
    </g>
    <g id="xtick_4">
     <g id="line2d_4">
      <g>
       <use xlink:href="#m4d891305a9" x="221.503262" y="182.532285" style="stroke: #000000"/>
      </g>
     </g>
     <g id="text_4">
      <!-- 20 -->
      <g transform="translate(213.868262 203.15041) scale(0.12 -0.12)">
       <defs>
        <path id="DejaVuSans-32" d="M 1228 531 
L 3431 531 
L 3431 0 
L 469 0 
L 469 531 
Q 828 903 1448 1529 
Q 2069 2156 2228 2338 
Q 2531 2678 2651 2914 
Q 2772 3150 2772 3378 
Q 2772 3750 2511 3984 
Q 2250 4219 1831 4219 
Q 1534 4219 1204 4116 
Q 875 4013 500 3803 
L 500 4441 
Q 881 4594 1212 4672 
Q 1544 4750 1819 4750 
Q 2544 4750 2975 4387 
Q 3406 4025 3406 3419 
Q 3406 3131 3298 2873 
Q 3191 2616 2906 2266 
Q 2828 2175 2409 1742 
Q 1991 1309 1228 531 
z
" transform="scale(0.015625)"/>
       </defs>
       <use xlink:href="#DejaVuSans-32"/>
       <use xlink:href="#DejaVuSans-30" x="63.623047"/>
      </g>
     </g>
    </g>
    <g id="text_5">
     <!-- PC 1 (16.18%) -->
     <g transform="translate(101.649045 218.76416) scale(0.12 -0.12)">
      <defs>
       <path id="DejaVuSans-50" d="M 1259 4147 
L 1259 2394 
L 2053 2394 
Q 2494 2394 2734 2622 
Q 2975 2850 2975 3272 
Q 2975 3691 2734 3919 
Q 2494 4147 2053 4147 
L 1259 4147 
z
M 628 4666 
L 2053 4666 
Q 2838 4666 3239 4311 
Q 3641 3956 3641 3272 
Q 3641 2581 3239 2228 
Q 2838 1875 2053 1875 
L 1259 1875 
L 1259 0 
L 628 0 
L 628 4666 
z
" transform="scale(0.015625)"/>
       <path id="DejaVuSans-43" d="M 4122 4306 
L 4122 3641 
Q 3803 3938 3442 4084 
Q 3081 4231 2675 4231 
Q 1875 4231 1450 3742 
Q 1025 3253 1025 2328 
Q 1025 1406 1450 917 
Q 1875 428 2675 428 
Q 3081 428 3442 575 
Q 3803 722 4122 1019 
L 4122 359 
Q 3791 134 3420 21 
Q 3050 -91 2638 -91 
Q 1578 -91 968 557 
Q 359 1206 359 2328 
Q 359 3453 968 4101 
Q 1578 4750 2638 4750 
Q 3056 4750 3426 4639 
Q 3797 4528 4122 4306 
z
" transform="scale(0.015625)"/>
       <path id="DejaVuSans-20" transform="scale(0.015625)"/>
       <path id="DejaVuSans-28" d="M 1984 4856 
Q 1566 4138 1362 3434 
Q 1159 2731 1159 2009 
Q 1159 1288 1364 580 
Q 1569 -128 1984 -844 
L 1484 -844 
Q 1016 -109 783 600 
Q 550 1309 550 2009 
Q 550 2706 781 3412 
Q 1013 4119 1484 4856 
L 1984 4856 
z
" transform="scale(0.015625)"/>
       <path id="DejaVuSans-36" d="M 2113 2584 
Q 1688 2584 1439 2293 
Q 1191 2003 1191 1497 
Q 1191 994 1439 701 
Q 1688 409 2113 409 
Q 2538 409 2786 701 
Q 3034 994 3034 1497 
Q 3034 2003 2786 2293 
Q 2538 2584 2113 2584 
z
M 3366 4563 
L 3366 3988 
Q 3128 4100 2886 4159 
Q 2644 4219 2406 4219 
Q 1781 4219 1451 3797 
Q 1122 3375 1075 2522 
Q 1259 2794 1537 2939 
Q 1816 3084 2150 3084 
Q 2853 3084 3261 2657 
Q 3669 2231 3669 1497 
Q 3669 778 3244 343 
Q 2819 -91 2113 -91 
Q 1303 -91 875 529 
Q 447 1150 447 2328 
Q 447 3434 972 4092 
Q 1497 4750 2381 4750 
Q 2619 4750 2861 4703 
Q 3103 4656 3366 4563 
z
" transform="scale(0.015625)"/>
       <path id="DejaVuSans-2e" d="M 684 794 
L 1344 794 
L 1344 0 
L 684 0 
L 684 794 
z
" transform="scale(0.015625)"/>
       <path id="DejaVuSans-38" d="M 2034 2216 
Q 1584 2216 1326 1975 
Q 1069 1734 1069 1313 
Q 1069 891 1326 650 
Q 1584 409 2034 409 
Q 2484 409 2743 651 
Q 3003 894 3003 1313 
Q 3003 1734 2745 1975 
Q 2488 2216 2034 2216 
z
M 1403 2484 
Q 997 2584 770 2862 
Q 544 3141 544 3541 
Q 544 4100 942 4425 
Q 1341 4750 2034 4750 
Q 2731 4750 3128 4425 
Q 3525 4100 3525 3541 
Q 3525 3141 3298 2862 
Q 3072 2584 2669 2484 
Q 3125 2378 3379 2068 
Q 3634 1759 3634 1313 
Q 3634 634 3220 271 
Q 2806 -91 2034 -91 
Q 1263 -91 848 271 
Q 434 634 434 1313 
Q 434 1759 690 2068 
Q 947 2378 1403 2484 
z
M 1172 3481 
Q 1172 3119 1398 2916 
Q 1625 2713 2034 2713 
Q 2441 2713 2670 2916 
Q 2900 3119 2900 3481 
Q 2900 3844 2670 4047 
Q 2441 4250 2034 4250 
Q 1625 4250 1398 4047 
Q 1172 3844 1172 3481 
z
" transform="scale(0.015625)"/>
       <path id="DejaVuSans-25" d="M 4653 2053 
Q 4381 2053 4226 1822 
Q 4072 1591 4072 1178 
Q 4072 772 4226 539 
Q 4381 306 4653 306 
Q 4919 306 5073 539 
Q 5228 772 5228 1178 
Q 5228 1588 5073 1820 
Q 4919 2053 4653 2053 
z
M 4653 2450 
Q 5147 2450 5437 2106 
Q 5728 1763 5728 1178 
Q 5728 594 5436 251 
Q 5144 -91 4653 -91 
Q 4153 -91 3862 251 
Q 3572 594 3572 1178 
Q 3572 1766 3864 2108 
Q 4156 2450 4653 2450 
z
M 1428 4353 
Q 1159 4353 1004 4120 
Q 850 3888 850 3481 
Q 850 3069 1003 2837 
Q 1156 2606 1428 2606 
Q 1700 2606 1854 2837 
Q 2009 3069 2009 3481 
Q 2009 3884 1853 4118 
Q 1697 4353 1428 4353 
z
M 4250 4750 
L 4750 4750 
L 1831 -91 
L 1331 -91 
L 4250 4750 
z
M 1428 4750 
Q 1922 4750 2215 4408 
Q 2509 4066 2509 3481 
Q 2509 2891 2217 2550 
Q 1925 2209 1428 2209 
Q 931 2209 642 2551 
Q 353 2894 353 3481 
Q 353 4063 643 4406 
Q 934 4750 1428 4750 
z
" transform="scale(0.015625)"/>
       <path id="DejaVuSans-29" d="M 513 4856 
L 1013 4856 
Q 1481 4119 1714 3412 
Q 1947 2706 1947 2009 
Q 1947 1309 1714 600 
Q 1481 -109 1013 -844 
L 513 -844 
Q 928 -128 1133 580 
Q 1338 1288 1338 2009 
Q 1338 2731 1133 3434 
Q 928 4138 513 4856 
z
" transform="scale(0.015625)"/>
      </defs>
      <use xlink:href="#DejaVuSans-50"/>
      <use xlink:href="#DejaVuSans-43" x="60.302734"/>
      <use xlink:href="#DejaVuSans-20" x="130.126953"/>
      <use xlink:href="#DejaVuSans-31" x="161.914062"/>
      <use xlink:href="#DejaVuSans-20" x="225.537109"/>
      <use xlink:href="#DejaVuSans-28" x="257.324219"/>
      <use xlink:href="#DejaVuSans-31" x="296.337891"/>
      <use xlink:href="#DejaVuSans-36" x="359.960938"/>
      <use xlink:href="#DejaVuSans-2e" x="423.583984"/>
      <use xlink:href="#DejaVuSans-31" x="455.371094"/>
      <use xlink:href="#DejaVuSans-38" x="518.994141"/>
      <use xlink:href="#DejaVuSans-25" x="582.617188"/>
      <use xlink:href="#DejaVuSans-29" x="677.636719"/>
     </g>
    </g>
   </g>
   <g id="matplotlib.axis_2">
    <g id="ytick_1">
     <g id="line2d_5">
      <defs>
       <path id="m98c99c9c43" d="M 0 0 
L -8 0 
" style="stroke: #000000"/>
      </defs>
      <g>
       <use xlink:href="#m98c99c9c43" x="64.037638" y="156.945543" style="stroke: #000000"/>
      </g>
     </g>
     <g id="text_6">
      <!-- 10 -->
      <g transform="translate(27.212013 161.504605) scale(0.12 -0.12)">
       <use xlink:href="#DejaVuSans-2212"/>
       <use xlink:href="#DejaVuSans-31" x="83.789062"/>
       <use xlink:href="#DejaVuSans-30" x="147.412109"/>
      </g>
     </g>
    </g>
    <g id="ytick_2">
     <g id="line2d_6">
      <g>
       <use xlink:href="#m98c99c9c43" x="64.037638" y="112.985915" style="stroke: #000000"/>
      </g>
     </g>
     <g id="text_7">
      <!-- 0 -->
      <g transform="translate(44.902638 117.544978) scale(0.12 -0.12)">
       <use xlink:href="#DejaVuSans-30"/>
      </g>
     </g>
    </g>
    <g id="ytick_3">
     <g id="line2d_7">
      <g>
       <use xlink:href="#m98c99c9c43" x="64.037638" y="69.026288" style="stroke: #000000"/>
      </g>
     </g>
     <g id="text_8">
      <!-- 10 -->
      <g transform="translate(37.267638 73.58535) scale(0.12 -0.12)">
       <use xlink:href="#DejaVuSans-31"/>
       <use xlink:href="#DejaVuSans-30" x="63.623047"/>
      </g>
     </g>
    </g>
    <g id="ytick_4">
     <g id="line2d_8">
      <g>
       <use xlink:href="#m98c99c9c43" x="64.037638" y="25.066661" style="stroke: #000000"/>
      </g>
     </g>
     <g id="text_9">
      <!-- 20 -->
      <g transform="translate(37.267638 29.625723) scale(0.12 -0.12)">
       <use xlink:href="#DejaVuSans-32"/>
       <use xlink:href="#DejaVuSans-30" x="63.623047"/>
      </g>
     </g>
    </g>
    <g id="text_10">
     <!-- PC 2 (9.13%) -->
     <g transform="translate(20.716388 141.103378) rotate(-90) scale(0.12 -0.12)">
      <defs>
       <path id="DejaVuSans-39" d="M 703 97 
L 703 672 
Q 941 559 1184 500 
Q 1428 441 1663 441 
Q 2288 441 2617 861 
Q 2947 1281 2994 2138 
Q 2813 1869 2534 1725 
Q 2256 1581 1919 1581 
Q 1219 1581 811 2004 
Q 403 2428 403 3163 
Q 403 3881 828 4315 
Q 1253 4750 1959 4750 
Q 2769 4750 3195 4129 
Q 3622 3509 3622 2328 
Q 3622 1225 3098 567 
Q 2575 -91 1691 -91 
Q 1453 -91 1209 -44 
Q 966 3 703 97 
z
M 1959 2075 
Q 2384 2075 2632 2365 
Q 2881 2656 2881 3163 
Q 2881 3666 2632 3958 
Q 2384 4250 1959 4250 
Q 1534 4250 1286 3958 
Q 1038 3666 1038 3163 
Q 1038 2656 1286 2365 
Q 1534 2075 1959 2075 
z
" transform="scale(0.015625)"/>
       <path id="DejaVuSans-33" d="M 2597 2516 
Q 3050 2419 3304 2112 
Q 3559 1806 3559 1356 
Q 3559 666 3084 287 
Q 2609 -91 1734 -91 
Q 1441 -91 1130 -33 
Q 819 25 488 141 
L 488 750 
Q 750 597 1062 519 
Q 1375 441 1716 441 
Q 2309 441 2620 675 
Q 2931 909 2931 1356 
Q 2931 1769 2642 2001 
Q 2353 2234 1838 2234 
L 1294 2234 
L 1294 2753 
L 1863 2753 
Q 2328 2753 2575 2939 
Q 2822 3125 2822 3475 
Q 2822 3834 2567 4026 
Q 2313 4219 1838 4219 
Q 1578 4219 1281 4162 
Q 984 4106 628 3988 
L 628 4550 
Q 988 4650 1302 4700 
Q 1616 4750 1894 4750 
Q 2613 4750 3031 4423 
Q 3450 4097 3450 3541 
Q 3450 3153 3228 2886 
Q 3006 2619 2597 2516 
z
" transform="scale(0.015625)"/>
      </defs>
      <use xlink:href="#DejaVuSans-50"/>
      <use xlink:href="#DejaVuSans-43" x="60.302734"/>
      <use xlink:href="#DejaVuSans-20" x="130.126953"/>
      <use xlink:href="#DejaVuSans-32" x="161.914062"/>
      <use xlink:href="#DejaVuSans-20" x="225.537109"/>
      <use xlink:href="#DejaVuSans-28" x="257.324219"/>
      <use xlink:href="#DejaVuSans-39" x="296.337891"/>
      <use xlink:href="#DejaVuSans-2e" x="359.960938"/>
      <use xlink:href="#DejaVuSans-31" x="391.748047"/>
      <use xlink:href="#DejaVuSans-33" x="455.371094"/>
      <use xlink:href="#DejaVuSans-25" x="518.994141"/>
      <use xlink:href="#DejaVuSans-29" x="614.013672"/>
     </g>
    </g>
   </g>
   <g id="patch_3">
    <path d="M 64.037638 182.532285 
L 64.037638 21.312597 
" style="fill: none; stroke: #000000; stroke-width: 2; stroke-linejoin: miter; stroke-linecap: square"/>
   </g>
   <g id="patch_4">
    <path d="M 64.037638 182.532285 
L 225.257326 182.532285 
" style="fill: none; stroke: #000000; stroke-width: 2; stroke-linejoin: miter; stroke-linecap: square"/>
   </g>
  </g>
 </g>
 <defs>
  <clipPath id="p4dd114744a">
   <rect x="64.037638" y="21.312597" width="161.219689" height="161.219689"/>
  </clipPath>
 </defs>
</svg>
