<?xml version="1.0" encoding="utf-8" standalone="no"?>
<!DOCTYPE svg PUBLIC "-//W3C//DTD SVG 1.1//EN"
  "http://www.w3.org/Graphics/SVG/1.1/DTD/svg11.dtd">
<svg xmlns:xlink="http://www.w3.org/1999/xlink" width="240.944882pt" height="240.944882pt" viewBox="0 0 240.944882 240.944882" xmlns="http://www.w3.org/2000/svg" version="1.1">
 <metadata>
  <rdf:RDF xmlns:dc="http://purl.org/dc/elements/1.1/" xmlns:cc="http://creativecommons.org/ns#" xmlns:rdf="http://www.w3.org/1999/02/22-rdf-syntax-ns#">
   <cc:Work>
    <dc:type rdf:resource="http://purl.org/dc/dcmitype/StillImage"/>
    <dc:date>2025-02-19T15:03:57.285203</dc:date>
    <dc:format>image/svg+xml</dc:format>
    <dc:creator>
     <cc:Agent>
      <dc:title>Matplotlib v3.6.2, https://matplotlib.org/</dc:title>
     </cc:Agent>
    </dc:creator>
   </cc:Work>
  </rdf:RDF>
 </metadata>
 <defs>
  <style type="text/css">*{stroke-linejoin: round; stroke-linecap: butt}</style>
 </defs>
 <g id="figure_1">
  <g id="patch_1">
   <path d="M 0 240.944882 
L 240.944882 240.944882 
L 240.944882 0 
L 0 0 
L 0 240.944882 
z
" style="fill: none"/>
  </g>
  <g id="axes_1">
   <g id="patch_2">
    <path d="M 64.037638 183.896063 
L 227.984882 183.896063 
L 227.984882 19.948819 
L 64.037638 19.948819 
L 64.037638 183.896063 
z
" style="fill: none"/>
   </g>
   <g id="PathCollection_1">
    <path d="M 133.752294 40.001273 
L 135.552294 37.001273 
L 133.752294 34.001273 
L 131.952294 37.001273 
z
" clip-path="url(#p6c9655f3ec)" style="fill: #332288; fill-opacity: 0.6; stroke: #ffffff; stroke-opacity: 0.6; stroke-width: 0.339411"/>
    <path d="M 187.219349 109.528905 
L 189.019349 106.528905 
L 187.219349 103.528905 
L 185.419349 106.528905 
z
" clip-path="url(#p6c9655f3ec)" style="fill: #332288; fill-opacity: 0.6; stroke: #ffffff; stroke-opacity: 0.6; stroke-width: 0.339411"/>
    <path d="M 130.641867 114.558718 
L 132.441867 111.558718 
L 130.641867 108.558718 
L 128.841867 111.558718 
z
" clip-path="url(#p6c9655f3ec)" style="fill: #332288; fill-opacity: 0.6; stroke: #ffffff; stroke-opacity: 0.6; stroke-width: 0.339411"/>
    <path d="M 129.017533 50.659655 
L 130.817533 47.659655 
L 129.017533 44.659655 
L 127.217533 47.659655 
z
" clip-path="url(#p6c9655f3ec)" style="fill: #332288; fill-opacity: 0.6; stroke: #ffffff; stroke-opacity: 0.6; stroke-width: 0.339411"/>
    <path d="M 211.165731 95.366145 
L 212.965731 92.366145 
L 211.165731 89.366145 
L 209.365731 92.366145 
z
" clip-path="url(#p6c9655f3ec)" style="fill: #332288; fill-opacity: 0.6; stroke: #ffffff; stroke-opacity: 0.6; stroke-width: 0.339411"/>
    <path d="M 118.228286 58.734509 
L 120.028286 55.734509 
L 118.228286 52.734509 
L 116.428286 55.734509 
z
" clip-path="url(#p6c9655f3ec)" style="fill: #332288; fill-opacity: 0.6; stroke: #ffffff; stroke-opacity: 0.6; stroke-width: 0.339411"/>
    <path d="M 129.168058 113.028251 
L 130.968058 110.028251 
L 129.168058 107.028251 
L 127.368058 110.028251 
z
" clip-path="url(#p6c9655f3ec)" style="fill: #332288; fill-opacity: 0.6; stroke: #ffffff; stroke-opacity: 0.6; stroke-width: 0.339411"/>
    <path d="M 117.205619 50.730121 
L 119.005619 47.730121 
L 117.205619 44.730121 
L 115.405619 47.730121 
z
" clip-path="url(#p6c9655f3ec)" style="fill: #332288; fill-opacity: 0.6; stroke: #ffffff; stroke-opacity: 0.6; stroke-width: 0.339411"/>
    <path d="M 129.900979 117.551031 
L 131.700979 114.551031 
L 129.900979 111.551031 
L 128.100979 114.551031 
z
" clip-path="url(#p6c9655f3ec)" style="fill: #332288; fill-opacity: 0.6; stroke: #ffffff; stroke-opacity: 0.6; stroke-width: 0.339411"/>
    <path d="M 207.536073 91.062854 
L 209.336073 88.062854 
L 207.536073 85.062854 
L 205.736073 88.062854 
z
" clip-path="url(#p6c9655f3ec)" style="fill: #332288; fill-opacity: 0.6; stroke: #ffffff; stroke-opacity: 0.6; stroke-width: 0.339411"/>
    <path d="M 213.932922 116.440585 
L 215.732922 113.440585 
L 213.932922 110.440585 
L 212.132922 113.440585 
z
" clip-path="url(#p6c9655f3ec)" style="fill: #332288; fill-opacity: 0.6; stroke: #ffffff; stroke-opacity: 0.6; stroke-width: 0.339411"/>
    <path d="M 187.3151 114.238927 
L 189.1151 111.238927 
L 187.3151 108.238927 
L 185.5151 111.238927 
z
" clip-path="url(#p6c9655f3ec)" style="fill: #332288; fill-opacity: 0.6; stroke: #ffffff; stroke-opacity: 0.6; stroke-width: 0.339411"/>
    <path d="M 207.536073 91.062854 
L 209.336073 88.062854 
L 207.536073 85.062854 
L 205.736073 88.062854 
z
" clip-path="url(#p6c9655f3ec)" style="fill: #332288; fill-opacity: 0.6; stroke: #ffffff; stroke-opacity: 0.6; stroke-width: 0.339411"/>
    <path d="M 156.250734 74.699123 
L 158.050734 71.699123 
L 156.250734 68.699123 
L 154.450734 71.699123 
z
" clip-path="url(#p6c9655f3ec)" style="fill: #332288; fill-opacity: 0.6; stroke: #ffffff; stroke-opacity: 0.6; stroke-width: 0.339411"/>
    <path d="M 215.843022 124.192681 
L 217.643022 121.192681 
L 215.843022 118.192681 
L 214.043022 121.192681 
z
" clip-path="url(#p6c9655f3ec)" style="fill: #332288; fill-opacity: 0.6; stroke: #ffffff; stroke-opacity: 0.6; stroke-width: 0.339411"/>
    <path d="M 134.340155 38.071577 
L 136.140155 35.071577 
L 134.340155 32.071577 
L 132.540155 35.071577 
z
" clip-path="url(#p6c9655f3ec)" style="fill: #332288; fill-opacity: 0.6; stroke: #ffffff; stroke-opacity: 0.6; stroke-width: 0.339411"/>
    <path d="M 155.187008 79.9057 
L 156.987008 76.9057 
L 155.187008 73.9057 
L 153.387008 76.9057 
z
" clip-path="url(#p6c9655f3ec)" style="fill: #332288; fill-opacity: 0.6; stroke: #ffffff; stroke-opacity: 0.6; stroke-width: 0.339411"/>
    <path d="M 213.122352 123.396337 
L 214.922352 120.396337 
L 213.122352 117.396337 
L 211.322352 120.396337 
z
" clip-path="url(#p6c9655f3ec)" style="fill: #332288; fill-opacity: 0.6; stroke: #ffffff; stroke-opacity: 0.6; stroke-width: 0.339411"/>
    <path d="M 173.697539 93.648028 
L 175.497539 90.648028 
L 173.697539 87.648028 
L 171.897539 90.648028 
z
" clip-path="url(#p6c9655f3ec)" style="fill: #332288; fill-opacity: 0.6; stroke: #ffffff; stroke-opacity: 0.6; stroke-width: 0.339411"/>
    <path d="M 211.102119 100.516983 
L 212.902119 97.516983 
L 211.102119 94.516983 
L 209.302119 97.516983 
z
" clip-path="url(#p6c9655f3ec)" style="fill: #332288; fill-opacity: 0.6; stroke: #ffffff; stroke-opacity: 0.6; stroke-width: 0.339411"/>
    <path d="M 211.764198 98.99733 
L 213.564198 95.99733 
L 211.764198 92.99733 
L 209.964198 95.99733 
z
" clip-path="url(#p6c9655f3ec)" style="fill: #332288; fill-opacity: 0.6; stroke: #ffffff; stroke-opacity: 0.6; stroke-width: 0.339411"/>
    <path d="M 203.355437 129.618819 
L 205.155437 126.618819 
L 203.355437 123.618819 
L 201.555437 126.618819 
z
" clip-path="url(#p6c9655f3ec)" style="fill: #332288; fill-opacity: 0.6; stroke: #ffffff; stroke-opacity: 0.6; stroke-width: 0.339411"/>
    <path d="M 137.194434 51.697168 
L 138.994434 48.697168 
L 137.194434 45.697168 
L 135.394434 48.697168 
z
" clip-path="url(#p6c9655f3ec)" style="fill: #332288; fill-opacity: 0.6; stroke: #ffffff; stroke-opacity: 0.6; stroke-width: 0.339411"/>
    <path d="M 115.447977 53.315431 
L 117.247977 50.315431 
L 115.447977 47.315431 
L 113.647977 50.315431 
z
" clip-path="url(#p6c9655f3ec)" style="fill: #332288; fill-opacity: 0.6; stroke: #ffffff; stroke-opacity: 0.6; stroke-width: 0.339411"/>
    <path d="M 122.953207 61.074093 
L 124.753207 58.074093 
L 122.953207 55.074093 
L 121.153207 58.074093 
z
" clip-path="url(#p6c9655f3ec)" style="fill: #332288; fill-opacity: 0.6; stroke: #ffffff; stroke-opacity: 0.6; stroke-width: 0.339411"/>
    <path d="M 146.731627 39.196423 
L 148.531627 36.196423 
L 146.731627 33.196423 
L 144.931627 36.196423 
z
" clip-path="url(#p6c9655f3ec)" style="fill: #332288; fill-opacity: 0.6; stroke: #ffffff; stroke-opacity: 0.6; stroke-width: 0.339411"/>
    <path d="M 137.194434 51.697168 
L 138.994434 48.697168 
L 137.194434 45.697168 
L 135.394434 48.697168 
z
" clip-path="url(#p6c9655f3ec)" style="fill: #332288; fill-opacity: 0.6; stroke: #ffffff; stroke-opacity: 0.6; stroke-width: 0.339411"/>
    <path d="M 128.14924 80.365068 
L 129.94924 77.365068 
L 128.14924 74.365068 
L 126.34924 77.365068 
z
" clip-path="url(#p6c9655f3ec)" style="fill: #332288; fill-opacity: 0.6; stroke: #ffffff; stroke-opacity: 0.6; stroke-width: 0.339411"/>
    <path d="M 86.375502 97.430129 
L 88.175502 94.430129 
L 86.375502 91.430129 
L 84.575502 94.430129 
z
" clip-path="url(#p6c9655f3ec)" style="fill: #332288; fill-opacity: 0.6; stroke: #ffffff; stroke-opacity: 0.6; stroke-width: 0.339411"/>
    <path d="M 134.203766 50.495488 
L 136.003766 47.495488 
L 134.203766 44.495488 
L 132.403766 47.495488 
z
" clip-path="url(#p6c9655f3ec)" style="fill: #332288; fill-opacity: 0.6; stroke: #ffffff; stroke-opacity: 0.6; stroke-width: 0.339411"/>
    <path d="M 131.009572 112.087836 
L 132.809572 109.087836 
L 131.009572 106.087836 
L 129.209572 109.087836 
z
" clip-path="url(#p6c9655f3ec)" style="fill: #332288; fill-opacity: 0.6; stroke: #ffffff; stroke-opacity: 0.6; stroke-width: 0.339411"/>
    <path d="M 190.839248 121.454456 
L 192.639248 118.454456 
L 190.839248 115.454456 
L 189.039248 118.454456 
z
" clip-path="url(#p6c9655f3ec)" style="fill: #332288; fill-opacity: 0.6; stroke: #ffffff; stroke-opacity: 0.6; stroke-width: 0.339411"/>
    <path d="M 205.968644 127.660232 
L 207.768644 124.660232 
L 205.968644 121.660232 
L 204.168644 124.660232 
z
" clip-path="url(#p6c9655f3ec)" style="fill: #332288; fill-opacity: 0.6; stroke: #ffffff; stroke-opacity: 0.6; stroke-width: 0.339411"/>
    <path d="M 212.640482 105.239756 
L 214.440482 102.239756 
L 212.640482 99.239756 
L 210.840482 102.239756 
z
" clip-path="url(#p6c9655f3ec)" style="fill: #332288; fill-opacity: 0.6; stroke: #ffffff; stroke-opacity: 0.6; stroke-width: 0.339411"/>
    <path d="M 152.91206 79.30667 
L 154.71206 76.30667 
L 152.91206 73.30667 
L 151.11206 76.30667 
z
" clip-path="url(#p6c9655f3ec)" style="fill: #332288; fill-opacity: 0.6; stroke: #ffffff; stroke-opacity: 0.6; stroke-width: 0.339411"/>
    <path d="M 132.474322 43.509474 
L 134.274322 40.509474 
L 132.474322 37.509474 
L 130.674322 40.509474 
z
" clip-path="url(#p6c9655f3ec)" style="fill: #332288; fill-opacity: 0.6; stroke: #ffffff; stroke-opacity: 0.6; stroke-width: 0.339411"/>
    <path d="M 136.994004 36.525305 
L 138.794004 33.525305 
L 136.994004 30.525305 
L 135.194004 33.525305 
z
" clip-path="url(#p6c9655f3ec)" style="fill: #332288; fill-opacity: 0.6; stroke: #ffffff; stroke-opacity: 0.6; stroke-width: 0.339411"/>
    <path d="M 212.626771 105.650123 
L 214.426771 102.650123 
L 212.626771 99.650123 
L 210.826771 102.650123 
z
" clip-path="url(#p6c9655f3ec)" style="fill: #332288; fill-opacity: 0.6; stroke: #ffffff; stroke-opacity: 0.6; stroke-width: 0.339411"/>
    <path d="M 124.046088 51.271098 
L 125.846088 48.271098 
L 124.046088 45.271098 
L 122.246088 48.271098 
z
" clip-path="url(#p6c9655f3ec)" style="fill: #332288; fill-opacity: 0.6; stroke: #ffffff; stroke-opacity: 0.6; stroke-width: 0.339411"/>
    <path d="M 207.345813 125.757927 
L 209.145813 122.757927 
L 207.345813 119.757927 
L 205.545813 122.757927 
z
" clip-path="url(#p6c9655f3ec)" style="fill: #332288; fill-opacity: 0.6; stroke: #ffffff; stroke-opacity: 0.6; stroke-width: 0.339411"/>
    <path d="M 211.165731 95.366145 
L 212.965731 92.366145 
L 211.165731 89.366145 
L 209.365731 92.366145 
z
" clip-path="url(#p6c9655f3ec)" style="fill: #332288; fill-opacity: 0.6; stroke: #ffffff; stroke-opacity: 0.6; stroke-width: 0.339411"/>
    <path d="M 210.819584 99.362009 
L 212.619584 96.362009 
L 210.819584 93.362009 
L 209.019584 96.362009 
z
" clip-path="url(#p6c9655f3ec)" style="fill: #332288; fill-opacity: 0.6; stroke: #ffffff; stroke-opacity: 0.6; stroke-width: 0.339411"/>
    <path d="M 135.920488 45.218911 
L 137.720488 42.218911 
L 135.920488 39.218911 
L 134.120488 42.218911 
z
" clip-path="url(#p6c9655f3ec)" style="fill: #332288; fill-opacity: 0.6; stroke: #ffffff; stroke-opacity: 0.6; stroke-width: 0.339411"/>
    <path d="M 131.009572 112.087836 
L 132.809572 109.087836 
L 131.009572 106.087836 
L 129.209572 109.087836 
z
" clip-path="url(#p6c9655f3ec)" style="fill: #332288; fill-opacity: 0.6; stroke: #ffffff; stroke-opacity: 0.6; stroke-width: 0.339411"/>
    <path d="M 130.774536 112.72568 
L 132.574536 109.72568 
L 130.774536 106.72568 
L 128.974536 109.72568 
z
" clip-path="url(#p6c9655f3ec)" style="fill: #332288; fill-opacity: 0.6; stroke: #ffffff; stroke-opacity: 0.6; stroke-width: 0.339411"/>
    <path d="M 135.469559 41.310231 
L 137.269559 38.310231 
L 135.469559 35.310231 
L 133.669559 38.310231 
z
" clip-path="url(#p6c9655f3ec)" style="fill: #332288; fill-opacity: 0.6; stroke: #ffffff; stroke-opacity: 0.6; stroke-width: 0.339411"/>
    <path d="M 207.536073 91.062854 
L 209.336073 88.062854 
L 207.536073 85.062854 
L 205.736073 88.062854 
z
" clip-path="url(#p6c9655f3ec)" style="fill: #332288; fill-opacity: 0.6; stroke: #ffffff; stroke-opacity: 0.6; stroke-width: 0.339411"/>
    <path d="M 135.469559 41.310231 
L 137.269559 38.310231 
L 135.469559 35.310231 
L 133.669559 38.310231 
z
" clip-path="url(#p6c9655f3ec)" style="fill: #332288; fill-opacity: 0.6; stroke: #ffffff; stroke-opacity: 0.6; stroke-width: 0.339411"/>
    <path d="M 146.731627 39.196423 
L 148.531627 36.196423 
L 146.731627 33.196423 
L 144.931627 36.196423 
z
" clip-path="url(#p6c9655f3ec)" style="fill: #332288; fill-opacity: 0.6; stroke: #ffffff; stroke-opacity: 0.6; stroke-width: 0.339411"/>
    <path d="M 123.14552 50.091415 
L 124.94552 47.091415 
L 123.14552 44.091415 
L 121.34552 47.091415 
z
" clip-path="url(#p6c9655f3ec)" style="fill: #332288; fill-opacity: 0.6; stroke: #ffffff; stroke-opacity: 0.6; stroke-width: 0.339411"/>
    <path d="M 216.307533 117.261163 
L 218.107533 114.261163 
L 216.307533 111.261163 
L 214.507533 114.261163 
z
" clip-path="url(#p6c9655f3ec)" style="fill: #332288; fill-opacity: 0.6; stroke: #ffffff; stroke-opacity: 0.6; stroke-width: 0.339411"/>
    <path d="M 216.307533 117.261163 
L 218.107533 114.261163 
L 216.307533 111.261163 
L 214.507533 114.261163 
z
" clip-path="url(#p6c9655f3ec)" style="fill: #332288; fill-opacity: 0.6; stroke: #ffffff; stroke-opacity: 0.6; stroke-width: 0.339411"/>
    <path d="M 206.061615 126.316162 
L 207.861615 123.316162 
L 206.061615 120.316162 
L 204.261615 123.316162 
z
" clip-path="url(#p6c9655f3ec)" style="fill: #332288; fill-opacity: 0.6; stroke: #ffffff; stroke-opacity: 0.6; stroke-width: 0.339411"/>
    <path d="M 128.388822 115.03537 
L 130.188822 112.03537 
L 128.388822 109.03537 
L 126.588822 112.03537 
z
" clip-path="url(#p6c9655f3ec)" style="fill: #332288; fill-opacity: 0.6; stroke: #ffffff; stroke-opacity: 0.6; stroke-width: 0.339411"/>
    <path d="M 133.188433 59.320857 
L 134.988433 56.320857 
L 133.188433 53.320857 
L 131.388433 56.320857 
z
" clip-path="url(#p6c9655f3ec)" style="fill: #332288; fill-opacity: 0.6; stroke: #ffffff; stroke-opacity: 0.6; stroke-width: 0.339411"/>
    <path d="M 125.665862 100.616338 
L 127.465862 97.616338 
L 125.665862 94.616338 
L 123.865862 97.616338 
z
" clip-path="url(#p6c9655f3ec)" style="fill: #332288; fill-opacity: 0.6; stroke: #ffffff; stroke-opacity: 0.6; stroke-width: 0.339411"/>
    <path d="M 143.083376 41.406105 
L 144.883376 38.406105 
L 143.083376 35.406105 
L 141.283376 38.406105 
z
" clip-path="url(#p6c9655f3ec)" style="fill: #332288; fill-opacity: 0.6; stroke: #ffffff; stroke-opacity: 0.6; stroke-width: 0.339411"/>
    <path d="M 136.700986 45.243223 
L 138.500986 42.243223 
L 136.700986 39.243223 
L 134.900986 42.243223 
z
" clip-path="url(#p6c9655f3ec)" style="fill: #332288; fill-opacity: 0.6; stroke: #ffffff; stroke-opacity: 0.6; stroke-width: 0.339411"/>
    <path d="M 189.621706 116.256921 
L 191.421706 113.256921 
L 189.621706 110.256921 
L 187.821706 113.256921 
z
" clip-path="url(#p6c9655f3ec)" style="fill: #332288; fill-opacity: 0.6; stroke: #ffffff; stroke-opacity: 0.6; stroke-width: 0.339411"/>
    <path d="M 142.387152 38.909155 
L 144.187152 35.909155 
L 142.387152 32.909155 
L 140.587152 35.909155 
z
" clip-path="url(#p6c9655f3ec)" style="fill: #332288; fill-opacity: 0.6; stroke: #ffffff; stroke-opacity: 0.6; stroke-width: 0.339411"/>
    <path d="M 119.569542 51.106736 
L 121.369542 48.106736 
L 119.569542 45.106736 
L 117.769542 48.106736 
z
" clip-path="url(#p6c9655f3ec)" style="fill: #332288; fill-opacity: 0.6; stroke: #ffffff; stroke-opacity: 0.6; stroke-width: 0.339411"/>
    <path d="M 211.973224 102.135757 
L 213.773224 99.135757 
L 211.973224 96.135757 
L 210.173224 99.135757 
z
" clip-path="url(#p6c9655f3ec)" style="fill: #332288; fill-opacity: 0.6; stroke: #ffffff; stroke-opacity: 0.6; stroke-width: 0.339411"/>
    <path d="M 140.839488 75.747154 
L 142.639488 72.747154 
L 140.839488 69.747154 
L 139.039488 72.747154 
z
" clip-path="url(#p6c9655f3ec)" style="fill: #332288; fill-opacity: 0.6; stroke: #ffffff; stroke-opacity: 0.6; stroke-width: 0.339411"/>
    <path d="M 211.969439 104.897727 
L 213.769439 101.897727 
L 211.969439 98.897727 
L 210.169439 101.897727 
z
" clip-path="url(#p6c9655f3ec)" style="fill: #332288; fill-opacity: 0.6; stroke: #ffffff; stroke-opacity: 0.6; stroke-width: 0.339411"/>
    <path d="M 198.808278 128.522135 
L 196.686958 132.764776 
L 200.929599 132.764776 
z
" clip-path="url(#p6c9655f3ec)" style="fill: #117733; fill-opacity: 0.6; stroke: #ffffff; stroke-opacity: 0.6; stroke-width: 0.339411"/>
    <path d="M 114.761669 87.536326 
L 112.640349 91.778967 
L 116.88299 91.778967 
z
" clip-path="url(#p6c9655f3ec)" style="fill: #117733; fill-opacity: 0.6; stroke: #ffffff; stroke-opacity: 0.6; stroke-width: 0.339411"/>
    <path d="M 184.177682 108.661574 
L 182.056362 112.904214 
L 186.299003 112.904214 
z
" clip-path="url(#p6c9655f3ec)" style="fill: #117733; fill-opacity: 0.6; stroke: #ffffff; stroke-opacity: 0.6; stroke-width: 0.339411"/>
    <path d="M 131.179581 84.692915 
L 129.058261 88.935555 
L 133.300902 88.935555 
z
" clip-path="url(#p6c9655f3ec)" style="fill: #117733; fill-opacity: 0.6; stroke: #ffffff; stroke-opacity: 0.6; stroke-width: 0.339411"/>
    <path d="M 104.782595 126.603245 
L 102.661275 130.845886 
L 106.903915 130.845886 
z
" clip-path="url(#p6c9655f3ec)" style="fill: #117733; fill-opacity: 0.6; stroke: #ffffff; stroke-opacity: 0.6; stroke-width: 0.339411"/>
    <path d="M 123.800847 86.338776 
L 121.679527 90.581416 
L 125.922168 90.581416 
z
" clip-path="url(#p6c9655f3ec)" style="fill: #117733; fill-opacity: 0.6; stroke: #ffffff; stroke-opacity: 0.6; stroke-width: 0.339411"/>
    <path d="M 198.086785 146.225604 
L 195.965465 150.468244 
L 200.208105 150.468244 
z
" clip-path="url(#p6c9655f3ec)" style="fill: #117733; fill-opacity: 0.6; stroke: #ffffff; stroke-opacity: 0.6; stroke-width: 0.339411"/>
    <path d="M 182.468448 134.541815 
L 180.347128 138.784455 
L 184.589768 138.784455 
z
" clip-path="url(#p6c9655f3ec)" style="fill: #117733; fill-opacity: 0.6; stroke: #ffffff; stroke-opacity: 0.6; stroke-width: 0.339411"/>
    <path d="M 196.948627 138.204761 
L 194.827306 142.447402 
L 199.069947 142.447402 
z
" clip-path="url(#p6c9655f3ec)" style="fill: #117733; fill-opacity: 0.6; stroke: #ffffff; stroke-opacity: 0.6; stroke-width: 0.339411"/>
    <path d="M 141.700285 86.59661 
L 139.578965 90.83925 
L 143.821605 90.83925 
z
" clip-path="url(#p6c9655f3ec)" style="fill: #117733; fill-opacity: 0.6; stroke: #ffffff; stroke-opacity: 0.6; stroke-width: 0.339411"/>
    <path d="M 193.762014 145.383059 
L 191.640693 149.6257 
L 195.883334 149.6257 
z
" clip-path="url(#p6c9655f3ec)" style="fill: #117733; fill-opacity: 0.6; stroke: #ffffff; stroke-opacity: 0.6; stroke-width: 0.339411"/>
    <path d="M 187.346884 160.550416 
L 185.225564 164.793057 
L 189.468204 164.793057 
z
" clip-path="url(#p6c9655f3ec)" style="fill: #117733; fill-opacity: 0.6; stroke: #ffffff; stroke-opacity: 0.6; stroke-width: 0.339411"/>
    <path d="M 110.903396 129.419376 
L 108.782075 133.662017 
L 113.024716 133.662017 
z
" clip-path="url(#p6c9655f3ec)" style="fill: #117733; fill-opacity: 0.6; stroke: #ffffff; stroke-opacity: 0.6; stroke-width: 0.339411"/>
    <path d="M 191.532703 148.689223 
L 189.411383 152.931864 
L 193.654024 152.931864 
z
" clip-path="url(#p6c9655f3ec)" style="fill: #117733; fill-opacity: 0.6; stroke: #ffffff; stroke-opacity: 0.6; stroke-width: 0.339411"/>
    <path d="M 198.045022 134.799217 
L 195.923702 139.041858 
L 200.166343 139.041858 
z
" clip-path="url(#p6c9655f3ec)" style="fill: #117733; fill-opacity: 0.6; stroke: #ffffff; stroke-opacity: 0.6; stroke-width: 0.339411"/>
    <path d="M 159.839017 112.606967 
L 157.717697 116.849607 
L 161.960338 116.849607 
z
" clip-path="url(#p6c9655f3ec)" style="fill: #117733; fill-opacity: 0.6; stroke: #ffffff; stroke-opacity: 0.6; stroke-width: 0.339411"/>
    <path d="M 200.59856 142.895007 
L 198.47724 147.137648 
L 202.71988 147.137648 
z
" clip-path="url(#p6c9655f3ec)" style="fill: #117733; fill-opacity: 0.6; stroke: #ffffff; stroke-opacity: 0.6; stroke-width: 0.339411"/>
    <path d="M 176.065987 136.241861 
L 173.944667 140.484502 
L 178.187308 140.484502 
z
" clip-path="url(#p6c9655f3ec)" style="fill: #117733; fill-opacity: 0.6; stroke: #ffffff; stroke-opacity: 0.6; stroke-width: 0.339411"/>
    <path d="M 197.718908 135.490911 
L 195.597588 139.733551 
L 199.840229 139.733551 
z
" clip-path="url(#p6c9655f3ec)" style="fill: #117733; fill-opacity: 0.6; stroke: #ffffff; stroke-opacity: 0.6; stroke-width: 0.339411"/>
    <path d="M 172.306441 127.216965 
L 170.185121 131.459605 
L 174.427761 131.459605 
z
" clip-path="url(#p6c9655f3ec)" style="fill: #117733; fill-opacity: 0.6; stroke: #ffffff; stroke-opacity: 0.6; stroke-width: 0.339411"/>
    <path d="M 199.373561 139.210094 
L 197.25224 143.452735 
L 201.494881 143.452735 
z
" clip-path="url(#p6c9655f3ec)" style="fill: #117733; fill-opacity: 0.6; stroke: #ffffff; stroke-opacity: 0.6; stroke-width: 0.339411"/>
    <path d="M 166.518979 145.130964 
L 164.397658 149.373605 
L 168.640299 149.373605 
z
" clip-path="url(#p6c9655f3ec)" style="fill: #117733; fill-opacity: 0.6; stroke: #ffffff; stroke-opacity: 0.6; stroke-width: 0.339411"/>
    <path d="M 195.573752 131.176865 
L 193.452432 135.419506 
L 197.695073 135.419506 
z
" clip-path="url(#p6c9655f3ec)" style="fill: #117733; fill-opacity: 0.6; stroke: #ffffff; stroke-opacity: 0.6; stroke-width: 0.339411"/>
    <path d="M 171.876633 129.447921 
L 169.755313 133.690562 
L 173.997953 133.690562 
z
" clip-path="url(#p6c9655f3ec)" style="fill: #117733; fill-opacity: 0.6; stroke: #ffffff; stroke-opacity: 0.6; stroke-width: 0.339411"/>
    <path d="M 106.71667 108.23933 
L 104.59535 112.481971 
L 108.83799 112.481971 
z
" clip-path="url(#p6c9655f3ec)" style="fill: #117733; fill-opacity: 0.6; stroke: #ffffff; stroke-opacity: 0.6; stroke-width: 0.339411"/>
    <path d="M 162.819575 141.205293 
L 160.698254 145.447933 
L 164.940895 145.447933 
z
" clip-path="url(#p6c9655f3ec)" style="fill: #117733; fill-opacity: 0.6; stroke: #ffffff; stroke-opacity: 0.6; stroke-width: 0.339411"/>
    <path d="M 110.859282 124.381108 
L 108.737962 128.623749 
L 112.980603 128.623749 
z
" clip-path="url(#p6c9655f3ec)" style="fill: #117733; fill-opacity: 0.6; stroke: #ffffff; stroke-opacity: 0.6; stroke-width: 0.339411"/>
    <path d="M 122.173926 112.290398 
L 120.052606 116.533039 
L 124.295247 116.533039 
z
" clip-path="url(#p6c9655f3ec)" style="fill: #117733; fill-opacity: 0.6; stroke: #ffffff; stroke-opacity: 0.6; stroke-width: 0.339411"/>
    <path d="M 182.700853 137.643255 
L 180.579533 141.885896 
L 184.822174 141.885896 
z
" clip-path="url(#p6c9655f3ec)" style="fill: #117733; fill-opacity: 0.6; stroke: #ffffff; stroke-opacity: 0.6; stroke-width: 0.339411"/>
    <path d="M 101.589725 116.929524 
L 99.468405 121.172164 
L 103.711046 121.172164 
z
" clip-path="url(#p6c9655f3ec)" style="fill: #117733; fill-opacity: 0.6; stroke: #ffffff; stroke-opacity: 0.6; stroke-width: 0.339411"/>
    <path d="M 142.85016 140.308468 
L 140.72884 144.551109 
L 144.97148 144.551109 
z
" clip-path="url(#p6c9655f3ec)" style="fill: #117733; fill-opacity: 0.6; stroke: #ffffff; stroke-opacity: 0.6; stroke-width: 0.339411"/>
    <path d="M 140.444632 81.626016 
L 138.323312 85.868657 
L 142.565953 85.868657 
z
" clip-path="url(#p6c9655f3ec)" style="fill: #117733; fill-opacity: 0.6; stroke: #ffffff; stroke-opacity: 0.6; stroke-width: 0.339411"/>
    <path d="M 192.221655 155.087944 
L 190.100335 159.330585 
L 194.342975 159.330585 
z
" clip-path="url(#p6c9655f3ec)" style="fill: #117733; fill-opacity: 0.6; stroke: #ffffff; stroke-opacity: 0.6; stroke-width: 0.339411"/>
    <path d="M 179.451548 131.015301 
L 177.330228 135.257942 
L 181.572869 135.257942 
z
" clip-path="url(#p6c9655f3ec)" style="fill: #117733; fill-opacity: 0.6; stroke: #ffffff; stroke-opacity: 0.6; stroke-width: 0.339411"/>
    <path d="M 111.857495 124.022608 
L 109.736175 128.265248 
L 113.978815 128.265248 
z
" clip-path="url(#p6c9655f3ec)" style="fill: #117733; fill-opacity: 0.6; stroke: #ffffff; stroke-opacity: 0.6; stroke-width: 0.339411"/>
    <path d="M 119.124958 128.316354 
L 117.003638 132.558995 
L 121.246278 132.558995 
z
" clip-path="url(#p6c9655f3ec)" style="fill: #117733; fill-opacity: 0.6; stroke: #ffffff; stroke-opacity: 0.6; stroke-width: 0.339411"/>
    <path d="M 196.61974 126.015357 
L 194.498419 130.257997 
L 198.74106 130.257997 
z
" clip-path="url(#p6c9655f3ec)" style="fill: #117733; fill-opacity: 0.6; stroke: #ffffff; stroke-opacity: 0.6; stroke-width: 0.339411"/>
    <path d="M 189.689159 138.808887 
L 187.567838 143.051528 
L 191.810479 143.051528 
z
" clip-path="url(#p6c9655f3ec)" style="fill: #117733; fill-opacity: 0.6; stroke: #ffffff; stroke-opacity: 0.6; stroke-width: 0.339411"/>
    <path d="M 190.57201 152.767782 
L 188.450689 157.010422 
L 192.69333 157.010422 
z
" clip-path="url(#p6c9655f3ec)" style="fill: #117733; fill-opacity: 0.6; stroke: #ffffff; stroke-opacity: 0.6; stroke-width: 0.339411"/>
    <path d="M 180.252763 116.153194 
L 178.131442 120.395835 
L 182.374083 120.395835 
z
" clip-path="url(#p6c9655f3ec)" style="fill: #117733; fill-opacity: 0.6; stroke: #ffffff; stroke-opacity: 0.6; stroke-width: 0.339411"/>
    <path d="M 109.13287 107.507722 
L 107.011549 111.750363 
L 111.25419 111.750363 
z
" clip-path="url(#p6c9655f3ec)" style="fill: #117733; fill-opacity: 0.6; stroke: #ffffff; stroke-opacity: 0.6; stroke-width: 0.339411"/>
    <path d="M 116.931635 104.405759 
L 114.810314 108.6484 
L 119.052955 108.6484 
z
" clip-path="url(#p6c9655f3ec)" style="fill: #117733; fill-opacity: 0.6; stroke: #ffffff; stroke-opacity: 0.6; stroke-width: 0.339411"/>
    <path d="M 206.241602 123.165407 
L 204.120282 127.408048 
L 208.362922 127.408048 
z
" clip-path="url(#p6c9655f3ec)" style="fill: #117733; fill-opacity: 0.6; stroke: #ffffff; stroke-opacity: 0.6; stroke-width: 0.339411"/>
    <path d="M 195.358845 136.194172 
L 193.237525 140.436813 
L 197.480166 140.436813 
z
" clip-path="url(#p6c9655f3ec)" style="fill: #117733; fill-opacity: 0.6; stroke: #ffffff; stroke-opacity: 0.6; stroke-width: 0.339411"/>
    <path d="M 139.333205 127.080464 
L 137.211885 131.323105 
L 141.454526 131.323105 
z
" clip-path="url(#p6c9655f3ec)" style="fill: #117733; fill-opacity: 0.6; stroke: #ffffff; stroke-opacity: 0.6; stroke-width: 0.339411"/>
    <path d="M 197.302168 139.028166 
L 195.180847 143.270807 
L 199.423488 143.270807 
z
" clip-path="url(#p6c9655f3ec)" style="fill: #117733; fill-opacity: 0.6; stroke: #ffffff; stroke-opacity: 0.6; stroke-width: 0.339411"/>
    <path d="M 112.394669 116.414939 
L 110.273349 120.657579 
L 114.51599 120.657579 
z
" clip-path="url(#p6c9655f3ec)" style="fill: #117733; fill-opacity: 0.6; stroke: #ffffff; stroke-opacity: 0.6; stroke-width: 0.339411"/>
    <path d="M 188.803321 134.487608 
L 186.682 138.730248 
L 190.924641 138.730248 
z
" clip-path="url(#p6c9655f3ec)" style="fill: #117733; fill-opacity: 0.6; stroke: #ffffff; stroke-opacity: 0.6; stroke-width: 0.339411"/>
    <path d="M 194.271282 148.231241 
L 192.149962 152.473881 
L 196.392603 152.473881 
z
" clip-path="url(#p6c9655f3ec)" style="fill: #117733; fill-opacity: 0.6; stroke: #ffffff; stroke-opacity: 0.6; stroke-width: 0.339411"/>
    <path d="M 100.862806 126.033038 
L 98.741485 130.275679 
L 102.984126 130.275679 
z
" clip-path="url(#p6c9655f3ec)" style="fill: #117733; fill-opacity: 0.6; stroke: #ffffff; stroke-opacity: 0.6; stroke-width: 0.339411"/>
    <path d="M 198.019166 132.86362 
L 195.897845 137.10626 
L 200.140486 137.10626 
z
" clip-path="url(#p6c9655f3ec)" style="fill: #117733; fill-opacity: 0.6; stroke: #ffffff; stroke-opacity: 0.6; stroke-width: 0.339411"/>
    <path d="M 191.184173 136.074389 
L 189.062853 140.31703 
L 193.305493 140.31703 
z
" clip-path="url(#p6c9655f3ec)" style="fill: #117733; fill-opacity: 0.6; stroke: #ffffff; stroke-opacity: 0.6; stroke-width: 0.339411"/>
    <path d="M 206.468527 128.985461 
L 204.347207 133.228102 
L 208.589847 133.228102 
z
" clip-path="url(#p6c9655f3ec)" style="fill: #117733; fill-opacity: 0.6; stroke: #ffffff; stroke-opacity: 0.6; stroke-width: 0.339411"/>
    <path d="M 195.459766 145.804007 
L 193.338445 150.046648 
L 197.581086 150.046648 
z
" clip-path="url(#p6c9655f3ec)" style="fill: #117733; fill-opacity: 0.6; stroke: #ffffff; stroke-opacity: 0.6; stroke-width: 0.339411"/>
    <path d="M 198.483454 132.936708 
L 196.362133 137.179348 
L 200.604774 137.179348 
z
" clip-path="url(#p6c9655f3ec)" style="fill: #117733; fill-opacity: 0.6; stroke: #ffffff; stroke-opacity: 0.6; stroke-width: 0.339411"/>
    <path d="M 180.603283 147.981514 
L 178.481962 152.224155 
L 182.724603 152.224155 
z
" clip-path="url(#p6c9655f3ec)" style="fill: #117733; fill-opacity: 0.6; stroke: #ffffff; stroke-opacity: 0.6; stroke-width: 0.339411"/>
    <path d="M 197.463206 143.339619 
L 195.341886 147.58226 
L 199.584526 147.58226 
z
" clip-path="url(#p6c9655f3ec)" style="fill: #117733; fill-opacity: 0.6; stroke: #ffffff; stroke-opacity: 0.6; stroke-width: 0.339411"/>
    <path d="M 185.37227 135.711602 
L 183.25095 139.954242 
L 187.49359 139.954242 
z
" clip-path="url(#p6c9655f3ec)" style="fill: #117733; fill-opacity: 0.6; stroke: #ffffff; stroke-opacity: 0.6; stroke-width: 0.339411"/>
    <path d="M 115.34329 126.812353 
L 113.221969 131.054994 
L 117.46461 131.054994 
z
" clip-path="url(#p6c9655f3ec)" style="fill: #117733; fill-opacity: 0.6; stroke: #ffffff; stroke-opacity: 0.6; stroke-width: 0.339411"/>
    <path d="M 130.155112 77.855351 
L 128.033792 82.097992 
L 132.276433 82.097992 
z
" clip-path="url(#p6c9655f3ec)" style="fill: #117733; fill-opacity: 0.6; stroke: #ffffff; stroke-opacity: 0.6; stroke-width: 0.339411"/>
    <path d="M 123.274199 64.460782 
L 121.152879 68.703422 
L 125.395519 68.703422 
z
" clip-path="url(#p6c9655f3ec)" style="fill: #117733; fill-opacity: 0.6; stroke: #ffffff; stroke-opacity: 0.6; stroke-width: 0.339411"/>
    <path d="M 192.395426 148.996192 
L 190.274105 153.238833 
L 194.516746 153.238833 
z
" clip-path="url(#p6c9655f3ec)" style="fill: #117733; fill-opacity: 0.6; stroke: #ffffff; stroke-opacity: 0.6; stroke-width: 0.339411"/>
    <path d="M 102.8054 139.929782 
L 100.68408 144.172422 
L 104.926721 144.172422 
z
" clip-path="url(#p6c9655f3ec)" style="fill: #117733; fill-opacity: 0.6; stroke: #ffffff; stroke-opacity: 0.6; stroke-width: 0.339411"/>
    <path d="M 109.212954 142.963311 
L 113.455595 142.963311 
L 113.455595 138.720671 
L 109.212954 138.720671 
z
" clip-path="url(#p6c9655f3ec)" style="fill: #44aa99; fill-opacity: 0.6; stroke: #ffffff; stroke-opacity: 0.6; stroke-width: 0.339411"/>
    <path d="M 112.727491 85.92978 
L 116.970131 85.92978 
L 116.970131 81.687139 
L 112.727491 81.687139 
z
" clip-path="url(#p6c9655f3ec)" style="fill: #44aa99; fill-opacity: 0.6; stroke: #ffffff; stroke-opacity: 0.6; stroke-width: 0.339411"/>
    <path d="M 121.537895 88.507733 
L 125.780535 88.507733 
L 125.780535 84.265093 
L 121.537895 84.265093 
z
" clip-path="url(#p6c9655f3ec)" style="fill: #44aa99; fill-opacity: 0.6; stroke: #ffffff; stroke-opacity: 0.6; stroke-width: 0.339411"/>
    <path d="M 113.112898 82.635476 
L 117.355539 82.635476 
L 117.355539 78.392835 
L 113.112898 78.392835 
z
" clip-path="url(#p6c9655f3ec)" style="fill: #44aa99; fill-opacity: 0.6; stroke: #ffffff; stroke-opacity: 0.6; stroke-width: 0.339411"/>
    <path d="M 112.427058 138.522243 
L 116.669698 138.522243 
L 116.669698 134.279602 
L 112.427058 134.279602 
z
" clip-path="url(#p6c9655f3ec)" style="fill: #44aa99; fill-opacity: 0.6; stroke: #ffffff; stroke-opacity: 0.6; stroke-width: 0.339411"/>
    <path d="M 124.863917 124.335317 
L 129.106558 124.335317 
L 129.106558 120.092676 
L 124.863917 120.092676 
z
" clip-path="url(#p6c9655f3ec)" style="fill: #44aa99; fill-opacity: 0.6; stroke: #ffffff; stroke-opacity: 0.6; stroke-width: 0.339411"/>
    <path d="M 99.984695 68.128062 
L 104.227336 68.128062 
L 104.227336 63.885422 
L 99.984695 63.885422 
z
" clip-path="url(#p6c9655f3ec)" style="fill: #44aa99; fill-opacity: 0.6; stroke: #ffffff; stroke-opacity: 0.6; stroke-width: 0.339411"/>
    <path d="M 98.64827 61.653045 
L 102.890911 61.653045 
L 102.890911 57.410404 
L 98.64827 57.410404 
z
" clip-path="url(#p6c9655f3ec)" style="fill: #44aa99; fill-opacity: 0.6; stroke: #ffffff; stroke-opacity: 0.6; stroke-width: 0.339411"/>
    <path d="M 114.477644 143.727349 
L 118.720285 143.727349 
L 118.720285 139.484708 
L 114.477644 139.484708 
z
" clip-path="url(#p6c9655f3ec)" style="fill: #44aa99; fill-opacity: 0.6; stroke: #ffffff; stroke-opacity: 0.6; stroke-width: 0.339411"/>
    <path d="M 106.084416 131.437515 
L 110.327056 131.437515 
L 110.327056 127.194874 
L 106.084416 127.194874 
z
" clip-path="url(#p6c9655f3ec)" style="fill: #44aa99; fill-opacity: 0.6; stroke: #ffffff; stroke-opacity: 0.6; stroke-width: 0.339411"/>
    <path d="M 127.736639 87.201728 
L 131.979279 87.201728 
L 131.979279 82.959087 
L 127.736639 82.959087 
z
" clip-path="url(#p6c9655f3ec)" style="fill: #44aa99; fill-opacity: 0.6; stroke: #ffffff; stroke-opacity: 0.6; stroke-width: 0.339411"/>
    <path d="M 97.099816 147.719739 
L 101.342457 147.719739 
L 101.342457 143.477099 
L 97.099816 143.477099 
z
" clip-path="url(#p6c9655f3ec)" style="fill: #44aa99; fill-opacity: 0.6; stroke: #ffffff; stroke-opacity: 0.6; stroke-width: 0.339411"/>
    <path d="M 120.114717 121.683563 
L 124.357357 121.683563 
L 124.357357 117.440922 
L 120.114717 117.440922 
z
" clip-path="url(#p6c9655f3ec)" style="fill: #44aa99; fill-opacity: 0.6; stroke: #ffffff; stroke-opacity: 0.6; stroke-width: 0.339411"/>
    <path d="M 131.843614 83.559333 
L 136.086255 83.559333 
L 136.086255 79.316692 
L 131.843614 79.316692 
z
" clip-path="url(#p6c9655f3ec)" style="fill: #44aa99; fill-opacity: 0.6; stroke: #ffffff; stroke-opacity: 0.6; stroke-width: 0.339411"/>
    <path d="M 127.603539 128.154906 
L 131.846179 128.154906 
L 131.846179 123.912265 
L 127.603539 123.912265 
z
" clip-path="url(#p6c9655f3ec)" style="fill: #44aa99; fill-opacity: 0.6; stroke: #ffffff; stroke-opacity: 0.6; stroke-width: 0.339411"/>
    <path d="M 131.843614 83.559333 
L 136.086255 83.559333 
L 136.086255 79.316692 
L 131.843614 79.316692 
z
" clip-path="url(#p6c9655f3ec)" style="fill: #44aa99; fill-opacity: 0.6; stroke: #ffffff; stroke-opacity: 0.6; stroke-width: 0.339411"/>
    <path d="M 92.228789 73.548778 
L 96.471429 73.548778 
L 96.471429 69.306137 
L 92.228789 69.306137 
z
" clip-path="url(#p6c9655f3ec)" style="fill: #44aa99; fill-opacity: 0.6; stroke: #ffffff; stroke-opacity: 0.6; stroke-width: 0.339411"/>
    <path d="M 110.130476 139.066049 
L 114.373117 139.066049 
L 114.373117 134.823408 
L 110.130476 134.823408 
z
" clip-path="url(#p6c9655f3ec)" style="fill: #44aa99; fill-opacity: 0.6; stroke: #ffffff; stroke-opacity: 0.6; stroke-width: 0.339411"/>
    <path d="M 116.728588 138.508037 
L 120.971229 138.508037 
L 120.971229 134.265396 
L 116.728588 134.265396 
z
" clip-path="url(#p6c9655f3ec)" style="fill: #44aa99; fill-opacity: 0.6; stroke: #ffffff; stroke-opacity: 0.6; stroke-width: 0.339411"/>
    <path d="M 118.107372 106.66029 
L 122.350012 106.66029 
L 122.350012 102.417649 
L 118.107372 102.417649 
z
" clip-path="url(#p6c9655f3ec)" style="fill: #44aa99; fill-opacity: 0.6; stroke: #ffffff; stroke-opacity: 0.6; stroke-width: 0.339411"/>
    <path d="M 107.855015 78.711042 
L 112.097656 78.711042 
L 112.097656 74.468402 
L 107.855015 74.468402 
z
" clip-path="url(#p6c9655f3ec)" style="fill: #44aa99; fill-opacity: 0.6; stroke: #ffffff; stroke-opacity: 0.6; stroke-width: 0.339411"/>
    <path d="M 112.958189 99.14405 
L 117.20083 99.14405 
L 117.20083 94.901409 
L 112.958189 94.901409 
z
" clip-path="url(#p6c9655f3ec)" style="fill: #44aa99; fill-opacity: 0.6; stroke: #ffffff; stroke-opacity: 0.6; stroke-width: 0.339411"/>
    <path d="M 104.404913 105.388824 
L 108.647553 105.388824 
L 108.647553 101.146183 
L 104.404913 101.146183 
z
" clip-path="url(#p6c9655f3ec)" style="fill: #44aa99; fill-opacity: 0.6; stroke: #ffffff; stroke-opacity: 0.6; stroke-width: 0.339411"/>
    <path d="M 119.979004 110.013333 
L 124.221645 110.013333 
L 124.221645 105.770692 
L 119.979004 105.770692 
z
" clip-path="url(#p6c9655f3ec)" style="fill: #44aa99; fill-opacity: 0.6; stroke: #ffffff; stroke-opacity: 0.6; stroke-width: 0.339411"/>
    <path d="M 149.816161 92.930778 
L 154.058802 92.930778 
L 154.058802 88.688137 
L 149.816161 88.688137 
z
" clip-path="url(#p6c9655f3ec)" style="fill: #44aa99; fill-opacity: 0.6; stroke: #ffffff; stroke-opacity: 0.6; stroke-width: 0.339411"/>
    <path d="M 94.013126 145.031777 
L 98.255767 145.031777 
L 98.255767 140.789136 
L 94.013126 140.789136 
z
" clip-path="url(#p6c9655f3ec)" style="fill: #44aa99; fill-opacity: 0.6; stroke: #ffffff; stroke-opacity: 0.6; stroke-width: 0.339411"/>
    <path d="M 95.102708 139.662938 
L 99.345349 139.662938 
L 99.345349 135.420298 
L 95.102708 135.420298 
z
" clip-path="url(#p6c9655f3ec)" style="fill: #44aa99; fill-opacity: 0.6; stroke: #ffffff; stroke-opacity: 0.6; stroke-width: 0.339411"/>
    <path d="M 95.13591 138.109958 
L 99.378551 138.109958 
L 99.378551 133.867318 
L 95.13591 133.867318 
z
" clip-path="url(#p6c9655f3ec)" style="fill: #44aa99; fill-opacity: 0.6; stroke: #ffffff; stroke-opacity: 0.6; stroke-width: 0.339411"/>
    <path d="M 131.591251 114.475032 
L 135.833892 114.475032 
L 135.833892 110.232391 
L 131.591251 110.232391 
z
" clip-path="url(#p6c9655f3ec)" style="fill: #44aa99; fill-opacity: 0.6; stroke: #ffffff; stroke-opacity: 0.6; stroke-width: 0.339411"/>
    <path d="M 112.966024 94.156658 
L 117.208664 94.156658 
L 117.208664 89.914018 
L 112.966024 89.914018 
z
" clip-path="url(#p6c9655f3ec)" style="fill: #44aa99; fill-opacity: 0.6; stroke: #ffffff; stroke-opacity: 0.6; stroke-width: 0.339411"/>
    <path d="M 138.52379 114.574462 
L 142.76643 114.574462 
L 142.76643 110.331821 
L 138.52379 110.331821 
z
" clip-path="url(#p6c9655f3ec)" style="fill: #44aa99; fill-opacity: 0.6; stroke: #ffffff; stroke-opacity: 0.6; stroke-width: 0.339411"/>
    <path d="M 124.407033 114.553509 
L 128.649674 114.553509 
L 128.649674 110.310868 
L 124.407033 110.310868 
z
" clip-path="url(#p6c9655f3ec)" style="fill: #44aa99; fill-opacity: 0.6; stroke: #ffffff; stroke-opacity: 0.6; stroke-width: 0.339411"/>
    <path d="M 100.879335 141.193412 
L 105.121975 141.193412 
L 105.121975 136.950771 
L 100.879335 136.950771 
z
" clip-path="url(#p6c9655f3ec)" style="fill: #44aa99; fill-opacity: 0.6; stroke: #ffffff; stroke-opacity: 0.6; stroke-width: 0.339411"/>
    <path d="M 99.664933 144.22855 
L 103.907574 144.22855 
L 103.907574 139.985909 
L 99.664933 139.985909 
z
" clip-path="url(#p6c9655f3ec)" style="fill: #44aa99; fill-opacity: 0.6; stroke: #ffffff; stroke-opacity: 0.6; stroke-width: 0.339411"/>
    <path d="M 99.42207 150.985825 
L 103.664711 150.985825 
L 103.664711 146.743184 
L 99.42207 146.743184 
z
" clip-path="url(#p6c9655f3ec)" style="fill: #44aa99; fill-opacity: 0.6; stroke: #ffffff; stroke-opacity: 0.6; stroke-width: 0.339411"/>
    <path d="M 89.900329 112.544676 
L 94.14297 112.544676 
L 94.14297 108.302036 
L 89.900329 108.302036 
z
" clip-path="url(#p6c9655f3ec)" style="fill: #44aa99; fill-opacity: 0.6; stroke: #ffffff; stroke-opacity: 0.6; stroke-width: 0.339411"/>
    <path d="M 137.141386 100.878108 
L 141.384027 100.878108 
L 141.384027 96.635468 
L 137.141386 96.635468 
z
" clip-path="url(#p6c9655f3ec)" style="fill: #44aa99; fill-opacity: 0.6; stroke: #ffffff; stroke-opacity: 0.6; stroke-width: 0.339411"/>
    <path d="M 111.954154 79.371499 
L 116.196794 79.371499 
L 116.196794 75.128858 
L 111.954154 75.128858 
z
" clip-path="url(#p6c9655f3ec)" style="fill: #44aa99; fill-opacity: 0.6; stroke: #ffffff; stroke-opacity: 0.6; stroke-width: 0.339411"/>
    <path d="M 105.762201 73.467125 
L 110.004842 73.467125 
L 110.004842 69.224485 
L 105.762201 69.224485 
z
" clip-path="url(#p6c9655f3ec)" style="fill: #44aa99; fill-opacity: 0.6; stroke: #ffffff; stroke-opacity: 0.6; stroke-width: 0.339411"/>
    <path d="M 118.271281 67.088105 
L 122.513921 67.088105 
L 122.513921 62.845465 
L 118.271281 62.845465 
z
" clip-path="url(#p6c9655f3ec)" style="fill: #44aa99; fill-opacity: 0.6; stroke: #ffffff; stroke-opacity: 0.6; stroke-width: 0.339411"/>
    <path d="M 87.538717 74.203473 
L 91.781358 74.203473 
L 91.781358 69.960833 
L 87.538717 69.960833 
z
" clip-path="url(#p6c9655f3ec)" style="fill: #44aa99; fill-opacity: 0.6; stroke: #ffffff; stroke-opacity: 0.6; stroke-width: 0.339411"/>
    <path d="M 124.119557 94.753485 
L 128.362198 94.753485 
L 128.362198 90.510844 
L 124.119557 90.510844 
z
" clip-path="url(#p6c9655f3ec)" style="fill: #44aa99; fill-opacity: 0.6; stroke: #ffffff; stroke-opacity: 0.6; stroke-width: 0.339411"/>
    <path d="M 94.649263 140.553457 
L 98.891904 140.553457 
L 98.891904 136.310817 
L 94.649263 136.310817 
z
" clip-path="url(#p6c9655f3ec)" style="fill: #44aa99; fill-opacity: 0.6; stroke: #ffffff; stroke-opacity: 0.6; stroke-width: 0.339411"/>
    <path d="M 87.254454 158.261778 
L 91.497095 158.261778 
L 91.497095 154.019137 
L 87.254454 154.019137 
z
" clip-path="url(#p6c9655f3ec)" style="fill: #44aa99; fill-opacity: 0.6; stroke: #ffffff; stroke-opacity: 0.6; stroke-width: 0.339411"/>
    <path d="M 119.928518 122.636271 
L 124.171159 122.636271 
L 124.171159 118.39363 
L 119.928518 118.39363 
z
" clip-path="url(#p6c9655f3ec)" style="fill: #44aa99; fill-opacity: 0.6; stroke: #ffffff; stroke-opacity: 0.6; stroke-width: 0.339411"/>
    <path d="M 112.114436 92.957682 
L 116.357077 92.957682 
L 116.357077 88.715042 
L 112.114436 88.715042 
z
" clip-path="url(#p6c9655f3ec)" style="fill: #44aa99; fill-opacity: 0.6; stroke: #ffffff; stroke-opacity: 0.6; stroke-width: 0.339411"/>
    <path d="M 120.195618 127.28617 
L 124.438259 127.28617 
L 124.438259 123.04353 
L 120.195618 123.04353 
z
" clip-path="url(#p6c9655f3ec)" style="fill: #44aa99; fill-opacity: 0.6; stroke: #ffffff; stroke-opacity: 0.6; stroke-width: 0.339411"/>
    <path d="M 132.057701 73.899889 
L 136.300342 73.899889 
L 136.300342 69.657249 
L 132.057701 69.657249 
z
" clip-path="url(#p6c9655f3ec)" style="fill: #44aa99; fill-opacity: 0.6; stroke: #ffffff; stroke-opacity: 0.6; stroke-width: 0.339411"/>
    <path d="M 77.063606 154.047103 
L 81.306247 154.047103 
L 81.306247 149.804463 
L 77.063606 149.804463 
z
" clip-path="url(#p6c9655f3ec)" style="fill: #44aa99; fill-opacity: 0.6; stroke: #ffffff; stroke-opacity: 0.6; stroke-width: 0.339411"/>
    <path d="M 102.006577 142.902781 
L 106.249217 142.902781 
L 106.249217 138.66014 
L 102.006577 138.66014 
z
" clip-path="url(#p6c9655f3ec)" style="fill: #44aa99; fill-opacity: 0.6; stroke: #ffffff; stroke-opacity: 0.6; stroke-width: 0.339411"/>
    <path d="M 84.75329 152.357322 
L 88.995931 152.357322 
L 88.995931 148.114681 
L 84.75329 148.114681 
z
" clip-path="url(#p6c9655f3ec)" style="fill: #44aa99; fill-opacity: 0.6; stroke: #ffffff; stroke-opacity: 0.6; stroke-width: 0.339411"/>
    <path d="M 97.676741 121.29916 
L 101.919382 121.29916 
L 101.919382 117.056519 
L 97.676741 117.056519 
z
" clip-path="url(#p6c9655f3ec)" style="fill: #44aa99; fill-opacity: 0.6; stroke: #ffffff; stroke-opacity: 0.6; stroke-width: 0.339411"/>
    <path d="M 106.640125 104.333209 
L 110.882765 104.333209 
L 110.882765 100.090568 
L 106.640125 100.090568 
z
" clip-path="url(#p6c9655f3ec)" style="fill: #44aa99; fill-opacity: 0.6; stroke: #ffffff; stroke-opacity: 0.6; stroke-width: 0.339411"/>
    <path d="M 110.26701 108.50412 
L 114.50965 108.50412 
L 114.50965 104.261479 
L 110.26701 104.261479 
z
" clip-path="url(#p6c9655f3ec)" style="fill: #44aa99; fill-opacity: 0.6; stroke: #ffffff; stroke-opacity: 0.6; stroke-width: 0.339411"/>
    <path d="M 92.317926 166.025145 
L 96.560567 166.025145 
L 96.560567 161.782505 
L 92.317926 161.782505 
z
" clip-path="url(#p6c9655f3ec)" style="fill: #44aa99; fill-opacity: 0.6; stroke: #ffffff; stroke-opacity: 0.6; stroke-width: 0.339411"/>
    <path d="M 107.355876 73.699958 
L 111.598517 73.699958 
L 111.598517 69.457317 
L 107.355876 69.457317 
z
" clip-path="url(#p6c9655f3ec)" style="fill: #44aa99; fill-opacity: 0.6; stroke: #ffffff; stroke-opacity: 0.6; stroke-width: 0.339411"/>
    <path d="M 110.248884 145.358664 
L 114.491525 145.358664 
L 114.491525 141.116023 
L 110.248884 141.116023 
z
" clip-path="url(#p6c9655f3ec)" style="fill: #44aa99; fill-opacity: 0.6; stroke: #ffffff; stroke-opacity: 0.6; stroke-width: 0.339411"/>
    <path d="M 101.838354 108.535386 
L 106.080995 108.535386 
L 106.080995 104.292746 
L 101.838354 104.292746 
z
" clip-path="url(#p6c9655f3ec)" style="fill: #44aa99; fill-opacity: 0.6; stroke: #ffffff; stroke-opacity: 0.6; stroke-width: 0.339411"/>
    <path d="M 116.618429 87.865706 
L 120.86107 87.865706 
L 120.86107 83.623065 
L 116.618429 83.623065 
z
" clip-path="url(#p6c9655f3ec)" style="fill: #44aa99; fill-opacity: 0.6; stroke: #ffffff; stroke-opacity: 0.6; stroke-width: 0.339411"/>
    <path d="M 96.81637 148.017111 
L 101.05901 148.017111 
L 101.05901 143.77447 
L 96.81637 143.77447 
z
" clip-path="url(#p6c9655f3ec)" style="fill: #44aa99; fill-opacity: 0.6; stroke: #ffffff; stroke-opacity: 0.6; stroke-width: 0.339411"/>
    <path d="M 88.125274 155.429387 
L 92.367915 155.429387 
L 92.367915 151.186747 
L 88.125274 151.186747 
z
" clip-path="url(#p6c9655f3ec)" style="fill: #44aa99; fill-opacity: 0.6; stroke: #ffffff; stroke-opacity: 0.6; stroke-width: 0.339411"/>
    <path d="M 122.867997 157.511679 
L 127.110637 157.511679 
L 127.110637 153.269039 
L 122.867997 153.269039 
z
" clip-path="url(#p6c9655f3ec)" style="fill: #44aa99; fill-opacity: 0.6; stroke: #ffffff; stroke-opacity: 0.6; stroke-width: 0.339411"/>
    <path d="M 98.629831 135.640278 
L 102.872472 135.640278 
L 102.872472 131.397637 
L 98.629831 131.397637 
z
" clip-path="url(#p6c9655f3ec)" style="fill: #44aa99; fill-opacity: 0.6; stroke: #ffffff; stroke-opacity: 0.6; stroke-width: 0.339411"/>
    <path d="M 88.11966 164.536196 
L 89.18032 163.475536 
L 90.24098 164.536196 
L 91.30164 163.475536 
L 90.24098 162.414876 
L 91.30164 161.354216 
L 90.24098 160.293556 
L 89.18032 161.354216 
L 88.11966 160.293556 
L 87.058999 161.354216 
L 88.11966 162.414876 
L 87.058999 163.475536 
z
" clip-path="url(#p6c9655f3ec)" style="fill: #88ccee; fill-opacity: 0.6; stroke: #ffffff; stroke-opacity: 0.6; stroke-width: 0.339411"/>
    <path d="M 107.549045 168.455443 
L 108.609705 167.394783 
L 109.670365 168.455443 
L 110.731026 167.394783 
L 109.670365 166.334122 
L 110.731026 165.273462 
L 109.670365 164.212802 
L 108.609705 165.273462 
L 107.549045 164.212802 
L 106.488385 165.273462 
L 107.549045 166.334122 
L 106.488385 167.394783 
z
" clip-path="url(#p6c9655f3ec)" style="fill: #88ccee; fill-opacity: 0.6; stroke: #ffffff; stroke-opacity: 0.6; stroke-width: 0.339411"/>
    <path d="M 89.009845 106.466943 
L 90.070505 105.406282 
L 91.131165 106.466943 
L 92.191825 105.406282 
L 91.131165 104.345622 
L 92.191825 103.284962 
L 91.131165 102.224302 
L 90.070505 103.284962 
L 89.009845 102.224302 
L 87.949184 103.284962 
L 89.009845 104.345622 
L 87.949184 105.406282 
z
" clip-path="url(#p6c9655f3ec)" style="fill: #88ccee; fill-opacity: 0.6; stroke: #ffffff; stroke-opacity: 0.6; stroke-width: 0.339411"/>
    <path d="M 83.797849 117.565867 
L 84.858509 116.505207 
L 85.919169 117.565867 
L 86.979829 116.505207 
L 85.919169 115.444547 
L 86.979829 114.383887 
L 85.919169 113.323227 
L 84.858509 114.383887 
L 83.797849 113.323227 
L 82.737189 114.383887 
L 83.797849 115.444547 
L 82.737189 116.505207 
z
" clip-path="url(#p6c9655f3ec)" style="fill: #88ccee; fill-opacity: 0.6; stroke: #ffffff; stroke-opacity: 0.6; stroke-width: 0.339411"/>
    <path d="M 113.019702 153.628513 
L 114.080362 152.567853 
L 115.141022 153.628513 
L 116.201682 152.567853 
L 115.141022 151.507192 
L 116.201682 150.446532 
L 115.141022 149.385872 
L 114.080362 150.446532 
L 113.019702 149.385872 
L 111.959042 150.446532 
L 113.019702 151.507192 
L 111.959042 152.567853 
z
" clip-path="url(#p6c9655f3ec)" style="fill: #88ccee; fill-opacity: 0.6; stroke: #ffffff; stroke-opacity: 0.6; stroke-width: 0.339411"/>
    <path d="M 92.582743 118.513135 
L 93.643403 117.452475 
L 94.704063 118.513135 
L 95.764723 117.452475 
L 94.704063 116.391815 
L 95.764723 115.331155 
L 94.704063 114.270495 
L 93.643403 115.331155 
L 92.582743 114.270495 
L 91.522082 115.331155 
L 92.582743 116.391815 
L 91.522082 117.452475 
z
" clip-path="url(#p6c9655f3ec)" style="fill: #88ccee; fill-opacity: 0.6; stroke: #ffffff; stroke-opacity: 0.6; stroke-width: 0.339411"/>
    <path d="M 92.489023 168.194179 
L 93.549683 167.133519 
L 94.610344 168.194179 
L 95.671004 167.133519 
L 94.610344 166.072859 
L 95.671004 165.012198 
L 94.610344 163.951538 
L 93.549683 165.012198 
L 92.489023 163.951538 
L 91.428363 165.012198 
L 92.489023 166.072859 
L 91.428363 167.133519 
z
" clip-path="url(#p6c9655f3ec)" style="fill: #88ccee; fill-opacity: 0.6; stroke: #ffffff; stroke-opacity: 0.6; stroke-width: 0.339411"/>
    <path d="M 135.319825 115.350464 
L 136.380485 114.289804 
L 137.441146 115.350464 
L 138.501806 114.289804 
L 137.441146 113.229144 
L 138.501806 112.168484 
L 137.441146 111.107824 
L 136.380485 112.168484 
L 135.319825 111.107824 
L 134.259165 112.168484 
L 135.319825 113.229144 
L 134.259165 114.289804 
z
" clip-path="url(#p6c9655f3ec)" style="fill: #88ccee; fill-opacity: 0.6; stroke: #ffffff; stroke-opacity: 0.6; stroke-width: 0.339411"/>
    <path d="M 89.801591 170.290901 
L 90.862251 169.230241 
L 91.922911 170.290901 
L 92.983571 169.230241 
L 91.922911 168.169581 
L 92.983571 167.108921 
L 91.922911 166.04826 
L 90.862251 167.108921 
L 89.801591 166.04826 
L 88.74093 167.108921 
L 89.801591 168.169581 
L 88.74093 169.230241 
z
" clip-path="url(#p6c9655f3ec)" style="fill: #88ccee; fill-opacity: 0.6; stroke: #ffffff; stroke-opacity: 0.6; stroke-width: 0.339411"/>
    <path d="M 106.329708 147.331505 
L 107.390368 146.270845 
L 108.451028 147.331505 
L 109.511688 146.270845 
L 108.451028 145.210185 
L 109.511688 144.149525 
L 108.451028 143.088865 
L 107.390368 144.149525 
L 106.329708 143.088865 
L 105.269048 144.149525 
L 106.329708 145.210185 
L 105.269048 146.270845 
z
" clip-path="url(#p6c9655f3ec)" style="fill: #88ccee; fill-opacity: 0.6; stroke: #ffffff; stroke-opacity: 0.6; stroke-width: 0.339411"/>
    <path d="M 114.736675 129.77954 
L 115.797336 128.71888 
L 116.857996 129.77954 
L 117.918656 128.71888 
L 116.857996 127.658219 
L 117.918656 126.597559 
L 116.857996 125.536899 
L 115.797336 126.597559 
L 114.736675 125.536899 
L 113.676015 126.597559 
L 114.736675 127.658219 
L 113.676015 128.71888 
z
" clip-path="url(#p6c9655f3ec)" style="fill: #88ccee; fill-opacity: 0.6; stroke: #ffffff; stroke-opacity: 0.6; stroke-width: 0.339411"/>
    <path d="M 79.82079 114.254061 
L 80.881451 113.193401 
L 81.942111 114.254061 
L 83.002771 113.193401 
L 81.942111 112.132741 
L 83.002771 111.072081 
L 81.942111 110.011421 
L 80.881451 111.072081 
L 79.82079 110.011421 
L 78.76013 111.072081 
L 79.82079 112.132741 
L 78.76013 113.193401 
z
" clip-path="url(#p6c9655f3ec)" style="fill: #88ccee; fill-opacity: 0.6; stroke: #ffffff; stroke-opacity: 0.6; stroke-width: 0.339411"/>
    <path d="M 109.355704 174.340034 
L 110.416364 173.279374 
L 111.477024 174.340034 
L 112.537684 173.279374 
L 111.477024 172.218714 
L 112.537684 171.158054 
L 111.477024 170.097394 
L 110.416364 171.158054 
L 109.355704 170.097394 
L 108.295043 171.158054 
L 109.355704 172.218714 
L 108.295043 173.279374 
z
" clip-path="url(#p6c9655f3ec)" style="fill: #88ccee; fill-opacity: 0.6; stroke: #ffffff; stroke-opacity: 0.6; stroke-width: 0.339411"/>
    <path d="M 101.289344 158.170621 
L 102.350004 157.109961 
L 103.410664 158.170621 
L 104.471324 157.109961 
L 103.410664 156.049301 
L 104.471324 154.988641 
L 103.410664 153.927981 
L 102.350004 154.988641 
L 101.289344 153.927981 
L 100.228684 154.988641 
L 101.289344 156.049301 
L 100.228684 157.109961 
z
" clip-path="url(#p6c9655f3ec)" style="fill: #88ccee; fill-opacity: 0.6; stroke: #ffffff; stroke-opacity: 0.6; stroke-width: 0.339411"/>
    <path d="M 84.319362 165.292797 
L 85.380022 164.232137 
L 86.440682 165.292797 
L 87.501342 164.232137 
L 86.440682 163.171477 
L 87.501342 162.110817 
L 86.440682 161.050156 
L 85.380022 162.110817 
L 84.319362 161.050156 
L 83.258702 162.110817 
L 84.319362 163.171477 
L 83.258702 164.232137 
z
" clip-path="url(#p6c9655f3ec)" style="fill: #88ccee; fill-opacity: 0.6; stroke: #ffffff; stroke-opacity: 0.6; stroke-width: 0.339411"/>
    <path d="M 109.728527 140.82031 
L 110.789187 139.75965 
L 111.849847 140.82031 
L 112.910507 139.75965 
L 111.849847 138.69899 
L 112.910507 137.63833 
L 111.849847 136.57767 
L 110.789187 137.63833 
L 109.728527 136.57767 
L 108.667866 137.63833 
L 109.728527 138.69899 
L 108.667866 139.75965 
z
" clip-path="url(#p6c9655f3ec)" style="fill: #88ccee; fill-opacity: 0.6; stroke: #ffffff; stroke-opacity: 0.6; stroke-width: 0.339411"/>
    <path d="M 104.243248 83.195204 
L 105.303908 82.134544 
L 106.364568 83.195204 
L 107.425228 82.134544 
L 106.364568 81.073884 
L 107.425228 80.013223 
L 106.364568 78.952563 
L 105.303908 80.013223 
L 104.243248 78.952563 
L 103.182588 80.013223 
L 104.243248 81.073884 
L 103.182588 82.134544 
z
" clip-path="url(#p6c9655f3ec)" style="fill: #88ccee; fill-opacity: 0.6; stroke: #ffffff; stroke-opacity: 0.6; stroke-width: 0.339411"/>
    <path d="M 97.403385 164.753078 
L 98.464046 163.692418 
L 99.524706 164.753078 
L 100.585366 163.692418 
L 99.524706 162.631758 
L 100.585366 161.571098 
L 99.524706 160.510438 
L 98.464046 161.571098 
L 97.403385 160.510438 
L 96.342725 161.571098 
L 97.403385 162.631758 
L 96.342725 163.692418 
z
" clip-path="url(#p6c9655f3ec)" style="fill: #88ccee; fill-opacity: 0.6; stroke: #ffffff; stroke-opacity: 0.6; stroke-width: 0.339411"/>
    <path d="M 97.224506 134.745499 
L 98.285166 133.684839 
L 99.345826 134.745499 
L 100.406486 133.684839 
L 99.345826 132.624179 
L 100.406486 131.563519 
L 99.345826 130.502859 
L 98.285166 131.563519 
L 97.224506 130.502859 
L 96.163846 131.563519 
L 97.224506 132.624179 
L 96.163846 133.684839 
z
" clip-path="url(#p6c9655f3ec)" style="fill: #88ccee; fill-opacity: 0.6; stroke: #ffffff; stroke-opacity: 0.6; stroke-width: 0.339411"/>
    <path d="M 84.503199 118.082296 
L 85.563859 117.021636 
L 86.624519 118.082296 
L 87.685179 117.021636 
L 86.624519 115.960976 
L 87.685179 114.900316 
L 86.624519 113.839656 
L 85.563859 114.900316 
L 84.503199 113.839656 
L 83.442538 114.900316 
L 84.503199 115.960976 
L 83.442538 117.021636 
z
" clip-path="url(#p6c9655f3ec)" style="fill: #88ccee; fill-opacity: 0.6; stroke: #ffffff; stroke-opacity: 0.6; stroke-width: 0.339411"/>
    <path d="M 103.010259 134.013229 
L 104.070919 132.952569 
L 105.131579 134.013229 
L 106.192239 132.952569 
L 105.131579 131.891908 
L 106.192239 130.831248 
L 105.131579 129.770588 
L 104.070919 130.831248 
L 103.010259 129.770588 
L 101.949599 130.831248 
L 103.010259 131.891908 
L 101.949599 132.952569 
z
" clip-path="url(#p6c9655f3ec)" style="fill: #88ccee; fill-opacity: 0.6; stroke: #ffffff; stroke-opacity: 0.6; stroke-width: 0.339411"/>
    <path d="M 90.86973 114.413128 
L 91.93039 113.352468 
L 92.99105 114.413128 
L 94.05171 113.352468 
L 92.99105 112.291808 
L 94.05171 111.231148 
L 92.99105 110.170488 
L 91.93039 111.231148 
L 90.86973 110.170488 
L 89.80907 111.231148 
L 90.86973 112.291808 
L 89.80907 113.352468 
z
" clip-path="url(#p6c9655f3ec)" style="fill: #88ccee; fill-opacity: 0.6; stroke: #ffffff; stroke-opacity: 0.6; stroke-width: 0.339411"/>
    <path d="M 98.404432 142.634169 
L 99.465092 141.573509 
L 100.525752 142.634169 
L 101.586412 141.573509 
L 100.525752 140.512849 
L 101.586412 139.452188 
L 100.525752 138.391528 
L 99.465092 139.452188 
L 98.404432 138.391528 
L 97.343772 139.452188 
L 98.404432 140.512849 
L 97.343772 141.573509 
z
" clip-path="url(#p6c9655f3ec)" style="fill: #88ccee; fill-opacity: 0.6; stroke: #ffffff; stroke-opacity: 0.6; stroke-width: 0.339411"/>
    <path d="M 90.915753 117.680759 
L 91.976413 116.620099 
L 93.037073 117.680759 
L 94.097733 116.620099 
L 93.037073 115.559438 
L 94.097733 114.498778 
L 93.037073 113.438118 
L 91.976413 114.498778 
L 90.915753 113.438118 
L 89.855093 114.498778 
L 90.915753 115.559438 
L 89.855093 116.620099 
z
" clip-path="url(#p6c9655f3ec)" style="fill: #88ccee; fill-opacity: 0.6; stroke: #ffffff; stroke-opacity: 0.6; stroke-width: 0.339411"/>
    <path d="M 98.168783 156.84854 
L 99.229444 155.78788 
L 100.290104 156.84854 
L 101.350764 155.78788 
L 100.290104 154.72722 
L 101.350764 153.66656 
L 100.290104 152.6059 
L 99.229444 153.66656 
L 98.168783 152.6059 
L 97.108123 153.66656 
L 98.168783 154.72722 
L 97.108123 155.78788 
z
" clip-path="url(#p6c9655f3ec)" style="fill: #88ccee; fill-opacity: 0.6; stroke: #ffffff; stroke-opacity: 0.6; stroke-width: 0.339411"/>
    <path d="M 90.44186 115.837252 
L 91.50252 114.776592 
L 92.56318 115.837252 
L 93.62384 114.776592 
L 92.56318 113.715932 
L 93.62384 112.655272 
L 92.56318 111.594612 
L 91.50252 112.655272 
L 90.44186 111.594612 
L 89.381199 112.655272 
L 90.44186 113.715932 
L 89.381199 114.776592 
z
" clip-path="url(#p6c9655f3ec)" style="fill: #88ccee; fill-opacity: 0.6; stroke: #ffffff; stroke-opacity: 0.6; stroke-width: 0.339411"/>
    <path d="M 127.021721 145.446133 
L 128.082381 144.385473 
L 129.143041 145.446133 
L 130.203702 144.385473 
L 129.143041 143.324813 
L 130.203702 142.264153 
L 129.143041 141.203492 
L 128.082381 142.264153 
L 127.021721 141.203492 
L 125.961061 142.264153 
L 127.021721 143.324813 
L 125.961061 144.385473 
z
" clip-path="url(#p6c9655f3ec)" style="fill: #88ccee; fill-opacity: 0.6; stroke: #ffffff; stroke-opacity: 0.6; stroke-width: 0.339411"/>
    <path d="M 92.768033 117.183381 
L 93.828693 116.122721 
L 94.889354 117.183381 
L 95.950014 116.122721 
L 94.889354 115.06206 
L 95.950014 114.0014 
L 94.889354 112.94074 
L 93.828693 114.0014 
L 92.768033 112.94074 
L 91.707373 114.0014 
L 92.768033 115.06206 
L 91.707373 116.122721 
z
" clip-path="url(#p6c9655f3ec)" style="fill: #88ccee; fill-opacity: 0.6; stroke: #ffffff; stroke-opacity: 0.6; stroke-width: 0.339411"/>
    <path d="M 89.867511 121.632759 
L 90.928172 120.572099 
L 91.988832 121.632759 
L 93.049492 120.572099 
L 91.988832 119.511438 
L 93.049492 118.450778 
L 91.988832 117.390118 
L 90.928172 118.450778 
L 89.867511 117.390118 
L 88.806851 118.450778 
L 89.867511 119.511438 
L 88.806851 120.572099 
z
" clip-path="url(#p6c9655f3ec)" style="fill: #88ccee; fill-opacity: 0.6; stroke: #ffffff; stroke-opacity: 0.6; stroke-width: 0.339411"/>
    <path d="M 99.303612 114.828614 
L 100.364273 113.767953 
L 101.424933 114.828614 
L 102.485593 113.767953 
L 101.424933 112.707293 
L 102.485593 111.646633 
L 101.424933 110.585973 
L 100.364273 111.646633 
L 99.303612 110.585973 
L 98.242952 111.646633 
L 99.303612 112.707293 
L 98.242952 113.767953 
z
" clip-path="url(#p6c9655f3ec)" style="fill: #88ccee; fill-opacity: 0.6; stroke: #ffffff; stroke-opacity: 0.6; stroke-width: 0.339411"/>
    <path d="M 78.508959 110.230255 
L 79.569619 109.169595 
L 80.630279 110.230255 
L 81.69094 109.169595 
L 80.630279 108.108935 
L 81.69094 107.048275 
L 80.630279 105.987615 
L 79.569619 107.048275 
L 78.508959 105.987615 
L 77.448299 107.048275 
L 78.508959 108.108935 
L 77.448299 109.169595 
z
" clip-path="url(#p6c9655f3ec)" style="fill: #88ccee; fill-opacity: 0.6; stroke: #ffffff; stroke-opacity: 0.6; stroke-width: 0.339411"/>
    <path d="M 152.904216 164.189901 
L 153.964876 163.129241 
L 155.025536 164.189901 
L 156.086197 163.129241 
L 155.025536 162.068581 
L 156.086197 161.007921 
L 155.025536 159.947261 
L 153.964876 161.007921 
L 152.904216 159.947261 
L 151.843556 161.007921 
L 152.904216 162.068581 
L 151.843556 163.129241 
z
" clip-path="url(#p6c9655f3ec)" style="fill: #88ccee; fill-opacity: 0.6; stroke: #ffffff; stroke-opacity: 0.6; stroke-width: 0.339411"/>
    <path d="M 89.563211 116.08445 
L 90.623871 115.02379 
L 91.684531 116.08445 
L 92.745192 115.02379 
L 91.684531 113.96313 
L 92.745192 112.90247 
L 91.684531 111.84181 
L 90.623871 112.90247 
L 89.563211 111.84181 
L 88.502551 112.90247 
L 89.563211 113.96313 
L 88.502551 115.02379 
z
" clip-path="url(#p6c9655f3ec)" style="fill: #88ccee; fill-opacity: 0.6; stroke: #ffffff; stroke-opacity: 0.6; stroke-width: 0.339411"/>
    <path d="M 112.700719 107.345404 
L 113.76138 106.284744 
L 114.82204 107.345404 
L 115.8827 106.284744 
L 114.82204 105.224083 
L 115.8827 104.163423 
L 114.82204 103.102763 
L 113.76138 104.163423 
L 112.700719 103.102763 
L 111.640059 104.163423 
L 112.700719 105.224083 
L 111.640059 106.284744 
z
" clip-path="url(#p6c9655f3ec)" style="fill: #88ccee; fill-opacity: 0.6; stroke: #ffffff; stroke-opacity: 0.6; stroke-width: 0.339411"/>
    <path d="M 88.196647 119.531447 
L 89.257308 118.470787 
L 90.317968 119.531447 
L 91.378628 118.470787 
L 90.317968 117.410127 
L 91.378628 116.349467 
L 90.317968 115.288806 
L 89.257308 116.349467 
L 88.196647 115.288806 
L 87.135987 116.349467 
L 88.196647 117.410127 
L 87.135987 118.470787 
z
" clip-path="url(#p6c9655f3ec)" style="fill: #88ccee; fill-opacity: 0.6; stroke: #ffffff; stroke-opacity: 0.6; stroke-width: 0.339411"/>
    <path d="M 91.197584 114.462406 
L 92.258244 113.401745 
L 93.318904 114.462406 
L 94.379564 113.401745 
L 93.318904 112.341085 
L 94.379564 111.280425 
L 93.318904 110.219765 
L 92.258244 111.280425 
L 91.197584 110.219765 
L 90.136924 111.280425 
L 91.197584 112.341085 
L 90.136924 113.401745 
z
" clip-path="url(#p6c9655f3ec)" style="fill: #88ccee; fill-opacity: 0.6; stroke: #ffffff; stroke-opacity: 0.6; stroke-width: 0.339411"/>
    <path d="M 99.220944 159.856207 
L 100.281605 158.795547 
L 101.342265 159.856207 
L 102.402925 158.795547 
L 101.342265 157.734887 
L 102.402925 156.674227 
L 101.342265 155.613567 
L 100.281605 156.674227 
L 99.220944 155.613567 
L 98.160284 156.674227 
L 99.220944 157.734887 
L 98.160284 158.795547 
z
" clip-path="url(#p6c9655f3ec)" style="fill: #88ccee; fill-opacity: 0.6; stroke: #ffffff; stroke-opacity: 0.6; stroke-width: 0.339411"/>
    <path d="M 85.178052 165.722192 
L 86.238712 164.661532 
L 87.299372 165.722192 
L 88.360032 164.661532 
L 87.299372 163.600872 
L 88.360032 162.540212 
L 87.299372 161.479552 
L 86.238712 162.540212 
L 85.178052 161.479552 
L 84.117392 162.540212 
L 85.178052 163.600872 
L 84.117392 164.661532 
z
" clip-path="url(#p6c9655f3ec)" style="fill: #88ccee; fill-opacity: 0.6; stroke: #ffffff; stroke-opacity: 0.6; stroke-width: 0.339411"/>
    <path d="M 82.92374 112.671115 
L 83.984401 111.610455 
L 85.045061 112.671115 
L 86.105721 111.610455 
L 85.045061 110.549795 
L 86.105721 109.489135 
L 85.045061 108.428475 
L 83.984401 109.489135 
L 82.92374 108.428475 
L 81.86308 109.489135 
L 82.92374 110.549795 
L 81.86308 111.610455 
z
" clip-path="url(#p6c9655f3ec)" style="fill: #88ccee; fill-opacity: 0.6; stroke: #ffffff; stroke-opacity: 0.6; stroke-width: 0.339411"/>
    <path d="M 118.428511 164.663281 
L 119.489171 163.602621 
L 120.549831 164.663281 
L 121.610491 163.602621 
L 120.549831 162.541961 
L 121.610491 161.4813 
L 120.549831 160.42064 
L 119.489171 161.4813 
L 118.428511 160.42064 
L 117.36785 161.4813 
L 118.428511 162.541961 
L 117.36785 163.602621 
z
" clip-path="url(#p6c9655f3ec)" style="fill: #88ccee; fill-opacity: 0.6; stroke: #ffffff; stroke-opacity: 0.6; stroke-width: 0.339411"/>
    <path d="M 98.065099 112.34693 
L 99.125759 111.28627 
L 100.18642 112.34693 
L 101.24708 111.28627 
L 100.18642 110.225609 
L 101.24708 109.164949 
L 100.18642 108.104289 
L 99.125759 109.164949 
L 98.065099 108.104289 
L 97.004439 109.164949 
L 98.065099 110.225609 
L 97.004439 111.28627 
z
" clip-path="url(#p6c9655f3ec)" style="fill: #88ccee; fill-opacity: 0.6; stroke: #ffffff; stroke-opacity: 0.6; stroke-width: 0.339411"/>
    <path d="M 84.68754 108.393083 
L 85.7482 107.332423 
L 86.80886 108.393083 
L 87.86952 107.332423 
L 86.80886 106.271763 
L 87.86952 105.211103 
L 86.80886 104.150443 
L 85.7482 105.211103 
L 84.68754 104.150443 
L 83.62688 105.211103 
L 84.68754 106.271763 
L 83.62688 107.332423 
z
" clip-path="url(#p6c9655f3ec)" style="fill: #88ccee; fill-opacity: 0.6; stroke: #ffffff; stroke-opacity: 0.6; stroke-width: 0.339411"/>
    <path d="M 106.56413 154.300152 
L 107.62479 153.239492 
L 108.68545 154.300152 
L 109.74611 153.239492 
L 108.68545 152.178831 
L 109.74611 151.118171 
L 108.68545 150.057511 
L 107.62479 151.118171 
L 106.56413 150.057511 
L 105.50347 151.118171 
L 106.56413 152.178831 
L 105.50347 153.239492 
z
" clip-path="url(#p6c9655f3ec)" style="fill: #88ccee; fill-opacity: 0.6; stroke: #ffffff; stroke-opacity: 0.6; stroke-width: 0.339411"/>
    <path d="M 82.615133 112.747438 
L 83.675793 111.686778 
L 84.736453 112.747438 
L 85.797113 111.686778 
L 84.736453 110.626118 
L 85.797113 109.565457 
L 84.736453 108.504797 
L 83.675793 109.565457 
L 82.615133 108.504797 
L 81.554472 109.565457 
L 82.615133 110.626118 
L 81.554472 111.686778 
z
" clip-path="url(#p6c9655f3ec)" style="fill: #88ccee; fill-opacity: 0.6; stroke: #ffffff; stroke-opacity: 0.6; stroke-width: 0.339411"/>
    <path d="M 84.815925 118.820531 
L 85.876586 117.759871 
L 86.937246 118.820531 
L 87.997906 117.759871 
L 86.937246 116.699211 
L 87.997906 115.638551 
L 86.937246 114.577891 
L 85.876586 115.638551 
L 84.815925 114.577891 
L 83.755265 115.638551 
L 84.815925 116.699211 
L 83.755265 117.759871 
z
" clip-path="url(#p6c9655f3ec)" style="fill: #88ccee; fill-opacity: 0.6; stroke: #ffffff; stroke-opacity: 0.6; stroke-width: 0.339411"/>
    <path d="M 87.556167 110.718311 
L 88.616827 109.657651 
L 89.677487 110.718311 
L 90.738147 109.657651 
L 89.677487 108.596991 
L 90.738147 107.536331 
L 89.677487 106.47567 
L 88.616827 107.536331 
L 87.556167 106.47567 
L 86.495507 107.536331 
L 87.556167 108.596991 
L 86.495507 109.657651 
z
" clip-path="url(#p6c9655f3ec)" style="fill: #88ccee; fill-opacity: 0.6; stroke: #ffffff; stroke-opacity: 0.6; stroke-width: 0.339411"/>
    <path d="M 108.236512 121.151821 
L 109.297172 120.091161 
L 110.357832 121.151821 
L 111.418492 120.091161 
L 110.357832 119.030501 
L 111.418492 117.96984 
L 110.357832 116.90918 
L 109.297172 117.96984 
L 108.236512 116.90918 
L 107.175852 117.96984 
L 108.236512 119.030501 
L 107.175852 120.091161 
z
" clip-path="url(#p6c9655f3ec)" style="fill: #88ccee; fill-opacity: 0.6; stroke: #ffffff; stroke-opacity: 0.6; stroke-width: 0.339411"/>
    <path d="M 77.576015 108.274358 
L 78.636676 107.213698 
L 79.697336 108.274358 
L 80.757996 107.213698 
L 79.697336 106.153038 
L 80.757996 105.092377 
L 79.697336 104.031717 
L 78.636676 105.092377 
L 77.576015 104.031717 
L 76.515355 105.092377 
L 77.576015 106.153038 
L 76.515355 107.213698 
z
" clip-path="url(#p6c9655f3ec)" style="fill: #88ccee; fill-opacity: 0.6; stroke: #ffffff; stroke-opacity: 0.6; stroke-width: 0.339411"/>
    <path d="M 130.426099 152.173722 
L 131.486759 151.113061 
L 132.547419 152.173722 
L 133.608079 151.113061 
L 132.547419 150.052401 
L 133.608079 148.991741 
L 132.547419 147.931081 
L 131.486759 148.991741 
L 130.426099 147.931081 
L 129.365438 148.991741 
L 130.426099 150.052401 
L 129.365438 151.113061 
z
" clip-path="url(#p6c9655f3ec)" style="fill: #88ccee; fill-opacity: 0.6; stroke: #ffffff; stroke-opacity: 0.6; stroke-width: 0.339411"/>
    <path d="M 101.233453 113.094572 
L 102.294113 112.033912 
L 103.354774 113.094572 
L 104.415434 112.033912 
L 103.354774 110.973251 
L 104.415434 109.912591 
L 103.354774 108.851931 
L 102.294113 109.912591 
L 101.233453 108.851931 
L 100.172793 109.912591 
L 101.233453 110.973251 
L 100.172793 112.033912 
z
" clip-path="url(#p6c9655f3ec)" style="fill: #88ccee; fill-opacity: 0.6; stroke: #ffffff; stroke-opacity: 0.6; stroke-width: 0.339411"/>
    <path d="M 106.570674 137.872045 
L 107.631335 136.811385 
L 108.691995 137.872045 
L 109.752655 136.811385 
L 108.691995 135.750725 
L 109.752655 134.690064 
L 108.691995 133.629404 
L 107.631335 134.690064 
L 106.570674 133.629404 
L 105.510014 134.690064 
L 106.570674 135.750725 
L 105.510014 136.811385 
z
" clip-path="url(#p6c9655f3ec)" style="fill: #88ccee; fill-opacity: 0.6; stroke: #ffffff; stroke-opacity: 0.6; stroke-width: 0.339411"/>
    <path d="M 93.190668 114.845566 
L 94.251328 113.784905 
L 95.311988 114.845566 
L 96.372648 113.784905 
L 95.311988 112.724245 
L 96.372648 111.663585 
L 95.311988 110.602925 
L 94.251328 111.663585 
L 93.190668 110.602925 
L 92.130007 111.663585 
L 93.190668 112.724245 
L 92.130007 113.784905 
z
" clip-path="url(#p6c9655f3ec)" style="fill: #88ccee; fill-opacity: 0.6; stroke: #ffffff; stroke-opacity: 0.6; stroke-width: 0.339411"/>
    <path d="M 102.119132 162.290356 
L 103.179792 161.229696 
L 104.240453 162.290356 
L 105.301113 161.229696 
L 104.240453 160.169036 
L 105.301113 159.108375 
L 104.240453 158.047715 
L 103.179792 159.108375 
L 102.119132 158.047715 
L 101.058472 159.108375 
L 102.119132 160.169036 
L 101.058472 161.229696 
z
" clip-path="url(#p6c9655f3ec)" style="fill: #88ccee; fill-opacity: 0.6; stroke: #ffffff; stroke-opacity: 0.6; stroke-width: 0.339411"/>
    <path d="M 103.852786 148.167991 
L 104.913446 147.107331 
L 105.974106 148.167991 
L 107.034766 147.107331 
L 105.974106 146.046671 
L 107.034766 144.986011 
L 105.974106 143.925351 
L 104.913446 144.986011 
L 103.852786 143.925351 
L 102.792126 144.986011 
L 103.852786 146.046671 
L 102.792126 147.107331 
z
" clip-path="url(#p6c9655f3ec)" style="fill: #88ccee; fill-opacity: 0.6; stroke: #ffffff; stroke-opacity: 0.6; stroke-width: 0.339411"/>
    <path d="M 86.956012 170.081664 
L 88.016672 169.021004 
L 89.077333 170.081664 
L 90.137993 169.021004 
L 89.077333 167.960344 
L 90.137993 166.899684 
L 89.077333 165.839024 
L 88.016672 166.899684 
L 86.956012 165.839024 
L 85.895352 166.899684 
L 86.956012 167.960344 
L 85.895352 169.021004 
z
" clip-path="url(#p6c9655f3ec)" style="fill: #88ccee; fill-opacity: 0.6; stroke: #ffffff; stroke-opacity: 0.6; stroke-width: 0.339411"/>
    <path d="M 107.144154 113.62348 
L 108.204814 112.56282 
L 109.265474 113.62348 
L 110.326134 112.56282 
L 109.265474 111.50216 
L 110.326134 110.4415 
L 109.265474 109.38084 
L 108.204814 110.4415 
L 107.144154 109.38084 
L 106.083494 110.4415 
L 107.144154 111.50216 
L 106.083494 112.56282 
z
" clip-path="url(#p6c9655f3ec)" style="fill: #88ccee; fill-opacity: 0.6; stroke: #ffffff; stroke-opacity: 0.6; stroke-width: 0.339411"/>
    <path d="M 94.967057 101.449062 
L 96.027717 100.388402 
L 97.088378 101.449062 
L 98.149038 100.388402 
L 97.088378 99.327742 
L 98.149038 98.267082 
L 97.088378 97.206421 
L 96.027717 98.267082 
L 94.967057 97.206421 
L 93.906397 98.267082 
L 94.967057 99.327742 
L 93.906397 100.388402 
z
" clip-path="url(#p6c9655f3ec)" style="fill: #88ccee; fill-opacity: 0.6; stroke: #ffffff; stroke-opacity: 0.6; stroke-width: 0.339411"/>
    <path d="M 106.154055 153.676765 
L 107.214715 152.616104 
L 108.275375 153.676765 
L 109.336036 152.616104 
L 108.275375 151.555444 
L 109.336036 150.494784 
L 108.275375 149.434124 
L 107.214715 150.494784 
L 106.154055 149.434124 
L 105.093395 150.494784 
L 106.154055 151.555444 
L 105.093395 152.616104 
z
" clip-path="url(#p6c9655f3ec)" style="fill: #88ccee; fill-opacity: 0.6; stroke: #ffffff; stroke-opacity: 0.6; stroke-width: 0.339411"/>
    <path d="M 117.416911 152.640437 
L 118.477571 151.579776 
L 119.538231 152.640437 
L 120.598891 151.579776 
L 119.538231 150.519116 
L 120.598891 149.458456 
L 119.538231 148.397796 
L 118.477571 149.458456 
L 117.416911 148.397796 
L 116.35625 149.458456 
L 117.416911 150.519116 
L 116.35625 151.579776 
z
" clip-path="url(#p6c9655f3ec)" style="fill: #88ccee; fill-opacity: 0.6; stroke: #ffffff; stroke-opacity: 0.6; stroke-width: 0.339411"/>
    <path d="M 112.251905 118.383171 
L 113.312566 117.32251 
L 114.373226 118.383171 
L 115.433886 117.32251 
L 114.373226 116.26185 
L 115.433886 115.20119 
L 114.373226 114.14053 
L 113.312566 115.20119 
L 112.251905 114.14053 
L 111.191245 115.20119 
L 112.251905 116.26185 
L 111.191245 117.32251 
z
" clip-path="url(#p6c9655f3ec)" style="fill: #88ccee; fill-opacity: 0.6; stroke: #ffffff; stroke-opacity: 0.6; stroke-width: 0.339411"/>
    <path d="M 96.994914 163.709951 
L 98.055574 162.649291 
L 99.116234 163.709951 
L 100.176894 162.649291 
L 99.116234 161.588631 
L 100.176894 160.527971 
L 99.116234 159.467311 
L 98.055574 160.527971 
L 96.994914 159.467311 
L 95.934253 160.527971 
L 96.994914 161.588631 
L 95.934253 162.649291 
z
" clip-path="url(#p6c9655f3ec)" style="fill: #88ccee; fill-opacity: 0.6; stroke: #ffffff; stroke-opacity: 0.6; stroke-width: 0.339411"/>
    <path d="M 79.836378 108.006009 
L 80.897038 106.945349 
L 81.957698 108.006009 
L 83.018359 106.945349 
L 81.957698 105.884689 
L 83.018359 104.824029 
L 81.957698 103.763368 
L 80.897038 104.824029 
L 79.836378 103.763368 
L 78.775718 104.824029 
L 79.836378 105.884689 
L 78.775718 106.945349 
z
" clip-path="url(#p6c9655f3ec)" style="fill: #88ccee; fill-opacity: 0.6; stroke: #ffffff; stroke-opacity: 0.6; stroke-width: 0.339411"/>
    <path d="M 87.698623 170.83173 
L 88.759284 169.77107 
L 89.819944 170.83173 
L 90.880604 169.77107 
L 89.819944 168.71041 
L 90.880604 167.64975 
L 89.819944 166.58909 
L 88.759284 167.64975 
L 87.698623 166.58909 
L 86.637963 167.64975 
L 87.698623 168.71041 
L 86.637963 169.77107 
z
" clip-path="url(#p6c9655f3ec)" style="fill: #88ccee; fill-opacity: 0.6; stroke: #ffffff; stroke-opacity: 0.6; stroke-width: 0.339411"/>
    <path d="M 94.160543 113.432368 
L 95.221204 112.371708 
L 96.281864 113.432368 
L 97.342524 112.371708 
L 96.281864 111.311048 
L 97.342524 110.250388 
L 96.281864 109.189727 
L 95.221204 110.250388 
L 94.160543 109.189727 
L 93.099883 110.250388 
L 94.160543 111.311048 
L 93.099883 112.371708 
z
" clip-path="url(#p6c9655f3ec)" style="fill: #88ccee; fill-opacity: 0.6; stroke: #ffffff; stroke-opacity: 0.6; stroke-width: 0.339411"/>
   </g>
   <g id="matplotlib.axis_1">
    <g id="xtick_1">
     <g id="line2d_1">
      <defs>
       <path id="md36d13795f" d="M 0 0 
L 0 8 
" style="stroke: #000000"/>
      </defs>
      <g>
       <use xlink:href="#md36d13795f" x="91.369555" y="183.896063" style="stroke: #000000"/>
      </g>
     </g>
     <g id="text_1">
      <!-- 10 -->
      <g transform="translate(78.706742 204.514188) scale(0.12 -0.12)">
       <defs>
        <path id="DejaVuSans-2212" d="M 678 2272 
L 4684 2272 
L 4684 1741 
L 678 1741 
L 678 2272 
z
" transform="scale(0.015625)"/>
        <path id="DejaVuSans-31" d="M 794 531 
L 1825 531 
L 1825 4091 
L 703 3866 
L 703 4441 
L 1819 4666 
L 2450 4666 
L 2450 531 
L 3481 531 
L 3481 0 
L 794 0 
L 794 531 
z
" transform="scale(0.015625)"/>
        <path id="DejaVuSans-30" d="M 2034 4250 
Q 1547 4250 1301 3770 
Q 1056 3291 1056 2328 
Q 1056 1369 1301 889 
Q 1547 409 2034 409 
Q 2525 409 2770 889 
Q 3016 1369 3016 2328 
Q 3016 3291 2770 3770 
Q 2525 4250 2034 4250 
z
M 2034 4750 
Q 2819 4750 3233 4129 
Q 3647 3509 3647 2328 
Q 3647 1150 3233 529 
Q 2819 -91 2034 -91 
Q 1250 -91 836 529 
Q 422 1150 422 2328 
Q 422 3509 836 4129 
Q 1250 4750 2034 4750 
z
" transform="scale(0.015625)"/>
       </defs>
       <use xlink:href="#DejaVuSans-2212"/>
       <use xlink:href="#DejaVuSans-31" x="83.789062"/>
       <use xlink:href="#DejaVuSans-30" x="147.412109"/>
      </g>
     </g>
    </g>
    <g id="xtick_2">
     <g id="line2d_2">
      <g>
       <use xlink:href="#md36d13795f" x="134.364087" y="183.896063" style="stroke: #000000"/>
      </g>
     </g>
     <g id="text_2">
      <!-- 0 -->
      <g transform="translate(130.546587 204.514188) scale(0.12 -0.12)">
       <use xlink:href="#DejaVuSans-30"/>
      </g>
     </g>
    </g>
    <g id="xtick_3">
     <g id="line2d_3">
      <g>
       <use xlink:href="#md36d13795f" x="177.35862" y="183.896063" style="stroke: #000000"/>
      </g>
     </g>
     <g id="text_3">
      <!-- 10 -->
      <g transform="translate(169.72362 204.514188) scale(0.12 -0.12)">
       <use xlink:href="#DejaVuSans-31"/>
       <use xlink:href="#DejaVuSans-30" x="63.623047"/>
      </g>
     </g>
    </g>
    <g id="xtick_4">
     <g id="line2d_4">
      <g>
       <use xlink:href="#md36d13795f" x="220.353152" y="183.896063" style="stroke: #000000"/>
      </g>
     </g>
     <g id="text_4">
      <!-- 20 -->
      <g transform="translate(212.718152 204.514188) scale(0.12 -0.12)">
       <defs>
        <path id="DejaVuSans-32" d="M 1228 531 
L 3431 531 
L 3431 0 
L 469 0 
L 469 531 
Q 828 903 1448 1529 
Q 2069 2156 2228 2338 
Q 2531 2678 2651 2914 
Q 2772 3150 2772 3378 
Q 2772 3750 2511 3984 
Q 2250 4219 1831 4219 
Q 1534 4219 1204 4116 
Q 875 4013 500 3803 
L 500 4441 
Q 881 4594 1212 4672 
Q 1544 4750 1819 4750 
Q 2544 4750 2975 4387 
Q 3406 4025 3406 3419 
Q 3406 3131 3298 2873 
Q 3191 2616 2906 2266 
Q 2828 2175 2409 1742 
Q 1991 1309 1228 531 
z
" transform="scale(0.015625)"/>
       </defs>
       <use xlink:href="#DejaVuSans-32"/>
       <use xlink:href="#DejaVuSans-30" x="63.623047"/>
      </g>
     </g>
    </g>
    <g id="text_5">
     <!-- PC 1 (16.16%) -->
     <g transform="translate(103.012822 220.127938) scale(0.12 -0.12)">
      <defs>
       <path id="DejaVuSans-50" d="M 1259 4147 
L 1259 2394 
L 2053 2394 
Q 2494 2394 2734 2622 
Q 2975 2850 2975 3272 
Q 2975 3691 2734 3919 
Q 2494 4147 2053 4147 
L 1259 4147 
z
M 628 4666 
L 2053 4666 
Q 2838 4666 3239 4311 
Q 3641 3956 3641 3272 
Q 3641 2581 3239 2228 
Q 2838 1875 2053 1875 
L 1259 1875 
L 1259 0 
L 628 0 
L 628 4666 
z
" transform="scale(0.015625)"/>
       <path id="DejaVuSans-43" d="M 4122 4306 
L 4122 3641 
Q 3803 3938 3442 4084 
Q 3081 4231 2675 4231 
Q 1875 4231 1450 3742 
Q 1025 3253 1025 2328 
Q 1025 1406 1450 917 
Q 1875 428 2675 428 
Q 3081 428 3442 575 
Q 3803 722 4122 1019 
L 4122 359 
Q 3791 134 3420 21 
Q 3050 -91 2638 -91 
Q 1578 -91 968 557 
Q 359 1206 359 2328 
Q 359 3453 968 4101 
Q 1578 4750 2638 4750 
Q 3056 4750 3426 4639 
Q 3797 4528 4122 4306 
z
" transform="scale(0.015625)"/>
       <path id="DejaVuSans-20" transform="scale(0.015625)"/>
       <path id="DejaVuSans-28" d="M 1984 4856 
Q 1566 4138 1362 3434 
Q 1159 2731 1159 2009 
Q 1159 1288 1364 580 
Q 1569 -128 1984 -844 
L 1484 -844 
Q 1016 -109 783 600 
Q 550 1309 550 2009 
Q 550 2706 781 3412 
Q 1013 4119 1484 4856 
L 1984 4856 
z
" transform="scale(0.015625)"/>
       <path id="DejaVuSans-36" d="M 2113 2584 
Q 1688 2584 1439 2293 
Q 1191 2003 1191 1497 
Q 1191 994 1439 701 
Q 1688 409 2113 409 
Q 2538 409 2786 701 
Q 3034 994 3034 1497 
Q 3034 2003 2786 2293 
Q 2538 2584 2113 2584 
z
M 3366 4563 
L 3366 3988 
Q 3128 4100 2886 4159 
Q 2644 4219 2406 4219 
Q 1781 4219 1451 3797 
Q 1122 3375 1075 2522 
Q 1259 2794 1537 2939 
Q 1816 3084 2150 3084 
Q 2853 3084 3261 2657 
Q 3669 2231 3669 1497 
Q 3669 778 3244 343 
Q 2819 -91 2113 -91 
Q 1303 -91 875 529 
Q 447 1150 447 2328 
Q 447 3434 972 4092 
Q 1497 4750 2381 4750 
Q 2619 4750 2861 4703 
Q 3103 4656 3366 4563 
z
" transform="scale(0.015625)"/>
       <path id="DejaVuSans-2e" d="M 684 794 
L 1344 794 
L 1344 0 
L 684 0 
L 684 794 
z
" transform="scale(0.015625)"/>
       <path id="DejaVuSans-25" d="M 4653 2053 
Q 4381 2053 4226 1822 
Q 4072 1591 4072 1178 
Q 4072 772 4226 539 
Q 4381 306 4653 306 
Q 4919 306 5073 539 
Q 5228 772 5228 1178 
Q 5228 1588 5073 1820 
Q 4919 2053 4653 2053 
z
M 4653 2450 
Q 5147 2450 5437 2106 
Q 5728 1763 5728 1178 
Q 5728 594 5436 251 
Q 5144 -91 4653 -91 
Q 4153 -91 3862 251 
Q 3572 594 3572 1178 
Q 3572 1766 3864 2108 
Q 4156 2450 4653 2450 
z
M 1428 4353 
Q 1159 4353 1004 4120 
Q 850 3888 850 3481 
Q 850 3069 1003 2837 
Q 1156 2606 1428 2606 
Q 1700 2606 1854 2837 
Q 2009 3069 2009 3481 
Q 2009 3884 1853 4118 
Q 1697 4353 1428 4353 
z
M 4250 4750 
L 4750 4750 
L 1831 -91 
L 1331 -91 
L 4250 4750 
z
M 1428 4750 
Q 1922 4750 2215 4408 
Q 2509 4066 2509 3481 
Q 2509 2891 2217 2550 
Q 1925 2209 1428 2209 
Q 931 2209 642 2551 
Q 353 2894 353 3481 
Q 353 4063 643 4406 
Q 934 4750 1428 4750 
z
" transform="scale(0.015625)"/>
       <path id="DejaVuSans-29" d="M 513 4856 
L 1013 4856 
Q 1481 4119 1714 3412 
Q 1947 2706 1947 2009 
Q 1947 1309 1714 600 
Q 1481 -109 1013 -844 
L 513 -844 
Q 928 -128 1133 580 
Q 1338 1288 1338 2009 
Q 1338 2731 1133 3434 
Q 928 4138 513 4856 
z
" transform="scale(0.015625)"/>
      </defs>
      <use xlink:href="#DejaVuSans-50"/>
      <use xlink:href="#DejaVuSans-43" x="60.302734"/>
      <use xlink:href="#DejaVuSans-20" x="130.126953"/>
      <use xlink:href="#DejaVuSans-31" x="161.914062"/>
      <use xlink:href="#DejaVuSans-20" x="225.537109"/>
      <use xlink:href="#DejaVuSans-28" x="257.324219"/>
      <use xlink:href="#DejaVuSans-31" x="296.337891"/>
      <use xlink:href="#DejaVuSans-36" x="359.960938"/>
      <use xlink:href="#DejaVuSans-2e" x="423.583984"/>
      <use xlink:href="#DejaVuSans-31" x="455.371094"/>
      <use xlink:href="#DejaVuSans-36" x="518.994141"/>
      <use xlink:href="#DejaVuSans-25" x="582.617188"/>
      <use xlink:href="#DejaVuSans-29" x="677.636719"/>
     </g>
    </g>
   </g>
   <g id="matplotlib.axis_2">
    <g id="ytick_1">
     <g id="line2d_5">
      <defs>
       <path id="m26ad08300d" d="M 0 0 
L -8 0 
" style="stroke: #000000"/>
      </defs>
      <g>
       <use xlink:href="#m26ad08300d" x="64.037638" y="156.564146" style="stroke: #000000"/>
      </g>
     </g>
     <g id="text_6">
      <!-- 10 -->
      <g transform="translate(27.212013 161.123208) scale(0.12 -0.12)">
       <use xlink:href="#DejaVuSans-2212"/>
       <use xlink:href="#DejaVuSans-31" x="83.789062"/>
       <use xlink:href="#DejaVuSans-30" x="147.412109"/>
      </g>
     </g>
    </g>
    <g id="ytick_2">
     <g id="line2d_6">
      <g>
       <use xlink:href="#m26ad08300d" x="64.037638" y="113.569614" style="stroke: #000000"/>
      </g>
     </g>
     <g id="text_7">
      <!-- 0 -->
      <g transform="translate(44.902638 118.128676) scale(0.12 -0.12)">
       <use xlink:href="#DejaVuSans-30"/>
      </g>
     </g>
    </g>
    <g id="ytick_3">
     <g id="line2d_7">
      <g>
       <use xlink:href="#m26ad08300d" x="64.037638" y="70.575081" style="stroke: #000000"/>
      </g>
     </g>
     <g id="text_8">
      <!-- 10 -->
      <g transform="translate(37.267638 75.134144) scale(0.12 -0.12)">
       <use xlink:href="#DejaVuSans-31"/>
       <use xlink:href="#DejaVuSans-30" x="63.623047"/>
      </g>
     </g>
    </g>
    <g id="ytick_4">
     <g id="line2d_8">
      <g>
       <use xlink:href="#m26ad08300d" x="64.037638" y="27.580549" style="stroke: #000000"/>
      </g>
     </g>
     <g id="text_9">
      <!-- 20 -->
      <g transform="translate(37.267638 32.139611) scale(0.12 -0.12)">
       <use xlink:href="#DejaVuSans-32"/>
       <use xlink:href="#DejaVuSans-30" x="63.623047"/>
      </g>
     </g>
    </g>
    <g id="text_10">
     <!-- PC 2 (10.99%) -->
     <g transform="translate(20.716388 144.920878) rotate(-90) scale(0.12 -0.12)">
      <defs>
       <path id="DejaVuSans-39" d="M 703 97 
L 703 672 
Q 941 559 1184 500 
Q 1428 441 1663 441 
Q 2288 441 2617 861 
Q 2947 1281 2994 2138 
Q 2813 1869 2534 1725 
Q 2256 1581 1919 1581 
Q 1219 1581 811 2004 
Q 403 2428 403 3163 
Q 403 3881 828 4315 
Q 1253 4750 1959 4750 
Q 2769 4750 3195 4129 
Q 3622 3509 3622 2328 
Q 3622 1225 3098 567 
Q 2575 -91 1691 -91 
Q 1453 -91 1209 -44 
Q 966 3 703 97 
z
M 1959 2075 
Q 2384 2075 2632 2365 
Q 2881 2656 2881 3163 
Q 2881 3666 2632 3958 
Q 2384 4250 1959 4250 
Q 1534 4250 1286 3958 
Q 1038 3666 1038 3163 
Q 1038 2656 1286 2365 
Q 1534 2075 1959 2075 
z
" transform="scale(0.015625)"/>
      </defs>
      <use xlink:href="#DejaVuSans-50"/>
      <use xlink:href="#DejaVuSans-43" x="60.302734"/>
      <use xlink:href="#DejaVuSans-20" x="130.126953"/>
      <use xlink:href="#DejaVuSans-32" x="161.914062"/>
      <use xlink:href="#DejaVuSans-20" x="225.537109"/>
      <use xlink:href="#DejaVuSans-28" x="257.324219"/>
      <use xlink:href="#DejaVuSans-31" x="296.337891"/>
      <use xlink:href="#DejaVuSans-30" x="359.960938"/>
      <use xlink:href="#DejaVuSans-2e" x="423.583984"/>
      <use xlink:href="#DejaVuSans-39" x="455.371094"/>
      <use xlink:href="#DejaVuSans-39" x="518.994141"/>
      <use xlink:href="#DejaVuSans-25" x="582.617188"/>
      <use xlink:href="#DejaVuSans-29" x="677.636719"/>
     </g>
    </g>
   </g>
   <g id="patch_3">
    <path d="M 64.037638 183.896063 
L 64.037638 19.948819 
" style="fill: none; stroke: #000000; stroke-width: 2; stroke-linejoin: miter; stroke-linecap: square"/>
   </g>
   <g id="patch_4">
    <path d="M 64.037638 183.896063 
L 227.984882 183.896063 
" style="fill: none; stroke: #000000; stroke-width: 2; stroke-linejoin: miter; stroke-linecap: square"/>
   </g>
  </g>
 </g>
 <defs>
  <clipPath id="p6c9655f3ec">
   <rect x="64.037638" y="19.948819" width="163.947244" height="163.947244"/>
  </clipPath>
 </defs>
</svg>
