<?xml version="1.0" encoding="utf-8" standalone="no"?>
<!DOCTYPE svg PUBLIC "-//W3C//DTD SVG 1.1//EN"
  "http://www.w3.org/Graphics/SVG/1.1/DTD/svg11.dtd">
<svg xmlns:xlink="http://www.w3.org/1999/xlink" width="240.944882pt" height="240.944882pt" viewBox="0 0 240.944882 240.944882" xmlns="http://www.w3.org/2000/svg" version="1.1">
 <metadata>
  <rdf:RDF xmlns:dc="http://purl.org/dc/elements/1.1/" xmlns:cc="http://creativecommons.org/ns#" xmlns:rdf="http://www.w3.org/1999/02/22-rdf-syntax-ns#">
   <cc:Work>
    <dc:type rdf:resource="http://purl.org/dc/dcmitype/StillImage"/>
    <dc:date>2025-02-17T14:55:58.296843</dc:date>
    <dc:format>image/svg+xml</dc:format>
    <dc:creator>
     <cc:Agent>
      <dc:title>Matplotlib v3.6.2, https://matplotlib.org/</dc:title>
     </cc:Agent>
    </dc:creator>
   </cc:Work>
  </rdf:RDF>
 </metadata>
 <defs>
  <style type="text/css">*{stroke-linejoin: round; stroke-linecap: butt}</style>
 </defs>
 <g id="figure_1">
  <g id="patch_1">
   <path d="M 0 240.944882 
L 240.944882 240.944882 
L 240.944882 0 
L 0 0 
L 0 240.944882 
z
" style="fill: none"/>
  </g>
  <g id="axes_1">
   <g id="patch_2">
    <path d="M 48.183819 190.884882 
L 226.108701 190.884882 
L 226.108701 12.96 
L 48.183819 12.96 
L 48.183819 190.884882 
z
" style="fill: none"/>
   </g>
   <g id="PathCollection_1">
    <path d="M 151.038552 148.719264 
L 152.452765 148.719264 
L 152.452765 147.30505 
L 153.866979 147.30505 
L 153.866979 145.890837 
L 152.452765 145.890837 
L 152.452765 144.476623 
L 151.038552 144.476623 
L 151.038552 145.890837 
L 149.624338 145.890837 
L 149.624338 147.30505 
L 151.038552 147.30505 
z
" clip-path="url(#p78bb01f927)" style="fill: #882e72; fill-opacity: 0.6; stroke: #ffffff; stroke-opacity: 0.6; stroke-width: 0.339411"/>
    <path d="M 198.858623 103.282054 
L 200.272837 103.282054 
L 200.272837 101.867841 
L 201.68705 101.867841 
L 201.68705 100.453627 
L 200.272837 100.453627 
L 200.272837 99.039414 
L 198.858623 99.039414 
L 198.858623 100.453627 
L 197.444409 100.453627 
L 197.444409 101.867841 
L 198.858623 101.867841 
z
" clip-path="url(#p78bb01f927)" style="fill: #882e72; fill-opacity: 0.6; stroke: #ffffff; stroke-opacity: 0.6; stroke-width: 0.339411"/>
    <path d="M 210.434334 113.418227 
L 211.848548 113.418227 
L 211.848548 112.004013 
L 213.262761 112.004013 
L 213.262761 110.5898 
L 211.848548 110.5898 
L 211.848548 109.175586 
L 210.434334 109.175586 
L 210.434334 110.5898 
L 209.02012 110.5898 
L 209.02012 112.004013 
L 210.434334 112.004013 
z
" clip-path="url(#p78bb01f927)" style="fill: #882e72; fill-opacity: 0.6; stroke: #ffffff; stroke-opacity: 0.6; stroke-width: 0.339411"/>
    <path d="M 129.36889 175.64175 
L 130.783104 175.64175 
L 130.783104 174.227536 
L 132.197317 174.227536 
L 132.197317 172.813323 
L 130.783104 172.813323 
L 130.783104 171.399109 
L 129.36889 171.399109 
L 129.36889 172.813323 
L 127.954677 172.813323 
L 127.954677 174.227536 
L 129.36889 174.227536 
z
" clip-path="url(#p78bb01f927)" style="fill: #882e72; fill-opacity: 0.6; stroke: #ffffff; stroke-opacity: 0.6; stroke-width: 0.339411"/>
    <path d="M 155.645171 153.132221 
L 157.059385 153.132221 
L 157.059385 151.718008 
L 158.473599 151.718008 
L 158.473599 150.303794 
L 157.059385 150.303794 
L 157.059385 148.88958 
L 155.645171 148.88958 
L 155.645171 150.303794 
L 154.230958 150.303794 
L 154.230958 151.718008 
L 155.645171 151.718008 
z
" clip-path="url(#p78bb01f927)" style="fill: #882e72; fill-opacity: 0.6; stroke: #ffffff; stroke-opacity: 0.6; stroke-width: 0.339411"/>
    <path d="M 178.982474 114.439538 
L 180.396688 114.439538 
L 180.396688 113.025324 
L 181.810901 113.025324 
L 181.810901 111.61111 
L 180.396688 111.61111 
L 180.396688 110.196897 
L 178.982474 110.196897 
L 178.982474 111.61111 
L 177.56826 111.61111 
L 177.56826 113.025324 
L 178.982474 113.025324 
z
" clip-path="url(#p78bb01f927)" style="fill: #882e72; fill-opacity: 0.6; stroke: #ffffff; stroke-opacity: 0.6; stroke-width: 0.339411"/>
    <path d="M 134.614506 173.074182 
L 136.02872 173.074182 
L 136.02872 171.659969 
L 137.442934 171.659969 
L 137.442934 170.245755 
L 136.02872 170.245755 
L 136.02872 168.831542 
L 134.614506 168.831542 
L 134.614506 170.245755 
L 133.200293 170.245755 
L 133.200293 171.659969 
L 134.614506 171.659969 
z
" clip-path="url(#p78bb01f927)" style="fill: #882e72; fill-opacity: 0.6; stroke: #ffffff; stroke-opacity: 0.6; stroke-width: 0.339411"/>
    <path d="M 145.793314 115.91976 
L 147.207527 115.91976 
L 147.207527 114.505547 
L 148.621741 114.505547 
L 148.621741 113.091333 
L 147.207527 113.091333 
L 147.207527 111.67712 
L 145.793314 111.67712 
L 145.793314 113.091333 
L 144.3791 113.091333 
L 144.3791 114.505547 
L 145.793314 114.505547 
z
" clip-path="url(#p78bb01f927)" style="fill: #882e72; fill-opacity: 0.6; stroke: #ffffff; stroke-opacity: 0.6; stroke-width: 0.339411"/>
    <path d="M 178.724452 108.938058 
L 180.138665 108.938058 
L 180.138665 107.523844 
L 181.552879 107.523844 
L 181.552879 106.109631 
L 180.138665 106.109631 
L 180.138665 104.695417 
L 178.724452 104.695417 
L 178.724452 106.109631 
L 177.310238 106.109631 
L 177.310238 107.523844 
L 178.724452 107.523844 
z
" clip-path="url(#p78bb01f927)" style="fill: #882e72; fill-opacity: 0.6; stroke: #ffffff; stroke-opacity: 0.6; stroke-width: 0.339411"/>
    <path d="M 197.434877 101.442289 
L 198.84909 101.442289 
L 198.84909 100.028076 
L 200.263304 100.028076 
L 200.263304 98.613862 
L 198.84909 98.613862 
L 198.84909 97.199649 
L 197.434877 97.199649 
L 197.434877 98.613862 
L 196.020663 98.613862 
L 196.020663 100.028076 
L 197.434877 100.028076 
z
" clip-path="url(#p78bb01f927)" style="fill: #882e72; fill-opacity: 0.6; stroke: #ffffff; stroke-opacity: 0.6; stroke-width: 0.339411"/>
    <path d="M 133.557903 165.549786 
L 134.972116 165.549786 
L 134.972116 164.135573 
L 136.38633 164.135573 
L 136.38633 162.721359 
L 134.972116 162.721359 
L 134.972116 161.307146 
L 133.557903 161.307146 
L 133.557903 162.721359 
L 132.143689 162.721359 
L 132.143689 164.135573 
L 133.557903 164.135573 
z
" clip-path="url(#p78bb01f927)" style="fill: #882e72; fill-opacity: 0.6; stroke: #ffffff; stroke-opacity: 0.6; stroke-width: 0.339411"/>
    <path d="M 127.58352 179.761423 
L 128.997734 179.761423 
L 128.997734 178.347209 
L 130.411947 178.347209 
L 130.411947 176.932996 
L 128.997734 176.932996 
L 128.997734 175.518782 
L 127.58352 175.518782 
L 127.58352 176.932996 
L 126.169306 176.932996 
L 126.169306 178.347209 
L 127.58352 178.347209 
z
" clip-path="url(#p78bb01f927)" style="fill: #882e72; fill-opacity: 0.6; stroke: #ffffff; stroke-opacity: 0.6; stroke-width: 0.339411"/>
    <path d="M 203.210504 111.965691 
L 204.624718 111.965691 
L 204.624718 110.551477 
L 206.038931 110.551477 
L 206.038931 109.137264 
L 204.624718 109.137264 
L 204.624718 107.72305 
L 203.210504 107.72305 
L 203.210504 109.137264 
L 201.796291 109.137264 
L 201.796291 110.551477 
L 203.210504 110.551477 
z
" clip-path="url(#p78bb01f927)" style="fill: #882e72; fill-opacity: 0.6; stroke: #ffffff; stroke-opacity: 0.6; stroke-width: 0.339411"/>
    <path d="M 119.761114 179.624265 
L 121.175327 179.624265 
L 121.175327 178.210051 
L 122.589541 178.210051 
L 122.589541 176.795838 
L 121.175327 176.795838 
L 121.175327 175.381624 
L 119.761114 175.381624 
L 119.761114 176.795838 
L 118.3469 176.795838 
L 118.3469 178.210051 
L 119.761114 178.210051 
z
" clip-path="url(#p78bb01f927)" style="fill: #882e72; fill-opacity: 0.6; stroke: #ffffff; stroke-opacity: 0.6; stroke-width: 0.339411"/>
    <path d="M 157.021941 145.99147 
L 158.436154 145.99147 
L 158.436154 144.577256 
L 159.850368 144.577256 
L 159.850368 143.163042 
L 158.436154 143.163042 
L 158.436154 141.748829 
L 157.021941 141.748829 
L 157.021941 143.163042 
L 155.607727 143.163042 
L 155.607727 144.577256 
L 157.021941 144.577256 
z
" clip-path="url(#p78bb01f927)" style="fill: #882e72; fill-opacity: 0.6; stroke: #ffffff; stroke-opacity: 0.6; stroke-width: 0.339411"/>
    <path d="M 108.841109 162.593504 
L 110.255323 162.593504 
L 110.255323 161.179291 
L 111.669536 161.179291 
L 111.669536 159.765077 
L 110.255323 159.765077 
L 110.255323 158.350863 
L 108.841109 158.350863 
L 108.841109 159.765077 
L 107.426896 159.765077 
L 107.426896 161.179291 
L 108.841109 161.179291 
z
" clip-path="url(#p78bb01f927)" style="fill: #882e72; fill-opacity: 0.6; stroke: #ffffff; stroke-opacity: 0.6; stroke-width: 0.339411"/>
    <path d="M 159.568244 148.454582 
L 160.982458 148.454582 
L 160.982458 147.040368 
L 162.396671 147.040368 
L 162.396671 145.626155 
L 160.982458 145.626155 
L 160.982458 144.211941 
L 159.568244 144.211941 
L 159.568244 145.626155 
L 158.154031 145.626155 
L 158.154031 147.040368 
L 159.568244 147.040368 
z
" clip-path="url(#p78bb01f927)" style="fill: #882e72; fill-opacity: 0.6; stroke: #ffffff; stroke-opacity: 0.6; stroke-width: 0.339411"/>
    <path d="M 170.704846 120.706359 
L 172.11906 120.706359 
L 172.11906 119.292145 
L 173.533273 119.292145 
L 173.533273 117.877932 
L 172.11906 117.877932 
L 172.11906 116.463718 
L 170.704846 116.463718 
L 170.704846 117.877932 
L 169.290633 117.877932 
L 169.290633 119.292145 
L 170.704846 119.292145 
z
" clip-path="url(#p78bb01f927)" style="fill: #882e72; fill-opacity: 0.6; stroke: #ffffff; stroke-opacity: 0.6; stroke-width: 0.339411"/>
    <path d="M 123.009194 109.022872 
L 124.423408 109.022872 
L 124.423408 107.608659 
L 125.837621 107.608659 
L 125.837621 106.194445 
L 124.423408 106.194445 
L 124.423408 104.780232 
L 123.009194 104.780232 
L 123.009194 106.194445 
L 121.594981 106.194445 
L 121.594981 107.608659 
L 123.009194 107.608659 
z
" clip-path="url(#p78bb01f927)" style="fill: #882e72; fill-opacity: 0.6; stroke: #ffffff; stroke-opacity: 0.6; stroke-width: 0.339411"/>
    <path d="M 106.943566 175.621243 
L 108.35778 175.621243 
L 108.35778 174.207029 
L 109.771993 174.207029 
L 109.771993 172.792816 
L 108.35778 172.792816 
L 108.35778 171.378602 
L 106.943566 171.378602 
L 106.943566 172.792816 
L 105.529352 172.792816 
L 105.529352 174.207029 
L 106.943566 174.207029 
z
" clip-path="url(#p78bb01f927)" style="fill: #882e72; fill-opacity: 0.6; stroke: #ffffff; stroke-opacity: 0.6; stroke-width: 0.339411"/>
    <path d="M 134.377745 112.563703 
L 135.791958 112.563703 
L 135.791958 111.149489 
L 137.206172 111.149489 
L 137.206172 109.735276 
L 135.791958 109.735276 
L 135.791958 108.321062 
L 134.377745 108.321062 
L 134.377745 109.735276 
L 132.963531 109.735276 
L 132.963531 111.149489 
L 134.377745 111.149489 
z
" clip-path="url(#p78bb01f927)" style="fill: #882e72; fill-opacity: 0.6; stroke: #ffffff; stroke-opacity: 0.6; stroke-width: 0.339411"/>
    <path d="M 210.37165 110.175394 
L 211.785863 110.175394 
L 211.785863 108.76118 
L 213.200077 108.76118 
L 213.200077 107.346967 
L 211.785863 107.346967 
L 211.785863 105.932753 
L 210.37165 105.932753 
L 210.37165 107.346967 
L 208.957436 107.346967 
L 208.957436 108.76118 
L 210.37165 108.76118 
z
" clip-path="url(#p78bb01f927)" style="fill: #882e72; fill-opacity: 0.6; stroke: #ffffff; stroke-opacity: 0.6; stroke-width: 0.339411"/>
    <path d="M 155.349317 155.774391 
L 156.763531 155.774391 
L 156.763531 154.360178 
L 158.177744 154.360178 
L 158.177744 152.945964 
L 156.763531 152.945964 
L 156.763531 151.531751 
L 155.349317 151.531751 
L 155.349317 152.945964 
L 153.935103 152.945964 
L 153.935103 154.360178 
L 155.349317 154.360178 
z
" clip-path="url(#p78bb01f927)" style="fill: #882e72; fill-opacity: 0.6; stroke: #ffffff; stroke-opacity: 0.6; stroke-width: 0.339411"/>
    <path d="M 202.652438 104.365048 
L 204.066652 104.365048 
L 204.066652 102.950834 
L 205.480865 102.950834 
L 205.480865 101.536621 
L 204.066652 101.536621 
L 204.066652 100.122407 
L 202.652438 100.122407 
L 202.652438 101.536621 
L 201.238225 101.536621 
L 201.238225 102.950834 
L 202.652438 102.950834 
z
" clip-path="url(#p78bb01f927)" style="fill: #882e72; fill-opacity: 0.6; stroke: #ffffff; stroke-opacity: 0.6; stroke-width: 0.339411"/>
    <path d="M 109.79184 173.003416 
L 111.206053 173.003416 
L 111.206053 171.589202 
L 112.620267 171.589202 
L 112.620267 170.174989 
L 111.206053 170.174989 
L 111.206053 168.760775 
L 109.79184 168.760775 
L 109.79184 170.174989 
L 108.377626 170.174989 
L 108.377626 171.589202 
L 109.79184 171.589202 
z
" clip-path="url(#p78bb01f927)" style="fill: #882e72; fill-opacity: 0.6; stroke: #ffffff; stroke-opacity: 0.6; stroke-width: 0.339411"/>
    <path d="M 122.710865 157.766155 
L 124.125079 157.766155 
L 124.125079 156.351942 
L 125.539293 156.351942 
L 125.539293 154.937728 
L 124.125079 154.937728 
L 124.125079 153.523515 
L 122.710865 153.523515 
L 122.710865 154.937728 
L 121.296652 154.937728 
L 121.296652 156.351942 
L 122.710865 156.351942 
z
" clip-path="url(#p78bb01f927)" style="fill: #882e72; fill-opacity: 0.6; stroke: #ffffff; stroke-opacity: 0.6; stroke-width: 0.339411"/>
    <path d="M 148.093088 157.401563 
L 149.507301 157.401563 
L 149.507301 155.987349 
L 150.921515 155.987349 
L 150.921515 154.573136 
L 149.507301 154.573136 
L 149.507301 153.158922 
L 148.093088 153.158922 
L 148.093088 154.573136 
L 146.678874 154.573136 
L 146.678874 155.987349 
L 148.093088 155.987349 
z
" clip-path="url(#p78bb01f927)" style="fill: #882e72; fill-opacity: 0.6; stroke: #ffffff; stroke-opacity: 0.6; stroke-width: 0.339411"/>
    <path d="M 200.251221 111.167881 
L 201.665434 111.167881 
L 201.665434 109.753668 
L 203.079648 109.753668 
L 203.079648 108.339454 
L 201.665434 108.339454 
L 201.665434 106.925241 
L 200.251221 106.925241 
L 200.251221 108.339454 
L 198.837007 108.339454 
L 198.837007 109.753668 
L 200.251221 109.753668 
z
" clip-path="url(#p78bb01f927)" style="fill: #882e72; fill-opacity: 0.6; stroke: #ffffff; stroke-opacity: 0.6; stroke-width: 0.339411"/>
    <path d="M 212.156815 111.948529 
L 213.571028 111.948529 
L 213.571028 110.534315 
L 214.985242 110.534315 
L 214.985242 109.120102 
L 213.571028 109.120102 
L 213.571028 107.705888 
L 212.156815 107.705888 
L 212.156815 109.120102 
L 210.742601 109.120102 
L 210.742601 110.534315 
L 212.156815 110.534315 
z
" clip-path="url(#p78bb01f927)" style="fill: #882e72; fill-opacity: 0.6; stroke: #ffffff; stroke-opacity: 0.6; stroke-width: 0.339411"/>
    <path d="M 121.832507 107.02237 
L 123.246721 107.02237 
L 123.246721 105.608156 
L 124.660934 105.608156 
L 124.660934 104.193943 
L 123.246721 104.193943 
L 123.246721 102.779729 
L 121.832507 102.779729 
L 121.832507 104.193943 
L 120.418294 104.193943 
L 120.418294 105.608156 
L 121.832507 105.608156 
z
" clip-path="url(#p78bb01f927)" style="fill: #882e72; fill-opacity: 0.6; stroke: #ffffff; stroke-opacity: 0.6; stroke-width: 0.339411"/>
    <path d="M 111.04993 173.230554 
L 112.464144 173.230554 
L 112.464144 171.81634 
L 113.878358 171.81634 
L 113.878358 170.402127 
L 112.464144 170.402127 
L 112.464144 168.987913 
L 111.04993 168.987913 
L 111.04993 170.402127 
L 109.635717 170.402127 
L 109.635717 171.81634 
L 111.04993 171.81634 
z
" clip-path="url(#p78bb01f927)" style="fill: #882e72; fill-opacity: 0.6; stroke: #ffffff; stroke-opacity: 0.6; stroke-width: 0.339411"/>
    <path d="M 206.472902 116.807597 
L 207.887116 116.807597 
L 207.887116 115.393384 
L 209.30133 115.393384 
L 209.30133 113.97917 
L 207.887116 113.97917 
L 207.887116 112.564957 
L 206.472902 112.564957 
L 206.472902 113.97917 
L 205.058689 113.97917 
L 205.058689 115.393384 
L 206.472902 115.393384 
z
" clip-path="url(#p78bb01f927)" style="fill: #882e72; fill-opacity: 0.6; stroke: #ffffff; stroke-opacity: 0.6; stroke-width: 0.339411"/>
    <path d="M 130.17652 169.539554 
L 131.590733 169.539554 
L 131.590733 168.12534 
L 133.004947 168.12534 
L 133.004947 166.711126 
L 131.590733 166.711126 
L 131.590733 165.296913 
L 130.17652 165.296913 
L 130.17652 166.711126 
L 128.762306 166.711126 
L 128.762306 168.12534 
L 130.17652 168.12534 
z
" clip-path="url(#p78bb01f927)" style="fill: #882e72; fill-opacity: 0.6; stroke: #ffffff; stroke-opacity: 0.6; stroke-width: 0.339411"/>
    <path d="M 113.039977 177.459847 
L 114.454191 177.459847 
L 114.454191 176.045633 
L 115.868404 176.045633 
L 115.868404 174.631419 
L 114.454191 174.631419 
L 114.454191 173.217206 
L 113.039977 173.217206 
L 113.039977 174.631419 
L 111.625763 174.631419 
L 111.625763 176.045633 
L 113.039977 176.045633 
z
" clip-path="url(#p78bb01f927)" style="fill: #882e72; fill-opacity: 0.6; stroke: #ffffff; stroke-opacity: 0.6; stroke-width: 0.339411"/>
    <path d="M 139.700096 165.952106 
L 141.11431 165.952106 
L 141.11431 164.537892 
L 142.528523 164.537892 
L 142.528523 163.123679 
L 141.11431 163.123679 
L 141.11431 161.709465 
L 139.700096 161.709465 
L 139.700096 163.123679 
L 138.285883 163.123679 
L 138.285883 164.537892 
L 139.700096 164.537892 
z
" clip-path="url(#p78bb01f927)" style="fill: #882e72; fill-opacity: 0.6; stroke: #ffffff; stroke-opacity: 0.6; stroke-width: 0.339411"/>
    <path d="M 158.664818 152.522301 
L 160.079032 152.522301 
L 160.079032 151.108087 
L 161.493245 151.108087 
L 161.493245 149.693873 
L 160.079032 149.693873 
L 160.079032 148.27966 
L 158.664818 148.27966 
L 158.664818 149.693873 
L 157.250605 149.693873 
L 157.250605 151.108087 
L 158.664818 151.108087 
z
" clip-path="url(#p78bb01f927)" style="fill: #882e72; fill-opacity: 0.6; stroke: #ffffff; stroke-opacity: 0.6; stroke-width: 0.339411"/>
    <path d="M 112.554453 163.327183 
L 113.968666 163.327183 
L 113.968666 161.912969 
L 115.38288 161.912969 
L 115.38288 160.498755 
L 113.968666 160.498755 
L 113.968666 159.084542 
L 112.554453 159.084542 
L 112.554453 160.498755 
L 111.140239 160.498755 
L 111.140239 161.912969 
L 112.554453 161.912969 
z
" clip-path="url(#p78bb01f927)" style="fill: #882e72; fill-opacity: 0.6; stroke: #ffffff; stroke-opacity: 0.6; stroke-width: 0.339411"/>
    <path d="M 114.191945 176.893795 
L 115.606159 176.893795 
L 115.606159 175.479582 
L 117.020372 175.479582 
L 117.020372 174.065368 
L 115.606159 174.065368 
L 115.606159 172.651155 
L 114.191945 172.651155 
L 114.191945 174.065368 
L 112.777732 174.065368 
L 112.777732 175.479582 
L 114.191945 175.479582 
z
" clip-path="url(#p78bb01f927)" style="fill: #882e72; fill-opacity: 0.6; stroke: #ffffff; stroke-opacity: 0.6; stroke-width: 0.339411"/>
    <path d="M 126.683175 170.082614 
L 128.097388 170.082614 
L 128.097388 168.6684 
L 129.511602 168.6684 
L 129.511602 167.254187 
L 128.097388 167.254187 
L 128.097388 165.839973 
L 126.683175 165.839973 
L 126.683175 167.254187 
L 125.268961 167.254187 
L 125.268961 168.6684 
L 126.683175 168.6684 
z
" clip-path="url(#p78bb01f927)" style="fill: #882e72; fill-opacity: 0.6; stroke: #ffffff; stroke-opacity: 0.6; stroke-width: 0.339411"/>
    <path d="M 131.679016 172.713512 
L 133.093229 172.713512 
L 133.093229 171.299299 
L 134.507443 171.299299 
L 134.507443 169.885085 
L 133.093229 169.885085 
L 133.093229 168.470872 
L 131.679016 168.470872 
L 131.679016 169.885085 
L 130.264802 169.885085 
L 130.264802 171.299299 
L 131.679016 171.299299 
z
" clip-path="url(#p78bb01f927)" style="fill: #882e72; fill-opacity: 0.6; stroke: #ffffff; stroke-opacity: 0.6; stroke-width: 0.339411"/>
    <path d="M 102.654563 169.677239 
L 104.068777 169.677239 
L 104.068777 168.263026 
L 105.48299 168.263026 
L 105.48299 166.848812 
L 104.068777 166.848812 
L 104.068777 165.434599 
L 102.654563 165.434599 
L 102.654563 166.848812 
L 101.24035 166.848812 
L 101.24035 168.263026 
L 102.654563 168.263026 
z
" clip-path="url(#p78bb01f927)" style="fill: #882e72; fill-opacity: 0.6; stroke: #ffffff; stroke-opacity: 0.6; stroke-width: 0.339411"/>
    <path d="M 203.007488 112.873147 
L 204.421702 112.873147 
L 204.421702 111.458934 
L 205.835915 111.458934 
L 205.835915 110.04472 
L 204.421702 110.04472 
L 204.421702 108.630506 
L 203.007488 108.630506 
L 203.007488 110.04472 
L 201.593275 110.04472 
L 201.593275 111.458934 
L 203.007488 111.458934 
z
" clip-path="url(#p78bb01f927)" style="fill: #882e72; fill-opacity: 0.6; stroke: #ffffff; stroke-opacity: 0.6; stroke-width: 0.339411"/>
    <path d="M 211.948588 110.639389 
L 213.362802 110.639389 
L 213.362802 109.225175 
L 214.777016 109.225175 
L 214.777016 107.810962 
L 213.362802 107.810962 
L 213.362802 106.396748 
L 211.948588 106.396748 
L 211.948588 107.810962 
L 210.534375 107.810962 
L 210.534375 109.225175 
L 211.948588 109.225175 
z
" clip-path="url(#p78bb01f927)" style="fill: #882e72; fill-opacity: 0.6; stroke: #ffffff; stroke-opacity: 0.6; stroke-width: 0.339411"/>
    <path d="M 121.836041 177.692017 
L 123.250254 177.692017 
L 123.250254 176.277804 
L 124.664468 176.277804 
L 124.664468 174.86359 
L 123.250254 174.86359 
L 123.250254 173.449376 
L 121.836041 173.449376 
L 121.836041 174.86359 
L 120.421827 174.86359 
L 120.421827 176.277804 
L 121.836041 176.277804 
z
" clip-path="url(#p78bb01f927)" style="fill: #882e72; fill-opacity: 0.6; stroke: #ffffff; stroke-opacity: 0.6; stroke-width: 0.339411"/>
    <path d="M 129.00164 171.404165 
L 130.415854 171.404165 
L 130.415854 169.989952 
L 131.830067 169.989952 
L 131.830067 168.575738 
L 130.415854 168.575738 
L 130.415854 167.161524 
L 129.00164 167.161524 
L 129.00164 168.575738 
L 127.587427 168.575738 
L 127.587427 169.989952 
L 129.00164 169.989952 
z
" clip-path="url(#p78bb01f927)" style="fill: #882e72; fill-opacity: 0.6; stroke: #ffffff; stroke-opacity: 0.6; stroke-width: 0.339411"/>
    <path d="M 175.394641 114.280719 
L 176.808855 114.280719 
L 176.808855 112.866505 
L 178.223068 112.866505 
L 178.223068 111.452292 
L 176.808855 111.452292 
L 176.808855 110.038078 
L 175.394641 110.038078 
L 175.394641 111.452292 
L 173.980427 111.452292 
L 173.980427 112.866505 
L 175.394641 112.866505 
z
" clip-path="url(#p78bb01f927)" style="fill: #882e72; fill-opacity: 0.6; stroke: #ffffff; stroke-opacity: 0.6; stroke-width: 0.339411"/>
    <path d="M 184.040832 108.068044 
L 185.455046 108.068044 
L 185.455046 106.65383 
L 186.869259 106.65383 
L 186.869259 105.239617 
L 185.455046 105.239617 
L 185.455046 103.825403 
L 184.040832 103.825403 
L 184.040832 105.239617 
L 182.626619 105.239617 
L 182.626619 106.65383 
L 184.040832 106.65383 
z
" clip-path="url(#p78bb01f927)" style="fill: #882e72; fill-opacity: 0.6; stroke: #ffffff; stroke-opacity: 0.6; stroke-width: 0.339411"/>
    <path d="M 138.108957 165.19431 
L 139.52317 165.19431 
L 139.52317 163.780097 
L 140.937384 163.780097 
L 140.937384 162.365883 
L 139.52317 162.365883 
L 139.52317 160.95167 
L 138.108957 160.95167 
L 138.108957 162.365883 
L 136.694743 162.365883 
L 136.694743 163.780097 
L 138.108957 163.780097 
z
" clip-path="url(#p78bb01f927)" style="fill: #882e72; fill-opacity: 0.6; stroke: #ffffff; stroke-opacity: 0.6; stroke-width: 0.339411"/>
    <path d="M 197.928594 112.297023 
L 199.342807 112.297023 
L 199.342807 110.882809 
L 200.757021 110.882809 
L 200.757021 109.468596 
L 199.342807 109.468596 
L 199.342807 108.054382 
L 197.928594 108.054382 
L 197.928594 109.468596 
L 196.51438 109.468596 
L 196.51438 110.882809 
L 197.928594 110.882809 
z
" clip-path="url(#p78bb01f927)" style="fill: #882e72; fill-opacity: 0.6; stroke: #ffffff; stroke-opacity: 0.6; stroke-width: 0.339411"/>
    <path d="M 153.428792 151.229955 
L 154.843006 151.229955 
L 154.843006 149.815742 
L 156.257219 149.815742 
L 156.257219 148.401528 
L 154.843006 148.401528 
L 154.843006 146.987315 
L 153.428792 146.987315 
L 153.428792 148.401528 
L 152.014579 148.401528 
L 152.014579 149.815742 
L 153.428792 149.815742 
z
" clip-path="url(#p78bb01f927)" style="fill: #882e72; fill-opacity: 0.6; stroke: #ffffff; stroke-opacity: 0.6; stroke-width: 0.339411"/>
    <path d="M 118.795364 109.825105 
L 120.209578 109.825105 
L 120.209578 108.410891 
L 121.623791 108.410891 
L 121.623791 106.996678 
L 120.209578 106.996678 
L 120.209578 105.582464 
L 118.795364 105.582464 
L 118.795364 106.996678 
L 117.381151 106.996678 
L 117.381151 108.410891 
L 118.795364 108.410891 
z
" clip-path="url(#p78bb01f927)" style="fill: #882e72; fill-opacity: 0.6; stroke: #ffffff; stroke-opacity: 0.6; stroke-width: 0.339411"/>
    <path d="M 154.82425 159.638159 
L 156.238463 159.638159 
L 156.238463 158.223946 
L 157.652677 158.223946 
L 157.652677 156.809732 
L 156.238463 156.809732 
L 156.238463 155.395519 
L 154.82425 155.395519 
L 154.82425 156.809732 
L 153.410036 156.809732 
L 153.410036 158.223946 
L 154.82425 158.223946 
z
" clip-path="url(#p78bb01f927)" style="fill: #882e72; fill-opacity: 0.6; stroke: #ffffff; stroke-opacity: 0.6; stroke-width: 0.339411"/>
    <path d="M 120.911097 106.44841 
L 122.325311 106.44841 
L 122.325311 105.034197 
L 123.739525 105.034197 
L 123.739525 103.619983 
L 122.325311 103.619983 
L 122.325311 102.205769 
L 120.911097 102.205769 
L 120.911097 103.619983 
L 119.496884 103.619983 
L 119.496884 105.034197 
L 120.911097 105.034197 
z
" clip-path="url(#p78bb01f927)" style="fill: #882e72; fill-opacity: 0.6; stroke: #ffffff; stroke-opacity: 0.6; stroke-width: 0.339411"/>
    <path d="M 135.268444 164.910183 
L 136.682657 164.910183 
L 136.682657 163.495969 
L 138.096871 163.495969 
L 138.096871 162.081756 
L 136.682657 162.081756 
L 136.682657 160.667542 
L 135.268444 160.667542 
L 135.268444 162.081756 
L 133.85423 162.081756 
L 133.85423 163.495969 
L 135.268444 163.495969 
z
" clip-path="url(#p78bb01f927)" style="fill: #882e72; fill-opacity: 0.6; stroke: #ffffff; stroke-opacity: 0.6; stroke-width: 0.339411"/>
    <path d="M 125.755743 174.479755 
L 127.169957 174.479755 
L 127.169957 173.065541 
L 128.58417 173.065541 
L 128.58417 171.651328 
L 127.169957 171.651328 
L 127.169957 170.237114 
L 125.755743 170.237114 
L 125.755743 171.651328 
L 124.34153 171.651328 
L 124.34153 173.065541 
L 125.755743 173.065541 
z
" clip-path="url(#p78bb01f927)" style="fill: #882e72; fill-opacity: 0.6; stroke: #ffffff; stroke-opacity: 0.6; stroke-width: 0.339411"/>
    <path d="M 113.870685 170.342134 
L 115.284898 170.342134 
L 115.284898 168.927921 
L 116.699112 168.927921 
L 116.699112 167.513707 
L 115.284898 167.513707 
L 115.284898 166.099494 
L 113.870685 166.099494 
L 113.870685 167.513707 
L 112.456471 167.513707 
L 112.456471 168.927921 
L 113.870685 168.927921 
z
" clip-path="url(#p78bb01f927)" style="fill: #882e72; fill-opacity: 0.6; stroke: #ffffff; stroke-opacity: 0.6; stroke-width: 0.339411"/>
    <path d="M 103.211689 165.937876 
L 104.625903 165.937876 
L 104.625903 164.523662 
L 106.040116 164.523662 
L 106.040116 163.109449 
L 104.625903 163.109449 
L 104.625903 161.695235 
L 103.211689 161.695235 
L 103.211689 163.109449 
L 101.797476 163.109449 
L 101.797476 164.523662 
L 103.211689 164.523662 
z
" clip-path="url(#p78bb01f927)" style="fill: #882e72; fill-opacity: 0.6; stroke: #ffffff; stroke-opacity: 0.6; stroke-width: 0.339411"/>
    <path d="M 107.695564 167.50288 
L 109.109777 167.50288 
L 109.109777 166.088667 
L 110.523991 166.088667 
L 110.523991 164.674453 
L 109.109777 164.674453 
L 109.109777 163.26024 
L 107.695564 163.26024 
L 107.695564 164.674453 
L 106.28135 164.674453 
L 106.28135 166.088667 
L 107.695564 166.088667 
z
" clip-path="url(#p78bb01f927)" style="fill: #882e72; fill-opacity: 0.6; stroke: #ffffff; stroke-opacity: 0.6; stroke-width: 0.339411"/>
    <path d="M 118.921126 112.291021 
L 120.33534 112.291021 
L 120.33534 110.876808 
L 121.749553 110.876808 
L 121.749553 109.462594 
L 120.33534 109.462594 
L 120.33534 108.048381 
L 118.921126 108.048381 
L 118.921126 109.462594 
L 117.506913 109.462594 
L 117.506913 110.876808 
L 118.921126 110.876808 
z
" clip-path="url(#p78bb01f927)" style="fill: #882e72; fill-opacity: 0.6; stroke: #ffffff; stroke-opacity: 0.6; stroke-width: 0.339411"/>
    <path d="M 156.824926 152.241573 
L 158.239139 152.241573 
L 158.239139 150.827359 
L 159.653353 150.827359 
L 159.653353 149.413146 
L 158.239139 149.413146 
L 158.239139 147.998932 
L 156.824926 147.998932 
L 156.824926 149.413146 
L 155.410712 149.413146 
L 155.410712 150.827359 
L 156.824926 150.827359 
z
" clip-path="url(#p78bb01f927)" style="fill: #882e72; fill-opacity: 0.6; stroke: #ffffff; stroke-opacity: 0.6; stroke-width: 0.339411"/>
    <path d="M 158.312182 156.500457 
L 159.726396 156.500457 
L 159.726396 155.086243 
L 161.140609 155.086243 
L 161.140609 153.67203 
L 159.726396 153.67203 
L 159.726396 152.257816 
L 158.312182 152.257816 
L 158.312182 153.67203 
L 156.897968 153.67203 
L 156.897968 155.086243 
L 158.312182 155.086243 
z
" clip-path="url(#p78bb01f927)" style="fill: #882e72; fill-opacity: 0.6; stroke: #ffffff; stroke-opacity: 0.6; stroke-width: 0.339411"/>
    <path d="M 177.081391 108.202939 
L 178.495604 108.202939 
L 178.495604 106.788726 
L 179.909818 106.788726 
L 179.909818 105.374512 
L 178.495604 105.374512 
L 178.495604 103.960299 
L 177.081391 103.960299 
L 177.081391 105.374512 
L 175.667177 105.374512 
L 175.667177 106.788726 
L 177.081391 106.788726 
z
" clip-path="url(#p78bb01f927)" style="fill: #882e72; fill-opacity: 0.6; stroke: #ffffff; stroke-opacity: 0.6; stroke-width: 0.339411"/>
    <path d="M 181.622837 105.687389 
L 183.03705 105.687389 
L 183.03705 104.273175 
L 184.451264 104.273175 
L 184.451264 102.858962 
L 183.03705 102.858962 
L 183.03705 101.444748 
L 181.622837 101.444748 
L 181.622837 102.858962 
L 180.208623 102.858962 
L 180.208623 104.273175 
L 181.622837 104.273175 
z
" clip-path="url(#p78bb01f927)" style="fill: #882e72; fill-opacity: 0.6; stroke: #ffffff; stroke-opacity: 0.6; stroke-width: 0.339411"/>
    <path d="M 81.925859 166.83493 
L 83.340073 166.83493 
L 83.340073 165.420717 
L 84.754287 165.420717 
L 84.754287 164.006503 
L 83.340073 164.006503 
L 83.340073 162.59229 
L 81.925859 162.59229 
L 81.925859 164.006503 
L 80.511646 164.006503 
L 80.511646 165.420717 
L 81.925859 165.420717 
z
" clip-path="url(#p78bb01f927)" style="fill: #882e72; fill-opacity: 0.6; stroke: #ffffff; stroke-opacity: 0.6; stroke-width: 0.339411"/>
    <path d="M 99.202357 158.618956 
L 101.002357 155.618956 
L 99.202357 152.618956 
L 97.402357 155.618956 
z
" clip-path="url(#p78bb01f927)" style="fill: #1965b0; fill-opacity: 0.6; stroke: #ffffff; stroke-opacity: 0.6; stroke-width: 0.339411"/>
    <path d="M 79.028104 150.10846 
L 80.828104 147.10846 
L 79.028104 144.10846 
L 77.228104 147.10846 
z
" clip-path="url(#p78bb01f927)" style="fill: #1965b0; fill-opacity: 0.6; stroke: #ffffff; stroke-opacity: 0.6; stroke-width: 0.339411"/>
    <path d="M 183.091295 114.658921 
L 184.891295 111.658921 
L 183.091295 108.658921 
L 181.291295 111.658921 
z
" clip-path="url(#p78bb01f927)" style="fill: #1965b0; fill-opacity: 0.6; stroke: #ffffff; stroke-opacity: 0.6; stroke-width: 0.339411"/>
    <path d="M 140.552479 151.493561 
L 142.352479 148.493561 
L 140.552479 145.493561 
L 138.752479 148.493561 
z
" clip-path="url(#p78bb01f927)" style="fill: #1965b0; fill-opacity: 0.6; stroke: #ffffff; stroke-opacity: 0.6; stroke-width: 0.339411"/>
    <path d="M 171.761906 129.809135 
L 173.561906 126.809135 
L 171.761906 123.809135 
L 169.961906 126.809135 
z
" clip-path="url(#p78bb01f927)" style="fill: #1965b0; fill-opacity: 0.6; stroke: #ffffff; stroke-opacity: 0.6; stroke-width: 0.339411"/>
    <path d="M 168.232584 102.786412 
L 170.032584 99.786412 
L 168.232584 96.786412 
L 166.432584 99.786412 
z
" clip-path="url(#p78bb01f927)" style="fill: #1965b0; fill-opacity: 0.6; stroke: #ffffff; stroke-opacity: 0.6; stroke-width: 0.339411"/>
    <path d="M 159.396042 108.680237 
L 161.196042 105.680237 
L 159.396042 102.680237 
L 157.596042 105.680237 
z
" clip-path="url(#p78bb01f927)" style="fill: #1965b0; fill-opacity: 0.6; stroke: #ffffff; stroke-opacity: 0.6; stroke-width: 0.339411"/>
    <path d="M 141.562157 129.930066 
L 143.362157 126.930066 
L 141.562157 123.930066 
L 139.762157 126.930066 
z
" clip-path="url(#p78bb01f927)" style="fill: #1965b0; fill-opacity: 0.6; stroke: #ffffff; stroke-opacity: 0.6; stroke-width: 0.339411"/>
    <path d="M 169.587916 118.228426 
L 171.387916 115.228426 
L 169.587916 112.228426 
L 167.787916 115.228426 
z
" clip-path="url(#p78bb01f927)" style="fill: #1965b0; fill-opacity: 0.6; stroke: #ffffff; stroke-opacity: 0.6; stroke-width: 0.339411"/>
    <path d="M 150.59804 134.31298 
L 152.39804 131.31298 
L 150.59804 128.31298 
L 148.79804 131.31298 
z
" clip-path="url(#p78bb01f927)" style="fill: #1965b0; fill-opacity: 0.6; stroke: #ffffff; stroke-opacity: 0.6; stroke-width: 0.339411"/>
    <path d="M 182.266241 113.938576 
L 184.066241 110.938576 
L 182.266241 107.938576 
L 180.466241 110.938576 
z
" clip-path="url(#p78bb01f927)" style="fill: #1965b0; fill-opacity: 0.6; stroke: #ffffff; stroke-opacity: 0.6; stroke-width: 0.339411"/>
    <path d="M 202.932403 106.394156 
L 204.732403 103.394156 
L 202.932403 100.394156 
L 201.132403 103.394156 
z
" clip-path="url(#p78bb01f927)" style="fill: #1965b0; fill-opacity: 0.6; stroke: #ffffff; stroke-opacity: 0.6; stroke-width: 0.339411"/>
    <path d="M 168.838216 123.34959 
L 170.638216 120.34959 
L 168.838216 117.34959 
L 167.038216 120.34959 
z
" clip-path="url(#p78bb01f927)" style="fill: #1965b0; fill-opacity: 0.6; stroke: #ffffff; stroke-opacity: 0.6; stroke-width: 0.339411"/>
    <path d="M 95.560571 151.530288 
L 97.360571 148.530288 
L 95.560571 145.530288 
L 93.760571 148.530288 
z
" clip-path="url(#p78bb01f927)" style="fill: #1965b0; fill-opacity: 0.6; stroke: #ffffff; stroke-opacity: 0.6; stroke-width: 0.339411"/>
    <path d="M 132.837494 138.651701 
L 134.637494 135.651701 
L 132.837494 132.651701 
L 131.037494 135.651701 
z
" clip-path="url(#p78bb01f927)" style="fill: #1965b0; fill-opacity: 0.6; stroke: #ffffff; stroke-opacity: 0.6; stroke-width: 0.339411"/>
    <path d="M 174.623453 108.452215 
L 176.423453 105.452215 
L 174.623453 102.452215 
L 172.823453 105.452215 
z
" clip-path="url(#p78bb01f927)" style="fill: #1965b0; fill-opacity: 0.6; stroke: #ffffff; stroke-opacity: 0.6; stroke-width: 0.339411"/>
    <path d="M 172.310322 119.809723 
L 174.110322 116.809723 
L 172.310322 113.809723 
L 170.510322 116.809723 
z
" clip-path="url(#p78bb01f927)" style="fill: #1965b0; fill-opacity: 0.6; stroke: #ffffff; stroke-opacity: 0.6; stroke-width: 0.339411"/>
    <path d="M 145.123137 123.339001 
L 146.923137 120.339001 
L 145.123137 117.339001 
L 143.323137 120.339001 
z
" clip-path="url(#p78bb01f927)" style="fill: #1965b0; fill-opacity: 0.6; stroke: #ffffff; stroke-opacity: 0.6; stroke-width: 0.339411"/>
    <path d="M 169.709686 123.058993 
L 171.509686 120.058993 
L 169.709686 117.058993 
L 167.909686 120.058993 
z
" clip-path="url(#p78bb01f927)" style="fill: #1965b0; fill-opacity: 0.6; stroke: #ffffff; stroke-opacity: 0.6; stroke-width: 0.339411"/>
    <path d="M 110.770078 126.36246 
L 112.570078 123.36246 
L 110.770078 120.36246 
L 108.970078 123.36246 
z
" clip-path="url(#p78bb01f927)" style="fill: #1965b0; fill-opacity: 0.6; stroke: #ffffff; stroke-opacity: 0.6; stroke-width: 0.339411"/>
    <path d="M 119.967173 130.511355 
L 121.767173 127.511355 
L 119.967173 124.511355 
L 118.167173 127.511355 
z
" clip-path="url(#p78bb01f927)" style="fill: #1965b0; fill-opacity: 0.6; stroke: #ffffff; stroke-opacity: 0.6; stroke-width: 0.339411"/>
    <path d="M 166.540293 118.99732 
L 168.340293 115.99732 
L 166.540293 112.99732 
L 164.740293 115.99732 
z
" clip-path="url(#p78bb01f927)" style="fill: #1965b0; fill-opacity: 0.6; stroke: #ffffff; stroke-opacity: 0.6; stroke-width: 0.339411"/>
    <path d="M 171.487485 115.976202 
L 173.287485 112.976202 
L 171.487485 109.976202 
L 169.687485 112.976202 
z
" clip-path="url(#p78bb01f927)" style="fill: #1965b0; fill-opacity: 0.6; stroke: #ffffff; stroke-opacity: 0.6; stroke-width: 0.339411"/>
    <path d="M 107.830221 111.273357 
L 109.630221 108.273357 
L 107.830221 105.273357 
L 106.030221 108.273357 
z
" clip-path="url(#p78bb01f927)" style="fill: #1965b0; fill-opacity: 0.6; stroke: #ffffff; stroke-opacity: 0.6; stroke-width: 0.339411"/>
    <path d="M 191.150567 112.398328 
L 192.950567 109.398328 
L 191.150567 106.398328 
L 189.350567 109.398328 
z
" clip-path="url(#p78bb01f927)" style="fill: #1965b0; fill-opacity: 0.6; stroke: #ffffff; stroke-opacity: 0.6; stroke-width: 0.339411"/>
    <path d="M 90.087385 145.288983 
L 91.887385 142.288983 
L 90.087385 139.288983 
L 88.287385 142.288983 
z
" clip-path="url(#p78bb01f927)" style="fill: #1965b0; fill-opacity: 0.6; stroke: #ffffff; stroke-opacity: 0.6; stroke-width: 0.339411"/>
    <path d="M 196.958188 112.869112 
L 198.758188 109.869112 
L 196.958188 106.869112 
L 195.158188 109.869112 
z
" clip-path="url(#p78bb01f927)" style="fill: #1965b0; fill-opacity: 0.6; stroke: #ffffff; stroke-opacity: 0.6; stroke-width: 0.339411"/>
    <path d="M 160.887979 105.17274 
L 162.687979 102.17274 
L 160.887979 99.17274 
L 159.087979 102.17274 
z
" clip-path="url(#p78bb01f927)" style="fill: #1965b0; fill-opacity: 0.6; stroke: #ffffff; stroke-opacity: 0.6; stroke-width: 0.339411"/>
    <path d="M 196.413172 108.122042 
L 198.213172 105.122042 
L 196.413172 102.122042 
L 194.613172 105.122042 
z
" clip-path="url(#p78bb01f927)" style="fill: #1965b0; fill-opacity: 0.6; stroke: #ffffff; stroke-opacity: 0.6; stroke-width: 0.339411"/>
    <path d="M 128.833538 130.142668 
L 130.633538 127.142668 
L 128.833538 124.142668 
L 127.033538 127.142668 
z
" clip-path="url(#p78bb01f927)" style="fill: #1965b0; fill-opacity: 0.6; stroke: #ffffff; stroke-opacity: 0.6; stroke-width: 0.339411"/>
    <path d="M 130.700445 152.635399 
L 132.500445 149.635399 
L 130.700445 146.635399 
L 128.900445 149.635399 
z
" clip-path="url(#p78bb01f927)" style="fill: #1965b0; fill-opacity: 0.6; stroke: #ffffff; stroke-opacity: 0.6; stroke-width: 0.339411"/>
    <path d="M 157.478927 126.576601 
L 159.278927 123.576601 
L 157.478927 120.576601 
L 155.678927 123.576601 
z
" clip-path="url(#p78bb01f927)" style="fill: #1965b0; fill-opacity: 0.6; stroke: #ffffff; stroke-opacity: 0.6; stroke-width: 0.339411"/>
    <path d="M 87.763748 161.206777 
L 89.563748 158.206777 
L 87.763748 155.206777 
L 85.963748 158.206777 
z
" clip-path="url(#p78bb01f927)" style="fill: #1965b0; fill-opacity: 0.6; stroke: #ffffff; stroke-opacity: 0.6; stroke-width: 0.339411"/>
    <path d="M 155.072622 135.57102 
L 156.872622 132.57102 
L 155.072622 129.57102 
L 153.272622 132.57102 
z
" clip-path="url(#p78bb01f927)" style="fill: #1965b0; fill-opacity: 0.6; stroke: #ffffff; stroke-opacity: 0.6; stroke-width: 0.339411"/>
    <path d="M 151.689514 151.363782 
L 153.489514 148.363782 
L 151.689514 145.363782 
L 149.889514 148.363782 
z
" clip-path="url(#p78bb01f927)" style="fill: #1965b0; fill-opacity: 0.6; stroke: #ffffff; stroke-opacity: 0.6; stroke-width: 0.339411"/>
    <path d="M 164.933655 105.462644 
L 166.733655 102.462644 
L 164.933655 99.462644 
L 163.133655 102.462644 
z
" clip-path="url(#p78bb01f927)" style="fill: #1965b0; fill-opacity: 0.6; stroke: #ffffff; stroke-opacity: 0.6; stroke-width: 0.339411"/>
    <path d="M 165.650459 103.89766 
L 167.450459 100.89766 
L 165.650459 97.89766 
L 163.850459 100.89766 
z
" clip-path="url(#p78bb01f927)" style="fill: #1965b0; fill-opacity: 0.6; stroke: #ffffff; stroke-opacity: 0.6; stroke-width: 0.339411"/>
    <path d="M 162.12191 126.458755 
L 163.92191 123.458755 
L 162.12191 120.458755 
L 160.32191 123.458755 
z
" clip-path="url(#p78bb01f927)" style="fill: #1965b0; fill-opacity: 0.6; stroke: #ffffff; stroke-opacity: 0.6; stroke-width: 0.339411"/>
    <path d="M 158.944708 142.263454 
L 160.744708 139.263454 
L 158.944708 136.263454 
L 157.144708 139.263454 
z
" clip-path="url(#p78bb01f927)" style="fill: #1965b0; fill-opacity: 0.6; stroke: #ffffff; stroke-opacity: 0.6; stroke-width: 0.339411"/>
    <path d="M 83.172454 159.67749 
L 84.972454 156.67749 
L 83.172454 153.67749 
L 81.372454 156.67749 
z
" clip-path="url(#p78bb01f927)" style="fill: #1965b0; fill-opacity: 0.6; stroke: #ffffff; stroke-opacity: 0.6; stroke-width: 0.339411"/>
    <path d="M 187.491981 117.886425 
L 189.291981 114.886425 
L 187.491981 111.886425 
L 185.691981 114.886425 
z
" clip-path="url(#p78bb01f927)" style="fill: #1965b0; fill-opacity: 0.6; stroke: #ffffff; stroke-opacity: 0.6; stroke-width: 0.339411"/>
    <path d="M 189.708302 107.095474 
L 191.508302 104.095474 
L 189.708302 101.095474 
L 187.908302 104.095474 
z
" clip-path="url(#p78bb01f927)" style="fill: #1965b0; fill-opacity: 0.6; stroke: #ffffff; stroke-opacity: 0.6; stroke-width: 0.339411"/>
    <path d="M 205.538807 115.63186 
L 207.338807 112.63186 
L 205.538807 109.63186 
L 203.738807 112.63186 
z
" clip-path="url(#p78bb01f927)" style="fill: #1965b0; fill-opacity: 0.6; stroke: #ffffff; stroke-opacity: 0.6; stroke-width: 0.339411"/>
    <path d="M 176.556081 106.655583 
L 178.356081 103.655583 
L 176.556081 100.655583 
L 174.756081 103.655583 
z
" clip-path="url(#p78bb01f927)" style="fill: #1965b0; fill-opacity: 0.6; stroke: #ffffff; stroke-opacity: 0.6; stroke-width: 0.339411"/>
    <path d="M 142.290866 114.472682 
L 144.090866 111.472682 
L 142.290866 108.472682 
L 140.490866 111.472682 
z
" clip-path="url(#p78bb01f927)" style="fill: #1965b0; fill-opacity: 0.6; stroke: #ffffff; stroke-opacity: 0.6; stroke-width: 0.339411"/>
    <path d="M 191.116665 111.210265 
L 192.916665 108.210265 
L 191.116665 105.210265 
L 189.316665 108.210265 
z
" clip-path="url(#p78bb01f927)" style="fill: #1965b0; fill-opacity: 0.6; stroke: #ffffff; stroke-opacity: 0.6; stroke-width: 0.339411"/>
    <path d="M 167.059794 123.931906 
L 168.859794 120.931906 
L 167.059794 117.931906 
L 165.259794 120.931906 
z
" clip-path="url(#p78bb01f927)" style="fill: #1965b0; fill-opacity: 0.6; stroke: #ffffff; stroke-opacity: 0.6; stroke-width: 0.339411"/>
    <path d="M 109.35964 130.865988 
L 111.15964 127.865988 
L 109.35964 124.865988 
L 107.55964 127.865988 
z
" clip-path="url(#p78bb01f927)" style="fill: #1965b0; fill-opacity: 0.6; stroke: #ffffff; stroke-opacity: 0.6; stroke-width: 0.339411"/>
    <path d="M 166.96139 134.086537 
L 168.76139 131.086537 
L 166.96139 128.086537 
L 165.16139 131.086537 
z
" clip-path="url(#p78bb01f927)" style="fill: #1965b0; fill-opacity: 0.6; stroke: #ffffff; stroke-opacity: 0.6; stroke-width: 0.339411"/>
    <path d="M 92.989994 172.745807 
L 94.789994 169.745807 
L 92.989994 166.745807 
L 91.189994 169.745807 
z
" clip-path="url(#p78bb01f927)" style="fill: #1965b0; fill-opacity: 0.6; stroke: #ffffff; stroke-opacity: 0.6; stroke-width: 0.339411"/>
    <path d="M 134.874674 156.747276 
L 136.674674 153.747276 
L 134.874674 150.747276 
L 133.074674 153.747276 
z
" clip-path="url(#p78bb01f927)" style="fill: #1965b0; fill-opacity: 0.6; stroke: #ffffff; stroke-opacity: 0.6; stroke-width: 0.339411"/>
    <path d="M 128.11349 141.052781 
L 129.91349 138.052781 
L 128.11349 135.052781 
L 126.31349 138.052781 
z
" clip-path="url(#p78bb01f927)" style="fill: #1965b0; fill-opacity: 0.6; stroke: #ffffff; stroke-opacity: 0.6; stroke-width: 0.339411"/>
    <path d="M 198.691865 120.262507 
L 200.491865 117.262507 
L 198.691865 114.262507 
L 196.891865 117.262507 
z
" clip-path="url(#p78bb01f927)" style="fill: #1965b0; fill-opacity: 0.6; stroke: #ffffff; stroke-opacity: 0.6; stroke-width: 0.339411"/>
    <path d="M 155.184684 111.16119 
L 156.984684 108.16119 
L 155.184684 105.16119 
L 153.384684 108.16119 
z
" clip-path="url(#p78bb01f927)" style="fill: #1965b0; fill-opacity: 0.6; stroke: #ffffff; stroke-opacity: 0.6; stroke-width: 0.339411"/>
    <path d="M 156.400558 113.78536 
L 158.200558 110.78536 
L 156.400558 107.78536 
L 154.600558 110.78536 
z
" clip-path="url(#p78bb01f927)" style="fill: #1965b0; fill-opacity: 0.6; stroke: #ffffff; stroke-opacity: 0.6; stroke-width: 0.339411"/>
    <path d="M 77.014686 170.283252 
L 78.814686 167.283252 
L 77.014686 164.283252 
L 75.214686 167.283252 
z
" clip-path="url(#p78bb01f927)" style="fill: #1965b0; fill-opacity: 0.6; stroke: #ffffff; stroke-opacity: 0.6; stroke-width: 0.339411"/>
    <path d="M 193.903661 112.421647 
L 195.703661 109.421647 
L 193.903661 106.421647 
L 192.103661 109.421647 
z
" clip-path="url(#p78bb01f927)" style="fill: #1965b0; fill-opacity: 0.6; stroke: #ffffff; stroke-opacity: 0.6; stroke-width: 0.339411"/>
    <path d="M 195.196003 113.670291 
L 196.996003 110.670291 
L 195.196003 107.670291 
L 193.396003 110.670291 
z
" clip-path="url(#p78bb01f927)" style="fill: #1965b0; fill-opacity: 0.6; stroke: #ffffff; stroke-opacity: 0.6; stroke-width: 0.339411"/>
    <path d="M 161.670336 121.214201 
L 163.470336 118.214201 
L 161.670336 115.214201 
L 159.870336 118.214201 
z
" clip-path="url(#p78bb01f927)" style="fill: #1965b0; fill-opacity: 0.6; stroke: #ffffff; stroke-opacity: 0.6; stroke-width: 0.339411"/>
    <path d="M 162.723 130.14089 
L 164.523 127.14089 
L 162.723 124.14089 
L 160.923 127.14089 
z
" clip-path="url(#p78bb01f927)" style="fill: #1965b0; fill-opacity: 0.6; stroke: #ffffff; stroke-opacity: 0.6; stroke-width: 0.339411"/>
    <path d="M 95.301972 162.848782 
L 97.101972 159.848782 
L 95.301972 156.848782 
L 93.501972 159.848782 
z
" clip-path="url(#p78bb01f927)" style="fill: #1965b0; fill-opacity: 0.6; stroke: #ffffff; stroke-opacity: 0.6; stroke-width: 0.339411"/>
    <path d="M 112.200341 150.450967 
L 114.000341 147.450967 
L 112.200341 144.450967 
L 110.400341 147.450967 
z
" clip-path="url(#p78bb01f927)" style="fill: #1965b0; fill-opacity: 0.6; stroke: #ffffff; stroke-opacity: 0.6; stroke-width: 0.339411"/>
    <path d="M 157.438285 130.419904 
L 159.238285 127.419904 
L 157.438285 124.419904 
L 155.638285 127.419904 
z
" clip-path="url(#p78bb01f927)" style="fill: #1965b0; fill-opacity: 0.6; stroke: #ffffff; stroke-opacity: 0.6; stroke-width: 0.339411"/>
    <path d="M 132.887959 143.977408 
L 130.766639 148.220049 
L 135.00928 148.220049 
z
" clip-path="url(#p78bb01f927)" style="fill: #7bafde; fill-opacity: 0.6; stroke: #ffffff; stroke-opacity: 0.6; stroke-width: 0.339411"/>
    <path d="M 119.272819 148.008992 
L 117.151499 152.251632 
L 121.39414 152.251632 
z
" clip-path="url(#p78bb01f927)" style="fill: #7bafde; fill-opacity: 0.6; stroke: #ffffff; stroke-opacity: 0.6; stroke-width: 0.339411"/>
    <path d="M 128.028363 107.722332 
L 125.907043 111.964972 
L 130.149684 111.964972 
z
" clip-path="url(#p78bb01f927)" style="fill: #7bafde; fill-opacity: 0.6; stroke: #ffffff; stroke-opacity: 0.6; stroke-width: 0.339411"/>
    <path d="M 88.236812 141.635063 
L 86.115492 145.877704 
L 90.358132 145.877704 
z
" clip-path="url(#p78bb01f927)" style="fill: #7bafde; fill-opacity: 0.6; stroke: #ffffff; stroke-opacity: 0.6; stroke-width: 0.339411"/>
    <path d="M 76.510619 153.171697 
L 74.389298 157.414338 
L 78.631939 157.414338 
z
" clip-path="url(#p78bb01f927)" style="fill: #7bafde; fill-opacity: 0.6; stroke: #ffffff; stroke-opacity: 0.6; stroke-width: 0.339411"/>
    <path d="M 109.770616 123.996913 
L 107.649295 128.239554 
L 111.891936 128.239554 
z
" clip-path="url(#p78bb01f927)" style="fill: #7bafde; fill-opacity: 0.6; stroke: #ffffff; stroke-opacity: 0.6; stroke-width: 0.339411"/>
    <path d="M 98.206993 166.470778 
L 96.085672 170.713419 
L 100.328313 170.713419 
z
" clip-path="url(#p78bb01f927)" style="fill: #7bafde; fill-opacity: 0.6; stroke: #ffffff; stroke-opacity: 0.6; stroke-width: 0.339411"/>
    <path d="M 121.163979 172.849801 
L 119.042659 177.092442 
L 123.285299 177.092442 
z
" clip-path="url(#p78bb01f927)" style="fill: #7bafde; fill-opacity: 0.6; stroke: #ffffff; stroke-opacity: 0.6; stroke-width: 0.339411"/>
    <path d="M 120.519809 116.264695 
L 118.398489 120.507335 
L 122.64113 120.507335 
z
" clip-path="url(#p78bb01f927)" style="fill: #7bafde; fill-opacity: 0.6; stroke: #ffffff; stroke-opacity: 0.6; stroke-width: 0.339411"/>
    <path d="M 178.196202 116.999293 
L 176.074882 121.241934 
L 180.317523 121.241934 
z
" clip-path="url(#p78bb01f927)" style="fill: #7bafde; fill-opacity: 0.6; stroke: #ffffff; stroke-opacity: 0.6; stroke-width: 0.339411"/>
    <path d="M 106.418445 163.589357 
L 104.297124 167.831998 
L 108.539765 167.831998 
z
" clip-path="url(#p78bb01f927)" style="fill: #7bafde; fill-opacity: 0.6; stroke: #ffffff; stroke-opacity: 0.6; stroke-width: 0.339411"/>
    <path d="M 119.152782 124.711193 
L 117.031461 128.953834 
L 121.274102 128.953834 
z
" clip-path="url(#p78bb01f927)" style="fill: #7bafde; fill-opacity: 0.6; stroke: #ffffff; stroke-opacity: 0.6; stroke-width: 0.339411"/>
    <path d="M 123.368615 144.35671 
L 121.247295 148.59935 
L 125.489935 148.59935 
z
" clip-path="url(#p78bb01f927)" style="fill: #7bafde; fill-opacity: 0.6; stroke: #ffffff; stroke-opacity: 0.6; stroke-width: 0.339411"/>
    <path d="M 92.216461 126.344655 
L 90.09514 130.587296 
L 94.337781 130.587296 
z
" clip-path="url(#p78bb01f927)" style="fill: #7bafde; fill-opacity: 0.6; stroke: #ffffff; stroke-opacity: 0.6; stroke-width: 0.339411"/>
    <path d="M 112.895444 118.760198 
L 110.774123 123.002839 
L 115.016764 123.002839 
z
" clip-path="url(#p78bb01f927)" style="fill: #7bafde; fill-opacity: 0.6; stroke: #ffffff; stroke-opacity: 0.6; stroke-width: 0.339411"/>
    <path d="M 134.641302 138.95762 
L 132.519982 143.200261 
L 136.762623 143.200261 
z
" clip-path="url(#p78bb01f927)" style="fill: #7bafde; fill-opacity: 0.6; stroke: #ffffff; stroke-opacity: 0.6; stroke-width: 0.339411"/>
    <path d="M 95.875941 149.913577 
L 93.754621 154.156218 
L 97.997262 154.156218 
z
" clip-path="url(#p78bb01f927)" style="fill: #7bafde; fill-opacity: 0.6; stroke: #ffffff; stroke-opacity: 0.6; stroke-width: 0.339411"/>
    <path d="M 89.147353 151.106354 
L 87.026033 155.348995 
L 91.268673 155.348995 
z
" clip-path="url(#p78bb01f927)" style="fill: #7bafde; fill-opacity: 0.6; stroke: #ffffff; stroke-opacity: 0.6; stroke-width: 0.339411"/>
    <path d="M 155.418974 131.144312 
L 153.297654 135.386953 
L 157.540295 135.386953 
z
" clip-path="url(#p78bb01f927)" style="fill: #7bafde; fill-opacity: 0.6; stroke: #ffffff; stroke-opacity: 0.6; stroke-width: 0.339411"/>
    <path d="M 128.407126 119.201573 
L 126.285805 123.444214 
L 130.528446 123.444214 
z
" clip-path="url(#p78bb01f927)" style="fill: #7bafde; fill-opacity: 0.6; stroke: #ffffff; stroke-opacity: 0.6; stroke-width: 0.339411"/>
    <path d="M 146.788915 133.741751 
L 144.667595 137.984391 
L 148.910235 137.984391 
z
" clip-path="url(#p78bb01f927)" style="fill: #7bafde; fill-opacity: 0.6; stroke: #ffffff; stroke-opacity: 0.6; stroke-width: 0.339411"/>
    <path d="M 79.743614 162.625496 
L 77.622294 166.868137 
L 81.864935 166.868137 
z
" clip-path="url(#p78bb01f927)" style="fill: #7bafde; fill-opacity: 0.6; stroke: #ffffff; stroke-opacity: 0.6; stroke-width: 0.339411"/>
    <path d="M 74.330252 150.081889 
L 72.208931 154.32453 
L 76.451572 154.32453 
z
" clip-path="url(#p78bb01f927)" style="fill: #7bafde; fill-opacity: 0.6; stroke: #ffffff; stroke-opacity: 0.6; stroke-width: 0.339411"/>
    <path d="M 146.294276 115.003723 
L 144.172956 119.246363 
L 148.415596 119.246363 
z
" clip-path="url(#p78bb01f927)" style="fill: #7bafde; fill-opacity: 0.6; stroke: #ffffff; stroke-opacity: 0.6; stroke-width: 0.339411"/>
    <path d="M 87.184469 165.563276 
L 85.063149 169.805917 
L 89.305789 169.805917 
z
" clip-path="url(#p78bb01f927)" style="fill: #7bafde; fill-opacity: 0.6; stroke: #ffffff; stroke-opacity: 0.6; stroke-width: 0.339411"/>
    <path d="M 138.133987 116.940258 
L 136.012667 121.182898 
L 140.255307 121.182898 
z
" clip-path="url(#p78bb01f927)" style="fill: #7bafde; fill-opacity: 0.6; stroke: #ffffff; stroke-opacity: 0.6; stroke-width: 0.339411"/>
    <path d="M 193.913909 117.679242 
L 191.792588 121.921883 
L 196.035229 121.921883 
z
" clip-path="url(#p78bb01f927)" style="fill: #7bafde; fill-opacity: 0.6; stroke: #ffffff; stroke-opacity: 0.6; stroke-width: 0.339411"/>
    <path d="M 72.461895 157.578251 
L 70.340575 161.820892 
L 74.583216 161.820892 
z
" clip-path="url(#p78bb01f927)" style="fill: #7bafde; fill-opacity: 0.6; stroke: #ffffff; stroke-opacity: 0.6; stroke-width: 0.339411"/>
    <path d="M 75.931528 148.584014 
L 73.810208 152.826655 
L 78.052849 152.826655 
z
" clip-path="url(#p78bb01f927)" style="fill: #7bafde; fill-opacity: 0.6; stroke: #ffffff; stroke-opacity: 0.6; stroke-width: 0.339411"/>
    <path d="M 124.745311 132.170919 
L 122.623991 136.41356 
L 126.866632 136.41356 
z
" clip-path="url(#p78bb01f927)" style="fill: #7bafde; fill-opacity: 0.6; stroke: #ffffff; stroke-opacity: 0.6; stroke-width: 0.339411"/>
    <path d="M 113.986911 147.841822 
L 111.86559 152.084463 
L 116.108231 152.084463 
z
" clip-path="url(#p78bb01f927)" style="fill: #7bafde; fill-opacity: 0.6; stroke: #ffffff; stroke-opacity: 0.6; stroke-width: 0.339411"/>
    <path d="M 123.738569 124.200838 
L 121.617248 128.443479 
L 125.859889 128.443479 
z
" clip-path="url(#p78bb01f927)" style="fill: #7bafde; fill-opacity: 0.6; stroke: #ffffff; stroke-opacity: 0.6; stroke-width: 0.339411"/>
    <path d="M 98.943826 139.451167 
L 96.822505 143.693808 
L 101.065146 143.693808 
z
" clip-path="url(#p78bb01f927)" style="fill: #7bafde; fill-opacity: 0.6; stroke: #ffffff; stroke-opacity: 0.6; stroke-width: 0.339411"/>
    <path d="M 104.751299 115.127444 
L 102.629979 119.370085 
L 106.872619 119.370085 
z
" clip-path="url(#p78bb01f927)" style="fill: #7bafde; fill-opacity: 0.6; stroke: #ffffff; stroke-opacity: 0.6; stroke-width: 0.339411"/>
    <path d="M 88.010337 132.722444 
L 85.889016 136.965085 
L 90.131657 136.965085 
z
" clip-path="url(#p78bb01f927)" style="fill: #7bafde; fill-opacity: 0.6; stroke: #ffffff; stroke-opacity: 0.6; stroke-width: 0.339411"/>
    <path d="M 114.301692 121.4871 
L 112.180372 125.72974 
L 116.423012 125.72974 
z
" clip-path="url(#p78bb01f927)" style="fill: #7bafde; fill-opacity: 0.6; stroke: #ffffff; stroke-opacity: 0.6; stroke-width: 0.339411"/>
    <path d="M 122.481555 118.22843 
L 120.360235 122.471071 
L 124.602876 122.471071 
z
" clip-path="url(#p78bb01f927)" style="fill: #7bafde; fill-opacity: 0.6; stroke: #ffffff; stroke-opacity: 0.6; stroke-width: 0.339411"/>
    <path d="M 138.760298 108.140206 
L 136.638977 112.382847 
L 140.881618 112.382847 
z
" clip-path="url(#p78bb01f927)" style="fill: #7bafde; fill-opacity: 0.6; stroke: #ffffff; stroke-opacity: 0.6; stroke-width: 0.339411"/>
    <path d="M 92.168841 137.466286 
L 90.047521 141.708927 
L 94.290162 141.708927 
z
" clip-path="url(#p78bb01f927)" style="fill: #7bafde; fill-opacity: 0.6; stroke: #ffffff; stroke-opacity: 0.6; stroke-width: 0.339411"/>
    <path d="M 90.260126 142.688454 
L 88.138805 146.931095 
L 92.381446 146.931095 
z
" clip-path="url(#p78bb01f927)" style="fill: #7bafde; fill-opacity: 0.6; stroke: #ffffff; stroke-opacity: 0.6; stroke-width: 0.339411"/>
    <path d="M 167.604234 103.402916 
L 165.482914 107.645557 
L 169.725554 107.645557 
z
" clip-path="url(#p78bb01f927)" style="fill: #7bafde; fill-opacity: 0.6; stroke: #ffffff; stroke-opacity: 0.6; stroke-width: 0.339411"/>
    <path d="M 109.489457 115.657073 
L 107.368137 119.899714 
L 111.610777 119.899714 
z
" clip-path="url(#p78bb01f927)" style="fill: #7bafde; fill-opacity: 0.6; stroke: #ffffff; stroke-opacity: 0.6; stroke-width: 0.339411"/>
    <path d="M 151.123639 118.376954 
L 149.002319 122.619595 
L 153.24496 122.619595 
z
" clip-path="url(#p78bb01f927)" style="fill: #7bafde; fill-opacity: 0.6; stroke: #ffffff; stroke-opacity: 0.6; stroke-width: 0.339411"/>
    <path d="M 98.210856 121.604222 
L 96.089536 125.846863 
L 100.332176 125.846863 
z
" clip-path="url(#p78bb01f927)" style="fill: #7bafde; fill-opacity: 0.6; stroke: #ffffff; stroke-opacity: 0.6; stroke-width: 0.339411"/>
    <path d="M 134.799724 136.37953 
L 132.678404 140.62217 
L 136.921045 140.62217 
z
" clip-path="url(#p78bb01f927)" style="fill: #7bafde; fill-opacity: 0.6; stroke: #ffffff; stroke-opacity: 0.6; stroke-width: 0.339411"/>
    <path d="M 118.337466 136.852055 
L 116.216146 141.094696 
L 120.458787 141.094696 
z
" clip-path="url(#p78bb01f927)" style="fill: #7bafde; fill-opacity: 0.6; stroke: #ffffff; stroke-opacity: 0.6; stroke-width: 0.339411"/>
    <path d="M 104.933116 101.59384 
L 102.811795 105.836481 
L 107.054436 105.836481 
z
" clip-path="url(#p78bb01f927)" style="fill: #7bafde; fill-opacity: 0.6; stroke: #ffffff; stroke-opacity: 0.6; stroke-width: 0.339411"/>
    <path d="M 80.753758 159.559395 
L 78.632438 163.802036 
L 82.875079 163.802036 
z
" clip-path="url(#p78bb01f927)" style="fill: #7bafde; fill-opacity: 0.6; stroke: #ffffff; stroke-opacity: 0.6; stroke-width: 0.339411"/>
    <path d="M 112.336631 123.836034 
L 110.215311 128.078675 
L 114.457952 128.078675 
z
" clip-path="url(#p78bb01f927)" style="fill: #7bafde; fill-opacity: 0.6; stroke: #ffffff; stroke-opacity: 0.6; stroke-width: 0.339411"/>
    <path d="M 152.43033 127.357035 
L 150.30901 131.599676 
L 154.551651 131.599676 
z
" clip-path="url(#p78bb01f927)" style="fill: #7bafde; fill-opacity: 0.6; stroke: #ffffff; stroke-opacity: 0.6; stroke-width: 0.339411"/>
    <path d="M 165.013444 118.757911 
L 162.892124 123.000552 
L 167.134765 123.000552 
z
" clip-path="url(#p78bb01f927)" style="fill: #7bafde; fill-opacity: 0.6; stroke: #ffffff; stroke-opacity: 0.6; stroke-width: 0.339411"/>
    <path d="M 105.581569 126.237293 
L 103.460249 130.479934 
L 107.702889 130.479934 
z
" clip-path="url(#p78bb01f927)" style="fill: #7bafde; fill-opacity: 0.6; stroke: #ffffff; stroke-opacity: 0.6; stroke-width: 0.339411"/>
    <path d="M 124.728779 126.014331 
L 122.607459 130.256971 
L 126.850099 130.256971 
z
" clip-path="url(#p78bb01f927)" style="fill: #7bafde; fill-opacity: 0.6; stroke: #ffffff; stroke-opacity: 0.6; stroke-width: 0.339411"/>
    <path d="M 93.706765 116.432174 
L 91.585445 120.674814 
L 95.828086 120.674814 
z
" clip-path="url(#p78bb01f927)" style="fill: #7bafde; fill-opacity: 0.6; stroke: #ffffff; stroke-opacity: 0.6; stroke-width: 0.339411"/>
    <path d="M 127.010211 146.084034 
L 124.88889 150.326675 
L 129.131531 150.326675 
z
" clip-path="url(#p78bb01f927)" style="fill: #7bafde; fill-opacity: 0.6; stroke: #ffffff; stroke-opacity: 0.6; stroke-width: 0.339411"/>
    <path d="M 114.571335 151.364452 
L 112.450015 155.607093 
L 116.692656 155.607093 
z
" clip-path="url(#p78bb01f927)" style="fill: #7bafde; fill-opacity: 0.6; stroke: #ffffff; stroke-opacity: 0.6; stroke-width: 0.339411"/>
    <path d="M 102.407958 107.592052 
L 100.286637 111.834693 
L 104.529278 111.834693 
z
" clip-path="url(#p78bb01f927)" style="fill: #7bafde; fill-opacity: 0.6; stroke: #ffffff; stroke-opacity: 0.6; stroke-width: 0.339411"/>
    <path d="M 127.956905 115.889147 
L 125.835584 120.131788 
L 130.078225 120.131788 
z
" clip-path="url(#p78bb01f927)" style="fill: #7bafde; fill-opacity: 0.6; stroke: #ffffff; stroke-opacity: 0.6; stroke-width: 0.339411"/>
    <path d="M 139.07542 135.835982 
L 136.954099 140.078622 
L 141.19674 140.078622 
z
" clip-path="url(#p78bb01f927)" style="fill: #7bafde; fill-opacity: 0.6; stroke: #ffffff; stroke-opacity: 0.6; stroke-width: 0.339411"/>
    <path d="M 85.243573 145.195797 
L 83.122253 149.438438 
L 87.364894 149.438438 
z
" clip-path="url(#p78bb01f927)" style="fill: #7bafde; fill-opacity: 0.6; stroke: #ffffff; stroke-opacity: 0.6; stroke-width: 0.339411"/>
    <path d="M 117.784689 166.148832 
L 115.663368 170.391473 
L 119.906009 170.391473 
z
" clip-path="url(#p78bb01f927)" style="fill: #7bafde; fill-opacity: 0.6; stroke: #ffffff; stroke-opacity: 0.6; stroke-width: 0.339411"/>
    <path d="M 136.217017 142.961838 
L 134.095697 147.204479 
L 138.338338 147.204479 
z
" clip-path="url(#p78bb01f927)" style="fill: #7bafde; fill-opacity: 0.6; stroke: #ffffff; stroke-opacity: 0.6; stroke-width: 0.339411"/>
    <path d="M 123.920131 145.129301 
L 121.798811 149.371941 
L 126.041452 149.371941 
z
" clip-path="url(#p78bb01f927)" style="fill: #7bafde; fill-opacity: 0.6; stroke: #ffffff; stroke-opacity: 0.6; stroke-width: 0.339411"/>
    <path d="M 103.050306 125.744912 
L 100.928986 129.987553 
L 105.171626 129.987553 
z
" clip-path="url(#p78bb01f927)" style="fill: #7bafde; fill-opacity: 0.6; stroke: #ffffff; stroke-opacity: 0.6; stroke-width: 0.339411"/>
    <path d="M 169.123008 127.648589 
L 173.365649 127.648589 
L 173.365649 123.405949 
L 169.123008 123.405949 
z
" clip-path="url(#p78bb01f927)" style="fill: #4eb265; fill-opacity: 0.6; stroke: #ffffff; stroke-opacity: 0.6; stroke-width: 0.339411"/>
    <path d="M 110.756211 101.395803 
L 114.998851 101.395803 
L 114.998851 97.153162 
L 110.756211 97.153162 
z
" clip-path="url(#p78bb01f927)" style="fill: #4eb265; fill-opacity: 0.6; stroke: #ffffff; stroke-opacity: 0.6; stroke-width: 0.339411"/>
    <path d="M 138.254906 143.311036 
L 142.497546 143.311036 
L 142.497546 139.068395 
L 138.254906 139.068395 
z
" clip-path="url(#p78bb01f927)" style="fill: #4eb265; fill-opacity: 0.6; stroke: #ffffff; stroke-opacity: 0.6; stroke-width: 0.339411"/>
    <path d="M 150.657798 112.209768 
L 154.900439 112.209768 
L 154.900439 107.967127 
L 150.657798 107.967127 
z
" clip-path="url(#p78bb01f927)" style="fill: #4eb265; fill-opacity: 0.6; stroke: #ffffff; stroke-opacity: 0.6; stroke-width: 0.339411"/>
    <path d="M 84.612789 142.076906 
L 88.85543 142.076906 
L 88.85543 137.834265 
L 84.612789 137.834265 
z
" clip-path="url(#p78bb01f927)" style="fill: #4eb265; fill-opacity: 0.6; stroke: #ffffff; stroke-opacity: 0.6; stroke-width: 0.339411"/>
    <path d="M 104.049347 147.905799 
L 108.291988 147.905799 
L 108.291988 143.663159 
L 104.049347 143.663159 
z
" clip-path="url(#p78bb01f927)" style="fill: #4eb265; fill-opacity: 0.6; stroke: #ffffff; stroke-opacity: 0.6; stroke-width: 0.339411"/>
    <path d="M 173.014104 105.339123 
L 177.256745 105.339123 
L 177.256745 101.096482 
L 173.014104 101.096482 
z
" clip-path="url(#p78bb01f927)" style="fill: #4eb265; fill-opacity: 0.6; stroke: #ffffff; stroke-opacity: 0.6; stroke-width: 0.339411"/>
    <path d="M 148.019021 140.931692 
L 152.261661 140.931692 
L 152.261661 136.689051 
L 148.019021 136.689051 
z
" clip-path="url(#p78bb01f927)" style="fill: #4eb265; fill-opacity: 0.6; stroke: #ffffff; stroke-opacity: 0.6; stroke-width: 0.339411"/>
    <path d="M 75.840459 160.053055 
L 80.083099 160.053055 
L 80.083099 155.810414 
L 75.840459 155.810414 
z
" clip-path="url(#p78bb01f927)" style="fill: #4eb265; fill-opacity: 0.6; stroke: #ffffff; stroke-opacity: 0.6; stroke-width: 0.339411"/>
    <path d="M 99.961666 145.321626 
L 104.204306 145.321626 
L 104.204306 141.078985 
L 99.961666 141.078985 
z
" clip-path="url(#p78bb01f927)" style="fill: #4eb265; fill-opacity: 0.6; stroke: #ffffff; stroke-opacity: 0.6; stroke-width: 0.339411"/>
    <path d="M 95.069337 106.29722 
L 99.311978 106.29722 
L 99.311978 102.054579 
L 95.069337 102.054579 
z
" clip-path="url(#p78bb01f927)" style="fill: #4eb265; fill-opacity: 0.6; stroke: #ffffff; stroke-opacity: 0.6; stroke-width: 0.339411"/>
    <path d="M 105.076307 140.790067 
L 109.318948 140.790067 
L 109.318948 136.547426 
L 105.076307 136.547426 
z
" clip-path="url(#p78bb01f927)" style="fill: #4eb265; fill-opacity: 0.6; stroke: #ffffff; stroke-opacity: 0.6; stroke-width: 0.339411"/>
    <path d="M 91.280681 160.441333 
L 95.523322 160.441333 
L 95.523322 156.198692 
L 91.280681 156.198692 
z
" clip-path="url(#p78bb01f927)" style="fill: #4eb265; fill-opacity: 0.6; stroke: #ffffff; stroke-opacity: 0.6; stroke-width: 0.339411"/>
    <path d="M 200.095847 119.482211 
L 204.338488 119.482211 
L 204.338488 115.23957 
L 200.095847 115.23957 
z
" clip-path="url(#p78bb01f927)" style="fill: #4eb265; fill-opacity: 0.6; stroke: #ffffff; stroke-opacity: 0.6; stroke-width: 0.339411"/>
    <path d="M 175.444877 101.648861 
L 179.687518 101.648861 
L 179.687518 97.40622 
L 175.444877 97.40622 
z
" clip-path="url(#p78bb01f927)" style="fill: #4eb265; fill-opacity: 0.6; stroke: #ffffff; stroke-opacity: 0.6; stroke-width: 0.339411"/>
    <path d="M 141.748636 113.684566 
L 145.991277 113.684566 
L 145.991277 109.441926 
L 141.748636 109.441926 
z
" clip-path="url(#p78bb01f927)" style="fill: #4eb265; fill-opacity: 0.6; stroke: #ffffff; stroke-opacity: 0.6; stroke-width: 0.339411"/>
    <path d="M 83.306265 164.640431 
L 87.548906 164.640431 
L 87.548906 160.39779 
L 83.306265 160.39779 
z
" clip-path="url(#p78bb01f927)" style="fill: #4eb265; fill-opacity: 0.6; stroke: #ffffff; stroke-opacity: 0.6; stroke-width: 0.339411"/>
    <path d="M 136.499374 152.227871 
L 140.742015 152.227871 
L 140.742015 147.985231 
L 136.499374 147.985231 
z
" clip-path="url(#p78bb01f927)" style="fill: #4eb265; fill-opacity: 0.6; stroke: #ffffff; stroke-opacity: 0.6; stroke-width: 0.339411"/>
    <path d="M 130.774083 120.792414 
L 135.016723 120.792414 
L 135.016723 116.549773 
L 130.774083 116.549773 
z
" clip-path="url(#p78bb01f927)" style="fill: #4eb265; fill-opacity: 0.6; stroke: #ffffff; stroke-opacity: 0.6; stroke-width: 0.339411"/>
    <path d="M 139.849529 140.49782 
L 144.09217 140.49782 
L 144.09217 136.255179 
L 139.849529 136.255179 
z
" clip-path="url(#p78bb01f927)" style="fill: #4eb265; fill-opacity: 0.6; stroke: #ffffff; stroke-opacity: 0.6; stroke-width: 0.339411"/>
    <path d="M 116.424538 137.853168 
L 120.667179 137.853168 
L 120.667179 133.610528 
L 116.424538 133.610528 
z
" clip-path="url(#p78bb01f927)" style="fill: #4eb265; fill-opacity: 0.6; stroke: #ffffff; stroke-opacity: 0.6; stroke-width: 0.339411"/>
    <path d="M 115.464306 147.287816 
L 119.706947 147.287816 
L 119.706947 143.045175 
L 115.464306 143.045175 
z
" clip-path="url(#p78bb01f927)" style="fill: #4eb265; fill-opacity: 0.6; stroke: #ffffff; stroke-opacity: 0.6; stroke-width: 0.339411"/>
    <path d="M 106.970224 103.135206 
L 111.212865 103.135206 
L 111.212865 98.892565 
L 106.970224 98.892565 
z
" clip-path="url(#p78bb01f927)" style="fill: #4eb265; fill-opacity: 0.6; stroke: #ffffff; stroke-opacity: 0.6; stroke-width: 0.339411"/>
    <path d="M 82.943817 159.387502 
L 87.186458 159.387502 
L 87.186458 155.144862 
L 82.943817 155.144862 
z
" clip-path="url(#p78bb01f927)" style="fill: #4eb265; fill-opacity: 0.6; stroke: #ffffff; stroke-opacity: 0.6; stroke-width: 0.339411"/>
    <path d="M 96.082062 111.100369 
L 100.324703 111.100369 
L 100.324703 106.857728 
L 96.082062 106.857728 
z
" clip-path="url(#p78bb01f927)" style="fill: #4eb265; fill-opacity: 0.6; stroke: #ffffff; stroke-opacity: 0.6; stroke-width: 0.339411"/>
    <path d="M 72.464917 158.856075 
L 76.707558 158.856075 
L 76.707558 154.613434 
L 72.464917 154.613434 
z
" clip-path="url(#p78bb01f927)" style="fill: #4eb265; fill-opacity: 0.6; stroke: #ffffff; stroke-opacity: 0.6; stroke-width: 0.339411"/>
    <path d="M 111.531517 105.163571 
L 115.774158 105.163571 
L 115.774158 100.920931 
L 111.531517 100.920931 
z
" clip-path="url(#p78bb01f927)" style="fill: #4eb265; fill-opacity: 0.6; stroke: #ffffff; stroke-opacity: 0.6; stroke-width: 0.339411"/>
    <path d="M 97.783511 122.987093 
L 102.026151 122.987093 
L 102.026151 118.744452 
L 97.783511 118.744452 
z
" clip-path="url(#p78bb01f927)" style="fill: #4eb265; fill-opacity: 0.6; stroke: #ffffff; stroke-opacity: 0.6; stroke-width: 0.339411"/>
    <path d="M 113.265504 136.876514 
L 117.508145 136.876514 
L 117.508145 132.633873 
L 113.265504 132.633873 
z
" clip-path="url(#p78bb01f927)" style="fill: #4eb265; fill-opacity: 0.6; stroke: #ffffff; stroke-opacity: 0.6; stroke-width: 0.339411"/>
    <path d="M 130.227675 134.42001 
L 134.470316 134.42001 
L 134.470316 130.177369 
L 130.227675 130.177369 
z
" clip-path="url(#p78bb01f927)" style="fill: #4eb265; fill-opacity: 0.6; stroke: #ffffff; stroke-opacity: 0.6; stroke-width: 0.339411"/>
    <path d="M 125.697557 146.267246 
L 129.940198 146.267246 
L 129.940198 142.024605 
L 125.697557 142.024605 
z
" clip-path="url(#p78bb01f927)" style="fill: #4eb265; fill-opacity: 0.6; stroke: #ffffff; stroke-opacity: 0.6; stroke-width: 0.339411"/>
    <path d="M 145.468857 133.082666 
L 149.711497 133.082666 
L 149.711497 128.840026 
L 145.468857 128.840026 
z
" clip-path="url(#p78bb01f927)" style="fill: #4eb265; fill-opacity: 0.6; stroke: #ffffff; stroke-opacity: 0.6; stroke-width: 0.339411"/>
    <path d="M 153.953195 117.821416 
L 158.195836 117.821416 
L 158.195836 113.578775 
L 153.953195 113.578775 
z
" clip-path="url(#p78bb01f927)" style="fill: #4eb265; fill-opacity: 0.6; stroke: #ffffff; stroke-opacity: 0.6; stroke-width: 0.339411"/>
    <path d="M 180.041766 124.220493 
L 184.284407 124.220493 
L 184.284407 119.977852 
L 180.041766 119.977852 
z
" clip-path="url(#p78bb01f927)" style="fill: #4eb265; fill-opacity: 0.6; stroke: #ffffff; stroke-opacity: 0.6; stroke-width: 0.339411"/>
    <path d="M 96.588982 113.270774 
L 100.831623 113.270774 
L 100.831623 109.028134 
L 96.588982 109.028134 
z
" clip-path="url(#p78bb01f927)" style="fill: #4eb265; fill-opacity: 0.6; stroke: #ffffff; stroke-opacity: 0.6; stroke-width: 0.339411"/>
    <path d="M 191.295526 123.092601 
L 195.538166 123.092601 
L 195.538166 118.849961 
L 191.295526 118.849961 
z
" clip-path="url(#p78bb01f927)" style="fill: #4eb265; fill-opacity: 0.6; stroke: #ffffff; stroke-opacity: 0.6; stroke-width: 0.339411"/>
    <path d="M 184.844971 107.281414 
L 189.087612 107.281414 
L 189.087612 103.038773 
L 184.844971 103.038773 
z
" clip-path="url(#p78bb01f927)" style="fill: #4eb265; fill-opacity: 0.6; stroke: #ffffff; stroke-opacity: 0.6; stroke-width: 0.339411"/>
    <path d="M 101.695162 106.559611 
L 105.937803 106.559611 
L 105.937803 102.31697 
L 101.695162 102.31697 
z
" clip-path="url(#p78bb01f927)" style="fill: #4eb265; fill-opacity: 0.6; stroke: #ffffff; stroke-opacity: 0.6; stroke-width: 0.339411"/>
    <path d="M 149.178059 122.411185 
L 153.4207 122.411185 
L 153.4207 118.168545 
L 149.178059 118.168545 
z
" clip-path="url(#p78bb01f927)" style="fill: #4eb265; fill-opacity: 0.6; stroke: #ffffff; stroke-opacity: 0.6; stroke-width: 0.339411"/>
    <path d="M 112.351282 144.140654 
L 116.593922 144.140654 
L 116.593922 139.898013 
L 112.351282 139.898013 
z
" clip-path="url(#p78bb01f927)" style="fill: #4eb265; fill-opacity: 0.6; stroke: #ffffff; stroke-opacity: 0.6; stroke-width: 0.339411"/>
    <path d="M 99.419088 108.362106 
L 103.661728 108.362106 
L 103.661728 104.119466 
L 99.419088 104.119466 
z
" clip-path="url(#p78bb01f927)" style="fill: #4eb265; fill-opacity: 0.6; stroke: #ffffff; stroke-opacity: 0.6; stroke-width: 0.339411"/>
    <path d="M 105.905518 112.638959 
L 110.148159 112.638959 
L 110.148159 108.396319 
L 105.905518 108.396319 
z
" clip-path="url(#p78bb01f927)" style="fill: #4eb265; fill-opacity: 0.6; stroke: #ffffff; stroke-opacity: 0.6; stroke-width: 0.339411"/>
    <path d="M 138.691486 144.497393 
L 142.934126 144.497393 
L 142.934126 140.254753 
L 138.691486 140.254753 
z
" clip-path="url(#p78bb01f927)" style="fill: #4eb265; fill-opacity: 0.6; stroke: #ffffff; stroke-opacity: 0.6; stroke-width: 0.339411"/>
    <path d="M 121.214871 146.443316 
L 125.457512 146.443316 
L 125.457512 142.200675 
L 121.214871 142.200675 
z
" clip-path="url(#p78bb01f927)" style="fill: #4eb265; fill-opacity: 0.6; stroke: #ffffff; stroke-opacity: 0.6; stroke-width: 0.339411"/>
    <path d="M 98.31517 116.087523 
L 102.557811 116.087523 
L 102.557811 111.844882 
L 98.31517 111.844882 
z
" clip-path="url(#p78bb01f927)" style="fill: #4eb265; fill-opacity: 0.6; stroke: #ffffff; stroke-opacity: 0.6; stroke-width: 0.339411"/>
    <path d="M 85.480565 166.762316 
L 89.723206 166.762316 
L 89.723206 162.519675 
L 85.480565 162.519675 
z
" clip-path="url(#p78bb01f927)" style="fill: #4eb265; fill-opacity: 0.6; stroke: #ffffff; stroke-opacity: 0.6; stroke-width: 0.339411"/>
    <path d="M 174.808003 124.409061 
L 179.050644 124.409061 
L 179.050644 120.16642 
L 174.808003 120.16642 
z
" clip-path="url(#p78bb01f927)" style="fill: #4eb265; fill-opacity: 0.6; stroke: #ffffff; stroke-opacity: 0.6; stroke-width: 0.339411"/>
    <path d="M 174.029798 110.085559 
L 178.272439 110.085559 
L 178.272439 105.842918 
L 174.029798 105.842918 
z
" clip-path="url(#p78bb01f927)" style="fill: #4eb265; fill-opacity: 0.6; stroke: #ffffff; stroke-opacity: 0.6; stroke-width: 0.339411"/>
    <path d="M 134.640255 124.378143 
L 138.882896 124.378143 
L 138.882896 120.135502 
L 134.640255 120.135502 
z
" clip-path="url(#p78bb01f927)" style="fill: #4eb265; fill-opacity: 0.6; stroke: #ffffff; stroke-opacity: 0.6; stroke-width: 0.339411"/>
    <path d="M 185.548999 122.642981 
L 189.79164 122.642981 
L 189.79164 118.400341 
L 185.548999 118.400341 
z
" clip-path="url(#p78bb01f927)" style="fill: #4eb265; fill-opacity: 0.6; stroke: #ffffff; stroke-opacity: 0.6; stroke-width: 0.339411"/>
    <path d="M 104.479709 105.750957 
L 108.722349 105.750957 
L 108.722349 101.508316 
L 104.479709 101.508316 
z
" clip-path="url(#p78bb01f927)" style="fill: #4eb265; fill-opacity: 0.6; stroke: #ffffff; stroke-opacity: 0.6; stroke-width: 0.339411"/>
    <path d="M 110.353525 111.064252 
L 114.596166 111.064252 
L 114.596166 106.821612 
L 110.353525 106.821612 
z
" clip-path="url(#p78bb01f927)" style="fill: #4eb265; fill-opacity: 0.6; stroke: #ffffff; stroke-opacity: 0.6; stroke-width: 0.339411"/>
    <path d="M 197.015689 115.484171 
L 201.258329 115.484171 
L 201.258329 111.24153 
L 197.015689 111.24153 
z
" clip-path="url(#p78bb01f927)" style="fill: #4eb265; fill-opacity: 0.6; stroke: #ffffff; stroke-opacity: 0.6; stroke-width: 0.339411"/>
    <path d="M 81.274959 168.565202 
L 85.517599 168.565202 
L 85.517599 164.322561 
L 81.274959 164.322561 
z
" clip-path="url(#p78bb01f927)" style="fill: #4eb265; fill-opacity: 0.6; stroke: #ffffff; stroke-opacity: 0.6; stroke-width: 0.339411"/>
    <path d="M 135.741063 133.559456 
L 139.983704 133.559456 
L 139.983704 129.316816 
L 135.741063 129.316816 
z
" clip-path="url(#p78bb01f927)" style="fill: #4eb265; fill-opacity: 0.6; stroke: #ffffff; stroke-opacity: 0.6; stroke-width: 0.339411"/>
    <path d="M 118.335309 146.809029 
L 122.57795 146.809029 
L 122.57795 142.566388 
L 118.335309 142.566388 
z
" clip-path="url(#p78bb01f927)" style="fill: #4eb265; fill-opacity: 0.6; stroke: #ffffff; stroke-opacity: 0.6; stroke-width: 0.339411"/>
    <path d="M 133.529314 117.948832 
L 137.771955 117.948832 
L 137.771955 113.706191 
L 133.529314 113.706191 
z
" clip-path="url(#p78bb01f927)" style="fill: #4eb265; fill-opacity: 0.6; stroke: #ffffff; stroke-opacity: 0.6; stroke-width: 0.339411"/>
    <path d="M 93.198502 116.20333 
L 97.441143 116.20333 
L 97.441143 111.960689 
L 93.198502 111.960689 
z
" clip-path="url(#p78bb01f927)" style="fill: #4eb265; fill-opacity: 0.6; stroke: #ffffff; stroke-opacity: 0.6; stroke-width: 0.339411"/>
    <path d="M 149.385641 154.97145 
L 153.628282 154.97145 
L 153.628282 150.728809 
L 149.385641 150.728809 
z
" clip-path="url(#p78bb01f927)" style="fill: #4eb265; fill-opacity: 0.6; stroke: #ffffff; stroke-opacity: 0.6; stroke-width: 0.339411"/>
    <path d="M 109.134174 138.690039 
L 113.376815 138.690039 
L 113.376815 134.447398 
L 109.134174 134.447398 
z
" clip-path="url(#p78bb01f927)" style="fill: #4eb265; fill-opacity: 0.6; stroke: #ffffff; stroke-opacity: 0.6; stroke-width: 0.339411"/>
    <path d="M 79.399878 148.640313 
L 83.642519 148.640313 
L 83.642519 144.397672 
L 79.399878 144.397672 
z
" clip-path="url(#p78bb01f927)" style="fill: #4eb265; fill-opacity: 0.6; stroke: #ffffff; stroke-opacity: 0.6; stroke-width: 0.339411"/>
    <path d="M 97.101051 111.783443 
L 101.343692 111.783443 
L 101.343692 107.540802 
L 97.101051 107.540802 
z
" clip-path="url(#p78bb01f927)" style="fill: #4eb265; fill-opacity: 0.6; stroke: #ffffff; stroke-opacity: 0.6; stroke-width: 0.339411"/>
    <path d="M 96.848546 131.673048 
L 101.091187 131.673048 
L 101.091187 127.430407 
L 96.848546 127.430407 
z
" clip-path="url(#p78bb01f927)" style="fill: #4eb265; fill-opacity: 0.6; stroke: #ffffff; stroke-opacity: 0.6; stroke-width: 0.339411"/>
    <path d="M 112.891275 115.058226 
L 117.133916 115.058226 
L 117.133916 110.815585 
L 112.891275 110.815585 
z
" clip-path="url(#p78bb01f927)" style="fill: #4eb265; fill-opacity: 0.6; stroke: #ffffff; stroke-opacity: 0.6; stroke-width: 0.339411"/>
   </g>
   <g id="matplotlib.axis_1">
    <g id="xtick_1">
     <g id="line2d_1">
      <defs>
       <path id="m5cf6868630" d="M 0 0 
L 0 8 
" style="stroke: #000000"/>
      </defs>
      <g>
       <use xlink:href="#m5cf6868630" x="135.126289" y="190.884882" style="stroke: #000000"/>
      </g>
     </g>
     <g id="text_1">
      <!-- 0 -->
      <g transform="translate(131.308789 211.503007) scale(0.12 -0.12)">
       <defs>
        <path id="DejaVuSans-30" d="M 2034 4250 
Q 1547 4250 1301 3770 
Q 1056 3291 1056 2328 
Q 1056 1369 1301 889 
Q 1547 409 2034 409 
Q 2525 409 2770 889 
Q 3016 1369 3016 2328 
Q 3016 3291 2770 3770 
Q 2525 4250 2034 4250 
z
M 2034 4750 
Q 2819 4750 3233 4129 
Q 3647 3509 3647 2328 
Q 3647 1150 3233 529 
Q 2819 -91 2034 -91 
Q 1250 -91 836 529 
Q 422 1150 422 2328 
Q 422 3509 836 4129 
Q 1250 4750 2034 4750 
z
" transform="scale(0.015625)"/>
       </defs>
       <use xlink:href="#DejaVuSans-30"/>
      </g>
     </g>
    </g>
    <g id="text_2">
     <!-- UMAP 1 -->
     <g transform="translate(114.131572 227.116757) scale(0.12 -0.12)">
      <defs>
       <path id="DejaVuSans-55" d="M 556 4666 
L 1191 4666 
L 1191 1831 
Q 1191 1081 1462 751 
Q 1734 422 2344 422 
Q 2950 422 3222 751 
Q 3494 1081 3494 1831 
L 3494 4666 
L 4128 4666 
L 4128 1753 
Q 4128 841 3676 375 
Q 3225 -91 2344 -91 
Q 1459 -91 1007 375 
Q 556 841 556 1753 
L 556 4666 
z
" transform="scale(0.015625)"/>
       <path id="DejaVuSans-4d" d="M 628 4666 
L 1569 4666 
L 2759 1491 
L 3956 4666 
L 4897 4666 
L 4897 0 
L 4281 0 
L 4281 4097 
L 3078 897 
L 2444 897 
L 1241 4097 
L 1241 0 
L 628 0 
L 628 4666 
z
" transform="scale(0.015625)"/>
       <path id="DejaVuSans-41" d="M 2188 4044 
L 1331 1722 
L 3047 1722 
L 2188 4044 
z
M 1831 4666 
L 2547 4666 
L 4325 0 
L 3669 0 
L 3244 1197 
L 1141 1197 
L 716 0 
L 50 0 
L 1831 4666 
z
" transform="scale(0.015625)"/>
       <path id="DejaVuSans-50" d="M 1259 4147 
L 1259 2394 
L 2053 2394 
Q 2494 2394 2734 2622 
Q 2975 2850 2975 3272 
Q 2975 3691 2734 3919 
Q 2494 4147 2053 4147 
L 1259 4147 
z
M 628 4666 
L 2053 4666 
Q 2838 4666 3239 4311 
Q 3641 3956 3641 3272 
Q 3641 2581 3239 2228 
Q 2838 1875 2053 1875 
L 1259 1875 
L 1259 0 
L 628 0 
L 628 4666 
z
" transform="scale(0.015625)"/>
       <path id="DejaVuSans-20" transform="scale(0.015625)"/>
       <path id="DejaVuSans-31" d="M 794 531 
L 1825 531 
L 1825 4091 
L 703 3866 
L 703 4441 
L 1819 4666 
L 2450 4666 
L 2450 531 
L 3481 531 
L 3481 0 
L 794 0 
L 794 531 
z
" transform="scale(0.015625)"/>
      </defs>
      <use xlink:href="#DejaVuSans-55"/>
      <use xlink:href="#DejaVuSans-4d" x="73.193359"/>
      <use xlink:href="#DejaVuSans-41" x="159.472656"/>
      <use xlink:href="#DejaVuSans-50" x="227.880859"/>
      <use xlink:href="#DejaVuSans-20" x="288.183594"/>
      <use xlink:href="#DejaVuSans-31" x="319.970703"/>
     </g>
    </g>
   </g>
   <g id="matplotlib.axis_2">
    <g id="ytick_1">
     <g id="line2d_2">
      <defs>
       <path id="m8add6b84e5" d="M 0 0 
L -8 0 
" style="stroke: #000000"/>
      </defs>
      <g>
       <use xlink:href="#m8add6b84e5" x="48.183819" y="103.942411" style="stroke: #000000"/>
      </g>
     </g>
     <g id="text_3">
      <!-- 0 -->
      <g transform="translate(29.048819 108.501474) scale(0.12 -0.12)">
       <use xlink:href="#DejaVuSans-30"/>
      </g>
     </g>
    </g>
    <g id="text_4">
     <!-- UMAP 2 -->
     <g transform="translate(22.553194 124.937128) rotate(-90) scale(0.12 -0.12)">
      <defs>
       <path id="DejaVuSans-32" d="M 1228 531 
L 3431 531 
L 3431 0 
L 469 0 
L 469 531 
Q 828 903 1448 1529 
Q 2069 2156 2228 2338 
Q 2531 2678 2651 2914 
Q 2772 3150 2772 3378 
Q 2772 3750 2511 3984 
Q 2250 4219 1831 4219 
Q 1534 4219 1204 4116 
Q 875 4013 500 3803 
L 500 4441 
Q 881 4594 1212 4672 
Q 1544 4750 1819 4750 
Q 2544 4750 2975 4387 
Q 3406 4025 3406 3419 
Q 3406 3131 3298 2873 
Q 3191 2616 2906 2266 
Q 2828 2175 2409 1742 
Q 1991 1309 1228 531 
z
" transform="scale(0.015625)"/>
      </defs>
      <use xlink:href="#DejaVuSans-55"/>
      <use xlink:href="#DejaVuSans-4d" x="73.193359"/>
      <use xlink:href="#DejaVuSans-41" x="159.472656"/>
      <use xlink:href="#DejaVuSans-50" x="227.880859"/>
      <use xlink:href="#DejaVuSans-20" x="288.183594"/>
      <use xlink:href="#DejaVuSans-32" x="319.970703"/>
     </g>
    </g>
   </g>
   <g id="patch_3">
    <path d="M 48.183819 190.884882 
L 48.183819 12.96 
" style="fill: none; stroke: #000000; stroke-width: 2; stroke-linejoin: miter; stroke-linecap: square"/>
   </g>
   <g id="patch_4">
    <path d="M 48.183819 190.884882 
L 226.108701 190.884882 
" style="fill: none; stroke: #000000; stroke-width: 2; stroke-linejoin: miter; stroke-linecap: square"/>
   </g>
  </g>
 </g>
 <defs>
  <clipPath id="p78bb01f927">
   <rect x="48.183819" y="12.96" width="177.924882" height="177.924882"/>
  </clipPath>
 </defs>
</svg>
