<?xml version="1.0" encoding="utf-8" standalone="no"?>
<!DOCTYPE svg PUBLIC "-//W3C//DTD SVG 1.1//EN"
  "http://www.w3.org/Graphics/SVG/1.1/DTD/svg11.dtd">
<svg xmlns:xlink="http://www.w3.org/1999/xlink" width="240.944882pt" height="240.944882pt" viewBox="0 0 240.944882 240.944882" xmlns="http://www.w3.org/2000/svg" version="1.1">
 <metadata>
  <rdf:RDF xmlns:dc="http://purl.org/dc/elements/1.1/" xmlns:cc="http://creativecommons.org/ns#" xmlns:rdf="http://www.w3.org/1999/02/22-rdf-syntax-ns#">
   <cc:Work>
    <dc:type rdf:resource="http://purl.org/dc/dcmitype/StillImage"/>
    <dc:date>2025-02-19T15:06:32.874065</dc:date>
    <dc:format>image/svg+xml</dc:format>
    <dc:creator>
     <cc:Agent>
      <dc:title>Matplotlib v3.6.2, https://matplotlib.org/</dc:title>
     </cc:Agent>
    </dc:creator>
   </cc:Work>
  </rdf:RDF>
 </metadata>
 <defs>
  <style type="text/css">*{stroke-linejoin: round; stroke-linecap: butt}</style>
 </defs>
 <g id="figure_1">
  <g id="patch_1">
   <path d="M 0 240.944882 
L 240.944882 240.944882 
L 240.944882 0 
L 0 0 
L 0 240.944882 
z
" style="fill: none"/>
  </g>
  <g id="axes_1">
   <g id="patch_2">
    <path d="M 53.957638 188.936063 
L 227.984882 188.936063 
L 227.984882 14.908819 
L 53.957638 14.908819 
L 53.957638 188.936063 
z
" style="fill: none"/>
   </g>
   <g id="PathCollection_1">
    <path d="M 193.58344 105.671083 
L 195.38344 102.671083 
L 193.58344 99.671083 
L 191.78344 102.671083 
z
" clip-path="url(#p6605491933)" style="fill: #332288; fill-opacity: 0.6; stroke: #ffffff; stroke-opacity: 0.6; stroke-width: 0.339411"/>
    <path d="M 72.078488 89.832423 
L 73.878488 86.832423 
L 72.078488 83.832423 
L 70.278488 86.832423 
z
" clip-path="url(#p6605491933)" style="fill: #332288; fill-opacity: 0.6; stroke: #ffffff; stroke-opacity: 0.6; stroke-width: 0.339411"/>
    <path d="M 104.92475 65.087611 
L 106.72475 62.087611 
L 104.92475 59.087611 
L 103.12475 62.087611 
z
" clip-path="url(#p6605491933)" style="fill: #332288; fill-opacity: 0.6; stroke: #ffffff; stroke-opacity: 0.6; stroke-width: 0.339411"/>
    <path d="M 180.082672 112.171012 
L 181.882672 109.171012 
L 180.082672 106.171012 
L 178.282672 109.171012 
z
" clip-path="url(#p6605491933)" style="fill: #332288; fill-opacity: 0.6; stroke: #ffffff; stroke-opacity: 0.6; stroke-width: 0.339411"/>
    <path d="M 116.812345 120.988594 
L 118.612345 117.988594 
L 116.812345 114.988594 
L 115.012345 117.988594 
z
" clip-path="url(#p6605491933)" style="fill: #332288; fill-opacity: 0.6; stroke: #ffffff; stroke-opacity: 0.6; stroke-width: 0.339411"/>
    <path d="M 187.164402 107.385869 
L 188.964402 104.385869 
L 187.164402 101.385869 
L 185.364402 104.385869 
z
" clip-path="url(#p6605491933)" style="fill: #332288; fill-opacity: 0.6; stroke: #ffffff; stroke-opacity: 0.6; stroke-width: 0.339411"/>
    <path d="M 100.949621 113.798024 
L 102.749621 110.798024 
L 100.949621 107.798024 
L 99.149621 110.798024 
z
" clip-path="url(#p6605491933)" style="fill: #332288; fill-opacity: 0.6; stroke: #ffffff; stroke-opacity: 0.6; stroke-width: 0.339411"/>
    <path d="M 180.293905 109.854086 
L 182.093905 106.854086 
L 180.293905 103.854086 
L 178.493905 106.854086 
z
" clip-path="url(#p6605491933)" style="fill: #332288; fill-opacity: 0.6; stroke: #ffffff; stroke-opacity: 0.6; stroke-width: 0.339411"/>
    <path d="M 191.590017 107.160521 
L 193.390017 104.160521 
L 191.590017 101.160521 
L 189.790017 104.160521 
z
" clip-path="url(#p6605491933)" style="fill: #332288; fill-opacity: 0.6; stroke: #ffffff; stroke-opacity: 0.6; stroke-width: 0.339411"/>
    <path d="M 114.797866 68.146931 
L 116.597866 65.146931 
L 114.797866 62.146931 
L 112.997866 65.146931 
z
" clip-path="url(#p6605491933)" style="fill: #332288; fill-opacity: 0.6; stroke: #ffffff; stroke-opacity: 0.6; stroke-width: 0.339411"/>
    <path d="M 105.665604 105.594031 
L 107.465604 102.594031 
L 105.665604 99.594031 
L 103.865604 102.594031 
z
" clip-path="url(#p6605491933)" style="fill: #332288; fill-opacity: 0.6; stroke: #ffffff; stroke-opacity: 0.6; stroke-width: 0.339411"/>
    <path d="M 171.549969 113.564221 
L 173.349969 110.564221 
L 171.549969 107.564221 
L 169.749969 110.564221 
z
" clip-path="url(#p6605491933)" style="fill: #332288; fill-opacity: 0.6; stroke: #ffffff; stroke-opacity: 0.6; stroke-width: 0.339411"/>
    <path d="M 66.901887 84.265124 
L 68.701887 81.265124 
L 66.901887 78.265124 
L 65.101887 81.265124 
z
" clip-path="url(#p6605491933)" style="fill: #332288; fill-opacity: 0.6; stroke: #ffffff; stroke-opacity: 0.6; stroke-width: 0.339411"/>
    <path d="M 119.424107 119.892401 
L 121.224107 116.892401 
L 119.424107 113.892401 
L 117.624107 116.892401 
z
" clip-path="url(#p6605491933)" style="fill: #332288; fill-opacity: 0.6; stroke: #ffffff; stroke-opacity: 0.6; stroke-width: 0.339411"/>
    <path d="M 209.344887 61.491123 
L 211.144887 58.491123 
L 209.344887 55.491123 
L 207.544887 58.491123 
z
" clip-path="url(#p6605491933)" style="fill: #332288; fill-opacity: 0.6; stroke: #ffffff; stroke-opacity: 0.6; stroke-width: 0.339411"/>
    <path d="M 111.814032 66.230795 
L 113.614032 63.230795 
L 111.814032 60.230795 
L 110.014032 63.230795 
z
" clip-path="url(#p6605491933)" style="fill: #332288; fill-opacity: 0.6; stroke: #ffffff; stroke-opacity: 0.6; stroke-width: 0.339411"/>
    <path d="M 68.558694 78.515846 
L 70.358694 75.515846 
L 68.558694 72.515846 
L 66.758694 75.515846 
z
" clip-path="url(#p6605491933)" style="fill: #332288; fill-opacity: 0.6; stroke: #ffffff; stroke-opacity: 0.6; stroke-width: 0.339411"/>
    <path d="M 76.113635 91.966542 
L 77.913635 88.966542 
L 76.113635 85.966542 
L 74.313635 88.966542 
z
" clip-path="url(#p6605491933)" style="fill: #332288; fill-opacity: 0.6; stroke: #ffffff; stroke-opacity: 0.6; stroke-width: 0.339411"/>
    <path d="M 106.652473 110.25222 
L 108.452473 107.25222 
L 106.652473 104.25222 
L 104.852473 107.25222 
z
" clip-path="url(#p6605491933)" style="fill: #332288; fill-opacity: 0.6; stroke: #ffffff; stroke-opacity: 0.6; stroke-width: 0.339411"/>
    <path d="M 183.599471 108.166885 
L 185.399471 105.166885 
L 183.599471 102.166885 
L 181.799471 105.166885 
z
" clip-path="url(#p6605491933)" style="fill: #332288; fill-opacity: 0.6; stroke: #ffffff; stroke-opacity: 0.6; stroke-width: 0.339411"/>
    <path d="M 180.97139 87.72754 
L 182.77139 84.72754 
L 180.97139 81.72754 
L 179.17139 84.72754 
z
" clip-path="url(#p6605491933)" style="fill: #332288; fill-opacity: 0.6; stroke: #ffffff; stroke-opacity: 0.6; stroke-width: 0.339411"/>
    <path d="M 88.626562 90.868202 
L 90.426562 87.868202 
L 88.626562 84.868202 
L 86.826562 87.868202 
z
" clip-path="url(#p6605491933)" style="fill: #332288; fill-opacity: 0.6; stroke: #ffffff; stroke-opacity: 0.6; stroke-width: 0.339411"/>
    <path d="M 128.412812 73.766359 
L 130.212812 70.766359 
L 128.412812 67.766359 
L 126.612812 70.766359 
z
" clip-path="url(#p6605491933)" style="fill: #332288; fill-opacity: 0.6; stroke: #ffffff; stroke-opacity: 0.6; stroke-width: 0.339411"/>
    <path d="M 99.942717 107.015252 
L 101.742717 104.015252 
L 99.942717 101.015252 
L 98.142717 104.015252 
z
" clip-path="url(#p6605491933)" style="fill: #332288; fill-opacity: 0.6; stroke: #ffffff; stroke-opacity: 0.6; stroke-width: 0.339411"/>
    <path d="M 108.74034 102.687559 
L 110.54034 99.687559 
L 108.74034 96.687559 
L 106.94034 99.687559 
z
" clip-path="url(#p6605491933)" style="fill: #332288; fill-opacity: 0.6; stroke: #ffffff; stroke-opacity: 0.6; stroke-width: 0.339411"/>
    <path d="M 177.219965 115.492468 
L 179.019965 112.492468 
L 177.219965 109.492468 
L 175.419965 112.492468 
z
" clip-path="url(#p6605491933)" style="fill: #332288; fill-opacity: 0.6; stroke: #ffffff; stroke-opacity: 0.6; stroke-width: 0.339411"/>
    <path d="M 191.971023 95.506546 
L 193.771023 92.506546 
L 191.971023 89.506546 
L 190.171023 92.506546 
z
" clip-path="url(#p6605491933)" style="fill: #332288; fill-opacity: 0.6; stroke: #ffffff; stroke-opacity: 0.6; stroke-width: 0.339411"/>
    <path d="M 186.367081 104.646386 
L 188.167081 101.646386 
L 186.367081 98.646386 
L 184.567081 101.646386 
z
" clip-path="url(#p6605491933)" style="fill: #332288; fill-opacity: 0.6; stroke: #ffffff; stroke-opacity: 0.6; stroke-width: 0.339411"/>
    <path d="M 194.972801 88.139253 
L 196.772801 85.139253 
L 194.972801 82.139253 
L 193.172801 85.139253 
z
" clip-path="url(#p6605491933)" style="fill: #332288; fill-opacity: 0.6; stroke: #ffffff; stroke-opacity: 0.6; stroke-width: 0.339411"/>
    <path d="M 161.94173 108.309203 
L 163.74173 105.309203 
L 161.94173 102.309203 
L 160.14173 105.309203 
z
" clip-path="url(#p6605491933)" style="fill: #332288; fill-opacity: 0.6; stroke: #ffffff; stroke-opacity: 0.6; stroke-width: 0.339411"/>
    <path d="M 85.817568 102.503239 
L 87.617568 99.503239 
L 85.817568 96.503239 
L 84.017568 99.503239 
z
" clip-path="url(#p6605491933)" style="fill: #332288; fill-opacity: 0.6; stroke: #ffffff; stroke-opacity: 0.6; stroke-width: 0.339411"/>
    <path d="M 187.574472 103.076055 
L 189.374472 100.076055 
L 187.574472 97.076055 
L 185.774472 100.076055 
z
" clip-path="url(#p6605491933)" style="fill: #332288; fill-opacity: 0.6; stroke: #ffffff; stroke-opacity: 0.6; stroke-width: 0.339411"/>
    <path d="M 108.073361 109.242973 
L 109.873361 106.242973 
L 108.073361 103.242973 
L 106.273361 106.242973 
z
" clip-path="url(#p6605491933)" style="fill: #332288; fill-opacity: 0.6; stroke: #ffffff; stroke-opacity: 0.6; stroke-width: 0.339411"/>
    <path d="M 89.207727 68.151194 
L 91.007727 65.151194 
L 89.207727 62.151194 
L 87.407727 65.151194 
z
" clip-path="url(#p6605491933)" style="fill: #332288; fill-opacity: 0.6; stroke: #ffffff; stroke-opacity: 0.6; stroke-width: 0.339411"/>
    <path d="M 99.747994 100.38079 
L 101.547994 97.38079 
L 99.747994 94.38079 
L 97.947994 97.38079 
z
" clip-path="url(#p6605491933)" style="fill: #332288; fill-opacity: 0.6; stroke: #ffffff; stroke-opacity: 0.6; stroke-width: 0.339411"/>
    <path d="M 70.053925 86.031405 
L 71.853925 83.031405 
L 70.053925 80.031405 
L 68.253925 83.031405 
z
" clip-path="url(#p6605491933)" style="fill: #332288; fill-opacity: 0.6; stroke: #ffffff; stroke-opacity: 0.6; stroke-width: 0.339411"/>
    <path d="M 159.931654 107.934818 
L 161.731654 104.934818 
L 159.931654 101.934818 
L 158.131654 104.934818 
z
" clip-path="url(#p6605491933)" style="fill: #332288; fill-opacity: 0.6; stroke: #ffffff; stroke-opacity: 0.6; stroke-width: 0.339411"/>
    <path d="M 96.735677 92.396926 
L 98.535677 89.396926 
L 96.735677 86.396926 
L 94.935677 89.396926 
z
" clip-path="url(#p6605491933)" style="fill: #332288; fill-opacity: 0.6; stroke: #ffffff; stroke-opacity: 0.6; stroke-width: 0.339411"/>
    <path d="M 97.457133 105.826964 
L 99.257133 102.826964 
L 97.457133 99.826964 
L 95.657133 102.826964 
z
" clip-path="url(#p6605491933)" style="fill: #332288; fill-opacity: 0.6; stroke: #ffffff; stroke-opacity: 0.6; stroke-width: 0.339411"/>
    <path d="M 203.493964 65.972054 
L 205.293964 62.972054 
L 203.493964 59.972054 
L 201.693964 62.972054 
z
" clip-path="url(#p6605491933)" style="fill: #332288; fill-opacity: 0.6; stroke: #ffffff; stroke-opacity: 0.6; stroke-width: 0.339411"/>
    <path d="M 196.952463 83.725595 
L 198.752463 80.725595 
L 196.952463 77.725595 
L 195.152463 80.725595 
z
" clip-path="url(#p6605491933)" style="fill: #332288; fill-opacity: 0.6; stroke: #ffffff; stroke-opacity: 0.6; stroke-width: 0.339411"/>
    <path d="M 87.503096 99.220436 
L 89.303096 96.220436 
L 87.503096 93.220436 
L 85.703096 96.220436 
z
" clip-path="url(#p6605491933)" style="fill: #332288; fill-opacity: 0.6; stroke: #ffffff; stroke-opacity: 0.6; stroke-width: 0.339411"/>
    <path d="M 211.224269 63.936129 
L 213.024269 60.936129 
L 211.224269 57.936129 
L 209.424269 60.936129 
z
" clip-path="url(#p6605491933)" style="fill: #332288; fill-opacity: 0.6; stroke: #ffffff; stroke-opacity: 0.6; stroke-width: 0.339411"/>
    <path d="M 69.163656 89.271986 
L 70.963656 86.271986 
L 69.163656 83.271986 
L 67.363656 86.271986 
z
" clip-path="url(#p6605491933)" style="fill: #332288; fill-opacity: 0.6; stroke: #ffffff; stroke-opacity: 0.6; stroke-width: 0.339411"/>
    <path d="M 205.934268 58.892744 
L 207.734268 55.892744 
L 205.934268 52.892744 
L 204.134268 55.892744 
z
" clip-path="url(#p6605491933)" style="fill: #332288; fill-opacity: 0.6; stroke: #ffffff; stroke-opacity: 0.6; stroke-width: 0.339411"/>
    <path d="M 185.072379 109.726048 
L 186.872379 106.726048 
L 185.072379 103.726048 
L 183.272379 106.726048 
z
" clip-path="url(#p6605491933)" style="fill: #332288; fill-opacity: 0.6; stroke: #ffffff; stroke-opacity: 0.6; stroke-width: 0.339411"/>
    <path d="M 205.537125 58.599038 
L 207.337125 55.599038 
L 205.537125 52.599038 
L 203.737125 55.599038 
z
" clip-path="url(#p6605491933)" style="fill: #332288; fill-opacity: 0.6; stroke: #ffffff; stroke-opacity: 0.6; stroke-width: 0.339411"/>
    <path d="M 181.156175 92.138259 
L 182.956175 89.138259 
L 181.156175 86.138259 
L 179.356175 89.138259 
z
" clip-path="url(#p6605491933)" style="fill: #332288; fill-opacity: 0.6; stroke: #ffffff; stroke-opacity: 0.6; stroke-width: 0.339411"/>
    <path d="M 182.320198 112.422012 
L 184.120198 109.422012 
L 182.320198 106.422012 
L 180.520198 109.422012 
z
" clip-path="url(#p6605491933)" style="fill: #332288; fill-opacity: 0.6; stroke: #ffffff; stroke-opacity: 0.6; stroke-width: 0.339411"/>
    <path d="M 111.283489 117.151691 
L 113.083489 114.151691 
L 111.283489 111.151691 
L 109.483489 114.151691 
z
" clip-path="url(#p6605491933)" style="fill: #332288; fill-opacity: 0.6; stroke: #ffffff; stroke-opacity: 0.6; stroke-width: 0.339411"/>
    <path d="M 205.215959 61.884389 
L 207.015959 58.884389 
L 205.215959 55.884389 
L 203.415959 58.884389 
z
" clip-path="url(#p6605491933)" style="fill: #332288; fill-opacity: 0.6; stroke: #ffffff; stroke-opacity: 0.6; stroke-width: 0.339411"/>
    <path d="M 101.536051 114.768305 
L 103.336051 111.768305 
L 101.536051 108.768305 
L 99.736051 111.768305 
z
" clip-path="url(#p6605491933)" style="fill: #332288; fill-opacity: 0.6; stroke: #ffffff; stroke-opacity: 0.6; stroke-width: 0.339411"/>
    <path d="M 111.59555 111.65999 
L 113.39555 108.65999 
L 111.59555 105.65999 
L 109.79555 108.65999 
z
" clip-path="url(#p6605491933)" style="fill: #332288; fill-opacity: 0.6; stroke: #ffffff; stroke-opacity: 0.6; stroke-width: 0.339411"/>
    <path d="M 113.376618 111.679905 
L 115.176618 108.679905 
L 113.376618 105.679905 
L 111.576618 108.679905 
z
" clip-path="url(#p6605491933)" style="fill: #332288; fill-opacity: 0.6; stroke: #ffffff; stroke-opacity: 0.6; stroke-width: 0.339411"/>
    <path d="M 94.097719 107.903464 
L 95.897719 104.903464 
L 94.097719 101.903464 
L 92.297719 104.903464 
z
" clip-path="url(#p6605491933)" style="fill: #332288; fill-opacity: 0.6; stroke: #ffffff; stroke-opacity: 0.6; stroke-width: 0.339411"/>
    <path d="M 71.406805 91.983509 
L 73.206805 88.983509 
L 71.406805 85.983509 
L 69.606805 88.983509 
z
" clip-path="url(#p6605491933)" style="fill: #332288; fill-opacity: 0.6; stroke: #ffffff; stroke-opacity: 0.6; stroke-width: 0.339411"/>
    <path d="M 169.73075 108.429061 
L 171.53075 105.429061 
L 169.73075 102.429061 
L 167.93075 105.429061 
z
" clip-path="url(#p6605491933)" style="fill: #332288; fill-opacity: 0.6; stroke: #ffffff; stroke-opacity: 0.6; stroke-width: 0.339411"/>
    <path d="M 102.870853 65.500841 
L 104.670853 62.500841 
L 102.870853 59.500841 
L 101.070853 62.500841 
z
" clip-path="url(#p6605491933)" style="fill: #332288; fill-opacity: 0.6; stroke: #ffffff; stroke-opacity: 0.6; stroke-width: 0.339411"/>
    <path d="M 128.714889 71.068076 
L 130.514889 68.068076 
L 128.714889 65.068076 
L 126.914889 68.068076 
z
" clip-path="url(#p6605491933)" style="fill: #332288; fill-opacity: 0.6; stroke: #ffffff; stroke-opacity: 0.6; stroke-width: 0.339411"/>
    <path d="M 197.530773 81.943036 
L 199.330773 78.943036 
L 197.530773 75.943036 
L 195.730773 78.943036 
z
" clip-path="url(#p6605491933)" style="fill: #332288; fill-opacity: 0.6; stroke: #ffffff; stroke-opacity: 0.6; stroke-width: 0.339411"/>
    <path d="M 174.492731 108.262635 
L 176.292731 105.262635 
L 174.492731 102.262635 
L 172.692731 105.262635 
z
" clip-path="url(#p6605491933)" style="fill: #332288; fill-opacity: 0.6; stroke: #ffffff; stroke-opacity: 0.6; stroke-width: 0.339411"/>
    <path d="M 191.625963 108.816353 
L 193.425963 105.816353 
L 191.625963 102.816353 
L 189.825963 105.816353 
z
" clip-path="url(#p6605491933)" style="fill: #332288; fill-opacity: 0.6; stroke: #ffffff; stroke-opacity: 0.6; stroke-width: 0.339411"/>
    <path d="M 96.084268 101.945006 
L 97.884268 98.945006 
L 96.084268 95.945006 
L 94.284268 98.945006 
z
" clip-path="url(#p6605491933)" style="fill: #332288; fill-opacity: 0.6; stroke: #ffffff; stroke-opacity: 0.6; stroke-width: 0.339411"/>
    <path d="M 101.124479 66.883478 
L 102.924479 63.883478 
L 101.124479 60.883478 
L 99.324479 63.883478 
z
" clip-path="url(#p6605491933)" style="fill: #332288; fill-opacity: 0.6; stroke: #ffffff; stroke-opacity: 0.6; stroke-width: 0.339411"/>
    <path d="M 157.854179 123.41423 
L 155.732859 127.656871 
L 159.9755 127.656871 
z
" clip-path="url(#p6605491933)" style="fill: #117733; fill-opacity: 0.6; stroke: #ffffff; stroke-opacity: 0.6; stroke-width: 0.339411"/>
    <path d="M 153.30756 108.398057 
L 151.186239 112.640697 
L 155.42888 112.640697 
z
" clip-path="url(#p6605491933)" style="fill: #117733; fill-opacity: 0.6; stroke: #ffffff; stroke-opacity: 0.6; stroke-width: 0.339411"/>
    <path d="M 183.359694 79.951488 
L 181.238373 84.194128 
L 185.481014 84.194128 
z
" clip-path="url(#p6605491933)" style="fill: #117733; fill-opacity: 0.6; stroke: #ffffff; stroke-opacity: 0.6; stroke-width: 0.339411"/>
    <path d="M 149.828192 122.241799 
L 147.706872 126.48444 
L 151.949513 126.48444 
z
" clip-path="url(#p6605491933)" style="fill: #117733; fill-opacity: 0.6; stroke: #ffffff; stroke-opacity: 0.6; stroke-width: 0.339411"/>
    <path d="M 191.252109 70.120653 
L 189.130789 74.363293 
L 193.373429 74.363293 
z
" clip-path="url(#p6605491933)" style="fill: #117733; fill-opacity: 0.6; stroke: #ffffff; stroke-opacity: 0.6; stroke-width: 0.339411"/>
    <path d="M 182.245784 75.895066 
L 180.124463 80.137707 
L 184.367104 80.137707 
z
" clip-path="url(#p6605491933)" style="fill: #117733; fill-opacity: 0.6; stroke: #ffffff; stroke-opacity: 0.6; stroke-width: 0.339411"/>
    <path d="M 168.132725 105.152543 
L 166.011404 109.395183 
L 170.254045 109.395183 
z
" clip-path="url(#p6605491933)" style="fill: #117733; fill-opacity: 0.6; stroke: #ffffff; stroke-opacity: 0.6; stroke-width: 0.339411"/>
    <path d="M 201.844059 60.075233 
L 199.722738 64.317873 
L 203.965379 64.317873 
z
" clip-path="url(#p6605491933)" style="fill: #117733; fill-opacity: 0.6; stroke: #ffffff; stroke-opacity: 0.6; stroke-width: 0.339411"/>
    <path d="M 74.476281 79.375158 
L 72.354961 83.617798 
L 76.597602 83.617798 
z
" clip-path="url(#p6605491933)" style="fill: #117733; fill-opacity: 0.6; stroke: #ffffff; stroke-opacity: 0.6; stroke-width: 0.339411"/>
    <path d="M 118.250644 106.220538 
L 116.129324 110.463179 
L 120.371965 110.463179 
z
" clip-path="url(#p6605491933)" style="fill: #117733; fill-opacity: 0.6; stroke: #ffffff; stroke-opacity: 0.6; stroke-width: 0.339411"/>
    <path d="M 193.321092 69.921565 
L 191.199772 74.164205 
L 195.442413 74.164205 
z
" clip-path="url(#p6605491933)" style="fill: #117733; fill-opacity: 0.6; stroke: #ffffff; stroke-opacity: 0.6; stroke-width: 0.339411"/>
    <path d="M 169.36349 70.694152 
L 167.242169 74.936793 
L 171.48481 74.936793 
z
" clip-path="url(#p6605491933)" style="fill: #117733; fill-opacity: 0.6; stroke: #ffffff; stroke-opacity: 0.6; stroke-width: 0.339411"/>
    <path d="M 202.679661 64.134052 
L 200.55834 68.376693 
L 204.800981 68.376693 
z
" clip-path="url(#p6605491933)" style="fill: #117733; fill-opacity: 0.6; stroke: #ffffff; stroke-opacity: 0.6; stroke-width: 0.339411"/>
    <path d="M 201.544859 68.484472 
L 199.423538 72.727113 
L 203.666179 72.727113 
z
" clip-path="url(#p6605491933)" style="fill: #117733; fill-opacity: 0.6; stroke: #ffffff; stroke-opacity: 0.6; stroke-width: 0.339411"/>
    <path d="M 109.686509 112.30742 
L 107.565189 116.55006 
L 111.80783 116.55006 
z
" clip-path="url(#p6605491933)" style="fill: #117733; fill-opacity: 0.6; stroke: #ffffff; stroke-opacity: 0.6; stroke-width: 0.339411"/>
    <path d="M 183.402374 68.685984 
L 181.281054 72.928624 
L 185.523694 72.928624 
z
" clip-path="url(#p6605491933)" style="fill: #117733; fill-opacity: 0.6; stroke: #ffffff; stroke-opacity: 0.6; stroke-width: 0.339411"/>
    <path d="M 174.378081 97.95425 
L 172.256761 102.196891 
L 176.499401 102.196891 
z
" clip-path="url(#p6605491933)" style="fill: #117733; fill-opacity: 0.6; stroke: #ffffff; stroke-opacity: 0.6; stroke-width: 0.339411"/>
    <path d="M 190.112282 59.55425 
L 187.990962 63.79689 
L 192.233603 63.79689 
z
" clip-path="url(#p6605491933)" style="fill: #117733; fill-opacity: 0.6; stroke: #ffffff; stroke-opacity: 0.6; stroke-width: 0.339411"/>
    <path d="M 90.45974 78.519357 
L 88.338419 82.761998 
L 92.58106 82.761998 
z
" clip-path="url(#p6605491933)" style="fill: #117733; fill-opacity: 0.6; stroke: #ffffff; stroke-opacity: 0.6; stroke-width: 0.339411"/>
    <path d="M 189.310802 103.913651 
L 187.189481 108.156292 
L 191.432122 108.156292 
z
" clip-path="url(#p6605491933)" style="fill: #117733; fill-opacity: 0.6; stroke: #ffffff; stroke-opacity: 0.6; stroke-width: 0.339411"/>
    <path d="M 178.952671 92.719205 
L 176.831351 96.961845 
L 181.073991 96.961845 
z
" clip-path="url(#p6605491933)" style="fill: #117733; fill-opacity: 0.6; stroke: #ffffff; stroke-opacity: 0.6; stroke-width: 0.339411"/>
    <path d="M 210.371737 53.93492 
L 208.250417 58.177561 
L 212.493058 58.177561 
z
" clip-path="url(#p6605491933)" style="fill: #117733; fill-opacity: 0.6; stroke: #ffffff; stroke-opacity: 0.6; stroke-width: 0.339411"/>
    <path d="M 171.786415 100.252148 
L 169.665095 104.494788 
L 173.907735 104.494788 
z
" clip-path="url(#p6605491933)" style="fill: #117733; fill-opacity: 0.6; stroke: #ffffff; stroke-opacity: 0.6; stroke-width: 0.339411"/>
    <path d="M 79.879625 76.126336 
L 77.758305 80.368977 
L 82.000946 80.368977 
z
" clip-path="url(#p6605491933)" style="fill: #117733; fill-opacity: 0.6; stroke: #ffffff; stroke-opacity: 0.6; stroke-width: 0.339411"/>
    <path d="M 189.777502 76.599416 
L 187.656181 80.842057 
L 191.898822 80.842057 
z
" clip-path="url(#p6605491933)" style="fill: #117733; fill-opacity: 0.6; stroke: #ffffff; stroke-opacity: 0.6; stroke-width: 0.339411"/>
    <path d="M 189.388208 64.511779 
L 187.266888 68.75442 
L 191.509528 68.75442 
z
" clip-path="url(#p6605491933)" style="fill: #117733; fill-opacity: 0.6; stroke: #ffffff; stroke-opacity: 0.6; stroke-width: 0.339411"/>
    <path d="M 156.3891 112.030052 
L 154.26778 116.272693 
L 158.510421 116.272693 
z
" clip-path="url(#p6605491933)" style="fill: #117733; fill-opacity: 0.6; stroke: #ffffff; stroke-opacity: 0.6; stroke-width: 0.339411"/>
    <path d="M 138.326169 103.022963 
L 136.204849 107.265604 
L 140.44749 107.265604 
z
" clip-path="url(#p6605491933)" style="fill: #117733; fill-opacity: 0.6; stroke: #ffffff; stroke-opacity: 0.6; stroke-width: 0.339411"/>
    <path d="M 213.677365 58.94409 
L 211.556045 63.186731 
L 215.798685 63.186731 
z
" clip-path="url(#p6605491933)" style="fill: #117733; fill-opacity: 0.6; stroke: #ffffff; stroke-opacity: 0.6; stroke-width: 0.339411"/>
    <path d="M 176.519368 68.805653 
L 174.398047 73.048294 
L 178.640688 73.048294 
z
" clip-path="url(#p6605491933)" style="fill: #117733; fill-opacity: 0.6; stroke: #ffffff; stroke-opacity: 0.6; stroke-width: 0.339411"/>
    <path d="M 194.766541 57.726628 
L 192.645221 61.969268 
L 196.887861 61.969268 
z
" clip-path="url(#p6605491933)" style="fill: #117733; fill-opacity: 0.6; stroke: #ffffff; stroke-opacity: 0.6; stroke-width: 0.339411"/>
    <path d="M 175.940223 106.887214 
L 173.818902 111.129855 
L 178.061543 111.129855 
z
" clip-path="url(#p6605491933)" style="fill: #117733; fill-opacity: 0.6; stroke: #ffffff; stroke-opacity: 0.6; stroke-width: 0.339411"/>
    <path d="M 168.090206 113.295723 
L 165.968886 117.538364 
L 170.211526 117.538364 
z
" clip-path="url(#p6605491933)" style="fill: #117733; fill-opacity: 0.6; stroke: #ffffff; stroke-opacity: 0.6; stroke-width: 0.339411"/>
    <path d="M 192.930454 59.36837 
L 190.809134 63.611011 
L 195.051774 63.611011 
z
" clip-path="url(#p6605491933)" style="fill: #117733; fill-opacity: 0.6; stroke: #ffffff; stroke-opacity: 0.6; stroke-width: 0.339411"/>
    <path d="M 196.84914 68.804762 
L 194.727819 73.047402 
L 198.97046 73.047402 
z
" clip-path="url(#p6605491933)" style="fill: #117733; fill-opacity: 0.6; stroke: #ffffff; stroke-opacity: 0.6; stroke-width: 0.339411"/>
    <path d="M 153.248402 99.038026 
L 151.127082 103.280667 
L 155.369723 103.280667 
z
" clip-path="url(#p6605491933)" style="fill: #117733; fill-opacity: 0.6; stroke: #ffffff; stroke-opacity: 0.6; stroke-width: 0.339411"/>
    <path d="M 195.176612 62.130262 
L 193.055291 66.372903 
L 197.297932 66.372903 
z
" clip-path="url(#p6605491933)" style="fill: #117733; fill-opacity: 0.6; stroke: #ffffff; stroke-opacity: 0.6; stroke-width: 0.339411"/>
    <path d="M 190.663467 67.211829 
L 188.542147 71.45447 
L 192.784787 71.45447 
z
" clip-path="url(#p6605491933)" style="fill: #117733; fill-opacity: 0.6; stroke: #ffffff; stroke-opacity: 0.6; stroke-width: 0.339411"/>
    <path d="M 187.923296 63.805188 
L 185.801975 68.047828 
L 190.044616 68.047828 
z
" clip-path="url(#p6605491933)" style="fill: #117733; fill-opacity: 0.6; stroke: #ffffff; stroke-opacity: 0.6; stroke-width: 0.339411"/>
    <path d="M 167.324145 105.253999 
L 165.202824 109.49664 
L 169.445465 109.49664 
z
" clip-path="url(#p6605491933)" style="fill: #117733; fill-opacity: 0.6; stroke: #ffffff; stroke-opacity: 0.6; stroke-width: 0.339411"/>
    <path d="M 162.315798 106.493321 
L 160.194478 110.735961 
L 164.437118 110.735961 
z
" clip-path="url(#p6605491933)" style="fill: #117733; fill-opacity: 0.6; stroke: #ffffff; stroke-opacity: 0.6; stroke-width: 0.339411"/>
    <path d="M 181.46041 70.840176 
L 179.33909 75.082817 
L 183.58173 75.082817 
z
" clip-path="url(#p6605491933)" style="fill: #117733; fill-opacity: 0.6; stroke: #ffffff; stroke-opacity: 0.6; stroke-width: 0.339411"/>
    <path d="M 83.286747 62.411557 
L 81.165426 66.654198 
L 85.408067 66.654198 
z
" clip-path="url(#p6605491933)" style="fill: #117733; fill-opacity: 0.6; stroke: #ffffff; stroke-opacity: 0.6; stroke-width: 0.339411"/>
    <path d="M 124.059309 116.213465 
L 121.937989 120.456105 
L 126.180629 120.456105 
z
" clip-path="url(#p6605491933)" style="fill: #117733; fill-opacity: 0.6; stroke: #ffffff; stroke-opacity: 0.6; stroke-width: 0.339411"/>
    <path d="M 162.218892 97.439016 
L 160.097571 101.681657 
L 164.340212 101.681657 
z
" clip-path="url(#p6605491933)" style="fill: #117733; fill-opacity: 0.6; stroke: #ffffff; stroke-opacity: 0.6; stroke-width: 0.339411"/>
    <path d="M 214.473967 60.115786 
L 212.352646 64.358427 
L 216.595287 64.358427 
z
" clip-path="url(#p6605491933)" style="fill: #117733; fill-opacity: 0.6; stroke: #ffffff; stroke-opacity: 0.6; stroke-width: 0.339411"/>
    <path d="M 188.809418 72.526971 
L 186.688097 76.769612 
L 190.930738 76.769612 
z
" clip-path="url(#p6605491933)" style="fill: #117733; fill-opacity: 0.6; stroke: #ffffff; stroke-opacity: 0.6; stroke-width: 0.339411"/>
    <path d="M 186.419759 68.302132 
L 184.298438 72.544773 
L 188.541079 72.544773 
z
" clip-path="url(#p6605491933)" style="fill: #117733; fill-opacity: 0.6; stroke: #ffffff; stroke-opacity: 0.6; stroke-width: 0.339411"/>
    <path d="M 185.973211 61.114682 
L 183.85189 65.357322 
L 188.094531 65.357322 
z
" clip-path="url(#p6605491933)" style="fill: #117733; fill-opacity: 0.6; stroke: #ffffff; stroke-opacity: 0.6; stroke-width: 0.339411"/>
    <path d="M 139.473768 108.619267 
L 137.352448 112.861907 
L 141.595088 112.861907 
z
" clip-path="url(#p6605491933)" style="fill: #117733; fill-opacity: 0.6; stroke: #ffffff; stroke-opacity: 0.6; stroke-width: 0.339411"/>
    <path d="M 209.516828 63.222863 
L 207.395508 67.465504 
L 211.638148 67.465504 
z
" clip-path="url(#p6605491933)" style="fill: #117733; fill-opacity: 0.6; stroke: #ffffff; stroke-opacity: 0.6; stroke-width: 0.339411"/>
    <path d="M 128.073236 98.738165 
L 125.951915 102.980805 
L 130.194556 102.980805 
z
" clip-path="url(#p6605491933)" style="fill: #117733; fill-opacity: 0.6; stroke: #ffffff; stroke-opacity: 0.6; stroke-width: 0.339411"/>
    <path d="M 199.594847 70.970891 
L 197.473526 75.213532 
L 201.716167 75.213532 
z
" clip-path="url(#p6605491933)" style="fill: #117733; fill-opacity: 0.6; stroke: #ffffff; stroke-opacity: 0.6; stroke-width: 0.339411"/>
    <path d="M 205.751485 61.850453 
L 203.630165 66.093094 
L 207.872806 66.093094 
z
" clip-path="url(#p6605491933)" style="fill: #117733; fill-opacity: 0.6; stroke: #ffffff; stroke-opacity: 0.6; stroke-width: 0.339411"/>
    <path d="M 186.18533 75.093773 
L 184.064009 79.336414 
L 188.30665 79.336414 
z
" clip-path="url(#p6605491933)" style="fill: #117733; fill-opacity: 0.6; stroke: #ffffff; stroke-opacity: 0.6; stroke-width: 0.339411"/>
    <path d="M 199.159693 71.873495 
L 197.038373 76.116136 
L 201.281013 76.116136 
z
" clip-path="url(#p6605491933)" style="fill: #117733; fill-opacity: 0.6; stroke: #ffffff; stroke-opacity: 0.6; stroke-width: 0.339411"/>
    <path d="M 75.600408 63.177587 
L 73.479087 67.420228 
L 77.721728 67.420228 
z
" clip-path="url(#p6605491933)" style="fill: #117733; fill-opacity: 0.6; stroke: #ffffff; stroke-opacity: 0.6; stroke-width: 0.339411"/>
    <path d="M 109.031496 105.518708 
L 106.910176 109.761349 
L 111.152816 109.761349 
z
" clip-path="url(#p6605491933)" style="fill: #117733; fill-opacity: 0.6; stroke: #ffffff; stroke-opacity: 0.6; stroke-width: 0.339411"/>
    <path d="M 146.76868 113.356274 
L 144.64736 117.598915 
L 148.89 117.598915 
z
" clip-path="url(#p6605491933)" style="fill: #117733; fill-opacity: 0.6; stroke: #ffffff; stroke-opacity: 0.6; stroke-width: 0.339411"/>
    <path d="M 135.663284 79.013329 
L 133.541964 83.25597 
L 137.784605 83.25597 
z
" clip-path="url(#p6605491933)" style="fill: #117733; fill-opacity: 0.6; stroke: #ffffff; stroke-opacity: 0.6; stroke-width: 0.339411"/>
    <path d="M 163.924045 117.112493 
L 161.802724 121.355134 
L 166.045365 121.355134 
z
" clip-path="url(#p6605491933)" style="fill: #117733; fill-opacity: 0.6; stroke: #ffffff; stroke-opacity: 0.6; stroke-width: 0.339411"/>
    <path d="M 84.211091 65.527417 
L 82.089771 69.770058 
L 86.332412 69.770058 
z
" clip-path="url(#p6605491933)" style="fill: #117733; fill-opacity: 0.6; stroke: #ffffff; stroke-opacity: 0.6; stroke-width: 0.339411"/>
    <path d="M 196.188856 62.779005 
L 194.067536 67.021646 
L 198.310177 67.021646 
z
" clip-path="url(#p6605491933)" style="fill: #117733; fill-opacity: 0.6; stroke: #ffffff; stroke-opacity: 0.6; stroke-width: 0.339411"/>
    <path d="M 101.887816 106.678406 
L 106.130457 106.678406 
L 106.130457 102.435765 
L 101.887816 102.435765 
z
" clip-path="url(#p6605491933)" style="fill: #44aa99; fill-opacity: 0.6; stroke: #ffffff; stroke-opacity: 0.6; stroke-width: 0.339411"/>
    <path d="M 136.434597 119.907144 
L 140.677238 119.907144 
L 140.677238 115.664503 
L 136.434597 115.664503 
z
" clip-path="url(#p6605491933)" style="fill: #44aa99; fill-opacity: 0.6; stroke: #ffffff; stroke-opacity: 0.6; stroke-width: 0.339411"/>
    <path d="M 80.139702 86.57381 
L 84.382343 86.57381 
L 84.382343 82.33117 
L 80.139702 82.33117 
z
" clip-path="url(#p6605491933)" style="fill: #44aa99; fill-opacity: 0.6; stroke: #ffffff; stroke-opacity: 0.6; stroke-width: 0.339411"/>
    <path d="M 139.156603 72.643321 
L 143.399243 72.643321 
L 143.399243 68.40068 
L 139.156603 68.40068 
z
" clip-path="url(#p6605491933)" style="fill: #44aa99; fill-opacity: 0.6; stroke: #ffffff; stroke-opacity: 0.6; stroke-width: 0.339411"/>
    <path d="M 135.134094 114.447104 
L 139.376734 114.447104 
L 139.376734 110.204464 
L 135.134094 110.204464 
z
" clip-path="url(#p6605491933)" style="fill: #44aa99; fill-opacity: 0.6; stroke: #ffffff; stroke-opacity: 0.6; stroke-width: 0.339411"/>
    <path d="M 76.960396 81.094234 
L 81.203037 81.094234 
L 81.203037 76.851594 
L 76.960396 76.851594 
z
" clip-path="url(#p6605491933)" style="fill: #44aa99; fill-opacity: 0.6; stroke: #ffffff; stroke-opacity: 0.6; stroke-width: 0.339411"/>
    <path d="M 109.593324 88.055684 
L 113.835965 88.055684 
L 113.835965 83.813044 
L 109.593324 83.813044 
z
" clip-path="url(#p6605491933)" style="fill: #44aa99; fill-opacity: 0.6; stroke: #ffffff; stroke-opacity: 0.6; stroke-width: 0.339411"/>
    <path d="M 138.596405 119.004298 
L 142.839046 119.004298 
L 142.839046 114.761657 
L 138.596405 114.761657 
z
" clip-path="url(#p6605491933)" style="fill: #44aa99; fill-opacity: 0.6; stroke: #ffffff; stroke-opacity: 0.6; stroke-width: 0.339411"/>
    <path d="M 124.409219 95.109495 
L 128.65186 95.109495 
L 128.65186 90.866855 
L 124.409219 90.866855 
z
" clip-path="url(#p6605491933)" style="fill: #44aa99; fill-opacity: 0.6; stroke: #ffffff; stroke-opacity: 0.6; stroke-width: 0.339411"/>
    <path d="M 143.83989 116.343005 
L 148.082531 116.343005 
L 148.082531 112.100364 
L 143.83989 112.100364 
z
" clip-path="url(#p6605491933)" style="fill: #44aa99; fill-opacity: 0.6; stroke: #ffffff; stroke-opacity: 0.6; stroke-width: 0.339411"/>
    <path d="M 148.23924 75.825969 
L 152.48188 75.825969 
L 152.48188 71.583329 
L 148.23924 71.583329 
z
" clip-path="url(#p6605491933)" style="fill: #44aa99; fill-opacity: 0.6; stroke: #ffffff; stroke-opacity: 0.6; stroke-width: 0.339411"/>
    <path d="M 140.753892 102.330368 
L 144.996533 102.330368 
L 144.996533 98.087728 
L 140.753892 98.087728 
z
" clip-path="url(#p6605491933)" style="fill: #44aa99; fill-opacity: 0.6; stroke: #ffffff; stroke-opacity: 0.6; stroke-width: 0.339411"/>
    <path d="M 112.944538 91.492486 
L 117.187179 91.492486 
L 117.187179 87.249845 
L 112.944538 87.249845 
z
" clip-path="url(#p6605491933)" style="fill: #44aa99; fill-opacity: 0.6; stroke: #ffffff; stroke-opacity: 0.6; stroke-width: 0.339411"/>
    <path d="M 131.398131 96.220794 
L 135.640772 96.220794 
L 135.640772 91.978153 
L 131.398131 91.978153 
z
" clip-path="url(#p6605491933)" style="fill: #44aa99; fill-opacity: 0.6; stroke: #ffffff; stroke-opacity: 0.6; stroke-width: 0.339411"/>
    <path d="M 150.8765 76.572838 
L 155.11914 76.572838 
L 155.11914 72.330197 
L 150.8765 72.330197 
z
" clip-path="url(#p6605491933)" style="fill: #44aa99; fill-opacity: 0.6; stroke: #ffffff; stroke-opacity: 0.6; stroke-width: 0.339411"/>
    <path d="M 92.259787 89.438577 
L 96.502428 89.438577 
L 96.502428 85.195936 
L 92.259787 85.195936 
z
" clip-path="url(#p6605491933)" style="fill: #44aa99; fill-opacity: 0.6; stroke: #ffffff; stroke-opacity: 0.6; stroke-width: 0.339411"/>
    <path d="M 117.486832 102.425106 
L 121.729472 102.425106 
L 121.729472 98.182466 
L 117.486832 98.182466 
z
" clip-path="url(#p6605491933)" style="fill: #44aa99; fill-opacity: 0.6; stroke: #ffffff; stroke-opacity: 0.6; stroke-width: 0.339411"/>
    <path d="M 82.028879 82.552766 
L 86.27152 82.552766 
L 86.27152 78.310126 
L 82.028879 78.310126 
z
" clip-path="url(#p6605491933)" style="fill: #44aa99; fill-opacity: 0.6; stroke: #ffffff; stroke-opacity: 0.6; stroke-width: 0.339411"/>
    <path d="M 153.509329 106.896082 
L 157.75197 106.896082 
L 157.75197 102.653441 
L 153.509329 102.653441 
z
" clip-path="url(#p6605491933)" style="fill: #44aa99; fill-opacity: 0.6; stroke: #ffffff; stroke-opacity: 0.6; stroke-width: 0.339411"/>
    <path d="M 115.317945 94.112362 
L 119.560585 94.112362 
L 119.560585 89.869721 
L 115.317945 89.869721 
z
" clip-path="url(#p6605491933)" style="fill: #44aa99; fill-opacity: 0.6; stroke: #ffffff; stroke-opacity: 0.6; stroke-width: 0.339411"/>
    <path d="M 87.547445 98.387528 
L 91.790086 98.387528 
L 91.790086 94.144887 
L 87.547445 94.144887 
z
" clip-path="url(#p6605491933)" style="fill: #44aa99; fill-opacity: 0.6; stroke: #ffffff; stroke-opacity: 0.6; stroke-width: 0.339411"/>
    <path d="M 91.896135 70.614417 
L 96.138776 70.614417 
L 96.138776 66.371776 
L 91.896135 66.371776 
z
" clip-path="url(#p6605491933)" style="fill: #44aa99; fill-opacity: 0.6; stroke: #ffffff; stroke-opacity: 0.6; stroke-width: 0.339411"/>
    <path d="M 142.929858 76.997259 
L 147.172499 76.997259 
L 147.172499 72.754618 
L 142.929858 72.754618 
z
" clip-path="url(#p6605491933)" style="fill: #44aa99; fill-opacity: 0.6; stroke: #ffffff; stroke-opacity: 0.6; stroke-width: 0.339411"/>
    <path d="M 159.600217 125.620779 
L 163.842857 125.620779 
L 163.842857 121.378138 
L 159.600217 121.378138 
z
" clip-path="url(#p6605491933)" style="fill: #44aa99; fill-opacity: 0.6; stroke: #ffffff; stroke-opacity: 0.6; stroke-width: 0.339411"/>
    <path d="M 122.54605 103.479593 
L 126.788691 103.479593 
L 126.788691 99.236953 
L 122.54605 99.236953 
z
" clip-path="url(#p6605491933)" style="fill: #44aa99; fill-opacity: 0.6; stroke: #ffffff; stroke-opacity: 0.6; stroke-width: 0.339411"/>
    <path d="M 82.792811 78.141652 
L 87.035452 78.141652 
L 87.035452 73.899011 
L 82.792811 73.899011 
z
" clip-path="url(#p6605491933)" style="fill: #44aa99; fill-opacity: 0.6; stroke: #ffffff; stroke-opacity: 0.6; stroke-width: 0.339411"/>
    <path d="M 184.932544 66.762869 
L 189.175185 66.762869 
L 189.175185 62.520228 
L 184.932544 62.520228 
z
" clip-path="url(#p6605491933)" style="fill: #44aa99; fill-opacity: 0.6; stroke: #ffffff; stroke-opacity: 0.6; stroke-width: 0.339411"/>
    <path d="M 149.882488 73.679517 
L 154.125129 73.679517 
L 154.125129 69.436876 
L 149.882488 69.436876 
z
" clip-path="url(#p6605491933)" style="fill: #44aa99; fill-opacity: 0.6; stroke: #ffffff; stroke-opacity: 0.6; stroke-width: 0.339411"/>
    <path d="M 116.438138 107.919288 
L 120.680779 107.919288 
L 120.680779 103.676648 
L 116.438138 103.676648 
z
" clip-path="url(#p6605491933)" style="fill: #44aa99; fill-opacity: 0.6; stroke: #ffffff; stroke-opacity: 0.6; stroke-width: 0.339411"/>
    <path d="M 78.455429 78.538947 
L 82.69807 78.538947 
L 82.69807 74.296306 
L 78.455429 74.296306 
z
" clip-path="url(#p6605491933)" style="fill: #44aa99; fill-opacity: 0.6; stroke: #ffffff; stroke-opacity: 0.6; stroke-width: 0.339411"/>
    <path d="M 114.770476 116.553402 
L 119.013117 116.553402 
L 119.013117 112.310761 
L 114.770476 112.310761 
z
" clip-path="url(#p6605491933)" style="fill: #44aa99; fill-opacity: 0.6; stroke: #ffffff; stroke-opacity: 0.6; stroke-width: 0.339411"/>
    <path d="M 170.240695 71.4509 
L 174.483336 71.4509 
L 174.483336 67.208259 
L 170.240695 67.208259 
z
" clip-path="url(#p6605491933)" style="fill: #44aa99; fill-opacity: 0.6; stroke: #ffffff; stroke-opacity: 0.6; stroke-width: 0.339411"/>
    <path d="M 131.335753 121.699904 
L 135.578393 121.699904 
L 135.578393 117.457263 
L 131.335753 117.457263 
z
" clip-path="url(#p6605491933)" style="fill: #44aa99; fill-opacity: 0.6; stroke: #ffffff; stroke-opacity: 0.6; stroke-width: 0.339411"/>
    <path d="M 156.23908 125.098404 
L 160.481721 125.098404 
L 160.481721 120.855763 
L 156.23908 120.855763 
z
" clip-path="url(#p6605491933)" style="fill: #44aa99; fill-opacity: 0.6; stroke: #ffffff; stroke-opacity: 0.6; stroke-width: 0.339411"/>
    <path d="M 130.712778 76.249035 
L 134.955419 76.249035 
L 134.955419 72.006394 
L 130.712778 72.006394 
z
" clip-path="url(#p6605491933)" style="fill: #44aa99; fill-opacity: 0.6; stroke: #ffffff; stroke-opacity: 0.6; stroke-width: 0.339411"/>
    <path d="M 145.036455 115.032233 
L 149.279096 115.032233 
L 149.279096 110.789592 
L 145.036455 110.789592 
z
" clip-path="url(#p6605491933)" style="fill: #44aa99; fill-opacity: 0.6; stroke: #ffffff; stroke-opacity: 0.6; stroke-width: 0.339411"/>
    <path d="M 122.750004 95.64327 
L 126.992645 95.64327 
L 126.992645 91.40063 
L 122.750004 91.40063 
z
" clip-path="url(#p6605491933)" style="fill: #44aa99; fill-opacity: 0.6; stroke: #ffffff; stroke-opacity: 0.6; stroke-width: 0.339411"/>
    <path d="M 156.910758 121.240551 
L 161.153399 121.240551 
L 161.153399 116.997911 
L 156.910758 116.997911 
z
" clip-path="url(#p6605491933)" style="fill: #44aa99; fill-opacity: 0.6; stroke: #ffffff; stroke-opacity: 0.6; stroke-width: 0.339411"/>
    <path d="M 107.045987 76.311116 
L 111.288628 76.311116 
L 111.288628 72.068476 
L 107.045987 72.068476 
z
" clip-path="url(#p6605491933)" style="fill: #44aa99; fill-opacity: 0.6; stroke: #ffffff; stroke-opacity: 0.6; stroke-width: 0.339411"/>
    <path d="M 95.668742 82.984959 
L 99.911383 82.984959 
L 99.911383 78.742318 
L 95.668742 78.742318 
z
" clip-path="url(#p6605491933)" style="fill: #44aa99; fill-opacity: 0.6; stroke: #ffffff; stroke-opacity: 0.6; stroke-width: 0.339411"/>
    <path d="M 74.360427 84.747044 
L 78.603067 84.747044 
L 78.603067 80.504403 
L 74.360427 80.504403 
z
" clip-path="url(#p6605491933)" style="fill: #44aa99; fill-opacity: 0.6; stroke: #ffffff; stroke-opacity: 0.6; stroke-width: 0.339411"/>
    <path d="M 112.361977 103.106245 
L 116.604617 103.106245 
L 116.604617 98.863604 
L 112.361977 98.863604 
z
" clip-path="url(#p6605491933)" style="fill: #44aa99; fill-opacity: 0.6; stroke: #ffffff; stroke-opacity: 0.6; stroke-width: 0.339411"/>
    <path d="M 121.72153 76.907504 
L 125.964171 76.907504 
L 125.964171 72.664863 
L 121.72153 72.664863 
z
" clip-path="url(#p6605491933)" style="fill: #44aa99; fill-opacity: 0.6; stroke: #ffffff; stroke-opacity: 0.6; stroke-width: 0.339411"/>
    <path d="M 86.951016 68.437883 
L 91.193656 68.437883 
L 91.193656 64.195242 
L 86.951016 64.195242 
z
" clip-path="url(#p6605491933)" style="fill: #44aa99; fill-opacity: 0.6; stroke: #ffffff; stroke-opacity: 0.6; stroke-width: 0.339411"/>
    <path d="M 100.415506 84.392971 
L 104.658147 84.392971 
L 104.658147 80.15033 
L 100.415506 80.15033 
z
" clip-path="url(#p6605491933)" style="fill: #44aa99; fill-opacity: 0.6; stroke: #ffffff; stroke-opacity: 0.6; stroke-width: 0.339411"/>
    <path d="M 106.234472 69.632243 
L 110.477113 69.632243 
L 110.477113 65.389603 
L 106.234472 65.389603 
z
" clip-path="url(#p6605491933)" style="fill: #44aa99; fill-opacity: 0.6; stroke: #ffffff; stroke-opacity: 0.6; stroke-width: 0.339411"/>
    <path d="M 92.471588 85.264399 
L 96.714229 85.264399 
L 96.714229 81.021758 
L 92.471588 81.021758 
z
" clip-path="url(#p6605491933)" style="fill: #44aa99; fill-opacity: 0.6; stroke: #ffffff; stroke-opacity: 0.6; stroke-width: 0.339411"/>
    <path d="M 135.089156 97.695902 
L 139.331797 97.695902 
L 139.331797 93.453261 
L 135.089156 93.453261 
z
" clip-path="url(#p6605491933)" style="fill: #44aa99; fill-opacity: 0.6; stroke: #ffffff; stroke-opacity: 0.6; stroke-width: 0.339411"/>
    <path d="M 126.06104 87.48514 
L 130.303681 87.48514 
L 130.303681 83.242499 
L 126.06104 83.242499 
z
" clip-path="url(#p6605491933)" style="fill: #44aa99; fill-opacity: 0.6; stroke: #ffffff; stroke-opacity: 0.6; stroke-width: 0.339411"/>
    <path d="M 147.087012 121.142251 
L 151.329653 121.142251 
L 151.329653 116.89961 
L 147.087012 116.89961 
z
" clip-path="url(#p6605491933)" style="fill: #44aa99; fill-opacity: 0.6; stroke: #ffffff; stroke-opacity: 0.6; stroke-width: 0.339411"/>
    <path d="M 109.319215 76.820851 
L 113.561855 76.820851 
L 113.561855 72.57821 
L 109.319215 72.57821 
z
" clip-path="url(#p6605491933)" style="fill: #44aa99; fill-opacity: 0.6; stroke: #ffffff; stroke-opacity: 0.6; stroke-width: 0.339411"/>
    <path d="M 132.369116 76.974923 
L 136.611757 76.974923 
L 136.611757 72.732282 
L 132.369116 72.732282 
z
" clip-path="url(#p6605491933)" style="fill: #44aa99; fill-opacity: 0.6; stroke: #ffffff; stroke-opacity: 0.6; stroke-width: 0.339411"/>
    <path d="M 97.991179 94.867659 
L 102.23382 94.867659 
L 102.23382 90.625019 
L 97.991179 90.625019 
z
" clip-path="url(#p6605491933)" style="fill: #44aa99; fill-opacity: 0.6; stroke: #ffffff; stroke-opacity: 0.6; stroke-width: 0.339411"/>
    <path d="M 110.266312 86.127408 
L 114.508952 86.127408 
L 114.508952 81.884768 
L 110.266312 81.884768 
z
" clip-path="url(#p6605491933)" style="fill: #44aa99; fill-opacity: 0.6; stroke: #ffffff; stroke-opacity: 0.6; stroke-width: 0.339411"/>
    <path d="M 88.480215 88.404982 
L 92.722856 88.404982 
L 92.722856 84.162341 
L 88.480215 84.162341 
z
" clip-path="url(#p6605491933)" style="fill: #44aa99; fill-opacity: 0.6; stroke: #ffffff; stroke-opacity: 0.6; stroke-width: 0.339411"/>
    <path d="M 74.498055 80.388503 
L 78.740696 80.388503 
L 78.740696 76.145862 
L 74.498055 76.145862 
z
" clip-path="url(#p6605491933)" style="fill: #44aa99; fill-opacity: 0.6; stroke: #ffffff; stroke-opacity: 0.6; stroke-width: 0.339411"/>
    <path d="M 79.098366 64.299901 
L 83.341007 64.299901 
L 83.341007 60.05726 
L 79.098366 60.05726 
z
" clip-path="url(#p6605491933)" style="fill: #44aa99; fill-opacity: 0.6; stroke: #ffffff; stroke-opacity: 0.6; stroke-width: 0.339411"/>
    <path d="M 157.207607 74.655998 
L 161.450248 74.655998 
L 161.450248 70.413358 
L 157.207607 70.413358 
z
" clip-path="url(#p6605491933)" style="fill: #44aa99; fill-opacity: 0.6; stroke: #ffffff; stroke-opacity: 0.6; stroke-width: 0.339411"/>
    <path d="M 76.754746 72.265646 
L 80.997386 72.265646 
L 80.997386 68.023005 
L 76.754746 68.023005 
z
" clip-path="url(#p6605491933)" style="fill: #44aa99; fill-opacity: 0.6; stroke: #ffffff; stroke-opacity: 0.6; stroke-width: 0.339411"/>
    <path d="M 89.144272 71.851218 
L 93.386912 71.851218 
L 93.386912 67.608577 
L 89.144272 67.608577 
z
" clip-path="url(#p6605491933)" style="fill: #44aa99; fill-opacity: 0.6; stroke: #ffffff; stroke-opacity: 0.6; stroke-width: 0.339411"/>
    <path d="M 146.187786 72.754478 
L 150.430427 72.754478 
L 150.430427 68.511838 
L 146.187786 68.511838 
z
" clip-path="url(#p6605491933)" style="fill: #44aa99; fill-opacity: 0.6; stroke: #ffffff; stroke-opacity: 0.6; stroke-width: 0.339411"/>
    <path d="M 122.532388 77.112967 
L 126.775029 77.112967 
L 126.775029 72.870326 
L 122.532388 72.870326 
z
" clip-path="url(#p6605491933)" style="fill: #44aa99; fill-opacity: 0.6; stroke: #ffffff; stroke-opacity: 0.6; stroke-width: 0.339411"/>
    <path d="M 133.829431 104.761592 
L 138.072071 104.761592 
L 138.072071 100.518952 
L 133.829431 100.518952 
z
" clip-path="url(#p6605491933)" style="fill: #44aa99; fill-opacity: 0.6; stroke: #ffffff; stroke-opacity: 0.6; stroke-width: 0.339411"/>
    <path d="M 101.030169 78.311654 
L 102.09083 77.250994 
L 103.15149 78.311654 
L 104.21215 77.250994 
L 103.15149 76.190333 
L 104.21215 75.129673 
L 103.15149 74.069013 
L 102.09083 75.129673 
L 101.030169 74.069013 
L 99.969509 75.129673 
L 101.030169 76.190333 
L 99.969509 77.250994 
z
" clip-path="url(#p6605491933)" style="fill: #88ccee; fill-opacity: 0.6; stroke: #ffffff; stroke-opacity: 0.6; stroke-width: 0.339411"/>
    <path d="M 153.246441 123.028117 
L 154.307101 121.967457 
L 155.367761 123.028117 
L 156.428422 121.967457 
L 155.367761 120.906797 
L 156.428422 119.846137 
L 155.367761 118.785477 
L 154.307101 119.846137 
L 153.246441 118.785477 
L 152.185781 119.846137 
L 153.246441 120.906797 
L 152.185781 121.967457 
z
" clip-path="url(#p6605491933)" style="fill: #88ccee; fill-opacity: 0.6; stroke: #ffffff; stroke-opacity: 0.6; stroke-width: 0.339411"/>
    <path d="M 140.293272 73.05433 
L 141.353932 71.99367 
L 142.414592 73.05433 
L 143.475253 71.99367 
L 142.414592 70.93301 
L 143.475253 69.872349 
L 142.414592 68.811689 
L 141.353932 69.872349 
L 140.293272 68.811689 
L 139.232612 69.872349 
L 140.293272 70.93301 
L 139.232612 71.99367 
z
" clip-path="url(#p6605491933)" style="fill: #88ccee; fill-opacity: 0.6; stroke: #ffffff; stroke-opacity: 0.6; stroke-width: 0.339411"/>
    <path d="M 121.606561 119.256905 
L 122.667221 118.196245 
L 123.727882 119.256905 
L 124.788542 118.196245 
L 123.727882 117.135585 
L 124.788542 116.074925 
L 123.727882 115.014265 
L 122.667221 116.074925 
L 121.606561 115.014265 
L 120.545901 116.074925 
L 121.606561 117.135585 
L 120.545901 118.196245 
z
" clip-path="url(#p6605491933)" style="fill: #88ccee; fill-opacity: 0.6; stroke: #ffffff; stroke-opacity: 0.6; stroke-width: 0.339411"/>
    <path d="M 106.914552 75.572249 
L 107.975212 74.511589 
L 109.035872 75.572249 
L 110.096532 74.511589 
L 109.035872 73.450928 
L 110.096532 72.390268 
L 109.035872 71.329608 
L 107.975212 72.390268 
L 106.914552 71.329608 
L 105.853892 72.390268 
L 106.914552 73.450928 
L 105.853892 74.511589 
z
" clip-path="url(#p6605491933)" style="fill: #88ccee; fill-opacity: 0.6; stroke: #ffffff; stroke-opacity: 0.6; stroke-width: 0.339411"/>
    <path d="M 213.979973 61.984072 
L 215.040633 60.923412 
L 216.101293 61.984072 
L 217.161953 60.923412 
L 216.101293 59.862752 
L 217.161953 58.802092 
L 216.101293 57.741431 
L 215.040633 58.802092 
L 213.979973 57.741431 
L 212.919312 58.802092 
L 213.979973 59.862752 
L 212.919312 60.923412 
z
" clip-path="url(#p6605491933)" style="fill: #88ccee; fill-opacity: 0.6; stroke: #ffffff; stroke-opacity: 0.6; stroke-width: 0.339411"/>
    <path d="M 96.673515 75.656666 
L 97.734175 74.596006 
L 98.794835 75.656666 
L 99.855495 74.596006 
L 98.794835 73.535346 
L 99.855495 72.474685 
L 98.794835 71.414025 
L 97.734175 72.474685 
L 96.673515 71.414025 
L 95.612855 72.474685 
L 96.673515 73.535346 
L 95.612855 74.596006 
z
" clip-path="url(#p6605491933)" style="fill: #88ccee; fill-opacity: 0.6; stroke: #ffffff; stroke-opacity: 0.6; stroke-width: 0.339411"/>
    <path d="M 181.56737 76.320426 
L 182.62803 75.259766 
L 183.68869 76.320426 
L 184.74935 75.259766 
L 183.68869 74.199106 
L 184.74935 73.138445 
L 183.68869 72.077785 
L 182.62803 73.138445 
L 181.56737 72.077785 
L 180.50671 73.138445 
L 181.56737 74.199106 
L 180.50671 75.259766 
z
" clip-path="url(#p6605491933)" style="fill: #88ccee; fill-opacity: 0.6; stroke: #ffffff; stroke-opacity: 0.6; stroke-width: 0.339411"/>
    <path d="M 97.345773 96.252809 
L 98.406434 95.192149 
L 99.467094 96.252809 
L 100.527754 95.192149 
L 99.467094 94.131489 
L 100.527754 93.070829 
L 99.467094 92.010169 
L 98.406434 93.070829 
L 97.345773 92.010169 
L 96.285113 93.070829 
L 97.345773 94.131489 
L 96.285113 95.192149 
z
" clip-path="url(#p6605491933)" style="fill: #88ccee; fill-opacity: 0.6; stroke: #ffffff; stroke-opacity: 0.6; stroke-width: 0.339411"/>
    <path d="M 106.197318 95.557513 
L 107.257978 94.496853 
L 108.318638 95.557513 
L 109.379298 94.496853 
L 108.318638 93.436193 
L 109.379298 92.375533 
L 108.318638 91.314873 
L 107.257978 92.375533 
L 106.197318 91.314873 
L 105.136657 92.375533 
L 106.197318 93.436193 
L 105.136657 94.496853 
z
" clip-path="url(#p6605491933)" style="fill: #88ccee; fill-opacity: 0.6; stroke: #ffffff; stroke-opacity: 0.6; stroke-width: 0.339411"/>
    <path d="M 109.629741 73.846876 
L 110.690401 72.786216 
L 111.751061 73.846876 
L 112.811721 72.786216 
L 111.751061 71.725556 
L 112.811721 70.664896 
L 111.751061 69.604236 
L 110.690401 70.664896 
L 109.629741 69.604236 
L 108.56908 70.664896 
L 109.629741 71.725556 
L 108.56908 72.786216 
z
" clip-path="url(#p6605491933)" style="fill: #88ccee; fill-opacity: 0.6; stroke: #ffffff; stroke-opacity: 0.6; stroke-width: 0.339411"/>
    <path d="M 132.747134 93.733254 
L 133.807794 92.672594 
L 134.868454 93.733254 
L 135.929114 92.672594 
L 134.868454 91.611933 
L 135.929114 90.551273 
L 134.868454 89.490613 
L 133.807794 90.551273 
L 132.747134 89.490613 
L 131.686473 90.551273 
L 132.747134 91.611933 
L 131.686473 92.672594 
z
" clip-path="url(#p6605491933)" style="fill: #88ccee; fill-opacity: 0.6; stroke: #ffffff; stroke-opacity: 0.6; stroke-width: 0.339411"/>
    <path d="M 139.892996 119.025414 
L 140.953656 117.964753 
L 142.014316 119.025414 
L 143.074976 117.964753 
L 142.014316 116.904093 
L 143.074976 115.843433 
L 142.014316 114.782773 
L 140.953656 115.843433 
L 139.892996 114.782773 
L 138.832335 115.843433 
L 139.892996 116.904093 
L 138.832335 117.964753 
z
" clip-path="url(#p6605491933)" style="fill: #88ccee; fill-opacity: 0.6; stroke: #ffffff; stroke-opacity: 0.6; stroke-width: 0.339411"/>
    <path d="M 133.943821 112.089596 
L 135.004482 111.028936 
L 136.065142 112.089596 
L 137.125802 111.028936 
L 136.065142 109.968276 
L 137.125802 108.907616 
L 136.065142 107.846955 
L 135.004482 108.907616 
L 133.943821 107.846955 
L 132.883161 108.907616 
L 133.943821 109.968276 
L 132.883161 111.028936 
z
" clip-path="url(#p6605491933)" style="fill: #88ccee; fill-opacity: 0.6; stroke: #ffffff; stroke-opacity: 0.6; stroke-width: 0.339411"/>
    <path d="M 132.786454 105.354785 
L 133.847115 104.294125 
L 134.907775 105.354785 
L 135.968435 104.294125 
L 134.907775 103.233465 
L 135.968435 102.172804 
L 134.907775 101.112144 
L 133.847115 102.172804 
L 132.786454 101.112144 
L 131.725794 102.172804 
L 132.786454 103.233465 
L 131.725794 104.294125 
z
" clip-path="url(#p6605491933)" style="fill: #88ccee; fill-opacity: 0.6; stroke: #ffffff; stroke-opacity: 0.6; stroke-width: 0.339411"/>
    <path d="M 82.24606 94.708917 
L 83.30672 93.648256 
L 84.367381 94.708917 
L 85.428041 93.648256 
L 84.367381 92.587596 
L 85.428041 91.526936 
L 84.367381 90.466276 
L 83.30672 91.526936 
L 82.24606 90.466276 
L 81.1854 91.526936 
L 82.24606 92.587596 
L 81.1854 93.648256 
z
" clip-path="url(#p6605491933)" style="fill: #88ccee; fill-opacity: 0.6; stroke: #ffffff; stroke-opacity: 0.6; stroke-width: 0.339411"/>
    <path d="M 132.427292 98.290168 
L 133.487952 97.229508 
L 134.548612 98.290168 
L 135.609272 97.229508 
L 134.548612 96.168848 
L 135.609272 95.108188 
L 134.548612 94.047528 
L 133.487952 95.108188 
L 132.427292 94.047528 
L 131.366632 95.108188 
L 132.427292 96.168848 
L 131.366632 97.229508 
z
" clip-path="url(#p6605491933)" style="fill: #88ccee; fill-opacity: 0.6; stroke: #ffffff; stroke-opacity: 0.6; stroke-width: 0.339411"/>
    <path d="M 74.765747 73.644786 
L 75.826407 72.584126 
L 76.887067 73.644786 
L 77.947727 72.584126 
L 76.887067 71.523466 
L 77.947727 70.462805 
L 76.887067 69.402145 
L 75.826407 70.462805 
L 74.765747 69.402145 
L 73.705086 70.462805 
L 74.765747 71.523466 
L 73.705086 72.584126 
z
" clip-path="url(#p6605491933)" style="fill: #88ccee; fill-opacity: 0.6; stroke: #ffffff; stroke-opacity: 0.6; stroke-width: 0.339411"/>
    <path d="M 128.276338 106.072854 
L 129.336998 105.012194 
L 130.397659 106.072854 
L 131.458319 105.012194 
L 130.397659 103.951534 
L 131.458319 102.890874 
L 130.397659 101.830214 
L 129.336998 102.890874 
L 128.276338 101.830214 
L 127.215678 102.890874 
L 128.276338 103.951534 
L 127.215678 105.012194 
z
" clip-path="url(#p6605491933)" style="fill: #88ccee; fill-opacity: 0.6; stroke: #ffffff; stroke-opacity: 0.6; stroke-width: 0.339411"/>
    <path d="M 120.376883 98.56956 
L 121.437543 97.5089 
L 122.498204 98.56956 
L 123.558864 97.5089 
L 122.498204 96.44824 
L 123.558864 95.38758 
L 122.498204 94.32692 
L 121.437543 95.38758 
L 120.376883 94.32692 
L 119.316223 95.38758 
L 120.376883 96.44824 
L 119.316223 97.5089 
z
" clip-path="url(#p6605491933)" style="fill: #88ccee; fill-opacity: 0.6; stroke: #ffffff; stroke-opacity: 0.6; stroke-width: 0.339411"/>
    <path d="M 69.793353 70.229976 
L 70.854013 69.169316 
L 71.914674 70.229976 
L 72.975334 69.169316 
L 71.914674 68.108656 
L 72.975334 67.047996 
L 71.914674 65.987335 
L 70.854013 67.047996 
L 69.793353 65.987335 
L 68.732693 67.047996 
L 69.793353 68.108656 
L 68.732693 69.169316 
z
" clip-path="url(#p6605491933)" style="fill: #88ccee; fill-opacity: 0.6; stroke: #ffffff; stroke-opacity: 0.6; stroke-width: 0.339411"/>
    <path d="M 79.487809 70.085365 
L 80.548469 69.024704 
L 81.609129 70.085365 
L 82.669789 69.024704 
L 81.609129 67.964044 
L 82.669789 66.903384 
L 81.609129 65.842724 
L 80.548469 66.903384 
L 79.487809 65.842724 
L 78.427148 66.903384 
L 79.487809 67.964044 
L 78.427148 69.024704 
z
" clip-path="url(#p6605491933)" style="fill: #88ccee; fill-opacity: 0.6; stroke: #ffffff; stroke-opacity: 0.6; stroke-width: 0.339411"/>
    <path d="M 113.258929 72.786687 
L 114.319589 71.726027 
L 115.38025 72.786687 
L 116.44091 71.726027 
L 115.38025 70.665366 
L 116.44091 69.604706 
L 115.38025 68.544046 
L 114.319589 69.604706 
L 113.258929 68.544046 
L 112.198269 69.604706 
L 113.258929 70.665366 
L 112.198269 71.726027 
z
" clip-path="url(#p6605491933)" style="fill: #88ccee; fill-opacity: 0.6; stroke: #ffffff; stroke-opacity: 0.6; stroke-width: 0.339411"/>
    <path d="M 142.672287 95.398604 
L 143.732947 94.337944 
L 144.793607 95.398604 
L 145.854267 94.337944 
L 144.793607 93.277284 
L 145.854267 92.216623 
L 144.793607 91.155963 
L 143.732947 92.216623 
L 142.672287 91.155963 
L 141.611627 92.216623 
L 142.672287 93.277284 
L 141.611627 94.337944 
z
" clip-path="url(#p6605491933)" style="fill: #88ccee; fill-opacity: 0.6; stroke: #ffffff; stroke-opacity: 0.6; stroke-width: 0.339411"/>
    <path d="M 77.57688 64.223662 
L 78.63754 63.163002 
L 79.6982 64.223662 
L 80.758861 63.163002 
L 79.6982 62.102342 
L 80.758861 61.041681 
L 79.6982 59.981021 
L 78.63754 61.041681 
L 77.57688 59.981021 
L 76.51622 61.041681 
L 77.57688 62.102342 
L 76.51622 63.163002 
z
" clip-path="url(#p6605491933)" style="fill: #88ccee; fill-opacity: 0.6; stroke: #ffffff; stroke-opacity: 0.6; stroke-width: 0.339411"/>
    <path d="M 170.56844 86.566946 
L 171.629101 85.506285 
L 172.689761 86.566946 
L 173.750421 85.506285 
L 172.689761 84.445625 
L 173.750421 83.384965 
L 172.689761 82.324305 
L 171.629101 83.384965 
L 170.56844 82.324305 
L 169.50778 83.384965 
L 170.56844 84.445625 
L 169.50778 85.506285 
z
" clip-path="url(#p6605491933)" style="fill: #88ccee; fill-opacity: 0.6; stroke: #ffffff; stroke-opacity: 0.6; stroke-width: 0.339411"/>
    <path d="M 145.638985 77.523486 
L 146.699645 76.462826 
L 147.760305 77.523486 
L 148.820965 76.462826 
L 147.760305 75.402166 
L 148.820965 74.341505 
L 147.760305 73.280845 
L 146.699645 74.341505 
L 145.638985 73.280845 
L 144.578325 74.341505 
L 145.638985 75.402166 
L 144.578325 76.462826 
z
" clip-path="url(#p6605491933)" style="fill: #88ccee; fill-opacity: 0.6; stroke: #ffffff; stroke-opacity: 0.6; stroke-width: 0.339411"/>
    <path d="M 164.001064 95.058824 
L 165.061724 93.998164 
L 166.122384 95.058824 
L 167.183044 93.998164 
L 166.122384 92.937504 
L 167.183044 91.876844 
L 166.122384 90.816184 
L 165.061724 91.876844 
L 164.001064 90.816184 
L 162.940404 91.876844 
L 164.001064 92.937504 
L 162.940404 93.998164 
z
" clip-path="url(#p6605491933)" style="fill: #88ccee; fill-opacity: 0.6; stroke: #ffffff; stroke-opacity: 0.6; stroke-width: 0.339411"/>
    <path d="M 102.056668 70.930703 
L 103.117328 69.870043 
L 104.177988 70.930703 
L 105.238648 69.870043 
L 104.177988 68.809383 
L 105.238648 67.748723 
L 104.177988 66.688063 
L 103.117328 67.748723 
L 102.056668 66.688063 
L 100.996007 67.748723 
L 102.056668 68.809383 
L 100.996007 69.870043 
z
" clip-path="url(#p6605491933)" style="fill: #88ccee; fill-opacity: 0.6; stroke: #ffffff; stroke-opacity: 0.6; stroke-width: 0.339411"/>
    <path d="M 72.5455 75.519503 
L 73.606161 74.458843 
L 74.666821 75.519503 
L 75.727481 74.458843 
L 74.666821 73.398183 
L 75.727481 72.337523 
L 74.666821 71.276862 
L 73.606161 72.337523 
L 72.5455 71.276862 
L 71.48484 72.337523 
L 72.5455 73.398183 
L 71.48484 74.458843 
z
" clip-path="url(#p6605491933)" style="fill: #88ccee; fill-opacity: 0.6; stroke: #ffffff; stroke-opacity: 0.6; stroke-width: 0.339411"/>
    <path d="M 116.733188 96.801758 
L 117.793848 95.741098 
L 118.854508 96.801758 
L 119.915169 95.741098 
L 118.854508 94.680438 
L 119.915169 93.619777 
L 118.854508 92.559117 
L 117.793848 93.619777 
L 116.733188 92.559117 
L 115.672528 93.619777 
L 116.733188 94.680438 
L 115.672528 95.741098 
z
" clip-path="url(#p6605491933)" style="fill: #88ccee; fill-opacity: 0.6; stroke: #ffffff; stroke-opacity: 0.6; stroke-width: 0.339411"/>
    <path d="M 174.62493 80.446847 
L 175.68559 79.386187 
L 176.74625 80.446847 
L 177.80691 79.386187 
L 176.74625 78.325526 
L 177.80691 77.264866 
L 176.74625 76.204206 
L 175.68559 77.264866 
L 174.62493 76.204206 
L 173.56427 77.264866 
L 174.62493 78.325526 
L 173.56427 79.386187 
z
" clip-path="url(#p6605491933)" style="fill: #88ccee; fill-opacity: 0.6; stroke: #ffffff; stroke-opacity: 0.6; stroke-width: 0.339411"/>
    <path d="M 135.038797 113.23112 
L 136.099457 112.170459 
L 137.160117 113.23112 
L 138.220777 112.170459 
L 137.160117 111.109799 
L 138.220777 110.049139 
L 137.160117 108.988479 
L 136.099457 110.049139 
L 135.038797 108.988479 
L 133.978137 110.049139 
L 135.038797 111.109799 
L 133.978137 112.170459 
z
" clip-path="url(#p6605491933)" style="fill: #88ccee; fill-opacity: 0.6; stroke: #ffffff; stroke-opacity: 0.6; stroke-width: 0.339411"/>
    <path d="M 136.973914 88.877874 
L 138.034574 87.817214 
L 139.095235 88.877874 
L 140.155895 87.817214 
L 139.095235 86.756554 
L 140.155895 85.695894 
L 139.095235 84.635234 
L 138.034574 85.695894 
L 136.973914 84.635234 
L 135.913254 85.695894 
L 136.973914 86.756554 
L 135.913254 87.817214 
z
" clip-path="url(#p6605491933)" style="fill: #88ccee; fill-opacity: 0.6; stroke: #ffffff; stroke-opacity: 0.6; stroke-width: 0.339411"/>
    <path d="M 125.174044 108.494529 
L 126.234704 107.433869 
L 127.295364 108.494529 
L 128.356024 107.433869 
L 127.295364 106.373208 
L 128.356024 105.312548 
L 127.295364 104.251888 
L 126.234704 105.312548 
L 125.174044 104.251888 
L 124.113384 105.312548 
L 125.174044 106.373208 
L 124.113384 107.433869 
z
" clip-path="url(#p6605491933)" style="fill: #88ccee; fill-opacity: 0.6; stroke: #ffffff; stroke-opacity: 0.6; stroke-width: 0.339411"/>
    <path d="M 157.895664 98.948028 
L 158.956325 97.887367 
L 160.016985 98.948028 
L 161.077645 97.887367 
L 160.016985 96.826707 
L 161.077645 95.766047 
L 160.016985 94.705387 
L 158.956325 95.766047 
L 157.895664 94.705387 
L 156.835004 95.766047 
L 157.895664 96.826707 
L 156.835004 97.887367 
z
" clip-path="url(#p6605491933)" style="fill: #88ccee; fill-opacity: 0.6; stroke: #ffffff; stroke-opacity: 0.6; stroke-width: 0.339411"/>
    <path d="M 137.537124 99.101944 
L 138.597784 98.041283 
L 139.658445 99.101944 
L 140.719105 98.041283 
L 139.658445 96.980623 
L 140.719105 95.919963 
L 139.658445 94.859303 
L 138.597784 95.919963 
L 137.537124 94.859303 
L 136.476464 95.919963 
L 137.537124 96.980623 
L 136.476464 98.041283 
z
" clip-path="url(#p6605491933)" style="fill: #88ccee; fill-opacity: 0.6; stroke: #ffffff; stroke-opacity: 0.6; stroke-width: 0.339411"/>
    <path d="M 105.469224 79.281056 
L 106.529884 78.220396 
L 107.590545 79.281056 
L 108.651205 78.220396 
L 107.590545 77.159736 
L 108.651205 76.099076 
L 107.590545 75.038416 
L 106.529884 76.099076 
L 105.469224 75.038416 
L 104.408564 76.099076 
L 105.469224 77.159736 
L 104.408564 78.220396 
z
" clip-path="url(#p6605491933)" style="fill: #88ccee; fill-opacity: 0.6; stroke: #ffffff; stroke-opacity: 0.6; stroke-width: 0.339411"/>
    <path d="M 133.236956 118.628184 
L 134.297616 117.567524 
L 135.358277 118.628184 
L 136.418937 117.567524 
L 135.358277 116.506864 
L 136.418937 115.446203 
L 135.358277 114.385543 
L 134.297616 115.446203 
L 133.236956 114.385543 
L 132.176296 115.446203 
L 133.236956 116.506864 
L 132.176296 117.567524 
z
" clip-path="url(#p6605491933)" style="fill: #88ccee; fill-opacity: 0.6; stroke: #ffffff; stroke-opacity: 0.6; stroke-width: 0.339411"/>
    <path d="M 145.891366 81.705009 
L 146.952026 80.644349 
L 148.012686 81.705009 
L 149.073346 80.644349 
L 148.012686 79.583688 
L 149.073346 78.523028 
L 148.012686 77.462368 
L 146.952026 78.523028 
L 145.891366 77.462368 
L 144.830706 78.523028 
L 145.891366 79.583688 
L 144.830706 80.644349 
z
" clip-path="url(#p6605491933)" style="fill: #88ccee; fill-opacity: 0.6; stroke: #ffffff; stroke-opacity: 0.6; stroke-width: 0.339411"/>
    <path d="M 103.890058 69.131678 
L 104.950719 68.071018 
L 106.011379 69.131678 
L 107.072039 68.071018 
L 106.011379 67.010357 
L 107.072039 65.949697 
L 106.011379 64.889037 
L 104.950719 65.949697 
L 103.890058 64.889037 
L 102.829398 65.949697 
L 103.890058 67.010357 
L 102.829398 68.071018 
z
" clip-path="url(#p6605491933)" style="fill: #88ccee; fill-opacity: 0.6; stroke: #ffffff; stroke-opacity: 0.6; stroke-width: 0.339411"/>
    <path d="M 130.357652 110.635119 
L 131.418312 109.574459 
L 132.478972 110.635119 
L 133.539632 109.574459 
L 132.478972 108.513799 
L 133.539632 107.453139 
L 132.478972 106.392479 
L 131.418312 107.453139 
L 130.357652 106.392479 
L 129.296992 107.453139 
L 130.357652 108.513799 
L 129.296992 109.574459 
z
" clip-path="url(#p6605491933)" style="fill: #88ccee; fill-opacity: 0.6; stroke: #ffffff; stroke-opacity: 0.6; stroke-width: 0.339411"/>
    <path d="M 139.354451 94.405896 
L 140.415111 93.345236 
L 141.475772 94.405896 
L 142.536432 93.345236 
L 141.475772 92.284576 
L 142.536432 91.223915 
L 141.475772 90.163255 
L 140.415111 91.223915 
L 139.354451 90.163255 
L 138.293791 91.223915 
L 139.354451 92.284576 
L 138.293791 93.345236 
z
" clip-path="url(#p6605491933)" style="fill: #88ccee; fill-opacity: 0.6; stroke: #ffffff; stroke-opacity: 0.6; stroke-width: 0.339411"/>
    <path d="M 142.188407 108.83054 
L 143.249067 107.76988 
L 144.309727 108.83054 
L 145.370387 107.76988 
L 144.309727 106.709219 
L 145.370387 105.648559 
L 144.309727 104.587899 
L 143.249067 105.648559 
L 142.188407 104.587899 
L 141.127746 105.648559 
L 142.188407 106.709219 
L 141.127746 107.76988 
z
" clip-path="url(#p6605491933)" style="fill: #88ccee; fill-opacity: 0.6; stroke: #ffffff; stroke-opacity: 0.6; stroke-width: 0.339411"/>
    <path d="M 104.576408 115.940795 
L 105.637068 114.880135 
L 106.697729 115.940795 
L 107.758389 114.880135 
L 106.697729 113.819475 
L 107.758389 112.758814 
L 106.697729 111.698154 
L 105.637068 112.758814 
L 104.576408 111.698154 
L 103.515748 112.758814 
L 104.576408 113.819475 
L 103.515748 114.880135 
z
" clip-path="url(#p6605491933)" style="fill: #88ccee; fill-opacity: 0.6; stroke: #ffffff; stroke-opacity: 0.6; stroke-width: 0.339411"/>
    <path d="M 142.626865 78.46448 
L 143.687525 77.40382 
L 144.748185 78.46448 
L 145.808845 77.40382 
L 144.748185 76.34316 
L 145.808845 75.2825 
L 144.748185 74.22184 
L 143.687525 75.2825 
L 142.626865 74.22184 
L 141.566205 75.2825 
L 142.626865 76.34316 
L 141.566205 77.40382 
z
" clip-path="url(#p6605491933)" style="fill: #88ccee; fill-opacity: 0.6; stroke: #ffffff; stroke-opacity: 0.6; stroke-width: 0.339411"/>
    <path d="M 171.403088 77.264016 
L 172.463749 76.203356 
L 173.524409 77.264016 
L 174.585069 76.203356 
L 173.524409 75.142696 
L 174.585069 74.082036 
L 173.524409 73.021375 
L 172.463749 74.082036 
L 171.403088 73.021375 
L 170.342428 74.082036 
L 171.403088 75.142696 
L 170.342428 76.203356 
z
" clip-path="url(#p6605491933)" style="fill: #88ccee; fill-opacity: 0.6; stroke: #ffffff; stroke-opacity: 0.6; stroke-width: 0.339411"/>
    <path d="M 82.328689 75.025781 
L 83.389349 73.965121 
L 84.450009 75.025781 
L 85.510669 73.965121 
L 84.450009 72.904461 
L 85.510669 71.843801 
L 84.450009 70.783141 
L 83.389349 71.843801 
L 82.328689 70.783141 
L 81.268029 71.843801 
L 82.328689 72.904461 
L 81.268029 73.965121 
z
" clip-path="url(#p6605491933)" style="fill: #88ccee; fill-opacity: 0.6; stroke: #ffffff; stroke-opacity: 0.6; stroke-width: 0.339411"/>
    <path d="M 164.391405 78.014351 
L 165.452065 76.953691 
L 166.512725 78.014351 
L 167.573386 76.953691 
L 166.512725 75.893031 
L 167.573386 74.832371 
L 166.512725 73.77171 
L 165.452065 74.832371 
L 164.391405 73.77171 
L 163.330745 74.832371 
L 164.391405 75.893031 
L 163.330745 76.953691 
z
" clip-path="url(#p6605491933)" style="fill: #88ccee; fill-opacity: 0.6; stroke: #ffffff; stroke-opacity: 0.6; stroke-width: 0.339411"/>
    <path d="M 98.585773 74.715823 
L 99.646433 73.655163 
L 100.707093 74.715823 
L 101.767753 73.655163 
L 100.707093 72.594502 
L 101.767753 71.533842 
L 100.707093 70.473182 
L 99.646433 71.533842 
L 98.585773 70.473182 
L 97.525113 71.533842 
L 98.585773 72.594502 
L 97.525113 73.655163 
z
" clip-path="url(#p6605491933)" style="fill: #88ccee; fill-opacity: 0.6; stroke: #ffffff; stroke-opacity: 0.6; stroke-width: 0.339411"/>
    <path d="M 150.367105 121.061003 
L 151.427766 120.000343 
L 152.488426 121.061003 
L 153.549086 120.000343 
L 152.488426 118.939682 
L 153.549086 117.879022 
L 152.488426 116.818362 
L 151.427766 117.879022 
L 150.367105 116.818362 
L 149.306445 117.879022 
L 150.367105 118.939682 
L 149.306445 120.000343 
z
" clip-path="url(#p6605491933)" style="fill: #88ccee; fill-opacity: 0.6; stroke: #ffffff; stroke-opacity: 0.6; stroke-width: 0.339411"/>
    <path d="M 129.451615 89.003663 
L 130.512276 87.943003 
L 131.572936 89.003663 
L 132.633596 87.943003 
L 131.572936 86.882343 
L 132.633596 85.821683 
L 131.572936 84.761023 
L 130.512276 85.821683 
L 129.451615 84.761023 
L 128.390955 85.821683 
L 129.451615 86.882343 
L 128.390955 87.943003 
z
" clip-path="url(#p6605491933)" style="fill: #88ccee; fill-opacity: 0.6; stroke: #ffffff; stroke-opacity: 0.6; stroke-width: 0.339411"/>
    <path d="M 82.022984 64.730769 
L 83.083644 63.670109 
L 84.144304 64.730769 
L 85.204964 63.670109 
L 84.144304 62.609449 
L 85.204964 61.548789 
L 84.144304 60.488129 
L 83.083644 61.548789 
L 82.022984 60.488129 
L 80.962323 61.548789 
L 82.022984 62.609449 
L 80.962323 63.670109 
z
" clip-path="url(#p6605491933)" style="fill: #88ccee; fill-opacity: 0.6; stroke: #ffffff; stroke-opacity: 0.6; stroke-width: 0.339411"/>
    <path d="M 74.911526 72.367374 
L 75.972186 71.306714 
L 77.032846 72.367374 
L 78.093506 71.306714 
L 77.032846 70.246054 
L 78.093506 69.185394 
L 77.032846 68.124733 
L 75.972186 69.185394 
L 74.911526 68.124733 
L 73.850866 69.185394 
L 74.911526 70.246054 
L 73.850866 71.306714 
z
" clip-path="url(#p6605491933)" style="fill: #88ccee; fill-opacity: 0.6; stroke: #ffffff; stroke-opacity: 0.6; stroke-width: 0.339411"/>
    <path d="M 73.445071 68.672056 
L 74.505731 67.611396 
L 75.566391 68.672056 
L 76.627051 67.611396 
L 75.566391 66.550736 
L 76.627051 65.490076 
L 75.566391 64.429416 
L 74.505731 65.490076 
L 73.445071 64.429416 
L 72.38441 65.490076 
L 73.445071 66.550736 
L 72.38441 67.611396 
z
" clip-path="url(#p6605491933)" style="fill: #88ccee; fill-opacity: 0.6; stroke: #ffffff; stroke-opacity: 0.6; stroke-width: 0.339411"/>
    <path d="M 129.131709 120.881699 
L 130.192369 119.821039 
L 131.253029 120.881699 
L 132.313689 119.821039 
L 131.253029 118.760379 
L 132.313689 117.699719 
L 131.253029 116.639058 
L 130.192369 117.699719 
L 129.131709 116.639058 
L 128.071048 117.699719 
L 129.131709 118.760379 
L 128.071048 119.821039 
z
" clip-path="url(#p6605491933)" style="fill: #88ccee; fill-opacity: 0.6; stroke: #ffffff; stroke-opacity: 0.6; stroke-width: 0.339411"/>
    <path d="M 158.949583 119.155972 
L 160.010243 118.095312 
L 161.070904 119.155972 
L 162.131564 118.095312 
L 161.070904 117.034652 
L 162.131564 115.973992 
L 161.070904 114.913331 
L 160.010243 115.973992 
L 158.949583 114.913331 
L 157.888923 115.973992 
L 158.949583 117.034652 
L 157.888923 118.095312 
z
" clip-path="url(#p6605491933)" style="fill: #88ccee; fill-opacity: 0.6; stroke: #ffffff; stroke-opacity: 0.6; stroke-width: 0.339411"/>
    <path d="M 88.101144 79.816379 
L 89.161804 78.755719 
L 90.222464 79.816379 
L 91.283124 78.755719 
L 90.222464 77.695059 
L 91.283124 76.634399 
L 90.222464 75.573739 
L 89.161804 76.634399 
L 88.101144 75.573739 
L 87.040484 76.634399 
L 88.101144 77.695059 
L 87.040484 78.755719 
z
" clip-path="url(#p6605491933)" style="fill: #88ccee; fill-opacity: 0.6; stroke: #ffffff; stroke-opacity: 0.6; stroke-width: 0.339411"/>
    <path d="M 160.177846 120.652147 
L 161.238506 119.591486 
L 162.299166 120.652147 
L 163.359827 119.591486 
L 162.299166 118.530826 
L 163.359827 117.470166 
L 162.299166 116.409506 
L 161.238506 117.470166 
L 160.177846 116.409506 
L 159.117186 117.470166 
L 160.177846 118.530826 
L 159.117186 119.591486 
z
" clip-path="url(#p6605491933)" style="fill: #88ccee; fill-opacity: 0.6; stroke: #ffffff; stroke-opacity: 0.6; stroke-width: 0.339411"/>
    <path d="M 141.149667 121.688007 
L 142.210327 120.627346 
L 143.270987 121.688007 
L 144.331647 120.627346 
L 143.270987 119.566686 
L 144.331647 118.506026 
L 143.270987 117.445366 
L 142.210327 118.506026 
L 141.149667 117.445366 
L 140.089007 118.506026 
L 141.149667 119.566686 
L 140.089007 120.627346 
z
" clip-path="url(#p6605491933)" style="fill: #88ccee; fill-opacity: 0.6; stroke: #ffffff; stroke-opacity: 0.6; stroke-width: 0.339411"/>
    <path d="M 118.983662 101.344906 
L 120.044322 100.284246 
L 121.104982 101.344906 
L 122.165642 100.284246 
L 121.104982 99.223586 
L 122.165642 98.162925 
L 121.104982 97.102265 
L 120.044322 98.162925 
L 118.983662 97.102265 
L 117.923002 98.162925 
L 118.983662 99.223586 
L 117.923002 100.284246 
z
" clip-path="url(#p6605491933)" style="fill: #88ccee; fill-opacity: 0.6; stroke: #ffffff; stroke-opacity: 0.6; stroke-width: 0.339411"/>
    <path d="M 92.037034 80.225913 
L 93.097694 79.165253 
L 94.158354 80.225913 
L 95.219014 79.165253 
L 94.158354 78.104593 
L 95.219014 77.043933 
L 94.158354 75.983273 
L 93.097694 77.043933 
L 92.037034 75.983273 
L 90.976374 77.043933 
L 92.037034 78.104593 
L 90.976374 79.165253 
z
" clip-path="url(#p6605491933)" style="fill: #88ccee; fill-opacity: 0.6; stroke: #ffffff; stroke-opacity: 0.6; stroke-width: 0.339411"/>
    <path d="M 162.547676 104.163547 
L 163.608337 103.102887 
L 164.668997 104.163547 
L 165.729657 103.102887 
L 164.668997 102.042226 
L 165.729657 100.981566 
L 164.668997 99.920906 
L 163.608337 100.981566 
L 162.547676 99.920906 
L 161.487016 100.981566 
L 162.547676 102.042226 
L 161.487016 103.102887 
z
" clip-path="url(#p6605491933)" style="fill: #88ccee; fill-opacity: 0.6; stroke: #ffffff; stroke-opacity: 0.6; stroke-width: 0.339411"/>
    <path d="M 153.616344 82.405903 
L 154.677004 81.345243 
L 155.737664 82.405903 
L 156.798324 81.345243 
L 155.737664 80.284583 
L 156.798324 79.223922 
L 155.737664 78.163262 
L 154.677004 79.223922 
L 153.616344 78.163262 
L 152.555684 79.223922 
L 153.616344 80.284583 
L 152.555684 81.345243 
z
" clip-path="url(#p6605491933)" style="fill: #88ccee; fill-opacity: 0.6; stroke: #ffffff; stroke-opacity: 0.6; stroke-width: 0.339411"/>
   </g>
   <g id="matplotlib.axis_1">
    <g id="xtick_1">
     <g id="line2d_1">
      <defs>
       <path id="md5376d3c92" d="M 0 0 
L 0 8 
" style="stroke: #000000"/>
      </defs>
      <g>
       <use xlink:href="#md5376d3c92" x="92.601368" y="188.936063" style="stroke: #000000"/>
      </g>
     </g>
     <g id="text_1">
      <!-- 0 -->
      <g transform="translate(88.783868 209.554188) scale(0.12 -0.12)">
       <defs>
        <path id="DejaVuSans-30" d="M 2034 4250 
Q 1547 4250 1301 3770 
Q 1056 3291 1056 2328 
Q 1056 1369 1301 889 
Q 1547 409 2034 409 
Q 2525 409 2770 889 
Q 3016 1369 3016 2328 
Q 3016 3291 2770 3770 
Q 2525 4250 2034 4250 
z
M 2034 4750 
Q 2819 4750 3233 4129 
Q 3647 3509 3647 2328 
Q 3647 1150 3233 529 
Q 2819 -91 2034 -91 
Q 1250 -91 836 529 
Q 422 1150 422 2328 
Q 422 3509 836 4129 
Q 1250 4750 2034 4750 
z
" transform="scale(0.015625)"/>
       </defs>
       <use xlink:href="#DejaVuSans-30"/>
      </g>
     </g>
    </g>
    <g id="xtick_2">
     <g id="line2d_2">
      <g>
       <use xlink:href="#md5376d3c92" x="201.916315" y="188.936063" style="stroke: #000000"/>
      </g>
     </g>
     <g id="text_2">
      <!-- 10 -->
      <g transform="translate(194.281315 209.554188) scale(0.12 -0.12)">
       <defs>
        <path id="DejaVuSans-31" d="M 794 531 
L 1825 531 
L 1825 4091 
L 703 3866 
L 703 4441 
L 1819 4666 
L 2450 4666 
L 2450 531 
L 3481 531 
L 3481 0 
L 794 0 
L 794 531 
z
" transform="scale(0.015625)"/>
       </defs>
       <use xlink:href="#DejaVuSans-31"/>
       <use xlink:href="#DejaVuSans-30" x="63.623047"/>
      </g>
     </g>
    </g>
    <g id="text_3">
     <!-- UMAP 1 -->
     <g transform="translate(117.956572 225.167938) scale(0.12 -0.12)">
      <defs>
       <path id="DejaVuSans-55" d="M 556 4666 
L 1191 4666 
L 1191 1831 
Q 1191 1081 1462 751 
Q 1734 422 2344 422 
Q 2950 422 3222 751 
Q 3494 1081 3494 1831 
L 3494 4666 
L 4128 4666 
L 4128 1753 
Q 4128 841 3676 375 
Q 3225 -91 2344 -91 
Q 1459 -91 1007 375 
Q 556 841 556 1753 
L 556 4666 
z
" transform="scale(0.015625)"/>
       <path id="DejaVuSans-4d" d="M 628 4666 
L 1569 4666 
L 2759 1491 
L 3956 4666 
L 4897 4666 
L 4897 0 
L 4281 0 
L 4281 4097 
L 3078 897 
L 2444 897 
L 1241 4097 
L 1241 0 
L 628 0 
L 628 4666 
z
" transform="scale(0.015625)"/>
       <path id="DejaVuSans-41" d="M 2188 4044 
L 1331 1722 
L 3047 1722 
L 2188 4044 
z
M 1831 4666 
L 2547 4666 
L 4325 0 
L 3669 0 
L 3244 1197 
L 1141 1197 
L 716 0 
L 50 0 
L 1831 4666 
z
" transform="scale(0.015625)"/>
       <path id="DejaVuSans-50" d="M 1259 4147 
L 1259 2394 
L 2053 2394 
Q 2494 2394 2734 2622 
Q 2975 2850 2975 3272 
Q 2975 3691 2734 3919 
Q 2494 4147 2053 4147 
L 1259 4147 
z
M 628 4666 
L 2053 4666 
Q 2838 4666 3239 4311 
Q 3641 3956 3641 3272 
Q 3641 2581 3239 2228 
Q 2838 1875 2053 1875 
L 1259 1875 
L 1259 0 
L 628 0 
L 628 4666 
z
" transform="scale(0.015625)"/>
       <path id="DejaVuSans-20" transform="scale(0.015625)"/>
      </defs>
      <use xlink:href="#DejaVuSans-55"/>
      <use xlink:href="#DejaVuSans-4d" x="73.193359"/>
      <use xlink:href="#DejaVuSans-41" x="159.472656"/>
      <use xlink:href="#DejaVuSans-50" x="227.880859"/>
      <use xlink:href="#DejaVuSans-20" x="288.183594"/>
      <use xlink:href="#DejaVuSans-31" x="319.970703"/>
     </g>
    </g>
   </g>
   <g id="matplotlib.axis_2">
    <g id="ytick_1">
     <g id="line2d_3">
      <defs>
       <path id="m7b1d2c8f7b" d="M 0 0 
L -8 0 
" style="stroke: #000000"/>
      </defs>
      <g>
       <use xlink:href="#m7b1d2c8f7b" x="53.957638" y="150.292333" style="stroke: #000000"/>
      </g>
     </g>
     <g id="text_4">
      <!-- 0 -->
      <g transform="translate(34.822638 154.851395) scale(0.12 -0.12)">
       <use xlink:href="#DejaVuSans-30"/>
      </g>
     </g>
    </g>
    <g id="ytick_2">
     <g id="line2d_4">
      <g>
       <use xlink:href="#m7b1d2c8f7b" x="53.957638" y="40.977386" style="stroke: #000000"/>
      </g>
     </g>
     <g id="text_5">
      <!-- 10 -->
      <g transform="translate(27.187638 45.536448) scale(0.12 -0.12)">
       <use xlink:href="#DejaVuSans-31"/>
       <use xlink:href="#DejaVuSans-30" x="63.623047"/>
      </g>
     </g>
    </g>
    <g id="text_6">
     <!-- UMAP 2 -->
     <g transform="translate(20.692013 124.937128) rotate(-90) scale(0.12 -0.12)">
      <defs>
       <path id="DejaVuSans-32" d="M 1228 531 
L 3431 531 
L 3431 0 
L 469 0 
L 469 531 
Q 828 903 1448 1529 
Q 2069 2156 2228 2338 
Q 2531 2678 2651 2914 
Q 2772 3150 2772 3378 
Q 2772 3750 2511 3984 
Q 2250 4219 1831 4219 
Q 1534 4219 1204 4116 
Q 875 4013 500 3803 
L 500 4441 
Q 881 4594 1212 4672 
Q 1544 4750 1819 4750 
Q 2544 4750 2975 4387 
Q 3406 4025 3406 3419 
Q 3406 3131 3298 2873 
Q 3191 2616 2906 2266 
Q 2828 2175 2409 1742 
Q 1991 1309 1228 531 
z
" transform="scale(0.015625)"/>
      </defs>
      <use xlink:href="#DejaVuSans-55"/>
      <use xlink:href="#DejaVuSans-4d" x="73.193359"/>
      <use xlink:href="#DejaVuSans-41" x="159.472656"/>
      <use xlink:href="#DejaVuSans-50" x="227.880859"/>
      <use xlink:href="#DejaVuSans-20" x="288.183594"/>
      <use xlink:href="#DejaVuSans-32" x="319.970703"/>
     </g>
    </g>
   </g>
   <g id="patch_3">
    <path d="M 53.957638 188.936063 
L 53.957638 14.908819 
" style="fill: none; stroke: #000000; stroke-width: 2; stroke-linejoin: miter; stroke-linecap: square"/>
   </g>
   <g id="patch_4">
    <path d="M 53.957638 188.936063 
L 227.984882 188.936063 
" style="fill: none; stroke: #000000; stroke-width: 2; stroke-linejoin: miter; stroke-linecap: square"/>
   </g>
  </g>
 </g>
 <defs>
  <clipPath id="p6605491933">
   <rect x="53.957638" y="14.908819" width="174.027244" height="174.027244"/>
  </clipPath>
 </defs>
</svg>
