<?xml version="1.0" encoding="utf-8" standalone="no"?>
<!DOCTYPE svg PUBLIC "-//W3C//DTD SVG 1.1//EN"
  "http://www.w3.org/Graphics/SVG/1.1/DTD/svg11.dtd">
<svg xmlns:xlink="http://www.w3.org/1999/xlink" width="240.944882pt" height="240.944882pt" viewBox="0 0 240.944882 240.944882" xmlns="http://www.w3.org/2000/svg" version="1.1">
 <metadata>
  <rdf:RDF xmlns:dc="http://purl.org/dc/elements/1.1/" xmlns:cc="http://creativecommons.org/ns#" xmlns:rdf="http://www.w3.org/1999/02/22-rdf-syntax-ns#">
   <cc:Work>
    <dc:type rdf:resource="http://purl.org/dc/dcmitype/StillImage"/>
    <dc:date>2025-02-24T15:42:05.268104</dc:date>
    <dc:format>image/svg+xml</dc:format>
    <dc:creator>
     <cc:Agent>
      <dc:title>Matplotlib v3.6.2, https://matplotlib.org/</dc:title>
     </cc:Agent>
    </dc:creator>
   </cc:Work>
  </rdf:RDF>
 </metadata>
 <defs>
  <style type="text/css">*{stroke-linejoin: round; stroke-linecap: butt}</style>
 </defs>
 <g id="figure_1">
  <g id="patch_1">
   <path d="M 0 240.944882 
L 240.944882 240.944882 
L 240.944882 0 
L 0 0 
L 0 240.944882 
z
" style="fill: none"/>
  </g>
  <g id="axes_1">
   <g id="patch_2">
    <path d="M 53.957638 188.936063 
L 227.984882 188.936063 
L 227.984882 14.908819 
L 53.957638 14.908819 
L 53.957638 188.936063 
z
" style="fill: none"/>
   </g>
   <g id="PathCollection_1">
    <path d="M 145.530437 151.183299 
L 147.330437 148.183299 
L 145.530437 145.183299 
L 143.730437 148.183299 
z
" clip-path="url(#p7feaebfcd4)" style="fill: #332288; fill-opacity: 0.6; stroke: #ffffff; stroke-opacity: 0.6; stroke-width: 0.339411"/>
    <path d="M 152.637307 158.955996 
L 154.437307 155.955996 
L 152.637307 152.955996 
L 150.837307 155.955996 
z
" clip-path="url(#p7feaebfcd4)" style="fill: #332288; fill-opacity: 0.6; stroke: #ffffff; stroke-opacity: 0.6; stroke-width: 0.339411"/>
    <path d="M 153.405526 121.020365 
L 155.205526 118.020365 
L 153.405526 115.020365 
L 151.605526 118.020365 
z
" clip-path="url(#p7feaebfcd4)" style="fill: #332288; fill-opacity: 0.6; stroke: #ffffff; stroke-opacity: 0.6; stroke-width: 0.339411"/>
    <path d="M 154.688613 160.084565 
L 156.488613 157.084565 
L 154.688613 154.084565 
L 152.888613 157.084565 
z
" clip-path="url(#p7feaebfcd4)" style="fill: #332288; fill-opacity: 0.6; stroke: #ffffff; stroke-opacity: 0.6; stroke-width: 0.339411"/>
    <path d="M 159.686246 124.291233 
L 161.486246 121.291233 
L 159.686246 118.291233 
L 157.886246 121.291233 
z
" clip-path="url(#p7feaebfcd4)" style="fill: #332288; fill-opacity: 0.6; stroke: #ffffff; stroke-opacity: 0.6; stroke-width: 0.339411"/>
    <path d="M 159.200317 134.074466 
L 161.000317 131.074466 
L 159.200317 128.074466 
L 157.400317 131.074466 
z
" clip-path="url(#p7feaebfcd4)" style="fill: #332288; fill-opacity: 0.6; stroke: #ffffff; stroke-opacity: 0.6; stroke-width: 0.339411"/>
    <path d="M 160.770513 120.160577 
L 162.570513 117.160577 
L 160.770513 114.160577 
L 158.970513 117.160577 
z
" clip-path="url(#p7feaebfcd4)" style="fill: #332288; fill-opacity: 0.6; stroke: #ffffff; stroke-opacity: 0.6; stroke-width: 0.339411"/>
    <path d="M 152.004746 119.358139 
L 153.804746 116.358139 
L 152.004746 113.358139 
L 150.204746 116.358139 
z
" clip-path="url(#p7feaebfcd4)" style="fill: #332288; fill-opacity: 0.6; stroke: #ffffff; stroke-opacity: 0.6; stroke-width: 0.339411"/>
    <path d="M 146.523192 156.154898 
L 148.323192 153.154898 
L 146.523192 150.154898 
L 144.723192 153.154898 
z
" clip-path="url(#p7feaebfcd4)" style="fill: #332288; fill-opacity: 0.6; stroke: #ffffff; stroke-opacity: 0.6; stroke-width: 0.339411"/>
    <path d="M 193.335912 112.378942 
L 195.135912 109.378942 
L 193.335912 106.378942 
L 191.535912 109.378942 
z
" clip-path="url(#p7feaebfcd4)" style="fill: #332288; fill-opacity: 0.6; stroke: #ffffff; stroke-opacity: 0.6; stroke-width: 0.339411"/>
    <path d="M 158.574406 125.924548 
L 160.374406 122.924548 
L 158.574406 119.924548 
L 156.774406 122.924548 
z
" clip-path="url(#p7feaebfcd4)" style="fill: #332288; fill-opacity: 0.6; stroke: #ffffff; stroke-opacity: 0.6; stroke-width: 0.339411"/>
    <path d="M 158.046555 122.678203 
L 159.846555 119.678203 
L 158.046555 116.678203 
L 156.246555 119.678203 
z
" clip-path="url(#p7feaebfcd4)" style="fill: #332288; fill-opacity: 0.6; stroke: #ffffff; stroke-opacity: 0.6; stroke-width: 0.339411"/>
    <path d="M 142.585874 143.519745 
L 144.385874 140.519745 
L 142.585874 137.519745 
L 140.785874 140.519745 
z
" clip-path="url(#p7feaebfcd4)" style="fill: #332288; fill-opacity: 0.6; stroke: #ffffff; stroke-opacity: 0.6; stroke-width: 0.339411"/>
    <path d="M 149.382525 120.272734 
L 151.182525 117.272734 
L 149.382525 114.272734 
L 147.582525 117.272734 
z
" clip-path="url(#p7feaebfcd4)" style="fill: #332288; fill-opacity: 0.6; stroke: #ffffff; stroke-opacity: 0.6; stroke-width: 0.339411"/>
    <path d="M 151.099516 117.340408 
L 152.899516 114.340408 
L 151.099516 111.340408 
L 149.299516 114.340408 
z
" clip-path="url(#p7feaebfcd4)" style="fill: #332288; fill-opacity: 0.6; stroke: #ffffff; stroke-opacity: 0.6; stroke-width: 0.339411"/>
    <path d="M 161.924423 117.370333 
L 163.724423 114.370333 
L 161.924423 111.370333 
L 160.124423 114.370333 
z
" clip-path="url(#p7feaebfcd4)" style="fill: #332288; fill-opacity: 0.6; stroke: #ffffff; stroke-opacity: 0.6; stroke-width: 0.339411"/>
    <path d="M 154.467385 159.082508 
L 156.267385 156.082508 
L 154.467385 153.082508 
L 152.667385 156.082508 
z
" clip-path="url(#p7feaebfcd4)" style="fill: #332288; fill-opacity: 0.6; stroke: #ffffff; stroke-opacity: 0.6; stroke-width: 0.339411"/>
    <path d="M 146.582493 143.885441 
L 148.382493 140.885441 
L 146.582493 137.885441 
L 144.782493 140.885441 
z
" clip-path="url(#p7feaebfcd4)" style="fill: #332288; fill-opacity: 0.6; stroke: #ffffff; stroke-opacity: 0.6; stroke-width: 0.339411"/>
    <path d="M 145.009363 148.177541 
L 146.809363 145.177541 
L 145.009363 142.177541 
L 143.209363 145.177541 
z
" clip-path="url(#p7feaebfcd4)" style="fill: #332288; fill-opacity: 0.6; stroke: #ffffff; stroke-opacity: 0.6; stroke-width: 0.339411"/>
    <path d="M 172.129364 177.676701 
L 173.929364 174.676701 
L 172.129364 171.676701 
L 170.329364 174.676701 
z
" clip-path="url(#p7feaebfcd4)" style="fill: #332288; fill-opacity: 0.6; stroke: #ffffff; stroke-opacity: 0.6; stroke-width: 0.339411"/>
    <path d="M 155.97351 158.388018 
L 157.77351 155.388018 
L 155.97351 152.388018 
L 154.17351 155.388018 
z
" clip-path="url(#p7feaebfcd4)" style="fill: #332288; fill-opacity: 0.6; stroke: #ffffff; stroke-opacity: 0.6; stroke-width: 0.339411"/>
    <path d="M 187.467963 111.894214 
L 189.267963 108.894214 
L 187.467963 105.894214 
L 185.667963 108.894214 
z
" clip-path="url(#p7feaebfcd4)" style="fill: #332288; fill-opacity: 0.6; stroke: #ffffff; stroke-opacity: 0.6; stroke-width: 0.339411"/>
    <path d="M 157.978476 119.626693 
L 159.778476 116.626693 
L 157.978476 113.626693 
L 156.178476 116.626693 
z
" clip-path="url(#p7feaebfcd4)" style="fill: #332288; fill-opacity: 0.6; stroke: #ffffff; stroke-opacity: 0.6; stroke-width: 0.339411"/>
    <path d="M 153.725491 156.332549 
L 155.525491 153.332549 
L 153.725491 150.332549 
L 151.925491 153.332549 
z
" clip-path="url(#p7feaebfcd4)" style="fill: #332288; fill-opacity: 0.6; stroke: #ffffff; stroke-opacity: 0.6; stroke-width: 0.339411"/>
    <path d="M 152.646141 145.472957 
L 154.446141 142.472957 
L 152.646141 139.472957 
L 150.846141 142.472957 
z
" clip-path="url(#p7feaebfcd4)" style="fill: #332288; fill-opacity: 0.6; stroke: #ffffff; stroke-opacity: 0.6; stroke-width: 0.339411"/>
    <path d="M 175.29761 179.297392 
L 177.09761 176.297392 
L 175.29761 173.297392 
L 173.49761 176.297392 
z
" clip-path="url(#p7feaebfcd4)" style="fill: #332288; fill-opacity: 0.6; stroke: #ffffff; stroke-opacity: 0.6; stroke-width: 0.339411"/>
    <path d="M 158.876795 121.969443 
L 160.676795 118.969443 
L 158.876795 115.969443 
L 157.076795 118.969443 
z
" clip-path="url(#p7feaebfcd4)" style="fill: #332288; fill-opacity: 0.6; stroke: #ffffff; stroke-opacity: 0.6; stroke-width: 0.339411"/>
    <path d="M 151.952707 123.121321 
L 153.752707 120.121321 
L 151.952707 117.121321 
L 150.152707 120.121321 
z
" clip-path="url(#p7feaebfcd4)" style="fill: #332288; fill-opacity: 0.6; stroke: #ffffff; stroke-opacity: 0.6; stroke-width: 0.339411"/>
    <path d="M 170.720926 126.060618 
L 172.520926 123.060618 
L 170.720926 120.060618 
L 168.920926 123.060618 
z
" clip-path="url(#p7feaebfcd4)" style="fill: #332288; fill-opacity: 0.6; stroke: #ffffff; stroke-opacity: 0.6; stroke-width: 0.339411"/>
    <path d="M 144.538605 151.838025 
L 146.338605 148.838025 
L 144.538605 145.838025 
L 142.738605 148.838025 
z
" clip-path="url(#p7feaebfcd4)" style="fill: #332288; fill-opacity: 0.6; stroke: #ffffff; stroke-opacity: 0.6; stroke-width: 0.339411"/>
    <path d="M 137.503298 148.410612 
L 139.303298 145.410612 
L 137.503298 142.410612 
L 135.703298 145.410612 
z
" clip-path="url(#p7feaebfcd4)" style="fill: #332288; fill-opacity: 0.6; stroke: #ffffff; stroke-opacity: 0.6; stroke-width: 0.339411"/>
    <path d="M 155.189842 154.852881 
L 156.989842 151.852881 
L 155.189842 148.852881 
L 153.389842 151.852881 
z
" clip-path="url(#p7feaebfcd4)" style="fill: #332288; fill-opacity: 0.6; stroke: #ffffff; stroke-opacity: 0.6; stroke-width: 0.339411"/>
    <path d="M 209.467449 158.192129 
L 211.267449 155.192129 
L 209.467449 152.192129 
L 207.667449 155.192129 
z
" clip-path="url(#p7feaebfcd4)" style="fill: #332288; fill-opacity: 0.6; stroke: #ffffff; stroke-opacity: 0.6; stroke-width: 0.339411"/>
    <path d="M 153.981717 120.437951 
L 155.781717 117.437951 
L 153.981717 114.437951 
L 152.181717 117.437951 
z
" clip-path="url(#p7feaebfcd4)" style="fill: #332288; fill-opacity: 0.6; stroke: #ffffff; stroke-opacity: 0.6; stroke-width: 0.339411"/>
    <path d="M 150.511667 161.347116 
L 152.311667 158.347116 
L 150.511667 155.347116 
L 148.711667 158.347116 
z
" clip-path="url(#p7feaebfcd4)" style="fill: #332288; fill-opacity: 0.6; stroke: #ffffff; stroke-opacity: 0.6; stroke-width: 0.339411"/>
    <path d="M 141.151872 153.656141 
L 142.951872 150.656141 
L 141.151872 147.656141 
L 139.351872 150.656141 
z
" clip-path="url(#p7feaebfcd4)" style="fill: #332288; fill-opacity: 0.6; stroke: #ffffff; stroke-opacity: 0.6; stroke-width: 0.339411"/>
    <path d="M 157.455247 122.89748 
L 159.255247 119.89748 
L 157.455247 116.89748 
L 155.655247 119.89748 
z
" clip-path="url(#p7feaebfcd4)" style="fill: #332288; fill-opacity: 0.6; stroke: #ffffff; stroke-opacity: 0.6; stroke-width: 0.339411"/>
    <path d="M 162.009677 127.360337 
L 163.809677 124.360337 
L 162.009677 121.360337 
L 160.209677 124.360337 
z
" clip-path="url(#p7feaebfcd4)" style="fill: #332288; fill-opacity: 0.6; stroke: #ffffff; stroke-opacity: 0.6; stroke-width: 0.339411"/>
    <path d="M 153.152851 144.264505 
L 154.952851 141.264505 
L 153.152851 138.264505 
L 151.352851 141.264505 
z
" clip-path="url(#p7feaebfcd4)" style="fill: #332288; fill-opacity: 0.6; stroke: #ffffff; stroke-opacity: 0.6; stroke-width: 0.339411"/>
    <path d="M 154.864537 126.358396 
L 156.664537 123.358396 
L 154.864537 120.358396 
L 153.064537 123.358396 
z
" clip-path="url(#p7feaebfcd4)" style="fill: #332288; fill-opacity: 0.6; stroke: #ffffff; stroke-opacity: 0.6; stroke-width: 0.339411"/>
    <path d="M 146.899978 150.216154 
L 148.699978 147.216154 
L 146.899978 144.216154 
L 145.099978 147.216154 
z
" clip-path="url(#p7feaebfcd4)" style="fill: #332288; fill-opacity: 0.6; stroke: #ffffff; stroke-opacity: 0.6; stroke-width: 0.339411"/>
    <path d="M 173.347542 177.697789 
L 175.147542 174.697789 
L 173.347542 171.697789 
L 171.547542 174.697789 
z
" clip-path="url(#p7feaebfcd4)" style="fill: #332288; fill-opacity: 0.6; stroke: #ffffff; stroke-opacity: 0.6; stroke-width: 0.339411"/>
    <path d="M 167.90231 122.510478 
L 169.70231 119.510478 
L 167.90231 116.510478 
L 166.10231 119.510478 
z
" clip-path="url(#p7feaebfcd4)" style="fill: #332288; fill-opacity: 0.6; stroke: #ffffff; stroke-opacity: 0.6; stroke-width: 0.339411"/>
    <path d="M 150.898858 149.505109 
L 152.698858 146.505109 
L 150.898858 143.505109 
L 149.098858 146.505109 
z
" clip-path="url(#p7feaebfcd4)" style="fill: #332288; fill-opacity: 0.6; stroke: #ffffff; stroke-opacity: 0.6; stroke-width: 0.339411"/>
    <path d="M 141.017545 146.704891 
L 142.817545 143.704891 
L 141.017545 140.704891 
L 139.217545 143.704891 
z
" clip-path="url(#p7feaebfcd4)" style="fill: #332288; fill-opacity: 0.6; stroke: #ffffff; stroke-opacity: 0.6; stroke-width: 0.339411"/>
    <path d="M 139.087945 145.40616 
L 140.887945 142.40616 
L 139.087945 139.40616 
L 137.287945 142.40616 
z
" clip-path="url(#p7feaebfcd4)" style="fill: #332288; fill-opacity: 0.6; stroke: #ffffff; stroke-opacity: 0.6; stroke-width: 0.339411"/>
    <path d="M 193.373586 117.282751 
L 195.173586 114.282751 
L 193.373586 111.282751 
L 191.573586 114.282751 
z
" clip-path="url(#p7feaebfcd4)" style="fill: #332288; fill-opacity: 0.6; stroke: #ffffff; stroke-opacity: 0.6; stroke-width: 0.339411"/>
    <path d="M 154.166553 118.25774 
L 155.966553 115.25774 
L 154.166553 112.25774 
L 152.366553 115.25774 
z
" clip-path="url(#p7feaebfcd4)" style="fill: #332288; fill-opacity: 0.6; stroke: #ffffff; stroke-opacity: 0.6; stroke-width: 0.339411"/>
    <path d="M 146.431218 145.227263 
L 148.231218 142.227263 
L 146.431218 139.227263 
L 144.631218 142.227263 
z
" clip-path="url(#p7feaebfcd4)" style="fill: #332288; fill-opacity: 0.6; stroke: #ffffff; stroke-opacity: 0.6; stroke-width: 0.339411"/>
    <path d="M 170.628269 178.345204 
L 172.428269 175.345204 
L 170.628269 172.345204 
L 168.828269 175.345204 
z
" clip-path="url(#p7feaebfcd4)" style="fill: #332288; fill-opacity: 0.6; stroke: #ffffff; stroke-opacity: 0.6; stroke-width: 0.339411"/>
    <path d="M 142.63849 152.642454 
L 144.43849 149.642454 
L 142.63849 146.642454 
L 140.83849 149.642454 
z
" clip-path="url(#p7feaebfcd4)" style="fill: #332288; fill-opacity: 0.6; stroke: #ffffff; stroke-opacity: 0.6; stroke-width: 0.339411"/>
    <path d="M 159.905318 121.181887 
L 161.705318 118.181887 
L 159.905318 115.181887 
L 158.105318 118.181887 
z
" clip-path="url(#p7feaebfcd4)" style="fill: #332288; fill-opacity: 0.6; stroke: #ffffff; stroke-opacity: 0.6; stroke-width: 0.339411"/>
    <path d="M 143.490783 148.457634 
L 145.290783 145.457634 
L 143.490783 142.457634 
L 141.690783 145.457634 
z
" clip-path="url(#p7feaebfcd4)" style="fill: #332288; fill-opacity: 0.6; stroke: #ffffff; stroke-opacity: 0.6; stroke-width: 0.339411"/>
    <path d="M 142.833206 144.399033 
L 144.633206 141.399033 
L 142.833206 138.399033 
L 141.033206 141.399033 
z
" clip-path="url(#p7feaebfcd4)" style="fill: #332288; fill-opacity: 0.6; stroke: #ffffff; stroke-opacity: 0.6; stroke-width: 0.339411"/>
    <path d="M 149.543367 152.717338 
L 151.343367 149.717338 
L 149.543367 146.717338 
L 147.743367 149.717338 
z
" clip-path="url(#p7feaebfcd4)" style="fill: #332288; fill-opacity: 0.6; stroke: #ffffff; stroke-opacity: 0.6; stroke-width: 0.339411"/>
    <path d="M 178.492943 122.660373 
L 180.292943 119.660373 
L 178.492943 116.660373 
L 176.692943 119.660373 
z
" clip-path="url(#p7feaebfcd4)" style="fill: #332288; fill-opacity: 0.6; stroke: #ffffff; stroke-opacity: 0.6; stroke-width: 0.339411"/>
    <path d="M 190.685471 111.297246 
L 192.485471 108.297246 
L 190.685471 105.297246 
L 188.885471 108.297246 
z
" clip-path="url(#p7feaebfcd4)" style="fill: #332288; fill-opacity: 0.6; stroke: #ffffff; stroke-opacity: 0.6; stroke-width: 0.339411"/>
    <path d="M 145.778685 146.143913 
L 147.578685 143.143913 
L 145.778685 140.143913 
L 143.978685 143.143913 
z
" clip-path="url(#p7feaebfcd4)" style="fill: #332288; fill-opacity: 0.6; stroke: #ffffff; stroke-opacity: 0.6; stroke-width: 0.339411"/>
    <path d="M 190.832372 119.376039 
L 192.632372 116.376039 
L 190.832372 113.376039 
L 189.032372 116.376039 
z
" clip-path="url(#p7feaebfcd4)" style="fill: #332288; fill-opacity: 0.6; stroke: #ffffff; stroke-opacity: 0.6; stroke-width: 0.339411"/>
    <path d="M 173.625388 177.629092 
L 175.425388 174.629092 
L 173.625388 171.629092 
L 171.825388 174.629092 
z
" clip-path="url(#p7feaebfcd4)" style="fill: #332288; fill-opacity: 0.6; stroke: #ffffff; stroke-opacity: 0.6; stroke-width: 0.339411"/>
    <path d="M 139.505341 150.804456 
L 141.305341 147.804456 
L 139.505341 144.804456 
L 137.705341 147.804456 
z
" clip-path="url(#p7feaebfcd4)" style="fill: #332288; fill-opacity: 0.6; stroke: #ffffff; stroke-opacity: 0.6; stroke-width: 0.339411"/>
    <path d="M 152.614306 154.55909 
L 154.414306 151.55909 
L 152.614306 148.55909 
L 150.814306 151.55909 
z
" clip-path="url(#p7feaebfcd4)" style="fill: #332288; fill-opacity: 0.6; stroke: #ffffff; stroke-opacity: 0.6; stroke-width: 0.339411"/>
    <path d="M 138.990075 148.856435 
L 140.790075 145.856435 
L 138.990075 142.856435 
L 137.190075 145.856435 
z
" clip-path="url(#p7feaebfcd4)" style="fill: #332288; fill-opacity: 0.6; stroke: #ffffff; stroke-opacity: 0.6; stroke-width: 0.339411"/>
    <path d="M 158.612087 116.717103 
L 160.412087 113.717103 
L 158.612087 110.717103 
L 156.812087 113.717103 
z
" clip-path="url(#p7feaebfcd4)" style="fill: #332288; fill-opacity: 0.6; stroke: #ffffff; stroke-opacity: 0.6; stroke-width: 0.339411"/>
    <path d="M 176.879183 119.557774 
L 174.757863 123.800414 
L 179.000503 123.800414 
z
" clip-path="url(#p7feaebfcd4)" style="fill: #117733; fill-opacity: 0.6; stroke: #ffffff; stroke-opacity: 0.6; stroke-width: 0.339411"/>
    <path d="M 174.857 130.167895 
L 172.735679 134.410535 
L 176.97832 134.410535 
z
" clip-path="url(#p7feaebfcd4)" style="fill: #117733; fill-opacity: 0.6; stroke: #ffffff; stroke-opacity: 0.6; stroke-width: 0.339411"/>
    <path d="M 175.463102 127.086537 
L 173.341781 131.329177 
L 177.584422 131.329177 
z
" clip-path="url(#p7feaebfcd4)" style="fill: #117733; fill-opacity: 0.6; stroke: #ffffff; stroke-opacity: 0.6; stroke-width: 0.339411"/>
    <path d="M 191.922155 120.451214 
L 189.800835 124.693854 
L 194.043476 124.693854 
z
" clip-path="url(#p7feaebfcd4)" style="fill: #117733; fill-opacity: 0.6; stroke: #ffffff; stroke-opacity: 0.6; stroke-width: 0.339411"/>
    <path d="M 184.624099 128.670147 
L 182.502778 132.912788 
L 186.745419 132.912788 
z
" clip-path="url(#p7feaebfcd4)" style="fill: #117733; fill-opacity: 0.6; stroke: #ffffff; stroke-opacity: 0.6; stroke-width: 0.339411"/>
    <path d="M 195.603663 123.857674 
L 193.482342 128.100315 
L 197.724983 128.100315 
z
" clip-path="url(#p7feaebfcd4)" style="fill: #117733; fill-opacity: 0.6; stroke: #ffffff; stroke-opacity: 0.6; stroke-width: 0.339411"/>
    <path d="M 191.968304 125.081303 
L 189.846984 129.323943 
L 194.089625 129.323943 
z
" clip-path="url(#p7feaebfcd4)" style="fill: #117733; fill-opacity: 0.6; stroke: #ffffff; stroke-opacity: 0.6; stroke-width: 0.339411"/>
    <path d="M 170.879486 127.253044 
L 168.758166 131.495685 
L 173.000806 131.495685 
z
" clip-path="url(#p7feaebfcd4)" style="fill: #117733; fill-opacity: 0.6; stroke: #ffffff; stroke-opacity: 0.6; stroke-width: 0.339411"/>
    <path d="M 162.741468 157.213646 
L 160.620148 161.456286 
L 164.862789 161.456286 
z
" clip-path="url(#p7feaebfcd4)" style="fill: #117733; fill-opacity: 0.6; stroke: #ffffff; stroke-opacity: 0.6; stroke-width: 0.339411"/>
    <path d="M 162.860106 112.573712 
L 160.738786 116.816353 
L 164.981427 116.816353 
z
" clip-path="url(#p7feaebfcd4)" style="fill: #117733; fill-opacity: 0.6; stroke: #ffffff; stroke-opacity: 0.6; stroke-width: 0.339411"/>
    <path d="M 200.894477 124.430504 
L 198.773157 128.673145 
L 203.015798 128.673145 
z
" clip-path="url(#p7feaebfcd4)" style="fill: #117733; fill-opacity: 0.6; stroke: #ffffff; stroke-opacity: 0.6; stroke-width: 0.339411"/>
    <path d="M 186.577316 130.367658 
L 184.455995 134.610299 
L 188.698636 134.610299 
z
" clip-path="url(#p7feaebfcd4)" style="fill: #117733; fill-opacity: 0.6; stroke: #ffffff; stroke-opacity: 0.6; stroke-width: 0.339411"/>
    <path d="M 215.041928 141.501979 
L 212.920607 145.74462 
L 217.163248 145.74462 
z
" clip-path="url(#p7feaebfcd4)" style="fill: #117733; fill-opacity: 0.6; stroke: #ffffff; stroke-opacity: 0.6; stroke-width: 0.339411"/>
    <path d="M 191.804349 138.389833 
L 189.683028 142.632474 
L 193.925669 142.632474 
z
" clip-path="url(#p7feaebfcd4)" style="fill: #117733; fill-opacity: 0.6; stroke: #ffffff; stroke-opacity: 0.6; stroke-width: 0.339411"/>
    <path d="M 215.346211 135.834342 
L 213.224891 140.076983 
L 217.467532 140.076983 
z
" clip-path="url(#p7feaebfcd4)" style="fill: #117733; fill-opacity: 0.6; stroke: #ffffff; stroke-opacity: 0.6; stroke-width: 0.339411"/>
    <path d="M 198.549053 126.162974 
L 196.427733 130.405615 
L 200.670373 130.405615 
z
" clip-path="url(#p7feaebfcd4)" style="fill: #117733; fill-opacity: 0.6; stroke: #ffffff; stroke-opacity: 0.6; stroke-width: 0.339411"/>
    <path d="M 186.617047 119.345238 
L 184.495727 123.587879 
L 188.738367 123.587879 
z
" clip-path="url(#p7feaebfcd4)" style="fill: #117733; fill-opacity: 0.6; stroke: #ffffff; stroke-opacity: 0.6; stroke-width: 0.339411"/>
    <path d="M 187.452218 123.362276 
L 185.330898 127.604916 
L 189.573538 127.604916 
z
" clip-path="url(#p7feaebfcd4)" style="fill: #117733; fill-opacity: 0.6; stroke: #ffffff; stroke-opacity: 0.6; stroke-width: 0.339411"/>
    <path d="M 214.973609 146.450519 
L 212.852289 150.693159 
L 217.094929 150.693159 
z
" clip-path="url(#p7feaebfcd4)" style="fill: #117733; fill-opacity: 0.6; stroke: #ffffff; stroke-opacity: 0.6; stroke-width: 0.339411"/>
    <path d="M 153.516556 115.443038 
L 151.395235 119.685679 
L 155.637876 119.685679 
z
" clip-path="url(#p7feaebfcd4)" style="fill: #117733; fill-opacity: 0.6; stroke: #ffffff; stroke-opacity: 0.6; stroke-width: 0.339411"/>
    <path d="M 183.513203 117.079739 
L 181.391883 121.322379 
L 185.634523 121.322379 
z
" clip-path="url(#p7feaebfcd4)" style="fill: #117733; fill-opacity: 0.6; stroke: #ffffff; stroke-opacity: 0.6; stroke-width: 0.339411"/>
    <path d="M 168.373332 157.240002 
L 166.252012 161.482643 
L 170.494653 161.482643 
z
" clip-path="url(#p7feaebfcd4)" style="fill: #117733; fill-opacity: 0.6; stroke: #ffffff; stroke-opacity: 0.6; stroke-width: 0.339411"/>
    <path d="M 160.622182 155.389453 
L 158.500862 159.632093 
L 162.743503 159.632093 
z
" clip-path="url(#p7feaebfcd4)" style="fill: #117733; fill-opacity: 0.6; stroke: #ffffff; stroke-opacity: 0.6; stroke-width: 0.339411"/>
    <path d="M 198.48375 123.649808 
L 196.362429 127.892448 
L 200.60507 127.892448 
z
" clip-path="url(#p7feaebfcd4)" style="fill: #117733; fill-opacity: 0.6; stroke: #ffffff; stroke-opacity: 0.6; stroke-width: 0.339411"/>
    <path d="M 181.989022 120.3106 
L 179.867702 124.553241 
L 184.110343 124.553241 
z
" clip-path="url(#p7feaebfcd4)" style="fill: #117733; fill-opacity: 0.6; stroke: #ffffff; stroke-opacity: 0.6; stroke-width: 0.339411"/>
    <path d="M 191.366316 126.674853 
L 189.244996 130.917494 
L 193.487637 130.917494 
z
" clip-path="url(#p7feaebfcd4)" style="fill: #117733; fill-opacity: 0.6; stroke: #ffffff; stroke-opacity: 0.6; stroke-width: 0.339411"/>
    <path d="M 164.471309 116.885378 
L 162.349988 121.128019 
L 166.592629 121.128019 
z
" clip-path="url(#p7feaebfcd4)" style="fill: #117733; fill-opacity: 0.6; stroke: #ffffff; stroke-opacity: 0.6; stroke-width: 0.339411"/>
    <path d="M 195.392494 128.968447 
L 193.271174 133.211087 
L 197.513814 133.211087 
z
" clip-path="url(#p7feaebfcd4)" style="fill: #117733; fill-opacity: 0.6; stroke: #ffffff; stroke-opacity: 0.6; stroke-width: 0.339411"/>
    <path d="M 175.192871 125.811352 
L 173.071551 130.053993 
L 177.314192 130.053993 
z
" clip-path="url(#p7feaebfcd4)" style="fill: #117733; fill-opacity: 0.6; stroke: #ffffff; stroke-opacity: 0.6; stroke-width: 0.339411"/>
    <path d="M 193.297357 122.480463 
L 191.176037 126.723103 
L 195.418677 126.723103 
z
" clip-path="url(#p7feaebfcd4)" style="fill: #117733; fill-opacity: 0.6; stroke: #ffffff; stroke-opacity: 0.6; stroke-width: 0.339411"/>
    <path d="M 201.717179 128.469968 
L 199.595859 132.712609 
L 203.838499 132.712609 
z
" clip-path="url(#p7feaebfcd4)" style="fill: #117733; fill-opacity: 0.6; stroke: #ffffff; stroke-opacity: 0.6; stroke-width: 0.339411"/>
    <path d="M 176.945909 132.470771 
L 174.824589 136.713412 
L 179.06723 136.713412 
z
" clip-path="url(#p7feaebfcd4)" style="fill: #117733; fill-opacity: 0.6; stroke: #ffffff; stroke-opacity: 0.6; stroke-width: 0.339411"/>
    <path d="M 175.954708 113.604225 
L 173.833388 117.846866 
L 178.076028 117.846866 
z
" clip-path="url(#p7feaebfcd4)" style="fill: #117733; fill-opacity: 0.6; stroke: #ffffff; stroke-opacity: 0.6; stroke-width: 0.339411"/>
    <path d="M 176.214858 129.858667 
L 174.093537 134.101308 
L 178.336178 134.101308 
z
" clip-path="url(#p7feaebfcd4)" style="fill: #117733; fill-opacity: 0.6; stroke: #ffffff; stroke-opacity: 0.6; stroke-width: 0.339411"/>
    <path d="M 190.885375 127.76813 
L 188.764055 132.010771 
L 193.006696 132.010771 
z
" clip-path="url(#p7feaebfcd4)" style="fill: #117733; fill-opacity: 0.6; stroke: #ffffff; stroke-opacity: 0.6; stroke-width: 0.339411"/>
    <path d="M 179.064801 126.35253 
L 176.943481 130.59517 
L 181.186121 130.59517 
z
" clip-path="url(#p7feaebfcd4)" style="fill: #117733; fill-opacity: 0.6; stroke: #ffffff; stroke-opacity: 0.6; stroke-width: 0.339411"/>
    <path d="M 180.018772 118.536386 
L 177.897451 122.779027 
L 182.140092 122.779027 
z
" clip-path="url(#p7feaebfcd4)" style="fill: #117733; fill-opacity: 0.6; stroke: #ffffff; stroke-opacity: 0.6; stroke-width: 0.339411"/>
    <path d="M 179.247206 132.497143 
L 177.125886 136.739783 
L 181.368527 136.739783 
z
" clip-path="url(#p7feaebfcd4)" style="fill: #117733; fill-opacity: 0.6; stroke: #ffffff; stroke-opacity: 0.6; stroke-width: 0.339411"/>
    <path d="M 178.4863 122.972525 
L 176.364979 127.215166 
L 180.60762 127.215166 
z
" clip-path="url(#p7feaebfcd4)" style="fill: #117733; fill-opacity: 0.6; stroke: #ffffff; stroke-opacity: 0.6; stroke-width: 0.339411"/>
    <path d="M 189.221311 131.90966 
L 187.09999 136.1523 
L 191.342631 136.1523 
z
" clip-path="url(#p7feaebfcd4)" style="fill: #117733; fill-opacity: 0.6; stroke: #ffffff; stroke-opacity: 0.6; stroke-width: 0.339411"/>
    <path d="M 179.20546 128.494821 
L 177.08414 132.737462 
L 181.32678 132.737462 
z
" clip-path="url(#p7feaebfcd4)" style="fill: #117733; fill-opacity: 0.6; stroke: #ffffff; stroke-opacity: 0.6; stroke-width: 0.339411"/>
    <path d="M 188.727105 137.696169 
L 186.605784 141.93881 
L 190.848425 141.93881 
z
" clip-path="url(#p7feaebfcd4)" style="fill: #117733; fill-opacity: 0.6; stroke: #ffffff; stroke-opacity: 0.6; stroke-width: 0.339411"/>
    <path d="M 178.017856 129.208686 
L 175.896535 133.451327 
L 180.139176 133.451327 
z
" clip-path="url(#p7feaebfcd4)" style="fill: #117733; fill-opacity: 0.6; stroke: #ffffff; stroke-opacity: 0.6; stroke-width: 0.339411"/>
    <path d="M 179.434205 123.498486 
L 177.312885 127.741127 
L 181.555525 127.741127 
z
" clip-path="url(#p7feaebfcd4)" style="fill: #117733; fill-opacity: 0.6; stroke: #ffffff; stroke-opacity: 0.6; stroke-width: 0.339411"/>
    <path d="M 183.591701 129.624134 
L 181.47038 133.866774 
L 185.713021 133.866774 
z
" clip-path="url(#p7feaebfcd4)" style="fill: #117733; fill-opacity: 0.6; stroke: #ffffff; stroke-opacity: 0.6; stroke-width: 0.339411"/>
    <path d="M 192.003365 129.176168 
L 189.882045 133.418809 
L 194.124686 133.418809 
z
" clip-path="url(#p7feaebfcd4)" style="fill: #117733; fill-opacity: 0.6; stroke: #ffffff; stroke-opacity: 0.6; stroke-width: 0.339411"/>
    <path d="M 174.165644 127.788294 
L 172.044324 132.030934 
L 176.286964 132.030934 
z
" clip-path="url(#p7feaebfcd4)" style="fill: #117733; fill-opacity: 0.6; stroke: #ffffff; stroke-opacity: 0.6; stroke-width: 0.339411"/>
    <path d="M 167.093803 158.113102 
L 164.972483 162.355742 
L 169.215124 162.355742 
z
" clip-path="url(#p7feaebfcd4)" style="fill: #117733; fill-opacity: 0.6; stroke: #ffffff; stroke-opacity: 0.6; stroke-width: 0.339411"/>
    <path d="M 172.237999 127.711631 
L 170.116679 131.954272 
L 174.359319 131.954272 
z
" clip-path="url(#p7feaebfcd4)" style="fill: #117733; fill-opacity: 0.6; stroke: #ffffff; stroke-opacity: 0.6; stroke-width: 0.339411"/>
    <path d="M 169.268833 160.192814 
L 167.147513 164.435455 
L 171.390153 164.435455 
z
" clip-path="url(#p7feaebfcd4)" style="fill: #117733; fill-opacity: 0.6; stroke: #ffffff; stroke-opacity: 0.6; stroke-width: 0.339411"/>
    <path d="M 166.790569 161.709174 
L 164.669249 165.951815 
L 168.91189 165.951815 
z
" clip-path="url(#p7feaebfcd4)" style="fill: #117733; fill-opacity: 0.6; stroke: #ffffff; stroke-opacity: 0.6; stroke-width: 0.339411"/>
    <path d="M 200.655236 151.465981 
L 198.533916 155.708621 
L 202.776556 155.708621 
z
" clip-path="url(#p7feaebfcd4)" style="fill: #117733; fill-opacity: 0.6; stroke: #ffffff; stroke-opacity: 0.6; stroke-width: 0.339411"/>
    <path d="M 191.788372 132.370081 
L 189.667051 136.612722 
L 193.909692 136.612722 
z
" clip-path="url(#p7feaebfcd4)" style="fill: #117733; fill-opacity: 0.6; stroke: #ffffff; stroke-opacity: 0.6; stroke-width: 0.339411"/>
    <path d="M 148.970939 140.884115 
L 146.849618 145.126756 
L 151.092259 145.126756 
z
" clip-path="url(#p7feaebfcd4)" style="fill: #117733; fill-opacity: 0.6; stroke: #ffffff; stroke-opacity: 0.6; stroke-width: 0.339411"/>
    <path d="M 182.524805 122.196189 
L 180.403485 126.43883 
L 184.646126 126.43883 
z
" clip-path="url(#p7feaebfcd4)" style="fill: #117733; fill-opacity: 0.6; stroke: #ffffff; stroke-opacity: 0.6; stroke-width: 0.339411"/>
    <path d="M 174.164834 133.507921 
L 172.043514 137.750562 
L 176.286154 137.750562 
z
" clip-path="url(#p7feaebfcd4)" style="fill: #117733; fill-opacity: 0.6; stroke: #ffffff; stroke-opacity: 0.6; stroke-width: 0.339411"/>
    <path d="M 187.583994 126.531184 
L 185.462674 130.773825 
L 189.705314 130.773825 
z
" clip-path="url(#p7feaebfcd4)" style="fill: #117733; fill-opacity: 0.6; stroke: #ffffff; stroke-opacity: 0.6; stroke-width: 0.339411"/>
    <path d="M 213.588306 147.723381 
L 211.466985 151.966022 
L 215.709626 151.966022 
z
" clip-path="url(#p7feaebfcd4)" style="fill: #117733; fill-opacity: 0.6; stroke: #ffffff; stroke-opacity: 0.6; stroke-width: 0.339411"/>
    <path d="M 164.995031 113.677271 
L 162.873711 117.919911 
L 167.116352 117.919911 
z
" clip-path="url(#p7feaebfcd4)" style="fill: #117733; fill-opacity: 0.6; stroke: #ffffff; stroke-opacity: 0.6; stroke-width: 0.339411"/>
    <path d="M 176.469012 127.967619 
L 174.347692 132.210259 
L 178.590332 132.210259 
z
" clip-path="url(#p7feaebfcd4)" style="fill: #117733; fill-opacity: 0.6; stroke: #ffffff; stroke-opacity: 0.6; stroke-width: 0.339411"/>
    <path d="M 158.004872 156.244245 
L 155.883552 160.486886 
L 160.126193 160.486886 
z
" clip-path="url(#p7feaebfcd4)" style="fill: #117733; fill-opacity: 0.6; stroke: #ffffff; stroke-opacity: 0.6; stroke-width: 0.339411"/>
    <path d="M 202.331833 150.404743 
L 200.210513 154.647384 
L 204.453154 154.647384 
z
" clip-path="url(#p7feaebfcd4)" style="fill: #117733; fill-opacity: 0.6; stroke: #ffffff; stroke-opacity: 0.6; stroke-width: 0.339411"/>
    <path d="M 171.866827 133.583692 
L 169.745507 137.826333 
L 173.988147 137.826333 
z
" clip-path="url(#p7feaebfcd4)" style="fill: #117733; fill-opacity: 0.6; stroke: #ffffff; stroke-opacity: 0.6; stroke-width: 0.339411"/>
    <path d="M 150.391064 118.386083 
L 148.269743 122.628724 
L 152.512384 122.628724 
z
" clip-path="url(#p7feaebfcd4)" style="fill: #117733; fill-opacity: 0.6; stroke: #ffffff; stroke-opacity: 0.6; stroke-width: 0.339411"/>
    <path d="M 196.871626 110.970657 
L 201.114267 110.970657 
L 201.114267 106.728016 
L 196.871626 106.728016 
z
" clip-path="url(#p7feaebfcd4)" style="fill: #44aa99; fill-opacity: 0.6; stroke: #ffffff; stroke-opacity: 0.6; stroke-width: 0.339411"/>
    <path d="M 167.196099 129.094307 
L 171.43874 129.094307 
L 171.43874 124.851667 
L 167.196099 124.851667 
z
" clip-path="url(#p7feaebfcd4)" style="fill: #44aa99; fill-opacity: 0.6; stroke: #ffffff; stroke-opacity: 0.6; stroke-width: 0.339411"/>
    <path d="M 178.409001 121.334038 
L 182.651642 121.334038 
L 182.651642 117.091397 
L 178.409001 117.091397 
z
" clip-path="url(#p7feaebfcd4)" style="fill: #44aa99; fill-opacity: 0.6; stroke: #ffffff; stroke-opacity: 0.6; stroke-width: 0.339411"/>
    <path d="M 195.045472 111.241039 
L 199.288113 111.241039 
L 199.288113 106.998398 
L 195.045472 106.998398 
z
" clip-path="url(#p7feaebfcd4)" style="fill: #44aa99; fill-opacity: 0.6; stroke: #ffffff; stroke-opacity: 0.6; stroke-width: 0.339411"/>
    <path d="M 208.580917 151.29632 
L 212.823558 151.29632 
L 212.823558 147.053679 
L 208.580917 147.053679 
z
" clip-path="url(#p7feaebfcd4)" style="fill: #44aa99; fill-opacity: 0.6; stroke: #ffffff; stroke-opacity: 0.6; stroke-width: 0.339411"/>
    <path d="M 210.76047 146.661196 
L 215.00311 146.661196 
L 215.00311 142.418555 
L 210.76047 142.418555 
z
" clip-path="url(#p7feaebfcd4)" style="fill: #44aa99; fill-opacity: 0.6; stroke: #ffffff; stroke-opacity: 0.6; stroke-width: 0.339411"/>
    <path d="M 162.881819 171.848926 
L 167.12446 171.848926 
L 167.12446 167.606285 
L 162.881819 167.606285 
z
" clip-path="url(#p7feaebfcd4)" style="fill: #44aa99; fill-opacity: 0.6; stroke: #ffffff; stroke-opacity: 0.6; stroke-width: 0.339411"/>
    <path d="M 191.533944 121.970699 
L 195.776584 121.970699 
L 195.776584 117.728059 
L 191.533944 117.728059 
z
" clip-path="url(#p7feaebfcd4)" style="fill: #44aa99; fill-opacity: 0.6; stroke: #ffffff; stroke-opacity: 0.6; stroke-width: 0.339411"/>
    <path d="M 197.852338 117.556925 
L 202.094979 117.556925 
L 202.094979 113.314284 
L 197.852338 113.314284 
z
" clip-path="url(#p7feaebfcd4)" style="fill: #44aa99; fill-opacity: 0.6; stroke: #ffffff; stroke-opacity: 0.6; stroke-width: 0.339411"/>
    <path d="M 181.519615 158.736279 
L 185.762256 158.736279 
L 185.762256 154.493638 
L 181.519615 154.493638 
z
" clip-path="url(#p7feaebfcd4)" style="fill: #44aa99; fill-opacity: 0.6; stroke: #ffffff; stroke-opacity: 0.6; stroke-width: 0.339411"/>
    <path d="M 195.261248 112.881691 
L 199.503889 112.881691 
L 199.503889 108.63905 
L 195.261248 108.63905 
z
" clip-path="url(#p7feaebfcd4)" style="fill: #44aa99; fill-opacity: 0.6; stroke: #ffffff; stroke-opacity: 0.6; stroke-width: 0.339411"/>
    <path d="M 176.135185 169.403071 
L 180.377826 169.403071 
L 180.377826 165.16043 
L 176.135185 165.16043 
z
" clip-path="url(#p7feaebfcd4)" style="fill: #44aa99; fill-opacity: 0.6; stroke: #ffffff; stroke-opacity: 0.6; stroke-width: 0.339411"/>
    <path d="M 170.426035 160.432516 
L 174.668675 160.432516 
L 174.668675 156.189876 
L 170.426035 156.189876 
z
" clip-path="url(#p7feaebfcd4)" style="fill: #44aa99; fill-opacity: 0.6; stroke: #ffffff; stroke-opacity: 0.6; stroke-width: 0.339411"/>
    <path d="M 176.071657 138.996199 
L 180.314297 138.996199 
L 180.314297 134.753559 
L 176.071657 134.753559 
z
" clip-path="url(#p7feaebfcd4)" style="fill: #44aa99; fill-opacity: 0.6; stroke: #ffffff; stroke-opacity: 0.6; stroke-width: 0.339411"/>
    <path d="M 194.789472 121.923719 
L 199.032113 121.923719 
L 199.032113 117.681078 
L 194.789472 117.681078 
z
" clip-path="url(#p7feaebfcd4)" style="fill: #44aa99; fill-opacity: 0.6; stroke: #ffffff; stroke-opacity: 0.6; stroke-width: 0.339411"/>
    <path d="M 187.494959 113.442665 
L 191.7376 113.442665 
L 191.7376 109.200025 
L 187.494959 109.200025 
z
" clip-path="url(#p7feaebfcd4)" style="fill: #44aa99; fill-opacity: 0.6; stroke: #ffffff; stroke-opacity: 0.6; stroke-width: 0.339411"/>
    <path d="M 170.576831 172.262728 
L 174.819472 172.262728 
L 174.819472 168.020087 
L 170.576831 168.020087 
z
" clip-path="url(#p7feaebfcd4)" style="fill: #44aa99; fill-opacity: 0.6; stroke: #ffffff; stroke-opacity: 0.6; stroke-width: 0.339411"/>
    <path d="M 170.736933 121.96233 
L 174.979574 121.96233 
L 174.979574 117.71969 
L 170.736933 117.71969 
z
" clip-path="url(#p7feaebfcd4)" style="fill: #44aa99; fill-opacity: 0.6; stroke: #ffffff; stroke-opacity: 0.6; stroke-width: 0.339411"/>
    <path d="M 171.504814 173.541218 
L 175.747455 173.541218 
L 175.747455 169.298577 
L 171.504814 169.298577 
z
" clip-path="url(#p7feaebfcd4)" style="fill: #44aa99; fill-opacity: 0.6; stroke: #ffffff; stroke-opacity: 0.6; stroke-width: 0.339411"/>
    <path d="M 196.412178 124.166764 
L 200.654819 124.166764 
L 200.654819 119.924124 
L 196.412178 119.924124 
z
" clip-path="url(#p7feaebfcd4)" style="fill: #44aa99; fill-opacity: 0.6; stroke: #ffffff; stroke-opacity: 0.6; stroke-width: 0.339411"/>
    <path d="M 179.887349 117.612887 
L 184.12999 117.612887 
L 184.12999 113.370247 
L 179.887349 113.370247 
z
" clip-path="url(#p7feaebfcd4)" style="fill: #44aa99; fill-opacity: 0.6; stroke: #ffffff; stroke-opacity: 0.6; stroke-width: 0.339411"/>
    <path d="M 193.39842 110.77989 
L 197.641061 110.77989 
L 197.641061 106.537249 
L 193.39842 106.537249 
z
" clip-path="url(#p7feaebfcd4)" style="fill: #44aa99; fill-opacity: 0.6; stroke: #ffffff; stroke-opacity: 0.6; stroke-width: 0.339411"/>
    <path d="M 175.659175 139.368507 
L 179.901816 139.368507 
L 179.901816 135.125867 
L 175.659175 135.125867 
z
" clip-path="url(#p7feaebfcd4)" style="fill: #44aa99; fill-opacity: 0.6; stroke: #ffffff; stroke-opacity: 0.6; stroke-width: 0.339411"/>
    <path d="M 174.637083 140.305689 
L 178.879724 140.305689 
L 178.879724 136.063048 
L 174.637083 136.063048 
z
" clip-path="url(#p7feaebfcd4)" style="fill: #44aa99; fill-opacity: 0.6; stroke: #ffffff; stroke-opacity: 0.6; stroke-width: 0.339411"/>
    <path d="M 187.265482 112.215418 
L 191.508122 112.215418 
L 191.508122 107.972777 
L 187.265482 107.972777 
z
" clip-path="url(#p7feaebfcd4)" style="fill: #44aa99; fill-opacity: 0.6; stroke: #ffffff; stroke-opacity: 0.6; stroke-width: 0.339411"/>
    <path d="M 195.551478 122.045464 
L 199.794118 122.045464 
L 199.794118 117.802823 
L 195.551478 117.802823 
z
" clip-path="url(#p7feaebfcd4)" style="fill: #44aa99; fill-opacity: 0.6; stroke: #ffffff; stroke-opacity: 0.6; stroke-width: 0.339411"/>
    <path d="M 199.329278 114.277216 
L 203.571918 114.277216 
L 203.571918 110.034576 
L 199.329278 110.034576 
z
" clip-path="url(#p7feaebfcd4)" style="fill: #44aa99; fill-opacity: 0.6; stroke: #ffffff; stroke-opacity: 0.6; stroke-width: 0.339411"/>
    <path d="M 175.500764 128.660445 
L 179.743404 128.660445 
L 179.743404 124.417805 
L 175.500764 124.417805 
z
" clip-path="url(#p7feaebfcd4)" style="fill: #44aa99; fill-opacity: 0.6; stroke: #ffffff; stroke-opacity: 0.6; stroke-width: 0.339411"/>
    <path d="M 169.510844 118.083469 
L 173.753485 118.083469 
L 173.753485 113.840828 
L 169.510844 113.840828 
z
" clip-path="url(#p7feaebfcd4)" style="fill: #44aa99; fill-opacity: 0.6; stroke: #ffffff; stroke-opacity: 0.6; stroke-width: 0.339411"/>
    <path d="M 177.648031 122.831417 
L 181.890671 122.831417 
L 181.890671 118.588777 
L 177.648031 118.588777 
z
" clip-path="url(#p7feaebfcd4)" style="fill: #44aa99; fill-opacity: 0.6; stroke: #ffffff; stroke-opacity: 0.6; stroke-width: 0.339411"/>
    <path d="M 194.257099 160.203227 
L 198.499739 160.203227 
L 198.499739 155.960587 
L 194.257099 155.960587 
z
" clip-path="url(#p7feaebfcd4)" style="fill: #44aa99; fill-opacity: 0.6; stroke: #ffffff; stroke-opacity: 0.6; stroke-width: 0.339411"/>
    <path d="M 177.646777 117.746382 
L 181.889417 117.746382 
L 181.889417 113.503742 
L 177.646777 113.503742 
z
" clip-path="url(#p7feaebfcd4)" style="fill: #44aa99; fill-opacity: 0.6; stroke: #ffffff; stroke-opacity: 0.6; stroke-width: 0.339411"/>
    <path d="M 171.531189 122.062512 
L 175.77383 122.062512 
L 175.77383 117.819871 
L 171.531189 117.819871 
z
" clip-path="url(#p7feaebfcd4)" style="fill: #44aa99; fill-opacity: 0.6; stroke: #ffffff; stroke-opacity: 0.6; stroke-width: 0.339411"/>
    <path d="M 182.63883 128.009258 
L 186.881471 128.009258 
L 186.881471 123.766617 
L 182.63883 123.766617 
z
" clip-path="url(#p7feaebfcd4)" style="fill: #44aa99; fill-opacity: 0.6; stroke: #ffffff; stroke-opacity: 0.6; stroke-width: 0.339411"/>
    <path d="M 171.558071 173.621234 
L 175.800712 173.621234 
L 175.800712 169.378593 
L 171.558071 169.378593 
z
" clip-path="url(#p7feaebfcd4)" style="fill: #44aa99; fill-opacity: 0.6; stroke: #ffffff; stroke-opacity: 0.6; stroke-width: 0.339411"/>
    <path d="M 193.63993 118.145592 
L 197.88257 118.145592 
L 197.88257 113.902951 
L 193.63993 113.902951 
z
" clip-path="url(#p7feaebfcd4)" style="fill: #44aa99; fill-opacity: 0.6; stroke: #ffffff; stroke-opacity: 0.6; stroke-width: 0.339411"/>
    <path d="M 173.239945 168.076861 
L 177.482586 168.076861 
L 177.482586 163.83422 
L 173.239945 163.83422 
z
" clip-path="url(#p7feaebfcd4)" style="fill: #44aa99; fill-opacity: 0.6; stroke: #ffffff; stroke-opacity: 0.6; stroke-width: 0.339411"/>
    <path d="M 160.947306 127.390911 
L 165.189946 127.390911 
L 165.189946 123.14827 
L 160.947306 123.14827 
z
" clip-path="url(#p7feaebfcd4)" style="fill: #44aa99; fill-opacity: 0.6; stroke: #ffffff; stroke-opacity: 0.6; stroke-width: 0.339411"/>
    <path d="M 173.384345 171.837843 
L 177.626985 171.837843 
L 177.626985 167.595202 
L 173.384345 167.595202 
z
" clip-path="url(#p7feaebfcd4)" style="fill: #44aa99; fill-opacity: 0.6; stroke: #ffffff; stroke-opacity: 0.6; stroke-width: 0.339411"/>
    <path d="M 193.922467 136.209559 
L 198.165107 136.209559 
L 198.165107 131.966918 
L 193.922467 131.966918 
z
" clip-path="url(#p7feaebfcd4)" style="fill: #44aa99; fill-opacity: 0.6; stroke: #ffffff; stroke-opacity: 0.6; stroke-width: 0.339411"/>
    <path d="M 197.986227 114.008832 
L 202.228868 114.008832 
L 202.228868 109.766191 
L 197.986227 109.766191 
z
" clip-path="url(#p7feaebfcd4)" style="fill: #44aa99; fill-opacity: 0.6; stroke: #ffffff; stroke-opacity: 0.6; stroke-width: 0.339411"/>
    <path d="M 197.369136 157.544335 
L 201.611776 157.544335 
L 201.611776 153.301695 
L 197.369136 153.301695 
z
" clip-path="url(#p7feaebfcd4)" style="fill: #44aa99; fill-opacity: 0.6; stroke: #ffffff; stroke-opacity: 0.6; stroke-width: 0.339411"/>
    <path d="M 170.970588 168.540117 
L 175.213229 168.540117 
L 175.213229 164.297477 
L 170.970588 164.297477 
z
" clip-path="url(#p7feaebfcd4)" style="fill: #44aa99; fill-opacity: 0.6; stroke: #ffffff; stroke-opacity: 0.6; stroke-width: 0.339411"/>
    <path d="M 168.867765 171.074231 
L 173.110406 171.074231 
L 173.110406 166.83159 
L 168.867765 166.83159 
z
" clip-path="url(#p7feaebfcd4)" style="fill: #44aa99; fill-opacity: 0.6; stroke: #ffffff; stroke-opacity: 0.6; stroke-width: 0.339411"/>
    <path d="M 197.007319 116.350596 
L 201.249959 116.350596 
L 201.249959 112.107956 
L 197.007319 112.107956 
z
" clip-path="url(#p7feaebfcd4)" style="fill: #44aa99; fill-opacity: 0.6; stroke: #ffffff; stroke-opacity: 0.6; stroke-width: 0.339411"/>
    <path d="M 199.081301 110.822192 
L 203.323942 110.822192 
L 203.323942 106.579552 
L 199.081301 106.579552 
z
" clip-path="url(#p7feaebfcd4)" style="fill: #44aa99; fill-opacity: 0.6; stroke: #ffffff; stroke-opacity: 0.6; stroke-width: 0.339411"/>
    <path d="M 185.173113 122.019036 
L 189.415754 122.019036 
L 189.415754 117.776395 
L 185.173113 117.776395 
z
" clip-path="url(#p7feaebfcd4)" style="fill: #44aa99; fill-opacity: 0.6; stroke: #ffffff; stroke-opacity: 0.6; stroke-width: 0.339411"/>
    <path d="M 170.896648 167.021603 
L 175.139289 167.021603 
L 175.139289 162.778963 
L 170.896648 162.778963 
z
" clip-path="url(#p7feaebfcd4)" style="fill: #44aa99; fill-opacity: 0.6; stroke: #ffffff; stroke-opacity: 0.6; stroke-width: 0.339411"/>
    <path d="M 167.514458 172.481691 
L 171.757099 172.481691 
L 171.757099 168.239051 
L 167.514458 168.239051 
z
" clip-path="url(#p7feaebfcd4)" style="fill: #44aa99; fill-opacity: 0.6; stroke: #ffffff; stroke-opacity: 0.6; stroke-width: 0.339411"/>
    <path d="M 202.987221 162.112665 
L 207.229861 162.112665 
L 207.229861 157.870024 
L 202.987221 157.870024 
z
" clip-path="url(#p7feaebfcd4)" style="fill: #44aa99; fill-opacity: 0.6; stroke: #ffffff; stroke-opacity: 0.6; stroke-width: 0.339411"/>
    <path d="M 183.017533 116.189923 
L 187.260174 116.189923 
L 187.260174 111.947283 
L 183.017533 111.947283 
z
" clip-path="url(#p7feaebfcd4)" style="fill: #44aa99; fill-opacity: 0.6; stroke: #ffffff; stroke-opacity: 0.6; stroke-width: 0.339411"/>
    <path d="M 199.658027 146.06432 
L 203.900668 146.06432 
L 203.900668 141.82168 
L 199.658027 141.82168 
z
" clip-path="url(#p7feaebfcd4)" style="fill: #44aa99; fill-opacity: 0.6; stroke: #ffffff; stroke-opacity: 0.6; stroke-width: 0.339411"/>
    <path d="M 153.296611 162.155716 
L 157.539252 162.155716 
L 157.539252 157.913075 
L 153.296611 157.913075 
z
" clip-path="url(#p7feaebfcd4)" style="fill: #44aa99; fill-opacity: 0.6; stroke: #ffffff; stroke-opacity: 0.6; stroke-width: 0.339411"/>
    <path d="M 170.235634 169.349909 
L 174.478274 169.349909 
L 174.478274 165.107268 
L 170.235634 165.107268 
z
" clip-path="url(#p7feaebfcd4)" style="fill: #44aa99; fill-opacity: 0.6; stroke: #ffffff; stroke-opacity: 0.6; stroke-width: 0.339411"/>
    <path d="M 171.476382 170.382104 
L 175.719023 170.382104 
L 175.719023 166.139463 
L 171.476382 166.139463 
z
" clip-path="url(#p7feaebfcd4)" style="fill: #44aa99; fill-opacity: 0.6; stroke: #ffffff; stroke-opacity: 0.6; stroke-width: 0.339411"/>
    <path d="M 202.287623 145.87642 
L 206.530264 145.87642 
L 206.530264 141.63378 
L 202.287623 141.63378 
z
" clip-path="url(#p7feaebfcd4)" style="fill: #44aa99; fill-opacity: 0.6; stroke: #ffffff; stroke-opacity: 0.6; stroke-width: 0.339411"/>
    <path d="M 187.712975 124.369525 
L 191.955615 124.369525 
L 191.955615 120.126884 
L 187.712975 120.126884 
z
" clip-path="url(#p7feaebfcd4)" style="fill: #44aa99; fill-opacity: 0.6; stroke: #ffffff; stroke-opacity: 0.6; stroke-width: 0.339411"/>
    <path d="M 193.675244 121.437967 
L 197.917885 121.437967 
L 197.917885 117.195326 
L 193.675244 117.195326 
z
" clip-path="url(#p7feaebfcd4)" style="fill: #44aa99; fill-opacity: 0.6; stroke: #ffffff; stroke-opacity: 0.6; stroke-width: 0.339411"/>
    <path d="M 174.488358 170.621086 
L 178.730999 170.621086 
L 178.730999 166.378445 
L 174.488358 166.378445 
z
" clip-path="url(#p7feaebfcd4)" style="fill: #44aa99; fill-opacity: 0.6; stroke: #ffffff; stroke-opacity: 0.6; stroke-width: 0.339411"/>
    <path d="M 153.669855 162.986271 
L 157.912495 162.986271 
L 157.912495 158.74363 
L 153.669855 158.74363 
z
" clip-path="url(#p7feaebfcd4)" style="fill: #44aa99; fill-opacity: 0.6; stroke: #ffffff; stroke-opacity: 0.6; stroke-width: 0.339411"/>
    <path d="M 190.766049 117.04049 
L 195.008689 117.04049 
L 195.008689 112.797849 
L 190.766049 112.797849 
z
" clip-path="url(#p7feaebfcd4)" style="fill: #44aa99; fill-opacity: 0.6; stroke: #ffffff; stroke-opacity: 0.6; stroke-width: 0.339411"/>
    <path d="M 195.3236 122.543488 
L 199.56624 122.543488 
L 199.56624 118.300847 
L 195.3236 118.300847 
z
" clip-path="url(#p7feaebfcd4)" style="fill: #44aa99; fill-opacity: 0.6; stroke: #ffffff; stroke-opacity: 0.6; stroke-width: 0.339411"/>
    <path d="M 197.608039 112.410436 
L 201.850679 112.410436 
L 201.850679 108.167796 
L 197.608039 108.167796 
z
" clip-path="url(#p7feaebfcd4)" style="fill: #44aa99; fill-opacity: 0.6; stroke: #ffffff; stroke-opacity: 0.6; stroke-width: 0.339411"/>
    <path d="M 207.862834 149.935748 
L 208.923494 148.875088 
L 209.984154 149.935748 
L 211.044814 148.875088 
L 209.984154 147.814428 
L 211.044814 146.753768 
L 209.984154 145.693107 
L 208.923494 146.753768 
L 207.862834 145.693107 
L 206.802174 146.753768 
L 207.862834 147.814428 
L 206.802174 148.875088 
z
" clip-path="url(#p7feaebfcd4)" style="fill: #88ccee; fill-opacity: 0.6; stroke: #ffffff; stroke-opacity: 0.6; stroke-width: 0.339411"/>
    <path d="M 197.788062 147.897314 
L 198.848723 146.836653 
L 199.909383 147.897314 
L 200.970043 146.836653 
L 199.909383 145.775993 
L 200.970043 144.715333 
L 199.909383 143.654673 
L 198.848723 144.715333 
L 197.788062 143.654673 
L 196.727402 144.715333 
L 197.788062 145.775993 
L 196.727402 146.836653 
z
" clip-path="url(#p7feaebfcd4)" style="fill: #88ccee; fill-opacity: 0.6; stroke: #ffffff; stroke-opacity: 0.6; stroke-width: 0.339411"/>
    <path d="M 198.335659 148.324514 
L 199.396319 147.263854 
L 200.456979 148.324514 
L 201.51764 147.263854 
L 200.456979 146.203194 
L 201.51764 145.142534 
L 200.456979 144.081873 
L 199.396319 145.142534 
L 198.335659 144.081873 
L 197.274999 145.142534 
L 198.335659 146.203194 
L 197.274999 147.263854 
z
" clip-path="url(#p7feaebfcd4)" style="fill: #88ccee; fill-opacity: 0.6; stroke: #ffffff; stroke-opacity: 0.6; stroke-width: 0.339411"/>
    <path d="M 188.699371 151.210272 
L 189.760031 150.149611 
L 190.820691 151.210272 
L 191.881351 150.149611 
L 190.820691 149.088951 
L 191.881351 148.028291 
L 190.820691 146.967631 
L 189.760031 148.028291 
L 188.699371 146.967631 
L 187.638711 148.028291 
L 188.699371 149.088951 
L 187.638711 150.149611 
z
" clip-path="url(#p7feaebfcd4)" style="fill: #88ccee; fill-opacity: 0.6; stroke: #ffffff; stroke-opacity: 0.6; stroke-width: 0.339411"/>
    <path d="M 190.38507 157.521423 
L 191.44573 156.460763 
L 192.50639 157.521423 
L 193.56705 156.460763 
L 192.50639 155.400102 
L 193.56705 154.339442 
L 192.50639 153.278782 
L 191.44573 154.339442 
L 190.38507 153.278782 
L 189.32441 154.339442 
L 190.38507 155.400102 
L 189.32441 156.460763 
z
" clip-path="url(#p7feaebfcd4)" style="fill: #88ccee; fill-opacity: 0.6; stroke: #ffffff; stroke-opacity: 0.6; stroke-width: 0.339411"/>
    <path d="M 211.062358 142.613186 
L 212.123018 141.552526 
L 213.183678 142.613186 
L 214.244338 141.552526 
L 213.183678 140.491866 
L 214.244338 139.431206 
L 213.183678 138.370545 
L 212.123018 139.431206 
L 211.062358 138.370545 
L 210.001697 139.431206 
L 211.062358 140.491866 
L 210.001697 141.552526 
z
" clip-path="url(#p7feaebfcd4)" style="fill: #88ccee; fill-opacity: 0.6; stroke: #ffffff; stroke-opacity: 0.6; stroke-width: 0.339411"/>
    <path d="M 193.485082 163.742819 
L 194.545742 162.682158 
L 195.606402 163.742819 
L 196.667062 162.682158 
L 195.606402 161.621498 
L 196.667062 160.560838 
L 195.606402 159.500178 
L 194.545742 160.560838 
L 193.485082 159.500178 
L 192.424422 160.560838 
L 193.485082 161.621498 
L 192.424422 162.682158 
z
" clip-path="url(#p7feaebfcd4)" style="fill: #88ccee; fill-opacity: 0.6; stroke: #ffffff; stroke-opacity: 0.6; stroke-width: 0.339411"/>
    <path d="M 186.524905 148.242328 
L 187.585565 147.181668 
L 188.646225 148.242328 
L 189.706885 147.181668 
L 188.646225 146.121008 
L 189.706885 145.060348 
L 188.646225 143.999688 
L 187.585565 145.060348 
L 186.524905 143.999688 
L 185.464245 145.060348 
L 186.524905 146.121008 
L 185.464245 147.181668 
z
" clip-path="url(#p7feaebfcd4)" style="fill: #88ccee; fill-opacity: 0.6; stroke: #ffffff; stroke-opacity: 0.6; stroke-width: 0.339411"/>
    <path d="M 205.796967 143.982421 
L 206.857627 142.921761 
L 207.918287 143.982421 
L 208.978947 142.921761 
L 207.918287 141.861101 
L 208.978947 140.80044 
L 207.918287 139.73978 
L 206.857627 140.80044 
L 205.796967 139.73978 
L 204.736307 140.80044 
L 205.796967 141.861101 
L 204.736307 142.921761 
z
" clip-path="url(#p7feaebfcd4)" style="fill: #88ccee; fill-opacity: 0.6; stroke: #ffffff; stroke-opacity: 0.6; stroke-width: 0.339411"/>
    <path d="M 185.752797 146.914266 
L 186.813457 145.853606 
L 187.874117 146.914266 
L 188.934778 145.853606 
L 187.874117 144.792946 
L 188.934778 143.732286 
L 187.874117 142.671626 
L 186.813457 143.732286 
L 185.752797 142.671626 
L 184.692137 143.732286 
L 185.752797 144.792946 
L 184.692137 145.853606 
z
" clip-path="url(#p7feaebfcd4)" style="fill: #88ccee; fill-opacity: 0.6; stroke: #ffffff; stroke-opacity: 0.6; stroke-width: 0.339411"/>
    <path d="M 193.17376 163.091785 
L 194.234421 162.031125 
L 195.295081 163.091785 
L 196.355741 162.031125 
L 195.295081 160.970465 
L 196.355741 159.909804 
L 195.295081 158.849144 
L 194.234421 159.909804 
L 193.17376 158.849144 
L 192.1131 159.909804 
L 193.17376 160.970465 
L 192.1131 162.031125 
z
" clip-path="url(#p7feaebfcd4)" style="fill: #88ccee; fill-opacity: 0.6; stroke: #ffffff; stroke-opacity: 0.6; stroke-width: 0.339411"/>
    <path d="M 213.185173 143.062024 
L 214.245833 142.001364 
L 215.306493 143.062024 
L 216.367153 142.001364 
L 215.306493 140.940704 
L 216.367153 139.880043 
L 215.306493 138.819383 
L 214.245833 139.880043 
L 213.185173 138.819383 
L 212.124513 139.880043 
L 213.185173 140.940704 
L 212.124513 142.001364 
z
" clip-path="url(#p7feaebfcd4)" style="fill: #88ccee; fill-opacity: 0.6; stroke: #ffffff; stroke-opacity: 0.6; stroke-width: 0.339411"/>
    <path d="M 209.104541 153.902743 
L 210.165201 152.842083 
L 211.225861 153.902743 
L 212.286521 152.842083 
L 211.225861 151.781423 
L 212.286521 150.720762 
L 211.225861 149.660102 
L 210.165201 150.720762 
L 209.104541 149.660102 
L 208.04388 150.720762 
L 209.104541 151.781423 
L 208.04388 152.842083 
z
" clip-path="url(#p7feaebfcd4)" style="fill: #88ccee; fill-opacity: 0.6; stroke: #ffffff; stroke-opacity: 0.6; stroke-width: 0.339411"/>
    <path d="M 190.999576 121.353055 
L 192.060236 120.292395 
L 193.120896 121.353055 
L 194.181556 120.292395 
L 193.120896 119.231735 
L 194.181556 118.171074 
L 193.120896 117.110414 
L 192.060236 118.171074 
L 190.999576 117.110414 
L 189.938916 118.171074 
L 190.999576 119.231735 
L 189.938916 120.292395 
z
" clip-path="url(#p7feaebfcd4)" style="fill: #88ccee; fill-opacity: 0.6; stroke: #ffffff; stroke-opacity: 0.6; stroke-width: 0.339411"/>
    <path d="M 205.857268 147.091078 
L 206.917929 146.030418 
L 207.978589 147.091078 
L 209.039249 146.030418 
L 207.978589 144.969758 
L 209.039249 143.909098 
L 207.978589 142.848438 
L 206.917929 143.909098 
L 205.857268 142.848438 
L 204.796608 143.909098 
L 205.857268 144.969758 
L 204.796608 146.030418 
z
" clip-path="url(#p7feaebfcd4)" style="fill: #88ccee; fill-opacity: 0.6; stroke: #ffffff; stroke-opacity: 0.6; stroke-width: 0.339411"/>
    <path d="M 190.064654 149.078953 
L 191.125314 148.018293 
L 192.185974 149.078953 
L 193.246634 148.018293 
L 192.185974 146.957633 
L 193.246634 145.896972 
L 192.185974 144.836312 
L 191.125314 145.896972 
L 190.064654 144.836312 
L 189.003994 145.896972 
L 190.064654 146.957633 
L 189.003994 148.018293 
z
" clip-path="url(#p7feaebfcd4)" style="fill: #88ccee; fill-opacity: 0.6; stroke: #ffffff; stroke-opacity: 0.6; stroke-width: 0.339411"/>
    <path d="M 172.585065 130.051575 
L 173.645726 128.990915 
L 174.706386 130.051575 
L 175.767046 128.990915 
L 174.706386 127.930255 
L 175.767046 126.869594 
L 174.706386 125.808934 
L 173.645726 126.869594 
L 172.585065 125.808934 
L 171.524405 126.869594 
L 172.585065 127.930255 
L 171.524405 128.990915 
z
" clip-path="url(#p7feaebfcd4)" style="fill: #88ccee; fill-opacity: 0.6; stroke: #ffffff; stroke-opacity: 0.6; stroke-width: 0.339411"/>
    <path d="M 183.015306 153.245641 
L 184.075967 152.184981 
L 185.136627 153.245641 
L 186.197287 152.184981 
L 185.136627 151.124321 
L 186.197287 150.063661 
L 185.136627 149.003001 
L 184.075967 150.063661 
L 183.015306 149.003001 
L 181.954646 150.063661 
L 183.015306 151.124321 
L 181.954646 152.184981 
z
" clip-path="url(#p7feaebfcd4)" style="fill: #88ccee; fill-opacity: 0.6; stroke: #ffffff; stroke-opacity: 0.6; stroke-width: 0.339411"/>
    <path d="M 189.168731 158.444476 
L 190.229391 157.383815 
L 191.290051 158.444476 
L 192.350711 157.383815 
L 191.290051 156.323155 
L 192.350711 155.262495 
L 191.290051 154.201835 
L 190.229391 155.262495 
L 189.168731 154.201835 
L 188.10807 155.262495 
L 189.168731 156.323155 
L 188.10807 157.383815 
z
" clip-path="url(#p7feaebfcd4)" style="fill: #88ccee; fill-opacity: 0.6; stroke: #ffffff; stroke-opacity: 0.6; stroke-width: 0.339411"/>
    <path d="M 197.041801 160.975571 
L 198.102461 159.914911 
L 199.163122 160.975571 
L 200.223782 159.914911 
L 199.163122 158.85425 
L 200.223782 157.79359 
L 199.163122 156.73293 
L 198.102461 157.79359 
L 197.041801 156.73293 
L 195.981141 157.79359 
L 197.041801 158.85425 
L 195.981141 159.914911 
z
" clip-path="url(#p7feaebfcd4)" style="fill: #88ccee; fill-opacity: 0.6; stroke: #ffffff; stroke-opacity: 0.6; stroke-width: 0.339411"/>
    <path d="M 208.002824 145.66218 
L 209.063484 144.60152 
L 210.124144 145.66218 
L 211.184804 144.60152 
L 210.124144 143.54086 
L 211.184804 142.4802 
L 210.124144 141.41954 
L 209.063484 142.4802 
L 208.002824 141.41954 
L 206.942164 142.4802 
L 208.002824 143.54086 
L 206.942164 144.60152 
z
" clip-path="url(#p7feaebfcd4)" style="fill: #88ccee; fill-opacity: 0.6; stroke: #ffffff; stroke-opacity: 0.6; stroke-width: 0.339411"/>
    <path d="M 186.27187 152.738465 
L 187.33253 151.677805 
L 188.393191 152.738465 
L 189.453851 151.677805 
L 188.393191 150.617145 
L 189.453851 149.556484 
L 188.393191 148.495824 
L 187.33253 149.556484 
L 186.27187 148.495824 
L 185.21121 149.556484 
L 186.27187 150.617145 
L 185.21121 151.677805 
z
" clip-path="url(#p7feaebfcd4)" style="fill: #88ccee; fill-opacity: 0.6; stroke: #ffffff; stroke-opacity: 0.6; stroke-width: 0.339411"/>
    <path d="M 190.608616 114.506127 
L 191.669276 113.445466 
L 192.729936 114.506127 
L 193.790596 113.445466 
L 192.729936 112.384806 
L 193.790596 111.324146 
L 192.729936 110.263486 
L 191.669276 111.324146 
L 190.608616 110.263486 
L 189.547955 111.324146 
L 190.608616 112.384806 
L 189.547955 113.445466 
z
" clip-path="url(#p7feaebfcd4)" style="fill: #88ccee; fill-opacity: 0.6; stroke: #ffffff; stroke-opacity: 0.6; stroke-width: 0.339411"/>
    <path d="M 180.03551 145.066225 
L 181.09617 144.005565 
L 182.156831 145.066225 
L 183.217491 144.005565 
L 182.156831 142.944905 
L 183.217491 141.884245 
L 182.156831 140.823584 
L 181.09617 141.884245 
L 180.03551 140.823584 
L 178.97485 141.884245 
L 180.03551 142.944905 
L 178.97485 144.005565 
z
" clip-path="url(#p7feaebfcd4)" style="fill: #88ccee; fill-opacity: 0.6; stroke: #ffffff; stroke-opacity: 0.6; stroke-width: 0.339411"/>
    <path d="M 190.221649 153.367435 
L 191.28231 152.306775 
L 192.34297 153.367435 
L 193.40363 152.306775 
L 192.34297 151.246115 
L 193.40363 150.185455 
L 192.34297 149.124795 
L 191.28231 150.185455 
L 190.221649 149.124795 
L 189.160989 150.185455 
L 190.221649 151.246115 
L 189.160989 152.306775 
z
" clip-path="url(#p7feaebfcd4)" style="fill: #88ccee; fill-opacity: 0.6; stroke: #ffffff; stroke-opacity: 0.6; stroke-width: 0.339411"/>
    <path d="M 202.797122 151.641991 
L 203.857782 150.58133 
L 204.918442 151.641991 
L 205.979102 150.58133 
L 204.918442 149.52067 
L 205.979102 148.46001 
L 204.918442 147.39935 
L 203.857782 148.46001 
L 202.797122 147.39935 
L 201.736462 148.46001 
L 202.797122 149.52067 
L 201.736462 150.58133 
z
" clip-path="url(#p7feaebfcd4)" style="fill: #88ccee; fill-opacity: 0.6; stroke: #ffffff; stroke-opacity: 0.6; stroke-width: 0.339411"/>
    <path d="M 196.663465 139.943946 
L 197.724125 138.883286 
L 198.784785 139.943946 
L 199.845445 138.883286 
L 198.784785 137.822626 
L 199.845445 136.761966 
L 198.784785 135.701305 
L 197.724125 136.761966 
L 196.663465 135.701305 
L 195.602805 136.761966 
L 196.663465 137.822626 
L 195.602805 138.883286 
z
" clip-path="url(#p7feaebfcd4)" style="fill: #88ccee; fill-opacity: 0.6; stroke: #ffffff; stroke-opacity: 0.6; stroke-width: 0.339411"/>
    <path d="M 187.518572 160.162943 
L 188.579232 159.102283 
L 189.639892 160.162943 
L 190.700552 159.102283 
L 189.639892 158.041623 
L 190.700552 156.980963 
L 189.639892 155.920302 
L 188.579232 156.980963 
L 187.518572 155.920302 
L 186.457911 156.980963 
L 187.518572 158.041623 
L 186.457911 159.102283 
z
" clip-path="url(#p7feaebfcd4)" style="fill: #88ccee; fill-opacity: 0.6; stroke: #ffffff; stroke-opacity: 0.6; stroke-width: 0.339411"/>
    <path d="M 205.532865 147.726178 
L 206.593526 146.665518 
L 207.654186 147.726178 
L 208.714846 146.665518 
L 207.654186 145.604857 
L 208.714846 144.544197 
L 207.654186 143.483537 
L 206.593526 144.544197 
L 205.532865 143.483537 
L 204.472205 144.544197 
L 205.532865 145.604857 
L 204.472205 146.665518 
z
" clip-path="url(#p7feaebfcd4)" style="fill: #88ccee; fill-opacity: 0.6; stroke: #ffffff; stroke-opacity: 0.6; stroke-width: 0.339411"/>
    <path d="M 189.841221 144.392149 
L 190.901881 143.331489 
L 191.962541 144.392149 
L 193.023201 143.331489 
L 191.962541 142.270829 
L 193.023201 141.210169 
L 191.962541 140.149508 
L 190.901881 141.210169 
L 189.841221 140.149508 
L 188.780561 141.210169 
L 189.841221 142.270829 
L 188.780561 143.331489 
z
" clip-path="url(#p7feaebfcd4)" style="fill: #88ccee; fill-opacity: 0.6; stroke: #ffffff; stroke-opacity: 0.6; stroke-width: 0.339411"/>
    <path d="M 207.191457 143.112016 
L 208.252117 142.051356 
L 209.312777 143.112016 
L 210.373437 142.051356 
L 209.312777 140.990695 
L 210.373437 139.930035 
L 209.312777 138.869375 
L 208.252117 139.930035 
L 207.191457 138.869375 
L 206.130796 139.930035 
L 207.191457 140.990695 
L 206.130796 142.051356 
z
" clip-path="url(#p7feaebfcd4)" style="fill: #88ccee; fill-opacity: 0.6; stroke: #ffffff; stroke-opacity: 0.6; stroke-width: 0.339411"/>
    <path d="M 212.896458 147.966843 
L 213.957118 146.906183 
L 215.017778 147.966843 
L 216.078438 146.906183 
L 215.017778 145.845522 
L 216.078438 144.784862 
L 215.017778 143.724202 
L 213.957118 144.784862 
L 212.896458 143.724202 
L 211.835797 144.784862 
L 212.896458 145.845522 
L 211.835797 146.906183 
z
" clip-path="url(#p7feaebfcd4)" style="fill: #88ccee; fill-opacity: 0.6; stroke: #ffffff; stroke-opacity: 0.6; stroke-width: 0.339411"/>
    <path d="M 184.644282 151.457391 
L 185.704942 150.396731 
L 186.765603 151.457391 
L 187.826263 150.396731 
L 186.765603 149.336071 
L 187.826263 148.275411 
L 186.765603 147.214751 
L 185.704942 148.275411 
L 184.644282 147.214751 
L 183.583622 148.275411 
L 184.644282 149.336071 
L 183.583622 150.396731 
z
" clip-path="url(#p7feaebfcd4)" style="fill: #88ccee; fill-opacity: 0.6; stroke: #ffffff; stroke-opacity: 0.6; stroke-width: 0.339411"/>
    <path d="M 203.788112 158.912713 
L 204.848772 157.852052 
L 205.909432 158.912713 
L 206.970092 157.852052 
L 205.909432 156.791392 
L 206.970092 155.730732 
L 205.909432 154.670072 
L 204.848772 155.730732 
L 203.788112 154.670072 
L 202.727452 155.730732 
L 203.788112 156.791392 
L 202.727452 157.852052 
z
" clip-path="url(#p7feaebfcd4)" style="fill: #88ccee; fill-opacity: 0.6; stroke: #ffffff; stroke-opacity: 0.6; stroke-width: 0.339411"/>
    <path d="M 192.22072 163.663334 
L 193.28138 162.602673 
L 194.34204 163.663334 
L 195.4027 162.602673 
L 194.34204 161.542013 
L 195.4027 160.481353 
L 194.34204 159.420693 
L 193.28138 160.481353 
L 192.22072 159.420693 
L 191.160059 160.481353 
L 192.22072 161.542013 
L 191.160059 162.602673 
z
" clip-path="url(#p7feaebfcd4)" style="fill: #88ccee; fill-opacity: 0.6; stroke: #ffffff; stroke-opacity: 0.6; stroke-width: 0.339411"/>
    <path d="M 192.791641 147.401542 
L 193.852301 146.340882 
L 194.912961 147.401542 
L 195.973621 146.340882 
L 194.912961 145.280222 
L 195.973621 144.219562 
L 194.912961 143.158901 
L 193.852301 144.219562 
L 192.791641 143.158901 
L 191.730981 144.219562 
L 192.791641 145.280222 
L 191.730981 146.340882 
z
" clip-path="url(#p7feaebfcd4)" style="fill: #88ccee; fill-opacity: 0.6; stroke: #ffffff; stroke-opacity: 0.6; stroke-width: 0.339411"/>
    <path d="M 198.39222 128.033125 
L 199.45288 126.972465 
L 200.51354 128.033125 
L 201.574201 126.972465 
L 200.51354 125.911805 
L 201.574201 124.851145 
L 200.51354 123.790484 
L 199.45288 124.851145 
L 198.39222 123.790484 
L 197.33156 124.851145 
L 198.39222 125.911805 
L 197.33156 126.972465 
z
" clip-path="url(#p7feaebfcd4)" style="fill: #88ccee; fill-opacity: 0.6; stroke: #ffffff; stroke-opacity: 0.6; stroke-width: 0.339411"/>
    <path d="M 185.308291 154.307101 
L 186.368951 153.24644 
L 187.429611 154.307101 
L 188.490271 153.24644 
L 187.429611 152.18578 
L 188.490271 151.12512 
L 187.429611 150.06446 
L 186.368951 151.12512 
L 185.308291 150.06446 
L 184.247631 151.12512 
L 185.308291 152.18578 
L 184.247631 153.24644 
z
" clip-path="url(#p7feaebfcd4)" style="fill: #88ccee; fill-opacity: 0.6; stroke: #ffffff; stroke-opacity: 0.6; stroke-width: 0.339411"/>
    <path d="M 184.950102 161.146438 
L 186.010762 160.085778 
L 187.071422 161.146438 
L 188.132082 160.085778 
L 187.071422 159.025118 
L 188.132082 157.964458 
L 187.071422 156.903797 
L 186.010762 157.964458 
L 184.950102 156.903797 
L 183.889442 157.964458 
L 184.950102 159.025118 
L 183.889442 160.085778 
z
" clip-path="url(#p7feaebfcd4)" style="fill: #88ccee; fill-opacity: 0.6; stroke: #ffffff; stroke-opacity: 0.6; stroke-width: 0.339411"/>
    <path d="M 202.285114 150.429767 
L 203.345774 149.369107 
L 204.406435 150.429767 
L 205.467095 149.369107 
L 204.406435 148.308447 
L 205.467095 147.247787 
L 204.406435 146.187127 
L 203.345774 147.247787 
L 202.285114 146.187127 
L 201.224454 147.247787 
L 202.285114 148.308447 
L 201.224454 149.369107 
z
" clip-path="url(#p7feaebfcd4)" style="fill: #88ccee; fill-opacity: 0.6; stroke: #ffffff; stroke-opacity: 0.6; stroke-width: 0.339411"/>
    <path d="M 203.91116 142.653724 
L 204.97182 141.593064 
L 206.03248 142.653724 
L 207.09314 141.593064 
L 206.03248 140.532404 
L 207.09314 139.471744 
L 206.03248 138.411083 
L 204.97182 139.471744 
L 203.91116 138.411083 
L 202.850499 139.471744 
L 203.91116 140.532404 
L 202.850499 141.593064 
z
" clip-path="url(#p7feaebfcd4)" style="fill: #88ccee; fill-opacity: 0.6; stroke: #ffffff; stroke-opacity: 0.6; stroke-width: 0.339411"/>
    <path d="M 207.248081 159.249926 
L 208.308741 158.189265 
L 209.369401 159.249926 
L 210.430061 158.189265 
L 209.369401 157.128605 
L 210.430061 156.067945 
L 209.369401 155.007285 
L 208.308741 156.067945 
L 207.248081 155.007285 
L 206.187421 156.067945 
L 207.248081 157.128605 
L 206.187421 158.189265 
z
" clip-path="url(#p7feaebfcd4)" style="fill: #88ccee; fill-opacity: 0.6; stroke: #ffffff; stroke-opacity: 0.6; stroke-width: 0.339411"/>
    <path d="M 200.136347 162.237543 
L 201.197007 161.176883 
L 202.257667 162.237543 
L 203.318327 161.176883 
L 202.257667 160.116223 
L 203.318327 159.055563 
L 202.257667 157.994903 
L 201.197007 159.055563 
L 200.136347 157.994903 
L 199.075687 159.055563 
L 200.136347 160.116223 
L 199.075687 161.176883 
z
" clip-path="url(#p7feaebfcd4)" style="fill: #88ccee; fill-opacity: 0.6; stroke: #ffffff; stroke-opacity: 0.6; stroke-width: 0.339411"/>
    <path d="M 171.72464 126.465184 
L 172.7853 125.404523 
L 173.84596 126.465184 
L 174.90662 125.404523 
L 173.84596 124.343863 
L 174.90662 123.283203 
L 173.84596 122.222543 
L 172.7853 123.283203 
L 171.72464 122.222543 
L 170.66398 123.283203 
L 171.72464 124.343863 
L 170.66398 125.404523 
z
" clip-path="url(#p7feaebfcd4)" style="fill: #88ccee; fill-opacity: 0.6; stroke: #ffffff; stroke-opacity: 0.6; stroke-width: 0.339411"/>
    <path d="M 208.764667 140.486781 
L 209.825328 139.426121 
L 210.885988 140.486781 
L 211.946648 139.426121 
L 210.885988 138.36546 
L 211.946648 137.3048 
L 210.885988 136.24414 
L 209.825328 137.3048 
L 208.764667 136.24414 
L 207.704007 137.3048 
L 208.764667 138.36546 
L 207.704007 139.426121 
z
" clip-path="url(#p7feaebfcd4)" style="fill: #88ccee; fill-opacity: 0.6; stroke: #ffffff; stroke-opacity: 0.6; stroke-width: 0.339411"/>
    <path d="M 151.107513 122.303436 
L 152.168173 121.242776 
L 153.228833 122.303436 
L 154.289493 121.242776 
L 153.228833 120.182116 
L 154.289493 119.121456 
L 153.228833 118.060796 
L 152.168173 119.121456 
L 151.107513 118.060796 
L 150.046853 119.121456 
L 151.107513 120.182116 
L 150.046853 121.242776 
z
" clip-path="url(#p7feaebfcd4)" style="fill: #88ccee; fill-opacity: 0.6; stroke: #ffffff; stroke-opacity: 0.6; stroke-width: 0.339411"/>
    <path d="M 190.437932 146.173723 
L 191.498593 145.113063 
L 192.559253 146.173723 
L 193.619913 145.113063 
L 192.559253 144.052403 
L 193.619913 142.991742 
L 192.559253 141.931082 
L 191.498593 142.991742 
L 190.437932 141.931082 
L 189.377272 142.991742 
L 190.437932 144.052403 
L 189.377272 145.113063 
z
" clip-path="url(#p7feaebfcd4)" style="fill: #88ccee; fill-opacity: 0.6; stroke: #ffffff; stroke-opacity: 0.6; stroke-width: 0.339411"/>
    <path d="M 210.081455 148.428113 
L 211.142116 147.367453 
L 212.202776 148.428113 
L 213.263436 147.367453 
L 212.202776 146.306793 
L 213.263436 145.246133 
L 212.202776 144.185473 
L 211.142116 145.246133 
L 210.081455 144.185473 
L 209.020795 145.246133 
L 210.081455 146.306793 
L 209.020795 147.367453 
z
" clip-path="url(#p7feaebfcd4)" style="fill: #88ccee; fill-opacity: 0.6; stroke: #ffffff; stroke-opacity: 0.6; stroke-width: 0.339411"/>
    <path d="M 189.579289 146.472081 
L 190.639949 145.411421 
L 191.700609 146.472081 
L 192.761269 145.411421 
L 191.700609 144.350761 
L 192.761269 143.290101 
L 191.700609 142.229441 
L 190.639949 143.290101 
L 189.579289 142.229441 
L 188.518629 143.290101 
L 189.579289 144.350761 
L 188.518629 145.411421 
z
" clip-path="url(#p7feaebfcd4)" style="fill: #88ccee; fill-opacity: 0.6; stroke: #ffffff; stroke-opacity: 0.6; stroke-width: 0.339411"/>
    <path d="M 199.502884 150.685694 
L 200.563544 149.625034 
L 201.624204 150.685694 
L 202.684864 149.625034 
L 201.624204 148.564374 
L 202.684864 147.503714 
L 201.624204 146.443054 
L 200.563544 147.503714 
L 199.502884 146.443054 
L 198.442223 147.503714 
L 199.502884 148.564374 
L 198.442223 149.625034 
z
" clip-path="url(#p7feaebfcd4)" style="fill: #88ccee; fill-opacity: 0.6; stroke: #ffffff; stroke-opacity: 0.6; stroke-width: 0.339411"/>
    <path d="M 188.735587 163.211585 
L 189.796247 162.150924 
L 190.856908 163.211585 
L 191.917568 162.150924 
L 190.856908 161.090264 
L 191.917568 160.029604 
L 190.856908 158.968944 
L 189.796247 160.029604 
L 188.735587 158.968944 
L 187.674927 160.029604 
L 188.735587 161.090264 
L 187.674927 162.150924 
z
" clip-path="url(#p7feaebfcd4)" style="fill: #88ccee; fill-opacity: 0.6; stroke: #ffffff; stroke-opacity: 0.6; stroke-width: 0.339411"/>
    <path d="M 210.741871 156.30523 
L 211.802531 155.24457 
L 212.863192 156.30523 
L 213.923852 155.24457 
L 212.863192 154.18391 
L 213.923852 153.12325 
L 212.863192 152.062589 
L 211.802531 153.12325 
L 210.741871 152.062589 
L 209.681211 153.12325 
L 210.741871 154.18391 
L 209.681211 155.24457 
z
" clip-path="url(#p7feaebfcd4)" style="fill: #88ccee; fill-opacity: 0.6; stroke: #ffffff; stroke-opacity: 0.6; stroke-width: 0.339411"/>
    <path d="M 203.50375 143.585484 
L 204.56441 142.524824 
L 205.62507 143.585484 
L 206.685731 142.524824 
L 205.62507 141.464164 
L 206.685731 140.403504 
L 205.62507 139.342843 
L 204.56441 140.403504 
L 203.50375 139.342843 
L 202.44309 140.403504 
L 203.50375 141.464164 
L 202.44309 142.524824 
z
" clip-path="url(#p7feaebfcd4)" style="fill: #88ccee; fill-opacity: 0.6; stroke: #ffffff; stroke-opacity: 0.6; stroke-width: 0.339411"/>
    <path d="M 167.613709 125.121922 
L 168.674369 124.061262 
L 169.735029 125.121922 
L 170.795689 124.061262 
L 169.735029 123.000602 
L 170.795689 121.939942 
L 169.735029 120.879281 
L 168.674369 121.939942 
L 167.613709 120.879281 
L 166.553048 121.939942 
L 167.613709 123.000602 
L 166.553048 124.061262 
z
" clip-path="url(#p7feaebfcd4)" style="fill: #88ccee; fill-opacity: 0.6; stroke: #ffffff; stroke-opacity: 0.6; stroke-width: 0.339411"/>
    <path d="M 199.05675 143.416984 
L 200.11741 142.356324 
L 201.17807 143.416984 
L 202.23873 142.356324 
L 201.17807 141.295663 
L 202.23873 140.235003 
L 201.17807 139.174343 
L 200.11741 140.235003 
L 199.05675 139.174343 
L 197.99609 140.235003 
L 199.05675 141.295663 
L 197.99609 142.356324 
z
" clip-path="url(#p7feaebfcd4)" style="fill: #88ccee; fill-opacity: 0.6; stroke: #ffffff; stroke-opacity: 0.6; stroke-width: 0.339411"/>
    <path d="M 208.335906 143.452708 
L 209.396566 142.392048 
L 210.457226 143.452708 
L 211.517886 142.392048 
L 210.457226 141.331387 
L 211.517886 140.270727 
L 210.457226 139.210067 
L 209.396566 140.270727 
L 208.335906 139.210067 
L 207.275246 140.270727 
L 208.335906 141.331387 
L 207.275246 142.392048 
z
" clip-path="url(#p7feaebfcd4)" style="fill: #88ccee; fill-opacity: 0.6; stroke: #ffffff; stroke-opacity: 0.6; stroke-width: 0.339411"/>
    <path d="M 205.96467 139.951422 
L 207.02533 138.890762 
L 208.085991 139.951422 
L 209.146651 138.890762 
L 208.085991 137.830102 
L 209.146651 136.769442 
L 208.085991 135.708781 
L 207.02533 136.769442 
L 205.96467 135.708781 
L 204.90401 136.769442 
L 205.96467 137.830102 
L 204.90401 138.890762 
z
" clip-path="url(#p7feaebfcd4)" style="fill: #88ccee; fill-opacity: 0.6; stroke: #ffffff; stroke-opacity: 0.6; stroke-width: 0.339411"/>
    <path d="M 189.049459 139.693331 
L 190.110119 138.632671 
L 191.170779 139.693331 
L 192.231439 138.632671 
L 191.170779 137.572011 
L 192.231439 136.511351 
L 191.170779 135.450691 
L 190.110119 136.511351 
L 189.049459 135.450691 
L 187.988798 136.511351 
L 189.049459 137.572011 
L 187.988798 138.632671 
z
" clip-path="url(#p7feaebfcd4)" style="fill: #88ccee; fill-opacity: 0.6; stroke: #ffffff; stroke-opacity: 0.6; stroke-width: 0.339411"/>
    <path d="M 190.315195 162.598488 
L 191.375855 161.537828 
L 192.436515 162.598488 
L 193.497175 161.537828 
L 192.436515 160.477167 
L 193.497175 159.416507 
L 192.436515 158.355847 
L 191.375855 159.416507 
L 190.315195 158.355847 
L 189.254534 159.416507 
L 190.315195 160.477167 
L 189.254534 161.537828 
z
" clip-path="url(#p7feaebfcd4)" style="fill: #88ccee; fill-opacity: 0.6; stroke: #ffffff; stroke-opacity: 0.6; stroke-width: 0.339411"/>
    <path d="M 196.543467 153.225392 
L 197.604128 152.164732 
L 198.664788 153.225392 
L 199.725448 152.164732 
L 198.664788 151.104071 
L 199.725448 150.043411 
L 198.664788 148.982751 
L 197.604128 150.043411 
L 196.543467 148.982751 
L 195.482807 150.043411 
L 196.543467 151.104071 
L 195.482807 152.164732 
z
" clip-path="url(#p7feaebfcd4)" style="fill: #88ccee; fill-opacity: 0.6; stroke: #ffffff; stroke-opacity: 0.6; stroke-width: 0.339411"/>
    <path d="M 212.19624 141.214599 
L 213.2569 140.153939 
L 214.31756 141.214599 
L 215.37822 140.153939 
L 214.31756 139.093279 
L 215.37822 138.032619 
L 214.31756 136.971958 
L 213.2569 138.032619 
L 212.19624 136.971958 
L 211.13558 138.032619 
L 212.19624 139.093279 
L 211.13558 140.153939 
z
" clip-path="url(#p7feaebfcd4)" style="fill: #88ccee; fill-opacity: 0.6; stroke: #ffffff; stroke-opacity: 0.6; stroke-width: 0.339411"/>
    <path d="M 208.058124 151.606586 
L 209.118784 150.545926 
L 210.179444 151.606586 
L 211.240104 150.545926 
L 210.179444 149.485266 
L 211.240104 148.424606 
L 210.179444 147.363946 
L 209.118784 148.424606 
L 208.058124 147.363946 
L 206.997464 148.424606 
L 208.058124 149.485266 
L 206.997464 150.545926 
z
" clip-path="url(#p7feaebfcd4)" style="fill: #88ccee; fill-opacity: 0.6; stroke: #ffffff; stroke-opacity: 0.6; stroke-width: 0.339411"/>
    <path d="M 194.310862 138.20636 
L 195.371522 137.1457 
L 196.432182 138.20636 
L 197.492843 137.1457 
L 196.432182 136.08504 
L 197.492843 135.02438 
L 196.432182 133.96372 
L 195.371522 135.02438 
L 194.310862 133.96372 
L 193.250202 135.02438 
L 194.310862 136.08504 
L 193.250202 137.1457 
z
" clip-path="url(#p7feaebfcd4)" style="fill: #88ccee; fill-opacity: 0.6; stroke: #ffffff; stroke-opacity: 0.6; stroke-width: 0.339411"/>
    <path d="M 203.653835 143.164476 
L 204.714495 142.103816 
L 205.775155 143.164476 
L 206.835815 142.103816 
L 205.775155 141.043156 
L 206.835815 139.982495 
L 205.775155 138.921835 
L 204.714495 139.982495 
L 203.653835 138.921835 
L 202.593175 139.982495 
L 203.653835 141.043156 
L 202.593175 142.103816 
z
" clip-path="url(#p7feaebfcd4)" style="fill: #88ccee; fill-opacity: 0.6; stroke: #ffffff; stroke-opacity: 0.6; stroke-width: 0.339411"/>
   </g>
   <g id="matplotlib.axis_1">
    <g id="xtick_1">
     <g id="line2d_1">
      <defs>
       <path id="mf450fe862c" d="M 0 0 
L 0 8 
" style="stroke: #000000"/>
      </defs>
      <g>
       <use xlink:href="#mf450fe862c" x="88.316531" y="188.936063" style="stroke: #000000"/>
      </g>
     </g>
     <g id="text_1">
      <!-- 0 -->
      <g transform="translate(84.499031 209.554188) scale(0.12 -0.12)">
       <defs>
        <path id="DejaVuSans-30" d="M 2034 4250 
Q 1547 4250 1301 3770 
Q 1056 3291 1056 2328 
Q 1056 1369 1301 889 
Q 1547 409 2034 409 
Q 2525 409 2770 889 
Q 3016 1369 3016 2328 
Q 3016 3291 2770 3770 
Q 2525 4250 2034 4250 
z
M 2034 4750 
Q 2819 4750 3233 4129 
Q 3647 3509 3647 2328 
Q 3647 1150 3233 529 
Q 2819 -91 2034 -91 
Q 1250 -91 836 529 
Q 422 1150 422 2328 
Q 422 3509 836 4129 
Q 1250 4750 2034 4750 
z
" transform="scale(0.015625)"/>
       </defs>
       <use xlink:href="#DejaVuSans-30"/>
      </g>
     </g>
    </g>
    <g id="xtick_2">
     <g id="line2d_2">
      <g>
       <use xlink:href="#mf450fe862c" x="162.184361" y="188.936063" style="stroke: #000000"/>
      </g>
     </g>
     <g id="text_2">
      <!-- 10 -->
      <g transform="translate(154.549361 209.554188) scale(0.12 -0.12)">
       <defs>
        <path id="DejaVuSans-31" d="M 794 531 
L 1825 531 
L 1825 4091 
L 703 3866 
L 703 4441 
L 1819 4666 
L 2450 4666 
L 2450 531 
L 3481 531 
L 3481 0 
L 794 0 
L 794 531 
z
" transform="scale(0.015625)"/>
       </defs>
       <use xlink:href="#DejaVuSans-31"/>
       <use xlink:href="#DejaVuSans-30" x="63.623047"/>
      </g>
     </g>
    </g>
    <g id="text_3">
     <!-- UMAP 1 -->
     <g transform="translate(117.956572 225.167938) scale(0.12 -0.12)">
      <defs>
       <path id="DejaVuSans-55" d="M 556 4666 
L 1191 4666 
L 1191 1831 
Q 1191 1081 1462 751 
Q 1734 422 2344 422 
Q 2950 422 3222 751 
Q 3494 1081 3494 1831 
L 3494 4666 
L 4128 4666 
L 4128 1753 
Q 4128 841 3676 375 
Q 3225 -91 2344 -91 
Q 1459 -91 1007 375 
Q 556 841 556 1753 
L 556 4666 
z
" transform="scale(0.015625)"/>
       <path id="DejaVuSans-4d" d="M 628 4666 
L 1569 4666 
L 2759 1491 
L 3956 4666 
L 4897 4666 
L 4897 0 
L 4281 0 
L 4281 4097 
L 3078 897 
L 2444 897 
L 1241 4097 
L 1241 0 
L 628 0 
L 628 4666 
z
" transform="scale(0.015625)"/>
       <path id="DejaVuSans-41" d="M 2188 4044 
L 1331 1722 
L 3047 1722 
L 2188 4044 
z
M 1831 4666 
L 2547 4666 
L 4325 0 
L 3669 0 
L 3244 1197 
L 1141 1197 
L 716 0 
L 50 0 
L 1831 4666 
z
" transform="scale(0.015625)"/>
       <path id="DejaVuSans-50" d="M 1259 4147 
L 1259 2394 
L 2053 2394 
Q 2494 2394 2734 2622 
Q 2975 2850 2975 3272 
Q 2975 3691 2734 3919 
Q 2494 4147 2053 4147 
L 1259 4147 
z
M 628 4666 
L 2053 4666 
Q 2838 4666 3239 4311 
Q 3641 3956 3641 3272 
Q 3641 2581 3239 2228 
Q 2838 1875 2053 1875 
L 1259 1875 
L 1259 0 
L 628 0 
L 628 4666 
z
" transform="scale(0.015625)"/>
       <path id="DejaVuSans-20" transform="scale(0.015625)"/>
      </defs>
      <use xlink:href="#DejaVuSans-55"/>
      <use xlink:href="#DejaVuSans-4d" x="73.193359"/>
      <use xlink:href="#DejaVuSans-41" x="159.472656"/>
      <use xlink:href="#DejaVuSans-50" x="227.880859"/>
      <use xlink:href="#DejaVuSans-20" x="288.183594"/>
      <use xlink:href="#DejaVuSans-31" x="319.970703"/>
     </g>
    </g>
   </g>
   <g id="matplotlib.axis_2">
    <g id="ytick_1">
     <g id="line2d_3">
      <defs>
       <path id="m711f0b20c1" d="M 0 0 
L -8 0 
" style="stroke: #000000"/>
      </defs>
      <g>
       <use xlink:href="#m711f0b20c1" x="53.957638" y="154.57717" style="stroke: #000000"/>
      </g>
     </g>
     <g id="text_4">
      <!-- 0 -->
      <g transform="translate(34.822638 159.136232) scale(0.12 -0.12)">
       <use xlink:href="#DejaVuSans-30"/>
      </g>
     </g>
    </g>
    <g id="ytick_2">
     <g id="line2d_4">
      <g>
       <use xlink:href="#m711f0b20c1" x="53.957638" y="80.709339" style="stroke: #000000"/>
      </g>
     </g>
     <g id="text_5">
      <!-- 10 -->
      <g transform="translate(27.187638 85.268402) scale(0.12 -0.12)">
       <use xlink:href="#DejaVuSans-31"/>
       <use xlink:href="#DejaVuSans-30" x="63.623047"/>
      </g>
     </g>
    </g>
    <g id="text_6">
     <!-- UMAP 2 -->
     <g transform="translate(20.692013 124.937128) rotate(-90) scale(0.12 -0.12)">
      <defs>
       <path id="DejaVuSans-32" d="M 1228 531 
L 3431 531 
L 3431 0 
L 469 0 
L 469 531 
Q 828 903 1448 1529 
Q 2069 2156 2228 2338 
Q 2531 2678 2651 2914 
Q 2772 3150 2772 3378 
Q 2772 3750 2511 3984 
Q 2250 4219 1831 4219 
Q 1534 4219 1204 4116 
Q 875 4013 500 3803 
L 500 4441 
Q 881 4594 1212 4672 
Q 1544 4750 1819 4750 
Q 2544 4750 2975 4387 
Q 3406 4025 3406 3419 
Q 3406 3131 3298 2873 
Q 3191 2616 2906 2266 
Q 2828 2175 2409 1742 
Q 1991 1309 1228 531 
z
" transform="scale(0.015625)"/>
      </defs>
      <use xlink:href="#DejaVuSans-55"/>
      <use xlink:href="#DejaVuSans-4d" x="73.193359"/>
      <use xlink:href="#DejaVuSans-41" x="159.472656"/>
      <use xlink:href="#DejaVuSans-50" x="227.880859"/>
      <use xlink:href="#DejaVuSans-20" x="288.183594"/>
      <use xlink:href="#DejaVuSans-32" x="319.970703"/>
     </g>
    </g>
   </g>
   <g id="patch_3">
    <path d="M 53.957638 188.936063 
L 53.957638 14.908819 
" style="fill: none; stroke: #000000; stroke-width: 2; stroke-linejoin: miter; stroke-linecap: square"/>
   </g>
   <g id="patch_4">
    <path d="M 53.957638 188.936063 
L 227.984882 188.936063 
" style="fill: none; stroke: #000000; stroke-width: 2; stroke-linejoin: miter; stroke-linecap: square"/>
   </g>
  </g>
 </g>
 <defs>
  <clipPath id="p7feaebfcd4">
   <rect x="53.957638" y="14.908819" width="174.027244" height="174.027244"/>
  </clipPath>
 </defs>
</svg>
