<?xml version="1.0" encoding="utf-8" standalone="no"?>
<!DOCTYPE svg PUBLIC "-//W3C//DTD SVG 1.1//EN"
  "http://www.w3.org/Graphics/SVG/1.1/DTD/svg11.dtd">
<svg xmlns:xlink="http://www.w3.org/1999/xlink" width="240.944882pt" height="240.944882pt" viewBox="0 0 240.944882 240.944882" xmlns="http://www.w3.org/2000/svg" version="1.1">
 <metadata>
  <rdf:RDF xmlns:dc="http://purl.org/dc/elements/1.1/" xmlns:cc="http://creativecommons.org/ns#" xmlns:rdf="http://www.w3.org/1999/02/22-rdf-syntax-ns#">
   <cc:Work>
    <dc:type rdf:resource="http://purl.org/dc/dcmitype/StillImage"/>
    <dc:date>2025-02-17T14:59:19.845445</dc:date>
    <dc:format>image/svg+xml</dc:format>
    <dc:creator>
     <cc:Agent>
      <dc:title>Matplotlib v3.6.2, https://matplotlib.org/</dc:title>
     </cc:Agent>
    </dc:creator>
   </cc:Work>
  </rdf:RDF>
 </metadata>
 <defs>
  <style type="text/css">*{stroke-linejoin: round; stroke-linecap: butt}</style>
 </defs>
 <g id="figure_1">
  <g id="patch_1">
   <path d="M 0 240.944882 
L 240.944882 240.944882 
L 240.944882 0 
L 0 0 
L 0 240.944882 
z
" style="fill: none"/>
  </g>
  <g id="axes_1">
   <g id="patch_2">
    <path d="M 53.957638 188.936063 
L 227.984882 188.936063 
L 227.984882 14.908819 
L 53.957638 14.908819 
L 53.957638 188.936063 
z
" style="fill: none"/>
   </g>
   <g id="PathCollection_1">
    <path d="M 119.368014 125.226267 
L 123.610655 125.226267 
L 123.610655 120.983626 
L 119.368014 120.983626 
z
" clip-path="url(#pc0c1eb5831)" style="fill: #882e72; fill-opacity: 0.6; stroke: #ffffff; stroke-opacity: 0.6; stroke-width: 0.339411"/>
    <path d="M 123.426562 148.797756 
L 127.669203 148.797756 
L 127.669203 144.555116 
L 123.426562 144.555116 
z
" clip-path="url(#pc0c1eb5831)" style="fill: #882e72; fill-opacity: 0.6; stroke: #ffffff; stroke-opacity: 0.6; stroke-width: 0.339411"/>
    <path d="M 111.987692 165.246427 
L 116.230333 165.246427 
L 116.230333 161.003786 
L 111.987692 161.003786 
z
" clip-path="url(#pc0c1eb5831)" style="fill: #882e72; fill-opacity: 0.6; stroke: #ffffff; stroke-opacity: 0.6; stroke-width: 0.339411"/>
    <path d="M 113.369201 152.99759 
L 117.611842 152.99759 
L 117.611842 148.754949 
L 113.369201 148.754949 
z
" clip-path="url(#pc0c1eb5831)" style="fill: #882e72; fill-opacity: 0.6; stroke: #ffffff; stroke-opacity: 0.6; stroke-width: 0.339411"/>
    <path d="M 118.869115 146.114577 
L 123.111756 146.114577 
L 123.111756 141.871937 
L 118.869115 141.871937 
z
" clip-path="url(#pc0c1eb5831)" style="fill: #882e72; fill-opacity: 0.6; stroke: #ffffff; stroke-opacity: 0.6; stroke-width: 0.339411"/>
    <path d="M 112.723878 113.497795 
L 116.966518 113.497795 
L 116.966518 109.255154 
L 112.723878 109.255154 
z
" clip-path="url(#pc0c1eb5831)" style="fill: #882e72; fill-opacity: 0.6; stroke: #ffffff; stroke-opacity: 0.6; stroke-width: 0.339411"/>
    <path d="M 139.482766 170.889372 
L 143.725406 170.889372 
L 143.725406 166.646732 
L 139.482766 166.646732 
z
" clip-path="url(#pc0c1eb5831)" style="fill: #882e72; fill-opacity: 0.6; stroke: #ffffff; stroke-opacity: 0.6; stroke-width: 0.339411"/>
    <path d="M 134.779898 174.613167 
L 139.022539 174.613167 
L 139.022539 170.370526 
L 134.779898 170.370526 
z
" clip-path="url(#pc0c1eb5831)" style="fill: #882e72; fill-opacity: 0.6; stroke: #ffffff; stroke-opacity: 0.6; stroke-width: 0.339411"/>
    <path d="M 124.599488 153.546709 
L 128.842129 153.546709 
L 128.842129 149.304068 
L 124.599488 149.304068 
z
" clip-path="url(#pc0c1eb5831)" style="fill: #882e72; fill-opacity: 0.6; stroke: #ffffff; stroke-opacity: 0.6; stroke-width: 0.339411"/>
    <path d="M 127.970716 117.829335 
L 132.213357 117.829335 
L 132.213357 113.586694 
L 127.970716 113.586694 
z
" clip-path="url(#pc0c1eb5831)" style="fill: #882e72; fill-opacity: 0.6; stroke: #ffffff; stroke-opacity: 0.6; stroke-width: 0.339411"/>
    <path d="M 124.213648 122.894329 
L 128.456288 122.894329 
L 128.456288 118.651688 
L 124.213648 118.651688 
z
" clip-path="url(#pc0c1eb5831)" style="fill: #882e72; fill-opacity: 0.6; stroke: #ffffff; stroke-opacity: 0.6; stroke-width: 0.339411"/>
    <path d="M 114.426246 142.674271 
L 118.668887 142.674271 
L 118.668887 138.431631 
L 114.426246 138.431631 
z
" clip-path="url(#pc0c1eb5831)" style="fill: #882e72; fill-opacity: 0.6; stroke: #ffffff; stroke-opacity: 0.6; stroke-width: 0.339411"/>
    <path d="M 103.767292 116.727125 
L 108.009932 116.727125 
L 108.009932 112.484485 
L 103.767292 112.484485 
z
" clip-path="url(#pc0c1eb5831)" style="fill: #882e72; fill-opacity: 0.6; stroke: #ffffff; stroke-opacity: 0.6; stroke-width: 0.339411"/>
    <path d="M 109.737651 167.180124 
L 113.980292 167.180124 
L 113.980292 162.937483 
L 109.737651 162.937483 
z
" clip-path="url(#pc0c1eb5831)" style="fill: #882e72; fill-opacity: 0.6; stroke: #ffffff; stroke-opacity: 0.6; stroke-width: 0.339411"/>
    <path d="M 109.425043 162.833007 
L 113.667684 162.833007 
L 113.667684 158.590366 
L 109.425043 158.590366 
z
" clip-path="url(#pc0c1eb5831)" style="fill: #882e72; fill-opacity: 0.6; stroke: #ffffff; stroke-opacity: 0.6; stroke-width: 0.339411"/>
    <path d="M 107.903485 117.391751 
L 112.146125 117.391751 
L 112.146125 113.14911 
L 107.903485 113.14911 
z
" clip-path="url(#pc0c1eb5831)" style="fill: #882e72; fill-opacity: 0.6; stroke: #ffffff; stroke-opacity: 0.6; stroke-width: 0.339411"/>
    <path d="M 121.026052 122.071173 
L 125.268692 122.071173 
L 125.268692 117.828532 
L 121.026052 117.828532 
z
" clip-path="url(#pc0c1eb5831)" style="fill: #882e72; fill-opacity: 0.6; stroke: #ffffff; stroke-opacity: 0.6; stroke-width: 0.339411"/>
    <path d="M 117.478707 150.627965 
L 121.721347 150.627965 
L 121.721347 146.385324 
L 117.478707 146.385324 
z
" clip-path="url(#pc0c1eb5831)" style="fill: #882e72; fill-opacity: 0.6; stroke: #ffffff; stroke-opacity: 0.6; stroke-width: 0.339411"/>
    <path d="M 111.407194 148.664545 
L 115.649835 148.664545 
L 115.649835 144.421904 
L 111.407194 144.421904 
z
" clip-path="url(#pc0c1eb5831)" style="fill: #882e72; fill-opacity: 0.6; stroke: #ffffff; stroke-opacity: 0.6; stroke-width: 0.339411"/>
    <path d="M 120.459311 120.155337 
L 124.701952 120.155337 
L 124.701952 115.912697 
L 120.459311 115.912697 
z
" clip-path="url(#pc0c1eb5831)" style="fill: #882e72; fill-opacity: 0.6; stroke: #ffffff; stroke-opacity: 0.6; stroke-width: 0.339411"/>
    <path d="M 117.516108 166.054447 
L 121.758748 166.054447 
L 121.758748 161.811806 
L 117.516108 161.811806 
z
" clip-path="url(#pc0c1eb5831)" style="fill: #882e72; fill-opacity: 0.6; stroke: #ffffff; stroke-opacity: 0.6; stroke-width: 0.339411"/>
    <path d="M 120.025785 136.900696 
L 124.268426 136.900696 
L 124.268426 132.658055 
L 120.025785 132.658055 
z
" clip-path="url(#pc0c1eb5831)" style="fill: #882e72; fill-opacity: 0.6; stroke: #ffffff; stroke-opacity: 0.6; stroke-width: 0.339411"/>
    <path d="M 126.424366 159.935587 
L 130.667007 159.935587 
L 130.667007 155.692947 
L 126.424366 155.692947 
z
" clip-path="url(#pc0c1eb5831)" style="fill: #882e72; fill-opacity: 0.6; stroke: #ffffff; stroke-opacity: 0.6; stroke-width: 0.339411"/>
    <path d="M 125.162492 130.746123 
L 129.405133 130.746123 
L 129.405133 126.503482 
L 125.162492 126.503482 
z
" clip-path="url(#pc0c1eb5831)" style="fill: #882e72; fill-opacity: 0.6; stroke: #ffffff; stroke-opacity: 0.6; stroke-width: 0.339411"/>
    <path d="M 130.487394 128.633879 
L 134.730034 128.633879 
L 134.730034 124.391238 
L 130.487394 124.391238 
z
" clip-path="url(#pc0c1eb5831)" style="fill: #882e72; fill-opacity: 0.6; stroke: #ffffff; stroke-opacity: 0.6; stroke-width: 0.339411"/>
    <path d="M 141.537681 172.783385 
L 145.780322 172.783385 
L 145.780322 168.540745 
L 141.537681 168.540745 
z
" clip-path="url(#pc0c1eb5831)" style="fill: #882e72; fill-opacity: 0.6; stroke: #ffffff; stroke-opacity: 0.6; stroke-width: 0.339411"/>
    <path d="M 130.911064 121.075022 
L 135.153705 121.075022 
L 135.153705 116.832381 
L 130.911064 116.832381 
z
" clip-path="url(#pc0c1eb5831)" style="fill: #882e72; fill-opacity: 0.6; stroke: #ffffff; stroke-opacity: 0.6; stroke-width: 0.339411"/>
    <path d="M 110.034086 115.479827 
L 114.276727 115.479827 
L 114.276727 111.237186 
L 110.034086 111.237186 
z
" clip-path="url(#pc0c1eb5831)" style="fill: #882e72; fill-opacity: 0.6; stroke: #ffffff; stroke-opacity: 0.6; stroke-width: 0.339411"/>
    <path d="M 110.997351 147.459661 
L 115.239992 147.459661 
L 115.239992 143.217021 
L 110.997351 143.217021 
z
" clip-path="url(#pc0c1eb5831)" style="fill: #882e72; fill-opacity: 0.6; stroke: #ffffff; stroke-opacity: 0.6; stroke-width: 0.339411"/>
    <path d="M 118.319632 120.141442 
L 122.562273 120.141442 
L 122.562273 115.898801 
L 118.319632 115.898801 
z
" clip-path="url(#pc0c1eb5831)" style="fill: #882e72; fill-opacity: 0.6; stroke: #ffffff; stroke-opacity: 0.6; stroke-width: 0.339411"/>
    <path d="M 106.524187 156.245486 
L 110.766828 156.245486 
L 110.766828 152.002845 
L 106.524187 152.002845 
z
" clip-path="url(#pc0c1eb5831)" style="fill: #882e72; fill-opacity: 0.6; stroke: #ffffff; stroke-opacity: 0.6; stroke-width: 0.339411"/>
    <path d="M 121.127583 114.657058 
L 125.370223 114.657058 
L 125.370223 110.414418 
L 121.127583 110.414418 
z
" clip-path="url(#pc0c1eb5831)" style="fill: #882e72; fill-opacity: 0.6; stroke: #ffffff; stroke-opacity: 0.6; stroke-width: 0.339411"/>
    <path d="M 138.391142 176.545033 
L 142.633783 176.545033 
L 142.633783 172.302392 
L 138.391142 172.302392 
z
" clip-path="url(#pc0c1eb5831)" style="fill: #882e72; fill-opacity: 0.6; stroke: #ffffff; stroke-opacity: 0.6; stroke-width: 0.339411"/>
    <path d="M 110.749119 145.327148 
L 114.99176 145.327148 
L 114.99176 141.084507 
L 110.749119 141.084507 
z
" clip-path="url(#pc0c1eb5831)" style="fill: #882e72; fill-opacity: 0.6; stroke: #ffffff; stroke-opacity: 0.6; stroke-width: 0.339411"/>
    <path d="M 126.000425 157.941295 
L 130.243065 157.941295 
L 130.243065 153.698654 
L 126.000425 153.698654 
z
" clip-path="url(#pc0c1eb5831)" style="fill: #882e72; fill-opacity: 0.6; stroke: #ffffff; stroke-opacity: 0.6; stroke-width: 0.339411"/>
    <path d="M 121.213603 111.462525 
L 125.456244 111.462525 
L 125.456244 107.219884 
L 121.213603 107.219884 
z
" clip-path="url(#pc0c1eb5831)" style="fill: #882e72; fill-opacity: 0.6; stroke: #ffffff; stroke-opacity: 0.6; stroke-width: 0.339411"/>
    <path d="M 137.001824 178.147594 
L 141.244464 178.147594 
L 141.244464 173.904953 
L 137.001824 173.904953 
z
" clip-path="url(#pc0c1eb5831)" style="fill: #882e72; fill-opacity: 0.6; stroke: #ffffff; stroke-opacity: 0.6; stroke-width: 0.339411"/>
    <path d="M 127.589651 111.626973 
L 131.832292 111.626973 
L 131.832292 107.384332 
L 127.589651 107.384332 
z
" clip-path="url(#pc0c1eb5831)" style="fill: #882e72; fill-opacity: 0.6; stroke: #ffffff; stroke-opacity: 0.6; stroke-width: 0.339411"/>
    <path d="M 117.194679 164.403482 
L 121.437319 164.403482 
L 121.437319 160.160841 
L 117.194679 160.160841 
z
" clip-path="url(#pc0c1eb5831)" style="fill: #882e72; fill-opacity: 0.6; stroke: #ffffff; stroke-opacity: 0.6; stroke-width: 0.339411"/>
    <path d="M 123.936025 149.277231 
L 128.178666 149.277231 
L 128.178666 145.03459 
L 123.936025 145.03459 
z
" clip-path="url(#pc0c1eb5831)" style="fill: #882e72; fill-opacity: 0.6; stroke: #ffffff; stroke-opacity: 0.6; stroke-width: 0.339411"/>
    <path d="M 118.737909 149.355564 
L 122.98055 149.355564 
L 122.98055 145.112923 
L 118.737909 145.112923 
z
" clip-path="url(#pc0c1eb5831)" style="fill: #882e72; fill-opacity: 0.6; stroke: #ffffff; stroke-opacity: 0.6; stroke-width: 0.339411"/>
    <path d="M 115.506271 163.741028 
L 119.748912 163.741028 
L 119.748912 159.498387 
L 115.506271 159.498387 
z
" clip-path="url(#pc0c1eb5831)" style="fill: #882e72; fill-opacity: 0.6; stroke: #ffffff; stroke-opacity: 0.6; stroke-width: 0.339411"/>
    <path d="M 137.540436 172.895818 
L 141.783077 172.895818 
L 141.783077 168.653177 
L 137.540436 168.653177 
z
" clip-path="url(#pc0c1eb5831)" style="fill: #882e72; fill-opacity: 0.6; stroke: #ffffff; stroke-opacity: 0.6; stroke-width: 0.339411"/>
    <path d="M 132.746346 119.600767 
L 136.988987 119.600767 
L 136.988987 115.358127 
L 132.746346 115.358127 
z
" clip-path="url(#pc0c1eb5831)" style="fill: #882e72; fill-opacity: 0.6; stroke: #ffffff; stroke-opacity: 0.6; stroke-width: 0.339411"/>
    <path d="M 114.979899 167.896083 
L 119.22254 167.896083 
L 119.22254 163.653443 
L 114.979899 163.653443 
z
" clip-path="url(#pc0c1eb5831)" style="fill: #882e72; fill-opacity: 0.6; stroke: #ffffff; stroke-opacity: 0.6; stroke-width: 0.339411"/>
    <path d="M 108.686098 121.9612 
L 112.928739 121.9612 
L 112.928739 117.71856 
L 108.686098 117.71856 
z
" clip-path="url(#pc0c1eb5831)" style="fill: #882e72; fill-opacity: 0.6; stroke: #ffffff; stroke-opacity: 0.6; stroke-width: 0.339411"/>
    <path d="M 110.869488 168.528741 
L 115.112128 168.528741 
L 115.112128 164.2861 
L 110.869488 164.2861 
z
" clip-path="url(#pc0c1eb5831)" style="fill: #882e72; fill-opacity: 0.6; stroke: #ffffff; stroke-opacity: 0.6; stroke-width: 0.339411"/>
    <path d="M 124.405993 110.187581 
L 128.648633 110.187581 
L 128.648633 105.94494 
L 124.405993 105.94494 
z
" clip-path="url(#pc0c1eb5831)" style="fill: #882e72; fill-opacity: 0.6; stroke: #ffffff; stroke-opacity: 0.6; stroke-width: 0.339411"/>
    <path d="M 108.363926 157.471842 
L 112.606567 157.471842 
L 112.606567 153.229202 
L 108.363926 153.229202 
z
" clip-path="url(#pc0c1eb5831)" style="fill: #882e72; fill-opacity: 0.6; stroke: #ffffff; stroke-opacity: 0.6; stroke-width: 0.339411"/>
    <path d="M 107.187856 157.48452 
L 111.430497 157.48452 
L 111.430497 153.241879 
L 107.187856 153.241879 
z
" clip-path="url(#pc0c1eb5831)" style="fill: #882e72; fill-opacity: 0.6; stroke: #ffffff; stroke-opacity: 0.6; stroke-width: 0.339411"/>
    <path d="M 204.998534 109.048701 
L 209.241174 109.048701 
L 209.241174 104.80606 
L 204.998534 104.80606 
z
" clip-path="url(#pc0c1eb5831)" style="fill: #882e72; fill-opacity: 0.6; stroke: #ffffff; stroke-opacity: 0.6; stroke-width: 0.339411"/>
    <path d="M 116.281565 160.861906 
L 120.524206 160.861906 
L 120.524206 156.619265 
L 116.281565 156.619265 
z
" clip-path="url(#pc0c1eb5831)" style="fill: #882e72; fill-opacity: 0.6; stroke: #ffffff; stroke-opacity: 0.6; stroke-width: 0.339411"/>
    <path d="M 133.993885 176.335997 
L 138.236526 176.335997 
L 138.236526 172.093356 
L 133.993885 172.093356 
z
" clip-path="url(#pc0c1eb5831)" style="fill: #882e72; fill-opacity: 0.6; stroke: #ffffff; stroke-opacity: 0.6; stroke-width: 0.339411"/>
    <path d="M 126.359752 120.884876 
L 130.602392 120.884876 
L 130.602392 116.642236 
L 126.359752 116.642236 
z
" clip-path="url(#pc0c1eb5831)" style="fill: #882e72; fill-opacity: 0.6; stroke: #ffffff; stroke-opacity: 0.6; stroke-width: 0.339411"/>
    <path d="M 124.728705 114.34846 
L 128.971345 114.34846 
L 128.971345 110.10582 
L 124.728705 110.10582 
z
" clip-path="url(#pc0c1eb5831)" style="fill: #882e72; fill-opacity: 0.6; stroke: #ffffff; stroke-opacity: 0.6; stroke-width: 0.339411"/>
    <path d="M 116.85397 124.743649 
L 121.096611 124.743649 
L 121.096611 120.501008 
L 116.85397 120.501008 
z
" clip-path="url(#pc0c1eb5831)" style="fill: #882e72; fill-opacity: 0.6; stroke: #ffffff; stroke-opacity: 0.6; stroke-width: 0.339411"/>
    <path d="M 110.181588 145.944977 
L 114.424229 145.944977 
L 114.424229 141.702336 
L 110.181588 141.702336 
z
" clip-path="url(#pc0c1eb5831)" style="fill: #882e72; fill-opacity: 0.6; stroke: #ffffff; stroke-opacity: 0.6; stroke-width: 0.339411"/>
    <path d="M 116.493777 167.345465 
L 120.736418 167.345465 
L 120.736418 163.102824 
L 116.493777 163.102824 
z
" clip-path="url(#pc0c1eb5831)" style="fill: #882e72; fill-opacity: 0.6; stroke: #ffffff; stroke-opacity: 0.6; stroke-width: 0.339411"/>
    <path d="M 106.05943 118.095276 
L 110.302071 118.095276 
L 110.302071 113.852636 
L 106.05943 113.852636 
z
" clip-path="url(#pc0c1eb5831)" style="fill: #882e72; fill-opacity: 0.6; stroke: #ffffff; stroke-opacity: 0.6; stroke-width: 0.339411"/>
    <path d="M 121.42466 159.240962 
L 125.667301 159.240962 
L 125.667301 154.998321 
L 121.42466 154.998321 
z
" clip-path="url(#pc0c1eb5831)" style="fill: #882e72; fill-opacity: 0.6; stroke: #ffffff; stroke-opacity: 0.6; stroke-width: 0.339411"/>
    <path d="M 116.774097 122.486465 
L 121.016737 122.486465 
L 121.016737 118.243824 
L 116.774097 118.243824 
z
" clip-path="url(#pc0c1eb5831)" style="fill: #882e72; fill-opacity: 0.6; stroke: #ffffff; stroke-opacity: 0.6; stroke-width: 0.339411"/>
    <path d="M 110.38302 153.020845 
L 114.625661 153.020845 
L 114.625661 148.778204 
L 110.38302 148.778204 
z
" clip-path="url(#pc0c1eb5831)" style="fill: #882e72; fill-opacity: 0.6; stroke: #ffffff; stroke-opacity: 0.6; stroke-width: 0.339411"/>
    <path d="M 117.630166 156.131354 
L 121.872807 156.131354 
L 121.872807 151.888713 
L 117.630166 151.888713 
z
" clip-path="url(#pc0c1eb5831)" style="fill: #882e72; fill-opacity: 0.6; stroke: #ffffff; stroke-opacity: 0.6; stroke-width: 0.339411"/>
    <path d="M 105.210606 119.585777 
L 109.453247 119.585777 
L 109.453247 115.343136 
L 105.210606 115.343136 
z
" clip-path="url(#pc0c1eb5831)" style="fill: #882e72; fill-opacity: 0.6; stroke: #ffffff; stroke-opacity: 0.6; stroke-width: 0.339411"/>
    <path d="M 160.105839 107.846224 
L 161.1665 106.785563 
L 162.22716 107.846224 
L 163.28782 106.785563 
L 162.22716 105.724903 
L 163.28782 104.664243 
L 162.22716 103.603583 
L 161.1665 104.664243 
L 160.105839 103.603583 
L 159.045179 104.664243 
L 160.105839 105.724903 
L 159.045179 106.785563 
z
" clip-path="url(#pc0c1eb5831)" style="fill: #1965b0; fill-opacity: 0.6; stroke: #ffffff; stroke-opacity: 0.6; stroke-width: 0.339411"/>
    <path d="M 166.38338 121.966257 
L 167.44404 120.905597 
L 168.5047 121.966257 
L 169.56536 120.905597 
L 168.5047 119.844937 
L 169.56536 118.784277 
L 168.5047 117.723617 
L 167.44404 118.784277 
L 166.38338 117.723617 
L 165.32272 118.784277 
L 166.38338 119.844937 
L 165.32272 120.905597 
z
" clip-path="url(#pc0c1eb5831)" style="fill: #1965b0; fill-opacity: 0.6; stroke: #ffffff; stroke-opacity: 0.6; stroke-width: 0.339411"/>
    <path d="M 153.444699 136.088677 
L 154.505359 135.028016 
L 155.566019 136.088677 
L 156.626679 135.028016 
L 155.566019 133.967356 
L 156.626679 132.906696 
L 155.566019 131.846036 
L 154.505359 132.906696 
L 153.444699 131.846036 
L 152.384038 132.906696 
L 153.444699 133.967356 
L 152.384038 135.028016 
z
" clip-path="url(#pc0c1eb5831)" style="fill: #1965b0; fill-opacity: 0.6; stroke: #ffffff; stroke-opacity: 0.6; stroke-width: 0.339411"/>
    <path d="M 141.343706 124.930937 
L 142.404367 123.870277 
L 143.465027 124.930937 
L 144.525687 123.870277 
L 143.465027 122.809617 
L 144.525687 121.748957 
L 143.465027 120.688296 
L 142.404367 121.748957 
L 141.343706 120.688296 
L 140.283046 121.748957 
L 141.343706 122.809617 
L 140.283046 123.870277 
z
" clip-path="url(#pc0c1eb5831)" style="fill: #1965b0; fill-opacity: 0.6; stroke: #ffffff; stroke-opacity: 0.6; stroke-width: 0.339411"/>
    <path d="M 129.91491 124.318484 
L 130.975571 123.257824 
L 132.036231 124.318484 
L 133.096891 123.257824 
L 132.036231 122.197164 
L 133.096891 121.136504 
L 132.036231 120.075844 
L 130.975571 121.136504 
L 129.91491 120.075844 
L 128.85425 121.136504 
L 129.91491 122.197164 
L 128.85425 123.257824 
z
" clip-path="url(#pc0c1eb5831)" style="fill: #1965b0; fill-opacity: 0.6; stroke: #ffffff; stroke-opacity: 0.6; stroke-width: 0.339411"/>
    <path d="M 145.387083 116.31715 
L 146.447743 115.256489 
L 147.508403 116.31715 
L 148.569063 115.256489 
L 147.508403 114.195829 
L 148.569063 113.135169 
L 147.508403 112.074509 
L 146.447743 113.135169 
L 145.387083 112.074509 
L 144.326423 113.135169 
L 145.387083 114.195829 
L 144.326423 115.256489 
z
" clip-path="url(#pc0c1eb5831)" style="fill: #1965b0; fill-opacity: 0.6; stroke: #ffffff; stroke-opacity: 0.6; stroke-width: 0.339411"/>
    <path d="M 154.896118 122.870201 
L 155.956778 121.809541 
L 157.017439 122.870201 
L 158.078099 121.809541 
L 157.017439 120.74888 
L 158.078099 119.68822 
L 157.017439 118.62756 
L 155.956778 119.68822 
L 154.896118 118.62756 
L 153.835458 119.68822 
L 154.896118 120.74888 
L 153.835458 121.809541 
z
" clip-path="url(#pc0c1eb5831)" style="fill: #1965b0; fill-opacity: 0.6; stroke: #ffffff; stroke-opacity: 0.6; stroke-width: 0.339411"/>
    <path d="M 212.540906 112.665529 
L 213.601566 111.604869 
L 214.662226 112.665529 
L 215.722886 111.604869 
L 214.662226 110.544209 
L 215.722886 109.483549 
L 214.662226 108.422889 
L 213.601566 109.483549 
L 212.540906 108.422889 
L 211.480246 109.483549 
L 212.540906 110.544209 
L 211.480246 111.604869 
z
" clip-path="url(#pc0c1eb5831)" style="fill: #1965b0; fill-opacity: 0.6; stroke: #ffffff; stroke-opacity: 0.6; stroke-width: 0.339411"/>
    <path d="M 180.419088 109.008671 
L 181.479748 107.948011 
L 182.540408 109.008671 
L 183.601068 107.948011 
L 182.540408 106.887351 
L 183.601068 105.826691 
L 182.540408 104.76603 
L 181.479748 105.826691 
L 180.419088 104.76603 
L 179.358428 105.826691 
L 180.419088 106.887351 
L 179.358428 107.948011 
z
" clip-path="url(#pc0c1eb5831)" style="fill: #1965b0; fill-opacity: 0.6; stroke: #ffffff; stroke-opacity: 0.6; stroke-width: 0.339411"/>
    <path d="M 156.331458 94.146789 
L 157.392118 93.086129 
L 158.452778 94.146789 
L 159.513438 93.086129 
L 158.452778 92.025469 
L 159.513438 90.964809 
L 158.452778 89.904149 
L 157.392118 90.964809 
L 156.331458 89.904149 
L 155.270798 90.964809 
L 156.331458 92.025469 
L 155.270798 93.086129 
z
" clip-path="url(#pc0c1eb5831)" style="fill: #1965b0; fill-opacity: 0.6; stroke: #ffffff; stroke-opacity: 0.6; stroke-width: 0.339411"/>
    <path d="M 136.450227 129.095312 
L 137.510887 128.034652 
L 138.571547 129.095312 
L 139.632207 128.034652 
L 138.571547 126.973992 
L 139.632207 125.913332 
L 138.571547 124.852671 
L 137.510887 125.913332 
L 136.450227 124.852671 
L 135.389566 125.913332 
L 136.450227 126.973992 
L 135.389566 128.034652 
z
" clip-path="url(#pc0c1eb5831)" style="fill: #1965b0; fill-opacity: 0.6; stroke: #ffffff; stroke-opacity: 0.6; stroke-width: 0.339411"/>
    <path d="M 145.143554 156.116382 
L 146.204214 155.055722 
L 147.264874 156.116382 
L 148.325535 155.055722 
L 147.264874 153.995061 
L 148.325535 152.934401 
L 147.264874 151.873741 
L 146.204214 152.934401 
L 145.143554 151.873741 
L 144.082894 152.934401 
L 145.143554 153.995061 
L 144.082894 155.055722 
z
" clip-path="url(#pc0c1eb5831)" style="fill: #1965b0; fill-opacity: 0.6; stroke: #ffffff; stroke-opacity: 0.6; stroke-width: 0.339411"/>
    <path d="M 136.420924 145.021827 
L 137.481584 143.961167 
L 138.542244 145.021827 
L 139.602904 143.961167 
L 138.542244 142.900506 
L 139.602904 141.839846 
L 138.542244 140.779186 
L 137.481584 141.839846 
L 136.420924 140.779186 
L 135.360263 141.839846 
L 136.420924 142.900506 
L 135.360263 143.961167 
z
" clip-path="url(#pc0c1eb5831)" style="fill: #1965b0; fill-opacity: 0.6; stroke: #ffffff; stroke-opacity: 0.6; stroke-width: 0.339411"/>
    <path d="M 130.141862 136.022015 
L 131.202522 134.961355 
L 132.263182 136.022015 
L 133.323842 134.961355 
L 132.263182 133.900695 
L 133.323842 132.840035 
L 132.263182 131.779375 
L 131.202522 132.840035 
L 130.141862 131.779375 
L 129.081202 132.840035 
L 130.141862 133.900695 
L 129.081202 134.961355 
z
" clip-path="url(#pc0c1eb5831)" style="fill: #1965b0; fill-opacity: 0.6; stroke: #ffffff; stroke-opacity: 0.6; stroke-width: 0.339411"/>
    <path d="M 159.831034 96.281514 
L 160.891694 95.220854 
L 161.952354 96.281514 
L 163.013015 95.220854 
L 161.952354 94.160194 
L 163.013015 93.099533 
L 161.952354 92.038873 
L 160.891694 93.099533 
L 159.831034 92.038873 
L 158.770374 93.099533 
L 159.831034 94.160194 
L 158.770374 95.220854 
z
" clip-path="url(#pc0c1eb5831)" style="fill: #1965b0; fill-opacity: 0.6; stroke: #ffffff; stroke-opacity: 0.6; stroke-width: 0.339411"/>
    <path d="M 173.325503 93.987298 
L 174.386163 92.926638 
L 175.446823 93.987298 
L 176.507483 92.926638 
L 175.446823 91.865977 
L 176.507483 90.805317 
L 175.446823 89.744657 
L 174.386163 90.805317 
L 173.325503 89.744657 
L 172.264843 90.805317 
L 173.325503 91.865977 
L 172.264843 92.926638 
z
" clip-path="url(#pc0c1eb5831)" style="fill: #1965b0; fill-opacity: 0.6; stroke: #ffffff; stroke-opacity: 0.6; stroke-width: 0.339411"/>
    <path d="M 167.734255 107.306561 
L 168.794916 106.245901 
L 169.855576 107.306561 
L 170.916236 106.245901 
L 169.855576 105.185241 
L 170.916236 104.124581 
L 169.855576 103.063921 
L 168.794916 104.124581 
L 167.734255 103.063921 
L 166.673595 104.124581 
L 167.734255 105.185241 
L 166.673595 106.245901 
z
" clip-path="url(#pc0c1eb5831)" style="fill: #1965b0; fill-opacity: 0.6; stroke: #ffffff; stroke-opacity: 0.6; stroke-width: 0.339411"/>
    <path d="M 167.5098 94.064942 
L 168.57046 93.004282 
L 169.63112 94.064942 
L 170.69178 93.004282 
L 169.63112 91.943622 
L 170.69178 90.882961 
L 169.63112 89.822301 
L 168.57046 90.882961 
L 167.5098 89.822301 
L 166.44914 90.882961 
L 167.5098 91.943622 
L 166.44914 93.004282 
z
" clip-path="url(#pc0c1eb5831)" style="fill: #1965b0; fill-opacity: 0.6; stroke: #ffffff; stroke-opacity: 0.6; stroke-width: 0.339411"/>
    <path d="M 214.014432 117.867308 
L 215.075092 116.806648 
L 216.135753 117.867308 
L 217.196413 116.806648 
L 216.135753 115.745988 
L 217.196413 114.685328 
L 216.135753 113.624668 
L 215.075092 114.685328 
L 214.014432 113.624668 
L 212.953772 114.685328 
L 214.014432 115.745988 
L 212.953772 116.806648 
z
" clip-path="url(#pc0c1eb5831)" style="fill: #1965b0; fill-opacity: 0.6; stroke: #ffffff; stroke-opacity: 0.6; stroke-width: 0.339411"/>
    <path d="M 182.735707 147.057998 
L 183.796367 145.997338 
L 184.857027 147.057998 
L 185.917687 145.997338 
L 184.857027 144.936678 
L 185.917687 143.876018 
L 184.857027 142.815357 
L 183.796367 143.876018 
L 182.735707 142.815357 
L 181.675047 143.876018 
L 182.735707 144.936678 
L 181.675047 145.997338 
z
" clip-path="url(#pc0c1eb5831)" style="fill: #1965b0; fill-opacity: 0.6; stroke: #ffffff; stroke-opacity: 0.6; stroke-width: 0.339411"/>
    <path d="M 155.109736 127.558474 
L 156.170397 126.497814 
L 157.231057 127.558474 
L 158.291717 126.497814 
L 157.231057 125.437154 
L 158.291717 124.376494 
L 157.231057 123.315834 
L 156.170397 124.376494 
L 155.109736 123.315834 
L 154.049076 124.376494 
L 155.109736 125.437154 
L 154.049076 126.497814 
z
" clip-path="url(#pc0c1eb5831)" style="fill: #1965b0; fill-opacity: 0.6; stroke: #ffffff; stroke-opacity: 0.6; stroke-width: 0.339411"/>
    <path d="M 149.356039 137.223333 
L 150.416699 136.162673 
L 151.47736 137.223333 
L 152.53802 136.162673 
L 151.47736 135.102013 
L 152.53802 134.041352 
L 151.47736 132.980692 
L 150.416699 134.041352 
L 149.356039 132.980692 
L 148.295379 134.041352 
L 149.356039 135.102013 
L 148.295379 136.162673 
z
" clip-path="url(#pc0c1eb5831)" style="fill: #1965b0; fill-opacity: 0.6; stroke: #ffffff; stroke-opacity: 0.6; stroke-width: 0.339411"/>
    <path d="M 137.806441 134.77024 
L 138.867101 133.70958 
L 139.927761 134.77024 
L 140.988421 133.70958 
L 139.927761 132.64892 
L 140.988421 131.58826 
L 139.927761 130.5276 
L 138.867101 131.58826 
L 137.806441 130.5276 
L 136.74578 131.58826 
L 137.806441 132.64892 
L 136.74578 133.70958 
z
" clip-path="url(#pc0c1eb5831)" style="fill: #1965b0; fill-opacity: 0.6; stroke: #ffffff; stroke-opacity: 0.6; stroke-width: 0.339411"/>
    <path d="M 165.246368 98.362333 
L 166.307028 97.301673 
L 167.367689 98.362333 
L 168.428349 97.301673 
L 167.367689 96.241013 
L 168.428349 95.180352 
L 167.367689 94.119692 
L 166.307028 95.180352 
L 165.246368 94.119692 
L 164.185708 95.180352 
L 165.246368 96.241013 
L 164.185708 97.301673 
z
" clip-path="url(#pc0c1eb5831)" style="fill: #1965b0; fill-opacity: 0.6; stroke: #ffffff; stroke-opacity: 0.6; stroke-width: 0.339411"/>
    <path d="M 134.946614 131.511333 
L 136.007274 130.450673 
L 137.067934 131.511333 
L 138.128594 130.450673 
L 137.067934 129.390012 
L 138.128594 128.329352 
L 137.067934 127.268692 
L 136.007274 128.329352 
L 134.946614 127.268692 
L 133.885954 128.329352 
L 134.946614 129.390012 
L 133.885954 130.450673 
z
" clip-path="url(#pc0c1eb5831)" style="fill: #1965b0; fill-opacity: 0.6; stroke: #ffffff; stroke-opacity: 0.6; stroke-width: 0.339411"/>
    <path d="M 140.461819 119.944916 
L 141.522479 118.884256 
L 142.58314 119.944916 
L 143.6438 118.884256 
L 142.58314 117.823595 
L 143.6438 116.762935 
L 142.58314 115.702275 
L 141.522479 116.762935 
L 140.461819 115.702275 
L 139.401159 116.762935 
L 140.461819 117.823595 
L 139.401159 118.884256 
z
" clip-path="url(#pc0c1eb5831)" style="fill: #1965b0; fill-opacity: 0.6; stroke: #ffffff; stroke-opacity: 0.6; stroke-width: 0.339411"/>
    <path d="M 131.296515 137.745804 
L 132.357175 136.685144 
L 133.417836 137.745804 
L 134.478496 136.685144 
L 133.417836 135.624483 
L 134.478496 134.563823 
L 133.417836 133.503163 
L 132.357175 134.563823 
L 131.296515 133.503163 
L 130.235855 134.563823 
L 131.296515 135.624483 
L 130.235855 136.685144 
z
" clip-path="url(#pc0c1eb5831)" style="fill: #1965b0; fill-opacity: 0.6; stroke: #ffffff; stroke-opacity: 0.6; stroke-width: 0.339411"/>
    <path d="M 134.086642 113.751679 
L 135.147303 112.691018 
L 136.207963 113.751679 
L 137.268623 112.691018 
L 136.207963 111.630358 
L 137.268623 110.569698 
L 136.207963 109.509038 
L 135.147303 110.569698 
L 134.086642 109.509038 
L 133.025982 110.569698 
L 134.086642 111.630358 
L 133.025982 112.691018 
z
" clip-path="url(#pc0c1eb5831)" style="fill: #1965b0; fill-opacity: 0.6; stroke: #ffffff; stroke-opacity: 0.6; stroke-width: 0.339411"/>
    <path d="M 179.265529 120.641518 
L 180.326189 119.580858 
L 181.386849 120.641518 
L 182.447509 119.580858 
L 181.386849 118.520198 
L 182.447509 117.459538 
L 181.386849 116.398878 
L 180.326189 117.459538 
L 179.265529 116.398878 
L 178.204869 117.459538 
L 179.265529 118.520198 
L 178.204869 119.580858 
z
" clip-path="url(#pc0c1eb5831)" style="fill: #1965b0; fill-opacity: 0.6; stroke: #ffffff; stroke-opacity: 0.6; stroke-width: 0.339411"/>
    <path d="M 153.134825 124.583776 
L 154.195485 123.523116 
L 155.256145 124.583776 
L 156.316806 123.523116 
L 155.256145 122.462455 
L 156.316806 121.401795 
L 155.256145 120.341135 
L 154.195485 121.401795 
L 153.134825 120.341135 
L 152.074165 121.401795 
L 153.134825 122.462455 
L 152.074165 123.523116 
z
" clip-path="url(#pc0c1eb5831)" style="fill: #1965b0; fill-opacity: 0.6; stroke: #ffffff; stroke-opacity: 0.6; stroke-width: 0.339411"/>
    <path d="M 137.647341 124.755955 
L 138.708001 123.695295 
L 139.768661 124.755955 
L 140.829321 123.695295 
L 139.768661 122.634635 
L 140.829321 121.573975 
L 139.768661 120.513315 
L 138.708001 121.573975 
L 137.647341 120.513315 
L 136.58668 121.573975 
L 137.647341 122.634635 
L 136.58668 123.695295 
z
" clip-path="url(#pc0c1eb5831)" style="fill: #1965b0; fill-opacity: 0.6; stroke: #ffffff; stroke-opacity: 0.6; stroke-width: 0.339411"/>
    <path d="M 164.452345 94.234141 
L 165.513005 93.173481 
L 166.573665 94.234141 
L 167.634325 93.173481 
L 166.573665 92.112821 
L 167.634325 91.05216 
L 166.573665 89.9915 
L 165.513005 91.05216 
L 164.452345 89.9915 
L 163.391685 91.05216 
L 164.452345 92.112821 
L 163.391685 93.173481 
z
" clip-path="url(#pc0c1eb5831)" style="fill: #1965b0; fill-opacity: 0.6; stroke: #ffffff; stroke-opacity: 0.6; stroke-width: 0.339411"/>
    <path d="M 165.964796 103.894497 
L 167.025456 102.833837 
L 168.086117 103.894497 
L 169.146777 102.833837 
L 168.086117 101.773177 
L 169.146777 100.712517 
L 168.086117 99.651857 
L 167.025456 100.712517 
L 165.964796 99.651857 
L 164.904136 100.712517 
L 165.964796 101.773177 
L 164.904136 102.833837 
z
" clip-path="url(#pc0c1eb5831)" style="fill: #1965b0; fill-opacity: 0.6; stroke: #ffffff; stroke-opacity: 0.6; stroke-width: 0.339411"/>
    <path d="M 146.334923 134.718871 
L 147.395583 133.658211 
L 148.456243 134.718871 
L 149.516904 133.658211 
L 148.456243 132.597551 
L 149.516904 131.53689 
L 148.456243 130.47623 
L 147.395583 131.53689 
L 146.334923 130.47623 
L 145.274263 131.53689 
L 146.334923 132.597551 
L 145.274263 133.658211 
z
" clip-path="url(#pc0c1eb5831)" style="fill: #1965b0; fill-opacity: 0.6; stroke: #ffffff; stroke-opacity: 0.6; stroke-width: 0.339411"/>
    <path d="M 135.903443 117.766109 
L 136.964103 116.705448 
L 138.024764 117.766109 
L 139.085424 116.705448 
L 138.024764 115.644788 
L 139.085424 114.584128 
L 138.024764 113.523468 
L 136.964103 114.584128 
L 135.903443 113.523468 
L 134.842783 114.584128 
L 135.903443 115.644788 
L 134.842783 116.705448 
z
" clip-path="url(#pc0c1eb5831)" style="fill: #1965b0; fill-opacity: 0.6; stroke: #ffffff; stroke-opacity: 0.6; stroke-width: 0.339411"/>
    <path d="M 146.182934 126.514913 
L 147.243594 125.454253 
L 148.304254 126.514913 
L 149.364915 125.454253 
L 148.304254 124.393593 
L 149.364915 123.332933 
L 148.304254 122.272273 
L 147.243594 123.332933 
L 146.182934 122.272273 
L 145.122274 123.332933 
L 146.182934 124.393593 
L 145.122274 125.454253 
z
" clip-path="url(#pc0c1eb5831)" style="fill: #1965b0; fill-opacity: 0.6; stroke: #ffffff; stroke-opacity: 0.6; stroke-width: 0.339411"/>
    <path d="M 164.219207 131.235649 
L 165.279867 130.174988 
L 166.340527 131.235649 
L 167.401187 130.174988 
L 166.340527 129.114328 
L 167.401187 128.053668 
L 166.340527 126.993008 
L 165.279867 128.053668 
L 164.219207 126.993008 
L 163.158546 128.053668 
L 164.219207 129.114328 
L 163.158546 130.174988 
z
" clip-path="url(#pc0c1eb5831)" style="fill: #1965b0; fill-opacity: 0.6; stroke: #ffffff; stroke-opacity: 0.6; stroke-width: 0.339411"/>
    <path d="M 152.56246 142.830975 
L 153.62312 141.770314 
L 154.68378 142.830975 
L 155.74444 141.770314 
L 154.68378 140.709654 
L 155.74444 139.648994 
L 154.68378 138.588334 
L 153.62312 139.648994 
L 152.56246 138.588334 
L 151.5018 139.648994 
L 152.56246 140.709654 
L 151.5018 141.770314 
z
" clip-path="url(#pc0c1eb5831)" style="fill: #1965b0; fill-opacity: 0.6; stroke: #ffffff; stroke-opacity: 0.6; stroke-width: 0.339411"/>
    <path d="M 139.838868 127.209415 
L 140.899528 126.148754 
L 141.960189 127.209415 
L 143.020849 126.148754 
L 141.960189 125.088094 
L 143.020849 124.027434 
L 141.960189 122.966774 
L 140.899528 124.027434 
L 139.838868 122.966774 
L 138.778208 124.027434 
L 139.838868 125.088094 
L 138.778208 126.148754 
z
" clip-path="url(#pc0c1eb5831)" style="fill: #1965b0; fill-opacity: 0.6; stroke: #ffffff; stroke-opacity: 0.6; stroke-width: 0.339411"/>
    <path d="M 146.737115 138.050791 
L 147.797775 136.990131 
L 148.858435 138.050791 
L 149.919095 136.990131 
L 148.858435 135.929471 
L 149.919095 134.86881 
L 148.858435 133.80815 
L 147.797775 134.86881 
L 146.737115 133.80815 
L 145.676455 134.86881 
L 146.737115 135.929471 
L 145.676455 136.990131 
z
" clip-path="url(#pc0c1eb5831)" style="fill: #1965b0; fill-opacity: 0.6; stroke: #ffffff; stroke-opacity: 0.6; stroke-width: 0.339411"/>
    <path d="M 169.892176 104.6608 
L 170.952836 103.600139 
L 172.013496 104.6608 
L 173.074157 103.600139 
L 172.013496 102.539479 
L 173.074157 101.478819 
L 172.013496 100.418159 
L 170.952836 101.478819 
L 169.892176 100.418159 
L 168.831516 101.478819 
L 169.892176 102.539479 
L 168.831516 103.600139 
z
" clip-path="url(#pc0c1eb5831)" style="fill: #1965b0; fill-opacity: 0.6; stroke: #ffffff; stroke-opacity: 0.6; stroke-width: 0.339411"/>
    <path d="M 155.258572 133.350941 
L 156.319232 132.290281 
L 157.379892 133.350941 
L 158.440552 132.290281 
L 157.379892 131.22962 
L 158.440552 130.16896 
L 157.379892 129.1083 
L 156.319232 130.16896 
L 155.258572 129.1083 
L 154.197911 130.16896 
L 155.258572 131.22962 
L 154.197911 132.290281 
z
" clip-path="url(#pc0c1eb5831)" style="fill: #1965b0; fill-opacity: 0.6; stroke: #ffffff; stroke-opacity: 0.6; stroke-width: 0.339411"/>
    <path d="M 158.946767 118.537706 
L 160.007427 117.477046 
L 161.068087 118.537706 
L 162.128747 117.477046 
L 161.068087 116.416386 
L 162.128747 115.355726 
L 161.068087 114.295066 
L 160.007427 115.355726 
L 158.946767 114.295066 
L 157.886106 115.355726 
L 158.946767 116.416386 
L 157.886106 117.477046 
z
" clip-path="url(#pc0c1eb5831)" style="fill: #1965b0; fill-opacity: 0.6; stroke: #ffffff; stroke-opacity: 0.6; stroke-width: 0.339411"/>
    <path d="M 190.450846 98.291589 
L 191.511507 97.230929 
L 192.572167 98.291589 
L 193.632827 97.230929 
L 192.572167 96.170269 
L 193.632827 95.109608 
L 192.572167 94.048948 
L 191.511507 95.109608 
L 190.450846 94.048948 
L 189.390186 95.109608 
L 190.450846 96.170269 
L 189.390186 97.230929 
z
" clip-path="url(#pc0c1eb5831)" style="fill: #1965b0; fill-opacity: 0.6; stroke: #ffffff; stroke-opacity: 0.6; stroke-width: 0.339411"/>
    <path d="M 172.409432 113.001165 
L 173.470092 111.940505 
L 174.530752 113.001165 
L 175.591412 111.940505 
L 174.530752 110.879845 
L 175.591412 109.819185 
L 174.530752 108.758525 
L 173.470092 109.819185 
L 172.409432 108.758525 
L 171.348771 109.819185 
L 172.409432 110.879845 
L 171.348771 111.940505 
z
" clip-path="url(#pc0c1eb5831)" style="fill: #1965b0; fill-opacity: 0.6; stroke: #ffffff; stroke-opacity: 0.6; stroke-width: 0.339411"/>
    <path d="M 143.013229 118.262645 
L 144.073889 117.201985 
L 145.134549 118.262645 
L 146.195209 117.201985 
L 145.134549 116.141325 
L 146.195209 115.080665 
L 145.134549 114.020004 
L 144.073889 115.080665 
L 143.013229 114.020004 
L 141.952569 115.080665 
L 143.013229 116.141325 
L 141.952569 117.201985 
z
" clip-path="url(#pc0c1eb5831)" style="fill: #1965b0; fill-opacity: 0.6; stroke: #ffffff; stroke-opacity: 0.6; stroke-width: 0.339411"/>
    <path d="M 140.613828 120.034221 
L 141.674488 118.973561 
L 142.735149 120.034221 
L 143.795809 118.973561 
L 142.735149 117.9129 
L 143.795809 116.85224 
L 142.735149 115.79158 
L 141.674488 116.85224 
L 140.613828 115.79158 
L 139.553168 116.85224 
L 140.613828 117.9129 
L 139.553168 118.973561 
z
" clip-path="url(#pc0c1eb5831)" style="fill: #1965b0; fill-opacity: 0.6; stroke: #ffffff; stroke-opacity: 0.6; stroke-width: 0.339411"/>
    <path d="M 155.294107 110.999718 
L 156.354767 109.939058 
L 157.415427 110.999718 
L 158.476087 109.939058 
L 157.415427 108.878398 
L 158.476087 107.817738 
L 157.415427 106.757077 
L 156.354767 107.817738 
L 155.294107 106.757077 
L 154.233447 107.817738 
L 155.294107 108.878398 
L 154.233447 109.939058 
z
" clip-path="url(#pc0c1eb5831)" style="fill: #1965b0; fill-opacity: 0.6; stroke: #ffffff; stroke-opacity: 0.6; stroke-width: 0.339411"/>
    <path d="M 161.829046 93.920461 
L 162.889707 92.859801 
L 163.950367 93.920461 
L 165.011027 92.859801 
L 163.950367 91.79914 
L 165.011027 90.73848 
L 163.950367 89.67782 
L 162.889707 90.73848 
L 161.829046 89.67782 
L 160.768386 90.73848 
L 161.829046 91.79914 
L 160.768386 92.859801 
z
" clip-path="url(#pc0c1eb5831)" style="fill: #1965b0; fill-opacity: 0.6; stroke: #ffffff; stroke-opacity: 0.6; stroke-width: 0.339411"/>
    <path d="M 156.079025 98.31352 
L 157.139685 97.25286 
L 158.200346 98.31352 
L 159.261006 97.25286 
L 158.200346 96.192199 
L 159.261006 95.131539 
L 158.200346 94.070879 
L 157.139685 95.131539 
L 156.079025 94.070879 
L 155.018365 95.131539 
L 156.079025 96.192199 
L 155.018365 97.25286 
z
" clip-path="url(#pc0c1eb5831)" style="fill: #1965b0; fill-opacity: 0.6; stroke: #ffffff; stroke-opacity: 0.6; stroke-width: 0.339411"/>
    <path d="M 188.058798 114.262962 
L 189.119458 113.202302 
L 190.180118 114.262962 
L 191.240778 113.202302 
L 190.180118 112.141642 
L 191.240778 111.080981 
L 190.180118 110.020321 
L 189.119458 111.080981 
L 188.058798 110.020321 
L 186.998138 111.080981 
L 188.058798 112.141642 
L 186.998138 113.202302 
z
" clip-path="url(#pc0c1eb5831)" style="fill: #1965b0; fill-opacity: 0.6; stroke: #ffffff; stroke-opacity: 0.6; stroke-width: 0.339411"/>
    <path d="M 176.786912 95.544721 
L 177.847573 94.48406 
L 178.908233 95.544721 
L 179.968893 94.48406 
L 178.908233 93.4234 
L 179.968893 92.36274 
L 178.908233 91.30208 
L 177.847573 92.36274 
L 176.786912 91.30208 
L 175.726252 92.36274 
L 176.786912 93.4234 
L 175.726252 94.48406 
z
" clip-path="url(#pc0c1eb5831)" style="fill: #1965b0; fill-opacity: 0.6; stroke: #ffffff; stroke-opacity: 0.6; stroke-width: 0.339411"/>
    <path d="M 195.108049 103.24486 
L 196.168709 102.1842 
L 197.229369 103.24486 
L 198.29003 102.1842 
L 197.229369 101.123539 
L 198.29003 100.062879 
L 197.229369 99.002219 
L 196.168709 100.062879 
L 195.108049 99.002219 
L 194.047389 100.062879 
L 195.108049 101.123539 
L 194.047389 102.1842 
z
" clip-path="url(#pc0c1eb5831)" style="fill: #1965b0; fill-opacity: 0.6; stroke: #ffffff; stroke-opacity: 0.6; stroke-width: 0.339411"/>
    <path d="M 148.796319 122.771105 
L 149.85698 121.710445 
L 150.91764 122.771105 
L 151.9783 121.710445 
L 150.91764 120.649785 
L 151.9783 119.589125 
L 150.91764 118.528465 
L 149.85698 119.589125 
L 148.796319 118.528465 
L 147.735659 119.589125 
L 148.796319 120.649785 
L 147.735659 121.710445 
z
" clip-path="url(#pc0c1eb5831)" style="fill: #1965b0; fill-opacity: 0.6; stroke: #ffffff; stroke-opacity: 0.6; stroke-width: 0.339411"/>
    <path d="M 132.823766 125.379695 
L 133.884426 124.319035 
L 134.945087 125.379695 
L 136.005747 124.319035 
L 134.945087 123.258374 
L 136.005747 122.197714 
L 134.945087 121.137054 
L 133.884426 122.197714 
L 132.823766 121.137054 
L 131.763106 122.197714 
L 132.823766 123.258374 
L 131.763106 124.319035 
z
" clip-path="url(#pc0c1eb5831)" style="fill: #1965b0; fill-opacity: 0.6; stroke: #ffffff; stroke-opacity: 0.6; stroke-width: 0.339411"/>
    <path d="M 151.53453 139.147149 
L 152.59519 138.086488 
L 153.65585 139.147149 
L 154.71651 138.086488 
L 153.65585 137.025828 
L 154.71651 135.965168 
L 153.65585 134.904508 
L 152.59519 135.965168 
L 151.53453 134.904508 
L 150.47387 135.965168 
L 151.53453 137.025828 
L 150.47387 138.086488 
z
" clip-path="url(#pc0c1eb5831)" style="fill: #1965b0; fill-opacity: 0.6; stroke: #ffffff; stroke-opacity: 0.6; stroke-width: 0.339411"/>
    <path d="M 137.11951 132.515891 
L 138.18017 131.455231 
L 139.24083 132.515891 
L 140.301491 131.455231 
L 139.24083 130.39457 
L 140.301491 129.33391 
L 139.24083 128.27325 
L 138.18017 129.33391 
L 137.11951 128.27325 
L 136.05885 129.33391 
L 137.11951 130.39457 
L 136.05885 131.455231 
z
" clip-path="url(#pc0c1eb5831)" style="fill: #1965b0; fill-opacity: 0.6; stroke: #ffffff; stroke-opacity: 0.6; stroke-width: 0.339411"/>
    <path d="M 157.155583 124.740566 
L 158.216243 123.679905 
L 159.276903 124.740566 
L 160.337563 123.679905 
L 159.276903 122.619245 
L 160.337563 121.558585 
L 159.276903 120.497925 
L 158.216243 121.558585 
L 157.155583 120.497925 
L 156.094922 121.558585 
L 157.155583 122.619245 
L 156.094922 123.679905 
z
" clip-path="url(#pc0c1eb5831)" style="fill: #1965b0; fill-opacity: 0.6; stroke: #ffffff; stroke-opacity: 0.6; stroke-width: 0.339411"/>
    <path d="M 198.42545 101.522466 
L 199.48611 100.461806 
L 200.54677 101.522466 
L 201.60743 100.461806 
L 200.54677 99.401146 
L 201.60743 98.340486 
L 200.54677 97.279826 
L 199.48611 98.340486 
L 198.42545 97.279826 
L 197.364789 98.340486 
L 198.42545 99.401146 
L 197.364789 100.461806 
z
" clip-path="url(#pc0c1eb5831)" style="fill: #1965b0; fill-opacity: 0.6; stroke: #ffffff; stroke-opacity: 0.6; stroke-width: 0.339411"/>
    <path d="M 152.87041 127.405966 
L 153.93107 126.345305 
L 154.99173 127.405966 
L 156.052391 126.345305 
L 154.99173 125.284645 
L 156.052391 124.223985 
L 154.99173 123.163325 
L 153.93107 124.223985 
L 152.87041 123.163325 
L 151.80975 124.223985 
L 152.87041 125.284645 
L 151.80975 126.345305 
z
" clip-path="url(#pc0c1eb5831)" style="fill: #1965b0; fill-opacity: 0.6; stroke: #ffffff; stroke-opacity: 0.6; stroke-width: 0.339411"/>
    <path d="M 151.150658 128.73367 
L 152.211318 127.67301 
L 153.271978 128.73367 
L 154.332639 127.67301 
L 153.271978 126.61235 
L 154.332639 125.551689 
L 153.271978 124.491029 
L 152.211318 125.551689 
L 151.150658 124.491029 
L 150.089998 125.551689 
L 151.150658 126.61235 
L 150.089998 127.67301 
z
" clip-path="url(#pc0c1eb5831)" style="fill: #1965b0; fill-opacity: 0.6; stroke: #ffffff; stroke-opacity: 0.6; stroke-width: 0.339411"/>
    <path d="M 150.066407 139.693118 
L 151.127067 138.632458 
L 152.187727 139.693118 
L 153.248388 138.632458 
L 152.187727 137.571798 
L 153.248388 136.511138 
L 152.187727 135.450478 
L 151.127067 136.511138 
L 150.066407 135.450478 
L 149.005747 136.511138 
L 150.066407 137.571798 
L 149.005747 138.632458 
z
" clip-path="url(#pc0c1eb5831)" style="fill: #1965b0; fill-opacity: 0.6; stroke: #ffffff; stroke-opacity: 0.6; stroke-width: 0.339411"/>
    <path d="M 147.625686 140.80834 
L 148.686346 139.747679 
L 149.747006 140.80834 
L 150.807667 139.747679 
L 149.747006 138.687019 
L 150.807667 137.626359 
L 149.747006 136.565699 
L 148.686346 137.626359 
L 147.625686 136.565699 
L 146.565026 137.626359 
L 147.625686 138.687019 
L 146.565026 139.747679 
z
" clip-path="url(#pc0c1eb5831)" style="fill: #1965b0; fill-opacity: 0.6; stroke: #ffffff; stroke-opacity: 0.6; stroke-width: 0.339411"/>
    <path d="M 162.827497 135.700466 
L 164.24171 135.700466 
L 164.24171 134.286252 
L 165.655924 134.286252 
L 165.655924 132.872039 
L 164.24171 132.872039 
L 164.24171 131.457825 
L 162.827497 131.457825 
L 162.827497 132.872039 
L 161.413283 132.872039 
L 161.413283 134.286252 
L 162.827497 134.286252 
z
" clip-path="url(#pc0c1eb5831)" style="fill: #7bafde; fill-opacity: 0.6; stroke: #ffffff; stroke-opacity: 0.6; stroke-width: 0.339411"/>
    <path d="M 140.152799 142.377941 
L 141.567012 142.377941 
L 141.567012 140.963727 
L 142.981226 140.963727 
L 142.981226 139.549514 
L 141.567012 139.549514 
L 141.567012 138.1353 
L 140.152799 138.1353 
L 140.152799 139.549514 
L 138.738585 139.549514 
L 138.738585 140.963727 
L 140.152799 140.963727 
z
" clip-path="url(#pc0c1eb5831)" style="fill: #7bafde; fill-opacity: 0.6; stroke: #ffffff; stroke-opacity: 0.6; stroke-width: 0.339411"/>
    <path d="M 168.99937 135.915362 
L 170.413584 135.915362 
L 170.413584 134.501149 
L 171.827798 134.501149 
L 171.827798 133.086935 
L 170.413584 133.086935 
L 170.413584 131.672721 
L 168.99937 131.672721 
L 168.99937 133.086935 
L 167.585157 133.086935 
L 167.585157 134.501149 
L 168.99937 134.501149 
z
" clip-path="url(#pc0c1eb5831)" style="fill: #7bafde; fill-opacity: 0.6; stroke: #ffffff; stroke-opacity: 0.6; stroke-width: 0.339411"/>
    <path d="M 146.794906 152.856254 
L 148.20912 152.856254 
L 148.20912 151.44204 
L 149.623333 151.44204 
L 149.623333 150.027827 
L 148.20912 150.027827 
L 148.20912 148.613613 
L 146.794906 148.613613 
L 146.794906 150.027827 
L 145.380693 150.027827 
L 145.380693 151.44204 
L 146.794906 151.44204 
z
" clip-path="url(#pc0c1eb5831)" style="fill: #7bafde; fill-opacity: 0.6; stroke: #ffffff; stroke-opacity: 0.6; stroke-width: 0.339411"/>
    <path d="M 197.090186 130.705495 
L 198.5044 130.705495 
L 198.5044 129.291282 
L 199.918613 129.291282 
L 199.918613 127.877068 
L 198.5044 127.877068 
L 198.5044 126.462855 
L 197.090186 126.462855 
L 197.090186 127.877068 
L 195.675973 127.877068 
L 195.675973 129.291282 
L 197.090186 129.291282 
z
" clip-path="url(#pc0c1eb5831)" style="fill: #7bafde; fill-opacity: 0.6; stroke: #ffffff; stroke-opacity: 0.6; stroke-width: 0.339411"/>
    <path d="M 200.182895 121.054681 
L 201.597109 121.054681 
L 201.597109 119.640467 
L 203.011322 119.640467 
L 203.011322 118.226254 
L 201.597109 118.226254 
L 201.597109 116.81204 
L 200.182895 116.81204 
L 200.182895 118.226254 
L 198.768682 118.226254 
L 198.768682 119.640467 
L 200.182895 119.640467 
z
" clip-path="url(#pc0c1eb5831)" style="fill: #7bafde; fill-opacity: 0.6; stroke: #ffffff; stroke-opacity: 0.6; stroke-width: 0.339411"/>
    <path d="M 180.106763 124.167698 
L 181.520976 124.167698 
L 181.520976 122.753485 
L 182.93519 122.753485 
L 182.93519 121.339271 
L 181.520976 121.339271 
L 181.520976 119.925058 
L 180.106763 119.925058 
L 180.106763 121.339271 
L 178.692549 121.339271 
L 178.692549 122.753485 
L 180.106763 122.753485 
z
" clip-path="url(#pc0c1eb5831)" style="fill: #7bafde; fill-opacity: 0.6; stroke: #ffffff; stroke-opacity: 0.6; stroke-width: 0.339411"/>
    <path d="M 187.862962 135.31688 
L 189.277175 135.31688 
L 189.277175 133.902667 
L 190.691389 133.902667 
L 190.691389 132.488453 
L 189.277175 132.488453 
L 189.277175 131.07424 
L 187.862962 131.07424 
L 187.862962 132.488453 
L 186.448748 132.488453 
L 186.448748 133.902667 
L 187.862962 133.902667 
z
" clip-path="url(#pc0c1eb5831)" style="fill: #7bafde; fill-opacity: 0.6; stroke: #ffffff; stroke-opacity: 0.6; stroke-width: 0.339411"/>
    <path d="M 205.742329 115.28478 
L 207.156542 115.28478 
L 207.156542 113.870567 
L 208.570756 113.870567 
L 208.570756 112.456353 
L 207.156542 112.456353 
L 207.156542 111.04214 
L 205.742329 111.04214 
L 205.742329 112.456353 
L 204.328115 112.456353 
L 204.328115 113.870567 
L 205.742329 113.870567 
z
" clip-path="url(#pc0c1eb5831)" style="fill: #7bafde; fill-opacity: 0.6; stroke: #ffffff; stroke-opacity: 0.6; stroke-width: 0.339411"/>
    <path d="M 134.755624 151.259379 
L 136.169837 151.259379 
L 136.169837 149.845165 
L 137.584051 149.845165 
L 137.584051 148.430951 
L 136.169837 148.430951 
L 136.169837 147.016738 
L 134.755624 147.016738 
L 134.755624 148.430951 
L 133.34141 148.430951 
L 133.34141 149.845165 
L 134.755624 149.845165 
z
" clip-path="url(#pc0c1eb5831)" style="fill: #7bafde; fill-opacity: 0.6; stroke: #ffffff; stroke-opacity: 0.6; stroke-width: 0.339411"/>
    <path d="M 194.917837 105.928236 
L 196.332051 105.928236 
L 196.332051 104.514022 
L 197.746264 104.514022 
L 197.746264 103.099809 
L 196.332051 103.099809 
L 196.332051 101.685595 
L 194.917837 101.685595 
L 194.917837 103.099809 
L 193.503624 103.099809 
L 193.503624 104.514022 
L 194.917837 104.514022 
z
" clip-path="url(#pc0c1eb5831)" style="fill: #7bafde; fill-opacity: 0.6; stroke: #ffffff; stroke-opacity: 0.6; stroke-width: 0.339411"/>
    <path d="M 210.001864 118.063048 
L 211.416078 118.063048 
L 211.416078 116.648835 
L 212.830292 116.648835 
L 212.830292 115.234621 
L 211.416078 115.234621 
L 211.416078 113.820407 
L 210.001864 113.820407 
L 210.001864 115.234621 
L 208.587651 115.234621 
L 208.587651 116.648835 
L 210.001864 116.648835 
z
" clip-path="url(#pc0c1eb5831)" style="fill: #7bafde; fill-opacity: 0.6; stroke: #ffffff; stroke-opacity: 0.6; stroke-width: 0.339411"/>
    <path d="M 149.033801 137.541593 
L 150.448014 137.541593 
L 150.448014 136.127379 
L 151.862228 136.127379 
L 151.862228 134.713166 
L 150.448014 134.713166 
L 150.448014 133.298952 
L 149.033801 133.298952 
L 149.033801 134.713166 
L 147.619587 134.713166 
L 147.619587 136.127379 
L 149.033801 136.127379 
z
" clip-path="url(#pc0c1eb5831)" style="fill: #7bafde; fill-opacity: 0.6; stroke: #ffffff; stroke-opacity: 0.6; stroke-width: 0.339411"/>
    <path d="M 113.802822 170.387204 
L 115.217035 170.387204 
L 115.217035 168.97299 
L 116.631249 168.97299 
L 116.631249 167.558777 
L 115.217035 167.558777 
L 115.217035 166.144563 
L 113.802822 166.144563 
L 113.802822 167.558777 
L 112.388608 167.558777 
L 112.388608 168.97299 
L 113.802822 168.97299 
z
" clip-path="url(#pc0c1eb5831)" style="fill: #7bafde; fill-opacity: 0.6; stroke: #ffffff; stroke-opacity: 0.6; stroke-width: 0.339411"/>
    <path d="M 182.204817 111.385242 
L 183.61903 111.385242 
L 183.61903 109.971028 
L 185.033244 109.971028 
L 185.033244 108.556815 
L 183.61903 108.556815 
L 183.61903 107.142601 
L 182.204817 107.142601 
L 182.204817 108.556815 
L 180.790603 108.556815 
L 180.790603 109.971028 
L 182.204817 109.971028 
z
" clip-path="url(#pc0c1eb5831)" style="fill: #7bafde; fill-opacity: 0.6; stroke: #ffffff; stroke-opacity: 0.6; stroke-width: 0.339411"/>
    <path d="M 132.611051 142.862152 
L 134.025265 142.862152 
L 134.025265 141.447938 
L 135.439478 141.447938 
L 135.439478 140.033725 
L 134.025265 140.033725 
L 134.025265 138.619511 
L 132.611051 138.619511 
L 132.611051 140.033725 
L 131.196838 140.033725 
L 131.196838 141.447938 
L 132.611051 141.447938 
z
" clip-path="url(#pc0c1eb5831)" style="fill: #7bafde; fill-opacity: 0.6; stroke: #ffffff; stroke-opacity: 0.6; stroke-width: 0.339411"/>
    <path d="M 210.249757 119.803666 
L 211.663971 119.803666 
L 211.663971 118.389453 
L 213.078184 118.389453 
L 213.078184 116.975239 
L 211.663971 116.975239 
L 211.663971 115.561026 
L 210.249757 115.561026 
L 210.249757 116.975239 
L 208.835544 116.975239 
L 208.835544 118.389453 
L 210.249757 118.389453 
z
" clip-path="url(#pc0c1eb5831)" style="fill: #7bafde; fill-opacity: 0.6; stroke: #ffffff; stroke-opacity: 0.6; stroke-width: 0.339411"/>
    <path d="M 136.600507 156.53885 
L 138.014721 156.53885 
L 138.014721 155.124637 
L 139.428934 155.124637 
L 139.428934 153.710423 
L 138.014721 153.710423 
L 138.014721 152.29621 
L 136.600507 152.29621 
L 136.600507 153.710423 
L 135.186294 153.710423 
L 135.186294 155.124637 
L 136.600507 155.124637 
z
" clip-path="url(#pc0c1eb5831)" style="fill: #7bafde; fill-opacity: 0.6; stroke: #ffffff; stroke-opacity: 0.6; stroke-width: 0.339411"/>
    <path d="M 193.890731 135.356981 
L 195.304944 135.356981 
L 195.304944 133.942767 
L 196.719158 133.942767 
L 196.719158 132.528553 
L 195.304944 132.528553 
L 195.304944 131.11434 
L 193.890731 131.11434 
L 193.890731 132.528553 
L 192.476517 132.528553 
L 192.476517 133.942767 
L 193.890731 133.942767 
z
" clip-path="url(#pc0c1eb5831)" style="fill: #7bafde; fill-opacity: 0.6; stroke: #ffffff; stroke-opacity: 0.6; stroke-width: 0.339411"/>
    <path d="M 145.969159 148.326467 
L 147.383373 148.326467 
L 147.383373 146.912253 
L 148.797587 146.912253 
L 148.797587 145.49804 
L 147.383373 145.49804 
L 147.383373 144.083826 
L 145.969159 144.083826 
L 145.969159 145.49804 
L 144.554946 145.49804 
L 144.554946 146.912253 
L 145.969159 146.912253 
z
" clip-path="url(#pc0c1eb5831)" style="fill: #7bafde; fill-opacity: 0.6; stroke: #ffffff; stroke-opacity: 0.6; stroke-width: 0.339411"/>
    <path d="M 199.360985 112.76868 
L 200.775199 112.76868 
L 200.775199 111.354466 
L 202.189412 111.354466 
L 202.189412 109.940253 
L 200.775199 109.940253 
L 200.775199 108.526039 
L 199.360985 108.526039 
L 199.360985 109.940253 
L 197.946771 109.940253 
L 197.946771 111.354466 
L 199.360985 111.354466 
z
" clip-path="url(#pc0c1eb5831)" style="fill: #7bafde; fill-opacity: 0.6; stroke: #ffffff; stroke-opacity: 0.6; stroke-width: 0.339411"/>
    <path d="M 164.17907 139.520065 
L 165.593284 139.520065 
L 165.593284 138.105851 
L 167.007497 138.105851 
L 167.007497 136.691638 
L 165.593284 136.691638 
L 165.593284 135.277424 
L 164.17907 135.277424 
L 164.17907 136.691638 
L 162.764857 136.691638 
L 162.764857 138.105851 
L 164.17907 138.105851 
z
" clip-path="url(#pc0c1eb5831)" style="fill: #7bafde; fill-opacity: 0.6; stroke: #ffffff; stroke-opacity: 0.6; stroke-width: 0.339411"/>
    <path d="M 169.304378 149.022923 
L 170.718591 149.022923 
L 170.718591 147.60871 
L 172.132805 147.60871 
L 172.132805 146.194496 
L 170.718591 146.194496 
L 170.718591 144.780283 
L 169.304378 144.780283 
L 169.304378 146.194496 
L 167.890164 146.194496 
L 167.890164 147.60871 
L 169.304378 147.60871 
z
" clip-path="url(#pc0c1eb5831)" style="fill: #7bafde; fill-opacity: 0.6; stroke: #ffffff; stroke-opacity: 0.6; stroke-width: 0.339411"/>
    <path d="M 164.540805 150.254187 
L 165.955019 150.254187 
L 165.955019 148.839974 
L 167.369233 148.839974 
L 167.369233 147.42576 
L 165.955019 147.42576 
L 165.955019 146.011547 
L 164.540805 146.011547 
L 164.540805 147.42576 
L 163.126592 147.42576 
L 163.126592 148.839974 
L 164.540805 148.839974 
z
" clip-path="url(#pc0c1eb5831)" style="fill: #7bafde; fill-opacity: 0.6; stroke: #ffffff; stroke-opacity: 0.6; stroke-width: 0.339411"/>
    <path d="M 193.876559 133.165069 
L 195.290773 133.165069 
L 195.290773 131.750855 
L 196.704986 131.750855 
L 196.704986 130.336642 
L 195.290773 130.336642 
L 195.290773 128.922428 
L 193.876559 128.922428 
L 193.876559 130.336642 
L 192.462345 130.336642 
L 192.462345 131.750855 
L 193.876559 131.750855 
z
" clip-path="url(#pc0c1eb5831)" style="fill: #7bafde; fill-opacity: 0.6; stroke: #ffffff; stroke-opacity: 0.6; stroke-width: 0.339411"/>
    <path d="M 170.800443 143.128048 
L 172.214656 143.128048 
L 172.214656 141.713835 
L 173.62887 141.713835 
L 173.62887 140.299621 
L 172.214656 140.299621 
L 172.214656 138.885408 
L 170.800443 138.885408 
L 170.800443 140.299621 
L 169.386229 140.299621 
L 169.386229 141.713835 
L 170.800443 141.713835 
z
" clip-path="url(#pc0c1eb5831)" style="fill: #7bafde; fill-opacity: 0.6; stroke: #ffffff; stroke-opacity: 0.6; stroke-width: 0.339411"/>
    <path d="M 182.158866 119.297626 
L 183.57308 119.297626 
L 183.57308 117.883412 
L 184.987293 117.883412 
L 184.987293 116.469199 
L 183.57308 116.469199 
L 183.57308 115.054985 
L 182.158866 115.054985 
L 182.158866 116.469199 
L 180.744653 116.469199 
L 180.744653 117.883412 
L 182.158866 117.883412 
z
" clip-path="url(#pc0c1eb5831)" style="fill: #7bafde; fill-opacity: 0.6; stroke: #ffffff; stroke-opacity: 0.6; stroke-width: 0.339411"/>
    <path d="M 198.004821 97.424145 
L 199.419035 97.424145 
L 199.419035 96.009931 
L 200.833248 96.009931 
L 200.833248 94.595718 
L 199.419035 94.595718 
L 199.419035 93.181504 
L 198.004821 93.181504 
L 198.004821 94.595718 
L 196.590608 94.595718 
L 196.590608 96.009931 
L 198.004821 96.009931 
z
" clip-path="url(#pc0c1eb5831)" style="fill: #7bafde; fill-opacity: 0.6; stroke: #ffffff; stroke-opacity: 0.6; stroke-width: 0.339411"/>
    <path d="M 149.864881 152.290503 
L 151.279094 152.290503 
L 151.279094 150.87629 
L 152.693308 150.87629 
L 152.693308 149.462076 
L 151.279094 149.462076 
L 151.279094 148.047862 
L 149.864881 148.047862 
L 149.864881 149.462076 
L 148.450667 149.462076 
L 148.450667 150.87629 
L 149.864881 150.87629 
z
" clip-path="url(#pc0c1eb5831)" style="fill: #7bafde; fill-opacity: 0.6; stroke: #ffffff; stroke-opacity: 0.6; stroke-width: 0.339411"/>
    <path d="M 139.787669 148.51068 
L 141.201882 148.51068 
L 141.201882 147.096466 
L 142.616096 147.096466 
L 142.616096 145.682253 
L 141.201882 145.682253 
L 141.201882 144.268039 
L 139.787669 144.268039 
L 139.787669 145.682253 
L 138.373455 145.682253 
L 138.373455 147.096466 
L 139.787669 147.096466 
z
" clip-path="url(#pc0c1eb5831)" style="fill: #7bafde; fill-opacity: 0.6; stroke: #ffffff; stroke-opacity: 0.6; stroke-width: 0.339411"/>
    <path d="M 166.32305 139.371565 
L 167.737264 139.371565 
L 167.737264 137.957352 
L 169.151477 137.957352 
L 169.151477 136.543138 
L 167.737264 136.543138 
L 167.737264 135.128924 
L 166.32305 135.128924 
L 166.32305 136.543138 
L 164.908837 136.543138 
L 164.908837 137.957352 
L 166.32305 137.957352 
z
" clip-path="url(#pc0c1eb5831)" style="fill: #7bafde; fill-opacity: 0.6; stroke: #ffffff; stroke-opacity: 0.6; stroke-width: 0.339411"/>
    <path d="M 208.527354 104.276009 
L 209.941567 104.276009 
L 209.941567 102.861795 
L 211.355781 102.861795 
L 211.355781 101.447582 
L 209.941567 101.447582 
L 209.941567 100.033368 
L 208.527354 100.033368 
L 208.527354 101.447582 
L 207.11314 101.447582 
L 207.11314 102.861795 
L 208.527354 102.861795 
z
" clip-path="url(#pc0c1eb5831)" style="fill: #7bafde; fill-opacity: 0.6; stroke: #ffffff; stroke-opacity: 0.6; stroke-width: 0.339411"/>
    <path d="M 192.089754 105.787923 
L 193.503968 105.787923 
L 193.503968 104.373709 
L 194.918181 104.373709 
L 194.918181 102.959496 
L 193.503968 102.959496 
L 193.503968 101.545282 
L 192.089754 101.545282 
L 192.089754 102.959496 
L 190.675541 102.959496 
L 190.675541 104.373709 
L 192.089754 104.373709 
z
" clip-path="url(#pc0c1eb5831)" style="fill: #7bafde; fill-opacity: 0.6; stroke: #ffffff; stroke-opacity: 0.6; stroke-width: 0.339411"/>
    <path d="M 142.293333 152.834398 
L 143.707547 152.834398 
L 143.707547 151.420184 
L 145.121761 151.420184 
L 145.121761 150.005971 
L 143.707547 150.005971 
L 143.707547 148.591757 
L 142.293333 148.591757 
L 142.293333 150.005971 
L 140.87912 150.005971 
L 140.87912 151.420184 
L 142.293333 151.420184 
z
" clip-path="url(#pc0c1eb5831)" style="fill: #7bafde; fill-opacity: 0.6; stroke: #ffffff; stroke-opacity: 0.6; stroke-width: 0.339411"/>
    <path d="M 163.862352 115.101143 
L 165.276565 115.101143 
L 165.276565 113.68693 
L 166.690779 113.68693 
L 166.690779 112.272716 
L 165.276565 112.272716 
L 165.276565 110.858502 
L 163.862352 110.858502 
L 163.862352 112.272716 
L 162.448138 112.272716 
L 162.448138 113.68693 
L 163.862352 113.68693 
z
" clip-path="url(#pc0c1eb5831)" style="fill: #7bafde; fill-opacity: 0.6; stroke: #ffffff; stroke-opacity: 0.6; stroke-width: 0.339411"/>
    <path d="M 197.723442 117.583428 
L 199.137656 117.583428 
L 199.137656 116.169215 
L 200.551869 116.169215 
L 200.551869 114.755001 
L 199.137656 114.755001 
L 199.137656 113.340788 
L 197.723442 113.340788 
L 197.723442 114.755001 
L 196.309229 114.755001 
L 196.309229 116.169215 
L 197.723442 116.169215 
z
" clip-path="url(#pc0c1eb5831)" style="fill: #7bafde; fill-opacity: 0.6; stroke: #ffffff; stroke-opacity: 0.6; stroke-width: 0.339411"/>
    <path d="M 202.741963 98.392088 
L 204.156177 98.392088 
L 204.156177 96.977874 
L 205.57039 96.977874 
L 205.57039 95.563661 
L 204.156177 95.563661 
L 204.156177 94.149447 
L 202.741963 94.149447 
L 202.741963 95.563661 
L 201.32775 95.563661 
L 201.32775 96.977874 
L 202.741963 96.977874 
z
" clip-path="url(#pc0c1eb5831)" style="fill: #7bafde; fill-opacity: 0.6; stroke: #ffffff; stroke-opacity: 0.6; stroke-width: 0.339411"/>
    <path d="M 133.811183 141.7936 
L 135.225397 141.7936 
L 135.225397 140.379386 
L 136.63961 140.379386 
L 136.63961 138.965172 
L 135.225397 138.965172 
L 135.225397 137.550959 
L 133.811183 137.550959 
L 133.811183 138.965172 
L 132.39697 138.965172 
L 132.39697 140.379386 
L 133.811183 140.379386 
z
" clip-path="url(#pc0c1eb5831)" style="fill: #7bafde; fill-opacity: 0.6; stroke: #ffffff; stroke-opacity: 0.6; stroke-width: 0.339411"/>
    <path d="M 173.781433 128.109576 
L 175.195647 128.109576 
L 175.195647 126.695363 
L 176.609861 126.695363 
L 176.609861 125.281149 
L 175.195647 125.281149 
L 175.195647 123.866936 
L 173.781433 123.866936 
L 173.781433 125.281149 
L 172.36722 125.281149 
L 172.36722 126.695363 
L 173.781433 126.695363 
z
" clip-path="url(#pc0c1eb5831)" style="fill: #7bafde; fill-opacity: 0.6; stroke: #ffffff; stroke-opacity: 0.6; stroke-width: 0.339411"/>
    <path d="M 186.107715 106.048843 
L 187.521928 106.048843 
L 187.521928 104.634629 
L 188.936142 104.634629 
L 188.936142 103.220415 
L 187.521928 103.220415 
L 187.521928 101.806202 
L 186.107715 101.806202 
L 186.107715 103.220415 
L 184.693501 103.220415 
L 184.693501 104.634629 
L 186.107715 104.634629 
z
" clip-path="url(#pc0c1eb5831)" style="fill: #7bafde; fill-opacity: 0.6; stroke: #ffffff; stroke-opacity: 0.6; stroke-width: 0.339411"/>
    <path d="M 158.980789 152.083779 
L 160.395003 152.083779 
L 160.395003 150.669565 
L 161.809216 150.669565 
L 161.809216 149.255352 
L 160.395003 149.255352 
L 160.395003 147.841138 
L 158.980789 147.841138 
L 158.980789 149.255352 
L 157.566576 149.255352 
L 157.566576 150.669565 
L 158.980789 150.669565 
z
" clip-path="url(#pc0c1eb5831)" style="fill: #7bafde; fill-opacity: 0.6; stroke: #ffffff; stroke-opacity: 0.6; stroke-width: 0.339411"/>
    <path d="M 188.232687 106.979031 
L 189.6469 106.979031 
L 189.6469 105.564817 
L 191.061114 105.564817 
L 191.061114 104.150604 
L 189.6469 104.150604 
L 189.6469 102.73639 
L 188.232687 102.73639 
L 188.232687 104.150604 
L 186.818473 104.150604 
L 186.818473 105.564817 
L 188.232687 105.564817 
z
" clip-path="url(#pc0c1eb5831)" style="fill: #7bafde; fill-opacity: 0.6; stroke: #ffffff; stroke-opacity: 0.6; stroke-width: 0.339411"/>
    <path d="M 187.70696 115.266109 
L 189.121174 115.266109 
L 189.121174 113.851895 
L 190.535387 113.851895 
L 190.535387 112.437682 
L 189.121174 112.437682 
L 189.121174 111.023468 
L 187.70696 111.023468 
L 187.70696 112.437682 
L 186.292747 112.437682 
L 186.292747 113.851895 
L 187.70696 113.851895 
z
" clip-path="url(#pc0c1eb5831)" style="fill: #7bafde; fill-opacity: 0.6; stroke: #ffffff; stroke-opacity: 0.6; stroke-width: 0.339411"/>
    <path d="M 164.673274 137.851426 
L 166.087488 137.851426 
L 166.087488 136.437213 
L 167.501701 136.437213 
L 167.501701 135.022999 
L 166.087488 135.022999 
L 166.087488 133.608786 
L 164.673274 133.608786 
L 164.673274 135.022999 
L 163.25906 135.022999 
L 163.25906 136.437213 
L 164.673274 136.437213 
z
" clip-path="url(#pc0c1eb5831)" style="fill: #7bafde; fill-opacity: 0.6; stroke: #ffffff; stroke-opacity: 0.6; stroke-width: 0.339411"/>
    <path d="M 140.702058 138.350049 
L 142.116271 138.350049 
L 142.116271 136.935836 
L 143.530485 136.935836 
L 143.530485 135.521622 
L 142.116271 135.521622 
L 142.116271 134.107409 
L 140.702058 134.107409 
L 140.702058 135.521622 
L 139.287844 135.521622 
L 139.287844 136.935836 
L 140.702058 136.935836 
z
" clip-path="url(#pc0c1eb5831)" style="fill: #7bafde; fill-opacity: 0.6; stroke: #ffffff; stroke-opacity: 0.6; stroke-width: 0.339411"/>
    <path d="M 142.897467 143.876375 
L 144.311681 143.876375 
L 144.311681 142.462161 
L 145.725894 142.462161 
L 145.725894 141.047947 
L 144.311681 141.047947 
L 144.311681 139.633734 
L 142.897467 139.633734 
L 142.897467 141.047947 
L 141.483254 141.047947 
L 141.483254 142.462161 
L 142.897467 142.462161 
z
" clip-path="url(#pc0c1eb5831)" style="fill: #7bafde; fill-opacity: 0.6; stroke: #ffffff; stroke-opacity: 0.6; stroke-width: 0.339411"/>
    <path d="M 133.857019 134.545273 
L 135.271232 134.545273 
L 135.271232 133.131059 
L 136.685446 133.131059 
L 136.685446 131.716845 
L 135.271232 131.716845 
L 135.271232 130.302632 
L 133.857019 130.302632 
L 133.857019 131.716845 
L 132.442805 131.716845 
L 132.442805 133.131059 
L 133.857019 133.131059 
z
" clip-path="url(#pc0c1eb5831)" style="fill: #7bafde; fill-opacity: 0.6; stroke: #ffffff; stroke-opacity: 0.6; stroke-width: 0.339411"/>
    <path d="M 158.996649 148.033761 
L 160.410862 148.033761 
L 160.410862 146.619547 
L 161.825076 146.619547 
L 161.825076 145.205334 
L 160.410862 145.205334 
L 160.410862 143.79112 
L 158.996649 143.79112 
L 158.996649 145.205334 
L 157.582435 145.205334 
L 157.582435 146.619547 
L 158.996649 146.619547 
z
" clip-path="url(#pc0c1eb5831)" style="fill: #7bafde; fill-opacity: 0.6; stroke: #ffffff; stroke-opacity: 0.6; stroke-width: 0.339411"/>
    <path d="M 140.043587 154.564377 
L 141.4578 154.564377 
L 141.4578 153.150164 
L 142.872014 153.150164 
L 142.872014 151.73595 
L 141.4578 151.73595 
L 141.4578 150.321737 
L 140.043587 150.321737 
L 140.043587 151.73595 
L 138.629373 151.73595 
L 138.629373 153.150164 
L 140.043587 153.150164 
z
" clip-path="url(#pc0c1eb5831)" style="fill: #7bafde; fill-opacity: 0.6; stroke: #ffffff; stroke-opacity: 0.6; stroke-width: 0.339411"/>
    <path d="M 130.932449 148.537451 
L 132.346663 148.537451 
L 132.346663 147.123238 
L 133.760876 147.123238 
L 133.760876 145.709024 
L 132.346663 145.709024 
L 132.346663 144.29481 
L 130.932449 144.29481 
L 130.932449 145.709024 
L 129.518235 145.709024 
L 129.518235 147.123238 
L 130.932449 147.123238 
z
" clip-path="url(#pc0c1eb5831)" style="fill: #7bafde; fill-opacity: 0.6; stroke: #ffffff; stroke-opacity: 0.6; stroke-width: 0.339411"/>
    <path d="M 192.007987 121.589911 
L 193.422201 121.589911 
L 193.422201 120.175697 
L 194.836414 120.175697 
L 194.836414 118.761484 
L 193.422201 118.761484 
L 193.422201 117.34727 
L 192.007987 117.34727 
L 192.007987 118.761484 
L 190.593774 118.761484 
L 190.593774 120.175697 
L 192.007987 120.175697 
z
" clip-path="url(#pc0c1eb5831)" style="fill: #7bafde; fill-opacity: 0.6; stroke: #ffffff; stroke-opacity: 0.6; stroke-width: 0.339411"/>
    <path d="M 168.165237 125.951618 
L 169.57945 125.951618 
L 169.57945 124.537404 
L 170.993664 124.537404 
L 170.993664 123.123191 
L 169.57945 123.123191 
L 169.57945 121.708977 
L 168.165237 121.708977 
L 168.165237 123.123191 
L 166.751023 123.123191 
L 166.751023 124.537404 
L 168.165237 124.537404 
z
" clip-path="url(#pc0c1eb5831)" style="fill: #7bafde; fill-opacity: 0.6; stroke: #ffffff; stroke-opacity: 0.6; stroke-width: 0.339411"/>
    <path d="M 176.718372 117.461614 
L 178.132586 117.461614 
L 178.132586 116.0474 
L 179.546799 116.0474 
L 179.546799 114.633186 
L 178.132586 114.633186 
L 178.132586 113.218973 
L 176.718372 113.218973 
L 176.718372 114.633186 
L 175.304158 114.633186 
L 175.304158 116.0474 
L 176.718372 116.0474 
z
" clip-path="url(#pc0c1eb5831)" style="fill: #7bafde; fill-opacity: 0.6; stroke: #ffffff; stroke-opacity: 0.6; stroke-width: 0.339411"/>
    <path d="M 204.407749 104.39421 
L 205.821963 104.39421 
L 205.821963 102.979997 
L 207.236176 102.979997 
L 207.236176 101.565783 
L 205.821963 101.565783 
L 205.821963 100.151569 
L 204.407749 100.151569 
L 204.407749 101.565783 
L 202.993536 101.565783 
L 202.993536 102.979997 
L 204.407749 102.979997 
z
" clip-path="url(#pc0c1eb5831)" style="fill: #7bafde; fill-opacity: 0.6; stroke: #ffffff; stroke-opacity: 0.6; stroke-width: 0.339411"/>
    <path d="M 194.74437 101.185856 
L 196.158583 101.185856 
L 196.158583 99.771643 
L 197.572797 99.771643 
L 197.572797 98.357429 
L 196.158583 98.357429 
L 196.158583 96.943215 
L 194.74437 96.943215 
L 194.74437 98.357429 
L 193.330156 98.357429 
L 193.330156 99.771643 
L 194.74437 99.771643 
z
" clip-path="url(#pc0c1eb5831)" style="fill: #7bafde; fill-opacity: 0.6; stroke: #ffffff; stroke-opacity: 0.6; stroke-width: 0.339411"/>
    <path d="M 196.130524 100.542355 
L 197.544738 100.542355 
L 197.544738 99.128142 
L 198.958951 99.128142 
L 198.958951 97.713928 
L 197.544738 97.713928 
L 197.544738 96.299715 
L 196.130524 96.299715 
L 196.130524 97.713928 
L 194.716311 97.713928 
L 194.716311 99.128142 
L 196.130524 99.128142 
z
" clip-path="url(#pc0c1eb5831)" style="fill: #7bafde; fill-opacity: 0.6; stroke: #ffffff; stroke-opacity: 0.6; stroke-width: 0.339411"/>
    <path d="M 197.686059 129.468422 
L 199.100272 129.468422 
L 199.100272 128.054208 
L 200.514486 128.054208 
L 200.514486 126.639995 
L 199.100272 126.639995 
L 199.100272 125.225781 
L 197.686059 125.225781 
L 197.686059 126.639995 
L 196.271845 126.639995 
L 196.271845 128.054208 
L 197.686059 128.054208 
z
" clip-path="url(#pc0c1eb5831)" style="fill: #7bafde; fill-opacity: 0.6; stroke: #ffffff; stroke-opacity: 0.6; stroke-width: 0.339411"/>
    <path d="M 158.691656 150.769599 
L 160.10587 150.769599 
L 160.10587 149.355385 
L 161.520083 149.355385 
L 161.520083 147.941171 
L 160.10587 147.941171 
L 160.10587 146.526958 
L 158.691656 146.526958 
L 158.691656 147.941171 
L 157.277443 147.941171 
L 157.277443 149.355385 
L 158.691656 149.355385 
z
" clip-path="url(#pc0c1eb5831)" style="fill: #7bafde; fill-opacity: 0.6; stroke: #ffffff; stroke-opacity: 0.6; stroke-width: 0.339411"/>
    <path d="M 131.889178 154.131872 
L 133.303392 154.131872 
L 133.303392 152.717658 
L 134.717605 152.717658 
L 134.717605 151.303444 
L 133.303392 151.303444 
L 133.303392 149.889231 
L 131.889178 149.889231 
L 131.889178 151.303444 
L 130.474964 151.303444 
L 130.474964 152.717658 
L 131.889178 152.717658 
z
" clip-path="url(#pc0c1eb5831)" style="fill: #7bafde; fill-opacity: 0.6; stroke: #ffffff; stroke-opacity: 0.6; stroke-width: 0.339411"/>
    <path d="M 138.713175 152.144959 
L 140.127389 152.144959 
L 140.127389 150.730745 
L 141.541602 150.730745 
L 141.541602 149.316532 
L 140.127389 149.316532 
L 140.127389 147.902318 
L 138.713175 147.902318 
L 138.713175 149.316532 
L 137.298962 149.316532 
L 137.298962 150.730745 
L 138.713175 150.730745 
z
" clip-path="url(#pc0c1eb5831)" style="fill: #7bafde; fill-opacity: 0.6; stroke: #ffffff; stroke-opacity: 0.6; stroke-width: 0.339411"/>
    <path d="M 208.564707 102.502407 
L 209.97892 102.502407 
L 209.97892 101.088193 
L 211.393134 101.088193 
L 211.393134 99.67398 
L 209.97892 99.67398 
L 209.97892 98.259766 
L 208.564707 98.259766 
L 208.564707 99.67398 
L 207.150493 99.67398 
L 207.150493 101.088193 
L 208.564707 101.088193 
z
" clip-path="url(#pc0c1eb5831)" style="fill: #7bafde; fill-opacity: 0.6; stroke: #ffffff; stroke-opacity: 0.6; stroke-width: 0.339411"/>
    <path d="M 193.479093 103.27363 
L 194.893306 103.27363 
L 194.893306 101.859417 
L 196.30752 101.859417 
L 196.30752 100.445203 
L 194.893306 100.445203 
L 194.893306 99.03099 
L 193.479093 99.03099 
L 193.479093 100.445203 
L 192.064879 100.445203 
L 192.064879 101.859417 
L 193.479093 101.859417 
z
" clip-path="url(#pc0c1eb5831)" style="fill: #7bafde; fill-opacity: 0.6; stroke: #ffffff; stroke-opacity: 0.6; stroke-width: 0.339411"/>
    <path d="M 151.311234 167.439869 
L 152.725447 167.439869 
L 152.725447 166.025655 
L 154.139661 166.025655 
L 154.139661 164.611442 
L 152.725447 164.611442 
L 152.725447 163.197228 
L 151.311234 163.197228 
L 151.311234 164.611442 
L 149.89702 164.611442 
L 149.89702 166.025655 
L 151.311234 166.025655 
z
" clip-path="url(#pc0c1eb5831)" style="fill: #7bafde; fill-opacity: 0.6; stroke: #ffffff; stroke-opacity: 0.6; stroke-width: 0.339411"/>
    <path d="M 187.564868 121.991562 
L 189.364868 118.991562 
L 187.564868 115.991562 
L 185.764868 118.991562 
z
" clip-path="url(#pc0c1eb5831)" style="fill: #4eb265; fill-opacity: 0.6; stroke: #ffffff; stroke-opacity: 0.6; stroke-width: 0.339411"/>
    <path d="M 191.900486 139.059598 
L 193.700486 136.059598 
L 191.900486 133.059598 
L 190.100486 136.059598 
z
" clip-path="url(#pc0c1eb5831)" style="fill: #4eb265; fill-opacity: 0.6; stroke: #ffffff; stroke-opacity: 0.6; stroke-width: 0.339411"/>
    <path d="M 185.439283 98.726169 
L 187.239283 95.726169 
L 185.439283 92.726169 
L 183.639283 95.726169 
z
" clip-path="url(#pc0c1eb5831)" style="fill: #4eb265; fill-opacity: 0.6; stroke: #ffffff; stroke-opacity: 0.6; stroke-width: 0.339411"/>
    <path d="M 170.060152 117.214436 
L 171.860152 114.214436 
L 170.060152 111.214436 
L 168.260152 114.214436 
z
" clip-path="url(#pc0c1eb5831)" style="fill: #4eb265; fill-opacity: 0.6; stroke: #ffffff; stroke-opacity: 0.6; stroke-width: 0.339411"/>
    <path d="M 165.074319 109.628641 
L 166.874319 106.628641 
L 165.074319 103.628641 
L 163.274319 106.628641 
z
" clip-path="url(#pc0c1eb5831)" style="fill: #4eb265; fill-opacity: 0.6; stroke: #ffffff; stroke-opacity: 0.6; stroke-width: 0.339411"/>
    <path d="M 182.847342 112.892969 
L 184.647342 109.892969 
L 182.847342 106.892969 
L 181.047342 109.892969 
z
" clip-path="url(#pc0c1eb5831)" style="fill: #4eb265; fill-opacity: 0.6; stroke: #ffffff; stroke-opacity: 0.6; stroke-width: 0.339411"/>
    <path d="M 188.578073 130.241287 
L 190.378073 127.241287 
L 188.578073 124.241287 
L 186.778073 127.241287 
z
" clip-path="url(#pc0c1eb5831)" style="fill: #4eb265; fill-opacity: 0.6; stroke: #ffffff; stroke-opacity: 0.6; stroke-width: 0.339411"/>
    <path d="M 187.64789 110.193192 
L 189.44789 107.193192 
L 187.64789 104.193192 
L 185.84789 107.193192 
z
" clip-path="url(#pc0c1eb5831)" style="fill: #4eb265; fill-opacity: 0.6; stroke: #ffffff; stroke-opacity: 0.6; stroke-width: 0.339411"/>
    <path d="M 201.20543 126.980135 
L 203.00543 123.980135 
L 201.20543 120.980135 
L 199.40543 123.980135 
z
" clip-path="url(#pc0c1eb5831)" style="fill: #4eb265; fill-opacity: 0.6; stroke: #ffffff; stroke-opacity: 0.6; stroke-width: 0.339411"/>
    <path d="M 163.750697 101.883636 
L 165.550697 98.883636 
L 163.750697 95.883636 
L 161.950697 98.883636 
z
" clip-path="url(#pc0c1eb5831)" style="fill: #4eb265; fill-opacity: 0.6; stroke: #ffffff; stroke-opacity: 0.6; stroke-width: 0.339411"/>
    <path d="M 178.782135 105.260486 
L 180.582135 102.260486 
L 178.782135 99.260486 
L 176.982135 102.260486 
z
" clip-path="url(#pc0c1eb5831)" style="fill: #4eb265; fill-opacity: 0.6; stroke: #ffffff; stroke-opacity: 0.6; stroke-width: 0.339411"/>
    <path d="M 205.259498 119.916119 
L 207.059498 116.916119 
L 205.259498 113.916119 
L 203.459498 116.916119 
z
" clip-path="url(#pc0c1eb5831)" style="fill: #4eb265; fill-opacity: 0.6; stroke: #ffffff; stroke-opacity: 0.6; stroke-width: 0.339411"/>
    <path d="M 202.090014 101.516813 
L 203.890014 98.516813 
L 202.090014 95.516813 
L 200.290014 98.516813 
z
" clip-path="url(#pc0c1eb5831)" style="fill: #4eb265; fill-opacity: 0.6; stroke: #ffffff; stroke-opacity: 0.6; stroke-width: 0.339411"/>
    <path d="M 187.02049 110.866844 
L 188.82049 107.866844 
L 187.02049 104.866844 
L 185.22049 107.866844 
z
" clip-path="url(#pc0c1eb5831)" style="fill: #4eb265; fill-opacity: 0.6; stroke: #ffffff; stroke-opacity: 0.6; stroke-width: 0.339411"/>
    <path d="M 192.70272 96.097361 
L 194.50272 93.097361 
L 192.70272 90.097361 
L 190.90272 93.097361 
z
" clip-path="url(#pc0c1eb5831)" style="fill: #4eb265; fill-opacity: 0.6; stroke: #ffffff; stroke-opacity: 0.6; stroke-width: 0.339411"/>
    <path d="M 197.843625 139.640098 
L 199.643625 136.640098 
L 197.843625 133.640098 
L 196.043625 136.640098 
z
" clip-path="url(#pc0c1eb5831)" style="fill: #4eb265; fill-opacity: 0.6; stroke: #ffffff; stroke-opacity: 0.6; stroke-width: 0.339411"/>
    <path d="M 209.944813 126.222975 
L 211.744813 123.222975 
L 209.944813 120.222975 
L 208.144813 123.222975 
z
" clip-path="url(#pc0c1eb5831)" style="fill: #4eb265; fill-opacity: 0.6; stroke: #ffffff; stroke-opacity: 0.6; stroke-width: 0.339411"/>
    <path d="M 213.225252 114.324296 
L 215.025252 111.324296 
L 213.225252 108.324296 
L 211.425252 111.324296 
z
" clip-path="url(#pc0c1eb5831)" style="fill: #4eb265; fill-opacity: 0.6; stroke: #ffffff; stroke-opacity: 0.6; stroke-width: 0.339411"/>
    <path d="M 200.909467 117.267367 
L 202.709467 114.267367 
L 200.909467 111.267367 
L 199.109467 114.267367 
z
" clip-path="url(#pc0c1eb5831)" style="fill: #4eb265; fill-opacity: 0.6; stroke: #ffffff; stroke-opacity: 0.6; stroke-width: 0.339411"/>
    <path d="M 170.279947 126.148931 
L 172.079947 123.148931 
L 170.279947 120.148931 
L 168.479947 123.148931 
z
" clip-path="url(#pc0c1eb5831)" style="fill: #4eb265; fill-opacity: 0.6; stroke: #ffffff; stroke-opacity: 0.6; stroke-width: 0.339411"/>
    <path d="M 157.550299 118.369205 
L 159.350299 115.369205 
L 157.550299 112.369205 
L 155.750299 115.369205 
z
" clip-path="url(#pc0c1eb5831)" style="fill: #4eb265; fill-opacity: 0.6; stroke: #ffffff; stroke-opacity: 0.6; stroke-width: 0.339411"/>
    <path d="M 172.784447 132.71744 
L 174.584447 129.71744 
L 172.784447 126.71744 
L 170.984447 129.71744 
z
" clip-path="url(#pc0c1eb5831)" style="fill: #4eb265; fill-opacity: 0.6; stroke: #ffffff; stroke-opacity: 0.6; stroke-width: 0.339411"/>
    <path d="M 207.783854 131.084169 
L 209.583854 128.084169 
L 207.783854 125.084169 
L 205.983854 128.084169 
z
" clip-path="url(#pc0c1eb5831)" style="fill: #4eb265; fill-opacity: 0.6; stroke: #ffffff; stroke-opacity: 0.6; stroke-width: 0.339411"/>
    <path d="M 209.044702 117.11523 
L 210.844702 114.11523 
L 209.044702 111.11523 
L 207.244702 114.11523 
z
" clip-path="url(#pc0c1eb5831)" style="fill: #4eb265; fill-opacity: 0.6; stroke: #ffffff; stroke-opacity: 0.6; stroke-width: 0.339411"/>
    <path d="M 159.24478 133.820363 
L 161.04478 130.820363 
L 159.24478 127.820363 
L 157.44478 130.820363 
z
" clip-path="url(#pc0c1eb5831)" style="fill: #4eb265; fill-opacity: 0.6; stroke: #ffffff; stroke-opacity: 0.6; stroke-width: 0.339411"/>
    <path d="M 178.791767 138.518849 
L 180.591767 135.518849 
L 178.791767 132.518849 
L 176.991767 135.518849 
z
" clip-path="url(#pc0c1eb5831)" style="fill: #4eb265; fill-opacity: 0.6; stroke: #ffffff; stroke-opacity: 0.6; stroke-width: 0.339411"/>
    <path d="M 182.195193 133.447471 
L 183.995193 130.447471 
L 182.195193 127.447471 
L 180.395193 130.447471 
z
" clip-path="url(#pc0c1eb5831)" style="fill: #4eb265; fill-opacity: 0.6; stroke: #ffffff; stroke-opacity: 0.6; stroke-width: 0.339411"/>
    <path d="M 201.268113 106.761356 
L 203.068113 103.761356 
L 201.268113 100.761356 
L 199.468113 103.761356 
z
" clip-path="url(#pc0c1eb5831)" style="fill: #4eb265; fill-opacity: 0.6; stroke: #ffffff; stroke-opacity: 0.6; stroke-width: 0.339411"/>
    <path d="M 182.635808 138.385777 
L 184.435808 135.385777 
L 182.635808 132.385777 
L 180.835808 135.385777 
z
" clip-path="url(#pc0c1eb5831)" style="fill: #4eb265; fill-opacity: 0.6; stroke: #ffffff; stroke-opacity: 0.6; stroke-width: 0.339411"/>
    <path d="M 200.810203 138.616726 
L 202.610203 135.616726 
L 200.810203 132.616726 
L 199.010203 135.616726 
z
" clip-path="url(#pc0c1eb5831)" style="fill: #4eb265; fill-opacity: 0.6; stroke: #ffffff; stroke-opacity: 0.6; stroke-width: 0.339411"/>
    <path d="M 174.507835 121.383144 
L 176.307835 118.383144 
L 174.507835 115.383144 
L 172.707835 118.383144 
z
" clip-path="url(#pc0c1eb5831)" style="fill: #4eb265; fill-opacity: 0.6; stroke: #ffffff; stroke-opacity: 0.6; stroke-width: 0.339411"/>
    <path d="M 179.605973 136.962518 
L 181.405973 133.962518 
L 179.605973 130.962518 
L 177.805973 133.962518 
z
" clip-path="url(#pc0c1eb5831)" style="fill: #4eb265; fill-opacity: 0.6; stroke: #ffffff; stroke-opacity: 0.6; stroke-width: 0.339411"/>
    <path d="M 185.355517 121.56358 
L 187.155517 118.56358 
L 185.355517 115.56358 
L 183.555517 118.56358 
z
" clip-path="url(#pc0c1eb5831)" style="fill: #4eb265; fill-opacity: 0.6; stroke: #ffffff; stroke-opacity: 0.6; stroke-width: 0.339411"/>
    <path d="M 176.564739 136.590179 
L 178.364739 133.590179 
L 176.564739 130.590179 
L 174.764739 133.590179 
z
" clip-path="url(#pc0c1eb5831)" style="fill: #4eb265; fill-opacity: 0.6; stroke: #ffffff; stroke-opacity: 0.6; stroke-width: 0.339411"/>
    <path d="M 163.098494 132.293323 
L 164.898494 129.293323 
L 163.098494 126.293323 
L 161.298494 129.293323 
z
" clip-path="url(#pc0c1eb5831)" style="fill: #4eb265; fill-opacity: 0.6; stroke: #ffffff; stroke-opacity: 0.6; stroke-width: 0.339411"/>
    <path d="M 204.137929 134.617437 
L 205.937929 131.617437 
L 204.137929 128.617437 
L 202.337929 131.617437 
z
" clip-path="url(#pc0c1eb5831)" style="fill: #4eb265; fill-opacity: 0.6; stroke: #ffffff; stroke-opacity: 0.6; stroke-width: 0.339411"/>
    <path d="M 155.588721 154.188924 
L 157.388721 151.188924 
L 155.588721 148.188924 
L 153.788721 151.188924 
z
" clip-path="url(#pc0c1eb5831)" style="fill: #4eb265; fill-opacity: 0.6; stroke: #ffffff; stroke-opacity: 0.6; stroke-width: 0.339411"/>
    <path d="M 173.058102 123.841621 
L 174.858102 120.841621 
L 173.058102 117.841621 
L 171.258102 120.841621 
z
" clip-path="url(#pc0c1eb5831)" style="fill: #4eb265; fill-opacity: 0.6; stroke: #ffffff; stroke-opacity: 0.6; stroke-width: 0.339411"/>
    <path d="M 177.609563 102.085558 
L 179.409563 99.085558 
L 177.609563 96.085558 
L 175.809563 99.085558 
z
" clip-path="url(#pc0c1eb5831)" style="fill: #4eb265; fill-opacity: 0.6; stroke: #ffffff; stroke-opacity: 0.6; stroke-width: 0.339411"/>
    <path d="M 174.405277 109.475873 
L 176.205277 106.475873 
L 174.405277 103.475873 
L 172.605277 106.475873 
z
" clip-path="url(#pc0c1eb5831)" style="fill: #4eb265; fill-opacity: 0.6; stroke: #ffffff; stroke-opacity: 0.6; stroke-width: 0.339411"/>
    <path d="M 166.506384 111.44843 
L 168.306384 108.44843 
L 166.506384 105.44843 
L 164.706384 108.44843 
z
" clip-path="url(#pc0c1eb5831)" style="fill: #4eb265; fill-opacity: 0.6; stroke: #ffffff; stroke-opacity: 0.6; stroke-width: 0.339411"/>
    <path d="M 211.783073 109.026581 
L 213.583073 106.026581 
L 211.783073 103.026581 
L 209.983073 106.026581 
z
" clip-path="url(#pc0c1eb5831)" style="fill: #4eb265; fill-opacity: 0.6; stroke: #ffffff; stroke-opacity: 0.6; stroke-width: 0.339411"/>
    <path d="M 206.805471 125.944976 
L 208.605471 122.944976 
L 206.805471 119.944976 
L 205.005471 122.944976 
z
" clip-path="url(#pc0c1eb5831)" style="fill: #4eb265; fill-opacity: 0.6; stroke: #ffffff; stroke-opacity: 0.6; stroke-width: 0.339411"/>
    <path d="M 201.977542 139.599382 
L 203.777542 136.599382 
L 201.977542 133.599382 
L 200.177542 136.599382 
z
" clip-path="url(#pc0c1eb5831)" style="fill: #4eb265; fill-opacity: 0.6; stroke: #ffffff; stroke-opacity: 0.6; stroke-width: 0.339411"/>
    <path d="M 187.994093 98.212244 
L 189.794093 95.212244 
L 187.994093 92.212244 
L 186.194093 95.212244 
z
" clip-path="url(#pc0c1eb5831)" style="fill: #4eb265; fill-opacity: 0.6; stroke: #ffffff; stroke-opacity: 0.6; stroke-width: 0.339411"/>
    <path d="M 193.654025 121.778424 
L 195.454025 118.778424 
L 193.654025 115.778424 
L 191.854025 118.778424 
z
" clip-path="url(#pc0c1eb5831)" style="fill: #4eb265; fill-opacity: 0.6; stroke: #ffffff; stroke-opacity: 0.6; stroke-width: 0.339411"/>
    <path d="M 206.647099 117.179013 
L 208.447099 114.179013 
L 206.647099 111.179013 
L 204.847099 114.179013 
z
" clip-path="url(#pc0c1eb5831)" style="fill: #4eb265; fill-opacity: 0.6; stroke: #ffffff; stroke-opacity: 0.6; stroke-width: 0.339411"/>
    <path d="M 205.512844 123.702661 
L 207.312844 120.702661 
L 205.512844 117.702661 
L 203.712844 120.702661 
z
" clip-path="url(#pc0c1eb5831)" style="fill: #4eb265; fill-opacity: 0.6; stroke: #ffffff; stroke-opacity: 0.6; stroke-width: 0.339411"/>
    <path d="M 137.959903 158.297394 
L 139.759903 155.297394 
L 137.959903 152.297394 
L 136.159903 155.297394 
z
" clip-path="url(#pc0c1eb5831)" style="fill: #4eb265; fill-opacity: 0.6; stroke: #ffffff; stroke-opacity: 0.6; stroke-width: 0.339411"/>
    <path d="M 159.870649 111.192627 
L 161.670649 108.192627 
L 159.870649 105.192627 
L 158.070649 108.192627 
z
" clip-path="url(#pc0c1eb5831)" style="fill: #4eb265; fill-opacity: 0.6; stroke: #ffffff; stroke-opacity: 0.6; stroke-width: 0.339411"/>
    <path d="M 186.610399 126.840726 
L 188.410399 123.840726 
L 186.610399 120.840726 
L 184.810399 123.840726 
z
" clip-path="url(#pc0c1eb5831)" style="fill: #4eb265; fill-opacity: 0.6; stroke: #ffffff; stroke-opacity: 0.6; stroke-width: 0.339411"/>
    <path d="M 210.96057 123.601615 
L 212.76057 120.601615 
L 210.96057 117.601615 
L 209.16057 120.601615 
z
" clip-path="url(#pc0c1eb5831)" style="fill: #4eb265; fill-opacity: 0.6; stroke: #ffffff; stroke-opacity: 0.6; stroke-width: 0.339411"/>
    <path d="M 196.621115 133.095333 
L 198.421115 130.095333 
L 196.621115 127.095333 
L 194.821115 130.095333 
z
" clip-path="url(#pc0c1eb5831)" style="fill: #4eb265; fill-opacity: 0.6; stroke: #ffffff; stroke-opacity: 0.6; stroke-width: 0.339411"/>
    <path d="M 174.012581 139.535525 
L 175.812581 136.535525 
L 174.012581 133.535525 
L 172.212581 136.535525 
z
" clip-path="url(#pc0c1eb5831)" style="fill: #4eb265; fill-opacity: 0.6; stroke: #ffffff; stroke-opacity: 0.6; stroke-width: 0.339411"/>
    <path d="M 177.45774 140.436827 
L 179.25774 137.436827 
L 177.45774 134.436827 
L 175.65774 137.436827 
z
" clip-path="url(#pc0c1eb5831)" style="fill: #4eb265; fill-opacity: 0.6; stroke: #ffffff; stroke-opacity: 0.6; stroke-width: 0.339411"/>
    <path d="M 176.137262 127.041965 
L 177.937262 124.041965 
L 176.137262 121.041965 
L 174.337262 124.041965 
z
" clip-path="url(#pc0c1eb5831)" style="fill: #4eb265; fill-opacity: 0.6; stroke: #ffffff; stroke-opacity: 0.6; stroke-width: 0.339411"/>
    <path d="M 200.312971 111.196293 
L 202.112971 108.196293 
L 200.312971 105.196293 
L 198.512971 108.196293 
z
" clip-path="url(#pc0c1eb5831)" style="fill: #4eb265; fill-opacity: 0.6; stroke: #ffffff; stroke-opacity: 0.6; stroke-width: 0.339411"/>
    <path d="M 171.031972 112.685528 
L 172.831972 109.685528 
L 171.031972 106.685528 
L 169.231972 109.685528 
z
" clip-path="url(#pc0c1eb5831)" style="fill: #4eb265; fill-opacity: 0.6; stroke: #ffffff; stroke-opacity: 0.6; stroke-width: 0.339411"/>
    <path d="M 165.479624 113.284364 
L 167.279624 110.284364 
L 165.479624 107.284364 
L 163.679624 110.284364 
z
" clip-path="url(#pc0c1eb5831)" style="fill: #4eb265; fill-opacity: 0.6; stroke: #ffffff; stroke-opacity: 0.6; stroke-width: 0.339411"/>
    <path d="M 171.714553 134.731952 
L 173.514553 131.731952 
L 171.714553 128.731952 
L 169.914553 131.731952 
z
" clip-path="url(#pc0c1eb5831)" style="fill: #4eb265; fill-opacity: 0.6; stroke: #ffffff; stroke-opacity: 0.6; stroke-width: 0.339411"/>
    <path d="M 191.134711 127.299093 
L 192.934711 124.299093 
L 191.134711 121.299093 
L 189.334711 124.299093 
z
" clip-path="url(#pc0c1eb5831)" style="fill: #4eb265; fill-opacity: 0.6; stroke: #ffffff; stroke-opacity: 0.6; stroke-width: 0.339411"/>
    <path d="M 168.002253 125.748949 
L 169.802253 122.748949 
L 168.002253 119.748949 
L 166.202253 122.748949 
z
" clip-path="url(#pc0c1eb5831)" style="fill: #4eb265; fill-opacity: 0.6; stroke: #ffffff; stroke-opacity: 0.6; stroke-width: 0.339411"/>
    <path d="M 182.401936 100.875889 
L 184.201936 97.875889 
L 182.401936 94.875889 
L 180.601936 97.875889 
z
" clip-path="url(#pc0c1eb5831)" style="fill: #4eb265; fill-opacity: 0.6; stroke: #ffffff; stroke-opacity: 0.6; stroke-width: 0.339411"/>
    <path d="M 185.717719 140.069719 
L 187.517719 137.069719 
L 185.717719 134.069719 
L 183.917719 137.069719 
z
" clip-path="url(#pc0c1eb5831)" style="fill: #4eb265; fill-opacity: 0.6; stroke: #ffffff; stroke-opacity: 0.6; stroke-width: 0.339411"/>
   </g>
   <g id="matplotlib.axis_1">
    <g id="xtick_1">
     <g id="line2d_1">
      <defs>
       <path id="m5296e255ec" d="M 0 0 
L 0 8 
" style="stroke: #000000"/>
      </defs>
      <g>
       <use xlink:href="#m5296e255ec" x="87.006338" y="188.936063" style="stroke: #000000"/>
      </g>
     </g>
     <g id="text_1">
      <!-- 0 -->
      <g transform="translate(83.188838 209.554188) scale(0.12 -0.12)">
       <defs>
        <path id="DejaVuSans-30" d="M 2034 4250 
Q 1547 4250 1301 3770 
Q 1056 3291 1056 2328 
Q 1056 1369 1301 889 
Q 1547 409 2034 409 
Q 2525 409 2770 889 
Q 3016 1369 3016 2328 
Q 3016 3291 2770 3770 
Q 2525 4250 2034 4250 
z
M 2034 4750 
Q 2819 4750 3233 4129 
Q 3647 3509 3647 2328 
Q 3647 1150 3233 529 
Q 2819 -91 2034 -91 
Q 1250 -91 836 529 
Q 422 1150 422 2328 
Q 422 3509 836 4129 
Q 1250 4750 2034 4750 
z
" transform="scale(0.015625)"/>
       </defs>
       <use xlink:href="#DejaVuSans-30"/>
      </g>
     </g>
    </g>
    <g id="xtick_2">
     <g id="line2d_2">
      <g>
       <use xlink:href="#m5296e255ec" x="192.323965" y="188.936063" style="stroke: #000000"/>
      </g>
     </g>
     <g id="text_2">
      <!-- 10 -->
      <g transform="translate(184.688965 209.554188) scale(0.12 -0.12)">
       <defs>
        <path id="DejaVuSans-31" d="M 794 531 
L 1825 531 
L 1825 4091 
L 703 3866 
L 703 4441 
L 1819 4666 
L 2450 4666 
L 2450 531 
L 3481 531 
L 3481 0 
L 794 0 
L 794 531 
z
" transform="scale(0.015625)"/>
       </defs>
       <use xlink:href="#DejaVuSans-31"/>
       <use xlink:href="#DejaVuSans-30" x="63.623047"/>
      </g>
     </g>
    </g>
    <g id="text_3">
     <!-- UMAP 1 -->
     <g transform="translate(117.956572 225.167938) scale(0.12 -0.12)">
      <defs>
       <path id="DejaVuSans-55" d="M 556 4666 
L 1191 4666 
L 1191 1831 
Q 1191 1081 1462 751 
Q 1734 422 2344 422 
Q 2950 422 3222 751 
Q 3494 1081 3494 1831 
L 3494 4666 
L 4128 4666 
L 4128 1753 
Q 4128 841 3676 375 
Q 3225 -91 2344 -91 
Q 1459 -91 1007 375 
Q 556 841 556 1753 
L 556 4666 
z
" transform="scale(0.015625)"/>
       <path id="DejaVuSans-4d" d="M 628 4666 
L 1569 4666 
L 2759 1491 
L 3956 4666 
L 4897 4666 
L 4897 0 
L 4281 0 
L 4281 4097 
L 3078 897 
L 2444 897 
L 1241 4097 
L 1241 0 
L 628 0 
L 628 4666 
z
" transform="scale(0.015625)"/>
       <path id="DejaVuSans-41" d="M 2188 4044 
L 1331 1722 
L 3047 1722 
L 2188 4044 
z
M 1831 4666 
L 2547 4666 
L 4325 0 
L 3669 0 
L 3244 1197 
L 1141 1197 
L 716 0 
L 50 0 
L 1831 4666 
z
" transform="scale(0.015625)"/>
       <path id="DejaVuSans-50" d="M 1259 4147 
L 1259 2394 
L 2053 2394 
Q 2494 2394 2734 2622 
Q 2975 2850 2975 3272 
Q 2975 3691 2734 3919 
Q 2494 4147 2053 4147 
L 1259 4147 
z
M 628 4666 
L 2053 4666 
Q 2838 4666 3239 4311 
Q 3641 3956 3641 3272 
Q 3641 2581 3239 2228 
Q 2838 1875 2053 1875 
L 1259 1875 
L 1259 0 
L 628 0 
L 628 4666 
z
" transform="scale(0.015625)"/>
       <path id="DejaVuSans-20" transform="scale(0.015625)"/>
      </defs>
      <use xlink:href="#DejaVuSans-55"/>
      <use xlink:href="#DejaVuSans-4d" x="73.193359"/>
      <use xlink:href="#DejaVuSans-41" x="159.472656"/>
      <use xlink:href="#DejaVuSans-50" x="227.880859"/>
      <use xlink:href="#DejaVuSans-20" x="288.183594"/>
      <use xlink:href="#DejaVuSans-31" x="319.970703"/>
     </g>
    </g>
   </g>
   <g id="matplotlib.axis_2">
    <g id="ytick_1">
     <g id="line2d_3">
      <defs>
       <path id="mcd77505724" d="M 0 0 
L -8 0 
" style="stroke: #000000"/>
      </defs>
      <g>
       <use xlink:href="#mcd77505724" x="53.957638" y="155.887363" style="stroke: #000000"/>
      </g>
     </g>
     <g id="text_4">
      <!-- 0 -->
      <g transform="translate(34.822638 160.446425) scale(0.12 -0.12)">
       <use xlink:href="#DejaVuSans-30"/>
      </g>
     </g>
    </g>
    <g id="ytick_2">
     <g id="line2d_4">
      <g>
       <use xlink:href="#mcd77505724" x="53.957638" y="50.569735" style="stroke: #000000"/>
      </g>
     </g>
     <g id="text_5">
      <!-- 10 -->
      <g transform="translate(27.187638 55.128798) scale(0.12 -0.12)">
       <use xlink:href="#DejaVuSans-31"/>
       <use xlink:href="#DejaVuSans-30" x="63.623047"/>
      </g>
     </g>
    </g>
    <g id="text_6">
     <!-- UMAP 2 -->
     <g transform="translate(20.692013 124.937128) rotate(-90) scale(0.12 -0.12)">
      <defs>
       <path id="DejaVuSans-32" d="M 1228 531 
L 3431 531 
L 3431 0 
L 469 0 
L 469 531 
Q 828 903 1448 1529 
Q 2069 2156 2228 2338 
Q 2531 2678 2651 2914 
Q 2772 3150 2772 3378 
Q 2772 3750 2511 3984 
Q 2250 4219 1831 4219 
Q 1534 4219 1204 4116 
Q 875 4013 500 3803 
L 500 4441 
Q 881 4594 1212 4672 
Q 1544 4750 1819 4750 
Q 2544 4750 2975 4387 
Q 3406 4025 3406 3419 
Q 3406 3131 3298 2873 
Q 3191 2616 2906 2266 
Q 2828 2175 2409 1742 
Q 1991 1309 1228 531 
z
" transform="scale(0.015625)"/>
      </defs>
      <use xlink:href="#DejaVuSans-55"/>
      <use xlink:href="#DejaVuSans-4d" x="73.193359"/>
      <use xlink:href="#DejaVuSans-41" x="159.472656"/>
      <use xlink:href="#DejaVuSans-50" x="227.880859"/>
      <use xlink:href="#DejaVuSans-20" x="288.183594"/>
      <use xlink:href="#DejaVuSans-32" x="319.970703"/>
     </g>
    </g>
   </g>
   <g id="patch_3">
    <path d="M 53.957638 188.936063 
L 53.957638 14.908819 
" style="fill: none; stroke: #000000; stroke-width: 2; stroke-linejoin: miter; stroke-linecap: square"/>
   </g>
   <g id="patch_4">
    <path d="M 53.957638 188.936063 
L 227.984882 188.936063 
" style="fill: none; stroke: #000000; stroke-width: 2; stroke-linejoin: miter; stroke-linecap: square"/>
   </g>
  </g>
 </g>
 <defs>
  <clipPath id="pc0c1eb5831">
   <rect x="53.957638" y="14.908819" width="174.027244" height="174.027244"/>
  </clipPath>
 </defs>
</svg>
