<?xml version="1.0" encoding="utf-8" standalone="no"?>
<!DOCTYPE svg PUBLIC "-//W3C//DTD SVG 1.1//EN"
  "http://www.w3.org/Graphics/SVG/1.1/DTD/svg11.dtd">
<svg xmlns:xlink="http://www.w3.org/1999/xlink" width="240.944882pt" height="240.944882pt" viewBox="0 0 240.944882 240.944882" xmlns="http://www.w3.org/2000/svg" version="1.1">
 <metadata>
  <rdf:RDF xmlns:dc="http://purl.org/dc/elements/1.1/" xmlns:cc="http://creativecommons.org/ns#" xmlns:rdf="http://www.w3.org/1999/02/22-rdf-syntax-ns#">
   <cc:Work>
    <dc:type rdf:resource="http://purl.org/dc/dcmitype/StillImage"/>
    <dc:date>2025-02-24T15:44:29.678969</dc:date>
    <dc:format>image/svg+xml</dc:format>
    <dc:creator>
     <cc:Agent>
      <dc:title>Matplotlib v3.6.2, https://matplotlib.org/</dc:title>
     </cc:Agent>
    </dc:creator>
   </cc:Work>
  </rdf:RDF>
 </metadata>
 <defs>
  <style type="text/css">*{stroke-linejoin: round; stroke-linecap: butt}</style>
 </defs>
 <g id="figure_1">
  <g id="patch_1">
   <path d="M 0 240.944882 
L 240.944882 240.944882 
L 240.944882 0 
L 0 0 
L 0 240.944882 
z
" style="fill: none"/>
  </g>
  <g id="axes_1">
   <g id="patch_2">
    <path d="M 53.957638 188.936063 
L 227.984882 188.936063 
L 227.984882 14.908819 
L 53.957638 14.908819 
L 53.957638 188.936063 
z
" style="fill: none"/>
   </g>
   <g id="PathCollection_1">
    <path d="M 182.439268 138.385989 
L 184.239268 135.385989 
L 182.439268 132.385989 
L 180.639268 135.385989 
z
" clip-path="url(#p3100119351)" style="fill: #332288; fill-opacity: 0.6; stroke: #ffffff; stroke-opacity: 0.6; stroke-width: 0.339411"/>
    <path d="M 130.358815 145.047159 
L 132.158815 142.047159 
L 130.358815 139.047159 
L 128.558815 142.047159 
z
" clip-path="url(#p3100119351)" style="fill: #332288; fill-opacity: 0.6; stroke: #ffffff; stroke-opacity: 0.6; stroke-width: 0.339411"/>
    <path d="M 199.796762 128.240321 
L 201.596762 125.240321 
L 199.796762 122.240321 
L 197.996762 125.240321 
z
" clip-path="url(#p3100119351)" style="fill: #332288; fill-opacity: 0.6; stroke: #ffffff; stroke-opacity: 0.6; stroke-width: 0.339411"/>
    <path d="M 149.701878 140.527161 
L 151.501878 137.527161 
L 149.701878 134.527161 
L 147.901878 137.527161 
z
" clip-path="url(#p3100119351)" style="fill: #332288; fill-opacity: 0.6; stroke: #ffffff; stroke-opacity: 0.6; stroke-width: 0.339411"/>
    <path d="M 208.8858 131.599033 
L 210.6858 128.599033 
L 208.8858 125.599033 
L 207.0858 128.599033 
z
" clip-path="url(#p3100119351)" style="fill: #332288; fill-opacity: 0.6; stroke: #ffffff; stroke-opacity: 0.6; stroke-width: 0.339411"/>
    <path d="M 146.087001 141.246053 
L 147.887001 138.246053 
L 146.087001 135.246053 
L 144.287001 138.246053 
z
" clip-path="url(#p3100119351)" style="fill: #332288; fill-opacity: 0.6; stroke: #ffffff; stroke-opacity: 0.6; stroke-width: 0.339411"/>
    <path d="M 133.94638 140.82766 
L 135.74638 137.82766 
L 133.94638 134.82766 
L 132.14638 137.82766 
z
" clip-path="url(#p3100119351)" style="fill: #332288; fill-opacity: 0.6; stroke: #ffffff; stroke-opacity: 0.6; stroke-width: 0.339411"/>
    <path d="M 188.64262 137.46281 
L 190.44262 134.46281 
L 188.64262 131.46281 
L 186.84262 134.46281 
z
" clip-path="url(#p3100119351)" style="fill: #332288; fill-opacity: 0.6; stroke: #ffffff; stroke-opacity: 0.6; stroke-width: 0.339411"/>
    <path d="M 181.939573 131.858802 
L 183.739573 128.858802 
L 181.939573 125.858802 
L 180.139573 128.858802 
z
" clip-path="url(#p3100119351)" style="fill: #332288; fill-opacity: 0.6; stroke: #ffffff; stroke-opacity: 0.6; stroke-width: 0.339411"/>
    <path d="M 206.211122 129.160212 
L 208.011122 126.160212 
L 206.211122 123.160212 
L 204.411122 126.160212 
z
" clip-path="url(#p3100119351)" style="fill: #332288; fill-opacity: 0.6; stroke: #ffffff; stroke-opacity: 0.6; stroke-width: 0.339411"/>
    <path d="M 194.80359 129.679644 
L 196.60359 126.679644 
L 194.80359 123.679644 
L 193.00359 126.679644 
z
" clip-path="url(#p3100119351)" style="fill: #332288; fill-opacity: 0.6; stroke: #ffffff; stroke-opacity: 0.6; stroke-width: 0.339411"/>
    <path d="M 131.221699 152.021179 
L 133.021699 149.021179 
L 131.221699 146.021179 
L 129.421699 149.021179 
z
" clip-path="url(#p3100119351)" style="fill: #332288; fill-opacity: 0.6; stroke: #ffffff; stroke-opacity: 0.6; stroke-width: 0.339411"/>
    <path d="M 184.523221 138.769643 
L 186.323221 135.769643 
L 184.523221 132.769643 
L 182.723221 135.769643 
z
" clip-path="url(#p3100119351)" style="fill: #332288; fill-opacity: 0.6; stroke: #ffffff; stroke-opacity: 0.6; stroke-width: 0.339411"/>
    <path d="M 130.420023 148.430073 
L 132.220023 145.430073 
L 130.420023 142.430073 
L 128.620023 145.430073 
z
" clip-path="url(#p3100119351)" style="fill: #332288; fill-opacity: 0.6; stroke: #ffffff; stroke-opacity: 0.6; stroke-width: 0.339411"/>
    <path d="M 210.00653 128.24648 
L 211.80653 125.24648 
L 210.00653 122.24648 
L 208.20653 125.24648 
z
" clip-path="url(#p3100119351)" style="fill: #332288; fill-opacity: 0.6; stroke: #ffffff; stroke-opacity: 0.6; stroke-width: 0.339411"/>
    <path d="M 212.908077 133.005456 
L 214.708077 130.005456 
L 212.908077 127.005456 
L 211.108077 130.005456 
z
" clip-path="url(#p3100119351)" style="fill: #332288; fill-opacity: 0.6; stroke: #ffffff; stroke-opacity: 0.6; stroke-width: 0.339411"/>
    <path d="M 212.187204 131.088245 
L 213.987204 128.088245 
L 212.187204 125.088245 
L 210.387204 128.088245 
z
" clip-path="url(#p3100119351)" style="fill: #332288; fill-opacity: 0.6; stroke: #ffffff; stroke-opacity: 0.6; stroke-width: 0.339411"/>
    <path d="M 128.134171 152.828811 
L 129.934171 149.828811 
L 128.134171 146.828811 
L 126.334171 149.828811 
z
" clip-path="url(#p3100119351)" style="fill: #332288; fill-opacity: 0.6; stroke: #ffffff; stroke-opacity: 0.6; stroke-width: 0.339411"/>
    <path d="M 197.998419 128.404058 
L 199.798419 125.404058 
L 197.998419 122.404058 
L 196.198419 125.404058 
z
" clip-path="url(#p3100119351)" style="fill: #332288; fill-opacity: 0.6; stroke: #ffffff; stroke-opacity: 0.6; stroke-width: 0.339411"/>
    <path d="M 134.334532 141.633022 
L 136.134532 138.633022 
L 134.334532 135.633022 
L 132.534532 138.633022 
z
" clip-path="url(#p3100119351)" style="fill: #332288; fill-opacity: 0.6; stroke: #ffffff; stroke-opacity: 0.6; stroke-width: 0.339411"/>
    <path d="M 131.921 142.103881 
L 133.721 139.103881 
L 131.921 136.103881 
L 130.121 139.103881 
z
" clip-path="url(#p3100119351)" style="fill: #332288; fill-opacity: 0.6; stroke: #ffffff; stroke-opacity: 0.6; stroke-width: 0.339411"/>
    <path d="M 200.589429 126.77086 
L 202.389429 123.77086 
L 200.589429 120.77086 
L 198.789429 123.77086 
z
" clip-path="url(#p3100119351)" style="fill: #332288; fill-opacity: 0.6; stroke: #ffffff; stroke-opacity: 0.6; stroke-width: 0.339411"/>
    <path d="M 198.509278 129.879792 
L 200.309278 126.879792 
L 198.509278 123.879792 
L 196.709278 126.879792 
z
" clip-path="url(#p3100119351)" style="fill: #332288; fill-opacity: 0.6; stroke: #ffffff; stroke-opacity: 0.6; stroke-width: 0.339411"/>
    <path d="M 126.806569 153.318283 
L 128.606569 150.318283 
L 126.806569 147.318283 
L 125.006569 150.318283 
z
" clip-path="url(#p3100119351)" style="fill: #332288; fill-opacity: 0.6; stroke: #ffffff; stroke-opacity: 0.6; stroke-width: 0.339411"/>
    <path d="M 132.592544 152.756708 
L 134.392544 149.756708 
L 132.592544 146.756708 
L 130.792544 149.756708 
z
" clip-path="url(#p3100119351)" style="fill: #332288; fill-opacity: 0.6; stroke: #ffffff; stroke-opacity: 0.6; stroke-width: 0.339411"/>
    <path d="M 205.017604 128.826323 
L 206.817604 125.826323 
L 205.017604 122.826323 
L 203.217604 125.826323 
z
" clip-path="url(#p3100119351)" style="fill: #332288; fill-opacity: 0.6; stroke: #ffffff; stroke-opacity: 0.6; stroke-width: 0.339411"/>
    <path d="M 138.928525 144.676711 
L 140.728525 141.676711 
L 138.928525 138.676711 
L 137.128525 141.676711 
z
" clip-path="url(#p3100119351)" style="fill: #332288; fill-opacity: 0.6; stroke: #ffffff; stroke-opacity: 0.6; stroke-width: 0.339411"/>
    <path d="M 147.684338 139.379339 
L 149.484338 136.379339 
L 147.684338 133.379339 
L 145.884338 136.379339 
z
" clip-path="url(#p3100119351)" style="fill: #332288; fill-opacity: 0.6; stroke: #ffffff; stroke-opacity: 0.6; stroke-width: 0.339411"/>
    <path d="M 139.338364 145.442943 
L 141.138364 142.442943 
L 139.338364 139.442943 
L 137.538364 142.442943 
z
" clip-path="url(#p3100119351)" style="fill: #332288; fill-opacity: 0.6; stroke: #ffffff; stroke-opacity: 0.6; stroke-width: 0.339411"/>
    <path d="M 183.089805 137.995421 
L 184.889805 134.995421 
L 183.089805 131.995421 
L 181.289805 134.995421 
z
" clip-path="url(#p3100119351)" style="fill: #332288; fill-opacity: 0.6; stroke: #ffffff; stroke-opacity: 0.6; stroke-width: 0.339411"/>
    <path d="M 209.779016 135.930308 
L 211.579016 132.930308 
L 209.779016 129.930308 
L 207.979016 132.930308 
z
" clip-path="url(#p3100119351)" style="fill: #332288; fill-opacity: 0.6; stroke: #ffffff; stroke-opacity: 0.6; stroke-width: 0.339411"/>
    <path d="M 196.790743 157.684057 
L 198.590743 154.684057 
L 196.790743 151.684057 
L 194.990743 154.684057 
z
" clip-path="url(#p3100119351)" style="fill: #332288; fill-opacity: 0.6; stroke: #ffffff; stroke-opacity: 0.6; stroke-width: 0.339411"/>
    <path d="M 185.298717 137.522634 
L 187.098717 134.522634 
L 185.298717 131.522634 
L 183.498717 134.522634 
z
" clip-path="url(#p3100119351)" style="fill: #332288; fill-opacity: 0.6; stroke: #ffffff; stroke-opacity: 0.6; stroke-width: 0.339411"/>
    <path d="M 209.835439 135.689081 
L 211.635439 132.689081 
L 209.835439 129.689081 
L 208.035439 132.689081 
z
" clip-path="url(#p3100119351)" style="fill: #332288; fill-opacity: 0.6; stroke: #ffffff; stroke-opacity: 0.6; stroke-width: 0.339411"/>
    <path d="M 201.318614 128.666205 
L 203.118614 125.666205 
L 201.318614 122.666205 
L 199.518614 125.666205 
z
" clip-path="url(#p3100119351)" style="fill: #332288; fill-opacity: 0.6; stroke: #ffffff; stroke-opacity: 0.6; stroke-width: 0.339411"/>
    <path d="M 127.937491 146.799913 
L 129.737491 143.799913 
L 127.937491 140.799913 
L 126.137491 143.799913 
z
" clip-path="url(#p3100119351)" style="fill: #332288; fill-opacity: 0.6; stroke: #ffffff; stroke-opacity: 0.6; stroke-width: 0.339411"/>
    <path d="M 199.934246 130.048256 
L 201.734246 127.048256 
L 199.934246 124.048256 
L 198.134246 127.048256 
z
" clip-path="url(#p3100119351)" style="fill: #332288; fill-opacity: 0.6; stroke: #ffffff; stroke-opacity: 0.6; stroke-width: 0.339411"/>
    <path d="M 183.58046 138.577 
L 185.38046 135.577 
L 183.58046 132.577 
L 181.78046 135.577 
z
" clip-path="url(#p3100119351)" style="fill: #332288; fill-opacity: 0.6; stroke: #ffffff; stroke-opacity: 0.6; stroke-width: 0.339411"/>
    <path d="M 135.629224 143.22077 
L 137.429224 140.22077 
L 135.629224 137.22077 
L 133.829224 140.22077 
z
" clip-path="url(#p3100119351)" style="fill: #332288; fill-opacity: 0.6; stroke: #ffffff; stroke-opacity: 0.6; stroke-width: 0.339411"/>
    <path d="M 205.525843 135.758291 
L 207.325843 132.758291 
L 205.525843 129.758291 
L 203.725843 132.758291 
z
" clip-path="url(#p3100119351)" style="fill: #332288; fill-opacity: 0.6; stroke: #ffffff; stroke-opacity: 0.6; stroke-width: 0.339411"/>
    <path d="M 130.013201 148.712552 
L 131.813201 145.712552 
L 130.013201 142.712552 
L 128.213201 145.712552 
z
" clip-path="url(#p3100119351)" style="fill: #332288; fill-opacity: 0.6; stroke: #ffffff; stroke-opacity: 0.6; stroke-width: 0.339411"/>
    <path d="M 125.716029 150.288805 
L 127.516029 147.288805 
L 125.716029 144.288805 
L 123.916029 147.288805 
z
" clip-path="url(#p3100119351)" style="fill: #332288; fill-opacity: 0.6; stroke: #ffffff; stroke-opacity: 0.6; stroke-width: 0.339411"/>
    <path d="M 208.552407 133.271687 
L 210.352407 130.271687 
L 208.552407 127.271687 
L 206.752407 130.271687 
z
" clip-path="url(#p3100119351)" style="fill: #332288; fill-opacity: 0.6; stroke: #ffffff; stroke-opacity: 0.6; stroke-width: 0.339411"/>
    <path d="M 197.133183 129.542489 
L 198.933183 126.542489 
L 197.133183 123.542489 
L 195.333183 126.542489 
z
" clip-path="url(#p3100119351)" style="fill: #332288; fill-opacity: 0.6; stroke: #ffffff; stroke-opacity: 0.6; stroke-width: 0.339411"/>
    <path d="M 130.149627 148.693955 
L 131.949627 145.693955 
L 130.149627 142.693955 
L 128.349627 145.693955 
z
" clip-path="url(#p3100119351)" style="fill: #332288; fill-opacity: 0.6; stroke: #ffffff; stroke-opacity: 0.6; stroke-width: 0.339411"/>
    <path d="M 131.966683 146.237193 
L 133.766683 143.237193 
L 131.966683 140.237193 
L 130.166683 143.237193 
z
" clip-path="url(#p3100119351)" style="fill: #332288; fill-opacity: 0.6; stroke: #ffffff; stroke-opacity: 0.6; stroke-width: 0.339411"/>
    <path d="M 179.61611 139.339725 
L 181.41611 136.339725 
L 179.61611 133.339725 
L 177.81611 136.339725 
z
" clip-path="url(#p3100119351)" style="fill: #332288; fill-opacity: 0.6; stroke: #ffffff; stroke-opacity: 0.6; stroke-width: 0.339411"/>
    <path d="M 127.579317 149.707841 
L 129.379317 146.707841 
L 127.579317 143.707841 
L 125.779317 146.707841 
z
" clip-path="url(#p3100119351)" style="fill: #332288; fill-opacity: 0.6; stroke: #ffffff; stroke-opacity: 0.6; stroke-width: 0.339411"/>
    <path d="M 125.702697 153.370306 
L 127.502697 150.370306 
L 125.702697 147.370306 
L 123.902697 150.370306 
z
" clip-path="url(#p3100119351)" style="fill: #332288; fill-opacity: 0.6; stroke: #ffffff; stroke-opacity: 0.6; stroke-width: 0.339411"/>
    <path d="M 140.961319 141.073236 
L 142.761319 138.073236 
L 140.961319 135.073236 
L 139.161319 138.073236 
z
" clip-path="url(#p3100119351)" style="fill: #332288; fill-opacity: 0.6; stroke: #ffffff; stroke-opacity: 0.6; stroke-width: 0.339411"/>
    <path d="M 143.562629 142.405631 
L 145.362629 139.405631 
L 143.562629 136.405631 
L 141.762629 139.405631 
z
" clip-path="url(#p3100119351)" style="fill: #332288; fill-opacity: 0.6; stroke: #ffffff; stroke-opacity: 0.6; stroke-width: 0.339411"/>
    <path d="M 207.687287 134.041976 
L 209.487287 131.041976 
L 207.687287 128.041976 
L 205.887287 131.041976 
z
" clip-path="url(#p3100119351)" style="fill: #332288; fill-opacity: 0.6; stroke: #ffffff; stroke-opacity: 0.6; stroke-width: 0.339411"/>
    <path d="M 207.231175 136.207567 
L 209.031175 133.207567 
L 207.231175 130.207567 
L 205.431175 133.207567 
z
" clip-path="url(#p3100119351)" style="fill: #332288; fill-opacity: 0.6; stroke: #ffffff; stroke-opacity: 0.6; stroke-width: 0.339411"/>
    <path d="M 209.966316 129.618729 
L 211.766316 126.618729 
L 209.966316 123.618729 
L 208.166316 126.618729 
z
" clip-path="url(#p3100119351)" style="fill: #332288; fill-opacity: 0.6; stroke: #ffffff; stroke-opacity: 0.6; stroke-width: 0.339411"/>
    <path d="M 209.684159 130.663051 
L 211.484159 127.663051 
L 209.684159 124.663051 
L 207.884159 127.663051 
z
" clip-path="url(#p3100119351)" style="fill: #332288; fill-opacity: 0.6; stroke: #ffffff; stroke-opacity: 0.6; stroke-width: 0.339411"/>
    <path d="M 181.394637 140.94477 
L 183.194637 137.94477 
L 181.394637 134.94477 
L 179.594637 137.94477 
z
" clip-path="url(#p3100119351)" style="fill: #332288; fill-opacity: 0.6; stroke: #ffffff; stroke-opacity: 0.6; stroke-width: 0.339411"/>
    <path d="M 126.586582 151.793002 
L 128.386582 148.793002 
L 126.586582 145.793002 
L 124.786582 148.793002 
z
" clip-path="url(#p3100119351)" style="fill: #332288; fill-opacity: 0.6; stroke: #ffffff; stroke-opacity: 0.6; stroke-width: 0.339411"/>
    <path d="M 140.826564 145.492315 
L 142.626564 142.492315 
L 140.826564 139.492315 
L 139.026564 142.492315 
z
" clip-path="url(#p3100119351)" style="fill: #332288; fill-opacity: 0.6; stroke: #ffffff; stroke-opacity: 0.6; stroke-width: 0.339411"/>
    <path d="M 203.685078 131.451685 
L 205.485078 128.451685 
L 203.685078 125.451685 
L 201.885078 128.451685 
z
" clip-path="url(#p3100119351)" style="fill: #332288; fill-opacity: 0.6; stroke: #ffffff; stroke-opacity: 0.6; stroke-width: 0.339411"/>
    <path d="M 139.854869 143.519159 
L 141.654869 140.519159 
L 139.854869 137.519159 
L 138.054869 140.519159 
z
" clip-path="url(#p3100119351)" style="fill: #332288; fill-opacity: 0.6; stroke: #ffffff; stroke-opacity: 0.6; stroke-width: 0.339411"/>
    <path d="M 204.394272 130.691124 
L 206.194272 127.691124 
L 204.394272 124.691124 
L 202.594272 127.691124 
z
" clip-path="url(#p3100119351)" style="fill: #332288; fill-opacity: 0.6; stroke: #ffffff; stroke-opacity: 0.6; stroke-width: 0.339411"/>
    <path d="M 205.621267 137.318899 
L 207.421267 134.318899 
L 205.621267 131.318899 
L 203.821267 134.318899 
z
" clip-path="url(#p3100119351)" style="fill: #332288; fill-opacity: 0.6; stroke: #ffffff; stroke-opacity: 0.6; stroke-width: 0.339411"/>
    <path d="M 211.531582 132.360123 
L 213.331582 129.360123 
L 211.531582 126.360123 
L 209.731582 129.360123 
z
" clip-path="url(#p3100119351)" style="fill: #332288; fill-opacity: 0.6; stroke: #ffffff; stroke-opacity: 0.6; stroke-width: 0.339411"/>
    <path d="M 136.462532 141.055857 
L 138.262532 138.055857 
L 136.462532 135.055857 
L 134.662532 138.055857 
z
" clip-path="url(#p3100119351)" style="fill: #332288; fill-opacity: 0.6; stroke: #ffffff; stroke-opacity: 0.6; stroke-width: 0.339411"/>
    <path d="M 202.674847 170.054086 
L 200.553527 174.296727 
L 204.796167 174.296727 
z
" clip-path="url(#p3100119351)" style="fill: #117733; fill-opacity: 0.6; stroke: #ffffff; stroke-opacity: 0.6; stroke-width: 0.339411"/>
    <path d="M 151.604635 129.511459 
L 149.483314 133.7541 
L 153.725955 133.7541 
z
" clip-path="url(#p3100119351)" style="fill: #117733; fill-opacity: 0.6; stroke: #ffffff; stroke-opacity: 0.6; stroke-width: 0.339411"/>
    <path d="M 146.783753 134.257347 
L 144.662433 138.499988 
L 148.905073 138.499988 
z
" clip-path="url(#p3100119351)" style="fill: #117733; fill-opacity: 0.6; stroke: #ffffff; stroke-opacity: 0.6; stroke-width: 0.339411"/>
    <path d="M 189.51791 169.73096 
L 187.396589 173.973601 
L 191.63923 173.973601 
z
" clip-path="url(#p3100119351)" style="fill: #117733; fill-opacity: 0.6; stroke: #ffffff; stroke-opacity: 0.6; stroke-width: 0.339411"/>
    <path d="M 139.126434 121.930441 
L 137.005113 126.173082 
L 141.247754 126.173082 
z
" clip-path="url(#p3100119351)" style="fill: #117733; fill-opacity: 0.6; stroke: #ffffff; stroke-opacity: 0.6; stroke-width: 0.339411"/>
    <path d="M 162.461197 152.26205 
L 160.339877 156.504691 
L 164.582517 156.504691 
z
" clip-path="url(#p3100119351)" style="fill: #117733; fill-opacity: 0.6; stroke: #ffffff; stroke-opacity: 0.6; stroke-width: 0.339411"/>
    <path d="M 149.305622 130.2836 
L 147.184301 134.526241 
L 151.426942 134.526241 
z
" clip-path="url(#p3100119351)" style="fill: #117733; fill-opacity: 0.6; stroke: #ffffff; stroke-opacity: 0.6; stroke-width: 0.339411"/>
    <path d="M 149.709441 126.397068 
L 147.58812 130.639709 
L 151.830761 130.639709 
z
" clip-path="url(#p3100119351)" style="fill: #117733; fill-opacity: 0.6; stroke: #ffffff; stroke-opacity: 0.6; stroke-width: 0.339411"/>
    <path d="M 143.176607 130.473665 
L 141.055286 134.716306 
L 145.297927 134.716306 
z
" clip-path="url(#p3100119351)" style="fill: #117733; fill-opacity: 0.6; stroke: #ffffff; stroke-opacity: 0.6; stroke-width: 0.339411"/>
    <path d="M 212.507911 142.63424 
L 210.38659 146.87688 
L 214.629231 146.87688 
z
" clip-path="url(#p3100119351)" style="fill: #117733; fill-opacity: 0.6; stroke: #ffffff; stroke-opacity: 0.6; stroke-width: 0.339411"/>
    <path d="M 140.239523 121.847416 
L 138.118203 126.090056 
L 142.360844 126.090056 
z
" clip-path="url(#p3100119351)" style="fill: #117733; fill-opacity: 0.6; stroke: #ffffff; stroke-opacity: 0.6; stroke-width: 0.339411"/>
    <path d="M 135.821777 115.601072 
L 133.700457 119.843713 
L 137.943097 119.843713 
z
" clip-path="url(#p3100119351)" style="fill: #117733; fill-opacity: 0.6; stroke: #ffffff; stroke-opacity: 0.6; stroke-width: 0.339411"/>
    <path d="M 148.987542 127.192468 
L 146.866221 131.435109 
L 151.108862 131.435109 
z
" clip-path="url(#p3100119351)" style="fill: #117733; fill-opacity: 0.6; stroke: #ffffff; stroke-opacity: 0.6; stroke-width: 0.339411"/>
    <path d="M 140.578704 126.181036 
L 138.457384 130.423677 
L 142.700025 130.423677 
z
" clip-path="url(#p3100119351)" style="fill: #117733; fill-opacity: 0.6; stroke: #ffffff; stroke-opacity: 0.6; stroke-width: 0.339411"/>
    <path d="M 174.959286 132.293719 
L 172.837965 136.53636 
L 177.080606 136.53636 
z
" clip-path="url(#p3100119351)" style="fill: #117733; fill-opacity: 0.6; stroke: #ffffff; stroke-opacity: 0.6; stroke-width: 0.339411"/>
    <path d="M 215.399701 139.276287 
L 213.278381 143.518928 
L 217.521022 143.518928 
z
" clip-path="url(#p3100119351)" style="fill: #117733; fill-opacity: 0.6; stroke: #ffffff; stroke-opacity: 0.6; stroke-width: 0.339411"/>
    <path d="M 140.86059 117.007682 
L 138.73927 121.250323 
L 142.981911 121.250323 
z
" clip-path="url(#p3100119351)" style="fill: #117733; fill-opacity: 0.6; stroke: #ffffff; stroke-opacity: 0.6; stroke-width: 0.339411"/>
    <path d="M 184.730351 158.082233 
L 182.60903 162.324874 
L 186.851671 162.324874 
z
" clip-path="url(#p3100119351)" style="fill: #117733; fill-opacity: 0.6; stroke: #ffffff; stroke-opacity: 0.6; stroke-width: 0.339411"/>
    <path d="M 137.8368 113.665806 
L 135.71548 117.908446 
L 139.958121 117.908446 
z
" clip-path="url(#p3100119351)" style="fill: #117733; fill-opacity: 0.6; stroke: #ffffff; stroke-opacity: 0.6; stroke-width: 0.339411"/>
    <path d="M 144.717959 119.729082 
L 142.596639 123.971723 
L 146.839279 123.971723 
z
" clip-path="url(#p3100119351)" style="fill: #117733; fill-opacity: 0.6; stroke: #ffffff; stroke-opacity: 0.6; stroke-width: 0.339411"/>
    <path d="M 149.926805 119.222244 
L 147.805484 123.464884 
L 152.048125 123.464884 
z
" clip-path="url(#p3100119351)" style="fill: #117733; fill-opacity: 0.6; stroke: #ffffff; stroke-opacity: 0.6; stroke-width: 0.339411"/>
    <path d="M 145.937379 121.560938 
L 143.816058 125.803579 
L 148.058699 125.803579 
z
" clip-path="url(#p3100119351)" style="fill: #117733; fill-opacity: 0.6; stroke: #ffffff; stroke-opacity: 0.6; stroke-width: 0.339411"/>
    <path d="M 136.831867 116.097434 
L 134.710546 120.340075 
L 138.953187 120.340075 
z
" clip-path="url(#p3100119351)" style="fill: #117733; fill-opacity: 0.6; stroke: #ffffff; stroke-opacity: 0.6; stroke-width: 0.339411"/>
    <path d="M 139.485083 126.646141 
L 137.363762 130.888782 
L 141.606403 130.888782 
z
" clip-path="url(#p3100119351)" style="fill: #117733; fill-opacity: 0.6; stroke: #ffffff; stroke-opacity: 0.6; stroke-width: 0.339411"/>
    <path d="M 146.823606 118.673852 
L 144.702286 122.916493 
L 148.944926 122.916493 
z
" clip-path="url(#p3100119351)" style="fill: #117733; fill-opacity: 0.6; stroke: #ffffff; stroke-opacity: 0.6; stroke-width: 0.339411"/>
    <path d="M 171.627811 130.184904 
L 169.506491 134.427544 
L 173.749132 134.427544 
z
" clip-path="url(#p3100119351)" style="fill: #117733; fill-opacity: 0.6; stroke: #ffffff; stroke-opacity: 0.6; stroke-width: 0.339411"/>
    <path d="M 215.364404 141.801419 
L 213.243084 146.04406 
L 217.485725 146.04406 
z
" clip-path="url(#p3100119351)" style="fill: #117733; fill-opacity: 0.6; stroke: #ffffff; stroke-opacity: 0.6; stroke-width: 0.339411"/>
    <path d="M 162.726964 148.372858 
L 160.605644 152.615498 
L 164.848284 152.615498 
z
" clip-path="url(#p3100119351)" style="fill: #117733; fill-opacity: 0.6; stroke: #ffffff; stroke-opacity: 0.6; stroke-width: 0.339411"/>
    <path d="M 138.166999 119.025574 
L 136.045678 123.268215 
L 140.288319 123.268215 
z
" clip-path="url(#p3100119351)" style="fill: #117733; fill-opacity: 0.6; stroke: #ffffff; stroke-opacity: 0.6; stroke-width: 0.339411"/>
    <path d="M 144.533743 117.304003 
L 142.412423 121.546644 
L 146.655063 121.546644 
z
" clip-path="url(#p3100119351)" style="fill: #117733; fill-opacity: 0.6; stroke: #ffffff; stroke-opacity: 0.6; stroke-width: 0.339411"/>
    <path d="M 144.329375 120.531035 
L 142.208055 124.773676 
L 146.450695 124.773676 
z
" clip-path="url(#p3100119351)" style="fill: #117733; fill-opacity: 0.6; stroke: #ffffff; stroke-opacity: 0.6; stroke-width: 0.339411"/>
    <path d="M 205.670941 134.830815 
L 203.549621 139.073455 
L 207.792262 139.073455 
z
" clip-path="url(#p3100119351)" style="fill: #117733; fill-opacity: 0.6; stroke: #ffffff; stroke-opacity: 0.6; stroke-width: 0.339411"/>
    <path d="M 212.996481 142.565791 
L 210.875161 146.808432 
L 215.117802 146.808432 
z
" clip-path="url(#p3100119351)" style="fill: #117733; fill-opacity: 0.6; stroke: #ffffff; stroke-opacity: 0.6; stroke-width: 0.339411"/>
    <path d="M 143.982696 129.749182 
L 141.861376 133.991823 
L 146.104016 133.991823 
z
" clip-path="url(#p3100119351)" style="fill: #117733; fill-opacity: 0.6; stroke: #ffffff; stroke-opacity: 0.6; stroke-width: 0.339411"/>
    <path d="M 210.216041 137.124848 
L 208.094721 141.367488 
L 212.337361 141.367488 
z
" clip-path="url(#p3100119351)" style="fill: #117733; fill-opacity: 0.6; stroke: #ffffff; stroke-opacity: 0.6; stroke-width: 0.339411"/>
    <path d="M 150.630403 131.092058 
L 148.509083 135.334698 
L 152.751724 135.334698 
z
" clip-path="url(#p3100119351)" style="fill: #117733; fill-opacity: 0.6; stroke: #ffffff; stroke-opacity: 0.6; stroke-width: 0.339411"/>
    <path d="M 188.606329 168.231988 
L 186.485009 172.474629 
L 190.72765 172.474629 
z
" clip-path="url(#p3100119351)" style="fill: #117733; fill-opacity: 0.6; stroke: #ffffff; stroke-opacity: 0.6; stroke-width: 0.339411"/>
    <path d="M 142.816899 122.489006 
L 140.695579 126.731647 
L 144.93822 126.731647 
z
" clip-path="url(#p3100119351)" style="fill: #117733; fill-opacity: 0.6; stroke: #ffffff; stroke-opacity: 0.6; stroke-width: 0.339411"/>
    <path d="M 145.251706 133.818755 
L 143.130386 138.061396 
L 147.373026 138.061396 
z
" clip-path="url(#p3100119351)" style="fill: #117733; fill-opacity: 0.6; stroke: #ffffff; stroke-opacity: 0.6; stroke-width: 0.339411"/>
    <path d="M 188.883879 171.87903 
L 186.762559 176.121671 
L 191.005199 176.121671 
z
" clip-path="url(#p3100119351)" style="fill: #117733; fill-opacity: 0.6; stroke: #ffffff; stroke-opacity: 0.6; stroke-width: 0.339411"/>
    <path d="M 195.126632 160.277892 
L 193.005312 164.520532 
L 197.247952 164.520532 
z
" clip-path="url(#p3100119351)" style="fill: #117733; fill-opacity: 0.6; stroke: #ffffff; stroke-opacity: 0.6; stroke-width: 0.339411"/>
    <path d="M 142.126761 127.034912 
L 140.005441 131.277553 
L 144.248081 131.277553 
z
" clip-path="url(#p3100119351)" style="fill: #117733; fill-opacity: 0.6; stroke: #ffffff; stroke-opacity: 0.6; stroke-width: 0.339411"/>
    <path d="M 201.992007 151.972824 
L 199.870686 156.215464 
L 204.113327 156.215464 
z
" clip-path="url(#p3100119351)" style="fill: #117733; fill-opacity: 0.6; stroke: #ffffff; stroke-opacity: 0.6; stroke-width: 0.339411"/>
    <path d="M 214.213501 141.461574 
L 212.09218 145.704215 
L 216.334821 145.704215 
z
" clip-path="url(#p3100119351)" style="fill: #117733; fill-opacity: 0.6; stroke: #ffffff; stroke-opacity: 0.6; stroke-width: 0.339411"/>
    <path d="M 141.510689 130.204943 
L 139.389368 134.447584 
L 143.632009 134.447584 
z
" clip-path="url(#p3100119351)" style="fill: #117733; fill-opacity: 0.6; stroke: #ffffff; stroke-opacity: 0.6; stroke-width: 0.339411"/>
    <path d="M 204.541823 154.872389 
L 202.420502 159.11503 
L 206.663143 159.11503 
z
" clip-path="url(#p3100119351)" style="fill: #117733; fill-opacity: 0.6; stroke: #ffffff; stroke-opacity: 0.6; stroke-width: 0.339411"/>
    <path d="M 170.334706 150.969235 
L 168.213386 155.211875 
L 172.456027 155.211875 
z
" clip-path="url(#p3100119351)" style="fill: #117733; fill-opacity: 0.6; stroke: #ffffff; stroke-opacity: 0.6; stroke-width: 0.339411"/>
    <path d="M 139.841944 115.418992 
L 137.720624 119.661633 
L 141.963265 119.661633 
z
" clip-path="url(#p3100119351)" style="fill: #117733; fill-opacity: 0.6; stroke: #ffffff; stroke-opacity: 0.6; stroke-width: 0.339411"/>
    <path d="M 146.543101 129.803105 
L 144.42178 134.045746 
L 148.664421 134.045746 
z
" clip-path="url(#p3100119351)" style="fill: #117733; fill-opacity: 0.6; stroke: #ffffff; stroke-opacity: 0.6; stroke-width: 0.339411"/>
    <path d="M 137.115805 118.133023 
L 134.994484 122.375664 
L 139.237125 122.375664 
z
" clip-path="url(#p3100119351)" style="fill: #117733; fill-opacity: 0.6; stroke: #ffffff; stroke-opacity: 0.6; stroke-width: 0.339411"/>
    <path d="M 137.58259 116.751817 
L 135.46127 120.994458 
L 139.703911 120.994458 
z
" clip-path="url(#p3100119351)" style="fill: #117733; fill-opacity: 0.6; stroke: #ffffff; stroke-opacity: 0.6; stroke-width: 0.339411"/>
    <path d="M 192.172365 162.789369 
L 190.051044 167.03201 
L 194.293685 167.03201 
z
" clip-path="url(#p3100119351)" style="fill: #117733; fill-opacity: 0.6; stroke: #ffffff; stroke-opacity: 0.6; stroke-width: 0.339411"/>
    <path d="M 167.971733 137.009155 
L 165.850412 141.251795 
L 170.093053 141.251795 
z
" clip-path="url(#p3100119351)" style="fill: #117733; fill-opacity: 0.6; stroke: #ffffff; stroke-opacity: 0.6; stroke-width: 0.339411"/>
    <path d="M 138.613826 114.954426 
L 136.492506 119.197066 
L 140.735146 119.197066 
z
" clip-path="url(#p3100119351)" style="fill: #117733; fill-opacity: 0.6; stroke: #ffffff; stroke-opacity: 0.6; stroke-width: 0.339411"/>
    <path d="M 174.386577 146.625498 
L 172.265256 150.868139 
L 176.507897 150.868139 
z
" clip-path="url(#p3100119351)" style="fill: #117733; fill-opacity: 0.6; stroke: #ffffff; stroke-opacity: 0.6; stroke-width: 0.339411"/>
    <path d="M 211.848804 137.047323 
L 209.727484 141.289964 
L 213.970125 141.289964 
z
" clip-path="url(#p3100119351)" style="fill: #117733; fill-opacity: 0.6; stroke: #ffffff; stroke-opacity: 0.6; stroke-width: 0.339411"/>
    <path d="M 144.665904 116.777448 
L 142.544583 121.020089 
L 146.787224 121.020089 
z
" clip-path="url(#p3100119351)" style="fill: #117733; fill-opacity: 0.6; stroke: #ffffff; stroke-opacity: 0.6; stroke-width: 0.339411"/>
    <path d="M 192.771744 170.20203 
L 190.650423 174.44467 
L 194.893064 174.44467 
z
" clip-path="url(#p3100119351)" style="fill: #117733; fill-opacity: 0.6; stroke: #ffffff; stroke-opacity: 0.6; stroke-width: 0.339411"/>
    <path d="M 190.369724 172.506741 
L 188.248404 176.749381 
L 192.491044 176.749381 
z
" clip-path="url(#p3100119351)" style="fill: #117733; fill-opacity: 0.6; stroke: #ffffff; stroke-opacity: 0.6; stroke-width: 0.339411"/>
    <path d="M 143.955588 123.42272 
L 141.834267 127.66536 
L 146.076908 127.66536 
z
" clip-path="url(#p3100119351)" style="fill: #117733; fill-opacity: 0.6; stroke: #ffffff; stroke-opacity: 0.6; stroke-width: 0.339411"/>
    <path d="M 176.984963 135.748221 
L 174.863642 139.990861 
L 179.106283 139.990861 
z
" clip-path="url(#p3100119351)" style="fill: #117733; fill-opacity: 0.6; stroke: #ffffff; stroke-opacity: 0.6; stroke-width: 0.339411"/>
    <path d="M 146.437668 129.170462 
L 144.316347 133.413102 
L 148.558988 133.413102 
z
" clip-path="url(#p3100119351)" style="fill: #117733; fill-opacity: 0.6; stroke: #ffffff; stroke-opacity: 0.6; stroke-width: 0.339411"/>
    <path d="M 201.709346 154.489811 
L 199.588026 158.732452 
L 203.830667 158.732452 
z
" clip-path="url(#p3100119351)" style="fill: #117733; fill-opacity: 0.6; stroke: #ffffff; stroke-opacity: 0.6; stroke-width: 0.339411"/>
    <path d="M 200.161942 136.892002 
L 204.404583 136.892002 
L 204.404583 132.649361 
L 200.161942 132.649361 
z
" clip-path="url(#p3100119351)" style="fill: #44aa99; fill-opacity: 0.6; stroke: #ffffff; stroke-opacity: 0.6; stroke-width: 0.339411"/>
    <path d="M 201.240961 150.130579 
L 205.483602 150.130579 
L 205.483602 145.887938 
L 201.240961 145.887938 
z
" clip-path="url(#p3100119351)" style="fill: #44aa99; fill-opacity: 0.6; stroke: #ffffff; stroke-opacity: 0.6; stroke-width: 0.339411"/>
    <path d="M 178.094762 148.823462 
L 182.337403 148.823462 
L 182.337403 144.580821 
L 178.094762 144.580821 
z
" clip-path="url(#p3100119351)" style="fill: #44aa99; fill-opacity: 0.6; stroke: #ffffff; stroke-opacity: 0.6; stroke-width: 0.339411"/>
    <path d="M 195.135912 134.822949 
L 199.378552 134.822949 
L 199.378552 130.580308 
L 195.135912 130.580308 
z
" clip-path="url(#p3100119351)" style="fill: #44aa99; fill-opacity: 0.6; stroke: #ffffff; stroke-opacity: 0.6; stroke-width: 0.339411"/>
    <path d="M 169.64342 159.640684 
L 173.886061 159.640684 
L 173.886061 155.398044 
L 169.64342 155.398044 
z
" clip-path="url(#p3100119351)" style="fill: #44aa99; fill-opacity: 0.6; stroke: #ffffff; stroke-opacity: 0.6; stroke-width: 0.339411"/>
    <path d="M 187.834789 143.045322 
L 192.07743 143.045322 
L 192.07743 138.802681 
L 187.834789 138.802681 
z
" clip-path="url(#p3100119351)" style="fill: #44aa99; fill-opacity: 0.6; stroke: #ffffff; stroke-opacity: 0.6; stroke-width: 0.339411"/>
    <path d="M 188.895805 142.917967 
L 193.138445 142.917967 
L 193.138445 138.675326 
L 188.895805 138.675326 
z
" clip-path="url(#p3100119351)" style="fill: #44aa99; fill-opacity: 0.6; stroke: #ffffff; stroke-opacity: 0.6; stroke-width: 0.339411"/>
    <path d="M 184.979083 143.359304 
L 189.221724 143.359304 
L 189.221724 139.116663 
L 184.979083 139.116663 
z
" clip-path="url(#p3100119351)" style="fill: #44aa99; fill-opacity: 0.6; stroke: #ffffff; stroke-opacity: 0.6; stroke-width: 0.339411"/>
    <path d="M 204.880998 140.833593 
L 209.123638 140.833593 
L 209.123638 136.590952 
L 204.880998 136.590952 
z
" clip-path="url(#p3100119351)" style="fill: #44aa99; fill-opacity: 0.6; stroke: #ffffff; stroke-opacity: 0.6; stroke-width: 0.339411"/>
    <path d="M 164.944465 154.841964 
L 169.187106 154.841964 
L 169.187106 150.599324 
L 164.944465 150.599324 
z
" clip-path="url(#p3100119351)" style="fill: #44aa99; fill-opacity: 0.6; stroke: #ffffff; stroke-opacity: 0.6; stroke-width: 0.339411"/>
    <path d="M 196.844586 135.330068 
L 201.087227 135.330068 
L 201.087227 131.087428 
L 196.844586 131.087428 
z
" clip-path="url(#p3100119351)" style="fill: #44aa99; fill-opacity: 0.6; stroke: #ffffff; stroke-opacity: 0.6; stroke-width: 0.339411"/>
    <path d="M 161.092556 158.624524 
L 165.335197 158.624524 
L 165.335197 154.381884 
L 161.092556 154.381884 
z
" clip-path="url(#p3100119351)" style="fill: #44aa99; fill-opacity: 0.6; stroke: #ffffff; stroke-opacity: 0.6; stroke-width: 0.339411"/>
    <path d="M 167.278537 129.637282 
L 171.521177 129.637282 
L 171.521177 125.394641 
L 167.278537 125.394641 
z
" clip-path="url(#p3100119351)" style="fill: #44aa99; fill-opacity: 0.6; stroke: #ffffff; stroke-opacity: 0.6; stroke-width: 0.339411"/>
    <path d="M 166.089335 159.240091 
L 170.331976 159.240091 
L 170.331976 154.99745 
L 166.089335 154.99745 
z
" clip-path="url(#p3100119351)" style="fill: #44aa99; fill-opacity: 0.6; stroke: #ffffff; stroke-opacity: 0.6; stroke-width: 0.339411"/>
    <path d="M 203.858222 154.801524 
L 208.100862 154.801524 
L 208.100862 150.558884 
L 203.858222 150.558884 
z
" clip-path="url(#p3100119351)" style="fill: #44aa99; fill-opacity: 0.6; stroke: #ffffff; stroke-opacity: 0.6; stroke-width: 0.339411"/>
    <path d="M 195.151308 134.312016 
L 199.393949 134.312016 
L 199.393949 130.069375 
L 195.151308 130.069375 
z
" clip-path="url(#p3100119351)" style="fill: #44aa99; fill-opacity: 0.6; stroke: #ffffff; stroke-opacity: 0.6; stroke-width: 0.339411"/>
    <path d="M 200.584436 150.977449 
L 204.827076 150.977449 
L 204.827076 146.734808 
L 200.584436 146.734808 
z
" clip-path="url(#p3100119351)" style="fill: #44aa99; fill-opacity: 0.6; stroke: #ffffff; stroke-opacity: 0.6; stroke-width: 0.339411"/>
    <path d="M 165.851535 131.44977 
L 170.094176 131.44977 
L 170.094176 127.207129 
L 165.851535 127.207129 
z
" clip-path="url(#p3100119351)" style="fill: #44aa99; fill-opacity: 0.6; stroke: #ffffff; stroke-opacity: 0.6; stroke-width: 0.339411"/>
    <path d="M 158.144993 134.301082 
L 162.387634 134.301082 
L 162.387634 130.058441 
L 158.144993 130.058441 
z
" clip-path="url(#p3100119351)" style="fill: #44aa99; fill-opacity: 0.6; stroke: #ffffff; stroke-opacity: 0.6; stroke-width: 0.339411"/>
    <path d="M 171.733477 130.346782 
L 175.976118 130.346782 
L 175.976118 126.104141 
L 171.733477 126.104141 
z
" clip-path="url(#p3100119351)" style="fill: #44aa99; fill-opacity: 0.6; stroke: #ffffff; stroke-opacity: 0.6; stroke-width: 0.339411"/>
    <path d="M 194.021712 151.43984 
L 198.264353 151.43984 
L 198.264353 147.197199 
L 194.021712 147.197199 
z
" clip-path="url(#p3100119351)" style="fill: #44aa99; fill-opacity: 0.6; stroke: #ffffff; stroke-opacity: 0.6; stroke-width: 0.339411"/>
    <path d="M 174.609794 144.069667 
L 178.852435 144.069667 
L 178.852435 139.827026 
L 174.609794 139.827026 
z
" clip-path="url(#p3100119351)" style="fill: #44aa99; fill-opacity: 0.6; stroke: #ffffff; stroke-opacity: 0.6; stroke-width: 0.339411"/>
    <path d="M 193.794933 131.833759 
L 198.037574 131.833759 
L 198.037574 127.591118 
L 193.794933 127.591118 
z
" clip-path="url(#p3100119351)" style="fill: #44aa99; fill-opacity: 0.6; stroke: #ffffff; stroke-opacity: 0.6; stroke-width: 0.339411"/>
    <path d="M 170.294719 156.128645 
L 174.537359 156.128645 
L 174.537359 151.886004 
L 170.294719 151.886004 
z
" clip-path="url(#p3100119351)" style="fill: #44aa99; fill-opacity: 0.6; stroke: #ffffff; stroke-opacity: 0.6; stroke-width: 0.339411"/>
    <path d="M 181.319668 162.857758 
L 185.562309 162.857758 
L 185.562309 158.615117 
L 181.319668 158.615117 
z
" clip-path="url(#p3100119351)" style="fill: #44aa99; fill-opacity: 0.6; stroke: #ffffff; stroke-opacity: 0.6; stroke-width: 0.339411"/>
    <path d="M 202.252212 155.658834 
L 206.494853 155.658834 
L 206.494853 151.416193 
L 202.252212 151.416193 
z
" clip-path="url(#p3100119351)" style="fill: #44aa99; fill-opacity: 0.6; stroke: #ffffff; stroke-opacity: 0.6; stroke-width: 0.339411"/>
    <path d="M 169.615228 159.922565 
L 173.857868 159.922565 
L 173.857868 155.679924 
L 169.615228 155.679924 
z
" clip-path="url(#p3100119351)" style="fill: #44aa99; fill-opacity: 0.6; stroke: #ffffff; stroke-opacity: 0.6; stroke-width: 0.339411"/>
    <path d="M 190.025117 172.544002 
L 194.267758 172.544002 
L 194.267758 168.301361 
L 190.025117 168.301361 
z
" clip-path="url(#p3100119351)" style="fill: #44aa99; fill-opacity: 0.6; stroke: #ffffff; stroke-opacity: 0.6; stroke-width: 0.339411"/>
    <path d="M 196.597107 154.89726 
L 200.839748 154.89726 
L 200.839748 150.654619 
L 196.597107 150.654619 
z
" clip-path="url(#p3100119351)" style="fill: #44aa99; fill-opacity: 0.6; stroke: #ffffff; stroke-opacity: 0.6; stroke-width: 0.339411"/>
    <path d="M 167.877993 153.907437 
L 172.120634 153.907437 
L 172.120634 149.664796 
L 167.877993 149.664796 
z
" clip-path="url(#p3100119351)" style="fill: #44aa99; fill-opacity: 0.6; stroke: #ffffff; stroke-opacity: 0.6; stroke-width: 0.339411"/>
    <path d="M 211.327931 143.9301 
L 215.570572 143.9301 
L 215.570572 139.687459 
L 211.327931 139.687459 
z
" clip-path="url(#p3100119351)" style="fill: #44aa99; fill-opacity: 0.6; stroke: #ffffff; stroke-opacity: 0.6; stroke-width: 0.339411"/>
    <path d="M 177.555092 142.216905 
L 181.797732 142.216905 
L 181.797732 137.974265 
L 177.555092 137.974265 
z
" clip-path="url(#p3100119351)" style="fill: #44aa99; fill-opacity: 0.6; stroke: #ffffff; stroke-opacity: 0.6; stroke-width: 0.339411"/>
    <path d="M 168.975035 144.61375 
L 173.217675 144.61375 
L 173.217675 140.371109 
L 168.975035 140.371109 
z
" clip-path="url(#p3100119351)" style="fill: #44aa99; fill-opacity: 0.6; stroke: #ffffff; stroke-opacity: 0.6; stroke-width: 0.339411"/>
    <path d="M 176.187566 131.442739 
L 180.430207 131.442739 
L 180.430207 127.200099 
L 176.187566 127.200099 
z
" clip-path="url(#p3100119351)" style="fill: #44aa99; fill-opacity: 0.6; stroke: #ffffff; stroke-opacity: 0.6; stroke-width: 0.339411"/>
    <path d="M 200.986977 154.662825 
L 205.229618 154.662825 
L 205.229618 150.420184 
L 200.986977 150.420184 
z
" clip-path="url(#p3100119351)" style="fill: #44aa99; fill-opacity: 0.6; stroke: #ffffff; stroke-opacity: 0.6; stroke-width: 0.339411"/>
    <path d="M 191.389171 144.40335 
L 195.631812 144.40335 
L 195.631812 140.160709 
L 191.389171 140.160709 
z
" clip-path="url(#p3100119351)" style="fill: #44aa99; fill-opacity: 0.6; stroke: #ffffff; stroke-opacity: 0.6; stroke-width: 0.339411"/>
    <path d="M 167.904056 158.971123 
L 172.146697 158.971123 
L 172.146697 154.728482 
L 167.904056 154.728482 
z
" clip-path="url(#p3100119351)" style="fill: #44aa99; fill-opacity: 0.6; stroke: #ffffff; stroke-opacity: 0.6; stroke-width: 0.339411"/>
    <path d="M 196.617743 139.696413 
L 200.860384 139.696413 
L 200.860384 135.453772 
L 196.617743 135.453772 
z
" clip-path="url(#p3100119351)" style="fill: #44aa99; fill-opacity: 0.6; stroke: #ffffff; stroke-opacity: 0.6; stroke-width: 0.339411"/>
    <path d="M 167.024804 158.238664 
L 171.267445 158.238664 
L 171.267445 153.996023 
L 167.024804 153.996023 
z
" clip-path="url(#p3100119351)" style="fill: #44aa99; fill-opacity: 0.6; stroke: #ffffff; stroke-opacity: 0.6; stroke-width: 0.339411"/>
    <path d="M 163.633396 159.026173 
L 167.876036 159.026173 
L 167.876036 154.783532 
L 163.633396 154.783532 
z
" clip-path="url(#p3100119351)" style="fill: #44aa99; fill-opacity: 0.6; stroke: #ffffff; stroke-opacity: 0.6; stroke-width: 0.339411"/>
    <path d="M 174.584692 143.144944 
L 178.827333 143.144944 
L 178.827333 138.902303 
L 174.584692 138.902303 
z
" clip-path="url(#p3100119351)" style="fill: #44aa99; fill-opacity: 0.6; stroke: #ffffff; stroke-opacity: 0.6; stroke-width: 0.339411"/>
    <path d="M 201.060733 152.850656 
L 205.303374 152.850656 
L 205.303374 148.608015 
L 201.060733 148.608015 
z
" clip-path="url(#p3100119351)" style="fill: #44aa99; fill-opacity: 0.6; stroke: #ffffff; stroke-opacity: 0.6; stroke-width: 0.339411"/>
    <path d="M 192.163073 158.198831 
L 196.405714 158.198831 
L 196.405714 153.95619 
L 192.163073 153.95619 
z
" clip-path="url(#p3100119351)" style="fill: #44aa99; fill-opacity: 0.6; stroke: #ffffff; stroke-opacity: 0.6; stroke-width: 0.339411"/>
    <path d="M 183.721953 163.959721 
L 187.964593 163.959721 
L 187.964593 159.71708 
L 183.721953 159.71708 
z
" clip-path="url(#p3100119351)" style="fill: #44aa99; fill-opacity: 0.6; stroke: #ffffff; stroke-opacity: 0.6; stroke-width: 0.339411"/>
    <path d="M 169.748505 153.14532 
L 173.991146 153.14532 
L 173.991146 148.90268 
L 169.748505 148.90268 
z
" clip-path="url(#p3100119351)" style="fill: #44aa99; fill-opacity: 0.6; stroke: #ffffff; stroke-opacity: 0.6; stroke-width: 0.339411"/>
    <path d="M 201.211175 146.595127 
L 205.453815 146.595127 
L 205.453815 142.352486 
L 201.211175 142.352486 
z
" clip-path="url(#p3100119351)" style="fill: #44aa99; fill-opacity: 0.6; stroke: #ffffff; stroke-opacity: 0.6; stroke-width: 0.339411"/>
    <path d="M 168.822367 152.898212 
L 173.065007 152.898212 
L 173.065007 148.655571 
L 168.822367 148.655571 
z
" clip-path="url(#p3100119351)" style="fill: #44aa99; fill-opacity: 0.6; stroke: #ffffff; stroke-opacity: 0.6; stroke-width: 0.339411"/>
    <path d="M 166.140784 157.036086 
L 170.383425 157.036086 
L 170.383425 152.793446 
L 166.140784 152.793446 
z
" clip-path="url(#p3100119351)" style="fill: #44aa99; fill-opacity: 0.6; stroke: #ffffff; stroke-opacity: 0.6; stroke-width: 0.339411"/>
    <path d="M 163.44434 155.125639 
L 167.686981 155.125639 
L 167.686981 150.882998 
L 163.44434 150.882998 
z
" clip-path="url(#p3100119351)" style="fill: #44aa99; fill-opacity: 0.6; stroke: #ffffff; stroke-opacity: 0.6; stroke-width: 0.339411"/>
    <path d="M 190.105184 141.926502 
L 194.347825 141.926502 
L 194.347825 137.683861 
L 190.105184 137.683861 
z
" clip-path="url(#p3100119351)" style="fill: #44aa99; fill-opacity: 0.6; stroke: #ffffff; stroke-opacity: 0.6; stroke-width: 0.339411"/>
    <path d="M 208.599849 145.366087 
L 212.84249 145.366087 
L 212.84249 141.123446 
L 208.599849 141.123446 
z
" clip-path="url(#p3100119351)" style="fill: #44aa99; fill-opacity: 0.6; stroke: #ffffff; stroke-opacity: 0.6; stroke-width: 0.339411"/>
    <path d="M 177.189112 157.534381 
L 181.431753 157.534381 
L 181.431753 153.29174 
L 177.189112 153.29174 
z
" clip-path="url(#p3100119351)" style="fill: #44aa99; fill-opacity: 0.6; stroke: #ffffff; stroke-opacity: 0.6; stroke-width: 0.339411"/>
    <path d="M 175.176767 128.459386 
L 179.419407 128.459386 
L 179.419407 124.216745 
L 175.176767 124.216745 
z
" clip-path="url(#p3100119351)" style="fill: #44aa99; fill-opacity: 0.6; stroke: #ffffff; stroke-opacity: 0.6; stroke-width: 0.339411"/>
    <path d="M 173.24243 144.710994 
L 177.48507 144.710994 
L 177.48507 140.468354 
L 173.24243 140.468354 
z
" clip-path="url(#p3100119351)" style="fill: #44aa99; fill-opacity: 0.6; stroke: #ffffff; stroke-opacity: 0.6; stroke-width: 0.339411"/>
    <path d="M 187.021447 129.824043 
L 191.264088 129.824043 
L 191.264088 125.581403 
L 187.021447 125.581403 
z
" clip-path="url(#p3100119351)" style="fill: #44aa99; fill-opacity: 0.6; stroke: #ffffff; stroke-opacity: 0.6; stroke-width: 0.339411"/>
    <path d="M 195.599536 138.033404 
L 199.842176 138.033404 
L 199.842176 133.790763 
L 195.599536 133.790763 
z
" clip-path="url(#p3100119351)" style="fill: #44aa99; fill-opacity: 0.6; stroke: #ffffff; stroke-opacity: 0.6; stroke-width: 0.339411"/>
    <path d="M 197.871518 135.979854 
L 202.114159 135.979854 
L 202.114159 131.737213 
L 197.871518 131.737213 
z
" clip-path="url(#p3100119351)" style="fill: #44aa99; fill-opacity: 0.6; stroke: #ffffff; stroke-opacity: 0.6; stroke-width: 0.339411"/>
    <path d="M 175.74412 133.688403 
L 179.986761 133.688403 
L 179.986761 129.445763 
L 175.74412 129.445763 
z
" clip-path="url(#p3100119351)" style="fill: #44aa99; fill-opacity: 0.6; stroke: #ffffff; stroke-opacity: 0.6; stroke-width: 0.339411"/>
    <path d="M 201.146465 158.245412 
L 205.389106 158.245412 
L 205.389106 154.002772 
L 201.146465 154.002772 
z
" clip-path="url(#p3100119351)" style="fill: #44aa99; fill-opacity: 0.6; stroke: #ffffff; stroke-opacity: 0.6; stroke-width: 0.339411"/>
    <path d="M 166.013663 149.211311 
L 170.256304 149.211311 
L 170.256304 144.968671 
L 166.013663 144.968671 
z
" clip-path="url(#p3100119351)" style="fill: #44aa99; fill-opacity: 0.6; stroke: #ffffff; stroke-opacity: 0.6; stroke-width: 0.339411"/>
    <path d="M 169.410273 130.841499 
L 173.652913 130.841499 
L 173.652913 126.598858 
L 169.410273 126.598858 
z
" clip-path="url(#p3100119351)" style="fill: #44aa99; fill-opacity: 0.6; stroke: #ffffff; stroke-opacity: 0.6; stroke-width: 0.339411"/>
    <path d="M 202.672628 154.414717 
L 206.915268 154.414717 
L 206.915268 150.172077 
L 202.672628 150.172077 
z
" clip-path="url(#p3100119351)" style="fill: #44aa99; fill-opacity: 0.6; stroke: #ffffff; stroke-opacity: 0.6; stroke-width: 0.339411"/>
    <path d="M 206.80299 143.588708 
L 211.045631 143.588708 
L 211.045631 139.346067 
L 206.80299 139.346067 
z
" clip-path="url(#p3100119351)" style="fill: #44aa99; fill-opacity: 0.6; stroke: #ffffff; stroke-opacity: 0.6; stroke-width: 0.339411"/>
    <path d="M 186.24886 161.630457 
L 187.309521 160.569797 
L 188.370181 161.630457 
L 189.430841 160.569797 
L 188.370181 159.509137 
L 189.430841 158.448477 
L 188.370181 157.387817 
L 187.309521 158.448477 
L 186.24886 157.387817 
L 185.1882 158.448477 
L 186.24886 159.509137 
L 185.1882 160.569797 
z
" clip-path="url(#p3100119351)" style="fill: #88ccee; fill-opacity: 0.6; stroke: #ffffff; stroke-opacity: 0.6; stroke-width: 0.339411"/>
    <path d="M 160.908875 135.964138 
L 161.969536 134.903478 
L 163.030196 135.964138 
L 164.090856 134.903478 
L 163.030196 133.842817 
L 164.090856 132.782157 
L 163.030196 131.721497 
L 161.969536 132.782157 
L 160.908875 131.721497 
L 159.848215 132.782157 
L 160.908875 133.842817 
L 159.848215 134.903478 
z
" clip-path="url(#p3100119351)" style="fill: #88ccee; fill-opacity: 0.6; stroke: #ffffff; stroke-opacity: 0.6; stroke-width: 0.339411"/>
    <path d="M 198.792809 173.305713 
L 199.85347 172.245053 
L 200.91413 173.305713 
L 201.97479 172.245053 
L 200.91413 171.184392 
L 201.97479 170.123732 
L 200.91413 169.063072 
L 199.85347 170.123732 
L 198.792809 169.063072 
L 197.732149 170.123732 
L 198.792809 171.184392 
L 197.732149 172.245053 
z
" clip-path="url(#p3100119351)" style="fill: #88ccee; fill-opacity: 0.6; stroke: #ffffff; stroke-opacity: 0.6; stroke-width: 0.339411"/>
    <path d="M 172.240238 134.632367 
L 173.300898 133.571707 
L 174.361558 134.632367 
L 175.422219 133.571707 
L 174.361558 132.511047 
L 175.422219 131.450387 
L 174.361558 130.389727 
L 173.300898 131.450387 
L 172.240238 130.389727 
L 171.179578 131.450387 
L 172.240238 132.511047 
L 171.179578 133.571707 
z
" clip-path="url(#p3100119351)" style="fill: #88ccee; fill-opacity: 0.6; stroke: #ffffff; stroke-opacity: 0.6; stroke-width: 0.339411"/>
    <path d="M 189.911837 175.310599 
L 190.972497 174.249939 
L 192.033157 175.310599 
L 193.093817 174.249939 
L 192.033157 173.189279 
L 193.093817 172.128619 
L 192.033157 171.067959 
L 190.972497 172.128619 
L 189.911837 171.067959 
L 188.851177 172.128619 
L 189.911837 173.189279 
L 188.851177 174.249939 
z
" clip-path="url(#p3100119351)" style="fill: #88ccee; fill-opacity: 0.6; stroke: #ffffff; stroke-opacity: 0.6; stroke-width: 0.339411"/>
    <path d="M 199.445902 175.250024 
L 200.506562 174.189364 
L 201.567222 175.250024 
L 202.627882 174.189364 
L 201.567222 173.128704 
L 202.627882 172.068044 
L 201.567222 171.007383 
L 200.506562 172.068044 
L 199.445902 171.007383 
L 198.385242 172.068044 
L 199.445902 173.128704 
L 198.385242 174.189364 
z
" clip-path="url(#p3100119351)" style="fill: #88ccee; fill-opacity: 0.6; stroke: #ffffff; stroke-opacity: 0.6; stroke-width: 0.339411"/>
    <path d="M 167.235838 148.306045 
L 168.296498 147.245385 
L 169.357158 148.306045 
L 170.417818 147.245385 
L 169.357158 146.184725 
L 170.417818 145.124065 
L 169.357158 144.063404 
L 168.296498 145.124065 
L 167.235838 144.063404 
L 166.175178 145.124065 
L 167.235838 146.184725 
L 166.175178 147.245385 
z
" clip-path="url(#p3100119351)" style="fill: #88ccee; fill-opacity: 0.6; stroke: #ffffff; stroke-opacity: 0.6; stroke-width: 0.339411"/>
    <path d="M 189.844611 161.820798 
L 190.905271 160.760138 
L 191.965932 161.820798 
L 193.026592 160.760138 
L 191.965932 159.699477 
L 193.026592 158.638817 
L 191.965932 157.578157 
L 190.905271 158.638817 
L 189.844611 157.578157 
L 188.783951 158.638817 
L 189.844611 159.699477 
L 188.783951 160.760138 
z
" clip-path="url(#p3100119351)" style="fill: #88ccee; fill-opacity: 0.6; stroke: #ffffff; stroke-opacity: 0.6; stroke-width: 0.339411"/>
    <path d="M 196.415788 178.472203 
L 197.476448 177.411543 
L 198.537108 178.472203 
L 199.597769 177.411543 
L 198.537108 176.350883 
L 199.597769 175.290222 
L 198.537108 174.229562 
L 197.476448 175.290222 
L 196.415788 174.229562 
L 195.355128 175.290222 
L 196.415788 176.350883 
L 195.355128 177.411543 
z
" clip-path="url(#p3100119351)" style="fill: #88ccee; fill-opacity: 0.6; stroke: #ffffff; stroke-opacity: 0.6; stroke-width: 0.339411"/>
    <path d="M 171.399071 143.406963 
L 172.459731 142.346303 
L 173.520391 143.406963 
L 174.581052 142.346303 
L 173.520391 141.285643 
L 174.581052 140.224983 
L 173.520391 139.164323 
L 172.459731 140.224983 
L 171.399071 139.164323 
L 170.338411 140.224983 
L 171.399071 141.285643 
L 170.338411 142.346303 
z
" clip-path="url(#p3100119351)" style="fill: #88ccee; fill-opacity: 0.6; stroke: #ffffff; stroke-opacity: 0.6; stroke-width: 0.339411"/>
    <path d="M 200.045603 177.745739 
L 201.106264 176.685079 
L 202.166924 177.745739 
L 203.227584 176.685079 
L 202.166924 175.624419 
L 203.227584 174.563759 
L 202.166924 173.503099 
L 201.106264 174.563759 
L 200.045603 173.503099 
L 198.984943 174.563759 
L 200.045603 175.624419 
L 198.984943 176.685079 
z
" clip-path="url(#p3100119351)" style="fill: #88ccee; fill-opacity: 0.6; stroke: #ffffff; stroke-opacity: 0.6; stroke-width: 0.339411"/>
    <path d="M 164.401955 144.519435 
L 165.462615 143.458775 
L 166.523275 144.519435 
L 167.583935 143.458775 
L 166.523275 142.398115 
L 167.583935 141.337455 
L 166.523275 140.276795 
L 165.462615 141.337455 
L 164.401955 140.276795 
L 163.341295 141.337455 
L 164.401955 142.398115 
L 163.341295 143.458775 
z
" clip-path="url(#p3100119351)" style="fill: #88ccee; fill-opacity: 0.6; stroke: #ffffff; stroke-opacity: 0.6; stroke-width: 0.339411"/>
    <path d="M 168.870672 133.902286 
L 169.931333 132.841626 
L 170.991993 133.902286 
L 172.052653 132.841626 
L 170.991993 131.780966 
L 172.052653 130.720306 
L 170.991993 129.659645 
L 169.931333 130.720306 
L 168.870672 129.659645 
L 167.810012 130.720306 
L 168.870672 131.780966 
L 167.810012 132.841626 
z
" clip-path="url(#p3100119351)" style="fill: #88ccee; fill-opacity: 0.6; stroke: #ffffff; stroke-opacity: 0.6; stroke-width: 0.339411"/>
    <path d="M 193.500586 157.410629 
L 194.561247 156.349969 
L 195.621907 157.410629 
L 196.682567 156.349969 
L 195.621907 155.289309 
L 196.682567 154.228648 
L 195.621907 153.167988 
L 194.561247 154.228648 
L 193.500586 153.167988 
L 192.439926 154.228648 
L 193.500586 155.289309 
L 192.439926 156.349969 
z
" clip-path="url(#p3100119351)" style="fill: #88ccee; fill-opacity: 0.6; stroke: #ffffff; stroke-opacity: 0.6; stroke-width: 0.339411"/>
    <path d="M 196.093959 157.447588 
L 197.154619 156.386927 
L 198.215279 157.447588 
L 199.275939 156.386927 
L 198.215279 155.326267 
L 199.275939 154.265607 
L 198.215279 153.204947 
L 197.154619 154.265607 
L 196.093959 153.204947 
L 195.033299 154.265607 
L 196.093959 155.326267 
L 195.033299 156.386927 
z
" clip-path="url(#p3100119351)" style="fill: #88ccee; fill-opacity: 0.6; stroke: #ffffff; stroke-opacity: 0.6; stroke-width: 0.339411"/>
    <path d="M 199.680682 168.993483 
L 200.741342 167.932823 
L 201.802002 168.993483 
L 202.862663 167.932823 
L 201.802002 166.872162 
L 202.862663 165.811502 
L 201.802002 164.750842 
L 200.741342 165.811502 
L 199.680682 164.750842 
L 198.620022 165.811502 
L 199.680682 166.872162 
L 198.620022 167.932823 
z
" clip-path="url(#p3100119351)" style="fill: #88ccee; fill-opacity: 0.6; stroke: #ffffff; stroke-opacity: 0.6; stroke-width: 0.339411"/>
    <path d="M 201.51742 173.00352 
L 202.57808 171.94286 
L 203.63874 173.00352 
L 204.6994 171.94286 
L 203.63874 170.8822 
L 204.6994 169.82154 
L 203.63874 168.76088 
L 202.57808 169.82154 
L 201.51742 168.76088 
L 200.45676 169.82154 
L 201.51742 170.8822 
L 200.45676 171.94286 
z
" clip-path="url(#p3100119351)" style="fill: #88ccee; fill-opacity: 0.6; stroke: #ffffff; stroke-opacity: 0.6; stroke-width: 0.339411"/>
    <path d="M 198.952698 178.142229 
L 200.013358 177.081568 
L 201.074018 178.142229 
L 202.134679 177.081568 
L 201.074018 176.020908 
L 202.134679 174.960248 
L 201.074018 173.899588 
L 200.013358 174.960248 
L 198.952698 173.899588 
L 197.892038 174.960248 
L 198.952698 176.020908 
L 197.892038 177.081568 
z
" clip-path="url(#p3100119351)" style="fill: #88ccee; fill-opacity: 0.6; stroke: #ffffff; stroke-opacity: 0.6; stroke-width: 0.339411"/>
    <path d="M 188.839671 159.243988 
L 189.900331 158.183328 
L 190.960991 159.243988 
L 192.021652 158.183328 
L 190.960991 157.122668 
L 192.021652 156.062008 
L 190.960991 155.001348 
L 189.900331 156.062008 
L 188.839671 155.001348 
L 187.779011 156.062008 
L 188.839671 157.122668 
L 187.779011 158.183328 
z
" clip-path="url(#p3100119351)" style="fill: #88ccee; fill-opacity: 0.6; stroke: #ffffff; stroke-opacity: 0.6; stroke-width: 0.339411"/>
    <path d="M 160.310161 140.027362 
L 161.370821 138.966702 
L 162.431481 140.027362 
L 163.492142 138.966702 
L 162.431481 137.906041 
L 163.492142 136.845381 
L 162.431481 135.784721 
L 161.370821 136.845381 
L 160.310161 135.784721 
L 159.249501 136.845381 
L 160.310161 137.906041 
L 159.249501 138.966702 
z
" clip-path="url(#p3100119351)" style="fill: #88ccee; fill-opacity: 0.6; stroke: #ffffff; stroke-opacity: 0.6; stroke-width: 0.339411"/>
    <path d="M 195.77253 159.113166 
L 196.83319 158.052506 
L 197.89385 159.113166 
L 198.95451 158.052506 
L 197.89385 156.991846 
L 198.95451 155.931186 
L 197.89385 154.870526 
L 196.83319 155.931186 
L 195.77253 154.870526 
L 194.71187 155.931186 
L 195.77253 156.991846 
L 194.71187 158.052506 
z
" clip-path="url(#p3100119351)" style="fill: #88ccee; fill-opacity: 0.6; stroke: #ffffff; stroke-opacity: 0.6; stroke-width: 0.339411"/>
    <path d="M 186.985859 155.386821 
L 188.046519 154.326161 
L 189.107179 155.386821 
L 190.16784 154.326161 
L 189.107179 153.2655 
L 190.16784 152.20484 
L 189.107179 151.14418 
L 188.046519 152.20484 
L 186.985859 151.14418 
L 185.925199 152.20484 
L 186.985859 153.2655 
L 185.925199 154.326161 
z
" clip-path="url(#p3100119351)" style="fill: #88ccee; fill-opacity: 0.6; stroke: #ffffff; stroke-opacity: 0.6; stroke-width: 0.339411"/>
    <path d="M 199.913643 158.602683 
L 200.974303 157.542023 
L 202.034963 158.602683 
L 203.095623 157.542023 
L 202.034963 156.481363 
L 203.095623 155.420703 
L 202.034963 154.360043 
L 200.974303 155.420703 
L 199.913643 154.360043 
L 198.852983 155.420703 
L 199.913643 156.481363 
L 198.852983 157.542023 
z
" clip-path="url(#p3100119351)" style="fill: #88ccee; fill-opacity: 0.6; stroke: #ffffff; stroke-opacity: 0.6; stroke-width: 0.339411"/>
    <path d="M 168.393717 146.502425 
L 169.454377 145.441765 
L 170.515037 146.502425 
L 171.575697 145.441765 
L 170.515037 144.381105 
L 171.575697 143.320445 
L 170.515037 142.259784 
L 169.454377 143.320445 
L 168.393717 142.259784 
L 167.333057 143.320445 
L 168.393717 144.381105 
L 167.333057 145.441765 
z
" clip-path="url(#p3100119351)" style="fill: #88ccee; fill-opacity: 0.6; stroke: #ffffff; stroke-opacity: 0.6; stroke-width: 0.339411"/>
    <path d="M 201.151311 174.48051 
L 202.211971 173.419849 
L 203.272632 174.48051 
L 204.333292 173.419849 
L 203.272632 172.359189 
L 204.333292 171.298529 
L 203.272632 170.237869 
L 202.211971 171.298529 
L 201.151311 170.237869 
L 200.090651 171.298529 
L 201.151311 172.359189 
L 200.090651 173.419849 
z
" clip-path="url(#p3100119351)" style="fill: #88ccee; fill-opacity: 0.6; stroke: #ffffff; stroke-opacity: 0.6; stroke-width: 0.339411"/>
    <path d="M 191.612755 154.795535 
L 192.673415 153.734875 
L 193.734075 154.795535 
L 194.794736 153.734875 
L 193.734075 152.674215 
L 194.794736 151.613555 
L 193.734075 150.552895 
L 192.673415 151.613555 
L 191.612755 150.552895 
L 190.552095 151.613555 
L 191.612755 152.674215 
L 190.552095 153.734875 
z
" clip-path="url(#p3100119351)" style="fill: #88ccee; fill-opacity: 0.6; stroke: #ffffff; stroke-opacity: 0.6; stroke-width: 0.339411"/>
    <path d="M 135.805516 153.456921 
L 136.866176 152.396261 
L 137.926836 153.456921 
L 138.987497 152.396261 
L 137.926836 151.335601 
L 138.987497 150.27494 
L 137.926836 149.21428 
L 136.866176 150.27494 
L 135.805516 149.21428 
L 134.744856 150.27494 
L 135.805516 151.335601 
L 134.744856 152.396261 
z
" clip-path="url(#p3100119351)" style="fill: #88ccee; fill-opacity: 0.6; stroke: #ffffff; stroke-opacity: 0.6; stroke-width: 0.339411"/>
    <path d="M 185.367634 160.216828 
L 186.428294 159.156168 
L 187.488954 160.216828 
L 188.549615 159.156168 
L 187.488954 158.095508 
L 188.549615 157.034848 
L 187.488954 155.974187 
L 186.428294 157.034848 
L 185.367634 155.974187 
L 184.306974 157.034848 
L 185.367634 158.095508 
L 184.306974 159.156168 
z
" clip-path="url(#p3100119351)" style="fill: #88ccee; fill-opacity: 0.6; stroke: #ffffff; stroke-opacity: 0.6; stroke-width: 0.339411"/>
    <path d="M 165.950444 147.70098 
L 167.011104 146.640319 
L 168.071764 147.70098 
L 169.132425 146.640319 
L 168.071764 145.579659 
L 169.132425 144.518999 
L 168.071764 143.458339 
L 167.011104 144.518999 
L 165.950444 143.458339 
L 164.889784 144.518999 
L 165.950444 145.579659 
L 164.889784 146.640319 
z
" clip-path="url(#p3100119351)" style="fill: #88ccee; fill-opacity: 0.6; stroke: #ffffff; stroke-opacity: 0.6; stroke-width: 0.339411"/>
    <path d="M 172.187815 139.880982 
L 173.248475 138.820322 
L 174.309136 139.880982 
L 175.369796 138.820322 
L 174.309136 137.759662 
L 175.369796 136.699002 
L 174.309136 135.638341 
L 173.248475 136.699002 
L 172.187815 135.638341 
L 171.127155 136.699002 
L 172.187815 137.759662 
L 171.127155 138.820322 
z
" clip-path="url(#p3100119351)" style="fill: #88ccee; fill-opacity: 0.6; stroke: #ffffff; stroke-opacity: 0.6; stroke-width: 0.339411"/>
    <path d="M 168.918372 143.515061 
L 169.979032 142.454401 
L 171.039692 143.515061 
L 172.100352 142.454401 
L 171.039692 141.393741 
L 172.100352 140.333081 
L 171.039692 139.272421 
L 169.979032 140.333081 
L 168.918372 139.272421 
L 167.857712 140.333081 
L 168.918372 141.393741 
L 167.857712 142.454401 
z
" clip-path="url(#p3100119351)" style="fill: #88ccee; fill-opacity: 0.6; stroke: #ffffff; stroke-opacity: 0.6; stroke-width: 0.339411"/>
    <path d="M 186.275678 157.967805 
L 187.336339 156.907144 
L 188.396999 157.967805 
L 189.457659 156.907144 
L 188.396999 155.846484 
L 189.457659 154.785824 
L 188.396999 153.725164 
L 187.336339 154.785824 
L 186.275678 153.725164 
L 185.215018 154.785824 
L 186.275678 155.846484 
L 185.215018 156.907144 
z
" clip-path="url(#p3100119351)" style="fill: #88ccee; fill-opacity: 0.6; stroke: #ffffff; stroke-opacity: 0.6; stroke-width: 0.339411"/>
    <path d="M 183.563264 156.493313 
L 184.623924 155.432652 
L 185.684584 156.493313 
L 186.745244 155.432652 
L 185.684584 154.371992 
L 186.745244 153.311332 
L 185.684584 152.250672 
L 184.623924 153.311332 
L 183.563264 152.250672 
L 182.502604 153.311332 
L 183.563264 154.371992 
L 182.502604 155.432652 
z
" clip-path="url(#p3100119351)" style="fill: #88ccee; fill-opacity: 0.6; stroke: #ffffff; stroke-opacity: 0.6; stroke-width: 0.339411"/>
    <path d="M 146.850424 125.651863 
L 147.911084 124.591203 
L 148.971745 125.651863 
L 150.032405 124.591203 
L 148.971745 123.530543 
L 150.032405 122.469883 
L 148.971745 121.409222 
L 147.911084 122.469883 
L 146.850424 121.409222 
L 145.789764 122.469883 
L 146.850424 123.530543 
L 145.789764 124.591203 
z
" clip-path="url(#p3100119351)" style="fill: #88ccee; fill-opacity: 0.6; stroke: #ffffff; stroke-opacity: 0.6; stroke-width: 0.339411"/>
    <path d="M 166.224296 136.660884 
L 167.284957 135.600224 
L 168.345617 136.660884 
L 169.406277 135.600224 
L 168.345617 134.539563 
L 169.406277 133.478903 
L 168.345617 132.418243 
L 167.284957 133.478903 
L 166.224296 132.418243 
L 165.163636 133.478903 
L 166.224296 134.539563 
L 165.163636 135.600224 
z
" clip-path="url(#p3100119351)" style="fill: #88ccee; fill-opacity: 0.6; stroke: #ffffff; stroke-opacity: 0.6; stroke-width: 0.339411"/>
    <path d="M 169.543782 149.889186 
L 170.604442 148.828526 
L 171.665102 149.889186 
L 172.725762 148.828526 
L 171.665102 147.767866 
L 172.725762 146.707205 
L 171.665102 145.646545 
L 170.604442 146.707205 
L 169.543782 145.646545 
L 168.483121 146.707205 
L 169.543782 147.767866 
L 168.483121 148.828526 
z
" clip-path="url(#p3100119351)" style="fill: #88ccee; fill-opacity: 0.6; stroke: #ffffff; stroke-opacity: 0.6; stroke-width: 0.339411"/>
    <path d="M 170.168398 129.211681 
L 171.229058 128.151021 
L 172.289718 129.211681 
L 173.350378 128.151021 
L 172.289718 127.090361 
L 173.350378 126.029701 
L 172.289718 124.969041 
L 171.229058 126.029701 
L 170.168398 124.969041 
L 169.107737 126.029701 
L 170.168398 127.090361 
L 169.107737 128.151021 
z
" clip-path="url(#p3100119351)" style="fill: #88ccee; fill-opacity: 0.6; stroke: #ffffff; stroke-opacity: 0.6; stroke-width: 0.339411"/>
    <path d="M 197.581236 171.913311 
L 198.641896 170.852651 
L 199.702557 171.913311 
L 200.763217 170.852651 
L 199.702557 169.79199 
L 200.763217 168.73133 
L 199.702557 167.67067 
L 198.641896 168.73133 
L 197.581236 167.67067 
L 196.520576 168.73133 
L 197.581236 169.79199 
L 196.520576 170.852651 
z
" clip-path="url(#p3100119351)" style="fill: #88ccee; fill-opacity: 0.6; stroke: #ffffff; stroke-opacity: 0.6; stroke-width: 0.339411"/>
    <path d="M 163.498815 145.68218 
L 164.559475 144.62152 
L 165.620135 145.68218 
L 166.680795 144.62152 
L 165.620135 143.560859 
L 166.680795 142.500199 
L 165.620135 141.439539 
L 164.559475 142.500199 
L 163.498815 141.439539 
L 162.438155 142.500199 
L 163.498815 143.560859 
L 162.438155 144.62152 
z
" clip-path="url(#p3100119351)" style="fill: #88ccee; fill-opacity: 0.6; stroke: #ffffff; stroke-opacity: 0.6; stroke-width: 0.339411"/>
    <path d="M 185.44432 159.082343 
L 186.50498 158.021683 
L 187.56564 159.082343 
L 188.6263 158.021683 
L 187.56564 156.961023 
L 188.6263 155.900363 
L 187.56564 154.839703 
L 186.50498 155.900363 
L 185.44432 154.839703 
L 184.38366 155.900363 
L 185.44432 156.961023 
L 184.38366 158.021683 
z
" clip-path="url(#p3100119351)" style="fill: #88ccee; fill-opacity: 0.6; stroke: #ffffff; stroke-opacity: 0.6; stroke-width: 0.339411"/>
    <path d="M 169.25361 138.767373 
L 170.31427 137.706713 
L 171.37493 138.767373 
L 172.435591 137.706713 
L 171.37493 136.646052 
L 172.435591 135.585392 
L 171.37493 134.524732 
L 170.31427 135.585392 
L 169.25361 134.524732 
L 168.19295 135.585392 
L 169.25361 136.646052 
L 168.19295 137.706713 
z
" clip-path="url(#p3100119351)" style="fill: #88ccee; fill-opacity: 0.6; stroke: #ffffff; stroke-opacity: 0.6; stroke-width: 0.339411"/>
    <path d="M 162.971488 138.628954 
L 164.032149 137.568294 
L 165.092809 138.628954 
L 166.153469 137.568294 
L 165.092809 136.507634 
L 166.153469 135.446974 
L 165.092809 134.386314 
L 164.032149 135.446974 
L 162.971488 134.386314 
L 161.910828 135.446974 
L 162.971488 136.507634 
L 161.910828 137.568294 
z
" clip-path="url(#p3100119351)" style="fill: #88ccee; fill-opacity: 0.6; stroke: #ffffff; stroke-opacity: 0.6; stroke-width: 0.339411"/>
    <path d="M 165.325363 146.764972 
L 166.386024 145.704312 
L 167.446684 146.764972 
L 168.507344 145.704312 
L 167.446684 144.643652 
L 168.507344 143.582991 
L 167.446684 142.522331 
L 166.386024 143.582991 
L 165.325363 142.522331 
L 164.264703 143.582991 
L 165.325363 144.643652 
L 164.264703 145.704312 
z
" clip-path="url(#p3100119351)" style="fill: #88ccee; fill-opacity: 0.6; stroke: #ffffff; stroke-opacity: 0.6; stroke-width: 0.339411"/>
    <path d="M 197.85978 176.14488 
L 198.92044 175.08422 
L 199.9811 176.14488 
L 201.04176 175.08422 
L 199.9811 174.02356 
L 201.04176 172.9629 
L 199.9811 171.90224 
L 198.92044 172.9629 
L 197.85978 171.90224 
L 196.79912 172.9629 
L 197.85978 174.02356 
L 196.79912 175.08422 
z
" clip-path="url(#p3100119351)" style="fill: #88ccee; fill-opacity: 0.6; stroke: #ffffff; stroke-opacity: 0.6; stroke-width: 0.339411"/>
    <path d="M 194.94041 168.79333 
L 196.00107 167.73267 
L 197.06173 168.79333 
L 198.12239 167.73267 
L 197.06173 166.67201 
L 198.12239 165.61135 
L 197.06173 164.55069 
L 196.00107 165.61135 
L 194.94041 164.55069 
L 193.879749 165.61135 
L 194.94041 166.67201 
L 193.879749 167.73267 
z
" clip-path="url(#p3100119351)" style="fill: #88ccee; fill-opacity: 0.6; stroke: #ffffff; stroke-opacity: 0.6; stroke-width: 0.339411"/>
    <path d="M 171.878924 130.005801 
L 172.939584 128.94514 
L 174.000244 130.005801 
L 175.060905 128.94514 
L 174.000244 127.88448 
L 175.060905 126.82382 
L 174.000244 125.76316 
L 172.939584 126.82382 
L 171.878924 125.76316 
L 170.818264 126.82382 
L 171.878924 127.88448 
L 170.818264 128.94514 
z
" clip-path="url(#p3100119351)" style="fill: #88ccee; fill-opacity: 0.6; stroke: #ffffff; stroke-opacity: 0.6; stroke-width: 0.339411"/>
    <path d="M 171.85279 128.090487 
L 172.91345 127.029826 
L 173.97411 128.090487 
L 175.034771 127.029826 
L 173.97411 125.969166 
L 175.034771 124.908506 
L 173.97411 123.847846 
L 172.91345 124.908506 
L 171.85279 123.847846 
L 170.79213 124.908506 
L 171.85279 125.969166 
L 170.79213 127.029826 
z
" clip-path="url(#p3100119351)" style="fill: #88ccee; fill-opacity: 0.6; stroke: #ffffff; stroke-opacity: 0.6; stroke-width: 0.339411"/>
    <path d="M 169.686912 143.171681 
L 170.747572 142.111021 
L 171.808232 143.171681 
L 172.868893 142.111021 
L 171.808232 141.050361 
L 172.868893 139.989701 
L 171.808232 138.929041 
L 170.747572 139.989701 
L 169.686912 138.929041 
L 168.626252 139.989701 
L 169.686912 141.050361 
L 168.626252 142.111021 
z
" clip-path="url(#p3100119351)" style="fill: #88ccee; fill-opacity: 0.6; stroke: #ffffff; stroke-opacity: 0.6; stroke-width: 0.339411"/>
    <path d="M 167.87436 146.534139 
L 168.93502 145.473479 
L 169.99568 146.534139 
L 171.05634 145.473479 
L 169.99568 144.412819 
L 171.05634 143.352159 
L 169.99568 142.291498 
L 168.93502 143.352159 
L 167.87436 142.291498 
L 166.8137 143.352159 
L 167.87436 144.412819 
L 166.8137 145.473479 
z
" clip-path="url(#p3100119351)" style="fill: #88ccee; fill-opacity: 0.6; stroke: #ffffff; stroke-opacity: 0.6; stroke-width: 0.339411"/>
    <path d="M 196.994118 177.544854 
L 198.054778 176.484194 
L 199.115438 177.544854 
L 200.176098 176.484194 
L 199.115438 175.423534 
L 200.176098 174.362874 
L 199.115438 173.302213 
L 198.054778 174.362874 
L 196.994118 173.302213 
L 195.933458 174.362874 
L 196.994118 175.423534 
L 195.933458 176.484194 
z
" clip-path="url(#p3100119351)" style="fill: #88ccee; fill-opacity: 0.6; stroke: #ffffff; stroke-opacity: 0.6; stroke-width: 0.339411"/>
    <path d="M 191.964474 161.92984 
L 193.025134 160.86918 
L 194.085794 161.92984 
L 195.146454 160.86918 
L 194.085794 159.80852 
L 195.146454 158.74786 
L 194.085794 157.6872 
L 193.025134 158.74786 
L 191.964474 157.6872 
L 190.903814 158.74786 
L 191.964474 159.80852 
L 190.903814 160.86918 
z
" clip-path="url(#p3100119351)" style="fill: #88ccee; fill-opacity: 0.6; stroke: #ffffff; stroke-opacity: 0.6; stroke-width: 0.339411"/>
    <path d="M 164.15425 155.283341 
L 165.21491 154.22268 
L 166.27557 155.283341 
L 167.33623 154.22268 
L 166.27557 153.16202 
L 167.33623 152.10136 
L 166.27557 151.0407 
L 165.21491 152.10136 
L 164.15425 151.0407 
L 163.093589 152.10136 
L 164.15425 153.16202 
L 163.093589 154.22268 
z
" clip-path="url(#p3100119351)" style="fill: #88ccee; fill-opacity: 0.6; stroke: #ffffff; stroke-opacity: 0.6; stroke-width: 0.339411"/>
    <path d="M 175.678824 149.488203 
L 176.739484 148.427543 
L 177.800144 149.488203 
L 178.860804 148.427543 
L 177.800144 147.366883 
L 178.860804 146.306222 
L 177.800144 145.245562 
L 176.739484 146.306222 
L 175.678824 145.245562 
L 174.618163 146.306222 
L 175.678824 147.366883 
L 174.618163 148.427543 
z
" clip-path="url(#p3100119351)" style="fill: #88ccee; fill-opacity: 0.6; stroke: #ffffff; stroke-opacity: 0.6; stroke-width: 0.339411"/>
    <path d="M 195.676434 160.303686 
L 196.737094 159.243026 
L 197.797754 160.303686 
L 198.858415 159.243026 
L 197.797754 158.182366 
L 198.858415 157.121705 
L 197.797754 156.061045 
L 196.737094 157.121705 
L 195.676434 156.061045 
L 194.615774 157.121705 
L 195.676434 158.182366 
L 194.615774 159.243026 
z
" clip-path="url(#p3100119351)" style="fill: #88ccee; fill-opacity: 0.6; stroke: #ffffff; stroke-opacity: 0.6; stroke-width: 0.339411"/>
    <path d="M 200.757468 178.361307 
L 201.818128 177.300647 
L 202.878789 178.361307 
L 203.939449 177.300647 
L 202.878789 176.239986 
L 203.939449 175.179326 
L 202.878789 174.118666 
L 201.818128 175.179326 
L 200.757468 174.118666 
L 199.696808 175.179326 
L 200.757468 176.239986 
L 199.696808 177.300647 
z
" clip-path="url(#p3100119351)" style="fill: #88ccee; fill-opacity: 0.6; stroke: #ffffff; stroke-opacity: 0.6; stroke-width: 0.339411"/>
    <path d="M 169.648027 132.477227 
L 170.708687 131.416567 
L 171.769348 132.477227 
L 172.830008 131.416567 
L 171.769348 130.355907 
L 172.830008 129.295247 
L 171.769348 128.234586 
L 170.708687 129.295247 
L 169.648027 128.234586 
L 168.587367 129.295247 
L 169.648027 130.355907 
L 168.587367 131.416567 
z
" clip-path="url(#p3100119351)" style="fill: #88ccee; fill-opacity: 0.6; stroke: #ffffff; stroke-opacity: 0.6; stroke-width: 0.339411"/>
    <path d="M 199.743068 172.019881 
L 200.803728 170.959221 
L 201.864389 172.019881 
L 202.925049 170.959221 
L 201.864389 169.898561 
L 202.925049 168.8379 
L 201.864389 167.77724 
L 200.803728 168.8379 
L 199.743068 167.77724 
L 198.682408 168.8379 
L 199.743068 169.898561 
L 198.682408 170.959221 
z
" clip-path="url(#p3100119351)" style="fill: #88ccee; fill-opacity: 0.6; stroke: #ffffff; stroke-opacity: 0.6; stroke-width: 0.339411"/>
    <path d="M 178.74357 156.117926 
L 179.80423 155.057266 
L 180.86489 156.117926 
L 181.92555 155.057266 
L 180.86489 153.996606 
L 181.92555 152.935946 
L 180.86489 151.875286 
L 179.80423 152.935946 
L 178.74357 151.875286 
L 177.68291 152.935946 
L 178.74357 153.996606 
L 177.68291 155.057266 
z
" clip-path="url(#p3100119351)" style="fill: #88ccee; fill-opacity: 0.6; stroke: #ffffff; stroke-opacity: 0.6; stroke-width: 0.339411"/>
    <path d="M 166.234182 134.143519 
L 167.294842 133.082859 
L 168.355502 134.143519 
L 169.416163 133.082859 
L 168.355502 132.022199 
L 169.416163 130.961539 
L 168.355502 129.900879 
L 167.294842 130.961539 
L 166.234182 129.900879 
L 165.173522 130.961539 
L 166.234182 132.022199 
L 165.173522 133.082859 
z
" clip-path="url(#p3100119351)" style="fill: #88ccee; fill-opacity: 0.6; stroke: #ffffff; stroke-opacity: 0.6; stroke-width: 0.339411"/>
    <path d="M 198.649105 164.439484 
L 199.709765 163.378824 
L 200.770425 164.439484 
L 201.831085 163.378824 
L 200.770425 162.318164 
L 201.831085 161.257503 
L 200.770425 160.196843 
L 199.709765 161.257503 
L 198.649105 160.196843 
L 197.588444 161.257503 
L 198.649105 162.318164 
L 197.588444 163.378824 
z
" clip-path="url(#p3100119351)" style="fill: #88ccee; fill-opacity: 0.6; stroke: #ffffff; stroke-opacity: 0.6; stroke-width: 0.339411"/>
    <path d="M 163.484051 144.345399 
L 164.544711 143.284739 
L 165.605371 144.345399 
L 166.666031 143.284739 
L 165.605371 142.224078 
L 166.666031 141.163418 
L 165.605371 140.102758 
L 164.544711 141.163418 
L 163.484051 140.102758 
L 162.423391 141.163418 
L 163.484051 142.224078 
L 162.423391 143.284739 
z
" clip-path="url(#p3100119351)" style="fill: #88ccee; fill-opacity: 0.6; stroke: #ffffff; stroke-opacity: 0.6; stroke-width: 0.339411"/>
    <path d="M 166.825276 149.452574 
L 167.885936 148.391913 
L 168.946596 149.452574 
L 170.007256 148.391913 
L 168.946596 147.331253 
L 170.007256 146.270593 
L 168.946596 145.209933 
L 167.885936 146.270593 
L 166.825276 145.209933 
L 165.764615 146.270593 
L 166.825276 147.331253 
L 165.764615 148.391913 
z
" clip-path="url(#p3100119351)" style="fill: #88ccee; fill-opacity: 0.6; stroke: #ffffff; stroke-opacity: 0.6; stroke-width: 0.339411"/>
    <path d="M 176.361812 150.160923 
L 177.422472 149.100263 
L 178.483132 150.160923 
L 179.543792 149.100263 
L 178.483132 148.039603 
L 179.543792 146.978943 
L 178.483132 145.918283 
L 177.422472 146.978943 
L 176.361812 145.918283 
L 175.301152 146.978943 
L 176.361812 148.039603 
L 175.301152 149.100263 
z
" clip-path="url(#p3100119351)" style="fill: #88ccee; fill-opacity: 0.6; stroke: #ffffff; stroke-opacity: 0.6; stroke-width: 0.339411"/>
    <path d="M 197.771363 157.868409 
L 198.832023 156.807749 
L 199.892683 157.868409 
L 200.953343 156.807749 
L 199.892683 155.747089 
L 200.953343 154.686428 
L 199.892683 153.625768 
L 198.832023 154.686428 
L 197.771363 153.625768 
L 196.710703 154.686428 
L 197.771363 155.747089 
L 196.710703 156.807749 
z
" clip-path="url(#p3100119351)" style="fill: #88ccee; fill-opacity: 0.6; stroke: #ffffff; stroke-opacity: 0.6; stroke-width: 0.339411"/>
   </g>
   <g id="matplotlib.axis_1">
    <g id="xtick_1">
     <g id="line2d_1">
      <defs>
       <path id="m7f63d7e528" d="M 0 0 
L 0 8 
" style="stroke: #000000"/>
      </defs>
      <g>
       <use xlink:href="#m7f63d7e528" x="79.994282" y="188.936063" style="stroke: #000000"/>
      </g>
     </g>
     <g id="text_1">
      <!-- 0 -->
      <g transform="translate(76.176782 209.554188) scale(0.12 -0.12)">
       <defs>
        <path id="DejaVuSans-30" d="M 2034 4250 
Q 1547 4250 1301 3770 
Q 1056 3291 1056 2328 
Q 1056 1369 1301 889 
Q 1547 409 2034 409 
Q 2525 409 2770 889 
Q 3016 1369 3016 2328 
Q 3016 3291 2770 3770 
Q 2525 4250 2034 4250 
z
M 2034 4750 
Q 2819 4750 3233 4129 
Q 3647 3509 3647 2328 
Q 3647 1150 3233 529 
Q 2819 -91 2034 -91 
Q 1250 -91 836 529 
Q 422 1150 422 2328 
Q 422 3509 836 4129 
Q 1250 4750 2034 4750 
z
" transform="scale(0.015625)"/>
       </defs>
       <use xlink:href="#DejaVuSans-30"/>
      </g>
     </g>
    </g>
    <g id="xtick_2">
     <g id="line2d_2">
      <g>
       <use xlink:href="#m7f63d7e528" x="147.657262" y="188.936063" style="stroke: #000000"/>
      </g>
     </g>
     <g id="text_2">
      <!-- 10 -->
      <g transform="translate(140.022262 209.554188) scale(0.12 -0.12)">
       <defs>
        <path id="DejaVuSans-31" d="M 794 531 
L 1825 531 
L 1825 4091 
L 703 3866 
L 703 4441 
L 1819 4666 
L 2450 4666 
L 2450 531 
L 3481 531 
L 3481 0 
L 794 0 
L 794 531 
z
" transform="scale(0.015625)"/>
       </defs>
       <use xlink:href="#DejaVuSans-31"/>
       <use xlink:href="#DejaVuSans-30" x="63.623047"/>
      </g>
     </g>
    </g>
    <g id="xtick_3">
     <g id="line2d_3">
      <g>
       <use xlink:href="#m7f63d7e528" x="215.320241" y="188.936063" style="stroke: #000000"/>
      </g>
     </g>
     <g id="text_3">
      <!-- 20 -->
      <g transform="translate(207.685241 209.554188) scale(0.12 -0.12)">
       <defs>
        <path id="DejaVuSans-32" d="M 1228 531 
L 3431 531 
L 3431 0 
L 469 0 
L 469 531 
Q 828 903 1448 1529 
Q 2069 2156 2228 2338 
Q 2531 2678 2651 2914 
Q 2772 3150 2772 3378 
Q 2772 3750 2511 3984 
Q 2250 4219 1831 4219 
Q 1534 4219 1204 4116 
Q 875 4013 500 3803 
L 500 4441 
Q 881 4594 1212 4672 
Q 1544 4750 1819 4750 
Q 2544 4750 2975 4387 
Q 3406 4025 3406 3419 
Q 3406 3131 3298 2873 
Q 3191 2616 2906 2266 
Q 2828 2175 2409 1742 
Q 1991 1309 1228 531 
z
" transform="scale(0.015625)"/>
       </defs>
       <use xlink:href="#DejaVuSans-32"/>
       <use xlink:href="#DejaVuSans-30" x="63.623047"/>
      </g>
     </g>
    </g>
    <g id="text_4">
     <!-- UMAP 1 -->
     <g transform="translate(117.956572 225.167938) scale(0.12 -0.12)">
      <defs>
       <path id="DejaVuSans-55" d="M 556 4666 
L 1191 4666 
L 1191 1831 
Q 1191 1081 1462 751 
Q 1734 422 2344 422 
Q 2950 422 3222 751 
Q 3494 1081 3494 1831 
L 3494 4666 
L 4128 4666 
L 4128 1753 
Q 4128 841 3676 375 
Q 3225 -91 2344 -91 
Q 1459 -91 1007 375 
Q 556 841 556 1753 
L 556 4666 
z
" transform="scale(0.015625)"/>
       <path id="DejaVuSans-4d" d="M 628 4666 
L 1569 4666 
L 2759 1491 
L 3956 4666 
L 4897 4666 
L 4897 0 
L 4281 0 
L 4281 4097 
L 3078 897 
L 2444 897 
L 1241 4097 
L 1241 0 
L 628 0 
L 628 4666 
z
" transform="scale(0.015625)"/>
       <path id="DejaVuSans-41" d="M 2188 4044 
L 1331 1722 
L 3047 1722 
L 2188 4044 
z
M 1831 4666 
L 2547 4666 
L 4325 0 
L 3669 0 
L 3244 1197 
L 1141 1197 
L 716 0 
L 50 0 
L 1831 4666 
z
" transform="scale(0.015625)"/>
       <path id="DejaVuSans-50" d="M 1259 4147 
L 1259 2394 
L 2053 2394 
Q 2494 2394 2734 2622 
Q 2975 2850 2975 3272 
Q 2975 3691 2734 3919 
Q 2494 4147 2053 4147 
L 1259 4147 
z
M 628 4666 
L 2053 4666 
Q 2838 4666 3239 4311 
Q 3641 3956 3641 3272 
Q 3641 2581 3239 2228 
Q 2838 1875 2053 1875 
L 1259 1875 
L 1259 0 
L 628 0 
L 628 4666 
z
" transform="scale(0.015625)"/>
       <path id="DejaVuSans-20" transform="scale(0.015625)"/>
      </defs>
      <use xlink:href="#DejaVuSans-55"/>
      <use xlink:href="#DejaVuSans-4d" x="73.193359"/>
      <use xlink:href="#DejaVuSans-41" x="159.472656"/>
      <use xlink:href="#DejaVuSans-50" x="227.880859"/>
      <use xlink:href="#DejaVuSans-20" x="288.183594"/>
      <use xlink:href="#DejaVuSans-31" x="319.970703"/>
     </g>
    </g>
   </g>
   <g id="matplotlib.axis_2">
    <g id="ytick_1">
     <g id="line2d_4">
      <defs>
       <path id="me17b53a1f1" d="M 0 0 
L -8 0 
" style="stroke: #000000"/>
      </defs>
      <g>
       <use xlink:href="#me17b53a1f1" x="53.957638" y="162.899418" style="stroke: #000000"/>
      </g>
     </g>
     <g id="text_5">
      <!-- 0 -->
      <g transform="translate(34.822638 167.458481) scale(0.12 -0.12)">
       <use xlink:href="#DejaVuSans-30"/>
      </g>
     </g>
    </g>
    <g id="ytick_2">
     <g id="line2d_5">
      <g>
       <use xlink:href="#me17b53a1f1" x="53.957638" y="95.236439" style="stroke: #000000"/>
      </g>
     </g>
     <g id="text_6">
      <!-- 10 -->
      <g transform="translate(27.187638 99.795501) scale(0.12 -0.12)">
       <use xlink:href="#DejaVuSans-31"/>
       <use xlink:href="#DejaVuSans-30" x="63.623047"/>
      </g>
     </g>
    </g>
    <g id="ytick_3">
     <g id="line2d_6">
      <g>
       <use xlink:href="#me17b53a1f1" x="53.957638" y="27.57346" style="stroke: #000000"/>
      </g>
     </g>
     <g id="text_7">
      <!-- 20 -->
      <g transform="translate(27.187638 32.132522) scale(0.12 -0.12)">
       <use xlink:href="#DejaVuSans-32"/>
       <use xlink:href="#DejaVuSans-30" x="63.623047"/>
      </g>
     </g>
    </g>
    <g id="text_8">
     <!-- UMAP 2 -->
     <g transform="translate(20.692013 124.937128) rotate(-90) scale(0.12 -0.12)">
      <use xlink:href="#DejaVuSans-55"/>
      <use xlink:href="#DejaVuSans-4d" x="73.193359"/>
      <use xlink:href="#DejaVuSans-41" x="159.472656"/>
      <use xlink:href="#DejaVuSans-50" x="227.880859"/>
      <use xlink:href="#DejaVuSans-20" x="288.183594"/>
      <use xlink:href="#DejaVuSans-32" x="319.970703"/>
     </g>
    </g>
   </g>
   <g id="patch_3">
    <path d="M 53.957638 188.936063 
L 53.957638 14.908819 
" style="fill: none; stroke: #000000; stroke-width: 2; stroke-linejoin: miter; stroke-linecap: square"/>
   </g>
   <g id="patch_4">
    <path d="M 53.957638 188.936063 
L 227.984882 188.936063 
" style="fill: none; stroke: #000000; stroke-width: 2; stroke-linejoin: miter; stroke-linecap: square"/>
   </g>
  </g>
 </g>
 <defs>
  <clipPath id="p3100119351">
   <rect x="53.957638" y="14.908819" width="174.027244" height="174.027244"/>
  </clipPath>
 </defs>
</svg>
