<?xml version="1.0" encoding="utf-8" standalone="no"?>
<!DOCTYPE svg PUBLIC "-//W3C//DTD SVG 1.1//EN"
  "http://www.w3.org/Graphics/SVG/1.1/DTD/svg11.dtd">
<svg xmlns:xlink="http://www.w3.org/1999/xlink" width="240.944882pt" height="240.944882pt" viewBox="0 0 240.944882 240.944882" xmlns="http://www.w3.org/2000/svg" version="1.1">
 <metadata>
  <rdf:RDF xmlns:dc="http://purl.org/dc/elements/1.1/" xmlns:cc="http://creativecommons.org/ns#" xmlns:rdf="http://www.w3.org/1999/02/22-rdf-syntax-ns#">
   <cc:Work>
    <dc:type rdf:resource="http://purl.org/dc/dcmitype/StillImage"/>
    <dc:date>2025-02-17T14:56:08.289825</dc:date>
    <dc:format>image/svg+xml</dc:format>
    <dc:creator>
     <cc:Agent>
      <dc:title>Matplotlib v3.6.2, https://matplotlib.org/</dc:title>
     </cc:Agent>
    </dc:creator>
   </cc:Work>
  </rdf:RDF>
 </metadata>
 <defs>
  <style type="text/css">*{stroke-linejoin: round; stroke-linecap: butt}</style>
 </defs>
 <g id="figure_1">
  <g id="patch_1">
   <path d="M 0 240.944882 
L 240.944882 240.944882 
L 240.944882 0 
L 0 0 
L 0 240.944882 
z
" style="fill: none"/>
  </g>
  <g id="axes_1">
   <g id="patch_2">
    <path d="M 64.037638 182.532244 
L 221.427288 182.532244 
L 221.427288 25.142594 
L 64.037638 25.142594 
L 64.037638 182.532244 
z
" style="fill: none"/>
   </g>
   <g id="PathCollection_1">
    <path d="M 158.671037 118.796263 
L 160.471037 115.796263 
L 158.671037 112.796263 
L 156.871037 115.796263 
z
" clip-path="url(#p85dd75d617)" style="fill: #882e72; fill-opacity: 0.6; stroke: #ffffff; stroke-opacity: 0.6; stroke-width: 0.339411"/>
    <path d="M 194.586312 110.721857 
L 196.386312 107.721857 
L 194.586312 104.721857 
L 192.786312 107.721857 
z
" clip-path="url(#p85dd75d617)" style="fill: #882e72; fill-opacity: 0.6; stroke: #ffffff; stroke-opacity: 0.6; stroke-width: 0.339411"/>
    <path d="M 190.915272 111.613018 
L 192.715272 108.613018 
L 190.915272 105.613018 
L 189.115272 108.613018 
z
" clip-path="url(#p85dd75d617)" style="fill: #882e72; fill-opacity: 0.6; stroke: #ffffff; stroke-opacity: 0.6; stroke-width: 0.339411"/>
    <path d="M 141.093051 119.600884 
L 142.893051 116.600884 
L 141.093051 113.600884 
L 139.293051 116.600884 
z
" clip-path="url(#p85dd75d617)" style="fill: #882e72; fill-opacity: 0.6; stroke: #ffffff; stroke-opacity: 0.6; stroke-width: 0.339411"/>
    <path d="M 118.682157 110.90153 
L 120.482157 107.90153 
L 118.682157 104.90153 
L 116.882157 107.90153 
z
" clip-path="url(#p85dd75d617)" style="fill: #882e72; fill-opacity: 0.6; stroke: #ffffff; stroke-opacity: 0.6; stroke-width: 0.339411"/>
    <path d="M 173.12629 114.001416 
L 174.92629 111.001416 
L 173.12629 108.001416 
L 171.32629 111.001416 
z
" clip-path="url(#p85dd75d617)" style="fill: #882e72; fill-opacity: 0.6; stroke: #ffffff; stroke-opacity: 0.6; stroke-width: 0.339411"/>
    <path d="M 125.296875 119.794125 
L 127.096875 116.794125 
L 125.296875 113.794125 
L 123.496875 116.794125 
z
" clip-path="url(#p85dd75d617)" style="fill: #882e72; fill-opacity: 0.6; stroke: #ffffff; stroke-opacity: 0.6; stroke-width: 0.339411"/>
    <path d="M 120.322517 105.706771 
L 122.122517 102.706771 
L 120.322517 99.706771 
L 118.522517 102.706771 
z
" clip-path="url(#p85dd75d617)" style="fill: #882e72; fill-opacity: 0.6; stroke: #ffffff; stroke-opacity: 0.6; stroke-width: 0.339411"/>
    <path d="M 157.272909 111.4442 
L 159.072909 108.4442 
L 157.272909 105.4442 
L 155.472909 108.4442 
z
" clip-path="url(#p85dd75d617)" style="fill: #882e72; fill-opacity: 0.6; stroke: #ffffff; stroke-opacity: 0.6; stroke-width: 0.339411"/>
    <path d="M 193.842073 110.724318 
L 195.642073 107.724318 
L 193.842073 104.724318 
L 192.042073 107.724318 
z
" clip-path="url(#p85dd75d617)" style="fill: #882e72; fill-opacity: 0.6; stroke: #ffffff; stroke-opacity: 0.6; stroke-width: 0.339411"/>
    <path d="M 154.946454 118.521929 
L 156.746454 115.521929 
L 154.946454 112.521929 
L 153.146454 115.521929 
z
" clip-path="url(#p85dd75d617)" style="fill: #882e72; fill-opacity: 0.6; stroke: #ffffff; stroke-opacity: 0.6; stroke-width: 0.339411"/>
    <path d="M 75.064601 116.903978 
L 76.864601 113.903978 
L 75.064601 110.903978 
L 73.264601 113.903978 
z
" clip-path="url(#p85dd75d617)" style="fill: #882e72; fill-opacity: 0.6; stroke: #ffffff; stroke-opacity: 0.6; stroke-width: 0.339411"/>
    <path d="M 176.652942 112.000826 
L 178.452942 109.000826 
L 176.652942 106.000826 
L 174.852942 109.000826 
z
" clip-path="url(#p85dd75d617)" style="fill: #882e72; fill-opacity: 0.6; stroke: #ffffff; stroke-opacity: 0.6; stroke-width: 0.339411"/>
    <path d="M 133.903086 118.93603 
L 135.703086 115.93603 
L 133.903086 112.93603 
L 132.103086 115.93603 
z
" clip-path="url(#p85dd75d617)" style="fill: #882e72; fill-opacity: 0.6; stroke: #ffffff; stroke-opacity: 0.6; stroke-width: 0.339411"/>
    <path d="M 165.550012 116.697492 
L 167.350012 113.697492 
L 165.550012 110.697492 
L 163.750012 113.697492 
z
" clip-path="url(#p85dd75d617)" style="fill: #882e72; fill-opacity: 0.6; stroke: #ffffff; stroke-opacity: 0.6; stroke-width: 0.339411"/>
    <path d="M 98.901154 121.280109 
L 100.701154 118.280109 
L 98.901154 115.280109 
L 97.101154 118.280109 
z
" clip-path="url(#p85dd75d617)" style="fill: #882e72; fill-opacity: 0.6; stroke: #ffffff; stroke-opacity: 0.6; stroke-width: 0.339411"/>
    <path d="M 165.550012 116.697492 
L 167.350012 113.697492 
L 165.550012 110.697492 
L 163.750012 113.697492 
z
" clip-path="url(#p85dd75d617)" style="fill: #882e72; fill-opacity: 0.6; stroke: #ffffff; stroke-opacity: 0.6; stroke-width: 0.339411"/>
    <path d="M 130.483048 117.389829 
L 132.283048 114.389829 
L 130.483048 111.389829 
L 128.683048 114.389829 
z
" clip-path="url(#p85dd75d617)" style="fill: #882e72; fill-opacity: 0.6; stroke: #ffffff; stroke-opacity: 0.6; stroke-width: 0.339411"/>
    <path d="M 111.418239 106.235218 
L 113.218239 103.235218 
L 111.418239 100.235218 
L 109.618239 103.235218 
z
" clip-path="url(#p85dd75d617)" style="fill: #882e72; fill-opacity: 0.6; stroke: #ffffff; stroke-opacity: 0.6; stroke-width: 0.339411"/>
    <path d="M 122.754278 117.087221 
L 124.554278 114.087221 
L 122.754278 111.087221 
L 120.954278 114.087221 
z
" clip-path="url(#p85dd75d617)" style="fill: #882e72; fill-opacity: 0.6; stroke: #ffffff; stroke-opacity: 0.6; stroke-width: 0.339411"/>
    <path d="M 119.836332 104.466358 
L 121.636332 101.466358 
L 119.836332 98.466358 
L 118.036332 101.466358 
z
" clip-path="url(#p85dd75d617)" style="fill: #882e72; fill-opacity: 0.6; stroke: #ffffff; stroke-opacity: 0.6; stroke-width: 0.339411"/>
    <path d="M 187.158656 111.663802 
L 188.958656 108.663802 
L 187.158656 105.663802 
L 185.358656 108.663802 
z
" clip-path="url(#p85dd75d617)" style="fill: #882e72; fill-opacity: 0.6; stroke: #ffffff; stroke-opacity: 0.6; stroke-width: 0.339411"/>
    <path d="M 166.71265 117.093645 
L 168.51265 114.093645 
L 166.71265 111.093645 
L 164.91265 114.093645 
z
" clip-path="url(#p85dd75d617)" style="fill: #882e72; fill-opacity: 0.6; stroke: #ffffff; stroke-opacity: 0.6; stroke-width: 0.339411"/>
    <path d="M 170.029221 114.341541 
L 171.829221 111.341541 
L 170.029221 108.341541 
L 168.229221 111.341541 
z
" clip-path="url(#p85dd75d617)" style="fill: #882e72; fill-opacity: 0.6; stroke: #ffffff; stroke-opacity: 0.6; stroke-width: 0.339411"/>
    <path d="M 106.173069 119.801749 
L 107.973069 116.801749 
L 106.173069 113.801749 
L 104.373069 116.801749 
z
" clip-path="url(#p85dd75d617)" style="fill: #882e72; fill-opacity: 0.6; stroke: #ffffff; stroke-opacity: 0.6; stroke-width: 0.339411"/>
    <path d="M 155.969533 117.063836 
L 157.769533 114.063836 
L 155.969533 111.063836 
L 154.169533 114.063836 
z
" clip-path="url(#p85dd75d617)" style="fill: #882e72; fill-opacity: 0.6; stroke: #ffffff; stroke-opacity: 0.6; stroke-width: 0.339411"/>
    <path d="M 110.928307 113.64174 
L 112.728307 110.64174 
L 110.928307 107.64174 
L 109.128307 110.64174 
z
" clip-path="url(#p85dd75d617)" style="fill: #882e72; fill-opacity: 0.6; stroke: #ffffff; stroke-opacity: 0.6; stroke-width: 0.339411"/>
    <path d="M 180.622574 113.22328 
L 182.422574 110.22328 
L 180.622574 107.22328 
L 178.822574 110.22328 
z
" clip-path="url(#p85dd75d617)" style="fill: #882e72; fill-opacity: 0.6; stroke: #ffffff; stroke-opacity: 0.6; stroke-width: 0.339411"/>
    <path d="M 192.190026 111.508458 
L 193.990026 108.508458 
L 192.190026 105.508458 
L 190.390026 108.508458 
z
" clip-path="url(#p85dd75d617)" style="fill: #882e72; fill-opacity: 0.6; stroke: #ffffff; stroke-opacity: 0.6; stroke-width: 0.339411"/>
    <path d="M 110.47141 105.127806 
L 112.27141 102.127806 
L 110.47141 99.127806 
L 108.67141 102.127806 
z
" clip-path="url(#p85dd75d617)" style="fill: #882e72; fill-opacity: 0.6; stroke: #ffffff; stroke-opacity: 0.6; stroke-width: 0.339411"/>
    <path d="M 97.764807 121.20904 
L 99.564807 118.20904 
L 97.764807 115.20904 
L 95.964807 118.20904 
z
" clip-path="url(#p85dd75d617)" style="fill: #882e72; fill-opacity: 0.6; stroke: #ffffff; stroke-opacity: 0.6; stroke-width: 0.339411"/>
    <path d="M 132.740444 121.772907 
L 134.540444 118.772907 
L 132.740444 115.772907 
L 130.940444 118.772907 
z
" clip-path="url(#p85dd75d617)" style="fill: #882e72; fill-opacity: 0.6; stroke: #ffffff; stroke-opacity: 0.6; stroke-width: 0.339411"/>
    <path d="M 116.070515 120.859537 
L 117.870515 117.859537 
L 116.070515 114.859537 
L 114.270515 117.859537 
z
" clip-path="url(#p85dd75d617)" style="fill: #882e72; fill-opacity: 0.6; stroke: #ffffff; stroke-opacity: 0.6; stroke-width: 0.339411"/>
    <path d="M 135.187641 117.168488 
L 136.987641 114.168488 
L 135.187641 111.168488 
L 133.387641 114.168488 
z
" clip-path="url(#p85dd75d617)" style="fill: #882e72; fill-opacity: 0.6; stroke: #ffffff; stroke-opacity: 0.6; stroke-width: 0.339411"/>
    <path d="M 115.597996 123.828699 
L 117.397996 120.828699 
L 115.597996 117.828699 
L 113.797996 120.828699 
z
" clip-path="url(#p85dd75d617)" style="fill: #882e72; fill-opacity: 0.6; stroke: #ffffff; stroke-opacity: 0.6; stroke-width: 0.339411"/>
    <path d="M 169.190042 117.003851 
L 170.990042 114.003851 
L 169.190042 111.003851 
L 167.390042 114.003851 
z
" clip-path="url(#p85dd75d617)" style="fill: #882e72; fill-opacity: 0.6; stroke: #ffffff; stroke-opacity: 0.6; stroke-width: 0.339411"/>
    <path d="M 156.842679 117.724467 
L 158.642679 114.724467 
L 156.842679 111.724467 
L 155.042679 114.724467 
z
" clip-path="url(#p85dd75d617)" style="fill: #882e72; fill-opacity: 0.6; stroke: #ffffff; stroke-opacity: 0.6; stroke-width: 0.339411"/>
    <path d="M 135.187641 117.168488 
L 136.987641 114.168488 
L 135.187641 111.168488 
L 133.387641 114.168488 
z
" clip-path="url(#p85dd75d617)" style="fill: #882e72; fill-opacity: 0.6; stroke: #ffffff; stroke-opacity: 0.6; stroke-width: 0.339411"/>
    <path d="M 83.587217 122.602619 
L 85.387217 119.602619 
L 83.587217 116.602619 
L 81.787217 119.602619 
z
" clip-path="url(#p85dd75d617)" style="fill: #882e72; fill-opacity: 0.6; stroke: #ffffff; stroke-opacity: 0.6; stroke-width: 0.339411"/>
    <path d="M 126.764151 118.833566 
L 128.564151 115.833566 
L 126.764151 112.833566 
L 124.964151 115.833566 
z
" clip-path="url(#p85dd75d617)" style="fill: #882e72; fill-opacity: 0.6; stroke: #ffffff; stroke-opacity: 0.6; stroke-width: 0.339411"/>
    <path d="M 84.008028 121.960978 
L 85.808028 118.960978 
L 84.008028 115.960978 
L 82.208028 118.960978 
z
" clip-path="url(#p85dd75d617)" style="fill: #882e72; fill-opacity: 0.6; stroke: #ffffff; stroke-opacity: 0.6; stroke-width: 0.339411"/>
    <path d="M 132.740444 121.772907 
L 134.540444 118.772907 
L 132.740444 115.772907 
L 130.940444 118.772907 
z
" clip-path="url(#p85dd75d617)" style="fill: #882e72; fill-opacity: 0.6; stroke: #ffffff; stroke-opacity: 0.6; stroke-width: 0.339411"/>
    <path d="M 186.197251 110.702262 
L 187.997251 107.702262 
L 186.197251 104.702262 
L 184.397251 107.702262 
z
" clip-path="url(#p85dd75d617)" style="fill: #882e72; fill-opacity: 0.6; stroke: #ffffff; stroke-opacity: 0.6; stroke-width: 0.339411"/>
    <path d="M 135.693889 119.313521 
L 137.493889 116.313521 
L 135.693889 113.313521 
L 133.893889 116.313521 
z
" clip-path="url(#p85dd75d617)" style="fill: #882e72; fill-opacity: 0.6; stroke: #ffffff; stroke-opacity: 0.6; stroke-width: 0.339411"/>
    <path d="M 140.554507 119.537508 
L 142.354507 116.537508 
L 140.554507 113.537508 
L 138.754507 116.537508 
z
" clip-path="url(#p85dd75d617)" style="fill: #882e72; fill-opacity: 0.6; stroke: #ffffff; stroke-opacity: 0.6; stroke-width: 0.339411"/>
    <path d="M 130.504634 110.826715 
L 132.304634 107.826715 
L 130.504634 104.826715 
L 128.704634 107.826715 
z
" clip-path="url(#p85dd75d617)" style="fill: #882e72; fill-opacity: 0.6; stroke: #ffffff; stroke-opacity: 0.6; stroke-width: 0.339411"/>
    <path d="M 173.03132 113.974425 
L 174.83132 110.974425 
L 173.03132 107.974425 
L 171.23132 110.974425 
z
" clip-path="url(#p85dd75d617)" style="fill: #882e72; fill-opacity: 0.6; stroke: #ffffff; stroke-opacity: 0.6; stroke-width: 0.339411"/>
    <path d="M 125.267087 120.820142 
L 127.067087 117.820142 
L 125.267087 114.820142 
L 123.467087 117.820142 
z
" clip-path="url(#p85dd75d617)" style="fill: #882e72; fill-opacity: 0.6; stroke: #ffffff; stroke-opacity: 0.6; stroke-width: 0.339411"/>
    <path d="M 180.622574 113.22328 
L 182.422574 110.22328 
L 180.622574 107.22328 
L 178.822574 110.22328 
z
" clip-path="url(#p85dd75d617)" style="fill: #882e72; fill-opacity: 0.6; stroke: #ffffff; stroke-opacity: 0.6; stroke-width: 0.339411"/>
    <path d="M 169.190042 117.003851 
L 170.990042 114.003851 
L 169.190042 111.003851 
L 167.390042 114.003851 
z
" clip-path="url(#p85dd75d617)" style="fill: #882e72; fill-opacity: 0.6; stroke: #ffffff; stroke-opacity: 0.6; stroke-width: 0.339411"/>
    <path d="M 134.364716 100.36924 
L 136.164716 97.36924 
L 134.364716 94.36924 
L 132.564716 97.36924 
z
" clip-path="url(#p85dd75d617)" style="fill: #882e72; fill-opacity: 0.6; stroke: #ffffff; stroke-opacity: 0.6; stroke-width: 0.339411"/>
    <path d="M 164.862148 116.505272 
L 166.662148 113.505272 
L 164.862148 110.505272 
L 163.062148 113.505272 
z
" clip-path="url(#p85dd75d617)" style="fill: #882e72; fill-opacity: 0.6; stroke: #ffffff; stroke-opacity: 0.6; stroke-width: 0.339411"/>
    <path d="M 111.418239 106.235218 
L 113.218239 103.235218 
L 111.418239 100.235218 
L 109.618239 103.235218 
z
" clip-path="url(#p85dd75d617)" style="fill: #882e72; fill-opacity: 0.6; stroke: #ffffff; stroke-opacity: 0.6; stroke-width: 0.339411"/>
    <path d="M 154.946454 118.521929 
L 156.746454 115.521929 
L 154.946454 112.521929 
L 153.146454 115.521929 
z
" clip-path="url(#p85dd75d617)" style="fill: #882e72; fill-opacity: 0.6; stroke: #ffffff; stroke-opacity: 0.6; stroke-width: 0.339411"/>
    <path d="M 137.843338 119.445838 
L 139.643338 116.445838 
L 137.843338 113.445838 
L 136.043338 116.445838 
z
" clip-path="url(#p85dd75d617)" style="fill: #882e72; fill-opacity: 0.6; stroke: #ffffff; stroke-opacity: 0.6; stroke-width: 0.339411"/>
    <path d="M 101.589364 122.002734 
L 103.389364 119.002734 
L 101.589364 116.002734 
L 99.789364 119.002734 
z
" clip-path="url(#p85dd75d617)" style="fill: #882e72; fill-opacity: 0.6; stroke: #ffffff; stroke-opacity: 0.6; stroke-width: 0.339411"/>
    <path d="M 124.585541 115.583168 
L 126.385541 112.583168 
L 124.585541 109.583168 
L 122.785541 112.583168 
z
" clip-path="url(#p85dd75d617)" style="fill: #882e72; fill-opacity: 0.6; stroke: #ffffff; stroke-opacity: 0.6; stroke-width: 0.339411"/>
    <path d="M 94.362907 121.269543 
L 96.162907 118.269543 
L 94.362907 115.269543 
L 92.562907 118.269543 
z
" clip-path="url(#p85dd75d617)" style="fill: #882e72; fill-opacity: 0.6; stroke: #ffffff; stroke-opacity: 0.6; stroke-width: 0.339411"/>
    <path d="M 134.4374 99.026001 
L 136.2374 96.026001 
L 134.4374 93.026001 
L 132.6374 96.026001 
z
" clip-path="url(#p85dd75d617)" style="fill: #882e72; fill-opacity: 0.6; stroke: #ffffff; stroke-opacity: 0.6; stroke-width: 0.339411"/>
    <path d="M 169.190042 117.003851 
L 170.990042 114.003851 
L 169.190042 111.003851 
L 167.390042 114.003851 
z
" clip-path="url(#p85dd75d617)" style="fill: #882e72; fill-opacity: 0.6; stroke: #ffffff; stroke-opacity: 0.6; stroke-width: 0.339411"/>
    <path d="M 167.462285 116.369698 
L 169.262285 113.369698 
L 167.462285 110.369698 
L 165.662285 113.369698 
z
" clip-path="url(#p85dd75d617)" style="fill: #882e72; fill-opacity: 0.6; stroke: #ffffff; stroke-opacity: 0.6; stroke-width: 0.339411"/>
    <path d="M 170.43577 114.140396 
L 172.23577 111.140396 
L 170.43577 108.140396 
L 168.63577 111.140396 
z
" clip-path="url(#p85dd75d617)" style="fill: #882e72; fill-opacity: 0.6; stroke: #ffffff; stroke-opacity: 0.6; stroke-width: 0.339411"/>
    <path d="M 172.547271 110.334121 
L 174.347271 107.334121 
L 172.547271 104.334121 
L 170.747271 107.334121 
z
" clip-path="url(#p85dd75d617)" style="fill: #882e72; fill-opacity: 0.6; stroke: #ffffff; stroke-opacity: 0.6; stroke-width: 0.339411"/>
    <path d="M 107.736559 112.698553 
L 109.536559 109.698553 
L 107.736559 106.698553 
L 105.936559 109.698553 
z
" clip-path="url(#p85dd75d617)" style="fill: #882e72; fill-opacity: 0.6; stroke: #ffffff; stroke-opacity: 0.6; stroke-width: 0.339411"/>
    <path d="M 117.06329 104.519142 
L 114.94197 108.761783 
L 119.184611 108.761783 
z
" clip-path="url(#p85dd75d617)" style="fill: #1965b0; fill-opacity: 0.6; stroke: #ffffff; stroke-opacity: 0.6; stroke-width: 0.339411"/>
    <path d="M 109.880273 105.027054 
L 107.758952 109.269695 
L 112.001593 109.269695 
z
" clip-path="url(#p85dd75d617)" style="fill: #1965b0; fill-opacity: 0.6; stroke: #ffffff; stroke-opacity: 0.6; stroke-width: 0.339411"/>
    <path d="M 171.144734 107.242426 
L 169.023414 111.485067 
L 173.266054 111.485067 
z
" clip-path="url(#p85dd75d617)" style="fill: #1965b0; fill-opacity: 0.6; stroke: #ffffff; stroke-opacity: 0.6; stroke-width: 0.339411"/>
    <path d="M 142.866664 102.85051 
L 140.745344 107.093151 
L 144.987984 107.093151 
z
" clip-path="url(#p85dd75d617)" style="fill: #1965b0; fill-opacity: 0.6; stroke: #ffffff; stroke-opacity: 0.6; stroke-width: 0.339411"/>
    <path d="M 127.804894 110.486509 
L 125.683573 114.72915 
L 129.926214 114.72915 
z
" clip-path="url(#p85dd75d617)" style="fill: #1965b0; fill-opacity: 0.6; stroke: #ffffff; stroke-opacity: 0.6; stroke-width: 0.339411"/>
    <path d="M 145.448517 102.695963 
L 143.327197 106.938604 
L 147.569838 106.938604 
z
" clip-path="url(#p85dd75d617)" style="fill: #1965b0; fill-opacity: 0.6; stroke: #ffffff; stroke-opacity: 0.6; stroke-width: 0.339411"/>
    <path d="M 147.932981 99.064116 
L 145.81166 103.306757 
L 150.054301 103.306757 
z
" clip-path="url(#p85dd75d617)" style="fill: #1965b0; fill-opacity: 0.6; stroke: #ffffff; stroke-opacity: 0.6; stroke-width: 0.339411"/>
    <path d="M 110.553299 100.55917 
L 108.431979 104.801811 
L 112.67462 104.801811 
z
" clip-path="url(#p85dd75d617)" style="fill: #1965b0; fill-opacity: 0.6; stroke: #ffffff; stroke-opacity: 0.6; stroke-width: 0.339411"/>
    <path d="M 166.853857 103.723045 
L 164.732537 107.965686 
L 168.975178 107.965686 
z
" clip-path="url(#p85dd75d617)" style="fill: #1965b0; fill-opacity: 0.6; stroke: #ffffff; stroke-opacity: 0.6; stroke-width: 0.339411"/>
    <path d="M 167.297535 102.585884 
L 165.176215 106.828525 
L 169.418855 106.828525 
z
" clip-path="url(#p85dd75d617)" style="fill: #1965b0; fill-opacity: 0.6; stroke: #ffffff; stroke-opacity: 0.6; stroke-width: 0.339411"/>
    <path d="M 136.052747 113.034025 
L 133.931427 117.276665 
L 138.174068 117.276665 
z
" clip-path="url(#p85dd75d617)" style="fill: #1965b0; fill-opacity: 0.6; stroke: #ffffff; stroke-opacity: 0.6; stroke-width: 0.339411"/>
    <path d="M 210.457175 103.954383 
L 208.335855 108.197024 
L 212.578496 108.197024 
z
" clip-path="url(#p85dd75d617)" style="fill: #1965b0; fill-opacity: 0.6; stroke: #ffffff; stroke-opacity: 0.6; stroke-width: 0.339411"/>
    <path d="M 194.311023 104.103187 
L 192.189702 108.345828 
L 196.432343 108.345828 
z
" clip-path="url(#p85dd75d617)" style="fill: #1965b0; fill-opacity: 0.6; stroke: #ffffff; stroke-opacity: 0.6; stroke-width: 0.339411"/>
    <path d="M 127.80057 108.57941 
L 125.679249 112.82205 
L 129.92189 112.82205 
z
" clip-path="url(#p85dd75d617)" style="fill: #1965b0; fill-opacity: 0.6; stroke: #ffffff; stroke-opacity: 0.6; stroke-width: 0.339411"/>
    <path d="M 142.962658 112.018779 
L 140.841338 116.26142 
L 145.083979 116.26142 
z
" clip-path="url(#p85dd75d617)" style="fill: #1965b0; fill-opacity: 0.6; stroke: #ffffff; stroke-opacity: 0.6; stroke-width: 0.339411"/>
    <path d="M 164.351204 107.718476 
L 162.229883 111.961116 
L 166.472524 111.961116 
z
" clip-path="url(#p85dd75d617)" style="fill: #1965b0; fill-opacity: 0.6; stroke: #ffffff; stroke-opacity: 0.6; stroke-width: 0.339411"/>
    <path d="M 195.369663 100.539067 
L 193.248342 104.781707 
L 197.490983 104.781707 
z
" clip-path="url(#p85dd75d617)" style="fill: #1965b0; fill-opacity: 0.6; stroke: #ffffff; stroke-opacity: 0.6; stroke-width: 0.339411"/>
    <path d="M 111.621429 109.986818 
L 109.500109 114.229459 
L 113.742749 114.229459 
z
" clip-path="url(#p85dd75d617)" style="fill: #1965b0; fill-opacity: 0.6; stroke: #ffffff; stroke-opacity: 0.6; stroke-width: 0.339411"/>
    <path d="M 183.463551 102.240698 
L 181.342231 106.483339 
L 185.584872 106.483339 
z
" clip-path="url(#p85dd75d617)" style="fill: #1965b0; fill-opacity: 0.6; stroke: #ffffff; stroke-opacity: 0.6; stroke-width: 0.339411"/>
    <path d="M 175.36198 95.798129 
L 173.24066 100.04077 
L 177.4833 100.04077 
z
" clip-path="url(#p85dd75d617)" style="fill: #1965b0; fill-opacity: 0.6; stroke: #ffffff; stroke-opacity: 0.6; stroke-width: 0.339411"/>
    <path d="M 75.00775 106.143905 
L 72.88643 110.386546 
L 77.129071 110.386546 
z
" clip-path="url(#p85dd75d617)" style="fill: #1965b0; fill-opacity: 0.6; stroke: #ffffff; stroke-opacity: 0.6; stroke-width: 0.339411"/>
    <path d="M 183.86061 102.155249 
L 181.73929 106.39789 
L 185.981931 106.39789 
z
" clip-path="url(#p85dd75d617)" style="fill: #1965b0; fill-opacity: 0.6; stroke: #ffffff; stroke-opacity: 0.6; stroke-width: 0.339411"/>
    <path d="M 172.285641 103.805944 
L 170.164321 108.048585 
L 174.406962 108.048585 
z
" clip-path="url(#p85dd75d617)" style="fill: #1965b0; fill-opacity: 0.6; stroke: #ffffff; stroke-opacity: 0.6; stroke-width: 0.339411"/>
    <path d="M 106.826702 104.318937 
L 104.705382 108.561578 
L 108.948023 108.561578 
z
" clip-path="url(#p85dd75d617)" style="fill: #1965b0; fill-opacity: 0.6; stroke: #ffffff; stroke-opacity: 0.6; stroke-width: 0.339411"/>
    <path d="M 193.821981 106.020247 
L 191.700661 110.262888 
L 195.943301 110.262888 
z
" clip-path="url(#p85dd75d617)" style="fill: #1965b0; fill-opacity: 0.6; stroke: #ffffff; stroke-opacity: 0.6; stroke-width: 0.339411"/>
    <path d="M 120.365078 96.03973 
L 118.243758 100.282371 
L 122.486398 100.282371 
z
" clip-path="url(#p85dd75d617)" style="fill: #1965b0; fill-opacity: 0.6; stroke: #ffffff; stroke-opacity: 0.6; stroke-width: 0.339411"/>
    <path d="M 180.848173 106.88971 
L 178.726853 111.132351 
L 182.969494 111.132351 
z
" clip-path="url(#p85dd75d617)" style="fill: #1965b0; fill-opacity: 0.6; stroke: #ffffff; stroke-opacity: 0.6; stroke-width: 0.339411"/>
    <path d="M 153.861319 101.610937 
L 151.739999 105.853578 
L 155.98264 105.853578 
z
" clip-path="url(#p85dd75d617)" style="fill: #1965b0; fill-opacity: 0.6; stroke: #ffffff; stroke-opacity: 0.6; stroke-width: 0.339411"/>
    <path d="M 187.202011 106.4223 
L 185.080691 110.664941 
L 189.323332 110.664941 
z
" clip-path="url(#p85dd75d617)" style="fill: #1965b0; fill-opacity: 0.6; stroke: #ffffff; stroke-opacity: 0.6; stroke-width: 0.339411"/>
    <path d="M 151.895754 103.095689 
L 149.774433 107.338329 
L 154.017074 107.338329 
z
" clip-path="url(#p85dd75d617)" style="fill: #1965b0; fill-opacity: 0.6; stroke: #ffffff; stroke-opacity: 0.6; stroke-width: 0.339411"/>
    <path d="M 160.264625 106.917512 
L 158.143305 111.160153 
L 162.385945 111.160153 
z
" clip-path="url(#p85dd75d617)" style="fill: #1965b0; fill-opacity: 0.6; stroke: #ffffff; stroke-opacity: 0.6; stroke-width: 0.339411"/>
    <path d="M 157.224272 101.39204 
L 155.102952 105.634681 
L 159.345592 105.634681 
z
" clip-path="url(#p85dd75d617)" style="fill: #1965b0; fill-opacity: 0.6; stroke: #ffffff; stroke-opacity: 0.6; stroke-width: 0.339411"/>
    <path d="M 161.258797 102.078692 
L 159.137477 106.321333 
L 163.380118 106.321333 
z
" clip-path="url(#p85dd75d617)" style="fill: #1965b0; fill-opacity: 0.6; stroke: #ffffff; stroke-opacity: 0.6; stroke-width: 0.339411"/>
    <path d="M 113.676331 102.922205 
L 111.555011 107.164846 
L 115.797652 107.164846 
z
" clip-path="url(#p85dd75d617)" style="fill: #1965b0; fill-opacity: 0.6; stroke: #ffffff; stroke-opacity: 0.6; stroke-width: 0.339411"/>
    <path d="M 143.053753 109.584839 
L 140.932432 113.82748 
L 145.175073 113.82748 
z
" clip-path="url(#p85dd75d617)" style="fill: #1965b0; fill-opacity: 0.6; stroke: #ffffff; stroke-opacity: 0.6; stroke-width: 0.339411"/>
    <path d="M 132.521566 101.014577 
L 130.400246 105.257218 
L 134.642886 105.257218 
z
" clip-path="url(#p85dd75d617)" style="fill: #1965b0; fill-opacity: 0.6; stroke: #ffffff; stroke-opacity: 0.6; stroke-width: 0.339411"/>
    <path d="M 170.55142 102.605029 
L 168.4301 106.847669 
L 172.672741 106.847669 
z
" clip-path="url(#p85dd75d617)" style="fill: #1965b0; fill-opacity: 0.6; stroke: #ffffff; stroke-opacity: 0.6; stroke-width: 0.339411"/>
    <path d="M 177.92969 104.547685 
L 175.80837 108.790326 
L 180.051011 108.790326 
z
" clip-path="url(#p85dd75d617)" style="fill: #1965b0; fill-opacity: 0.6; stroke: #ffffff; stroke-opacity: 0.6; stroke-width: 0.339411"/>
    <path d="M 144.308707 112.586372 
L 142.187387 116.829012 
L 146.430027 116.829012 
z
" clip-path="url(#p85dd75d617)" style="fill: #1965b0; fill-opacity: 0.6; stroke: #ffffff; stroke-opacity: 0.6; stroke-width: 0.339411"/>
    <path d="M 157.42525 101.705685 
L 155.30393 105.948325 
L 159.546571 105.948325 
z
" clip-path="url(#p85dd75d617)" style="fill: #1965b0; fill-opacity: 0.6; stroke: #ffffff; stroke-opacity: 0.6; stroke-width: 0.339411"/>
    <path d="M 178.406109 104.283186 
L 176.284788 108.525827 
L 180.527429 108.525827 
z
" clip-path="url(#p85dd75d617)" style="fill: #1965b0; fill-opacity: 0.6; stroke: #ffffff; stroke-opacity: 0.6; stroke-width: 0.339411"/>
    <path d="M 182.802944 103.852306 
L 180.681624 108.094947 
L 184.924264 108.094947 
z
" clip-path="url(#p85dd75d617)" style="fill: #1965b0; fill-opacity: 0.6; stroke: #ffffff; stroke-opacity: 0.6; stroke-width: 0.339411"/>
    <path d="M 178.763162 109.120412 
L 176.641841 113.363053 
L 180.884482 113.363053 
z
" clip-path="url(#p85dd75d617)" style="fill: #1965b0; fill-opacity: 0.6; stroke: #ffffff; stroke-opacity: 0.6; stroke-width: 0.339411"/>
    <path d="M 189.340438 110.381837 
L 187.219117 114.624478 
L 191.461758 114.624478 
z
" clip-path="url(#p85dd75d617)" style="fill: #1965b0; fill-opacity: 0.6; stroke: #ffffff; stroke-opacity: 0.6; stroke-width: 0.339411"/>
    <path d="M 173.938268 99.03881 
L 171.816948 103.281451 
L 176.059588 103.281451 
z
" clip-path="url(#p85dd75d617)" style="fill: #1965b0; fill-opacity: 0.6; stroke: #ffffff; stroke-opacity: 0.6; stroke-width: 0.339411"/>
    <path d="M 181.957738 106.117999 
L 179.836418 110.36064 
L 184.079059 110.36064 
z
" clip-path="url(#p85dd75d617)" style="fill: #1965b0; fill-opacity: 0.6; stroke: #ffffff; stroke-opacity: 0.6; stroke-width: 0.339411"/>
    <path d="M 186.861774 102.134435 
L 184.740454 106.377075 
L 188.983094 106.377075 
z
" clip-path="url(#p85dd75d617)" style="fill: #1965b0; fill-opacity: 0.6; stroke: #ffffff; stroke-opacity: 0.6; stroke-width: 0.339411"/>
    <path d="M 103.603281 110.718023 
L 101.481961 114.960663 
L 105.724602 114.960663 
z
" clip-path="url(#p85dd75d617)" style="fill: #1965b0; fill-opacity: 0.6; stroke: #ffffff; stroke-opacity: 0.6; stroke-width: 0.339411"/>
    <path d="M 137.380035 111.429605 
L 135.258715 115.672246 
L 139.501355 115.672246 
z
" clip-path="url(#p85dd75d617)" style="fill: #1965b0; fill-opacity: 0.6; stroke: #ffffff; stroke-opacity: 0.6; stroke-width: 0.339411"/>
    <path d="M 137.746558 107.81593 
L 135.625237 112.058571 
L 139.867878 112.058571 
z
" clip-path="url(#p85dd75d617)" style="fill: #1965b0; fill-opacity: 0.6; stroke: #ffffff; stroke-opacity: 0.6; stroke-width: 0.339411"/>
    <path d="M 180.362683 107.549 
L 178.241363 111.79164 
L 182.484004 111.79164 
z
" clip-path="url(#p85dd75d617)" style="fill: #1965b0; fill-opacity: 0.6; stroke: #ffffff; stroke-opacity: 0.6; stroke-width: 0.339411"/>
    <path d="M 148.465844 103.945609 
L 146.344524 108.18825 
L 150.587165 108.18825 
z
" clip-path="url(#p85dd75d617)" style="fill: #1965b0; fill-opacity: 0.6; stroke: #ffffff; stroke-opacity: 0.6; stroke-width: 0.339411"/>
    <path d="M 134.718895 111.152513 
L 132.597575 115.395153 
L 136.840216 115.395153 
z
" clip-path="url(#p85dd75d617)" style="fill: #1965b0; fill-opacity: 0.6; stroke: #ffffff; stroke-opacity: 0.6; stroke-width: 0.339411"/>
    <path d="M 168.452615 100.342785 
L 166.331295 104.585426 
L 170.573936 104.585426 
z
" clip-path="url(#p85dd75d617)" style="fill: #1965b0; fill-opacity: 0.6; stroke: #ffffff; stroke-opacity: 0.6; stroke-width: 0.339411"/>
    <path d="M 162.157095 99.91717 
L 160.035774 104.159811 
L 164.278415 104.159811 
z
" clip-path="url(#p85dd75d617)" style="fill: #1965b0; fill-opacity: 0.6; stroke: #ffffff; stroke-opacity: 0.6; stroke-width: 0.339411"/>
    <path d="M 103.619032 103.733908 
L 101.497712 107.976548 
L 105.740352 107.976548 
z
" clip-path="url(#p85dd75d617)" style="fill: #1965b0; fill-opacity: 0.6; stroke: #ffffff; stroke-opacity: 0.6; stroke-width: 0.339411"/>
    <path d="M 185.298241 107.355797 
L 183.176921 111.598438 
L 187.419561 111.598438 
z
" clip-path="url(#p85dd75d617)" style="fill: #1965b0; fill-opacity: 0.6; stroke: #ffffff; stroke-opacity: 0.6; stroke-width: 0.339411"/>
    <path d="M 181.934085 109.247801 
L 179.812765 113.490441 
L 184.055405 113.490441 
z
" clip-path="url(#p85dd75d617)" style="fill: #1965b0; fill-opacity: 0.6; stroke: #ffffff; stroke-opacity: 0.6; stroke-width: 0.339411"/>
    <path d="M 182.586231 102.209309 
L 180.46491 106.451949 
L 184.707551 106.451949 
z
" clip-path="url(#p85dd75d617)" style="fill: #1965b0; fill-opacity: 0.6; stroke: #ffffff; stroke-opacity: 0.6; stroke-width: 0.339411"/>
    <path d="M 163.111852 107.260541 
L 160.990531 111.503181 
L 165.233172 111.503181 
z
" clip-path="url(#p85dd75d617)" style="fill: #1965b0; fill-opacity: 0.6; stroke: #ffffff; stroke-opacity: 0.6; stroke-width: 0.339411"/>
    <path d="M 148.452265 107.184883 
L 146.330944 111.427524 
L 150.573585 111.427524 
z
" clip-path="url(#p85dd75d617)" style="fill: #1965b0; fill-opacity: 0.6; stroke: #ffffff; stroke-opacity: 0.6; stroke-width: 0.339411"/>
    <path d="M 153.953809 98.452856 
L 151.832489 102.695497 
L 156.075129 102.695497 
z
" clip-path="url(#p85dd75d617)" style="fill: #1965b0; fill-opacity: 0.6; stroke: #ffffff; stroke-opacity: 0.6; stroke-width: 0.339411"/>
    <path d="M 174.240455 104.615617 
L 172.119135 108.858258 
L 176.361775 108.858258 
z
" clip-path="url(#p85dd75d617)" style="fill: #1965b0; fill-opacity: 0.6; stroke: #ffffff; stroke-opacity: 0.6; stroke-width: 0.339411"/>
    <path d="M 126.589517 111.717441 
L 130.832158 111.717441 
L 130.832158 107.4748 
L 126.589517 107.4748 
z
" clip-path="url(#p85dd75d617)" style="fill: #7bafde; fill-opacity: 0.6; stroke: #ffffff; stroke-opacity: 0.6; stroke-width: 0.339411"/>
    <path d="M 157.305329 104.449445 
L 161.54797 104.449445 
L 161.54797 100.206804 
L 157.305329 100.206804 
z
" clip-path="url(#p85dd75d617)" style="fill: #7bafde; fill-opacity: 0.6; stroke: #ffffff; stroke-opacity: 0.6; stroke-width: 0.339411"/>
    <path d="M 86.942126 93.576515 
L 91.184767 93.576515 
L 91.184767 89.333875 
L 86.942126 89.333875 
z
" clip-path="url(#p85dd75d617)" style="fill: #7bafde; fill-opacity: 0.6; stroke: #ffffff; stroke-opacity: 0.6; stroke-width: 0.339411"/>
    <path d="M 123.038834 104.955142 
L 127.281475 104.955142 
L 127.281475 100.712502 
L 123.038834 100.712502 
z
" clip-path="url(#p85dd75d617)" style="fill: #7bafde; fill-opacity: 0.6; stroke: #ffffff; stroke-opacity: 0.6; stroke-width: 0.339411"/>
    <path d="M 133.127819 95.079384 
L 137.37046 95.079384 
L 137.37046 90.836744 
L 133.127819 90.836744 
z
" clip-path="url(#p85dd75d617)" style="fill: #7bafde; fill-opacity: 0.6; stroke: #ffffff; stroke-opacity: 0.6; stroke-width: 0.339411"/>
    <path d="M 138.797708 98.818348 
L 143.040349 98.818348 
L 143.040349 94.575708 
L 138.797708 94.575708 
z
" clip-path="url(#p85dd75d617)" style="fill: #7bafde; fill-opacity: 0.6; stroke: #ffffff; stroke-opacity: 0.6; stroke-width: 0.339411"/>
    <path d="M 122.228715 107.107538 
L 126.471355 107.107538 
L 126.471355 102.864897 
L 122.228715 102.864897 
z
" clip-path="url(#p85dd75d617)" style="fill: #7bafde; fill-opacity: 0.6; stroke: #ffffff; stroke-opacity: 0.6; stroke-width: 0.339411"/>
    <path d="M 125.323564 113.535007 
L 129.566204 113.535007 
L 129.566204 109.292366 
L 125.323564 109.292366 
z
" clip-path="url(#p85dd75d617)" style="fill: #7bafde; fill-opacity: 0.6; stroke: #ffffff; stroke-opacity: 0.6; stroke-width: 0.339411"/>
    <path d="M 111.460494 107.440039 
L 115.703135 107.440039 
L 115.703135 103.197398 
L 111.460494 103.197398 
z
" clip-path="url(#p85dd75d617)" style="fill: #7bafde; fill-opacity: 0.6; stroke: #ffffff; stroke-opacity: 0.6; stroke-width: 0.339411"/>
    <path d="M 116.590157 116.189946 
L 120.832797 116.189946 
L 120.832797 111.947305 
L 116.590157 111.947305 
z
" clip-path="url(#p85dd75d617)" style="fill: #7bafde; fill-opacity: 0.6; stroke: #ffffff; stroke-opacity: 0.6; stroke-width: 0.339411"/>
    <path d="M 136.296954 113.538684 
L 140.539595 113.538684 
L 140.539595 109.296043 
L 136.296954 109.296043 
z
" clip-path="url(#p85dd75d617)" style="fill: #7bafde; fill-opacity: 0.6; stroke: #ffffff; stroke-opacity: 0.6; stroke-width: 0.339411"/>
    <path d="M 103.278097 113.299872 
L 107.520737 113.299872 
L 107.520737 109.057231 
L 103.278097 109.057231 
z
" clip-path="url(#p85dd75d617)" style="fill: #7bafde; fill-opacity: 0.6; stroke: #ffffff; stroke-opacity: 0.6; stroke-width: 0.339411"/>
    <path d="M 145.447522 106.312722 
L 149.690163 106.312722 
L 149.690163 102.070081 
L 145.447522 102.070081 
z
" clip-path="url(#p85dd75d617)" style="fill: #7bafde; fill-opacity: 0.6; stroke: #ffffff; stroke-opacity: 0.6; stroke-width: 0.339411"/>
    <path d="M 146.248275 96.005306 
L 150.490915 96.005306 
L 150.490915 91.762665 
L 146.248275 91.762665 
z
" clip-path="url(#p85dd75d617)" style="fill: #7bafde; fill-opacity: 0.6; stroke: #ffffff; stroke-opacity: 0.6; stroke-width: 0.339411"/>
    <path d="M 96.888969 105.817303 
L 101.13161 105.817303 
L 101.13161 101.574662 
L 96.888969 101.574662 
z
" clip-path="url(#p85dd75d617)" style="fill: #7bafde; fill-opacity: 0.6; stroke: #ffffff; stroke-opacity: 0.6; stroke-width: 0.339411"/>
    <path d="M 122.255436 109.207363 
L 126.498077 109.207363 
L 126.498077 104.964722 
L 122.255436 104.964722 
z
" clip-path="url(#p85dd75d617)" style="fill: #7bafde; fill-opacity: 0.6; stroke: #ffffff; stroke-opacity: 0.6; stroke-width: 0.339411"/>
    <path d="M 115.183714 109.675242 
L 119.426355 109.675242 
L 119.426355 105.432602 
L 115.183714 105.432602 
z
" clip-path="url(#p85dd75d617)" style="fill: #7bafde; fill-opacity: 0.6; stroke: #ffffff; stroke-opacity: 0.6; stroke-width: 0.339411"/>
    <path d="M 102.021692 112.173107 
L 106.264332 112.173107 
L 106.264332 107.930466 
L 102.021692 107.930466 
z
" clip-path="url(#p85dd75d617)" style="fill: #7bafde; fill-opacity: 0.6; stroke: #ffffff; stroke-opacity: 0.6; stroke-width: 0.339411"/>
    <path d="M 112.536222 113.605787 
L 116.778863 113.605787 
L 116.778863 109.363146 
L 112.536222 109.363146 
z
" clip-path="url(#p85dd75d617)" style="fill: #7bafde; fill-opacity: 0.6; stroke: #ffffff; stroke-opacity: 0.6; stroke-width: 0.339411"/>
    <path d="M 98.425348 101.335545 
L 102.667989 101.335545 
L 102.667989 97.092904 
L 98.425348 97.092904 
z
" clip-path="url(#p85dd75d617)" style="fill: #7bafde; fill-opacity: 0.6; stroke: #ffffff; stroke-opacity: 0.6; stroke-width: 0.339411"/>
    <path d="M 152.74808 110.52729 
L 156.990721 110.52729 
L 156.990721 106.284649 
L 152.74808 106.284649 
z
" clip-path="url(#p85dd75d617)" style="fill: #7bafde; fill-opacity: 0.6; stroke: #ffffff; stroke-opacity: 0.6; stroke-width: 0.339411"/>
    <path d="M 119.080357 104.74875 
L 123.322998 104.74875 
L 123.322998 100.506109 
L 119.080357 100.506109 
z
" clip-path="url(#p85dd75d617)" style="fill: #7bafde; fill-opacity: 0.6; stroke: #ffffff; stroke-opacity: 0.6; stroke-width: 0.339411"/>
    <path d="M 101.576574 104.703097 
L 105.819215 104.703097 
L 105.819215 100.460456 
L 101.576574 100.460456 
z
" clip-path="url(#p85dd75d617)" style="fill: #7bafde; fill-opacity: 0.6; stroke: #ffffff; stroke-opacity: 0.6; stroke-width: 0.339411"/>
    <path d="M 104.459834 107.544453 
L 108.702475 107.544453 
L 108.702475 103.301813 
L 104.459834 103.301813 
z
" clip-path="url(#p85dd75d617)" style="fill: #7bafde; fill-opacity: 0.6; stroke: #ffffff; stroke-opacity: 0.6; stroke-width: 0.339411"/>
    <path d="M 125.781887 105.965098 
L 130.024528 105.965098 
L 130.024528 101.722457 
L 125.781887 101.722457 
z
" clip-path="url(#p85dd75d617)" style="fill: #7bafde; fill-opacity: 0.6; stroke: #ffffff; stroke-opacity: 0.6; stroke-width: 0.339411"/>
    <path d="M 136.268407 107.358317 
L 140.511048 107.358317 
L 140.511048 103.115676 
L 136.268407 103.115676 
z
" clip-path="url(#p85dd75d617)" style="fill: #7bafde; fill-opacity: 0.6; stroke: #ffffff; stroke-opacity: 0.6; stroke-width: 0.339411"/>
    <path d="M 139.571421 107.613663 
L 143.814062 107.613663 
L 143.814062 103.371023 
L 139.571421 103.371023 
z
" clip-path="url(#p85dd75d617)" style="fill: #7bafde; fill-opacity: 0.6; stroke: #ffffff; stroke-opacity: 0.6; stroke-width: 0.339411"/>
    <path d="M 128.56889 109.998481 
L 132.811531 109.998481 
L 132.811531 105.755841 
L 128.56889 105.755841 
z
" clip-path="url(#p85dd75d617)" style="fill: #7bafde; fill-opacity: 0.6; stroke: #ffffff; stroke-opacity: 0.6; stroke-width: 0.339411"/>
    <path d="M 112.64993 94.517595 
L 116.892571 94.517595 
L 116.892571 90.274954 
L 112.64993 90.274954 
z
" clip-path="url(#p85dd75d617)" style="fill: #7bafde; fill-opacity: 0.6; stroke: #ffffff; stroke-opacity: 0.6; stroke-width: 0.339411"/>
    <path d="M 163.738718 103.597262 
L 167.981358 103.597262 
L 167.981358 99.354621 
L 163.738718 99.354621 
z
" clip-path="url(#p85dd75d617)" style="fill: #7bafde; fill-opacity: 0.6; stroke: #ffffff; stroke-opacity: 0.6; stroke-width: 0.339411"/>
    <path d="M 132.643522 105.098144 
L 136.886163 105.098144 
L 136.886163 100.855504 
L 132.643522 100.855504 
z
" clip-path="url(#p85dd75d617)" style="fill: #7bafde; fill-opacity: 0.6; stroke: #ffffff; stroke-opacity: 0.6; stroke-width: 0.339411"/>
    <path d="M 111.810903 108.057208 
L 116.053544 108.057208 
L 116.053544 103.814567 
L 111.810903 103.814567 
z
" clip-path="url(#p85dd75d617)" style="fill: #7bafde; fill-opacity: 0.6; stroke: #ffffff; stroke-opacity: 0.6; stroke-width: 0.339411"/>
    <path d="M 107.98745 107.028022 
L 112.23009 107.028022 
L 112.23009 102.785381 
L 107.98745 102.785381 
z
" clip-path="url(#p85dd75d617)" style="fill: #7bafde; fill-opacity: 0.6; stroke: #ffffff; stroke-opacity: 0.6; stroke-width: 0.339411"/>
    <path d="M 101.056533 101.298601 
L 105.299173 101.298601 
L 105.299173 97.055961 
L 101.056533 97.055961 
z
" clip-path="url(#p85dd75d617)" style="fill: #7bafde; fill-opacity: 0.6; stroke: #ffffff; stroke-opacity: 0.6; stroke-width: 0.339411"/>
    <path d="M 131.847177 105.188119 
L 136.089818 105.188119 
L 136.089818 100.945478 
L 131.847177 100.945478 
z
" clip-path="url(#p85dd75d617)" style="fill: #7bafde; fill-opacity: 0.6; stroke: #ffffff; stroke-opacity: 0.6; stroke-width: 0.339411"/>
    <path d="M 133.821332 97.731338 
L 138.063972 97.731338 
L 138.063972 93.488697 
L 133.821332 93.488697 
z
" clip-path="url(#p85dd75d617)" style="fill: #7bafde; fill-opacity: 0.6; stroke: #ffffff; stroke-opacity: 0.6; stroke-width: 0.339411"/>
    <path d="M 145.53261 101.241079 
L 149.775251 101.241079 
L 149.775251 96.998438 
L 145.53261 96.998438 
z
" clip-path="url(#p85dd75d617)" style="fill: #7bafde; fill-opacity: 0.6; stroke: #ffffff; stroke-opacity: 0.6; stroke-width: 0.339411"/>
    <path d="M 112.35402 97.695952 
L 116.59666 97.695952 
L 116.59666 93.453311 
L 112.35402 93.453311 
z
" clip-path="url(#p85dd75d617)" style="fill: #7bafde; fill-opacity: 0.6; stroke: #ffffff; stroke-opacity: 0.6; stroke-width: 0.339411"/>
    <path d="M 138.18294 103.519726 
L 142.425581 103.519726 
L 142.425581 99.277085 
L 138.18294 99.277085 
z
" clip-path="url(#p85dd75d617)" style="fill: #7bafde; fill-opacity: 0.6; stroke: #ffffff; stroke-opacity: 0.6; stroke-width: 0.339411"/>
    <path d="M 102.541286 108.3745 
L 106.783927 108.3745 
L 106.783927 104.131859 
L 102.541286 104.131859 
z
" clip-path="url(#p85dd75d617)" style="fill: #7bafde; fill-opacity: 0.6; stroke: #ffffff; stroke-opacity: 0.6; stroke-width: 0.339411"/>
    <path d="M 148.345668 106.116954 
L 152.588309 106.116954 
L 152.588309 101.874314 
L 148.345668 101.874314 
z
" clip-path="url(#p85dd75d617)" style="fill: #7bafde; fill-opacity: 0.6; stroke: #ffffff; stroke-opacity: 0.6; stroke-width: 0.339411"/>
    <path d="M 158.3385 92.167052 
L 162.581141 92.167052 
L 162.581141 87.924411 
L 158.3385 87.924411 
z
" clip-path="url(#p85dd75d617)" style="fill: #7bafde; fill-opacity: 0.6; stroke: #ffffff; stroke-opacity: 0.6; stroke-width: 0.339411"/>
    <path d="M 122.686167 102.657479 
L 126.928807 102.657479 
L 126.928807 98.414838 
L 122.686167 98.414838 
z
" clip-path="url(#p85dd75d617)" style="fill: #7bafde; fill-opacity: 0.6; stroke: #ffffff; stroke-opacity: 0.6; stroke-width: 0.339411"/>
    <path d="M 152.1241 92.678107 
L 156.366741 92.678107 
L 156.366741 88.435466 
L 152.1241 88.435466 
z
" clip-path="url(#p85dd75d617)" style="fill: #7bafde; fill-opacity: 0.6; stroke: #ffffff; stroke-opacity: 0.6; stroke-width: 0.339411"/>
    <path d="M 112.738329 102.842159 
L 116.980969 102.842159 
L 116.980969 98.599518 
L 112.738329 98.599518 
z
" clip-path="url(#p85dd75d617)" style="fill: #7bafde; fill-opacity: 0.6; stroke: #ffffff; stroke-opacity: 0.6; stroke-width: 0.339411"/>
    <path d="M 117.256285 109.755211 
L 121.498926 109.755211 
L 121.498926 105.51257 
L 117.256285 105.51257 
z
" clip-path="url(#p85dd75d617)" style="fill: #7bafde; fill-opacity: 0.6; stroke: #ffffff; stroke-opacity: 0.6; stroke-width: 0.339411"/>
    <path d="M 130.761006 103.44317 
L 135.003647 103.44317 
L 135.003647 99.20053 
L 130.761006 99.20053 
z
" clip-path="url(#p85dd75d617)" style="fill: #7bafde; fill-opacity: 0.6; stroke: #ffffff; stroke-opacity: 0.6; stroke-width: 0.339411"/>
    <path d="M 141.007484 103.325393 
L 145.250125 103.325393 
L 145.250125 99.082752 
L 141.007484 99.082752 
z
" clip-path="url(#p85dd75d617)" style="fill: #7bafde; fill-opacity: 0.6; stroke: #ffffff; stroke-opacity: 0.6; stroke-width: 0.339411"/>
    <path d="M 147.517384 96.801554 
L 151.760025 96.801554 
L 151.760025 92.558913 
L 147.517384 92.558913 
z
" clip-path="url(#p85dd75d617)" style="fill: #7bafde; fill-opacity: 0.6; stroke: #ffffff; stroke-opacity: 0.6; stroke-width: 0.339411"/>
    <path d="M 112.536222 113.605787 
L 116.778863 113.605787 
L 116.778863 109.363146 
L 112.536222 109.363146 
z
" clip-path="url(#p85dd75d617)" style="fill: #7bafde; fill-opacity: 0.6; stroke: #ffffff; stroke-opacity: 0.6; stroke-width: 0.339411"/>
    <path d="M 145.88694 112.400437 
L 150.12958 112.400437 
L 150.12958 108.157797 
L 145.88694 108.157797 
z
" clip-path="url(#p85dd75d617)" style="fill: #7bafde; fill-opacity: 0.6; stroke: #ffffff; stroke-opacity: 0.6; stroke-width: 0.339411"/>
    <path d="M 117.704959 110.814029 
L 121.9476 110.814029 
L 121.9476 106.571389 
L 117.704959 106.571389 
z
" clip-path="url(#p85dd75d617)" style="fill: #7bafde; fill-opacity: 0.6; stroke: #ffffff; stroke-opacity: 0.6; stroke-width: 0.339411"/>
    <path d="M 100.601729 109.633119 
L 104.844369 109.633119 
L 104.844369 105.390479 
L 100.601729 105.390479 
z
" clip-path="url(#p85dd75d617)" style="fill: #7bafde; fill-opacity: 0.6; stroke: #ffffff; stroke-opacity: 0.6; stroke-width: 0.339411"/>
    <path d="M 123.811327 94.874191 
L 128.053968 94.874191 
L 128.053968 90.63155 
L 123.811327 90.63155 
z
" clip-path="url(#p85dd75d617)" style="fill: #7bafde; fill-opacity: 0.6; stroke: #ffffff; stroke-opacity: 0.6; stroke-width: 0.339411"/>
    <path d="M 152.400953 104.019019 
L 156.643594 104.019019 
L 156.643594 99.776378 
L 152.400953 99.776378 
z
" clip-path="url(#p85dd75d617)" style="fill: #7bafde; fill-opacity: 0.6; stroke: #ffffff; stroke-opacity: 0.6; stroke-width: 0.339411"/>
    <path d="M 146.979503 110.604993 
L 151.222143 110.604993 
L 151.222143 106.362352 
L 146.979503 106.362352 
z
" clip-path="url(#p85dd75d617)" style="fill: #7bafde; fill-opacity: 0.6; stroke: #ffffff; stroke-opacity: 0.6; stroke-width: 0.339411"/>
    <path d="M 149.134544 92.109434 
L 153.377185 92.109434 
L 153.377185 87.866793 
L 149.134544 87.866793 
z
" clip-path="url(#p85dd75d617)" style="fill: #7bafde; fill-opacity: 0.6; stroke: #ffffff; stroke-opacity: 0.6; stroke-width: 0.339411"/>
    <path d="M 158.47402 97.564439 
L 162.716661 97.564439 
L 162.716661 93.321798 
L 158.47402 93.321798 
z
" clip-path="url(#p85dd75d617)" style="fill: #7bafde; fill-opacity: 0.6; stroke: #ffffff; stroke-opacity: 0.6; stroke-width: 0.339411"/>
    <path d="M 146.371913 110.00217 
L 150.614554 110.00217 
L 150.614554 105.75953 
L 146.371913 105.75953 
z
" clip-path="url(#p85dd75d617)" style="fill: #7bafde; fill-opacity: 0.6; stroke: #ffffff; stroke-opacity: 0.6; stroke-width: 0.339411"/>
    <path d="M 106.251669 110.246181 
L 110.49431 110.246181 
L 110.49431 106.00354 
L 106.251669 106.00354 
z
" clip-path="url(#p85dd75d617)" style="fill: #7bafde; fill-opacity: 0.6; stroke: #ffffff; stroke-opacity: 0.6; stroke-width: 0.339411"/>
    <path d="M 139.314348 107.317124 
L 143.556989 107.317124 
L 143.556989 103.074483 
L 139.314348 103.074483 
z
" clip-path="url(#p85dd75d617)" style="fill: #7bafde; fill-opacity: 0.6; stroke: #ffffff; stroke-opacity: 0.6; stroke-width: 0.339411"/>
    <path d="M 182.087591 109.204093 
L 186.330232 109.204093 
L 186.330232 104.961453 
L 182.087591 104.961453 
z
" clip-path="url(#p85dd75d617)" style="fill: #7bafde; fill-opacity: 0.6; stroke: #ffffff; stroke-opacity: 0.6; stroke-width: 0.339411"/>
    <path d="M 153.296002 103.683622 
L 157.538642 103.683622 
L 157.538642 99.440981 
L 153.296002 99.440981 
z
" clip-path="url(#p85dd75d617)" style="fill: #7bafde; fill-opacity: 0.6; stroke: #ffffff; stroke-opacity: 0.6; stroke-width: 0.339411"/>
    <path d="M 143.509445 103.09114 
L 147.752085 103.09114 
L 147.752085 98.848499 
L 143.509445 98.848499 
z
" clip-path="url(#p85dd75d617)" style="fill: #7bafde; fill-opacity: 0.6; stroke: #ffffff; stroke-opacity: 0.6; stroke-width: 0.339411"/>
    <path d="M 137.789482 107.105664 
L 138.850142 106.045004 
L 139.910802 107.105664 
L 140.971462 106.045004 
L 139.910802 104.984343 
L 140.971462 103.923683 
L 139.910802 102.863023 
L 138.850142 103.923683 
L 137.789482 102.863023 
L 136.728822 103.923683 
L 137.789482 104.984343 
L 136.728822 106.045004 
z
" clip-path="url(#p85dd75d617)" style="fill: #4eb265; fill-opacity: 0.6; stroke: #ffffff; stroke-opacity: 0.6; stroke-width: 0.339411"/>
    <path d="M 129.789503 102.60239 
L 130.850163 101.54173 
L 131.910823 102.60239 
L 132.971483 101.54173 
L 131.910823 100.48107 
L 132.971483 99.42041 
L 131.910823 98.35975 
L 130.850163 99.42041 
L 129.789503 98.35975 
L 128.728843 99.42041 
L 129.789503 100.48107 
L 128.728843 101.54173 
z
" clip-path="url(#p85dd75d617)" style="fill: #4eb265; fill-opacity: 0.6; stroke: #ffffff; stroke-opacity: 0.6; stroke-width: 0.339411"/>
    <path d="M 145.742753 113.606985 
L 146.803413 112.546325 
L 147.864073 113.606985 
L 148.924733 112.546325 
L 147.864073 111.485665 
L 148.924733 110.425005 
L 147.864073 109.364344 
L 146.803413 110.425005 
L 145.742753 109.364344 
L 144.682093 110.425005 
L 145.742753 111.485665 
L 144.682093 112.546325 
z
" clip-path="url(#p85dd75d617)" style="fill: #4eb265; fill-opacity: 0.6; stroke: #ffffff; stroke-opacity: 0.6; stroke-width: 0.339411"/>
    <path d="M 105.935828 91.598857 
L 106.996488 90.538197 
L 108.057148 91.598857 
L 109.117809 90.538197 
L 108.057148 89.477537 
L 109.117809 88.416876 
L 108.057148 87.356216 
L 106.996488 88.416876 
L 105.935828 87.356216 
L 104.875168 88.416876 
L 105.935828 89.477537 
L 104.875168 90.538197 
z
" clip-path="url(#p85dd75d617)" style="fill: #4eb265; fill-opacity: 0.6; stroke: #ffffff; stroke-opacity: 0.6; stroke-width: 0.339411"/>
    <path d="M 165.516082 104.115172 
L 166.576742 103.054512 
L 167.637402 104.115172 
L 168.698062 103.054512 
L 167.637402 101.993852 
L 168.698062 100.933191 
L 167.637402 99.872531 
L 166.576742 100.933191 
L 165.516082 99.872531 
L 164.455422 100.933191 
L 165.516082 101.993852 
L 164.455422 103.054512 
z
" clip-path="url(#p85dd75d617)" style="fill: #4eb265; fill-opacity: 0.6; stroke: #ffffff; stroke-opacity: 0.6; stroke-width: 0.339411"/>
    <path d="M 137.775645 100.614683 
L 138.836305 99.554022 
L 139.896966 100.614683 
L 140.957626 99.554022 
L 139.896966 98.493362 
L 140.957626 97.432702 
L 139.896966 96.372042 
L 138.836305 97.432702 
L 137.775645 96.372042 
L 136.714985 97.432702 
L 137.775645 98.493362 
L 136.714985 99.554022 
z
" clip-path="url(#p85dd75d617)" style="fill: #4eb265; fill-opacity: 0.6; stroke: #ffffff; stroke-opacity: 0.6; stroke-width: 0.339411"/>
    <path d="M 136.415646 104.719458 
L 137.476306 103.658798 
L 138.536966 104.719458 
L 139.597626 103.658798 
L 138.536966 102.598137 
L 139.597626 101.537477 
L 138.536966 100.476817 
L 137.476306 101.537477 
L 136.415646 100.476817 
L 135.354985 101.537477 
L 136.415646 102.598137 
L 135.354985 103.658798 
z
" clip-path="url(#p85dd75d617)" style="fill: #4eb265; fill-opacity: 0.6; stroke: #ffffff; stroke-opacity: 0.6; stroke-width: 0.339411"/>
    <path d="M 130.927553 116.673559 
L 131.988213 115.612899 
L 133.048873 116.673559 
L 134.109533 115.612899 
L 133.048873 114.552239 
L 134.109533 113.491578 
L 133.048873 112.430918 
L 131.988213 113.491578 
L 130.927553 112.430918 
L 129.866893 113.491578 
L 130.927553 114.552239 
L 129.866893 115.612899 
z
" clip-path="url(#p85dd75d617)" style="fill: #4eb265; fill-opacity: 0.6; stroke: #ffffff; stroke-opacity: 0.6; stroke-width: 0.339411"/>
    <path d="M 116.934717 101.53051 
L 117.995377 100.46985 
L 119.056037 101.53051 
L 120.116697 100.46985 
L 119.056037 99.40919 
L 120.116697 98.34853 
L 119.056037 97.287869 
L 117.995377 98.34853 
L 116.934717 97.287869 
L 115.874057 98.34853 
L 116.934717 99.40919 
L 115.874057 100.46985 
z
" clip-path="url(#p85dd75d617)" style="fill: #4eb265; fill-opacity: 0.6; stroke: #ffffff; stroke-opacity: 0.6; stroke-width: 0.339411"/>
    <path d="M 101.185886 105.63091 
L 102.246546 104.57025 
L 103.307206 105.63091 
L 104.367866 104.57025 
L 103.307206 103.509589 
L 104.367866 102.448929 
L 103.307206 101.388269 
L 102.246546 102.448929 
L 101.185886 101.388269 
L 100.125226 102.448929 
L 101.185886 103.509589 
L 100.125226 104.57025 
z
" clip-path="url(#p85dd75d617)" style="fill: #4eb265; fill-opacity: 0.6; stroke: #ffffff; stroke-opacity: 0.6; stroke-width: 0.339411"/>
    <path d="M 140.758765 100.586946 
L 141.819425 99.526286 
L 142.880085 100.586946 
L 143.940745 99.526286 
L 142.880085 98.465626 
L 143.940745 97.404966 
L 142.880085 96.344306 
L 141.819425 97.404966 
L 140.758765 96.344306 
L 139.698104 97.404966 
L 140.758765 98.465626 
L 139.698104 99.526286 
z
" clip-path="url(#p85dd75d617)" style="fill: #4eb265; fill-opacity: 0.6; stroke: #ffffff; stroke-opacity: 0.6; stroke-width: 0.339411"/>
    <path d="M 134.939474 98.587515 
L 136.000134 97.526855 
L 137.060794 98.587515 
L 138.121455 97.526855 
L 137.060794 96.466195 
L 138.121455 95.405534 
L 137.060794 94.344874 
L 136.000134 95.405534 
L 134.939474 94.344874 
L 133.878814 95.405534 
L 134.939474 96.466195 
L 133.878814 97.526855 
z
" clip-path="url(#p85dd75d617)" style="fill: #4eb265; fill-opacity: 0.6; stroke: #ffffff; stroke-opacity: 0.6; stroke-width: 0.339411"/>
    <path d="M 105.900456 106.017973 
L 106.961116 104.957312 
L 108.021776 106.017973 
L 109.082437 104.957312 
L 108.021776 103.896652 
L 109.082437 102.835992 
L 108.021776 101.775332 
L 106.961116 102.835992 
L 105.900456 101.775332 
L 104.839796 102.835992 
L 105.900456 103.896652 
L 104.839796 104.957312 
z
" clip-path="url(#p85dd75d617)" style="fill: #4eb265; fill-opacity: 0.6; stroke: #ffffff; stroke-opacity: 0.6; stroke-width: 0.339411"/>
    <path d="M 145.024103 113.842192 
L 146.084763 112.781532 
L 147.145423 113.842192 
L 148.206083 112.781532 
L 147.145423 111.720871 
L 148.206083 110.660211 
L 147.145423 109.599551 
L 146.084763 110.660211 
L 145.024103 109.599551 
L 143.963443 110.660211 
L 145.024103 111.720871 
L 143.963443 112.781532 
z
" clip-path="url(#p85dd75d617)" style="fill: #4eb265; fill-opacity: 0.6; stroke: #ffffff; stroke-opacity: 0.6; stroke-width: 0.339411"/>
    <path d="M 197.816502 106.978721 
L 198.877163 105.918061 
L 199.937823 106.978721 
L 200.998483 105.918061 
L 199.937823 104.857401 
L 200.998483 103.79674 
L 199.937823 102.73608 
L 198.877163 103.79674 
L 197.816502 102.73608 
L 196.755842 103.79674 
L 197.816502 104.857401 
L 196.755842 105.918061 
z
" clip-path="url(#p85dd75d617)" style="fill: #4eb265; fill-opacity: 0.6; stroke: #ffffff; stroke-opacity: 0.6; stroke-width: 0.339411"/>
    <path d="M 151.867514 103.070362 
L 152.928174 102.009702 
L 153.988834 103.070362 
L 155.049495 102.009702 
L 153.988834 100.949042 
L 155.049495 99.888381 
L 153.988834 98.827721 
L 152.928174 99.888381 
L 151.867514 98.827721 
L 150.806854 99.888381 
L 151.867514 100.949042 
L 150.806854 102.009702 
z
" clip-path="url(#p85dd75d617)" style="fill: #4eb265; fill-opacity: 0.6; stroke: #ffffff; stroke-opacity: 0.6; stroke-width: 0.339411"/>
    <path d="M 113.421635 105.916967 
L 114.482296 104.856307 
L 115.542956 105.916967 
L 116.603616 104.856307 
L 115.542956 103.795646 
L 116.603616 102.734986 
L 115.542956 101.674326 
L 114.482296 102.734986 
L 113.421635 101.674326 
L 112.360975 102.734986 
L 113.421635 103.795646 
L 112.360975 104.856307 
z
" clip-path="url(#p85dd75d617)" style="fill: #4eb265; fill-opacity: 0.6; stroke: #ffffff; stroke-opacity: 0.6; stroke-width: 0.339411"/>
    <path d="M 97.058758 111.814309 
L 98.119418 110.753649 
L 99.180078 111.814309 
L 100.240739 110.753649 
L 99.180078 109.692989 
L 100.240739 108.632329 
L 99.180078 107.571669 
L 98.119418 108.632329 
L 97.058758 107.571669 
L 95.998098 108.632329 
L 97.058758 109.692989 
L 95.998098 110.753649 
z
" clip-path="url(#p85dd75d617)" style="fill: #4eb265; fill-opacity: 0.6; stroke: #ffffff; stroke-opacity: 0.6; stroke-width: 0.339411"/>
    <path d="M 91.297287 99.944083 
L 92.357947 98.883423 
L 93.418608 99.944083 
L 94.479268 98.883423 
L 93.418608 97.822763 
L 94.479268 96.762102 
L 93.418608 95.701442 
L 92.357947 96.762102 
L 91.297287 95.701442 
L 90.236627 96.762102 
L 91.297287 97.822763 
L 90.236627 98.883423 
z
" clip-path="url(#p85dd75d617)" style="fill: #4eb265; fill-opacity: 0.6; stroke: #ffffff; stroke-opacity: 0.6; stroke-width: 0.339411"/>
    <path d="M 141.557524 111.899612 
L 142.618184 110.838952 
L 143.678845 111.899612 
L 144.739505 110.838952 
L 143.678845 109.778292 
L 144.739505 108.717631 
L 143.678845 107.656971 
L 142.618184 108.717631 
L 141.557524 107.656971 
L 140.496864 108.717631 
L 141.557524 109.778292 
L 140.496864 110.838952 
z
" clip-path="url(#p85dd75d617)" style="fill: #4eb265; fill-opacity: 0.6; stroke: #ffffff; stroke-opacity: 0.6; stroke-width: 0.339411"/>
    <path d="M 91.834944 103.515412 
L 92.895605 102.454752 
L 93.956265 103.515412 
L 95.016925 102.454752 
L 93.956265 101.394092 
L 95.016925 100.333431 
L 93.956265 99.272771 
L 92.895605 100.333431 
L 91.834944 99.272771 
L 90.774284 100.333431 
L 91.834944 101.394092 
L 90.774284 102.454752 
z
" clip-path="url(#p85dd75d617)" style="fill: #4eb265; fill-opacity: 0.6; stroke: #ffffff; stroke-opacity: 0.6; stroke-width: 0.339411"/>
    <path d="M 136.144169 104.664441 
L 137.204829 103.603781 
L 138.265489 104.664441 
L 139.32615 103.603781 
L 138.265489 102.543121 
L 139.32615 101.482461 
L 138.265489 100.421801 
L 137.204829 101.482461 
L 136.144169 100.421801 
L 135.083509 101.482461 
L 136.144169 102.543121 
L 135.083509 103.603781 
z
" clip-path="url(#p85dd75d617)" style="fill: #4eb265; fill-opacity: 0.6; stroke: #ffffff; stroke-opacity: 0.6; stroke-width: 0.339411"/>
    <path d="M 119.382169 96.59153 
L 120.442829 95.53087 
L 121.503489 96.59153 
L 122.564149 95.53087 
L 121.503489 94.47021 
L 122.564149 93.40955 
L 121.503489 92.348889 
L 120.442829 93.40955 
L 119.382169 92.348889 
L 118.321509 93.40955 
L 119.382169 94.47021 
L 118.321509 95.53087 
z
" clip-path="url(#p85dd75d617)" style="fill: #4eb265; fill-opacity: 0.6; stroke: #ffffff; stroke-opacity: 0.6; stroke-width: 0.339411"/>
    <path d="M 154.785965 102.460766 
L 155.846625 101.400106 
L 156.907285 102.460766 
L 157.967946 101.400106 
L 156.907285 100.339446 
L 157.967946 99.278786 
L 156.907285 98.218126 
L 155.846625 99.278786 
L 154.785965 98.218126 
L 153.725305 99.278786 
L 154.785965 100.339446 
L 153.725305 101.400106 
z
" clip-path="url(#p85dd75d617)" style="fill: #4eb265; fill-opacity: 0.6; stroke: #ffffff; stroke-opacity: 0.6; stroke-width: 0.339411"/>
    <path d="M 115.957573 96.716745 
L 117.018234 95.656085 
L 118.078894 96.716745 
L 119.139554 95.656085 
L 118.078894 94.595425 
L 119.139554 93.534765 
L 118.078894 92.474105 
L 117.018234 93.534765 
L 115.957573 92.474105 
L 114.896913 93.534765 
L 115.957573 94.595425 
L 114.896913 95.656085 
z
" clip-path="url(#p85dd75d617)" style="fill: #4eb265; fill-opacity: 0.6; stroke: #ffffff; stroke-opacity: 0.6; stroke-width: 0.339411"/>
    <path d="M 140.41094 115.094571 
L 141.4716 114.033911 
L 142.53226 115.094571 
L 143.592921 114.033911 
L 142.53226 112.973251 
L 143.592921 111.912591 
L 142.53226 110.851931 
L 141.4716 111.912591 
L 140.41094 110.851931 
L 139.35028 111.912591 
L 140.41094 112.973251 
L 139.35028 114.033911 
z
" clip-path="url(#p85dd75d617)" style="fill: #4eb265; fill-opacity: 0.6; stroke: #ffffff; stroke-opacity: 0.6; stroke-width: 0.339411"/>
    <path d="M 146.384638 95.632443 
L 147.445298 94.571783 
L 148.505958 95.632443 
L 149.566618 94.571783 
L 148.505958 93.511123 
L 149.566618 92.450462 
L 148.505958 91.389802 
L 147.445298 92.450462 
L 146.384638 91.389802 
L 145.323977 92.450462 
L 146.384638 93.511123 
L 145.323977 94.571783 
z
" clip-path="url(#p85dd75d617)" style="fill: #4eb265; fill-opacity: 0.6; stroke: #ffffff; stroke-opacity: 0.6; stroke-width: 0.339411"/>
    <path d="M 142.83446 100.636409 
L 143.89512 99.575749 
L 144.95578 100.636409 
L 146.016441 99.575749 
L 144.95578 98.515089 
L 146.016441 97.454429 
L 144.95578 96.393769 
L 143.89512 97.454429 
L 142.83446 96.393769 
L 141.7738 97.454429 
L 142.83446 98.515089 
L 141.7738 99.575749 
z
" clip-path="url(#p85dd75d617)" style="fill: #4eb265; fill-opacity: 0.6; stroke: #ffffff; stroke-opacity: 0.6; stroke-width: 0.339411"/>
    <path d="M 141.62458 101.445002 
L 142.68524 100.384342 
L 143.7459 101.445002 
L 144.80656 100.384342 
L 143.7459 99.323682 
L 144.80656 98.263022 
L 143.7459 97.202362 
L 142.68524 98.263022 
L 141.62458 97.202362 
L 140.56392 98.263022 
L 141.62458 99.323682 
L 140.56392 100.384342 
z
" clip-path="url(#p85dd75d617)" style="fill: #4eb265; fill-opacity: 0.6; stroke: #ffffff; stroke-opacity: 0.6; stroke-width: 0.339411"/>
    <path d="M 122.466108 110.602492 
L 123.526768 109.541832 
L 124.587428 110.602492 
L 125.648089 109.541832 
L 124.587428 108.481172 
L 125.648089 107.420511 
L 124.587428 106.359851 
L 123.526768 107.420511 
L 122.466108 106.359851 
L 121.405448 107.420511 
L 122.466108 108.481172 
L 121.405448 109.541832 
z
" clip-path="url(#p85dd75d617)" style="fill: #4eb265; fill-opacity: 0.6; stroke: #ffffff; stroke-opacity: 0.6; stroke-width: 0.339411"/>
    <path d="M 130.827841 105.292198 
L 131.888501 104.231538 
L 132.949161 105.292198 
L 134.009821 104.231538 
L 132.949161 103.170878 
L 134.009821 102.110218 
L 132.949161 101.049558 
L 131.888501 102.110218 
L 130.827841 101.049558 
L 129.767181 102.110218 
L 130.827841 103.170878 
L 129.767181 104.231538 
z
" clip-path="url(#p85dd75d617)" style="fill: #4eb265; fill-opacity: 0.6; stroke: #ffffff; stroke-opacity: 0.6; stroke-width: 0.339411"/>
    <path d="M 155.95372 103.708663 
L 157.01438 102.648003 
L 158.07504 103.708663 
L 159.135701 102.648003 
L 158.07504 101.587343 
L 159.135701 100.526683 
L 158.07504 99.466023 
L 157.01438 100.526683 
L 155.95372 99.466023 
L 154.89306 100.526683 
L 155.95372 101.587343 
L 154.89306 102.648003 
z
" clip-path="url(#p85dd75d617)" style="fill: #4eb265; fill-opacity: 0.6; stroke: #ffffff; stroke-opacity: 0.6; stroke-width: 0.339411"/>
    <path d="M 148.945123 103.650429 
L 150.005783 102.589768 
L 151.066444 103.650429 
L 152.127104 102.589768 
L 151.066444 101.529108 
L 152.127104 100.468448 
L 151.066444 99.407788 
L 150.005783 100.468448 
L 148.945123 99.407788 
L 147.884463 100.468448 
L 148.945123 101.529108 
L 147.884463 102.589768 
z
" clip-path="url(#p85dd75d617)" style="fill: #4eb265; fill-opacity: 0.6; stroke: #ffffff; stroke-opacity: 0.6; stroke-width: 0.339411"/>
    <path d="M 141.930362 108.683402 
L 142.991022 107.622742 
L 144.051683 108.683402 
L 145.112343 107.622742 
L 144.051683 106.562082 
L 145.112343 105.501422 
L 144.051683 104.440762 
L 142.991022 105.501422 
L 141.930362 104.440762 
L 140.869702 105.501422 
L 141.930362 106.562082 
L 140.869702 107.622742 
z
" clip-path="url(#p85dd75d617)" style="fill: #4eb265; fill-opacity: 0.6; stroke: #ffffff; stroke-opacity: 0.6; stroke-width: 0.339411"/>
    <path d="M 107.713756 99.663212 
L 108.774416 98.602552 
L 109.835076 99.663212 
L 110.895736 98.602552 
L 109.835076 97.541892 
L 110.895736 96.481232 
L 109.835076 95.420572 
L 108.774416 96.481232 
L 107.713756 95.420572 
L 106.653096 96.481232 
L 107.713756 97.541892 
L 106.653096 98.602552 
z
" clip-path="url(#p85dd75d617)" style="fill: #4eb265; fill-opacity: 0.6; stroke: #ffffff; stroke-opacity: 0.6; stroke-width: 0.339411"/>
    <path d="M 173.989099 112.500503 
L 175.049759 111.439843 
L 176.110419 112.500503 
L 177.171079 111.439843 
L 176.110419 110.379183 
L 177.171079 109.318523 
L 176.110419 108.257863 
L 175.049759 109.318523 
L 173.989099 108.257863 
L 172.928439 109.318523 
L 173.989099 110.379183 
L 172.928439 111.439843 
z
" clip-path="url(#p85dd75d617)" style="fill: #4eb265; fill-opacity: 0.6; stroke: #ffffff; stroke-opacity: 0.6; stroke-width: 0.339411"/>
    <path d="M 156.381587 110.303688 
L 157.442248 109.243028 
L 158.502908 110.303688 
L 159.563568 109.243028 
L 158.502908 108.182368 
L 159.563568 107.121708 
L 158.502908 106.061048 
L 157.442248 107.121708 
L 156.381587 106.061048 
L 155.320927 107.121708 
L 156.381587 108.182368 
L 155.320927 109.243028 
z
" clip-path="url(#p85dd75d617)" style="fill: #4eb265; fill-opacity: 0.6; stroke: #ffffff; stroke-opacity: 0.6; stroke-width: 0.339411"/>
    <path d="M 89.925755 106.813897 
L 90.986415 105.753237 
L 92.047075 106.813897 
L 93.107735 105.753237 
L 92.047075 104.692577 
L 93.107735 103.631917 
L 92.047075 102.571256 
L 90.986415 103.631917 
L 89.925755 102.571256 
L 88.865095 103.631917 
L 89.925755 104.692577 
L 88.865095 105.753237 
z
" clip-path="url(#p85dd75d617)" style="fill: #4eb265; fill-opacity: 0.6; stroke: #ffffff; stroke-opacity: 0.6; stroke-width: 0.339411"/>
    <path d="M 157.11669 104.966502 
L 158.17735 103.905842 
L 159.23801 104.966502 
L 160.298671 103.905842 
L 159.23801 102.845182 
L 160.298671 101.784521 
L 159.23801 100.723861 
L 158.17735 101.784521 
L 157.11669 100.723861 
L 156.05603 101.784521 
L 157.11669 102.845182 
L 156.05603 103.905842 
z
" clip-path="url(#p85dd75d617)" style="fill: #4eb265; fill-opacity: 0.6; stroke: #ffffff; stroke-opacity: 0.6; stroke-width: 0.339411"/>
    <path d="M 139.4565 98.948381 
L 140.51716 97.887721 
L 141.57782 98.948381 
L 142.63848 97.887721 
L 141.57782 96.827061 
L 142.63848 95.7664 
L 141.57782 94.70574 
L 140.51716 95.7664 
L 139.4565 94.70574 
L 138.395839 95.7664 
L 139.4565 96.827061 
L 138.395839 97.887721 
z
" clip-path="url(#p85dd75d617)" style="fill: #4eb265; fill-opacity: 0.6; stroke: #ffffff; stroke-opacity: 0.6; stroke-width: 0.339411"/>
    <path d="M 110.656773 98.398109 
L 111.717434 97.337449 
L 112.778094 98.398109 
L 113.838754 97.337449 
L 112.778094 96.276789 
L 113.838754 95.216129 
L 112.778094 94.155469 
L 111.717434 95.216129 
L 110.656773 94.155469 
L 109.596113 95.216129 
L 110.656773 96.276789 
L 109.596113 97.337449 
z
" clip-path="url(#p85dd75d617)" style="fill: #4eb265; fill-opacity: 0.6; stroke: #ffffff; stroke-opacity: 0.6; stroke-width: 0.339411"/>
    <path d="M 106.444813 96.283033 
L 107.505473 95.222373 
L 108.566133 96.283033 
L 109.626794 95.222373 
L 108.566133 94.161713 
L 109.626794 93.101053 
L 108.566133 92.040392 
L 107.505473 93.101053 
L 106.444813 92.040392 
L 105.384153 93.101053 
L 106.444813 94.161713 
L 105.384153 95.222373 
z
" clip-path="url(#p85dd75d617)" style="fill: #4eb265; fill-opacity: 0.6; stroke: #ffffff; stroke-opacity: 0.6; stroke-width: 0.339411"/>
    <path d="M 145.34036 107.078549 
L 146.40102 106.017889 
L 147.461681 107.078549 
L 148.522341 106.017889 
L 147.461681 104.957228 
L 148.522341 103.896568 
L 147.461681 102.835908 
L 146.40102 103.896568 
L 145.34036 102.835908 
L 144.2797 103.896568 
L 145.34036 104.957228 
L 144.2797 106.017889 
z
" clip-path="url(#p85dd75d617)" style="fill: #4eb265; fill-opacity: 0.6; stroke: #ffffff; stroke-opacity: 0.6; stroke-width: 0.339411"/>
    <path d="M 143.853923 107.090323 
L 144.914583 106.029663 
L 145.975243 107.090323 
L 147.035904 106.029663 
L 145.975243 104.969003 
L 147.035904 103.908342 
L 145.975243 102.847682 
L 144.914583 103.908342 
L 143.853923 102.847682 
L 142.793263 103.908342 
L 143.853923 104.969003 
L 142.793263 106.029663 
z
" clip-path="url(#p85dd75d617)" style="fill: #4eb265; fill-opacity: 0.6; stroke: #ffffff; stroke-opacity: 0.6; stroke-width: 0.339411"/>
    <path d="M 142.966 100.573428 
L 144.02666 99.512768 
L 145.08732 100.573428 
L 146.14798 99.512768 
L 145.08732 98.452107 
L 146.14798 97.391447 
L 145.08732 96.330787 
L 144.02666 97.391447 
L 142.966 96.330787 
L 141.90534 97.391447 
L 142.966 98.452107 
L 141.90534 99.512768 
z
" clip-path="url(#p85dd75d617)" style="fill: #4eb265; fill-opacity: 0.6; stroke: #ffffff; stroke-opacity: 0.6; stroke-width: 0.339411"/>
    <path d="M 102.447738 105.008717 
L 103.508398 103.948057 
L 104.569058 105.008717 
L 105.629719 103.948057 
L 104.569058 102.887397 
L 105.629719 101.826736 
L 104.569058 100.766076 
L 103.508398 101.826736 
L 102.447738 100.766076 
L 101.387078 101.826736 
L 102.447738 102.887397 
L 101.387078 103.948057 
z
" clip-path="url(#p85dd75d617)" style="fill: #4eb265; fill-opacity: 0.6; stroke: #ffffff; stroke-opacity: 0.6; stroke-width: 0.339411"/>
    <path d="M 111.721426 112.152997 
L 112.782086 111.092336 
L 113.842746 112.152997 
L 114.903406 111.092336 
L 113.842746 110.031676 
L 114.903406 108.971016 
L 113.842746 107.910356 
L 112.782086 108.971016 
L 111.721426 107.910356 
L 110.660765 108.971016 
L 111.721426 110.031676 
L 110.660765 111.092336 
z
" clip-path="url(#p85dd75d617)" style="fill: #4eb265; fill-opacity: 0.6; stroke: #ffffff; stroke-opacity: 0.6; stroke-width: 0.339411"/>
    <path d="M 121.163443 106.921839 
L 122.224103 105.861179 
L 123.284763 106.921839 
L 124.345423 105.861179 
L 123.284763 104.800519 
L 124.345423 103.739859 
L 123.284763 102.679199 
L 122.224103 103.739859 
L 121.163443 102.679199 
L 120.102783 103.739859 
L 121.163443 104.800519 
L 120.102783 105.861179 
z
" clip-path="url(#p85dd75d617)" style="fill: #4eb265; fill-opacity: 0.6; stroke: #ffffff; stroke-opacity: 0.6; stroke-width: 0.339411"/>
    <path d="M 83.511373 109.331472 
L 84.572033 108.270812 
L 85.632694 109.331472 
L 86.693354 108.270812 
L 85.632694 107.210152 
L 86.693354 106.149491 
L 85.632694 105.088831 
L 84.572033 106.149491 
L 83.511373 105.088831 
L 82.450713 106.149491 
L 83.511373 107.210152 
L 82.450713 108.270812 
z
" clip-path="url(#p85dd75d617)" style="fill: #4eb265; fill-opacity: 0.6; stroke: #ffffff; stroke-opacity: 0.6; stroke-width: 0.339411"/>
    <path d="M 130.531247 108.122446 
L 131.591907 107.061786 
L 132.652567 108.122446 
L 133.713227 107.061786 
L 132.652567 106.001126 
L 133.713227 104.940466 
L 132.652567 103.879806 
L 131.591907 104.940466 
L 130.531247 103.879806 
L 129.470586 104.940466 
L 130.531247 106.001126 
L 129.470586 107.061786 
z
" clip-path="url(#p85dd75d617)" style="fill: #4eb265; fill-opacity: 0.6; stroke: #ffffff; stroke-opacity: 0.6; stroke-width: 0.339411"/>
    <path d="M 116.633616 97.090183 
L 117.694276 96.029522 
L 118.754936 97.090183 
L 119.815596 96.029522 
L 118.754936 94.968862 
L 119.815596 93.908202 
L 118.754936 92.847542 
L 117.694276 93.908202 
L 116.633616 92.847542 
L 115.572955 93.908202 
L 116.633616 94.968862 
L 115.572955 96.029522 
z
" clip-path="url(#p85dd75d617)" style="fill: #4eb265; fill-opacity: 0.6; stroke: #ffffff; stroke-opacity: 0.6; stroke-width: 0.339411"/>
    <path d="M 172.084547 97.767897 
L 173.145207 96.707237 
L 174.205867 97.767897 
L 175.266528 96.707237 
L 174.205867 95.646576 
L 175.266528 94.585916 
L 174.205867 93.525256 
L 173.145207 94.585916 
L 172.084547 93.525256 
L 171.023887 94.585916 
L 172.084547 95.646576 
L 171.023887 96.707237 
z
" clip-path="url(#p85dd75d617)" style="fill: #4eb265; fill-opacity: 0.6; stroke: #ffffff; stroke-opacity: 0.6; stroke-width: 0.339411"/>
    <path d="M 160.358556 107.566437 
L 161.419216 106.505777 
L 162.479876 107.566437 
L 163.540537 106.505777 
L 162.479876 105.445117 
L 163.540537 104.384457 
L 162.479876 103.323797 
L 161.419216 104.384457 
L 160.358556 103.323797 
L 159.297896 104.384457 
L 160.358556 105.445117 
L 159.297896 106.505777 
z
" clip-path="url(#p85dd75d617)" style="fill: #4eb265; fill-opacity: 0.6; stroke: #ffffff; stroke-opacity: 0.6; stroke-width: 0.339411"/>
    <path d="M 106.0043 113.164595 
L 107.064961 112.103935 
L 108.125621 113.164595 
L 109.186281 112.103935 
L 108.125621 111.043274 
L 109.186281 109.982614 
L 108.125621 108.921954 
L 107.064961 109.982614 
L 106.0043 108.921954 
L 104.94364 109.982614 
L 106.0043 111.043274 
L 104.94364 112.103935 
z
" clip-path="url(#p85dd75d617)" style="fill: #4eb265; fill-opacity: 0.6; stroke: #ffffff; stroke-opacity: 0.6; stroke-width: 0.339411"/>
    <path d="M 94.5708 111.658282 
L 95.63146 110.597622 
L 96.692121 111.658282 
L 97.752781 110.597622 
L 96.692121 109.536962 
L 97.752781 108.476301 
L 96.692121 107.415641 
L 95.63146 108.476301 
L 94.5708 107.415641 
L 93.51014 108.476301 
L 94.5708 109.536962 
L 93.51014 110.597622 
z
" clip-path="url(#p85dd75d617)" style="fill: #4eb265; fill-opacity: 0.6; stroke: #ffffff; stroke-opacity: 0.6; stroke-width: 0.339411"/>
    <path d="M 161.609639 101.058099 
L 162.670299 99.997439 
L 163.730959 101.058099 
L 164.79162 99.997439 
L 163.730959 98.936779 
L 164.79162 97.876119 
L 163.730959 96.815458 
L 162.670299 97.876119 
L 161.609639 96.815458 
L 160.548979 97.876119 
L 161.609639 98.936779 
L 160.548979 99.997439 
z
" clip-path="url(#p85dd75d617)" style="fill: #4eb265; fill-opacity: 0.6; stroke: #ffffff; stroke-opacity: 0.6; stroke-width: 0.339411"/>
    <path d="M 140.716579 95.829392 
L 141.77724 94.768732 
L 142.8379 95.829392 
L 143.89856 94.768732 
L 142.8379 93.708071 
L 143.89856 92.647411 
L 142.8379 91.586751 
L 141.77724 92.647411 
L 140.716579 91.586751 
L 139.655919 92.647411 
L 140.716579 93.708071 
L 139.655919 94.768732 
z
" clip-path="url(#p85dd75d617)" style="fill: #4eb265; fill-opacity: 0.6; stroke: #ffffff; stroke-opacity: 0.6; stroke-width: 0.339411"/>
    <path d="M 144.170953 93.318726 
L 145.231614 92.258066 
L 146.292274 93.318726 
L 147.352934 92.258066 
L 146.292274 91.197406 
L 147.352934 90.136746 
L 146.292274 89.076086 
L 145.231614 90.136746 
L 144.170953 89.076086 
L 143.110293 90.136746 
L 144.170953 91.197406 
L 143.110293 92.258066 
z
" clip-path="url(#p85dd75d617)" style="fill: #4eb265; fill-opacity: 0.6; stroke: #ffffff; stroke-opacity: 0.6; stroke-width: 0.339411"/>
    <path d="M 128.629125 108.470779 
L 129.689785 107.410119 
L 130.750446 108.470779 
L 131.811106 107.410119 
L 130.750446 106.349459 
L 131.811106 105.288799 
L 130.750446 104.228139 
L 129.689785 105.288799 
L 128.629125 104.228139 
L 127.568465 105.288799 
L 128.629125 106.349459 
L 127.568465 107.410119 
z
" clip-path="url(#p85dd75d617)" style="fill: #4eb265; fill-opacity: 0.6; stroke: #ffffff; stroke-opacity: 0.6; stroke-width: 0.339411"/>
    <path d="M 110.380109 100.918926 
L 111.44077 99.858266 
L 112.50143 100.918926 
L 113.56209 99.858266 
L 112.50143 98.797606 
L 113.56209 97.736946 
L 112.50143 96.676286 
L 111.44077 97.736946 
L 110.380109 96.676286 
L 109.319449 97.736946 
L 110.380109 98.797606 
L 109.319449 99.858266 
z
" clip-path="url(#p85dd75d617)" style="fill: #4eb265; fill-opacity: 0.6; stroke: #ffffff; stroke-opacity: 0.6; stroke-width: 0.339411"/>
    <path d="M 163.20536 97.282167 
L 164.26602 96.221507 
L 165.32668 97.282167 
L 166.38734 96.221507 
L 165.32668 95.160847 
L 166.38734 94.100187 
L 165.32668 93.039527 
L 164.26602 94.100187 
L 163.20536 93.039527 
L 162.144699 94.100187 
L 163.20536 95.160847 
L 162.144699 96.221507 
z
" clip-path="url(#p85dd75d617)" style="fill: #4eb265; fill-opacity: 0.6; stroke: #ffffff; stroke-opacity: 0.6; stroke-width: 0.339411"/>
    <path d="M 144.414467 93.072365 
L 145.475127 92.011705 
L 146.535787 93.072365 
L 147.596447 92.011705 
L 146.535787 90.951045 
L 147.596447 89.890385 
L 146.535787 88.829724 
L 145.475127 89.890385 
L 144.414467 88.829724 
L 143.353807 89.890385 
L 144.414467 90.951045 
L 143.353807 92.011705 
z
" clip-path="url(#p85dd75d617)" style="fill: #4eb265; fill-opacity: 0.6; stroke: #ffffff; stroke-opacity: 0.6; stroke-width: 0.339411"/>
    <path d="M 171.439535 104.891817 
L 172.500195 103.831156 
L 173.560855 104.891817 
L 174.621516 103.831156 
L 173.560855 102.770496 
L 174.621516 101.709836 
L 173.560855 100.649176 
L 172.500195 101.709836 
L 171.439535 100.649176 
L 170.378875 101.709836 
L 171.439535 102.770496 
L 170.378875 103.831156 
z
" clip-path="url(#p85dd75d617)" style="fill: #4eb265; fill-opacity: 0.6; stroke: #ffffff; stroke-opacity: 0.6; stroke-width: 0.339411"/>
    <path d="M 129.540143 100.863294 
L 130.600803 99.802633 
L 131.661464 100.863294 
L 132.722124 99.802633 
L 131.661464 98.741973 
L 132.722124 97.681313 
L 131.661464 96.620653 
L 130.600803 97.681313 
L 129.540143 96.620653 
L 128.479483 97.681313 
L 129.540143 98.741973 
L 128.479483 99.802633 
z
" clip-path="url(#p85dd75d617)" style="fill: #4eb265; fill-opacity: 0.6; stroke: #ffffff; stroke-opacity: 0.6; stroke-width: 0.339411"/>
   </g>
   <g id="matplotlib.axis_1">
    <g id="xtick_1">
     <g id="line2d_1">
      <defs>
       <path id="m476f06b844" d="M 0 0 
L 0 8 
" style="stroke: #000000"/>
      </defs>
      <g>
       <use xlink:href="#m476f06b844" x="73.437203" y="182.532244" style="stroke: #000000"/>
      </g>
     </g>
     <g id="text_1">
      <!-- 50 -->
      <g transform="translate(60.774391 203.150369) scale(0.12 -0.12)">
       <defs>
        <path id="DejaVuSans-2212" d="M 678 2272 
L 4684 2272 
L 4684 1741 
L 678 1741 
L 678 2272 
z
" transform="scale(0.015625)"/>
        <path id="DejaVuSans-35" d="M 691 4666 
L 3169 4666 
L 3169 4134 
L 1269 4134 
L 1269 2991 
Q 1406 3038 1543 3061 
Q 1681 3084 1819 3084 
Q 2600 3084 3056 2656 
Q 3513 2228 3513 1497 
Q 3513 744 3044 326 
Q 2575 -91 1722 -91 
Q 1428 -91 1123 -41 
Q 819 9 494 109 
L 494 744 
Q 775 591 1075 516 
Q 1375 441 1709 441 
Q 2250 441 2565 725 
Q 2881 1009 2881 1497 
Q 2881 1984 2565 2268 
Q 2250 2553 1709 2553 
Q 1456 2553 1204 2497 
Q 953 2441 691 2322 
L 691 4666 
z
" transform="scale(0.015625)"/>
        <path id="DejaVuSans-30" d="M 2034 4250 
Q 1547 4250 1301 3770 
Q 1056 3291 1056 2328 
Q 1056 1369 1301 889 
Q 1547 409 2034 409 
Q 2525 409 2770 889 
Q 3016 1369 3016 2328 
Q 3016 3291 2770 3770 
Q 2525 4250 2034 4250 
z
M 2034 4750 
Q 2819 4750 3233 4129 
Q 3647 3509 3647 2328 
Q 3647 1150 3233 529 
Q 2819 -91 2034 -91 
Q 1250 -91 836 529 
Q 422 1150 422 2328 
Q 422 3509 836 4129 
Q 1250 4750 2034 4750 
z
" transform="scale(0.015625)"/>
       </defs>
       <use xlink:href="#DejaVuSans-2212"/>
       <use xlink:href="#DejaVuSans-35" x="83.789062"/>
       <use xlink:href="#DejaVuSans-30" x="147.412109"/>
      </g>
     </g>
    </g>
    <g id="xtick_2">
     <g id="line2d_2">
      <g>
       <use xlink:href="#m476f06b844" x="86.853054" y="182.532244" style="stroke: #000000"/>
      </g>
     </g>
     <g id="text_2">
      <!-- 40 -->
      <g transform="translate(74.190242 203.150369) scale(0.12 -0.12)">
       <defs>
        <path id="DejaVuSans-34" d="M 2419 4116 
L 825 1625 
L 2419 1625 
L 2419 4116 
z
M 2253 4666 
L 3047 4666 
L 3047 1625 
L 3713 1625 
L 3713 1100 
L 3047 1100 
L 3047 0 
L 2419 0 
L 2419 1100 
L 313 1100 
L 313 1709 
L 2253 4666 
z
" transform="scale(0.015625)"/>
       </defs>
       <use xlink:href="#DejaVuSans-2212"/>
       <use xlink:href="#DejaVuSans-34" x="83.789062"/>
       <use xlink:href="#DejaVuSans-30" x="147.412109"/>
      </g>
     </g>
    </g>
    <g id="xtick_3">
     <g id="line2d_3">
      <g>
       <use xlink:href="#m476f06b844" x="100.268905" y="182.532244" style="stroke: #000000"/>
      </g>
     </g>
     <g id="text_3">
      <!-- 30 -->
      <g transform="translate(87.606093 203.150369) scale(0.12 -0.12)">
       <defs>
        <path id="DejaVuSans-33" d="M 2597 2516 
Q 3050 2419 3304 2112 
Q 3559 1806 3559 1356 
Q 3559 666 3084 287 
Q 2609 -91 1734 -91 
Q 1441 -91 1130 -33 
Q 819 25 488 141 
L 488 750 
Q 750 597 1062 519 
Q 1375 441 1716 441 
Q 2309 441 2620 675 
Q 2931 909 2931 1356 
Q 2931 1769 2642 2001 
Q 2353 2234 1838 2234 
L 1294 2234 
L 1294 2753 
L 1863 2753 
Q 2328 2753 2575 2939 
Q 2822 3125 2822 3475 
Q 2822 3834 2567 4026 
Q 2313 4219 1838 4219 
Q 1578 4219 1281 4162 
Q 984 4106 628 3988 
L 628 4550 
Q 988 4650 1302 4700 
Q 1616 4750 1894 4750 
Q 2613 4750 3031 4423 
Q 3450 4097 3450 3541 
Q 3450 3153 3228 2886 
Q 3006 2619 2597 2516 
z
" transform="scale(0.015625)"/>
       </defs>
       <use xlink:href="#DejaVuSans-2212"/>
       <use xlink:href="#DejaVuSans-33" x="83.789062"/>
       <use xlink:href="#DejaVuSans-30" x="147.412109"/>
      </g>
     </g>
    </g>
    <g id="xtick_4">
     <g id="line2d_4">
      <g>
       <use xlink:href="#m476f06b844" x="113.684757" y="182.532244" style="stroke: #000000"/>
      </g>
     </g>
     <g id="text_4">
      <!-- 20 -->
      <g transform="translate(101.021944 203.150369) scale(0.12 -0.12)">
       <defs>
        <path id="DejaVuSans-32" d="M 1228 531 
L 3431 531 
L 3431 0 
L 469 0 
L 469 531 
Q 828 903 1448 1529 
Q 2069 2156 2228 2338 
Q 2531 2678 2651 2914 
Q 2772 3150 2772 3378 
Q 2772 3750 2511 3984 
Q 2250 4219 1831 4219 
Q 1534 4219 1204 4116 
Q 875 4013 500 3803 
L 500 4441 
Q 881 4594 1212 4672 
Q 1544 4750 1819 4750 
Q 2544 4750 2975 4387 
Q 3406 4025 3406 3419 
Q 3406 3131 3298 2873 
Q 3191 2616 2906 2266 
Q 2828 2175 2409 1742 
Q 1991 1309 1228 531 
z
" transform="scale(0.015625)"/>
       </defs>
       <use xlink:href="#DejaVuSans-2212"/>
       <use xlink:href="#DejaVuSans-32" x="83.789062"/>
       <use xlink:href="#DejaVuSans-30" x="147.412109"/>
      </g>
     </g>
    </g>
    <g id="xtick_5">
     <g id="line2d_5">
      <g>
       <use xlink:href="#m476f06b844" x="127.100608" y="182.532244" style="stroke: #000000"/>
      </g>
     </g>
     <g id="text_5">
      <!-- 10 -->
      <g transform="translate(114.437795 203.150369) scale(0.12 -0.12)">
       <defs>
        <path id="DejaVuSans-31" d="M 794 531 
L 1825 531 
L 1825 4091 
L 703 3866 
L 703 4441 
L 1819 4666 
L 2450 4666 
L 2450 531 
L 3481 531 
L 3481 0 
L 794 0 
L 794 531 
z
" transform="scale(0.015625)"/>
       </defs>
       <use xlink:href="#DejaVuSans-2212"/>
       <use xlink:href="#DejaVuSans-31" x="83.789062"/>
       <use xlink:href="#DejaVuSans-30" x="147.412109"/>
      </g>
     </g>
    </g>
    <g id="xtick_6">
     <g id="line2d_6">
      <g>
       <use xlink:href="#m476f06b844" x="140.516459" y="182.532244" style="stroke: #000000"/>
      </g>
     </g>
     <g id="text_6">
      <!-- 0 -->
      <g transform="translate(136.698959 203.150369) scale(0.12 -0.12)">
       <use xlink:href="#DejaVuSans-30"/>
      </g>
     </g>
    </g>
    <g id="xtick_7">
     <g id="line2d_7">
      <g>
       <use xlink:href="#m476f06b844" x="153.93231" y="182.532244" style="stroke: #000000"/>
      </g>
     </g>
     <g id="text_7">
      <!-- 10 -->
      <g transform="translate(146.29731 203.150369) scale(0.12 -0.12)">
       <use xlink:href="#DejaVuSans-31"/>
       <use xlink:href="#DejaVuSans-30" x="63.623047"/>
      </g>
     </g>
    </g>
    <g id="xtick_8">
     <g id="line2d_8">
      <g>
       <use xlink:href="#m476f06b844" x="167.348161" y="182.532244" style="stroke: #000000"/>
      </g>
     </g>
     <g id="text_8">
      <!-- 20 -->
      <g transform="translate(159.713161 203.150369) scale(0.12 -0.12)">
       <use xlink:href="#DejaVuSans-32"/>
       <use xlink:href="#DejaVuSans-30" x="63.623047"/>
      </g>
     </g>
    </g>
    <g id="xtick_9">
     <g id="line2d_9">
      <g>
       <use xlink:href="#m476f06b844" x="180.764013" y="182.532244" style="stroke: #000000"/>
      </g>
     </g>
     <g id="text_9">
      <!-- 30 -->
      <g transform="translate(173.129013 203.150369) scale(0.12 -0.12)">
       <use xlink:href="#DejaVuSans-33"/>
       <use xlink:href="#DejaVuSans-30" x="63.623047"/>
      </g>
     </g>
    </g>
    <g id="xtick_10">
     <g id="line2d_10">
      <g>
       <use xlink:href="#m476f06b844" x="194.179864" y="182.532244" style="stroke: #000000"/>
      </g>
     </g>
     <g id="text_10">
      <!-- 40 -->
      <g transform="translate(186.544864 203.150369) scale(0.12 -0.12)">
       <use xlink:href="#DejaVuSans-34"/>
       <use xlink:href="#DejaVuSans-30" x="63.623047"/>
      </g>
     </g>
    </g>
    <g id="xtick_11">
     <g id="line2d_11">
      <g>
       <use xlink:href="#m476f06b844" x="207.595715" y="182.532244" style="stroke: #000000"/>
      </g>
     </g>
     <g id="text_11">
      <!-- 50 -->
      <g transform="translate(199.960715 203.150369) scale(0.12 -0.12)">
       <use xlink:href="#DejaVuSans-35"/>
       <use xlink:href="#DejaVuSans-30" x="63.623047"/>
      </g>
     </g>
    </g>
    <g id="xtick_12">
     <g id="line2d_12">
      <g>
       <use xlink:href="#m476f06b844" x="221.011566" y="182.532244" style="stroke: #000000"/>
      </g>
     </g>
     <g id="text_12">
      <!-- 60 -->
      <g transform="translate(213.376566 203.150369) scale(0.12 -0.12)">
       <defs>
        <path id="DejaVuSans-36" d="M 2113 2584 
Q 1688 2584 1439 2293 
Q 1191 2003 1191 1497 
Q 1191 994 1439 701 
Q 1688 409 2113 409 
Q 2538 409 2786 701 
Q 3034 994 3034 1497 
Q 3034 2003 2786 2293 
Q 2538 2584 2113 2584 
z
M 3366 4563 
L 3366 3988 
Q 3128 4100 2886 4159 
Q 2644 4219 2406 4219 
Q 1781 4219 1451 3797 
Q 1122 3375 1075 2522 
Q 1259 2794 1537 2939 
Q 1816 3084 2150 3084 
Q 2853 3084 3261 2657 
Q 3669 2231 3669 1497 
Q 3669 778 3244 343 
Q 2819 -91 2113 -91 
Q 1303 -91 875 529 
Q 447 1150 447 2328 
Q 447 3434 972 4092 
Q 1497 4750 2381 4750 
Q 2619 4750 2861 4703 
Q 3103 4656 3366 4563 
z
" transform="scale(0.015625)"/>
       </defs>
       <use xlink:href="#DejaVuSans-36"/>
       <use xlink:href="#DejaVuSans-30" x="63.623047"/>
      </g>
     </g>
    </g>
    <g id="text_13">
     <!-- PC 1 (77.67%) -->
     <g transform="translate(99.734025 218.764119) scale(0.12 -0.12)">
      <defs>
       <path id="DejaVuSans-50" d="M 1259 4147 
L 1259 2394 
L 2053 2394 
Q 2494 2394 2734 2622 
Q 2975 2850 2975 3272 
Q 2975 3691 2734 3919 
Q 2494 4147 2053 4147 
L 1259 4147 
z
M 628 4666 
L 2053 4666 
Q 2838 4666 3239 4311 
Q 3641 3956 3641 3272 
Q 3641 2581 3239 2228 
Q 2838 1875 2053 1875 
L 1259 1875 
L 1259 0 
L 628 0 
L 628 4666 
z
" transform="scale(0.015625)"/>
       <path id="DejaVuSans-43" d="M 4122 4306 
L 4122 3641 
Q 3803 3938 3442 4084 
Q 3081 4231 2675 4231 
Q 1875 4231 1450 3742 
Q 1025 3253 1025 2328 
Q 1025 1406 1450 917 
Q 1875 428 2675 428 
Q 3081 428 3442 575 
Q 3803 722 4122 1019 
L 4122 359 
Q 3791 134 3420 21 
Q 3050 -91 2638 -91 
Q 1578 -91 968 557 
Q 359 1206 359 2328 
Q 359 3453 968 4101 
Q 1578 4750 2638 4750 
Q 3056 4750 3426 4639 
Q 3797 4528 4122 4306 
z
" transform="scale(0.015625)"/>
       <path id="DejaVuSans-20" transform="scale(0.015625)"/>
       <path id="DejaVuSans-28" d="M 1984 4856 
Q 1566 4138 1362 3434 
Q 1159 2731 1159 2009 
Q 1159 1288 1364 580 
Q 1569 -128 1984 -844 
L 1484 -844 
Q 1016 -109 783 600 
Q 550 1309 550 2009 
Q 550 2706 781 3412 
Q 1013 4119 1484 4856 
L 1984 4856 
z
" transform="scale(0.015625)"/>
       <path id="DejaVuSans-37" d="M 525 4666 
L 3525 4666 
L 3525 4397 
L 1831 0 
L 1172 0 
L 2766 4134 
L 525 4134 
L 525 4666 
z
" transform="scale(0.015625)"/>
       <path id="DejaVuSans-2e" d="M 684 794 
L 1344 794 
L 1344 0 
L 684 0 
L 684 794 
z
" transform="scale(0.015625)"/>
       <path id="DejaVuSans-25" d="M 4653 2053 
Q 4381 2053 4226 1822 
Q 4072 1591 4072 1178 
Q 4072 772 4226 539 
Q 4381 306 4653 306 
Q 4919 306 5073 539 
Q 5228 772 5228 1178 
Q 5228 1588 5073 1820 
Q 4919 2053 4653 2053 
z
M 4653 2450 
Q 5147 2450 5437 2106 
Q 5728 1763 5728 1178 
Q 5728 594 5436 251 
Q 5144 -91 4653 -91 
Q 4153 -91 3862 251 
Q 3572 594 3572 1178 
Q 3572 1766 3864 2108 
Q 4156 2450 4653 2450 
z
M 1428 4353 
Q 1159 4353 1004 4120 
Q 850 3888 850 3481 
Q 850 3069 1003 2837 
Q 1156 2606 1428 2606 
Q 1700 2606 1854 2837 
Q 2009 3069 2009 3481 
Q 2009 3884 1853 4118 
Q 1697 4353 1428 4353 
z
M 4250 4750 
L 4750 4750 
L 1831 -91 
L 1331 -91 
L 4250 4750 
z
M 1428 4750 
Q 1922 4750 2215 4408 
Q 2509 4066 2509 3481 
Q 2509 2891 2217 2550 
Q 1925 2209 1428 2209 
Q 931 2209 642 2551 
Q 353 2894 353 3481 
Q 353 4063 643 4406 
Q 934 4750 1428 4750 
z
" transform="scale(0.015625)"/>
       <path id="DejaVuSans-29" d="M 513 4856 
L 1013 4856 
Q 1481 4119 1714 3412 
Q 1947 2706 1947 2009 
Q 1947 1309 1714 600 
Q 1481 -109 1013 -844 
L 513 -844 
Q 928 -128 1133 580 
Q 1338 1288 1338 2009 
Q 1338 2731 1133 3434 
Q 928 4138 513 4856 
z
" transform="scale(0.015625)"/>
      </defs>
      <use xlink:href="#DejaVuSans-50"/>
      <use xlink:href="#DejaVuSans-43" x="60.302734"/>
      <use xlink:href="#DejaVuSans-20" x="130.126953"/>
      <use xlink:href="#DejaVuSans-31" x="161.914062"/>
      <use xlink:href="#DejaVuSans-20" x="225.537109"/>
      <use xlink:href="#DejaVuSans-28" x="257.324219"/>
      <use xlink:href="#DejaVuSans-37" x="296.337891"/>
      <use xlink:href="#DejaVuSans-37" x="359.960938"/>
      <use xlink:href="#DejaVuSans-2e" x="423.583984"/>
      <use xlink:href="#DejaVuSans-36" x="455.371094"/>
      <use xlink:href="#DejaVuSans-37" x="518.994141"/>
      <use xlink:href="#DejaVuSans-25" x="582.617188"/>
      <use xlink:href="#DejaVuSans-29" x="677.636719"/>
     </g>
    </g>
   </g>
   <g id="matplotlib.axis_2">
    <g id="ytick_1">
     <g id="line2d_13">
      <defs>
       <path id="m0560629429" d="M 0 0 
L -8 0 
" style="stroke: #000000"/>
      </defs>
      <g>
       <use xlink:href="#m0560629429" x="64.037638" y="173.132679" style="stroke: #000000"/>
      </g>
     </g>
     <g id="text_14">
      <!-- 50 -->
      <g transform="translate(27.212013 177.691741) scale(0.12 -0.12)">
       <use xlink:href="#DejaVuSans-2212"/>
       <use xlink:href="#DejaVuSans-35" x="83.789062"/>
       <use xlink:href="#DejaVuSans-30" x="147.412109"/>
      </g>
     </g>
    </g>
    <g id="ytick_2">
     <g id="line2d_14">
      <g>
       <use xlink:href="#m0560629429" x="64.037638" y="159.716828" style="stroke: #000000"/>
      </g>
     </g>
     <g id="text_15">
      <!-- 40 -->
      <g transform="translate(27.212013 164.27589) scale(0.12 -0.12)">
       <use xlink:href="#DejaVuSans-2212"/>
       <use xlink:href="#DejaVuSans-34" x="83.789062"/>
       <use xlink:href="#DejaVuSans-30" x="147.412109"/>
      </g>
     </g>
    </g>
    <g id="ytick_3">
     <g id="line2d_15">
      <g>
       <use xlink:href="#m0560629429" x="64.037638" y="146.300976" style="stroke: #000000"/>
      </g>
     </g>
     <g id="text_16">
      <!-- 30 -->
      <g transform="translate(27.212013 150.860039) scale(0.12 -0.12)">
       <use xlink:href="#DejaVuSans-2212"/>
       <use xlink:href="#DejaVuSans-33" x="83.789062"/>
       <use xlink:href="#DejaVuSans-30" x="147.412109"/>
      </g>
     </g>
    </g>
    <g id="ytick_4">
     <g id="line2d_16">
      <g>
       <use xlink:href="#m0560629429" x="64.037638" y="132.885125" style="stroke: #000000"/>
      </g>
     </g>
     <g id="text_17">
      <!-- 20 -->
      <g transform="translate(27.212013 137.444188) scale(0.12 -0.12)">
       <use xlink:href="#DejaVuSans-2212"/>
       <use xlink:href="#DejaVuSans-32" x="83.789062"/>
       <use xlink:href="#DejaVuSans-30" x="147.412109"/>
      </g>
     </g>
    </g>
    <g id="ytick_5">
     <g id="line2d_17">
      <g>
       <use xlink:href="#m0560629429" x="64.037638" y="119.469274" style="stroke: #000000"/>
      </g>
     </g>
     <g id="text_18">
      <!-- 10 -->
      <g transform="translate(27.212013 124.028337) scale(0.12 -0.12)">
       <use xlink:href="#DejaVuSans-2212"/>
       <use xlink:href="#DejaVuSans-31" x="83.789062"/>
       <use xlink:href="#DejaVuSans-30" x="147.412109"/>
      </g>
     </g>
    </g>
    <g id="ytick_6">
     <g id="line2d_18">
      <g>
       <use xlink:href="#m0560629429" x="64.037638" y="106.053423" style="stroke: #000000"/>
      </g>
     </g>
     <g id="text_19">
      <!-- 0 -->
      <g transform="translate(44.902638 110.612485) scale(0.12 -0.12)">
       <use xlink:href="#DejaVuSans-30"/>
      </g>
     </g>
    </g>
    <g id="ytick_7">
     <g id="line2d_19">
      <g>
       <use xlink:href="#m0560629429" x="64.037638" y="92.637572" style="stroke: #000000"/>
      </g>
     </g>
     <g id="text_20">
      <!-- 10 -->
      <g transform="translate(37.267638 97.196634) scale(0.12 -0.12)">
       <use xlink:href="#DejaVuSans-31"/>
       <use xlink:href="#DejaVuSans-30" x="63.623047"/>
      </g>
     </g>
    </g>
    <g id="ytick_8">
     <g id="line2d_20">
      <g>
       <use xlink:href="#m0560629429" x="64.037638" y="79.22172" style="stroke: #000000"/>
      </g>
     </g>
     <g id="text_21">
      <!-- 20 -->
      <g transform="translate(37.267638 83.780783) scale(0.12 -0.12)">
       <use xlink:href="#DejaVuSans-32"/>
       <use xlink:href="#DejaVuSans-30" x="63.623047"/>
      </g>
     </g>
    </g>
    <g id="ytick_9">
     <g id="line2d_21">
      <g>
       <use xlink:href="#m0560629429" x="64.037638" y="65.805869" style="stroke: #000000"/>
      </g>
     </g>
     <g id="text_22">
      <!-- 30 -->
      <g transform="translate(37.267638 70.364932) scale(0.12 -0.12)">
       <use xlink:href="#DejaVuSans-33"/>
       <use xlink:href="#DejaVuSans-30" x="63.623047"/>
      </g>
     </g>
    </g>
    <g id="ytick_10">
     <g id="line2d_22">
      <g>
       <use xlink:href="#m0560629429" x="64.037638" y="52.390018" style="stroke: #000000"/>
      </g>
     </g>
     <g id="text_23">
      <!-- 40 -->
      <g transform="translate(37.267638 56.949081) scale(0.12 -0.12)">
       <use xlink:href="#DejaVuSans-34"/>
       <use xlink:href="#DejaVuSans-30" x="63.623047"/>
      </g>
     </g>
    </g>
    <g id="ytick_11">
     <g id="line2d_23">
      <g>
       <use xlink:href="#m0560629429" x="64.037638" y="38.974167" style="stroke: #000000"/>
      </g>
     </g>
     <g id="text_24">
      <!-- 50 -->
      <g transform="translate(37.267638 43.533229) scale(0.12 -0.12)">
       <use xlink:href="#DejaVuSans-35"/>
       <use xlink:href="#DejaVuSans-30" x="63.623047"/>
      </g>
     </g>
    </g>
    <g id="ytick_12">
     <g id="line2d_24">
      <g>
       <use xlink:href="#m0560629429" x="64.037638" y="25.558316" style="stroke: #000000"/>
      </g>
     </g>
     <g id="text_25">
      <!-- 60 -->
      <g transform="translate(37.267638 30.117378) scale(0.12 -0.12)">
       <use xlink:href="#DejaVuSans-36"/>
       <use xlink:href="#DejaVuSans-30" x="63.623047"/>
      </g>
     </g>
    </g>
    <g id="text_26">
     <!-- PC 2 (4.59%) -->
     <g transform="translate(20.716388 143.018357) rotate(-90) scale(0.12 -0.12)">
      <defs>
       <path id="DejaVuSans-39" d="M 703 97 
L 703 672 
Q 941 559 1184 500 
Q 1428 441 1663 441 
Q 2288 441 2617 861 
Q 2947 1281 2994 2138 
Q 2813 1869 2534 1725 
Q 2256 1581 1919 1581 
Q 1219 1581 811 2004 
Q 403 2428 403 3163 
Q 403 3881 828 4315 
Q 1253 4750 1959 4750 
Q 2769 4750 3195 4129 
Q 3622 3509 3622 2328 
Q 3622 1225 3098 567 
Q 2575 -91 1691 -91 
Q 1453 -91 1209 -44 
Q 966 3 703 97 
z
M 1959 2075 
Q 2384 2075 2632 2365 
Q 2881 2656 2881 3163 
Q 2881 3666 2632 3958 
Q 2384 4250 1959 4250 
Q 1534 4250 1286 3958 
Q 1038 3666 1038 3163 
Q 1038 2656 1286 2365 
Q 1534 2075 1959 2075 
z
" transform="scale(0.015625)"/>
      </defs>
      <use xlink:href="#DejaVuSans-50"/>
      <use xlink:href="#DejaVuSans-43" x="60.302734"/>
      <use xlink:href="#DejaVuSans-20" x="130.126953"/>
      <use xlink:href="#DejaVuSans-32" x="161.914062"/>
      <use xlink:href="#DejaVuSans-20" x="225.537109"/>
      <use xlink:href="#DejaVuSans-28" x="257.324219"/>
      <use xlink:href="#DejaVuSans-34" x="296.337891"/>
      <use xlink:href="#DejaVuSans-2e" x="359.960938"/>
      <use xlink:href="#DejaVuSans-35" x="391.748047"/>
      <use xlink:href="#DejaVuSans-39" x="455.371094"/>
      <use xlink:href="#DejaVuSans-25" x="518.994141"/>
      <use xlink:href="#DejaVuSans-29" x="614.013672"/>
     </g>
    </g>
   </g>
   <g id="patch_3">
    <path d="M 64.037638 182.532244 
L 64.037638 25.142594 
" style="fill: none; stroke: #000000; stroke-width: 2; stroke-linejoin: miter; stroke-linecap: square"/>
   </g>
   <g id="patch_4">
    <path d="M 64.037638 182.532244 
L 221.427288 182.532244 
" style="fill: none; stroke: #000000; stroke-width: 2; stroke-linejoin: miter; stroke-linecap: square"/>
   </g>
  </g>
 </g>
 <defs>
  <clipPath id="p85dd75d617">
   <rect x="64.037638" y="25.142594" width="157.38965" height="157.38965"/>
  </clipPath>
 </defs>
</svg>
