<?xml version="1.0" encoding="utf-8" standalone="no"?>
<!DOCTYPE svg PUBLIC "-//W3C//DTD SVG 1.1//EN"
  "http://www.w3.org/Graphics/SVG/1.1/DTD/svg11.dtd">
<svg xmlns:xlink="http://www.w3.org/1999/xlink" width="240.944882pt" height="240.944882pt" viewBox="0 0 240.944882 240.944882" xmlns="http://www.w3.org/2000/svg" version="1.1">
 <metadata>
  <rdf:RDF xmlns:dc="http://purl.org/dc/elements/1.1/" xmlns:cc="http://creativecommons.org/ns#" xmlns:rdf="http://www.w3.org/1999/02/22-rdf-syntax-ns#">
   <cc:Work>
    <dc:type rdf:resource="http://purl.org/dc/dcmitype/StillImage"/>
    <dc:date>2025-02-24T15:44:27.978688</dc:date>
    <dc:format>image/svg+xml</dc:format>
    <dc:creator>
     <cc:Agent>
      <dc:title>Matplotlib v3.6.2, https://matplotlib.org/</dc:title>
     </cc:Agent>
    </dc:creator>
   </cc:Work>
  </rdf:RDF>
 </metadata>
 <defs>
  <style type="text/css">*{stroke-linejoin: round; stroke-linecap: butt}</style>
 </defs>
 <g id="figure_1">
  <g id="patch_1">
   <path d="M 0 240.944882 
L 240.944882 240.944882 
L 240.944882 0 
L 0 0 
L 0 240.944882 
z
" style="fill: none"/>
  </g>
  <g id="axes_1">
   <g id="patch_2">
    <path d="M 64.037638 183.896063 
L 227.984882 183.896063 
L 227.984882 19.948819 
L 64.037638 19.948819 
L 64.037638 183.896063 
z
" style="fill: none"/>
   </g>
   <g id="PathCollection_1">
    <path d="M 130.391943 123.218083 
L 132.191943 120.218083 
L 130.391943 117.218083 
L 128.591943 120.218083 
z
" clip-path="url(#p7b745ebca7)" style="fill: #332288; fill-opacity: 0.6; stroke: #ffffff; stroke-opacity: 0.6; stroke-width: 0.339411"/>
    <path d="M 213.600791 114.25556 
L 215.400791 111.25556 
L 213.600791 108.25556 
L 211.800791 111.25556 
z
" clip-path="url(#p7b745ebca7)" style="fill: #332288; fill-opacity: 0.6; stroke: #ffffff; stroke-opacity: 0.6; stroke-width: 0.339411"/>
    <path d="M 120.685543 53.574372 
L 122.485543 50.574372 
L 120.685543 47.574372 
L 118.885543 50.574372 
z
" clip-path="url(#p7b745ebca7)" style="fill: #332288; fill-opacity: 0.6; stroke: #ffffff; stroke-opacity: 0.6; stroke-width: 0.339411"/>
    <path d="M 174.568461 97.173877 
L 176.368461 94.173877 
L 174.568461 91.173877 
L 172.768461 94.173877 
z
" clip-path="url(#p7b745ebca7)" style="fill: #332288; fill-opacity: 0.6; stroke: #ffffff; stroke-opacity: 0.6; stroke-width: 0.339411"/>
    <path d="M 141.363429 53.027273 
L 143.163429 50.027273 
L 141.363429 47.027273 
L 139.563429 50.027273 
z
" clip-path="url(#p7b745ebca7)" style="fill: #332288; fill-opacity: 0.6; stroke: #ffffff; stroke-opacity: 0.6; stroke-width: 0.339411"/>
    <path d="M 187.386372 110.991324 
L 189.186372 107.991324 
L 187.386372 104.991324 
L 185.586372 107.991324 
z
" clip-path="url(#p7b745ebca7)" style="fill: #332288; fill-opacity: 0.6; stroke: #ffffff; stroke-opacity: 0.6; stroke-width: 0.339411"/>
    <path d="M 212.624831 131.017604 
L 214.424831 128.017604 
L 212.624831 125.017604 
L 210.824831 128.017604 
z
" clip-path="url(#p7b745ebca7)" style="fill: #332288; fill-opacity: 0.6; stroke: #ffffff; stroke-opacity: 0.6; stroke-width: 0.339411"/>
    <path d="M 128.683982 105.499296 
L 130.483982 102.499296 
L 128.683982 99.499296 
L 126.883982 102.499296 
z
" clip-path="url(#p7b745ebca7)" style="fill: #332288; fill-opacity: 0.6; stroke: #ffffff; stroke-opacity: 0.6; stroke-width: 0.339411"/>
    <path d="M 158.195165 87.345428 
L 159.995165 84.345428 
L 158.195165 81.345428 
L 156.395165 84.345428 
z
" clip-path="url(#p7b745ebca7)" style="fill: #332288; fill-opacity: 0.6; stroke: #ffffff; stroke-opacity: 0.6; stroke-width: 0.339411"/>
    <path d="M 147.52039 48.478803 
L 149.32039 45.478803 
L 147.52039 42.478803 
L 145.72039 45.478803 
z
" clip-path="url(#p7b745ebca7)" style="fill: #332288; fill-opacity: 0.6; stroke: #ffffff; stroke-opacity: 0.6; stroke-width: 0.339411"/>
    <path d="M 136.116172 61.07804 
L 137.916172 58.07804 
L 136.116172 55.07804 
L 134.316172 58.07804 
z
" clip-path="url(#p7b745ebca7)" style="fill: #332288; fill-opacity: 0.6; stroke: #ffffff; stroke-opacity: 0.6; stroke-width: 0.339411"/>
    <path d="M 160.768728 80.800736 
L 162.568728 77.800736 
L 160.768728 74.800736 
L 158.968728 77.800736 
z
" clip-path="url(#p7b745ebca7)" style="fill: #332288; fill-opacity: 0.6; stroke: #ffffff; stroke-opacity: 0.6; stroke-width: 0.339411"/>
    <path d="M 133.345621 120.378693 
L 135.145621 117.378693 
L 133.345621 114.378693 
L 131.545621 117.378693 
z
" clip-path="url(#p7b745ebca7)" style="fill: #332288; fill-opacity: 0.6; stroke: #ffffff; stroke-opacity: 0.6; stroke-width: 0.339411"/>
    <path d="M 213.137647 110.921231 
L 214.937647 107.921231 
L 213.137647 104.921231 
L 211.337647 107.921231 
z
" clip-path="url(#p7b745ebca7)" style="fill: #332288; fill-opacity: 0.6; stroke: #ffffff; stroke-opacity: 0.6; stroke-width: 0.339411"/>
    <path d="M 141.621619 58.293377 
L 143.421619 55.293377 
L 141.621619 52.293377 
L 139.821619 55.293377 
z
" clip-path="url(#p7b745ebca7)" style="fill: #332288; fill-opacity: 0.6; stroke: #ffffff; stroke-opacity: 0.6; stroke-width: 0.339411"/>
    <path d="M 132.014997 85.883659 
L 133.814997 82.883659 
L 132.014997 79.883659 
L 130.214997 82.883659 
z
" clip-path="url(#p7b745ebca7)" style="fill: #332288; fill-opacity: 0.6; stroke: #ffffff; stroke-opacity: 0.6; stroke-width: 0.339411"/>
    <path d="M 138.895216 57.268587 
L 140.695216 54.268587 
L 138.895216 51.268587 
L 137.095216 54.268587 
z
" clip-path="url(#p7b745ebca7)" style="fill: #332288; fill-opacity: 0.6; stroke: #ffffff; stroke-opacity: 0.6; stroke-width: 0.339411"/>
    <path d="M 213.052522 104.201687 
L 214.852522 101.201687 
L 213.052522 98.201687 
L 211.252522 101.201687 
z
" clip-path="url(#p7b745ebca7)" style="fill: #332288; fill-opacity: 0.6; stroke: #ffffff; stroke-opacity: 0.6; stroke-width: 0.339411"/>
    <path d="M 123.41347 53.504722 
L 125.21347 50.504722 
L 123.41347 47.504722 
L 121.61347 50.504722 
z
" clip-path="url(#p7b745ebca7)" style="fill: #332288; fill-opacity: 0.6; stroke: #ffffff; stroke-opacity: 0.6; stroke-width: 0.339411"/>
    <path d="M 216.315253 124.984661 
L 218.115253 121.984661 
L 216.315253 118.984661 
L 214.515253 121.984661 
z
" clip-path="url(#p7b745ebca7)" style="fill: #332288; fill-opacity: 0.6; stroke: #ffffff; stroke-opacity: 0.6; stroke-width: 0.339411"/>
    <path d="M 216.315253 124.984661 
L 218.115253 121.984661 
L 216.315253 118.984661 
L 214.515253 121.984661 
z
" clip-path="url(#p7b745ebca7)" style="fill: #332288; fill-opacity: 0.6; stroke: #ffffff; stroke-opacity: 0.6; stroke-width: 0.339411"/>
    <path d="M 122.637892 59.949826 
L 124.437892 56.949826 
L 122.637892 53.949826 
L 120.837892 56.949826 
z
" clip-path="url(#p7b745ebca7)" style="fill: #332288; fill-opacity: 0.6; stroke: #ffffff; stroke-opacity: 0.6; stroke-width: 0.339411"/>
    <path d="M 126.556663 62.29667 
L 128.356663 59.29667 
L 126.556663 56.29667 
L 124.756663 59.29667 
z
" clip-path="url(#p7b745ebca7)" style="fill: #332288; fill-opacity: 0.6; stroke: #ffffff; stroke-opacity: 0.6; stroke-width: 0.339411"/>
    <path d="M 209.984154 99.571408 
L 211.784154 96.571408 
L 209.984154 93.571408 
L 208.184154 96.571408 
z
" clip-path="url(#p7b745ebca7)" style="fill: #332288; fill-opacity: 0.6; stroke: #ffffff; stroke-opacity: 0.6; stroke-width: 0.339411"/>
    <path d="M 157.167105 86.443806 
L 158.967105 83.443806 
L 157.167105 80.443806 
L 155.367105 83.443806 
z
" clip-path="url(#p7b745ebca7)" style="fill: #332288; fill-opacity: 0.6; stroke: #ffffff; stroke-opacity: 0.6; stroke-width: 0.339411"/>
    <path d="M 151.140384 46.219775 
L 152.940384 43.219775 
L 151.140384 40.219775 
L 149.340384 43.219775 
z
" clip-path="url(#p7b745ebca7)" style="fill: #332288; fill-opacity: 0.6; stroke: #ffffff; stroke-opacity: 0.6; stroke-width: 0.339411"/>
    <path d="M 206.960915 132.033129 
L 208.760915 129.033129 
L 206.960915 126.033129 
L 205.160915 129.033129 
z
" clip-path="url(#p7b745ebca7)" style="fill: #332288; fill-opacity: 0.6; stroke: #ffffff; stroke-opacity: 0.6; stroke-width: 0.339411"/>
    <path d="M 187.065254 115.717774 
L 188.865254 112.717774 
L 187.065254 109.717774 
L 185.265254 112.717774 
z
" clip-path="url(#p7b745ebca7)" style="fill: #332288; fill-opacity: 0.6; stroke: #ffffff; stroke-opacity: 0.6; stroke-width: 0.339411"/>
    <path d="M 202.683897 136.108856 
L 204.483897 133.108856 
L 202.683897 130.108856 
L 200.883897 133.108856 
z
" clip-path="url(#p7b745ebca7)" style="fill: #332288; fill-opacity: 0.6; stroke: #ffffff; stroke-opacity: 0.6; stroke-width: 0.339411"/>
    <path d="M 133.04404 121.004358 
L 134.84404 118.004358 
L 133.04404 115.004358 
L 131.24404 118.004358 
z
" clip-path="url(#p7b745ebca7)" style="fill: #332288; fill-opacity: 0.6; stroke: #ffffff; stroke-opacity: 0.6; stroke-width: 0.339411"/>
    <path d="M 140.270146 49.877564 
L 142.070146 46.877564 
L 140.270146 43.877564 
L 138.470146 46.877564 
z
" clip-path="url(#p7b745ebca7)" style="fill: #332288; fill-opacity: 0.6; stroke: #ffffff; stroke-opacity: 0.6; stroke-width: 0.339411"/>
    <path d="M 87.34997 95.701236 
L 89.14997 92.701236 
L 87.34997 89.701236 
L 85.54997 92.701236 
z
" clip-path="url(#p7b745ebca7)" style="fill: #332288; fill-opacity: 0.6; stroke: #ffffff; stroke-opacity: 0.6; stroke-width: 0.339411"/>
    <path d="M 133.345621 120.378693 
L 135.145621 117.378693 
L 133.345621 114.378693 
L 131.545621 117.378693 
z
" clip-path="url(#p7b745ebca7)" style="fill: #332288; fill-opacity: 0.6; stroke: #ffffff; stroke-opacity: 0.6; stroke-width: 0.339411"/>
    <path d="M 140.270146 49.877564 
L 142.070146 46.877564 
L 140.270146 43.877564 
L 138.470146 46.877564 
z
" clip-path="url(#p7b745ebca7)" style="fill: #332288; fill-opacity: 0.6; stroke: #ffffff; stroke-opacity: 0.6; stroke-width: 0.339411"/>
    <path d="M 119.106198 55.565258 
L 120.906198 52.565258 
L 119.106198 49.565258 
L 117.306198 52.565258 
z
" clip-path="url(#p7b745ebca7)" style="fill: #332288; fill-opacity: 0.6; stroke: #ffffff; stroke-opacity: 0.6; stroke-width: 0.339411"/>
    <path d="M 212.911352 113.631735 
L 214.711352 110.631735 
L 212.911352 107.631735 
L 211.111352 110.631735 
z
" clip-path="url(#p7b745ebca7)" style="fill: #332288; fill-opacity: 0.6; stroke: #ffffff; stroke-opacity: 0.6; stroke-width: 0.339411"/>
    <path d="M 128.666694 53.037843 
L 130.466694 50.037843 
L 128.666694 47.037843 
L 126.866694 50.037843 
z
" clip-path="url(#p7b745ebca7)" style="fill: #332288; fill-opacity: 0.6; stroke: #ffffff; stroke-opacity: 0.6; stroke-width: 0.339411"/>
    <path d="M 131.322688 121.205838 
L 133.122688 118.205838 
L 131.322688 115.205838 
L 129.522688 118.205838 
z
" clip-path="url(#p7b745ebca7)" style="fill: #332288; fill-opacity: 0.6; stroke: #ffffff; stroke-opacity: 0.6; stroke-width: 0.339411"/>
    <path d="M 215.637393 131.729392 
L 217.437393 128.729392 
L 215.637393 125.729392 
L 213.837393 128.729392 
z
" clip-path="url(#p7b745ebca7)" style="fill: #332288; fill-opacity: 0.6; stroke: #ffffff; stroke-opacity: 0.6; stroke-width: 0.339411"/>
    <path d="M 127.223691 57.175143 
L 129.023691 54.175143 
L 127.223691 51.175143 
L 125.423691 54.175143 
z
" clip-path="url(#p7b745ebca7)" style="fill: #332288; fill-opacity: 0.6; stroke: #ffffff; stroke-opacity: 0.6; stroke-width: 0.339411"/>
    <path d="M 212.347839 109.095648 
L 214.147839 106.095648 
L 212.347839 103.095648 
L 210.547839 106.095648 
z
" clip-path="url(#p7b745ebca7)" style="fill: #332288; fill-opacity: 0.6; stroke: #ffffff; stroke-opacity: 0.6; stroke-width: 0.339411"/>
    <path d="M 213.052522 104.201687 
L 214.852522 101.201687 
L 213.052522 98.201687 
L 211.252522 101.201687 
z
" clip-path="url(#p7b745ebca7)" style="fill: #332288; fill-opacity: 0.6; stroke: #ffffff; stroke-opacity: 0.6; stroke-width: 0.339411"/>
    <path d="M 141.796554 44.771076 
L 143.596554 41.771076 
L 141.796554 38.771076 
L 139.996554 41.771076 
z
" clip-path="url(#p7b745ebca7)" style="fill: #332288; fill-opacity: 0.6; stroke: #ffffff; stroke-opacity: 0.6; stroke-width: 0.339411"/>
    <path d="M 132.293522 52.591555 
L 134.093522 49.591555 
L 132.293522 46.591555 
L 130.493522 49.591555 
z
" clip-path="url(#p7b745ebca7)" style="fill: #332288; fill-opacity: 0.6; stroke: #ffffff; stroke-opacity: 0.6; stroke-width: 0.339411"/>
    <path d="M 213.430476 107.445266 
L 215.230476 104.445266 
L 213.430476 101.445266 
L 211.630476 104.445266 
z
" clip-path="url(#p7b745ebca7)" style="fill: #332288; fill-opacity: 0.6; stroke: #ffffff; stroke-opacity: 0.6; stroke-width: 0.339411"/>
    <path d="M 213.717892 113.782489 
L 215.517892 110.782489 
L 213.717892 107.782489 
L 211.917892 110.782489 
z
" clip-path="url(#p7b745ebca7)" style="fill: #332288; fill-opacity: 0.6; stroke: #ffffff; stroke-opacity: 0.6; stroke-width: 0.339411"/>
    <path d="M 131.284427 125.33299 
L 133.084427 122.33299 
L 131.284427 119.33299 
L 129.484427 122.33299 
z
" clip-path="url(#p7b745ebca7)" style="fill: #332288; fill-opacity: 0.6; stroke: #ffffff; stroke-opacity: 0.6; stroke-width: 0.339411"/>
    <path d="M 212.309959 108.104768 
L 214.109959 105.104768 
L 212.309959 102.104768 
L 210.509959 105.104768 
z
" clip-path="url(#p7b745ebca7)" style="fill: #332288; fill-opacity: 0.6; stroke: #ffffff; stroke-opacity: 0.6; stroke-width: 0.339411"/>
    <path d="M 209.984154 99.571408 
L 211.784154 96.571408 
L 209.984154 93.571408 
L 208.184154 96.571408 
z
" clip-path="url(#p7b745ebca7)" style="fill: #332288; fill-opacity: 0.6; stroke: #ffffff; stroke-opacity: 0.6; stroke-width: 0.339411"/>
    <path d="M 189.335405 122.273301 
L 191.135405 119.273301 
L 189.335405 116.273301 
L 187.535405 119.273301 
z
" clip-path="url(#p7b745ebca7)" style="fill: #332288; fill-opacity: 0.6; stroke: #ffffff; stroke-opacity: 0.6; stroke-width: 0.339411"/>
    <path d="M 190.186177 127.085396 
L 191.986177 124.085396 
L 190.186177 121.085396 
L 188.386177 124.085396 
z
" clip-path="url(#p7b745ebca7)" style="fill: #332288; fill-opacity: 0.6; stroke: #ffffff; stroke-opacity: 0.6; stroke-width: 0.339411"/>
    <path d="M 138.928059 46.345177 
L 140.728059 43.345177 
L 138.928059 40.345177 
L 137.128059 43.345177 
z
" clip-path="url(#p7b745ebca7)" style="fill: #332288; fill-opacity: 0.6; stroke: #ffffff; stroke-opacity: 0.6; stroke-width: 0.339411"/>
    <path d="M 137.032304 51.377153 
L 138.832304 48.377153 
L 137.032304 45.377153 
L 135.232304 48.377153 
z
" clip-path="url(#p7b745ebca7)" style="fill: #332288; fill-opacity: 0.6; stroke: #ffffff; stroke-opacity: 0.6; stroke-width: 0.339411"/>
    <path d="M 141.621619 58.293377 
L 143.421619 55.293377 
L 141.621619 52.293377 
L 139.821619 55.293377 
z
" clip-path="url(#p7b745ebca7)" style="fill: #332288; fill-opacity: 0.6; stroke: #ffffff; stroke-opacity: 0.6; stroke-width: 0.339411"/>
    <path d="M 140.587503 52.686526 
L 142.387503 49.686526 
L 140.587503 46.686526 
L 138.787503 49.686526 
z
" clip-path="url(#p7b745ebca7)" style="fill: #332288; fill-opacity: 0.6; stroke: #ffffff; stroke-opacity: 0.6; stroke-width: 0.339411"/>
    <path d="M 132.238281 122.366524 
L 134.038281 119.366524 
L 132.238281 116.366524 
L 130.438281 119.366524 
z
" clip-path="url(#p7b745ebca7)" style="fill: #332288; fill-opacity: 0.6; stroke: #ffffff; stroke-opacity: 0.6; stroke-width: 0.339411"/>
    <path d="M 209.984154 99.571408 
L 211.784154 96.571408 
L 209.984154 93.571408 
L 208.184154 96.571408 
z
" clip-path="url(#p7b745ebca7)" style="fill: #332288; fill-opacity: 0.6; stroke: #ffffff; stroke-opacity: 0.6; stroke-width: 0.339411"/>
    <path d="M 205.444229 133.998411 
L 207.244229 130.998411 
L 205.444229 127.998411 
L 203.644229 130.998411 
z
" clip-path="url(#p7b745ebca7)" style="fill: #332288; fill-opacity: 0.6; stroke: #ffffff; stroke-opacity: 0.6; stroke-width: 0.339411"/>
    <path d="M 151.140384 46.219775 
L 152.940384 43.219775 
L 151.140384 40.219775 
L 149.340384 43.219775 
z
" clip-path="url(#p7b745ebca7)" style="fill: #332288; fill-opacity: 0.6; stroke: #ffffff; stroke-opacity: 0.6; stroke-width: 0.339411"/>
    <path d="M 205.664488 132.679045 
L 207.464488 129.679045 
L 205.664488 126.679045 
L 203.864488 129.679045 
z
" clip-path="url(#p7b745ebca7)" style="fill: #332288; fill-opacity: 0.6; stroke: #ffffff; stroke-opacity: 0.6; stroke-width: 0.339411"/>
    <path d="M 146.955525 45.67853 
L 148.755525 42.67853 
L 146.955525 39.67853 
L 145.155525 42.67853 
z
" clip-path="url(#p7b745ebca7)" style="fill: #332288; fill-opacity: 0.6; stroke: #ffffff; stroke-opacity: 0.6; stroke-width: 0.339411"/>
    <path d="M 119.258745 60.308338 
L 121.058745 57.308338 
L 119.258745 54.308338 
L 117.458745 57.308338 
z
" clip-path="url(#p7b745ebca7)" style="fill: #332288; fill-opacity: 0.6; stroke: #ffffff; stroke-opacity: 0.6; stroke-width: 0.339411"/>
    <path d="M 144.039211 80.590282 
L 145.839211 77.590282 
L 144.039211 74.590282 
L 142.239211 77.590282 
z
" clip-path="url(#p7b745ebca7)" style="fill: #332288; fill-opacity: 0.6; stroke: #ffffff; stroke-opacity: 0.6; stroke-width: 0.339411"/>
    <path d="M 213.98293 123.046021 
L 215.78293 120.046021 
L 213.98293 117.046021 
L 212.18293 120.046021 
z
" clip-path="url(#p7b745ebca7)" style="fill: #332288; fill-opacity: 0.6; stroke: #ffffff; stroke-opacity: 0.6; stroke-width: 0.339411"/>
    <path d="M 114.228204 96.585819 
L 112.106884 100.828459 
L 116.349525 100.828459 
z
" clip-path="url(#p7b745ebca7)" style="fill: #117733; fill-opacity: 0.6; stroke: #ffffff; stroke-opacity: 0.6; stroke-width: 0.339411"/>
    <path d="M 176.324463 131.074125 
L 174.203142 135.316766 
L 178.445783 135.316766 
z
" clip-path="url(#p7b745ebca7)" style="fill: #117733; fill-opacity: 0.6; stroke: #ffffff; stroke-opacity: 0.6; stroke-width: 0.339411"/>
    <path d="M 183.68477 138.219597 
L 181.563449 142.462237 
L 185.80609 142.462237 
z
" clip-path="url(#p7b745ebca7)" style="fill: #117733; fill-opacity: 0.6; stroke: #ffffff; stroke-opacity: 0.6; stroke-width: 0.339411"/>
    <path d="M 126.092179 112.032126 
L 123.970859 116.274767 
L 128.2135 116.274767 
z
" clip-path="url(#p7b745ebca7)" style="fill: #117733; fill-opacity: 0.6; stroke: #ffffff; stroke-opacity: 0.6; stroke-width: 0.339411"/>
    <path d="M 204.246437 129.057432 
L 202.125117 133.300073 
L 206.367757 133.300073 
z
" clip-path="url(#p7b745ebca7)" style="fill: #117733; fill-opacity: 0.6; stroke: #ffffff; stroke-opacity: 0.6; stroke-width: 0.339411"/>
    <path d="M 129.65173 140.761307 
L 127.53041 145.003948 
L 131.773051 145.003948 
z
" clip-path="url(#p7b745ebca7)" style="fill: #117733; fill-opacity: 0.6; stroke: #ffffff; stroke-opacity: 0.6; stroke-width: 0.339411"/>
    <path d="M 185.478424 128.441493 
L 183.357104 132.684134 
L 187.599744 132.684134 
z
" clip-path="url(#p7b745ebca7)" style="fill: #117733; fill-opacity: 0.6; stroke: #ffffff; stroke-opacity: 0.6; stroke-width: 0.339411"/>
    <path d="M 179.285555 123.478419 
L 177.164235 127.721059 
L 181.406875 127.721059 
z
" clip-path="url(#p7b745ebca7)" style="fill: #117733; fill-opacity: 0.6; stroke: #ffffff; stroke-opacity: 0.6; stroke-width: 0.339411"/>
    <path d="M 158.526028 110.429835 
L 156.404708 114.672476 
L 160.647349 114.672476 
z
" clip-path="url(#p7b745ebca7)" style="fill: #117733; fill-opacity: 0.6; stroke: #ffffff; stroke-opacity: 0.6; stroke-width: 0.339411"/>
    <path d="M 133.279853 76.601253 
L 131.158533 80.843894 
L 135.401174 80.843894 
z
" clip-path="url(#p7b745ebca7)" style="fill: #117733; fill-opacity: 0.6; stroke: #ffffff; stroke-opacity: 0.6; stroke-width: 0.339411"/>
    <path d="M 189.971418 149.158464 
L 187.850097 153.401105 
L 192.092738 153.401105 
z
" clip-path="url(#p7b745ebca7)" style="fill: #117733; fill-opacity: 0.6; stroke: #ffffff; stroke-opacity: 0.6; stroke-width: 0.339411"/>
    <path d="M 197.566094 142.808276 
L 195.444774 147.050917 
L 199.687415 147.050917 
z
" clip-path="url(#p7b745ebca7)" style="fill: #117733; fill-opacity: 0.6; stroke: #ffffff; stroke-opacity: 0.6; stroke-width: 0.339411"/>
    <path d="M 175.811468 137.073575 
L 173.690148 141.316216 
L 177.932788 141.316216 
z
" clip-path="url(#p7b745ebca7)" style="fill: #117733; fill-opacity: 0.6; stroke: #ffffff; stroke-opacity: 0.6; stroke-width: 0.339411"/>
    <path d="M 203.520619 133.673323 
L 201.399298 137.915964 
L 205.641939 137.915964 
z
" clip-path="url(#p7b745ebca7)" style="fill: #117733; fill-opacity: 0.6; stroke: #ffffff; stroke-opacity: 0.6; stroke-width: 0.339411"/>
    <path d="M 137.254511 123.175651 
L 135.133191 127.418292 
L 139.375831 127.418292 
z
" clip-path="url(#p7b745ebca7)" style="fill: #117733; fill-opacity: 0.6; stroke: #ffffff; stroke-opacity: 0.6; stroke-width: 0.339411"/>
    <path d="M 145.352272 78.741137 
L 143.230952 82.983777 
L 147.473592 82.983777 
z
" clip-path="url(#p7b745ebca7)" style="fill: #117733; fill-opacity: 0.6; stroke: #ffffff; stroke-opacity: 0.6; stroke-width: 0.339411"/>
    <path d="M 196.660795 137.288649 
L 194.539475 141.53129 
L 198.782116 141.53129 
z
" clip-path="url(#p7b745ebca7)" style="fill: #117733; fill-opacity: 0.6; stroke: #ffffff; stroke-opacity: 0.6; stroke-width: 0.339411"/>
    <path d="M 111.494196 114.743031 
L 109.372876 118.985672 
L 113.615516 118.985672 
z
" clip-path="url(#p7b745ebca7)" style="fill: #117733; fill-opacity: 0.6; stroke: #ffffff; stroke-opacity: 0.6; stroke-width: 0.339411"/>
    <path d="M 187.390839 143.53035 
L 185.269518 147.772991 
L 189.512159 147.772991 
z
" clip-path="url(#p7b745ebca7)" style="fill: #117733; fill-opacity: 0.6; stroke: #ffffff; stroke-opacity: 0.6; stroke-width: 0.339411"/>
    <path d="M 190.823538 151.688086 
L 188.702218 155.930727 
L 192.944858 155.930727 
z
" clip-path="url(#p7b745ebca7)" style="fill: #117733; fill-opacity: 0.6; stroke: #ffffff; stroke-opacity: 0.6; stroke-width: 0.339411"/>
    <path d="M 147.231407 158.55263 
L 145.110087 162.795271 
L 149.352727 162.795271 
z
" clip-path="url(#p7b745ebca7)" style="fill: #117733; fill-opacity: 0.6; stroke: #ffffff; stroke-opacity: 0.6; stroke-width: 0.339411"/>
    <path d="M 194.499749 150.479504 
L 192.378429 154.722144 
L 196.621069 154.722144 
z
" clip-path="url(#p7b745ebca7)" style="fill: #117733; fill-opacity: 0.6; stroke: #ffffff; stroke-opacity: 0.6; stroke-width: 0.339411"/>
    <path d="M 196.367043 140.330394 
L 194.245722 144.573034 
L 198.488363 144.573034 
z
" clip-path="url(#p7b745ebca7)" style="fill: #117733; fill-opacity: 0.6; stroke: #ffffff; stroke-opacity: 0.6; stroke-width: 0.339411"/>
    <path d="M 199.737852 133.957738 
L 197.616531 138.200379 
L 201.859172 138.200379 
z
" clip-path="url(#p7b745ebca7)" style="fill: #117733; fill-opacity: 0.6; stroke: #ffffff; stroke-opacity: 0.6; stroke-width: 0.339411"/>
    <path d="M 187.551943 158.226049 
L 185.430622 162.46869 
L 189.673263 162.46869 
z
" clip-path="url(#p7b745ebca7)" style="fill: #117733; fill-opacity: 0.6; stroke: #ffffff; stroke-opacity: 0.6; stroke-width: 0.339411"/>
    <path d="M 140.175895 120.921882 
L 138.054574 125.164522 
L 142.297215 125.164522 
z
" clip-path="url(#p7b745ebca7)" style="fill: #117733; fill-opacity: 0.6; stroke: #ffffff; stroke-opacity: 0.6; stroke-width: 0.339411"/>
    <path d="M 128.842449 67.794955 
L 126.721129 72.037596 
L 130.96377 72.037596 
z
" clip-path="url(#p7b745ebca7)" style="fill: #117733; fill-opacity: 0.6; stroke: #ffffff; stroke-opacity: 0.6; stroke-width: 0.339411"/>
    <path d="M 122.658224 156.971365 
L 120.536904 161.214006 
L 124.779544 161.214006 
z
" clip-path="url(#p7b745ebca7)" style="fill: #117733; fill-opacity: 0.6; stroke: #ffffff; stroke-opacity: 0.6; stroke-width: 0.339411"/>
    <path d="M 192.775625 144.890363 
L 190.654305 149.133004 
L 194.896945 149.133004 
z
" clip-path="url(#p7b745ebca7)" style="fill: #117733; fill-opacity: 0.6; stroke: #ffffff; stroke-opacity: 0.6; stroke-width: 0.339411"/>
    <path d="M 187.742249 154.862351 
L 185.620929 159.104992 
L 189.86357 159.104992 
z
" clip-path="url(#p7b745ebca7)" style="fill: #117733; fill-opacity: 0.6; stroke: #ffffff; stroke-opacity: 0.6; stroke-width: 0.339411"/>
    <path d="M 188.327258 151.957761 
L 186.205937 156.200402 
L 190.448578 156.200402 
z
" clip-path="url(#p7b745ebca7)" style="fill: #117733; fill-opacity: 0.6; stroke: #ffffff; stroke-opacity: 0.6; stroke-width: 0.339411"/>
    <path d="M 118.786941 56.9257 
L 116.66562 61.168341 
L 120.908261 61.168341 
z
" clip-path="url(#p7b745ebca7)" style="fill: #117733; fill-opacity: 0.6; stroke: #ffffff; stroke-opacity: 0.6; stroke-width: 0.339411"/>
    <path d="M 136.553723 74.508191 
L 134.432403 78.750832 
L 138.675043 78.750832 
z
" clip-path="url(#p7b745ebca7)" style="fill: #117733; fill-opacity: 0.6; stroke: #ffffff; stroke-opacity: 0.6; stroke-width: 0.339411"/>
    <path d="M 183.775641 108.319991 
L 181.654321 112.562632 
L 185.896961 112.562632 
z
" clip-path="url(#p7b745ebca7)" style="fill: #117733; fill-opacity: 0.6; stroke: #ffffff; stroke-opacity: 0.6; stroke-width: 0.339411"/>
    <path d="M 128.358655 67.587185 
L 126.237335 71.829826 
L 130.479976 71.829826 
z
" clip-path="url(#p7b745ebca7)" style="fill: #117733; fill-opacity: 0.6; stroke: #ffffff; stroke-opacity: 0.6; stroke-width: 0.339411"/>
    <path d="M 180.473307 122.091856 
L 178.351987 126.334497 
L 182.594628 126.334497 
z
" clip-path="url(#p7b745ebca7)" style="fill: #117733; fill-opacity: 0.6; stroke: #ffffff; stroke-opacity: 0.6; stroke-width: 0.339411"/>
    <path d="M 132.924087 109.33897 
L 130.802767 113.581611 
L 135.045407 113.581611 
z
" clip-path="url(#p7b745ebca7)" style="fill: #117733; fill-opacity: 0.6; stroke: #ffffff; stroke-opacity: 0.6; stroke-width: 0.339411"/>
    <path d="M 197.423149 139.253102 
L 195.301828 143.495742 
L 199.544469 143.495742 
z
" clip-path="url(#p7b745ebca7)" style="fill: #117733; fill-opacity: 0.6; stroke: #ffffff; stroke-opacity: 0.6; stroke-width: 0.339411"/>
    <path d="M 149.768692 126.118146 
L 147.647371 130.360786 
L 151.890012 130.360786 
z
" clip-path="url(#p7b745ebca7)" style="fill: #117733; fill-opacity: 0.6; stroke: #ffffff; stroke-opacity: 0.6; stroke-width: 0.339411"/>
    <path d="M 103.571454 111.446627 
L 101.450134 115.689267 
L 105.692775 115.689267 
z
" clip-path="url(#p7b745ebca7)" style="fill: #117733; fill-opacity: 0.6; stroke: #ffffff; stroke-opacity: 0.6; stroke-width: 0.339411"/>
    <path d="M 113.150059 94.032383 
L 111.028739 98.275024 
L 115.27138 98.275024 
z
" clip-path="url(#p7b745ebca7)" style="fill: #117733; fill-opacity: 0.6; stroke: #ffffff; stroke-opacity: 0.6; stroke-width: 0.339411"/>
    <path d="M 169.344253 129.06962 
L 167.222932 133.312261 
L 171.465573 133.312261 
z
" clip-path="url(#p7b745ebca7)" style="fill: #117733; fill-opacity: 0.6; stroke: #ffffff; stroke-opacity: 0.6; stroke-width: 0.339411"/>
    <path d="M 125.011603 85.786657 
L 122.890282 90.029297 
L 127.132923 90.029297 
z
" clip-path="url(#p7b745ebca7)" style="fill: #117733; fill-opacity: 0.6; stroke: #ffffff; stroke-opacity: 0.6; stroke-width: 0.339411"/>
    <path d="M 120.497576 66.692432 
L 118.376256 70.935073 
L 122.618896 70.935073 
z
" clip-path="url(#p7b745ebca7)" style="fill: #117733; fill-opacity: 0.6; stroke: #ffffff; stroke-opacity: 0.6; stroke-width: 0.339411"/>
    <path d="M 156.365014 111.237095 
L 154.243693 115.479735 
L 158.486334 115.479735 
z
" clip-path="url(#p7b745ebca7)" style="fill: #117733; fill-opacity: 0.6; stroke: #ffffff; stroke-opacity: 0.6; stroke-width: 0.339411"/>
    <path d="M 107.869591 97.955243 
L 105.74827 102.197884 
L 109.990911 102.197884 
z
" clip-path="url(#p7b745ebca7)" style="fill: #117733; fill-opacity: 0.6; stroke: #ffffff; stroke-opacity: 0.6; stroke-width: 0.339411"/>
    <path d="M 97.21103 146.549673 
L 95.08971 150.792313 
L 99.33235 150.792313 
z
" clip-path="url(#p7b745ebca7)" style="fill: #117733; fill-opacity: 0.6; stroke: #ffffff; stroke-opacity: 0.6; stroke-width: 0.339411"/>
    <path d="M 193.775311 138.963818 
L 191.653991 143.206459 
L 195.896631 143.206459 
z
" clip-path="url(#p7b745ebca7)" style="fill: #117733; fill-opacity: 0.6; stroke: #ffffff; stroke-opacity: 0.6; stroke-width: 0.339411"/>
    <path d="M 183.960786 128.025295 
L 181.839466 132.267936 
L 186.082106 132.267936 
z
" clip-path="url(#p7b745ebca7)" style="fill: #117733; fill-opacity: 0.6; stroke: #ffffff; stroke-opacity: 0.6; stroke-width: 0.339411"/>
    <path d="M 201.981338 138.962883 
L 199.860017 143.205523 
L 204.102658 143.205523 
z
" clip-path="url(#p7b745ebca7)" style="fill: #117733; fill-opacity: 0.6; stroke: #ffffff; stroke-opacity: 0.6; stroke-width: 0.339411"/>
    <path d="M 195.049054 140.927807 
L 192.927734 145.170447 
L 197.170375 145.170447 
z
" clip-path="url(#p7b745ebca7)" style="fill: #117733; fill-opacity: 0.6; stroke: #ffffff; stroke-opacity: 0.6; stroke-width: 0.339411"/>
    <path d="M 128.068833 114.650142 
L 125.947513 118.892782 
L 130.190153 118.892782 
z
" clip-path="url(#p7b745ebca7)" style="fill: #117733; fill-opacity: 0.6; stroke: #ffffff; stroke-opacity: 0.6; stroke-width: 0.339411"/>
    <path d="M 119.704338 166.429688 
L 117.583018 170.672329 
L 121.825659 170.672329 
z
" clip-path="url(#p7b745ebca7)" style="fill: #117733; fill-opacity: 0.6; stroke: #ffffff; stroke-opacity: 0.6; stroke-width: 0.339411"/>
    <path d="M 196.142583 140.059978 
L 194.021263 144.302618 
L 198.263904 144.302618 
z
" clip-path="url(#p7b745ebca7)" style="fill: #117733; fill-opacity: 0.6; stroke: #ffffff; stroke-opacity: 0.6; stroke-width: 0.339411"/>
    <path d="M 93.319682 144.172387 
L 91.198362 148.415027 
L 95.441002 148.415027 
z
" clip-path="url(#p7b745ebca7)" style="fill: #117733; fill-opacity: 0.6; stroke: #ffffff; stroke-opacity: 0.6; stroke-width: 0.339411"/>
    <path d="M 136.045992 69.643407 
L 133.924671 73.886048 
L 138.167312 73.886048 
z
" clip-path="url(#p7b745ebca7)" style="fill: #117733; fill-opacity: 0.6; stroke: #ffffff; stroke-opacity: 0.6; stroke-width: 0.339411"/>
    <path d="M 181.37728 161.882685 
L 179.25596 166.125326 
L 183.498601 166.125326 
z
" clip-path="url(#p7b745ebca7)" style="fill: #117733; fill-opacity: 0.6; stroke: #ffffff; stroke-opacity: 0.6; stroke-width: 0.339411"/>
    <path d="M 111.942598 125.905428 
L 109.821278 130.148069 
L 114.063918 130.148069 
z
" clip-path="url(#p7b745ebca7)" style="fill: #117733; fill-opacity: 0.6; stroke: #ffffff; stroke-opacity: 0.6; stroke-width: 0.339411"/>
    <path d="M 116.003432 120.678229 
L 113.882111 124.92087 
L 118.124752 124.92087 
z
" clip-path="url(#p7b745ebca7)" style="fill: #117733; fill-opacity: 0.6; stroke: #ffffff; stroke-opacity: 0.6; stroke-width: 0.339411"/>
    <path d="M 192.663509 146.154762 
L 190.542189 150.397402 
L 194.78483 150.397402 
z
" clip-path="url(#p7b745ebca7)" style="fill: #117733; fill-opacity: 0.6; stroke: #ffffff; stroke-opacity: 0.6; stroke-width: 0.339411"/>
    <path d="M 138.877765 132.116736 
L 136.756445 136.359377 
L 140.999086 136.359377 
z
" clip-path="url(#p7b745ebca7)" style="fill: #117733; fill-opacity: 0.6; stroke: #ffffff; stroke-opacity: 0.6; stroke-width: 0.339411"/>
    <path d="M 193.256377 127.12561 
L 191.135056 131.368251 
L 195.377697 131.368251 
z
" clip-path="url(#p7b745ebca7)" style="fill: #117733; fill-opacity: 0.6; stroke: #ffffff; stroke-opacity: 0.6; stroke-width: 0.339411"/>
    <path d="M 112.253762 107.249459 
L 110.132441 111.4921 
L 114.375082 111.4921 
z
" clip-path="url(#p7b745ebca7)" style="fill: #117733; fill-opacity: 0.6; stroke: #ffffff; stroke-opacity: 0.6; stroke-width: 0.339411"/>
    <path d="M 115.828468 81.694731 
L 120.071109 81.694731 
L 120.071109 77.452091 
L 115.828468 77.452091 
z
" clip-path="url(#p7b745ebca7)" style="fill: #44aa99; fill-opacity: 0.6; stroke: #ffffff; stroke-opacity: 0.6; stroke-width: 0.339411"/>
    <path d="M 123.468188 88.587336 
L 127.710829 88.587336 
L 127.710829 84.344695 
L 123.468188 84.344695 
z
" clip-path="url(#p7b745ebca7)" style="fill: #44aa99; fill-opacity: 0.6; stroke: #ffffff; stroke-opacity: 0.6; stroke-width: 0.339411"/>
    <path d="M 120.146224 122.834839 
L 124.388864 122.834839 
L 124.388864 118.592198 
L 120.146224 118.592198 
z
" clip-path="url(#p7b745ebca7)" style="fill: #44aa99; fill-opacity: 0.6; stroke: #ffffff; stroke-opacity: 0.6; stroke-width: 0.339411"/>
    <path d="M 88.243018 72.41589 
L 92.485659 72.41589 
L 92.485659 68.173249 
L 88.243018 68.173249 
z
" clip-path="url(#p7b745ebca7)" style="fill: #44aa99; fill-opacity: 0.6; stroke: #ffffff; stroke-opacity: 0.6; stroke-width: 0.339411"/>
    <path d="M 96.582157 140.579148 
L 100.824797 140.579148 
L 100.824797 136.336507 
L 96.582157 136.336507 
z
" clip-path="url(#p7b745ebca7)" style="fill: #44aa99; fill-opacity: 0.6; stroke: #ffffff; stroke-opacity: 0.6; stroke-width: 0.339411"/>
    <path d="M 137.341385 102.719788 
L 141.584026 102.719788 
L 141.584026 98.477148 
L 137.341385 98.477148 
z
" clip-path="url(#p7b745ebca7)" style="fill: #44aa99; fill-opacity: 0.6; stroke: #ffffff; stroke-opacity: 0.6; stroke-width: 0.339411"/>
    <path d="M 135.863933 86.937812 
L 140.106574 86.937812 
L 140.106574 82.695171 
L 135.863933 82.695171 
z
" clip-path="url(#p7b745ebca7)" style="fill: #44aa99; fill-opacity: 0.6; stroke: #ffffff; stroke-opacity: 0.6; stroke-width: 0.339411"/>
    <path d="M 118.842002 133.408902 
L 123.084643 133.408902 
L 123.084643 129.166261 
L 118.842002 129.166261 
z
" clip-path="url(#p7b745ebca7)" style="fill: #44aa99; fill-opacity: 0.6; stroke: #ffffff; stroke-opacity: 0.6; stroke-width: 0.339411"/>
    <path d="M 103.090224 61.148733 
L 107.332865 61.148733 
L 107.332865 56.906092 
L 103.090224 56.906092 
z
" clip-path="url(#p7b745ebca7)" style="fill: #44aa99; fill-opacity: 0.6; stroke: #ffffff; stroke-opacity: 0.6; stroke-width: 0.339411"/>
    <path d="M 88.820116 161.751853 
L 93.062756 161.751853 
L 93.062756 157.509212 
L 88.820116 157.509212 
z
" clip-path="url(#p7b745ebca7)" style="fill: #44aa99; fill-opacity: 0.6; stroke: #ffffff; stroke-opacity: 0.6; stroke-width: 0.339411"/>
    <path d="M 132.804743 76.106231 
L 137.047383 76.106231 
L 137.047383 71.86359 
L 132.804743 71.86359 
z
" clip-path="url(#p7b745ebca7)" style="fill: #44aa99; fill-opacity: 0.6; stroke: #ffffff; stroke-opacity: 0.6; stroke-width: 0.339411"/>
    <path d="M 130.602357 136.061744 
L 134.844998 136.061744 
L 134.844998 131.819104 
L 130.602357 131.819104 
z
" clip-path="url(#p7b745ebca7)" style="fill: #44aa99; fill-opacity: 0.6; stroke: #ffffff; stroke-opacity: 0.6; stroke-width: 0.339411"/>
    <path d="M 99.640952 141.953619 
L 103.883593 141.953619 
L 103.883593 137.710978 
L 99.640952 137.710978 
z
" clip-path="url(#p7b745ebca7)" style="fill: #44aa99; fill-opacity: 0.6; stroke: #ffffff; stroke-opacity: 0.6; stroke-width: 0.339411"/>
    <path d="M 96.484791 143.043924 
L 100.727432 143.043924 
L 100.727432 138.801283 
L 96.484791 138.801283 
z
" clip-path="url(#p7b745ebca7)" style="fill: #44aa99; fill-opacity: 0.6; stroke: #ffffff; stroke-opacity: 0.6; stroke-width: 0.339411"/>
    <path d="M 114.13401 91.682665 
L 118.376651 91.682665 
L 118.376651 87.440024 
L 114.13401 87.440024 
z
" clip-path="url(#p7b745ebca7)" style="fill: #44aa99; fill-opacity: 0.6; stroke: #ffffff; stroke-opacity: 0.6; stroke-width: 0.339411"/>
    <path d="M 87.599471 74.960648 
L 91.842112 74.960648 
L 91.842112 70.718007 
L 87.599471 70.718007 
z
" clip-path="url(#p7b745ebca7)" style="fill: #44aa99; fill-opacity: 0.6; stroke: #ffffff; stroke-opacity: 0.6; stroke-width: 0.339411"/>
    <path d="M 125.520667 93.574528 
L 129.763308 93.574528 
L 129.763308 89.331887 
L 125.520667 89.331887 
z
" clip-path="url(#p7b745ebca7)" style="fill: #44aa99; fill-opacity: 0.6; stroke: #ffffff; stroke-opacity: 0.6; stroke-width: 0.339411"/>
    <path d="M 114.193897 140.839066 
L 118.436537 140.839066 
L 118.436537 136.596426 
L 114.193897 136.596426 
z
" clip-path="url(#p7b745ebca7)" style="fill: #44aa99; fill-opacity: 0.6; stroke: #ffffff; stroke-opacity: 0.6; stroke-width: 0.339411"/>
    <path d="M 119.357879 157.407674 
L 123.60052 157.407674 
L 123.60052 153.165033 
L 119.357879 153.165033 
z
" clip-path="url(#p7b745ebca7)" style="fill: #44aa99; fill-opacity: 0.6; stroke: #ffffff; stroke-opacity: 0.6; stroke-width: 0.339411"/>
    <path d="M 105.117451 129.804203 
L 109.360091 129.804203 
L 109.360091 125.561562 
L 105.117451 125.561562 
z
" clip-path="url(#p7b745ebca7)" style="fill: #44aa99; fill-opacity: 0.6; stroke: #ffffff; stroke-opacity: 0.6; stroke-width: 0.339411"/>
    <path d="M 88.913795 112.215384 
L 93.156436 112.215384 
L 93.156436 107.972743 
L 88.913795 107.972743 
z
" clip-path="url(#p7b745ebca7)" style="fill: #44aa99; fill-opacity: 0.6; stroke: #ffffff; stroke-opacity: 0.6; stroke-width: 0.339411"/>
    <path d="M 111.249967 143.73182 
L 115.492608 143.73182 
L 115.492608 139.48918 
L 111.249967 139.48918 
z
" clip-path="url(#p7b745ebca7)" style="fill: #44aa99; fill-opacity: 0.6; stroke: #ffffff; stroke-opacity: 0.6; stroke-width: 0.339411"/>
    <path d="M 100.222928 86.533752 
L 104.465569 86.533752 
L 104.465569 82.291111 
L 100.222928 82.291111 
z
" clip-path="url(#p7b745ebca7)" style="fill: #44aa99; fill-opacity: 0.6; stroke: #ffffff; stroke-opacity: 0.6; stroke-width: 0.339411"/>
    <path d="M 99.927902 144.129738 
L 104.170542 144.129738 
L 104.170542 139.887097 
L 99.927902 139.887097 
z
" clip-path="url(#p7b745ebca7)" style="fill: #44aa99; fill-opacity: 0.6; stroke: #ffffff; stroke-opacity: 0.6; stroke-width: 0.339411"/>
    <path d="M 119.536903 121.634415 
L 123.779544 121.634415 
L 123.779544 117.391774 
L 119.536903 117.391774 
z
" clip-path="url(#p7b745ebca7)" style="fill: #44aa99; fill-opacity: 0.6; stroke: #ffffff; stroke-opacity: 0.6; stroke-width: 0.339411"/>
    <path d="M 114.294038 97.300254 
L 118.536679 97.300254 
L 118.536679 93.057614 
L 114.294038 93.057614 
z
" clip-path="url(#p7b745ebca7)" style="fill: #44aa99; fill-opacity: 0.6; stroke: #ffffff; stroke-opacity: 0.6; stroke-width: 0.339411"/>
    <path d="M 88.153874 155.108981 
L 92.396515 155.108981 
L 92.396515 150.86634 
L 88.153874 150.86634 
z
" clip-path="url(#p7b745ebca7)" style="fill: #44aa99; fill-opacity: 0.6; stroke: #ffffff; stroke-opacity: 0.6; stroke-width: 0.339411"/>
    <path d="M 100.923853 118.907152 
L 105.166494 118.907152 
L 105.166494 114.664511 
L 100.923853 114.664511 
z
" clip-path="url(#p7b745ebca7)" style="fill: #44aa99; fill-opacity: 0.6; stroke: #ffffff; stroke-opacity: 0.6; stroke-width: 0.339411"/>
    <path d="M 101.919311 106.150704 
L 106.161952 106.150704 
L 106.161952 101.908063 
L 101.919311 101.908063 
z
" clip-path="url(#p7b745ebca7)" style="fill: #44aa99; fill-opacity: 0.6; stroke: #ffffff; stroke-opacity: 0.6; stroke-width: 0.339411"/>
    <path d="M 86.955534 160.062466 
L 91.198175 160.062466 
L 91.198175 155.819825 
L 86.955534 155.819825 
z
" clip-path="url(#p7b745ebca7)" style="fill: #44aa99; fill-opacity: 0.6; stroke: #ffffff; stroke-opacity: 0.6; stroke-width: 0.339411"/>
    <path d="M 113.158387 78.660975 
L 117.401027 78.660975 
L 117.401027 74.418334 
L 113.158387 74.418334 
z
" clip-path="url(#p7b745ebca7)" style="fill: #44aa99; fill-opacity: 0.6; stroke: #ffffff; stroke-opacity: 0.6; stroke-width: 0.339411"/>
    <path d="M 120.775444 133.895462 
L 125.018084 133.895462 
L 125.018084 129.652821 
L 120.775444 129.652821 
z
" clip-path="url(#p7b745ebca7)" style="fill: #44aa99; fill-opacity: 0.6; stroke: #ffffff; stroke-opacity: 0.6; stroke-width: 0.339411"/>
    <path d="M 90.991641 168.607392 
L 95.234282 168.607392 
L 95.234282 164.364751 
L 90.991641 164.364751 
z
" clip-path="url(#p7b745ebca7)" style="fill: #44aa99; fill-opacity: 0.6; stroke: #ffffff; stroke-opacity: 0.6; stroke-width: 0.339411"/>
    <path d="M 124.8898 118.312956 
L 129.13244 118.312956 
L 129.13244 114.070315 
L 124.8898 114.070315 
z
" clip-path="url(#p7b745ebca7)" style="fill: #44aa99; fill-opacity: 0.6; stroke: #ffffff; stroke-opacity: 0.6; stroke-width: 0.339411"/>
    <path d="M 123.690249 94.026737 
L 127.93289 94.026737 
L 127.93289 89.784097 
L 123.690249 89.784097 
z
" clip-path="url(#p7b745ebca7)" style="fill: #44aa99; fill-opacity: 0.6; stroke: #ffffff; stroke-opacity: 0.6; stroke-width: 0.339411"/>
    <path d="M 135.863933 86.937812 
L 140.106574 86.937812 
L 140.106574 82.695171 
L 135.863933 82.695171 
z
" clip-path="url(#p7b745ebca7)" style="fill: #44aa99; fill-opacity: 0.6; stroke: #ffffff; stroke-opacity: 0.6; stroke-width: 0.339411"/>
    <path d="M 96.977314 139.464556 
L 101.219954 139.464556 
L 101.219954 135.221915 
L 96.977314 135.221915 
z
" clip-path="url(#p7b745ebca7)" style="fill: #44aa99; fill-opacity: 0.6; stroke: #ffffff; stroke-opacity: 0.6; stroke-width: 0.339411"/>
    <path d="M 119.878054 73.240448 
L 124.120695 73.240448 
L 124.120695 68.997808 
L 119.878054 68.997808 
z
" clip-path="url(#p7b745ebca7)" style="fill: #44aa99; fill-opacity: 0.6; stroke: #ffffff; stroke-opacity: 0.6; stroke-width: 0.339411"/>
    <path d="M 94.528803 144.440401 
L 98.771444 144.440401 
L 98.771444 140.19776 
L 94.528803 140.19776 
z
" clip-path="url(#p7b745ebca7)" style="fill: #44aa99; fill-opacity: 0.6; stroke: #ffffff; stroke-opacity: 0.6; stroke-width: 0.339411"/>
    <path d="M 118.440085 144.755676 
L 122.682726 144.755676 
L 122.682726 140.513035 
L 118.440085 140.513035 
z
" clip-path="url(#p7b745ebca7)" style="fill: #44aa99; fill-opacity: 0.6; stroke: #ffffff; stroke-opacity: 0.6; stroke-width: 0.339411"/>
    <path d="M 112.611496 143.627655 
L 116.854137 143.627655 
L 116.854137 139.385014 
L 112.611496 139.385014 
z
" clip-path="url(#p7b745ebca7)" style="fill: #44aa99; fill-opacity: 0.6; stroke: #ffffff; stroke-opacity: 0.6; stroke-width: 0.339411"/>
    <path d="M 117.532596 96.715546 
L 121.775237 96.715546 
L 121.775237 92.472905 
L 117.532596 92.472905 
z
" clip-path="url(#p7b745ebca7)" style="fill: #44aa99; fill-opacity: 0.6; stroke: #ffffff; stroke-opacity: 0.6; stroke-width: 0.339411"/>
    <path d="M 77.079336 102.388022 
L 81.321977 102.388022 
L 81.321977 98.145382 
L 77.079336 98.145382 
z
" clip-path="url(#p7b745ebca7)" style="fill: #44aa99; fill-opacity: 0.6; stroke: #ffffff; stroke-opacity: 0.6; stroke-width: 0.339411"/>
    <path d="M 120.160504 111.170034 
L 124.403145 111.170034 
L 124.403145 106.927393 
L 120.160504 106.927393 
z
" clip-path="url(#p7b745ebca7)" style="fill: #44aa99; fill-opacity: 0.6; stroke: #ffffff; stroke-opacity: 0.6; stroke-width: 0.339411"/>
    <path d="M 99.028816 139.77935 
L 103.271456 139.77935 
L 103.271456 135.536709 
L 99.028816 135.536709 
z
" clip-path="url(#p7b745ebca7)" style="fill: #44aa99; fill-opacity: 0.6; stroke: #ffffff; stroke-opacity: 0.6; stroke-width: 0.339411"/>
    <path d="M 95.144023 73.82927 
L 99.386664 73.82927 
L 99.386664 69.586629 
L 95.144023 69.586629 
z
" clip-path="url(#p7b745ebca7)" style="fill: #44aa99; fill-opacity: 0.6; stroke: #ffffff; stroke-opacity: 0.6; stroke-width: 0.339411"/>
    <path d="M 77.022085 154.6558 
L 81.264726 154.6558 
L 81.264726 150.41316 
L 77.022085 150.41316 
z
" clip-path="url(#p7b745ebca7)" style="fill: #44aa99; fill-opacity: 0.6; stroke: #ffffff; stroke-opacity: 0.6; stroke-width: 0.339411"/>
    <path d="M 85.974263 151.782757 
L 90.216904 151.782757 
L 90.216904 147.540117 
L 85.974263 147.540117 
z
" clip-path="url(#p7b745ebca7)" style="fill: #44aa99; fill-opacity: 0.6; stroke: #ffffff; stroke-opacity: 0.6; stroke-width: 0.339411"/>
    <path d="M 116.997099 147.470027 
L 121.23974 147.470027 
L 121.23974 143.227386 
L 116.997099 143.227386 
z
" clip-path="url(#p7b745ebca7)" style="fill: #44aa99; fill-opacity: 0.6; stroke: #ffffff; stroke-opacity: 0.6; stroke-width: 0.339411"/>
    <path d="M 149.979582 95.802009 
L 154.222223 95.802009 
L 154.222223 91.559369 
L 149.979582 91.559369 
z
" clip-path="url(#p7b745ebca7)" style="fill: #44aa99; fill-opacity: 0.6; stroke: #ffffff; stroke-opacity: 0.6; stroke-width: 0.339411"/>
    <path d="M 116.540434 86.622553 
L 120.783075 86.622553 
L 120.783075 82.379912 
L 116.540434 82.379912 
z
" clip-path="url(#p7b745ebca7)" style="fill: #44aa99; fill-opacity: 0.6; stroke: #ffffff; stroke-opacity: 0.6; stroke-width: 0.339411"/>
    <path d="M 111.370937 136.594509 
L 115.613578 136.594509 
L 115.613578 132.351868 
L 111.370937 132.351868 
z
" clip-path="url(#p7b745ebca7)" style="fill: #44aa99; fill-opacity: 0.6; stroke: #ffffff; stroke-opacity: 0.6; stroke-width: 0.339411"/>
    <path d="M 119.007732 108.35459 
L 123.250372 108.35459 
L 123.250372 104.111949 
L 119.007732 104.111949 
z
" clip-path="url(#p7b745ebca7)" style="fill: #44aa99; fill-opacity: 0.6; stroke: #ffffff; stroke-opacity: 0.6; stroke-width: 0.339411"/>
    <path d="M 114.109607 149.183413 
L 118.352248 149.183413 
L 118.352248 144.940772 
L 114.109607 144.940772 
z
" clip-path="url(#p7b745ebca7)" style="fill: #44aa99; fill-opacity: 0.6; stroke: #ffffff; stroke-opacity: 0.6; stroke-width: 0.339411"/>
    <path d="M 128.839589 90.644705 
L 133.082229 90.644705 
L 133.082229 86.402064 
L 128.839589 86.402064 
z
" clip-path="url(#p7b745ebca7)" style="fill: #44aa99; fill-opacity: 0.6; stroke: #ffffff; stroke-opacity: 0.6; stroke-width: 0.339411"/>
    <path d="M 106.819603 74.759147 
L 111.062244 74.759147 
L 111.062244 70.516506 
L 106.819603 70.516506 
z
" clip-path="url(#p7b745ebca7)" style="fill: #44aa99; fill-opacity: 0.6; stroke: #ffffff; stroke-opacity: 0.6; stroke-width: 0.339411"/>
    <path d="M 101.772924 69.144269 
L 106.015565 69.144269 
L 106.015565 64.901628 
L 101.772924 64.901628 
z
" clip-path="url(#p7b745ebca7)" style="fill: #44aa99; fill-opacity: 0.6; stroke: #ffffff; stroke-opacity: 0.6; stroke-width: 0.339411"/>
    <path d="M 140.429133 120.108054 
L 144.671773 120.108054 
L 144.671773 115.865414 
L 140.429133 115.865414 
z
" clip-path="url(#p7b745ebca7)" style="fill: #44aa99; fill-opacity: 0.6; stroke: #ffffff; stroke-opacity: 0.6; stroke-width: 0.339411"/>
    <path d="M 105.409991 102.600077 
L 109.652632 102.600077 
L 109.652632 98.357436 
L 105.409991 98.357436 
z
" clip-path="url(#p7b745ebca7)" style="fill: #44aa99; fill-opacity: 0.6; stroke: #ffffff; stroke-opacity: 0.6; stroke-width: 0.339411"/>
    <path d="M 82.87852 145.270987 
L 87.121161 145.270987 
L 87.121161 141.028347 
L 82.87852 141.028347 
z
" clip-path="url(#p7b745ebca7)" style="fill: #44aa99; fill-opacity: 0.6; stroke: #ffffff; stroke-opacity: 0.6; stroke-width: 0.339411"/>
    <path d="M 101.397691 145.55147 
L 105.640332 145.55147 
L 105.640332 141.308829 
L 101.397691 141.308829 
z
" clip-path="url(#p7b745ebca7)" style="fill: #44aa99; fill-opacity: 0.6; stroke: #ffffff; stroke-opacity: 0.6; stroke-width: 0.339411"/>
    <path d="M 114.743591 92.787004 
L 118.986232 92.787004 
L 118.986232 88.544363 
L 114.743591 88.544363 
z
" clip-path="url(#p7b745ebca7)" style="fill: #44aa99; fill-opacity: 0.6; stroke: #ffffff; stroke-opacity: 0.6; stroke-width: 0.339411"/>
    <path d="M 124.74266 69.20184 
L 128.985301 69.20184 
L 128.985301 64.9592 
L 124.74266 64.9592 
z
" clip-path="url(#p7b745ebca7)" style="fill: #44aa99; fill-opacity: 0.6; stroke: #ffffff; stroke-opacity: 0.6; stroke-width: 0.339411"/>
    <path d="M 106.751043 118.073934 
L 107.811703 117.013274 
L 108.872363 118.073934 
L 109.933023 117.013274 
L 108.872363 115.952614 
L 109.933023 114.891954 
L 108.872363 113.831293 
L 107.811703 114.891954 
L 106.751043 113.831293 
L 105.690382 114.891954 
L 106.751043 115.952614 
L 105.690382 117.013274 
z
" clip-path="url(#p7b745ebca7)" style="fill: #88ccee; fill-opacity: 0.6; stroke: #ffffff; stroke-opacity: 0.6; stroke-width: 0.339411"/>
    <path d="M 129.619315 155.083299 
L 130.679975 154.022639 
L 131.740636 155.083299 
L 132.801296 154.022639 
L 131.740636 152.961979 
L 132.801296 151.901319 
L 131.740636 150.840658 
L 130.679975 151.901319 
L 129.619315 150.840658 
L 128.558655 151.901319 
L 129.619315 152.961979 
L 128.558655 154.022639 
z
" clip-path="url(#p7b745ebca7)" style="fill: #88ccee; fill-opacity: 0.6; stroke: #ffffff; stroke-opacity: 0.6; stroke-width: 0.339411"/>
    <path d="M 91.099206 104.205417 
L 92.159866 103.144756 
L 93.220526 104.205417 
L 94.281186 103.144756 
L 93.220526 102.084096 
L 94.281186 101.023436 
L 93.220526 99.962776 
L 92.159866 101.023436 
L 91.099206 99.962776 
L 90.038546 101.023436 
L 91.099206 102.084096 
L 90.038546 103.144756 
z
" clip-path="url(#p7b745ebca7)" style="fill: #88ccee; fill-opacity: 0.6; stroke: #ffffff; stroke-opacity: 0.6; stroke-width: 0.339411"/>
    <path d="M 105.831393 139.120859 
L 106.892053 138.060199 
L 107.952714 139.120859 
L 109.013374 138.060199 
L 107.952714 136.999538 
L 109.013374 135.938878 
L 107.952714 134.878218 
L 106.892053 135.938878 
L 105.831393 134.878218 
L 104.770733 135.938878 
L 105.831393 136.999538 
L 104.770733 138.060199 
z
" clip-path="url(#p7b745ebca7)" style="fill: #88ccee; fill-opacity: 0.6; stroke: #ffffff; stroke-opacity: 0.6; stroke-width: 0.339411"/>
    <path d="M 99.668995 132.187906 
L 100.729655 131.127245 
L 101.790315 132.187906 
L 102.850976 131.127245 
L 101.790315 130.066585 
L 102.850976 129.005925 
L 101.790315 127.945265 
L 100.729655 129.005925 
L 99.668995 127.945265 
L 98.608335 129.005925 
L 99.668995 130.066585 
L 98.608335 131.127245 
z
" clip-path="url(#p7b745ebca7)" style="fill: #88ccee; fill-opacity: 0.6; stroke: #ffffff; stroke-opacity: 0.6; stroke-width: 0.339411"/>
    <path d="M 116.249072 105.078269 
L 117.309732 104.017609 
L 118.370392 105.078269 
L 119.431052 104.017609 
L 118.370392 102.956949 
L 119.431052 101.896289 
L 118.370392 100.835628 
L 117.309732 101.896289 
L 116.249072 100.835628 
L 115.188411 101.896289 
L 116.249072 102.956949 
L 115.188411 104.017609 
z
" clip-path="url(#p7b745ebca7)" style="fill: #88ccee; fill-opacity: 0.6; stroke: #ffffff; stroke-opacity: 0.6; stroke-width: 0.339411"/>
    <path d="M 86.879847 171.068468 
L 87.940507 170.007807 
L 89.001167 171.068468 
L 90.061827 170.007807 
L 89.001167 168.947147 
L 90.061827 167.886487 
L 89.001167 166.825827 
L 87.940507 167.886487 
L 86.879847 166.825827 
L 85.819187 167.886487 
L 86.879847 168.947147 
L 85.819187 170.007807 
z
" clip-path="url(#p7b745ebca7)" style="fill: #88ccee; fill-opacity: 0.6; stroke: #ffffff; stroke-opacity: 0.6; stroke-width: 0.339411"/>
    <path d="M 106.157912 99.667104 
L 107.218573 98.606444 
L 108.279233 99.667104 
L 109.339893 98.606444 
L 108.279233 97.545784 
L 109.339893 96.485124 
L 108.279233 95.424464 
L 107.218573 96.485124 
L 106.157912 95.424464 
L 105.097252 96.485124 
L 106.157912 97.545784 
L 105.097252 98.606444 
z
" clip-path="url(#p7b745ebca7)" style="fill: #88ccee; fill-opacity: 0.6; stroke: #ffffff; stroke-opacity: 0.6; stroke-width: 0.339411"/>
    <path d="M 96.663188 113.283083 
L 97.723848 112.222423 
L 98.784508 113.283083 
L 99.845169 112.222423 
L 98.784508 111.161763 
L 99.845169 110.101103 
L 98.784508 109.040443 
L 97.723848 110.101103 
L 96.663188 109.040443 
L 95.602528 110.101103 
L 96.663188 111.161763 
L 95.602528 112.222423 
z
" clip-path="url(#p7b745ebca7)" style="fill: #88ccee; fill-opacity: 0.6; stroke: #ffffff; stroke-opacity: 0.6; stroke-width: 0.339411"/>
    <path d="M 97.819021 160.328905 
L 98.879682 159.268245 
L 99.940342 160.328905 
L 101.001002 159.268245 
L 99.940342 158.207585 
L 101.001002 157.146925 
L 99.940342 156.086265 
L 98.879682 157.146925 
L 97.819021 156.086265 
L 96.758361 157.146925 
L 97.819021 158.207585 
L 96.758361 159.268245 
z
" clip-path="url(#p7b745ebca7)" style="fill: #88ccee; fill-opacity: 0.6; stroke: #ffffff; stroke-opacity: 0.6; stroke-width: 0.339411"/>
    <path d="M 94.415921 111.839523 
L 95.476581 110.778863 
L 96.537241 111.839523 
L 97.597901 110.778863 
L 96.537241 109.718203 
L 97.597901 108.657543 
L 96.537241 107.596883 
L 95.476581 108.657543 
L 94.415921 107.596883 
L 93.35526 108.657543 
L 94.415921 109.718203 
L 93.35526 110.778863 
z
" clip-path="url(#p7b745ebca7)" style="fill: #88ccee; fill-opacity: 0.6; stroke: #ffffff; stroke-opacity: 0.6; stroke-width: 0.339411"/>
    <path d="M 91.712685 169.295015 
L 92.773345 168.234355 
L 93.834005 169.295015 
L 94.894666 168.234355 
L 93.834005 167.173695 
L 94.894666 166.113035 
L 93.834005 165.052375 
L 92.773345 166.113035 
L 91.712685 165.052375 
L 90.652025 166.113035 
L 91.712685 167.173695 
L 90.652025 168.234355 
z
" clip-path="url(#p7b745ebca7)" style="fill: #88ccee; fill-opacity: 0.6; stroke: #ffffff; stroke-opacity: 0.6; stroke-width: 0.339411"/>
    <path d="M 105.652899 156.20301 
L 106.713559 155.14235 
L 107.77422 156.20301 
L 108.83488 155.14235 
L 107.77422 154.08169 
L 108.83488 153.02103 
L 107.77422 151.96037 
L 106.713559 153.02103 
L 105.652899 151.96037 
L 104.592239 153.02103 
L 105.652899 154.08169 
L 104.592239 155.14235 
z
" clip-path="url(#p7b745ebca7)" style="fill: #88ccee; fill-opacity: 0.6; stroke: #ffffff; stroke-opacity: 0.6; stroke-width: 0.339411"/>
    <path d="M 85.37124 108.058154 
L 86.431901 106.997494 
L 87.492561 108.058154 
L 88.553221 106.997494 
L 87.492561 105.936834 
L 88.553221 104.876174 
L 87.492561 103.815513 
L 86.431901 104.876174 
L 85.37124 103.815513 
L 84.31058 104.876174 
L 85.37124 105.936834 
L 84.31058 106.997494 
z
" clip-path="url(#p7b745ebca7)" style="fill: #88ccee; fill-opacity: 0.6; stroke: #ffffff; stroke-opacity: 0.6; stroke-width: 0.339411"/>
    <path d="M 98.055343 108.382681 
L 99.116004 107.32202 
L 100.176664 108.382681 
L 101.237324 107.32202 
L 100.176664 106.26136 
L 101.237324 105.2007 
L 100.176664 104.14004 
L 99.116004 105.2007 
L 98.055343 104.14004 
L 96.994683 105.2007 
L 98.055343 106.26136 
L 96.994683 107.32202 
z
" clip-path="url(#p7b745ebca7)" style="fill: #88ccee; fill-opacity: 0.6; stroke: #ffffff; stroke-opacity: 0.6; stroke-width: 0.339411"/>
    <path d="M 109.211673 82.623869 
L 110.272333 81.563209 
L 111.332993 82.623869 
L 112.393653 81.563209 
L 111.332993 80.502549 
L 112.393653 79.441889 
L 111.332993 78.381228 
L 110.272333 79.441889 
L 109.211673 78.381228 
L 108.151012 79.441889 
L 109.211673 80.502549 
L 108.151012 81.563209 
z
" clip-path="url(#p7b745ebca7)" style="fill: #88ccee; fill-opacity: 0.6; stroke: #ffffff; stroke-opacity: 0.6; stroke-width: 0.339411"/>
    <path d="M 85.428791 109.528228 
L 86.489451 108.467568 
L 87.550112 109.528228 
L 88.610772 108.467568 
L 87.550112 107.406908 
L 88.610772 106.346247 
L 87.550112 105.285587 
L 86.489451 106.346247 
L 85.428791 105.285587 
L 84.368131 106.346247 
L 85.428791 107.406908 
L 84.368131 108.467568 
z
" clip-path="url(#p7b745ebca7)" style="fill: #88ccee; fill-opacity: 0.6; stroke: #ffffff; stroke-opacity: 0.6; stroke-width: 0.339411"/>
    <path d="M 95.571282 111.614642 
L 96.631942 110.553982 
L 97.692602 111.614642 
L 98.753262 110.553982 
L 97.692602 109.493322 
L 98.753262 108.432662 
L 97.692602 107.372001 
L 96.631942 108.432662 
L 95.571282 107.372001 
L 94.510621 108.432662 
L 95.571282 109.493322 
L 94.510621 110.553982 
z
" clip-path="url(#p7b745ebca7)" style="fill: #88ccee; fill-opacity: 0.6; stroke: #ffffff; stroke-opacity: 0.6; stroke-width: 0.339411"/>
    <path d="M 80.036806 105.024528 
L 81.097467 103.963868 
L 82.158127 105.024528 
L 83.218787 103.963868 
L 82.158127 102.903208 
L 83.218787 101.842547 
L 82.158127 100.781887 
L 81.097467 101.842547 
L 80.036806 100.781887 
L 78.976146 101.842547 
L 80.036806 102.903208 
L 78.976146 103.963868 
z
" clip-path="url(#p7b745ebca7)" style="fill: #88ccee; fill-opacity: 0.6; stroke: #ffffff; stroke-opacity: 0.6; stroke-width: 0.339411"/>
    <path d="M 124.052206 146.217742 
L 125.112866 145.157082 
L 126.173526 146.217742 
L 127.234186 145.157082 
L 126.173526 144.096422 
L 127.234186 143.035762 
L 126.173526 141.975102 
L 125.112866 143.035762 
L 124.052206 141.975102 
L 122.991546 143.035762 
L 124.052206 144.096422 
L 122.991546 145.157082 
z
" clip-path="url(#p7b745ebca7)" style="fill: #88ccee; fill-opacity: 0.6; stroke: #ffffff; stroke-opacity: 0.6; stroke-width: 0.339411"/>
    <path d="M 106.626308 111.788656 
L 107.686968 110.727996 
L 108.747628 111.788656 
L 109.808288 110.727996 
L 108.747628 109.667336 
L 109.808288 108.606676 
L 108.747628 107.546016 
L 107.686968 108.606676 
L 106.626308 107.546016 
L 105.565647 108.606676 
L 106.626308 109.667336 
L 105.565647 110.727996 
z
" clip-path="url(#p7b745ebca7)" style="fill: #88ccee; fill-opacity: 0.6; stroke: #ffffff; stroke-opacity: 0.6; stroke-width: 0.339411"/>
    <path d="M 86.455134 116.014968 
L 87.515794 114.954308 
L 88.576454 116.014968 
L 89.637115 114.954308 
L 88.576454 113.893648 
L 89.637115 112.832988 
L 88.576454 111.772327 
L 87.515794 112.832988 
L 86.455134 111.772327 
L 85.394474 112.832988 
L 86.455134 113.893648 
L 85.394474 114.954308 
z
" clip-path="url(#p7b745ebca7)" style="fill: #88ccee; fill-opacity: 0.6; stroke: #ffffff; stroke-opacity: 0.6; stroke-width: 0.339411"/>
    <path d="M 88.544883 101.289369 
L 89.605543 100.228709 
L 90.666203 101.289369 
L 91.726863 100.228709 
L 90.666203 99.168049 
L 91.726863 98.107389 
L 90.666203 97.046728 
L 89.605543 98.107389 
L 88.544883 97.046728 
L 87.484223 98.107389 
L 88.544883 99.168049 
L 87.484223 100.228709 
z
" clip-path="url(#p7b745ebca7)" style="fill: #88ccee; fill-opacity: 0.6; stroke: #ffffff; stroke-opacity: 0.6; stroke-width: 0.339411"/>
    <path d="M 95.835652 164.497515 
L 96.896312 163.436855 
L 97.956972 164.497515 
L 99.017633 163.436855 
L 97.956972 162.376195 
L 99.017633 161.315535 
L 97.956972 160.254874 
L 96.896312 161.315535 
L 95.835652 160.254874 
L 94.774992 161.315535 
L 95.835652 162.376195 
L 94.774992 163.436855 
z
" clip-path="url(#p7b745ebca7)" style="fill: #88ccee; fill-opacity: 0.6; stroke: #ffffff; stroke-opacity: 0.6; stroke-width: 0.339411"/>
    <path d="M 82.972953 110.751011 
L 84.033613 109.690351 
L 85.094274 110.751011 
L 86.154934 109.690351 
L 85.094274 108.629691 
L 86.154934 107.569031 
L 85.094274 106.50837 
L 84.033613 107.569031 
L 82.972953 106.50837 
L 81.912293 107.569031 
L 82.972953 108.629691 
L 81.912293 109.690351 
z
" clip-path="url(#p7b745ebca7)" style="fill: #88ccee; fill-opacity: 0.6; stroke: #ffffff; stroke-opacity: 0.6; stroke-width: 0.339411"/>
    <path d="M 80.846951 108.661422 
L 81.907611 107.600762 
L 82.968271 108.661422 
L 84.028932 107.600762 
L 82.968271 106.540102 
L 84.028932 105.479442 
L 82.968271 104.418781 
L 81.907611 105.479442 
L 80.846951 104.418781 
L 79.786291 105.479442 
L 80.846951 106.540102 
L 79.786291 107.600762 
z
" clip-path="url(#p7b745ebca7)" style="fill: #88ccee; fill-opacity: 0.6; stroke: #ffffff; stroke-opacity: 0.6; stroke-width: 0.339411"/>
    <path d="M 135.941282 116.057146 
L 137.001943 114.996486 
L 138.062603 116.057146 
L 139.123263 114.996486 
L 138.062603 113.935825 
L 139.123263 112.875165 
L 138.062603 111.814505 
L 137.001943 112.875165 
L 135.941282 111.814505 
L 134.880622 112.875165 
L 135.941282 113.935825 
L 134.880622 114.996486 
z
" clip-path="url(#p7b745ebca7)" style="fill: #88ccee; fill-opacity: 0.6; stroke: #ffffff; stroke-opacity: 0.6; stroke-width: 0.339411"/>
    <path d="M 94.507979 110.476896 
L 95.568639 109.416236 
L 96.629299 110.476896 
L 97.68996 109.416236 
L 96.629299 108.355576 
L 97.68996 107.294915 
L 96.629299 106.234255 
L 95.568639 107.294915 
L 94.507979 106.234255 
L 93.447319 107.294915 
L 94.507979 108.355576 
L 93.447319 109.416236 
z
" clip-path="url(#p7b745ebca7)" style="fill: #88ccee; fill-opacity: 0.6; stroke: #ffffff; stroke-opacity: 0.6; stroke-width: 0.339411"/>
    <path d="M 84.222792 165.40845 
L 85.283452 164.34779 
L 86.344112 165.40845 
L 87.404772 164.34779 
L 86.344112 163.287129 
L 87.404772 162.226469 
L 86.344112 161.165809 
L 85.283452 162.226469 
L 84.222792 161.165809 
L 83.162131 162.226469 
L 84.222792 163.287129 
L 83.162131 164.34779 
z
" clip-path="url(#p7b745ebca7)" style="fill: #88ccee; fill-opacity: 0.6; stroke: #ffffff; stroke-opacity: 0.6; stroke-width: 0.339411"/>
    <path d="M 104.772226 156.892829 
L 105.832886 155.832169 
L 106.893546 156.892829 
L 107.954206 155.832169 
L 106.893546 154.771509 
L 107.954206 153.710848 
L 106.893546 152.650188 
L 105.832886 153.710848 
L 104.772226 152.650188 
L 103.711566 153.710848 
L 104.772226 154.771509 
L 103.711566 155.832169 
z
" clip-path="url(#p7b745ebca7)" style="fill: #88ccee; fill-opacity: 0.6; stroke: #ffffff; stroke-opacity: 0.6; stroke-width: 0.339411"/>
    <path d="M 101.74919 165.628299 
L 102.80985 164.567639 
L 103.87051 165.628299 
L 104.93117 164.567639 
L 103.87051 163.506979 
L 104.93117 162.446319 
L 103.87051 161.385659 
L 102.80985 162.446319 
L 101.74919 161.385659 
L 100.68853 162.446319 
L 101.74919 163.506979 
L 100.68853 164.567639 
z
" clip-path="url(#p7b745ebca7)" style="fill: #88ccee; fill-opacity: 0.6; stroke: #ffffff; stroke-opacity: 0.6; stroke-width: 0.339411"/>
    <path d="M 85.989549 115.438244 
L 87.050209 114.377584 
L 88.110869 115.438244 
L 89.171529 114.377584 
L 88.110869 113.316924 
L 89.171529 112.256264 
L 88.110869 111.195604 
L 87.050209 112.256264 
L 85.989549 111.195604 
L 84.928888 112.256264 
L 85.989549 113.316924 
L 84.928888 114.377584 
z
" clip-path="url(#p7b745ebca7)" style="fill: #88ccee; fill-opacity: 0.6; stroke: #ffffff; stroke-opacity: 0.6; stroke-width: 0.339411"/>
    <path d="M 90.30691 116.7172 
L 91.367571 115.65654 
L 92.428231 116.7172 
L 93.488891 115.65654 
L 92.428231 114.59588 
L 93.488891 113.53522 
L 92.428231 112.474559 
L 91.367571 113.53522 
L 90.30691 112.474559 
L 89.24625 113.53522 
L 90.30691 114.59588 
L 89.24625 115.65654 
z
" clip-path="url(#p7b745ebca7)" style="fill: #88ccee; fill-opacity: 0.6; stroke: #ffffff; stroke-opacity: 0.6; stroke-width: 0.339411"/>
    <path d="M 147.617701 164.503713 
L 148.678362 163.443053 
L 149.739022 164.503713 
L 150.799682 163.443053 
L 149.739022 162.382393 
L 150.799682 161.321733 
L 149.739022 160.261072 
L 148.678362 161.321733 
L 147.617701 160.261072 
L 146.557041 161.321733 
L 147.617701 162.382393 
L 146.557041 163.443053 
z
" clip-path="url(#p7b745ebca7)" style="fill: #88ccee; fill-opacity: 0.6; stroke: #ffffff; stroke-opacity: 0.6; stroke-width: 0.339411"/>
    <path d="M 116.453621 164.795808 
L 117.514281 163.735148 
L 118.574941 164.795808 
L 119.635601 163.735148 
L 118.574941 162.674488 
L 119.635601 161.613827 
L 118.574941 160.553167 
L 117.514281 161.613827 
L 116.453621 160.553167 
L 115.392961 161.613827 
L 116.453621 162.674488 
L 115.392961 163.735148 
z
" clip-path="url(#p7b745ebca7)" style="fill: #88ccee; fill-opacity: 0.6; stroke: #ffffff; stroke-opacity: 0.6; stroke-width: 0.339411"/>
    <path d="M 96.017276 163.630252 
L 97.077937 162.569592 
L 98.138597 163.630252 
L 99.199257 162.569592 
L 98.138597 161.508931 
L 99.199257 160.448271 
L 98.138597 159.387611 
L 97.077937 160.448271 
L 96.017276 159.387611 
L 94.956616 160.448271 
L 96.017276 161.508931 
L 94.956616 162.569592 
z
" clip-path="url(#p7b745ebca7)" style="fill: #88ccee; fill-opacity: 0.6; stroke: #ffffff; stroke-opacity: 0.6; stroke-width: 0.339411"/>
    <path d="M 108.435172 141.522498 
L 109.495832 140.461838 
L 110.556492 141.522498 
L 111.617152 140.461838 
L 110.556492 139.401178 
L 111.617152 138.340517 
L 110.556492 137.279857 
L 109.495832 138.340517 
L 108.435172 137.279857 
L 107.374511 138.340517 
L 108.435172 139.401178 
L 107.374511 140.461838 
z
" clip-path="url(#p7b745ebca7)" style="fill: #88ccee; fill-opacity: 0.6; stroke: #ffffff; stroke-opacity: 0.6; stroke-width: 0.339411"/>
    <path d="M 97.496625 100.480933 
L 98.557285 99.420273 
L 99.617945 100.480933 
L 100.678605 99.420273 
L 99.617945 98.359613 
L 100.678605 97.298953 
L 99.617945 96.238292 
L 98.557285 97.298953 
L 97.496625 96.238292 
L 96.435965 97.298953 
L 97.496625 98.359613 
L 96.435965 99.420273 
z
" clip-path="url(#p7b745ebca7)" style="fill: #88ccee; fill-opacity: 0.6; stroke: #ffffff; stroke-opacity: 0.6; stroke-width: 0.339411"/>
    <path d="M 107.043665 171.54765 
L 108.104325 170.48699 
L 109.164985 171.54765 
L 110.225646 170.48699 
L 109.164985 169.426329 
L 110.225646 168.365669 
L 109.164985 167.305009 
L 108.104325 168.365669 
L 107.043665 167.305009 
L 105.983005 168.365669 
L 107.043665 169.426329 
L 105.983005 170.48699 
z
" clip-path="url(#p7b745ebca7)" style="fill: #88ccee; fill-opacity: 0.6; stroke: #ffffff; stroke-opacity: 0.6; stroke-width: 0.339411"/>
    <path d="M 92.2269 112.302068 
L 93.28756 111.241408 
L 94.348221 112.302068 
L 95.408881 111.241408 
L 94.348221 110.180748 
L 95.408881 109.120088 
L 94.348221 108.059428 
L 93.28756 109.120088 
L 92.2269 108.059428 
L 91.16624 109.120088 
L 92.2269 110.180748 
L 91.16624 111.241408 
z
" clip-path="url(#p7b745ebca7)" style="fill: #88ccee; fill-opacity: 0.6; stroke: #ffffff; stroke-opacity: 0.6; stroke-width: 0.339411"/>
    <path d="M 99.143088 154.67854 
L 100.203748 153.61788 
L 101.264408 154.67854 
L 102.325069 153.61788 
L 101.264408 152.55722 
L 102.325069 151.49656 
L 101.264408 150.4359 
L 100.203748 151.49656 
L 99.143088 150.4359 
L 98.082428 151.49656 
L 99.143088 152.55722 
L 98.082428 153.61788 
z
" clip-path="url(#p7b745ebca7)" style="fill: #88ccee; fill-opacity: 0.6; stroke: #ffffff; stroke-opacity: 0.6; stroke-width: 0.339411"/>
    <path d="M 116.793475 152.893723 
L 117.854135 151.833063 
L 118.914795 152.893723 
L 119.975455 151.833063 
L 118.914795 150.772403 
L 119.975455 149.711743 
L 118.914795 148.651083 
L 117.854135 149.711743 
L 116.793475 148.651083 
L 115.732814 149.711743 
L 116.793475 150.772403 
L 115.732814 151.833063 
z
" clip-path="url(#p7b745ebca7)" style="fill: #88ccee; fill-opacity: 0.6; stroke: #ffffff; stroke-opacity: 0.6; stroke-width: 0.339411"/>
    <path d="M 86.755818 164.349704 
L 87.816478 163.289044 
L 88.877138 164.349704 
L 89.937798 163.289044 
L 88.877138 162.228384 
L 89.937798 161.167724 
L 88.877138 160.107063 
L 87.816478 161.167724 
L 86.755818 160.107063 
L 85.695157 161.167724 
L 86.755818 162.228384 
L 85.695157 163.289044 
z
" clip-path="url(#p7b745ebca7)" style="fill: #88ccee; fill-opacity: 0.6; stroke: #ffffff; stroke-opacity: 0.6; stroke-width: 0.339411"/>
    <path d="M 93.870662 111.466455 
L 94.931322 110.405795 
L 95.991982 111.466455 
L 97.052642 110.405795 
L 95.991982 109.345135 
L 97.052642 108.284475 
L 95.991982 107.223815 
L 94.931322 108.284475 
L 93.870662 107.223815 
L 92.810001 108.284475 
L 93.870662 109.345135 
L 92.810001 110.405795 
z
" clip-path="url(#p7b745ebca7)" style="fill: #88ccee; fill-opacity: 0.6; stroke: #ffffff; stroke-opacity: 0.6; stroke-width: 0.339411"/>
    <path d="M 95.364156 112.310986 
L 96.424816 111.250325 
L 97.485476 112.310986 
L 98.546136 111.250325 
L 97.485476 110.189665 
L 98.546136 109.129005 
L 97.485476 108.068345 
L 96.424816 109.129005 
L 95.364156 108.068345 
L 94.303495 109.129005 
L 95.364156 110.189665 
L 94.303495 111.250325 
z
" clip-path="url(#p7b745ebca7)" style="fill: #88ccee; fill-opacity: 0.6; stroke: #ffffff; stroke-opacity: 0.6; stroke-width: 0.339411"/>
    <path d="M 114.940174 131.260245 
L 116.000834 130.199584 
L 117.061494 131.260245 
L 118.122155 130.199584 
L 117.061494 129.138924 
L 118.122155 128.078264 
L 117.061494 127.017604 
L 116.000834 128.078264 
L 114.940174 127.017604 
L 113.879514 128.078264 
L 114.940174 129.138924 
L 113.879514 130.199584 
z
" clip-path="url(#p7b745ebca7)" style="fill: #88ccee; fill-opacity: 0.6; stroke: #ffffff; stroke-opacity: 0.6; stroke-width: 0.339411"/>
    <path d="M 102.031183 147.97778 
L 103.091843 146.91712 
L 104.152503 147.97778 
L 105.213164 146.91712 
L 104.152503 145.85646 
L 105.213164 144.7958 
L 104.152503 143.73514 
L 103.091843 144.7958 
L 102.031183 143.73514 
L 100.970523 144.7958 
L 102.031183 145.85646 
L 100.970523 146.91712 
z
" clip-path="url(#p7b745ebca7)" style="fill: #88ccee; fill-opacity: 0.6; stroke: #ffffff; stroke-opacity: 0.6; stroke-width: 0.339411"/>
    <path d="M 89.141109 171.91131 
L 90.201769 170.85065 
L 91.262429 171.91131 
L 92.323089 170.85065 
L 91.262429 169.78999 
L 92.323089 168.72933 
L 91.262429 167.668669 
L 90.201769 168.72933 
L 89.141109 167.668669 
L 88.080448 168.72933 
L 89.141109 169.78999 
L 88.080448 170.85065 
z
" clip-path="url(#p7b745ebca7)" style="fill: #88ccee; fill-opacity: 0.6; stroke: #ffffff; stroke-opacity: 0.6; stroke-width: 0.339411"/>
    <path d="M 83.276283 164.813933 
L 84.336944 163.753272 
L 85.397604 164.813933 
L 86.458264 163.753272 
L 85.397604 162.692612 
L 86.458264 161.631952 
L 85.397604 160.571292 
L 84.336944 161.631952 
L 83.276283 160.571292 
L 82.215623 161.631952 
L 83.276283 162.692612 
L 82.215623 163.753272 
z
" clip-path="url(#p7b745ebca7)" style="fill: #88ccee; fill-opacity: 0.6; stroke: #ffffff; stroke-opacity: 0.6; stroke-width: 0.339411"/>
    <path d="M 88.647948 113.431981 
L 89.708608 112.37132 
L 90.769268 113.431981 
L 91.829929 112.37132 
L 90.769268 111.31066 
L 91.829929 110.25 
L 90.769268 109.18934 
L 89.708608 110.25 
L 88.647948 109.18934 
L 87.587288 110.25 
L 88.647948 111.31066 
L 87.587288 112.37132 
z
" clip-path="url(#p7b745ebca7)" style="fill: #88ccee; fill-opacity: 0.6; stroke: #ffffff; stroke-opacity: 0.6; stroke-width: 0.339411"/>
    <path d="M 87.562386 108.402018 
L 88.623046 107.341357 
L 89.683706 108.402018 
L 90.744366 107.341357 
L 89.683706 106.280697 
L 90.744366 105.220037 
L 89.683706 104.159377 
L 88.623046 105.220037 
L 87.562386 104.159377 
L 86.501725 105.220037 
L 87.562386 106.280697 
L 86.501725 107.341357 
z
" clip-path="url(#p7b745ebca7)" style="fill: #88ccee; fill-opacity: 0.6; stroke: #ffffff; stroke-opacity: 0.6; stroke-width: 0.339411"/>
    <path d="M 113.786681 157.75466 
L 114.847341 156.694 
L 115.908001 157.75466 
L 116.968662 156.694 
L 115.908001 155.633339 
L 116.968662 154.572679 
L 115.908001 153.512019 
L 114.847341 154.572679 
L 113.786681 153.512019 
L 112.726021 154.572679 
L 113.786681 155.633339 
L 112.726021 156.694 
z
" clip-path="url(#p7b745ebca7)" style="fill: #88ccee; fill-opacity: 0.6; stroke: #ffffff; stroke-opacity: 0.6; stroke-width: 0.339411"/>
    <path d="M 98.158572 157.742172 
L 99.219232 156.681512 
L 100.279893 157.742172 
L 101.340553 156.681512 
L 100.279893 155.620852 
L 101.340553 154.560191 
L 100.279893 153.499531 
L 99.219232 154.560191 
L 98.158572 153.499531 
L 97.097912 154.560191 
L 98.158572 155.620852 
L 97.097912 156.681512 
z
" clip-path="url(#p7b745ebca7)" style="fill: #88ccee; fill-opacity: 0.6; stroke: #ffffff; stroke-opacity: 0.6; stroke-width: 0.339411"/>
    <path d="M 79.666738 104.979722 
L 80.727398 103.919061 
L 81.788059 104.979722 
L 82.848719 103.919061 
L 81.788059 102.858401 
L 82.848719 101.797741 
L 81.788059 100.737081 
L 80.727398 101.797741 
L 79.666738 100.737081 
L 78.606078 101.797741 
L 79.666738 102.858401 
L 78.606078 103.919061 
z
" clip-path="url(#p7b745ebca7)" style="fill: #88ccee; fill-opacity: 0.6; stroke: #ffffff; stroke-opacity: 0.6; stroke-width: 0.339411"/>
    <path d="M 105.863382 110.286154 
L 106.924043 109.225493 
L 107.984703 110.286154 
L 109.045363 109.225493 
L 107.984703 108.164833 
L 109.045363 107.104173 
L 107.984703 106.043513 
L 106.924043 107.104173 
L 105.863382 106.043513 
L 104.802722 107.104173 
L 105.863382 108.164833 
L 104.802722 109.225493 
z
" clip-path="url(#p7b745ebca7)" style="fill: #88ccee; fill-opacity: 0.6; stroke: #ffffff; stroke-opacity: 0.6; stroke-width: 0.339411"/>
    <path d="M 106.736904 149.597891 
L 107.797564 148.537231 
L 108.858224 149.597891 
L 109.918884 148.537231 
L 108.858224 147.476571 
L 109.918884 146.415911 
L 108.858224 145.355251 
L 107.797564 146.415911 
L 106.736904 145.355251 
L 105.676243 146.415911 
L 106.736904 147.476571 
L 105.676243 148.537231 
z
" clip-path="url(#p7b745ebca7)" style="fill: #88ccee; fill-opacity: 0.6; stroke: #ffffff; stroke-opacity: 0.6; stroke-width: 0.339411"/>
    <path d="M 85.958521 109.552113 
L 87.019181 108.491453 
L 88.079841 109.552113 
L 89.140501 108.491453 
L 88.079841 107.430792 
L 89.140501 106.370132 
L 88.079841 105.309472 
L 87.019181 106.370132 
L 85.958521 105.309472 
L 84.897861 106.370132 
L 85.958521 107.430792 
L 84.897861 108.491453 
z
" clip-path="url(#p7b745ebca7)" style="fill: #88ccee; fill-opacity: 0.6; stroke: #ffffff; stroke-opacity: 0.6; stroke-width: 0.339411"/>
    <path d="M 98.504293 140.453979 
L 99.564953 139.393319 
L 100.625613 140.453979 
L 101.686274 139.393319 
L 100.625613 138.332658 
L 101.686274 137.271998 
L 100.625613 136.211338 
L 99.564953 137.271998 
L 98.504293 136.211338 
L 97.443633 137.271998 
L 98.504293 138.332658 
L 97.443633 139.393319 
z
" clip-path="url(#p7b745ebca7)" style="fill: #88ccee; fill-opacity: 0.6; stroke: #ffffff; stroke-opacity: 0.6; stroke-width: 0.339411"/>
    <path d="M 98.855963 160.339767 
L 99.916623 159.279107 
L 100.977284 160.339767 
L 102.037944 159.279107 
L 100.977284 158.218447 
L 102.037944 157.157787 
L 100.977284 156.097127 
L 99.916623 157.157787 
L 98.855963 156.097127 
L 97.795303 157.157787 
L 98.855963 158.218447 
L 97.795303 159.279107 
z
" clip-path="url(#p7b745ebca7)" style="fill: #88ccee; fill-opacity: 0.6; stroke: #ffffff; stroke-opacity: 0.6; stroke-width: 0.339411"/>
    <path d="M 79.614081 102.633944 
L 80.674741 101.573283 
L 81.735401 102.633944 
L 82.796061 101.573283 
L 81.735401 100.512623 
L 82.796061 99.451963 
L 81.735401 98.391303 
L 80.674741 99.451963 
L 79.614081 98.391303 
L 78.553421 99.451963 
L 79.614081 100.512623 
L 78.553421 101.573283 
z
" clip-path="url(#p7b745ebca7)" style="fill: #88ccee; fill-opacity: 0.6; stroke: #ffffff; stroke-opacity: 0.6; stroke-width: 0.339411"/>
    <path d="M 108.094431 174.347755 
L 109.155091 173.287095 
L 110.215751 174.347755 
L 111.276411 173.287095 
L 110.215751 172.226435 
L 111.276411 171.165774 
L 110.215751 170.105114 
L 109.155091 171.165774 
L 108.094431 170.105114 
L 107.033771 171.165774 
L 108.094431 172.226435 
L 107.033771 173.287095 
z
" clip-path="url(#p7b745ebca7)" style="fill: #88ccee; fill-opacity: 0.6; stroke: #ffffff; stroke-opacity: 0.6; stroke-width: 0.339411"/>
    <path d="M 86.118587 170.668416 
L 87.179247 169.607755 
L 88.239907 170.668416 
L 89.300568 169.607755 
L 88.239907 168.547095 
L 89.300568 167.486435 
L 88.239907 166.425775 
L 87.179247 167.486435 
L 86.118587 166.425775 
L 85.057927 167.486435 
L 86.118587 168.547095 
L 85.057927 169.607755 
z
" clip-path="url(#p7b745ebca7)" style="fill: #88ccee; fill-opacity: 0.6; stroke: #ffffff; stroke-opacity: 0.6; stroke-width: 0.339411"/>
    <path d="M 112.973468 159.363853 
L 114.034129 158.303193 
L 115.094789 159.363853 
L 116.155449 158.303193 
L 115.094789 157.242533 
L 116.155449 156.181872 
L 115.094789 155.121212 
L 114.034129 156.181872 
L 112.973468 155.121212 
L 111.912808 156.181872 
L 112.973468 157.242533 
L 111.912808 158.303193 
z
" clip-path="url(#p7b745ebca7)" style="fill: #88ccee; fill-opacity: 0.6; stroke: #ffffff; stroke-opacity: 0.6; stroke-width: 0.339411"/>
    <path d="M 112.274777 114.979368 
L 113.335438 113.918708 
L 114.396098 114.979368 
L 115.456758 113.918708 
L 114.396098 112.858048 
L 115.456758 111.797388 
L 114.396098 110.736728 
L 113.335438 111.797388 
L 112.274777 110.736728 
L 111.214117 111.797388 
L 112.274777 112.858048 
L 111.214117 113.918708 
z
" clip-path="url(#p7b745ebca7)" style="fill: #88ccee; fill-opacity: 0.6; stroke: #ffffff; stroke-opacity: 0.6; stroke-width: 0.339411"/>
   </g>
   <g id="matplotlib.axis_1">
    <g id="xtick_1">
     <g id="line2d_1">
      <defs>
       <path id="m0c982462b5" d="M 0 0 
L 0 8 
" style="stroke: #000000"/>
      </defs>
      <g>
       <use xlink:href="#m0c982462b5" x="91.478113" y="183.896063" style="stroke: #000000"/>
      </g>
     </g>
     <g id="text_1">
      <!-- 10 -->
      <g transform="translate(78.815301 204.514188) scale(0.12 -0.12)">
       <defs>
        <path id="DejaVuSans-2212" d="M 678 2272 
L 4684 2272 
L 4684 1741 
L 678 1741 
L 678 2272 
z
" transform="scale(0.015625)"/>
        <path id="DejaVuSans-31" d="M 794 531 
L 1825 531 
L 1825 4091 
L 703 3866 
L 703 4441 
L 1819 4666 
L 2450 4666 
L 2450 531 
L 3481 531 
L 3481 0 
L 794 0 
L 794 531 
z
" transform="scale(0.015625)"/>
        <path id="DejaVuSans-30" d="M 2034 4250 
Q 1547 4250 1301 3770 
Q 1056 3291 1056 2328 
Q 1056 1369 1301 889 
Q 1547 409 2034 409 
Q 2525 409 2770 889 
Q 3016 1369 3016 2328 
Q 3016 3291 2770 3770 
Q 2525 4250 2034 4250 
z
M 2034 4750 
Q 2819 4750 3233 4129 
Q 3647 3509 3647 2328 
Q 3647 1150 3233 529 
Q 2819 -91 2034 -91 
Q 1250 -91 836 529 
Q 422 1150 422 2328 
Q 422 3509 836 4129 
Q 1250 4750 2034 4750 
z
" transform="scale(0.015625)"/>
       </defs>
       <use xlink:href="#DejaVuSans-2212"/>
       <use xlink:href="#DejaVuSans-31" x="83.789062"/>
       <use xlink:href="#DejaVuSans-30" x="147.412109"/>
      </g>
     </g>
    </g>
    <g id="xtick_2">
     <g id="line2d_2">
      <g>
       <use xlink:href="#m0c982462b5" x="133.57706" y="183.896063" style="stroke: #000000"/>
      </g>
     </g>
     <g id="text_2">
      <!-- 0 -->
      <g transform="translate(129.75956 204.514188) scale(0.12 -0.12)">
       <use xlink:href="#DejaVuSans-30"/>
      </g>
     </g>
    </g>
    <g id="xtick_3">
     <g id="line2d_3">
      <g>
       <use xlink:href="#m0c982462b5" x="175.676006" y="183.896063" style="stroke: #000000"/>
      </g>
     </g>
     <g id="text_3">
      <!-- 10 -->
      <g transform="translate(168.041006 204.514188) scale(0.12 -0.12)">
       <use xlink:href="#DejaVuSans-31"/>
       <use xlink:href="#DejaVuSans-30" x="63.623047"/>
      </g>
     </g>
    </g>
    <g id="xtick_4">
     <g id="line2d_4">
      <g>
       <use xlink:href="#m0c982462b5" x="217.774952" y="183.896063" style="stroke: #000000"/>
      </g>
     </g>
     <g id="text_4">
      <!-- 20 -->
      <g transform="translate(210.139952 204.514188) scale(0.12 -0.12)">
       <defs>
        <path id="DejaVuSans-32" d="M 1228 531 
L 3431 531 
L 3431 0 
L 469 0 
L 469 531 
Q 828 903 1448 1529 
Q 2069 2156 2228 2338 
Q 2531 2678 2651 2914 
Q 2772 3150 2772 3378 
Q 2772 3750 2511 3984 
Q 2250 4219 1831 4219 
Q 1534 4219 1204 4116 
Q 875 4013 500 3803 
L 500 4441 
Q 881 4594 1212 4672 
Q 1544 4750 1819 4750 
Q 2544 4750 2975 4387 
Q 3406 4025 3406 3419 
Q 3406 3131 3298 2873 
Q 3191 2616 2906 2266 
Q 2828 2175 2409 1742 
Q 1991 1309 1228 531 
z
" transform="scale(0.015625)"/>
       </defs>
       <use xlink:href="#DejaVuSans-32"/>
       <use xlink:href="#DejaVuSans-30" x="63.623047"/>
      </g>
     </g>
    </g>
    <g id="text_5">
     <!-- PC 1 (15.68%) -->
     <g transform="translate(103.012822 220.127938) scale(0.12 -0.12)">
      <defs>
       <path id="DejaVuSans-50" d="M 1259 4147 
L 1259 2394 
L 2053 2394 
Q 2494 2394 2734 2622 
Q 2975 2850 2975 3272 
Q 2975 3691 2734 3919 
Q 2494 4147 2053 4147 
L 1259 4147 
z
M 628 4666 
L 2053 4666 
Q 2838 4666 3239 4311 
Q 3641 3956 3641 3272 
Q 3641 2581 3239 2228 
Q 2838 1875 2053 1875 
L 1259 1875 
L 1259 0 
L 628 0 
L 628 4666 
z
" transform="scale(0.015625)"/>
       <path id="DejaVuSans-43" d="M 4122 4306 
L 4122 3641 
Q 3803 3938 3442 4084 
Q 3081 4231 2675 4231 
Q 1875 4231 1450 3742 
Q 1025 3253 1025 2328 
Q 1025 1406 1450 917 
Q 1875 428 2675 428 
Q 3081 428 3442 575 
Q 3803 722 4122 1019 
L 4122 359 
Q 3791 134 3420 21 
Q 3050 -91 2638 -91 
Q 1578 -91 968 557 
Q 359 1206 359 2328 
Q 359 3453 968 4101 
Q 1578 4750 2638 4750 
Q 3056 4750 3426 4639 
Q 3797 4528 4122 4306 
z
" transform="scale(0.015625)"/>
       <path id="DejaVuSans-20" transform="scale(0.015625)"/>
       <path id="DejaVuSans-28" d="M 1984 4856 
Q 1566 4138 1362 3434 
Q 1159 2731 1159 2009 
Q 1159 1288 1364 580 
Q 1569 -128 1984 -844 
L 1484 -844 
Q 1016 -109 783 600 
Q 550 1309 550 2009 
Q 550 2706 781 3412 
Q 1013 4119 1484 4856 
L 1984 4856 
z
" transform="scale(0.015625)"/>
       <path id="DejaVuSans-35" d="M 691 4666 
L 3169 4666 
L 3169 4134 
L 1269 4134 
L 1269 2991 
Q 1406 3038 1543 3061 
Q 1681 3084 1819 3084 
Q 2600 3084 3056 2656 
Q 3513 2228 3513 1497 
Q 3513 744 3044 326 
Q 2575 -91 1722 -91 
Q 1428 -91 1123 -41 
Q 819 9 494 109 
L 494 744 
Q 775 591 1075 516 
Q 1375 441 1709 441 
Q 2250 441 2565 725 
Q 2881 1009 2881 1497 
Q 2881 1984 2565 2268 
Q 2250 2553 1709 2553 
Q 1456 2553 1204 2497 
Q 953 2441 691 2322 
L 691 4666 
z
" transform="scale(0.015625)"/>
       <path id="DejaVuSans-2e" d="M 684 794 
L 1344 794 
L 1344 0 
L 684 0 
L 684 794 
z
" transform="scale(0.015625)"/>
       <path id="DejaVuSans-36" d="M 2113 2584 
Q 1688 2584 1439 2293 
Q 1191 2003 1191 1497 
Q 1191 994 1439 701 
Q 1688 409 2113 409 
Q 2538 409 2786 701 
Q 3034 994 3034 1497 
Q 3034 2003 2786 2293 
Q 2538 2584 2113 2584 
z
M 3366 4563 
L 3366 3988 
Q 3128 4100 2886 4159 
Q 2644 4219 2406 4219 
Q 1781 4219 1451 3797 
Q 1122 3375 1075 2522 
Q 1259 2794 1537 2939 
Q 1816 3084 2150 3084 
Q 2853 3084 3261 2657 
Q 3669 2231 3669 1497 
Q 3669 778 3244 343 
Q 2819 -91 2113 -91 
Q 1303 -91 875 529 
Q 447 1150 447 2328 
Q 447 3434 972 4092 
Q 1497 4750 2381 4750 
Q 2619 4750 2861 4703 
Q 3103 4656 3366 4563 
z
" transform="scale(0.015625)"/>
       <path id="DejaVuSans-38" d="M 2034 2216 
Q 1584 2216 1326 1975 
Q 1069 1734 1069 1313 
Q 1069 891 1326 650 
Q 1584 409 2034 409 
Q 2484 409 2743 651 
Q 3003 894 3003 1313 
Q 3003 1734 2745 1975 
Q 2488 2216 2034 2216 
z
M 1403 2484 
Q 997 2584 770 2862 
Q 544 3141 544 3541 
Q 544 4100 942 4425 
Q 1341 4750 2034 4750 
Q 2731 4750 3128 4425 
Q 3525 4100 3525 3541 
Q 3525 3141 3298 2862 
Q 3072 2584 2669 2484 
Q 3125 2378 3379 2068 
Q 3634 1759 3634 1313 
Q 3634 634 3220 271 
Q 2806 -91 2034 -91 
Q 1263 -91 848 271 
Q 434 634 434 1313 
Q 434 1759 690 2068 
Q 947 2378 1403 2484 
z
M 1172 3481 
Q 1172 3119 1398 2916 
Q 1625 2713 2034 2713 
Q 2441 2713 2670 2916 
Q 2900 3119 2900 3481 
Q 2900 3844 2670 4047 
Q 2441 4250 2034 4250 
Q 1625 4250 1398 4047 
Q 1172 3844 1172 3481 
z
" transform="scale(0.015625)"/>
       <path id="DejaVuSans-25" d="M 4653 2053 
Q 4381 2053 4226 1822 
Q 4072 1591 4072 1178 
Q 4072 772 4226 539 
Q 4381 306 4653 306 
Q 4919 306 5073 539 
Q 5228 772 5228 1178 
Q 5228 1588 5073 1820 
Q 4919 2053 4653 2053 
z
M 4653 2450 
Q 5147 2450 5437 2106 
Q 5728 1763 5728 1178 
Q 5728 594 5436 251 
Q 5144 -91 4653 -91 
Q 4153 -91 3862 251 
Q 3572 594 3572 1178 
Q 3572 1766 3864 2108 
Q 4156 2450 4653 2450 
z
M 1428 4353 
Q 1159 4353 1004 4120 
Q 850 3888 850 3481 
Q 850 3069 1003 2837 
Q 1156 2606 1428 2606 
Q 1700 2606 1854 2837 
Q 2009 3069 2009 3481 
Q 2009 3884 1853 4118 
Q 1697 4353 1428 4353 
z
M 4250 4750 
L 4750 4750 
L 1831 -91 
L 1331 -91 
L 4250 4750 
z
M 1428 4750 
Q 1922 4750 2215 4408 
Q 2509 4066 2509 3481 
Q 2509 2891 2217 2550 
Q 1925 2209 1428 2209 
Q 931 2209 642 2551 
Q 353 2894 353 3481 
Q 353 4063 643 4406 
Q 934 4750 1428 4750 
z
" transform="scale(0.015625)"/>
       <path id="DejaVuSans-29" d="M 513 4856 
L 1013 4856 
Q 1481 4119 1714 3412 
Q 1947 2706 1947 2009 
Q 1947 1309 1714 600 
Q 1481 -109 1013 -844 
L 513 -844 
Q 928 -128 1133 580 
Q 1338 1288 1338 2009 
Q 1338 2731 1133 3434 
Q 928 4138 513 4856 
z
" transform="scale(0.015625)"/>
      </defs>
      <use xlink:href="#DejaVuSans-50"/>
      <use xlink:href="#DejaVuSans-43" x="60.302734"/>
      <use xlink:href="#DejaVuSans-20" x="130.126953"/>
      <use xlink:href="#DejaVuSans-31" x="161.914062"/>
      <use xlink:href="#DejaVuSans-20" x="225.537109"/>
      <use xlink:href="#DejaVuSans-28" x="257.324219"/>
      <use xlink:href="#DejaVuSans-31" x="296.337891"/>
      <use xlink:href="#DejaVuSans-35" x="359.960938"/>
      <use xlink:href="#DejaVuSans-2e" x="423.583984"/>
      <use xlink:href="#DejaVuSans-36" x="455.371094"/>
      <use xlink:href="#DejaVuSans-38" x="518.994141"/>
      <use xlink:href="#DejaVuSans-25" x="582.617188"/>
      <use xlink:href="#DejaVuSans-29" x="677.636719"/>
     </g>
    </g>
   </g>
   <g id="matplotlib.axis_2">
    <g id="ytick_1">
     <g id="line2d_5">
      <defs>
       <path id="m5014c6f261" d="M 0 0 
L -8 0 
" style="stroke: #000000"/>
      </defs>
      <g>
       <use xlink:href="#m5014c6f261" x="64.037638" y="156.455588" style="stroke: #000000"/>
      </g>
     </g>
     <g id="text_6">
      <!-- 10 -->
      <g transform="translate(27.212013 161.01465) scale(0.12 -0.12)">
       <use xlink:href="#DejaVuSans-2212"/>
       <use xlink:href="#DejaVuSans-31" x="83.789062"/>
       <use xlink:href="#DejaVuSans-30" x="147.412109"/>
      </g>
     </g>
    </g>
    <g id="ytick_2">
     <g id="line2d_6">
      <g>
       <use xlink:href="#m5014c6f261" x="64.037638" y="114.356641" style="stroke: #000000"/>
      </g>
     </g>
     <g id="text_7">
      <!-- 0 -->
      <g transform="translate(44.902638 118.915704) scale(0.12 -0.12)">
       <use xlink:href="#DejaVuSans-30"/>
      </g>
     </g>
    </g>
    <g id="ytick_3">
     <g id="line2d_7">
      <g>
       <use xlink:href="#m5014c6f261" x="64.037638" y="72.257695" style="stroke: #000000"/>
      </g>
     </g>
     <g id="text_8">
      <!-- 10 -->
      <g transform="translate(37.267638 76.816757) scale(0.12 -0.12)">
       <use xlink:href="#DejaVuSans-31"/>
       <use xlink:href="#DejaVuSans-30" x="63.623047"/>
      </g>
     </g>
    </g>
    <g id="ytick_4">
     <g id="line2d_8">
      <g>
       <use xlink:href="#m5014c6f261" x="64.037638" y="30.158748" style="stroke: #000000"/>
      </g>
     </g>
     <g id="text_9">
      <!-- 20 -->
      <g transform="translate(37.267638 34.717811) scale(0.12 -0.12)">
       <use xlink:href="#DejaVuSans-32"/>
       <use xlink:href="#DejaVuSans-30" x="63.623047"/>
      </g>
     </g>
    </g>
    <g id="text_10">
     <!-- PC 2 (11.33%) -->
     <g transform="translate(20.716388 144.920878) rotate(-90) scale(0.12 -0.12)">
      <defs>
       <path id="DejaVuSans-33" d="M 2597 2516 
Q 3050 2419 3304 2112 
Q 3559 1806 3559 1356 
Q 3559 666 3084 287 
Q 2609 -91 1734 -91 
Q 1441 -91 1130 -33 
Q 819 25 488 141 
L 488 750 
Q 750 597 1062 519 
Q 1375 441 1716 441 
Q 2309 441 2620 675 
Q 2931 909 2931 1356 
Q 2931 1769 2642 2001 
Q 2353 2234 1838 2234 
L 1294 2234 
L 1294 2753 
L 1863 2753 
Q 2328 2753 2575 2939 
Q 2822 3125 2822 3475 
Q 2822 3834 2567 4026 
Q 2313 4219 1838 4219 
Q 1578 4219 1281 4162 
Q 984 4106 628 3988 
L 628 4550 
Q 988 4650 1302 4700 
Q 1616 4750 1894 4750 
Q 2613 4750 3031 4423 
Q 3450 4097 3450 3541 
Q 3450 3153 3228 2886 
Q 3006 2619 2597 2516 
z
" transform="scale(0.015625)"/>
      </defs>
      <use xlink:href="#DejaVuSans-50"/>
      <use xlink:href="#DejaVuSans-43" x="60.302734"/>
      <use xlink:href="#DejaVuSans-20" x="130.126953"/>
      <use xlink:href="#DejaVuSans-32" x="161.914062"/>
      <use xlink:href="#DejaVuSans-20" x="225.537109"/>
      <use xlink:href="#DejaVuSans-28" x="257.324219"/>
      <use xlink:href="#DejaVuSans-31" x="296.337891"/>
      <use xlink:href="#DejaVuSans-31" x="359.960938"/>
      <use xlink:href="#DejaVuSans-2e" x="423.583984"/>
      <use xlink:href="#DejaVuSans-33" x="455.371094"/>
      <use xlink:href="#DejaVuSans-33" x="518.994141"/>
      <use xlink:href="#DejaVuSans-25" x="582.617188"/>
      <use xlink:href="#DejaVuSans-29" x="677.636719"/>
     </g>
    </g>
   </g>
   <g id="patch_3">
    <path d="M 64.037638 183.896063 
L 64.037638 19.948819 
" style="fill: none; stroke: #000000; stroke-width: 2; stroke-linejoin: miter; stroke-linecap: square"/>
   </g>
   <g id="patch_4">
    <path d="M 64.037638 183.896063 
L 227.984882 183.896063 
" style="fill: none; stroke: #000000; stroke-width: 2; stroke-linejoin: miter; stroke-linecap: square"/>
   </g>
  </g>
 </g>
 <defs>
  <clipPath id="p7b745ebca7">
   <rect x="64.037638" y="19.948819" width="163.947244" height="163.947244"/>
  </clipPath>
 </defs>
</svg>
