<?xml version="1.0" encoding="utf-8" standalone="no"?>
<!DOCTYPE svg PUBLIC "-//W3C//DTD SVG 1.1//EN"
  "http://www.w3.org/Graphics/SVG/1.1/DTD/svg11.dtd">
<svg xmlns:xlink="http://www.w3.org/1999/xlink" width="240.944882pt" height="240.944882pt" viewBox="0 0 240.944882 240.944882" xmlns="http://www.w3.org/2000/svg" version="1.1">
 <metadata>
  <rdf:RDF xmlns:dc="http://purl.org/dc/elements/1.1/" xmlns:cc="http://creativecommons.org/ns#" xmlns:rdf="http://www.w3.org/1999/02/22-rdf-syntax-ns#">
   <cc:Work>
    <dc:type rdf:resource="http://purl.org/dc/dcmitype/StillImage"/>
    <dc:date>2025-02-24T15:44:44.848133</dc:date>
    <dc:format>image/svg+xml</dc:format>
    <dc:creator>
     <cc:Agent>
      <dc:title>Matplotlib v3.6.2, https://matplotlib.org/</dc:title>
     </cc:Agent>
    </dc:creator>
   </cc:Work>
  </rdf:RDF>
 </metadata>
 <defs>
  <style type="text/css">*{stroke-linejoin: round; stroke-linecap: butt}</style>
 </defs>
 <g id="figure_1">
  <g id="patch_1">
   <path d="M 0 240.944882 
L 240.944882 240.944882 
L 240.944882 0 
L 0 0 
L 0 240.944882 
z
" style="fill: none"/>
  </g>
  <g id="axes_1">
   <g id="patch_2">
    <path d="M 53.957638 188.936063 
L 227.984882 188.936063 
L 227.984882 14.908819 
L 53.957638 14.908819 
L 53.957638 188.936063 
z
" style="fill: none"/>
   </g>
   <g id="PathCollection_1">
    <path d="M 71.243867 70.432253 
L 73.043867 67.432253 
L 71.243867 64.432253 
L 69.443867 67.432253 
z
" clip-path="url(#p48086f8257)" style="fill: #332288; fill-opacity: 0.6; stroke: #ffffff; stroke-opacity: 0.6; stroke-width: 0.339411"/>
    <path d="M 127.916353 47.92202 
L 129.716353 44.92202 
L 127.916353 41.92202 
L 126.116353 44.92202 
z
" clip-path="url(#p48086f8257)" style="fill: #332288; fill-opacity: 0.6; stroke: #ffffff; stroke-opacity: 0.6; stroke-width: 0.339411"/>
    <path d="M 93.034583 96.99833 
L 94.834583 93.99833 
L 93.034583 90.99833 
L 91.234583 93.99833 
z
" clip-path="url(#p48086f8257)" style="fill: #332288; fill-opacity: 0.6; stroke: #ffffff; stroke-opacity: 0.6; stroke-width: 0.339411"/>
    <path d="M 102.679129 84.84985 
L 104.479129 81.84985 
L 102.679129 78.84985 
L 100.879129 81.84985 
z
" clip-path="url(#p48086f8257)" style="fill: #332288; fill-opacity: 0.6; stroke: #ffffff; stroke-opacity: 0.6; stroke-width: 0.339411"/>
    <path d="M 89.40136 100.538912 
L 91.20136 97.538912 
L 89.40136 94.538912 
L 87.60136 97.538912 
z
" clip-path="url(#p48086f8257)" style="fill: #332288; fill-opacity: 0.6; stroke: #ffffff; stroke-opacity: 0.6; stroke-width: 0.339411"/>
    <path d="M 108.73999 50.102359 
L 110.53999 47.102359 
L 108.73999 44.102359 
L 106.93999 47.102359 
z
" clip-path="url(#p48086f8257)" style="fill: #332288; fill-opacity: 0.6; stroke: #ffffff; stroke-opacity: 0.6; stroke-width: 0.339411"/>
    <path d="M 128.93038 61.422492 
L 130.73038 58.422492 
L 128.93038 55.422492 
L 127.13038 58.422492 
z
" clip-path="url(#p48086f8257)" style="fill: #332288; fill-opacity: 0.6; stroke: #ffffff; stroke-opacity: 0.6; stroke-width: 0.339411"/>
    <path d="M 99.321376 84.653487 
L 101.121376 81.653487 
L 99.321376 78.653487 
L 97.521376 81.653487 
z
" clip-path="url(#p48086f8257)" style="fill: #332288; fill-opacity: 0.6; stroke: #ffffff; stroke-opacity: 0.6; stroke-width: 0.339411"/>
    <path d="M 93.949721 89.527996 
L 95.749721 86.527996 
L 93.949721 83.527996 
L 92.149721 86.527996 
z
" clip-path="url(#p48086f8257)" style="fill: #332288; fill-opacity: 0.6; stroke: #ffffff; stroke-opacity: 0.6; stroke-width: 0.339411"/>
    <path d="M 92.686094 85.793803 
L 94.486094 82.793803 
L 92.686094 79.793803 
L 90.886094 82.793803 
z
" clip-path="url(#p48086f8257)" style="fill: #332288; fill-opacity: 0.6; stroke: #ffffff; stroke-opacity: 0.6; stroke-width: 0.339411"/>
    <path d="M 87.290701 89.100079 
L 89.090701 86.100079 
L 87.290701 83.100079 
L 85.490701 86.100079 
z
" clip-path="url(#p48086f8257)" style="fill: #332288; fill-opacity: 0.6; stroke: #ffffff; stroke-opacity: 0.6; stroke-width: 0.339411"/>
    <path d="M 82.570702 92.524165 
L 84.370702 89.524165 
L 82.570702 86.524165 
L 80.770702 89.524165 
z
" clip-path="url(#p48086f8257)" style="fill: #332288; fill-opacity: 0.6; stroke: #ffffff; stroke-opacity: 0.6; stroke-width: 0.339411"/>
    <path d="M 70.335914 77.423121 
L 72.135914 74.423121 
L 70.335914 71.423121 
L 68.535914 74.423121 
z
" clip-path="url(#p48086f8257)" style="fill: #332288; fill-opacity: 0.6; stroke: #ffffff; stroke-opacity: 0.6; stroke-width: 0.339411"/>
    <path d="M 127.294727 56.025306 
L 129.094727 53.025306 
L 127.294727 50.025306 
L 125.494727 53.025306 
z
" clip-path="url(#p48086f8257)" style="fill: #332288; fill-opacity: 0.6; stroke: #ffffff; stroke-opacity: 0.6; stroke-width: 0.339411"/>
    <path d="M 76.666129 97.854379 
L 78.466129 94.854379 
L 76.666129 91.854379 
L 74.866129 94.854379 
z
" clip-path="url(#p48086f8257)" style="fill: #332288; fill-opacity: 0.6; stroke: #ffffff; stroke-opacity: 0.6; stroke-width: 0.339411"/>
    <path d="M 69.528984 94.879736 
L 71.328984 91.879736 
L 69.528984 88.879736 
L 67.728984 91.879736 
z
" clip-path="url(#p48086f8257)" style="fill: #332288; fill-opacity: 0.6; stroke: #ffffff; stroke-opacity: 0.6; stroke-width: 0.339411"/>
    <path d="M 76.777124 92.040887 
L 78.577124 89.040887 
L 76.777124 86.040887 
L 74.977124 89.040887 
z
" clip-path="url(#p48086f8257)" style="fill: #332288; fill-opacity: 0.6; stroke: #ffffff; stroke-opacity: 0.6; stroke-width: 0.339411"/>
    <path d="M 124.294961 37.396256 
L 126.094961 34.396256 
L 124.294961 31.396256 
L 122.494961 34.396256 
z
" clip-path="url(#p48086f8257)" style="fill: #332288; fill-opacity: 0.6; stroke: #ffffff; stroke-opacity: 0.6; stroke-width: 0.339411"/>
    <path d="M 94.356429 92.550481 
L 96.156429 89.550481 
L 94.356429 86.550481 
L 92.556429 89.550481 
z
" clip-path="url(#p48086f8257)" style="fill: #332288; fill-opacity: 0.6; stroke: #ffffff; stroke-opacity: 0.6; stroke-width: 0.339411"/>
    <path d="M 126.46706 58.34443 
L 128.26706 55.34443 
L 126.46706 52.34443 
L 124.66706 55.34443 
z
" clip-path="url(#p48086f8257)" style="fill: #332288; fill-opacity: 0.6; stroke: #ffffff; stroke-opacity: 0.6; stroke-width: 0.339411"/>
    <path d="M 125.044844 56.792939 
L 126.844844 53.792939 
L 125.044844 50.792939 
L 123.244844 53.792939 
z
" clip-path="url(#p48086f8257)" style="fill: #332288; fill-opacity: 0.6; stroke: #ffffff; stroke-opacity: 0.6; stroke-width: 0.339411"/>
    <path d="M 99.950699 87.9791 
L 101.750699 84.9791 
L 99.950699 81.9791 
L 98.150699 84.9791 
z
" clip-path="url(#p48086f8257)" style="fill: #332288; fill-opacity: 0.6; stroke: #ffffff; stroke-opacity: 0.6; stroke-width: 0.339411"/>
    <path d="M 91.320544 81.068077 
L 93.120544 78.068077 
L 91.320544 75.068077 
L 89.520544 78.068077 
z
" clip-path="url(#p48086f8257)" style="fill: #332288; fill-opacity: 0.6; stroke: #ffffff; stroke-opacity: 0.6; stroke-width: 0.339411"/>
    <path d="M 129.310897 37.239315 
L 131.110897 34.239315 
L 129.310897 31.239315 
L 127.510897 34.239315 
z
" clip-path="url(#p48086f8257)" style="fill: #332288; fill-opacity: 0.6; stroke: #ffffff; stroke-opacity: 0.6; stroke-width: 0.339411"/>
    <path d="M 81.660902 89.155108 
L 83.460902 86.155108 
L 81.660902 83.155108 
L 79.860902 86.155108 
z
" clip-path="url(#p48086f8257)" style="fill: #332288; fill-opacity: 0.6; stroke: #ffffff; stroke-opacity: 0.6; stroke-width: 0.339411"/>
    <path d="M 99.084873 88.863241 
L 100.884873 85.863241 
L 99.084873 82.863241 
L 97.284873 85.863241 
z
" clip-path="url(#p48086f8257)" style="fill: #332288; fill-opacity: 0.6; stroke: #ffffff; stroke-opacity: 0.6; stroke-width: 0.339411"/>
    <path d="M 135.271414 64.645286 
L 137.071414 61.645286 
L 135.271414 58.645286 
L 133.471414 61.645286 
z
" clip-path="url(#p48086f8257)" style="fill: #332288; fill-opacity: 0.6; stroke: #ffffff; stroke-opacity: 0.6; stroke-width: 0.339411"/>
    <path d="M 108.510071 51.387431 
L 110.310071 48.387431 
L 108.510071 45.387431 
L 106.710071 48.387431 
z
" clip-path="url(#p48086f8257)" style="fill: #332288; fill-opacity: 0.6; stroke: #ffffff; stroke-opacity: 0.6; stroke-width: 0.339411"/>
    <path d="M 127.661748 69.192899 
L 129.461748 66.192899 
L 127.661748 63.192899 
L 125.861748 66.192899 
z
" clip-path="url(#p48086f8257)" style="fill: #332288; fill-opacity: 0.6; stroke: #ffffff; stroke-opacity: 0.6; stroke-width: 0.339411"/>
    <path d="M 74.636306 72.178419 
L 76.436306 69.178419 
L 74.636306 66.178419 
L 72.836306 69.178419 
z
" clip-path="url(#p48086f8257)" style="fill: #332288; fill-opacity: 0.6; stroke: #ffffff; stroke-opacity: 0.6; stroke-width: 0.339411"/>
    <path d="M 74.006923 96.677691 
L 75.806923 93.677691 
L 74.006923 90.677691 
L 72.206923 93.677691 
z
" clip-path="url(#p48086f8257)" style="fill: #332288; fill-opacity: 0.6; stroke: #ffffff; stroke-opacity: 0.6; stroke-width: 0.339411"/>
    <path d="M 101.751871 120.596754 
L 103.551871 117.596754 
L 101.751871 114.596754 
L 99.951871 117.596754 
z
" clip-path="url(#p48086f8257)" style="fill: #332288; fill-opacity: 0.6; stroke: #ffffff; stroke-opacity: 0.6; stroke-width: 0.339411"/>
    <path d="M 68.250922 76.470787 
L 70.050922 73.470787 
L 68.250922 70.470787 
L 66.450922 73.470787 
z
" clip-path="url(#p48086f8257)" style="fill: #332288; fill-opacity: 0.6; stroke: #ffffff; stroke-opacity: 0.6; stroke-width: 0.339411"/>
    <path d="M 74.22996 93.711341 
L 76.02996 90.711341 
L 74.22996 87.711341 
L 72.42996 90.711341 
z
" clip-path="url(#p48086f8257)" style="fill: #332288; fill-opacity: 0.6; stroke: #ffffff; stroke-opacity: 0.6; stroke-width: 0.339411"/>
    <path d="M 93.736193 81.577124 
L 95.536193 78.577124 
L 93.736193 75.577124 
L 91.936193 78.577124 
z
" clip-path="url(#p48086f8257)" style="fill: #332288; fill-opacity: 0.6; stroke: #ffffff; stroke-opacity: 0.6; stroke-width: 0.339411"/>
    <path d="M 120.863181 50.462973 
L 122.663181 47.462973 
L 120.863181 44.462973 
L 119.063181 47.462973 
z
" clip-path="url(#p48086f8257)" style="fill: #332288; fill-opacity: 0.6; stroke: #ffffff; stroke-opacity: 0.6; stroke-width: 0.339411"/>
    <path d="M 90.856098 82.582764 
L 92.656098 79.582764 
L 90.856098 76.582764 
L 89.056098 79.582764 
z
" clip-path="url(#p48086f8257)" style="fill: #332288; fill-opacity: 0.6; stroke: #ffffff; stroke-opacity: 0.6; stroke-width: 0.339411"/>
    <path d="M 67.011626 74.912581 
L 68.811626 71.912581 
L 67.011626 68.912581 
L 65.211626 71.912581 
z
" clip-path="url(#p48086f8257)" style="fill: #332288; fill-opacity: 0.6; stroke: #ffffff; stroke-opacity: 0.6; stroke-width: 0.339411"/>
    <path d="M 130.66312 53.635836 
L 132.46312 50.635836 
L 130.66312 47.635836 
L 128.86312 50.635836 
z
" clip-path="url(#p48086f8257)" style="fill: #332288; fill-opacity: 0.6; stroke: #ffffff; stroke-opacity: 0.6; stroke-width: 0.339411"/>
    <path d="M 72.609005 92.883586 
L 74.409005 89.883586 
L 72.609005 86.883586 
L 70.809005 89.883586 
z
" clip-path="url(#p48086f8257)" style="fill: #332288; fill-opacity: 0.6; stroke: #ffffff; stroke-opacity: 0.6; stroke-width: 0.339411"/>
    <path d="M 128.507596 43.860362 
L 130.307596 40.860362 
L 128.507596 37.860362 
L 126.707596 40.860362 
z
" clip-path="url(#p48086f8257)" style="fill: #332288; fill-opacity: 0.6; stroke: #ffffff; stroke-opacity: 0.6; stroke-width: 0.339411"/>
    <path d="M 128.512077 33.270629 
L 130.312077 30.270629 
L 128.512077 27.270629 
L 126.712077 30.270629 
z
" clip-path="url(#p48086f8257)" style="fill: #332288; fill-opacity: 0.6; stroke: #ffffff; stroke-opacity: 0.6; stroke-width: 0.339411"/>
    <path d="M 76.296062 88.658282 
L 78.096062 85.658282 
L 76.296062 82.658282 
L 74.496062 85.658282 
z
" clip-path="url(#p48086f8257)" style="fill: #332288; fill-opacity: 0.6; stroke: #ffffff; stroke-opacity: 0.6; stroke-width: 0.339411"/>
    <path d="M 85.930621 94.299737 
L 87.730621 91.299737 
L 85.930621 88.299737 
L 84.130621 91.299737 
z
" clip-path="url(#p48086f8257)" style="fill: #332288; fill-opacity: 0.6; stroke: #ffffff; stroke-opacity: 0.6; stroke-width: 0.339411"/>
    <path d="M 132.416654 34.12005 
L 134.216654 31.12005 
L 132.416654 28.12005 
L 130.616654 31.12005 
z
" clip-path="url(#p48086f8257)" style="fill: #332288; fill-opacity: 0.6; stroke: #ffffff; stroke-opacity: 0.6; stroke-width: 0.339411"/>
    <path d="M 131.245023 47.719151 
L 133.045023 44.719151 
L 131.245023 41.719151 
L 129.445023 44.719151 
z
" clip-path="url(#p48086f8257)" style="fill: #332288; fill-opacity: 0.6; stroke: #ffffff; stroke-opacity: 0.6; stroke-width: 0.339411"/>
    <path d="M 76.142423 77.443187 
L 77.942423 74.443187 
L 76.142423 71.443187 
L 74.342423 74.443187 
z
" clip-path="url(#p48086f8257)" style="fill: #332288; fill-opacity: 0.6; stroke: #ffffff; stroke-opacity: 0.6; stroke-width: 0.339411"/>
    <path d="M 124.451908 52.851454 
L 126.251908 49.851454 
L 124.451908 46.851454 
L 122.651908 49.851454 
z
" clip-path="url(#p48086f8257)" style="fill: #332288; fill-opacity: 0.6; stroke: #ffffff; stroke-opacity: 0.6; stroke-width: 0.339411"/>
    <path d="M 128.205777 38.851829 
L 130.005777 35.851829 
L 128.205777 32.851829 
L 126.405777 35.851829 
z
" clip-path="url(#p48086f8257)" style="fill: #332288; fill-opacity: 0.6; stroke: #ffffff; stroke-opacity: 0.6; stroke-width: 0.339411"/>
    <path d="M 114.668008 68.427315 
L 116.468008 65.427315 
L 114.668008 62.427315 
L 112.868008 65.427315 
z
" clip-path="url(#p48086f8257)" style="fill: #332288; fill-opacity: 0.6; stroke: #ffffff; stroke-opacity: 0.6; stroke-width: 0.339411"/>
    <path d="M 120.445518 69.52132 
L 122.245518 66.52132 
L 120.445518 63.52132 
L 118.645518 66.52132 
z
" clip-path="url(#p48086f8257)" style="fill: #332288; fill-opacity: 0.6; stroke: #ffffff; stroke-opacity: 0.6; stroke-width: 0.339411"/>
    <path d="M 94.8346 101.058592 
L 96.6346 98.058592 
L 94.8346 95.058592 
L 93.0346 98.058592 
z
" clip-path="url(#p48086f8257)" style="fill: #332288; fill-opacity: 0.6; stroke: #ffffff; stroke-opacity: 0.6; stroke-width: 0.339411"/>
    <path d="M 71.085897 88.646241 
L 72.885897 85.646241 
L 71.085897 82.646241 
L 69.285897 85.646241 
z
" clip-path="url(#p48086f8257)" style="fill: #332288; fill-opacity: 0.6; stroke: #ffffff; stroke-opacity: 0.6; stroke-width: 0.339411"/>
    <path d="M 79.211713 95.935838 
L 81.011713 92.935838 
L 79.211713 89.935838 
L 77.411713 92.935838 
z
" clip-path="url(#p48086f8257)" style="fill: #332288; fill-opacity: 0.6; stroke: #ffffff; stroke-opacity: 0.6; stroke-width: 0.339411"/>
    <path d="M 92.17064 99.868931 
L 93.97064 96.868931 
L 92.17064 93.868931 
L 90.37064 96.868931 
z
" clip-path="url(#p48086f8257)" style="fill: #332288; fill-opacity: 0.6; stroke: #ffffff; stroke-opacity: 0.6; stroke-width: 0.339411"/>
    <path d="M 68.513083 75.25988 
L 70.313083 72.25988 
L 68.513083 69.25988 
L 66.713083 72.25988 
z
" clip-path="url(#p48086f8257)" style="fill: #332288; fill-opacity: 0.6; stroke: #ffffff; stroke-opacity: 0.6; stroke-width: 0.339411"/>
    <path d="M 126.276726 35.530382 
L 128.076726 32.530382 
L 126.276726 29.530382 
L 124.476726 32.530382 
z
" clip-path="url(#p48086f8257)" style="fill: #332288; fill-opacity: 0.6; stroke: #ffffff; stroke-opacity: 0.6; stroke-width: 0.339411"/>
    <path d="M 131.391774 66.251492 
L 133.191774 63.251492 
L 131.391774 60.251492 
L 129.591774 63.251492 
z
" clip-path="url(#p48086f8257)" style="fill: #332288; fill-opacity: 0.6; stroke: #ffffff; stroke-opacity: 0.6; stroke-width: 0.339411"/>
    <path d="M 96.36982 90.784982 
L 98.16982 87.784982 
L 96.36982 84.784982 
L 94.56982 87.784982 
z
" clip-path="url(#p48086f8257)" style="fill: #332288; fill-opacity: 0.6; stroke: #ffffff; stroke-opacity: 0.6; stroke-width: 0.339411"/>
    <path d="M 131.216757 66.071063 
L 133.016757 63.071063 
L 131.216757 60.071063 
L 129.416757 63.071063 
z
" clip-path="url(#p48086f8257)" style="fill: #332288; fill-opacity: 0.6; stroke: #ffffff; stroke-opacity: 0.6; stroke-width: 0.339411"/>
    <path d="M 84.71478 86.253489 
L 86.51478 83.253489 
L 84.71478 80.253489 
L 82.91478 83.253489 
z
" clip-path="url(#p48086f8257)" style="fill: #332288; fill-opacity: 0.6; stroke: #ffffff; stroke-opacity: 0.6; stroke-width: 0.339411"/>
    <path d="M 97.197845 103.57086 
L 98.997845 100.57086 
L 97.197845 97.57086 
L 95.397845 100.57086 
z
" clip-path="url(#p48086f8257)" style="fill: #332288; fill-opacity: 0.6; stroke: #ffffff; stroke-opacity: 0.6; stroke-width: 0.339411"/>
    <path d="M 67.993194 96.77557 
L 69.793194 93.77557 
L 67.993194 90.77557 
L 66.193194 93.77557 
z
" clip-path="url(#p48086f8257)" style="fill: #332288; fill-opacity: 0.6; stroke: #ffffff; stroke-opacity: 0.6; stroke-width: 0.339411"/>
    <path d="M 132.386893 56.018206 
L 134.186893 53.018206 
L 132.386893 50.018206 
L 130.586893 53.018206 
z
" clip-path="url(#p48086f8257)" style="fill: #332288; fill-opacity: 0.6; stroke: #ffffff; stroke-opacity: 0.6; stroke-width: 0.339411"/>
    <path d="M 95.324772 119.086636 
L 93.203451 123.329276 
L 97.446092 123.329276 
z
" clip-path="url(#p48086f8257)" style="fill: #117733; fill-opacity: 0.6; stroke: #ffffff; stroke-opacity: 0.6; stroke-width: 0.339411"/>
    <path d="M 115.653664 31.528183 
L 113.532344 35.770824 
L 117.774985 35.770824 
z
" clip-path="url(#p48086f8257)" style="fill: #117733; fill-opacity: 0.6; stroke: #ffffff; stroke-opacity: 0.6; stroke-width: 0.339411"/>
    <path d="M 119.749175 54.989434 
L 117.627855 59.232075 
L 121.870495 59.232075 
z
" clip-path="url(#p48086f8257)" style="fill: #117733; fill-opacity: 0.6; stroke: #ffffff; stroke-opacity: 0.6; stroke-width: 0.339411"/>
    <path d="M 95.154733 137.063611 
L 93.033413 141.306252 
L 97.276054 141.306252 
z
" clip-path="url(#p48086f8257)" style="fill: #117733; fill-opacity: 0.6; stroke: #ffffff; stroke-opacity: 0.6; stroke-width: 0.339411"/>
    <path d="M 100.853369 42.316933 
L 98.732048 46.559574 
L 102.974689 46.559574 
z
" clip-path="url(#p48086f8257)" style="fill: #117733; fill-opacity: 0.6; stroke: #ffffff; stroke-opacity: 0.6; stroke-width: 0.339411"/>
    <path d="M 141.938303 77.597598 
L 139.816982 81.840239 
L 144.059623 81.840239 
z
" clip-path="url(#p48086f8257)" style="fill: #117733; fill-opacity: 0.6; stroke: #ffffff; stroke-opacity: 0.6; stroke-width: 0.339411"/>
    <path d="M 116.027163 46.598605 
L 113.905842 50.841246 
L 118.148483 50.841246 
z
" clip-path="url(#p48086f8257)" style="fill: #117733; fill-opacity: 0.6; stroke: #ffffff; stroke-opacity: 0.6; stroke-width: 0.339411"/>
    <path d="M 95.629207 42.497269 
L 93.507886 46.73991 
L 97.750527 46.73991 
z
" clip-path="url(#p48086f8257)" style="fill: #117733; fill-opacity: 0.6; stroke: #ffffff; stroke-opacity: 0.6; stroke-width: 0.339411"/>
    <path d="M 106.795683 34.983538 
L 104.674362 39.226179 
L 108.917003 39.226179 
z
" clip-path="url(#p48086f8257)" style="fill: #117733; fill-opacity: 0.6; stroke: #ffffff; stroke-opacity: 0.6; stroke-width: 0.339411"/>
    <path d="M 78.255737 114.059474 
L 76.134416 118.302115 
L 80.377057 118.302115 
z
" clip-path="url(#p48086f8257)" style="fill: #117733; fill-opacity: 0.6; stroke: #ffffff; stroke-opacity: 0.6; stroke-width: 0.339411"/>
    <path d="M 111.387728 53.113795 
L 109.266408 57.356436 
L 113.509049 57.356436 
z
" clip-path="url(#p48086f8257)" style="fill: #117733; fill-opacity: 0.6; stroke: #ffffff; stroke-opacity: 0.6; stroke-width: 0.339411"/>
    <path d="M 104.094096 57.706941 
L 101.972775 61.949581 
L 106.215416 61.949581 
z
" clip-path="url(#p48086f8257)" style="fill: #117733; fill-opacity: 0.6; stroke: #ffffff; stroke-opacity: 0.6; stroke-width: 0.339411"/>
    <path d="M 107.808941 35.83453 
L 105.687621 40.077171 
L 109.930261 40.077171 
z
" clip-path="url(#p48086f8257)" style="fill: #117733; fill-opacity: 0.6; stroke: #ffffff; stroke-opacity: 0.6; stroke-width: 0.339411"/>
    <path d="M 123.52404 58.665885 
L 121.40272 62.908526 
L 125.645361 62.908526 
z
" clip-path="url(#p48086f8257)" style="fill: #117733; fill-opacity: 0.6; stroke: #ffffff; stroke-opacity: 0.6; stroke-width: 0.339411"/>
    <path d="M 132.492681 98.590937 
L 130.37136 102.833578 
L 134.614001 102.833578 
z
" clip-path="url(#p48086f8257)" style="fill: #117733; fill-opacity: 0.6; stroke: #ffffff; stroke-opacity: 0.6; stroke-width: 0.339411"/>
    <path d="M 73.115293 113.394312 
L 70.993973 117.636952 
L 75.236614 117.636952 
z
" clip-path="url(#p48086f8257)" style="fill: #117733; fill-opacity: 0.6; stroke: #ffffff; stroke-opacity: 0.6; stroke-width: 0.339411"/>
    <path d="M 94.382052 46.953655 
L 92.260732 51.196296 
L 96.503372 51.196296 
z
" clip-path="url(#p48086f8257)" style="fill: #117733; fill-opacity: 0.6; stroke: #ffffff; stroke-opacity: 0.6; stroke-width: 0.339411"/>
    <path d="M 112.24415 112.425608 
L 110.12283 116.668248 
L 114.36547 116.668248 
z
" clip-path="url(#p48086f8257)" style="fill: #117733; fill-opacity: 0.6; stroke: #ffffff; stroke-opacity: 0.6; stroke-width: 0.339411"/>
    <path d="M 99.705344 53.16815 
L 97.584024 57.41079 
L 101.826664 57.41079 
z
" clip-path="url(#p48086f8257)" style="fill: #117733; fill-opacity: 0.6; stroke: #ffffff; stroke-opacity: 0.6; stroke-width: 0.339411"/>
    <path d="M 111.64355 55.638104 
L 109.522229 59.880745 
L 113.76487 59.880745 
z
" clip-path="url(#p48086f8257)" style="fill: #117733; fill-opacity: 0.6; stroke: #ffffff; stroke-opacity: 0.6; stroke-width: 0.339411"/>
    <path d="M 140.004183 88.01839 
L 137.882862 92.26103 
L 142.125503 92.26103 
z
" clip-path="url(#p48086f8257)" style="fill: #117733; fill-opacity: 0.6; stroke: #ffffff; stroke-opacity: 0.6; stroke-width: 0.339411"/>
    <path d="M 93.886145 42.545513 
L 91.764825 46.788154 
L 96.007466 46.788154 
z
" clip-path="url(#p48086f8257)" style="fill: #117733; fill-opacity: 0.6; stroke: #ffffff; stroke-opacity: 0.6; stroke-width: 0.339411"/>
    <path d="M 103.79736 56.252823 
L 101.67604 60.495463 
L 105.91868 60.495463 
z
" clip-path="url(#p48086f8257)" style="fill: #117733; fill-opacity: 0.6; stroke: #ffffff; stroke-opacity: 0.6; stroke-width: 0.339411"/>
    <path d="M 122.817687 50.289407 
L 120.696367 54.532048 
L 124.939008 54.532048 
z
" clip-path="url(#p48086f8257)" style="fill: #117733; fill-opacity: 0.6; stroke: #ffffff; stroke-opacity: 0.6; stroke-width: 0.339411"/>
    <path d="M 93.951834 48.120369 
L 91.830513 52.36301 
L 96.073154 52.36301 
z
" clip-path="url(#p48086f8257)" style="fill: #117733; fill-opacity: 0.6; stroke: #ffffff; stroke-opacity: 0.6; stroke-width: 0.339411"/>
    <path d="M 129.305124 78.207556 
L 127.183803 82.450197 
L 131.426444 82.450197 
z
" clip-path="url(#p48086f8257)" style="fill: #117733; fill-opacity: 0.6; stroke: #ffffff; stroke-opacity: 0.6; stroke-width: 0.339411"/>
    <path d="M 69.801743 115.589671 
L 67.680423 119.832312 
L 71.923064 119.832312 
z
" clip-path="url(#p48086f8257)" style="fill: #117733; fill-opacity: 0.6; stroke: #ffffff; stroke-opacity: 0.6; stroke-width: 0.339411"/>
    <path d="M 143.320642 72.811442 
L 141.199322 77.054082 
L 145.441963 77.054082 
z
" clip-path="url(#p48086f8257)" style="fill: #117733; fill-opacity: 0.6; stroke: #ffffff; stroke-opacity: 0.6; stroke-width: 0.339411"/>
    <path d="M 107.909814 48.060044 
L 105.788494 52.302685 
L 110.031135 52.302685 
z
" clip-path="url(#p48086f8257)" style="fill: #117733; fill-opacity: 0.6; stroke: #ffffff; stroke-opacity: 0.6; stroke-width: 0.339411"/>
    <path d="M 95.084145 49.232973 
L 92.962825 53.475614 
L 97.205466 53.475614 
z
" clip-path="url(#p48086f8257)" style="fill: #117733; fill-opacity: 0.6; stroke: #ffffff; stroke-opacity: 0.6; stroke-width: 0.339411"/>
    <path d="M 95.558025 37.114562 
L 93.436705 41.357203 
L 97.679345 41.357203 
z
" clip-path="url(#p48086f8257)" style="fill: #117733; fill-opacity: 0.6; stroke: #ffffff; stroke-opacity: 0.6; stroke-width: 0.339411"/>
    <path d="M 87.857897 102.116854 
L 85.736577 106.359495 
L 89.979217 106.359495 
z
" clip-path="url(#p48086f8257)" style="fill: #117733; fill-opacity: 0.6; stroke: #ffffff; stroke-opacity: 0.6; stroke-width: 0.339411"/>
    <path d="M 76.896406 125.7443 
L 74.775086 129.98694 
L 79.017726 129.98694 
z
" clip-path="url(#p48086f8257)" style="fill: #117733; fill-opacity: 0.6; stroke: #ffffff; stroke-opacity: 0.6; stroke-width: 0.339411"/>
    <path d="M 122.624891 37.606093 
L 120.503571 41.848733 
L 124.746212 41.848733 
z
" clip-path="url(#p48086f8257)" style="fill: #117733; fill-opacity: 0.6; stroke: #ffffff; stroke-opacity: 0.6; stroke-width: 0.339411"/>
    <path d="M 71.077975 109.821734 
L 68.956655 114.064374 
L 73.199296 114.064374 
z
" clip-path="url(#p48086f8257)" style="fill: #117733; fill-opacity: 0.6; stroke: #ffffff; stroke-opacity: 0.6; stroke-width: 0.339411"/>
    <path d="M 118.172905 31.227162 
L 116.051584 35.469802 
L 120.294225 35.469802 
z
" clip-path="url(#p48086f8257)" style="fill: #117733; fill-opacity: 0.6; stroke: #ffffff; stroke-opacity: 0.6; stroke-width: 0.339411"/>
    <path d="M 100.129574 107.384665 
L 98.008254 111.627306 
L 102.250895 111.627306 
z
" clip-path="url(#p48086f8257)" style="fill: #117733; fill-opacity: 0.6; stroke: #ffffff; stroke-opacity: 0.6; stroke-width: 0.339411"/>
    <path d="M 117.02028 54.408283 
L 114.898959 58.650924 
L 119.1416 58.650924 
z
" clip-path="url(#p48086f8257)" style="fill: #117733; fill-opacity: 0.6; stroke: #ffffff; stroke-opacity: 0.6; stroke-width: 0.339411"/>
    <path d="M 124.644698 25.841487 
L 122.523378 30.084128 
L 126.766019 30.084128 
z
" clip-path="url(#p48086f8257)" style="fill: #117733; fill-opacity: 0.6; stroke: #ffffff; stroke-opacity: 0.6; stroke-width: 0.339411"/>
    <path d="M 97.752092 110.360216 
L 95.630772 114.602857 
L 99.873413 114.602857 
z
" clip-path="url(#p48086f8257)" style="fill: #117733; fill-opacity: 0.6; stroke: #ffffff; stroke-opacity: 0.6; stroke-width: 0.339411"/>
    <path d="M 104.23336 110.674559 
L 102.11204 114.9172 
L 106.354681 114.9172 
z
" clip-path="url(#p48086f8257)" style="fill: #117733; fill-opacity: 0.6; stroke: #ffffff; stroke-opacity: 0.6; stroke-width: 0.339411"/>
    <path d="M 118.11784 43.516132 
L 115.99652 47.758772 
L 120.23916 47.758772 
z
" clip-path="url(#p48086f8257)" style="fill: #117733; fill-opacity: 0.6; stroke: #ffffff; stroke-opacity: 0.6; stroke-width: 0.339411"/>
    <path d="M 84.26862 97.168751 
L 82.1473 101.411392 
L 86.38994 101.411392 
z
" clip-path="url(#p48086f8257)" style="fill: #117733; fill-opacity: 0.6; stroke: #ffffff; stroke-opacity: 0.6; stroke-width: 0.339411"/>
    <path d="M 70.983249 121.775003 
L 68.861929 126.017644 
L 73.10457 126.017644 
z
" clip-path="url(#p48086f8257)" style="fill: #117733; fill-opacity: 0.6; stroke: #ffffff; stroke-opacity: 0.6; stroke-width: 0.339411"/>
    <path d="M 97.639086 40.901061 
L 95.517765 45.143702 
L 99.760406 45.143702 
z
" clip-path="url(#p48086f8257)" style="fill: #117733; fill-opacity: 0.6; stroke: #ffffff; stroke-opacity: 0.6; stroke-width: 0.339411"/>
    <path d="M 109.203615 134.495464 
L 107.082295 138.738104 
L 111.324936 138.738104 
z
" clip-path="url(#p48086f8257)" style="fill: #117733; fill-opacity: 0.6; stroke: #ffffff; stroke-opacity: 0.6; stroke-width: 0.339411"/>
    <path d="M 145.662893 81.701797 
L 143.541572 85.944438 
L 147.784213 85.944438 
z
" clip-path="url(#p48086f8257)" style="fill: #117733; fill-opacity: 0.6; stroke: #ffffff; stroke-opacity: 0.6; stroke-width: 0.339411"/>
    <path d="M 92.579978 41.329379 
L 90.458657 45.57202 
L 94.701298 45.57202 
z
" clip-path="url(#p48086f8257)" style="fill: #117733; fill-opacity: 0.6; stroke: #ffffff; stroke-opacity: 0.6; stroke-width: 0.339411"/>
    <path d="M 113.713446 39.982516 
L 111.592125 44.225156 
L 115.834766 44.225156 
z
" clip-path="url(#p48086f8257)" style="fill: #117733; fill-opacity: 0.6; stroke: #ffffff; stroke-opacity: 0.6; stroke-width: 0.339411"/>
    <path d="M 99.020069 49.101184 
L 96.898749 53.343825 
L 101.14139 53.343825 
z
" clip-path="url(#p48086f8257)" style="fill: #117733; fill-opacity: 0.6; stroke: #ffffff; stroke-opacity: 0.6; stroke-width: 0.339411"/>
    <path d="M 102.713653 46.625759 
L 100.592333 50.8684 
L 104.834973 50.8684 
z
" clip-path="url(#p48086f8257)" style="fill: #117733; fill-opacity: 0.6; stroke: #ffffff; stroke-opacity: 0.6; stroke-width: 0.339411"/>
    <path d="M 84.648444 116.023716 
L 82.527124 120.266357 
L 86.769765 120.266357 
z
" clip-path="url(#p48086f8257)" style="fill: #117733; fill-opacity: 0.6; stroke: #ffffff; stroke-opacity: 0.6; stroke-width: 0.339411"/>
    <path d="M 122.131528 99.419489 
L 120.010208 103.66213 
L 124.252848 103.66213 
z
" clip-path="url(#p48086f8257)" style="fill: #117733; fill-opacity: 0.6; stroke: #ffffff; stroke-opacity: 0.6; stroke-width: 0.339411"/>
    <path d="M 102.151916 54.150535 
L 100.030595 58.393176 
L 104.273236 58.393176 
z
" clip-path="url(#p48086f8257)" style="fill: #117733; fill-opacity: 0.6; stroke: #ffffff; stroke-opacity: 0.6; stroke-width: 0.339411"/>
    <path d="M 115.299248 74.416577 
L 113.177928 78.659217 
L 117.420569 78.659217 
z
" clip-path="url(#p48086f8257)" style="fill: #117733; fill-opacity: 0.6; stroke: #ffffff; stroke-opacity: 0.6; stroke-width: 0.339411"/>
    <path d="M 77.196542 107.289143 
L 75.075221 111.531784 
L 79.317862 111.531784 
z
" clip-path="url(#p48086f8257)" style="fill: #117733; fill-opacity: 0.6; stroke: #ffffff; stroke-opacity: 0.6; stroke-width: 0.339411"/>
    <path d="M 91.365954 42.944454 
L 89.244633 47.187095 
L 93.487274 47.187095 
z
" clip-path="url(#p48086f8257)" style="fill: #117733; fill-opacity: 0.6; stroke: #ffffff; stroke-opacity: 0.6; stroke-width: 0.339411"/>
    <path d="M 99.303615 133.960741 
L 97.182295 138.203381 
L 101.424935 138.203381 
z
" clip-path="url(#p48086f8257)" style="fill: #117733; fill-opacity: 0.6; stroke: #ffffff; stroke-opacity: 0.6; stroke-width: 0.339411"/>
    <path d="M 98.803408 134.626203 
L 96.682087 138.868843 
L 100.924728 138.868843 
z
" clip-path="url(#p48086f8257)" style="fill: #117733; fill-opacity: 0.6; stroke: #ffffff; stroke-opacity: 0.6; stroke-width: 0.339411"/>
    <path d="M 110.556663 53.421998 
L 108.435342 57.664639 
L 112.677983 57.664639 
z
" clip-path="url(#p48086f8257)" style="fill: #117733; fill-opacity: 0.6; stroke: #ffffff; stroke-opacity: 0.6; stroke-width: 0.339411"/>
    <path d="M 132.293344 97.772383 
L 130.172023 102.015024 
L 134.414664 102.015024 
z
" clip-path="url(#p48086f8257)" style="fill: #117733; fill-opacity: 0.6; stroke: #ffffff; stroke-opacity: 0.6; stroke-width: 0.339411"/>
    <path d="M 109.965405 42.087329 
L 107.844085 46.329969 
L 112.086726 46.329969 
z
" clip-path="url(#p48086f8257)" style="fill: #117733; fill-opacity: 0.6; stroke: #ffffff; stroke-opacity: 0.6; stroke-width: 0.339411"/>
    <path d="M 108.869277 131.435119 
L 106.747956 135.67776 
L 110.990597 135.67776 
z
" clip-path="url(#p48086f8257)" style="fill: #117733; fill-opacity: 0.6; stroke: #ffffff; stroke-opacity: 0.6; stroke-width: 0.339411"/>
    <path d="M 107.098406 81.653466 
L 111.341047 81.653466 
L 111.341047 77.410826 
L 107.098406 77.410826 
z
" clip-path="url(#p48086f8257)" style="fill: #44aa99; fill-opacity: 0.6; stroke: #ffffff; stroke-opacity: 0.6; stroke-width: 0.339411"/>
    <path d="M 118.547872 136.495869 
L 122.790513 136.495869 
L 122.790513 132.253228 
L 118.547872 132.253228 
z
" clip-path="url(#p48086f8257)" style="fill: #44aa99; fill-opacity: 0.6; stroke: #ffffff; stroke-opacity: 0.6; stroke-width: 0.339411"/>
    <path d="M 100.556109 70.087365 
L 104.79875 70.087365 
L 104.79875 65.844725 
L 100.556109 65.844725 
z
" clip-path="url(#p48086f8257)" style="fill: #44aa99; fill-opacity: 0.6; stroke: #ffffff; stroke-opacity: 0.6; stroke-width: 0.339411"/>
    <path d="M 89.278096 115.778335 
L 93.520736 115.778335 
L 93.520736 111.535694 
L 89.278096 111.535694 
z
" clip-path="url(#p48086f8257)" style="fill: #44aa99; fill-opacity: 0.6; stroke: #ffffff; stroke-opacity: 0.6; stroke-width: 0.339411"/>
    <path d="M 154.925679 95.956622 
L 159.16832 95.956622 
L 159.16832 91.713981 
L 154.925679 91.713981 
z
" clip-path="url(#p48086f8257)" style="fill: #44aa99; fill-opacity: 0.6; stroke: #ffffff; stroke-opacity: 0.6; stroke-width: 0.339411"/>
    <path d="M 112.133302 79.154333 
L 116.375943 79.154333 
L 116.375943 74.911692 
L 112.133302 74.911692 
z
" clip-path="url(#p48086f8257)" style="fill: #44aa99; fill-opacity: 0.6; stroke: #ffffff; stroke-opacity: 0.6; stroke-width: 0.339411"/>
    <path d="M 74.575047 102.688485 
L 78.817688 102.688485 
L 78.817688 98.445844 
L 74.575047 98.445844 
z
" clip-path="url(#p48086f8257)" style="fill: #44aa99; fill-opacity: 0.6; stroke: #ffffff; stroke-opacity: 0.6; stroke-width: 0.339411"/>
    <path d="M 104.444764 65.717178 
L 108.687405 65.717178 
L 108.687405 61.474537 
L 104.444764 61.474537 
z
" clip-path="url(#p48086f8257)" style="fill: #44aa99; fill-opacity: 0.6; stroke: #ffffff; stroke-opacity: 0.6; stroke-width: 0.339411"/>
    <path d="M 77.282268 105.033209 
L 81.524908 105.033209 
L 81.524908 100.790568 
L 77.282268 100.790568 
z
" clip-path="url(#p48086f8257)" style="fill: #44aa99; fill-opacity: 0.6; stroke: #ffffff; stroke-opacity: 0.6; stroke-width: 0.339411"/>
    <path d="M 152.058418 89.123492 
L 156.301059 89.123492 
L 156.301059 84.880852 
L 152.058418 84.880852 
z
" clip-path="url(#p48086f8257)" style="fill: #44aa99; fill-opacity: 0.6; stroke: #ffffff; stroke-opacity: 0.6; stroke-width: 0.339411"/>
    <path d="M 99.886984 100.950821 
L 104.129624 100.950821 
L 104.129624 96.708181 
L 99.886984 96.708181 
z
" clip-path="url(#p48086f8257)" style="fill: #44aa99; fill-opacity: 0.6; stroke: #ffffff; stroke-opacity: 0.6; stroke-width: 0.339411"/>
    <path d="M 136.330429 79.340605 
L 140.573069 79.340605 
L 140.573069 75.097964 
L 136.330429 75.097964 
z
" clip-path="url(#p48086f8257)" style="fill: #44aa99; fill-opacity: 0.6; stroke: #ffffff; stroke-opacity: 0.6; stroke-width: 0.339411"/>
    <path d="M 132.619183 86.244104 
L 136.861823 86.244104 
L 136.861823 82.001463 
L 132.619183 82.001463 
z
" clip-path="url(#p48086f8257)" style="fill: #44aa99; fill-opacity: 0.6; stroke: #ffffff; stroke-opacity: 0.6; stroke-width: 0.339411"/>
    <path d="M 156.223792 94.433251 
L 160.466433 94.433251 
L 160.466433 90.19061 
L 156.223792 90.19061 
z
" clip-path="url(#p48086f8257)" style="fill: #44aa99; fill-opacity: 0.6; stroke: #ffffff; stroke-opacity: 0.6; stroke-width: 0.339411"/>
    <path d="M 120.666361 134.832066 
L 124.909002 134.832066 
L 124.909002 130.589426 
L 120.666361 130.589426 
z
" clip-path="url(#p48086f8257)" style="fill: #44aa99; fill-opacity: 0.6; stroke: #ffffff; stroke-opacity: 0.6; stroke-width: 0.339411"/>
    <path d="M 87.598674 119.015253 
L 91.841315 119.015253 
L 91.841315 114.772613 
L 87.598674 114.772613 
z
" clip-path="url(#p48086f8257)" style="fill: #44aa99; fill-opacity: 0.6; stroke: #ffffff; stroke-opacity: 0.6; stroke-width: 0.339411"/>
    <path d="M 113.989452 140.500516 
L 118.232093 140.500516 
L 118.232093 136.257875 
L 113.989452 136.257875 
z
" clip-path="url(#p48086f8257)" style="fill: #44aa99; fill-opacity: 0.6; stroke: #ffffff; stroke-opacity: 0.6; stroke-width: 0.339411"/>
    <path d="M 124.209713 86.037225 
L 128.452354 86.037225 
L 128.452354 81.794584 
L 124.209713 81.794584 
z
" clip-path="url(#p48086f8257)" style="fill: #44aa99; fill-opacity: 0.6; stroke: #ffffff; stroke-opacity: 0.6; stroke-width: 0.339411"/>
    <path d="M 132.429169 81.554907 
L 136.67181 81.554907 
L 136.67181 77.312266 
L 132.429169 77.312266 
z
" clip-path="url(#p48086f8257)" style="fill: #44aa99; fill-opacity: 0.6; stroke: #ffffff; stroke-opacity: 0.6; stroke-width: 0.339411"/>
    <path d="M 114.546237 93.307542 
L 118.788878 93.307542 
L 118.788878 89.064901 
L 114.546237 89.064901 
z
" clip-path="url(#p48086f8257)" style="fill: #44aa99; fill-opacity: 0.6; stroke: #ffffff; stroke-opacity: 0.6; stroke-width: 0.339411"/>
    <path d="M 104.812338 105.799527 
L 109.054979 105.799527 
L 109.054979 101.556886 
L 104.812338 101.556886 
z
" clip-path="url(#p48086f8257)" style="fill: #44aa99; fill-opacity: 0.6; stroke: #ffffff; stroke-opacity: 0.6; stroke-width: 0.339411"/>
    <path d="M 138.059014 102.018708 
L 142.301655 102.018708 
L 142.301655 97.776067 
L 138.059014 97.776067 
z
" clip-path="url(#p48086f8257)" style="fill: #44aa99; fill-opacity: 0.6; stroke: #ffffff; stroke-opacity: 0.6; stroke-width: 0.339411"/>
    <path d="M 95.973462 95.082008 
L 100.216102 95.082008 
L 100.216102 90.839367 
L 95.973462 90.839367 
z
" clip-path="url(#p48086f8257)" style="fill: #44aa99; fill-opacity: 0.6; stroke: #ffffff; stroke-opacity: 0.6; stroke-width: 0.339411"/>
    <path d="M 146.318968 95.283068 
L 150.561608 95.283068 
L 150.561608 91.040427 
L 146.318968 91.040427 
z
" clip-path="url(#p48086f8257)" style="fill: #44aa99; fill-opacity: 0.6; stroke: #ffffff; stroke-opacity: 0.6; stroke-width: 0.339411"/>
    <path d="M 118.413848 111.93289 
L 122.656489 111.93289 
L 122.656489 107.69025 
L 118.413848 107.69025 
z
" clip-path="url(#p48086f8257)" style="fill: #44aa99; fill-opacity: 0.6; stroke: #ffffff; stroke-opacity: 0.6; stroke-width: 0.339411"/>
    <path d="M 120.771282 136.878664 
L 125.013923 136.878664 
L 125.013923 132.636023 
L 120.771282 132.636023 
z
" clip-path="url(#p48086f8257)" style="fill: #44aa99; fill-opacity: 0.6; stroke: #ffffff; stroke-opacity: 0.6; stroke-width: 0.339411"/>
    <path d="M 153.421146 86.799702 
L 157.663787 86.799702 
L 157.663787 82.557061 
L 153.421146 82.557061 
z
" clip-path="url(#p48086f8257)" style="fill: #44aa99; fill-opacity: 0.6; stroke: #ffffff; stroke-opacity: 0.6; stroke-width: 0.339411"/>
    <path d="M 86.976471 121.866883 
L 91.219112 121.866883 
L 91.219112 117.624242 
L 86.976471 117.624242 
z
" clip-path="url(#p48086f8257)" style="fill: #44aa99; fill-opacity: 0.6; stroke: #ffffff; stroke-opacity: 0.6; stroke-width: 0.339411"/>
    <path d="M 109.836043 136.640531 
L 114.078683 136.640531 
L 114.078683 132.39789 
L 109.836043 132.39789 
z
" clip-path="url(#p48086f8257)" style="fill: #44aa99; fill-opacity: 0.6; stroke: #ffffff; stroke-opacity: 0.6; stroke-width: 0.339411"/>
    <path d="M 158.485634 91.498815 
L 162.728275 91.498815 
L 162.728275 87.256175 
L 158.485634 87.256175 
z
" clip-path="url(#p48086f8257)" style="fill: #44aa99; fill-opacity: 0.6; stroke: #ffffff; stroke-opacity: 0.6; stroke-width: 0.339411"/>
    <path d="M 71.158307 122.192178 
L 75.400948 122.192178 
L 75.400948 117.949537 
L 71.158307 117.949537 
z
" clip-path="url(#p48086f8257)" style="fill: #44aa99; fill-opacity: 0.6; stroke: #ffffff; stroke-opacity: 0.6; stroke-width: 0.339411"/>
    <path d="M 142.458805 97.82494 
L 146.701446 97.82494 
L 146.701446 93.582299 
L 142.458805 93.582299 
z
" clip-path="url(#p48086f8257)" style="fill: #44aa99; fill-opacity: 0.6; stroke: #ffffff; stroke-opacity: 0.6; stroke-width: 0.339411"/>
    <path d="M 126.625657 128.983121 
L 130.868297 128.983121 
L 130.868297 124.740481 
L 126.625657 124.740481 
z
" clip-path="url(#p48086f8257)" style="fill: #44aa99; fill-opacity: 0.6; stroke: #ffffff; stroke-opacity: 0.6; stroke-width: 0.339411"/>
    <path d="M 106.489726 90.372541 
L 110.732366 90.372541 
L 110.732366 86.129901 
L 106.489726 86.129901 
z
" clip-path="url(#p48086f8257)" style="fill: #44aa99; fill-opacity: 0.6; stroke: #ffffff; stroke-opacity: 0.6; stroke-width: 0.339411"/>
    <path d="M 114.280749 134.152361 
L 118.52339 134.152361 
L 118.52339 129.90972 
L 114.280749 129.90972 
z
" clip-path="url(#p48086f8257)" style="fill: #44aa99; fill-opacity: 0.6; stroke: #ffffff; stroke-opacity: 0.6; stroke-width: 0.339411"/>
    <path d="M 77.095719 102.441928 
L 81.33836 102.441928 
L 81.33836 98.199288 
L 77.095719 98.199288 
z
" clip-path="url(#p48086f8257)" style="fill: #44aa99; fill-opacity: 0.6; stroke: #ffffff; stroke-opacity: 0.6; stroke-width: 0.339411"/>
    <path d="M 157.636493 92.323829 
L 161.879133 92.323829 
L 161.879133 88.081188 
L 157.636493 88.081188 
z
" clip-path="url(#p48086f8257)" style="fill: #44aa99; fill-opacity: 0.6; stroke: #ffffff; stroke-opacity: 0.6; stroke-width: 0.339411"/>
    <path d="M 108.016667 100.08105 
L 112.259307 100.08105 
L 112.259307 95.838409 
L 108.016667 95.838409 
z
" clip-path="url(#p48086f8257)" style="fill: #44aa99; fill-opacity: 0.6; stroke: #ffffff; stroke-opacity: 0.6; stroke-width: 0.339411"/>
    <path d="M 149.990839 88.181564 
L 154.233479 88.181564 
L 154.233479 83.938924 
L 149.990839 83.938924 
z
" clip-path="url(#p48086f8257)" style="fill: #44aa99; fill-opacity: 0.6; stroke: #ffffff; stroke-opacity: 0.6; stroke-width: 0.339411"/>
    <path d="M 152.561111 93.869797 
L 156.803751 93.869797 
L 156.803751 89.627156 
L 152.561111 89.627156 
z
" clip-path="url(#p48086f8257)" style="fill: #44aa99; fill-opacity: 0.6; stroke: #ffffff; stroke-opacity: 0.6; stroke-width: 0.339411"/>
    <path d="M 126.14143 104.220521 
L 130.384071 104.220521 
L 130.384071 99.97788 
L 126.14143 99.97788 
z
" clip-path="url(#p48086f8257)" style="fill: #44aa99; fill-opacity: 0.6; stroke: #ffffff; stroke-opacity: 0.6; stroke-width: 0.339411"/>
    <path d="M 112.775023 131.775316 
L 117.017664 131.775316 
L 117.017664 127.532675 
L 112.775023 127.532675 
z
" clip-path="url(#p48086f8257)" style="fill: #44aa99; fill-opacity: 0.6; stroke: #ffffff; stroke-opacity: 0.6; stroke-width: 0.339411"/>
    <path d="M 110.604502 120.397872 
L 114.847143 120.397872 
L 114.847143 116.155232 
L 110.604502 116.155232 
z
" clip-path="url(#p48086f8257)" style="fill: #44aa99; fill-opacity: 0.6; stroke: #ffffff; stroke-opacity: 0.6; stroke-width: 0.339411"/>
    <path d="M 114.435881 112.944985 
L 118.678521 112.944985 
L 118.678521 108.702344 
L 114.435881 108.702344 
z
" clip-path="url(#p48086f8257)" style="fill: #44aa99; fill-opacity: 0.6; stroke: #ffffff; stroke-opacity: 0.6; stroke-width: 0.339411"/>
    <path d="M 128.489407 128.27614 
L 132.732047 128.27614 
L 132.732047 124.033499 
L 128.489407 124.033499 
z
" clip-path="url(#p48086f8257)" style="fill: #44aa99; fill-opacity: 0.6; stroke: #ffffff; stroke-opacity: 0.6; stroke-width: 0.339411"/>
    <path d="M 101.34734 108.476075 
L 105.589981 108.476075 
L 105.589981 104.233434 
L 101.34734 104.233434 
z
" clip-path="url(#p48086f8257)" style="fill: #44aa99; fill-opacity: 0.6; stroke: #ffffff; stroke-opacity: 0.6; stroke-width: 0.339411"/>
    <path d="M 157.238215 98.474011 
L 161.480855 98.474011 
L 161.480855 94.231371 
L 157.238215 94.231371 
z
" clip-path="url(#p48086f8257)" style="fill: #44aa99; fill-opacity: 0.6; stroke: #ffffff; stroke-opacity: 0.6; stroke-width: 0.339411"/>
    <path d="M 136.465308 90.825936 
L 140.707949 90.825936 
L 140.707949 86.583296 
L 136.465308 86.583296 
z
" clip-path="url(#p48086f8257)" style="fill: #44aa99; fill-opacity: 0.6; stroke: #ffffff; stroke-opacity: 0.6; stroke-width: 0.339411"/>
    <path d="M 153.507072 98.562038 
L 157.749712 98.562038 
L 157.749712 94.319397 
L 153.507072 94.319397 
z
" clip-path="url(#p48086f8257)" style="fill: #44aa99; fill-opacity: 0.6; stroke: #ffffff; stroke-opacity: 0.6; stroke-width: 0.339411"/>
    <path d="M 110.96337 75.866208 
L 115.206011 75.866208 
L 115.206011 71.623568 
L 110.96337 71.623568 
z
" clip-path="url(#p48086f8257)" style="fill: #44aa99; fill-opacity: 0.6; stroke: #ffffff; stroke-opacity: 0.6; stroke-width: 0.339411"/>
    <path d="M 115.772421 70.577231 
L 120.015061 70.577231 
L 120.015061 66.334591 
L 115.772421 66.334591 
z
" clip-path="url(#p48086f8257)" style="fill: #44aa99; fill-opacity: 0.6; stroke: #ffffff; stroke-opacity: 0.6; stroke-width: 0.339411"/>
    <path d="M 118.116062 122.400774 
L 122.358703 122.400774 
L 122.358703 118.158133 
L 118.116062 118.158133 
z
" clip-path="url(#p48086f8257)" style="fill: #44aa99; fill-opacity: 0.6; stroke: #ffffff; stroke-opacity: 0.6; stroke-width: 0.339411"/>
    <path d="M 120.405739 87.792289 
L 124.648379 87.792289 
L 124.648379 83.549648 
L 120.405739 83.549648 
z
" clip-path="url(#p48086f8257)" style="fill: #44aa99; fill-opacity: 0.6; stroke: #ffffff; stroke-opacity: 0.6; stroke-width: 0.339411"/>
    <path d="M 119.933686 104.089127 
L 124.176327 104.089127 
L 124.176327 99.846487 
L 119.933686 99.846487 
z
" clip-path="url(#p48086f8257)" style="fill: #44aa99; fill-opacity: 0.6; stroke: #ffffff; stroke-opacity: 0.6; stroke-width: 0.339411"/>
    <path d="M 109.485898 88.845068 
L 113.728539 88.845068 
L 113.728539 84.602427 
L 109.485898 84.602427 
z
" clip-path="url(#p48086f8257)" style="fill: #44aa99; fill-opacity: 0.6; stroke: #ffffff; stroke-opacity: 0.6; stroke-width: 0.339411"/>
    <path d="M 104.621425 100.515839 
L 108.864066 100.515839 
L 108.864066 96.273199 
L 104.621425 96.273199 
z
" clip-path="url(#p48086f8257)" style="fill: #44aa99; fill-opacity: 0.6; stroke: #ffffff; stroke-opacity: 0.6; stroke-width: 0.339411"/>
    <path d="M 104.182556 94.202186 
L 108.425196 94.202186 
L 108.425196 89.959545 
L 104.182556 89.959545 
z
" clip-path="url(#p48086f8257)" style="fill: #44aa99; fill-opacity: 0.6; stroke: #ffffff; stroke-opacity: 0.6; stroke-width: 0.339411"/>
    <path d="M 113.512674 96.50938 
L 117.755315 96.50938 
L 117.755315 92.266739 
L 113.512674 92.266739 
z
" clip-path="url(#p48086f8257)" style="fill: #44aa99; fill-opacity: 0.6; stroke: #ffffff; stroke-opacity: 0.6; stroke-width: 0.339411"/>
    <path d="M 108.06221 132.507071 
L 112.304851 132.507071 
L 112.304851 128.26443 
L 108.06221 128.26443 
z
" clip-path="url(#p48086f8257)" style="fill: #44aa99; fill-opacity: 0.6; stroke: #ffffff; stroke-opacity: 0.6; stroke-width: 0.339411"/>
    <path d="M 146.640073 103.554649 
L 150.882713 103.554649 
L 150.882713 99.312008 
L 146.640073 99.312008 
z
" clip-path="url(#p48086f8257)" style="fill: #44aa99; fill-opacity: 0.6; stroke: #ffffff; stroke-opacity: 0.6; stroke-width: 0.339411"/>
    <path d="M 132.022877 84.04289 
L 136.265518 84.04289 
L 136.265518 79.800249 
L 132.022877 79.800249 
z
" clip-path="url(#p48086f8257)" style="fill: #44aa99; fill-opacity: 0.6; stroke: #ffffff; stroke-opacity: 0.6; stroke-width: 0.339411"/>
    <path d="M 121.578651 133.455564 
L 125.821291 133.455564 
L 125.821291 129.212923 
L 121.578651 129.212923 
z
" clip-path="url(#p48086f8257)" style="fill: #44aa99; fill-opacity: 0.6; stroke: #ffffff; stroke-opacity: 0.6; stroke-width: 0.339411"/>
    <path d="M 71.038328 124.197797 
L 75.280969 124.197797 
L 75.280969 119.955156 
L 71.038328 119.955156 
z
" clip-path="url(#p48086f8257)" style="fill: #44aa99; fill-opacity: 0.6; stroke: #ffffff; stroke-opacity: 0.6; stroke-width: 0.339411"/>
    <path d="M 108.107942 114.627916 
L 109.168602 113.567256 
L 110.229262 114.627916 
L 111.289922 113.567256 
L 110.229262 112.506596 
L 111.289922 111.445935 
L 110.229262 110.385275 
L 109.168602 111.445935 
L 108.107942 110.385275 
L 107.047282 111.445935 
L 108.107942 112.506596 
L 107.047282 113.567256 
z
" clip-path="url(#p48086f8257)" style="fill: #88ccee; fill-opacity: 0.6; stroke: #ffffff; stroke-opacity: 0.6; stroke-width: 0.339411"/>
    <path d="M 133.107491 73.003958 
L 134.168151 71.943298 
L 135.228811 73.003958 
L 136.289471 71.943298 
L 135.228811 70.882638 
L 136.289471 69.821978 
L 135.228811 68.761318 
L 134.168151 69.821978 
L 133.107491 68.761318 
L 132.046831 69.821978 
L 133.107491 70.882638 
L 132.046831 71.943298 
z
" clip-path="url(#p48086f8257)" style="fill: #88ccee; fill-opacity: 0.6; stroke: #ffffff; stroke-opacity: 0.6; stroke-width: 0.339411"/>
    <path d="M 89.795967 117.502777 
L 90.856627 116.442117 
L 91.917287 117.502777 
L 92.977947 116.442117 
L 91.917287 115.381457 
L 92.977947 114.320796 
L 91.917287 113.260136 
L 90.856627 114.320796 
L 89.795967 113.260136 
L 88.735307 114.320796 
L 89.795967 115.381457 
L 88.735307 116.442117 
z
" clip-path="url(#p48086f8257)" style="fill: #88ccee; fill-opacity: 0.6; stroke: #ffffff; stroke-opacity: 0.6; stroke-width: 0.339411"/>
    <path d="M 120.958748 98.536118 
L 122.019409 97.475457 
L 123.080069 98.536118 
L 124.140729 97.475457 
L 123.080069 96.414797 
L 124.140729 95.354137 
L 123.080069 94.293477 
L 122.019409 95.354137 
L 120.958748 94.293477 
L 119.898088 95.354137 
L 120.958748 96.414797 
L 119.898088 97.475457 
z
" clip-path="url(#p48086f8257)" style="fill: #88ccee; fill-opacity: 0.6; stroke: #ffffff; stroke-opacity: 0.6; stroke-width: 0.339411"/>
    <path d="M 100.474102 136.602829 
L 101.534762 135.542169 
L 102.595422 136.602829 
L 103.656082 135.542169 
L 102.595422 134.481509 
L 103.656082 133.420848 
L 102.595422 132.360188 
L 101.534762 133.420848 
L 100.474102 132.360188 
L 99.413441 133.420848 
L 100.474102 134.481509 
L 99.413441 135.542169 
z
" clip-path="url(#p48086f8257)" style="fill: #88ccee; fill-opacity: 0.6; stroke: #ffffff; stroke-opacity: 0.6; stroke-width: 0.339411"/>
    <path d="M 81.39255 136.554681 
L 82.45321 135.494021 
L 83.51387 136.554681 
L 84.57453 135.494021 
L 83.51387 134.433361 
L 84.57453 133.3727 
L 83.51387 132.31204 
L 82.45321 133.3727 
L 81.39255 132.31204 
L 80.33189 133.3727 
L 81.39255 134.433361 
L 80.33189 135.494021 
z
" clip-path="url(#p48086f8257)" style="fill: #88ccee; fill-opacity: 0.6; stroke: #ffffff; stroke-opacity: 0.6; stroke-width: 0.339411"/>
    <path d="M 142.763984 114.171192 
L 143.824644 113.110532 
L 144.885304 114.171192 
L 145.945964 113.110532 
L 144.885304 112.049872 
L 145.945964 110.989212 
L 144.885304 109.928551 
L 143.824644 110.989212 
L 142.763984 109.928551 
L 141.703324 110.989212 
L 142.763984 112.049872 
L 141.703324 113.110532 
z
" clip-path="url(#p48086f8257)" style="fill: #88ccee; fill-opacity: 0.6; stroke: #ffffff; stroke-opacity: 0.6; stroke-width: 0.339411"/>
    <path d="M 92.88579 108.063783 
L 93.94645 107.003123 
L 95.007111 108.063783 
L 96.067771 107.003123 
L 95.007111 105.942463 
L 96.067771 104.881803 
L 95.007111 103.821143 
L 93.94645 104.881803 
L 92.88579 103.821143 
L 91.82513 104.881803 
L 92.88579 105.942463 
L 91.82513 107.003123 
z
" clip-path="url(#p48086f8257)" style="fill: #88ccee; fill-opacity: 0.6; stroke: #ffffff; stroke-opacity: 0.6; stroke-width: 0.339411"/>
    <path d="M 89.452954 140.503082 
L 90.513614 139.442422 
L 91.574275 140.503082 
L 92.634935 139.442422 
L 91.574275 138.381762 
L 92.634935 137.321102 
L 91.574275 136.260441 
L 90.513614 137.321102 
L 89.452954 136.260441 
L 88.392294 137.321102 
L 89.452954 138.381762 
L 88.392294 139.442422 
z
" clip-path="url(#p48086f8257)" style="fill: #88ccee; fill-opacity: 0.6; stroke: #ffffff; stroke-opacity: 0.6; stroke-width: 0.339411"/>
    <path d="M 141.508039 117.401022 
L 142.568699 116.340362 
L 143.629359 117.401022 
L 144.690019 116.340362 
L 143.629359 115.279702 
L 144.690019 114.219042 
L 143.629359 113.158381 
L 142.568699 114.219042 
L 141.508039 113.158381 
L 140.447379 114.219042 
L 141.508039 115.279702 
L 140.447379 116.340362 
z
" clip-path="url(#p48086f8257)" style="fill: #88ccee; fill-opacity: 0.6; stroke: #ffffff; stroke-opacity: 0.6; stroke-width: 0.339411"/>
    <path d="M 85.732147 141.104774 
L 86.792807 140.044113 
L 87.853467 141.104774 
L 88.914127 140.044113 
L 87.853467 138.983453 
L 88.914127 137.922793 
L 87.853467 136.862133 
L 86.792807 137.922793 
L 85.732147 136.862133 
L 84.671487 137.922793 
L 85.732147 138.983453 
L 84.671487 140.044113 
z
" clip-path="url(#p48086f8257)" style="fill: #88ccee; fill-opacity: 0.6; stroke: #ffffff; stroke-opacity: 0.6; stroke-width: 0.339411"/>
    <path d="M 146.428284 115.107086 
L 147.488944 114.046425 
L 148.549604 115.107086 
L 149.610264 114.046425 
L 148.549604 112.985765 
L 149.610264 111.925105 
L 148.549604 110.864445 
L 147.488944 111.925105 
L 146.428284 110.864445 
L 145.367623 111.925105 
L 146.428284 112.985765 
L 145.367623 114.046425 
z
" clip-path="url(#p48086f8257)" style="fill: #88ccee; fill-opacity: 0.6; stroke: #ffffff; stroke-opacity: 0.6; stroke-width: 0.339411"/>
    <path d="M 122.279954 91.592138 
L 123.340614 90.531477 
L 124.401274 91.592138 
L 125.461934 90.531477 
L 124.401274 89.470817 
L 125.461934 88.410157 
L 124.401274 87.349497 
L 123.340614 88.410157 
L 122.279954 87.349497 
L 121.219294 88.410157 
L 122.279954 89.470817 
L 121.219294 90.531477 
z
" clip-path="url(#p48086f8257)" style="fill: #88ccee; fill-opacity: 0.6; stroke: #ffffff; stroke-opacity: 0.6; stroke-width: 0.339411"/>
    <path d="M 111.227748 129.722657 
L 112.288408 128.661997 
L 113.349068 129.722657 
L 114.409728 128.661997 
L 113.349068 127.601337 
L 114.409728 126.540677 
L 113.349068 125.480017 
L 112.288408 126.540677 
L 111.227748 125.480017 
L 110.167087 126.540677 
L 111.227748 127.601337 
L 110.167087 128.661997 
z
" clip-path="url(#p48086f8257)" style="fill: #88ccee; fill-opacity: 0.6; stroke: #ffffff; stroke-opacity: 0.6; stroke-width: 0.339411"/>
    <path d="M 101.700652 108.09003 
L 102.761312 107.029369 
L 103.821972 108.09003 
L 104.882633 107.029369 
L 103.821972 105.968709 
L 104.882633 104.908049 
L 103.821972 103.847389 
L 102.761312 104.908049 
L 101.700652 103.847389 
L 100.639992 104.908049 
L 101.700652 105.968709 
L 100.639992 107.029369 
z
" clip-path="url(#p48086f8257)" style="fill: #88ccee; fill-opacity: 0.6; stroke: #ffffff; stroke-opacity: 0.6; stroke-width: 0.339411"/>
    <path d="M 82.970199 117.375114 
L 84.03086 116.314453 
L 85.09152 117.375114 
L 86.15218 116.314453 
L 85.09152 115.253793 
L 86.15218 114.193133 
L 85.09152 113.132473 
L 84.03086 114.193133 
L 82.970199 113.132473 
L 81.909539 114.193133 
L 82.970199 115.253793 
L 81.909539 116.314453 
z
" clip-path="url(#p48086f8257)" style="fill: #88ccee; fill-opacity: 0.6; stroke: #ffffff; stroke-opacity: 0.6; stroke-width: 0.339411"/>
    <path d="M 108.706779 121.18567 
L 109.767439 120.12501 
L 110.828099 121.18567 
L 111.888759 120.12501 
L 110.828099 119.06435 
L 111.888759 118.00369 
L 110.828099 116.943029 
L 109.767439 118.00369 
L 108.706779 116.943029 
L 107.646119 118.00369 
L 108.706779 119.06435 
L 107.646119 120.12501 
z
" clip-path="url(#p48086f8257)" style="fill: #88ccee; fill-opacity: 0.6; stroke: #ffffff; stroke-opacity: 0.6; stroke-width: 0.339411"/>
    <path d="M 82.548338 139.570715 
L 83.608998 138.510055 
L 84.669658 139.570715 
L 85.730318 138.510055 
L 84.669658 137.449395 
L 85.730318 136.388735 
L 84.669658 135.328075 
L 83.608998 136.388735 
L 82.548338 135.328075 
L 81.487677 136.388735 
L 82.548338 137.449395 
L 81.487677 138.510055 
z
" clip-path="url(#p48086f8257)" style="fill: #88ccee; fill-opacity: 0.6; stroke: #ffffff; stroke-opacity: 0.6; stroke-width: 0.339411"/>
    <path d="M 120.184551 111.725301 
L 121.245211 110.664641 
L 122.305871 111.725301 
L 123.366532 110.664641 
L 122.305871 109.603981 
L 123.366532 108.543321 
L 122.305871 107.482661 
L 121.245211 108.543321 
L 120.184551 107.482661 
L 119.123891 108.543321 
L 120.184551 109.603981 
L 119.123891 110.664641 
z
" clip-path="url(#p48086f8257)" style="fill: #88ccee; fill-opacity: 0.6; stroke: #ffffff; stroke-opacity: 0.6; stroke-width: 0.339411"/>
    <path d="M 90.834858 107.093101 
L 91.895518 106.032441 
L 92.956178 107.093101 
L 94.016838 106.032441 
L 92.956178 104.97178 
L 94.016838 103.91112 
L 92.956178 102.85046 
L 91.895518 103.91112 
L 90.834858 102.85046 
L 89.774197 103.91112 
L 90.834858 104.97178 
L 89.774197 106.032441 
z
" clip-path="url(#p48086f8257)" style="fill: #88ccee; fill-opacity: 0.6; stroke: #ffffff; stroke-opacity: 0.6; stroke-width: 0.339411"/>
    <path d="M 105.548046 126.994106 
L 106.608707 125.933445 
L 107.669367 126.994106 
L 108.730027 125.933445 
L 107.669367 124.872785 
L 108.730027 123.812125 
L 107.669367 122.751465 
L 106.608707 123.812125 
L 105.548046 122.751465 
L 104.487386 123.812125 
L 105.548046 124.872785 
L 104.487386 125.933445 
z
" clip-path="url(#p48086f8257)" style="fill: #88ccee; fill-opacity: 0.6; stroke: #ffffff; stroke-opacity: 0.6; stroke-width: 0.339411"/>
    <path d="M 125.736758 116.647246 
L 126.797418 115.586585 
L 127.858078 116.647246 
L 128.918738 115.586585 
L 127.858078 114.525925 
L 128.918738 113.465265 
L 127.858078 112.404605 
L 126.797418 113.465265 
L 125.736758 112.404605 
L 124.676098 113.465265 
L 125.736758 114.525925 
L 124.676098 115.586585 
z
" clip-path="url(#p48086f8257)" style="fill: #88ccee; fill-opacity: 0.6; stroke: #ffffff; stroke-opacity: 0.6; stroke-width: 0.339411"/>
    <path d="M 102.906136 123.311905 
L 103.966796 122.251245 
L 105.027456 123.311905 
L 106.088116 122.251245 
L 105.027456 121.190585 
L 106.088116 120.129924 
L 105.027456 119.069264 
L 103.966796 120.129924 
L 102.906136 119.069264 
L 101.845476 120.129924 
L 102.906136 121.190585 
L 101.845476 122.251245 
z
" clip-path="url(#p48086f8257)" style="fill: #88ccee; fill-opacity: 0.6; stroke: #ffffff; stroke-opacity: 0.6; stroke-width: 0.339411"/>
    <path d="M 116.894425 100.039376 
L 117.955085 98.978716 
L 119.015745 100.039376 
L 120.076405 98.978716 
L 119.015745 97.918056 
L 120.076405 96.857395 
L 119.015745 95.796735 
L 117.955085 96.857395 
L 116.894425 95.796735 
L 115.833765 96.857395 
L 116.894425 97.918056 
L 115.833765 98.978716 
z
" clip-path="url(#p48086f8257)" style="fill: #88ccee; fill-opacity: 0.6; stroke: #ffffff; stroke-opacity: 0.6; stroke-width: 0.339411"/>
    <path d="M 113.893018 121.910331 
L 114.953678 120.849671 
L 116.014338 121.910331 
L 117.074998 120.849671 
L 116.014338 119.789011 
L 117.074998 118.728351 
L 116.014338 117.667691 
L 114.953678 118.728351 
L 113.893018 117.667691 
L 112.832358 118.728351 
L 113.893018 119.789011 
L 112.832358 120.849671 
z
" clip-path="url(#p48086f8257)" style="fill: #88ccee; fill-opacity: 0.6; stroke: #ffffff; stroke-opacity: 0.6; stroke-width: 0.339411"/>
    <path d="M 108.72484 106.123314 
L 109.7855 105.062654 
L 110.84616 106.123314 
L 111.90682 105.062654 
L 110.84616 104.001994 
L 111.90682 102.941334 
L 110.84616 101.880674 
L 109.7855 102.941334 
L 108.72484 101.880674 
L 107.66418 102.941334 
L 108.72484 104.001994 
L 107.66418 105.062654 
z
" clip-path="url(#p48086f8257)" style="fill: #88ccee; fill-opacity: 0.6; stroke: #ffffff; stroke-opacity: 0.6; stroke-width: 0.339411"/>
    <path d="M 123.120651 72.111717 
L 124.181311 71.051057 
L 125.241971 72.111717 
L 126.302632 71.051057 
L 125.241971 69.990397 
L 126.302632 68.929737 
L 125.241971 67.869077 
L 124.181311 68.929737 
L 123.120651 67.869077 
L 122.059991 68.929737 
L 123.120651 69.990397 
L 122.059991 71.051057 
z
" clip-path="url(#p48086f8257)" style="fill: #88ccee; fill-opacity: 0.6; stroke: #ffffff; stroke-opacity: 0.6; stroke-width: 0.339411"/>
    <path d="M 112.507122 114.677359 
L 113.567782 113.616699 
L 114.628443 114.677359 
L 115.689103 113.616699 
L 114.628443 112.556038 
L 115.689103 111.495378 
L 114.628443 110.434718 
L 113.567782 111.495378 
L 112.507122 110.434718 
L 111.446462 111.495378 
L 112.507122 112.556038 
L 111.446462 113.616699 
z
" clip-path="url(#p48086f8257)" style="fill: #88ccee; fill-opacity: 0.6; stroke: #ffffff; stroke-opacity: 0.6; stroke-width: 0.339411"/>
    <path d="M 149.385817 107.37905 
L 150.446477 106.31839 
L 151.507137 107.37905 
L 152.567798 106.31839 
L 151.507137 105.25773 
L 152.567798 104.197069 
L 151.507137 103.136409 
L 150.446477 104.197069 
L 149.385817 103.136409 
L 148.325157 104.197069 
L 149.385817 105.25773 
L 148.325157 106.31839 
z
" clip-path="url(#p48086f8257)" style="fill: #88ccee; fill-opacity: 0.6; stroke: #ffffff; stroke-opacity: 0.6; stroke-width: 0.339411"/>
    <path d="M 124.986322 100.297589 
L 126.046982 99.236929 
L 127.107642 100.297589 
L 128.168302 99.236929 
L 127.107642 98.176269 
L 128.168302 97.115609 
L 127.107642 96.054948 
L 126.046982 97.115609 
L 124.986322 96.054948 
L 123.925661 97.115609 
L 124.986322 98.176269 
L 123.925661 99.236929 
z
" clip-path="url(#p48086f8257)" style="fill: #88ccee; fill-opacity: 0.6; stroke: #ffffff; stroke-opacity: 0.6; stroke-width: 0.339411"/>
    <path d="M 135.21384 101.254514 
L 136.2745 100.193854 
L 137.33516 101.254514 
L 138.395821 100.193854 
L 137.33516 99.133194 
L 138.395821 98.072534 
L 137.33516 97.011874 
L 136.2745 98.072534 
L 135.21384 97.011874 
L 134.15318 98.072534 
L 135.21384 99.133194 
L 134.15318 100.193854 
z
" clip-path="url(#p48086f8257)" style="fill: #88ccee; fill-opacity: 0.6; stroke: #ffffff; stroke-opacity: 0.6; stroke-width: 0.339411"/>
    <path d="M 92.066849 121.923682 
L 93.12751 120.863021 
L 94.18817 121.923682 
L 95.24883 120.863021 
L 94.18817 119.802361 
L 95.24883 118.741701 
L 94.18817 117.681041 
L 93.12751 118.741701 
L 92.066849 117.681041 
L 91.006189 118.741701 
L 92.066849 119.802361 
L 91.006189 120.863021 
z
" clip-path="url(#p48086f8257)" style="fill: #88ccee; fill-opacity: 0.6; stroke: #ffffff; stroke-opacity: 0.6; stroke-width: 0.339411"/>
    <path d="M 116.704353 110.922635 
L 117.765013 109.861975 
L 118.825673 110.922635 
L 119.886333 109.861975 
L 118.825673 108.801315 
L 119.886333 107.740654 
L 118.825673 106.679994 
L 117.765013 107.740654 
L 116.704353 106.679994 
L 115.643692 107.740654 
L 116.704353 108.801315 
L 115.643692 109.861975 
z
" clip-path="url(#p48086f8257)" style="fill: #88ccee; fill-opacity: 0.6; stroke: #ffffff; stroke-opacity: 0.6; stroke-width: 0.339411"/>
    <path d="M 109.506751 65.505905 
L 110.567411 64.445245 
L 111.628071 65.505905 
L 112.688732 64.445245 
L 111.628071 63.384585 
L 112.688732 62.323925 
L 111.628071 61.263265 
L 110.567411 62.323925 
L 109.506751 61.263265 
L 108.446091 62.323925 
L 109.506751 63.384585 
L 108.446091 64.445245 
z
" clip-path="url(#p48086f8257)" style="fill: #88ccee; fill-opacity: 0.6; stroke: #ffffff; stroke-opacity: 0.6; stroke-width: 0.339411"/>
    <path d="M 140.753942 90.364441 
L 141.814602 89.30378 
L 142.875262 90.364441 
L 143.935923 89.30378 
L 142.875262 88.24312 
L 143.935923 87.18246 
L 142.875262 86.1218 
L 141.814602 87.18246 
L 140.753942 86.1218 
L 139.693282 87.18246 
L 140.753942 88.24312 
L 139.693282 89.30378 
z
" clip-path="url(#p48086f8257)" style="fill: #88ccee; fill-opacity: 0.6; stroke: #ffffff; stroke-opacity: 0.6; stroke-width: 0.339411"/>
    <path d="M 123.36648 98.427816 
L 124.427141 97.367156 
L 125.487801 98.427816 
L 126.548461 97.367156 
L 125.487801 96.306496 
L 126.548461 95.245835 
L 125.487801 94.185175 
L 124.427141 95.245835 
L 123.36648 94.185175 
L 122.30582 95.245835 
L 123.36648 96.306496 
L 122.30582 97.367156 
z
" clip-path="url(#p48086f8257)" style="fill: #88ccee; fill-opacity: 0.6; stroke: #ffffff; stroke-opacity: 0.6; stroke-width: 0.339411"/>
    <path d="M 131.639033 91.74557 
L 132.699693 90.68491 
L 133.760354 91.74557 
L 134.821014 90.68491 
L 133.760354 89.62425 
L 134.821014 88.563589 
L 133.760354 87.502929 
L 132.699693 88.563589 
L 131.639033 87.502929 
L 130.578373 88.563589 
L 131.639033 89.62425 
L 130.578373 90.68491 
z
" clip-path="url(#p48086f8257)" style="fill: #88ccee; fill-opacity: 0.6; stroke: #ffffff; stroke-opacity: 0.6; stroke-width: 0.339411"/>
    <path d="M 131.38774 123.328386 
L 132.4484 122.267726 
L 133.50906 123.328386 
L 134.56972 122.267726 
L 133.50906 121.207065 
L 134.56972 120.146405 
L 133.50906 119.085745 
L 132.4484 120.146405 
L 131.38774 119.085745 
L 130.327079 120.146405 
L 131.38774 121.207065 
L 130.327079 122.267726 
z
" clip-path="url(#p48086f8257)" style="fill: #88ccee; fill-opacity: 0.6; stroke: #ffffff; stroke-opacity: 0.6; stroke-width: 0.339411"/>
    <path d="M 136.341517 100.188967 
L 137.402177 99.128307 
L 138.462837 100.188967 
L 139.523497 99.128307 
L 138.462837 98.067647 
L 139.523497 97.006987 
L 138.462837 95.946327 
L 137.402177 97.006987 
L 136.341517 95.946327 
L 135.280856 97.006987 
L 136.341517 98.067647 
L 135.280856 99.128307 
z
" clip-path="url(#p48086f8257)" style="fill: #88ccee; fill-opacity: 0.6; stroke: #ffffff; stroke-opacity: 0.6; stroke-width: 0.339411"/>
    <path d="M 134.635057 117.430318 
L 135.695717 116.369658 
L 136.756378 117.430318 
L 137.817038 116.369658 
L 136.756378 115.308997 
L 137.817038 114.248337 
L 136.756378 113.187677 
L 135.695717 114.248337 
L 134.635057 113.187677 
L 133.574397 114.248337 
L 134.635057 115.308997 
L 133.574397 116.369658 
z
" clip-path="url(#p48086f8257)" style="fill: #88ccee; fill-opacity: 0.6; stroke: #ffffff; stroke-opacity: 0.6; stroke-width: 0.339411"/>
    <path d="M 134.898991 106.345778 
L 135.959651 105.285118 
L 137.020311 106.345778 
L 138.080972 105.285118 
L 137.020311 104.224458 
L 138.080972 103.163798 
L 137.020311 102.103137 
L 135.959651 103.163798 
L 134.898991 102.103137 
L 133.838331 103.163798 
L 134.898991 104.224458 
L 133.838331 105.285118 
z
" clip-path="url(#p48086f8257)" style="fill: #88ccee; fill-opacity: 0.6; stroke: #ffffff; stroke-opacity: 0.6; stroke-width: 0.339411"/>
    <path d="M 128.889246 75.165372 
L 129.949906 74.104712 
L 131.010566 75.165372 
L 132.071226 74.104712 
L 131.010566 73.044052 
L 132.071226 71.983392 
L 131.010566 70.922731 
L 129.949906 71.983392 
L 128.889246 70.922731 
L 127.828586 71.983392 
L 128.889246 73.044052 
L 127.828586 74.104712 
z
" clip-path="url(#p48086f8257)" style="fill: #88ccee; fill-opacity: 0.6; stroke: #ffffff; stroke-opacity: 0.6; stroke-width: 0.339411"/>
    <path d="M 146.573673 110.940728 
L 147.634333 109.880068 
L 148.694994 110.940728 
L 149.755654 109.880068 
L 148.694994 108.819408 
L 149.755654 107.758747 
L 148.694994 106.698087 
L 147.634333 107.758747 
L 146.573673 106.698087 
L 145.513013 107.758747 
L 146.573673 108.819408 
L 145.513013 109.880068 
z
" clip-path="url(#p48086f8257)" style="fill: #88ccee; fill-opacity: 0.6; stroke: #ffffff; stroke-opacity: 0.6; stroke-width: 0.339411"/>
    <path d="M 83.671261 135.353271 
L 84.731921 134.292611 
L 85.792581 135.353271 
L 86.853242 134.292611 
L 85.792581 133.23195 
L 86.853242 132.17129 
L 85.792581 131.11063 
L 84.731921 132.17129 
L 83.671261 131.11063 
L 82.610601 132.17129 
L 83.671261 133.23195 
L 82.610601 134.292611 
z
" clip-path="url(#p48086f8257)" style="fill: #88ccee; fill-opacity: 0.6; stroke: #ffffff; stroke-opacity: 0.6; stroke-width: 0.339411"/>
    <path d="M 138.688603 122.427218 
L 139.749263 121.366557 
L 140.809923 122.427218 
L 141.870584 121.366557 
L 140.809923 120.305897 
L 141.870584 119.245237 
L 140.809923 118.184577 
L 139.749263 119.245237 
L 138.688603 118.184577 
L 137.627943 119.245237 
L 138.688603 120.305897 
L 137.627943 121.366557 
z
" clip-path="url(#p48086f8257)" style="fill: #88ccee; fill-opacity: 0.6; stroke: #ffffff; stroke-opacity: 0.6; stroke-width: 0.339411"/>
    <path d="M 129.373193 95.330252 
L 130.433854 94.269592 
L 131.494514 95.330252 
L 132.555174 94.269592 
L 131.494514 93.208932 
L 132.555174 92.148272 
L 131.494514 91.087612 
L 130.433854 92.148272 
L 129.373193 91.087612 
L 128.312533 92.148272 
L 129.373193 93.208932 
L 128.312533 94.269592 
z
" clip-path="url(#p48086f8257)" style="fill: #88ccee; fill-opacity: 0.6; stroke: #ffffff; stroke-opacity: 0.6; stroke-width: 0.339411"/>
    <path d="M 123.492514 92.728712 
L 124.553174 91.668052 
L 125.613835 92.728712 
L 126.674495 91.668052 
L 125.613835 90.607392 
L 126.674495 89.546732 
L 125.613835 88.486072 
L 124.553174 89.546732 
L 123.492514 88.486072 
L 122.431854 89.546732 
L 123.492514 90.607392 
L 122.431854 91.668052 
z
" clip-path="url(#p48086f8257)" style="fill: #88ccee; fill-opacity: 0.6; stroke: #ffffff; stroke-opacity: 0.6; stroke-width: 0.339411"/>
    <path d="M 129.931363 107.558973 
L 130.992024 106.498313 
L 132.052684 107.558973 
L 133.113344 106.498313 
L 132.052684 105.437652 
L 133.113344 104.376992 
L 132.052684 103.316332 
L 130.992024 104.376992 
L 129.931363 103.316332 
L 128.870703 104.376992 
L 129.931363 105.437652 
L 128.870703 106.498313 
z
" clip-path="url(#p48086f8257)" style="fill: #88ccee; fill-opacity: 0.6; stroke: #ffffff; stroke-opacity: 0.6; stroke-width: 0.339411"/>
    <path d="M 146.382687 108.860805 
L 147.443348 107.800145 
L 148.504008 108.860805 
L 149.564668 107.800145 
L 148.504008 106.739485 
L 149.564668 105.678825 
L 148.504008 104.618164 
L 147.443348 105.678825 
L 146.382687 104.618164 
L 145.322027 105.678825 
L 146.382687 106.739485 
L 145.322027 107.800145 
z
" clip-path="url(#p48086f8257)" style="fill: #88ccee; fill-opacity: 0.6; stroke: #ffffff; stroke-opacity: 0.6; stroke-width: 0.339411"/>
    <path d="M 88.265421 135.98484 
L 89.326081 134.92418 
L 90.386741 135.98484 
L 91.447401 134.92418 
L 90.386741 133.863519 
L 91.447401 132.802859 
L 90.386741 131.742199 
L 89.326081 132.802859 
L 88.265421 131.742199 
L 87.204761 132.802859 
L 88.265421 133.863519 
L 87.204761 134.92418 
z
" clip-path="url(#p48086f8257)" style="fill: #88ccee; fill-opacity: 0.6; stroke: #ffffff; stroke-opacity: 0.6; stroke-width: 0.339411"/>
    <path d="M 103.550758 111.850829 
L 104.611418 110.790169 
L 105.672079 111.850829 
L 106.732739 110.790169 
L 105.672079 109.729509 
L 106.732739 108.668849 
L 105.672079 107.608188 
L 104.611418 108.668849 
L 103.550758 107.608188 
L 102.490098 108.668849 
L 103.550758 109.729509 
L 102.490098 110.790169 
z
" clip-path="url(#p48086f8257)" style="fill: #88ccee; fill-opacity: 0.6; stroke: #ffffff; stroke-opacity: 0.6; stroke-width: 0.339411"/>
    <path d="M 141.380306 82.394178 
L 142.440966 81.333518 
L 143.501626 82.394178 
L 144.562286 81.333518 
L 143.501626 80.272858 
L 144.562286 79.212198 
L 143.501626 78.151537 
L 142.440966 79.212198 
L 141.380306 78.151537 
L 140.319645 79.212198 
L 141.380306 80.272858 
L 140.319645 81.333518 
z
" clip-path="url(#p48086f8257)" style="fill: #88ccee; fill-opacity: 0.6; stroke: #ffffff; stroke-opacity: 0.6; stroke-width: 0.339411"/>
    <path d="M 120.59423 109.126782 
L 121.65489 108.066121 
L 122.71555 109.126782 
L 123.77621 108.066121 
L 122.71555 107.005461 
L 123.77621 105.944801 
L 122.71555 104.884141 
L 121.65489 105.944801 
L 120.59423 104.884141 
L 119.533569 105.944801 
L 120.59423 107.005461 
L 119.533569 108.066121 
z
" clip-path="url(#p48086f8257)" style="fill: #88ccee; fill-opacity: 0.6; stroke: #ffffff; stroke-opacity: 0.6; stroke-width: 0.339411"/>
    <path d="M 99.868651 126.39098 
L 100.929311 125.330319 
L 101.989971 126.39098 
L 103.050631 125.330319 
L 101.989971 124.269659 
L 103.050631 123.208999 
L 101.989971 122.148339 
L 100.929311 123.208999 
L 99.868651 122.148339 
L 98.80799 123.208999 
L 99.868651 124.269659 
L 98.80799 125.330319 
z
" clip-path="url(#p48086f8257)" style="fill: #88ccee; fill-opacity: 0.6; stroke: #ffffff; stroke-opacity: 0.6; stroke-width: 0.339411"/>
    <path d="M 89.692711 136.583063 
L 90.753371 135.522403 
L 91.814031 136.583063 
L 92.874691 135.522403 
L 91.814031 134.461742 
L 92.874691 133.401082 
L 91.814031 132.340422 
L 90.753371 133.401082 
L 89.692711 132.340422 
L 88.632051 133.401082 
L 89.692711 134.461742 
L 88.632051 135.522403 
z
" clip-path="url(#p48086f8257)" style="fill: #88ccee; fill-opacity: 0.6; stroke: #ffffff; stroke-opacity: 0.6; stroke-width: 0.339411"/>
    <path d="M 125.440176 90.787318 
L 126.500836 89.726658 
L 127.561497 90.787318 
L 128.622157 89.726658 
L 127.561497 88.665998 
L 128.622157 87.605337 
L 127.561497 86.544677 
L 126.500836 87.605337 
L 125.440176 86.544677 
L 124.379516 87.605337 
L 125.440176 88.665998 
L 124.379516 89.726658 
z
" clip-path="url(#p48086f8257)" style="fill: #88ccee; fill-opacity: 0.6; stroke: #ffffff; stroke-opacity: 0.6; stroke-width: 0.339411"/>
    <path d="M 119.233707 125.753285 
L 120.294367 124.692625 
L 121.355028 125.753285 
L 122.415688 124.692625 
L 121.355028 123.631965 
L 122.415688 122.571305 
L 121.355028 121.510645 
L 120.294367 122.571305 
L 119.233707 121.510645 
L 118.173047 122.571305 
L 119.233707 123.631965 
L 118.173047 124.692625 
z
" clip-path="url(#p48086f8257)" style="fill: #88ccee; fill-opacity: 0.6; stroke: #ffffff; stroke-opacity: 0.6; stroke-width: 0.339411"/>
    <path d="M 90.760539 128.809064 
L 91.821199 127.748404 
L 92.881859 128.809064 
L 93.94252 127.748404 
L 92.881859 126.687744 
L 93.94252 125.627084 
L 92.881859 124.566424 
L 91.821199 125.627084 
L 90.760539 124.566424 
L 89.699879 125.627084 
L 90.760539 126.687744 
L 89.699879 127.748404 
z
" clip-path="url(#p48086f8257)" style="fill: #88ccee; fill-opacity: 0.6; stroke: #ffffff; stroke-opacity: 0.6; stroke-width: 0.339411"/>
    <path d="M 129.507386 93.846373 
L 130.568047 92.785713 
L 131.628707 93.846373 
L 132.689367 92.785713 
L 131.628707 91.725053 
L 132.689367 90.664393 
L 131.628707 89.603733 
L 130.568047 90.664393 
L 129.507386 89.603733 
L 128.446726 90.664393 
L 129.507386 91.725053 
L 128.446726 92.785713 
z
" clip-path="url(#p48086f8257)" style="fill: #88ccee; fill-opacity: 0.6; stroke: #ffffff; stroke-opacity: 0.6; stroke-width: 0.339411"/>
    <path d="M 99.498007 127.061106 
L 100.558667 126.000446 
L 101.619327 127.061106 
L 102.679987 126.000446 
L 101.619327 124.939786 
L 102.679987 123.879125 
L 101.619327 122.818465 
L 100.558667 123.879125 
L 99.498007 122.818465 
L 98.437347 123.879125 
L 99.498007 124.939786 
L 98.437347 126.000446 
z
" clip-path="url(#p48086f8257)" style="fill: #88ccee; fill-opacity: 0.6; stroke: #ffffff; stroke-opacity: 0.6; stroke-width: 0.339411"/>
    <path d="M 136.618573 95.298821 
L 137.679234 94.238161 
L 138.739894 95.298821 
L 139.800554 94.238161 
L 138.739894 93.177501 
L 139.800554 92.116841 
L 138.739894 91.05618 
L 137.679234 92.116841 
L 136.618573 91.05618 
L 135.557913 92.116841 
L 136.618573 93.177501 
L 135.557913 94.238161 
z
" clip-path="url(#p48086f8257)" style="fill: #88ccee; fill-opacity: 0.6; stroke: #ffffff; stroke-opacity: 0.6; stroke-width: 0.339411"/>
    <path d="M 142.234446 115.865046 
L 143.295106 114.804386 
L 144.355766 115.865046 
L 145.416427 114.804386 
L 144.355766 113.743726 
L 145.416427 112.683066 
L 144.355766 111.622406 
L 143.295106 112.683066 
L 142.234446 111.622406 
L 141.173786 112.683066 
L 142.234446 113.743726 
L 141.173786 114.804386 
z
" clip-path="url(#p48086f8257)" style="fill: #88ccee; fill-opacity: 0.6; stroke: #ffffff; stroke-opacity: 0.6; stroke-width: 0.339411"/>
    <path d="M 116.5343 110.354193 
L 117.59496 109.293533 
L 118.65562 110.354193 
L 119.71628 109.293533 
L 118.65562 108.232873 
L 119.71628 107.172213 
L 118.65562 106.111553 
L 117.59496 107.172213 
L 116.5343 106.111553 
L 115.47364 107.172213 
L 116.5343 108.232873 
L 115.47364 109.293533 
z
" clip-path="url(#p48086f8257)" style="fill: #88ccee; fill-opacity: 0.6; stroke: #ffffff; stroke-opacity: 0.6; stroke-width: 0.339411"/>
    <path d="M 98.28464 116.289431 
L 99.3453 115.228771 
L 100.405961 116.289431 
L 101.466621 115.228771 
L 100.405961 114.168111 
L 101.466621 113.10745 
L 100.405961 112.04679 
L 99.3453 113.10745 
L 98.28464 112.04679 
L 97.22398 113.10745 
L 98.28464 114.168111 
L 97.22398 115.228771 
z
" clip-path="url(#p48086f8257)" style="fill: #88ccee; fill-opacity: 0.6; stroke: #ffffff; stroke-opacity: 0.6; stroke-width: 0.339411"/>
   </g>
   <g id="matplotlib.axis_1">
    <g id="xtick_1">
     <g id="line2d_1">
      <defs>
       <path id="me901970f9d" d="M 0 0 
L 0 8 
" style="stroke: #000000"/>
      </defs>
      <g>
       <use xlink:href="#me901970f9d" x="61.149104" y="188.936063" style="stroke: #000000"/>
      </g>
     </g>
     <g id="text_1">
      <!-- 0 -->
      <g transform="translate(57.331604 209.554188) scale(0.12 -0.12)">
       <defs>
        <path id="DejaVuSans-30" d="M 2034 4250 
Q 1547 4250 1301 3770 
Q 1056 3291 1056 2328 
Q 1056 1369 1301 889 
Q 1547 409 2034 409 
Q 2525 409 2770 889 
Q 3016 1369 3016 2328 
Q 3016 3291 2770 3770 
Q 2525 4250 2034 4250 
z
M 2034 4750 
Q 2819 4750 3233 4129 
Q 3647 3509 3647 2328 
Q 3647 1150 3233 529 
Q 2819 -91 2034 -91 
Q 1250 -91 836 529 
Q 422 1150 422 2328 
Q 422 3509 836 4129 
Q 1250 4750 2034 4750 
z
" transform="scale(0.015625)"/>
       </defs>
       <use xlink:href="#DejaVuSans-30"/>
      </g>
     </g>
    </g>
    <g id="xtick_2">
     <g id="line2d_2">
      <g>
       <use xlink:href="#me901970f9d" x="183.193807" y="188.936063" style="stroke: #000000"/>
      </g>
     </g>
     <g id="text_2">
      <!-- 10 -->
      <g transform="translate(175.558807 209.554188) scale(0.12 -0.12)">
       <defs>
        <path id="DejaVuSans-31" d="M 794 531 
L 1825 531 
L 1825 4091 
L 703 3866 
L 703 4441 
L 1819 4666 
L 2450 4666 
L 2450 531 
L 3481 531 
L 3481 0 
L 794 0 
L 794 531 
z
" transform="scale(0.015625)"/>
       </defs>
       <use xlink:href="#DejaVuSans-31"/>
       <use xlink:href="#DejaVuSans-30" x="63.623047"/>
      </g>
     </g>
    </g>
    <g id="text_3">
     <!-- UMAP 1 -->
     <g transform="translate(117.956572 225.167938) scale(0.12 -0.12)">
      <defs>
       <path id="DejaVuSans-55" d="M 556 4666 
L 1191 4666 
L 1191 1831 
Q 1191 1081 1462 751 
Q 1734 422 2344 422 
Q 2950 422 3222 751 
Q 3494 1081 3494 1831 
L 3494 4666 
L 4128 4666 
L 4128 1753 
Q 4128 841 3676 375 
Q 3225 -91 2344 -91 
Q 1459 -91 1007 375 
Q 556 841 556 1753 
L 556 4666 
z
" transform="scale(0.015625)"/>
       <path id="DejaVuSans-4d" d="M 628 4666 
L 1569 4666 
L 2759 1491 
L 3956 4666 
L 4897 4666 
L 4897 0 
L 4281 0 
L 4281 4097 
L 3078 897 
L 2444 897 
L 1241 4097 
L 1241 0 
L 628 0 
L 628 4666 
z
" transform="scale(0.015625)"/>
       <path id="DejaVuSans-41" d="M 2188 4044 
L 1331 1722 
L 3047 1722 
L 2188 4044 
z
M 1831 4666 
L 2547 4666 
L 4325 0 
L 3669 0 
L 3244 1197 
L 1141 1197 
L 716 0 
L 50 0 
L 1831 4666 
z
" transform="scale(0.015625)"/>
       <path id="DejaVuSans-50" d="M 1259 4147 
L 1259 2394 
L 2053 2394 
Q 2494 2394 2734 2622 
Q 2975 2850 2975 3272 
Q 2975 3691 2734 3919 
Q 2494 4147 2053 4147 
L 1259 4147 
z
M 628 4666 
L 2053 4666 
Q 2838 4666 3239 4311 
Q 3641 3956 3641 3272 
Q 3641 2581 3239 2228 
Q 2838 1875 2053 1875 
L 1259 1875 
L 1259 0 
L 628 0 
L 628 4666 
z
" transform="scale(0.015625)"/>
       <path id="DejaVuSans-20" transform="scale(0.015625)"/>
      </defs>
      <use xlink:href="#DejaVuSans-55"/>
      <use xlink:href="#DejaVuSans-4d" x="73.193359"/>
      <use xlink:href="#DejaVuSans-41" x="159.472656"/>
      <use xlink:href="#DejaVuSans-50" x="227.880859"/>
      <use xlink:href="#DejaVuSans-20" x="288.183594"/>
      <use xlink:href="#DejaVuSans-31" x="319.970703"/>
     </g>
    </g>
   </g>
   <g id="matplotlib.axis_2">
    <g id="ytick_1">
     <g id="line2d_3">
      <defs>
       <path id="m91fc1863f4" d="M 0 0 
L -8 0 
" style="stroke: #000000"/>
      </defs>
      <g>
       <use xlink:href="#m91fc1863f4" x="53.957638" y="181.744596" style="stroke: #000000"/>
      </g>
     </g>
     <g id="text_4">
      <!-- 0 -->
      <g transform="translate(34.822638 186.303659) scale(0.12 -0.12)">
       <use xlink:href="#DejaVuSans-30"/>
      </g>
     </g>
    </g>
    <g id="ytick_2">
     <g id="line2d_4">
      <g>
       <use xlink:href="#m91fc1863f4" x="53.957638" y="59.699893" style="stroke: #000000"/>
      </g>
     </g>
     <g id="text_5">
      <!-- 10 -->
      <g transform="translate(27.187638 64.258956) scale(0.12 -0.12)">
       <use xlink:href="#DejaVuSans-31"/>
       <use xlink:href="#DejaVuSans-30" x="63.623047"/>
      </g>
     </g>
    </g>
    <g id="text_6">
     <!-- UMAP 2 -->
     <g transform="translate(20.692013 124.937128) rotate(-90) scale(0.12 -0.12)">
      <defs>
       <path id="DejaVuSans-32" d="M 1228 531 
L 3431 531 
L 3431 0 
L 469 0 
L 469 531 
Q 828 903 1448 1529 
Q 2069 2156 2228 2338 
Q 2531 2678 2651 2914 
Q 2772 3150 2772 3378 
Q 2772 3750 2511 3984 
Q 2250 4219 1831 4219 
Q 1534 4219 1204 4116 
Q 875 4013 500 3803 
L 500 4441 
Q 881 4594 1212 4672 
Q 1544 4750 1819 4750 
Q 2544 4750 2975 4387 
Q 3406 4025 3406 3419 
Q 3406 3131 3298 2873 
Q 3191 2616 2906 2266 
Q 2828 2175 2409 1742 
Q 1991 1309 1228 531 
z
" transform="scale(0.015625)"/>
      </defs>
      <use xlink:href="#DejaVuSans-55"/>
      <use xlink:href="#DejaVuSans-4d" x="73.193359"/>
      <use xlink:href="#DejaVuSans-41" x="159.472656"/>
      <use xlink:href="#DejaVuSans-50" x="227.880859"/>
      <use xlink:href="#DejaVuSans-20" x="288.183594"/>
      <use xlink:href="#DejaVuSans-32" x="319.970703"/>
     </g>
    </g>
   </g>
   <g id="patch_3">
    <path d="M 53.957638 188.936063 
L 53.957638 14.908819 
" style="fill: none; stroke: #000000; stroke-width: 2; stroke-linejoin: miter; stroke-linecap: square"/>
   </g>
   <g id="patch_4">
    <path d="M 53.957638 188.936063 
L 227.984882 188.936063 
" style="fill: none; stroke: #000000; stroke-width: 2; stroke-linejoin: miter; stroke-linecap: square"/>
   </g>
  </g>
 </g>
 <defs>
  <clipPath id="p48086f8257">
   <rect x="53.957638" y="14.908819" width="174.027244" height="174.027244"/>
  </clipPath>
 </defs>
</svg>
