<?xml version="1.0" encoding="utf-8" standalone="no"?>
<!DOCTYPE svg PUBLIC "-//W3C//DTD SVG 1.1//EN"
  "http://www.w3.org/Graphics/SVG/1.1/DTD/svg11.dtd">
<svg xmlns:xlink="http://www.w3.org/1999/xlink" width="240.944882pt" height="240.944882pt" viewBox="0 0 240.944882 240.944882" xmlns="http://www.w3.org/2000/svg" version="1.1">
 <metadata>
  <rdf:RDF xmlns:dc="http://purl.org/dc/elements/1.1/" xmlns:cc="http://creativecommons.org/ns#" xmlns:rdf="http://www.w3.org/1999/02/22-rdf-syntax-ns#">
   <cc:Work>
    <dc:type rdf:resource="http://purl.org/dc/dcmitype/StillImage"/>
    <dc:date>2025-02-17T14:56:21.293386</dc:date>
    <dc:format>image/svg+xml</dc:format>
    <dc:creator>
     <cc:Agent>
      <dc:title>Matplotlib v3.6.2, https://matplotlib.org/</dc:title>
     </cc:Agent>
    </dc:creator>
   </cc:Work>
  </rdf:RDF>
 </metadata>
 <defs>
  <style type="text/css">*{stroke-linejoin: round; stroke-linecap: butt}</style>
 </defs>
 <g id="figure_1">
  <g id="patch_1">
   <path d="M 0 240.944882 
L 240.944882 240.944882 
L 240.944882 0 
L 0 0 
L 0 240.944882 
z
" style="fill: none"/>
  </g>
  <g id="axes_1">
   <g id="patch_2">
    <path d="M 53.957638 188.936063 
L 227.984882 188.936063 
L 227.984882 14.908819 
L 53.957638 14.908819 
L 53.957638 188.936063 
z
" style="fill: none"/>
   </g>
   <g id="PathCollection_1">
    <path d="M 189.89737 91.310676 
L 187.77605 95.553316 
L 192.01869 95.553316 
z
" clip-path="url(#p7aa47249f3)" style="fill: #882e72; fill-opacity: 0.6; stroke: #ffffff; stroke-opacity: 0.6; stroke-width: 0.339411"/>
    <path d="M 172.119129 117.212444 
L 169.997808 121.455085 
L 174.240449 121.455085 
z
" clip-path="url(#p7aa47249f3)" style="fill: #882e72; fill-opacity: 0.6; stroke: #ffffff; stroke-opacity: 0.6; stroke-width: 0.339411"/>
    <path d="M 183.393271 109.246322 
L 181.27195 113.488963 
L 185.514591 113.488963 
z
" clip-path="url(#p7aa47249f3)" style="fill: #882e72; fill-opacity: 0.6; stroke: #ffffff; stroke-opacity: 0.6; stroke-width: 0.339411"/>
    <path d="M 68.806199 119.952414 
L 66.684879 124.195055 
L 70.92752 124.195055 
z
" clip-path="url(#p7aa47249f3)" style="fill: #882e72; fill-opacity: 0.6; stroke: #ffffff; stroke-opacity: 0.6; stroke-width: 0.339411"/>
    <path d="M 88.953098 77.801879 
L 86.831778 82.04452 
L 91.074418 82.04452 
z
" clip-path="url(#p7aa47249f3)" style="fill: #882e72; fill-opacity: 0.6; stroke: #ffffff; stroke-opacity: 0.6; stroke-width: 0.339411"/>
    <path d="M 201.50699 84.962655 
L 199.38567 89.205295 
L 203.628311 89.205295 
z
" clip-path="url(#p7aa47249f3)" style="fill: #882e72; fill-opacity: 0.6; stroke: #ffffff; stroke-opacity: 0.6; stroke-width: 0.339411"/>
    <path d="M 78.633425 109.834941 
L 76.512104 114.077582 
L 80.754745 114.077582 
z
" clip-path="url(#p7aa47249f3)" style="fill: #882e72; fill-opacity: 0.6; stroke: #ffffff; stroke-opacity: 0.6; stroke-width: 0.339411"/>
    <path d="M 76.158113 141.868209 
L 74.036792 146.11085 
L 78.279433 146.11085 
z
" clip-path="url(#p7aa47249f3)" style="fill: #882e72; fill-opacity: 0.6; stroke: #ffffff; stroke-opacity: 0.6; stroke-width: 0.339411"/>
    <path d="M 192.652377 95.904256 
L 190.531056 100.146897 
L 194.773697 100.146897 
z
" clip-path="url(#p7aa47249f3)" style="fill: #882e72; fill-opacity: 0.6; stroke: #ffffff; stroke-opacity: 0.6; stroke-width: 0.339411"/>
    <path d="M 175.368469 110.278155 
L 173.247149 114.520796 
L 177.489789 114.520796 
z
" clip-path="url(#p7aa47249f3)" style="fill: #882e72; fill-opacity: 0.6; stroke: #ffffff; stroke-opacity: 0.6; stroke-width: 0.339411"/>
    <path d="M 75.970318 123.595141 
L 73.848998 127.837782 
L 78.091639 127.837782 
z
" clip-path="url(#p7aa47249f3)" style="fill: #882e72; fill-opacity: 0.6; stroke: #ffffff; stroke-opacity: 0.6; stroke-width: 0.339411"/>
    <path d="M 161.064617 72.083004 
L 158.943297 76.325645 
L 163.185937 76.325645 
z
" clip-path="url(#p7aa47249f3)" style="fill: #882e72; fill-opacity: 0.6; stroke: #ffffff; stroke-opacity: 0.6; stroke-width: 0.339411"/>
    <path d="M 200.564916 94.001056 
L 198.443596 98.243697 
L 202.686236 98.243697 
z
" clip-path="url(#p7aa47249f3)" style="fill: #882e72; fill-opacity: 0.6; stroke: #ffffff; stroke-opacity: 0.6; stroke-width: 0.339411"/>
    <path d="M 71.180671 116.955727 
L 69.05935 121.198368 
L 73.301991 121.198368 
z
" clip-path="url(#p7aa47249f3)" style="fill: #882e72; fill-opacity: 0.6; stroke: #ffffff; stroke-opacity: 0.6; stroke-width: 0.339411"/>
    <path d="M 194.042093 80.940371 
L 191.920772 85.183011 
L 196.163413 85.183011 
z
" clip-path="url(#p7aa47249f3)" style="fill: #882e72; fill-opacity: 0.6; stroke: #ffffff; stroke-opacity: 0.6; stroke-width: 0.339411"/>
    <path d="M 103.095329 76.217014 
L 100.974009 80.459654 
L 105.216649 80.459654 
z
" clip-path="url(#p7aa47249f3)" style="fill: #882e72; fill-opacity: 0.6; stroke: #ffffff; stroke-opacity: 0.6; stroke-width: 0.339411"/>
    <path d="M 194.269604 84.619456 
L 192.148284 88.862097 
L 196.390925 88.862097 
z
" clip-path="url(#p7aa47249f3)" style="fill: #882e72; fill-opacity: 0.6; stroke: #ffffff; stroke-opacity: 0.6; stroke-width: 0.339411"/>
    <path d="M 75.476473 125.595465 
L 73.355152 129.838106 
L 77.597793 129.838106 
z
" clip-path="url(#p7aa47249f3)" style="fill: #882e72; fill-opacity: 0.6; stroke: #ffffff; stroke-opacity: 0.6; stroke-width: 0.339411"/>
    <path d="M 68.065084 144.618821 
L 65.943764 148.861462 
L 70.186405 148.861462 
z
" clip-path="url(#p7aa47249f3)" style="fill: #882e72; fill-opacity: 0.6; stroke: #ffffff; stroke-opacity: 0.6; stroke-width: 0.339411"/>
    <path d="M 74.441383 111.813946 
L 72.320062 116.056587 
L 76.562703 116.056587 
z
" clip-path="url(#p7aa47249f3)" style="fill: #882e72; fill-opacity: 0.6; stroke: #ffffff; stroke-opacity: 0.6; stroke-width: 0.339411"/>
    <path d="M 76.480117 140.855788 
L 74.358797 145.098428 
L 78.601438 145.098428 
z
" clip-path="url(#p7aa47249f3)" style="fill: #882e72; fill-opacity: 0.6; stroke: #ffffff; stroke-opacity: 0.6; stroke-width: 0.339411"/>
    <path d="M 179.250486 116.488689 
L 177.129165 120.731329 
L 181.371806 120.731329 
z
" clip-path="url(#p7aa47249f3)" style="fill: #882e72; fill-opacity: 0.6; stroke: #ffffff; stroke-opacity: 0.6; stroke-width: 0.339411"/>
    <path d="M 192.43195 81.942128 
L 190.310629 86.184768 
L 194.55327 86.184768 
z
" clip-path="url(#p7aa47249f3)" style="fill: #882e72; fill-opacity: 0.6; stroke: #ffffff; stroke-opacity: 0.6; stroke-width: 0.339411"/>
    <path d="M 171.150302 114.590213 
L 169.028981 118.832854 
L 173.271622 118.832854 
z
" clip-path="url(#p7aa47249f3)" style="fill: #882e72; fill-opacity: 0.6; stroke: #ffffff; stroke-opacity: 0.6; stroke-width: 0.339411"/>
    <path d="M 99.156987 68.886972 
L 97.035667 73.129612 
L 101.278307 73.129612 
z
" clip-path="url(#p7aa47249f3)" style="fill: #882e72; fill-opacity: 0.6; stroke: #ffffff; stroke-opacity: 0.6; stroke-width: 0.339411"/>
    <path d="M 77.876409 80.049746 
L 75.755089 84.292387 
L 79.99773 84.292387 
z
" clip-path="url(#p7aa47249f3)" style="fill: #882e72; fill-opacity: 0.6; stroke: #ffffff; stroke-opacity: 0.6; stroke-width: 0.339411"/>
    <path d="M 122.541264 77.768721 
L 120.419943 82.011361 
L 124.662584 82.011361 
z
" clip-path="url(#p7aa47249f3)" style="fill: #882e72; fill-opacity: 0.6; stroke: #ffffff; stroke-opacity: 0.6; stroke-width: 0.339411"/>
    <path d="M 200.384862 88.390235 
L 198.263542 92.632875 
L 202.506182 92.632875 
z
" clip-path="url(#p7aa47249f3)" style="fill: #882e72; fill-opacity: 0.6; stroke: #ffffff; stroke-opacity: 0.6; stroke-width: 0.339411"/>
    <path d="M 182.032862 114.181315 
L 179.911542 118.423955 
L 184.154182 118.423955 
z
" clip-path="url(#p7aa47249f3)" style="fill: #882e72; fill-opacity: 0.6; stroke: #ffffff; stroke-opacity: 0.6; stroke-width: 0.339411"/>
    <path d="M 72.804395 142.026441 
L 70.683074 146.269082 
L 74.925715 146.269082 
z
" clip-path="url(#p7aa47249f3)" style="fill: #882e72; fill-opacity: 0.6; stroke: #ffffff; stroke-opacity: 0.6; stroke-width: 0.339411"/>
    <path d="M 109.085051 65.072049 
L 106.963731 69.31469 
L 111.206372 69.31469 
z
" clip-path="url(#p7aa47249f3)" style="fill: #882e72; fill-opacity: 0.6; stroke: #ffffff; stroke-opacity: 0.6; stroke-width: 0.339411"/>
    <path d="M 110.252305 78.849174 
L 108.130984 83.091815 
L 112.373625 83.091815 
z
" clip-path="url(#p7aa47249f3)" style="fill: #882e72; fill-opacity: 0.6; stroke: #ffffff; stroke-opacity: 0.6; stroke-width: 0.339411"/>
    <path d="M 96.454054 74.303471 
L 94.332733 78.546112 
L 98.575374 78.546112 
z
" clip-path="url(#p7aa47249f3)" style="fill: #882e72; fill-opacity: 0.6; stroke: #ffffff; stroke-opacity: 0.6; stroke-width: 0.339411"/>
    <path d="M 67.212292 127.647273 
L 65.090971 131.889914 
L 69.333612 131.889914 
z
" clip-path="url(#p7aa47249f3)" style="fill: #882e72; fill-opacity: 0.6; stroke: #ffffff; stroke-opacity: 0.6; stroke-width: 0.339411"/>
    <path d="M 113.45638 72.828918 
L 111.33506 77.071558 
L 115.5777 77.071558 
z
" clip-path="url(#p7aa47249f3)" style="fill: #882e72; fill-opacity: 0.6; stroke: #ffffff; stroke-opacity: 0.6; stroke-width: 0.339411"/>
    <path d="M 190.557157 92.955612 
L 188.435836 97.198253 
L 192.678477 97.198253 
z
" clip-path="url(#p7aa47249f3)" style="fill: #882e72; fill-opacity: 0.6; stroke: #ffffff; stroke-opacity: 0.6; stroke-width: 0.339411"/>
    <path d="M 69.328571 84.763297 
L 67.207251 89.005937 
L 71.449891 89.005937 
z
" clip-path="url(#p7aa47249f3)" style="fill: #882e72; fill-opacity: 0.6; stroke: #ffffff; stroke-opacity: 0.6; stroke-width: 0.339411"/>
    <path d="M 68.753257 130.276336 
L 66.631937 134.518976 
L 70.874578 134.518976 
z
" clip-path="url(#p7aa47249f3)" style="fill: #882e72; fill-opacity: 0.6; stroke: #ffffff; stroke-opacity: 0.6; stroke-width: 0.339411"/>
    <path d="M 103.568182 62.021567 
L 101.446862 66.264208 
L 105.689502 66.264208 
z
" clip-path="url(#p7aa47249f3)" style="fill: #882e72; fill-opacity: 0.6; stroke: #ffffff; stroke-opacity: 0.6; stroke-width: 0.339411"/>
    <path d="M 74.385944 121.030979 
L 72.264623 125.27362 
L 76.507264 125.27362 
z
" clip-path="url(#p7aa47249f3)" style="fill: #882e72; fill-opacity: 0.6; stroke: #ffffff; stroke-opacity: 0.6; stroke-width: 0.339411"/>
    <path d="M 107.313671 66.499127 
L 105.19235 70.741767 
L 109.434991 70.741767 
z
" clip-path="url(#p7aa47249f3)" style="fill: #882e72; fill-opacity: 0.6; stroke: #ffffff; stroke-opacity: 0.6; stroke-width: 0.339411"/>
    <path d="M 113.441621 76.531806 
L 111.320301 80.774447 
L 115.562942 80.774447 
z
" clip-path="url(#p7aa47249f3)" style="fill: #882e72; fill-opacity: 0.6; stroke: #ffffff; stroke-opacity: 0.6; stroke-width: 0.339411"/>
    <path d="M 180.350453 112.250409 
L 178.229133 116.49305 
L 182.471773 116.49305 
z
" clip-path="url(#p7aa47249f3)" style="fill: #882e72; fill-opacity: 0.6; stroke: #ffffff; stroke-opacity: 0.6; stroke-width: 0.339411"/>
    <path d="M 69.008055 120.577817 
L 66.886735 124.820458 
L 71.129375 124.820458 
z
" clip-path="url(#p7aa47249f3)" style="fill: #882e72; fill-opacity: 0.6; stroke: #ffffff; stroke-opacity: 0.6; stroke-width: 0.339411"/>
    <path d="M 67.075221 121.841858 
L 64.9539 126.084499 
L 69.196541 126.084499 
z
" clip-path="url(#p7aa47249f3)" style="fill: #882e72; fill-opacity: 0.6; stroke: #ffffff; stroke-opacity: 0.6; stroke-width: 0.339411"/>
    <path d="M 94.418341 72.626814 
L 92.297021 76.869454 
L 96.539662 76.869454 
z
" clip-path="url(#p7aa47249f3)" style="fill: #882e72; fill-opacity: 0.6; stroke: #ffffff; stroke-opacity: 0.6; stroke-width: 0.339411"/>
    <path d="M 197.436212 92.026016 
L 195.314892 96.268657 
L 199.557532 96.268657 
z
" clip-path="url(#p7aa47249f3)" style="fill: #882e72; fill-opacity: 0.6; stroke: #ffffff; stroke-opacity: 0.6; stroke-width: 0.339411"/>
    <path d="M 110.495938 69.38602 
L 108.374618 73.628661 
L 112.617259 73.628661 
z
" clip-path="url(#p7aa47249f3)" style="fill: #882e72; fill-opacity: 0.6; stroke: #ffffff; stroke-opacity: 0.6; stroke-width: 0.339411"/>
    <path d="M 197.813489 87.923375 
L 195.692168 92.166016 
L 199.934809 92.166016 
z
" clip-path="url(#p7aa47249f3)" style="fill: #882e72; fill-opacity: 0.6; stroke: #ffffff; stroke-opacity: 0.6; stroke-width: 0.339411"/>
    <path d="M 189.114046 94.756609 
L 186.992726 98.99925 
L 191.235367 98.99925 
z
" clip-path="url(#p7aa47249f3)" style="fill: #882e72; fill-opacity: 0.6; stroke: #ffffff; stroke-opacity: 0.6; stroke-width: 0.339411"/>
    <path d="M 69.744559 144.55434 
L 67.623238 148.79698 
L 71.865879 148.79698 
z
" clip-path="url(#p7aa47249f3)" style="fill: #882e72; fill-opacity: 0.6; stroke: #ffffff; stroke-opacity: 0.6; stroke-width: 0.339411"/>
    <path d="M 195.618763 89.860357 
L 193.497442 94.102998 
L 197.740083 94.102998 
z
" clip-path="url(#p7aa47249f3)" style="fill: #882e72; fill-opacity: 0.6; stroke: #ffffff; stroke-opacity: 0.6; stroke-width: 0.339411"/>
    <path d="M 68.273003 140.992636 
L 66.151683 145.235277 
L 70.394323 145.235277 
z
" clip-path="url(#p7aa47249f3)" style="fill: #882e72; fill-opacity: 0.6; stroke: #ffffff; stroke-opacity: 0.6; stroke-width: 0.339411"/>
    <path d="M 77.901666 121.142341 
L 75.780346 125.384981 
L 80.022986 125.384981 
z
" clip-path="url(#p7aa47249f3)" style="fill: #882e72; fill-opacity: 0.6; stroke: #ffffff; stroke-opacity: 0.6; stroke-width: 0.339411"/>
    <path d="M 67.656966 117.588079 
L 65.535646 121.83072 
L 69.778287 121.83072 
z
" clip-path="url(#p7aa47249f3)" style="fill: #882e72; fill-opacity: 0.6; stroke: #ffffff; stroke-opacity: 0.6; stroke-width: 0.339411"/>
    <path d="M 100.126553 65.831268 
L 98.005233 70.073909 
L 102.247873 70.073909 
z
" clip-path="url(#p7aa47249f3)" style="fill: #882e72; fill-opacity: 0.6; stroke: #ffffff; stroke-opacity: 0.6; stroke-width: 0.339411"/>
    <path d="M 87.335658 106.890627 
L 85.214337 111.133268 
L 89.456978 111.133268 
z
" clip-path="url(#p7aa47249f3)" style="fill: #882e72; fill-opacity: 0.6; stroke: #ffffff; stroke-opacity: 0.6; stroke-width: 0.339411"/>
    <path d="M 101.612557 73.216062 
L 99.491237 77.458703 
L 103.733877 77.458703 
z
" clip-path="url(#p7aa47249f3)" style="fill: #882e72; fill-opacity: 0.6; stroke: #ffffff; stroke-opacity: 0.6; stroke-width: 0.339411"/>
    <path d="M 72.869869 147.091951 
L 70.748549 151.334592 
L 74.991189 151.334592 
z
" clip-path="url(#p7aa47249f3)" style="fill: #882e72; fill-opacity: 0.6; stroke: #ffffff; stroke-opacity: 0.6; stroke-width: 0.339411"/>
    <path d="M 187.198393 90.251575 
L 185.077072 94.494215 
L 189.319713 94.494215 
z
" clip-path="url(#p7aa47249f3)" style="fill: #882e72; fill-opacity: 0.6; stroke: #ffffff; stroke-opacity: 0.6; stroke-width: 0.339411"/>
    <path d="M 190.034311 83.416539 
L 187.912991 87.65918 
L 192.155632 87.65918 
z
" clip-path="url(#p7aa47249f3)" style="fill: #882e72; fill-opacity: 0.6; stroke: #ffffff; stroke-opacity: 0.6; stroke-width: 0.339411"/>
    <path d="M 199.251341 91.254381 
L 197.130021 95.497022 
L 201.372662 95.497022 
z
" clip-path="url(#p7aa47249f3)" style="fill: #882e72; fill-opacity: 0.6; stroke: #ffffff; stroke-opacity: 0.6; stroke-width: 0.339411"/>
    <path d="M 189.418254 87.065441 
L 187.296934 91.308081 
L 191.539575 91.308081 
z
" clip-path="url(#p7aa47249f3)" style="fill: #882e72; fill-opacity: 0.6; stroke: #ffffff; stroke-opacity: 0.6; stroke-width: 0.339411"/>
    <path d="M 102.714775 92.572868 
L 100.593455 96.815509 
L 104.836096 96.815509 
z
" clip-path="url(#p7aa47249f3)" style="fill: #882e72; fill-opacity: 0.6; stroke: #ffffff; stroke-opacity: 0.6; stroke-width: 0.339411"/>
    <path d="M 160.866319 102.04116 
L 165.108959 102.04116 
L 165.108959 97.79852 
L 160.866319 97.79852 
z
" clip-path="url(#p7aa47249f3)" style="fill: #1965b0; fill-opacity: 0.6; stroke: #ffffff; stroke-opacity: 0.6; stroke-width: 0.339411"/>
    <path d="M 140.105578 72.256687 
L 144.348219 72.256687 
L 144.348219 68.014047 
L 140.105578 68.014047 
z
" clip-path="url(#p7aa47249f3)" style="fill: #1965b0; fill-opacity: 0.6; stroke: #ffffff; stroke-opacity: 0.6; stroke-width: 0.339411"/>
    <path d="M 162.351814 119.798595 
L 166.594454 119.798595 
L 166.594454 115.555954 
L 162.351814 115.555954 
z
" clip-path="url(#p7aa47249f3)" style="fill: #1965b0; fill-opacity: 0.6; stroke: #ffffff; stroke-opacity: 0.6; stroke-width: 0.339411"/>
    <path d="M 103.715761 83.019111 
L 107.958401 83.019111 
L 107.958401 78.77647 
L 103.715761 78.77647 
z
" clip-path="url(#p7aa47249f3)" style="fill: #1965b0; fill-opacity: 0.6; stroke: #ffffff; stroke-opacity: 0.6; stroke-width: 0.339411"/>
    <path d="M 141.742653 112.857987 
L 145.985293 112.857987 
L 145.985293 108.615346 
L 141.742653 108.615346 
z
" clip-path="url(#p7aa47249f3)" style="fill: #1965b0; fill-opacity: 0.6; stroke: #ffffff; stroke-opacity: 0.6; stroke-width: 0.339411"/>
    <path d="M 130.255533 101.941407 
L 134.498173 101.941407 
L 134.498173 97.698767 
L 130.255533 97.698767 
z
" clip-path="url(#p7aa47249f3)" style="fill: #1965b0; fill-opacity: 0.6; stroke: #ffffff; stroke-opacity: 0.6; stroke-width: 0.339411"/>
    <path d="M 133.652225 92.536091 
L 137.894866 92.536091 
L 137.894866 88.29345 
L 133.652225 88.29345 
z
" clip-path="url(#p7aa47249f3)" style="fill: #1965b0; fill-opacity: 0.6; stroke: #ffffff; stroke-opacity: 0.6; stroke-width: 0.339411"/>
    <path d="M 129.852056 96.82753 
L 134.094696 96.82753 
L 134.094696 92.58489 
L 129.852056 92.58489 
z
" clip-path="url(#p7aa47249f3)" style="fill: #1965b0; fill-opacity: 0.6; stroke: #ffffff; stroke-opacity: 0.6; stroke-width: 0.339411"/>
    <path d="M 156.63608 89.349451 
L 160.878721 89.349451 
L 160.878721 85.10681 
L 156.63608 85.10681 
z
" clip-path="url(#p7aa47249f3)" style="fill: #1965b0; fill-opacity: 0.6; stroke: #ffffff; stroke-opacity: 0.6; stroke-width: 0.339411"/>
    <path d="M 178.329756 100.847926 
L 182.572396 100.847926 
L 182.572396 96.605285 
L 178.329756 96.605285 
z
" clip-path="url(#p7aa47249f3)" style="fill: #1965b0; fill-opacity: 0.6; stroke: #ffffff; stroke-opacity: 0.6; stroke-width: 0.339411"/>
    <path d="M 145.39472 117.994405 
L 149.637361 117.994405 
L 149.637361 113.751764 
L 145.39472 113.751764 
z
" clip-path="url(#p7aa47249f3)" style="fill: #1965b0; fill-opacity: 0.6; stroke: #ffffff; stroke-opacity: 0.6; stroke-width: 0.339411"/>
    <path d="M 167.90771 117.187371 
L 172.150351 117.187371 
L 172.150351 112.94473 
L 167.90771 112.94473 
z
" clip-path="url(#p7aa47249f3)" style="fill: #1965b0; fill-opacity: 0.6; stroke: #ffffff; stroke-opacity: 0.6; stroke-width: 0.339411"/>
    <path d="M 171.379792 97.169489 
L 175.622433 97.169489 
L 175.622433 92.926848 
L 171.379792 92.926848 
z
" clip-path="url(#p7aa47249f3)" style="fill: #1965b0; fill-opacity: 0.6; stroke: #ffffff; stroke-opacity: 0.6; stroke-width: 0.339411"/>
    <path d="M 162.905133 71.017452 
L 167.147774 71.017452 
L 167.147774 66.774811 
L 162.905133 66.774811 
z
" clip-path="url(#p7aa47249f3)" style="fill: #1965b0; fill-opacity: 0.6; stroke: #ffffff; stroke-opacity: 0.6; stroke-width: 0.339411"/>
    <path d="M 157.57107 103.291547 
L 161.813711 103.291547 
L 161.813711 99.048906 
L 157.57107 99.048906 
z
" clip-path="url(#p7aa47249f3)" style="fill: #1965b0; fill-opacity: 0.6; stroke: #ffffff; stroke-opacity: 0.6; stroke-width: 0.339411"/>
    <path d="M 87.204684 102.578804 
L 91.447325 102.578804 
L 91.447325 98.336164 
L 87.204684 98.336164 
z
" clip-path="url(#p7aa47249f3)" style="fill: #1965b0; fill-opacity: 0.6; stroke: #ffffff; stroke-opacity: 0.6; stroke-width: 0.339411"/>
    <path d="M 168.715485 99.522447 
L 172.958126 99.522447 
L 172.958126 95.279806 
L 168.715485 95.279806 
z
" clip-path="url(#p7aa47249f3)" style="fill: #1965b0; fill-opacity: 0.6; stroke: #ffffff; stroke-opacity: 0.6; stroke-width: 0.339411"/>
    <path d="M 116.1445 94.710859 
L 120.387141 94.710859 
L 120.387141 90.468218 
L 116.1445 90.468218 
z
" clip-path="url(#p7aa47249f3)" style="fill: #1965b0; fill-opacity: 0.6; stroke: #ffffff; stroke-opacity: 0.6; stroke-width: 0.339411"/>
    <path d="M 157.564417 97.906028 
L 161.807058 97.906028 
L 161.807058 93.663387 
L 157.564417 93.663387 
z
" clip-path="url(#p7aa47249f3)" style="fill: #1965b0; fill-opacity: 0.6; stroke: #ffffff; stroke-opacity: 0.6; stroke-width: 0.339411"/>
    <path d="M 144.98426 41.601887 
L 149.226901 41.601887 
L 149.226901 37.359247 
L 144.98426 37.359247 
z
" clip-path="url(#p7aa47249f3)" style="fill: #1965b0; fill-opacity: 0.6; stroke: #ffffff; stroke-opacity: 0.6; stroke-width: 0.339411"/>
    <path d="M 141.442289 94.383342 
L 145.68493 94.383342 
L 145.68493 90.140701 
L 141.442289 90.140701 
z
" clip-path="url(#p7aa47249f3)" style="fill: #1965b0; fill-opacity: 0.6; stroke: #ffffff; stroke-opacity: 0.6; stroke-width: 0.339411"/>
    <path d="M 160.66598 99.754068 
L 164.90862 99.754068 
L 164.90862 95.511428 
L 160.66598 95.511428 
z
" clip-path="url(#p7aa47249f3)" style="fill: #1965b0; fill-opacity: 0.6; stroke: #ffffff; stroke-opacity: 0.6; stroke-width: 0.339411"/>
    <path d="M 160.670355 91.910938 
L 164.912996 91.910938 
L 164.912996 87.668297 
L 160.670355 87.668297 
z
" clip-path="url(#p7aa47249f3)" style="fill: #1965b0; fill-opacity: 0.6; stroke: #ffffff; stroke-opacity: 0.6; stroke-width: 0.339411"/>
    <path d="M 142.758283 73.197743 
L 147.000924 73.197743 
L 147.000924 68.955103 
L 142.758283 68.955103 
z
" clip-path="url(#p7aa47249f3)" style="fill: #1965b0; fill-opacity: 0.6; stroke: #ffffff; stroke-opacity: 0.6; stroke-width: 0.339411"/>
    <path d="M 164.29438 88.940176 
L 168.537021 88.940176 
L 168.537021 84.697535 
L 164.29438 84.697535 
z
" clip-path="url(#p7aa47249f3)" style="fill: #1965b0; fill-opacity: 0.6; stroke: #ffffff; stroke-opacity: 0.6; stroke-width: 0.339411"/>
    <path d="M 138.787443 69.598083 
L 143.030083 69.598083 
L 143.030083 65.355442 
L 138.787443 65.355442 
z
" clip-path="url(#p7aa47249f3)" style="fill: #1965b0; fill-opacity: 0.6; stroke: #ffffff; stroke-opacity: 0.6; stroke-width: 0.339411"/>
    <path d="M 167.526558 95.753773 
L 171.769199 95.753773 
L 171.769199 91.511132 
L 167.526558 91.511132 
z
" clip-path="url(#p7aa47249f3)" style="fill: #1965b0; fill-opacity: 0.6; stroke: #ffffff; stroke-opacity: 0.6; stroke-width: 0.339411"/>
    <path d="M 135.974123 98.12933 
L 140.216764 98.12933 
L 140.216764 93.88669 
L 135.974123 93.88669 
z
" clip-path="url(#p7aa47249f3)" style="fill: #1965b0; fill-opacity: 0.6; stroke: #ffffff; stroke-opacity: 0.6; stroke-width: 0.339411"/>
    <path d="M 165.82629 107.013591 
L 170.06893 107.013591 
L 170.06893 102.77095 
L 165.82629 102.77095 
z
" clip-path="url(#p7aa47249f3)" style="fill: #1965b0; fill-opacity: 0.6; stroke: #ffffff; stroke-opacity: 0.6; stroke-width: 0.339411"/>
    <path d="M 159.982699 59.995019 
L 164.22534 59.995019 
L 164.22534 55.752378 
L 159.982699 55.752378 
z
" clip-path="url(#p7aa47249f3)" style="fill: #1965b0; fill-opacity: 0.6; stroke: #ffffff; stroke-opacity: 0.6; stroke-width: 0.339411"/>
    <path d="M 72.184003 89.839699 
L 76.426644 89.839699 
L 76.426644 85.597059 
L 72.184003 85.597059 
z
" clip-path="url(#p7aa47249f3)" style="fill: #1965b0; fill-opacity: 0.6; stroke: #ffffff; stroke-opacity: 0.6; stroke-width: 0.339411"/>
    <path d="M 126.373464 100.268169 
L 130.616104 100.268169 
L 130.616104 96.025528 
L 126.373464 96.025528 
z
" clip-path="url(#p7aa47249f3)" style="fill: #1965b0; fill-opacity: 0.6; stroke: #ffffff; stroke-opacity: 0.6; stroke-width: 0.339411"/>
    <path d="M 111.089195 128.681196 
L 115.331836 128.681196 
L 115.331836 124.438555 
L 111.089195 124.438555 
z
" clip-path="url(#p7aa47249f3)" style="fill: #1965b0; fill-opacity: 0.6; stroke: #ffffff; stroke-opacity: 0.6; stroke-width: 0.339411"/>
    <path d="M 76.955223 126.156256 
L 81.197864 126.156256 
L 81.197864 121.913615 
L 76.955223 121.913615 
z
" clip-path="url(#p7aa47249f3)" style="fill: #1965b0; fill-opacity: 0.6; stroke: #ffffff; stroke-opacity: 0.6; stroke-width: 0.339411"/>
    <path d="M 170.707095 105.014187 
L 174.949736 105.014187 
L 174.949736 100.771546 
L 170.707095 100.771546 
z
" clip-path="url(#p7aa47249f3)" style="fill: #1965b0; fill-opacity: 0.6; stroke: #ffffff; stroke-opacity: 0.6; stroke-width: 0.339411"/>
    <path d="M 134.116564 96.595205 
L 138.359204 96.595205 
L 138.359204 92.352565 
L 134.116564 92.352565 
z
" clip-path="url(#p7aa47249f3)" style="fill: #1965b0; fill-opacity: 0.6; stroke: #ffffff; stroke-opacity: 0.6; stroke-width: 0.339411"/>
    <path d="M 154.156357 115.038905 
L 158.398998 115.038905 
L 158.398998 110.796264 
L 154.156357 110.796264 
z
" clip-path="url(#p7aa47249f3)" style="fill: #1965b0; fill-opacity: 0.6; stroke: #ffffff; stroke-opacity: 0.6; stroke-width: 0.339411"/>
    <path d="M 161.353667 95.581112 
L 165.596307 95.581112 
L 165.596307 91.338471 
L 161.353667 91.338471 
z
" clip-path="url(#p7aa47249f3)" style="fill: #1965b0; fill-opacity: 0.6; stroke: #ffffff; stroke-opacity: 0.6; stroke-width: 0.339411"/>
    <path d="M 151.970536 93.21723 
L 156.213177 93.21723 
L 156.213177 88.97459 
L 151.970536 88.97459 
z
" clip-path="url(#p7aa47249f3)" style="fill: #1965b0; fill-opacity: 0.6; stroke: #ffffff; stroke-opacity: 0.6; stroke-width: 0.339411"/>
    <path d="M 108.485705 126.164787 
L 112.728345 126.164787 
L 112.728345 121.922147 
L 108.485705 121.922147 
z
" clip-path="url(#p7aa47249f3)" style="fill: #1965b0; fill-opacity: 0.6; stroke: #ffffff; stroke-opacity: 0.6; stroke-width: 0.339411"/>
    <path d="M 176.162399 93.692686 
L 180.40504 93.692686 
L 180.40504 89.450045 
L 176.162399 89.450045 
z
" clip-path="url(#p7aa47249f3)" style="fill: #1965b0; fill-opacity: 0.6; stroke: #ffffff; stroke-opacity: 0.6; stroke-width: 0.339411"/>
    <path d="M 177.141366 89.455005 
L 181.384007 89.455005 
L 181.384007 85.212364 
L 177.141366 85.212364 
z
" clip-path="url(#p7aa47249f3)" style="fill: #1965b0; fill-opacity: 0.6; stroke: #ffffff; stroke-opacity: 0.6; stroke-width: 0.339411"/>
    <path d="M 178.839493 86.32466 
L 183.082134 86.32466 
L 183.082134 82.082019 
L 178.839493 82.082019 
z
" clip-path="url(#p7aa47249f3)" style="fill: #1965b0; fill-opacity: 0.6; stroke: #ffffff; stroke-opacity: 0.6; stroke-width: 0.339411"/>
    <path d="M 168.790577 86.220272 
L 173.033218 86.220272 
L 173.033218 81.977631 
L 168.790577 81.977631 
z
" clip-path="url(#p7aa47249f3)" style="fill: #1965b0; fill-opacity: 0.6; stroke: #ffffff; stroke-opacity: 0.6; stroke-width: 0.339411"/>
    <path d="M 155.324598 38.579416 
L 159.567238 38.579416 
L 159.567238 34.336776 
L 155.324598 34.336776 
z
" clip-path="url(#p7aa47249f3)" style="fill: #1965b0; fill-opacity: 0.6; stroke: #ffffff; stroke-opacity: 0.6; stroke-width: 0.339411"/>
    <path d="M 178.38718 93.624475 
L 182.62982 93.624475 
L 182.62982 89.381834 
L 178.38718 89.381834 
z
" clip-path="url(#p7aa47249f3)" style="fill: #1965b0; fill-opacity: 0.6; stroke: #ffffff; stroke-opacity: 0.6; stroke-width: 0.339411"/>
    <path d="M 158.485923 91.365573 
L 162.728564 91.365573 
L 162.728564 87.122932 
L 158.485923 87.122932 
z
" clip-path="url(#p7aa47249f3)" style="fill: #1965b0; fill-opacity: 0.6; stroke: #ffffff; stroke-opacity: 0.6; stroke-width: 0.339411"/>
    <path d="M 149.679914 121.012457 
L 153.922555 121.012457 
L 153.922555 116.769816 
L 149.679914 116.769816 
z
" clip-path="url(#p7aa47249f3)" style="fill: #1965b0; fill-opacity: 0.6; stroke: #ffffff; stroke-opacity: 0.6; stroke-width: 0.339411"/>
    <path d="M 147.42661 120.002548 
L 151.669251 120.002548 
L 151.669251 115.759907 
L 147.42661 115.759907 
z
" clip-path="url(#p7aa47249f3)" style="fill: #1965b0; fill-opacity: 0.6; stroke: #ffffff; stroke-opacity: 0.6; stroke-width: 0.339411"/>
    <path d="M 128.061627 86.05016 
L 132.304268 86.05016 
L 132.304268 81.807519 
L 128.061627 81.807519 
z
" clip-path="url(#p7aa47249f3)" style="fill: #1965b0; fill-opacity: 0.6; stroke: #ffffff; stroke-opacity: 0.6; stroke-width: 0.339411"/>
    <path d="M 111.931411 91.040432 
L 116.174052 91.040432 
L 116.174052 86.797791 
L 111.931411 86.797791 
z
" clip-path="url(#p7aa47249f3)" style="fill: #1965b0; fill-opacity: 0.6; stroke: #ffffff; stroke-opacity: 0.6; stroke-width: 0.339411"/>
    <path d="M 124.659689 112.385586 
L 128.90233 112.385586 
L 128.90233 108.142945 
L 124.659689 108.142945 
z
" clip-path="url(#p7aa47249f3)" style="fill: #1965b0; fill-opacity: 0.6; stroke: #ffffff; stroke-opacity: 0.6; stroke-width: 0.339411"/>
    <path d="M 148.98634 117.166345 
L 153.22898 117.166345 
L 153.22898 112.923704 
L 148.98634 112.923704 
z
" clip-path="url(#p7aa47249f3)" style="fill: #1965b0; fill-opacity: 0.6; stroke: #ffffff; stroke-opacity: 0.6; stroke-width: 0.339411"/>
    <path d="M 129.021852 107.364417 
L 133.264492 107.364417 
L 133.264492 103.121777 
L 129.021852 103.121777 
z
" clip-path="url(#p7aa47249f3)" style="fill: #1965b0; fill-opacity: 0.6; stroke: #ffffff; stroke-opacity: 0.6; stroke-width: 0.339411"/>
    <path d="M 112.791994 134.537945 
L 117.034635 134.537945 
L 117.034635 130.295305 
L 112.791994 130.295305 
z
" clip-path="url(#p7aa47249f3)" style="fill: #1965b0; fill-opacity: 0.6; stroke: #ffffff; stroke-opacity: 0.6; stroke-width: 0.339411"/>
    <path d="M 122.17177 100.399581 
L 126.414411 100.399581 
L 126.414411 96.15694 
L 122.17177 96.15694 
z
" clip-path="url(#p7aa47249f3)" style="fill: #1965b0; fill-opacity: 0.6; stroke: #ffffff; stroke-opacity: 0.6; stroke-width: 0.339411"/>
    <path d="M 164.415258 104.863477 
L 168.657898 104.863477 
L 168.657898 100.620837 
L 164.415258 100.620837 
z
" clip-path="url(#p7aa47249f3)" style="fill: #1965b0; fill-opacity: 0.6; stroke: #ffffff; stroke-opacity: 0.6; stroke-width: 0.339411"/>
    <path d="M 164.668392 114.154439 
L 168.911033 114.154439 
L 168.911033 109.911799 
L 164.668392 109.911799 
z
" clip-path="url(#p7aa47249f3)" style="fill: #1965b0; fill-opacity: 0.6; stroke: #ffffff; stroke-opacity: 0.6; stroke-width: 0.339411"/>
    <path d="M 169.369366 94.071092 
L 173.612006 94.071092 
L 173.612006 89.828451 
L 169.369366 89.828451 
z
" clip-path="url(#p7aa47249f3)" style="fill: #1965b0; fill-opacity: 0.6; stroke: #ffffff; stroke-opacity: 0.6; stroke-width: 0.339411"/>
    <path d="M 150.988978 121.098429 
L 155.231618 121.098429 
L 155.231618 116.855789 
L 150.988978 116.855789 
z
" clip-path="url(#p7aa47249f3)" style="fill: #1965b0; fill-opacity: 0.6; stroke: #ffffff; stroke-opacity: 0.6; stroke-width: 0.339411"/>
    <path d="M 72.501063 92.649199 
L 76.743704 92.649199 
L 76.743704 88.406558 
L 72.501063 88.406558 
z
" clip-path="url(#p7aa47249f3)" style="fill: #1965b0; fill-opacity: 0.6; stroke: #ffffff; stroke-opacity: 0.6; stroke-width: 0.339411"/>
    <path d="M 126.682612 96.047095 
L 130.925253 96.047095 
L 130.925253 91.804454 
L 126.682612 91.804454 
z
" clip-path="url(#p7aa47249f3)" style="fill: #1965b0; fill-opacity: 0.6; stroke: #ffffff; stroke-opacity: 0.6; stroke-width: 0.339411"/>
    <path d="M 159.182811 90.239865 
L 163.425452 90.239865 
L 163.425452 85.997225 
L 159.182811 85.997225 
z
" clip-path="url(#p7aa47249f3)" style="fill: #1965b0; fill-opacity: 0.6; stroke: #ffffff; stroke-opacity: 0.6; stroke-width: 0.339411"/>
    <path d="M 121.702045 107.803314 
L 122.762706 106.742654 
L 123.823366 107.803314 
L 124.884026 106.742654 
L 123.823366 105.681994 
L 124.884026 104.621334 
L 123.823366 103.560674 
L 122.762706 104.621334 
L 121.702045 103.560674 
L 120.641385 104.621334 
L 121.702045 105.681994 
L 120.641385 106.742654 
z
" clip-path="url(#p7aa47249f3)" style="fill: #7bafde; fill-opacity: 0.6; stroke: #ffffff; stroke-opacity: 0.6; stroke-width: 0.339411"/>
    <path d="M 116.172337 145.111103 
L 117.232997 144.050442 
L 118.293657 145.111103 
L 119.354317 144.050442 
L 118.293657 142.989782 
L 119.354317 141.929122 
L 118.293657 140.868462 
L 117.232997 141.929122 
L 116.172337 140.868462 
L 115.111676 141.929122 
L 116.172337 142.989782 
L 115.111676 144.050442 
z
" clip-path="url(#p7aa47249f3)" style="fill: #7bafde; fill-opacity: 0.6; stroke: #ffffff; stroke-opacity: 0.6; stroke-width: 0.339411"/>
    <path d="M 126.079282 45.176789 
L 127.139942 44.116129 
L 128.200602 45.176789 
L 129.261262 44.116129 
L 128.200602 43.055468 
L 129.261262 41.994808 
L 128.200602 40.934148 
L 127.139942 41.994808 
L 126.079282 40.934148 
L 125.018621 41.994808 
L 126.079282 43.055468 
L 125.018621 44.116129 
z
" clip-path="url(#p7aa47249f3)" style="fill: #7bafde; fill-opacity: 0.6; stroke: #ffffff; stroke-opacity: 0.6; stroke-width: 0.339411"/>
    <path d="M 139.629756 58.640053 
L 140.690416 57.579393 
L 141.751076 58.640053 
L 142.811736 57.579393 
L 141.751076 56.518733 
L 142.811736 55.458073 
L 141.751076 54.397413 
L 140.690416 55.458073 
L 139.629756 54.397413 
L 138.569096 55.458073 
L 139.629756 56.518733 
L 138.569096 57.579393 
z
" clip-path="url(#p7aa47249f3)" style="fill: #7bafde; fill-opacity: 0.6; stroke: #ffffff; stroke-opacity: 0.6; stroke-width: 0.339411"/>
    <path d="M 163.741836 43.722953 
L 164.802497 42.662292 
L 165.863157 43.722953 
L 166.923817 42.662292 
L 165.863157 41.601632 
L 166.923817 40.540972 
L 165.863157 39.480312 
L 164.802497 40.540972 
L 163.741836 39.480312 
L 162.681176 40.540972 
L 163.741836 41.601632 
L 162.681176 42.662292 
z
" clip-path="url(#p7aa47249f3)" style="fill: #7bafde; fill-opacity: 0.6; stroke: #ffffff; stroke-opacity: 0.6; stroke-width: 0.339411"/>
    <path d="M 158.835649 35.926508 
L 159.896309 34.865848 
L 160.956969 35.926508 
L 162.017629 34.865848 
L 160.956969 33.805188 
L 162.017629 32.744527 
L 160.956969 31.683867 
L 159.896309 32.744527 
L 158.835649 31.683867 
L 157.774988 32.744527 
L 158.835649 33.805188 
L 157.774988 34.865848 
z
" clip-path="url(#p7aa47249f3)" style="fill: #7bafde; fill-opacity: 0.6; stroke: #ffffff; stroke-opacity: 0.6; stroke-width: 0.339411"/>
    <path d="M 113.560106 141.53817 
L 114.620767 140.47751 
L 115.681427 141.53817 
L 116.742087 140.47751 
L 115.681427 139.416849 
L 116.742087 138.356189 
L 115.681427 137.295529 
L 114.620767 138.356189 
L 113.560106 137.295529 
L 112.499446 138.356189 
L 113.560106 139.416849 
L 112.499446 140.47751 
z
" clip-path="url(#p7aa47249f3)" style="fill: #7bafde; fill-opacity: 0.6; stroke: #ffffff; stroke-opacity: 0.6; stroke-width: 0.339411"/>
    <path d="M 149.340811 76.539869 
L 150.401471 75.479209 
L 151.462132 76.539869 
L 152.522792 75.479209 
L 151.462132 74.418549 
L 152.522792 73.357889 
L 151.462132 72.297229 
L 150.401471 73.357889 
L 149.340811 72.297229 
L 148.280151 73.357889 
L 149.340811 74.418549 
L 148.280151 75.479209 
z
" clip-path="url(#p7aa47249f3)" style="fill: #7bafde; fill-opacity: 0.6; stroke: #ffffff; stroke-opacity: 0.6; stroke-width: 0.339411"/>
    <path d="M 125.511944 82.259806 
L 126.572604 81.199146 
L 127.633264 82.259806 
L 128.693925 81.199146 
L 127.633264 80.138485 
L 128.693925 79.077825 
L 127.633264 78.017165 
L 126.572604 79.077825 
L 125.511944 78.017165 
L 124.451284 79.077825 
L 125.511944 80.138485 
L 124.451284 81.199146 
z
" clip-path="url(#p7aa47249f3)" style="fill: #7bafde; fill-opacity: 0.6; stroke: #ffffff; stroke-opacity: 0.6; stroke-width: 0.339411"/>
    <path d="M 123.282069 114.67576 
L 124.34273 113.6151 
L 125.40339 114.67576 
L 126.46405 113.6151 
L 125.40339 112.55444 
L 126.46405 111.49378 
L 125.40339 110.43312 
L 124.34273 111.49378 
L 123.282069 110.43312 
L 122.221409 111.49378 
L 123.282069 112.55444 
L 122.221409 113.6151 
z
" clip-path="url(#p7aa47249f3)" style="fill: #7bafde; fill-opacity: 0.6; stroke: #ffffff; stroke-opacity: 0.6; stroke-width: 0.339411"/>
    <path d="M 141.196033 124.157438 
L 142.256693 123.096777 
L 143.317354 124.157438 
L 144.378014 123.096777 
L 143.317354 122.036117 
L 144.378014 120.975457 
L 143.317354 119.914797 
L 142.256693 120.975457 
L 141.196033 119.914797 
L 140.135373 120.975457 
L 141.196033 122.036117 
L 140.135373 123.096777 
z
" clip-path="url(#p7aa47249f3)" style="fill: #7bafde; fill-opacity: 0.6; stroke: #ffffff; stroke-opacity: 0.6; stroke-width: 0.339411"/>
    <path d="M 146.200024 90.80557 
L 147.260684 89.74491 
L 148.321344 90.80557 
L 149.382004 89.74491 
L 148.321344 88.68425 
L 149.382004 87.62359 
L 148.321344 86.56293 
L 147.260684 87.62359 
L 146.200024 86.56293 
L 145.139364 87.62359 
L 146.200024 88.68425 
L 145.139364 89.74491 
z
" clip-path="url(#p7aa47249f3)" style="fill: #7bafde; fill-opacity: 0.6; stroke: #ffffff; stroke-opacity: 0.6; stroke-width: 0.339411"/>
    <path d="M 110.544794 137.485649 
L 111.605454 136.424989 
L 112.666114 137.485649 
L 113.726775 136.424989 
L 112.666114 135.364329 
L 113.726775 134.303669 
L 112.666114 133.243009 
L 111.605454 134.303669 
L 110.544794 133.243009 
L 109.484134 134.303669 
L 110.544794 135.364329 
L 109.484134 136.424989 
z
" clip-path="url(#p7aa47249f3)" style="fill: #7bafde; fill-opacity: 0.6; stroke: #ffffff; stroke-opacity: 0.6; stroke-width: 0.339411"/>
    <path d="M 163.952037 37.117545 
L 165.012697 36.056885 
L 166.073358 37.117545 
L 167.134018 36.056885 
L 166.073358 34.996225 
L 167.134018 33.935565 
L 166.073358 32.874904 
L 165.012697 33.935565 
L 163.952037 32.874904 
L 162.891377 33.935565 
L 163.952037 34.996225 
L 162.891377 36.056885 
z
" clip-path="url(#p7aa47249f3)" style="fill: #7bafde; fill-opacity: 0.6; stroke: #ffffff; stroke-opacity: 0.6; stroke-width: 0.339411"/>
    <path d="M 159.300366 65.726039 
L 160.361027 64.665379 
L 161.421687 65.726039 
L 162.482347 64.665379 
L 161.421687 63.604719 
L 162.482347 62.544058 
L 161.421687 61.483398 
L 160.361027 62.544058 
L 159.300366 61.483398 
L 158.239706 62.544058 
L 159.300366 63.604719 
L 158.239706 64.665379 
z
" clip-path="url(#p7aa47249f3)" style="fill: #7bafde; fill-opacity: 0.6; stroke: #ffffff; stroke-opacity: 0.6; stroke-width: 0.339411"/>
    <path d="M 97.659445 89.694414 
L 98.720105 88.633754 
L 99.780765 89.694414 
L 100.841425 88.633754 
L 99.780765 87.573094 
L 100.841425 86.512434 
L 99.780765 85.451774 
L 98.720105 86.512434 
L 97.659445 85.451774 
L 96.598784 86.512434 
L 97.659445 87.573094 
L 96.598784 88.633754 
z
" clip-path="url(#p7aa47249f3)" style="fill: #7bafde; fill-opacity: 0.6; stroke: #ffffff; stroke-opacity: 0.6; stroke-width: 0.339411"/>
    <path d="M 83.844252 127.83245 
L 84.904912 126.77179 
L 85.965573 127.83245 
L 87.026233 126.77179 
L 85.965573 125.71113 
L 87.026233 124.65047 
L 85.965573 123.589809 
L 84.904912 124.65047 
L 83.844252 123.589809 
L 82.783592 124.65047 
L 83.844252 125.71113 
L 82.783592 126.77179 
z
" clip-path="url(#p7aa47249f3)" style="fill: #7bafde; fill-opacity: 0.6; stroke: #ffffff; stroke-opacity: 0.6; stroke-width: 0.339411"/>
    <path d="M 100.659552 69.157174 
L 101.720212 68.096514 
L 102.780873 69.157174 
L 103.841533 68.096514 
L 102.780873 67.035853 
L 103.841533 65.975193 
L 102.780873 64.914533 
L 101.720212 65.975193 
L 100.659552 64.914533 
L 99.598892 65.975193 
L 100.659552 67.035853 
L 99.598892 68.096514 
z
" clip-path="url(#p7aa47249f3)" style="fill: #7bafde; fill-opacity: 0.6; stroke: #ffffff; stroke-opacity: 0.6; stroke-width: 0.339411"/>
    <path d="M 123.884966 139.026003 
L 124.945626 137.965342 
L 126.006286 139.026003 
L 127.066946 137.965342 
L 126.006286 136.904682 
L 127.066946 135.844022 
L 126.006286 134.783362 
L 124.945626 135.844022 
L 123.884966 134.783362 
L 122.824306 135.844022 
L 123.884966 136.904682 
L 122.824306 137.965342 
z
" clip-path="url(#p7aa47249f3)" style="fill: #7bafde; fill-opacity: 0.6; stroke: #ffffff; stroke-opacity: 0.6; stroke-width: 0.339411"/>
    <path d="M 159.598268 37.950215 
L 160.658928 36.889555 
L 161.719588 37.950215 
L 162.780248 36.889555 
L 161.719588 35.828894 
L 162.780248 34.768234 
L 161.719588 33.707574 
L 160.658928 34.768234 
L 159.598268 33.707574 
L 158.537607 34.768234 
L 159.598268 35.828894 
L 158.537607 36.889555 
z
" clip-path="url(#p7aa47249f3)" style="fill: #7bafde; fill-opacity: 0.6; stroke: #ffffff; stroke-opacity: 0.6; stroke-width: 0.339411"/>
    <path d="M 102.890828 108.063197 
L 103.951488 107.002537 
L 105.012148 108.063197 
L 106.072808 107.002537 
L 105.012148 105.941877 
L 106.072808 104.881217 
L 105.012148 103.820557 
L 103.951488 104.881217 
L 102.890828 103.820557 
L 101.830168 104.881217 
L 102.890828 105.941877 
L 101.830168 107.002537 
z
" clip-path="url(#p7aa47249f3)" style="fill: #7bafde; fill-opacity: 0.6; stroke: #ffffff; stroke-opacity: 0.6; stroke-width: 0.339411"/>
    <path d="M 115.793042 138.723069 
L 116.853702 137.662408 
L 117.914362 138.723069 
L 118.975023 137.662408 
L 117.914362 136.601748 
L 118.975023 135.541088 
L 117.914362 134.480428 
L 116.853702 135.541088 
L 115.793042 134.480428 
L 114.732382 135.541088 
L 115.793042 136.601748 
L 114.732382 137.662408 
z
" clip-path="url(#p7aa47249f3)" style="fill: #7bafde; fill-opacity: 0.6; stroke: #ffffff; stroke-opacity: 0.6; stroke-width: 0.339411"/>
    <path d="M 148.693879 67.217304 
L 149.75454 66.156644 
L 150.8152 67.217304 
L 151.87586 66.156644 
L 150.8152 65.095984 
L 151.87586 64.035324 
L 150.8152 62.974663 
L 149.75454 64.035324 
L 148.693879 62.974663 
L 147.633219 64.035324 
L 148.693879 65.095984 
L 147.633219 66.156644 
z
" clip-path="url(#p7aa47249f3)" style="fill: #7bafde; fill-opacity: 0.6; stroke: #ffffff; stroke-opacity: 0.6; stroke-width: 0.339411"/>
    <path d="M 138.497827 118.719653 
L 139.558488 117.658993 
L 140.619148 118.719653 
L 141.679808 117.658993 
L 140.619148 116.598333 
L 141.679808 115.537673 
L 140.619148 114.477013 
L 139.558488 115.537673 
L 138.497827 114.477013 
L 137.437167 115.537673 
L 138.497827 116.598333 
L 137.437167 117.658993 
z
" clip-path="url(#p7aa47249f3)" style="fill: #7bafde; fill-opacity: 0.6; stroke: #ffffff; stroke-opacity: 0.6; stroke-width: 0.339411"/>
    <path d="M 118.391186 142.821039 
L 119.451847 141.760379 
L 120.512507 142.821039 
L 121.573167 141.760379 
L 120.512507 140.699719 
L 121.573167 139.639059 
L 120.512507 138.578398 
L 119.451847 139.639059 
L 118.391186 138.578398 
L 117.330526 139.639059 
L 118.391186 140.699719 
L 117.330526 141.760379 
z
" clip-path="url(#p7aa47249f3)" style="fill: #7bafde; fill-opacity: 0.6; stroke: #ffffff; stroke-opacity: 0.6; stroke-width: 0.339411"/>
    <path d="M 122.559342 91.153515 
L 123.620002 90.092855 
L 124.680662 91.153515 
L 125.741322 90.092855 
L 124.680662 89.032194 
L 125.741322 87.971534 
L 124.680662 86.910874 
L 123.620002 87.971534 
L 122.559342 86.910874 
L 121.498681 87.971534 
L 122.559342 89.032194 
L 121.498681 90.092855 
z
" clip-path="url(#p7aa47249f3)" style="fill: #7bafde; fill-opacity: 0.6; stroke: #ffffff; stroke-opacity: 0.6; stroke-width: 0.339411"/>
    <path d="M 90.171382 98.404682 
L 91.232042 97.344021 
L 92.292703 98.404682 
L 93.353363 97.344021 
L 92.292703 96.283361 
L 93.353363 95.222701 
L 92.292703 94.162041 
L 91.232042 95.222701 
L 90.171382 94.162041 
L 89.110722 95.222701 
L 90.171382 96.283361 
L 89.110722 97.344021 
z
" clip-path="url(#p7aa47249f3)" style="fill: #7bafde; fill-opacity: 0.6; stroke: #ffffff; stroke-opacity: 0.6; stroke-width: 0.339411"/>
    <path d="M 114.721407 103.239134 
L 115.782067 102.178474 
L 116.842728 103.239134 
L 117.903388 102.178474 
L 116.842728 101.117814 
L 117.903388 100.057154 
L 116.842728 98.996493 
L 115.782067 100.057154 
L 114.721407 98.996493 
L 113.660747 100.057154 
L 114.721407 101.117814 
L 113.660747 102.178474 
z
" clip-path="url(#p7aa47249f3)" style="fill: #7bafde; fill-opacity: 0.6; stroke: #ffffff; stroke-opacity: 0.6; stroke-width: 0.339411"/>
    <path d="M 143.71874 54.022318 
L 144.7794 52.961658 
L 145.84006 54.022318 
L 146.90072 52.961658 
L 145.84006 51.900998 
L 146.90072 50.840338 
L 145.84006 49.779678 
L 144.7794 50.840338 
L 143.71874 49.779678 
L 142.658079 50.840338 
L 143.71874 51.900998 
L 142.658079 52.961658 
z
" clip-path="url(#p7aa47249f3)" style="fill: #7bafde; fill-opacity: 0.6; stroke: #ffffff; stroke-opacity: 0.6; stroke-width: 0.339411"/>
    <path d="M 115.944338 134.376603 
L 117.004998 133.315943 
L 118.065658 134.376603 
L 119.126318 133.315943 
L 118.065658 132.255282 
L 119.126318 131.194622 
L 118.065658 130.133962 
L 117.004998 131.194622 
L 115.944338 130.133962 
L 114.883678 131.194622 
L 115.944338 132.255282 
L 114.883678 133.315943 
z
" clip-path="url(#p7aa47249f3)" style="fill: #7bafde; fill-opacity: 0.6; stroke: #ffffff; stroke-opacity: 0.6; stroke-width: 0.339411"/>
    <path d="M 120.159096 121.297025 
L 121.219756 120.236365 
L 122.280416 121.297025 
L 123.341076 120.236365 
L 122.280416 119.175705 
L 123.341076 118.115045 
L 122.280416 117.054384 
L 121.219756 118.115045 
L 120.159096 117.054384 
L 119.098436 118.115045 
L 120.159096 119.175705 
L 119.098436 120.236365 
z
" clip-path="url(#p7aa47249f3)" style="fill: #7bafde; fill-opacity: 0.6; stroke: #ffffff; stroke-opacity: 0.6; stroke-width: 0.339411"/>
    <path d="M 155.985092 58.141992 
L 157.045752 57.081332 
L 158.106412 58.141992 
L 159.167072 57.081332 
L 158.106412 56.020672 
L 159.167072 54.960011 
L 158.106412 53.899351 
L 157.045752 54.960011 
L 155.985092 53.899351 
L 154.924432 54.960011 
L 155.985092 56.020672 
L 154.924432 57.081332 
z
" clip-path="url(#p7aa47249f3)" style="fill: #7bafde; fill-opacity: 0.6; stroke: #ffffff; stroke-opacity: 0.6; stroke-width: 0.339411"/>
    <path d="M 146.079214 67.614014 
L 147.139875 66.553354 
L 148.200535 67.614014 
L 149.261195 66.553354 
L 148.200535 65.492694 
L 149.261195 64.432034 
L 148.200535 63.371373 
L 147.139875 64.432034 
L 146.079214 63.371373 
L 145.018554 64.432034 
L 146.079214 65.492694 
L 145.018554 66.553354 
z
" clip-path="url(#p7aa47249f3)" style="fill: #7bafde; fill-opacity: 0.6; stroke: #ffffff; stroke-opacity: 0.6; stroke-width: 0.339411"/>
    <path d="M 132.785581 49.185829 
L 133.846241 48.125169 
L 134.906901 49.185829 
L 135.967561 48.125169 
L 134.906901 47.064509 
L 135.967561 46.003849 
L 134.906901 44.943189 
L 133.846241 46.003849 
L 132.785581 44.943189 
L 131.72492 46.003849 
L 132.785581 47.064509 
L 131.72492 48.125169 
z
" clip-path="url(#p7aa47249f3)" style="fill: #7bafde; fill-opacity: 0.6; stroke: #ffffff; stroke-opacity: 0.6; stroke-width: 0.339411"/>
    <path d="M 140.060982 51.691392 
L 141.121642 50.630732 
L 142.182302 51.691392 
L 143.242963 50.630732 
L 142.182302 49.570071 
L 143.242963 48.509411 
L 142.182302 47.448751 
L 141.121642 48.509411 
L 140.060982 47.448751 
L 139.000322 48.509411 
L 140.060982 49.570071 
L 139.000322 50.630732 
z
" clip-path="url(#p7aa47249f3)" style="fill: #7bafde; fill-opacity: 0.6; stroke: #ffffff; stroke-opacity: 0.6; stroke-width: 0.339411"/>
    <path d="M 154.233823 39.972897 
L 155.294483 38.912237 
L 156.355144 39.972897 
L 157.415804 38.912237 
L 156.355144 37.851577 
L 157.415804 36.790917 
L 156.355144 35.730256 
L 155.294483 36.790917 
L 154.233823 35.730256 
L 153.173163 36.790917 
L 154.233823 37.851577 
L 153.173163 38.912237 
z
" clip-path="url(#p7aa47249f3)" style="fill: #7bafde; fill-opacity: 0.6; stroke: #ffffff; stroke-opacity: 0.6; stroke-width: 0.339411"/>
    <path d="M 167.422743 44.350081 
L 168.483403 43.289421 
L 169.544063 44.350081 
L 170.604723 43.289421 
L 169.544063 42.22876 
L 170.604723 41.1681 
L 169.544063 40.10744 
L 168.483403 41.1681 
L 167.422743 40.10744 
L 166.362082 41.1681 
L 167.422743 42.22876 
L 166.362082 43.289421 
z
" clip-path="url(#p7aa47249f3)" style="fill: #7bafde; fill-opacity: 0.6; stroke: #ffffff; stroke-opacity: 0.6; stroke-width: 0.339411"/>
    <path d="M 155.179199 36.63896 
L 156.23986 35.5783 
L 157.30052 36.63896 
L 158.36118 35.5783 
L 157.30052 34.51764 
L 158.36118 33.45698 
L 157.30052 32.39632 
L 156.23986 33.45698 
L 155.179199 32.39632 
L 154.118539 33.45698 
L 155.179199 34.51764 
L 154.118539 35.5783 
z
" clip-path="url(#p7aa47249f3)" style="fill: #7bafde; fill-opacity: 0.6; stroke: #ffffff; stroke-opacity: 0.6; stroke-width: 0.339411"/>
    <path d="M 90.249476 108.258714 
L 91.310136 107.198053 
L 92.370796 108.258714 
L 93.431456 107.198053 
L 92.370796 106.137393 
L 93.431456 105.076733 
L 92.370796 104.016073 
L 91.310136 105.076733 
L 90.249476 104.016073 
L 89.188816 105.076733 
L 90.249476 106.137393 
L 89.188816 107.198053 
z
" clip-path="url(#p7aa47249f3)" style="fill: #7bafde; fill-opacity: 0.6; stroke: #ffffff; stroke-opacity: 0.6; stroke-width: 0.339411"/>
    <path d="M 96.779899 94.621961 
L 97.840559 93.561301 
L 98.901219 94.621961 
L 99.961879 93.561301 
L 98.901219 92.500641 
L 99.961879 91.439981 
L 98.901219 90.379321 
L 97.840559 91.439981 
L 96.779899 90.379321 
L 95.719238 91.439981 
L 96.779899 92.500641 
L 95.719238 93.561301 
z
" clip-path="url(#p7aa47249f3)" style="fill: #7bafde; fill-opacity: 0.6; stroke: #ffffff; stroke-opacity: 0.6; stroke-width: 0.339411"/>
    <path d="M 165.525085 42.302417 
L 166.585745 41.241757 
L 167.646405 42.302417 
L 168.707065 41.241757 
L 167.646405 40.181097 
L 168.707065 39.120436 
L 167.646405 38.059776 
L 166.585745 39.120436 
L 165.525085 38.059776 
L 164.464424 39.120436 
L 165.525085 40.181097 
L 164.464424 41.241757 
z
" clip-path="url(#p7aa47249f3)" style="fill: #7bafde; fill-opacity: 0.6; stroke: #ffffff; stroke-opacity: 0.6; stroke-width: 0.339411"/>
    <path d="M 145.9034 38.106731 
L 146.96406 37.046071 
L 148.024721 38.106731 
L 149.085381 37.046071 
L 148.024721 35.985411 
L 149.085381 34.924751 
L 148.024721 33.864091 
L 146.96406 34.924751 
L 145.9034 33.864091 
L 144.84274 34.924751 
L 145.9034 35.985411 
L 144.84274 37.046071 
z
" clip-path="url(#p7aa47249f3)" style="fill: #7bafde; fill-opacity: 0.6; stroke: #ffffff; stroke-opacity: 0.6; stroke-width: 0.339411"/>
    <path d="M 148.585641 70.294484 
L 149.646301 69.233823 
L 150.706961 70.294484 
L 151.767621 69.233823 
L 150.706961 68.173163 
L 151.767621 67.112503 
L 150.706961 66.051843 
L 149.646301 67.112503 
L 148.585641 66.051843 
L 147.524981 67.112503 
L 148.585641 68.173163 
L 147.524981 69.233823 
z
" clip-path="url(#p7aa47249f3)" style="fill: #7bafde; fill-opacity: 0.6; stroke: #ffffff; stroke-opacity: 0.6; stroke-width: 0.339411"/>
    <path d="M 146.153955 43.786752 
L 147.214615 42.726091 
L 148.275276 43.786752 
L 149.335936 42.726091 
L 148.275276 41.665431 
L 149.335936 40.604771 
L 148.275276 39.544111 
L 147.214615 40.604771 
L 146.153955 39.544111 
L 145.093295 40.604771 
L 146.153955 41.665431 
L 145.093295 42.726091 
z
" clip-path="url(#p7aa47249f3)" style="fill: #7bafde; fill-opacity: 0.6; stroke: #ffffff; stroke-opacity: 0.6; stroke-width: 0.339411"/>
    <path d="M 98.121671 102.135075 
L 99.182331 101.074415 
L 100.242991 102.135075 
L 101.303651 101.074415 
L 100.242991 100.013755 
L 101.303651 98.953095 
L 100.242991 97.892435 
L 99.182331 98.953095 
L 98.121671 97.892435 
L 97.061011 98.953095 
L 98.121671 100.013755 
L 97.061011 101.074415 
z
" clip-path="url(#p7aa47249f3)" style="fill: #7bafde; fill-opacity: 0.6; stroke: #ffffff; stroke-opacity: 0.6; stroke-width: 0.339411"/>
    <path d="M 99.603273 73.846329 
L 100.663933 72.785669 
L 101.724593 73.846329 
L 102.785254 72.785669 
L 101.724593 71.725009 
L 102.785254 70.664349 
L 101.724593 69.603688 
L 100.663933 70.664349 
L 99.603273 69.603688 
L 98.542613 70.664349 
L 99.603273 71.725009 
L 98.542613 72.785669 
z
" clip-path="url(#p7aa47249f3)" style="fill: #7bafde; fill-opacity: 0.6; stroke: #ffffff; stroke-opacity: 0.6; stroke-width: 0.339411"/>
    <path d="M 149.180178 47.2639 
L 150.240838 46.203239 
L 151.301499 47.2639 
L 152.362159 46.203239 
L 151.301499 45.142579 
L 152.362159 44.081919 
L 151.301499 43.021259 
L 150.240838 44.081919 
L 149.180178 43.021259 
L 148.119518 44.081919 
L 149.180178 45.142579 
L 148.119518 46.203239 
z
" clip-path="url(#p7aa47249f3)" style="fill: #7bafde; fill-opacity: 0.6; stroke: #ffffff; stroke-opacity: 0.6; stroke-width: 0.339411"/>
    <path d="M 109.900818 139.483896 
L 110.961479 138.423236 
L 112.022139 139.483896 
L 113.082799 138.423236 
L 112.022139 137.362576 
L 113.082799 136.301916 
L 112.022139 135.241256 
L 110.961479 136.301916 
L 109.900818 135.241256 
L 108.840158 136.301916 
L 109.900818 137.362576 
L 108.840158 138.423236 
z
" clip-path="url(#p7aa47249f3)" style="fill: #7bafde; fill-opacity: 0.6; stroke: #ffffff; stroke-opacity: 0.6; stroke-width: 0.339411"/>
    <path d="M 155.380705 45.261002 
L 156.441365 44.200342 
L 157.502025 45.261002 
L 158.562685 44.200342 
L 157.502025 43.139682 
L 158.562685 42.079022 
L 157.502025 41.018362 
L 156.441365 42.079022 
L 155.380705 41.018362 
L 154.320045 42.079022 
L 155.380705 43.139682 
L 154.320045 44.200342 
z
" clip-path="url(#p7aa47249f3)" style="fill: #7bafde; fill-opacity: 0.6; stroke: #ffffff; stroke-opacity: 0.6; stroke-width: 0.339411"/>
    <path d="M 126.243589 140.017998 
L 127.30425 138.957338 
L 128.36491 140.017998 
L 129.42557 138.957338 
L 128.36491 137.896678 
L 129.42557 136.836018 
L 128.36491 135.775358 
L 127.30425 136.836018 
L 126.243589 135.775358 
L 125.182929 136.836018 
L 126.243589 137.896678 
L 125.182929 138.957338 
z
" clip-path="url(#p7aa47249f3)" style="fill: #7bafde; fill-opacity: 0.6; stroke: #ffffff; stroke-opacity: 0.6; stroke-width: 0.339411"/>
    <path d="M 90.750316 130.294122 
L 91.810976 129.233462 
L 92.871637 130.294122 
L 93.932297 129.233462 
L 92.871637 128.172802 
L 93.932297 127.112142 
L 92.871637 126.051481 
L 91.810976 127.112142 
L 90.750316 126.051481 
L 89.689656 127.112142 
L 90.750316 128.172802 
L 89.689656 129.233462 
z
" clip-path="url(#p7aa47249f3)" style="fill: #7bafde; fill-opacity: 0.6; stroke: #ffffff; stroke-opacity: 0.6; stroke-width: 0.339411"/>
    <path d="M 144.195084 80.222898 
L 145.255744 79.162238 
L 146.316404 80.222898 
L 147.377065 79.162238 
L 146.316404 78.101578 
L 147.377065 77.040918 
L 146.316404 75.980258 
L 145.255744 77.040918 
L 144.195084 75.980258 
L 143.134424 77.040918 
L 144.195084 78.101578 
L 143.134424 79.162238 
z
" clip-path="url(#p7aa47249f3)" style="fill: #7bafde; fill-opacity: 0.6; stroke: #ffffff; stroke-opacity: 0.6; stroke-width: 0.339411"/>
    <path d="M 97.884031 84.660727 
L 98.944691 83.600067 
L 100.005351 84.660727 
L 101.066011 83.600067 
L 100.005351 82.539407 
L 101.066011 81.478747 
L 100.005351 80.418087 
L 98.944691 81.478747 
L 97.884031 80.418087 
L 96.823371 81.478747 
L 97.884031 82.539407 
L 96.823371 83.600067 
z
" clip-path="url(#p7aa47249f3)" style="fill: #7bafde; fill-opacity: 0.6; stroke: #ffffff; stroke-opacity: 0.6; stroke-width: 0.339411"/>
    <path d="M 153.947777 30.786835 
L 155.008437 29.726175 
L 156.069097 30.786835 
L 157.129758 29.726175 
L 156.069097 28.665514 
L 157.129758 27.604854 
L 156.069097 26.544194 
L 155.008437 27.604854 
L 153.947777 26.544194 
L 152.887117 27.604854 
L 153.947777 28.665514 
L 152.887117 29.726175 
z
" clip-path="url(#p7aa47249f3)" style="fill: #7bafde; fill-opacity: 0.6; stroke: #ffffff; stroke-opacity: 0.6; stroke-width: 0.339411"/>
    <path d="M 76.981978 89.232684 
L 78.042638 88.172023 
L 79.103298 89.232684 
L 80.163958 88.172023 
L 79.103298 87.111363 
L 80.163958 86.050703 
L 79.103298 84.990043 
L 78.042638 86.050703 
L 76.981978 84.990043 
L 75.921318 86.050703 
L 76.981978 87.111363 
L 75.921318 88.172023 
z
" clip-path="url(#p7aa47249f3)" style="fill: #7bafde; fill-opacity: 0.6; stroke: #ffffff; stroke-opacity: 0.6; stroke-width: 0.339411"/>
    <path d="M 111.05111 122.326211 
L 112.11177 121.265551 
L 113.17243 122.326211 
L 114.23309 121.265551 
L 113.17243 120.20489 
L 114.23309 119.14423 
L 113.17243 118.08357 
L 112.11177 119.14423 
L 111.05111 118.08357 
L 109.990449 119.14423 
L 111.05111 120.20489 
L 109.990449 121.265551 
z
" clip-path="url(#p7aa47249f3)" style="fill: #7bafde; fill-opacity: 0.6; stroke: #ffffff; stroke-opacity: 0.6; stroke-width: 0.339411"/>
    <path d="M 146.093174 36.680098 
L 147.153834 35.619438 
L 148.214494 36.680098 
L 149.275155 35.619438 
L 148.214494 34.558778 
L 149.275155 33.498118 
L 148.214494 32.437458 
L 147.153834 33.498118 
L 146.093174 32.437458 
L 145.032514 33.498118 
L 146.093174 34.558778 
L 145.032514 35.619438 
z
" clip-path="url(#p7aa47249f3)" style="fill: #7bafde; fill-opacity: 0.6; stroke: #ffffff; stroke-opacity: 0.6; stroke-width: 0.339411"/>
    <path d="M 161.750665 45.431232 
L 162.811325 44.370572 
L 163.871985 45.431232 
L 164.932645 44.370572 
L 163.871985 43.309911 
L 164.932645 42.249251 
L 163.871985 41.188591 
L 162.811325 42.249251 
L 161.750665 41.188591 
L 160.690005 42.249251 
L 161.750665 43.309911 
L 160.690005 44.370572 
z
" clip-path="url(#p7aa47249f3)" style="fill: #7bafde; fill-opacity: 0.6; stroke: #ffffff; stroke-opacity: 0.6; stroke-width: 0.339411"/>
    <path d="M 138.183868 122.091386 
L 139.244529 121.030726 
L 140.305189 122.091386 
L 141.365849 121.030726 
L 140.305189 119.970066 
L 141.365849 118.909406 
L 140.305189 117.848746 
L 139.244529 118.909406 
L 138.183868 117.848746 
L 137.123208 118.909406 
L 138.183868 119.970066 
L 137.123208 121.030726 
z
" clip-path="url(#p7aa47249f3)" style="fill: #7bafde; fill-opacity: 0.6; stroke: #ffffff; stroke-opacity: 0.6; stroke-width: 0.339411"/>
    <path d="M 134.453697 65.691801 
L 135.514357 64.63114 
L 136.575017 65.691801 
L 137.635677 64.63114 
L 136.575017 63.57048 
L 137.635677 62.50982 
L 136.575017 61.44916 
L 135.514357 62.50982 
L 134.453697 61.44916 
L 133.393037 62.50982 
L 134.453697 63.57048 
L 133.393037 64.63114 
z
" clip-path="url(#p7aa47249f3)" style="fill: #7bafde; fill-opacity: 0.6; stroke: #ffffff; stroke-opacity: 0.6; stroke-width: 0.339411"/>
    <path d="M 119.118478 117.094786 
L 120.179138 116.034126 
L 121.239798 117.094786 
L 122.300458 116.034126 
L 121.239798 114.973465 
L 122.300458 113.912805 
L 121.239798 112.852145 
L 120.179138 113.912805 
L 119.118478 112.852145 
L 118.057818 113.912805 
L 119.118478 114.973465 
L 118.057818 116.034126 
z
" clip-path="url(#p7aa47249f3)" style="fill: #7bafde; fill-opacity: 0.6; stroke: #ffffff; stroke-opacity: 0.6; stroke-width: 0.339411"/>
    <path d="M 85.974849 82.967284 
L 87.035509 81.906624 
L 88.096169 82.967284 
L 89.156829 81.906624 
L 88.096169 80.845964 
L 89.156829 79.785304 
L 88.096169 78.724643 
L 87.035509 79.785304 
L 85.974849 78.724643 
L 84.914188 79.785304 
L 85.974849 80.845964 
L 84.914188 81.906624 
z
" clip-path="url(#p7aa47249f3)" style="fill: #7bafde; fill-opacity: 0.6; stroke: #ffffff; stroke-opacity: 0.6; stroke-width: 0.339411"/>
    <path d="M 114.637496 139.477301 
L 115.698156 138.416641 
L 116.758816 139.477301 
L 117.819476 138.416641 
L 116.758816 137.355981 
L 117.819476 136.29532 
L 116.758816 135.23466 
L 115.698156 136.29532 
L 114.637496 135.23466 
L 113.576836 136.29532 
L 114.637496 137.355981 
L 113.576836 138.416641 
z
" clip-path="url(#p7aa47249f3)" style="fill: #7bafde; fill-opacity: 0.6; stroke: #ffffff; stroke-opacity: 0.6; stroke-width: 0.339411"/>
    <path d="M 146.689976 55.844828 
L 147.750636 54.784168 
L 148.811297 55.844828 
L 149.871957 54.784168 
L 148.811297 53.723508 
L 149.871957 52.662848 
L 148.811297 51.602188 
L 147.750636 52.662848 
L 146.689976 51.602188 
L 145.629316 52.662848 
L 146.689976 53.723508 
L 145.629316 54.784168 
z
" clip-path="url(#p7aa47249f3)" style="fill: #7bafde; fill-opacity: 0.6; stroke: #ffffff; stroke-opacity: 0.6; stroke-width: 0.339411"/>
    <path d="M 132.537296 68.511896 
L 133.951509 68.511896 
L 133.951509 67.097682 
L 135.365723 67.097682 
L 135.365723 65.683469 
L 133.951509 65.683469 
L 133.951509 64.269255 
L 132.537296 64.269255 
L 132.537296 65.683469 
L 131.123082 65.683469 
L 131.123082 67.097682 
L 132.537296 67.097682 
z
" clip-path="url(#p7aa47249f3)" style="fill: #4eb265; fill-opacity: 0.6; stroke: #ffffff; stroke-opacity: 0.6; stroke-width: 0.339411"/>
    <path d="M 128.15653 58.388832 
L 129.570743 58.388832 
L 129.570743 56.974618 
L 130.984957 56.974618 
L 130.984957 55.560405 
L 129.570743 55.560405 
L 129.570743 54.146191 
L 128.15653 54.146191 
L 128.15653 55.560405 
L 126.742316 55.560405 
L 126.742316 56.974618 
L 128.15653 56.974618 
z
" clip-path="url(#p7aa47249f3)" style="fill: #4eb265; fill-opacity: 0.6; stroke: #ffffff; stroke-opacity: 0.6; stroke-width: 0.339411"/>
    <path d="M 81.846992 84.576181 
L 83.261205 84.576181 
L 83.261205 83.161967 
L 84.675419 83.161967 
L 84.675419 81.747753 
L 83.261205 81.747753 
L 83.261205 80.33354 
L 81.846992 80.33354 
L 81.846992 81.747753 
L 80.432778 81.747753 
L 80.432778 83.161967 
L 81.846992 83.161967 
z
" clip-path="url(#p7aa47249f3)" style="fill: #4eb265; fill-opacity: 0.6; stroke: #ffffff; stroke-opacity: 0.6; stroke-width: 0.339411"/>
    <path d="M 133.835933 45.462718 
L 135.250147 45.462718 
L 135.250147 44.048504 
L 136.66436 44.048504 
L 136.66436 42.634291 
L 135.250147 42.634291 
L 135.250147 41.220077 
L 133.835933 41.220077 
L 133.835933 42.634291 
L 132.421719 42.634291 
L 132.421719 44.048504 
L 133.835933 44.048504 
z
" clip-path="url(#p7aa47249f3)" style="fill: #4eb265; fill-opacity: 0.6; stroke: #ffffff; stroke-opacity: 0.6; stroke-width: 0.339411"/>
    <path d="M 126.313522 66.912417 
L 127.727736 66.912417 
L 127.727736 65.498203 
L 129.141949 65.498203 
L 129.141949 64.08399 
L 127.727736 64.08399 
L 127.727736 62.669776 
L 126.313522 62.669776 
L 126.313522 64.08399 
L 124.899308 64.08399 
L 124.899308 65.498203 
L 126.313522 65.498203 
z
" clip-path="url(#p7aa47249f3)" style="fill: #4eb265; fill-opacity: 0.6; stroke: #ffffff; stroke-opacity: 0.6; stroke-width: 0.339411"/>
    <path d="M 104.671704 121.80995 
L 106.085917 121.80995 
L 106.085917 120.395737 
L 107.500131 120.395737 
L 107.500131 118.981523 
L 106.085917 118.981523 
L 106.085917 117.567309 
L 104.671704 117.567309 
L 104.671704 118.981523 
L 103.25749 118.981523 
L 103.25749 120.395737 
L 104.671704 120.395737 
z
" clip-path="url(#p7aa47249f3)" style="fill: #4eb265; fill-opacity: 0.6; stroke: #ffffff; stroke-opacity: 0.6; stroke-width: 0.339411"/>
    <path d="M 102.453612 106.11645 
L 103.867825 106.11645 
L 103.867825 104.702236 
L 105.282039 104.702236 
L 105.282039 103.288023 
L 103.867825 103.288023 
L 103.867825 101.873809 
L 102.453612 101.873809 
L 102.453612 103.288023 
L 101.039398 103.288023 
L 101.039398 104.702236 
L 102.453612 104.702236 
z
" clip-path="url(#p7aa47249f3)" style="fill: #4eb265; fill-opacity: 0.6; stroke: #ffffff; stroke-opacity: 0.6; stroke-width: 0.339411"/>
    <path d="M 105.462259 107.246829 
L 106.876473 107.246829 
L 106.876473 105.832616 
L 108.290686 105.832616 
L 108.290686 104.418402 
L 106.876473 104.418402 
L 106.876473 103.004189 
L 105.462259 103.004189 
L 105.462259 104.418402 
L 104.048045 104.418402 
L 104.048045 105.832616 
L 105.462259 105.832616 
z
" clip-path="url(#p7aa47249f3)" style="fill: #4eb265; fill-opacity: 0.6; stroke: #ffffff; stroke-opacity: 0.6; stroke-width: 0.339411"/>
    <path d="M 106.387095 121.185272 
L 107.801309 121.185272 
L 107.801309 119.771058 
L 109.215523 119.771058 
L 109.215523 118.356845 
L 107.801309 118.356845 
L 107.801309 116.942631 
L 106.387095 116.942631 
L 106.387095 118.356845 
L 104.972882 118.356845 
L 104.972882 119.771058 
L 106.387095 119.771058 
z
" clip-path="url(#p7aa47249f3)" style="fill: #4eb265; fill-opacity: 0.6; stroke: #ffffff; stroke-opacity: 0.6; stroke-width: 0.339411"/>
    <path d="M 135.912537 59.96905 
L 137.326751 59.96905 
L 137.326751 58.554837 
L 138.740964 58.554837 
L 138.740964 57.140623 
L 137.326751 57.140623 
L 137.326751 55.72641 
L 135.912537 55.72641 
L 135.912537 57.140623 
L 134.498324 57.140623 
L 134.498324 58.554837 
L 135.912537 58.554837 
z
" clip-path="url(#p7aa47249f3)" style="fill: #4eb265; fill-opacity: 0.6; stroke: #ffffff; stroke-opacity: 0.6; stroke-width: 0.339411"/>
    <path d="M 153.810348 49.90275 
L 155.224561 49.90275 
L 155.224561 48.488536 
L 156.638775 48.488536 
L 156.638775 47.074323 
L 155.224561 47.074323 
L 155.224561 45.660109 
L 153.810348 45.660109 
L 153.810348 47.074323 
L 152.396134 47.074323 
L 152.396134 48.488536 
L 153.810348 48.488536 
z
" clip-path="url(#p7aa47249f3)" style="fill: #4eb265; fill-opacity: 0.6; stroke: #ffffff; stroke-opacity: 0.6; stroke-width: 0.339411"/>
    <path d="M 100.878918 129.479263 
L 102.293132 129.479263 
L 102.293132 128.065049 
L 103.707345 128.065049 
L 103.707345 126.650836 
L 102.293132 126.650836 
L 102.293132 125.236622 
L 100.878918 125.236622 
L 100.878918 126.650836 
L 99.464705 126.650836 
L 99.464705 128.065049 
L 100.878918 128.065049 
z
" clip-path="url(#p7aa47249f3)" style="fill: #4eb265; fill-opacity: 0.6; stroke: #ffffff; stroke-opacity: 0.6; stroke-width: 0.339411"/>
    <path d="M 121.211778 132.629856 
L 122.625991 132.629856 
L 122.625991 131.215643 
L 124.040205 131.215643 
L 124.040205 129.801429 
L 122.625991 129.801429 
L 122.625991 128.387216 
L 121.211778 128.387216 
L 121.211778 129.801429 
L 119.797564 129.801429 
L 119.797564 131.215643 
L 121.211778 131.215643 
z
" clip-path="url(#p7aa47249f3)" style="fill: #4eb265; fill-opacity: 0.6; stroke: #ffffff; stroke-opacity: 0.6; stroke-width: 0.339411"/>
    <path d="M 105.238765 128.990421 
L 106.652979 128.990421 
L 106.652979 127.576208 
L 108.067192 127.576208 
L 108.067192 126.161994 
L 106.652979 126.161994 
L 106.652979 124.747781 
L 105.238765 124.747781 
L 105.238765 126.161994 
L 103.824552 126.161994 
L 103.824552 127.576208 
L 105.238765 127.576208 
z
" clip-path="url(#p7aa47249f3)" style="fill: #4eb265; fill-opacity: 0.6; stroke: #ffffff; stroke-opacity: 0.6; stroke-width: 0.339411"/>
    <path d="M 150.710988 106.959604 
L 152.125202 106.959604 
L 152.125202 105.545391 
L 153.539416 105.545391 
L 153.539416 104.131177 
L 152.125202 104.131177 
L 152.125202 102.716964 
L 150.710988 102.716964 
L 150.710988 104.131177 
L 149.296775 104.131177 
L 149.296775 105.545391 
L 150.710988 105.545391 
z
" clip-path="url(#p7aa47249f3)" style="fill: #4eb265; fill-opacity: 0.6; stroke: #ffffff; stroke-opacity: 0.6; stroke-width: 0.339411"/>
    <path d="M 162.68192 51.183432 
L 164.096134 51.183432 
L 164.096134 49.769218 
L 165.510347 49.769218 
L 165.510347 48.355004 
L 164.096134 48.355004 
L 164.096134 46.940791 
L 162.68192 46.940791 
L 162.68192 48.355004 
L 161.267707 48.355004 
L 161.267707 49.769218 
L 162.68192 49.769218 
z
" clip-path="url(#p7aa47249f3)" style="fill: #4eb265; fill-opacity: 0.6; stroke: #ffffff; stroke-opacity: 0.6; stroke-width: 0.339411"/>
    <path d="M 126.631816 91.072245 
L 128.04603 91.072245 
L 128.04603 89.658031 
L 129.460243 89.658031 
L 129.460243 88.243818 
L 128.04603 88.243818 
L 128.04603 86.829604 
L 126.631816 86.829604 
L 126.631816 88.243818 
L 125.217603 88.243818 
L 125.217603 89.658031 
L 126.631816 89.658031 
z
" clip-path="url(#p7aa47249f3)" style="fill: #4eb265; fill-opacity: 0.6; stroke: #ffffff; stroke-opacity: 0.6; stroke-width: 0.339411"/>
    <path d="M 79.296913 82.320112 
L 80.711126 82.320112 
L 80.711126 80.905898 
L 82.12534 80.905898 
L 82.12534 79.491685 
L 80.711126 79.491685 
L 80.711126 78.077471 
L 79.296913 78.077471 
L 79.296913 79.491685 
L 77.882699 79.491685 
L 77.882699 80.905898 
L 79.296913 80.905898 
z
" clip-path="url(#p7aa47249f3)" style="fill: #4eb265; fill-opacity: 0.6; stroke: #ffffff; stroke-opacity: 0.6; stroke-width: 0.339411"/>
    <path d="M 155.820897 62.486443 
L 157.235111 62.486443 
L 157.235111 61.072229 
L 158.649324 61.072229 
L 158.649324 59.658016 
L 157.235111 59.658016 
L 157.235111 58.243802 
L 155.820897 58.243802 
L 155.820897 59.658016 
L 154.406684 59.658016 
L 154.406684 61.072229 
L 155.820897 61.072229 
z
" clip-path="url(#p7aa47249f3)" style="fill: #4eb265; fill-opacity: 0.6; stroke: #ffffff; stroke-opacity: 0.6; stroke-width: 0.339411"/>
    <path d="M 101.68268 89.024007 
L 103.096893 89.024007 
L 103.096893 87.609794 
L 104.511107 87.609794 
L 104.511107 86.19558 
L 103.096893 86.19558 
L 103.096893 84.781366 
L 101.68268 84.781366 
L 101.68268 86.19558 
L 100.268466 86.19558 
L 100.268466 87.609794 
L 101.68268 87.609794 
z
" clip-path="url(#p7aa47249f3)" style="fill: #4eb265; fill-opacity: 0.6; stroke: #ffffff; stroke-opacity: 0.6; stroke-width: 0.339411"/>
    <path d="M 133.233413 98.946639 
L 134.647627 98.946639 
L 134.647627 97.532426 
L 136.06184 97.532426 
L 136.06184 96.118212 
L 134.647627 96.118212 
L 134.647627 94.703999 
L 133.233413 94.703999 
L 133.233413 96.118212 
L 131.819199 96.118212 
L 131.819199 97.532426 
L 133.233413 97.532426 
z
" clip-path="url(#p7aa47249f3)" style="fill: #4eb265; fill-opacity: 0.6; stroke: #ffffff; stroke-opacity: 0.6; stroke-width: 0.339411"/>
    <path d="M 93.437508 116.521114 
L 94.851722 116.521114 
L 94.851722 115.1069 
L 96.265935 115.1069 
L 96.265935 113.692686 
L 94.851722 113.692686 
L 94.851722 112.278473 
L 93.437508 112.278473 
L 93.437508 113.692686 
L 92.023294 113.692686 
L 92.023294 115.1069 
L 93.437508 115.1069 
z
" clip-path="url(#p7aa47249f3)" style="fill: #4eb265; fill-opacity: 0.6; stroke: #ffffff; stroke-opacity: 0.6; stroke-width: 0.339411"/>
    <path d="M 134.263941 30.147722 
L 135.678154 30.147722 
L 135.678154 28.733509 
L 137.092368 28.733509 
L 137.092368 27.319295 
L 135.678154 27.319295 
L 135.678154 25.905081 
L 134.263941 25.905081 
L 134.263941 27.319295 
L 132.849727 27.319295 
L 132.849727 28.733509 
L 134.263941 28.733509 
z
" clip-path="url(#p7aa47249f3)" style="fill: #4eb265; fill-opacity: 0.6; stroke: #ffffff; stroke-opacity: 0.6; stroke-width: 0.339411"/>
    <path d="M 100.102118 118.136413 
L 101.516331 118.136413 
L 101.516331 116.722199 
L 102.930545 116.722199 
L 102.930545 115.307986 
L 101.516331 115.307986 
L 101.516331 113.893772 
L 100.102118 113.893772 
L 100.102118 115.307986 
L 98.687904 115.307986 
L 98.687904 116.722199 
L 100.102118 116.722199 
z
" clip-path="url(#p7aa47249f3)" style="fill: #4eb265; fill-opacity: 0.6; stroke: #ffffff; stroke-opacity: 0.6; stroke-width: 0.339411"/>
    <path d="M 132.603708 37.914903 
L 134.017922 37.914903 
L 134.017922 36.500689 
L 135.432136 36.500689 
L 135.432136 35.086475 
L 134.017922 35.086475 
L 134.017922 33.672262 
L 132.603708 33.672262 
L 132.603708 35.086475 
L 131.189495 35.086475 
L 131.189495 36.500689 
L 132.603708 36.500689 
z
" clip-path="url(#p7aa47249f3)" style="fill: #4eb265; fill-opacity: 0.6; stroke: #ffffff; stroke-opacity: 0.6; stroke-width: 0.339411"/>
    <path d="M 72.411918 86.697332 
L 73.826131 86.697332 
L 73.826131 85.283119 
L 75.240345 85.283119 
L 75.240345 83.868905 
L 73.826131 83.868905 
L 73.826131 82.454692 
L 72.411918 82.454692 
L 72.411918 83.868905 
L 70.997704 83.868905 
L 70.997704 85.283119 
L 72.411918 85.283119 
z
" clip-path="url(#p7aa47249f3)" style="fill: #4eb265; fill-opacity: 0.6; stroke: #ffffff; stroke-opacity: 0.6; stroke-width: 0.339411"/>
    <path d="M 129.43465 34.250665 
L 130.848864 34.250665 
L 130.848864 32.836452 
L 132.263078 32.836452 
L 132.263078 31.422238 
L 130.848864 31.422238 
L 130.848864 30.008024 
L 129.43465 30.008024 
L 129.43465 31.422238 
L 128.020437 31.422238 
L 128.020437 32.836452 
L 129.43465 32.836452 
z
" clip-path="url(#p7aa47249f3)" style="fill: #4eb265; fill-opacity: 0.6; stroke: #ffffff; stroke-opacity: 0.6; stroke-width: 0.339411"/>
    <path d="M 130.03942 71.208843 
L 131.453633 71.208843 
L 131.453633 69.794629 
L 132.867847 69.794629 
L 132.867847 68.380416 
L 131.453633 68.380416 
L 131.453633 66.966202 
L 130.03942 66.966202 
L 130.03942 68.380416 
L 128.625206 68.380416 
L 128.625206 69.794629 
L 130.03942 69.794629 
z
" clip-path="url(#p7aa47249f3)" style="fill: #4eb265; fill-opacity: 0.6; stroke: #ffffff; stroke-opacity: 0.6; stroke-width: 0.339411"/>
    <path d="M 102.793543 128.136168 
L 104.207756 128.136168 
L 104.207756 126.721954 
L 105.62197 126.721954 
L 105.62197 125.307741 
L 104.207756 125.307741 
L 104.207756 123.893527 
L 102.793543 123.893527 
L 102.793543 125.307741 
L 101.379329 125.307741 
L 101.379329 126.721954 
L 102.793543 126.721954 
z
" clip-path="url(#p7aa47249f3)" style="fill: #4eb265; fill-opacity: 0.6; stroke: #ffffff; stroke-opacity: 0.6; stroke-width: 0.339411"/>
    <path d="M 163.076396 108.565946 
L 164.49061 108.565946 
L 164.49061 107.151732 
L 165.904823 107.151732 
L 165.904823 105.737519 
L 164.49061 105.737519 
L 164.49061 104.323305 
L 163.076396 104.323305 
L 163.076396 105.737519 
L 161.662183 105.737519 
L 161.662183 107.151732 
L 163.076396 107.151732 
z
" clip-path="url(#p7aa47249f3)" style="fill: #4eb265; fill-opacity: 0.6; stroke: #ffffff; stroke-opacity: 0.6; stroke-width: 0.339411"/>
    <path d="M 82.783008 100.664601 
L 84.197222 100.664601 
L 84.197222 99.250388 
L 85.611435 99.250388 
L 85.611435 97.836174 
L 84.197222 97.836174 
L 84.197222 96.421961 
L 82.783008 96.421961 
L 82.783008 97.836174 
L 81.368794 97.836174 
L 81.368794 99.250388 
L 82.783008 99.250388 
z
" clip-path="url(#p7aa47249f3)" style="fill: #4eb265; fill-opacity: 0.6; stroke: #ffffff; stroke-opacity: 0.6; stroke-width: 0.339411"/>
    <path d="M 87.938889 123.53795 
L 89.353103 123.53795 
L 89.353103 122.123736 
L 90.767317 122.123736 
L 90.767317 120.709522 
L 89.353103 120.709522 
L 89.353103 119.295309 
L 87.938889 119.295309 
L 87.938889 120.709522 
L 86.524676 120.709522 
L 86.524676 122.123736 
L 87.938889 122.123736 
z
" clip-path="url(#p7aa47249f3)" style="fill: #4eb265; fill-opacity: 0.6; stroke: #ffffff; stroke-opacity: 0.6; stroke-width: 0.339411"/>
    <path d="M 76.80579 99.270898 
L 78.220004 99.270898 
L 78.220004 97.856685 
L 79.634217 97.856685 
L 79.634217 96.442471 
L 78.220004 96.442471 
L 78.220004 95.028258 
L 76.80579 95.028258 
L 76.80579 96.442471 
L 75.391577 96.442471 
L 75.391577 97.856685 
L 76.80579 97.856685 
z
" clip-path="url(#p7aa47249f3)" style="fill: #4eb265; fill-opacity: 0.6; stroke: #ffffff; stroke-opacity: 0.6; stroke-width: 0.339411"/>
    <path d="M 130.702502 76.351416 
L 132.116716 76.351416 
L 132.116716 74.937203 
L 133.530929 74.937203 
L 133.530929 73.522989 
L 132.116716 73.522989 
L 132.116716 72.108776 
L 130.702502 72.108776 
L 130.702502 73.522989 
L 129.288288 73.522989 
L 129.288288 74.937203 
L 130.702502 74.937203 
z
" clip-path="url(#p7aa47249f3)" style="fill: #4eb265; fill-opacity: 0.6; stroke: #ffffff; stroke-opacity: 0.6; stroke-width: 0.339411"/>
    <path d="M 122.306688 65.416344 
L 123.720901 65.416344 
L 123.720901 64.002131 
L 125.135115 64.002131 
L 125.135115 62.587917 
L 123.720901 62.587917 
L 123.720901 61.173704 
L 122.306688 61.173704 
L 122.306688 62.587917 
L 120.892474 62.587917 
L 120.892474 64.002131 
L 122.306688 64.002131 
z
" clip-path="url(#p7aa47249f3)" style="fill: #4eb265; fill-opacity: 0.6; stroke: #ffffff; stroke-opacity: 0.6; stroke-width: 0.339411"/>
    <path d="M 118.153652 145.439246 
L 119.567866 145.439246 
L 119.567866 144.025033 
L 120.982079 144.025033 
L 120.982079 142.610819 
L 119.567866 142.610819 
L 119.567866 141.196606 
L 118.153652 141.196606 
L 118.153652 142.610819 
L 116.739439 142.610819 
L 116.739439 144.025033 
L 118.153652 144.025033 
z
" clip-path="url(#p7aa47249f3)" style="fill: #4eb265; fill-opacity: 0.6; stroke: #ffffff; stroke-opacity: 0.6; stroke-width: 0.339411"/>
    <path d="M 108.784376 102.100195 
L 110.19859 102.100195 
L 110.19859 100.685981 
L 111.612803 100.685981 
L 111.612803 99.271768 
L 110.19859 99.271768 
L 110.19859 97.857554 
L 108.784376 97.857554 
L 108.784376 99.271768 
L 107.370163 99.271768 
L 107.370163 100.685981 
L 108.784376 100.685981 
z
" clip-path="url(#p7aa47249f3)" style="fill: #4eb265; fill-opacity: 0.6; stroke: #ffffff; stroke-opacity: 0.6; stroke-width: 0.339411"/>
    <path d="M 136.630124 48.443347 
L 138.044338 48.443347 
L 138.044338 47.029134 
L 139.458551 47.029134 
L 139.458551 45.61492 
L 138.044338 45.61492 
L 138.044338 44.200707 
L 136.630124 44.200707 
L 136.630124 45.61492 
L 135.215911 45.61492 
L 135.215911 47.029134 
L 136.630124 47.029134 
z
" clip-path="url(#p7aa47249f3)" style="fill: #4eb265; fill-opacity: 0.6; stroke: #ffffff; stroke-opacity: 0.6; stroke-width: 0.339411"/>
    <path d="M 82.518229 105.182114 
L 83.932443 105.182114 
L 83.932443 103.767901 
L 85.346656 103.767901 
L 85.346656 102.353687 
L 83.932443 102.353687 
L 83.932443 100.939473 
L 82.518229 100.939473 
L 82.518229 102.353687 
L 81.104016 102.353687 
L 81.104016 103.767901 
L 82.518229 103.767901 
z
" clip-path="url(#p7aa47249f3)" style="fill: #4eb265; fill-opacity: 0.6; stroke: #ffffff; stroke-opacity: 0.6; stroke-width: 0.339411"/>
    <path d="M 103.304846 121.314043 
L 104.71906 121.314043 
L 104.71906 119.899829 
L 106.133273 119.899829 
L 106.133273 118.485615 
L 104.71906 118.485615 
L 104.71906 117.071402 
L 103.304846 117.071402 
L 103.304846 118.485615 
L 101.890633 118.485615 
L 101.890633 119.899829 
L 103.304846 119.899829 
z
" clip-path="url(#p7aa47249f3)" style="fill: #4eb265; fill-opacity: 0.6; stroke: #ffffff; stroke-opacity: 0.6; stroke-width: 0.339411"/>
    <path d="M 130.561741 43.690775 
L 131.975954 43.690775 
L 131.975954 42.276562 
L 133.390168 42.276562 
L 133.390168 40.862348 
L 131.975954 40.862348 
L 131.975954 39.448135 
L 130.561741 39.448135 
L 130.561741 40.862348 
L 129.147527 40.862348 
L 129.147527 42.276562 
L 130.561741 42.276562 
z
" clip-path="url(#p7aa47249f3)" style="fill: #4eb265; fill-opacity: 0.6; stroke: #ffffff; stroke-opacity: 0.6; stroke-width: 0.339411"/>
    <path d="M 138.568815 49.999825 
L 139.983029 49.999825 
L 139.983029 48.585611 
L 141.397242 48.585611 
L 141.397242 47.171397 
L 139.983029 47.171397 
L 139.983029 45.757184 
L 138.568815 45.757184 
L 138.568815 47.171397 
L 137.154602 47.171397 
L 137.154602 48.585611 
L 138.568815 48.585611 
z
" clip-path="url(#p7aa47249f3)" style="fill: #4eb265; fill-opacity: 0.6; stroke: #ffffff; stroke-opacity: 0.6; stroke-width: 0.339411"/>
    <path d="M 86.309376 88.694231 
L 87.72359 88.694231 
L 87.72359 87.280017 
L 89.137803 87.280017 
L 89.137803 85.865804 
L 87.72359 85.865804 
L 87.72359 84.45159 
L 86.309376 84.45159 
L 86.309376 85.865804 
L 84.895163 85.865804 
L 84.895163 87.280017 
L 86.309376 87.280017 
z
" clip-path="url(#p7aa47249f3)" style="fill: #4eb265; fill-opacity: 0.6; stroke: #ffffff; stroke-opacity: 0.6; stroke-width: 0.339411"/>
    <path d="M 111.025291 113.770032 
L 112.439505 113.770032 
L 112.439505 112.355818 
L 113.853718 112.355818 
L 113.853718 110.941605 
L 112.439505 110.941605 
L 112.439505 109.527391 
L 111.025291 109.527391 
L 111.025291 110.941605 
L 109.611078 110.941605 
L 109.611078 112.355818 
L 111.025291 112.355818 
z
" clip-path="url(#p7aa47249f3)" style="fill: #4eb265; fill-opacity: 0.6; stroke: #ffffff; stroke-opacity: 0.6; stroke-width: 0.339411"/>
    <path d="M 130.29203 62.285832 
L 131.706244 62.285832 
L 131.706244 60.871619 
L 133.120457 60.871619 
L 133.120457 59.457405 
L 131.706244 59.457405 
L 131.706244 58.043192 
L 130.29203 58.043192 
L 130.29203 59.457405 
L 128.877816 59.457405 
L 128.877816 60.871619 
L 130.29203 60.871619 
z
" clip-path="url(#p7aa47249f3)" style="fill: #4eb265; fill-opacity: 0.6; stroke: #ffffff; stroke-opacity: 0.6; stroke-width: 0.339411"/>
    <path d="M 100.821391 111.814311 
L 102.235604 111.814311 
L 102.235604 110.400098 
L 103.649818 110.400098 
L 103.649818 108.985884 
L 102.235604 108.985884 
L 102.235604 107.571671 
L 100.821391 107.571671 
L 100.821391 108.985884 
L 99.407177 108.985884 
L 99.407177 110.400098 
L 100.821391 110.400098 
z
" clip-path="url(#p7aa47249f3)" style="fill: #4eb265; fill-opacity: 0.6; stroke: #ffffff; stroke-opacity: 0.6; stroke-width: 0.339411"/>
    <path d="M 109.522514 91.453372 
L 110.936727 91.453372 
L 110.936727 90.039159 
L 112.350941 90.039159 
L 112.350941 88.624945 
L 110.936727 88.624945 
L 110.936727 87.210732 
L 109.522514 87.210732 
L 109.522514 88.624945 
L 108.1083 88.624945 
L 108.1083 90.039159 
L 109.522514 90.039159 
z
" clip-path="url(#p7aa47249f3)" style="fill: #4eb265; fill-opacity: 0.6; stroke: #ffffff; stroke-opacity: 0.6; stroke-width: 0.339411"/>
    <path d="M 91.623551 91.655921 
L 93.037765 91.655921 
L 93.037765 90.241707 
L 94.451979 90.241707 
L 94.451979 88.827494 
L 93.037765 88.827494 
L 93.037765 87.41328 
L 91.623551 87.41328 
L 91.623551 88.827494 
L 90.209338 88.827494 
L 90.209338 90.241707 
L 91.623551 90.241707 
z
" clip-path="url(#p7aa47249f3)" style="fill: #4eb265; fill-opacity: 0.6; stroke: #ffffff; stroke-opacity: 0.6; stroke-width: 0.339411"/>
    <path d="M 107.152785 102.028725 
L 108.566998 102.028725 
L 108.566998 100.614512 
L 109.981212 100.614512 
L 109.981212 99.200298 
L 108.566998 99.200298 
L 108.566998 97.786084 
L 107.152785 97.786084 
L 107.152785 99.200298 
L 105.738571 99.200298 
L 105.738571 100.614512 
L 107.152785 100.614512 
z
" clip-path="url(#p7aa47249f3)" style="fill: #4eb265; fill-opacity: 0.6; stroke: #ffffff; stroke-opacity: 0.6; stroke-width: 0.339411"/>
    <path d="M 80.080178 92.286875 
L 81.494391 92.286875 
L 81.494391 90.872661 
L 82.908605 90.872661 
L 82.908605 89.458448 
L 81.494391 89.458448 
L 81.494391 88.044234 
L 80.080178 88.044234 
L 80.080178 89.458448 
L 78.665964 89.458448 
L 78.665964 90.872661 
L 80.080178 90.872661 
z
" clip-path="url(#p7aa47249f3)" style="fill: #4eb265; fill-opacity: 0.6; stroke: #ffffff; stroke-opacity: 0.6; stroke-width: 0.339411"/>
    <path d="M 130.781399 35.005144 
L 132.195613 35.005144 
L 132.195613 33.590931 
L 133.609826 33.590931 
L 133.609826 32.176717 
L 132.195613 32.176717 
L 132.195613 30.762504 
L 130.781399 30.762504 
L 130.781399 32.176717 
L 129.367185 32.176717 
L 129.367185 33.590931 
L 130.781399 33.590931 
z
" clip-path="url(#p7aa47249f3)" style="fill: #4eb265; fill-opacity: 0.6; stroke: #ffffff; stroke-opacity: 0.6; stroke-width: 0.339411"/>
    <path d="M 140.221849 34.594382 
L 141.636062 34.594382 
L 141.636062 33.180169 
L 143.050276 33.180169 
L 143.050276 31.765955 
L 141.636062 31.765955 
L 141.636062 30.351742 
L 140.221849 30.351742 
L 140.221849 31.765955 
L 138.807635 31.765955 
L 138.807635 33.180169 
L 140.221849 33.180169 
z
" clip-path="url(#p7aa47249f3)" style="fill: #4eb265; fill-opacity: 0.6; stroke: #ffffff; stroke-opacity: 0.6; stroke-width: 0.339411"/>
    <path d="M 149.272025 65.261765 
L 150.686239 65.261765 
L 150.686239 63.847552 
L 152.100452 63.847552 
L 152.100452 62.433338 
L 150.686239 62.433338 
L 150.686239 61.019125 
L 149.272025 61.019125 
L 149.272025 62.433338 
L 147.857812 62.433338 
L 147.857812 63.847552 
L 149.272025 63.847552 
z
" clip-path="url(#p7aa47249f3)" style="fill: #4eb265; fill-opacity: 0.6; stroke: #ffffff; stroke-opacity: 0.6; stroke-width: 0.339411"/>
    <path d="M 83.042445 91.497886 
L 84.456659 91.497886 
L 84.456659 90.083672 
L 85.870872 90.083672 
L 85.870872 88.669459 
L 84.456659 88.669459 
L 84.456659 87.255245 
L 83.042445 87.255245 
L 83.042445 88.669459 
L 81.628231 88.669459 
L 81.628231 90.083672 
L 83.042445 90.083672 
z
" clip-path="url(#p7aa47249f3)" style="fill: #4eb265; fill-opacity: 0.6; stroke: #ffffff; stroke-opacity: 0.6; stroke-width: 0.339411"/>
    <path d="M 106.959057 103.531278 
L 108.37327 103.531278 
L 108.37327 102.117064 
L 109.787484 102.117064 
L 109.787484 100.70285 
L 108.37327 100.70285 
L 108.37327 99.288637 
L 106.959057 99.288637 
L 106.959057 100.70285 
L 105.544843 100.70285 
L 105.544843 102.117064 
L 106.959057 102.117064 
z
" clip-path="url(#p7aa47249f3)" style="fill: #4eb265; fill-opacity: 0.6; stroke: #ffffff; stroke-opacity: 0.6; stroke-width: 0.339411"/>
    <path d="M 84.383515 108.467069 
L 85.797729 108.467069 
L 85.797729 107.052856 
L 87.211942 107.052856 
L 87.211942 105.638642 
L 85.797729 105.638642 
L 85.797729 104.224429 
L 84.383515 104.224429 
L 84.383515 105.638642 
L 82.969302 105.638642 
L 82.969302 107.052856 
L 84.383515 107.052856 
z
" clip-path="url(#p7aa47249f3)" style="fill: #4eb265; fill-opacity: 0.6; stroke: #ffffff; stroke-opacity: 0.6; stroke-width: 0.339411"/>
    <path d="M 159.383641 43.97352 
L 160.797855 43.97352 
L 160.797855 42.559306 
L 162.212068 42.559306 
L 162.212068 41.145093 
L 160.797855 41.145093 
L 160.797855 39.730879 
L 159.383641 39.730879 
L 159.383641 41.145093 
L 157.969428 41.145093 
L 157.969428 42.559306 
L 159.383641 42.559306 
z
" clip-path="url(#p7aa47249f3)" style="fill: #4eb265; fill-opacity: 0.6; stroke: #ffffff; stroke-opacity: 0.6; stroke-width: 0.339411"/>
    <path d="M 137.45769 31.528058 
L 138.871904 31.528058 
L 138.871904 30.113844 
L 140.286117 30.113844 
L 140.286117 28.699631 
L 138.871904 28.699631 
L 138.871904 27.285417 
L 137.45769 27.285417 
L 137.45769 28.699631 
L 136.043477 28.699631 
L 136.043477 30.113844 
L 137.45769 30.113844 
z
" clip-path="url(#p7aa47249f3)" style="fill: #4eb265; fill-opacity: 0.6; stroke: #ffffff; stroke-opacity: 0.6; stroke-width: 0.339411"/>
    <path d="M 90.071378 96.889095 
L 91.485592 96.889095 
L 91.485592 95.474882 
L 92.899805 95.474882 
L 92.899805 94.060668 
L 91.485592 94.060668 
L 91.485592 92.646455 
L 90.071378 92.646455 
L 90.071378 94.060668 
L 88.657165 94.060668 
L 88.657165 95.474882 
L 90.071378 95.474882 
z
" clip-path="url(#p7aa47249f3)" style="fill: #4eb265; fill-opacity: 0.6; stroke: #ffffff; stroke-opacity: 0.6; stroke-width: 0.339411"/>
    <path d="M 118.41431 128.279108 
L 119.828523 128.279108 
L 119.828523 126.864894 
L 121.242737 126.864894 
L 121.242737 125.45068 
L 119.828523 125.45068 
L 119.828523 124.036467 
L 118.41431 124.036467 
L 118.41431 125.45068 
L 117.000096 125.45068 
L 117.000096 126.864894 
L 118.41431 126.864894 
z
" clip-path="url(#p7aa47249f3)" style="fill: #4eb265; fill-opacity: 0.6; stroke: #ffffff; stroke-opacity: 0.6; stroke-width: 0.339411"/>
    <path d="M 137.423557 39.745053 
L 138.83777 39.745053 
L 138.83777 38.330839 
L 140.251984 38.330839 
L 140.251984 36.916625 
L 138.83777 36.916625 
L 138.83777 35.502412 
L 137.423557 35.502412 
L 137.423557 36.916625 
L 136.009343 36.916625 
L 136.009343 38.330839 
L 137.423557 38.330839 
z
" clip-path="url(#p7aa47249f3)" style="fill: #4eb265; fill-opacity: 0.6; stroke: #ffffff; stroke-opacity: 0.6; stroke-width: 0.339411"/>
    <path d="M 136.457093 34.87767 
L 137.871307 34.87767 
L 137.871307 33.463456 
L 139.28552 33.463456 
L 139.28552 32.049243 
L 137.871307 32.049243 
L 137.871307 30.635029 
L 136.457093 30.635029 
L 136.457093 32.049243 
L 135.04288 32.049243 
L 135.04288 33.463456 
L 136.457093 33.463456 
z
" clip-path="url(#p7aa47249f3)" style="fill: #4eb265; fill-opacity: 0.6; stroke: #ffffff; stroke-opacity: 0.6; stroke-width: 0.339411"/>
    <path d="M 129.37755 63.50893 
L 130.791764 63.50893 
L 130.791764 62.094716 
L 132.205978 62.094716 
L 132.205978 60.680502 
L 130.791764 60.680502 
L 130.791764 59.266289 
L 129.37755 59.266289 
L 129.37755 60.680502 
L 127.963337 60.680502 
L 127.963337 62.094716 
L 129.37755 62.094716 
z
" clip-path="url(#p7aa47249f3)" style="fill: #4eb265; fill-opacity: 0.6; stroke: #ffffff; stroke-opacity: 0.6; stroke-width: 0.339411"/>
    <path d="M 133.628336 54.35568 
L 135.04255 54.35568 
L 135.04255 52.941467 
L 136.456764 52.941467 
L 136.456764 51.527253 
L 135.04255 51.527253 
L 135.04255 50.113039 
L 133.628336 50.113039 
L 133.628336 51.527253 
L 132.214123 51.527253 
L 132.214123 52.941467 
L 133.628336 52.941467 
z
" clip-path="url(#p7aa47249f3)" style="fill: #4eb265; fill-opacity: 0.6; stroke: #ffffff; stroke-opacity: 0.6; stroke-width: 0.339411"/>
   </g>
   <g id="matplotlib.axis_1">
    <g id="xtick_1">
     <g id="line2d_1">
      <defs>
       <path id="m356feb06a2" d="M 0 0 
L 0 8 
" style="stroke: #000000"/>
      </defs>
      <g>
       <use xlink:href="#m356feb06a2" x="85.319982" y="188.936063" style="stroke: #000000"/>
      </g>
     </g>
     <g id="text_1">
      <!-- 0 -->
      <g transform="translate(81.502482 209.554188) scale(0.12 -0.12)">
       <defs>
        <path id="DejaVuSans-30" d="M 2034 4250 
Q 1547 4250 1301 3770 
Q 1056 3291 1056 2328 
Q 1056 1369 1301 889 
Q 1547 409 2034 409 
Q 2525 409 2770 889 
Q 3016 1369 3016 2328 
Q 3016 3291 2770 3770 
Q 2525 4250 2034 4250 
z
M 2034 4750 
Q 2819 4750 3233 4129 
Q 3647 3509 3647 2328 
Q 3647 1150 3233 529 
Q 2819 -91 2034 -91 
Q 1250 -91 836 529 
Q 422 1150 422 2328 
Q 422 3509 836 4129 
Q 1250 4750 2034 4750 
z
" transform="scale(0.015625)"/>
       </defs>
       <use xlink:href="#DejaVuSans-30"/>
      </g>
     </g>
    </g>
    <g id="xtick_2">
     <g id="line2d_2">
      <g>
       <use xlink:href="#m356feb06a2" x="214.741639" y="188.936063" style="stroke: #000000"/>
      </g>
     </g>
     <g id="text_2">
      <!-- 10 -->
      <g transform="translate(207.106639 209.554188) scale(0.12 -0.12)">
       <defs>
        <path id="DejaVuSans-31" d="M 794 531 
L 1825 531 
L 1825 4091 
L 703 3866 
L 703 4441 
L 1819 4666 
L 2450 4666 
L 2450 531 
L 3481 531 
L 3481 0 
L 794 0 
L 794 531 
z
" transform="scale(0.015625)"/>
       </defs>
       <use xlink:href="#DejaVuSans-31"/>
       <use xlink:href="#DejaVuSans-30" x="63.623047"/>
      </g>
     </g>
    </g>
    <g id="text_3">
     <!-- UMAP 1 -->
     <g transform="translate(117.956572 225.167938) scale(0.12 -0.12)">
      <defs>
       <path id="DejaVuSans-55" d="M 556 4666 
L 1191 4666 
L 1191 1831 
Q 1191 1081 1462 751 
Q 1734 422 2344 422 
Q 2950 422 3222 751 
Q 3494 1081 3494 1831 
L 3494 4666 
L 4128 4666 
L 4128 1753 
Q 4128 841 3676 375 
Q 3225 -91 2344 -91 
Q 1459 -91 1007 375 
Q 556 841 556 1753 
L 556 4666 
z
" transform="scale(0.015625)"/>
       <path id="DejaVuSans-4d" d="M 628 4666 
L 1569 4666 
L 2759 1491 
L 3956 4666 
L 4897 4666 
L 4897 0 
L 4281 0 
L 4281 4097 
L 3078 897 
L 2444 897 
L 1241 4097 
L 1241 0 
L 628 0 
L 628 4666 
z
" transform="scale(0.015625)"/>
       <path id="DejaVuSans-41" d="M 2188 4044 
L 1331 1722 
L 3047 1722 
L 2188 4044 
z
M 1831 4666 
L 2547 4666 
L 4325 0 
L 3669 0 
L 3244 1197 
L 1141 1197 
L 716 0 
L 50 0 
L 1831 4666 
z
" transform="scale(0.015625)"/>
       <path id="DejaVuSans-50" d="M 1259 4147 
L 1259 2394 
L 2053 2394 
Q 2494 2394 2734 2622 
Q 2975 2850 2975 3272 
Q 2975 3691 2734 3919 
Q 2494 4147 2053 4147 
L 1259 4147 
z
M 628 4666 
L 2053 4666 
Q 2838 4666 3239 4311 
Q 3641 3956 3641 3272 
Q 3641 2581 3239 2228 
Q 2838 1875 2053 1875 
L 1259 1875 
L 1259 0 
L 628 0 
L 628 4666 
z
" transform="scale(0.015625)"/>
       <path id="DejaVuSans-20" transform="scale(0.015625)"/>
      </defs>
      <use xlink:href="#DejaVuSans-55"/>
      <use xlink:href="#DejaVuSans-4d" x="73.193359"/>
      <use xlink:href="#DejaVuSans-41" x="159.472656"/>
      <use xlink:href="#DejaVuSans-50" x="227.880859"/>
      <use xlink:href="#DejaVuSans-20" x="288.183594"/>
      <use xlink:href="#DejaVuSans-31" x="319.970703"/>
     </g>
    </g>
   </g>
   <g id="matplotlib.axis_2">
    <g id="ytick_1">
     <g id="line2d_3">
      <defs>
       <path id="mf6d5f5b17b" d="M 0 0 
L -8 0 
" style="stroke: #000000"/>
      </defs>
      <g>
       <use xlink:href="#mf6d5f5b17b" x="53.957638" y="157.573719" style="stroke: #000000"/>
      </g>
     </g>
     <g id="text_4">
      <!-- 0 -->
      <g transform="translate(34.822638 162.132781) scale(0.12 -0.12)">
       <use xlink:href="#DejaVuSans-30"/>
      </g>
     </g>
    </g>
    <g id="ytick_2">
     <g id="line2d_4">
      <g>
       <use xlink:href="#mf6d5f5b17b" x="53.957638" y="28.152062" style="stroke: #000000"/>
      </g>
     </g>
     <g id="text_5">
      <!-- 10 -->
      <g transform="translate(27.187638 32.711124) scale(0.12 -0.12)">
       <use xlink:href="#DejaVuSans-31"/>
       <use xlink:href="#DejaVuSans-30" x="63.623047"/>
      </g>
     </g>
    </g>
    <g id="text_6">
     <!-- UMAP 2 -->
     <g transform="translate(20.692013 124.937128) rotate(-90) scale(0.12 -0.12)">
      <defs>
       <path id="DejaVuSans-32" d="M 1228 531 
L 3431 531 
L 3431 0 
L 469 0 
L 469 531 
Q 828 903 1448 1529 
Q 2069 2156 2228 2338 
Q 2531 2678 2651 2914 
Q 2772 3150 2772 3378 
Q 2772 3750 2511 3984 
Q 2250 4219 1831 4219 
Q 1534 4219 1204 4116 
Q 875 4013 500 3803 
L 500 4441 
Q 881 4594 1212 4672 
Q 1544 4750 1819 4750 
Q 2544 4750 2975 4387 
Q 3406 4025 3406 3419 
Q 3406 3131 3298 2873 
Q 3191 2616 2906 2266 
Q 2828 2175 2409 1742 
Q 1991 1309 1228 531 
z
" transform="scale(0.015625)"/>
      </defs>
      <use xlink:href="#DejaVuSans-55"/>
      <use xlink:href="#DejaVuSans-4d" x="73.193359"/>
      <use xlink:href="#DejaVuSans-41" x="159.472656"/>
      <use xlink:href="#DejaVuSans-50" x="227.880859"/>
      <use xlink:href="#DejaVuSans-20" x="288.183594"/>
      <use xlink:href="#DejaVuSans-32" x="319.970703"/>
     </g>
    </g>
   </g>
   <g id="patch_3">
    <path d="M 53.957638 188.936063 
L 53.957638 14.908819 
" style="fill: none; stroke: #000000; stroke-width: 2; stroke-linejoin: miter; stroke-linecap: square"/>
   </g>
   <g id="patch_4">
    <path d="M 53.957638 188.936063 
L 227.984882 188.936063 
" style="fill: none; stroke: #000000; stroke-width: 2; stroke-linejoin: miter; stroke-linecap: square"/>
   </g>
  </g>
 </g>
 <defs>
  <clipPath id="p7aa47249f3">
   <rect x="53.957638" y="14.908819" width="174.027244" height="174.027244"/>
  </clipPath>
 </defs>
</svg>
