<?xml version="1.0" encoding="utf-8" standalone="no"?>
<!DOCTYPE svg PUBLIC "-//W3C//DTD SVG 1.1//EN"
  "http://www.w3.org/Graphics/SVG/1.1/DTD/svg11.dtd">
<svg xmlns:xlink="http://www.w3.org/1999/xlink" width="240.944882pt" height="240.944882pt" viewBox="0 0 240.944882 240.944882" xmlns="http://www.w3.org/2000/svg" version="1.1">
 <metadata>
  <rdf:RDF xmlns:dc="http://purl.org/dc/elements/1.1/" xmlns:cc="http://creativecommons.org/ns#" xmlns:rdf="http://www.w3.org/1999/02/22-rdf-syntax-ns#">
   <cc:Work>
    <dc:type rdf:resource="http://purl.org/dc/dcmitype/StillImage"/>
    <dc:date>2025-02-24T15:44:59.904495</dc:date>
    <dc:format>image/svg+xml</dc:format>
    <dc:creator>
     <cc:Agent>
      <dc:title>Matplotlib v3.6.2, https://matplotlib.org/</dc:title>
     </cc:Agent>
    </dc:creator>
   </cc:Work>
  </rdf:RDF>
 </metadata>
 <defs>
  <style type="text/css">*{stroke-linejoin: round; stroke-linecap: butt}</style>
 </defs>
 <g id="figure_1">
  <g id="patch_1">
   <path d="M 0 240.944882 
L 240.944882 240.944882 
L 240.944882 0 
L 0 0 
L 0 240.944882 
z
" style="fill: none"/>
  </g>
  <g id="axes_1">
   <g id="patch_2">
    <path d="M 53.957638 188.565765 
L 227.244286 188.565765 
L 227.244286 15.279117 
L 53.957638 15.279117 
L 53.957638 188.565765 
z
" style="fill: none"/>
   </g>
   <g id="PathCollection_1">
    <path d="M 165.238642 160.245657 
L 167.038642 157.245657 
L 165.238642 154.245657 
L 163.438642 157.245657 
z
" clip-path="url(#p0fea9102eb)" style="fill: #332288; fill-opacity: 0.6; stroke: #ffffff; stroke-opacity: 0.6; stroke-width: 0.339411"/>
    <path d="M 172.71374 66.823874 
L 174.51374 63.823874 
L 172.71374 60.823874 
L 170.91374 63.823874 
z
" clip-path="url(#p0fea9102eb)" style="fill: #332288; fill-opacity: 0.6; stroke: #ffffff; stroke-opacity: 0.6; stroke-width: 0.339411"/>
    <path d="M 197.521481 124.344464 
L 199.321481 121.344464 
L 197.521481 118.344464 
L 195.721481 121.344464 
z
" clip-path="url(#p0fea9102eb)" style="fill: #332288; fill-opacity: 0.6; stroke: #ffffff; stroke-opacity: 0.6; stroke-width: 0.339411"/>
    <path d="M 203.706199 113.421671 
L 205.506199 110.421671 
L 203.706199 107.421671 
L 201.906199 110.421671 
z
" clip-path="url(#p0fea9102eb)" style="fill: #332288; fill-opacity: 0.6; stroke: #ffffff; stroke-opacity: 0.6; stroke-width: 0.339411"/>
    <path d="M 185.242234 138.205144 
L 187.042234 135.205144 
L 185.242234 132.205144 
L 183.442234 135.205144 
z
" clip-path="url(#p0fea9102eb)" style="fill: #332288; fill-opacity: 0.6; stroke: #ffffff; stroke-opacity: 0.6; stroke-width: 0.339411"/>
    <path d="M 171.861622 89.33001 
L 173.661622 86.33001 
L 171.861622 83.33001 
L 170.061622 86.33001 
z
" clip-path="url(#p0fea9102eb)" style="fill: #332288; fill-opacity: 0.6; stroke: #ffffff; stroke-opacity: 0.6; stroke-width: 0.339411"/>
    <path d="M 195.402965 84.315814 
L 197.202965 81.315814 
L 195.402965 78.315814 
L 193.602965 81.315814 
z
" clip-path="url(#p0fea9102eb)" style="fill: #332288; fill-opacity: 0.6; stroke: #ffffff; stroke-opacity: 0.6; stroke-width: 0.339411"/>
    <path d="M 189.302876 124.871642 
L 191.102876 121.871642 
L 189.302876 118.871642 
L 187.502876 121.871642 
z
" clip-path="url(#p0fea9102eb)" style="fill: #332288; fill-opacity: 0.6; stroke: #ffffff; stroke-opacity: 0.6; stroke-width: 0.339411"/>
    <path d="M 196.813439 115.753785 
L 198.613439 112.753785 
L 196.813439 109.753785 
L 195.013439 112.753785 
z
" clip-path="url(#p0fea9102eb)" style="fill: #332288; fill-opacity: 0.6; stroke: #ffffff; stroke-opacity: 0.6; stroke-width: 0.339411"/>
    <path d="M 208.372655 136.956103 
L 210.172655 133.956103 
L 208.372655 130.956103 
L 206.572655 133.956103 
z
" clip-path="url(#p0fea9102eb)" style="fill: #332288; fill-opacity: 0.6; stroke: #ffffff; stroke-opacity: 0.6; stroke-width: 0.339411"/>
    <path d="M 203.283107 129.190598 
L 205.083107 126.190598 
L 203.283107 123.190598 
L 201.483107 126.190598 
z
" clip-path="url(#p0fea9102eb)" style="fill: #332288; fill-opacity: 0.6; stroke: #ffffff; stroke-opacity: 0.6; stroke-width: 0.339411"/>
    <path d="M 198.012793 138.988706 
L 199.812793 135.988706 
L 198.012793 132.988706 
L 196.212793 135.988706 
z
" clip-path="url(#p0fea9102eb)" style="fill: #332288; fill-opacity: 0.6; stroke: #ffffff; stroke-opacity: 0.6; stroke-width: 0.339411"/>
    <path d="M 170.83488 166.950677 
L 172.63488 163.950677 
L 170.83488 160.950677 
L 169.03488 163.950677 
z
" clip-path="url(#p0fea9102eb)" style="fill: #332288; fill-opacity: 0.6; stroke: #ffffff; stroke-opacity: 0.6; stroke-width: 0.339411"/>
    <path d="M 187.649788 77.908382 
L 189.449788 74.908382 
L 187.649788 71.908382 
L 185.849788 74.908382 
z
" clip-path="url(#p0fea9102eb)" style="fill: #332288; fill-opacity: 0.6; stroke: #ffffff; stroke-opacity: 0.6; stroke-width: 0.339411"/>
    <path d="M 189.579059 155.738006 
L 191.379059 152.738006 
L 189.579059 149.738006 
L 187.779059 152.738006 
z
" clip-path="url(#p0fea9102eb)" style="fill: #332288; fill-opacity: 0.6; stroke: #ffffff; stroke-opacity: 0.6; stroke-width: 0.339411"/>
    <path d="M 197.414486 152.997962 
L 199.214486 149.997962 
L 197.414486 146.997962 
L 195.614486 149.997962 
z
" clip-path="url(#p0fea9102eb)" style="fill: #332288; fill-opacity: 0.6; stroke: #ffffff; stroke-opacity: 0.6; stroke-width: 0.339411"/>
    <path d="M 194.708376 148.686462 
L 196.508376 145.686462 
L 194.708376 142.686462 
L 192.908376 145.686462 
z
" clip-path="url(#p0fea9102eb)" style="fill: #332288; fill-opacity: 0.6; stroke: #ffffff; stroke-opacity: 0.6; stroke-width: 0.339411"/>
    <path d="M 195.05611 66.631484 
L 196.85611 63.631484 
L 195.05611 60.631484 
L 193.25611 63.631484 
z
" clip-path="url(#p0fea9102eb)" style="fill: #332288; fill-opacity: 0.6; stroke: #ffffff; stroke-opacity: 0.6; stroke-width: 0.339411"/>
    <path d="M 195.259718 130.025674 
L 197.059718 127.025674 
L 195.259718 124.025674 
L 193.459718 127.025674 
z
" clip-path="url(#p0fea9102eb)" style="fill: #332288; fill-opacity: 0.6; stroke: #ffffff; stroke-opacity: 0.6; stroke-width: 0.339411"/>
    <path d="M 185.493694 83.446219 
L 187.293694 80.446219 
L 185.493694 77.446219 
L 183.693694 80.446219 
z
" clip-path="url(#p0fea9102eb)" style="fill: #332288; fill-opacity: 0.6; stroke: #ffffff; stroke-opacity: 0.6; stroke-width: 0.339411"/>
    <path d="M 189.067401 78.132155 
L 190.867401 75.132155 
L 189.067401 72.132155 
L 187.267401 75.132155 
z
" clip-path="url(#p0fea9102eb)" style="fill: #332288; fill-opacity: 0.6; stroke: #ffffff; stroke-opacity: 0.6; stroke-width: 0.339411"/>
    <path d="M 211.933716 126.111314 
L 213.733716 123.111314 
L 211.933716 120.111314 
L 210.133716 123.111314 
z
" clip-path="url(#p0fea9102eb)" style="fill: #332288; fill-opacity: 0.6; stroke: #ffffff; stroke-opacity: 0.6; stroke-width: 0.339411"/>
    <path d="M 213.990011 122.383087 
L 215.790011 119.383087 
L 213.990011 116.383087 
L 212.190011 119.383087 
z
" clip-path="url(#p0fea9102eb)" style="fill: #332288; fill-opacity: 0.6; stroke: #ffffff; stroke-opacity: 0.6; stroke-width: 0.339411"/>
    <path d="M 200.888581 70.721969 
L 202.688581 67.721969 
L 200.888581 64.721969 
L 199.088581 67.721969 
z
" clip-path="url(#p0fea9102eb)" style="fill: #332288; fill-opacity: 0.6; stroke: #ffffff; stroke-opacity: 0.6; stroke-width: 0.339411"/>
    <path d="M 205.441884 134.568401 
L 207.241884 131.568401 
L 205.441884 128.568401 
L 203.641884 131.568401 
z
" clip-path="url(#p0fea9102eb)" style="fill: #332288; fill-opacity: 0.6; stroke: #ffffff; stroke-opacity: 0.6; stroke-width: 0.339411"/>
    <path d="M 207.586717 142.657195 
L 209.386717 139.657195 
L 207.586717 136.657195 
L 205.786717 139.657195 
z
" clip-path="url(#p0fea9102eb)" style="fill: #332288; fill-opacity: 0.6; stroke: #ffffff; stroke-opacity: 0.6; stroke-width: 0.339411"/>
    <path d="M 175.686645 73.475744 
L 177.486645 70.475744 
L 175.686645 67.475744 
L 173.886645 70.475744 
z
" clip-path="url(#p0fea9102eb)" style="fill: #332288; fill-opacity: 0.6; stroke: #ffffff; stroke-opacity: 0.6; stroke-width: 0.339411"/>
    <path d="M 175.750582 96.283889 
L 177.550582 93.283889 
L 175.750582 90.283889 
L 173.950582 93.283889 
z
" clip-path="url(#p0fea9102eb)" style="fill: #332288; fill-opacity: 0.6; stroke: #ffffff; stroke-opacity: 0.6; stroke-width: 0.339411"/>
    <path d="M 192.153877 84.019991 
L 193.953877 81.019991 
L 192.153877 78.019991 
L 190.353877 81.019991 
z
" clip-path="url(#p0fea9102eb)" style="fill: #332288; fill-opacity: 0.6; stroke: #ffffff; stroke-opacity: 0.6; stroke-width: 0.339411"/>
    <path d="M 172.917074 164.558226 
L 174.717074 161.558226 
L 172.917074 158.558226 
L 171.117074 161.558226 
z
" clip-path="url(#p0fea9102eb)" style="fill: #332288; fill-opacity: 0.6; stroke: #ffffff; stroke-opacity: 0.6; stroke-width: 0.339411"/>
    <path d="M 196.685276 150.485255 
L 198.485276 147.485255 
L 196.685276 144.485255 
L 194.885276 147.485255 
z
" clip-path="url(#p0fea9102eb)" style="fill: #332288; fill-opacity: 0.6; stroke: #ffffff; stroke-opacity: 0.6; stroke-width: 0.339411"/>
    <path d="M 81.627519 133.469625 
L 83.427519 130.469625 
L 81.627519 127.469625 
L 79.827519 130.469625 
z
" clip-path="url(#p0fea9102eb)" style="fill: #332288; fill-opacity: 0.6; stroke: #ffffff; stroke-opacity: 0.6; stroke-width: 0.339411"/>
    <path d="M 170.015042 167.945536 
L 171.815042 164.945536 
L 170.015042 161.945536 
L 168.215042 164.945536 
z
" clip-path="url(#p0fea9102eb)" style="fill: #332288; fill-opacity: 0.6; stroke: #ffffff; stroke-opacity: 0.6; stroke-width: 0.339411"/>
    <path d="M 194.382517 152.041797 
L 196.182517 149.041797 
L 194.382517 146.041797 
L 192.582517 149.041797 
z
" clip-path="url(#p0fea9102eb)" style="fill: #332288; fill-opacity: 0.6; stroke: #ffffff; stroke-opacity: 0.6; stroke-width: 0.339411"/>
    <path d="M 213.320686 126.023814 
L 215.120686 123.023814 
L 213.320686 120.023814 
L 211.520686 123.023814 
z
" clip-path="url(#p0fea9102eb)" style="fill: #332288; fill-opacity: 0.6; stroke: #ffffff; stroke-opacity: 0.6; stroke-width: 0.339411"/>
    <path d="M 174.000117 76.347205 
L 175.800117 73.347205 
L 174.000117 70.347205 
L 172.200117 73.347205 
z
" clip-path="url(#p0fea9102eb)" style="fill: #332288; fill-opacity: 0.6; stroke: #ffffff; stroke-opacity: 0.6; stroke-width: 0.339411"/>
    <path d="M 208.048281 120.714019 
L 209.848281 117.714019 
L 208.048281 114.714019 
L 206.248281 117.714019 
z
" clip-path="url(#p0fea9102eb)" style="fill: #332288; fill-opacity: 0.6; stroke: #ffffff; stroke-opacity: 0.6; stroke-width: 0.339411"/>
    <path d="M 164.774915 164.419237 
L 166.574915 161.419237 
L 164.774915 158.419237 
L 162.974915 161.419237 
z
" clip-path="url(#p0fea9102eb)" style="fill: #332288; fill-opacity: 0.6; stroke: #ffffff; stroke-opacity: 0.6; stroke-width: 0.339411"/>
    <path d="M 176.883288 67.795532 
L 178.683288 64.795532 
L 176.883288 61.795532 
L 175.083288 64.795532 
z
" clip-path="url(#p0fea9102eb)" style="fill: #332288; fill-opacity: 0.6; stroke: #ffffff; stroke-opacity: 0.6; stroke-width: 0.339411"/>
    <path d="M 202.257743 151.395418 
L 204.057743 148.395418 
L 202.257743 145.395418 
L 200.457743 148.395418 
z
" clip-path="url(#p0fea9102eb)" style="fill: #332288; fill-opacity: 0.6; stroke: #ffffff; stroke-opacity: 0.6; stroke-width: 0.339411"/>
    <path d="M 200.346785 75.849513 
L 202.146785 72.849513 
L 200.346785 69.849513 
L 198.546785 72.849513 
z
" clip-path="url(#p0fea9102eb)" style="fill: #332288; fill-opacity: 0.6; stroke: #ffffff; stroke-opacity: 0.6; stroke-width: 0.339411"/>
    <path d="M 192.526701 67.365143 
L 194.326701 64.365143 
L 192.526701 61.365143 
L 190.726701 64.365143 
z
" clip-path="url(#p0fea9102eb)" style="fill: #332288; fill-opacity: 0.6; stroke: #ffffff; stroke-opacity: 0.6; stroke-width: 0.339411"/>
    <path d="M 190.640834 145.205579 
L 192.440834 142.205579 
L 190.640834 139.205579 
L 188.840834 142.205579 
z
" clip-path="url(#p0fea9102eb)" style="fill: #332288; fill-opacity: 0.6; stroke: #ffffff; stroke-opacity: 0.6; stroke-width: 0.339411"/>
    <path d="M 201.532397 126.51451 
L 203.332397 123.51451 
L 201.532397 120.51451 
L 199.732397 123.51451 
z
" clip-path="url(#p0fea9102eb)" style="fill: #332288; fill-opacity: 0.6; stroke: #ffffff; stroke-opacity: 0.6; stroke-width: 0.339411"/>
    <path d="M 187.928264 65.176071 
L 189.728264 62.176071 
L 187.928264 59.176071 
L 186.128264 62.176071 
z
" clip-path="url(#p0fea9102eb)" style="fill: #332288; fill-opacity: 0.6; stroke: #ffffff; stroke-opacity: 0.6; stroke-width: 0.339411"/>
    <path d="M 167.866957 65.895187 
L 169.666957 62.895187 
L 167.866957 59.895187 
L 166.066957 62.895187 
z
" clip-path="url(#p0fea9102eb)" style="fill: #332288; fill-opacity: 0.6; stroke: #ffffff; stroke-opacity: 0.6; stroke-width: 0.339411"/>
    <path d="M 166.67888 158.013671 
L 168.47888 155.013671 
L 166.67888 152.013671 
L 164.87888 155.013671 
z
" clip-path="url(#p0fea9102eb)" style="fill: #332288; fill-opacity: 0.6; stroke: #ffffff; stroke-opacity: 0.6; stroke-width: 0.339411"/>
    <path d="M 178.795471 83.027223 
L 180.595471 80.027223 
L 178.795471 77.027223 
L 176.995471 80.027223 
z
" clip-path="url(#p0fea9102eb)" style="fill: #332288; fill-opacity: 0.6; stroke: #ffffff; stroke-opacity: 0.6; stroke-width: 0.339411"/>
    <path d="M 199.522736 69.992427 
L 201.322736 66.992427 
L 199.522736 63.992427 
L 197.722736 66.992427 
z
" clip-path="url(#p0fea9102eb)" style="fill: #332288; fill-opacity: 0.6; stroke: #ffffff; stroke-opacity: 0.6; stroke-width: 0.339411"/>
    <path d="M 185.510378 96.965744 
L 187.310378 93.965744 
L 185.510378 90.965744 
L 183.710378 93.965744 
z
" clip-path="url(#p0fea9102eb)" style="fill: #332288; fill-opacity: 0.6; stroke: #ffffff; stroke-opacity: 0.6; stroke-width: 0.339411"/>
    <path d="M 168.862848 94.340213 
L 170.662848 91.340213 
L 168.862848 88.340213 
L 167.062848 91.340213 
z
" clip-path="url(#p0fea9102eb)" style="fill: #332288; fill-opacity: 0.6; stroke: #ffffff; stroke-opacity: 0.6; stroke-width: 0.339411"/>
    <path d="M 183.869114 139.797333 
L 185.669114 136.797333 
L 183.869114 133.797333 
L 182.069114 136.797333 
z
" clip-path="url(#p0fea9102eb)" style="fill: #332288; fill-opacity: 0.6; stroke: #ffffff; stroke-opacity: 0.6; stroke-width: 0.339411"/>
    <path d="M 187.947471 150.110622 
L 189.747471 147.110622 
L 187.947471 144.110622 
L 186.147471 147.110622 
z
" clip-path="url(#p0fea9102eb)" style="fill: #332288; fill-opacity: 0.6; stroke: #ffffff; stroke-opacity: 0.6; stroke-width: 0.339411"/>
    <path d="M 189.033687 153.635073 
L 190.833687 150.635073 
L 189.033687 147.635073 
L 187.233687 150.635073 
z
" clip-path="url(#p0fea9102eb)" style="fill: #332288; fill-opacity: 0.6; stroke: #ffffff; stroke-opacity: 0.6; stroke-width: 0.339411"/>
    <path d="M 182.437471 130.621325 
L 184.237471 127.621325 
L 182.437471 124.621325 
L 180.637471 127.621325 
z
" clip-path="url(#p0fea9102eb)" style="fill: #332288; fill-opacity: 0.6; stroke: #ffffff; stroke-opacity: 0.6; stroke-width: 0.339411"/>
    <path d="M 163.526952 162.204303 
L 165.326952 159.204303 
L 163.526952 156.204303 
L 161.726952 159.204303 
z
" clip-path="url(#p0fea9102eb)" style="fill: #332288; fill-opacity: 0.6; stroke: #ffffff; stroke-opacity: 0.6; stroke-width: 0.339411"/>
    <path d="M 198.352914 71.100698 
L 200.152914 68.100698 
L 198.352914 65.100698 
L 196.552914 68.100698 
z
" clip-path="url(#p0fea9102eb)" style="fill: #332288; fill-opacity: 0.6; stroke: #ffffff; stroke-opacity: 0.6; stroke-width: 0.339411"/>
    <path d="M 182.611381 87.17344 
L 184.411381 84.17344 
L 182.611381 81.17344 
L 180.811381 84.17344 
z
" clip-path="url(#p0fea9102eb)" style="fill: #332288; fill-opacity: 0.6; stroke: #ffffff; stroke-opacity: 0.6; stroke-width: 0.339411"/>
    <path d="M 207.246409 141.970415 
L 209.046409 138.970415 
L 207.246409 135.970415 
L 205.446409 138.970415 
z
" clip-path="url(#p0fea9102eb)" style="fill: #332288; fill-opacity: 0.6; stroke: #ffffff; stroke-opacity: 0.6; stroke-width: 0.339411"/>
    <path d="M 185.750316 81.181363 
L 187.550316 78.181363 
L 185.750316 75.181363 
L 183.950316 78.181363 
z
" clip-path="url(#p0fea9102eb)" style="fill: #332288; fill-opacity: 0.6; stroke: #ffffff; stroke-opacity: 0.6; stroke-width: 0.339411"/>
    <path d="M 205.850643 144.503908 
L 207.650643 141.503908 
L 205.850643 138.503908 
L 204.050643 141.503908 
z
" clip-path="url(#p0fea9102eb)" style="fill: #332288; fill-opacity: 0.6; stroke: #ffffff; stroke-opacity: 0.6; stroke-width: 0.339411"/>
    <path d="M 191.131785 136.703994 
L 192.931785 133.703994 
L 191.131785 130.703994 
L 189.331785 133.703994 
z
" clip-path="url(#p0fea9102eb)" style="fill: #332288; fill-opacity: 0.6; stroke: #ffffff; stroke-opacity: 0.6; stroke-width: 0.339411"/>
    <path d="M 195.541438 157.552862 
L 197.341438 154.552862 
L 195.541438 151.552862 
L 193.741438 154.552862 
z
" clip-path="url(#p0fea9102eb)" style="fill: #332288; fill-opacity: 0.6; stroke: #ffffff; stroke-opacity: 0.6; stroke-width: 0.339411"/>
    <path d="M 178.559844 68.02746 
L 180.359844 65.02746 
L 178.559844 62.02746 
L 176.759844 65.02746 
z
" clip-path="url(#p0fea9102eb)" style="fill: #332288; fill-opacity: 0.6; stroke: #ffffff; stroke-opacity: 0.6; stroke-width: 0.339411"/>
    <path d="M 129.572135 107.936661 
L 127.450815 112.179302 
L 131.693456 112.179302 
z
" clip-path="url(#p0fea9102eb)" style="fill: #117733; fill-opacity: 0.6; stroke: #ffffff; stroke-opacity: 0.6; stroke-width: 0.339411"/>
    <path d="M 150.429834 83.870495 
L 148.308514 88.113135 
L 152.551155 88.113135 
z
" clip-path="url(#p0fea9102eb)" style="fill: #117733; fill-opacity: 0.6; stroke: #ffffff; stroke-opacity: 0.6; stroke-width: 0.339411"/>
    <path d="M 142.415479 90.031766 
L 140.294159 94.274407 
L 144.536799 94.274407 
z
" clip-path="url(#p0fea9102eb)" style="fill: #117733; fill-opacity: 0.6; stroke: #ffffff; stroke-opacity: 0.6; stroke-width: 0.339411"/>
    <path d="M 175.549044 95.438268 
L 173.427723 99.680909 
L 177.670364 99.680909 
z
" clip-path="url(#p0fea9102eb)" style="fill: #117733; fill-opacity: 0.6; stroke: #ffffff; stroke-opacity: 0.6; stroke-width: 0.339411"/>
    <path d="M 168.204554 113.365961 
L 166.083234 117.608602 
L 170.325874 117.608602 
z
" clip-path="url(#p0fea9102eb)" style="fill: #117733; fill-opacity: 0.6; stroke: #ffffff; stroke-opacity: 0.6; stroke-width: 0.339411"/>
    <path d="M 166.945682 127.21035 
L 164.824362 131.452991 
L 169.067003 131.452991 
z
" clip-path="url(#p0fea9102eb)" style="fill: #117733; fill-opacity: 0.6; stroke: #ffffff; stroke-opacity: 0.6; stroke-width: 0.339411"/>
    <path d="M 155.089779 89.005544 
L 152.968459 93.248184 
L 157.211099 93.248184 
z
" clip-path="url(#p0fea9102eb)" style="fill: #117733; fill-opacity: 0.6; stroke: #ffffff; stroke-opacity: 0.6; stroke-width: 0.339411"/>
    <path d="M 158.79188 87.800032 
L 156.67056 92.042673 
L 160.9132 92.042673 
z
" clip-path="url(#p0fea9102eb)" style="fill: #117733; fill-opacity: 0.6; stroke: #ffffff; stroke-opacity: 0.6; stroke-width: 0.339411"/>
    <path d="M 175.51422 76.056474 
L 173.3929 80.299115 
L 177.63554 80.299115 
z
" clip-path="url(#p0fea9102eb)" style="fill: #117733; fill-opacity: 0.6; stroke: #ffffff; stroke-opacity: 0.6; stroke-width: 0.339411"/>
    <path d="M 177.764036 108.060059 
L 175.642716 112.302699 
L 179.885357 112.302699 
z
" clip-path="url(#p0fea9102eb)" style="fill: #117733; fill-opacity: 0.6; stroke: #ffffff; stroke-opacity: 0.6; stroke-width: 0.339411"/>
    <path d="M 158.455574 78.170463 
L 156.334254 82.413103 
L 160.576894 82.413103 
z
" clip-path="url(#p0fea9102eb)" style="fill: #117733; fill-opacity: 0.6; stroke: #ffffff; stroke-opacity: 0.6; stroke-width: 0.339411"/>
    <path d="M 137.979712 83.231718 
L 135.858391 87.474359 
L 140.101032 87.474359 
z
" clip-path="url(#p0fea9102eb)" style="fill: #117733; fill-opacity: 0.6; stroke: #ffffff; stroke-opacity: 0.6; stroke-width: 0.339411"/>
    <path d="M 140.482827 65.669691 
L 138.361506 69.912331 
L 142.604147 69.912331 
z
" clip-path="url(#p0fea9102eb)" style="fill: #117733; fill-opacity: 0.6; stroke: #ffffff; stroke-opacity: 0.6; stroke-width: 0.339411"/>
    <path d="M 157.903389 65.0432 
L 155.782068 69.285841 
L 160.024709 69.285841 
z
" clip-path="url(#p0fea9102eb)" style="fill: #117733; fill-opacity: 0.6; stroke: #ffffff; stroke-opacity: 0.6; stroke-width: 0.339411"/>
    <path d="M 87.778112 102.092546 
L 85.656791 106.335187 
L 89.899432 106.335187 
z
" clip-path="url(#p0fea9102eb)" style="fill: #117733; fill-opacity: 0.6; stroke: #ffffff; stroke-opacity: 0.6; stroke-width: 0.339411"/>
    <path d="M 175.191303 108.474838 
L 173.069982 112.717478 
L 177.312623 112.717478 
z
" clip-path="url(#p0fea9102eb)" style="fill: #117733; fill-opacity: 0.6; stroke: #ffffff; stroke-opacity: 0.6; stroke-width: 0.339411"/>
    <path d="M 163.97083 94.581673 
L 161.84951 98.824314 
L 166.092151 98.824314 
z
" clip-path="url(#p0fea9102eb)" style="fill: #117733; fill-opacity: 0.6; stroke: #ffffff; stroke-opacity: 0.6; stroke-width: 0.339411"/>
    <path d="M 125.830603 105.144724 
L 123.709283 109.387365 
L 127.951923 109.387365 
z
" clip-path="url(#p0fea9102eb)" style="fill: #117733; fill-opacity: 0.6; stroke: #ffffff; stroke-opacity: 0.6; stroke-width: 0.339411"/>
    <path d="M 127.809612 128.20168 
L 125.688291 132.444321 
L 129.930932 132.444321 
z
" clip-path="url(#p0fea9102eb)" style="fill: #117733; fill-opacity: 0.6; stroke: #ffffff; stroke-opacity: 0.6; stroke-width: 0.339411"/>
    <path d="M 177.410008 82.567585 
L 175.288688 86.810225 
L 179.531328 86.810225 
z
" clip-path="url(#p0fea9102eb)" style="fill: #117733; fill-opacity: 0.6; stroke: #ffffff; stroke-opacity: 0.6; stroke-width: 0.339411"/>
    <path d="M 126.573 77.810321 
L 124.45168 82.052961 
L 128.694321 82.052961 
z
" clip-path="url(#p0fea9102eb)" style="fill: #117733; fill-opacity: 0.6; stroke: #ffffff; stroke-opacity: 0.6; stroke-width: 0.339411"/>
    <path d="M 169.910577 79.510871 
L 167.789257 83.753512 
L 172.031898 83.753512 
z
" clip-path="url(#p0fea9102eb)" style="fill: #117733; fill-opacity: 0.6; stroke: #ffffff; stroke-opacity: 0.6; stroke-width: 0.339411"/>
    <path d="M 141.632418 73.477194 
L 139.511097 77.719834 
L 143.753738 77.719834 
z
" clip-path="url(#p0fea9102eb)" style="fill: #117733; fill-opacity: 0.6; stroke: #ffffff; stroke-opacity: 0.6; stroke-width: 0.339411"/>
    <path d="M 172.369488 84.993352 
L 170.248168 89.235992 
L 174.490808 89.235992 
z
" clip-path="url(#p0fea9102eb)" style="fill: #117733; fill-opacity: 0.6; stroke: #ffffff; stroke-opacity: 0.6; stroke-width: 0.339411"/>
    <path d="M 167.223285 87.183217 
L 165.101965 91.425858 
L 169.344606 91.425858 
z
" clip-path="url(#p0fea9102eb)" style="fill: #117733; fill-opacity: 0.6; stroke: #ffffff; stroke-opacity: 0.6; stroke-width: 0.339411"/>
    <path d="M 178.799322 113.359032 
L 176.678001 117.601673 
L 180.920642 117.601673 
z
" clip-path="url(#p0fea9102eb)" style="fill: #117733; fill-opacity: 0.6; stroke: #ffffff; stroke-opacity: 0.6; stroke-width: 0.339411"/>
    <path d="M 180.086564 103.591075 
L 177.965244 107.833716 
L 182.207885 107.833716 
z
" clip-path="url(#p0fea9102eb)" style="fill: #117733; fill-opacity: 0.6; stroke: #ffffff; stroke-opacity: 0.6; stroke-width: 0.339411"/>
    <path d="M 81.410632 77.915174 
L 79.289312 82.157815 
L 83.531953 82.157815 
z
" clip-path="url(#p0fea9102eb)" style="fill: #117733; fill-opacity: 0.6; stroke: #ffffff; stroke-opacity: 0.6; stroke-width: 0.339411"/>
    <path d="M 155.320727 81.106122 
L 153.199406 85.348762 
L 157.442047 85.348762 
z
" clip-path="url(#p0fea9102eb)" style="fill: #117733; fill-opacity: 0.6; stroke: #ffffff; stroke-opacity: 0.6; stroke-width: 0.339411"/>
    <path d="M 162.534076 83.826493 
L 160.412755 88.069133 
L 164.655396 88.069133 
z
" clip-path="url(#p0fea9102eb)" style="fill: #117733; fill-opacity: 0.6; stroke: #ffffff; stroke-opacity: 0.6; stroke-width: 0.339411"/>
    <path d="M 164.699233 78.965644 
L 162.577913 83.208284 
L 166.820553 83.208284 
z
" clip-path="url(#p0fea9102eb)" style="fill: #117733; fill-opacity: 0.6; stroke: #ffffff; stroke-opacity: 0.6; stroke-width: 0.339411"/>
    <path d="M 88.475881 114.997726 
L 86.354561 119.240366 
L 90.597202 119.240366 
z
" clip-path="url(#p0fea9102eb)" style="fill: #117733; fill-opacity: 0.6; stroke: #ffffff; stroke-opacity: 0.6; stroke-width: 0.339411"/>
    <path d="M 173.712391 99.891469 
L 171.591071 104.13411 
L 175.833712 104.13411 
z
" clip-path="url(#p0fea9102eb)" style="fill: #117733; fill-opacity: 0.6; stroke: #ffffff; stroke-opacity: 0.6; stroke-width: 0.339411"/>
    <path d="M 180.211995 87.519524 
L 178.090675 91.762164 
L 182.333316 91.762164 
z
" clip-path="url(#p0fea9102eb)" style="fill: #117733; fill-opacity: 0.6; stroke: #ffffff; stroke-opacity: 0.6; stroke-width: 0.339411"/>
    <path d="M 159.849956 118.287056 
L 157.728636 122.529697 
L 161.971276 122.529697 
z
" clip-path="url(#p0fea9102eb)" style="fill: #117733; fill-opacity: 0.6; stroke: #ffffff; stroke-opacity: 0.6; stroke-width: 0.339411"/>
    <path d="M 107.230053 72.18313 
L 105.108733 76.425771 
L 109.351373 76.425771 
z
" clip-path="url(#p0fea9102eb)" style="fill: #117733; fill-opacity: 0.6; stroke: #ffffff; stroke-opacity: 0.6; stroke-width: 0.339411"/>
    <path d="M 166.726854 105.944549 
L 164.605534 110.187189 
L 168.848175 110.187189 
z
" clip-path="url(#p0fea9102eb)" style="fill: #117733; fill-opacity: 0.6; stroke: #ffffff; stroke-opacity: 0.6; stroke-width: 0.339411"/>
    <path d="M 134.605748 74.16667 
L 132.484428 78.409311 
L 136.727068 78.409311 
z
" clip-path="url(#p0fea9102eb)" style="fill: #117733; fill-opacity: 0.6; stroke: #ffffff; stroke-opacity: 0.6; stroke-width: 0.339411"/>
    <path d="M 164.884542 77.488485 
L 162.763222 81.731125 
L 167.005862 81.731125 
z
" clip-path="url(#p0fea9102eb)" style="fill: #117733; fill-opacity: 0.6; stroke: #ffffff; stroke-opacity: 0.6; stroke-width: 0.339411"/>
    <path d="M 135.190111 93.473618 
L 133.068791 97.716259 
L 137.311432 97.716259 
z
" clip-path="url(#p0fea9102eb)" style="fill: #117733; fill-opacity: 0.6; stroke: #ffffff; stroke-opacity: 0.6; stroke-width: 0.339411"/>
    <path d="M 193.770136 115.240797 
L 191.648816 119.483438 
L 195.891457 119.483438 
z
" clip-path="url(#p0fea9102eb)" style="fill: #117733; fill-opacity: 0.6; stroke: #ffffff; stroke-opacity: 0.6; stroke-width: 0.339411"/>
    <path d="M 190.609586 86.253911 
L 188.488266 90.496551 
L 192.730906 90.496551 
z
" clip-path="url(#p0fea9102eb)" style="fill: #117733; fill-opacity: 0.6; stroke: #ffffff; stroke-opacity: 0.6; stroke-width: 0.339411"/>
    <path d="M 158.937902 111.654804 
L 156.816582 115.897445 
L 161.059223 115.897445 
z
" clip-path="url(#p0fea9102eb)" style="fill: #117733; fill-opacity: 0.6; stroke: #ffffff; stroke-opacity: 0.6; stroke-width: 0.339411"/>
    <path d="M 172.677106 102.393834 
L 170.555786 106.636475 
L 174.798426 106.636475 
z
" clip-path="url(#p0fea9102eb)" style="fill: #117733; fill-opacity: 0.6; stroke: #ffffff; stroke-opacity: 0.6; stroke-width: 0.339411"/>
    <path d="M 166.236422 98.573757 
L 164.115101 102.816398 
L 168.357742 102.816398 
z
" clip-path="url(#p0fea9102eb)" style="fill: #117733; fill-opacity: 0.6; stroke: #ffffff; stroke-opacity: 0.6; stroke-width: 0.339411"/>
    <path d="M 169.762825 131.423428 
L 167.641504 135.666069 
L 171.884145 135.666069 
z
" clip-path="url(#p0fea9102eb)" style="fill: #117733; fill-opacity: 0.6; stroke: #ffffff; stroke-opacity: 0.6; stroke-width: 0.339411"/>
    <path d="M 146.169362 103.95377 
L 144.048041 108.196411 
L 148.290682 108.196411 
z
" clip-path="url(#p0fea9102eb)" style="fill: #117733; fill-opacity: 0.6; stroke: #ffffff; stroke-opacity: 0.6; stroke-width: 0.339411"/>
    <path d="M 145.411816 75.890307 
L 143.290496 80.132948 
L 147.533137 80.132948 
z
" clip-path="url(#p0fea9102eb)" style="fill: #117733; fill-opacity: 0.6; stroke: #ffffff; stroke-opacity: 0.6; stroke-width: 0.339411"/>
    <path d="M 153.311599 63.201479 
L 151.190279 67.44412 
L 155.432919 67.44412 
z
" clip-path="url(#p0fea9102eb)" style="fill: #117733; fill-opacity: 0.6; stroke: #ffffff; stroke-opacity: 0.6; stroke-width: 0.339411"/>
    <path d="M 135.270884 68.798409 
L 133.149564 73.04105 
L 137.392204 73.04105 
z
" clip-path="url(#p0fea9102eb)" style="fill: #117733; fill-opacity: 0.6; stroke: #ffffff; stroke-opacity: 0.6; stroke-width: 0.339411"/>
    <path d="M 146.3187 72.417077 
L 144.19738 76.659718 
L 148.440021 76.659718 
z
" clip-path="url(#p0fea9102eb)" style="fill: #117733; fill-opacity: 0.6; stroke: #ffffff; stroke-opacity: 0.6; stroke-width: 0.339411"/>
    <path d="M 76.855766 129.355168 
L 74.734446 133.597809 
L 78.977087 133.597809 
z
" clip-path="url(#p0fea9102eb)" style="fill: #117733; fill-opacity: 0.6; stroke: #ffffff; stroke-opacity: 0.6; stroke-width: 0.339411"/>
    <path d="M 102.910513 79.731257 
L 100.789193 83.973897 
L 105.031834 83.973897 
z
" clip-path="url(#p0fea9102eb)" style="fill: #117733; fill-opacity: 0.6; stroke: #ffffff; stroke-opacity: 0.6; stroke-width: 0.339411"/>
    <path d="M 141.390756 78.849175 
L 139.269436 83.091815 
L 143.512076 83.091815 
z
" clip-path="url(#p0fea9102eb)" style="fill: #117733; fill-opacity: 0.6; stroke: #ffffff; stroke-opacity: 0.6; stroke-width: 0.339411"/>
    <path d="M 121.784903 121.92412 
L 119.663583 126.166761 
L 123.906223 126.166761 
z
" clip-path="url(#p0fea9102eb)" style="fill: #117733; fill-opacity: 0.6; stroke: #ffffff; stroke-opacity: 0.6; stroke-width: 0.339411"/>
    <path d="M 164.9207 110.266237 
L 162.799379 114.508878 
L 167.04202 114.508878 
z
" clip-path="url(#p0fea9102eb)" style="fill: #117733; fill-opacity: 0.6; stroke: #ffffff; stroke-opacity: 0.6; stroke-width: 0.339411"/>
    <path d="M 114.806979 77.780133 
L 112.685659 82.022773 
L 116.9283 82.022773 
z
" clip-path="url(#p0fea9102eb)" style="fill: #117733; fill-opacity: 0.6; stroke: #ffffff; stroke-opacity: 0.6; stroke-width: 0.339411"/>
    <path d="M 162.700985 100.425442 
L 160.579665 104.668083 
L 164.822305 104.668083 
z
" clip-path="url(#p0fea9102eb)" style="fill: #117733; fill-opacity: 0.6; stroke: #ffffff; stroke-opacity: 0.6; stroke-width: 0.339411"/>
    <path d="M 171.390217 96.315433 
L 169.268896 100.558074 
L 173.511537 100.558074 
z
" clip-path="url(#p0fea9102eb)" style="fill: #117733; fill-opacity: 0.6; stroke: #ffffff; stroke-opacity: 0.6; stroke-width: 0.339411"/>
    <path d="M 130.194451 67.378915 
L 128.073131 71.621556 
L 132.315772 71.621556 
z
" clip-path="url(#p0fea9102eb)" style="fill: #117733; fill-opacity: 0.6; stroke: #ffffff; stroke-opacity: 0.6; stroke-width: 0.339411"/>
    <path d="M 67.211913 113.712819 
L 65.090593 117.95546 
L 69.333234 117.95546 
z
" clip-path="url(#p0fea9102eb)" style="fill: #117733; fill-opacity: 0.6; stroke: #ffffff; stroke-opacity: 0.6; stroke-width: 0.339411"/>
    <path d="M 147.468479 63.818107 
L 145.347159 68.060747 
L 149.589799 68.060747 
z
" clip-path="url(#p0fea9102eb)" style="fill: #117733; fill-opacity: 0.6; stroke: #ffffff; stroke-opacity: 0.6; stroke-width: 0.339411"/>
    <path d="M 126.320643 112.730249 
L 124.199322 116.972889 
L 128.441963 116.972889 
z
" clip-path="url(#p0fea9102eb)" style="fill: #117733; fill-opacity: 0.6; stroke: #ffffff; stroke-opacity: 0.6; stroke-width: 0.339411"/>
    <path d="M 182.306453 127.270504 
L 186.549094 127.270504 
L 186.549094 123.027863 
L 182.306453 123.027863 
z
" clip-path="url(#p0fea9102eb)" style="fill: #44aa99; fill-opacity: 0.6; stroke: #ffffff; stroke-opacity: 0.6; stroke-width: 0.339411"/>
    <path d="M 110.530765 136.139464 
L 114.773406 136.139464 
L 114.773406 131.896824 
L 110.530765 131.896824 
z
" clip-path="url(#p0fea9102eb)" style="fill: #44aa99; fill-opacity: 0.6; stroke: #ffffff; stroke-opacity: 0.6; stroke-width: 0.339411"/>
    <path d="M 160.081337 108.251826 
L 164.323978 108.251826 
L 164.323978 104.009185 
L 160.081337 104.009185 
z
" clip-path="url(#p0fea9102eb)" style="fill: #44aa99; fill-opacity: 0.6; stroke: #ffffff; stroke-opacity: 0.6; stroke-width: 0.339411"/>
    <path d="M 152.201879 134.3376 
L 156.44452 134.3376 
L 156.44452 130.094959 
L 152.201879 130.094959 
z
" clip-path="url(#p0fea9102eb)" style="fill: #44aa99; fill-opacity: 0.6; stroke: #ffffff; stroke-opacity: 0.6; stroke-width: 0.339411"/>
    <path d="M 72.591477 95.318532 
L 76.834117 95.318532 
L 76.834117 91.075891 
L 72.591477 91.075891 
z
" clip-path="url(#p0fea9102eb)" style="fill: #44aa99; fill-opacity: 0.6; stroke: #ffffff; stroke-opacity: 0.6; stroke-width: 0.339411"/>
    <path d="M 150.459742 97.264775 
L 154.702382 97.264775 
L 154.702382 93.022134 
L 150.459742 93.022134 
z
" clip-path="url(#p0fea9102eb)" style="fill: #44aa99; fill-opacity: 0.6; stroke: #ffffff; stroke-opacity: 0.6; stroke-width: 0.339411"/>
    <path d="M 72.100801 135.895499 
L 76.343442 135.895499 
L 76.343442 131.652858 
L 72.100801 131.652858 
z
" clip-path="url(#p0fea9102eb)" style="fill: #44aa99; fill-opacity: 0.6; stroke: #ffffff; stroke-opacity: 0.6; stroke-width: 0.339411"/>
    <path d="M 153.973253 102.107815 
L 158.215894 102.107815 
L 158.215894 97.865174 
L 153.973253 97.865174 
z
" clip-path="url(#p0fea9102eb)" style="fill: #44aa99; fill-opacity: 0.6; stroke: #ffffff; stroke-opacity: 0.6; stroke-width: 0.339411"/>
    <path d="M 178.294643 121.619449 
L 182.537284 121.619449 
L 182.537284 117.376808 
L 178.294643 117.376808 
z
" clip-path="url(#p0fea9102eb)" style="fill: #44aa99; fill-opacity: 0.6; stroke: #ffffff; stroke-opacity: 0.6; stroke-width: 0.339411"/>
    <path d="M 67.627934 102.107245 
L 71.870575 102.107245 
L 71.870575 97.864605 
L 67.627934 97.864605 
z
" clip-path="url(#p0fea9102eb)" style="fill: #44aa99; fill-opacity: 0.6; stroke: #ffffff; stroke-opacity: 0.6; stroke-width: 0.339411"/>
    <path d="M 138.642145 91.477532 
L 142.884785 91.477532 
L 142.884785 87.234891 
L 138.642145 87.234891 
z
" clip-path="url(#p0fea9102eb)" style="fill: #44aa99; fill-opacity: 0.6; stroke: #ffffff; stroke-opacity: 0.6; stroke-width: 0.339411"/>
    <path d="M 67.992483 87.30215 
L 72.235124 87.30215 
L 72.235124 83.05951 
L 67.992483 83.05951 
z
" clip-path="url(#p0fea9102eb)" style="fill: #44aa99; fill-opacity: 0.6; stroke: #ffffff; stroke-opacity: 0.6; stroke-width: 0.339411"/>
    <path d="M 88.951943 88.085579 
L 93.194584 88.085579 
L 93.194584 83.842938 
L 88.951943 83.842938 
z
" clip-path="url(#p0fea9102eb)" style="fill: #44aa99; fill-opacity: 0.6; stroke: #ffffff; stroke-opacity: 0.6; stroke-width: 0.339411"/>
    <path d="M 157.324585 126.242778 
L 161.567226 126.242778 
L 161.567226 122.000138 
L 157.324585 122.000138 
z
" clip-path="url(#p0fea9102eb)" style="fill: #44aa99; fill-opacity: 0.6; stroke: #ffffff; stroke-opacity: 0.6; stroke-width: 0.339411"/>
    <path d="M 93.928394 136.11768 
L 98.171035 136.11768 
L 98.171035 131.875039 
L 93.928394 131.875039 
z
" clip-path="url(#p0fea9102eb)" style="fill: #44aa99; fill-opacity: 0.6; stroke: #ffffff; stroke-opacity: 0.6; stroke-width: 0.339411"/>
    <path d="M 158.040659 137.993839 
L 162.2833 137.993839 
L 162.2833 133.751198 
L 158.040659 133.751198 
z
" clip-path="url(#p0fea9102eb)" style="fill: #44aa99; fill-opacity: 0.6; stroke: #ffffff; stroke-opacity: 0.6; stroke-width: 0.339411"/>
    <path d="M 76.812752 138.09034 
L 81.055393 138.09034 
L 81.055393 133.847699 
L 76.812752 133.847699 
z
" clip-path="url(#p0fea9102eb)" style="fill: #44aa99; fill-opacity: 0.6; stroke: #ffffff; stroke-opacity: 0.6; stroke-width: 0.339411"/>
    <path d="M 95.6552 93.682524 
L 99.897841 93.682524 
L 99.897841 89.439883 
L 95.6552 89.439883 
z
" clip-path="url(#p0fea9102eb)" style="fill: #44aa99; fill-opacity: 0.6; stroke: #ffffff; stroke-opacity: 0.6; stroke-width: 0.339411"/>
    <path d="M 130.183183 94.289007 
L 134.425824 94.289007 
L 134.425824 90.046366 
L 130.183183 90.046366 
z
" clip-path="url(#p0fea9102eb)" style="fill: #44aa99; fill-opacity: 0.6; stroke: #ffffff; stroke-opacity: 0.6; stroke-width: 0.339411"/>
    <path d="M 82.875296 92.901575 
L 87.117937 92.901575 
L 87.117937 88.658935 
L 82.875296 88.658935 
z
" clip-path="url(#p0fea9102eb)" style="fill: #44aa99; fill-opacity: 0.6; stroke: #ffffff; stroke-opacity: 0.6; stroke-width: 0.339411"/>
    <path d="M 127.670349 103.796304 
L 131.91299 103.796304 
L 131.91299 99.553663 
L 127.670349 99.553663 
z
" clip-path="url(#p0fea9102eb)" style="fill: #44aa99; fill-opacity: 0.6; stroke: #ffffff; stroke-opacity: 0.6; stroke-width: 0.339411"/>
    <path d="M 118.413424 79.215703 
L 122.656065 79.215703 
L 122.656065 74.973063 
L 118.413424 74.973063 
z
" clip-path="url(#p0fea9102eb)" style="fill: #44aa99; fill-opacity: 0.6; stroke: #ffffff; stroke-opacity: 0.6; stroke-width: 0.339411"/>
    <path d="M 137.446215 102.694406 
L 141.688856 102.694406 
L 141.688856 98.451765 
L 137.446215 98.451765 
z
" clip-path="url(#p0fea9102eb)" style="fill: #44aa99; fill-opacity: 0.6; stroke: #ffffff; stroke-opacity: 0.6; stroke-width: 0.339411"/>
    <path d="M 127.913352 80.015304 
L 132.155993 80.015304 
L 132.155993 75.772663 
L 127.913352 75.772663 
z
" clip-path="url(#p0fea9102eb)" style="fill: #44aa99; fill-opacity: 0.6; stroke: #ffffff; stroke-opacity: 0.6; stroke-width: 0.339411"/>
    <path d="M 174.630906 137.484733 
L 178.873547 137.484733 
L 178.873547 133.242092 
L 174.630906 133.242092 
z
" clip-path="url(#p0fea9102eb)" style="fill: #44aa99; fill-opacity: 0.6; stroke: #ffffff; stroke-opacity: 0.6; stroke-width: 0.339411"/>
    <path d="M 91.765867 141.203921 
L 96.008507 141.203921 
L 96.008507 136.96128 
L 91.765867 136.96128 
z
" clip-path="url(#p0fea9102eb)" style="fill: #44aa99; fill-opacity: 0.6; stroke: #ffffff; stroke-opacity: 0.6; stroke-width: 0.339411"/>
    <path d="M 140.740488 112.789289 
L 144.983129 112.789289 
L 144.983129 108.546648 
L 140.740488 108.546648 
z
" clip-path="url(#p0fea9102eb)" style="fill: #44aa99; fill-opacity: 0.6; stroke: #ffffff; stroke-opacity: 0.6; stroke-width: 0.339411"/>
    <path d="M 185.288847 145.731294 
L 189.531487 145.731294 
L 189.531487 141.488653 
L 185.288847 141.488653 
z
" clip-path="url(#p0fea9102eb)" style="fill: #44aa99; fill-opacity: 0.6; stroke: #ffffff; stroke-opacity: 0.6; stroke-width: 0.339411"/>
    <path d="M 95.572535 134.933542 
L 99.815176 134.933542 
L 99.815176 130.690901 
L 95.572535 130.690901 
z
" clip-path="url(#p0fea9102eb)" style="fill: #44aa99; fill-opacity: 0.6; stroke: #ffffff; stroke-opacity: 0.6; stroke-width: 0.339411"/>
    <path d="M 146.922791 124.85929 
L 151.165432 124.85929 
L 151.165432 120.61665 
L 146.922791 120.61665 
z
" clip-path="url(#p0fea9102eb)" style="fill: #44aa99; fill-opacity: 0.6; stroke: #ffffff; stroke-opacity: 0.6; stroke-width: 0.339411"/>
    <path d="M 79.883222 122.312091 
L 84.125863 122.312091 
L 84.125863 118.06945 
L 79.883222 118.06945 
z
" clip-path="url(#p0fea9102eb)" style="fill: #44aa99; fill-opacity: 0.6; stroke: #ffffff; stroke-opacity: 0.6; stroke-width: 0.339411"/>
    <path d="M 78.70536 92.081304 
L 82.948 92.081304 
L 82.948 87.838663 
L 78.70536 87.838663 
z
" clip-path="url(#p0fea9102eb)" style="fill: #44aa99; fill-opacity: 0.6; stroke: #ffffff; stroke-opacity: 0.6; stroke-width: 0.339411"/>
    <path d="M 91.029421 88.709647 
L 95.272062 88.709647 
L 95.272062 84.467007 
L 91.029421 84.467007 
z
" clip-path="url(#p0fea9102eb)" style="fill: #44aa99; fill-opacity: 0.6; stroke: #ffffff; stroke-opacity: 0.6; stroke-width: 0.339411"/>
    <path d="M 174.842877 127.102935 
L 179.085518 127.102935 
L 179.085518 122.860294 
L 174.842877 122.860294 
z
" clip-path="url(#p0fea9102eb)" style="fill: #44aa99; fill-opacity: 0.6; stroke: #ffffff; stroke-opacity: 0.6; stroke-width: 0.339411"/>
    <path d="M 114.821761 133.972198 
L 119.064401 133.972198 
L 119.064401 129.729557 
L 114.821761 129.729557 
z
" clip-path="url(#p0fea9102eb)" style="fill: #44aa99; fill-opacity: 0.6; stroke: #ffffff; stroke-opacity: 0.6; stroke-width: 0.339411"/>
    <path d="M 70.960472 132.260627 
L 75.203112 132.260627 
L 75.203112 128.017986 
L 70.960472 128.017986 
z
" clip-path="url(#p0fea9102eb)" style="fill: #44aa99; fill-opacity: 0.6; stroke: #ffffff; stroke-opacity: 0.6; stroke-width: 0.339411"/>
    <path d="M 80.568522 93.287918 
L 84.811163 93.287918 
L 84.811163 89.045278 
L 80.568522 89.045278 
z
" clip-path="url(#p0fea9102eb)" style="fill: #44aa99; fill-opacity: 0.6; stroke: #ffffff; stroke-opacity: 0.6; stroke-width: 0.339411"/>
    <path d="M 161.249847 139.788677 
L 165.492488 139.788677 
L 165.492488 135.546037 
L 161.249847 135.546037 
z
" clip-path="url(#p0fea9102eb)" style="fill: #44aa99; fill-opacity: 0.6; stroke: #ffffff; stroke-opacity: 0.6; stroke-width: 0.339411"/>
    <path d="M 148.558972 114.69746 
L 152.801612 114.69746 
L 152.801612 110.454819 
L 148.558972 110.454819 
z
" clip-path="url(#p0fea9102eb)" style="fill: #44aa99; fill-opacity: 0.6; stroke: #ffffff; stroke-opacity: 0.6; stroke-width: 0.339411"/>
    <path d="M 167.112189 127.436703 
L 171.354829 127.436703 
L 171.354829 123.194063 
L 167.112189 123.194063 
z
" clip-path="url(#p0fea9102eb)" style="fill: #44aa99; fill-opacity: 0.6; stroke: #ffffff; stroke-opacity: 0.6; stroke-width: 0.339411"/>
    <path d="M 126.217902 82.263938 
L 130.460543 82.263938 
L 130.460543 78.021297 
L 126.217902 78.021297 
z
" clip-path="url(#p0fea9102eb)" style="fill: #44aa99; fill-opacity: 0.6; stroke: #ffffff; stroke-opacity: 0.6; stroke-width: 0.339411"/>
    <path d="M 113.795261 130.734246 
L 118.037901 130.734246 
L 118.037901 126.491605 
L 113.795261 126.491605 
z
" clip-path="url(#p0fea9102eb)" style="fill: #44aa99; fill-opacity: 0.6; stroke: #ffffff; stroke-opacity: 0.6; stroke-width: 0.339411"/>
    <path d="M 140.720863 122.850336 
L 144.963503 122.850336 
L 144.963503 118.607695 
L 140.720863 118.607695 
z
" clip-path="url(#p0fea9102eb)" style="fill: #44aa99; fill-opacity: 0.6; stroke: #ffffff; stroke-opacity: 0.6; stroke-width: 0.339411"/>
    <path d="M 141.154027 116.038381 
L 145.396667 116.038381 
L 145.396667 111.79574 
L 141.154027 111.79574 
z
" clip-path="url(#p0fea9102eb)" style="fill: #44aa99; fill-opacity: 0.6; stroke: #ffffff; stroke-opacity: 0.6; stroke-width: 0.339411"/>
    <path d="M 65.536832 111.054087 
L 69.779473 111.054087 
L 69.779473 106.811446 
L 65.536832 106.811446 
z
" clip-path="url(#p0fea9102eb)" style="fill: #44aa99; fill-opacity: 0.6; stroke: #ffffff; stroke-opacity: 0.6; stroke-width: 0.339411"/>
    <path d="M 146.040507 126.875704 
L 150.283148 126.875704 
L 150.283148 122.633063 
L 146.040507 122.633063 
z
" clip-path="url(#p0fea9102eb)" style="fill: #44aa99; fill-opacity: 0.6; stroke: #ffffff; stroke-opacity: 0.6; stroke-width: 0.339411"/>
    <path d="M 65.108113 97.425858 
L 69.350754 97.425858 
L 69.350754 93.183218 
L 65.108113 93.183218 
z
" clip-path="url(#p0fea9102eb)" style="fill: #44aa99; fill-opacity: 0.6; stroke: #ffffff; stroke-opacity: 0.6; stroke-width: 0.339411"/>
    <path d="M 70.058496 91.118911 
L 74.301137 91.118911 
L 74.301137 86.87627 
L 70.058496 86.87627 
z
" clip-path="url(#p0fea9102eb)" style="fill: #44aa99; fill-opacity: 0.6; stroke: #ffffff; stroke-opacity: 0.6; stroke-width: 0.339411"/>
    <path d="M 164.202327 130.899165 
L 168.444968 130.899165 
L 168.444968 126.656524 
L 164.202327 126.656524 
z
" clip-path="url(#p0fea9102eb)" style="fill: #44aa99; fill-opacity: 0.6; stroke: #ffffff; stroke-opacity: 0.6; stroke-width: 0.339411"/>
    <path d="M 155.38876 108.008751 
L 159.631401 108.008751 
L 159.631401 103.76611 
L 155.38876 103.76611 
z
" clip-path="url(#p0fea9102eb)" style="fill: #44aa99; fill-opacity: 0.6; stroke: #ffffff; stroke-opacity: 0.6; stroke-width: 0.339411"/>
    <path d="M 167.111799 124.134197 
L 171.35444 124.134197 
L 171.35444 119.891556 
L 167.111799 119.891556 
z
" clip-path="url(#p0fea9102eb)" style="fill: #44aa99; fill-opacity: 0.6; stroke: #ffffff; stroke-opacity: 0.6; stroke-width: 0.339411"/>
    <path d="M 70.159785 123.642788 
L 74.402426 123.642788 
L 74.402426 119.400147 
L 70.159785 119.400147 
z
" clip-path="url(#p0fea9102eb)" style="fill: #44aa99; fill-opacity: 0.6; stroke: #ffffff; stroke-opacity: 0.6; stroke-width: 0.339411"/>
    <path d="M 181.535916 111.888223 
L 185.778556 111.888223 
L 185.778556 107.645583 
L 181.535916 107.645583 
z
" clip-path="url(#p0fea9102eb)" style="fill: #44aa99; fill-opacity: 0.6; stroke: #ffffff; stroke-opacity: 0.6; stroke-width: 0.339411"/>
    <path d="M 119.784879 77.239143 
L 124.027519 77.239143 
L 124.027519 72.996502 
L 119.784879 72.996502 
z
" clip-path="url(#p0fea9102eb)" style="fill: #44aa99; fill-opacity: 0.6; stroke: #ffffff; stroke-opacity: 0.6; stroke-width: 0.339411"/>
    <path d="M 181.389331 117.891742 
L 185.631972 117.891742 
L 185.631972 113.649101 
L 181.389331 113.649101 
z
" clip-path="url(#p0fea9102eb)" style="fill: #44aa99; fill-opacity: 0.6; stroke: #ffffff; stroke-opacity: 0.6; stroke-width: 0.339411"/>
    <path d="M 163.497155 142.787603 
L 167.739795 142.787603 
L 167.739795 138.544962 
L 163.497155 138.544962 
z
" clip-path="url(#p0fea9102eb)" style="fill: #44aa99; fill-opacity: 0.6; stroke: #ffffff; stroke-opacity: 0.6; stroke-width: 0.339411"/>
    <path d="M 66.703185 120.695045 
L 70.945826 120.695045 
L 70.945826 116.452404 
L 66.703185 116.452404 
z
" clip-path="url(#p0fea9102eb)" style="fill: #44aa99; fill-opacity: 0.6; stroke: #ffffff; stroke-opacity: 0.6; stroke-width: 0.339411"/>
    <path d="M 161.158498 136.391224 
L 165.401138 136.391224 
L 165.401138 132.148583 
L 161.158498 132.148583 
z
" clip-path="url(#p0fea9102eb)" style="fill: #44aa99; fill-opacity: 0.6; stroke: #ffffff; stroke-opacity: 0.6; stroke-width: 0.339411"/>
    <path d="M 115.062445 116.723048 
L 119.305086 116.723048 
L 119.305086 112.480407 
L 115.062445 112.480407 
z
" clip-path="url(#p0fea9102eb)" style="fill: #44aa99; fill-opacity: 0.6; stroke: #ffffff; stroke-opacity: 0.6; stroke-width: 0.339411"/>
    <path d="M 152.185708 155.730218 
L 156.428348 155.730218 
L 156.428348 151.487577 
L 152.185708 151.487577 
z
" clip-path="url(#p0fea9102eb)" style="fill: #44aa99; fill-opacity: 0.6; stroke: #ffffff; stroke-opacity: 0.6; stroke-width: 0.339411"/>
    <path d="M 98.320513 88.230693 
L 102.563153 88.230693 
L 102.563153 83.988052 
L 98.320513 83.988052 
z
" clip-path="url(#p0fea9102eb)" style="fill: #44aa99; fill-opacity: 0.6; stroke: #ffffff; stroke-opacity: 0.6; stroke-width: 0.339411"/>
    <path d="M 99.350023 131.864403 
L 103.592664 131.864403 
L 103.592664 127.621762 
L 99.350023 127.621762 
z
" clip-path="url(#p0fea9102eb)" style="fill: #44aa99; fill-opacity: 0.6; stroke: #ffffff; stroke-opacity: 0.6; stroke-width: 0.339411"/>
    <path d="M 171.180402 127.044192 
L 175.423043 127.044192 
L 175.423043 122.801552 
L 171.180402 122.801552 
z
" clip-path="url(#p0fea9102eb)" style="fill: #44aa99; fill-opacity: 0.6; stroke: #ffffff; stroke-opacity: 0.6; stroke-width: 0.339411"/>
    <path d="M 124.781331 110.59346 
L 125.841991 109.5328 
L 126.902651 110.59346 
L 127.963312 109.5328 
L 126.902651 108.47214 
L 127.963312 107.41148 
L 126.902651 106.35082 
L 125.841991 107.41148 
L 124.781331 106.35082 
L 123.720671 107.41148 
L 124.781331 108.47214 
L 123.720671 109.5328 
z
" clip-path="url(#p0fea9102eb)" style="fill: #88ccee; fill-opacity: 0.6; stroke: #ffffff; stroke-opacity: 0.6; stroke-width: 0.339411"/>
    <path d="M 85.381931 116.722554 
L 86.442591 115.661894 
L 87.503251 116.722554 
L 88.563912 115.661894 
L 87.503251 114.601234 
L 88.563912 113.540574 
L 87.503251 112.479913 
L 86.442591 113.540574 
L 85.381931 112.479913 
L 84.321271 113.540574 
L 85.381931 114.601234 
L 84.321271 115.661894 
z
" clip-path="url(#p0fea9102eb)" style="fill: #88ccee; fill-opacity: 0.6; stroke: #ffffff; stroke-opacity: 0.6; stroke-width: 0.339411"/>
    <path d="M 90.334135 114.406014 
L 91.394795 113.345354 
L 92.455455 114.406014 
L 93.516115 113.345354 
L 92.455455 112.284693 
L 93.516115 111.224033 
L 92.455455 110.163373 
L 91.394795 111.224033 
L 90.334135 110.163373 
L 89.273475 111.224033 
L 90.334135 112.284693 
L 89.273475 113.345354 
z
" clip-path="url(#p0fea9102eb)" style="fill: #88ccee; fill-opacity: 0.6; stroke: #ffffff; stroke-opacity: 0.6; stroke-width: 0.339411"/>
    <path d="M 104.497285 93.271494 
L 105.557945 92.210834 
L 106.618605 93.271494 
L 107.679266 92.210834 
L 106.618605 91.150174 
L 107.679266 90.089514 
L 106.618605 89.028853 
L 105.557945 90.089514 
L 104.497285 89.028853 
L 103.436625 90.089514 
L 104.497285 91.150174 
L 103.436625 92.210834 
z
" clip-path="url(#p0fea9102eb)" style="fill: #88ccee; fill-opacity: 0.6; stroke: #ffffff; stroke-opacity: 0.6; stroke-width: 0.339411"/>
    <path d="M 131.458064 133.131176 
L 132.518724 132.070516 
L 133.579385 133.131176 
L 134.640045 132.070516 
L 133.579385 131.009856 
L 134.640045 129.949196 
L 133.579385 128.888536 
L 132.518724 129.949196 
L 131.458064 128.888536 
L 130.397404 129.949196 
L 131.458064 131.009856 
L 130.397404 132.070516 
z
" clip-path="url(#p0fea9102eb)" style="fill: #88ccee; fill-opacity: 0.6; stroke: #ffffff; stroke-opacity: 0.6; stroke-width: 0.339411"/>
    <path d="M 136.220995 104.963646 
L 137.281656 103.902986 
L 138.342316 104.963646 
L 139.402976 103.902986 
L 138.342316 102.842325 
L 139.402976 101.781665 
L 138.342316 100.721005 
L 137.281656 101.781665 
L 136.220995 100.721005 
L 135.160335 101.781665 
L 136.220995 102.842325 
L 135.160335 103.902986 
z
" clip-path="url(#p0fea9102eb)" style="fill: #88ccee; fill-opacity: 0.6; stroke: #ffffff; stroke-opacity: 0.6; stroke-width: 0.339411"/>
    <path d="M 71.055366 107.706122 
L 72.116027 106.645462 
L 73.176687 107.706122 
L 74.237347 106.645462 
L 73.176687 105.584802 
L 74.237347 104.524142 
L 73.176687 103.463482 
L 72.116027 104.524142 
L 71.055366 103.463482 
L 69.994706 104.524142 
L 71.055366 105.584802 
L 69.994706 106.645462 
z
" clip-path="url(#p0fea9102eb)" style="fill: #88ccee; fill-opacity: 0.6; stroke: #ffffff; stroke-opacity: 0.6; stroke-width: 0.339411"/>
    <path d="M 144.419665 120.863515 
L 145.480325 119.802855 
L 146.540985 120.863515 
L 147.601645 119.802855 
L 146.540985 118.742195 
L 147.601645 117.681535 
L 146.540985 116.620875 
L 145.480325 117.681535 
L 144.419665 116.620875 
L 143.359005 117.681535 
L 144.419665 118.742195 
L 143.359005 119.802855 
z
" clip-path="url(#p0fea9102eb)" style="fill: #88ccee; fill-opacity: 0.6; stroke: #ffffff; stroke-opacity: 0.6; stroke-width: 0.339411"/>
    <path d="M 103.320116 125.003179 
L 104.380776 123.942518 
L 105.441436 125.003179 
L 106.502096 123.942518 
L 105.441436 122.881858 
L 106.502096 121.821198 
L 105.441436 120.760538 
L 104.380776 121.821198 
L 103.320116 120.760538 
L 102.259456 121.821198 
L 103.320116 122.881858 
L 102.259456 123.942518 
z
" clip-path="url(#p0fea9102eb)" style="fill: #88ccee; fill-opacity: 0.6; stroke: #ffffff; stroke-opacity: 0.6; stroke-width: 0.339411"/>
    <path d="M 71.931639 103.460077 
L 72.9923 102.399417 
L 74.05296 103.460077 
L 75.11362 102.399417 
L 74.05296 101.338757 
L 75.11362 100.278096 
L 74.05296 99.217436 
L 72.9923 100.278096 
L 71.931639 99.217436 
L 70.870979 100.278096 
L 71.931639 101.338757 
L 70.870979 102.399417 
z
" clip-path="url(#p0fea9102eb)" style="fill: #88ccee; fill-opacity: 0.6; stroke: #ffffff; stroke-opacity: 0.6; stroke-width: 0.339411"/>
    <path d="M 101.969934 118.526495 
L 103.030594 117.465835 
L 104.091254 118.526495 
L 105.151915 117.465835 
L 104.091254 116.405175 
L 105.151915 115.344515 
L 104.091254 114.283854 
L 103.030594 115.344515 
L 101.969934 114.283854 
L 100.909274 115.344515 
L 101.969934 116.405175 
L 100.909274 117.465835 
z
" clip-path="url(#p0fea9102eb)" style="fill: #88ccee; fill-opacity: 0.6; stroke: #ffffff; stroke-opacity: 0.6; stroke-width: 0.339411"/>
    <path d="M 77.686207 107.597426 
L 78.746867 106.536766 
L 79.807527 107.597426 
L 80.868187 106.536766 
L 79.807527 105.476105 
L 80.868187 104.415445 
L 79.807527 103.354785 
L 78.746867 104.415445 
L 77.686207 103.354785 
L 76.625547 104.415445 
L 77.686207 105.476105 
L 76.625547 106.536766 
z
" clip-path="url(#p0fea9102eb)" style="fill: #88ccee; fill-opacity: 0.6; stroke: #ffffff; stroke-opacity: 0.6; stroke-width: 0.339411"/>
    <path d="M 98.841562 95.205942 
L 99.902222 94.145281 
L 100.962882 95.205942 
L 102.023542 94.145281 
L 100.962882 93.084621 
L 102.023542 92.023961 
L 100.962882 90.963301 
L 99.902222 92.023961 
L 98.841562 90.963301 
L 97.780901 92.023961 
L 98.841562 93.084621 
L 97.780901 94.145281 
z
" clip-path="url(#p0fea9102eb)" style="fill: #88ccee; fill-opacity: 0.6; stroke: #ffffff; stroke-opacity: 0.6; stroke-width: 0.339411"/>
    <path d="M 118.726572 104.899182 
L 119.787232 103.838522 
L 120.847892 104.899182 
L 121.908552 103.838522 
L 120.847892 102.777862 
L 121.908552 101.717202 
L 120.847892 100.656541 
L 119.787232 101.717202 
L 118.726572 100.656541 
L 117.665911 101.717202 
L 118.726572 102.777862 
L 117.665911 103.838522 
z
" clip-path="url(#p0fea9102eb)" style="fill: #88ccee; fill-opacity: 0.6; stroke: #ffffff; stroke-opacity: 0.6; stroke-width: 0.339411"/>
    <path d="M 125.505137 102.469493 
L 126.565798 101.408833 
L 127.626458 102.469493 
L 128.687118 101.408833 
L 127.626458 100.348173 
L 128.687118 99.287512 
L 127.626458 98.226852 
L 126.565798 99.287512 
L 125.505137 98.226852 
L 124.444477 99.287512 
L 125.505137 100.348173 
L 124.444477 101.408833 
z
" clip-path="url(#p0fea9102eb)" style="fill: #88ccee; fill-opacity: 0.6; stroke: #ffffff; stroke-opacity: 0.6; stroke-width: 0.339411"/>
    <path d="M 70.725767 126.628804 
L 71.786427 125.568144 
L 72.847087 126.628804 
L 73.907747 125.568144 
L 72.847087 124.507484 
L 73.907747 123.446824 
L 72.847087 122.386163 
L 71.786427 123.446824 
L 70.725767 122.386163 
L 69.665107 123.446824 
L 70.725767 124.507484 
L 69.665107 125.568144 
z
" clip-path="url(#p0fea9102eb)" style="fill: #88ccee; fill-opacity: 0.6; stroke: #ffffff; stroke-opacity: 0.6; stroke-width: 0.339411"/>
    <path d="M 133.589962 131.176072 
L 134.650623 130.115412 
L 135.711283 131.176072 
L 136.771943 130.115412 
L 135.711283 129.054752 
L 136.771943 127.994092 
L 135.711283 126.933432 
L 134.650623 127.994092 
L 133.589962 126.933432 
L 132.529302 127.994092 
L 133.589962 129.054752 
L 132.529302 130.115412 
z
" clip-path="url(#p0fea9102eb)" style="fill: #88ccee; fill-opacity: 0.6; stroke: #ffffff; stroke-opacity: 0.6; stroke-width: 0.339411"/>
    <path d="M 117.397461 114.590447 
L 118.458121 113.529787 
L 119.518781 114.590447 
L 120.579441 113.529787 
L 119.518781 112.469127 
L 120.579441 111.408466 
L 119.518781 110.347806 
L 118.458121 111.408466 
L 117.397461 110.347806 
L 116.336801 111.408466 
L 117.397461 112.469127 
L 116.336801 113.529787 
z
" clip-path="url(#p0fea9102eb)" style="fill: #88ccee; fill-opacity: 0.6; stroke: #ffffff; stroke-opacity: 0.6; stroke-width: 0.339411"/>
    <path d="M 78.982426 113.614276 
L 80.043086 112.553615 
L 81.103746 113.614276 
L 82.164407 112.553615 
L 81.103746 111.492955 
L 82.164407 110.432295 
L 81.103746 109.371635 
L 80.043086 110.432295 
L 78.982426 109.371635 
L 77.921766 110.432295 
L 78.982426 111.492955 
L 77.921766 112.553615 
z
" clip-path="url(#p0fea9102eb)" style="fill: #88ccee; fill-opacity: 0.6; stroke: #ffffff; stroke-opacity: 0.6; stroke-width: 0.339411"/>
    <path d="M 133.53516 109.16512 
L 134.59582 108.10446 
L 135.65648 109.16512 
L 136.71714 108.10446 
L 135.65648 107.043799 
L 136.71714 105.983139 
L 135.65648 104.922479 
L 134.59582 105.983139 
L 133.53516 104.922479 
L 132.4745 105.983139 
L 133.53516 107.043799 
L 132.4745 108.10446 
z
" clip-path="url(#p0fea9102eb)" style="fill: #88ccee; fill-opacity: 0.6; stroke: #ffffff; stroke-opacity: 0.6; stroke-width: 0.339411"/>
    <path d="M 86.593023 138.60101 
L 87.653683 137.54035 
L 88.714343 138.60101 
L 89.775003 137.54035 
L 88.714343 136.47969 
L 89.775003 135.41903 
L 88.714343 134.35837 
L 87.653683 135.41903 
L 86.593023 134.35837 
L 85.532363 135.41903 
L 86.593023 136.47969 
L 85.532363 137.54035 
z
" clip-path="url(#p0fea9102eb)" style="fill: #88ccee; fill-opacity: 0.6; stroke: #ffffff; stroke-opacity: 0.6; stroke-width: 0.339411"/>
    <path d="M 98.730111 108.951115 
L 99.790771 107.890455 
L 100.851431 108.951115 
L 101.912091 107.890455 
L 100.851431 106.829795 
L 101.912091 105.769135 
L 100.851431 104.708474 
L 99.790771 105.769135 
L 98.730111 104.708474 
L 97.669451 105.769135 
L 98.730111 106.829795 
L 97.669451 107.890455 
z
" clip-path="url(#p0fea9102eb)" style="fill: #88ccee; fill-opacity: 0.6; stroke: #ffffff; stroke-opacity: 0.6; stroke-width: 0.339411"/>
    <path d="M 129.982787 118.39388 
L 131.043447 117.33322 
L 132.104107 118.39388 
L 133.164767 117.33322 
L 132.104107 116.272559 
L 133.164767 115.211899 
L 132.104107 114.151239 
L 131.043447 115.211899 
L 129.982787 114.151239 
L 128.922127 115.211899 
L 129.982787 116.272559 
L 128.922127 117.33322 
z
" clip-path="url(#p0fea9102eb)" style="fill: #88ccee; fill-opacity: 0.6; stroke: #ffffff; stroke-opacity: 0.6; stroke-width: 0.339411"/>
    <path d="M 119.602157 100.258156 
L 120.662818 99.197496 
L 121.723478 100.258156 
L 122.784138 99.197496 
L 121.723478 98.136836 
L 122.784138 97.076175 
L 121.723478 96.015515 
L 120.662818 97.076175 
L 119.602157 96.015515 
L 118.541497 97.076175 
L 119.602157 98.136836 
L 118.541497 99.197496 
z
" clip-path="url(#p0fea9102eb)" style="fill: #88ccee; fill-opacity: 0.6; stroke: #ffffff; stroke-opacity: 0.6; stroke-width: 0.339411"/>
    <path d="M 128.399934 128.197352 
L 129.460594 127.136692 
L 130.521255 128.197352 
L 131.581915 127.136692 
L 130.521255 126.076032 
L 131.581915 125.015372 
L 130.521255 123.954712 
L 129.460594 125.015372 
L 128.399934 123.954712 
L 127.339274 125.015372 
L 128.399934 126.076032 
L 127.339274 127.136692 
z
" clip-path="url(#p0fea9102eb)" style="fill: #88ccee; fill-opacity: 0.6; stroke: #ffffff; stroke-opacity: 0.6; stroke-width: 0.339411"/>
    <path d="M 106.999928 108.563265 
L 108.060588 107.502605 
L 109.121248 108.563265 
L 110.181908 107.502605 
L 109.121248 106.441945 
L 110.181908 105.381285 
L 109.121248 104.320625 
L 108.060588 105.381285 
L 106.999928 104.320625 
L 105.939267 105.381285 
L 106.999928 106.441945 
L 105.939267 107.502605 
z
" clip-path="url(#p0fea9102eb)" style="fill: #88ccee; fill-opacity: 0.6; stroke: #ffffff; stroke-opacity: 0.6; stroke-width: 0.339411"/>
    <path d="M 83.805449 131.003702 
L 84.866109 129.943041 
L 85.92677 131.003702 
L 86.98743 129.943041 
L 85.92677 128.882381 
L 86.98743 127.821721 
L 85.92677 126.761061 
L 84.866109 127.821721 
L 83.805449 126.761061 
L 82.744789 127.821721 
L 83.805449 128.882381 
L 82.744789 129.943041 
z
" clip-path="url(#p0fea9102eb)" style="fill: #88ccee; fill-opacity: 0.6; stroke: #ffffff; stroke-opacity: 0.6; stroke-width: 0.339411"/>
    <path d="M 131.333607 114.488365 
L 132.394267 113.427705 
L 133.454927 114.488365 
L 134.515587 113.427705 
L 133.454927 112.367045 
L 134.515587 111.306385 
L 133.454927 110.245725 
L 132.394267 111.306385 
L 131.333607 110.245725 
L 130.272947 111.306385 
L 131.333607 112.367045 
L 130.272947 113.427705 
z
" clip-path="url(#p0fea9102eb)" style="fill: #88ccee; fill-opacity: 0.6; stroke: #ffffff; stroke-opacity: 0.6; stroke-width: 0.339411"/>
    <path d="M 90.577347 102.014663 
L 91.638007 100.954003 
L 92.698667 102.014663 
L 93.759327 100.954003 
L 92.698667 99.893343 
L 93.759327 98.832683 
L 92.698667 97.772022 
L 91.638007 98.832683 
L 90.577347 97.772022 
L 89.516687 98.832683 
L 90.577347 99.893343 
L 89.516687 100.954003 
z
" clip-path="url(#p0fea9102eb)" style="fill: #88ccee; fill-opacity: 0.6; stroke: #ffffff; stroke-opacity: 0.6; stroke-width: 0.339411"/>
    <path d="M 91.727576 100.150743 
L 92.788236 99.090083 
L 93.848897 100.150743 
L 94.909557 99.090083 
L 93.848897 98.029422 
L 94.909557 96.968762 
L 93.848897 95.908102 
L 92.788236 96.968762 
L 91.727576 95.908102 
L 90.666916 96.968762 
L 91.727576 98.029422 
L 90.666916 99.090083 
z
" clip-path="url(#p0fea9102eb)" style="fill: #88ccee; fill-opacity: 0.6; stroke: #ffffff; stroke-opacity: 0.6; stroke-width: 0.339411"/>
    <path d="M 107.451239 84.886831 
L 108.511899 83.82617 
L 109.572559 84.886831 
L 110.63322 83.82617 
L 109.572559 82.76551 
L 110.63322 81.70485 
L 109.572559 80.64419 
L 108.511899 81.70485 
L 107.451239 80.64419 
L 106.390579 81.70485 
L 107.451239 82.76551 
L 106.390579 83.82617 
z
" clip-path="url(#p0fea9102eb)" style="fill: #88ccee; fill-opacity: 0.6; stroke: #ffffff; stroke-opacity: 0.6; stroke-width: 0.339411"/>
    <path d="M 136.014972 122.6545 
L 137.075632 121.59384 
L 138.136293 122.6545 
L 139.196953 121.59384 
L 138.136293 120.53318 
L 139.196953 119.47252 
L 138.136293 118.411859 
L 137.075632 119.47252 
L 136.014972 118.411859 
L 134.954312 119.47252 
L 136.014972 120.53318 
L 134.954312 121.59384 
z
" clip-path="url(#p0fea9102eb)" style="fill: #88ccee; fill-opacity: 0.6; stroke: #ffffff; stroke-opacity: 0.6; stroke-width: 0.339411"/>
    <path d="M 108.416383 102.237456 
L 109.477043 101.176796 
L 110.537703 102.237456 
L 111.598363 101.176796 
L 110.537703 100.116136 
L 111.598363 99.055476 
L 110.537703 97.994816 
L 109.477043 99.055476 
L 108.416383 97.994816 
L 107.355723 99.055476 
L 108.416383 100.116136 
L 107.355723 101.176796 
z
" clip-path="url(#p0fea9102eb)" style="fill: #88ccee; fill-opacity: 0.6; stroke: #ffffff; stroke-opacity: 0.6; stroke-width: 0.339411"/>
    <path d="M 136.521137 99.535341 
L 137.581797 98.474681 
L 138.642457 99.535341 
L 139.703117 98.474681 
L 138.642457 97.414021 
L 139.703117 96.35336 
L 138.642457 95.2927 
L 137.581797 96.35336 
L 136.521137 95.2927 
L 135.460477 96.35336 
L 136.521137 97.414021 
L 135.460477 98.474681 
z
" clip-path="url(#p0fea9102eb)" style="fill: #88ccee; fill-opacity: 0.6; stroke: #ffffff; stroke-opacity: 0.6; stroke-width: 0.339411"/>
    <path d="M 68.853324 115.934551 
L 69.913985 114.873891 
L 70.974645 115.934551 
L 72.035305 114.873891 
L 70.974645 113.81323 
L 72.035305 112.75257 
L 70.974645 111.69191 
L 69.913985 112.75257 
L 68.853324 111.69191 
L 67.792664 112.75257 
L 68.853324 113.81323 
L 67.792664 114.873891 
z
" clip-path="url(#p0fea9102eb)" style="fill: #88ccee; fill-opacity: 0.6; stroke: #ffffff; stroke-opacity: 0.6; stroke-width: 0.339411"/>
    <path d="M 114.337366 91.432224 
L 115.398026 90.371564 
L 116.458686 91.432224 
L 117.519347 90.371564 
L 116.458686 89.310904 
L 117.519347 88.250244 
L 116.458686 87.189584 
L 115.398026 88.250244 
L 114.337366 87.189584 
L 113.276706 88.250244 
L 114.337366 89.310904 
L 113.276706 90.371564 
z
" clip-path="url(#p0fea9102eb)" style="fill: #88ccee; fill-opacity: 0.6; stroke: #ffffff; stroke-opacity: 0.6; stroke-width: 0.339411"/>
    <path d="M 122.146689 91.651391 
L 123.20735 90.590731 
L 124.26801 91.651391 
L 125.32867 90.590731 
L 124.26801 89.530071 
L 125.32867 88.469411 
L 124.26801 87.408751 
L 123.20735 88.469411 
L 122.146689 87.408751 
L 121.086029 88.469411 
L 122.146689 89.530071 
L 121.086029 90.590731 
z
" clip-path="url(#p0fea9102eb)" style="fill: #88ccee; fill-opacity: 0.6; stroke: #ffffff; stroke-opacity: 0.6; stroke-width: 0.339411"/>
    <path d="M 87.167141 125.375942 
L 88.227801 124.315282 
L 89.288461 125.375942 
L 90.349121 124.315282 
L 89.288461 123.254621 
L 90.349121 122.193961 
L 89.288461 121.133301 
L 88.227801 122.193961 
L 87.167141 121.133301 
L 86.106481 122.193961 
L 87.167141 123.254621 
L 86.106481 124.315282 
z
" clip-path="url(#p0fea9102eb)" style="fill: #88ccee; fill-opacity: 0.6; stroke: #ffffff; stroke-opacity: 0.6; stroke-width: 0.339411"/>
    <path d="M 114.687652 75.780203 
L 115.748312 74.719543 
L 116.808973 75.780203 
L 117.869633 74.719543 
L 116.808973 73.658883 
L 117.869633 72.598222 
L 116.808973 71.537562 
L 115.748312 72.598222 
L 114.687652 71.537562 
L 113.626992 72.598222 
L 114.687652 73.658883 
L 113.626992 74.719543 
z
" clip-path="url(#p0fea9102eb)" style="fill: #88ccee; fill-opacity: 0.6; stroke: #ffffff; stroke-opacity: 0.6; stroke-width: 0.339411"/>
    <path d="M 77.620099 120.639604 
L 78.680759 119.578944 
L 79.74142 120.639604 
L 80.80208 119.578944 
L 79.74142 118.518284 
L 80.80208 117.457624 
L 79.74142 116.396964 
L 78.680759 117.457624 
L 77.620099 116.396964 
L 76.559439 117.457624 
L 77.620099 118.518284 
L 76.559439 119.578944 
z
" clip-path="url(#p0fea9102eb)" style="fill: #88ccee; fill-opacity: 0.6; stroke: #ffffff; stroke-opacity: 0.6; stroke-width: 0.339411"/>
    <path d="M 93.555158 99.543856 
L 94.615819 98.483196 
L 95.676479 99.543856 
L 96.737139 98.483196 
L 95.676479 97.422536 
L 96.737139 96.361875 
L 95.676479 95.301215 
L 94.615819 96.361875 
L 93.555158 95.301215 
L 92.494498 96.361875 
L 93.555158 97.422536 
L 92.494498 98.483196 
z
" clip-path="url(#p0fea9102eb)" style="fill: #88ccee; fill-opacity: 0.6; stroke: #ffffff; stroke-opacity: 0.6; stroke-width: 0.339411"/>
    <path d="M 126.229276 95.859051 
L 127.289936 94.798391 
L 128.350596 95.859051 
L 129.411256 94.798391 
L 128.350596 93.737731 
L 129.411256 92.677071 
L 128.350596 91.616411 
L 127.289936 92.677071 
L 126.229276 91.616411 
L 125.168615 92.677071 
L 126.229276 93.737731 
L 125.168615 94.798391 
z
" clip-path="url(#p0fea9102eb)" style="fill: #88ccee; fill-opacity: 0.6; stroke: #ffffff; stroke-opacity: 0.6; stroke-width: 0.339411"/>
    <path d="M 84.175983 104.743491 
L 85.236643 103.682831 
L 86.297303 104.743491 
L 87.357963 103.682831 
L 86.297303 102.622171 
L 87.357963 101.561511 
L 86.297303 100.500851 
L 85.236643 101.561511 
L 84.175983 100.500851 
L 83.115322 101.561511 
L 84.175983 102.622171 
L 83.115322 103.682831 
z
" clip-path="url(#p0fea9102eb)" style="fill: #88ccee; fill-opacity: 0.6; stroke: #ffffff; stroke-opacity: 0.6; stroke-width: 0.339411"/>
    <path d="M 90.647377 128.628837 
L 91.708037 127.568176 
L 92.768697 128.628837 
L 93.829357 127.568176 
L 92.768697 126.507516 
L 93.829357 125.446856 
L 92.768697 124.386196 
L 91.708037 125.446856 
L 90.647377 124.386196 
L 89.586717 125.446856 
L 90.647377 126.507516 
L 89.586717 127.568176 
z
" clip-path="url(#p0fea9102eb)" style="fill: #88ccee; fill-opacity: 0.6; stroke: #ffffff; stroke-opacity: 0.6; stroke-width: 0.339411"/>
    <path d="M 83.961691 135.19692 
L 85.022351 134.13626 
L 86.083011 135.19692 
L 87.143671 134.13626 
L 86.083011 133.0756 
L 87.143671 132.01494 
L 86.083011 130.954279 
L 85.022351 132.01494 
L 83.961691 130.954279 
L 82.90103 132.01494 
L 83.961691 133.0756 
L 82.90103 134.13626 
z
" clip-path="url(#p0fea9102eb)" style="fill: #88ccee; fill-opacity: 0.6; stroke: #ffffff; stroke-opacity: 0.6; stroke-width: 0.339411"/>
    <path d="M 164.951577 137.770573 
L 166.012237 136.709913 
L 167.072897 137.770573 
L 168.133557 136.709913 
L 167.072897 135.649253 
L 168.133557 134.588593 
L 167.072897 133.527932 
L 166.012237 134.588593 
L 164.951577 133.527932 
L 163.890917 134.588593 
L 164.951577 135.649253 
L 163.890917 136.709913 
z
" clip-path="url(#p0fea9102eb)" style="fill: #88ccee; fill-opacity: 0.6; stroke: #ffffff; stroke-opacity: 0.6; stroke-width: 0.339411"/>
    <path d="M 116.111566 92.170144 
L 117.172226 91.109484 
L 118.232886 92.170144 
L 119.293547 91.109484 
L 118.232886 90.048824 
L 119.293547 88.988164 
L 118.232886 87.927504 
L 117.172226 88.988164 
L 116.111566 87.927504 
L 115.050906 88.988164 
L 116.111566 90.048824 
L 115.050906 91.109484 
z
" clip-path="url(#p0fea9102eb)" style="fill: #88ccee; fill-opacity: 0.6; stroke: #ffffff; stroke-opacity: 0.6; stroke-width: 0.339411"/>
    <path d="M 118.021565 91.160966 
L 119.082225 90.100306 
L 120.142885 91.160966 
L 121.203545 90.100306 
L 120.142885 89.039646 
L 121.203545 87.978986 
L 120.142885 86.918325 
L 119.082225 87.978986 
L 118.021565 86.918325 
L 116.960905 87.978986 
L 118.021565 89.039646 
L 116.960905 90.100306 
z
" clip-path="url(#p0fea9102eb)" style="fill: #88ccee; fill-opacity: 0.6; stroke: #ffffff; stroke-opacity: 0.6; stroke-width: 0.339411"/>
    <path d="M 95.229447 101.271804 
L 96.290107 100.211144 
L 97.350768 101.271804 
L 98.411428 100.211144 
L 97.350768 99.150484 
L 98.411428 98.089824 
L 97.350768 97.029164 
L 96.290107 98.089824 
L 95.229447 97.029164 
L 94.168787 98.089824 
L 95.229447 99.150484 
L 94.168787 100.211144 
z
" clip-path="url(#p0fea9102eb)" style="fill: #88ccee; fill-opacity: 0.6; stroke: #ffffff; stroke-opacity: 0.6; stroke-width: 0.339411"/>
    <path d="M 96.363736 127.130772 
L 97.424396 126.070112 
L 98.485056 127.130772 
L 99.545716 126.070112 
L 98.485056 125.009452 
L 99.545716 123.948792 
L 98.485056 122.888132 
L 97.424396 123.948792 
L 96.363736 122.888132 
L 95.303075 123.948792 
L 96.363736 125.009452 
L 95.303075 126.070112 
z
" clip-path="url(#p0fea9102eb)" style="fill: #88ccee; fill-opacity: 0.6; stroke: #ffffff; stroke-opacity: 0.6; stroke-width: 0.339411"/>
    <path d="M 111.374951 121.46236 
L 112.435611 120.401699 
L 113.496271 121.46236 
L 114.556932 120.401699 
L 113.496271 119.341039 
L 114.556932 118.280379 
L 113.496271 117.219719 
L 112.435611 118.280379 
L 111.374951 117.219719 
L 110.314291 118.280379 
L 111.374951 119.341039 
L 110.314291 120.401699 
z
" clip-path="url(#p0fea9102eb)" style="fill: #88ccee; fill-opacity: 0.6; stroke: #ffffff; stroke-opacity: 0.6; stroke-width: 0.339411"/>
    <path d="M 74.749809 89.660447 
L 75.810469 88.599787 
L 76.871129 89.660447 
L 77.931789 88.599787 
L 76.871129 87.539127 
L 77.931789 86.478466 
L 76.871129 85.417806 
L 75.810469 86.478466 
L 74.749809 85.417806 
L 73.689148 86.478466 
L 74.749809 87.539127 
L 73.689148 88.599787 
z
" clip-path="url(#p0fea9102eb)" style="fill: #88ccee; fill-opacity: 0.6; stroke: #ffffff; stroke-opacity: 0.6; stroke-width: 0.339411"/>
    <path d="M 123.746875 127.255771 
L 124.807535 126.19511 
L 125.868195 127.255771 
L 126.928855 126.19511 
L 125.868195 125.13445 
L 126.928855 124.07379 
L 125.868195 123.01313 
L 124.807535 124.07379 
L 123.746875 123.01313 
L 122.686215 124.07379 
L 123.746875 125.13445 
L 122.686215 126.19511 
z
" clip-path="url(#p0fea9102eb)" style="fill: #88ccee; fill-opacity: 0.6; stroke: #ffffff; stroke-opacity: 0.6; stroke-width: 0.339411"/>
    <path d="M 95.693275 116.907337 
L 96.753935 115.846677 
L 97.814596 116.907337 
L 98.875256 115.846677 
L 97.814596 114.786017 
L 98.875256 113.725356 
L 97.814596 112.664696 
L 96.753935 113.725356 
L 95.693275 112.664696 
L 94.632615 113.725356 
L 95.693275 114.786017 
L 94.632615 115.846677 
z
" clip-path="url(#p0fea9102eb)" style="fill: #88ccee; fill-opacity: 0.6; stroke: #ffffff; stroke-opacity: 0.6; stroke-width: 0.339411"/>
    <path d="M 111.306735 125.052274 
L 112.367395 123.991614 
L 113.428055 125.052274 
L 114.488715 123.991614 
L 113.428055 122.930954 
L 114.488715 121.870294 
L 113.428055 120.809634 
L 112.367395 121.870294 
L 111.306735 120.809634 
L 110.246074 121.870294 
L 111.306735 122.930954 
L 110.246074 123.991614 
z
" clip-path="url(#p0fea9102eb)" style="fill: #88ccee; fill-opacity: 0.6; stroke: #ffffff; stroke-opacity: 0.6; stroke-width: 0.339411"/>
    <path d="M 107.974322 91.834328 
L 109.034982 90.773668 
L 110.095642 91.834328 
L 111.156302 90.773668 
L 110.095642 89.713008 
L 111.156302 88.652348 
L 110.095642 87.591688 
L 109.034982 88.652348 
L 107.974322 87.591688 
L 106.913661 88.652348 
L 107.974322 89.713008 
L 106.913661 90.773668 
z
" clip-path="url(#p0fea9102eb)" style="fill: #88ccee; fill-opacity: 0.6; stroke: #ffffff; stroke-opacity: 0.6; stroke-width: 0.339411"/>
    <path d="M 126.386455 124.414471 
L 127.447115 123.353811 
L 128.507776 124.414471 
L 129.568436 123.353811 
L 128.507776 122.293151 
L 129.568436 121.232491 
L 128.507776 120.171831 
L 127.447115 121.232491 
L 126.386455 120.171831 
L 125.325795 121.232491 
L 126.386455 122.293151 
L 125.325795 123.353811 
z
" clip-path="url(#p0fea9102eb)" style="fill: #88ccee; fill-opacity: 0.6; stroke: #ffffff; stroke-opacity: 0.6; stroke-width: 0.339411"/>
    <path d="M 107.392648 110.99307 
L 108.453308 109.93241 
L 109.513968 110.99307 
L 110.574628 109.93241 
L 109.513968 108.871749 
L 110.574628 107.811089 
L 109.513968 106.750429 
L 108.453308 107.811089 
L 107.392648 106.750429 
L 106.331988 107.811089 
L 107.392648 108.871749 
L 106.331988 109.93241 
z
" clip-path="url(#p0fea9102eb)" style="fill: #88ccee; fill-opacity: 0.6; stroke: #ffffff; stroke-opacity: 0.6; stroke-width: 0.339411"/>
    <path d="M 110.835657 96.067547 
L 111.896317 95.006887 
L 112.956977 96.067547 
L 114.017638 95.006887 
L 112.956977 93.946227 
L 114.017638 92.885567 
L 112.956977 91.824907 
L 111.896317 92.885567 
L 110.835657 91.824907 
L 109.774997 92.885567 
L 110.835657 93.946227 
L 109.774997 95.006887 
z
" clip-path="url(#p0fea9102eb)" style="fill: #88ccee; fill-opacity: 0.6; stroke: #ffffff; stroke-opacity: 0.6; stroke-width: 0.339411"/>
    <path d="M 105.356634 116.703253 
L 106.417294 115.642593 
L 107.477954 116.703253 
L 108.538615 115.642593 
L 107.477954 114.581933 
L 108.538615 113.521273 
L 107.477954 112.460613 
L 106.417294 113.521273 
L 105.356634 112.460613 
L 104.295974 113.521273 
L 105.356634 114.581933 
L 104.295974 115.642593 
z
" clip-path="url(#p0fea9102eb)" style="fill: #88ccee; fill-opacity: 0.6; stroke: #ffffff; stroke-opacity: 0.6; stroke-width: 0.339411"/>
    <path d="M 123.665179 76.834854 
L 124.72584 75.774194 
L 125.7865 76.834854 
L 126.84716 75.774194 
L 125.7865 74.713534 
L 126.84716 73.652874 
L 125.7865 72.592213 
L 124.72584 73.652874 
L 123.665179 72.592213 
L 122.604519 73.652874 
L 123.665179 74.713534 
L 122.604519 75.774194 
z
" clip-path="url(#p0fea9102eb)" style="fill: #88ccee; fill-opacity: 0.6; stroke: #ffffff; stroke-opacity: 0.6; stroke-width: 0.339411"/>
    <path d="M 71.987223 104.177751 
L 73.047883 103.117091 
L 74.108543 104.177751 
L 75.169204 103.117091 
L 74.108543 102.056431 
L 75.169204 100.995771 
L 74.108543 99.935111 
L 73.047883 100.995771 
L 71.987223 99.935111 
L 70.926563 100.995771 
L 71.987223 102.056431 
L 70.926563 103.117091 
z
" clip-path="url(#p0fea9102eb)" style="fill: #88ccee; fill-opacity: 0.6; stroke: #ffffff; stroke-opacity: 0.6; stroke-width: 0.339411"/>
    <path d="M 109.123224 123.237746 
L 110.183884 122.177086 
L 111.244545 123.237746 
L 112.305205 122.177086 
L 111.244545 121.116425 
L 112.305205 120.055765 
L 111.244545 118.995105 
L 110.183884 120.055765 
L 109.123224 118.995105 
L 108.062564 120.055765 
L 109.123224 121.116425 
L 108.062564 122.177086 
z
" clip-path="url(#p0fea9102eb)" style="fill: #88ccee; fill-opacity: 0.6; stroke: #ffffff; stroke-opacity: 0.6; stroke-width: 0.339411"/>
    <path d="M 89.08725 139.770743 
L 90.14791 138.710082 
L 91.20857 139.770743 
L 92.26923 138.710082 
L 91.20857 137.649422 
L 92.26923 136.588762 
L 91.20857 135.528102 
L 90.14791 136.588762 
L 89.08725 135.528102 
L 88.026589 136.588762 
L 89.08725 137.649422 
L 88.026589 138.710082 
z
" clip-path="url(#p0fea9102eb)" style="fill: #88ccee; fill-opacity: 0.6; stroke: #ffffff; stroke-opacity: 0.6; stroke-width: 0.339411"/>
   </g>
   <g id="matplotlib.axis_1">
    <g id="xtick_1">
     <g id="line2d_1">
      <defs>
       <path id="ma249e41d99" d="M 0 0 
L 0 8 
" style="stroke: #000000"/>
      </defs>
      <g>
       <use xlink:href="#ma249e41d99" x="70.150613" y="188.565765" style="stroke: #000000"/>
      </g>
     </g>
     <g id="text_1">
      <!-- 0 -->
      <g transform="translate(66.333113 209.18389) scale(0.12 -0.12)">
       <defs>
        <path id="DejaVuSans-30" d="M 2034 4250 
Q 1547 4250 1301 3770 
Q 1056 3291 1056 2328 
Q 1056 1369 1301 889 
Q 1547 409 2034 409 
Q 2525 409 2770 889 
Q 3016 1369 3016 2328 
Q 3016 3291 2770 3770 
Q 2525 4250 2034 4250 
z
M 2034 4750 
Q 2819 4750 3233 4129 
Q 3647 3509 3647 2328 
Q 3647 1150 3233 529 
Q 2819 -91 2034 -91 
Q 1250 -91 836 529 
Q 422 1150 422 2328 
Q 422 3509 836 4129 
Q 1250 4750 2034 4750 
z
" transform="scale(0.015625)"/>
       </defs>
       <use xlink:href="#DejaVuSans-30"/>
      </g>
     </g>
    </g>
    <g id="xtick_2">
     <g id="line2d_2">
      <g>
       <use xlink:href="#ma249e41d99" x="221.353376" y="188.565765" style="stroke: #000000"/>
      </g>
     </g>
     <g id="text_2">
      <!-- 10 -->
      <g transform="translate(213.718376 209.18389) scale(0.12 -0.12)">
       <defs>
        <path id="DejaVuSans-31" d="M 794 531 
L 1825 531 
L 1825 4091 
L 703 3866 
L 703 4441 
L 1819 4666 
L 2450 4666 
L 2450 531 
L 3481 531 
L 3481 0 
L 794 0 
L 794 531 
z
" transform="scale(0.015625)"/>
       </defs>
       <use xlink:href="#DejaVuSans-31"/>
       <use xlink:href="#DejaVuSans-30" x="63.623047"/>
      </g>
     </g>
    </g>
    <g id="text_3">
     <!-- UMAP 1 -->
     <g transform="translate(117.586274 224.79764) scale(0.12 -0.12)">
      <defs>
       <path id="DejaVuSans-55" d="M 556 4666 
L 1191 4666 
L 1191 1831 
Q 1191 1081 1462 751 
Q 1734 422 2344 422 
Q 2950 422 3222 751 
Q 3494 1081 3494 1831 
L 3494 4666 
L 4128 4666 
L 4128 1753 
Q 4128 841 3676 375 
Q 3225 -91 2344 -91 
Q 1459 -91 1007 375 
Q 556 841 556 1753 
L 556 4666 
z
" transform="scale(0.015625)"/>
       <path id="DejaVuSans-4d" d="M 628 4666 
L 1569 4666 
L 2759 1491 
L 3956 4666 
L 4897 4666 
L 4897 0 
L 4281 0 
L 4281 4097 
L 3078 897 
L 2444 897 
L 1241 4097 
L 1241 0 
L 628 0 
L 628 4666 
z
" transform="scale(0.015625)"/>
       <path id="DejaVuSans-41" d="M 2188 4044 
L 1331 1722 
L 3047 1722 
L 2188 4044 
z
M 1831 4666 
L 2547 4666 
L 4325 0 
L 3669 0 
L 3244 1197 
L 1141 1197 
L 716 0 
L 50 0 
L 1831 4666 
z
" transform="scale(0.015625)"/>
       <path id="DejaVuSans-50" d="M 1259 4147 
L 1259 2394 
L 2053 2394 
Q 2494 2394 2734 2622 
Q 2975 2850 2975 3272 
Q 2975 3691 2734 3919 
Q 2494 4147 2053 4147 
L 1259 4147 
z
M 628 4666 
L 2053 4666 
Q 2838 4666 3239 4311 
Q 3641 3956 3641 3272 
Q 3641 2581 3239 2228 
Q 2838 1875 2053 1875 
L 1259 1875 
L 1259 0 
L 628 0 
L 628 4666 
z
" transform="scale(0.015625)"/>
       <path id="DejaVuSans-20" transform="scale(0.015625)"/>
      </defs>
      <use xlink:href="#DejaVuSans-55"/>
      <use xlink:href="#DejaVuSans-4d" x="73.193359"/>
      <use xlink:href="#DejaVuSans-41" x="159.472656"/>
      <use xlink:href="#DejaVuSans-50" x="227.880859"/>
      <use xlink:href="#DejaVuSans-20" x="288.183594"/>
      <use xlink:href="#DejaVuSans-31" x="319.970703"/>
     </g>
    </g>
   </g>
   <g id="matplotlib.axis_2">
    <g id="ytick_1">
     <g id="line2d_3">
      <defs>
       <path id="m2e21baa68e" d="M 0 0 
L -8 0 
" style="stroke: #000000"/>
      </defs>
      <g>
       <use xlink:href="#m2e21baa68e" x="53.957638" y="172.37279" style="stroke: #000000"/>
      </g>
     </g>
     <g id="text_4">
      <!-- 0 -->
      <g transform="translate(34.822638 176.931853) scale(0.12 -0.12)">
       <use xlink:href="#DejaVuSans-30"/>
      </g>
     </g>
    </g>
    <g id="ytick_2">
     <g id="line2d_4">
      <g>
       <use xlink:href="#m2e21baa68e" x="53.957638" y="21.170027" style="stroke: #000000"/>
      </g>
     </g>
     <g id="text_5">
      <!-- 10 -->
      <g transform="translate(27.187638 25.729089) scale(0.12 -0.12)">
       <use xlink:href="#DejaVuSans-31"/>
       <use xlink:href="#DejaVuSans-30" x="63.623047"/>
      </g>
     </g>
    </g>
    <g id="text_6">
     <!-- UMAP 2 -->
     <g transform="translate(20.692013 124.937128) rotate(-90) scale(0.12 -0.12)">
      <defs>
       <path id="DejaVuSans-32" d="M 1228 531 
L 3431 531 
L 3431 0 
L 469 0 
L 469 531 
Q 828 903 1448 1529 
Q 2069 2156 2228 2338 
Q 2531 2678 2651 2914 
Q 2772 3150 2772 3378 
Q 2772 3750 2511 3984 
Q 2250 4219 1831 4219 
Q 1534 4219 1204 4116 
Q 875 4013 500 3803 
L 500 4441 
Q 881 4594 1212 4672 
Q 1544 4750 1819 4750 
Q 2544 4750 2975 4387 
Q 3406 4025 3406 3419 
Q 3406 3131 3298 2873 
Q 3191 2616 2906 2266 
Q 2828 2175 2409 1742 
Q 1991 1309 1228 531 
z
" transform="scale(0.015625)"/>
      </defs>
      <use xlink:href="#DejaVuSans-55"/>
      <use xlink:href="#DejaVuSans-4d" x="73.193359"/>
      <use xlink:href="#DejaVuSans-41" x="159.472656"/>
      <use xlink:href="#DejaVuSans-50" x="227.880859"/>
      <use xlink:href="#DejaVuSans-20" x="288.183594"/>
      <use xlink:href="#DejaVuSans-32" x="319.970703"/>
     </g>
    </g>
   </g>
   <g id="patch_3">
    <path d="M 53.957638 188.565765 
L 53.957638 15.279117 
" style="fill: none; stroke: #000000; stroke-width: 2; stroke-linejoin: miter; stroke-linecap: square"/>
   </g>
   <g id="patch_4">
    <path d="M 53.957638 188.565765 
L 227.244286 188.565765 
" style="fill: none; stroke: #000000; stroke-width: 2; stroke-linejoin: miter; stroke-linecap: square"/>
   </g>
  </g>
 </g>
 <defs>
  <clipPath id="p0fea9102eb">
   <rect x="53.957638" y="15.279117" width="173.286648" height="173.286648"/>
  </clipPath>
 </defs>
</svg>
