<?xml version="1.0" encoding="utf-8" standalone="no"?>
<!DOCTYPE svg PUBLIC "-//W3C//DTD SVG 1.1//EN"
  "http://www.w3.org/Graphics/SVG/1.1/DTD/svg11.dtd">
<svg xmlns:xlink="http://www.w3.org/1999/xlink" width="240.944882pt" height="240.944882pt" viewBox="0 0 240.944882 240.944882" xmlns="http://www.w3.org/2000/svg" version="1.1">
 <metadata>
  <rdf:RDF xmlns:dc="http://purl.org/dc/elements/1.1/" xmlns:cc="http://creativecommons.org/ns#" xmlns:rdf="http://www.w3.org/1999/02/22-rdf-syntax-ns#">
   <cc:Work>
    <dc:type rdf:resource="http://purl.org/dc/dcmitype/StillImage"/>
    <dc:date>2025-02-19T15:03:58.943237</dc:date>
    <dc:format>image/svg+xml</dc:format>
    <dc:creator>
     <cc:Agent>
      <dc:title>Matplotlib v3.6.2, https://matplotlib.org/</dc:title>
     </cc:Agent>
    </dc:creator>
   </cc:Work>
  </rdf:RDF>
 </metadata>
 <defs>
  <style type="text/css">*{stroke-linejoin: round; stroke-linecap: butt}</style>
 </defs>
 <g id="figure_1">
  <g id="patch_1">
   <path d="M 0 240.944882 
L 240.944882 240.944882 
L 240.944882 0 
L 0 0 
L 0 240.944882 
z
" style="fill: none"/>
  </g>
  <g id="axes_1">
   <g id="patch_2">
    <path d="M 53.957638 187.572244 
L 222.916632 187.572244 
L 222.916632 18.61325 
L 53.957638 18.61325 
L 53.957638 187.572244 
z
" style="fill: none"/>
   </g>
   <g id="PathCollection_1">
    <path d="M 203.698087 125.789289 
L 205.498087 122.789289 
L 203.698087 119.789289 
L 201.898087 122.789289 
z
" clip-path="url(#pfd5800ef53)" style="fill: #332288; fill-opacity: 0.6; stroke: #ffffff; stroke-opacity: 0.6; stroke-width: 0.339411"/>
    <path d="M 151.695725 155.617254 
L 153.495725 152.617254 
L 151.695725 149.617254 
L 149.895725 152.617254 
z
" clip-path="url(#pfd5800ef53)" style="fill: #332288; fill-opacity: 0.6; stroke: #ffffff; stroke-opacity: 0.6; stroke-width: 0.339411"/>
    <path d="M 194.943451 88.510339 
L 196.743451 85.510339 
L 194.943451 82.510339 
L 193.143451 85.510339 
z
" clip-path="url(#pfd5800ef53)" style="fill: #332288; fill-opacity: 0.6; stroke: #ffffff; stroke-opacity: 0.6; stroke-width: 0.339411"/>
    <path d="M 202.313372 115.880067 
L 204.113372 112.880067 
L 202.313372 109.880067 
L 200.513372 112.880067 
z
" clip-path="url(#pfd5800ef53)" style="fill: #332288; fill-opacity: 0.6; stroke: #ffffff; stroke-opacity: 0.6; stroke-width: 0.339411"/>
    <path d="M 159.922082 136.733457 
L 161.722082 133.733457 
L 159.922082 130.733457 
L 158.122082 133.733457 
z
" clip-path="url(#pfd5800ef53)" style="fill: #332288; fill-opacity: 0.6; stroke: #ffffff; stroke-opacity: 0.6; stroke-width: 0.339411"/>
    <path d="M 200.548794 116.942729 
L 202.348794 113.942729 
L 200.548794 110.942729 
L 198.748794 113.942729 
z
" clip-path="url(#pfd5800ef53)" style="fill: #332288; fill-opacity: 0.6; stroke: #ffffff; stroke-opacity: 0.6; stroke-width: 0.339411"/>
    <path d="M 198.329922 89.65408 
L 200.129922 86.65408 
L 198.329922 83.65408 
L 196.529922 86.65408 
z
" clip-path="url(#pfd5800ef53)" style="fill: #332288; fill-opacity: 0.6; stroke: #ffffff; stroke-opacity: 0.6; stroke-width: 0.339411"/>
    <path d="M 200.903722 117.771217 
L 202.703722 114.771217 
L 200.903722 111.771217 
L 199.103722 114.771217 
z
" clip-path="url(#pfd5800ef53)" style="fill: #332288; fill-opacity: 0.6; stroke: #ffffff; stroke-opacity: 0.6; stroke-width: 0.339411"/>
    <path d="M 193.344927 89.608933 
L 195.144927 86.608933 
L 193.344927 83.608933 
L 191.544927 86.608933 
z
" clip-path="url(#pfd5800ef53)" style="fill: #332288; fill-opacity: 0.6; stroke: #ffffff; stroke-opacity: 0.6; stroke-width: 0.339411"/>
    <path d="M 163.292091 139.493692 
L 165.092091 136.493692 
L 163.292091 133.493692 
L 161.492091 136.493692 
z
" clip-path="url(#pfd5800ef53)" style="fill: #332288; fill-opacity: 0.6; stroke: #ffffff; stroke-opacity: 0.6; stroke-width: 0.339411"/>
    <path d="M 153.748088 146.000607 
L 155.548088 143.000607 
L 153.748088 140.000607 
L 151.948088 143.000607 
z
" clip-path="url(#pfd5800ef53)" style="fill: #332288; fill-opacity: 0.6; stroke: #ffffff; stroke-opacity: 0.6; stroke-width: 0.339411"/>
    <path d="M 151.77231 154.093587 
L 153.57231 151.093587 
L 151.77231 148.093587 
L 149.97231 151.093587 
z
" clip-path="url(#pfd5800ef53)" style="fill: #332288; fill-opacity: 0.6; stroke: #ffffff; stroke-opacity: 0.6; stroke-width: 0.339411"/>
    <path d="M 162.788588 138.178318 
L 164.588588 135.178318 
L 162.788588 132.178318 
L 160.988588 135.178318 
z
" clip-path="url(#pfd5800ef53)" style="fill: #332288; fill-opacity: 0.6; stroke: #ffffff; stroke-opacity: 0.6; stroke-width: 0.339411"/>
    <path d="M 162.810247 133.285812 
L 164.610247 130.285812 
L 162.810247 127.285812 
L 161.010247 130.285812 
z
" clip-path="url(#pfd5800ef53)" style="fill: #332288; fill-opacity: 0.6; stroke: #ffffff; stroke-opacity: 0.6; stroke-width: 0.339411"/>
    <path d="M 153.501085 145.583472 
L 155.301085 142.583472 
L 153.501085 139.583472 
L 151.701085 142.583472 
z
" clip-path="url(#pfd5800ef53)" style="fill: #332288; fill-opacity: 0.6; stroke: #ffffff; stroke-opacity: 0.6; stroke-width: 0.339411"/>
    <path d="M 203.359403 126.103188 
L 205.159403 123.103188 
L 203.359403 120.103188 
L 201.559403 123.103188 
z
" clip-path="url(#pfd5800ef53)" style="fill: #332288; fill-opacity: 0.6; stroke: #ffffff; stroke-opacity: 0.6; stroke-width: 0.339411"/>
    <path d="M 196.648137 101.082543 
L 198.448137 98.082543 
L 196.648137 95.082543 
L 194.848137 98.082543 
z
" clip-path="url(#pfd5800ef53)" style="fill: #332288; fill-opacity: 0.6; stroke: #ffffff; stroke-opacity: 0.6; stroke-width: 0.339411"/>
    <path d="M 153.635931 144.136052 
L 155.435931 141.136052 
L 153.635931 138.136052 
L 151.835931 141.136052 
z
" clip-path="url(#pfd5800ef53)" style="fill: #332288; fill-opacity: 0.6; stroke: #ffffff; stroke-opacity: 0.6; stroke-width: 0.339411"/>
    <path d="M 151.522421 155.421713 
L 153.322421 152.421713 
L 151.522421 149.421713 
L 149.722421 152.421713 
z
" clip-path="url(#pfd5800ef53)" style="fill: #332288; fill-opacity: 0.6; stroke: #ffffff; stroke-opacity: 0.6; stroke-width: 0.339411"/>
    <path d="M 158.001713 136.277668 
L 159.801713 133.277668 
L 158.001713 130.277668 
L 156.201713 133.277668 
z
" clip-path="url(#pfd5800ef53)" style="fill: #332288; fill-opacity: 0.6; stroke: #ffffff; stroke-opacity: 0.6; stroke-width: 0.339411"/>
    <path d="M 158.602165 138.505118 
L 160.402165 135.505118 
L 158.602165 132.505118 
L 156.802165 135.505118 
z
" clip-path="url(#pfd5800ef53)" style="fill: #332288; fill-opacity: 0.6; stroke: #ffffff; stroke-opacity: 0.6; stroke-width: 0.339411"/>
    <path d="M 151.334484 149.871102 
L 153.134484 146.871102 
L 151.334484 143.871102 
L 149.534484 146.871102 
z
" clip-path="url(#pfd5800ef53)" style="fill: #332288; fill-opacity: 0.6; stroke: #ffffff; stroke-opacity: 0.6; stroke-width: 0.339411"/>
    <path d="M 210.151084 124.850948 
L 211.951084 121.850948 
L 210.151084 118.850948 
L 208.351084 121.850948 
z
" clip-path="url(#pfd5800ef53)" style="fill: #332288; fill-opacity: 0.6; stroke: #ffffff; stroke-opacity: 0.6; stroke-width: 0.339411"/>
    <path d="M 200.899773 127.128154 
L 202.699773 124.128154 
L 200.899773 121.128154 
L 199.099773 124.128154 
z
" clip-path="url(#pfd5800ef53)" style="fill: #332288; fill-opacity: 0.6; stroke: #ffffff; stroke-opacity: 0.6; stroke-width: 0.339411"/>
    <path d="M 200.605741 119.041143 
L 202.405741 116.041143 
L 200.605741 113.041143 
L 198.805741 116.041143 
z
" clip-path="url(#pfd5800ef53)" style="fill: #332288; fill-opacity: 0.6; stroke: #ffffff; stroke-opacity: 0.6; stroke-width: 0.339411"/>
    <path d="M 205.352547 121.169735 
L 207.152547 118.169735 
L 205.352547 115.169735 
L 203.552547 118.169735 
z
" clip-path="url(#pfd5800ef53)" style="fill: #332288; fill-opacity: 0.6; stroke: #ffffff; stroke-opacity: 0.6; stroke-width: 0.339411"/>
    <path d="M 210.667186 123.710489 
L 212.467186 120.710489 
L 210.667186 117.710489 
L 208.867186 120.710489 
z
" clip-path="url(#pfd5800ef53)" style="fill: #332288; fill-opacity: 0.6; stroke: #ffffff; stroke-opacity: 0.6; stroke-width: 0.339411"/>
    <path d="M 210.412087 127.812198 
L 212.212087 124.812198 
L 210.412087 121.812198 
L 208.612087 124.812198 
z
" clip-path="url(#pfd5800ef53)" style="fill: #332288; fill-opacity: 0.6; stroke: #ffffff; stroke-opacity: 0.6; stroke-width: 0.339411"/>
    <path d="M 182.818873 124.858624 
L 184.618873 121.858624 
L 182.818873 118.858624 
L 181.018873 121.858624 
z
" clip-path="url(#pfd5800ef53)" style="fill: #332288; fill-opacity: 0.6; stroke: #ffffff; stroke-opacity: 0.6; stroke-width: 0.339411"/>
    <path d="M 210.667384 123.784182 
L 212.467384 120.784182 
L 210.667384 117.784182 
L 208.867384 120.784182 
z
" clip-path="url(#pfd5800ef53)" style="fill: #332288; fill-opacity: 0.6; stroke: #ffffff; stroke-opacity: 0.6; stroke-width: 0.339411"/>
    <path d="M 198.067321 91.406831 
L 199.867321 88.406831 
L 198.067321 85.406831 
L 196.267321 88.406831 
z
" clip-path="url(#pfd5800ef53)" style="fill: #332288; fill-opacity: 0.6; stroke: #ffffff; stroke-opacity: 0.6; stroke-width: 0.339411"/>
    <path d="M 154.220285 155.509215 
L 156.020285 152.509215 
L 154.220285 149.509215 
L 152.420285 152.509215 
z
" clip-path="url(#pfd5800ef53)" style="fill: #332288; fill-opacity: 0.6; stroke: #ffffff; stroke-opacity: 0.6; stroke-width: 0.339411"/>
    <path d="M 153.772091 148.739056 
L 155.572091 145.739056 
L 153.772091 142.739056 
L 151.972091 145.739056 
z
" clip-path="url(#pfd5800ef53)" style="fill: #332288; fill-opacity: 0.6; stroke: #ffffff; stroke-opacity: 0.6; stroke-width: 0.339411"/>
    <path d="M 157.055405 140.617991 
L 158.855405 137.617991 
L 157.055405 134.617991 
L 155.255405 137.617991 
z
" clip-path="url(#pfd5800ef53)" style="fill: #332288; fill-opacity: 0.6; stroke: #ffffff; stroke-opacity: 0.6; stroke-width: 0.339411"/>
    <path d="M 161.157899 131.649675 
L 162.957899 128.649675 
L 161.157899 125.649675 
L 159.357899 128.649675 
z
" clip-path="url(#pfd5800ef53)" style="fill: #332288; fill-opacity: 0.6; stroke: #ffffff; stroke-opacity: 0.6; stroke-width: 0.339411"/>
    <path d="M 203.685857 130.0082 
L 205.485857 127.0082 
L 203.685857 124.0082 
L 201.885857 127.0082 
z
" clip-path="url(#pfd5800ef53)" style="fill: #332288; fill-opacity: 0.6; stroke: #ffffff; stroke-opacity: 0.6; stroke-width: 0.339411"/>
    <path d="M 204.16156 126.79502 
L 205.96156 123.79502 
L 204.16156 120.79502 
L 202.36156 123.79502 
z
" clip-path="url(#pfd5800ef53)" style="fill: #332288; fill-opacity: 0.6; stroke: #ffffff; stroke-opacity: 0.6; stroke-width: 0.339411"/>
    <path d="M 156.147145 138.317483 
L 157.947145 135.317483 
L 156.147145 132.317483 
L 154.347145 135.317483 
z
" clip-path="url(#pfd5800ef53)" style="fill: #332288; fill-opacity: 0.6; stroke: #ffffff; stroke-opacity: 0.6; stroke-width: 0.339411"/>
    <path d="M 199.219943 117.354076 
L 201.019943 114.354076 
L 199.219943 111.354076 
L 197.419943 114.354076 
z
" clip-path="url(#pfd5800ef53)" style="fill: #332288; fill-opacity: 0.6; stroke: #ffffff; stroke-opacity: 0.6; stroke-width: 0.339411"/>
    <path d="M 151.971704 149.679348 
L 153.771704 146.679348 
L 151.971704 143.679348 
L 150.171704 146.679348 
z
" clip-path="url(#pfd5800ef53)" style="fill: #332288; fill-opacity: 0.6; stroke: #ffffff; stroke-opacity: 0.6; stroke-width: 0.339411"/>
    <path d="M 160.923977 136.000989 
L 162.723977 133.000989 
L 160.923977 130.000989 
L 159.123977 133.000989 
z
" clip-path="url(#pfd5800ef53)" style="fill: #332288; fill-opacity: 0.6; stroke: #ffffff; stroke-opacity: 0.6; stroke-width: 0.339411"/>
    <path d="M 159.568032 139.178285 
L 161.368032 136.178285 
L 159.568032 133.178285 
L 157.768032 136.178285 
z
" clip-path="url(#pfd5800ef53)" style="fill: #332288; fill-opacity: 0.6; stroke: #ffffff; stroke-opacity: 0.6; stroke-width: 0.339411"/>
    <path d="M 207.447462 125.614463 
L 209.247462 122.614463 
L 207.447462 119.614463 
L 205.647462 122.614463 
z
" clip-path="url(#pfd5800ef53)" style="fill: #332288; fill-opacity: 0.6; stroke: #ffffff; stroke-opacity: 0.6; stroke-width: 0.339411"/>
    <path d="M 195.044918 91.968436 
L 196.844918 88.968436 
L 195.044918 85.968436 
L 193.244918 88.968436 
z
" clip-path="url(#pfd5800ef53)" style="fill: #332288; fill-opacity: 0.6; stroke: #ffffff; stroke-opacity: 0.6; stroke-width: 0.339411"/>
    <path d="M 195.731147 91.277498 
L 197.531147 88.277498 
L 195.731147 85.277498 
L 193.931147 88.277498 
z
" clip-path="url(#pfd5800ef53)" style="fill: #332288; fill-opacity: 0.6; stroke: #ffffff; stroke-opacity: 0.6; stroke-width: 0.339411"/>
    <path d="M 205.683677 128.795006 
L 207.483677 125.795006 
L 205.683677 122.795006 
L 203.883677 125.795006 
z
" clip-path="url(#pfd5800ef53)" style="fill: #332288; fill-opacity: 0.6; stroke: #ffffff; stroke-opacity: 0.6; stroke-width: 0.339411"/>
    <path d="M 161.242356 138.296212 
L 163.042356 135.296212 
L 161.242356 132.296212 
L 159.442356 135.296212 
z
" clip-path="url(#pfd5800ef53)" style="fill: #332288; fill-opacity: 0.6; stroke: #ffffff; stroke-opacity: 0.6; stroke-width: 0.339411"/>
    <path d="M 207.147896 130.475692 
L 208.947896 127.475692 
L 207.147896 124.475692 
L 205.347896 127.475692 
z
" clip-path="url(#pfd5800ef53)" style="fill: #332288; fill-opacity: 0.6; stroke: #ffffff; stroke-opacity: 0.6; stroke-width: 0.339411"/>
    <path d="M 206.193744 120.607843 
L 207.993744 117.607843 
L 206.193744 114.607843 
L 204.393744 117.607843 
z
" clip-path="url(#pfd5800ef53)" style="fill: #332288; fill-opacity: 0.6; stroke: #ffffff; stroke-opacity: 0.6; stroke-width: 0.339411"/>
    <path d="M 201.482212 127.189179 
L 203.282212 124.189179 
L 201.482212 121.189179 
L 199.682212 124.189179 
z
" clip-path="url(#pfd5800ef53)" style="fill: #332288; fill-opacity: 0.6; stroke: #ffffff; stroke-opacity: 0.6; stroke-width: 0.339411"/>
    <path d="M 152.34769 143.880789 
L 154.14769 140.880789 
L 152.34769 137.880789 
L 150.54769 140.880789 
z
" clip-path="url(#pfd5800ef53)" style="fill: #332288; fill-opacity: 0.6; stroke: #ffffff; stroke-opacity: 0.6; stroke-width: 0.339411"/>
    <path d="M 152.90116 142.657836 
L 154.70116 139.657836 
L 152.90116 136.657836 
L 151.10116 139.657836 
z
" clip-path="url(#pfd5800ef53)" style="fill: #332288; fill-opacity: 0.6; stroke: #ffffff; stroke-opacity: 0.6; stroke-width: 0.339411"/>
    <path d="M 152.534788 150.010158 
L 154.334788 147.010158 
L 152.534788 144.010158 
L 150.734788 147.010158 
z
" clip-path="url(#pfd5800ef53)" style="fill: #332288; fill-opacity: 0.6; stroke: #ffffff; stroke-opacity: 0.6; stroke-width: 0.339411"/>
    <path d="M 196.112264 90.473756 
L 197.912264 87.473756 
L 196.112264 84.473756 
L 194.312264 87.473756 
z
" clip-path="url(#pfd5800ef53)" style="fill: #332288; fill-opacity: 0.6; stroke: #ffffff; stroke-opacity: 0.6; stroke-width: 0.339411"/>
    <path d="M 200.152872 113.936903 
L 201.952872 110.936903 
L 200.152872 107.936903 
L 198.352872 110.936903 
z
" clip-path="url(#pfd5800ef53)" style="fill: #332288; fill-opacity: 0.6; stroke: #ffffff; stroke-opacity: 0.6; stroke-width: 0.339411"/>
    <path d="M 195.355313 95.578349 
L 197.155313 92.578349 
L 195.355313 89.578349 
L 193.555313 92.578349 
z
" clip-path="url(#pfd5800ef53)" style="fill: #332288; fill-opacity: 0.6; stroke: #ffffff; stroke-opacity: 0.6; stroke-width: 0.339411"/>
    <path d="M 206.874559 120.023159 
L 208.674559 117.023159 
L 206.874559 114.023159 
L 205.074559 117.023159 
z
" clip-path="url(#pfd5800ef53)" style="fill: #332288; fill-opacity: 0.6; stroke: #ffffff; stroke-opacity: 0.6; stroke-width: 0.339411"/>
    <path d="M 208.301865 125.783594 
L 210.101865 122.783594 
L 208.301865 119.783594 
L 206.501865 122.783594 
z
" clip-path="url(#pfd5800ef53)" style="fill: #332288; fill-opacity: 0.6; stroke: #ffffff; stroke-opacity: 0.6; stroke-width: 0.339411"/>
    <path d="M 155.023743 152.909955 
L 156.823743 149.909955 
L 155.023743 146.909955 
L 153.223743 149.909955 
z
" clip-path="url(#pfd5800ef53)" style="fill: #332288; fill-opacity: 0.6; stroke: #ffffff; stroke-opacity: 0.6; stroke-width: 0.339411"/>
    <path d="M 204.71822 121.597577 
L 206.51822 118.597577 
L 204.71822 115.597577 
L 202.91822 118.597577 
z
" clip-path="url(#pfd5800ef53)" style="fill: #332288; fill-opacity: 0.6; stroke: #ffffff; stroke-opacity: 0.6; stroke-width: 0.339411"/>
    <path d="M 202.884558 115.572719 
L 204.684558 112.572719 
L 202.884558 109.572719 
L 201.084558 112.572719 
z
" clip-path="url(#pfd5800ef53)" style="fill: #332288; fill-opacity: 0.6; stroke: #ffffff; stroke-opacity: 0.6; stroke-width: 0.339411"/>
    <path d="M 160.046958 138.261248 
L 161.846958 135.261248 
L 160.046958 132.261248 
L 158.246958 135.261248 
z
" clip-path="url(#pfd5800ef53)" style="fill: #332288; fill-opacity: 0.6; stroke: #ffffff; stroke-opacity: 0.6; stroke-width: 0.339411"/>
    <path d="M 209.182008 128.793507 
L 210.982008 125.793507 
L 209.182008 122.793507 
L 207.382008 125.793507 
z
" clip-path="url(#pfd5800ef53)" style="fill: #332288; fill-opacity: 0.6; stroke: #ffffff; stroke-opacity: 0.6; stroke-width: 0.339411"/>
    <path d="M 157.914734 141.262874 
L 159.714734 138.262874 
L 157.914734 135.262874 
L 156.114734 138.262874 
z
" clip-path="url(#pfd5800ef53)" style="fill: #332288; fill-opacity: 0.6; stroke: #ffffff; stroke-opacity: 0.6; stroke-width: 0.339411"/>
    <path d="M 154.737199 164.047926 
L 152.615878 168.290567 
L 156.858519 168.290567 
z
" clip-path="url(#pfd5800ef53)" style="fill: #117733; fill-opacity: 0.6; stroke: #ffffff; stroke-opacity: 0.6; stroke-width: 0.339411"/>
    <path d="M 186.708107 121.704593 
L 184.586786 125.947234 
L 188.829427 125.947234 
z
" clip-path="url(#pfd5800ef53)" style="fill: #117733; fill-opacity: 0.6; stroke: #ffffff; stroke-opacity: 0.6; stroke-width: 0.339411"/>
    <path d="M 150.807308 157.527934 
L 148.685988 161.770575 
L 152.928629 161.770575 
z
" clip-path="url(#pfd5800ef53)" style="fill: #117733; fill-opacity: 0.6; stroke: #ffffff; stroke-opacity: 0.6; stroke-width: 0.339411"/>
    <path d="M 202.454682 129.058818 
L 200.333362 133.301458 
L 204.576003 133.301458 
z
" clip-path="url(#pfd5800ef53)" style="fill: #117733; fill-opacity: 0.6; stroke: #ffffff; stroke-opacity: 0.6; stroke-width: 0.339411"/>
    <path d="M 176.951491 149.638703 
L 174.83017 153.881344 
L 179.072811 153.881344 
z
" clip-path="url(#pfd5800ef53)" style="fill: #117733; fill-opacity: 0.6; stroke: #ffffff; stroke-opacity: 0.6; stroke-width: 0.339411"/>
    <path d="M 180.28905 122.235474 
L 178.16773 126.478114 
L 182.410371 126.478114 
z
" clip-path="url(#pfd5800ef53)" style="fill: #117733; fill-opacity: 0.6; stroke: #ffffff; stroke-opacity: 0.6; stroke-width: 0.339411"/>
    <path d="M 152.798769 168.846308 
L 150.677449 173.088948 
L 154.92009 173.088948 
z
" clip-path="url(#pfd5800ef53)" style="fill: #117733; fill-opacity: 0.6; stroke: #ffffff; stroke-opacity: 0.6; stroke-width: 0.339411"/>
    <path d="M 146.5242 161.099759 
L 144.40288 165.3424 
L 148.64552 165.3424 
z
" clip-path="url(#pfd5800ef53)" style="fill: #117733; fill-opacity: 0.6; stroke: #ffffff; stroke-opacity: 0.6; stroke-width: 0.339411"/>
    <path d="M 159.654423 173.201676 
L 157.533103 177.444317 
L 161.775744 177.444317 
z
" clip-path="url(#pfd5800ef53)" style="fill: #117733; fill-opacity: 0.6; stroke: #ffffff; stroke-opacity: 0.6; stroke-width: 0.339411"/>
    <path d="M 168.574122 128.545833 
L 166.452802 132.788473 
L 170.695443 132.788473 
z
" clip-path="url(#pfd5800ef53)" style="fill: #117733; fill-opacity: 0.6; stroke: #ffffff; stroke-opacity: 0.6; stroke-width: 0.339411"/>
    <path d="M 158.302058 166.777093 
L 156.180738 171.019734 
L 160.423378 171.019734 
z
" clip-path="url(#pfd5800ef53)" style="fill: #117733; fill-opacity: 0.6; stroke: #ffffff; stroke-opacity: 0.6; stroke-width: 0.339411"/>
    <path d="M 151.04405 171.470211 
L 148.92273 175.712852 
L 153.165371 175.712852 
z
" clip-path="url(#pfd5800ef53)" style="fill: #117733; fill-opacity: 0.6; stroke: #ffffff; stroke-opacity: 0.6; stroke-width: 0.339411"/>
    <path d="M 175.289258 151.161657 
L 173.167938 155.404298 
L 177.410578 155.404298 
z
" clip-path="url(#pfd5800ef53)" style="fill: #117733; fill-opacity: 0.6; stroke: #ffffff; stroke-opacity: 0.6; stroke-width: 0.339411"/>
    <path d="M 148.754595 168.526357 
L 146.633275 172.768998 
L 150.875916 172.768998 
z
" clip-path="url(#pfd5800ef53)" style="fill: #117733; fill-opacity: 0.6; stroke: #ffffff; stroke-opacity: 0.6; stroke-width: 0.339411"/>
    <path d="M 162.761495 171.538831 
L 160.640174 175.781472 
L 164.882815 175.781472 
z
" clip-path="url(#pfd5800ef53)" style="fill: #117733; fill-opacity: 0.6; stroke: #ffffff; stroke-opacity: 0.6; stroke-width: 0.339411"/>
    <path d="M 154.570425 160.032284 
L 152.449105 164.274925 
L 156.691746 164.274925 
z
" clip-path="url(#pfd5800ef53)" style="fill: #117733; fill-opacity: 0.6; stroke: #ffffff; stroke-opacity: 0.6; stroke-width: 0.339411"/>
    <path d="M 150.591122 166.743857 
L 148.469802 170.986497 
L 152.712443 170.986497 
z
" clip-path="url(#pfd5800ef53)" style="fill: #117733; fill-opacity: 0.6; stroke: #ffffff; stroke-opacity: 0.6; stroke-width: 0.339411"/>
    <path d="M 146.310121 153.234164 
L 144.1888 157.476805 
L 148.431441 157.476805 
z
" clip-path="url(#pfd5800ef53)" style="fill: #117733; fill-opacity: 0.6; stroke: #ffffff; stroke-opacity: 0.6; stroke-width: 0.339411"/>
    <path d="M 160.749781 172.774711 
L 158.628461 177.017351 
L 162.871102 177.017351 
z
" clip-path="url(#pfd5800ef53)" style="fill: #117733; fill-opacity: 0.6; stroke: #ffffff; stroke-opacity: 0.6; stroke-width: 0.339411"/>
    <path d="M 146.59817 156.395318 
L 144.47685 160.637958 
L 148.719491 160.637958 
z
" clip-path="url(#pfd5800ef53)" style="fill: #117733; fill-opacity: 0.6; stroke: #ffffff; stroke-opacity: 0.6; stroke-width: 0.339411"/>
    <path d="M 159.804193 168.277496 
L 157.682873 172.520136 
L 161.925514 172.520136 
z
" clip-path="url(#pfd5800ef53)" style="fill: #117733; fill-opacity: 0.6; stroke: #ffffff; stroke-opacity: 0.6; stroke-width: 0.339411"/>
    <path d="M 144.826864 153.95499 
L 142.705544 158.19763 
L 146.948184 158.19763 
z
" clip-path="url(#pfd5800ef53)" style="fill: #117733; fill-opacity: 0.6; stroke: #ffffff; stroke-opacity: 0.6; stroke-width: 0.339411"/>
    <path d="M 154.419011 159.962845 
L 152.297691 164.205486 
L 156.540332 164.205486 
z
" clip-path="url(#pfd5800ef53)" style="fill: #117733; fill-opacity: 0.6; stroke: #ffffff; stroke-opacity: 0.6; stroke-width: 0.339411"/>
    <path d="M 144.426895 155.400352 
L 142.305574 159.642993 
L 146.548215 159.642993 
z
" clip-path="url(#pfd5800ef53)" style="fill: #117733; fill-opacity: 0.6; stroke: #ffffff; stroke-opacity: 0.6; stroke-width: 0.339411"/>
    <path d="M 190.339897 153.200358 
L 188.218577 157.442998 
L 192.461217 157.442998 
z
" clip-path="url(#pfd5800ef53)" style="fill: #117733; fill-opacity: 0.6; stroke: #ffffff; stroke-opacity: 0.6; stroke-width: 0.339411"/>
    <path d="M 156.60354 157.548783 
L 154.48222 161.791424 
L 158.72486 161.791424 
z
" clip-path="url(#pfd5800ef53)" style="fill: #117733; fill-opacity: 0.6; stroke: #ffffff; stroke-opacity: 0.6; stroke-width: 0.339411"/>
    <path d="M 177.50434 152.164315 
L 175.38302 156.406955 
L 179.62566 156.406955 
z
" clip-path="url(#pfd5800ef53)" style="fill: #117733; fill-opacity: 0.6; stroke: #ffffff; stroke-opacity: 0.6; stroke-width: 0.339411"/>
    <path d="M 179.029052 152.83887 
L 176.907732 157.081511 
L 181.150372 157.081511 
z
" clip-path="url(#pfd5800ef53)" style="fill: #117733; fill-opacity: 0.6; stroke: #ffffff; stroke-opacity: 0.6; stroke-width: 0.339411"/>
    <path d="M 155.815903 162.037308 
L 153.694583 166.279949 
L 157.937223 166.279949 
z
" clip-path="url(#pfd5800ef53)" style="fill: #117733; fill-opacity: 0.6; stroke: #ffffff; stroke-opacity: 0.6; stroke-width: 0.339411"/>
    <path d="M 181.490662 123.45888 
L 179.369342 127.70152 
L 183.611983 127.70152 
z
" clip-path="url(#pfd5800ef53)" style="fill: #117733; fill-opacity: 0.6; stroke: #ffffff; stroke-opacity: 0.6; stroke-width: 0.339411"/>
    <path d="M 145.011486 155.678604 
L 142.890166 159.921245 
L 147.132807 159.921245 
z
" clip-path="url(#pfd5800ef53)" style="fill: #117733; fill-opacity: 0.6; stroke: #ffffff; stroke-opacity: 0.6; stroke-width: 0.339411"/>
    <path d="M 202.587766 129.320146 
L 200.466445 133.562786 
L 204.709086 133.562786 
z
" clip-path="url(#pfd5800ef53)" style="fill: #117733; fill-opacity: 0.6; stroke: #ffffff; stroke-opacity: 0.6; stroke-width: 0.339411"/>
    <path d="M 154.024873 171.450135 
L 151.903552 175.692776 
L 156.146193 175.692776 
z
" clip-path="url(#pfd5800ef53)" style="fill: #117733; fill-opacity: 0.6; stroke: #ffffff; stroke-opacity: 0.6; stroke-width: 0.339411"/>
    <path d="M 148.186611 155.783951 
L 146.065291 160.026592 
L 150.307931 160.026592 
z
" clip-path="url(#pfd5800ef53)" style="fill: #117733; fill-opacity: 0.6; stroke: #ffffff; stroke-opacity: 0.6; stroke-width: 0.339411"/>
    <path d="M 178.275819 150.437453 
L 176.154498 154.680093 
L 180.397139 154.680093 
z
" clip-path="url(#pfd5800ef53)" style="fill: #117733; fill-opacity: 0.6; stroke: #ffffff; stroke-opacity: 0.6; stroke-width: 0.339411"/>
    <path d="M 175.971288 150.037168 
L 173.849968 154.279809 
L 178.092608 154.279809 
z
" clip-path="url(#pfd5800ef53)" style="fill: #117733; fill-opacity: 0.6; stroke: #ffffff; stroke-opacity: 0.6; stroke-width: 0.339411"/>
    <path d="M 148.574127 156.507544 
L 146.452806 160.750185 
L 150.695447 160.750185 
z
" clip-path="url(#pfd5800ef53)" style="fill: #117733; fill-opacity: 0.6; stroke: #ffffff; stroke-opacity: 0.6; stroke-width: 0.339411"/>
    <path d="M 162.063009 170.574513 
L 159.941689 174.817154 
L 164.184329 174.817154 
z
" clip-path="url(#pfd5800ef53)" style="fill: #117733; fill-opacity: 0.6; stroke: #ffffff; stroke-opacity: 0.6; stroke-width: 0.339411"/>
    <path d="M 152.406176 172.675588 
L 150.284855 176.918229 
L 154.527496 176.918229 
z
" clip-path="url(#pfd5800ef53)" style="fill: #117733; fill-opacity: 0.6; stroke: #ffffff; stroke-opacity: 0.6; stroke-width: 0.339411"/>
    <path d="M 147.845134 152.47112 
L 145.723813 156.713761 
L 149.966454 156.713761 
z
" clip-path="url(#pfd5800ef53)" style="fill: #117733; fill-opacity: 0.6; stroke: #ffffff; stroke-opacity: 0.6; stroke-width: 0.339411"/>
    <path d="M 168.346387 111.998882 
L 166.225067 116.241523 
L 170.467707 116.241523 
z
" clip-path="url(#pfd5800ef53)" style="fill: #117733; fill-opacity: 0.6; stroke: #ffffff; stroke-opacity: 0.6; stroke-width: 0.339411"/>
    <path d="M 189.285315 94.678079 
L 187.163994 98.92072 
L 191.406635 98.92072 
z
" clip-path="url(#pfd5800ef53)" style="fill: #117733; fill-opacity: 0.6; stroke: #ffffff; stroke-opacity: 0.6; stroke-width: 0.339411"/>
    <path d="M 153.902157 162.468404 
L 151.780836 166.711044 
L 156.023477 166.711044 
z
" clip-path="url(#pfd5800ef53)" style="fill: #117733; fill-opacity: 0.6; stroke: #ffffff; stroke-opacity: 0.6; stroke-width: 0.339411"/>
    <path d="M 160.086795 171.23091 
L 157.965475 175.473551 
L 162.208116 175.473551 
z
" clip-path="url(#pfd5800ef53)" style="fill: #117733; fill-opacity: 0.6; stroke: #ffffff; stroke-opacity: 0.6; stroke-width: 0.339411"/>
    <path d="M 188.62563 85.438833 
L 186.50431 89.681474 
L 190.746951 89.681474 
z
" clip-path="url(#pfd5800ef53)" style="fill: #117733; fill-opacity: 0.6; stroke: #ffffff; stroke-opacity: 0.6; stroke-width: 0.339411"/>
    <path d="M 149.893053 166.389532 
L 147.771733 170.632173 
L 152.014373 170.632173 
z
" clip-path="url(#pfd5800ef53)" style="fill: #117733; fill-opacity: 0.6; stroke: #ffffff; stroke-opacity: 0.6; stroke-width: 0.339411"/>
    <path d="M 171.587902 116.934656 
L 169.466581 121.177296 
L 173.709222 121.177296 
z
" clip-path="url(#pfd5800ef53)" style="fill: #117733; fill-opacity: 0.6; stroke: #ffffff; stroke-opacity: 0.6; stroke-width: 0.339411"/>
    <path d="M 147.444207 158.990224 
L 145.322887 163.232864 
L 149.565527 163.232864 
z
" clip-path="url(#pfd5800ef53)" style="fill: #117733; fill-opacity: 0.6; stroke: #ffffff; stroke-opacity: 0.6; stroke-width: 0.339411"/>
    <path d="M 155.165853 169.959359 
L 153.044533 174.202 
L 157.287173 174.202 
z
" clip-path="url(#pfd5800ef53)" style="fill: #117733; fill-opacity: 0.6; stroke: #ffffff; stroke-opacity: 0.6; stroke-width: 0.339411"/>
    <path d="M 179.575252 151.017752 
L 177.453932 155.260393 
L 181.696572 155.260393 
z
" clip-path="url(#pfd5800ef53)" style="fill: #117733; fill-opacity: 0.6; stroke: #ffffff; stroke-opacity: 0.6; stroke-width: 0.339411"/>
    <path d="M 161.586243 171.737059 
L 159.464923 175.9797 
L 163.707563 175.9797 
z
" clip-path="url(#pfd5800ef53)" style="fill: #117733; fill-opacity: 0.6; stroke: #ffffff; stroke-opacity: 0.6; stroke-width: 0.339411"/>
    <path d="M 148.347164 160.520233 
L 146.225844 164.762873 
L 150.468484 164.762873 
z
" clip-path="url(#pfd5800ef53)" style="fill: #117733; fill-opacity: 0.6; stroke: #ffffff; stroke-opacity: 0.6; stroke-width: 0.339411"/>
    <path d="M 151.432055 164.509202 
L 149.310734 168.751842 
L 153.553375 168.751842 
z
" clip-path="url(#pfd5800ef53)" style="fill: #117733; fill-opacity: 0.6; stroke: #ffffff; stroke-opacity: 0.6; stroke-width: 0.339411"/>
    <path d="M 151.2196 168.115848 
L 149.098279 172.358489 
L 153.34092 172.358489 
z
" clip-path="url(#pfd5800ef53)" style="fill: #117733; fill-opacity: 0.6; stroke: #ffffff; stroke-opacity: 0.6; stroke-width: 0.339411"/>
    <path d="M 158.08368 171.635715 
L 155.962359 175.878355 
L 160.205 175.878355 
z
" clip-path="url(#pfd5800ef53)" style="fill: #117733; fill-opacity: 0.6; stroke: #ffffff; stroke-opacity: 0.6; stroke-width: 0.339411"/>
    <path d="M 146.633564 160.466494 
L 144.512244 164.709135 
L 148.754884 164.709135 
z
" clip-path="url(#pfd5800ef53)" style="fill: #117733; fill-opacity: 0.6; stroke: #ffffff; stroke-opacity: 0.6; stroke-width: 0.339411"/>
    <path d="M 152.485264 167.266435 
L 150.363943 171.509075 
L 154.606584 171.509075 
z
" clip-path="url(#pfd5800ef53)" style="fill: #117733; fill-opacity: 0.6; stroke: #ffffff; stroke-opacity: 0.6; stroke-width: 0.339411"/>
    <path d="M 149.342521 160.946278 
L 147.221201 165.188919 
L 151.463842 165.188919 
z
" clip-path="url(#pfd5800ef53)" style="fill: #117733; fill-opacity: 0.6; stroke: #ffffff; stroke-opacity: 0.6; stroke-width: 0.339411"/>
    <path d="M 178.317974 147.237078 
L 176.196654 151.479719 
L 180.439294 151.479719 
z
" clip-path="url(#pfd5800ef53)" style="fill: #117733; fill-opacity: 0.6; stroke: #ffffff; stroke-opacity: 0.6; stroke-width: 0.339411"/>
    <path d="M 201.588763 130.849158 
L 199.467443 135.091799 
L 203.710084 135.091799 
z
" clip-path="url(#pfd5800ef53)" style="fill: #117733; fill-opacity: 0.6; stroke: #ffffff; stroke-opacity: 0.6; stroke-width: 0.339411"/>
    <path d="M 197.758259 129.868232 
L 195.636939 134.110873 
L 199.87958 134.110873 
z
" clip-path="url(#pfd5800ef53)" style="fill: #117733; fill-opacity: 0.6; stroke: #ffffff; stroke-opacity: 0.6; stroke-width: 0.339411"/>
    <path d="M 153.731917 168.050172 
L 151.610596 172.292812 
L 155.853237 172.292812 
z
" clip-path="url(#pfd5800ef53)" style="fill: #117733; fill-opacity: 0.6; stroke: #ffffff; stroke-opacity: 0.6; stroke-width: 0.339411"/>
    <path d="M 170.436488 75.902682 
L 168.315168 80.145323 
L 172.557809 80.145323 
z
" clip-path="url(#pfd5800ef53)" style="fill: #117733; fill-opacity: 0.6; stroke: #ffffff; stroke-opacity: 0.6; stroke-width: 0.339411"/>
    <path d="M 181.711247 89.181312 
L 185.953888 89.181312 
L 185.953888 84.938672 
L 181.711247 84.938672 
z
" clip-path="url(#pfd5800ef53)" style="fill: #44aa99; fill-opacity: 0.6; stroke: #ffffff; stroke-opacity: 0.6; stroke-width: 0.339411"/>
    <path d="M 194.731572 135.371035 
L 198.974212 135.371035 
L 198.974212 131.128394 
L 194.731572 131.128394 
z
" clip-path="url(#pfd5800ef53)" style="fill: #44aa99; fill-opacity: 0.6; stroke: #ffffff; stroke-opacity: 0.6; stroke-width: 0.339411"/>
    <path d="M 182.565406 133.011642 
L 186.808047 133.011642 
L 186.808047 128.769002 
L 182.565406 128.769002 
z
" clip-path="url(#pfd5800ef53)" style="fill: #44aa99; fill-opacity: 0.6; stroke: #ffffff; stroke-opacity: 0.6; stroke-width: 0.339411"/>
    <path d="M 186.965835 131.441496 
L 191.208476 131.441496 
L 191.208476 127.198855 
L 186.965835 127.198855 
z
" clip-path="url(#pfd5800ef53)" style="fill: #44aa99; fill-opacity: 0.6; stroke: #ffffff; stroke-opacity: 0.6; stroke-width: 0.339411"/>
    <path d="M 169.836281 109.747882 
L 174.078922 109.747882 
L 174.078922 105.505242 
L 169.836281 105.505242 
z
" clip-path="url(#pfd5800ef53)" style="fill: #44aa99; fill-opacity: 0.6; stroke: #ffffff; stroke-opacity: 0.6; stroke-width: 0.339411"/>
    <path d="M 187.686369 100.743011 
L 191.92901 100.743011 
L 191.92901 96.50037 
L 187.686369 96.50037 
z
" clip-path="url(#pfd5800ef53)" style="fill: #44aa99; fill-opacity: 0.6; stroke: #ffffff; stroke-opacity: 0.6; stroke-width: 0.339411"/>
    <path d="M 195.436198 122.981807 
L 199.678839 122.981807 
L 199.678839 118.739167 
L 195.436198 118.739167 
z
" clip-path="url(#pfd5800ef53)" style="fill: #44aa99; fill-opacity: 0.6; stroke: #ffffff; stroke-opacity: 0.6; stroke-width: 0.339411"/>
    <path d="M 194.857101 129.820339 
L 199.099741 129.820339 
L 199.099741 125.577699 
L 194.857101 125.577699 
z
" clip-path="url(#pfd5800ef53)" style="fill: #44aa99; fill-opacity: 0.6; stroke: #ffffff; stroke-opacity: 0.6; stroke-width: 0.339411"/>
    <path d="M 184.229455 89.205606 
L 188.472095 89.205606 
L 188.472095 84.962965 
L 184.229455 84.962965 
z
" clip-path="url(#pfd5800ef53)" style="fill: #44aa99; fill-opacity: 0.6; stroke: #ffffff; stroke-opacity: 0.6; stroke-width: 0.339411"/>
    <path d="M 186.35386 106.365192 
L 190.596501 106.365192 
L 190.596501 102.122551 
L 186.35386 102.122551 
z
" clip-path="url(#pfd5800ef53)" style="fill: #44aa99; fill-opacity: 0.6; stroke: #ffffff; stroke-opacity: 0.6; stroke-width: 0.339411"/>
    <path d="M 194.671508 108.332637 
L 198.914149 108.332637 
L 198.914149 104.089996 
L 194.671508 104.089996 
z
" clip-path="url(#pfd5800ef53)" style="fill: #44aa99; fill-opacity: 0.6; stroke: #ffffff; stroke-opacity: 0.6; stroke-width: 0.339411"/>
    <path d="M 170.029653 82.792777 
L 174.272293 82.792777 
L 174.272293 78.550136 
L 170.029653 78.550136 
z
" clip-path="url(#pfd5800ef53)" style="fill: #44aa99; fill-opacity: 0.6; stroke: #ffffff; stroke-opacity: 0.6; stroke-width: 0.339411"/>
    <path d="M 167.638645 91.449089 
L 171.881286 91.449089 
L 171.881286 87.206448 
L 167.638645 87.206448 
z
" clip-path="url(#pfd5800ef53)" style="fill: #44aa99; fill-opacity: 0.6; stroke: #ffffff; stroke-opacity: 0.6; stroke-width: 0.339411"/>
    <path d="M 165.863093 153.806367 
L 170.105733 153.806367 
L 170.105733 149.563727 
L 165.863093 149.563727 
z
" clip-path="url(#pfd5800ef53)" style="fill: #44aa99; fill-opacity: 0.6; stroke: #ffffff; stroke-opacity: 0.6; stroke-width: 0.339411"/>
    <path d="M 173.629034 80.323289 
L 177.871675 80.323289 
L 177.871675 76.080648 
L 173.629034 76.080648 
z
" clip-path="url(#pfd5800ef53)" style="fill: #44aa99; fill-opacity: 0.6; stroke: #ffffff; stroke-opacity: 0.6; stroke-width: 0.339411"/>
    <path d="M 166.780016 154.46221 
L 171.022657 154.46221 
L 171.022657 150.219569 
L 166.780016 150.219569 
z
" clip-path="url(#pfd5800ef53)" style="fill: #44aa99; fill-opacity: 0.6; stroke: #ffffff; stroke-opacity: 0.6; stroke-width: 0.339411"/>
    <path d="M 186.679562 133.004174 
L 190.922203 133.004174 
L 190.922203 128.761533 
L 186.679562 128.761533 
z
" clip-path="url(#pfd5800ef53)" style="fill: #44aa99; fill-opacity: 0.6; stroke: #ffffff; stroke-opacity: 0.6; stroke-width: 0.339411"/>
    <path d="M 182.572934 90.758191 
L 186.815574 90.758191 
L 186.815574 86.51555 
L 182.572934 86.51555 
z
" clip-path="url(#pfd5800ef53)" style="fill: #44aa99; fill-opacity: 0.6; stroke: #ffffff; stroke-opacity: 0.6; stroke-width: 0.339411"/>
    <path d="M 171.931288 79.788849 
L 176.173929 79.788849 
L 176.173929 75.546209 
L 171.931288 75.546209 
z
" clip-path="url(#pfd5800ef53)" style="fill: #44aa99; fill-opacity: 0.6; stroke: #ffffff; stroke-opacity: 0.6; stroke-width: 0.339411"/>
    <path d="M 191.396303 105.60035 
L 195.638944 105.60035 
L 195.638944 101.357709 
L 191.396303 101.357709 
z
" clip-path="url(#pfd5800ef53)" style="fill: #44aa99; fill-opacity: 0.6; stroke: #ffffff; stroke-opacity: 0.6; stroke-width: 0.339411"/>
    <path d="M 198.22528 134.309615 
L 202.467921 134.309615 
L 202.467921 130.066974 
L 198.22528 130.066974 
z
" clip-path="url(#pfd5800ef53)" style="fill: #44aa99; fill-opacity: 0.6; stroke: #ffffff; stroke-opacity: 0.6; stroke-width: 0.339411"/>
    <path d="M 177.41062 130.102961 
L 181.653261 130.102961 
L 181.653261 125.86032 
L 177.41062 125.86032 
z
" clip-path="url(#pfd5800ef53)" style="fill: #44aa99; fill-opacity: 0.6; stroke: #ffffff; stroke-opacity: 0.6; stroke-width: 0.339411"/>
    <path d="M 177.119157 127.646016 
L 181.361797 127.646016 
L 181.361797 123.403375 
L 177.119157 123.403375 
z
" clip-path="url(#pfd5800ef53)" style="fill: #44aa99; fill-opacity: 0.6; stroke: #ffffff; stroke-opacity: 0.6; stroke-width: 0.339411"/>
    <path d="M 166.344257 124.409748 
L 170.586897 124.409748 
L 170.586897 120.167107 
L 166.344257 120.167107 
z
" clip-path="url(#pfd5800ef53)" style="fill: #44aa99; fill-opacity: 0.6; stroke: #ffffff; stroke-opacity: 0.6; stroke-width: 0.339411"/>
    <path d="M 159.129402 156.144894 
L 163.372042 156.144894 
L 163.372042 151.902253 
L 159.129402 151.902253 
z
" clip-path="url(#pfd5800ef53)" style="fill: #44aa99; fill-opacity: 0.6; stroke: #ffffff; stroke-opacity: 0.6; stroke-width: 0.339411"/>
    <path d="M 174.914911 81.007597 
L 179.157551 81.007597 
L 179.157551 76.764956 
L 174.914911 76.764956 
z
" clip-path="url(#pfd5800ef53)" style="fill: #44aa99; fill-opacity: 0.6; stroke: #ffffff; stroke-opacity: 0.6; stroke-width: 0.339411"/>
    <path d="M 173.264762 85.237661 
L 177.507403 85.237661 
L 177.507403 80.99502 
L 173.264762 80.99502 
z
" clip-path="url(#pfd5800ef53)" style="fill: #44aa99; fill-opacity: 0.6; stroke: #ffffff; stroke-opacity: 0.6; stroke-width: 0.339411"/>
    <path d="M 174.217244 81.973094 
L 178.459885 81.973094 
L 178.459885 77.730453 
L 174.217244 77.730453 
z
" clip-path="url(#pfd5800ef53)" style="fill: #44aa99; fill-opacity: 0.6; stroke: #ffffff; stroke-opacity: 0.6; stroke-width: 0.339411"/>
    <path d="M 190.915767 103.055888 
L 195.158408 103.055888 
L 195.158408 98.813247 
L 190.915767 98.813247 
z
" clip-path="url(#pfd5800ef53)" style="fill: #44aa99; fill-opacity: 0.6; stroke: #ffffff; stroke-opacity: 0.6; stroke-width: 0.339411"/>
    <path d="M 179.400061 132.547568 
L 183.642701 132.547568 
L 183.642701 128.304927 
L 179.400061 128.304927 
z
" clip-path="url(#pfd5800ef53)" style="fill: #44aa99; fill-opacity: 0.6; stroke: #ffffff; stroke-opacity: 0.6; stroke-width: 0.339411"/>
    <path d="M 191.498153 97.195214 
L 195.740794 97.195214 
L 195.740794 92.952574 
L 191.498153 92.952574 
z
" clip-path="url(#pfd5800ef53)" style="fill: #44aa99; fill-opacity: 0.6; stroke: #ffffff; stroke-opacity: 0.6; stroke-width: 0.339411"/>
    <path d="M 190.130177 99.828702 
L 194.372818 99.828702 
L 194.372818 95.586062 
L 190.130177 95.586062 
z
" clip-path="url(#pfd5800ef53)" style="fill: #44aa99; fill-opacity: 0.6; stroke: #ffffff; stroke-opacity: 0.6; stroke-width: 0.339411"/>
    <path d="M 185.380472 105.318969 
L 189.623113 105.318969 
L 189.623113 101.076329 
L 185.380472 101.076329 
z
" clip-path="url(#pfd5800ef53)" style="fill: #44aa99; fill-opacity: 0.6; stroke: #ffffff; stroke-opacity: 0.6; stroke-width: 0.339411"/>
    <path d="M 172.540477 84.654806 
L 176.783118 84.654806 
L 176.783118 80.412165 
L 172.540477 80.412165 
z
" clip-path="url(#pfd5800ef53)" style="fill: #44aa99; fill-opacity: 0.6; stroke: #ffffff; stroke-opacity: 0.6; stroke-width: 0.339411"/>
    <path d="M 170.204898 83.851724 
L 174.447539 83.851724 
L 174.447539 79.609083 
L 170.204898 79.609083 
z
" clip-path="url(#pfd5800ef53)" style="fill: #44aa99; fill-opacity: 0.6; stroke: #ffffff; stroke-opacity: 0.6; stroke-width: 0.339411"/>
    <path d="M 186.220281 120.682266 
L 190.462922 120.682266 
L 190.462922 116.439625 
L 186.220281 116.439625 
z
" clip-path="url(#pfd5800ef53)" style="fill: #44aa99; fill-opacity: 0.6; stroke: #ffffff; stroke-opacity: 0.6; stroke-width: 0.339411"/>
    <path d="M 157.234131 156.253925 
L 161.476772 156.253925 
L 161.476772 152.011284 
L 157.234131 152.011284 
z
" clip-path="url(#pfd5800ef53)" style="fill: #44aa99; fill-opacity: 0.6; stroke: #ffffff; stroke-opacity: 0.6; stroke-width: 0.339411"/>
    <path d="M 197.816601 125.484107 
L 202.059242 125.484107 
L 202.059242 121.241467 
L 197.816601 121.241467 
z
" clip-path="url(#pfd5800ef53)" style="fill: #44aa99; fill-opacity: 0.6; stroke: #ffffff; stroke-opacity: 0.6; stroke-width: 0.339411"/>
    <path d="M 193.688657 121.069312 
L 197.931298 121.069312 
L 197.931298 116.826672 
L 193.688657 116.826672 
z
" clip-path="url(#pfd5800ef53)" style="fill: #44aa99; fill-opacity: 0.6; stroke: #ffffff; stroke-opacity: 0.6; stroke-width: 0.339411"/>
    <path d="M 194.63795 135.572763 
L 198.880591 135.572763 
L 198.880591 131.330122 
L 194.63795 131.330122 
z
" clip-path="url(#pfd5800ef53)" style="fill: #44aa99; fill-opacity: 0.6; stroke: #ffffff; stroke-opacity: 0.6; stroke-width: 0.339411"/>
    <path d="M 195.235286 119.601808 
L 199.477927 119.601808 
L 199.477927 115.359167 
L 195.235286 115.359167 
z
" clip-path="url(#pfd5800ef53)" style="fill: #44aa99; fill-opacity: 0.6; stroke: #ffffff; stroke-opacity: 0.6; stroke-width: 0.339411"/>
    <path d="M 180.805272 132.665288 
L 185.047913 132.665288 
L 185.047913 128.422648 
L 180.805272 128.422648 
z
" clip-path="url(#pfd5800ef53)" style="fill: #44aa99; fill-opacity: 0.6; stroke: #ffffff; stroke-opacity: 0.6; stroke-width: 0.339411"/>
    <path d="M 169.463055 81.210602 
L 173.705696 81.210602 
L 173.705696 76.967962 
L 169.463055 76.967962 
z
" clip-path="url(#pfd5800ef53)" style="fill: #44aa99; fill-opacity: 0.6; stroke: #ffffff; stroke-opacity: 0.6; stroke-width: 0.339411"/>
    <path d="M 175.325848 82.871772 
L 179.568489 82.871772 
L 179.568489 78.629131 
L 175.325848 78.629131 
z
" clip-path="url(#pfd5800ef53)" style="fill: #44aa99; fill-opacity: 0.6; stroke: #ffffff; stroke-opacity: 0.6; stroke-width: 0.339411"/>
    <path d="M 165.473576 122.662613 
L 169.716217 122.662613 
L 169.716217 118.419972 
L 165.473576 118.419972 
z
" clip-path="url(#pfd5800ef53)" style="fill: #44aa99; fill-opacity: 0.6; stroke: #ffffff; stroke-opacity: 0.6; stroke-width: 0.339411"/>
    <path d="M 179.57069 131.357819 
L 183.813331 131.357819 
L 183.813331 127.115178 
L 179.57069 127.115178 
z
" clip-path="url(#pfd5800ef53)" style="fill: #44aa99; fill-opacity: 0.6; stroke: #ffffff; stroke-opacity: 0.6; stroke-width: 0.339411"/>
    <path d="M 188.381408 91.794739 
L 192.624049 91.794739 
L 192.624049 87.552099 
L 188.381408 87.552099 
z
" clip-path="url(#pfd5800ef53)" style="fill: #44aa99; fill-opacity: 0.6; stroke: #ffffff; stroke-opacity: 0.6; stroke-width: 0.339411"/>
    <path d="M 198.298485 120.660983 
L 202.541125 120.660983 
L 202.541125 116.418342 
L 198.298485 116.418342 
z
" clip-path="url(#pfd5800ef53)" style="fill: #44aa99; fill-opacity: 0.6; stroke: #ffffff; stroke-opacity: 0.6; stroke-width: 0.339411"/>
    <path d="M 173.273914 87.086952 
L 177.516555 87.086952 
L 177.516555 82.844311 
L 173.273914 82.844311 
z
" clip-path="url(#pfd5800ef53)" style="fill: #44aa99; fill-opacity: 0.6; stroke: #ffffff; stroke-opacity: 0.6; stroke-width: 0.339411"/>
    <path d="M 184.804016 103.939986 
L 189.046656 103.939986 
L 189.046656 99.697345 
L 184.804016 99.697345 
z
" clip-path="url(#pfd5800ef53)" style="fill: #44aa99; fill-opacity: 0.6; stroke: #ffffff; stroke-opacity: 0.6; stroke-width: 0.339411"/>
    <path d="M 168.119637 86.561057 
L 172.362278 86.561057 
L 172.362278 82.318417 
L 168.119637 82.318417 
z
" clip-path="url(#pfd5800ef53)" style="fill: #44aa99; fill-opacity: 0.6; stroke: #ffffff; stroke-opacity: 0.6; stroke-width: 0.339411"/>
    <path d="M 179.515572 153.661382 
L 183.758213 153.661382 
L 183.758213 149.418741 
L 179.515572 149.418741 
z
" clip-path="url(#pfd5800ef53)" style="fill: #44aa99; fill-opacity: 0.6; stroke: #ffffff; stroke-opacity: 0.6; stroke-width: 0.339411"/>
    <path d="M 169.548013 154.194159 
L 173.790654 154.194159 
L 173.790654 149.951518 
L 169.548013 149.951518 
z
" clip-path="url(#pfd5800ef53)" style="fill: #44aa99; fill-opacity: 0.6; stroke: #ffffff; stroke-opacity: 0.6; stroke-width: 0.339411"/>
    <path d="M 167.464899 89.190953 
L 171.707539 89.190953 
L 171.707539 84.948312 
L 167.464899 84.948312 
z
" clip-path="url(#pfd5800ef53)" style="fill: #44aa99; fill-opacity: 0.6; stroke: #ffffff; stroke-opacity: 0.6; stroke-width: 0.339411"/>
    <path d="M 176.658655 91.672809 
L 180.901295 91.672809 
L 180.901295 87.430168 
L 176.658655 87.430168 
z
" clip-path="url(#pfd5800ef53)" style="fill: #44aa99; fill-opacity: 0.6; stroke: #ffffff; stroke-opacity: 0.6; stroke-width: 0.339411"/>
    <path d="M 196.863082 137.681766 
L 201.105723 137.681766 
L 201.105723 133.439125 
L 196.863082 133.439125 
z
" clip-path="url(#pfd5800ef53)" style="fill: #44aa99; fill-opacity: 0.6; stroke: #ffffff; stroke-opacity: 0.6; stroke-width: 0.339411"/>
    <path d="M 177.818785 89.679605 
L 182.061425 89.679605 
L 182.061425 85.436964 
L 177.818785 85.436964 
z
" clip-path="url(#pfd5800ef53)" style="fill: #44aa99; fill-opacity: 0.6; stroke: #ffffff; stroke-opacity: 0.6; stroke-width: 0.339411"/>
    <path d="M 180.648239 125.023163 
L 184.89088 125.023163 
L 184.89088 120.780522 
L 180.648239 120.780522 
z
" clip-path="url(#pfd5800ef53)" style="fill: #44aa99; fill-opacity: 0.6; stroke: #ffffff; stroke-opacity: 0.6; stroke-width: 0.339411"/>
    <path d="M 181.469282 130.931354 
L 185.711923 130.931354 
L 185.711923 126.688713 
L 181.469282 126.688713 
z
" clip-path="url(#pfd5800ef53)" style="fill: #44aa99; fill-opacity: 0.6; stroke: #ffffff; stroke-opacity: 0.6; stroke-width: 0.339411"/>
    <path d="M 174.485332 89.740402 
L 178.727973 89.740402 
L 178.727973 85.497761 
L 174.485332 85.497761 
z
" clip-path="url(#pfd5800ef53)" style="fill: #44aa99; fill-opacity: 0.6; stroke: #ffffff; stroke-opacity: 0.6; stroke-width: 0.339411"/>
    <path d="M 175.877014 81.424636 
L 180.119654 81.424636 
L 180.119654 77.181995 
L 175.877014 77.181995 
z
" clip-path="url(#pfd5800ef53)" style="fill: #44aa99; fill-opacity: 0.6; stroke: #ffffff; stroke-opacity: 0.6; stroke-width: 0.339411"/>
    <path d="M 175.598367 106.852692 
L 179.841008 106.852692 
L 179.841008 102.610051 
L 175.598367 102.610051 
z
" clip-path="url(#pfd5800ef53)" style="fill: #44aa99; fill-opacity: 0.6; stroke: #ffffff; stroke-opacity: 0.6; stroke-width: 0.339411"/>
    <path d="M 177.476422 84.331422 
L 181.719063 84.331422 
L 181.719063 80.088781 
L 177.476422 80.088781 
z
" clip-path="url(#pfd5800ef53)" style="fill: #44aa99; fill-opacity: 0.6; stroke: #ffffff; stroke-opacity: 0.6; stroke-width: 0.339411"/>
    <path d="M 174.104099 92.727418 
L 175.164759 91.666758 
L 176.225419 92.727418 
L 177.286079 91.666758 
L 176.225419 90.606098 
L 177.286079 89.545437 
L 176.225419 88.484777 
L 175.164759 89.545437 
L 174.104099 88.484777 
L 173.043439 89.545437 
L 174.104099 90.606098 
L 173.043439 91.666758 
z
" clip-path="url(#pfd5800ef53)" style="fill: #88ccee; fill-opacity: 0.6; stroke: #ffffff; stroke-opacity: 0.6; stroke-width: 0.339411"/>
    <path d="M 177.533134 94.894448 
L 178.593795 93.833788 
L 179.654455 94.894448 
L 180.715115 93.833788 
L 179.654455 92.773127 
L 180.715115 91.712467 
L 179.654455 90.651807 
L 178.593795 91.712467 
L 177.533134 90.651807 
L 176.472474 91.712467 
L 177.533134 92.773127 
L 176.472474 93.833788 
z
" clip-path="url(#pfd5800ef53)" style="fill: #88ccee; fill-opacity: 0.6; stroke: #ffffff; stroke-opacity: 0.6; stroke-width: 0.339411"/>
    <path d="M 193.652111 148.728574 
L 194.712771 147.667914 
L 195.773431 148.728574 
L 196.834091 147.667914 
L 195.773431 146.607254 
L 196.834091 145.546594 
L 195.773431 144.485933 
L 194.712771 145.546594 
L 193.652111 144.485933 
L 192.591451 145.546594 
L 193.652111 146.607254 
L 192.591451 147.667914 
z
" clip-path="url(#pfd5800ef53)" style="fill: #88ccee; fill-opacity: 0.6; stroke: #ffffff; stroke-opacity: 0.6; stroke-width: 0.339411"/>
    <path d="M 191.404263 153.60922 
L 192.464923 152.54856 
L 193.525583 153.60922 
L 194.586243 152.54856 
L 193.525583 151.487899 
L 194.586243 150.427239 
L 193.525583 149.366579 
L 192.464923 150.427239 
L 191.404263 149.366579 
L 190.343603 150.427239 
L 191.404263 151.487899 
L 190.343603 152.54856 
z
" clip-path="url(#pfd5800ef53)" style="fill: #88ccee; fill-opacity: 0.6; stroke: #ffffff; stroke-opacity: 0.6; stroke-width: 0.339411"/>
    <path d="M 171.358929 77.785793 
L 172.419589 76.725133 
L 173.480249 77.785793 
L 174.54091 76.725133 
L 173.480249 75.664473 
L 174.54091 74.603812 
L 173.480249 73.543152 
L 172.419589 74.603812 
L 171.358929 73.543152 
L 170.298269 74.603812 
L 171.358929 75.664473 
L 170.298269 76.725133 
z
" clip-path="url(#pfd5800ef53)" style="fill: #88ccee; fill-opacity: 0.6; stroke: #ffffff; stroke-opacity: 0.6; stroke-width: 0.339411"/>
    <path d="M 193.239483 156.587491 
L 194.300143 155.526831 
L 195.360803 156.587491 
L 196.421463 155.526831 
L 195.360803 154.466171 
L 196.421463 153.405511 
L 195.360803 152.34485 
L 194.300143 153.405511 
L 193.239483 152.34485 
L 192.178823 153.405511 
L 193.239483 154.466171 
L 192.178823 155.526831 
z
" clip-path="url(#pfd5800ef53)" style="fill: #88ccee; fill-opacity: 0.6; stroke: #ffffff; stroke-opacity: 0.6; stroke-width: 0.339411"/>
    <path d="M 175.369994 97.476318 
L 176.430654 96.415657 
L 177.491314 97.476318 
L 178.551974 96.415657 
L 177.491314 95.354997 
L 178.551974 94.294337 
L 177.491314 93.233677 
L 176.430654 94.294337 
L 175.369994 93.233677 
L 174.309334 94.294337 
L 175.369994 95.354997 
L 174.309334 96.415657 
z
" clip-path="url(#pfd5800ef53)" style="fill: #88ccee; fill-opacity: 0.6; stroke: #ffffff; stroke-opacity: 0.6; stroke-width: 0.339411"/>
    <path d="M 163.766847 126.329741 
L 164.827507 125.269081 
L 165.888167 126.329741 
L 166.948827 125.269081 
L 165.888167 124.208421 
L 166.948827 123.147761 
L 165.888167 122.0871 
L 164.827507 123.147761 
L 163.766847 122.0871 
L 162.706186 123.147761 
L 163.766847 124.208421 
L 162.706186 125.269081 
z
" clip-path="url(#pfd5800ef53)" style="fill: #88ccee; fill-opacity: 0.6; stroke: #ffffff; stroke-opacity: 0.6; stroke-width: 0.339411"/>
    <path d="M 179.960196 95.49667 
L 181.020856 94.43601 
L 182.081516 95.49667 
L 183.142177 94.43601 
L 182.081516 93.37535 
L 183.142177 92.31469 
L 182.081516 91.254029 
L 181.020856 92.31469 
L 179.960196 91.254029 
L 178.899536 92.31469 
L 179.960196 93.37535 
L 178.899536 94.43601 
z
" clip-path="url(#pfd5800ef53)" style="fill: #88ccee; fill-opacity: 0.6; stroke: #ffffff; stroke-opacity: 0.6; stroke-width: 0.339411"/>
    <path d="M 183.163161 101.746787 
L 184.223821 100.686127 
L 185.284481 101.746787 
L 186.345141 100.686127 
L 185.284481 99.625467 
L 186.345141 98.564807 
L 185.284481 97.504146 
L 184.223821 98.564807 
L 183.163161 97.504146 
L 182.1025 98.564807 
L 183.163161 99.625467 
L 182.1025 100.686127 
z
" clip-path="url(#pfd5800ef53)" style="fill: #88ccee; fill-opacity: 0.6; stroke: #ffffff; stroke-opacity: 0.6; stroke-width: 0.339411"/>
    <path d="M 187.390761 101.868361 
L 188.451422 100.807701 
L 189.512082 101.868361 
L 190.572742 100.807701 
L 189.512082 99.74704 
L 190.572742 98.68638 
L 189.512082 97.62572 
L 188.451422 98.68638 
L 187.390761 97.62572 
L 186.330101 98.68638 
L 187.390761 99.74704 
L 186.330101 100.807701 
z
" clip-path="url(#pfd5800ef53)" style="fill: #88ccee; fill-opacity: 0.6; stroke: #ffffff; stroke-opacity: 0.6; stroke-width: 0.339411"/>
    <path d="M 192.730328 152.204898 
L 193.790988 151.144238 
L 194.851648 152.204898 
L 195.912308 151.144238 
L 194.851648 150.083578 
L 195.912308 149.022918 
L 194.851648 147.962258 
L 193.790988 149.022918 
L 192.730328 147.962258 
L 191.669667 149.022918 
L 192.730328 150.083578 
L 191.669667 151.144238 
z
" clip-path="url(#pfd5800ef53)" style="fill: #88ccee; fill-opacity: 0.6; stroke: #ffffff; stroke-opacity: 0.6; stroke-width: 0.339411"/>
    <path d="M 176.485532 97.841923 
L 177.546192 96.781263 
L 178.606852 97.841923 
L 179.667512 96.781263 
L 178.606852 95.720603 
L 179.667512 94.659943 
L 178.606852 93.599283 
L 177.546192 94.659943 
L 176.485532 93.599283 
L 175.424871 94.659943 
L 176.485532 95.720603 
L 175.424871 96.781263 
z
" clip-path="url(#pfd5800ef53)" style="fill: #88ccee; fill-opacity: 0.6; stroke: #ffffff; stroke-opacity: 0.6; stroke-width: 0.339411"/>
    <path d="M 172.316363 93.001951 
L 173.377024 91.941291 
L 174.437684 93.001951 
L 175.498344 91.941291 
L 174.437684 90.88063 
L 175.498344 89.81997 
L 174.437684 88.75931 
L 173.377024 89.81997 
L 172.316363 88.75931 
L 171.255703 89.81997 
L 172.316363 90.88063 
L 171.255703 91.941291 
z
" clip-path="url(#pfd5800ef53)" style="fill: #88ccee; fill-opacity: 0.6; stroke: #ffffff; stroke-opacity: 0.6; stroke-width: 0.339411"/>
    <path d="M 172.040127 94.509541 
L 173.100787 93.44888 
L 174.161447 94.509541 
L 175.222108 93.44888 
L 174.161447 92.38822 
L 175.222108 91.32756 
L 174.161447 90.2669 
L 173.100787 91.32756 
L 172.040127 90.2669 
L 170.979467 91.32756 
L 172.040127 92.38822 
L 170.979467 93.44888 
z
" clip-path="url(#pfd5800ef53)" style="fill: #88ccee; fill-opacity: 0.6; stroke: #ffffff; stroke-opacity: 0.6; stroke-width: 0.339411"/>
    <path d="M 189.083779 105.79209 
L 190.144439 104.73143 
L 191.205099 105.79209 
L 192.265759 104.73143 
L 191.205099 103.67077 
L 192.265759 102.61011 
L 191.205099 101.54945 
L 190.144439 102.61011 
L 189.083779 101.54945 
L 188.023119 102.61011 
L 189.083779 103.67077 
L 188.023119 104.73143 
z
" clip-path="url(#pfd5800ef53)" style="fill: #88ccee; fill-opacity: 0.6; stroke: #ffffff; stroke-opacity: 0.6; stroke-width: 0.339411"/>
    <path d="M 192.465878 145.89492 
L 193.526538 144.83426 
L 194.587198 145.89492 
L 195.647858 144.83426 
L 194.587198 143.7736 
L 195.647858 142.712939 
L 194.587198 141.652279 
L 193.526538 142.712939 
L 192.465878 141.652279 
L 191.405218 142.712939 
L 192.465878 143.7736 
L 191.405218 144.83426 
z
" clip-path="url(#pfd5800ef53)" style="fill: #88ccee; fill-opacity: 0.6; stroke: #ffffff; stroke-opacity: 0.6; stroke-width: 0.339411"/>
    <path d="M 175.848596 96.06235 
L 176.909256 95.00169 
L 177.969916 96.06235 
L 179.030576 95.00169 
L 177.969916 93.941029 
L 179.030576 92.880369 
L 177.969916 91.819709 
L 176.909256 92.880369 
L 175.848596 91.819709 
L 174.787935 92.880369 
L 175.848596 93.941029 
L 174.787935 95.00169 
z
" clip-path="url(#pfd5800ef53)" style="fill: #88ccee; fill-opacity: 0.6; stroke: #ffffff; stroke-opacity: 0.6; stroke-width: 0.339411"/>
    <path d="M 177.4617 157.117518 
L 178.52236 156.056858 
L 179.58302 157.117518 
L 180.64368 156.056858 
L 179.58302 154.996197 
L 180.64368 153.935537 
L 179.58302 152.874877 
L 178.52236 153.935537 
L 177.4617 152.874877 
L 176.40104 153.935537 
L 177.4617 154.996197 
L 176.40104 156.056858 
z
" clip-path="url(#pfd5800ef53)" style="fill: #88ccee; fill-opacity: 0.6; stroke: #ffffff; stroke-opacity: 0.6; stroke-width: 0.339411"/>
    <path d="M 170.060612 119.336626 
L 171.121272 118.275965 
L 172.181932 119.336626 
L 173.242592 118.275965 
L 172.181932 117.215305 
L 173.242592 116.154645 
L 172.181932 115.093985 
L 171.121272 116.154645 
L 170.060612 115.093985 
L 168.999951 116.154645 
L 170.060612 117.215305 
L 168.999951 118.275965 
z
" clip-path="url(#pfd5800ef53)" style="fill: #88ccee; fill-opacity: 0.6; stroke: #ffffff; stroke-opacity: 0.6; stroke-width: 0.339411"/>
    <path d="M 168.916079 81.402964 
L 169.976739 80.342303 
L 171.037399 81.402964 
L 172.098059 80.342303 
L 171.037399 79.281643 
L 172.098059 78.220983 
L 171.037399 77.160323 
L 169.976739 78.220983 
L 168.916079 77.160323 
L 167.855419 78.220983 
L 168.916079 79.281643 
L 167.855419 80.342303 
z
" clip-path="url(#pfd5800ef53)" style="fill: #88ccee; fill-opacity: 0.6; stroke: #ffffff; stroke-opacity: 0.6; stroke-width: 0.339411"/>
    <path d="M 167.92362 117.481134 
L 168.98428 116.420473 
L 170.044941 117.481134 
L 171.105601 116.420473 
L 170.044941 115.359813 
L 171.105601 114.299153 
L 170.044941 113.238493 
L 168.98428 114.299153 
L 167.92362 113.238493 
L 166.86296 114.299153 
L 167.92362 115.359813 
L 166.86296 116.420473 
z
" clip-path="url(#pfd5800ef53)" style="fill: #88ccee; fill-opacity: 0.6; stroke: #ffffff; stroke-opacity: 0.6; stroke-width: 0.339411"/>
    <path d="M 172.093178 104.801058 
L 173.153838 103.740398 
L 174.214498 104.801058 
L 175.275159 103.740398 
L 174.214498 102.679738 
L 175.275159 101.619078 
L 174.214498 100.558417 
L 173.153838 101.619078 
L 172.093178 100.558417 
L 171.032518 101.619078 
L 172.093178 102.679738 
L 171.032518 103.740398 
z
" clip-path="url(#pfd5800ef53)" style="fill: #88ccee; fill-opacity: 0.6; stroke: #ffffff; stroke-opacity: 0.6; stroke-width: 0.339411"/>
    <path d="M 191.521016 157.121084 
L 192.581676 156.060424 
L 193.642337 157.121084 
L 194.702997 156.060424 
L 193.642337 154.999764 
L 194.702997 153.939104 
L 193.642337 152.878444 
L 192.581676 153.939104 
L 191.521016 152.878444 
L 190.460356 153.939104 
L 191.521016 154.999764 
L 190.460356 156.060424 
z
" clip-path="url(#pfd5800ef53)" style="fill: #88ccee; fill-opacity: 0.6; stroke: #ffffff; stroke-opacity: 0.6; stroke-width: 0.339411"/>
    <path d="M 177.981757 96.599945 
L 179.042417 95.539285 
L 180.103077 96.599945 
L 181.163738 95.539285 
L 180.103077 94.478625 
L 181.163738 93.417965 
L 180.103077 92.357305 
L 179.042417 93.417965 
L 177.981757 92.357305 
L 176.921097 93.417965 
L 177.981757 94.478625 
L 176.921097 95.539285 
z
" clip-path="url(#pfd5800ef53)" style="fill: #88ccee; fill-opacity: 0.6; stroke: #ffffff; stroke-opacity: 0.6; stroke-width: 0.339411"/>
    <path d="M 189.674637 154.267777 
L 190.735297 153.207116 
L 191.795957 154.267777 
L 192.856617 153.207116 
L 191.795957 152.146456 
L 192.856617 151.085796 
L 191.795957 150.025136 
L 190.735297 151.085796 
L 189.674637 150.025136 
L 188.613977 151.085796 
L 189.674637 152.146456 
L 188.613977 153.207116 
z
" clip-path="url(#pfd5800ef53)" style="fill: #88ccee; fill-opacity: 0.6; stroke: #ffffff; stroke-opacity: 0.6; stroke-width: 0.339411"/>
    <path d="M 159.753411 165.2888 
L 160.814071 164.22814 
L 161.874731 165.2888 
L 162.935392 164.22814 
L 161.874731 163.16748 
L 162.935392 162.10682 
L 161.874731 161.046159 
L 160.814071 162.10682 
L 159.753411 161.046159 
L 158.692751 162.10682 
L 159.753411 163.16748 
L 158.692751 164.22814 
z
" clip-path="url(#pfd5800ef53)" style="fill: #88ccee; fill-opacity: 0.6; stroke: #ffffff; stroke-opacity: 0.6; stroke-width: 0.339411"/>
    <path d="M 188.782773 155.424465 
L 189.843433 154.363805 
L 190.904094 155.424465 
L 191.964754 154.363805 
L 190.904094 153.303145 
L 191.964754 152.242485 
L 190.904094 151.181825 
L 189.843433 152.242485 
L 188.782773 151.181825 
L 187.722113 152.242485 
L 188.782773 153.303145 
L 187.722113 154.363805 
z
" clip-path="url(#pfd5800ef53)" style="fill: #88ccee; fill-opacity: 0.6; stroke: #ffffff; stroke-opacity: 0.6; stroke-width: 0.339411"/>
    <path d="M 170.971829 114.691547 
L 172.03249 113.630886 
L 173.09315 114.691547 
L 174.15381 113.630886 
L 173.09315 112.570226 
L 174.15381 111.509566 
L 173.09315 110.448906 
L 172.03249 111.509566 
L 170.971829 110.448906 
L 169.911169 111.509566 
L 170.971829 112.570226 
L 169.911169 113.630886 
z
" clip-path="url(#pfd5800ef53)" style="fill: #88ccee; fill-opacity: 0.6; stroke: #ffffff; stroke-opacity: 0.6; stroke-width: 0.339411"/>
    <path d="M 169.833557 114.708094 
L 170.894217 113.647434 
L 171.954877 114.708094 
L 173.015537 113.647434 
L 171.954877 112.586774 
L 173.015537 111.526114 
L 171.954877 110.465454 
L 170.894217 111.526114 
L 169.833557 110.465454 
L 168.772896 111.526114 
L 169.833557 112.586774 
L 168.772896 113.647434 
z
" clip-path="url(#pfd5800ef53)" style="fill: #88ccee; fill-opacity: 0.6; stroke: #ffffff; stroke-opacity: 0.6; stroke-width: 0.339411"/>
    <path d="M 185.069822 124.9015 
L 186.130482 123.84084 
L 187.191142 124.9015 
L 188.251802 123.84084 
L 187.191142 122.78018 
L 188.251802 121.71952 
L 187.191142 120.658859 
L 186.130482 121.71952 
L 185.069822 120.658859 
L 184.009161 121.71952 
L 185.069822 122.78018 
L 184.009161 123.84084 
z
" clip-path="url(#pfd5800ef53)" style="fill: #88ccee; fill-opacity: 0.6; stroke: #ffffff; stroke-opacity: 0.6; stroke-width: 0.339411"/>
    <path d="M 147.738494 174.251136 
L 148.799154 173.190476 
L 149.859815 174.251136 
L 150.920475 173.190476 
L 149.859815 172.129816 
L 150.920475 171.069155 
L 149.859815 170.008495 
L 148.799154 171.069155 
L 147.738494 170.008495 
L 146.677834 171.069155 
L 147.738494 172.129816 
L 146.677834 173.190476 
z
" clip-path="url(#pfd5800ef53)" style="fill: #88ccee; fill-opacity: 0.6; stroke: #ffffff; stroke-opacity: 0.6; stroke-width: 0.339411"/>
    <path d="M 193.277003 155.822517 
L 194.337663 154.761857 
L 195.398323 155.822517 
L 196.458983 154.761857 
L 195.398323 153.701197 
L 196.458983 152.640537 
L 195.398323 151.579877 
L 194.337663 152.640537 
L 193.277003 151.579877 
L 192.216343 152.640537 
L 193.277003 153.701197 
L 192.216343 154.761857 
z
" clip-path="url(#pfd5800ef53)" style="fill: #88ccee; fill-opacity: 0.6; stroke: #ffffff; stroke-opacity: 0.6; stroke-width: 0.339411"/>
    <path d="M 190.706418 151.121049 
L 191.767078 150.060389 
L 192.827738 151.121049 
L 193.888399 150.060389 
L 192.827738 148.999729 
L 193.888399 147.939069 
L 192.827738 146.878409 
L 191.767078 147.939069 
L 190.706418 146.878409 
L 189.645758 147.939069 
L 190.706418 148.999729 
L 189.645758 150.060389 
z
" clip-path="url(#pfd5800ef53)" style="fill: #88ccee; fill-opacity: 0.6; stroke: #ffffff; stroke-opacity: 0.6; stroke-width: 0.339411"/>
    <path d="M 170 115.626061 
L 171.06066 114.565401 
L 172.12132 115.626061 
L 173.18198 114.565401 
L 172.12132 113.504741 
L 173.18198 112.44408 
L 172.12132 111.38342 
L 171.06066 112.44408 
L 170 111.38342 
L 168.93934 112.44408 
L 170 113.504741 
L 168.93934 114.565401 
z
" clip-path="url(#pfd5800ef53)" style="fill: #88ccee; fill-opacity: 0.6; stroke: #ffffff; stroke-opacity: 0.6; stroke-width: 0.339411"/>
    <path d="M 189.754577 153.545655 
L 190.815237 152.484994 
L 191.875897 153.545655 
L 192.936557 152.484994 
L 191.875897 151.424334 
L 192.936557 150.363674 
L 191.875897 149.303014 
L 190.815237 150.363674 
L 189.754577 149.303014 
L 188.693916 150.363674 
L 189.754577 151.424334 
L 188.693916 152.484994 
z
" clip-path="url(#pfd5800ef53)" style="fill: #88ccee; fill-opacity: 0.6; stroke: #ffffff; stroke-opacity: 0.6; stroke-width: 0.339411"/>
    <path d="M 182.994875 102.358987 
L 184.055535 101.298327 
L 185.116195 102.358987 
L 186.176856 101.298327 
L 185.116195 100.237667 
L 186.176856 99.177007 
L 185.116195 98.116346 
L 184.055535 99.177007 
L 182.994875 98.116346 
L 181.934215 99.177007 
L 182.994875 100.237667 
L 181.934215 101.298327 
z
" clip-path="url(#pfd5800ef53)" style="fill: #88ccee; fill-opacity: 0.6; stroke: #ffffff; stroke-opacity: 0.6; stroke-width: 0.339411"/>
    <path d="M 172.695037 95.795807 
L 173.755697 94.735147 
L 174.816358 95.795807 
L 175.877018 94.735147 
L 174.816358 93.674487 
L 175.877018 92.613826 
L 174.816358 91.553166 
L 173.755697 92.613826 
L 172.695037 91.553166 
L 171.634377 92.613826 
L 172.695037 93.674487 
L 171.634377 94.735147 
z
" clip-path="url(#pfd5800ef53)" style="fill: #88ccee; fill-opacity: 0.6; stroke: #ffffff; stroke-opacity: 0.6; stroke-width: 0.339411"/>
    <path d="M 192.866884 149.931677 
L 193.927544 148.871017 
L 194.988204 149.931677 
L 196.048865 148.871017 
L 194.988204 147.810357 
L 196.048865 146.749697 
L 194.988204 145.689037 
L 193.927544 146.749697 
L 192.866884 145.689037 
L 191.806224 146.749697 
L 192.866884 147.810357 
L 191.806224 148.871017 
z
" clip-path="url(#pfd5800ef53)" style="fill: #88ccee; fill-opacity: 0.6; stroke: #ffffff; stroke-opacity: 0.6; stroke-width: 0.339411"/>
    <path d="M 180.699563 100.888251 
L 181.760223 99.82759 
L 182.820883 100.888251 
L 183.881543 99.82759 
L 182.820883 98.76693 
L 183.881543 97.70627 
L 182.820883 96.64561 
L 181.760223 97.70627 
L 180.699563 96.64561 
L 179.638903 97.70627 
L 180.699563 98.76693 
L 179.638903 99.82759 
z
" clip-path="url(#pfd5800ef53)" style="fill: #88ccee; fill-opacity: 0.6; stroke: #ffffff; stroke-opacity: 0.6; stroke-width: 0.339411"/>
    <path d="M 176.550264 122.395149 
L 177.610924 121.334489 
L 178.671584 122.395149 
L 179.732244 121.334489 
L 178.671584 120.273829 
L 179.732244 119.213169 
L 178.671584 118.152508 
L 177.610924 119.213169 
L 176.550264 118.152508 
L 175.489604 119.213169 
L 176.550264 120.273829 
L 175.489604 121.334489 
z
" clip-path="url(#pfd5800ef53)" style="fill: #88ccee; fill-opacity: 0.6; stroke: #ffffff; stroke-opacity: 0.6; stroke-width: 0.339411"/>
    <path d="M 182.232852 120.88471 
L 183.293513 119.82405 
L 184.354173 120.88471 
L 185.414833 119.82405 
L 184.354173 118.76339 
L 185.414833 117.70273 
L 184.354173 116.642069 
L 183.293513 117.70273 
L 182.232852 116.642069 
L 181.172192 117.70273 
L 182.232852 118.76339 
L 181.172192 119.82405 
z
" clip-path="url(#pfd5800ef53)" style="fill: #88ccee; fill-opacity: 0.6; stroke: #ffffff; stroke-opacity: 0.6; stroke-width: 0.339411"/>
    <path d="M 184.703146 93.05133 
L 185.763806 91.99067 
L 186.824466 93.05133 
L 187.885127 91.99067 
L 186.824466 90.93001 
L 187.885127 89.86935 
L 186.824466 88.80869 
L 185.763806 89.86935 
L 184.703146 88.80869 
L 183.642486 89.86935 
L 184.703146 90.93001 
L 183.642486 91.99067 
z
" clip-path="url(#pfd5800ef53)" style="fill: #88ccee; fill-opacity: 0.6; stroke: #ffffff; stroke-opacity: 0.6; stroke-width: 0.339411"/>
    <path d="M 193.836779 151.203898 
L 194.897439 150.143238 
L 195.958099 151.203898 
L 197.01876 150.143238 
L 195.958099 149.082577 
L 197.01876 148.021917 
L 195.958099 146.961257 
L 194.897439 148.021917 
L 193.836779 146.961257 
L 192.776119 148.021917 
L 193.836779 149.082577 
L 192.776119 150.143238 
z
" clip-path="url(#pfd5800ef53)" style="fill: #88ccee; fill-opacity: 0.6; stroke: #ffffff; stroke-opacity: 0.6; stroke-width: 0.339411"/>
    <path d="M 173.542342 117.109096 
L 174.603002 116.048436 
L 175.663662 117.109096 
L 176.724322 116.048436 
L 175.663662 114.987776 
L 176.724322 113.927116 
L 175.663662 112.866456 
L 174.603002 113.927116 
L 173.542342 112.866456 
L 172.481681 113.927116 
L 173.542342 114.987776 
L 172.481681 116.048436 
z
" clip-path="url(#pfd5800ef53)" style="fill: #88ccee; fill-opacity: 0.6; stroke: #ffffff; stroke-opacity: 0.6; stroke-width: 0.339411"/>
    <path d="M 182.980136 120.542384 
L 184.040797 119.481724 
L 185.101457 120.542384 
L 186.162117 119.481724 
L 185.101457 118.421064 
L 186.162117 117.360404 
L 185.101457 116.299744 
L 184.040797 117.360404 
L 182.980136 116.299744 
L 181.919476 117.360404 
L 182.980136 118.421064 
L 181.919476 119.481724 
z
" clip-path="url(#pfd5800ef53)" style="fill: #88ccee; fill-opacity: 0.6; stroke: #ffffff; stroke-opacity: 0.6; stroke-width: 0.339411"/>
    <path d="M 171.4016 123.507174 
L 172.46226 122.446514 
L 173.52292 123.507174 
L 174.58358 122.446514 
L 173.52292 121.385853 
L 174.58358 120.325193 
L 173.52292 119.264533 
L 172.46226 120.325193 
L 171.4016 119.264533 
L 170.340939 120.325193 
L 171.4016 121.385853 
L 170.340939 122.446514 
z
" clip-path="url(#pfd5800ef53)" style="fill: #88ccee; fill-opacity: 0.6; stroke: #ffffff; stroke-opacity: 0.6; stroke-width: 0.339411"/>
    <path d="M 178.976388 121.195475 
L 180.037048 120.134815 
L 181.097708 121.195475 
L 182.158368 120.134815 
L 181.097708 119.074155 
L 182.158368 118.013495 
L 181.097708 116.952835 
L 180.037048 118.013495 
L 178.976388 116.952835 
L 177.915728 118.013495 
L 178.976388 119.074155 
L 177.915728 120.134815 
z
" clip-path="url(#pfd5800ef53)" style="fill: #88ccee; fill-opacity: 0.6; stroke: #ffffff; stroke-opacity: 0.6; stroke-width: 0.339411"/>
    <path d="M 177.561436 103.561266 
L 178.622096 102.500606 
L 179.682757 103.561266 
L 180.743417 102.500606 
L 179.682757 101.439946 
L 180.743417 100.379285 
L 179.682757 99.318625 
L 178.622096 100.379285 
L 177.561436 99.318625 
L 176.500776 100.379285 
L 177.561436 101.439946 
L 176.500776 102.500606 
z
" clip-path="url(#pfd5800ef53)" style="fill: #88ccee; fill-opacity: 0.6; stroke: #ffffff; stroke-opacity: 0.6; stroke-width: 0.339411"/>
    <path d="M 191.240309 157.804788 
L 192.300969 156.744128 
L 193.36163 157.804788 
L 194.42229 156.744128 
L 193.36163 155.683467 
L 194.42229 154.622807 
L 193.36163 153.562147 
L 192.300969 154.622807 
L 191.240309 153.562147 
L 190.179649 154.622807 
L 191.240309 155.683467 
L 190.179649 156.744128 
z
" clip-path="url(#pfd5800ef53)" style="fill: #88ccee; fill-opacity: 0.6; stroke: #ffffff; stroke-opacity: 0.6; stroke-width: 0.339411"/>
    <path d="M 185.636716 98.744722 
L 186.697376 97.684062 
L 187.758037 98.744722 
L 188.818697 97.684062 
L 187.758037 96.623402 
L 188.818697 95.562741 
L 187.758037 94.502081 
L 186.697376 95.562741 
L 185.636716 94.502081 
L 184.576056 95.562741 
L 185.636716 96.623402 
L 184.576056 97.684062 
z
" clip-path="url(#pfd5800ef53)" style="fill: #88ccee; fill-opacity: 0.6; stroke: #ffffff; stroke-opacity: 0.6; stroke-width: 0.339411"/>
    <path d="M 190.961293 146.456682 
L 192.021953 145.396022 
L 193.082613 146.456682 
L 194.143273 145.396022 
L 193.082613 144.335362 
L 194.143273 143.274702 
L 193.082613 142.214041 
L 192.021953 143.274702 
L 190.961293 142.214041 
L 189.900633 143.274702 
L 190.961293 144.335362 
L 189.900633 145.396022 
z
" clip-path="url(#pfd5800ef53)" style="fill: #88ccee; fill-opacity: 0.6; stroke: #ffffff; stroke-opacity: 0.6; stroke-width: 0.339411"/>
    <path d="M 180.880408 94.060951 
L 181.941068 93.000291 
L 183.001728 94.060951 
L 184.062388 93.000291 
L 183.001728 91.939631 
L 184.062388 90.87897 
L 183.001728 89.81831 
L 181.941068 90.87897 
L 180.880408 89.81831 
L 179.819747 90.87897 
L 180.880408 91.939631 
L 179.819747 93.000291 
z
" clip-path="url(#pfd5800ef53)" style="fill: #88ccee; fill-opacity: 0.6; stroke: #ffffff; stroke-opacity: 0.6; stroke-width: 0.339411"/>
    <path d="M 185.297279 105.259843 
L 186.35794 104.199183 
L 187.4186 105.259843 
L 188.47926 104.199183 
L 187.4186 103.138523 
L 188.47926 102.077863 
L 187.4186 101.017203 
L 186.35794 102.077863 
L 185.297279 101.017203 
L 184.236619 102.077863 
L 185.297279 103.138523 
L 184.236619 104.199183 
z
" clip-path="url(#pfd5800ef53)" style="fill: #88ccee; fill-opacity: 0.6; stroke: #ffffff; stroke-opacity: 0.6; stroke-width: 0.339411"/>
    <path d="M 175.186851 95.228721 
L 176.247511 94.168061 
L 177.308171 95.228721 
L 178.368832 94.168061 
L 177.308171 93.1074 
L 178.368832 92.04674 
L 177.308171 90.98608 
L 176.247511 92.04674 
L 175.186851 90.98608 
L 174.126191 92.04674 
L 175.186851 93.1074 
L 174.126191 94.168061 
z
" clip-path="url(#pfd5800ef53)" style="fill: #88ccee; fill-opacity: 0.6; stroke: #ffffff; stroke-opacity: 0.6; stroke-width: 0.339411"/>
    <path d="M 179.344714 122.55245 
L 180.405374 121.49179 
L 181.466035 122.55245 
L 182.526695 121.49179 
L 181.466035 120.43113 
L 182.526695 119.370469 
L 181.466035 118.309809 
L 180.405374 119.370469 
L 179.344714 118.309809 
L 178.284054 119.370469 
L 179.344714 120.43113 
L 178.284054 121.49179 
z
" clip-path="url(#pfd5800ef53)" style="fill: #88ccee; fill-opacity: 0.6; stroke: #ffffff; stroke-opacity: 0.6; stroke-width: 0.339411"/>
    <path d="M 190.667901 147.714037 
L 191.728561 146.653377 
L 192.789221 147.714037 
L 193.849881 146.653377 
L 192.789221 145.592717 
L 193.849881 144.532057 
L 192.789221 143.471397 
L 191.728561 144.532057 
L 190.667901 143.471397 
L 189.607241 144.532057 
L 190.667901 145.592717 
L 189.607241 146.653377 
z
" clip-path="url(#pfd5800ef53)" style="fill: #88ccee; fill-opacity: 0.6; stroke: #ffffff; stroke-opacity: 0.6; stroke-width: 0.339411"/>
    <path d="M 185.280329 99.703015 
L 186.340989 98.642355 
L 187.401649 99.703015 
L 188.462309 98.642355 
L 187.401649 97.581695 
L 188.462309 96.521034 
L 187.401649 95.460374 
L 186.340989 96.521034 
L 185.280329 95.460374 
L 184.219668 96.521034 
L 185.280329 97.581695 
L 184.219668 98.642355 
z
" clip-path="url(#pfd5800ef53)" style="fill: #88ccee; fill-opacity: 0.6; stroke: #ffffff; stroke-opacity: 0.6; stroke-width: 0.339411"/>
    <path d="M 178.617214 102.383901 
L 179.677874 101.323241 
L 180.738534 102.383901 
L 181.799194 101.323241 
L 180.738534 100.262581 
L 181.799194 99.201921 
L 180.738534 98.141261 
L 179.677874 99.201921 
L 178.617214 98.141261 
L 177.556554 99.201921 
L 178.617214 100.262581 
L 177.556554 101.323241 
z
" clip-path="url(#pfd5800ef53)" style="fill: #88ccee; fill-opacity: 0.6; stroke: #ffffff; stroke-opacity: 0.6; stroke-width: 0.339411"/>
    <path d="M 177.072996 124.935385 
L 178.133656 123.874725 
L 179.194316 124.935385 
L 180.254976 123.874725 
L 179.194316 122.814065 
L 180.254976 121.753404 
L 179.194316 120.692744 
L 178.133656 121.753404 
L 177.072996 120.692744 
L 176.012335 121.753404 
L 177.072996 122.814065 
L 176.012335 123.874725 
z
" clip-path="url(#pfd5800ef53)" style="fill: #88ccee; fill-opacity: 0.6; stroke: #ffffff; stroke-opacity: 0.6; stroke-width: 0.339411"/>
    <path d="M 175.588491 92.096432 
L 176.649151 91.035771 
L 177.709811 92.096432 
L 178.770472 91.035771 
L 177.709811 89.975111 
L 178.770472 88.914451 
L 177.709811 87.853791 
L 176.649151 88.914451 
L 175.588491 87.853791 
L 174.527831 88.914451 
L 175.588491 89.975111 
L 174.527831 91.035771 
z
" clip-path="url(#pfd5800ef53)" style="fill: #88ccee; fill-opacity: 0.6; stroke: #ffffff; stroke-opacity: 0.6; stroke-width: 0.339411"/>
    <path d="M 183.220656 118.423423 
L 184.281316 117.362763 
L 185.341976 118.423423 
L 186.402636 117.362763 
L 185.341976 116.302103 
L 186.402636 115.241443 
L 185.341976 114.180783 
L 184.281316 115.241443 
L 183.220656 114.180783 
L 182.159995 115.241443 
L 183.220656 116.302103 
L 182.159995 117.362763 
z
" clip-path="url(#pfd5800ef53)" style="fill: #88ccee; fill-opacity: 0.6; stroke: #ffffff; stroke-opacity: 0.6; stroke-width: 0.339411"/>
    <path d="M 173.793023 93.939027 
L 174.853683 92.878367 
L 175.914344 93.939027 
L 176.975004 92.878367 
L 175.914344 91.817707 
L 176.975004 90.757047 
L 175.914344 89.696387 
L 174.853683 90.757047 
L 173.793023 89.696387 
L 172.732363 90.757047 
L 173.793023 91.817707 
L 172.732363 92.878367 
z
" clip-path="url(#pfd5800ef53)" style="fill: #88ccee; fill-opacity: 0.6; stroke: #ffffff; stroke-opacity: 0.6; stroke-width: 0.339411"/>
    <path d="M 168.397679 120.283069 
L 169.458339 119.222409 
L 170.518999 120.283069 
L 171.579659 119.222409 
L 170.518999 118.161748 
L 171.579659 117.101088 
L 170.518999 116.040428 
L 169.458339 117.101088 
L 168.397679 116.040428 
L 167.337019 117.101088 
L 168.397679 118.161748 
L 167.337019 119.222409 
z
" clip-path="url(#pfd5800ef53)" style="fill: #88ccee; fill-opacity: 0.6; stroke: #ffffff; stroke-opacity: 0.6; stroke-width: 0.339411"/>
   </g>
   <g id="matplotlib.axis_1">
    <g id="xtick_1">
     <g id="line2d_1">
      <defs>
       <path id="m17f0fdc6a2" d="M 0 0 
L 0 8 
" style="stroke: #000000"/>
      </defs>
      <g>
       <use xlink:href="#m17f0fdc6a2" x="82.632457" y="187.572244" style="stroke: #000000"/>
      </g>
     </g>
     <g id="text_1">
      <!-- 0 -->
      <g transform="translate(78.814957 208.190369) scale(0.12 -0.12)">
       <defs>
        <path id="DejaVuSans-30" d="M 2034 4250 
Q 1547 4250 1301 3770 
Q 1056 3291 1056 2328 
Q 1056 1369 1301 889 
Q 1547 409 2034 409 
Q 2525 409 2770 889 
Q 3016 1369 3016 2328 
Q 3016 3291 2770 3770 
Q 2525 4250 2034 4250 
z
M 2034 4750 
Q 2819 4750 3233 4129 
Q 3647 3509 3647 2328 
Q 3647 1150 3233 529 
Q 2819 -91 2034 -91 
Q 1250 -91 836 529 
Q 422 1150 422 2328 
Q 422 3509 836 4129 
Q 1250 4750 2034 4750 
z
" transform="scale(0.015625)"/>
       </defs>
       <use xlink:href="#DejaVuSans-30"/>
      </g>
     </g>
    </g>
    <g id="xtick_2">
     <g id="line2d_2">
      <g>
       <use xlink:href="#m17f0fdc6a2" x="151.873235" y="187.572244" style="stroke: #000000"/>
      </g>
     </g>
     <g id="text_2">
      <!-- 10 -->
      <g transform="translate(144.238235 208.190369) scale(0.12 -0.12)">
       <defs>
        <path id="DejaVuSans-31" d="M 794 531 
L 1825 531 
L 1825 4091 
L 703 3866 
L 703 4441 
L 1819 4666 
L 2450 4666 
L 2450 531 
L 3481 531 
L 3481 0 
L 794 0 
L 794 531 
z
" transform="scale(0.015625)"/>
       </defs>
       <use xlink:href="#DejaVuSans-31"/>
       <use xlink:href="#DejaVuSans-30" x="63.623047"/>
      </g>
     </g>
    </g>
    <g id="xtick_3">
     <g id="line2d_3">
      <g>
       <use xlink:href="#m17f0fdc6a2" x="221.114014" y="187.572244" style="stroke: #000000"/>
      </g>
     </g>
     <g id="text_3">
      <!-- 20 -->
      <g transform="translate(213.479014 208.190369) scale(0.12 -0.12)">
       <defs>
        <path id="DejaVuSans-32" d="M 1228 531 
L 3431 531 
L 3431 0 
L 469 0 
L 469 531 
Q 828 903 1448 1529 
Q 2069 2156 2228 2338 
Q 2531 2678 2651 2914 
Q 2772 3150 2772 3378 
Q 2772 3750 2511 3984 
Q 2250 4219 1831 4219 
Q 1534 4219 1204 4116 
Q 875 4013 500 3803 
L 500 4441 
Q 881 4594 1212 4672 
Q 1544 4750 1819 4750 
Q 2544 4750 2975 4387 
Q 3406 4025 3406 3419 
Q 3406 3131 3298 2873 
Q 3191 2616 2906 2266 
Q 2828 2175 2409 1742 
Q 1991 1309 1228 531 
z
" transform="scale(0.015625)"/>
       </defs>
       <use xlink:href="#DejaVuSans-32"/>
       <use xlink:href="#DejaVuSans-30" x="63.623047"/>
      </g>
     </g>
    </g>
    <g id="text_4">
     <!-- UMAP 1 -->
     <g transform="translate(115.422447 223.804119) scale(0.12 -0.12)">
      <defs>
       <path id="DejaVuSans-55" d="M 556 4666 
L 1191 4666 
L 1191 1831 
Q 1191 1081 1462 751 
Q 1734 422 2344 422 
Q 2950 422 3222 751 
Q 3494 1081 3494 1831 
L 3494 4666 
L 4128 4666 
L 4128 1753 
Q 4128 841 3676 375 
Q 3225 -91 2344 -91 
Q 1459 -91 1007 375 
Q 556 841 556 1753 
L 556 4666 
z
" transform="scale(0.015625)"/>
       <path id="DejaVuSans-4d" d="M 628 4666 
L 1569 4666 
L 2759 1491 
L 3956 4666 
L 4897 4666 
L 4897 0 
L 4281 0 
L 4281 4097 
L 3078 897 
L 2444 897 
L 1241 4097 
L 1241 0 
L 628 0 
L 628 4666 
z
" transform="scale(0.015625)"/>
       <path id="DejaVuSans-41" d="M 2188 4044 
L 1331 1722 
L 3047 1722 
L 2188 4044 
z
M 1831 4666 
L 2547 4666 
L 4325 0 
L 3669 0 
L 3244 1197 
L 1141 1197 
L 716 0 
L 50 0 
L 1831 4666 
z
" transform="scale(0.015625)"/>
       <path id="DejaVuSans-50" d="M 1259 4147 
L 1259 2394 
L 2053 2394 
Q 2494 2394 2734 2622 
Q 2975 2850 2975 3272 
Q 2975 3691 2734 3919 
Q 2494 4147 2053 4147 
L 1259 4147 
z
M 628 4666 
L 2053 4666 
Q 2838 4666 3239 4311 
Q 3641 3956 3641 3272 
Q 3641 2581 3239 2228 
Q 2838 1875 2053 1875 
L 1259 1875 
L 1259 0 
L 628 0 
L 628 4666 
z
" transform="scale(0.015625)"/>
       <path id="DejaVuSans-20" transform="scale(0.015625)"/>
      </defs>
      <use xlink:href="#DejaVuSans-55"/>
      <use xlink:href="#DejaVuSans-4d" x="73.193359"/>
      <use xlink:href="#DejaVuSans-41" x="159.472656"/>
      <use xlink:href="#DejaVuSans-50" x="227.880859"/>
      <use xlink:href="#DejaVuSans-20" x="288.183594"/>
      <use xlink:href="#DejaVuSans-31" x="319.970703"/>
     </g>
    </g>
   </g>
   <g id="matplotlib.axis_2">
    <g id="ytick_1">
     <g id="line2d_4">
      <defs>
       <path id="m907a6ed236" d="M 0 0 
L -8 0 
" style="stroke: #000000"/>
      </defs>
      <g>
       <use xlink:href="#m907a6ed236" x="53.957638" y="158.897425" style="stroke: #000000"/>
      </g>
     </g>
     <g id="text_5">
      <!-- 0 -->
      <g transform="translate(34.822638 163.456487) scale(0.12 -0.12)">
       <use xlink:href="#DejaVuSans-30"/>
      </g>
     </g>
    </g>
    <g id="ytick_2">
     <g id="line2d_5">
      <g>
       <use xlink:href="#m907a6ed236" x="53.957638" y="89.656647" style="stroke: #000000"/>
      </g>
     </g>
     <g id="text_6">
      <!-- 10 -->
      <g transform="translate(27.187638 94.215709) scale(0.12 -0.12)">
       <use xlink:href="#DejaVuSans-31"/>
       <use xlink:href="#DejaVuSans-30" x="63.623047"/>
      </g>
     </g>
    </g>
    <g id="ytick_3">
     <g id="line2d_6">
      <g>
       <use xlink:href="#m907a6ed236" x="53.957638" y="20.415868" style="stroke: #000000"/>
      </g>
     </g>
     <g id="text_7">
      <!-- 20 -->
      <g transform="translate(27.187638 24.974931) scale(0.12 -0.12)">
       <use xlink:href="#DejaVuSans-32"/>
       <use xlink:href="#DejaVuSans-30" x="63.623047"/>
      </g>
     </g>
    </g>
    <g id="text_8">
     <!-- UMAP 2 -->
     <g transform="translate(20.692013 126.107435) rotate(-90) scale(0.12 -0.12)">
      <use xlink:href="#DejaVuSans-55"/>
      <use xlink:href="#DejaVuSans-4d" x="73.193359"/>
      <use xlink:href="#DejaVuSans-41" x="159.472656"/>
      <use xlink:href="#DejaVuSans-50" x="227.880859"/>
      <use xlink:href="#DejaVuSans-20" x="288.183594"/>
      <use xlink:href="#DejaVuSans-32" x="319.970703"/>
     </g>
    </g>
   </g>
   <g id="patch_3">
    <path d="M 53.957638 187.572244 
L 53.957638 18.61325 
" style="fill: none; stroke: #000000; stroke-width: 2; stroke-linejoin: miter; stroke-linecap: square"/>
   </g>
   <g id="patch_4">
    <path d="M 53.957638 187.572244 
L 222.916632 187.572244 
" style="fill: none; stroke: #000000; stroke-width: 2; stroke-linejoin: miter; stroke-linecap: square"/>
   </g>
  </g>
 </g>
 <defs>
  <clipPath id="pfd5800ef53">
   <rect x="53.957638" y="18.61325" width="168.958994" height="168.958994"/>
  </clipPath>
 </defs>
</svg>
