<?xml version="1.0" encoding="utf-8" standalone="no"?>
<!DOCTYPE svg PUBLIC "-//W3C//DTD SVG 1.1//EN"
  "http://www.w3.org/Graphics/SVG/1.1/DTD/svg11.dtd">
<svg xmlns:xlink="http://www.w3.org/1999/xlink" width="240.944882pt" height="240.944882pt" viewBox="0 0 240.944882 240.944882" xmlns="http://www.w3.org/2000/svg" version="1.1">
 <metadata>
  <rdf:RDF xmlns:dc="http://purl.org/dc/elements/1.1/" xmlns:cc="http://creativecommons.org/ns#" xmlns:rdf="http://www.w3.org/1999/02/22-rdf-syntax-ns#">
   <cc:Work>
    <dc:type rdf:resource="http://purl.org/dc/dcmitype/StillImage"/>
    <dc:date>2025-02-17T14:56:09.924405</dc:date>
    <dc:format>image/svg+xml</dc:format>
    <dc:creator>
     <cc:Agent>
      <dc:title>Matplotlib v3.6.2, https://matplotlib.org/</dc:title>
     </cc:Agent>
    </dc:creator>
   </cc:Work>
  </rdf:RDF>
 </metadata>
 <defs>
  <style type="text/css">*{stroke-linejoin: round; stroke-linecap: butt}</style>
 </defs>
 <g id="figure_1">
  <g id="patch_1">
   <path d="M 0 240.944882 
L 240.944882 240.944882 
L 240.944882 0 
L 0 0 
L 0 240.944882 
z
" style="fill: none"/>
  </g>
  <g id="axes_1">
   <g id="patch_2">
    <path d="M 53.957638 188.936063 
L 227.984882 188.936063 
L 227.984882 14.908819 
L 53.957638 14.908819 
L 53.957638 188.936063 
z
" style="fill: none"/>
   </g>
   <g id="PathCollection_1">
    <path d="M 120.391122 37.149727 
L 122.191122 34.149727 
L 120.391122 31.149727 
L 118.591122 34.149727 
z
" clip-path="url(#pc4ac570341)" style="fill: #882e72; fill-opacity: 0.6; stroke: #ffffff; stroke-opacity: 0.6; stroke-width: 0.339411"/>
    <path d="M 152.829744 50.805661 
L 154.629744 47.805661 
L 152.829744 44.805661 
L 151.029744 47.805661 
z
" clip-path="url(#pc4ac570341)" style="fill: #882e72; fill-opacity: 0.6; stroke: #ffffff; stroke-opacity: 0.6; stroke-width: 0.339411"/>
    <path d="M 151.362053 47.201168 
L 153.162053 44.201168 
L 151.362053 41.201168 
L 149.562053 44.201168 
z
" clip-path="url(#pc4ac570341)" style="fill: #882e72; fill-opacity: 0.6; stroke: #ffffff; stroke-opacity: 0.6; stroke-width: 0.339411"/>
    <path d="M 112.336531 78.807279 
L 114.136531 75.807279 
L 112.336531 72.807279 
L 110.536531 75.807279 
z
" clip-path="url(#pc4ac570341)" style="fill: #882e72; fill-opacity: 0.6; stroke: #ffffff; stroke-opacity: 0.6; stroke-width: 0.339411"/>
    <path d="M 87.497223 89.77208 
L 89.297223 86.77208 
L 87.497223 83.77208 
L 85.697223 86.77208 
z
" clip-path="url(#pc4ac570341)" style="fill: #882e72; fill-opacity: 0.6; stroke: #ffffff; stroke-opacity: 0.6; stroke-width: 0.339411"/>
    <path d="M 130.297348 34.295466 
L 132.097348 31.295466 
L 130.297348 28.295466 
L 128.497348 31.295466 
z
" clip-path="url(#pc4ac570341)" style="fill: #882e72; fill-opacity: 0.6; stroke: #ffffff; stroke-opacity: 0.6; stroke-width: 0.339411"/>
    <path d="M 98.351746 90.86095 
L 100.151746 87.86095 
L 98.351746 84.86095 
L 96.551746 87.86095 
z
" clip-path="url(#pc4ac570341)" style="fill: #882e72; fill-opacity: 0.6; stroke: #ffffff; stroke-opacity: 0.6; stroke-width: 0.339411"/>
    <path d="M 82.671797 79.759144 
L 84.471797 76.759144 
L 82.671797 73.759144 
L 80.871797 76.759144 
z
" clip-path="url(#pc4ac570341)" style="fill: #882e72; fill-opacity: 0.6; stroke: #ffffff; stroke-opacity: 0.6; stroke-width: 0.339411"/>
    <path d="M 117.790488 34.934024 
L 119.590488 31.934024 
L 117.790488 28.934024 
L 115.990488 31.934024 
z
" clip-path="url(#pc4ac570341)" style="fill: #882e72; fill-opacity: 0.6; stroke: #ffffff; stroke-opacity: 0.6; stroke-width: 0.339411"/>
    <path d="M 152.137723 48.962855 
L 153.937723 45.962855 
L 152.137723 42.962855 
L 150.337723 45.962855 
z
" clip-path="url(#pc4ac570341)" style="fill: #882e72; fill-opacity: 0.6; stroke: #ffffff; stroke-opacity: 0.6; stroke-width: 0.339411"/>
    <path d="M 118.330886 51.736684 
L 120.130886 48.736684 
L 118.330886 45.736684 
L 116.530886 48.736684 
z
" clip-path="url(#pc4ac570341)" style="fill: #882e72; fill-opacity: 0.6; stroke: #ffffff; stroke-opacity: 0.6; stroke-width: 0.339411"/>
    <path d="M 75.571379 108.977026 
L 77.371379 105.977026 
L 75.571379 102.977026 
L 73.771379 105.977026 
z
" clip-path="url(#pc4ac570341)" style="fill: #882e72; fill-opacity: 0.6; stroke: #ffffff; stroke-opacity: 0.6; stroke-width: 0.339411"/>
    <path d="M 136.772986 41.39237 
L 138.572986 38.39237 
L 136.772986 35.39237 
L 134.972986 38.39237 
z
" clip-path="url(#pc4ac570341)" style="fill: #882e72; fill-opacity: 0.6; stroke: #ffffff; stroke-opacity: 0.6; stroke-width: 0.339411"/>
    <path d="M 105.845173 89.711177 
L 107.645173 86.711177 
L 105.845173 83.711177 
L 104.045173 86.711177 
z
" clip-path="url(#pc4ac570341)" style="fill: #882e72; fill-opacity: 0.6; stroke: #ffffff; stroke-opacity: 0.6; stroke-width: 0.339411"/>
    <path d="M 123.761884 34.021385 
L 125.561884 31.021385 
L 123.761884 28.021385 
L 121.961884 31.021385 
z
" clip-path="url(#pc4ac570341)" style="fill: #882e72; fill-opacity: 0.6; stroke: #ffffff; stroke-opacity: 0.6; stroke-width: 0.339411"/>
    <path d="M 83.658683 105.321909 
L 85.458683 102.321909 
L 83.658683 99.321909 
L 81.858683 102.321909 
z
" clip-path="url(#pc4ac570341)" style="fill: #882e72; fill-opacity: 0.6; stroke: #ffffff; stroke-opacity: 0.6; stroke-width: 0.339411"/>
    <path d="M 122.017755 31.503294 
L 123.817755 28.503294 
L 122.017755 25.503294 
L 120.217755 28.503294 
z
" clip-path="url(#pc4ac570341)" style="fill: #882e72; fill-opacity: 0.6; stroke: #ffffff; stroke-opacity: 0.6; stroke-width: 0.339411"/>
    <path d="M 104.469589 89.545559 
L 106.269589 86.545559 
L 104.469589 83.545559 
L 102.669589 86.545559 
z
" clip-path="url(#pc4ac570341)" style="fill: #882e72; fill-opacity: 0.6; stroke: #ffffff; stroke-opacity: 0.6; stroke-width: 0.339411"/>
    <path d="M 72.294438 80.319346 
L 74.094438 77.319346 
L 72.294438 74.319346 
L 70.494438 77.319346 
z
" clip-path="url(#pc4ac570341)" style="fill: #882e72; fill-opacity: 0.6; stroke: #ffffff; stroke-opacity: 0.6; stroke-width: 0.339411"/>
    <path d="M 95.798921 91.842821 
L 97.598921 88.842821 
L 95.798921 85.842821 
L 93.998921 88.842821 
z
" clip-path="url(#pc4ac570341)" style="fill: #882e72; fill-opacity: 0.6; stroke: #ffffff; stroke-opacity: 0.6; stroke-width: 0.339411"/>
    <path d="M 79.838685 78.734312 
L 81.638685 75.734312 
L 79.838685 72.734312 
L 78.038685 75.734312 
z
" clip-path="url(#pc4ac570341)" style="fill: #882e72; fill-opacity: 0.6; stroke: #ffffff; stroke-opacity: 0.6; stroke-width: 0.339411"/>
    <path d="M 148.675734 45.860958 
L 150.475734 42.860958 
L 148.675734 39.860958 
L 146.875734 42.860958 
z
" clip-path="url(#pc4ac570341)" style="fill: #882e72; fill-opacity: 0.6; stroke: #ffffff; stroke-opacity: 0.6; stroke-width: 0.339411"/>
    <path d="M 125.019128 31.551354 
L 126.819128 28.551354 
L 125.019128 25.551354 
L 123.219128 28.551354 
z
" clip-path="url(#pc4ac570341)" style="fill: #882e72; fill-opacity: 0.6; stroke: #ffffff; stroke-opacity: 0.6; stroke-width: 0.339411"/>
    <path d="M 131.532015 42.574702 
L 133.332015 39.574702 
L 131.532015 36.574702 
L 129.732015 39.574702 
z
" clip-path="url(#pc4ac570341)" style="fill: #882e72; fill-opacity: 0.6; stroke: #ffffff; stroke-opacity: 0.6; stroke-width: 0.339411"/>
    <path d="M 86.62487 102.821266 
L 88.42487 99.821266 
L 86.62487 96.821266 
L 84.82487 99.821266 
z
" clip-path="url(#pc4ac570341)" style="fill: #882e72; fill-opacity: 0.6; stroke: #ffffff; stroke-opacity: 0.6; stroke-width: 0.339411"/>
    <path d="M 119.260135 42.369213 
L 121.060135 39.369213 
L 119.260135 36.369213 
L 117.460135 39.369213 
z
" clip-path="url(#pc4ac570341)" style="fill: #882e72; fill-opacity: 0.6; stroke: #ffffff; stroke-opacity: 0.6; stroke-width: 0.339411"/>
    <path d="M 85.161765 95.605905 
L 86.961765 92.605905 
L 85.161765 89.605905 
L 83.361765 92.605905 
z
" clip-path="url(#pc4ac570341)" style="fill: #882e72; fill-opacity: 0.6; stroke: #ffffff; stroke-opacity: 0.6; stroke-width: 0.339411"/>
    <path d="M 140.958894 42.533686 
L 142.758894 39.533686 
L 140.958894 36.533686 
L 139.158894 39.533686 
z
" clip-path="url(#pc4ac570341)" style="fill: #882e72; fill-opacity: 0.6; stroke: #ffffff; stroke-opacity: 0.6; stroke-width: 0.339411"/>
    <path d="M 150.62429 47.302996 
L 152.42429 44.302996 
L 150.62429 41.302996 
L 148.82429 44.302996 
z
" clip-path="url(#pc4ac570341)" style="fill: #882e72; fill-opacity: 0.6; stroke: #ffffff; stroke-opacity: 0.6; stroke-width: 0.339411"/>
    <path d="M 73.207906 82.311541 
L 75.007906 79.311541 
L 73.207906 76.311541 
L 71.407906 79.311541 
z
" clip-path="url(#pc4ac570341)" style="fill: #882e72; fill-opacity: 0.6; stroke: #ffffff; stroke-opacity: 0.6; stroke-width: 0.339411"/>
    <path d="M 83.093376 107.952728 
L 84.893376 104.952728 
L 83.093376 101.952728 
L 81.293376 104.952728 
z
" clip-path="url(#pc4ac570341)" style="fill: #882e72; fill-opacity: 0.6; stroke: #ffffff; stroke-opacity: 0.6; stroke-width: 0.339411"/>
    <path d="M 106.978382 92.105891 
L 108.778382 89.105891 
L 106.978382 86.105891 
L 105.178382 89.105891 
z
" clip-path="url(#pc4ac570341)" style="fill: #882e72; fill-opacity: 0.6; stroke: #ffffff; stroke-opacity: 0.6; stroke-width: 0.339411"/>
    <path d="M 91.747103 96.794167 
L 93.547103 93.794167 
L 91.747103 90.794167 
L 89.947103 93.794167 
z
" clip-path="url(#pc4ac570341)" style="fill: #882e72; fill-opacity: 0.6; stroke: #ffffff; stroke-opacity: 0.6; stroke-width: 0.339411"/>
    <path d="M 108.677634 86.514281 
L 110.477634 83.514281 
L 108.677634 80.514281 
L 106.877634 83.514281 
z
" clip-path="url(#pc4ac570341)" style="fill: #882e72; fill-opacity: 0.6; stroke: #ffffff; stroke-opacity: 0.6; stroke-width: 0.339411"/>
    <path d="M 94.16307 97.149722 
L 95.96307 94.149722 
L 94.16307 91.149722 
L 92.36307 94.149722 
z
" clip-path="url(#pc4ac570341)" style="fill: #882e72; fill-opacity: 0.6; stroke: #ffffff; stroke-opacity: 0.6; stroke-width: 0.339411"/>
    <path d="M 126.194353 33.503453 
L 127.994353 30.503453 
L 126.194353 27.503453 
L 124.394353 30.503453 
z
" clip-path="url(#pc4ac570341)" style="fill: #882e72; fill-opacity: 0.6; stroke: #ffffff; stroke-opacity: 0.6; stroke-width: 0.339411"/>
    <path d="M 120.778257 38.731632 
L 122.578257 35.731632 
L 120.778257 32.731632 
L 118.978257 35.731632 
z
" clip-path="url(#pc4ac570341)" style="fill: #882e72; fill-opacity: 0.6; stroke: #ffffff; stroke-opacity: 0.6; stroke-width: 0.339411"/>
    <path d="M 107.866045 85.736042 
L 109.666045 82.736042 
L 107.866045 79.736042 
L 106.066045 82.736042 
z
" clip-path="url(#pc4ac570341)" style="fill: #882e72; fill-opacity: 0.6; stroke: #ffffff; stroke-opacity: 0.6; stroke-width: 0.339411"/>
    <path d="M 78.149133 108.893273 
L 79.949133 105.893273 
L 78.149133 102.893273 
L 76.349133 105.893273 
z
" clip-path="url(#pc4ac570341)" style="fill: #882e72; fill-opacity: 0.6; stroke: #ffffff; stroke-opacity: 0.6; stroke-width: 0.339411"/>
    <path d="M 100.259292 89.793525 
L 102.059292 86.793525 
L 100.259292 83.793525 
L 98.459292 86.793525 
z
" clip-path="url(#pc4ac570341)" style="fill: #882e72; fill-opacity: 0.6; stroke: #ffffff; stroke-opacity: 0.6; stroke-width: 0.339411"/>
    <path d="M 78.741577 108.501027 
L 80.541577 105.501027 
L 78.741577 102.501027 
L 76.941577 105.501027 
z
" clip-path="url(#pc4ac570341)" style="fill: #882e72; fill-opacity: 0.6; stroke: #ffffff; stroke-opacity: 0.6; stroke-width: 0.339411"/>
    <path d="M 102.90049 90.493576 
L 104.70049 87.493576 
L 102.90049 84.493576 
L 101.10049 87.493576 
z
" clip-path="url(#pc4ac570341)" style="fill: #882e72; fill-opacity: 0.6; stroke: #ffffff; stroke-opacity: 0.6; stroke-width: 0.339411"/>
    <path d="M 147.600493 44.147135 
L 149.400493 41.147135 
L 147.600493 38.147135 
L 145.800493 41.147135 
z
" clip-path="url(#pc4ac570341)" style="fill: #882e72; fill-opacity: 0.6; stroke: #ffffff; stroke-opacity: 0.6; stroke-width: 0.339411"/>
    <path d="M 107.047006 87.865035 
L 108.847006 84.865035 
L 107.047006 81.865035 
L 105.247006 84.865035 
z
" clip-path="url(#pc4ac570341)" style="fill: #882e72; fill-opacity: 0.6; stroke: #ffffff; stroke-opacity: 0.6; stroke-width: 0.339411"/>
    <path d="M 112.262897 81.910562 
L 114.062897 78.910562 
L 112.262897 75.910562 
L 110.462897 78.910562 
z
" clip-path="url(#pc4ac570341)" style="fill: #882e72; fill-opacity: 0.6; stroke: #ffffff; stroke-opacity: 0.6; stroke-width: 0.339411"/>
    <path d="M 102.379477 84.15737 
L 104.179477 81.15737 
L 102.379477 78.15737 
L 100.579477 81.15737 
z
" clip-path="url(#pc4ac570341)" style="fill: #882e72; fill-opacity: 0.6; stroke: #ffffff; stroke-opacity: 0.6; stroke-width: 0.339411"/>
    <path d="M 131.282819 35.847836 
L 133.082819 32.847836 
L 131.282819 29.847836 
L 129.482819 32.847836 
z
" clip-path="url(#pc4ac570341)" style="fill: #882e72; fill-opacity: 0.6; stroke: #ffffff; stroke-opacity: 0.6; stroke-width: 0.339411"/>
    <path d="M 100.014746 95.389651 
L 101.814746 92.389651 
L 100.014746 89.389651 
L 98.214746 92.389651 
z
" clip-path="url(#pc4ac570341)" style="fill: #882e72; fill-opacity: 0.6; stroke: #ffffff; stroke-opacity: 0.6; stroke-width: 0.339411"/>
    <path d="M 139.986861 42.635802 
L 141.786861 39.635802 
L 139.986861 36.635802 
L 138.186861 39.635802 
z
" clip-path="url(#pc4ac570341)" style="fill: #882e72; fill-opacity: 0.6; stroke: #ffffff; stroke-opacity: 0.6; stroke-width: 0.339411"/>
    <path d="M 128.197189 30.54546 
L 129.997189 27.54546 
L 128.197189 24.54546 
L 126.397189 27.54546 
z
" clip-path="url(#pc4ac570341)" style="fill: #882e72; fill-opacity: 0.6; stroke: #ffffff; stroke-opacity: 0.6; stroke-width: 0.339411"/>
    <path d="M 118.932702 75.808537 
L 120.732702 72.808537 
L 118.932702 69.808537 
L 117.132702 72.808537 
z
" clip-path="url(#pc4ac570341)" style="fill: #882e72; fill-opacity: 0.6; stroke: #ffffff; stroke-opacity: 0.6; stroke-width: 0.339411"/>
    <path d="M 121.219514 34.415186 
L 123.019514 31.415186 
L 121.219514 28.415186 
L 119.419514 31.415186 
z
" clip-path="url(#pc4ac570341)" style="fill: #882e72; fill-opacity: 0.6; stroke: #ffffff; stroke-opacity: 0.6; stroke-width: 0.339411"/>
    <path d="M 74.062567 81.753639 
L 75.862567 78.753639 
L 74.062567 75.753639 
L 72.262567 78.753639 
z
" clip-path="url(#pc4ac570341)" style="fill: #882e72; fill-opacity: 0.6; stroke: #ffffff; stroke-opacity: 0.6; stroke-width: 0.339411"/>
    <path d="M 119.997993 53.786018 
L 121.797993 50.786018 
L 119.997993 47.786018 
L 118.197993 50.786018 
z
" clip-path="url(#pc4ac570341)" style="fill: #882e72; fill-opacity: 0.6; stroke: #ffffff; stroke-opacity: 0.6; stroke-width: 0.339411"/>
    <path d="M 111.761401 84.131033 
L 113.561401 81.131033 
L 111.761401 78.131033 
L 109.961401 81.131033 
z
" clip-path="url(#pc4ac570341)" style="fill: #882e72; fill-opacity: 0.6; stroke: #ffffff; stroke-opacity: 0.6; stroke-width: 0.339411"/>
    <path d="M 85.331153 105.412281 
L 87.131153 102.412281 
L 85.331153 99.412281 
L 83.531153 102.412281 
z
" clip-path="url(#pc4ac570341)" style="fill: #882e72; fill-opacity: 0.6; stroke: #ffffff; stroke-opacity: 0.6; stroke-width: 0.339411"/>
    <path d="M 94.788242 89.838102 
L 96.588242 86.838102 
L 94.788242 83.838102 
L 92.988242 86.838102 
z
" clip-path="url(#pc4ac570341)" style="fill: #882e72; fill-opacity: 0.6; stroke: #ffffff; stroke-opacity: 0.6; stroke-width: 0.339411"/>
    <path d="M 81.821921 106.807942 
L 83.621921 103.807942 
L 81.821921 100.807942 
L 80.021921 103.807942 
z
" clip-path="url(#pc4ac570341)" style="fill: #882e72; fill-opacity: 0.6; stroke: #ffffff; stroke-opacity: 0.6; stroke-width: 0.339411"/>
    <path d="M 117.667726 74.968872 
L 119.467726 71.968872 
L 117.667726 68.968872 
L 115.867726 71.968872 
z
" clip-path="url(#pc4ac570341)" style="fill: #882e72; fill-opacity: 0.6; stroke: #ffffff; stroke-opacity: 0.6; stroke-width: 0.339411"/>
    <path d="M 124.645405 34.008906 
L 126.445405 31.008906 
L 124.645405 28.008906 
L 122.845405 31.008906 
z
" clip-path="url(#pc4ac570341)" style="fill: #882e72; fill-opacity: 0.6; stroke: #ffffff; stroke-opacity: 0.6; stroke-width: 0.339411"/>
    <path d="M 127.073587 32.099671 
L 128.873587 29.099671 
L 127.073587 26.099671 
L 125.273587 29.099671 
z
" clip-path="url(#pc4ac570341)" style="fill: #882e72; fill-opacity: 0.6; stroke: #ffffff; stroke-opacity: 0.6; stroke-width: 0.339411"/>
    <path d="M 127.809679 36.349863 
L 129.609679 33.349863 
L 127.809679 30.349863 
L 126.009679 33.349863 
z
" clip-path="url(#pc4ac570341)" style="fill: #882e72; fill-opacity: 0.6; stroke: #ffffff; stroke-opacity: 0.6; stroke-width: 0.339411"/>
    <path d="M 133.336045 39.944756 
L 135.136045 36.944756 
L 133.336045 33.944756 
L 131.536045 36.944756 
z
" clip-path="url(#pc4ac570341)" style="fill: #882e72; fill-opacity: 0.6; stroke: #ffffff; stroke-opacity: 0.6; stroke-width: 0.339411"/>
    <path d="M 70.691196 92.575142 
L 72.491196 89.575142 
L 70.691196 86.575142 
L 68.891196 89.575142 
z
" clip-path="url(#pc4ac570341)" style="fill: #882e72; fill-opacity: 0.6; stroke: #ffffff; stroke-opacity: 0.6; stroke-width: 0.339411"/>
    <path d="M 86.797291 84.509467 
L 84.675971 88.752107 
L 88.918612 88.752107 
z
" clip-path="url(#pc4ac570341)" style="fill: #1965b0; fill-opacity: 0.6; stroke: #ffffff; stroke-opacity: 0.6; stroke-width: 0.339411"/>
    <path d="M 83.734889 88.572933 
L 81.613569 92.815574 
L 85.856209 92.815574 
z
" clip-path="url(#pc4ac570341)" style="fill: #1965b0; fill-opacity: 0.6; stroke: #ffffff; stroke-opacity: 0.6; stroke-width: 0.339411"/>
    <path d="M 127.456218 35.960608 
L 125.334898 40.203249 
L 129.577538 40.203249 
z
" clip-path="url(#pc4ac570341)" style="fill: #1965b0; fill-opacity: 0.6; stroke: #ffffff; stroke-opacity: 0.6; stroke-width: 0.339411"/>
    <path d="M 102.956741 58.384323 
L 100.835421 62.626963 
L 105.078062 62.626963 
z
" clip-path="url(#pc4ac570341)" style="fill: #1965b0; fill-opacity: 0.6; stroke: #ffffff; stroke-opacity: 0.6; stroke-width: 0.339411"/>
    <path d="M 98.806903 80.025346 
L 96.685583 84.267987 
L 100.928224 84.267987 
z
" clip-path="url(#pc4ac570341)" style="fill: #1965b0; fill-opacity: 0.6; stroke: #ffffff; stroke-opacity: 0.6; stroke-width: 0.339411"/>
    <path d="M 103.302505 54.374295 
L 101.181185 58.616935 
L 105.423825 58.616935 
z
" clip-path="url(#pc4ac570341)" style="fill: #1965b0; fill-opacity: 0.6; stroke: #ffffff; stroke-opacity: 0.6; stroke-width: 0.339411"/>
    <path d="M 105.710791 50.497203 
L 103.589471 54.739843 
L 107.832112 54.739843 
z
" clip-path="url(#pc4ac570341)" style="fill: #1965b0; fill-opacity: 0.6; stroke: #ffffff; stroke-opacity: 0.6; stroke-width: 0.339411"/>
    <path d="M 68.242555 85.544723 
L 66.121234 89.787364 
L 70.363875 89.787364 
z
" clip-path="url(#pc4ac570341)" style="fill: #1965b0; fill-opacity: 0.6; stroke: #ffffff; stroke-opacity: 0.6; stroke-width: 0.339411"/>
    <path d="M 124.491769 40.432545 
L 122.370449 44.675186 
L 126.613089 44.675186 
z
" clip-path="url(#pc4ac570341)" style="fill: #1965b0; fill-opacity: 0.6; stroke: #ffffff; stroke-opacity: 0.6; stroke-width: 0.339411"/>
    <path d="M 126.220191 39.612921 
L 124.098871 43.855562 
L 128.341512 43.855562 
z
" clip-path="url(#pc4ac570341)" style="fill: #1965b0; fill-opacity: 0.6; stroke: #ffffff; stroke-opacity: 0.6; stroke-width: 0.339411"/>
    <path d="M 102.75086 82.351152 
L 100.62954 86.593793 
L 104.87218 86.593793 
z
" clip-path="url(#pc4ac570341)" style="fill: #1965b0; fill-opacity: 0.6; stroke: #ffffff; stroke-opacity: 0.6; stroke-width: 0.339411"/>
    <path d="M 154.739675 46.315336 
L 152.618354 50.557977 
L 156.860995 50.557977 
z
" clip-path="url(#pc4ac570341)" style="fill: #1965b0; fill-opacity: 0.6; stroke: #ffffff; stroke-opacity: 0.6; stroke-width: 0.339411"/>
    <path d="M 150.808653 47.572187 
L 148.687332 51.814827 
L 152.929973 51.814827 
z
" clip-path="url(#pc4ac570341)" style="fill: #1965b0; fill-opacity: 0.6; stroke: #ffffff; stroke-opacity: 0.6; stroke-width: 0.339411"/>
    <path d="M 96.782975 80.856465 
L 94.661655 85.099106 
L 98.904296 85.099106 
z
" clip-path="url(#pc4ac570341)" style="fill: #1965b0; fill-opacity: 0.6; stroke: #ffffff; stroke-opacity: 0.6; stroke-width: 0.339411"/>
    <path d="M 108.370455 70.206959 
L 106.249135 74.449599 
L 110.491776 74.449599 
z
" clip-path="url(#pc4ac570341)" style="fill: #1965b0; fill-opacity: 0.6; stroke: #ffffff; stroke-opacity: 0.6; stroke-width: 0.339411"/>
    <path d="M 111.897208 41.937495 
L 109.775888 46.180136 
L 114.018529 46.180136 
z
" clip-path="url(#pc4ac570341)" style="fill: #1965b0; fill-opacity: 0.6; stroke: #ffffff; stroke-opacity: 0.6; stroke-width: 0.339411"/>
    <path d="M 151.3714 49.300349 
L 149.25008 53.54299 
L 153.49272 53.54299 
z
" clip-path="url(#pc4ac570341)" style="fill: #1965b0; fill-opacity: 0.6; stroke: #ffffff; stroke-opacity: 0.6; stroke-width: 0.339411"/>
    <path d="M 77.258466 86.074333 
L 75.137146 90.316974 
L 79.379786 90.316974 
z
" clip-path="url(#pc4ac570341)" style="fill: #1965b0; fill-opacity: 0.6; stroke: #ffffff; stroke-opacity: 0.6; stroke-width: 0.339411"/>
    <path d="M 143.38675 42.673451 
L 141.265429 46.916091 
L 145.50807 46.916091 
z
" clip-path="url(#pc4ac570341)" style="fill: #1965b0; fill-opacity: 0.6; stroke: #ffffff; stroke-opacity: 0.6; stroke-width: 0.339411"/>
    <path d="M 132.55825 44.270868 
L 130.43693 48.513509 
L 134.67957 48.513509 
z
" clip-path="url(#pc4ac570341)" style="fill: #1965b0; fill-opacity: 0.6; stroke: #ffffff; stroke-opacity: 0.6; stroke-width: 0.339411"/>
    <path d="M 72.498916 102.792538 
L 70.377595 107.035179 
L 74.620236 107.035179 
z
" clip-path="url(#pc4ac570341)" style="fill: #1965b0; fill-opacity: 0.6; stroke: #ffffff; stroke-opacity: 0.6; stroke-width: 0.339411"/>
    <path d="M 143.421365 44.571058 
L 141.300045 48.813698 
L 145.542686 48.813698 
z
" clip-path="url(#pc4ac570341)" style="fill: #1965b0; fill-opacity: 0.6; stroke: #ffffff; stroke-opacity: 0.6; stroke-width: 0.339411"/>
    <path d="M 130.093669 40.484706 
L 127.972348 44.727347 
L 132.214989 44.727347 
z
" clip-path="url(#pc4ac570341)" style="fill: #1965b0; fill-opacity: 0.6; stroke: #ffffff; stroke-opacity: 0.6; stroke-width: 0.339411"/>
    <path d="M 81.949248 91.026381 
L 79.827928 95.269022 
L 84.070569 95.269022 
z
" clip-path="url(#pc4ac570341)" style="fill: #1965b0; fill-opacity: 0.6; stroke: #ffffff; stroke-opacity: 0.6; stroke-width: 0.339411"/>
    <path d="M 149.225023 45.847205 
L 147.103703 50.089846 
L 151.346344 50.089846 
z
" clip-path="url(#pc4ac570341)" style="fill: #1965b0; fill-opacity: 0.6; stroke: #ffffff; stroke-opacity: 0.6; stroke-width: 0.339411"/>
    <path d="M 87.811015 77.874128 
L 85.689694 82.116768 
L 89.932335 82.116768 
z
" clip-path="url(#pc4ac570341)" style="fill: #1965b0; fill-opacity: 0.6; stroke: #ffffff; stroke-opacity: 0.6; stroke-width: 0.339411"/>
    <path d="M 139.902862 44.163661 
L 137.781542 48.406302 
L 142.024183 48.406302 
z
" clip-path="url(#pc4ac570341)" style="fill: #1965b0; fill-opacity: 0.6; stroke: #ffffff; stroke-opacity: 0.6; stroke-width: 0.339411"/>
    <path d="M 108.343198 49.085444 
L 106.221877 53.328084 
L 110.464518 53.328084 
z
" clip-path="url(#pc4ac570341)" style="fill: #1965b0; fill-opacity: 0.6; stroke: #ffffff; stroke-opacity: 0.6; stroke-width: 0.339411"/>
    <path d="M 146.742395 45.811827 
L 144.621075 50.054468 
L 148.863715 50.054468 
z
" clip-path="url(#pc4ac570341)" style="fill: #1965b0; fill-opacity: 0.6; stroke: #ffffff; stroke-opacity: 0.6; stroke-width: 0.339411"/>
    <path d="M 117.701001 54.065721 
L 115.57968 58.308361 
L 119.822321 58.308361 
z
" clip-path="url(#pc4ac570341)" style="fill: #1965b0; fill-opacity: 0.6; stroke: #ffffff; stroke-opacity: 0.6; stroke-width: 0.339411"/>
    <path d="M 114.187809 42.578139 
L 112.066489 46.82078 
L 116.30913 46.82078 
z
" clip-path="url(#pc4ac570341)" style="fill: #1965b0; fill-opacity: 0.6; stroke: #ffffff; stroke-opacity: 0.6; stroke-width: 0.339411"/>
    <path d="M 110.837963 46.722732 
L 108.716643 50.965373 
L 112.959284 50.965373 
z
" clip-path="url(#pc4ac570341)" style="fill: #1965b0; fill-opacity: 0.6; stroke: #ffffff; stroke-opacity: 0.6; stroke-width: 0.339411"/>
    <path d="M 117.63634 34.092571 
L 115.51502 38.335212 
L 119.75766 38.335212 
z
" clip-path="url(#pc4ac570341)" style="fill: #1965b0; fill-opacity: 0.6; stroke: #ffffff; stroke-opacity: 0.6; stroke-width: 0.339411"/>
    <path d="M 84.866512 83.407739 
L 82.745192 87.650379 
L 86.987832 87.650379 
z
" clip-path="url(#pc4ac570341)" style="fill: #1965b0; fill-opacity: 0.6; stroke: #ffffff; stroke-opacity: 0.6; stroke-width: 0.339411"/>
    <path d="M 110.239597 71.431795 
L 108.118277 75.674436 
L 112.360917 75.674436 
z
" clip-path="url(#pc4ac570341)" style="fill: #1965b0; fill-opacity: 0.6; stroke: #ffffff; stroke-opacity: 0.6; stroke-width: 0.339411"/>
    <path d="M 96.489461 60.687641 
L 94.368141 64.930281 
L 98.610782 64.930281 
z
" clip-path="url(#pc4ac570341)" style="fill: #1965b0; fill-opacity: 0.6; stroke: #ffffff; stroke-opacity: 0.6; stroke-width: 0.339411"/>
    <path d="M 122.871611 37.404388 
L 120.750291 41.647029 
L 124.992932 41.647029 
z
" clip-path="url(#pc4ac570341)" style="fill: #1965b0; fill-opacity: 0.6; stroke: #ffffff; stroke-opacity: 0.6; stroke-width: 0.339411"/>
    <path d="M 138.094056 43.498194 
L 135.972735 47.740835 
L 140.215376 47.740835 
z
" clip-path="url(#pc4ac570341)" style="fill: #1965b0; fill-opacity: 0.6; stroke: #ffffff; stroke-opacity: 0.6; stroke-width: 0.339411"/>
    <path d="M 111.154151 67.465326 
L 109.032831 71.707966 
L 113.275471 71.707966 
z
" clip-path="url(#pc4ac570341)" style="fill: #1965b0; fill-opacity: 0.6; stroke: #ffffff; stroke-opacity: 0.6; stroke-width: 0.339411"/>
    <path d="M 115.433878 33.698363 
L 113.312558 37.941003 
L 117.555199 37.941003 
z
" clip-path="url(#pc4ac570341)" style="fill: #1965b0; fill-opacity: 0.6; stroke: #ffffff; stroke-opacity: 0.6; stroke-width: 0.339411"/>
    <path d="M 136.043816 41.603593 
L 133.922495 45.846233 
L 138.165136 45.846233 
z
" clip-path="url(#pc4ac570341)" style="fill: #1965b0; fill-opacity: 0.6; stroke: #ffffff; stroke-opacity: 0.6; stroke-width: 0.339411"/>
    <path d="M 141.960075 44.427911 
L 139.838755 48.670552 
L 144.081396 48.670552 
z
" clip-path="url(#pc4ac570341)" style="fill: #1965b0; fill-opacity: 0.6; stroke: #ffffff; stroke-opacity: 0.6; stroke-width: 0.339411"/>
    <path d="M 138.050352 41.079544 
L 135.929031 45.322185 
L 140.171672 45.322185 
z
" clip-path="url(#pc4ac570341)" style="fill: #1965b0; fill-opacity: 0.6; stroke: #ffffff; stroke-opacity: 0.6; stroke-width: 0.339411"/>
    <path d="M 145.724329 47.827933 
L 143.603008 52.070574 
L 147.845649 52.070574 
z
" clip-path="url(#pc4ac570341)" style="fill: #1965b0; fill-opacity: 0.6; stroke: #ffffff; stroke-opacity: 0.6; stroke-width: 0.339411"/>
    <path d="M 130.927232 46.131791 
L 128.805911 50.374432 
L 133.048552 50.374432 
z
" clip-path="url(#pc4ac570341)" style="fill: #1965b0; fill-opacity: 0.6; stroke: #ffffff; stroke-opacity: 0.6; stroke-width: 0.339411"/>
    <path d="M 142.379848 42.818984 
L 140.258528 47.061625 
L 144.501169 47.061625 
z
" clip-path="url(#pc4ac570341)" style="fill: #1965b0; fill-opacity: 0.6; stroke: #ffffff; stroke-opacity: 0.6; stroke-width: 0.339411"/>
    <path d="M 145.930555 48.066124 
L 143.809234 52.308765 
L 148.051875 52.308765 
z
" clip-path="url(#pc4ac570341)" style="fill: #1965b0; fill-opacity: 0.6; stroke: #ffffff; stroke-opacity: 0.6; stroke-width: 0.339411"/>
    <path d="M 81.995542 97.939822 
L 79.874221 102.182462 
L 84.116862 102.182462 
z
" clip-path="url(#pc4ac570341)" style="fill: #1965b0; fill-opacity: 0.6; stroke: #ffffff; stroke-opacity: 0.6; stroke-width: 0.339411"/>
    <path d="M 107.32434 75.216732 
L 105.20302 79.459373 
L 109.44566 79.459373 
z
" clip-path="url(#pc4ac570341)" style="fill: #1965b0; fill-opacity: 0.6; stroke: #ffffff; stroke-opacity: 0.6; stroke-width: 0.339411"/>
    <path d="M 106.604885 77.973263 
L 104.483565 82.215903 
L 108.726206 82.215903 
z
" clip-path="url(#pc4ac570341)" style="fill: #1965b0; fill-opacity: 0.6; stroke: #ffffff; stroke-opacity: 0.6; stroke-width: 0.339411"/>
    <path d="M 136.686979 45.01511 
L 134.565658 49.25775 
L 138.808299 49.25775 
z
" clip-path="url(#pc4ac570341)" style="fill: #1965b0; fill-opacity: 0.6; stroke: #ffffff; stroke-opacity: 0.6; stroke-width: 0.339411"/>
    <path d="M 104.053443 52.384557 
L 101.932123 56.627198 
L 106.174764 56.627198 
z
" clip-path="url(#pc4ac570341)" style="fill: #1965b0; fill-opacity: 0.6; stroke: #ffffff; stroke-opacity: 0.6; stroke-width: 0.339411"/>
    <path d="M 109.289413 78.725014 
L 107.168093 82.967655 
L 111.410734 82.967655 
z
" clip-path="url(#pc4ac570341)" style="fill: #1965b0; fill-opacity: 0.6; stroke: #ffffff; stroke-opacity: 0.6; stroke-width: 0.339411"/>
    <path d="M 118.005132 39.66603 
L 115.883812 43.90867 
L 120.126453 43.90867 
z
" clip-path="url(#pc4ac570341)" style="fill: #1965b0; fill-opacity: 0.6; stroke: #ffffff; stroke-opacity: 0.6; stroke-width: 0.339411"/>
    <path d="M 111.956027 40.41176 
L 109.834707 44.654401 
L 114.077348 44.654401 
z
" clip-path="url(#pc4ac570341)" style="fill: #1965b0; fill-opacity: 0.6; stroke: #ffffff; stroke-opacity: 0.6; stroke-width: 0.339411"/>
    <path d="M 68.892127 90.300232 
L 66.770807 94.542873 
L 71.013448 94.542873 
z
" clip-path="url(#pc4ac570341)" style="fill: #1965b0; fill-opacity: 0.6; stroke: #ffffff; stroke-opacity: 0.6; stroke-width: 0.339411"/>
    <path d="M 141.78278 45.794778 
L 139.66146 50.037418 
L 143.904101 50.037418 
z
" clip-path="url(#pc4ac570341)" style="fill: #1965b0; fill-opacity: 0.6; stroke: #ffffff; stroke-opacity: 0.6; stroke-width: 0.339411"/>
    <path d="M 140.789358 48.205942 
L 138.668038 52.448582 
L 142.910679 52.448582 
z
" clip-path="url(#pc4ac570341)" style="fill: #1965b0; fill-opacity: 0.6; stroke: #ffffff; stroke-opacity: 0.6; stroke-width: 0.339411"/>
    <path d="M 140.731917 48.107751 
L 138.610597 52.350392 
L 142.853238 52.350392 
z
" clip-path="url(#pc4ac570341)" style="fill: #1965b0; fill-opacity: 0.6; stroke: #ffffff; stroke-opacity: 0.6; stroke-width: 0.339411"/>
    <path d="M 123.20357 46.189274 
L 121.082249 50.431915 
L 125.32489 50.431915 
z
" clip-path="url(#pc4ac570341)" style="fill: #1965b0; fill-opacity: 0.6; stroke: #ffffff; stroke-opacity: 0.6; stroke-width: 0.339411"/>
    <path d="M 113.88821 57.367517 
L 111.76689 61.610158 
L 116.009531 61.610158 
z
" clip-path="url(#pc4ac570341)" style="fill: #1965b0; fill-opacity: 0.6; stroke: #ffffff; stroke-opacity: 0.6; stroke-width: 0.339411"/>
    <path d="M 107.614669 48.41386 
L 105.493349 52.656501 
L 109.73599 52.656501 
z
" clip-path="url(#pc4ac570341)" style="fill: #1965b0; fill-opacity: 0.6; stroke: #ffffff; stroke-opacity: 0.6; stroke-width: 0.339411"/>
    <path d="M 132.370661 41.205732 
L 130.24934 45.448373 
L 134.491981 45.448373 
z
" clip-path="url(#pc4ac570341)" style="fill: #1965b0; fill-opacity: 0.6; stroke: #ffffff; stroke-opacity: 0.6; stroke-width: 0.339411"/>
    <path d="M 94.092953 79.583261 
L 98.335594 79.583261 
L 98.335594 75.34062 
L 94.092953 75.34062 
z
" clip-path="url(#pc4ac570341)" style="fill: #7bafde; fill-opacity: 0.6; stroke: #ffffff; stroke-opacity: 0.6; stroke-width: 0.339411"/>
    <path d="M 106.804927 44.183826 
L 111.047568 44.183826 
L 111.047568 39.941185 
L 106.804927 39.941185 
z
" clip-path="url(#pc4ac570341)" style="fill: #7bafde; fill-opacity: 0.6; stroke: #ffffff; stroke-opacity: 0.6; stroke-width: 0.339411"/>
    <path d="M 66.870153 98.446821 
L 71.112793 98.446821 
L 71.112793 94.20418 
L 66.870153 94.20418 
z
" clip-path="url(#pc4ac570341)" style="fill: #7bafde; fill-opacity: 0.6; stroke: #ffffff; stroke-opacity: 0.6; stroke-width: 0.339411"/>
    <path d="M 91.400384 78.644552 
L 95.643025 78.644552 
L 95.643025 74.401911 
L 91.400384 74.401911 
z
" clip-path="url(#pc4ac570341)" style="fill: #7bafde; fill-opacity: 0.6; stroke: #ffffff; stroke-opacity: 0.6; stroke-width: 0.339411"/>
    <path d="M 119.976862 75.414006 
L 124.219503 75.414006 
L 124.219503 71.171365 
L 119.976862 71.171365 
z
" clip-path="url(#pc4ac570341)" style="fill: #7bafde; fill-opacity: 0.6; stroke: #ffffff; stroke-opacity: 0.6; stroke-width: 0.339411"/>
    <path d="M 123.843121 72.671818 
L 128.085762 72.671818 
L 128.085762 68.429178 
L 123.843121 68.429178 
z
" clip-path="url(#pc4ac570341)" style="fill: #7bafde; fill-opacity: 0.6; stroke: #ffffff; stroke-opacity: 0.6; stroke-width: 0.339411"/>
    <path d="M 86.207093 69.410694 
L 90.449733 69.410694 
L 90.449733 65.168054 
L 86.207093 65.168054 
z
" clip-path="url(#pc4ac570341)" style="fill: #7bafde; fill-opacity: 0.6; stroke: #ffffff; stroke-opacity: 0.6; stroke-width: 0.339411"/>
    <path d="M 101.915567 91.059354 
L 106.158208 91.059354 
L 106.158208 86.816714 
L 101.915567 86.816714 
z
" clip-path="url(#pc4ac570341)" style="fill: #7bafde; fill-opacity: 0.6; stroke: #ffffff; stroke-opacity: 0.6; stroke-width: 0.339411"/>
    <path d="M 73.386505 87.038295 
L 77.629146 87.038295 
L 77.629146 82.795654 
L 73.386505 82.795654 
z
" clip-path="url(#pc4ac570341)" style="fill: #7bafde; fill-opacity: 0.6; stroke: #ffffff; stroke-opacity: 0.6; stroke-width: 0.339411"/>
    <path d="M 88.628342 92.187331 
L 92.870983 92.187331 
L 92.870983 87.944691 
L 88.628342 87.944691 
z
" clip-path="url(#pc4ac570341)" style="fill: #7bafde; fill-opacity: 0.6; stroke: #ffffff; stroke-opacity: 0.6; stroke-width: 0.339411"/>
    <path d="M 109.547283 80.499419 
L 113.789924 80.499419 
L 113.789924 76.256778 
L 109.547283 76.256778 
z
" clip-path="url(#pc4ac570341)" style="fill: #7bafde; fill-opacity: 0.6; stroke: #ffffff; stroke-opacity: 0.6; stroke-width: 0.339411"/>
    <path d="M 69.892183 92.586277 
L 74.134824 92.586277 
L 74.134824 88.343636 
L 69.892183 88.343636 
z
" clip-path="url(#pc4ac570341)" style="fill: #7bafde; fill-opacity: 0.6; stroke: #ffffff; stroke-opacity: 0.6; stroke-width: 0.339411"/>
    <path d="M 101.319587 53.857434 
L 105.562228 53.857434 
L 105.562228 49.614794 
L 101.319587 49.614794 
z
" clip-path="url(#pc4ac570341)" style="fill: #7bafde; fill-opacity: 0.6; stroke: #ffffff; stroke-opacity: 0.6; stroke-width: 0.339411"/>
    <path d="M 123.411628 68.451421 
L 127.654269 68.451421 
L 127.654269 64.20878 
L 123.411628 64.20878 
z
" clip-path="url(#pc4ac570341)" style="fill: #7bafde; fill-opacity: 0.6; stroke: #ffffff; stroke-opacity: 0.6; stroke-width: 0.339411"/>
    <path d="M 71.592977 98.21119 
L 75.835618 98.21119 
L 75.835618 93.968549 
L 71.592977 93.968549 
z
" clip-path="url(#pc4ac570341)" style="fill: #7bafde; fill-opacity: 0.6; stroke: #ffffff; stroke-opacity: 0.6; stroke-width: 0.339411"/>
    <path d="M 89.888311 82.626179 
L 94.130951 82.626179 
L 94.130951 78.383538 
L 89.888311 78.383538 
z
" clip-path="url(#pc4ac570341)" style="fill: #7bafde; fill-opacity: 0.6; stroke: #ffffff; stroke-opacity: 0.6; stroke-width: 0.339411"/>
    <path d="M 83.257892 87.443086 
L 87.500533 87.443086 
L 87.500533 83.200445 
L 83.257892 83.200445 
z
" clip-path="url(#pc4ac570341)" style="fill: #7bafde; fill-opacity: 0.6; stroke: #ffffff; stroke-opacity: 0.6; stroke-width: 0.339411"/>
    <path d="M 79.91341 98.359578 
L 84.156051 98.359578 
L 84.156051 94.116937 
L 79.91341 94.116937 
z
" clip-path="url(#pc4ac570341)" style="fill: #7bafde; fill-opacity: 0.6; stroke: #ffffff; stroke-opacity: 0.6; stroke-width: 0.339411"/>
    <path d="M 80.018007 89.688057 
L 84.260647 89.688057 
L 84.260647 85.445416 
L 80.018007 85.445416 
z
" clip-path="url(#pc4ac570341)" style="fill: #7bafde; fill-opacity: 0.6; stroke: #ffffff; stroke-opacity: 0.6; stroke-width: 0.339411"/>
    <path d="M 65.967611 91.927709 
L 70.210252 91.927709 
L 70.210252 87.685068 
L 65.967611 87.685068 
z
" clip-path="url(#pc4ac570341)" style="fill: #7bafde; fill-opacity: 0.6; stroke: #ffffff; stroke-opacity: 0.6; stroke-width: 0.339411"/>
    <path d="M 112.699638 54.461549 
L 116.942278 54.461549 
L 116.942278 50.218908 
L 112.699638 50.218908 
z
" clip-path="url(#pc4ac570341)" style="fill: #7bafde; fill-opacity: 0.6; stroke: #ffffff; stroke-opacity: 0.6; stroke-width: 0.339411"/>
    <path d="M 84.513498 72.158907 
L 88.756139 72.158907 
L 88.756139 67.916266 
L 84.513498 67.916266 
z
" clip-path="url(#pc4ac570341)" style="fill: #7bafde; fill-opacity: 0.6; stroke: #ffffff; stroke-opacity: 0.6; stroke-width: 0.339411"/>
    <path d="M 74.513885 95.256888 
L 78.756526 95.256888 
L 78.756526 91.014247 
L 74.513885 91.014247 
z
" clip-path="url(#pc4ac570341)" style="fill: #7bafde; fill-opacity: 0.6; stroke: #ffffff; stroke-opacity: 0.6; stroke-width: 0.339411"/>
    <path d="M 69.539563 89.456347 
L 73.782203 89.456347 
L 73.782203 85.213707 
L 69.539563 85.213707 
z
" clip-path="url(#pc4ac570341)" style="fill: #7bafde; fill-opacity: 0.6; stroke: #ffffff; stroke-opacity: 0.6; stroke-width: 0.339411"/>
    <path d="M 88.795271 66.80652 
L 93.037911 66.80652 
L 93.037911 62.563879 
L 88.795271 62.563879 
z
" clip-path="url(#pc4ac570341)" style="fill: #7bafde; fill-opacity: 0.6; stroke: #ffffff; stroke-opacity: 0.6; stroke-width: 0.339411"/>
    <path d="M 104.740965 65.474315 
L 108.983606 65.474315 
L 108.983606 61.231674 
L 104.740965 61.231674 
z
" clip-path="url(#pc4ac570341)" style="fill: #7bafde; fill-opacity: 0.6; stroke: #ffffff; stroke-opacity: 0.6; stroke-width: 0.339411"/>
    <path d="M 99.946555 64.799634 
L 104.189195 64.799634 
L 104.189195 60.556994 
L 99.946555 60.556994 
z
" clip-path="url(#pc4ac570341)" style="fill: #7bafde; fill-opacity: 0.6; stroke: #ffffff; stroke-opacity: 0.6; stroke-width: 0.339411"/>
    <path d="M 90.988381 70.375579 
L 95.231022 70.375579 
L 95.231022 66.132938 
L 90.988381 66.132938 
z
" clip-path="url(#pc4ac570341)" style="fill: #7bafde; fill-opacity: 0.6; stroke: #ffffff; stroke-opacity: 0.6; stroke-width: 0.339411"/>
    <path d="M 68.181607 81.198996 
L 72.424248 81.198996 
L 72.424248 76.956355 
L 68.181607 76.956355 
z
" clip-path="url(#pc4ac570341)" style="fill: #7bafde; fill-opacity: 0.6; stroke: #ffffff; stroke-opacity: 0.6; stroke-width: 0.339411"/>
    <path d="M 109.370942 42.613114 
L 113.613582 42.613114 
L 113.613582 38.370473 
L 109.370942 38.370473 
z
" clip-path="url(#pc4ac570341)" style="fill: #7bafde; fill-opacity: 0.6; stroke: #ffffff; stroke-opacity: 0.6; stroke-width: 0.339411"/>
    <path d="M 92.933148 65.570637 
L 97.175789 65.570637 
L 97.175789 61.327997 
L 92.933148 61.327997 
z
" clip-path="url(#pc4ac570341)" style="fill: #7bafde; fill-opacity: 0.6; stroke: #ffffff; stroke-opacity: 0.6; stroke-width: 0.339411"/>
    <path d="M 76.299671 87.324787 
L 80.542312 87.324787 
L 80.542312 83.082147 
L 76.299671 83.082147 
z
" clip-path="url(#pc4ac570341)" style="fill: #7bafde; fill-opacity: 0.6; stroke: #ffffff; stroke-opacity: 0.6; stroke-width: 0.339411"/>
    <path d="M 79.277178 93.350801 
L 83.519819 93.350801 
L 83.519819 89.108161 
L 79.277178 89.108161 
z
" clip-path="url(#pc4ac570341)" style="fill: #7bafde; fill-opacity: 0.6; stroke: #ffffff; stroke-opacity: 0.6; stroke-width: 0.339411"/>
    <path d="M 64.472959 88.50464 
L 68.7156 88.50464 
L 68.7156 84.262 
L 64.472959 84.262 
z
" clip-path="url(#pc4ac570341)" style="fill: #7bafde; fill-opacity: 0.6; stroke: #ffffff; stroke-opacity: 0.6; stroke-width: 0.339411"/>
    <path d="M 101.455165 75.134237 
L 105.697806 75.134237 
L 105.697806 70.891596 
L 101.455165 70.891596 
z
" clip-path="url(#pc4ac570341)" style="fill: #7bafde; fill-opacity: 0.6; stroke: #ffffff; stroke-opacity: 0.6; stroke-width: 0.339411"/>
    <path d="M 120.361923 74.330406 
L 124.604563 74.330406 
L 124.604563 70.087765 
L 120.361923 70.087765 
z
" clip-path="url(#pc4ac570341)" style="fill: #7bafde; fill-opacity: 0.6; stroke: #ffffff; stroke-opacity: 0.6; stroke-width: 0.339411"/>
    <path d="M 126.148592 70.399011 
L 130.391232 70.399011 
L 130.391232 66.156371 
L 126.148592 66.156371 
z
" clip-path="url(#pc4ac570341)" style="fill: #7bafde; fill-opacity: 0.6; stroke: #ffffff; stroke-opacity: 0.6; stroke-width: 0.339411"/>
    <path d="M 70.684839 84.499219 
L 74.927479 84.499219 
L 74.927479 80.256578 
L 70.684839 80.256578 
z
" clip-path="url(#pc4ac570341)" style="fill: #7bafde; fill-opacity: 0.6; stroke: #ffffff; stroke-opacity: 0.6; stroke-width: 0.339411"/>
    <path d="M 99.366588 66.146467 
L 103.609228 66.146467 
L 103.609228 61.903826 
L 99.366588 61.903826 
z
" clip-path="url(#pc4ac570341)" style="fill: #7bafde; fill-opacity: 0.6; stroke: #ffffff; stroke-opacity: 0.6; stroke-width: 0.339411"/>
    <path d="M 77.476737 98.924337 
L 81.719377 98.924337 
L 81.719377 94.681696 
L 77.476737 94.681696 
z
" clip-path="url(#pc4ac570341)" style="fill: #7bafde; fill-opacity: 0.6; stroke: #ffffff; stroke-opacity: 0.6; stroke-width: 0.339411"/>
    <path d="M 122.039806 68.335022 
L 126.282447 68.335022 
L 126.282447 64.092381 
L 122.039806 64.092381 
z
" clip-path="url(#pc4ac570341)" style="fill: #7bafde; fill-opacity: 0.6; stroke: #ffffff; stroke-opacity: 0.6; stroke-width: 0.339411"/>
    <path d="M 124.809775 62.137099 
L 129.052416 62.137099 
L 129.052416 57.894458 
L 124.809775 57.894458 
z
" clip-path="url(#pc4ac570341)" style="fill: #7bafde; fill-opacity: 0.6; stroke: #ffffff; stroke-opacity: 0.6; stroke-width: 0.339411"/>
    <path d="M 89.740021 77.916486 
L 93.982661 77.916486 
L 93.982661 73.673845 
L 89.740021 73.673845 
z
" clip-path="url(#pc4ac570341)" style="fill: #7bafde; fill-opacity: 0.6; stroke: #ffffff; stroke-opacity: 0.6; stroke-width: 0.339411"/>
    <path d="M 121.687022 64.548242 
L 125.929663 64.548242 
L 125.929663 60.305601 
L 121.687022 60.305601 
z
" clip-path="url(#pc4ac570341)" style="fill: #7bafde; fill-opacity: 0.6; stroke: #ffffff; stroke-opacity: 0.6; stroke-width: 0.339411"/>
    <path d="M 80.071178 84.736472 
L 84.313819 84.736472 
L 84.313819 80.493832 
L 80.071178 80.493832 
z
" clip-path="url(#pc4ac570341)" style="fill: #7bafde; fill-opacity: 0.6; stroke: #ffffff; stroke-opacity: 0.6; stroke-width: 0.339411"/>
    <path d="M 85.819751 85.458282 
L 90.062392 85.458282 
L 90.062392 81.215641 
L 85.819751 81.215641 
z
" clip-path="url(#pc4ac570341)" style="fill: #7bafde; fill-opacity: 0.6; stroke: #ffffff; stroke-opacity: 0.6; stroke-width: 0.339411"/>
    <path d="M 103.728966 77.096384 
L 107.971607 77.096384 
L 107.971607 72.853744 
L 103.728966 72.853744 
z
" clip-path="url(#pc4ac570341)" style="fill: #7bafde; fill-opacity: 0.6; stroke: #ffffff; stroke-opacity: 0.6; stroke-width: 0.339411"/>
    <path d="M 97.463987 58.140167 
L 101.706628 58.140167 
L 101.706628 53.897526 
L 97.463987 53.897526 
z
" clip-path="url(#pc4ac570341)" style="fill: #7bafde; fill-opacity: 0.6; stroke: #ffffff; stroke-opacity: 0.6; stroke-width: 0.339411"/>
    <path d="M 123.339156 69.029624 
L 127.581797 69.029624 
L 127.581797 64.786983 
L 123.339156 64.786983 
z
" clip-path="url(#pc4ac570341)" style="fill: #7bafde; fill-opacity: 0.6; stroke: #ffffff; stroke-opacity: 0.6; stroke-width: 0.339411"/>
    <path d="M 79.005137 90.795027 
L 83.247778 90.795027 
L 83.247778 86.552386 
L 79.005137 86.552386 
z
" clip-path="url(#pc4ac570341)" style="fill: #7bafde; fill-opacity: 0.6; stroke: #ffffff; stroke-opacity: 0.6; stroke-width: 0.339411"/>
    <path d="M 109.894261 60.154313 
L 114.136902 60.154313 
L 114.136902 55.911673 
L 109.894261 55.911673 
z
" clip-path="url(#pc4ac570341)" style="fill: #7bafde; fill-opacity: 0.6; stroke: #ffffff; stroke-opacity: 0.6; stroke-width: 0.339411"/>
    <path d="M 88.988527 85.977109 
L 93.231168 85.977109 
L 93.231168 81.734468 
L 88.988527 81.734468 
z
" clip-path="url(#pc4ac570341)" style="fill: #7bafde; fill-opacity: 0.6; stroke: #ffffff; stroke-opacity: 0.6; stroke-width: 0.339411"/>
    <path d="M 75.050208 100.086059 
L 79.292849 100.086059 
L 79.292849 95.843418 
L 75.050208 95.843418 
z
" clip-path="url(#pc4ac570341)" style="fill: #7bafde; fill-opacity: 0.6; stroke: #ffffff; stroke-opacity: 0.6; stroke-width: 0.339411"/>
    <path d="M 114.836331 78.035901 
L 119.078972 78.035901 
L 119.078972 73.79326 
L 114.836331 73.79326 
z
" clip-path="url(#pc4ac570341)" style="fill: #7bafde; fill-opacity: 0.6; stroke: #ffffff; stroke-opacity: 0.6; stroke-width: 0.339411"/>
    <path d="M 106.639089 48.005759 
L 110.881729 48.005759 
L 110.881729 43.763118 
L 106.639089 43.763118 
z
" clip-path="url(#pc4ac570341)" style="fill: #7bafde; fill-opacity: 0.6; stroke: #ffffff; stroke-opacity: 0.6; stroke-width: 0.339411"/>
    <path d="M 106.525151 60.288205 
L 110.767792 60.288205 
L 110.767792 56.045564 
L 106.525151 56.045564 
z
" clip-path="url(#pc4ac570341)" style="fill: #7bafde; fill-opacity: 0.6; stroke: #ffffff; stroke-opacity: 0.6; stroke-width: 0.339411"/>
    <path d="M 124.999773 67.789177 
L 129.242414 67.789177 
L 129.242414 63.546536 
L 124.999773 63.546536 
z
" clip-path="url(#pc4ac570341)" style="fill: #7bafde; fill-opacity: 0.6; stroke: #ffffff; stroke-opacity: 0.6; stroke-width: 0.339411"/>
    <path d="M 126.256409 64.780408 
L 130.49905 64.780408 
L 130.49905 60.537767 
L 126.256409 60.537767 
z
" clip-path="url(#pc4ac570341)" style="fill: #7bafde; fill-opacity: 0.6; stroke: #ffffff; stroke-opacity: 0.6; stroke-width: 0.339411"/>
    <path d="M 107.28981 59.216282 
L 111.53245 59.216282 
L 111.53245 54.973641 
L 107.28981 54.973641 
z
" clip-path="url(#pc4ac570341)" style="fill: #7bafde; fill-opacity: 0.6; stroke: #ffffff; stroke-opacity: 0.6; stroke-width: 0.339411"/>
    <path d="M 76.65496 93.528528 
L 80.897601 93.528528 
L 80.897601 89.285888 
L 76.65496 89.285888 
z
" clip-path="url(#pc4ac570341)" style="fill: #7bafde; fill-opacity: 0.6; stroke: #ffffff; stroke-opacity: 0.6; stroke-width: 0.339411"/>
    <path d="M 99.061276 64.548628 
L 103.303917 64.548628 
L 103.303917 60.305987 
L 99.061276 60.305987 
z
" clip-path="url(#pc4ac570341)" style="fill: #7bafde; fill-opacity: 0.6; stroke: #ffffff; stroke-opacity: 0.6; stroke-width: 0.339411"/>
    <path d="M 137.947875 48.774957 
L 142.190516 48.774957 
L 142.190516 44.532316 
L 137.947875 44.532316 
z
" clip-path="url(#pc4ac570341)" style="fill: #7bafde; fill-opacity: 0.6; stroke: #ffffff; stroke-opacity: 0.6; stroke-width: 0.339411"/>
    <path d="M 105.186864 46.155938 
L 109.429505 46.155938 
L 109.429505 41.913297 
L 105.186864 41.913297 
z
" clip-path="url(#pc4ac570341)" style="fill: #7bafde; fill-opacity: 0.6; stroke: #ffffff; stroke-opacity: 0.6; stroke-width: 0.339411"/>
    <path d="M 102.348263 61.656476 
L 106.590904 61.656476 
L 106.590904 57.413835 
L 102.348263 57.413835 
z
" clip-path="url(#pc4ac570341)" style="fill: #7bafde; fill-opacity: 0.6; stroke: #ffffff; stroke-opacity: 0.6; stroke-width: 0.339411"/>
    <path d="M 103.035585 70.560598 
L 104.096245 69.499938 
L 105.156906 70.560598 
L 106.217566 69.499938 
L 105.156906 68.439278 
L 106.217566 67.378617 
L 105.156906 66.317957 
L 104.096245 67.378617 
L 103.035585 66.317957 
L 101.974925 67.378617 
L 103.035585 68.439278 
L 101.974925 69.499938 
z
" clip-path="url(#pc4ac570341)" style="fill: #4eb265; fill-opacity: 0.6; stroke: #ffffff; stroke-opacity: 0.6; stroke-width: 0.339411"/>
    <path d="M 98.688174 71.881982 
L 99.748834 70.821322 
L 100.809494 71.881982 
L 101.870154 70.821322 
L 100.809494 69.760662 
L 101.870154 68.700002 
L 100.809494 67.639341 
L 99.748834 68.700002 
L 98.688174 67.639341 
L 97.627514 68.700002 
L 98.688174 69.760662 
L 97.627514 70.821322 
z
" clip-path="url(#pc4ac570341)" style="fill: #4eb265; fill-opacity: 0.6; stroke: #ffffff; stroke-opacity: 0.6; stroke-width: 0.339411"/>
    <path d="M 111.58291 66.795959 
L 112.64357 65.735298 
L 113.70423 66.795959 
L 114.76489 65.735298 
L 113.70423 64.674638 
L 114.76489 63.613978 
L 113.70423 62.553318 
L 112.64357 63.613978 
L 111.58291 62.553318 
L 110.522249 63.613978 
L 111.58291 64.674638 
L 110.522249 65.735298 
z
" clip-path="url(#pc4ac570341)" style="fill: #4eb265; fill-opacity: 0.6; stroke: #ffffff; stroke-opacity: 0.6; stroke-width: 0.339411"/>
    <path d="M 67.266936 83.897558 
L 68.327596 82.836898 
L 69.388256 83.897558 
L 70.448917 82.836898 
L 69.388256 81.776238 
L 70.448917 80.715578 
L 69.388256 79.654918 
L 68.327596 80.715578 
L 67.266936 79.654918 
L 66.206276 80.715578 
L 67.266936 81.776238 
L 66.206276 82.836898 
z
" clip-path="url(#pc4ac570341)" style="fill: #4eb265; fill-opacity: 0.6; stroke: #ffffff; stroke-opacity: 0.6; stroke-width: 0.339411"/>
    <path d="M 124.395795 51.463847 
L 125.456455 50.403187 
L 126.517115 51.463847 
L 127.577775 50.403187 
L 126.517115 49.342526 
L 127.577775 48.281866 
L 126.517115 47.221206 
L 125.456455 48.281866 
L 124.395795 47.221206 
L 123.335134 48.281866 
L 124.395795 49.342526 
L 123.335134 50.403187 
z
" clip-path="url(#pc4ac570341)" style="fill: #4eb265; fill-opacity: 0.6; stroke: #ffffff; stroke-opacity: 0.6; stroke-width: 0.339411"/>
    <path d="M 94.374647 58.023838 
L 95.435307 56.963178 
L 96.495967 58.023838 
L 97.556628 56.963178 
L 96.495967 55.902518 
L 97.556628 54.841858 
L 96.495967 53.781198 
L 95.435307 54.841858 
L 94.374647 53.781198 
L 93.313987 54.841858 
L 94.374647 55.902518 
L 93.313987 56.963178 
z
" clip-path="url(#pc4ac570341)" style="fill: #4eb265; fill-opacity: 0.6; stroke: #ffffff; stroke-opacity: 0.6; stroke-width: 0.339411"/>
    <path d="M 93.2947 58.312132 
L 94.35536 57.251472 
L 95.41602 58.312132 
L 96.47668 57.251472 
L 95.41602 56.190812 
L 96.47668 55.130152 
L 95.41602 54.069492 
L 94.35536 55.130152 
L 93.2947 54.069492 
L 92.23404 55.130152 
L 93.2947 56.190812 
L 92.23404 57.251472 
z
" clip-path="url(#pc4ac570341)" style="fill: #4eb265; fill-opacity: 0.6; stroke: #ffffff; stroke-opacity: 0.6; stroke-width: 0.339411"/>
    <path d="M 103.925064 83.664501 
L 104.985724 82.60384 
L 106.046385 83.664501 
L 107.107045 82.60384 
L 106.046385 81.54318 
L 107.107045 80.48252 
L 106.046385 79.42186 
L 104.985724 80.48252 
L 103.925064 79.42186 
L 102.864404 80.48252 
L 103.925064 81.54318 
L 102.864404 82.60384 
z
" clip-path="url(#pc4ac570341)" style="fill: #4eb265; fill-opacity: 0.6; stroke: #ffffff; stroke-opacity: 0.6; stroke-width: 0.339411"/>
    <path d="M 68.754338 85.449269 
L 69.814998 84.388608 
L 70.875658 85.449269 
L 71.936318 84.388608 
L 70.875658 83.327948 
L 71.936318 82.267288 
L 70.875658 81.206628 
L 69.814998 82.267288 
L 68.754338 81.206628 
L 67.693677 82.267288 
L 68.754338 83.327948 
L 67.693677 84.388608 
z
" clip-path="url(#pc4ac570341)" style="fill: #4eb265; fill-opacity: 0.6; stroke: #ffffff; stroke-opacity: 0.6; stroke-width: 0.339411"/>
    <path d="M 74.869494 98.754177 
L 75.930155 97.693516 
L 76.990815 98.754177 
L 78.051475 97.693516 
L 76.990815 96.632856 
L 78.051475 95.572196 
L 76.990815 94.511536 
L 75.930155 95.572196 
L 74.869494 94.511536 
L 73.808834 95.572196 
L 74.869494 96.632856 
L 73.808834 97.693516 
z
" clip-path="url(#pc4ac570341)" style="fill: #4eb265; fill-opacity: 0.6; stroke: #ffffff; stroke-opacity: 0.6; stroke-width: 0.339411"/>
    <path d="M 106.061974 69.526791 
L 107.122634 68.466131 
L 108.183294 69.526791 
L 109.243954 68.466131 
L 108.183294 67.405471 
L 109.243954 66.344811 
L 108.183294 65.284151 
L 107.122634 66.344811 
L 106.061974 65.284151 
L 105.001313 66.344811 
L 106.061974 67.405471 
L 105.001313 68.466131 
z
" clip-path="url(#pc4ac570341)" style="fill: #4eb265; fill-opacity: 0.6; stroke: #ffffff; stroke-opacity: 0.6; stroke-width: 0.339411"/>
    <path d="M 95.373981 57.021456 
L 96.434641 55.960796 
L 97.495301 57.021456 
L 98.555961 55.960796 
L 97.495301 54.900136 
L 98.555961 53.839476 
L 97.495301 52.778815 
L 96.434641 53.839476 
L 95.373981 52.778815 
L 94.313321 53.839476 
L 95.373981 54.900136 
L 94.313321 55.960796 
z
" clip-path="url(#pc4ac570341)" style="fill: #4eb265; fill-opacity: 0.6; stroke: #ffffff; stroke-opacity: 0.6; stroke-width: 0.339411"/>
    <path d="M 75.554297 93.396126 
L 76.614957 92.335466 
L 77.675617 93.396126 
L 78.736277 92.335466 
L 77.675617 91.274806 
L 78.736277 90.214145 
L 77.675617 89.153485 
L 76.614957 90.214145 
L 75.554297 89.153485 
L 74.493637 90.214145 
L 75.554297 91.274806 
L 74.493637 92.335466 
z
" clip-path="url(#pc4ac570341)" style="fill: #4eb265; fill-opacity: 0.6; stroke: #ffffff; stroke-opacity: 0.6; stroke-width: 0.339411"/>
    <path d="M 109.996923 63.667462 
L 111.057583 62.606802 
L 112.118243 63.667462 
L 113.178904 62.606802 
L 112.118243 61.546142 
L 113.178904 60.485481 
L 112.118243 59.424821 
L 111.057583 60.485481 
L 109.996923 59.424821 
L 108.936263 60.485481 
L 109.996923 61.546142 
L 108.936263 62.606802 
z
" clip-path="url(#pc4ac570341)" style="fill: #4eb265; fill-opacity: 0.6; stroke: #ffffff; stroke-opacity: 0.6; stroke-width: 0.339411"/>
    <path d="M 151.30715 53.162439 
L 152.36781 52.101779 
L 153.42847 53.162439 
L 154.48913 52.101779 
L 153.42847 51.041119 
L 154.48913 49.980459 
L 153.42847 48.919798 
L 152.36781 49.980459 
L 151.30715 48.919798 
L 150.24649 49.980459 
L 151.30715 51.041119 
L 150.24649 52.101779 
z
" clip-path="url(#pc4ac570341)" style="fill: #4eb265; fill-opacity: 0.6; stroke: #ffffff; stroke-opacity: 0.6; stroke-width: 0.339411"/>
    <path d="M 123.24051 63.008799 
L 124.301171 61.948139 
L 125.361831 63.008799 
L 126.422491 61.948139 
L 125.361831 60.887479 
L 126.422491 59.826819 
L 125.361831 58.766159 
L 124.301171 59.826819 
L 123.24051 58.766159 
L 122.17985 59.826819 
L 123.24051 60.887479 
L 122.17985 61.948139 
z
" clip-path="url(#pc4ac570341)" style="fill: #4eb265; fill-opacity: 0.6; stroke: #ffffff; stroke-opacity: 0.6; stroke-width: 0.339411"/>
    <path d="M 68.28857 87.421819 
L 69.34923 86.361159 
L 70.40989 87.421819 
L 71.47055 86.361159 
L 70.40989 85.300499 
L 71.47055 84.239839 
L 70.40989 83.179179 
L 69.34923 84.239839 
L 68.28857 83.179179 
L 67.227909 84.239839 
L 68.28857 85.300499 
L 67.227909 86.361159 
z
" clip-path="url(#pc4ac570341)" style="fill: #4eb265; fill-opacity: 0.6; stroke: #ffffff; stroke-opacity: 0.6; stroke-width: 0.339411"/>
    <path d="M 75.365928 101.194507 
L 76.426588 100.133847 
L 77.487248 101.194507 
L 78.547909 100.133847 
L 77.487248 99.073187 
L 78.547909 98.012527 
L 77.487248 96.951866 
L 76.426588 98.012527 
L 75.365928 96.951866 
L 74.305268 98.012527 
L 75.365928 99.073187 
L 74.305268 100.133847 
z
" clip-path="url(#pc4ac570341)" style="fill: #4eb265; fill-opacity: 0.6; stroke: #ffffff; stroke-opacity: 0.6; stroke-width: 0.339411"/>
    <path d="M 69.568204 101.30683 
L 70.628864 100.246169 
L 71.689524 101.30683 
L 72.750184 100.246169 
L 71.689524 99.185509 
L 72.750184 98.124849 
L 71.689524 97.064189 
L 70.628864 98.124849 
L 69.568204 97.064189 
L 68.507543 98.124849 
L 69.568204 99.185509 
L 68.507543 100.246169 
z
" clip-path="url(#pc4ac570341)" style="fill: #4eb265; fill-opacity: 0.6; stroke: #ffffff; stroke-opacity: 0.6; stroke-width: 0.339411"/>
    <path d="M 110.933608 70.477343 
L 111.994268 69.416683 
L 113.054929 70.477343 
L 114.115589 69.416683 
L 113.054929 68.356023 
L 114.115589 67.295363 
L 113.054929 66.234703 
L 111.994268 67.295363 
L 110.933608 66.234703 
L 109.872948 67.295363 
L 110.933608 68.356023 
L 109.872948 69.416683 
z
" clip-path="url(#pc4ac570341)" style="fill: #4eb265; fill-opacity: 0.6; stroke: #ffffff; stroke-opacity: 0.6; stroke-width: 0.339411"/>
    <path d="M 65.912488 97.543876 
L 66.973148 96.483215 
L 68.033809 97.543876 
L 69.094469 96.483215 
L 68.033809 95.422555 
L 69.094469 94.361895 
L 68.033809 93.301235 
L 66.973148 94.361895 
L 65.912488 93.301235 
L 64.851828 94.361895 
L 65.912488 95.422555 
L 64.851828 96.483215 
z
" clip-path="url(#pc4ac570341)" style="fill: #4eb265; fill-opacity: 0.6; stroke: #ffffff; stroke-opacity: 0.6; stroke-width: 0.339411"/>
    <path d="M 94.079405 61.423502 
L 95.140065 60.362842 
L 96.200725 61.423502 
L 97.261385 60.362842 
L 96.200725 59.302182 
L 97.261385 58.241521 
L 96.200725 57.180861 
L 95.140065 58.241521 
L 94.079405 57.180861 
L 93.018744 58.241521 
L 94.079405 59.302182 
L 93.018744 60.362842 
z
" clip-path="url(#pc4ac570341)" style="fill: #4eb265; fill-opacity: 0.6; stroke: #ffffff; stroke-opacity: 0.6; stroke-width: 0.339411"/>
    <path d="M 78.47424 79.639663 
L 79.5349 78.579003 
L 80.59556 79.639663 
L 81.65622 78.579003 
L 80.59556 77.518342 
L 81.65622 76.457682 
L 80.59556 75.397022 
L 79.5349 76.457682 
L 78.47424 75.397022 
L 77.413579 76.457682 
L 78.47424 77.518342 
L 77.413579 78.579003 
z
" clip-path="url(#pc4ac570341)" style="fill: #4eb265; fill-opacity: 0.6; stroke: #ffffff; stroke-opacity: 0.6; stroke-width: 0.339411"/>
    <path d="M 104.506096 47.237221 
L 105.566757 46.176561 
L 106.627417 47.237221 
L 107.688077 46.176561 
L 106.627417 45.1159 
L 107.688077 44.05524 
L 106.627417 42.99458 
L 105.566757 44.05524 
L 104.506096 42.99458 
L 103.445436 44.05524 
L 104.506096 45.1159 
L 103.445436 46.176561 
z
" clip-path="url(#pc4ac570341)" style="fill: #4eb265; fill-opacity: 0.6; stroke: #ffffff; stroke-opacity: 0.6; stroke-width: 0.339411"/>
    <path d="M 76.022084 79.143373 
L 77.082744 78.082713 
L 78.143404 79.143373 
L 79.204064 78.082713 
L 78.143404 77.022053 
L 79.204064 75.961393 
L 78.143404 74.900732 
L 77.082744 75.961393 
L 76.022084 74.900732 
L 74.961424 75.961393 
L 76.022084 77.022053 
L 74.961424 78.082713 
z
" clip-path="url(#pc4ac570341)" style="fill: #4eb265; fill-opacity: 0.6; stroke: #ffffff; stroke-opacity: 0.6; stroke-width: 0.339411"/>
    <path d="M 111.624134 75.958706 
L 112.684794 74.898046 
L 113.745454 75.958706 
L 114.806114 74.898046 
L 113.745454 73.837386 
L 114.806114 72.776726 
L 113.745454 71.716066 
L 112.684794 72.776726 
L 111.624134 71.716066 
L 110.563474 72.776726 
L 111.624134 73.837386 
L 110.563474 74.898046 
z
" clip-path="url(#pc4ac570341)" style="fill: #4eb265; fill-opacity: 0.6; stroke: #ffffff; stroke-opacity: 0.6; stroke-width: 0.339411"/>
    <path d="M 119.166443 65.253932 
L 120.227103 64.193272 
L 121.287763 65.253932 
L 122.348424 64.193272 
L 121.287763 63.132611 
L 122.348424 62.071951 
L 121.287763 61.011291 
L 120.227103 62.071951 
L 119.166443 61.011291 
L 118.105783 62.071951 
L 119.166443 63.132611 
L 118.105783 64.193272 
z
" clip-path="url(#pc4ac570341)" style="fill: #4eb265; fill-opacity: 0.6; stroke: #ffffff; stroke-opacity: 0.6; stroke-width: 0.339411"/>
    <path d="M 102.627113 67.934191 
L 103.687773 66.873531 
L 104.748433 67.934191 
L 105.809094 66.873531 
L 104.748433 65.812871 
L 105.809094 64.752211 
L 104.748433 63.691551 
L 103.687773 64.752211 
L 102.627113 63.691551 
L 101.566453 64.752211 
L 102.627113 65.812871 
L 101.566453 66.873531 
z
" clip-path="url(#pc4ac570341)" style="fill: #4eb265; fill-opacity: 0.6; stroke: #ffffff; stroke-opacity: 0.6; stroke-width: 0.339411"/>
    <path d="M 97.974749 56.009144 
L 99.035409 54.948484 
L 100.096069 56.009144 
L 101.156729 54.948484 
L 100.096069 53.887824 
L 101.156729 52.827164 
L 100.096069 51.766504 
L 99.035409 52.827164 
L 97.974749 51.766504 
L 96.914089 52.827164 
L 97.974749 53.887824 
L 96.914089 54.948484 
z
" clip-path="url(#pc4ac570341)" style="fill: #4eb265; fill-opacity: 0.6; stroke: #ffffff; stroke-opacity: 0.6; stroke-width: 0.339411"/>
    <path d="M 91.189511 87.565819 
L 92.250171 86.505159 
L 93.310831 87.565819 
L 94.371491 86.505159 
L 93.310831 85.444498 
L 94.371491 84.383838 
L 93.310831 83.323178 
L 92.250171 84.383838 
L 91.189511 83.323178 
L 90.12885 84.383838 
L 91.189511 85.444498 
L 90.12885 86.505159 
z
" clip-path="url(#pc4ac570341)" style="fill: #4eb265; fill-opacity: 0.6; stroke: #ffffff; stroke-opacity: 0.6; stroke-width: 0.339411"/>
    <path d="M 92.578292 68.382632 
L 93.638952 67.321972 
L 94.699612 68.382632 
L 95.760272 67.321972 
L 94.699612 66.261312 
L 95.760272 65.200652 
L 94.699612 64.139991 
L 93.638952 65.200652 
L 92.578292 64.139991 
L 91.517631 65.200652 
L 92.578292 66.261312 
L 91.517631 67.321972 
z
" clip-path="url(#pc4ac570341)" style="fill: #4eb265; fill-opacity: 0.6; stroke: #ffffff; stroke-opacity: 0.6; stroke-width: 0.339411"/>
    <path d="M 114.251966 52.415108 
L 115.312626 51.354448 
L 116.373286 52.415108 
L 117.433946 51.354448 
L 116.373286 50.293788 
L 117.433946 49.233127 
L 116.373286 48.172467 
L 115.312626 49.233127 
L 114.251966 48.172467 
L 113.191305 49.233127 
L 114.251966 50.293788 
L 113.191305 51.354448 
z
" clip-path="url(#pc4ac570341)" style="fill: #4eb265; fill-opacity: 0.6; stroke: #ffffff; stroke-opacity: 0.6; stroke-width: 0.339411"/>
    <path d="M 104.246025 51.250233 
L 105.306685 50.189573 
L 106.367346 51.250233 
L 107.428006 50.189573 
L 106.367346 49.128913 
L 107.428006 48.068253 
L 106.367346 47.007593 
L 105.306685 48.068253 
L 104.246025 47.007593 
L 103.185365 48.068253 
L 104.246025 49.128913 
L 103.185365 50.189573 
z
" clip-path="url(#pc4ac570341)" style="fill: #4eb265; fill-opacity: 0.6; stroke: #ffffff; stroke-opacity: 0.6; stroke-width: 0.339411"/>
    <path d="M 108.067557 65.55311 
L 109.128218 64.49245 
L 110.188878 65.55311 
L 111.249538 64.49245 
L 110.188878 63.43179 
L 111.249538 62.37113 
L 110.188878 61.310469 
L 109.128218 62.37113 
L 108.067557 61.310469 
L 107.006897 62.37113 
L 108.067557 63.43179 
L 107.006897 64.49245 
z
" clip-path="url(#pc4ac570341)" style="fill: #4eb265; fill-opacity: 0.6; stroke: #ffffff; stroke-opacity: 0.6; stroke-width: 0.339411"/>
    <path d="M 76.825978 89.266441 
L 77.886639 88.20578 
L 78.947299 89.266441 
L 80.007959 88.20578 
L 78.947299 87.14512 
L 80.007959 86.08446 
L 78.947299 85.0238 
L 77.886639 86.08446 
L 76.825978 85.0238 
L 75.765318 86.08446 
L 76.825978 87.14512 
L 75.765318 88.20578 
z
" clip-path="url(#pc4ac570341)" style="fill: #4eb265; fill-opacity: 0.6; stroke: #ffffff; stroke-opacity: 0.6; stroke-width: 0.339411"/>
    <path d="M 133.430808 47.904605 
L 134.491468 46.843945 
L 135.552128 47.904605 
L 136.612788 46.843945 
L 135.552128 45.783285 
L 136.612788 44.722624 
L 135.552128 43.661964 
L 134.491468 44.722624 
L 133.430808 43.661964 
L 132.370148 44.722624 
L 133.430808 45.783285 
L 132.370148 46.843945 
z
" clip-path="url(#pc4ac570341)" style="fill: #4eb265; fill-opacity: 0.6; stroke: #ffffff; stroke-opacity: 0.6; stroke-width: 0.339411"/>
    <path d="M 118.794836 52.939121 
L 119.855496 51.878461 
L 120.916156 52.939121 
L 121.976816 51.878461 
L 120.916156 50.817801 
L 121.976816 49.757141 
L 120.916156 48.69648 
L 119.855496 49.757141 
L 118.794836 48.69648 
L 117.734176 49.757141 
L 118.794836 50.817801 
L 117.734176 51.878461 
z
" clip-path="url(#pc4ac570341)" style="fill: #4eb265; fill-opacity: 0.6; stroke: #ffffff; stroke-opacity: 0.6; stroke-width: 0.339411"/>
    <path d="M 69.244595 101.92139 
L 70.305256 100.86073 
L 71.365916 101.92139 
L 72.426576 100.86073 
L 71.365916 99.800069 
L 72.426576 98.739409 
L 71.365916 97.678749 
L 70.305256 98.739409 
L 69.244595 97.678749 
L 68.183935 98.739409 
L 69.244595 99.800069 
L 68.183935 100.86073 
z
" clip-path="url(#pc4ac570341)" style="fill: #4eb265; fill-opacity: 0.6; stroke: #ffffff; stroke-opacity: 0.6; stroke-width: 0.339411"/>
    <path d="M 107.116533 47.568905 
L 108.177193 46.508244 
L 109.237854 47.568905 
L 110.298514 46.508244 
L 109.237854 45.447584 
L 110.298514 44.386924 
L 109.237854 43.326264 
L 108.177193 44.386924 
L 107.116533 43.326264 
L 106.055873 44.386924 
L 107.116533 45.447584 
L 106.055873 46.508244 
z
" clip-path="url(#pc4ac570341)" style="fill: #4eb265; fill-opacity: 0.6; stroke: #ffffff; stroke-opacity: 0.6; stroke-width: 0.339411"/>
    <path d="M 96.377378 54.253862 
L 97.438038 53.193202 
L 98.498698 54.253862 
L 99.559358 53.193202 
L 98.498698 52.132542 
L 99.559358 51.071882 
L 98.498698 50.011222 
L 97.438038 51.071882 
L 96.377378 50.011222 
L 95.316718 51.071882 
L 96.377378 52.132542 
L 95.316718 53.193202 
z
" clip-path="url(#pc4ac570341)" style="fill: #4eb265; fill-opacity: 0.6; stroke: #ffffff; stroke-opacity: 0.6; stroke-width: 0.339411"/>
    <path d="M 75.999659 84.984263 
L 77.060319 83.923602 
L 78.120979 84.984263 
L 79.181639 83.923602 
L 78.120979 82.862942 
L 79.181639 81.802282 
L 78.120979 80.741622 
L 77.060319 81.802282 
L 75.999659 80.741622 
L 74.938998 81.802282 
L 75.999659 82.862942 
L 74.938998 83.923602 
z
" clip-path="url(#pc4ac570341)" style="fill: #4eb265; fill-opacity: 0.6; stroke: #ffffff; stroke-opacity: 0.6; stroke-width: 0.339411"/>
    <path d="M 66.884377 84.309417 
L 67.945037 83.248757 
L 69.005697 84.309417 
L 70.066357 83.248757 
L 69.005697 82.188097 
L 70.066357 81.127437 
L 69.005697 80.066777 
L 67.945037 81.127437 
L 66.884377 80.066777 
L 65.823717 81.127437 
L 66.884377 82.188097 
L 65.823717 83.248757 
z
" clip-path="url(#pc4ac570341)" style="fill: #4eb265; fill-opacity: 0.6; stroke: #ffffff; stroke-opacity: 0.6; stroke-width: 0.339411"/>
    <path d="M 106.476054 61.108973 
L 107.536715 60.048313 
L 108.597375 61.108973 
L 109.658035 60.048313 
L 108.597375 58.987653 
L 109.658035 57.926993 
L 108.597375 56.866333 
L 107.536715 57.926993 
L 106.476054 56.866333 
L 105.415394 57.926993 
L 106.476054 58.987653 
L 105.415394 60.048313 
z
" clip-path="url(#pc4ac570341)" style="fill: #4eb265; fill-opacity: 0.6; stroke: #ffffff; stroke-opacity: 0.6; stroke-width: 0.339411"/>
    <path d="M 104.345018 60.094379 
L 105.405678 59.033719 
L 106.466339 60.094379 
L 107.526999 59.033719 
L 106.466339 57.973059 
L 107.526999 56.912399 
L 106.466339 55.851739 
L 105.405678 56.912399 
L 104.345018 55.851739 
L 103.284358 56.912399 
L 104.345018 57.973059 
L 103.284358 59.033719 
z
" clip-path="url(#pc4ac570341)" style="fill: #4eb265; fill-opacity: 0.6; stroke: #ffffff; stroke-opacity: 0.6; stroke-width: 0.339411"/>
    <path d="M 103.863649 67.102615 
L 104.924309 66.041955 
L 105.984969 67.102615 
L 107.045629 66.041955 
L 105.984969 64.981295 
L 107.045629 63.920635 
L 105.984969 62.859975 
L 104.924309 63.920635 
L 103.863649 62.859975 
L 102.802988 63.920635 
L 103.863649 64.981295 
L 102.802988 66.041955 
z
" clip-path="url(#pc4ac570341)" style="fill: #4eb265; fill-opacity: 0.6; stroke: #ffffff; stroke-opacity: 0.6; stroke-width: 0.339411"/>
    <path d="M 70.925011 94.76775 
L 71.985671 93.70709 
L 73.046331 94.76775 
L 74.106991 93.70709 
L 73.046331 92.64643 
L 74.106991 91.585769 
L 73.046331 90.525109 
L 71.985671 91.585769 
L 70.925011 90.525109 
L 69.864351 91.585769 
L 70.925011 92.64643 
L 69.864351 93.70709 
z
" clip-path="url(#pc4ac570341)" style="fill: #4eb265; fill-opacity: 0.6; stroke: #ffffff; stroke-opacity: 0.6; stroke-width: 0.339411"/>
    <path d="M 87.421897 96.963415 
L 88.482558 95.902755 
L 89.543218 96.963415 
L 90.603878 95.902755 
L 89.543218 94.842095 
L 90.603878 93.781435 
L 89.543218 92.720774 
L 88.482558 93.781435 
L 87.421897 92.720774 
L 86.361237 93.781435 
L 87.421897 94.842095 
L 86.361237 95.902755 
z
" clip-path="url(#pc4ac570341)" style="fill: #4eb265; fill-opacity: 0.6; stroke: #ffffff; stroke-opacity: 0.6; stroke-width: 0.339411"/>
    <path d="M 87.811301 79.820237 
L 88.871962 78.759577 
L 89.932622 79.820237 
L 90.993282 78.759577 
L 89.932622 77.698917 
L 90.993282 76.638257 
L 89.932622 75.577596 
L 88.871962 76.638257 
L 87.811301 75.577596 
L 86.750641 76.638257 
L 87.811301 77.698917 
L 86.750641 78.759577 
z
" clip-path="url(#pc4ac570341)" style="fill: #4eb265; fill-opacity: 0.6; stroke: #ffffff; stroke-opacity: 0.6; stroke-width: 0.339411"/>
    <path d="M 71.329616 105.024989 
L 72.390276 103.964329 
L 73.450936 105.024989 
L 74.511597 103.964329 
L 73.450936 102.903669 
L 74.511597 101.843009 
L 73.450936 100.782349 
L 72.390276 101.843009 
L 71.329616 100.782349 
L 70.268956 101.843009 
L 71.329616 102.903669 
L 70.268956 103.964329 
z
" clip-path="url(#pc4ac570341)" style="fill: #4eb265; fill-opacity: 0.6; stroke: #ffffff; stroke-opacity: 0.6; stroke-width: 0.339411"/>
    <path d="M 95.7308 71.635393 
L 96.79146 70.574732 
L 97.85212 71.635393 
L 98.91278 70.574732 
L 97.85212 69.514072 
L 98.91278 68.453412 
L 97.85212 67.392752 
L 96.79146 68.453412 
L 95.7308 67.392752 
L 94.670139 68.453412 
L 95.7308 69.514072 
L 94.670139 70.574732 
z
" clip-path="url(#pc4ac570341)" style="fill: #4eb265; fill-opacity: 0.6; stroke: #ffffff; stroke-opacity: 0.6; stroke-width: 0.339411"/>
    <path d="M 76.869976 81.066397 
L 77.930636 80.005736 
L 78.991296 81.066397 
L 80.051956 80.005736 
L 78.991296 78.945076 
L 80.051956 77.884416 
L 78.991296 76.823756 
L 77.930636 77.884416 
L 76.869976 76.823756 
L 75.809315 77.884416 
L 76.869976 78.945076 
L 75.809315 80.005736 
z
" clip-path="url(#pc4ac570341)" style="fill: #4eb265; fill-opacity: 0.6; stroke: #ffffff; stroke-opacity: 0.6; stroke-width: 0.339411"/>
    <path d="M 130.487125 53.514431 
L 131.547785 52.453771 
L 132.608445 53.514431 
L 133.669106 52.453771 
L 132.608445 51.393111 
L 133.669106 50.33245 
L 132.608445 49.27179 
L 131.547785 50.33245 
L 130.487125 49.27179 
L 129.426465 50.33245 
L 130.487125 51.393111 
L 129.426465 52.453771 
z
" clip-path="url(#pc4ac570341)" style="fill: #4eb265; fill-opacity: 0.6; stroke: #ffffff; stroke-opacity: 0.6; stroke-width: 0.339411"/>
    <path d="M 116.496737 50.724043 
L 117.557397 49.663383 
L 118.618057 50.724043 
L 119.678718 49.663383 
L 118.618057 48.602723 
L 119.678718 47.542063 
L 118.618057 46.481403 
L 117.557397 47.542063 
L 116.496737 46.481403 
L 115.436077 47.542063 
L 116.496737 48.602723 
L 115.436077 49.663383 
z
" clip-path="url(#pc4ac570341)" style="fill: #4eb265; fill-opacity: 0.6; stroke: #ffffff; stroke-opacity: 0.6; stroke-width: 0.339411"/>
    <path d="M 75.472426 95.730812 
L 76.533086 94.670152 
L 77.593746 95.730812 
L 78.654406 94.670152 
L 77.593746 93.609491 
L 78.654406 92.548831 
L 77.593746 91.488171 
L 76.533086 92.548831 
L 75.472426 91.488171 
L 74.411766 92.548831 
L 75.472426 93.609491 
L 74.411766 94.670152 
z
" clip-path="url(#pc4ac570341)" style="fill: #4eb265; fill-opacity: 0.6; stroke: #ffffff; stroke-opacity: 0.6; stroke-width: 0.339411"/>
    <path d="M 73.325385 102.526867 
L 74.386046 101.466207 
L 75.446706 102.526867 
L 76.507366 101.466207 
L 75.446706 100.405546 
L 76.507366 99.344886 
L 75.446706 98.284226 
L 74.386046 99.344886 
L 73.325385 98.284226 
L 72.264725 99.344886 
L 73.325385 100.405546 
L 72.264725 101.466207 
z
" clip-path="url(#pc4ac570341)" style="fill: #4eb265; fill-opacity: 0.6; stroke: #ffffff; stroke-opacity: 0.6; stroke-width: 0.339411"/>
    <path d="M 109.37771 44.076507 
L 110.43837 43.015846 
L 111.499031 44.076507 
L 112.559691 43.015846 
L 111.499031 41.955186 
L 112.559691 40.894526 
L 111.499031 39.833866 
L 110.43837 40.894526 
L 109.37771 39.833866 
L 108.31705 40.894526 
L 109.37771 41.955186 
L 108.31705 43.015846 
z
" clip-path="url(#pc4ac570341)" style="fill: #4eb265; fill-opacity: 0.6; stroke: #ffffff; stroke-opacity: 0.6; stroke-width: 0.339411"/>
    <path d="M 124.183635 72.284379 
L 125.244295 71.223719 
L 126.304955 72.284379 
L 127.365615 71.223719 
L 126.304955 70.163058 
L 127.365615 69.102398 
L 126.304955 68.041738 
L 125.244295 69.102398 
L 124.183635 68.041738 
L 123.122974 69.102398 
L 124.183635 70.163058 
L 123.122974 71.223719 
z
" clip-path="url(#pc4ac570341)" style="fill: #4eb265; fill-opacity: 0.6; stroke: #ffffff; stroke-opacity: 0.6; stroke-width: 0.339411"/>
    <path d="M 120.368318 68.051292 
L 121.428978 66.990632 
L 122.489639 68.051292 
L 123.550299 66.990632 
L 122.489639 65.929972 
L 123.550299 64.869312 
L 122.489639 63.808652 
L 121.428978 64.869312 
L 120.368318 63.808652 
L 119.307658 64.869312 
L 120.368318 65.929972 
L 119.307658 66.990632 
z
" clip-path="url(#pc4ac570341)" style="fill: #4eb265; fill-opacity: 0.6; stroke: #ffffff; stroke-opacity: 0.6; stroke-width: 0.339411"/>
    <path d="M 91.492962 72.121044 
L 92.553622 71.060384 
L 93.614282 72.121044 
L 94.674942 71.060384 
L 93.614282 69.999723 
L 94.674942 68.939063 
L 93.614282 67.878403 
L 92.553622 68.939063 
L 91.492962 67.878403 
L 90.432302 68.939063 
L 91.492962 69.999723 
L 90.432302 71.060384 
z
" clip-path="url(#pc4ac570341)" style="fill: #4eb265; fill-opacity: 0.6; stroke: #ffffff; stroke-opacity: 0.6; stroke-width: 0.339411"/>
    <path d="M 65.936922 89.327115 
L 66.997582 88.266455 
L 68.058242 89.327115 
L 69.118902 88.266455 
L 68.058242 87.205795 
L 69.118902 86.145135 
L 68.058242 85.084475 
L 66.997582 86.145135 
L 65.936922 85.084475 
L 64.876262 86.145135 
L 65.936922 87.205795 
L 64.876262 88.266455 
z
" clip-path="url(#pc4ac570341)" style="fill: #4eb265; fill-opacity: 0.6; stroke: #ffffff; stroke-opacity: 0.6; stroke-width: 0.339411"/>
    <path d="M 126.714967 57.252056 
L 127.775627 56.191396 
L 128.836287 57.252056 
L 129.896947 56.191396 
L 128.836287 55.130736 
L 129.896947 54.070076 
L 128.836287 53.009415 
L 127.775627 54.070076 
L 126.714967 53.009415 
L 125.654307 54.070076 
L 126.714967 55.130736 
L 125.654307 56.191396 
z
" clip-path="url(#pc4ac570341)" style="fill: #4eb265; fill-opacity: 0.6; stroke: #ffffff; stroke-opacity: 0.6; stroke-width: 0.339411"/>
    <path d="M 120.768073 67.127656 
L 121.828733 66.066996 
L 122.889393 67.127656 
L 123.950053 66.066996 
L 122.889393 65.006336 
L 123.950053 63.945676 
L 122.889393 62.885016 
L 121.828733 63.945676 
L 120.768073 62.885016 
L 119.707413 63.945676 
L 120.768073 65.006336 
L 119.707413 66.066996 
z
" clip-path="url(#pc4ac570341)" style="fill: #4eb265; fill-opacity: 0.6; stroke: #ffffff; stroke-opacity: 0.6; stroke-width: 0.339411"/>
    <path d="M 129.945658 49.939319 
L 131.006319 48.878659 
L 132.066979 49.939319 
L 133.127639 48.878659 
L 132.066979 47.817999 
L 133.127639 46.757339 
L 132.066979 45.696678 
L 131.006319 46.757339 
L 129.945658 45.696678 
L 128.884998 46.757339 
L 129.945658 47.817999 
L 128.884998 48.878659 
z
" clip-path="url(#pc4ac570341)" style="fill: #4eb265; fill-opacity: 0.6; stroke: #ffffff; stroke-opacity: 0.6; stroke-width: 0.339411"/>
    <path d="M 100.165132 74.783586 
L 101.225793 73.722926 
L 102.286453 74.783586 
L 103.347113 73.722926 
L 102.286453 72.662266 
L 103.347113 71.601606 
L 102.286453 70.540946 
L 101.225793 71.601606 
L 100.165132 70.540946 
L 99.104472 71.601606 
L 100.165132 72.662266 
L 99.104472 73.722926 
z
" clip-path="url(#pc4ac570341)" style="fill: #4eb265; fill-opacity: 0.6; stroke: #ffffff; stroke-opacity: 0.6; stroke-width: 0.339411"/>
   </g>
   <g id="matplotlib.axis_1">
    <g id="xtick_1">
     <g id="line2d_1">
      <defs>
       <path id="mebbe495339" d="M 0 0 
L 0 8 
" style="stroke: #000000"/>
      </defs>
      <g>
       <use xlink:href="#mebbe495339" x="109.00445" y="188.936063" style="stroke: #000000"/>
      </g>
     </g>
     <g id="text_1">
      <!-- 0 -->
      <g transform="translate(105.18695 209.554188) scale(0.12 -0.12)">
       <defs>
        <path id="DejaVuSans-30" d="M 2034 4250 
Q 1547 4250 1301 3770 
Q 1056 3291 1056 2328 
Q 1056 1369 1301 889 
Q 1547 409 2034 409 
Q 2525 409 2770 889 
Q 3016 1369 3016 2328 
Q 3016 3291 2770 3770 
Q 2525 4250 2034 4250 
z
M 2034 4750 
Q 2819 4750 3233 4129 
Q 3647 3509 3647 2328 
Q 3647 1150 3233 529 
Q 2819 -91 2034 -91 
Q 1250 -91 836 529 
Q 422 1150 422 2328 
Q 422 3509 836 4129 
Q 1250 4750 2034 4750 
z
" transform="scale(0.015625)"/>
       </defs>
       <use xlink:href="#DejaVuSans-30"/>
      </g>
     </g>
    </g>
    <g id="xtick_2">
     <g id="line2d_2">
      <g>
       <use xlink:href="#mebbe495339" x="182.636922" y="188.936063" style="stroke: #000000"/>
      </g>
     </g>
     <g id="text_2">
      <!-- 10 -->
      <g transform="translate(175.001922 209.554188) scale(0.12 -0.12)">
       <defs>
        <path id="DejaVuSans-31" d="M 794 531 
L 1825 531 
L 1825 4091 
L 703 3866 
L 703 4441 
L 1819 4666 
L 2450 4666 
L 2450 531 
L 3481 531 
L 3481 0 
L 794 0 
L 794 531 
z
" transform="scale(0.015625)"/>
       </defs>
       <use xlink:href="#DejaVuSans-31"/>
       <use xlink:href="#DejaVuSans-30" x="63.623047"/>
      </g>
     </g>
    </g>
    <g id="text_3">
     <!-- UMAP 1 -->
     <g transform="translate(117.956572 225.167938) scale(0.12 -0.12)">
      <defs>
       <path id="DejaVuSans-55" d="M 556 4666 
L 1191 4666 
L 1191 1831 
Q 1191 1081 1462 751 
Q 1734 422 2344 422 
Q 2950 422 3222 751 
Q 3494 1081 3494 1831 
L 3494 4666 
L 4128 4666 
L 4128 1753 
Q 4128 841 3676 375 
Q 3225 -91 2344 -91 
Q 1459 -91 1007 375 
Q 556 841 556 1753 
L 556 4666 
z
" transform="scale(0.015625)"/>
       <path id="DejaVuSans-4d" d="M 628 4666 
L 1569 4666 
L 2759 1491 
L 3956 4666 
L 4897 4666 
L 4897 0 
L 4281 0 
L 4281 4097 
L 3078 897 
L 2444 897 
L 1241 4097 
L 1241 0 
L 628 0 
L 628 4666 
z
" transform="scale(0.015625)"/>
       <path id="DejaVuSans-41" d="M 2188 4044 
L 1331 1722 
L 3047 1722 
L 2188 4044 
z
M 1831 4666 
L 2547 4666 
L 4325 0 
L 3669 0 
L 3244 1197 
L 1141 1197 
L 716 0 
L 50 0 
L 1831 4666 
z
" transform="scale(0.015625)"/>
       <path id="DejaVuSans-50" d="M 1259 4147 
L 1259 2394 
L 2053 2394 
Q 2494 2394 2734 2622 
Q 2975 2850 2975 3272 
Q 2975 3691 2734 3919 
Q 2494 4147 2053 4147 
L 1259 4147 
z
M 628 4666 
L 2053 4666 
Q 2838 4666 3239 4311 
Q 3641 3956 3641 3272 
Q 3641 2581 3239 2228 
Q 2838 1875 2053 1875 
L 1259 1875 
L 1259 0 
L 628 0 
L 628 4666 
z
" transform="scale(0.015625)"/>
       <path id="DejaVuSans-20" transform="scale(0.015625)"/>
      </defs>
      <use xlink:href="#DejaVuSans-55"/>
      <use xlink:href="#DejaVuSans-4d" x="73.193359"/>
      <use xlink:href="#DejaVuSans-41" x="159.472656"/>
      <use xlink:href="#DejaVuSans-50" x="227.880859"/>
      <use xlink:href="#DejaVuSans-20" x="288.183594"/>
      <use xlink:href="#DejaVuSans-31" x="319.970703"/>
     </g>
    </g>
   </g>
   <g id="matplotlib.axis_2">
    <g id="ytick_1">
     <g id="line2d_3">
      <defs>
       <path id="mb49c74cabc" d="M 0 0 
L -8 0 
" style="stroke: #000000"/>
      </defs>
      <g>
       <use xlink:href="#mb49c74cabc" x="53.957638" y="133.88925" style="stroke: #000000"/>
      </g>
     </g>
     <g id="text_4">
      <!-- 0 -->
      <g transform="translate(34.822638 138.448313) scale(0.12 -0.12)">
       <use xlink:href="#DejaVuSans-30"/>
      </g>
     </g>
    </g>
    <g id="ytick_2">
     <g id="line2d_4">
      <g>
       <use xlink:href="#mb49c74cabc" x="53.957638" y="60.256778" style="stroke: #000000"/>
      </g>
     </g>
     <g id="text_5">
      <!-- 10 -->
      <g transform="translate(27.187638 64.815841) scale(0.12 -0.12)">
       <use xlink:href="#DejaVuSans-31"/>
       <use xlink:href="#DejaVuSans-30" x="63.623047"/>
      </g>
     </g>
    </g>
    <g id="text_6">
     <!-- UMAP 2 -->
     <g transform="translate(20.692013 124.937128) rotate(-90) scale(0.12 -0.12)">
      <defs>
       <path id="DejaVuSans-32" d="M 1228 531 
L 3431 531 
L 3431 0 
L 469 0 
L 469 531 
Q 828 903 1448 1529 
Q 2069 2156 2228 2338 
Q 2531 2678 2651 2914 
Q 2772 3150 2772 3378 
Q 2772 3750 2511 3984 
Q 2250 4219 1831 4219 
Q 1534 4219 1204 4116 
Q 875 4013 500 3803 
L 500 4441 
Q 881 4594 1212 4672 
Q 1544 4750 1819 4750 
Q 2544 4750 2975 4387 
Q 3406 4025 3406 3419 
Q 3406 3131 3298 2873 
Q 3191 2616 2906 2266 
Q 2828 2175 2409 1742 
Q 1991 1309 1228 531 
z
" transform="scale(0.015625)"/>
      </defs>
      <use xlink:href="#DejaVuSans-55"/>
      <use xlink:href="#DejaVuSans-4d" x="73.193359"/>
      <use xlink:href="#DejaVuSans-41" x="159.472656"/>
      <use xlink:href="#DejaVuSans-50" x="227.880859"/>
      <use xlink:href="#DejaVuSans-20" x="288.183594"/>
      <use xlink:href="#DejaVuSans-32" x="319.970703"/>
     </g>
    </g>
   </g>
   <g id="patch_3">
    <path d="M 53.957638 188.936063 
L 53.957638 14.908819 
" style="fill: none; stroke: #000000; stroke-width: 2; stroke-linejoin: miter; stroke-linecap: square"/>
   </g>
   <g id="patch_4">
    <path d="M 53.957638 188.936063 
L 227.984882 188.936063 
" style="fill: none; stroke: #000000; stroke-width: 2; stroke-linejoin: miter; stroke-linecap: square"/>
   </g>
  </g>
 </g>
 <defs>
  <clipPath id="pc4ac570341">
   <rect x="53.957638" y="14.908819" width="174.027244" height="174.027244"/>
  </clipPath>
 </defs>
</svg>
