<?xml version="1.0" encoding="utf-8" standalone="no"?>
<!DOCTYPE svg PUBLIC "-//W3C//DTD SVG 1.1//EN"
  "http://www.w3.org/Graphics/SVG/1.1/DTD/svg11.dtd">
<svg xmlns:xlink="http://www.w3.org/1999/xlink" width="240.944882pt" height="240.944882pt" viewBox="0 0 240.944882 240.944882" xmlns="http://www.w3.org/2000/svg" version="1.1">
 <metadata>
  <rdf:RDF xmlns:dc="http://purl.org/dc/elements/1.1/" xmlns:cc="http://creativecommons.org/ns#" xmlns:rdf="http://www.w3.org/1999/02/22-rdf-syntax-ns#">
   <cc:Work>
    <dc:type rdf:resource="http://purl.org/dc/dcmitype/StillImage"/>
    <dc:date>2025-02-24T15:42:03.085862</dc:date>
    <dc:format>image/svg+xml</dc:format>
    <dc:creator>
     <cc:Agent>
      <dc:title>Matplotlib v3.6.2, https://matplotlib.org/</dc:title>
     </cc:Agent>
    </dc:creator>
   </cc:Work>
  </rdf:RDF>
 </metadata>
 <defs>
  <style type="text/css">*{stroke-linejoin: round; stroke-linecap: butt}</style>
 </defs>
 <g id="figure_1">
  <g id="patch_1">
   <path d="M 0 240.944882 
L 240.944882 240.944882 
L 240.944882 0 
L 0 0 
L 0 240.944882 
z
" style="fill: none"/>
  </g>
  <g id="axes_1">
   <g id="patch_2">
    <path d="M 64.037638 182.532244 
L 222.990754 182.532244 
L 222.990754 23.579128 
L 64.037638 23.579128 
L 64.037638 182.532244 
z
" style="fill: none"/>
   </g>
   <g id="PathCollection_1">
    <path d="M 153.27035 101.056227 
L 155.07035 98.056227 
L 153.27035 95.056227 
L 151.47035 98.056227 
z
" clip-path="url(#p00e158d11a)" style="fill: #332288; fill-opacity: 0.6; stroke: #ffffff; stroke-opacity: 0.6; stroke-width: 0.339411"/>
    <path d="M 147.222477 108.274607 
L 149.022477 105.274607 
L 147.222477 102.274607 
L 145.422477 105.274607 
z
" clip-path="url(#p00e158d11a)" style="fill: #332288; fill-opacity: 0.6; stroke: #ffffff; stroke-opacity: 0.6; stroke-width: 0.339411"/>
    <path d="M 152.985403 153.897413 
L 154.785403 150.897413 
L 152.985403 147.897413 
L 151.185403 150.897413 
z
" clip-path="url(#p00e158d11a)" style="fill: #332288; fill-opacity: 0.6; stroke: #ffffff; stroke-opacity: 0.6; stroke-width: 0.339411"/>
    <path d="M 147.222477 108.274607 
L 149.022477 105.274607 
L 147.222477 102.274607 
L 145.422477 105.274607 
z
" clip-path="url(#p00e158d11a)" style="fill: #332288; fill-opacity: 0.6; stroke: #ffffff; stroke-opacity: 0.6; stroke-width: 0.339411"/>
    <path d="M 155.041111 142.589709 
L 156.841111 139.589709 
L 155.041111 136.589709 
L 153.241111 139.589709 
z
" clip-path="url(#p00e158d11a)" style="fill: #332288; fill-opacity: 0.6; stroke: #ffffff; stroke-opacity: 0.6; stroke-width: 0.339411"/>
    <path d="M 149.019206 125.179131 
L 150.819206 122.179131 
L 149.019206 119.179131 
L 147.219206 122.179131 
z
" clip-path="url(#p00e158d11a)" style="fill: #332288; fill-opacity: 0.6; stroke: #ffffff; stroke-opacity: 0.6; stroke-width: 0.339411"/>
    <path d="M 151.36224 150.29241 
L 153.16224 147.29241 
L 151.36224 144.29241 
L 149.56224 147.29241 
z
" clip-path="url(#p00e158d11a)" style="fill: #332288; fill-opacity: 0.6; stroke: #ffffff; stroke-opacity: 0.6; stroke-width: 0.339411"/>
    <path d="M 151.783696 142.440642 
L 153.583696 139.440642 
L 151.783696 136.440642 
L 149.983696 139.440642 
z
" clip-path="url(#p00e158d11a)" style="fill: #332288; fill-opacity: 0.6; stroke: #ffffff; stroke-opacity: 0.6; stroke-width: 0.339411"/>
    <path d="M 139.829934 100.509306 
L 141.629934 97.509306 
L 139.829934 94.509306 
L 138.029934 97.509306 
z
" clip-path="url(#p00e158d11a)" style="fill: #332288; fill-opacity: 0.6; stroke: #ffffff; stroke-opacity: 0.6; stroke-width: 0.339411"/>
    <path d="M 121.50914 126.904093 
L 123.30914 123.904093 
L 121.50914 120.904093 
L 119.70914 123.904093 
z
" clip-path="url(#p00e158d11a)" style="fill: #332288; fill-opacity: 0.6; stroke: #ffffff; stroke-opacity: 0.6; stroke-width: 0.339411"/>
    <path d="M 155.51998 142.081508 
L 157.31998 139.081508 
L 155.51998 136.081508 
L 153.71998 139.081508 
z
" clip-path="url(#p00e158d11a)" style="fill: #332288; fill-opacity: 0.6; stroke: #ffffff; stroke-opacity: 0.6; stroke-width: 0.339411"/>
    <path d="M 147.63769 145.650987 
L 149.43769 142.650987 
L 147.63769 139.650987 
L 145.83769 142.650987 
z
" clip-path="url(#p00e158d11a)" style="fill: #332288; fill-opacity: 0.6; stroke: #ffffff; stroke-opacity: 0.6; stroke-width: 0.339411"/>
    <path d="M 154.187031 94.659443 
L 155.987031 91.659443 
L 154.187031 88.659443 
L 152.387031 91.659443 
z
" clip-path="url(#p00e158d11a)" style="fill: #332288; fill-opacity: 0.6; stroke: #ffffff; stroke-opacity: 0.6; stroke-width: 0.339411"/>
    <path d="M 170.36803 144.212737 
L 172.16803 141.212737 
L 170.36803 138.212737 
L 168.56803 141.212737 
z
" clip-path="url(#p00e158d11a)" style="fill: #332288; fill-opacity: 0.6; stroke: #ffffff; stroke-opacity: 0.6; stroke-width: 0.339411"/>
    <path d="M 157.127682 142.124592 
L 158.927682 139.124592 
L 157.127682 136.124592 
L 155.327682 139.124592 
z
" clip-path="url(#p00e158d11a)" style="fill: #332288; fill-opacity: 0.6; stroke: #ffffff; stroke-opacity: 0.6; stroke-width: 0.339411"/>
    <path d="M 171.469892 166.289414 
L 173.269892 163.289414 
L 171.469892 160.289414 
L 169.669892 163.289414 
z
" clip-path="url(#p00e158d11a)" style="fill: #332288; fill-opacity: 0.6; stroke: #ffffff; stroke-opacity: 0.6; stroke-width: 0.339411"/>
    <path d="M 147.222477 108.274607 
L 149.022477 105.274607 
L 147.222477 102.274607 
L 145.422477 105.274607 
z
" clip-path="url(#p00e158d11a)" style="fill: #332288; fill-opacity: 0.6; stroke: #ffffff; stroke-opacity: 0.6; stroke-width: 0.339411"/>
    <path d="M 160.668547 117.428551 
L 162.468547 114.428551 
L 160.668547 111.428551 
L 158.868547 114.428551 
z
" clip-path="url(#p00e158d11a)" style="fill: #332288; fill-opacity: 0.6; stroke: #ffffff; stroke-opacity: 0.6; stroke-width: 0.339411"/>
    <path d="M 160.683783 100.718782 
L 162.483783 97.718782 
L 160.683783 94.718782 
L 158.883783 97.718782 
z
" clip-path="url(#p00e158d11a)" style="fill: #332288; fill-opacity: 0.6; stroke: #ffffff; stroke-opacity: 0.6; stroke-width: 0.339411"/>
    <path d="M 123.88278 97.746473 
L 125.68278 94.746473 
L 123.88278 91.746473 
L 122.08278 94.746473 
z
" clip-path="url(#p00e158d11a)" style="fill: #332288; fill-opacity: 0.6; stroke: #ffffff; stroke-opacity: 0.6; stroke-width: 0.339411"/>
    <path d="M 147.117211 108.738271 
L 148.917211 105.738271 
L 147.117211 102.738271 
L 145.317211 105.738271 
z
" clip-path="url(#p00e158d11a)" style="fill: #332288; fill-opacity: 0.6; stroke: #ffffff; stroke-opacity: 0.6; stroke-width: 0.339411"/>
    <path d="M 141.267834 131.85634 
L 143.067834 128.85634 
L 141.267834 125.85634 
L 139.467834 128.85634 
z
" clip-path="url(#p00e158d11a)" style="fill: #332288; fill-opacity: 0.6; stroke: #ffffff; stroke-opacity: 0.6; stroke-width: 0.339411"/>
    <path d="M 162.939269 145.304082 
L 164.739269 142.304082 
L 162.939269 139.304082 
L 161.139269 142.304082 
z
" clip-path="url(#p00e158d11a)" style="fill: #332288; fill-opacity: 0.6; stroke: #ffffff; stroke-opacity: 0.6; stroke-width: 0.339411"/>
    <path d="M 147.117211 108.738271 
L 148.917211 105.738271 
L 147.117211 102.738271 
L 145.317211 105.738271 
z
" clip-path="url(#p00e158d11a)" style="fill: #332288; fill-opacity: 0.6; stroke: #ffffff; stroke-opacity: 0.6; stroke-width: 0.339411"/>
    <path d="M 153.953824 121.083491 
L 155.753824 118.083491 
L 153.953824 115.083491 
L 152.153824 118.083491 
z
" clip-path="url(#p00e158d11a)" style="fill: #332288; fill-opacity: 0.6; stroke: #ffffff; stroke-opacity: 0.6; stroke-width: 0.339411"/>
    <path d="M 117.265025 96.768651 
L 119.065025 93.768651 
L 117.265025 90.768651 
L 115.465025 93.768651 
z
" clip-path="url(#p00e158d11a)" style="fill: #332288; fill-opacity: 0.6; stroke: #ffffff; stroke-opacity: 0.6; stroke-width: 0.339411"/>
    <path d="M 148.44512 153.206889 
L 150.24512 150.206889 
L 148.44512 147.206889 
L 146.64512 150.206889 
z
" clip-path="url(#p00e158d11a)" style="fill: #332288; fill-opacity: 0.6; stroke: #ffffff; stroke-opacity: 0.6; stroke-width: 0.339411"/>
    <path d="M 189.73085 153.386375 
L 191.53085 150.386375 
L 189.73085 147.386375 
L 187.93085 150.386375 
z
" clip-path="url(#p00e158d11a)" style="fill: #332288; fill-opacity: 0.6; stroke: #ffffff; stroke-opacity: 0.6; stroke-width: 0.339411"/>
    <path d="M 133.632849 147.667452 
L 135.432849 144.667452 
L 133.632849 141.667452 
L 131.832849 144.667452 
z
" clip-path="url(#p00e158d11a)" style="fill: #332288; fill-opacity: 0.6; stroke: #ffffff; stroke-opacity: 0.6; stroke-width: 0.339411"/>
    <path d="M 153.27035 101.056227 
L 155.07035 98.056227 
L 153.27035 95.056227 
L 151.47035 98.056227 
z
" clip-path="url(#p00e158d11a)" style="fill: #332288; fill-opacity: 0.6; stroke: #ffffff; stroke-opacity: 0.6; stroke-width: 0.339411"/>
    <path d="M 162.407625 89.67778 
L 164.207625 86.67778 
L 162.407625 83.67778 
L 160.607625 86.67778 
z
" clip-path="url(#p00e158d11a)" style="fill: #332288; fill-opacity: 0.6; stroke: #ffffff; stroke-opacity: 0.6; stroke-width: 0.339411"/>
    <path d="M 145.228443 110.715785 
L 147.028443 107.715785 
L 145.228443 104.715785 
L 143.428443 107.715785 
z
" clip-path="url(#p00e158d11a)" style="fill: #332288; fill-opacity: 0.6; stroke: #ffffff; stroke-opacity: 0.6; stroke-width: 0.339411"/>
    <path d="M 78.993056 106.296428 
L 80.793056 103.296428 
L 78.993056 100.296428 
L 77.193056 103.296428 
z
" clip-path="url(#p00e158d11a)" style="fill: #332288; fill-opacity: 0.6; stroke: #ffffff; stroke-opacity: 0.6; stroke-width: 0.339411"/>
    <path d="M 151.304896 149.354031 
L 153.104896 146.354031 
L 151.304896 143.354031 
L 149.504896 146.354031 
z
" clip-path="url(#p00e158d11a)" style="fill: #332288; fill-opacity: 0.6; stroke: #ffffff; stroke-opacity: 0.6; stroke-width: 0.339411"/>
    <path d="M 138.84649 104.678948 
L 140.64649 101.678948 
L 138.84649 98.678948 
L 137.04649 101.678948 
z
" clip-path="url(#p00e158d11a)" style="fill: #332288; fill-opacity: 0.6; stroke: #ffffff; stroke-opacity: 0.6; stroke-width: 0.339411"/>
    <path d="M 150.15712 92.218949 
L 151.95712 89.218949 
L 150.15712 86.218949 
L 148.35712 89.218949 
z
" clip-path="url(#p00e158d11a)" style="fill: #332288; fill-opacity: 0.6; stroke: #ffffff; stroke-opacity: 0.6; stroke-width: 0.339411"/>
    <path d="M 148.44512 153.206889 
L 150.24512 150.206889 
L 148.44512 147.206889 
L 146.64512 150.206889 
z
" clip-path="url(#p00e158d11a)" style="fill: #332288; fill-opacity: 0.6; stroke: #ffffff; stroke-opacity: 0.6; stroke-width: 0.339411"/>
    <path d="M 150.236447 134.158778 
L 152.036447 131.158778 
L 150.236447 128.158778 
L 148.436447 131.158778 
z
" clip-path="url(#p00e158d11a)" style="fill: #332288; fill-opacity: 0.6; stroke: #ffffff; stroke-opacity: 0.6; stroke-width: 0.339411"/>
    <path d="M 153.953824 121.083491 
L 155.753824 118.083491 
L 153.953824 115.083491 
L 152.153824 118.083491 
z
" clip-path="url(#p00e158d11a)" style="fill: #332288; fill-opacity: 0.6; stroke: #ffffff; stroke-opacity: 0.6; stroke-width: 0.339411"/>
    <path d="M 161.909284 136.823772 
L 163.709284 133.823772 
L 161.909284 130.823772 
L 160.109284 133.823772 
z
" clip-path="url(#p00e158d11a)" style="fill: #332288; fill-opacity: 0.6; stroke: #ffffff; stroke-opacity: 0.6; stroke-width: 0.339411"/>
    <path d="M 154.292162 103.46244 
L 156.092162 100.46244 
L 154.292162 97.46244 
L 152.492162 100.46244 
z
" clip-path="url(#p00e158d11a)" style="fill: #332288; fill-opacity: 0.6; stroke: #ffffff; stroke-opacity: 0.6; stroke-width: 0.339411"/>
    <path d="M 122.360493 97.618683 
L 124.160493 94.618683 
L 122.360493 91.618683 
L 120.560493 94.618683 
z
" clip-path="url(#p00e158d11a)" style="fill: #332288; fill-opacity: 0.6; stroke: #ffffff; stroke-opacity: 0.6; stroke-width: 0.339411"/>
    <path d="M 138.924303 155.788098 
L 140.724303 152.788098 
L 138.924303 149.788098 
L 137.124303 152.788098 
z
" clip-path="url(#p00e158d11a)" style="fill: #332288; fill-opacity: 0.6; stroke: #ffffff; stroke-opacity: 0.6; stroke-width: 0.339411"/>
    <path d="M 172.675074 110.938884 
L 174.475074 107.938884 
L 172.675074 104.938884 
L 170.875074 107.938884 
z
" clip-path="url(#p00e158d11a)" style="fill: #332288; fill-opacity: 0.6; stroke: #ffffff; stroke-opacity: 0.6; stroke-width: 0.339411"/>
    <path d="M 156.530328 95.78774 
L 158.330328 92.78774 
L 156.530328 89.78774 
L 154.730328 92.78774 
z
" clip-path="url(#p00e158d11a)" style="fill: #332288; fill-opacity: 0.6; stroke: #ffffff; stroke-opacity: 0.6; stroke-width: 0.339411"/>
    <path d="M 157.431205 90.520786 
L 159.231205 87.520786 
L 157.431205 84.520786 
L 155.631205 87.520786 
z
" clip-path="url(#p00e158d11a)" style="fill: #332288; fill-opacity: 0.6; stroke: #ffffff; stroke-opacity: 0.6; stroke-width: 0.339411"/>
    <path d="M 121.733272 134.994818 
L 123.533272 131.994818 
L 121.733272 128.994818 
L 119.933272 131.994818 
z
" clip-path="url(#p00e158d11a)" style="fill: #332288; fill-opacity: 0.6; stroke: #ffffff; stroke-opacity: 0.6; stroke-width: 0.339411"/>
    <path d="M 149.565944 149.831133 
L 151.365944 146.831133 
L 149.565944 143.831133 
L 147.765944 146.831133 
z
" clip-path="url(#p00e158d11a)" style="fill: #332288; fill-opacity: 0.6; stroke: #ffffff; stroke-opacity: 0.6; stroke-width: 0.339411"/>
    <path d="M 183.353799 106.256469 
L 185.153799 103.256469 
L 183.353799 100.256469 
L 181.553799 103.256469 
z
" clip-path="url(#p00e158d11a)" style="fill: #332288; fill-opacity: 0.6; stroke: #ffffff; stroke-opacity: 0.6; stroke-width: 0.339411"/>
    <path d="M 123.88278 97.746473 
L 125.68278 94.746473 
L 123.88278 91.746473 
L 122.08278 94.746473 
z
" clip-path="url(#p00e158d11a)" style="fill: #332288; fill-opacity: 0.6; stroke: #ffffff; stroke-opacity: 0.6; stroke-width: 0.339411"/>
    <path d="M 152.334952 95.159539 
L 154.134952 92.159539 
L 152.334952 89.159539 
L 150.534952 92.159539 
z
" clip-path="url(#p00e158d11a)" style="fill: #332288; fill-opacity: 0.6; stroke: #ffffff; stroke-opacity: 0.6; stroke-width: 0.339411"/>
    <path d="M 151.961114 146.437016 
L 153.761114 143.437016 
L 151.961114 140.437016 
L 150.161114 143.437016 
z
" clip-path="url(#p00e158d11a)" style="fill: #332288; fill-opacity: 0.6; stroke: #ffffff; stroke-opacity: 0.6; stroke-width: 0.339411"/>
    <path d="M 154.292162 103.46244 
L 156.092162 100.46244 
L 154.292162 97.46244 
L 152.492162 100.46244 
z
" clip-path="url(#p00e158d11a)" style="fill: #332288; fill-opacity: 0.6; stroke: #ffffff; stroke-opacity: 0.6; stroke-width: 0.339411"/>
    <path d="M 158.13845 99.198671 
L 159.93845 96.198671 
L 158.13845 93.198671 
L 156.33845 96.198671 
z
" clip-path="url(#p00e158d11a)" style="fill: #332288; fill-opacity: 0.6; stroke: #ffffff; stroke-opacity: 0.6; stroke-width: 0.339411"/>
    <path d="M 167.295917 108.930008 
L 169.095917 105.930008 
L 167.295917 102.930008 
L 165.495917 105.930008 
z
" clip-path="url(#p00e158d11a)" style="fill: #332288; fill-opacity: 0.6; stroke: #ffffff; stroke-opacity: 0.6; stroke-width: 0.339411"/>
    <path d="M 128.697687 145.843819 
L 130.497687 142.843819 
L 128.697687 139.843819 
L 126.897687 142.843819 
z
" clip-path="url(#p00e158d11a)" style="fill: #332288; fill-opacity: 0.6; stroke: #ffffff; stroke-opacity: 0.6; stroke-width: 0.339411"/>
    <path d="M 136.075086 131.786537 
L 137.875086 128.786537 
L 136.075086 125.786537 
L 134.275086 128.786537 
z
" clip-path="url(#p00e158d11a)" style="fill: #332288; fill-opacity: 0.6; stroke: #ffffff; stroke-opacity: 0.6; stroke-width: 0.339411"/>
    <path d="M 165.773148 104.304189 
L 167.573148 101.304189 
L 165.773148 98.304189 
L 163.973148 101.304189 
z
" clip-path="url(#p00e158d11a)" style="fill: #332288; fill-opacity: 0.6; stroke: #ffffff; stroke-opacity: 0.6; stroke-width: 0.339411"/>
    <path d="M 119.943159 134.32222 
L 121.743159 131.32222 
L 119.943159 128.32222 
L 118.143159 131.32222 
z
" clip-path="url(#p00e158d11a)" style="fill: #332288; fill-opacity: 0.6; stroke: #ffffff; stroke-opacity: 0.6; stroke-width: 0.339411"/>
    <path d="M 121.182245 97.153168 
L 122.982245 94.153168 
L 121.182245 91.153168 
L 119.382245 94.153168 
z
" clip-path="url(#p00e158d11a)" style="fill: #332288; fill-opacity: 0.6; stroke: #ffffff; stroke-opacity: 0.6; stroke-width: 0.339411"/>
    <path d="M 148.003852 93.620792 
L 149.803852 90.620792 
L 148.003852 87.620792 
L 146.203852 90.620792 
z
" clip-path="url(#p00e158d11a)" style="fill: #332288; fill-opacity: 0.6; stroke: #ffffff; stroke-opacity: 0.6; stroke-width: 0.339411"/>
    <path d="M 163.565908 113.178204 
L 165.365908 110.178204 
L 163.565908 107.178204 
L 161.765908 110.178204 
z
" clip-path="url(#p00e158d11a)" style="fill: #332288; fill-opacity: 0.6; stroke: #ffffff; stroke-opacity: 0.6; stroke-width: 0.339411"/>
    <path d="M 158.873137 91.153818 
L 160.673137 88.153818 
L 158.873137 85.153818 
L 157.073137 88.153818 
z
" clip-path="url(#p00e158d11a)" style="fill: #332288; fill-opacity: 0.6; stroke: #ffffff; stroke-opacity: 0.6; stroke-width: 0.339411"/>
    <path d="M 157.078098 151.080734 
L 158.878098 148.080734 
L 157.078098 145.080734 
L 155.278098 148.080734 
z
" clip-path="url(#p00e158d11a)" style="fill: #332288; fill-opacity: 0.6; stroke: #ffffff; stroke-opacity: 0.6; stroke-width: 0.339411"/>
    <path d="M 135.429537 128.902585 
L 133.308217 133.145225 
L 137.550858 133.145225 
z
" clip-path="url(#p00e158d11a)" style="fill: #117733; fill-opacity: 0.6; stroke: #ffffff; stroke-opacity: 0.6; stroke-width: 0.339411"/>
    <path d="M 131.439092 140.391132 
L 129.317771 144.633773 
L 133.560412 144.633773 
z
" clip-path="url(#p00e158d11a)" style="fill: #117733; fill-opacity: 0.6; stroke: #ffffff; stroke-opacity: 0.6; stroke-width: 0.339411"/>
    <path d="M 134.163064 131.554547 
L 132.041744 135.797187 
L 136.284385 135.797187 
z
" clip-path="url(#p00e158d11a)" style="fill: #117733; fill-opacity: 0.6; stroke: #ffffff; stroke-opacity: 0.6; stroke-width: 0.339411"/>
    <path d="M 116.963065 139.317008 
L 114.841745 143.559648 
L 119.084386 143.559648 
z
" clip-path="url(#p00e158d11a)" style="fill: #117733; fill-opacity: 0.6; stroke: #ffffff; stroke-opacity: 0.6; stroke-width: 0.339411"/>
    <path d="M 119.53384 133.025086 
L 117.412519 137.267727 
L 121.65516 137.267727 
z
" clip-path="url(#p00e158d11a)" style="fill: #117733; fill-opacity: 0.6; stroke: #ffffff; stroke-opacity: 0.6; stroke-width: 0.339411"/>
    <path d="M 112.324383 136.208129 
L 110.203063 140.45077 
L 114.445704 140.45077 
z
" clip-path="url(#p00e158d11a)" style="fill: #117733; fill-opacity: 0.6; stroke: #ffffff; stroke-opacity: 0.6; stroke-width: 0.339411"/>
    <path d="M 109.394119 141.520928 
L 107.272799 145.763568 
L 111.51544 145.763568 
z
" clip-path="url(#p00e158d11a)" style="fill: #117733; fill-opacity: 0.6; stroke: #ffffff; stroke-opacity: 0.6; stroke-width: 0.339411"/>
    <path d="M 136.976261 131.787222 
L 134.85494 136.029862 
L 139.097581 136.029862 
z
" clip-path="url(#p00e158d11a)" style="fill: #117733; fill-opacity: 0.6; stroke: #ffffff; stroke-opacity: 0.6; stroke-width: 0.339411"/>
    <path d="M 132.323197 102.887019 
L 130.201877 107.129659 
L 134.444518 107.129659 
z
" clip-path="url(#p00e158d11a)" style="fill: #117733; fill-opacity: 0.6; stroke: #ffffff; stroke-opacity: 0.6; stroke-width: 0.339411"/>
    <path d="M 163.14665 145.167815 
L 161.02533 149.410455 
L 165.26797 149.410455 
z
" clip-path="url(#p00e158d11a)" style="fill: #117733; fill-opacity: 0.6; stroke: #ffffff; stroke-opacity: 0.6; stroke-width: 0.339411"/>
    <path d="M 104.093442 140.017914 
L 101.972122 144.260555 
L 106.214762 144.260555 
z
" clip-path="url(#p00e158d11a)" style="fill: #117733; fill-opacity: 0.6; stroke: #ffffff; stroke-opacity: 0.6; stroke-width: 0.339411"/>
    <path d="M 116.333619 136.670912 
L 114.212298 140.913553 
L 118.454939 140.913553 
z
" clip-path="url(#p00e158d11a)" style="fill: #117733; fill-opacity: 0.6; stroke: #ffffff; stroke-opacity: 0.6; stroke-width: 0.339411"/>
    <path d="M 77.199812 133.374951 
L 75.078491 137.617592 
L 79.321132 137.617592 
z
" clip-path="url(#p00e158d11a)" style="fill: #117733; fill-opacity: 0.6; stroke: #ffffff; stroke-opacity: 0.6; stroke-width: 0.339411"/>
    <path d="M 101.29858 132.959843 
L 99.17726 137.202483 
L 103.419901 137.202483 
z
" clip-path="url(#p00e158d11a)" style="fill: #117733; fill-opacity: 0.6; stroke: #ffffff; stroke-opacity: 0.6; stroke-width: 0.339411"/>
    <path d="M 91.623446 134.813988 
L 89.502126 139.056628 
L 93.744767 139.056628 
z
" clip-path="url(#p00e158d11a)" style="fill: #117733; fill-opacity: 0.6; stroke: #ffffff; stroke-opacity: 0.6; stroke-width: 0.339411"/>
    <path d="M 112.502572 135.845006 
L 110.381252 140.087646 
L 114.623892 140.087646 
z
" clip-path="url(#p00e158d11a)" style="fill: #117733; fill-opacity: 0.6; stroke: #ffffff; stroke-opacity: 0.6; stroke-width: 0.339411"/>
    <path d="M 124.299628 134.272237 
L 122.178308 138.514878 
L 126.420948 138.514878 
z
" clip-path="url(#p00e158d11a)" style="fill: #117733; fill-opacity: 0.6; stroke: #ffffff; stroke-opacity: 0.6; stroke-width: 0.339411"/>
    <path d="M 115.893663 131.047951 
L 113.772343 135.290591 
L 118.014983 135.290591 
z
" clip-path="url(#p00e158d11a)" style="fill: #117733; fill-opacity: 0.6; stroke: #ffffff; stroke-opacity: 0.6; stroke-width: 0.339411"/>
    <path d="M 86.783218 118.748094 
L 84.661898 122.990735 
L 88.904538 122.990735 
z
" clip-path="url(#p00e158d11a)" style="fill: #117733; fill-opacity: 0.6; stroke: #ffffff; stroke-opacity: 0.6; stroke-width: 0.339411"/>
    <path d="M 211.8595 149.502665 
L 209.738179 153.745305 
L 213.98082 153.745305 
z
" clip-path="url(#p00e158d11a)" style="fill: #117733; fill-opacity: 0.6; stroke: #ffffff; stroke-opacity: 0.6; stroke-width: 0.339411"/>
    <path d="M 126.983558 125.193607 
L 124.862238 129.436247 
L 129.104878 129.436247 
z
" clip-path="url(#p00e158d11a)" style="fill: #117733; fill-opacity: 0.6; stroke: #ffffff; stroke-opacity: 0.6; stroke-width: 0.339411"/>
    <path d="M 121.334561 102.088687 
L 119.213241 106.331328 
L 123.455882 106.331328 
z
" clip-path="url(#p00e158d11a)" style="fill: #117733; fill-opacity: 0.6; stroke: #ffffff; stroke-opacity: 0.6; stroke-width: 0.339411"/>
    <path d="M 140.518458 99.881076 
L 138.397138 104.123716 
L 142.639779 104.123716 
z
" clip-path="url(#p00e158d11a)" style="fill: #117733; fill-opacity: 0.6; stroke: #ffffff; stroke-opacity: 0.6; stroke-width: 0.339411"/>
    <path d="M 109.615653 130.277196 
L 107.494333 134.519837 
L 111.736973 134.519837 
z
" clip-path="url(#p00e158d11a)" style="fill: #117733; fill-opacity: 0.6; stroke: #ffffff; stroke-opacity: 0.6; stroke-width: 0.339411"/>
    <path d="M 122.929697 133.518796 
L 120.808377 137.761437 
L 125.051017 137.761437 
z
" clip-path="url(#p00e158d11a)" style="fill: #117733; fill-opacity: 0.6; stroke: #ffffff; stroke-opacity: 0.6; stroke-width: 0.339411"/>
    <path d="M 109.369777 137.679942 
L 107.248457 141.922583 
L 111.491098 141.922583 
z
" clip-path="url(#p00e158d11a)" style="fill: #117733; fill-opacity: 0.6; stroke: #ffffff; stroke-opacity: 0.6; stroke-width: 0.339411"/>
    <path d="M 164.061575 146.474961 
L 161.940254 150.717602 
L 166.182895 150.717602 
z
" clip-path="url(#p00e158d11a)" style="fill: #117733; fill-opacity: 0.6; stroke: #ffffff; stroke-opacity: 0.6; stroke-width: 0.339411"/>
    <path d="M 104.062265 126.687635 
L 101.940945 130.930275 
L 106.183586 130.930275 
z
" clip-path="url(#p00e158d11a)" style="fill: #117733; fill-opacity: 0.6; stroke: #ffffff; stroke-opacity: 0.6; stroke-width: 0.339411"/>
    <path d="M 136.696369 132.873494 
L 134.575049 137.116135 
L 138.817689 137.116135 
z
" clip-path="url(#p00e158d11a)" style="fill: #117733; fill-opacity: 0.6; stroke: #ffffff; stroke-opacity: 0.6; stroke-width: 0.339411"/>
    <path d="M 102.189512 141.321992 
L 100.068191 145.564633 
L 104.310832 145.564633 
z
" clip-path="url(#p00e158d11a)" style="fill: #117733; fill-opacity: 0.6; stroke: #ffffff; stroke-opacity: 0.6; stroke-width: 0.339411"/>
    <path d="M 102.996983 126.667677 
L 100.875663 130.910317 
L 105.118303 130.910317 
z
" clip-path="url(#p00e158d11a)" style="fill: #117733; fill-opacity: 0.6; stroke: #ffffff; stroke-opacity: 0.6; stroke-width: 0.339411"/>
    <path d="M 127.880249 129.026597 
L 125.758928 133.269238 
L 130.001569 133.269238 
z
" clip-path="url(#p00e158d11a)" style="fill: #117733; fill-opacity: 0.6; stroke: #ffffff; stroke-opacity: 0.6; stroke-width: 0.339411"/>
    <path d="M 132.032382 127.88186 
L 129.911061 132.1245 
L 134.153702 132.1245 
z
" clip-path="url(#p00e158d11a)" style="fill: #117733; fill-opacity: 0.6; stroke: #ffffff; stroke-opacity: 0.6; stroke-width: 0.339411"/>
    <path d="M 130.660733 140.160167 
L 128.539412 144.402808 
L 132.782053 144.402808 
z
" clip-path="url(#p00e158d11a)" style="fill: #117733; fill-opacity: 0.6; stroke: #ffffff; stroke-opacity: 0.6; stroke-width: 0.339411"/>
    <path d="M 114.037979 132.157392 
L 111.916659 136.400033 
L 116.1593 136.400033 
z
" clip-path="url(#p00e158d11a)" style="fill: #117733; fill-opacity: 0.6; stroke: #ffffff; stroke-opacity: 0.6; stroke-width: 0.339411"/>
    <path d="M 128.880006 143.054876 
L 126.758686 147.297517 
L 131.001326 147.297517 
z
" clip-path="url(#p00e158d11a)" style="fill: #117733; fill-opacity: 0.6; stroke: #ffffff; stroke-opacity: 0.6; stroke-width: 0.339411"/>
    <path d="M 130.420708 140.333966 
L 128.299387 144.576607 
L 132.542028 144.576607 
z
" clip-path="url(#p00e158d11a)" style="fill: #117733; fill-opacity: 0.6; stroke: #ffffff; stroke-opacity: 0.6; stroke-width: 0.339411"/>
    <path d="M 123.605174 134.92743 
L 121.483854 139.170071 
L 125.726495 139.170071 
z
" clip-path="url(#p00e158d11a)" style="fill: #117733; fill-opacity: 0.6; stroke: #ffffff; stroke-opacity: 0.6; stroke-width: 0.339411"/>
    <path d="M 128.285091 127.377437 
L 126.163771 131.620077 
L 130.406412 131.620077 
z
" clip-path="url(#p00e158d11a)" style="fill: #117733; fill-opacity: 0.6; stroke: #ffffff; stroke-opacity: 0.6; stroke-width: 0.339411"/>
    <path d="M 111.879983 135.266013 
L 109.758663 139.508654 
L 114.001303 139.508654 
z
" clip-path="url(#p00e158d11a)" style="fill: #117733; fill-opacity: 0.6; stroke: #ffffff; stroke-opacity: 0.6; stroke-width: 0.339411"/>
    <path d="M 128.760965 132.011837 
L 126.639645 136.254477 
L 130.882286 136.254477 
z
" clip-path="url(#p00e158d11a)" style="fill: #117733; fill-opacity: 0.6; stroke: #ffffff; stroke-opacity: 0.6; stroke-width: 0.339411"/>
    <path d="M 105.830274 141.59505 
L 103.708953 145.837691 
L 107.951594 145.837691 
z
" clip-path="url(#p00e158d11a)" style="fill: #117733; fill-opacity: 0.6; stroke: #ffffff; stroke-opacity: 0.6; stroke-width: 0.339411"/>
    <path d="M 128.015319 134.801578 
L 125.893999 139.044219 
L 130.13664 139.044219 
z
" clip-path="url(#p00e158d11a)" style="fill: #117733; fill-opacity: 0.6; stroke: #ffffff; stroke-opacity: 0.6; stroke-width: 0.339411"/>
    <path d="M 127.633938 139.124034 
L 125.512617 143.366675 
L 129.755258 143.366675 
z
" clip-path="url(#p00e158d11a)" style="fill: #117733; fill-opacity: 0.6; stroke: #ffffff; stroke-opacity: 0.6; stroke-width: 0.339411"/>
    <path d="M 119.09349 138.623941 
L 116.972169 142.866582 
L 121.21481 142.866582 
z
" clip-path="url(#p00e158d11a)" style="fill: #117733; fill-opacity: 0.6; stroke: #ffffff; stroke-opacity: 0.6; stroke-width: 0.339411"/>
    <path d="M 114.938959 122.668161 
L 112.817639 126.910802 
L 117.060279 126.910802 
z
" clip-path="url(#p00e158d11a)" style="fill: #117733; fill-opacity: 0.6; stroke: #ffffff; stroke-opacity: 0.6; stroke-width: 0.339411"/>
    <path d="M 133.458603 131.325668 
L 131.337283 135.568308 
L 135.579923 135.568308 
z
" clip-path="url(#p00e158d11a)" style="fill: #117733; fill-opacity: 0.6; stroke: #ffffff; stroke-opacity: 0.6; stroke-width: 0.339411"/>
    <path d="M 127.131646 97.712351 
L 125.010325 101.954992 
L 129.252966 101.954992 
z
" clip-path="url(#p00e158d11a)" style="fill: #117733; fill-opacity: 0.6; stroke: #ffffff; stroke-opacity: 0.6; stroke-width: 0.339411"/>
    <path d="M 136.349555 133.701819 
L 134.228234 137.94446 
L 138.470875 137.94446 
z
" clip-path="url(#p00e158d11a)" style="fill: #117733; fill-opacity: 0.6; stroke: #ffffff; stroke-opacity: 0.6; stroke-width: 0.339411"/>
    <path d="M 121.688291 102.881048 
L 119.566971 107.123688 
L 123.809612 107.123688 
z
" clip-path="url(#p00e158d11a)" style="fill: #117733; fill-opacity: 0.6; stroke: #ffffff; stroke-opacity: 0.6; stroke-width: 0.339411"/>
    <path d="M 134.046515 88.284365 
L 131.925194 92.527006 
L 136.167835 92.527006 
z
" clip-path="url(#p00e158d11a)" style="fill: #117733; fill-opacity: 0.6; stroke: #ffffff; stroke-opacity: 0.6; stroke-width: 0.339411"/>
    <path d="M 106.037066 110.920335 
L 103.915746 115.162976 
L 108.158386 115.162976 
z
" clip-path="url(#p00e158d11a)" style="fill: #117733; fill-opacity: 0.6; stroke: #ffffff; stroke-opacity: 0.6; stroke-width: 0.339411"/>
    <path d="M 108.706918 118.534437 
L 106.585597 122.777077 
L 110.828238 122.777077 
z
" clip-path="url(#p00e158d11a)" style="fill: #117733; fill-opacity: 0.6; stroke: #ffffff; stroke-opacity: 0.6; stroke-width: 0.339411"/>
    <path d="M 177.859733 111.259708 
L 175.738412 115.502348 
L 179.981053 115.502348 
z
" clip-path="url(#p00e158d11a)" style="fill: #117733; fill-opacity: 0.6; stroke: #ffffff; stroke-opacity: 0.6; stroke-width: 0.339411"/>
    <path d="M 126.440268 130.203188 
L 124.318948 134.445829 
L 128.561589 134.445829 
z
" clip-path="url(#p00e158d11a)" style="fill: #117733; fill-opacity: 0.6; stroke: #ffffff; stroke-opacity: 0.6; stroke-width: 0.339411"/>
    <path d="M 131.705017 138.814724 
L 129.583697 143.057364 
L 133.826337 143.057364 
z
" clip-path="url(#p00e158d11a)" style="fill: #117733; fill-opacity: 0.6; stroke: #ffffff; stroke-opacity: 0.6; stroke-width: 0.339411"/>
    <path d="M 118.697771 135.111685 
L 116.576451 139.354326 
L 120.819092 139.354326 
z
" clip-path="url(#p00e158d11a)" style="fill: #117733; fill-opacity: 0.6; stroke: #ffffff; stroke-opacity: 0.6; stroke-width: 0.339411"/>
    <path d="M 83.211392 116.859998 
L 81.090072 121.102639 
L 85.332712 121.102639 
z
" clip-path="url(#p00e158d11a)" style="fill: #117733; fill-opacity: 0.6; stroke: #ffffff; stroke-opacity: 0.6; stroke-width: 0.339411"/>
    <path d="M 152.975116 144.718756 
L 150.853796 148.961397 
L 155.096437 148.961397 
z
" clip-path="url(#p00e158d11a)" style="fill: #117733; fill-opacity: 0.6; stroke: #ffffff; stroke-opacity: 0.6; stroke-width: 0.339411"/>
    <path d="M 126.822331 144.6975 
L 124.701011 148.940141 
L 128.943652 148.940141 
z
" clip-path="url(#p00e158d11a)" style="fill: #117733; fill-opacity: 0.6; stroke: #ffffff; stroke-opacity: 0.6; stroke-width: 0.339411"/>
    <path d="M 151.346868 107.255179 
L 149.225548 111.497819 
L 153.468188 111.497819 
z
" clip-path="url(#p00e158d11a)" style="fill: #117733; fill-opacity: 0.6; stroke: #ffffff; stroke-opacity: 0.6; stroke-width: 0.339411"/>
    <path d="M 94.618329 108.607522 
L 92.497009 112.850163 
L 96.739649 112.850163 
z
" clip-path="url(#p00e158d11a)" style="fill: #117733; fill-opacity: 0.6; stroke: #ffffff; stroke-opacity: 0.6; stroke-width: 0.339411"/>
    <path d="M 149.292568 136.976935 
L 147.171248 141.219576 
L 151.413888 141.219576 
z
" clip-path="url(#p00e158d11a)" style="fill: #117733; fill-opacity: 0.6; stroke: #ffffff; stroke-opacity: 0.6; stroke-width: 0.339411"/>
    <path d="M 162.193079 151.70429 
L 160.071758 155.946931 
L 164.314399 155.946931 
z
" clip-path="url(#p00e158d11a)" style="fill: #117733; fill-opacity: 0.6; stroke: #ffffff; stroke-opacity: 0.6; stroke-width: 0.339411"/>
    <path d="M 118.025077 126.068722 
L 122.267718 126.068722 
L 122.267718 121.826081 
L 118.025077 121.826081 
z
" clip-path="url(#p00e158d11a)" style="fill: #44aa99; fill-opacity: 0.6; stroke: #ffffff; stroke-opacity: 0.6; stroke-width: 0.339411"/>
    <path d="M 137.006382 133.974694 
L 141.249023 133.974694 
L 141.249023 129.732054 
L 137.006382 129.732054 
z
" clip-path="url(#p00e158d11a)" style="fill: #44aa99; fill-opacity: 0.6; stroke: #ffffff; stroke-opacity: 0.6; stroke-width: 0.339411"/>
    <path d="M 127.540913 134.635635 
L 131.783553 134.635635 
L 131.783553 130.392994 
L 127.540913 130.392994 
z
" clip-path="url(#p00e158d11a)" style="fill: #44aa99; fill-opacity: 0.6; stroke: #ffffff; stroke-opacity: 0.6; stroke-width: 0.339411"/>
    <path d="M 120.662157 128.236188 
L 124.904797 128.236188 
L 124.904797 123.993547 
L 120.662157 123.993547 
z
" clip-path="url(#p00e158d11a)" style="fill: #44aa99; fill-opacity: 0.6; stroke: #ffffff; stroke-opacity: 0.6; stroke-width: 0.339411"/>
    <path d="M 88.020831 121.64951 
L 92.263472 121.64951 
L 92.263472 117.406869 
L 88.020831 117.406869 
z
" clip-path="url(#p00e158d11a)" style="fill: #44aa99; fill-opacity: 0.6; stroke: #ffffff; stroke-opacity: 0.6; stroke-width: 0.339411"/>
    <path d="M 74.737907 123.862714 
L 78.980548 123.862714 
L 78.980548 119.620073 
L 74.737907 119.620073 
z
" clip-path="url(#p00e158d11a)" style="fill: #44aa99; fill-opacity: 0.6; stroke: #ffffff; stroke-opacity: 0.6; stroke-width: 0.339411"/>
    <path d="M 137.201098 96.458251 
L 141.443739 96.458251 
L 141.443739 92.21561 
L 137.201098 92.21561 
z
" clip-path="url(#p00e158d11a)" style="fill: #44aa99; fill-opacity: 0.6; stroke: #ffffff; stroke-opacity: 0.6; stroke-width: 0.339411"/>
    <path d="M 121.300678 141.508632 
L 125.543319 141.508632 
L 125.543319 137.265991 
L 121.300678 137.265991 
z
" clip-path="url(#p00e158d11a)" style="fill: #44aa99; fill-opacity: 0.6; stroke: #ffffff; stroke-opacity: 0.6; stroke-width: 0.339411"/>
    <path d="M 112.596446 135.627097 
L 116.839087 135.627097 
L 116.839087 131.384457 
L 112.596446 131.384457 
z
" clip-path="url(#p00e158d11a)" style="fill: #44aa99; fill-opacity: 0.6; stroke: #ffffff; stroke-opacity: 0.6; stroke-width: 0.339411"/>
    <path d="M 126.289099 108.21477 
L 130.53174 108.21477 
L 130.53174 103.972129 
L 126.289099 103.972129 
z
" clip-path="url(#p00e158d11a)" style="fill: #44aa99; fill-opacity: 0.6; stroke: #ffffff; stroke-opacity: 0.6; stroke-width: 0.339411"/>
    <path d="M 121.656263 127.497863 
L 125.898903 127.497863 
L 125.898903 123.255223 
L 121.656263 123.255223 
z
" clip-path="url(#p00e158d11a)" style="fill: #44aa99; fill-opacity: 0.6; stroke: #ffffff; stroke-opacity: 0.6; stroke-width: 0.339411"/>
    <path d="M 109.390015 100.26708 
L 113.632656 100.26708 
L 113.632656 96.024439 
L 109.390015 96.024439 
z
" clip-path="url(#p00e158d11a)" style="fill: #44aa99; fill-opacity: 0.6; stroke: #ffffff; stroke-opacity: 0.6; stroke-width: 0.339411"/>
    <path d="M 121.546998 107.774991 
L 125.789639 107.774991 
L 125.789639 103.53235 
L 121.546998 103.53235 
z
" clip-path="url(#p00e158d11a)" style="fill: #44aa99; fill-opacity: 0.6; stroke: #ffffff; stroke-opacity: 0.6; stroke-width: 0.339411"/>
    <path d="M 121.050483 138.795373 
L 125.293124 138.795373 
L 125.293124 134.552733 
L 121.050483 134.552733 
z
" clip-path="url(#p00e158d11a)" style="fill: #44aa99; fill-opacity: 0.6; stroke: #ffffff; stroke-opacity: 0.6; stroke-width: 0.339411"/>
    <path d="M 125.485354 156.181613 
L 129.727995 156.181613 
L 129.727995 151.938972 
L 125.485354 151.938972 
z
" clip-path="url(#p00e158d11a)" style="fill: #44aa99; fill-opacity: 0.6; stroke: #ffffff; stroke-opacity: 0.6; stroke-width: 0.339411"/>
    <path d="M 122.250545 126.658172 
L 126.493186 126.658172 
L 126.493186 122.415532 
L 122.250545 122.415532 
z
" clip-path="url(#p00e158d11a)" style="fill: #44aa99; fill-opacity: 0.6; stroke: #ffffff; stroke-opacity: 0.6; stroke-width: 0.339411"/>
    <path d="M 120.222818 100.601049 
L 124.465459 100.601049 
L 124.465459 96.358409 
L 120.222818 96.358409 
z
" clip-path="url(#p00e158d11a)" style="fill: #44aa99; fill-opacity: 0.6; stroke: #ffffff; stroke-opacity: 0.6; stroke-width: 0.339411"/>
    <path d="M 140.930545 132.995003 
L 145.173185 132.995003 
L 145.173185 128.752362 
L 140.930545 128.752362 
z
" clip-path="url(#p00e158d11a)" style="fill: #44aa99; fill-opacity: 0.6; stroke: #ffffff; stroke-opacity: 0.6; stroke-width: 0.339411"/>
    <path d="M 122.37715 85.456495 
L 126.619791 85.456495 
L 126.619791 81.213855 
L 122.37715 81.213855 
z
" clip-path="url(#p00e158d11a)" style="fill: #44aa99; fill-opacity: 0.6; stroke: #ffffff; stroke-opacity: 0.6; stroke-width: 0.339411"/>
    <path d="M 106.88206 132.059986 
L 111.124701 132.059986 
L 111.124701 127.817346 
L 106.88206 127.817346 
z
" clip-path="url(#p00e158d11a)" style="fill: #44aa99; fill-opacity: 0.6; stroke: #ffffff; stroke-opacity: 0.6; stroke-width: 0.339411"/>
    <path d="M 129.04866 139.669286 
L 133.291301 139.669286 
L 133.291301 135.426645 
L 129.04866 135.426645 
z
" clip-path="url(#p00e158d11a)" style="fill: #44aa99; fill-opacity: 0.6; stroke: #ffffff; stroke-opacity: 0.6; stroke-width: 0.339411"/>
    <path d="M 126.425872 122.992154 
L 130.668513 122.992154 
L 130.668513 118.749513 
L 126.425872 118.749513 
z
" clip-path="url(#p00e158d11a)" style="fill: #44aa99; fill-opacity: 0.6; stroke: #ffffff; stroke-opacity: 0.6; stroke-width: 0.339411"/>
    <path d="M 132.899126 135.003537 
L 137.141766 135.003537 
L 137.141766 130.760896 
L 132.899126 130.760896 
z
" clip-path="url(#p00e158d11a)" style="fill: #44aa99; fill-opacity: 0.6; stroke: #ffffff; stroke-opacity: 0.6; stroke-width: 0.339411"/>
    <path d="M 128.725419 140.502697 
L 132.96806 140.502697 
L 132.96806 136.260056 
L 128.725419 136.260056 
z
" clip-path="url(#p00e158d11a)" style="fill: #44aa99; fill-opacity: 0.6; stroke: #ffffff; stroke-opacity: 0.6; stroke-width: 0.339411"/>
    <path d="M 130.713373 118.281109 
L 134.956014 118.281109 
L 134.956014 114.038469 
L 130.713373 114.038469 
z
" clip-path="url(#p00e158d11a)" style="fill: #44aa99; fill-opacity: 0.6; stroke: #ffffff; stroke-opacity: 0.6; stroke-width: 0.339411"/>
    <path d="M 105.491258 145.79668 
L 109.733898 145.79668 
L 109.733898 141.554039 
L 105.491258 141.554039 
z
" clip-path="url(#p00e158d11a)" style="fill: #44aa99; fill-opacity: 0.6; stroke: #ffffff; stroke-opacity: 0.6; stroke-width: 0.339411"/>
    <path d="M 116.595929 127.466152 
L 120.83857 127.466152 
L 120.83857 123.223511 
L 116.595929 123.223511 
z
" clip-path="url(#p00e158d11a)" style="fill: #44aa99; fill-opacity: 0.6; stroke: #ffffff; stroke-opacity: 0.6; stroke-width: 0.339411"/>
    <path d="M 123.667319 134.011187 
L 127.90996 134.011187 
L 127.90996 129.768547 
L 123.667319 129.768547 
z
" clip-path="url(#p00e158d11a)" style="fill: #44aa99; fill-opacity: 0.6; stroke: #ffffff; stroke-opacity: 0.6; stroke-width: 0.339411"/>
    <path d="M 142.712547 139.67088 
L 146.955188 139.67088 
L 146.955188 135.428239 
L 142.712547 135.428239 
z
" clip-path="url(#p00e158d11a)" style="fill: #44aa99; fill-opacity: 0.6; stroke: #ffffff; stroke-opacity: 0.6; stroke-width: 0.339411"/>
    <path d="M 129.638441 136.06557 
L 133.881082 136.06557 
L 133.881082 131.822929 
L 129.638441 131.822929 
z
" clip-path="url(#p00e158d11a)" style="fill: #44aa99; fill-opacity: 0.6; stroke: #ffffff; stroke-opacity: 0.6; stroke-width: 0.339411"/>
    <path d="M 95.451013 100.388939 
L 99.693654 100.388939 
L 99.693654 96.146298 
L 95.451013 96.146298 
z
" clip-path="url(#p00e158d11a)" style="fill: #44aa99; fill-opacity: 0.6; stroke: #ffffff; stroke-opacity: 0.6; stroke-width: 0.339411"/>
    <path d="M 131.448903 135.353367 
L 135.691544 135.353367 
L 135.691544 131.110727 
L 131.448903 131.110727 
z
" clip-path="url(#p00e158d11a)" style="fill: #44aa99; fill-opacity: 0.6; stroke: #ffffff; stroke-opacity: 0.6; stroke-width: 0.339411"/>
    <path d="M 135.651498 130.662472 
L 139.894138 130.662472 
L 139.894138 126.419831 
L 135.651498 126.419831 
z
" clip-path="url(#p00e158d11a)" style="fill: #44aa99; fill-opacity: 0.6; stroke: #ffffff; stroke-opacity: 0.6; stroke-width: 0.339411"/>
    <path d="M 121.124682 136.626504 
L 125.367323 136.626504 
L 125.367323 132.383863 
L 121.124682 132.383863 
z
" clip-path="url(#p00e158d11a)" style="fill: #44aa99; fill-opacity: 0.6; stroke: #ffffff; stroke-opacity: 0.6; stroke-width: 0.339411"/>
    <path d="M 125.533342 88.688167 
L 129.775982 88.688167 
L 129.775982 84.445527 
L 125.533342 84.445527 
z
" clip-path="url(#p00e158d11a)" style="fill: #44aa99; fill-opacity: 0.6; stroke: #ffffff; stroke-opacity: 0.6; stroke-width: 0.339411"/>
    <path d="M 112.017165 134.777531 
L 116.259805 134.777531 
L 116.259805 130.534891 
L 112.017165 130.534891 
z
" clip-path="url(#p00e158d11a)" style="fill: #44aa99; fill-opacity: 0.6; stroke: #ffffff; stroke-opacity: 0.6; stroke-width: 0.339411"/>
    <path d="M 118.001114 95.848456 
L 122.243754 95.848456 
L 122.243754 91.605816 
L 118.001114 91.605816 
z
" clip-path="url(#p00e158d11a)" style="fill: #44aa99; fill-opacity: 0.6; stroke: #ffffff; stroke-opacity: 0.6; stroke-width: 0.339411"/>
    <path d="M 144.918684 134.133113 
L 149.161324 134.133113 
L 149.161324 129.890472 
L 144.918684 129.890472 
z
" clip-path="url(#p00e158d11a)" style="fill: #44aa99; fill-opacity: 0.6; stroke: #ffffff; stroke-opacity: 0.6; stroke-width: 0.339411"/>
    <path d="M 120.626619 92.307251 
L 124.86926 92.307251 
L 124.86926 88.064611 
L 120.626619 88.064611 
z
" clip-path="url(#p00e158d11a)" style="fill: #44aa99; fill-opacity: 0.6; stroke: #ffffff; stroke-opacity: 0.6; stroke-width: 0.339411"/>
    <path d="M 102.055337 116.557731 
L 106.297978 116.557731 
L 106.297978 112.315091 
L 102.055337 112.315091 
z
" clip-path="url(#p00e158d11a)" style="fill: #44aa99; fill-opacity: 0.6; stroke: #ffffff; stroke-opacity: 0.6; stroke-width: 0.339411"/>
    <path d="M 115.722398 125.454657 
L 119.965039 125.454657 
L 119.965039 121.212016 
L 115.722398 121.212016 
z
" clip-path="url(#p00e158d11a)" style="fill: #44aa99; fill-opacity: 0.6; stroke: #ffffff; stroke-opacity: 0.6; stroke-width: 0.339411"/>
    <path d="M 89.40441 109.850189 
L 93.647051 109.850189 
L 93.647051 105.607548 
L 89.40441 105.607548 
z
" clip-path="url(#p00e158d11a)" style="fill: #44aa99; fill-opacity: 0.6; stroke: #ffffff; stroke-opacity: 0.6; stroke-width: 0.339411"/>
    <path d="M 114.635661 85.949325 
L 118.878301 85.949325 
L 118.878301 81.706684 
L 114.635661 81.706684 
z
" clip-path="url(#p00e158d11a)" style="fill: #44aa99; fill-opacity: 0.6; stroke: #ffffff; stroke-opacity: 0.6; stroke-width: 0.339411"/>
    <path d="M 121.130932 98.537361 
L 125.373573 98.537361 
L 125.373573 94.29472 
L 121.130932 94.29472 
z
" clip-path="url(#p00e158d11a)" style="fill: #44aa99; fill-opacity: 0.6; stroke: #ffffff; stroke-opacity: 0.6; stroke-width: 0.339411"/>
    <path d="M 114.033796 128.123619 
L 118.276436 128.123619 
L 118.276436 123.880978 
L 114.033796 123.880978 
z
" clip-path="url(#p00e158d11a)" style="fill: #44aa99; fill-opacity: 0.6; stroke: #ffffff; stroke-opacity: 0.6; stroke-width: 0.339411"/>
    <path d="M 109.33319 108.349483 
L 113.575831 108.349483 
L 113.575831 104.106842 
L 109.33319 104.106842 
z
" clip-path="url(#p00e158d11a)" style="fill: #44aa99; fill-opacity: 0.6; stroke: #ffffff; stroke-opacity: 0.6; stroke-width: 0.339411"/>
    <path d="M 123.561723 144.336402 
L 127.804364 144.336402 
L 127.804364 140.093761 
L 123.561723 140.093761 
z
" clip-path="url(#p00e158d11a)" style="fill: #44aa99; fill-opacity: 0.6; stroke: #ffffff; stroke-opacity: 0.6; stroke-width: 0.339411"/>
    <path d="M 113.579024 104.845373 
L 117.821665 104.845373 
L 117.821665 100.602732 
L 113.579024 100.602732 
z
" clip-path="url(#p00e158d11a)" style="fill: #44aa99; fill-opacity: 0.6; stroke: #ffffff; stroke-opacity: 0.6; stroke-width: 0.339411"/>
    <path d="M 128.090292 99.654023 
L 132.332932 99.654023 
L 132.332932 95.411383 
L 128.090292 95.411383 
z
" clip-path="url(#p00e158d11a)" style="fill: #44aa99; fill-opacity: 0.6; stroke: #ffffff; stroke-opacity: 0.6; stroke-width: 0.339411"/>
    <path d="M 85.342509 89.907233 
L 89.58515 89.907233 
L 89.58515 85.664593 
L 85.342509 85.664593 
z
" clip-path="url(#p00e158d11a)" style="fill: #44aa99; fill-opacity: 0.6; stroke: #ffffff; stroke-opacity: 0.6; stroke-width: 0.339411"/>
    <path d="M 126.380824 121.669284 
L 130.623464 121.669284 
L 130.623464 117.426644 
L 126.380824 117.426644 
z
" clip-path="url(#p00e158d11a)" style="fill: #44aa99; fill-opacity: 0.6; stroke: #ffffff; stroke-opacity: 0.6; stroke-width: 0.339411"/>
    <path d="M 90.198172 118.558555 
L 94.440813 118.558555 
L 94.440813 114.315915 
L 90.198172 114.315915 
z
" clip-path="url(#p00e158d11a)" style="fill: #44aa99; fill-opacity: 0.6; stroke: #ffffff; stroke-opacity: 0.6; stroke-width: 0.339411"/>
    <path d="M 140.39749 98.352979 
L 144.640131 98.352979 
L 144.640131 94.110338 
L 140.39749 94.110338 
z
" clip-path="url(#p00e158d11a)" style="fill: #44aa99; fill-opacity: 0.6; stroke: #ffffff; stroke-opacity: 0.6; stroke-width: 0.339411"/>
    <path d="M 121.170393 96.281097 
L 125.413033 96.281097 
L 125.413033 92.038456 
L 121.170393 92.038456 
z
" clip-path="url(#p00e158d11a)" style="fill: #44aa99; fill-opacity: 0.6; stroke: #ffffff; stroke-opacity: 0.6; stroke-width: 0.339411"/>
    <path d="M 120.511995 93.121902 
L 124.754635 93.121902 
L 124.754635 88.879261 
L 120.511995 88.879261 
z
" clip-path="url(#p00e158d11a)" style="fill: #44aa99; fill-opacity: 0.6; stroke: #ffffff; stroke-opacity: 0.6; stroke-width: 0.339411"/>
    <path d="M 88.445564 131.216972 
L 92.688204 131.216972 
L 92.688204 126.974331 
L 88.445564 126.974331 
z
" clip-path="url(#p00e158d11a)" style="fill: #44aa99; fill-opacity: 0.6; stroke: #ffffff; stroke-opacity: 0.6; stroke-width: 0.339411"/>
    <path d="M 116.290884 137.631349 
L 120.533525 137.631349 
L 120.533525 133.388709 
L 116.290884 133.388709 
z
" clip-path="url(#p00e158d11a)" style="fill: #44aa99; fill-opacity: 0.6; stroke: #ffffff; stroke-opacity: 0.6; stroke-width: 0.339411"/>
    <path d="M 105.86241 147.027734 
L 110.105051 147.027734 
L 110.105051 142.785093 
L 105.86241 142.785093 
z
" clip-path="url(#p00e158d11a)" style="fill: #44aa99; fill-opacity: 0.6; stroke: #ffffff; stroke-opacity: 0.6; stroke-width: 0.339411"/>
    <path d="M 118.0229 95.20812 
L 122.265541 95.20812 
L 122.265541 90.965479 
L 118.0229 90.965479 
z
" clip-path="url(#p00e158d11a)" style="fill: #44aa99; fill-opacity: 0.6; stroke: #ffffff; stroke-opacity: 0.6; stroke-width: 0.339411"/>
    <path d="M 140.39749 98.352979 
L 144.640131 98.352979 
L 144.640131 94.110338 
L 140.39749 94.110338 
z
" clip-path="url(#p00e158d11a)" style="fill: #44aa99; fill-opacity: 0.6; stroke: #ffffff; stroke-opacity: 0.6; stroke-width: 0.339411"/>
    <path d="M 118.328157 135.298612 
L 122.570798 135.298612 
L 122.570798 131.055971 
L 118.328157 131.055971 
z
" clip-path="url(#p00e158d11a)" style="fill: #44aa99; fill-opacity: 0.6; stroke: #ffffff; stroke-opacity: 0.6; stroke-width: 0.339411"/>
    <path d="M 101.231246 145.338384 
L 105.473887 145.338384 
L 105.473887 141.095743 
L 101.231246 141.095743 
z
" clip-path="url(#p00e158d11a)" style="fill: #44aa99; fill-opacity: 0.6; stroke: #ffffff; stroke-opacity: 0.6; stroke-width: 0.339411"/>
    <path d="M 120.581661 126.821212 
L 124.824301 126.821212 
L 124.824301 122.578571 
L 120.581661 122.578571 
z
" clip-path="url(#p00e158d11a)" style="fill: #44aa99; fill-opacity: 0.6; stroke: #ffffff; stroke-opacity: 0.6; stroke-width: 0.339411"/>
    <path d="M 82.188985 137.568514 
L 83.249645 136.507854 
L 84.310306 137.568514 
L 85.370966 136.507854 
L 84.310306 135.447193 
L 85.370966 134.386533 
L 84.310306 133.325873 
L 83.249645 134.386533 
L 82.188985 133.325873 
L 81.128325 134.386533 
L 82.188985 135.447193 
L 81.128325 136.507854 
z
" clip-path="url(#p00e158d11a)" style="fill: #88ccee; fill-opacity: 0.6; stroke: #ffffff; stroke-opacity: 0.6; stroke-width: 0.339411"/>
    <path d="M 87.467374 141.392885 
L 88.528034 140.332225 
L 89.588695 141.392885 
L 90.649355 140.332225 
L 89.588695 139.271565 
L 90.649355 138.210905 
L 89.588695 137.150245 
L 88.528034 138.210905 
L 87.467374 137.150245 
L 86.406714 138.210905 
L 87.467374 139.271565 
L 86.406714 140.332225 
z
" clip-path="url(#p00e158d11a)" style="fill: #88ccee; fill-opacity: 0.6; stroke: #ffffff; stroke-opacity: 0.6; stroke-width: 0.339411"/>
    <path d="M 85.93063 139.461206 
L 86.99129 138.400546 
L 88.05195 139.461206 
L 89.11261 138.400546 
L 88.05195 137.339886 
L 89.11261 136.279226 
L 88.05195 135.218566 
L 86.99129 136.279226 
L 85.93063 135.218566 
L 84.869969 136.279226 
L 85.93063 137.339886 
L 84.869969 138.400546 
z
" clip-path="url(#p00e158d11a)" style="fill: #88ccee; fill-opacity: 0.6; stroke: #ffffff; stroke-opacity: 0.6; stroke-width: 0.339411"/>
    <path d="M 90.779196 129.350249 
L 91.839857 128.289589 
L 92.900517 129.350249 
L 93.961177 128.289589 
L 92.900517 127.228929 
L 93.961177 126.168269 
L 92.900517 125.107609 
L 91.839857 126.168269 
L 90.779196 125.107609 
L 89.718536 126.168269 
L 90.779196 127.228929 
L 89.718536 128.289589 
z
" clip-path="url(#p00e158d11a)" style="fill: #88ccee; fill-opacity: 0.6; stroke: #ffffff; stroke-opacity: 0.6; stroke-width: 0.339411"/>
    <path d="M 99.326998 112.313205 
L 100.387659 111.252544 
L 101.448319 112.313205 
L 102.508979 111.252544 
L 101.448319 110.191884 
L 102.508979 109.131224 
L 101.448319 108.070564 
L 100.387659 109.131224 
L 99.326998 108.070564 
L 98.266338 109.131224 
L 99.326998 110.191884 
L 98.266338 111.252544 
z
" clip-path="url(#p00e158d11a)" style="fill: #88ccee; fill-opacity: 0.6; stroke: #ffffff; stroke-opacity: 0.6; stroke-width: 0.339411"/>
    <path d="M 82.130542 128.494116 
L 83.191202 127.433456 
L 84.251862 128.494116 
L 85.312523 127.433456 
L 84.251862 126.372796 
L 85.312523 125.312135 
L 84.251862 124.251475 
L 83.191202 125.312135 
L 82.130542 124.251475 
L 81.069882 125.312135 
L 82.130542 126.372796 
L 81.069882 127.433456 
z
" clip-path="url(#p00e158d11a)" style="fill: #88ccee; fill-opacity: 0.6; stroke: #ffffff; stroke-opacity: 0.6; stroke-width: 0.339411"/>
    <path d="M 103.030296 98.643915 
L 104.090957 97.583255 
L 105.151617 98.643915 
L 106.212277 97.583255 
L 105.151617 96.522595 
L 106.212277 95.461935 
L 105.151617 94.401274 
L 104.090957 95.461935 
L 103.030296 94.401274 
L 101.969636 95.461935 
L 103.030296 96.522595 
L 101.969636 97.583255 
z
" clip-path="url(#p00e158d11a)" style="fill: #88ccee; fill-opacity: 0.6; stroke: #ffffff; stroke-opacity: 0.6; stroke-width: 0.339411"/>
    <path d="M 93.310974 130.25306 
L 94.371634 129.192399 
L 95.432294 130.25306 
L 96.492955 129.192399 
L 95.432294 128.131739 
L 96.492955 127.071079 
L 95.432294 126.010419 
L 94.371634 127.071079 
L 93.310974 126.010419 
L 92.250314 127.071079 
L 93.310974 128.131739 
L 92.250314 129.192399 
z
" clip-path="url(#p00e158d11a)" style="fill: #88ccee; fill-opacity: 0.6; stroke: #ffffff; stroke-opacity: 0.6; stroke-width: 0.339411"/>
    <path d="M 83.732373 134.785713 
L 84.793033 133.725053 
L 85.853694 134.785713 
L 86.914354 133.725053 
L 85.853694 132.664393 
L 86.914354 131.603732 
L 85.853694 130.543072 
L 84.793033 131.603732 
L 83.732373 130.543072 
L 82.671713 131.603732 
L 83.732373 132.664393 
L 82.671713 133.725053 
z
" clip-path="url(#p00e158d11a)" style="fill: #88ccee; fill-opacity: 0.6; stroke: #ffffff; stroke-opacity: 0.6; stroke-width: 0.339411"/>
    <path d="M 96.769623 141.302921 
L 97.830283 140.242261 
L 98.890943 141.302921 
L 99.951604 140.242261 
L 98.890943 139.181601 
L 99.951604 138.120941 
L 98.890943 137.060281 
L 97.830283 138.120941 
L 96.769623 137.060281 
L 95.708963 138.120941 
L 96.769623 139.181601 
L 95.708963 140.242261 
z
" clip-path="url(#p00e158d11a)" style="fill: #88ccee; fill-opacity: 0.6; stroke: #ffffff; stroke-opacity: 0.6; stroke-width: 0.339411"/>
    <path d="M 105.223586 99.64955 
L 106.284246 98.58889 
L 107.344907 99.64955 
L 108.405567 98.58889 
L 107.344907 97.52823 
L 108.405567 96.46757 
L 107.344907 95.40691 
L 106.284246 96.46757 
L 105.223586 95.40691 
L 104.162926 96.46757 
L 105.223586 97.52823 
L 104.162926 98.58889 
z
" clip-path="url(#p00e158d11a)" style="fill: #88ccee; fill-opacity: 0.6; stroke: #ffffff; stroke-opacity: 0.6; stroke-width: 0.339411"/>
    <path d="M 89.564823 130.81228 
L 90.625483 129.751619 
L 91.686143 130.81228 
L 92.746804 129.751619 
L 91.686143 128.690959 
L 92.746804 127.630299 
L 91.686143 126.569639 
L 90.625483 127.630299 
L 89.564823 126.569639 
L 88.504163 127.630299 
L 89.564823 128.690959 
L 88.504163 129.751619 
z
" clip-path="url(#p00e158d11a)" style="fill: #88ccee; fill-opacity: 0.6; stroke: #ffffff; stroke-opacity: 0.6; stroke-width: 0.339411"/>
    <path d="M 77.905412 116.573606 
L 78.966073 115.512946 
L 80.026733 116.573606 
L 81.087393 115.512946 
L 80.026733 114.452286 
L 81.087393 113.391626 
L 80.026733 112.330965 
L 78.966073 113.391626 
L 77.905412 112.330965 
L 76.844752 113.391626 
L 77.905412 114.452286 
L 76.844752 115.512946 
z
" clip-path="url(#p00e158d11a)" style="fill: #88ccee; fill-opacity: 0.6; stroke: #ffffff; stroke-opacity: 0.6; stroke-width: 0.339411"/>
    <path d="M 114.280111 140.761945 
L 115.340772 139.701285 
L 116.401432 140.761945 
L 117.462092 139.701285 
L 116.401432 138.640625 
L 117.462092 137.579964 
L 116.401432 136.519304 
L 115.340772 137.579964 
L 114.280111 136.519304 
L 113.219451 137.579964 
L 114.280111 138.640625 
L 113.219451 139.701285 
z
" clip-path="url(#p00e158d11a)" style="fill: #88ccee; fill-opacity: 0.6; stroke: #ffffff; stroke-opacity: 0.6; stroke-width: 0.339411"/>
    <path d="M 88.129705 128.758932 
L 89.190365 127.698272 
L 90.251026 128.758932 
L 91.311686 127.698272 
L 90.251026 126.637611 
L 91.311686 125.576951 
L 90.251026 124.516291 
L 89.190365 125.576951 
L 88.129705 124.516291 
L 87.069045 125.576951 
L 88.129705 126.637611 
L 87.069045 127.698272 
z
" clip-path="url(#p00e158d11a)" style="fill: #88ccee; fill-opacity: 0.6; stroke: #ffffff; stroke-opacity: 0.6; stroke-width: 0.339411"/>
    <path d="M 100.165129 133.213315 
L 101.225789 132.152655 
L 102.286449 133.213315 
L 103.347109 132.152655 
L 102.286449 131.091995 
L 103.347109 130.031335 
L 102.286449 128.970675 
L 101.225789 130.031335 
L 100.165129 128.970675 
L 99.104469 130.031335 
L 100.165129 131.091995 
L 99.104469 132.152655 
z
" clip-path="url(#p00e158d11a)" style="fill: #88ccee; fill-opacity: 0.6; stroke: #ffffff; stroke-opacity: 0.6; stroke-width: 0.339411"/>
    <path d="M 135.225696 134.788667 
L 136.286357 133.728007 
L 137.347017 134.788667 
L 138.407677 133.728007 
L 137.347017 132.667347 
L 138.407677 131.606687 
L 137.347017 130.546026 
L 136.286357 131.606687 
L 135.225696 130.546026 
L 134.165036 131.606687 
L 135.225696 132.667347 
L 134.165036 133.728007 
z
" clip-path="url(#p00e158d11a)" style="fill: #88ccee; fill-opacity: 0.6; stroke: #ffffff; stroke-opacity: 0.6; stroke-width: 0.339411"/>
    <path d="M 115.634281 131.031159 
L 116.694941 129.970499 
L 117.755601 131.031159 
L 118.816262 129.970499 
L 117.755601 128.909838 
L 118.816262 127.849178 
L 117.755601 126.788518 
L 116.694941 127.849178 
L 115.634281 126.788518 
L 114.573621 127.849178 
L 115.634281 128.909838 
L 114.573621 129.970499 
z
" clip-path="url(#p00e158d11a)" style="fill: #88ccee; fill-opacity: 0.6; stroke: #ffffff; stroke-opacity: 0.6; stroke-width: 0.339411"/>
    <path d="M 104.880584 107.873608 
L 105.941244 106.812948 
L 107.001904 107.873608 
L 108.062564 106.812948 
L 107.001904 105.752288 
L 108.062564 104.691627 
L 107.001904 103.630967 
L 105.941244 104.691627 
L 104.880584 103.630967 
L 103.819924 104.691627 
L 104.880584 105.752288 
L 103.819924 106.812948 
z
" clip-path="url(#p00e158d11a)" style="fill: #88ccee; fill-opacity: 0.6; stroke: #ffffff; stroke-opacity: 0.6; stroke-width: 0.339411"/>
    <path d="M 100.05356 103.258102 
L 101.11422 102.197442 
L 102.17488 103.258102 
L 103.23554 102.197442 
L 102.17488 101.136782 
L 103.23554 100.076121 
L 102.17488 99.015461 
L 101.11422 100.076121 
L 100.05356 99.015461 
L 98.992899 100.076121 
L 100.05356 101.136782 
L 98.992899 102.197442 
z
" clip-path="url(#p00e158d11a)" style="fill: #88ccee; fill-opacity: 0.6; stroke: #ffffff; stroke-opacity: 0.6; stroke-width: 0.339411"/>
    <path d="M 88.857962 122.886267 
L 89.918622 121.825607 
L 90.979282 122.886267 
L 92.039943 121.825607 
L 90.979282 120.764947 
L 92.039943 119.704287 
L 90.979282 118.643627 
L 89.918622 119.704287 
L 88.857962 118.643627 
L 87.797302 119.704287 
L 88.857962 120.764947 
L 87.797302 121.825607 
z
" clip-path="url(#p00e158d11a)" style="fill: #88ccee; fill-opacity: 0.6; stroke: #ffffff; stroke-opacity: 0.6; stroke-width: 0.339411"/>
    <path d="M 90.562929 135.761229 
L 91.623589 134.700569 
L 92.684249 135.761229 
L 93.744909 134.700569 
L 92.684249 133.639908 
L 93.744909 132.579248 
L 92.684249 131.518588 
L 91.623589 132.579248 
L 90.562929 131.518588 
L 89.502268 132.579248 
L 90.562929 133.639908 
L 89.502268 134.700569 
z
" clip-path="url(#p00e158d11a)" style="fill: #88ccee; fill-opacity: 0.6; stroke: #ffffff; stroke-opacity: 0.6; stroke-width: 0.339411"/>
    <path d="M 121.069277 127.919529 
L 122.129937 126.858869 
L 123.190597 127.919529 
L 124.251258 126.858869 
L 123.190597 125.798209 
L 124.251258 124.737549 
L 123.190597 123.676889 
L 122.129937 124.737549 
L 121.069277 123.676889 
L 120.008617 124.737549 
L 121.069277 125.798209 
L 120.008617 126.858869 
z
" clip-path="url(#p00e158d11a)" style="fill: #88ccee; fill-opacity: 0.6; stroke: #ffffff; stroke-opacity: 0.6; stroke-width: 0.339411"/>
    <path d="M 121.546092 130.882034 
L 122.606752 129.821374 
L 123.667412 130.882034 
L 124.728073 129.821374 
L 123.667412 128.760714 
L 124.728073 127.700053 
L 123.667412 126.639393 
L 122.606752 127.700053 
L 121.546092 126.639393 
L 120.485432 127.700053 
L 121.546092 128.760714 
L 120.485432 129.821374 
z
" clip-path="url(#p00e158d11a)" style="fill: #88ccee; fill-opacity: 0.6; stroke: #ffffff; stroke-opacity: 0.6; stroke-width: 0.339411"/>
    <path d="M 90.579733 119.192638 
L 91.640393 118.131977 
L 92.701053 119.192638 
L 93.761713 118.131977 
L 92.701053 117.071317 
L 93.761713 116.010657 
L 92.701053 114.949997 
L 91.640393 116.010657 
L 90.579733 114.949997 
L 89.519073 116.010657 
L 90.579733 117.071317 
L 89.519073 118.131977 
z
" clip-path="url(#p00e158d11a)" style="fill: #88ccee; fill-opacity: 0.6; stroke: #ffffff; stroke-opacity: 0.6; stroke-width: 0.339411"/>
    <path d="M 83.222769 124.681894 
L 84.283429 123.621234 
L 85.344089 124.681894 
L 86.404749 123.621234 
L 85.344089 122.560574 
L 86.404749 121.499914 
L 85.344089 120.439254 
L 84.283429 121.499914 
L 83.222769 120.439254 
L 82.162108 121.499914 
L 83.222769 122.560574 
L 82.162108 123.621234 
z
" clip-path="url(#p00e158d11a)" style="fill: #88ccee; fill-opacity: 0.6; stroke: #ffffff; stroke-opacity: 0.6; stroke-width: 0.339411"/>
    <path d="M 106.350542 117.810882 
L 107.411202 116.750221 
L 108.471862 117.810882 
L 109.532523 116.750221 
L 108.471862 115.689561 
L 109.532523 114.628901 
L 108.471862 113.568241 
L 107.411202 114.628901 
L 106.350542 113.568241 
L 105.289882 114.628901 
L 106.350542 115.689561 
L 105.289882 116.750221 
z
" clip-path="url(#p00e158d11a)" style="fill: #88ccee; fill-opacity: 0.6; stroke: #ffffff; stroke-opacity: 0.6; stroke-width: 0.339411"/>
    <path d="M 107.47868 106.091164 
L 108.53934 105.030504 
L 109.6 106.091164 
L 110.66066 105.030504 
L 109.6 103.969844 
L 110.66066 102.909184 
L 109.6 101.848524 
L 108.53934 102.909184 
L 107.47868 101.848524 
L 106.41802 102.909184 
L 107.47868 103.969844 
L 106.41802 105.030504 
z
" clip-path="url(#p00e158d11a)" style="fill: #88ccee; fill-opacity: 0.6; stroke: #ffffff; stroke-opacity: 0.6; stroke-width: 0.339411"/>
    <path d="M 78.810207 134.99223 
L 79.870867 133.93157 
L 80.931528 134.99223 
L 81.992188 133.93157 
L 80.931528 132.870909 
L 81.992188 131.810249 
L 80.931528 130.749589 
L 79.870867 131.810249 
L 78.810207 130.749589 
L 77.749547 131.810249 
L 78.810207 132.870909 
L 77.749547 133.93157 
z
" clip-path="url(#p00e158d11a)" style="fill: #88ccee; fill-opacity: 0.6; stroke: #ffffff; stroke-opacity: 0.6; stroke-width: 0.339411"/>
    <path d="M 104.180015 155.347132 
L 105.240676 154.286472 
L 106.301336 155.347132 
L 107.361996 154.286472 
L 106.301336 153.225811 
L 107.361996 152.165151 
L 106.301336 151.104491 
L 105.240676 152.165151 
L 104.180015 151.104491 
L 103.119355 152.165151 
L 104.180015 153.225811 
L 103.119355 154.286472 
z
" clip-path="url(#p00e158d11a)" style="fill: #88ccee; fill-opacity: 0.6; stroke: #ffffff; stroke-opacity: 0.6; stroke-width: 0.339411"/>
    <path d="M 82.762101 130.451814 
L 83.822762 129.391154 
L 84.883422 130.451814 
L 85.944082 129.391154 
L 84.883422 128.330493 
L 85.944082 127.269833 
L 84.883422 126.209173 
L 83.822762 127.269833 
L 82.762101 126.209173 
L 81.701441 127.269833 
L 82.762101 128.330493 
L 81.701441 129.391154 
z
" clip-path="url(#p00e158d11a)" style="fill: #88ccee; fill-opacity: 0.6; stroke: #ffffff; stroke-opacity: 0.6; stroke-width: 0.339411"/>
    <path d="M 75.564635 134.612521 
L 76.625295 133.55186 
L 77.685955 134.612521 
L 78.746616 133.55186 
L 77.685955 132.4912 
L 78.746616 131.43054 
L 77.685955 130.36988 
L 76.625295 131.43054 
L 75.564635 130.36988 
L 74.503975 131.43054 
L 75.564635 132.4912 
L 74.503975 133.55186 
z
" clip-path="url(#p00e158d11a)" style="fill: #88ccee; fill-opacity: 0.6; stroke: #ffffff; stroke-opacity: 0.6; stroke-width: 0.339411"/>
    <path d="M 97.878576 133.245193 
L 98.939237 132.184532 
L 99.999897 133.245193 
L 101.060557 132.184532 
L 99.999897 131.123872 
L 101.060557 130.063212 
L 99.999897 129.002552 
L 98.939237 130.063212 
L 97.878576 129.002552 
L 96.817916 130.063212 
L 97.878576 131.123872 
L 96.817916 132.184532 
z
" clip-path="url(#p00e158d11a)" style="fill: #88ccee; fill-opacity: 0.6; stroke: #ffffff; stroke-opacity: 0.6; stroke-width: 0.339411"/>
    <path d="M 81.09784 106.041861 
L 82.1585 104.981201 
L 83.21916 106.041861 
L 84.279821 104.981201 
L 83.21916 103.920541 
L 84.279821 102.85988 
L 83.21916 101.79922 
L 82.1585 102.85988 
L 81.09784 101.79922 
L 80.03718 102.85988 
L 81.09784 103.920541 
L 80.03718 104.981201 
z
" clip-path="url(#p00e158d11a)" style="fill: #88ccee; fill-opacity: 0.6; stroke: #ffffff; stroke-opacity: 0.6; stroke-width: 0.339411"/>
    <path d="M 116.283749 105.844943 
L 117.344409 104.784283 
L 118.405069 105.844943 
L 119.465729 104.784283 
L 118.405069 103.723623 
L 119.465729 102.662963 
L 118.405069 101.602303 
L 117.344409 102.662963 
L 116.283749 101.602303 
L 115.223088 102.662963 
L 116.283749 103.723623 
L 115.223088 104.784283 
z
" clip-path="url(#p00e158d11a)" style="fill: #88ccee; fill-opacity: 0.6; stroke: #ffffff; stroke-opacity: 0.6; stroke-width: 0.339411"/>
    <path d="M 81.29247 148.13796 
L 82.353131 147.0773 
L 83.413791 148.13796 
L 84.474451 147.0773 
L 83.413791 146.01664 
L 84.474451 144.95598 
L 83.413791 143.895319 
L 82.353131 144.95598 
L 81.29247 143.895319 
L 80.23181 144.95598 
L 81.29247 146.01664 
L 80.23181 147.0773 
z
" clip-path="url(#p00e158d11a)" style="fill: #88ccee; fill-opacity: 0.6; stroke: #ffffff; stroke-opacity: 0.6; stroke-width: 0.339411"/>
    <path d="M 97.905171 126.366049 
L 98.965831 125.305388 
L 100.026492 126.366049 
L 101.087152 125.305388 
L 100.026492 124.244728 
L 101.087152 123.184068 
L 100.026492 122.123408 
L 98.965831 123.184068 
L 97.905171 122.123408 
L 96.844511 123.184068 
L 97.905171 124.244728 
L 96.844511 125.305388 
z
" clip-path="url(#p00e158d11a)" style="fill: #88ccee; fill-opacity: 0.6; stroke: #ffffff; stroke-opacity: 0.6; stroke-width: 0.339411"/>
    <path d="M 113.146695 132.210832 
L 114.207356 131.150171 
L 115.268016 132.210832 
L 116.328676 131.150171 
L 115.268016 130.089511 
L 116.328676 129.028851 
L 115.268016 127.968191 
L 114.207356 129.028851 
L 113.146695 127.968191 
L 112.086035 129.028851 
L 113.146695 130.089511 
L 112.086035 131.150171 
z
" clip-path="url(#p00e158d11a)" style="fill: #88ccee; fill-opacity: 0.6; stroke: #ffffff; stroke-opacity: 0.6; stroke-width: 0.339411"/>
    <path d="M 122.820435 99.983709 
L 123.881095 98.923049 
L 124.941755 99.983709 
L 126.002416 98.923049 
L 124.941755 97.862388 
L 126.002416 96.801728 
L 124.941755 95.741068 
L 123.881095 96.801728 
L 122.820435 95.741068 
L 121.759775 96.801728 
L 122.820435 97.862388 
L 121.759775 98.923049 
z
" clip-path="url(#p00e158d11a)" style="fill: #88ccee; fill-opacity: 0.6; stroke: #ffffff; stroke-opacity: 0.6; stroke-width: 0.339411"/>
    <path d="M 86.461115 129.14752 
L 87.521775 128.08686 
L 88.582435 129.14752 
L 89.643095 128.08686 
L 88.582435 127.0262 
L 89.643095 125.965539 
L 88.582435 124.904879 
L 87.521775 125.965539 
L 86.461115 124.904879 
L 85.400455 125.965539 
L 86.461115 127.0262 
L 85.400455 128.08686 
z
" clip-path="url(#p00e158d11a)" style="fill: #88ccee; fill-opacity: 0.6; stroke: #ffffff; stroke-opacity: 0.6; stroke-width: 0.339411"/>
    <path d="M 94.219137 133.07011 
L 95.279797 132.00945 
L 96.340457 133.07011 
L 97.401117 132.00945 
L 96.340457 130.94879 
L 97.401117 129.88813 
L 96.340457 128.82747 
L 95.279797 129.88813 
L 94.219137 128.82747 
L 93.158477 129.88813 
L 94.219137 130.94879 
L 93.158477 132.00945 
z
" clip-path="url(#p00e158d11a)" style="fill: #88ccee; fill-opacity: 0.6; stroke: #ffffff; stroke-opacity: 0.6; stroke-width: 0.339411"/>
    <path d="M 81.65561 95.856816 
L 82.71627 94.796156 
L 83.77693 95.856816 
L 84.83759 94.796156 
L 83.77693 93.735495 
L 84.83759 92.674835 
L 83.77693 91.614175 
L 82.71627 92.674835 
L 81.65561 91.614175 
L 80.59495 92.674835 
L 81.65561 93.735495 
L 80.59495 94.796156 
z
" clip-path="url(#p00e158d11a)" style="fill: #88ccee; fill-opacity: 0.6; stroke: #ffffff; stroke-opacity: 0.6; stroke-width: 0.339411"/>
    <path d="M 95.328536 93.617 
L 96.389196 92.55634 
L 97.449856 93.617 
L 98.510516 92.55634 
L 97.449856 91.495679 
L 98.510516 90.435019 
L 97.449856 89.374359 
L 96.389196 90.435019 
L 95.328536 89.374359 
L 94.267876 90.435019 
L 95.328536 91.495679 
L 94.267876 92.55634 
z
" clip-path="url(#p00e158d11a)" style="fill: #88ccee; fill-opacity: 0.6; stroke: #ffffff; stroke-opacity: 0.6; stroke-width: 0.339411"/>
    <path d="M 130.167763 152.088592 
L 131.228423 151.027932 
L 132.289084 152.088592 
L 133.349744 151.027932 
L 132.289084 149.967272 
L 133.349744 148.906611 
L 132.289084 147.845951 
L 131.228423 148.906611 
L 130.167763 147.845951 
L 129.107103 148.906611 
L 130.167763 149.967272 
L 129.107103 151.027932 
z
" clip-path="url(#p00e158d11a)" style="fill: #88ccee; fill-opacity: 0.6; stroke: #ffffff; stroke-opacity: 0.6; stroke-width: 0.339411"/>
    <path d="M 99.220259 123.097723 
L 100.280919 122.037062 
L 101.341579 123.097723 
L 102.402239 122.037062 
L 101.341579 120.976402 
L 102.402239 119.915742 
L 101.341579 118.855082 
L 100.280919 119.915742 
L 99.220259 118.855082 
L 98.159599 119.915742 
L 99.220259 120.976402 
L 98.159599 122.037062 
z
" clip-path="url(#p00e158d11a)" style="fill: #88ccee; fill-opacity: 0.6; stroke: #ffffff; stroke-opacity: 0.6; stroke-width: 0.339411"/>
    <path d="M 161.879776 152.949544 
L 162.940437 151.888883 
L 164.001097 152.949544 
L 165.061757 151.888883 
L 164.001097 150.828223 
L 165.061757 149.767563 
L 164.001097 148.706903 
L 162.940437 149.767563 
L 161.879776 148.706903 
L 160.819116 149.767563 
L 161.879776 150.828223 
L 160.819116 151.888883 
z
" clip-path="url(#p00e158d11a)" style="fill: #88ccee; fill-opacity: 0.6; stroke: #ffffff; stroke-opacity: 0.6; stroke-width: 0.339411"/>
    <path d="M 91.777105 150.98972 
L 92.837765 149.92906 
L 93.898425 150.98972 
L 94.959086 149.92906 
L 93.898425 148.8684 
L 94.959086 147.80774 
L 93.898425 146.74708 
L 92.837765 147.80774 
L 91.777105 146.74708 
L 90.716445 147.80774 
L 91.777105 148.8684 
L 90.716445 149.92906 
z
" clip-path="url(#p00e158d11a)" style="fill: #88ccee; fill-opacity: 0.6; stroke: #ffffff; stroke-opacity: 0.6; stroke-width: 0.339411"/>
    <path d="M 79.125813 139.018333 
L 80.186474 137.957673 
L 81.247134 139.018333 
L 82.307794 137.957673 
L 81.247134 136.897013 
L 82.307794 135.836352 
L 81.247134 134.775692 
L 80.186474 135.836352 
L 79.125813 134.775692 
L 78.065153 135.836352 
L 79.125813 136.897013 
L 78.065153 137.957673 
z
" clip-path="url(#p00e158d11a)" style="fill: #88ccee; fill-opacity: 0.6; stroke: #ffffff; stroke-opacity: 0.6; stroke-width: 0.339411"/>
    <path d="M 96.264654 146.61793 
L 97.325314 145.55727 
L 98.385974 146.61793 
L 99.446634 145.55727 
L 98.385974 144.496609 
L 99.446634 143.435949 
L 98.385974 142.375289 
L 97.325314 143.435949 
L 96.264654 142.375289 
L 95.203993 143.435949 
L 96.264654 144.496609 
L 95.203993 145.55727 
z
" clip-path="url(#p00e158d11a)" style="fill: #88ccee; fill-opacity: 0.6; stroke: #ffffff; stroke-opacity: 0.6; stroke-width: 0.339411"/>
    <path d="M 93.75387 125.540169 
L 94.81453 124.479509 
L 95.87519 125.540169 
L 96.93585 124.479509 
L 95.87519 123.418849 
L 96.93585 122.358189 
L 95.87519 121.297528 
L 94.81453 122.358189 
L 93.75387 121.297528 
L 92.69321 122.358189 
L 93.75387 123.418849 
L 92.69321 124.479509 
z
" clip-path="url(#p00e158d11a)" style="fill: #88ccee; fill-opacity: 0.6; stroke: #ffffff; stroke-opacity: 0.6; stroke-width: 0.339411"/>
    <path d="M 105.152094 107.57333 
L 106.212755 106.51267 
L 107.273415 107.57333 
L 108.334075 106.51267 
L 107.273415 105.45201 
L 108.334075 104.391349 
L 107.273415 103.330689 
L 106.212755 104.391349 
L 105.152094 103.330689 
L 104.091434 104.391349 
L 105.152094 105.45201 
L 104.091434 106.51267 
z
" clip-path="url(#p00e158d11a)" style="fill: #88ccee; fill-opacity: 0.6; stroke: #ffffff; stroke-opacity: 0.6; stroke-width: 0.339411"/>
    <path d="M 74.108232 107.875668 
L 75.168892 106.815008 
L 76.229552 107.875668 
L 77.290213 106.815008 
L 76.229552 105.754347 
L 77.290213 104.693687 
L 76.229552 103.633027 
L 75.168892 104.693687 
L 74.108232 103.633027 
L 73.047572 104.693687 
L 74.108232 105.754347 
L 73.047572 106.815008 
z
" clip-path="url(#p00e158d11a)" style="fill: #88ccee; fill-opacity: 0.6; stroke: #ffffff; stroke-opacity: 0.6; stroke-width: 0.339411"/>
    <path d="M 93.468217 131.858295 
L 94.528877 130.797635 
L 95.589537 131.858295 
L 96.650197 130.797635 
L 95.589537 129.736975 
L 96.650197 128.676315 
L 95.589537 127.615655 
L 94.528877 128.676315 
L 93.468217 127.615655 
L 92.407556 128.676315 
L 93.468217 129.736975 
L 92.407556 130.797635 
z
" clip-path="url(#p00e158d11a)" style="fill: #88ccee; fill-opacity: 0.6; stroke: #ffffff; stroke-opacity: 0.6; stroke-width: 0.339411"/>
    <path d="M 134.934937 153.199345 
L 135.995598 152.138685 
L 137.056258 153.199345 
L 138.116918 152.138685 
L 137.056258 151.078025 
L 138.116918 150.017364 
L 137.056258 148.956704 
L 135.995598 150.017364 
L 134.934937 148.956704 
L 133.874277 150.017364 
L 134.934937 151.078025 
L 133.874277 152.138685 
z
" clip-path="url(#p00e158d11a)" style="fill: #88ccee; fill-opacity: 0.6; stroke: #ffffff; stroke-opacity: 0.6; stroke-width: 0.339411"/>
    <path d="M 95.649959 137.987569 
L 96.710619 136.926909 
L 97.771279 137.987569 
L 98.83194 136.926909 
L 97.771279 135.866249 
L 98.83194 134.805589 
L 97.771279 133.744929 
L 96.710619 134.805589 
L 95.649959 133.744929 
L 94.589299 134.805589 
L 95.649959 135.866249 
L 94.589299 136.926909 
z
" clip-path="url(#p00e158d11a)" style="fill: #88ccee; fill-opacity: 0.6; stroke: #ffffff; stroke-opacity: 0.6; stroke-width: 0.339411"/>
    <path d="M 81.160823 129.987016 
L 82.221484 128.926356 
L 83.282144 129.987016 
L 84.342804 128.926356 
L 83.282144 127.865695 
L 84.342804 126.805035 
L 83.282144 125.744375 
L 82.221484 126.805035 
L 81.160823 125.744375 
L 80.100163 126.805035 
L 81.160823 127.865695 
L 80.100163 128.926356 
z
" clip-path="url(#p00e158d11a)" style="fill: #88ccee; fill-opacity: 0.6; stroke: #ffffff; stroke-opacity: 0.6; stroke-width: 0.339411"/>
    <path d="M 93.813989 121.273791 
L 94.874649 120.21313 
L 95.935309 121.273791 
L 96.995969 120.21313 
L 95.935309 119.15247 
L 96.995969 118.09181 
L 95.935309 117.03115 
L 94.874649 118.09181 
L 93.813989 117.03115 
L 92.753329 118.09181 
L 93.813989 119.15247 
L 92.753329 120.21313 
z
" clip-path="url(#p00e158d11a)" style="fill: #88ccee; fill-opacity: 0.6; stroke: #ffffff; stroke-opacity: 0.6; stroke-width: 0.339411"/>
    <path d="M 102.04175 137.266594 
L 103.10241 136.205934 
L 104.16307 137.266594 
L 105.223731 136.205934 
L 104.16307 135.145274 
L 105.223731 134.084613 
L 104.16307 133.023953 
L 103.10241 134.084613 
L 102.04175 133.023953 
L 100.98109 134.084613 
L 102.04175 135.145274 
L 100.98109 136.205934 
z
" clip-path="url(#p00e158d11a)" style="fill: #88ccee; fill-opacity: 0.6; stroke: #ffffff; stroke-opacity: 0.6; stroke-width: 0.339411"/>
    <path d="M 108.353209 105.031823 
L 109.413869 103.971163 
L 110.474529 105.031823 
L 111.535189 103.971163 
L 110.474529 102.910502 
L 111.535189 101.849842 
L 110.474529 100.789182 
L 109.413869 101.849842 
L 108.353209 100.789182 
L 107.292548 101.849842 
L 108.353209 102.910502 
L 107.292548 103.971163 
z
" clip-path="url(#p00e158d11a)" style="fill: #88ccee; fill-opacity: 0.6; stroke: #ffffff; stroke-opacity: 0.6; stroke-width: 0.339411"/>
    <path d="M 99.569728 125.534224 
L 100.630389 124.473564 
L 101.691049 125.534224 
L 102.751709 124.473564 
L 101.691049 123.412904 
L 102.751709 122.352244 
L 101.691049 121.291584 
L 100.630389 122.352244 
L 99.569728 121.291584 
L 98.509068 122.352244 
L 99.569728 123.412904 
L 98.509068 124.473564 
z
" clip-path="url(#p00e158d11a)" style="fill: #88ccee; fill-opacity: 0.6; stroke: #ffffff; stroke-opacity: 0.6; stroke-width: 0.339411"/>
    <path d="M 84.771535 120.79513 
L 85.832195 119.73447 
L 86.892855 120.79513 
L 87.953516 119.73447 
L 86.892855 118.67381 
L 87.953516 117.61315 
L 86.892855 116.55249 
L 85.832195 117.61315 
L 84.771535 116.55249 
L 83.710875 117.61315 
L 84.771535 118.67381 
L 83.710875 119.73447 
z
" clip-path="url(#p00e158d11a)" style="fill: #88ccee; fill-opacity: 0.6; stroke: #ffffff; stroke-opacity: 0.6; stroke-width: 0.339411"/>
    <path d="M 84.106918 114.461477 
L 85.167578 113.400817 
L 86.228239 114.461477 
L 87.288899 113.400817 
L 86.228239 112.340157 
L 87.288899 111.279497 
L 86.228239 110.218837 
L 85.167578 111.279497 
L 84.106918 110.218837 
L 83.046258 111.279497 
L 84.106918 112.340157 
L 83.046258 113.400817 
z
" clip-path="url(#p00e158d11a)" style="fill: #88ccee; fill-opacity: 0.6; stroke: #ffffff; stroke-opacity: 0.6; stroke-width: 0.339411"/>
    <path d="M 104.433034 142.909248 
L 105.493694 141.848588 
L 106.554355 142.909248 
L 107.615015 141.848588 
L 106.554355 140.787928 
L 107.615015 139.727268 
L 106.554355 138.666608 
L 105.493694 139.727268 
L 104.433034 138.666608 
L 103.372374 139.727268 
L 104.433034 140.787928 
L 103.372374 141.848588 
z
" clip-path="url(#p00e158d11a)" style="fill: #88ccee; fill-opacity: 0.6; stroke: #ffffff; stroke-opacity: 0.6; stroke-width: 0.339411"/>
    <path d="M 95.520142 131.541958 
L 96.580802 130.481297 
L 97.641462 131.541958 
L 98.702122 130.481297 
L 97.641462 129.420637 
L 98.702122 128.359977 
L 97.641462 127.299317 
L 96.580802 128.359977 
L 95.520142 127.299317 
L 94.459481 128.359977 
L 95.520142 129.420637 
L 94.459481 130.481297 
z
" clip-path="url(#p00e158d11a)" style="fill: #88ccee; fill-opacity: 0.6; stroke: #ffffff; stroke-opacity: 0.6; stroke-width: 0.339411"/>
   </g>
   <g id="matplotlib.axis_1">
    <g id="xtick_1">
     <g id="line2d_1">
      <defs>
       <path id="m725b44b5ff" d="M 0 0 
L 0 8 
" style="stroke: #000000"/>
      </defs>
      <g>
       <use xlink:href="#m725b44b5ff" x="64.426667" y="182.532244" style="stroke: #000000"/>
      </g>
     </g>
     <g id="text_1">
      <!-- 30 -->
      <g transform="translate(51.763855 203.150369) scale(0.12 -0.12)">
       <defs>
        <path id="DejaVuSans-2212" d="M 678 2272 
L 4684 2272 
L 4684 1741 
L 678 1741 
L 678 2272 
z
" transform="scale(0.015625)"/>
        <path id="DejaVuSans-33" d="M 2597 2516 
Q 3050 2419 3304 2112 
Q 3559 1806 3559 1356 
Q 3559 666 3084 287 
Q 2609 -91 1734 -91 
Q 1441 -91 1130 -33 
Q 819 25 488 141 
L 488 750 
Q 750 597 1062 519 
Q 1375 441 1716 441 
Q 2309 441 2620 675 
Q 2931 909 2931 1356 
Q 2931 1769 2642 2001 
Q 2353 2234 1838 2234 
L 1294 2234 
L 1294 2753 
L 1863 2753 
Q 2328 2753 2575 2939 
Q 2822 3125 2822 3475 
Q 2822 3834 2567 4026 
Q 2313 4219 1838 4219 
Q 1578 4219 1281 4162 
Q 984 4106 628 3988 
L 628 4550 
Q 988 4650 1302 4700 
Q 1616 4750 1894 4750 
Q 2613 4750 3031 4423 
Q 3450 4097 3450 3541 
Q 3450 3153 3228 2886 
Q 3006 2619 2597 2516 
z
" transform="scale(0.015625)"/>
        <path id="DejaVuSans-30" d="M 2034 4250 
Q 1547 4250 1301 3770 
Q 1056 3291 1056 2328 
Q 1056 1369 1301 889 
Q 1547 409 2034 409 
Q 2525 409 2770 889 
Q 3016 1369 3016 2328 
Q 3016 3291 2770 3770 
Q 2525 4250 2034 4250 
z
M 2034 4750 
Q 2819 4750 3233 4129 
Q 3647 3509 3647 2328 
Q 3647 1150 3233 529 
Q 2819 -91 2034 -91 
Q 1250 -91 836 529 
Q 422 1150 422 2328 
Q 422 3509 836 4129 
Q 1250 4750 2034 4750 
z
" transform="scale(0.015625)"/>
       </defs>
       <use xlink:href="#DejaVuSans-2212"/>
       <use xlink:href="#DejaVuSans-33" x="83.789062"/>
       <use xlink:href="#DejaVuSans-30" x="147.412109"/>
      </g>
     </g>
    </g>
    <g id="xtick_2">
     <g id="line2d_2">
      <g>
       <use xlink:href="#m725b44b5ff" x="84.027257" y="182.532244" style="stroke: #000000"/>
      </g>
     </g>
     <g id="text_2">
      <!-- 20 -->
      <g transform="translate(71.364444 203.150369) scale(0.12 -0.12)">
       <defs>
        <path id="DejaVuSans-32" d="M 1228 531 
L 3431 531 
L 3431 0 
L 469 0 
L 469 531 
Q 828 903 1448 1529 
Q 2069 2156 2228 2338 
Q 2531 2678 2651 2914 
Q 2772 3150 2772 3378 
Q 2772 3750 2511 3984 
Q 2250 4219 1831 4219 
Q 1534 4219 1204 4116 
Q 875 4013 500 3803 
L 500 4441 
Q 881 4594 1212 4672 
Q 1544 4750 1819 4750 
Q 2544 4750 2975 4387 
Q 3406 4025 3406 3419 
Q 3406 3131 3298 2873 
Q 3191 2616 2906 2266 
Q 2828 2175 2409 1742 
Q 1991 1309 1228 531 
z
" transform="scale(0.015625)"/>
       </defs>
       <use xlink:href="#DejaVuSans-2212"/>
       <use xlink:href="#DejaVuSans-32" x="83.789062"/>
       <use xlink:href="#DejaVuSans-30" x="147.412109"/>
      </g>
     </g>
    </g>
    <g id="xtick_3">
     <g id="line2d_3">
      <g>
       <use xlink:href="#m725b44b5ff" x="103.627846" y="182.532244" style="stroke: #000000"/>
      </g>
     </g>
     <g id="text_3">
      <!-- 10 -->
      <g transform="translate(90.965034 203.150369) scale(0.12 -0.12)">
       <defs>
        <path id="DejaVuSans-31" d="M 794 531 
L 1825 531 
L 1825 4091 
L 703 3866 
L 703 4441 
L 1819 4666 
L 2450 4666 
L 2450 531 
L 3481 531 
L 3481 0 
L 794 0 
L 794 531 
z
" transform="scale(0.015625)"/>
       </defs>
       <use xlink:href="#DejaVuSans-2212"/>
       <use xlink:href="#DejaVuSans-31" x="83.789062"/>
       <use xlink:href="#DejaVuSans-30" x="147.412109"/>
      </g>
     </g>
    </g>
    <g id="xtick_4">
     <g id="line2d_4">
      <g>
       <use xlink:href="#m725b44b5ff" x="123.228436" y="182.532244" style="stroke: #000000"/>
      </g>
     </g>
     <g id="text_4">
      <!-- 0 -->
      <g transform="translate(119.410936 203.150369) scale(0.12 -0.12)">
       <use xlink:href="#DejaVuSans-30"/>
      </g>
     </g>
    </g>
    <g id="xtick_5">
     <g id="line2d_5">
      <g>
       <use xlink:href="#m725b44b5ff" x="142.829025" y="182.532244" style="stroke: #000000"/>
      </g>
     </g>
     <g id="text_5">
      <!-- 10 -->
      <g transform="translate(135.194025 203.150369) scale(0.12 -0.12)">
       <use xlink:href="#DejaVuSans-31"/>
       <use xlink:href="#DejaVuSans-30" x="63.623047"/>
      </g>
     </g>
    </g>
    <g id="xtick_6">
     <g id="line2d_6">
      <g>
       <use xlink:href="#m725b44b5ff" x="162.429615" y="182.532244" style="stroke: #000000"/>
      </g>
     </g>
     <g id="text_6">
      <!-- 20 -->
      <g transform="translate(154.794615 203.150369) scale(0.12 -0.12)">
       <use xlink:href="#DejaVuSans-32"/>
       <use xlink:href="#DejaVuSans-30" x="63.623047"/>
      </g>
     </g>
    </g>
    <g id="xtick_7">
     <g id="line2d_7">
      <g>
       <use xlink:href="#m725b44b5ff" x="182.030204" y="182.532244" style="stroke: #000000"/>
      </g>
     </g>
     <g id="text_7">
      <!-- 30 -->
      <g transform="translate(174.395204 203.150369) scale(0.12 -0.12)">
       <use xlink:href="#DejaVuSans-33"/>
       <use xlink:href="#DejaVuSans-30" x="63.623047"/>
      </g>
     </g>
    </g>
    <g id="xtick_8">
     <g id="line2d_8">
      <g>
       <use xlink:href="#m725b44b5ff" x="201.630794" y="182.532244" style="stroke: #000000"/>
      </g>
     </g>
     <g id="text_8">
      <!-- 40 -->
      <g transform="translate(193.995794 203.150369) scale(0.12 -0.12)">
       <defs>
        <path id="DejaVuSans-34" d="M 2419 4116 
L 825 1625 
L 2419 1625 
L 2419 4116 
z
M 2253 4666 
L 3047 4666 
L 3047 1625 
L 3713 1625 
L 3713 1100 
L 3047 1100 
L 3047 0 
L 2419 0 
L 2419 1100 
L 313 1100 
L 313 1709 
L 2253 4666 
z
" transform="scale(0.015625)"/>
       </defs>
       <use xlink:href="#DejaVuSans-34"/>
       <use xlink:href="#DejaVuSans-30" x="63.623047"/>
      </g>
     </g>
    </g>
    <g id="xtick_9">
     <g id="line2d_9">
      <g>
       <use xlink:href="#m725b44b5ff" x="221.231383" y="182.532244" style="stroke: #000000"/>
      </g>
     </g>
     <g id="text_9">
      <!-- 50 -->
      <g transform="translate(213.596383 203.150369) scale(0.12 -0.12)">
       <defs>
        <path id="DejaVuSans-35" d="M 691 4666 
L 3169 4666 
L 3169 4134 
L 1269 4134 
L 1269 2991 
Q 1406 3038 1543 3061 
Q 1681 3084 1819 3084 
Q 2600 3084 3056 2656 
Q 3513 2228 3513 1497 
Q 3513 744 3044 326 
Q 2575 -91 1722 -91 
Q 1428 -91 1123 -41 
Q 819 9 494 109 
L 494 744 
Q 775 591 1075 516 
Q 1375 441 1709 441 
Q 2250 441 2565 725 
Q 2881 1009 2881 1497 
Q 2881 1984 2565 2268 
Q 2250 2553 1709 2553 
Q 1456 2553 1204 2497 
Q 953 2441 691 2322 
L 691 4666 
z
" transform="scale(0.015625)"/>
       </defs>
       <use xlink:href="#DejaVuSans-35"/>
       <use xlink:href="#DejaVuSans-30" x="63.623047"/>
      </g>
     </g>
    </g>
    <g id="text_10">
     <!-- PC 1 (33.19%) -->
     <g transform="translate(100.515759 218.764119) scale(0.12 -0.12)">
      <defs>
       <path id="DejaVuSans-50" d="M 1259 4147 
L 1259 2394 
L 2053 2394 
Q 2494 2394 2734 2622 
Q 2975 2850 2975 3272 
Q 2975 3691 2734 3919 
Q 2494 4147 2053 4147 
L 1259 4147 
z
M 628 4666 
L 2053 4666 
Q 2838 4666 3239 4311 
Q 3641 3956 3641 3272 
Q 3641 2581 3239 2228 
Q 2838 1875 2053 1875 
L 1259 1875 
L 1259 0 
L 628 0 
L 628 4666 
z
" transform="scale(0.015625)"/>
       <path id="DejaVuSans-43" d="M 4122 4306 
L 4122 3641 
Q 3803 3938 3442 4084 
Q 3081 4231 2675 4231 
Q 1875 4231 1450 3742 
Q 1025 3253 1025 2328 
Q 1025 1406 1450 917 
Q 1875 428 2675 428 
Q 3081 428 3442 575 
Q 3803 722 4122 1019 
L 4122 359 
Q 3791 134 3420 21 
Q 3050 -91 2638 -91 
Q 1578 -91 968 557 
Q 359 1206 359 2328 
Q 359 3453 968 4101 
Q 1578 4750 2638 4750 
Q 3056 4750 3426 4639 
Q 3797 4528 4122 4306 
z
" transform="scale(0.015625)"/>
       <path id="DejaVuSans-20" transform="scale(0.015625)"/>
       <path id="DejaVuSans-28" d="M 1984 4856 
Q 1566 4138 1362 3434 
Q 1159 2731 1159 2009 
Q 1159 1288 1364 580 
Q 1569 -128 1984 -844 
L 1484 -844 
Q 1016 -109 783 600 
Q 550 1309 550 2009 
Q 550 2706 781 3412 
Q 1013 4119 1484 4856 
L 1984 4856 
z
" transform="scale(0.015625)"/>
       <path id="DejaVuSans-2e" d="M 684 794 
L 1344 794 
L 1344 0 
L 684 0 
L 684 794 
z
" transform="scale(0.015625)"/>
       <path id="DejaVuSans-39" d="M 703 97 
L 703 672 
Q 941 559 1184 500 
Q 1428 441 1663 441 
Q 2288 441 2617 861 
Q 2947 1281 2994 2138 
Q 2813 1869 2534 1725 
Q 2256 1581 1919 1581 
Q 1219 1581 811 2004 
Q 403 2428 403 3163 
Q 403 3881 828 4315 
Q 1253 4750 1959 4750 
Q 2769 4750 3195 4129 
Q 3622 3509 3622 2328 
Q 3622 1225 3098 567 
Q 2575 -91 1691 -91 
Q 1453 -91 1209 -44 
Q 966 3 703 97 
z
M 1959 2075 
Q 2384 2075 2632 2365 
Q 2881 2656 2881 3163 
Q 2881 3666 2632 3958 
Q 2384 4250 1959 4250 
Q 1534 4250 1286 3958 
Q 1038 3666 1038 3163 
Q 1038 2656 1286 2365 
Q 1534 2075 1959 2075 
z
" transform="scale(0.015625)"/>
       <path id="DejaVuSans-25" d="M 4653 2053 
Q 4381 2053 4226 1822 
Q 4072 1591 4072 1178 
Q 4072 772 4226 539 
Q 4381 306 4653 306 
Q 4919 306 5073 539 
Q 5228 772 5228 1178 
Q 5228 1588 5073 1820 
Q 4919 2053 4653 2053 
z
M 4653 2450 
Q 5147 2450 5437 2106 
Q 5728 1763 5728 1178 
Q 5728 594 5436 251 
Q 5144 -91 4653 -91 
Q 4153 -91 3862 251 
Q 3572 594 3572 1178 
Q 3572 1766 3864 2108 
Q 4156 2450 4653 2450 
z
M 1428 4353 
Q 1159 4353 1004 4120 
Q 850 3888 850 3481 
Q 850 3069 1003 2837 
Q 1156 2606 1428 2606 
Q 1700 2606 1854 2837 
Q 2009 3069 2009 3481 
Q 2009 3884 1853 4118 
Q 1697 4353 1428 4353 
z
M 4250 4750 
L 4750 4750 
L 1831 -91 
L 1331 -91 
L 4250 4750 
z
M 1428 4750 
Q 1922 4750 2215 4408 
Q 2509 4066 2509 3481 
Q 2509 2891 2217 2550 
Q 1925 2209 1428 2209 
Q 931 2209 642 2551 
Q 353 2894 353 3481 
Q 353 4063 643 4406 
Q 934 4750 1428 4750 
z
" transform="scale(0.015625)"/>
       <path id="DejaVuSans-29" d="M 513 4856 
L 1013 4856 
Q 1481 4119 1714 3412 
Q 1947 2706 1947 2009 
Q 1947 1309 1714 600 
Q 1481 -109 1013 -844 
L 513 -844 
Q 928 -128 1133 580 
Q 1338 1288 1338 2009 
Q 1338 2731 1133 3434 
Q 928 4138 513 4856 
z
" transform="scale(0.015625)"/>
      </defs>
      <use xlink:href="#DejaVuSans-50"/>
      <use xlink:href="#DejaVuSans-43" x="60.302734"/>
      <use xlink:href="#DejaVuSans-20" x="130.126953"/>
      <use xlink:href="#DejaVuSans-31" x="161.914062"/>
      <use xlink:href="#DejaVuSans-20" x="225.537109"/>
      <use xlink:href="#DejaVuSans-28" x="257.324219"/>
      <use xlink:href="#DejaVuSans-33" x="296.337891"/>
      <use xlink:href="#DejaVuSans-33" x="359.960938"/>
      <use xlink:href="#DejaVuSans-2e" x="423.583984"/>
      <use xlink:href="#DejaVuSans-31" x="455.371094"/>
      <use xlink:href="#DejaVuSans-39" x="518.994141"/>
      <use xlink:href="#DejaVuSans-25" x="582.617188"/>
      <use xlink:href="#DejaVuSans-29" x="677.636719"/>
     </g>
    </g>
   </g>
   <g id="matplotlib.axis_2">
    <g id="ytick_1">
     <g id="line2d_10">
      <defs>
       <path id="m0342ae3917" d="M 0 0 
L -8 0 
" style="stroke: #000000"/>
      </defs>
      <g>
       <use xlink:href="#m0342ae3917" x="64.037638" y="182.143215" style="stroke: #000000"/>
      </g>
     </g>
     <g id="text_11">
      <!-- 30 -->
      <g transform="translate(27.212013 186.702277) scale(0.12 -0.12)">
       <use xlink:href="#DejaVuSans-2212"/>
       <use xlink:href="#DejaVuSans-33" x="83.789062"/>
       <use xlink:href="#DejaVuSans-30" x="147.412109"/>
      </g>
     </g>
    </g>
    <g id="ytick_2">
     <g id="line2d_11">
      <g>
       <use xlink:href="#m0342ae3917" x="64.037638" y="162.542625" style="stroke: #000000"/>
      </g>
     </g>
     <g id="text_12">
      <!-- 20 -->
      <g transform="translate(27.212013 167.101688) scale(0.12 -0.12)">
       <use xlink:href="#DejaVuSans-2212"/>
       <use xlink:href="#DejaVuSans-32" x="83.789062"/>
       <use xlink:href="#DejaVuSans-30" x="147.412109"/>
      </g>
     </g>
    </g>
    <g id="ytick_3">
     <g id="line2d_12">
      <g>
       <use xlink:href="#m0342ae3917" x="64.037638" y="142.942036" style="stroke: #000000"/>
      </g>
     </g>
     <g id="text_13">
      <!-- 10 -->
      <g transform="translate(27.212013 147.501098) scale(0.12 -0.12)">
       <use xlink:href="#DejaVuSans-2212"/>
       <use xlink:href="#DejaVuSans-31" x="83.789062"/>
       <use xlink:href="#DejaVuSans-30" x="147.412109"/>
      </g>
     </g>
    </g>
    <g id="ytick_4">
     <g id="line2d_13">
      <g>
       <use xlink:href="#m0342ae3917" x="64.037638" y="123.341446" style="stroke: #000000"/>
      </g>
     </g>
     <g id="text_14">
      <!-- 0 -->
      <g transform="translate(44.902638 127.900509) scale(0.12 -0.12)">
       <use xlink:href="#DejaVuSans-30"/>
      </g>
     </g>
    </g>
    <g id="ytick_5">
     <g id="line2d_14">
      <g>
       <use xlink:href="#m0342ae3917" x="64.037638" y="103.740857" style="stroke: #000000"/>
      </g>
     </g>
     <g id="text_15">
      <!-- 10 -->
      <g transform="translate(37.267638 108.299919) scale(0.12 -0.12)">
       <use xlink:href="#DejaVuSans-31"/>
       <use xlink:href="#DejaVuSans-30" x="63.623047"/>
      </g>
     </g>
    </g>
    <g id="ytick_6">
     <g id="line2d_15">
      <g>
       <use xlink:href="#m0342ae3917" x="64.037638" y="84.140267" style="stroke: #000000"/>
      </g>
     </g>
     <g id="text_16">
      <!-- 20 -->
      <g transform="translate(37.267638 88.69933) scale(0.12 -0.12)">
       <use xlink:href="#DejaVuSans-32"/>
       <use xlink:href="#DejaVuSans-30" x="63.623047"/>
      </g>
     </g>
    </g>
    <g id="ytick_7">
     <g id="line2d_16">
      <g>
       <use xlink:href="#m0342ae3917" x="64.037638" y="64.539678" style="stroke: #000000"/>
      </g>
     </g>
     <g id="text_17">
      <!-- 30 -->
      <g transform="translate(37.267638 69.09874) scale(0.12 -0.12)">
       <use xlink:href="#DejaVuSans-33"/>
       <use xlink:href="#DejaVuSans-30" x="63.623047"/>
      </g>
     </g>
    </g>
    <g id="ytick_8">
     <g id="line2d_17">
      <g>
       <use xlink:href="#m0342ae3917" x="64.037638" y="44.939088" style="stroke: #000000"/>
      </g>
     </g>
     <g id="text_18">
      <!-- 40 -->
      <g transform="translate(37.267638 49.498151) scale(0.12 -0.12)">
       <use xlink:href="#DejaVuSans-34"/>
       <use xlink:href="#DejaVuSans-30" x="63.623047"/>
      </g>
     </g>
    </g>
    <g id="ytick_9">
     <g id="line2d_18">
      <g>
       <use xlink:href="#m0342ae3917" x="64.037638" y="25.338499" style="stroke: #000000"/>
      </g>
     </g>
     <g id="text_19">
      <!-- 50 -->
      <g transform="translate(37.267638 29.897561) scale(0.12 -0.12)">
       <use xlink:href="#DejaVuSans-35"/>
       <use xlink:href="#DejaVuSans-30" x="63.623047"/>
      </g>
     </g>
    </g>
    <g id="text_20">
     <!-- PC 2 (18.18%) -->
     <g transform="translate(20.716388 146.054123) rotate(-90) scale(0.12 -0.12)">
      <defs>
       <path id="DejaVuSans-38" d="M 2034 2216 
Q 1584 2216 1326 1975 
Q 1069 1734 1069 1313 
Q 1069 891 1326 650 
Q 1584 409 2034 409 
Q 2484 409 2743 651 
Q 3003 894 3003 1313 
Q 3003 1734 2745 1975 
Q 2488 2216 2034 2216 
z
M 1403 2484 
Q 997 2584 770 2862 
Q 544 3141 544 3541 
Q 544 4100 942 4425 
Q 1341 4750 2034 4750 
Q 2731 4750 3128 4425 
Q 3525 4100 3525 3541 
Q 3525 3141 3298 2862 
Q 3072 2584 2669 2484 
Q 3125 2378 3379 2068 
Q 3634 1759 3634 1313 
Q 3634 634 3220 271 
Q 2806 -91 2034 -91 
Q 1263 -91 848 271 
Q 434 634 434 1313 
Q 434 1759 690 2068 
Q 947 2378 1403 2484 
z
M 1172 3481 
Q 1172 3119 1398 2916 
Q 1625 2713 2034 2713 
Q 2441 2713 2670 2916 
Q 2900 3119 2900 3481 
Q 2900 3844 2670 4047 
Q 2441 4250 2034 4250 
Q 1625 4250 1398 4047 
Q 1172 3844 1172 3481 
z
" transform="scale(0.015625)"/>
      </defs>
      <use xlink:href="#DejaVuSans-50"/>
      <use xlink:href="#DejaVuSans-43" x="60.302734"/>
      <use xlink:href="#DejaVuSans-20" x="130.126953"/>
      <use xlink:href="#DejaVuSans-32" x="161.914062"/>
      <use xlink:href="#DejaVuSans-20" x="225.537109"/>
      <use xlink:href="#DejaVuSans-28" x="257.324219"/>
      <use xlink:href="#DejaVuSans-31" x="296.337891"/>
      <use xlink:href="#DejaVuSans-38" x="359.960938"/>
      <use xlink:href="#DejaVuSans-2e" x="423.583984"/>
      <use xlink:href="#DejaVuSans-31" x="455.371094"/>
      <use xlink:href="#DejaVuSans-38" x="518.994141"/>
      <use xlink:href="#DejaVuSans-25" x="582.617188"/>
      <use xlink:href="#DejaVuSans-29" x="677.636719"/>
     </g>
    </g>
   </g>
   <g id="patch_3">
    <path d="M 64.037638 182.532244 
L 64.037638 23.579128 
" style="fill: none; stroke: #000000; stroke-width: 2; stroke-linejoin: miter; stroke-linecap: square"/>
   </g>
   <g id="patch_4">
    <path d="M 64.037638 182.532244 
L 222.990754 182.532244 
" style="fill: none; stroke: #000000; stroke-width: 2; stroke-linejoin: miter; stroke-linecap: square"/>
   </g>
  </g>
 </g>
 <defs>
  <clipPath id="p00e158d11a">
   <rect x="64.037638" y="23.579128" width="158.953116" height="158.953116"/>
  </clipPath>
 </defs>
</svg>
