<?xml version="1.0" encoding="utf-8" standalone="no"?>
<!DOCTYPE svg PUBLIC "-//W3C//DTD SVG 1.1//EN"
  "http://www.w3.org/Graphics/SVG/1.1/DTD/svg11.dtd">
<svg xmlns:xlink="http://www.w3.org/1999/xlink" width="240.944882pt" height="240.944882pt" viewBox="0 0 240.944882 240.944882" xmlns="http://www.w3.org/2000/svg" version="1.1">
 <metadata>
  <rdf:RDF xmlns:dc="http://purl.org/dc/elements/1.1/" xmlns:cc="http://creativecommons.org/ns#" xmlns:rdf="http://www.w3.org/1999/02/22-rdf-syntax-ns#">
   <cc:Work>
    <dc:type rdf:resource="http://purl.org/dc/dcmitype/StillImage"/>
    <dc:date>2025-02-17T14:57:59.003961</dc:date>
    <dc:format>image/svg+xml</dc:format>
    <dc:creator>
     <cc:Agent>
      <dc:title>Matplotlib v3.6.2, https://matplotlib.org/</dc:title>
     </cc:Agent>
    </dc:creator>
   </cc:Work>
  </rdf:RDF>
 </metadata>
 <defs>
  <style type="text/css">*{stroke-linejoin: round; stroke-linecap: butt}</style>
 </defs>
 <g id="figure_1">
  <g id="patch_1">
   <path d="M 0 240.944882 
L 240.944882 240.944882 
L 240.944882 0 
L 0 0 
L 0 240.944882 
z
" style="fill: none"/>
  </g>
  <g id="axes_1">
   <g id="patch_2">
    <path d="M 53.957638 188.936063 
L 227.984882 188.936063 
L 227.984882 14.908819 
L 53.957638 14.908819 
L 53.957638 188.936063 
z
" style="fill: none"/>
   </g>
   <g id="PathCollection_1">
    <path d="M 76.275192 114.150661 
L 74.153872 118.393302 
L 78.396512 118.393302 
z
" clip-path="url(#p16299c916b)" style="fill: #882e72; fill-opacity: 0.6; stroke: #ffffff; stroke-opacity: 0.6; stroke-width: 0.339411"/>
    <path d="M 75.154582 116.209117 
L 73.033262 120.451758 
L 77.275903 120.451758 
z
" clip-path="url(#p16299c916b)" style="fill: #882e72; fill-opacity: 0.6; stroke: #ffffff; stroke-opacity: 0.6; stroke-width: 0.339411"/>
    <path d="M 89.161065 107.010115 
L 87.039744 111.252756 
L 91.282385 111.252756 
z
" clip-path="url(#p16299c916b)" style="fill: #882e72; fill-opacity: 0.6; stroke: #ffffff; stroke-opacity: 0.6; stroke-width: 0.339411"/>
    <path d="M 82.241858 126.427968 
L 80.120538 130.670609 
L 84.363178 130.670609 
z
" clip-path="url(#p16299c916b)" style="fill: #882e72; fill-opacity: 0.6; stroke: #ffffff; stroke-opacity: 0.6; stroke-width: 0.339411"/>
    <path d="M 77.786401 119.552781 
L 75.665081 123.795421 
L 79.907721 123.795421 
z
" clip-path="url(#p16299c916b)" style="fill: #882e72; fill-opacity: 0.6; stroke: #ffffff; stroke-opacity: 0.6; stroke-width: 0.339411"/>
    <path d="M 88.845484 104.475249 
L 86.724163 108.71789 
L 90.966804 108.71789 
z
" clip-path="url(#p16299c916b)" style="fill: #882e72; fill-opacity: 0.6; stroke: #ffffff; stroke-opacity: 0.6; stroke-width: 0.339411"/>
    <path d="M 183.559791 152.007485 
L 181.43847 156.250126 
L 185.681111 156.250126 
z
" clip-path="url(#p16299c916b)" style="fill: #882e72; fill-opacity: 0.6; stroke: #ffffff; stroke-opacity: 0.6; stroke-width: 0.339411"/>
    <path d="M 181.240846 153.453012 
L 179.119526 157.695653 
L 183.362167 157.695653 
z
" clip-path="url(#p16299c916b)" style="fill: #882e72; fill-opacity: 0.6; stroke: #ffffff; stroke-opacity: 0.6; stroke-width: 0.339411"/>
    <path d="M 82.657421 114.32254 
L 80.536101 118.565181 
L 84.778741 118.565181 
z
" clip-path="url(#p16299c916b)" style="fill: #882e72; fill-opacity: 0.6; stroke: #ffffff; stroke-opacity: 0.6; stroke-width: 0.339411"/>
    <path d="M 96.881687 116.050108 
L 94.760367 120.292748 
L 99.003008 120.292748 
z
" clip-path="url(#p16299c916b)" style="fill: #882e72; fill-opacity: 0.6; stroke: #ffffff; stroke-opacity: 0.6; stroke-width: 0.339411"/>
    <path d="M 97.234716 106.416293 
L 95.113396 110.658933 
L 99.356036 110.658933 
z
" clip-path="url(#p16299c916b)" style="fill: #882e72; fill-opacity: 0.6; stroke: #ffffff; stroke-opacity: 0.6; stroke-width: 0.339411"/>
    <path d="M 104.143454 104.122305 
L 102.022133 108.364946 
L 106.264774 108.364946 
z
" clip-path="url(#p16299c916b)" style="fill: #882e72; fill-opacity: 0.6; stroke: #ffffff; stroke-opacity: 0.6; stroke-width: 0.339411"/>
    <path d="M 82.071668 131.712665 
L 79.950348 135.955306 
L 84.192988 135.955306 
z
" clip-path="url(#p16299c916b)" style="fill: #882e72; fill-opacity: 0.6; stroke: #ffffff; stroke-opacity: 0.6; stroke-width: 0.339411"/>
    <path d="M 106.826641 107.604934 
L 104.705321 111.847574 
L 108.947961 111.847574 
z
" clip-path="url(#p16299c916b)" style="fill: #882e72; fill-opacity: 0.6; stroke: #ffffff; stroke-opacity: 0.6; stroke-width: 0.339411"/>
    <path d="M 79.465705 141.141314 
L 77.344385 145.383955 
L 81.587025 145.383955 
z
" clip-path="url(#p16299c916b)" style="fill: #882e72; fill-opacity: 0.6; stroke: #ffffff; stroke-opacity: 0.6; stroke-width: 0.339411"/>
    <path d="M 107.595275 105.359008 
L 105.473954 109.601649 
L 109.716595 109.601649 
z
" clip-path="url(#p16299c916b)" style="fill: #882e72; fill-opacity: 0.6; stroke: #ffffff; stroke-opacity: 0.6; stroke-width: 0.339411"/>
    <path d="M 92.475255 120.815698 
L 90.353935 125.058339 
L 94.596575 125.058339 
z
" clip-path="url(#p16299c916b)" style="fill: #882e72; fill-opacity: 0.6; stroke: #ffffff; stroke-opacity: 0.6; stroke-width: 0.339411"/>
    <path d="M 89.540745 105.902335 
L 87.419425 110.144976 
L 91.662066 110.144976 
z
" clip-path="url(#p16299c916b)" style="fill: #882e72; fill-opacity: 0.6; stroke: #ffffff; stroke-opacity: 0.6; stroke-width: 0.339411"/>
    <path d="M 79.173957 129.013858 
L 77.052637 133.256499 
L 81.295278 133.256499 
z
" clip-path="url(#p16299c916b)" style="fill: #882e72; fill-opacity: 0.6; stroke: #ffffff; stroke-opacity: 0.6; stroke-width: 0.339411"/>
    <path d="M 79.904792 110.291999 
L 77.783472 114.53464 
L 82.026113 114.53464 
z
" clip-path="url(#p16299c916b)" style="fill: #882e72; fill-opacity: 0.6; stroke: #ffffff; stroke-opacity: 0.6; stroke-width: 0.339411"/>
    <path d="M 76.735153 140.805261 
L 74.613833 145.047902 
L 78.856474 145.047902 
z
" clip-path="url(#p16299c916b)" style="fill: #882e72; fill-opacity: 0.6; stroke: #ffffff; stroke-opacity: 0.6; stroke-width: 0.339411"/>
    <path d="M 97.113953 108.896287 
L 94.992633 113.138928 
L 99.235273 113.138928 
z
" clip-path="url(#p16299c916b)" style="fill: #882e72; fill-opacity: 0.6; stroke: #ffffff; stroke-opacity: 0.6; stroke-width: 0.339411"/>
    <path d="M 78.302881 112.795057 
L 76.181561 117.037698 
L 80.424202 117.037698 
z
" clip-path="url(#p16299c916b)" style="fill: #882e72; fill-opacity: 0.6; stroke: #ffffff; stroke-opacity: 0.6; stroke-width: 0.339411"/>
    <path d="M 78.161797 111.453639 
L 76.040476 115.69628 
L 80.283117 115.69628 
z
" clip-path="url(#p16299c916b)" style="fill: #882e72; fill-opacity: 0.6; stroke: #ffffff; stroke-opacity: 0.6; stroke-width: 0.339411"/>
    <path d="M 199.005042 122.70666 
L 196.883721 126.9493 
L 201.126362 126.9493 
z
" clip-path="url(#p16299c916b)" style="fill: #882e72; fill-opacity: 0.6; stroke: #ffffff; stroke-opacity: 0.6; stroke-width: 0.339411"/>
    <path d="M 176.722706 151.71481 
L 174.601386 155.957451 
L 178.844026 155.957451 
z
" clip-path="url(#p16299c916b)" style="fill: #882e72; fill-opacity: 0.6; stroke: #ffffff; stroke-opacity: 0.6; stroke-width: 0.339411"/>
    <path d="M 179.497528 167.593529 
L 177.376208 171.836169 
L 181.618849 171.836169 
z
" clip-path="url(#p16299c916b)" style="fill: #882e72; fill-opacity: 0.6; stroke: #ffffff; stroke-opacity: 0.6; stroke-width: 0.339411"/>
    <path d="M 105.644369 104.220924 
L 103.523049 108.463564 
L 107.76569 108.463564 
z
" clip-path="url(#p16299c916b)" style="fill: #882e72; fill-opacity: 0.6; stroke: #ffffff; stroke-opacity: 0.6; stroke-width: 0.339411"/>
    <path d="M 80.266402 138.31428 
L 78.145082 142.55692 
L 82.387722 142.55692 
z
" clip-path="url(#p16299c916b)" style="fill: #882e72; fill-opacity: 0.6; stroke: #ffffff; stroke-opacity: 0.6; stroke-width: 0.339411"/>
    <path d="M 78.394195 114.648737 
L 76.272875 118.891378 
L 80.515516 118.891378 
z
" clip-path="url(#p16299c916b)" style="fill: #882e72; fill-opacity: 0.6; stroke: #ffffff; stroke-opacity: 0.6; stroke-width: 0.339411"/>
    <path d="M 78.175523 139.919335 
L 76.054202 144.161976 
L 80.296843 144.161976 
z
" clip-path="url(#p16299c916b)" style="fill: #882e72; fill-opacity: 0.6; stroke: #ffffff; stroke-opacity: 0.6; stroke-width: 0.339411"/>
    <path d="M 76.996258 111.435602 
L 74.874937 115.678243 
L 79.117578 115.678243 
z
" clip-path="url(#p16299c916b)" style="fill: #882e72; fill-opacity: 0.6; stroke: #ffffff; stroke-opacity: 0.6; stroke-width: 0.339411"/>
    <path d="M 180.659025 150.829188 
L 178.537704 155.071828 
L 182.780345 155.071828 
z
" clip-path="url(#p16299c916b)" style="fill: #882e72; fill-opacity: 0.6; stroke: #ffffff; stroke-opacity: 0.6; stroke-width: 0.339411"/>
    <path d="M 81.530015 132.329457 
L 79.408695 136.572098 
L 83.651336 136.572098 
z
" clip-path="url(#p16299c916b)" style="fill: #882e72; fill-opacity: 0.6; stroke: #ffffff; stroke-opacity: 0.6; stroke-width: 0.339411"/>
    <path d="M 94.36658 119.792225 
L 92.24526 124.034866 
L 96.4879 124.034866 
z
" clip-path="url(#p16299c916b)" style="fill: #882e72; fill-opacity: 0.6; stroke: #ffffff; stroke-opacity: 0.6; stroke-width: 0.339411"/>
    <path d="M 97.165179 106.643101 
L 95.043859 110.885741 
L 99.286499 110.885741 
z
" clip-path="url(#p16299c916b)" style="fill: #882e72; fill-opacity: 0.6; stroke: #ffffff; stroke-opacity: 0.6; stroke-width: 0.339411"/>
    <path d="M 182.850501 147.367022 
L 180.729181 151.609663 
L 184.971821 151.609663 
z
" clip-path="url(#p16299c916b)" style="fill: #882e72; fill-opacity: 0.6; stroke: #ffffff; stroke-opacity: 0.6; stroke-width: 0.339411"/>
    <path d="M 91.758431 106.959017 
L 89.637111 111.201658 
L 93.879752 111.201658 
z
" clip-path="url(#p16299c916b)" style="fill: #882e72; fill-opacity: 0.6; stroke: #ffffff; stroke-opacity: 0.6; stroke-width: 0.339411"/>
    <path d="M 178.961589 149.473057 
L 176.840268 153.715697 
L 181.082909 153.715697 
z
" clip-path="url(#p16299c916b)" style="fill: #882e72; fill-opacity: 0.6; stroke: #ffffff; stroke-opacity: 0.6; stroke-width: 0.339411"/>
    <path d="M 194.157353 125.634519 
L 192.036032 129.87716 
L 196.278673 129.87716 
z
" clip-path="url(#p16299c916b)" style="fill: #882e72; fill-opacity: 0.6; stroke: #ffffff; stroke-opacity: 0.6; stroke-width: 0.339411"/>
    <path d="M 98.377949 104.163807 
L 96.256629 108.406448 
L 100.49927 108.406448 
z
" clip-path="url(#p16299c916b)" style="fill: #882e72; fill-opacity: 0.6; stroke: #ffffff; stroke-opacity: 0.6; stroke-width: 0.339411"/>
    <path d="M 77.78324 132.087411 
L 75.661919 136.330052 
L 79.90456 136.330052 
z
" clip-path="url(#p16299c916b)" style="fill: #882e72; fill-opacity: 0.6; stroke: #ffffff; stroke-opacity: 0.6; stroke-width: 0.339411"/>
    <path d="M 185.038511 151.798092 
L 182.917191 156.040733 
L 187.159831 156.040733 
z
" clip-path="url(#p16299c916b)" style="fill: #882e72; fill-opacity: 0.6; stroke: #ffffff; stroke-opacity: 0.6; stroke-width: 0.339411"/>
    <path d="M 199.577218 125.456078 
L 197.455898 129.698719 
L 201.698538 129.698719 
z
" clip-path="url(#p16299c916b)" style="fill: #882e72; fill-opacity: 0.6; stroke: #ffffff; stroke-opacity: 0.6; stroke-width: 0.339411"/>
    <path d="M 83.499245 110.289844 
L 81.377925 114.532485 
L 85.620565 114.532485 
z
" clip-path="url(#p16299c916b)" style="fill: #882e72; fill-opacity: 0.6; stroke: #ffffff; stroke-opacity: 0.6; stroke-width: 0.339411"/>
    <path d="M 76.296992 139.113883 
L 74.175672 143.356524 
L 78.418313 143.356524 
z
" clip-path="url(#p16299c916b)" style="fill: #882e72; fill-opacity: 0.6; stroke: #ffffff; stroke-opacity: 0.6; stroke-width: 0.339411"/>
    <path d="M 105.977351 105.959431 
L 103.856031 110.202072 
L 108.098672 110.202072 
z
" clip-path="url(#p16299c916b)" style="fill: #882e72; fill-opacity: 0.6; stroke: #ffffff; stroke-opacity: 0.6; stroke-width: 0.339411"/>
    <path d="M 96.837184 120.09966 
L 94.715864 124.342301 
L 98.958505 124.342301 
z
" clip-path="url(#p16299c916b)" style="fill: #882e72; fill-opacity: 0.6; stroke: #ffffff; stroke-opacity: 0.6; stroke-width: 0.339411"/>
    <path d="M 103.086235 108.414866 
L 100.964914 112.657507 
L 105.207555 112.657507 
z
" clip-path="url(#p16299c916b)" style="fill: #882e72; fill-opacity: 0.6; stroke: #ffffff; stroke-opacity: 0.6; stroke-width: 0.339411"/>
    <path d="M 103.047283 108.668958 
L 100.925963 112.911599 
L 105.168604 112.911599 
z
" clip-path="url(#p16299c916b)" style="fill: #882e72; fill-opacity: 0.6; stroke: #ffffff; stroke-opacity: 0.6; stroke-width: 0.339411"/>
    <path d="M 87.656606 121.45458 
L 85.535286 125.69722 
L 89.777927 125.69722 
z
" clip-path="url(#p16299c916b)" style="fill: #882e72; fill-opacity: 0.6; stroke: #ffffff; stroke-opacity: 0.6; stroke-width: 0.339411"/>
    <path d="M 198.202144 123.301925 
L 196.080824 127.544565 
L 200.323464 127.544565 
z
" clip-path="url(#p16299c916b)" style="fill: #882e72; fill-opacity: 0.6; stroke: #ffffff; stroke-opacity: 0.6; stroke-width: 0.339411"/>
    <path d="M 179.963453 148.194345 
L 177.842132 152.436986 
L 182.084773 152.436986 
z
" clip-path="url(#p16299c916b)" style="fill: #882e72; fill-opacity: 0.6; stroke: #ffffff; stroke-opacity: 0.6; stroke-width: 0.339411"/>
    <path d="M 79.289659 124.985565 
L 77.168338 129.228206 
L 81.410979 129.228206 
z
" clip-path="url(#p16299c916b)" style="fill: #882e72; fill-opacity: 0.6; stroke: #ffffff; stroke-opacity: 0.6; stroke-width: 0.339411"/>
    <path d="M 94.570786 109.223598 
L 92.449466 113.466239 
L 96.692106 113.466239 
z
" clip-path="url(#p16299c916b)" style="fill: #882e72; fill-opacity: 0.6; stroke: #ffffff; stroke-opacity: 0.6; stroke-width: 0.339411"/>
    <path d="M 76.225165 129.717777 
L 74.103844 133.960417 
L 78.346485 133.960417 
z
" clip-path="url(#p16299c916b)" style="fill: #882e72; fill-opacity: 0.6; stroke: #ffffff; stroke-opacity: 0.6; stroke-width: 0.339411"/>
    <path d="M 93.899799 122.931448 
L 91.778479 127.174088 
L 96.02112 127.174088 
z
" clip-path="url(#p16299c916b)" style="fill: #882e72; fill-opacity: 0.6; stroke: #ffffff; stroke-opacity: 0.6; stroke-width: 0.339411"/>
    <path d="M 84.514364 111.148264 
L 82.393043 115.390905 
L 86.635684 115.390905 
z
" clip-path="url(#p16299c916b)" style="fill: #882e72; fill-opacity: 0.6; stroke: #ffffff; stroke-opacity: 0.6; stroke-width: 0.339411"/>
    <path d="M 81.109774 131.821238 
L 78.988454 136.063879 
L 83.231095 136.063879 
z
" clip-path="url(#p16299c916b)" style="fill: #882e72; fill-opacity: 0.6; stroke: #ffffff; stroke-opacity: 0.6; stroke-width: 0.339411"/>
    <path d="M 77.812846 129.100783 
L 75.691526 133.343424 
L 79.934167 133.343424 
z
" clip-path="url(#p16299c916b)" style="fill: #882e72; fill-opacity: 0.6; stroke: #ffffff; stroke-opacity: 0.6; stroke-width: 0.339411"/>
    <path d="M 81.270733 117.200947 
L 79.149413 121.443588 
L 83.392053 121.443588 
z
" clip-path="url(#p16299c916b)" style="fill: #882e72; fill-opacity: 0.6; stroke: #ffffff; stroke-opacity: 0.6; stroke-width: 0.339411"/>
    <path d="M 80.232379 139.743383 
L 78.111059 143.986024 
L 82.353699 143.986024 
z
" clip-path="url(#p16299c916b)" style="fill: #882e72; fill-opacity: 0.6; stroke: #ffffff; stroke-opacity: 0.6; stroke-width: 0.339411"/>
    <path d="M 85.548141 117.020414 
L 83.426821 121.263055 
L 87.669461 121.263055 
z
" clip-path="url(#p16299c916b)" style="fill: #882e72; fill-opacity: 0.6; stroke: #ffffff; stroke-opacity: 0.6; stroke-width: 0.339411"/>
    <path d="M 79.47514 133.574119 
L 77.35382 137.81676 
L 81.596461 137.81676 
z
" clip-path="url(#p16299c916b)" style="fill: #882e72; fill-opacity: 0.6; stroke: #ffffff; stroke-opacity: 0.6; stroke-width: 0.339411"/>
    <path d="M 170.399544 83.252966 
L 174.642184 83.252966 
L 174.642184 79.010325 
L 170.399544 79.010325 
z
" clip-path="url(#p16299c916b)" style="fill: #1965b0; fill-opacity: 0.6; stroke: #ffffff; stroke-opacity: 0.6; stroke-width: 0.339411"/>
    <path d="M 176.798049 172.976679 
L 181.04069 172.976679 
L 181.04069 168.734038 
L 176.798049 168.734038 
z
" clip-path="url(#p16299c916b)" style="fill: #1965b0; fill-opacity: 0.6; stroke: #ffffff; stroke-opacity: 0.6; stroke-width: 0.339411"/>
    <path d="M 208.754596 112.235096 
L 212.997236 112.235096 
L 212.997236 107.992456 
L 208.754596 107.992456 
z
" clip-path="url(#p16299c916b)" style="fill: #1965b0; fill-opacity: 0.6; stroke: #ffffff; stroke-opacity: 0.6; stroke-width: 0.339411"/>
    <path d="M 183.324482 171.374126 
L 187.567123 171.374126 
L 187.567123 167.131485 
L 183.324482 167.131485 
z
" clip-path="url(#p16299c916b)" style="fill: #1965b0; fill-opacity: 0.6; stroke: #ffffff; stroke-opacity: 0.6; stroke-width: 0.339411"/>
    <path d="M 195.602779 128.462905 
L 199.84542 128.462905 
L 199.84542 124.220265 
L 195.602779 124.220265 
z
" clip-path="url(#p16299c916b)" style="fill: #1965b0; fill-opacity: 0.6; stroke: #ffffff; stroke-opacity: 0.6; stroke-width: 0.339411"/>
    <path d="M 181.20952 178.314751 
L 185.45216 178.314751 
L 185.45216 174.072111 
L 181.20952 174.072111 
z
" clip-path="url(#p16299c916b)" style="fill: #1965b0; fill-opacity: 0.6; stroke: #ffffff; stroke-opacity: 0.6; stroke-width: 0.339411"/>
    <path d="M 176.007198 166.251515 
L 180.249839 166.251515 
L 180.249839 162.008874 
L 176.007198 162.008874 
z
" clip-path="url(#p16299c916b)" style="fill: #1965b0; fill-opacity: 0.6; stroke: #ffffff; stroke-opacity: 0.6; stroke-width: 0.339411"/>
    <path d="M 192.484428 141.863381 
L 196.727069 141.863381 
L 196.727069 137.62074 
L 192.484428 137.62074 
z
" clip-path="url(#p16299c916b)" style="fill: #1965b0; fill-opacity: 0.6; stroke: #ffffff; stroke-opacity: 0.6; stroke-width: 0.339411"/>
    <path d="M 176.972506 168.038769 
L 181.215146 168.038769 
L 181.215146 163.796128 
L 176.972506 163.796128 
z
" clip-path="url(#p16299c916b)" style="fill: #1965b0; fill-opacity: 0.6; stroke: #ffffff; stroke-opacity: 0.6; stroke-width: 0.339411"/>
    <path d="M 175.900421 174.123325 
L 180.143062 174.123325 
L 180.143062 169.880684 
L 175.900421 169.880684 
z
" clip-path="url(#p16299c916b)" style="fill: #1965b0; fill-opacity: 0.6; stroke: #ffffff; stroke-opacity: 0.6; stroke-width: 0.339411"/>
    <path d="M 182.737834 170.334227 
L 186.980475 170.334227 
L 186.980475 166.091586 
L 182.737834 166.091586 
z
" clip-path="url(#p16299c916b)" style="fill: #1965b0; fill-opacity: 0.6; stroke: #ffffff; stroke-opacity: 0.6; stroke-width: 0.339411"/>
    <path d="M 207.774128 110.137015 
L 212.016769 110.137015 
L 212.016769 105.894374 
L 207.774128 105.894374 
z
" clip-path="url(#p16299c916b)" style="fill: #1965b0; fill-opacity: 0.6; stroke: #ffffff; stroke-opacity: 0.6; stroke-width: 0.339411"/>
    <path d="M 205.434049 120.371848 
L 209.67669 120.371848 
L 209.67669 116.129207 
L 205.434049 116.129207 
z
" clip-path="url(#p16299c916b)" style="fill: #1965b0; fill-opacity: 0.6; stroke: #ffffff; stroke-opacity: 0.6; stroke-width: 0.339411"/>
    <path d="M 194.335744 131.969665 
L 198.578385 131.969665 
L 198.578385 127.727025 
L 194.335744 127.727025 
z
" clip-path="url(#p16299c916b)" style="fill: #1965b0; fill-opacity: 0.6; stroke: #ffffff; stroke-opacity: 0.6; stroke-width: 0.339411"/>
    <path d="M 182.690379 176.191444 
L 186.933019 176.191444 
L 186.933019 171.948804 
L 182.690379 171.948804 
z
" clip-path="url(#p16299c916b)" style="fill: #1965b0; fill-opacity: 0.6; stroke: #ffffff; stroke-opacity: 0.6; stroke-width: 0.339411"/>
    <path d="M 204.121099 109.056781 
L 208.36374 109.056781 
L 208.36374 104.81414 
L 204.121099 104.81414 
z
" clip-path="url(#p16299c916b)" style="fill: #1965b0; fill-opacity: 0.6; stroke: #ffffff; stroke-opacity: 0.6; stroke-width: 0.339411"/>
    <path d="M 182.212826 109.222071 
L 186.455467 109.222071 
L 186.455467 104.979431 
L 182.212826 104.979431 
z
" clip-path="url(#p16299c916b)" style="fill: #1965b0; fill-opacity: 0.6; stroke: #ffffff; stroke-opacity: 0.6; stroke-width: 0.339411"/>
    <path d="M 201.018703 107.181778 
L 205.261344 107.181778 
L 205.261344 102.939138 
L 201.018703 102.939138 
z
" clip-path="url(#p16299c916b)" style="fill: #1965b0; fill-opacity: 0.6; stroke: #ffffff; stroke-opacity: 0.6; stroke-width: 0.339411"/>
    <path d="M 181.038259 133.116712 
L 185.2809 133.116712 
L 185.2809 128.874072 
L 181.038259 128.874072 
z
" clip-path="url(#p16299c916b)" style="fill: #1965b0; fill-opacity: 0.6; stroke: #ffffff; stroke-opacity: 0.6; stroke-width: 0.339411"/>
    <path d="M 189.739951 136.255583 
L 193.982592 136.255583 
L 193.982592 132.012942 
L 189.739951 132.012942 
z
" clip-path="url(#p16299c916b)" style="fill: #1965b0; fill-opacity: 0.6; stroke: #ffffff; stroke-opacity: 0.6; stroke-width: 0.339411"/>
    <path d="M 207.824591 108.303088 
L 212.067231 108.303088 
L 212.067231 104.060447 
L 207.824591 104.060447 
z
" clip-path="url(#p16299c916b)" style="fill: #1965b0; fill-opacity: 0.6; stroke: #ffffff; stroke-opacity: 0.6; stroke-width: 0.339411"/>
    <path d="M 172.79174 125.619576 
L 177.034381 125.619576 
L 177.034381 121.376935 
L 172.79174 121.376935 
z
" clip-path="url(#p16299c916b)" style="fill: #1965b0; fill-opacity: 0.6; stroke: #ffffff; stroke-opacity: 0.6; stroke-width: 0.339411"/>
    <path d="M 154.206988 91.473499 
L 158.449629 91.473499 
L 158.449629 87.230859 
L 154.206988 87.230859 
z
" clip-path="url(#p16299c916b)" style="fill: #1965b0; fill-opacity: 0.6; stroke: #ffffff; stroke-opacity: 0.6; stroke-width: 0.339411"/>
    <path d="M 181.631037 175.890496 
L 185.873678 175.890496 
L 185.873678 171.647855 
L 181.631037 171.647855 
z
" clip-path="url(#p16299c916b)" style="fill: #1965b0; fill-opacity: 0.6; stroke: #ffffff; stroke-opacity: 0.6; stroke-width: 0.339411"/>
    <path d="M 177.977377 170.375281 
L 182.220018 170.375281 
L 182.220018 166.13264 
L 177.977377 166.13264 
z
" clip-path="url(#p16299c916b)" style="fill: #1965b0; fill-opacity: 0.6; stroke: #ffffff; stroke-opacity: 0.6; stroke-width: 0.339411"/>
    <path d="M 192.55646 131.130476 
L 196.7991 131.130476 
L 196.7991 126.887835 
L 192.55646 126.887835 
z
" clip-path="url(#p16299c916b)" style="fill: #1965b0; fill-opacity: 0.6; stroke: #ffffff; stroke-opacity: 0.6; stroke-width: 0.339411"/>
    <path d="M 195.258718 131.32874 
L 199.501359 131.32874 
L 199.501359 127.086099 
L 195.258718 127.086099 
z
" clip-path="url(#p16299c916b)" style="fill: #1965b0; fill-opacity: 0.6; stroke: #ffffff; stroke-opacity: 0.6; stroke-width: 0.339411"/>
    <path d="M 168.41395 121.402319 
L 172.656591 121.402319 
L 172.656591 117.159679 
L 168.41395 117.159679 
z
" clip-path="url(#p16299c916b)" style="fill: #1965b0; fill-opacity: 0.6; stroke: #ffffff; stroke-opacity: 0.6; stroke-width: 0.339411"/>
    <path d="M 196.95917 138.353423 
L 201.20181 138.353423 
L 201.20181 134.110782 
L 196.95917 134.110782 
z
" clip-path="url(#p16299c916b)" style="fill: #1965b0; fill-opacity: 0.6; stroke: #ffffff; stroke-opacity: 0.6; stroke-width: 0.339411"/>
    <path d="M 179.981302 166.518825 
L 184.223943 166.518825 
L 184.223943 162.276184 
L 179.981302 162.276184 
z
" clip-path="url(#p16299c916b)" style="fill: #1965b0; fill-opacity: 0.6; stroke: #ffffff; stroke-opacity: 0.6; stroke-width: 0.339411"/>
    <path d="M 204.870477 114.213589 
L 209.113118 114.213589 
L 209.113118 109.970948 
L 204.870477 109.970948 
z
" clip-path="url(#p16299c916b)" style="fill: #1965b0; fill-opacity: 0.6; stroke: #ffffff; stroke-opacity: 0.6; stroke-width: 0.339411"/>
    <path d="M 174.680645 121.631401 
L 178.923285 121.631401 
L 178.923285 117.388761 
L 174.680645 117.388761 
z
" clip-path="url(#p16299c916b)" style="fill: #1965b0; fill-opacity: 0.6; stroke: #ffffff; stroke-opacity: 0.6; stroke-width: 0.339411"/>
    <path d="M 172.825928 84.665366 
L 177.068569 84.665366 
L 177.068569 80.422726 
L 172.825928 80.422726 
z
" clip-path="url(#p16299c916b)" style="fill: #1965b0; fill-opacity: 0.6; stroke: #ffffff; stroke-opacity: 0.6; stroke-width: 0.339411"/>
    <path d="M 190.678749 136.073538 
L 194.92139 136.073538 
L 194.92139 131.830898 
L 190.678749 131.830898 
z
" clip-path="url(#p16299c916b)" style="fill: #1965b0; fill-opacity: 0.6; stroke: #ffffff; stroke-opacity: 0.6; stroke-width: 0.339411"/>
    <path d="M 191.916325 127.37476 
L 196.158965 127.37476 
L 196.158965 123.132119 
L 191.916325 123.132119 
z
" clip-path="url(#p16299c916b)" style="fill: #1965b0; fill-opacity: 0.6; stroke: #ffffff; stroke-opacity: 0.6; stroke-width: 0.339411"/>
    <path d="M 180.003936 169.67029 
L 184.246577 169.67029 
L 184.246577 165.427649 
L 180.003936 165.427649 
z
" clip-path="url(#p16299c916b)" style="fill: #1965b0; fill-opacity: 0.6; stroke: #ffffff; stroke-opacity: 0.6; stroke-width: 0.339411"/>
    <path d="M 203.319783 110.951626 
L 207.562424 110.951626 
L 207.562424 106.708986 
L 203.319783 106.708986 
z
" clip-path="url(#p16299c916b)" style="fill: #1965b0; fill-opacity: 0.6; stroke: #ffffff; stroke-opacity: 0.6; stroke-width: 0.339411"/>
    <path d="M 182.060741 166.802417 
L 186.303382 166.802417 
L 186.303382 162.559776 
L 182.060741 162.559776 
z
" clip-path="url(#p16299c916b)" style="fill: #1965b0; fill-opacity: 0.6; stroke: #ffffff; stroke-opacity: 0.6; stroke-width: 0.339411"/>
    <path d="M 209.490903 110.02265 
L 213.733544 110.02265 
L 213.733544 105.780009 
L 209.490903 105.780009 
z
" clip-path="url(#p16299c916b)" style="fill: #1965b0; fill-opacity: 0.6; stroke: #ffffff; stroke-opacity: 0.6; stroke-width: 0.339411"/>
    <path d="M 168.963337 123.809561 
L 173.205978 123.809561 
L 173.205978 119.566921 
L 168.963337 119.566921 
z
" clip-path="url(#p16299c916b)" style="fill: #1965b0; fill-opacity: 0.6; stroke: #ffffff; stroke-opacity: 0.6; stroke-width: 0.339411"/>
    <path d="M 180.967015 103.187409 
L 185.209655 103.187409 
L 185.209655 98.944768 
L 180.967015 98.944768 
z
" clip-path="url(#p16299c916b)" style="fill: #1965b0; fill-opacity: 0.6; stroke: #ffffff; stroke-opacity: 0.6; stroke-width: 0.339411"/>
    <path d="M 208.154033 110.57404 
L 212.396674 110.57404 
L 212.396674 106.3314 
L 208.154033 106.3314 
z
" clip-path="url(#p16299c916b)" style="fill: #1965b0; fill-opacity: 0.6; stroke: #ffffff; stroke-opacity: 0.6; stroke-width: 0.339411"/>
    <path d="M 203.478702 107.899443 
L 207.721343 107.899443 
L 207.721343 103.656803 
L 203.478702 103.656803 
z
" clip-path="url(#p16299c916b)" style="fill: #1965b0; fill-opacity: 0.6; stroke: #ffffff; stroke-opacity: 0.6; stroke-width: 0.339411"/>
    <path d="M 186.926843 129.567678 
L 191.169484 129.567678 
L 191.169484 125.325037 
L 186.926843 125.325037 
z
" clip-path="url(#p16299c916b)" style="fill: #1965b0; fill-opacity: 0.6; stroke: #ffffff; stroke-opacity: 0.6; stroke-width: 0.339411"/>
    <path d="M 181.321164 173.789701 
L 185.563804 173.789701 
L 185.563804 169.54706 
L 181.321164 169.54706 
z
" clip-path="url(#p16299c916b)" style="fill: #1965b0; fill-opacity: 0.6; stroke: #ffffff; stroke-opacity: 0.6; stroke-width: 0.339411"/>
    <path d="M 185.487916 128.242792 
L 189.730557 128.242792 
L 189.730557 124.000152 
L 185.487916 124.000152 
z
" clip-path="url(#p16299c916b)" style="fill: #1965b0; fill-opacity: 0.6; stroke: #ffffff; stroke-opacity: 0.6; stroke-width: 0.339411"/>
    <path d="M 180.515841 175.516273 
L 184.758481 175.516273 
L 184.758481 171.273633 
L 180.515841 171.273633 
z
" clip-path="url(#p16299c916b)" style="fill: #1965b0; fill-opacity: 0.6; stroke: #ffffff; stroke-opacity: 0.6; stroke-width: 0.339411"/>
    <path d="M 171.962079 84.689467 
L 176.20472 84.689467 
L 176.20472 80.446826 
L 171.962079 80.446826 
z
" clip-path="url(#p16299c916b)" style="fill: #1965b0; fill-opacity: 0.6; stroke: #ffffff; stroke-opacity: 0.6; stroke-width: 0.339411"/>
    <path d="M 188.070041 139.840565 
L 192.312682 139.840565 
L 192.312682 135.597924 
L 188.070041 135.597924 
z
" clip-path="url(#p16299c916b)" style="fill: #1965b0; fill-opacity: 0.6; stroke: #ffffff; stroke-opacity: 0.6; stroke-width: 0.339411"/>
    <path d="M 187.367725 136.328813 
L 191.610365 136.328813 
L 191.610365 132.086172 
L 187.367725 132.086172 
z
" clip-path="url(#p16299c916b)" style="fill: #1965b0; fill-opacity: 0.6; stroke: #ffffff; stroke-opacity: 0.6; stroke-width: 0.339411"/>
    <path d="M 202.631595 116.464219 
L 206.874235 116.464219 
L 206.874235 112.221578 
L 202.631595 112.221578 
z
" clip-path="url(#p16299c916b)" style="fill: #1965b0; fill-opacity: 0.6; stroke: #ffffff; stroke-opacity: 0.6; stroke-width: 0.339411"/>
    <path d="M 169.750288 121.311547 
L 173.992929 121.311547 
L 173.992929 117.068906 
L 169.750288 117.068906 
z
" clip-path="url(#p16299c916b)" style="fill: #1965b0; fill-opacity: 0.6; stroke: #ffffff; stroke-opacity: 0.6; stroke-width: 0.339411"/>
    <path d="M 170.735574 123.805259 
L 174.978215 123.805259 
L 174.978215 119.562618 
L 170.735574 119.562618 
z
" clip-path="url(#p16299c916b)" style="fill: #1965b0; fill-opacity: 0.6; stroke: #ffffff; stroke-opacity: 0.6; stroke-width: 0.339411"/>
    <path d="M 205.102559 114.39504 
L 209.345199 114.39504 
L 209.345199 110.152399 
L 205.102559 110.152399 
z
" clip-path="url(#p16299c916b)" style="fill: #1965b0; fill-opacity: 0.6; stroke: #ffffff; stroke-opacity: 0.6; stroke-width: 0.339411"/>
    <path d="M 180.608645 115.777759 
L 184.851286 115.777759 
L 184.851286 111.535118 
L 180.608645 111.535118 
z
" clip-path="url(#p16299c916b)" style="fill: #1965b0; fill-opacity: 0.6; stroke: #ffffff; stroke-opacity: 0.6; stroke-width: 0.339411"/>
    <path d="M 193.980325 133.166694 
L 198.222965 133.166694 
L 198.222965 128.924053 
L 193.980325 128.924053 
z
" clip-path="url(#p16299c916b)" style="fill: #1965b0; fill-opacity: 0.6; stroke: #ffffff; stroke-opacity: 0.6; stroke-width: 0.339411"/>
    <path d="M 181.179035 167.411332 
L 185.421676 167.411332 
L 185.421676 163.168691 
L 181.179035 163.168691 
z
" clip-path="url(#p16299c916b)" style="fill: #1965b0; fill-opacity: 0.6; stroke: #ffffff; stroke-opacity: 0.6; stroke-width: 0.339411"/>
    <path d="M 178.562592 164.429245 
L 182.805232 164.429245 
L 182.805232 160.186605 
L 178.562592 160.186605 
z
" clip-path="url(#p16299c916b)" style="fill: #1965b0; fill-opacity: 0.6; stroke: #ffffff; stroke-opacity: 0.6; stroke-width: 0.339411"/>
    <path d="M 150.527302 142.498128 
L 154.769943 142.498128 
L 154.769943 138.255487 
L 150.527302 138.255487 
z
" clip-path="url(#p16299c916b)" style="fill: #1965b0; fill-opacity: 0.6; stroke: #ffffff; stroke-opacity: 0.6; stroke-width: 0.339411"/>
    <path d="M 206.654015 112.418178 
L 210.896655 112.418178 
L 210.896655 108.175537 
L 206.654015 108.175537 
z
" clip-path="url(#p16299c916b)" style="fill: #1965b0; fill-opacity: 0.6; stroke: #ffffff; stroke-opacity: 0.6; stroke-width: 0.339411"/>
    <path d="M 173.713264 122.840554 
L 177.955904 122.840554 
L 177.955904 118.597913 
L 173.713264 118.597913 
z
" clip-path="url(#p16299c916b)" style="fill: #1965b0; fill-opacity: 0.6; stroke: #ffffff; stroke-opacity: 0.6; stroke-width: 0.339411"/>
    <path d="M 171.258927 125.716371 
L 175.501568 125.716371 
L 175.501568 121.47373 
L 171.258927 121.47373 
z
" clip-path="url(#p16299c916b)" style="fill: #1965b0; fill-opacity: 0.6; stroke: #ffffff; stroke-opacity: 0.6; stroke-width: 0.339411"/>
    <path d="M 167.940691 123.622579 
L 172.183332 123.622579 
L 172.183332 119.379939 
L 167.940691 119.379939 
z
" clip-path="url(#p16299c916b)" style="fill: #1965b0; fill-opacity: 0.6; stroke: #ffffff; stroke-opacity: 0.6; stroke-width: 0.339411"/>
    <path d="M 180.150595 142.282577 
L 181.211255 141.221917 
L 182.271916 142.282577 
L 183.332576 141.221917 
L 182.271916 140.161257 
L 183.332576 139.100597 
L 182.271916 138.039936 
L 181.211255 139.100597 
L 180.150595 138.039936 
L 179.089935 139.100597 
L 180.150595 140.161257 
L 179.089935 141.221917 
z
" clip-path="url(#p16299c916b)" style="fill: #7bafde; fill-opacity: 0.6; stroke: #ffffff; stroke-opacity: 0.6; stroke-width: 0.339411"/>
    <path d="M 175.610247 135.466069 
L 176.670908 134.405409 
L 177.731568 135.466069 
L 178.792228 134.405409 
L 177.731568 133.344749 
L 178.792228 132.284089 
L 177.731568 131.223429 
L 176.670908 132.284089 
L 175.610247 131.223429 
L 174.549587 132.284089 
L 175.610247 133.344749 
L 174.549587 134.405409 
z
" clip-path="url(#p16299c916b)" style="fill: #7bafde; fill-opacity: 0.6; stroke: #ffffff; stroke-opacity: 0.6; stroke-width: 0.339411"/>
    <path d="M 169.329532 80.20499 
L 170.390192 79.14433 
L 171.450852 80.20499 
L 172.511512 79.14433 
L 171.450852 78.08367 
L 172.511512 77.02301 
L 171.450852 75.96235 
L 170.390192 77.02301 
L 169.329532 75.96235 
L 168.268872 77.02301 
L 169.329532 78.08367 
L 168.268872 79.14433 
z
" clip-path="url(#p16299c916b)" style="fill: #7bafde; fill-opacity: 0.6; stroke: #ffffff; stroke-opacity: 0.6; stroke-width: 0.339411"/>
    <path d="M 213.909264 150.792372 
L 214.969925 149.731712 
L 216.030585 150.792372 
L 217.091245 149.731712 
L 216.030585 148.671052 
L 217.091245 147.610392 
L 216.030585 146.549732 
L 214.969925 147.610392 
L 213.909264 146.549732 
L 212.848604 147.610392 
L 213.909264 148.671052 
L 212.848604 149.731712 
z
" clip-path="url(#p16299c916b)" style="fill: #7bafde; fill-opacity: 0.6; stroke: #ffffff; stroke-opacity: 0.6; stroke-width: 0.339411"/>
    <path d="M 152.559014 135.6658 
L 153.619674 134.60514 
L 154.680335 135.6658 
L 155.740995 134.60514 
L 154.680335 133.54448 
L 155.740995 132.48382 
L 154.680335 131.423159 
L 153.619674 132.48382 
L 152.559014 131.423159 
L 151.498354 132.48382 
L 152.559014 133.54448 
L 151.498354 134.60514 
z
" clip-path="url(#p16299c916b)" style="fill: #7bafde; fill-opacity: 0.6; stroke: #ffffff; stroke-opacity: 0.6; stroke-width: 0.339411"/>
    <path d="M 212.010477 153.91805 
L 213.071137 152.85739 
L 214.131798 153.91805 
L 215.192458 152.85739 
L 214.131798 151.79673 
L 215.192458 150.73607 
L 214.131798 149.67541 
L 213.071137 150.73607 
L 212.010477 149.67541 
L 210.949817 150.73607 
L 212.010477 151.79673 
L 210.949817 152.85739 
z
" clip-path="url(#p16299c916b)" style="fill: #7bafde; fill-opacity: 0.6; stroke: #ffffff; stroke-opacity: 0.6; stroke-width: 0.339411"/>
    <path d="M 167.493557 83.696961 
L 168.554217 82.636301 
L 169.614877 83.696961 
L 170.675537 82.636301 
L 169.614877 81.575641 
L 170.675537 80.514981 
L 169.614877 79.45432 
L 168.554217 80.514981 
L 167.493557 79.45432 
L 166.432897 80.514981 
L 167.493557 81.575641 
L 166.432897 82.636301 
z
" clip-path="url(#p16299c916b)" style="fill: #7bafde; fill-opacity: 0.6; stroke: #ffffff; stroke-opacity: 0.6; stroke-width: 0.339411"/>
    <path d="M 204.289392 142.821483 
L 205.350053 141.760823 
L 206.410713 142.821483 
L 207.471373 141.760823 
L 206.410713 140.700163 
L 207.471373 139.639503 
L 206.410713 138.578843 
L 205.350053 139.639503 
L 204.289392 138.578843 
L 203.228732 139.639503 
L 204.289392 140.700163 
L 203.228732 141.760823 
z
" clip-path="url(#p16299c916b)" style="fill: #7bafde; fill-opacity: 0.6; stroke: #ffffff; stroke-opacity: 0.6; stroke-width: 0.339411"/>
    <path d="M 150.856973 142.04613 
L 151.917633 140.98547 
L 152.978293 142.04613 
L 154.038953 140.98547 
L 152.978293 139.92481 
L 154.038953 138.86415 
L 152.978293 137.803489 
L 151.917633 138.86415 
L 150.856973 137.803489 
L 149.796313 138.86415 
L 150.856973 139.92481 
L 149.796313 140.98547 
z
" clip-path="url(#p16299c916b)" style="fill: #7bafde; fill-opacity: 0.6; stroke: #ffffff; stroke-opacity: 0.6; stroke-width: 0.339411"/>
    <path d="M 153.321643 153.914562 
L 154.382303 152.853901 
L 155.442963 153.914562 
L 156.503624 152.853901 
L 155.442963 151.793241 
L 156.503624 150.732581 
L 155.442963 149.671921 
L 154.382303 150.732581 
L 153.321643 149.671921 
L 152.260983 150.732581 
L 153.321643 151.793241 
L 152.260983 152.853901 
z
" clip-path="url(#p16299c916b)" style="fill: #7bafde; fill-opacity: 0.6; stroke: #ffffff; stroke-opacity: 0.6; stroke-width: 0.339411"/>
    <path d="M 152.93501 158.167959 
L 153.995671 157.107299 
L 155.056331 158.167959 
L 156.116991 157.107299 
L 155.056331 156.046639 
L 156.116991 154.985979 
L 155.056331 153.925318 
L 153.995671 154.985979 
L 152.93501 153.925318 
L 151.87435 154.985979 
L 152.93501 156.046639 
L 151.87435 157.107299 
z
" clip-path="url(#p16299c916b)" style="fill: #7bafde; fill-opacity: 0.6; stroke: #ffffff; stroke-opacity: 0.6; stroke-width: 0.339411"/>
    <path d="M 200.76711 139.576021 
L 201.82777 138.51536 
L 202.88843 139.576021 
L 203.94909 138.51536 
L 202.88843 137.4547 
L 203.94909 136.39404 
L 202.88843 135.33338 
L 201.82777 136.39404 
L 200.76711 135.33338 
L 199.706449 136.39404 
L 200.76711 137.4547 
L 199.706449 138.51536 
z
" clip-path="url(#p16299c916b)" style="fill: #7bafde; fill-opacity: 0.6; stroke: #ffffff; stroke-opacity: 0.6; stroke-width: 0.339411"/>
    <path d="M 173.733864 146.212252 
L 174.794525 145.151592 
L 175.855185 146.212252 
L 176.915845 145.151592 
L 175.855185 144.090931 
L 176.915845 143.030271 
L 175.855185 141.969611 
L 174.794525 143.030271 
L 173.733864 141.969611 
L 172.673204 143.030271 
L 173.733864 144.090931 
L 172.673204 145.151592 
z
" clip-path="url(#p16299c916b)" style="fill: #7bafde; fill-opacity: 0.6; stroke: #ffffff; stroke-opacity: 0.6; stroke-width: 0.339411"/>
    <path d="M 181.713704 122.119779 
L 182.774364 121.059119 
L 183.835024 122.119779 
L 184.895685 121.059119 
L 183.835024 119.998459 
L 184.895685 118.937799 
L 183.835024 117.877138 
L 182.774364 118.937799 
L 181.713704 117.877138 
L 180.653044 118.937799 
L 181.713704 119.998459 
L 180.653044 121.059119 
z
" clip-path="url(#p16299c916b)" style="fill: #7bafde; fill-opacity: 0.6; stroke: #ffffff; stroke-opacity: 0.6; stroke-width: 0.339411"/>
    <path d="M 151.462076 149.747077 
L 152.522736 148.686416 
L 153.583396 149.747077 
L 154.644056 148.686416 
L 153.583396 147.625756 
L 154.644056 146.565096 
L 153.583396 145.504436 
L 152.522736 146.565096 
L 151.462076 145.504436 
L 150.401415 146.565096 
L 151.462076 147.625756 
L 150.401415 148.686416 
z
" clip-path="url(#p16299c916b)" style="fill: #7bafde; fill-opacity: 0.6; stroke: #ffffff; stroke-opacity: 0.6; stroke-width: 0.339411"/>
    <path d="M 167.465211 81.674836 
L 168.525872 80.614176 
L 169.586532 81.674836 
L 170.647192 80.614176 
L 169.586532 79.553516 
L 170.647192 78.492855 
L 169.586532 77.432195 
L 168.525872 78.492855 
L 167.465211 77.432195 
L 166.404551 78.492855 
L 167.465211 79.553516 
L 166.404551 80.614176 
z
" clip-path="url(#p16299c916b)" style="fill: #7bafde; fill-opacity: 0.6; stroke: #ffffff; stroke-opacity: 0.6; stroke-width: 0.339411"/>
    <path d="M 150.080093 149.940975 
L 151.140754 148.880315 
L 152.201414 149.940975 
L 153.262074 148.880315 
L 152.201414 147.819654 
L 153.262074 146.758994 
L 152.201414 145.698334 
L 151.140754 146.758994 
L 150.080093 145.698334 
L 149.019433 146.758994 
L 150.080093 147.819654 
L 149.019433 148.880315 
z
" clip-path="url(#p16299c916b)" style="fill: #7bafde; fill-opacity: 0.6; stroke: #ffffff; stroke-opacity: 0.6; stroke-width: 0.339411"/>
    <path d="M 204.818735 150.166771 
L 205.879396 149.106111 
L 206.940056 150.166771 
L 208.000716 149.106111 
L 206.940056 148.04545 
L 208.000716 146.98479 
L 206.940056 145.92413 
L 205.879396 146.98479 
L 204.818735 145.92413 
L 203.758075 146.98479 
L 204.818735 148.04545 
L 203.758075 149.106111 
z
" clip-path="url(#p16299c916b)" style="fill: #7bafde; fill-opacity: 0.6; stroke: #ffffff; stroke-opacity: 0.6; stroke-width: 0.339411"/>
    <path d="M 208.704321 145.344588 
L 209.764981 144.283928 
L 210.825641 145.344588 
L 211.886301 144.283928 
L 210.825641 143.223267 
L 211.886301 142.162607 
L 210.825641 141.101947 
L 209.764981 142.162607 
L 208.704321 141.101947 
L 207.64366 142.162607 
L 208.704321 143.223267 
L 207.64366 144.283928 
z
" clip-path="url(#p16299c916b)" style="fill: #7bafde; fill-opacity: 0.6; stroke: #ffffff; stroke-opacity: 0.6; stroke-width: 0.339411"/>
    <path d="M 150.45595 155.307713 
L 151.51661 154.247053 
L 152.577271 155.307713 
L 153.637931 154.247053 
L 152.577271 153.186393 
L 153.637931 152.125733 
L 152.577271 151.065072 
L 151.51661 152.125733 
L 150.45595 151.065072 
L 149.39529 152.125733 
L 150.45595 153.186393 
L 149.39529 154.247053 
z
" clip-path="url(#p16299c916b)" style="fill: #7bafde; fill-opacity: 0.6; stroke: #ffffff; stroke-opacity: 0.6; stroke-width: 0.339411"/>
    <path d="M 214.18159 155.296608 
L 215.24225 154.235948 
L 216.30291 155.296608 
L 217.36357 154.235948 
L 216.30291 153.175288 
L 217.36357 152.114628 
L 216.30291 151.053968 
L 215.24225 152.114628 
L 214.18159 151.053968 
L 213.12093 152.114628 
L 214.18159 153.175288 
L 213.12093 154.235948 
z
" clip-path="url(#p16299c916b)" style="fill: #7bafde; fill-opacity: 0.6; stroke: #ffffff; stroke-opacity: 0.6; stroke-width: 0.339411"/>
    <path d="M 208.32399 152.007639 
L 209.38465 150.946979 
L 210.44531 152.007639 
L 211.50597 150.946979 
L 210.44531 149.886319 
L 211.50597 148.825659 
L 210.44531 147.764998 
L 209.38465 148.825659 
L 208.32399 147.764998 
L 207.263329 148.825659 
L 208.32399 149.886319 
L 207.263329 150.946979 
z
" clip-path="url(#p16299c916b)" style="fill: #7bafde; fill-opacity: 0.6; stroke: #ffffff; stroke-opacity: 0.6; stroke-width: 0.339411"/>
    <path d="M 173.98935 128.539132 
L 175.05001 127.478472 
L 176.11067 128.539132 
L 177.17133 127.478472 
L 176.11067 126.417812 
L 177.17133 125.357152 
L 176.11067 124.296491 
L 175.05001 125.357152 
L 173.98935 124.296491 
L 172.92869 125.357152 
L 173.98935 126.417812 
L 172.92869 127.478472 
z
" clip-path="url(#p16299c916b)" style="fill: #7bafde; fill-opacity: 0.6; stroke: #ffffff; stroke-opacity: 0.6; stroke-width: 0.339411"/>
    <path d="M 151.026078 91.375835 
L 152.086738 90.315175 
L 153.147398 91.375835 
L 154.208059 90.315175 
L 153.147398 89.254515 
L 154.208059 88.193855 
L 153.147398 87.133194 
L 152.086738 88.193855 
L 151.026078 87.133194 
L 149.965418 88.193855 
L 151.026078 89.254515 
L 149.965418 90.315175 
z
" clip-path="url(#p16299c916b)" style="fill: #7bafde; fill-opacity: 0.6; stroke: #ffffff; stroke-opacity: 0.6; stroke-width: 0.339411"/>
    <path d="M 171.45541 90.075415 
L 172.51607 89.014754 
L 173.57673 90.075415 
L 174.63739 89.014754 
L 173.57673 87.954094 
L 174.63739 86.893434 
L 173.57673 85.832774 
L 172.51607 86.893434 
L 171.45541 85.832774 
L 170.39475 86.893434 
L 171.45541 87.954094 
L 170.39475 89.014754 
z
" clip-path="url(#p16299c916b)" style="fill: #7bafde; fill-opacity: 0.6; stroke: #ffffff; stroke-opacity: 0.6; stroke-width: 0.339411"/>
    <path d="M 208.370453 152.080962 
L 209.431114 151.020302 
L 210.491774 152.080962 
L 211.552434 151.020302 
L 210.491774 149.959642 
L 211.552434 148.898981 
L 210.491774 147.838321 
L 209.431114 148.898981 
L 208.370453 147.838321 
L 207.309793 148.898981 
L 208.370453 149.959642 
L 207.309793 151.020302 
z
" clip-path="url(#p16299c916b)" style="fill: #7bafde; fill-opacity: 0.6; stroke: #ffffff; stroke-opacity: 0.6; stroke-width: 0.339411"/>
    <path d="M 205.429787 154.253345 
L 206.490448 153.192684 
L 207.551108 154.253345 
L 208.611768 153.192684 
L 207.551108 152.132024 
L 208.611768 151.071364 
L 207.551108 150.010704 
L 206.490448 151.071364 
L 205.429787 150.010704 
L 204.369127 151.071364 
L 205.429787 152.132024 
L 204.369127 153.192684 
z
" clip-path="url(#p16299c916b)" style="fill: #7bafde; fill-opacity: 0.6; stroke: #ffffff; stroke-opacity: 0.6; stroke-width: 0.339411"/>
    <path d="M 155.84366 147.742706 
L 156.90432 146.682046 
L 157.96498 147.742706 
L 159.02564 146.682046 
L 157.96498 145.621386 
L 159.02564 144.560726 
L 157.96498 143.500065 
L 156.90432 144.560726 
L 155.84366 143.500065 
L 154.783 144.560726 
L 155.84366 145.621386 
L 154.783 146.682046 
z
" clip-path="url(#p16299c916b)" style="fill: #7bafde; fill-opacity: 0.6; stroke: #ffffff; stroke-opacity: 0.6; stroke-width: 0.339411"/>
    <path d="M 169.889531 80.835529 
L 170.950191 79.774869 
L 172.010851 80.835529 
L 173.071512 79.774869 
L 172.010851 78.714209 
L 173.071512 77.653549 
L 172.010851 76.592889 
L 170.950191 77.653549 
L 169.889531 76.592889 
L 168.828871 77.653549 
L 169.889531 78.714209 
L 168.828871 79.774869 
z
" clip-path="url(#p16299c916b)" style="fill: #7bafde; fill-opacity: 0.6; stroke: #ffffff; stroke-opacity: 0.6; stroke-width: 0.339411"/>
    <path d="M 209.819689 149.670915 
L 210.880349 148.610255 
L 211.94101 149.670915 
L 213.00167 148.610255 
L 211.94101 147.549595 
L 213.00167 146.488935 
L 211.94101 145.428275 
L 210.880349 146.488935 
L 209.819689 145.428275 
L 208.759029 146.488935 
L 209.819689 147.549595 
L 208.759029 148.610255 
z
" clip-path="url(#p16299c916b)" style="fill: #7bafde; fill-opacity: 0.6; stroke: #ffffff; stroke-opacity: 0.6; stroke-width: 0.339411"/>
    <path d="M 210.094112 154.376462 
L 211.154772 153.315802 
L 212.215433 154.376462 
L 213.276093 153.315802 
L 212.215433 152.255142 
L 213.276093 151.194482 
L 212.215433 150.133822 
L 211.154772 151.194482 
L 210.094112 150.133822 
L 209.033452 151.194482 
L 210.094112 152.255142 
L 209.033452 153.315802 
z
" clip-path="url(#p16299c916b)" style="fill: #7bafde; fill-opacity: 0.6; stroke: #ffffff; stroke-opacity: 0.6; stroke-width: 0.339411"/>
    <path d="M 196.536676 145.701785 
L 197.597336 144.641125 
L 198.657997 145.701785 
L 199.718657 144.641125 
L 198.657997 143.580465 
L 199.718657 142.519805 
L 198.657997 141.459145 
L 197.597336 142.519805 
L 196.536676 141.459145 
L 195.476016 142.519805 
L 196.536676 143.580465 
L 195.476016 144.641125 
z
" clip-path="url(#p16299c916b)" style="fill: #7bafde; fill-opacity: 0.6; stroke: #ffffff; stroke-opacity: 0.6; stroke-width: 0.339411"/>
    <path d="M 156.861544 155.802839 
L 157.922205 154.742179 
L 158.982865 155.802839 
L 160.043525 154.742179 
L 158.982865 153.681518 
L 160.043525 152.620858 
L 158.982865 151.560198 
L 157.922205 152.620858 
L 156.861544 151.560198 
L 155.800884 152.620858 
L 156.861544 153.681518 
L 155.800884 154.742179 
z
" clip-path="url(#p16299c916b)" style="fill: #7bafde; fill-opacity: 0.6; stroke: #ffffff; stroke-opacity: 0.6; stroke-width: 0.339411"/>
    <path d="M 155.7157 157.161647 
L 156.77636 156.100987 
L 157.83702 157.161647 
L 158.89768 156.100987 
L 157.83702 155.040326 
L 158.89768 153.979666 
L 157.83702 152.919006 
L 156.77636 153.979666 
L 155.7157 152.919006 
L 154.65504 153.979666 
L 155.7157 155.040326 
L 154.65504 156.100987 
z
" clip-path="url(#p16299c916b)" style="fill: #7bafde; fill-opacity: 0.6; stroke: #ffffff; stroke-opacity: 0.6; stroke-width: 0.339411"/>
    <path d="M 206.991954 146.689159 
L 208.052614 145.628499 
L 209.113274 146.689159 
L 210.173934 145.628499 
L 209.113274 144.567839 
L 210.173934 143.507179 
L 209.113274 142.446518 
L 208.052614 143.507179 
L 206.991954 142.446518 
L 205.931294 143.507179 
L 206.991954 144.567839 
L 205.931294 145.628499 
z
" clip-path="url(#p16299c916b)" style="fill: #7bafde; fill-opacity: 0.6; stroke: #ffffff; stroke-opacity: 0.6; stroke-width: 0.339411"/>
    <path d="M 163.637046 152.442016 
L 164.697706 151.381356 
L 165.758366 152.442016 
L 166.819027 151.381356 
L 165.758366 150.320696 
L 166.819027 149.260036 
L 165.758366 148.199375 
L 164.697706 149.260036 
L 163.637046 148.199375 
L 162.576386 149.260036 
L 163.637046 150.320696 
L 162.576386 151.381356 
z
" clip-path="url(#p16299c916b)" style="fill: #7bafde; fill-opacity: 0.6; stroke: #ffffff; stroke-opacity: 0.6; stroke-width: 0.339411"/>
    <path d="M 153.514513 149.628427 
L 154.575173 148.567767 
L 155.635833 149.628427 
L 156.696493 148.567767 
L 155.635833 147.507107 
L 156.696493 146.446446 
L 155.635833 145.385786 
L 154.575173 146.446446 
L 153.514513 145.385786 
L 152.453853 146.446446 
L 153.514513 147.507107 
L 152.453853 148.567767 
z
" clip-path="url(#p16299c916b)" style="fill: #7bafde; fill-opacity: 0.6; stroke: #ffffff; stroke-opacity: 0.6; stroke-width: 0.339411"/>
    <path d="M 179.374019 149.126494 
L 180.434679 148.065834 
L 181.495339 149.126494 
L 182.556 148.065834 
L 181.495339 147.005174 
L 182.556 145.944514 
L 181.495339 144.883853 
L 180.434679 145.944514 
L 179.374019 144.883853 
L 178.313359 145.944514 
L 179.374019 147.005174 
L 178.313359 148.065834 
z
" clip-path="url(#p16299c916b)" style="fill: #7bafde; fill-opacity: 0.6; stroke: #ffffff; stroke-opacity: 0.6; stroke-width: 0.339411"/>
    <path d="M 166.096759 89.485292 
L 167.157419 88.424632 
L 168.218079 89.485292 
L 169.278739 88.424632 
L 168.218079 87.363971 
L 169.278739 86.303311 
L 168.218079 85.242651 
L 167.157419 86.303311 
L 166.096759 85.242651 
L 165.036098 86.303311 
L 166.096759 87.363971 
L 165.036098 88.424632 
z
" clip-path="url(#p16299c916b)" style="fill: #7bafde; fill-opacity: 0.6; stroke: #ffffff; stroke-opacity: 0.6; stroke-width: 0.339411"/>
    <path d="M 157.127175 154.760836 
L 158.187835 153.700175 
L 159.248495 154.760836 
L 160.309155 153.700175 
L 159.248495 152.639515 
L 160.309155 151.578855 
L 159.248495 150.518195 
L 158.187835 151.578855 
L 157.127175 150.518195 
L 156.066515 151.578855 
L 157.127175 152.639515 
L 156.066515 153.700175 
z
" clip-path="url(#p16299c916b)" style="fill: #7bafde; fill-opacity: 0.6; stroke: #ffffff; stroke-opacity: 0.6; stroke-width: 0.339411"/>
    <path d="M 150.515042 147.828775 
L 151.575702 146.768114 
L 152.636362 147.828775 
L 153.697023 146.768114 
L 152.636362 145.707454 
L 153.697023 144.646794 
L 152.636362 143.586134 
L 151.575702 144.646794 
L 150.515042 143.586134 
L 149.454382 144.646794 
L 150.515042 145.707454 
L 149.454382 146.768114 
z
" clip-path="url(#p16299c916b)" style="fill: #7bafde; fill-opacity: 0.6; stroke: #ffffff; stroke-opacity: 0.6; stroke-width: 0.339411"/>
    <path d="M 150.291877 148.662825 
L 151.352537 147.602165 
L 152.413197 148.662825 
L 153.473857 147.602165 
L 152.413197 146.541505 
L 153.473857 145.480845 
L 152.413197 144.420185 
L 151.352537 145.480845 
L 150.291877 144.420185 
L 149.231216 145.480845 
L 150.291877 146.541505 
L 149.231216 147.602165 
z
" clip-path="url(#p16299c916b)" style="fill: #7bafde; fill-opacity: 0.6; stroke: #ffffff; stroke-opacity: 0.6; stroke-width: 0.339411"/>
    <path d="M 209.252102 157.316583 
L 210.312762 156.255923 
L 211.373422 157.316583 
L 212.434082 156.255923 
L 211.373422 155.195263 
L 212.434082 154.134603 
L 211.373422 153.073943 
L 210.312762 154.134603 
L 209.252102 153.073943 
L 208.191441 154.134603 
L 209.252102 155.195263 
L 208.191441 156.255923 
z
" clip-path="url(#p16299c916b)" style="fill: #7bafde; fill-opacity: 0.6; stroke: #ffffff; stroke-opacity: 0.6; stroke-width: 0.339411"/>
    <path d="M 207.457764 155.071316 
L 208.518424 154.010656 
L 209.579084 155.071316 
L 210.639744 154.010656 
L 209.579084 152.949996 
L 210.639744 151.889336 
L 209.579084 150.828676 
L 208.518424 151.889336 
L 207.457764 150.828676 
L 206.397104 151.889336 
L 207.457764 152.949996 
L 206.397104 154.010656 
z
" clip-path="url(#p16299c916b)" style="fill: #7bafde; fill-opacity: 0.6; stroke: #ffffff; stroke-opacity: 0.6; stroke-width: 0.339411"/>
    <path d="M 174.028856 141.568926 
L 175.089516 140.508266 
L 176.150177 141.568926 
L 177.210837 140.508266 
L 176.150177 139.447605 
L 177.210837 138.386945 
L 176.150177 137.326285 
L 175.089516 138.386945 
L 174.028856 137.326285 
L 172.968196 138.386945 
L 174.028856 139.447605 
L 172.968196 140.508266 
z
" clip-path="url(#p16299c916b)" style="fill: #7bafde; fill-opacity: 0.6; stroke: #ffffff; stroke-opacity: 0.6; stroke-width: 0.339411"/>
    <path d="M 180.447914 114.22954 
L 181.508574 113.16888 
L 182.569235 114.22954 
L 183.629895 113.16888 
L 182.569235 112.10822 
L 183.629895 111.047559 
L 182.569235 109.986899 
L 181.508574 111.047559 
L 180.447914 109.986899 
L 179.387254 111.047559 
L 180.447914 112.10822 
L 179.387254 113.16888 
z
" clip-path="url(#p16299c916b)" style="fill: #7bafde; fill-opacity: 0.6; stroke: #ffffff; stroke-opacity: 0.6; stroke-width: 0.339411"/>
    <path d="M 177.939919 146.282212 
L 179.000579 145.221552 
L 180.061239 146.282212 
L 181.121899 145.221552 
L 180.061239 144.160891 
L 181.121899 143.100231 
L 180.061239 142.039571 
L 179.000579 143.100231 
L 177.939919 142.039571 
L 176.879259 143.100231 
L 177.939919 144.160891 
L 176.879259 145.221552 
z
" clip-path="url(#p16299c916b)" style="fill: #7bafde; fill-opacity: 0.6; stroke: #ffffff; stroke-opacity: 0.6; stroke-width: 0.339411"/>
    <path d="M 213.128542 152.946365 
L 214.189202 151.885705 
L 215.249862 152.946365 
L 216.310522 151.885705 
L 215.249862 150.825045 
L 216.310522 149.764385 
L 215.249862 148.703725 
L 214.189202 149.764385 
L 213.128542 148.703725 
L 212.067882 149.764385 
L 213.128542 150.825045 
L 212.067882 151.885705 
z
" clip-path="url(#p16299c916b)" style="fill: #7bafde; fill-opacity: 0.6; stroke: #ffffff; stroke-opacity: 0.6; stroke-width: 0.339411"/>
    <path d="M 151.696533 156.7606 
L 152.757193 155.699939 
L 153.817854 156.7606 
L 154.878514 155.699939 
L 153.817854 154.639279 
L 154.878514 153.578619 
L 153.817854 152.517959 
L 152.757193 153.578619 
L 151.696533 152.517959 
L 150.635873 153.578619 
L 151.696533 154.639279 
L 150.635873 155.699939 
z
" clip-path="url(#p16299c916b)" style="fill: #7bafde; fill-opacity: 0.6; stroke: #ffffff; stroke-opacity: 0.6; stroke-width: 0.339411"/>
    <path d="M 154.23993 89.881299 
L 155.30059 88.820639 
L 156.36125 89.881299 
L 157.42191 88.820639 
L 156.36125 87.759979 
L 157.42191 86.699319 
L 156.36125 85.638659 
L 155.30059 86.699319 
L 154.23993 85.638659 
L 153.17927 86.699319 
L 154.23993 87.759979 
L 153.17927 88.820639 
z
" clip-path="url(#p16299c916b)" style="fill: #7bafde; fill-opacity: 0.6; stroke: #ffffff; stroke-opacity: 0.6; stroke-width: 0.339411"/>
    <path d="M 208.453416 150.409613 
L 209.514076 149.348952 
L 210.574737 150.409613 
L 211.635397 149.348952 
L 210.574737 148.288292 
L 211.635397 147.227632 
L 210.574737 146.166972 
L 209.514076 147.227632 
L 208.453416 146.166972 
L 207.392756 147.227632 
L 208.453416 148.288292 
L 207.392756 149.348952 
z
" clip-path="url(#p16299c916b)" style="fill: #7bafde; fill-opacity: 0.6; stroke: #ffffff; stroke-opacity: 0.6; stroke-width: 0.339411"/>
    <path d="M 178.289962 96.384451 
L 179.350622 95.323791 
L 180.411283 96.384451 
L 181.471943 95.323791 
L 180.411283 94.263131 
L 181.471943 93.20247 
L 180.411283 92.14181 
L 179.350622 93.20247 
L 178.289962 92.14181 
L 177.229302 93.20247 
L 178.289962 94.263131 
L 177.229302 95.323791 
z
" clip-path="url(#p16299c916b)" style="fill: #7bafde; fill-opacity: 0.6; stroke: #ffffff; stroke-opacity: 0.6; stroke-width: 0.339411"/>
    <path d="M 154.44637 145.430327 
L 155.50703 144.369666 
L 156.56769 145.430327 
L 157.62835 144.369666 
L 156.56769 143.309006 
L 157.62835 142.248346 
L 156.56769 141.187686 
L 155.50703 142.248346 
L 154.44637 141.187686 
L 153.38571 142.248346 
L 154.44637 143.309006 
L 153.38571 144.369666 
z
" clip-path="url(#p16299c916b)" style="fill: #7bafde; fill-opacity: 0.6; stroke: #ffffff; stroke-opacity: 0.6; stroke-width: 0.339411"/>
    <path d="M 172.505967 145.210332 
L 173.566627 144.149672 
L 174.627287 145.210332 
L 175.687947 144.149672 
L 174.627287 143.089012 
L 175.687947 142.028352 
L 174.627287 140.967692 
L 173.566627 142.028352 
L 172.505967 140.967692 
L 171.445307 142.028352 
L 172.505967 143.089012 
L 171.445307 144.149672 
z
" clip-path="url(#p16299c916b)" style="fill: #7bafde; fill-opacity: 0.6; stroke: #ffffff; stroke-opacity: 0.6; stroke-width: 0.339411"/>
    <path d="M 153.971292 155.168565 
L 155.031952 154.107905 
L 156.092612 155.168565 
L 157.153273 154.107905 
L 156.092612 153.047245 
L 157.153273 151.986585 
L 156.092612 150.925925 
L 155.031952 151.986585 
L 153.971292 150.925925 
L 152.910632 151.986585 
L 153.971292 153.047245 
L 152.910632 154.107905 
z
" clip-path="url(#p16299c916b)" style="fill: #7bafde; fill-opacity: 0.6; stroke: #ffffff; stroke-opacity: 0.6; stroke-width: 0.339411"/>
    <path d="M 155.450856 146.703531 
L 156.511517 145.64287 
L 157.572177 146.703531 
L 158.632837 145.64287 
L 157.572177 144.58221 
L 158.632837 143.52155 
L 157.572177 142.46089 
L 156.511517 143.52155 
L 155.450856 142.46089 
L 154.390196 143.52155 
L 155.450856 144.58221 
L 154.390196 145.64287 
z
" clip-path="url(#p16299c916b)" style="fill: #7bafde; fill-opacity: 0.6; stroke: #ffffff; stroke-opacity: 0.6; stroke-width: 0.339411"/>
    <path d="M 207.490256 146.13808 
L 208.550916 145.07742 
L 209.611576 146.13808 
L 210.672236 145.07742 
L 209.611576 144.016759 
L 210.672236 142.956099 
L 209.611576 141.895439 
L 208.550916 142.956099 
L 207.490256 141.895439 
L 206.429595 142.956099 
L 207.490256 144.016759 
L 206.429595 145.07742 
z
" clip-path="url(#p16299c916b)" style="fill: #7bafde; fill-opacity: 0.6; stroke: #ffffff; stroke-opacity: 0.6; stroke-width: 0.339411"/>
    <path d="M 174.598271 89.26279 
L 175.658931 88.20213 
L 176.719591 89.26279 
L 177.780252 88.20213 
L 176.719591 87.14147 
L 177.780252 86.08081 
L 176.719591 85.020149 
L 175.658931 86.08081 
L 174.598271 85.020149 
L 173.537611 86.08081 
L 174.598271 87.14147 
L 173.537611 88.20213 
z
" clip-path="url(#p16299c916b)" style="fill: #7bafde; fill-opacity: 0.6; stroke: #ffffff; stroke-opacity: 0.6; stroke-width: 0.339411"/>
    <path d="M 186.2108 142.599123 
L 187.271461 141.538463 
L 188.332121 142.599123 
L 189.392781 141.538463 
L 188.332121 140.477803 
L 189.392781 139.417142 
L 188.332121 138.356482 
L 187.271461 139.417142 
L 186.2108 138.356482 
L 185.15014 139.417142 
L 186.2108 140.477803 
L 185.15014 141.538463 
z
" clip-path="url(#p16299c916b)" style="fill: #7bafde; fill-opacity: 0.6; stroke: #ffffff; stroke-opacity: 0.6; stroke-width: 0.339411"/>
    <path d="M 151.118571 154.406849 
L 152.179232 153.346189 
L 153.239892 154.406849 
L 154.300552 153.346189 
L 153.239892 152.285529 
L 154.300552 151.224869 
L 153.239892 150.164209 
L 152.179232 151.224869 
L 151.118571 150.164209 
L 150.057911 151.224869 
L 151.118571 152.285529 
L 150.057911 153.346189 
z
" clip-path="url(#p16299c916b)" style="fill: #7bafde; fill-opacity: 0.6; stroke: #ffffff; stroke-opacity: 0.6; stroke-width: 0.339411"/>
    <path d="M 195.742416 147.173274 
L 196.803076 146.112614 
L 197.863736 147.173274 
L 198.924396 146.112614 
L 197.863736 145.051953 
L 198.924396 143.991293 
L 197.863736 142.930633 
L 196.803076 143.991293 
L 195.742416 142.930633 
L 194.681756 143.991293 
L 195.742416 145.051953 
L 194.681756 146.112614 
z
" clip-path="url(#p16299c916b)" style="fill: #7bafde; fill-opacity: 0.6; stroke: #ffffff; stroke-opacity: 0.6; stroke-width: 0.339411"/>
    <path d="M 152.754834 136.766506 
L 153.815494 135.705846 
L 154.876154 136.766506 
L 155.936815 135.705846 
L 154.876154 134.645186 
L 155.936815 133.584526 
L 154.876154 132.523866 
L 153.815494 133.584526 
L 152.754834 132.523866 
L 151.694174 133.584526 
L 152.754834 134.645186 
L 151.694174 135.705846 
z
" clip-path="url(#p16299c916b)" style="fill: #7bafde; fill-opacity: 0.6; stroke: #ffffff; stroke-opacity: 0.6; stroke-width: 0.339411"/>
    <path d="M 169.139481 89.973752 
L 170.200141 88.913091 
L 171.260801 89.973752 
L 172.321462 88.913091 
L 171.260801 87.852431 
L 172.321462 86.791771 
L 171.260801 85.731111 
L 170.200141 86.791771 
L 169.139481 85.731111 
L 168.078821 86.791771 
L 169.139481 87.852431 
L 168.078821 88.913091 
z
" clip-path="url(#p16299c916b)" style="fill: #7bafde; fill-opacity: 0.6; stroke: #ffffff; stroke-opacity: 0.6; stroke-width: 0.339411"/>
    <path d="M 150.544996 97.682847 
L 151.95921 97.682847 
L 151.95921 96.268634 
L 153.373423 96.268634 
L 153.373423 94.85442 
L 151.95921 94.85442 
L 151.95921 93.440207 
L 150.544996 93.440207 
L 150.544996 94.85442 
L 149.130782 94.85442 
L 149.130782 96.268634 
L 150.544996 96.268634 
z
" clip-path="url(#p16299c916b)" style="fill: #4eb265; fill-opacity: 0.6; stroke: #ffffff; stroke-opacity: 0.6; stroke-width: 0.339411"/>
    <path d="M 173.956008 88.944517 
L 175.370222 88.944517 
L 175.370222 87.530304 
L 176.784435 87.530304 
L 176.784435 86.11609 
L 175.370222 86.11609 
L 175.370222 84.701877 
L 173.956008 84.701877 
L 173.956008 86.11609 
L 172.541795 86.11609 
L 172.541795 87.530304 
L 173.956008 87.530304 
z
" clip-path="url(#p16299c916b)" style="fill: #4eb265; fill-opacity: 0.6; stroke: #ffffff; stroke-opacity: 0.6; stroke-width: 0.339411"/>
    <path d="M 160.10653 104.17367 
L 161.520744 104.17367 
L 161.520744 102.759457 
L 162.934957 102.759457 
L 162.934957 101.345243 
L 161.520744 101.345243 
L 161.520744 99.93103 
L 160.10653 99.93103 
L 160.10653 101.345243 
L 158.692317 101.345243 
L 158.692317 102.759457 
L 160.10653 102.759457 
z
" clip-path="url(#p16299c916b)" style="fill: #4eb265; fill-opacity: 0.6; stroke: #ffffff; stroke-opacity: 0.6; stroke-width: 0.339411"/>
    <path d="M 166.982581 93.367779 
L 168.396794 93.367779 
L 168.396794 91.953566 
L 169.811008 91.953566 
L 169.811008 90.539352 
L 168.396794 90.539352 
L 168.396794 89.125139 
L 166.982581 89.125139 
L 166.982581 90.539352 
L 165.568367 90.539352 
L 165.568367 91.953566 
L 166.982581 91.953566 
z
" clip-path="url(#p16299c916b)" style="fill: #4eb265; fill-opacity: 0.6; stroke: #ffffff; stroke-opacity: 0.6; stroke-width: 0.339411"/>
    <path d="M 156.024412 126.95416 
L 157.438626 126.95416 
L 157.438626 125.539946 
L 158.852839 125.539946 
L 158.852839 124.125733 
L 157.438626 124.125733 
L 157.438626 122.711519 
L 156.024412 122.711519 
L 156.024412 124.125733 
L 154.610199 124.125733 
L 154.610199 125.539946 
L 156.024412 125.539946 
z
" clip-path="url(#p16299c916b)" style="fill: #4eb265; fill-opacity: 0.6; stroke: #ffffff; stroke-opacity: 0.6; stroke-width: 0.339411"/>
    <path d="M 182.248581 106.73135 
L 183.662795 106.73135 
L 183.662795 105.317137 
L 185.077008 105.317137 
L 185.077008 103.902923 
L 183.662795 103.902923 
L 183.662795 102.48871 
L 182.248581 102.48871 
L 182.248581 103.902923 
L 180.834367 103.902923 
L 180.834367 105.317137 
L 182.248581 105.317137 
z
" clip-path="url(#p16299c916b)" style="fill: #4eb265; fill-opacity: 0.6; stroke: #ffffff; stroke-opacity: 0.6; stroke-width: 0.339411"/>
    <path d="M 148.2616 100.711369 
L 149.675814 100.711369 
L 149.675814 99.297155 
L 151.090027 99.297155 
L 151.090027 97.882941 
L 149.675814 97.882941 
L 149.675814 96.468728 
L 148.2616 96.468728 
L 148.2616 97.882941 
L 146.847386 97.882941 
L 146.847386 99.297155 
L 148.2616 99.297155 
z
" clip-path="url(#p16299c916b)" style="fill: #4eb265; fill-opacity: 0.6; stroke: #ffffff; stroke-opacity: 0.6; stroke-width: 0.339411"/>
    <path d="M 168.407339 96.898454 
L 169.821552 96.898454 
L 169.821552 95.48424 
L 171.235766 95.48424 
L 171.235766 94.070026 
L 169.821552 94.070026 
L 169.821552 92.655813 
L 168.407339 92.655813 
L 168.407339 94.070026 
L 166.993125 94.070026 
L 166.993125 95.48424 
L 168.407339 95.48424 
z
" clip-path="url(#p16299c916b)" style="fill: #4eb265; fill-opacity: 0.6; stroke: #ffffff; stroke-opacity: 0.6; stroke-width: 0.339411"/>
    <path d="M 154.224575 131.851689 
L 155.638789 131.851689 
L 155.638789 130.437475 
L 157.053003 130.437475 
L 157.053003 129.023262 
L 155.638789 129.023262 
L 155.638789 127.609048 
L 154.224575 127.609048 
L 154.224575 129.023262 
L 152.810362 129.023262 
L 152.810362 130.437475 
L 154.224575 130.437475 
z
" clip-path="url(#p16299c916b)" style="fill: #4eb265; fill-opacity: 0.6; stroke: #ffffff; stroke-opacity: 0.6; stroke-width: 0.339411"/>
    <path d="M 174.209854 101.533655 
L 175.624068 101.533655 
L 175.624068 100.119441 
L 177.038282 100.119441 
L 177.038282 98.705227 
L 175.624068 98.705227 
L 175.624068 97.291014 
L 174.209854 97.291014 
L 174.209854 98.705227 
L 172.795641 98.705227 
L 172.795641 100.119441 
L 174.209854 100.119441 
z
" clip-path="url(#p16299c916b)" style="fill: #4eb265; fill-opacity: 0.6; stroke: #ffffff; stroke-opacity: 0.6; stroke-width: 0.339411"/>
    <path d="M 170.658169 92.243241 
L 172.072383 92.243241 
L 172.072383 90.829028 
L 173.486596 90.829028 
L 173.486596 89.414814 
L 172.072383 89.414814 
L 172.072383 88.0006 
L 170.658169 88.0006 
L 170.658169 89.414814 
L 169.243956 89.414814 
L 169.243956 90.829028 
L 170.658169 90.829028 
z
" clip-path="url(#p16299c916b)" style="fill: #4eb265; fill-opacity: 0.6; stroke: #ffffff; stroke-opacity: 0.6; stroke-width: 0.339411"/>
    <path d="M 158.514183 99.991282 
L 159.928396 99.991282 
L 159.928396 98.577069 
L 161.34261 98.577069 
L 161.34261 97.162855 
L 159.928396 97.162855 
L 159.928396 95.748642 
L 158.514183 95.748642 
L 158.514183 97.162855 
L 157.099969 97.162855 
L 157.099969 98.577069 
L 158.514183 98.577069 
z
" clip-path="url(#p16299c916b)" style="fill: #4eb265; fill-opacity: 0.6; stroke: #ffffff; stroke-opacity: 0.6; stroke-width: 0.339411"/>
    <path d="M 177.6772 124.571514 
L 179.091414 124.571514 
L 179.091414 123.157301 
L 180.505627 123.157301 
L 180.505627 121.743087 
L 179.091414 121.743087 
L 179.091414 120.328873 
L 177.6772 120.328873 
L 177.6772 121.743087 
L 176.262987 121.743087 
L 176.262987 123.157301 
L 177.6772 123.157301 
z
" clip-path="url(#p16299c916b)" style="fill: #4eb265; fill-opacity: 0.6; stroke: #ffffff; stroke-opacity: 0.6; stroke-width: 0.339411"/>
    <path d="M 183.193599 110.18154 
L 184.607812 110.18154 
L 184.607812 108.767327 
L 186.022026 108.767327 
L 186.022026 107.353113 
L 184.607812 107.353113 
L 184.607812 105.9389 
L 183.193599 105.9389 
L 183.193599 107.353113 
L 181.779385 107.353113 
L 181.779385 108.767327 
L 183.193599 108.767327 
z
" clip-path="url(#p16299c916b)" style="fill: #4eb265; fill-opacity: 0.6; stroke: #ffffff; stroke-opacity: 0.6; stroke-width: 0.339411"/>
    <path d="M 154.596753 99.365271 
L 156.010966 99.365271 
L 156.010966 97.951057 
L 157.42518 97.951057 
L 157.42518 96.536844 
L 156.010966 96.536844 
L 156.010966 95.12263 
L 154.596753 95.12263 
L 154.596753 96.536844 
L 153.182539 96.536844 
L 153.182539 97.951057 
L 154.596753 97.951057 
z
" clip-path="url(#p16299c916b)" style="fill: #4eb265; fill-opacity: 0.6; stroke: #ffffff; stroke-opacity: 0.6; stroke-width: 0.339411"/>
    <path d="M 173.874487 110.095689 
L 175.288701 110.095689 
L 175.288701 108.681475 
L 176.702915 108.681475 
L 176.702915 107.267262 
L 175.288701 107.267262 
L 175.288701 105.853048 
L 173.874487 105.853048 
L 173.874487 107.267262 
L 172.460274 107.267262 
L 172.460274 108.681475 
L 173.874487 108.681475 
z
" clip-path="url(#p16299c916b)" style="fill: #4eb265; fill-opacity: 0.6; stroke: #ffffff; stroke-opacity: 0.6; stroke-width: 0.339411"/>
    <path d="M 164.094197 96.088955 
L 165.50841 96.088955 
L 165.50841 94.674742 
L 166.922624 94.674742 
L 166.922624 93.260528 
L 165.50841 93.260528 
L 165.50841 91.846315 
L 164.094197 91.846315 
L 164.094197 93.260528 
L 162.679983 93.260528 
L 162.679983 94.674742 
L 164.094197 94.674742 
z
" clip-path="url(#p16299c916b)" style="fill: #4eb265; fill-opacity: 0.6; stroke: #ffffff; stroke-opacity: 0.6; stroke-width: 0.339411"/>
    <path d="M 157.967377 129.031161 
L 159.38159 129.031161 
L 159.38159 127.616947 
L 160.795804 127.616947 
L 160.795804 126.202734 
L 159.38159 126.202734 
L 159.38159 124.78852 
L 157.967377 124.78852 
L 157.967377 126.202734 
L 156.553163 126.202734 
L 156.553163 127.616947 
L 157.967377 127.616947 
z
" clip-path="url(#p16299c916b)" style="fill: #4eb265; fill-opacity: 0.6; stroke: #ffffff; stroke-opacity: 0.6; stroke-width: 0.339411"/>
    <path d="M 172.833141 113.042497 
L 174.247355 113.042497 
L 174.247355 111.628283 
L 175.661569 111.628283 
L 175.661569 110.21407 
L 174.247355 110.21407 
L 174.247355 108.799856 
L 172.833141 108.799856 
L 172.833141 110.21407 
L 171.418928 110.21407 
L 171.418928 111.628283 
L 172.833141 111.628283 
z
" clip-path="url(#p16299c916b)" style="fill: #4eb265; fill-opacity: 0.6; stroke: #ffffff; stroke-opacity: 0.6; stroke-width: 0.339411"/>
    <path d="M 157.549236 134.160636 
L 158.963449 134.160636 
L 158.963449 132.746422 
L 160.377663 132.746422 
L 160.377663 131.332209 
L 158.963449 131.332209 
L 158.963449 129.917995 
L 157.549236 129.917995 
L 157.549236 131.332209 
L 156.135022 131.332209 
L 156.135022 132.746422 
L 157.549236 132.746422 
z
" clip-path="url(#p16299c916b)" style="fill: #4eb265; fill-opacity: 0.6; stroke: #ffffff; stroke-opacity: 0.6; stroke-width: 0.339411"/>
    <path d="M 158.595752 132.360365 
L 160.009966 132.360365 
L 160.009966 130.946151 
L 161.42418 130.946151 
L 161.42418 129.531938 
L 160.009966 129.531938 
L 160.009966 128.117724 
L 158.595752 128.117724 
L 158.595752 129.531938 
L 157.181539 129.531938 
L 157.181539 130.946151 
L 158.595752 130.946151 
z
" clip-path="url(#p16299c916b)" style="fill: #4eb265; fill-opacity: 0.6; stroke: #ffffff; stroke-opacity: 0.6; stroke-width: 0.339411"/>
    <path d="M 177.746748 112.950012 
L 179.160962 112.950012 
L 179.160962 111.535798 
L 180.575175 111.535798 
L 180.575175 110.121585 
L 179.160962 110.121585 
L 179.160962 108.707371 
L 177.746748 108.707371 
L 177.746748 110.121585 
L 176.332535 110.121585 
L 176.332535 111.535798 
L 177.746748 111.535798 
z
" clip-path="url(#p16299c916b)" style="fill: #4eb265; fill-opacity: 0.6; stroke: #ffffff; stroke-opacity: 0.6; stroke-width: 0.339411"/>
    <path d="M 153.57355 102.504248 
L 154.987763 102.504248 
L 154.987763 101.090034 
L 156.401977 101.090034 
L 156.401977 99.675821 
L 154.987763 99.675821 
L 154.987763 98.261607 
L 153.57355 98.261607 
L 153.57355 99.675821 
L 152.159336 99.675821 
L 152.159336 101.090034 
L 153.57355 101.090034 
z
" clip-path="url(#p16299c916b)" style="fill: #4eb265; fill-opacity: 0.6; stroke: #ffffff; stroke-opacity: 0.6; stroke-width: 0.339411"/>
    <path d="M 160.329138 98.85975 
L 161.743352 98.85975 
L 161.743352 97.445536 
L 163.157566 97.445536 
L 163.157566 96.031323 
L 161.743352 96.031323 
L 161.743352 94.617109 
L 160.329138 94.617109 
L 160.329138 96.031323 
L 158.914925 96.031323 
L 158.914925 97.445536 
L 160.329138 97.445536 
z
" clip-path="url(#p16299c916b)" style="fill: #4eb265; fill-opacity: 0.6; stroke: #ffffff; stroke-opacity: 0.6; stroke-width: 0.339411"/>
    <path d="M 157.744777 94.164433 
L 159.15899 94.164433 
L 159.15899 92.750219 
L 160.573204 92.750219 
L 160.573204 91.336006 
L 159.15899 91.336006 
L 159.15899 89.921792 
L 157.744777 89.921792 
L 157.744777 91.336006 
L 156.330563 91.336006 
L 156.330563 92.750219 
L 157.744777 92.750219 
z
" clip-path="url(#p16299c916b)" style="fill: #4eb265; fill-opacity: 0.6; stroke: #ffffff; stroke-opacity: 0.6; stroke-width: 0.339411"/>
    <path d="M 175.602252 91.890174 
L 177.016466 91.890174 
L 177.016466 90.47596 
L 178.430679 90.47596 
L 178.430679 89.061747 
L 177.016466 89.061747 
L 177.016466 87.647533 
L 175.602252 87.647533 
L 175.602252 89.061747 
L 174.188038 89.061747 
L 174.188038 90.47596 
L 175.602252 90.47596 
z
" clip-path="url(#p16299c916b)" style="fill: #4eb265; fill-opacity: 0.6; stroke: #ffffff; stroke-opacity: 0.6; stroke-width: 0.339411"/>
    <path d="M 148.442993 102.062059 
L 149.857207 102.062059 
L 149.857207 100.647846 
L 151.27142 100.647846 
L 151.27142 99.233632 
L 149.857207 99.233632 
L 149.857207 97.819419 
L 148.442993 97.819419 
L 148.442993 99.233632 
L 147.02878 99.233632 
L 147.02878 100.647846 
L 148.442993 100.647846 
z
" clip-path="url(#p16299c916b)" style="fill: #4eb265; fill-opacity: 0.6; stroke: #ffffff; stroke-opacity: 0.6; stroke-width: 0.339411"/>
    <path d="M 166.078987 111.6838 
L 167.4932 111.6838 
L 167.4932 110.269586 
L 168.907414 110.269586 
L 168.907414 108.855373 
L 167.4932 108.855373 
L 167.4932 107.441159 
L 166.078987 107.441159 
L 166.078987 108.855373 
L 164.664773 108.855373 
L 164.664773 110.269586 
L 166.078987 110.269586 
z
" clip-path="url(#p16299c916b)" style="fill: #4eb265; fill-opacity: 0.6; stroke: #ffffff; stroke-opacity: 0.6; stroke-width: 0.339411"/>
    <path d="M 154.531835 100.131268 
L 155.946048 100.131268 
L 155.946048 98.717054 
L 157.360262 98.717054 
L 157.360262 97.302841 
L 155.946048 97.302841 
L 155.946048 95.888627 
L 154.531835 95.888627 
L 154.531835 97.302841 
L 153.117621 97.302841 
L 153.117621 98.717054 
L 154.531835 98.717054 
z
" clip-path="url(#p16299c916b)" style="fill: #4eb265; fill-opacity: 0.6; stroke: #ffffff; stroke-opacity: 0.6; stroke-width: 0.339411"/>
    <path d="M 179.486731 110.328897 
L 180.900945 110.328897 
L 180.900945 108.914683 
L 182.315158 108.914683 
L 182.315158 107.50047 
L 180.900945 107.50047 
L 180.900945 106.086256 
L 179.486731 106.086256 
L 179.486731 107.50047 
L 178.072517 107.50047 
L 178.072517 108.914683 
L 179.486731 108.914683 
z
" clip-path="url(#p16299c916b)" style="fill: #4eb265; fill-opacity: 0.6; stroke: #ffffff; stroke-opacity: 0.6; stroke-width: 0.339411"/>
    <path d="M 174.699707 102.4849 
L 176.113921 102.4849 
L 176.113921 101.070687 
L 177.528134 101.070687 
L 177.528134 99.656473 
L 176.113921 99.656473 
L 176.113921 98.24226 
L 174.699707 98.24226 
L 174.699707 99.656473 
L 173.285494 99.656473 
L 173.285494 101.070687 
L 174.699707 101.070687 
z
" clip-path="url(#p16299c916b)" style="fill: #4eb265; fill-opacity: 0.6; stroke: #ffffff; stroke-opacity: 0.6; stroke-width: 0.339411"/>
    <path d="M 179.262131 109.343455 
L 180.676345 109.343455 
L 180.676345 107.929241 
L 182.090559 107.929241 
L 182.090559 106.515028 
L 180.676345 106.515028 
L 180.676345 105.100814 
L 179.262131 105.100814 
L 179.262131 106.515028 
L 177.847918 106.515028 
L 177.847918 107.929241 
L 179.262131 107.929241 
z
" clip-path="url(#p16299c916b)" style="fill: #4eb265; fill-opacity: 0.6; stroke: #ffffff; stroke-opacity: 0.6; stroke-width: 0.339411"/>
    <path d="M 176.917898 112.574815 
L 178.332112 112.574815 
L 178.332112 111.160601 
L 179.746325 111.160601 
L 179.746325 109.746387 
L 178.332112 109.746387 
L 178.332112 108.332174 
L 176.917898 108.332174 
L 176.917898 109.746387 
L 175.503685 109.746387 
L 175.503685 111.160601 
L 176.917898 111.160601 
z
" clip-path="url(#p16299c916b)" style="fill: #4eb265; fill-opacity: 0.6; stroke: #ffffff; stroke-opacity: 0.6; stroke-width: 0.339411"/>
    <path d="M 172.326539 93.677014 
L 173.740752 93.677014 
L 173.740752 92.2628 
L 175.154966 92.2628 
L 175.154966 90.848586 
L 173.740752 90.848586 
L 173.740752 89.434373 
L 172.326539 89.434373 
L 172.326539 90.848586 
L 170.912325 90.848586 
L 170.912325 92.2628 
L 172.326539 92.2628 
z
" clip-path="url(#p16299c916b)" style="fill: #4eb265; fill-opacity: 0.6; stroke: #ffffff; stroke-opacity: 0.6; stroke-width: 0.339411"/>
    <path d="M 161.432395 91.447448 
L 162.846609 91.447448 
L 162.846609 90.033235 
L 164.260822 90.033235 
L 164.260822 88.619021 
L 162.846609 88.619021 
L 162.846609 87.204808 
L 161.432395 87.204808 
L 161.432395 88.619021 
L 160.018182 88.619021 
L 160.018182 90.033235 
L 161.432395 90.033235 
z
" clip-path="url(#p16299c916b)" style="fill: #4eb265; fill-opacity: 0.6; stroke: #ffffff; stroke-opacity: 0.6; stroke-width: 0.339411"/>
    <path d="M 159.437312 130.392519 
L 160.851526 130.392519 
L 160.851526 128.978305 
L 162.26574 128.978305 
L 162.26574 127.564092 
L 160.851526 127.564092 
L 160.851526 126.149878 
L 159.437312 126.149878 
L 159.437312 127.564092 
L 158.023099 127.564092 
L 158.023099 128.978305 
L 159.437312 128.978305 
z
" clip-path="url(#p16299c916b)" style="fill: #4eb265; fill-opacity: 0.6; stroke: #ffffff; stroke-opacity: 0.6; stroke-width: 0.339411"/>
    <path d="M 154.38247 93.6601 
L 155.796684 93.6601 
L 155.796684 92.245886 
L 157.210898 92.245886 
L 157.210898 90.831673 
L 155.796684 90.831673 
L 155.796684 89.417459 
L 154.38247 89.417459 
L 154.38247 90.831673 
L 152.968257 90.831673 
L 152.968257 92.245886 
L 154.38247 92.245886 
z
" clip-path="url(#p16299c916b)" style="fill: #4eb265; fill-opacity: 0.6; stroke: #ffffff; stroke-opacity: 0.6; stroke-width: 0.339411"/>
    <path d="M 166.730832 89.183466 
L 168.145046 89.183466 
L 168.145046 87.769252 
L 169.559259 87.769252 
L 169.559259 86.355038 
L 168.145046 86.355038 
L 168.145046 84.940825 
L 166.730832 84.940825 
L 166.730832 86.355038 
L 165.316618 86.355038 
L 165.316618 87.769252 
L 166.730832 87.769252 
z
" clip-path="url(#p16299c916b)" style="fill: #4eb265; fill-opacity: 0.6; stroke: #ffffff; stroke-opacity: 0.6; stroke-width: 0.339411"/>
    <path d="M 162.870216 103.179456 
L 164.284429 103.179456 
L 164.284429 101.765242 
L 165.698643 101.765242 
L 165.698643 100.351029 
L 164.284429 100.351029 
L 164.284429 98.936815 
L 162.870216 98.936815 
L 162.870216 100.351029 
L 161.456002 100.351029 
L 161.456002 101.765242 
L 162.870216 101.765242 
z
" clip-path="url(#p16299c916b)" style="fill: #4eb265; fill-opacity: 0.6; stroke: #ffffff; stroke-opacity: 0.6; stroke-width: 0.339411"/>
    <path d="M 178.944973 102.381918 
L 180.359187 102.381918 
L 180.359187 100.967704 
L 181.7734 100.967704 
L 181.7734 99.553491 
L 180.359187 99.553491 
L 180.359187 98.139277 
L 178.944973 98.139277 
L 178.944973 99.553491 
L 177.53076 99.553491 
L 177.53076 100.967704 
L 178.944973 100.967704 
z
" clip-path="url(#p16299c916b)" style="fill: #4eb265; fill-opacity: 0.6; stroke: #ffffff; stroke-opacity: 0.6; stroke-width: 0.339411"/>
    <path d="M 156.795711 128.582482 
L 158.209925 128.582482 
L 158.209925 127.168268 
L 159.624138 127.168268 
L 159.624138 125.754055 
L 158.209925 125.754055 
L 158.209925 124.339841 
L 156.795711 124.339841 
L 156.795711 125.754055 
L 155.381497 125.754055 
L 155.381497 127.168268 
L 156.795711 127.168268 
z
" clip-path="url(#p16299c916b)" style="fill: #4eb265; fill-opacity: 0.6; stroke: #ffffff; stroke-opacity: 0.6; stroke-width: 0.339411"/>
    <path d="M 160.713501 127.354543 
L 162.127715 127.354543 
L 162.127715 125.94033 
L 163.541928 125.94033 
L 163.541928 124.526116 
L 162.127715 124.526116 
L 162.127715 123.111903 
L 160.713501 123.111903 
L 160.713501 124.526116 
L 159.299288 124.526116 
L 159.299288 125.94033 
L 160.713501 125.94033 
z
" clip-path="url(#p16299c916b)" style="fill: #4eb265; fill-opacity: 0.6; stroke: #ffffff; stroke-opacity: 0.6; stroke-width: 0.339411"/>
    <path d="M 203.709122 138.163079 
L 205.123336 138.163079 
L 205.123336 136.748865 
L 206.537549 136.748865 
L 206.537549 135.334652 
L 205.123336 135.334652 
L 205.123336 133.920438 
L 203.709122 133.920438 
L 203.709122 135.334652 
L 202.294908 135.334652 
L 202.294908 136.748865 
L 203.709122 136.748865 
z
" clip-path="url(#p16299c916b)" style="fill: #4eb265; fill-opacity: 0.6; stroke: #ffffff; stroke-opacity: 0.6; stroke-width: 0.339411"/>
    <path d="M 174.15917 117.256586 
L 175.573384 117.256586 
L 175.573384 115.842372 
L 176.987597 115.842372 
L 176.987597 114.428159 
L 175.573384 114.428159 
L 175.573384 113.013945 
L 174.15917 113.013945 
L 174.15917 114.428159 
L 172.744957 114.428159 
L 172.744957 115.842372 
L 174.15917 115.842372 
z
" clip-path="url(#p16299c916b)" style="fill: #4eb265; fill-opacity: 0.6; stroke: #ffffff; stroke-opacity: 0.6; stroke-width: 0.339411"/>
    <path d="M 172.872459 99.437802 
L 174.286673 99.437802 
L 174.286673 98.023588 
L 175.700887 98.023588 
L 175.700887 96.609375 
L 174.286673 96.609375 
L 174.286673 95.195161 
L 172.872459 95.195161 
L 172.872459 96.609375 
L 171.458246 96.609375 
L 171.458246 98.023588 
L 172.872459 98.023588 
z
" clip-path="url(#p16299c916b)" style="fill: #4eb265; fill-opacity: 0.6; stroke: #ffffff; stroke-opacity: 0.6; stroke-width: 0.339411"/>
    <path d="M 151.202881 100.213079 
L 152.617094 100.213079 
L 152.617094 98.798866 
L 154.031308 98.798866 
L 154.031308 97.384652 
L 152.617094 97.384652 
L 152.617094 95.970439 
L 151.202881 95.970439 
L 151.202881 97.384652 
L 149.788667 97.384652 
L 149.788667 98.798866 
L 151.202881 98.798866 
z
" clip-path="url(#p16299c916b)" style="fill: #4eb265; fill-opacity: 0.6; stroke: #ffffff; stroke-opacity: 0.6; stroke-width: 0.339411"/>
    <path d="M 172.109609 95.445796 
L 173.523823 95.445796 
L 173.523823 94.031583 
L 174.938036 94.031583 
L 174.938036 92.617369 
L 173.523823 92.617369 
L 173.523823 91.203156 
L 172.109609 91.203156 
L 172.109609 92.617369 
L 170.695396 92.617369 
L 170.695396 94.031583 
L 172.109609 94.031583 
z
" clip-path="url(#p16299c916b)" style="fill: #4eb265; fill-opacity: 0.6; stroke: #ffffff; stroke-opacity: 0.6; stroke-width: 0.339411"/>
    <path d="M 169.719617 93.006222 
L 171.133831 93.006222 
L 171.133831 91.592009 
L 172.548044 91.592009 
L 172.548044 90.177795 
L 171.133831 90.177795 
L 171.133831 88.763582 
L 169.719617 88.763582 
L 169.719617 90.177795 
L 168.305404 90.177795 
L 168.305404 91.592009 
L 169.719617 91.592009 
z
" clip-path="url(#p16299c916b)" style="fill: #4eb265; fill-opacity: 0.6; stroke: #ffffff; stroke-opacity: 0.6; stroke-width: 0.339411"/>
    <path d="M 172.497447 117.498267 
L 173.91166 117.498267 
L 173.91166 116.084054 
L 175.325874 116.084054 
L 175.325874 114.66984 
L 173.91166 114.66984 
L 173.91166 113.255627 
L 172.497447 113.255627 
L 172.497447 114.66984 
L 171.083233 114.66984 
L 171.083233 116.084054 
L 172.497447 116.084054 
z
" clip-path="url(#p16299c916b)" style="fill: #4eb265; fill-opacity: 0.6; stroke: #ffffff; stroke-opacity: 0.6; stroke-width: 0.339411"/>
    <path d="M 173.694287 118.602516 
L 175.1085 118.602516 
L 175.1085 117.188302 
L 176.522714 117.188302 
L 176.522714 115.774088 
L 175.1085 115.774088 
L 175.1085 114.359875 
L 173.694287 114.359875 
L 173.694287 115.774088 
L 172.280073 115.774088 
L 172.280073 117.188302 
L 173.694287 117.188302 
z
" clip-path="url(#p16299c916b)" style="fill: #4eb265; fill-opacity: 0.6; stroke: #ffffff; stroke-opacity: 0.6; stroke-width: 0.339411"/>
    <path d="M 159.080885 103.581155 
L 160.495099 103.581155 
L 160.495099 102.166941 
L 161.909312 102.166941 
L 161.909312 100.752728 
L 160.495099 100.752728 
L 160.495099 99.338514 
L 159.080885 99.338514 
L 159.080885 100.752728 
L 157.666672 100.752728 
L 157.666672 102.166941 
L 159.080885 102.166941 
z
" clip-path="url(#p16299c916b)" style="fill: #4eb265; fill-opacity: 0.6; stroke: #ffffff; stroke-opacity: 0.6; stroke-width: 0.339411"/>
    <path d="M 178.359046 116.206492 
L 179.773259 116.206492 
L 179.773259 114.792279 
L 181.187473 114.792279 
L 181.187473 113.378065 
L 179.773259 113.378065 
L 179.773259 111.963851 
L 178.359046 111.963851 
L 178.359046 113.378065 
L 176.944832 113.378065 
L 176.944832 114.792279 
L 178.359046 114.792279 
z
" clip-path="url(#p16299c916b)" style="fill: #4eb265; fill-opacity: 0.6; stroke: #ffffff; stroke-opacity: 0.6; stroke-width: 0.339411"/>
    <path d="M 179.866874 101.315685 
L 181.281087 101.315685 
L 181.281087 99.901471 
L 182.695301 99.901471 
L 182.695301 98.487257 
L 181.281087 98.487257 
L 181.281087 97.073044 
L 179.866874 97.073044 
L 179.866874 98.487257 
L 178.45266 98.487257 
L 178.45266 99.901471 
L 179.866874 99.901471 
z
" clip-path="url(#p16299c916b)" style="fill: #4eb265; fill-opacity: 0.6; stroke: #ffffff; stroke-opacity: 0.6; stroke-width: 0.339411"/>
    <path d="M 181.930792 109.858765 
L 183.345005 109.858765 
L 183.345005 108.444551 
L 184.759219 108.444551 
L 184.759219 107.030337 
L 183.345005 107.030337 
L 183.345005 105.616124 
L 181.930792 105.616124 
L 181.930792 107.030337 
L 180.516578 107.030337 
L 180.516578 108.444551 
L 181.930792 108.444551 
z
" clip-path="url(#p16299c916b)" style="fill: #4eb265; fill-opacity: 0.6; stroke: #ffffff; stroke-opacity: 0.6; stroke-width: 0.339411"/>
    <path d="M 164.372897 94.998306 
L 165.787111 94.998306 
L 165.787111 93.584092 
L 167.201324 93.584092 
L 167.201324 92.169879 
L 165.787111 92.169879 
L 165.787111 90.755665 
L 164.372897 90.755665 
L 164.372897 92.169879 
L 162.958684 92.169879 
L 162.958684 93.584092 
L 164.372897 93.584092 
z
" clip-path="url(#p16299c916b)" style="fill: #4eb265; fill-opacity: 0.6; stroke: #ffffff; stroke-opacity: 0.6; stroke-width: 0.339411"/>
    <path d="M 175.513872 93.678333 
L 176.928086 93.678333 
L 176.928086 92.264119 
L 178.3423 92.264119 
L 178.3423 90.849906 
L 176.928086 90.849906 
L 176.928086 89.435692 
L 175.513872 89.435692 
L 175.513872 90.849906 
L 174.099659 90.849906 
L 174.099659 92.264119 
L 175.513872 92.264119 
z
" clip-path="url(#p16299c916b)" style="fill: #4eb265; fill-opacity: 0.6; stroke: #ffffff; stroke-opacity: 0.6; stroke-width: 0.339411"/>
    <path d="M 177.532474 115.455061 
L 178.946688 115.455061 
L 178.946688 114.040848 
L 180.360901 114.040848 
L 180.360901 112.626634 
L 178.946688 112.626634 
L 178.946688 111.212421 
L 177.532474 111.212421 
L 177.532474 112.626634 
L 176.11826 112.626634 
L 176.11826 114.040848 
L 177.532474 114.040848 
z
" clip-path="url(#p16299c916b)" style="fill: #4eb265; fill-opacity: 0.6; stroke: #ffffff; stroke-opacity: 0.6; stroke-width: 0.339411"/>
    <path d="M 148.034395 97.58025 
L 149.448608 97.58025 
L 149.448608 96.166037 
L 150.862822 96.166037 
L 150.862822 94.751823 
L 149.448608 94.751823 
L 149.448608 93.33761 
L 148.034395 93.33761 
L 148.034395 94.751823 
L 146.620181 94.751823 
L 146.620181 96.166037 
L 148.034395 96.166037 
z
" clip-path="url(#p16299c916b)" style="fill: #4eb265; fill-opacity: 0.6; stroke: #ffffff; stroke-opacity: 0.6; stroke-width: 0.339411"/>
    <path d="M 161.641999 97.105254 
L 163.056212 97.105254 
L 163.056212 95.691041 
L 164.470426 95.691041 
L 164.470426 94.276827 
L 163.056212 94.276827 
L 163.056212 92.862614 
L 161.641999 92.862614 
L 161.641999 94.276827 
L 160.227785 94.276827 
L 160.227785 95.691041 
L 161.641999 95.691041 
z
" clip-path="url(#p16299c916b)" style="fill: #4eb265; fill-opacity: 0.6; stroke: #ffffff; stroke-opacity: 0.6; stroke-width: 0.339411"/>
    <path d="M 169.191446 108.527671 
L 170.60566 108.527671 
L 170.60566 107.113458 
L 172.019873 107.113458 
L 172.019873 105.699244 
L 170.60566 105.699244 
L 170.60566 104.285031 
L 169.191446 104.285031 
L 169.191446 105.699244 
L 167.777232 105.699244 
L 167.777232 107.113458 
L 169.191446 107.113458 
z
" clip-path="url(#p16299c916b)" style="fill: #4eb265; fill-opacity: 0.6; stroke: #ffffff; stroke-opacity: 0.6; stroke-width: 0.339411"/>
    <path d="M 151.883292 101.466626 
L 153.297506 101.466626 
L 153.297506 100.052413 
L 154.711719 100.052413 
L 154.711719 98.638199 
L 153.297506 98.638199 
L 153.297506 97.223986 
L 151.883292 97.223986 
L 151.883292 98.638199 
L 150.469079 98.638199 
L 150.469079 100.052413 
L 151.883292 100.052413 
z
" clip-path="url(#p16299c916b)" style="fill: #4eb265; fill-opacity: 0.6; stroke: #ffffff; stroke-opacity: 0.6; stroke-width: 0.339411"/>
    <path d="M 177.366122 107.071187 
L 178.780336 107.071187 
L 178.780336 105.656974 
L 180.194549 105.656974 
L 180.194549 104.24276 
L 178.780336 104.24276 
L 178.780336 102.828547 
L 177.366122 102.828547 
L 177.366122 104.24276 
L 175.951909 104.24276 
L 175.951909 105.656974 
L 177.366122 105.656974 
z
" clip-path="url(#p16299c916b)" style="fill: #4eb265; fill-opacity: 0.6; stroke: #ffffff; stroke-opacity: 0.6; stroke-width: 0.339411"/>
    <path d="M 162.183084 102.713167 
L 163.597298 102.713167 
L 163.597298 101.298953 
L 165.011512 101.298953 
L 165.011512 99.88474 
L 163.597298 99.88474 
L 163.597298 98.470526 
L 162.183084 98.470526 
L 162.183084 99.88474 
L 160.768871 99.88474 
L 160.768871 101.298953 
L 162.183084 101.298953 
z
" clip-path="url(#p16299c916b)" style="fill: #4eb265; fill-opacity: 0.6; stroke: #ffffff; stroke-opacity: 0.6; stroke-width: 0.339411"/>
    <path d="M 166.232596 99.240814 
L 167.64681 99.240814 
L 167.64681 97.826601 
L 169.061023 97.826601 
L 169.061023 96.412387 
L 167.64681 96.412387 
L 167.64681 94.998174 
L 166.232596 94.998174 
L 166.232596 96.412387 
L 164.818382 96.412387 
L 164.818382 97.826601 
L 166.232596 97.826601 
z
" clip-path="url(#p16299c916b)" style="fill: #4eb265; fill-opacity: 0.6; stroke: #ffffff; stroke-opacity: 0.6; stroke-width: 0.339411"/>
   </g>
   <g id="matplotlib.axis_1">
    <g id="xtick_1">
     <g id="line2d_1">
      <defs>
       <path id="m1b193e454e" d="M 0 0 
L 0 8 
" style="stroke: #000000"/>
      </defs>
      <g>
       <use xlink:href="#m1b193e454e" x="80.925729" y="188.936063" style="stroke: #000000"/>
      </g>
     </g>
     <g id="text_1">
      <!-- 0 -->
      <g transform="translate(77.108229 209.554188) scale(0.12 -0.12)">
       <defs>
        <path id="DejaVuSans-30" d="M 2034 4250 
Q 1547 4250 1301 3770 
Q 1056 3291 1056 2328 
Q 1056 1369 1301 889 
Q 1547 409 2034 409 
Q 2525 409 2770 889 
Q 3016 1369 3016 2328 
Q 3016 3291 2770 3770 
Q 2525 4250 2034 4250 
z
M 2034 4750 
Q 2819 4750 3233 4129 
Q 3647 3509 3647 2328 
Q 3647 1150 3233 529 
Q 2819 -91 2034 -91 
Q 1250 -91 836 529 
Q 422 1150 422 2328 
Q 422 3509 836 4129 
Q 1250 4750 2034 4750 
z
" transform="scale(0.015625)"/>
       </defs>
       <use xlink:href="#DejaVuSans-30"/>
      </g>
     </g>
    </g>
    <g id="xtick_2">
     <g id="line2d_2">
      <g>
       <use xlink:href="#m1b193e454e" x="166.853085" y="188.936063" style="stroke: #000000"/>
      </g>
     </g>
     <g id="text_2">
      <!-- 10 -->
      <g transform="translate(159.218085 209.554188) scale(0.12 -0.12)">
       <defs>
        <path id="DejaVuSans-31" d="M 794 531 
L 1825 531 
L 1825 4091 
L 703 3866 
L 703 4441 
L 1819 4666 
L 2450 4666 
L 2450 531 
L 3481 531 
L 3481 0 
L 794 0 
L 794 531 
z
" transform="scale(0.015625)"/>
       </defs>
       <use xlink:href="#DejaVuSans-31"/>
       <use xlink:href="#DejaVuSans-30" x="63.623047"/>
      </g>
     </g>
    </g>
    <g id="text_3">
     <!-- UMAP 1 -->
     <g transform="translate(117.956572 225.167938) scale(0.12 -0.12)">
      <defs>
       <path id="DejaVuSans-55" d="M 556 4666 
L 1191 4666 
L 1191 1831 
Q 1191 1081 1462 751 
Q 1734 422 2344 422 
Q 2950 422 3222 751 
Q 3494 1081 3494 1831 
L 3494 4666 
L 4128 4666 
L 4128 1753 
Q 4128 841 3676 375 
Q 3225 -91 2344 -91 
Q 1459 -91 1007 375 
Q 556 841 556 1753 
L 556 4666 
z
" transform="scale(0.015625)"/>
       <path id="DejaVuSans-4d" d="M 628 4666 
L 1569 4666 
L 2759 1491 
L 3956 4666 
L 4897 4666 
L 4897 0 
L 4281 0 
L 4281 4097 
L 3078 897 
L 2444 897 
L 1241 4097 
L 1241 0 
L 628 0 
L 628 4666 
z
" transform="scale(0.015625)"/>
       <path id="DejaVuSans-41" d="M 2188 4044 
L 1331 1722 
L 3047 1722 
L 2188 4044 
z
M 1831 4666 
L 2547 4666 
L 4325 0 
L 3669 0 
L 3244 1197 
L 1141 1197 
L 716 0 
L 50 0 
L 1831 4666 
z
" transform="scale(0.015625)"/>
       <path id="DejaVuSans-50" d="M 1259 4147 
L 1259 2394 
L 2053 2394 
Q 2494 2394 2734 2622 
Q 2975 2850 2975 3272 
Q 2975 3691 2734 3919 
Q 2494 4147 2053 4147 
L 1259 4147 
z
M 628 4666 
L 2053 4666 
Q 2838 4666 3239 4311 
Q 3641 3956 3641 3272 
Q 3641 2581 3239 2228 
Q 2838 1875 2053 1875 
L 1259 1875 
L 1259 0 
L 628 0 
L 628 4666 
z
" transform="scale(0.015625)"/>
       <path id="DejaVuSans-20" transform="scale(0.015625)"/>
      </defs>
      <use xlink:href="#DejaVuSans-55"/>
      <use xlink:href="#DejaVuSans-4d" x="73.193359"/>
      <use xlink:href="#DejaVuSans-41" x="159.472656"/>
      <use xlink:href="#DejaVuSans-50" x="227.880859"/>
      <use xlink:href="#DejaVuSans-20" x="288.183594"/>
      <use xlink:href="#DejaVuSans-31" x="319.970703"/>
     </g>
    </g>
   </g>
   <g id="matplotlib.axis_2">
    <g id="ytick_1">
     <g id="line2d_3">
      <defs>
       <path id="m945a14b693" d="M 0 0 
L -8 0 
" style="stroke: #000000"/>
      </defs>
      <g>
       <use xlink:href="#m945a14b693" x="53.957638" y="161.967971" style="stroke: #000000"/>
      </g>
     </g>
     <g id="text_4">
      <!-- 0 -->
      <g transform="translate(34.822638 166.527034) scale(0.12 -0.12)">
       <use xlink:href="#DejaVuSans-30"/>
      </g>
     </g>
    </g>
    <g id="ytick_2">
     <g id="line2d_4">
      <g>
       <use xlink:href="#m945a14b693" x="53.957638" y="76.040616" style="stroke: #000000"/>
      </g>
     </g>
     <g id="text_5">
      <!-- 10 -->
      <g transform="translate(27.187638 80.599678) scale(0.12 -0.12)">
       <use xlink:href="#DejaVuSans-31"/>
       <use xlink:href="#DejaVuSans-30" x="63.623047"/>
      </g>
     </g>
    </g>
    <g id="text_6">
     <!-- UMAP 2 -->
     <g transform="translate(20.692013 124.937128) rotate(-90) scale(0.12 -0.12)">
      <defs>
       <path id="DejaVuSans-32" d="M 1228 531 
L 3431 531 
L 3431 0 
L 469 0 
L 469 531 
Q 828 903 1448 1529 
Q 2069 2156 2228 2338 
Q 2531 2678 2651 2914 
Q 2772 3150 2772 3378 
Q 2772 3750 2511 3984 
Q 2250 4219 1831 4219 
Q 1534 4219 1204 4116 
Q 875 4013 500 3803 
L 500 4441 
Q 881 4594 1212 4672 
Q 1544 4750 1819 4750 
Q 2544 4750 2975 4387 
Q 3406 4025 3406 3419 
Q 3406 3131 3298 2873 
Q 3191 2616 2906 2266 
Q 2828 2175 2409 1742 
Q 1991 1309 1228 531 
z
" transform="scale(0.015625)"/>
      </defs>
      <use xlink:href="#DejaVuSans-55"/>
      <use xlink:href="#DejaVuSans-4d" x="73.193359"/>
      <use xlink:href="#DejaVuSans-41" x="159.472656"/>
      <use xlink:href="#DejaVuSans-50" x="227.880859"/>
      <use xlink:href="#DejaVuSans-20" x="288.183594"/>
      <use xlink:href="#DejaVuSans-32" x="319.970703"/>
     </g>
    </g>
   </g>
   <g id="patch_3">
    <path d="M 53.957638 188.936063 
L 53.957638 14.908819 
" style="fill: none; stroke: #000000; stroke-width: 2; stroke-linejoin: miter; stroke-linecap: square"/>
   </g>
   <g id="patch_4">
    <path d="M 53.957638 188.936063 
L 227.984882 188.936063 
" style="fill: none; stroke: #000000; stroke-width: 2; stroke-linejoin: miter; stroke-linecap: square"/>
   </g>
  </g>
 </g>
 <defs>
  <clipPath id="p16299c916b">
   <rect x="53.957638" y="14.908819" width="174.027244" height="174.027244"/>
  </clipPath>
 </defs>
</svg>
