<?xml version="1.0" encoding="utf-8" standalone="no"?>
<!DOCTYPE svg PUBLIC "-//W3C//DTD SVG 1.1//EN"
  "http://www.w3.org/Graphics/SVG/1.1/DTD/svg11.dtd">
<svg xmlns:xlink="http://www.w3.org/1999/xlink" width="240.944882pt" height="240.944882pt" viewBox="0 0 240.944882 240.944882" xmlns="http://www.w3.org/2000/svg" version="1.1">
 <metadata>
  <rdf:RDF xmlns:dc="http://purl.org/dc/elements/1.1/" xmlns:cc="http://creativecommons.org/ns#" xmlns:rdf="http://www.w3.org/1999/02/22-rdf-syntax-ns#">
   <cc:Work>
    <dc:type rdf:resource="http://purl.org/dc/dcmitype/StillImage"/>
    <dc:date>2025-02-19T15:02:47.066383</dc:date>
    <dc:format>image/svg+xml</dc:format>
    <dc:creator>
     <cc:Agent>
      <dc:title>Matplotlib v3.6.2, https://matplotlib.org/</dc:title>
     </cc:Agent>
    </dc:creator>
   </cc:Work>
  </rdf:RDF>
 </metadata>
 <defs>
  <style type="text/css">*{stroke-linejoin: round; stroke-linecap: butt}</style>
 </defs>
 <g id="figure_1">
  <g id="patch_1">
   <path d="M 0 240.944882 
L 240.944882 240.944882 
L 240.944882 0 
L 0 0 
L 0 240.944882 
z
" style="fill: none"/>
  </g>
  <g id="axes_1">
   <g id="patch_2">
    <path d="M 53.957638 188.936063 
L 227.984882 188.936063 
L 227.984882 14.908819 
L 53.957638 14.908819 
L 53.957638 188.936063 
z
" style="fill: none"/>
   </g>
   <g id="PathCollection_1">
    <path d="M 76.940343 120.933026 
L 74.819023 125.175667 
L 79.061664 125.175667 
z
" clip-path="url(#pdf3fc824a7)" style="fill: #332288; fill-opacity: 0.6; stroke: #ffffff; stroke-opacity: 0.6; stroke-width: 0.339411"/>
    <path d="M 161.976579 110.208522 
L 159.855259 114.451163 
L 164.0979 114.451163 
z
" clip-path="url(#pdf3fc824a7)" style="fill: #332288; fill-opacity: 0.6; stroke: #ffffff; stroke-opacity: 0.6; stroke-width: 0.339411"/>
    <path d="M 176.413206 131.160268 
L 174.291886 135.402908 
L 178.534526 135.402908 
z
" clip-path="url(#pdf3fc824a7)" style="fill: #332288; fill-opacity: 0.6; stroke: #ffffff; stroke-opacity: 0.6; stroke-width: 0.339411"/>
    <path d="M 106.735805 126.04081 
L 104.614484 130.28345 
L 108.857125 130.28345 
z
" clip-path="url(#pdf3fc824a7)" style="fill: #332288; fill-opacity: 0.6; stroke: #ffffff; stroke-opacity: 0.6; stroke-width: 0.339411"/>
    <path d="M 116.859399 120.304453 
L 114.738079 124.547094 
L 118.980719 124.547094 
z
" clip-path="url(#pdf3fc824a7)" style="fill: #332288; fill-opacity: 0.6; stroke: #ffffff; stroke-opacity: 0.6; stroke-width: 0.339411"/>
    <path d="M 94.023083 110.375387 
L 91.901763 114.618028 
L 96.144403 114.618028 
z
" clip-path="url(#pdf3fc824a7)" style="fill: #332288; fill-opacity: 0.6; stroke: #ffffff; stroke-opacity: 0.6; stroke-width: 0.339411"/>
    <path d="M 176.835977 131.618475 
L 174.714657 135.861115 
L 178.957298 135.861115 
z
" clip-path="url(#pdf3fc824a7)" style="fill: #332288; fill-opacity: 0.6; stroke: #ffffff; stroke-opacity: 0.6; stroke-width: 0.339411"/>
    <path d="M 79.240129 118.334168 
L 77.118809 122.576808 
L 81.36145 122.576808 
z
" clip-path="url(#pdf3fc824a7)" style="fill: #332288; fill-opacity: 0.6; stroke: #ffffff; stroke-opacity: 0.6; stroke-width: 0.339411"/>
    <path d="M 172.931758 126.864703 
L 170.810437 131.107343 
L 175.053078 131.107343 
z
" clip-path="url(#pdf3fc824a7)" style="fill: #332288; fill-opacity: 0.6; stroke: #ffffff; stroke-opacity: 0.6; stroke-width: 0.339411"/>
    <path d="M 79.129809 103.890116 
L 77.008488 108.132757 
L 81.251129 108.132757 
z
" clip-path="url(#pdf3fc824a7)" style="fill: #332288; fill-opacity: 0.6; stroke: #ffffff; stroke-opacity: 0.6; stroke-width: 0.339411"/>
    <path d="M 79.372482 124.49239 
L 77.251162 128.73503 
L 81.493802 128.73503 
z
" clip-path="url(#pdf3fc824a7)" style="fill: #332288; fill-opacity: 0.6; stroke: #ffffff; stroke-opacity: 0.6; stroke-width: 0.339411"/>
    <path d="M 161.512991 130.068192 
L 159.391671 134.310833 
L 163.634311 134.310833 
z
" clip-path="url(#pdf3fc824a7)" style="fill: #332288; fill-opacity: 0.6; stroke: #ffffff; stroke-opacity: 0.6; stroke-width: 0.339411"/>
    <path d="M 78.957793 105.566097 
L 76.836473 109.808738 
L 81.079113 109.808738 
z
" clip-path="url(#pdf3fc824a7)" style="fill: #332288; fill-opacity: 0.6; stroke: #ffffff; stroke-opacity: 0.6; stroke-width: 0.339411"/>
    <path d="M 87.454839 119.288955 
L 85.333519 123.531595 
L 89.57616 123.531595 
z
" clip-path="url(#pdf3fc824a7)" style="fill: #332288; fill-opacity: 0.6; stroke: #ffffff; stroke-opacity: 0.6; stroke-width: 0.339411"/>
    <path d="M 107.095404 127.393808 
L 104.974084 131.636449 
L 109.216725 131.636449 
z
" clip-path="url(#pdf3fc824a7)" style="fill: #332288; fill-opacity: 0.6; stroke: #ffffff; stroke-opacity: 0.6; stroke-width: 0.339411"/>
    <path d="M 77.436513 105.542488 
L 75.315192 109.785128 
L 79.557833 109.785128 
z
" clip-path="url(#pdf3fc824a7)" style="fill: #332288; fill-opacity: 0.6; stroke: #ffffff; stroke-opacity: 0.6; stroke-width: 0.339411"/>
    <path d="M 103.624719 123.169957 
L 101.503398 127.412598 
L 105.746039 127.412598 
z
" clip-path="url(#pdf3fc824a7)" style="fill: #332288; fill-opacity: 0.6; stroke: #ffffff; stroke-opacity: 0.6; stroke-width: 0.339411"/>
    <path d="M 84.093345 119.627392 
L 81.972024 123.870032 
L 86.214665 123.870032 
z
" clip-path="url(#pdf3fc824a7)" style="fill: #332288; fill-opacity: 0.6; stroke: #ffffff; stroke-opacity: 0.6; stroke-width: 0.339411"/>
    <path d="M 81.41571 108.819799 
L 79.294389 113.062439 
L 83.53703 113.062439 
z
" clip-path="url(#pdf3fc824a7)" style="fill: #332288; fill-opacity: 0.6; stroke: #ffffff; stroke-opacity: 0.6; stroke-width: 0.339411"/>
    <path d="M 69.69962 106.49979 
L 67.5783 110.74243 
L 71.82094 110.74243 
z
" clip-path="url(#pdf3fc824a7)" style="fill: #332288; fill-opacity: 0.6; stroke: #ffffff; stroke-opacity: 0.6; stroke-width: 0.339411"/>
    <path d="M 97.202932 129.368985 
L 95.081611 133.611626 
L 99.324252 133.611626 
z
" clip-path="url(#pdf3fc824a7)" style="fill: #332288; fill-opacity: 0.6; stroke: #ffffff; stroke-opacity: 0.6; stroke-width: 0.339411"/>
    <path d="M 75.918216 109.05102 
L 73.796896 113.29366 
L 78.039537 113.29366 
z
" clip-path="url(#pdf3fc824a7)" style="fill: #332288; fill-opacity: 0.6; stroke: #ffffff; stroke-opacity: 0.6; stroke-width: 0.339411"/>
    <path d="M 85.581727 125.55493 
L 83.460407 129.797571 
L 87.703048 129.797571 
z
" clip-path="url(#pdf3fc824a7)" style="fill: #332288; fill-opacity: 0.6; stroke: #ffffff; stroke-opacity: 0.6; stroke-width: 0.339411"/>
    <path d="M 86.405361 123.319068 
L 84.28404 127.561709 
L 88.526681 127.561709 
z
" clip-path="url(#pdf3fc824a7)" style="fill: #332288; fill-opacity: 0.6; stroke: #ffffff; stroke-opacity: 0.6; stroke-width: 0.339411"/>
    <path d="M 75.823744 104.941318 
L 73.702423 109.183958 
L 77.945064 109.183958 
z
" clip-path="url(#pdf3fc824a7)" style="fill: #332288; fill-opacity: 0.6; stroke: #ffffff; stroke-opacity: 0.6; stroke-width: 0.339411"/>
    <path d="M 112.930148 120.59658 
L 110.808828 124.83922 
L 115.051468 124.83922 
z
" clip-path="url(#pdf3fc824a7)" style="fill: #332288; fill-opacity: 0.6; stroke: #ffffff; stroke-opacity: 0.6; stroke-width: 0.339411"/>
    <path d="M 87.282598 126.216521 
L 85.161277 130.459162 
L 89.403918 130.459162 
z
" clip-path="url(#pdf3fc824a7)" style="fill: #332288; fill-opacity: 0.6; stroke: #ffffff; stroke-opacity: 0.6; stroke-width: 0.339411"/>
    <path d="M 158.186491 110.400429 
L 156.06517 114.64307 
L 160.307811 114.64307 
z
" clip-path="url(#pdf3fc824a7)" style="fill: #332288; fill-opacity: 0.6; stroke: #ffffff; stroke-opacity: 0.6; stroke-width: 0.339411"/>
    <path d="M 89.745916 114.120201 
L 87.624596 118.362842 
L 91.867237 118.362842 
z
" clip-path="url(#pdf3fc824a7)" style="fill: #332288; fill-opacity: 0.6; stroke: #ffffff; stroke-opacity: 0.6; stroke-width: 0.339411"/>
    <path d="M 94.706281 129.28803 
L 92.584961 133.530671 
L 96.827601 133.530671 
z
" clip-path="url(#pdf3fc824a7)" style="fill: #332288; fill-opacity: 0.6; stroke: #ffffff; stroke-opacity: 0.6; stroke-width: 0.339411"/>
    <path d="M 180.126074 129.5663 
L 178.004753 133.808941 
L 182.247394 133.808941 
z
" clip-path="url(#pdf3fc824a7)" style="fill: #332288; fill-opacity: 0.6; stroke: #ffffff; stroke-opacity: 0.6; stroke-width: 0.339411"/>
    <path d="M 159.76236 113.734813 
L 157.64104 117.977453 
L 161.88368 117.977453 
z
" clip-path="url(#pdf3fc824a7)" style="fill: #332288; fill-opacity: 0.6; stroke: #ffffff; stroke-opacity: 0.6; stroke-width: 0.339411"/>
    <path d="M 104.376235 127.702865 
L 102.254915 131.945506 
L 106.497556 131.945506 
z
" clip-path="url(#pdf3fc824a7)" style="fill: #332288; fill-opacity: 0.6; stroke: #ffffff; stroke-opacity: 0.6; stroke-width: 0.339411"/>
    <path d="M 97.033412 128.656049 
L 94.912092 132.89869 
L 99.154733 132.89869 
z
" clip-path="url(#pdf3fc824a7)" style="fill: #332288; fill-opacity: 0.6; stroke: #ffffff; stroke-opacity: 0.6; stroke-width: 0.339411"/>
    <path d="M 71.472855 101.06382 
L 69.351534 105.306461 
L 73.594175 105.306461 
z
" clip-path="url(#pdf3fc824a7)" style="fill: #332288; fill-opacity: 0.6; stroke: #ffffff; stroke-opacity: 0.6; stroke-width: 0.339411"/>
    <path d="M 70.105051 102.668695 
L 67.983731 106.911336 
L 72.226372 106.911336 
z
" clip-path="url(#pdf3fc824a7)" style="fill: #332288; fill-opacity: 0.6; stroke: #ffffff; stroke-opacity: 0.6; stroke-width: 0.339411"/>
    <path d="M 79.790159 103.918708 
L 77.668839 108.161348 
L 81.911479 108.161348 
z
" clip-path="url(#pdf3fc824a7)" style="fill: #332288; fill-opacity: 0.6; stroke: #ffffff; stroke-opacity: 0.6; stroke-width: 0.339411"/>
    <path d="M 98.152475 114.266504 
L 96.031155 118.509145 
L 100.273796 118.509145 
z
" clip-path="url(#pdf3fc824a7)" style="fill: #332288; fill-opacity: 0.6; stroke: #ffffff; stroke-opacity: 0.6; stroke-width: 0.339411"/>
    <path d="M 117.409241 124.566339 
L 115.287921 128.80898 
L 119.530562 128.80898 
z
" clip-path="url(#pdf3fc824a7)" style="fill: #332288; fill-opacity: 0.6; stroke: #ffffff; stroke-opacity: 0.6; stroke-width: 0.339411"/>
    <path d="M 102.222563 124.4779 
L 100.101242 128.720541 
L 104.343883 128.720541 
z
" clip-path="url(#pdf3fc824a7)" style="fill: #332288; fill-opacity: 0.6; stroke: #ffffff; stroke-opacity: 0.6; stroke-width: 0.339411"/>
    <path d="M 114.749702 122.173463 
L 112.628382 126.416104 
L 116.871023 126.416104 
z
" clip-path="url(#pdf3fc824a7)" style="fill: #332288; fill-opacity: 0.6; stroke: #ffffff; stroke-opacity: 0.6; stroke-width: 0.339411"/>
    <path d="M 78.384353 110.576165 
L 76.263033 114.818806 
L 80.505674 114.818806 
z
" clip-path="url(#pdf3fc824a7)" style="fill: #332288; fill-opacity: 0.6; stroke: #ffffff; stroke-opacity: 0.6; stroke-width: 0.339411"/>
    <path d="M 97.838507 113.014957 
L 95.717187 117.257598 
L 99.959828 117.257598 
z
" clip-path="url(#pdf3fc824a7)" style="fill: #332288; fill-opacity: 0.6; stroke: #ffffff; stroke-opacity: 0.6; stroke-width: 0.339411"/>
    <path d="M 179.754895 130.470722 
L 177.633574 134.713363 
L 181.876215 134.713363 
z
" clip-path="url(#pdf3fc824a7)" style="fill: #332288; fill-opacity: 0.6; stroke: #ffffff; stroke-opacity: 0.6; stroke-width: 0.339411"/>
    <path d="M 173.577933 126.814499 
L 171.456613 131.05714 
L 175.699253 131.05714 
z
" clip-path="url(#pdf3fc824a7)" style="fill: #332288; fill-opacity: 0.6; stroke: #ffffff; stroke-opacity: 0.6; stroke-width: 0.339411"/>
    <path d="M 115.241732 123.954532 
L 113.120411 128.197173 
L 117.363052 128.197173 
z
" clip-path="url(#pdf3fc824a7)" style="fill: #332288; fill-opacity: 0.6; stroke: #ffffff; stroke-opacity: 0.6; stroke-width: 0.339411"/>
    <path d="M 76.783936 107.366993 
L 74.662616 111.609634 
L 78.905257 111.609634 
z
" clip-path="url(#pdf3fc824a7)" style="fill: #332288; fill-opacity: 0.6; stroke: #ffffff; stroke-opacity: 0.6; stroke-width: 0.339411"/>
    <path d="M 116.796084 120.991941 
L 114.674763 125.234582 
L 118.917404 125.234582 
z
" clip-path="url(#pdf3fc824a7)" style="fill: #332288; fill-opacity: 0.6; stroke: #ffffff; stroke-opacity: 0.6; stroke-width: 0.339411"/>
    <path d="M 111.09304 121.217898 
L 108.97172 125.460539 
L 113.214361 125.460539 
z
" clip-path="url(#pdf3fc824a7)" style="fill: #332288; fill-opacity: 0.6; stroke: #ffffff; stroke-opacity: 0.6; stroke-width: 0.339411"/>
    <path d="M 66.756584 104.759264 
L 64.635264 109.001905 
L 68.877904 109.001905 
z
" clip-path="url(#pdf3fc824a7)" style="fill: #332288; fill-opacity: 0.6; stroke: #ffffff; stroke-opacity: 0.6; stroke-width: 0.339411"/>
    <path d="M 78.221872 123.073146 
L 76.100551 127.315787 
L 80.343192 127.315787 
z
" clip-path="url(#pdf3fc824a7)" style="fill: #332288; fill-opacity: 0.6; stroke: #ffffff; stroke-opacity: 0.6; stroke-width: 0.339411"/>
    <path d="M 82.292613 121.350253 
L 80.171292 125.592894 
L 84.413933 125.592894 
z
" clip-path="url(#pdf3fc824a7)" style="fill: #332288; fill-opacity: 0.6; stroke: #ffffff; stroke-opacity: 0.6; stroke-width: 0.339411"/>
    <path d="M 76.555464 121.113103 
L 74.434143 125.355743 
L 78.676784 125.355743 
z
" clip-path="url(#pdf3fc824a7)" style="fill: #332288; fill-opacity: 0.6; stroke: #ffffff; stroke-opacity: 0.6; stroke-width: 0.339411"/>
    <path d="M 173.817244 128.715654 
L 171.695924 132.958295 
L 175.938565 132.958295 
z
" clip-path="url(#pdf3fc824a7)" style="fill: #332288; fill-opacity: 0.6; stroke: #ffffff; stroke-opacity: 0.6; stroke-width: 0.339411"/>
    <path d="M 95.404053 130.63841 
L 93.282733 134.881051 
L 97.525373 134.881051 
z
" clip-path="url(#pdf3fc824a7)" style="fill: #332288; fill-opacity: 0.6; stroke: #ffffff; stroke-opacity: 0.6; stroke-width: 0.339411"/>
    <path d="M 157.879429 112.20207 
L 155.758109 116.444711 
L 160.00075 116.444711 
z
" clip-path="url(#pdf3fc824a7)" style="fill: #332288; fill-opacity: 0.6; stroke: #ffffff; stroke-opacity: 0.6; stroke-width: 0.339411"/>
    <path d="M 68.459401 102.575148 
L 66.338081 106.817789 
L 70.580722 106.817789 
z
" clip-path="url(#pdf3fc824a7)" style="fill: #332288; fill-opacity: 0.6; stroke: #ffffff; stroke-opacity: 0.6; stroke-width: 0.339411"/>
    <path d="M 98.684604 127.663395 
L 96.563284 131.906036 
L 100.805925 131.906036 
z
" clip-path="url(#pdf3fc824a7)" style="fill: #332288; fill-opacity: 0.6; stroke: #ffffff; stroke-opacity: 0.6; stroke-width: 0.339411"/>
    <path d="M 78.883723 124.083389 
L 76.762403 128.32603 
L 81.005044 128.32603 
z
" clip-path="url(#pdf3fc824a7)" style="fill: #332288; fill-opacity: 0.6; stroke: #ffffff; stroke-opacity: 0.6; stroke-width: 0.339411"/>
    <path d="M 68.960126 103.397699 
L 66.838806 107.64034 
L 71.081446 107.64034 
z
" clip-path="url(#pdf3fc824a7)" style="fill: #332288; fill-opacity: 0.6; stroke: #ffffff; stroke-opacity: 0.6; stroke-width: 0.339411"/>
    <path d="M 78.435 116.718963 
L 76.31368 120.961604 
L 80.556321 120.961604 
z
" clip-path="url(#pdf3fc824a7)" style="fill: #332288; fill-opacity: 0.6; stroke: #ffffff; stroke-opacity: 0.6; stroke-width: 0.339411"/>
    <path d="M 94.926286 112.107272 
L 92.804966 116.349913 
L 97.047606 116.349913 
z
" clip-path="url(#pdf3fc824a7)" style="fill: #332288; fill-opacity: 0.6; stroke: #ffffff; stroke-opacity: 0.6; stroke-width: 0.339411"/>
    <path d="M 175.202419 132.441744 
L 173.081098 136.684385 
L 177.323739 136.684385 
z
" clip-path="url(#pdf3fc824a7)" style="fill: #332288; fill-opacity: 0.6; stroke: #ffffff; stroke-opacity: 0.6; stroke-width: 0.339411"/>
    <path d="M 101.062935 116.765816 
L 98.941615 121.008456 
L 103.184256 121.008456 
z
" clip-path="url(#pdf3fc824a7)" style="fill: #332288; fill-opacity: 0.6; stroke: #ffffff; stroke-opacity: 0.6; stroke-width: 0.339411"/>
    <path d="M 168.671327 113.26159 
L 172.913968 113.26159 
L 172.913968 109.01895 
L 168.671327 109.01895 
z
" clip-path="url(#pdf3fc824a7)" style="fill: #117733; fill-opacity: 0.6; stroke: #ffffff; stroke-opacity: 0.6; stroke-width: 0.339411"/>
    <path d="M 179.909323 102.110228 
L 184.151964 102.110228 
L 184.151964 97.867587 
L 179.909323 97.867587 
z
" clip-path="url(#pdf3fc824a7)" style="fill: #117733; fill-opacity: 0.6; stroke: #ffffff; stroke-opacity: 0.6; stroke-width: 0.339411"/>
    <path d="M 200.971457 98.617802 
L 205.214097 98.617802 
L 205.214097 94.375161 
L 200.971457 94.375161 
z
" clip-path="url(#pdf3fc824a7)" style="fill: #117733; fill-opacity: 0.6; stroke: #ffffff; stroke-opacity: 0.6; stroke-width: 0.339411"/>
    <path d="M 171.310698 106.575189 
L 175.553339 106.575189 
L 175.553339 102.332548 
L 171.310698 102.332548 
z
" clip-path="url(#pdf3fc824a7)" style="fill: #117733; fill-opacity: 0.6; stroke: #ffffff; stroke-opacity: 0.6; stroke-width: 0.339411"/>
    <path d="M 194.283741 88.95814 
L 198.526382 88.95814 
L 198.526382 84.715499 
L 194.283741 84.715499 
z
" clip-path="url(#pdf3fc824a7)" style="fill: #117733; fill-opacity: 0.6; stroke: #ffffff; stroke-opacity: 0.6; stroke-width: 0.339411"/>
    <path d="M 209.308321 66.661561 
L 213.550961 66.661561 
L 213.550961 62.41892 
L 209.308321 62.41892 
z
" clip-path="url(#pdf3fc824a7)" style="fill: #117733; fill-opacity: 0.6; stroke: #ffffff; stroke-opacity: 0.6; stroke-width: 0.339411"/>
    <path d="M 163.769187 107.649519 
L 168.011827 107.649519 
L 168.011827 103.406878 
L 163.769187 103.406878 
z
" clip-path="url(#pdf3fc824a7)" style="fill: #117733; fill-opacity: 0.6; stroke: #ffffff; stroke-opacity: 0.6; stroke-width: 0.339411"/>
    <path d="M 158.559945 143.533766 
L 162.802586 143.533766 
L 162.802586 139.291126 
L 158.559945 139.291126 
z
" clip-path="url(#pdf3fc824a7)" style="fill: #117733; fill-opacity: 0.6; stroke: #ffffff; stroke-opacity: 0.6; stroke-width: 0.339411"/>
    <path d="M 164.306896 146.29401 
L 168.549537 146.29401 
L 168.549537 142.051369 
L 164.306896 142.051369 
z
" clip-path="url(#pdf3fc824a7)" style="fill: #117733; fill-opacity: 0.6; stroke: #ffffff; stroke-opacity: 0.6; stroke-width: 0.339411"/>
    <path d="M 202.86153 125.840983 
L 207.104171 125.840983 
L 207.104171 121.598343 
L 202.86153 121.598343 
z
" clip-path="url(#pdf3fc824a7)" style="fill: #117733; fill-opacity: 0.6; stroke: #ffffff; stroke-opacity: 0.6; stroke-width: 0.339411"/>
    <path d="M 200.075045 92.935788 
L 204.317686 92.935788 
L 204.317686 88.693148 
L 200.075045 88.693148 
z
" clip-path="url(#pdf3fc824a7)" style="fill: #117733; fill-opacity: 0.6; stroke: #ffffff; stroke-opacity: 0.6; stroke-width: 0.339411"/>
    <path d="M 154.920723 92.386338 
L 159.163363 92.386338 
L 159.163363 88.143697 
L 154.920723 88.143697 
z
" clip-path="url(#pdf3fc824a7)" style="fill: #117733; fill-opacity: 0.6; stroke: #ffffff; stroke-opacity: 0.6; stroke-width: 0.339411"/>
    <path d="M 163.179806 89.732127 
L 167.422447 89.732127 
L 167.422447 85.489486 
L 163.179806 85.489486 
z
" clip-path="url(#pdf3fc824a7)" style="fill: #117733; fill-opacity: 0.6; stroke: #ffffff; stroke-opacity: 0.6; stroke-width: 0.339411"/>
    <path d="M 195.447046 106.962628 
L 199.689686 106.962628 
L 199.689686 102.719987 
L 195.447046 102.719987 
z
" clip-path="url(#pdf3fc824a7)" style="fill: #117733; fill-opacity: 0.6; stroke: #ffffff; stroke-opacity: 0.6; stroke-width: 0.339411"/>
    <path d="M 164.529092 146.689147 
L 168.771733 146.689147 
L 168.771733 142.446506 
L 164.529092 142.446506 
z
" clip-path="url(#pdf3fc824a7)" style="fill: #117733; fill-opacity: 0.6; stroke: #ffffff; stroke-opacity: 0.6; stroke-width: 0.339411"/>
    <path d="M 182.402004 69.555171 
L 186.644644 69.555171 
L 186.644644 65.31253 
L 182.402004 65.31253 
z
" clip-path="url(#pdf3fc824a7)" style="fill: #117733; fill-opacity: 0.6; stroke: #ffffff; stroke-opacity: 0.6; stroke-width: 0.339411"/>
    <path d="M 192.239641 106.383467 
L 196.482282 106.383467 
L 196.482282 102.140826 
L 192.239641 102.140826 
z
" clip-path="url(#pdf3fc824a7)" style="fill: #117733; fill-opacity: 0.6; stroke: #ffffff; stroke-opacity: 0.6; stroke-width: 0.339411"/>
    <path d="M 156.001414 96.969531 
L 160.244055 96.969531 
L 160.244055 92.72689 
L 156.001414 92.72689 
z
" clip-path="url(#pdf3fc824a7)" style="fill: #117733; fill-opacity: 0.6; stroke: #ffffff; stroke-opacity: 0.6; stroke-width: 0.339411"/>
    <path d="M 166.445283 145.547951 
L 170.687924 145.547951 
L 170.687924 141.305311 
L 166.445283 141.305311 
z
" clip-path="url(#pdf3fc824a7)" style="fill: #117733; fill-opacity: 0.6; stroke: #ffffff; stroke-opacity: 0.6; stroke-width: 0.339411"/>
    <path d="M 159.834793 120.256138 
L 164.077434 120.256138 
L 164.077434 116.013498 
L 159.834793 116.013498 
z
" clip-path="url(#pdf3fc824a7)" style="fill: #117733; fill-opacity: 0.6; stroke: #ffffff; stroke-opacity: 0.6; stroke-width: 0.339411"/>
    <path d="M 160.476965 142.51191 
L 164.719606 142.51191 
L 164.719606 138.26927 
L 160.476965 138.26927 
z
" clip-path="url(#pdf3fc824a7)" style="fill: #117733; fill-opacity: 0.6; stroke: #ffffff; stroke-opacity: 0.6; stroke-width: 0.339411"/>
    <path d="M 161.470592 112.679687 
L 165.713232 112.679687 
L 165.713232 108.437046 
L 161.470592 108.437046 
z
" clip-path="url(#pdf3fc824a7)" style="fill: #117733; fill-opacity: 0.6; stroke: #ffffff; stroke-opacity: 0.6; stroke-width: 0.339411"/>
    <path d="M 160.59394 112.655059 
L 164.836581 112.655059 
L 164.836581 108.412419 
L 160.59394 108.412419 
z
" clip-path="url(#pdf3fc824a7)" style="fill: #117733; fill-opacity: 0.6; stroke: #ffffff; stroke-opacity: 0.6; stroke-width: 0.339411"/>
    <path d="M 153.633508 97.346529 
L 157.876149 97.346529 
L 157.876149 93.103889 
L 153.633508 93.103889 
z
" clip-path="url(#pdf3fc824a7)" style="fill: #117733; fill-opacity: 0.6; stroke: #ffffff; stroke-opacity: 0.6; stroke-width: 0.339411"/>
    <path d="M 207.941972 69.840828 
L 212.184613 69.840828 
L 212.184613 65.598187 
L 207.941972 65.598187 
z
" clip-path="url(#pdf3fc824a7)" style="fill: #117733; fill-opacity: 0.6; stroke: #ffffff; stroke-opacity: 0.6; stroke-width: 0.339411"/>
    <path d="M 161.035819 131.65287 
L 165.27846 131.65287 
L 165.27846 127.410229 
L 161.035819 127.410229 
z
" clip-path="url(#pdf3fc824a7)" style="fill: #117733; fill-opacity: 0.6; stroke: #ffffff; stroke-opacity: 0.6; stroke-width: 0.339411"/>
    <path d="M 159.223456 92.239784 
L 163.466097 92.239784 
L 163.466097 87.997144 
L 159.223456 87.997144 
z
" clip-path="url(#pdf3fc824a7)" style="fill: #117733; fill-opacity: 0.6; stroke: #ffffff; stroke-opacity: 0.6; stroke-width: 0.339411"/>
    <path d="M 196.655426 104.259152 
L 200.898067 104.259152 
L 200.898067 100.016512 
L 196.655426 100.016512 
z
" clip-path="url(#pdf3fc824a7)" style="fill: #117733; fill-opacity: 0.6; stroke: #ffffff; stroke-opacity: 0.6; stroke-width: 0.339411"/>
    <path d="M 159.50048 110.109645 
L 163.743121 110.109645 
L 163.743121 105.867004 
L 159.50048 105.867004 
z
" clip-path="url(#pdf3fc824a7)" style="fill: #117733; fill-opacity: 0.6; stroke: #ffffff; stroke-opacity: 0.6; stroke-width: 0.339411"/>
    <path d="M 159.978353 140.293894 
L 164.220994 140.293894 
L 164.220994 136.051253 
L 159.978353 136.051253 
z
" clip-path="url(#pdf3fc824a7)" style="fill: #117733; fill-opacity: 0.6; stroke: #ffffff; stroke-opacity: 0.6; stroke-width: 0.339411"/>
    <path d="M 165.130492 120.334809 
L 169.373132 120.334809 
L 169.373132 116.092169 
L 165.130492 116.092169 
z
" clip-path="url(#pdf3fc824a7)" style="fill: #117733; fill-opacity: 0.6; stroke: #ffffff; stroke-opacity: 0.6; stroke-width: 0.339411"/>
    <path d="M 185.99078 108.234557 
L 190.233421 108.234557 
L 190.233421 103.991916 
L 185.99078 103.991916 
z
" clip-path="url(#pdf3fc824a7)" style="fill: #117733; fill-opacity: 0.6; stroke: #ffffff; stroke-opacity: 0.6; stroke-width: 0.339411"/>
    <path d="M 155.251817 88.131577 
L 159.494457 88.131577 
L 159.494457 83.888936 
L 155.251817 83.888936 
z
" clip-path="url(#pdf3fc824a7)" style="fill: #117733; fill-opacity: 0.6; stroke: #ffffff; stroke-opacity: 0.6; stroke-width: 0.339411"/>
    <path d="M 151.364941 95.813126 
L 155.607582 95.813126 
L 155.607582 91.570485 
L 151.364941 91.570485 
z
" clip-path="url(#pdf3fc824a7)" style="fill: #117733; fill-opacity: 0.6; stroke: #ffffff; stroke-opacity: 0.6; stroke-width: 0.339411"/>
    <path d="M 157.808813 93.605679 
L 162.051454 93.605679 
L 162.051454 89.363038 
L 157.808813 89.363038 
z
" clip-path="url(#pdf3fc824a7)" style="fill: #117733; fill-opacity: 0.6; stroke: #ffffff; stroke-opacity: 0.6; stroke-width: 0.339411"/>
    <path d="M 157.772185 90.330114 
L 162.014825 90.330114 
L 162.014825 86.087473 
L 157.772185 86.087473 
z
" clip-path="url(#pdf3fc824a7)" style="fill: #117733; fill-opacity: 0.6; stroke: #ffffff; stroke-opacity: 0.6; stroke-width: 0.339411"/>
    <path d="M 160.7909 137.34162 
L 165.033541 137.34162 
L 165.033541 133.098979 
L 160.7909 133.098979 
z
" clip-path="url(#pdf3fc824a7)" style="fill: #117733; fill-opacity: 0.6; stroke: #ffffff; stroke-opacity: 0.6; stroke-width: 0.339411"/>
    <path d="M 164.794689 143.54884 
L 169.03733 143.54884 
L 169.03733 139.306199 
L 164.794689 139.306199 
z
" clip-path="url(#pdf3fc824a7)" style="fill: #117733; fill-opacity: 0.6; stroke: #ffffff; stroke-opacity: 0.6; stroke-width: 0.339411"/>
    <path d="M 156.270829 92.015569 
L 160.51347 92.015569 
L 160.51347 87.772928 
L 156.270829 87.772928 
z
" clip-path="url(#pdf3fc824a7)" style="fill: #117733; fill-opacity: 0.6; stroke: #ffffff; stroke-opacity: 0.6; stroke-width: 0.339411"/>
    <path d="M 159.275507 138.149081 
L 163.518148 138.149081 
L 163.518148 133.90644 
L 159.275507 133.90644 
z
" clip-path="url(#pdf3fc824a7)" style="fill: #117733; fill-opacity: 0.6; stroke: #ffffff; stroke-opacity: 0.6; stroke-width: 0.339411"/>
    <path d="M 162.85327 100.632645 
L 167.095911 100.632645 
L 167.095911 96.390004 
L 162.85327 96.390004 
z
" clip-path="url(#pdf3fc824a7)" style="fill: #117733; fill-opacity: 0.6; stroke: #ffffff; stroke-opacity: 0.6; stroke-width: 0.339411"/>
    <path d="M 156.468446 121.110684 
L 160.711087 121.110684 
L 160.711087 116.868043 
L 156.468446 116.868043 
z
" clip-path="url(#pdf3fc824a7)" style="fill: #117733; fill-opacity: 0.6; stroke: #ffffff; stroke-opacity: 0.6; stroke-width: 0.339411"/>
    <path d="M 160.750075 111.404579 
L 164.992715 111.404579 
L 164.992715 107.161938 
L 160.750075 107.161938 
z
" clip-path="url(#pdf3fc824a7)" style="fill: #117733; fill-opacity: 0.6; stroke: #ffffff; stroke-opacity: 0.6; stroke-width: 0.339411"/>
    <path d="M 166.006103 144.452872 
L 170.248743 144.452872 
L 170.248743 140.210232 
L 166.006103 140.210232 
z
" clip-path="url(#pdf3fc824a7)" style="fill: #117733; fill-opacity: 0.6; stroke: #ffffff; stroke-opacity: 0.6; stroke-width: 0.339411"/>
    <path d="M 160.185912 99.641205 
L 164.428553 99.641205 
L 164.428553 95.398564 
L 160.185912 95.398564 
z
" clip-path="url(#pdf3fc824a7)" style="fill: #117733; fill-opacity: 0.6; stroke: #ffffff; stroke-opacity: 0.6; stroke-width: 0.339411"/>
    <path d="M 194.275488 103.291088 
L 198.518129 103.291088 
L 198.518129 99.048448 
L 194.275488 99.048448 
z
" clip-path="url(#pdf3fc824a7)" style="fill: #117733; fill-opacity: 0.6; stroke: #ffffff; stroke-opacity: 0.6; stroke-width: 0.339411"/>
    <path d="M 167.772155 115.836637 
L 172.014796 115.836637 
L 172.014796 111.593996 
L 167.772155 111.593996 
z
" clip-path="url(#pdf3fc824a7)" style="fill: #117733; fill-opacity: 0.6; stroke: #ffffff; stroke-opacity: 0.6; stroke-width: 0.339411"/>
    <path d="M 169.909458 112.260288 
L 174.152099 112.260288 
L 174.152099 108.017648 
L 169.909458 108.017648 
z
" clip-path="url(#pdf3fc824a7)" style="fill: #117733; fill-opacity: 0.6; stroke: #ffffff; stroke-opacity: 0.6; stroke-width: 0.339411"/>
    <path d="M 175.795358 113.754982 
L 180.037998 113.754982 
L 180.037998 109.512342 
L 175.795358 109.512342 
z
" clip-path="url(#pdf3fc824a7)" style="fill: #117733; fill-opacity: 0.6; stroke: #ffffff; stroke-opacity: 0.6; stroke-width: 0.339411"/>
    <path d="M 158.169006 144.002322 
L 162.411646 144.002322 
L 162.411646 139.759681 
L 158.169006 139.759681 
z
" clip-path="url(#pdf3fc824a7)" style="fill: #117733; fill-opacity: 0.6; stroke: #ffffff; stroke-opacity: 0.6; stroke-width: 0.339411"/>
    <path d="M 163.141555 139.271659 
L 167.384196 139.271659 
L 167.384196 135.029018 
L 163.141555 135.029018 
z
" clip-path="url(#pdf3fc824a7)" style="fill: #117733; fill-opacity: 0.6; stroke: #ffffff; stroke-opacity: 0.6; stroke-width: 0.339411"/>
    <path d="M 164.106841 113.478677 
L 168.349482 113.478677 
L 168.349482 109.236036 
L 164.106841 109.236036 
z
" clip-path="url(#pdf3fc824a7)" style="fill: #117733; fill-opacity: 0.6; stroke: #ffffff; stroke-opacity: 0.6; stroke-width: 0.339411"/>
    <path d="M 192.572684 101.762729 
L 196.815325 101.762729 
L 196.815325 97.520088 
L 192.572684 97.520088 
z
" clip-path="url(#pdf3fc824a7)" style="fill: #117733; fill-opacity: 0.6; stroke: #ffffff; stroke-opacity: 0.6; stroke-width: 0.339411"/>
    <path d="M 155.733913 88.846839 
L 159.976554 88.846839 
L 159.976554 84.604198 
L 155.733913 84.604198 
z
" clip-path="url(#pdf3fc824a7)" style="fill: #117733; fill-opacity: 0.6; stroke: #ffffff; stroke-opacity: 0.6; stroke-width: 0.339411"/>
    <path d="M 165.482457 139.289468 
L 169.725098 139.289468 
L 169.725098 135.046828 
L 165.482457 135.046828 
z
" clip-path="url(#pdf3fc824a7)" style="fill: #117733; fill-opacity: 0.6; stroke: #ffffff; stroke-opacity: 0.6; stroke-width: 0.339411"/>
    <path d="M 173.568847 107.013612 
L 177.811487 107.013612 
L 177.811487 102.770971 
L 173.568847 102.770971 
z
" clip-path="url(#pdf3fc824a7)" style="fill: #117733; fill-opacity: 0.6; stroke: #ffffff; stroke-opacity: 0.6; stroke-width: 0.339411"/>
    <path d="M 193.031617 102.729479 
L 197.274257 102.729479 
L 197.274257 98.486838 
L 193.031617 98.486838 
z
" clip-path="url(#pdf3fc824a7)" style="fill: #117733; fill-opacity: 0.6; stroke: #ffffff; stroke-opacity: 0.6; stroke-width: 0.339411"/>
    <path d="M 157.111279 141.367908 
L 161.35392 141.367908 
L 161.35392 137.125267 
L 157.111279 137.125267 
z
" clip-path="url(#pdf3fc824a7)" style="fill: #117733; fill-opacity: 0.6; stroke: #ffffff; stroke-opacity: 0.6; stroke-width: 0.339411"/>
    <path d="M 171.057755 112.303385 
L 175.300396 112.303385 
L 175.300396 108.060744 
L 171.057755 108.060744 
z
" clip-path="url(#pdf3fc824a7)" style="fill: #117733; fill-opacity: 0.6; stroke: #ffffff; stroke-opacity: 0.6; stroke-width: 0.339411"/>
    <path d="M 171.365888 113.182695 
L 175.608529 113.182695 
L 175.608529 108.940054 
L 171.365888 108.940054 
z
" clip-path="url(#pdf3fc824a7)" style="fill: #117733; fill-opacity: 0.6; stroke: #ffffff; stroke-opacity: 0.6; stroke-width: 0.339411"/>
    <path d="M 163.530458 126.738554 
L 167.773098 126.738554 
L 167.773098 122.495914 
L 163.530458 122.495914 
z
" clip-path="url(#pdf3fc824a7)" style="fill: #117733; fill-opacity: 0.6; stroke: #ffffff; stroke-opacity: 0.6; stroke-width: 0.339411"/>
    <path d="M 170.256935 105.314277 
L 174.499576 105.314277 
L 174.499576 101.071637 
L 170.256935 101.071637 
z
" clip-path="url(#pdf3fc824a7)" style="fill: #117733; fill-opacity: 0.6; stroke: #ffffff; stroke-opacity: 0.6; stroke-width: 0.339411"/>
    <path d="M 172.423601 117.116132 
L 176.666242 117.116132 
L 176.666242 112.873491 
L 172.423601 112.873491 
z
" clip-path="url(#pdf3fc824a7)" style="fill: #117733; fill-opacity: 0.6; stroke: #ffffff; stroke-opacity: 0.6; stroke-width: 0.339411"/>
    <path d="M 181.569381 157.216426 
L 182.630041 156.155766 
L 183.690701 157.216426 
L 184.751361 156.155766 
L 183.690701 155.095106 
L 184.751361 154.034446 
L 183.690701 152.973786 
L 182.630041 154.034446 
L 181.569381 152.973786 
L 180.508721 154.034446 
L 181.569381 155.095106 
L 180.508721 156.155766 
z
" clip-path="url(#pdf3fc824a7)" style="fill: #44aa99; fill-opacity: 0.6; stroke: #ffffff; stroke-opacity: 0.6; stroke-width: 0.339411"/>
    <path d="M 177.823764 128.213314 
L 178.884425 127.152654 
L 179.945085 128.213314 
L 181.005745 127.152654 
L 179.945085 126.091994 
L 181.005745 125.031333 
L 179.945085 123.970673 
L 178.884425 125.031333 
L 177.823764 123.970673 
L 176.763104 125.031333 
L 177.823764 126.091994 
L 176.763104 127.152654 
z
" clip-path="url(#pdf3fc824a7)" style="fill: #44aa99; fill-opacity: 0.6; stroke: #ffffff; stroke-opacity: 0.6; stroke-width: 0.339411"/>
    <path d="M 204.601767 136.790205 
L 205.662427 135.729545 
L 206.723087 136.790205 
L 207.783747 135.729545 
L 206.723087 134.668885 
L 207.783747 133.608225 
L 206.723087 132.547565 
L 205.662427 133.608225 
L 204.601767 132.547565 
L 203.541107 133.608225 
L 204.601767 134.668885 
L 203.541107 135.729545 
z
" clip-path="url(#pdf3fc824a7)" style="fill: #44aa99; fill-opacity: 0.6; stroke: #ffffff; stroke-opacity: 0.6; stroke-width: 0.339411"/>
    <path d="M 204.355296 142.130616 
L 205.415956 141.069956 
L 206.476616 142.130616 
L 207.537276 141.069956 
L 206.476616 140.009296 
L 207.537276 138.948636 
L 206.476616 137.887975 
L 205.415956 138.948636 
L 204.355296 137.887975 
L 203.294635 138.948636 
L 204.355296 140.009296 
L 203.294635 141.069956 
z
" clip-path="url(#pdf3fc824a7)" style="fill: #44aa99; fill-opacity: 0.6; stroke: #ffffff; stroke-opacity: 0.6; stroke-width: 0.339411"/>
    <path d="M 214.125275 129.163623 
L 215.185936 128.102963 
L 216.246596 129.163623 
L 217.307256 128.102963 
L 216.246596 127.042303 
L 217.307256 125.981643 
L 216.246596 124.920983 
L 215.185936 125.981643 
L 214.125275 124.920983 
L 213.064615 125.981643 
L 214.125275 127.042303 
L 213.064615 128.102963 
z
" clip-path="url(#pdf3fc824a7)" style="fill: #44aa99; fill-opacity: 0.6; stroke: #ffffff; stroke-opacity: 0.6; stroke-width: 0.339411"/>
    <path d="M 191.286261 152.996046 
L 192.346921 151.935386 
L 193.407581 152.996046 
L 194.468241 151.935386 
L 193.407581 150.874726 
L 194.468241 149.814066 
L 193.407581 148.753406 
L 192.346921 149.814066 
L 191.286261 148.753406 
L 190.225601 149.814066 
L 191.286261 150.874726 
L 190.225601 151.935386 
z
" clip-path="url(#pdf3fc824a7)" style="fill: #44aa99; fill-opacity: 0.6; stroke: #ffffff; stroke-opacity: 0.6; stroke-width: 0.339411"/>
    <path d="M 211.313925 134.387524 
L 212.374585 133.326864 
L 213.435245 134.387524 
L 214.495905 133.326864 
L 213.435245 132.266204 
L 214.495905 131.205544 
L 213.435245 130.144884 
L 212.374585 131.205544 
L 211.313925 130.144884 
L 210.253265 131.205544 
L 211.313925 132.266204 
L 210.253265 133.326864 
z
" clip-path="url(#pdf3fc824a7)" style="fill: #44aa99; fill-opacity: 0.6; stroke: #ffffff; stroke-opacity: 0.6; stroke-width: 0.339411"/>
    <path d="M 202.197748 137.498525 
L 203.258408 136.437865 
L 204.319068 137.498525 
L 205.379728 136.437865 
L 204.319068 135.377205 
L 205.379728 134.316545 
L 204.319068 133.255885 
L 203.258408 134.316545 
L 202.197748 133.255885 
L 201.137087 134.316545 
L 202.197748 135.377205 
L 201.137087 136.437865 
z
" clip-path="url(#pdf3fc824a7)" style="fill: #44aa99; fill-opacity: 0.6; stroke: #ffffff; stroke-opacity: 0.6; stroke-width: 0.339411"/>
    <path d="M 186.466548 155.076536 
L 187.527208 154.015876 
L 188.587868 155.076536 
L 189.648528 154.015876 
L 188.587868 152.955215 
L 189.648528 151.894555 
L 188.587868 150.833895 
L 187.527208 151.894555 
L 186.466548 150.833895 
L 185.405888 151.894555 
L 186.466548 152.955215 
L 185.405888 154.015876 
z
" clip-path="url(#pdf3fc824a7)" style="fill: #44aa99; fill-opacity: 0.6; stroke: #ffffff; stroke-opacity: 0.6; stroke-width: 0.339411"/>
    <path d="M 189.421238 149.478675 
L 190.481899 148.418015 
L 191.542559 149.478675 
L 192.603219 148.418015 
L 191.542559 147.357354 
L 192.603219 146.296694 
L 191.542559 145.236034 
L 190.481899 146.296694 
L 189.421238 145.236034 
L 188.360578 146.296694 
L 189.421238 147.357354 
L 188.360578 148.418015 
z
" clip-path="url(#pdf3fc824a7)" style="fill: #44aa99; fill-opacity: 0.6; stroke: #ffffff; stroke-opacity: 0.6; stroke-width: 0.339411"/>
    <path d="M 212.216094 133.035771 
L 213.276754 131.975111 
L 214.337415 133.035771 
L 215.398075 131.975111 
L 214.337415 130.914451 
L 215.398075 129.853791 
L 214.337415 128.79313 
L 213.276754 129.853791 
L 212.216094 128.79313 
L 211.155434 129.853791 
L 212.216094 130.914451 
L 211.155434 131.975111 
z
" clip-path="url(#pdf3fc824a7)" style="fill: #44aa99; fill-opacity: 0.6; stroke: #ffffff; stroke-opacity: 0.6; stroke-width: 0.339411"/>
    <path d="M 183.618419 152.180315 
L 184.679079 151.119654 
L 185.739739 152.180315 
L 186.800399 151.119654 
L 185.739739 150.058994 
L 186.800399 148.998334 
L 185.739739 147.937674 
L 184.679079 148.998334 
L 183.618419 147.937674 
L 182.557759 148.998334 
L 183.618419 150.058994 
L 182.557759 151.119654 
z
" clip-path="url(#pdf3fc824a7)" style="fill: #44aa99; fill-opacity: 0.6; stroke: #ffffff; stroke-opacity: 0.6; stroke-width: 0.339411"/>
    <path d="M 179.270433 125.876194 
L 180.331093 124.815534 
L 181.391753 125.876194 
L 182.452413 124.815534 
L 181.391753 123.754874 
L 182.452413 122.694214 
L 181.391753 121.633554 
L 180.331093 122.694214 
L 179.270433 121.633554 
L 178.209773 122.694214 
L 179.270433 123.754874 
L 178.209773 124.815534 
z
" clip-path="url(#pdf3fc824a7)" style="fill: #44aa99; fill-opacity: 0.6; stroke: #ffffff; stroke-opacity: 0.6; stroke-width: 0.339411"/>
    <path d="M 183.063938 140.895212 
L 184.124598 139.834552 
L 185.185259 140.895212 
L 186.245919 139.834552 
L 185.185259 138.773892 
L 186.245919 137.713231 
L 185.185259 136.652571 
L 184.124598 137.713231 
L 183.063938 136.652571 
L 182.003278 137.713231 
L 183.063938 138.773892 
L 182.003278 139.834552 
z
" clip-path="url(#pdf3fc824a7)" style="fill: #44aa99; fill-opacity: 0.6; stroke: #ffffff; stroke-opacity: 0.6; stroke-width: 0.339411"/>
    <path d="M 180.082521 153.281834 
L 181.143182 152.221174 
L 182.203842 153.281834 
L 183.264502 152.221174 
L 182.203842 151.160514 
L 183.264502 150.099854 
L 182.203842 149.039194 
L 181.143182 150.099854 
L 180.082521 149.039194 
L 179.021861 150.099854 
L 180.082521 151.160514 
L 179.021861 152.221174 
z
" clip-path="url(#pdf3fc824a7)" style="fill: #44aa99; fill-opacity: 0.6; stroke: #ffffff; stroke-opacity: 0.6; stroke-width: 0.339411"/>
    <path d="M 182.256382 140.964378 
L 183.317042 139.903717 
L 184.377702 140.964378 
L 185.438363 139.903717 
L 184.377702 138.843057 
L 185.438363 137.782397 
L 184.377702 136.721737 
L 183.317042 137.782397 
L 182.256382 136.721737 
L 181.195722 137.782397 
L 182.256382 138.843057 
L 181.195722 139.903717 
z
" clip-path="url(#pdf3fc824a7)" style="fill: #44aa99; fill-opacity: 0.6; stroke: #ffffff; stroke-opacity: 0.6; stroke-width: 0.339411"/>
    <path d="M 209.462235 140.219321 
L 210.522895 139.158661 
L 211.583555 140.219321 
L 212.644215 139.158661 
L 211.583555 138.098001 
L 212.644215 137.03734 
L 211.583555 135.97668 
L 210.522895 137.03734 
L 209.462235 135.97668 
L 208.401575 137.03734 
L 209.462235 138.098001 
L 208.401575 139.158661 
z
" clip-path="url(#pdf3fc824a7)" style="fill: #44aa99; fill-opacity: 0.6; stroke: #ffffff; stroke-opacity: 0.6; stroke-width: 0.339411"/>
    <path d="M 209.611535 62.541643 
L 210.672195 61.480983 
L 211.732856 62.541643 
L 212.793516 61.480983 
L 211.732856 60.420323 
L 212.793516 59.359663 
L 211.732856 58.299003 
L 210.672195 59.359663 
L 209.611535 58.299003 
L 208.550875 59.359663 
L 209.611535 60.420323 
L 208.550875 61.480983 
z
" clip-path="url(#pdf3fc824a7)" style="fill: #44aa99; fill-opacity: 0.6; stroke: #ffffff; stroke-opacity: 0.6; stroke-width: 0.339411"/>
    <path d="M 183.147018 152.554967 
L 184.207678 151.494307 
L 185.268338 152.554967 
L 186.328999 151.494307 
L 185.268338 150.433646 
L 186.328999 149.372986 
L 185.268338 148.312326 
L 184.207678 149.372986 
L 183.147018 148.312326 
L 182.086358 149.372986 
L 183.147018 150.433646 
L 182.086358 151.494307 
z
" clip-path="url(#pdf3fc824a7)" style="fill: #44aa99; fill-opacity: 0.6; stroke: #ffffff; stroke-opacity: 0.6; stroke-width: 0.339411"/>
    <path d="M 207.53108 61.329577 
L 208.59174 60.268917 
L 209.6524 61.329577 
L 210.713061 60.268917 
L 209.6524 59.208257 
L 210.713061 58.147597 
L 209.6524 57.086937 
L 208.59174 58.147597 
L 207.53108 57.086937 
L 206.47042 58.147597 
L 207.53108 59.208257 
L 206.47042 60.268917 
z
" clip-path="url(#pdf3fc824a7)" style="fill: #44aa99; fill-opacity: 0.6; stroke: #ffffff; stroke-opacity: 0.6; stroke-width: 0.339411"/>
    <path d="M 190.574561 130.467876 
L 191.635221 129.407216 
L 192.695882 130.467876 
L 193.756542 129.407216 
L 192.695882 128.346556 
L 193.756542 127.285895 
L 192.695882 126.225235 
L 191.635221 127.285895 
L 190.574561 126.225235 
L 189.513901 127.285895 
L 190.574561 128.346556 
L 189.513901 129.407216 
z
" clip-path="url(#pdf3fc824a7)" style="fill: #44aa99; fill-opacity: 0.6; stroke: #ffffff; stroke-opacity: 0.6; stroke-width: 0.339411"/>
    <path d="M 206.735622 131.383839 
L 207.796282 130.323178 
L 208.856942 131.383839 
L 209.917602 130.323178 
L 208.856942 129.262518 
L 209.917602 128.201858 
L 208.856942 127.141198 
L 207.796282 128.201858 
L 206.735622 127.141198 
L 205.674962 128.201858 
L 206.735622 129.262518 
L 205.674962 130.323178 
z
" clip-path="url(#pdf3fc824a7)" style="fill: #44aa99; fill-opacity: 0.6; stroke: #ffffff; stroke-opacity: 0.6; stroke-width: 0.339411"/>
    <path d="M 206.24536 130.476052 
L 207.30602 129.415392 
L 208.36668 130.476052 
L 209.427341 129.415392 
L 208.36668 128.354732 
L 209.427341 127.294072 
L 208.36668 126.233411 
L 207.30602 127.294072 
L 206.24536 126.233411 
L 205.1847 127.294072 
L 206.24536 128.354732 
L 205.1847 129.415392 
z
" clip-path="url(#pdf3fc824a7)" style="fill: #44aa99; fill-opacity: 0.6; stroke: #ffffff; stroke-opacity: 0.6; stroke-width: 0.339411"/>
    <path d="M 179.218091 119.487737 
L 180.278752 118.427077 
L 181.339412 119.487737 
L 182.400072 118.427077 
L 181.339412 117.366417 
L 182.400072 116.305756 
L 181.339412 115.245096 
L 180.278752 116.305756 
L 179.218091 115.245096 
L 178.157431 116.305756 
L 179.218091 117.366417 
L 178.157431 118.427077 
z
" clip-path="url(#pdf3fc824a7)" style="fill: #44aa99; fill-opacity: 0.6; stroke: #ffffff; stroke-opacity: 0.6; stroke-width: 0.339411"/>
    <path d="M 186.88253 115.787377 
L 187.94319 114.726717 
L 189.00385 115.787377 
L 190.06451 114.726717 
L 189.00385 113.666057 
L 190.06451 112.605396 
L 189.00385 111.544736 
L 187.94319 112.605396 
L 186.88253 111.544736 
L 185.821869 112.605396 
L 186.88253 113.666057 
L 185.821869 114.726717 
z
" clip-path="url(#pdf3fc824a7)" style="fill: #44aa99; fill-opacity: 0.6; stroke: #ffffff; stroke-opacity: 0.6; stroke-width: 0.339411"/>
    <path d="M 206.216553 70.239324 
L 207.277213 69.178664 
L 208.337873 70.239324 
L 209.398533 69.178664 
L 208.337873 68.118004 
L 209.398533 67.057344 
L 208.337873 65.996684 
L 207.277213 67.057344 
L 206.216553 65.996684 
L 205.155893 67.057344 
L 206.216553 68.118004 
L 205.155893 69.178664 
z
" clip-path="url(#pdf3fc824a7)" style="fill: #44aa99; fill-opacity: 0.6; stroke: #ffffff; stroke-opacity: 0.6; stroke-width: 0.339411"/>
    <path d="M 183.062113 155.815702 
L 184.122773 154.755042 
L 185.183433 155.815702 
L 186.244093 154.755042 
L 185.183433 153.694382 
L 186.244093 152.633722 
L 185.183433 151.573061 
L 184.122773 152.633722 
L 183.062113 151.573061 
L 182.001453 152.633722 
L 183.062113 153.694382 
L 182.001453 154.755042 
z
" clip-path="url(#pdf3fc824a7)" style="fill: #44aa99; fill-opacity: 0.6; stroke: #ffffff; stroke-opacity: 0.6; stroke-width: 0.339411"/>
    <path d="M 181.285011 155.153966 
L 182.345672 154.093306 
L 183.406332 155.153966 
L 184.466992 154.093306 
L 183.406332 153.032646 
L 184.466992 151.971985 
L 183.406332 150.911325 
L 182.345672 151.971985 
L 181.285011 150.911325 
L 180.224351 151.971985 
L 181.285011 153.032646 
L 180.224351 154.093306 
z
" clip-path="url(#pdf3fc824a7)" style="fill: #44aa99; fill-opacity: 0.6; stroke: #ffffff; stroke-opacity: 0.6; stroke-width: 0.339411"/>
    <path d="M 212.196299 124.418182 
L 213.256959 123.357522 
L 214.317619 124.418182 
L 215.378279 123.357522 
L 214.317619 122.296861 
L 215.378279 121.236201 
L 214.317619 120.175541 
L 213.256959 121.236201 
L 212.196299 120.175541 
L 211.135639 121.236201 
L 212.196299 122.296861 
L 211.135639 123.357522 
z
" clip-path="url(#pdf3fc824a7)" style="fill: #44aa99; fill-opacity: 0.6; stroke: #ffffff; stroke-opacity: 0.6; stroke-width: 0.339411"/>
    <path d="M 208.806369 140.205336 
L 209.867029 139.144676 
L 210.927689 140.205336 
L 211.988349 139.144676 
L 210.927689 138.084016 
L 211.988349 137.023356 
L 210.927689 135.962696 
L 209.867029 137.023356 
L 208.806369 135.962696 
L 207.745709 137.023356 
L 208.806369 138.084016 
L 207.745709 139.144676 
z
" clip-path="url(#pdf3fc824a7)" style="fill: #44aa99; fill-opacity: 0.6; stroke: #ffffff; stroke-opacity: 0.6; stroke-width: 0.339411"/>
    <path d="M 206.813041 141.550775 
L 207.873701 140.490115 
L 208.934361 141.550775 
L 209.995021 140.490115 
L 208.934361 139.429454 
L 209.995021 138.368794 
L 208.934361 137.308134 
L 207.873701 138.368794 
L 206.813041 137.308134 
L 205.752381 138.368794 
L 206.813041 139.429454 
L 205.752381 140.490115 
z
" clip-path="url(#pdf3fc824a7)" style="fill: #44aa99; fill-opacity: 0.6; stroke: #ffffff; stroke-opacity: 0.6; stroke-width: 0.339411"/>
    <path d="M 207.104147 64.331522 
L 208.164807 63.270861 
L 209.225467 64.331522 
L 210.286127 63.270861 
L 209.225467 62.210201 
L 210.286127 61.149541 
L 209.225467 60.088881 
L 208.164807 61.149541 
L 207.104147 60.088881 
L 206.043487 61.149541 
L 207.104147 62.210201 
L 206.043487 63.270861 
z
" clip-path="url(#pdf3fc824a7)" style="fill: #44aa99; fill-opacity: 0.6; stroke: #ffffff; stroke-opacity: 0.6; stroke-width: 0.339411"/>
    <path d="M 203.90959 73.590218 
L 204.97025 72.529558 
L 206.03091 73.590218 
L 207.09157 72.529558 
L 206.03091 71.468898 
L 207.09157 70.408238 
L 206.03091 69.347578 
L 204.97025 70.408238 
L 203.90959 69.347578 
L 202.848929 70.408238 
L 203.90959 71.468898 
L 202.848929 72.529558 
z
" clip-path="url(#pdf3fc824a7)" style="fill: #44aa99; fill-opacity: 0.6; stroke: #ffffff; stroke-opacity: 0.6; stroke-width: 0.339411"/>
    <path d="M 195.638814 136.459504 
L 196.699474 135.398843 
L 197.760134 136.459504 
L 198.820795 135.398843 
L 197.760134 134.338183 
L 198.820795 133.277523 
L 197.760134 132.216863 
L 196.699474 133.277523 
L 195.638814 132.216863 
L 194.578154 133.277523 
L 195.638814 134.338183 
L 194.578154 135.398843 
z
" clip-path="url(#pdf3fc824a7)" style="fill: #44aa99; fill-opacity: 0.6; stroke: #ffffff; stroke-opacity: 0.6; stroke-width: 0.339411"/>
    <path d="M 208.400069 132.78046 
L 209.460729 131.7198 
L 210.521389 132.78046 
L 211.582049 131.7198 
L 210.521389 130.65914 
L 211.582049 129.59848 
L 210.521389 128.53782 
L 209.460729 129.59848 
L 208.400069 128.53782 
L 207.339409 129.59848 
L 208.400069 130.65914 
L 207.339409 131.7198 
z
" clip-path="url(#pdf3fc824a7)" style="fill: #44aa99; fill-opacity: 0.6; stroke: #ffffff; stroke-opacity: 0.6; stroke-width: 0.339411"/>
    <path d="M 197.743236 66.000413 
L 198.803896 64.939753 
L 199.864556 66.000413 
L 200.925216 64.939753 
L 199.864556 63.879092 
L 200.925216 62.818432 
L 199.864556 61.757772 
L 198.803896 62.818432 
L 197.743236 61.757772 
L 196.682576 62.818432 
L 197.743236 63.879092 
L 196.682576 64.939753 
z
" clip-path="url(#pdf3fc824a7)" style="fill: #44aa99; fill-opacity: 0.6; stroke: #ffffff; stroke-opacity: 0.6; stroke-width: 0.339411"/>
    <path d="M 207.311591 135.776501 
L 208.372251 134.715841 
L 209.432911 135.776501 
L 210.493571 134.715841 
L 209.432911 133.655181 
L 210.493571 132.594521 
L 209.432911 131.533861 
L 208.372251 132.594521 
L 207.311591 131.533861 
L 206.250931 132.594521 
L 207.311591 133.655181 
L 206.250931 134.715841 
z
" clip-path="url(#pdf3fc824a7)" style="fill: #44aa99; fill-opacity: 0.6; stroke: #ffffff; stroke-opacity: 0.6; stroke-width: 0.339411"/>
    <path d="M 182.924972 134.049037 
L 183.985632 132.988376 
L 185.046292 134.049037 
L 186.106952 132.988376 
L 185.046292 131.927716 
L 186.106952 130.867056 
L 185.046292 129.806396 
L 183.985632 130.867056 
L 182.924972 129.806396 
L 181.864312 130.867056 
L 182.924972 131.927716 
L 181.864312 132.988376 
z
" clip-path="url(#pdf3fc824a7)" style="fill: #44aa99; fill-opacity: 0.6; stroke: #ffffff; stroke-opacity: 0.6; stroke-width: 0.339411"/>
    <path d="M 209.277549 64.62619 
L 210.338209 63.56553 
L 211.398869 64.62619 
L 212.459529 63.56553 
L 211.398869 62.50487 
L 212.459529 61.444209 
L 211.398869 60.383549 
L 210.338209 61.444209 
L 209.277549 60.383549 
L 208.216889 61.444209 
L 209.277549 62.50487 
L 208.216889 63.56553 
z
" clip-path="url(#pdf3fc824a7)" style="fill: #44aa99; fill-opacity: 0.6; stroke: #ffffff; stroke-opacity: 0.6; stroke-width: 0.339411"/>
    <path d="M 185.548542 128.498944 
L 186.609202 127.438284 
L 187.669862 128.498944 
L 188.730522 127.438284 
L 187.669862 126.377624 
L 188.730522 125.316964 
L 187.669862 124.256304 
L 186.609202 125.316964 
L 185.548542 124.256304 
L 184.487882 125.316964 
L 185.548542 126.377624 
L 184.487882 127.438284 
z
" clip-path="url(#pdf3fc824a7)" style="fill: #44aa99; fill-opacity: 0.6; stroke: #ffffff; stroke-opacity: 0.6; stroke-width: 0.339411"/>
    <path d="M 189.500104 156.036534 
L 190.560764 154.975874 
L 191.621424 156.036534 
L 192.682084 154.975874 
L 191.621424 153.915214 
L 192.682084 152.854553 
L 191.621424 151.793893 
L 190.560764 152.854553 
L 189.500104 151.793893 
L 188.439443 152.854553 
L 189.500104 153.915214 
L 188.439443 154.975874 
z
" clip-path="url(#pdf3fc824a7)" style="fill: #44aa99; fill-opacity: 0.6; stroke: #ffffff; stroke-opacity: 0.6; stroke-width: 0.339411"/>
    <path d="M 206.339753 134.36865 
L 207.400413 133.30799 
L 208.461073 134.36865 
L 209.521734 133.30799 
L 208.461073 132.24733 
L 209.521734 131.18667 
L 208.461073 130.126009 
L 207.400413 131.18667 
L 206.339753 130.126009 
L 205.279093 131.18667 
L 206.339753 132.24733 
L 205.279093 133.30799 
z
" clip-path="url(#pdf3fc824a7)" style="fill: #44aa99; fill-opacity: 0.6; stroke: #ffffff; stroke-opacity: 0.6; stroke-width: 0.339411"/>
    <path d="M 209.60367 63.760314 
L 210.66433 62.699654 
L 211.72499 63.760314 
L 212.78565 62.699654 
L 211.72499 61.638994 
L 212.78565 60.578333 
L 211.72499 59.517673 
L 210.66433 60.578333 
L 209.60367 59.517673 
L 208.54301 60.578333 
L 209.60367 61.638994 
L 208.54301 62.699654 
z
" clip-path="url(#pdf3fc824a7)" style="fill: #44aa99; fill-opacity: 0.6; stroke: #ffffff; stroke-opacity: 0.6; stroke-width: 0.339411"/>
    <path d="M 195.928721 108.557521 
L 196.989381 107.496861 
L 198.050041 108.557521 
L 199.110701 107.496861 
L 198.050041 106.436201 
L 199.110701 105.375541 
L 198.050041 104.314881 
L 196.989381 105.375541 
L 195.928721 104.314881 
L 194.868061 105.375541 
L 195.928721 106.436201 
L 194.868061 107.496861 
z
" clip-path="url(#pdf3fc824a7)" style="fill: #44aa99; fill-opacity: 0.6; stroke: #ffffff; stroke-opacity: 0.6; stroke-width: 0.339411"/>
    <path d="M 186.470542 61.332893 
L 187.531203 60.272233 
L 188.591863 61.332893 
L 189.652523 60.272233 
L 188.591863 59.211572 
L 189.652523 58.150912 
L 188.591863 57.090252 
L 187.531203 58.150912 
L 186.470542 57.090252 
L 185.409882 58.150912 
L 186.470542 59.211572 
L 185.409882 60.272233 
z
" clip-path="url(#pdf3fc824a7)" style="fill: #44aa99; fill-opacity: 0.6; stroke: #ffffff; stroke-opacity: 0.6; stroke-width: 0.339411"/>
    <path d="M 209.697463 138.681504 
L 210.758124 137.620844 
L 211.818784 138.681504 
L 212.879444 137.620844 
L 211.818784 136.560184 
L 212.879444 135.499524 
L 211.818784 134.438864 
L 210.758124 135.499524 
L 209.697463 134.438864 
L 208.636803 135.499524 
L 209.697463 136.560184 
L 208.636803 137.620844 
z
" clip-path="url(#pdf3fc824a7)" style="fill: #44aa99; fill-opacity: 0.6; stroke: #ffffff; stroke-opacity: 0.6; stroke-width: 0.339411"/>
    <path d="M 186.330456 156.696273 
L 187.391116 155.635613 
L 188.451777 156.696273 
L 189.512437 155.635613 
L 188.451777 154.574952 
L 189.512437 153.514292 
L 188.451777 152.453632 
L 187.391116 153.514292 
L 186.330456 152.453632 
L 185.269796 153.514292 
L 186.330456 154.574952 
L 185.269796 155.635613 
z
" clip-path="url(#pdf3fc824a7)" style="fill: #44aa99; fill-opacity: 0.6; stroke: #ffffff; stroke-opacity: 0.6; stroke-width: 0.339411"/>
    <path d="M 182.475809 149.99388 
L 183.53647 148.93322 
L 184.59713 149.99388 
L 185.65779 148.93322 
L 184.59713 147.87256 
L 185.65779 146.8119 
L 184.59713 145.75124 
L 183.53647 146.8119 
L 182.475809 145.75124 
L 181.415149 146.8119 
L 182.475809 147.87256 
L 181.415149 148.93322 
z
" clip-path="url(#pdf3fc824a7)" style="fill: #44aa99; fill-opacity: 0.6; stroke: #ffffff; stroke-opacity: 0.6; stroke-width: 0.339411"/>
    <path d="M 189.068647 149.803163 
L 190.129307 148.742503 
L 191.189967 149.803163 
L 192.250627 148.742503 
L 191.189967 147.681843 
L 192.250627 146.621183 
L 191.189967 145.560523 
L 190.129307 146.621183 
L 189.068647 145.560523 
L 188.007987 146.621183 
L 189.068647 147.681843 
L 188.007987 148.742503 
z
" clip-path="url(#pdf3fc824a7)" style="fill: #44aa99; fill-opacity: 0.6; stroke: #ffffff; stroke-opacity: 0.6; stroke-width: 0.339411"/>
    <path d="M 189.979907 145.904888 
L 191.040568 144.844228 
L 192.101228 145.904888 
L 193.161888 144.844228 
L 192.101228 143.783567 
L 193.161888 142.722907 
L 192.101228 141.662247 
L 191.040568 142.722907 
L 189.979907 141.662247 
L 188.919247 142.722907 
L 189.979907 143.783567 
L 188.919247 144.844228 
z
" clip-path="url(#pdf3fc824a7)" style="fill: #44aa99; fill-opacity: 0.6; stroke: #ffffff; stroke-opacity: 0.6; stroke-width: 0.339411"/>
    <path d="M 186.303721 156.865327 
L 187.364381 155.804667 
L 188.425041 156.865327 
L 189.485702 155.804667 
L 188.425041 154.744007 
L 189.485702 153.683347 
L 188.425041 152.622686 
L 187.364381 153.683347 
L 186.303721 152.622686 
L 185.243061 153.683347 
L 186.303721 154.744007 
L 185.243061 155.804667 
z
" clip-path="url(#pdf3fc824a7)" style="fill: #44aa99; fill-opacity: 0.6; stroke: #ffffff; stroke-opacity: 0.6; stroke-width: 0.339411"/>
    <path d="M 181.563632 102.584653 
L 182.624292 101.523993 
L 183.684952 102.584653 
L 184.745612 101.523993 
L 183.684952 100.463333 
L 184.745612 99.402673 
L 183.684952 98.342012 
L 182.624292 99.402673 
L 181.563632 98.342012 
L 180.502972 99.402673 
L 181.563632 100.463333 
L 180.502972 101.523993 
z
" clip-path="url(#pdf3fc824a7)" style="fill: #44aa99; fill-opacity: 0.6; stroke: #ffffff; stroke-opacity: 0.6; stroke-width: 0.339411"/>
    <path d="M 185.782536 158.998807 
L 186.843196 157.938147 
L 187.903856 158.998807 
L 188.964516 157.938147 
L 187.903856 156.877487 
L 188.964516 155.816827 
L 187.903856 154.756167 
L 186.843196 155.816827 
L 185.782536 154.756167 
L 184.721876 155.816827 
L 185.782536 156.877487 
L 184.721876 157.938147 
z
" clip-path="url(#pdf3fc824a7)" style="fill: #44aa99; fill-opacity: 0.6; stroke: #ffffff; stroke-opacity: 0.6; stroke-width: 0.339411"/>
    <path d="M 203.823441 134.615968 
L 204.884101 133.555308 
L 205.944761 134.615968 
L 207.005422 133.555308 
L 205.944761 132.494647 
L 207.005422 131.433987 
L 205.944761 130.373327 
L 204.884101 131.433987 
L 203.823441 130.373327 
L 202.762781 131.433987 
L 203.823441 132.494647 
L 202.762781 133.555308 
z
" clip-path="url(#pdf3fc824a7)" style="fill: #44aa99; fill-opacity: 0.6; stroke: #ffffff; stroke-opacity: 0.6; stroke-width: 0.339411"/>
    <path d="M 210.906046 119.145383 
L 211.966707 118.084722 
L 213.027367 119.145383 
L 214.088027 118.084722 
L 213.027367 117.024062 
L 214.088027 115.963402 
L 213.027367 114.902742 
L 211.966707 115.963402 
L 210.906046 114.902742 
L 209.845386 115.963402 
L 210.906046 117.024062 
L 209.845386 118.084722 
z
" clip-path="url(#pdf3fc824a7)" style="fill: #44aa99; fill-opacity: 0.6; stroke: #ffffff; stroke-opacity: 0.6; stroke-width: 0.339411"/>
    <path d="M 189.076274 130.369165 
L 190.136934 129.308504 
L 191.197594 130.369165 
L 192.258255 129.308504 
L 191.197594 128.247844 
L 192.258255 127.187184 
L 191.197594 126.126524 
L 190.136934 127.187184 
L 189.076274 126.126524 
L 188.015614 127.187184 
L 189.076274 128.247844 
L 188.015614 129.308504 
z
" clip-path="url(#pdf3fc824a7)" style="fill: #44aa99; fill-opacity: 0.6; stroke: #ffffff; stroke-opacity: 0.6; stroke-width: 0.339411"/>
    <path d="M 208.376808 128.068579 
L 209.437468 127.007919 
L 210.498128 128.068579 
L 211.558788 127.007919 
L 210.498128 125.947258 
L 211.558788 124.886598 
L 210.498128 123.825938 
L 209.437468 124.886598 
L 208.376808 123.825938 
L 207.316148 124.886598 
L 208.376808 125.947258 
L 207.316148 127.007919 
z
" clip-path="url(#pdf3fc824a7)" style="fill: #44aa99; fill-opacity: 0.6; stroke: #ffffff; stroke-opacity: 0.6; stroke-width: 0.339411"/>
    <path d="M 212.430258 120.275709 
L 213.490918 119.215049 
L 214.551578 120.275709 
L 215.612238 119.215049 
L 214.551578 118.154389 
L 215.612238 117.093729 
L 214.551578 116.033068 
L 213.490918 117.093729 
L 212.430258 116.033068 
L 211.369597 117.093729 
L 212.430258 118.154389 
L 211.369597 119.215049 
z
" clip-path="url(#pdf3fc824a7)" style="fill: #44aa99; fill-opacity: 0.6; stroke: #ffffff; stroke-opacity: 0.6; stroke-width: 0.339411"/>
    <path d="M 208.437464 140.141869 
L 209.498125 139.081209 
L 210.558785 140.141869 
L 211.619445 139.081209 
L 210.558785 138.020549 
L 211.619445 136.959888 
L 210.558785 135.899228 
L 209.498125 136.959888 
L 208.437464 135.899228 
L 207.376804 136.959888 
L 208.437464 138.020549 
L 207.376804 139.081209 
z
" clip-path="url(#pdf3fc824a7)" style="fill: #44aa99; fill-opacity: 0.6; stroke: #ffffff; stroke-opacity: 0.6; stroke-width: 0.339411"/>
    <path d="M 184.308876 158.077173 
L 185.369537 157.016513 
L 186.430197 158.077173 
L 187.490857 157.016513 
L 186.430197 155.955853 
L 187.490857 154.895193 
L 186.430197 153.834533 
L 185.369537 154.895193 
L 184.308876 153.834533 
L 183.248216 154.895193 
L 184.308876 155.955853 
L 183.248216 157.016513 
z
" clip-path="url(#pdf3fc824a7)" style="fill: #44aa99; fill-opacity: 0.6; stroke: #ffffff; stroke-opacity: 0.6; stroke-width: 0.339411"/>
    <path d="M 183.954998 58.930611 
L 185.015658 57.869951 
L 186.076318 58.930611 
L 187.136978 57.869951 
L 186.076318 56.80929 
L 187.136978 55.74863 
L 186.076318 54.68797 
L 185.015658 55.74863 
L 183.954998 54.68797 
L 182.894337 55.74863 
L 183.954998 56.80929 
L 182.894337 57.869951 
z
" clip-path="url(#pdf3fc824a7)" style="fill: #44aa99; fill-opacity: 0.6; stroke: #ffffff; stroke-opacity: 0.6; stroke-width: 0.339411"/>
    <path d="M 201.957378 81.547553 
L 203.018039 80.486893 
L 204.078699 81.547553 
L 205.139359 80.486893 
L 204.078699 79.426232 
L 205.139359 78.365572 
L 204.078699 77.304912 
L 203.018039 78.365572 
L 201.957378 77.304912 
L 200.896718 78.365572 
L 201.957378 79.426232 
L 200.896718 80.486893 
z
" clip-path="url(#pdf3fc824a7)" style="fill: #44aa99; fill-opacity: 0.6; stroke: #ffffff; stroke-opacity: 0.6; stroke-width: 0.339411"/>
    <path d="M 179.674872 110.147781 
L 180.735533 109.087121 
L 181.796193 110.147781 
L 182.856853 109.087121 
L 181.796193 108.026461 
L 182.856853 106.9658 
L 181.796193 105.90514 
L 180.735533 106.9658 
L 179.674872 105.90514 
L 178.614212 106.9658 
L 179.674872 108.026461 
L 178.614212 109.087121 
z
" clip-path="url(#pdf3fc824a7)" style="fill: #44aa99; fill-opacity: 0.6; stroke: #ffffff; stroke-opacity: 0.6; stroke-width: 0.339411"/>
    <path d="M 211.048602 109.529315 
L 212.462816 109.529315 
L 212.462816 108.115101 
L 213.877029 108.115101 
L 213.877029 106.700888 
L 212.462816 106.700888 
L 212.462816 105.286674 
L 211.048602 105.286674 
L 211.048602 106.700888 
L 209.634389 106.700888 
L 209.634389 108.115101 
L 211.048602 108.115101 
z
" clip-path="url(#pdf3fc824a7)" style="fill: #88ccee; fill-opacity: 0.6; stroke: #ffffff; stroke-opacity: 0.6; stroke-width: 0.339411"/>
    <path d="M 184.563064 67.7853 
L 185.977277 67.7853 
L 185.977277 66.371087 
L 187.391491 66.371087 
L 187.391491 64.956873 
L 185.977277 64.956873 
L 185.977277 63.54266 
L 184.563064 63.54266 
L 184.563064 64.956873 
L 183.14885 64.956873 
L 183.14885 66.371087 
L 184.563064 66.371087 
z
" clip-path="url(#pdf3fc824a7)" style="fill: #88ccee; fill-opacity: 0.6; stroke: #ffffff; stroke-opacity: 0.6; stroke-width: 0.339411"/>
    <path d="M 212.065833 114.078626 
L 213.480047 114.078626 
L 213.480047 112.664412 
L 214.89426 112.664412 
L 214.89426 111.250198 
L 213.480047 111.250198 
L 213.480047 109.835985 
L 212.065833 109.835985 
L 212.065833 111.250198 
L 210.65162 111.250198 
L 210.65162 112.664412 
L 212.065833 112.664412 
z
" clip-path="url(#pdf3fc824a7)" style="fill: #88ccee; fill-opacity: 0.6; stroke: #ffffff; stroke-opacity: 0.6; stroke-width: 0.339411"/>
    <path d="M 180.295936 73.73146 
L 181.710149 73.73146 
L 181.710149 72.317246 
L 183.124363 72.317246 
L 183.124363 70.903032 
L 181.710149 70.903032 
L 181.710149 69.488819 
L 180.295936 69.488819 
L 180.295936 70.903032 
L 178.881722 70.903032 
L 178.881722 72.317246 
L 180.295936 72.317246 
z
" clip-path="url(#pdf3fc824a7)" style="fill: #88ccee; fill-opacity: 0.6; stroke: #ffffff; stroke-opacity: 0.6; stroke-width: 0.339411"/>
    <path d="M 190.407194 93.735342 
L 191.821408 93.735342 
L 191.821408 92.321129 
L 193.235621 92.321129 
L 193.235621 90.906915 
L 191.821408 90.906915 
L 191.821408 89.492702 
L 190.407194 89.492702 
L 190.407194 90.906915 
L 188.99298 90.906915 
L 188.99298 92.321129 
L 190.407194 92.321129 
z
" clip-path="url(#pdf3fc824a7)" style="fill: #88ccee; fill-opacity: 0.6; stroke: #ffffff; stroke-opacity: 0.6; stroke-width: 0.339411"/>
    <path d="M 178.372532 58.173932 
L 179.786745 58.173932 
L 179.786745 56.759719 
L 181.200959 56.759719 
L 181.200959 55.345505 
L 179.786745 55.345505 
L 179.786745 53.931292 
L 178.372532 53.931292 
L 178.372532 55.345505 
L 176.958318 55.345505 
L 176.958318 56.759719 
L 178.372532 56.759719 
z
" clip-path="url(#pdf3fc824a7)" style="fill: #88ccee; fill-opacity: 0.6; stroke: #ffffff; stroke-opacity: 0.6; stroke-width: 0.339411"/>
    <path d="M 183.625897 60.057754 
L 185.04011 60.057754 
L 185.04011 58.64354 
L 186.454324 58.64354 
L 186.454324 57.229327 
L 185.04011 57.229327 
L 185.04011 55.815113 
L 183.625897 55.815113 
L 183.625897 57.229327 
L 182.211683 57.229327 
L 182.211683 58.64354 
L 183.625897 58.64354 
z
" clip-path="url(#pdf3fc824a7)" style="fill: #88ccee; fill-opacity: 0.6; stroke: #ffffff; stroke-opacity: 0.6; stroke-width: 0.339411"/>
    <path d="M 184.626392 83.042004 
L 186.040606 83.042004 
L 186.040606 81.627791 
L 187.454819 81.627791 
L 187.454819 80.213577 
L 186.040606 80.213577 
L 186.040606 78.799364 
L 184.626392 78.799364 
L 184.626392 80.213577 
L 183.212179 80.213577 
L 183.212179 81.627791 
L 184.626392 81.627791 
z
" clip-path="url(#pdf3fc824a7)" style="fill: #88ccee; fill-opacity: 0.6; stroke: #ffffff; stroke-opacity: 0.6; stroke-width: 0.339411"/>
    <path d="M 197.915075 75.374929 
L 199.329288 75.374929 
L 199.329288 73.960716 
L 200.743502 73.960716 
L 200.743502 72.546502 
L 199.329288 72.546502 
L 199.329288 71.132289 
L 197.915075 71.132289 
L 197.915075 72.546502 
L 196.500861 72.546502 
L 196.500861 73.960716 
L 197.915075 73.960716 
z
" clip-path="url(#pdf3fc824a7)" style="fill: #88ccee; fill-opacity: 0.6; stroke: #ffffff; stroke-opacity: 0.6; stroke-width: 0.339411"/>
    <path d="M 200.778564 68.953181 
L 202.192778 68.953181 
L 202.192778 67.538967 
L 203.606991 67.538967 
L 203.606991 66.124754 
L 202.192778 66.124754 
L 202.192778 64.71054 
L 200.778564 64.71054 
L 200.778564 66.124754 
L 199.364351 66.124754 
L 199.364351 67.538967 
L 200.778564 67.538967 
z
" clip-path="url(#pdf3fc824a7)" style="fill: #88ccee; fill-opacity: 0.6; stroke: #ffffff; stroke-opacity: 0.6; stroke-width: 0.339411"/>
    <path d="M 188.897885 105.265507 
L 190.312098 105.265507 
L 190.312098 103.851293 
L 191.726312 103.851293 
L 191.726312 102.43708 
L 190.312098 102.43708 
L 190.312098 101.022866 
L 188.897885 101.022866 
L 188.897885 102.43708 
L 187.483671 102.43708 
L 187.483671 103.851293 
L 188.897885 103.851293 
z
" clip-path="url(#pdf3fc824a7)" style="fill: #88ccee; fill-opacity: 0.6; stroke: #ffffff; stroke-opacity: 0.6; stroke-width: 0.339411"/>
    <path d="M 213.058622 110.861389 
L 214.472836 110.861389 
L 214.472836 109.447176 
L 215.887049 109.447176 
L 215.887049 108.032962 
L 214.472836 108.032962 
L 214.472836 106.618749 
L 213.058622 106.618749 
L 213.058622 108.032962 
L 211.644408 108.032962 
L 211.644408 109.447176 
L 213.058622 109.447176 
z
" clip-path="url(#pdf3fc824a7)" style="fill: #88ccee; fill-opacity: 0.6; stroke: #ffffff; stroke-opacity: 0.6; stroke-width: 0.339411"/>
    <path d="M 187.05145 68.614345 
L 188.465664 68.614345 
L 188.465664 67.200131 
L 189.879877 67.200131 
L 189.879877 65.785918 
L 188.465664 65.785918 
L 188.465664 64.371704 
L 187.05145 64.371704 
L 187.05145 65.785918 
L 185.637237 65.785918 
L 185.637237 67.200131 
L 187.05145 67.200131 
z
" clip-path="url(#pdf3fc824a7)" style="fill: #88ccee; fill-opacity: 0.6; stroke: #ffffff; stroke-opacity: 0.6; stroke-width: 0.339411"/>
    <path d="M 179.223533 65.438296 
L 180.637746 65.438296 
L 180.637746 64.024082 
L 182.05196 64.024082 
L 182.05196 62.609869 
L 180.637746 62.609869 
L 180.637746 61.195655 
L 179.223533 61.195655 
L 179.223533 62.609869 
L 177.809319 62.609869 
L 177.809319 64.024082 
L 179.223533 64.024082 
z
" clip-path="url(#pdf3fc824a7)" style="fill: #88ccee; fill-opacity: 0.6; stroke: #ffffff; stroke-opacity: 0.6; stroke-width: 0.339411"/>
    <path d="M 196.414962 93.21634 
L 197.829176 93.21634 
L 197.829176 91.802126 
L 199.24339 91.802126 
L 199.24339 90.387913 
L 197.829176 90.387913 
L 197.829176 88.973699 
L 196.414962 88.973699 
L 196.414962 90.387913 
L 195.000749 90.387913 
L 195.000749 91.802126 
L 196.414962 91.802126 
z
" clip-path="url(#pdf3fc824a7)" style="fill: #88ccee; fill-opacity: 0.6; stroke: #ffffff; stroke-opacity: 0.6; stroke-width: 0.339411"/>
    <path d="M 192.278415 87.542099 
L 193.692629 87.542099 
L 193.692629 86.127886 
L 195.106842 86.127886 
L 195.106842 84.713672 
L 193.692629 84.713672 
L 193.692629 83.299458 
L 192.278415 83.299458 
L 192.278415 84.713672 
L 190.864202 84.713672 
L 190.864202 86.127886 
L 192.278415 86.127886 
z
" clip-path="url(#pdf3fc824a7)" style="fill: #88ccee; fill-opacity: 0.6; stroke: #ffffff; stroke-opacity: 0.6; stroke-width: 0.339411"/>
    <path d="M 207.272071 108.199926 
L 208.686284 108.199926 
L 208.686284 106.785712 
L 210.100498 106.785712 
L 210.100498 105.371499 
L 208.686284 105.371499 
L 208.686284 103.957285 
L 207.272071 103.957285 
L 207.272071 105.371499 
L 205.857857 105.371499 
L 205.857857 106.785712 
L 207.272071 106.785712 
z
" clip-path="url(#pdf3fc824a7)" style="fill: #88ccee; fill-opacity: 0.6; stroke: #ffffff; stroke-opacity: 0.6; stroke-width: 0.339411"/>
    <path d="M 194.625305 94.228346 
L 196.039518 94.228346 
L 196.039518 92.814133 
L 197.453732 92.814133 
L 197.453732 91.399919 
L 196.039518 91.399919 
L 196.039518 89.985706 
L 194.625305 89.985706 
L 194.625305 91.399919 
L 193.211091 91.399919 
L 193.211091 92.814133 
L 194.625305 92.814133 
z
" clip-path="url(#pdf3fc824a7)" style="fill: #88ccee; fill-opacity: 0.6; stroke: #ffffff; stroke-opacity: 0.6; stroke-width: 0.339411"/>
    <path d="M 194.057492 79.060948 
L 195.471705 79.060948 
L 195.471705 77.646734 
L 196.885919 77.646734 
L 196.885919 76.23252 
L 195.471705 76.23252 
L 195.471705 74.818307 
L 194.057492 74.818307 
L 194.057492 76.23252 
L 192.643278 76.23252 
L 192.643278 77.646734 
L 194.057492 77.646734 
z
" clip-path="url(#pdf3fc824a7)" style="fill: #88ccee; fill-opacity: 0.6; stroke: #ffffff; stroke-opacity: 0.6; stroke-width: 0.339411"/>
    <path d="M 184.99214 70.950636 
L 186.406353 70.950636 
L 186.406353 69.536422 
L 187.820567 69.536422 
L 187.820567 68.122209 
L 186.406353 68.122209 
L 186.406353 66.707995 
L 184.99214 66.707995 
L 184.99214 68.122209 
L 183.577926 68.122209 
L 183.577926 69.536422 
L 184.99214 69.536422 
z
" clip-path="url(#pdf3fc824a7)" style="fill: #88ccee; fill-opacity: 0.6; stroke: #ffffff; stroke-opacity: 0.6; stroke-width: 0.339411"/>
    <path d="M 187.46513 65.906619 
L 188.879344 65.906619 
L 188.879344 64.492406 
L 190.293558 64.492406 
L 190.293558 63.078192 
L 188.879344 63.078192 
L 188.879344 61.663979 
L 187.46513 61.663979 
L 187.46513 63.078192 
L 186.050917 63.078192 
L 186.050917 64.492406 
L 187.46513 64.492406 
z
" clip-path="url(#pdf3fc824a7)" style="fill: #88ccee; fill-opacity: 0.6; stroke: #ffffff; stroke-opacity: 0.6; stroke-width: 0.339411"/>
    <path d="M 185.916406 68.718252 
L 187.33062 68.718252 
L 187.33062 67.304039 
L 188.744833 67.304039 
L 188.744833 65.889825 
L 187.33062 65.889825 
L 187.33062 64.475612 
L 185.916406 64.475612 
L 185.916406 65.889825 
L 184.502193 65.889825 
L 184.502193 67.304039 
L 185.916406 67.304039 
z
" clip-path="url(#pdf3fc824a7)" style="fill: #88ccee; fill-opacity: 0.6; stroke: #ffffff; stroke-opacity: 0.6; stroke-width: 0.339411"/>
    <path d="M 182.993821 60.684116 
L 184.408034 60.684116 
L 184.408034 59.269903 
L 185.822248 59.269903 
L 185.822248 57.855689 
L 184.408034 57.855689 
L 184.408034 56.441475 
L 182.993821 56.441475 
L 182.993821 57.855689 
L 181.579607 57.855689 
L 181.579607 59.269903 
L 182.993821 59.269903 
z
" clip-path="url(#pdf3fc824a7)" style="fill: #88ccee; fill-opacity: 0.6; stroke: #ffffff; stroke-opacity: 0.6; stroke-width: 0.339411"/>
    <path d="M 184.438003 75.416311 
L 185.852216 75.416311 
L 185.852216 74.002097 
L 187.26643 74.002097 
L 187.26643 72.587884 
L 185.852216 72.587884 
L 185.852216 71.17367 
L 184.438003 71.17367 
L 184.438003 72.587884 
L 183.023789 72.587884 
L 183.023789 74.002097 
L 184.438003 74.002097 
z
" clip-path="url(#pdf3fc824a7)" style="fill: #88ccee; fill-opacity: 0.6; stroke: #ffffff; stroke-opacity: 0.6; stroke-width: 0.339411"/>
    <path d="M 182.948639 110.755079 
L 184.362853 110.755079 
L 184.362853 109.340866 
L 185.777066 109.340866 
L 185.777066 107.926652 
L 184.362853 107.926652 
L 184.362853 106.512439 
L 182.948639 106.512439 
L 182.948639 107.926652 
L 181.534426 107.926652 
L 181.534426 109.340866 
L 182.948639 109.340866 
z
" clip-path="url(#pdf3fc824a7)" style="fill: #88ccee; fill-opacity: 0.6; stroke: #ffffff; stroke-opacity: 0.6; stroke-width: 0.339411"/>
    <path d="M 188.290419 92.046678 
L 189.704632 92.046678 
L 189.704632 90.632464 
L 191.118846 90.632464 
L 191.118846 89.218251 
L 189.704632 89.218251 
L 189.704632 87.804037 
L 188.290419 87.804037 
L 188.290419 89.218251 
L 186.876205 89.218251 
L 186.876205 90.632464 
L 188.290419 90.632464 
z
" clip-path="url(#pdf3fc824a7)" style="fill: #88ccee; fill-opacity: 0.6; stroke: #ffffff; stroke-opacity: 0.6; stroke-width: 0.339411"/>
    <path d="M 197.896196 90.323412 
L 199.31041 90.323412 
L 199.31041 88.909199 
L 200.724623 88.909199 
L 200.724623 87.494985 
L 199.31041 87.494985 
L 199.31041 86.080772 
L 197.896196 86.080772 
L 197.896196 87.494985 
L 196.481983 87.494985 
L 196.481983 88.909199 
L 197.896196 88.909199 
z
" clip-path="url(#pdf3fc824a7)" style="fill: #88ccee; fill-opacity: 0.6; stroke: #ffffff; stroke-opacity: 0.6; stroke-width: 0.339411"/>
    <path d="M 198.19873 71.740609 
L 199.612944 71.740609 
L 199.612944 70.326396 
L 201.027157 70.326396 
L 201.027157 68.912182 
L 199.612944 68.912182 
L 199.612944 67.497969 
L 198.19873 67.497969 
L 198.19873 68.912182 
L 196.784516 68.912182 
L 196.784516 70.326396 
L 198.19873 70.326396 
z
" clip-path="url(#pdf3fc824a7)" style="fill: #88ccee; fill-opacity: 0.6; stroke: #ffffff; stroke-opacity: 0.6; stroke-width: 0.339411"/>
    <path d="M 177.959037 61.891288 
L 179.37325 61.891288 
L 179.37325 60.477075 
L 180.787464 60.477075 
L 180.787464 59.062861 
L 179.37325 59.062861 
L 179.37325 57.648648 
L 177.959037 57.648648 
L 177.959037 59.062861 
L 176.544823 59.062861 
L 176.544823 60.477075 
L 177.959037 60.477075 
z
" clip-path="url(#pdf3fc824a7)" style="fill: #88ccee; fill-opacity: 0.6; stroke: #ffffff; stroke-opacity: 0.6; stroke-width: 0.339411"/>
    <path d="M 188.602784 70.886108 
L 190.016998 70.886108 
L 190.016998 69.471894 
L 191.431211 69.471894 
L 191.431211 68.057681 
L 190.016998 68.057681 
L 190.016998 66.643467 
L 188.602784 66.643467 
L 188.602784 68.057681 
L 187.188571 68.057681 
L 187.188571 69.471894 
L 188.602784 69.471894 
z
" clip-path="url(#pdf3fc824a7)" style="fill: #88ccee; fill-opacity: 0.6; stroke: #ffffff; stroke-opacity: 0.6; stroke-width: 0.339411"/>
    <path d="M 196.164788 91.34574 
L 197.579001 91.34574 
L 197.579001 89.931527 
L 198.993215 89.931527 
L 198.993215 88.517313 
L 197.579001 88.517313 
L 197.579001 87.1031 
L 196.164788 87.1031 
L 196.164788 88.517313 
L 194.750574 88.517313 
L 194.750574 89.931527 
L 196.164788 89.931527 
z
" clip-path="url(#pdf3fc824a7)" style="fill: #88ccee; fill-opacity: 0.6; stroke: #ffffff; stroke-opacity: 0.6; stroke-width: 0.339411"/>
    <path d="M 207.523277 115.179788 
L 208.937491 115.179788 
L 208.937491 113.765574 
L 210.351704 113.765574 
L 210.351704 112.351361 
L 208.937491 112.351361 
L 208.937491 110.937147 
L 207.523277 110.937147 
L 207.523277 112.351361 
L 206.109064 112.351361 
L 206.109064 113.765574 
L 207.523277 113.765574 
z
" clip-path="url(#pdf3fc824a7)" style="fill: #88ccee; fill-opacity: 0.6; stroke: #ffffff; stroke-opacity: 0.6; stroke-width: 0.339411"/>
    <path d="M 192.729271 78.052913 
L 194.143484 78.052913 
L 194.143484 76.6387 
L 195.557698 76.6387 
L 195.557698 75.224486 
L 194.143484 75.224486 
L 194.143484 73.810272 
L 192.729271 73.810272 
L 192.729271 75.224486 
L 191.315057 75.224486 
L 191.315057 76.6387 
L 192.729271 76.6387 
z
" clip-path="url(#pdf3fc824a7)" style="fill: #88ccee; fill-opacity: 0.6; stroke: #ffffff; stroke-opacity: 0.6; stroke-width: 0.339411"/>
    <path d="M 185.556531 97.376448 
L 186.970745 97.376448 
L 186.970745 95.962234 
L 188.384958 95.962234 
L 188.384958 94.548021 
L 186.970745 94.548021 
L 186.970745 93.133807 
L 185.556531 93.133807 
L 185.556531 94.548021 
L 184.142318 94.548021 
L 184.142318 95.962234 
L 185.556531 95.962234 
z
" clip-path="url(#pdf3fc824a7)" style="fill: #88ccee; fill-opacity: 0.6; stroke: #ffffff; stroke-opacity: 0.6; stroke-width: 0.339411"/>
    <path d="M 177.821173 58.853077 
L 179.235386 58.853077 
L 179.235386 57.438863 
L 180.6496 57.438863 
L 180.6496 56.02465 
L 179.235386 56.02465 
L 179.235386 54.610436 
L 177.821173 54.610436 
L 177.821173 56.02465 
L 176.406959 56.02465 
L 176.406959 57.438863 
L 177.821173 57.438863 
z
" clip-path="url(#pdf3fc824a7)" style="fill: #88ccee; fill-opacity: 0.6; stroke: #ffffff; stroke-opacity: 0.6; stroke-width: 0.339411"/>
    <path d="M 197.963431 82.035681 
L 199.377644 82.035681 
L 199.377644 80.621467 
L 200.791858 80.621467 
L 200.791858 79.207253 
L 199.377644 79.207253 
L 199.377644 77.79304 
L 197.963431 77.79304 
L 197.963431 79.207253 
L 196.549217 79.207253 
L 196.549217 80.621467 
L 197.963431 80.621467 
z
" clip-path="url(#pdf3fc824a7)" style="fill: #88ccee; fill-opacity: 0.6; stroke: #ffffff; stroke-opacity: 0.6; stroke-width: 0.339411"/>
    <path d="M 200.055261 89.901615 
L 201.469474 89.901615 
L 201.469474 88.487402 
L 202.883688 88.487402 
L 202.883688 87.073188 
L 201.469474 87.073188 
L 201.469474 85.658975 
L 200.055261 85.658975 
L 200.055261 87.073188 
L 198.641047 87.073188 
L 198.641047 88.487402 
L 200.055261 88.487402 
z
" clip-path="url(#pdf3fc824a7)" style="fill: #88ccee; fill-opacity: 0.6; stroke: #ffffff; stroke-opacity: 0.6; stroke-width: 0.339411"/>
    <path d="M 199.251197 99.420975 
L 200.66541 99.420975 
L 200.66541 98.006762 
L 202.079624 98.006762 
L 202.079624 96.592548 
L 200.66541 96.592548 
L 200.66541 95.178335 
L 199.251197 95.178335 
L 199.251197 96.592548 
L 197.836983 96.592548 
L 197.836983 98.006762 
L 199.251197 98.006762 
z
" clip-path="url(#pdf3fc824a7)" style="fill: #88ccee; fill-opacity: 0.6; stroke: #ffffff; stroke-opacity: 0.6; stroke-width: 0.339411"/>
    <path d="M 208.484895 111.496829 
L 209.899109 111.496829 
L 209.899109 110.082616 
L 211.313322 110.082616 
L 211.313322 108.668402 
L 209.899109 108.668402 
L 209.899109 107.254189 
L 208.484895 107.254189 
L 208.484895 108.668402 
L 207.070682 108.668402 
L 207.070682 110.082616 
L 208.484895 110.082616 
z
" clip-path="url(#pdf3fc824a7)" style="fill: #88ccee; fill-opacity: 0.6; stroke: #ffffff; stroke-opacity: 0.6; stroke-width: 0.339411"/>
    <path d="M 208.727301 112.759456 
L 210.141515 112.759456 
L 210.141515 111.345242 
L 211.555729 111.345242 
L 211.555729 109.931029 
L 210.141515 109.931029 
L 210.141515 108.516815 
L 208.727301 108.516815 
L 208.727301 109.931029 
L 207.313088 109.931029 
L 207.313088 111.345242 
L 208.727301 111.345242 
z
" clip-path="url(#pdf3fc824a7)" style="fill: #88ccee; fill-opacity: 0.6; stroke: #ffffff; stroke-opacity: 0.6; stroke-width: 0.339411"/>
    <path d="M 196.8215 83.689176 
L 198.235714 83.689176 
L 198.235714 82.274963 
L 199.649928 82.274963 
L 199.649928 80.860749 
L 198.235714 80.860749 
L 198.235714 79.446535 
L 196.8215 79.446535 
L 196.8215 80.860749 
L 195.407287 80.860749 
L 195.407287 82.274963 
L 196.8215 82.274963 
z
" clip-path="url(#pdf3fc824a7)" style="fill: #88ccee; fill-opacity: 0.6; stroke: #ffffff; stroke-opacity: 0.6; stroke-width: 0.339411"/>
    <path d="M 198.493002 74.727881 
L 199.907215 74.727881 
L 199.907215 73.313668 
L 201.321429 73.313668 
L 201.321429 71.899454 
L 199.907215 71.899454 
L 199.907215 70.48524 
L 198.493002 70.48524 
L 198.493002 71.899454 
L 197.078788 71.899454 
L 197.078788 73.313668 
L 198.493002 73.313668 
z
" clip-path="url(#pdf3fc824a7)" style="fill: #88ccee; fill-opacity: 0.6; stroke: #ffffff; stroke-opacity: 0.6; stroke-width: 0.339411"/>
    <path d="M 200.939919 79.510084 
L 202.354132 79.510084 
L 202.354132 78.09587 
L 203.768346 78.09587 
L 203.768346 76.681656 
L 202.354132 76.681656 
L 202.354132 75.267443 
L 200.939919 75.267443 
L 200.939919 76.681656 
L 199.525705 76.681656 
L 199.525705 78.09587 
L 200.939919 78.09587 
z
" clip-path="url(#pdf3fc824a7)" style="fill: #88ccee; fill-opacity: 0.6; stroke: #ffffff; stroke-opacity: 0.6; stroke-width: 0.339411"/>
    <path d="M 195.778187 97.797852 
L 197.1924 97.797852 
L 197.1924 96.383639 
L 198.606614 96.383639 
L 198.606614 94.969425 
L 197.1924 94.969425 
L 197.1924 93.555212 
L 195.778187 93.555212 
L 195.778187 94.969425 
L 194.363973 94.969425 
L 194.363973 96.383639 
L 195.778187 96.383639 
z
" clip-path="url(#pdf3fc824a7)" style="fill: #88ccee; fill-opacity: 0.6; stroke: #ffffff; stroke-opacity: 0.6; stroke-width: 0.339411"/>
    <path d="M 176.36096 61.467468 
L 177.775174 61.467468 
L 177.775174 60.053254 
L 179.189387 60.053254 
L 179.189387 58.639041 
L 177.775174 58.639041 
L 177.775174 57.224827 
L 176.36096 57.224827 
L 176.36096 58.639041 
L 174.946747 58.639041 
L 174.946747 60.053254 
L 176.36096 60.053254 
z
" clip-path="url(#pdf3fc824a7)" style="fill: #88ccee; fill-opacity: 0.6; stroke: #ffffff; stroke-opacity: 0.6; stroke-width: 0.339411"/>
    <path d="M 198.927906 90.975324 
L 200.34212 90.975324 
L 200.34212 89.56111 
L 201.756333 89.56111 
L 201.756333 88.146897 
L 200.34212 88.146897 
L 200.34212 86.732683 
L 198.927906 86.732683 
L 198.927906 88.146897 
L 197.513692 88.146897 
L 197.513692 89.56111 
L 198.927906 89.56111 
z
" clip-path="url(#pdf3fc824a7)" style="fill: #88ccee; fill-opacity: 0.6; stroke: #ffffff; stroke-opacity: 0.6; stroke-width: 0.339411"/>
    <path d="M 206.939169 118.074117 
L 208.353383 118.074117 
L 208.353383 116.659903 
L 209.767596 116.659903 
L 209.767596 115.24569 
L 208.353383 115.24569 
L 208.353383 113.831476 
L 206.939169 113.831476 
L 206.939169 115.24569 
L 205.524956 115.24569 
L 205.524956 116.659903 
L 206.939169 116.659903 
z
" clip-path="url(#pdf3fc824a7)" style="fill: #88ccee; fill-opacity: 0.6; stroke: #ffffff; stroke-opacity: 0.6; stroke-width: 0.339411"/>
    <path d="M 181.952429 57.509319 
L 183.366643 57.509319 
L 183.366643 56.095106 
L 184.780856 56.095106 
L 184.780856 54.680892 
L 183.366643 54.680892 
L 183.366643 53.266679 
L 181.952429 53.266679 
L 181.952429 54.680892 
L 180.538216 54.680892 
L 180.538216 56.095106 
L 181.952429 56.095106 
z
" clip-path="url(#pdf3fc824a7)" style="fill: #88ccee; fill-opacity: 0.6; stroke: #ffffff; stroke-opacity: 0.6; stroke-width: 0.339411"/>
    <path d="M 202.326001 96.720101 
L 203.740215 96.720101 
L 203.740215 95.305888 
L 205.154428 95.305888 
L 205.154428 93.891674 
L 203.740215 93.891674 
L 203.740215 92.47746 
L 202.326001 92.47746 
L 202.326001 93.891674 
L 200.911788 93.891674 
L 200.911788 95.305888 
L 202.326001 95.305888 
z
" clip-path="url(#pdf3fc824a7)" style="fill: #88ccee; fill-opacity: 0.6; stroke: #ffffff; stroke-opacity: 0.6; stroke-width: 0.339411"/>
    <path d="M 183.267212 75.796264 
L 184.681426 75.796264 
L 184.681426 74.38205 
L 186.095639 74.38205 
L 186.095639 72.967836 
L 184.681426 72.967836 
L 184.681426 71.553623 
L 183.267212 71.553623 
L 183.267212 72.967836 
L 181.852999 72.967836 
L 181.852999 74.38205 
L 183.267212 74.38205 
z
" clip-path="url(#pdf3fc824a7)" style="fill: #88ccee; fill-opacity: 0.6; stroke: #ffffff; stroke-opacity: 0.6; stroke-width: 0.339411"/>
    <path d="M 191.531798 71.835611 
L 192.946011 71.835611 
L 192.946011 70.421397 
L 194.360225 70.421397 
L 194.360225 69.007184 
L 192.946011 69.007184 
L 192.946011 67.59297 
L 191.531798 67.59297 
L 191.531798 69.007184 
L 190.117584 69.007184 
L 190.117584 70.421397 
L 191.531798 70.421397 
z
" clip-path="url(#pdf3fc824a7)" style="fill: #88ccee; fill-opacity: 0.6; stroke: #ffffff; stroke-opacity: 0.6; stroke-width: 0.339411"/>
    <path d="M 180.09052 65.993852 
L 181.504733 65.993852 
L 181.504733 64.579639 
L 182.918947 64.579639 
L 182.918947 63.165425 
L 181.504733 63.165425 
L 181.504733 61.751212 
L 180.09052 61.751212 
L 180.09052 63.165425 
L 178.676306 63.165425 
L 178.676306 64.579639 
L 180.09052 64.579639 
z
" clip-path="url(#pdf3fc824a7)" style="fill: #88ccee; fill-opacity: 0.6; stroke: #ffffff; stroke-opacity: 0.6; stroke-width: 0.339411"/>
    <path d="M 181.446331 65.451655 
L 182.860545 65.451655 
L 182.860545 64.037441 
L 184.274758 64.037441 
L 184.274758 62.623228 
L 182.860545 62.623228 
L 182.860545 61.209014 
L 181.446331 61.209014 
L 181.446331 62.623228 
L 180.032118 62.623228 
L 180.032118 64.037441 
L 181.446331 64.037441 
z
" clip-path="url(#pdf3fc824a7)" style="fill: #88ccee; fill-opacity: 0.6; stroke: #ffffff; stroke-opacity: 0.6; stroke-width: 0.339411"/>
    <path d="M 201.035528 71.021882 
L 202.449742 71.021882 
L 202.449742 69.607669 
L 203.863956 69.607669 
L 203.863956 68.193455 
L 202.449742 68.193455 
L 202.449742 66.779242 
L 201.035528 66.779242 
L 201.035528 68.193455 
L 199.621315 68.193455 
L 199.621315 69.607669 
L 201.035528 69.607669 
z
" clip-path="url(#pdf3fc824a7)" style="fill: #88ccee; fill-opacity: 0.6; stroke: #ffffff; stroke-opacity: 0.6; stroke-width: 0.339411"/>
    <path d="M 190.714763 63.834779 
L 192.128976 63.834779 
L 192.128976 62.420565 
L 193.54319 62.420565 
L 193.54319 61.006352 
L 192.128976 61.006352 
L 192.128976 59.592138 
L 190.714763 59.592138 
L 190.714763 61.006352 
L 189.300549 61.006352 
L 189.300549 62.420565 
L 190.714763 62.420565 
z
" clip-path="url(#pdf3fc824a7)" style="fill: #88ccee; fill-opacity: 0.6; stroke: #ffffff; stroke-opacity: 0.6; stroke-width: 0.339411"/>
    <path d="M 187.309181 102.365869 
L 188.723395 102.365869 
L 188.723395 100.951656 
L 190.137609 100.951656 
L 190.137609 99.537442 
L 188.723395 99.537442 
L 188.723395 98.123229 
L 187.309181 98.123229 
L 187.309181 99.537442 
L 185.894968 99.537442 
L 185.894968 100.951656 
L 187.309181 100.951656 
z
" clip-path="url(#pdf3fc824a7)" style="fill: #88ccee; fill-opacity: 0.6; stroke: #ffffff; stroke-opacity: 0.6; stroke-width: 0.339411"/>
    <path d="M 194.44874 70.264084 
L 195.862953 70.264084 
L 195.862953 68.849871 
L 197.277167 68.849871 
L 197.277167 67.435657 
L 195.862953 67.435657 
L 195.862953 66.021444 
L 194.44874 66.021444 
L 194.44874 67.435657 
L 193.034526 67.435657 
L 193.034526 68.849871 
L 194.44874 68.849871 
z
" clip-path="url(#pdf3fc824a7)" style="fill: #88ccee; fill-opacity: 0.6; stroke: #ffffff; stroke-opacity: 0.6; stroke-width: 0.339411"/>
    <path d="M 200.682831 72.694618 
L 202.097045 72.694618 
L 202.097045 71.280404 
L 203.511258 71.280404 
L 203.511258 69.866191 
L 202.097045 69.866191 
L 202.097045 68.451977 
L 200.682831 68.451977 
L 200.682831 69.866191 
L 199.268618 69.866191 
L 199.268618 71.280404 
L 200.682831 71.280404 
z
" clip-path="url(#pdf3fc824a7)" style="fill: #88ccee; fill-opacity: 0.6; stroke: #ffffff; stroke-opacity: 0.6; stroke-width: 0.339411"/>
    <path d="M 186.950929 80.780505 
L 188.365142 80.780505 
L 188.365142 79.366291 
L 189.779356 79.366291 
L 189.779356 77.952078 
L 188.365142 77.952078 
L 188.365142 76.537864 
L 186.950929 76.537864 
L 186.950929 77.952078 
L 185.536715 77.952078 
L 185.536715 79.366291 
L 186.950929 79.366291 
z
" clip-path="url(#pdf3fc824a7)" style="fill: #88ccee; fill-opacity: 0.6; stroke: #ffffff; stroke-opacity: 0.6; stroke-width: 0.339411"/>
    <path d="M 208.511322 103.801706 
L 209.925535 103.801706 
L 209.925535 102.387492 
L 211.339749 102.387492 
L 211.339749 100.973279 
L 209.925535 100.973279 
L 209.925535 99.559065 
L 208.511322 99.559065 
L 208.511322 100.973279 
L 207.097108 100.973279 
L 207.097108 102.387492 
L 208.511322 102.387492 
z
" clip-path="url(#pdf3fc824a7)" style="fill: #88ccee; fill-opacity: 0.6; stroke: #ffffff; stroke-opacity: 0.6; stroke-width: 0.339411"/>
    <path d="M 188.985753 64.701255 
L 190.399966 64.701255 
L 190.399966 63.287041 
L 191.81418 63.287041 
L 191.81418 61.872828 
L 190.399966 61.872828 
L 190.399966 60.458614 
L 188.985753 60.458614 
L 188.985753 61.872828 
L 187.571539 61.872828 
L 187.571539 63.287041 
L 188.985753 63.287041 
z
" clip-path="url(#pdf3fc824a7)" style="fill: #88ccee; fill-opacity: 0.6; stroke: #ffffff; stroke-opacity: 0.6; stroke-width: 0.339411"/>
    <path d="M 180.690605 72.831636 
L 182.104819 72.831636 
L 182.104819 71.417422 
L 183.519032 71.417422 
L 183.519032 70.003208 
L 182.104819 70.003208 
L 182.104819 68.588995 
L 180.690605 68.588995 
L 180.690605 70.003208 
L 179.276392 70.003208 
L 179.276392 71.417422 
L 180.690605 71.417422 
z
" clip-path="url(#pdf3fc824a7)" style="fill: #88ccee; fill-opacity: 0.6; stroke: #ffffff; stroke-opacity: 0.6; stroke-width: 0.339411"/>
    <path d="M 200.640515 96.400073 
L 202.054729 96.400073 
L 202.054729 94.98586 
L 203.468942 94.98586 
L 203.468942 93.571646 
L 202.054729 93.571646 
L 202.054729 92.157432 
L 200.640515 92.157432 
L 200.640515 93.571646 
L 199.226302 93.571646 
L 199.226302 94.98586 
L 200.640515 94.98586 
z
" clip-path="url(#pdf3fc824a7)" style="fill: #88ccee; fill-opacity: 0.6; stroke: #ffffff; stroke-opacity: 0.6; stroke-width: 0.339411"/>
    <path d="M 199.781543 69.966859 
L 201.195757 69.966859 
L 201.195757 68.552645 
L 202.60997 68.552645 
L 202.60997 67.138432 
L 201.195757 67.138432 
L 201.195757 65.724218 
L 199.781543 65.724218 
L 199.781543 67.138432 
L 198.36733 67.138432 
L 198.36733 68.552645 
L 199.781543 68.552645 
z
" clip-path="url(#pdf3fc824a7)" style="fill: #88ccee; fill-opacity: 0.6; stroke: #ffffff; stroke-opacity: 0.6; stroke-width: 0.339411"/>
   </g>
   <g id="matplotlib.axis_1">
    <g id="xtick_1">
     <g id="line2d_1">
      <defs>
       <path id="m3a379cfbb7" d="M 0 0 
L 0 8 
" style="stroke: #000000"/>
      </defs>
      <g>
       <use xlink:href="#m3a379cfbb7" x="85.321959" y="188.936063" style="stroke: #000000"/>
      </g>
     </g>
     <g id="text_1">
      <!-- 0 -->
      <g transform="translate(81.504459 209.554188) scale(0.12 -0.12)">
       <defs>
        <path id="DejaVuSans-30" d="M 2034 4250 
Q 1547 4250 1301 3770 
Q 1056 3291 1056 2328 
Q 1056 1369 1301 889 
Q 1547 409 2034 409 
Q 2525 409 2770 889 
Q 3016 1369 3016 2328 
Q 3016 3291 2770 3770 
Q 2525 4250 2034 4250 
z
M 2034 4750 
Q 2819 4750 3233 4129 
Q 3647 3509 3647 2328 
Q 3647 1150 3233 529 
Q 2819 -91 2034 -91 
Q 1250 -91 836 529 
Q 422 1150 422 2328 
Q 422 3509 836 4129 
Q 1250 4750 2034 4750 
z
" transform="scale(0.015625)"/>
       </defs>
       <use xlink:href="#DejaVuSans-30"/>
      </g>
     </g>
    </g>
    <g id="xtick_2">
     <g id="line2d_2">
      <g>
       <use xlink:href="#m3a379cfbb7" x="177.781777" y="188.936063" style="stroke: #000000"/>
      </g>
     </g>
     <g id="text_2">
      <!-- 10 -->
      <g transform="translate(170.146777 209.554188) scale(0.12 -0.12)">
       <defs>
        <path id="DejaVuSans-31" d="M 794 531 
L 1825 531 
L 1825 4091 
L 703 3866 
L 703 4441 
L 1819 4666 
L 2450 4666 
L 2450 531 
L 3481 531 
L 3481 0 
L 794 0 
L 794 531 
z
" transform="scale(0.015625)"/>
       </defs>
       <use xlink:href="#DejaVuSans-31"/>
       <use xlink:href="#DejaVuSans-30" x="63.623047"/>
      </g>
     </g>
    </g>
    <g id="text_3">
     <!-- UMAP 1 -->
     <g transform="translate(117.956572 225.167938) scale(0.12 -0.12)">
      <defs>
       <path id="DejaVuSans-55" d="M 556 4666 
L 1191 4666 
L 1191 1831 
Q 1191 1081 1462 751 
Q 1734 422 2344 422 
Q 2950 422 3222 751 
Q 3494 1081 3494 1831 
L 3494 4666 
L 4128 4666 
L 4128 1753 
Q 4128 841 3676 375 
Q 3225 -91 2344 -91 
Q 1459 -91 1007 375 
Q 556 841 556 1753 
L 556 4666 
z
" transform="scale(0.015625)"/>
       <path id="DejaVuSans-4d" d="M 628 4666 
L 1569 4666 
L 2759 1491 
L 3956 4666 
L 4897 4666 
L 4897 0 
L 4281 0 
L 4281 4097 
L 3078 897 
L 2444 897 
L 1241 4097 
L 1241 0 
L 628 0 
L 628 4666 
z
" transform="scale(0.015625)"/>
       <path id="DejaVuSans-41" d="M 2188 4044 
L 1331 1722 
L 3047 1722 
L 2188 4044 
z
M 1831 4666 
L 2547 4666 
L 4325 0 
L 3669 0 
L 3244 1197 
L 1141 1197 
L 716 0 
L 50 0 
L 1831 4666 
z
" transform="scale(0.015625)"/>
       <path id="DejaVuSans-50" d="M 1259 4147 
L 1259 2394 
L 2053 2394 
Q 2494 2394 2734 2622 
Q 2975 2850 2975 3272 
Q 2975 3691 2734 3919 
Q 2494 4147 2053 4147 
L 1259 4147 
z
M 628 4666 
L 2053 4666 
Q 2838 4666 3239 4311 
Q 3641 3956 3641 3272 
Q 3641 2581 3239 2228 
Q 2838 1875 2053 1875 
L 1259 1875 
L 1259 0 
L 628 0 
L 628 4666 
z
" transform="scale(0.015625)"/>
       <path id="DejaVuSans-20" transform="scale(0.015625)"/>
      </defs>
      <use xlink:href="#DejaVuSans-55"/>
      <use xlink:href="#DejaVuSans-4d" x="73.193359"/>
      <use xlink:href="#DejaVuSans-41" x="159.472656"/>
      <use xlink:href="#DejaVuSans-50" x="227.880859"/>
      <use xlink:href="#DejaVuSans-20" x="288.183594"/>
      <use xlink:href="#DejaVuSans-31" x="319.970703"/>
     </g>
    </g>
   </g>
   <g id="matplotlib.axis_2">
    <g id="ytick_1">
     <g id="line2d_3">
      <defs>
       <path id="mb85d64ed6f" d="M 0 0 
L -8 0 
" style="stroke: #000000"/>
      </defs>
      <g>
       <use xlink:href="#mb85d64ed6f" x="53.957638" y="157.571742" style="stroke: #000000"/>
      </g>
     </g>
     <g id="text_4">
      <!-- 0 -->
      <g transform="translate(34.822638 162.130804) scale(0.12 -0.12)">
       <use xlink:href="#DejaVuSans-30"/>
      </g>
     </g>
    </g>
    <g id="ytick_2">
     <g id="line2d_4">
      <g>
       <use xlink:href="#mb85d64ed6f" x="53.957638" y="65.111924" style="stroke: #000000"/>
      </g>
     </g>
     <g id="text_5">
      <!-- 10 -->
      <g transform="translate(27.187638 69.670987) scale(0.12 -0.12)">
       <use xlink:href="#DejaVuSans-31"/>
       <use xlink:href="#DejaVuSans-30" x="63.623047"/>
      </g>
     </g>
    </g>
    <g id="text_6">
     <!-- UMAP 2 -->
     <g transform="translate(20.692013 124.937128) rotate(-90) scale(0.12 -0.12)">
      <defs>
       <path id="DejaVuSans-32" d="M 1228 531 
L 3431 531 
L 3431 0 
L 469 0 
L 469 531 
Q 828 903 1448 1529 
Q 2069 2156 2228 2338 
Q 2531 2678 2651 2914 
Q 2772 3150 2772 3378 
Q 2772 3750 2511 3984 
Q 2250 4219 1831 4219 
Q 1534 4219 1204 4116 
Q 875 4013 500 3803 
L 500 4441 
Q 881 4594 1212 4672 
Q 1544 4750 1819 4750 
Q 2544 4750 2975 4387 
Q 3406 4025 3406 3419 
Q 3406 3131 3298 2873 
Q 3191 2616 2906 2266 
Q 2828 2175 2409 1742 
Q 1991 1309 1228 531 
z
" transform="scale(0.015625)"/>
      </defs>
      <use xlink:href="#DejaVuSans-55"/>
      <use xlink:href="#DejaVuSans-4d" x="73.193359"/>
      <use xlink:href="#DejaVuSans-41" x="159.472656"/>
      <use xlink:href="#DejaVuSans-50" x="227.880859"/>
      <use xlink:href="#DejaVuSans-20" x="288.183594"/>
      <use xlink:href="#DejaVuSans-32" x="319.970703"/>
     </g>
    </g>
   </g>
   <g id="patch_3">
    <path d="M 53.957638 188.936063 
L 53.957638 14.908819 
" style="fill: none; stroke: #000000; stroke-width: 2; stroke-linejoin: miter; stroke-linecap: square"/>
   </g>
   <g id="patch_4">
    <path d="M 53.957638 188.936063 
L 227.984882 188.936063 
" style="fill: none; stroke: #000000; stroke-width: 2; stroke-linejoin: miter; stroke-linecap: square"/>
   </g>
  </g>
 </g>
 <defs>
  <clipPath id="pdf3fc824a7">
   <rect x="53.957638" y="14.908819" width="174.027244" height="174.027244"/>
  </clipPath>
 </defs>
</svg>
