<?xml version="1.0" encoding="utf-8" standalone="no"?>
<!DOCTYPE svg PUBLIC "-//W3C//DTD SVG 1.1//EN"
  "http://www.w3.org/Graphics/SVG/1.1/DTD/svg11.dtd">
<svg xmlns:xlink="http://www.w3.org/1999/xlink" width="240.944882pt" height="240.944882pt" viewBox="0 0 240.944882 240.944882" xmlns="http://www.w3.org/2000/svg" version="1.1">
 <metadata>
  <rdf:RDF xmlns:dc="http://purl.org/dc/elements/1.1/" xmlns:cc="http://creativecommons.org/ns#" xmlns:rdf="http://www.w3.org/1999/02/22-rdf-syntax-ns#">
   <cc:Work>
    <dc:type rdf:resource="http://purl.org/dc/dcmitype/StillImage"/>
    <dc:date>2025-02-19T15:02:30.135569</dc:date>
    <dc:format>image/svg+xml</dc:format>
    <dc:creator>
     <cc:Agent>
      <dc:title>Matplotlib v3.6.2, https://matplotlib.org/</dc:title>
     </cc:Agent>
    </dc:creator>
   </cc:Work>
  </rdf:RDF>
 </metadata>
 <defs>
  <style type="text/css">*{stroke-linejoin: round; stroke-linecap: butt}</style>
 </defs>
 <g id="figure_1">
  <g id="patch_1">
   <path d="M 0 240.944882 
L 240.944882 240.944882 
L 240.944882 0 
L 0 0 
L 0 240.944882 
z
" style="fill: none"/>
  </g>
  <g id="axes_1">
   <g id="patch_2">
    <path d="M 64.037638 182.738502 
L 225.66976 182.738502 
L 225.66976 21.10638 
L 64.037638 21.10638 
L 64.037638 182.738502 
z
" style="fill: none"/>
   </g>
   <g id="PathCollection_1">
    <path d="M 108.617899 129.481256 
L 110.417899 126.481256 
L 108.617899 123.481256 
L 106.817899 126.481256 
z
" clip-path="url(#p2181da708f)" style="fill: #332288; fill-opacity: 0.6; stroke: #ffffff; stroke-opacity: 0.6; stroke-width: 0.339411"/>
    <path d="M 190.429838 94.36637 
L 192.229838 91.36637 
L 190.429838 88.36637 
L 188.629838 91.36637 
z
" clip-path="url(#p2181da708f)" style="fill: #332288; fill-opacity: 0.6; stroke: #ffffff; stroke-opacity: 0.6; stroke-width: 0.339411"/>
    <path d="M 175.232891 110.95385 
L 177.032891 107.95385 
L 175.232891 104.95385 
L 173.432891 107.95385 
z
" clip-path="url(#p2181da708f)" style="fill: #332288; fill-opacity: 0.6; stroke: #ffffff; stroke-opacity: 0.6; stroke-width: 0.339411"/>
    <path d="M 83.034304 166.888305 
L 84.834304 163.888305 
L 83.034304 160.888305 
L 81.234304 163.888305 
z
" clip-path="url(#p2181da708f)" style="fill: #332288; fill-opacity: 0.6; stroke: #ffffff; stroke-opacity: 0.6; stroke-width: 0.339411"/>
    <path d="M 78.712134 173.834559 
L 80.512134 170.834559 
L 78.712134 167.834559 
L 76.912134 170.834559 
z
" clip-path="url(#p2181da708f)" style="fill: #332288; fill-opacity: 0.6; stroke: #ffffff; stroke-opacity: 0.6; stroke-width: 0.339411"/>
    <path d="M 80.953922 171.960497 
L 82.753922 168.960497 
L 80.953922 165.960497 
L 79.153922 168.960497 
z
" clip-path="url(#p2181da708f)" style="fill: #332288; fill-opacity: 0.6; stroke: #ffffff; stroke-opacity: 0.6; stroke-width: 0.339411"/>
    <path d="M 175.044656 109.631729 
L 176.844656 106.631729 
L 175.044656 103.631729 
L 173.244656 106.631729 
z
" clip-path="url(#p2181da708f)" style="fill: #332288; fill-opacity: 0.6; stroke: #ffffff; stroke-opacity: 0.6; stroke-width: 0.339411"/>
    <path d="M 107.69823 127.819836 
L 109.49823 124.819836 
L 107.69823 121.819836 
L 105.89823 124.819836 
z
" clip-path="url(#p2181da708f)" style="fill: #332288; fill-opacity: 0.6; stroke: #ffffff; stroke-opacity: 0.6; stroke-width: 0.339411"/>
    <path d="M 178.201118 107.90206 
L 180.001118 104.90206 
L 178.201118 101.90206 
L 176.401118 104.90206 
z
" clip-path="url(#p2181da708f)" style="fill: #332288; fill-opacity: 0.6; stroke: #ffffff; stroke-opacity: 0.6; stroke-width: 0.339411"/>
    <path d="M 97.457124 133.244101 
L 99.257124 130.244101 
L 97.457124 127.244101 
L 95.657124 130.244101 
z
" clip-path="url(#p2181da708f)" style="fill: #332288; fill-opacity: 0.6; stroke: #ffffff; stroke-opacity: 0.6; stroke-width: 0.339411"/>
    <path d="M 106.339369 129.387585 
L 108.139369 126.387585 
L 106.339369 123.387585 
L 104.539369 126.387585 
z
" clip-path="url(#p2181da708f)" style="fill: #332288; fill-opacity: 0.6; stroke: #ffffff; stroke-opacity: 0.6; stroke-width: 0.339411"/>
    <path d="M 167.244047 109.693416 
L 169.044047 106.693416 
L 167.244047 103.693416 
L 165.444047 106.693416 
z
" clip-path="url(#p2181da708f)" style="fill: #332288; fill-opacity: 0.6; stroke: #ffffff; stroke-opacity: 0.6; stroke-width: 0.339411"/>
    <path d="M 96.752738 133.144359 
L 98.552738 130.144359 
L 96.752738 127.144359 
L 94.952738 130.144359 
z
" clip-path="url(#p2181da708f)" style="fill: #332288; fill-opacity: 0.6; stroke: #ffffff; stroke-opacity: 0.6; stroke-width: 0.339411"/>
    <path d="M 100.506518 135.59364 
L 102.306518 132.59364 
L 100.506518 129.59364 
L 98.706518 132.59364 
z
" clip-path="url(#p2181da708f)" style="fill: #332288; fill-opacity: 0.6; stroke: #ffffff; stroke-opacity: 0.6; stroke-width: 0.339411"/>
    <path d="M 82.920398 165.859526 
L 84.720398 162.859526 
L 82.920398 159.859526 
L 81.120398 162.859526 
z
" clip-path="url(#p2181da708f)" style="fill: #332288; fill-opacity: 0.6; stroke: #ffffff; stroke-opacity: 0.6; stroke-width: 0.339411"/>
    <path d="M 101.15514 131.463972 
L 102.95514 128.463972 
L 101.15514 125.463972 
L 99.35514 128.463972 
z
" clip-path="url(#p2181da708f)" style="fill: #332288; fill-opacity: 0.6; stroke: #ffffff; stroke-opacity: 0.6; stroke-width: 0.339411"/>
    <path d="M 83.273571 166.469041 
L 85.073571 163.469041 
L 83.273571 160.469041 
L 81.473571 163.469041 
z
" clip-path="url(#p2181da708f)" style="fill: #332288; fill-opacity: 0.6; stroke: #ffffff; stroke-opacity: 0.6; stroke-width: 0.339411"/>
    <path d="M 107.190668 133.284659 
L 108.990668 130.284659 
L 107.190668 127.284659 
L 105.390668 130.284659 
z
" clip-path="url(#p2181da708f)" style="fill: #332288; fill-opacity: 0.6; stroke: #ffffff; stroke-opacity: 0.6; stroke-width: 0.339411"/>
    <path d="M 101.771841 130.712479 
L 103.571841 127.712479 
L 101.771841 124.712479 
L 99.971841 127.712479 
z
" clip-path="url(#p2181da708f)" style="fill: #332288; fill-opacity: 0.6; stroke: #ffffff; stroke-opacity: 0.6; stroke-width: 0.339411"/>
    <path d="M 95.784878 131.664293 
L 97.584878 128.664293 
L 95.784878 125.664293 
L 93.984878 128.664293 
z
" clip-path="url(#p2181da708f)" style="fill: #332288; fill-opacity: 0.6; stroke: #ffffff; stroke-opacity: 0.6; stroke-width: 0.339411"/>
    <path d="M 80.479161 167.470106 
L 82.279161 164.470106 
L 80.479161 161.470106 
L 78.679161 164.470106 
z
" clip-path="url(#p2181da708f)" style="fill: #332288; fill-opacity: 0.6; stroke: #ffffff; stroke-opacity: 0.6; stroke-width: 0.339411"/>
    <path d="M 106.27103 130.010147 
L 108.07103 127.010147 
L 106.27103 124.010147 
L 104.47103 127.010147 
z
" clip-path="url(#p2181da708f)" style="fill: #332288; fill-opacity: 0.6; stroke: #ffffff; stroke-opacity: 0.6; stroke-width: 0.339411"/>
    <path d="M 104.880235 131.273754 
L 106.680235 128.273754 
L 104.880235 125.273754 
L 103.080235 128.273754 
z
" clip-path="url(#p2181da708f)" style="fill: #332288; fill-opacity: 0.6; stroke: #ffffff; stroke-opacity: 0.6; stroke-width: 0.339411"/>
    <path d="M 104.236666 130.819939 
L 106.036666 127.819939 
L 104.236666 124.819939 
L 102.436666 127.819939 
z
" clip-path="url(#p2181da708f)" style="fill: #332288; fill-opacity: 0.6; stroke: #ffffff; stroke-opacity: 0.6; stroke-width: 0.339411"/>
    <path d="M 102.371512 131.231917 
L 104.171512 128.231917 
L 102.371512 125.231917 
L 100.571512 128.231917 
z
" clip-path="url(#p2181da708f)" style="fill: #332288; fill-opacity: 0.6; stroke: #ffffff; stroke-opacity: 0.6; stroke-width: 0.339411"/>
    <path d="M 78.456312 170.597872 
L 80.256312 167.597872 
L 78.456312 164.597872 
L 76.656312 167.597872 
z
" clip-path="url(#p2181da708f)" style="fill: #332288; fill-opacity: 0.6; stroke: #ffffff; stroke-opacity: 0.6; stroke-width: 0.339411"/>
    <path d="M 104.923463 132.279898 
L 106.723463 129.279898 
L 104.923463 126.279898 
L 103.123463 129.279898 
z
" clip-path="url(#p2181da708f)" style="fill: #332288; fill-opacity: 0.6; stroke: #ffffff; stroke-opacity: 0.6; stroke-width: 0.339411"/>
    <path d="M 189.461401 95.544215 
L 191.261401 92.544215 
L 189.461401 89.544215 
L 187.661401 92.544215 
z
" clip-path="url(#p2181da708f)" style="fill: #332288; fill-opacity: 0.6; stroke: #ffffff; stroke-opacity: 0.6; stroke-width: 0.339411"/>
    <path d="M 101.443315 134.735267 
L 103.243315 131.735267 
L 101.443315 128.735267 
L 99.643315 131.735267 
z
" clip-path="url(#p2181da708f)" style="fill: #332288; fill-opacity: 0.6; stroke: #ffffff; stroke-opacity: 0.6; stroke-width: 0.339411"/>
    <path d="M 79.43219 168.140937 
L 81.23219 165.140937 
L 79.43219 162.140937 
L 77.63219 165.140937 
z
" clip-path="url(#p2181da708f)" style="fill: #332288; fill-opacity: 0.6; stroke: #ffffff; stroke-opacity: 0.6; stroke-width: 0.339411"/>
    <path d="M 174.090994 109.500464 
L 175.890994 106.500464 
L 174.090994 103.500464 
L 172.290994 106.500464 
z
" clip-path="url(#p2181da708f)" style="fill: #332288; fill-opacity: 0.6; stroke: #ffffff; stroke-opacity: 0.6; stroke-width: 0.339411"/>
    <path d="M 189.887401 94.949305 
L 191.687401 91.949305 
L 189.887401 88.949305 
L 188.087401 91.949305 
z
" clip-path="url(#p2181da708f)" style="fill: #332288; fill-opacity: 0.6; stroke: #ffffff; stroke-opacity: 0.6; stroke-width: 0.339411"/>
    <path d="M 81.485678 165.038818 
L 83.285678 162.038818 
L 81.485678 159.038818 
L 79.685678 162.038818 
z
" clip-path="url(#p2181da708f)" style="fill: #332288; fill-opacity: 0.6; stroke: #ffffff; stroke-opacity: 0.6; stroke-width: 0.339411"/>
    <path d="M 81.450389 166.602631 
L 83.250389 163.602631 
L 81.450389 160.602631 
L 79.650389 163.602631 
z
" clip-path="url(#p2181da708f)" style="fill: #332288; fill-opacity: 0.6; stroke: #ffffff; stroke-opacity: 0.6; stroke-width: 0.339411"/>
    <path d="M 98.021979 129.71206 
L 99.821979 126.71206 
L 98.021979 123.71206 
L 96.221979 126.71206 
z
" clip-path="url(#p2181da708f)" style="fill: #332288; fill-opacity: 0.6; stroke: #ffffff; stroke-opacity: 0.6; stroke-width: 0.339411"/>
    <path d="M 96.853211 130.484741 
L 98.653211 127.484741 
L 96.853211 124.484741 
L 95.053211 127.484741 
z
" clip-path="url(#p2181da708f)" style="fill: #332288; fill-opacity: 0.6; stroke: #ffffff; stroke-opacity: 0.6; stroke-width: 0.339411"/>
    <path d="M 98.895029 132.931444 
L 100.695029 129.931444 
L 98.895029 126.931444 
L 97.095029 129.931444 
z
" clip-path="url(#p2181da708f)" style="fill: #332288; fill-opacity: 0.6; stroke: #ffffff; stroke-opacity: 0.6; stroke-width: 0.339411"/>
    <path d="M 82.238441 169.053627 
L 84.038441 166.053627 
L 82.238441 163.053627 
L 80.438441 166.053627 
z
" clip-path="url(#p2181da708f)" style="fill: #332288; fill-opacity: 0.6; stroke: #ffffff; stroke-opacity: 0.6; stroke-width: 0.339411"/>
    <path d="M 78.344534 173.492721 
L 80.144534 170.492721 
L 78.344534 167.492721 
L 76.544534 170.492721 
z
" clip-path="url(#p2181da708f)" style="fill: #332288; fill-opacity: 0.6; stroke: #ffffff; stroke-opacity: 0.6; stroke-width: 0.339411"/>
    <path d="M 82.380696 164.907829 
L 84.180696 161.907829 
L 82.380696 158.907829 
L 80.580696 161.907829 
z
" clip-path="url(#p2181da708f)" style="fill: #332288; fill-opacity: 0.6; stroke: #ffffff; stroke-opacity: 0.6; stroke-width: 0.339411"/>
    <path d="M 77.628113 172.826516 
L 79.428113 169.826516 
L 77.628113 166.826516 
L 75.828113 169.826516 
z
" clip-path="url(#p2181da708f)" style="fill: #332288; fill-opacity: 0.6; stroke: #ffffff; stroke-opacity: 0.6; stroke-width: 0.339411"/>
    <path d="M 100.807131 130.964067 
L 102.607131 127.964067 
L 100.807131 124.964067 
L 99.007131 127.964067 
z
" clip-path="url(#p2181da708f)" style="fill: #332288; fill-opacity: 0.6; stroke: #ffffff; stroke-opacity: 0.6; stroke-width: 0.339411"/>
    <path d="M 83.407203 169.432609 
L 85.207203 166.432609 
L 83.407203 163.432609 
L 81.607203 166.432609 
z
" clip-path="url(#p2181da708f)" style="fill: #332288; fill-opacity: 0.6; stroke: #ffffff; stroke-opacity: 0.6; stroke-width: 0.339411"/>
    <path d="M 173.858981 110.686889 
L 175.658981 107.686889 
L 173.858981 104.686889 
L 172.058981 107.686889 
z
" clip-path="url(#p2181da708f)" style="fill: #332288; fill-opacity: 0.6; stroke: #ffffff; stroke-opacity: 0.6; stroke-width: 0.339411"/>
    <path d="M 179.083442 109.070408 
L 180.883442 106.070408 
L 179.083442 103.070408 
L 177.283442 106.070408 
z
" clip-path="url(#p2181da708f)" style="fill: #332288; fill-opacity: 0.6; stroke: #ffffff; stroke-opacity: 0.6; stroke-width: 0.339411"/>
    <path d="M 77.445882 173.545765 
L 79.245882 170.545765 
L 77.445882 167.545765 
L 75.645882 170.545765 
z
" clip-path="url(#p2181da708f)" style="fill: #332288; fill-opacity: 0.6; stroke: #ffffff; stroke-opacity: 0.6; stroke-width: 0.339411"/>
    <path d="M 97.788411 132.641869 
L 99.588411 129.641869 
L 97.788411 126.641869 
L 95.988411 129.641869 
z
" clip-path="url(#p2181da708f)" style="fill: #332288; fill-opacity: 0.6; stroke: #ffffff; stroke-opacity: 0.6; stroke-width: 0.339411"/>
    <path d="M 77.576333 174.172392 
L 79.376333 171.172392 
L 77.576333 168.172392 
L 75.776333 171.172392 
z
" clip-path="url(#p2181da708f)" style="fill: #332288; fill-opacity: 0.6; stroke: #ffffff; stroke-opacity: 0.6; stroke-width: 0.339411"/>
    <path d="M 79.244743 170.731193 
L 81.044743 167.731193 
L 79.244743 164.731193 
L 77.444743 167.731193 
z
" clip-path="url(#p2181da708f)" style="fill: #332288; fill-opacity: 0.6; stroke: #ffffff; stroke-opacity: 0.6; stroke-width: 0.339411"/>
    <path d="M 97.473579 129.004883 
L 99.273579 126.004883 
L 97.473579 123.004883 
L 95.673579 126.004883 
z
" clip-path="url(#p2181da708f)" style="fill: #332288; fill-opacity: 0.6; stroke: #ffffff; stroke-opacity: 0.6; stroke-width: 0.339411"/>
    <path d="M 106.448049 132.554185 
L 108.248049 129.554185 
L 106.448049 126.554185 
L 104.648049 129.554185 
z
" clip-path="url(#p2181da708f)" style="fill: #332288; fill-opacity: 0.6; stroke: #ffffff; stroke-opacity: 0.6; stroke-width: 0.339411"/>
    <path d="M 106.459197 131.863793 
L 108.259197 128.863793 
L 106.459197 125.863793 
L 104.659197 128.863793 
z
" clip-path="url(#p2181da708f)" style="fill: #332288; fill-opacity: 0.6; stroke: #ffffff; stroke-opacity: 0.6; stroke-width: 0.339411"/>
    <path d="M 107.048786 128.375315 
L 108.848786 125.375315 
L 107.048786 122.375315 
L 105.248786 125.375315 
z
" clip-path="url(#p2181da708f)" style="fill: #332288; fill-opacity: 0.6; stroke: #ffffff; stroke-opacity: 0.6; stroke-width: 0.339411"/>
    <path d="M 178.71452 108.666177 
L 180.51452 105.666177 
L 178.71452 102.666177 
L 176.91452 105.666177 
z
" clip-path="url(#p2181da708f)" style="fill: #332288; fill-opacity: 0.6; stroke: #ffffff; stroke-opacity: 0.6; stroke-width: 0.339411"/>
    <path d="M 80.329215 168.540271 
L 82.129215 165.540271 
L 80.329215 162.540271 
L 78.529215 165.540271 
z
" clip-path="url(#p2181da708f)" style="fill: #332288; fill-opacity: 0.6; stroke: #ffffff; stroke-opacity: 0.6; stroke-width: 0.339411"/>
    <path d="M 191.266452 93.803442 
L 193.066452 90.803442 
L 191.266452 87.803442 
L 189.466452 90.803442 
z
" clip-path="url(#p2181da708f)" style="fill: #332288; fill-opacity: 0.6; stroke: #ffffff; stroke-opacity: 0.6; stroke-width: 0.339411"/>
    <path d="M 96.74893 129.990757 
L 98.54893 126.990757 
L 96.74893 123.990757 
L 94.94893 126.990757 
z
" clip-path="url(#p2181da708f)" style="fill: #332288; fill-opacity: 0.6; stroke: #ffffff; stroke-opacity: 0.6; stroke-width: 0.339411"/>
    <path d="M 81.636871 166.996105 
L 83.436871 163.996105 
L 81.636871 160.996105 
L 79.836871 163.996105 
z
" clip-path="url(#p2181da708f)" style="fill: #332288; fill-opacity: 0.6; stroke: #ffffff; stroke-opacity: 0.6; stroke-width: 0.339411"/>
    <path d="M 108.250585 130.550436 
L 110.050585 127.550436 
L 108.250585 124.550436 
L 106.450585 127.550436 
z
" clip-path="url(#p2181da708f)" style="fill: #332288; fill-opacity: 0.6; stroke: #ffffff; stroke-opacity: 0.6; stroke-width: 0.339411"/>
    <path d="M 98.451252 129.073138 
L 100.251252 126.073138 
L 98.451252 123.073138 
L 96.651252 126.073138 
z
" clip-path="url(#p2181da708f)" style="fill: #332288; fill-opacity: 0.6; stroke: #ffffff; stroke-opacity: 0.6; stroke-width: 0.339411"/>
    <path d="M 108.604938 130.496633 
L 110.404938 127.496633 
L 108.604938 124.496633 
L 106.804938 127.496633 
z
" clip-path="url(#p2181da708f)" style="fill: #332288; fill-opacity: 0.6; stroke: #ffffff; stroke-opacity: 0.6; stroke-width: 0.339411"/>
    <path d="M 81.370748 172.280676 
L 83.170748 169.280676 
L 81.370748 166.280676 
L 79.570748 169.280676 
z
" clip-path="url(#p2181da708f)" style="fill: #332288; fill-opacity: 0.6; stroke: #ffffff; stroke-opacity: 0.6; stroke-width: 0.339411"/>
    <path d="M 172.223969 110.254882 
L 174.023969 107.254882 
L 172.223969 104.254882 
L 170.423969 107.254882 
z
" clip-path="url(#p2181da708f)" style="fill: #332288; fill-opacity: 0.6; stroke: #ffffff; stroke-opacity: 0.6; stroke-width: 0.339411"/>
    <path d="M 80.77763 171.019324 
L 82.57763 168.019324 
L 80.77763 165.019324 
L 78.97763 168.019324 
z
" clip-path="url(#p2181da708f)" style="fill: #332288; fill-opacity: 0.6; stroke: #ffffff; stroke-opacity: 0.6; stroke-width: 0.339411"/>
    <path d="M 189.670164 93.369815 
L 187.548843 97.612456 
L 191.791484 97.612456 
z
" clip-path="url(#p2181da708f)" style="fill: #117733; fill-opacity: 0.6; stroke: #ffffff; stroke-opacity: 0.6; stroke-width: 0.339411"/>
    <path d="M 188.452079 100.314305 
L 186.330758 104.556946 
L 190.573399 104.556946 
z
" clip-path="url(#p2181da708f)" style="fill: #117733; fill-opacity: 0.6; stroke: #ffffff; stroke-opacity: 0.6; stroke-width: 0.339411"/>
    <path d="M 192.483086 106.864531 
L 190.361765 111.107171 
L 194.604406 111.107171 
z
" clip-path="url(#p2181da708f)" style="fill: #117733; fill-opacity: 0.6; stroke: #ffffff; stroke-opacity: 0.6; stroke-width: 0.339411"/>
    <path d="M 188.67029 98.365518 
L 186.548969 102.608159 
L 190.79161 102.608159 
z
" clip-path="url(#p2181da708f)" style="fill: #117733; fill-opacity: 0.6; stroke: #ffffff; stroke-opacity: 0.6; stroke-width: 0.339411"/>
    <path d="M 190.812909 107.37237 
L 188.691589 111.61501 
L 192.93423 111.61501 
z
" clip-path="url(#p2181da708f)" style="fill: #117733; fill-opacity: 0.6; stroke: #ffffff; stroke-opacity: 0.6; stroke-width: 0.339411"/>
    <path d="M 209.668381 119.258477 
L 207.547061 123.501118 
L 211.789702 123.501118 
z
" clip-path="url(#p2181da708f)" style="fill: #117733; fill-opacity: 0.6; stroke: #ffffff; stroke-opacity: 0.6; stroke-width: 0.339411"/>
    <path d="M 189.500158 97.561762 
L 187.378837 101.804403 
L 191.621478 101.804403 
z
" clip-path="url(#p2181da708f)" style="fill: #117733; fill-opacity: 0.6; stroke: #ffffff; stroke-opacity: 0.6; stroke-width: 0.339411"/>
    <path d="M 165.395191 107.155266 
L 163.27387 111.397906 
L 167.516511 111.397906 
z
" clip-path="url(#p2181da708f)" style="fill: #117733; fill-opacity: 0.6; stroke: #ffffff; stroke-opacity: 0.6; stroke-width: 0.339411"/>
    <path d="M 167.733235 103.221931 
L 165.611915 107.464571 
L 169.854556 107.464571 
z
" clip-path="url(#p2181da708f)" style="fill: #117733; fill-opacity: 0.6; stroke: #ffffff; stroke-opacity: 0.6; stroke-width: 0.339411"/>
    <path d="M 98.34051 129.807469 
L 96.219189 134.050109 
L 100.46183 134.050109 
z
" clip-path="url(#p2181da708f)" style="fill: #117733; fill-opacity: 0.6; stroke: #ffffff; stroke-opacity: 0.6; stroke-width: 0.339411"/>
    <path d="M 194.955657 108.246385 
L 192.834337 112.489026 
L 197.076977 112.489026 
z
" clip-path="url(#p2181da708f)" style="fill: #117733; fill-opacity: 0.6; stroke: #ffffff; stroke-opacity: 0.6; stroke-width: 0.339411"/>
    <path d="M 188.965397 119.15015 
L 186.844077 123.39279 
L 191.086718 123.39279 
z
" clip-path="url(#p2181da708f)" style="fill: #117733; fill-opacity: 0.6; stroke: #ffffff; stroke-opacity: 0.6; stroke-width: 0.339411"/>
    <path d="M 190.681131 120.072492 
L 188.559811 124.315132 
L 192.802452 124.315132 
z
" clip-path="url(#p2181da708f)" style="fill: #117733; fill-opacity: 0.6; stroke: #ffffff; stroke-opacity: 0.6; stroke-width: 0.339411"/>
    <path d="M 197.184506 108.637579 
L 195.063186 112.88022 
L 199.305826 112.88022 
z
" clip-path="url(#p2181da708f)" style="fill: #117733; fill-opacity: 0.6; stroke: #ffffff; stroke-opacity: 0.6; stroke-width: 0.339411"/>
    <path d="M 167.166417 103.779369 
L 165.045097 108.02201 
L 169.287738 108.02201 
z
" clip-path="url(#p2181da708f)" style="fill: #117733; fill-opacity: 0.6; stroke: #ffffff; stroke-opacity: 0.6; stroke-width: 0.339411"/>
    <path d="M 203.966776 109.043371 
L 201.845456 113.286012 
L 206.088096 113.286012 
z
" clip-path="url(#p2181da708f)" style="fill: #117733; fill-opacity: 0.6; stroke: #ffffff; stroke-opacity: 0.6; stroke-width: 0.339411"/>
    <path d="M 191.429175 108.409619 
L 189.307854 112.65226 
L 193.550495 112.65226 
z
" clip-path="url(#p2181da708f)" style="fill: #117733; fill-opacity: 0.6; stroke: #ffffff; stroke-opacity: 0.6; stroke-width: 0.339411"/>
    <path d="M 191.319019 122.781045 
L 189.197699 127.023685 
L 193.440339 127.023685 
z
" clip-path="url(#p2181da708f)" style="fill: #117733; fill-opacity: 0.6; stroke: #ffffff; stroke-opacity: 0.6; stroke-width: 0.339411"/>
    <path d="M 168.954936 103.295917 
L 166.833616 107.538558 
L 171.076257 107.538558 
z
" clip-path="url(#p2181da708f)" style="fill: #117733; fill-opacity: 0.6; stroke: #ffffff; stroke-opacity: 0.6; stroke-width: 0.339411"/>
    <path d="M 193.44768 91.41225 
L 191.326359 95.65489 
L 195.569 95.65489 
z
" clip-path="url(#p2181da708f)" style="fill: #117733; fill-opacity: 0.6; stroke: #ffffff; stroke-opacity: 0.6; stroke-width: 0.339411"/>
    <path d="M 166.976096 108.075852 
L 164.854776 112.318492 
L 169.097417 112.318492 
z
" clip-path="url(#p2181da708f)" style="fill: #117733; fill-opacity: 0.6; stroke: #ffffff; stroke-opacity: 0.6; stroke-width: 0.339411"/>
    <path d="M 191.755687 89.593281 
L 189.634366 93.835922 
L 193.877007 93.835922 
z
" clip-path="url(#p2181da708f)" style="fill: #117733; fill-opacity: 0.6; stroke: #ffffff; stroke-opacity: 0.6; stroke-width: 0.339411"/>
    <path d="M 191.986081 91.560429 
L 189.86476 95.80307 
L 194.107401 95.80307 
z
" clip-path="url(#p2181da708f)" style="fill: #117733; fill-opacity: 0.6; stroke: #ffffff; stroke-opacity: 0.6; stroke-width: 0.339411"/>
    <path d="M 189.600077 121.99997 
L 187.478756 126.24261 
L 191.721397 126.24261 
z
" clip-path="url(#p2181da708f)" style="fill: #117733; fill-opacity: 0.6; stroke: #ffffff; stroke-opacity: 0.6; stroke-width: 0.339411"/>
    <path d="M 207.956611 118.366515 
L 205.835291 122.609155 
L 210.077931 122.609155 
z
" clip-path="url(#p2181da708f)" style="fill: #117733; fill-opacity: 0.6; stroke: #ffffff; stroke-opacity: 0.6; stroke-width: 0.339411"/>
    <path d="M 181.550678 102.572588 
L 179.429357 106.815228 
L 183.671998 106.815228 
z
" clip-path="url(#p2181da708f)" style="fill: #117733; fill-opacity: 0.6; stroke: #ffffff; stroke-opacity: 0.6; stroke-width: 0.339411"/>
    <path d="M 188.336685 118.369852 
L 186.215364 122.612493 
L 190.458005 122.612493 
z
" clip-path="url(#p2181da708f)" style="fill: #117733; fill-opacity: 0.6; stroke: #ffffff; stroke-opacity: 0.6; stroke-width: 0.339411"/>
    <path d="M 194.778317 109.203047 
L 192.656997 113.445688 
L 196.899637 113.445688 
z
" clip-path="url(#p2181da708f)" style="fill: #117733; fill-opacity: 0.6; stroke: #ffffff; stroke-opacity: 0.6; stroke-width: 0.339411"/>
    <path d="M 191.188683 92.406322 
L 189.067363 96.648962 
L 193.310003 96.648962 
z
" clip-path="url(#p2181da708f)" style="fill: #117733; fill-opacity: 0.6; stroke: #ffffff; stroke-opacity: 0.6; stroke-width: 0.339411"/>
    <path d="M 170.329875 107.226544 
L 168.208554 111.469184 
L 172.451195 111.469184 
z
" clip-path="url(#p2181da708f)" style="fill: #117733; fill-opacity: 0.6; stroke: #ffffff; stroke-opacity: 0.6; stroke-width: 0.339411"/>
    <path d="M 192.381687 89.935695 
L 190.260367 94.178336 
L 194.503008 94.178336 
z
" clip-path="url(#p2181da708f)" style="fill: #117733; fill-opacity: 0.6; stroke: #ffffff; stroke-opacity: 0.6; stroke-width: 0.339411"/>
    <path d="M 182.237934 100.703264 
L 180.116613 104.945904 
L 184.359254 104.945904 
z
" clip-path="url(#p2181da708f)" style="fill: #117733; fill-opacity: 0.6; stroke: #ffffff; stroke-opacity: 0.6; stroke-width: 0.339411"/>
    <path d="M 187.880787 120.784575 
L 185.759467 125.027216 
L 190.002107 125.027216 
z
" clip-path="url(#p2181da708f)" style="fill: #117733; fill-opacity: 0.6; stroke: #ffffff; stroke-opacity: 0.6; stroke-width: 0.339411"/>
    <path d="M 191.503114 120.959795 
L 189.381793 125.202435 
L 193.624434 125.202435 
z
" clip-path="url(#p2181da708f)" style="fill: #117733; fill-opacity: 0.6; stroke: #ffffff; stroke-opacity: 0.6; stroke-width: 0.339411"/>
    <path d="M 190.794991 119.390269 
L 188.673671 123.632909 
L 192.916311 123.632909 
z
" clip-path="url(#p2181da708f)" style="fill: #117733; fill-opacity: 0.6; stroke: #ffffff; stroke-opacity: 0.6; stroke-width: 0.339411"/>
    <path d="M 189.73179 120.846184 
L 187.610469 125.088825 
L 191.85311 125.088825 
z
" clip-path="url(#p2181da708f)" style="fill: #117733; fill-opacity: 0.6; stroke: #ffffff; stroke-opacity: 0.6; stroke-width: 0.339411"/>
    <path d="M 168.204983 105.203069 
L 166.083663 109.445709 
L 170.326304 109.445709 
z
" clip-path="url(#p2181da708f)" style="fill: #117733; fill-opacity: 0.6; stroke: #ffffff; stroke-opacity: 0.6; stroke-width: 0.339411"/>
    <path d="M 166.554709 102.748003 
L 164.433389 106.990643 
L 168.676029 106.990643 
z
" clip-path="url(#p2181da708f)" style="fill: #117733; fill-opacity: 0.6; stroke: #ffffff; stroke-opacity: 0.6; stroke-width: 0.339411"/>
    <path d="M 188.313936 120.400142 
L 186.192615 124.642782 
L 190.435256 124.642782 
z
" clip-path="url(#p2181da708f)" style="fill: #117733; fill-opacity: 0.6; stroke: #ffffff; stroke-opacity: 0.6; stroke-width: 0.339411"/>
    <path d="M 168.823789 103.709767 
L 166.702469 107.952407 
L 170.945109 107.952407 
z
" clip-path="url(#p2181da708f)" style="fill: #117733; fill-opacity: 0.6; stroke: #ffffff; stroke-opacity: 0.6; stroke-width: 0.339411"/>
    <path d="M 190.257329 116.251277 
L 188.136009 120.493918 
L 192.378649 120.493918 
z
" clip-path="url(#p2181da708f)" style="fill: #117733; fill-opacity: 0.6; stroke: #ffffff; stroke-opacity: 0.6; stroke-width: 0.339411"/>
    <path d="M 193.814186 92.555637 
L 191.692866 96.798278 
L 195.935507 96.798278 
z
" clip-path="url(#p2181da708f)" style="fill: #117733; fill-opacity: 0.6; stroke: #ffffff; stroke-opacity: 0.6; stroke-width: 0.339411"/>
    <path d="M 187.411876 89.831902 
L 185.290556 94.074543 
L 189.533197 94.074543 
z
" clip-path="url(#p2181da708f)" style="fill: #117733; fill-opacity: 0.6; stroke: #ffffff; stroke-opacity: 0.6; stroke-width: 0.339411"/>
    <path d="M 169.652531 104.494881 
L 167.53121 108.737522 
L 171.773851 108.737522 
z
" clip-path="url(#p2181da708f)" style="fill: #117733; fill-opacity: 0.6; stroke: #ffffff; stroke-opacity: 0.6; stroke-width: 0.339411"/>
    <path d="M 190.218999 114.857245 
L 188.097678 119.099886 
L 192.340319 119.099886 
z
" clip-path="url(#p2181da708f)" style="fill: #117733; fill-opacity: 0.6; stroke: #ffffff; stroke-opacity: 0.6; stroke-width: 0.339411"/>
    <path d="M 193.630574 110.271836 
L 191.509253 114.514477 
L 195.751894 114.514477 
z
" clip-path="url(#p2181da708f)" style="fill: #117733; fill-opacity: 0.6; stroke: #ffffff; stroke-opacity: 0.6; stroke-width: 0.339411"/>
    <path d="M 187.990952 88.591022 
L 185.869631 92.833663 
L 190.112272 92.833663 
z
" clip-path="url(#p2181da708f)" style="fill: #117733; fill-opacity: 0.6; stroke: #ffffff; stroke-opacity: 0.6; stroke-width: 0.339411"/>
    <path d="M 187.410013 93.225557 
L 185.288692 97.468198 
L 189.531333 97.468198 
z
" clip-path="url(#p2181da708f)" style="fill: #117733; fill-opacity: 0.6; stroke: #ffffff; stroke-opacity: 0.6; stroke-width: 0.339411"/>
    <path d="M 190.168193 94.895564 
L 188.046873 99.138205 
L 192.289513 99.138205 
z
" clip-path="url(#p2181da708f)" style="fill: #117733; fill-opacity: 0.6; stroke: #ffffff; stroke-opacity: 0.6; stroke-width: 0.339411"/>
    <path d="M 165.595636 106.472275 
L 163.474316 110.714915 
L 167.716957 110.714915 
z
" clip-path="url(#p2181da708f)" style="fill: #117733; fill-opacity: 0.6; stroke: #ffffff; stroke-opacity: 0.6; stroke-width: 0.339411"/>
    <path d="M 168.444566 107.090197 
L 166.323246 111.332838 
L 170.565886 111.332838 
z
" clip-path="url(#p2181da708f)" style="fill: #117733; fill-opacity: 0.6; stroke: #ffffff; stroke-opacity: 0.6; stroke-width: 0.339411"/>
    <path d="M 188.142451 91.972171 
L 186.021131 96.214812 
L 190.263771 96.214812 
z
" clip-path="url(#p2181da708f)" style="fill: #117733; fill-opacity: 0.6; stroke: #ffffff; stroke-opacity: 0.6; stroke-width: 0.339411"/>
    <path d="M 194.859104 110.309596 
L 192.737783 114.552237 
L 196.980424 114.552237 
z
" clip-path="url(#p2181da708f)" style="fill: #117733; fill-opacity: 0.6; stroke: #ffffff; stroke-opacity: 0.6; stroke-width: 0.339411"/>
    <path d="M 187.971838 119.909269 
L 185.850517 124.15191 
L 190.093158 124.15191 
z
" clip-path="url(#p2181da708f)" style="fill: #117733; fill-opacity: 0.6; stroke: #ffffff; stroke-opacity: 0.6; stroke-width: 0.339411"/>
    <path d="M 169.61949 107.574904 
L 167.49817 111.817545 
L 171.74081 111.817545 
z
" clip-path="url(#p2181da708f)" style="fill: #117733; fill-opacity: 0.6; stroke: #ffffff; stroke-opacity: 0.6; stroke-width: 0.339411"/>
    <path d="M 187.424825 99.47278 
L 185.303504 103.71542 
L 189.546145 103.71542 
z
" clip-path="url(#p2181da708f)" style="fill: #117733; fill-opacity: 0.6; stroke: #ffffff; stroke-opacity: 0.6; stroke-width: 0.339411"/>
    <path d="M 193.592118 109.830907 
L 191.470798 114.073548 
L 195.713439 114.073548 
z
" clip-path="url(#p2181da708f)" style="fill: #117733; fill-opacity: 0.6; stroke: #ffffff; stroke-opacity: 0.6; stroke-width: 0.339411"/>
    <path d="M 166.701299 107.740124 
L 164.579978 111.982765 
L 168.822619 111.982765 
z
" clip-path="url(#p2181da708f)" style="fill: #117733; fill-opacity: 0.6; stroke: #ffffff; stroke-opacity: 0.6; stroke-width: 0.339411"/>
    <path d="M 189.045971 94.999269 
L 186.92465 99.241909 
L 191.167291 99.241909 
z
" clip-path="url(#p2181da708f)" style="fill: #117733; fill-opacity: 0.6; stroke: #ffffff; stroke-opacity: 0.6; stroke-width: 0.339411"/>
    <path d="M 190.509776 94.569432 
L 188.388456 98.812073 
L 192.631097 98.812073 
z
" clip-path="url(#p2181da708f)" style="fill: #117733; fill-opacity: 0.6; stroke: #ffffff; stroke-opacity: 0.6; stroke-width: 0.339411"/>
    <path d="M 184.954993 103.25558 
L 182.833673 107.49822 
L 187.076313 107.49822 
z
" clip-path="url(#p2181da708f)" style="fill: #117733; fill-opacity: 0.6; stroke: #ffffff; stroke-opacity: 0.6; stroke-width: 0.339411"/>
    <path d="M 188.266014 98.117189 
L 186.144693 102.35983 
L 190.387334 102.35983 
z
" clip-path="url(#p2181da708f)" style="fill: #117733; fill-opacity: 0.6; stroke: #ffffff; stroke-opacity: 0.6; stroke-width: 0.339411"/>
    <path d="M 191.614947 93.032466 
L 189.493627 97.275107 
L 193.736268 97.275107 
z
" clip-path="url(#p2181da708f)" style="fill: #117733; fill-opacity: 0.6; stroke: #ffffff; stroke-opacity: 0.6; stroke-width: 0.339411"/>
    <path d="M 151.371588 78.775119 
L 155.614228 78.775119 
L 155.614228 74.532479 
L 151.371588 74.532479 
z
" clip-path="url(#p2181da708f)" style="fill: #44aa99; fill-opacity: 0.6; stroke: #ffffff; stroke-opacity: 0.6; stroke-width: 0.339411"/>
    <path d="M 181.769553 111.117534 
L 186.012194 111.117534 
L 186.012194 106.874893 
L 181.769553 106.874893 
z
" clip-path="url(#p2181da708f)" style="fill: #44aa99; fill-opacity: 0.6; stroke: #ffffff; stroke-opacity: 0.6; stroke-width: 0.339411"/>
    <path d="M 172.794822 154.474366 
L 177.037462 154.474366 
L 177.037462 150.231726 
L 172.794822 150.231726 
z
" clip-path="url(#p2181da708f)" style="fill: #44aa99; fill-opacity: 0.6; stroke: #ffffff; stroke-opacity: 0.6; stroke-width: 0.339411"/>
    <path d="M 168.903465 151.600943 
L 173.146105 151.600943 
L 173.146105 147.358302 
L 168.903465 147.358302 
z
" clip-path="url(#p2181da708f)" style="fill: #44aa99; fill-opacity: 0.6; stroke: #ffffff; stroke-opacity: 0.6; stroke-width: 0.339411"/>
    <path d="M 174.504779 148.926275 
L 178.74742 148.926275 
L 178.74742 144.683634 
L 174.504779 144.683634 
z
" clip-path="url(#p2181da708f)" style="fill: #44aa99; fill-opacity: 0.6; stroke: #ffffff; stroke-opacity: 0.6; stroke-width: 0.339411"/>
    <path d="M 149.56013 80.049879 
L 153.802771 80.049879 
L 153.802771 75.807239 
L 149.56013 75.807239 
z
" clip-path="url(#p2181da708f)" style="fill: #44aa99; fill-opacity: 0.6; stroke: #ffffff; stroke-opacity: 0.6; stroke-width: 0.339411"/>
    <path d="M 172.421153 153.381147 
L 176.663793 153.381147 
L 176.663793 149.138506 
L 172.421153 149.138506 
z
" clip-path="url(#p2181da708f)" style="fill: #44aa99; fill-opacity: 0.6; stroke: #ffffff; stroke-opacity: 0.6; stroke-width: 0.339411"/>
    <path d="M 168.138296 150.414412 
L 172.380937 150.414412 
L 172.380937 146.171772 
L 168.138296 146.171772 
z
" clip-path="url(#p2181da708f)" style="fill: #44aa99; fill-opacity: 0.6; stroke: #ffffff; stroke-opacity: 0.6; stroke-width: 0.339411"/>
    <path d="M 152.585433 76.365704 
L 156.828074 76.365704 
L 156.828074 72.123063 
L 152.585433 72.123063 
z
" clip-path="url(#p2181da708f)" style="fill: #44aa99; fill-opacity: 0.6; stroke: #ffffff; stroke-opacity: 0.6; stroke-width: 0.339411"/>
    <path d="M 150.365483 79.886405 
L 154.608124 79.886405 
L 154.608124 75.643765 
L 150.365483 75.643765 
z
" clip-path="url(#p2181da708f)" style="fill: #44aa99; fill-opacity: 0.6; stroke: #ffffff; stroke-opacity: 0.6; stroke-width: 0.339411"/>
    <path d="M 174.237701 149.235747 
L 178.480341 149.235747 
L 178.480341 144.993107 
L 174.237701 144.993107 
z
" clip-path="url(#p2181da708f)" style="fill: #44aa99; fill-opacity: 0.6; stroke: #ffffff; stroke-opacity: 0.6; stroke-width: 0.339411"/>
    <path d="M 149.337404 74.806128 
L 153.580044 74.806128 
L 153.580044 70.563487 
L 149.337404 70.563487 
z
" clip-path="url(#p2181da708f)" style="fill: #44aa99; fill-opacity: 0.6; stroke: #ffffff; stroke-opacity: 0.6; stroke-width: 0.339411"/>
    <path d="M 182.211816 110.242806 
L 186.454457 110.242806 
L 186.454457 106.000165 
L 182.211816 106.000165 
z
" clip-path="url(#p2181da708f)" style="fill: #44aa99; fill-opacity: 0.6; stroke: #ffffff; stroke-opacity: 0.6; stroke-width: 0.339411"/>
    <path d="M 151.664236 77.562644 
L 155.906877 77.562644 
L 155.906877 73.320003 
L 151.664236 73.320003 
z
" clip-path="url(#p2181da708f)" style="fill: #44aa99; fill-opacity: 0.6; stroke: #ffffff; stroke-opacity: 0.6; stroke-width: 0.339411"/>
    <path d="M 150.615383 74.843151 
L 154.858024 74.843151 
L 154.858024 70.60051 
L 150.615383 70.60051 
z
" clip-path="url(#p2181da708f)" style="fill: #44aa99; fill-opacity: 0.6; stroke: #ffffff; stroke-opacity: 0.6; stroke-width: 0.339411"/>
    <path d="M 150.882494 78.290623 
L 155.125135 78.290623 
L 155.125135 74.047982 
L 150.882494 74.047982 
z
" clip-path="url(#p2181da708f)" style="fill: #44aa99; fill-opacity: 0.6; stroke: #ffffff; stroke-opacity: 0.6; stroke-width: 0.339411"/>
    <path d="M 170.053702 153.809092 
L 174.296343 153.809092 
L 174.296343 149.566451 
L 170.053702 149.566451 
z
" clip-path="url(#p2181da708f)" style="fill: #44aa99; fill-opacity: 0.6; stroke: #ffffff; stroke-opacity: 0.6; stroke-width: 0.339411"/>
    <path d="M 211.823223 121.35631 
L 216.065864 121.35631 
L 216.065864 117.113669 
L 211.823223 117.113669 
z
" clip-path="url(#p2181da708f)" style="fill: #44aa99; fill-opacity: 0.6; stroke: #ffffff; stroke-opacity: 0.6; stroke-width: 0.339411"/>
    <path d="M 151.255009 74.911379 
L 155.49765 74.911379 
L 155.49765 70.668738 
L 151.255009 70.668738 
z
" clip-path="url(#p2181da708f)" style="fill: #44aa99; fill-opacity: 0.6; stroke: #ffffff; stroke-opacity: 0.6; stroke-width: 0.339411"/>
    <path d="M 210.784319 122.355162 
L 215.026959 122.355162 
L 215.026959 118.112521 
L 210.784319 118.112521 
z
" clip-path="url(#p2181da708f)" style="fill: #44aa99; fill-opacity: 0.6; stroke: #ffffff; stroke-opacity: 0.6; stroke-width: 0.339411"/>
    <path d="M 184.629322 114.802632 
L 188.871962 114.802632 
L 188.871962 110.559991 
L 184.629322 110.559991 
z
" clip-path="url(#p2181da708f)" style="fill: #44aa99; fill-opacity: 0.6; stroke: #ffffff; stroke-opacity: 0.6; stroke-width: 0.339411"/>
    <path d="M 174.850466 151.766338 
L 179.093107 151.766338 
L 179.093107 147.523697 
L 174.850466 147.523697 
z
" clip-path="url(#p2181da708f)" style="fill: #44aa99; fill-opacity: 0.6; stroke: #ffffff; stroke-opacity: 0.6; stroke-width: 0.339411"/>
    <path d="M 173.387509 151.898969 
L 177.630149 151.898969 
L 177.630149 147.656328 
L 173.387509 147.656328 
z
" clip-path="url(#p2181da708f)" style="fill: #44aa99; fill-opacity: 0.6; stroke: #ffffff; stroke-opacity: 0.6; stroke-width: 0.339411"/>
    <path d="M 183.49754 112.763972 
L 187.740181 112.763972 
L 187.740181 108.521331 
L 183.49754 108.521331 
z
" clip-path="url(#p2181da708f)" style="fill: #44aa99; fill-opacity: 0.6; stroke: #ffffff; stroke-opacity: 0.6; stroke-width: 0.339411"/>
    <path d="M 184.909293 111.209638 
L 189.151934 111.209638 
L 189.151934 106.966997 
L 184.909293 106.966997 
z
" clip-path="url(#p2181da708f)" style="fill: #44aa99; fill-opacity: 0.6; stroke: #ffffff; stroke-opacity: 0.6; stroke-width: 0.339411"/>
    <path d="M 207.489955 121.311812 
L 211.732596 121.311812 
L 211.732596 117.069172 
L 207.489955 117.069172 
z
" clip-path="url(#p2181da708f)" style="fill: #44aa99; fill-opacity: 0.6; stroke: #ffffff; stroke-opacity: 0.6; stroke-width: 0.339411"/>
    <path d="M 147.664411 77.240439 
L 151.907052 77.240439 
L 151.907052 72.997798 
L 147.664411 72.997798 
z
" clip-path="url(#p2181da708f)" style="fill: #44aa99; fill-opacity: 0.6; stroke: #ffffff; stroke-opacity: 0.6; stroke-width: 0.339411"/>
    <path d="M 147.892072 76.102635 
L 152.134713 76.102635 
L 152.134713 71.859995 
L 147.892072 71.859995 
z
" clip-path="url(#p2181da708f)" style="fill: #44aa99; fill-opacity: 0.6; stroke: #ffffff; stroke-opacity: 0.6; stroke-width: 0.339411"/>
    <path d="M 174.229986 148.524808 
L 178.472627 148.524808 
L 178.472627 144.282168 
L 174.229986 144.282168 
z
" clip-path="url(#p2181da708f)" style="fill: #44aa99; fill-opacity: 0.6; stroke: #ffffff; stroke-opacity: 0.6; stroke-width: 0.339411"/>
    <path d="M 170.801457 153.012763 
L 175.044098 153.012763 
L 175.044098 148.770122 
L 170.801457 148.770122 
z
" clip-path="url(#p2181da708f)" style="fill: #44aa99; fill-opacity: 0.6; stroke: #ffffff; stroke-opacity: 0.6; stroke-width: 0.339411"/>
    <path d="M 170.406815 153.729321 
L 174.649456 153.729321 
L 174.649456 149.48668 
L 170.406815 149.48668 
z
" clip-path="url(#p2181da708f)" style="fill: #44aa99; fill-opacity: 0.6; stroke: #ffffff; stroke-opacity: 0.6; stroke-width: 0.339411"/>
    <path d="M 211.157042 122.262132 
L 215.399683 122.262132 
L 215.399683 118.019491 
L 211.157042 118.019491 
z
" clip-path="url(#p2181da708f)" style="fill: #44aa99; fill-opacity: 0.6; stroke: #ffffff; stroke-opacity: 0.6; stroke-width: 0.339411"/>
    <path d="M 210.712331 120.04284 
L 214.954972 120.04284 
L 214.954972 115.8002 
L 210.712331 115.8002 
z
" clip-path="url(#p2181da708f)" style="fill: #44aa99; fill-opacity: 0.6; stroke: #ffffff; stroke-opacity: 0.6; stroke-width: 0.339411"/>
    <path d="M 185.025257 96.056806 
L 189.267898 96.056806 
L 189.267898 91.814166 
L 185.025257 91.814166 
z
" clip-path="url(#p2181da708f)" style="fill: #44aa99; fill-opacity: 0.6; stroke: #ffffff; stroke-opacity: 0.6; stroke-width: 0.339411"/>
    <path d="M 173.25663 151.339031 
L 177.499271 151.339031 
L 177.499271 147.09639 
L 173.25663 147.09639 
z
" clip-path="url(#p2181da708f)" style="fill: #44aa99; fill-opacity: 0.6; stroke: #ffffff; stroke-opacity: 0.6; stroke-width: 0.339411"/>
    <path d="M 211.98233 119.877621 
L 216.22497 119.877621 
L 216.22497 115.63498 
L 211.98233 115.63498 
z
" clip-path="url(#p2181da708f)" style="fill: #44aa99; fill-opacity: 0.6; stroke: #ffffff; stroke-opacity: 0.6; stroke-width: 0.339411"/>
    <path d="M 173.244804 152.890528 
L 177.487445 152.890528 
L 177.487445 148.647888 
L 173.244804 148.647888 
z
" clip-path="url(#p2181da708f)" style="fill: #44aa99; fill-opacity: 0.6; stroke: #ffffff; stroke-opacity: 0.6; stroke-width: 0.339411"/>
    <path d="M 188.182609 96.536542 
L 192.42525 96.536542 
L 192.42525 92.293901 
L 188.182609 92.293901 
z
" clip-path="url(#p2181da708f)" style="fill: #44aa99; fill-opacity: 0.6; stroke: #ffffff; stroke-opacity: 0.6; stroke-width: 0.339411"/>
    <path d="M 209.576887 123.090613 
L 213.819528 123.090613 
L 213.819528 118.847972 
L 209.576887 118.847972 
z
" clip-path="url(#p2181da708f)" style="fill: #44aa99; fill-opacity: 0.6; stroke: #ffffff; stroke-opacity: 0.6; stroke-width: 0.339411"/>
    <path d="M 183.914899 116.407349 
L 188.157539 116.407349 
L 188.157539 112.164708 
L 183.914899 112.164708 
z
" clip-path="url(#p2181da708f)" style="fill: #44aa99; fill-opacity: 0.6; stroke: #ffffff; stroke-opacity: 0.6; stroke-width: 0.339411"/>
    <path d="M 150.253874 76.885184 
L 154.496515 76.885184 
L 154.496515 72.642543 
L 150.253874 72.642543 
z
" clip-path="url(#p2181da708f)" style="fill: #44aa99; fill-opacity: 0.6; stroke: #ffffff; stroke-opacity: 0.6; stroke-width: 0.339411"/>
    <path d="M 171.743029 155.207739 
L 175.98567 155.207739 
L 175.98567 150.965098 
L 171.743029 150.965098 
z
" clip-path="url(#p2181da708f)" style="fill: #44aa99; fill-opacity: 0.6; stroke: #ffffff; stroke-opacity: 0.6; stroke-width: 0.339411"/>
    <path d="M 208.688763 123.433222 
L 212.931404 123.433222 
L 212.931404 119.190581 
L 208.688763 119.190581 
z
" clip-path="url(#p2181da708f)" style="fill: #44aa99; fill-opacity: 0.6; stroke: #ffffff; stroke-opacity: 0.6; stroke-width: 0.339411"/>
    <path d="M 194.463985 109.965162 
L 198.706626 109.965162 
L 198.706626 105.722521 
L 194.463985 105.722521 
z
" clip-path="url(#p2181da708f)" style="fill: #44aa99; fill-opacity: 0.6; stroke: #ffffff; stroke-opacity: 0.6; stroke-width: 0.339411"/>
    <path d="M 205.577827 111.737435 
L 209.820467 111.737435 
L 209.820467 107.494794 
L 205.577827 107.494794 
z
" clip-path="url(#p2181da708f)" style="fill: #44aa99; fill-opacity: 0.6; stroke: #ffffff; stroke-opacity: 0.6; stroke-width: 0.339411"/>
    <path d="M 172.598182 154.081912 
L 176.840823 154.081912 
L 176.840823 149.839272 
L 172.598182 149.839272 
z
" clip-path="url(#p2181da708f)" style="fill: #44aa99; fill-opacity: 0.6; stroke: #ffffff; stroke-opacity: 0.6; stroke-width: 0.339411"/>
    <path d="M 148.632675 77.797707 
L 152.875315 77.797707 
L 152.875315 73.555066 
L 148.632675 73.555066 
z
" clip-path="url(#p2181da708f)" style="fill: #44aa99; fill-opacity: 0.6; stroke: #ffffff; stroke-opacity: 0.6; stroke-width: 0.339411"/>
    <path d="M 149.946495 76.191743 
L 154.189135 76.191743 
L 154.189135 71.949103 
L 149.946495 71.949103 
z
" clip-path="url(#p2181da708f)" style="fill: #44aa99; fill-opacity: 0.6; stroke: #ffffff; stroke-opacity: 0.6; stroke-width: 0.339411"/>
    <path d="M 149.024243 80.242792 
L 153.266884 80.242792 
L 153.266884 76.000151 
L 149.024243 76.000151 
z
" clip-path="url(#p2181da708f)" style="fill: #44aa99; fill-opacity: 0.6; stroke: #ffffff; stroke-opacity: 0.6; stroke-width: 0.339411"/>
    <path d="M 152.720502 80.778358 
L 156.963143 80.778358 
L 156.963143 76.535718 
L 152.720502 76.535718 
z
" clip-path="url(#p2181da708f)" style="fill: #44aa99; fill-opacity: 0.6; stroke: #ffffff; stroke-opacity: 0.6; stroke-width: 0.339411"/>
    <path d="M 150.103794 76.95464 
L 154.346434 76.95464 
L 154.346434 72.711999 
L 150.103794 72.711999 
z
" clip-path="url(#p2181da708f)" style="fill: #44aa99; fill-opacity: 0.6; stroke: #ffffff; stroke-opacity: 0.6; stroke-width: 0.339411"/>
    <path d="M 185.036263 105.483221 
L 189.278904 105.483221 
L 189.278904 101.24058 
L 185.036263 101.24058 
z
" clip-path="url(#p2181da708f)" style="fill: #44aa99; fill-opacity: 0.6; stroke: #ffffff; stroke-opacity: 0.6; stroke-width: 0.339411"/>
    <path d="M 148.739838 78.063293 
L 152.982478 78.063293 
L 152.982478 73.820652 
L 148.739838 73.820652 
z
" clip-path="url(#p2181da708f)" style="fill: #44aa99; fill-opacity: 0.6; stroke: #ffffff; stroke-opacity: 0.6; stroke-width: 0.339411"/>
    <path d="M 170.02055 151.790552 
L 174.263191 151.790552 
L 174.263191 147.547911 
L 170.02055 147.547911 
z
" clip-path="url(#p2181da708f)" style="fill: #44aa99; fill-opacity: 0.6; stroke: #ffffff; stroke-opacity: 0.6; stroke-width: 0.339411"/>
    <path d="M 171.451774 150.579692 
L 175.694415 150.579692 
L 175.694415 146.337051 
L 171.451774 146.337051 
z
" clip-path="url(#p2181da708f)" style="fill: #44aa99; fill-opacity: 0.6; stroke: #ffffff; stroke-opacity: 0.6; stroke-width: 0.339411"/>
    <path d="M 184.75886 114.280938 
L 189.001501 114.280938 
L 189.001501 110.038297 
L 184.75886 110.038297 
z
" clip-path="url(#p2181da708f)" style="fill: #44aa99; fill-opacity: 0.6; stroke: #ffffff; stroke-opacity: 0.6; stroke-width: 0.339411"/>
    <path d="M 170.785732 150.930541 
L 175.028373 150.930541 
L 175.028373 146.6879 
L 170.785732 146.6879 
z
" clip-path="url(#p2181da708f)" style="fill: #44aa99; fill-opacity: 0.6; stroke: #ffffff; stroke-opacity: 0.6; stroke-width: 0.339411"/>
    <path d="M 170.998176 149.998806 
L 175.240817 149.998806 
L 175.240817 145.756166 
L 170.998176 145.756166 
z
" clip-path="url(#p2181da708f)" style="fill: #44aa99; fill-opacity: 0.6; stroke: #ffffff; stroke-opacity: 0.6; stroke-width: 0.339411"/>
    <path d="M 168.857216 153.306811 
L 173.099857 153.306811 
L 173.099857 149.064171 
L 168.857216 149.064171 
z
" clip-path="url(#p2181da708f)" style="fill: #44aa99; fill-opacity: 0.6; stroke: #ffffff; stroke-opacity: 0.6; stroke-width: 0.339411"/>
    <path d="M 149.329777 76.35869 
L 153.572418 76.35869 
L 153.572418 72.116049 
L 149.329777 72.116049 
z
" clip-path="url(#p2181da708f)" style="fill: #44aa99; fill-opacity: 0.6; stroke: #ffffff; stroke-opacity: 0.6; stroke-width: 0.339411"/>
    <path d="M 208.246547 110.909723 
L 212.489187 110.909723 
L 212.489187 106.667082 
L 208.246547 106.667082 
z
" clip-path="url(#p2181da708f)" style="fill: #44aa99; fill-opacity: 0.6; stroke: #ffffff; stroke-opacity: 0.6; stroke-width: 0.339411"/>
    <path d="M 205.64528 123.110227 
L 209.887921 123.110227 
L 209.887921 118.867586 
L 205.64528 118.867586 
z
" clip-path="url(#p2181da708f)" style="fill: #44aa99; fill-opacity: 0.6; stroke: #ffffff; stroke-opacity: 0.6; stroke-width: 0.339411"/>
    <path d="M 186.193594 108.449822 
L 190.436234 108.449822 
L 190.436234 104.207182 
L 186.193594 104.207182 
z
" clip-path="url(#p2181da708f)" style="fill: #44aa99; fill-opacity: 0.6; stroke: #ffffff; stroke-opacity: 0.6; stroke-width: 0.339411"/>
    <path d="M 170.581688 146.334016 
L 171.642348 145.273356 
L 172.703008 146.334016 
L 173.763669 145.273356 
L 172.703008 144.212696 
L 173.763669 143.152036 
L 172.703008 142.091376 
L 171.642348 143.152036 
L 170.581688 142.091376 
L 169.521028 143.152036 
L 170.581688 144.212696 
L 169.521028 145.273356 
z
" clip-path="url(#p2181da708f)" style="fill: #88ccee; fill-opacity: 0.6; stroke: #ffffff; stroke-opacity: 0.6; stroke-width: 0.339411"/>
    <path d="M 204.362768 111.561934 
L 205.423429 110.501274 
L 206.484089 111.561934 
L 207.544749 110.501274 
L 206.484089 109.440614 
L 207.544749 108.379954 
L 206.484089 107.319293 
L 205.423429 108.379954 
L 204.362768 107.319293 
L 203.302108 108.379954 
L 204.362768 109.440614 
L 203.302108 110.501274 
z
" clip-path="url(#p2181da708f)" style="fill: #88ccee; fill-opacity: 0.6; stroke: #ffffff; stroke-opacity: 0.6; stroke-width: 0.339411"/>
    <path d="M 170.028713 147.847054 
L 171.089373 146.786394 
L 172.150034 147.847054 
L 173.210694 146.786394 
L 172.150034 145.725733 
L 173.210694 144.665073 
L 172.150034 143.604413 
L 171.089373 144.665073 
L 170.028713 143.604413 
L 168.968053 144.665073 
L 170.028713 145.725733 
L 168.968053 146.786394 
z
" clip-path="url(#p2181da708f)" style="fill: #88ccee; fill-opacity: 0.6; stroke: #ffffff; stroke-opacity: 0.6; stroke-width: 0.339411"/>
    <path d="M 204.293813 112.520076 
L 205.354473 111.459416 
L 206.415133 112.520076 
L 207.475793 111.459416 
L 206.415133 110.398756 
L 207.475793 109.338096 
L 206.415133 108.277435 
L 205.354473 109.338096 
L 204.293813 108.277435 
L 203.233153 109.338096 
L 204.293813 110.398756 
L 203.233153 111.459416 
z
" clip-path="url(#p2181da708f)" style="fill: #88ccee; fill-opacity: 0.6; stroke: #ffffff; stroke-opacity: 0.6; stroke-width: 0.339411"/>
    <path d="M 189.183697 106.591034 
L 190.244357 105.530373 
L 191.305018 106.591034 
L 192.365678 105.530373 
L 191.305018 104.469713 
L 192.365678 103.409053 
L 191.305018 102.348393 
L 190.244357 103.409053 
L 189.183697 102.348393 
L 188.123037 103.409053 
L 189.183697 104.469713 
L 188.123037 105.530373 
z
" clip-path="url(#p2181da708f)" style="fill: #88ccee; fill-opacity: 0.6; stroke: #ffffff; stroke-opacity: 0.6; stroke-width: 0.339411"/>
    <path d="M 210.987156 110.488825 
L 212.047816 109.428165 
L 213.108476 110.488825 
L 214.169136 109.428165 
L 213.108476 108.367505 
L 214.169136 107.306845 
L 213.108476 106.246185 
L 212.047816 107.306845 
L 210.987156 106.246185 
L 209.926496 107.306845 
L 210.987156 108.367505 
L 209.926496 109.428165 
z
" clip-path="url(#p2181da708f)" style="fill: #88ccee; fill-opacity: 0.6; stroke: #ffffff; stroke-opacity: 0.6; stroke-width: 0.339411"/>
    <path d="M 209.947139 109.621288 
L 211.007799 108.560628 
L 212.068459 109.621288 
L 213.129119 108.560628 
L 212.068459 107.499967 
L 213.129119 106.439307 
L 212.068459 105.378647 
L 211.007799 106.439307 
L 209.947139 105.378647 
L 208.886479 106.439307 
L 209.947139 107.499967 
L 208.886479 108.560628 
z
" clip-path="url(#p2181da708f)" style="fill: #88ccee; fill-opacity: 0.6; stroke: #ffffff; stroke-opacity: 0.6; stroke-width: 0.339411"/>
    <path d="M 192.574165 118.87607 
L 193.634825 117.81541 
L 194.695485 118.87607 
L 195.756145 117.81541 
L 194.695485 116.75475 
L 195.756145 115.69409 
L 194.695485 114.63343 
L 193.634825 115.69409 
L 192.574165 114.63343 
L 191.513505 115.69409 
L 192.574165 116.75475 
L 191.513505 117.81541 
z
" clip-path="url(#p2181da708f)" style="fill: #88ccee; fill-opacity: 0.6; stroke: #ffffff; stroke-opacity: 0.6; stroke-width: 0.339411"/>
    <path d="M 208.132821 117.285111 
L 209.193481 116.224451 
L 210.254141 117.285111 
L 211.314801 116.224451 
L 210.254141 115.163791 
L 211.314801 114.10313 
L 210.254141 113.04247 
L 209.193481 114.10313 
L 208.132821 113.04247 
L 207.07216 114.10313 
L 208.132821 115.163791 
L 207.07216 116.224451 
z
" clip-path="url(#p2181da708f)" style="fill: #88ccee; fill-opacity: 0.6; stroke: #ffffff; stroke-opacity: 0.6; stroke-width: 0.339411"/>
    <path d="M 210.325407 118.222921 
L 211.386067 117.162261 
L 212.446727 118.222921 
L 213.507387 117.162261 
L 212.446727 116.101601 
L 213.507387 115.040941 
L 212.446727 113.980281 
L 211.386067 115.040941 
L 210.325407 113.980281 
L 209.264747 115.040941 
L 210.325407 116.101601 
L 209.264747 117.162261 
z
" clip-path="url(#p2181da708f)" style="fill: #88ccee; fill-opacity: 0.6; stroke: #ffffff; stroke-opacity: 0.6; stroke-width: 0.339411"/>
    <path d="M 181.015459 105.498382 
L 182.07612 104.437722 
L 183.13678 105.498382 
L 184.19744 104.437722 
L 183.13678 103.377062 
L 184.19744 102.316401 
L 183.13678 101.255741 
L 182.07612 102.316401 
L 181.015459 101.255741 
L 179.954799 102.316401 
L 181.015459 103.377062 
L 179.954799 104.437722 
z
" clip-path="url(#p2181da708f)" style="fill: #88ccee; fill-opacity: 0.6; stroke: #ffffff; stroke-opacity: 0.6; stroke-width: 0.339411"/>
    <path d="M 170.641094 145.899363 
L 171.701754 144.838703 
L 172.762414 145.899363 
L 173.823074 144.838703 
L 172.762414 143.778043 
L 173.823074 142.717383 
L 172.762414 141.656722 
L 171.701754 142.717383 
L 170.641094 141.656722 
L 169.580433 142.717383 
L 170.641094 143.778043 
L 169.580433 144.838703 
z
" clip-path="url(#p2181da708f)" style="fill: #88ccee; fill-opacity: 0.6; stroke: #ffffff; stroke-opacity: 0.6; stroke-width: 0.339411"/>
    <path d="M 203.49202 115.387544 
L 204.55268 114.326884 
L 205.613341 115.387544 
L 206.674001 114.326884 
L 205.613341 113.266224 
L 206.674001 112.205564 
L 205.613341 111.144904 
L 204.55268 112.205564 
L 203.49202 111.144904 
L 202.43136 112.205564 
L 203.49202 113.266224 
L 202.43136 114.326884 
z
" clip-path="url(#p2181da708f)" style="fill: #88ccee; fill-opacity: 0.6; stroke: #ffffff; stroke-opacity: 0.6; stroke-width: 0.339411"/>
    <path d="M 207.634898 108.664222 
L 208.695558 107.603562 
L 209.756218 108.664222 
L 210.816878 107.603562 
L 209.756218 106.542902 
L 210.816878 105.482242 
L 209.756218 104.421582 
L 208.695558 105.482242 
L 207.634898 104.421582 
L 206.574238 105.482242 
L 207.634898 106.542902 
L 206.574238 107.603562 
z
" clip-path="url(#p2181da708f)" style="fill: #88ccee; fill-opacity: 0.6; stroke: #ffffff; stroke-opacity: 0.6; stroke-width: 0.339411"/>
    <path d="M 195.53407 108.215608 
L 196.594731 107.154948 
L 197.655391 108.215608 
L 198.716051 107.154948 
L 197.655391 106.094288 
L 198.716051 105.033627 
L 197.655391 103.972967 
L 196.594731 105.033627 
L 195.53407 103.972967 
L 194.47341 105.033627 
L 195.53407 106.094288 
L 194.47341 107.154948 
z
" clip-path="url(#p2181da708f)" style="fill: #88ccee; fill-opacity: 0.6; stroke: #ffffff; stroke-opacity: 0.6; stroke-width: 0.339411"/>
    <path d="M 189.259176 123.429314 
L 190.319836 122.368654 
L 191.380496 123.429314 
L 192.441156 122.368654 
L 191.380496 121.307994 
L 192.441156 120.247334 
L 191.380496 119.186674 
L 190.319836 120.247334 
L 189.259176 119.186674 
L 188.198515 120.247334 
L 189.259176 121.307994 
L 188.198515 122.368654 
z
" clip-path="url(#p2181da708f)" style="fill: #88ccee; fill-opacity: 0.6; stroke: #ffffff; stroke-opacity: 0.6; stroke-width: 0.339411"/>
    <path d="M 169.102871 146.654024 
L 170.163531 145.593364 
L 171.224191 146.654024 
L 172.284852 145.593364 
L 171.224191 144.532704 
L 172.284852 143.472043 
L 171.224191 142.411383 
L 170.163531 143.472043 
L 169.102871 142.411383 
L 168.042211 143.472043 
L 169.102871 144.532704 
L 168.042211 145.593364 
z
" clip-path="url(#p2181da708f)" style="fill: #88ccee; fill-opacity: 0.6; stroke: #ffffff; stroke-opacity: 0.6; stroke-width: 0.339411"/>
    <path d="M 192.659763 108.300376 
L 193.720424 107.239716 
L 194.781084 108.300376 
L 195.841744 107.239716 
L 194.781084 106.179055 
L 195.841744 105.118395 
L 194.781084 104.057735 
L 193.720424 105.118395 
L 192.659763 104.057735 
L 191.599103 105.118395 
L 192.659763 106.179055 
L 191.599103 107.239716 
z
" clip-path="url(#p2181da708f)" style="fill: #88ccee; fill-opacity: 0.6; stroke: #ffffff; stroke-opacity: 0.6; stroke-width: 0.339411"/>
    <path d="M 177.37113 111.946949 
L 178.43179 110.886288 
L 179.492451 111.946949 
L 180.553111 110.886288 
L 179.492451 109.825628 
L 180.553111 108.764968 
L 179.492451 107.704308 
L 178.43179 108.764968 
L 177.37113 107.704308 
L 176.31047 108.764968 
L 177.37113 109.825628 
L 176.31047 110.886288 
z
" clip-path="url(#p2181da708f)" style="fill: #88ccee; fill-opacity: 0.6; stroke: #ffffff; stroke-opacity: 0.6; stroke-width: 0.339411"/>
    <path d="M 205.944156 114.368728 
L 207.004817 113.308068 
L 208.065477 114.368728 
L 209.126137 113.308068 
L 208.065477 112.247408 
L 209.126137 111.186748 
L 208.065477 110.126088 
L 207.004817 111.186748 
L 205.944156 110.126088 
L 204.883496 111.186748 
L 205.944156 112.247408 
L 204.883496 113.308068 
z
" clip-path="url(#p2181da708f)" style="fill: #88ccee; fill-opacity: 0.6; stroke: #ffffff; stroke-opacity: 0.6; stroke-width: 0.339411"/>
    <path d="M 203.153102 114.716019 
L 204.213763 113.655359 
L 205.274423 114.716019 
L 206.335083 113.655359 
L 205.274423 112.594699 
L 206.335083 111.534038 
L 205.274423 110.473378 
L 204.213763 111.534038 
L 203.153102 110.473378 
L 202.092442 111.534038 
L 203.153102 112.594699 
L 202.092442 113.655359 
z
" clip-path="url(#p2181da708f)" style="fill: #88ccee; fill-opacity: 0.6; stroke: #ffffff; stroke-opacity: 0.6; stroke-width: 0.339411"/>
    <path d="M 207.328107 112.660239 
L 208.388768 111.599579 
L 209.449428 112.660239 
L 210.510088 111.599579 
L 209.449428 110.538919 
L 210.510088 109.478259 
L 209.449428 108.417599 
L 208.388768 109.478259 
L 207.328107 108.417599 
L 206.267447 109.478259 
L 207.328107 110.538919 
L 206.267447 111.599579 
z
" clip-path="url(#p2181da708f)" style="fill: #88ccee; fill-opacity: 0.6; stroke: #ffffff; stroke-opacity: 0.6; stroke-width: 0.339411"/>
    <path d="M 212.582646 107.929643 
L 213.643307 106.868983 
L 214.703967 107.929643 
L 215.764627 106.868983 
L 214.703967 105.808323 
L 215.764627 104.747663 
L 214.703967 103.687003 
L 213.643307 104.747663 
L 212.582646 103.687003 
L 211.521986 104.747663 
L 212.582646 105.808323 
L 211.521986 106.868983 
z
" clip-path="url(#p2181da708f)" style="fill: #88ccee; fill-opacity: 0.6; stroke: #ffffff; stroke-opacity: 0.6; stroke-width: 0.339411"/>
    <path d="M 203.764087 112.249367 
L 204.824747 111.188707 
L 205.885408 112.249367 
L 206.946068 111.188707 
L 205.885408 110.128047 
L 206.946068 109.067387 
L 205.885408 108.006727 
L 204.824747 109.067387 
L 203.764087 108.006727 
L 202.703427 109.067387 
L 203.764087 110.128047 
L 202.703427 111.188707 
z
" clip-path="url(#p2181da708f)" style="fill: #88ccee; fill-opacity: 0.6; stroke: #ffffff; stroke-opacity: 0.6; stroke-width: 0.339411"/>
    <path d="M 189.806713 105.785868 
L 190.867373 104.725208 
L 191.928033 105.785868 
L 192.988693 104.725208 
L 191.928033 103.664548 
L 192.988693 102.603888 
L 191.928033 101.543228 
L 190.867373 102.603888 
L 189.806713 101.543228 
L 188.746052 102.603888 
L 189.806713 103.664548 
L 188.746052 104.725208 
z
" clip-path="url(#p2181da708f)" style="fill: #88ccee; fill-opacity: 0.6; stroke: #ffffff; stroke-opacity: 0.6; stroke-width: 0.339411"/>
    <path d="M 188.323909 106.974437 
L 189.384569 105.913777 
L 190.445229 106.974437 
L 191.505889 105.913777 
L 190.445229 104.853117 
L 191.505889 103.792457 
L 190.445229 102.731796 
L 189.384569 103.792457 
L 188.323909 102.731796 
L 187.263248 103.792457 
L 188.323909 104.853117 
L 187.263248 105.913777 
z
" clip-path="url(#p2181da708f)" style="fill: #88ccee; fill-opacity: 0.6; stroke: #ffffff; stroke-opacity: 0.6; stroke-width: 0.339411"/>
    <path d="M 192.836811 110.606626 
L 193.897472 109.545966 
L 194.958132 110.606626 
L 196.018792 109.545966 
L 194.958132 108.485305 
L 196.018792 107.424645 
L 194.958132 106.363985 
L 193.897472 107.424645 
L 192.836811 106.363985 
L 191.776151 107.424645 
L 192.836811 108.485305 
L 191.776151 109.545966 
z
" clip-path="url(#p2181da708f)" style="fill: #88ccee; fill-opacity: 0.6; stroke: #ffffff; stroke-opacity: 0.6; stroke-width: 0.339411"/>
    <path d="M 211.258017 118.020702 
L 212.318678 116.960041 
L 213.379338 118.020702 
L 214.439998 116.960041 
L 213.379338 115.899381 
L 214.439998 114.838721 
L 213.379338 113.778061 
L 212.318678 114.838721 
L 211.258017 113.778061 
L 210.197357 114.838721 
L 211.258017 115.899381 
L 210.197357 116.960041 
z
" clip-path="url(#p2181da708f)" style="fill: #88ccee; fill-opacity: 0.6; stroke: #ffffff; stroke-opacity: 0.6; stroke-width: 0.339411"/>
    <path d="M 210.967675 107.316979 
L 212.028335 106.256319 
L 213.088996 107.316979 
L 214.149656 106.256319 
L 213.088996 105.195659 
L 214.149656 104.134999 
L 213.088996 103.074338 
L 212.028335 104.134999 
L 210.967675 103.074338 
L 209.907015 104.134999 
L 210.967675 105.195659 
L 209.907015 106.256319 
z
" clip-path="url(#p2181da708f)" style="fill: #88ccee; fill-opacity: 0.6; stroke: #ffffff; stroke-opacity: 0.6; stroke-width: 0.339411"/>
    <path d="M 207.168296 112.956795 
L 208.228956 111.896134 
L 209.289616 112.956795 
L 210.350276 111.896134 
L 209.289616 110.835474 
L 210.350276 109.774814 
L 209.289616 108.714154 
L 208.228956 109.774814 
L 207.168296 108.714154 
L 206.107636 109.774814 
L 207.168296 110.835474 
L 206.107636 111.896134 
z
" clip-path="url(#p2181da708f)" style="fill: #88ccee; fill-opacity: 0.6; stroke: #ffffff; stroke-opacity: 0.6; stroke-width: 0.339411"/>
    <path d="M 197.655615 110.457577 
L 198.716275 109.396917 
L 199.776935 110.457577 
L 200.837595 109.396917 
L 199.776935 108.336256 
L 200.837595 107.275596 
L 199.776935 106.214936 
L 198.716275 107.275596 
L 197.655615 106.214936 
L 196.594955 107.275596 
L 197.655615 108.336256 
L 196.594955 109.396917 
z
" clip-path="url(#p2181da708f)" style="fill: #88ccee; fill-opacity: 0.6; stroke: #ffffff; stroke-opacity: 0.6; stroke-width: 0.339411"/>
    <path d="M 98.391555 135.933584 
L 99.452215 134.872923 
L 100.512875 135.933584 
L 101.573536 134.872923 
L 100.512875 133.812263 
L 101.573536 132.751603 
L 100.512875 131.690943 
L 99.452215 132.751603 
L 98.391555 131.690943 
L 97.330895 132.751603 
L 98.391555 133.812263 
L 97.330895 134.872923 
z
" clip-path="url(#p2181da708f)" style="fill: #88ccee; fill-opacity: 0.6; stroke: #ffffff; stroke-opacity: 0.6; stroke-width: 0.339411"/>
    <path d="M 175.92133 113.350896 
L 176.98199 112.290236 
L 178.04265 113.350896 
L 179.10331 112.290236 
L 178.04265 111.229575 
L 179.10331 110.168915 
L 178.04265 109.108255 
L 176.98199 110.168915 
L 175.92133 109.108255 
L 174.86067 110.168915 
L 175.92133 111.229575 
L 174.86067 112.290236 
z
" clip-path="url(#p2181da708f)" style="fill: #88ccee; fill-opacity: 0.6; stroke: #ffffff; stroke-opacity: 0.6; stroke-width: 0.339411"/>
    <path d="M 186.670097 106.21844 
L 187.730757 105.15778 
L 188.791418 106.21844 
L 189.852078 105.15778 
L 188.791418 104.09712 
L 189.852078 103.036459 
L 188.791418 101.975799 
L 187.730757 103.036459 
L 186.670097 101.975799 
L 185.609437 103.036459 
L 186.670097 104.09712 
L 185.609437 105.15778 
z
" clip-path="url(#p2181da708f)" style="fill: #88ccee; fill-opacity: 0.6; stroke: #ffffff; stroke-opacity: 0.6; stroke-width: 0.339411"/>
    <path d="M 209.617808 107.715336 
L 210.678468 106.654676 
L 211.739128 107.715336 
L 212.799789 106.654676 
L 211.739128 105.594016 
L 212.799789 104.533356 
L 211.739128 103.472695 
L 210.678468 104.533356 
L 209.617808 103.472695 
L 208.557148 104.533356 
L 209.617808 105.594016 
L 208.557148 106.654676 
z
" clip-path="url(#p2181da708f)" style="fill: #88ccee; fill-opacity: 0.6; stroke: #ffffff; stroke-opacity: 0.6; stroke-width: 0.339411"/>
    <path d="M 185.093466 111.065719 
L 186.154126 110.005058 
L 187.214786 111.065719 
L 188.275446 110.005058 
L 187.214786 108.944398 
L 188.275446 107.883738 
L 187.214786 106.823078 
L 186.154126 107.883738 
L 185.093466 106.823078 
L 184.032806 107.883738 
L 185.093466 108.944398 
L 184.032806 110.005058 
z
" clip-path="url(#p2181da708f)" style="fill: #88ccee; fill-opacity: 0.6; stroke: #ffffff; stroke-opacity: 0.6; stroke-width: 0.339411"/>
    <path d="M 193.557664 110.01832 
L 194.618325 108.95766 
L 195.678985 110.01832 
L 196.739645 108.95766 
L 195.678985 107.897 
L 196.739645 106.836339 
L 195.678985 105.775679 
L 194.618325 106.836339 
L 193.557664 105.775679 
L 192.497004 106.836339 
L 193.557664 107.897 
L 192.497004 108.95766 
z
" clip-path="url(#p2181da708f)" style="fill: #88ccee; fill-opacity: 0.6; stroke: #ffffff; stroke-opacity: 0.6; stroke-width: 0.339411"/>
    <path d="M 198.326297 110.289811 
L 199.386957 109.229151 
L 200.447618 110.289811 
L 201.508278 109.229151 
L 200.447618 108.168491 
L 201.508278 107.107831 
L 200.447618 106.04717 
L 199.386957 107.107831 
L 198.326297 106.04717 
L 197.265637 107.107831 
L 198.326297 108.168491 
L 197.265637 109.229151 
z
" clip-path="url(#p2181da708f)" style="fill: #88ccee; fill-opacity: 0.6; stroke: #ffffff; stroke-opacity: 0.6; stroke-width: 0.339411"/>
    <path d="M 168.824907 145.720885 
L 169.885567 144.660225 
L 170.946227 145.720885 
L 172.006888 144.660225 
L 170.946227 143.599565 
L 172.006888 142.538904 
L 170.946227 141.478244 
L 169.885567 142.538904 
L 168.824907 141.478244 
L 167.764247 142.538904 
L 168.824907 143.599565 
L 167.764247 144.660225 
z
" clip-path="url(#p2181da708f)" style="fill: #88ccee; fill-opacity: 0.6; stroke: #ffffff; stroke-opacity: 0.6; stroke-width: 0.339411"/>
    <path d="M 172.216719 147.81466 
L 173.277379 146.754 
L 174.338039 147.81466 
L 175.3987 146.754 
L 174.338039 145.693339 
L 175.3987 144.632679 
L 174.338039 143.572019 
L 173.277379 144.632679 
L 172.216719 143.572019 
L 171.156059 144.632679 
L 172.216719 145.693339 
L 171.156059 146.754 
z
" clip-path="url(#p2181da708f)" style="fill: #88ccee; fill-opacity: 0.6; stroke: #ffffff; stroke-opacity: 0.6; stroke-width: 0.339411"/>
    <path d="M 173.846674 112.805153 
L 174.907334 111.744493 
L 175.967994 112.805153 
L 177.028654 111.744493 
L 175.967994 110.683833 
L 177.028654 109.623172 
L 175.967994 108.562512 
L 174.907334 109.623172 
L 173.846674 108.562512 
L 172.786013 109.623172 
L 173.846674 110.683833 
L 172.786013 111.744493 
z
" clip-path="url(#p2181da708f)" style="fill: #88ccee; fill-opacity: 0.6; stroke: #ffffff; stroke-opacity: 0.6; stroke-width: 0.339411"/>
    <path d="M 206.015486 119.539885 
L 207.076146 118.479225 
L 208.136806 119.539885 
L 209.197466 118.479225 
L 208.136806 117.418564 
L 209.197466 116.357904 
L 208.136806 115.297244 
L 207.076146 116.357904 
L 206.015486 115.297244 
L 204.954825 116.357904 
L 206.015486 117.418564 
L 204.954825 118.479225 
z
" clip-path="url(#p2181da708f)" style="fill: #88ccee; fill-opacity: 0.6; stroke: #ffffff; stroke-opacity: 0.6; stroke-width: 0.339411"/>
    <path d="M 184.798905 110.782701 
L 185.859565 109.722041 
L 186.920225 110.782701 
L 187.980885 109.722041 
L 186.920225 108.661381 
L 187.980885 107.600721 
L 186.920225 106.540061 
L 185.859565 107.600721 
L 184.798905 106.540061 
L 183.738245 107.600721 
L 184.798905 108.661381 
L 183.738245 109.722041 
z
" clip-path="url(#p2181da708f)" style="fill: #88ccee; fill-opacity: 0.6; stroke: #ffffff; stroke-opacity: 0.6; stroke-width: 0.339411"/>
    <path d="M 198.76048 110.34714 
L 199.82114 109.286479 
L 200.8818 110.34714 
L 201.94246 109.286479 
L 200.8818 108.225819 
L 201.94246 107.165159 
L 200.8818 106.104499 
L 199.82114 107.165159 
L 198.76048 106.104499 
L 197.69982 107.165159 
L 198.76048 108.225819 
L 197.69982 109.286479 
z
" clip-path="url(#p2181da708f)" style="fill: #88ccee; fill-opacity: 0.6; stroke: #ffffff; stroke-opacity: 0.6; stroke-width: 0.339411"/>
    <path d="M 209.440111 108.450803 
L 210.500771 107.390143 
L 211.561431 108.450803 
L 212.622092 107.390143 
L 211.561431 106.329482 
L 212.622092 105.268822 
L 211.561431 104.208162 
L 210.500771 105.268822 
L 209.440111 104.208162 
L 208.379451 105.268822 
L 209.440111 106.329482 
L 208.379451 107.390143 
z
" clip-path="url(#p2181da708f)" style="fill: #88ccee; fill-opacity: 0.6; stroke: #ffffff; stroke-opacity: 0.6; stroke-width: 0.339411"/>
    <path d="M 190.679273 109.553793 
L 191.739933 108.493132 
L 192.800594 109.553793 
L 193.861254 108.493132 
L 192.800594 107.432472 
L 193.861254 106.371812 
L 192.800594 105.311152 
L 191.739933 106.371812 
L 190.679273 105.311152 
L 189.618613 106.371812 
L 190.679273 107.432472 
L 189.618613 108.493132 
z
" clip-path="url(#p2181da708f)" style="fill: #88ccee; fill-opacity: 0.6; stroke: #ffffff; stroke-opacity: 0.6; stroke-width: 0.339411"/>
    <path d="M 97.294068 134.993528 
L 98.354728 133.932867 
L 99.415389 134.993528 
L 100.476049 133.932867 
L 99.415389 132.872207 
L 100.476049 131.811547 
L 99.415389 130.750887 
L 98.354728 131.811547 
L 97.294068 130.750887 
L 96.233408 131.811547 
L 97.294068 132.872207 
L 96.233408 133.932867 
z
" clip-path="url(#p2181da708f)" style="fill: #88ccee; fill-opacity: 0.6; stroke: #ffffff; stroke-opacity: 0.6; stroke-width: 0.339411"/>
    <path d="M 211.2818 108.17397 
L 212.34246 107.11331 
L 213.40312 108.17397 
L 214.46378 107.11331 
L 213.40312 106.05265 
L 214.46378 104.991989 
L 213.40312 103.931329 
L 212.34246 104.991989 
L 211.2818 103.931329 
L 210.22114 104.991989 
L 211.2818 106.05265 
L 210.22114 107.11331 
z
" clip-path="url(#p2181da708f)" style="fill: #88ccee; fill-opacity: 0.6; stroke: #ffffff; stroke-opacity: 0.6; stroke-width: 0.339411"/>
    <path d="M 194.208519 112.347254 
L 195.269179 111.286594 
L 196.329839 112.347254 
L 197.390499 111.286594 
L 196.329839 110.225933 
L 197.390499 109.165273 
L 196.329839 108.104613 
L 195.269179 109.165273 
L 194.208519 108.104613 
L 193.147859 109.165273 
L 194.208519 110.225933 
L 193.147859 111.286594 
z
" clip-path="url(#p2181da708f)" style="fill: #88ccee; fill-opacity: 0.6; stroke: #ffffff; stroke-opacity: 0.6; stroke-width: 0.339411"/>
    <path d="M 203.684033 112.913796 
L 204.744693 111.853136 
L 205.805354 112.913796 
L 206.866014 111.853136 
L 205.805354 110.792476 
L 206.866014 109.731815 
L 205.805354 108.671155 
L 204.744693 109.731815 
L 203.684033 108.671155 
L 202.623373 109.731815 
L 203.684033 110.792476 
L 202.623373 111.853136 
z
" clip-path="url(#p2181da708f)" style="fill: #88ccee; fill-opacity: 0.6; stroke: #ffffff; stroke-opacity: 0.6; stroke-width: 0.339411"/>
    <path d="M 209.06507 114.587763 
L 210.12573 113.527103 
L 211.18639 114.587763 
L 212.24705 113.527103 
L 211.18639 112.466443 
L 212.24705 111.405783 
L 211.18639 110.345123 
L 210.12573 111.405783 
L 209.06507 110.345123 
L 208.004409 111.405783 
L 209.06507 112.466443 
L 208.004409 113.527103 
z
" clip-path="url(#p2181da708f)" style="fill: #88ccee; fill-opacity: 0.6; stroke: #ffffff; stroke-opacity: 0.6; stroke-width: 0.339411"/>
    <path d="M 211.646383 109.912192 
L 212.707043 108.851532 
L 213.767703 109.912192 
L 214.828363 108.851532 
L 213.767703 107.790872 
L 214.828363 106.730211 
L 213.767703 105.669551 
L 212.707043 106.730211 
L 211.646383 105.669551 
L 210.585722 106.730211 
L 211.646383 107.790872 
L 210.585722 108.851532 
z
" clip-path="url(#p2181da708f)" style="fill: #88ccee; fill-opacity: 0.6; stroke: #ffffff; stroke-opacity: 0.6; stroke-width: 0.339411"/>
    <path d="M 208.655249 110.634027 
L 209.715909 109.573367 
L 210.776569 110.634027 
L 211.83723 109.573367 
L 210.776569 108.512706 
L 211.83723 107.452046 
L 210.776569 106.391386 
L 209.715909 107.452046 
L 208.655249 106.391386 
L 207.594589 107.452046 
L 208.655249 108.512706 
L 207.594589 109.573367 
z
" clip-path="url(#p2181da708f)" style="fill: #88ccee; fill-opacity: 0.6; stroke: #ffffff; stroke-opacity: 0.6; stroke-width: 0.339411"/>
    <path d="M 212.029695 116.875952 
L 213.090355 115.815291 
L 214.151015 116.875952 
L 215.211675 115.815291 
L 214.151015 114.754631 
L 215.211675 113.693971 
L 214.151015 112.633311 
L 213.090355 113.693971 
L 212.029695 112.633311 
L 210.969034 113.693971 
L 212.029695 114.754631 
L 210.969034 115.815291 
z
" clip-path="url(#p2181da708f)" style="fill: #88ccee; fill-opacity: 0.6; stroke: #ffffff; stroke-opacity: 0.6; stroke-width: 0.339411"/>
    <path d="M 210.3707 114.217191 
L 211.43136 113.156531 
L 212.492021 114.217191 
L 213.552681 113.156531 
L 212.492021 112.095871 
L 213.552681 111.03521 
L 212.492021 109.97455 
L 211.43136 111.03521 
L 210.3707 109.97455 
L 209.31004 111.03521 
L 210.3707 112.095871 
L 209.31004 113.156531 
z
" clip-path="url(#p2181da708f)" style="fill: #88ccee; fill-opacity: 0.6; stroke: #ffffff; stroke-opacity: 0.6; stroke-width: 0.339411"/>
    <path d="M 185.552066 103.872779 
L 186.612726 102.812119 
L 187.673386 103.872779 
L 188.734047 102.812119 
L 187.673386 101.751459 
L 188.734047 100.690799 
L 187.673386 99.630139 
L 186.612726 100.690799 
L 185.552066 99.630139 
L 184.491406 100.690799 
L 185.552066 101.751459 
L 184.491406 102.812119 
z
" clip-path="url(#p2181da708f)" style="fill: #88ccee; fill-opacity: 0.6; stroke: #ffffff; stroke-opacity: 0.6; stroke-width: 0.339411"/>
    <path d="M 209.685169 115.796678 
L 210.745829 114.736018 
L 211.806489 115.796678 
L 212.867149 114.736018 
L 211.806489 113.675357 
L 212.867149 112.614697 
L 211.806489 111.554037 
L 210.745829 112.614697 
L 209.685169 111.554037 
L 208.624509 112.614697 
L 209.685169 113.675357 
L 208.624509 114.736018 
z
" clip-path="url(#p2181da708f)" style="fill: #88ccee; fill-opacity: 0.6; stroke: #ffffff; stroke-opacity: 0.6; stroke-width: 0.339411"/>
    <path d="M 211.133133 119.192626 
L 212.193794 118.131966 
L 213.254454 119.192626 
L 214.315114 118.131966 
L 213.254454 117.071306 
L 214.315114 116.010646 
L 213.254454 114.949985 
L 212.193794 116.010646 
L 211.133133 114.949985 
L 210.072473 116.010646 
L 211.133133 117.071306 
L 210.072473 118.131966 
z
" clip-path="url(#p2181da708f)" style="fill: #88ccee; fill-opacity: 0.6; stroke: #ffffff; stroke-opacity: 0.6; stroke-width: 0.339411"/>
    <path d="M 193.813431 118.147737 
L 194.874092 117.087077 
L 195.934752 118.147737 
L 196.995412 117.087077 
L 195.934752 116.026417 
L 196.995412 114.965757 
L 195.934752 113.905097 
L 194.874092 114.965757 
L 193.813431 113.905097 
L 192.752771 114.965757 
L 193.813431 116.026417 
L 192.752771 117.087077 
z
" clip-path="url(#p2181da708f)" style="fill: #88ccee; fill-opacity: 0.6; stroke: #ffffff; stroke-opacity: 0.6; stroke-width: 0.339411"/>
    <path d="M 170.251375 145.484355 
L 171.312035 144.423695 
L 172.372695 145.484355 
L 173.433355 144.423695 
L 172.372695 143.363035 
L 173.433355 142.302374 
L 172.372695 141.241714 
L 171.312035 142.302374 
L 170.251375 141.241714 
L 169.190714 142.302374 
L 170.251375 143.363035 
L 169.190714 144.423695 
z
" clip-path="url(#p2181da708f)" style="fill: #88ccee; fill-opacity: 0.6; stroke: #ffffff; stroke-opacity: 0.6; stroke-width: 0.339411"/>
    <path d="M 206.189047 120.726742 
L 207.249708 119.666082 
L 208.310368 120.726742 
L 209.371028 119.666082 
L 208.310368 118.605422 
L 209.371028 117.544762 
L 208.310368 116.484102 
L 207.249708 117.544762 
L 206.189047 116.484102 
L 205.128387 117.544762 
L 206.189047 118.605422 
L 205.128387 119.666082 
z
" clip-path="url(#p2181da708f)" style="fill: #88ccee; fill-opacity: 0.6; stroke: #ffffff; stroke-opacity: 0.6; stroke-width: 0.339411"/>
    <path d="M 205.55657 113.922184 
L 206.61723 112.861524 
L 207.67789 113.922184 
L 208.738551 112.861524 
L 207.67789 111.800864 
L 208.738551 110.740203 
L 207.67789 109.679543 
L 206.61723 110.740203 
L 205.55657 109.679543 
L 204.49591 110.740203 
L 205.55657 111.800864 
L 204.49591 112.861524 
z
" clip-path="url(#p2181da708f)" style="fill: #88ccee; fill-opacity: 0.6; stroke: #ffffff; stroke-opacity: 0.6; stroke-width: 0.339411"/>
    <path d="M 197.081157 108.748961 
L 198.141817 107.688301 
L 199.202477 108.748961 
L 200.263137 107.688301 
L 199.202477 106.627641 
L 200.263137 105.566981 
L 199.202477 104.50632 
L 198.141817 105.566981 
L 197.081157 104.50632 
L 196.020497 105.566981 
L 197.081157 106.627641 
L 196.020497 107.688301 
z
" clip-path="url(#p2181da708f)" style="fill: #88ccee; fill-opacity: 0.6; stroke: #ffffff; stroke-opacity: 0.6; stroke-width: 0.339411"/>
    <path d="M 209.887659 119.928803 
L 210.948319 118.868143 
L 212.008979 119.928803 
L 213.06964 118.868143 
L 212.008979 117.807483 
L 213.06964 116.746823 
L 212.008979 115.686162 
L 210.948319 116.746823 
L 209.887659 115.686162 
L 208.826999 116.746823 
L 209.887659 117.807483 
L 208.826999 118.868143 
z
" clip-path="url(#p2181da708f)" style="fill: #88ccee; fill-opacity: 0.6; stroke: #ffffff; stroke-opacity: 0.6; stroke-width: 0.339411"/>
   </g>
   <g id="matplotlib.axis_1">
    <g id="xtick_1">
     <g id="line2d_1">
      <defs>
       <path id="m6cdc98a953" d="M 0 0 
L 0 8 
" style="stroke: #000000"/>
      </defs>
      <g>
       <use xlink:href="#m6cdc98a953" x="75.711492" y="182.738502" style="stroke: #000000"/>
      </g>
     </g>
     <g id="text_1">
      <!-- 10 -->
      <g transform="translate(63.04868 203.356627) scale(0.12 -0.12)">
       <defs>
        <path id="DejaVuSans-2212" d="M 678 2272 
L 4684 2272 
L 4684 1741 
L 678 1741 
L 678 2272 
z
" transform="scale(0.015625)"/>
        <path id="DejaVuSans-31" d="M 794 531 
L 1825 531 
L 1825 4091 
L 703 3866 
L 703 4441 
L 1819 4666 
L 2450 4666 
L 2450 531 
L 3481 531 
L 3481 0 
L 794 0 
L 794 531 
z
" transform="scale(0.015625)"/>
        <path id="DejaVuSans-30" d="M 2034 4250 
Q 1547 4250 1301 3770 
Q 1056 3291 1056 2328 
Q 1056 1369 1301 889 
Q 1547 409 2034 409 
Q 2525 409 2770 889 
Q 3016 1369 3016 2328 
Q 3016 3291 2770 3770 
Q 2525 4250 2034 4250 
z
M 2034 4750 
Q 2819 4750 3233 4129 
Q 3647 3509 3647 2328 
Q 3647 1150 3233 529 
Q 2819 -91 2034 -91 
Q 1250 -91 836 529 
Q 422 1150 422 2328 
Q 422 3509 836 4129 
Q 1250 4750 2034 4750 
z
" transform="scale(0.015625)"/>
       </defs>
       <use xlink:href="#DejaVuSans-2212"/>
       <use xlink:href="#DejaVuSans-31" x="83.789062"/>
       <use xlink:href="#DejaVuSans-30" x="147.412109"/>
      </g>
     </g>
    </g>
    <g id="xtick_2">
     <g id="line2d_2">
      <g>
       <use xlink:href="#m6cdc98a953" x="124.323255" y="182.738502" style="stroke: #000000"/>
      </g>
     </g>
     <g id="text_2">
      <!-- 0 -->
      <g transform="translate(120.505755 203.356627) scale(0.12 -0.12)">
       <use xlink:href="#DejaVuSans-30"/>
      </g>
     </g>
    </g>
    <g id="xtick_3">
     <g id="line2d_3">
      <g>
       <use xlink:href="#m6cdc98a953" x="172.935017" y="182.738502" style="stroke: #000000"/>
      </g>
     </g>
     <g id="text_3">
      <!-- 10 -->
      <g transform="translate(165.300017 203.356627) scale(0.12 -0.12)">
       <use xlink:href="#DejaVuSans-31"/>
       <use xlink:href="#DejaVuSans-30" x="63.623047"/>
      </g>
     </g>
    </g>
    <g id="xtick_4">
     <g id="line2d_4">
      <g>
       <use xlink:href="#m6cdc98a953" x="221.546779" y="182.738502" style="stroke: #000000"/>
      </g>
     </g>
     <g id="text_4">
      <!-- 20 -->
      <g transform="translate(213.911779 203.356627) scale(0.12 -0.12)">
       <defs>
        <path id="DejaVuSans-32" d="M 1228 531 
L 3431 531 
L 3431 0 
L 469 0 
L 469 531 
Q 828 903 1448 1529 
Q 2069 2156 2228 2338 
Q 2531 2678 2651 2914 
Q 2772 3150 2772 3378 
Q 2772 3750 2511 3984 
Q 2250 4219 1831 4219 
Q 1534 4219 1204 4116 
Q 875 4013 500 3803 
L 500 4441 
Q 881 4594 1212 4672 
Q 1544 4750 1819 4750 
Q 2544 4750 2975 4387 
Q 3406 4025 3406 3419 
Q 3406 3131 3298 2873 
Q 3191 2616 2906 2266 
Q 2828 2175 2409 1742 
Q 1991 1309 1228 531 
z
" transform="scale(0.015625)"/>
       </defs>
       <use xlink:href="#DejaVuSans-32"/>
       <use xlink:href="#DejaVuSans-30" x="63.623047"/>
      </g>
     </g>
    </g>
    <g id="text_5">
     <!-- UMAP 1 -->
     <g transform="translate(121.839011 218.970377) scale(0.12 -0.12)">
      <defs>
       <path id="DejaVuSans-55" d="M 556 4666 
L 1191 4666 
L 1191 1831 
Q 1191 1081 1462 751 
Q 1734 422 2344 422 
Q 2950 422 3222 751 
Q 3494 1081 3494 1831 
L 3494 4666 
L 4128 4666 
L 4128 1753 
Q 4128 841 3676 375 
Q 3225 -91 2344 -91 
Q 1459 -91 1007 375 
Q 556 841 556 1753 
L 556 4666 
z
" transform="scale(0.015625)"/>
       <path id="DejaVuSans-4d" d="M 628 4666 
L 1569 4666 
L 2759 1491 
L 3956 4666 
L 4897 4666 
L 4897 0 
L 4281 0 
L 4281 4097 
L 3078 897 
L 2444 897 
L 1241 4097 
L 1241 0 
L 628 0 
L 628 4666 
z
" transform="scale(0.015625)"/>
       <path id="DejaVuSans-41" d="M 2188 4044 
L 1331 1722 
L 3047 1722 
L 2188 4044 
z
M 1831 4666 
L 2547 4666 
L 4325 0 
L 3669 0 
L 3244 1197 
L 1141 1197 
L 716 0 
L 50 0 
L 1831 4666 
z
" transform="scale(0.015625)"/>
       <path id="DejaVuSans-50" d="M 1259 4147 
L 1259 2394 
L 2053 2394 
Q 2494 2394 2734 2622 
Q 2975 2850 2975 3272 
Q 2975 3691 2734 3919 
Q 2494 4147 2053 4147 
L 1259 4147 
z
M 628 4666 
L 2053 4666 
Q 2838 4666 3239 4311 
Q 3641 3956 3641 3272 
Q 3641 2581 3239 2228 
Q 2838 1875 2053 1875 
L 1259 1875 
L 1259 0 
L 628 0 
L 628 4666 
z
" transform="scale(0.015625)"/>
       <path id="DejaVuSans-20" transform="scale(0.015625)"/>
      </defs>
      <use xlink:href="#DejaVuSans-55"/>
      <use xlink:href="#DejaVuSans-4d" x="73.193359"/>
      <use xlink:href="#DejaVuSans-41" x="159.472656"/>
      <use xlink:href="#DejaVuSans-50" x="227.880859"/>
      <use xlink:href="#DejaVuSans-20" x="288.183594"/>
      <use xlink:href="#DejaVuSans-31" x="319.970703"/>
     </g>
    </g>
   </g>
   <g id="matplotlib.axis_2">
    <g id="ytick_1">
     <g id="line2d_5">
      <defs>
       <path id="mf0aac8af33" d="M 0 0 
L -8 0 
" style="stroke: #000000"/>
      </defs>
      <g>
       <use xlink:href="#mf0aac8af33" x="64.037638" y="171.064647" style="stroke: #000000"/>
      </g>
     </g>
     <g id="text_6">
      <!-- 10 -->
      <g transform="translate(27.212013 175.62371) scale(0.12 -0.12)">
       <use xlink:href="#DejaVuSans-2212"/>
       <use xlink:href="#DejaVuSans-31" x="83.789062"/>
       <use xlink:href="#DejaVuSans-30" x="147.412109"/>
      </g>
     </g>
    </g>
    <g id="ytick_2">
     <g id="line2d_6">
      <g>
       <use xlink:href="#mf0aac8af33" x="64.037638" y="122.452885" style="stroke: #000000"/>
      </g>
     </g>
     <g id="text_7">
      <!-- 0 -->
      <g transform="translate(44.902638 127.011948) scale(0.12 -0.12)">
       <use xlink:href="#DejaVuSans-30"/>
      </g>
     </g>
    </g>
    <g id="ytick_3">
     <g id="line2d_7">
      <g>
       <use xlink:href="#mf0aac8af33" x="64.037638" y="73.841123" style="stroke: #000000"/>
      </g>
     </g>
     <g id="text_8">
      <!-- 10 -->
      <g transform="translate(37.267638 78.400185) scale(0.12 -0.12)">
       <use xlink:href="#DejaVuSans-31"/>
       <use xlink:href="#DejaVuSans-30" x="63.623047"/>
      </g>
     </g>
    </g>
    <g id="ytick_4">
     <g id="line2d_8">
      <g>
       <use xlink:href="#mf0aac8af33" x="64.037638" y="25.229361" style="stroke: #000000"/>
      </g>
     </g>
     <g id="text_9">
      <!-- 20 -->
      <g transform="translate(37.267638 29.788423) scale(0.12 -0.12)">
       <use xlink:href="#DejaVuSans-32"/>
       <use xlink:href="#DejaVuSans-30" x="63.623047"/>
      </g>
     </g>
    </g>
    <g id="text_10">
     <!-- UMAP 2 -->
     <g transform="translate(20.716388 124.937128) rotate(-90) scale(0.12 -0.12)">
      <use xlink:href="#DejaVuSans-55"/>
      <use xlink:href="#DejaVuSans-4d" x="73.193359"/>
      <use xlink:href="#DejaVuSans-41" x="159.472656"/>
      <use xlink:href="#DejaVuSans-50" x="227.880859"/>
      <use xlink:href="#DejaVuSans-20" x="288.183594"/>
      <use xlink:href="#DejaVuSans-32" x="319.970703"/>
     </g>
    </g>
   </g>
   <g id="patch_3">
    <path d="M 64.037638 182.738502 
L 64.037638 21.10638 
" style="fill: none; stroke: #000000; stroke-width: 2; stroke-linejoin: miter; stroke-linecap: square"/>
   </g>
   <g id="patch_4">
    <path d="M 64.037638 182.738502 
L 225.66976 182.738502 
" style="fill: none; stroke: #000000; stroke-width: 2; stroke-linejoin: miter; stroke-linecap: square"/>
   </g>
  </g>
 </g>
 <defs>
  <clipPath id="p2181da708f">
   <rect x="64.037638" y="21.10638" width="161.632122" height="161.632122"/>
  </clipPath>
 </defs>
</svg>
