<?xml version="1.0" encoding="utf-8" standalone="no"?>
<!DOCTYPE svg PUBLIC "-//W3C//DTD SVG 1.1//EN"
  "http://www.w3.org/Graphics/SVG/1.1/DTD/svg11.dtd">
<svg xmlns:xlink="http://www.w3.org/1999/xlink" width="240.944882pt" height="240.944882pt" viewBox="0 0 240.944882 240.944882" xmlns="http://www.w3.org/2000/svg" version="1.1">
 <metadata>
  <rdf:RDF xmlns:dc="http://purl.org/dc/elements/1.1/" xmlns:cc="http://creativecommons.org/ns#" xmlns:rdf="http://www.w3.org/1999/02/22-rdf-syntax-ns#">
   <cc:Work>
    <dc:type rdf:resource="http://purl.org/dc/dcmitype/StillImage"/>
    <dc:date>2025-02-24T15:43:56.183249</dc:date>
    <dc:format>image/svg+xml</dc:format>
    <dc:creator>
     <cc:Agent>
      <dc:title>Matplotlib v3.6.2, https://matplotlib.org/</dc:title>
     </cc:Agent>
    </dc:creator>
   </cc:Work>
  </rdf:RDF>
 </metadata>
 <defs>
  <style type="text/css">*{stroke-linejoin: round; stroke-linecap: butt}</style>
 </defs>
 <g id="figure_1">
  <g id="patch_1">
   <path d="M 0 240.944882 
L 240.944882 240.944882 
L 240.944882 0 
L 0 0 
L 0 240.944882 
z
" style="fill: none"/>
  </g>
  <g id="axes_1">
   <g id="patch_2">
    <path d="M 64.037638 183.896063 
L 227.984882 183.896063 
L 227.984882 19.948819 
L 64.037638 19.948819 
L 64.037638 183.896063 
z
" style="fill: none"/>
   </g>
   <g id="PathCollection_1">
    <path d="M 169.285556 82.922904 
L 171.085556 79.922904 
L 169.285556 76.922904 
L 167.485556 79.922904 
z
" clip-path="url(#p1cd9ae1106)" style="fill: #332288; fill-opacity: 0.6; stroke: #ffffff; stroke-opacity: 0.6; stroke-width: 0.339411"/>
    <path d="M 80.812118 41.6433 
L 82.612118 38.6433 
L 80.812118 35.6433 
L 79.012118 38.6433 
z
" clip-path="url(#p1cd9ae1106)" style="fill: #332288; fill-opacity: 0.6; stroke: #ffffff; stroke-opacity: 0.6; stroke-width: 0.339411"/>
    <path d="M 80.493184 38.658647 
L 82.293184 35.658647 
L 80.493184 32.658647 
L 78.693184 35.658647 
z
" clip-path="url(#p1cd9ae1106)" style="fill: #332288; fill-opacity: 0.6; stroke: #ffffff; stroke-opacity: 0.6; stroke-width: 0.339411"/>
    <path d="M 96.324512 46.005675 
L 98.124512 43.005675 
L 96.324512 40.005675 
L 94.524512 43.005675 
z
" clip-path="url(#p1cd9ae1106)" style="fill: #332288; fill-opacity: 0.6; stroke: #ffffff; stroke-opacity: 0.6; stroke-width: 0.339411"/>
    <path d="M 78.401609 44.005512 
L 80.201609 41.005512 
L 78.401609 38.005512 
L 76.601609 41.005512 
z
" clip-path="url(#p1cd9ae1106)" style="fill: #332288; fill-opacity: 0.6; stroke: #ffffff; stroke-opacity: 0.6; stroke-width: 0.339411"/>
    <path d="M 146.880965 77.699103 
L 148.680965 74.699103 
L 146.880965 71.699103 
L 145.080965 74.699103 
z
" clip-path="url(#p1cd9ae1106)" style="fill: #332288; fill-opacity: 0.6; stroke: #ffffff; stroke-opacity: 0.6; stroke-width: 0.339411"/>
    <path d="M 98.060721 45.526722 
L 99.860721 42.526722 
L 98.060721 39.526722 
L 96.260721 42.526722 
z
" clip-path="url(#p1cd9ae1106)" style="fill: #332288; fill-opacity: 0.6; stroke: #ffffff; stroke-opacity: 0.6; stroke-width: 0.339411"/>
    <path d="M 146.240588 78.868084 
L 148.040588 75.868084 
L 146.240588 72.868084 
L 144.440588 75.868084 
z
" clip-path="url(#p1cd9ae1106)" style="fill: #332288; fill-opacity: 0.6; stroke: #ffffff; stroke-opacity: 0.6; stroke-width: 0.339411"/>
    <path d="M 81.242781 45.502522 
L 83.042781 42.502522 
L 81.242781 39.502522 
L 79.442781 42.502522 
z
" clip-path="url(#p1cd9ae1106)" style="fill: #332288; fill-opacity: 0.6; stroke: #ffffff; stroke-opacity: 0.6; stroke-width: 0.339411"/>
    <path d="M 84.475097 45.987691 
L 86.275097 42.987691 
L 84.475097 39.987691 
L 82.675097 42.987691 
z
" clip-path="url(#p1cd9ae1106)" style="fill: #332288; fill-opacity: 0.6; stroke: #ffffff; stroke-opacity: 0.6; stroke-width: 0.339411"/>
    <path d="M 83.822281 34.979887 
L 85.622281 31.979887 
L 83.822281 28.979887 
L 82.022281 31.979887 
z
" clip-path="url(#p1cd9ae1106)" style="fill: #332288; fill-opacity: 0.6; stroke: #ffffff; stroke-opacity: 0.6; stroke-width: 0.339411"/>
    <path d="M 160.813882 83.640833 
L 162.613882 80.640833 
L 160.813882 77.640833 
L 159.013882 80.640833 
z
" clip-path="url(#p1cd9ae1106)" style="fill: #332288; fill-opacity: 0.6; stroke: #ffffff; stroke-opacity: 0.6; stroke-width: 0.339411"/>
    <path d="M 128.879714 66.144463 
L 130.679714 63.144463 
L 128.879714 60.144463 
L 127.079714 63.144463 
z
" clip-path="url(#p1cd9ae1106)" style="fill: #332288; fill-opacity: 0.6; stroke: #ffffff; stroke-opacity: 0.6; stroke-width: 0.339411"/>
    <path d="M 93.513754 48.246827 
L 95.313754 45.246827 
L 93.513754 42.246827 
L 91.713754 45.246827 
z
" clip-path="url(#p1cd9ae1106)" style="fill: #332288; fill-opacity: 0.6; stroke: #ffffff; stroke-opacity: 0.6; stroke-width: 0.339411"/>
    <path d="M 81.325864 37.389917 
L 83.125864 34.389917 
L 81.325864 31.389917 
L 79.525864 34.389917 
z
" clip-path="url(#p1cd9ae1106)" style="fill: #332288; fill-opacity: 0.6; stroke: #ffffff; stroke-opacity: 0.6; stroke-width: 0.339411"/>
    <path d="M 144.366918 77.673455 
L 146.166918 74.673455 
L 144.366918 71.673455 
L 142.566918 74.673455 
z
" clip-path="url(#p1cd9ae1106)" style="fill: #332288; fill-opacity: 0.6; stroke: #ffffff; stroke-opacity: 0.6; stroke-width: 0.339411"/>
    <path d="M 85.50355 34.706104 
L 87.30355 31.706104 
L 85.50355 28.706104 
L 83.70355 31.706104 
z
" clip-path="url(#p1cd9ae1106)" style="fill: #332288; fill-opacity: 0.6; stroke: #ffffff; stroke-opacity: 0.6; stroke-width: 0.339411"/>
    <path d="M 75.794923 42.684668 
L 77.594923 39.684668 
L 75.794923 36.684668 
L 73.994923 39.684668 
z
" clip-path="url(#p1cd9ae1106)" style="fill: #332288; fill-opacity: 0.6; stroke: #ffffff; stroke-opacity: 0.6; stroke-width: 0.339411"/>
    <path d="M 80.902085 37.90631 
L 82.702085 34.90631 
L 80.902085 31.90631 
L 79.102085 34.90631 
z
" clip-path="url(#p1cd9ae1106)" style="fill: #332288; fill-opacity: 0.6; stroke: #ffffff; stroke-opacity: 0.6; stroke-width: 0.339411"/>
    <path d="M 93.08183 39.825458 
L 94.88183 36.825458 
L 93.08183 33.825458 
L 91.28183 36.825458 
z
" clip-path="url(#p1cd9ae1106)" style="fill: #332288; fill-opacity: 0.6; stroke: #ffffff; stroke-opacity: 0.6; stroke-width: 0.339411"/>
    <path d="M 92.893682 39.013893 
L 94.693682 36.013893 
L 92.893682 33.013893 
L 91.093682 36.013893 
z
" clip-path="url(#p1cd9ae1106)" style="fill: #332288; fill-opacity: 0.6; stroke: #ffffff; stroke-opacity: 0.6; stroke-width: 0.339411"/>
    <path d="M 94.408008 47.490278 
L 96.208008 44.490278 
L 94.408008 41.490278 
L 92.608008 44.490278 
z
" clip-path="url(#p1cd9ae1106)" style="fill: #332288; fill-opacity: 0.6; stroke: #ffffff; stroke-opacity: 0.6; stroke-width: 0.339411"/>
    <path d="M 90.113356 48.777376 
L 91.913356 45.777376 
L 90.113356 42.777376 
L 88.313356 45.777376 
z
" clip-path="url(#p1cd9ae1106)" style="fill: #332288; fill-opacity: 0.6; stroke: #ffffff; stroke-opacity: 0.6; stroke-width: 0.339411"/>
    <path d="M 91.986023 44.219595 
L 93.786023 41.219595 
L 91.986023 38.219595 
L 90.186023 41.219595 
z
" clip-path="url(#p1cd9ae1106)" style="fill: #332288; fill-opacity: 0.6; stroke: #ffffff; stroke-opacity: 0.6; stroke-width: 0.339411"/>
    <path d="M 86.925362 49.420527 
L 88.725362 46.420527 
L 86.925362 43.420527 
L 85.125362 46.420527 
z
" clip-path="url(#p1cd9ae1106)" style="fill: #332288; fill-opacity: 0.6; stroke: #ffffff; stroke-opacity: 0.6; stroke-width: 0.339411"/>
    <path d="M 98.992432 47.345017 
L 100.792432 44.345017 
L 98.992432 41.345017 
L 97.192432 44.345017 
z
" clip-path="url(#p1cd9ae1106)" style="fill: #332288; fill-opacity: 0.6; stroke: #ffffff; stroke-opacity: 0.6; stroke-width: 0.339411"/>
    <path d="M 84.762368 36.242696 
L 86.562368 33.242696 
L 84.762368 30.242696 
L 82.962368 33.242696 
z
" clip-path="url(#p1cd9ae1106)" style="fill: #332288; fill-opacity: 0.6; stroke: #ffffff; stroke-opacity: 0.6; stroke-width: 0.339411"/>
    <path d="M 131.305701 67.217255 
L 133.105701 64.217255 
L 131.305701 61.217255 
L 129.505701 64.217255 
z
" clip-path="url(#p1cd9ae1106)" style="fill: #332288; fill-opacity: 0.6; stroke: #ffffff; stroke-opacity: 0.6; stroke-width: 0.339411"/>
    <path d="M 97.333209 46.995907 
L 99.133209 43.995907 
L 97.333209 40.995907 
L 95.533209 43.995907 
z
" clip-path="url(#p1cd9ae1106)" style="fill: #332288; fill-opacity: 0.6; stroke: #ffffff; stroke-opacity: 0.6; stroke-width: 0.339411"/>
    <path d="M 170.475428 84.571252 
L 172.275428 81.571252 
L 170.475428 78.571252 
L 168.675428 81.571252 
z
" clip-path="url(#p1cd9ae1106)" style="fill: #332288; fill-opacity: 0.6; stroke: #ffffff; stroke-opacity: 0.6; stroke-width: 0.339411"/>
    <path d="M 77.126449 44.771468 
L 78.926449 41.771468 
L 77.126449 38.771468 
L 75.326449 41.771468 
z
" clip-path="url(#p1cd9ae1106)" style="fill: #332288; fill-opacity: 0.6; stroke: #ffffff; stroke-opacity: 0.6; stroke-width: 0.339411"/>
    <path d="M 183.608325 68.292583 
L 185.408325 65.292583 
L 183.608325 62.292583 
L 181.808325 65.292583 
z
" clip-path="url(#p1cd9ae1106)" style="fill: #332288; fill-opacity: 0.6; stroke: #ffffff; stroke-opacity: 0.6; stroke-width: 0.339411"/>
    <path d="M 129.110344 65.412727 
L 130.910344 62.412727 
L 129.110344 59.412727 
L 127.310344 62.412727 
z
" clip-path="url(#p1cd9ae1106)" style="fill: #332288; fill-opacity: 0.6; stroke: #ffffff; stroke-opacity: 0.6; stroke-width: 0.339411"/>
    <path d="M 77.296727 45.077581 
L 79.096727 42.077581 
L 77.296727 39.077581 
L 75.496727 42.077581 
z
" clip-path="url(#p1cd9ae1106)" style="fill: #332288; fill-opacity: 0.6; stroke: #ffffff; stroke-opacity: 0.6; stroke-width: 0.339411"/>
    <path d="M 91.893083 43.2256 
L 93.693083 40.2256 
L 91.893083 37.2256 
L 90.093083 40.2256 
z
" clip-path="url(#p1cd9ae1106)" style="fill: #332288; fill-opacity: 0.6; stroke: #ffffff; stroke-opacity: 0.6; stroke-width: 0.339411"/>
    <path d="M 81.943468 44.939409 
L 83.743468 41.939409 
L 81.943468 38.939409 
L 80.143468 41.939409 
z
" clip-path="url(#p1cd9ae1106)" style="fill: #332288; fill-opacity: 0.6; stroke: #ffffff; stroke-opacity: 0.6; stroke-width: 0.339411"/>
    <path d="M 76.649968 43.572542 
L 78.449968 40.572542 
L 76.649968 37.572542 
L 74.849968 40.572542 
z
" clip-path="url(#p1cd9ae1106)" style="fill: #332288; fill-opacity: 0.6; stroke: #ffffff; stroke-opacity: 0.6; stroke-width: 0.339411"/>
    <path d="M 128.75587 64.290389 
L 130.55587 61.290389 
L 128.75587 58.290389 
L 126.95587 61.290389 
z
" clip-path="url(#p1cd9ae1106)" style="fill: #332288; fill-opacity: 0.6; stroke: #ffffff; stroke-opacity: 0.6; stroke-width: 0.339411"/>
    <path d="M 84.849828 36.827686 
L 86.649828 33.827686 
L 84.849828 30.827686 
L 83.049828 33.827686 
z
" clip-path="url(#p1cd9ae1106)" style="fill: #332288; fill-opacity: 0.6; stroke: #ffffff; stroke-opacity: 0.6; stroke-width: 0.339411"/>
    <path d="M 85.761463 46.761248 
L 87.561463 43.761248 
L 85.761463 40.761248 
L 83.961463 43.761248 
z
" clip-path="url(#p1cd9ae1106)" style="fill: #332288; fill-opacity: 0.6; stroke: #ffffff; stroke-opacity: 0.6; stroke-width: 0.339411"/>
    <path d="M 96.212633 49.184098 
L 98.012633 46.184098 
L 96.212633 43.184098 
L 94.412633 46.184098 
z
" clip-path="url(#p1cd9ae1106)" style="fill: #332288; fill-opacity: 0.6; stroke: #ffffff; stroke-opacity: 0.6; stroke-width: 0.339411"/>
    <path d="M 77.136927 44.104058 
L 78.936927 41.104058 
L 77.136927 38.104058 
L 75.336927 41.104058 
z
" clip-path="url(#p1cd9ae1106)" style="fill: #332288; fill-opacity: 0.6; stroke: #ffffff; stroke-opacity: 0.6; stroke-width: 0.339411"/>
    <path d="M 92.60201 43.379713 
L 94.40201 40.379713 
L 92.60201 37.379713 
L 90.80201 40.379713 
z
" clip-path="url(#p1cd9ae1106)" style="fill: #332288; fill-opacity: 0.6; stroke: #ffffff; stroke-opacity: 0.6; stroke-width: 0.339411"/>
    <path d="M 90.135338 37.213732 
L 91.935338 34.213732 
L 90.135338 31.213732 
L 88.335338 34.213732 
z
" clip-path="url(#p1cd9ae1106)" style="fill: #332288; fill-opacity: 0.6; stroke: #ffffff; stroke-opacity: 0.6; stroke-width: 0.339411"/>
    <path d="M 84.604576 36.059149 
L 86.404576 33.059149 
L 84.604576 30.059149 
L 82.804576 33.059149 
z
" clip-path="url(#p1cd9ae1106)" style="fill: #332288; fill-opacity: 0.6; stroke: #ffffff; stroke-opacity: 0.6; stroke-width: 0.339411"/>
    <path d="M 88.948962 38.060817 
L 90.748962 35.060817 
L 88.948962 32.060817 
L 87.148962 35.060817 
z
" clip-path="url(#p1cd9ae1106)" style="fill: #332288; fill-opacity: 0.6; stroke: #ffffff; stroke-opacity: 0.6; stroke-width: 0.339411"/>
    <path d="M 171.484791 82.883356 
L 173.284791 79.883356 
L 171.484791 76.883356 
L 169.684791 79.883356 
z
" clip-path="url(#p1cd9ae1106)" style="fill: #332288; fill-opacity: 0.6; stroke: #ffffff; stroke-opacity: 0.6; stroke-width: 0.339411"/>
    <path d="M 98.14133 45.532619 
L 99.94133 42.532619 
L 98.14133 39.532619 
L 96.34133 42.532619 
z
" clip-path="url(#p1cd9ae1106)" style="fill: #332288; fill-opacity: 0.6; stroke: #ffffff; stroke-opacity: 0.6; stroke-width: 0.339411"/>
    <path d="M 91.112096 42.963017 
L 92.912096 39.963017 
L 91.112096 36.963017 
L 89.312096 39.963017 
z
" clip-path="url(#p1cd9ae1106)" style="fill: #332288; fill-opacity: 0.6; stroke: #ffffff; stroke-opacity: 0.6; stroke-width: 0.339411"/>
    <path d="M 88.678469 47.747372 
L 90.478469 44.747372 
L 88.678469 41.747372 
L 86.878469 44.747372 
z
" clip-path="url(#p1cd9ae1106)" style="fill: #332288; fill-opacity: 0.6; stroke: #ffffff; stroke-opacity: 0.6; stroke-width: 0.339411"/>
    <path d="M 144.66108 79.213645 
L 146.46108 76.213645 
L 144.66108 73.213645 
L 142.86108 76.213645 
z
" clip-path="url(#p1cd9ae1106)" style="fill: #332288; fill-opacity: 0.6; stroke: #ffffff; stroke-opacity: 0.6; stroke-width: 0.339411"/>
    <path d="M 84.913261 48.1085 
L 86.713261 45.1085 
L 84.913261 42.1085 
L 83.113261 45.1085 
z
" clip-path="url(#p1cd9ae1106)" style="fill: #332288; fill-opacity: 0.6; stroke: #ffffff; stroke-opacity: 0.6; stroke-width: 0.339411"/>
    <path d="M 94.892173 47.719205 
L 96.692173 44.719205 
L 94.892173 41.719205 
L 93.092173 44.719205 
z
" clip-path="url(#p1cd9ae1106)" style="fill: #332288; fill-opacity: 0.6; stroke: #ffffff; stroke-opacity: 0.6; stroke-width: 0.339411"/>
    <path d="M 80.964915 36.297122 
L 82.764915 33.297122 
L 80.964915 30.297122 
L 79.164915 33.297122 
z
" clip-path="url(#p1cd9ae1106)" style="fill: #332288; fill-opacity: 0.6; stroke: #ffffff; stroke-opacity: 0.6; stroke-width: 0.339411"/>
    <path d="M 80.105299 41.099008 
L 81.905299 38.099008 
L 80.105299 35.099008 
L 78.305299 38.099008 
z
" clip-path="url(#p1cd9ae1106)" style="fill: #332288; fill-opacity: 0.6; stroke: #ffffff; stroke-opacity: 0.6; stroke-width: 0.339411"/>
    <path d="M 128.188143 65.606039 
L 129.988143 62.606039 
L 128.188143 59.606039 
L 126.388143 62.606039 
z
" clip-path="url(#p1cd9ae1106)" style="fill: #332288; fill-opacity: 0.6; stroke: #ffffff; stroke-opacity: 0.6; stroke-width: 0.339411"/>
    <path d="M 93.413335 42.400198 
L 95.213335 39.400198 
L 93.413335 36.400198 
L 91.613335 39.400198 
z
" clip-path="url(#p1cd9ae1106)" style="fill: #332288; fill-opacity: 0.6; stroke: #ffffff; stroke-opacity: 0.6; stroke-width: 0.339411"/>
    <path d="M 88.190249 38.219017 
L 89.990249 35.219017 
L 88.190249 32.219017 
L 86.390249 35.219017 
z
" clip-path="url(#p1cd9ae1106)" style="fill: #332288; fill-opacity: 0.6; stroke: #ffffff; stroke-opacity: 0.6; stroke-width: 0.339411"/>
    <path d="M 99.463928 47.013293 
L 101.263928 44.013293 
L 99.463928 41.013293 
L 97.663928 44.013293 
z
" clip-path="url(#p1cd9ae1106)" style="fill: #332288; fill-opacity: 0.6; stroke: #ffffff; stroke-opacity: 0.6; stroke-width: 0.339411"/>
    <path d="M 93.740608 39.861018 
L 95.540608 36.861018 
L 93.740608 33.861018 
L 91.940608 36.861018 
z
" clip-path="url(#p1cd9ae1106)" style="fill: #332288; fill-opacity: 0.6; stroke: #ffffff; stroke-opacity: 0.6; stroke-width: 0.339411"/>
    <path d="M 86.405316 46.536468 
L 88.205316 43.536468 
L 86.405316 40.536468 
L 84.605316 43.536468 
z
" clip-path="url(#p1cd9ae1106)" style="fill: #332288; fill-opacity: 0.6; stroke: #ffffff; stroke-opacity: 0.6; stroke-width: 0.339411"/>
    <path d="M 83.598703 47.82914 
L 85.398703 44.82914 
L 83.598703 41.82914 
L 81.798703 44.82914 
z
" clip-path="url(#p1cd9ae1106)" style="fill: #332288; fill-opacity: 0.6; stroke: #ffffff; stroke-opacity: 0.6; stroke-width: 0.339411"/>
    <path d="M 126.216641 66.155738 
L 128.016641 63.155738 
L 126.216641 60.155738 
L 124.416641 63.155738 
z
" clip-path="url(#p1cd9ae1106)" style="fill: #332288; fill-opacity: 0.6; stroke: #ffffff; stroke-opacity: 0.6; stroke-width: 0.339411"/>
    <path d="M 82.934896 36.787201 
L 84.734896 33.787201 
L 82.934896 30.787201 
L 81.134896 33.787201 
z
" clip-path="url(#p1cd9ae1106)" style="fill: #332288; fill-opacity: 0.6; stroke: #ffffff; stroke-opacity: 0.6; stroke-width: 0.339411"/>
    <path d="M 170.296898 65.245213 
L 168.175577 69.487853 
L 172.418218 69.487853 
z
" clip-path="url(#p1cd9ae1106)" style="fill: #117733; fill-opacity: 0.6; stroke: #ffffff; stroke-opacity: 0.6; stroke-width: 0.339411"/>
    <path d="M 153.067971 76.732057 
L 150.94665 80.974698 
L 155.189291 80.974698 
z
" clip-path="url(#p1cd9ae1106)" style="fill: #117733; fill-opacity: 0.6; stroke: #ffffff; stroke-opacity: 0.6; stroke-width: 0.339411"/>
    <path d="M 173.054819 67.265473 
L 170.933499 71.508114 
L 175.176139 71.508114 
z
" clip-path="url(#p1cd9ae1106)" style="fill: #117733; fill-opacity: 0.6; stroke: #ffffff; stroke-opacity: 0.6; stroke-width: 0.339411"/>
    <path d="M 167.764309 64.323394 
L 165.642989 68.566035 
L 169.88563 68.566035 
z
" clip-path="url(#p1cd9ae1106)" style="fill: #117733; fill-opacity: 0.6; stroke: #ffffff; stroke-opacity: 0.6; stroke-width: 0.339411"/>
    <path d="M 123.923229 64.373305 
L 121.801909 68.615945 
L 126.044549 68.615945 
z
" clip-path="url(#p1cd9ae1106)" style="fill: #117733; fill-opacity: 0.6; stroke: #ffffff; stroke-opacity: 0.6; stroke-width: 0.339411"/>
    <path d="M 155.900424 76.974933 
L 153.779104 81.217574 
L 158.021744 81.217574 
z
" clip-path="url(#p1cd9ae1106)" style="fill: #117733; fill-opacity: 0.6; stroke: #ffffff; stroke-opacity: 0.6; stroke-width: 0.339411"/>
    <path d="M 121.503899 66.53098 
L 119.382579 70.773621 
L 123.625219 70.773621 
z
" clip-path="url(#p1cd9ae1106)" style="fill: #117733; fill-opacity: 0.6; stroke: #ffffff; stroke-opacity: 0.6; stroke-width: 0.339411"/>
    <path d="M 156.242234 72.034865 
L 154.120914 76.277505 
L 158.363554 76.277505 
z
" clip-path="url(#p1cd9ae1106)" style="fill: #117733; fill-opacity: 0.6; stroke: #ffffff; stroke-opacity: 0.6; stroke-width: 0.339411"/>
    <path d="M 158.367764 75.600577 
L 156.246444 79.843218 
L 160.489084 79.843218 
z
" clip-path="url(#p1cd9ae1106)" style="fill: #117733; fill-opacity: 0.6; stroke: #ffffff; stroke-opacity: 0.6; stroke-width: 0.339411"/>
    <path d="M 176.341684 71.120147 
L 174.220364 75.362787 
L 178.463004 75.362787 
z
" clip-path="url(#p1cd9ae1106)" style="fill: #117733; fill-opacity: 0.6; stroke: #ffffff; stroke-opacity: 0.6; stroke-width: 0.339411"/>
    <path d="M 177.680752 74.185808 
L 175.559431 78.428449 
L 179.802072 78.428449 
z
" clip-path="url(#p1cd9ae1106)" style="fill: #117733; fill-opacity: 0.6; stroke: #ffffff; stroke-opacity: 0.6; stroke-width: 0.339411"/>
    <path d="M 124.628567 69.552693 
L 122.507247 73.795334 
L 126.749887 73.795334 
z
" clip-path="url(#p1cd9ae1106)" style="fill: #117733; fill-opacity: 0.6; stroke: #ffffff; stroke-opacity: 0.6; stroke-width: 0.339411"/>
    <path d="M 152.844284 76.772714 
L 150.722964 81.015354 
L 154.965604 81.015354 
z
" clip-path="url(#p1cd9ae1106)" style="fill: #117733; fill-opacity: 0.6; stroke: #ffffff; stroke-opacity: 0.6; stroke-width: 0.339411"/>
    <path d="M 177.882398 72.268554 
L 175.761078 76.511195 
L 180.003718 76.511195 
z
" clip-path="url(#p1cd9ae1106)" style="fill: #117733; fill-opacity: 0.6; stroke: #ffffff; stroke-opacity: 0.6; stroke-width: 0.339411"/>
    <path d="M 162.90776 64.827953 
L 160.78644 69.070594 
L 165.02908 69.070594 
z
" clip-path="url(#p1cd9ae1106)" style="fill: #117733; fill-opacity: 0.6; stroke: #ffffff; stroke-opacity: 0.6; stroke-width: 0.339411"/>
    <path d="M 176.009965 73.536542 
L 173.888645 77.779183 
L 178.131285 77.779183 
z
" clip-path="url(#p1cd9ae1106)" style="fill: #117733; fill-opacity: 0.6; stroke: #ffffff; stroke-opacity: 0.6; stroke-width: 0.339411"/>
    <path d="M 124.865692 67.511507 
L 122.744372 71.754148 
L 126.987013 71.754148 
z
" clip-path="url(#p1cd9ae1106)" style="fill: #117733; fill-opacity: 0.6; stroke: #ffffff; stroke-opacity: 0.6; stroke-width: 0.339411"/>
    <path d="M 187.719363 56.320979 
L 185.598043 60.563619 
L 189.840684 60.563619 
z
" clip-path="url(#p1cd9ae1106)" style="fill: #117733; fill-opacity: 0.6; stroke: #ffffff; stroke-opacity: 0.6; stroke-width: 0.339411"/>
    <path d="M 126.20423 65.360606 
L 124.08291 69.603246 
L 128.325551 69.603246 
z
" clip-path="url(#p1cd9ae1106)" style="fill: #117733; fill-opacity: 0.6; stroke: #ffffff; stroke-opacity: 0.6; stroke-width: 0.339411"/>
    <path d="M 157.43466 73.645472 
L 155.31334 77.888113 
L 159.555981 77.888113 
z
" clip-path="url(#p1cd9ae1106)" style="fill: #117733; fill-opacity: 0.6; stroke: #ffffff; stroke-opacity: 0.6; stroke-width: 0.339411"/>
    <path d="M 173.128685 72.90025 
L 171.007365 77.142891 
L 175.250006 77.142891 
z
" clip-path="url(#p1cd9ae1106)" style="fill: #117733; fill-opacity: 0.6; stroke: #ffffff; stroke-opacity: 0.6; stroke-width: 0.339411"/>
    <path d="M 150.755811 74.842828 
L 148.63449 79.085469 
L 152.877131 79.085469 
z
" clip-path="url(#p1cd9ae1106)" style="fill: #117733; fill-opacity: 0.6; stroke: #ffffff; stroke-opacity: 0.6; stroke-width: 0.339411"/>
    <path d="M 126.233018 63.24492 
L 124.111697 67.487561 
L 128.354338 67.487561 
z
" clip-path="url(#p1cd9ae1106)" style="fill: #117733; fill-opacity: 0.6; stroke: #ffffff; stroke-opacity: 0.6; stroke-width: 0.339411"/>
    <path d="M 144.974825 75.408516 
L 142.853504 79.651157 
L 147.096145 79.651157 
z
" clip-path="url(#p1cd9ae1106)" style="fill: #117733; fill-opacity: 0.6; stroke: #ffffff; stroke-opacity: 0.6; stroke-width: 0.339411"/>
    <path d="M 156.043643 74.934612 
L 153.922323 79.177253 
L 158.164964 79.177253 
z
" clip-path="url(#p1cd9ae1106)" style="fill: #117733; fill-opacity: 0.6; stroke: #ffffff; stroke-opacity: 0.6; stroke-width: 0.339411"/>
    <path d="M 160.34499 73.728643 
L 158.22367 77.971283 
L 162.466311 77.971283 
z
" clip-path="url(#p1cd9ae1106)" style="fill: #117733; fill-opacity: 0.6; stroke: #ffffff; stroke-opacity: 0.6; stroke-width: 0.339411"/>
    <path d="M 146.262425 76.207198 
L 144.141105 80.449839 
L 148.383746 80.449839 
z
" clip-path="url(#p1cd9ae1106)" style="fill: #117733; fill-opacity: 0.6; stroke: #ffffff; stroke-opacity: 0.6; stroke-width: 0.339411"/>
    <path d="M 168.300954 81.628924 
L 166.179634 85.871565 
L 170.422275 85.871565 
z
" clip-path="url(#p1cd9ae1106)" style="fill: #117733; fill-opacity: 0.6; stroke: #ffffff; stroke-opacity: 0.6; stroke-width: 0.339411"/>
    <path d="M 122.694061 68.917822 
L 120.572741 73.160462 
L 124.815382 73.160462 
z
" clip-path="url(#p1cd9ae1106)" style="fill: #117733; fill-opacity: 0.6; stroke: #ffffff; stroke-opacity: 0.6; stroke-width: 0.339411"/>
    <path d="M 155.482437 76.328737 
L 153.361117 80.571378 
L 157.603757 80.571378 
z
" clip-path="url(#p1cd9ae1106)" style="fill: #117733; fill-opacity: 0.6; stroke: #ffffff; stroke-opacity: 0.6; stroke-width: 0.339411"/>
    <path d="M 153.335192 72.12128 
L 151.213871 76.36392 
L 155.456512 76.36392 
z
" clip-path="url(#p1cd9ae1106)" style="fill: #117733; fill-opacity: 0.6; stroke: #ffffff; stroke-opacity: 0.6; stroke-width: 0.339411"/>
    <path d="M 150.804103 69.441731 
L 148.682782 73.684372 
L 152.925423 73.684372 
z
" clip-path="url(#p1cd9ae1106)" style="fill: #117733; fill-opacity: 0.6; stroke: #ffffff; stroke-opacity: 0.6; stroke-width: 0.339411"/>
    <path d="M 157.624566 72.044714 
L 155.503245 76.287355 
L 159.745886 76.287355 
z
" clip-path="url(#p1cd9ae1106)" style="fill: #117733; fill-opacity: 0.6; stroke: #ffffff; stroke-opacity: 0.6; stroke-width: 0.339411"/>
    <path d="M 176.043711 78.308919 
L 173.92239 82.55156 
L 178.165031 82.55156 
z
" clip-path="url(#p1cd9ae1106)" style="fill: #117733; fill-opacity: 0.6; stroke: #ffffff; stroke-opacity: 0.6; stroke-width: 0.339411"/>
    <path d="M 119.733058 65.539552 
L 117.611738 69.782193 
L 121.854379 69.782193 
z
" clip-path="url(#p1cd9ae1106)" style="fill: #117733; fill-opacity: 0.6; stroke: #ffffff; stroke-opacity: 0.6; stroke-width: 0.339411"/>
    <path d="M 154.218358 75.881473 
L 152.097038 80.124114 
L 156.339679 80.124114 
z
" clip-path="url(#p1cd9ae1106)" style="fill: #117733; fill-opacity: 0.6; stroke: #ffffff; stroke-opacity: 0.6; stroke-width: 0.339411"/>
    <path d="M 120.278491 68.053107 
L 118.157171 72.295747 
L 122.399811 72.295747 
z
" clip-path="url(#p1cd9ae1106)" style="fill: #117733; fill-opacity: 0.6; stroke: #ffffff; stroke-opacity: 0.6; stroke-width: 0.339411"/>
    <path d="M 175.039417 71.513961 
L 172.918097 75.756602 
L 177.160738 75.756602 
z
" clip-path="url(#p1cd9ae1106)" style="fill: #117733; fill-opacity: 0.6; stroke: #ffffff; stroke-opacity: 0.6; stroke-width: 0.339411"/>
    <path d="M 121.276312 68.096682 
L 119.154991 72.339323 
L 123.397632 72.339323 
z
" clip-path="url(#p1cd9ae1106)" style="fill: #117733; fill-opacity: 0.6; stroke: #ffffff; stroke-opacity: 0.6; stroke-width: 0.339411"/>
    <path d="M 169.821242 67.942514 
L 167.699921 72.185154 
L 171.942562 72.185154 
z
" clip-path="url(#p1cd9ae1106)" style="fill: #117733; fill-opacity: 0.6; stroke: #ffffff; stroke-opacity: 0.6; stroke-width: 0.339411"/>
    <path d="M 175.298386 76.780684 
L 173.177066 81.023325 
L 177.419707 81.023325 
z
" clip-path="url(#p1cd9ae1106)" style="fill: #117733; fill-opacity: 0.6; stroke: #ffffff; stroke-opacity: 0.6; stroke-width: 0.339411"/>
    <path d="M 172.88248 73.888276 
L 170.761159 78.130917 
L 175.0038 78.130917 
z
" clip-path="url(#p1cd9ae1106)" style="fill: #117733; fill-opacity: 0.6; stroke: #ffffff; stroke-opacity: 0.6; stroke-width: 0.339411"/>
    <path d="M 172.884468 84.402651 
L 170.763148 88.645292 
L 175.005789 88.645292 
z
" clip-path="url(#p1cd9ae1106)" style="fill: #117733; fill-opacity: 0.6; stroke: #ffffff; stroke-opacity: 0.6; stroke-width: 0.339411"/>
    <path d="M 146.955019 74.988244 
L 144.833699 79.230884 
L 149.07634 79.230884 
z
" clip-path="url(#p1cd9ae1106)" style="fill: #117733; fill-opacity: 0.6; stroke: #ffffff; stroke-opacity: 0.6; stroke-width: 0.339411"/>
    <path d="M 171.930018 70.589152 
L 169.808698 74.831792 
L 174.051339 74.831792 
z
" clip-path="url(#p1cd9ae1106)" style="fill: #117733; fill-opacity: 0.6; stroke: #ffffff; stroke-opacity: 0.6; stroke-width: 0.339411"/>
    <path d="M 123.595125 65.086942 
L 121.473805 69.329583 
L 125.716445 69.329583 
z
" clip-path="url(#p1cd9ae1106)" style="fill: #117733; fill-opacity: 0.6; stroke: #ffffff; stroke-opacity: 0.6; stroke-width: 0.339411"/>
    <path d="M 169.046835 71.485895 
L 166.925514 75.728536 
L 171.168155 75.728536 
z
" clip-path="url(#p1cd9ae1106)" style="fill: #117733; fill-opacity: 0.6; stroke: #ffffff; stroke-opacity: 0.6; stroke-width: 0.339411"/>
    <path d="M 122.085455 66.034945 
L 119.964135 70.277585 
L 124.206775 70.277585 
z
" clip-path="url(#p1cd9ae1106)" style="fill: #117733; fill-opacity: 0.6; stroke: #ffffff; stroke-opacity: 0.6; stroke-width: 0.339411"/>
    <path d="M 147.586167 73.889104 
L 145.464846 78.131744 
L 149.707487 78.131744 
z
" clip-path="url(#p1cd9ae1106)" style="fill: #117733; fill-opacity: 0.6; stroke: #ffffff; stroke-opacity: 0.6; stroke-width: 0.339411"/>
    <path d="M 124.847835 69.104619 
L 122.726515 73.34726 
L 126.969155 73.34726 
z
" clip-path="url(#p1cd9ae1106)" style="fill: #117733; fill-opacity: 0.6; stroke: #ffffff; stroke-opacity: 0.6; stroke-width: 0.339411"/>
    <path d="M 124.058355 67.431385 
L 121.937035 71.674026 
L 126.179676 71.674026 
z
" clip-path="url(#p1cd9ae1106)" style="fill: #117733; fill-opacity: 0.6; stroke: #ffffff; stroke-opacity: 0.6; stroke-width: 0.339411"/>
    <path d="M 120.001654 68.675157 
L 117.880333 72.917798 
L 122.122974 72.917798 
z
" clip-path="url(#p1cd9ae1106)" style="fill: #117733; fill-opacity: 0.6; stroke: #ffffff; stroke-opacity: 0.6; stroke-width: 0.339411"/>
    <path d="M 183.933554 52.395372 
L 181.812234 56.638013 
L 186.054875 56.638013 
z
" clip-path="url(#p1cd9ae1106)" style="fill: #117733; fill-opacity: 0.6; stroke: #ffffff; stroke-opacity: 0.6; stroke-width: 0.339411"/>
    <path d="M 127.393171 64.259856 
L 125.271851 68.502496 
L 129.514492 68.502496 
z
" clip-path="url(#p1cd9ae1106)" style="fill: #117733; fill-opacity: 0.6; stroke: #ffffff; stroke-opacity: 0.6; stroke-width: 0.339411"/>
    <path d="M 167.114205 55.840953 
L 164.992885 60.083594 
L 169.235526 60.083594 
z
" clip-path="url(#p1cd9ae1106)" style="fill: #117733; fill-opacity: 0.6; stroke: #ffffff; stroke-opacity: 0.6; stroke-width: 0.339411"/>
    <path d="M 123.516062 68.362839 
L 121.394742 72.605479 
L 125.637383 72.605479 
z
" clip-path="url(#p1cd9ae1106)" style="fill: #117733; fill-opacity: 0.6; stroke: #ffffff; stroke-opacity: 0.6; stroke-width: 0.339411"/>
    <path d="M 155.389455 73.611719 
L 153.268134 77.85436 
L 157.510775 77.85436 
z
" clip-path="url(#p1cd9ae1106)" style="fill: #117733; fill-opacity: 0.6; stroke: #ffffff; stroke-opacity: 0.6; stroke-width: 0.339411"/>
    <path d="M 161.288639 68.717925 
L 159.167318 72.960566 
L 163.409959 72.960566 
z
" clip-path="url(#p1cd9ae1106)" style="fill: #117733; fill-opacity: 0.6; stroke: #ffffff; stroke-opacity: 0.6; stroke-width: 0.339411"/>
    <path d="M 174.115747 77.108089 
L 171.994427 81.350729 
L 176.237067 81.350729 
z
" clip-path="url(#p1cd9ae1106)" style="fill: #117733; fill-opacity: 0.6; stroke: #ffffff; stroke-opacity: 0.6; stroke-width: 0.339411"/>
    <path d="M 176.052798 68.162678 
L 173.931477 72.405318 
L 178.174118 72.405318 
z
" clip-path="url(#p1cd9ae1106)" style="fill: #117733; fill-opacity: 0.6; stroke: #ffffff; stroke-opacity: 0.6; stroke-width: 0.339411"/>
    <path d="M 168.602068 66.516196 
L 166.480748 70.758837 
L 170.723388 70.758837 
z
" clip-path="url(#p1cd9ae1106)" style="fill: #117733; fill-opacity: 0.6; stroke: #ffffff; stroke-opacity: 0.6; stroke-width: 0.339411"/>
    <path d="M 127.745549 62.718404 
L 125.624228 66.961045 
L 129.866869 66.961045 
z
" clip-path="url(#p1cd9ae1106)" style="fill: #117733; fill-opacity: 0.6; stroke: #ffffff; stroke-opacity: 0.6; stroke-width: 0.339411"/>
    <path d="M 187.550157 53.181086 
L 185.428837 57.423727 
L 189.671477 57.423727 
z
" clip-path="url(#p1cd9ae1106)" style="fill: #117733; fill-opacity: 0.6; stroke: #ffffff; stroke-opacity: 0.6; stroke-width: 0.339411"/>
    <path d="M 143.333132 77.596206 
L 147.575773 77.596206 
L 147.575773 73.353565 
L 143.333132 73.353565 
z
" clip-path="url(#p1cd9ae1106)" style="fill: #44aa99; fill-opacity: 0.6; stroke: #ffffff; stroke-opacity: 0.6; stroke-width: 0.339411"/>
    <path d="M 104.2792 101.577498 
L 108.521841 101.577498 
L 108.521841 97.334857 
L 104.2792 97.334857 
z
" clip-path="url(#p1cd9ae1106)" style="fill: #44aa99; fill-opacity: 0.6; stroke: #ffffff; stroke-opacity: 0.6; stroke-width: 0.339411"/>
    <path d="M 167.305499 79.132494 
L 171.54814 79.132494 
L 171.54814 74.889853 
L 167.305499 74.889853 
z
" clip-path="url(#p1cd9ae1106)" style="fill: #44aa99; fill-opacity: 0.6; stroke: #ffffff; stroke-opacity: 0.6; stroke-width: 0.339411"/>
    <path d="M 152.068928 63.95613 
L 156.311568 63.95613 
L 156.311568 59.713489 
L 152.068928 59.713489 
z
" clip-path="url(#p1cd9ae1106)" style="fill: #44aa99; fill-opacity: 0.6; stroke: #ffffff; stroke-opacity: 0.6; stroke-width: 0.339411"/>
    <path d="M 153.473145 65.02952 
L 157.715786 65.02952 
L 157.715786 60.786879 
L 153.473145 60.786879 
z
" clip-path="url(#p1cd9ae1106)" style="fill: #44aa99; fill-opacity: 0.6; stroke: #ffffff; stroke-opacity: 0.6; stroke-width: 0.339411"/>
    <path d="M 103.83241 94.860436 
L 108.075051 94.860436 
L 108.075051 90.617796 
L 103.83241 90.617796 
z
" clip-path="url(#p1cd9ae1106)" style="fill: #44aa99; fill-opacity: 0.6; stroke: #ffffff; stroke-opacity: 0.6; stroke-width: 0.339411"/>
    <path d="M 151.923263 70.292185 
L 156.165904 70.292185 
L 156.165904 66.049544 
L 151.923263 66.049544 
z
" clip-path="url(#p1cd9ae1106)" style="fill: #44aa99; fill-opacity: 0.6; stroke: #ffffff; stroke-opacity: 0.6; stroke-width: 0.339411"/>
    <path d="M 172.735773 80.711616 
L 176.978414 80.711616 
L 176.978414 76.468976 
L 172.735773 76.468976 
z
" clip-path="url(#p1cd9ae1106)" style="fill: #44aa99; fill-opacity: 0.6; stroke: #ffffff; stroke-opacity: 0.6; stroke-width: 0.339411"/>
    <path d="M 105.140419 97.640439 
L 109.38306 97.640439 
L 109.38306 93.397798 
L 105.140419 93.397798 
z
" clip-path="url(#p1cd9ae1106)" style="fill: #44aa99; fill-opacity: 0.6; stroke: #ffffff; stroke-opacity: 0.6; stroke-width: 0.339411"/>
    <path d="M 161.745054 60.854968 
L 165.987695 60.854968 
L 165.987695 56.612327 
L 161.745054 56.612327 
z
" clip-path="url(#p1cd9ae1106)" style="fill: #44aa99; fill-opacity: 0.6; stroke: #ffffff; stroke-opacity: 0.6; stroke-width: 0.339411"/>
    <path d="M 151.308683 67.644675 
L 155.551324 67.644675 
L 155.551324 63.402034 
L 151.308683 63.402034 
z
" clip-path="url(#p1cd9ae1106)" style="fill: #44aa99; fill-opacity: 0.6; stroke: #ffffff; stroke-opacity: 0.6; stroke-width: 0.339411"/>
    <path d="M 151.746223 65.061351 
L 155.988864 65.061351 
L 155.988864 60.81871 
L 151.746223 60.81871 
z
" clip-path="url(#p1cd9ae1106)" style="fill: #44aa99; fill-opacity: 0.6; stroke: #ffffff; stroke-opacity: 0.6; stroke-width: 0.339411"/>
    <path d="M 182.256016 56.103476 
L 186.498657 56.103476 
L 186.498657 51.860835 
L 182.256016 51.860835 
z
" clip-path="url(#p1cd9ae1106)" style="fill: #44aa99; fill-opacity: 0.6; stroke: #ffffff; stroke-opacity: 0.6; stroke-width: 0.339411"/>
    <path d="M 169.561196 86.317151 
L 173.803837 86.317151 
L 173.803837 82.074511 
L 169.561196 82.074511 
z
" clip-path="url(#p1cd9ae1106)" style="fill: #44aa99; fill-opacity: 0.6; stroke: #ffffff; stroke-opacity: 0.6; stroke-width: 0.339411"/>
    <path d="M 105.291105 98.295738 
L 109.533746 98.295738 
L 109.533746 94.053098 
L 105.291105 94.053098 
z
" clip-path="url(#p1cd9ae1106)" style="fill: #44aa99; fill-opacity: 0.6; stroke: #ffffff; stroke-opacity: 0.6; stroke-width: 0.339411"/>
    <path d="M 149.173996 66.534639 
L 153.416637 66.534639 
L 153.416637 62.291998 
L 149.173996 62.291998 
z
" clip-path="url(#p1cd9ae1106)" style="fill: #44aa99; fill-opacity: 0.6; stroke: #ffffff; stroke-opacity: 0.6; stroke-width: 0.339411"/>
    <path d="M 105.711896 100.451061 
L 109.954537 100.451061 
L 109.954537 96.20842 
L 105.711896 96.20842 
z
" clip-path="url(#p1cd9ae1106)" style="fill: #44aa99; fill-opacity: 0.6; stroke: #ffffff; stroke-opacity: 0.6; stroke-width: 0.339411"/>
    <path d="M 150.746934 63.911204 
L 154.989575 63.911204 
L 154.989575 59.668563 
L 150.746934 59.668563 
z
" clip-path="url(#p1cd9ae1106)" style="fill: #44aa99; fill-opacity: 0.6; stroke: #ffffff; stroke-opacity: 0.6; stroke-width: 0.339411"/>
    <path d="M 173.918791 79.100757 
L 178.161432 79.100757 
L 178.161432 74.858116 
L 173.918791 74.858116 
z
" clip-path="url(#p1cd9ae1106)" style="fill: #44aa99; fill-opacity: 0.6; stroke: #ffffff; stroke-opacity: 0.6; stroke-width: 0.339411"/>
    <path d="M 157.171931 68.143995 
L 161.414571 68.143995 
L 161.414571 63.901355 
L 157.171931 63.901355 
z
" clip-path="url(#p1cd9ae1106)" style="fill: #44aa99; fill-opacity: 0.6; stroke: #ffffff; stroke-opacity: 0.6; stroke-width: 0.339411"/>
    <path d="M 186.735789 59.318446 
L 190.978429 59.318446 
L 190.978429 55.075805 
L 186.735789 55.075805 
z
" clip-path="url(#p1cd9ae1106)" style="fill: #44aa99; fill-opacity: 0.6; stroke: #ffffff; stroke-opacity: 0.6; stroke-width: 0.339411"/>
    <path d="M 168.433028 87.060512 
L 172.675669 87.060512 
L 172.675669 82.817871 
L 168.433028 82.817871 
z
" clip-path="url(#p1cd9ae1106)" style="fill: #44aa99; fill-opacity: 0.6; stroke: #ffffff; stroke-opacity: 0.6; stroke-width: 0.339411"/>
    <path d="M 168.637441 88.871014 
L 172.880082 88.871014 
L 172.880082 84.628373 
L 168.637441 84.628373 
z
" clip-path="url(#p1cd9ae1106)" style="fill: #44aa99; fill-opacity: 0.6; stroke: #ffffff; stroke-opacity: 0.6; stroke-width: 0.339411"/>
    <path d="M 153.465593 66.576938 
L 157.708234 66.576938 
L 157.708234 62.334297 
L 153.465593 62.334297 
z
" clip-path="url(#p1cd9ae1106)" style="fill: #44aa99; fill-opacity: 0.6; stroke: #ffffff; stroke-opacity: 0.6; stroke-width: 0.339411"/>
    <path d="M 167.646105 81.933581 
L 171.888746 81.933581 
L 171.888746 77.690941 
L 167.646105 77.690941 
z
" clip-path="url(#p1cd9ae1106)" style="fill: #44aa99; fill-opacity: 0.6; stroke: #ffffff; stroke-opacity: 0.6; stroke-width: 0.339411"/>
    <path d="M 101.856265 99.484036 
L 106.098906 99.484036 
L 106.098906 95.241396 
L 101.856265 95.241396 
z
" clip-path="url(#p1cd9ae1106)" style="fill: #44aa99; fill-opacity: 0.6; stroke: #ffffff; stroke-opacity: 0.6; stroke-width: 0.339411"/>
    <path d="M 165.092407 71.225608 
L 169.335048 71.225608 
L 169.335048 66.982967 
L 165.092407 66.982967 
z
" clip-path="url(#p1cd9ae1106)" style="fill: #44aa99; fill-opacity: 0.6; stroke: #ffffff; stroke-opacity: 0.6; stroke-width: 0.339411"/>
    <path d="M 170.945526 81.562051 
L 175.188167 81.562051 
L 175.188167 77.31941 
L 170.945526 77.31941 
z
" clip-path="url(#p1cd9ae1106)" style="fill: #44aa99; fill-opacity: 0.6; stroke: #ffffff; stroke-opacity: 0.6; stroke-width: 0.339411"/>
    <path d="M 163.792022 61.889767 
L 168.034663 61.889767 
L 168.034663 57.647126 
L 163.792022 57.647126 
z
" clip-path="url(#p1cd9ae1106)" style="fill: #44aa99; fill-opacity: 0.6; stroke: #ffffff; stroke-opacity: 0.6; stroke-width: 0.339411"/>
    <path d="M 174.892559 73.161858 
L 179.1352 73.161858 
L 179.1352 68.919217 
L 174.892559 68.919217 
z
" clip-path="url(#p1cd9ae1106)" style="fill: #44aa99; fill-opacity: 0.6; stroke: #ffffff; stroke-opacity: 0.6; stroke-width: 0.339411"/>
    <path d="M 156.105874 71.16503 
L 160.348514 71.16503 
L 160.348514 66.922389 
L 156.105874 66.922389 
z
" clip-path="url(#p1cd9ae1106)" style="fill: #44aa99; fill-opacity: 0.6; stroke: #ffffff; stroke-opacity: 0.6; stroke-width: 0.339411"/>
    <path d="M 153.247638 63.190748 
L 157.490278 63.190748 
L 157.490278 58.948107 
L 153.247638 58.948107 
z
" clip-path="url(#p1cd9ae1106)" style="fill: #44aa99; fill-opacity: 0.6; stroke: #ffffff; stroke-opacity: 0.6; stroke-width: 0.339411"/>
    <path d="M 162.695083 60.525368 
L 166.937724 60.525368 
L 166.937724 56.282727 
L 162.695083 56.282727 
z
" clip-path="url(#p1cd9ae1106)" style="fill: #44aa99; fill-opacity: 0.6; stroke: #ffffff; stroke-opacity: 0.6; stroke-width: 0.339411"/>
    <path d="M 168.281948 89.367137 
L 172.524589 89.367137 
L 172.524589 85.124496 
L 168.281948 85.124496 
z
" clip-path="url(#p1cd9ae1106)" style="fill: #44aa99; fill-opacity: 0.6; stroke: #ffffff; stroke-opacity: 0.6; stroke-width: 0.339411"/>
    <path d="M 102.100682 96.158755 
L 106.343323 96.158755 
L 106.343323 91.916114 
L 102.100682 91.916114 
z
" clip-path="url(#p1cd9ae1106)" style="fill: #44aa99; fill-opacity: 0.6; stroke: #ffffff; stroke-opacity: 0.6; stroke-width: 0.339411"/>
    <path d="M 151.775926 70.504463 
L 156.018567 70.504463 
L 156.018567 66.261823 
L 151.775926 66.261823 
z
" clip-path="url(#p1cd9ae1106)" style="fill: #44aa99; fill-opacity: 0.6; stroke: #ffffff; stroke-opacity: 0.6; stroke-width: 0.339411"/>
    <path d="M 153.4716 65.858635 
L 157.714241 65.858635 
L 157.714241 61.615994 
L 153.4716 61.615994 
z
" clip-path="url(#p1cd9ae1106)" style="fill: #44aa99; fill-opacity: 0.6; stroke: #ffffff; stroke-opacity: 0.6; stroke-width: 0.339411"/>
    <path d="M 101.756671 98.0199 
L 105.999312 98.0199 
L 105.999312 93.77726 
L 101.756671 93.77726 
z
" clip-path="url(#p1cd9ae1106)" style="fill: #44aa99; fill-opacity: 0.6; stroke: #ffffff; stroke-opacity: 0.6; stroke-width: 0.339411"/>
    <path d="M 169.067855 74.059422 
L 173.310495 74.059422 
L 173.310495 69.816781 
L 169.067855 69.816781 
z
" clip-path="url(#p1cd9ae1106)" style="fill: #44aa99; fill-opacity: 0.6; stroke: #ffffff; stroke-opacity: 0.6; stroke-width: 0.339411"/>
    <path d="M 152.526017 67.727778 
L 156.768658 67.727778 
L 156.768658 63.485137 
L 152.526017 63.485137 
z
" clip-path="url(#p1cd9ae1106)" style="fill: #44aa99; fill-opacity: 0.6; stroke: #ffffff; stroke-opacity: 0.6; stroke-width: 0.339411"/>
    <path d="M 149.265961 65.196079 
L 153.508601 65.196079 
L 153.508601 60.953439 
L 149.265961 60.953439 
z
" clip-path="url(#p1cd9ae1106)" style="fill: #44aa99; fill-opacity: 0.6; stroke: #ffffff; stroke-opacity: 0.6; stroke-width: 0.339411"/>
    <path d="M 102.700394 96.309341 
L 106.943035 96.309341 
L 106.943035 92.0667 
L 102.700394 92.0667 
z
" clip-path="url(#p1cd9ae1106)" style="fill: #44aa99; fill-opacity: 0.6; stroke: #ffffff; stroke-opacity: 0.6; stroke-width: 0.339411"/>
    <path d="M 155.6528 66.183624 
L 159.895441 66.183624 
L 159.895441 61.940984 
L 155.6528 61.940984 
z
" clip-path="url(#p1cd9ae1106)" style="fill: #44aa99; fill-opacity: 0.6; stroke: #ffffff; stroke-opacity: 0.6; stroke-width: 0.339411"/>
    <path d="M 166.064887 79.998408 
L 170.307527 79.998408 
L 170.307527 75.755767 
L 166.064887 75.755767 
z
" clip-path="url(#p1cd9ae1106)" style="fill: #44aa99; fill-opacity: 0.6; stroke: #ffffff; stroke-opacity: 0.6; stroke-width: 0.339411"/>
    <path d="M 170.228734 76.327855 
L 174.471374 76.327855 
L 174.471374 72.085214 
L 170.228734 72.085214 
z
" clip-path="url(#p1cd9ae1106)" style="fill: #44aa99; fill-opacity: 0.6; stroke: #ffffff; stroke-opacity: 0.6; stroke-width: 0.339411"/>
    <path d="M 103.486879 100.858461 
L 107.72952 100.858461 
L 107.72952 96.61582 
L 103.486879 96.61582 
z
" clip-path="url(#p1cd9ae1106)" style="fill: #44aa99; fill-opacity: 0.6; stroke: #ffffff; stroke-opacity: 0.6; stroke-width: 0.339411"/>
    <path d="M 157.84636 66.773246 
L 162.089 66.773246 
L 162.089 62.530605 
L 157.84636 62.530605 
z
" clip-path="url(#p1cd9ae1106)" style="fill: #44aa99; fill-opacity: 0.6; stroke: #ffffff; stroke-opacity: 0.6; stroke-width: 0.339411"/>
    <path d="M 154.590023 68.099074 
L 158.832663 68.099074 
L 158.832663 63.856434 
L 154.590023 63.856434 
z
" clip-path="url(#p1cd9ae1106)" style="fill: #44aa99; fill-opacity: 0.6; stroke: #ffffff; stroke-opacity: 0.6; stroke-width: 0.339411"/>
    <path d="M 150.912175 65.694119 
L 155.154815 65.694119 
L 155.154815 61.451478 
L 150.912175 61.451478 
z
" clip-path="url(#p1cd9ae1106)" style="fill: #44aa99; fill-opacity: 0.6; stroke: #ffffff; stroke-opacity: 0.6; stroke-width: 0.339411"/>
    <path d="M 168.314705 80.162739 
L 172.557345 80.162739 
L 172.557345 75.920099 
L 168.314705 75.920099 
z
" clip-path="url(#p1cd9ae1106)" style="fill: #44aa99; fill-opacity: 0.6; stroke: #ffffff; stroke-opacity: 0.6; stroke-width: 0.339411"/>
    <path d="M 168.10053 79.304188 
L 172.34317 79.304188 
L 172.34317 75.061547 
L 168.10053 75.061547 
z
" clip-path="url(#p1cd9ae1106)" style="fill: #44aa99; fill-opacity: 0.6; stroke: #ffffff; stroke-opacity: 0.6; stroke-width: 0.339411"/>
    <path d="M 160.817686 62.665757 
L 165.060326 62.665757 
L 165.060326 58.423116 
L 160.817686 58.423116 
z
" clip-path="url(#p1cd9ae1106)" style="fill: #44aa99; fill-opacity: 0.6; stroke: #ffffff; stroke-opacity: 0.6; stroke-width: 0.339411"/>
    <path d="M 167.024518 88.33736 
L 171.267159 88.33736 
L 171.267159 84.094719 
L 167.024518 84.094719 
z
" clip-path="url(#p1cd9ae1106)" style="fill: #44aa99; fill-opacity: 0.6; stroke: #ffffff; stroke-opacity: 0.6; stroke-width: 0.339411"/>
    <path d="M 148.946916 64.296771 
L 153.189557 64.296771 
L 153.189557 60.05413 
L 148.946916 60.05413 
z
" clip-path="url(#p1cd9ae1106)" style="fill: #44aa99; fill-opacity: 0.6; stroke: #ffffff; stroke-opacity: 0.6; stroke-width: 0.339411"/>
    <path d="M 161.78192 61.500566 
L 166.024561 61.500566 
L 166.024561 57.257925 
L 161.78192 57.257925 
z
" clip-path="url(#p1cd9ae1106)" style="fill: #44aa99; fill-opacity: 0.6; stroke: #ffffff; stroke-opacity: 0.6; stroke-width: 0.339411"/>
    <path d="M 167.90305 87.608046 
L 172.145691 87.608046 
L 172.145691 83.365405 
L 167.90305 83.365405 
z
" clip-path="url(#p1cd9ae1106)" style="fill: #44aa99; fill-opacity: 0.6; stroke: #ffffff; stroke-opacity: 0.6; stroke-width: 0.339411"/>
    <path d="M 103.204562 100.356497 
L 107.447203 100.356497 
L 107.447203 96.113857 
L 103.204562 96.113857 
z
" clip-path="url(#p1cd9ae1106)" style="fill: #44aa99; fill-opacity: 0.6; stroke: #ffffff; stroke-opacity: 0.6; stroke-width: 0.339411"/>
    <path d="M 103.886311 100.881345 
L 108.128951 100.881345 
L 108.128951 96.638704 
L 103.886311 96.638704 
z
" clip-path="url(#p1cd9ae1106)" style="fill: #44aa99; fill-opacity: 0.6; stroke: #ffffff; stroke-opacity: 0.6; stroke-width: 0.339411"/>
    <path d="M 104.241028 95.423766 
L 108.483669 95.423766 
L 108.483669 91.181125 
L 104.241028 91.181125 
z
" clip-path="url(#p1cd9ae1106)" style="fill: #44aa99; fill-opacity: 0.6; stroke: #ffffff; stroke-opacity: 0.6; stroke-width: 0.339411"/>
    <path d="M 186.209168 52.536999 
L 190.451808 52.536999 
L 190.451808 48.294358 
L 186.209168 48.294358 
z
" clip-path="url(#p1cd9ae1106)" style="fill: #44aa99; fill-opacity: 0.6; stroke: #ffffff; stroke-opacity: 0.6; stroke-width: 0.339411"/>
    <path d="M 185.141929 58.279914 
L 189.38457 58.279914 
L 189.38457 54.037273 
L 185.141929 54.037273 
z
" clip-path="url(#p1cd9ae1106)" style="fill: #44aa99; fill-opacity: 0.6; stroke: #ffffff; stroke-opacity: 0.6; stroke-width: 0.339411"/>
    <path d="M 103.917866 99.933532 
L 108.160506 99.933532 
L 108.160506 95.690891 
L 103.917866 95.690891 
z
" clip-path="url(#p1cd9ae1106)" style="fill: #44aa99; fill-opacity: 0.6; stroke: #ffffff; stroke-opacity: 0.6; stroke-width: 0.339411"/>
    <path d="M 162.369214 77.461956 
L 166.611854 77.461956 
L 166.611854 73.219316 
L 162.369214 73.219316 
z
" clip-path="url(#p1cd9ae1106)" style="fill: #44aa99; fill-opacity: 0.6; stroke: #ffffff; stroke-opacity: 0.6; stroke-width: 0.339411"/>
    <path d="M 180.277418 64.944493 
L 181.338078 63.883832 
L 182.398738 64.944493 
L 183.459399 63.883832 
L 182.398738 62.823172 
L 183.459399 61.762512 
L 182.398738 60.701852 
L 181.338078 61.762512 
L 180.277418 60.701852 
L 179.216758 61.762512 
L 180.277418 62.823172 
L 179.216758 63.883832 
z
" clip-path="url(#p1cd9ae1106)" style="fill: #88ccee; fill-opacity: 0.6; stroke: #ffffff; stroke-opacity: 0.6; stroke-width: 0.339411"/>
    <path d="M 175.725145 80.415216 
L 176.785805 79.354556 
L 177.846465 80.415216 
L 178.907125 79.354556 
L 177.846465 78.293895 
L 178.907125 77.233235 
L 177.846465 76.172575 
L 176.785805 77.233235 
L 175.725145 76.172575 
L 174.664485 77.233235 
L 175.725145 78.293895 
L 174.664485 79.354556 
z
" clip-path="url(#p1cd9ae1106)" style="fill: #88ccee; fill-opacity: 0.6; stroke: #ffffff; stroke-opacity: 0.6; stroke-width: 0.339411"/>
    <path d="M 164.735901 64.215463 
L 165.796561 63.154803 
L 166.857222 64.215463 
L 167.917882 63.154803 
L 166.857222 62.094142 
L 167.917882 61.033482 
L 166.857222 59.972822 
L 165.796561 61.033482 
L 164.735901 59.972822 
L 163.675241 61.033482 
L 164.735901 62.094142 
L 163.675241 63.154803 
z
" clip-path="url(#p1cd9ae1106)" style="fill: #88ccee; fill-opacity: 0.6; stroke: #ffffff; stroke-opacity: 0.6; stroke-width: 0.339411"/>
    <path d="M 186.58854 54.661886 
L 187.649201 53.601225 
L 188.709861 54.661886 
L 189.770521 53.601225 
L 188.709861 52.540565 
L 189.770521 51.479905 
L 188.709861 50.419245 
L 187.649201 51.479905 
L 186.58854 50.419245 
L 185.52788 51.479905 
L 186.58854 52.540565 
L 185.52788 53.601225 
z
" clip-path="url(#p1cd9ae1106)" style="fill: #88ccee; fill-opacity: 0.6; stroke: #ffffff; stroke-opacity: 0.6; stroke-width: 0.339411"/>
    <path d="M 185.366002 59.063689 
L 186.426662 58.003029 
L 187.487322 59.063689 
L 188.547983 58.003029 
L 187.487322 56.942369 
L 188.547983 55.881709 
L 187.487322 54.821048 
L 186.426662 55.881709 
L 185.366002 54.821048 
L 184.305342 55.881709 
L 185.366002 56.942369 
L 184.305342 58.003029 
z
" clip-path="url(#p1cd9ae1106)" style="fill: #88ccee; fill-opacity: 0.6; stroke: #ffffff; stroke-opacity: 0.6; stroke-width: 0.339411"/>
    <path d="M 173.632421 70.223737 
L 174.693081 69.163077 
L 175.753741 70.223737 
L 176.814402 69.163077 
L 175.753741 68.102417 
L 176.814402 67.041756 
L 175.753741 65.981096 
L 174.693081 67.041756 
L 173.632421 65.981096 
L 172.571761 67.041756 
L 173.632421 68.102417 
L 172.571761 69.163077 
z
" clip-path="url(#p1cd9ae1106)" style="fill: #88ccee; fill-opacity: 0.6; stroke: #ffffff; stroke-opacity: 0.6; stroke-width: 0.339411"/>
    <path d="M 185.903674 53.635201 
L 186.964334 52.574541 
L 188.024994 53.635201 
L 189.085654 52.574541 
L 188.024994 51.513881 
L 189.085654 50.453221 
L 188.024994 49.392561 
L 186.964334 50.453221 
L 185.903674 49.392561 
L 184.843014 50.453221 
L 185.903674 51.513881 
L 184.843014 52.574541 
z
" clip-path="url(#p1cd9ae1106)" style="fill: #88ccee; fill-opacity: 0.6; stroke: #ffffff; stroke-opacity: 0.6; stroke-width: 0.339411"/>
    <path d="M 186.822397 61.062337 
L 187.883057 60.001676 
L 188.943717 61.062337 
L 190.004377 60.001676 
L 188.943717 58.941016 
L 190.004377 57.880356 
L 188.943717 56.819696 
L 187.883057 57.880356 
L 186.822397 56.819696 
L 185.761737 57.880356 
L 186.822397 58.941016 
L 185.761737 60.001676 
z
" clip-path="url(#p1cd9ae1106)" style="fill: #88ccee; fill-opacity: 0.6; stroke: #ffffff; stroke-opacity: 0.6; stroke-width: 0.339411"/>
    <path d="M 176.585823 59.31883 
L 177.646483 58.25817 
L 178.707143 59.31883 
L 179.767803 58.25817 
L 178.707143 57.197509 
L 179.767803 56.136849 
L 178.707143 55.076189 
L 177.646483 56.136849 
L 176.585823 55.076189 
L 175.525162 56.136849 
L 176.585823 57.197509 
L 175.525162 58.25817 
z
" clip-path="url(#p1cd9ae1106)" style="fill: #88ccee; fill-opacity: 0.6; stroke: #ffffff; stroke-opacity: 0.6; stroke-width: 0.339411"/>
    <path d="M 178.777209 62.573312 
L 179.837869 61.512652 
L 180.898529 62.573312 
L 181.959189 61.512652 
L 180.898529 60.451992 
L 181.959189 59.391332 
L 180.898529 58.330672 
L 179.837869 59.391332 
L 178.777209 58.330672 
L 177.716549 59.391332 
L 178.777209 60.451992 
L 177.716549 61.512652 
z
" clip-path="url(#p1cd9ae1106)" style="fill: #88ccee; fill-opacity: 0.6; stroke: #ffffff; stroke-opacity: 0.6; stroke-width: 0.339411"/>
    <path d="M 179.917277 58.149657 
L 180.977937 57.088996 
L 182.038597 58.149657 
L 183.099258 57.088996 
L 182.038597 56.028336 
L 183.099258 54.967676 
L 182.038597 53.907016 
L 180.977937 54.967676 
L 179.917277 53.907016 
L 178.856617 54.967676 
L 179.917277 56.028336 
L 178.856617 57.088996 
z
" clip-path="url(#p1cd9ae1106)" style="fill: #88ccee; fill-opacity: 0.6; stroke: #ffffff; stroke-opacity: 0.6; stroke-width: 0.339411"/>
    <path d="M 178.88353 53.30753 
L 179.94419 52.24687 
L 181.00485 53.30753 
L 182.06551 52.24687 
L 181.00485 51.18621 
L 182.06551 50.12555 
L 181.00485 49.064889 
L 179.94419 50.12555 
L 178.88353 49.064889 
L 177.82287 50.12555 
L 178.88353 51.18621 
L 177.82287 52.24687 
z
" clip-path="url(#p1cd9ae1106)" style="fill: #88ccee; fill-opacity: 0.6; stroke: #ffffff; stroke-opacity: 0.6; stroke-width: 0.339411"/>
    <path d="M 174.240293 59.717945 
L 175.300953 58.657285 
L 176.361613 59.717945 
L 177.422274 58.657285 
L 176.361613 57.596625 
L 177.422274 56.535965 
L 176.361613 55.475305 
L 175.300953 56.535965 
L 174.240293 55.475305 
L 173.179633 56.535965 
L 174.240293 57.596625 
L 173.179633 58.657285 
z
" clip-path="url(#p1cd9ae1106)" style="fill: #88ccee; fill-opacity: 0.6; stroke: #ffffff; stroke-opacity: 0.6; stroke-width: 0.339411"/>
    <path d="M 183.618687 53.319653 
L 184.679347 52.258992 
L 185.740008 53.319653 
L 186.800668 52.258992 
L 185.740008 51.198332 
L 186.800668 50.137672 
L 185.740008 49.077012 
L 184.679347 50.137672 
L 183.618687 49.077012 
L 182.558027 50.137672 
L 183.618687 51.198332 
L 182.558027 52.258992 
z
" clip-path="url(#p1cd9ae1106)" style="fill: #88ccee; fill-opacity: 0.6; stroke: #ffffff; stroke-opacity: 0.6; stroke-width: 0.339411"/>
    <path d="M 185.577074 64.170891 
L 186.637734 63.11023 
L 187.698395 64.170891 
L 188.759055 63.11023 
L 187.698395 62.04957 
L 188.759055 60.98891 
L 187.698395 59.92825 
L 186.637734 60.98891 
L 185.577074 59.92825 
L 184.516414 60.98891 
L 185.577074 62.04957 
L 184.516414 63.11023 
z
" clip-path="url(#p1cd9ae1106)" style="fill: #88ccee; fill-opacity: 0.6; stroke: #ffffff; stroke-opacity: 0.6; stroke-width: 0.339411"/>
    <path d="M 168.231027 68.298393 
L 169.291687 67.237732 
L 170.352347 68.298393 
L 171.413008 67.237732 
L 170.352347 66.177072 
L 171.413008 65.116412 
L 170.352347 64.055752 
L 169.291687 65.116412 
L 168.231027 64.055752 
L 167.170367 65.116412 
L 168.231027 66.177072 
L 167.170367 67.237732 
z
" clip-path="url(#p1cd9ae1106)" style="fill: #88ccee; fill-opacity: 0.6; stroke: #ffffff; stroke-opacity: 0.6; stroke-width: 0.339411"/>
    <path d="M 182.376604 62.468317 
L 183.437265 61.407657 
L 184.497925 62.468317 
L 185.558585 61.407657 
L 184.497925 60.346997 
L 185.558585 59.286337 
L 184.497925 58.225677 
L 183.437265 59.286337 
L 182.376604 58.225677 
L 181.315944 59.286337 
L 182.376604 60.346997 
L 181.315944 61.407657 
z
" clip-path="url(#p1cd9ae1106)" style="fill: #88ccee; fill-opacity: 0.6; stroke: #ffffff; stroke-opacity: 0.6; stroke-width: 0.339411"/>
    <path d="M 181.73802 60.795028 
L 182.79868 59.734368 
L 183.85934 60.795028 
L 184.92 59.734368 
L 183.85934 58.673708 
L 184.92 57.613048 
L 183.85934 56.552388 
L 182.79868 57.613048 
L 181.73802 56.552388 
L 180.67736 57.613048 
L 181.73802 58.673708 
L 180.67736 59.734368 
z
" clip-path="url(#p1cd9ae1106)" style="fill: #88ccee; fill-opacity: 0.6; stroke: #ffffff; stroke-opacity: 0.6; stroke-width: 0.339411"/>
    <path d="M 184.290075 58.831467 
L 185.350736 57.770807 
L 186.411396 58.831467 
L 187.472056 57.770807 
L 186.411396 56.710147 
L 187.472056 55.649487 
L 186.411396 54.588827 
L 185.350736 55.649487 
L 184.290075 54.588827 
L 183.229415 55.649487 
L 184.290075 56.710147 
L 183.229415 57.770807 
z
" clip-path="url(#p1cd9ae1106)" style="fill: #88ccee; fill-opacity: 0.6; stroke: #ffffff; stroke-opacity: 0.6; stroke-width: 0.339411"/>
    <path d="M 176.456218 67.243466 
L 177.516879 66.182806 
L 178.577539 67.243466 
L 179.638199 66.182806 
L 178.577539 65.122146 
L 179.638199 64.061485 
L 178.577539 63.000825 
L 177.516879 64.061485 
L 176.456218 63.000825 
L 175.395558 64.061485 
L 176.456218 65.122146 
L 175.395558 66.182806 
z
" clip-path="url(#p1cd9ae1106)" style="fill: #88ccee; fill-opacity: 0.6; stroke: #ffffff; stroke-opacity: 0.6; stroke-width: 0.339411"/>
    <path d="M 173.863035 74.158311 
L 174.923695 73.097651 
L 175.984355 74.158311 
L 177.045016 73.097651 
L 175.984355 72.03699 
L 177.045016 70.97633 
L 175.984355 69.91567 
L 174.923695 70.97633 
L 173.863035 69.91567 
L 172.802375 70.97633 
L 173.863035 72.03699 
L 172.802375 73.097651 
z
" clip-path="url(#p1cd9ae1106)" style="fill: #88ccee; fill-opacity: 0.6; stroke: #ffffff; stroke-opacity: 0.6; stroke-width: 0.339411"/>
    <path d="M 172.600473 58.13875 
L 173.661133 57.07809 
L 174.721794 58.13875 
L 175.782454 57.07809 
L 174.721794 56.01743 
L 175.782454 54.95677 
L 174.721794 53.89611 
L 173.661133 54.95677 
L 172.600473 53.89611 
L 171.539813 54.95677 
L 172.600473 56.01743 
L 171.539813 57.07809 
z
" clip-path="url(#p1cd9ae1106)" style="fill: #88ccee; fill-opacity: 0.6; stroke: #ffffff; stroke-opacity: 0.6; stroke-width: 0.339411"/>
    <path d="M 183.565342 56.90721 
L 184.626002 55.84655 
L 185.686663 56.90721 
L 186.747323 55.84655 
L 185.686663 54.78589 
L 186.747323 53.725229 
L 185.686663 52.664569 
L 184.626002 53.725229 
L 183.565342 52.664569 
L 182.504682 53.725229 
L 183.565342 54.78589 
L 182.504682 55.84655 
z
" clip-path="url(#p1cd9ae1106)" style="fill: #88ccee; fill-opacity: 0.6; stroke: #ffffff; stroke-opacity: 0.6; stroke-width: 0.339411"/>
    <path d="M 175.260741 63.588692 
L 176.321402 62.528031 
L 177.382062 63.588692 
L 178.442722 62.528031 
L 177.382062 61.467371 
L 178.442722 60.406711 
L 177.382062 59.346051 
L 176.321402 60.406711 
L 175.260741 59.346051 
L 174.200081 60.406711 
L 175.260741 61.467371 
L 174.200081 62.528031 
z
" clip-path="url(#p1cd9ae1106)" style="fill: #88ccee; fill-opacity: 0.6; stroke: #ffffff; stroke-opacity: 0.6; stroke-width: 0.339411"/>
    <path d="M 183.005669 65.062094 
L 184.066329 64.001434 
L 185.126989 65.062094 
L 186.187649 64.001434 
L 185.126989 62.940773 
L 186.187649 61.880113 
L 185.126989 60.819453 
L 184.066329 61.880113 
L 183.005669 60.819453 
L 181.945008 61.880113 
L 183.005669 62.940773 
L 181.945008 64.001434 
z
" clip-path="url(#p1cd9ae1106)" style="fill: #88ccee; fill-opacity: 0.6; stroke: #ffffff; stroke-opacity: 0.6; stroke-width: 0.339411"/>
    <path d="M 175.039865 61.507724 
L 176.100525 60.447064 
L 177.161185 61.507724 
L 178.221845 60.447064 
L 177.161185 59.386403 
L 178.221845 58.325743 
L 177.161185 57.265083 
L 176.100525 58.325743 
L 175.039865 57.265083 
L 173.979205 58.325743 
L 175.039865 59.386403 
L 173.979205 60.447064 
z
" clip-path="url(#p1cd9ae1106)" style="fill: #88ccee; fill-opacity: 0.6; stroke: #ffffff; stroke-opacity: 0.6; stroke-width: 0.339411"/>
    <path d="M 174.833388 74.154891 
L 175.894049 73.094231 
L 176.954709 74.154891 
L 178.015369 73.094231 
L 176.954709 72.033571 
L 178.015369 70.972911 
L 176.954709 69.912251 
L 175.894049 70.972911 
L 174.833388 69.912251 
L 173.772728 70.972911 
L 174.833388 72.033571 
L 173.772728 73.094231 
z
" clip-path="url(#p1cd9ae1106)" style="fill: #88ccee; fill-opacity: 0.6; stroke: #ffffff; stroke-opacity: 0.6; stroke-width: 0.339411"/>
    <path d="M 176.349733 57.742052 
L 177.410393 56.681392 
L 178.471053 57.742052 
L 179.531713 56.681392 
L 178.471053 55.620732 
L 179.531713 54.560072 
L 178.471053 53.499412 
L 177.410393 54.560072 
L 176.349733 53.499412 
L 175.289073 54.560072 
L 176.349733 55.620732 
L 175.289073 56.681392 
z
" clip-path="url(#p1cd9ae1106)" style="fill: #88ccee; fill-opacity: 0.6; stroke: #ffffff; stroke-opacity: 0.6; stroke-width: 0.339411"/>
    <path d="M 173.970116 63.51967 
L 175.030777 62.45901 
L 176.091437 63.51967 
L 177.152097 62.45901 
L 176.091437 61.39835 
L 177.152097 60.33769 
L 176.091437 59.277029 
L 175.030777 60.33769 
L 173.970116 59.277029 
L 172.909456 60.33769 
L 173.970116 61.39835 
L 172.909456 62.45901 
z
" clip-path="url(#p1cd9ae1106)" style="fill: #88ccee; fill-opacity: 0.6; stroke: #ffffff; stroke-opacity: 0.6; stroke-width: 0.339411"/>
    <path d="M 181.631863 58.78227 
L 182.692523 57.721609 
L 183.753184 58.78227 
L 184.813844 57.721609 
L 183.753184 56.660949 
L 184.813844 55.600289 
L 183.753184 54.539629 
L 182.692523 55.600289 
L 181.631863 54.539629 
L 180.571203 55.600289 
L 181.631863 56.660949 
L 180.571203 57.721609 
z
" clip-path="url(#p1cd9ae1106)" style="fill: #88ccee; fill-opacity: 0.6; stroke: #ffffff; stroke-opacity: 0.6; stroke-width: 0.339411"/>
    <path d="M 185.652905 55.148824 
L 186.713565 54.088164 
L 187.774225 55.148824 
L 188.834885 54.088164 
L 187.774225 53.027504 
L 188.834885 51.966844 
L 187.774225 50.906184 
L 186.713565 51.966844 
L 185.652905 50.906184 
L 184.592244 51.966844 
L 185.652905 53.027504 
L 184.592244 54.088164 
z
" clip-path="url(#p1cd9ae1106)" style="fill: #88ccee; fill-opacity: 0.6; stroke: #ffffff; stroke-opacity: 0.6; stroke-width: 0.339411"/>
    <path d="M 186.526049 51.852566 
L 187.586709 50.791906 
L 188.647369 51.852566 
L 189.708029 50.791906 
L 188.647369 49.731245 
L 189.708029 48.670585 
L 188.647369 47.609925 
L 187.586709 48.670585 
L 186.526049 47.609925 
L 185.465388 48.670585 
L 186.526049 49.731245 
L 185.465388 50.791906 
z
" clip-path="url(#p1cd9ae1106)" style="fill: #88ccee; fill-opacity: 0.6; stroke: #ffffff; stroke-opacity: 0.6; stroke-width: 0.339411"/>
    <path d="M 178.309969 53.840875 
L 179.370629 52.780215 
L 180.431289 53.840875 
L 181.49195 52.780215 
L 180.431289 51.719555 
L 181.49195 50.658895 
L 180.431289 49.598235 
L 179.370629 50.658895 
L 178.309969 49.598235 
L 177.249309 50.658895 
L 178.309969 51.719555 
L 177.249309 52.780215 
z
" clip-path="url(#p1cd9ae1106)" style="fill: #88ccee; fill-opacity: 0.6; stroke: #ffffff; stroke-opacity: 0.6; stroke-width: 0.339411"/>
    <path d="M 185.038924 63.962625 
L 186.099584 62.901965 
L 187.160244 63.962625 
L 188.220904 62.901965 
L 187.160244 61.841304 
L 188.220904 60.780644 
L 187.160244 59.719984 
L 186.099584 60.780644 
L 185.038924 59.719984 
L 183.978264 60.780644 
L 185.038924 61.841304 
L 183.978264 62.901965 
z
" clip-path="url(#p1cd9ae1106)" style="fill: #88ccee; fill-opacity: 0.6; stroke: #ffffff; stroke-opacity: 0.6; stroke-width: 0.339411"/>
    <path d="M 165.33529 59.345308 
L 166.39595 58.284648 
L 167.45661 59.345308 
L 168.51727 58.284648 
L 167.45661 57.223988 
L 168.51727 56.163327 
L 167.45661 55.102667 
L 166.39595 56.163327 
L 165.33529 55.102667 
L 164.274629 56.163327 
L 165.33529 57.223988 
L 164.274629 58.284648 
z
" clip-path="url(#p1cd9ae1106)" style="fill: #88ccee; fill-opacity: 0.6; stroke: #ffffff; stroke-opacity: 0.6; stroke-width: 0.339411"/>
    <path d="M 184.31771 53.46273 
L 185.37837 52.40207 
L 186.43903 53.46273 
L 187.49969 52.40207 
L 186.43903 51.34141 
L 187.49969 50.280749 
L 186.43903 49.220089 
L 185.37837 50.280749 
L 184.31771 49.220089 
L 183.25705 50.280749 
L 184.31771 51.34141 
L 183.25705 52.40207 
z
" clip-path="url(#p1cd9ae1106)" style="fill: #88ccee; fill-opacity: 0.6; stroke: #ffffff; stroke-opacity: 0.6; stroke-width: 0.339411"/>
    <path d="M 181.351211 63.760375 
L 182.411872 62.699715 
L 183.472532 63.760375 
L 184.533192 62.699715 
L 183.472532 61.639055 
L 184.533192 60.578395 
L 183.472532 59.517735 
L 182.411872 60.578395 
L 181.351211 59.517735 
L 180.290551 60.578395 
L 181.351211 61.639055 
L 180.290551 62.699715 
z
" clip-path="url(#p1cd9ae1106)" style="fill: #88ccee; fill-opacity: 0.6; stroke: #ffffff; stroke-opacity: 0.6; stroke-width: 0.339411"/>
    <path d="M 180.170838 58.497765 
L 181.231498 57.437105 
L 182.292158 58.497765 
L 183.352818 57.437105 
L 182.292158 56.376444 
L 183.352818 55.315784 
L 182.292158 54.255124 
L 181.231498 55.315784 
L 180.170838 54.255124 
L 179.110178 55.315784 
L 180.170838 56.376444 
L 179.110178 57.437105 
z
" clip-path="url(#p1cd9ae1106)" style="fill: #88ccee; fill-opacity: 0.6; stroke: #ffffff; stroke-opacity: 0.6; stroke-width: 0.339411"/>
    <path d="M 170.816669 71.963385 
L 171.877329 70.902725 
L 172.937989 71.963385 
L 173.998649 70.902725 
L 172.937989 69.842065 
L 173.998649 68.781405 
L 172.937989 67.720745 
L 171.877329 68.781405 
L 170.816669 67.720745 
L 169.756009 68.781405 
L 170.816669 69.842065 
L 169.756009 70.902725 
z
" clip-path="url(#p1cd9ae1106)" style="fill: #88ccee; fill-opacity: 0.6; stroke: #ffffff; stroke-opacity: 0.6; stroke-width: 0.339411"/>
    <path d="M 182.619653 53.348114 
L 183.680313 52.287454 
L 184.740973 53.348114 
L 185.801633 52.287454 
L 184.740973 51.226794 
L 185.801633 50.166134 
L 184.740973 49.105474 
L 183.680313 50.166134 
L 182.619653 49.105474 
L 181.558992 50.166134 
L 182.619653 51.226794 
L 181.558992 52.287454 
z
" clip-path="url(#p1cd9ae1106)" style="fill: #88ccee; fill-opacity: 0.6; stroke: #ffffff; stroke-opacity: 0.6; stroke-width: 0.339411"/>
    <path d="M 181.02985 58.706564 
L 182.090511 57.645904 
L 183.151171 58.706564 
L 184.211831 57.645904 
L 183.151171 56.585243 
L 184.211831 55.524583 
L 183.151171 54.463923 
L 182.090511 55.524583 
L 181.02985 54.463923 
L 179.96919 55.524583 
L 181.02985 56.585243 
L 179.96919 57.645904 
z
" clip-path="url(#p1cd9ae1106)" style="fill: #88ccee; fill-opacity: 0.6; stroke: #ffffff; stroke-opacity: 0.6; stroke-width: 0.339411"/>
    <path d="M 183.531597 64.490736 
L 184.592257 63.430076 
L 185.652917 64.490736 
L 186.713577 63.430076 
L 185.652917 62.369416 
L 186.713577 61.308756 
L 185.652917 60.248095 
L 184.592257 61.308756 
L 183.531597 60.248095 
L 182.470936 61.308756 
L 183.531597 62.369416 
L 182.470936 63.430076 
z
" clip-path="url(#p1cd9ae1106)" style="fill: #88ccee; fill-opacity: 0.6; stroke: #ffffff; stroke-opacity: 0.6; stroke-width: 0.339411"/>
    <path d="M 167.373101 61.044407 
L 168.433761 59.983747 
L 169.494421 61.044407 
L 170.555081 59.983747 
L 169.494421 58.923087 
L 170.555081 57.862426 
L 169.494421 56.801766 
L 168.433761 57.862426 
L 167.373101 56.801766 
L 166.312441 57.862426 
L 167.373101 58.923087 
L 166.312441 59.983747 
z
" clip-path="url(#p1cd9ae1106)" style="fill: #88ccee; fill-opacity: 0.6; stroke: #ffffff; stroke-opacity: 0.6; stroke-width: 0.339411"/>
    <path d="M 168.132188 63.514705 
L 169.192848 62.454045 
L 170.253508 63.514705 
L 171.314168 62.454045 
L 170.253508 61.393385 
L 171.314168 60.332725 
L 170.253508 59.272065 
L 169.192848 60.332725 
L 168.132188 59.272065 
L 167.071528 60.332725 
L 168.132188 61.393385 
L 167.071528 62.454045 
z
" clip-path="url(#p1cd9ae1106)" style="fill: #88ccee; fill-opacity: 0.6; stroke: #ffffff; stroke-opacity: 0.6; stroke-width: 0.339411"/>
    <path d="M 186.422898 51.987618 
L 187.483558 50.926958 
L 188.544218 51.987618 
L 189.604878 50.926958 
L 188.544218 49.866298 
L 189.604878 48.805638 
L 188.544218 47.744977 
L 187.483558 48.805638 
L 186.422898 47.744977 
L 185.362238 48.805638 
L 186.422898 49.866298 
L 185.362238 50.926958 
z
" clip-path="url(#p1cd9ae1106)" style="fill: #88ccee; fill-opacity: 0.6; stroke: #ffffff; stroke-opacity: 0.6; stroke-width: 0.339411"/>
    <path d="M 172.810394 75.076533 
L 173.871054 74.015873 
L 174.931714 75.076533 
L 175.992374 74.015873 
L 174.931714 72.955212 
L 175.992374 71.894552 
L 174.931714 70.833892 
L 173.871054 71.894552 
L 172.810394 70.833892 
L 171.749734 71.894552 
L 172.810394 72.955212 
L 171.749734 74.015873 
z
" clip-path="url(#p1cd9ae1106)" style="fill: #88ccee; fill-opacity: 0.6; stroke: #ffffff; stroke-opacity: 0.6; stroke-width: 0.339411"/>
    <path d="M 185.094073 55.771468 
L 186.154733 54.710808 
L 187.215394 55.771468 
L 188.276054 54.710808 
L 187.215394 53.650148 
L 188.276054 52.589488 
L 187.215394 51.528827 
L 186.154733 52.589488 
L 185.094073 51.528827 
L 184.033413 52.589488 
L 185.094073 53.650148 
L 184.033413 54.710808 
z
" clip-path="url(#p1cd9ae1106)" style="fill: #88ccee; fill-opacity: 0.6; stroke: #ffffff; stroke-opacity: 0.6; stroke-width: 0.339411"/>
    <path d="M 173.955362 58.600412 
L 175.016022 57.539752 
L 176.076682 58.600412 
L 177.137343 57.539752 
L 176.076682 56.479092 
L 177.137343 55.418432 
L 176.076682 54.357771 
L 175.016022 55.418432 
L 173.955362 54.357771 
L 172.894702 55.418432 
L 173.955362 56.479092 
L 172.894702 57.539752 
z
" clip-path="url(#p1cd9ae1106)" style="fill: #88ccee; fill-opacity: 0.6; stroke: #ffffff; stroke-opacity: 0.6; stroke-width: 0.339411"/>
    <path d="M 173.927204 64.4637 
L 174.987864 63.40304 
L 176.048524 64.4637 
L 177.109185 63.40304 
L 176.048524 62.342379 
L 177.109185 61.281719 
L 176.048524 60.221059 
L 174.987864 61.281719 
L 173.927204 60.221059 
L 172.866544 61.281719 
L 173.927204 62.342379 
L 172.866544 63.40304 
z
" clip-path="url(#p1cd9ae1106)" style="fill: #88ccee; fill-opacity: 0.6; stroke: #ffffff; stroke-opacity: 0.6; stroke-width: 0.339411"/>
    <path d="M 180.55797 56.559072 
L 181.61863 55.498412 
L 182.679291 56.559072 
L 183.739951 55.498412 
L 182.679291 54.437751 
L 183.739951 53.377091 
L 182.679291 52.316431 
L 181.61863 53.377091 
L 180.55797 52.316431 
L 179.49731 53.377091 
L 180.55797 54.437751 
L 179.49731 55.498412 
z
" clip-path="url(#p1cd9ae1106)" style="fill: #88ccee; fill-opacity: 0.6; stroke: #ffffff; stroke-opacity: 0.6; stroke-width: 0.339411"/>
    <path d="M 177.959548 64.079907 
L 179.020208 63.019247 
L 180.080868 64.079907 
L 181.141529 63.019247 
L 180.080868 61.958587 
L 181.141529 60.897927 
L 180.080868 59.837266 
L 179.020208 60.897927 
L 177.959548 59.837266 
L 176.898888 60.897927 
L 177.959548 61.958587 
L 176.898888 63.019247 
z
" clip-path="url(#p1cd9ae1106)" style="fill: #88ccee; fill-opacity: 0.6; stroke: #ffffff; stroke-opacity: 0.6; stroke-width: 0.339411"/>
    <path d="M 173.526927 70.718053 
L 174.587588 69.657393 
L 175.648248 70.718053 
L 176.708908 69.657393 
L 175.648248 68.596732 
L 176.708908 67.536072 
L 175.648248 66.475412 
L 174.587588 67.536072 
L 173.526927 66.475412 
L 172.466267 67.536072 
L 173.526927 68.596732 
L 172.466267 69.657393 
z
" clip-path="url(#p1cd9ae1106)" style="fill: #88ccee; fill-opacity: 0.6; stroke: #ffffff; stroke-opacity: 0.6; stroke-width: 0.339411"/>
    <path d="M 179.703643 52.449943 
L 180.764303 51.389283 
L 181.824963 52.449943 
L 182.885623 51.389283 
L 181.824963 50.328623 
L 182.885623 49.267962 
L 181.824963 48.207302 
L 180.764303 49.267962 
L 179.703643 48.207302 
L 178.642983 49.267962 
L 179.703643 50.328623 
L 178.642983 51.389283 
z
" clip-path="url(#p1cd9ae1106)" style="fill: #88ccee; fill-opacity: 0.6; stroke: #ffffff; stroke-opacity: 0.6; stroke-width: 0.339411"/>
    <path d="M 172.132703 59.891797 
L 173.193363 58.831137 
L 174.254023 59.891797 
L 175.314683 58.831137 
L 174.254023 57.770477 
L 175.314683 56.709817 
L 174.254023 55.649157 
L 173.193363 56.709817 
L 172.132703 55.649157 
L 171.072043 56.709817 
L 172.132703 57.770477 
L 171.072043 58.831137 
z
" clip-path="url(#p1cd9ae1106)" style="fill: #88ccee; fill-opacity: 0.6; stroke: #ffffff; stroke-opacity: 0.6; stroke-width: 0.339411"/>
    <path d="M 171.647965 68.162608 
L 172.708625 67.101948 
L 173.769285 68.162608 
L 174.829945 67.101948 
L 173.769285 66.041287 
L 174.829945 64.980627 
L 173.769285 63.919967 
L 172.708625 64.980627 
L 171.647965 63.919967 
L 170.587305 64.980627 
L 171.647965 66.041287 
L 170.587305 67.101948 
z
" clip-path="url(#p1cd9ae1106)" style="fill: #88ccee; fill-opacity: 0.6; stroke: #ffffff; stroke-opacity: 0.6; stroke-width: 0.339411"/>
    <path d="M 172.937334 57.74927 
L 173.997994 56.68861 
L 175.058654 57.74927 
L 176.119314 56.68861 
L 175.058654 55.62795 
L 176.119314 54.56729 
L 175.058654 53.506629 
L 173.997994 54.56729 
L 172.937334 53.506629 
L 171.876674 54.56729 
L 172.937334 55.62795 
L 171.876674 56.68861 
z
" clip-path="url(#p1cd9ae1106)" style="fill: #88ccee; fill-opacity: 0.6; stroke: #ffffff; stroke-opacity: 0.6; stroke-width: 0.339411"/>
    <path d="M 166.740897 61.527343 
L 167.801557 60.466683 
L 168.862217 61.527343 
L 169.922877 60.466683 
L 168.862217 59.406023 
L 169.922877 58.345363 
L 168.862217 57.284702 
L 167.801557 58.345363 
L 166.740897 57.284702 
L 165.680236 58.345363 
L 166.740897 59.406023 
L 165.680236 60.466683 
z
" clip-path="url(#p1cd9ae1106)" style="fill: #88ccee; fill-opacity: 0.6; stroke: #ffffff; stroke-opacity: 0.6; stroke-width: 0.339411"/>
    <path d="M 181.8042 54.696105 
L 182.86486 53.635444 
L 183.92552 54.696105 
L 184.986181 53.635444 
L 183.92552 52.574784 
L 184.986181 51.514124 
L 183.92552 50.453464 
L 182.86486 51.514124 
L 181.8042 50.453464 
L 180.74354 51.514124 
L 181.8042 52.574784 
L 180.74354 53.635444 
z
" clip-path="url(#p1cd9ae1106)" style="fill: #88ccee; fill-opacity: 0.6; stroke: #ffffff; stroke-opacity: 0.6; stroke-width: 0.339411"/>
    <path d="M 176.059266 64.780575 
L 177.119927 63.719914 
L 178.180587 64.780575 
L 179.241247 63.719914 
L 178.180587 62.659254 
L 179.241247 61.598594 
L 178.180587 60.537934 
L 177.119927 61.598594 
L 176.059266 60.537934 
L 174.998606 61.598594 
L 176.059266 62.659254 
L 174.998606 63.719914 
z
" clip-path="url(#p1cd9ae1106)" style="fill: #88ccee; fill-opacity: 0.6; stroke: #ffffff; stroke-opacity: 0.6; stroke-width: 0.339411"/>
    <path d="M 172.56916 62.171461 
L 173.62982 61.1108 
L 174.69048 62.171461 
L 175.751141 61.1108 
L 174.69048 60.05014 
L 175.751141 58.98948 
L 174.69048 57.92882 
L 173.62982 58.98948 
L 172.56916 57.92882 
L 171.5085 58.98948 
L 172.56916 60.05014 
L 171.5085 61.1108 
z
" clip-path="url(#p1cd9ae1106)" style="fill: #88ccee; fill-opacity: 0.6; stroke: #ffffff; stroke-opacity: 0.6; stroke-width: 0.339411"/>
    <path d="M 170.226517 72.752609 
L 171.287177 71.691949 
L 172.347837 72.752609 
L 173.408497 71.691949 
L 172.347837 70.631289 
L 173.408497 69.570629 
L 172.347837 68.509968 
L 171.287177 69.570629 
L 170.226517 68.509968 
L 169.165857 69.570629 
L 170.226517 70.631289 
L 169.165857 71.691949 
z
" clip-path="url(#p1cd9ae1106)" style="fill: #88ccee; fill-opacity: 0.6; stroke: #ffffff; stroke-opacity: 0.6; stroke-width: 0.339411"/>
    <path d="M 180.659132 53.999574 
L 181.719792 52.938914 
L 182.780453 53.999574 
L 183.841113 52.938914 
L 182.780453 51.878254 
L 183.841113 50.817594 
L 182.780453 49.756934 
L 181.719792 50.817594 
L 180.659132 49.756934 
L 179.598472 50.817594 
L 180.659132 51.878254 
L 179.598472 52.938914 
z
" clip-path="url(#p1cd9ae1106)" style="fill: #88ccee; fill-opacity: 0.6; stroke: #ffffff; stroke-opacity: 0.6; stroke-width: 0.339411"/>
    <path d="M 173.450564 58.625609 
L 174.511224 57.564949 
L 175.571884 58.625609 
L 176.632544 57.564949 
L 175.571884 56.504289 
L 176.632544 55.443629 
L 175.571884 54.382969 
L 174.511224 55.443629 
L 173.450564 54.382969 
L 172.389903 55.443629 
L 173.450564 56.504289 
L 172.389903 57.564949 
z
" clip-path="url(#p1cd9ae1106)" style="fill: #88ccee; fill-opacity: 0.6; stroke: #ffffff; stroke-opacity: 0.6; stroke-width: 0.339411"/>
    <path d="M 164.164257 58.969077 
L 165.224917 57.908417 
L 166.285577 58.969077 
L 167.346238 57.908417 
L 166.285577 56.847756 
L 167.346238 55.787096 
L 166.285577 54.726436 
L 165.224917 55.787096 
L 164.164257 54.726436 
L 163.103597 55.787096 
L 164.164257 56.847756 
L 163.103597 57.908417 
z
" clip-path="url(#p1cd9ae1106)" style="fill: #88ccee; fill-opacity: 0.6; stroke: #ffffff; stroke-opacity: 0.6; stroke-width: 0.339411"/>
   </g>
   <g id="matplotlib.axis_1">
    <g id="xtick_1">
     <g id="line2d_1">
      <defs>
       <path id="mb8db9d7397" d="M 0 0 
L 0 8 
" style="stroke: #000000"/>
      </defs>
      <g>
       <use xlink:href="#mb8db9d7397" x="81.14586" y="183.896063" style="stroke: #000000"/>
      </g>
     </g>
     <g id="text_1">
      <!-- 10 -->
      <g transform="translate(68.483048 204.514188) scale(0.12 -0.12)">
       <defs>
        <path id="DejaVuSans-2212" d="M 678 2272 
L 4684 2272 
L 4684 1741 
L 678 1741 
L 678 2272 
z
" transform="scale(0.015625)"/>
        <path id="DejaVuSans-31" d="M 794 531 
L 1825 531 
L 1825 4091 
L 703 3866 
L 703 4441 
L 1819 4666 
L 2450 4666 
L 2450 531 
L 3481 531 
L 3481 0 
L 794 0 
L 794 531 
z
" transform="scale(0.015625)"/>
        <path id="DejaVuSans-30" d="M 2034 4250 
Q 1547 4250 1301 3770 
Q 1056 3291 1056 2328 
Q 1056 1369 1301 889 
Q 1547 409 2034 409 
Q 2525 409 2770 889 
Q 3016 1369 3016 2328 
Q 3016 3291 2770 3770 
Q 2525 4250 2034 4250 
z
M 2034 4750 
Q 2819 4750 3233 4129 
Q 3647 3509 3647 2328 
Q 3647 1150 3233 529 
Q 2819 -91 2034 -91 
Q 1250 -91 836 529 
Q 422 1150 422 2328 
Q 422 3509 836 4129 
Q 1250 4750 2034 4750 
z
" transform="scale(0.015625)"/>
       </defs>
       <use xlink:href="#DejaVuSans-2212"/>
       <use xlink:href="#DejaVuSans-31" x="83.789062"/>
       <use xlink:href="#DejaVuSans-30" x="147.412109"/>
      </g>
     </g>
    </g>
    <g id="xtick_2">
     <g id="line2d_2">
      <g>
       <use xlink:href="#mb8db9d7397" x="133.412979" y="183.896063" style="stroke: #000000"/>
      </g>
     </g>
     <g id="text_2">
      <!-- 0 -->
      <g transform="translate(129.595479 204.514188) scale(0.12 -0.12)">
       <use xlink:href="#DejaVuSans-30"/>
      </g>
     </g>
    </g>
    <g id="xtick_3">
     <g id="line2d_3">
      <g>
       <use xlink:href="#mb8db9d7397" x="185.680097" y="183.896063" style="stroke: #000000"/>
      </g>
     </g>
     <g id="text_3">
      <!-- 10 -->
      <g transform="translate(178.045097 204.514188) scale(0.12 -0.12)">
       <use xlink:href="#DejaVuSans-31"/>
       <use xlink:href="#DejaVuSans-30" x="63.623047"/>
      </g>
     </g>
    </g>
    <g id="text_4">
     <!-- UMAP 1 -->
     <g transform="translate(122.996572 220.127938) scale(0.12 -0.12)">
      <defs>
       <path id="DejaVuSans-55" d="M 556 4666 
L 1191 4666 
L 1191 1831 
Q 1191 1081 1462 751 
Q 1734 422 2344 422 
Q 2950 422 3222 751 
Q 3494 1081 3494 1831 
L 3494 4666 
L 4128 4666 
L 4128 1753 
Q 4128 841 3676 375 
Q 3225 -91 2344 -91 
Q 1459 -91 1007 375 
Q 556 841 556 1753 
L 556 4666 
z
" transform="scale(0.015625)"/>
       <path id="DejaVuSans-4d" d="M 628 4666 
L 1569 4666 
L 2759 1491 
L 3956 4666 
L 4897 4666 
L 4897 0 
L 4281 0 
L 4281 4097 
L 3078 897 
L 2444 897 
L 1241 4097 
L 1241 0 
L 628 0 
L 628 4666 
z
" transform="scale(0.015625)"/>
       <path id="DejaVuSans-41" d="M 2188 4044 
L 1331 1722 
L 3047 1722 
L 2188 4044 
z
M 1831 4666 
L 2547 4666 
L 4325 0 
L 3669 0 
L 3244 1197 
L 1141 1197 
L 716 0 
L 50 0 
L 1831 4666 
z
" transform="scale(0.015625)"/>
       <path id="DejaVuSans-50" d="M 1259 4147 
L 1259 2394 
L 2053 2394 
Q 2494 2394 2734 2622 
Q 2975 2850 2975 3272 
Q 2975 3691 2734 3919 
Q 2494 4147 2053 4147 
L 1259 4147 
z
M 628 4666 
L 2053 4666 
Q 2838 4666 3239 4311 
Q 3641 3956 3641 3272 
Q 3641 2581 3239 2228 
Q 2838 1875 2053 1875 
L 1259 1875 
L 1259 0 
L 628 0 
L 628 4666 
z
" transform="scale(0.015625)"/>
       <path id="DejaVuSans-20" transform="scale(0.015625)"/>
      </defs>
      <use xlink:href="#DejaVuSans-55"/>
      <use xlink:href="#DejaVuSans-4d" x="73.193359"/>
      <use xlink:href="#DejaVuSans-41" x="159.472656"/>
      <use xlink:href="#DejaVuSans-50" x="227.880859"/>
      <use xlink:href="#DejaVuSans-20" x="288.183594"/>
      <use xlink:href="#DejaVuSans-31" x="319.970703"/>
     </g>
    </g>
   </g>
   <g id="matplotlib.axis_2">
    <g id="ytick_1">
     <g id="line2d_4">
      <defs>
       <path id="mdf1765f6e2" d="M 0 0 
L -8 0 
" style="stroke: #000000"/>
      </defs>
      <g>
       <use xlink:href="#mdf1765f6e2" x="64.037638" y="166.78784" style="stroke: #000000"/>
      </g>
     </g>
     <g id="text_5">
      <!-- 10 -->
      <g transform="translate(27.212013 171.346903) scale(0.12 -0.12)">
       <use xlink:href="#DejaVuSans-2212"/>
       <use xlink:href="#DejaVuSans-31" x="83.789062"/>
       <use xlink:href="#DejaVuSans-30" x="147.412109"/>
      </g>
     </g>
    </g>
    <g id="ytick_2">
     <g id="line2d_5">
      <g>
       <use xlink:href="#mdf1765f6e2" x="64.037638" y="114.520722" style="stroke: #000000"/>
      </g>
     </g>
     <g id="text_6">
      <!-- 0 -->
      <g transform="translate(44.902638 119.079785) scale(0.12 -0.12)">
       <use xlink:href="#DejaVuSans-30"/>
      </g>
     </g>
    </g>
    <g id="ytick_3">
     <g id="line2d_6">
      <g>
       <use xlink:href="#mdf1765f6e2" x="64.037638" y="62.253604" style="stroke: #000000"/>
      </g>
     </g>
     <g id="text_7">
      <!-- 10 -->
      <g transform="translate(37.267638 66.812667) scale(0.12 -0.12)">
       <use xlink:href="#DejaVuSans-31"/>
       <use xlink:href="#DejaVuSans-30" x="63.623047"/>
      </g>
     </g>
    </g>
    <g id="text_8">
     <!-- UMAP 2 -->
     <g transform="translate(20.716388 124.937128) rotate(-90) scale(0.12 -0.12)">
      <defs>
       <path id="DejaVuSans-32" d="M 1228 531 
L 3431 531 
L 3431 0 
L 469 0 
L 469 531 
Q 828 903 1448 1529 
Q 2069 2156 2228 2338 
Q 2531 2678 2651 2914 
Q 2772 3150 2772 3378 
Q 2772 3750 2511 3984 
Q 2250 4219 1831 4219 
Q 1534 4219 1204 4116 
Q 875 4013 500 3803 
L 500 4441 
Q 881 4594 1212 4672 
Q 1544 4750 1819 4750 
Q 2544 4750 2975 4387 
Q 3406 4025 3406 3419 
Q 3406 3131 3298 2873 
Q 3191 2616 2906 2266 
Q 2828 2175 2409 1742 
Q 1991 1309 1228 531 
z
" transform="scale(0.015625)"/>
      </defs>
      <use xlink:href="#DejaVuSans-55"/>
      <use xlink:href="#DejaVuSans-4d" x="73.193359"/>
      <use xlink:href="#DejaVuSans-41" x="159.472656"/>
      <use xlink:href="#DejaVuSans-50" x="227.880859"/>
      <use xlink:href="#DejaVuSans-20" x="288.183594"/>
      <use xlink:href="#DejaVuSans-32" x="319.970703"/>
     </g>
    </g>
   </g>
   <g id="patch_3">
    <path d="M 64.037638 183.896063 
L 64.037638 19.948819 
" style="fill: none; stroke: #000000; stroke-width: 2; stroke-linejoin: miter; stroke-linecap: square"/>
   </g>
   <g id="patch_4">
    <path d="M 64.037638 183.896063 
L 227.984882 183.896063 
" style="fill: none; stroke: #000000; stroke-width: 2; stroke-linejoin: miter; stroke-linecap: square"/>
   </g>
  </g>
 </g>
 <defs>
  <clipPath id="p1cd9ae1106">
   <rect x="64.037638" y="19.948819" width="163.947244" height="163.947244"/>
  </clipPath>
 </defs>
</svg>
