<?xml version="1.0" encoding="utf-8" standalone="no"?>
<!DOCTYPE svg PUBLIC "-//W3C//DTD SVG 1.1//EN"
  "http://www.w3.org/Graphics/SVG/1.1/DTD/svg11.dtd">
<svg xmlns:xlink="http://www.w3.org/1999/xlink" width="240.944882pt" height="240.944882pt" viewBox="0 0 240.944882 240.944882" xmlns="http://www.w3.org/2000/svg" version="1.1">
 <metadata>
  <rdf:RDF xmlns:dc="http://purl.org/dc/elements/1.1/" xmlns:cc="http://creativecommons.org/ns#" xmlns:rdf="http://www.w3.org/1999/02/22-rdf-syntax-ns#">
   <cc:Work>
    <dc:type rdf:resource="http://purl.org/dc/dcmitype/StillImage"/>
    <dc:date>2025-02-19T15:05:52.458761</dc:date>
    <dc:format>image/svg+xml</dc:format>
    <dc:creator>
     <cc:Agent>
      <dc:title>Matplotlib v3.6.2, https://matplotlib.org/</dc:title>
     </cc:Agent>
    </dc:creator>
   </cc:Work>
  </rdf:RDF>
 </metadata>
 <defs>
  <style type="text/css">*{stroke-linejoin: round; stroke-linecap: butt}</style>
 </defs>
 <g id="figure_1">
  <g id="patch_1">
   <path d="M 0 240.944882 
L 240.944882 240.944882 
L 240.944882 0 
L 0 0 
L 0 240.944882 
z
" style="fill: none"/>
  </g>
  <g id="axes_1">
   <g id="patch_2">
    <path d="M 53.957638 188.936063 
L 227.984882 188.936063 
L 227.984882 14.908819 
L 53.957638 14.908819 
L 53.957638 188.936063 
z
" style="fill: none"/>
   </g>
   <g id="PathCollection_1">
    <path d="M 209.476285 102.842323 
L 213.718926 102.842323 
L 213.718926 98.599682 
L 209.476285 98.599682 
z
" clip-path="url(#pc414742dd8)" style="fill: #332288; fill-opacity: 0.6; stroke: #ffffff; stroke-opacity: 0.6; stroke-width: 0.339411"/>
    <path d="M 199.803048 111.743689 
L 204.045689 111.743689 
L 204.045689 107.501048 
L 199.803048 107.501048 
z
" clip-path="url(#pc414742dd8)" style="fill: #332288; fill-opacity: 0.6; stroke: #ffffff; stroke-opacity: 0.6; stroke-width: 0.339411"/>
    <path d="M 136.109775 165.141043 
L 140.352415 165.141043 
L 140.352415 160.898402 
L 136.109775 160.898402 
z
" clip-path="url(#pc414742dd8)" style="fill: #332288; fill-opacity: 0.6; stroke: #ffffff; stroke-opacity: 0.6; stroke-width: 0.339411"/>
    <path d="M 178.407657 88.445645 
L 182.650298 88.445645 
L 182.650298 84.203004 
L 178.407657 84.203004 
z
" clip-path="url(#pc414742dd8)" style="fill: #332288; fill-opacity: 0.6; stroke: #ffffff; stroke-opacity: 0.6; stroke-width: 0.339411"/>
    <path d="M 210.871303 107.50481 
L 215.113944 107.50481 
L 215.113944 103.262169 
L 210.871303 103.262169 
z
" clip-path="url(#pc414742dd8)" style="fill: #332288; fill-opacity: 0.6; stroke: #ffffff; stroke-opacity: 0.6; stroke-width: 0.339411"/>
    <path d="M 194.90766 94.289102 
L 199.1503 94.289102 
L 199.1503 90.046462 
L 194.90766 90.046462 
z
" clip-path="url(#pc414742dd8)" style="fill: #332288; fill-opacity: 0.6; stroke: #ffffff; stroke-opacity: 0.6; stroke-width: 0.339411"/>
    <path d="M 182.991931 91.86584 
L 187.234571 91.86584 
L 187.234571 87.623199 
L 182.991931 87.623199 
z
" clip-path="url(#pc414742dd8)" style="fill: #332288; fill-opacity: 0.6; stroke: #ffffff; stroke-opacity: 0.6; stroke-width: 0.339411"/>
    <path d="M 178.313502 107.886711 
L 182.556142 107.886711 
L 182.556142 103.64407 
L 178.313502 103.64407 
z
" clip-path="url(#pc414742dd8)" style="fill: #332288; fill-opacity: 0.6; stroke: #ffffff; stroke-opacity: 0.6; stroke-width: 0.339411"/>
    <path d="M 207.548867 101.841325 
L 211.791508 101.841325 
L 211.791508 97.598684 
L 207.548867 97.598684 
z
" clip-path="url(#pc414742dd8)" style="fill: #332288; fill-opacity: 0.6; stroke: #ffffff; stroke-opacity: 0.6; stroke-width: 0.339411"/>
    <path d="M 134.016039 166.668163 
L 138.25868 166.668163 
L 138.25868 162.425522 
L 134.016039 162.425522 
z
" clip-path="url(#pc414742dd8)" style="fill: #332288; fill-opacity: 0.6; stroke: #ffffff; stroke-opacity: 0.6; stroke-width: 0.339411"/>
    <path d="M 207.697322 120.862041 
L 211.939962 120.862041 
L 211.939962 116.6194 
L 207.697322 116.6194 
z
" clip-path="url(#pc414742dd8)" style="fill: #332288; fill-opacity: 0.6; stroke: #ffffff; stroke-opacity: 0.6; stroke-width: 0.339411"/>
    <path d="M 168.384334 100.247522 
L 172.626974 100.247522 
L 172.626974 96.004882 
L 168.384334 96.004882 
z
" clip-path="url(#pc414742dd8)" style="fill: #332288; fill-opacity: 0.6; stroke: #ffffff; stroke-opacity: 0.6; stroke-width: 0.339411"/>
    <path d="M 173.063723 90.266299 
L 177.306363 90.266299 
L 177.306363 86.023658 
L 173.063723 86.023658 
z
" clip-path="url(#pc414742dd8)" style="fill: #332288; fill-opacity: 0.6; stroke: #ffffff; stroke-opacity: 0.6; stroke-width: 0.339411"/>
    <path d="M 197.188228 111.950045 
L 201.430869 111.950045 
L 201.430869 107.707405 
L 197.188228 107.707405 
z
" clip-path="url(#pc414742dd8)" style="fill: #332288; fill-opacity: 0.6; stroke: #ffffff; stroke-opacity: 0.6; stroke-width: 0.339411"/>
    <path d="M 210.455764 125.794875 
L 214.698405 125.794875 
L 214.698405 121.552234 
L 210.455764 121.552234 
z
" clip-path="url(#pc414742dd8)" style="fill: #332288; fill-opacity: 0.6; stroke: #ffffff; stroke-opacity: 0.6; stroke-width: 0.339411"/>
    <path d="M 138.598361 163.420466 
L 142.841001 163.420466 
L 142.841001 159.177826 
L 138.598361 159.177826 
z
" clip-path="url(#pc414742dd8)" style="fill: #332288; fill-opacity: 0.6; stroke: #ffffff; stroke-opacity: 0.6; stroke-width: 0.339411"/>
    <path d="M 172.88649 95.866596 
L 177.12913 95.866596 
L 177.12913 91.623955 
L 172.88649 91.623955 
z
" clip-path="url(#pc414742dd8)" style="fill: #332288; fill-opacity: 0.6; stroke: #ffffff; stroke-opacity: 0.6; stroke-width: 0.339411"/>
    <path d="M 205.050153 104.084227 
L 209.292793 104.084227 
L 209.292793 99.841586 
L 205.050153 99.841586 
z
" clip-path="url(#pc414742dd8)" style="fill: #332288; fill-opacity: 0.6; stroke: #ffffff; stroke-opacity: 0.6; stroke-width: 0.339411"/>
    <path d="M 181.950613 110.97356 
L 186.193253 110.97356 
L 186.193253 106.730919 
L 181.950613 106.730919 
z
" clip-path="url(#pc414742dd8)" style="fill: #332288; fill-opacity: 0.6; stroke: #ffffff; stroke-opacity: 0.6; stroke-width: 0.339411"/>
    <path d="M 196.287943 93.48828 
L 200.530584 93.48828 
L 200.530584 89.24564 
L 196.287943 89.24564 
z
" clip-path="url(#pc414742dd8)" style="fill: #332288; fill-opacity: 0.6; stroke: #ffffff; stroke-opacity: 0.6; stroke-width: 0.339411"/>
    <path d="M 175.178643 81.31388 
L 179.421283 81.31388 
L 179.421283 77.07124 
L 175.178643 77.07124 
z
" clip-path="url(#pc414742dd8)" style="fill: #332288; fill-opacity: 0.6; stroke: #ffffff; stroke-opacity: 0.6; stroke-width: 0.339411"/>
    <path d="M 204.916087 99.264754 
L 209.158728 99.264754 
L 209.158728 95.022113 
L 204.916087 95.022113 
z
" clip-path="url(#pc414742dd8)" style="fill: #332288; fill-opacity: 0.6; stroke: #ffffff; stroke-opacity: 0.6; stroke-width: 0.339411"/>
    <path d="M 130.614106 162.409844 
L 134.856747 162.409844 
L 134.856747 158.167203 
L 130.614106 158.167203 
z
" clip-path="url(#pc414742dd8)" style="fill: #332288; fill-opacity: 0.6; stroke: #ffffff; stroke-opacity: 0.6; stroke-width: 0.339411"/>
    <path d="M 171.429255 99.525873 
L 175.671896 99.525873 
L 175.671896 95.283232 
L 171.429255 95.283232 
z
" clip-path="url(#pc414742dd8)" style="fill: #332288; fill-opacity: 0.6; stroke: #ffffff; stroke-opacity: 0.6; stroke-width: 0.339411"/>
    <path d="M 207.210948 110.612665 
L 211.453588 110.612665 
L 211.453588 106.370024 
L 207.210948 106.370024 
z
" clip-path="url(#pc414742dd8)" style="fill: #332288; fill-opacity: 0.6; stroke: #ffffff; stroke-opacity: 0.6; stroke-width: 0.339411"/>
    <path d="M 174.563165 83.692466 
L 178.805806 83.692466 
L 178.805806 79.449825 
L 174.563165 79.449825 
z
" clip-path="url(#pc414742dd8)" style="fill: #332288; fill-opacity: 0.6; stroke: #ffffff; stroke-opacity: 0.6; stroke-width: 0.339411"/>
    <path d="M 169.453351 91.644188 
L 173.695992 91.644188 
L 173.695992 87.401547 
L 169.453351 87.401547 
z
" clip-path="url(#pc414742dd8)" style="fill: #332288; fill-opacity: 0.6; stroke: #ffffff; stroke-opacity: 0.6; stroke-width: 0.339411"/>
    <path d="M 193.46778 93.356286 
L 197.710421 93.356286 
L 197.710421 89.113645 
L 193.46778 89.113645 
z
" clip-path="url(#pc414742dd8)" style="fill: #332288; fill-opacity: 0.6; stroke: #ffffff; stroke-opacity: 0.6; stroke-width: 0.339411"/>
    <path d="M 200.564651 121.453416 
L 204.807292 121.453416 
L 204.807292 117.210776 
L 200.564651 117.210776 
z
" clip-path="url(#pc414742dd8)" style="fill: #332288; fill-opacity: 0.6; stroke: #ffffff; stroke-opacity: 0.6; stroke-width: 0.339411"/>
    <path d="M 195.870851 99.158949 
L 200.113492 99.158949 
L 200.113492 94.916308 
L 195.870851 94.916308 
z
" clip-path="url(#pc414742dd8)" style="fill: #332288; fill-opacity: 0.6; stroke: #ffffff; stroke-opacity: 0.6; stroke-width: 0.339411"/>
    <path d="M 173.846499 101.742337 
L 178.08914 101.742337 
L 178.08914 97.499697 
L 173.846499 97.499697 
z
" clip-path="url(#pc414742dd8)" style="fill: #332288; fill-opacity: 0.6; stroke: #ffffff; stroke-opacity: 0.6; stroke-width: 0.339411"/>
    <path d="M 194.944506 87.957319 
L 199.187147 87.957319 
L 199.187147 83.714678 
L 194.944506 83.714678 
z
" clip-path="url(#pc414742dd8)" style="fill: #332288; fill-opacity: 0.6; stroke: #ffffff; stroke-opacity: 0.6; stroke-width: 0.339411"/>
    <path d="M 195.647872 90.210403 
L 199.890513 90.210403 
L 199.890513 85.967762 
L 195.647872 85.967762 
z
" clip-path="url(#pc414742dd8)" style="fill: #332288; fill-opacity: 0.6; stroke: #ffffff; stroke-opacity: 0.6; stroke-width: 0.339411"/>
    <path d="M 123.495415 131.173785 
L 127.738056 131.173785 
L 127.738056 126.931144 
L 123.495415 126.931144 
z
" clip-path="url(#pc414742dd8)" style="fill: #332288; fill-opacity: 0.6; stroke: #ffffff; stroke-opacity: 0.6; stroke-width: 0.339411"/>
    <path d="M 182.839701 110.882964 
L 187.082342 110.882964 
L 187.082342 106.640323 
L 182.839701 106.640323 
z
" clip-path="url(#pc414742dd8)" style="fill: #332288; fill-opacity: 0.6; stroke: #ffffff; stroke-opacity: 0.6; stroke-width: 0.339411"/>
    <path d="M 204.798708 120.053183 
L 209.041349 120.053183 
L 209.041349 115.810542 
L 204.798708 115.810542 
z
" clip-path="url(#pc414742dd8)" style="fill: #332288; fill-opacity: 0.6; stroke: #ffffff; stroke-opacity: 0.6; stroke-width: 0.339411"/>
    <path d="M 197.572562 100.840931 
L 201.815202 100.840931 
L 201.815202 96.59829 
L 197.572562 96.59829 
z
" clip-path="url(#pc414742dd8)" style="fill: #332288; fill-opacity: 0.6; stroke: #ffffff; stroke-opacity: 0.6; stroke-width: 0.339411"/>
    <path d="M 211.10084 120.580486 
L 215.343481 120.580486 
L 215.343481 116.337846 
L 211.10084 116.337846 
z
" clip-path="url(#pc414742dd8)" style="fill: #332288; fill-opacity: 0.6; stroke: #ffffff; stroke-opacity: 0.6; stroke-width: 0.339411"/>
    <path d="M 171.158578 91.426106 
L 175.401219 91.426106 
L 175.401219 87.183466 
L 171.158578 87.183466 
z
" clip-path="url(#pc414742dd8)" style="fill: #332288; fill-opacity: 0.6; stroke: #ffffff; stroke-opacity: 0.6; stroke-width: 0.339411"/>
    <path d="M 168.819321 89.955173 
L 173.061961 89.955173 
L 173.061961 85.712532 
L 168.819321 85.712532 
z
" clip-path="url(#pc414742dd8)" style="fill: #332288; fill-opacity: 0.6; stroke: #ffffff; stroke-opacity: 0.6; stroke-width: 0.339411"/>
    <path d="M 204.285519 114.428772 
L 208.52816 114.428772 
L 208.52816 110.186132 
L 204.285519 110.186132 
z
" clip-path="url(#pc414742dd8)" style="fill: #332288; fill-opacity: 0.6; stroke: #ffffff; stroke-opacity: 0.6; stroke-width: 0.339411"/>
    <path d="M 208.928083 119.862629 
L 213.170724 119.862629 
L 213.170724 115.619988 
L 208.928083 115.619988 
z
" clip-path="url(#pc414742dd8)" style="fill: #332288; fill-opacity: 0.6; stroke: #ffffff; stroke-opacity: 0.6; stroke-width: 0.339411"/>
    <path d="M 202.636651 106.181748 
L 206.879292 106.181748 
L 206.879292 101.939108 
L 202.636651 101.939108 
z
" clip-path="url(#pc414742dd8)" style="fill: #332288; fill-opacity: 0.6; stroke: #ffffff; stroke-opacity: 0.6; stroke-width: 0.339411"/>
    <path d="M 178.2113 91.997359 
L 182.45394 91.997359 
L 182.45394 87.754719 
L 178.2113 87.754719 
z
" clip-path="url(#pc414742dd8)" style="fill: #332288; fill-opacity: 0.6; stroke: #ffffff; stroke-opacity: 0.6; stroke-width: 0.339411"/>
    <path d="M 206.58162 126.364138 
L 210.824261 126.364138 
L 210.824261 122.121497 
L 206.58162 122.121497 
z
" clip-path="url(#pc414742dd8)" style="fill: #332288; fill-opacity: 0.6; stroke: #ffffff; stroke-opacity: 0.6; stroke-width: 0.339411"/>
    <path d="M 179.780207 87.746033 
L 184.022848 87.746033 
L 184.022848 83.503392 
L 179.780207 83.503392 
z
" clip-path="url(#pc414742dd8)" style="fill: #332288; fill-opacity: 0.6; stroke: #ffffff; stroke-opacity: 0.6; stroke-width: 0.339411"/>
    <path d="M 208.662293 117.840117 
L 212.904933 117.840117 
L 212.904933 113.597476 
L 208.662293 113.597476 
z
" clip-path="url(#pc414742dd8)" style="fill: #332288; fill-opacity: 0.6; stroke: #ffffff; stroke-opacity: 0.6; stroke-width: 0.339411"/>
    <path d="M 99.789809 149.21294 
L 104.032449 149.21294 
L 104.032449 144.9703 
L 99.789809 144.9703 
z
" clip-path="url(#pc414742dd8)" style="fill: #332288; fill-opacity: 0.6; stroke: #ffffff; stroke-opacity: 0.6; stroke-width: 0.339411"/>
    <path d="M 183.368639 84.213874 
L 187.611279 84.213874 
L 187.611279 79.971234 
L 183.368639 79.971234 
z
" clip-path="url(#pc414742dd8)" style="fill: #332288; fill-opacity: 0.6; stroke: #ffffff; stroke-opacity: 0.6; stroke-width: 0.339411"/>
    <path d="M 205.364978 106.03599 
L 209.607619 106.03599 
L 209.607619 101.79335 
L 205.364978 101.79335 
z
" clip-path="url(#pc414742dd8)" style="fill: #332288; fill-opacity: 0.6; stroke: #ffffff; stroke-opacity: 0.6; stroke-width: 0.339411"/>
    <path d="M 212.886642 121.719217 
L 217.129283 121.719217 
L 217.129283 117.476577 
L 212.886642 117.476577 
z
" clip-path="url(#pc414742dd8)" style="fill: #332288; fill-opacity: 0.6; stroke: #ffffff; stroke-opacity: 0.6; stroke-width: 0.339411"/>
    <path d="M 182.252484 94.445302 
L 186.495124 94.445302 
L 186.495124 90.202661 
L 182.252484 90.202661 
z
" clip-path="url(#pc414742dd8)" style="fill: #332288; fill-opacity: 0.6; stroke: #ffffff; stroke-opacity: 0.6; stroke-width: 0.339411"/>
    <path d="M 180.894474 90.882779 
L 185.137115 90.882779 
L 185.137115 86.640139 
L 180.894474 86.640139 
z
" clip-path="url(#pc414742dd8)" style="fill: #332288; fill-opacity: 0.6; stroke: #ffffff; stroke-opacity: 0.6; stroke-width: 0.339411"/>
    <path d="M 177.780724 88.004876 
L 182.023365 88.004876 
L 182.023365 83.762236 
L 177.780724 83.762236 
z
" clip-path="url(#pc414742dd8)" style="fill: #332288; fill-opacity: 0.6; stroke: #ffffff; stroke-opacity: 0.6; stroke-width: 0.339411"/>
    <path d="M 173.962152 97.14087 
L 178.204792 97.14087 
L 178.204792 92.898229 
L 173.962152 92.898229 
z
" clip-path="url(#pc414742dd8)" style="fill: #332288; fill-opacity: 0.6; stroke: #ffffff; stroke-opacity: 0.6; stroke-width: 0.339411"/>
    <path d="M 194.116869 90.730452 
L 198.35951 90.730452 
L 198.35951 86.487812 
L 194.116869 86.487812 
z
" clip-path="url(#pc414742dd8)" style="fill: #332288; fill-opacity: 0.6; stroke: #ffffff; stroke-opacity: 0.6; stroke-width: 0.339411"/>
    <path d="M 198.951184 109.280359 
L 203.193825 109.280359 
L 203.193825 105.037719 
L 198.951184 105.037719 
z
" clip-path="url(#pc414742dd8)" style="fill: #332288; fill-opacity: 0.6; stroke: #ffffff; stroke-opacity: 0.6; stroke-width: 0.339411"/>
    <path d="M 135.834935 157.493532 
L 140.077575 157.493532 
L 140.077575 153.250891 
L 135.834935 153.250891 
z
" clip-path="url(#pc414742dd8)" style="fill: #332288; fill-opacity: 0.6; stroke: #ffffff; stroke-opacity: 0.6; stroke-width: 0.339411"/>
    <path d="M 130.327935 160.5861 
L 134.570576 160.5861 
L 134.570576 156.343459 
L 130.327935 156.343459 
z
" clip-path="url(#pc414742dd8)" style="fill: #332288; fill-opacity: 0.6; stroke: #ffffff; stroke-opacity: 0.6; stroke-width: 0.339411"/>
    <path d="M 200.819072 117.254561 
L 205.061713 117.254561 
L 205.061713 113.01192 
L 200.819072 113.01192 
z
" clip-path="url(#pc414742dd8)" style="fill: #332288; fill-opacity: 0.6; stroke: #ffffff; stroke-opacity: 0.6; stroke-width: 0.339411"/>
    <path d="M 171.126165 101.508572 
L 175.368806 101.508572 
L 175.368806 97.265932 
L 171.126165 97.265932 
z
" clip-path="url(#pc414742dd8)" style="fill: #332288; fill-opacity: 0.6; stroke: #ffffff; stroke-opacity: 0.6; stroke-width: 0.339411"/>
    <path d="M 207.1804 108.174344 
L 211.423041 108.174344 
L 211.423041 103.931703 
L 207.1804 103.931703 
z
" clip-path="url(#pc414742dd8)" style="fill: #332288; fill-opacity: 0.6; stroke: #ffffff; stroke-opacity: 0.6; stroke-width: 0.339411"/>
    <path d="M 179.11907 106.026412 
L 183.361711 106.026412 
L 183.361711 101.783771 
L 179.11907 101.783771 
z
" clip-path="url(#pc414742dd8)" style="fill: #332288; fill-opacity: 0.6; stroke: #ffffff; stroke-opacity: 0.6; stroke-width: 0.339411"/>
    <path d="M 133.693604 164.87193 
L 137.936244 164.87193 
L 137.936244 160.629289 
L 133.693604 160.629289 
z
" clip-path="url(#pc414742dd8)" style="fill: #332288; fill-opacity: 0.6; stroke: #ffffff; stroke-opacity: 0.6; stroke-width: 0.339411"/>
    <path d="M 157.975653 153.705092 
L 159.036314 152.644432 
L 160.096974 153.705092 
L 161.157634 152.644432 
L 160.096974 151.583771 
L 161.157634 150.523111 
L 160.096974 149.462451 
L 159.036314 150.523111 
L 157.975653 149.462451 
L 156.914993 150.523111 
L 157.975653 151.583771 
L 156.914993 152.644432 
z
" clip-path="url(#pc414742dd8)" style="fill: #117733; fill-opacity: 0.6; stroke: #ffffff; stroke-opacity: 0.6; stroke-width: 0.339411"/>
    <path d="M 190.033943 130.728297 
L 191.094603 129.667637 
L 192.155263 130.728297 
L 193.215924 129.667637 
L 192.155263 128.606977 
L 193.215924 127.546317 
L 192.155263 126.485656 
L 191.094603 127.546317 
L 190.033943 126.485656 
L 188.973283 127.546317 
L 190.033943 128.606977 
L 188.973283 129.667637 
z
" clip-path="url(#pc414742dd8)" style="fill: #117733; fill-opacity: 0.6; stroke: #ffffff; stroke-opacity: 0.6; stroke-width: 0.339411"/>
    <path d="M 128.375095 143.638843 
L 129.435755 142.578183 
L 130.496415 143.638843 
L 131.557075 142.578183 
L 130.496415 141.517523 
L 131.557075 140.456863 
L 130.496415 139.396203 
L 129.435755 140.456863 
L 128.375095 139.396203 
L 127.314435 140.456863 
L 128.375095 141.517523 
L 127.314435 142.578183 
z
" clip-path="url(#pc414742dd8)" style="fill: #117733; fill-opacity: 0.6; stroke: #ffffff; stroke-opacity: 0.6; stroke-width: 0.339411"/>
    <path d="M 184.870672 167.294807 
L 185.931332 166.234147 
L 186.991992 167.294807 
L 188.052652 166.234147 
L 186.991992 165.173487 
L 188.052652 164.112827 
L 186.991992 163.052167 
L 185.931332 164.112827 
L 184.870672 163.052167 
L 183.810011 164.112827 
L 184.870672 165.173487 
L 183.810011 166.234147 
z
" clip-path="url(#pc414742dd8)" style="fill: #117733; fill-opacity: 0.6; stroke: #ffffff; stroke-opacity: 0.6; stroke-width: 0.339411"/>
    <path d="M 169.469274 163.053693 
L 170.529934 161.993033 
L 171.590594 163.053693 
L 172.651255 161.993033 
L 171.590594 160.932372 
L 172.651255 159.871712 
L 171.590594 158.811052 
L 170.529934 159.871712 
L 169.469274 158.811052 
L 168.408614 159.871712 
L 169.469274 160.932372 
L 168.408614 161.993033 
z
" clip-path="url(#pc414742dd8)" style="fill: #117733; fill-opacity: 0.6; stroke: #ffffff; stroke-opacity: 0.6; stroke-width: 0.339411"/>
    <path d="M 180.275266 163.970664 
L 181.335926 162.910004 
L 182.396587 163.970664 
L 183.457247 162.910004 
L 182.396587 161.849344 
L 183.457247 160.788684 
L 182.396587 159.728023 
L 181.335926 160.788684 
L 180.275266 159.728023 
L 179.214606 160.788684 
L 180.275266 161.849344 
L 179.214606 162.910004 
z
" clip-path="url(#pc414742dd8)" style="fill: #117733; fill-opacity: 0.6; stroke: #ffffff; stroke-opacity: 0.6; stroke-width: 0.339411"/>
    <path d="M 116.018274 163.740399 
L 117.078934 162.679739 
L 118.139594 163.740399 
L 119.200254 162.679739 
L 118.139594 161.619079 
L 119.200254 160.558419 
L 118.139594 159.497759 
L 117.078934 160.558419 
L 116.018274 159.497759 
L 114.957614 160.558419 
L 116.018274 161.619079 
L 114.957614 162.679739 
z
" clip-path="url(#pc414742dd8)" style="fill: #117733; fill-opacity: 0.6; stroke: #ffffff; stroke-opacity: 0.6; stroke-width: 0.339411"/>
    <path d="M 179.012275 167.904938 
L 180.072935 166.844278 
L 181.133595 167.904938 
L 182.194255 166.844278 
L 181.133595 165.783617 
L 182.194255 164.722957 
L 181.133595 163.662297 
L 180.072935 164.722957 
L 179.012275 163.662297 
L 177.951615 164.722957 
L 179.012275 165.783617 
L 177.951615 166.844278 
z
" clip-path="url(#pc414742dd8)" style="fill: #117733; fill-opacity: 0.6; stroke: #ffffff; stroke-opacity: 0.6; stroke-width: 0.339411"/>
    <path d="M 140.819756 148.595936 
L 141.880416 147.535276 
L 142.941076 148.595936 
L 144.001737 147.535276 
L 142.941076 146.474616 
L 144.001737 145.413956 
L 142.941076 144.353296 
L 141.880416 145.413956 
L 140.819756 144.353296 
L 139.759096 145.413956 
L 140.819756 146.474616 
L 139.759096 147.535276 
z
" clip-path="url(#pc414742dd8)" style="fill: #117733; fill-opacity: 0.6; stroke: #ffffff; stroke-opacity: 0.6; stroke-width: 0.339411"/>
    <path d="M 102.004678 144.226702 
L 103.065338 143.166042 
L 104.125999 144.226702 
L 105.186659 143.166042 
L 104.125999 142.105382 
L 105.186659 141.044722 
L 104.125999 139.984062 
L 103.065338 141.044722 
L 102.004678 139.984062 
L 100.944018 141.044722 
L 102.004678 142.105382 
L 100.944018 143.166042 
z
" clip-path="url(#pc414742dd8)" style="fill: #117733; fill-opacity: 0.6; stroke: #ffffff; stroke-opacity: 0.6; stroke-width: 0.339411"/>
    <path d="M 187.890137 149.143448 
L 188.950797 148.082788 
L 190.011457 149.143448 
L 191.072117 148.082788 
L 190.011457 147.022128 
L 191.072117 145.961468 
L 190.011457 144.900808 
L 188.950797 145.961468 
L 187.890137 144.900808 
L 186.829477 145.961468 
L 187.890137 147.022128 
L 186.829477 148.082788 
z
" clip-path="url(#pc414742dd8)" style="fill: #117733; fill-opacity: 0.6; stroke: #ffffff; stroke-opacity: 0.6; stroke-width: 0.339411"/>
    <path d="M 179.857656 140.244148 
L 180.918316 139.183488 
L 181.978976 140.244148 
L 183.039637 139.183488 
L 181.978976 138.122828 
L 183.039637 137.062168 
L 181.978976 136.001507 
L 180.918316 137.062168 
L 179.857656 136.001507 
L 178.796996 137.062168 
L 179.857656 138.122828 
L 178.796996 139.183488 
z
" clip-path="url(#pc414742dd8)" style="fill: #117733; fill-opacity: 0.6; stroke: #ffffff; stroke-opacity: 0.6; stroke-width: 0.339411"/>
    <path d="M 186.255949 136.203805 
L 187.31661 135.143145 
L 188.37727 136.203805 
L 189.43793 135.143145 
L 188.37727 134.082485 
L 189.43793 133.021825 
L 188.37727 131.961165 
L 187.31661 133.021825 
L 186.255949 131.961165 
L 185.195289 133.021825 
L 186.255949 134.082485 
L 185.195289 135.143145 
z
" clip-path="url(#pc414742dd8)" style="fill: #117733; fill-opacity: 0.6; stroke: #ffffff; stroke-opacity: 0.6; stroke-width: 0.339411"/>
    <path d="M 175.986402 135.563583 
L 177.047063 134.502923 
L 178.107723 135.563583 
L 179.168383 134.502923 
L 178.107723 133.442263 
L 179.168383 132.381603 
L 178.107723 131.320943 
L 177.047063 132.381603 
L 175.986402 131.320943 
L 174.925742 132.381603 
L 175.986402 133.442263 
L 174.925742 134.502923 
z
" clip-path="url(#pc414742dd8)" style="fill: #117733; fill-opacity: 0.6; stroke: #ffffff; stroke-opacity: 0.6; stroke-width: 0.339411"/>
    <path d="M 184.092393 165.11379 
L 185.153053 164.05313 
L 186.213713 165.11379 
L 187.274374 164.05313 
L 186.213713 162.99247 
L 187.274374 161.93181 
L 186.213713 160.87115 
L 185.153053 161.93181 
L 184.092393 160.87115 
L 183.031733 161.93181 
L 184.092393 162.99247 
L 183.031733 164.05313 
z
" clip-path="url(#pc414742dd8)" style="fill: #117733; fill-opacity: 0.6; stroke: #ffffff; stroke-opacity: 0.6; stroke-width: 0.339411"/>
    <path d="M 172.492709 142.039507 
L 173.553369 140.978847 
L 174.614029 142.039507 
L 175.674689 140.978847 
L 174.614029 139.918187 
L 175.674689 138.857527 
L 174.614029 137.796867 
L 173.553369 138.857527 
L 172.492709 137.796867 
L 171.432049 138.857527 
L 172.492709 139.918187 
L 171.432049 140.978847 
z
" clip-path="url(#pc414742dd8)" style="fill: #117733; fill-opacity: 0.6; stroke: #ffffff; stroke-opacity: 0.6; stroke-width: 0.339411"/>
    <path d="M 180.305361 151.202845 
L 181.366021 150.142185 
L 182.426681 151.202845 
L 183.487341 150.142185 
L 182.426681 149.081524 
L 183.487341 148.020864 
L 182.426681 146.960204 
L 181.366021 148.020864 
L 180.305361 146.960204 
L 179.2447 148.020864 
L 180.305361 149.081524 
L 179.2447 150.142185 
z
" clip-path="url(#pc414742dd8)" style="fill: #117733; fill-opacity: 0.6; stroke: #ffffff; stroke-opacity: 0.6; stroke-width: 0.339411"/>
    <path d="M 133.806406 153.774689 
L 134.867066 152.714029 
L 135.927726 153.774689 
L 136.988386 152.714029 
L 135.927726 151.653369 
L 136.988386 150.592708 
L 135.927726 149.532048 
L 134.867066 150.592708 
L 133.806406 149.532048 
L 132.745745 150.592708 
L 133.806406 151.653369 
L 132.745745 152.714029 
z
" clip-path="url(#pc414742dd8)" style="fill: #117733; fill-opacity: 0.6; stroke: #ffffff; stroke-opacity: 0.6; stroke-width: 0.339411"/>
    <path d="M 100.849217 145.95834 
L 101.909878 144.89768 
L 102.970538 145.95834 
L 104.031198 144.89768 
L 102.970538 143.83702 
L 104.031198 142.77636 
L 102.970538 141.715699 
L 101.909878 142.77636 
L 100.849217 141.715699 
L 99.788557 142.77636 
L 100.849217 143.83702 
L 99.788557 144.89768 
z
" clip-path="url(#pc414742dd8)" style="fill: #117733; fill-opacity: 0.6; stroke: #ffffff; stroke-opacity: 0.6; stroke-width: 0.339411"/>
    <path d="M 178.953758 128.641783 
L 180.014418 127.581123 
L 181.075078 128.641783 
L 182.135739 127.581123 
L 181.075078 126.520463 
L 182.135739 125.459803 
L 181.075078 124.399143 
L 180.014418 125.459803 
L 178.953758 124.399143 
L 177.893098 125.459803 
L 178.953758 126.520463 
L 177.893098 127.581123 
z
" clip-path="url(#pc414742dd8)" style="fill: #117733; fill-opacity: 0.6; stroke: #ffffff; stroke-opacity: 0.6; stroke-width: 0.339411"/>
    <path d="M 182.759926 142.471167 
L 183.820586 141.410507 
L 184.881246 142.471167 
L 185.941906 141.410507 
L 184.881246 140.349847 
L 185.941906 139.289186 
L 184.881246 138.228526 
L 183.820586 139.289186 
L 182.759926 138.228526 
L 181.699266 139.289186 
L 182.759926 140.349847 
L 181.699266 141.410507 
z
" clip-path="url(#pc414742dd8)" style="fill: #117733; fill-opacity: 0.6; stroke: #ffffff; stroke-opacity: 0.6; stroke-width: 0.339411"/>
    <path d="M 170.752231 136.428289 
L 171.812891 135.367628 
L 172.873552 136.428289 
L 173.934212 135.367628 
L 172.873552 134.306968 
L 173.934212 133.246308 
L 172.873552 132.185648 
L 171.812891 133.246308 
L 170.752231 132.185648 
L 169.691571 133.246308 
L 170.752231 134.306968 
L 169.691571 135.367628 
z
" clip-path="url(#pc414742dd8)" style="fill: #117733; fill-opacity: 0.6; stroke: #ffffff; stroke-opacity: 0.6; stroke-width: 0.339411"/>
    <path d="M 169.385204 160.068335 
L 170.445864 159.007674 
L 171.506524 160.068335 
L 172.567185 159.007674 
L 171.506524 157.947014 
L 172.567185 156.886354 
L 171.506524 155.825694 
L 170.445864 156.886354 
L 169.385204 155.825694 
L 168.324544 156.886354 
L 169.385204 157.947014 
L 168.324544 159.007674 
z
" clip-path="url(#pc414742dd8)" style="fill: #117733; fill-opacity: 0.6; stroke: #ffffff; stroke-opacity: 0.6; stroke-width: 0.339411"/>
    <path d="M 96.240232 155.628088 
L 97.300892 154.567427 
L 98.361552 155.628088 
L 99.422212 154.567427 
L 98.361552 153.506767 
L 99.422212 152.446107 
L 98.361552 151.385447 
L 97.300892 152.446107 
L 96.240232 151.385447 
L 95.179572 152.446107 
L 96.240232 153.506767 
L 95.179572 154.567427 
z
" clip-path="url(#pc414742dd8)" style="fill: #117733; fill-opacity: 0.6; stroke: #ffffff; stroke-opacity: 0.6; stroke-width: 0.339411"/>
    <path d="M 165.120513 157.997119 
L 166.181173 156.936459 
L 167.241833 157.997119 
L 168.302493 156.936459 
L 167.241833 155.875798 
L 168.302493 154.815138 
L 167.241833 153.754478 
L 166.181173 154.815138 
L 165.120513 153.754478 
L 164.059853 154.815138 
L 165.120513 155.875798 
L 164.059853 156.936459 
z
" clip-path="url(#pc414742dd8)" style="fill: #117733; fill-opacity: 0.6; stroke: #ffffff; stroke-opacity: 0.6; stroke-width: 0.339411"/>
    <path d="M 179.878895 130.081431 
L 180.939555 129.02077 
L 182.000215 130.081431 
L 183.060875 129.02077 
L 182.000215 127.96011 
L 183.060875 126.89945 
L 182.000215 125.83879 
L 180.939555 126.89945 
L 179.878895 125.83879 
L 178.818234 126.89945 
L 179.878895 127.96011 
L 178.818234 129.02077 
z
" clip-path="url(#pc414742dd8)" style="fill: #117733; fill-opacity: 0.6; stroke: #ffffff; stroke-opacity: 0.6; stroke-width: 0.339411"/>
    <path d="M 174.399438 136.826774 
L 175.460099 135.766114 
L 176.520759 136.826774 
L 177.581419 135.766114 
L 176.520759 134.705454 
L 177.581419 133.644794 
L 176.520759 132.584134 
L 175.460099 133.644794 
L 174.399438 132.584134 
L 173.338778 133.644794 
L 174.399438 134.705454 
L 173.338778 135.766114 
z
" clip-path="url(#pc414742dd8)" style="fill: #117733; fill-opacity: 0.6; stroke: #ffffff; stroke-opacity: 0.6; stroke-width: 0.339411"/>
    <path d="M 195.944449 124.89005 
L 197.005109 123.829389 
L 198.06577 124.89005 
L 199.12643 123.829389 
L 198.06577 122.768729 
L 199.12643 121.708069 
L 198.06577 120.647409 
L 197.005109 121.708069 
L 195.944449 120.647409 
L 194.883789 121.708069 
L 195.944449 122.768729 
L 194.883789 123.829389 
z
" clip-path="url(#pc414742dd8)" style="fill: #117733; fill-opacity: 0.6; stroke: #ffffff; stroke-opacity: 0.6; stroke-width: 0.339411"/>
    <path d="M 185.144411 137.091168 
L 186.205072 136.030507 
L 187.265732 137.091168 
L 188.326392 136.030507 
L 187.265732 134.969847 
L 188.326392 133.909187 
L 187.265732 132.848527 
L 186.205072 133.909187 
L 185.144411 132.848527 
L 184.083751 133.909187 
L 185.144411 134.969847 
L 184.083751 136.030507 
z
" clip-path="url(#pc414742dd8)" style="fill: #117733; fill-opacity: 0.6; stroke: #ffffff; stroke-opacity: 0.6; stroke-width: 0.339411"/>
    <path d="M 169.320064 150.154542 
L 170.380725 149.093882 
L 171.441385 150.154542 
L 172.502045 149.093882 
L 171.441385 148.033222 
L 172.502045 146.972562 
L 171.441385 145.911902 
L 170.380725 146.972562 
L 169.320064 145.911902 
L 168.259404 146.972562 
L 169.320064 148.033222 
L 168.259404 149.093882 
z
" clip-path="url(#pc414742dd8)" style="fill: #117733; fill-opacity: 0.6; stroke: #ffffff; stroke-opacity: 0.6; stroke-width: 0.339411"/>
    <path d="M 184.313462 132.206102 
L 185.374123 131.145441 
L 186.434783 132.206102 
L 187.495443 131.145441 
L 186.434783 130.084781 
L 187.495443 129.024121 
L 186.434783 127.963461 
L 185.374123 129.024121 
L 184.313462 127.963461 
L 183.252802 129.024121 
L 184.313462 130.084781 
L 183.252802 131.145441 
z
" clip-path="url(#pc414742dd8)" style="fill: #117733; fill-opacity: 0.6; stroke: #ffffff; stroke-opacity: 0.6; stroke-width: 0.339411"/>
    <path d="M 139.954927 150.119713 
L 141.015587 149.059053 
L 142.076247 150.119713 
L 143.136907 149.059053 
L 142.076247 147.998393 
L 143.136907 146.937732 
L 142.076247 145.877072 
L 141.015587 146.937732 
L 139.954927 145.877072 
L 138.894267 146.937732 
L 139.954927 147.998393 
L 138.894267 149.059053 
z
" clip-path="url(#pc414742dd8)" style="fill: #117733; fill-opacity: 0.6; stroke: #ffffff; stroke-opacity: 0.6; stroke-width: 0.339411"/>
    <path d="M 189.984476 140.034545 
L 191.045136 138.973885 
L 192.105796 140.034545 
L 193.166457 138.973885 
L 192.105796 137.913225 
L 193.166457 136.852564 
L 192.105796 135.791904 
L 191.045136 136.852564 
L 189.984476 135.791904 
L 188.923816 136.852564 
L 189.984476 137.913225 
L 188.923816 138.973885 
z
" clip-path="url(#pc414742dd8)" style="fill: #117733; fill-opacity: 0.6; stroke: #ffffff; stroke-opacity: 0.6; stroke-width: 0.339411"/>
    <path d="M 179.426681 138.617765 
L 180.487342 137.557105 
L 181.548002 138.617765 
L 182.608662 137.557105 
L 181.548002 136.496445 
L 182.608662 135.435784 
L 181.548002 134.375124 
L 180.487342 135.435784 
L 179.426681 134.375124 
L 178.366021 135.435784 
L 179.426681 136.496445 
L 178.366021 137.557105 
z
" clip-path="url(#pc414742dd8)" style="fill: #117733; fill-opacity: 0.6; stroke: #ffffff; stroke-opacity: 0.6; stroke-width: 0.339411"/>
    <path d="M 182.59856 166.743507 
L 183.65922 165.682846 
L 184.71988 166.743507 
L 185.78054 165.682846 
L 184.71988 164.622186 
L 185.78054 163.561526 
L 184.71988 162.500866 
L 183.65922 163.561526 
L 182.59856 162.500866 
L 181.5379 163.561526 
L 182.59856 164.622186 
L 181.5379 165.682846 
z
" clip-path="url(#pc414742dd8)" style="fill: #117733; fill-opacity: 0.6; stroke: #ffffff; stroke-opacity: 0.6; stroke-width: 0.339411"/>
    <path d="M 131.304212 153.892378 
L 132.364873 152.831718 
L 133.425533 153.892378 
L 134.486193 152.831718 
L 133.425533 151.771057 
L 134.486193 150.710397 
L 133.425533 149.649737 
L 132.364873 150.710397 
L 131.304212 149.649737 
L 130.243552 150.710397 
L 131.304212 151.771057 
L 130.243552 152.831718 
z
" clip-path="url(#pc414742dd8)" style="fill: #117733; fill-opacity: 0.6; stroke: #ffffff; stroke-opacity: 0.6; stroke-width: 0.339411"/>
    <path d="M 173.155895 151.230431 
L 174.216555 150.169771 
L 175.277216 151.230431 
L 176.337876 150.169771 
L 175.277216 149.109111 
L 176.337876 148.048451 
L 175.277216 146.987791 
L 174.216555 148.048451 
L 173.155895 146.987791 
L 172.095235 148.048451 
L 173.155895 149.109111 
L 172.095235 150.169771 
z
" clip-path="url(#pc414742dd8)" style="fill: #117733; fill-opacity: 0.6; stroke: #ffffff; stroke-opacity: 0.6; stroke-width: 0.339411"/>
    <path d="M 166.255533 162.600681 
L 167.316193 161.540021 
L 168.376854 162.600681 
L 169.437514 161.540021 
L 168.376854 160.479361 
L 169.437514 159.418701 
L 168.376854 158.358041 
L 167.316193 159.418701 
L 166.255533 158.358041 
L 165.194873 159.418701 
L 166.255533 160.479361 
L 165.194873 161.540021 
z
" clip-path="url(#pc414742dd8)" style="fill: #117733; fill-opacity: 0.6; stroke: #ffffff; stroke-opacity: 0.6; stroke-width: 0.339411"/>
    <path d="M 184.545944 163.915011 
L 185.606604 162.854351 
L 186.667264 163.915011 
L 187.727924 162.854351 
L 186.667264 161.793691 
L 187.727924 160.733031 
L 186.667264 159.67237 
L 185.606604 160.733031 
L 184.545944 159.67237 
L 183.485284 160.733031 
L 184.545944 161.793691 
L 183.485284 162.854351 
z
" clip-path="url(#pc414742dd8)" style="fill: #117733; fill-opacity: 0.6; stroke: #ffffff; stroke-opacity: 0.6; stroke-width: 0.339411"/>
    <path d="M 189.575074 146.302354 
L 190.635735 145.241694 
L 191.696395 146.302354 
L 192.757055 145.241694 
L 191.696395 144.181034 
L 192.757055 143.120373 
L 191.696395 142.059713 
L 190.635735 143.120373 
L 189.575074 142.059713 
L 188.514414 143.120373 
L 189.575074 144.181034 
L 188.514414 145.241694 
z
" clip-path="url(#pc414742dd8)" style="fill: #117733; fill-opacity: 0.6; stroke: #ffffff; stroke-opacity: 0.6; stroke-width: 0.339411"/>
    <path d="M 183.090953 145.737481 
L 184.151613 144.676821 
L 185.212273 145.737481 
L 186.272933 144.676821 
L 185.212273 143.616161 
L 186.272933 142.555501 
L 185.212273 141.49484 
L 184.151613 142.555501 
L 183.090953 141.49484 
L 182.030293 142.555501 
L 183.090953 143.616161 
L 182.030293 144.676821 
z
" clip-path="url(#pc414742dd8)" style="fill: #117733; fill-opacity: 0.6; stroke: #ffffff; stroke-opacity: 0.6; stroke-width: 0.339411"/>
    <path d="M 163.757121 145.406929 
L 164.817781 144.346269 
L 165.878441 145.406929 
L 166.939101 144.346269 
L 165.878441 143.285608 
L 166.939101 142.224948 
L 165.878441 141.164288 
L 164.817781 142.224948 
L 163.757121 141.164288 
L 162.696461 142.224948 
L 163.757121 143.285608 
L 162.696461 144.346269 
z
" clip-path="url(#pc414742dd8)" style="fill: #117733; fill-opacity: 0.6; stroke: #ffffff; stroke-opacity: 0.6; stroke-width: 0.339411"/>
    <path d="M 118.222134 130.757205 
L 119.282794 129.696545 
L 120.343454 130.757205 
L 121.404114 129.696545 
L 120.343454 128.635885 
L 121.404114 127.575224 
L 120.343454 126.514564 
L 119.282794 127.575224 
L 118.222134 126.514564 
L 117.161474 127.575224 
L 118.222134 128.635885 
L 117.161474 129.696545 
z
" clip-path="url(#pc414742dd8)" style="fill: #117733; fill-opacity: 0.6; stroke: #ffffff; stroke-opacity: 0.6; stroke-width: 0.339411"/>
    <path d="M 130.871409 145.085966 
L 131.93207 144.025306 
L 132.99273 145.085966 
L 134.05339 144.025306 
L 132.99273 142.964645 
L 134.05339 141.903985 
L 132.99273 140.843325 
L 131.93207 141.903985 
L 130.871409 140.843325 
L 129.810749 141.903985 
L 130.871409 142.964645 
L 129.810749 144.025306 
z
" clip-path="url(#pc414742dd8)" style="fill: #117733; fill-opacity: 0.6; stroke: #ffffff; stroke-opacity: 0.6; stroke-width: 0.339411"/>
    <path d="M 170.744627 153.584512 
L 171.805287 152.523852 
L 172.865947 153.584512 
L 173.926607 152.523852 
L 172.865947 151.463192 
L 173.926607 150.402532 
L 172.865947 149.341872 
L 171.805287 150.402532 
L 170.744627 149.341872 
L 169.683967 150.402532 
L 170.744627 151.463192 
L 169.683967 152.523852 
z
" clip-path="url(#pc414742dd8)" style="fill: #117733; fill-opacity: 0.6; stroke: #ffffff; stroke-opacity: 0.6; stroke-width: 0.339411"/>
    <path d="M 148.470815 151.823797 
L 149.531475 150.763136 
L 150.592136 151.823797 
L 151.652796 150.763136 
L 150.592136 149.702476 
L 151.652796 148.641816 
L 150.592136 147.581156 
L 149.531475 148.641816 
L 148.470815 147.581156 
L 147.410155 148.641816 
L 148.470815 149.702476 
L 147.410155 150.763136 
z
" clip-path="url(#pc414742dd8)" style="fill: #117733; fill-opacity: 0.6; stroke: #ffffff; stroke-opacity: 0.6; stroke-width: 0.339411"/>
    <path d="M 178.483391 158.823621 
L 179.544051 157.762961 
L 180.604711 158.823621 
L 181.665372 157.762961 
L 180.604711 156.702301 
L 181.665372 155.64164 
L 180.604711 154.58098 
L 179.544051 155.64164 
L 178.483391 154.58098 
L 177.422731 155.64164 
L 178.483391 156.702301 
L 177.422731 157.762961 
z
" clip-path="url(#pc414742dd8)" style="fill: #117733; fill-opacity: 0.6; stroke: #ffffff; stroke-opacity: 0.6; stroke-width: 0.339411"/>
    <path d="M 177.344218 166.091775 
L 178.404878 165.031115 
L 179.465538 166.091775 
L 180.526198 165.031115 
L 179.465538 163.970455 
L 180.526198 162.909795 
L 179.465538 161.849135 
L 178.404878 162.909795 
L 177.344218 161.849135 
L 176.283558 162.909795 
L 177.344218 163.970455 
L 176.283558 165.031115 
z
" clip-path="url(#pc414742dd8)" style="fill: #117733; fill-opacity: 0.6; stroke: #ffffff; stroke-opacity: 0.6; stroke-width: 0.339411"/>
    <path d="M 135.328284 148.438167 
L 136.388944 147.377507 
L 137.449604 148.438167 
L 138.510264 147.377507 
L 137.449604 146.316847 
L 138.510264 145.256187 
L 137.449604 144.195527 
L 136.388944 145.256187 
L 135.328284 144.195527 
L 134.267624 145.256187 
L 135.328284 146.316847 
L 134.267624 147.377507 
z
" clip-path="url(#pc414742dd8)" style="fill: #117733; fill-opacity: 0.6; stroke: #ffffff; stroke-opacity: 0.6; stroke-width: 0.339411"/>
    <path d="M 187.351383 140.398508 
L 188.412044 139.337848 
L 189.472704 140.398508 
L 190.533364 139.337848 
L 189.472704 138.277188 
L 190.533364 137.216528 
L 189.472704 136.155868 
L 188.412044 137.216528 
L 187.351383 136.155868 
L 186.290723 137.216528 
L 187.351383 138.277188 
L 186.290723 139.337848 
z
" clip-path="url(#pc414742dd8)" style="fill: #117733; fill-opacity: 0.6; stroke: #ffffff; stroke-opacity: 0.6; stroke-width: 0.339411"/>
    <path d="M 194.492565 118.610246 
L 195.553225 117.549586 
L 196.613885 118.610246 
L 197.674545 117.549586 
L 196.613885 116.488925 
L 197.674545 115.428265 
L 196.613885 114.367605 
L 195.553225 115.428265 
L 194.492565 114.367605 
L 193.431905 115.428265 
L 194.492565 116.488925 
L 193.431905 117.549586 
z
" clip-path="url(#pc414742dd8)" style="fill: #117733; fill-opacity: 0.6; stroke: #ffffff; stroke-opacity: 0.6; stroke-width: 0.339411"/>
    <path d="M 187.793371 142.685807 
L 188.854031 141.625147 
L 189.914691 142.685807 
L 190.975352 141.625147 
L 189.914691 140.564487 
L 190.975352 139.503827 
L 189.914691 138.443167 
L 188.854031 139.503827 
L 187.793371 138.443167 
L 186.732711 139.503827 
L 187.793371 140.564487 
L 186.732711 141.625147 
z
" clip-path="url(#pc414742dd8)" style="fill: #117733; fill-opacity: 0.6; stroke: #ffffff; stroke-opacity: 0.6; stroke-width: 0.339411"/>
    <path d="M 176.40795 142.454545 
L 177.46861 141.393885 
L 178.52927 142.454545 
L 179.58993 141.393885 
L 178.52927 140.333225 
L 179.58993 139.272564 
L 178.52927 138.211904 
L 177.46861 139.272564 
L 176.40795 138.211904 
L 175.34729 139.272564 
L 176.40795 140.333225 
L 175.34729 141.393885 
z
" clip-path="url(#pc414742dd8)" style="fill: #117733; fill-opacity: 0.6; stroke: #ffffff; stroke-opacity: 0.6; stroke-width: 0.339411"/>
    <path d="M 204.577091 127.023118 
L 205.637751 125.962458 
L 206.698411 127.023118 
L 207.759071 125.962458 
L 206.698411 124.901797 
L 207.759071 123.841137 
L 206.698411 122.780477 
L 205.637751 123.841137 
L 204.577091 122.780477 
L 203.516431 123.841137 
L 204.577091 124.901797 
L 203.516431 125.962458 
z
" clip-path="url(#pc414742dd8)" style="fill: #117733; fill-opacity: 0.6; stroke: #ffffff; stroke-opacity: 0.6; stroke-width: 0.339411"/>
    <path d="M 169.290391 161.100255 
L 170.351051 160.039595 
L 171.411711 161.100255 
L 172.472371 160.039595 
L 171.411711 158.978934 
L 172.472371 157.918274 
L 171.411711 156.857614 
L 170.351051 157.918274 
L 169.290391 156.857614 
L 168.229731 157.918274 
L 169.290391 158.978934 
L 168.229731 160.039595 
z
" clip-path="url(#pc414742dd8)" style="fill: #117733; fill-opacity: 0.6; stroke: #ffffff; stroke-opacity: 0.6; stroke-width: 0.339411"/>
    <path d="M 175.019263 163.494575 
L 176.079923 162.433915 
L 177.140584 163.494575 
L 178.201244 162.433915 
L 177.140584 161.373255 
L 178.201244 160.312594 
L 177.140584 159.251934 
L 176.079923 160.312594 
L 175.019263 159.251934 
L 173.958603 160.312594 
L 175.019263 161.373255 
L 173.958603 162.433915 
z
" clip-path="url(#pc414742dd8)" style="fill: #117733; fill-opacity: 0.6; stroke: #ffffff; stroke-opacity: 0.6; stroke-width: 0.339411"/>
    <path d="M 185.010475 157.807163 
L 186.071136 156.746503 
L 187.131796 157.807163 
L 188.192456 156.746503 
L 187.131796 155.685843 
L 188.192456 154.625183 
L 187.131796 153.564522 
L 186.071136 154.625183 
L 185.010475 153.564522 
L 183.949815 154.625183 
L 185.010475 155.685843 
L 183.949815 156.746503 
z
" clip-path="url(#pc414742dd8)" style="fill: #117733; fill-opacity: 0.6; stroke: #ffffff; stroke-opacity: 0.6; stroke-width: 0.339411"/>
    <path d="M 177.000873 157.609161 
L 178.061533 156.5485 
L 179.122193 157.609161 
L 180.182853 156.5485 
L 179.122193 155.48784 
L 180.182853 154.42718 
L 179.122193 153.36652 
L 178.061533 154.42718 
L 177.000873 153.36652 
L 175.940213 154.42718 
L 177.000873 155.48784 
L 175.940213 156.5485 
z
" clip-path="url(#pc414742dd8)" style="fill: #117733; fill-opacity: 0.6; stroke: #ffffff; stroke-opacity: 0.6; stroke-width: 0.339411"/>
    <path d="M 128.262516 135.275827 
L 129.323176 134.215166 
L 130.383837 135.275827 
L 131.444497 134.215166 
L 130.383837 133.154506 
L 131.444497 132.093846 
L 130.383837 131.033186 
L 129.323176 132.093846 
L 128.262516 131.033186 
L 127.201856 132.093846 
L 128.262516 133.154506 
L 127.201856 134.215166 
z
" clip-path="url(#pc414742dd8)" style="fill: #117733; fill-opacity: 0.6; stroke: #ffffff; stroke-opacity: 0.6; stroke-width: 0.339411"/>
    <path d="M 101.72897 136.997719 
L 102.78963 135.937059 
L 103.85029 136.997719 
L 104.91095 135.937059 
L 103.85029 134.876398 
L 104.91095 133.815738 
L 103.85029 132.755078 
L 102.78963 133.815738 
L 101.72897 132.755078 
L 100.66831 133.815738 
L 101.72897 134.876398 
L 100.66831 135.937059 
z
" clip-path="url(#pc414742dd8)" style="fill: #117733; fill-opacity: 0.6; stroke: #ffffff; stroke-opacity: 0.6; stroke-width: 0.339411"/>
    <path d="M 135.586205 140.588723 
L 136.646865 139.528063 
L 137.707526 140.588723 
L 138.768186 139.528063 
L 137.707526 138.467403 
L 138.768186 137.406742 
L 137.707526 136.346082 
L 136.646865 137.406742 
L 135.586205 136.346082 
L 134.525545 137.406742 
L 135.586205 138.467403 
L 134.525545 139.528063 
z
" clip-path="url(#pc414742dd8)" style="fill: #117733; fill-opacity: 0.6; stroke: #ffffff; stroke-opacity: 0.6; stroke-width: 0.339411"/>
    <path d="M 171.708325 146.337987 
L 172.768985 145.277327 
L 173.829646 146.337987 
L 174.890306 145.277327 
L 173.829646 144.216667 
L 174.890306 143.156007 
L 173.829646 142.095347 
L 172.768985 143.156007 
L 171.708325 142.095347 
L 170.647665 143.156007 
L 171.708325 144.216667 
L 170.647665 145.277327 
z
" clip-path="url(#pc414742dd8)" style="fill: #117733; fill-opacity: 0.6; stroke: #ffffff; stroke-opacity: 0.6; stroke-width: 0.339411"/>
    <path d="M 179.728649 162.140553 
L 180.78931 161.079893 
L 181.84997 162.140553 
L 182.91063 161.079893 
L 181.84997 160.019233 
L 182.91063 158.958573 
L 181.84997 157.897913 
L 180.78931 158.958573 
L 179.728649 157.897913 
L 178.667989 158.958573 
L 179.728649 160.019233 
L 178.667989 161.079893 
z
" clip-path="url(#pc414742dd8)" style="fill: #117733; fill-opacity: 0.6; stroke: #ffffff; stroke-opacity: 0.6; stroke-width: 0.339411"/>
    <path d="M 142.465565 148.255121 
L 143.879778 148.255121 
L 143.879778 146.840907 
L 145.293992 146.840907 
L 145.293992 145.426693 
L 143.879778 145.426693 
L 143.879778 144.01248 
L 142.465565 144.01248 
L 142.465565 145.426693 
L 141.051351 145.426693 
L 141.051351 146.840907 
L 142.465565 146.840907 
z
" clip-path="url(#pc414742dd8)" style="fill: #44aa99; fill-opacity: 0.6; stroke: #ffffff; stroke-opacity: 0.6; stroke-width: 0.339411"/>
    <path d="M 124.161417 153.277108 
L 125.575631 153.277108 
L 125.575631 151.862894 
L 126.989844 151.862894 
L 126.989844 150.448681 
L 125.575631 150.448681 
L 125.575631 149.034467 
L 124.161417 149.034467 
L 124.161417 150.448681 
L 122.747204 150.448681 
L 122.747204 151.862894 
L 124.161417 151.862894 
z
" clip-path="url(#pc414742dd8)" style="fill: #44aa99; fill-opacity: 0.6; stroke: #ffffff; stroke-opacity: 0.6; stroke-width: 0.339411"/>
    <path d="M 117.082814 165.190952 
L 118.497027 165.190952 
L 118.497027 163.776738 
L 119.911241 163.776738 
L 119.911241 162.362525 
L 118.497027 162.362525 
L 118.497027 160.948311 
L 117.082814 160.948311 
L 117.082814 162.362525 
L 115.6686 162.362525 
L 115.6686 163.776738 
L 117.082814 163.776738 
z
" clip-path="url(#pc414742dd8)" style="fill: #44aa99; fill-opacity: 0.6; stroke: #ffffff; stroke-opacity: 0.6; stroke-width: 0.339411"/>
    <path d="M 100.259556 166.382367 
L 101.67377 166.382367 
L 101.67377 164.968153 
L 103.087983 164.968153 
L 103.087983 163.553939 
L 101.67377 163.553939 
L 101.67377 162.139726 
L 100.259556 162.139726 
L 100.259556 163.553939 
L 98.845343 163.553939 
L 98.845343 164.968153 
L 100.259556 164.968153 
z
" clip-path="url(#pc414742dd8)" style="fill: #44aa99; fill-opacity: 0.6; stroke: #ffffff; stroke-opacity: 0.6; stroke-width: 0.339411"/>
    <path d="M 93.170074 149.353677 
L 94.584288 149.353677 
L 94.584288 147.939464 
L 95.998502 147.939464 
L 95.998502 146.52525 
L 94.584288 146.52525 
L 94.584288 145.111036 
L 93.170074 145.111036 
L 93.170074 146.52525 
L 91.755861 146.52525 
L 91.755861 147.939464 
L 93.170074 147.939464 
z
" clip-path="url(#pc414742dd8)" style="fill: #44aa99; fill-opacity: 0.6; stroke: #ffffff; stroke-opacity: 0.6; stroke-width: 0.339411"/>
    <path d="M 120.289328 139.541354 
L 121.703541 139.541354 
L 121.703541 138.12714 
L 123.117755 138.12714 
L 123.117755 136.712927 
L 121.703541 136.712927 
L 121.703541 135.298713 
L 120.289328 135.298713 
L 120.289328 136.712927 
L 118.875114 136.712927 
L 118.875114 138.12714 
L 120.289328 138.12714 
z
" clip-path="url(#pc414742dd8)" style="fill: #44aa99; fill-opacity: 0.6; stroke: #ffffff; stroke-opacity: 0.6; stroke-width: 0.339411"/>
    <path d="M 71.287648 142.302827 
L 72.701862 142.302827 
L 72.701862 140.888614 
L 74.116076 140.888614 
L 74.116076 139.4744 
L 72.701862 139.4744 
L 72.701862 138.060187 
L 71.287648 138.060187 
L 71.287648 139.4744 
L 69.873435 139.4744 
L 69.873435 140.888614 
L 71.287648 140.888614 
z
" clip-path="url(#pc414742dd8)" style="fill: #44aa99; fill-opacity: 0.6; stroke: #ffffff; stroke-opacity: 0.6; stroke-width: 0.339411"/>
    <path d="M 95.468894 164.107709 
L 96.883107 164.107709 
L 96.883107 162.693496 
L 98.297321 162.693496 
L 98.297321 161.279282 
L 96.883107 161.279282 
L 96.883107 159.865069 
L 95.468894 159.865069 
L 95.468894 161.279282 
L 94.05468 161.279282 
L 94.05468 162.693496 
L 95.468894 162.693496 
z
" clip-path="url(#pc414742dd8)" style="fill: #44aa99; fill-opacity: 0.6; stroke: #ffffff; stroke-opacity: 0.6; stroke-width: 0.339411"/>
    <path d="M 126.094703 158.806109 
L 127.508917 158.806109 
L 127.508917 157.391895 
L 128.923131 157.391895 
L 128.923131 155.977682 
L 127.508917 155.977682 
L 127.508917 154.563468 
L 126.094703 154.563468 
L 126.094703 155.977682 
L 124.68049 155.977682 
L 124.68049 157.391895 
L 126.094703 157.391895 
z
" clip-path="url(#pc414742dd8)" style="fill: #44aa99; fill-opacity: 0.6; stroke: #ffffff; stroke-opacity: 0.6; stroke-width: 0.339411"/>
    <path d="M 129.010376 143.964267 
L 130.424589 143.964267 
L 130.424589 142.550053 
L 131.838803 142.550053 
L 131.838803 141.13584 
L 130.424589 141.13584 
L 130.424589 139.721626 
L 129.010376 139.721626 
L 129.010376 141.13584 
L 127.596162 141.13584 
L 127.596162 142.550053 
L 129.010376 142.550053 
z
" clip-path="url(#pc414742dd8)" style="fill: #44aa99; fill-opacity: 0.6; stroke: #ffffff; stroke-opacity: 0.6; stroke-width: 0.339411"/>
    <path d="M 120.098671 145.719878 
L 121.512885 145.719878 
L 121.512885 144.305664 
L 122.927098 144.305664 
L 122.927098 142.89145 
L 121.512885 142.89145 
L 121.512885 141.477237 
L 120.098671 141.477237 
L 120.098671 142.89145 
L 118.684457 142.89145 
L 118.684457 144.305664 
L 120.098671 144.305664 
z
" clip-path="url(#pc414742dd8)" style="fill: #44aa99; fill-opacity: 0.6; stroke: #ffffff; stroke-opacity: 0.6; stroke-width: 0.339411"/>
    <path d="M 120.892638 150.126271 
L 122.306852 150.126271 
L 122.306852 148.712057 
L 123.721065 148.712057 
L 123.721065 147.297844 
L 122.306852 147.297844 
L 122.306852 145.88363 
L 120.892638 145.88363 
L 120.892638 147.297844 
L 119.478425 147.297844 
L 119.478425 148.712057 
L 120.892638 148.712057 
z
" clip-path="url(#pc414742dd8)" style="fill: #44aa99; fill-opacity: 0.6; stroke: #ffffff; stroke-opacity: 0.6; stroke-width: 0.339411"/>
    <path d="M 96.047012 146.082514 
L 97.461226 146.082514 
L 97.461226 144.668301 
L 98.875439 144.668301 
L 98.875439 143.254087 
L 97.461226 143.254087 
L 97.461226 141.839874 
L 96.047012 141.839874 
L 96.047012 143.254087 
L 94.632799 143.254087 
L 94.632799 144.668301 
L 96.047012 144.668301 
z
" clip-path="url(#pc414742dd8)" style="fill: #44aa99; fill-opacity: 0.6; stroke: #ffffff; stroke-opacity: 0.6; stroke-width: 0.339411"/>
    <path d="M 111.912849 135.023018 
L 113.327063 135.023018 
L 113.327063 133.608804 
L 114.741277 133.608804 
L 114.741277 132.194591 
L 113.327063 132.194591 
L 113.327063 130.780377 
L 111.912849 130.780377 
L 111.912849 132.194591 
L 110.498636 132.194591 
L 110.498636 133.608804 
L 111.912849 133.608804 
z
" clip-path="url(#pc414742dd8)" style="fill: #44aa99; fill-opacity: 0.6; stroke: #ffffff; stroke-opacity: 0.6; stroke-width: 0.339411"/>
    <path d="M 106.889592 164.902035 
L 108.303806 164.902035 
L 108.303806 163.487822 
L 109.718019 163.487822 
L 109.718019 162.073608 
L 108.303806 162.073608 
L 108.303806 160.659395 
L 106.889592 160.659395 
L 106.889592 162.073608 
L 105.475379 162.073608 
L 105.475379 163.487822 
L 106.889592 163.487822 
z
" clip-path="url(#pc414742dd8)" style="fill: #44aa99; fill-opacity: 0.6; stroke: #ffffff; stroke-opacity: 0.6; stroke-width: 0.339411"/>
    <path d="M 72.180102 145.052387 
L 73.594316 145.052387 
L 73.594316 143.638174 
L 75.008529 143.638174 
L 75.008529 142.22396 
L 73.594316 142.22396 
L 73.594316 140.809747 
L 72.180102 140.809747 
L 72.180102 142.22396 
L 70.765888 142.22396 
L 70.765888 143.638174 
L 72.180102 143.638174 
z
" clip-path="url(#pc414742dd8)" style="fill: #44aa99; fill-opacity: 0.6; stroke: #ffffff; stroke-opacity: 0.6; stroke-width: 0.339411"/>
    <path d="M 172.941475 84.469892 
L 174.355688 84.469892 
L 174.355688 83.055678 
L 175.769902 83.055678 
L 175.769902 81.641465 
L 174.355688 81.641465 
L 174.355688 80.227251 
L 172.941475 80.227251 
L 172.941475 81.641465 
L 171.527261 81.641465 
L 171.527261 83.055678 
L 172.941475 83.055678 
z
" clip-path="url(#pc414742dd8)" style="fill: #44aa99; fill-opacity: 0.6; stroke: #ffffff; stroke-opacity: 0.6; stroke-width: 0.339411"/>
    <path d="M 119.632403 136.096102 
L 121.046616 136.096102 
L 121.046616 134.681889 
L 122.46083 134.681889 
L 122.46083 133.267675 
L 121.046616 133.267675 
L 121.046616 131.853461 
L 119.632403 131.853461 
L 119.632403 133.267675 
L 118.218189 133.267675 
L 118.218189 134.681889 
L 119.632403 134.681889 
z
" clip-path="url(#pc414742dd8)" style="fill: #44aa99; fill-opacity: 0.6; stroke: #ffffff; stroke-opacity: 0.6; stroke-width: 0.339411"/>
    <path d="M 111.130122 158.176957 
L 112.544335 158.176957 
L 112.544335 156.762743 
L 113.958549 156.762743 
L 113.958549 155.34853 
L 112.544335 155.34853 
L 112.544335 153.934316 
L 111.130122 153.934316 
L 111.130122 155.34853 
L 109.715908 155.34853 
L 109.715908 156.762743 
L 111.130122 156.762743 
z
" clip-path="url(#pc414742dd8)" style="fill: #44aa99; fill-opacity: 0.6; stroke: #ffffff; stroke-opacity: 0.6; stroke-width: 0.339411"/>
    <path d="M 73.548299 141.953204 
L 74.962513 141.953204 
L 74.962513 140.538991 
L 76.376727 140.538991 
L 76.376727 139.124777 
L 74.962513 139.124777 
L 74.962513 137.710564 
L 73.548299 137.710564 
L 73.548299 139.124777 
L 72.134086 139.124777 
L 72.134086 140.538991 
L 73.548299 140.538991 
z
" clip-path="url(#pc414742dd8)" style="fill: #44aa99; fill-opacity: 0.6; stroke: #ffffff; stroke-opacity: 0.6; stroke-width: 0.339411"/>
    <path d="M 89.984732 151.281872 
L 91.398945 151.281872 
L 91.398945 149.867658 
L 92.813159 149.867658 
L 92.813159 148.453445 
L 91.398945 148.453445 
L 91.398945 147.039231 
L 89.984732 147.039231 
L 89.984732 148.453445 
L 88.570518 148.453445 
L 88.570518 149.867658 
L 89.984732 149.867658 
z
" clip-path="url(#pc414742dd8)" style="fill: #44aa99; fill-opacity: 0.6; stroke: #ffffff; stroke-opacity: 0.6; stroke-width: 0.339411"/>
    <path d="M 120.634647 136.146065 
L 122.04886 136.146065 
L 122.04886 134.731852 
L 123.463074 134.731852 
L 123.463074 133.317638 
L 122.04886 133.317638 
L 122.04886 131.903425 
L 120.634647 131.903425 
L 120.634647 133.317638 
L 119.220433 133.317638 
L 119.220433 134.731852 
L 120.634647 134.731852 
z
" clip-path="url(#pc414742dd8)" style="fill: #44aa99; fill-opacity: 0.6; stroke: #ffffff; stroke-opacity: 0.6; stroke-width: 0.339411"/>
    <path d="M 120.352925 157.452597 
L 121.767139 157.452597 
L 121.767139 156.038384 
L 123.181352 156.038384 
L 123.181352 154.62417 
L 121.767139 154.62417 
L 121.767139 153.209957 
L 120.352925 153.209957 
L 120.352925 154.62417 
L 118.938711 154.62417 
L 118.938711 156.038384 
L 120.352925 156.038384 
z
" clip-path="url(#pc414742dd8)" style="fill: #44aa99; fill-opacity: 0.6; stroke: #ffffff; stroke-opacity: 0.6; stroke-width: 0.339411"/>
    <path d="M 92.252742 148.239146 
L 93.666955 148.239146 
L 93.666955 146.824932 
L 95.081169 146.824932 
L 95.081169 145.410719 
L 93.666955 145.410719 
L 93.666955 143.996505 
L 92.252742 143.996505 
L 92.252742 145.410719 
L 90.838528 145.410719 
L 90.838528 146.824932 
L 92.252742 146.824932 
z
" clip-path="url(#pc414742dd8)" style="fill: #44aa99; fill-opacity: 0.6; stroke: #ffffff; stroke-opacity: 0.6; stroke-width: 0.339411"/>
    <path d="M 127.254624 137.628988 
L 128.668838 137.628988 
L 128.668838 136.214774 
L 130.083052 136.214774 
L 130.083052 134.800561 
L 128.668838 134.800561 
L 128.668838 133.386347 
L 127.254624 133.386347 
L 127.254624 134.800561 
L 125.840411 134.800561 
L 125.840411 136.214774 
L 127.254624 136.214774 
z
" clip-path="url(#pc414742dd8)" style="fill: #44aa99; fill-opacity: 0.6; stroke: #ffffff; stroke-opacity: 0.6; stroke-width: 0.339411"/>
    <path d="M 67.229895 126.0883 
L 68.644108 126.0883 
L 68.644108 124.674087 
L 70.058322 124.674087 
L 70.058322 123.259873 
L 68.644108 123.259873 
L 68.644108 121.84566 
L 67.229895 121.84566 
L 67.229895 123.259873 
L 65.815681 123.259873 
L 65.815681 124.674087 
L 67.229895 124.674087 
z
" clip-path="url(#pc414742dd8)" style="fill: #44aa99; fill-opacity: 0.6; stroke: #ffffff; stroke-opacity: 0.6; stroke-width: 0.339411"/>
    <path d="M 89.753839 151.722954 
L 91.168052 151.722954 
L 91.168052 150.30874 
L 92.582266 150.30874 
L 92.582266 148.894526 
L 91.168052 148.894526 
L 91.168052 147.480313 
L 89.753839 147.480313 
L 89.753839 148.894526 
L 88.339625 148.894526 
L 88.339625 150.30874 
L 89.753839 150.30874 
z
" clip-path="url(#pc414742dd8)" style="fill: #44aa99; fill-opacity: 0.6; stroke: #ffffff; stroke-opacity: 0.6; stroke-width: 0.339411"/>
    <path d="M 172.186031 107.643287 
L 173.600245 107.643287 
L 173.600245 106.229073 
L 175.014458 106.229073 
L 175.014458 104.81486 
L 173.600245 104.81486 
L 173.600245 103.400646 
L 172.186031 103.400646 
L 172.186031 104.81486 
L 170.771818 104.81486 
L 170.771818 106.229073 
L 172.186031 106.229073 
z
" clip-path="url(#pc414742dd8)" style="fill: #44aa99; fill-opacity: 0.6; stroke: #ffffff; stroke-opacity: 0.6; stroke-width: 0.339411"/>
    <path d="M 125.683598 128.216531 
L 127.097811 128.216531 
L 127.097811 126.802317 
L 128.512025 126.802317 
L 128.512025 125.388104 
L 127.097811 125.388104 
L 127.097811 123.97389 
L 125.683598 123.97389 
L 125.683598 125.388104 
L 124.269384 125.388104 
L 124.269384 126.802317 
L 125.683598 126.802317 
z
" clip-path="url(#pc414742dd8)" style="fill: #44aa99; fill-opacity: 0.6; stroke: #ffffff; stroke-opacity: 0.6; stroke-width: 0.339411"/>
    <path d="M 71.076368 140.276222 
L 72.490581 140.276222 
L 72.490581 138.862008 
L 73.904795 138.862008 
L 73.904795 137.447795 
L 72.490581 137.447795 
L 72.490581 136.033581 
L 71.076368 136.033581 
L 71.076368 137.447795 
L 69.662154 137.447795 
L 69.662154 138.862008 
L 71.076368 138.862008 
z
" clip-path="url(#pc414742dd8)" style="fill: #44aa99; fill-opacity: 0.6; stroke: #ffffff; stroke-opacity: 0.6; stroke-width: 0.339411"/>
    <path d="M 107.373399 150.730881 
L 108.787613 150.730881 
L 108.787613 149.316668 
L 110.201826 149.316668 
L 110.201826 147.902454 
L 108.787613 147.902454 
L 108.787613 146.488241 
L 107.373399 146.488241 
L 107.373399 147.902454 
L 105.959185 147.902454 
L 105.959185 149.316668 
L 107.373399 149.316668 
z
" clip-path="url(#pc414742dd8)" style="fill: #44aa99; fill-opacity: 0.6; stroke: #ffffff; stroke-opacity: 0.6; stroke-width: 0.339411"/>
    <path d="M 90.864713 156.57823 
L 92.278927 156.57823 
L 92.278927 155.164016 
L 93.693141 155.164016 
L 93.693141 153.749803 
L 92.278927 153.749803 
L 92.278927 152.335589 
L 90.864713 152.335589 
L 90.864713 153.749803 
L 89.4505 153.749803 
L 89.4505 155.164016 
L 90.864713 155.164016 
z
" clip-path="url(#pc414742dd8)" style="fill: #44aa99; fill-opacity: 0.6; stroke: #ffffff; stroke-opacity: 0.6; stroke-width: 0.339411"/>
    <path d="M 98.660565 151.077619 
L 100.074779 151.077619 
L 100.074779 149.663405 
L 101.488992 149.663405 
L 101.488992 148.249192 
L 100.074779 148.249192 
L 100.074779 146.834978 
L 98.660565 146.834978 
L 98.660565 148.249192 
L 97.246352 148.249192 
L 97.246352 149.663405 
L 98.660565 149.663405 
z
" clip-path="url(#pc414742dd8)" style="fill: #44aa99; fill-opacity: 0.6; stroke: #ffffff; stroke-opacity: 0.6; stroke-width: 0.339411"/>
    <path d="M 92.641768 155.516455 
L 94.055981 155.516455 
L 94.055981 154.102242 
L 95.470195 154.102242 
L 95.470195 152.688028 
L 94.055981 152.688028 
L 94.055981 151.273815 
L 92.641768 151.273815 
L 92.641768 152.688028 
L 91.227554 152.688028 
L 91.227554 154.102242 
L 92.641768 154.102242 
z
" clip-path="url(#pc414742dd8)" style="fill: #44aa99; fill-opacity: 0.6; stroke: #ffffff; stroke-opacity: 0.6; stroke-width: 0.339411"/>
    <path d="M 107.222248 164.842909 
L 108.636461 164.842909 
L 108.636461 163.428695 
L 110.050675 163.428695 
L 110.050675 162.014482 
L 108.636461 162.014482 
L 108.636461 160.600268 
L 107.222248 160.600268 
L 107.222248 162.014482 
L 105.808034 162.014482 
L 105.808034 163.428695 
L 107.222248 163.428695 
z
" clip-path="url(#pc414742dd8)" style="fill: #44aa99; fill-opacity: 0.6; stroke: #ffffff; stroke-opacity: 0.6; stroke-width: 0.339411"/>
    <path d="M 128.830991 129.944949 
L 130.245204 129.944949 
L 130.245204 128.530735 
L 131.659418 128.530735 
L 131.659418 127.116522 
L 130.245204 127.116522 
L 130.245204 125.702308 
L 128.830991 125.702308 
L 128.830991 127.116522 
L 127.416777 127.116522 
L 127.416777 128.530735 
L 128.830991 128.530735 
z
" clip-path="url(#pc414742dd8)" style="fill: #44aa99; fill-opacity: 0.6; stroke: #ffffff; stroke-opacity: 0.6; stroke-width: 0.339411"/>
    <path d="M 108.114718 155.573645 
L 109.528931 155.573645 
L 109.528931 154.159432 
L 110.943145 154.159432 
L 110.943145 152.745218 
L 109.528931 152.745218 
L 109.528931 151.331005 
L 108.114718 151.331005 
L 108.114718 152.745218 
L 106.700504 152.745218 
L 106.700504 154.159432 
L 108.114718 154.159432 
z
" clip-path="url(#pc414742dd8)" style="fill: #44aa99; fill-opacity: 0.6; stroke: #ffffff; stroke-opacity: 0.6; stroke-width: 0.339411"/>
    <path d="M 116.096313 166.883224 
L 117.510526 166.883224 
L 117.510526 165.469011 
L 118.92474 165.469011 
L 118.92474 164.054797 
L 117.510526 164.054797 
L 117.510526 162.640584 
L 116.096313 162.640584 
L 116.096313 164.054797 
L 114.682099 164.054797 
L 114.682099 165.469011 
L 116.096313 165.469011 
z
" clip-path="url(#pc414742dd8)" style="fill: #44aa99; fill-opacity: 0.6; stroke: #ffffff; stroke-opacity: 0.6; stroke-width: 0.339411"/>
    <path d="M 104.463708 155.651813 
L 105.877922 155.651813 
L 105.877922 154.237599 
L 107.292135 154.237599 
L 107.292135 152.823385 
L 105.877922 152.823385 
L 105.877922 151.409172 
L 104.463708 151.409172 
L 104.463708 152.823385 
L 103.049495 152.823385 
L 103.049495 154.237599 
L 104.463708 154.237599 
z
" clip-path="url(#pc414742dd8)" style="fill: #44aa99; fill-opacity: 0.6; stroke: #ffffff; stroke-opacity: 0.6; stroke-width: 0.339411"/>
    <path d="M 120.759894 158.808121 
L 122.174108 158.808121 
L 122.174108 157.393907 
L 123.588321 157.393907 
L 123.588321 155.979694 
L 122.174108 155.979694 
L 122.174108 154.56548 
L 120.759894 154.56548 
L 120.759894 155.979694 
L 119.345681 155.979694 
L 119.345681 157.393907 
L 120.759894 157.393907 
z
" clip-path="url(#pc414742dd8)" style="fill: #44aa99; fill-opacity: 0.6; stroke: #ffffff; stroke-opacity: 0.6; stroke-width: 0.339411"/>
    <path d="M 98.844437 161.443878 
L 100.258651 161.443878 
L 100.258651 160.029664 
L 101.672864 160.029664 
L 101.672864 158.615451 
L 100.258651 158.615451 
L 100.258651 157.201237 
L 98.844437 157.201237 
L 98.844437 158.615451 
L 97.430224 158.615451 
L 97.430224 160.029664 
L 98.844437 160.029664 
z
" clip-path="url(#pc414742dd8)" style="fill: #44aa99; fill-opacity: 0.6; stroke: #ffffff; stroke-opacity: 0.6; stroke-width: 0.339411"/>
    <path d="M 116.296651 157.215774 
L 117.710864 157.215774 
L 117.710864 155.801561 
L 119.125078 155.801561 
L 119.125078 154.387347 
L 117.710864 154.387347 
L 117.710864 152.973134 
L 116.296651 152.973134 
L 116.296651 154.387347 
L 114.882437 154.387347 
L 114.882437 155.801561 
L 116.296651 155.801561 
z
" clip-path="url(#pc414742dd8)" style="fill: #44aa99; fill-opacity: 0.6; stroke: #ffffff; stroke-opacity: 0.6; stroke-width: 0.339411"/>
    <path d="M 108.641401 168.759142 
L 110.055614 168.759142 
L 110.055614 167.344929 
L 111.469828 167.344929 
L 111.469828 165.930715 
L 110.055614 165.930715 
L 110.055614 164.516502 
L 108.641401 164.516502 
L 108.641401 165.930715 
L 107.227187 165.930715 
L 107.227187 167.344929 
L 108.641401 167.344929 
z
" clip-path="url(#pc414742dd8)" style="fill: #44aa99; fill-opacity: 0.6; stroke: #ffffff; stroke-opacity: 0.6; stroke-width: 0.339411"/>
    <path d="M 98.590901 164.261066 
L 100.005114 164.261066 
L 100.005114 162.846853 
L 101.419328 162.846853 
L 101.419328 161.432639 
L 100.005114 161.432639 
L 100.005114 160.018426 
L 98.590901 160.018426 
L 98.590901 161.432639 
L 97.176687 161.432639 
L 97.176687 162.846853 
L 98.590901 162.846853 
z
" clip-path="url(#pc414742dd8)" style="fill: #44aa99; fill-opacity: 0.6; stroke: #ffffff; stroke-opacity: 0.6; stroke-width: 0.339411"/>
    <path d="M 125.862982 132.426297 
L 127.277196 132.426297 
L 127.277196 131.012084 
L 128.69141 131.012084 
L 128.69141 129.59787 
L 127.277196 129.59787 
L 127.277196 128.183657 
L 125.862982 128.183657 
L 125.862982 129.59787 
L 124.448769 129.59787 
L 124.448769 131.012084 
L 125.862982 131.012084 
z
" clip-path="url(#pc414742dd8)" style="fill: #44aa99; fill-opacity: 0.6; stroke: #ffffff; stroke-opacity: 0.6; stroke-width: 0.339411"/>
    <path d="M 117.542788 132.645209 
L 118.957002 132.645209 
L 118.957002 131.230996 
L 120.371215 131.230996 
L 120.371215 129.816782 
L 118.957002 129.816782 
L 118.957002 128.402569 
L 117.542788 128.402569 
L 117.542788 129.816782 
L 116.128574 129.816782 
L 116.128574 131.230996 
L 117.542788 131.230996 
z
" clip-path="url(#pc414742dd8)" style="fill: #44aa99; fill-opacity: 0.6; stroke: #ffffff; stroke-opacity: 0.6; stroke-width: 0.339411"/>
    <path d="M 122.466356 150.054891 
L 123.88057 150.054891 
L 123.88057 148.640678 
L 125.294784 148.640678 
L 125.294784 147.226464 
L 123.88057 147.226464 
L 123.88057 145.812251 
L 122.466356 145.812251 
L 122.466356 147.226464 
L 121.052143 147.226464 
L 121.052143 148.640678 
L 122.466356 148.640678 
z
" clip-path="url(#pc414742dd8)" style="fill: #44aa99; fill-opacity: 0.6; stroke: #ffffff; stroke-opacity: 0.6; stroke-width: 0.339411"/>
    <path d="M 74.858412 135.935108 
L 76.272625 135.935108 
L 76.272625 134.520895 
L 77.686839 134.520895 
L 77.686839 133.106681 
L 76.272625 133.106681 
L 76.272625 131.692468 
L 74.858412 131.692468 
L 74.858412 133.106681 
L 73.444198 133.106681 
L 73.444198 134.520895 
L 74.858412 134.520895 
z
" clip-path="url(#pc414742dd8)" style="fill: #44aa99; fill-opacity: 0.6; stroke: #ffffff; stroke-opacity: 0.6; stroke-width: 0.339411"/>
    <path d="M 127.33849 164.620826 
L 128.752703 164.620826 
L 128.752703 163.206612 
L 130.166917 163.206612 
L 130.166917 161.792399 
L 128.752703 161.792399 
L 128.752703 160.378185 
L 127.33849 160.378185 
L 127.33849 161.792399 
L 125.924276 161.792399 
L 125.924276 163.206612 
L 127.33849 163.206612 
z
" clip-path="url(#pc414742dd8)" style="fill: #44aa99; fill-opacity: 0.6; stroke: #ffffff; stroke-opacity: 0.6; stroke-width: 0.339411"/>
    <path d="M 66.322191 137.772999 
L 67.736404 137.772999 
L 67.736404 136.358785 
L 69.150618 136.358785 
L 69.150618 134.944571 
L 67.736404 134.944571 
L 67.736404 133.530358 
L 66.322191 133.530358 
L 66.322191 134.944571 
L 64.907977 134.944571 
L 64.907977 136.358785 
L 66.322191 136.358785 
z
" clip-path="url(#pc414742dd8)" style="fill: #44aa99; fill-opacity: 0.6; stroke: #ffffff; stroke-opacity: 0.6; stroke-width: 0.339411"/>
    <path d="M 115.721051 154.671678 
L 117.135264 154.671678 
L 117.135264 153.257465 
L 118.549478 153.257465 
L 118.549478 151.843251 
L 117.135264 151.843251 
L 117.135264 150.429038 
L 115.721051 150.429038 
L 115.721051 151.843251 
L 114.306837 151.843251 
L 114.306837 153.257465 
L 115.721051 153.257465 
z
" clip-path="url(#pc414742dd8)" style="fill: #44aa99; fill-opacity: 0.6; stroke: #ffffff; stroke-opacity: 0.6; stroke-width: 0.339411"/>
    <path d="M 126.576601 155.005067 
L 127.990815 155.005067 
L 127.990815 153.590854 
L 129.405028 153.590854 
L 129.405028 152.17664 
L 127.990815 152.17664 
L 127.990815 150.762427 
L 126.576601 150.762427 
L 126.576601 152.17664 
L 125.162388 152.17664 
L 125.162388 153.590854 
L 126.576601 153.590854 
z
" clip-path="url(#pc414742dd8)" style="fill: #44aa99; fill-opacity: 0.6; stroke: #ffffff; stroke-opacity: 0.6; stroke-width: 0.339411"/>
    <path d="M 135.739944 142.977528 
L 137.154158 142.977528 
L 137.154158 141.563315 
L 138.568371 141.563315 
L 138.568371 140.149101 
L 137.154158 140.149101 
L 137.154158 138.734888 
L 135.739944 138.734888 
L 135.739944 140.149101 
L 134.32573 140.149101 
L 134.32573 141.563315 
L 135.739944 141.563315 
z
" clip-path="url(#pc414742dd8)" style="fill: #44aa99; fill-opacity: 0.6; stroke: #ffffff; stroke-opacity: 0.6; stroke-width: 0.339411"/>
    <path d="M 87.765487 150.090622 
L 89.179701 150.090622 
L 89.179701 148.676408 
L 90.593915 148.676408 
L 90.593915 147.262195 
L 89.179701 147.262195 
L 89.179701 145.847981 
L 87.765487 145.847981 
L 87.765487 147.262195 
L 86.351274 147.262195 
L 86.351274 148.676408 
L 87.765487 148.676408 
z
" clip-path="url(#pc414742dd8)" style="fill: #44aa99; fill-opacity: 0.6; stroke: #ffffff; stroke-opacity: 0.6; stroke-width: 0.339411"/>
    <path d="M 67.722998 137.63587 
L 69.137212 137.63587 
L 69.137212 136.221656 
L 70.551426 136.221656 
L 70.551426 134.807443 
L 69.137212 134.807443 
L 69.137212 133.393229 
L 67.722998 133.393229 
L 67.722998 134.807443 
L 66.308785 134.807443 
L 66.308785 136.221656 
L 67.722998 136.221656 
z
" clip-path="url(#pc414742dd8)" style="fill: #44aa99; fill-opacity: 0.6; stroke: #ffffff; stroke-opacity: 0.6; stroke-width: 0.339411"/>
    <path d="M 112.933236 149.92397 
L 114.34745 149.92397 
L 114.34745 148.509757 
L 115.761663 148.509757 
L 115.761663 147.095543 
L 114.34745 147.095543 
L 114.34745 145.68133 
L 112.933236 145.68133 
L 112.933236 147.095543 
L 111.519023 147.095543 
L 111.519023 148.509757 
L 112.933236 148.509757 
z
" clip-path="url(#pc414742dd8)" style="fill: #44aa99; fill-opacity: 0.6; stroke: #ffffff; stroke-opacity: 0.6; stroke-width: 0.339411"/>
    <path d="M 80.229275 133.434145 
L 81.643488 133.434145 
L 81.643488 132.019931 
L 83.057702 132.019931 
L 83.057702 130.605718 
L 81.643488 130.605718 
L 81.643488 129.191504 
L 80.229275 129.191504 
L 80.229275 130.605718 
L 78.815061 130.605718 
L 78.815061 132.019931 
L 80.229275 132.019931 
z
" clip-path="url(#pc414742dd8)" style="fill: #44aa99; fill-opacity: 0.6; stroke: #ffffff; stroke-opacity: 0.6; stroke-width: 0.339411"/>
    <path d="M 105.050666 160.586726 
L 106.46488 160.586726 
L 106.46488 159.172512 
L 107.879093 159.172512 
L 107.879093 157.758299 
L 106.46488 157.758299 
L 106.46488 156.344085 
L 105.050666 156.344085 
L 105.050666 157.758299 
L 103.636453 157.758299 
L 103.636453 159.172512 
L 105.050666 159.172512 
z
" clip-path="url(#pc414742dd8)" style="fill: #44aa99; fill-opacity: 0.6; stroke: #ffffff; stroke-opacity: 0.6; stroke-width: 0.339411"/>
    <path d="M 121.98763 146.898475 
L 123.401844 146.898475 
L 123.401844 145.484262 
L 124.816057 145.484262 
L 124.816057 144.070048 
L 123.401844 144.070048 
L 123.401844 142.655835 
L 121.98763 142.655835 
L 121.98763 144.070048 
L 120.573416 144.070048 
L 120.573416 145.484262 
L 121.98763 145.484262 
z
" clip-path="url(#pc414742dd8)" style="fill: #44aa99; fill-opacity: 0.6; stroke: #ffffff; stroke-opacity: 0.6; stroke-width: 0.339411"/>
    <path d="M 96.853929 162.409868 
L 98.268142 162.409868 
L 98.268142 160.995655 
L 99.682356 160.995655 
L 99.682356 159.581441 
L 98.268142 159.581441 
L 98.268142 158.167227 
L 96.853929 158.167227 
L 96.853929 159.581441 
L 95.439715 159.581441 
L 95.439715 160.995655 
L 96.853929 160.995655 
z
" clip-path="url(#pc414742dd8)" style="fill: #44aa99; fill-opacity: 0.6; stroke: #ffffff; stroke-opacity: 0.6; stroke-width: 0.339411"/>
    <path d="M 118.455019 166.491974 
L 119.869232 166.491974 
L 119.869232 165.07776 
L 121.283446 165.07776 
L 121.283446 163.663546 
L 119.869232 163.663546 
L 119.869232 162.249333 
L 118.455019 162.249333 
L 118.455019 163.663546 
L 117.040805 163.663546 
L 117.040805 165.07776 
L 118.455019 165.07776 
z
" clip-path="url(#pc414742dd8)" style="fill: #44aa99; fill-opacity: 0.6; stroke: #ffffff; stroke-opacity: 0.6; stroke-width: 0.339411"/>
    <path d="M 69.254756 131.275556 
L 70.668969 131.275556 
L 70.668969 129.861342 
L 72.083183 129.861342 
L 72.083183 128.447128 
L 70.668969 128.447128 
L 70.668969 127.032915 
L 69.254756 127.032915 
L 69.254756 128.447128 
L 67.840542 128.447128 
L 67.840542 129.861342 
L 69.254756 129.861342 
z
" clip-path="url(#pc414742dd8)" style="fill: #44aa99; fill-opacity: 0.6; stroke: #ffffff; stroke-opacity: 0.6; stroke-width: 0.339411"/>
    <path d="M 150.578135 142.034734 
L 151.992349 142.034734 
L 151.992349 140.620521 
L 153.406562 140.620521 
L 153.406562 139.206307 
L 151.992349 139.206307 
L 151.992349 137.792094 
L 150.578135 137.792094 
L 150.578135 139.206307 
L 149.163922 139.206307 
L 149.163922 140.620521 
L 150.578135 140.620521 
z
" clip-path="url(#pc414742dd8)" style="fill: #44aa99; fill-opacity: 0.6; stroke: #ffffff; stroke-opacity: 0.6; stroke-width: 0.339411"/>
    <path d="M 75.291798 118.015716 
L 77.091798 115.015716 
L 75.291798 112.015716 
L 73.491798 115.015716 
z
" clip-path="url(#pc414742dd8)" style="fill: #88ccee; fill-opacity: 0.6; stroke: #ffffff; stroke-opacity: 0.6; stroke-width: 0.339411"/>
    <path d="M 92.993335 138.633702 
L 94.793335 135.633702 
L 92.993335 132.633702 
L 91.193335 135.633702 
z
" clip-path="url(#pc414742dd8)" style="fill: #88ccee; fill-opacity: 0.6; stroke: #ffffff; stroke-opacity: 0.6; stroke-width: 0.339411"/>
    <path d="M 134.945451 148.659232 
L 136.745451 145.659232 
L 134.945451 142.659232 
L 133.145451 145.659232 
z
" clip-path="url(#pc414742dd8)" style="fill: #88ccee; fill-opacity: 0.6; stroke: #ffffff; stroke-opacity: 0.6; stroke-width: 0.339411"/>
    <path d="M 189.158016 133.90297 
L 190.958016 130.90297 
L 189.158016 127.90297 
L 187.358016 130.90297 
z
" clip-path="url(#pc414742dd8)" style="fill: #88ccee; fill-opacity: 0.6; stroke: #ffffff; stroke-opacity: 0.6; stroke-width: 0.339411"/>
    <path d="M 107.884175 132.879854 
L 109.684175 129.879854 
L 107.884175 126.879854 
L 106.084175 129.879854 
z
" clip-path="url(#pc414742dd8)" style="fill: #88ccee; fill-opacity: 0.6; stroke: #ffffff; stroke-opacity: 0.6; stroke-width: 0.339411"/>
    <path d="M 105.436977 136.232444 
L 107.236977 133.232444 
L 105.436977 130.232444 
L 103.636977 133.232444 
z
" clip-path="url(#pc414742dd8)" style="fill: #88ccee; fill-opacity: 0.6; stroke: #ffffff; stroke-opacity: 0.6; stroke-width: 0.339411"/>
    <path d="M 71.321548 121.509242 
L 73.121548 118.509242 
L 71.321548 115.509242 
L 69.521548 118.509242 
z
" clip-path="url(#pc414742dd8)" style="fill: #88ccee; fill-opacity: 0.6; stroke: #ffffff; stroke-opacity: 0.6; stroke-width: 0.339411"/>
    <path d="M 213.557707 118.345643 
L 215.357707 115.345643 
L 213.557707 112.345643 
L 211.757707 115.345643 
z
" clip-path="url(#pc414742dd8)" style="fill: #88ccee; fill-opacity: 0.6; stroke: #ffffff; stroke-opacity: 0.6; stroke-width: 0.339411"/>
    <path d="M 135.63822 134.731422 
L 137.43822 131.731422 
L 135.63822 128.731422 
L 133.83822 131.731422 
z
" clip-path="url(#pc414742dd8)" style="fill: #88ccee; fill-opacity: 0.6; stroke: #ffffff; stroke-opacity: 0.6; stroke-width: 0.339411"/>
    <path d="M 141.360475 140.883087 
L 143.160475 137.883087 
L 141.360475 134.883087 
L 139.560475 137.883087 
z
" clip-path="url(#pc414742dd8)" style="fill: #88ccee; fill-opacity: 0.6; stroke: #ffffff; stroke-opacity: 0.6; stroke-width: 0.339411"/>
    <path d="M 98.346552 136.744005 
L 100.146552 133.744005 
L 98.346552 130.744005 
L 96.546552 133.744005 
z
" clip-path="url(#pc414742dd8)" style="fill: #88ccee; fill-opacity: 0.6; stroke: #ffffff; stroke-opacity: 0.6; stroke-width: 0.339411"/>
    <path d="M 74.185669 127.492558 
L 75.985669 124.492558 
L 74.185669 121.492558 
L 72.385669 124.492558 
z
" clip-path="url(#pc414742dd8)" style="fill: #88ccee; fill-opacity: 0.6; stroke: #ffffff; stroke-opacity: 0.6; stroke-width: 0.339411"/>
    <path d="M 118.902084 141.480546 
L 120.702084 138.480546 
L 118.902084 135.480546 
L 117.102084 138.480546 
z
" clip-path="url(#pc414742dd8)" style="fill: #88ccee; fill-opacity: 0.6; stroke: #ffffff; stroke-opacity: 0.6; stroke-width: 0.339411"/>
    <path d="M 91.074188 124.041487 
L 92.874188 121.041487 
L 91.074188 118.041487 
L 89.274188 121.041487 
z
" clip-path="url(#pc414742dd8)" style="fill: #88ccee; fill-opacity: 0.6; stroke: #ffffff; stroke-opacity: 0.6; stroke-width: 0.339411"/>
    <path d="M 200.99879 91.691649 
L 202.79879 88.691649 
L 200.99879 85.691649 
L 199.19879 88.691649 
z
" clip-path="url(#pc414742dd8)" style="fill: #88ccee; fill-opacity: 0.6; stroke: #ffffff; stroke-opacity: 0.6; stroke-width: 0.339411"/>
    <path d="M 196.279631 127.384294 
L 198.079631 124.384294 
L 196.279631 121.384294 
L 194.479631 124.384294 
z
" clip-path="url(#pc414742dd8)" style="fill: #88ccee; fill-opacity: 0.6; stroke: #ffffff; stroke-opacity: 0.6; stroke-width: 0.339411"/>
    <path d="M 199.930721 130.724668 
L 201.730721 127.724668 
L 199.930721 124.724668 
L 198.130721 127.724668 
z
" clip-path="url(#pc414742dd8)" style="fill: #88ccee; fill-opacity: 0.6; stroke: #ffffff; stroke-opacity: 0.6; stroke-width: 0.339411"/>
    <path d="M 66.934557 126.361712 
L 68.734557 123.361712 
L 66.934557 120.361712 
L 65.134557 123.361712 
z
" clip-path="url(#pc414742dd8)" style="fill: #88ccee; fill-opacity: 0.6; stroke: #ffffff; stroke-opacity: 0.6; stroke-width: 0.339411"/>
    <path d="M 78.120166 116.031992 
L 79.920166 113.031992 
L 78.120166 110.031992 
L 76.320166 113.031992 
z
" clip-path="url(#pc414742dd8)" style="fill: #88ccee; fill-opacity: 0.6; stroke: #ffffff; stroke-opacity: 0.6; stroke-width: 0.339411"/>
    <path d="M 90.006785 113.73176 
L 91.806785 110.73176 
L 90.006785 107.73176 
L 88.206785 110.73176 
z
" clip-path="url(#pc414742dd8)" style="fill: #88ccee; fill-opacity: 0.6; stroke: #ffffff; stroke-opacity: 0.6; stroke-width: 0.339411"/>
    <path d="M 109.589753 131.87254 
L 111.389753 128.87254 
L 109.589753 125.87254 
L 107.789753 128.87254 
z
" clip-path="url(#pc414742dd8)" style="fill: #88ccee; fill-opacity: 0.6; stroke: #ffffff; stroke-opacity: 0.6; stroke-width: 0.339411"/>
    <path d="M 107.874295 142.264859 
L 109.674295 139.264859 
L 107.874295 136.264859 
L 106.074295 139.264859 
z
" clip-path="url(#pc414742dd8)" style="fill: #88ccee; fill-opacity: 0.6; stroke: #ffffff; stroke-opacity: 0.6; stroke-width: 0.339411"/>
    <path d="M 111.739093 134.287406 
L 113.539093 131.287406 
L 111.739093 128.287406 
L 109.939093 131.287406 
z
" clip-path="url(#pc414742dd8)" style="fill: #88ccee; fill-opacity: 0.6; stroke: #ffffff; stroke-opacity: 0.6; stroke-width: 0.339411"/>
    <path d="M 70.233767 124.815564 
L 72.033767 121.815564 
L 70.233767 118.815564 
L 68.433767 121.815564 
z
" clip-path="url(#pc414742dd8)" style="fill: #88ccee; fill-opacity: 0.6; stroke: #ffffff; stroke-opacity: 0.6; stroke-width: 0.339411"/>
    <path d="M 137.236482 139.883146 
L 139.036482 136.883146 
L 137.236482 133.883146 
L 135.436482 136.883146 
z
" clip-path="url(#pc414742dd8)" style="fill: #88ccee; fill-opacity: 0.6; stroke: #ffffff; stroke-opacity: 0.6; stroke-width: 0.339411"/>
    <path d="M 115.769614 145.63926 
L 117.569614 142.63926 
L 115.769614 139.63926 
L 113.969614 142.63926 
z
" clip-path="url(#pc414742dd8)" style="fill: #88ccee; fill-opacity: 0.6; stroke: #ffffff; stroke-opacity: 0.6; stroke-width: 0.339411"/>
    <path d="M 83.019967 118.640675 
L 84.819967 115.640675 
L 83.019967 112.640675 
L 81.219967 115.640675 
z
" clip-path="url(#pc414742dd8)" style="fill: #88ccee; fill-opacity: 0.6; stroke: #ffffff; stroke-opacity: 0.6; stroke-width: 0.339411"/>
    <path d="M 114.747394 141.786586 
L 116.547394 138.786586 
L 114.747394 135.786586 
L 112.947394 138.786586 
z
" clip-path="url(#pc414742dd8)" style="fill: #88ccee; fill-opacity: 0.6; stroke: #ffffff; stroke-opacity: 0.6; stroke-width: 0.339411"/>
    <path d="M 115.521191 150.791766 
L 117.321191 147.791766 
L 115.521191 144.791766 
L 113.721191 147.791766 
z
" clip-path="url(#pc414742dd8)" style="fill: #88ccee; fill-opacity: 0.6; stroke: #ffffff; stroke-opacity: 0.6; stroke-width: 0.339411"/>
    <path d="M 148.049777 142.669332 
L 149.849777 139.669332 
L 148.049777 136.669332 
L 146.249777 139.669332 
z
" clip-path="url(#pc414742dd8)" style="fill: #88ccee; fill-opacity: 0.6; stroke: #ffffff; stroke-opacity: 0.6; stroke-width: 0.339411"/>
    <path d="M 72.164265 116.835473 
L 73.964265 113.835473 
L 72.164265 110.835473 
L 70.364265 113.835473 
z
" clip-path="url(#pc414742dd8)" style="fill: #88ccee; fill-opacity: 0.6; stroke: #ffffff; stroke-opacity: 0.6; stroke-width: 0.339411"/>
    <path d="M 172.099543 159.247385 
L 173.899543 156.247385 
L 172.099543 153.247385 
L 170.299543 156.247385 
z
" clip-path="url(#pc414742dd8)" style="fill: #88ccee; fill-opacity: 0.6; stroke: #ffffff; stroke-opacity: 0.6; stroke-width: 0.339411"/>
    <path d="M 95.930861 136.888706 
L 97.730861 133.888706 
L 95.930861 130.888706 
L 94.130861 133.888706 
z
" clip-path="url(#pc414742dd8)" style="fill: #88ccee; fill-opacity: 0.6; stroke: #ffffff; stroke-opacity: 0.6; stroke-width: 0.339411"/>
    <path d="M 94.060045 129.871423 
L 95.860045 126.871423 
L 94.060045 123.871423 
L 92.260045 126.871423 
z
" clip-path="url(#pc414742dd8)" style="fill: #88ccee; fill-opacity: 0.6; stroke: #ffffff; stroke-opacity: 0.6; stroke-width: 0.339411"/>
    <path d="M 99.349621 123.642257 
L 101.149621 120.642257 
L 99.349621 117.642257 
L 97.549621 120.642257 
z
" clip-path="url(#pc414742dd8)" style="fill: #88ccee; fill-opacity: 0.6; stroke: #ffffff; stroke-opacity: 0.6; stroke-width: 0.339411"/>
    <path d="M 88.386051 121.612717 
L 90.186051 118.612717 
L 88.386051 115.612717 
L 86.586051 118.612717 
z
" clip-path="url(#pc414742dd8)" style="fill: #88ccee; fill-opacity: 0.6; stroke: #ffffff; stroke-opacity: 0.6; stroke-width: 0.339411"/>
    <path d="M 70.022635 120.942029 
L 71.822635 117.942029 
L 70.022635 114.942029 
L 68.222635 117.942029 
z
" clip-path="url(#pc414742dd8)" style="fill: #88ccee; fill-opacity: 0.6; stroke: #ffffff; stroke-opacity: 0.6; stroke-width: 0.339411"/>
    <path d="M 92.126899 125.764922 
L 93.926899 122.764922 
L 92.126899 119.764922 
L 90.326899 122.764922 
z
" clip-path="url(#pc414742dd8)" style="fill: #88ccee; fill-opacity: 0.6; stroke: #ffffff; stroke-opacity: 0.6; stroke-width: 0.339411"/>
    <path d="M 115.828261 138.806055 
L 117.628261 135.806055 
L 115.828261 132.806055 
L 114.028261 135.806055 
z
" clip-path="url(#pc414742dd8)" style="fill: #88ccee; fill-opacity: 0.6; stroke: #ffffff; stroke-opacity: 0.6; stroke-width: 0.339411"/>
    <path d="M 81.414399 115.771504 
L 83.214399 112.771504 
L 81.414399 109.771504 
L 79.614399 112.771504 
z
" clip-path="url(#pc414742dd8)" style="fill: #88ccee; fill-opacity: 0.6; stroke: #ffffff; stroke-opacity: 0.6; stroke-width: 0.339411"/>
    <path d="M 69.243771 117.727452 
L 71.043771 114.727452 
L 69.243771 111.727452 
L 67.443771 114.727452 
z
" clip-path="url(#pc414742dd8)" style="fill: #88ccee; fill-opacity: 0.6; stroke: #ffffff; stroke-opacity: 0.6; stroke-width: 0.339411"/>
    <path d="M 97.369419 152.073985 
L 99.169419 149.073985 
L 97.369419 146.073985 
L 95.569419 149.073985 
z
" clip-path="url(#pc414742dd8)" style="fill: #88ccee; fill-opacity: 0.6; stroke: #ffffff; stroke-opacity: 0.6; stroke-width: 0.339411"/>
    <path d="M 78.46188 126.64962 
L 80.26188 123.64962 
L 78.46188 120.64962 
L 76.66188 123.64962 
z
" clip-path="url(#pc414742dd8)" style="fill: #88ccee; fill-opacity: 0.6; stroke: #ffffff; stroke-opacity: 0.6; stroke-width: 0.339411"/>
    <path d="M 89.46503 139.044231 
L 91.26503 136.044231 
L 89.46503 133.044231 
L 87.66503 136.044231 
z
" clip-path="url(#pc414742dd8)" style="fill: #88ccee; fill-opacity: 0.6; stroke: #ffffff; stroke-opacity: 0.6; stroke-width: 0.339411"/>
    <path d="M 129.510371 152.30721 
L 131.310371 149.30721 
L 129.510371 146.30721 
L 127.710371 149.30721 
z
" clip-path="url(#pc414742dd8)" style="fill: #88ccee; fill-opacity: 0.6; stroke: #ffffff; stroke-opacity: 0.6; stroke-width: 0.339411"/>
    <path d="M 78.981884 121.718981 
L 80.781884 118.718981 
L 78.981884 115.718981 
L 77.181884 118.718981 
z
" clip-path="url(#pc414742dd8)" style="fill: #88ccee; fill-opacity: 0.6; stroke: #ffffff; stroke-opacity: 0.6; stroke-width: 0.339411"/>
    <path d="M 167.082569 134.326356 
L 168.882569 131.326356 
L 167.082569 128.326356 
L 165.282569 131.326356 
z
" clip-path="url(#pc414742dd8)" style="fill: #88ccee; fill-opacity: 0.6; stroke: #ffffff; stroke-opacity: 0.6; stroke-width: 0.339411"/>
    <path d="M 87.177526 132.222109 
L 88.977526 129.222109 
L 87.177526 126.222109 
L 85.377526 129.222109 
z
" clip-path="url(#pc414742dd8)" style="fill: #88ccee; fill-opacity: 0.6; stroke: #ffffff; stroke-opacity: 0.6; stroke-width: 0.339411"/>
    <path d="M 132.030939 153.394204 
L 133.830939 150.394204 
L 132.030939 147.394204 
L 130.230939 150.394204 
z
" clip-path="url(#pc414742dd8)" style="fill: #88ccee; fill-opacity: 0.6; stroke: #ffffff; stroke-opacity: 0.6; stroke-width: 0.339411"/>
    <path d="M 107.57127 134.888241 
L 109.37127 131.888241 
L 107.57127 128.888241 
L 105.77127 131.888241 
z
" clip-path="url(#pc414742dd8)" style="fill: #88ccee; fill-opacity: 0.6; stroke: #ffffff; stroke-opacity: 0.6; stroke-width: 0.339411"/>
    <path d="M 93.253878 117.533193 
L 95.053878 114.533193 
L 93.253878 111.533193 
L 91.453878 114.533193 
z
" clip-path="url(#pc414742dd8)" style="fill: #88ccee; fill-opacity: 0.6; stroke: #ffffff; stroke-opacity: 0.6; stroke-width: 0.339411"/>
    <path d="M 76.176307 122.207296 
L 77.976307 119.207296 
L 76.176307 116.207296 
L 74.376307 119.207296 
z
" clip-path="url(#pc414742dd8)" style="fill: #88ccee; fill-opacity: 0.6; stroke: #ffffff; stroke-opacity: 0.6; stroke-width: 0.339411"/>
    <path d="M 83.520474 128.486927 
L 85.320474 125.486927 
L 83.520474 122.486927 
L 81.720474 125.486927 
z
" clip-path="url(#pc414742dd8)" style="fill: #88ccee; fill-opacity: 0.6; stroke: #ffffff; stroke-opacity: 0.6; stroke-width: 0.339411"/>
    <path d="M 76.032787 115.09279 
L 77.832787 112.09279 
L 76.032787 109.09279 
L 74.232787 112.09279 
z
" clip-path="url(#pc414742dd8)" style="fill: #88ccee; fill-opacity: 0.6; stroke: #ffffff; stroke-opacity: 0.6; stroke-width: 0.339411"/>
    <path d="M 96.800754 130.385912 
L 98.600754 127.385912 
L 96.800754 124.385912 
L 95.000754 127.385912 
z
" clip-path="url(#pc414742dd8)" style="fill: #88ccee; fill-opacity: 0.6; stroke: #ffffff; stroke-opacity: 0.6; stroke-width: 0.339411"/>
    <path d="M 139.982035 136.094868 
L 141.782035 133.094868 
L 139.982035 130.094868 
L 138.182035 133.094868 
z
" clip-path="url(#pc414742dd8)" style="fill: #88ccee; fill-opacity: 0.6; stroke: #ffffff; stroke-opacity: 0.6; stroke-width: 0.339411"/>
    <path d="M 101.636812 123.624653 
L 103.436812 120.624653 
L 101.636812 117.624653 
L 99.836812 120.624653 
z
" clip-path="url(#pc414742dd8)" style="fill: #88ccee; fill-opacity: 0.6; stroke: #ffffff; stroke-opacity: 0.6; stroke-width: 0.339411"/>
    <path d="M 82.488519 118.43873 
L 84.288519 115.43873 
L 82.488519 112.43873 
L 80.688519 115.43873 
z
" clip-path="url(#pc414742dd8)" style="fill: #88ccee; fill-opacity: 0.6; stroke: #ffffff; stroke-opacity: 0.6; stroke-width: 0.339411"/>
    <path d="M 99.492504 121.838878 
L 101.292504 118.838878 
L 99.492504 115.838878 
L 97.692504 118.838878 
z
" clip-path="url(#pc414742dd8)" style="fill: #88ccee; fill-opacity: 0.6; stroke: #ffffff; stroke-opacity: 0.6; stroke-width: 0.339411"/>
    <path d="M 87.07359 117.735218 
L 88.87359 114.735218 
L 87.07359 111.735218 
L 85.27359 114.735218 
z
" clip-path="url(#pc414742dd8)" style="fill: #88ccee; fill-opacity: 0.6; stroke: #ffffff; stroke-opacity: 0.6; stroke-width: 0.339411"/>
    <path d="M 109.546407 141.138727 
L 111.346407 138.138727 
L 109.546407 135.138727 
L 107.746407 138.138727 
z
" clip-path="url(#pc414742dd8)" style="fill: #88ccee; fill-opacity: 0.6; stroke: #ffffff; stroke-opacity: 0.6; stroke-width: 0.339411"/>
    <path d="M 110.383855 129.162923 
L 112.183855 126.162923 
L 110.383855 123.162923 
L 108.583855 126.162923 
z
" clip-path="url(#pc414742dd8)" style="fill: #88ccee; fill-opacity: 0.6; stroke: #ffffff; stroke-opacity: 0.6; stroke-width: 0.339411"/>
    <path d="M 79.159605 123.5295 
L 80.959605 120.5295 
L 79.159605 117.5295 
L 77.359605 120.5295 
z
" clip-path="url(#pc414742dd8)" style="fill: #88ccee; fill-opacity: 0.6; stroke: #ffffff; stroke-opacity: 0.6; stroke-width: 0.339411"/>
    <path d="M 172.093243 133.587729 
L 173.893243 130.587729 
L 172.093243 127.587729 
L 170.293243 130.587729 
z
" clip-path="url(#pc414742dd8)" style="fill: #88ccee; fill-opacity: 0.6; stroke: #ffffff; stroke-opacity: 0.6; stroke-width: 0.339411"/>
   </g>
   <g id="matplotlib.axis_1">
    <g id="xtick_1">
     <g id="line2d_1">
      <defs>
       <path id="m6edcf6a5ff" d="M 0 0 
L 0 8 
" style="stroke: #000000"/>
      </defs>
      <g>
       <use xlink:href="#m6edcf6a5ff" x="160.49563" y="188.936063" style="stroke: #000000"/>
      </g>
     </g>
     <g id="text_1">
      <!-- 10 -->
      <g transform="translate(152.86063 209.554188) scale(0.12 -0.12)">
       <defs>
        <path id="DejaVuSans-31" d="M 794 531 
L 1825 531 
L 1825 4091 
L 703 3866 
L 703 4441 
L 1819 4666 
L 2450 4666 
L 2450 531 
L 3481 531 
L 3481 0 
L 794 0 
L 794 531 
z
" transform="scale(0.015625)"/>
        <path id="DejaVuSans-30" d="M 2034 4250 
Q 1547 4250 1301 3770 
Q 1056 3291 1056 2328 
Q 1056 1369 1301 889 
Q 1547 409 2034 409 
Q 2525 409 2770 889 
Q 3016 1369 3016 2328 
Q 3016 3291 2770 3770 
Q 2525 4250 2034 4250 
z
M 2034 4750 
Q 2819 4750 3233 4129 
Q 3647 3509 3647 2328 
Q 3647 1150 3233 529 
Q 2819 -91 2034 -91 
Q 1250 -91 836 529 
Q 422 1150 422 2328 
Q 422 3509 836 4129 
Q 1250 4750 2034 4750 
z
" transform="scale(0.015625)"/>
       </defs>
       <use xlink:href="#DejaVuSans-31"/>
       <use xlink:href="#DejaVuSans-30" x="63.623047"/>
      </g>
     </g>
    </g>
    <g id="text_2">
     <!-- UMAP 1 -->
     <g transform="translate(117.956572 225.167938) scale(0.12 -0.12)">
      <defs>
       <path id="DejaVuSans-55" d="M 556 4666 
L 1191 4666 
L 1191 1831 
Q 1191 1081 1462 751 
Q 1734 422 2344 422 
Q 2950 422 3222 751 
Q 3494 1081 3494 1831 
L 3494 4666 
L 4128 4666 
L 4128 1753 
Q 4128 841 3676 375 
Q 3225 -91 2344 -91 
Q 1459 -91 1007 375 
Q 556 841 556 1753 
L 556 4666 
z
" transform="scale(0.015625)"/>
       <path id="DejaVuSans-4d" d="M 628 4666 
L 1569 4666 
L 2759 1491 
L 3956 4666 
L 4897 4666 
L 4897 0 
L 4281 0 
L 4281 4097 
L 3078 897 
L 2444 897 
L 1241 4097 
L 1241 0 
L 628 0 
L 628 4666 
z
" transform="scale(0.015625)"/>
       <path id="DejaVuSans-41" d="M 2188 4044 
L 1331 1722 
L 3047 1722 
L 2188 4044 
z
M 1831 4666 
L 2547 4666 
L 4325 0 
L 3669 0 
L 3244 1197 
L 1141 1197 
L 716 0 
L 50 0 
L 1831 4666 
z
" transform="scale(0.015625)"/>
       <path id="DejaVuSans-50" d="M 1259 4147 
L 1259 2394 
L 2053 2394 
Q 2494 2394 2734 2622 
Q 2975 2850 2975 3272 
Q 2975 3691 2734 3919 
Q 2494 4147 2053 4147 
L 1259 4147 
z
M 628 4666 
L 2053 4666 
Q 2838 4666 3239 4311 
Q 3641 3956 3641 3272 
Q 3641 2581 3239 2228 
Q 2838 1875 2053 1875 
L 1259 1875 
L 1259 0 
L 628 0 
L 628 4666 
z
" transform="scale(0.015625)"/>
       <path id="DejaVuSans-20" transform="scale(0.015625)"/>
      </defs>
      <use xlink:href="#DejaVuSans-55"/>
      <use xlink:href="#DejaVuSans-4d" x="73.193359"/>
      <use xlink:href="#DejaVuSans-41" x="159.472656"/>
      <use xlink:href="#DejaVuSans-50" x="227.880859"/>
      <use xlink:href="#DejaVuSans-20" x="288.183594"/>
      <use xlink:href="#DejaVuSans-31" x="319.970703"/>
     </g>
    </g>
   </g>
   <g id="matplotlib.axis_2">
    <g id="ytick_1">
     <g id="line2d_2">
      <defs>
       <path id="m1564b822f7" d="M 0 0 
L -8 0 
" style="stroke: #000000"/>
      </defs>
      <g>
       <use xlink:href="#m1564b822f7" x="53.957638" y="82.398071" style="stroke: #000000"/>
      </g>
     </g>
     <g id="text_3">
      <!-- 10 -->
      <g transform="translate(27.187638 86.957133) scale(0.12 -0.12)">
       <use xlink:href="#DejaVuSans-31"/>
       <use xlink:href="#DejaVuSans-30" x="63.623047"/>
      </g>
     </g>
    </g>
    <g id="text_4">
     <!-- UMAP 2 -->
     <g transform="translate(20.692013 124.937128) rotate(-90) scale(0.12 -0.12)">
      <defs>
       <path id="DejaVuSans-32" d="M 1228 531 
L 3431 531 
L 3431 0 
L 469 0 
L 469 531 
Q 828 903 1448 1529 
Q 2069 2156 2228 2338 
Q 2531 2678 2651 2914 
Q 2772 3150 2772 3378 
Q 2772 3750 2511 3984 
Q 2250 4219 1831 4219 
Q 1534 4219 1204 4116 
Q 875 4013 500 3803 
L 500 4441 
Q 881 4594 1212 4672 
Q 1544 4750 1819 4750 
Q 2544 4750 2975 4387 
Q 3406 4025 3406 3419 
Q 3406 3131 3298 2873 
Q 3191 2616 2906 2266 
Q 2828 2175 2409 1742 
Q 1991 1309 1228 531 
z
" transform="scale(0.015625)"/>
      </defs>
      <use xlink:href="#DejaVuSans-55"/>
      <use xlink:href="#DejaVuSans-4d" x="73.193359"/>
      <use xlink:href="#DejaVuSans-41" x="159.472656"/>
      <use xlink:href="#DejaVuSans-50" x="227.880859"/>
      <use xlink:href="#DejaVuSans-20" x="288.183594"/>
      <use xlink:href="#DejaVuSans-32" x="319.970703"/>
     </g>
    </g>
   </g>
   <g id="patch_3">
    <path d="M 53.957638 188.936063 
L 53.957638 14.908819 
" style="fill: none; stroke: #000000; stroke-width: 2; stroke-linejoin: miter; stroke-linecap: square"/>
   </g>
   <g id="patch_4">
    <path d="M 53.957638 188.936063 
L 227.984882 188.936063 
" style="fill: none; stroke: #000000; stroke-width: 2; stroke-linejoin: miter; stroke-linecap: square"/>
   </g>
  </g>
 </g>
 <defs>
  <clipPath id="pc414742dd8">
   <rect x="53.957638" y="14.908819" width="174.027244" height="174.027244"/>
  </clipPath>
 </defs>
</svg>
