<?xml version="1.0" encoding="utf-8" standalone="no"?>
<!DOCTYPE svg PUBLIC "-//W3C//DTD SVG 1.1//EN"
  "http://www.w3.org/Graphics/SVG/1.1/DTD/svg11.dtd">
<svg xmlns:xlink="http://www.w3.org/1999/xlink" width="240.944882pt" height="240.944882pt" viewBox="0 0 240.944882 240.944882" xmlns="http://www.w3.org/2000/svg" version="1.1">
 <metadata>
  <rdf:RDF xmlns:dc="http://purl.org/dc/elements/1.1/" xmlns:cc="http://creativecommons.org/ns#" xmlns:rdf="http://www.w3.org/1999/02/22-rdf-syntax-ns#">
   <cc:Work>
    <dc:type rdf:resource="http://purl.org/dc/dcmitype/StillImage"/>
    <dc:date>2025-02-24T15:40:04.723889</dc:date>
    <dc:format>image/svg+xml</dc:format>
    <dc:creator>
     <cc:Agent>
      <dc:title>Matplotlib v3.6.2, https://matplotlib.org/</dc:title>
     </cc:Agent>
    </dc:creator>
   </cc:Work>
  </rdf:RDF>
 </metadata>
 <defs>
  <style type="text/css">*{stroke-linejoin: round; stroke-linecap: butt}</style>
 </defs>
 <g id="figure_1">
  <g id="patch_1">
   <path d="M 0 240.944882 
L 240.944882 240.944882 
L 240.944882 0 
L 0 0 
L 0 240.944882 
z
" style="fill: none"/>
  </g>
  <g id="axes_1">
   <g id="patch_2">
    <path d="M 64.037638 183.896063 
L 227.984882 183.896063 
L 227.984882 19.948819 
L 64.037638 19.948819 
L 64.037638 183.896063 
z
" style="fill: none"/>
   </g>
   <g id="PathCollection_1">
    <path d="M 130.869971 118.598806 
L 132.669971 115.598806 
L 130.869971 112.598806 
L 129.069971 115.598806 
z
" clip-path="url(#pce34221a58)" style="fill: #332288; fill-opacity: 0.6; stroke: #ffffff; stroke-opacity: 0.6; stroke-width: 0.339411"/>
    <path d="M 152.51367 123.962539 
L 154.31367 120.962539 
L 152.51367 117.962539 
L 150.71367 120.962539 
z
" clip-path="url(#pce34221a58)" style="fill: #332288; fill-opacity: 0.6; stroke: #ffffff; stroke-opacity: 0.6; stroke-width: 0.339411"/>
    <path d="M 126.356287 115.471598 
L 128.156287 112.471598 
L 126.356287 109.471598 
L 124.556287 112.471598 
z
" clip-path="url(#pce34221a58)" style="fill: #332288; fill-opacity: 0.6; stroke: #ffffff; stroke-opacity: 0.6; stroke-width: 0.339411"/>
    <path d="M 151.979775 124.071593 
L 153.779775 121.071593 
L 151.979775 118.071593 
L 150.179775 121.071593 
z
" clip-path="url(#pce34221a58)" style="fill: #332288; fill-opacity: 0.6; stroke: #ffffff; stroke-opacity: 0.6; stroke-width: 0.339411"/>
    <path d="M 180.215907 120.011153 
L 182.015907 117.011153 
L 180.215907 114.011153 
L 178.415907 117.011153 
z
" clip-path="url(#pce34221a58)" style="fill: #332288; fill-opacity: 0.6; stroke: #ffffff; stroke-opacity: 0.6; stroke-width: 0.339411"/>
    <path d="M 133.600112 122.049361 
L 135.400112 119.049361 
L 133.600112 116.049361 
L 131.800112 119.049361 
z
" clip-path="url(#pce34221a58)" style="fill: #332288; fill-opacity: 0.6; stroke: #ffffff; stroke-opacity: 0.6; stroke-width: 0.339411"/>
    <path d="M 141.486644 119.854047 
L 143.286644 116.854047 
L 141.486644 113.854047 
L 139.686644 116.854047 
z
" clip-path="url(#pce34221a58)" style="fill: #332288; fill-opacity: 0.6; stroke: #ffffff; stroke-opacity: 0.6; stroke-width: 0.339411"/>
    <path d="M 114.847797 120.906465 
L 116.647797 117.906465 
L 114.847797 114.906465 
L 113.047797 117.906465 
z
" clip-path="url(#pce34221a58)" style="fill: #332288; fill-opacity: 0.6; stroke: #ffffff; stroke-opacity: 0.6; stroke-width: 0.339411"/>
    <path d="M 148.860985 120.260821 
L 150.660985 117.260821 
L 148.860985 114.260821 
L 147.060985 117.260821 
z
" clip-path="url(#pce34221a58)" style="fill: #332288; fill-opacity: 0.6; stroke: #ffffff; stroke-opacity: 0.6; stroke-width: 0.339411"/>
    <path d="M 153.259025 116.315054 
L 155.059025 113.315054 
L 153.259025 110.315054 
L 151.459025 113.315054 
z
" clip-path="url(#pce34221a58)" style="fill: #332288; fill-opacity: 0.6; stroke: #ffffff; stroke-opacity: 0.6; stroke-width: 0.339411"/>
    <path d="M 125.983706 120.339491 
L 127.783706 117.339491 
L 125.983706 114.339491 
L 124.183706 117.339491 
z
" clip-path="url(#pce34221a58)" style="fill: #332288; fill-opacity: 0.6; stroke: #ffffff; stroke-opacity: 0.6; stroke-width: 0.339411"/>
    <path d="M 102.210666 120.993301 
L 104.010666 117.993301 
L 102.210666 114.993301 
L 100.410666 117.993301 
z
" clip-path="url(#pce34221a58)" style="fill: #332288; fill-opacity: 0.6; stroke: #ffffff; stroke-opacity: 0.6; stroke-width: 0.339411"/>
    <path d="M 145.442463 122.357849 
L 147.242463 119.357849 
L 145.442463 116.357849 
L 143.642463 119.357849 
z
" clip-path="url(#pce34221a58)" style="fill: #332288; fill-opacity: 0.6; stroke: #ffffff; stroke-opacity: 0.6; stroke-width: 0.339411"/>
    <path d="M 116.153044 109.14154 
L 117.953044 106.14154 
L 116.153044 103.14154 
L 114.353044 106.14154 
z
" clip-path="url(#pce34221a58)" style="fill: #332288; fill-opacity: 0.6; stroke: #ffffff; stroke-opacity: 0.6; stroke-width: 0.339411"/>
    <path d="M 149.83616 110.732635 
L 151.63616 107.732635 
L 149.83616 104.732635 
L 148.03616 107.732635 
z
" clip-path="url(#pce34221a58)" style="fill: #332288; fill-opacity: 0.6; stroke: #ffffff; stroke-opacity: 0.6; stroke-width: 0.339411"/>
    <path d="M 128.538026 123.689723 
L 130.338026 120.689723 
L 128.538026 117.689723 
L 126.738026 120.689723 
z
" clip-path="url(#pce34221a58)" style="fill: #332288; fill-opacity: 0.6; stroke: #ffffff; stroke-opacity: 0.6; stroke-width: 0.339411"/>
    <path d="M 152.339154 124.031895 
L 154.139154 121.031895 
L 152.339154 118.031895 
L 150.539154 121.031895 
z
" clip-path="url(#pce34221a58)" style="fill: #332288; fill-opacity: 0.6; stroke: #ffffff; stroke-opacity: 0.6; stroke-width: 0.339411"/>
    <path d="M 145.063755 123.473861 
L 146.863755 120.473861 
L 145.063755 117.473861 
L 143.263755 120.473861 
z
" clip-path="url(#pce34221a58)" style="fill: #332288; fill-opacity: 0.6; stroke: #ffffff; stroke-opacity: 0.6; stroke-width: 0.339411"/>
    <path d="M 152.180842 124.010945 
L 153.980842 121.010945 
L 152.180842 118.010945 
L 150.380842 121.010945 
z
" clip-path="url(#pce34221a58)" style="fill: #332288; fill-opacity: 0.6; stroke: #ffffff; stroke-opacity: 0.6; stroke-width: 0.339411"/>
    <path d="M 155.618769 119.632278 
L 157.418769 116.632278 
L 155.618769 113.632278 
L 153.818769 116.632278 
z
" clip-path="url(#pce34221a58)" style="fill: #332288; fill-opacity: 0.6; stroke: #ffffff; stroke-opacity: 0.6; stroke-width: 0.339411"/>
    <path d="M 165.817141 124.174059 
L 167.617141 121.174059 
L 165.817141 118.174059 
L 164.017141 121.174059 
z
" clip-path="url(#pce34221a58)" style="fill: #332288; fill-opacity: 0.6; stroke: #ffffff; stroke-opacity: 0.6; stroke-width: 0.339411"/>
    <path d="M 126.7943 116.082059 
L 128.5943 113.082059 
L 126.7943 110.082059 
L 124.9943 113.082059 
z
" clip-path="url(#pce34221a58)" style="fill: #332288; fill-opacity: 0.6; stroke: #ffffff; stroke-opacity: 0.6; stroke-width: 0.339411"/>
    <path d="M 153.486429 123.192905 
L 155.286429 120.192905 
L 153.486429 117.192905 
L 151.686429 120.192905 
z
" clip-path="url(#pce34221a58)" style="fill: #332288; fill-opacity: 0.6; stroke: #ffffff; stroke-opacity: 0.6; stroke-width: 0.339411"/>
    <path d="M 165.957283 124.249445 
L 167.757283 121.249445 
L 165.957283 118.249445 
L 164.157283 121.249445 
z
" clip-path="url(#pce34221a58)" style="fill: #332288; fill-opacity: 0.6; stroke: #ffffff; stroke-opacity: 0.6; stroke-width: 0.339411"/>
    <path d="M 166.142309 121.233624 
L 167.942309 118.233624 
L 166.142309 115.233624 
L 164.342309 118.233624 
z
" clip-path="url(#pce34221a58)" style="fill: #332288; fill-opacity: 0.6; stroke: #ffffff; stroke-opacity: 0.6; stroke-width: 0.339411"/>
    <path d="M 142.09612 117.695808 
L 143.89612 114.695808 
L 142.09612 111.695808 
L 140.29612 114.695808 
z
" clip-path="url(#pce34221a58)" style="fill: #332288; fill-opacity: 0.6; stroke: #ffffff; stroke-opacity: 0.6; stroke-width: 0.339411"/>
    <path d="M 108.514189 120.935349 
L 110.314189 117.935349 
L 108.514189 114.935349 
L 106.714189 117.935349 
z
" clip-path="url(#pce34221a58)" style="fill: #332288; fill-opacity: 0.6; stroke: #ffffff; stroke-opacity: 0.6; stroke-width: 0.339411"/>
    <path d="M 140.954661 115.631452 
L 142.754661 112.631452 
L 140.954661 109.631452 
L 139.154661 112.631452 
z
" clip-path="url(#pce34221a58)" style="fill: #332288; fill-opacity: 0.6; stroke: #ffffff; stroke-opacity: 0.6; stroke-width: 0.339411"/>
    <path d="M 127.22391 121.945151 
L 129.02391 118.945151 
L 127.22391 115.945151 
L 125.42391 118.945151 
z
" clip-path="url(#pce34221a58)" style="fill: #332288; fill-opacity: 0.6; stroke: #ffffff; stroke-opacity: 0.6; stroke-width: 0.339411"/>
    <path d="M 129.688271 118.604573 
L 131.488271 115.604573 
L 129.688271 112.604573 
L 127.888271 115.604573 
z
" clip-path="url(#pce34221a58)" style="fill: #332288; fill-opacity: 0.6; stroke: #ffffff; stroke-opacity: 0.6; stroke-width: 0.339411"/>
    <path d="M 165.481404 124.1069 
L 167.281404 121.1069 
L 165.481404 118.1069 
L 163.681404 121.1069 
z
" clip-path="url(#pce34221a58)" style="fill: #332288; fill-opacity: 0.6; stroke: #ffffff; stroke-opacity: 0.6; stroke-width: 0.339411"/>
    <path d="M 149.223864 120.249363 
L 151.023864 117.249363 
L 149.223864 114.249363 
L 147.423864 117.249363 
z
" clip-path="url(#pce34221a58)" style="fill: #332288; fill-opacity: 0.6; stroke: #ffffff; stroke-opacity: 0.6; stroke-width: 0.339411"/>
    <path d="M 160.279028 106.60371 
L 162.079028 103.60371 
L 160.279028 100.60371 
L 158.479028 103.60371 
z
" clip-path="url(#pce34221a58)" style="fill: #332288; fill-opacity: 0.6; stroke: #ffffff; stroke-opacity: 0.6; stroke-width: 0.339411"/>
    <path d="M 129.133977 121.173062 
L 130.933977 118.173062 
L 129.133977 115.173062 
L 127.333977 118.173062 
z
" clip-path="url(#pce34221a58)" style="fill: #332288; fill-opacity: 0.6; stroke: #ffffff; stroke-opacity: 0.6; stroke-width: 0.339411"/>
    <path d="M 148.939452 117.353011 
L 150.739452 114.353011 
L 148.939452 111.353011 
L 147.139452 114.353011 
z
" clip-path="url(#pce34221a58)" style="fill: #332288; fill-opacity: 0.6; stroke: #ffffff; stroke-opacity: 0.6; stroke-width: 0.339411"/>
    <path d="M 127.69607 118.500734 
L 129.49607 115.500734 
L 127.69607 112.500734 
L 125.89607 115.500734 
z
" clip-path="url(#pce34221a58)" style="fill: #332288; fill-opacity: 0.6; stroke: #ffffff; stroke-opacity: 0.6; stroke-width: 0.339411"/>
    <path d="M 108.029958 120.854783 
L 109.829958 117.854783 
L 108.029958 114.854783 
L 106.229958 117.854783 
z
" clip-path="url(#pce34221a58)" style="fill: #332288; fill-opacity: 0.6; stroke: #ffffff; stroke-opacity: 0.6; stroke-width: 0.339411"/>
    <path d="M 141.663217 119.838229 
L 143.463217 116.838229 
L 141.663217 113.838229 
L 139.863217 116.838229 
z
" clip-path="url(#pce34221a58)" style="fill: #332288; fill-opacity: 0.6; stroke: #ffffff; stroke-opacity: 0.6; stroke-width: 0.339411"/>
    <path d="M 165.364673 121.231709 
L 167.164673 118.231709 
L 165.364673 115.231709 
L 163.564673 118.231709 
z
" clip-path="url(#pce34221a58)" style="fill: #332288; fill-opacity: 0.6; stroke: #ffffff; stroke-opacity: 0.6; stroke-width: 0.339411"/>
    <path d="M 146.491311 116.146422 
L 148.291311 113.146422 
L 146.491311 110.146422 
L 144.691311 113.146422 
z
" clip-path="url(#pce34221a58)" style="fill: #332288; fill-opacity: 0.6; stroke: #ffffff; stroke-opacity: 0.6; stroke-width: 0.339411"/>
    <path d="M 166.176494 124.242431 
L 167.976494 121.242431 
L 166.176494 118.242431 
L 164.376494 121.242431 
z
" clip-path="url(#pce34221a58)" style="fill: #332288; fill-opacity: 0.6; stroke: #ffffff; stroke-opacity: 0.6; stroke-width: 0.339411"/>
    <path d="M 127.912793 115.965845 
L 129.712793 112.965845 
L 127.912793 109.965845 
L 126.112793 112.965845 
z
" clip-path="url(#pce34221a58)" style="fill: #332288; fill-opacity: 0.6; stroke: #ffffff; stroke-opacity: 0.6; stroke-width: 0.339411"/>
    <path d="M 126.342274 118.483918 
L 128.142274 115.483918 
L 126.342274 112.483918 
L 124.542274 115.483918 
z
" clip-path="url(#pce34221a58)" style="fill: #332288; fill-opacity: 0.6; stroke: #ffffff; stroke-opacity: 0.6; stroke-width: 0.339411"/>
    <path d="M 134.954828 123.161353 
L 136.754828 120.161353 
L 134.954828 117.161353 
L 133.154828 120.161353 
z
" clip-path="url(#pce34221a58)" style="fill: #332288; fill-opacity: 0.6; stroke: #ffffff; stroke-opacity: 0.6; stroke-width: 0.339411"/>
    <path d="M 143.348462 115.015237 
L 145.148462 112.015237 
L 143.348462 109.015237 
L 141.548462 112.015237 
z
" clip-path="url(#pce34221a58)" style="fill: #332288; fill-opacity: 0.6; stroke: #ffffff; stroke-opacity: 0.6; stroke-width: 0.339411"/>
    <path d="M 146.231163 122.667667 
L 148.031163 119.667667 
L 146.231163 116.667667 
L 144.431163 119.667667 
z
" clip-path="url(#pce34221a58)" style="fill: #332288; fill-opacity: 0.6; stroke: #ffffff; stroke-opacity: 0.6; stroke-width: 0.339411"/>
    <path d="M 142.284168 113.580872 
L 144.084168 110.580872 
L 142.284168 107.580872 
L 140.484168 110.580872 
z
" clip-path="url(#pce34221a58)" style="fill: #332288; fill-opacity: 0.6; stroke: #ffffff; stroke-opacity: 0.6; stroke-width: 0.339411"/>
    <path d="M 126.019842 120.337736 
L 127.819842 117.337736 
L 126.019842 114.337736 
L 124.219842 117.337736 
z
" clip-path="url(#pce34221a58)" style="fill: #332288; fill-opacity: 0.6; stroke: #ffffff; stroke-opacity: 0.6; stroke-width: 0.339411"/>
    <path d="M 163.351466 113.311631 
L 165.151466 110.311631 
L 163.351466 107.311631 
L 161.551466 110.311631 
z
" clip-path="url(#pce34221a58)" style="fill: #332288; fill-opacity: 0.6; stroke: #ffffff; stroke-opacity: 0.6; stroke-width: 0.339411"/>
    <path d="M 156.487247 119.582057 
L 158.287247 116.582057 
L 156.487247 113.582057 
L 154.687247 116.582057 
z
" clip-path="url(#pce34221a58)" style="fill: #332288; fill-opacity: 0.6; stroke: #ffffff; stroke-opacity: 0.6; stroke-width: 0.339411"/>
    <path d="M 148.393079 120.286088 
L 150.193079 117.286088 
L 148.393079 114.286088 
L 146.593079 117.286088 
z
" clip-path="url(#pce34221a58)" style="fill: #332288; fill-opacity: 0.6; stroke: #ffffff; stroke-opacity: 0.6; stroke-width: 0.339411"/>
    <path d="M 135.058728 122.630865 
L 136.858728 119.630865 
L 135.058728 116.630865 
L 133.258728 119.630865 
z
" clip-path="url(#pce34221a58)" style="fill: #332288; fill-opacity: 0.6; stroke: #ffffff; stroke-opacity: 0.6; stroke-width: 0.339411"/>
    <path d="M 165.691222 124.173885 
L 167.491222 121.173885 
L 165.691222 118.173885 
L 163.891222 121.173885 
z
" clip-path="url(#pce34221a58)" style="fill: #332288; fill-opacity: 0.6; stroke: #ffffff; stroke-opacity: 0.6; stroke-width: 0.339411"/>
    <path d="M 135.392621 123.233497 
L 137.192621 120.233497 
L 135.392621 117.233497 
L 133.592621 120.233497 
z
" clip-path="url(#pce34221a58)" style="fill: #332288; fill-opacity: 0.6; stroke: #ffffff; stroke-opacity: 0.6; stroke-width: 0.339411"/>
    <path d="M 166.684081 117.741782 
L 168.484081 114.741782 
L 166.684081 111.741782 
L 164.884081 114.741782 
z
" clip-path="url(#pce34221a58)" style="fill: #332288; fill-opacity: 0.6; stroke: #ffffff; stroke-opacity: 0.6; stroke-width: 0.339411"/>
    <path d="M 124.502327 121.937514 
L 126.302327 118.937514 
L 124.502327 115.937514 
L 122.702327 118.937514 
z
" clip-path="url(#pce34221a58)" style="fill: #332288; fill-opacity: 0.6; stroke: #ffffff; stroke-opacity: 0.6; stroke-width: 0.339411"/>
    <path d="M 134.137667 122.672585 
L 135.937667 119.672585 
L 134.137667 116.672585 
L 132.337667 119.672585 
z
" clip-path="url(#pce34221a58)" style="fill: #332288; fill-opacity: 0.6; stroke: #ffffff; stroke-opacity: 0.6; stroke-width: 0.339411"/>
    <path d="M 147.104461 122.993524 
L 148.904461 119.993524 
L 147.104461 116.993524 
L 145.304461 119.993524 
z
" clip-path="url(#pce34221a58)" style="fill: #332288; fill-opacity: 0.6; stroke: #ffffff; stroke-opacity: 0.6; stroke-width: 0.339411"/>
    <path d="M 123.68836 110.999231 
L 125.48836 107.999231 
L 123.68836 104.999231 
L 121.88836 107.999231 
z
" clip-path="url(#pce34221a58)" style="fill: #332288; fill-opacity: 0.6; stroke: #ffffff; stroke-opacity: 0.6; stroke-width: 0.339411"/>
    <path d="M 150.354434 115.381308 
L 152.154434 112.381308 
L 150.354434 109.381308 
L 148.554434 112.381308 
z
" clip-path="url(#pce34221a58)" style="fill: #332288; fill-opacity: 0.6; stroke: #ffffff; stroke-opacity: 0.6; stroke-width: 0.339411"/>
    <path d="M 180.06942 120.226358 
L 181.86942 117.226358 
L 180.06942 114.226358 
L 178.26942 117.226358 
z
" clip-path="url(#pce34221a58)" style="fill: #332288; fill-opacity: 0.6; stroke: #ffffff; stroke-opacity: 0.6; stroke-width: 0.339411"/>
    <path d="M 135.952928 123.414477 
L 137.752928 120.414477 
L 135.952928 117.414477 
L 134.152928 120.414477 
z
" clip-path="url(#pce34221a58)" style="fill: #332288; fill-opacity: 0.6; stroke: #ffffff; stroke-opacity: 0.6; stroke-width: 0.339411"/>
    <path d="M 152.455266 123.399646 
L 154.255266 120.399646 
L 152.455266 117.399646 
L 150.655266 120.399646 
z
" clip-path="url(#pce34221a58)" style="fill: #332288; fill-opacity: 0.6; stroke: #ffffff; stroke-opacity: 0.6; stroke-width: 0.339411"/>
    <path d="M 180.101714 120.774976 
L 181.901714 117.774976 
L 180.101714 114.774976 
L 178.301714 117.774976 
z
" clip-path="url(#pce34221a58)" style="fill: #332288; fill-opacity: 0.6; stroke: #ffffff; stroke-opacity: 0.6; stroke-width: 0.339411"/>
    <path d="M 151.587019 100.624136 
L 149.465699 104.866777 
L 153.70834 104.866777 
z
" clip-path="url(#pce34221a58)" style="fill: #117733; fill-opacity: 0.6; stroke: #ffffff; stroke-opacity: 0.6; stroke-width: 0.339411"/>
    <path d="M 186.639685 100.750821 
L 184.518364 104.993462 
L 188.761005 104.993462 
z
" clip-path="url(#pce34221a58)" style="fill: #117733; fill-opacity: 0.6; stroke: #ffffff; stroke-opacity: 0.6; stroke-width: 0.339411"/>
    <path d="M 180.798949 100.143363 
L 178.677628 104.386004 
L 182.920269 104.386004 
z
" clip-path="url(#pce34221a58)" style="fill: #117733; fill-opacity: 0.6; stroke: #ffffff; stroke-opacity: 0.6; stroke-width: 0.339411"/>
    <path d="M 140.61807 95.477804 
L 138.49675 99.720444 
L 142.739391 99.720444 
z
" clip-path="url(#pce34221a58)" style="fill: #117733; fill-opacity: 0.6; stroke: #ffffff; stroke-opacity: 0.6; stroke-width: 0.339411"/>
    <path d="M 128.346157 102.451417 
L 126.224837 106.694058 
L 130.467478 106.694058 
z
" clip-path="url(#pce34221a58)" style="fill: #117733; fill-opacity: 0.6; stroke: #ffffff; stroke-opacity: 0.6; stroke-width: 0.339411"/>
    <path d="M 170.49227 98.289852 
L 168.37095 102.532493 
L 172.613591 102.532493 
z
" clip-path="url(#pce34221a58)" style="fill: #117733; fill-opacity: 0.6; stroke: #ffffff; stroke-opacity: 0.6; stroke-width: 0.339411"/>
    <path d="M 179.165662 109.399709 
L 177.044342 113.64235 
L 181.286983 113.64235 
z
" clip-path="url(#pce34221a58)" style="fill: #117733; fill-opacity: 0.6; stroke: #ffffff; stroke-opacity: 0.6; stroke-width: 0.339411"/>
    <path d="M 141.954624 109.56275 
L 139.833304 113.80539 
L 144.075944 113.80539 
z
" clip-path="url(#pce34221a58)" style="fill: #117733; fill-opacity: 0.6; stroke: #ffffff; stroke-opacity: 0.6; stroke-width: 0.339411"/>
    <path d="M 133.128051 99.843443 
L 131.006731 104.086083 
L 135.249372 104.086083 
z
" clip-path="url(#pce34221a58)" style="fill: #117733; fill-opacity: 0.6; stroke: #ffffff; stroke-opacity: 0.6; stroke-width: 0.339411"/>
    <path d="M 113.537645 96.072687 
L 111.416325 100.315328 
L 115.658966 100.315328 
z
" clip-path="url(#pce34221a58)" style="fill: #117733; fill-opacity: 0.6; stroke: #ffffff; stroke-opacity: 0.6; stroke-width: 0.339411"/>
    <path d="M 132.93145 103.601884 
L 130.810129 107.844525 
L 135.05277 107.844525 
z
" clip-path="url(#pce34221a58)" style="fill: #117733; fill-opacity: 0.6; stroke: #ffffff; stroke-opacity: 0.6; stroke-width: 0.339411"/>
    <path d="M 100.537012 95.62858 
L 98.415692 99.871221 
L 102.658333 99.871221 
z
" clip-path="url(#pce34221a58)" style="fill: #117733; fill-opacity: 0.6; stroke: #ffffff; stroke-opacity: 0.6; stroke-width: 0.339411"/>
    <path d="M 137.410643 101.496637 
L 135.289323 105.739278 
L 139.531964 105.739278 
z
" clip-path="url(#pce34221a58)" style="fill: #117733; fill-opacity: 0.6; stroke: #ffffff; stroke-opacity: 0.6; stroke-width: 0.339411"/>
    <path d="M 187.605353 99.928613 
L 185.484032 104.171253 
L 189.726673 104.171253 
z
" clip-path="url(#pce34221a58)" style="fill: #117733; fill-opacity: 0.6; stroke: #ffffff; stroke-opacity: 0.6; stroke-width: 0.339411"/>
    <path d="M 133.988015 88.830289 
L 131.866694 93.07293 
L 136.109335 93.07293 
z
" clip-path="url(#pce34221a58)" style="fill: #117733; fill-opacity: 0.6; stroke: #ffffff; stroke-opacity: 0.6; stroke-width: 0.339411"/>
    <path d="M 106.173857 103.481991 
L 104.052536 107.724632 
L 108.295177 107.724632 
z
" clip-path="url(#pce34221a58)" style="fill: #117733; fill-opacity: 0.6; stroke: #ffffff; stroke-opacity: 0.6; stroke-width: 0.339411"/>
    <path d="M 132.80971 100.254571 
L 130.688389 104.497211 
L 134.93103 104.497211 
z
" clip-path="url(#pce34221a58)" style="fill: #117733; fill-opacity: 0.6; stroke: #ffffff; stroke-opacity: 0.6; stroke-width: 0.339411"/>
    <path d="M 115.432614 94.699893 
L 113.311294 98.942533 
L 117.553934 98.942533 
z
" clip-path="url(#pce34221a58)" style="fill: #117733; fill-opacity: 0.6; stroke: #ffffff; stroke-opacity: 0.6; stroke-width: 0.339411"/>
    <path d="M 137.465168 89.252403 
L 135.343848 93.495044 
L 139.586489 93.495044 
z
" clip-path="url(#pce34221a58)" style="fill: #117733; fill-opacity: 0.6; stroke: #ffffff; stroke-opacity: 0.6; stroke-width: 0.339411"/>
    <path d="M 147.46136 104.474315 
L 145.340039 108.716955 
L 149.58268 108.716955 
z
" clip-path="url(#pce34221a58)" style="fill: #117733; fill-opacity: 0.6; stroke: #ffffff; stroke-opacity: 0.6; stroke-width: 0.339411"/>
    <path d="M 157.844834 103.518833 
L 155.723513 107.761474 
L 159.966154 107.761474 
z
" clip-path="url(#pce34221a58)" style="fill: #117733; fill-opacity: 0.6; stroke: #ffffff; stroke-opacity: 0.6; stroke-width: 0.339411"/>
    <path d="M 131.38482 101.474908 
L 129.2635 105.717548 
L 133.506141 105.717548 
z
" clip-path="url(#pce34221a58)" style="fill: #117733; fill-opacity: 0.6; stroke: #ffffff; stroke-opacity: 0.6; stroke-width: 0.339411"/>
    <path d="M 180.477346 104.297406 
L 178.356025 108.540047 
L 182.598666 108.540047 
z
" clip-path="url(#pce34221a58)" style="fill: #117733; fill-opacity: 0.6; stroke: #ffffff; stroke-opacity: 0.6; stroke-width: 0.339411"/>
    <path d="M 176.513273 101.437404 
L 174.391953 105.680045 
L 178.634594 105.680045 
z
" clip-path="url(#pce34221a58)" style="fill: #117733; fill-opacity: 0.6; stroke: #ffffff; stroke-opacity: 0.6; stroke-width: 0.339411"/>
    <path d="M 153.994456 104.398218 
L 151.873136 108.640859 
L 156.115777 108.640859 
z
" clip-path="url(#pce34221a58)" style="fill: #117733; fill-opacity: 0.6; stroke: #ffffff; stroke-opacity: 0.6; stroke-width: 0.339411"/>
    <path d="M 88.6163 100.446196 
L 86.49498 104.688837 
L 90.73762 104.688837 
z
" clip-path="url(#pce34221a58)" style="fill: #117733; fill-opacity: 0.6; stroke: #ffffff; stroke-opacity: 0.6; stroke-width: 0.339411"/>
    <path d="M 150.604351 102.431183 
L 148.483031 106.673824 
L 152.725672 106.673824 
z
" clip-path="url(#pce34221a58)" style="fill: #117733; fill-opacity: 0.6; stroke: #ffffff; stroke-opacity: 0.6; stroke-width: 0.339411"/>
    <path d="M 95.431214 98.557154 
L 93.309893 102.799795 
L 97.552534 102.799795 
z
" clip-path="url(#pce34221a58)" style="fill: #117733; fill-opacity: 0.6; stroke: #ffffff; stroke-opacity: 0.6; stroke-width: 0.339411"/>
    <path d="M 146.38449 103.239417 
L 144.263169 107.482057 
L 148.50581 107.482057 
z
" clip-path="url(#pce34221a58)" style="fill: #117733; fill-opacity: 0.6; stroke: #ffffff; stroke-opacity: 0.6; stroke-width: 0.339411"/>
    <path d="M 160.382121 98.784164 
L 158.2608 103.026805 
L 162.503441 103.026805 
z
" clip-path="url(#pce34221a58)" style="fill: #117733; fill-opacity: 0.6; stroke: #ffffff; stroke-opacity: 0.6; stroke-width: 0.339411"/>
    <path d="M 129.506771 91.309728 
L 127.38545 95.552369 
L 131.628091 95.552369 
z
" clip-path="url(#pce34221a58)" style="fill: #117733; fill-opacity: 0.6; stroke: #ffffff; stroke-opacity: 0.6; stroke-width: 0.339411"/>
    <path d="M 136.51432 107.588906 
L 134.393 111.831547 
L 138.63564 111.831547 
z
" clip-path="url(#pce34221a58)" style="fill: #117733; fill-opacity: 0.6; stroke: #ffffff; stroke-opacity: 0.6; stroke-width: 0.339411"/>
    <path d="M 159.360446 98.56299 
L 157.239126 102.805631 
L 161.481766 102.805631 
z
" clip-path="url(#pce34221a58)" style="fill: #117733; fill-opacity: 0.6; stroke: #ffffff; stroke-opacity: 0.6; stroke-width: 0.339411"/>
    <path d="M 130.551528 90.198559 
L 128.430208 94.441199 
L 132.672848 94.441199 
z
" clip-path="url(#pce34221a58)" style="fill: #117733; fill-opacity: 0.6; stroke: #ffffff; stroke-opacity: 0.6; stroke-width: 0.339411"/>
    <path d="M 137.01642 89.646563 
L 134.8951 93.889204 
L 139.13774 93.889204 
z
" clip-path="url(#pce34221a58)" style="fill: #117733; fill-opacity: 0.6; stroke: #ffffff; stroke-opacity: 0.6; stroke-width: 0.339411"/>
    <path d="M 173.007473 89.648913 
L 170.886153 93.891554 
L 175.128793 93.891554 
z
" clip-path="url(#pce34221a58)" style="fill: #117733; fill-opacity: 0.6; stroke: #ffffff; stroke-opacity: 0.6; stroke-width: 0.339411"/>
    <path d="M 168.554644 100.042947 
L 166.433323 104.285588 
L 170.675964 104.285588 
z
" clip-path="url(#pce34221a58)" style="fill: #117733; fill-opacity: 0.6; stroke: #ffffff; stroke-opacity: 0.6; stroke-width: 0.339411"/>
    <path d="M 144.09295 102.334841 
L 141.971629 106.577481 
L 146.21427 106.577481 
z
" clip-path="url(#pce34221a58)" style="fill: #117733; fill-opacity: 0.6; stroke: #ffffff; stroke-opacity: 0.6; stroke-width: 0.339411"/>
    <path d="M 190.157191 99.039961 
L 188.035871 103.282602 
L 192.278512 103.282602 
z
" clip-path="url(#pce34221a58)" style="fill: #117733; fill-opacity: 0.6; stroke: #ffffff; stroke-opacity: 0.6; stroke-width: 0.339411"/>
    <path d="M 101.004961 93.881415 
L 98.883641 98.124056 
L 103.126281 98.124056 
z
" clip-path="url(#pce34221a58)" style="fill: #117733; fill-opacity: 0.6; stroke: #ffffff; stroke-opacity: 0.6; stroke-width: 0.339411"/>
    <path d="M 122.105284 98.508436 
L 119.983964 102.751076 
L 124.226605 102.751076 
z
" clip-path="url(#pce34221a58)" style="fill: #117733; fill-opacity: 0.6; stroke: #ffffff; stroke-opacity: 0.6; stroke-width: 0.339411"/>
    <path d="M 101.409796 93.811064 
L 99.288475 98.053705 
L 103.531116 98.053705 
z
" clip-path="url(#pce34221a58)" style="fill: #117733; fill-opacity: 0.6; stroke: #ffffff; stroke-opacity: 0.6; stroke-width: 0.339411"/>
    <path d="M 174.439113 101.58509 
L 172.317793 105.827731 
L 176.560433 105.827731 
z
" clip-path="url(#pce34221a58)" style="fill: #117733; fill-opacity: 0.6; stroke: #ffffff; stroke-opacity: 0.6; stroke-width: 0.339411"/>
    <path d="M 188.467997 93.018573 
L 186.346677 97.261214 
L 190.589317 97.261214 
z
" clip-path="url(#pce34221a58)" style="fill: #117733; fill-opacity: 0.6; stroke: #ffffff; stroke-opacity: 0.6; stroke-width: 0.339411"/>
    <path d="M 132.023037 87.067957 
L 129.901716 91.310598 
L 134.144357 91.310598 
z
" clip-path="url(#pce34221a58)" style="fill: #117733; fill-opacity: 0.6; stroke: #ffffff; stroke-opacity: 0.6; stroke-width: 0.339411"/>
    <path d="M 164.302107 105.47841 
L 162.180787 109.721051 
L 166.423427 109.721051 
z
" clip-path="url(#pce34221a58)" style="fill: #117733; fill-opacity: 0.6; stroke: #ffffff; stroke-opacity: 0.6; stroke-width: 0.339411"/>
    <path d="M 146.951324 98.604966 
L 144.830004 102.847607 
L 149.072644 102.847607 
z
" clip-path="url(#pce34221a58)" style="fill: #117733; fill-opacity: 0.6; stroke: #ffffff; stroke-opacity: 0.6; stroke-width: 0.339411"/>
    <path d="M 153.200276 100.95189 
L 151.078956 105.194531 
L 155.321597 105.194531 
z
" clip-path="url(#pce34221a58)" style="fill: #117733; fill-opacity: 0.6; stroke: #ffffff; stroke-opacity: 0.6; stroke-width: 0.339411"/>
    <path d="M 114.915579 102.071383 
L 112.794258 106.314024 
L 117.036899 106.314024 
z
" clip-path="url(#pce34221a58)" style="fill: #117733; fill-opacity: 0.6; stroke: #ffffff; stroke-opacity: 0.6; stroke-width: 0.339411"/>
    <path d="M 179.690308 101.485589 
L 177.568987 105.72823 
L 181.811628 105.72823 
z
" clip-path="url(#pce34221a58)" style="fill: #117733; fill-opacity: 0.6; stroke: #ffffff; stroke-opacity: 0.6; stroke-width: 0.339411"/>
    <path d="M 178.527813 100.976309 
L 176.406493 105.218949 
L 180.649133 105.218949 
z
" clip-path="url(#pce34221a58)" style="fill: #117733; fill-opacity: 0.6; stroke: #ffffff; stroke-opacity: 0.6; stroke-width: 0.339411"/>
    <path d="M 132.530064 96.402525 
L 130.408744 100.645165 
L 134.651385 100.645165 
z
" clip-path="url(#pce34221a58)" style="fill: #117733; fill-opacity: 0.6; stroke: #ffffff; stroke-opacity: 0.6; stroke-width: 0.339411"/>
    <path d="M 123.164312 102.92061 
L 121.042992 107.16325 
L 125.285633 107.16325 
z
" clip-path="url(#pce34221a58)" style="fill: #117733; fill-opacity: 0.6; stroke: #ffffff; stroke-opacity: 0.6; stroke-width: 0.339411"/>
    <path d="M 156.373056 103.067199 
L 154.251735 107.30984 
L 158.494376 107.30984 
z
" clip-path="url(#pce34221a58)" style="fill: #117733; fill-opacity: 0.6; stroke: #ffffff; stroke-opacity: 0.6; stroke-width: 0.339411"/>
    <path d="M 166.089535 104.044178 
L 163.968215 108.286818 
L 168.210856 108.286818 
z
" clip-path="url(#pce34221a58)" style="fill: #117733; fill-opacity: 0.6; stroke: #ffffff; stroke-opacity: 0.6; stroke-width: 0.339411"/>
    <path d="M 144.115829 100.769315 
L 141.994508 105.011956 
L 146.237149 105.011956 
z
" clip-path="url(#pce34221a58)" style="fill: #117733; fill-opacity: 0.6; stroke: #ffffff; stroke-opacity: 0.6; stroke-width: 0.339411"/>
    <path d="M 149.116962 94.085251 
L 146.995641 98.327892 
L 151.238282 98.327892 
z
" clip-path="url(#pce34221a58)" style="fill: #117733; fill-opacity: 0.6; stroke: #ffffff; stroke-opacity: 0.6; stroke-width: 0.339411"/>
    <path d="M 99.099975 96.680643 
L 96.978655 100.923284 
L 101.221296 100.923284 
z
" clip-path="url(#pce34221a58)" style="fill: #117733; fill-opacity: 0.6; stroke: #ffffff; stroke-opacity: 0.6; stroke-width: 0.339411"/>
    <path d="M 141.913812 98.17201 
L 139.792491 102.414651 
L 144.035132 102.414651 
z
" clip-path="url(#pce34221a58)" style="fill: #117733; fill-opacity: 0.6; stroke: #ffffff; stroke-opacity: 0.6; stroke-width: 0.339411"/>
    <path d="M 75.489374 92.312188 
L 73.368053 96.554829 
L 77.610694 96.554829 
z
" clip-path="url(#pce34221a58)" style="fill: #117733; fill-opacity: 0.6; stroke: #ffffff; stroke-opacity: 0.6; stroke-width: 0.339411"/>
    <path d="M 155.07228 105.112319 
L 152.95096 109.354959 
L 157.193601 109.354959 
z
" clip-path="url(#pce34221a58)" style="fill: #117733; fill-opacity: 0.6; stroke: #ffffff; stroke-opacity: 0.6; stroke-width: 0.339411"/>
    <path d="M 163.447613 101.510892 
L 161.326293 105.753533 
L 165.568933 105.753533 
z
" clip-path="url(#pce34221a58)" style="fill: #117733; fill-opacity: 0.6; stroke: #ffffff; stroke-opacity: 0.6; stroke-width: 0.339411"/>
    <path d="M 153.838912 102.827024 
L 151.717592 107.069665 
L 155.960232 107.069665 
z
" clip-path="url(#pce34221a58)" style="fill: #117733; fill-opacity: 0.6; stroke: #ffffff; stroke-opacity: 0.6; stroke-width: 0.339411"/>
    <path d="M 148.242637 94.014349 
L 146.121317 98.25699 
L 150.363958 98.25699 
z
" clip-path="url(#pce34221a58)" style="fill: #117733; fill-opacity: 0.6; stroke: #ffffff; stroke-opacity: 0.6; stroke-width: 0.339411"/>
    <path d="M 103.378233 111.468317 
L 107.620874 111.468317 
L 107.620874 107.225677 
L 103.378233 107.225677 
z
" clip-path="url(#pce34221a58)" style="fill: #44aa99; fill-opacity: 0.6; stroke: #ffffff; stroke-opacity: 0.6; stroke-width: 0.339411"/>
    <path d="M 94.90759 101.042634 
L 99.15023 101.042634 
L 99.15023 96.799993 
L 94.90759 96.799993 
z
" clip-path="url(#pce34221a58)" style="fill: #44aa99; fill-opacity: 0.6; stroke: #ffffff; stroke-opacity: 0.6; stroke-width: 0.339411"/>
    <path d="M 146.017598 106.323584 
L 150.260238 106.323584 
L 150.260238 102.080943 
L 146.017598 102.080943 
z
" clip-path="url(#pce34221a58)" style="fill: #44aa99; fill-opacity: 0.6; stroke: #ffffff; stroke-opacity: 0.6; stroke-width: 0.339411"/>
    <path d="M 164.991011 110.751758 
L 169.233652 110.751758 
L 169.233652 106.509117 
L 164.991011 106.509117 
z
" clip-path="url(#pce34221a58)" style="fill: #44aa99; fill-opacity: 0.6; stroke: #ffffff; stroke-opacity: 0.6; stroke-width: 0.339411"/>
    <path d="M 135.607785 90.758603 
L 139.850426 90.758603 
L 139.850426 86.515962 
L 135.607785 86.515962 
z
" clip-path="url(#pce34221a58)" style="fill: #44aa99; fill-opacity: 0.6; stroke: #ffffff; stroke-opacity: 0.6; stroke-width: 0.339411"/>
    <path d="M 144.911278 109.963417 
L 149.153919 109.963417 
L 149.153919 105.720776 
L 144.911278 105.720776 
z
" clip-path="url(#pce34221a58)" style="fill: #44aa99; fill-opacity: 0.6; stroke: #ffffff; stroke-opacity: 0.6; stroke-width: 0.339411"/>
    <path d="M 105.680337 110.034817 
L 109.922978 110.034817 
L 109.922978 105.792177 
L 105.680337 105.792177 
z
" clip-path="url(#pce34221a58)" style="fill: #44aa99; fill-opacity: 0.6; stroke: #ffffff; stroke-opacity: 0.6; stroke-width: 0.339411"/>
    <path d="M 150.616201 113.537701 
L 154.858842 113.537701 
L 154.858842 109.295061 
L 150.616201 109.295061 
z
" clip-path="url(#pce34221a58)" style="fill: #44aa99; fill-opacity: 0.6; stroke: #ffffff; stroke-opacity: 0.6; stroke-width: 0.339411"/>
    <path d="M 159.805475 108.256552 
L 164.048116 108.256552 
L 164.048116 104.013911 
L 159.805475 104.013911 
z
" clip-path="url(#pce34221a58)" style="fill: #44aa99; fill-opacity: 0.6; stroke: #ffffff; stroke-opacity: 0.6; stroke-width: 0.339411"/>
    <path d="M 153.190418 87.856859 
L 157.433058 87.856859 
L 157.433058 83.614218 
L 153.190418 83.614218 
z
" clip-path="url(#pce34221a58)" style="fill: #44aa99; fill-opacity: 0.6; stroke: #ffffff; stroke-opacity: 0.6; stroke-width: 0.339411"/>
    <path d="M 104.583718 111.52001 
L 108.826359 111.52001 
L 108.826359 107.277369 
L 104.583718 107.277369 
z
" clip-path="url(#pce34221a58)" style="fill: #44aa99; fill-opacity: 0.6; stroke: #ffffff; stroke-opacity: 0.6; stroke-width: 0.339411"/>
    <path d="M 124.301575 99.966481 
L 128.544216 99.966481 
L 128.544216 95.72384 
L 124.301575 95.72384 
z
" clip-path="url(#pce34221a58)" style="fill: #44aa99; fill-opacity: 0.6; stroke: #ffffff; stroke-opacity: 0.6; stroke-width: 0.339411"/>
    <path d="M 128.502575 112.003866 
L 132.745216 112.003866 
L 132.745216 107.761225 
L 128.502575 107.761225 
z
" clip-path="url(#pce34221a58)" style="fill: #44aa99; fill-opacity: 0.6; stroke: #ffffff; stroke-opacity: 0.6; stroke-width: 0.339411"/>
    <path d="M 132.877862 108.598159 
L 137.120503 108.598159 
L 137.120503 104.355518 
L 132.877862 104.355518 
z
" clip-path="url(#pce34221a58)" style="fill: #44aa99; fill-opacity: 0.6; stroke: #ffffff; stroke-opacity: 0.6; stroke-width: 0.339411"/>
    <path d="M 157.032234 114.868428 
L 161.274874 114.868428 
L 161.274874 110.625788 
L 157.032234 110.625788 
z
" clip-path="url(#pce34221a58)" style="fill: #44aa99; fill-opacity: 0.6; stroke: #ffffff; stroke-opacity: 0.6; stroke-width: 0.339411"/>
    <path d="M 131.475147 111.782824 
L 135.717788 111.782824 
L 135.717788 107.540184 
L 131.475147 107.540184 
z
" clip-path="url(#pce34221a58)" style="fill: #44aa99; fill-opacity: 0.6; stroke: #ffffff; stroke-opacity: 0.6; stroke-width: 0.339411"/>
    <path d="M 169.984443 109.526256 
L 174.227084 109.526256 
L 174.227084 105.283615 
L 169.984443 105.283615 
z
" clip-path="url(#pce34221a58)" style="fill: #44aa99; fill-opacity: 0.6; stroke: #ffffff; stroke-opacity: 0.6; stroke-width: 0.339411"/>
    <path d="M 128.428527 106.375792 
L 132.671168 106.375792 
L 132.671168 102.133152 
L 128.428527 102.133152 
z
" clip-path="url(#pce34221a58)" style="fill: #44aa99; fill-opacity: 0.6; stroke: #ffffff; stroke-opacity: 0.6; stroke-width: 0.339411"/>
    <path d="M 148.096896 89.06626 
L 152.339536 89.06626 
L 152.339536 84.823619 
L 148.096896 84.823619 
z
" clip-path="url(#pce34221a58)" style="fill: #44aa99; fill-opacity: 0.6; stroke: #ffffff; stroke-opacity: 0.6; stroke-width: 0.339411"/>
    <path d="M 146.507694 113.308917 
L 150.750335 113.308917 
L 150.750335 109.066276 
L 146.507694 109.066276 
z
" clip-path="url(#pce34221a58)" style="fill: #44aa99; fill-opacity: 0.6; stroke: #ffffff; stroke-opacity: 0.6; stroke-width: 0.339411"/>
    <path d="M 106.512921 111.858666 
L 110.755562 111.858666 
L 110.755562 107.616026 
L 106.512921 107.616026 
z
" clip-path="url(#pce34221a58)" style="fill: #44aa99; fill-opacity: 0.6; stroke: #ffffff; stroke-opacity: 0.6; stroke-width: 0.339411"/>
    <path d="M 129.245723 107.824134 
L 133.488363 107.824134 
L 133.488363 103.581493 
L 129.245723 103.581493 
z
" clip-path="url(#pce34221a58)" style="fill: #44aa99; fill-opacity: 0.6; stroke: #ffffff; stroke-opacity: 0.6; stroke-width: 0.339411"/>
    <path d="M 132.868551 102.566231 
L 137.111191 102.566231 
L 137.111191 98.32359 
L 132.868551 98.32359 
z
" clip-path="url(#pce34221a58)" style="fill: #44aa99; fill-opacity: 0.6; stroke: #ffffff; stroke-opacity: 0.6; stroke-width: 0.339411"/>
    <path d="M 142.414944 110.740006 
L 146.657584 110.740006 
L 146.657584 106.497365 
L 142.414944 106.497365 
z
" clip-path="url(#pce34221a58)" style="fill: #44aa99; fill-opacity: 0.6; stroke: #ffffff; stroke-opacity: 0.6; stroke-width: 0.339411"/>
    <path d="M 107.523065 112.07224 
L 111.765706 112.07224 
L 111.765706 107.829599 
L 107.523065 107.829599 
z
" clip-path="url(#pce34221a58)" style="fill: #44aa99; fill-opacity: 0.6; stroke: #ffffff; stroke-opacity: 0.6; stroke-width: 0.339411"/>
    <path d="M 152.147787 94.005188 
L 156.390428 94.005188 
L 156.390428 89.762547 
L 152.147787 89.762547 
z
" clip-path="url(#pce34221a58)" style="fill: #44aa99; fill-opacity: 0.6; stroke: #ffffff; stroke-opacity: 0.6; stroke-width: 0.339411"/>
    <path d="M 119.017812 111.415385 
L 123.260452 111.415385 
L 123.260452 107.172745 
L 119.017812 107.172745 
z
" clip-path="url(#pce34221a58)" style="fill: #44aa99; fill-opacity: 0.6; stroke: #ffffff; stroke-opacity: 0.6; stroke-width: 0.339411"/>
    <path d="M 115.776704 106.726631 
L 120.019344 106.726631 
L 120.019344 102.48399 
L 115.776704 102.48399 
z
" clip-path="url(#pce34221a58)" style="fill: #44aa99; fill-opacity: 0.6; stroke: #ffffff; stroke-opacity: 0.6; stroke-width: 0.339411"/>
    <path d="M 128.608891 106.929642 
L 132.851531 106.929642 
L 132.851531 102.687001 
L 128.608891 102.687001 
z
" clip-path="url(#pce34221a58)" style="fill: #44aa99; fill-opacity: 0.6; stroke: #ffffff; stroke-opacity: 0.6; stroke-width: 0.339411"/>
    <path d="M 134.096952 111.518962 
L 138.339593 111.518962 
L 138.339593 107.276322 
L 134.096952 107.276322 
z
" clip-path="url(#pce34221a58)" style="fill: #44aa99; fill-opacity: 0.6; stroke: #ffffff; stroke-opacity: 0.6; stroke-width: 0.339411"/>
    <path d="M 165.93911 92.317418 
L 170.181751 92.317418 
L 170.181751 88.074778 
L 165.93911 88.074778 
z
" clip-path="url(#pce34221a58)" style="fill: #44aa99; fill-opacity: 0.6; stroke: #ffffff; stroke-opacity: 0.6; stroke-width: 0.339411"/>
    <path d="M 97.953841 102.846744 
L 102.196481 102.846744 
L 102.196481 98.604103 
L 97.953841 98.604103 
z
" clip-path="url(#pce34221a58)" style="fill: #44aa99; fill-opacity: 0.6; stroke: #ffffff; stroke-opacity: 0.6; stroke-width: 0.339411"/>
    <path d="M 141.348233 106.298619 
L 145.590873 106.298619 
L 145.590873 102.055978 
L 141.348233 102.055978 
z
" clip-path="url(#pce34221a58)" style="fill: #44aa99; fill-opacity: 0.6; stroke: #ffffff; stroke-opacity: 0.6; stroke-width: 0.339411"/>
    <path d="M 143.961842 98.937304 
L 148.204482 98.937304 
L 148.204482 94.694664 
L 143.961842 94.694664 
z
" clip-path="url(#pce34221a58)" style="fill: #44aa99; fill-opacity: 0.6; stroke: #ffffff; stroke-opacity: 0.6; stroke-width: 0.339411"/>
    <path d="M 120.27633 113.022718 
L 124.51897 113.022718 
L 124.51897 108.780078 
L 120.27633 108.780078 
z
" clip-path="url(#pce34221a58)" style="fill: #44aa99; fill-opacity: 0.6; stroke: #ffffff; stroke-opacity: 0.6; stroke-width: 0.339411"/>
    <path d="M 144.354448 115.256368 
L 148.597089 115.256368 
L 148.597089 111.013727 
L 144.354448 111.013727 
z
" clip-path="url(#pce34221a58)" style="fill: #44aa99; fill-opacity: 0.6; stroke: #ffffff; stroke-opacity: 0.6; stroke-width: 0.339411"/>
    <path d="M 99.912658 92.757467 
L 104.155299 92.757467 
L 104.155299 88.514826 
L 99.912658 88.514826 
z
" clip-path="url(#pce34221a58)" style="fill: #44aa99; fill-opacity: 0.6; stroke: #ffffff; stroke-opacity: 0.6; stroke-width: 0.339411"/>
    <path d="M 163.502495 113.020797 
L 167.745135 113.020797 
L 167.745135 108.778156 
L 163.502495 108.778156 
z
" clip-path="url(#pce34221a58)" style="fill: #44aa99; fill-opacity: 0.6; stroke: #ffffff; stroke-opacity: 0.6; stroke-width: 0.339411"/>
    <path d="M 161.687415 110.300428 
L 165.930056 110.300428 
L 165.930056 106.057788 
L 161.687415 106.057788 
z
" clip-path="url(#pce34221a58)" style="fill: #44aa99; fill-opacity: 0.6; stroke: #ffffff; stroke-opacity: 0.6; stroke-width: 0.339411"/>
    <path d="M 119.195107 100.069253 
L 123.437748 100.069253 
L 123.437748 95.826612 
L 119.195107 95.826612 
z
" clip-path="url(#pce34221a58)" style="fill: #44aa99; fill-opacity: 0.6; stroke: #ffffff; stroke-opacity: 0.6; stroke-width: 0.339411"/>
    <path d="M 149.138742 110.861958 
L 153.381382 110.861958 
L 153.381382 106.619318 
L 149.138742 106.619318 
z
" clip-path="url(#pce34221a58)" style="fill: #44aa99; fill-opacity: 0.6; stroke: #ffffff; stroke-opacity: 0.6; stroke-width: 0.339411"/>
    <path d="M 175.315658 105.011988 
L 179.558299 105.011988 
L 179.558299 100.769347 
L 175.315658 100.769347 
z
" clip-path="url(#pce34221a58)" style="fill: #44aa99; fill-opacity: 0.6; stroke: #ffffff; stroke-opacity: 0.6; stroke-width: 0.339411"/>
    <path d="M 146.089851 109.681945 
L 150.332492 109.681945 
L 150.332492 105.439304 
L 146.089851 105.439304 
z
" clip-path="url(#pce34221a58)" style="fill: #44aa99; fill-opacity: 0.6; stroke: #ffffff; stroke-opacity: 0.6; stroke-width: 0.339411"/>
    <path d="M 175.716511 110.438656 
L 179.959152 110.438656 
L 179.959152 106.196015 
L 175.716511 106.196015 
z
" clip-path="url(#pce34221a58)" style="fill: #44aa99; fill-opacity: 0.6; stroke: #ffffff; stroke-opacity: 0.6; stroke-width: 0.339411"/>
    <path d="M 152.273586 103.664354 
L 156.516226 103.664354 
L 156.516226 99.421713 
L 152.273586 99.421713 
z
" clip-path="url(#pce34221a58)" style="fill: #44aa99; fill-opacity: 0.6; stroke: #ffffff; stroke-opacity: 0.6; stroke-width: 0.339411"/>
    <path d="M 140.073697 111.357105 
L 144.316337 111.357105 
L 144.316337 107.114464 
L 140.073697 107.114464 
z
" clip-path="url(#pce34221a58)" style="fill: #44aa99; fill-opacity: 0.6; stroke: #ffffff; stroke-opacity: 0.6; stroke-width: 0.339411"/>
    <path d="M 171.146721 113.902947 
L 175.389362 113.902947 
L 175.389362 109.660306 
L 171.146721 109.660306 
z
" clip-path="url(#pce34221a58)" style="fill: #44aa99; fill-opacity: 0.6; stroke: #ffffff; stroke-opacity: 0.6; stroke-width: 0.339411"/>
    <path d="M 127.171324 97.772549 
L 131.413965 97.772549 
L 131.413965 93.529909 
L 127.171324 93.529909 
z
" clip-path="url(#pce34221a58)" style="fill: #44aa99; fill-opacity: 0.6; stroke: #ffffff; stroke-opacity: 0.6; stroke-width: 0.339411"/>
    <path d="M 153.328501 93.175336 
L 157.571142 93.175336 
L 157.571142 88.932696 
L 153.328501 88.932696 
z
" clip-path="url(#pce34221a58)" style="fill: #44aa99; fill-opacity: 0.6; stroke: #ffffff; stroke-opacity: 0.6; stroke-width: 0.339411"/>
    <path d="M 155.595054 96.529431 
L 159.837695 96.529431 
L 159.837695 92.28679 
L 155.595054 92.28679 
z
" clip-path="url(#pce34221a58)" style="fill: #44aa99; fill-opacity: 0.6; stroke: #ffffff; stroke-opacity: 0.6; stroke-width: 0.339411"/>
    <path d="M 144.264922 89.200836 
L 148.507562 89.200836 
L 148.507562 84.958195 
L 144.264922 84.958195 
z
" clip-path="url(#pce34221a58)" style="fill: #44aa99; fill-opacity: 0.6; stroke: #ffffff; stroke-opacity: 0.6; stroke-width: 0.339411"/>
    <path d="M 176.720623 110.67189 
L 180.963264 110.67189 
L 180.963264 106.429249 
L 176.720623 106.429249 
z
" clip-path="url(#pce34221a58)" style="fill: #44aa99; fill-opacity: 0.6; stroke: #ffffff; stroke-opacity: 0.6; stroke-width: 0.339411"/>
    <path d="M 140.835395 100.232955 
L 145.078035 100.232955 
L 145.078035 95.990314 
L 140.835395 95.990314 
z
" clip-path="url(#pce34221a58)" style="fill: #44aa99; fill-opacity: 0.6; stroke: #ffffff; stroke-opacity: 0.6; stroke-width: 0.339411"/>
    <path d="M 174.292538 110.687449 
L 178.535179 110.687449 
L 178.535179 106.444809 
L 174.292538 106.444809 
z
" clip-path="url(#pce34221a58)" style="fill: #44aa99; fill-opacity: 0.6; stroke: #ffffff; stroke-opacity: 0.6; stroke-width: 0.339411"/>
    <path d="M 164.279733 108.435325 
L 168.522374 108.435325 
L 168.522374 104.192684 
L 164.279733 104.192684 
z
" clip-path="url(#pce34221a58)" style="fill: #44aa99; fill-opacity: 0.6; stroke: #ffffff; stroke-opacity: 0.6; stroke-width: 0.339411"/>
    <path d="M 177.852044 108.779219 
L 182.094685 108.779219 
L 182.094685 104.536578 
L 177.852044 104.536578 
z
" clip-path="url(#pce34221a58)" style="fill: #44aa99; fill-opacity: 0.6; stroke: #ffffff; stroke-opacity: 0.6; stroke-width: 0.339411"/>
    <path d="M 121.017023 103.611462 
L 125.259664 103.611462 
L 125.259664 99.368822 
L 121.017023 99.368822 
z
" clip-path="url(#pce34221a58)" style="fill: #44aa99; fill-opacity: 0.6; stroke: #ffffff; stroke-opacity: 0.6; stroke-width: 0.339411"/>
    <path d="M 160.051467 102.703062 
L 164.294108 102.703062 
L 164.294108 98.460422 
L 160.051467 98.460422 
z
" clip-path="url(#pce34221a58)" style="fill: #44aa99; fill-opacity: 0.6; stroke: #ffffff; stroke-opacity: 0.6; stroke-width: 0.339411"/>
    <path d="M 183.528153 110.859763 
L 187.770793 110.859763 
L 187.770793 106.617122 
L 183.528153 106.617122 
z
" clip-path="url(#pce34221a58)" style="fill: #44aa99; fill-opacity: 0.6; stroke: #ffffff; stroke-opacity: 0.6; stroke-width: 0.339411"/>
    <path d="M 143.627831 100.097606 
L 147.870472 100.097606 
L 147.870472 95.854965 
L 143.627831 95.854965 
z
" clip-path="url(#pce34221a58)" style="fill: #44aa99; fill-opacity: 0.6; stroke: #ffffff; stroke-opacity: 0.6; stroke-width: 0.339411"/>
    <path d="M 181.559912 109.922368 
L 185.802553 109.922368 
L 185.802553 105.679728 
L 181.559912 105.679728 
z
" clip-path="url(#pce34221a58)" style="fill: #44aa99; fill-opacity: 0.6; stroke: #ffffff; stroke-opacity: 0.6; stroke-width: 0.339411"/>
    <path d="M 143.850584 98.081403 
L 148.093224 98.081403 
L 148.093224 93.838762 
L 143.850584 93.838762 
z
" clip-path="url(#pce34221a58)" style="fill: #44aa99; fill-opacity: 0.6; stroke: #ffffff; stroke-opacity: 0.6; stroke-width: 0.339411"/>
    <path d="M 132.740219 111.764052 
L 136.98286 111.764052 
L 136.98286 107.521412 
L 132.740219 107.521412 
z
" clip-path="url(#pce34221a58)" style="fill: #44aa99; fill-opacity: 0.6; stroke: #ffffff; stroke-opacity: 0.6; stroke-width: 0.339411"/>
    <path d="M 94.433071 90.321298 
L 95.493731 89.260638 
L 96.554391 90.321298 
L 97.615051 89.260638 
L 96.554391 88.199978 
L 97.615051 87.139318 
L 96.554391 86.078657 
L 95.493731 87.139318 
L 94.433071 86.078657 
L 93.37241 87.139318 
L 94.433071 88.199978 
L 93.37241 89.260638 
z
" clip-path="url(#pce34221a58)" style="fill: #88ccee; fill-opacity: 0.6; stroke: #ffffff; stroke-opacity: 0.6; stroke-width: 0.339411"/>
    <path d="M 161.071114 86.550472 
L 162.131775 85.489812 
L 163.192435 86.550472 
L 164.253095 85.489812 
L 163.192435 84.429152 
L 164.253095 83.368491 
L 163.192435 82.307831 
L 162.131775 83.368491 
L 161.071114 82.307831 
L 160.010454 83.368491 
L 161.071114 84.429152 
L 160.010454 85.489812 
z
" clip-path="url(#pce34221a58)" style="fill: #88ccee; fill-opacity: 0.6; stroke: #ffffff; stroke-opacity: 0.6; stroke-width: 0.339411"/>
    <path d="M 128.092663 90.849831 
L 129.153323 89.789171 
L 130.213983 90.849831 
L 131.274643 89.789171 
L 130.213983 88.728511 
L 131.274643 87.667851 
L 130.213983 86.60719 
L 129.153323 87.667851 
L 128.092663 86.60719 
L 127.032002 87.667851 
L 128.092663 88.728511 
L 127.032002 89.789171 
z
" clip-path="url(#pce34221a58)" style="fill: #88ccee; fill-opacity: 0.6; stroke: #ffffff; stroke-opacity: 0.6; stroke-width: 0.339411"/>
    <path d="M 149.060663 87.698425 
L 150.121323 86.637764 
L 151.181984 87.698425 
L 152.242644 86.637764 
L 151.181984 85.577104 
L 152.242644 84.516444 
L 151.181984 83.455784 
L 150.121323 84.516444 
L 149.060663 83.455784 
L 148.000003 84.516444 
L 149.060663 85.577104 
L 148.000003 86.637764 
z
" clip-path="url(#pce34221a58)" style="fill: #88ccee; fill-opacity: 0.6; stroke: #ffffff; stroke-opacity: 0.6; stroke-width: 0.339411"/>
    <path d="M 128.117127 88.548691 
L 129.177788 87.48803 
L 130.238448 88.548691 
L 131.299108 87.48803 
L 130.238448 86.42737 
L 131.299108 85.36671 
L 130.238448 84.30605 
L 129.177788 85.36671 
L 128.117127 84.30605 
L 127.056467 85.36671 
L 128.117127 86.42737 
L 127.056467 87.48803 
z
" clip-path="url(#pce34221a58)" style="fill: #88ccee; fill-opacity: 0.6; stroke: #ffffff; stroke-opacity: 0.6; stroke-width: 0.339411"/>
    <path d="M 179.47063 86.002855 
L 180.53129 84.942195 
L 181.59195 86.002855 
L 182.65261 84.942195 
L 181.59195 83.881535 
L 182.65261 82.820875 
L 181.59195 81.760214 
L 180.53129 82.820875 
L 179.47063 81.760214 
L 178.409969 82.820875 
L 179.47063 83.881535 
L 178.409969 84.942195 
z
" clip-path="url(#pce34221a58)" style="fill: #88ccee; fill-opacity: 0.6; stroke: #ffffff; stroke-opacity: 0.6; stroke-width: 0.339411"/>
    <path d="M 159.471433 83.080913 
L 160.532094 82.020253 
L 161.592754 83.080913 
L 162.653414 82.020253 
L 161.592754 80.959592 
L 162.653414 79.898932 
L 161.592754 78.838272 
L 160.532094 79.898932 
L 159.471433 78.838272 
L 158.410773 79.898932 
L 159.471433 80.959592 
L 158.410773 82.020253 
z
" clip-path="url(#pce34221a58)" style="fill: #88ccee; fill-opacity: 0.6; stroke: #ffffff; stroke-opacity: 0.6; stroke-width: 0.339411"/>
    <path d="M 128.90917 105.854041 
L 129.96983 104.793381 
L 131.03049 105.854041 
L 132.09115 104.793381 
L 131.03049 103.732721 
L 132.09115 102.672061 
L 131.03049 101.611401 
L 129.96983 102.672061 
L 128.90917 101.611401 
L 127.84851 102.672061 
L 128.90917 103.732721 
L 127.84851 104.793381 
z
" clip-path="url(#pce34221a58)" style="fill: #88ccee; fill-opacity: 0.6; stroke: #ffffff; stroke-opacity: 0.6; stroke-width: 0.339411"/>
    <path d="M 125.59806 89.76475 
L 126.65872 88.70409 
L 127.719381 89.76475 
L 128.780041 88.70409 
L 127.719381 87.64343 
L 128.780041 86.58277 
L 127.719381 85.52211 
L 126.65872 86.58277 
L 125.59806 85.52211 
L 124.5374 86.58277 
L 125.59806 87.64343 
L 124.5374 88.70409 
z
" clip-path="url(#pce34221a58)" style="fill: #88ccee; fill-opacity: 0.6; stroke: #ffffff; stroke-opacity: 0.6; stroke-width: 0.339411"/>
    <path d="M 168.027655 92.30956 
L 169.088315 91.2489 
L 170.148976 92.30956 
L 171.209636 91.2489 
L 170.148976 90.18824 
L 171.209636 89.12758 
L 170.148976 88.06692 
L 169.088315 89.12758 
L 168.027655 88.06692 
L 166.966995 89.12758 
L 168.027655 90.18824 
L 166.966995 91.2489 
z
" clip-path="url(#pce34221a58)" style="fill: #88ccee; fill-opacity: 0.6; stroke: #ffffff; stroke-opacity: 0.6; stroke-width: 0.339411"/>
    <path d="M 139.372955 92.731099 
L 140.433615 91.670439 
L 141.494275 92.731099 
L 142.554935 91.670439 
L 141.494275 90.609778 
L 142.554935 89.549118 
L 141.494275 88.488458 
L 140.433615 89.549118 
L 139.372955 88.488458 
L 138.312294 89.549118 
L 139.372955 90.609778 
L 138.312294 91.670439 
z
" clip-path="url(#pce34221a58)" style="fill: #88ccee; fill-opacity: 0.6; stroke: #ffffff; stroke-opacity: 0.6; stroke-width: 0.339411"/>
    <path d="M 150.400073 97.87528 
L 151.460733 96.81462 
L 152.521393 97.87528 
L 153.582053 96.81462 
L 152.521393 95.75396 
L 153.582053 94.6933 
L 152.521393 93.632639 
L 151.460733 94.6933 
L 150.400073 93.632639 
L 149.339413 94.6933 
L 150.400073 95.75396 
L 149.339413 96.81462 
z
" clip-path="url(#pce34221a58)" style="fill: #88ccee; fill-opacity: 0.6; stroke: #ffffff; stroke-opacity: 0.6; stroke-width: 0.339411"/>
    <path d="M 168.784543 103.127664 
L 169.845203 102.067004 
L 170.905863 103.127664 
L 171.966524 102.067004 
L 170.905863 101.006344 
L 171.966524 99.945684 
L 170.905863 98.885024 
L 169.845203 99.945684 
L 168.784543 98.885024 
L 167.723883 99.945684 
L 168.784543 101.006344 
L 167.723883 102.067004 
z
" clip-path="url(#pce34221a58)" style="fill: #88ccee; fill-opacity: 0.6; stroke: #ffffff; stroke-opacity: 0.6; stroke-width: 0.339411"/>
    <path d="M 125.8763 93.948793 
L 126.93696 92.888133 
L 127.99762 93.948793 
L 129.058281 92.888133 
L 127.99762 91.827472 
L 129.058281 90.766812 
L 127.99762 89.706152 
L 126.93696 90.766812 
L 125.8763 89.706152 
L 124.81564 90.766812 
L 125.8763 91.827472 
L 124.81564 92.888133 
z
" clip-path="url(#pce34221a58)" style="fill: #88ccee; fill-opacity: 0.6; stroke: #ffffff; stroke-opacity: 0.6; stroke-width: 0.339411"/>
    <path d="M 171.476065 84.878185 
L 172.536725 83.817525 
L 173.597385 84.878185 
L 174.658045 83.817525 
L 173.597385 82.756865 
L 174.658045 81.696204 
L 173.597385 80.635544 
L 172.536725 81.696204 
L 171.476065 80.635544 
L 170.415405 81.696204 
L 171.476065 82.756865 
L 170.415405 83.817525 
z
" clip-path="url(#pce34221a58)" style="fill: #88ccee; fill-opacity: 0.6; stroke: #ffffff; stroke-opacity: 0.6; stroke-width: 0.339411"/>
    <path d="M 143.808205 103.966443 
L 144.868865 102.905783 
L 145.929526 103.966443 
L 146.990186 102.905783 
L 145.929526 101.845123 
L 146.990186 100.784462 
L 145.929526 99.723802 
L 144.868865 100.784462 
L 143.808205 99.723802 
L 142.747545 100.784462 
L 143.808205 101.845123 
L 142.747545 102.905783 
z
" clip-path="url(#pce34221a58)" style="fill: #88ccee; fill-opacity: 0.6; stroke: #ffffff; stroke-opacity: 0.6; stroke-width: 0.339411"/>
    <path d="M 157.092974 103.554157 
L 158.153634 102.493497 
L 159.214294 103.554157 
L 160.274955 102.493497 
L 159.214294 101.432837 
L 160.274955 100.372176 
L 159.214294 99.311516 
L 158.153634 100.372176 
L 157.092974 99.311516 
L 156.032314 100.372176 
L 157.092974 101.432837 
L 156.032314 102.493497 
z
" clip-path="url(#pce34221a58)" style="fill: #88ccee; fill-opacity: 0.6; stroke: #ffffff; stroke-opacity: 0.6; stroke-width: 0.339411"/>
    <path d="M 172.115588 85.637978 
L 173.176248 84.577318 
L 174.236909 85.637978 
L 175.297569 84.577318 
L 174.236909 83.516658 
L 175.297569 82.455997 
L 174.236909 81.395337 
L 173.176248 82.455997 
L 172.115588 81.395337 
L 171.054928 82.455997 
L 172.115588 83.516658 
L 171.054928 84.577318 
z
" clip-path="url(#pce34221a58)" style="fill: #88ccee; fill-opacity: 0.6; stroke: #ffffff; stroke-opacity: 0.6; stroke-width: 0.339411"/>
    <path d="M 148.102968 94.0846 
L 149.163629 93.02394 
L 150.224289 94.0846 
L 151.284949 93.02394 
L 150.224289 91.96328 
L 151.284949 90.902619 
L 150.224289 89.841959 
L 149.163629 90.902619 
L 148.102968 89.841959 
L 147.042308 90.902619 
L 148.102968 91.96328 
L 147.042308 93.02394 
z
" clip-path="url(#pce34221a58)" style="fill: #88ccee; fill-opacity: 0.6; stroke: #ffffff; stroke-opacity: 0.6; stroke-width: 0.339411"/>
    <path d="M 162.874978 86.059765 
L 163.935638 84.999104 
L 164.996298 86.059765 
L 166.056959 84.999104 
L 164.996298 83.938444 
L 166.056959 82.877784 
L 164.996298 81.817124 
L 163.935638 82.877784 
L 162.874978 81.817124 
L 161.814318 82.877784 
L 162.874978 83.938444 
L 161.814318 84.999104 
z
" clip-path="url(#pce34221a58)" style="fill: #88ccee; fill-opacity: 0.6; stroke: #ffffff; stroke-opacity: 0.6; stroke-width: 0.339411"/>
    <path d="M 94.506855 92.189877 
L 95.567515 91.129216 
L 96.628175 92.189877 
L 97.688835 91.129216 
L 96.628175 90.068556 
L 97.688835 89.007896 
L 96.628175 87.947236 
L 95.567515 89.007896 
L 94.506855 87.947236 
L 93.446195 89.007896 
L 94.506855 90.068556 
L 93.446195 91.129216 
z
" clip-path="url(#pce34221a58)" style="fill: #88ccee; fill-opacity: 0.6; stroke: #ffffff; stroke-opacity: 0.6; stroke-width: 0.339411"/>
    <path d="M 138.817527 80.608854 
L 139.878187 79.548194 
L 140.938847 80.608854 
L 141.999507 79.548194 
L 140.938847 78.487534 
L 141.999507 77.426874 
L 140.938847 76.366214 
L 139.878187 77.426874 
L 138.817527 76.366214 
L 137.756867 77.426874 
L 138.817527 78.487534 
L 137.756867 79.548194 
z
" clip-path="url(#pce34221a58)" style="fill: #88ccee; fill-opacity: 0.6; stroke: #ffffff; stroke-opacity: 0.6; stroke-width: 0.339411"/>
    <path d="M 115.587548 100.167276 
L 116.648208 99.106616 
L 117.708868 100.167276 
L 118.769529 99.106616 
L 117.708868 98.045956 
L 118.769529 96.985296 
L 117.708868 95.924635 
L 116.648208 96.985296 
L 115.587548 95.924635 
L 114.526888 96.985296 
L 115.587548 98.045956 
L 114.526888 99.106616 
z
" clip-path="url(#pce34221a58)" style="fill: #88ccee; fill-opacity: 0.6; stroke: #ffffff; stroke-opacity: 0.6; stroke-width: 0.339411"/>
    <path d="M 177.555207 88.29007 
L 178.615868 87.22941 
L 179.676528 88.29007 
L 180.737188 87.22941 
L 179.676528 86.16875 
L 180.737188 85.10809 
L 179.676528 84.047429 
L 178.615868 85.10809 
L 177.555207 84.047429 
L 176.494547 85.10809 
L 177.555207 86.16875 
L 176.494547 87.22941 
z
" clip-path="url(#pce34221a58)" style="fill: #88ccee; fill-opacity: 0.6; stroke: #ffffff; stroke-opacity: 0.6; stroke-width: 0.339411"/>
    <path d="M 176.022326 102.625085 
L 177.082986 101.564425 
L 178.143646 102.625085 
L 179.204306 101.564425 
L 178.143646 100.503765 
L 179.204306 99.443104 
L 178.143646 98.382444 
L 177.082986 99.443104 
L 176.022326 98.382444 
L 174.961666 99.443104 
L 176.022326 100.503765 
L 174.961666 101.564425 
z
" clip-path="url(#pce34221a58)" style="fill: #88ccee; fill-opacity: 0.6; stroke: #ffffff; stroke-opacity: 0.6; stroke-width: 0.339411"/>
    <path d="M 129.344738 88.341544 
L 130.405399 87.280884 
L 131.466059 88.341544 
L 132.526719 87.280884 
L 131.466059 86.220224 
L 132.526719 85.159563 
L 131.466059 84.098903 
L 130.405399 85.159563 
L 129.344738 84.098903 
L 128.284078 85.159563 
L 129.344738 86.220224 
L 128.284078 87.280884 
z
" clip-path="url(#pce34221a58)" style="fill: #88ccee; fill-opacity: 0.6; stroke: #ffffff; stroke-opacity: 0.6; stroke-width: 0.339411"/>
    <path d="M 169.474621 93.643799 
L 170.535282 92.583139 
L 171.595942 93.643799 
L 172.656602 92.583139 
L 171.595942 91.522479 
L 172.656602 90.461818 
L 171.595942 89.401158 
L 170.535282 90.461818 
L 169.474621 89.401158 
L 168.413961 90.461818 
L 169.474621 91.522479 
L 168.413961 92.583139 
z
" clip-path="url(#pce34221a58)" style="fill: #88ccee; fill-opacity: 0.6; stroke: #ffffff; stroke-opacity: 0.6; stroke-width: 0.339411"/>
    <path d="M 111.382565 101.319144 
L 112.443225 100.258484 
L 113.503885 101.319144 
L 114.564545 100.258484 
L 113.503885 99.197824 
L 114.564545 98.137164 
L 113.503885 97.076504 
L 112.443225 98.137164 
L 111.382565 97.076504 
L 110.321905 98.137164 
L 111.382565 99.197824 
L 110.321905 100.258484 
z
" clip-path="url(#pce34221a58)" style="fill: #88ccee; fill-opacity: 0.6; stroke: #ffffff; stroke-opacity: 0.6; stroke-width: 0.339411"/>
    <path d="M 117.297947 88.696786 
L 118.358607 87.636126 
L 119.419267 88.696786 
L 120.479927 87.636126 
L 119.419267 86.575466 
L 120.479927 85.514806 
L 119.419267 84.454145 
L 118.358607 85.514806 
L 117.297947 84.454145 
L 116.237286 85.514806 
L 117.297947 86.575466 
L 116.237286 87.636126 
z
" clip-path="url(#pce34221a58)" style="fill: #88ccee; fill-opacity: 0.6; stroke: #ffffff; stroke-opacity: 0.6; stroke-width: 0.339411"/>
    <path d="M 97.809263 106.33016 
L 98.869923 105.2695 
L 99.930583 106.33016 
L 100.991243 105.2695 
L 99.930583 104.20884 
L 100.991243 103.148179 
L 99.930583 102.087519 
L 98.869923 103.148179 
L 97.809263 102.087519 
L 96.748603 103.148179 
L 97.809263 104.20884 
L 96.748603 105.2695 
z
" clip-path="url(#pce34221a58)" style="fill: #88ccee; fill-opacity: 0.6; stroke: #ffffff; stroke-opacity: 0.6; stroke-width: 0.339411"/>
    <path d="M 173.586589 89.660235 
L 174.647249 88.599575 
L 175.707909 89.660235 
L 176.768569 88.599575 
L 175.707909 87.538915 
L 176.768569 86.478255 
L 175.707909 85.417594 
L 174.647249 86.478255 
L 173.586589 85.417594 
L 172.525929 86.478255 
L 173.586589 87.538915 
L 172.525929 88.599575 
z
" clip-path="url(#pce34221a58)" style="fill: #88ccee; fill-opacity: 0.6; stroke: #ffffff; stroke-opacity: 0.6; stroke-width: 0.339411"/>
    <path d="M 168.499753 94.93317 
L 169.560413 93.87251 
L 170.621074 94.93317 
L 171.681734 93.87251 
L 170.621074 92.81185 
L 171.681734 91.75119 
L 170.621074 90.69053 
L 169.560413 91.75119 
L 168.499753 90.69053 
L 167.439093 91.75119 
L 168.499753 92.81185 
L 167.439093 93.87251 
z
" clip-path="url(#pce34221a58)" style="fill: #88ccee; fill-opacity: 0.6; stroke: #ffffff; stroke-opacity: 0.6; stroke-width: 0.339411"/>
    <path d="M 215.472486 93.697688 
L 216.533146 92.637028 
L 217.593806 93.697688 
L 218.654466 92.637028 
L 217.593806 91.576368 
L 218.654466 90.515708 
L 217.593806 89.455048 
L 216.533146 90.515708 
L 215.472486 89.455048 
L 214.411826 90.515708 
L 215.472486 91.576368 
L 214.411826 92.637028 
z
" clip-path="url(#pce34221a58)" style="fill: #88ccee; fill-opacity: 0.6; stroke: #ffffff; stroke-opacity: 0.6; stroke-width: 0.339411"/>
    <path d="M 152.101816 83.411917 
L 153.162476 82.351256 
L 154.223136 83.411917 
L 155.283796 82.351256 
L 154.223136 81.290596 
L 155.283796 80.229936 
L 154.223136 79.169276 
L 153.162476 80.229936 
L 152.101816 79.169276 
L 151.041156 80.229936 
L 152.101816 81.290596 
L 151.041156 82.351256 
z
" clip-path="url(#pce34221a58)" style="fill: #88ccee; fill-opacity: 0.6; stroke: #ffffff; stroke-opacity: 0.6; stroke-width: 0.339411"/>
    <path d="M 182.349726 85.775122 
L 183.410386 84.714462 
L 184.471046 85.775122 
L 185.531707 84.714462 
L 184.471046 83.653802 
L 185.531707 82.593142 
L 184.471046 81.532482 
L 183.410386 82.593142 
L 182.349726 81.532482 
L 181.289066 82.593142 
L 182.349726 83.653802 
L 181.289066 84.714462 
z
" clip-path="url(#pce34221a58)" style="fill: #88ccee; fill-opacity: 0.6; stroke: #ffffff; stroke-opacity: 0.6; stroke-width: 0.339411"/>
    <path d="M 119.463586 94.33246 
L 120.524247 93.271799 
L 121.584907 94.33246 
L 122.645567 93.271799 
L 121.584907 92.211139 
L 122.645567 91.150479 
L 121.584907 90.089819 
L 120.524247 91.150479 
L 119.463586 90.089819 
L 118.402926 91.150479 
L 119.463586 92.211139 
L 118.402926 93.271799 
z
" clip-path="url(#pce34221a58)" style="fill: #88ccee; fill-opacity: 0.6; stroke: #ffffff; stroke-opacity: 0.6; stroke-width: 0.339411"/>
    <path d="M 166.32553 102.391395 
L 167.38619 101.330735 
L 168.44685 102.391395 
L 169.50751 101.330735 
L 168.44685 100.270075 
L 169.50751 99.209415 
L 168.44685 98.148755 
L 167.38619 99.209415 
L 166.32553 98.148755 
L 165.264869 99.209415 
L 166.32553 100.270075 
L 165.264869 101.330735 
z
" clip-path="url(#pce34221a58)" style="fill: #88ccee; fill-opacity: 0.6; stroke: #ffffff; stroke-opacity: 0.6; stroke-width: 0.339411"/>
    <path d="M 128.800316 80.690205 
L 129.860976 79.629545 
L 130.921636 80.690205 
L 131.982297 79.629545 
L 130.921636 78.568885 
L 131.982297 77.508225 
L 130.921636 76.447564 
L 129.860976 77.508225 
L 128.800316 76.447564 
L 127.739656 77.508225 
L 128.800316 78.568885 
L 127.739656 79.629545 
z
" clip-path="url(#pce34221a58)" style="fill: #88ccee; fill-opacity: 0.6; stroke: #ffffff; stroke-opacity: 0.6; stroke-width: 0.339411"/>
    <path d="M 116.75867 78.93036 
L 117.819331 77.8697 
L 118.879991 78.93036 
L 119.940651 77.8697 
L 118.879991 76.80904 
L 119.940651 75.74838 
L 118.879991 74.68772 
L 117.819331 75.74838 
L 116.75867 74.68772 
L 115.69801 75.74838 
L 116.75867 76.80904 
L 115.69801 77.8697 
z
" clip-path="url(#pce34221a58)" style="fill: #88ccee; fill-opacity: 0.6; stroke: #ffffff; stroke-opacity: 0.6; stroke-width: 0.339411"/>
    <path d="M 185.976929 107.041743 
L 187.037589 105.981083 
L 188.098249 107.041743 
L 189.158909 105.981083 
L 188.098249 104.920423 
L 189.158909 103.859763 
L 188.098249 102.799103 
L 187.037589 103.859763 
L 185.976929 102.799103 
L 184.916269 103.859763 
L 185.976929 104.920423 
L 184.916269 105.981083 
z
" clip-path="url(#pce34221a58)" style="fill: #88ccee; fill-opacity: 0.6; stroke: #ffffff; stroke-opacity: 0.6; stroke-width: 0.339411"/>
    <path d="M 138.308532 81.151566 
L 139.369192 80.090906 
L 140.429852 81.151566 
L 141.490512 80.090906 
L 140.429852 79.030245 
L 141.490512 77.969585 
L 140.429852 76.908925 
L 139.369192 77.969585 
L 138.308532 76.908925 
L 137.247872 77.969585 
L 138.308532 79.030245 
L 137.247872 80.090906 
z
" clip-path="url(#pce34221a58)" style="fill: #88ccee; fill-opacity: 0.6; stroke: #ffffff; stroke-opacity: 0.6; stroke-width: 0.339411"/>
    <path d="M 159.57134 82.275091 
L 160.632001 81.214431 
L 161.692661 82.275091 
L 162.753321 81.214431 
L 161.692661 80.15377 
L 162.753321 79.09311 
L 161.692661 78.03245 
L 160.632001 79.09311 
L 159.57134 78.03245 
L 158.51068 79.09311 
L 159.57134 80.15377 
L 158.51068 81.214431 
z
" clip-path="url(#pce34221a58)" style="fill: #88ccee; fill-opacity: 0.6; stroke: #ffffff; stroke-opacity: 0.6; stroke-width: 0.339411"/>
    <path d="M 147.129828 93.863913 
L 148.190488 92.803252 
L 149.251148 93.863913 
L 150.311808 92.803252 
L 149.251148 91.742592 
L 150.311808 90.681932 
L 149.251148 89.621272 
L 148.190488 90.681932 
L 147.129828 89.621272 
L 146.069167 90.681932 
L 147.129828 91.742592 
L 146.069167 92.803252 
z
" clip-path="url(#pce34221a58)" style="fill: #88ccee; fill-opacity: 0.6; stroke: #ffffff; stroke-opacity: 0.6; stroke-width: 0.339411"/>
    <path d="M 126.520776 108.831777 
L 127.581436 107.771117 
L 128.642096 108.831777 
L 129.702756 107.771117 
L 128.642096 106.710457 
L 129.702756 105.649796 
L 128.642096 104.589136 
L 127.581436 105.649796 
L 126.520776 104.589136 
L 125.460115 105.649796 
L 126.520776 106.710457 
L 125.460115 107.771117 
z
" clip-path="url(#pce34221a58)" style="fill: #88ccee; fill-opacity: 0.6; stroke: #ffffff; stroke-opacity: 0.6; stroke-width: 0.339411"/>
    <path d="M 159.706044 90.25599 
L 160.766704 89.19533 
L 161.827364 90.25599 
L 162.888024 89.19533 
L 161.827364 88.13467 
L 162.888024 87.07401 
L 161.827364 86.01335 
L 160.766704 87.07401 
L 159.706044 86.01335 
L 158.645384 87.07401 
L 159.706044 88.13467 
L 158.645384 89.19533 
z
" clip-path="url(#pce34221a58)" style="fill: #88ccee; fill-opacity: 0.6; stroke: #ffffff; stroke-opacity: 0.6; stroke-width: 0.339411"/>
    <path d="M 134.173121 87.261194 
L 135.233781 86.200534 
L 136.294441 87.261194 
L 137.355101 86.200534 
L 136.294441 85.139874 
L 137.355101 84.079214 
L 136.294441 83.018554 
L 135.233781 84.079214 
L 134.173121 83.018554 
L 133.11246 84.079214 
L 134.173121 85.139874 
L 133.11246 86.200534 
z
" clip-path="url(#pce34221a58)" style="fill: #88ccee; fill-opacity: 0.6; stroke: #ffffff; stroke-opacity: 0.6; stroke-width: 0.339411"/>
    <path d="M 121.529582 110.368034 
L 122.590242 109.307374 
L 123.650903 110.368034 
L 124.711563 109.307374 
L 123.650903 108.246713 
L 124.711563 107.186053 
L 123.650903 106.125393 
L 122.590242 107.186053 
L 121.529582 106.125393 
L 120.468922 107.186053 
L 121.529582 108.246713 
L 120.468922 109.307374 
z
" clip-path="url(#pce34221a58)" style="fill: #88ccee; fill-opacity: 0.6; stroke: #ffffff; stroke-opacity: 0.6; stroke-width: 0.339411"/>
    <path d="M 160.506376 90.858209 
L 161.567036 89.797549 
L 162.627697 90.858209 
L 163.688357 89.797549 
L 162.627697 88.736889 
L 163.688357 87.676229 
L 162.627697 86.615568 
L 161.567036 87.676229 
L 160.506376 86.615568 
L 159.445716 87.676229 
L 160.506376 88.736889 
L 159.445716 89.797549 
z
" clip-path="url(#pce34221a58)" style="fill: #88ccee; fill-opacity: 0.6; stroke: #ffffff; stroke-opacity: 0.6; stroke-width: 0.339411"/>
    <path d="M 167.024596 90.397039 
L 168.085256 89.336379 
L 169.145916 90.397039 
L 170.206577 89.336379 
L 169.145916 88.275719 
L 170.206577 87.215059 
L 169.145916 86.154398 
L 168.085256 87.215059 
L 167.024596 86.154398 
L 165.963936 87.215059 
L 167.024596 88.275719 
L 165.963936 89.336379 
z
" clip-path="url(#pce34221a58)" style="fill: #88ccee; fill-opacity: 0.6; stroke: #ffffff; stroke-opacity: 0.6; stroke-width: 0.339411"/>
    <path d="M 141.102821 84.555851 
L 142.163481 83.495191 
L 143.224141 84.555851 
L 144.284802 83.495191 
L 143.224141 82.43453 
L 144.284802 81.37387 
L 143.224141 80.31321 
L 142.163481 81.37387 
L 141.102821 80.31321 
L 140.042161 81.37387 
L 141.102821 82.43453 
L 140.042161 83.495191 
z
" clip-path="url(#pce34221a58)" style="fill: #88ccee; fill-opacity: 0.6; stroke: #ffffff; stroke-opacity: 0.6; stroke-width: 0.339411"/>
    <path d="M 119.88572 92.082112 
L 120.946381 91.021452 
L 122.007041 92.082112 
L 123.067701 91.021452 
L 122.007041 89.960792 
L 123.067701 88.900132 
L 122.007041 87.839472 
L 120.946381 88.900132 
L 119.88572 87.839472 
L 118.82506 88.900132 
L 119.88572 89.960792 
L 118.82506 91.021452 
z
" clip-path="url(#pce34221a58)" style="fill: #88ccee; fill-opacity: 0.6; stroke: #ffffff; stroke-opacity: 0.6; stroke-width: 0.339411"/>
    <path d="M 159.959098 84.555913 
L 161.019758 83.495253 
L 162.080419 84.555913 
L 163.141079 83.495253 
L 162.080419 82.434593 
L 163.141079 81.373933 
L 162.080419 80.313273 
L 161.019758 81.373933 
L 159.959098 80.313273 
L 158.898438 81.373933 
L 159.959098 82.434593 
L 158.898438 83.495253 
z
" clip-path="url(#pce34221a58)" style="fill: #88ccee; fill-opacity: 0.6; stroke: #ffffff; stroke-opacity: 0.6; stroke-width: 0.339411"/>
    <path d="M 125.2261 101.944086 
L 126.28676 100.883425 
L 127.34742 101.944086 
L 128.40808 100.883425 
L 127.34742 99.822765 
L 128.40808 98.762105 
L 127.34742 97.701445 
L 126.28676 98.762105 
L 125.2261 97.701445 
L 124.165439 98.762105 
L 125.2261 99.822765 
L 124.165439 100.883425 
z
" clip-path="url(#pce34221a58)" style="fill: #88ccee; fill-opacity: 0.6; stroke: #ffffff; stroke-opacity: 0.6; stroke-width: 0.339411"/>
    <path d="M 162.498671 109.813989 
L 163.559332 108.753329 
L 164.619992 109.813989 
L 165.680652 108.753329 
L 164.619992 107.692668 
L 165.680652 106.632008 
L 164.619992 105.571348 
L 163.559332 106.632008 
L 162.498671 105.571348 
L 161.438011 106.632008 
L 162.498671 107.692668 
L 161.438011 108.753329 
z
" clip-path="url(#pce34221a58)" style="fill: #88ccee; fill-opacity: 0.6; stroke: #ffffff; stroke-opacity: 0.6; stroke-width: 0.339411"/>
    <path d="M 135.895245 85.335802 
L 136.955905 84.275142 
L 138.016566 85.335802 
L 139.077226 84.275142 
L 138.016566 83.214482 
L 139.077226 82.153822 
L 138.016566 81.093162 
L 136.955905 82.153822 
L 135.895245 81.093162 
L 134.834585 82.153822 
L 135.895245 83.214482 
L 134.834585 84.275142 
z
" clip-path="url(#pce34221a58)" style="fill: #88ccee; fill-opacity: 0.6; stroke: #ffffff; stroke-opacity: 0.6; stroke-width: 0.339411"/>
    <path d="M 152.40744 83.70766 
L 153.4681 82.647 
L 154.52876 83.70766 
L 155.58942 82.647 
L 154.52876 81.586339 
L 155.58942 80.525679 
L 154.52876 79.465019 
L 153.4681 80.525679 
L 152.40744 79.465019 
L 151.34678 80.525679 
L 152.40744 81.586339 
L 151.34678 82.647 
z
" clip-path="url(#pce34221a58)" style="fill: #88ccee; fill-opacity: 0.6; stroke: #ffffff; stroke-opacity: 0.6; stroke-width: 0.339411"/>
    <path d="M 185.876126 94.011427 
L 186.936786 92.950767 
L 187.997446 94.011427 
L 189.058107 92.950767 
L 187.997446 91.890107 
L 189.058107 90.829447 
L 187.997446 89.768786 
L 186.936786 90.829447 
L 185.876126 89.768786 
L 184.815466 90.829447 
L 185.876126 91.890107 
L 184.815466 92.950767 
z
" clip-path="url(#pce34221a58)" style="fill: #88ccee; fill-opacity: 0.6; stroke: #ffffff; stroke-opacity: 0.6; stroke-width: 0.339411"/>
    <path d="M 150.454987 108.078083 
L 151.515647 107.017423 
L 152.576307 108.078083 
L 153.636967 107.017423 
L 152.576307 105.956762 
L 153.636967 104.896102 
L 152.576307 103.835442 
L 151.515647 104.896102 
L 150.454987 103.835442 
L 149.394327 104.896102 
L 150.454987 105.956762 
L 149.394327 107.017423 
z
" clip-path="url(#pce34221a58)" style="fill: #88ccee; fill-opacity: 0.6; stroke: #ffffff; stroke-opacity: 0.6; stroke-width: 0.339411"/>
    <path d="M 129.714775 84.157558 
L 130.775435 83.096898 
L 131.836095 84.157558 
L 132.896756 83.096898 
L 131.836095 82.036238 
L 132.896756 80.975578 
L 131.836095 79.914918 
L 130.775435 80.975578 
L 129.714775 79.914918 
L 128.654115 80.975578 
L 129.714775 82.036238 
L 128.654115 83.096898 
z
" clip-path="url(#pce34221a58)" style="fill: #88ccee; fill-opacity: 0.6; stroke: #ffffff; stroke-opacity: 0.6; stroke-width: 0.339411"/>
    <path d="M 132.937372 80.278962 
L 133.998033 79.218302 
L 135.058693 80.278962 
L 136.119353 79.218302 
L 135.058693 78.157642 
L 136.119353 77.096981 
L 135.058693 76.036321 
L 133.998033 77.096981 
L 132.937372 76.036321 
L 131.876712 77.096981 
L 132.937372 78.157642 
L 131.876712 79.218302 
z
" clip-path="url(#pce34221a58)" style="fill: #88ccee; fill-opacity: 0.6; stroke: #ffffff; stroke-opacity: 0.6; stroke-width: 0.339411"/>
    <path d="M 144.197025 95.664567 
L 145.257685 94.603907 
L 146.318345 95.664567 
L 147.379005 94.603907 
L 146.318345 93.543247 
L 147.379005 92.482586 
L 146.318345 91.421926 
L 145.257685 92.482586 
L 144.197025 91.421926 
L 143.136365 92.482586 
L 144.197025 93.543247 
L 143.136365 94.603907 
z
" clip-path="url(#pce34221a58)" style="fill: #88ccee; fill-opacity: 0.6; stroke: #ffffff; stroke-opacity: 0.6; stroke-width: 0.339411"/>
    <path d="M 141.444491 95.866222 
L 142.505151 94.805562 
L 143.565812 95.866222 
L 144.626472 94.805562 
L 143.565812 93.744902 
L 144.626472 92.684242 
L 143.565812 91.623582 
L 142.505151 92.684242 
L 141.444491 91.623582 
L 140.383831 92.684242 
L 141.444491 93.744902 
L 140.383831 94.805562 
z
" clip-path="url(#pce34221a58)" style="fill: #88ccee; fill-opacity: 0.6; stroke: #ffffff; stroke-opacity: 0.6; stroke-width: 0.339411"/>
    <path d="M 132.671139 82.481493 
L 133.731799 81.420833 
L 134.792459 82.481493 
L 135.853119 81.420833 
L 134.792459 80.360172 
L 135.853119 79.299512 
L 134.792459 78.238852 
L 133.731799 79.299512 
L 132.671139 78.238852 
L 131.610478 79.299512 
L 132.671139 80.360172 
L 131.610478 81.420833 
z
" clip-path="url(#pce34221a58)" style="fill: #88ccee; fill-opacity: 0.6; stroke: #ffffff; stroke-opacity: 0.6; stroke-width: 0.339411"/>
    <path d="M 145.281055 103.985712 
L 146.341715 102.925051 
L 147.402375 103.985712 
L 148.463036 102.925051 
L 147.402375 101.864391 
L 148.463036 100.803731 
L 147.402375 99.743071 
L 146.341715 100.803731 
L 145.281055 99.743071 
L 144.220395 100.803731 
L 145.281055 101.864391 
L 144.220395 102.925051 
z
" clip-path="url(#pce34221a58)" style="fill: #88ccee; fill-opacity: 0.6; stroke: #ffffff; stroke-opacity: 0.6; stroke-width: 0.339411"/>
   </g>
   <g id="matplotlib.axis_1">
    <g id="xtick_1">
     <g id="line2d_1">
      <defs>
       <path id="m6636171903" d="M 0 0 
L 0 8 
" style="stroke: #000000"/>
      </defs>
      <g>
       <use xlink:href="#m6636171903" x="77.590972" y="183.896063" style="stroke: #000000"/>
      </g>
     </g>
     <g id="text_1">
      <!-- 40 -->
      <g transform="translate(64.92816 204.514188) scale(0.12 -0.12)">
       <defs>
        <path id="DejaVuSans-2212" d="M 678 2272 
L 4684 2272 
L 4684 1741 
L 678 1741 
L 678 2272 
z
" transform="scale(0.015625)"/>
        <path id="DejaVuSans-34" d="M 2419 4116 
L 825 1625 
L 2419 1625 
L 2419 4116 
z
M 2253 4666 
L 3047 4666 
L 3047 1625 
L 3713 1625 
L 3713 1100 
L 3047 1100 
L 3047 0 
L 2419 0 
L 2419 1100 
L 313 1100 
L 313 1709 
L 2253 4666 
z
" transform="scale(0.015625)"/>
        <path id="DejaVuSans-30" d="M 2034 4250 
Q 1547 4250 1301 3770 
Q 1056 3291 1056 2328 
Q 1056 1369 1301 889 
Q 1547 409 2034 409 
Q 2525 409 2770 889 
Q 3016 1369 3016 2328 
Q 3016 3291 2770 3770 
Q 2525 4250 2034 4250 
z
M 2034 4750 
Q 2819 4750 3233 4129 
Q 3647 3509 3647 2328 
Q 3647 1150 3233 529 
Q 2819 -91 2034 -91 
Q 1250 -91 836 529 
Q 422 1150 422 2328 
Q 422 3509 836 4129 
Q 1250 4750 2034 4750 
z
" transform="scale(0.015625)"/>
       </defs>
       <use xlink:href="#DejaVuSans-2212"/>
       <use xlink:href="#DejaVuSans-34" x="83.789062"/>
       <use xlink:href="#DejaVuSans-30" x="147.412109"/>
      </g>
     </g>
    </g>
    <g id="xtick_2">
     <g id="line2d_2">
      <g>
       <use xlink:href="#m6636171903" x="94.414395" y="183.896063" style="stroke: #000000"/>
      </g>
     </g>
     <g id="text_2">
      <!-- 30 -->
      <g transform="translate(81.751582 204.514188) scale(0.12 -0.12)">
       <defs>
        <path id="DejaVuSans-33" d="M 2597 2516 
Q 3050 2419 3304 2112 
Q 3559 1806 3559 1356 
Q 3559 666 3084 287 
Q 2609 -91 1734 -91 
Q 1441 -91 1130 -33 
Q 819 25 488 141 
L 488 750 
Q 750 597 1062 519 
Q 1375 441 1716 441 
Q 2309 441 2620 675 
Q 2931 909 2931 1356 
Q 2931 1769 2642 2001 
Q 2353 2234 1838 2234 
L 1294 2234 
L 1294 2753 
L 1863 2753 
Q 2328 2753 2575 2939 
Q 2822 3125 2822 3475 
Q 2822 3834 2567 4026 
Q 2313 4219 1838 4219 
Q 1578 4219 1281 4162 
Q 984 4106 628 3988 
L 628 4550 
Q 988 4650 1302 4700 
Q 1616 4750 1894 4750 
Q 2613 4750 3031 4423 
Q 3450 4097 3450 3541 
Q 3450 3153 3228 2886 
Q 3006 2619 2597 2516 
z
" transform="scale(0.015625)"/>
       </defs>
       <use xlink:href="#DejaVuSans-2212"/>
       <use xlink:href="#DejaVuSans-33" x="83.789062"/>
       <use xlink:href="#DejaVuSans-30" x="147.412109"/>
      </g>
     </g>
    </g>
    <g id="xtick_3">
     <g id="line2d_3">
      <g>
       <use xlink:href="#m6636171903" x="111.237818" y="183.896063" style="stroke: #000000"/>
      </g>
     </g>
     <g id="text_3">
      <!-- 20 -->
      <g transform="translate(98.575005 204.514188) scale(0.12 -0.12)">
       <defs>
        <path id="DejaVuSans-32" d="M 1228 531 
L 3431 531 
L 3431 0 
L 469 0 
L 469 531 
Q 828 903 1448 1529 
Q 2069 2156 2228 2338 
Q 2531 2678 2651 2914 
Q 2772 3150 2772 3378 
Q 2772 3750 2511 3984 
Q 2250 4219 1831 4219 
Q 1534 4219 1204 4116 
Q 875 4013 500 3803 
L 500 4441 
Q 881 4594 1212 4672 
Q 1544 4750 1819 4750 
Q 2544 4750 2975 4387 
Q 3406 4025 3406 3419 
Q 3406 3131 3298 2873 
Q 3191 2616 2906 2266 
Q 2828 2175 2409 1742 
Q 1991 1309 1228 531 
z
" transform="scale(0.015625)"/>
       </defs>
       <use xlink:href="#DejaVuSans-2212"/>
       <use xlink:href="#DejaVuSans-32" x="83.789062"/>
       <use xlink:href="#DejaVuSans-30" x="147.412109"/>
      </g>
     </g>
    </g>
    <g id="xtick_4">
     <g id="line2d_4">
      <g>
       <use xlink:href="#m6636171903" x="128.06124" y="183.896063" style="stroke: #000000"/>
      </g>
     </g>
     <g id="text_4">
      <!-- 10 -->
      <g transform="translate(115.398428 204.514188) scale(0.12 -0.12)">
       <defs>
        <path id="DejaVuSans-31" d="M 794 531 
L 1825 531 
L 1825 4091 
L 703 3866 
L 703 4441 
L 1819 4666 
L 2450 4666 
L 2450 531 
L 3481 531 
L 3481 0 
L 794 0 
L 794 531 
z
" transform="scale(0.015625)"/>
       </defs>
       <use xlink:href="#DejaVuSans-2212"/>
       <use xlink:href="#DejaVuSans-31" x="83.789062"/>
       <use xlink:href="#DejaVuSans-30" x="147.412109"/>
      </g>
     </g>
    </g>
    <g id="xtick_5">
     <g id="line2d_5">
      <g>
       <use xlink:href="#m6636171903" x="144.884663" y="183.896063" style="stroke: #000000"/>
      </g>
     </g>
     <g id="text_5">
      <!-- 0 -->
      <g transform="translate(141.067163 204.514188) scale(0.12 -0.12)">
       <use xlink:href="#DejaVuSans-30"/>
      </g>
     </g>
    </g>
    <g id="xtick_6">
     <g id="line2d_6">
      <g>
       <use xlink:href="#m6636171903" x="161.708086" y="183.896063" style="stroke: #000000"/>
      </g>
     </g>
     <g id="text_6">
      <!-- 10 -->
      <g transform="translate(154.073086 204.514188) scale(0.12 -0.12)">
       <use xlink:href="#DejaVuSans-31"/>
       <use xlink:href="#DejaVuSans-30" x="63.623047"/>
      </g>
     </g>
    </g>
    <g id="xtick_7">
     <g id="line2d_7">
      <g>
       <use xlink:href="#m6636171903" x="178.531508" y="183.896063" style="stroke: #000000"/>
      </g>
     </g>
     <g id="text_7">
      <!-- 20 -->
      <g transform="translate(170.896508 204.514188) scale(0.12 -0.12)">
       <use xlink:href="#DejaVuSans-32"/>
       <use xlink:href="#DejaVuSans-30" x="63.623047"/>
      </g>
     </g>
    </g>
    <g id="xtick_8">
     <g id="line2d_8">
      <g>
       <use xlink:href="#m6636171903" x="195.354931" y="183.896063" style="stroke: #000000"/>
      </g>
     </g>
     <g id="text_8">
      <!-- 30 -->
      <g transform="translate(187.719931 204.514188) scale(0.12 -0.12)">
       <use xlink:href="#DejaVuSans-33"/>
       <use xlink:href="#DejaVuSans-30" x="63.623047"/>
      </g>
     </g>
    </g>
    <g id="xtick_9">
     <g id="line2d_9">
      <g>
       <use xlink:href="#m6636171903" x="212.178354" y="183.896063" style="stroke: #000000"/>
      </g>
     </g>
     <g id="text_9">
      <!-- 40 -->
      <g transform="translate(204.543354 204.514188) scale(0.12 -0.12)">
       <use xlink:href="#DejaVuSans-34"/>
       <use xlink:href="#DejaVuSans-30" x="63.623047"/>
      </g>
     </g>
    </g>
    <g id="text_10">
     <!-- PC 1 (51.87%) -->
     <g transform="translate(103.012822 220.127938) scale(0.12 -0.12)">
      <defs>
       <path id="DejaVuSans-50" d="M 1259 4147 
L 1259 2394 
L 2053 2394 
Q 2494 2394 2734 2622 
Q 2975 2850 2975 3272 
Q 2975 3691 2734 3919 
Q 2494 4147 2053 4147 
L 1259 4147 
z
M 628 4666 
L 2053 4666 
Q 2838 4666 3239 4311 
Q 3641 3956 3641 3272 
Q 3641 2581 3239 2228 
Q 2838 1875 2053 1875 
L 1259 1875 
L 1259 0 
L 628 0 
L 628 4666 
z
" transform="scale(0.015625)"/>
       <path id="DejaVuSans-43" d="M 4122 4306 
L 4122 3641 
Q 3803 3938 3442 4084 
Q 3081 4231 2675 4231 
Q 1875 4231 1450 3742 
Q 1025 3253 1025 2328 
Q 1025 1406 1450 917 
Q 1875 428 2675 428 
Q 3081 428 3442 575 
Q 3803 722 4122 1019 
L 4122 359 
Q 3791 134 3420 21 
Q 3050 -91 2638 -91 
Q 1578 -91 968 557 
Q 359 1206 359 2328 
Q 359 3453 968 4101 
Q 1578 4750 2638 4750 
Q 3056 4750 3426 4639 
Q 3797 4528 4122 4306 
z
" transform="scale(0.015625)"/>
       <path id="DejaVuSans-20" transform="scale(0.015625)"/>
       <path id="DejaVuSans-28" d="M 1984 4856 
Q 1566 4138 1362 3434 
Q 1159 2731 1159 2009 
Q 1159 1288 1364 580 
Q 1569 -128 1984 -844 
L 1484 -844 
Q 1016 -109 783 600 
Q 550 1309 550 2009 
Q 550 2706 781 3412 
Q 1013 4119 1484 4856 
L 1984 4856 
z
" transform="scale(0.015625)"/>
       <path id="DejaVuSans-35" d="M 691 4666 
L 3169 4666 
L 3169 4134 
L 1269 4134 
L 1269 2991 
Q 1406 3038 1543 3061 
Q 1681 3084 1819 3084 
Q 2600 3084 3056 2656 
Q 3513 2228 3513 1497 
Q 3513 744 3044 326 
Q 2575 -91 1722 -91 
Q 1428 -91 1123 -41 
Q 819 9 494 109 
L 494 744 
Q 775 591 1075 516 
Q 1375 441 1709 441 
Q 2250 441 2565 725 
Q 2881 1009 2881 1497 
Q 2881 1984 2565 2268 
Q 2250 2553 1709 2553 
Q 1456 2553 1204 2497 
Q 953 2441 691 2322 
L 691 4666 
z
" transform="scale(0.015625)"/>
       <path id="DejaVuSans-2e" d="M 684 794 
L 1344 794 
L 1344 0 
L 684 0 
L 684 794 
z
" transform="scale(0.015625)"/>
       <path id="DejaVuSans-38" d="M 2034 2216 
Q 1584 2216 1326 1975 
Q 1069 1734 1069 1313 
Q 1069 891 1326 650 
Q 1584 409 2034 409 
Q 2484 409 2743 651 
Q 3003 894 3003 1313 
Q 3003 1734 2745 1975 
Q 2488 2216 2034 2216 
z
M 1403 2484 
Q 997 2584 770 2862 
Q 544 3141 544 3541 
Q 544 4100 942 4425 
Q 1341 4750 2034 4750 
Q 2731 4750 3128 4425 
Q 3525 4100 3525 3541 
Q 3525 3141 3298 2862 
Q 3072 2584 2669 2484 
Q 3125 2378 3379 2068 
Q 3634 1759 3634 1313 
Q 3634 634 3220 271 
Q 2806 -91 2034 -91 
Q 1263 -91 848 271 
Q 434 634 434 1313 
Q 434 1759 690 2068 
Q 947 2378 1403 2484 
z
M 1172 3481 
Q 1172 3119 1398 2916 
Q 1625 2713 2034 2713 
Q 2441 2713 2670 2916 
Q 2900 3119 2900 3481 
Q 2900 3844 2670 4047 
Q 2441 4250 2034 4250 
Q 1625 4250 1398 4047 
Q 1172 3844 1172 3481 
z
" transform="scale(0.015625)"/>
       <path id="DejaVuSans-37" d="M 525 4666 
L 3525 4666 
L 3525 4397 
L 1831 0 
L 1172 0 
L 2766 4134 
L 525 4134 
L 525 4666 
z
" transform="scale(0.015625)"/>
       <path id="DejaVuSans-25" d="M 4653 2053 
Q 4381 2053 4226 1822 
Q 4072 1591 4072 1178 
Q 4072 772 4226 539 
Q 4381 306 4653 306 
Q 4919 306 5073 539 
Q 5228 772 5228 1178 
Q 5228 1588 5073 1820 
Q 4919 2053 4653 2053 
z
M 4653 2450 
Q 5147 2450 5437 2106 
Q 5728 1763 5728 1178 
Q 5728 594 5436 251 
Q 5144 -91 4653 -91 
Q 4153 -91 3862 251 
Q 3572 594 3572 1178 
Q 3572 1766 3864 2108 
Q 4156 2450 4653 2450 
z
M 1428 4353 
Q 1159 4353 1004 4120 
Q 850 3888 850 3481 
Q 850 3069 1003 2837 
Q 1156 2606 1428 2606 
Q 1700 2606 1854 2837 
Q 2009 3069 2009 3481 
Q 2009 3884 1853 4118 
Q 1697 4353 1428 4353 
z
M 4250 4750 
L 4750 4750 
L 1831 -91 
L 1331 -91 
L 4250 4750 
z
M 1428 4750 
Q 1922 4750 2215 4408 
Q 2509 4066 2509 3481 
Q 2509 2891 2217 2550 
Q 1925 2209 1428 2209 
Q 931 2209 642 2551 
Q 353 2894 353 3481 
Q 353 4063 643 4406 
Q 934 4750 1428 4750 
z
" transform="scale(0.015625)"/>
       <path id="DejaVuSans-29" d="M 513 4856 
L 1013 4856 
Q 1481 4119 1714 3412 
Q 1947 2706 1947 2009 
Q 1947 1309 1714 600 
Q 1481 -109 1013 -844 
L 513 -844 
Q 928 -128 1133 580 
Q 1338 1288 1338 2009 
Q 1338 2731 1133 3434 
Q 928 4138 513 4856 
z
" transform="scale(0.015625)"/>
      </defs>
      <use xlink:href="#DejaVuSans-50"/>
      <use xlink:href="#DejaVuSans-43" x="60.302734"/>
      <use xlink:href="#DejaVuSans-20" x="130.126953"/>
      <use xlink:href="#DejaVuSans-31" x="161.914062"/>
      <use xlink:href="#DejaVuSans-20" x="225.537109"/>
      <use xlink:href="#DejaVuSans-28" x="257.324219"/>
      <use xlink:href="#DejaVuSans-35" x="296.337891"/>
      <use xlink:href="#DejaVuSans-31" x="359.960938"/>
      <use xlink:href="#DejaVuSans-2e" x="423.583984"/>
      <use xlink:href="#DejaVuSans-38" x="455.371094"/>
      <use xlink:href="#DejaVuSans-37" x="518.994141"/>
      <use xlink:href="#DejaVuSans-25" x="582.617188"/>
      <use xlink:href="#DejaVuSans-29" x="677.636719"/>
     </g>
    </g>
   </g>
   <g id="matplotlib.axis_2">
    <g id="ytick_1">
     <g id="line2d_10">
      <defs>
       <path id="m40f3e25801" d="M 0 0 
L -8 0 
" style="stroke: #000000"/>
      </defs>
      <g>
       <use xlink:href="#m40f3e25801" x="64.037638" y="170.342729" style="stroke: #000000"/>
      </g>
     </g>
     <g id="text_11">
      <!-- 40 -->
      <g transform="translate(27.212013 174.901791) scale(0.12 -0.12)">
       <use xlink:href="#DejaVuSans-2212"/>
       <use xlink:href="#DejaVuSans-34" x="83.789062"/>
       <use xlink:href="#DejaVuSans-30" x="147.412109"/>
      </g>
     </g>
    </g>
    <g id="ytick_2">
     <g id="line2d_11">
      <g>
       <use xlink:href="#m40f3e25801" x="64.037638" y="153.519306" style="stroke: #000000"/>
      </g>
     </g>
     <g id="text_12">
      <!-- 30 -->
      <g transform="translate(27.212013 158.078368) scale(0.12 -0.12)">
       <use xlink:href="#DejaVuSans-2212"/>
       <use xlink:href="#DejaVuSans-33" x="83.789062"/>
       <use xlink:href="#DejaVuSans-30" x="147.412109"/>
      </g>
     </g>
    </g>
    <g id="ytick_3">
     <g id="line2d_12">
      <g>
       <use xlink:href="#m40f3e25801" x="64.037638" y="136.695883" style="stroke: #000000"/>
      </g>
     </g>
     <g id="text_13">
      <!-- 20 -->
      <g transform="translate(27.212013 141.254946) scale(0.12 -0.12)">
       <use xlink:href="#DejaVuSans-2212"/>
       <use xlink:href="#DejaVuSans-32" x="83.789062"/>
       <use xlink:href="#DejaVuSans-30" x="147.412109"/>
      </g>
     </g>
    </g>
    <g id="ytick_4">
     <g id="line2d_13">
      <g>
       <use xlink:href="#m40f3e25801" x="64.037638" y="119.872461" style="stroke: #000000"/>
      </g>
     </g>
     <g id="text_14">
      <!-- 10 -->
      <g transform="translate(27.212013 124.431523) scale(0.12 -0.12)">
       <use xlink:href="#DejaVuSans-2212"/>
       <use xlink:href="#DejaVuSans-31" x="83.789062"/>
       <use xlink:href="#DejaVuSans-30" x="147.412109"/>
      </g>
     </g>
    </g>
    <g id="ytick_5">
     <g id="line2d_14">
      <g>
       <use xlink:href="#m40f3e25801" x="64.037638" y="103.049038" style="stroke: #000000"/>
      </g>
     </g>
     <g id="text_15">
      <!-- 0 -->
      <g transform="translate(44.902638 107.6081) scale(0.12 -0.12)">
       <use xlink:href="#DejaVuSans-30"/>
      </g>
     </g>
    </g>
    <g id="ytick_6">
     <g id="line2d_15">
      <g>
       <use xlink:href="#m40f3e25801" x="64.037638" y="86.225615" style="stroke: #000000"/>
      </g>
     </g>
     <g id="text_16">
      <!-- 10 -->
      <g transform="translate(37.267638 90.784678) scale(0.12 -0.12)">
       <use xlink:href="#DejaVuSans-31"/>
       <use xlink:href="#DejaVuSans-30" x="63.623047"/>
      </g>
     </g>
    </g>
    <g id="ytick_7">
     <g id="line2d_16">
      <g>
       <use xlink:href="#m40f3e25801" x="64.037638" y="69.402193" style="stroke: #000000"/>
      </g>
     </g>
     <g id="text_17">
      <!-- 20 -->
      <g transform="translate(37.267638 73.961255) scale(0.12 -0.12)">
       <use xlink:href="#DejaVuSans-32"/>
       <use xlink:href="#DejaVuSans-30" x="63.623047"/>
      </g>
     </g>
    </g>
    <g id="ytick_8">
     <g id="line2d_17">
      <g>
       <use xlink:href="#m40f3e25801" x="64.037638" y="52.57877" style="stroke: #000000"/>
      </g>
     </g>
     <g id="text_18">
      <!-- 30 -->
      <g transform="translate(37.267638 57.137832) scale(0.12 -0.12)">
       <use xlink:href="#DejaVuSans-33"/>
       <use xlink:href="#DejaVuSans-30" x="63.623047"/>
      </g>
     </g>
    </g>
    <g id="ytick_9">
     <g id="line2d_18">
      <g>
       <use xlink:href="#m40f3e25801" x="64.037638" y="35.755347" style="stroke: #000000"/>
      </g>
     </g>
     <g id="text_19">
      <!-- 40 -->
      <g transform="translate(37.267638 40.31441) scale(0.12 -0.12)">
       <use xlink:href="#DejaVuSans-34"/>
       <use xlink:href="#DejaVuSans-30" x="63.623047"/>
      </g>
     </g>
    </g>
    <g id="text_20">
     <!-- PC 2 (12.71%) -->
     <g transform="translate(20.716388 144.920878) rotate(-90) scale(0.12 -0.12)">
      <use xlink:href="#DejaVuSans-50"/>
      <use xlink:href="#DejaVuSans-43" x="60.302734"/>
      <use xlink:href="#DejaVuSans-20" x="130.126953"/>
      <use xlink:href="#DejaVuSans-32" x="161.914062"/>
      <use xlink:href="#DejaVuSans-20" x="225.537109"/>
      <use xlink:href="#DejaVuSans-28" x="257.324219"/>
      <use xlink:href="#DejaVuSans-31" x="296.337891"/>
      <use xlink:href="#DejaVuSans-32" x="359.960938"/>
      <use xlink:href="#DejaVuSans-2e" x="423.583984"/>
      <use xlink:href="#DejaVuSans-37" x="455.371094"/>
      <use xlink:href="#DejaVuSans-31" x="518.994141"/>
      <use xlink:href="#DejaVuSans-25" x="582.617188"/>
      <use xlink:href="#DejaVuSans-29" x="677.636719"/>
     </g>
    </g>
   </g>
   <g id="patch_3">
    <path d="M 64.037638 183.896063 
L 64.037638 19.948819 
" style="fill: none; stroke: #000000; stroke-width: 2; stroke-linejoin: miter; stroke-linecap: square"/>
   </g>
   <g id="patch_4">
    <path d="M 64.037638 183.896063 
L 227.984882 183.896063 
" style="fill: none; stroke: #000000; stroke-width: 2; stroke-linejoin: miter; stroke-linecap: square"/>
   </g>
  </g>
 </g>
 <defs>
  <clipPath id="pce34221a58">
   <rect x="64.037638" y="19.948819" width="163.947244" height="163.947244"/>
  </clipPath>
 </defs>
</svg>
