<?xml version="1.0" encoding="utf-8" standalone="no"?>
<!DOCTYPE svg PUBLIC "-//W3C//DTD SVG 1.1//EN"
  "http://www.w3.org/Graphics/SVG/1.1/DTD/svg11.dtd">
<svg xmlns:xlink="http://www.w3.org/1999/xlink" width="240.944882pt" height="240.944882pt" viewBox="0 0 240.944882 240.944882" xmlns="http://www.w3.org/2000/svg" version="1.1">
 <metadata>
  <rdf:RDF xmlns:dc="http://purl.org/dc/elements/1.1/" xmlns:cc="http://creativecommons.org/ns#" xmlns:rdf="http://www.w3.org/1999/02/22-rdf-syntax-ns#">
   <cc:Work>
    <dc:type rdf:resource="http://purl.org/dc/dcmitype/StillImage"/>
    <dc:date>2025-02-24T15:43:03.568054</dc:date>
    <dc:format>image/svg+xml</dc:format>
    <dc:creator>
     <cc:Agent>
      <dc:title>Matplotlib v3.6.2, https://matplotlib.org/</dc:title>
     </cc:Agent>
    </dc:creator>
   </cc:Work>
  </rdf:RDF>
 </metadata>
 <defs>
  <style type="text/css">*{stroke-linejoin: round; stroke-linecap: butt}</style>
 </defs>
 <g id="figure_1">
  <g id="patch_1">
   <path d="M 0 240.944882 
L 240.944882 240.944882 
L 240.944882 0 
L 0 0 
L 0 240.944882 
z
" style="fill: none"/>
  </g>
  <g id="axes_1">
   <g id="patch_2">
    <path d="M 64.037638 183.896063 
L 227.984882 183.896063 
L 227.984882 19.948819 
L 64.037638 19.948819 
L 64.037638 183.896063 
z
" style="fill: none"/>
   </g>
   <g id="PathCollection_1">
    <path d="M 169.271983 88.069666 
L 171.071983 85.069666 
L 169.271983 82.069666 
L 167.471983 85.069666 
z
" clip-path="url(#pccabce94b8)" style="fill: #332288; fill-opacity: 0.6; stroke: #ffffff; stroke-opacity: 0.6; stroke-width: 0.339411"/>
    <path d="M 77.494802 115.576025 
L 79.294802 112.576025 
L 77.494802 109.576025 
L 75.694802 112.576025 
z
" clip-path="url(#pccabce94b8)" style="fill: #332288; fill-opacity: 0.6; stroke: #ffffff; stroke-opacity: 0.6; stroke-width: 0.339411"/>
    <path d="M 89.352402 97.666647 
L 91.152402 94.666647 
L 89.352402 91.666647 
L 87.552402 94.666647 
z
" clip-path="url(#pccabce94b8)" style="fill: #332288; fill-opacity: 0.6; stroke: #ffffff; stroke-opacity: 0.6; stroke-width: 0.339411"/>
    <path d="M 91.202799 91.389587 
L 93.002799 88.389587 
L 91.202799 85.389587 
L 89.402799 88.389587 
z
" clip-path="url(#pccabce94b8)" style="fill: #332288; fill-opacity: 0.6; stroke: #ffffff; stroke-opacity: 0.6; stroke-width: 0.339411"/>
    <path d="M 78.51336 119.028619 
L 80.31336 116.028619 
L 78.51336 113.028619 
L 76.71336 116.028619 
z
" clip-path="url(#pccabce94b8)" style="fill: #332288; fill-opacity: 0.6; stroke: #ffffff; stroke-opacity: 0.6; stroke-width: 0.339411"/>
    <path d="M 162.824409 100.939355 
L 164.624409 97.939355 
L 162.824409 94.939355 
L 161.024409 97.939355 
z
" clip-path="url(#pccabce94b8)" style="fill: #332288; fill-opacity: 0.6; stroke: #ffffff; stroke-opacity: 0.6; stroke-width: 0.339411"/>
    <path d="M 91.525063 94.933226 
L 93.325063 91.933226 
L 91.525063 88.933226 
L 89.725063 91.933226 
z
" clip-path="url(#pccabce94b8)" style="fill: #332288; fill-opacity: 0.6; stroke: #ffffff; stroke-opacity: 0.6; stroke-width: 0.339411"/>
    <path d="M 161.785636 100.596567 
L 163.585636 97.596567 
L 161.785636 94.596567 
L 159.985636 97.596567 
z
" clip-path="url(#pccabce94b8)" style="fill: #332288; fill-opacity: 0.6; stroke: #ffffff; stroke-opacity: 0.6; stroke-width: 0.339411"/>
    <path d="M 77.954525 119.127383 
L 79.754525 116.127383 
L 77.954525 113.127383 
L 76.154525 116.127383 
z
" clip-path="url(#pccabce94b8)" style="fill: #332288; fill-opacity: 0.6; stroke: #ffffff; stroke-opacity: 0.6; stroke-width: 0.339411"/>
    <path d="M 93.573705 88.53103 
L 95.373705 85.53103 
L 93.573705 82.53103 
L 91.773705 85.53103 
z
" clip-path="url(#pccabce94b8)" style="fill: #332288; fill-opacity: 0.6; stroke: #ffffff; stroke-opacity: 0.6; stroke-width: 0.339411"/>
    <path d="M 77.156294 116.505292 
L 78.956294 113.505292 
L 77.156294 110.505292 
L 75.356294 113.505292 
z
" clip-path="url(#pccabce94b8)" style="fill: #332288; fill-opacity: 0.6; stroke: #ffffff; stroke-opacity: 0.6; stroke-width: 0.339411"/>
    <path d="M 87.801511 90.167189 
L 89.601511 87.167189 
L 87.801511 84.167189 
L 86.001511 87.167189 
z
" clip-path="url(#pccabce94b8)" style="fill: #332288; fill-opacity: 0.6; stroke: #ffffff; stroke-opacity: 0.6; stroke-width: 0.339411"/>
    <path d="M 168.779305 83.697963 
L 170.579305 80.697963 
L 168.779305 77.697963 
L 166.979305 80.697963 
z
" clip-path="url(#pccabce94b8)" style="fill: #332288; fill-opacity: 0.6; stroke: #ffffff; stroke-opacity: 0.6; stroke-width: 0.339411"/>
    <path d="M 78.931706 114.430809 
L 80.731706 111.430809 
L 78.931706 108.430809 
L 77.131706 111.430809 
z
" clip-path="url(#pccabce94b8)" style="fill: #332288; fill-opacity: 0.6; stroke: #ffffff; stroke-opacity: 0.6; stroke-width: 0.339411"/>
    <path d="M 88.749953 94.295699 
L 90.549953 91.295699 
L 88.749953 88.295699 
L 86.949953 91.295699 
z
" clip-path="url(#pccabce94b8)" style="fill: #332288; fill-opacity: 0.6; stroke: #ffffff; stroke-opacity: 0.6; stroke-width: 0.339411"/>
    <path d="M 163.088324 100.158882 
L 164.888324 97.158882 
L 163.088324 94.158882 
L 161.288324 97.158882 
z
" clip-path="url(#pccabce94b8)" style="fill: #332288; fill-opacity: 0.6; stroke: #ffffff; stroke-opacity: 0.6; stroke-width: 0.339411"/>
    <path d="M 78.792751 117.676272 
L 80.592751 114.676272 
L 78.792751 111.676272 
L 76.992751 114.676272 
z
" clip-path="url(#pccabce94b8)" style="fill: #332288; fill-opacity: 0.6; stroke: #ffffff; stroke-opacity: 0.6; stroke-width: 0.339411"/>
    <path d="M 82.935048 114.120023 
L 84.735048 111.120023 
L 82.935048 108.120023 
L 81.135048 111.120023 
z
" clip-path="url(#pccabce94b8)" style="fill: #332288; fill-opacity: 0.6; stroke: #ffffff; stroke-opacity: 0.6; stroke-width: 0.339411"/>
    <path d="M 88.000442 98.55106 
L 89.800442 95.55106 
L 88.000442 92.55106 
L 86.200442 95.55106 
z
" clip-path="url(#pccabce94b8)" style="fill: #332288; fill-opacity: 0.6; stroke: #ffffff; stroke-opacity: 0.6; stroke-width: 0.339411"/>
    <path d="M 90.829529 97.546056 
L 92.629529 94.546056 
L 90.829529 91.546056 
L 89.029529 94.546056 
z
" clip-path="url(#pccabce94b8)" style="fill: #332288; fill-opacity: 0.6; stroke: #ffffff; stroke-opacity: 0.6; stroke-width: 0.339411"/>
    <path d="M 90.35706 96.514376 
L 92.15706 93.514376 
L 90.35706 90.514376 
L 88.55706 93.514376 
z
" clip-path="url(#pccabce94b8)" style="fill: #332288; fill-opacity: 0.6; stroke: #ffffff; stroke-opacity: 0.6; stroke-width: 0.339411"/>
    <path d="M 79.4299 114.472345 
L 81.2299 111.472345 
L 79.4299 108.472345 
L 77.6299 111.472345 
z
" clip-path="url(#pccabce94b8)" style="fill: #332288; fill-opacity: 0.6; stroke: #ffffff; stroke-opacity: 0.6; stroke-width: 0.339411"/>
    <path d="M 91.818174 92.309491 
L 93.618174 89.309491 
L 91.818174 86.309491 
L 90.018174 89.309491 
z
" clip-path="url(#pccabce94b8)" style="fill: #332288; fill-opacity: 0.6; stroke: #ffffff; stroke-opacity: 0.6; stroke-width: 0.339411"/>
    <path d="M 92.882376 86.8718 
L 94.682376 83.8718 
L 92.882376 80.8718 
L 91.082376 83.8718 
z
" clip-path="url(#pccabce94b8)" style="fill: #332288; fill-opacity: 0.6; stroke: #ffffff; stroke-opacity: 0.6; stroke-width: 0.339411"/>
    <path d="M 93.739089 88.223881 
L 95.539089 85.223881 
L 93.739089 82.223881 
L 91.939089 85.223881 
z
" clip-path="url(#pccabce94b8)" style="fill: #332288; fill-opacity: 0.6; stroke: #ffffff; stroke-opacity: 0.6; stroke-width: 0.339411"/>
    <path d="M 81.397323 116.108856 
L 83.197323 113.108856 
L 81.397323 110.108856 
L 79.597323 113.108856 
z
" clip-path="url(#pccabce94b8)" style="fill: #332288; fill-opacity: 0.6; stroke: #ffffff; stroke-opacity: 0.6; stroke-width: 0.339411"/>
    <path d="M 76.977045 120.236256 
L 78.777045 117.236256 
L 76.977045 114.236256 
L 75.177045 117.236256 
z
" clip-path="url(#pccabce94b8)" style="fill: #332288; fill-opacity: 0.6; stroke: #ffffff; stroke-opacity: 0.6; stroke-width: 0.339411"/>
    <path d="M 173.230353 77.280918 
L 175.030353 74.280918 
L 173.230353 71.280918 
L 171.430353 74.280918 
z
" clip-path="url(#pccabce94b8)" style="fill: #332288; fill-opacity: 0.6; stroke: #ffffff; stroke-opacity: 0.6; stroke-width: 0.339411"/>
    <path d="M 90.650357 97.746703 
L 92.450357 94.746703 
L 90.650357 91.746703 
L 88.850357 94.746703 
z
" clip-path="url(#pccabce94b8)" style="fill: #332288; fill-opacity: 0.6; stroke: #ffffff; stroke-opacity: 0.6; stroke-width: 0.339411"/>
    <path d="M 169.800321 88.024236 
L 171.600321 85.024236 
L 169.800321 82.024236 
L 168.000321 85.024236 
z
" clip-path="url(#pccabce94b8)" style="fill: #332288; fill-opacity: 0.6; stroke: #ffffff; stroke-opacity: 0.6; stroke-width: 0.339411"/>
    <path d="M 82.425129 114.225863 
L 84.225129 111.225863 
L 82.425129 108.225863 
L 80.625129 111.225863 
z
" clip-path="url(#pccabce94b8)" style="fill: #332288; fill-opacity: 0.6; stroke: #ffffff; stroke-opacity: 0.6; stroke-width: 0.339411"/>
    <path d="M 89.671826 89.366786 
L 91.471826 86.366786 
L 89.671826 83.366786 
L 87.871826 86.366786 
z
" clip-path="url(#pccabce94b8)" style="fill: #332288; fill-opacity: 0.6; stroke: #ffffff; stroke-opacity: 0.6; stroke-width: 0.339411"/>
    <path d="M 170.296531 83.990634 
L 172.096531 80.990634 
L 170.296531 77.990634 
L 168.496531 80.990634 
z
" clip-path="url(#pccabce94b8)" style="fill: #332288; fill-opacity: 0.6; stroke: #ffffff; stroke-opacity: 0.6; stroke-width: 0.339411"/>
    <path d="M 83.754887 113.593182 
L 85.554887 110.593182 
L 83.754887 107.593182 
L 81.954887 110.593182 
z
" clip-path="url(#pccabce94b8)" style="fill: #332288; fill-opacity: 0.6; stroke: #ffffff; stroke-opacity: 0.6; stroke-width: 0.339411"/>
    <path d="M 93.520432 86.139795 
L 95.320432 83.139795 
L 93.520432 80.139795 
L 91.720432 83.139795 
z
" clip-path="url(#pccabce94b8)" style="fill: #332288; fill-opacity: 0.6; stroke: #ffffff; stroke-opacity: 0.6; stroke-width: 0.339411"/>
    <path d="M 80.511923 116.174729 
L 82.311923 113.174729 
L 80.511923 110.174729 
L 78.711923 113.174729 
z
" clip-path="url(#pccabce94b8)" style="fill: #332288; fill-opacity: 0.6; stroke: #ffffff; stroke-opacity: 0.6; stroke-width: 0.339411"/>
    <path d="M 81.954775 112.980388 
L 83.754775 109.980388 
L 81.954775 106.980388 
L 80.154775 109.980388 
z
" clip-path="url(#pccabce94b8)" style="fill: #332288; fill-opacity: 0.6; stroke: #ffffff; stroke-opacity: 0.6; stroke-width: 0.339411"/>
    <path d="M 169.411703 84.819628 
L 171.211703 81.819628 
L 169.411703 78.819628 
L 167.611703 81.819628 
z
" clip-path="url(#pccabce94b8)" style="fill: #332288; fill-opacity: 0.6; stroke: #ffffff; stroke-opacity: 0.6; stroke-width: 0.339411"/>
    <path d="M 75.707993 119.237511 
L 77.507993 116.237511 
L 75.707993 113.237511 
L 73.907993 116.237511 
z
" clip-path="url(#pccabce94b8)" style="fill: #332288; fill-opacity: 0.6; stroke: #ffffff; stroke-opacity: 0.6; stroke-width: 0.339411"/>
    <path d="M 94.890298 89.464531 
L 96.690298 86.464531 
L 94.890298 83.464531 
L 93.090298 86.464531 
z
" clip-path="url(#pccabce94b8)" style="fill: #332288; fill-opacity: 0.6; stroke: #ffffff; stroke-opacity: 0.6; stroke-width: 0.339411"/>
    <path d="M 95.33833 87.373312 
L 97.13833 84.373312 
L 95.33833 81.373312 
L 93.53833 84.373312 
z
" clip-path="url(#pccabce94b8)" style="fill: #332288; fill-opacity: 0.6; stroke: #ffffff; stroke-opacity: 0.6; stroke-width: 0.339411"/>
    <path d="M 82.914901 113.919746 
L 84.714901 110.919746 
L 82.914901 107.919746 
L 81.114901 110.919746 
z
" clip-path="url(#pccabce94b8)" style="fill: #332288; fill-opacity: 0.6; stroke: #ffffff; stroke-opacity: 0.6; stroke-width: 0.339411"/>
    <path d="M 93.031237 86.573364 
L 94.831237 83.573364 
L 93.031237 80.573364 
L 91.231237 83.573364 
z
" clip-path="url(#pccabce94b8)" style="fill: #332288; fill-opacity: 0.6; stroke: #ffffff; stroke-opacity: 0.6; stroke-width: 0.339411"/>
    <path d="M 76.485083 119.399905 
L 78.285083 116.399905 
L 76.485083 113.399905 
L 74.685083 116.399905 
z
" clip-path="url(#pccabce94b8)" style="fill: #332288; fill-opacity: 0.6; stroke: #ffffff; stroke-opacity: 0.6; stroke-width: 0.339411"/>
    <path d="M 79.170321 117.842772 
L 80.970321 114.842772 
L 79.170321 111.842772 
L 77.370321 114.842772 
z
" clip-path="url(#pccabce94b8)" style="fill: #332288; fill-opacity: 0.6; stroke: #ffffff; stroke-opacity: 0.6; stroke-width: 0.339411"/>
    <path d="M 77.454746 118.450505 
L 79.254746 115.450505 
L 77.454746 112.450505 
L 75.654746 115.450505 
z
" clip-path="url(#pccabce94b8)" style="fill: #332288; fill-opacity: 0.6; stroke: #ffffff; stroke-opacity: 0.6; stroke-width: 0.339411"/>
    <path d="M 170.307465 87.283895 
L 172.107465 84.283895 
L 170.307465 81.283895 
L 168.507465 84.283895 
z
" clip-path="url(#pccabce94b8)" style="fill: #332288; fill-opacity: 0.6; stroke: #ffffff; stroke-opacity: 0.6; stroke-width: 0.339411"/>
    <path d="M 92.442514 91.542386 
L 94.242514 88.542386 
L 92.442514 85.542386 
L 90.642514 88.542386 
z
" clip-path="url(#pccabce94b8)" style="fill: #332288; fill-opacity: 0.6; stroke: #ffffff; stroke-opacity: 0.6; stroke-width: 0.339411"/>
    <path d="M 92.114476 87.540839 
L 93.914476 84.540839 
L 92.114476 81.540839 
L 90.314476 84.540839 
z
" clip-path="url(#pccabce94b8)" style="fill: #332288; fill-opacity: 0.6; stroke: #ffffff; stroke-opacity: 0.6; stroke-width: 0.339411"/>
    <path d="M 88.989612 96.703871 
L 90.789612 93.703871 
L 88.989612 90.703871 
L 87.189612 93.703871 
z
" clip-path="url(#pccabce94b8)" style="fill: #332288; fill-opacity: 0.6; stroke: #ffffff; stroke-opacity: 0.6; stroke-width: 0.339411"/>
    <path d="M 161.140192 99.288718 
L 162.940192 96.288718 
L 161.140192 93.288718 
L 159.340192 96.288718 
z
" clip-path="url(#pccabce94b8)" style="fill: #332288; fill-opacity: 0.6; stroke: #ffffff; stroke-opacity: 0.6; stroke-width: 0.339411"/>
    <path d="M 91.577315 91.146752 
L 93.377315 88.146752 
L 91.577315 85.146752 
L 89.777315 88.146752 
z
" clip-path="url(#pccabce94b8)" style="fill: #332288; fill-opacity: 0.6; stroke: #ffffff; stroke-opacity: 0.6; stroke-width: 0.339411"/>
    <path d="M 96.146674 88.128992 
L 97.946674 85.128992 
L 96.146674 82.128992 
L 94.346674 85.128992 
z
" clip-path="url(#pccabce94b8)" style="fill: #332288; fill-opacity: 0.6; stroke: #ffffff; stroke-opacity: 0.6; stroke-width: 0.339411"/>
    <path d="M 89.383137 94.388625 
L 91.183137 91.388625 
L 89.383137 88.388625 
L 87.583137 91.388625 
z
" clip-path="url(#pccabce94b8)" style="fill: #332288; fill-opacity: 0.6; stroke: #ffffff; stroke-opacity: 0.6; stroke-width: 0.339411"/>
    <path d="M 77.90705 116.219885 
L 79.70705 113.219885 
L 77.90705 110.219885 
L 76.10705 113.219885 
z
" clip-path="url(#pccabce94b8)" style="fill: #332288; fill-opacity: 0.6; stroke: #ffffff; stroke-opacity: 0.6; stroke-width: 0.339411"/>
    <path d="M 169.589858 84.480074 
L 171.389858 81.480074 
L 169.589858 78.480074 
L 167.789858 81.480074 
z
" clip-path="url(#pccabce94b8)" style="fill: #332288; fill-opacity: 0.6; stroke: #ffffff; stroke-opacity: 0.6; stroke-width: 0.339411"/>
    <path d="M 92.488969 87.970019 
L 94.288969 84.970019 
L 92.488969 81.970019 
L 90.688969 84.970019 
z
" clip-path="url(#pccabce94b8)" style="fill: #332288; fill-opacity: 0.6; stroke: #ffffff; stroke-opacity: 0.6; stroke-width: 0.339411"/>
    <path d="M 77.14919 119.911543 
L 78.94919 116.911543 
L 77.14919 113.911543 
L 75.34919 116.911543 
z
" clip-path="url(#pccabce94b8)" style="fill: #332288; fill-opacity: 0.6; stroke: #ffffff; stroke-opacity: 0.6; stroke-width: 0.339411"/>
    <path d="M 80.854317 116.545143 
L 82.654317 113.545143 
L 80.854317 110.545143 
L 79.054317 113.545143 
z
" clip-path="url(#pccabce94b8)" style="fill: #332288; fill-opacity: 0.6; stroke: #ffffff; stroke-opacity: 0.6; stroke-width: 0.339411"/>
    <path d="M 89.203132 97.502894 
L 91.003132 94.502894 
L 89.203132 91.502894 
L 87.403132 94.502894 
z
" clip-path="url(#pccabce94b8)" style="fill: #332288; fill-opacity: 0.6; stroke: #ffffff; stroke-opacity: 0.6; stroke-width: 0.339411"/>
    <path d="M 93.528234 89.830174 
L 95.328234 86.830174 
L 93.528234 83.830174 
L 91.728234 86.830174 
z
" clip-path="url(#pccabce94b8)" style="fill: #332288; fill-opacity: 0.6; stroke: #ffffff; stroke-opacity: 0.6; stroke-width: 0.339411"/>
    <path d="M 90.326951 94.084903 
L 92.126951 91.084903 
L 90.326951 88.084903 
L 88.526951 91.084903 
z
" clip-path="url(#pccabce94b8)" style="fill: #332288; fill-opacity: 0.6; stroke: #ffffff; stroke-opacity: 0.6; stroke-width: 0.339411"/>
    <path d="M 167.366293 81.39948 
L 169.166293 78.39948 
L 167.366293 75.39948 
L 165.566293 78.39948 
z
" clip-path="url(#pccabce94b8)" style="fill: #332288; fill-opacity: 0.6; stroke: #ffffff; stroke-opacity: 0.6; stroke-width: 0.339411"/>
    <path d="M 91.608068 96.039994 
L 93.408068 93.039994 
L 91.608068 90.039994 
L 89.808068 93.039994 
z
" clip-path="url(#pccabce94b8)" style="fill: #332288; fill-opacity: 0.6; stroke: #ffffff; stroke-opacity: 0.6; stroke-width: 0.339411"/>
    <path d="M 175.10538 74.026386 
L 172.98406 78.269027 
L 177.2267 78.269027 
z
" clip-path="url(#pccabce94b8)" style="fill: #117733; fill-opacity: 0.6; stroke: #ffffff; stroke-opacity: 0.6; stroke-width: 0.339411"/>
    <path d="M 172.672946 107.221226 
L 170.551625 111.463867 
L 174.794266 111.463867 
z
" clip-path="url(#pccabce94b8)" style="fill: #117733; fill-opacity: 0.6; stroke: #ffffff; stroke-opacity: 0.6; stroke-width: 0.339411"/>
    <path d="M 170.990298 89.354316 
L 168.868978 93.596957 
L 173.111618 93.596957 
z
" clip-path="url(#pccabce94b8)" style="fill: #117733; fill-opacity: 0.6; stroke: #ffffff; stroke-opacity: 0.6; stroke-width: 0.339411"/>
    <path d="M 174.760854 73.286412 
L 172.639533 77.529052 
L 176.882174 77.529052 
z
" clip-path="url(#pccabce94b8)" style="fill: #117733; fill-opacity: 0.6; stroke: #ffffff; stroke-opacity: 0.6; stroke-width: 0.339411"/>
    <path d="M 168.858464 73.844104 
L 166.737144 78.086745 
L 170.979784 78.086745 
z
" clip-path="url(#pccabce94b8)" style="fill: #117733; fill-opacity: 0.6; stroke: #ffffff; stroke-opacity: 0.6; stroke-width: 0.339411"/>
    <path d="M 176.393529 106.273285 
L 174.272208 110.515926 
L 178.514849 110.515926 
z
" clip-path="url(#pccabce94b8)" style="fill: #117733; fill-opacity: 0.6; stroke: #ffffff; stroke-opacity: 0.6; stroke-width: 0.339411"/>
    <path d="M 170.389086 75.947573 
L 168.267766 80.190213 
L 172.510406 80.190213 
z
" clip-path="url(#pccabce94b8)" style="fill: #117733; fill-opacity: 0.6; stroke: #ffffff; stroke-opacity: 0.6; stroke-width: 0.339411"/>
    <path d="M 176.223553 107.927831 
L 174.102232 112.170472 
L 178.344873 112.170472 
z
" clip-path="url(#pccabce94b8)" style="fill: #117733; fill-opacity: 0.6; stroke: #ffffff; stroke-opacity: 0.6; stroke-width: 0.339411"/>
    <path d="M 89.392579 82.680657 
L 87.271259 86.923298 
L 91.5139 86.923298 
z
" clip-path="url(#pccabce94b8)" style="fill: #117733; fill-opacity: 0.6; stroke: #ffffff; stroke-opacity: 0.6; stroke-width: 0.339411"/>
    <path d="M 173.352448 97.701102 
L 171.231128 101.943742 
L 175.473768 101.943742 
z
" clip-path="url(#pccabce94b8)" style="fill: #117733; fill-opacity: 0.6; stroke: #ffffff; stroke-opacity: 0.6; stroke-width: 0.339411"/>
    <path d="M 177.689792 95.966202 
L 175.568471 100.208843 
L 179.811112 100.208843 
z
" clip-path="url(#pccabce94b8)" style="fill: #117733; fill-opacity: 0.6; stroke: #ffffff; stroke-opacity: 0.6; stroke-width: 0.339411"/>
    <path d="M 172.591961 75.16298 
L 170.47064 79.405621 
L 174.713281 79.405621 
z
" clip-path="url(#pccabce94b8)" style="fill: #117733; fill-opacity: 0.6; stroke: #ffffff; stroke-opacity: 0.6; stroke-width: 0.339411"/>
    <path d="M 173.229464 107.508863 
L 171.108143 111.751503 
L 175.350784 111.751503 
z
" clip-path="url(#pccabce94b8)" style="fill: #117733; fill-opacity: 0.6; stroke: #ffffff; stroke-opacity: 0.6; stroke-width: 0.339411"/>
    <path d="M 173.345931 97.908071 
L 171.224611 102.150711 
L 175.467251 102.150711 
z
" clip-path="url(#pccabce94b8)" style="fill: #117733; fill-opacity: 0.6; stroke: #ffffff; stroke-opacity: 0.6; stroke-width: 0.339411"/>
    <path d="M 159.699293 96.314679 
L 157.577973 100.55732 
L 161.820614 100.55732 
z
" clip-path="url(#pccabce94b8)" style="fill: #117733; fill-opacity: 0.6; stroke: #ffffff; stroke-opacity: 0.6; stroke-width: 0.339411"/>
    <path d="M 170.117817 89.180707 
L 167.996497 93.423348 
L 172.239137 93.423348 
z
" clip-path="url(#pccabce94b8)" style="fill: #117733; fill-opacity: 0.6; stroke: #ffffff; stroke-opacity: 0.6; stroke-width: 0.339411"/>
    <path d="M 171.12715 75.495325 
L 169.005829 79.737965 
L 173.24847 79.737965 
z
" clip-path="url(#pccabce94b8)" style="fill: #117733; fill-opacity: 0.6; stroke: #ffffff; stroke-opacity: 0.6; stroke-width: 0.339411"/>
    <path d="M 164.725336 95.325493 
L 162.604015 99.568134 
L 166.846656 99.568134 
z
" clip-path="url(#pccabce94b8)" style="fill: #117733; fill-opacity: 0.6; stroke: #ffffff; stroke-opacity: 0.6; stroke-width: 0.339411"/>
    <path d="M 169.550132 71.310156 
L 167.428811 75.552796 
L 171.671452 75.552796 
z
" clip-path="url(#pccabce94b8)" style="fill: #117733; fill-opacity: 0.6; stroke: #ffffff; stroke-opacity: 0.6; stroke-width: 0.339411"/>
    <path d="M 175.441651 105.367116 
L 173.320331 109.609757 
L 177.562972 109.609757 
z
" clip-path="url(#pccabce94b8)" style="fill: #117733; fill-opacity: 0.6; stroke: #ffffff; stroke-opacity: 0.6; stroke-width: 0.339411"/>
    <path d="M 172.488282 95.175813 
L 170.366962 99.418453 
L 174.609602 99.418453 
z
" clip-path="url(#pccabce94b8)" style="fill: #117733; fill-opacity: 0.6; stroke: #ffffff; stroke-opacity: 0.6; stroke-width: 0.339411"/>
    <path d="M 168.913027 93.571326 
L 166.791707 97.813967 
L 171.034347 97.813967 
z
" clip-path="url(#pccabce94b8)" style="fill: #117733; fill-opacity: 0.6; stroke: #ffffff; stroke-opacity: 0.6; stroke-width: 0.339411"/>
    <path d="M 170.481999 71.811817 
L 168.360679 76.054458 
L 172.603319 76.054458 
z
" clip-path="url(#pccabce94b8)" style="fill: #117733; fill-opacity: 0.6; stroke: #ffffff; stroke-opacity: 0.6; stroke-width: 0.339411"/>
    <path d="M 165.588242 94.079179 
L 163.466922 98.321819 
L 167.709563 98.321819 
z
" clip-path="url(#pccabce94b8)" style="fill: #117733; fill-opacity: 0.6; stroke: #ffffff; stroke-opacity: 0.6; stroke-width: 0.339411"/>
    <path d="M 175.842567 107.609971 
L 173.721246 111.852611 
L 177.963887 111.852611 
z
" clip-path="url(#pccabce94b8)" style="fill: #117733; fill-opacity: 0.6; stroke: #ffffff; stroke-opacity: 0.6; stroke-width: 0.339411"/>
    <path d="M 88.4326 84.500651 
L 86.311279 88.743292 
L 90.55392 88.743292 
z
" clip-path="url(#pccabce94b8)" style="fill: #117733; fill-opacity: 0.6; stroke: #ffffff; stroke-opacity: 0.6; stroke-width: 0.339411"/>
    <path d="M 165.08282 93.686973 
L 162.961499 97.929614 
L 167.20414 97.929614 
z
" clip-path="url(#pccabce94b8)" style="fill: #117733; fill-opacity: 0.6; stroke: #ffffff; stroke-opacity: 0.6; stroke-width: 0.339411"/>
    <path d="M 194.793294 93.615273 
L 192.671974 97.857913 
L 196.914615 97.857913 
z
" clip-path="url(#pccabce94b8)" style="fill: #117733; fill-opacity: 0.6; stroke: #ffffff; stroke-opacity: 0.6; stroke-width: 0.339411"/>
    <path d="M 172.328315 72.839563 
L 170.206995 77.082203 
L 174.449635 77.082203 
z
" clip-path="url(#pccabce94b8)" style="fill: #117733; fill-opacity: 0.6; stroke: #ffffff; stroke-opacity: 0.6; stroke-width: 0.339411"/>
    <path d="M 176.542312 108.806065 
L 174.420992 113.048706 
L 178.663632 113.048706 
z
" clip-path="url(#pccabce94b8)" style="fill: #117733; fill-opacity: 0.6; stroke: #ffffff; stroke-opacity: 0.6; stroke-width: 0.339411"/>
    <path d="M 170.136584 94.410997 
L 168.015263 98.653637 
L 172.257904 98.653637 
z
" clip-path="url(#pccabce94b8)" style="fill: #117733; fill-opacity: 0.6; stroke: #ffffff; stroke-opacity: 0.6; stroke-width: 0.339411"/>
    <path d="M 160.74906 96.643037 
L 158.62774 100.885678 
L 162.870381 100.885678 
z
" clip-path="url(#pccabce94b8)" style="fill: #117733; fill-opacity: 0.6; stroke: #ffffff; stroke-opacity: 0.6; stroke-width: 0.339411"/>
    <path d="M 175.050886 108.648958 
L 172.929565 112.891599 
L 177.172206 112.891599 
z
" clip-path="url(#pccabce94b8)" style="fill: #117733; fill-opacity: 0.6; stroke: #ffffff; stroke-opacity: 0.6; stroke-width: 0.339411"/>
    <path d="M 173.57477 93.943156 
L 171.45345 98.185797 
L 175.696091 98.185797 
z
" clip-path="url(#pccabce94b8)" style="fill: #117733; fill-opacity: 0.6; stroke: #ffffff; stroke-opacity: 0.6; stroke-width: 0.339411"/>
    <path d="M 168.049754 74.877751 
L 165.928434 79.120392 
L 170.171074 79.120392 
z
" clip-path="url(#pccabce94b8)" style="fill: #117733; fill-opacity: 0.6; stroke: #ffffff; stroke-opacity: 0.6; stroke-width: 0.339411"/>
    <path d="M 173.561917 106.821884 
L 171.440597 111.064525 
L 175.683237 111.064525 
z
" clip-path="url(#pccabce94b8)" style="fill: #117733; fill-opacity: 0.6; stroke: #ffffff; stroke-opacity: 0.6; stroke-width: 0.339411"/>
    <path d="M 172.978687 74.529029 
L 170.857367 78.77167 
L 175.100008 78.77167 
z
" clip-path="url(#pccabce94b8)" style="fill: #117733; fill-opacity: 0.6; stroke: #ffffff; stroke-opacity: 0.6; stroke-width: 0.339411"/>
    <path d="M 173.579002 96.492158 
L 171.457682 100.734799 
L 175.700323 100.734799 
z
" clip-path="url(#pccabce94b8)" style="fill: #117733; fill-opacity: 0.6; stroke: #ffffff; stroke-opacity: 0.6; stroke-width: 0.339411"/>
    <path d="M 170.866417 76.319459 
L 168.745096 80.562099 
L 172.987737 80.562099 
z
" clip-path="url(#pccabce94b8)" style="fill: #117733; fill-opacity: 0.6; stroke: #ffffff; stroke-opacity: 0.6; stroke-width: 0.339411"/>
    <path d="M 186.103271 102.249431 
L 183.981951 106.492072 
L 188.224592 106.492072 
z
" clip-path="url(#pccabce94b8)" style="fill: #117733; fill-opacity: 0.6; stroke: #ffffff; stroke-opacity: 0.6; stroke-width: 0.339411"/>
    <path d="M 174.640074 93.986483 
L 172.518753 98.229124 
L 176.761394 98.229124 
z
" clip-path="url(#pccabce94b8)" style="fill: #117733; fill-opacity: 0.6; stroke: #ffffff; stroke-opacity: 0.6; stroke-width: 0.339411"/>
    <path d="M 173.637335 95.84214 
L 171.516014 100.084781 
L 175.758655 100.084781 
z
" clip-path="url(#pccabce94b8)" style="fill: #117733; fill-opacity: 0.6; stroke: #ffffff; stroke-opacity: 0.6; stroke-width: 0.339411"/>
    <path d="M 194.096815 93.115156 
L 191.975495 97.357797 
L 196.218136 97.357797 
z
" clip-path="url(#pccabce94b8)" style="fill: #117733; fill-opacity: 0.6; stroke: #ffffff; stroke-opacity: 0.6; stroke-width: 0.339411"/>
    <path d="M 163.518916 97.088306 
L 161.397596 101.330946 
L 165.640237 101.330946 
z
" clip-path="url(#pccabce94b8)" style="fill: #117733; fill-opacity: 0.6; stroke: #ffffff; stroke-opacity: 0.6; stroke-width: 0.339411"/>
    <path d="M 186.867247 101.467403 
L 184.745926 105.710044 
L 188.988567 105.710044 
z
" clip-path="url(#pccabce94b8)" style="fill: #117733; fill-opacity: 0.6; stroke: #ffffff; stroke-opacity: 0.6; stroke-width: 0.339411"/>
    <path d="M 171.256559 73.955672 
L 169.135238 78.198312 
L 173.377879 78.198312 
z
" clip-path="url(#pccabce94b8)" style="fill: #117733; fill-opacity: 0.6; stroke: #ffffff; stroke-opacity: 0.6; stroke-width: 0.339411"/>
    <path d="M 188.804159 103.069263 
L 186.682838 107.311903 
L 190.925479 107.311903 
z
" clip-path="url(#pccabce94b8)" style="fill: #117733; fill-opacity: 0.6; stroke: #ffffff; stroke-opacity: 0.6; stroke-width: 0.339411"/>
    <path d="M 172.544816 76.373072 
L 170.423496 80.615713 
L 174.666136 80.615713 
z
" clip-path="url(#pccabce94b8)" style="fill: #117733; fill-opacity: 0.6; stroke: #ffffff; stroke-opacity: 0.6; stroke-width: 0.339411"/>
    <path d="M 164.852745 94.740811 
L 162.731425 98.983452 
L 166.974066 98.983452 
z
" clip-path="url(#pccabce94b8)" style="fill: #117733; fill-opacity: 0.6; stroke: #ffffff; stroke-opacity: 0.6; stroke-width: 0.339411"/>
    <path d="M 171.782667 73.289047 
L 169.661347 77.531687 
L 173.903988 77.531687 
z
" clip-path="url(#pccabce94b8)" style="fill: #117733; fill-opacity: 0.6; stroke: #ffffff; stroke-opacity: 0.6; stroke-width: 0.339411"/>
    <path d="M 170.67149 73.121496 
L 168.55017 77.364137 
L 172.792811 77.364137 
z
" clip-path="url(#pccabce94b8)" style="fill: #117733; fill-opacity: 0.6; stroke: #ffffff; stroke-opacity: 0.6; stroke-width: 0.339411"/>
    <path d="M 169.897993 74.968907 
L 167.776672 79.211547 
L 172.019313 79.211547 
z
" clip-path="url(#pccabce94b8)" style="fill: #117733; fill-opacity: 0.6; stroke: #ffffff; stroke-opacity: 0.6; stroke-width: 0.339411"/>
    <path d="M 186.375542 103.772548 
L 184.254222 108.015189 
L 188.496863 108.015189 
z
" clip-path="url(#pccabce94b8)" style="fill: #117733; fill-opacity: 0.6; stroke: #ffffff; stroke-opacity: 0.6; stroke-width: 0.339411"/>
    <path d="M 170.737028 71.203187 
L 168.615707 75.445827 
L 172.858348 75.445827 
z
" clip-path="url(#pccabce94b8)" style="fill: #117733; fill-opacity: 0.6; stroke: #ffffff; stroke-opacity: 0.6; stroke-width: 0.339411"/>
    <path d="M 84.916948 38.803753 
L 82.795627 43.046393 
L 87.038268 43.046393 
z
" clip-path="url(#pccabce94b8)" style="fill: #117733; fill-opacity: 0.6; stroke: #ffffff; stroke-opacity: 0.6; stroke-width: 0.339411"/>
    <path d="M 171.783894 74.72295 
L 169.662574 78.96559 
L 173.905214 78.96559 
z
" clip-path="url(#pccabce94b8)" style="fill: #117733; fill-opacity: 0.6; stroke: #ffffff; stroke-opacity: 0.6; stroke-width: 0.339411"/>
    <path d="M 175.096795 108.10772 
L 172.975475 112.35036 
L 177.218115 112.35036 
z
" clip-path="url(#pccabce94b8)" style="fill: #117733; fill-opacity: 0.6; stroke: #ffffff; stroke-opacity: 0.6; stroke-width: 0.339411"/>
    <path d="M 175.126054 106.205109 
L 173.004733 110.44775 
L 177.247374 110.44775 
z
" clip-path="url(#pccabce94b8)" style="fill: #117733; fill-opacity: 0.6; stroke: #ffffff; stroke-opacity: 0.6; stroke-width: 0.339411"/>
    <path d="M 174.993394 92.371714 
L 172.872074 96.614354 
L 177.114714 96.614354 
z
" clip-path="url(#pccabce94b8)" style="fill: #117733; fill-opacity: 0.6; stroke: #ffffff; stroke-opacity: 0.6; stroke-width: 0.339411"/>
    <path d="M 172.569895 96.810282 
L 170.448575 101.052923 
L 174.691215 101.052923 
z
" clip-path="url(#pccabce94b8)" style="fill: #117733; fill-opacity: 0.6; stroke: #ffffff; stroke-opacity: 0.6; stroke-width: 0.339411"/>
    <path d="M 177.279483 104.951767 
L 175.158162 109.194407 
L 179.400803 109.194407 
z
" clip-path="url(#pccabce94b8)" style="fill: #117733; fill-opacity: 0.6; stroke: #ffffff; stroke-opacity: 0.6; stroke-width: 0.339411"/>
    <path d="M 169.176765 72.458227 
L 167.055445 76.700867 
L 171.298085 76.700867 
z
" clip-path="url(#pccabce94b8)" style="fill: #117733; fill-opacity: 0.6; stroke: #ffffff; stroke-opacity: 0.6; stroke-width: 0.339411"/>
    <path d="M 192.526866 93.626505 
L 190.405545 97.869145 
L 194.648186 97.869145 
z
" clip-path="url(#pccabce94b8)" style="fill: #117733; fill-opacity: 0.6; stroke: #ffffff; stroke-opacity: 0.6; stroke-width: 0.339411"/>
    <path d="M 159.611008 99.306761 
L 163.853649 99.306761 
L 163.853649 95.064121 
L 159.611008 95.064121 
z
" clip-path="url(#pccabce94b8)" style="fill: #44aa99; fill-opacity: 0.6; stroke: #ffffff; stroke-opacity: 0.6; stroke-width: 0.339411"/>
    <path d="M 78.788573 34.511205 
L 83.031214 34.511205 
L 83.031214 30.268564 
L 78.788573 30.268564 
z
" clip-path="url(#pccabce94b8)" style="fill: #44aa99; fill-opacity: 0.6; stroke: #ffffff; stroke-opacity: 0.6; stroke-width: 0.339411"/>
    <path d="M 171.464038 90.882367 
L 175.706679 90.882367 
L 175.706679 86.639727 
L 171.464038 86.639727 
z
" clip-path="url(#pccabce94b8)" style="fill: #44aa99; fill-opacity: 0.6; stroke: #ffffff; stroke-opacity: 0.6; stroke-width: 0.339411"/>
    <path d="M 136.5244 109.151807 
L 140.767041 109.151807 
L 140.767041 104.909166 
L 136.5244 104.909166 
z
" clip-path="url(#pccabce94b8)" style="fill: #44aa99; fill-opacity: 0.6; stroke: #ffffff; stroke-opacity: 0.6; stroke-width: 0.339411"/>
    <path d="M 136.496998 111.119687 
L 140.739639 111.119687 
L 140.739639 106.877046 
L 136.496998 106.877046 
z
" clip-path="url(#pccabce94b8)" style="fill: #44aa99; fill-opacity: 0.6; stroke: #ffffff; stroke-opacity: 0.6; stroke-width: 0.339411"/>
    <path d="M 77.993348 37.075795 
L 82.235988 37.075795 
L 82.235988 32.833155 
L 77.993348 32.833155 
z
" clip-path="url(#pccabce94b8)" style="fill: #44aa99; fill-opacity: 0.6; stroke: #ffffff; stroke-opacity: 0.6; stroke-width: 0.339411"/>
    <path d="M 138.711564 109.576894 
L 142.954204 109.576894 
L 142.954204 105.334253 
L 138.711564 105.334253 
z
" clip-path="url(#pccabce94b8)" style="fill: #44aa99; fill-opacity: 0.6; stroke: #ffffff; stroke-opacity: 0.6; stroke-width: 0.339411"/>
    <path d="M 173.925184 96.708161 
L 178.167825 96.708161 
L 178.167825 92.46552 
L 173.925184 92.46552 
z
" clip-path="url(#pccabce94b8)" style="fill: #44aa99; fill-opacity: 0.6; stroke: #ffffff; stroke-opacity: 0.6; stroke-width: 0.339411"/>
    <path d="M 77.983391 38.271518 
L 82.226032 38.271518 
L 82.226032 34.028877 
L 77.983391 34.028877 
z
" clip-path="url(#pccabce94b8)" style="fill: #44aa99; fill-opacity: 0.6; stroke: #ffffff; stroke-opacity: 0.6; stroke-width: 0.339411"/>
    <path d="M 75.212461 39.267438 
L 79.455102 39.267438 
L 79.455102 35.024797 
L 75.212461 35.024797 
z
" clip-path="url(#pccabce94b8)" style="fill: #44aa99; fill-opacity: 0.6; stroke: #ffffff; stroke-opacity: 0.6; stroke-width: 0.339411"/>
    <path d="M 138.52097 110.692763 
L 142.763611 110.692763 
L 142.763611 106.450123 
L 138.52097 106.450123 
z
" clip-path="url(#pccabce94b8)" style="fill: #44aa99; fill-opacity: 0.6; stroke: #ffffff; stroke-opacity: 0.6; stroke-width: 0.339411"/>
    <path d="M 139.788733 110.822215 
L 144.031373 110.822215 
L 144.031373 106.579574 
L 139.788733 106.579574 
z
" clip-path="url(#pccabce94b8)" style="fill: #44aa99; fill-opacity: 0.6; stroke: #ffffff; stroke-opacity: 0.6; stroke-width: 0.339411"/>
    <path d="M 190.955614 104.795302 
L 195.198255 104.795302 
L 195.198255 100.552661 
L 190.955614 100.552661 
z
" clip-path="url(#pccabce94b8)" style="fill: #44aa99; fill-opacity: 0.6; stroke: #ffffff; stroke-opacity: 0.6; stroke-width: 0.339411"/>
    <path d="M 192.769031 99.782551 
L 197.011671 99.782551 
L 197.011671 95.539911 
L 192.769031 95.539911 
z
" clip-path="url(#pccabce94b8)" style="fill: #44aa99; fill-opacity: 0.6; stroke: #ffffff; stroke-opacity: 0.6; stroke-width: 0.339411"/>
    <path d="M 77.56706 35.842563 
L 81.8097 35.842563 
L 81.8097 31.599923 
L 77.56706 31.599923 
z
" clip-path="url(#pccabce94b8)" style="fill: #44aa99; fill-opacity: 0.6; stroke: #ffffff; stroke-opacity: 0.6; stroke-width: 0.339411"/>
    <path d="M 136.125161 107.209802 
L 140.367801 107.209802 
L 140.367801 102.967161 
L 136.125161 102.967161 
z
" clip-path="url(#pccabce94b8)" style="fill: #44aa99; fill-opacity: 0.6; stroke: #ffffff; stroke-opacity: 0.6; stroke-width: 0.339411"/>
    <path d="M 77.924194 33.740495 
L 82.166834 33.740495 
L 82.166834 29.497854 
L 77.924194 29.497854 
z
" clip-path="url(#pccabce94b8)" style="fill: #44aa99; fill-opacity: 0.6; stroke: #ffffff; stroke-opacity: 0.6; stroke-width: 0.339411"/>
    <path d="M 137.424982 111.891786 
L 141.667622 111.891786 
L 141.667622 107.649146 
L 137.424982 107.649146 
z
" clip-path="url(#pccabce94b8)" style="fill: #44aa99; fill-opacity: 0.6; stroke: #ffffff; stroke-opacity: 0.6; stroke-width: 0.339411"/>
    <path d="M 190.738908 99.827897 
L 194.981549 99.827897 
L 194.981549 95.585257 
L 190.738908 95.585257 
z
" clip-path="url(#pccabce94b8)" style="fill: #44aa99; fill-opacity: 0.6; stroke: #ffffff; stroke-opacity: 0.6; stroke-width: 0.339411"/>
    <path d="M 135.627041 108.652843 
L 139.869682 108.652843 
L 139.869682 104.410202 
L 135.627041 104.410202 
z
" clip-path="url(#pccabce94b8)" style="fill: #44aa99; fill-opacity: 0.6; stroke: #ffffff; stroke-opacity: 0.6; stroke-width: 0.339411"/>
    <path d="M 193.0691 102.984987 
L 197.31174 102.984987 
L 197.31174 98.742346 
L 193.0691 98.742346 
z
" clip-path="url(#pccabce94b8)" style="fill: #44aa99; fill-opacity: 0.6; stroke: #ffffff; stroke-opacity: 0.6; stroke-width: 0.339411"/>
    <path d="M 194.035331 101.614294 
L 198.277972 101.614294 
L 198.277972 97.371653 
L 194.035331 97.371653 
z
" clip-path="url(#pccabce94b8)" style="fill: #44aa99; fill-opacity: 0.6; stroke: #ffffff; stroke-opacity: 0.6; stroke-width: 0.339411"/>
    <path d="M 193.587782 99.031063 
L 197.830423 99.031063 
L 197.830423 94.788422 
L 193.587782 94.788422 
z
" clip-path="url(#pccabce94b8)" style="fill: #44aa99; fill-opacity: 0.6; stroke: #ffffff; stroke-opacity: 0.6; stroke-width: 0.339411"/>
    <path d="M 139.281381 110.202336 
L 143.524022 110.202336 
L 143.524022 105.959695 
L 139.281381 105.959695 
z
" clip-path="url(#pccabce94b8)" style="fill: #44aa99; fill-opacity: 0.6; stroke: #ffffff; stroke-opacity: 0.6; stroke-width: 0.339411"/>
    <path d="M 186.58834 106.242476 
L 190.830981 106.242476 
L 190.830981 101.999836 
L 186.58834 101.999836 
z
" clip-path="url(#pccabce94b8)" style="fill: #44aa99; fill-opacity: 0.6; stroke: #ffffff; stroke-opacity: 0.6; stroke-width: 0.339411"/>
    <path d="M 76.876659 38.210925 
L 81.1193 38.210925 
L 81.1193 33.968284 
L 76.876659 33.968284 
z
" clip-path="url(#pccabce94b8)" style="fill: #44aa99; fill-opacity: 0.6; stroke: #ffffff; stroke-opacity: 0.6; stroke-width: 0.339411"/>
    <path d="M 184.809215 107.752841 
L 189.051856 107.752841 
L 189.051856 103.5102 
L 184.809215 103.5102 
z
" clip-path="url(#pccabce94b8)" style="fill: #44aa99; fill-opacity: 0.6; stroke: #ffffff; stroke-opacity: 0.6; stroke-width: 0.339411"/>
    <path d="M 169.547502 96.19789 
L 173.790143 96.19789 
L 173.790143 91.95525 
L 169.547502 91.95525 
z
" clip-path="url(#pccabce94b8)" style="fill: #44aa99; fill-opacity: 0.6; stroke: #ffffff; stroke-opacity: 0.6; stroke-width: 0.339411"/>
    <path d="M 79.667171 38.423375 
L 83.909812 38.423375 
L 83.909812 34.180734 
L 79.667171 34.180734 
z
" clip-path="url(#pccabce94b8)" style="fill: #44aa99; fill-opacity: 0.6; stroke: #ffffff; stroke-opacity: 0.6; stroke-width: 0.339411"/>
    <path d="M 178.472572 95.739455 
L 182.715213 95.739455 
L 182.715213 91.496815 
L 178.472572 91.496815 
z
" clip-path="url(#pccabce94b8)" style="fill: #44aa99; fill-opacity: 0.6; stroke: #ffffff; stroke-opacity: 0.6; stroke-width: 0.339411"/>
    <path d="M 175.496047 90.061577 
L 179.738688 90.061577 
L 179.738688 85.818936 
L 175.496047 85.818936 
z
" clip-path="url(#pccabce94b8)" style="fill: #44aa99; fill-opacity: 0.6; stroke: #ffffff; stroke-opacity: 0.6; stroke-width: 0.339411"/>
    <path d="M 136.120733 110.129151 
L 140.363374 110.129151 
L 140.363374 105.88651 
L 136.120733 105.88651 
z
" clip-path="url(#pccabce94b8)" style="fill: #44aa99; fill-opacity: 0.6; stroke: #ffffff; stroke-opacity: 0.6; stroke-width: 0.339411"/>
    <path d="M 79.696611 37.887128 
L 83.939251 37.887128 
L 83.939251 33.644488 
L 79.696611 33.644488 
z
" clip-path="url(#pccabce94b8)" style="fill: #44aa99; fill-opacity: 0.6; stroke: #ffffff; stroke-opacity: 0.6; stroke-width: 0.339411"/>
    <path d="M 193.492543 100.53758 
L 197.735184 100.53758 
L 197.735184 96.294939 
L 193.492543 96.294939 
z
" clip-path="url(#pccabce94b8)" style="fill: #44aa99; fill-opacity: 0.6; stroke: #ffffff; stroke-opacity: 0.6; stroke-width: 0.339411"/>
    <path d="M 75.60307 37.39968 
L 79.84571 37.39968 
L 79.84571 33.157039 
L 75.60307 33.157039 
z
" clip-path="url(#pccabce94b8)" style="fill: #44aa99; fill-opacity: 0.6; stroke: #ffffff; stroke-opacity: 0.6; stroke-width: 0.339411"/>
    <path d="M 139.427908 109.406799 
L 143.670548 109.406799 
L 143.670548 105.164158 
L 139.427908 105.164158 
z
" clip-path="url(#pccabce94b8)" style="fill: #44aa99; fill-opacity: 0.6; stroke: #ffffff; stroke-opacity: 0.6; stroke-width: 0.339411"/>
    <path d="M 137.670739 109.354165 
L 141.91338 109.354165 
L 141.91338 105.111524 
L 137.670739 105.111524 
z
" clip-path="url(#pccabce94b8)" style="fill: #44aa99; fill-opacity: 0.6; stroke: #ffffff; stroke-opacity: 0.6; stroke-width: 0.339411"/>
    <path d="M 79.2839 34.917141 
L 83.526541 34.917141 
L 83.526541 30.6745 
L 79.2839 30.6745 
z
" clip-path="url(#pccabce94b8)" style="fill: #44aa99; fill-opacity: 0.6; stroke: #ffffff; stroke-opacity: 0.6; stroke-width: 0.339411"/>
    <path d="M 189.274946 100.351089 
L 193.517586 100.351089 
L 193.517586 96.108449 
L 189.274946 96.108449 
z
" clip-path="url(#pccabce94b8)" style="fill: #44aa99; fill-opacity: 0.6; stroke: #ffffff; stroke-opacity: 0.6; stroke-width: 0.339411"/>
    <path d="M 138.228454 111.673897 
L 142.471095 111.673897 
L 142.471095 107.431257 
L 138.228454 107.431257 
z
" clip-path="url(#pccabce94b8)" style="fill: #44aa99; fill-opacity: 0.6; stroke: #ffffff; stroke-opacity: 0.6; stroke-width: 0.339411"/>
    <path d="M 137.366698 108.533356 
L 141.609338 108.533356 
L 141.609338 104.290715 
L 137.366698 104.290715 
z
" clip-path="url(#pccabce94b8)" style="fill: #44aa99; fill-opacity: 0.6; stroke: #ffffff; stroke-opacity: 0.6; stroke-width: 0.339411"/>
    <path d="M 75.482527 35.826246 
L 79.725168 35.826246 
L 79.725168 31.583606 
L 75.482527 31.583606 
z
" clip-path="url(#pccabce94b8)" style="fill: #44aa99; fill-opacity: 0.6; stroke: #ffffff; stroke-opacity: 0.6; stroke-width: 0.339411"/>
    <path d="M 134.850629 109.880598 
L 139.09327 109.880598 
L 139.09327 105.637957 
L 134.850629 105.637957 
z
" clip-path="url(#pccabce94b8)" style="fill: #44aa99; fill-opacity: 0.6; stroke: #ffffff; stroke-opacity: 0.6; stroke-width: 0.339411"/>
    <path d="M 173.793558 90.679383 
L 178.036199 90.679383 
L 178.036199 86.436743 
L 173.793558 86.436743 
z
" clip-path="url(#pccabce94b8)" style="fill: #44aa99; fill-opacity: 0.6; stroke: #ffffff; stroke-opacity: 0.6; stroke-width: 0.339411"/>
    <path d="M 172.530862 93.56098 
L 176.773503 93.56098 
L 176.773503 89.318339 
L 172.530862 89.318339 
z
" clip-path="url(#pccabce94b8)" style="fill: #44aa99; fill-opacity: 0.6; stroke: #ffffff; stroke-opacity: 0.6; stroke-width: 0.339411"/>
    <path d="M 79.175979 36.212873 
L 83.41862 36.212873 
L 83.41862 31.970232 
L 79.175979 31.970232 
z
" clip-path="url(#pccabce94b8)" style="fill: #44aa99; fill-opacity: 0.6; stroke: #ffffff; stroke-opacity: 0.6; stroke-width: 0.339411"/>
    <path d="M 134.562975 108.627255 
L 138.805616 108.627255 
L 138.805616 104.384614 
L 134.562975 104.384614 
z
" clip-path="url(#pccabce94b8)" style="fill: #44aa99; fill-opacity: 0.6; stroke: #ffffff; stroke-opacity: 0.6; stroke-width: 0.339411"/>
    <path d="M 139.201969 108.360878 
L 143.444609 108.360878 
L 143.444609 104.118237 
L 139.201969 104.118237 
z
" clip-path="url(#pccabce94b8)" style="fill: #44aa99; fill-opacity: 0.6; stroke: #ffffff; stroke-opacity: 0.6; stroke-width: 0.339411"/>
    <path d="M 137.777023 110.783842 
L 142.019664 110.783842 
L 142.019664 106.541201 
L 137.777023 106.541201 
z
" clip-path="url(#pccabce94b8)" style="fill: #44aa99; fill-opacity: 0.6; stroke: #ffffff; stroke-opacity: 0.6; stroke-width: 0.339411"/>
    <path d="M 174.798244 92.10481 
L 179.040885 92.10481 
L 179.040885 87.862169 
L 174.798244 87.862169 
z
" clip-path="url(#pccabce94b8)" style="fill: #44aa99; fill-opacity: 0.6; stroke: #ffffff; stroke-opacity: 0.6; stroke-width: 0.339411"/>
    <path d="M 171.976292 90.160926 
L 176.218932 90.160926 
L 176.218932 85.918286 
L 171.976292 85.918286 
z
" clip-path="url(#pccabce94b8)" style="fill: #44aa99; fill-opacity: 0.6; stroke: #ffffff; stroke-opacity: 0.6; stroke-width: 0.339411"/>
    <path d="M 75.978492 39.779297 
L 80.221133 39.779297 
L 80.221133 35.536657 
L 75.978492 35.536657 
z
" clip-path="url(#pccabce94b8)" style="fill: #44aa99; fill-opacity: 0.6; stroke: #ffffff; stroke-opacity: 0.6; stroke-width: 0.339411"/>
    <path d="M 193.330766 100.479939 
L 197.573407 100.479939 
L 197.573407 96.237299 
L 193.330766 96.237299 
z
" clip-path="url(#pccabce94b8)" style="fill: #44aa99; fill-opacity: 0.6; stroke: #ffffff; stroke-opacity: 0.6; stroke-width: 0.339411"/>
    <path d="M 137.291308 107.894256 
L 141.533949 107.894256 
L 141.533949 103.651615 
L 137.291308 103.651615 
z
" clip-path="url(#pccabce94b8)" style="fill: #44aa99; fill-opacity: 0.6; stroke: #ffffff; stroke-opacity: 0.6; stroke-width: 0.339411"/>
    <path d="M 76.967046 38.937133 
L 81.209687 38.937133 
L 81.209687 34.694492 
L 76.967046 34.694492 
z
" clip-path="url(#pccabce94b8)" style="fill: #44aa99; fill-opacity: 0.6; stroke: #ffffff; stroke-opacity: 0.6; stroke-width: 0.339411"/>
    <path d="M 194.522651 101.363057 
L 198.765291 101.363057 
L 198.765291 97.120416 
L 194.522651 97.120416 
z
" clip-path="url(#pccabce94b8)" style="fill: #44aa99; fill-opacity: 0.6; stroke: #ffffff; stroke-opacity: 0.6; stroke-width: 0.339411"/>
    <path d="M 77.028862 36.761131 
L 81.271503 36.761131 
L 81.271503 32.51849 
L 77.028862 32.51849 
z
" clip-path="url(#pccabce94b8)" style="fill: #44aa99; fill-opacity: 0.6; stroke: #ffffff; stroke-opacity: 0.6; stroke-width: 0.339411"/>
    <path d="M 78.003851 35.787812 
L 82.246492 35.787812 
L 82.246492 31.545171 
L 78.003851 31.545171 
z
" clip-path="url(#pccabce94b8)" style="fill: #44aa99; fill-opacity: 0.6; stroke: #ffffff; stroke-opacity: 0.6; stroke-width: 0.339411"/>
    <path d="M 76.258076 37.197971 
L 80.500717 37.197971 
L 80.500717 32.955331 
L 76.258076 32.955331 
z
" clip-path="url(#pccabce94b8)" style="fill: #44aa99; fill-opacity: 0.6; stroke: #ffffff; stroke-opacity: 0.6; stroke-width: 0.339411"/>
    <path d="M 191.216918 105.278351 
L 195.459559 105.278351 
L 195.459559 101.03571 
L 191.216918 101.03571 
z
" clip-path="url(#pccabce94b8)" style="fill: #44aa99; fill-opacity: 0.6; stroke: #ffffff; stroke-opacity: 0.6; stroke-width: 0.339411"/>
    <path d="M 134.779659 108.039282 
L 139.0223 108.039282 
L 139.0223 103.796641 
L 134.779659 103.796641 
z
" clip-path="url(#pccabce94b8)" style="fill: #44aa99; fill-opacity: 0.6; stroke: #ffffff; stroke-opacity: 0.6; stroke-width: 0.339411"/>
    <path d="M 76.85607 34.83484 
L 81.098711 34.83484 
L 81.098711 30.592199 
L 76.85607 30.592199 
z
" clip-path="url(#pccabce94b8)" style="fill: #44aa99; fill-opacity: 0.6; stroke: #ffffff; stroke-opacity: 0.6; stroke-width: 0.339411"/>
    <path d="M 176.709824 89.226078 
L 180.952465 89.226078 
L 180.952465 84.983437 
L 176.709824 84.983437 
z
" clip-path="url(#pccabce94b8)" style="fill: #44aa99; fill-opacity: 0.6; stroke: #ffffff; stroke-opacity: 0.6; stroke-width: 0.339411"/>
    <path d="M 87.549116 85.857749 
L 88.609777 84.797089 
L 89.670437 85.857749 
L 90.731097 84.797089 
L 89.670437 83.736429 
L 90.731097 82.675769 
L 89.670437 81.615109 
L 88.609777 82.675769 
L 87.549116 81.615109 
L 86.488456 82.675769 
L 87.549116 83.736429 
L 86.488456 84.797089 
z
" clip-path="url(#pccabce94b8)" style="fill: #88ccee; fill-opacity: 0.6; stroke: #ffffff; stroke-opacity: 0.6; stroke-width: 0.339411"/>
    <path d="M 175.256184 100.629189 
L 176.316844 99.568529 
L 177.377504 100.629189 
L 178.438164 99.568529 
L 177.377504 98.507869 
L 178.438164 97.447209 
L 177.377504 96.386549 
L 176.316844 97.447209 
L 175.256184 96.386549 
L 174.195524 97.447209 
L 175.256184 98.507869 
L 174.195524 99.568529 
z
" clip-path="url(#pccabce94b8)" style="fill: #88ccee; fill-opacity: 0.6; stroke: #ffffff; stroke-opacity: 0.6; stroke-width: 0.339411"/>
    <path d="M 82.252728 40.018749 
L 83.313389 38.958089 
L 84.374049 40.018749 
L 85.434709 38.958089 
L 84.374049 37.897429 
L 85.434709 36.836769 
L 84.374049 35.776109 
L 83.313389 36.836769 
L 82.252728 35.776109 
L 81.192068 36.836769 
L 82.252728 37.897429 
L 81.192068 38.958089 
z
" clip-path="url(#pccabce94b8)" style="fill: #88ccee; fill-opacity: 0.6; stroke: #ffffff; stroke-opacity: 0.6; stroke-width: 0.339411"/>
    <path d="M 186.949198 104.316129 
L 188.009859 103.255468 
L 189.070519 104.316129 
L 190.131179 103.255468 
L 189.070519 102.194808 
L 190.131179 101.134148 
L 189.070519 100.073488 
L 188.009859 101.134148 
L 186.949198 100.073488 
L 185.888538 101.134148 
L 186.949198 102.194808 
L 185.888538 103.255468 
z
" clip-path="url(#pccabce94b8)" style="fill: #88ccee; fill-opacity: 0.6; stroke: #ffffff; stroke-opacity: 0.6; stroke-width: 0.339411"/>
    <path d="M 173.373766 85.769454 
L 174.434426 84.708794 
L 175.495087 85.769454 
L 176.555747 84.708794 
L 175.495087 83.648134 
L 176.555747 82.587474 
L 175.495087 81.526814 
L 174.434426 82.587474 
L 173.373766 81.526814 
L 172.313106 82.587474 
L 173.373766 83.648134 
L 172.313106 84.708794 
z
" clip-path="url(#pccabce94b8)" style="fill: #88ccee; fill-opacity: 0.6; stroke: #ffffff; stroke-opacity: 0.6; stroke-width: 0.339411"/>
    <path d="M 172.217629 95.509309 
L 173.27829 94.448648 
L 174.33895 95.509309 
L 175.39961 94.448648 
L 174.33895 93.387988 
L 175.39961 92.327328 
L 174.33895 91.266668 
L 173.27829 92.327328 
L 172.217629 91.266668 
L 171.156969 92.327328 
L 172.217629 93.387988 
L 171.156969 94.448648 
z
" clip-path="url(#pccabce94b8)" style="fill: #88ccee; fill-opacity: 0.6; stroke: #ffffff; stroke-opacity: 0.6; stroke-width: 0.339411"/>
    <path d="M 178.171894 97.001371 
L 179.232555 95.940711 
L 180.293215 97.001371 
L 181.353875 95.940711 
L 180.293215 94.88005 
L 181.353875 93.81939 
L 180.293215 92.75873 
L 179.232555 93.81939 
L 178.171894 92.75873 
L 177.111234 93.81939 
L 178.171894 94.88005 
L 177.111234 95.940711 
z
" clip-path="url(#pccabce94b8)" style="fill: #88ccee; fill-opacity: 0.6; stroke: #ffffff; stroke-opacity: 0.6; stroke-width: 0.339411"/>
    <path d="M 189.323159 99.266524 
L 190.38382 98.205864 
L 191.44448 99.266524 
L 192.50514 98.205864 
L 191.44448 97.145204 
L 192.50514 96.084544 
L 191.44448 95.023883 
L 190.38382 96.084544 
L 189.323159 95.023883 
L 188.262499 96.084544 
L 189.323159 97.145204 
L 188.262499 98.205864 
z
" clip-path="url(#pccabce94b8)" style="fill: #88ccee; fill-opacity: 0.6; stroke: #ffffff; stroke-opacity: 0.6; stroke-width: 0.339411"/>
    <path d="M 190.410239 102.348908 
L 191.470899 101.288248 
L 192.531559 102.348908 
L 193.59222 101.288248 
L 192.531559 100.227588 
L 193.59222 99.166928 
L 192.531559 98.106267 
L 191.470899 99.166928 
L 190.410239 98.106267 
L 189.349579 99.166928 
L 190.410239 100.227588 
L 189.349579 101.288248 
z
" clip-path="url(#pccabce94b8)" style="fill: #88ccee; fill-opacity: 0.6; stroke: #ffffff; stroke-opacity: 0.6; stroke-width: 0.339411"/>
    <path d="M 175.179225 94.072199 
L 176.239886 93.011539 
L 177.300546 94.072199 
L 178.361206 93.011539 
L 177.300546 91.950879 
L 178.361206 90.890219 
L 177.300546 89.829559 
L 176.239886 90.890219 
L 175.179225 89.829559 
L 174.118565 90.890219 
L 175.179225 91.950879 
L 174.118565 93.011539 
z
" clip-path="url(#pccabce94b8)" style="fill: #88ccee; fill-opacity: 0.6; stroke: #ffffff; stroke-opacity: 0.6; stroke-width: 0.339411"/>
    <path d="M 172.236388 94.716742 
L 173.297048 93.656082 
L 174.357709 94.716742 
L 175.418369 93.656082 
L 174.357709 92.595422 
L 175.418369 91.534762 
L 174.357709 90.474102 
L 173.297048 91.534762 
L 172.236388 90.474102 
L 171.175728 91.534762 
L 172.236388 92.595422 
L 171.175728 93.656082 
z
" clip-path="url(#pccabce94b8)" style="fill: #88ccee; fill-opacity: 0.6; stroke: #ffffff; stroke-opacity: 0.6; stroke-width: 0.339411"/>
    <path d="M 182.76232 106.466438 
L 183.82298 105.405778 
L 184.88364 106.466438 
L 185.9443 105.405778 
L 184.88364 104.345118 
L 185.9443 103.284457 
L 184.88364 102.223797 
L 183.82298 103.284457 
L 182.76232 102.223797 
L 181.701659 103.284457 
L 182.76232 104.345118 
L 181.701659 105.405778 
z
" clip-path="url(#pccabce94b8)" style="fill: #88ccee; fill-opacity: 0.6; stroke: #ffffff; stroke-opacity: 0.6; stroke-width: 0.339411"/>
    <path d="M 191.744052 103.292342 
L 192.804712 102.231681 
L 193.865372 103.292342 
L 194.926032 102.231681 
L 193.865372 101.171021 
L 194.926032 100.110361 
L 193.865372 99.049701 
L 192.804712 100.110361 
L 191.744052 99.049701 
L 190.683392 100.110361 
L 191.744052 101.171021 
L 190.683392 102.231681 
z
" clip-path="url(#pccabce94b8)" style="fill: #88ccee; fill-opacity: 0.6; stroke: #ffffff; stroke-opacity: 0.6; stroke-width: 0.339411"/>
    <path d="M 191.078051 100.819533 
L 192.138711 99.758873 
L 193.199371 100.819533 
L 194.260031 99.758873 
L 193.199371 98.698213 
L 194.260031 97.637553 
L 193.199371 96.576893 
L 192.138711 97.637553 
L 191.078051 96.576893 
L 190.01739 97.637553 
L 191.078051 98.698213 
L 190.01739 99.758873 
z
" clip-path="url(#pccabce94b8)" style="fill: #88ccee; fill-opacity: 0.6; stroke: #ffffff; stroke-opacity: 0.6; stroke-width: 0.339411"/>
    <path d="M 172.269348 84.00595 
L 173.330008 82.94529 
L 174.390668 84.00595 
L 175.451329 82.94529 
L 174.390668 81.88463 
L 175.451329 80.82397 
L 174.390668 79.763309 
L 173.330008 80.82397 
L 172.269348 79.763309 
L 171.208688 80.82397 
L 172.269348 81.88463 
L 171.208688 82.94529 
z
" clip-path="url(#pccabce94b8)" style="fill: #88ccee; fill-opacity: 0.6; stroke: #ffffff; stroke-opacity: 0.6; stroke-width: 0.339411"/>
    <path d="M 82.076074 43.552017 
L 83.136734 42.491357 
L 84.197395 43.552017 
L 85.258055 42.491357 
L 84.197395 41.430697 
L 85.258055 40.370037 
L 84.197395 39.309377 
L 83.136734 40.370037 
L 82.076074 39.309377 
L 81.015414 40.370037 
L 82.076074 41.430697 
L 81.015414 42.491357 
z
" clip-path="url(#pccabce94b8)" style="fill: #88ccee; fill-opacity: 0.6; stroke: #ffffff; stroke-opacity: 0.6; stroke-width: 0.339411"/>
    <path d="M 181.092211 97.780094 
L 182.152872 96.719434 
L 183.213532 97.780094 
L 184.274192 96.719434 
L 183.213532 95.658774 
L 184.274192 94.598114 
L 183.213532 93.537453 
L 182.152872 94.598114 
L 181.092211 93.537453 
L 180.031551 94.598114 
L 181.092211 95.658774 
L 180.031551 96.719434 
z
" clip-path="url(#pccabce94b8)" style="fill: #88ccee; fill-opacity: 0.6; stroke: #ffffff; stroke-opacity: 0.6; stroke-width: 0.339411"/>
    <path d="M 174.276335 92.147755 
L 175.336995 91.087094 
L 176.397655 92.147755 
L 177.458315 91.087094 
L 176.397655 90.026434 
L 177.458315 88.965774 
L 176.397655 87.905114 
L 175.336995 88.965774 
L 174.276335 87.905114 
L 173.215675 88.965774 
L 174.276335 90.026434 
L 173.215675 91.087094 
z
" clip-path="url(#pccabce94b8)" style="fill: #88ccee; fill-opacity: 0.6; stroke: #ffffff; stroke-opacity: 0.6; stroke-width: 0.339411"/>
    <path d="M 191.611119 98.309952 
L 192.671779 97.249292 
L 193.732439 98.309952 
L 194.793099 97.249292 
L 193.732439 96.188632 
L 194.793099 95.127971 
L 193.732439 94.067311 
L 192.671779 95.127971 
L 191.611119 94.067311 
L 190.550459 95.127971 
L 191.611119 96.188632 
L 190.550459 97.249292 
z
" clip-path="url(#pccabce94b8)" style="fill: #88ccee; fill-opacity: 0.6; stroke: #ffffff; stroke-opacity: 0.6; stroke-width: 0.339411"/>
    <path d="M 174.183253 99.720626 
L 175.243913 98.659966 
L 176.304573 99.720626 
L 177.365233 98.659966 
L 176.304573 97.599306 
L 177.365233 96.538646 
L 176.304573 95.477986 
L 175.243913 96.538646 
L 174.183253 95.477986 
L 173.122593 96.538646 
L 174.183253 97.599306 
L 173.122593 98.659966 
z
" clip-path="url(#pccabce94b8)" style="fill: #88ccee; fill-opacity: 0.6; stroke: #ffffff; stroke-opacity: 0.6; stroke-width: 0.339411"/>
    <path d="M 169.27898 97.363047 
L 170.33964 96.302387 
L 171.4003 97.363047 
L 172.460961 96.302387 
L 171.4003 95.241726 
L 172.460961 94.181066 
L 171.4003 93.120406 
L 170.33964 94.181066 
L 169.27898 93.120406 
L 168.21832 94.181066 
L 169.27898 95.241726 
L 168.21832 96.302387 
z
" clip-path="url(#pccabce94b8)" style="fill: #88ccee; fill-opacity: 0.6; stroke: #ffffff; stroke-opacity: 0.6; stroke-width: 0.339411"/>
    <path d="M 182.206908 107.533942 
L 183.267568 106.473282 
L 184.328229 107.533942 
L 185.388889 106.473282 
L 184.328229 105.412622 
L 185.388889 104.351961 
L 184.328229 103.291301 
L 183.267568 104.351961 
L 182.206908 103.291301 
L 181.146248 104.351961 
L 182.206908 105.412622 
L 181.146248 106.473282 
z
" clip-path="url(#pccabce94b8)" style="fill: #88ccee; fill-opacity: 0.6; stroke: #ffffff; stroke-opacity: 0.6; stroke-width: 0.339411"/>
    <path d="M 189.779808 103.472745 
L 190.840469 102.412085 
L 191.901129 103.472745 
L 192.961789 102.412085 
L 191.901129 101.351425 
L 192.961789 100.290764 
L 191.901129 99.230104 
L 190.840469 100.290764 
L 189.779808 99.230104 
L 188.719148 100.290764 
L 189.779808 101.351425 
L 188.719148 102.412085 
z
" clip-path="url(#pccabce94b8)" style="fill: #88ccee; fill-opacity: 0.6; stroke: #ffffff; stroke-opacity: 0.6; stroke-width: 0.339411"/>
    <path d="M 176.700538 95.882229 
L 177.761198 94.821568 
L 178.821859 95.882229 
L 179.882519 94.821568 
L 178.821859 93.760908 
L 179.882519 92.700248 
L 178.821859 91.639588 
L 177.761198 92.700248 
L 176.700538 91.639588 
L 175.639878 92.700248 
L 176.700538 93.760908 
L 175.639878 94.821568 
z
" clip-path="url(#pccabce94b8)" style="fill: #88ccee; fill-opacity: 0.6; stroke: #ffffff; stroke-opacity: 0.6; stroke-width: 0.339411"/>
    <path d="M 81.773958 41.578449 
L 82.834618 40.517788 
L 83.895278 41.578449 
L 84.955938 40.517788 
L 83.895278 39.457128 
L 84.955938 38.396468 
L 83.895278 37.335808 
L 82.834618 38.396468 
L 81.773958 37.335808 
L 80.713297 38.396468 
L 81.773958 39.457128 
L 80.713297 40.517788 
z
" clip-path="url(#pccabce94b8)" style="fill: #88ccee; fill-opacity: 0.6; stroke: #ffffff; stroke-opacity: 0.6; stroke-width: 0.339411"/>
    <path d="M 183.635284 101.774973 
L 184.695944 100.714313 
L 185.756604 101.774973 
L 186.817264 100.714313 
L 185.756604 99.653653 
L 186.817264 98.592993 
L 185.756604 97.532333 
L 184.695944 98.592993 
L 183.635284 97.532333 
L 182.574624 98.592993 
L 183.635284 99.653653 
L 182.574624 100.714313 
z
" clip-path="url(#pccabce94b8)" style="fill: #88ccee; fill-opacity: 0.6; stroke: #ffffff; stroke-opacity: 0.6; stroke-width: 0.339411"/>
    <path d="M 173.308249 105.747724 
L 174.368909 104.687064 
L 175.429569 105.747724 
L 176.49023 104.687064 
L 175.429569 103.626404 
L 176.49023 102.565744 
L 175.429569 101.505084 
L 174.368909 102.565744 
L 173.308249 101.505084 
L 172.247589 102.565744 
L 173.308249 103.626404 
L 172.247589 104.687064 
z
" clip-path="url(#pccabce94b8)" style="fill: #88ccee; fill-opacity: 0.6; stroke: #ffffff; stroke-opacity: 0.6; stroke-width: 0.339411"/>
    <path d="M 192.879326 101.705258 
L 193.939986 100.644598 
L 195.000646 101.705258 
L 196.061306 100.644598 
L 195.000646 99.583938 
L 196.061306 98.523278 
L 195.000646 97.462617 
L 193.939986 98.523278 
L 192.879326 97.462617 
L 191.818666 98.523278 
L 192.879326 99.583938 
L 191.818666 100.644598 
z
" clip-path="url(#pccabce94b8)" style="fill: #88ccee; fill-opacity: 0.6; stroke: #ffffff; stroke-opacity: 0.6; stroke-width: 0.339411"/>
    <path d="M 180.507936 98.321007 
L 181.568596 97.260347 
L 182.629256 98.321007 
L 183.689916 97.260347 
L 182.629256 96.199686 
L 183.689916 95.139026 
L 182.629256 94.078366 
L 181.568596 95.139026 
L 180.507936 94.078366 
L 179.447275 95.139026 
L 180.507936 96.199686 
L 179.447275 97.260347 
z
" clip-path="url(#pccabce94b8)" style="fill: #88ccee; fill-opacity: 0.6; stroke: #ffffff; stroke-opacity: 0.6; stroke-width: 0.339411"/>
    <path d="M 175.240506 91.721837 
L 176.301167 90.661177 
L 177.361827 91.721837 
L 178.422487 90.661177 
L 177.361827 89.600516 
L 178.422487 88.539856 
L 177.361827 87.479196 
L 176.301167 88.539856 
L 175.240506 87.479196 
L 174.179846 88.539856 
L 175.240506 89.600516 
L 174.179846 90.661177 
z
" clip-path="url(#pccabce94b8)" style="fill: #88ccee; fill-opacity: 0.6; stroke: #ffffff; stroke-opacity: 0.6; stroke-width: 0.339411"/>
    <path d="M 182.594894 104.804719 
L 183.655554 103.744059 
L 184.716214 104.804719 
L 185.776875 103.744059 
L 184.716214 102.683399 
L 185.776875 101.622739 
L 184.716214 100.562079 
L 183.655554 101.622739 
L 182.594894 100.562079 
L 181.534234 101.622739 
L 182.594894 102.683399 
L 181.534234 103.744059 
z
" clip-path="url(#pccabce94b8)" style="fill: #88ccee; fill-opacity: 0.6; stroke: #ffffff; stroke-opacity: 0.6; stroke-width: 0.339411"/>
    <path d="M 185.668633 100.697104 
L 186.729293 99.636444 
L 187.789953 100.697104 
L 188.850613 99.636444 
L 187.789953 98.575784 
L 188.850613 97.515124 
L 187.789953 96.454463 
L 186.729293 97.515124 
L 185.668633 96.454463 
L 184.607973 97.515124 
L 185.668633 98.575784 
L 184.607973 99.636444 
z
" clip-path="url(#pccabce94b8)" style="fill: #88ccee; fill-opacity: 0.6; stroke: #ffffff; stroke-opacity: 0.6; stroke-width: 0.339411"/>
    <path d="M 181.739478 106.409842 
L 182.800138 105.349181 
L 183.860798 106.409842 
L 184.921458 105.349181 
L 183.860798 104.288521 
L 184.921458 103.227861 
L 183.860798 102.167201 
L 182.800138 103.227861 
L 181.739478 102.167201 
L 180.678818 103.227861 
L 181.739478 104.288521 
L 180.678818 105.349181 
z
" clip-path="url(#pccabce94b8)" style="fill: #88ccee; fill-opacity: 0.6; stroke: #ffffff; stroke-opacity: 0.6; stroke-width: 0.339411"/>
    <path d="M 86.607061 86.720411 
L 87.667721 85.65975 
L 88.728381 86.720411 
L 89.789041 85.65975 
L 88.728381 84.59909 
L 89.789041 83.53843 
L 88.728381 82.47777 
L 87.667721 83.53843 
L 86.607061 82.47777 
L 85.546401 83.53843 
L 86.607061 84.59909 
L 85.546401 85.65975 
z
" clip-path="url(#pccabce94b8)" style="fill: #88ccee; fill-opacity: 0.6; stroke: #ffffff; stroke-opacity: 0.6; stroke-width: 0.339411"/>
    <path d="M 80.069878 40.913405 
L 81.130538 39.852745 
L 82.191198 40.913405 
L 83.251858 39.852745 
L 82.191198 38.792084 
L 83.251858 37.731424 
L 82.191198 36.670764 
L 81.130538 37.731424 
L 80.069878 36.670764 
L 79.009218 37.731424 
L 80.069878 38.792084 
L 79.009218 39.852745 
z
" clip-path="url(#pccabce94b8)" style="fill: #88ccee; fill-opacity: 0.6; stroke: #ffffff; stroke-opacity: 0.6; stroke-width: 0.339411"/>
    <path d="M 189.977253 98.378394 
L 191.037913 97.317734 
L 192.098573 98.378394 
L 193.159233 97.317734 
L 192.098573 96.257073 
L 193.159233 95.196413 
L 192.098573 94.135753 
L 191.037913 95.196413 
L 189.977253 94.135753 
L 188.916593 95.196413 
L 189.977253 96.257073 
L 188.916593 97.317734 
z
" clip-path="url(#pccabce94b8)" style="fill: #88ccee; fill-opacity: 0.6; stroke: #ffffff; stroke-opacity: 0.6; stroke-width: 0.339411"/>
    <path d="M 173.567293 109.052121 
L 174.627953 107.991461 
L 175.688613 109.052121 
L 176.749273 107.991461 
L 175.688613 106.9308 
L 176.749273 105.87014 
L 175.688613 104.80948 
L 174.627953 105.87014 
L 173.567293 104.80948 
L 172.506632 105.87014 
L 173.567293 106.9308 
L 172.506632 107.991461 
z
" clip-path="url(#pccabce94b8)" style="fill: #88ccee; fill-opacity: 0.6; stroke: #ffffff; stroke-opacity: 0.6; stroke-width: 0.339411"/>
    <path d="M 188.199858 102.118136 
L 189.260518 101.057476 
L 190.321178 102.118136 
L 191.381838 101.057476 
L 190.321178 99.996815 
L 191.381838 98.936155 
L 190.321178 97.875495 
L 189.260518 98.936155 
L 188.199858 97.875495 
L 187.139197 98.936155 
L 188.199858 99.996815 
L 187.139197 101.057476 
z
" clip-path="url(#pccabce94b8)" style="fill: #88ccee; fill-opacity: 0.6; stroke: #ffffff; stroke-opacity: 0.6; stroke-width: 0.339411"/>
    <path d="M 184.248625 103.03432 
L 185.309285 101.97366 
L 186.369945 103.03432 
L 187.430606 101.97366 
L 186.369945 100.913 
L 187.430606 99.852339 
L 186.369945 98.791679 
L 185.309285 99.852339 
L 184.248625 98.791679 
L 183.187965 99.852339 
L 184.248625 100.913 
L 183.187965 101.97366 
z
" clip-path="url(#pccabce94b8)" style="fill: #88ccee; fill-opacity: 0.6; stroke: #ffffff; stroke-opacity: 0.6; stroke-width: 0.339411"/>
    <path d="M 183.403846 102.876163 
L 184.464506 101.815503 
L 185.525166 102.876163 
L 186.585826 101.815503 
L 185.525166 100.754843 
L 186.585826 99.694183 
L 185.525166 98.633522 
L 184.464506 99.694183 
L 183.403846 98.633522 
L 182.343185 99.694183 
L 183.403846 100.754843 
L 182.343185 101.815503 
z
" clip-path="url(#pccabce94b8)" style="fill: #88ccee; fill-opacity: 0.6; stroke: #ffffff; stroke-opacity: 0.6; stroke-width: 0.339411"/>
    <path d="M 170.697882 89.401714 
L 171.758542 88.341054 
L 172.819202 89.401714 
L 173.879862 88.341054 
L 172.819202 87.280394 
L 173.879862 86.219734 
L 172.819202 85.159074 
L 171.758542 86.219734 
L 170.697882 85.159074 
L 169.637221 86.219734 
L 170.697882 87.280394 
L 169.637221 88.341054 
z
" clip-path="url(#pccabce94b8)" style="fill: #88ccee; fill-opacity: 0.6; stroke: #ffffff; stroke-opacity: 0.6; stroke-width: 0.339411"/>
    <path d="M 174.252789 105.443542 
L 175.313449 104.382882 
L 176.374109 105.443542 
L 177.434769 104.382882 
L 176.374109 103.322222 
L 177.434769 102.261561 
L 176.374109 101.200901 
L 175.313449 102.261561 
L 174.252789 101.200901 
L 173.192129 102.261561 
L 174.252789 103.322222 
L 173.192129 104.382882 
z
" clip-path="url(#pccabce94b8)" style="fill: #88ccee; fill-opacity: 0.6; stroke: #ffffff; stroke-opacity: 0.6; stroke-width: 0.339411"/>
    <path d="M 81.2112 42.251056 
L 82.27186 41.190395 
L 83.332521 42.251056 
L 84.393181 41.190395 
L 83.332521 40.129735 
L 84.393181 39.069075 
L 83.332521 38.008415 
L 82.27186 39.069075 
L 81.2112 38.008415 
L 80.15054 39.069075 
L 81.2112 40.129735 
L 80.15054 41.190395 
z
" clip-path="url(#pccabce94b8)" style="fill: #88ccee; fill-opacity: 0.6; stroke: #ffffff; stroke-opacity: 0.6; stroke-width: 0.339411"/>
    <path d="M 172.915528 86.469936 
L 173.976189 85.409276 
L 175.036849 86.469936 
L 176.097509 85.409276 
L 175.036849 84.348616 
L 176.097509 83.287956 
L 175.036849 82.227295 
L 173.976189 83.287956 
L 172.915528 82.227295 
L 171.854868 83.287956 
L 172.915528 84.348616 
L 171.854868 85.409276 
z
" clip-path="url(#pccabce94b8)" style="fill: #88ccee; fill-opacity: 0.6; stroke: #ffffff; stroke-opacity: 0.6; stroke-width: 0.339411"/>
    <path d="M 183.916944 107.667571 
L 184.977604 106.606911 
L 186.038264 107.667571 
L 187.098924 106.606911 
L 186.038264 105.546251 
L 187.098924 104.48559 
L 186.038264 103.42493 
L 184.977604 104.48559 
L 183.916944 103.42493 
L 182.856284 104.48559 
L 183.916944 105.546251 
L 182.856284 106.606911 
z
" clip-path="url(#pccabce94b8)" style="fill: #88ccee; fill-opacity: 0.6; stroke: #ffffff; stroke-opacity: 0.6; stroke-width: 0.339411"/>
    <path d="M 169.05136 91.720944 
L 170.11202 90.660283 
L 171.17268 91.720944 
L 172.23334 90.660283 
L 171.17268 89.599623 
L 172.23334 88.538963 
L 171.17268 87.478303 
L 170.11202 88.538963 
L 169.05136 87.478303 
L 167.990699 88.538963 
L 169.05136 89.599623 
L 167.990699 90.660283 
z
" clip-path="url(#pccabce94b8)" style="fill: #88ccee; fill-opacity: 0.6; stroke: #ffffff; stroke-opacity: 0.6; stroke-width: 0.339411"/>
    <path d="M 190.970647 106.017439 
L 192.031307 104.956778 
L 193.091967 106.017439 
L 194.152627 104.956778 
L 193.091967 103.896118 
L 194.152627 102.835458 
L 193.091967 101.774798 
L 192.031307 102.835458 
L 190.970647 101.774798 
L 189.909987 102.835458 
L 190.970647 103.896118 
L 189.909987 104.956778 
z
" clip-path="url(#pccabce94b8)" style="fill: #88ccee; fill-opacity: 0.6; stroke: #ffffff; stroke-opacity: 0.6; stroke-width: 0.339411"/>
    <path d="M 189.675655 102.356041 
L 190.736315 101.295381 
L 191.796975 102.356041 
L 192.857636 101.295381 
L 191.796975 100.23472 
L 192.857636 99.17406 
L 191.796975 98.1134 
L 190.736315 99.17406 
L 189.675655 98.1134 
L 188.614995 99.17406 
L 189.675655 100.23472 
L 188.614995 101.295381 
z
" clip-path="url(#pccabce94b8)" style="fill: #88ccee; fill-opacity: 0.6; stroke: #ffffff; stroke-opacity: 0.6; stroke-width: 0.339411"/>
    <path d="M 178.751331 96.502453 
L 179.811991 95.441793 
L 180.872651 96.502453 
L 181.933311 95.441793 
L 180.872651 94.381133 
L 181.933311 93.320473 
L 180.872651 92.259812 
L 179.811991 93.320473 
L 178.751331 92.259812 
L 177.690671 93.320473 
L 178.751331 94.381133 
L 177.690671 95.441793 
z
" clip-path="url(#pccabce94b8)" style="fill: #88ccee; fill-opacity: 0.6; stroke: #ffffff; stroke-opacity: 0.6; stroke-width: 0.339411"/>
    <path d="M 183.282539 101.666113 
L 184.343199 100.605453 
L 185.403859 101.666113 
L 186.464519 100.605453 
L 185.403859 99.544793 
L 186.464519 98.484133 
L 185.403859 97.423472 
L 184.343199 98.484133 
L 183.282539 97.423472 
L 182.221878 98.484133 
L 183.282539 99.544793 
L 182.221878 100.605453 
z
" clip-path="url(#pccabce94b8)" style="fill: #88ccee; fill-opacity: 0.6; stroke: #ffffff; stroke-opacity: 0.6; stroke-width: 0.339411"/>
    <path d="M 173.979283 96.159629 
L 175.039943 95.098968 
L 176.100603 96.159629 
L 177.161264 95.098968 
L 176.100603 94.038308 
L 177.161264 92.977648 
L 176.100603 91.916988 
L 175.039943 92.977648 
L 173.979283 91.916988 
L 172.918623 92.977648 
L 173.979283 94.038308 
L 172.918623 95.098968 
z
" clip-path="url(#pccabce94b8)" style="fill: #88ccee; fill-opacity: 0.6; stroke: #ffffff; stroke-opacity: 0.6; stroke-width: 0.339411"/>
    <path d="M 171.218933 97.281209 
L 172.279593 96.220548 
L 173.340254 97.281209 
L 174.400914 96.220548 
L 173.340254 95.159888 
L 174.400914 94.099228 
L 173.340254 93.038568 
L 172.279593 94.099228 
L 171.218933 93.038568 
L 170.158273 94.099228 
L 171.218933 95.159888 
L 170.158273 96.220548 
z
" clip-path="url(#pccabce94b8)" style="fill: #88ccee; fill-opacity: 0.6; stroke: #ffffff; stroke-opacity: 0.6; stroke-width: 0.339411"/>
    <path d="M 184.392669 105.672759 
L 185.45333 104.612099 
L 186.51399 105.672759 
L 187.57465 104.612099 
L 186.51399 103.551439 
L 187.57465 102.490779 
L 186.51399 101.430119 
L 185.45333 102.490779 
L 184.392669 101.430119 
L 183.332009 102.490779 
L 184.392669 103.551439 
L 183.332009 104.612099 
z
" clip-path="url(#pccabce94b8)" style="fill: #88ccee; fill-opacity: 0.6; stroke: #ffffff; stroke-opacity: 0.6; stroke-width: 0.339411"/>
    <path d="M 182.82527 107.361409 
L 183.88593 106.300749 
L 184.946591 107.361409 
L 186.007251 106.300749 
L 184.946591 105.240089 
L 186.007251 104.179429 
L 184.946591 103.118769 
L 183.88593 104.179429 
L 182.82527 103.118769 
L 181.76461 104.179429 
L 182.82527 105.240089 
L 181.76461 106.300749 
z
" clip-path="url(#pccabce94b8)" style="fill: #88ccee; fill-opacity: 0.6; stroke: #ffffff; stroke-opacity: 0.6; stroke-width: 0.339411"/>
    <path d="M 184.043666 100.344472 
L 185.104326 99.283811 
L 186.164986 100.344472 
L 187.225646 99.283811 
L 186.164986 98.223151 
L 187.225646 97.162491 
L 186.164986 96.101831 
L 185.104326 97.162491 
L 184.043666 96.101831 
L 182.983005 97.162491 
L 184.043666 98.223151 
L 182.983005 99.283811 
z
" clip-path="url(#pccabce94b8)" style="fill: #88ccee; fill-opacity: 0.6; stroke: #ffffff; stroke-opacity: 0.6; stroke-width: 0.339411"/>
    <path d="M 190.451852 104.60963 
L 191.512512 103.54897 
L 192.573172 104.60963 
L 193.633833 103.54897 
L 192.573172 102.48831 
L 193.633833 101.42765 
L 192.573172 100.36699 
L 191.512512 101.42765 
L 190.451852 100.36699 
L 189.391192 101.42765 
L 190.451852 102.48831 
L 189.391192 103.54897 
z
" clip-path="url(#pccabce94b8)" style="fill: #88ccee; fill-opacity: 0.6; stroke: #ffffff; stroke-opacity: 0.6; stroke-width: 0.339411"/>
    <path d="M 83.392989 41.506615 
L 84.453649 40.445955 
L 85.514309 41.506615 
L 86.574969 40.445955 
L 85.514309 39.385295 
L 86.574969 38.324635 
L 85.514309 37.263975 
L 84.453649 38.324635 
L 83.392989 37.263975 
L 82.332329 38.324635 
L 83.392989 39.385295 
L 82.332329 40.445955 
z
" clip-path="url(#pccabce94b8)" style="fill: #88ccee; fill-opacity: 0.6; stroke: #ffffff; stroke-opacity: 0.6; stroke-width: 0.339411"/>
    <path d="M 182.4359 108.550558 
L 183.496561 107.489898 
L 184.557221 108.550558 
L 185.617881 107.489898 
L 184.557221 106.429238 
L 185.617881 105.368578 
L 184.557221 104.307917 
L 183.496561 105.368578 
L 182.4359 104.307917 
L 181.37524 105.368578 
L 182.4359 106.429238 
L 181.37524 107.489898 
z
" clip-path="url(#pccabce94b8)" style="fill: #88ccee; fill-opacity: 0.6; stroke: #ffffff; stroke-opacity: 0.6; stroke-width: 0.339411"/>
    <path d="M 176.452791 98.044774 
L 177.513451 96.984113 
L 178.574112 98.044774 
L 179.634772 96.984113 
L 178.574112 95.923453 
L 179.634772 94.862793 
L 178.574112 93.802133 
L 177.513451 94.862793 
L 176.452791 93.802133 
L 175.392131 94.862793 
L 176.452791 95.923453 
L 175.392131 96.984113 
z
" clip-path="url(#pccabce94b8)" style="fill: #88ccee; fill-opacity: 0.6; stroke: #ffffff; stroke-opacity: 0.6; stroke-width: 0.339411"/>
    <path d="M 178.896912 98.051665 
L 179.957572 96.991005 
L 181.018232 98.051665 
L 182.078892 96.991005 
L 181.018232 95.930344 
L 182.078892 94.869684 
L 181.018232 93.809024 
L 179.957572 94.869684 
L 178.896912 93.809024 
L 177.836252 94.869684 
L 178.896912 95.930344 
L 177.836252 96.991005 
z
" clip-path="url(#pccabce94b8)" style="fill: #88ccee; fill-opacity: 0.6; stroke: #ffffff; stroke-opacity: 0.6; stroke-width: 0.339411"/>
    <path d="M 185.986749 103.067986 
L 187.047409 102.007326 
L 188.108069 103.067986 
L 189.168729 102.007326 
L 188.108069 100.946665 
L 189.168729 99.886005 
L 188.108069 98.825345 
L 187.047409 99.886005 
L 185.986749 98.825345 
L 184.926088 99.886005 
L 185.986749 100.946665 
L 184.926088 102.007326 
z
" clip-path="url(#pccabce94b8)" style="fill: #88ccee; fill-opacity: 0.6; stroke: #ffffff; stroke-opacity: 0.6; stroke-width: 0.339411"/>
    <path d="M 186.470826 102.377406 
L 187.531486 101.316746 
L 188.592146 102.377406 
L 189.652806 101.316746 
L 188.592146 100.256086 
L 189.652806 99.195426 
L 188.592146 98.134766 
L 187.531486 99.195426 
L 186.470826 98.134766 
L 185.410166 99.195426 
L 186.470826 100.256086 
L 185.410166 101.316746 
z
" clip-path="url(#pccabce94b8)" style="fill: #88ccee; fill-opacity: 0.6; stroke: #ffffff; stroke-opacity: 0.6; stroke-width: 0.339411"/>
    <path d="M 187.715451 102.947866 
L 188.776111 101.887205 
L 189.836771 102.947866 
L 190.897431 101.887205 
L 189.836771 100.826545 
L 190.897431 99.765885 
L 189.836771 98.705225 
L 188.776111 99.765885 
L 187.715451 98.705225 
L 186.65479 99.765885 
L 187.715451 100.826545 
L 186.65479 101.887205 
z
" clip-path="url(#pccabce94b8)" style="fill: #88ccee; fill-opacity: 0.6; stroke: #ffffff; stroke-opacity: 0.6; stroke-width: 0.339411"/>
    <path d="M 83.394733 42.839374 
L 84.455393 41.778714 
L 85.516053 42.839374 
L 86.576713 41.778714 
L 85.516053 40.718054 
L 86.576713 39.657394 
L 85.516053 38.596734 
L 84.455393 39.657394 
L 83.394733 38.596734 
L 82.334073 39.657394 
L 83.394733 40.718054 
L 82.334073 41.778714 
z
" clip-path="url(#pccabce94b8)" style="fill: #88ccee; fill-opacity: 0.6; stroke: #ffffff; stroke-opacity: 0.6; stroke-width: 0.339411"/>
   </g>
   <g id="matplotlib.axis_1">
    <g id="xtick_1">
     <g id="line2d_1">
      <defs>
       <path id="m93cd473c29" d="M 0 0 
L 0 8 
" style="stroke: #000000"/>
      </defs>
      <g>
       <use xlink:href="#m93cd473c29" x="72.871301" y="183.896063" style="stroke: #000000"/>
      </g>
     </g>
     <g id="text_1">
      <!-- 10 -->
      <g transform="translate(60.208488 204.514188) scale(0.12 -0.12)">
       <defs>
        <path id="DejaVuSans-2212" d="M 678 2272 
L 4684 2272 
L 4684 1741 
L 678 1741 
L 678 2272 
z
" transform="scale(0.015625)"/>
        <path id="DejaVuSans-31" d="M 794 531 
L 1825 531 
L 1825 4091 
L 703 3866 
L 703 4441 
L 1819 4666 
L 2450 4666 
L 2450 531 
L 3481 531 
L 3481 0 
L 794 0 
L 794 531 
z
" transform="scale(0.015625)"/>
        <path id="DejaVuSans-30" d="M 2034 4250 
Q 1547 4250 1301 3770 
Q 1056 3291 1056 2328 
Q 1056 1369 1301 889 
Q 1547 409 2034 409 
Q 2525 409 2770 889 
Q 3016 1369 3016 2328 
Q 3016 3291 2770 3770 
Q 2525 4250 2034 4250 
z
M 2034 4750 
Q 2819 4750 3233 4129 
Q 3647 3509 3647 2328 
Q 3647 1150 3233 529 
Q 2819 -91 2034 -91 
Q 1250 -91 836 529 
Q 422 1150 422 2328 
Q 422 3509 836 4129 
Q 1250 4750 2034 4750 
z
" transform="scale(0.015625)"/>
       </defs>
       <use xlink:href="#DejaVuSans-2212"/>
       <use xlink:href="#DejaVuSans-31" x="83.789062"/>
       <use xlink:href="#DejaVuSans-30" x="147.412109"/>
      </g>
     </g>
    </g>
    <g id="xtick_2">
     <g id="line2d_2">
      <g>
       <use xlink:href="#m93cd473c29" x="115.054599" y="183.896063" style="stroke: #000000"/>
      </g>
     </g>
     <g id="text_2">
      <!-- 0 -->
      <g transform="translate(111.237099 204.514188) scale(0.12 -0.12)">
       <use xlink:href="#DejaVuSans-30"/>
      </g>
     </g>
    </g>
    <g id="xtick_3">
     <g id="line2d_3">
      <g>
       <use xlink:href="#m93cd473c29" x="157.237898" y="183.896063" style="stroke: #000000"/>
      </g>
     </g>
     <g id="text_3">
      <!-- 10 -->
      <g transform="translate(149.602898 204.514188) scale(0.12 -0.12)">
       <use xlink:href="#DejaVuSans-31"/>
       <use xlink:href="#DejaVuSans-30" x="63.623047"/>
      </g>
     </g>
    </g>
    <g id="xtick_4">
     <g id="line2d_4">
      <g>
       <use xlink:href="#m93cd473c29" x="199.421197" y="183.896063" style="stroke: #000000"/>
      </g>
     </g>
     <g id="text_4">
      <!-- 20 -->
      <g transform="translate(191.786197 204.514188) scale(0.12 -0.12)">
       <defs>
        <path id="DejaVuSans-32" d="M 1228 531 
L 3431 531 
L 3431 0 
L 469 0 
L 469 531 
Q 828 903 1448 1529 
Q 2069 2156 2228 2338 
Q 2531 2678 2651 2914 
Q 2772 3150 2772 3378 
Q 2772 3750 2511 3984 
Q 2250 4219 1831 4219 
Q 1534 4219 1204 4116 
Q 875 4013 500 3803 
L 500 4441 
Q 881 4594 1212 4672 
Q 1544 4750 1819 4750 
Q 2544 4750 2975 4387 
Q 3406 4025 3406 3419 
Q 3406 3131 3298 2873 
Q 3191 2616 2906 2266 
Q 2828 2175 2409 1742 
Q 1991 1309 1228 531 
z
" transform="scale(0.015625)"/>
       </defs>
       <use xlink:href="#DejaVuSans-32"/>
       <use xlink:href="#DejaVuSans-30" x="63.623047"/>
      </g>
     </g>
    </g>
    <g id="text_5">
     <!-- UMAP 1 -->
     <g transform="translate(122.996572 220.127938) scale(0.12 -0.12)">
      <defs>
       <path id="DejaVuSans-55" d="M 556 4666 
L 1191 4666 
L 1191 1831 
Q 1191 1081 1462 751 
Q 1734 422 2344 422 
Q 2950 422 3222 751 
Q 3494 1081 3494 1831 
L 3494 4666 
L 4128 4666 
L 4128 1753 
Q 4128 841 3676 375 
Q 3225 -91 2344 -91 
Q 1459 -91 1007 375 
Q 556 841 556 1753 
L 556 4666 
z
" transform="scale(0.015625)"/>
       <path id="DejaVuSans-4d" d="M 628 4666 
L 1569 4666 
L 2759 1491 
L 3956 4666 
L 4897 4666 
L 4897 0 
L 4281 0 
L 4281 4097 
L 3078 897 
L 2444 897 
L 1241 4097 
L 1241 0 
L 628 0 
L 628 4666 
z
" transform="scale(0.015625)"/>
       <path id="DejaVuSans-41" d="M 2188 4044 
L 1331 1722 
L 3047 1722 
L 2188 4044 
z
M 1831 4666 
L 2547 4666 
L 4325 0 
L 3669 0 
L 3244 1197 
L 1141 1197 
L 716 0 
L 50 0 
L 1831 4666 
z
" transform="scale(0.015625)"/>
       <path id="DejaVuSans-50" d="M 1259 4147 
L 1259 2394 
L 2053 2394 
Q 2494 2394 2734 2622 
Q 2975 2850 2975 3272 
Q 2975 3691 2734 3919 
Q 2494 4147 2053 4147 
L 1259 4147 
z
M 628 4666 
L 2053 4666 
Q 2838 4666 3239 4311 
Q 3641 3956 3641 3272 
Q 3641 2581 3239 2228 
Q 2838 1875 2053 1875 
L 1259 1875 
L 1259 0 
L 628 0 
L 628 4666 
z
" transform="scale(0.015625)"/>
       <path id="DejaVuSans-20" transform="scale(0.015625)"/>
      </defs>
      <use xlink:href="#DejaVuSans-55"/>
      <use xlink:href="#DejaVuSans-4d" x="73.193359"/>
      <use xlink:href="#DejaVuSans-41" x="159.472656"/>
      <use xlink:href="#DejaVuSans-50" x="227.880859"/>
      <use xlink:href="#DejaVuSans-20" x="288.183594"/>
      <use xlink:href="#DejaVuSans-31" x="319.970703"/>
     </g>
    </g>
   </g>
   <g id="matplotlib.axis_2">
    <g id="ytick_1">
     <g id="line2d_5">
      <defs>
       <path id="mc30cefbf7d" d="M 0 0 
L -8 0 
" style="stroke: #000000"/>
      </defs>
      <g>
       <use xlink:href="#mc30cefbf7d" x="64.037638" y="175.0624" style="stroke: #000000"/>
      </g>
     </g>
     <g id="text_6">
      <!-- 10 -->
      <g transform="translate(27.212013 179.621463) scale(0.12 -0.12)">
       <use xlink:href="#DejaVuSans-2212"/>
       <use xlink:href="#DejaVuSans-31" x="83.789062"/>
       <use xlink:href="#DejaVuSans-30" x="147.412109"/>
      </g>
     </g>
    </g>
    <g id="ytick_2">
     <g id="line2d_6">
      <g>
       <use xlink:href="#mc30cefbf7d" x="64.037638" y="132.879101" style="stroke: #000000"/>
      </g>
     </g>
     <g id="text_7">
      <!-- 0 -->
      <g transform="translate(44.902638 137.438164) scale(0.12 -0.12)">
       <use xlink:href="#DejaVuSans-30"/>
      </g>
     </g>
    </g>
    <g id="ytick_3">
     <g id="line2d_7">
      <g>
       <use xlink:href="#mc30cefbf7d" x="64.037638" y="90.695803" style="stroke: #000000"/>
      </g>
     </g>
     <g id="text_8">
      <!-- 10 -->
      <g transform="translate(37.267638 95.254865) scale(0.12 -0.12)">
       <use xlink:href="#DejaVuSans-31"/>
       <use xlink:href="#DejaVuSans-30" x="63.623047"/>
      </g>
     </g>
    </g>
    <g id="ytick_4">
     <g id="line2d_8">
      <g>
       <use xlink:href="#mc30cefbf7d" x="64.037638" y="48.512504" style="stroke: #000000"/>
      </g>
     </g>
     <g id="text_9">
      <!-- 20 -->
      <g transform="translate(37.267638 53.071566) scale(0.12 -0.12)">
       <use xlink:href="#DejaVuSans-32"/>
       <use xlink:href="#DejaVuSans-30" x="63.623047"/>
      </g>
     </g>
    </g>
    <g id="text_10">
     <!-- UMAP 2 -->
     <g transform="translate(20.716388 124.937128) rotate(-90) scale(0.12 -0.12)">
      <use xlink:href="#DejaVuSans-55"/>
      <use xlink:href="#DejaVuSans-4d" x="73.193359"/>
      <use xlink:href="#DejaVuSans-41" x="159.472656"/>
      <use xlink:href="#DejaVuSans-50" x="227.880859"/>
      <use xlink:href="#DejaVuSans-20" x="288.183594"/>
      <use xlink:href="#DejaVuSans-32" x="319.970703"/>
     </g>
    </g>
   </g>
   <g id="patch_3">
    <path d="M 64.037638 183.896063 
L 64.037638 19.948819 
" style="fill: none; stroke: #000000; stroke-width: 2; stroke-linejoin: miter; stroke-linecap: square"/>
   </g>
   <g id="patch_4">
    <path d="M 64.037638 183.896063 
L 227.984882 183.896063 
" style="fill: none; stroke: #000000; stroke-width: 2; stroke-linejoin: miter; stroke-linecap: square"/>
   </g>
  </g>
 </g>
 <defs>
  <clipPath id="pccabce94b8">
   <rect x="64.037638" y="19.948819" width="163.947244" height="163.947244"/>
  </clipPath>
 </defs>
</svg>
