<?xml version="1.0" encoding="utf-8" standalone="no"?>
<!DOCTYPE svg PUBLIC "-//W3C//DTD SVG 1.1//EN"
  "http://www.w3.org/Graphics/SVG/1.1/DTD/svg11.dtd">
<svg xmlns:xlink="http://www.w3.org/1999/xlink" width="240.944882pt" height="240.944882pt" viewBox="0 0 240.944882 240.944882" xmlns="http://www.w3.org/2000/svg" version="1.1">
 <metadata>
  <rdf:RDF xmlns:dc="http://purl.org/dc/elements/1.1/" xmlns:cc="http://creativecommons.org/ns#" xmlns:rdf="http://www.w3.org/1999/02/22-rdf-syntax-ns#">
   <cc:Work>
    <dc:type rdf:resource="http://purl.org/dc/dcmitype/StillImage"/>
    <dc:date>2025-02-19T15:06:04.894318</dc:date>
    <dc:format>image/svg+xml</dc:format>
    <dc:creator>
     <cc:Agent>
      <dc:title>Matplotlib v3.6.2, https://matplotlib.org/</dc:title>
     </cc:Agent>
    </dc:creator>
   </cc:Work>
  </rdf:RDF>
 </metadata>
 <defs>
  <style type="text/css">*{stroke-linejoin: round; stroke-linecap: butt}</style>
 </defs>
 <g id="figure_1">
  <g id="patch_1">
   <path d="M 0 240.944882 
L 240.944882 240.944882 
L 240.944882 0 
L 0 0 
L 0 240.944882 
z
" style="fill: none"/>
  </g>
  <g id="axes_1">
   <g id="patch_2">
    <path d="M 53.957638 188.478002 
L 227.06876 188.478002 
L 227.06876 15.36688 
L 53.957638 15.36688 
L 53.957638 188.478002 
z
" style="fill: none"/>
   </g>
   <g id="PathCollection_1">
    <path d="M 142.025997 130.137472 
L 143.086657 129.076812 
L 144.147317 130.137472 
L 145.207977 129.076812 
L 144.147317 128.016152 
L 145.207977 126.955492 
L 144.147317 125.894832 
L 143.086657 126.955492 
L 142.025997 125.894832 
L 140.965337 126.955492 
L 142.025997 128.016152 
L 140.965337 129.076812 
z
" clip-path="url(#paee73e3cc1)" style="fill: #332288; fill-opacity: 0.6; stroke: #ffffff; stroke-opacity: 0.6; stroke-width: 0.339411"/>
    <path d="M 158.215691 115.697627 
L 159.276351 114.636967 
L 160.337011 115.697627 
L 161.397671 114.636967 
L 160.337011 113.576306 
L 161.397671 112.515646 
L 160.337011 111.454986 
L 159.276351 112.515646 
L 158.215691 111.454986 
L 157.155031 112.515646 
L 158.215691 113.576306 
L 157.155031 114.636967 
z
" clip-path="url(#paee73e3cc1)" style="fill: #332288; fill-opacity: 0.6; stroke: #ffffff; stroke-opacity: 0.6; stroke-width: 0.339411"/>
    <path d="M 168.335744 123.8813 
L 169.396405 122.82064 
L 170.457065 123.8813 
L 171.517725 122.82064 
L 170.457065 121.75998 
L 171.517725 120.69932 
L 170.457065 119.63866 
L 169.396405 120.69932 
L 168.335744 119.63866 
L 167.275084 120.69932 
L 168.335744 121.75998 
L 167.275084 122.82064 
z
" clip-path="url(#paee73e3cc1)" style="fill: #332288; fill-opacity: 0.6; stroke: #ffffff; stroke-opacity: 0.6; stroke-width: 0.339411"/>
    <path d="M 65.46257 117.520767 
L 66.52323 116.460106 
L 67.58389 117.520767 
L 68.64455 116.460106 
L 67.58389 115.399446 
L 68.64455 114.338786 
L 67.58389 113.278126 
L 66.52323 114.338786 
L 65.46257 113.278126 
L 64.40191 114.338786 
L 65.46257 115.399446 
L 64.40191 116.460106 
z
" clip-path="url(#paee73e3cc1)" style="fill: #332288; fill-opacity: 0.6; stroke: #ffffff; stroke-opacity: 0.6; stroke-width: 0.339411"/>
    <path d="M 156.622475 117.295811 
L 157.683136 116.23515 
L 158.743796 117.295811 
L 159.804456 116.23515 
L 158.743796 115.17449 
L 159.804456 114.11383 
L 158.743796 113.05317 
L 157.683136 114.11383 
L 156.622475 113.05317 
L 155.561815 114.11383 
L 156.622475 115.17449 
L 155.561815 116.23515 
z
" clip-path="url(#paee73e3cc1)" style="fill: #332288; fill-opacity: 0.6; stroke: #ffffff; stroke-opacity: 0.6; stroke-width: 0.339411"/>
    <path d="M 132.808506 138.010305 
L 133.869167 136.949645 
L 134.929827 138.010305 
L 135.990487 136.949645 
L 134.929827 135.888985 
L 135.990487 134.828325 
L 134.929827 133.767664 
L 133.869167 134.828325 
L 132.808506 133.767664 
L 131.747846 134.828325 
L 132.808506 135.888985 
L 131.747846 136.949645 
z
" clip-path="url(#paee73e3cc1)" style="fill: #332288; fill-opacity: 0.6; stroke: #ffffff; stroke-opacity: 0.6; stroke-width: 0.339411"/>
    <path d="M 169.86727 107.91809 
L 170.927931 106.85743 
L 171.988591 107.91809 
L 173.049251 106.85743 
L 171.988591 105.796769 
L 173.049251 104.736109 
L 171.988591 103.675449 
L 170.927931 104.736109 
L 169.86727 103.675449 
L 168.80661 104.736109 
L 169.86727 105.796769 
L 168.80661 106.85743 
z
" clip-path="url(#paee73e3cc1)" style="fill: #332288; fill-opacity: 0.6; stroke: #ffffff; stroke-opacity: 0.6; stroke-width: 0.339411"/>
    <path d="M 161.728976 105.587411 
L 162.789637 104.526751 
L 163.850297 105.587411 
L 164.910957 104.526751 
L 163.850297 103.466091 
L 164.910957 102.405431 
L 163.850297 101.344771 
L 162.789637 102.405431 
L 161.728976 101.344771 
L 160.668316 102.405431 
L 161.728976 103.466091 
L 160.668316 104.526751 
z
" clip-path="url(#paee73e3cc1)" style="fill: #332288; fill-opacity: 0.6; stroke: #ffffff; stroke-opacity: 0.6; stroke-width: 0.339411"/>
    <path d="M 157.452812 119.534091 
L 158.513473 118.473431 
L 159.574133 119.534091 
L 160.634793 118.473431 
L 159.574133 117.412771 
L 160.634793 116.352111 
L 159.574133 115.29145 
L 158.513473 116.352111 
L 157.452812 115.29145 
L 156.392152 116.352111 
L 157.452812 117.412771 
L 156.392152 118.473431 
z
" clip-path="url(#paee73e3cc1)" style="fill: #332288; fill-opacity: 0.6; stroke: #ffffff; stroke-opacity: 0.6; stroke-width: 0.339411"/>
    <path d="M 179.317375 133.073716 
L 180.378036 132.013055 
L 181.438696 133.073716 
L 182.499356 132.013055 
L 181.438696 130.952395 
L 182.499356 129.891735 
L 181.438696 128.831075 
L 180.378036 129.891735 
L 179.317375 128.831075 
L 178.256715 129.891735 
L 179.317375 130.952395 
L 178.256715 132.013055 
z
" clip-path="url(#paee73e3cc1)" style="fill: #332288; fill-opacity: 0.6; stroke: #ffffff; stroke-opacity: 0.6; stroke-width: 0.339411"/>
    <path d="M 143.172967 134.493074 
L 144.233627 133.432414 
L 145.294287 134.493074 
L 146.354948 133.432414 
L 145.294287 132.371754 
L 146.354948 131.311094 
L 145.294287 130.250434 
L 144.233627 131.311094 
L 143.172967 130.250434 
L 142.112307 131.311094 
L 143.172967 132.371754 
L 142.112307 133.432414 
z
" clip-path="url(#paee73e3cc1)" style="fill: #332288; fill-opacity: 0.6; stroke: #ffffff; stroke-opacity: 0.6; stroke-width: 0.339411"/>
    <path d="M 165.393962 109.475569 
L 166.454622 108.414909 
L 167.515282 109.475569 
L 168.575943 108.414909 
L 167.515282 107.354249 
L 168.575943 106.293588 
L 167.515282 105.232928 
L 166.454622 106.293588 
L 165.393962 105.232928 
L 164.333302 106.293588 
L 165.393962 107.354249 
L 164.333302 108.414909 
z
" clip-path="url(#paee73e3cc1)" style="fill: #332288; fill-opacity: 0.6; stroke: #ffffff; stroke-opacity: 0.6; stroke-width: 0.339411"/>
    <path d="M 162.991478 110.313447 
L 164.052138 109.252787 
L 165.112798 110.313447 
L 166.173458 109.252787 
L 165.112798 108.192127 
L 166.173458 107.131467 
L 165.112798 106.070806 
L 164.052138 107.131467 
L 162.991478 106.070806 
L 161.930818 107.131467 
L 162.991478 108.192127 
L 161.930818 109.252787 
z
" clip-path="url(#paee73e3cc1)" style="fill: #332288; fill-opacity: 0.6; stroke: #ffffff; stroke-opacity: 0.6; stroke-width: 0.339411"/>
    <path d="M 65.90903 118.499965 
L 66.96969 117.439305 
L 68.03035 118.499965 
L 69.09101 117.439305 
L 68.03035 116.378645 
L 69.09101 115.317985 
L 68.03035 114.257325 
L 66.96969 115.317985 
L 65.90903 114.257325 
L 64.84837 115.317985 
L 65.90903 116.378645 
L 64.84837 117.439305 
z
" clip-path="url(#paee73e3cc1)" style="fill: #332288; fill-opacity: 0.6; stroke: #ffffff; stroke-opacity: 0.6; stroke-width: 0.339411"/>
    <path d="M 150.341252 131.737153 
L 151.401912 130.676492 
L 152.462572 131.737153 
L 153.523232 130.676492 
L 152.462572 129.615832 
L 153.523232 128.555172 
L 152.462572 127.494512 
L 151.401912 128.555172 
L 150.341252 127.494512 
L 149.280591 128.555172 
L 150.341252 129.615832 
L 149.280591 130.676492 
z
" clip-path="url(#paee73e3cc1)" style="fill: #332288; fill-opacity: 0.6; stroke: #ffffff; stroke-opacity: 0.6; stroke-width: 0.339411"/>
    <path d="M 173.084168 130.097143 
L 174.144829 129.036483 
L 175.205489 130.097143 
L 176.266149 129.036483 
L 175.205489 127.975823 
L 176.266149 126.915163 
L 175.205489 125.854503 
L 174.144829 126.915163 
L 173.084168 125.854503 
L 172.023508 126.915163 
L 173.084168 127.975823 
L 172.023508 129.036483 
z
" clip-path="url(#paee73e3cc1)" style="fill: #332288; fill-opacity: 0.6; stroke: #ffffff; stroke-opacity: 0.6; stroke-width: 0.339411"/>
    <path d="M 158.908247 129.681146 
L 159.968907 128.620486 
L 161.029568 129.681146 
L 162.090228 128.620486 
L 161.029568 127.559826 
L 162.090228 126.499166 
L 161.029568 125.438506 
L 159.968907 126.499166 
L 158.908247 125.438506 
L 157.847587 126.499166 
L 158.908247 127.559826 
L 157.847587 128.620486 
z
" clip-path="url(#paee73e3cc1)" style="fill: #332288; fill-opacity: 0.6; stroke: #ffffff; stroke-opacity: 0.6; stroke-width: 0.339411"/>
    <path d="M 157.747524 117.082474 
L 158.808184 116.021814 
L 159.868845 117.082474 
L 160.929505 116.021814 
L 159.868845 114.961154 
L 160.929505 113.900493 
L 159.868845 112.839833 
L 158.808184 113.900493 
L 157.747524 112.839833 
L 156.686864 113.900493 
L 157.747524 114.961154 
L 156.686864 116.021814 
z
" clip-path="url(#paee73e3cc1)" style="fill: #332288; fill-opacity: 0.6; stroke: #ffffff; stroke-opacity: 0.6; stroke-width: 0.339411"/>
    <path d="M 164.723562 106.658621 
L 165.784222 105.597961 
L 166.844882 106.658621 
L 167.905542 105.597961 
L 166.844882 104.537301 
L 167.905542 103.476641 
L 166.844882 102.415981 
L 165.784222 103.476641 
L 164.723562 102.415981 
L 163.662902 103.476641 
L 164.723562 104.537301 
L 163.662902 105.597961 
z
" clip-path="url(#paee73e3cc1)" style="fill: #332288; fill-opacity: 0.6; stroke: #ffffff; stroke-opacity: 0.6; stroke-width: 0.339411"/>
    <path d="M 171.442732 106.963957 
L 172.503392 105.903297 
L 173.564052 106.963957 
L 174.624713 105.903297 
L 173.564052 104.842637 
L 174.624713 103.781976 
L 173.564052 102.721316 
L 172.503392 103.781976 
L 171.442732 102.721316 
L 170.382072 103.781976 
L 171.442732 104.842637 
L 170.382072 105.903297 
z
" clip-path="url(#paee73e3cc1)" style="fill: #332288; fill-opacity: 0.6; stroke: #ffffff; stroke-opacity: 0.6; stroke-width: 0.339411"/>
    <path d="M 166.57357 104.447008 
L 167.63423 103.386348 
L 168.694891 104.447008 
L 169.755551 103.386348 
L 168.694891 102.325688 
L 169.755551 101.265028 
L 168.694891 100.204368 
L 167.63423 101.265028 
L 166.57357 100.204368 
L 165.51291 101.265028 
L 166.57357 102.325688 
L 165.51291 103.386348 
z
" clip-path="url(#paee73e3cc1)" style="fill: #332288; fill-opacity: 0.6; stroke: #ffffff; stroke-opacity: 0.6; stroke-width: 0.339411"/>
    <path d="M 168.750359 116.927595 
L 169.81102 115.866935 
L 170.87168 116.927595 
L 171.93234 115.866935 
L 170.87168 114.806275 
L 171.93234 113.745615 
L 170.87168 112.684955 
L 169.81102 113.745615 
L 168.750359 112.684955 
L 167.689699 113.745615 
L 168.750359 114.806275 
L 167.689699 115.866935 
z
" clip-path="url(#paee73e3cc1)" style="fill: #332288; fill-opacity: 0.6; stroke: #ffffff; stroke-opacity: 0.6; stroke-width: 0.339411"/>
    <path d="M 182.619677 132.178849 
L 183.680337 131.118189 
L 184.740998 132.178849 
L 185.801658 131.118189 
L 184.740998 130.057529 
L 185.801658 128.996869 
L 184.740998 127.936209 
L 183.680337 128.996869 
L 182.619677 127.936209 
L 181.559017 128.996869 
L 182.619677 130.057529 
L 181.559017 131.118189 
z
" clip-path="url(#paee73e3cc1)" style="fill: #332288; fill-opacity: 0.6; stroke: #ffffff; stroke-opacity: 0.6; stroke-width: 0.339411"/>
    <path d="M 164.239182 109.752564 
L 165.299842 108.691904 
L 166.360502 109.752564 
L 167.421162 108.691904 
L 166.360502 107.631244 
L 167.421162 106.570584 
L 166.360502 105.509924 
L 165.299842 106.570584 
L 164.239182 105.509924 
L 163.178521 106.570584 
L 164.239182 107.631244 
L 163.178521 108.691904 
z
" clip-path="url(#paee73e3cc1)" style="fill: #332288; fill-opacity: 0.6; stroke: #ffffff; stroke-opacity: 0.6; stroke-width: 0.339411"/>
    <path d="M 164.086022 107.346141 
L 165.146682 106.285481 
L 166.207343 107.346141 
L 167.268003 106.285481 
L 166.207343 105.224821 
L 167.268003 104.164161 
L 166.207343 103.103501 
L 165.146682 104.164161 
L 164.086022 103.103501 
L 163.025362 104.164161 
L 164.086022 105.224821 
L 163.025362 106.285481 
z
" clip-path="url(#paee73e3cc1)" style="fill: #332288; fill-opacity: 0.6; stroke: #ffffff; stroke-opacity: 0.6; stroke-width: 0.339411"/>
    <path d="M 168.434957 108.038599 
L 169.495617 106.977939 
L 170.556277 108.038599 
L 171.616937 106.977939 
L 170.556277 105.917279 
L 171.616937 104.856618 
L 170.556277 103.795958 
L 169.495617 104.856618 
L 168.434957 103.795958 
L 167.374296 104.856618 
L 168.434957 105.917279 
L 167.374296 106.977939 
z
" clip-path="url(#paee73e3cc1)" style="fill: #332288; fill-opacity: 0.6; stroke: #ffffff; stroke-opacity: 0.6; stroke-width: 0.339411"/>
    <path d="M 168.206794 107.204434 
L 169.267455 106.143774 
L 170.328115 107.204434 
L 171.388775 106.143774 
L 170.328115 105.083114 
L 171.388775 104.022454 
L 170.328115 102.961793 
L 169.267455 104.022454 
L 168.206794 102.961793 
L 167.146134 104.022454 
L 168.206794 105.083114 
L 167.146134 106.143774 
z
" clip-path="url(#paee73e3cc1)" style="fill: #332288; fill-opacity: 0.6; stroke: #ffffff; stroke-opacity: 0.6; stroke-width: 0.339411"/>
    <path d="M 130.823083 135.523427 
L 131.883743 134.462766 
L 132.944403 135.523427 
L 134.005063 134.462766 
L 132.944403 133.402106 
L 134.005063 132.341446 
L 132.944403 131.280786 
L 131.883743 132.341446 
L 130.823083 131.280786 
L 129.762423 132.341446 
L 130.823083 133.402106 
L 129.762423 134.462766 
z
" clip-path="url(#paee73e3cc1)" style="fill: #332288; fill-opacity: 0.6; stroke: #ffffff; stroke-opacity: 0.6; stroke-width: 0.339411"/>
    <path d="M 161.28586 117.499763 
L 162.346521 116.439103 
L 163.407181 117.499763 
L 164.467841 116.439103 
L 163.407181 115.378443 
L 164.467841 114.317783 
L 163.407181 113.257123 
L 162.346521 114.317783 
L 161.28586 113.257123 
L 160.2252 114.317783 
L 161.28586 115.378443 
L 160.2252 116.439103 
z
" clip-path="url(#paee73e3cc1)" style="fill: #332288; fill-opacity: 0.6; stroke: #ffffff; stroke-opacity: 0.6; stroke-width: 0.339411"/>
    <path d="M 144.716817 133.084341 
L 145.777478 132.023681 
L 146.838138 133.084341 
L 147.898798 132.023681 
L 146.838138 130.96302 
L 147.898798 129.90236 
L 146.838138 128.8417 
L 145.777478 129.90236 
L 144.716817 128.8417 
L 143.656157 129.90236 
L 144.716817 130.96302 
L 143.656157 132.023681 
z
" clip-path="url(#paee73e3cc1)" style="fill: #332288; fill-opacity: 0.6; stroke: #ffffff; stroke-opacity: 0.6; stroke-width: 0.339411"/>
    <path d="M 161.920568 104.907498 
L 162.981228 103.846837 
L 164.041888 104.907498 
L 165.102548 103.846837 
L 164.041888 102.786177 
L 165.102548 101.725517 
L 164.041888 100.664857 
L 162.981228 101.725517 
L 161.920568 100.664857 
L 160.859908 101.725517 
L 161.920568 102.786177 
L 160.859908 103.846837 
z
" clip-path="url(#paee73e3cc1)" style="fill: #332288; fill-opacity: 0.6; stroke: #ffffff; stroke-opacity: 0.6; stroke-width: 0.339411"/>
    <path d="M 132.399528 137.16324 
L 133.460188 136.102579 
L 134.520848 137.16324 
L 135.581508 136.102579 
L 134.520848 135.041919 
L 135.581508 133.981259 
L 134.520848 132.920599 
L 133.460188 133.981259 
L 132.399528 132.920599 
L 131.338868 133.981259 
L 132.399528 135.041919 
L 131.338868 136.102579 
z
" clip-path="url(#paee73e3cc1)" style="fill: #332288; fill-opacity: 0.6; stroke: #ffffff; stroke-opacity: 0.6; stroke-width: 0.339411"/>
    <path d="M 131.518614 136.094475 
L 132.579274 135.033815 
L 133.639934 136.094475 
L 134.700594 135.033815 
L 133.639934 133.973155 
L 134.700594 132.912495 
L 133.639934 131.851835 
L 132.579274 132.912495 
L 131.518614 131.851835 
L 130.457954 132.912495 
L 131.518614 133.973155 
L 130.457954 135.033815 
z
" clip-path="url(#paee73e3cc1)" style="fill: #332288; fill-opacity: 0.6; stroke: #ffffff; stroke-opacity: 0.6; stroke-width: 0.339411"/>
    <path d="M 193.344361 154.892011 
L 194.405021 153.831351 
L 195.465681 154.892011 
L 196.526341 153.831351 
L 195.465681 152.770691 
L 196.526341 151.710031 
L 195.465681 150.649371 
L 194.405021 151.710031 
L 193.344361 150.649371 
L 192.2837 151.710031 
L 193.344361 152.770691 
L 192.2837 153.831351 
z
" clip-path="url(#paee73e3cc1)" style="fill: #332288; fill-opacity: 0.6; stroke: #ffffff; stroke-opacity: 0.6; stroke-width: 0.339411"/>
    <path d="M 166.426922 111.505525 
L 167.487582 110.444865 
L 168.548243 111.505525 
L 169.608903 110.444865 
L 168.548243 109.384204 
L 169.608903 108.323544 
L 168.548243 107.262884 
L 167.487582 108.323544 
L 166.426922 107.262884 
L 165.366262 108.323544 
L 166.426922 109.384204 
L 165.366262 110.444865 
z
" clip-path="url(#paee73e3cc1)" style="fill: #332288; fill-opacity: 0.6; stroke: #ffffff; stroke-opacity: 0.6; stroke-width: 0.339411"/>
    <path d="M 160.346232 121.229017 
L 161.406892 120.168357 
L 162.467552 121.229017 
L 163.528212 120.168357 
L 162.467552 119.107697 
L 163.528212 118.047036 
L 162.467552 116.986376 
L 161.406892 118.047036 
L 160.346232 116.986376 
L 159.285571 118.047036 
L 160.346232 119.107697 
L 159.285571 120.168357 
z
" clip-path="url(#paee73e3cc1)" style="fill: #332288; fill-opacity: 0.6; stroke: #ffffff; stroke-opacity: 0.6; stroke-width: 0.339411"/>
    <path d="M 145.789737 133.425021 
L 146.850397 132.364361 
L 147.911057 133.425021 
L 148.971718 132.364361 
L 147.911057 131.303701 
L 148.971718 130.243041 
L 147.911057 129.182381 
L 146.850397 130.243041 
L 145.789737 129.182381 
L 144.729077 130.243041 
L 145.789737 131.303701 
L 144.729077 132.364361 
z
" clip-path="url(#paee73e3cc1)" style="fill: #332288; fill-opacity: 0.6; stroke: #ffffff; stroke-opacity: 0.6; stroke-width: 0.339411"/>
    <path d="M 160.751825 128.006914 
L 161.812485 126.946254 
L 162.873145 128.006914 
L 163.933805 126.946254 
L 162.873145 125.885594 
L 163.933805 124.824934 
L 162.873145 123.764274 
L 161.812485 124.824934 
L 160.751825 123.764274 
L 159.691164 124.824934 
L 160.751825 125.885594 
L 159.691164 126.946254 
z
" clip-path="url(#paee73e3cc1)" style="fill: #332288; fill-opacity: 0.6; stroke: #ffffff; stroke-opacity: 0.6; stroke-width: 0.339411"/>
    <path d="M 163.520789 105.42757 
L 164.581449 104.36691 
L 165.64211 105.42757 
L 166.70277 104.36691 
L 165.64211 103.30625 
L 166.70277 102.24559 
L 165.64211 101.18493 
L 164.581449 102.24559 
L 163.520789 101.18493 
L 162.460129 102.24559 
L 163.520789 103.30625 
L 162.460129 104.36691 
z
" clip-path="url(#paee73e3cc1)" style="fill: #332288; fill-opacity: 0.6; stroke: #ffffff; stroke-opacity: 0.6; stroke-width: 0.339411"/>
    <path d="M 169.020769 107.864195 
L 170.081429 106.803535 
L 171.142089 107.864195 
L 172.20275 106.803535 
L 171.142089 105.742875 
L 172.20275 104.682215 
L 171.142089 103.621554 
L 170.081429 104.682215 
L 169.020769 103.621554 
L 167.960109 104.682215 
L 169.020769 105.742875 
L 167.960109 106.803535 
z
" clip-path="url(#paee73e3cc1)" style="fill: #332288; fill-opacity: 0.6; stroke: #ffffff; stroke-opacity: 0.6; stroke-width: 0.339411"/>
    <path d="M 141.39973 132.451337 
L 142.46039 131.390677 
L 143.52105 132.451337 
L 144.581711 131.390677 
L 143.52105 130.330017 
L 144.581711 129.269356 
L 143.52105 128.208696 
L 142.46039 129.269356 
L 141.39973 128.208696 
L 140.33907 129.269356 
L 141.39973 130.330017 
L 140.33907 131.390677 
z
" clip-path="url(#paee73e3cc1)" style="fill: #332288; fill-opacity: 0.6; stroke: #ffffff; stroke-opacity: 0.6; stroke-width: 0.339411"/>
    <path d="M 160.103556 115.982111 
L 161.164216 114.92145 
L 162.224876 115.982111 
L 163.285537 114.92145 
L 162.224876 113.86079 
L 163.285537 112.80013 
L 162.224876 111.73947 
L 161.164216 112.80013 
L 160.103556 111.73947 
L 159.042896 112.80013 
L 160.103556 113.86079 
L 159.042896 114.92145 
z
" clip-path="url(#paee73e3cc1)" style="fill: #332288; fill-opacity: 0.6; stroke: #ffffff; stroke-opacity: 0.6; stroke-width: 0.339411"/>
    <path d="M 169.169526 113.681192 
L 170.230186 112.620532 
L 171.290846 113.681192 
L 172.351506 112.620532 
L 171.290846 111.559871 
L 172.351506 110.499211 
L 171.290846 109.438551 
L 170.230186 110.499211 
L 169.169526 109.438551 
L 168.108866 110.499211 
L 169.169526 111.559871 
L 168.108866 112.620532 
z
" clip-path="url(#paee73e3cc1)" style="fill: #332288; fill-opacity: 0.6; stroke: #ffffff; stroke-opacity: 0.6; stroke-width: 0.339411"/>
    <path d="M 67.556444 119.4387 
L 68.617104 118.37804 
L 69.677764 119.4387 
L 70.738425 118.37804 
L 69.677764 117.31738 
L 70.738425 116.25672 
L 69.677764 115.19606 
L 68.617104 116.25672 
L 67.556444 115.19606 
L 66.495784 116.25672 
L 67.556444 117.31738 
L 66.495784 118.37804 
z
" clip-path="url(#paee73e3cc1)" style="fill: #332288; fill-opacity: 0.6; stroke: #ffffff; stroke-opacity: 0.6; stroke-width: 0.339411"/>
    <path d="M 159.878356 118.484138 
L 160.939016 117.423478 
L 161.999676 118.484138 
L 163.060336 117.423478 
L 161.999676 116.362818 
L 163.060336 115.302157 
L 161.999676 114.241497 
L 160.939016 115.302157 
L 159.878356 114.241497 
L 158.817696 115.302157 
L 159.878356 116.362818 
L 158.817696 117.423478 
z
" clip-path="url(#paee73e3cc1)" style="fill: #332288; fill-opacity: 0.6; stroke: #ffffff; stroke-opacity: 0.6; stroke-width: 0.339411"/>
    <path d="M 169.429677 108.822217 
L 170.490337 107.761557 
L 171.550997 108.822217 
L 172.611657 107.761557 
L 171.550997 106.700897 
L 172.611657 105.640237 
L 171.550997 104.579577 
L 170.490337 105.640237 
L 169.429677 104.579577 
L 168.369016 105.640237 
L 169.429677 106.700897 
L 168.369016 107.761557 
z
" clip-path="url(#paee73e3cc1)" style="fill: #332288; fill-opacity: 0.6; stroke: #ffffff; stroke-opacity: 0.6; stroke-width: 0.339411"/>
    <path d="M 143.957148 130.709091 
L 145.017809 129.648431 
L 146.078469 130.709091 
L 147.139129 129.648431 
L 146.078469 128.587771 
L 147.139129 127.527111 
L 146.078469 126.466451 
L 145.017809 127.527111 
L 143.957148 126.466451 
L 142.896488 127.527111 
L 143.957148 128.587771 
L 142.896488 129.648431 
z
" clip-path="url(#paee73e3cc1)" style="fill: #332288; fill-opacity: 0.6; stroke: #ffffff; stroke-opacity: 0.6; stroke-width: 0.339411"/>
    <path d="M 153.553827 130.721442 
L 154.614487 129.660782 
L 155.675147 130.721442 
L 156.735808 129.660782 
L 155.675147 128.600122 
L 156.735808 127.539461 
L 155.675147 126.478801 
L 154.614487 127.539461 
L 153.553827 126.478801 
L 152.493167 127.539461 
L 153.553827 128.600122 
L 152.493167 129.660782 
z
" clip-path="url(#paee73e3cc1)" style="fill: #332288; fill-opacity: 0.6; stroke: #ffffff; stroke-opacity: 0.6; stroke-width: 0.339411"/>
    <path d="M 65.394654 120.026046 
L 66.455314 118.965386 
L 67.515974 120.026046 
L 68.576634 118.965386 
L 67.515974 117.904726 
L 68.576634 116.844066 
L 67.515974 115.783406 
L 66.455314 116.844066 
L 65.394654 115.783406 
L 64.333993 116.844066 
L 65.394654 117.904726 
L 64.333993 118.965386 
z
" clip-path="url(#paee73e3cc1)" style="fill: #332288; fill-opacity: 0.6; stroke: #ffffff; stroke-opacity: 0.6; stroke-width: 0.339411"/>
    <path d="M 142.413678 132.362816 
L 143.474339 131.302156 
L 144.534999 132.362816 
L 145.595659 131.302156 
L 144.534999 130.241496 
L 145.595659 129.180836 
L 144.534999 128.120176 
L 143.474339 129.180836 
L 142.413678 128.120176 
L 141.353018 129.180836 
L 142.413678 130.241496 
L 141.353018 131.302156 
z
" clip-path="url(#paee73e3cc1)" style="fill: #332288; fill-opacity: 0.6; stroke: #ffffff; stroke-opacity: 0.6; stroke-width: 0.339411"/>
    <path d="M 140.994041 130.213012 
L 142.054702 129.152351 
L 143.115362 130.213012 
L 144.176022 129.152351 
L 143.115362 128.091691 
L 144.176022 127.031031 
L 143.115362 125.970371 
L 142.054702 127.031031 
L 140.994041 125.970371 
L 139.933381 127.031031 
L 140.994041 128.091691 
L 139.933381 129.152351 
z
" clip-path="url(#paee73e3cc1)" style="fill: #332288; fill-opacity: 0.6; stroke: #ffffff; stroke-opacity: 0.6; stroke-width: 0.339411"/>
    <path d="M 170.318085 108.574453 
L 171.378745 107.513793 
L 172.439406 108.574453 
L 173.500066 107.513793 
L 172.439406 106.453132 
L 173.500066 105.392472 
L 172.439406 104.331812 
L 171.378745 105.392472 
L 170.318085 104.331812 
L 169.257425 105.392472 
L 170.318085 106.453132 
L 169.257425 107.513793 
z
" clip-path="url(#paee73e3cc1)" style="fill: #332288; fill-opacity: 0.6; stroke: #ffffff; stroke-opacity: 0.6; stroke-width: 0.339411"/>
    <path d="M 67.337318 119.169633 
L 68.397978 118.108972 
L 69.458638 119.169633 
L 70.519298 118.108972 
L 69.458638 117.048312 
L 70.519298 115.987652 
L 69.458638 114.926992 
L 68.397978 115.987652 
L 67.337318 114.926992 
L 66.276658 115.987652 
L 67.337318 117.048312 
L 66.276658 118.108972 
z
" clip-path="url(#paee73e3cc1)" style="fill: #332288; fill-opacity: 0.6; stroke: #ffffff; stroke-opacity: 0.6; stroke-width: 0.339411"/>
    <path d="M 66.506972 120.480343 
L 67.567632 119.419683 
L 68.628292 120.480343 
L 69.688952 119.419683 
L 68.628292 118.359022 
L 69.688952 117.298362 
L 68.628292 116.237702 
L 67.567632 117.298362 
L 66.506972 116.237702 
L 65.446311 117.298362 
L 66.506972 118.359022 
L 65.446311 119.419683 
z
" clip-path="url(#paee73e3cc1)" style="fill: #332288; fill-opacity: 0.6; stroke: #ffffff; stroke-opacity: 0.6; stroke-width: 0.339411"/>
    <path d="M 163.006072 105.253396 
L 164.066732 104.192735 
L 165.127392 105.253396 
L 166.188052 104.192735 
L 165.127392 103.132075 
L 166.188052 102.071415 
L 165.127392 101.010755 
L 164.066732 102.071415 
L 163.006072 101.010755 
L 161.945411 102.071415 
L 163.006072 103.132075 
L 161.945411 104.192735 
z
" clip-path="url(#paee73e3cc1)" style="fill: #332288; fill-opacity: 0.6; stroke: #ffffff; stroke-opacity: 0.6; stroke-width: 0.339411"/>
    <path d="M 133.216836 136.862678 
L 134.277496 135.802018 
L 135.338156 136.862678 
L 136.398816 135.802018 
L 135.338156 134.741358 
L 136.398816 133.680697 
L 135.338156 132.620037 
L 134.277496 133.680697 
L 133.216836 132.620037 
L 132.156175 133.680697 
L 133.216836 134.741358 
L 132.156175 135.802018 
z
" clip-path="url(#paee73e3cc1)" style="fill: #332288; fill-opacity: 0.6; stroke: #ffffff; stroke-opacity: 0.6; stroke-width: 0.339411"/>
    <path d="M 157.981666 119.907055 
L 159.042326 118.846395 
L 160.102987 119.907055 
L 161.163647 118.846395 
L 160.102987 117.785735 
L 161.163647 116.725075 
L 160.102987 115.664415 
L 159.042326 116.725075 
L 157.981666 115.664415 
L 156.921006 116.725075 
L 157.981666 117.785735 
L 156.921006 118.846395 
z
" clip-path="url(#paee73e3cc1)" style="fill: #332288; fill-opacity: 0.6; stroke: #ffffff; stroke-opacity: 0.6; stroke-width: 0.339411"/>
    <path d="M 176.753328 136.845376 
L 177.813988 135.784716 
L 178.874648 136.845376 
L 179.935309 135.784716 
L 178.874648 134.724055 
L 179.935309 133.663395 
L 178.874648 132.602735 
L 177.813988 133.663395 
L 176.753328 132.602735 
L 175.692668 133.663395 
L 176.753328 134.724055 
L 175.692668 135.784716 
z
" clip-path="url(#paee73e3cc1)" style="fill: #332288; fill-opacity: 0.6; stroke: #ffffff; stroke-opacity: 0.6; stroke-width: 0.339411"/>
    <path d="M 171.429858 128.423861 
L 172.490518 127.363201 
L 173.551178 128.423861 
L 174.611838 127.363201 
L 173.551178 126.30254 
L 174.611838 125.24188 
L 173.551178 124.18122 
L 172.490518 125.24188 
L 171.429858 124.18122 
L 170.369197 125.24188 
L 171.429858 126.30254 
L 170.369197 127.363201 
z
" clip-path="url(#paee73e3cc1)" style="fill: #332288; fill-opacity: 0.6; stroke: #ffffff; stroke-opacity: 0.6; stroke-width: 0.339411"/>
    <path d="M 143.04393 132.901881 
L 144.104591 131.841221 
L 145.165251 132.901881 
L 146.225911 131.841221 
L 145.165251 130.780561 
L 146.225911 129.719901 
L 145.165251 128.65924 
L 144.104591 129.719901 
L 143.04393 128.65924 
L 141.98327 129.719901 
L 143.04393 130.780561 
L 141.98327 131.841221 
z
" clip-path="url(#paee73e3cc1)" style="fill: #332288; fill-opacity: 0.6; stroke: #ffffff; stroke-opacity: 0.6; stroke-width: 0.339411"/>
    <path d="M 164.590617 111.265329 
L 165.651277 110.204669 
L 166.711938 111.265329 
L 167.772598 110.204669 
L 166.711938 109.144009 
L 167.772598 108.083348 
L 166.711938 107.022688 
L 165.651277 108.083348 
L 164.590617 107.022688 
L 163.529957 108.083348 
L 164.590617 109.144009 
L 163.529957 110.204669 
z
" clip-path="url(#paee73e3cc1)" style="fill: #332288; fill-opacity: 0.6; stroke: #ffffff; stroke-opacity: 0.6; stroke-width: 0.339411"/>
    <path d="M 142.213999 129.460397 
L 143.274659 128.399737 
L 144.335319 129.460397 
L 145.395979 128.399737 
L 144.335319 127.339076 
L 145.395979 126.278416 
L 144.335319 125.217756 
L 143.274659 126.278416 
L 142.213999 125.217756 
L 141.153338 126.278416 
L 142.213999 127.339076 
L 141.153338 128.399737 
z
" clip-path="url(#paee73e3cc1)" style="fill: #332288; fill-opacity: 0.6; stroke: #ffffff; stroke-opacity: 0.6; stroke-width: 0.339411"/>
    <path d="M 159.596549 108.568037 
L 160.65721 107.507377 
L 161.71787 108.568037 
L 162.77853 107.507377 
L 161.71787 106.446717 
L 162.77853 105.386057 
L 161.71787 104.325396 
L 160.65721 105.386057 
L 159.596549 104.325396 
L 158.535889 105.386057 
L 159.596549 106.446717 
L 158.535889 107.507377 
z
" clip-path="url(#paee73e3cc1)" style="fill: #332288; fill-opacity: 0.6; stroke: #ffffff; stroke-opacity: 0.6; stroke-width: 0.339411"/>
    <path d="M 168.273901 122.33015 
L 169.334561 121.26949 
L 170.395221 122.33015 
L 171.455881 121.26949 
L 170.395221 120.20883 
L 171.455881 119.14817 
L 170.395221 118.087509 
L 169.334561 119.14817 
L 168.273901 118.087509 
L 167.21324 119.14817 
L 168.273901 120.20883 
L 167.21324 121.26949 
z
" clip-path="url(#paee73e3cc1)" style="fill: #332288; fill-opacity: 0.6; stroke: #ffffff; stroke-opacity: 0.6; stroke-width: 0.339411"/>
    <path d="M 172.014344 137.657658 
L 173.428557 137.657658 
L 173.428557 136.243444 
L 174.842771 136.243444 
L 174.842771 134.82923 
L 173.428557 134.82923 
L 173.428557 133.415017 
L 172.014344 133.415017 
L 172.014344 134.82923 
L 170.60013 134.82923 
L 170.60013 136.243444 
L 172.014344 136.243444 
z
" clip-path="url(#paee73e3cc1)" style="fill: #117733; fill-opacity: 0.6; stroke: #ffffff; stroke-opacity: 0.6; stroke-width: 0.339411"/>
    <path d="M 176.110109 161.932951 
L 177.524322 161.932951 
L 177.524322 160.518737 
L 178.938536 160.518737 
L 178.938536 159.104524 
L 177.524322 159.104524 
L 177.524322 157.69031 
L 176.110109 157.69031 
L 176.110109 159.104524 
L 174.695895 159.104524 
L 174.695895 160.518737 
L 176.110109 160.518737 
z
" clip-path="url(#paee73e3cc1)" style="fill: #117733; fill-opacity: 0.6; stroke: #ffffff; stroke-opacity: 0.6; stroke-width: 0.339411"/>
    <path d="M 165.141377 144.112893 
L 166.55559 144.112893 
L 166.55559 142.698679 
L 167.969804 142.698679 
L 167.969804 141.284465 
L 166.55559 141.284465 
L 166.55559 139.870252 
L 165.141377 139.870252 
L 165.141377 141.284465 
L 163.727163 141.284465 
L 163.727163 142.698679 
L 165.141377 142.698679 
z
" clip-path="url(#paee73e3cc1)" style="fill: #117733; fill-opacity: 0.6; stroke: #ffffff; stroke-opacity: 0.6; stroke-width: 0.339411"/>
    <path d="M 176.234662 155.618182 
L 177.648875 155.618182 
L 177.648875 154.203969 
L 179.063089 154.203969 
L 179.063089 152.789755 
L 177.648875 152.789755 
L 177.648875 151.375542 
L 176.234662 151.375542 
L 176.234662 152.789755 
L 174.820448 152.789755 
L 174.820448 154.203969 
L 176.234662 154.203969 
z
" clip-path="url(#paee73e3cc1)" style="fill: #117733; fill-opacity: 0.6; stroke: #ffffff; stroke-opacity: 0.6; stroke-width: 0.339411"/>
    <path d="M 167.181511 159.375484 
L 168.595725 159.375484 
L 168.595725 157.96127 
L 170.009938 157.96127 
L 170.009938 156.547057 
L 168.595725 156.547057 
L 168.595725 155.132843 
L 167.181511 155.132843 
L 167.181511 156.547057 
L 165.767298 156.547057 
L 165.767298 157.96127 
L 167.181511 157.96127 
z
" clip-path="url(#paee73e3cc1)" style="fill: #117733; fill-opacity: 0.6; stroke: #ffffff; stroke-opacity: 0.6; stroke-width: 0.339411"/>
    <path d="M 173.553253 161.717208 
L 174.967467 161.717208 
L 174.967467 160.302994 
L 176.38168 160.302994 
L 176.38168 158.888781 
L 174.967467 158.888781 
L 174.967467 157.474567 
L 173.553253 157.474567 
L 173.553253 158.888781 
L 172.139039 158.888781 
L 172.139039 160.302994 
L 173.553253 160.302994 
z
" clip-path="url(#paee73e3cc1)" style="fill: #117733; fill-opacity: 0.6; stroke: #ffffff; stroke-opacity: 0.6; stroke-width: 0.339411"/>
    <path d="M 180.041336 144.382086 
L 181.45555 144.382086 
L 181.45555 142.967872 
L 182.869763 142.967872 
L 182.869763 141.553659 
L 181.45555 141.553659 
L 181.45555 140.139445 
L 180.041336 140.139445 
L 180.041336 141.553659 
L 178.627123 141.553659 
L 178.627123 142.967872 
L 180.041336 142.967872 
z
" clip-path="url(#paee73e3cc1)" style="fill: #117733; fill-opacity: 0.6; stroke: #ffffff; stroke-opacity: 0.6; stroke-width: 0.339411"/>
    <path d="M 165.011796 136.590331 
L 166.42601 136.590331 
L 166.42601 135.176118 
L 167.840223 135.176118 
L 167.840223 133.761904 
L 166.42601 133.761904 
L 166.42601 132.34769 
L 165.011796 132.34769 
L 165.011796 133.761904 
L 163.597583 133.761904 
L 163.597583 135.176118 
L 165.011796 135.176118 
z
" clip-path="url(#paee73e3cc1)" style="fill: #117733; fill-opacity: 0.6; stroke: #ffffff; stroke-opacity: 0.6; stroke-width: 0.339411"/>
    <path d="M 185.131537 151.190342 
L 186.54575 151.190342 
L 186.54575 149.776128 
L 187.959964 149.776128 
L 187.959964 148.361915 
L 186.54575 148.361915 
L 186.54575 146.947701 
L 185.131537 146.947701 
L 185.131537 148.361915 
L 183.717323 148.361915 
L 183.717323 149.776128 
L 185.131537 149.776128 
z
" clip-path="url(#paee73e3cc1)" style="fill: #117733; fill-opacity: 0.6; stroke: #ffffff; stroke-opacity: 0.6; stroke-width: 0.339411"/>
    <path d="M 164.322548 140.568235 
L 165.736761 140.568235 
L 165.736761 139.154022 
L 167.150975 139.154022 
L 167.150975 137.739808 
L 165.736761 137.739808 
L 165.736761 136.325594 
L 164.322548 136.325594 
L 164.322548 137.739808 
L 162.908334 137.739808 
L 162.908334 139.154022 
L 164.322548 139.154022 
z
" clip-path="url(#paee73e3cc1)" style="fill: #117733; fill-opacity: 0.6; stroke: #ffffff; stroke-opacity: 0.6; stroke-width: 0.339411"/>
    <path d="M 190.018866 147.004876 
L 191.43308 147.004876 
L 191.43308 145.590662 
L 192.847294 145.590662 
L 192.847294 144.176448 
L 191.43308 144.176448 
L 191.43308 142.762235 
L 190.018866 142.762235 
L 190.018866 144.176448 
L 188.604653 144.176448 
L 188.604653 145.590662 
L 190.018866 145.590662 
z
" clip-path="url(#paee73e3cc1)" style="fill: #117733; fill-opacity: 0.6; stroke: #ffffff; stroke-opacity: 0.6; stroke-width: 0.339411"/>
    <path d="M 174.656782 153.708123 
L 176.070996 153.708123 
L 176.070996 152.293909 
L 177.485209 152.293909 
L 177.485209 150.879696 
L 176.070996 150.879696 
L 176.070996 149.465482 
L 174.656782 149.465482 
L 174.656782 150.879696 
L 173.242569 150.879696 
L 173.242569 152.293909 
L 174.656782 152.293909 
z
" clip-path="url(#paee73e3cc1)" style="fill: #117733; fill-opacity: 0.6; stroke: #ffffff; stroke-opacity: 0.6; stroke-width: 0.339411"/>
    <path d="M 156.868196 132.596386 
L 158.28241 132.596386 
L 158.28241 131.182173 
L 159.696624 131.182173 
L 159.696624 129.767959 
L 158.28241 129.767959 
L 158.28241 128.353746 
L 156.868196 128.353746 
L 156.868196 129.767959 
L 155.453983 129.767959 
L 155.453983 131.182173 
L 156.868196 131.182173 
z
" clip-path="url(#paee73e3cc1)" style="fill: #117733; fill-opacity: 0.6; stroke: #ffffff; stroke-opacity: 0.6; stroke-width: 0.339411"/>
    <path d="M 179.60702 150.876392 
L 181.021233 150.876392 
L 181.021233 149.462178 
L 182.435447 149.462178 
L 182.435447 148.047964 
L 181.021233 148.047964 
L 181.021233 146.633751 
L 179.60702 146.633751 
L 179.60702 148.047964 
L 178.192806 148.047964 
L 178.192806 149.462178 
L 179.60702 149.462178 
z
" clip-path="url(#paee73e3cc1)" style="fill: #117733; fill-opacity: 0.6; stroke: #ffffff; stroke-opacity: 0.6; stroke-width: 0.339411"/>
    <path d="M 174.50883 147.33686 
L 175.923043 147.33686 
L 175.923043 145.922647 
L 177.337257 145.922647 
L 177.337257 144.508433 
L 175.923043 144.508433 
L 175.923043 143.09422 
L 174.50883 143.09422 
L 174.50883 144.508433 
L 173.094616 144.508433 
L 173.094616 145.922647 
L 174.50883 145.922647 
z
" clip-path="url(#paee73e3cc1)" style="fill: #117733; fill-opacity: 0.6; stroke: #ffffff; stroke-opacity: 0.6; stroke-width: 0.339411"/>
    <path d="M 168.699149 145.146496 
L 170.113362 145.146496 
L 170.113362 143.732282 
L 171.527576 143.732282 
L 171.527576 142.318069 
L 170.113362 142.318069 
L 170.113362 140.903855 
L 168.699149 140.903855 
L 168.699149 142.318069 
L 167.284935 142.318069 
L 167.284935 143.732282 
L 168.699149 143.732282 
z
" clip-path="url(#paee73e3cc1)" style="fill: #117733; fill-opacity: 0.6; stroke: #ffffff; stroke-opacity: 0.6; stroke-width: 0.339411"/>
    <path d="M 172.721271 143.975215 
L 174.135485 143.975215 
L 174.135485 142.561001 
L 175.549698 142.561001 
L 175.549698 141.146788 
L 174.135485 141.146788 
L 174.135485 139.732574 
L 172.721271 139.732574 
L 172.721271 141.146788 
L 171.307058 141.146788 
L 171.307058 142.561001 
L 172.721271 142.561001 
z
" clip-path="url(#paee73e3cc1)" style="fill: #117733; fill-opacity: 0.6; stroke: #ffffff; stroke-opacity: 0.6; stroke-width: 0.339411"/>
    <path d="M 184.260331 153.004319 
L 185.674545 153.004319 
L 185.674545 151.590105 
L 187.088758 151.590105 
L 187.088758 150.175892 
L 185.674545 150.175892 
L 185.674545 148.761678 
L 184.260331 148.761678 
L 184.260331 150.175892 
L 182.846118 150.175892 
L 182.846118 151.590105 
L 184.260331 151.590105 
z
" clip-path="url(#paee73e3cc1)" style="fill: #117733; fill-opacity: 0.6; stroke: #ffffff; stroke-opacity: 0.6; stroke-width: 0.339411"/>
    <path d="M 185.414221 157.144948 
L 186.828435 157.144948 
L 186.828435 155.730734 
L 188.242648 155.730734 
L 188.242648 154.316521 
L 186.828435 154.316521 
L 186.828435 152.902307 
L 185.414221 152.902307 
L 185.414221 154.316521 
L 184.000007 154.316521 
L 184.000007 155.730734 
L 185.414221 155.730734 
z
" clip-path="url(#paee73e3cc1)" style="fill: #117733; fill-opacity: 0.6; stroke: #ffffff; stroke-opacity: 0.6; stroke-width: 0.339411"/>
    <path d="M 181.523101 153.792524 
L 182.937315 153.792524 
L 182.937315 152.37831 
L 184.351529 152.37831 
L 184.351529 150.964097 
L 182.937315 150.964097 
L 182.937315 149.549883 
L 181.523101 149.549883 
L 181.523101 150.964097 
L 180.108888 150.964097 
L 180.108888 152.37831 
L 181.523101 152.37831 
z
" clip-path="url(#paee73e3cc1)" style="fill: #117733; fill-opacity: 0.6; stroke: #ffffff; stroke-opacity: 0.6; stroke-width: 0.339411"/>
    <path d="M 167.669039 139.258932 
L 169.083253 139.258932 
L 169.083253 137.844718 
L 170.497466 137.844718 
L 170.497466 136.430505 
L 169.083253 136.430505 
L 169.083253 135.016291 
L 167.669039 135.016291 
L 167.669039 136.430505 
L 166.254825 136.430505 
L 166.254825 137.844718 
L 167.669039 137.844718 
z
" clip-path="url(#paee73e3cc1)" style="fill: #117733; fill-opacity: 0.6; stroke: #ffffff; stroke-opacity: 0.6; stroke-width: 0.339411"/>
    <path d="M 167.008316 138.055323 
L 168.42253 138.055323 
L 168.42253 136.641109 
L 169.836744 136.641109 
L 169.836744 135.226896 
L 168.42253 135.226896 
L 168.42253 133.812682 
L 167.008316 133.812682 
L 167.008316 135.226896 
L 165.594103 135.226896 
L 165.594103 136.641109 
L 167.008316 136.641109 
z
" clip-path="url(#paee73e3cc1)" style="fill: #117733; fill-opacity: 0.6; stroke: #ffffff; stroke-opacity: 0.6; stroke-width: 0.339411"/>
    <path d="M 164.55306 156.985939 
L 165.967274 156.985939 
L 165.967274 155.571725 
L 167.381487 155.571725 
L 167.381487 154.157512 
L 165.967274 154.157512 
L 165.967274 152.743298 
L 164.55306 152.743298 
L 164.55306 154.157512 
L 163.138846 154.157512 
L 163.138846 155.571725 
L 164.55306 155.571725 
z
" clip-path="url(#paee73e3cc1)" style="fill: #117733; fill-opacity: 0.6; stroke: #ffffff; stroke-opacity: 0.6; stroke-width: 0.339411"/>
    <path d="M 190.950704 149.768502 
L 192.364917 149.768502 
L 192.364917 148.354289 
L 193.779131 148.354289 
L 193.779131 146.940075 
L 192.364917 146.940075 
L 192.364917 145.525862 
L 190.950704 145.525862 
L 190.950704 146.940075 
L 189.53649 146.940075 
L 189.53649 148.354289 
L 190.950704 148.354289 
z
" clip-path="url(#paee73e3cc1)" style="fill: #117733; fill-opacity: 0.6; stroke: #ffffff; stroke-opacity: 0.6; stroke-width: 0.339411"/>
    <path d="M 167.983731 154.471986 
L 169.397944 154.471986 
L 169.397944 153.057773 
L 170.812158 153.057773 
L 170.812158 151.643559 
L 169.397944 151.643559 
L 169.397944 150.229345 
L 167.983731 150.229345 
L 167.983731 151.643559 
L 166.569517 151.643559 
L 166.569517 153.057773 
L 167.983731 153.057773 
z
" clip-path="url(#paee73e3cc1)" style="fill: #117733; fill-opacity: 0.6; stroke: #ffffff; stroke-opacity: 0.6; stroke-width: 0.339411"/>
    <path d="M 183.72073 151.440981 
L 185.134943 151.440981 
L 185.134943 150.026768 
L 186.549157 150.026768 
L 186.549157 148.612554 
L 185.134943 148.612554 
L 185.134943 147.198341 
L 183.72073 147.198341 
L 183.72073 148.612554 
L 182.306516 148.612554 
L 182.306516 150.026768 
L 183.72073 150.026768 
z
" clip-path="url(#paee73e3cc1)" style="fill: #117733; fill-opacity: 0.6; stroke: #ffffff; stroke-opacity: 0.6; stroke-width: 0.339411"/>
    <path d="M 181.963725 153.206802 
L 183.377939 153.206802 
L 183.377939 151.792588 
L 184.792152 151.792588 
L 184.792152 150.378375 
L 183.377939 150.378375 
L 183.377939 148.964161 
L 181.963725 148.964161 
L 181.963725 150.378375 
L 180.549512 150.378375 
L 180.549512 151.792588 
L 181.963725 151.792588 
z
" clip-path="url(#paee73e3cc1)" style="fill: #117733; fill-opacity: 0.6; stroke: #ffffff; stroke-opacity: 0.6; stroke-width: 0.339411"/>
    <path d="M 179.281952 153.672454 
L 180.696165 153.672454 
L 180.696165 152.25824 
L 182.110379 152.25824 
L 182.110379 150.844026 
L 180.696165 150.844026 
L 180.696165 149.429813 
L 179.281952 149.429813 
L 179.281952 150.844026 
L 177.867738 150.844026 
L 177.867738 152.25824 
L 179.281952 152.25824 
z
" clip-path="url(#paee73e3cc1)" style="fill: #117733; fill-opacity: 0.6; stroke: #ffffff; stroke-opacity: 0.6; stroke-width: 0.339411"/>
    <path d="M 173.790431 139.103718 
L 175.204645 139.103718 
L 175.204645 137.689504 
L 176.618858 137.689504 
L 176.618858 136.275291 
L 175.204645 136.275291 
L 175.204645 134.861077 
L 173.790431 134.861077 
L 173.790431 136.275291 
L 172.376218 136.275291 
L 172.376218 137.689504 
L 173.790431 137.689504 
z
" clip-path="url(#paee73e3cc1)" style="fill: #117733; fill-opacity: 0.6; stroke: #ffffff; stroke-opacity: 0.6; stroke-width: 0.339411"/>
    <path d="M 172.607923 152.422182 
L 174.022136 152.422182 
L 174.022136 151.007969 
L 175.43635 151.007969 
L 175.43635 149.593755 
L 174.022136 149.593755 
L 174.022136 148.179541 
L 172.607923 148.179541 
L 172.607923 149.593755 
L 171.193709 149.593755 
L 171.193709 151.007969 
L 172.607923 151.007969 
z
" clip-path="url(#paee73e3cc1)" style="fill: #117733; fill-opacity: 0.6; stroke: #ffffff; stroke-opacity: 0.6; stroke-width: 0.339411"/>
    <path d="M 169.022763 136.218699 
L 170.436977 136.218699 
L 170.436977 134.804486 
L 171.85119 134.804486 
L 171.85119 133.390272 
L 170.436977 133.390272 
L 170.436977 131.976059 
L 169.022763 131.976059 
L 169.022763 133.390272 
L 167.60855 133.390272 
L 167.60855 134.804486 
L 169.022763 134.804486 
z
" clip-path="url(#paee73e3cc1)" style="fill: #117733; fill-opacity: 0.6; stroke: #ffffff; stroke-opacity: 0.6; stroke-width: 0.339411"/>
    <path d="M 174.340161 153.227169 
L 175.754375 153.227169 
L 175.754375 151.812955 
L 177.168589 151.812955 
L 177.168589 150.398742 
L 175.754375 150.398742 
L 175.754375 148.984528 
L 174.340161 148.984528 
L 174.340161 150.398742 
L 172.925948 150.398742 
L 172.925948 151.812955 
L 174.340161 151.812955 
z
" clip-path="url(#paee73e3cc1)" style="fill: #117733; fill-opacity: 0.6; stroke: #ffffff; stroke-opacity: 0.6; stroke-width: 0.339411"/>
    <path d="M 178.081659 149.863608 
L 179.495872 149.863608 
L 179.495872 148.449395 
L 180.910086 148.449395 
L 180.910086 147.035181 
L 179.495872 147.035181 
L 179.495872 145.620968 
L 178.081659 145.620968 
L 178.081659 147.035181 
L 176.667445 147.035181 
L 176.667445 148.449395 
L 178.081659 148.449395 
z
" clip-path="url(#paee73e3cc1)" style="fill: #117733; fill-opacity: 0.6; stroke: #ffffff; stroke-opacity: 0.6; stroke-width: 0.339411"/>
    <path d="M 178.095059 150.210576 
L 179.509272 150.210576 
L 179.509272 148.796362 
L 180.923486 148.796362 
L 180.923486 147.382149 
L 179.509272 147.382149 
L 179.509272 145.967935 
L 178.095059 145.967935 
L 178.095059 147.382149 
L 176.680845 147.382149 
L 176.680845 148.796362 
L 178.095059 148.796362 
z
" clip-path="url(#paee73e3cc1)" style="fill: #117733; fill-opacity: 0.6; stroke: #ffffff; stroke-opacity: 0.6; stroke-width: 0.339411"/>
    <path d="M 171.458151 139.017304 
L 172.872365 139.017304 
L 172.872365 137.603091 
L 174.286578 137.603091 
L 174.286578 136.188877 
L 172.872365 136.188877 
L 172.872365 134.774664 
L 171.458151 134.774664 
L 171.458151 136.188877 
L 170.043938 136.188877 
L 170.043938 137.603091 
L 171.458151 137.603091 
z
" clip-path="url(#paee73e3cc1)" style="fill: #117733; fill-opacity: 0.6; stroke: #ffffff; stroke-opacity: 0.6; stroke-width: 0.339411"/>
    <path d="M 182.040014 152.163448 
L 183.454228 152.163448 
L 183.454228 150.749234 
L 184.868442 150.749234 
L 184.868442 149.335021 
L 183.454228 149.335021 
L 183.454228 147.920807 
L 182.040014 147.920807 
L 182.040014 149.335021 
L 180.625801 149.335021 
L 180.625801 150.749234 
L 182.040014 150.749234 
z
" clip-path="url(#paee73e3cc1)" style="fill: #117733; fill-opacity: 0.6; stroke: #ffffff; stroke-opacity: 0.6; stroke-width: 0.339411"/>
    <path d="M 174.350797 143.83167 
L 175.765011 143.83167 
L 175.765011 142.417456 
L 177.179225 142.417456 
L 177.179225 141.003243 
L 175.765011 141.003243 
L 175.765011 139.589029 
L 174.350797 139.589029 
L 174.350797 141.003243 
L 172.936584 141.003243 
L 172.936584 142.417456 
L 174.350797 142.417456 
z
" clip-path="url(#paee73e3cc1)" style="fill: #117733; fill-opacity: 0.6; stroke: #ffffff; stroke-opacity: 0.6; stroke-width: 0.339411"/>
    <path d="M 166.735359 154.285815 
L 168.149573 154.285815 
L 168.149573 152.871601 
L 169.563786 152.871601 
L 169.563786 151.457388 
L 168.149573 151.457388 
L 168.149573 150.043174 
L 166.735359 150.043174 
L 166.735359 151.457388 
L 165.321145 151.457388 
L 165.321145 152.871601 
L 166.735359 152.871601 
z
" clip-path="url(#paee73e3cc1)" style="fill: #117733; fill-opacity: 0.6; stroke: #ffffff; stroke-opacity: 0.6; stroke-width: 0.339411"/>
    <path d="M 170.034105 150.573748 
L 171.448319 150.573748 
L 171.448319 149.159534 
L 172.862532 149.159534 
L 172.862532 147.745321 
L 171.448319 147.745321 
L 171.448319 146.331107 
L 170.034105 146.331107 
L 170.034105 147.745321 
L 168.619892 147.745321 
L 168.619892 149.159534 
L 170.034105 149.159534 
z
" clip-path="url(#paee73e3cc1)" style="fill: #117733; fill-opacity: 0.6; stroke: #ffffff; stroke-opacity: 0.6; stroke-width: 0.339411"/>
    <path d="M 163.896134 139.211484 
L 165.310348 139.211484 
L 165.310348 137.79727 
L 166.724561 137.79727 
L 166.724561 136.383057 
L 165.310348 136.383057 
L 165.310348 134.968843 
L 163.896134 134.968843 
L 163.896134 136.383057 
L 162.481921 136.383057 
L 162.481921 137.79727 
L 163.896134 137.79727 
z
" clip-path="url(#paee73e3cc1)" style="fill: #117733; fill-opacity: 0.6; stroke: #ffffff; stroke-opacity: 0.6; stroke-width: 0.339411"/>
    <path d="M 176.789296 147.135716 
L 178.203509 147.135716 
L 178.203509 145.721502 
L 179.617723 145.721502 
L 179.617723 144.307289 
L 178.203509 144.307289 
L 178.203509 142.893075 
L 176.789296 142.893075 
L 176.789296 144.307289 
L 175.375082 144.307289 
L 175.375082 145.721502 
L 176.789296 145.721502 
z
" clip-path="url(#paee73e3cc1)" style="fill: #117733; fill-opacity: 0.6; stroke: #ffffff; stroke-opacity: 0.6; stroke-width: 0.339411"/>
    <path d="M 172.006459 137.10837 
L 173.420673 137.10837 
L 173.420673 135.694156 
L 174.834886 135.694156 
L 174.834886 134.279942 
L 173.420673 134.279942 
L 173.420673 132.865729 
L 172.006459 132.865729 
L 172.006459 134.279942 
L 170.592246 134.279942 
L 170.592246 135.694156 
L 172.006459 135.694156 
z
" clip-path="url(#paee73e3cc1)" style="fill: #117733; fill-opacity: 0.6; stroke: #ffffff; stroke-opacity: 0.6; stroke-width: 0.339411"/>
    <path d="M 197.51583 164.806272 
L 198.930044 164.806272 
L 198.930044 163.392058 
L 200.344257 163.392058 
L 200.344257 161.977845 
L 198.930044 161.977845 
L 198.930044 160.563631 
L 197.51583 160.563631 
L 197.51583 161.977845 
L 196.101617 161.977845 
L 196.101617 163.392058 
L 197.51583 163.392058 
z
" clip-path="url(#paee73e3cc1)" style="fill: #117733; fill-opacity: 0.6; stroke: #ffffff; stroke-opacity: 0.6; stroke-width: 0.339411"/>
    <path d="M 177.71456 154.784378 
L 179.128773 154.784378 
L 179.128773 153.370164 
L 180.542987 153.370164 
L 180.542987 151.955951 
L 179.128773 151.955951 
L 179.128773 150.541737 
L 177.71456 150.541737 
L 177.71456 151.955951 
L 176.300346 151.955951 
L 176.300346 153.370164 
L 177.71456 153.370164 
z
" clip-path="url(#paee73e3cc1)" style="fill: #117733; fill-opacity: 0.6; stroke: #ffffff; stroke-opacity: 0.6; stroke-width: 0.339411"/>
    <path d="M 172.109332 142.181799 
L 173.523546 142.181799 
L 173.523546 140.767585 
L 174.937759 140.767585 
L 174.937759 139.353372 
L 173.523546 139.353372 
L 173.523546 137.939158 
L 172.109332 137.939158 
L 172.109332 139.353372 
L 170.695119 139.353372 
L 170.695119 140.767585 
L 172.109332 140.767585 
z
" clip-path="url(#paee73e3cc1)" style="fill: #117733; fill-opacity: 0.6; stroke: #ffffff; stroke-opacity: 0.6; stroke-width: 0.339411"/>
    <path d="M 170.551909 139.368018 
L 171.966122 139.368018 
L 171.966122 137.953805 
L 173.380336 137.953805 
L 173.380336 136.539591 
L 171.966122 136.539591 
L 171.966122 135.125377 
L 170.551909 135.125377 
L 170.551909 136.539591 
L 169.137695 136.539591 
L 169.137695 137.953805 
L 170.551909 137.953805 
z
" clip-path="url(#paee73e3cc1)" style="fill: #117733; fill-opacity: 0.6; stroke: #ffffff; stroke-opacity: 0.6; stroke-width: 0.339411"/>
    <path d="M 169.469515 160.121657 
L 170.883729 160.121657 
L 170.883729 158.707443 
L 172.297942 158.707443 
L 172.297942 157.29323 
L 170.883729 157.29323 
L 170.883729 155.879016 
L 169.469515 155.879016 
L 169.469515 157.29323 
L 168.055302 157.29323 
L 168.055302 158.707443 
L 169.469515 158.707443 
z
" clip-path="url(#paee73e3cc1)" style="fill: #117733; fill-opacity: 0.6; stroke: #ffffff; stroke-opacity: 0.6; stroke-width: 0.339411"/>
    <path d="M 178.767877 155.7872 
L 180.182091 155.7872 
L 180.182091 154.372986 
L 181.596304 154.372986 
L 181.596304 152.958773 
L 180.182091 152.958773 
L 180.182091 151.544559 
L 178.767877 151.544559 
L 178.767877 152.958773 
L 177.353663 152.958773 
L 177.353663 154.372986 
L 178.767877 154.372986 
z
" clip-path="url(#paee73e3cc1)" style="fill: #117733; fill-opacity: 0.6; stroke: #ffffff; stroke-opacity: 0.6; stroke-width: 0.339411"/>
    <path d="M 185.452233 152.926972 
L 186.866446 152.926972 
L 186.866446 151.512759 
L 188.28066 151.512759 
L 188.28066 150.098545 
L 186.866446 150.098545 
L 186.866446 148.684332 
L 185.452233 148.684332 
L 185.452233 150.098545 
L 184.038019 150.098545 
L 184.038019 151.512759 
L 185.452233 151.512759 
z
" clip-path="url(#paee73e3cc1)" style="fill: #117733; fill-opacity: 0.6; stroke: #ffffff; stroke-opacity: 0.6; stroke-width: 0.339411"/>
    <path d="M 157.109499 132.32041 
L 158.523713 132.32041 
L 158.523713 130.906196 
L 159.937926 130.906196 
L 159.937926 129.491983 
L 158.523713 129.491983 
L 158.523713 128.077769 
L 157.109499 128.077769 
L 157.109499 129.491983 
L 155.695286 129.491983 
L 155.695286 130.906196 
L 157.109499 130.906196 
z
" clip-path="url(#paee73e3cc1)" style="fill: #117733; fill-opacity: 0.6; stroke: #ffffff; stroke-opacity: 0.6; stroke-width: 0.339411"/>
    <path d="M 179.884367 155.933023 
L 181.298581 155.933023 
L 181.298581 154.51881 
L 182.712795 154.51881 
L 182.712795 153.104596 
L 181.298581 153.104596 
L 181.298581 151.690383 
L 179.884367 151.690383 
L 179.884367 153.104596 
L 178.470154 153.104596 
L 178.470154 154.51881 
L 179.884367 154.51881 
z
" clip-path="url(#paee73e3cc1)" style="fill: #117733; fill-opacity: 0.6; stroke: #ffffff; stroke-opacity: 0.6; stroke-width: 0.339411"/>
    <path d="M 181.316304 165.19234 
L 182.730518 165.19234 
L 182.730518 163.778127 
L 184.144731 163.778127 
L 184.144731 162.363913 
L 182.730518 162.363913 
L 182.730518 160.9497 
L 181.316304 160.9497 
L 181.316304 162.363913 
L 179.90209 162.363913 
L 179.90209 163.778127 
L 181.316304 163.778127 
z
" clip-path="url(#paee73e3cc1)" style="fill: #117733; fill-opacity: 0.6; stroke: #ffffff; stroke-opacity: 0.6; stroke-width: 0.339411"/>
    <path d="M 168.523499 138.357732 
L 169.937712 138.357732 
L 169.937712 136.943519 
L 171.351926 136.943519 
L 171.351926 135.529305 
L 169.937712 135.529305 
L 169.937712 134.115091 
L 168.523499 134.115091 
L 168.523499 135.529305 
L 167.109285 135.529305 
L 167.109285 136.943519 
L 168.523499 136.943519 
z
" clip-path="url(#paee73e3cc1)" style="fill: #117733; fill-opacity: 0.6; stroke: #ffffff; stroke-opacity: 0.6; stroke-width: 0.339411"/>
    <path d="M 173.788409 147.527928 
L 175.202623 147.527928 
L 175.202623 146.113714 
L 176.616836 146.113714 
L 176.616836 144.699501 
L 175.202623 144.699501 
L 175.202623 143.285287 
L 173.788409 143.285287 
L 173.788409 144.699501 
L 172.374196 144.699501 
L 172.374196 146.113714 
L 173.788409 146.113714 
z
" clip-path="url(#paee73e3cc1)" style="fill: #117733; fill-opacity: 0.6; stroke: #ffffff; stroke-opacity: 0.6; stroke-width: 0.339411"/>
    <path d="M 165.932911 157.230948 
L 167.347124 157.230948 
L 167.347124 155.816735 
L 168.761338 155.816735 
L 168.761338 154.402521 
L 167.347124 154.402521 
L 167.347124 152.988308 
L 165.932911 152.988308 
L 165.932911 154.402521 
L 164.518697 154.402521 
L 164.518697 155.816735 
L 165.932911 155.816735 
z
" clip-path="url(#paee73e3cc1)" style="fill: #117733; fill-opacity: 0.6; stroke: #ffffff; stroke-opacity: 0.6; stroke-width: 0.339411"/>
    <path d="M 173.963156 153.996706 
L 175.37737 153.996706 
L 175.37737 152.582493 
L 176.791583 152.582493 
L 176.791583 151.168279 
L 175.37737 151.168279 
L 175.37737 149.754066 
L 173.963156 149.754066 
L 173.963156 151.168279 
L 172.548942 151.168279 
L 172.548942 152.582493 
L 173.963156 152.582493 
z
" clip-path="url(#paee73e3cc1)" style="fill: #117733; fill-opacity: 0.6; stroke: #ffffff; stroke-opacity: 0.6; stroke-width: 0.339411"/>
    <path d="M 181.082453 163.112113 
L 182.496666 163.112113 
L 182.496666 161.697899 
L 183.91088 161.697899 
L 183.91088 160.283686 
L 182.496666 160.283686 
L 182.496666 158.869472 
L 181.082453 158.869472 
L 181.082453 160.283686 
L 179.668239 160.283686 
L 179.668239 161.697899 
L 181.082453 161.697899 
z
" clip-path="url(#paee73e3cc1)" style="fill: #117733; fill-opacity: 0.6; stroke: #ffffff; stroke-opacity: 0.6; stroke-width: 0.339411"/>
    <path d="M 171.631266 160.395711 
L 173.045479 160.395711 
L 173.045479 158.981497 
L 174.459693 158.981497 
L 174.459693 157.567284 
L 173.045479 157.567284 
L 173.045479 156.15307 
L 171.631266 156.15307 
L 171.631266 157.567284 
L 170.217052 157.567284 
L 170.217052 158.981497 
L 171.631266 158.981497 
z
" clip-path="url(#paee73e3cc1)" style="fill: #117733; fill-opacity: 0.6; stroke: #ffffff; stroke-opacity: 0.6; stroke-width: 0.339411"/>
    <path d="M 195.556246 155.850844 
L 196.970459 155.850844 
L 196.970459 154.43663 
L 198.384673 154.43663 
L 198.384673 153.022416 
L 196.970459 153.022416 
L 196.970459 151.608203 
L 195.556246 151.608203 
L 195.556246 153.022416 
L 194.142032 153.022416 
L 194.142032 154.43663 
L 195.556246 154.43663 
z
" clip-path="url(#paee73e3cc1)" style="fill: #117733; fill-opacity: 0.6; stroke: #ffffff; stroke-opacity: 0.6; stroke-width: 0.339411"/>
    <path d="M 195.204748 162.950144 
L 196.618962 162.950144 
L 196.618962 161.53593 
L 198.033175 161.53593 
L 198.033175 160.121717 
L 196.618962 160.121717 
L 196.618962 158.707503 
L 195.204748 158.707503 
L 195.204748 160.121717 
L 193.790535 160.121717 
L 193.790535 161.53593 
L 195.204748 161.53593 
z
" clip-path="url(#paee73e3cc1)" style="fill: #117733; fill-opacity: 0.6; stroke: #ffffff; stroke-opacity: 0.6; stroke-width: 0.339411"/>
    <path d="M 193.251106 157.020253 
L 194.66532 157.020253 
L 194.66532 155.60604 
L 196.079533 155.60604 
L 196.079533 154.191826 
L 194.66532 154.191826 
L 194.66532 152.777613 
L 193.251106 152.777613 
L 193.251106 154.191826 
L 191.836893 154.191826 
L 191.836893 155.60604 
L 193.251106 155.60604 
z
" clip-path="url(#paee73e3cc1)" style="fill: #117733; fill-opacity: 0.6; stroke: #ffffff; stroke-opacity: 0.6; stroke-width: 0.339411"/>
    <path d="M 187.379662 154.811636 
L 188.793875 154.811636 
L 188.793875 153.397423 
L 190.208089 153.397423 
L 190.208089 151.983209 
L 188.793875 151.983209 
L 188.793875 150.568996 
L 187.379662 150.568996 
L 187.379662 151.983209 
L 185.965448 151.983209 
L 185.965448 153.397423 
L 187.379662 153.397423 
z
" clip-path="url(#paee73e3cc1)" style="fill: #117733; fill-opacity: 0.6; stroke: #ffffff; stroke-opacity: 0.6; stroke-width: 0.339411"/>
    <path d="M 175.570575 156.098698 
L 176.984789 156.098698 
L 176.984789 154.684484 
L 178.399002 154.684484 
L 178.399002 153.270271 
L 176.984789 153.270271 
L 176.984789 151.856057 
L 175.570575 151.856057 
L 175.570575 153.270271 
L 174.156362 153.270271 
L 174.156362 154.684484 
L 175.570575 154.684484 
z
" clip-path="url(#paee73e3cc1)" style="fill: #117733; fill-opacity: 0.6; stroke: #ffffff; stroke-opacity: 0.6; stroke-width: 0.339411"/>
    <path d="M 160.725553 127.843012 
L 162.525553 124.843012 
L 160.725553 121.843012 
L 158.925553 124.843012 
z
" clip-path="url(#paee73e3cc1)" style="fill: #44aa99; fill-opacity: 0.6; stroke: #ffffff; stroke-opacity: 0.6; stroke-width: 0.339411"/>
    <path d="M 180.827409 143.347176 
L 182.627409 140.347176 
L 180.827409 137.347176 
L 179.027409 140.347176 
z
" clip-path="url(#paee73e3cc1)" style="fill: #44aa99; fill-opacity: 0.6; stroke: #ffffff; stroke-opacity: 0.6; stroke-width: 0.339411"/>
    <path d="M 197.386113 147.057935 
L 199.186113 144.057935 
L 197.386113 141.057935 
L 195.586113 144.057935 
z
" clip-path="url(#paee73e3cc1)" style="fill: #44aa99; fill-opacity: 0.6; stroke: #ffffff; stroke-opacity: 0.6; stroke-width: 0.339411"/>
    <path d="M 176.719722 142.206089 
L 178.519722 139.206089 
L 176.719722 136.206089 
L 174.919722 139.206089 
z
" clip-path="url(#paee73e3cc1)" style="fill: #44aa99; fill-opacity: 0.6; stroke: #ffffff; stroke-opacity: 0.6; stroke-width: 0.339411"/>
    <path d="M 187.486962 131.361359 
L 189.286962 128.361359 
L 187.486962 125.361359 
L 185.686962 128.361359 
z
" clip-path="url(#paee73e3cc1)" style="fill: #44aa99; fill-opacity: 0.6; stroke: #ffffff; stroke-opacity: 0.6; stroke-width: 0.339411"/>
    <path d="M 199.773317 164.614515 
L 201.573317 161.614515 
L 199.773317 158.614515 
L 197.973317 161.614515 
z
" clip-path="url(#paee73e3cc1)" style="fill: #44aa99; fill-opacity: 0.6; stroke: #ffffff; stroke-opacity: 0.6; stroke-width: 0.339411"/>
    <path d="M 194.766839 131.903577 
L 196.566839 128.903577 
L 194.766839 125.903577 
L 192.966839 128.903577 
z
" clip-path="url(#paee73e3cc1)" style="fill: #44aa99; fill-opacity: 0.6; stroke: #ffffff; stroke-opacity: 0.6; stroke-width: 0.339411"/>
    <path d="M 191.907065 135.330018 
L 193.707065 132.330018 
L 191.907065 129.330018 
L 190.107065 132.330018 
z
" clip-path="url(#paee73e3cc1)" style="fill: #44aa99; fill-opacity: 0.6; stroke: #ffffff; stroke-opacity: 0.6; stroke-width: 0.339411"/>
    <path d="M 183.909514 142.388625 
L 185.709514 139.388625 
L 183.909514 136.388625 
L 182.109514 139.388625 
z
" clip-path="url(#paee73e3cc1)" style="fill: #44aa99; fill-opacity: 0.6; stroke: #ffffff; stroke-opacity: 0.6; stroke-width: 0.339411"/>
    <path d="M 193.030779 128.410287 
L 194.830779 125.410287 
L 193.030779 122.410287 
L 191.230779 125.410287 
z
" clip-path="url(#paee73e3cc1)" style="fill: #44aa99; fill-opacity: 0.6; stroke: #ffffff; stroke-opacity: 0.6; stroke-width: 0.339411"/>
    <path d="M 180.266703 167.690284 
L 182.066703 164.690284 
L 180.266703 161.690284 
L 178.466703 164.690284 
z
" clip-path="url(#paee73e3cc1)" style="fill: #44aa99; fill-opacity: 0.6; stroke: #ffffff; stroke-opacity: 0.6; stroke-width: 0.339411"/>
    <path d="M 164.560487 152.474546 
L 166.360487 149.474546 
L 164.560487 146.474546 
L 162.760487 149.474546 
z
" clip-path="url(#paee73e3cc1)" style="fill: #44aa99; fill-opacity: 0.6; stroke: #ffffff; stroke-opacity: 0.6; stroke-width: 0.339411"/>
    <path d="M 188.353388 127.701079 
L 190.153388 124.701079 
L 188.353388 121.701079 
L 186.553388 124.701079 
z
" clip-path="url(#paee73e3cc1)" style="fill: #44aa99; fill-opacity: 0.6; stroke: #ffffff; stroke-opacity: 0.6; stroke-width: 0.339411"/>
    <path d="M 205.509634 163.651598 
L 207.309634 160.651598 
L 205.509634 157.651598 
L 203.709634 160.651598 
z
" clip-path="url(#paee73e3cc1)" style="fill: #44aa99; fill-opacity: 0.6; stroke: #ffffff; stroke-opacity: 0.6; stroke-width: 0.339411"/>
    <path d="M 187.814794 146.741083 
L 189.614794 143.741083 
L 187.814794 140.741083 
L 186.014794 143.741083 
z
" clip-path="url(#paee73e3cc1)" style="fill: #44aa99; fill-opacity: 0.6; stroke: #ffffff; stroke-opacity: 0.6; stroke-width: 0.339411"/>
    <path d="M 197.565541 135.392364 
L 199.365541 132.392364 
L 197.565541 129.392364 
L 195.765541 132.392364 
z
" clip-path="url(#paee73e3cc1)" style="fill: #44aa99; fill-opacity: 0.6; stroke: #ffffff; stroke-opacity: 0.6; stroke-width: 0.339411"/>
    <path d="M 168.379374 148.692711 
L 170.179374 145.692711 
L 168.379374 142.692711 
L 166.579374 145.692711 
z
" clip-path="url(#paee73e3cc1)" style="fill: #44aa99; fill-opacity: 0.6; stroke: #ffffff; stroke-opacity: 0.6; stroke-width: 0.339411"/>
    <path d="M 201.814899 153.23161 
L 203.614899 150.23161 
L 201.814899 147.23161 
L 200.014899 150.23161 
z
" clip-path="url(#paee73e3cc1)" style="fill: #44aa99; fill-opacity: 0.6; stroke: #ffffff; stroke-opacity: 0.6; stroke-width: 0.339411"/>
    <path d="M 186.603513 145.136663 
L 188.403513 142.136663 
L 186.603513 139.136663 
L 184.803513 142.136663 
z
" clip-path="url(#paee73e3cc1)" style="fill: #44aa99; fill-opacity: 0.6; stroke: #ffffff; stroke-opacity: 0.6; stroke-width: 0.339411"/>
    <path d="M 195.6136 133.300791 
L 197.4136 130.300791 
L 195.6136 127.300791 
L 193.8136 130.300791 
z
" clip-path="url(#paee73e3cc1)" style="fill: #44aa99; fill-opacity: 0.6; stroke: #ffffff; stroke-opacity: 0.6; stroke-width: 0.339411"/>
    <path d="M 192.284807 130.979679 
L 194.084807 127.979679 
L 192.284807 124.979679 
L 190.484807 127.979679 
z
" clip-path="url(#paee73e3cc1)" style="fill: #44aa99; fill-opacity: 0.6; stroke: #ffffff; stroke-opacity: 0.6; stroke-width: 0.339411"/>
    <path d="M 180.6468 129.105764 
L 182.4468 126.105764 
L 180.6468 123.105764 
L 178.8468 126.105764 
z
" clip-path="url(#paee73e3cc1)" style="fill: #44aa99; fill-opacity: 0.6; stroke: #ffffff; stroke-opacity: 0.6; stroke-width: 0.339411"/>
    <path d="M 184.118624 146.449076 
L 185.918624 143.449076 
L 184.118624 140.449076 
L 182.318624 143.449076 
z
" clip-path="url(#paee73e3cc1)" style="fill: #44aa99; fill-opacity: 0.6; stroke: #ffffff; stroke-opacity: 0.6; stroke-width: 0.339411"/>
    <path d="M 187.128366 128.897608 
L 188.928366 125.897608 
L 187.128366 122.897608 
L 185.328366 125.897608 
z
" clip-path="url(#paee73e3cc1)" style="fill: #44aa99; fill-opacity: 0.6; stroke: #ffffff; stroke-opacity: 0.6; stroke-width: 0.339411"/>
    <path d="M 198.9931 151.429789 
L 200.7931 148.429789 
L 198.9931 145.429789 
L 197.1931 148.429789 
z
" clip-path="url(#paee73e3cc1)" style="fill: #44aa99; fill-opacity: 0.6; stroke: #ffffff; stroke-opacity: 0.6; stroke-width: 0.339411"/>
    <path d="M 210.034948 162.661513 
L 211.834948 159.661513 
L 210.034948 156.661513 
L 208.234948 159.661513 
z
" clip-path="url(#paee73e3cc1)" style="fill: #44aa99; fill-opacity: 0.6; stroke: #ffffff; stroke-opacity: 0.6; stroke-width: 0.339411"/>
    <path d="M 165.963217 147.439123 
L 167.763217 144.439123 
L 165.963217 141.439123 
L 164.163217 144.439123 
z
" clip-path="url(#paee73e3cc1)" style="fill: #44aa99; fill-opacity: 0.6; stroke: #ffffff; stroke-opacity: 0.6; stroke-width: 0.339411"/>
    <path d="M 165.929955 151.066289 
L 167.729955 148.066289 
L 165.929955 145.066289 
L 164.129955 148.066289 
z
" clip-path="url(#paee73e3cc1)" style="fill: #44aa99; fill-opacity: 0.6; stroke: #ffffff; stroke-opacity: 0.6; stroke-width: 0.339411"/>
    <path d="M 210.592501 162.029316 
L 212.392501 159.029316 
L 210.592501 156.029316 
L 208.792501 159.029316 
z
" clip-path="url(#paee73e3cc1)" style="fill: #44aa99; fill-opacity: 0.6; stroke: #ffffff; stroke-opacity: 0.6; stroke-width: 0.339411"/>
    <path d="M 196.33381 133.56356 
L 198.13381 130.56356 
L 196.33381 127.56356 
L 194.53381 130.56356 
z
" clip-path="url(#paee73e3cc1)" style="fill: #44aa99; fill-opacity: 0.6; stroke: #ffffff; stroke-opacity: 0.6; stroke-width: 0.339411"/>
    <path d="M 164.53846 134.057926 
L 166.33846 131.057926 
L 164.53846 128.057926 
L 162.73846 131.057926 
z
" clip-path="url(#paee73e3cc1)" style="fill: #44aa99; fill-opacity: 0.6; stroke: #ffffff; stroke-opacity: 0.6; stroke-width: 0.339411"/>
    <path d="M 186.238553 130.677164 
L 188.038553 127.677164 
L 186.238553 124.677164 
L 184.438553 127.677164 
z
" clip-path="url(#paee73e3cc1)" style="fill: #44aa99; fill-opacity: 0.6; stroke: #ffffff; stroke-opacity: 0.6; stroke-width: 0.339411"/>
    <path d="M 188.135193 127.574899 
L 189.935193 124.574899 
L 188.135193 121.574899 
L 186.335193 124.574899 
z
" clip-path="url(#paee73e3cc1)" style="fill: #44aa99; fill-opacity: 0.6; stroke: #ffffff; stroke-opacity: 0.6; stroke-width: 0.339411"/>
    <path d="M 185.537729 128.668606 
L 187.337729 125.668606 
L 185.537729 122.668606 
L 183.737729 125.668606 
z
" clip-path="url(#paee73e3cc1)" style="fill: #44aa99; fill-opacity: 0.6; stroke: #ffffff; stroke-opacity: 0.6; stroke-width: 0.339411"/>
    <path d="M 188.026891 146.107523 
L 189.826891 143.107523 
L 188.026891 140.107523 
L 186.226891 143.107523 
z
" clip-path="url(#paee73e3cc1)" style="fill: #44aa99; fill-opacity: 0.6; stroke: #ffffff; stroke-opacity: 0.6; stroke-width: 0.339411"/>
    <path d="M 207.178718 161.030263 
L 208.978718 158.030263 
L 207.178718 155.030263 
L 205.378718 158.030263 
z
" clip-path="url(#paee73e3cc1)" style="fill: #44aa99; fill-opacity: 0.6; stroke: #ffffff; stroke-opacity: 0.6; stroke-width: 0.339411"/>
    <path d="M 194.344729 137.078478 
L 196.144729 134.078478 
L 194.344729 131.078478 
L 192.544729 134.078478 
z
" clip-path="url(#paee73e3cc1)" style="fill: #44aa99; fill-opacity: 0.6; stroke: #ffffff; stroke-opacity: 0.6; stroke-width: 0.339411"/>
    <path d="M 198.559111 146.843023 
L 200.359111 143.843023 
L 198.559111 140.843023 
L 196.759111 143.843023 
z
" clip-path="url(#paee73e3cc1)" style="fill: #44aa99; fill-opacity: 0.6; stroke: #ffffff; stroke-opacity: 0.6; stroke-width: 0.339411"/>
    <path d="M 179.147226 141.927497 
L 180.947226 138.927497 
L 179.147226 135.927497 
L 177.347226 138.927497 
z
" clip-path="url(#paee73e3cc1)" style="fill: #44aa99; fill-opacity: 0.6; stroke: #ffffff; stroke-opacity: 0.6; stroke-width: 0.339411"/>
    <path d="M 183.276538 143.397807 
L 185.076538 140.397807 
L 183.276538 137.397807 
L 181.476538 140.397807 
z
" clip-path="url(#paee73e3cc1)" style="fill: #44aa99; fill-opacity: 0.6; stroke: #ffffff; stroke-opacity: 0.6; stroke-width: 0.339411"/>
    <path d="M 193.317013 135.288893 
L 195.117013 132.288893 
L 193.317013 129.288893 
L 191.517013 132.288893 
z
" clip-path="url(#paee73e3cc1)" style="fill: #44aa99; fill-opacity: 0.6; stroke: #ffffff; stroke-opacity: 0.6; stroke-width: 0.339411"/>
    <path d="M 185.348939 142.196968 
L 187.148939 139.196968 
L 185.348939 136.196968 
L 183.548939 139.196968 
z
" clip-path="url(#paee73e3cc1)" style="fill: #44aa99; fill-opacity: 0.6; stroke: #ffffff; stroke-opacity: 0.6; stroke-width: 0.339411"/>
    <path d="M 185.870193 145.300938 
L 187.670193 142.300938 
L 185.870193 139.300938 
L 184.070193 142.300938 
z
" clip-path="url(#paee73e3cc1)" style="fill: #44aa99; fill-opacity: 0.6; stroke: #ffffff; stroke-opacity: 0.6; stroke-width: 0.339411"/>
    <path d="M 192.156908 136.288517 
L 193.956908 133.288517 
L 192.156908 130.288517 
L 190.356908 133.288517 
z
" clip-path="url(#paee73e3cc1)" style="fill: #44aa99; fill-opacity: 0.6; stroke: #ffffff; stroke-opacity: 0.6; stroke-width: 0.339411"/>
    <path d="M 202.706696 153.825461 
L 204.506696 150.825461 
L 202.706696 147.825461 
L 200.906696 150.825461 
z
" clip-path="url(#paee73e3cc1)" style="fill: #44aa99; fill-opacity: 0.6; stroke: #ffffff; stroke-opacity: 0.6; stroke-width: 0.339411"/>
    <path d="M 197.427322 152.962423 
L 199.227322 149.962423 
L 197.427322 146.962423 
L 195.627322 149.962423 
z
" clip-path="url(#paee73e3cc1)" style="fill: #44aa99; fill-opacity: 0.6; stroke: #ffffff; stroke-opacity: 0.6; stroke-width: 0.339411"/>
    <path d="M 164.060919 150.241423 
L 165.860919 147.241423 
L 164.060919 144.241423 
L 162.260919 147.241423 
z
" clip-path="url(#paee73e3cc1)" style="fill: #44aa99; fill-opacity: 0.6; stroke: #ffffff; stroke-opacity: 0.6; stroke-width: 0.339411"/>
    <path d="M 205.915363 156.518211 
L 207.715363 153.518211 
L 205.915363 150.518211 
L 204.115363 153.518211 
z
" clip-path="url(#paee73e3cc1)" style="fill: #44aa99; fill-opacity: 0.6; stroke: #ffffff; stroke-opacity: 0.6; stroke-width: 0.339411"/>
    <path d="M 184.583612 161.808835 
L 186.383612 158.808835 
L 184.583612 155.808835 
L 182.783612 158.808835 
z
" clip-path="url(#paee73e3cc1)" style="fill: #44aa99; fill-opacity: 0.6; stroke: #ffffff; stroke-opacity: 0.6; stroke-width: 0.339411"/>
    <path d="M 196.654945 143.012261 
L 198.454945 140.012261 
L 196.654945 137.012261 
L 194.854945 140.012261 
z
" clip-path="url(#paee73e3cc1)" style="fill: #44aa99; fill-opacity: 0.6; stroke: #ffffff; stroke-opacity: 0.6; stroke-width: 0.339411"/>
    <path d="M 182.396415 141.586685 
L 184.196415 138.586685 
L 182.396415 135.586685 
L 180.596415 138.586685 
z
" clip-path="url(#paee73e3cc1)" style="fill: #44aa99; fill-opacity: 0.6; stroke: #ffffff; stroke-opacity: 0.6; stroke-width: 0.339411"/>
    <path d="M 190.928528 151.06413 
L 192.728528 148.06413 
L 190.928528 145.06413 
L 189.128528 148.06413 
z
" clip-path="url(#paee73e3cc1)" style="fill: #44aa99; fill-opacity: 0.6; stroke: #ffffff; stroke-opacity: 0.6; stroke-width: 0.339411"/>
    <path d="M 168.464036 145.830587 
L 170.264036 142.830587 
L 168.464036 139.830587 
L 166.664036 142.830587 
z
" clip-path="url(#paee73e3cc1)" style="fill: #44aa99; fill-opacity: 0.6; stroke: #ffffff; stroke-opacity: 0.6; stroke-width: 0.339411"/>
    <path d="M 188.503263 129.16237 
L 190.303263 126.16237 
L 188.503263 123.16237 
L 186.703263 126.16237 
z
" clip-path="url(#paee73e3cc1)" style="fill: #44aa99; fill-opacity: 0.6; stroke: #ffffff; stroke-opacity: 0.6; stroke-width: 0.339411"/>
    <path d="M 189.495262 149.058796 
L 191.295262 146.058796 
L 189.495262 143.058796 
L 187.695262 146.058796 
z
" clip-path="url(#paee73e3cc1)" style="fill: #44aa99; fill-opacity: 0.6; stroke: #ffffff; stroke-opacity: 0.6; stroke-width: 0.339411"/>
    <path d="M 164.701235 150.684031 
L 166.501235 147.684031 
L 164.701235 144.684031 
L 162.901235 147.684031 
z
" clip-path="url(#paee73e3cc1)" style="fill: #44aa99; fill-opacity: 0.6; stroke: #ffffff; stroke-opacity: 0.6; stroke-width: 0.339411"/>
    <path d="M 197.269067 176.387247 
L 199.069067 173.387247 
L 197.269067 170.387247 
L 195.469067 173.387247 
z
" clip-path="url(#paee73e3cc1)" style="fill: #44aa99; fill-opacity: 0.6; stroke: #ffffff; stroke-opacity: 0.6; stroke-width: 0.339411"/>
    <path d="M 190.956015 155.020296 
L 192.756015 152.020296 
L 190.956015 149.020296 
L 189.156015 152.020296 
z
" clip-path="url(#paee73e3cc1)" style="fill: #44aa99; fill-opacity: 0.6; stroke: #ffffff; stroke-opacity: 0.6; stroke-width: 0.339411"/>
    <path d="M 164.201389 153.407157 
L 166.001389 150.407157 
L 164.201389 147.407157 
L 162.401389 150.407157 
z
" clip-path="url(#paee73e3cc1)" style="fill: #44aa99; fill-opacity: 0.6; stroke: #ffffff; stroke-opacity: 0.6; stroke-width: 0.339411"/>
    <path d="M 193.412323 135.129222 
L 195.212323 132.129222 
L 193.412323 129.129222 
L 191.612323 132.129222 
z
" clip-path="url(#paee73e3cc1)" style="fill: #44aa99; fill-opacity: 0.6; stroke: #ffffff; stroke-opacity: 0.6; stroke-width: 0.339411"/>
    <path d="M 195.525209 148.370077 
L 197.325209 145.370077 
L 195.525209 142.370077 
L 193.725209 145.370077 
z
" clip-path="url(#paee73e3cc1)" style="fill: #44aa99; fill-opacity: 0.6; stroke: #ffffff; stroke-opacity: 0.6; stroke-width: 0.339411"/>
    <path d="M 205.398623 157.531562 
L 207.198623 154.531562 
L 205.398623 151.531562 
L 203.598623 154.531562 
z
" clip-path="url(#paee73e3cc1)" style="fill: #44aa99; fill-opacity: 0.6; stroke: #ffffff; stroke-opacity: 0.6; stroke-width: 0.339411"/>
    <path d="M 178.400815 159.445155 
L 180.200815 156.445155 
L 178.400815 153.445155 
L 176.600815 156.445155 
z
" clip-path="url(#paee73e3cc1)" style="fill: #44aa99; fill-opacity: 0.6; stroke: #ffffff; stroke-opacity: 0.6; stroke-width: 0.339411"/>
    <path d="M 213.871032 166.927893 
L 211.749712 171.170534 
L 215.992353 171.170534 
z
" clip-path="url(#paee73e3cc1)" style="fill: #88ccee; fill-opacity: 0.6; stroke: #ffffff; stroke-opacity: 0.6; stroke-width: 0.339411"/>
    <path d="M 194.494772 155.080624 
L 192.373451 159.323265 
L 196.616092 159.323265 
z
" clip-path="url(#paee73e3cc1)" style="fill: #88ccee; fill-opacity: 0.6; stroke: #ffffff; stroke-opacity: 0.6; stroke-width: 0.339411"/>
    <path d="M 181.90015 144.501935 
L 179.77883 148.744576 
L 184.02147 148.744576 
z
" clip-path="url(#paee73e3cc1)" style="fill: #88ccee; fill-opacity: 0.6; stroke: #ffffff; stroke-opacity: 0.6; stroke-width: 0.339411"/>
    <path d="M 164.046727 139.1478 
L 161.925407 143.390441 
L 166.168048 143.390441 
z
" clip-path="url(#paee73e3cc1)" style="fill: #88ccee; fill-opacity: 0.6; stroke: #ffffff; stroke-opacity: 0.6; stroke-width: 0.339411"/>
    <path d="M 187.061989 163.554235 
L 184.940669 167.796876 
L 189.18331 167.796876 
z
" clip-path="url(#paee73e3cc1)" style="fill: #88ccee; fill-opacity: 0.6; stroke: #ffffff; stroke-opacity: 0.6; stroke-width: 0.339411"/>
    <path d="M 187.866787 157.18648 
L 185.745467 161.42912 
L 189.988108 161.42912 
z
" clip-path="url(#paee73e3cc1)" style="fill: #88ccee; fill-opacity: 0.6; stroke: #ffffff; stroke-opacity: 0.6; stroke-width: 0.339411"/>
    <path d="M 201.687835 164.663955 
L 199.566514 168.906595 
L 203.809155 168.906595 
z
" clip-path="url(#paee73e3cc1)" style="fill: #88ccee; fill-opacity: 0.6; stroke: #ffffff; stroke-opacity: 0.6; stroke-width: 0.339411"/>
    <path d="M 161.965984 131.632195 
L 159.844664 135.874836 
L 164.087305 135.874836 
z
" clip-path="url(#paee73e3cc1)" style="fill: #88ccee; fill-opacity: 0.6; stroke: #ffffff; stroke-opacity: 0.6; stroke-width: 0.339411"/>
    <path d="M 203.45315 156.30015 
L 201.33183 160.542791 
L 205.574471 160.542791 
z
" clip-path="url(#paee73e3cc1)" style="fill: #88ccee; fill-opacity: 0.6; stroke: #ffffff; stroke-opacity: 0.6; stroke-width: 0.339411"/>
    <path d="M 191.495041 159.329665 
L 189.373721 163.572305 
L 193.616362 163.572305 
z
" clip-path="url(#paee73e3cc1)" style="fill: #88ccee; fill-opacity: 0.6; stroke: #ffffff; stroke-opacity: 0.6; stroke-width: 0.339411"/>
    <path d="M 197.178871 151.980657 
L 195.05755 156.223297 
L 199.300191 156.223297 
z
" clip-path="url(#paee73e3cc1)" style="fill: #88ccee; fill-opacity: 0.6; stroke: #ffffff; stroke-opacity: 0.6; stroke-width: 0.339411"/>
    <path d="M 205.403929 160.04035 
L 203.282609 164.28299 
L 207.525249 164.28299 
z
" clip-path="url(#paee73e3cc1)" style="fill: #88ccee; fill-opacity: 0.6; stroke: #ffffff; stroke-opacity: 0.6; stroke-width: 0.339411"/>
    <path d="M 201.623388 156.145067 
L 199.502067 160.387708 
L 203.744708 160.387708 
z
" clip-path="url(#paee73e3cc1)" style="fill: #88ccee; fill-opacity: 0.6; stroke: #ffffff; stroke-opacity: 0.6; stroke-width: 0.339411"/>
    <path d="M 193.772663 170.314796 
L 191.651343 174.557437 
L 195.893983 174.557437 
z
" clip-path="url(#paee73e3cc1)" style="fill: #88ccee; fill-opacity: 0.6; stroke: #ffffff; stroke-opacity: 0.6; stroke-width: 0.339411"/>
    <path d="M 160.052258 131.264795 
L 157.930938 135.507435 
L 162.173579 135.507435 
z
" clip-path="url(#paee73e3cc1)" style="fill: #88ccee; fill-opacity: 0.6; stroke: #ffffff; stroke-opacity: 0.6; stroke-width: 0.339411"/>
    <path d="M 183.72008 163.420422 
L 181.59876 167.663062 
L 185.841401 167.663062 
z
" clip-path="url(#paee73e3cc1)" style="fill: #88ccee; fill-opacity: 0.6; stroke: #ffffff; stroke-opacity: 0.6; stroke-width: 0.339411"/>
    <path d="M 188.983896 153.685818 
L 186.862576 157.928459 
L 191.105217 157.928459 
z
" clip-path="url(#paee73e3cc1)" style="fill: #88ccee; fill-opacity: 0.6; stroke: #ffffff; stroke-opacity: 0.6; stroke-width: 0.339411"/>
    <path d="M 195.457905 166.270287 
L 193.336585 170.512928 
L 197.579225 170.512928 
z
" clip-path="url(#paee73e3cc1)" style="fill: #88ccee; fill-opacity: 0.6; stroke: #ffffff; stroke-opacity: 0.6; stroke-width: 0.339411"/>
    <path d="M 187.909486 164.83195 
L 185.788166 169.074591 
L 190.030807 169.074591 
z
" clip-path="url(#paee73e3cc1)" style="fill: #88ccee; fill-opacity: 0.6; stroke: #ffffff; stroke-opacity: 0.6; stroke-width: 0.339411"/>
    <path d="M 212.267731 165.603599 
L 210.146411 169.846239 
L 214.389052 169.846239 
z
" clip-path="url(#paee73e3cc1)" style="fill: #88ccee; fill-opacity: 0.6; stroke: #ffffff; stroke-opacity: 0.6; stroke-width: 0.339411"/>
    <path d="M 199.680586 152.956712 
L 197.559265 157.199352 
L 201.801906 157.199352 
z
" clip-path="url(#paee73e3cc1)" style="fill: #88ccee; fill-opacity: 0.6; stroke: #ffffff; stroke-opacity: 0.6; stroke-width: 0.339411"/>
    <path d="M 200.121006 167.438101 
L 197.999685 171.680742 
L 202.242326 171.680742 
z
" clip-path="url(#paee73e3cc1)" style="fill: #88ccee; fill-opacity: 0.6; stroke: #ffffff; stroke-opacity: 0.6; stroke-width: 0.339411"/>
    <path d="M 189.208633 166.382559 
L 187.087312 170.6252 
L 191.329953 170.6252 
z
" clip-path="url(#paee73e3cc1)" style="fill: #88ccee; fill-opacity: 0.6; stroke: #ffffff; stroke-opacity: 0.6; stroke-width: 0.339411"/>
    <path d="M 202.14991 161.846511 
L 200.02859 166.089151 
L 204.27123 166.089151 
z
" clip-path="url(#paee73e3cc1)" style="fill: #88ccee; fill-opacity: 0.6; stroke: #ffffff; stroke-opacity: 0.6; stroke-width: 0.339411"/>
    <path d="M 197.89965 156.997879 
L 195.77833 161.240519 
L 200.02097 161.240519 
z
" clip-path="url(#paee73e3cc1)" style="fill: #88ccee; fill-opacity: 0.6; stroke: #ffffff; stroke-opacity: 0.6; stroke-width: 0.339411"/>
    <path d="M 198.202716 146.60924 
L 196.081396 150.851881 
L 200.324036 150.851881 
z
" clip-path="url(#paee73e3cc1)" style="fill: #88ccee; fill-opacity: 0.6; stroke: #ffffff; stroke-opacity: 0.6; stroke-width: 0.339411"/>
    <path d="M 207.529981 161.707716 
L 205.40866 165.950357 
L 209.651301 165.950357 
z
" clip-path="url(#paee73e3cc1)" style="fill: #88ccee; fill-opacity: 0.6; stroke: #ffffff; stroke-opacity: 0.6; stroke-width: 0.339411"/>
    <path d="M 208.11891 155.248499 
L 205.997589 159.491139 
L 210.24023 159.491139 
z
" clip-path="url(#paee73e3cc1)" style="fill: #88ccee; fill-opacity: 0.6; stroke: #ffffff; stroke-opacity: 0.6; stroke-width: 0.339411"/>
    <path d="M 205.19702 165.129066 
L 203.0757 169.371707 
L 207.318341 169.371707 
z
" clip-path="url(#paee73e3cc1)" style="fill: #88ccee; fill-opacity: 0.6; stroke: #ffffff; stroke-opacity: 0.6; stroke-width: 0.339411"/>
    <path d="M 196.646783 165.019695 
L 194.525462 169.262336 
L 198.768103 169.262336 
z
" clip-path="url(#paee73e3cc1)" style="fill: #88ccee; fill-opacity: 0.6; stroke: #ffffff; stroke-opacity: 0.6; stroke-width: 0.339411"/>
    <path d="M 205.969038 166.99017 
L 203.847718 171.23281 
L 208.090359 171.23281 
z
" clip-path="url(#paee73e3cc1)" style="fill: #88ccee; fill-opacity: 0.6; stroke: #ffffff; stroke-opacity: 0.6; stroke-width: 0.339411"/>
    <path d="M 179.613958 149.568898 
L 177.492637 153.811539 
L 181.735278 153.811539 
z
" clip-path="url(#paee73e3cc1)" style="fill: #88ccee; fill-opacity: 0.6; stroke: #ffffff; stroke-opacity: 0.6; stroke-width: 0.339411"/>
    <path d="M 193.563213 159.901364 
L 191.441893 164.144005 
L 195.684533 164.144005 
z
" clip-path="url(#paee73e3cc1)" style="fill: #88ccee; fill-opacity: 0.6; stroke: #ffffff; stroke-opacity: 0.6; stroke-width: 0.339411"/>
    <path d="M 191.281188 162.541197 
L 189.159868 166.783838 
L 193.402509 166.783838 
z
" clip-path="url(#paee73e3cc1)" style="fill: #88ccee; fill-opacity: 0.6; stroke: #ffffff; stroke-opacity: 0.6; stroke-width: 0.339411"/>
    <path d="M 208.695323 166.262652 
L 206.574002 170.505292 
L 210.816643 170.505292 
z
" clip-path="url(#paee73e3cc1)" style="fill: #88ccee; fill-opacity: 0.6; stroke: #ffffff; stroke-opacity: 0.6; stroke-width: 0.339411"/>
    <path d="M 191.8706 168.014129 
L 189.749279 172.25677 
L 193.99192 172.25677 
z
" clip-path="url(#paee73e3cc1)" style="fill: #88ccee; fill-opacity: 0.6; stroke: #ffffff; stroke-opacity: 0.6; stroke-width: 0.339411"/>
    <path d="M 199.925104 167.685438 
L 197.803784 171.928079 
L 202.046424 171.928079 
z
" clip-path="url(#paee73e3cc1)" style="fill: #88ccee; fill-opacity: 0.6; stroke: #ffffff; stroke-opacity: 0.6; stroke-width: 0.339411"/>
    <path d="M 195.815092 169.979242 
L 193.693771 174.221883 
L 197.936412 174.221883 
z
" clip-path="url(#paee73e3cc1)" style="fill: #88ccee; fill-opacity: 0.6; stroke: #ffffff; stroke-opacity: 0.6; stroke-width: 0.339411"/>
    <path d="M 200.74794 160.157605 
L 198.62662 164.400246 
L 202.86926 164.400246 
z
" clip-path="url(#paee73e3cc1)" style="fill: #88ccee; fill-opacity: 0.6; stroke: #ffffff; stroke-opacity: 0.6; stroke-width: 0.339411"/>
    <path d="M 208.925866 164.355655 
L 206.804545 168.598296 
L 211.047186 168.598296 
z
" clip-path="url(#paee73e3cc1)" style="fill: #88ccee; fill-opacity: 0.6; stroke: #ffffff; stroke-opacity: 0.6; stroke-width: 0.339411"/>
    <path d="M 205.432671 165.321168 
L 203.311351 169.563808 
L 207.553992 169.563808 
z
" clip-path="url(#paee73e3cc1)" style="fill: #88ccee; fill-opacity: 0.6; stroke: #ffffff; stroke-opacity: 0.6; stroke-width: 0.339411"/>
    <path d="M 192.847653 171.101547 
L 190.726332 175.344188 
L 194.968973 175.344188 
z
" clip-path="url(#paee73e3cc1)" style="fill: #88ccee; fill-opacity: 0.6; stroke: #ffffff; stroke-opacity: 0.6; stroke-width: 0.339411"/>
    <path d="M 197.058634 159.505604 
L 194.937313 163.748244 
L 199.179954 163.748244 
z
" clip-path="url(#paee73e3cc1)" style="fill: #88ccee; fill-opacity: 0.6; stroke: #ffffff; stroke-opacity: 0.6; stroke-width: 0.339411"/>
    <path d="M 194.302222 125.854306 
L 192.180902 130.096947 
L 196.423542 130.096947 
z
" clip-path="url(#paee73e3cc1)" style="fill: #88ccee; fill-opacity: 0.6; stroke: #ffffff; stroke-opacity: 0.6; stroke-width: 0.339411"/>
    <path d="M 190.717996 156.027347 
L 188.596676 160.269987 
L 192.839316 160.269987 
z
" clip-path="url(#paee73e3cc1)" style="fill: #88ccee; fill-opacity: 0.6; stroke: #ffffff; stroke-opacity: 0.6; stroke-width: 0.339411"/>
    <path d="M 211.412814 162.727737 
L 209.291494 166.970377 
L 213.534134 166.970377 
z
" clip-path="url(#paee73e3cc1)" style="fill: #88ccee; fill-opacity: 0.6; stroke: #ffffff; stroke-opacity: 0.6; stroke-width: 0.339411"/>
    <path d="M 166.847742 146.159612 
L 164.726422 150.402252 
L 168.969063 150.402252 
z
" clip-path="url(#paee73e3cc1)" style="fill: #88ccee; fill-opacity: 0.6; stroke: #ffffff; stroke-opacity: 0.6; stroke-width: 0.339411"/>
    <path d="M 198.078917 149.87575 
L 195.957597 154.118391 
L 200.200238 154.118391 
z
" clip-path="url(#paee73e3cc1)" style="fill: #88ccee; fill-opacity: 0.6; stroke: #ffffff; stroke-opacity: 0.6; stroke-width: 0.339411"/>
    <path d="M 171.763685 146.083109 
L 169.642364 150.32575 
L 173.885005 150.32575 
z
" clip-path="url(#paee73e3cc1)" style="fill: #88ccee; fill-opacity: 0.6; stroke: #ffffff; stroke-opacity: 0.6; stroke-width: 0.339411"/>
    <path d="M 197.902161 164.58677 
L 195.78084 168.829411 
L 200.023481 168.829411 
z
" clip-path="url(#paee73e3cc1)" style="fill: #88ccee; fill-opacity: 0.6; stroke: #ffffff; stroke-opacity: 0.6; stroke-width: 0.339411"/>
    <path d="M 209.325337 168.715838 
L 207.204016 172.958479 
L 211.446657 172.958479 
z
" clip-path="url(#paee73e3cc1)" style="fill: #88ccee; fill-opacity: 0.6; stroke: #ffffff; stroke-opacity: 0.6; stroke-width: 0.339411"/>
    <path d="M 190.863747 164.645289 
L 188.742427 168.88793 
L 192.985068 168.88793 
z
" clip-path="url(#paee73e3cc1)" style="fill: #88ccee; fill-opacity: 0.6; stroke: #ffffff; stroke-opacity: 0.6; stroke-width: 0.339411"/>
    <path d="M 201.625824 161.612471 
L 199.504504 165.855111 
L 203.747144 165.855111 
z
" clip-path="url(#paee73e3cc1)" style="fill: #88ccee; fill-opacity: 0.6; stroke: #ffffff; stroke-opacity: 0.6; stroke-width: 0.339411"/>
    <path d="M 213.564788 166.742105 
L 211.443467 170.984746 
L 215.686108 170.984746 
z
" clip-path="url(#paee73e3cc1)" style="fill: #88ccee; fill-opacity: 0.6; stroke: #ffffff; stroke-opacity: 0.6; stroke-width: 0.339411"/>
    <path d="M 202.47734 157.043934 
L 200.35602 161.286575 
L 204.598661 161.286575 
z
" clip-path="url(#paee73e3cc1)" style="fill: #88ccee; fill-opacity: 0.6; stroke: #ffffff; stroke-opacity: 0.6; stroke-width: 0.339411"/>
    <path d="M 202.526835 160.978691 
L 200.405515 165.221331 
L 204.648155 165.221331 
z
" clip-path="url(#paee73e3cc1)" style="fill: #88ccee; fill-opacity: 0.6; stroke: #ffffff; stroke-opacity: 0.6; stroke-width: 0.339411"/>
    <path d="M 212.554633 166.053177 
L 210.433313 170.295817 
L 214.675954 170.295817 
z
" clip-path="url(#paee73e3cc1)" style="fill: #88ccee; fill-opacity: 0.6; stroke: #ffffff; stroke-opacity: 0.6; stroke-width: 0.339411"/>
    <path d="M 205.49509 162.47112 
L 203.37377 166.713761 
L 207.61641 166.713761 
z
" clip-path="url(#paee73e3cc1)" style="fill: #88ccee; fill-opacity: 0.6; stroke: #ffffff; stroke-opacity: 0.6; stroke-width: 0.339411"/>
    <path d="M 209.453378 168.674671 
L 207.332057 172.917312 
L 211.574698 172.917312 
z
" clip-path="url(#paee73e3cc1)" style="fill: #88ccee; fill-opacity: 0.6; stroke: #ffffff; stroke-opacity: 0.6; stroke-width: 0.339411"/>
    <path d="M 202.699498 167.546538 
L 200.578178 171.789179 
L 204.820818 171.789179 
z
" clip-path="url(#paee73e3cc1)" style="fill: #88ccee; fill-opacity: 0.6; stroke: #ffffff; stroke-opacity: 0.6; stroke-width: 0.339411"/>
    <path d="M 193.097984 167.502853 
L 190.976663 171.745494 
L 195.219304 171.745494 
z
" clip-path="url(#paee73e3cc1)" style="fill: #88ccee; fill-opacity: 0.6; stroke: #ffffff; stroke-opacity: 0.6; stroke-width: 0.339411"/>
    <path d="M 195.31814 161.954453 
L 193.196819 166.197093 
L 197.43946 166.197093 
z
" clip-path="url(#paee73e3cc1)" style="fill: #88ccee; fill-opacity: 0.6; stroke: #ffffff; stroke-opacity: 0.6; stroke-width: 0.339411"/>
    <path d="M 214.571084 164.6251 
L 212.449763 168.867741 
L 216.692404 168.867741 
z
" clip-path="url(#paee73e3cc1)" style="fill: #88ccee; fill-opacity: 0.6; stroke: #ffffff; stroke-opacity: 0.6; stroke-width: 0.339411"/>
    <path d="M 166.510851 142.559804 
L 164.389531 146.802445 
L 168.632171 146.802445 
z
" clip-path="url(#paee73e3cc1)" style="fill: #88ccee; fill-opacity: 0.6; stroke: #ffffff; stroke-opacity: 0.6; stroke-width: 0.339411"/>
   </g>
   <g id="matplotlib.axis_1">
    <g id="xtick_1">
     <g id="line2d_1">
      <defs>
       <path id="mee15929426" d="M 0 0 
L 0 8 
" style="stroke: #000000"/>
      </defs>
      <g>
       <use xlink:href="#mee15929426" x="91.664715" y="188.478002" style="stroke: #000000"/>
      </g>
     </g>
     <g id="text_1">
      <!-- 0 -->
      <g transform="translate(87.847215 209.096127) scale(0.12 -0.12)">
       <defs>
        <path id="DejaVuSans-30" d="M 2034 4250 
Q 1547 4250 1301 3770 
Q 1056 3291 1056 2328 
Q 1056 1369 1301 889 
Q 1547 409 2034 409 
Q 2525 409 2770 889 
Q 3016 1369 3016 2328 
Q 3016 3291 2770 3770 
Q 2525 4250 2034 4250 
z
M 2034 4750 
Q 2819 4750 3233 4129 
Q 3647 3509 3647 2328 
Q 3647 1150 3233 529 
Q 2819 -91 2034 -91 
Q 1250 -91 836 529 
Q 422 1150 422 2328 
Q 422 3509 836 4129 
Q 1250 4750 2034 4750 
z
" transform="scale(0.015625)"/>
       </defs>
       <use xlink:href="#DejaVuSans-30"/>
      </g>
     </g>
    </g>
    <g id="xtick_2">
     <g id="line2d_2">
      <g>
       <use xlink:href="#mee15929426" x="156.506156" y="188.478002" style="stroke: #000000"/>
      </g>
     </g>
     <g id="text_2">
      <!-- 10 -->
      <g transform="translate(148.871156 209.096127) scale(0.12 -0.12)">
       <defs>
        <path id="DejaVuSans-31" d="M 794 531 
L 1825 531 
L 1825 4091 
L 703 3866 
L 703 4441 
L 1819 4666 
L 2450 4666 
L 2450 531 
L 3481 531 
L 3481 0 
L 794 0 
L 794 531 
z
" transform="scale(0.015625)"/>
       </defs>
       <use xlink:href="#DejaVuSans-31"/>
       <use xlink:href="#DejaVuSans-30" x="63.623047"/>
      </g>
     </g>
    </g>
    <g id="xtick_3">
     <g id="line2d_3">
      <g>
       <use xlink:href="#mee15929426" x="221.347596" y="188.478002" style="stroke: #000000"/>
      </g>
     </g>
     <g id="text_3">
      <!-- 20 -->
      <g transform="translate(213.712596 209.096127) scale(0.12 -0.12)">
       <defs>
        <path id="DejaVuSans-32" d="M 1228 531 
L 3431 531 
L 3431 0 
L 469 0 
L 469 531 
Q 828 903 1448 1529 
Q 2069 2156 2228 2338 
Q 2531 2678 2651 2914 
Q 2772 3150 2772 3378 
Q 2772 3750 2511 3984 
Q 2250 4219 1831 4219 
Q 1534 4219 1204 4116 
Q 875 4013 500 3803 
L 500 4441 
Q 881 4594 1212 4672 
Q 1544 4750 1819 4750 
Q 2544 4750 2975 4387 
Q 3406 4025 3406 3419 
Q 3406 3131 3298 2873 
Q 3191 2616 2906 2266 
Q 2828 2175 2409 1742 
Q 1991 1309 1228 531 
z
" transform="scale(0.015625)"/>
       </defs>
       <use xlink:href="#DejaVuSans-32"/>
       <use xlink:href="#DejaVuSans-30" x="63.623047"/>
      </g>
     </g>
    </g>
    <g id="text_4">
     <!-- UMAP 1 -->
     <g transform="translate(117.498511 224.709877) scale(0.12 -0.12)">
      <defs>
       <path id="DejaVuSans-55" d="M 556 4666 
L 1191 4666 
L 1191 1831 
Q 1191 1081 1462 751 
Q 1734 422 2344 422 
Q 2950 422 3222 751 
Q 3494 1081 3494 1831 
L 3494 4666 
L 4128 4666 
L 4128 1753 
Q 4128 841 3676 375 
Q 3225 -91 2344 -91 
Q 1459 -91 1007 375 
Q 556 841 556 1753 
L 556 4666 
z
" transform="scale(0.015625)"/>
       <path id="DejaVuSans-4d" d="M 628 4666 
L 1569 4666 
L 2759 1491 
L 3956 4666 
L 4897 4666 
L 4897 0 
L 4281 0 
L 4281 4097 
L 3078 897 
L 2444 897 
L 1241 4097 
L 1241 0 
L 628 0 
L 628 4666 
z
" transform="scale(0.015625)"/>
       <path id="DejaVuSans-41" d="M 2188 4044 
L 1331 1722 
L 3047 1722 
L 2188 4044 
z
M 1831 4666 
L 2547 4666 
L 4325 0 
L 3669 0 
L 3244 1197 
L 1141 1197 
L 716 0 
L 50 0 
L 1831 4666 
z
" transform="scale(0.015625)"/>
       <path id="DejaVuSans-50" d="M 1259 4147 
L 1259 2394 
L 2053 2394 
Q 2494 2394 2734 2622 
Q 2975 2850 2975 3272 
Q 2975 3691 2734 3919 
Q 2494 4147 2053 4147 
L 1259 4147 
z
M 628 4666 
L 2053 4666 
Q 2838 4666 3239 4311 
Q 3641 3956 3641 3272 
Q 3641 2581 3239 2228 
Q 2838 1875 2053 1875 
L 1259 1875 
L 1259 0 
L 628 0 
L 628 4666 
z
" transform="scale(0.015625)"/>
       <path id="DejaVuSans-20" transform="scale(0.015625)"/>
      </defs>
      <use xlink:href="#DejaVuSans-55"/>
      <use xlink:href="#DejaVuSans-4d" x="73.193359"/>
      <use xlink:href="#DejaVuSans-41" x="159.472656"/>
      <use xlink:href="#DejaVuSans-50" x="227.880859"/>
      <use xlink:href="#DejaVuSans-20" x="288.183594"/>
      <use xlink:href="#DejaVuSans-31" x="319.970703"/>
     </g>
    </g>
   </g>
   <g id="matplotlib.axis_2">
    <g id="ytick_1">
     <g id="line2d_4">
      <defs>
       <path id="m3ede7919a1" d="M 0 0 
L -8 0 
" style="stroke: #000000"/>
      </defs>
      <g>
       <use xlink:href="#m3ede7919a1" x="53.957638" y="150.770925" style="stroke: #000000"/>
      </g>
     </g>
     <g id="text_5">
      <!-- 0 -->
      <g transform="translate(34.822638 155.329987) scale(0.12 -0.12)">
       <use xlink:href="#DejaVuSans-30"/>
      </g>
     </g>
    </g>
    <g id="ytick_2">
     <g id="line2d_5">
      <g>
       <use xlink:href="#m3ede7919a1" x="53.957638" y="85.929484" style="stroke: #000000"/>
      </g>
     </g>
     <g id="text_6">
      <!-- 10 -->
      <g transform="translate(27.187638 90.488547) scale(0.12 -0.12)">
       <use xlink:href="#DejaVuSans-31"/>
       <use xlink:href="#DejaVuSans-30" x="63.623047"/>
      </g>
     </g>
    </g>
    <g id="ytick_3">
     <g id="line2d_6">
      <g>
       <use xlink:href="#m3ede7919a1" x="53.957638" y="21.088044" style="stroke: #000000"/>
      </g>
     </g>
     <g id="text_7">
      <!-- 20 -->
      <g transform="translate(27.187638 25.647106) scale(0.12 -0.12)">
       <use xlink:href="#DejaVuSans-32"/>
       <use xlink:href="#DejaVuSans-30" x="63.623047"/>
      </g>
     </g>
    </g>
    <g id="text_8">
     <!-- UMAP 2 -->
     <g transform="translate(20.692013 124.937128) rotate(-90) scale(0.12 -0.12)">
      <use xlink:href="#DejaVuSans-55"/>
      <use xlink:href="#DejaVuSans-4d" x="73.193359"/>
      <use xlink:href="#DejaVuSans-41" x="159.472656"/>
      <use xlink:href="#DejaVuSans-50" x="227.880859"/>
      <use xlink:href="#DejaVuSans-20" x="288.183594"/>
      <use xlink:href="#DejaVuSans-32" x="319.970703"/>
     </g>
    </g>
   </g>
   <g id="patch_3">
    <path d="M 53.957638 188.478002 
L 53.957638 15.36688 
" style="fill: none; stroke: #000000; stroke-width: 2; stroke-linejoin: miter; stroke-linecap: square"/>
   </g>
   <g id="patch_4">
    <path d="M 53.957638 188.478002 
L 227.06876 188.478002 
" style="fill: none; stroke: #000000; stroke-width: 2; stroke-linejoin: miter; stroke-linecap: square"/>
   </g>
  </g>
 </g>
 <defs>
  <clipPath id="paee73e3cc1">
   <rect x="53.957638" y="15.36688" width="173.111122" height="173.111122"/>
  </clipPath>
 </defs>
</svg>
