<?xml version="1.0" encoding="utf-8" standalone="no"?>
<!DOCTYPE svg PUBLIC "-//W3C//DTD SVG 1.1//EN"
  "http://www.w3.org/Graphics/SVG/1.1/DTD/svg11.dtd">
<svg xmlns:xlink="http://www.w3.org/1999/xlink" width="240.944882pt" height="240.944882pt" viewBox="0 0 240.944882 240.944882" xmlns="http://www.w3.org/2000/svg" version="1.1">
 <metadata>
  <rdf:RDF xmlns:dc="http://purl.org/dc/elements/1.1/" xmlns:cc="http://creativecommons.org/ns#" xmlns:rdf="http://www.w3.org/1999/02/22-rdf-syntax-ns#">
   <cc:Work>
    <dc:type rdf:resource="http://purl.org/dc/dcmitype/StillImage"/>
    <dc:date>2025-02-19T15:03:04.456942</dc:date>
    <dc:format>image/svg+xml</dc:format>
    <dc:creator>
     <cc:Agent>
      <dc:title>Matplotlib v3.6.2, https://matplotlib.org/</dc:title>
     </cc:Agent>
    </dc:creator>
   </cc:Work>
  </rdf:RDF>
 </metadata>
 <defs>
  <style type="text/css">*{stroke-linejoin: round; stroke-linecap: butt}</style>
 </defs>
 <g id="figure_1">
  <g id="patch_1">
   <path d="M 0 240.944882 
L 240.944882 240.944882 
L 240.944882 0 
L 0 0 
L 0 240.944882 
z
" style="fill: none"/>
  </g>
  <g id="axes_1">
   <g id="patch_2">
    <path d="M 53.957638 188.936063 
L 227.984882 188.936063 
L 227.984882 14.908819 
L 53.957638 14.908819 
L 53.957638 188.936063 
z
" style="fill: none"/>
   </g>
   <g id="PathCollection_1">
    <path d="M 80.234775 55.871204 
L 84.477415 55.871204 
L 84.477415 51.628563 
L 80.234775 51.628563 
z
" clip-path="url(#p3b365ddfde)" style="fill: #332288; fill-opacity: 0.6; stroke: #ffffff; stroke-opacity: 0.6; stroke-width: 0.339411"/>
    <path d="M 158.325898 61.338556 
L 162.568539 61.338556 
L 162.568539 57.095915 
L 158.325898 57.095915 
z
" clip-path="url(#p3b365ddfde)" style="fill: #332288; fill-opacity: 0.6; stroke: #ffffff; stroke-opacity: 0.6; stroke-width: 0.339411"/>
    <path d="M 151.594497 96.533638 
L 155.837138 96.533638 
L 155.837138 92.290997 
L 151.594497 92.290997 
z
" clip-path="url(#p3b365ddfde)" style="fill: #332288; fill-opacity: 0.6; stroke: #ffffff; stroke-opacity: 0.6; stroke-width: 0.339411"/>
    <path d="M 109.167084 61.783921 
L 113.409724 61.783921 
L 113.409724 57.54128 
L 109.167084 57.54128 
z
" clip-path="url(#p3b365ddfde)" style="fill: #332288; fill-opacity: 0.6; stroke: #ffffff; stroke-opacity: 0.6; stroke-width: 0.339411"/>
    <path d="M 84.094864 46.347046 
L 88.337504 46.347046 
L 88.337504 42.104405 
L 84.094864 42.104405 
z
" clip-path="url(#p3b365ddfde)" style="fill: #332288; fill-opacity: 0.6; stroke: #ffffff; stroke-opacity: 0.6; stroke-width: 0.339411"/>
    <path d="M 88.82755 40.475481 
L 93.070191 40.475481 
L 93.070191 36.232841 
L 88.82755 36.232841 
z
" clip-path="url(#p3b365ddfde)" style="fill: #332288; fill-opacity: 0.6; stroke: #ffffff; stroke-opacity: 0.6; stroke-width: 0.339411"/>
    <path d="M 148.154748 99.666504 
L 152.397389 99.666504 
L 152.397389 95.423863 
L 148.154748 95.423863 
z
" clip-path="url(#p3b365ddfde)" style="fill: #332288; fill-opacity: 0.6; stroke: #ffffff; stroke-opacity: 0.6; stroke-width: 0.339411"/>
    <path d="M 85.738275 61.177202 
L 89.980916 61.177202 
L 89.980916 56.934561 
L 85.738275 56.934561 
z
" clip-path="url(#p3b365ddfde)" style="fill: #332288; fill-opacity: 0.6; stroke: #ffffff; stroke-opacity: 0.6; stroke-width: 0.339411"/>
    <path d="M 164.702746 92.396492 
L 168.945386 92.396492 
L 168.945386 88.153851 
L 164.702746 88.153851 
z
" clip-path="url(#p3b365ddfde)" style="fill: #332288; fill-opacity: 0.6; stroke: #ffffff; stroke-opacity: 0.6; stroke-width: 0.339411"/>
    <path d="M 86.439648 54.229073 
L 90.682288 54.229073 
L 90.682288 49.986432 
L 86.439648 49.986432 
z
" clip-path="url(#p3b365ddfde)" style="fill: #332288; fill-opacity: 0.6; stroke: #ffffff; stroke-opacity: 0.6; stroke-width: 0.339411"/>
    <path d="M 84.755236 61.06217 
L 88.997876 61.06217 
L 88.997876 56.81953 
L 84.755236 56.81953 
z
" clip-path="url(#p3b365ddfde)" style="fill: #332288; fill-opacity: 0.6; stroke: #ffffff; stroke-opacity: 0.6; stroke-width: 0.339411"/>
    <path d="M 149.339741 98.848907 
L 153.582382 98.848907 
L 153.582382 94.606266 
L 149.339741 94.606266 
z
" clip-path="url(#p3b365ddfde)" style="fill: #332288; fill-opacity: 0.6; stroke: #ffffff; stroke-opacity: 0.6; stroke-width: 0.339411"/>
    <path d="M 91.296982 50.26074 
L 95.539623 50.26074 
L 95.539623 46.018099 
L 91.296982 46.018099 
z
" clip-path="url(#p3b365ddfde)" style="fill: #332288; fill-opacity: 0.6; stroke: #ffffff; stroke-opacity: 0.6; stroke-width: 0.339411"/>
    <path d="M 168.957119 65.826457 
L 173.19976 65.826457 
L 173.19976 61.583817 
L 168.957119 61.583817 
z
" clip-path="url(#p3b365ddfde)" style="fill: #332288; fill-opacity: 0.6; stroke: #ffffff; stroke-opacity: 0.6; stroke-width: 0.339411"/>
    <path d="M 79.407997 45.323049 
L 83.650638 45.323049 
L 83.650638 41.080409 
L 79.407997 41.080409 
z
" clip-path="url(#p3b365ddfde)" style="fill: #332288; fill-opacity: 0.6; stroke: #ffffff; stroke-opacity: 0.6; stroke-width: 0.339411"/>
    <path d="M 93.886021 58.46859 
L 98.128661 58.46859 
L 98.128661 54.225949 
L 93.886021 54.225949 
z
" clip-path="url(#p3b365ddfde)" style="fill: #332288; fill-opacity: 0.6; stroke: #ffffff; stroke-opacity: 0.6; stroke-width: 0.339411"/>
    <path d="M 82.200929 59.681829 
L 86.44357 59.681829 
L 86.44357 55.439189 
L 82.200929 55.439189 
z
" clip-path="url(#p3b365ddfde)" style="fill: #332288; fill-opacity: 0.6; stroke: #ffffff; stroke-opacity: 0.6; stroke-width: 0.339411"/>
    <path d="M 91.863317 59.624012 
L 96.105958 59.624012 
L 96.105958 55.381372 
L 91.863317 55.381372 
z
" clip-path="url(#p3b365ddfde)" style="fill: #332288; fill-opacity: 0.6; stroke: #ffffff; stroke-opacity: 0.6; stroke-width: 0.339411"/>
    <path d="M 96.974547 50.582345 
L 101.217187 50.582345 
L 101.217187 46.339705 
L 96.974547 46.339705 
z
" clip-path="url(#p3b365ddfde)" style="fill: #332288; fill-opacity: 0.6; stroke: #ffffff; stroke-opacity: 0.6; stroke-width: 0.339411"/>
    <path d="M 92.622941 57.937414 
L 96.865582 57.937414 
L 96.865582 53.694774 
L 92.622941 53.694774 
z
" clip-path="url(#p3b365ddfde)" style="fill: #332288; fill-opacity: 0.6; stroke: #ffffff; stroke-opacity: 0.6; stroke-width: 0.339411"/>
    <path d="M 77.471166 44.056543 
L 81.713806 44.056543 
L 81.713806 39.813902 
L 77.471166 39.813902 
z
" clip-path="url(#p3b365ddfde)" style="fill: #332288; fill-opacity: 0.6; stroke: #ffffff; stroke-opacity: 0.6; stroke-width: 0.339411"/>
    <path d="M 90.927105 60.147101 
L 95.169746 60.147101 
L 95.169746 55.904461 
L 90.927105 55.904461 
z
" clip-path="url(#p3b365ddfde)" style="fill: #332288; fill-opacity: 0.6; stroke: #ffffff; stroke-opacity: 0.6; stroke-width: 0.339411"/>
    <path d="M 88.607484 54.204084 
L 92.850125 54.204084 
L 92.850125 49.961444 
L 88.607484 49.961444 
z
" clip-path="url(#p3b365ddfde)" style="fill: #332288; fill-opacity: 0.6; stroke: #ffffff; stroke-opacity: 0.6; stroke-width: 0.339411"/>
    <path d="M 107.314827 60.059056 
L 111.557468 60.059056 
L 111.557468 55.816415 
L 107.314827 55.816415 
z
" clip-path="url(#p3b365ddfde)" style="fill: #332288; fill-opacity: 0.6; stroke: #ffffff; stroke-opacity: 0.6; stroke-width: 0.339411"/>
    <path d="M 105.577837 59.76335 
L 109.820477 59.76335 
L 109.820477 55.52071 
L 105.577837 55.52071 
z
" clip-path="url(#p3b365ddfde)" style="fill: #332288; fill-opacity: 0.6; stroke: #ffffff; stroke-opacity: 0.6; stroke-width: 0.339411"/>
    <path d="M 89.24852 41.980772 
L 93.491161 41.980772 
L 93.491161 37.738131 
L 89.24852 37.738131 
z
" clip-path="url(#p3b365ddfde)" style="fill: #332288; fill-opacity: 0.6; stroke: #ffffff; stroke-opacity: 0.6; stroke-width: 0.339411"/>
    <path d="M 87.803491 54.971158 
L 92.046131 54.971158 
L 92.046131 50.728517 
L 87.803491 50.728517 
z
" clip-path="url(#p3b365ddfde)" style="fill: #332288; fill-opacity: 0.6; stroke: #ffffff; stroke-opacity: 0.6; stroke-width: 0.339411"/>
    <path d="M 159.404065 61.426562 
L 163.646705 61.426562 
L 163.646705 57.183921 
L 159.404065 57.183921 
z
" clip-path="url(#p3b365ddfde)" style="fill: #332288; fill-opacity: 0.6; stroke: #ffffff; stroke-opacity: 0.6; stroke-width: 0.339411"/>
    <path d="M 170.880123 66.059121 
L 175.122764 66.059121 
L 175.122764 61.81648 
L 170.880123 61.81648 
z
" clip-path="url(#p3b365ddfde)" style="fill: #332288; fill-opacity: 0.6; stroke: #ffffff; stroke-opacity: 0.6; stroke-width: 0.339411"/>
    <path d="M 76.666464 44.287304 
L 80.909105 44.287304 
L 80.909105 40.044663 
L 76.666464 40.044663 
z
" clip-path="url(#p3b365ddfde)" style="fill: #332288; fill-opacity: 0.6; stroke: #ffffff; stroke-opacity: 0.6; stroke-width: 0.339411"/>
    <path d="M 153.395873 98.332786 
L 157.638514 98.332786 
L 157.638514 94.090145 
L 153.395873 94.090145 
z
" clip-path="url(#p3b365ddfde)" style="fill: #332288; fill-opacity: 0.6; stroke: #ffffff; stroke-opacity: 0.6; stroke-width: 0.339411"/>
    <path d="M 163.10987 59.91481 
L 167.35251 59.91481 
L 167.35251 55.67217 
L 163.10987 55.67217 
z
" clip-path="url(#p3b365ddfde)" style="fill: #332288; fill-opacity: 0.6; stroke: #ffffff; stroke-opacity: 0.6; stroke-width: 0.339411"/>
    <path d="M 79.79134 47.549052 
L 84.03398 47.549052 
L 84.03398 43.306411 
L 79.79134 43.306411 
z
" clip-path="url(#p3b365ddfde)" style="fill: #332288; fill-opacity: 0.6; stroke: #ffffff; stroke-opacity: 0.6; stroke-width: 0.339411"/>
    <path d="M 81.237852 39.977444 
L 85.480492 39.977444 
L 85.480492 35.734803 
L 81.237852 35.734803 
z
" clip-path="url(#p3b365ddfde)" style="fill: #332288; fill-opacity: 0.6; stroke: #ffffff; stroke-opacity: 0.6; stroke-width: 0.339411"/>
    <path d="M 109.567427 62.976303 
L 113.810068 62.976303 
L 113.810068 58.733662 
L 109.567427 58.733662 
z
" clip-path="url(#p3b365ddfde)" style="fill: #332288; fill-opacity: 0.6; stroke: #ffffff; stroke-opacity: 0.6; stroke-width: 0.339411"/>
    <path d="M 95.660811 53.368808 
L 99.903451 53.368808 
L 99.903451 49.126167 
L 95.660811 49.126167 
z
" clip-path="url(#p3b365ddfde)" style="fill: #332288; fill-opacity: 0.6; stroke: #ffffff; stroke-opacity: 0.6; stroke-width: 0.339411"/>
    <path d="M 92.886184 52.140236 
L 97.128825 52.140236 
L 97.128825 47.897595 
L 92.886184 47.897595 
z
" clip-path="url(#p3b365ddfde)" style="fill: #332288; fill-opacity: 0.6; stroke: #ffffff; stroke-opacity: 0.6; stroke-width: 0.339411"/>
    <path d="M 80.260266 40.432656 
L 84.502907 40.432656 
L 84.502907 36.190015 
L 80.260266 36.190015 
z
" clip-path="url(#p3b365ddfde)" style="fill: #332288; fill-opacity: 0.6; stroke: #ffffff; stroke-opacity: 0.6; stroke-width: 0.339411"/>
    <path d="M 84.438954 47.631152 
L 88.681595 47.631152 
L 88.681595 43.388511 
L 84.438954 43.388511 
z
" clip-path="url(#p3b365ddfde)" style="fill: #332288; fill-opacity: 0.6; stroke: #ffffff; stroke-opacity: 0.6; stroke-width: 0.339411"/>
    <path d="M 75.89158 48.045995 
L 80.134221 48.045995 
L 80.134221 43.803354 
L 75.89158 43.803354 
z
" clip-path="url(#p3b365ddfde)" style="fill: #332288; fill-opacity: 0.6; stroke: #ffffff; stroke-opacity: 0.6; stroke-width: 0.339411"/>
    <path d="M 92.161671 45.882368 
L 96.404311 45.882368 
L 96.404311 41.639728 
L 92.161671 41.639728 
z
" clip-path="url(#p3b365ddfde)" style="fill: #332288; fill-opacity: 0.6; stroke: #ffffff; stroke-opacity: 0.6; stroke-width: 0.339411"/>
    <path d="M 91.522014 45.641 
L 95.764654 45.641 
L 95.764654 41.398359 
L 91.522014 41.398359 
z
" clip-path="url(#p3b365ddfde)" style="fill: #332288; fill-opacity: 0.6; stroke: #ffffff; stroke-opacity: 0.6; stroke-width: 0.339411"/>
    <path d="M 79.280457 41.442747 
L 83.523098 41.442747 
L 83.523098 37.200106 
L 79.280457 37.200106 
z
" clip-path="url(#p3b365ddfde)" style="fill: #332288; fill-opacity: 0.6; stroke: #ffffff; stroke-opacity: 0.6; stroke-width: 0.339411"/>
    <path d="M 151.318318 96.001574 
L 155.560959 96.001574 
L 155.560959 91.758934 
L 151.318318 91.758934 
z
" clip-path="url(#p3b365ddfde)" style="fill: #332288; fill-opacity: 0.6; stroke: #ffffff; stroke-opacity: 0.6; stroke-width: 0.339411"/>
    <path d="M 164.007608 89.516545 
L 168.250249 89.516545 
L 168.250249 85.273904 
L 164.007608 85.273904 
z
" clip-path="url(#p3b365ddfde)" style="fill: #332288; fill-opacity: 0.6; stroke: #ffffff; stroke-opacity: 0.6; stroke-width: 0.339411"/>
    <path d="M 87.390056 44.361746 
L 91.632697 44.361746 
L 91.632697 40.119105 
L 87.390056 40.119105 
z
" clip-path="url(#p3b365ddfde)" style="fill: #332288; fill-opacity: 0.6; stroke: #ffffff; stroke-opacity: 0.6; stroke-width: 0.339411"/>
    <path d="M 87.366675 56.051639 
L 91.609316 56.051639 
L 91.609316 51.808999 
L 87.366675 51.808999 
z
" clip-path="url(#p3b365ddfde)" style="fill: #332288; fill-opacity: 0.6; stroke: #ffffff; stroke-opacity: 0.6; stroke-width: 0.339411"/>
    <path d="M 87.584623 45.039743 
L 91.827264 45.039743 
L 91.827264 40.797102 
L 87.584623 40.797102 
z
" clip-path="url(#p3b365ddfde)" style="fill: #332288; fill-opacity: 0.6; stroke: #ffffff; stroke-opacity: 0.6; stroke-width: 0.339411"/>
    <path d="M 89.656607 40.116798 
L 93.899248 40.116798 
L 93.899248 35.874157 
L 89.656607 35.874157 
z
" clip-path="url(#p3b365ddfde)" style="fill: #332288; fill-opacity: 0.6; stroke: #ffffff; stroke-opacity: 0.6; stroke-width: 0.339411"/>
    <path d="M 94.742063 50.685699 
L 98.984704 50.685699 
L 98.984704 46.443059 
L 94.742063 46.443059 
z
" clip-path="url(#p3b365ddfde)" style="fill: #332288; fill-opacity: 0.6; stroke: #ffffff; stroke-opacity: 0.6; stroke-width: 0.339411"/>
    <path d="M 81.251678 54.514488 
L 85.494318 54.514488 
L 85.494318 50.271847 
L 81.251678 50.271847 
z
" clip-path="url(#p3b365ddfde)" style="fill: #332288; fill-opacity: 0.6; stroke: #ffffff; stroke-opacity: 0.6; stroke-width: 0.339411"/>
    <path d="M 81.33395 55.797365 
L 85.576591 55.797365 
L 85.576591 51.554724 
L 81.33395 51.554724 
z
" clip-path="url(#p3b365ddfde)" style="fill: #332288; fill-opacity: 0.6; stroke: #ffffff; stroke-opacity: 0.6; stroke-width: 0.339411"/>
    <path d="M 79.940136 58.013846 
L 84.182776 58.013846 
L 84.182776 53.771205 
L 79.940136 53.771205 
z
" clip-path="url(#p3b365ddfde)" style="fill: #332288; fill-opacity: 0.6; stroke: #ffffff; stroke-opacity: 0.6; stroke-width: 0.339411"/>
    <path d="M 165.938984 91.507687 
L 170.181624 91.507687 
L 170.181624 87.265047 
L 165.938984 87.265047 
z
" clip-path="url(#p3b365ddfde)" style="fill: #332288; fill-opacity: 0.6; stroke: #ffffff; stroke-opacity: 0.6; stroke-width: 0.339411"/>
    <path d="M 78.353608 46.076376 
L 82.596249 46.076376 
L 82.596249 41.833736 
L 78.353608 41.833736 
z
" clip-path="url(#p3b365ddfde)" style="fill: #332288; fill-opacity: 0.6; stroke: #ffffff; stroke-opacity: 0.6; stroke-width: 0.339411"/>
    <path d="M 159.185996 57.725791 
L 163.428637 57.725791 
L 163.428637 53.48315 
L 159.185996 53.48315 
z
" clip-path="url(#p3b365ddfde)" style="fill: #332288; fill-opacity: 0.6; stroke: #ffffff; stroke-opacity: 0.6; stroke-width: 0.339411"/>
    <path d="M 93.072964 43.179131 
L 97.315605 43.179131 
L 97.315605 38.93649 
L 93.072964 38.93649 
z
" clip-path="url(#p3b365ddfde)" style="fill: #332288; fill-opacity: 0.6; stroke: #ffffff; stroke-opacity: 0.6; stroke-width: 0.339411"/>
    <path d="M 80.520961 46.952266 
L 84.763601 46.952266 
L 84.763601 42.709626 
L 80.520961 42.709626 
z
" clip-path="url(#p3b365ddfde)" style="fill: #332288; fill-opacity: 0.6; stroke: #ffffff; stroke-opacity: 0.6; stroke-width: 0.339411"/>
    <path d="M 90.773771 56.705085 
L 95.016411 56.705085 
L 95.016411 52.462444 
L 90.773771 52.462444 
z
" clip-path="url(#p3b365ddfde)" style="fill: #332288; fill-opacity: 0.6; stroke: #ffffff; stroke-opacity: 0.6; stroke-width: 0.339411"/>
    <path d="M 106.786435 62.325426 
L 111.029075 62.325426 
L 111.029075 58.082786 
L 106.786435 58.082786 
z
" clip-path="url(#p3b365ddfde)" style="fill: #332288; fill-opacity: 0.6; stroke: #ffffff; stroke-opacity: 0.6; stroke-width: 0.339411"/>
    <path d="M 84.461282 58.41935 
L 88.703923 58.41935 
L 88.703923 54.17671 
L 84.461282 54.17671 
z
" clip-path="url(#p3b365ddfde)" style="fill: #332288; fill-opacity: 0.6; stroke: #ffffff; stroke-opacity: 0.6; stroke-width: 0.339411"/>
    <path d="M 86.351554 42.48642 
L 90.594195 42.48642 
L 90.594195 38.243779 
L 86.351554 38.243779 
z
" clip-path="url(#p3b365ddfde)" style="fill: #332288; fill-opacity: 0.6; stroke: #ffffff; stroke-opacity: 0.6; stroke-width: 0.339411"/>
    <path d="M 155.059862 95.841188 
L 159.302502 95.841188 
L 159.302502 91.598547 
L 155.059862 91.598547 
z
" clip-path="url(#p3b365ddfde)" style="fill: #332288; fill-opacity: 0.6; stroke: #ffffff; stroke-opacity: 0.6; stroke-width: 0.339411"/>
    <path d="M 86.444791 41.93525 
L 90.687431 41.93525 
L 90.687431 37.69261 
L 86.444791 37.69261 
z
" clip-path="url(#p3b365ddfde)" style="fill: #332288; fill-opacity: 0.6; stroke: #ffffff; stroke-opacity: 0.6; stroke-width: 0.339411"/>
    <path d="M 157.345035 57.072853 
L 158.405695 56.012193 
L 159.466355 57.072853 
L 160.527015 56.012193 
L 159.466355 54.951533 
L 160.527015 53.890873 
L 159.466355 52.830212 
L 158.405695 53.890873 
L 157.345035 52.830212 
L 156.284374 53.890873 
L 157.345035 54.951533 
L 156.284374 56.012193 
z
" clip-path="url(#p3b365ddfde)" style="fill: #117733; fill-opacity: 0.6; stroke: #ffffff; stroke-opacity: 0.6; stroke-width: 0.339411"/>
    <path d="M 171.388694 85.891809 
L 172.449355 84.831149 
L 173.510015 85.891809 
L 174.570675 84.831149 
L 173.510015 83.770489 
L 174.570675 82.709829 
L 173.510015 81.649168 
L 172.449355 82.709829 
L 171.388694 81.649168 
L 170.328034 82.709829 
L 171.388694 83.770489 
L 170.328034 84.831149 
z
" clip-path="url(#p3b365ddfde)" style="fill: #117733; fill-opacity: 0.6; stroke: #ffffff; stroke-opacity: 0.6; stroke-width: 0.339411"/>
    <path d="M 181.134623 91.755414 
L 182.195284 90.694754 
L 183.255944 91.755414 
L 184.316604 90.694754 
L 183.255944 89.634094 
L 184.316604 88.573433 
L 183.255944 87.512773 
L 182.195284 88.573433 
L 181.134623 87.512773 
L 180.073963 88.573433 
L 181.134623 89.634094 
L 180.073963 90.694754 
z
" clip-path="url(#p3b365ddfde)" style="fill: #117733; fill-opacity: 0.6; stroke: #ffffff; stroke-opacity: 0.6; stroke-width: 0.339411"/>
    <path d="M 162.888707 76.17943 
L 163.949367 75.11877 
L 165.010027 76.17943 
L 166.070688 75.11877 
L 165.010027 74.05811 
L 166.070688 72.99745 
L 165.010027 71.93679 
L 163.949367 72.99745 
L 162.888707 71.93679 
L 161.828047 72.99745 
L 162.888707 74.05811 
L 161.828047 75.11877 
z
" clip-path="url(#p3b365ddfde)" style="fill: #117733; fill-opacity: 0.6; stroke: #ffffff; stroke-opacity: 0.6; stroke-width: 0.339411"/>
    <path d="M 180.63133 93.915552 
L 181.69199 92.854892 
L 182.75265 93.915552 
L 183.81331 92.854892 
L 182.75265 91.794232 
L 183.81331 90.733572 
L 182.75265 89.672912 
L 181.69199 90.733572 
L 180.63133 89.672912 
L 179.57067 90.733572 
L 180.63133 91.794232 
L 179.57067 92.854892 
z
" clip-path="url(#p3b365ddfde)" style="fill: #117733; fill-opacity: 0.6; stroke: #ffffff; stroke-opacity: 0.6; stroke-width: 0.339411"/>
    <path d="M 192.896596 98.115526 
L 193.957256 97.054866 
L 195.017917 98.115526 
L 196.078577 97.054866 
L 195.017917 95.994206 
L 196.078577 94.933545 
L 195.017917 93.872885 
L 193.957256 94.933545 
L 192.896596 93.872885 
L 191.835936 94.933545 
L 192.896596 95.994206 
L 191.835936 97.054866 
z
" clip-path="url(#p3b365ddfde)" style="fill: #117733; fill-opacity: 0.6; stroke: #ffffff; stroke-opacity: 0.6; stroke-width: 0.339411"/>
    <path d="M 163.851763 77.161259 
L 164.912423 76.100599 
L 165.973083 77.161259 
L 167.033743 76.100599 
L 165.973083 75.039938 
L 167.033743 73.979278 
L 165.973083 72.918618 
L 164.912423 73.979278 
L 163.851763 72.918618 
L 162.791102 73.979278 
L 163.851763 75.039938 
L 162.791102 76.100599 
z
" clip-path="url(#p3b365ddfde)" style="fill: #117733; fill-opacity: 0.6; stroke: #ffffff; stroke-opacity: 0.6; stroke-width: 0.339411"/>
    <path d="M 118.717738 169.31141 
L 119.778399 168.25075 
L 120.839059 169.31141 
L 121.899719 168.25075 
L 120.839059 167.190089 
L 121.899719 166.129429 
L 120.839059 165.068769 
L 119.778399 166.129429 
L 118.717738 165.068769 
L 117.657078 166.129429 
L 118.717738 167.190089 
L 117.657078 168.25075 
z
" clip-path="url(#p3b365ddfde)" style="fill: #117733; fill-opacity: 0.6; stroke: #ffffff; stroke-opacity: 0.6; stroke-width: 0.339411"/>
    <path d="M 118.228271 178.047016 
L 119.288931 176.986356 
L 120.349591 178.047016 
L 121.410251 176.986356 
L 120.349591 175.925696 
L 121.410251 174.865036 
L 120.349591 173.804376 
L 119.288931 174.865036 
L 118.228271 173.804376 
L 117.167611 174.865036 
L 118.228271 175.925696 
L 117.167611 176.986356 
z
" clip-path="url(#p3b365ddfde)" style="fill: #117733; fill-opacity: 0.6; stroke: #ffffff; stroke-opacity: 0.6; stroke-width: 0.339411"/>
    <path d="M 164.459021 82.740392 
L 165.519681 81.679732 
L 166.580341 82.740392 
L 167.641001 81.679732 
L 166.580341 80.619072 
L 167.641001 79.558412 
L 166.580341 78.497751 
L 165.519681 79.558412 
L 164.459021 78.497751 
L 163.398361 79.558412 
L 164.459021 80.619072 
L 163.398361 81.679732 
z
" clip-path="url(#p3b365ddfde)" style="fill: #117733; fill-opacity: 0.6; stroke: #ffffff; stroke-opacity: 0.6; stroke-width: 0.339411"/>
    <path d="M 182.738273 97.575154 
L 183.798933 96.514494 
L 184.859594 97.575154 
L 185.920254 96.514494 
L 184.859594 95.453834 
L 185.920254 94.393174 
L 184.859594 93.332514 
L 183.798933 94.393174 
L 182.738273 93.332514 
L 181.677613 94.393174 
L 182.738273 95.453834 
L 181.677613 96.514494 
z
" clip-path="url(#p3b365ddfde)" style="fill: #117733; fill-opacity: 0.6; stroke: #ffffff; stroke-opacity: 0.6; stroke-width: 0.339411"/>
    <path d="M 148.133579 77.366604 
L 149.194239 76.305943 
L 150.254899 77.366604 
L 151.315559 76.305943 
L 150.254899 75.245283 
L 151.315559 74.184623 
L 150.254899 73.123963 
L 149.194239 74.184623 
L 148.133579 73.123963 
L 147.072919 74.184623 
L 148.133579 75.245283 
L 147.072919 76.305943 
z
" clip-path="url(#p3b365ddfde)" style="fill: #117733; fill-opacity: 0.6; stroke: #ffffff; stroke-opacity: 0.6; stroke-width: 0.339411"/>
    <path d="M 145.708305 75.680109 
L 146.768965 74.619448 
L 147.829625 75.680109 
L 148.890285 74.619448 
L 147.829625 73.558788 
L 148.890285 72.498128 
L 147.829625 71.437468 
L 146.768965 72.498128 
L 145.708305 71.437468 
L 144.647644 72.498128 
L 145.708305 73.558788 
L 144.647644 74.619448 
z
" clip-path="url(#p3b365ddfde)" style="fill: #117733; fill-opacity: 0.6; stroke: #ffffff; stroke-opacity: 0.6; stroke-width: 0.339411"/>
    <path d="M 179.439012 104.97228 
L 180.499672 103.91162 
L 181.560332 104.97228 
L 182.620992 103.91162 
L 181.560332 102.85096 
L 182.620992 101.7903 
L 181.560332 100.729639 
L 180.499672 101.7903 
L 179.439012 100.729639 
L 178.378351 101.7903 
L 179.439012 102.85096 
L 178.378351 103.91162 
z
" clip-path="url(#p3b365ddfde)" style="fill: #117733; fill-opacity: 0.6; stroke: #ffffff; stroke-opacity: 0.6; stroke-width: 0.339411"/>
    <path d="M 121.500063 178.306566 
L 122.560723 177.245906 
L 123.621383 178.306566 
L 124.682043 177.245906 
L 123.621383 176.185246 
L 124.682043 175.124585 
L 123.621383 174.063925 
L 122.560723 175.124585 
L 121.500063 174.063925 
L 120.439403 175.124585 
L 121.500063 176.185246 
L 120.439403 177.245906 
z
" clip-path="url(#p3b365ddfde)" style="fill: #117733; fill-opacity: 0.6; stroke: #ffffff; stroke-opacity: 0.6; stroke-width: 0.339411"/>
    <path d="M 178.097644 83.636078 
L 179.158304 82.575417 
L 180.218964 83.636078 
L 181.279624 82.575417 
L 180.218964 81.514757 
L 181.279624 80.454097 
L 180.218964 79.393437 
L 179.158304 80.454097 
L 178.097644 79.393437 
L 177.036983 80.454097 
L 178.097644 81.514757 
L 177.036983 82.575417 
z
" clip-path="url(#p3b365ddfde)" style="fill: #117733; fill-opacity: 0.6; stroke: #ffffff; stroke-opacity: 0.6; stroke-width: 0.339411"/>
    <path d="M 179.28492 87.847578 
L 180.34558 86.786918 
L 181.40624 87.847578 
L 182.4669 86.786918 
L 181.40624 85.726258 
L 182.4669 84.665598 
L 181.40624 83.604937 
L 180.34558 84.665598 
L 179.28492 83.604937 
L 178.22426 84.665598 
L 179.28492 85.726258 
L 178.22426 86.786918 
z
" clip-path="url(#p3b365ddfde)" style="fill: #117733; fill-opacity: 0.6; stroke: #ffffff; stroke-opacity: 0.6; stroke-width: 0.339411"/>
    <path d="M 149.10675 74.309788 
L 150.167411 73.249128 
L 151.228071 74.309788 
L 152.288731 73.249128 
L 151.228071 72.188468 
L 152.288731 71.127808 
L 151.228071 70.067148 
L 150.167411 71.127808 
L 149.10675 70.067148 
L 148.04609 71.127808 
L 149.10675 72.188468 
L 148.04609 73.249128 
z
" clip-path="url(#p3b365ddfde)" style="fill: #117733; fill-opacity: 0.6; stroke: #ffffff; stroke-opacity: 0.6; stroke-width: 0.339411"/>
    <path d="M 118.812384 176.788158 
L 119.873044 175.727498 
L 120.933704 176.788158 
L 121.994364 175.727498 
L 120.933704 174.666838 
L 121.994364 173.606177 
L 120.933704 172.545517 
L 119.873044 173.606177 
L 118.812384 172.545517 
L 117.751724 173.606177 
L 118.812384 174.666838 
L 117.751724 175.727498 
z
" clip-path="url(#p3b365ddfde)" style="fill: #117733; fill-opacity: 0.6; stroke: #ffffff; stroke-opacity: 0.6; stroke-width: 0.339411"/>
    <path d="M 165.827216 55.038076 
L 166.887876 53.977416 
L 167.948537 55.038076 
L 169.009197 53.977416 
L 167.948537 52.916756 
L 169.009197 51.856096 
L 167.948537 50.795435 
L 166.887876 51.856096 
L 165.827216 50.795435 
L 164.766556 51.856096 
L 165.827216 52.916756 
L 164.766556 53.977416 
z
" clip-path="url(#p3b365ddfde)" style="fill: #117733; fill-opacity: 0.6; stroke: #ffffff; stroke-opacity: 0.6; stroke-width: 0.339411"/>
    <path d="M 113.720479 172.696802 
L 114.781139 171.636141 
L 115.841799 172.696802 
L 116.902459 171.636141 
L 115.841799 170.575481 
L 116.902459 169.514821 
L 115.841799 168.454161 
L 114.781139 169.514821 
L 113.720479 168.454161 
L 112.659818 169.514821 
L 113.720479 170.575481 
L 112.659818 171.636141 
z
" clip-path="url(#p3b365ddfde)" style="fill: #117733; fill-opacity: 0.6; stroke: #ffffff; stroke-opacity: 0.6; stroke-width: 0.339411"/>
    <path d="M 162.564874 54.806023 
L 163.625534 53.745363 
L 164.686194 54.806023 
L 165.746855 53.745363 
L 164.686194 52.684702 
L 165.746855 51.624042 
L 164.686194 50.563382 
L 163.625534 51.624042 
L 162.564874 50.563382 
L 161.504214 51.624042 
L 162.564874 52.684702 
L 161.504214 53.745363 
z
" clip-path="url(#p3b365ddfde)" style="fill: #117733; fill-opacity: 0.6; stroke: #ffffff; stroke-opacity: 0.6; stroke-width: 0.339411"/>
    <path d="M 162.457738 57.485025 
L 163.518399 56.424365 
L 164.579059 57.485025 
L 165.639719 56.424365 
L 164.579059 55.363705 
L 165.639719 54.303044 
L 164.579059 53.242384 
L 163.518399 54.303044 
L 162.457738 53.242384 
L 161.397078 54.303044 
L 162.457738 55.363705 
L 161.397078 56.424365 
z
" clip-path="url(#p3b365ddfde)" style="fill: #117733; fill-opacity: 0.6; stroke: #ffffff; stroke-opacity: 0.6; stroke-width: 0.339411"/>
    <path d="M 151.351851 73.006767 
L 152.412511 71.946107 
L 153.473171 73.006767 
L 154.533831 71.946107 
L 153.473171 70.885446 
L 154.533831 69.824786 
L 153.473171 68.764126 
L 152.412511 69.824786 
L 151.351851 68.764126 
L 150.291191 69.824786 
L 151.351851 70.885446 
L 150.291191 71.946107 
z
" clip-path="url(#p3b365ddfde)" style="fill: #117733; fill-opacity: 0.6; stroke: #ffffff; stroke-opacity: 0.6; stroke-width: 0.339411"/>
    <path d="M 191.337619 96.15592 
L 192.398279 95.09526 
L 193.45894 96.15592 
L 194.5196 95.09526 
L 193.45894 94.0346 
L 194.5196 92.973939 
L 193.45894 91.913279 
L 192.398279 92.973939 
L 191.337619 91.913279 
L 190.276959 92.973939 
L 191.337619 94.0346 
L 190.276959 95.09526 
z
" clip-path="url(#p3b365ddfde)" style="fill: #117733; fill-opacity: 0.6; stroke: #ffffff; stroke-opacity: 0.6; stroke-width: 0.339411"/>
    <path d="M 170.073924 88.26901 
L 171.134584 87.208349 
L 172.195244 88.26901 
L 173.255904 87.208349 
L 172.195244 86.147689 
L 173.255904 85.087029 
L 172.195244 84.026369 
L 171.134584 85.087029 
L 170.073924 84.026369 
L 169.013264 85.087029 
L 170.073924 86.147689 
L 169.013264 87.208349 
z
" clip-path="url(#p3b365ddfde)" style="fill: #117733; fill-opacity: 0.6; stroke: #ffffff; stroke-opacity: 0.6; stroke-width: 0.339411"/>
    <path d="M 153.894123 76.983915 
L 154.954783 75.923255 
L 156.015443 76.983915 
L 157.076103 75.923255 
L 156.015443 74.862595 
L 157.076103 73.801934 
L 156.015443 72.741274 
L 154.954783 73.801934 
L 153.894123 72.741274 
L 152.833463 73.801934 
L 153.894123 74.862595 
L 152.833463 75.923255 
z
" clip-path="url(#p3b365ddfde)" style="fill: #117733; fill-opacity: 0.6; stroke: #ffffff; stroke-opacity: 0.6; stroke-width: 0.339411"/>
    <path d="M 177.300682 102.102275 
L 178.361342 101.041614 
L 179.422003 102.102275 
L 180.482663 101.041614 
L 179.422003 99.980954 
L 180.482663 98.920294 
L 179.422003 97.859634 
L 178.361342 98.920294 
L 177.300682 97.859634 
L 176.240022 98.920294 
L 177.300682 99.980954 
L 176.240022 101.041614 
z
" clip-path="url(#p3b365ddfde)" style="fill: #117733; fill-opacity: 0.6; stroke: #ffffff; stroke-opacity: 0.6; stroke-width: 0.339411"/>
    <path d="M 163.99738 53.454697 
L 165.05804 52.394037 
L 166.1187 53.454697 
L 167.17936 52.394037 
L 166.1187 51.333377 
L 167.17936 50.272717 
L 166.1187 49.212057 
L 165.05804 50.272717 
L 163.99738 49.212057 
L 162.936719 50.272717 
L 163.99738 51.333377 
L 162.936719 52.394037 
z
" clip-path="url(#p3b365ddfde)" style="fill: #117733; fill-opacity: 0.6; stroke: #ffffff; stroke-opacity: 0.6; stroke-width: 0.339411"/>
    <path d="M 117.481683 173.205983 
L 118.542343 172.145323 
L 119.603003 173.205983 
L 120.663663 172.145323 
L 119.603003 171.084663 
L 120.663663 170.024003 
L 119.603003 168.963343 
L 118.542343 170.024003 
L 117.481683 168.963343 
L 116.421022 170.024003 
L 117.481683 171.084663 
L 116.421022 172.145323 
z
" clip-path="url(#p3b365ddfde)" style="fill: #117733; fill-opacity: 0.6; stroke: #ffffff; stroke-opacity: 0.6; stroke-width: 0.339411"/>
    <path d="M 160.600353 51.701895 
L 161.661013 50.641235 
L 162.721673 51.701895 
L 163.782333 50.641235 
L 162.721673 49.580574 
L 163.782333 48.519914 
L 162.721673 47.459254 
L 161.661013 48.519914 
L 160.600353 47.459254 
L 159.539693 48.519914 
L 160.600353 49.580574 
L 159.539693 50.641235 
z
" clip-path="url(#p3b365ddfde)" style="fill: #117733; fill-opacity: 0.6; stroke: #ffffff; stroke-opacity: 0.6; stroke-width: 0.339411"/>
    <path d="M 172.815944 82.780078 
L 173.876604 81.719418 
L 174.937264 82.780078 
L 175.997924 81.719418 
L 174.937264 80.658758 
L 175.997924 79.598098 
L 174.937264 78.537438 
L 173.876604 79.598098 
L 172.815944 78.537438 
L 171.755284 79.598098 
L 172.815944 80.658758 
L 171.755284 81.719418 
z
" clip-path="url(#p3b365ddfde)" style="fill: #117733; fill-opacity: 0.6; stroke: #ffffff; stroke-opacity: 0.6; stroke-width: 0.339411"/>
    <path d="M 149.007963 80.22532 
L 150.068623 79.16466 
L 151.129283 80.22532 
L 152.189943 79.16466 
L 151.129283 78.104 
L 152.189943 77.043339 
L 151.129283 75.982679 
L 150.068623 77.043339 
L 149.007963 75.982679 
L 147.947302 77.043339 
L 149.007963 78.104 
L 147.947302 79.16466 
z
" clip-path="url(#p3b365ddfde)" style="fill: #117733; fill-opacity: 0.6; stroke: #ffffff; stroke-opacity: 0.6; stroke-width: 0.339411"/>
    <path d="M 149.987112 74.460083 
L 151.047772 73.399423 
L 152.108432 74.460083 
L 153.169092 73.399423 
L 152.108432 72.338762 
L 153.169092 71.278102 
L 152.108432 70.217442 
L 151.047772 71.278102 
L 149.987112 70.217442 
L 148.926451 71.278102 
L 149.987112 72.338762 
L 148.926451 73.399423 
z
" clip-path="url(#p3b365ddfde)" style="fill: #117733; fill-opacity: 0.6; stroke: #ffffff; stroke-opacity: 0.6; stroke-width: 0.339411"/>
    <path d="M 152.233591 78.027477 
L 153.294252 76.966817 
L 154.354912 78.027477 
L 155.415572 76.966817 
L 154.354912 75.906157 
L 155.415572 74.845496 
L 154.354912 73.784836 
L 153.294252 74.845496 
L 152.233591 73.784836 
L 151.172931 74.845496 
L 152.233591 75.906157 
L 151.172931 76.966817 
z
" clip-path="url(#p3b365ddfde)" style="fill: #117733; fill-opacity: 0.6; stroke: #ffffff; stroke-opacity: 0.6; stroke-width: 0.339411"/>
    <path d="M 147.509268 78.677022 
L 148.569928 77.616361 
L 149.630589 78.677022 
L 150.691249 77.616361 
L 149.630589 76.555701 
L 150.691249 75.495041 
L 149.630589 74.434381 
L 148.569928 75.495041 
L 147.509268 74.434381 
L 146.448608 75.495041 
L 147.509268 76.555701 
L 146.448608 77.616361 
z
" clip-path="url(#p3b365ddfde)" style="fill: #117733; fill-opacity: 0.6; stroke: #ffffff; stroke-opacity: 0.6; stroke-width: 0.339411"/>
    <path d="M 119.815653 177.441406 
L 120.876313 176.380746 
L 121.936973 177.441406 
L 122.997634 176.380746 
L 121.936973 175.320086 
L 122.997634 174.259425 
L 121.936973 173.198765 
L 120.876313 174.259425 
L 119.815653 173.198765 
L 118.754993 174.259425 
L 119.815653 175.320086 
L 118.754993 176.380746 
z
" clip-path="url(#p3b365ddfde)" style="fill: #117733; fill-opacity: 0.6; stroke: #ffffff; stroke-opacity: 0.6; stroke-width: 0.339411"/>
    <path d="M 120.578018 175.335282 
L 121.638678 174.274622 
L 122.699338 175.335282 
L 123.759998 174.274622 
L 122.699338 173.213962 
L 123.759998 172.153302 
L 122.699338 171.092641 
L 121.638678 172.153302 
L 120.578018 171.092641 
L 119.517357 172.153302 
L 120.578018 173.213962 
L 119.517357 174.274622 
z
" clip-path="url(#p3b365ddfde)" style="fill: #117733; fill-opacity: 0.6; stroke: #ffffff; stroke-opacity: 0.6; stroke-width: 0.339411"/>
    <path d="M 146.165498 77.891215 
L 147.226158 76.830555 
L 148.286818 77.891215 
L 149.347479 76.830555 
L 148.286818 75.769894 
L 149.347479 74.709234 
L 148.286818 73.648574 
L 147.226158 74.709234 
L 146.165498 73.648574 
L 145.104838 74.709234 
L 146.165498 75.769894 
L 145.104838 76.830555 
z
" clip-path="url(#p3b365ddfde)" style="fill: #117733; fill-opacity: 0.6; stroke: #ffffff; stroke-opacity: 0.6; stroke-width: 0.339411"/>
    <path d="M 121.945309 175.363702 
L 123.00597 174.303042 
L 124.06663 175.363702 
L 125.12729 174.303042 
L 124.06663 173.242382 
L 125.12729 172.181722 
L 124.06663 171.121061 
L 123.00597 172.181722 
L 121.945309 171.121061 
L 120.884649 172.181722 
L 121.945309 173.242382 
L 120.884649 174.303042 
z
" clip-path="url(#p3b365ddfde)" style="fill: #117733; fill-opacity: 0.6; stroke: #ffffff; stroke-opacity: 0.6; stroke-width: 0.339411"/>
    <path d="M 162.63754 75.79786 
L 163.6982 74.737199 
L 164.75886 75.79786 
L 165.81952 74.737199 
L 164.75886 73.676539 
L 165.81952 72.615879 
L 164.75886 71.555219 
L 163.6982 72.615879 
L 162.63754 71.555219 
L 161.57688 72.615879 
L 162.63754 73.676539 
L 161.57688 74.737199 
z
" clip-path="url(#p3b365ddfde)" style="fill: #117733; fill-opacity: 0.6; stroke: #ffffff; stroke-opacity: 0.6; stroke-width: 0.339411"/>
    <path d="M 167.404221 56.135578 
L 168.464881 55.074918 
L 169.525541 56.135578 
L 170.586202 55.074918 
L 169.525541 54.014258 
L 170.586202 52.953598 
L 169.525541 51.892938 
L 168.464881 52.953598 
L 167.404221 51.892938 
L 166.343561 52.953598 
L 167.404221 54.014258 
L 166.343561 55.074918 
z
" clip-path="url(#p3b365ddfde)" style="fill: #117733; fill-opacity: 0.6; stroke: #ffffff; stroke-opacity: 0.6; stroke-width: 0.339411"/>
    <path d="M 156.810228 55.858131 
L 157.870889 54.797471 
L 158.931549 55.858131 
L 159.992209 54.797471 
L 158.931549 53.736811 
L 159.992209 52.67615 
L 158.931549 51.61549 
L 157.870889 52.67615 
L 156.810228 51.61549 
L 155.749568 52.67615 
L 156.810228 53.736811 
L 155.749568 54.797471 
z
" clip-path="url(#p3b365ddfde)" style="fill: #117733; fill-opacity: 0.6; stroke: #ffffff; stroke-opacity: 0.6; stroke-width: 0.339411"/>
    <path d="M 119.130651 178.338879 
L 120.191312 177.278219 
L 121.251972 178.338879 
L 122.312632 177.278219 
L 121.251972 176.217559 
L 122.312632 175.156899 
L 121.251972 174.096239 
L 120.191312 175.156899 
L 119.130651 174.096239 
L 118.069991 175.156899 
L 119.130651 176.217559 
L 118.069991 177.278219 
z
" clip-path="url(#p3b365ddfde)" style="fill: #117733; fill-opacity: 0.6; stroke: #ffffff; stroke-opacity: 0.6; stroke-width: 0.339411"/>
    <path d="M 160.756601 75.095635 
L 161.817261 74.034975 
L 162.877921 75.095635 
L 163.938581 74.034975 
L 162.877921 72.974315 
L 163.938581 71.913654 
L 162.877921 70.852994 
L 161.817261 71.913654 
L 160.756601 70.852994 
L 159.695941 71.913654 
L 160.756601 72.974315 
L 159.695941 74.034975 
z
" clip-path="url(#p3b365ddfde)" style="fill: #117733; fill-opacity: 0.6; stroke: #ffffff; stroke-opacity: 0.6; stroke-width: 0.339411"/>
    <path d="M 181.295858 105.244646 
L 182.356518 104.183986 
L 183.417178 105.244646 
L 184.477839 104.183986 
L 183.417178 103.123326 
L 184.477839 102.062666 
L 183.417178 101.002005 
L 182.356518 102.062666 
L 181.295858 101.002005 
L 180.235198 102.062666 
L 181.295858 103.123326 
L 180.235198 104.183986 
z
" clip-path="url(#p3b365ddfde)" style="fill: #117733; fill-opacity: 0.6; stroke: #ffffff; stroke-opacity: 0.6; stroke-width: 0.339411"/>
    <path d="M 158.544409 52.884399 
L 159.605069 51.823738 
L 160.665729 52.884399 
L 161.726389 51.823738 
L 160.665729 50.763078 
L 161.726389 49.702418 
L 160.665729 48.641758 
L 159.605069 49.702418 
L 158.544409 48.641758 
L 157.483749 49.702418 
L 158.544409 50.763078 
L 157.483749 51.823738 
z
" clip-path="url(#p3b365ddfde)" style="fill: #117733; fill-opacity: 0.6; stroke: #ffffff; stroke-opacity: 0.6; stroke-width: 0.339411"/>
    <path d="M 158.360104 57.795317 
L 159.420764 56.734657 
L 160.481425 57.795317 
L 161.542085 56.734657 
L 160.481425 55.673997 
L 161.542085 54.613337 
L 160.481425 53.552677 
L 159.420764 54.613337 
L 158.360104 53.552677 
L 157.299444 54.613337 
L 158.360104 55.673997 
L 157.299444 56.734657 
z
" clip-path="url(#p3b365ddfde)" style="fill: #117733; fill-opacity: 0.6; stroke: #ffffff; stroke-opacity: 0.6; stroke-width: 0.339411"/>
    <path d="M 163.128141 65.083389 
L 164.188801 64.022729 
L 165.249461 65.083389 
L 166.310122 64.022729 
L 165.249461 62.962068 
L 166.310122 61.901408 
L 165.249461 60.840748 
L 164.188801 61.901408 
L 163.128141 60.840748 
L 162.067481 61.901408 
L 163.128141 62.962068 
L 162.067481 64.022729 
z
" clip-path="url(#p3b365ddfde)" style="fill: #117733; fill-opacity: 0.6; stroke: #ffffff; stroke-opacity: 0.6; stroke-width: 0.339411"/>
    <path d="M 119.615834 170.087167 
L 120.676494 169.026507 
L 121.737154 170.087167 
L 122.797814 169.026507 
L 121.737154 167.965847 
L 122.797814 166.905187 
L 121.737154 165.844527 
L 120.676494 166.905187 
L 119.615834 165.844527 
L 118.555174 166.905187 
L 119.615834 167.965847 
L 118.555174 169.026507 
z
" clip-path="url(#p3b365ddfde)" style="fill: #117733; fill-opacity: 0.6; stroke: #ffffff; stroke-opacity: 0.6; stroke-width: 0.339411"/>
    <path d="M 115.739967 174.824182 
L 116.800627 173.763522 
L 117.861287 174.824182 
L 118.921947 173.763522 
L 117.861287 172.702861 
L 118.921947 171.642201 
L 117.861287 170.581541 
L 116.800627 171.642201 
L 115.739967 170.581541 
L 114.679307 171.642201 
L 115.739967 172.702861 
L 114.679307 173.763522 
z
" clip-path="url(#p3b365ddfde)" style="fill: #117733; fill-opacity: 0.6; stroke: #ffffff; stroke-opacity: 0.6; stroke-width: 0.339411"/>
    <path d="M 158.188992 53.83255 
L 159.249652 52.77189 
L 160.310312 53.83255 
L 161.370972 52.77189 
L 160.310312 51.71123 
L 161.370972 50.65057 
L 160.310312 49.589909 
L 159.249652 50.65057 
L 158.188992 49.589909 
L 157.128331 50.65057 
L 158.188992 51.71123 
L 157.128331 52.77189 
z
" clip-path="url(#p3b365ddfde)" style="fill: #117733; fill-opacity: 0.6; stroke: #ffffff; stroke-opacity: 0.6; stroke-width: 0.339411"/>
    <path d="M 178.185293 105.34429 
L 179.245953 104.28363 
L 180.306613 105.34429 
L 181.367273 104.28363 
L 180.306613 103.22297 
L 181.367273 102.16231 
L 180.306613 101.101649 
L 179.245953 102.16231 
L 178.185293 101.101649 
L 177.124633 102.16231 
L 178.185293 103.22297 
L 177.124633 104.28363 
z
" clip-path="url(#p3b365ddfde)" style="fill: #117733; fill-opacity: 0.6; stroke: #ffffff; stroke-opacity: 0.6; stroke-width: 0.339411"/>
    <path d="M 146.078816 79.486215 
L 147.139476 78.425555 
L 148.200136 79.486215 
L 149.260797 78.425555 
L 148.200136 77.364895 
L 149.260797 76.304235 
L 148.200136 75.243575 
L 147.139476 76.304235 
L 146.078816 75.243575 
L 145.018156 76.304235 
L 146.078816 77.364895 
L 145.018156 78.425555 
z
" clip-path="url(#p3b365ddfde)" style="fill: #117733; fill-opacity: 0.6; stroke: #ffffff; stroke-opacity: 0.6; stroke-width: 0.339411"/>
    <path d="M 115.954218 174.057158 
L 117.014879 172.996498 
L 118.075539 174.057158 
L 119.136199 172.996498 
L 118.075539 171.935838 
L 119.136199 170.875178 
L 118.075539 169.814517 
L 117.014879 170.875178 
L 115.954218 169.814517 
L 114.893558 170.875178 
L 115.954218 171.935838 
L 114.893558 172.996498 
z
" clip-path="url(#p3b365ddfde)" style="fill: #117733; fill-opacity: 0.6; stroke: #ffffff; stroke-opacity: 0.6; stroke-width: 0.339411"/>
    <path d="M 165.616806 74.567789 
L 166.677466 73.507129 
L 167.738126 74.567789 
L 168.798786 73.507129 
L 167.738126 72.446469 
L 168.798786 71.385809 
L 167.738126 70.325149 
L 166.677466 71.385809 
L 165.616806 70.325149 
L 164.556146 71.385809 
L 165.616806 72.446469 
L 164.556146 73.507129 
z
" clip-path="url(#p3b365ddfde)" style="fill: #117733; fill-opacity: 0.6; stroke: #ffffff; stroke-opacity: 0.6; stroke-width: 0.339411"/>
    <path d="M 181.088706 101.143968 
L 182.149366 100.083308 
L 183.210026 101.143968 
L 184.270686 100.083308 
L 183.210026 99.022647 
L 184.270686 97.961987 
L 183.210026 96.901327 
L 182.149366 97.961987 
L 181.088706 96.901327 
L 180.028046 97.961987 
L 181.088706 99.022647 
L 180.028046 100.083308 
z
" clip-path="url(#p3b365ddfde)" style="fill: #117733; fill-opacity: 0.6; stroke: #ffffff; stroke-opacity: 0.6; stroke-width: 0.339411"/>
    <path d="M 120.23561 171.200029 
L 121.29627 170.139369 
L 122.35693 171.200029 
L 123.41759 170.139369 
L 122.35693 169.078708 
L 123.41759 168.018048 
L 122.35693 166.957388 
L 121.29627 168.018048 
L 120.23561 166.957388 
L 119.17495 168.018048 
L 120.23561 169.078708 
L 119.17495 170.139369 
z
" clip-path="url(#p3b365ddfde)" style="fill: #117733; fill-opacity: 0.6; stroke: #ffffff; stroke-opacity: 0.6; stroke-width: 0.339411"/>
    <path d="M 162.506454 60.026544 
L 163.567115 58.965884 
L 164.627775 60.026544 
L 165.688435 58.965884 
L 164.627775 57.905224 
L 165.688435 56.844563 
L 164.627775 55.783903 
L 163.567115 56.844563 
L 162.506454 55.783903 
L 161.445794 56.844563 
L 162.506454 57.905224 
L 161.445794 58.965884 
z
" clip-path="url(#p3b365ddfde)" style="fill: #117733; fill-opacity: 0.6; stroke: #ffffff; stroke-opacity: 0.6; stroke-width: 0.339411"/>
    <path d="M 163.775307 63.239631 
L 164.835968 62.178971 
L 165.896628 63.239631 
L 166.957288 62.178971 
L 165.896628 61.118311 
L 166.957288 60.057651 
L 165.896628 58.99699 
L 164.835968 60.057651 
L 163.775307 58.99699 
L 162.714647 60.057651 
L 163.775307 61.118311 
L 162.714647 62.178971 
z
" clip-path="url(#p3b365ddfde)" style="fill: #117733; fill-opacity: 0.6; stroke: #ffffff; stroke-opacity: 0.6; stroke-width: 0.339411"/>
    <path d="M 165.239611 85.929799 
L 166.300271 84.869139 
L 167.360931 85.929799 
L 168.421592 84.869139 
L 167.360931 83.808479 
L 168.421592 82.747818 
L 167.360931 81.687158 
L 166.300271 82.747818 
L 165.239611 81.687158 
L 164.178951 82.747818 
L 165.239611 83.808479 
L 164.178951 84.869139 
z
" clip-path="url(#p3b365ddfde)" style="fill: #117733; fill-opacity: 0.6; stroke: #ffffff; stroke-opacity: 0.6; stroke-width: 0.339411"/>
    <path d="M 167.596342 75.566409 
L 168.657002 74.505749 
L 169.717663 75.566409 
L 170.778323 74.505749 
L 169.717663 73.445088 
L 170.778323 72.384428 
L 169.717663 71.323768 
L 168.657002 72.384428 
L 167.596342 71.323768 
L 166.535682 72.384428 
L 167.596342 73.445088 
L 166.535682 74.505749 
z
" clip-path="url(#p3b365ddfde)" style="fill: #117733; fill-opacity: 0.6; stroke: #ffffff; stroke-opacity: 0.6; stroke-width: 0.339411"/>
    <path d="M 159.090433 55.812848 
L 160.151093 54.752187 
L 161.211753 55.812848 
L 162.272413 54.752187 
L 161.211753 53.691527 
L 162.272413 52.630867 
L 161.211753 51.570207 
L 160.151093 52.630867 
L 159.090433 51.570207 
L 158.029773 52.630867 
L 159.090433 53.691527 
L 158.029773 54.752187 
z
" clip-path="url(#p3b365ddfde)" style="fill: #117733; fill-opacity: 0.6; stroke: #ffffff; stroke-opacity: 0.6; stroke-width: 0.339411"/>
    <path d="M 193.917508 34.025572 
L 195.331722 34.025572 
L 195.331722 32.611358 
L 196.745935 32.611358 
L 196.745935 31.197144 
L 195.331722 31.197144 
L 195.331722 29.782931 
L 193.917508 29.782931 
L 193.917508 31.197144 
L 192.503294 31.197144 
L 192.503294 32.611358 
L 193.917508 32.611358 
z
" clip-path="url(#p3b365ddfde)" style="fill: #44aa99; fill-opacity: 0.6; stroke: #ffffff; stroke-opacity: 0.6; stroke-width: 0.339411"/>
    <path d="M 164.599325 94.664202 
L 166.013539 94.664202 
L 166.013539 93.249988 
L 167.427753 93.249988 
L 167.427753 91.835775 
L 166.013539 91.835775 
L 166.013539 90.421561 
L 164.599325 90.421561 
L 164.599325 91.835775 
L 163.185112 91.835775 
L 163.185112 93.249988 
L 164.599325 93.249988 
z
" clip-path="url(#p3b365ddfde)" style="fill: #44aa99; fill-opacity: 0.6; stroke: #ffffff; stroke-opacity: 0.6; stroke-width: 0.339411"/>
    <path d="M 121.848812 112.816381 
L 123.263026 112.816381 
L 123.263026 111.402167 
L 124.677239 111.402167 
L 124.677239 109.987954 
L 123.263026 109.987954 
L 123.263026 108.57374 
L 121.848812 108.57374 
L 121.848812 109.987954 
L 120.434599 109.987954 
L 120.434599 111.402167 
L 121.848812 111.402167 
z
" clip-path="url(#p3b365ddfde)" style="fill: #44aa99; fill-opacity: 0.6; stroke: #ffffff; stroke-opacity: 0.6; stroke-width: 0.339411"/>
    <path d="M 127.855517 115.717023 
L 129.26973 115.717023 
L 129.26973 114.302809 
L 130.683944 114.302809 
L 130.683944 112.888596 
L 129.26973 112.888596 
L 129.26973 111.474382 
L 127.855517 111.474382 
L 127.855517 112.888596 
L 126.441303 112.888596 
L 126.441303 114.302809 
L 127.855517 114.302809 
z
" clip-path="url(#p3b365ddfde)" style="fill: #44aa99; fill-opacity: 0.6; stroke: #ffffff; stroke-opacity: 0.6; stroke-width: 0.339411"/>
    <path d="M 129.944956 107.828071 
L 131.359169 107.828071 
L 131.359169 106.413858 
L 132.773383 106.413858 
L 132.773383 104.999644 
L 131.359169 104.999644 
L 131.359169 103.585431 
L 129.944956 103.585431 
L 129.944956 104.999644 
L 128.530742 104.999644 
L 128.530742 106.413858 
L 129.944956 106.413858 
z
" clip-path="url(#p3b365ddfde)" style="fill: #44aa99; fill-opacity: 0.6; stroke: #ffffff; stroke-opacity: 0.6; stroke-width: 0.339411"/>
    <path d="M 194.896586 30.018108 
L 196.310799 30.018108 
L 196.310799 28.603894 
L 197.725013 28.603894 
L 197.725013 27.189681 
L 196.310799 27.189681 
L 196.310799 25.775467 
L 194.896586 25.775467 
L 194.896586 27.189681 
L 193.482372 27.189681 
L 193.482372 28.603894 
L 194.896586 28.603894 
z
" clip-path="url(#p3b365ddfde)" style="fill: #44aa99; fill-opacity: 0.6; stroke: #ffffff; stroke-opacity: 0.6; stroke-width: 0.339411"/>
    <path d="M 130.912475 111.320556 
L 132.326688 111.320556 
L 132.326688 109.906343 
L 133.740902 109.906343 
L 133.740902 108.492129 
L 132.326688 108.492129 
L 132.326688 107.077915 
L 130.912475 107.077915 
L 130.912475 108.492129 
L 129.498261 108.492129 
L 129.498261 109.906343 
L 130.912475 109.906343 
z
" clip-path="url(#p3b365ddfde)" style="fill: #44aa99; fill-opacity: 0.6; stroke: #ffffff; stroke-opacity: 0.6; stroke-width: 0.339411"/>
    <path d="M 124.577668 118.097648 
L 125.991882 118.097648 
L 125.991882 116.683435 
L 127.406095 116.683435 
L 127.406095 115.269221 
L 125.991882 115.269221 
L 125.991882 113.855008 
L 124.577668 113.855008 
L 124.577668 115.269221 
L 123.163454 115.269221 
L 123.163454 116.683435 
L 124.577668 116.683435 
z
" clip-path="url(#p3b365ddfde)" style="fill: #44aa99; fill-opacity: 0.6; stroke: #ffffff; stroke-opacity: 0.6; stroke-width: 0.339411"/>
    <path d="M 188.374692 32.873241 
L 189.788905 32.873241 
L 189.788905 31.459027 
L 191.203119 31.459027 
L 191.203119 30.044814 
L 189.788905 30.044814 
L 189.788905 28.6306 
L 188.374692 28.6306 
L 188.374692 30.044814 
L 186.960478 30.044814 
L 186.960478 31.459027 
L 188.374692 31.459027 
z
" clip-path="url(#p3b365ddfde)" style="fill: #44aa99; fill-opacity: 0.6; stroke: #ffffff; stroke-opacity: 0.6; stroke-width: 0.339411"/>
    <path d="M 196.562762 35.346906 
L 197.976975 35.346906 
L 197.976975 33.932693 
L 199.391189 33.932693 
L 199.391189 32.518479 
L 197.976975 32.518479 
L 197.976975 31.104266 
L 196.562762 31.104266 
L 196.562762 32.518479 
L 195.148548 32.518479 
L 195.148548 33.932693 
L 196.562762 33.932693 
z
" clip-path="url(#p3b365ddfde)" style="fill: #44aa99; fill-opacity: 0.6; stroke: #ffffff; stroke-opacity: 0.6; stroke-width: 0.339411"/>
    <path d="M 121.115237 110.20264 
L 122.529451 110.20264 
L 122.529451 108.788426 
L 123.943664 108.788426 
L 123.943664 107.374213 
L 122.529451 107.374213 
L 122.529451 105.959999 
L 121.115237 105.959999 
L 121.115237 107.374213 
L 119.701024 107.374213 
L 119.701024 108.788426 
L 121.115237 108.788426 
z
" clip-path="url(#p3b365ddfde)" style="fill: #44aa99; fill-opacity: 0.6; stroke: #ffffff; stroke-opacity: 0.6; stroke-width: 0.339411"/>
    <path d="M 190.406448 33.943583 
L 191.820662 33.943583 
L 191.820662 32.529369 
L 193.234875 32.529369 
L 193.234875 31.115156 
L 191.820662 31.115156 
L 191.820662 29.700942 
L 190.406448 29.700942 
L 190.406448 31.115156 
L 188.992235 31.115156 
L 188.992235 32.529369 
L 190.406448 32.529369 
z
" clip-path="url(#p3b365ddfde)" style="fill: #44aa99; fill-opacity: 0.6; stroke: #ffffff; stroke-opacity: 0.6; stroke-width: 0.339411"/>
    <path d="M 163.275161 96.158655 
L 164.689374 96.158655 
L 164.689374 94.744441 
L 166.103588 94.744441 
L 166.103588 93.330228 
L 164.689374 93.330228 
L 164.689374 91.916014 
L 163.275161 91.916014 
L 163.275161 93.330228 
L 161.860947 93.330228 
L 161.860947 94.744441 
L 163.275161 94.744441 
z
" clip-path="url(#p3b365ddfde)" style="fill: #44aa99; fill-opacity: 0.6; stroke: #ffffff; stroke-opacity: 0.6; stroke-width: 0.339411"/>
    <path d="M 193.134135 29.748643 
L 194.548348 29.748643 
L 194.548348 28.33443 
L 195.962562 28.33443 
L 195.962562 26.920216 
L 194.548348 26.920216 
L 194.548348 25.506003 
L 193.134135 25.506003 
L 193.134135 26.920216 
L 191.719921 26.920216 
L 191.719921 28.33443 
L 193.134135 28.33443 
z
" clip-path="url(#p3b365ddfde)" style="fill: #44aa99; fill-opacity: 0.6; stroke: #ffffff; stroke-opacity: 0.6; stroke-width: 0.339411"/>
    <path d="M 194.120229 35.836461 
L 195.534442 35.836461 
L 195.534442 34.422247 
L 196.948656 34.422247 
L 196.948656 33.008034 
L 195.534442 33.008034 
L 195.534442 31.59382 
L 194.120229 31.59382 
L 194.120229 33.008034 
L 192.706015 33.008034 
L 192.706015 34.422247 
L 194.120229 34.422247 
z
" clip-path="url(#p3b365ddfde)" style="fill: #44aa99; fill-opacity: 0.6; stroke: #ffffff; stroke-opacity: 0.6; stroke-width: 0.339411"/>
    <path d="M 196.639566 32.218694 
L 198.053779 32.218694 
L 198.053779 30.80448 
L 199.467993 30.80448 
L 199.467993 29.390267 
L 198.053779 29.390267 
L 198.053779 27.976053 
L 196.639566 27.976053 
L 196.639566 29.390267 
L 195.225352 29.390267 
L 195.225352 30.80448 
L 196.639566 30.80448 
z
" clip-path="url(#p3b365ddfde)" style="fill: #44aa99; fill-opacity: 0.6; stroke: #ffffff; stroke-opacity: 0.6; stroke-width: 0.339411"/>
    <path d="M 127.374433 111.45857 
L 128.788647 111.45857 
L 128.788647 110.044357 
L 130.20286 110.044357 
L 130.20286 108.630143 
L 128.788647 108.630143 
L 128.788647 107.21593 
L 127.374433 107.21593 
L 127.374433 108.630143 
L 125.960219 108.630143 
L 125.960219 110.044357 
L 127.374433 110.044357 
z
" clip-path="url(#p3b365ddfde)" style="fill: #44aa99; fill-opacity: 0.6; stroke: #ffffff; stroke-opacity: 0.6; stroke-width: 0.339411"/>
    <path d="M 192.606551 101.313772 
L 194.020764 101.313772 
L 194.020764 99.899559 
L 195.434978 99.899559 
L 195.434978 98.485345 
L 194.020764 98.485345 
L 194.020764 97.071132 
L 192.606551 97.071132 
L 192.606551 98.485345 
L 191.192337 98.485345 
L 191.192337 99.899559 
L 192.606551 99.899559 
z
" clip-path="url(#p3b365ddfde)" style="fill: #44aa99; fill-opacity: 0.6; stroke: #ffffff; stroke-opacity: 0.6; stroke-width: 0.339411"/>
    <path d="M 188.877391 37.590001 
L 190.291604 37.590001 
L 190.291604 36.175787 
L 191.705818 36.175787 
L 191.705818 34.761574 
L 190.291604 34.761574 
L 190.291604 33.34736 
L 188.877391 33.34736 
L 188.877391 34.761574 
L 187.463177 34.761574 
L 187.463177 36.175787 
L 188.877391 36.175787 
z
" clip-path="url(#p3b365ddfde)" style="fill: #44aa99; fill-opacity: 0.6; stroke: #ffffff; stroke-opacity: 0.6; stroke-width: 0.339411"/>
    <path d="M 197.674074 99.580377 
L 199.088288 99.580377 
L 199.088288 98.166163 
L 200.502501 98.166163 
L 200.502501 96.75195 
L 199.088288 96.75195 
L 199.088288 95.337736 
L 197.674074 95.337736 
L 197.674074 96.75195 
L 196.259861 96.75195 
L 196.259861 98.166163 
L 197.674074 98.166163 
z
" clip-path="url(#p3b365ddfde)" style="fill: #44aa99; fill-opacity: 0.6; stroke: #ffffff; stroke-opacity: 0.6; stroke-width: 0.339411"/>
    <path d="M 142.61908 105.09478 
L 144.033294 105.09478 
L 144.033294 103.680566 
L 145.447507 103.680566 
L 145.447507 102.266353 
L 144.033294 102.266353 
L 144.033294 100.852139 
L 142.61908 100.852139 
L 142.61908 102.266353 
L 141.204866 102.266353 
L 141.204866 103.680566 
L 142.61908 103.680566 
z
" clip-path="url(#p3b365ddfde)" style="fill: #44aa99; fill-opacity: 0.6; stroke: #ffffff; stroke-opacity: 0.6; stroke-width: 0.339411"/>
    <path d="M 125.441603 113.332462 
L 126.855816 113.332462 
L 126.855816 111.918248 
L 128.27003 111.918248 
L 128.27003 110.504034 
L 126.855816 110.504034 
L 126.855816 109.089821 
L 125.441603 109.089821 
L 125.441603 110.504034 
L 124.027389 110.504034 
L 124.027389 111.918248 
L 125.441603 111.918248 
z
" clip-path="url(#p3b365ddfde)" style="fill: #44aa99; fill-opacity: 0.6; stroke: #ffffff; stroke-opacity: 0.6; stroke-width: 0.339411"/>
    <path d="M 122.901543 109.92126 
L 124.315756 109.92126 
L 124.315756 108.507046 
L 125.72997 108.507046 
L 125.72997 107.092833 
L 124.315756 107.092833 
L 124.315756 105.678619 
L 122.901543 105.678619 
L 122.901543 107.092833 
L 121.487329 107.092833 
L 121.487329 108.507046 
L 122.901543 108.507046 
z
" clip-path="url(#p3b365ddfde)" style="fill: #44aa99; fill-opacity: 0.6; stroke: #ffffff; stroke-opacity: 0.6; stroke-width: 0.339411"/>
    <path d="M 159.886759 98.022185 
L 161.300973 98.022185 
L 161.300973 96.607971 
L 162.715186 96.607971 
L 162.715186 95.193757 
L 161.300973 95.193757 
L 161.300973 93.779544 
L 159.886759 93.779544 
L 159.886759 95.193757 
L 158.472546 95.193757 
L 158.472546 96.607971 
L 159.886759 96.607971 
z
" clip-path="url(#p3b365ddfde)" style="fill: #44aa99; fill-opacity: 0.6; stroke: #ffffff; stroke-opacity: 0.6; stroke-width: 0.339411"/>
    <path d="M 164.693658 98.804789 
L 166.107871 98.804789 
L 166.107871 97.390575 
L 167.522085 97.390575 
L 167.522085 95.976362 
L 166.107871 95.976362 
L 166.107871 94.562148 
L 164.693658 94.562148 
L 164.693658 95.976362 
L 163.279444 95.976362 
L 163.279444 97.390575 
L 164.693658 97.390575 
z
" clip-path="url(#p3b365ddfde)" style="fill: #44aa99; fill-opacity: 0.6; stroke: #ffffff; stroke-opacity: 0.6; stroke-width: 0.339411"/>
    <path d="M 194.327333 93.471773 
L 195.741547 93.471773 
L 195.741547 92.057559 
L 197.15576 92.057559 
L 197.15576 90.643346 
L 195.741547 90.643346 
L 195.741547 89.229132 
L 194.327333 89.229132 
L 194.327333 90.643346 
L 192.91312 90.643346 
L 192.91312 92.057559 
L 194.327333 92.057559 
z
" clip-path="url(#p3b365ddfde)" style="fill: #44aa99; fill-opacity: 0.6; stroke: #ffffff; stroke-opacity: 0.6; stroke-width: 0.339411"/>
    <path d="M 195.046618 37.639058 
L 196.460832 37.639058 
L 196.460832 36.224844 
L 197.875045 36.224844 
L 197.875045 34.810631 
L 196.460832 34.810631 
L 196.460832 33.396417 
L 195.046618 33.396417 
L 195.046618 34.810631 
L 193.632405 34.810631 
L 193.632405 36.224844 
L 195.046618 36.224844 
z
" clip-path="url(#p3b365ddfde)" style="fill: #44aa99; fill-opacity: 0.6; stroke: #ffffff; stroke-opacity: 0.6; stroke-width: 0.339411"/>
    <path d="M 191.268449 36.798193 
L 192.682662 36.798193 
L 192.682662 35.383979 
L 194.096876 35.383979 
L 194.096876 33.969766 
L 192.682662 33.969766 
L 192.682662 32.555552 
L 191.268449 32.555552 
L 191.268449 33.969766 
L 189.854235 33.969766 
L 189.854235 35.383979 
L 191.268449 35.383979 
z
" clip-path="url(#p3b365ddfde)" style="fill: #44aa99; fill-opacity: 0.6; stroke: #ffffff; stroke-opacity: 0.6; stroke-width: 0.339411"/>
    <path d="M 126.282666 107.562277 
L 127.69688 107.562277 
L 127.69688 106.148064 
L 129.111093 106.148064 
L 129.111093 104.73385 
L 127.69688 104.73385 
L 127.69688 103.319637 
L 126.282666 103.319637 
L 126.282666 104.73385 
L 124.868453 104.73385 
L 124.868453 106.148064 
L 126.282666 106.148064 
z
" clip-path="url(#p3b365ddfde)" style="fill: #44aa99; fill-opacity: 0.6; stroke: #ffffff; stroke-opacity: 0.6; stroke-width: 0.339411"/>
    <path d="M 121.228568 116.02703 
L 122.642782 116.02703 
L 122.642782 114.612816 
L 124.056996 114.612816 
L 124.056996 113.198603 
L 122.642782 113.198603 
L 122.642782 111.784389 
L 121.228568 111.784389 
L 121.228568 113.198603 
L 119.814355 113.198603 
L 119.814355 114.612816 
L 121.228568 114.612816 
z
" clip-path="url(#p3b365ddfde)" style="fill: #44aa99; fill-opacity: 0.6; stroke: #ffffff; stroke-opacity: 0.6; stroke-width: 0.339411"/>
    <path d="M 121.341396 109.927586 
L 122.75561 109.927586 
L 122.75561 108.513373 
L 124.169823 108.513373 
L 124.169823 107.099159 
L 122.75561 107.099159 
L 122.75561 105.684946 
L 121.341396 105.684946 
L 121.341396 107.099159 
L 119.927183 107.099159 
L 119.927183 108.513373 
L 121.341396 108.513373 
z
" clip-path="url(#p3b365ddfde)" style="fill: #44aa99; fill-opacity: 0.6; stroke: #ffffff; stroke-opacity: 0.6; stroke-width: 0.339411"/>
    <path d="M 198.359777 99.273842 
L 199.773991 99.273842 
L 199.773991 97.859629 
L 201.188205 97.859629 
L 201.188205 96.445415 
L 199.773991 96.445415 
L 199.773991 95.031202 
L 198.359777 95.031202 
L 198.359777 96.445415 
L 196.945564 96.445415 
L 196.945564 97.859629 
L 198.359777 97.859629 
z
" clip-path="url(#p3b365ddfde)" style="fill: #44aa99; fill-opacity: 0.6; stroke: #ffffff; stroke-opacity: 0.6; stroke-width: 0.339411"/>
    <path d="M 202.32551 101.823773 
L 203.739723 101.823773 
L 203.739723 100.409559 
L 205.153937 100.409559 
L 205.153937 98.995345 
L 203.739723 98.995345 
L 203.739723 97.581132 
L 202.32551 97.581132 
L 202.32551 98.995345 
L 200.911296 98.995345 
L 200.911296 100.409559 
L 202.32551 100.409559 
z
" clip-path="url(#p3b365ddfde)" style="fill: #44aa99; fill-opacity: 0.6; stroke: #ffffff; stroke-opacity: 0.6; stroke-width: 0.339411"/>
    <path d="M 126.858241 109.62251 
L 128.272455 109.62251 
L 128.272455 108.208297 
L 129.686668 108.208297 
L 129.686668 106.794083 
L 128.272455 106.794083 
L 128.272455 105.37987 
L 126.858241 105.37987 
L 126.858241 106.794083 
L 125.444027 106.794083 
L 125.444027 108.208297 
L 126.858241 108.208297 
z
" clip-path="url(#p3b365ddfde)" style="fill: #44aa99; fill-opacity: 0.6; stroke: #ffffff; stroke-opacity: 0.6; stroke-width: 0.339411"/>
    <path d="M 131.136513 112.645775 
L 132.550727 112.645775 
L 132.550727 111.231562 
L 133.96494 111.231562 
L 133.96494 109.817348 
L 132.550727 109.817348 
L 132.550727 108.403135 
L 131.136513 108.403135 
L 131.136513 109.817348 
L 129.722299 109.817348 
L 129.722299 111.231562 
L 131.136513 111.231562 
z
" clip-path="url(#p3b365ddfde)" style="fill: #44aa99; fill-opacity: 0.6; stroke: #ffffff; stroke-opacity: 0.6; stroke-width: 0.339411"/>
    <path d="M 198.696009 103.0752 
L 200.110223 103.0752 
L 200.110223 101.660987 
L 201.524436 101.660987 
L 201.524436 100.246773 
L 200.110223 100.246773 
L 200.110223 98.83256 
L 198.696009 98.83256 
L 198.696009 100.246773 
L 197.281796 100.246773 
L 197.281796 101.660987 
L 198.696009 101.660987 
z
" clip-path="url(#p3b365ddfde)" style="fill: #44aa99; fill-opacity: 0.6; stroke: #ffffff; stroke-opacity: 0.6; stroke-width: 0.339411"/>
    <path d="M 124.575472 117.354513 
L 125.989686 117.354513 
L 125.989686 115.940299 
L 127.403899 115.940299 
L 127.403899 114.526085 
L 125.989686 114.526085 
L 125.989686 113.111872 
L 124.575472 113.111872 
L 124.575472 114.526085 
L 123.161258 114.526085 
L 123.161258 115.940299 
L 124.575472 115.940299 
z
" clip-path="url(#p3b365ddfde)" style="fill: #44aa99; fill-opacity: 0.6; stroke: #ffffff; stroke-opacity: 0.6; stroke-width: 0.339411"/>
    <path d="M 162.160407 55.63376 
L 163.574621 55.63376 
L 163.574621 54.219546 
L 164.988834 54.219546 
L 164.988834 52.805332 
L 163.574621 52.805332 
L 163.574621 51.391119 
L 162.160407 51.391119 
L 162.160407 52.805332 
L 160.746194 52.805332 
L 160.746194 54.219546 
L 162.160407 54.219546 
z
" clip-path="url(#p3b365ddfde)" style="fill: #44aa99; fill-opacity: 0.6; stroke: #ffffff; stroke-opacity: 0.6; stroke-width: 0.339411"/>
    <path d="M 196.778492 98.772713 
L 198.192705 98.772713 
L 198.192705 97.358499 
L 199.606919 97.358499 
L 199.606919 95.944286 
L 198.192705 95.944286 
L 198.192705 94.530072 
L 196.778492 94.530072 
L 196.778492 95.944286 
L 195.364278 95.944286 
L 195.364278 97.358499 
L 196.778492 97.358499 
z
" clip-path="url(#p3b365ddfde)" style="fill: #44aa99; fill-opacity: 0.6; stroke: #ffffff; stroke-opacity: 0.6; stroke-width: 0.339411"/>
    <path d="M 139.748535 107.80753 
L 141.162749 107.80753 
L 141.162749 106.393317 
L 142.576963 106.393317 
L 142.576963 104.979103 
L 141.162749 104.979103 
L 141.162749 103.56489 
L 139.748535 103.56489 
L 139.748535 104.979103 
L 138.334322 104.979103 
L 138.334322 106.393317 
L 139.748535 106.393317 
z
" clip-path="url(#p3b365ddfde)" style="fill: #44aa99; fill-opacity: 0.6; stroke: #ffffff; stroke-opacity: 0.6; stroke-width: 0.339411"/>
    <path d="M 190.211434 31.129722 
L 191.625647 31.129722 
L 191.625647 29.715508 
L 193.039861 29.715508 
L 193.039861 28.301294 
L 191.625647 28.301294 
L 191.625647 26.887081 
L 190.211434 26.887081 
L 190.211434 28.301294 
L 188.79722 28.301294 
L 188.79722 29.715508 
L 190.211434 29.715508 
z
" clip-path="url(#p3b365ddfde)" style="fill: #44aa99; fill-opacity: 0.6; stroke: #ffffff; stroke-opacity: 0.6; stroke-width: 0.339411"/>
    <path d="M 116.887077 115.387403 
L 118.30129 115.387403 
L 118.30129 113.973189 
L 119.715504 113.973189 
L 119.715504 112.558976 
L 118.30129 112.558976 
L 118.30129 111.144762 
L 116.887077 111.144762 
L 116.887077 112.558976 
L 115.472863 112.558976 
L 115.472863 113.973189 
L 116.887077 113.973189 
z
" clip-path="url(#p3b365ddfde)" style="fill: #44aa99; fill-opacity: 0.6; stroke: #ffffff; stroke-opacity: 0.6; stroke-width: 0.339411"/>
    <path d="M 195.027164 95.186673 
L 196.441377 95.186673 
L 196.441377 93.772459 
L 197.855591 93.772459 
L 197.855591 92.358246 
L 196.441377 92.358246 
L 196.441377 90.944032 
L 195.027164 90.944032 
L 195.027164 92.358246 
L 193.61295 92.358246 
L 193.61295 93.772459 
L 195.027164 93.772459 
z
" clip-path="url(#p3b365ddfde)" style="fill: #44aa99; fill-opacity: 0.6; stroke: #ffffff; stroke-opacity: 0.6; stroke-width: 0.339411"/>
    <path d="M 185.670313 101.193691 
L 187.084526 101.193691 
L 187.084526 99.779477 
L 188.49874 99.779477 
L 188.49874 98.365263 
L 187.084526 98.365263 
L 187.084526 96.95105 
L 185.670313 96.95105 
L 185.670313 98.365263 
L 184.256099 98.365263 
L 184.256099 99.779477 
L 185.670313 99.779477 
z
" clip-path="url(#p3b365ddfde)" style="fill: #44aa99; fill-opacity: 0.6; stroke: #ffffff; stroke-opacity: 0.6; stroke-width: 0.339411"/>
    <path d="M 188.123398 87.716065 
L 189.537611 87.716065 
L 189.537611 86.301851 
L 190.951825 86.301851 
L 190.951825 84.887637 
L 189.537611 84.887637 
L 189.537611 83.473424 
L 188.123398 83.473424 
L 188.123398 84.887637 
L 186.709184 84.887637 
L 186.709184 86.301851 
L 188.123398 86.301851 
z
" clip-path="url(#p3b365ddfde)" style="fill: #44aa99; fill-opacity: 0.6; stroke: #ffffff; stroke-opacity: 0.6; stroke-width: 0.339411"/>
    <path d="M 119.098195 113.570524 
L 120.512408 113.570524 
L 120.512408 112.156311 
L 121.926622 112.156311 
L 121.926622 110.742097 
L 120.512408 110.742097 
L 120.512408 109.327883 
L 119.098195 109.327883 
L 119.098195 110.742097 
L 117.683981 110.742097 
L 117.683981 112.156311 
L 119.098195 112.156311 
z
" clip-path="url(#p3b365ddfde)" style="fill: #44aa99; fill-opacity: 0.6; stroke: #ffffff; stroke-opacity: 0.6; stroke-width: 0.339411"/>
    <path d="M 191.379881 31.879687 
L 192.794095 31.879687 
L 192.794095 30.465474 
L 194.208309 30.465474 
L 194.208309 29.05126 
L 192.794095 29.05126 
L 192.794095 27.637046 
L 191.379881 27.637046 
L 191.379881 29.05126 
L 189.965668 29.05126 
L 189.965668 30.465474 
L 191.379881 30.465474 
z
" clip-path="url(#p3b365ddfde)" style="fill: #44aa99; fill-opacity: 0.6; stroke: #ffffff; stroke-opacity: 0.6; stroke-width: 0.339411"/>
    <path d="M 193.992203 39.06423 
L 195.406417 39.06423 
L 195.406417 37.650017 
L 196.82063 37.650017 
L 196.82063 36.235803 
L 195.406417 36.235803 
L 195.406417 34.821589 
L 193.992203 34.821589 
L 193.992203 36.235803 
L 192.57799 36.235803 
L 192.57799 37.650017 
L 193.992203 37.650017 
z
" clip-path="url(#p3b365ddfde)" style="fill: #44aa99; fill-opacity: 0.6; stroke: #ffffff; stroke-opacity: 0.6; stroke-width: 0.339411"/>
    <path d="M 195.492087 32.807631 
L 196.9063 32.807631 
L 196.9063 31.393417 
L 198.320514 31.393417 
L 198.320514 29.979204 
L 196.9063 29.979204 
L 196.9063 28.56499 
L 195.492087 28.56499 
L 195.492087 29.979204 
L 194.077873 29.979204 
L 194.077873 31.393417 
L 195.492087 31.393417 
z
" clip-path="url(#p3b365ddfde)" style="fill: #44aa99; fill-opacity: 0.6; stroke: #ffffff; stroke-opacity: 0.6; stroke-width: 0.339411"/>
    <path d="M 129.126098 104.189105 
L 130.540312 104.189105 
L 130.540312 102.774892 
L 131.954525 102.774892 
L 131.954525 101.360678 
L 130.540312 101.360678 
L 130.540312 99.946465 
L 129.126098 99.946465 
L 129.126098 101.360678 
L 127.711884 101.360678 
L 127.711884 102.774892 
L 129.126098 102.774892 
z
" clip-path="url(#p3b365ddfde)" style="fill: #44aa99; fill-opacity: 0.6; stroke: #ffffff; stroke-opacity: 0.6; stroke-width: 0.339411"/>
    <path d="M 192.156873 37.832479 
L 193.571086 37.832479 
L 193.571086 36.418266 
L 194.9853 36.418266 
L 194.9853 35.004052 
L 193.571086 35.004052 
L 193.571086 33.589838 
L 192.156873 33.589838 
L 192.156873 35.004052 
L 190.742659 35.004052 
L 190.742659 36.418266 
L 192.156873 36.418266 
z
" clip-path="url(#p3b365ddfde)" style="fill: #44aa99; fill-opacity: 0.6; stroke: #ffffff; stroke-opacity: 0.6; stroke-width: 0.339411"/>
    <path d="M 174.851117 88.565936 
L 176.26533 88.565936 
L 176.26533 87.151722 
L 177.679544 87.151722 
L 177.679544 85.737509 
L 176.26533 85.737509 
L 176.26533 84.323295 
L 174.851117 84.323295 
L 174.851117 85.737509 
L 173.436903 85.737509 
L 173.436903 87.151722 
L 174.851117 87.151722 
z
" clip-path="url(#p3b365ddfde)" style="fill: #44aa99; fill-opacity: 0.6; stroke: #ffffff; stroke-opacity: 0.6; stroke-width: 0.339411"/>
    <path d="M 193.990293 31.165492 
L 195.404506 31.165492 
L 195.404506 29.751278 
L 196.81872 29.751278 
L 196.81872 28.337064 
L 195.404506 28.337064 
L 195.404506 26.922851 
L 193.990293 26.922851 
L 193.990293 28.337064 
L 192.576079 28.337064 
L 192.576079 29.751278 
L 193.990293 29.751278 
z
" clip-path="url(#p3b365ddfde)" style="fill: #44aa99; fill-opacity: 0.6; stroke: #ffffff; stroke-opacity: 0.6; stroke-width: 0.339411"/>
    <path d="M 120.434089 115.800213 
L 121.848302 115.800213 
L 121.848302 114.385999 
L 123.262516 114.385999 
L 123.262516 112.971786 
L 121.848302 112.971786 
L 121.848302 111.557572 
L 120.434089 111.557572 
L 120.434089 112.971786 
L 119.019875 112.971786 
L 119.019875 114.385999 
L 120.434089 114.385999 
z
" clip-path="url(#p3b365ddfde)" style="fill: #44aa99; fill-opacity: 0.6; stroke: #ffffff; stroke-opacity: 0.6; stroke-width: 0.339411"/>
    <path d="M 130.278762 107.500592 
L 131.692975 107.500592 
L 131.692975 106.086378 
L 133.107189 106.086378 
L 133.107189 104.672164 
L 131.692975 104.672164 
L 131.692975 103.257951 
L 130.278762 103.257951 
L 130.278762 104.672164 
L 128.864548 104.672164 
L 128.864548 106.086378 
L 130.278762 106.086378 
z
" clip-path="url(#p3b365ddfde)" style="fill: #44aa99; fill-opacity: 0.6; stroke: #ffffff; stroke-opacity: 0.6; stroke-width: 0.339411"/>
    <path d="M 139.022559 106.468461 
L 140.436773 106.468461 
L 140.436773 105.054248 
L 141.850986 105.054248 
L 141.850986 103.640034 
L 140.436773 103.640034 
L 140.436773 102.225821 
L 139.022559 102.225821 
L 139.022559 103.640034 
L 137.608346 103.640034 
L 137.608346 105.054248 
L 139.022559 105.054248 
z
" clip-path="url(#p3b365ddfde)" style="fill: #44aa99; fill-opacity: 0.6; stroke: #ffffff; stroke-opacity: 0.6; stroke-width: 0.339411"/>
    <path d="M 129.41298 113.129471 
L 130.827193 113.129471 
L 130.827193 111.715258 
L 132.241407 111.715258 
L 132.241407 110.301044 
L 130.827193 110.301044 
L 130.827193 108.886831 
L 129.41298 108.886831 
L 129.41298 110.301044 
L 127.998766 110.301044 
L 127.998766 111.715258 
L 129.41298 111.715258 
z
" clip-path="url(#p3b365ddfde)" style="fill: #44aa99; fill-opacity: 0.6; stroke: #ffffff; stroke-opacity: 0.6; stroke-width: 0.339411"/>
    <path d="M 126.056333 109.016616 
L 127.470546 109.016616 
L 127.470546 107.602402 
L 128.88476 107.602402 
L 128.88476 106.188189 
L 127.470546 106.188189 
L 127.470546 104.773975 
L 126.056333 104.773975 
L 126.056333 106.188189 
L 124.642119 106.188189 
L 124.642119 107.602402 
L 126.056333 107.602402 
z
" clip-path="url(#p3b365ddfde)" style="fill: #44aa99; fill-opacity: 0.6; stroke: #ffffff; stroke-opacity: 0.6; stroke-width: 0.339411"/>
    <path d="M 124.83549 115.480296 
L 126.249704 115.480296 
L 126.249704 114.066083 
L 127.663918 114.066083 
L 127.663918 112.651869 
L 126.249704 112.651869 
L 126.249704 111.237656 
L 124.83549 111.237656 
L 124.83549 112.651869 
L 123.421277 112.651869 
L 123.421277 114.066083 
L 124.83549 114.066083 
z
" clip-path="url(#p3b365ddfde)" style="fill: #44aa99; fill-opacity: 0.6; stroke: #ffffff; stroke-opacity: 0.6; stroke-width: 0.339411"/>
    <path d="M 192.526441 37.547524 
L 193.940654 37.547524 
L 193.940654 36.13331 
L 195.354868 36.13331 
L 195.354868 34.719097 
L 193.940654 34.719097 
L 193.940654 33.304883 
L 192.526441 33.304883 
L 192.526441 34.719097 
L 191.112227 34.719097 
L 191.112227 36.13331 
L 192.526441 36.13331 
z
" clip-path="url(#p3b365ddfde)" style="fill: #44aa99; fill-opacity: 0.6; stroke: #ffffff; stroke-opacity: 0.6; stroke-width: 0.339411"/>
    <path d="M 189.287422 82.552369 
L 190.701636 82.552369 
L 190.701636 81.138156 
L 192.115849 81.138156 
L 192.115849 79.723942 
L 190.701636 79.723942 
L 190.701636 78.309729 
L 189.287422 78.309729 
L 189.287422 79.723942 
L 187.873209 79.723942 
L 187.873209 81.138156 
L 189.287422 81.138156 
z
" clip-path="url(#p3b365ddfde)" style="fill: #44aa99; fill-opacity: 0.6; stroke: #ffffff; stroke-opacity: 0.6; stroke-width: 0.339411"/>
    <path d="M 186.067351 94.431419 
L 187.481564 94.431419 
L 187.481564 93.017206 
L 188.895778 93.017206 
L 188.895778 91.602992 
L 187.481564 91.602992 
L 187.481564 90.188779 
L 186.067351 90.188779 
L 186.067351 91.602992 
L 184.653137 91.602992 
L 184.653137 93.017206 
L 186.067351 93.017206 
z
" clip-path="url(#p3b365ddfde)" style="fill: #44aa99; fill-opacity: 0.6; stroke: #ffffff; stroke-opacity: 0.6; stroke-width: 0.339411"/>
    <path d="M 172.722079 96.676353 
L 174.136292 96.676353 
L 174.136292 95.26214 
L 175.550506 95.26214 
L 175.550506 93.847926 
L 174.136292 93.847926 
L 174.136292 92.433713 
L 172.722079 92.433713 
L 172.722079 93.847926 
L 171.307865 93.847926 
L 171.307865 95.26214 
L 172.722079 95.26214 
z
" clip-path="url(#p3b365ddfde)" style="fill: #44aa99; fill-opacity: 0.6; stroke: #ffffff; stroke-opacity: 0.6; stroke-width: 0.339411"/>
    <path d="M 118.63876 62.780803 
L 120.43876 59.780803 
L 118.63876 56.780803 
L 116.83876 59.780803 
z
" clip-path="url(#p3b365ddfde)" style="fill: #88ccee; fill-opacity: 0.6; stroke: #ffffff; stroke-opacity: 0.6; stroke-width: 0.339411"/>
    <path d="M 183.115514 77.453324 
L 184.915514 74.453324 
L 183.115514 71.453324 
L 181.315514 74.453324 
z
" clip-path="url(#p3b365ddfde)" style="fill: #88ccee; fill-opacity: 0.6; stroke: #ffffff; stroke-opacity: 0.6; stroke-width: 0.339411"/>
    <path d="M 145.800978 80.751365 
L 147.600978 77.751365 
L 145.800978 74.751365 
L 144.000978 77.751365 
z
" clip-path="url(#p3b365ddfde)" style="fill: #88ccee; fill-opacity: 0.6; stroke: #ffffff; stroke-opacity: 0.6; stroke-width: 0.339411"/>
    <path d="M 190.193151 90.498396 
L 191.993151 87.498396 
L 190.193151 84.498396 
L 188.393151 87.498396 
z
" clip-path="url(#p3b365ddfde)" style="fill: #88ccee; fill-opacity: 0.6; stroke: #ffffff; stroke-opacity: 0.6; stroke-width: 0.339411"/>
    <path d="M 168.185095 77.13818 
L 169.985095 74.13818 
L 168.185095 71.13818 
L 166.385095 74.13818 
z
" clip-path="url(#p3b365ddfde)" style="fill: #88ccee; fill-opacity: 0.6; stroke: #ffffff; stroke-opacity: 0.6; stroke-width: 0.339411"/>
    <path d="M 194.785136 82.020139 
L 196.585136 79.020139 
L 194.785136 76.020139 
L 192.985136 79.020139 
z
" clip-path="url(#p3b365ddfde)" style="fill: #88ccee; fill-opacity: 0.6; stroke: #ffffff; stroke-opacity: 0.6; stroke-width: 0.339411"/>
    <path d="M 185.747258 75.265962 
L 187.547258 72.265962 
L 185.747258 69.265962 
L 183.947258 72.265962 
z
" clip-path="url(#p3b365ddfde)" style="fill: #88ccee; fill-opacity: 0.6; stroke: #ffffff; stroke-opacity: 0.6; stroke-width: 0.339411"/>
    <path d="M 176.169009 80.054048 
L 177.969009 77.054048 
L 176.169009 74.054048 
L 174.369009 77.054048 
z
" clip-path="url(#p3b365ddfde)" style="fill: #88ccee; fill-opacity: 0.6; stroke: #ffffff; stroke-opacity: 0.6; stroke-width: 0.339411"/>
    <path d="M 201.792367 91.648206 
L 203.592367 88.648206 
L 201.792367 85.648206 
L 199.992367 88.648206 
z
" clip-path="url(#p3b365ddfde)" style="fill: #88ccee; fill-opacity: 0.6; stroke: #ffffff; stroke-opacity: 0.6; stroke-width: 0.339411"/>
    <path d="M 201.975926 94.974176 
L 203.775926 91.974176 
L 201.975926 88.974176 
L 200.175926 91.974176 
z
" clip-path="url(#p3b365ddfde)" style="fill: #88ccee; fill-opacity: 0.6; stroke: #ffffff; stroke-opacity: 0.6; stroke-width: 0.339411"/>
    <path d="M 169.89875 82.823236 
L 171.69875 79.823236 
L 169.89875 76.823236 
L 168.09875 79.823236 
z
" clip-path="url(#p3b365ddfde)" style="fill: #88ccee; fill-opacity: 0.6; stroke: #ffffff; stroke-opacity: 0.6; stroke-width: 0.339411"/>
    <path d="M 122.386665 64.618385 
L 124.186665 61.618385 
L 122.386665 58.618385 
L 120.586665 61.618385 
z
" clip-path="url(#p3b365ddfde)" style="fill: #88ccee; fill-opacity: 0.6; stroke: #ffffff; stroke-opacity: 0.6; stroke-width: 0.339411"/>
    <path d="M 185.321601 77.62691 
L 187.121601 74.62691 
L 185.321601 71.62691 
L 183.521601 74.62691 
z
" clip-path="url(#p3b365ddfde)" style="fill: #88ccee; fill-opacity: 0.6; stroke: #ffffff; stroke-opacity: 0.6; stroke-width: 0.339411"/>
    <path d="M 185.517425 80.364364 
L 187.317425 77.364364 
L 185.517425 74.364364 
L 183.717425 77.364364 
z
" clip-path="url(#p3b365ddfde)" style="fill: #88ccee; fill-opacity: 0.6; stroke: #ffffff; stroke-opacity: 0.6; stroke-width: 0.339411"/>
    <path d="M 183.939318 100.607337 
L 185.739318 97.607337 
L 183.939318 94.607337 
L 182.139318 97.607337 
z
" clip-path="url(#p3b365ddfde)" style="fill: #88ccee; fill-opacity: 0.6; stroke: #ffffff; stroke-opacity: 0.6; stroke-width: 0.339411"/>
    <path d="M 158.314557 79.479365 
L 160.114557 76.479365 
L 158.314557 73.479365 
L 156.514557 76.479365 
z
" clip-path="url(#p3b365ddfde)" style="fill: #88ccee; fill-opacity: 0.6; stroke: #ffffff; stroke-opacity: 0.6; stroke-width: 0.339411"/>
    <path d="M 117.535958 64.823595 
L 119.335958 61.823595 
L 117.535958 58.823595 
L 115.735958 61.823595 
z
" clip-path="url(#p3b365ddfde)" style="fill: #88ccee; fill-opacity: 0.6; stroke: #ffffff; stroke-opacity: 0.6; stroke-width: 0.339411"/>
    <path d="M 177.39548 99.239895 
L 179.19548 96.239895 
L 177.39548 93.239895 
L 175.59548 96.239895 
z
" clip-path="url(#p3b365ddfde)" style="fill: #88ccee; fill-opacity: 0.6; stroke: #ffffff; stroke-opacity: 0.6; stroke-width: 0.339411"/>
    <path d="M 154.459156 104.54992 
L 156.259156 101.54992 
L 154.459156 98.54992 
L 152.659156 101.54992 
z
" clip-path="url(#p3b365ddfde)" style="fill: #88ccee; fill-opacity: 0.6; stroke: #ffffff; stroke-opacity: 0.6; stroke-width: 0.339411"/>
    <path d="M 196.541482 90.512516 
L 198.341482 87.512516 
L 196.541482 84.512516 
L 194.741482 87.512516 
z
" clip-path="url(#p3b365ddfde)" style="fill: #88ccee; fill-opacity: 0.6; stroke: #ffffff; stroke-opacity: 0.6; stroke-width: 0.339411"/>
    <path d="M 182.589269 77.692964 
L 184.389269 74.692964 
L 182.589269 71.692964 
L 180.789269 74.692964 
z
" clip-path="url(#p3b365ddfde)" style="fill: #88ccee; fill-opacity: 0.6; stroke: #ffffff; stroke-opacity: 0.6; stroke-width: 0.339411"/>
    <path d="M 199.853317 86.588452 
L 201.653317 83.588452 
L 199.853317 80.588452 
L 198.053317 83.588452 
z
" clip-path="url(#p3b365ddfde)" style="fill: #88ccee; fill-opacity: 0.6; stroke: #ffffff; stroke-opacity: 0.6; stroke-width: 0.339411"/>
    <path d="M 189.669546 79.618592 
L 191.469546 76.618592 
L 189.669546 73.618592 
L 187.869546 76.618592 
z
" clip-path="url(#p3b365ddfde)" style="fill: #88ccee; fill-opacity: 0.6; stroke: #ffffff; stroke-opacity: 0.6; stroke-width: 0.339411"/>
    <path d="M 193.443895 87.540345 
L 195.243895 84.540345 
L 193.443895 81.540345 
L 191.643895 84.540345 
z
" clip-path="url(#p3b365ddfde)" style="fill: #88ccee; fill-opacity: 0.6; stroke: #ffffff; stroke-opacity: 0.6; stroke-width: 0.339411"/>
    <path d="M 173.730313 96.011713 
L 175.530313 93.011713 
L 173.730313 90.011713 
L 171.930313 93.011713 
z
" clip-path="url(#p3b365ddfde)" style="fill: #88ccee; fill-opacity: 0.6; stroke: #ffffff; stroke-opacity: 0.6; stroke-width: 0.339411"/>
    <path d="M 175.698164 91.429685 
L 177.498164 88.429685 
L 175.698164 85.429685 
L 173.898164 88.429685 
z
" clip-path="url(#p3b365ddfde)" style="fill: #88ccee; fill-opacity: 0.6; stroke: #ffffff; stroke-opacity: 0.6; stroke-width: 0.339411"/>
    <path d="M 183.997619 105.472251 
L 185.797619 102.472251 
L 183.997619 99.472251 
L 182.197619 102.472251 
z
" clip-path="url(#p3b365ddfde)" style="fill: #88ccee; fill-opacity: 0.6; stroke: #ffffff; stroke-opacity: 0.6; stroke-width: 0.339411"/>
    <path d="M 195.988743 94.160575 
L 197.788743 91.160575 
L 195.988743 88.160575 
L 194.188743 91.160575 
z
" clip-path="url(#p3b365ddfde)" style="fill: #88ccee; fill-opacity: 0.6; stroke: #ffffff; stroke-opacity: 0.6; stroke-width: 0.339411"/>
    <path d="M 188.822593 77.435305 
L 190.622593 74.435305 
L 188.822593 71.435305 
L 187.022593 74.435305 
z
" clip-path="url(#p3b365ddfde)" style="fill: #88ccee; fill-opacity: 0.6; stroke: #ffffff; stroke-opacity: 0.6; stroke-width: 0.339411"/>
    <path d="M 201.485372 87.036726 
L 203.285372 84.036726 
L 201.485372 81.036726 
L 199.685372 84.036726 
z
" clip-path="url(#p3b365ddfde)" style="fill: #88ccee; fill-opacity: 0.6; stroke: #ffffff; stroke-opacity: 0.6; stroke-width: 0.339411"/>
    <path d="M 178.512937 91.959584 
L 180.312937 88.959584 
L 178.512937 85.959584 
L 176.712937 88.959584 
z
" clip-path="url(#p3b365ddfde)" style="fill: #88ccee; fill-opacity: 0.6; stroke: #ffffff; stroke-opacity: 0.6; stroke-width: 0.339411"/>
    <path d="M 175.42162 73.22619 
L 177.22162 70.22619 
L 175.42162 67.22619 
L 173.62162 70.22619 
z
" clip-path="url(#p3b365ddfde)" style="fill: #88ccee; fill-opacity: 0.6; stroke: #ffffff; stroke-opacity: 0.6; stroke-width: 0.339411"/>
    <path d="M 152.878576 100.872457 
L 154.678576 97.872457 
L 152.878576 94.872457 
L 151.078576 97.872457 
z
" clip-path="url(#p3b365ddfde)" style="fill: #88ccee; fill-opacity: 0.6; stroke: #ffffff; stroke-opacity: 0.6; stroke-width: 0.339411"/>
    <path d="M 177.492247 90.442934 
L 179.292247 87.442934 
L 177.492247 84.442934 
L 175.692247 87.442934 
z
" clip-path="url(#p3b365ddfde)" style="fill: #88ccee; fill-opacity: 0.6; stroke: #ffffff; stroke-opacity: 0.6; stroke-width: 0.339411"/>
    <path d="M 187.942525 80.504194 
L 189.742525 77.504194 
L 187.942525 74.504194 
L 186.142525 77.504194 
z
" clip-path="url(#p3b365ddfde)" style="fill: #88ccee; fill-opacity: 0.6; stroke: #ffffff; stroke-opacity: 0.6; stroke-width: 0.339411"/>
    <path d="M 175.191057 98.698223 
L 176.991057 95.698223 
L 175.191057 92.698223 
L 173.391057 95.698223 
z
" clip-path="url(#p3b365ddfde)" style="fill: #88ccee; fill-opacity: 0.6; stroke: #ffffff; stroke-opacity: 0.6; stroke-width: 0.339411"/>
    <path d="M 181.133884 97.602147 
L 182.933884 94.602147 
L 181.133884 91.602147 
L 179.333884 94.602147 
z
" clip-path="url(#p3b365ddfde)" style="fill: #88ccee; fill-opacity: 0.6; stroke: #ffffff; stroke-opacity: 0.6; stroke-width: 0.339411"/>
    <path d="M 183.694113 102.643525 
L 185.494113 99.643525 
L 183.694113 96.643525 
L 181.894113 99.643525 
z
" clip-path="url(#p3b365ddfde)" style="fill: #88ccee; fill-opacity: 0.6; stroke: #ffffff; stroke-opacity: 0.6; stroke-width: 0.339411"/>
    <path d="M 119.14461 63.553094 
L 120.94461 60.553094 
L 119.14461 57.553094 
L 117.34461 60.553094 
z
" clip-path="url(#p3b365ddfde)" style="fill: #88ccee; fill-opacity: 0.6; stroke: #ffffff; stroke-opacity: 0.6; stroke-width: 0.339411"/>
    <path d="M 114.957523 62.003757 
L 116.757523 59.003757 
L 114.957523 56.003757 
L 113.157523 59.003757 
z
" clip-path="url(#p3b365ddfde)" style="fill: #88ccee; fill-opacity: 0.6; stroke: #ffffff; stroke-opacity: 0.6; stroke-width: 0.339411"/>
    <path d="M 177.575472 75.386662 
L 179.375472 72.386662 
L 177.575472 69.386662 
L 175.775472 72.386662 
z
" clip-path="url(#p3b365ddfde)" style="fill: #88ccee; fill-opacity: 0.6; stroke: #ffffff; stroke-opacity: 0.6; stroke-width: 0.339411"/>
    <path d="M 202.702996 90.742452 
L 204.502996 87.742452 
L 202.702996 84.742452 
L 200.902996 87.742452 
z
" clip-path="url(#p3b365ddfde)" style="fill: #88ccee; fill-opacity: 0.6; stroke: #ffffff; stroke-opacity: 0.6; stroke-width: 0.339411"/>
    <path d="M 177.075556 95.169802 
L 178.875556 92.169802 
L 177.075556 89.169802 
L 175.275556 92.169802 
z
" clip-path="url(#p3b365ddfde)" style="fill: #88ccee; fill-opacity: 0.6; stroke: #ffffff; stroke-opacity: 0.6; stroke-width: 0.339411"/>
    <path d="M 181.42951 100.452373 
L 183.22951 97.452373 
L 181.42951 94.452373 
L 179.62951 97.452373 
z
" clip-path="url(#p3b365ddfde)" style="fill: #88ccee; fill-opacity: 0.6; stroke: #ffffff; stroke-opacity: 0.6; stroke-width: 0.339411"/>
    <path d="M 186.557792 81.821493 
L 188.357792 78.821493 
L 186.557792 75.821493 
L 184.757792 78.821493 
z
" clip-path="url(#p3b365ddfde)" style="fill: #88ccee; fill-opacity: 0.6; stroke: #ffffff; stroke-opacity: 0.6; stroke-width: 0.339411"/>
    <path d="M 176.730397 96.298547 
L 178.530397 93.298547 
L 176.730397 90.298547 
L 174.930397 93.298547 
z
" clip-path="url(#p3b365ddfde)" style="fill: #88ccee; fill-opacity: 0.6; stroke: #ffffff; stroke-opacity: 0.6; stroke-width: 0.339411"/>
    <path d="M 170.409393 84.51685 
L 172.209393 81.51685 
L 170.409393 78.51685 
L 168.609393 81.51685 
z
" clip-path="url(#p3b365ddfde)" style="fill: #88ccee; fill-opacity: 0.6; stroke: #ffffff; stroke-opacity: 0.6; stroke-width: 0.339411"/>
    <path d="M 184.860959 79.725347 
L 186.660959 76.725347 
L 184.860959 73.725347 
L 183.060959 76.725347 
z
" clip-path="url(#p3b365ddfde)" style="fill: #88ccee; fill-opacity: 0.6; stroke: #ffffff; stroke-opacity: 0.6; stroke-width: 0.339411"/>
    <path d="M 184.111414 96.025008 
L 185.911414 93.025008 
L 184.111414 90.025008 
L 182.311414 93.025008 
z
" clip-path="url(#p3b365ddfde)" style="fill: #88ccee; fill-opacity: 0.6; stroke: #ffffff; stroke-opacity: 0.6; stroke-width: 0.339411"/>
    <path d="M 191.993179 94.210266 
L 193.793179 91.210266 
L 191.993179 88.210266 
L 190.193179 91.210266 
z
" clip-path="url(#p3b365ddfde)" style="fill: #88ccee; fill-opacity: 0.6; stroke: #ffffff; stroke-opacity: 0.6; stroke-width: 0.339411"/>
    <path d="M 204.803597 90.163813 
L 206.603597 87.163813 
L 204.803597 84.163813 
L 203.003597 87.163813 
z
" clip-path="url(#p3b365ddfde)" style="fill: #88ccee; fill-opacity: 0.6; stroke: #ffffff; stroke-opacity: 0.6; stroke-width: 0.339411"/>
    <path d="M 204.682382 99.166642 
L 206.482382 96.166642 
L 204.682382 93.166642 
L 202.882382 96.166642 
z
" clip-path="url(#p3b365ddfde)" style="fill: #88ccee; fill-opacity: 0.6; stroke: #ffffff; stroke-opacity: 0.6; stroke-width: 0.339411"/>
    <path d="M 200.087995 87.848996 
L 201.887995 84.848996 
L 200.087995 81.848996 
L 198.287995 84.848996 
z
" clip-path="url(#p3b365ddfde)" style="fill: #88ccee; fill-opacity: 0.6; stroke: #ffffff; stroke-opacity: 0.6; stroke-width: 0.339411"/>
    <path d="M 202.090133 103.631514 
L 203.890133 100.631514 
L 202.090133 97.631514 
L 200.290133 100.631514 
z
" clip-path="url(#p3b365ddfde)" style="fill: #88ccee; fill-opacity: 0.6; stroke: #ffffff; stroke-opacity: 0.6; stroke-width: 0.339411"/>
    <path d="M 187.382239 95.706241 
L 189.182239 92.706241 
L 187.382239 89.706241 
L 185.582239 92.706241 
z
" clip-path="url(#p3b365ddfde)" style="fill: #88ccee; fill-opacity: 0.6; stroke: #ffffff; stroke-opacity: 0.6; stroke-width: 0.339411"/>
    <path d="M 173.267657 91.256361 
L 175.067657 88.256361 
L 173.267657 85.256361 
L 171.467657 88.256361 
z
" clip-path="url(#p3b365ddfde)" style="fill: #88ccee; fill-opacity: 0.6; stroke: #ffffff; stroke-opacity: 0.6; stroke-width: 0.339411"/>
    <path d="M 194.608886 88.580657 
L 196.408886 85.580657 
L 194.608886 82.580657 
L 192.808886 85.580657 
z
" clip-path="url(#p3b365ddfde)" style="fill: #88ccee; fill-opacity: 0.6; stroke: #ffffff; stroke-opacity: 0.6; stroke-width: 0.339411"/>
    <path d="M 203.800816 96.846831 
L 205.600816 93.846831 
L 203.800816 90.846831 
L 202.000816 93.846831 
z
" clip-path="url(#p3b365ddfde)" style="fill: #88ccee; fill-opacity: 0.6; stroke: #ffffff; stroke-opacity: 0.6; stroke-width: 0.339411"/>
    <path d="M 178.046175 81.501212 
L 179.846175 78.501212 
L 178.046175 75.501212 
L 176.246175 78.501212 
z
" clip-path="url(#p3b365ddfde)" style="fill: #88ccee; fill-opacity: 0.6; stroke: #ffffff; stroke-opacity: 0.6; stroke-width: 0.339411"/>
    <path d="M 115.067707 63.010209 
L 116.867707 60.010209 
L 115.067707 57.010209 
L 113.267707 60.010209 
z
" clip-path="url(#p3b365ddfde)" style="fill: #88ccee; fill-opacity: 0.6; stroke: #ffffff; stroke-opacity: 0.6; stroke-width: 0.339411"/>
    <path d="M 206.397139 94.445855 
L 208.197139 91.445855 
L 206.397139 88.445855 
L 204.597139 91.445855 
z
" clip-path="url(#p3b365ddfde)" style="fill: #88ccee; fill-opacity: 0.6; stroke: #ffffff; stroke-opacity: 0.6; stroke-width: 0.339411"/>
    <path d="M 191.838842 88.885431 
L 193.638842 85.885431 
L 191.838842 82.885431 
L 190.038842 85.885431 
z
" clip-path="url(#p3b365ddfde)" style="fill: #88ccee; fill-opacity: 0.6; stroke: #ffffff; stroke-opacity: 0.6; stroke-width: 0.339411"/>
    <path d="M 187.834144 93.091596 
L 189.634144 90.091596 
L 187.834144 87.091596 
L 186.034144 90.091596 
z
" clip-path="url(#p3b365ddfde)" style="fill: #88ccee; fill-opacity: 0.6; stroke: #ffffff; stroke-opacity: 0.6; stroke-width: 0.339411"/>
    <path d="M 200.533392 94.124852 
L 202.333392 91.124852 
L 200.533392 88.124852 
L 198.733392 91.124852 
z
" clip-path="url(#p3b365ddfde)" style="fill: #88ccee; fill-opacity: 0.6; stroke: #ffffff; stroke-opacity: 0.6; stroke-width: 0.339411"/>
   </g>
   <g id="matplotlib.axis_1">
    <g id="xtick_1">
     <g id="line2d_1">
      <defs>
       <path id="me254eacd73" d="M 0 0 
L 0 8 
" style="stroke: #000000"/>
      </defs>
      <g>
       <use xlink:href="#me254eacd73" x="63.183561" y="188.936063" style="stroke: #000000"/>
      </g>
     </g>
     <g id="text_1">
      <!-- 0 -->
      <g transform="translate(59.366061 209.554188) scale(0.12 -0.12)">
       <defs>
        <path id="DejaVuSans-30" d="M 2034 4250 
Q 1547 4250 1301 3770 
Q 1056 3291 1056 2328 
Q 1056 1369 1301 889 
Q 1547 409 2034 409 
Q 2525 409 2770 889 
Q 3016 1369 3016 2328 
Q 3016 3291 2770 3770 
Q 2525 4250 2034 4250 
z
M 2034 4750 
Q 2819 4750 3233 4129 
Q 3647 3509 3647 2328 
Q 3647 1150 3233 529 
Q 2819 -91 2034 -91 
Q 1250 -91 836 529 
Q 422 1150 422 2328 
Q 422 3509 836 4129 
Q 1250 4750 2034 4750 
z
" transform="scale(0.015625)"/>
       </defs>
       <use xlink:href="#DejaVuSans-30"/>
      </g>
     </g>
    </g>
    <g id="xtick_2">
     <g id="line2d_2">
      <g>
       <use xlink:href="#me254eacd73" x="146.312088" y="188.936063" style="stroke: #000000"/>
      </g>
     </g>
     <g id="text_2">
      <!-- 10 -->
      <g transform="translate(138.677088 209.554188) scale(0.12 -0.12)">
       <defs>
        <path id="DejaVuSans-31" d="M 794 531 
L 1825 531 
L 1825 4091 
L 703 3866 
L 703 4441 
L 1819 4666 
L 2450 4666 
L 2450 531 
L 3481 531 
L 3481 0 
L 794 0 
L 794 531 
z
" transform="scale(0.015625)"/>
       </defs>
       <use xlink:href="#DejaVuSans-31"/>
       <use xlink:href="#DejaVuSans-30" x="63.623047"/>
      </g>
     </g>
    </g>
    <g id="text_3">
     <!-- UMAP 1 -->
     <g transform="translate(117.956572 225.167938) scale(0.12 -0.12)">
      <defs>
       <path id="DejaVuSans-55" d="M 556 4666 
L 1191 4666 
L 1191 1831 
Q 1191 1081 1462 751 
Q 1734 422 2344 422 
Q 2950 422 3222 751 
Q 3494 1081 3494 1831 
L 3494 4666 
L 4128 4666 
L 4128 1753 
Q 4128 841 3676 375 
Q 3225 -91 2344 -91 
Q 1459 -91 1007 375 
Q 556 841 556 1753 
L 556 4666 
z
" transform="scale(0.015625)"/>
       <path id="DejaVuSans-4d" d="M 628 4666 
L 1569 4666 
L 2759 1491 
L 3956 4666 
L 4897 4666 
L 4897 0 
L 4281 0 
L 4281 4097 
L 3078 897 
L 2444 897 
L 1241 4097 
L 1241 0 
L 628 0 
L 628 4666 
z
" transform="scale(0.015625)"/>
       <path id="DejaVuSans-41" d="M 2188 4044 
L 1331 1722 
L 3047 1722 
L 2188 4044 
z
M 1831 4666 
L 2547 4666 
L 4325 0 
L 3669 0 
L 3244 1197 
L 1141 1197 
L 716 0 
L 50 0 
L 1831 4666 
z
" transform="scale(0.015625)"/>
       <path id="DejaVuSans-50" d="M 1259 4147 
L 1259 2394 
L 2053 2394 
Q 2494 2394 2734 2622 
Q 2975 2850 2975 3272 
Q 2975 3691 2734 3919 
Q 2494 4147 2053 4147 
L 1259 4147 
z
M 628 4666 
L 2053 4666 
Q 2838 4666 3239 4311 
Q 3641 3956 3641 3272 
Q 3641 2581 3239 2228 
Q 2838 1875 2053 1875 
L 1259 1875 
L 1259 0 
L 628 0 
L 628 4666 
z
" transform="scale(0.015625)"/>
       <path id="DejaVuSans-20" transform="scale(0.015625)"/>
      </defs>
      <use xlink:href="#DejaVuSans-55"/>
      <use xlink:href="#DejaVuSans-4d" x="73.193359"/>
      <use xlink:href="#DejaVuSans-41" x="159.472656"/>
      <use xlink:href="#DejaVuSans-50" x="227.880859"/>
      <use xlink:href="#DejaVuSans-20" x="288.183594"/>
      <use xlink:href="#DejaVuSans-31" x="319.970703"/>
     </g>
    </g>
   </g>
   <g id="matplotlib.axis_2">
    <g id="ytick_1">
     <g id="line2d_3">
      <defs>
       <path id="m161def52b4" d="M 0 0 
L -8 0 
" style="stroke: #000000"/>
      </defs>
      <g>
       <use xlink:href="#m161def52b4" x="53.957638" y="179.71014" style="stroke: #000000"/>
      </g>
     </g>
     <g id="text_4">
      <!-- 0 -->
      <g transform="translate(34.822638 184.269202) scale(0.12 -0.12)">
       <use xlink:href="#DejaVuSans-30"/>
      </g>
     </g>
    </g>
    <g id="ytick_2">
     <g id="line2d_4">
      <g>
       <use xlink:href="#m161def52b4" x="53.957638" y="96.581613" style="stroke: #000000"/>
      </g>
     </g>
     <g id="text_5">
      <!-- 10 -->
      <g transform="translate(27.187638 101.140675) scale(0.12 -0.12)">
       <use xlink:href="#DejaVuSans-31"/>
       <use xlink:href="#DejaVuSans-30" x="63.623047"/>
      </g>
     </g>
    </g>
    <g id="text_6">
     <!-- UMAP 2 -->
     <g transform="translate(20.692013 124.937128) rotate(-90) scale(0.12 -0.12)">
      <defs>
       <path id="DejaVuSans-32" d="M 1228 531 
L 3431 531 
L 3431 0 
L 469 0 
L 469 531 
Q 828 903 1448 1529 
Q 2069 2156 2228 2338 
Q 2531 2678 2651 2914 
Q 2772 3150 2772 3378 
Q 2772 3750 2511 3984 
Q 2250 4219 1831 4219 
Q 1534 4219 1204 4116 
Q 875 4013 500 3803 
L 500 4441 
Q 881 4594 1212 4672 
Q 1544 4750 1819 4750 
Q 2544 4750 2975 4387 
Q 3406 4025 3406 3419 
Q 3406 3131 3298 2873 
Q 3191 2616 2906 2266 
Q 2828 2175 2409 1742 
Q 1991 1309 1228 531 
z
" transform="scale(0.015625)"/>
      </defs>
      <use xlink:href="#DejaVuSans-55"/>
      <use xlink:href="#DejaVuSans-4d" x="73.193359"/>
      <use xlink:href="#DejaVuSans-41" x="159.472656"/>
      <use xlink:href="#DejaVuSans-50" x="227.880859"/>
      <use xlink:href="#DejaVuSans-20" x="288.183594"/>
      <use xlink:href="#DejaVuSans-32" x="319.970703"/>
     </g>
    </g>
   </g>
   <g id="patch_3">
    <path d="M 53.957638 188.936063 
L 53.957638 14.908819 
" style="fill: none; stroke: #000000; stroke-width: 2; stroke-linejoin: miter; stroke-linecap: square"/>
   </g>
   <g id="patch_4">
    <path d="M 53.957638 188.936063 
L 227.984882 188.936063 
" style="fill: none; stroke: #000000; stroke-width: 2; stroke-linejoin: miter; stroke-linecap: square"/>
   </g>
  </g>
 </g>
 <defs>
  <clipPath id="p3b365ddfde">
   <rect x="53.957638" y="14.908819" width="174.027244" height="174.027244"/>
  </clipPath>
 </defs>
</svg>
