<?xml version="1.0" encoding="utf-8" standalone="no"?>
<!DOCTYPE svg PUBLIC "-//W3C//DTD SVG 1.1//EN"
  "http://www.w3.org/Graphics/SVG/1.1/DTD/svg11.dtd">
<svg xmlns:xlink="http://www.w3.org/1999/xlink" width="597.3875pt" height="348.938719pt" viewBox="0 0 597.3875 348.938719" xmlns="http://www.w3.org/2000/svg" version="1.1">
 <metadata>
  <rdf:RDF xmlns:dc="http://purl.org/dc/elements/1.1/" xmlns:cc="http://creativecommons.org/ns#" xmlns:rdf="http://www.w3.org/1999/02/22-rdf-syntax-ns#">
   <cc:Work>
    <dc:type rdf:resource="http://purl.org/dc/dcmitype/StillImage"/>
    <dc:date>2024-07-10T09:10:54.389252</dc:date>
    <dc:format>image/svg+xml</dc:format>
    <dc:creator>
     <cc:Agent>
      <dc:title>Matplotlib v3.8.4, https://matplotlib.org/</dc:title>
     </cc:Agent>
    </dc:creator>
   </cc:Work>
  </rdf:RDF>
 </metadata>
 <defs>
  <style type="text/css">*{stroke-linejoin: round; stroke-linecap: butt}</style>
 </defs>
 <g id="figure_1">
  <g id="patch_1">
   <path d="M 0 348.938719 
L 597.3875 348.938719 
L 597.3875 -0 
L 0 -0 
z
" style="fill: #ffffff"/>
  </g>
  <g id="axes_1">
   <g id="patch_2">
    <path d="M 63.0075 295.268719 
L 420.1275 295.268719 
L 420.1275 29.156719 
L 63.0075 29.156719 
z
" style="fill: #ffffff"/>
   </g>
   <g id="PathCollection_1">
    <defs>
     <path id="m863e3a5095" d="M 0 3 
C 0.795609 3 1.55874 2.683901 2.12132 2.12132 
C 2.683901 1.55874 3 0.795609 3 0 
C 3 -0.795609 2.683901 -1.55874 2.12132 -2.12132 
C 1.55874 -2.683901 0.795609 -3 0 -3 
C -0.795609 -3 -1.55874 -2.683901 -2.12132 -2.12132 
C -2.683901 -1.55874 -3 -0.795609 -3 0 
C -3 0.795609 -2.683901 1.55874 -2.12132 2.12132 
C -1.55874 2.683901 -0.795609 3 0 3 
z
" style="stroke: #000080"/>
    </defs>
    <g clip-path="url(#pa680ed794b)">
     <use xlink:href="#m863e3a5095" x="77.009527" y="282.475133" style="fill: #000080; stroke: #000080"/>
    </g>
   </g>
   <g id="PathCollection_2">
    <g clip-path="url(#pa680ed794b)">
     <use xlink:href="#m863e3a5095" x="81.83076" y="279.541051" style="fill: #000080; stroke: #000080"/>
    </g>
   </g>
   <g id="PathCollection_3">
    <g clip-path="url(#pa680ed794b)">
     <use xlink:href="#m863e3a5095" x="81.660153" y="277.742366" style="fill: #000080; stroke: #000080"/>
    </g>
   </g>
   <g id="PathCollection_4">
    <g clip-path="url(#pa680ed794b)">
     <use xlink:href="#m863e3a5095" x="94.318538" y="275.781002" style="fill: #000080; stroke: #000080"/>
    </g>
   </g>
   <g id="PathCollection_5">
    <g clip-path="url(#pa680ed794b)">
     <use xlink:href="#m863e3a5095" x="83.96308" y="278.964761" style="fill: #000080; stroke: #000080"/>
    </g>
   </g>
   <g id="PathCollection_6">
    <g clip-path="url(#pa680ed794b)">
     <use xlink:href="#m863e3a5095" x="86.183223" y="278.717515" style="fill: #000080; stroke: #000080"/>
    </g>
   </g>
   <g id="PathCollection_7">
    <g clip-path="url(#pa680ed794b)">
     <use xlink:href="#m863e3a5095" x="82.233037" y="280.956695" style="fill: #000080; stroke: #000080"/>
    </g>
   </g>
   <g id="PathCollection_8">
    <g clip-path="url(#pa680ed794b)">
     <use xlink:href="#m863e3a5095" x="98.843715" y="273.110081" style="fill: #000080; stroke: #000080"/>
    </g>
   </g>
   <g id="PathCollection_9">
    <g clip-path="url(#pa680ed794b)">
     <use xlink:href="#m863e3a5095" x="90.497632" y="256.546384" style="fill: #000080; stroke: #000080"/>
    </g>
   </g>
   <g id="PathCollection_10">
    <g clip-path="url(#pa680ed794b)">
     <use xlink:href="#m863e3a5095" x="63.0075" y="294.032622" style="fill: #000080; stroke: #000080"/>
    </g>
   </g>
   <g id="PathCollection_11">
    <g clip-path="url(#pa680ed794b)">
     <use xlink:href="#m863e3a5095" x="107.774008" y="287.062857" style="fill: #000080; stroke: #000080"/>
    </g>
   </g>
   <g id="PathCollection_12">
    <g clip-path="url(#pa680ed794b)">
     <use xlink:href="#m863e3a5095" x="99.505498" y="254.05006" style="fill: #000080; stroke: #000080"/>
    </g>
   </g>
   <g id="PathCollection_13">
    <g clip-path="url(#pa680ed794b)">
     <use xlink:href="#m863e3a5095" x="102.662641" y="232.793481" style="fill: #000080; stroke: #000080"/>
    </g>
   </g>
   <g id="PathCollection_14">
    <g clip-path="url(#pa680ed794b)">
     <use xlink:href="#m863e3a5095" x="92.76592" y="41.828719" style="fill: #000080; stroke: #000080"/>
    </g>
   </g>
   <g id="PathCollection_15">
    <g clip-path="url(#pa680ed794b)">
     <use xlink:href="#m863e3a5095" x="88.737728" y="240.65975" style="fill: #000080; stroke: #000080"/>
    </g>
   </g>
   <g id="PathCollection_16">
    <g clip-path="url(#pa680ed794b)">
     <use xlink:href="#m863e3a5095" x="89.164443" y="225.185864" style="fill: #000080; stroke: #000080"/>
    </g>
   </g>
   <g id="PathCollection_17">
    <g clip-path="url(#pa680ed794b)">
     <use xlink:href="#m863e3a5095" x="131.332527" y="250.599158" style="fill: #000080; stroke: #000080"/>
    </g>
   </g>
   <g id="PathCollection_18">
    <g clip-path="url(#pa680ed794b)">
     <use xlink:href="#m863e3a5095" x="141.479856" y="241.892342" style="fill: #000080; stroke: #000080"/>
    </g>
   </g>
   <g id="PathCollection_19">
    <g clip-path="url(#pa680ed794b)">
     <use xlink:href="#m863e3a5095" x="122.280801" y="249.017582" style="fill: #000080; stroke: #000080"/>
    </g>
   </g>
   <g id="PathCollection_20">
    <g clip-path="url(#pa680ed794b)">
     <use xlink:href="#m863e3a5095" x="86.635021" y="267.066501" style="fill: #000080; stroke: #000080"/>
    </g>
   </g>
   <g id="PathCollection_21">
    <g clip-path="url(#pa680ed794b)">
     <use xlink:href="#m863e3a5095" x="117.357989" y="245.711341" style="fill: #000080; stroke: #000080"/>
    </g>
   </g>
   <g id="PathCollection_22">
    <g clip-path="url(#pa680ed794b)">
     <use xlink:href="#m863e3a5095" x="102.442762" y="260.976359" style="fill: #000080; stroke: #000080"/>
    </g>
   </g>
   <g id="PathCollection_23">
    <g clip-path="url(#pa680ed794b)">
     <use xlink:href="#m863e3a5095" x="123.678006" y="117.165674" style="fill: #000080; stroke: #000080"/>
    </g>
   </g>
   <g id="PathCollection_24">
    <g clip-path="url(#pa680ed794b)">
     <use xlink:href="#m863e3a5095" x="185.004431" y="102.830423" style="fill: #000080; stroke: #000080"/>
    </g>
   </g>
   <g id="PathCollection_25">
    <g clip-path="url(#pa680ed794b)">
     <use xlink:href="#m863e3a5095" x="103.682933" y="102.123521" style="fill: #000080; stroke: #000080"/>
    </g>
   </g>
   <g id="PathCollection_26">
    <g clip-path="url(#pa680ed794b)">
     <use xlink:href="#m863e3a5095" x="130.458846" y="41.828719" style="fill: #000080; stroke: #000080"/>
    </g>
   </g>
   <g id="PathCollection_27">
    <g clip-path="url(#pa680ed794b)">
     <use xlink:href="#m863e3a5095" x="131.248872" y="132.904557" style="fill: #000080; stroke: #000080"/>
    </g>
   </g>
   <g id="PathCollection_28">
    <g clip-path="url(#pa680ed794b)">
     <use xlink:href="#m863e3a5095" x="167.556348" y="154.406512" style="fill: #000080; stroke: #000080"/>
    </g>
   </g>
   <g id="PathCollection_29">
    <g clip-path="url(#pa680ed794b)">
     <use xlink:href="#m863e3a5095" x="171.447094" y="203.664996" style="fill: #000080; stroke: #000080"/>
    </g>
   </g>
   <g id="PathCollection_30">
    <g clip-path="url(#pa680ed794b)">
     <use xlink:href="#m863e3a5095" x="63.0075" y="269.459902" style="fill: #000080; stroke: #000080"/>
    </g>
   </g>
   <g id="PathCollection_31">
    <g clip-path="url(#pa680ed794b)">
     <use xlink:href="#m863e3a5095" x="86.207953" y="259.818239" style="fill: #000080; stroke: #000080"/>
    </g>
   </g>
   <g id="PathCollection_32">
    <g clip-path="url(#pa680ed794b)">
     <use xlink:href="#m863e3a5095" x="114.462425" y="241.376471" style="fill: #000080; stroke: #000080"/>
    </g>
   </g>
   <g id="PathCollection_33">
    <g clip-path="url(#pa680ed794b)">
     <use xlink:href="#m863e3a5095" x="138.259898" y="227.308189" style="fill: #000080; stroke: #000080"/>
    </g>
   </g>
   <g id="PathCollection_34">
    <g clip-path="url(#pa680ed794b)">
     <use xlink:href="#m863e3a5095" x="178.523227" y="275.861862" style="fill: #000080; stroke: #000080"/>
    </g>
   </g>
   <g id="PathCollection_35">
    <g clip-path="url(#pa680ed794b)">
     <use xlink:href="#m863e3a5095" x="127.243555" y="283.530876" style="fill: #000080; stroke: #000080"/>
    </g>
   </g>
   <g id="PathCollection_36">
    <g clip-path="url(#pa680ed794b)">
     <use xlink:href="#m863e3a5095" x="118.651744" y="254.534235" style="fill: #000080; stroke: #000080"/>
    </g>
   </g>
   <g id="PathCollection_37">
    <g clip-path="url(#pa680ed794b)">
     <use xlink:href="#m863e3a5095" x="103.637261" y="260.564601" style="fill: #000080; stroke: #000080"/>
    </g>
   </g>
   <g id="PathCollection_38">
    <g clip-path="url(#pa680ed794b)">
     <use xlink:href="#m863e3a5095" x="117.190141" y="251.989004" style="fill: #000080; stroke: #000080"/>
    </g>
   </g>
   <g id="PathCollection_39">
    <g clip-path="url(#pa680ed794b)">
     <use xlink:href="#m863e3a5095" x="105.677595" y="261.866206" style="fill: #000080; stroke: #000080"/>
    </g>
   </g>
   <g id="PathCollection_40">
    <g clip-path="url(#pa680ed794b)">
     <use xlink:href="#m863e3a5095" x="73.203895" y="200.084902" style="fill: #000080; stroke: #000080"/>
    </g>
   </g>
   <g id="PathCollection_41">
    <g clip-path="url(#pa680ed794b)">
     <use xlink:href="#m863e3a5095" x="69.527268" y="260.857459" style="fill: #000080; stroke: #000080"/>
    </g>
   </g>
   <g id="PathCollection_42">
    <g clip-path="url(#pa680ed794b)">
     <use xlink:href="#m863e3a5095" x="71.738171" y="272.324256" style="fill: #000080; stroke: #000080"/>
    </g>
   </g>
   <g id="PathCollection_43">
    <g clip-path="url(#pa680ed794b)">
     <use xlink:href="#m863e3a5095" x="126.826499" y="248.421162" style="fill: #000080; stroke: #000080"/>
    </g>
   </g>
   <g id="PathCollection_44">
    <g clip-path="url(#pa680ed794b)">
     <use xlink:href="#m863e3a5095" x="97.18122" y="220.585676" style="fill: #000080; stroke: #000080"/>
    </g>
   </g>
   <g id="PathCollection_45">
    <g clip-path="url(#pa680ed794b)">
     <use xlink:href="#m863e3a5095" x="85.055584" y="238.370492" style="fill: #000080; stroke: #000080"/>
    </g>
   </g>
   <g id="PathCollection_46">
    <g clip-path="url(#pa680ed794b)">
     <use xlink:href="#m863e3a5095" x="189.025629" y="122.518603" style="fill: #000080; stroke: #000080"/>
    </g>
   </g>
   <g id="PathCollection_47">
    <g clip-path="url(#pa680ed794b)">
     <use xlink:href="#m863e3a5095" x="245.896259" y="41.828719" style="fill: #000080; stroke: #000080"/>
    </g>
   </g>
   <g id="PathCollection_48">
    <g clip-path="url(#pa680ed794b)">
     <use xlink:href="#m863e3a5095" x="115.141832" y="248.895531" style="fill: #000080; stroke: #000080"/>
    </g>
   </g>
   <g id="PathCollection_49">
    <g clip-path="url(#pa680ed794b)">
     <use xlink:href="#m863e3a5095" x="213.18" y="158.635539" style="fill: #000080; stroke: #000080"/>
    </g>
   </g>
   <g id="PathCollection_50">
    <g clip-path="url(#pa680ed794b)">
     <use xlink:href="#m863e3a5095" x="153.324829" y="184.566622" style="fill: #000080; stroke: #000080"/>
    </g>
   </g>
   <g id="PathCollection_51">
    <g clip-path="url(#pa680ed794b)">
     <use xlink:href="#m863e3a5095" x="153.110082" y="214.244162" style="fill: #000080; stroke: #000080"/>
    </g>
   </g>
   <g id="PathCollection_52">
    <g clip-path="url(#pa680ed794b)">
     <use xlink:href="#m863e3a5095" x="111.820213" y="264.369429" style="fill: #000080; stroke: #000080"/>
    </g>
   </g>
   <g id="PathCollection_53">
    <g clip-path="url(#pa680ed794b)">
     <use xlink:href="#m863e3a5095" x="111.780977" y="266.71743" style="fill: #000080; stroke: #000080"/>
    </g>
   </g>
   <g id="PathCollection_54">
    <g clip-path="url(#pa680ed794b)">
     <use xlink:href="#m863e3a5095" x="87.882308" y="180.352285" style="fill: #000080; stroke: #000080"/>
    </g>
   </g>
   <g id="PathCollection_55">
    <g clip-path="url(#pa680ed794b)">
     <use xlink:href="#m863e3a5095" x="96.397037" y="280.840637" style="fill: #000080; stroke: #000080"/>
    </g>
   </g>
   <g id="PathCollection_56">
    <g clip-path="url(#pa680ed794b)">
     <use xlink:href="#m863e3a5095" x="172.640557" y="242.113563" style="fill: #000080; stroke: #000080"/>
    </g>
   </g>
   <g id="PathCollection_57">
    <g clip-path="url(#pa680ed794b)">
     <use xlink:href="#m863e3a5095" x="111.568279" y="265.842776" style="fill: #000080; stroke: #000080"/>
    </g>
   </g>
   <g id="PathCollection_58">
    <g clip-path="url(#pa680ed794b)">
     <use xlink:href="#m863e3a5095" x="107.41696" y="266.288573" style="fill: #000080; stroke: #000080"/>
    </g>
   </g>
   <g id="PathCollection_59">
    <g clip-path="url(#pa680ed794b)">
     <use xlink:href="#m863e3a5095" x="111.906304" y="273.980954" style="fill: #000080; stroke: #000080"/>
    </g>
   </g>
   <g id="PathCollection_60">
    <g clip-path="url(#pa680ed794b)">
     <use xlink:href="#m863e3a5095" x="92.912376" y="282.76572" style="fill: #000080; stroke: #000080"/>
    </g>
   </g>
   <g id="PathCollection_61">
    <g clip-path="url(#pa680ed794b)">
     <use xlink:href="#m863e3a5095" x="79.697331" y="205.877367" style="fill: #000080; stroke: #000080"/>
    </g>
   </g>
   <g id="PathCollection_62">
    <g clip-path="url(#pa680ed794b)">
     <use xlink:href="#m863e3a5095" x="83.594721" y="250.427709" style="fill: #000080; stroke: #000080"/>
    </g>
   </g>
   <g id="PathCollection_63">
    <g clip-path="url(#pa680ed794b)">
     <use xlink:href="#m863e3a5095" x="76.050225" y="260.845737" style="fill: #000080; stroke: #000080"/>
    </g>
   </g>
   <g id="PathCollection_64">
    <g clip-path="url(#pa680ed794b)">
     <use xlink:href="#m863e3a5095" x="81.492165" y="259.460566" style="fill: #000080; stroke: #000080"/>
    </g>
   </g>
   <g id="matplotlib.axis_1">
    <g id="xtick_1">
     <g id="line2d_1">
      <defs>
       <path id="me816cae4c0" d="M 0 0 
L 0 8 
" style="stroke: #000000; stroke-width: 3"/>
      </defs>
      <g>
       <use xlink:href="#me816cae4c0" x="63.0075" y="295.268719" style="stroke: #000000; stroke-width: 3"/>
      </g>
     </g>
     <g id="text_1">
      <!-- 0.0 -->
      <g transform="translate(51.080156 318.166375) scale(0.15 -0.15)">
       <defs>
        <path id="DejaVuSans-30" d="M 2034 4250 
Q 1547 4250 1301 3770 
Q 1056 3291 1056 2328 
Q 1056 1369 1301 889 
Q 1547 409 2034 409 
Q 2525 409 2770 889 
Q 3016 1369 3016 2328 
Q 3016 3291 2770 3770 
Q 2525 4250 2034 4250 
z
M 2034 4750 
Q 2819 4750 3233 4129 
Q 3647 3509 3647 2328 
Q 3647 1150 3233 529 
Q 2819 -91 2034 -91 
Q 1250 -91 836 529 
Q 422 1150 422 2328 
Q 422 3509 836 4129 
Q 1250 4750 2034 4750 
z
" transform="scale(0.015625)"/>
        <path id="DejaVuSans-2e" d="M 684 794 
L 1344 794 
L 1344 0 
L 684 0 
L 684 794 
z
" transform="scale(0.015625)"/>
       </defs>
       <use xlink:href="#DejaVuSans-30"/>
       <use xlink:href="#DejaVuSans-2e" x="63.623047"/>
       <use xlink:href="#DejaVuSans-30" x="95.410156"/>
      </g>
     </g>
    </g>
    <g id="xtick_2">
     <g id="line2d_2">
      <g>
       <use xlink:href="#me816cae4c0" x="131.030357" y="295.268719" style="stroke: #000000; stroke-width: 3"/>
      </g>
     </g>
     <g id="text_2">
      <!-- 0.2 -->
      <g transform="translate(119.103013 318.166375) scale(0.15 -0.15)">
       <defs>
        <path id="DejaVuSans-32" d="M 1228 531 
L 3431 531 
L 3431 0 
L 469 0 
L 469 531 
Q 828 903 1448 1529 
Q 2069 2156 2228 2338 
Q 2531 2678 2651 2914 
Q 2772 3150 2772 3378 
Q 2772 3750 2511 3984 
Q 2250 4219 1831 4219 
Q 1534 4219 1204 4116 
Q 875 4013 500 3803 
L 500 4441 
Q 881 4594 1212 4672 
Q 1544 4750 1819 4750 
Q 2544 4750 2975 4387 
Q 3406 4025 3406 3419 
Q 3406 3131 3298 2873 
Q 3191 2616 2906 2266 
Q 2828 2175 2409 1742 
Q 1991 1309 1228 531 
z
" transform="scale(0.015625)"/>
       </defs>
       <use xlink:href="#DejaVuSans-30"/>
       <use xlink:href="#DejaVuSans-2e" x="63.623047"/>
       <use xlink:href="#DejaVuSans-32" x="95.410156"/>
      </g>
     </g>
    </g>
    <g id="xtick_3">
     <g id="line2d_3">
      <g>
       <use xlink:href="#me816cae4c0" x="199.053214" y="295.268719" style="stroke: #000000; stroke-width: 3"/>
      </g>
     </g>
     <g id="text_3">
      <!-- 0.4 -->
      <g transform="translate(187.125871 318.166375) scale(0.15 -0.15)">
       <defs>
        <path id="DejaVuSans-34" d="M 2419 4116 
L 825 1625 
L 2419 1625 
L 2419 4116 
z
M 2253 4666 
L 3047 4666 
L 3047 1625 
L 3713 1625 
L 3713 1100 
L 3047 1100 
L 3047 0 
L 2419 0 
L 2419 1100 
L 313 1100 
L 313 1709 
L 2253 4666 
z
" transform="scale(0.015625)"/>
       </defs>
       <use xlink:href="#DejaVuSans-30"/>
       <use xlink:href="#DejaVuSans-2e" x="63.623047"/>
       <use xlink:href="#DejaVuSans-34" x="95.410156"/>
      </g>
     </g>
    </g>
    <g id="xtick_4">
     <g id="line2d_4">
      <g>
       <use xlink:href="#me816cae4c0" x="267.076071" y="295.268719" style="stroke: #000000; stroke-width: 3"/>
      </g>
     </g>
     <g id="text_4">
      <!-- 0.6 -->
      <g transform="translate(255.148728 318.166375) scale(0.15 -0.15)">
       <defs>
        <path id="DejaVuSans-36" d="M 2113 2584 
Q 1688 2584 1439 2293 
Q 1191 2003 1191 1497 
Q 1191 994 1439 701 
Q 1688 409 2113 409 
Q 2538 409 2786 701 
Q 3034 994 3034 1497 
Q 3034 2003 2786 2293 
Q 2538 2584 2113 2584 
z
M 3366 4563 
L 3366 3988 
Q 3128 4100 2886 4159 
Q 2644 4219 2406 4219 
Q 1781 4219 1451 3797 
Q 1122 3375 1075 2522 
Q 1259 2794 1537 2939 
Q 1816 3084 2150 3084 
Q 2853 3084 3261 2657 
Q 3669 2231 3669 1497 
Q 3669 778 3244 343 
Q 2819 -91 2113 -91 
Q 1303 -91 875 529 
Q 447 1150 447 2328 
Q 447 3434 972 4092 
Q 1497 4750 2381 4750 
Q 2619 4750 2861 4703 
Q 3103 4656 3366 4563 
z
" transform="scale(0.015625)"/>
       </defs>
       <use xlink:href="#DejaVuSans-30"/>
       <use xlink:href="#DejaVuSans-2e" x="63.623047"/>
       <use xlink:href="#DejaVuSans-36" x="95.410156"/>
      </g>
     </g>
    </g>
    <g id="xtick_5">
     <g id="line2d_5">
      <g>
       <use xlink:href="#me816cae4c0" x="335.098929" y="295.268719" style="stroke: #000000; stroke-width: 3"/>
      </g>
     </g>
     <g id="text_5">
      <!-- 0.8 -->
      <g transform="translate(323.171585 318.166375) scale(0.15 -0.15)">
       <defs>
        <path id="DejaVuSans-38" d="M 2034 2216 
Q 1584 2216 1326 1975 
Q 1069 1734 1069 1313 
Q 1069 891 1326 650 
Q 1584 409 2034 409 
Q 2484 409 2743 651 
Q 3003 894 3003 1313 
Q 3003 1734 2745 1975 
Q 2488 2216 2034 2216 
z
M 1403 2484 
Q 997 2584 770 2862 
Q 544 3141 544 3541 
Q 544 4100 942 4425 
Q 1341 4750 2034 4750 
Q 2731 4750 3128 4425 
Q 3525 4100 3525 3541 
Q 3525 3141 3298 2862 
Q 3072 2584 2669 2484 
Q 3125 2378 3379 2068 
Q 3634 1759 3634 1313 
Q 3634 634 3220 271 
Q 2806 -91 2034 -91 
Q 1263 -91 848 271 
Q 434 634 434 1313 
Q 434 1759 690 2068 
Q 947 2378 1403 2484 
z
M 1172 3481 
Q 1172 3119 1398 2916 
Q 1625 2713 2034 2713 
Q 2441 2713 2670 2916 
Q 2900 3119 2900 3481 
Q 2900 3844 2670 4047 
Q 2441 4250 2034 4250 
Q 1625 4250 1398 4047 
Q 1172 3844 1172 3481 
z
" transform="scale(0.015625)"/>
       </defs>
       <use xlink:href="#DejaVuSans-30"/>
       <use xlink:href="#DejaVuSans-2e" x="63.623047"/>
       <use xlink:href="#DejaVuSans-38" x="95.410156"/>
      </g>
     </g>
    </g>
    <g id="xtick_6">
     <g id="line2d_6">
      <g>
       <use xlink:href="#me816cae4c0" x="403.121786" y="295.268719" style="stroke: #000000; stroke-width: 3"/>
      </g>
     </g>
     <g id="text_6">
      <!-- 1.0 -->
      <g transform="translate(391.194442 318.166375) scale(0.15 -0.15)">
       <defs>
        <path id="DejaVuSans-31" d="M 794 531 
L 1825 531 
L 1825 4091 
L 703 3866 
L 703 4441 
L 1819 4666 
L 2450 4666 
L 2450 531 
L 3481 531 
L 3481 0 
L 794 0 
L 794 531 
z
" transform="scale(0.015625)"/>
       </defs>
       <use xlink:href="#DejaVuSans-31"/>
       <use xlink:href="#DejaVuSans-2e" x="63.623047"/>
       <use xlink:href="#DejaVuSans-30" x="95.410156"/>
      </g>
     </g>
    </g>
    <g id="text_7">
     <!-- Attention Finetuning -->
     <g transform="translate(155.135781 338.20325) scale(0.17 -0.17)">
      <defs>
       <path id="DejaVuSans-41" d="M 2188 4044 
L 1331 1722 
L 3047 1722 
L 2188 4044 
z
M 1831 4666 
L 2547 4666 
L 4325 0 
L 3669 0 
L 3244 1197 
L 1141 1197 
L 716 0 
L 50 0 
L 1831 4666 
z
" transform="scale(0.015625)"/>
       <path id="DejaVuSans-74" d="M 1172 4494 
L 1172 3500 
L 2356 3500 
L 2356 3053 
L 1172 3053 
L 1172 1153 
Q 1172 725 1289 603 
Q 1406 481 1766 481 
L 2356 481 
L 2356 0 
L 1766 0 
Q 1100 0 847 248 
Q 594 497 594 1153 
L 594 3053 
L 172 3053 
L 172 3500 
L 594 3500 
L 594 4494 
L 1172 4494 
z
" transform="scale(0.015625)"/>
       <path id="DejaVuSans-65" d="M 3597 1894 
L 3597 1613 
L 953 1613 
Q 991 1019 1311 708 
Q 1631 397 2203 397 
Q 2534 397 2845 478 
Q 3156 559 3463 722 
L 3463 178 
Q 3153 47 2828 -22 
Q 2503 -91 2169 -91 
Q 1331 -91 842 396 
Q 353 884 353 1716 
Q 353 2575 817 3079 
Q 1281 3584 2069 3584 
Q 2775 3584 3186 3129 
Q 3597 2675 3597 1894 
z
M 3022 2063 
Q 3016 2534 2758 2815 
Q 2500 3097 2075 3097 
Q 1594 3097 1305 2825 
Q 1016 2553 972 2059 
L 3022 2063 
z
" transform="scale(0.015625)"/>
       <path id="DejaVuSans-6e" d="M 3513 2113 
L 3513 0 
L 2938 0 
L 2938 2094 
Q 2938 2591 2744 2837 
Q 2550 3084 2163 3084 
Q 1697 3084 1428 2787 
Q 1159 2491 1159 1978 
L 1159 0 
L 581 0 
L 581 3500 
L 1159 3500 
L 1159 2956 
Q 1366 3272 1645 3428 
Q 1925 3584 2291 3584 
Q 2894 3584 3203 3211 
Q 3513 2838 3513 2113 
z
" transform="scale(0.015625)"/>
       <path id="DejaVuSans-69" d="M 603 3500 
L 1178 3500 
L 1178 0 
L 603 0 
L 603 3500 
z
M 603 4863 
L 1178 4863 
L 1178 4134 
L 603 4134 
L 603 4863 
z
" transform="scale(0.015625)"/>
       <path id="DejaVuSans-6f" d="M 1959 3097 
Q 1497 3097 1228 2736 
Q 959 2375 959 1747 
Q 959 1119 1226 758 
Q 1494 397 1959 397 
Q 2419 397 2687 759 
Q 2956 1122 2956 1747 
Q 2956 2369 2687 2733 
Q 2419 3097 1959 3097 
z
M 1959 3584 
Q 2709 3584 3137 3096 
Q 3566 2609 3566 1747 
Q 3566 888 3137 398 
Q 2709 -91 1959 -91 
Q 1206 -91 779 398 
Q 353 888 353 1747 
Q 353 2609 779 3096 
Q 1206 3584 1959 3584 
z
" transform="scale(0.015625)"/>
       <path id="DejaVuSans-20" transform="scale(0.015625)"/>
       <path id="DejaVuSans-46" d="M 628 4666 
L 3309 4666 
L 3309 4134 
L 1259 4134 
L 1259 2759 
L 3109 2759 
L 3109 2228 
L 1259 2228 
L 1259 0 
L 628 0 
L 628 4666 
z
" transform="scale(0.015625)"/>
       <path id="DejaVuSans-75" d="M 544 1381 
L 544 3500 
L 1119 3500 
L 1119 1403 
Q 1119 906 1312 657 
Q 1506 409 1894 409 
Q 2359 409 2629 706 
Q 2900 1003 2900 1516 
L 2900 3500 
L 3475 3500 
L 3475 0 
L 2900 0 
L 2900 538 
Q 2691 219 2414 64 
Q 2138 -91 1772 -91 
Q 1169 -91 856 284 
Q 544 659 544 1381 
z
M 1991 3584 
L 1991 3584 
z
" transform="scale(0.015625)"/>
       <path id="DejaVuSans-67" d="M 2906 1791 
Q 2906 2416 2648 2759 
Q 2391 3103 1925 3103 
Q 1463 3103 1205 2759 
Q 947 2416 947 1791 
Q 947 1169 1205 825 
Q 1463 481 1925 481 
Q 2391 481 2648 825 
Q 2906 1169 2906 1791 
z
M 3481 434 
Q 3481 -459 3084 -895 
Q 2688 -1331 1869 -1331 
Q 1566 -1331 1297 -1286 
Q 1028 -1241 775 -1147 
L 775 -588 
Q 1028 -725 1275 -790 
Q 1522 -856 1778 -856 
Q 2344 -856 2625 -561 
Q 2906 -266 2906 331 
L 2906 616 
Q 2728 306 2450 153 
Q 2172 0 1784 0 
Q 1141 0 747 490 
Q 353 981 353 1791 
Q 353 2603 747 3093 
Q 1141 3584 1784 3584 
Q 2172 3584 2450 3431 
Q 2728 3278 2906 2969 
L 2906 3500 
L 3481 3500 
L 3481 434 
z
" transform="scale(0.015625)"/>
      </defs>
      <use xlink:href="#DejaVuSans-41"/>
      <use xlink:href="#DejaVuSans-74" x="66.658203"/>
      <use xlink:href="#DejaVuSans-74" x="105.867188"/>
      <use xlink:href="#DejaVuSans-65" x="145.076172"/>
      <use xlink:href="#DejaVuSans-6e" x="206.599609"/>
      <use xlink:href="#DejaVuSans-74" x="269.978516"/>
      <use xlink:href="#DejaVuSans-69" x="309.1875"/>
      <use xlink:href="#DejaVuSans-6f" x="336.970703"/>
      <use xlink:href="#DejaVuSans-6e" x="398.152344"/>
      <use xlink:href="#DejaVuSans-20" x="461.53125"/>
      <use xlink:href="#DejaVuSans-46" x="493.318359"/>
      <use xlink:href="#DejaVuSans-69" x="543.587891"/>
      <use xlink:href="#DejaVuSans-6e" x="571.371094"/>
      <use xlink:href="#DejaVuSans-65" x="634.75"/>
      <use xlink:href="#DejaVuSans-74" x="696.273438"/>
      <use xlink:href="#DejaVuSans-75" x="735.482422"/>
      <use xlink:href="#DejaVuSans-6e" x="798.861328"/>
      <use xlink:href="#DejaVuSans-69" x="862.240234"/>
      <use xlink:href="#DejaVuSans-6e" x="890.023438"/>
      <use xlink:href="#DejaVuSans-67" x="953.402344"/>
     </g>
    </g>
   </g>
   <g id="matplotlib.axis_2">
    <g id="ytick_1">
     <g id="line2d_7">
      <defs>
       <path id="m07d1d64f32" d="M 0 0 
L -8 0 
" style="stroke: #000000; stroke-width: 3"/>
      </defs>
      <g>
       <use xlink:href="#m07d1d64f32" x="63.0075" y="295.268719" style="stroke: #000000; stroke-width: 3"/>
      </g>
     </g>
     <g id="text_8">
      <!-- 0.0 -->
      <g transform="translate(27.652813 300.967547) scale(0.15 -0.15)">
       <use xlink:href="#DejaVuSans-30"/>
       <use xlink:href="#DejaVuSans-2e" x="63.623047"/>
       <use xlink:href="#DejaVuSans-30" x="95.410156"/>
      </g>
     </g>
    </g>
    <g id="ytick_2">
     <g id="line2d_8">
      <g>
       <use xlink:href="#m07d1d64f32" x="63.0075" y="244.580719" style="stroke: #000000; stroke-width: 3"/>
      </g>
     </g>
     <g id="text_9">
      <!-- 0.2 -->
      <g transform="translate(27.652813 250.279547) scale(0.15 -0.15)">
       <use xlink:href="#DejaVuSans-30"/>
       <use xlink:href="#DejaVuSans-2e" x="63.623047"/>
       <use xlink:href="#DejaVuSans-32" x="95.410156"/>
      </g>
     </g>
    </g>
    <g id="ytick_3">
     <g id="line2d_9">
      <g>
       <use xlink:href="#m07d1d64f32" x="63.0075" y="193.892719" style="stroke: #000000; stroke-width: 3"/>
      </g>
     </g>
     <g id="text_10">
      <!-- 0.4 -->
      <g transform="translate(27.652813 199.591547) scale(0.15 -0.15)">
       <use xlink:href="#DejaVuSans-30"/>
       <use xlink:href="#DejaVuSans-2e" x="63.623047"/>
       <use xlink:href="#DejaVuSans-34" x="95.410156"/>
      </g>
     </g>
    </g>
    <g id="ytick_4">
     <g id="line2d_10">
      <g>
       <use xlink:href="#m07d1d64f32" x="63.0075" y="143.204719" style="stroke: #000000; stroke-width: 3"/>
      </g>
     </g>
     <g id="text_11">
      <!-- 0.6 -->
      <g transform="translate(27.652813 148.903547) scale(0.15 -0.15)">
       <use xlink:href="#DejaVuSans-30"/>
       <use xlink:href="#DejaVuSans-2e" x="63.623047"/>
       <use xlink:href="#DejaVuSans-36" x="95.410156"/>
      </g>
     </g>
    </g>
    <g id="ytick_5">
     <g id="line2d_11">
      <g>
       <use xlink:href="#m07d1d64f32" x="63.0075" y="92.516719" style="stroke: #000000; stroke-width: 3"/>
      </g>
     </g>
     <g id="text_12">
      <!-- 0.8 -->
      <g transform="translate(27.652813 98.215547) scale(0.15 -0.15)">
       <use xlink:href="#DejaVuSans-30"/>
       <use xlink:href="#DejaVuSans-2e" x="63.623047"/>
       <use xlink:href="#DejaVuSans-38" x="95.410156"/>
      </g>
     </g>
    </g>
    <g id="ytick_6">
     <g id="line2d_12">
      <g>
       <use xlink:href="#m07d1d64f32" x="63.0075" y="41.828719" style="stroke: #000000; stroke-width: 3"/>
      </g>
     </g>
     <g id="text_13">
      <!-- 1.0 -->
      <g transform="translate(27.652813 47.527547) scale(0.15 -0.15)">
       <use xlink:href="#DejaVuSans-31"/>
       <use xlink:href="#DejaVuSans-2e" x="63.623047"/>
       <use xlink:href="#DejaVuSans-30" x="95.410156"/>
      </g>
     </g>
    </g>
    <g id="text_14">
     <!-- Attention Pretraining -->
     <g transform="translate(20.117344 250.580844) rotate(-90) scale(0.17 -0.17)">
      <defs>
       <path id="DejaVuSans-50" d="M 1259 4147 
L 1259 2394 
L 2053 2394 
Q 2494 2394 2734 2622 
Q 2975 2850 2975 3272 
Q 2975 3691 2734 3919 
Q 2494 4147 2053 4147 
L 1259 4147 
z
M 628 4666 
L 2053 4666 
Q 2838 4666 3239 4311 
Q 3641 3956 3641 3272 
Q 3641 2581 3239 2228 
Q 2838 1875 2053 1875 
L 1259 1875 
L 1259 0 
L 628 0 
L 628 4666 
z
" transform="scale(0.015625)"/>
       <path id="DejaVuSans-72" d="M 2631 2963 
Q 2534 3019 2420 3045 
Q 2306 3072 2169 3072 
Q 1681 3072 1420 2755 
Q 1159 2438 1159 1844 
L 1159 0 
L 581 0 
L 581 3500 
L 1159 3500 
L 1159 2956 
Q 1341 3275 1631 3429 
Q 1922 3584 2338 3584 
Q 2397 3584 2469 3576 
Q 2541 3569 2628 3553 
L 2631 2963 
z
" transform="scale(0.015625)"/>
       <path id="DejaVuSans-61" d="M 2194 1759 
Q 1497 1759 1228 1600 
Q 959 1441 959 1056 
Q 959 750 1161 570 
Q 1363 391 1709 391 
Q 2188 391 2477 730 
Q 2766 1069 2766 1631 
L 2766 1759 
L 2194 1759 
z
M 3341 1997 
L 3341 0 
L 2766 0 
L 2766 531 
Q 2569 213 2275 61 
Q 1981 -91 1556 -91 
Q 1019 -91 701 211 
Q 384 513 384 1019 
Q 384 1609 779 1909 
Q 1175 2209 1959 2209 
L 2766 2209 
L 2766 2266 
Q 2766 2663 2505 2880 
Q 2244 3097 1772 3097 
Q 1472 3097 1187 3025 
Q 903 2953 641 2809 
L 641 3341 
Q 956 3463 1253 3523 
Q 1550 3584 1831 3584 
Q 2591 3584 2966 3190 
Q 3341 2797 3341 1997 
z
" transform="scale(0.015625)"/>
      </defs>
      <use xlink:href="#DejaVuSans-41"/>
      <use xlink:href="#DejaVuSans-74" x="66.658203"/>
      <use xlink:href="#DejaVuSans-74" x="105.867188"/>
      <use xlink:href="#DejaVuSans-65" x="145.076172"/>
      <use xlink:href="#DejaVuSans-6e" x="206.599609"/>
      <use xlink:href="#DejaVuSans-74" x="269.978516"/>
      <use xlink:href="#DejaVuSans-69" x="309.1875"/>
      <use xlink:href="#DejaVuSans-6f" x="336.970703"/>
      <use xlink:href="#DejaVuSans-6e" x="398.152344"/>
      <use xlink:href="#DejaVuSans-20" x="461.53125"/>
      <use xlink:href="#DejaVuSans-50" x="493.318359"/>
      <use xlink:href="#DejaVuSans-72" x="551.871094"/>
      <use xlink:href="#DejaVuSans-65" x="590.734375"/>
      <use xlink:href="#DejaVuSans-74" x="652.257812"/>
      <use xlink:href="#DejaVuSans-72" x="691.466797"/>
      <use xlink:href="#DejaVuSans-61" x="732.580078"/>
      <use xlink:href="#DejaVuSans-69" x="793.859375"/>
      <use xlink:href="#DejaVuSans-6e" x="821.642578"/>
      <use xlink:href="#DejaVuSans-69" x="885.021484"/>
      <use xlink:href="#DejaVuSans-6e" x="912.804688"/>
      <use xlink:href="#DejaVuSans-67" x="976.183594"/>
     </g>
    </g>
   </g>
   <g id="patch_3">
    <path d="M 63.0075 295.268719 
L 63.0075 29.156719 
" style="fill: none; stroke: #000000; stroke-width: 2; stroke-linejoin: miter; stroke-linecap: square"/>
   </g>
   <g id="patch_4">
    <path d="M 63.0075 295.268719 
L 420.1275 295.268719 
" style="fill: none; stroke: #000000; stroke-width: 2; stroke-linejoin: miter; stroke-linecap: square"/>
   </g>
   <g id="text_15">
    <!-- Attention on Atom Types of cl -->
    <g transform="translate(87.181406 23.156719) scale(0.21 -0.21)">
     <defs>
      <path id="DejaVuSans-6d" d="M 3328 2828 
Q 3544 3216 3844 3400 
Q 4144 3584 4550 3584 
Q 5097 3584 5394 3201 
Q 5691 2819 5691 2113 
L 5691 0 
L 5113 0 
L 5113 2094 
Q 5113 2597 4934 2840 
Q 4756 3084 4391 3084 
Q 3944 3084 3684 2787 
Q 3425 2491 3425 1978 
L 3425 0 
L 2847 0 
L 2847 2094 
Q 2847 2600 2669 2842 
Q 2491 3084 2119 3084 
Q 1678 3084 1418 2786 
Q 1159 2488 1159 1978 
L 1159 0 
L 581 0 
L 581 3500 
L 1159 3500 
L 1159 2956 
Q 1356 3278 1631 3431 
Q 1906 3584 2284 3584 
Q 2666 3584 2933 3390 
Q 3200 3197 3328 2828 
z
" transform="scale(0.015625)"/>
      <path id="DejaVuSans-54" d="M -19 4666 
L 3928 4666 
L 3928 4134 
L 2272 4134 
L 2272 0 
L 1638 0 
L 1638 4134 
L -19 4134 
L -19 4666 
z
" transform="scale(0.015625)"/>
      <path id="DejaVuSans-79" d="M 2059 -325 
Q 1816 -950 1584 -1140 
Q 1353 -1331 966 -1331 
L 506 -1331 
L 506 -850 
L 844 -850 
Q 1081 -850 1212 -737 
Q 1344 -625 1503 -206 
L 1606 56 
L 191 3500 
L 800 3500 
L 1894 763 
L 2988 3500 
L 3597 3500 
L 2059 -325 
z
" transform="scale(0.015625)"/>
      <path id="DejaVuSans-70" d="M 1159 525 
L 1159 -1331 
L 581 -1331 
L 581 3500 
L 1159 3500 
L 1159 2969 
Q 1341 3281 1617 3432 
Q 1894 3584 2278 3584 
Q 2916 3584 3314 3078 
Q 3713 2572 3713 1747 
Q 3713 922 3314 415 
Q 2916 -91 2278 -91 
Q 1894 -91 1617 61 
Q 1341 213 1159 525 
z
M 3116 1747 
Q 3116 2381 2855 2742 
Q 2594 3103 2138 3103 
Q 1681 3103 1420 2742 
Q 1159 2381 1159 1747 
Q 1159 1113 1420 752 
Q 1681 391 2138 391 
Q 2594 391 2855 752 
Q 3116 1113 3116 1747 
z
" transform="scale(0.015625)"/>
      <path id="DejaVuSans-73" d="M 2834 3397 
L 2834 2853 
Q 2591 2978 2328 3040 
Q 2066 3103 1784 3103 
Q 1356 3103 1142 2972 
Q 928 2841 928 2578 
Q 928 2378 1081 2264 
Q 1234 2150 1697 2047 
L 1894 2003 
Q 2506 1872 2764 1633 
Q 3022 1394 3022 966 
Q 3022 478 2636 193 
Q 2250 -91 1575 -91 
Q 1294 -91 989 -36 
Q 684 19 347 128 
L 347 722 
Q 666 556 975 473 
Q 1284 391 1588 391 
Q 1994 391 2212 530 
Q 2431 669 2431 922 
Q 2431 1156 2273 1281 
Q 2116 1406 1581 1522 
L 1381 1569 
Q 847 1681 609 1914 
Q 372 2147 372 2553 
Q 372 3047 722 3315 
Q 1072 3584 1716 3584 
Q 2034 3584 2315 3537 
Q 2597 3491 2834 3397 
z
" transform="scale(0.015625)"/>
      <path id="DejaVuSans-66" d="M 2375 4863 
L 2375 4384 
L 1825 4384 
Q 1516 4384 1395 4259 
Q 1275 4134 1275 3809 
L 1275 3500 
L 2222 3500 
L 2222 3053 
L 1275 3053 
L 1275 0 
L 697 0 
L 697 3053 
L 147 3053 
L 147 3500 
L 697 3500 
L 697 3744 
Q 697 4328 969 4595 
Q 1241 4863 1831 4863 
L 2375 4863 
z
" transform="scale(0.015625)"/>
      <path id="DejaVuSans-63" d="M 3122 3366 
L 3122 2828 
Q 2878 2963 2633 3030 
Q 2388 3097 2138 3097 
Q 1578 3097 1268 2742 
Q 959 2388 959 1747 
Q 959 1106 1268 751 
Q 1578 397 2138 397 
Q 2388 397 2633 464 
Q 2878 531 3122 666 
L 3122 134 
Q 2881 22 2623 -34 
Q 2366 -91 2075 -91 
Q 1284 -91 818 406 
Q 353 903 353 1747 
Q 353 2603 823 3093 
Q 1294 3584 2113 3584 
Q 2378 3584 2631 3529 
Q 2884 3475 3122 3366 
z
" transform="scale(0.015625)"/>
      <path id="DejaVuSans-6c" d="M 603 4863 
L 1178 4863 
L 1178 0 
L 603 0 
L 603 4863 
z
" transform="scale(0.015625)"/>
     </defs>
     <use xlink:href="#DejaVuSans-41"/>
     <use xlink:href="#DejaVuSans-74" x="66.658203"/>
     <use xlink:href="#DejaVuSans-74" x="105.867188"/>
     <use xlink:href="#DejaVuSans-65" x="145.076172"/>
     <use xlink:href="#DejaVuSans-6e" x="206.599609"/>
     <use xlink:href="#DejaVuSans-74" x="269.978516"/>
     <use xlink:href="#DejaVuSans-69" x="309.1875"/>
     <use xlink:href="#DejaVuSans-6f" x="336.970703"/>
     <use xlink:href="#DejaVuSans-6e" x="398.152344"/>
     <use xlink:href="#DejaVuSans-20" x="461.53125"/>
     <use xlink:href="#DejaVuSans-6f" x="493.318359"/>
     <use xlink:href="#DejaVuSans-6e" x="554.5"/>
     <use xlink:href="#DejaVuSans-20" x="617.878906"/>
     <use xlink:href="#DejaVuSans-41" x="649.666016"/>
     <use xlink:href="#DejaVuSans-74" x="716.324219"/>
     <use xlink:href="#DejaVuSans-6f" x="755.533203"/>
     <use xlink:href="#DejaVuSans-6d" x="816.714844"/>
     <use xlink:href="#DejaVuSans-20" x="914.126953"/>
     <use xlink:href="#DejaVuSans-54" x="945.914062"/>
     <use xlink:href="#DejaVuSans-79" x="991.373047"/>
     <use xlink:href="#DejaVuSans-70" x="1050.552734"/>
     <use xlink:href="#DejaVuSans-65" x="1114.029297"/>
     <use xlink:href="#DejaVuSans-73" x="1175.552734"/>
     <use xlink:href="#DejaVuSans-20" x="1227.652344"/>
     <use xlink:href="#DejaVuSans-6f" x="1259.439453"/>
     <use xlink:href="#DejaVuSans-66" x="1320.621094"/>
     <use xlink:href="#DejaVuSans-20" x="1355.826172"/>
     <use xlink:href="#DejaVuSans-63" x="1387.613281"/>
     <use xlink:href="#DejaVuSans-6c" x="1442.59375"/>
    </g>
   </g>
   <g id="legend_1">
    <g id="patch_5">
     <path d="M 518.317344 177.239125 
L 586.7875 177.239125 
Q 590.1875 177.239125 590.1875 173.839125 
L 590.1875 150.586312 
Q 590.1875 147.186312 586.7875 147.186312 
L 518.317344 147.186312 
Q 514.917344 147.186312 514.917344 150.586312 
L 514.917344 173.839125 
Q 514.917344 177.239125 518.317344 177.239125 
z
" style="fill: #ffffff; opacity: 0.8; stroke: #cccccc; stroke-linejoin: miter"/>
    </g>
    <g id="PathCollection_65">
     <g>
      <use xlink:href="#m863e3a5095" x="538.717344" y="162.441156" style="fill: #000080; stroke: #000080"/>
     </g>
    </g>
    <g id="text_16">
     <!-- cl -->
     <g transform="translate(569.317344 166.903656) scale(0.17 -0.17)">
      <use xlink:href="#DejaVuSans-63"/>
      <use xlink:href="#DejaVuSans-6c" x="54.980469"/>
     </g>
    </g>
   </g>
  </g>
 </g>
 <defs>
  <clipPath id="pa680ed794b">
   <rect x="63.0075" y="29.156719" width="357.12" height="266.112"/>
  </clipPath>
 </defs>
</svg>
