<?xml version="1.0" encoding="utf-8" standalone="no"?>
<!DOCTYPE svg PUBLIC "-//W3C//DTD SVG 1.1//EN"
  "http://www.w3.org/Graphics/SVG/1.1/DTD/svg11.dtd">
<svg xmlns:xlink="http://www.w3.org/1999/xlink" width="477.555444pt" height="348.938719pt" viewBox="0 0 477.555444 348.938719" xmlns="http://www.w3.org/2000/svg" version="1.1">
 <metadata>
  <rdf:RDF xmlns:dc="http://purl.org/dc/elements/1.1/" xmlns:cc="http://creativecommons.org/ns#" xmlns:rdf="http://www.w3.org/1999/02/22-rdf-syntax-ns#">
   <cc:Work>
    <dc:type rdf:resource="http://purl.org/dc/dcmitype/StillImage"/>
    <dc:date>2024-09-16T15:13:49.815104</dc:date>
    <dc:format>image/svg+xml</dc:format>
    <dc:creator>
     <cc:Agent>
      <dc:title>Matplotlib v3.6.2, https://matplotlib.org/</dc:title>
     </cc:Agent>
    </dc:creator>
   </cc:Work>
  </rdf:RDF>
 </metadata>
 <defs>
  <style type="text/css">*{stroke-linejoin: round; stroke-linecap: butt}</style>
 </defs>
 <g id="figure_1">
  <g id="patch_1">
   <path d="M 0 348.938719 
L 477.555444 348.938719 
L 477.555444 -0 
L 0 -0 
L 0 348.938719 
z
" style="fill: none"/>
  </g>
  <g id="axes_1">
   <g id="patch_2">
    <path d="M 70.809844 295.268719 
L 427.929844 295.268719 
L 427.929844 29.156719 
L 70.809844 29.156719 
L 70.809844 295.268719 
z
" style="fill: none"/>
   </g>
   <g id="PathCollection_1">
    <defs>
     <path id="C0_0_067b406716" d="M 0 1.5 
C 0.397805 1.5 0.77937 1.341951 1.06066 1.06066 
C 1.341951 0.77937 1.5 0.397805 1.5 -0 
C 1.5 -0.397805 1.341951 -0.77937 1.06066 -1.06066 
C 0.77937 -1.341951 0.397805 -1.5 0 -1.5 
C -0.397805 -1.5 -0.77937 -1.341951 -1.06066 -1.06066 
C -1.341951 -0.77937 -1.5 -0.397805 -1.5 0 
C -1.5 0.397805 -1.341951 0.77937 -1.06066 1.06066 
C -0.77937 1.341951 -0.397805 1.5 0 1.5 
z
"/>
    </defs>
    <g clip-path="url(#p5a7aaf6dcf)">
     <use xlink:href="#C0_0_067b406716" x="207.855257" y="272.624467" style="fill: #e6194b; fill-opacity: 0.8; stroke: #e6194b; stroke-opacity: 0.8"/>
    </g>
    <g clip-path="url(#p5a7aaf6dcf)">
     <use xlink:href="#C0_0_067b406716" x="250.159878" y="54.044612" style="fill: #e6194b; fill-opacity: 0.8; stroke: #e6194b; stroke-opacity: 0.8"/>
    </g>
    <g clip-path="url(#p5a7aaf6dcf)">
     <use xlink:href="#C0_0_067b406716" x="252.489331" y="41.252719" style="fill: #e6194b; fill-opacity: 0.8; stroke: #e6194b; stroke-opacity: 0.8"/>
    </g>
    <g clip-path="url(#p5a7aaf6dcf)">
     <use xlink:href="#C0_0_067b406716" x="116.036883" y="255.772113" style="fill: #e6194b; fill-opacity: 0.8; stroke: #e6194b; stroke-opacity: 0.8"/>
    </g>
    <g clip-path="url(#p5a7aaf6dcf)">
     <use xlink:href="#C0_0_067b406716" x="106.377295" y="238.483417" style="fill: #e6194b; fill-opacity: 0.8; stroke: #e6194b; stroke-opacity: 0.8"/>
    </g>
    <g clip-path="url(#p5a7aaf6dcf)">
     <use xlink:href="#C0_0_067b406716" x="190.205131" y="266.977935" style="fill: #e6194b; fill-opacity: 0.8; stroke: #e6194b; stroke-opacity: 0.8"/>
    </g>
    <g clip-path="url(#p5a7aaf6dcf)">
     <use xlink:href="#C0_0_067b406716" x="115.838325" y="245.075508" style="fill: #e6194b; fill-opacity: 0.8; stroke: #e6194b; stroke-opacity: 0.8"/>
    </g>
    <g clip-path="url(#p5a7aaf6dcf)">
     <use xlink:href="#C0_0_067b406716" x="87.813322" y="240.952137" style="fill: #e6194b; fill-opacity: 0.8; stroke: #e6194b; stroke-opacity: 0.8"/>
    </g>
    <g clip-path="url(#p5a7aaf6dcf)">
     <use xlink:href="#C0_0_067b406716" x="110.950566" y="252.943479" style="fill: #e6194b; fill-opacity: 0.8; stroke: #e6194b; stroke-opacity: 0.8"/>
    </g>
    <g clip-path="url(#p5a7aaf6dcf)">
     <use xlink:href="#C0_0_067b406716" x="235.736029" y="43.737987" style="fill: #e6194b; fill-opacity: 0.8; stroke: #e6194b; stroke-opacity: 0.8"/>
    </g>
    <g clip-path="url(#p5a7aaf6dcf)">
     <use xlink:href="#C0_0_067b406716" x="100.553072" y="264.014306" style="fill: #e6194b; fill-opacity: 0.8; stroke: #e6194b; stroke-opacity: 0.8"/>
    </g>
    <g clip-path="url(#p5a7aaf6dcf)">
     <use xlink:href="#C0_0_067b406716" x="89.266247" y="268.223778" style="fill: #e6194b; fill-opacity: 0.8; stroke: #e6194b; stroke-opacity: 0.8"/>
    </g>
    <g clip-path="url(#p5a7aaf6dcf)">
     <use xlink:href="#C0_0_067b406716" x="190.506015" y="280.119679" style="fill: #e6194b; fill-opacity: 0.8; stroke: #e6194b; stroke-opacity: 0.8"/>
    </g>
    <g clip-path="url(#p5a7aaf6dcf)">
     <use xlink:href="#C0_0_067b406716" x="253.723737" y="53.954842" style="fill: #e6194b; fill-opacity: 0.8; stroke: #e6194b; stroke-opacity: 0.8"/>
    </g>
    <g clip-path="url(#p5a7aaf6dcf)">
     <use xlink:href="#C0_0_067b406716" x="105.325571" y="253.14958" style="fill: #e6194b; fill-opacity: 0.8; stroke: #e6194b; stroke-opacity: 0.8"/>
    </g>
    <g clip-path="url(#p5a7aaf6dcf)">
     <use xlink:href="#C0_0_067b406716" x="87.042571" y="245.222174" style="fill: #e6194b; fill-opacity: 0.8; stroke: #e6194b; stroke-opacity: 0.8"/>
    </g>
    <g clip-path="url(#p5a7aaf6dcf)">
     <use xlink:href="#C0_0_067b406716" x="186.534502" y="281.517668" style="fill: #e6194b; fill-opacity: 0.8; stroke: #e6194b; stroke-opacity: 0.8"/>
    </g>
    <g clip-path="url(#p5a7aaf6dcf)">
     <use xlink:href="#C0_0_067b406716" x="104.377777" y="239.170977" style="fill: #e6194b; fill-opacity: 0.8; stroke: #e6194b; stroke-opacity: 0.8"/>
    </g>
    <g clip-path="url(#p5a7aaf6dcf)">
     <use xlink:href="#C0_0_067b406716" x="189.259083" y="55.147011" style="fill: #e6194b; fill-opacity: 0.8; stroke: #e6194b; stroke-opacity: 0.8"/>
    </g>
    <g clip-path="url(#p5a7aaf6dcf)">
     <use xlink:href="#C0_0_067b406716" x="151.351917" y="228.092841" style="fill: #e6194b; fill-opacity: 0.8; stroke: #e6194b; stroke-opacity: 0.8"/>
    </g>
    <g clip-path="url(#p5a7aaf6dcf)">
     <use xlink:href="#C0_0_067b406716" x="192.147218" y="251.625612" style="fill: #e6194b; fill-opacity: 0.8; stroke: #e6194b; stroke-opacity: 0.8"/>
    </g>
    <g clip-path="url(#p5a7aaf6dcf)">
     <use xlink:href="#C0_0_067b406716" x="127.905672" y="225.758115" style="fill: #e6194b; fill-opacity: 0.8; stroke: #e6194b; stroke-opacity: 0.8"/>
    </g>
    <g clip-path="url(#p5a7aaf6dcf)">
     <use xlink:href="#C0_0_067b406716" x="94.15021" y="259.861717" style="fill: #e6194b; fill-opacity: 0.8; stroke: #e6194b; stroke-opacity: 0.8"/>
    </g>
    <g clip-path="url(#p5a7aaf6dcf)">
     <use xlink:href="#C0_0_067b406716" x="88.924383" y="266.046703" style="fill: #e6194b; fill-opacity: 0.8; stroke: #e6194b; stroke-opacity: 0.8"/>
    </g>
    <g clip-path="url(#p5a7aaf6dcf)">
     <use xlink:href="#C0_0_067b406716" x="188.750433" y="283.172719" style="fill: #e6194b; fill-opacity: 0.8; stroke: #e6194b; stroke-opacity: 0.8"/>
    </g>
    <g clip-path="url(#p5a7aaf6dcf)">
     <use xlink:href="#C0_0_067b406716" x="189.072588" y="54.906828" style="fill: #e6194b; fill-opacity: 0.8; stroke: #e6194b; stroke-opacity: 0.8"/>
    </g>
    <g clip-path="url(#p5a7aaf6dcf)">
     <use xlink:href="#C0_0_067b406716" x="154.789492" y="227.825552" style="fill: #e6194b; fill-opacity: 0.8; stroke: #e6194b; stroke-opacity: 0.8"/>
    </g>
    <g clip-path="url(#p5a7aaf6dcf)">
     <use xlink:href="#C0_0_067b406716" x="133.847455" y="242.964682" style="fill: #e6194b; fill-opacity: 0.8; stroke: #e6194b; stroke-opacity: 0.8"/>
    </g>
    <g clip-path="url(#p5a7aaf6dcf)">
     <use xlink:href="#C0_0_067b406716" x="112.019044" y="242.573586" style="fill: #e6194b; fill-opacity: 0.8; stroke: #e6194b; stroke-opacity: 0.8"/>
    </g>
    <g clip-path="url(#p5a7aaf6dcf)">
     <use xlink:href="#C0_0_067b406716" x="98.880264" y="249.548014" style="fill: #e6194b; fill-opacity: 0.8; stroke: #e6194b; stroke-opacity: 0.8"/>
    </g>
    <g clip-path="url(#p5a7aaf6dcf)">
     <use xlink:href="#C0_0_067b406716" x="173.832635" y="279.508446" style="fill: #e6194b; fill-opacity: 0.8; stroke: #e6194b; stroke-opacity: 0.8"/>
    </g>
    <g clip-path="url(#p5a7aaf6dcf)">
     <use xlink:href="#C0_0_067b406716" x="244.245678" y="43.321209" style="fill: #e6194b; fill-opacity: 0.8; stroke: #e6194b; stroke-opacity: 0.8"/>
    </g>
    <g clip-path="url(#p5a7aaf6dcf)">
     <use xlink:href="#C0_0_067b406716" x="395.659501" y="261.245858" style="fill: #3cb44b; fill-opacity: 0.8; stroke: #3cb44b; stroke-opacity: 0.8"/>
    </g>
    <g clip-path="url(#p5a7aaf6dcf)">
     <use xlink:href="#C0_0_067b406716" x="361.187305" y="246.159461" style="fill: #3cb44b; fill-opacity: 0.8; stroke: #3cb44b; stroke-opacity: 0.8"/>
    </g>
    <g clip-path="url(#p5a7aaf6dcf)">
     <use xlink:href="#C0_0_067b406716" x="234.046872" y="63.300172" style="fill: #3cb44b; fill-opacity: 0.8; stroke: #3cb44b; stroke-opacity: 0.8"/>
    </g>
    <g clip-path="url(#p5a7aaf6dcf)">
     <use xlink:href="#C0_0_067b406716" x="349.307313" y="267.959242" style="fill: #3cb44b; fill-opacity: 0.8; stroke: #3cb44b; stroke-opacity: 0.8"/>
    </g>
    <g clip-path="url(#p5a7aaf6dcf)">
     <use xlink:href="#C0_0_067b406716" x="396.900426" y="262.791306" style="fill: #3cb44b; fill-opacity: 0.8; stroke: #3cb44b; stroke-opacity: 0.8"/>
    </g>
    <g clip-path="url(#p5a7aaf6dcf)">
     <use xlink:href="#C0_0_067b406716" x="411.697116" y="262.00286" style="fill: #3cb44b; fill-opacity: 0.8; stroke: #3cb44b; stroke-opacity: 0.8"/>
    </g>
    <g clip-path="url(#p5a7aaf6dcf)">
     <use xlink:href="#C0_0_067b406716" x="350.291395" y="272.575657" style="fill: #3cb44b; fill-opacity: 0.8; stroke: #3cb44b; stroke-opacity: 0.8"/>
    </g>
    <g clip-path="url(#p5a7aaf6dcf)">
     <use xlink:href="#C0_0_067b406716" x="384.689571" y="268.22295" style="fill: #3cb44b; fill-opacity: 0.8; stroke: #3cb44b; stroke-opacity: 0.8"/>
    </g>
    <g clip-path="url(#p5a7aaf6dcf)">
     <use xlink:href="#C0_0_067b406716" x="355.000592" y="275.548955" style="fill: #3cb44b; fill-opacity: 0.8; stroke: #3cb44b; stroke-opacity: 0.8"/>
    </g>
    <g clip-path="url(#p5a7aaf6dcf)">
     <use xlink:href="#C0_0_067b406716" x="405.109071" y="269.31452" style="fill: #3cb44b; fill-opacity: 0.8; stroke: #3cb44b; stroke-opacity: 0.8"/>
    </g>
    <g clip-path="url(#p5a7aaf6dcf)">
     <use xlink:href="#C0_0_067b406716" x="353.90506" y="276.065874" style="fill: #3cb44b; fill-opacity: 0.8; stroke: #3cb44b; stroke-opacity: 0.8"/>
    </g>
    <g clip-path="url(#p5a7aaf6dcf)">
     <use xlink:href="#C0_0_067b406716" x="330.10865" y="235.447154" style="fill: #ffe119; fill-opacity: 0.8; stroke: #ffe119; stroke-opacity: 0.8"/>
    </g>
    <g clip-path="url(#p5a7aaf6dcf)">
     <use xlink:href="#C0_0_067b406716" x="287.544073" y="198.409886" style="fill: #ffe119; fill-opacity: 0.8; stroke: #ffe119; stroke-opacity: 0.8"/>
    </g>
    <g clip-path="url(#p5a7aaf6dcf)">
     <use xlink:href="#C0_0_067b406716" x="357.153529" y="239.75374" style="fill: #4363d8; fill-opacity: 0.8; stroke: #4363d8; stroke-opacity: 0.8"/>
    </g>
    <g clip-path="url(#p5a7aaf6dcf)">
     <use xlink:href="#C0_0_067b406716" x="327.665464" y="233.53641" style="fill: #4363d8; fill-opacity: 0.8; stroke: #4363d8; stroke-opacity: 0.8"/>
    </g>
    <g clip-path="url(#p5a7aaf6dcf)">
     <use xlink:href="#C0_0_067b406716" x="301.821334" y="183.942663" style="fill: #4363d8; fill-opacity: 0.8; stroke: #4363d8; stroke-opacity: 0.8"/>
    </g>
    <g clip-path="url(#p5a7aaf6dcf)">
     <use xlink:href="#C0_0_067b406716" x="289.44716" y="189.908756" style="fill: #4363d8; fill-opacity: 0.8; stroke: #4363d8; stroke-opacity: 0.8"/>
    </g>
    <g clip-path="url(#p5a7aaf6dcf)">
     <use xlink:href="#C0_0_067b406716" x="328.853794" y="256.468715" style="fill: #4363d8; fill-opacity: 0.8; stroke: #4363d8; stroke-opacity: 0.8"/>
    </g>
    <g clip-path="url(#p5a7aaf6dcf)">
     <use xlink:href="#C0_0_067b406716" x="291.563374" y="236.857498" style="fill: #4363d8; fill-opacity: 0.8; stroke: #4363d8; stroke-opacity: 0.8"/>
    </g>
    <g clip-path="url(#p5a7aaf6dcf)">
     <use xlink:href="#C0_0_067b406716" x="313.754877" y="240.675192" style="fill: #4363d8; fill-opacity: 0.8; stroke: #4363d8; stroke-opacity: 0.8"/>
    </g>
    <g clip-path="url(#p5a7aaf6dcf)">
     <use xlink:href="#C0_0_067b406716" x="314.55101" y="221.356422" style="fill: #4363d8; fill-opacity: 0.8; stroke: #4363d8; stroke-opacity: 0.8"/>
    </g>
    <g clip-path="url(#p5a7aaf6dcf)">
     <use xlink:href="#C0_0_067b406716" x="342.507695" y="250.86969" style="fill: #4363d8; fill-opacity: 0.8; stroke: #4363d8; stroke-opacity: 0.8"/>
    </g>
    <g clip-path="url(#p5a7aaf6dcf)">
     <use xlink:href="#C0_0_067b406716" x="323.827404" y="238.940673" style="fill: #4363d8; fill-opacity: 0.8; stroke: #4363d8; stroke-opacity: 0.8"/>
    </g>
    <g clip-path="url(#p5a7aaf6dcf)">
     <use xlink:href="#C0_0_067b406716" x="306.977719" y="220.702142" style="fill: #4363d8; fill-opacity: 0.8; stroke: #4363d8; stroke-opacity: 0.8"/>
    </g>
   </g>
   <g id="matplotlib.axis_1">
    <g id="xtick_1">
     <g id="line2d_1">
      <defs>
       <path id="m820a61ea33" d="M 0 0 
L 0 8 
" style="stroke: #000000; stroke-width: 3"/>
      </defs>
      <g>
       <use xlink:href="#m820a61ea33" x="150.35157" y="295.268719" style="stroke: #000000; stroke-width: 3"/>
      </g>
     </g>
     <g id="text_1">
      <!-- −10 -->
      <g transform="translate(134.523054 318.166375) scale(0.15 -0.15)">
       <defs>
        <path id="DejaVuSans-2212" d="M 678 2272 
L 4684 2272 
L 4684 1741 
L 678 1741 
L 678 2272 
z
" transform="scale(0.015625)"/>
        <path id="DejaVuSans-31" d="M 794 531 
L 1825 531 
L 1825 4091 
L 703 3866 
L 703 4441 
L 1819 4666 
L 2450 4666 
L 2450 531 
L 3481 531 
L 3481 0 
L 794 0 
L 794 531 
z
" transform="scale(0.015625)"/>
        <path id="DejaVuSans-30" d="M 2034 4250 
Q 1547 4250 1301 3770 
Q 1056 3291 1056 2328 
Q 1056 1369 1301 889 
Q 1547 409 2034 409 
Q 2525 409 2770 889 
Q 3016 1369 3016 2328 
Q 3016 3291 2770 3770 
Q 2525 4250 2034 4250 
z
M 2034 4750 
Q 2819 4750 3233 4129 
Q 3647 3509 3647 2328 
Q 3647 1150 3233 529 
Q 2819 -91 2034 -91 
Q 1250 -91 836 529 
Q 422 1150 422 2328 
Q 422 3509 836 4129 
Q 1250 4750 2034 4750 
z
" transform="scale(0.015625)"/>
       </defs>
       <use xlink:href="#DejaVuSans-2212"/>
       <use xlink:href="#DejaVuSans-31" x="83.789062"/>
       <use xlink:href="#DejaVuSans-30" x="147.412109"/>
      </g>
     </g>
    </g>
    <g id="xtick_2">
     <g id="line2d_2">
      <g>
       <use xlink:href="#m820a61ea33" x="232.920319" y="295.268719" style="stroke: #000000; stroke-width: 3"/>
      </g>
     </g>
     <g id="text_2">
      <!-- 0 -->
      <g transform="translate(228.148444 318.166375) scale(0.15 -0.15)">
       <use xlink:href="#DejaVuSans-30"/>
      </g>
     </g>
    </g>
    <g id="xtick_3">
     <g id="line2d_3">
      <g>
       <use xlink:href="#m820a61ea33" x="315.489069" y="295.268719" style="stroke: #000000; stroke-width: 3"/>
      </g>
     </g>
     <g id="text_3">
      <!-- 10 -->
      <g transform="translate(305.945319 318.166375) scale(0.15 -0.15)">
       <use xlink:href="#DejaVuSans-31"/>
       <use xlink:href="#DejaVuSans-30" x="63.623047"/>
      </g>
     </g>
    </g>
    <g id="xtick_4">
     <g id="line2d_4">
      <g>
       <use xlink:href="#m820a61ea33" x="398.057819" y="295.268719" style="stroke: #000000; stroke-width: 3"/>
      </g>
     </g>
     <g id="text_4">
      <!-- 20 -->
      <g transform="translate(388.514069 318.166375) scale(0.15 -0.15)">
       <defs>
        <path id="DejaVuSans-32" d="M 1228 531 
L 3431 531 
L 3431 0 
L 469 0 
L 469 531 
Q 828 903 1448 1529 
Q 2069 2156 2228 2338 
Q 2531 2678 2651 2914 
Q 2772 3150 2772 3378 
Q 2772 3750 2511 3984 
Q 2250 4219 1831 4219 
Q 1534 4219 1204 4116 
Q 875 4013 500 3803 
L 500 4441 
Q 881 4594 1212 4672 
Q 1544 4750 1819 4750 
Q 2544 4750 2975 4387 
Q 3406 4025 3406 3419 
Q 3406 3131 3298 2873 
Q 3191 2616 2906 2266 
Q 2828 2175 2409 1742 
Q 1991 1309 1228 531 
z
" transform="scale(0.015625)"/>
       </defs>
       <use xlink:href="#DejaVuSans-32"/>
       <use xlink:href="#DejaVuSans-30" x="63.623047"/>
      </g>
     </g>
    </g>
    <g id="text_5">
     <!-- PCA 1, var 27.34% -->
     <g transform="translate(170.136562 338.20325) scale(0.17 -0.17)">
      <defs>
       <path id="DejaVuSans-50" d="M 1259 4147 
L 1259 2394 
L 2053 2394 
Q 2494 2394 2734 2622 
Q 2975 2850 2975 3272 
Q 2975 3691 2734 3919 
Q 2494 4147 2053 4147 
L 1259 4147 
z
M 628 4666 
L 2053 4666 
Q 2838 4666 3239 4311 
Q 3641 3956 3641 3272 
Q 3641 2581 3239 2228 
Q 2838 1875 2053 1875 
L 1259 1875 
L 1259 0 
L 628 0 
L 628 4666 
z
" transform="scale(0.015625)"/>
       <path id="DejaVuSans-43" d="M 4122 4306 
L 4122 3641 
Q 3803 3938 3442 4084 
Q 3081 4231 2675 4231 
Q 1875 4231 1450 3742 
Q 1025 3253 1025 2328 
Q 1025 1406 1450 917 
Q 1875 428 2675 428 
Q 3081 428 3442 575 
Q 3803 722 4122 1019 
L 4122 359 
Q 3791 134 3420 21 
Q 3050 -91 2638 -91 
Q 1578 -91 968 557 
Q 359 1206 359 2328 
Q 359 3453 968 4101 
Q 1578 4750 2638 4750 
Q 3056 4750 3426 4639 
Q 3797 4528 4122 4306 
z
" transform="scale(0.015625)"/>
       <path id="DejaVuSans-41" d="M 2188 4044 
L 1331 1722 
L 3047 1722 
L 2188 4044 
z
M 1831 4666 
L 2547 4666 
L 4325 0 
L 3669 0 
L 3244 1197 
L 1141 1197 
L 716 0 
L 50 0 
L 1831 4666 
z
" transform="scale(0.015625)"/>
       <path id="DejaVuSans-20" transform="scale(0.015625)"/>
       <path id="DejaVuSans-2c" d="M 750 794 
L 1409 794 
L 1409 256 
L 897 -744 
L 494 -744 
L 750 256 
L 750 794 
z
" transform="scale(0.015625)"/>
       <path id="DejaVuSans-76" d="M 191 3500 
L 800 3500 
L 1894 563 
L 2988 3500 
L 3597 3500 
L 2284 0 
L 1503 0 
L 191 3500 
z
" transform="scale(0.015625)"/>
       <path id="DejaVuSans-61" d="M 2194 1759 
Q 1497 1759 1228 1600 
Q 959 1441 959 1056 
Q 959 750 1161 570 
Q 1363 391 1709 391 
Q 2188 391 2477 730 
Q 2766 1069 2766 1631 
L 2766 1759 
L 2194 1759 
z
M 3341 1997 
L 3341 0 
L 2766 0 
L 2766 531 
Q 2569 213 2275 61 
Q 1981 -91 1556 -91 
Q 1019 -91 701 211 
Q 384 513 384 1019 
Q 384 1609 779 1909 
Q 1175 2209 1959 2209 
L 2766 2209 
L 2766 2266 
Q 2766 2663 2505 2880 
Q 2244 3097 1772 3097 
Q 1472 3097 1187 3025 
Q 903 2953 641 2809 
L 641 3341 
Q 956 3463 1253 3523 
Q 1550 3584 1831 3584 
Q 2591 3584 2966 3190 
Q 3341 2797 3341 1997 
z
" transform="scale(0.015625)"/>
       <path id="DejaVuSans-72" d="M 2631 2963 
Q 2534 3019 2420 3045 
Q 2306 3072 2169 3072 
Q 1681 3072 1420 2755 
Q 1159 2438 1159 1844 
L 1159 0 
L 581 0 
L 581 3500 
L 1159 3500 
L 1159 2956 
Q 1341 3275 1631 3429 
Q 1922 3584 2338 3584 
Q 2397 3584 2469 3576 
Q 2541 3569 2628 3553 
L 2631 2963 
z
" transform="scale(0.015625)"/>
       <path id="DejaVuSans-37" d="M 525 4666 
L 3525 4666 
L 3525 4397 
L 1831 0 
L 1172 0 
L 2766 4134 
L 525 4134 
L 525 4666 
z
" transform="scale(0.015625)"/>
       <path id="DejaVuSans-2e" d="M 684 794 
L 1344 794 
L 1344 0 
L 684 0 
L 684 794 
z
" transform="scale(0.015625)"/>
       <path id="DejaVuSans-33" d="M 2597 2516 
Q 3050 2419 3304 2112 
Q 3559 1806 3559 1356 
Q 3559 666 3084 287 
Q 2609 -91 1734 -91 
Q 1441 -91 1130 -33 
Q 819 25 488 141 
L 488 750 
Q 750 597 1062 519 
Q 1375 441 1716 441 
Q 2309 441 2620 675 
Q 2931 909 2931 1356 
Q 2931 1769 2642 2001 
Q 2353 2234 1838 2234 
L 1294 2234 
L 1294 2753 
L 1863 2753 
Q 2328 2753 2575 2939 
Q 2822 3125 2822 3475 
Q 2822 3834 2567 4026 
Q 2313 4219 1838 4219 
Q 1578 4219 1281 4162 
Q 984 4106 628 3988 
L 628 4550 
Q 988 4650 1302 4700 
Q 1616 4750 1894 4750 
Q 2613 4750 3031 4423 
Q 3450 4097 3450 3541 
Q 3450 3153 3228 2886 
Q 3006 2619 2597 2516 
z
" transform="scale(0.015625)"/>
       <path id="DejaVuSans-34" d="M 2419 4116 
L 825 1625 
L 2419 1625 
L 2419 4116 
z
M 2253 4666 
L 3047 4666 
L 3047 1625 
L 3713 1625 
L 3713 1100 
L 3047 1100 
L 3047 0 
L 2419 0 
L 2419 1100 
L 313 1100 
L 313 1709 
L 2253 4666 
z
" transform="scale(0.015625)"/>
       <path id="DejaVuSans-25" d="M 4653 2053 
Q 4381 2053 4226 1822 
Q 4072 1591 4072 1178 
Q 4072 772 4226 539 
Q 4381 306 4653 306 
Q 4919 306 5073 539 
Q 5228 772 5228 1178 
Q 5228 1588 5073 1820 
Q 4919 2053 4653 2053 
z
M 4653 2450 
Q 5147 2450 5437 2106 
Q 5728 1763 5728 1178 
Q 5728 594 5436 251 
Q 5144 -91 4653 -91 
Q 4153 -91 3862 251 
Q 3572 594 3572 1178 
Q 3572 1766 3864 2108 
Q 4156 2450 4653 2450 
z
M 1428 4353 
Q 1159 4353 1004 4120 
Q 850 3888 850 3481 
Q 850 3069 1003 2837 
Q 1156 2606 1428 2606 
Q 1700 2606 1854 2837 
Q 2009 3069 2009 3481 
Q 2009 3884 1853 4118 
Q 1697 4353 1428 4353 
z
M 4250 4750 
L 4750 4750 
L 1831 -91 
L 1331 -91 
L 4250 4750 
z
M 1428 4750 
Q 1922 4750 2215 4408 
Q 2509 4066 2509 3481 
Q 2509 2891 2217 2550 
Q 1925 2209 1428 2209 
Q 931 2209 642 2551 
Q 353 2894 353 3481 
Q 353 4063 643 4406 
Q 934 4750 1428 4750 
z
" transform="scale(0.015625)"/>
      </defs>
      <use xlink:href="#DejaVuSans-50"/>
      <use xlink:href="#DejaVuSans-43" x="60.302734"/>
      <use xlink:href="#DejaVuSans-41" x="130.126953"/>
      <use xlink:href="#DejaVuSans-20" x="198.535156"/>
      <use xlink:href="#DejaVuSans-31" x="230.322266"/>
      <use xlink:href="#DejaVuSans-2c" x="293.945312"/>
      <use xlink:href="#DejaVuSans-20" x="325.732422"/>
      <use xlink:href="#DejaVuSans-76" x="357.519531"/>
      <use xlink:href="#DejaVuSans-61" x="416.699219"/>
      <use xlink:href="#DejaVuSans-72" x="477.978516"/>
      <use xlink:href="#DejaVuSans-20" x="519.091797"/>
      <use xlink:href="#DejaVuSans-32" x="550.878906"/>
      <use xlink:href="#DejaVuSans-37" x="614.501953"/>
      <use xlink:href="#DejaVuSans-2e" x="678.125"/>
      <use xlink:href="#DejaVuSans-33" x="709.912109"/>
      <use xlink:href="#DejaVuSans-34" x="773.535156"/>
      <use xlink:href="#DejaVuSans-25" x="837.158203"/>
     </g>
    </g>
   </g>
   <g id="matplotlib.axis_2">
    <g id="ytick_1">
     <g id="line2d_5">
      <defs>
       <path id="m927d710c1b" d="M 0 0 
L -8 0 
" style="stroke: #000000; stroke-width: 3"/>
      </defs>
      <g>
       <use xlink:href="#m927d710c1b" x="70.809844" y="291.823639" style="stroke: #000000; stroke-width: 3"/>
      </g>
     </g>
     <g id="text_6">
      <!-- −10 -->
      <g transform="translate(27.652812 297.522467) scale(0.15 -0.15)">
       <use xlink:href="#DejaVuSans-2212"/>
       <use xlink:href="#DejaVuSans-31" x="83.789062"/>
       <use xlink:href="#DejaVuSans-30" x="147.412109"/>
      </g>
     </g>
    </g>
    <g id="ytick_2">
     <g id="line2d_6">
      <g>
       <use xlink:href="#m927d710c1b" x="70.809844" y="256.444375" style="stroke: #000000; stroke-width: 3"/>
      </g>
     </g>
     <g id="text_7">
      <!-- −5 -->
      <g transform="translate(37.196562 262.143203) scale(0.15 -0.15)">
       <defs>
        <path id="DejaVuSans-35" d="M 691 4666 
L 3169 4666 
L 3169 4134 
L 1269 4134 
L 1269 2991 
Q 1406 3038 1543 3061 
Q 1681 3084 1819 3084 
Q 2600 3084 3056 2656 
Q 3513 2228 3513 1497 
Q 3513 744 3044 326 
Q 2575 -91 1722 -91 
Q 1428 -91 1123 -41 
Q 819 9 494 109 
L 494 744 
Q 775 591 1075 516 
Q 1375 441 1709 441 
Q 2250 441 2565 725 
Q 2881 1009 2881 1497 
Q 2881 1984 2565 2268 
Q 2250 2553 1709 2553 
Q 1456 2553 1204 2497 
Q 953 2441 691 2322 
L 691 4666 
z
" transform="scale(0.015625)"/>
       </defs>
       <use xlink:href="#DejaVuSans-2212"/>
       <use xlink:href="#DejaVuSans-35" x="83.789062"/>
      </g>
     </g>
    </g>
    <g id="ytick_3">
     <g id="line2d_7">
      <g>
       <use xlink:href="#m927d710c1b" x="70.809844" y="221.065111" style="stroke: #000000; stroke-width: 3"/>
      </g>
     </g>
     <g id="text_8">
      <!-- 0 -->
      <g transform="translate(49.766094 226.763939) scale(0.15 -0.15)">
       <use xlink:href="#DejaVuSans-30"/>
      </g>
     </g>
    </g>
    <g id="ytick_4">
     <g id="line2d_8">
      <g>
       <use xlink:href="#m927d710c1b" x="70.809844" y="185.685847" style="stroke: #000000; stroke-width: 3"/>
      </g>
     </g>
     <g id="text_9">
      <!-- 5 -->
      <g transform="translate(49.766094 191.384675) scale(0.15 -0.15)">
       <use xlink:href="#DejaVuSans-35"/>
      </g>
     </g>
    </g>
    <g id="ytick_5">
     <g id="line2d_9">
      <g>
       <use xlink:href="#m927d710c1b" x="70.809844" y="150.306583" style="stroke: #000000; stroke-width: 3"/>
      </g>
     </g>
     <g id="text_10">
      <!-- 10 -->
      <g transform="translate(40.222344 156.005411) scale(0.15 -0.15)">
       <use xlink:href="#DejaVuSans-31"/>
       <use xlink:href="#DejaVuSans-30" x="63.623047"/>
      </g>
     </g>
    </g>
    <g id="ytick_6">
     <g id="line2d_10">
      <g>
       <use xlink:href="#m927d710c1b" x="70.809844" y="114.927319" style="stroke: #000000; stroke-width: 3"/>
      </g>
     </g>
     <g id="text_11">
      <!-- 15 -->
      <g transform="translate(40.222344 120.626147) scale(0.15 -0.15)">
       <use xlink:href="#DejaVuSans-31"/>
       <use xlink:href="#DejaVuSans-35" x="63.623047"/>
      </g>
     </g>
    </g>
    <g id="ytick_7">
     <g id="line2d_11">
      <g>
       <use xlink:href="#m927d710c1b" x="70.809844" y="79.548054" style="stroke: #000000; stroke-width: 3"/>
      </g>
     </g>
     <g id="text_12">
      <!-- 20 -->
      <g transform="translate(40.222344 85.246882) scale(0.15 -0.15)">
       <use xlink:href="#DejaVuSans-32"/>
       <use xlink:href="#DejaVuSans-30" x="63.623047"/>
      </g>
     </g>
    </g>
    <g id="ytick_8">
     <g id="line2d_12">
      <g>
       <use xlink:href="#m927d710c1b" x="70.809844" y="44.16879" style="stroke: #000000; stroke-width: 3"/>
      </g>
     </g>
     <g id="text_13">
      <!-- 25 -->
      <g transform="translate(40.222344 49.867618) scale(0.15 -0.15)">
       <use xlink:href="#DejaVuSans-32"/>
       <use xlink:href="#DejaVuSans-35" x="63.623047"/>
      </g>
     </g>
    </g>
    <g id="text_14">
     <!-- PCA 2, var 18.12% -->
     <g transform="translate(20.117344 241.446) rotate(-90) scale(0.17 -0.17)">
      <defs>
       <path id="DejaVuSans-38" d="M 2034 2216 
Q 1584 2216 1326 1975 
Q 1069 1734 1069 1313 
Q 1069 891 1326 650 
Q 1584 409 2034 409 
Q 2484 409 2743 651 
Q 3003 894 3003 1313 
Q 3003 1734 2745 1975 
Q 2488 2216 2034 2216 
z
M 1403 2484 
Q 997 2584 770 2862 
Q 544 3141 544 3541 
Q 544 4100 942 4425 
Q 1341 4750 2034 4750 
Q 2731 4750 3128 4425 
Q 3525 4100 3525 3541 
Q 3525 3141 3298 2862 
Q 3072 2584 2669 2484 
Q 3125 2378 3379 2068 
Q 3634 1759 3634 1313 
Q 3634 634 3220 271 
Q 2806 -91 2034 -91 
Q 1263 -91 848 271 
Q 434 634 434 1313 
Q 434 1759 690 2068 
Q 947 2378 1403 2484 
z
M 1172 3481 
Q 1172 3119 1398 2916 
Q 1625 2713 2034 2713 
Q 2441 2713 2670 2916 
Q 2900 3119 2900 3481 
Q 2900 3844 2670 4047 
Q 2441 4250 2034 4250 
Q 1625 4250 1398 4047 
Q 1172 3844 1172 3481 
z
" transform="scale(0.015625)"/>
      </defs>
      <use xlink:href="#DejaVuSans-50"/>
      <use xlink:href="#DejaVuSans-43" x="60.302734"/>
      <use xlink:href="#DejaVuSans-41" x="130.126953"/>
      <use xlink:href="#DejaVuSans-20" x="198.535156"/>
      <use xlink:href="#DejaVuSans-32" x="230.322266"/>
      <use xlink:href="#DejaVuSans-2c" x="293.945312"/>
      <use xlink:href="#DejaVuSans-20" x="325.732422"/>
      <use xlink:href="#DejaVuSans-76" x="357.519531"/>
      <use xlink:href="#DejaVuSans-61" x="416.699219"/>
      <use xlink:href="#DejaVuSans-72" x="477.978516"/>
      <use xlink:href="#DejaVuSans-20" x="519.091797"/>
      <use xlink:href="#DejaVuSans-31" x="550.878906"/>
      <use xlink:href="#DejaVuSans-38" x="614.501953"/>
      <use xlink:href="#DejaVuSans-2e" x="678.125"/>
      <use xlink:href="#DejaVuSans-31" x="709.912109"/>
      <use xlink:href="#DejaVuSans-32" x="773.535156"/>
      <use xlink:href="#DejaVuSans-25" x="837.158203"/>
     </g>
    </g>
   </g>
   <g id="patch_3">
    <path d="M 70.809844 295.268719 
L 70.809844 29.156719 
" style="fill: none; stroke: #000000; stroke-width: 2; stroke-linejoin: miter; stroke-linecap: square"/>
   </g>
   <g id="patch_4">
    <path d="M 70.809844 295.268719 
L 427.929844 295.268719 
" style="fill: none; stroke: #000000; stroke-width: 2; stroke-linejoin: miter; stroke-linecap: square"/>
   </g>
   <g id="text_15">
    <!-- PCA - Embeddings resp. atom types -->
    <g transform="translate(60.878438 23.156719) scale(0.21 -0.21)">
     <defs>
      <path id="DejaVuSans-2d" d="M 313 2009 
L 1997 2009 
L 1997 1497 
L 313 1497 
L 313 2009 
z
" transform="scale(0.015625)"/>
      <path id="DejaVuSans-45" d="M 628 4666 
L 3578 4666 
L 3578 4134 
L 1259 4134 
L 1259 2753 
L 3481 2753 
L 3481 2222 
L 1259 2222 
L 1259 531 
L 3634 531 
L 3634 0 
L 628 0 
L 628 4666 
z
" transform="scale(0.015625)"/>
      <path id="DejaVuSans-6d" d="M 3328 2828 
Q 3544 3216 3844 3400 
Q 4144 3584 4550 3584 
Q 5097 3584 5394 3201 
Q 5691 2819 5691 2113 
L 5691 0 
L 5113 0 
L 5113 2094 
Q 5113 2597 4934 2840 
Q 4756 3084 4391 3084 
Q 3944 3084 3684 2787 
Q 3425 2491 3425 1978 
L 3425 0 
L 2847 0 
L 2847 2094 
Q 2847 2600 2669 2842 
Q 2491 3084 2119 3084 
Q 1678 3084 1418 2786 
Q 1159 2488 1159 1978 
L 1159 0 
L 581 0 
L 581 3500 
L 1159 3500 
L 1159 2956 
Q 1356 3278 1631 3431 
Q 1906 3584 2284 3584 
Q 2666 3584 2933 3390 
Q 3200 3197 3328 2828 
z
" transform="scale(0.015625)"/>
      <path id="DejaVuSans-62" d="M 3116 1747 
Q 3116 2381 2855 2742 
Q 2594 3103 2138 3103 
Q 1681 3103 1420 2742 
Q 1159 2381 1159 1747 
Q 1159 1113 1420 752 
Q 1681 391 2138 391 
Q 2594 391 2855 752 
Q 3116 1113 3116 1747 
z
M 1159 2969 
Q 1341 3281 1617 3432 
Q 1894 3584 2278 3584 
Q 2916 3584 3314 3078 
Q 3713 2572 3713 1747 
Q 3713 922 3314 415 
Q 2916 -91 2278 -91 
Q 1894 -91 1617 61 
Q 1341 213 1159 525 
L 1159 0 
L 581 0 
L 581 4863 
L 1159 4863 
L 1159 2969 
z
" transform="scale(0.015625)"/>
      <path id="DejaVuSans-65" d="M 3597 1894 
L 3597 1613 
L 953 1613 
Q 991 1019 1311 708 
Q 1631 397 2203 397 
Q 2534 397 2845 478 
Q 3156 559 3463 722 
L 3463 178 
Q 3153 47 2828 -22 
Q 2503 -91 2169 -91 
Q 1331 -91 842 396 
Q 353 884 353 1716 
Q 353 2575 817 3079 
Q 1281 3584 2069 3584 
Q 2775 3584 3186 3129 
Q 3597 2675 3597 1894 
z
M 3022 2063 
Q 3016 2534 2758 2815 
Q 2500 3097 2075 3097 
Q 1594 3097 1305 2825 
Q 1016 2553 972 2059 
L 3022 2063 
z
" transform="scale(0.015625)"/>
      <path id="DejaVuSans-64" d="M 2906 2969 
L 2906 4863 
L 3481 4863 
L 3481 0 
L 2906 0 
L 2906 525 
Q 2725 213 2448 61 
Q 2172 -91 1784 -91 
Q 1150 -91 751 415 
Q 353 922 353 1747 
Q 353 2572 751 3078 
Q 1150 3584 1784 3584 
Q 2172 3584 2448 3432 
Q 2725 3281 2906 2969 
z
M 947 1747 
Q 947 1113 1208 752 
Q 1469 391 1925 391 
Q 2381 391 2643 752 
Q 2906 1113 2906 1747 
Q 2906 2381 2643 2742 
Q 2381 3103 1925 3103 
Q 1469 3103 1208 2742 
Q 947 2381 947 1747 
z
" transform="scale(0.015625)"/>
      <path id="DejaVuSans-69" d="M 603 3500 
L 1178 3500 
L 1178 0 
L 603 0 
L 603 3500 
z
M 603 4863 
L 1178 4863 
L 1178 4134 
L 603 4134 
L 603 4863 
z
" transform="scale(0.015625)"/>
      <path id="DejaVuSans-6e" d="M 3513 2113 
L 3513 0 
L 2938 0 
L 2938 2094 
Q 2938 2591 2744 2837 
Q 2550 3084 2163 3084 
Q 1697 3084 1428 2787 
Q 1159 2491 1159 1978 
L 1159 0 
L 581 0 
L 581 3500 
L 1159 3500 
L 1159 2956 
Q 1366 3272 1645 3428 
Q 1925 3584 2291 3584 
Q 2894 3584 3203 3211 
Q 3513 2838 3513 2113 
z
" transform="scale(0.015625)"/>
      <path id="DejaVuSans-67" d="M 2906 1791 
Q 2906 2416 2648 2759 
Q 2391 3103 1925 3103 
Q 1463 3103 1205 2759 
Q 947 2416 947 1791 
Q 947 1169 1205 825 
Q 1463 481 1925 481 
Q 2391 481 2648 825 
Q 2906 1169 2906 1791 
z
M 3481 434 
Q 3481 -459 3084 -895 
Q 2688 -1331 1869 -1331 
Q 1566 -1331 1297 -1286 
Q 1028 -1241 775 -1147 
L 775 -588 
Q 1028 -725 1275 -790 
Q 1522 -856 1778 -856 
Q 2344 -856 2625 -561 
Q 2906 -266 2906 331 
L 2906 616 
Q 2728 306 2450 153 
Q 2172 0 1784 0 
Q 1141 0 747 490 
Q 353 981 353 1791 
Q 353 2603 747 3093 
Q 1141 3584 1784 3584 
Q 2172 3584 2450 3431 
Q 2728 3278 2906 2969 
L 2906 3500 
L 3481 3500 
L 3481 434 
z
" transform="scale(0.015625)"/>
      <path id="DejaVuSans-73" d="M 2834 3397 
L 2834 2853 
Q 2591 2978 2328 3040 
Q 2066 3103 1784 3103 
Q 1356 3103 1142 2972 
Q 928 2841 928 2578 
Q 928 2378 1081 2264 
Q 1234 2150 1697 2047 
L 1894 2003 
Q 2506 1872 2764 1633 
Q 3022 1394 3022 966 
Q 3022 478 2636 193 
Q 2250 -91 1575 -91 
Q 1294 -91 989 -36 
Q 684 19 347 128 
L 347 722 
Q 666 556 975 473 
Q 1284 391 1588 391 
Q 1994 391 2212 530 
Q 2431 669 2431 922 
Q 2431 1156 2273 1281 
Q 2116 1406 1581 1522 
L 1381 1569 
Q 847 1681 609 1914 
Q 372 2147 372 2553 
Q 372 3047 722 3315 
Q 1072 3584 1716 3584 
Q 2034 3584 2315 3537 
Q 2597 3491 2834 3397 
z
" transform="scale(0.015625)"/>
      <path id="DejaVuSans-70" d="M 1159 525 
L 1159 -1331 
L 581 -1331 
L 581 3500 
L 1159 3500 
L 1159 2969 
Q 1341 3281 1617 3432 
Q 1894 3584 2278 3584 
Q 2916 3584 3314 3078 
Q 3713 2572 3713 1747 
Q 3713 922 3314 415 
Q 2916 -91 2278 -91 
Q 1894 -91 1617 61 
Q 1341 213 1159 525 
z
M 3116 1747 
Q 3116 2381 2855 2742 
Q 2594 3103 2138 3103 
Q 1681 3103 1420 2742 
Q 1159 2381 1159 1747 
Q 1159 1113 1420 752 
Q 1681 391 2138 391 
Q 2594 391 2855 752 
Q 3116 1113 3116 1747 
z
" transform="scale(0.015625)"/>
      <path id="DejaVuSans-74" d="M 1172 4494 
L 1172 3500 
L 2356 3500 
L 2356 3053 
L 1172 3053 
L 1172 1153 
Q 1172 725 1289 603 
Q 1406 481 1766 481 
L 2356 481 
L 2356 0 
L 1766 0 
Q 1100 0 847 248 
Q 594 497 594 1153 
L 594 3053 
L 172 3053 
L 172 3500 
L 594 3500 
L 594 4494 
L 1172 4494 
z
" transform="scale(0.015625)"/>
      <path id="DejaVuSans-6f" d="M 1959 3097 
Q 1497 3097 1228 2736 
Q 959 2375 959 1747 
Q 959 1119 1226 758 
Q 1494 397 1959 397 
Q 2419 397 2687 759 
Q 2956 1122 2956 1747 
Q 2956 2369 2687 2733 
Q 2419 3097 1959 3097 
z
M 1959 3584 
Q 2709 3584 3137 3096 
Q 3566 2609 3566 1747 
Q 3566 888 3137 398 
Q 2709 -91 1959 -91 
Q 1206 -91 779 398 
Q 353 888 353 1747 
Q 353 2609 779 3096 
Q 1206 3584 1959 3584 
z
" transform="scale(0.015625)"/>
      <path id="DejaVuSans-79" d="M 2059 -325 
Q 1816 -950 1584 -1140 
Q 1353 -1331 966 -1331 
L 506 -1331 
L 506 -850 
L 844 -850 
Q 1081 -850 1212 -737 
Q 1344 -625 1503 -206 
L 1606 56 
L 191 3500 
L 800 3500 
L 1894 763 
L 2988 3500 
L 3597 3500 
L 2059 -325 
z
" transform="scale(0.015625)"/>
     </defs>
     <use xlink:href="#DejaVuSans-50"/>
     <use xlink:href="#DejaVuSans-43" x="60.302734"/>
     <use xlink:href="#DejaVuSans-41" x="130.126953"/>
     <use xlink:href="#DejaVuSans-20" x="198.535156"/>
     <use xlink:href="#DejaVuSans-2d" x="230.322266"/>
     <use xlink:href="#DejaVuSans-20" x="266.40625"/>
     <use xlink:href="#DejaVuSans-45" x="298.193359"/>
     <use xlink:href="#DejaVuSans-6d" x="361.376953"/>
     <use xlink:href="#DejaVuSans-62" x="458.789062"/>
     <use xlink:href="#DejaVuSans-65" x="522.265625"/>
     <use xlink:href="#DejaVuSans-64" x="583.789062"/>
     <use xlink:href="#DejaVuSans-64" x="647.265625"/>
     <use xlink:href="#DejaVuSans-69" x="710.742188"/>
     <use xlink:href="#DejaVuSans-6e" x="738.525391"/>
     <use xlink:href="#DejaVuSans-67" x="801.904297"/>
     <use xlink:href="#DejaVuSans-73" x="865.380859"/>
     <use xlink:href="#DejaVuSans-20" x="917.480469"/>
     <use xlink:href="#DejaVuSans-72" x="949.267578"/>
     <use xlink:href="#DejaVuSans-65" x="988.130859"/>
     <use xlink:href="#DejaVuSans-73" x="1049.654297"/>
     <use xlink:href="#DejaVuSans-70" x="1101.753906"/>
     <use xlink:href="#DejaVuSans-2e" x="1165.230469"/>
     <use xlink:href="#DejaVuSans-20" x="1197.017578"/>
     <use xlink:href="#DejaVuSans-61" x="1228.804688"/>
     <use xlink:href="#DejaVuSans-74" x="1290.083984"/>
     <use xlink:href="#DejaVuSans-6f" x="1329.292969"/>
     <use xlink:href="#DejaVuSans-6d" x="1390.474609"/>
     <use xlink:href="#DejaVuSans-20" x="1487.886719"/>
     <use xlink:href="#DejaVuSans-74" x="1519.673828"/>
     <use xlink:href="#DejaVuSans-79" x="1558.882812"/>
     <use xlink:href="#DejaVuSans-70" x="1618.0625"/>
     <use xlink:href="#DejaVuSans-65" x="1681.539062"/>
     <use xlink:href="#DejaVuSans-73" x="1743.0625"/>
    </g>
   </g>
   <g id="legend_1">
    <g id="patch_5">
     <path d="M 433.181694 186.897719 
L 468.755444 186.897719 
Q 470.355444 186.897719 470.355444 185.297719 
L 470.355444 139.127719 
Q 470.355444 137.527719 468.755444 137.527719 
L 433.181694 137.527719 
Q 431.581694 137.527719 431.581694 139.127719 
L 431.581694 185.297719 
Q 431.581694 186.897719 433.181694 186.897719 
z
" style="fill: #ffffff; opacity: 0.8; stroke: #cccccc; stroke-linejoin: miter"/>
    </g>
    <g id="line2d_13">
     <path d="M 434.781694 144.006469 
L 442.781694 144.006469 
L 450.781694 144.006469 
" style="fill: none; stroke: #ffffff; stroke-width: 1.5; stroke-linecap: square"/>
     <defs>
      <path id="mfe0586556a" d="M 0 4.5 
C 1.193414 4.5 2.338109 4.025852 3.181981 3.181981 
C 4.025852 2.338109 4.5 1.193414 4.5 0 
C 4.5 -1.193414 4.025852 -2.338109 3.181981 -3.181981 
C 2.338109 -4.025852 1.193414 -4.5 0 -4.5 
C -1.193414 -4.5 -2.338109 -4.025852 -3.181981 -3.181981 
C -4.025852 -2.338109 -4.5 -1.193414 -4.5 0 
C -4.5 1.193414 -4.025852 2.338109 -3.181981 3.181981 
C -2.338109 4.025852 -1.193414 4.5 0 4.5 
z
" style="stroke: #ffffff"/>
     </defs>
     <g>
      <use xlink:href="#mfe0586556a" x="442.781694" y="144.006469" style="fill: #e6194b; stroke: #ffffff"/>
     </g>
    </g>
    <g id="text_16">
     <!-- o -->
     <g transform="translate(457.181694 146.806469) scale(0.08 -0.08)">
      <use xlink:href="#DejaVuSans-6f"/>
     </g>
    </g>
    <g id="line2d_14">
     <path d="M 434.781694 155.748969 
L 442.781694 155.748969 
L 450.781694 155.748969 
" style="fill: none; stroke: #ffffff; stroke-width: 1.5; stroke-linecap: square"/>
     <defs>
      <path id="mf0d07d5b57" d="M 0 4.5 
C 1.193414 4.5 2.338109 4.025852 3.181981 3.181981 
C 4.025852 2.338109 4.5 1.193414 4.5 0 
C 4.5 -1.193414 4.025852 -2.338109 3.181981 -3.181981 
C 2.338109 -4.025852 1.193414 -4.5 0 -4.5 
C -1.193414 -4.5 -2.338109 -4.025852 -3.181981 -3.181981 
C -4.025852 -2.338109 -4.5 -1.193414 -4.5 0 
C -4.5 1.193414 -4.025852 2.338109 -3.181981 3.181981 
C -2.338109 4.025852 -1.193414 4.5 0 4.5 
z
" style="stroke: #ffffff"/>
     </defs>
     <g>
      <use xlink:href="#mf0d07d5b57" x="442.781694" y="155.748969" style="fill: #3cb44b; stroke: #ffffff"/>
     </g>
    </g>
    <g id="text_17">
     <!-- oh -->
     <g transform="translate(457.181694 158.548969) scale(0.08 -0.08)">
      <defs>
       <path id="DejaVuSans-68" d="M 3513 2113 
L 3513 0 
L 2938 0 
L 2938 2094 
Q 2938 2591 2744 2837 
Q 2550 3084 2163 3084 
Q 1697 3084 1428 2787 
Q 1159 2491 1159 1978 
L 1159 0 
L 581 0 
L 581 4863 
L 1159 4863 
L 1159 2956 
Q 1366 3272 1645 3428 
Q 1925 3584 2291 3584 
Q 2894 3584 3203 3211 
Q 3513 2838 3513 2113 
z
" transform="scale(0.015625)"/>
      </defs>
      <use xlink:href="#DejaVuSans-6f"/>
      <use xlink:href="#DejaVuSans-68" x="61.181641"/>
     </g>
    </g>
    <g id="line2d_15">
     <path d="M 434.781694 167.491469 
L 442.781694 167.491469 
L 450.781694 167.491469 
" style="fill: none; stroke: #ffffff; stroke-width: 1.5; stroke-linecap: square"/>
     <defs>
      <path id="m339a4c9bdb" d="M 0 4.5 
C 1.193414 4.5 2.338109 4.025852 3.181981 3.181981 
C 4.025852 2.338109 4.5 1.193414 4.5 0 
C 4.5 -1.193414 4.025852 -2.338109 3.181981 -3.181981 
C 2.338109 -4.025852 1.193414 -4.5 0 -4.5 
C -1.193414 -4.5 -2.338109 -4.025852 -3.181981 -3.181981 
C -4.025852 -2.338109 -4.5 -1.193414 -4.5 0 
C -4.5 1.193414 -4.025852 2.338109 -3.181981 3.181981 
C -2.338109 4.025852 -1.193414 4.5 0 4.5 
z
" style="stroke: #ffffff"/>
     </defs>
     <g>
      <use xlink:href="#m339a4c9bdb" x="442.781694" y="167.491469" style="fill: #ffe119; stroke: #ffffff"/>
     </g>
    </g>
    <g id="text_18">
     <!-- op -->
     <g transform="translate(457.181694 170.291469) scale(0.08 -0.08)">
      <use xlink:href="#DejaVuSans-6f"/>
      <use xlink:href="#DejaVuSans-70" x="61.181641"/>
     </g>
    </g>
    <g id="line2d_16">
     <path d="M 434.781694 179.233969 
L 442.781694 179.233969 
L 450.781694 179.233969 
" style="fill: none; stroke: #ffffff; stroke-width: 1.5; stroke-linecap: square"/>
     <defs>
      <path id="md21f488121" d="M 0 4.5 
C 1.193414 4.5 2.338109 4.025852 3.181981 3.181981 
C 4.025852 2.338109 4.5 1.193414 4.5 0 
C 4.5 -1.193414 4.025852 -2.338109 3.181981 -3.181981 
C 2.338109 -4.025852 1.193414 -4.5 0 -4.5 
C -1.193414 -4.5 -2.338109 -4.025852 -3.181981 -3.181981 
C -4.025852 -2.338109 -4.5 -1.193414 -4.5 0 
C -4.5 1.193414 -4.025852 2.338109 -3.181981 3.181981 
C -2.338109 4.025852 -1.193414 4.5 0 4.5 
z
" style="stroke: #ffffff"/>
     </defs>
     <g>
      <use xlink:href="#md21f488121" x="442.781694" y="179.233969" style="fill: #4363d8; stroke: #ffffff"/>
     </g>
    </g>
    <g id="text_19">
     <!-- os -->
     <g transform="translate(457.181694 182.033969) scale(0.08 -0.08)">
      <use xlink:href="#DejaVuSans-6f"/>
      <use xlink:href="#DejaVuSans-73" x="61.181641"/>
     </g>
    </g>
   </g>
  </g>
 </g>
 <defs>
  <clipPath id="p5a7aaf6dcf">
   <rect x="70.809844" y="29.156719" width="357.12" height="266.112"/>
  </clipPath>
 </defs>
</svg>
