<?xml version="1.0" encoding="utf-8" standalone="no"?>
<!DOCTYPE svg PUBLIC "-//W3C//DTD SVG 1.1//EN"
  "http://www.w3.org/Graphics/SVG/1.1/DTD/svg11.dtd">
<svg xmlns:xlink="http://www.w3.org/1999/xlink" width="252.366934pt" height="238.655059pt" viewBox="0 0 252.366934 238.655059" xmlns="http://www.w3.org/2000/svg" version="1.1">
 <metadata>
  <rdf:RDF xmlns:dc="http://purl.org/dc/elements/1.1/" xmlns:cc="http://creativecommons.org/ns#" xmlns:rdf="http://www.w3.org/1999/02/22-rdf-syntax-ns#">
   <cc:Work>
    <dc:type rdf:resource="http://purl.org/dc/dcmitype/StillImage"/>
    <dc:date>2025-08-27T10:55:17.982314</dc:date>
    <dc:format>image/svg+xml</dc:format>
    <dc:creator>
     <cc:Agent>
      <dc:title>Matplotlib v3.6.2, https://matplotlib.org/</dc:title>
     </cc:Agent>
    </dc:creator>
   </cc:Work>
  </rdf:RDF>
 </metadata>
 <defs>
  <style type="text/css">*{stroke-linejoin: round; stroke-linecap: butt}</style>
 </defs>
 <g id="figure_1">
  <g id="patch_1">
   <path d="M 0 238.655059 
L 252.366934 238.655059 
L 252.366934 0 
L 0 0 
L 0 238.655059 
z
" style="fill: none"/>
  </g>
  <g id="axes_1">
   <g id="patch_2">
    <path d="M 59.639375 192.727559 
L 245.166934 192.727559 
L 245.166934 7.2 
L 59.639375 7.2 
L 59.639375 192.727559 
z
" style="fill: none"/>
   </g>
   <g id="PathCollection_1">
    <path d="M 232.032988 162.400744 
L 233.832988 159.400744 
L 232.032988 156.400744 
L 230.232988 159.400744 
z
" clip-path="url(#p9cae5561a4)" style="fill: #332288; fill-opacity: 0.6; stroke: #ffffff; stroke-opacity: 0.6; stroke-width: 0.339411"/>
    <path d="M 136.34197 64.309522 
L 138.14197 61.309522 
L 136.34197 58.309522 
L 134.54197 61.309522 
z
" clip-path="url(#p9cae5561a4)" style="fill: #332288; fill-opacity: 0.6; stroke: #ffffff; stroke-opacity: 0.6; stroke-width: 0.339411"/>
    <path d="M 229.28567 141.84879 
L 231.08567 138.84879 
L 229.28567 135.84879 
L 227.48567 138.84879 
z
" clip-path="url(#p9cae5561a4)" style="fill: #332288; fill-opacity: 0.6; stroke: #ffffff; stroke-opacity: 0.6; stroke-width: 0.339411"/>
    <path d="M 115.568155 73.563279 
L 117.368155 70.563279 
L 115.568155 67.563279 
L 113.768155 70.563279 
z
" clip-path="url(#p9cae5561a4)" style="fill: #332288; fill-opacity: 0.6; stroke: #ffffff; stroke-opacity: 0.6; stroke-width: 0.339411"/>
    <path d="M 143.516587 66.345592 
L 145.316587 63.345592 
L 143.516587 60.345592 
L 141.716587 63.345592 
z
" clip-path="url(#p9cae5561a4)" style="fill: #332288; fill-opacity: 0.6; stroke: #ffffff; stroke-opacity: 0.6; stroke-width: 0.339411"/>
    <path d="M 136.600832 70.623938 
L 138.400832 67.623938 
L 136.600832 64.623938 
L 134.800832 67.623938 
z
" clip-path="url(#p9cae5561a4)" style="fill: #332288; fill-opacity: 0.6; stroke: #ffffff; stroke-opacity: 0.6; stroke-width: 0.339411"/>
    <path d="M 225.207404 148.812568 
L 227.007404 145.812568 
L 225.207404 142.812568 
L 223.407404 145.812568 
z
" clip-path="url(#p9cae5561a4)" style="fill: #332288; fill-opacity: 0.6; stroke: #ffffff; stroke-opacity: 0.6; stroke-width: 0.339411"/>
    <path d="M 112.319108 74.552346 
L 114.119108 71.552346 
L 112.319108 68.552346 
L 110.519108 71.552346 
z
" clip-path="url(#p9cae5561a4)" style="fill: #332288; fill-opacity: 0.6; stroke: #ffffff; stroke-opacity: 0.6; stroke-width: 0.339411"/>
    <path d="M 229.65458 141.502498 
L 231.45458 138.502498 
L 229.65458 135.502498 
L 227.85458 138.502498 
z
" clip-path="url(#p9cae5561a4)" style="fill: #332288; fill-opacity: 0.6; stroke: #ffffff; stroke-opacity: 0.6; stroke-width: 0.339411"/>
    <path d="M 121.014245 73.731915 
L 122.814245 70.731915 
L 121.014245 67.731915 
L 119.214245 70.731915 
z
" clip-path="url(#p9cae5561a4)" style="fill: #332288; fill-opacity: 0.6; stroke: #ffffff; stroke-opacity: 0.6; stroke-width: 0.339411"/>
    <path d="M 135.115922 83.41602 
L 136.915922 80.41602 
L 135.115922 77.41602 
L 133.315922 80.41602 
z
" clip-path="url(#p9cae5561a4)" style="fill: #332288; fill-opacity: 0.6; stroke: #ffffff; stroke-opacity: 0.6; stroke-width: 0.339411"/>
    <path d="M 190.797526 113.434961 
L 192.597526 110.434961 
L 190.797526 107.434961 
L 188.997526 110.434961 
z
" clip-path="url(#p9cae5561a4)" style="fill: #332288; fill-opacity: 0.6; stroke: #ffffff; stroke-opacity: 0.6; stroke-width: 0.339411"/>
    <path d="M 174.395909 96.347956 
L 176.195909 93.347956 
L 174.395909 90.347956 
L 172.595909 93.347956 
z
" clip-path="url(#p9cae5561a4)" style="fill: #332288; fill-opacity: 0.6; stroke: #ffffff; stroke-opacity: 0.6; stroke-width: 0.339411"/>
    <path d="M 190.577423 113.407712 
L 192.377423 110.407712 
L 190.577423 107.407712 
L 188.777423 110.407712 
z
" clip-path="url(#p9cae5561a4)" style="fill: #332288; fill-opacity: 0.6; stroke: #ffffff; stroke-opacity: 0.6; stroke-width: 0.339411"/>
    <path d="M 221.883762 125.875604 
L 223.683762 122.875604 
L 221.883762 119.875604 
L 220.083762 122.875604 
z
" clip-path="url(#p9cae5561a4)" style="fill: #332288; fill-opacity: 0.6; stroke: #ffffff; stroke-opacity: 0.6; stroke-width: 0.339411"/>
    <path d="M 223.615565 142.404021 
L 225.415565 139.404021 
L 223.615565 136.404021 
L 221.815565 139.404021 
z
" clip-path="url(#p9cae5561a4)" style="fill: #332288; fill-opacity: 0.6; stroke: #ffffff; stroke-opacity: 0.6; stroke-width: 0.339411"/>
    <path d="M 169.023656 109.277217 
L 170.823656 106.277217 
L 169.023656 103.277217 
L 167.223656 106.277217 
z
" clip-path="url(#p9cae5561a4)" style="fill: #332288; fill-opacity: 0.6; stroke: #ffffff; stroke-opacity: 0.6; stroke-width: 0.339411"/>
    <path d="M 137.430731 72.584933 
L 139.230731 69.584933 
L 137.430731 66.584933 
L 135.630731 69.584933 
z
" clip-path="url(#p9cae5561a4)" style="fill: #332288; fill-opacity: 0.6; stroke: #ffffff; stroke-opacity: 0.6; stroke-width: 0.339411"/>
    <path d="M 195.073441 151.066292 
L 196.873441 148.066292 
L 195.073441 145.066292 
L 193.273441 148.066292 
z
" clip-path="url(#p9cae5561a4)" style="fill: #332288; fill-opacity: 0.6; stroke: #ffffff; stroke-opacity: 0.6; stroke-width: 0.339411"/>
    <path d="M 168.884618 95.341702 
L 170.684618 92.341702 
L 168.884618 89.341702 
L 167.084618 92.341702 
z
" clip-path="url(#p9cae5561a4)" style="fill: #332288; fill-opacity: 0.6; stroke: #ffffff; stroke-opacity: 0.6; stroke-width: 0.339411"/>
    <path d="M 145.185088 68.069603 
L 146.985088 65.069603 
L 145.185088 62.069603 
L 143.385088 65.069603 
z
" clip-path="url(#p9cae5561a4)" style="fill: #332288; fill-opacity: 0.6; stroke: #ffffff; stroke-opacity: 0.6; stroke-width: 0.339411"/>
    <path d="M 103.110001 90.553601 
L 104.910001 87.553601 
L 103.110001 84.553601 
L 101.310001 87.553601 
z
" clip-path="url(#p9cae5561a4)" style="fill: #332288; fill-opacity: 0.6; stroke: #ffffff; stroke-opacity: 0.6; stroke-width: 0.339411"/>
    <path d="M 179.637131 102.700445 
L 181.437131 99.700445 
L 179.637131 96.700445 
L 177.837131 99.700445 
z
" clip-path="url(#p9cae5561a4)" style="fill: #332288; fill-opacity: 0.6; stroke: #ffffff; stroke-opacity: 0.6; stroke-width: 0.339411"/>
    <path d="M 211.791942 101.113853 
L 213.591942 98.113853 
L 211.791942 95.113853 
L 209.991942 98.113853 
z
" clip-path="url(#p9cae5561a4)" style="fill: #332288; fill-opacity: 0.6; stroke: #ffffff; stroke-opacity: 0.6; stroke-width: 0.339411"/>
    <path d="M 229.074247 151.670339 
L 230.874247 148.670339 
L 229.074247 145.670339 
L 227.274247 148.670339 
z
" clip-path="url(#p9cae5561a4)" style="fill: #332288; fill-opacity: 0.6; stroke: #ffffff; stroke-opacity: 0.6; stroke-width: 0.339411"/>
    <path d="M 157.080015 73.405857 
L 158.880015 70.405857 
L 157.080015 67.405857 
L 155.280015 70.405857 
z
" clip-path="url(#p9cae5561a4)" style="fill: #332288; fill-opacity: 0.6; stroke: #ffffff; stroke-opacity: 0.6; stroke-width: 0.339411"/>
    <path d="M 225.496525 147.796428 
L 227.296525 144.796428 
L 225.496525 141.796428 
L 223.696525 144.796428 
z
" clip-path="url(#p9cae5561a4)" style="fill: #332288; fill-opacity: 0.6; stroke: #ffffff; stroke-opacity: 0.6; stroke-width: 0.339411"/>
    <path d="M 215.750844 128.838001 
L 217.550844 125.838001 
L 215.750844 122.838001 
L 213.950844 125.838001 
z
" clip-path="url(#p9cae5561a4)" style="fill: #332288; fill-opacity: 0.6; stroke: #ffffff; stroke-opacity: 0.6; stroke-width: 0.339411"/>
    <path d="M 228.855506 151.344934 
L 230.655506 148.344934 
L 228.855506 145.344934 
L 227.055506 148.344934 
z
" clip-path="url(#p9cae5561a4)" style="fill: #332288; fill-opacity: 0.6; stroke: #ffffff; stroke-opacity: 0.6; stroke-width: 0.339411"/>
    <path d="M 159.085923 72.865276 
L 160.885923 69.865276 
L 159.085923 66.865276 
L 157.285923 69.865276 
z
" clip-path="url(#p9cae5561a4)" style="fill: #332288; fill-opacity: 0.6; stroke: #ffffff; stroke-opacity: 0.6; stroke-width: 0.339411"/>
    <path d="M 184.385076 121.538158 
L 186.185076 118.538158 
L 184.385076 115.538158 
L 182.585076 118.538158 
z
" clip-path="url(#p9cae5561a4)" style="fill: #332288; fill-opacity: 0.6; stroke: #ffffff; stroke-opacity: 0.6; stroke-width: 0.339411"/>
    <path d="M 226.343107 149.364798 
L 228.143107 146.364798 
L 226.343107 143.364798 
L 224.543107 146.364798 
z
" clip-path="url(#p9cae5561a4)" style="fill: #332288; fill-opacity: 0.6; stroke: #ffffff; stroke-opacity: 0.6; stroke-width: 0.339411"/>
    <path d="M 108.52867 113.42095 
L 110.32867 110.42095 
L 108.52867 107.42095 
L 106.72867 110.42095 
z
" clip-path="url(#p9cae5561a4)" style="fill: #332288; fill-opacity: 0.6; stroke: #ffffff; stroke-opacity: 0.6; stroke-width: 0.339411"/>
    <path d="M 194.803119 75.539526 
L 196.603119 72.539526 
L 194.803119 69.539526 
L 193.003119 72.539526 
z
" clip-path="url(#p9cae5561a4)" style="fill: #332288; fill-opacity: 0.6; stroke: #ffffff; stroke-opacity: 0.6; stroke-width: 0.339411"/>
    <path d="M 178.696025 103.042852 
L 180.496025 100.042852 
L 178.696025 97.042852 
L 176.896025 100.042852 
z
" clip-path="url(#p9cae5561a4)" style="fill: #332288; fill-opacity: 0.6; stroke: #ffffff; stroke-opacity: 0.6; stroke-width: 0.339411"/>
    <path d="M 153.522582 77.328326 
L 155.322582 74.328326 
L 153.522582 71.328326 
L 151.722582 74.328326 
z
" clip-path="url(#p9cae5561a4)" style="fill: #332288; fill-opacity: 0.6; stroke: #ffffff; stroke-opacity: 0.6; stroke-width: 0.339411"/>
    <path d="M 123.102476 64.183663 
L 124.902476 61.183663 
L 123.102476 58.183663 
L 121.302476 61.183663 
z
" clip-path="url(#p9cae5561a4)" style="fill: #332288; fill-opacity: 0.6; stroke: #ffffff; stroke-opacity: 0.6; stroke-width: 0.339411"/>
    <path d="M 224.896566 130.308834 
L 226.696566 127.308834 
L 224.896566 124.308834 
L 223.096566 127.308834 
z
" clip-path="url(#p9cae5561a4)" style="fill: #332288; fill-opacity: 0.6; stroke: #ffffff; stroke-opacity: 0.6; stroke-width: 0.339411"/>
    <path d="M 225.719378 147.673507 
L 227.519378 144.673507 
L 225.719378 141.673507 
L 223.919378 144.673507 
z
" clip-path="url(#p9cae5561a4)" style="fill: #332288; fill-opacity: 0.6; stroke: #ffffff; stroke-opacity: 0.6; stroke-width: 0.339411"/>
    <path d="M 186.223758 118.024047 
L 188.023758 115.024047 
L 186.223758 112.024047 
L 184.423758 115.024047 
z
" clip-path="url(#p9cae5561a4)" style="fill: #332288; fill-opacity: 0.6; stroke: #ffffff; stroke-opacity: 0.6; stroke-width: 0.339411"/>
    <path d="M 231.222678 151.526024 
L 233.022678 148.526024 
L 231.222678 145.526024 
L 229.422678 148.526024 
z
" clip-path="url(#p9cae5561a4)" style="fill: #332288; fill-opacity: 0.6; stroke: #ffffff; stroke-opacity: 0.6; stroke-width: 0.339411"/>
    <path d="M 229.244282 141.953017 
L 231.044282 138.953017 
L 229.244282 135.953017 
L 227.444282 138.953017 
z
" clip-path="url(#p9cae5561a4)" style="fill: #332288; fill-opacity: 0.6; stroke: #ffffff; stroke-opacity: 0.6; stroke-width: 0.339411"/>
    <path d="M 186.336193 119.989425 
L 188.136193 116.989425 
L 186.336193 113.989425 
L 184.536193 116.989425 
z
" clip-path="url(#p9cae5561a4)" style="fill: #332288; fill-opacity: 0.6; stroke: #ffffff; stroke-opacity: 0.6; stroke-width: 0.339411"/>
    <path d="M 197.549038 140.649039 
L 199.349038 137.649039 
L 197.549038 134.649039 
L 195.749038 137.649039 
z
" clip-path="url(#p9cae5561a4)" style="fill: #332288; fill-opacity: 0.6; stroke: #ffffff; stroke-opacity: 0.6; stroke-width: 0.339411"/>
    <path d="M 168.396673 101.054487 
L 170.196673 98.054487 
L 168.396673 95.054487 
L 166.596673 98.054487 
z
" clip-path="url(#p9cae5561a4)" style="fill: #332288; fill-opacity: 0.6; stroke: #ffffff; stroke-opacity: 0.6; stroke-width: 0.339411"/>
    <path d="M 194.163009 154.738263 
L 195.963009 151.738263 
L 194.163009 148.738263 
L 192.363009 151.738263 
z
" clip-path="url(#p9cae5561a4)" style="fill: #332288; fill-opacity: 0.6; stroke: #ffffff; stroke-opacity: 0.6; stroke-width: 0.339411"/>
    <path d="M 229.042801 159.312973 
L 230.842801 156.312973 
L 229.042801 153.312973 
L 227.242801 156.312973 
z
" clip-path="url(#p9cae5561a4)" style="fill: #332288; fill-opacity: 0.6; stroke: #ffffff; stroke-opacity: 0.6; stroke-width: 0.339411"/>
    <path d="M 127.601278 65.679627 
L 129.401278 62.679627 
L 127.601278 59.679627 
L 125.801278 62.679627 
z
" clip-path="url(#p9cae5561a4)" style="fill: #332288; fill-opacity: 0.6; stroke: #ffffff; stroke-opacity: 0.6; stroke-width: 0.339411"/>
    <path d="M 144.957565 67.976986 
L 146.757565 64.976986 
L 144.957565 61.976986 
L 143.157565 64.976986 
z
" clip-path="url(#p9cae5561a4)" style="fill: #332288; fill-opacity: 0.6; stroke: #ffffff; stroke-opacity: 0.6; stroke-width: 0.339411"/>
    <path d="M 229.262074 158.772143 
L 231.062074 155.772143 
L 229.262074 152.772143 
L 227.462074 155.772143 
z
" clip-path="url(#p9cae5561a4)" style="fill: #332288; fill-opacity: 0.6; stroke: #ffffff; stroke-opacity: 0.6; stroke-width: 0.339411"/>
    <path d="M 199.434744 97.805184 
L 201.234744 94.805184 
L 199.434744 91.805184 
L 197.634744 94.805184 
z
" clip-path="url(#p9cae5561a4)" style="fill: #332288; fill-opacity: 0.6; stroke: #ffffff; stroke-opacity: 0.6; stroke-width: 0.339411"/>
    <path d="M 141.75428 58.699151 
L 143.55428 55.699151 
L 141.75428 52.699151 
L 139.95428 55.699151 
z
" clip-path="url(#p9cae5561a4)" style="fill: #332288; fill-opacity: 0.6; stroke: #ffffff; stroke-opacity: 0.6; stroke-width: 0.339411"/>
    <path d="M 224.497668 150.125902 
L 226.297668 147.125902 
L 224.497668 144.125902 
L 222.697668 147.125902 
z
" clip-path="url(#p9cae5561a4)" style="fill: #332288; fill-opacity: 0.6; stroke: #ffffff; stroke-opacity: 0.6; stroke-width: 0.339411"/>
    <path d="M 142.553954 64.876664 
L 144.353954 61.876664 
L 142.553954 58.876664 
L 140.753954 61.876664 
z
" clip-path="url(#p9cae5561a4)" style="fill: #332288; fill-opacity: 0.6; stroke: #ffffff; stroke-opacity: 0.6; stroke-width: 0.339411"/>
    <path d="M 222.855376 132.797577 
L 224.655376 129.797577 
L 222.855376 126.797577 
L 221.055376 129.797577 
z
" clip-path="url(#p9cae5561a4)" style="fill: #332288; fill-opacity: 0.6; stroke: #ffffff; stroke-opacity: 0.6; stroke-width: 0.339411"/>
    <path d="M 184.211679 118.546836 
L 186.011679 115.546836 
L 184.211679 112.546836 
L 182.411679 115.546836 
z
" clip-path="url(#p9cae5561a4)" style="fill: #332288; fill-opacity: 0.6; stroke: #ffffff; stroke-opacity: 0.6; stroke-width: 0.339411"/>
    <path d="M 187.273555 116.884257 
L 189.073555 113.884257 
L 187.273555 110.884257 
L 185.473555 113.884257 
z
" clip-path="url(#p9cae5561a4)" style="fill: #332288; fill-opacity: 0.6; stroke: #ffffff; stroke-opacity: 0.6; stroke-width: 0.339411"/>
    <path d="M 121.134541 88.004691 
L 122.934541 85.004691 
L 121.134541 82.004691 
L 119.334541 85.004691 
z
" clip-path="url(#p9cae5561a4)" style="fill: #332288; fill-opacity: 0.6; stroke: #ffffff; stroke-opacity: 0.6; stroke-width: 0.339411"/>
    <path d="M 188.461054 69.705252 
L 190.261054 66.705252 
L 188.461054 63.705252 
L 186.661054 66.705252 
z
" clip-path="url(#p9cae5561a4)" style="fill: #332288; fill-opacity: 0.6; stroke: #ffffff; stroke-opacity: 0.6; stroke-width: 0.339411"/>
    <path d="M 123.383018 94.394859 
L 125.183018 91.394859 
L 123.383018 88.394859 
L 121.583018 91.394859 
z
" clip-path="url(#p9cae5561a4)" style="fill: #332288; fill-opacity: 0.6; stroke: #ffffff; stroke-opacity: 0.6; stroke-width: 0.339411"/>
    <path d="M 226.365169 141.57671 
L 228.165169 138.57671 
L 226.365169 135.57671 
L 224.565169 138.57671 
z
" clip-path="url(#p9cae5561a4)" style="fill: #332288; fill-opacity: 0.6; stroke: #ffffff; stroke-opacity: 0.6; stroke-width: 0.339411"/>
    <path d="M 224.652991 149.880334 
L 226.452991 146.880334 
L 224.652991 143.880334 
L 222.852991 146.880334 
z
" clip-path="url(#p9cae5561a4)" style="fill: #332288; fill-opacity: 0.6; stroke: #ffffff; stroke-opacity: 0.6; stroke-width: 0.339411"/>
    <path d="M 144.577398 67.441217 
L 146.377398 64.441217 
L 144.577398 61.441217 
L 142.777398 64.441217 
z
" clip-path="url(#p9cae5561a4)" style="fill: #332288; fill-opacity: 0.6; stroke: #ffffff; stroke-opacity: 0.6; stroke-width: 0.339411"/>
    <path d="M 168.818085 108.975708 
L 170.618085 105.975708 
L 168.818085 102.975708 
L 167.018085 105.975708 
z
" clip-path="url(#p9cae5561a4)" style="fill: #332288; fill-opacity: 0.6; stroke: #ffffff; stroke-opacity: 0.6; stroke-width: 0.339411"/>
    <path d="M 193.865559 106.466113 
L 191.744239 110.708754 
L 195.986879 110.708754 
z
" clip-path="url(#p9cae5561a4)" style="fill: #117733; fill-opacity: 0.6; stroke: #ffffff; stroke-opacity: 0.6; stroke-width: 0.339411"/>
    <path d="M 119.015071 62.07412 
L 116.89375 66.31676 
L 121.136391 66.31676 
z
" clip-path="url(#p9cae5561a4)" style="fill: #117733; fill-opacity: 0.6; stroke: #ffffff; stroke-opacity: 0.6; stroke-width: 0.339411"/>
    <path d="M 150.874652 99.132285 
L 148.753331 103.374926 
L 152.995972 103.374926 
z
" clip-path="url(#p9cae5561a4)" style="fill: #117733; fill-opacity: 0.6; stroke: #ffffff; stroke-opacity: 0.6; stroke-width: 0.339411"/>
    <path d="M 160.244628 63.191674 
L 158.123307 67.434314 
L 162.365948 67.434314 
z
" clip-path="url(#p9cae5561a4)" style="fill: #117733; fill-opacity: 0.6; stroke: #ffffff; stroke-opacity: 0.6; stroke-width: 0.339411"/>
    <path d="M 141.99215 61.400814 
L 139.87083 65.643454 
L 144.113471 65.643454 
z
" clip-path="url(#p9cae5561a4)" style="fill: #117733; fill-opacity: 0.6; stroke: #ffffff; stroke-opacity: 0.6; stroke-width: 0.339411"/>
    <path d="M 151.014484 93.134751 
L 148.893164 97.377392 
L 153.135804 97.377392 
z
" clip-path="url(#p9cae5561a4)" style="fill: #117733; fill-opacity: 0.6; stroke: #ffffff; stroke-opacity: 0.6; stroke-width: 0.339411"/>
    <path d="M 170.95115 128.661588 
L 168.82983 132.904229 
L 173.072471 132.904229 
z
" clip-path="url(#p9cae5561a4)" style="fill: #117733; fill-opacity: 0.6; stroke: #ffffff; stroke-opacity: 0.6; stroke-width: 0.339411"/>
    <path d="M 187.086975 87.076201 
L 184.965654 91.318841 
L 189.208295 91.318841 
z
" clip-path="url(#p9cae5561a4)" style="fill: #117733; fill-opacity: 0.6; stroke: #ffffff; stroke-opacity: 0.6; stroke-width: 0.339411"/>
    <path d="M 122.448114 77.885468 
L 120.326794 82.128109 
L 124.569435 82.128109 
z
" clip-path="url(#p9cae5561a4)" style="fill: #117733; fill-opacity: 0.6; stroke: #ffffff; stroke-opacity: 0.6; stroke-width: 0.339411"/>
    <path d="M 195.820796 95.20593 
L 193.699476 99.448571 
L 197.942116 99.448571 
z
" clip-path="url(#p9cae5561a4)" style="fill: #117733; fill-opacity: 0.6; stroke: #ffffff; stroke-opacity: 0.6; stroke-width: 0.339411"/>
    <path d="M 157.829358 65.670847 
L 155.708037 69.913487 
L 159.950678 69.913487 
z
" clip-path="url(#p9cae5561a4)" style="fill: #117733; fill-opacity: 0.6; stroke: #ffffff; stroke-opacity: 0.6; stroke-width: 0.339411"/>
    <path d="M 124.922363 59.923277 
L 122.801043 64.165918 
L 127.043683 64.165918 
z
" clip-path="url(#p9cae5561a4)" style="fill: #117733; fill-opacity: 0.6; stroke: #ffffff; stroke-opacity: 0.6; stroke-width: 0.339411"/>
    <path d="M 191.912514 78.495585 
L 189.791194 82.738226 
L 194.033834 82.738226 
z
" clip-path="url(#p9cae5561a4)" style="fill: #117733; fill-opacity: 0.6; stroke: #ffffff; stroke-opacity: 0.6; stroke-width: 0.339411"/>
    <path d="M 175.311582 72.110408 
L 173.190261 76.353049 
L 177.432902 76.353049 
z
" clip-path="url(#p9cae5561a4)" style="fill: #117733; fill-opacity: 0.6; stroke: #ffffff; stroke-opacity: 0.6; stroke-width: 0.339411"/>
    <path d="M 155.452245 86.258559 
L 153.330925 90.5012 
L 157.573566 90.5012 
z
" clip-path="url(#p9cae5561a4)" style="fill: #117733; fill-opacity: 0.6; stroke: #ffffff; stroke-opacity: 0.6; stroke-width: 0.339411"/>
    <path d="M 180.989878 76.230498 
L 178.868558 80.473139 
L 183.111198 80.473139 
z
" clip-path="url(#p9cae5561a4)" style="fill: #117733; fill-opacity: 0.6; stroke: #ffffff; stroke-opacity: 0.6; stroke-width: 0.339411"/>
    <path d="M 116.135132 96.819159 
L 114.013811 101.0618 
L 118.256452 101.0618 
z
" clip-path="url(#p9cae5561a4)" style="fill: #117733; fill-opacity: 0.6; stroke: #ffffff; stroke-opacity: 0.6; stroke-width: 0.339411"/>
    <path d="M 209.584232 128.571852 
L 207.462912 132.814493 
L 211.705553 132.814493 
z
" clip-path="url(#p9cae5561a4)" style="fill: #117733; fill-opacity: 0.6; stroke: #ffffff; stroke-opacity: 0.6; stroke-width: 0.339411"/>
    <path d="M 195.514006 117.167495 
L 193.392686 121.410136 
L 197.635327 121.410136 
z
" clip-path="url(#p9cae5561a4)" style="fill: #117733; fill-opacity: 0.6; stroke: #ffffff; stroke-opacity: 0.6; stroke-width: 0.339411"/>
    <path d="M 124.048135 116.303883 
L 121.926815 120.546524 
L 126.169456 120.546524 
z
" clip-path="url(#p9cae5561a4)" style="fill: #117733; fill-opacity: 0.6; stroke: #ffffff; stroke-opacity: 0.6; stroke-width: 0.339411"/>
    <path d="M 161.692756 70.846385 
L 159.571435 75.089026 
L 163.814076 75.089026 
z
" clip-path="url(#p9cae5561a4)" style="fill: #117733; fill-opacity: 0.6; stroke: #ffffff; stroke-opacity: 0.6; stroke-width: 0.339411"/>
    <path d="M 173.042668 113.526773 
L 170.921347 117.769414 
L 175.163988 117.769414 
z
" clip-path="url(#p9cae5561a4)" style="fill: #117733; fill-opacity: 0.6; stroke: #ffffff; stroke-opacity: 0.6; stroke-width: 0.339411"/>
    <path d="M 124.535921 153.546683 
L 122.4146 157.789323 
L 126.657241 157.789323 
z
" clip-path="url(#p9cae5561a4)" style="fill: #117733; fill-opacity: 0.6; stroke: #ffffff; stroke-opacity: 0.6; stroke-width: 0.339411"/>
    <path d="M 156.113224 109.606728 
L 153.991904 113.849369 
L 158.234544 113.849369 
z
" clip-path="url(#p9cae5561a4)" style="fill: #117733; fill-opacity: 0.6; stroke: #ffffff; stroke-opacity: 0.6; stroke-width: 0.339411"/>
    <path d="M 158.430847 94.124948 
L 156.309527 98.367589 
L 160.552167 98.367589 
z
" clip-path="url(#p9cae5561a4)" style="fill: #117733; fill-opacity: 0.6; stroke: #ffffff; stroke-opacity: 0.6; stroke-width: 0.339411"/>
    <path d="M 128.329037 70.422001 
L 126.207717 74.664641 
L 130.450358 74.664641 
z
" clip-path="url(#p9cae5561a4)" style="fill: #117733; fill-opacity: 0.6; stroke: #ffffff; stroke-opacity: 0.6; stroke-width: 0.339411"/>
    <path d="M 188.330281 150.51749 
L 186.20896 154.760131 
L 190.451601 154.760131 
z
" clip-path="url(#p9cae5561a4)" style="fill: #117733; fill-opacity: 0.6; stroke: #ffffff; stroke-opacity: 0.6; stroke-width: 0.339411"/>
    <path d="M 153.273559 84.399986 
L 151.152239 88.642627 
L 155.394879 88.642627 
z
" clip-path="url(#p9cae5561a4)" style="fill: #117733; fill-opacity: 0.6; stroke: #ffffff; stroke-opacity: 0.6; stroke-width: 0.339411"/>
    <path d="M 181.215146 75.130628 
L 179.093826 79.373269 
L 183.336467 79.373269 
z
" clip-path="url(#p9cae5561a4)" style="fill: #117733; fill-opacity: 0.6; stroke: #ffffff; stroke-opacity: 0.6; stroke-width: 0.339411"/>
    <path d="M 123.766024 113.8216 
L 121.644703 118.064241 
L 125.887344 118.064241 
z
" clip-path="url(#p9cae5561a4)" style="fill: #117733; fill-opacity: 0.6; stroke: #ffffff; stroke-opacity: 0.6; stroke-width: 0.339411"/>
    <path d="M 168.481244 94.29729 
L 166.359923 98.539931 
L 170.602564 98.539931 
z
" clip-path="url(#p9cae5561a4)" style="fill: #117733; fill-opacity: 0.6; stroke: #ffffff; stroke-opacity: 0.6; stroke-width: 0.339411"/>
    <path d="M 190.229296 100.157746 
L 188.107975 104.400387 
L 192.350616 104.400387 
z
" clip-path="url(#p9cae5561a4)" style="fill: #117733; fill-opacity: 0.6; stroke: #ffffff; stroke-opacity: 0.6; stroke-width: 0.339411"/>
    <path d="M 159.940759 76.99912 
L 157.819438 81.24176 
L 162.062079 81.24176 
z
" clip-path="url(#p9cae5561a4)" style="fill: #117733; fill-opacity: 0.6; stroke: #ffffff; stroke-opacity: 0.6; stroke-width: 0.339411"/>
    <path d="M 190.443421 90.175642 
L 188.322101 94.418282 
L 192.564742 94.418282 
z
" clip-path="url(#p9cae5561a4)" style="fill: #117733; fill-opacity: 0.6; stroke: #ffffff; stroke-opacity: 0.6; stroke-width: 0.339411"/>
    <path d="M 154.713265 71.282333 
L 152.591945 75.524974 
L 156.834586 75.524974 
z
" clip-path="url(#p9cae5561a4)" style="fill: #117733; fill-opacity: 0.6; stroke: #ffffff; stroke-opacity: 0.6; stroke-width: 0.339411"/>
    <path d="M 188.583572 103.843718 
L 186.462252 108.086358 
L 190.704893 108.086358 
z
" clip-path="url(#p9cae5561a4)" style="fill: #117733; fill-opacity: 0.6; stroke: #ffffff; stroke-opacity: 0.6; stroke-width: 0.339411"/>
    <path d="M 158.289197 103.31756 
L 156.167877 107.560201 
L 160.410517 107.560201 
z
" clip-path="url(#p9cae5561a4)" style="fill: #117733; fill-opacity: 0.6; stroke: #ffffff; stroke-opacity: 0.6; stroke-width: 0.339411"/>
    <path d="M 157.743111 101.107319 
L 155.621791 105.349959 
L 159.864431 105.349959 
z
" clip-path="url(#p9cae5561a4)" style="fill: #117733; fill-opacity: 0.6; stroke: #ffffff; stroke-opacity: 0.6; stroke-width: 0.339411"/>
    <path d="M 126.293704 79.719501 
L 124.172383 83.962141 
L 128.415024 83.962141 
z
" clip-path="url(#p9cae5561a4)" style="fill: #117733; fill-opacity: 0.6; stroke: #ffffff; stroke-opacity: 0.6; stroke-width: 0.339411"/>
    <path d="M 146.31144 76.694126 
L 144.19012 80.936767 
L 148.432761 80.936767 
z
" clip-path="url(#p9cae5561a4)" style="fill: #117733; fill-opacity: 0.6; stroke: #ffffff; stroke-opacity: 0.6; stroke-width: 0.339411"/>
    <path d="M 125.715802 60.936089 
L 123.594482 65.17873 
L 127.837123 65.17873 
z
" clip-path="url(#p9cae5561a4)" style="fill: #117733; fill-opacity: 0.6; stroke: #ffffff; stroke-opacity: 0.6; stroke-width: 0.339411"/>
    <path d="M 218.822302 112.160802 
L 216.700982 116.403443 
L 220.943623 116.403443 
z
" clip-path="url(#p9cae5561a4)" style="fill: #117733; fill-opacity: 0.6; stroke: #ffffff; stroke-opacity: 0.6; stroke-width: 0.339411"/>
    <path d="M 202.459465 104.029709 
L 200.338145 108.27235 
L 204.580785 108.27235 
z
" clip-path="url(#p9cae5561a4)" style="fill: #117733; fill-opacity: 0.6; stroke: #ffffff; stroke-opacity: 0.6; stroke-width: 0.339411"/>
    <path d="M 114.99599 102.53586 
L 112.874669 106.778501 
L 117.11731 106.778501 
z
" clip-path="url(#p9cae5561a4)" style="fill: #117733; fill-opacity: 0.6; stroke: #ffffff; stroke-opacity: 0.6; stroke-width: 0.339411"/>
    <path d="M 167.125881 109.445726 
L 165.004561 113.688367 
L 169.247202 113.688367 
z
" clip-path="url(#p9cae5561a4)" style="fill: #117733; fill-opacity: 0.6; stroke: #ffffff; stroke-opacity: 0.6; stroke-width: 0.339411"/>
    <path d="M 159.558143 70.158234 
L 157.436823 74.400874 
L 161.679463 74.400874 
z
" clip-path="url(#p9cae5561a4)" style="fill: #117733; fill-opacity: 0.6; stroke: #ffffff; stroke-opacity: 0.6; stroke-width: 0.339411"/>
    <path d="M 160.648875 79.53278 
L 158.527555 83.775421 
L 162.770195 83.775421 
z
" clip-path="url(#p9cae5561a4)" style="fill: #117733; fill-opacity: 0.6; stroke: #ffffff; stroke-opacity: 0.6; stroke-width: 0.339411"/>
    <path d="M 185.163603 77.262569 
L 183.042282 81.50521 
L 187.284923 81.50521 
z
" clip-path="url(#p9cae5561a4)" style="fill: #117733; fill-opacity: 0.6; stroke: #ffffff; stroke-opacity: 0.6; stroke-width: 0.339411"/>
    <path d="M 156.406998 68.821524 
L 154.285678 73.064165 
L 158.528319 73.064165 
z
" clip-path="url(#p9cae5561a4)" style="fill: #117733; fill-opacity: 0.6; stroke: #ffffff; stroke-opacity: 0.6; stroke-width: 0.339411"/>
    <path d="M 150.754068 85.481853 
L 148.632748 89.724494 
L 152.875389 89.724494 
z
" clip-path="url(#p9cae5561a4)" style="fill: #117733; fill-opacity: 0.6; stroke: #ffffff; stroke-opacity: 0.6; stroke-width: 0.339411"/>
    <path d="M 166.222128 64.354575 
L 164.100807 68.597216 
L 168.343448 68.597216 
z
" clip-path="url(#p9cae5561a4)" style="fill: #117733; fill-opacity: 0.6; stroke: #ffffff; stroke-opacity: 0.6; stroke-width: 0.339411"/>
    <path d="M 200.477403 116.076785 
L 198.356083 120.319425 
L 202.598723 120.319425 
z
" clip-path="url(#p9cae5561a4)" style="fill: #117733; fill-opacity: 0.6; stroke: #ffffff; stroke-opacity: 0.6; stroke-width: 0.339411"/>
    <path d="M 196.474634 116.705181 
L 194.353313 120.947822 
L 198.595954 120.947822 
z
" clip-path="url(#p9cae5561a4)" style="fill: #117733; fill-opacity: 0.6; stroke: #ffffff; stroke-opacity: 0.6; stroke-width: 0.339411"/>
    <path d="M 156.951796 95.796239 
L 154.830476 100.03888 
L 159.073116 100.03888 
z
" clip-path="url(#p9cae5561a4)" style="fill: #117733; fill-opacity: 0.6; stroke: #ffffff; stroke-opacity: 0.6; stroke-width: 0.339411"/>
    <path d="M 130.609114 70.381882 
L 128.487794 74.624523 
L 132.730434 74.624523 
z
" clip-path="url(#p9cae5561a4)" style="fill: #117733; fill-opacity: 0.6; stroke: #ffffff; stroke-opacity: 0.6; stroke-width: 0.339411"/>
    <path d="M 187.577134 66.013222 
L 185.455814 70.255862 
L 189.698455 70.255862 
z
" clip-path="url(#p9cae5561a4)" style="fill: #117733; fill-opacity: 0.6; stroke: #ffffff; stroke-opacity: 0.6; stroke-width: 0.339411"/>
    <path d="M 124.958817 59.980689 
L 122.837497 64.223329 
L 127.080137 64.223329 
z
" clip-path="url(#p9cae5561a4)" style="fill: #117733; fill-opacity: 0.6; stroke: #ffffff; stroke-opacity: 0.6; stroke-width: 0.339411"/>
    <path d="M 179.332841 73.782571 
L 177.211521 78.025212 
L 181.454161 78.025212 
z
" clip-path="url(#p9cae5561a4)" style="fill: #117733; fill-opacity: 0.6; stroke: #ffffff; stroke-opacity: 0.6; stroke-width: 0.339411"/>
    <path d="M 165.448283 66.359014 
L 163.326962 70.601655 
L 167.569603 70.601655 
z
" clip-path="url(#p9cae5561a4)" style="fill: #117733; fill-opacity: 0.6; stroke: #ffffff; stroke-opacity: 0.6; stroke-width: 0.339411"/>
    <path d="M 118.692188 74.883148 
L 116.570868 79.125788 
L 120.813508 79.125788 
z
" clip-path="url(#p9cae5561a4)" style="fill: #117733; fill-opacity: 0.6; stroke: #ffffff; stroke-opacity: 0.6; stroke-width: 0.339411"/>
    <path d="M 122.677925 142.992801 
L 120.556605 147.235442 
L 124.799246 147.235442 
z
" clip-path="url(#p9cae5561a4)" style="fill: #117733; fill-opacity: 0.6; stroke: #ffffff; stroke-opacity: 0.6; stroke-width: 0.339411"/>
    <path d="M 161.515411 70.141818 
L 159.394091 74.384459 
L 163.636732 74.384459 
z
" clip-path="url(#p9cae5561a4)" style="fill: #117733; fill-opacity: 0.6; stroke: #ffffff; stroke-opacity: 0.6; stroke-width: 0.339411"/>
    <path d="M 101.248128 124.628309 
L 105.490769 124.628309 
L 105.490769 120.385668 
L 101.248128 120.385668 
z
" clip-path="url(#p9cae5561a4)" style="fill: #44aa99; fill-opacity: 0.6; stroke: #ffffff; stroke-opacity: 0.6; stroke-width: 0.339411"/>
    <path d="M 100.096046 129.372203 
L 104.338687 129.372203 
L 104.338687 125.129562 
L 100.096046 125.129562 
z
" clip-path="url(#p9cae5561a4)" style="fill: #44aa99; fill-opacity: 0.6; stroke: #ffffff; stroke-opacity: 0.6; stroke-width: 0.339411"/>
    <path d="M 103.009556 144.519076 
L 107.252197 144.519076 
L 107.252197 140.276436 
L 103.009556 140.276436 
z
" clip-path="url(#p9cae5561a4)" style="fill: #44aa99; fill-opacity: 0.6; stroke: #ffffff; stroke-opacity: 0.6; stroke-width: 0.339411"/>
    <path d="M 99.269707 117.65652 
L 103.512348 117.65652 
L 103.512348 113.413879 
L 99.269707 113.413879 
z
" clip-path="url(#p9cae5561a4)" style="fill: #44aa99; fill-opacity: 0.6; stroke: #ffffff; stroke-opacity: 0.6; stroke-width: 0.339411"/>
    <path d="M 101.26937 159.707517 
L 105.512011 159.707517 
L 105.512011 155.464876 
L 101.26937 155.464876 
z
" clip-path="url(#p9cae5561a4)" style="fill: #44aa99; fill-opacity: 0.6; stroke: #ffffff; stroke-opacity: 0.6; stroke-width: 0.339411"/>
    <path d="M 88.711759 152.168846 
L 92.9544 152.168846 
L 92.9544 147.926205 
L 88.711759 147.926205 
z
" clip-path="url(#p9cae5561a4)" style="fill: #44aa99; fill-opacity: 0.6; stroke: #ffffff; stroke-opacity: 0.6; stroke-width: 0.339411"/>
    <path d="M 103.146415 77.332503 
L 107.389056 77.332503 
L 107.389056 73.089862 
L 103.146415 73.089862 
z
" clip-path="url(#p9cae5561a4)" style="fill: #44aa99; fill-opacity: 0.6; stroke: #ffffff; stroke-opacity: 0.6; stroke-width: 0.339411"/>
    <path d="M 93.617421 145.455885 
L 97.860061 145.455885 
L 97.860061 141.213245 
L 93.617421 141.213245 
z
" clip-path="url(#p9cae5561a4)" style="fill: #44aa99; fill-opacity: 0.6; stroke: #ffffff; stroke-opacity: 0.6; stroke-width: 0.339411"/>
    <path d="M 166.860223 181.319531 
L 171.102863 181.319531 
L 171.102863 177.07689 
L 166.860223 177.07689 
z
" clip-path="url(#p9cae5561a4)" style="fill: #44aa99; fill-opacity: 0.6; stroke: #ffffff; stroke-opacity: 0.6; stroke-width: 0.339411"/>
    <path d="M 102.684001 90.752385 
L 106.926642 90.752385 
L 106.926642 86.509745 
L 102.684001 86.509745 
z
" clip-path="url(#p9cae5561a4)" style="fill: #44aa99; fill-opacity: 0.6; stroke: #ffffff; stroke-opacity: 0.6; stroke-width: 0.339411"/>
    <path d="M 99.748557 155.760567 
L 103.991198 155.760567 
L 103.991198 151.517927 
L 99.748557 151.517927 
z
" clip-path="url(#p9cae5561a4)" style="fill: #44aa99; fill-opacity: 0.6; stroke: #ffffff; stroke-opacity: 0.6; stroke-width: 0.339411"/>
    <path d="M 108.21913 111.527475 
L 112.461771 111.527475 
L 112.461771 107.284834 
L 108.21913 107.284834 
z
" clip-path="url(#p9cae5561a4)" style="fill: #44aa99; fill-opacity: 0.6; stroke: #ffffff; stroke-opacity: 0.6; stroke-width: 0.339411"/>
    <path d="M 106.869268 122.929396 
L 111.111909 122.929396 
L 111.111909 118.686755 
L 106.869268 118.686755 
z
" clip-path="url(#p9cae5561a4)" style="fill: #44aa99; fill-opacity: 0.6; stroke: #ffffff; stroke-opacity: 0.6; stroke-width: 0.339411"/>
    <path d="M 111.013752 118.684049 
L 115.256393 118.684049 
L 115.256393 114.441408 
L 111.013752 114.441408 
z
" clip-path="url(#p9cae5561a4)" style="fill: #44aa99; fill-opacity: 0.6; stroke: #ffffff; stroke-opacity: 0.6; stroke-width: 0.339411"/>
    <path d="M 97.173818 124.71969 
L 101.416459 124.71969 
L 101.416459 120.477049 
L 97.173818 120.477049 
z
" clip-path="url(#p9cae5561a4)" style="fill: #44aa99; fill-opacity: 0.6; stroke: #ffffff; stroke-opacity: 0.6; stroke-width: 0.339411"/>
    <path d="M 116.698477 125.304644 
L 120.941117 125.304644 
L 120.941117 121.062003 
L 116.698477 121.062003 
z
" clip-path="url(#p9cae5561a4)" style="fill: #44aa99; fill-opacity: 0.6; stroke: #ffffff; stroke-opacity: 0.6; stroke-width: 0.339411"/>
    <path d="M 99.477333 153.248335 
L 103.719973 153.248335 
L 103.719973 149.005694 
L 99.477333 149.005694 
z
" clip-path="url(#p9cae5561a4)" style="fill: #44aa99; fill-opacity: 0.6; stroke: #ffffff; stroke-opacity: 0.6; stroke-width: 0.339411"/>
    <path d="M 94.553524 152.662552 
L 98.796165 152.662552 
L 98.796165 148.419911 
L 94.553524 148.419911 
z
" clip-path="url(#p9cae5561a4)" style="fill: #44aa99; fill-opacity: 0.6; stroke: #ffffff; stroke-opacity: 0.6; stroke-width: 0.339411"/>
    <path d="M 116.84029 71.610558 
L 121.082931 71.610558 
L 121.082931 67.367917 
L 116.84029 67.367917 
z
" clip-path="url(#p9cae5561a4)" style="fill: #44aa99; fill-opacity: 0.6; stroke: #ffffff; stroke-opacity: 0.6; stroke-width: 0.339411"/>
    <path d="M 112.131324 124.596491 
L 116.373965 124.596491 
L 116.373965 120.35385 
L 112.131324 120.35385 
z
" clip-path="url(#p9cae5561a4)" style="fill: #44aa99; fill-opacity: 0.6; stroke: #ffffff; stroke-opacity: 0.6; stroke-width: 0.339411"/>
    <path d="M 109.377032 109.547686 
L 113.619672 109.547686 
L 113.619672 105.305045 
L 109.377032 105.305045 
z
" clip-path="url(#p9cae5561a4)" style="fill: #44aa99; fill-opacity: 0.6; stroke: #ffffff; stroke-opacity: 0.6; stroke-width: 0.339411"/>
    <path d="M 133.99465 82.473422 
L 138.237291 82.473422 
L 138.237291 78.230781 
L 133.99465 78.230781 
z
" clip-path="url(#p9cae5561a4)" style="fill: #44aa99; fill-opacity: 0.6; stroke: #ffffff; stroke-opacity: 0.6; stroke-width: 0.339411"/>
    <path d="M 101.607726 130.581928 
L 105.850366 130.581928 
L 105.850366 126.339287 
L 101.607726 126.339287 
z
" clip-path="url(#p9cae5561a4)" style="fill: #44aa99; fill-opacity: 0.6; stroke: #ffffff; stroke-opacity: 0.6; stroke-width: 0.339411"/>
    <path d="M 98.83832 150.565198 
L 103.08096 150.565198 
L 103.08096 146.322558 
L 98.83832 146.322558 
z
" clip-path="url(#p9cae5561a4)" style="fill: #44aa99; fill-opacity: 0.6; stroke: #ffffff; stroke-opacity: 0.6; stroke-width: 0.339411"/>
    <path d="M 127.251334 139.824713 
L 131.493975 139.824713 
L 131.493975 135.582073 
L 127.251334 135.582073 
z
" clip-path="url(#p9cae5561a4)" style="fill: #44aa99; fill-opacity: 0.6; stroke: #ffffff; stroke-opacity: 0.6; stroke-width: 0.339411"/>
    <path d="M 106.543989 158.247634 
L 110.786629 158.247634 
L 110.786629 154.004993 
L 106.543989 154.004993 
z
" clip-path="url(#p9cae5561a4)" style="fill: #44aa99; fill-opacity: 0.6; stroke: #ffffff; stroke-opacity: 0.6; stroke-width: 0.339411"/>
    <path d="M 95.720336 156.064945 
L 99.962976 156.064945 
L 99.962976 151.822305 
L 95.720336 151.822305 
z
" clip-path="url(#p9cae5561a4)" style="fill: #44aa99; fill-opacity: 0.6; stroke: #ffffff; stroke-opacity: 0.6; stroke-width: 0.339411"/>
    <path d="M 118.574137 104.99876 
L 122.816777 104.99876 
L 122.816777 100.756119 
L 118.574137 100.756119 
z
" clip-path="url(#p9cae5561a4)" style="fill: #44aa99; fill-opacity: 0.6; stroke: #ffffff; stroke-opacity: 0.6; stroke-width: 0.339411"/>
    <path d="M 106.306927 116.309352 
L 110.549568 116.309352 
L 110.549568 112.066712 
L 106.306927 112.066712 
z
" clip-path="url(#p9cae5561a4)" style="fill: #44aa99; fill-opacity: 0.6; stroke: #ffffff; stroke-opacity: 0.6; stroke-width: 0.339411"/>
    <path d="M 107.017824 124.494364 
L 111.260464 124.494364 
L 111.260464 120.251724 
L 107.017824 120.251724 
z
" clip-path="url(#p9cae5561a4)" style="fill: #44aa99; fill-opacity: 0.6; stroke: #ffffff; stroke-opacity: 0.6; stroke-width: 0.339411"/>
    <path d="M 94.341187 135.223272 
L 98.583827 135.223272 
L 98.583827 130.980631 
L 94.341187 130.980631 
z
" clip-path="url(#p9cae5561a4)" style="fill: #44aa99; fill-opacity: 0.6; stroke: #ffffff; stroke-opacity: 0.6; stroke-width: 0.339411"/>
    <path d="M 106.768295 137.433984 
L 111.010936 137.433984 
L 111.010936 133.191344 
L 106.768295 133.191344 
z
" clip-path="url(#p9cae5561a4)" style="fill: #44aa99; fill-opacity: 0.6; stroke: #ffffff; stroke-opacity: 0.6; stroke-width: 0.339411"/>
    <path d="M 93.666893 146.355324 
L 97.909534 146.355324 
L 97.909534 142.112683 
L 93.666893 142.112683 
z
" clip-path="url(#p9cae5561a4)" style="fill: #44aa99; fill-opacity: 0.6; stroke: #ffffff; stroke-opacity: 0.6; stroke-width: 0.339411"/>
    <path d="M 129.751726 157.242929 
L 133.994366 157.242929 
L 133.994366 153.000288 
L 129.751726 153.000288 
z
" clip-path="url(#p9cae5561a4)" style="fill: #44aa99; fill-opacity: 0.6; stroke: #ffffff; stroke-opacity: 0.6; stroke-width: 0.339411"/>
    <path d="M 118.346035 122.677928 
L 122.588676 122.677928 
L 122.588676 118.435287 
L 118.346035 118.435287 
z
" clip-path="url(#p9cae5561a4)" style="fill: #44aa99; fill-opacity: 0.6; stroke: #ffffff; stroke-opacity: 0.6; stroke-width: 0.339411"/>
    <path d="M 103.764916 112.919302 
L 108.007556 112.919302 
L 108.007556 108.676661 
L 103.764916 108.676661 
z
" clip-path="url(#p9cae5561a4)" style="fill: #44aa99; fill-opacity: 0.6; stroke: #ffffff; stroke-opacity: 0.6; stroke-width: 0.339411"/>
    <path d="M 97.687807 81.987281 
L 101.930447 81.987281 
L 101.930447 77.74464 
L 97.687807 77.74464 
z
" clip-path="url(#p9cae5561a4)" style="fill: #44aa99; fill-opacity: 0.6; stroke: #ffffff; stroke-opacity: 0.6; stroke-width: 0.339411"/>
    <path d="M 111.83136 87.817016 
L 116.074 87.817016 
L 116.074 83.574375 
L 111.83136 83.574375 
z
" clip-path="url(#p9cae5561a4)" style="fill: #44aa99; fill-opacity: 0.6; stroke: #ffffff; stroke-opacity: 0.6; stroke-width: 0.339411"/>
    <path d="M 96.124273 158.884855 
L 100.366914 158.884855 
L 100.366914 154.642214 
L 96.124273 154.642214 
z
" clip-path="url(#p9cae5561a4)" style="fill: #44aa99; fill-opacity: 0.6; stroke: #ffffff; stroke-opacity: 0.6; stroke-width: 0.339411"/>
    <path d="M 115.912308 120.563229 
L 120.154949 120.563229 
L 120.154949 116.320589 
L 115.912308 116.320589 
z
" clip-path="url(#p9cae5561a4)" style="fill: #44aa99; fill-opacity: 0.6; stroke: #ffffff; stroke-opacity: 0.6; stroke-width: 0.339411"/>
    <path d="M 131.629152 155.87715 
L 135.871793 155.87715 
L 135.871793 151.63451 
L 131.629152 151.63451 
z
" clip-path="url(#p9cae5561a4)" style="fill: #44aa99; fill-opacity: 0.6; stroke: #ffffff; stroke-opacity: 0.6; stroke-width: 0.339411"/>
    <path d="M 94.386448 107.21213 
L 98.629089 107.21213 
L 98.629089 102.96949 
L 94.386448 102.96949 
z
" clip-path="url(#p9cae5561a4)" style="fill: #44aa99; fill-opacity: 0.6; stroke: #ffffff; stroke-opacity: 0.6; stroke-width: 0.339411"/>
    <path d="M 119.71877 120.988612 
L 123.961411 120.988612 
L 123.961411 116.745971 
L 119.71877 116.745971 
z
" clip-path="url(#p9cae5561a4)" style="fill: #44aa99; fill-opacity: 0.6; stroke: #ffffff; stroke-opacity: 0.6; stroke-width: 0.339411"/>
    <path d="M 115.019859 116.292326 
L 119.2625 116.292326 
L 119.2625 112.049685 
L 115.019859 112.049685 
z
" clip-path="url(#p9cae5561a4)" style="fill: #44aa99; fill-opacity: 0.6; stroke: #ffffff; stroke-opacity: 0.6; stroke-width: 0.339411"/>
    <path d="M 124.743617 136.639446 
L 128.986258 136.639446 
L 128.986258 132.396805 
L 124.743617 132.396805 
z
" clip-path="url(#p9cae5561a4)" style="fill: #44aa99; fill-opacity: 0.6; stroke: #ffffff; stroke-opacity: 0.6; stroke-width: 0.339411"/>
    <path d="M 159.08062 126.14338 
L 163.323261 126.14338 
L 163.323261 121.900739 
L 159.08062 121.900739 
z
" clip-path="url(#p9cae5561a4)" style="fill: #44aa99; fill-opacity: 0.6; stroke: #ffffff; stroke-opacity: 0.6; stroke-width: 0.339411"/>
    <path d="M 99.649207 78.213018 
L 103.891848 78.213018 
L 103.891848 73.970378 
L 99.649207 73.970378 
z
" clip-path="url(#p9cae5561a4)" style="fill: #44aa99; fill-opacity: 0.6; stroke: #ffffff; stroke-opacity: 0.6; stroke-width: 0.339411"/>
    <path d="M 111.457167 181.714934 
L 115.699807 181.714934 
L 115.699807 177.472293 
L 111.457167 177.472293 
z
" clip-path="url(#p9cae5561a4)" style="fill: #44aa99; fill-opacity: 0.6; stroke: #ffffff; stroke-opacity: 0.6; stroke-width: 0.339411"/>
    <path d="M 97.346822 136.982842 
L 101.589463 136.982842 
L 101.589463 132.740201 
L 97.346822 132.740201 
z
" clip-path="url(#p9cae5561a4)" style="fill: #44aa99; fill-opacity: 0.6; stroke: #ffffff; stroke-opacity: 0.6; stroke-width: 0.339411"/>
    <path d="M 110.757895 142.906295 
L 115.000535 142.906295 
L 115.000535 138.663654 
L 110.757895 138.663654 
z
" clip-path="url(#p9cae5561a4)" style="fill: #44aa99; fill-opacity: 0.6; stroke: #ffffff; stroke-opacity: 0.6; stroke-width: 0.339411"/>
    <path d="M 96.363469 127.287896 
L 100.60611 127.287896 
L 100.60611 123.045255 
L 96.363469 123.045255 
z
" clip-path="url(#p9cae5561a4)" style="fill: #44aa99; fill-opacity: 0.6; stroke: #ffffff; stroke-opacity: 0.6; stroke-width: 0.339411"/>
    <path d="M 101.031107 93.717554 
L 105.273747 93.717554 
L 105.273747 89.474913 
L 101.031107 89.474913 
z
" clip-path="url(#p9cae5561a4)" style="fill: #44aa99; fill-opacity: 0.6; stroke: #ffffff; stroke-opacity: 0.6; stroke-width: 0.339411"/>
    <path d="M 105.310023 145.841385 
L 109.552664 145.841385 
L 109.552664 141.598745 
L 105.310023 141.598745 
z
" clip-path="url(#p9cae5561a4)" style="fill: #44aa99; fill-opacity: 0.6; stroke: #ffffff; stroke-opacity: 0.6; stroke-width: 0.339411"/>
    <path d="M 101.843135 146.861321 
L 106.085776 146.861321 
L 106.085776 142.618681 
L 101.843135 142.618681 
z
" clip-path="url(#p9cae5561a4)" style="fill: #44aa99; fill-opacity: 0.6; stroke: #ffffff; stroke-opacity: 0.6; stroke-width: 0.339411"/>
    <path d="M 103.469855 112.08931 
L 107.712496 112.08931 
L 107.712496 107.846669 
L 103.469855 107.846669 
z
" clip-path="url(#p9cae5561a4)" style="fill: #44aa99; fill-opacity: 0.6; stroke: #ffffff; stroke-opacity: 0.6; stroke-width: 0.339411"/>
    <path d="M 140.127983 113.407074 
L 144.370624 113.407074 
L 144.370624 109.164433 
L 140.127983 109.164433 
z
" clip-path="url(#p9cae5561a4)" style="fill: #44aa99; fill-opacity: 0.6; stroke: #ffffff; stroke-opacity: 0.6; stroke-width: 0.339411"/>
    <path d="M 107.985016 122.793285 
L 112.227657 122.793285 
L 112.227657 118.550644 
L 107.985016 118.550644 
z
" clip-path="url(#p9cae5561a4)" style="fill: #44aa99; fill-opacity: 0.6; stroke: #ffffff; stroke-opacity: 0.6; stroke-width: 0.339411"/>
    <path d="M 100.290687 153.000277 
L 104.533328 153.000277 
L 104.533328 148.757636 
L 100.290687 148.757636 
z
" clip-path="url(#p9cae5561a4)" style="fill: #44aa99; fill-opacity: 0.6; stroke: #ffffff; stroke-opacity: 0.6; stroke-width: 0.339411"/>
    <path d="M 114.900122 147.097571 
L 119.142762 147.097571 
L 119.142762 142.854931 
L 114.900122 142.854931 
z
" clip-path="url(#p9cae5561a4)" style="fill: #44aa99; fill-opacity: 0.6; stroke: #ffffff; stroke-opacity: 0.6; stroke-width: 0.339411"/>
    <path d="M 109.963212 122.43636 
L 114.205853 122.43636 
L 114.205853 118.19372 
L 109.963212 118.19372 
z
" clip-path="url(#p9cae5561a4)" style="fill: #44aa99; fill-opacity: 0.6; stroke: #ffffff; stroke-opacity: 0.6; stroke-width: 0.339411"/>
    <path d="M 104.390355 82.611802 
L 108.632995 82.611802 
L 108.632995 78.369162 
L 104.390355 78.369162 
z
" clip-path="url(#p9cae5561a4)" style="fill: #44aa99; fill-opacity: 0.6; stroke: #ffffff; stroke-opacity: 0.6; stroke-width: 0.339411"/>
    <path d="M 93.993724 160.909767 
L 98.236364 160.909767 
L 98.236364 156.667126 
L 93.993724 156.667126 
z
" clip-path="url(#p9cae5561a4)" style="fill: #44aa99; fill-opacity: 0.6; stroke: #ffffff; stroke-opacity: 0.6; stroke-width: 0.339411"/>
    <path d="M 96.333176 134.126089 
L 100.575817 134.126089 
L 100.575817 129.883449 
L 96.333176 129.883449 
z
" clip-path="url(#p9cae5561a4)" style="fill: #44aa99; fill-opacity: 0.6; stroke: #ffffff; stroke-opacity: 0.6; stroke-width: 0.339411"/>
    <path d="M 103.668872 139.601833 
L 107.911513 139.601833 
L 107.911513 135.359192 
L 103.668872 135.359192 
z
" clip-path="url(#p9cae5561a4)" style="fill: #44aa99; fill-opacity: 0.6; stroke: #ffffff; stroke-opacity: 0.6; stroke-width: 0.339411"/>
    <path d="M 101.25315 117.460091 
L 102.31381 116.399431 
L 103.37447 117.460091 
L 104.43513 116.399431 
L 103.37447 115.338771 
L 104.43513 114.278111 
L 103.37447 113.21745 
L 102.31381 114.278111 
L 101.25315 113.21745 
L 100.19249 114.278111 
L 101.25315 115.338771 
L 100.19249 116.399431 
z
" clip-path="url(#p9cae5561a4)" style="fill: #88ccee; fill-opacity: 0.6; stroke: #ffffff; stroke-opacity: 0.6; stroke-width: 0.339411"/>
    <path d="M 90.155314 124.805135 
L 91.215975 123.744474 
L 92.276635 124.805135 
L 93.337295 123.744474 
L 92.276635 122.683814 
L 93.337295 121.623154 
L 92.276635 120.562494 
L 91.215975 121.623154 
L 90.155314 120.562494 
L 89.094654 121.623154 
L 90.155314 122.683814 
L 89.094654 123.744474 
z
" clip-path="url(#p9cae5561a4)" style="fill: #88ccee; fill-opacity: 0.6; stroke: #ffffff; stroke-opacity: 0.6; stroke-width: 0.339411"/>
    <path d="M 99.720466 139.481329 
L 100.781126 138.420669 
L 101.841786 139.481329 
L 102.902446 138.420669 
L 101.841786 137.360008 
L 102.902446 136.299348 
L 101.841786 135.238688 
L 100.781126 136.299348 
L 99.720466 135.238688 
L 98.659806 136.299348 
L 99.720466 137.360008 
L 98.659806 138.420669 
z
" clip-path="url(#p9cae5561a4)" style="fill: #88ccee; fill-opacity: 0.6; stroke: #ffffff; stroke-opacity: 0.6; stroke-width: 0.339411"/>
    <path d="M 105.938288 117.515589 
L 106.998948 116.454929 
L 108.059608 117.515589 
L 109.120269 116.454929 
L 108.059608 115.394269 
L 109.120269 114.333609 
L 108.059608 113.272949 
L 106.998948 114.333609 
L 105.938288 113.272949 
L 104.877628 114.333609 
L 105.938288 115.394269 
L 104.877628 116.454929 
z
" clip-path="url(#p9cae5561a4)" style="fill: #88ccee; fill-opacity: 0.6; stroke: #ffffff; stroke-opacity: 0.6; stroke-width: 0.339411"/>
    <path d="M 96.254377 96.248366 
L 97.315037 95.187705 
L 98.375697 96.248366 
L 99.436358 95.187705 
L 98.375697 94.127045 
L 99.436358 93.066385 
L 98.375697 92.005725 
L 97.315037 93.066385 
L 96.254377 92.005725 
L 95.193717 93.066385 
L 96.254377 94.127045 
L 95.193717 95.187705 
z
" clip-path="url(#p9cae5561a4)" style="fill: #88ccee; fill-opacity: 0.6; stroke: #ffffff; stroke-opacity: 0.6; stroke-width: 0.339411"/>
    <path d="M 172.32235 126.214633 
L 173.38301 125.153973 
L 174.44367 126.214633 
L 175.50433 125.153973 
L 174.44367 124.093313 
L 175.50433 123.032653 
L 174.44367 121.971992 
L 173.38301 123.032653 
L 172.32235 121.971992 
L 171.26169 123.032653 
L 172.32235 124.093313 
L 171.26169 125.153973 
z
" clip-path="url(#p9cae5561a4)" style="fill: #88ccee; fill-opacity: 0.6; stroke: #ffffff; stroke-opacity: 0.6; stroke-width: 0.339411"/>
    <path d="M 94.895368 138.978005 
L 95.956028 137.917345 
L 97.016688 138.978005 
L 98.077349 137.917345 
L 97.016688 136.856685 
L 98.077349 135.796025 
L 97.016688 134.735365 
L 95.956028 135.796025 
L 94.895368 134.735365 
L 93.834708 135.796025 
L 94.895368 136.856685 
L 93.834708 137.917345 
z
" clip-path="url(#p9cae5561a4)" style="fill: #88ccee; fill-opacity: 0.6; stroke: #ffffff; stroke-opacity: 0.6; stroke-width: 0.339411"/>
    <path d="M 101.308066 137.148215 
L 102.368727 136.087555 
L 103.429387 137.148215 
L 104.490047 136.087555 
L 103.429387 135.026895 
L 104.490047 133.966235 
L 103.429387 132.905575 
L 102.368727 133.966235 
L 101.308066 132.905575 
L 100.247406 133.966235 
L 101.308066 135.026895 
L 100.247406 136.087555 
z
" clip-path="url(#p9cae5561a4)" style="fill: #88ccee; fill-opacity: 0.6; stroke: #ffffff; stroke-opacity: 0.6; stroke-width: 0.339411"/>
    <path d="M 112.03132 113.622482 
L 113.091981 112.561822 
L 114.152641 113.622482 
L 115.213301 112.561822 
L 114.152641 111.501162 
L 115.213301 110.440501 
L 114.152641 109.379841 
L 113.091981 110.440501 
L 112.03132 109.379841 
L 110.97066 110.440501 
L 112.03132 111.501162 
L 110.97066 112.561822 
z
" clip-path="url(#p9cae5561a4)" style="fill: #88ccee; fill-opacity: 0.6; stroke: #ffffff; stroke-opacity: 0.6; stroke-width: 0.339411"/>
    <path d="M 119.67741 106.580539 
L 120.73807 105.519879 
L 121.79873 106.580539 
L 122.85939 105.519879 
L 121.79873 104.459219 
L 122.85939 103.398558 
L 121.79873 102.337898 
L 120.73807 103.398558 
L 119.67741 102.337898 
L 118.61675 103.398558 
L 119.67741 104.459219 
L 118.61675 105.519879 
z
" clip-path="url(#p9cae5561a4)" style="fill: #88ccee; fill-opacity: 0.6; stroke: #ffffff; stroke-opacity: 0.6; stroke-width: 0.339411"/>
    <path d="M 99.247682 150.560636 
L 100.308342 149.499976 
L 101.369003 150.560636 
L 102.429663 149.499976 
L 101.369003 148.439316 
L 102.429663 147.378656 
L 101.369003 146.317996 
L 100.308342 147.378656 
L 99.247682 146.317996 
L 98.187022 147.378656 
L 99.247682 148.439316 
L 98.187022 149.499976 
z
" clip-path="url(#p9cae5561a4)" style="fill: #88ccee; fill-opacity: 0.6; stroke: #ffffff; stroke-opacity: 0.6; stroke-width: 0.339411"/>
    <path d="M 127.38998 104.594639 
L 128.45064 103.533979 
L 129.5113 104.594639 
L 130.571961 103.533979 
L 129.5113 102.473319 
L 130.571961 101.412659 
L 129.5113 100.351999 
L 128.45064 101.412659 
L 127.38998 100.351999 
L 126.32932 101.412659 
L 127.38998 102.473319 
L 126.32932 103.533979 
z
" clip-path="url(#p9cae5561a4)" style="fill: #88ccee; fill-opacity: 0.6; stroke: #ffffff; stroke-opacity: 0.6; stroke-width: 0.339411"/>
    <path d="M 99.326854 139.529344 
L 100.387515 138.468684 
L 101.448175 139.529344 
L 102.508835 138.468684 
L 101.448175 137.408024 
L 102.508835 136.347364 
L 101.448175 135.286704 
L 100.387515 136.347364 
L 99.326854 135.286704 
L 98.266194 136.347364 
L 99.326854 137.408024 
L 98.266194 138.468684 
z
" clip-path="url(#p9cae5561a4)" style="fill: #88ccee; fill-opacity: 0.6; stroke: #ffffff; stroke-opacity: 0.6; stroke-width: 0.339411"/>
    <path d="M 96.219379 110.129955 
L 97.280039 109.069295 
L 98.3407 110.129955 
L 99.40136 109.069295 
L 98.3407 108.008635 
L 99.40136 106.947975 
L 98.3407 105.887315 
L 97.280039 106.947975 
L 96.219379 105.887315 
L 95.158719 106.947975 
L 96.219379 108.008635 
L 95.158719 109.069295 
z
" clip-path="url(#p9cae5561a4)" style="fill: #88ccee; fill-opacity: 0.6; stroke: #ffffff; stroke-opacity: 0.6; stroke-width: 0.339411"/>
    <path d="M 100.04943 122.789219 
L 101.11009 121.728559 
L 102.17075 122.789219 
L 103.23141 121.728559 
L 102.17075 120.667899 
L 103.23141 119.607239 
L 102.17075 118.546579 
L 101.11009 119.607239 
L 100.04943 118.546579 
L 98.98877 119.607239 
L 100.04943 120.667899 
L 98.98877 121.728559 
z
" clip-path="url(#p9cae5561a4)" style="fill: #88ccee; fill-opacity: 0.6; stroke: #ffffff; stroke-opacity: 0.6; stroke-width: 0.339411"/>
    <path d="M 95.037782 111.633632 
L 96.098442 110.572971 
L 97.159102 111.633632 
L 98.219762 110.572971 
L 97.159102 109.512311 
L 98.219762 108.451651 
L 97.159102 107.390991 
L 96.098442 108.451651 
L 95.037782 107.390991 
L 93.977121 108.451651 
L 95.037782 109.512311 
L 93.977121 110.572971 
z
" clip-path="url(#p9cae5561a4)" style="fill: #88ccee; fill-opacity: 0.6; stroke: #ffffff; stroke-opacity: 0.6; stroke-width: 0.339411"/>
    <path d="M 134.0337 78.400008 
L 135.09436 77.339348 
L 136.15502 78.400008 
L 137.21568 77.339348 
L 136.15502 76.278688 
L 137.21568 75.218028 
L 136.15502 74.157368 
L 135.09436 75.218028 
L 134.0337 74.157368 
L 132.97304 75.218028 
L 134.0337 76.278688 
L 132.97304 77.339348 
z
" clip-path="url(#p9cae5561a4)" style="fill: #88ccee; fill-opacity: 0.6; stroke: #ffffff; stroke-opacity: 0.6; stroke-width: 0.339411"/>
    <path d="M 99.1177 157.617862 
L 100.178361 156.557202 
L 101.239021 157.617862 
L 102.299681 156.557202 
L 101.239021 155.496542 
L 102.299681 154.435882 
L 101.239021 153.375221 
L 100.178361 154.435882 
L 99.1177 153.375221 
L 98.05704 154.435882 
L 99.1177 155.496542 
L 98.05704 156.557202 
z
" clip-path="url(#p9cae5561a4)" style="fill: #88ccee; fill-opacity: 0.6; stroke: #ffffff; stroke-opacity: 0.6; stroke-width: 0.339411"/>
    <path d="M 122.668437 79.234276 
L 123.729097 78.173616 
L 124.789757 79.234276 
L 125.850417 78.173616 
L 124.789757 77.112956 
L 125.850417 76.052296 
L 124.789757 74.991636 
L 123.729097 76.052296 
L 122.668437 74.991636 
L 121.607776 76.052296 
L 122.668437 77.112956 
L 121.607776 78.173616 
z
" clip-path="url(#p9cae5561a4)" style="fill: #88ccee; fill-opacity: 0.6; stroke: #ffffff; stroke-opacity: 0.6; stroke-width: 0.339411"/>
    <path d="M 108.554971 115.657012 
L 109.615631 114.596352 
L 110.676292 115.657012 
L 111.736952 114.596352 
L 110.676292 113.535692 
L 111.736952 112.475032 
L 110.676292 111.414371 
L 109.615631 112.475032 
L 108.554971 111.414371 
L 107.494311 112.475032 
L 108.554971 113.535692 
L 107.494311 114.596352 
z
" clip-path="url(#p9cae5561a4)" style="fill: #88ccee; fill-opacity: 0.6; stroke: #ffffff; stroke-opacity: 0.6; stroke-width: 0.339411"/>
    <path d="M 100.78499 141.010023 
L 101.84565 139.949363 
L 102.90631 141.010023 
L 103.966971 139.949363 
L 102.90631 138.888702 
L 103.966971 137.828042 
L 102.90631 136.767382 
L 101.84565 137.828042 
L 100.78499 136.767382 
L 99.72433 137.828042 
L 100.78499 138.888702 
L 99.72433 139.949363 
z
" clip-path="url(#p9cae5561a4)" style="fill: #88ccee; fill-opacity: 0.6; stroke: #ffffff; stroke-opacity: 0.6; stroke-width: 0.339411"/>
    <path d="M 113.749914 117.513038 
L 114.810574 116.452378 
L 115.871234 117.513038 
L 116.931895 116.452378 
L 115.871234 115.391718 
L 116.931895 114.331058 
L 115.871234 113.270398 
L 114.810574 114.331058 
L 113.749914 113.270398 
L 112.689254 114.331058 
L 113.749914 115.391718 
L 112.689254 116.452378 
z
" clip-path="url(#p9cae5561a4)" style="fill: #88ccee; fill-opacity: 0.6; stroke: #ffffff; stroke-opacity: 0.6; stroke-width: 0.339411"/>
    <path d="M 98.697654 156.771816 
L 99.758314 155.711156 
L 100.818974 156.771816 
L 101.879635 155.711156 
L 100.818974 154.650496 
L 101.879635 153.589836 
L 100.818974 152.529176 
L 99.758314 153.589836 
L 98.697654 152.529176 
L 97.636994 153.589836 
L 98.697654 154.650496 
L 97.636994 155.711156 
z
" clip-path="url(#p9cae5561a4)" style="fill: #88ccee; fill-opacity: 0.6; stroke: #ffffff; stroke-opacity: 0.6; stroke-width: 0.339411"/>
    <path d="M 128.799017 71.29102 
L 129.859677 70.23036 
L 130.920337 71.29102 
L 131.980998 70.23036 
L 130.920337 69.169699 
L 131.980998 68.109039 
L 130.920337 67.048379 
L 129.859677 68.109039 
L 128.799017 67.048379 
L 127.738357 68.109039 
L 128.799017 69.169699 
L 127.738357 70.23036 
z
" clip-path="url(#p9cae5561a4)" style="fill: #88ccee; fill-opacity: 0.6; stroke: #ffffff; stroke-opacity: 0.6; stroke-width: 0.339411"/>
    <path d="M 90.384481 117.121591 
L 91.445141 116.060931 
L 92.505801 117.121591 
L 93.566461 116.060931 
L 92.505801 115.00027 
L 93.566461 113.93961 
L 92.505801 112.87895 
L 91.445141 113.93961 
L 90.384481 112.87895 
L 89.32382 113.93961 
L 90.384481 115.00027 
L 89.32382 116.060931 
z
" clip-path="url(#p9cae5561a4)" style="fill: #88ccee; fill-opacity: 0.6; stroke: #ffffff; stroke-opacity: 0.6; stroke-width: 0.339411"/>
    <path d="M 117.360887 98.546048 
L 118.421547 97.485388 
L 119.482207 98.546048 
L 120.542868 97.485388 
L 119.482207 96.424727 
L 120.542868 95.364067 
L 119.482207 94.303407 
L 118.421547 95.364067 
L 117.360887 94.303407 
L 116.300227 95.364067 
L 117.360887 96.424727 
L 116.300227 97.485388 
z
" clip-path="url(#p9cae5561a4)" style="fill: #88ccee; fill-opacity: 0.6; stroke: #ffffff; stroke-opacity: 0.6; stroke-width: 0.339411"/>
    <path d="M 94.306922 119.024777 
L 95.367582 117.964117 
L 96.428242 119.024777 
L 97.488902 117.964117 
L 96.428242 116.903457 
L 97.488902 115.842797 
L 96.428242 114.782137 
L 95.367582 115.842797 
L 94.306922 114.782137 
L 93.246261 115.842797 
L 94.306922 116.903457 
L 93.246261 117.964117 
z
" clip-path="url(#p9cae5561a4)" style="fill: #88ccee; fill-opacity: 0.6; stroke: #ffffff; stroke-opacity: 0.6; stroke-width: 0.339411"/>
    <path d="M 114.480538 84.884369 
L 115.541198 83.823709 
L 116.601858 84.884369 
L 117.662518 83.823709 
L 116.601858 82.763049 
L 117.662518 81.702389 
L 116.601858 80.641729 
L 115.541198 81.702389 
L 114.480538 80.641729 
L 113.419878 81.702389 
L 114.480538 82.763049 
L 113.419878 83.823709 
z
" clip-path="url(#p9cae5561a4)" style="fill: #88ccee; fill-opacity: 0.6; stroke: #ffffff; stroke-opacity: 0.6; stroke-width: 0.339411"/>
    <path d="M 102.326529 134.596967 
L 103.387189 133.536307 
L 104.44785 134.596967 
L 105.50851 133.536307 
L 104.44785 132.475647 
L 105.50851 131.414987 
L 104.44785 130.354326 
L 103.387189 131.414987 
L 102.326529 130.354326 
L 101.265869 131.414987 
L 102.326529 132.475647 
L 101.265869 133.536307 
z
" clip-path="url(#p9cae5561a4)" style="fill: #88ccee; fill-opacity: 0.6; stroke: #ffffff; stroke-opacity: 0.6; stroke-width: 0.339411"/>
    <path d="M 94.900233 123.201204 
L 95.960893 122.140544 
L 97.021553 123.201204 
L 98.082214 122.140544 
L 97.021553 121.079884 
L 98.082214 120.019223 
L 97.021553 118.958563 
L 95.960893 120.019223 
L 94.900233 118.958563 
L 93.839573 120.019223 
L 94.900233 121.079884 
L 93.839573 122.140544 
z
" clip-path="url(#p9cae5561a4)" style="fill: #88ccee; fill-opacity: 0.6; stroke: #ffffff; stroke-opacity: 0.6; stroke-width: 0.339411"/>
    <path d="M 97.495421 162.358237 
L 98.556082 161.297577 
L 99.616742 162.358237 
L 100.677402 161.297577 
L 99.616742 160.236916 
L 100.677402 159.176256 
L 99.616742 158.115596 
L 98.556082 159.176256 
L 97.495421 158.115596 
L 96.434761 159.176256 
L 97.495421 160.236916 
L 96.434761 161.297577 
z
" clip-path="url(#p9cae5561a4)" style="fill: #88ccee; fill-opacity: 0.6; stroke: #ffffff; stroke-opacity: 0.6; stroke-width: 0.339411"/>
    <path d="M 114.458237 117.564835 
L 115.518897 116.504175 
L 116.579557 117.564835 
L 117.640217 116.504175 
L 116.579557 115.443515 
L 117.640217 114.382855 
L 116.579557 113.322194 
L 115.518897 114.382855 
L 114.458237 113.322194 
L 113.397576 114.382855 
L 114.458237 115.443515 
L 113.397576 116.504175 
z
" clip-path="url(#p9cae5561a4)" style="fill: #88ccee; fill-opacity: 0.6; stroke: #ffffff; stroke-opacity: 0.6; stroke-width: 0.339411"/>
    <path d="M 101.637146 110.590106 
L 102.697806 109.529445 
L 103.758466 110.590106 
L 104.819127 109.529445 
L 103.758466 108.468785 
L 104.819127 107.408125 
L 103.758466 106.347465 
L 102.697806 107.408125 
L 101.637146 106.347465 
L 100.576486 107.408125 
L 101.637146 108.468785 
L 100.576486 109.529445 
z
" clip-path="url(#p9cae5561a4)" style="fill: #88ccee; fill-opacity: 0.6; stroke: #ffffff; stroke-opacity: 0.6; stroke-width: 0.339411"/>
    <path d="M 162.838795 136.408259 
L 163.899455 135.347599 
L 164.960115 136.408259 
L 166.020775 135.347599 
L 164.960115 134.286938 
L 166.020775 133.226278 
L 164.960115 132.165618 
L 163.899455 133.226278 
L 162.838795 132.165618 
L 161.778135 133.226278 
L 162.838795 134.286938 
L 161.778135 135.347599 
z
" clip-path="url(#p9cae5561a4)" style="fill: #88ccee; fill-opacity: 0.6; stroke: #ffffff; stroke-opacity: 0.6; stroke-width: 0.339411"/>
    <path d="M 102.078769 105.47989 
L 103.139429 104.419229 
L 104.20009 105.47989 
L 105.26075 104.419229 
L 104.20009 103.358569 
L 105.26075 102.297909 
L 104.20009 101.237249 
L 103.139429 102.297909 
L 102.078769 101.237249 
L 101.018109 102.297909 
L 102.078769 103.358569 
L 101.018109 104.419229 
z
" clip-path="url(#p9cae5561a4)" style="fill: #88ccee; fill-opacity: 0.6; stroke: #ffffff; stroke-opacity: 0.6; stroke-width: 0.339411"/>
    <path d="M 93.87381 117.519549 
L 94.934471 116.458889 
L 95.995131 117.519549 
L 97.055791 116.458889 
L 95.995131 115.398228 
L 97.055791 114.337568 
L 95.995131 113.276908 
L 94.934471 114.337568 
L 93.87381 113.276908 
L 92.81315 114.337568 
L 93.87381 115.398228 
L 92.81315 116.458889 
z
" clip-path="url(#p9cae5561a4)" style="fill: #88ccee; fill-opacity: 0.6; stroke: #ffffff; stroke-opacity: 0.6; stroke-width: 0.339411"/>
    <path d="M 113.913503 134.78466 
L 114.974163 133.723999 
L 116.034823 134.78466 
L 117.095483 133.723999 
L 116.034823 132.663339 
L 117.095483 131.602679 
L 116.034823 130.542019 
L 114.974163 131.602679 
L 113.913503 130.542019 
L 112.852843 131.602679 
L 113.913503 132.663339 
L 112.852843 133.723999 
z
" clip-path="url(#p9cae5561a4)" style="fill: #88ccee; fill-opacity: 0.6; stroke: #ffffff; stroke-opacity: 0.6; stroke-width: 0.339411"/>
    <path d="M 176.743837 123.307456 
L 177.804497 122.246796 
L 178.865158 123.307456 
L 179.925818 122.246796 
L 178.865158 121.186135 
L 179.925818 120.125475 
L 178.865158 119.064815 
L 177.804497 120.125475 
L 176.743837 119.064815 
L 175.683177 120.125475 
L 176.743837 121.186135 
L 175.683177 122.246796 
z
" clip-path="url(#p9cae5561a4)" style="fill: #88ccee; fill-opacity: 0.6; stroke: #ffffff; stroke-opacity: 0.6; stroke-width: 0.339411"/>
    <path d="M 94.395765 152.495581 
L 95.456425 151.434921 
L 96.517085 152.495581 
L 97.577746 151.434921 
L 96.517085 150.37426 
L 97.577746 149.3136 
L 96.517085 148.25294 
L 95.456425 149.3136 
L 94.395765 148.25294 
L 93.335105 149.3136 
L 94.395765 150.37426 
L 93.335105 151.434921 
z
" clip-path="url(#p9cae5561a4)" style="fill: #88ccee; fill-opacity: 0.6; stroke: #ffffff; stroke-opacity: 0.6; stroke-width: 0.339411"/>
    <path d="M 100.126189 83.023522 
L 101.186849 81.962862 
L 102.247509 83.023522 
L 103.308169 81.962862 
L 102.247509 80.902202 
L 103.308169 79.841542 
L 102.247509 78.780882 
L 101.186849 79.841542 
L 100.126189 78.780882 
L 99.065528 79.841542 
L 100.126189 80.902202 
L 99.065528 81.962862 
z
" clip-path="url(#p9cae5561a4)" style="fill: #88ccee; fill-opacity: 0.6; stroke: #ffffff; stroke-opacity: 0.6; stroke-width: 0.339411"/>
    <path d="M 98.994967 107.086402 
L 100.055628 106.025742 
L 101.116288 107.086402 
L 102.176948 106.025742 
L 101.116288 104.965082 
L 102.176948 103.904422 
L 101.116288 102.843761 
L 100.055628 103.904422 
L 98.994967 102.843761 
L 97.934307 103.904422 
L 98.994967 104.965082 
L 97.934307 106.025742 
z
" clip-path="url(#p9cae5561a4)" style="fill: #88ccee; fill-opacity: 0.6; stroke: #ffffff; stroke-opacity: 0.6; stroke-width: 0.339411"/>
    <path d="M 168.166673 125.352329 
L 169.227333 124.291669 
L 170.287993 125.352329 
L 171.348653 124.291669 
L 170.287993 123.231009 
L 171.348653 122.170349 
L 170.287993 121.109689 
L 169.227333 122.170349 
L 168.166673 121.109689 
L 167.106013 122.170349 
L 168.166673 123.231009 
L 167.106013 124.291669 
z
" clip-path="url(#p9cae5561a4)" style="fill: #88ccee; fill-opacity: 0.6; stroke: #ffffff; stroke-opacity: 0.6; stroke-width: 0.339411"/>
    <path d="M 101.079897 77.39951 
L 102.140557 76.33885 
L 103.201217 77.39951 
L 104.261877 76.33885 
L 103.201217 75.27819 
L 104.261877 74.21753 
L 103.201217 73.15687 
L 102.140557 74.21753 
L 101.079897 73.15687 
L 100.019237 74.21753 
L 101.079897 75.27819 
L 100.019237 76.33885 
z
" clip-path="url(#p9cae5561a4)" style="fill: #88ccee; fill-opacity: 0.6; stroke: #ffffff; stroke-opacity: 0.6; stroke-width: 0.339411"/>
    <path d="M 95.549294 117.987076 
L 96.609954 116.926416 
L 97.670614 117.987076 
L 98.731274 116.926416 
L 97.670614 115.865756 
L 98.731274 114.805096 
L 97.670614 113.744436 
L 96.609954 114.805096 
L 95.549294 113.744436 
L 94.488633 114.805096 
L 95.549294 115.865756 
L 94.488633 116.926416 
z
" clip-path="url(#p9cae5561a4)" style="fill: #88ccee; fill-opacity: 0.6; stroke: #ffffff; stroke-opacity: 0.6; stroke-width: 0.339411"/>
    <path d="M 94.852639 111.392078 
L 95.9133 110.331418 
L 96.97396 111.392078 
L 98.03462 110.331418 
L 96.97396 109.270757 
L 98.03462 108.210097 
L 96.97396 107.149437 
L 95.9133 108.210097 
L 94.852639 107.149437 
L 93.791979 108.210097 
L 94.852639 109.270757 
L 93.791979 110.331418 
z
" clip-path="url(#p9cae5561a4)" style="fill: #88ccee; fill-opacity: 0.6; stroke: #ffffff; stroke-opacity: 0.6; stroke-width: 0.339411"/>
    <path d="M 79.872987 142.652354 
L 80.933647 141.591694 
L 81.994307 142.652354 
L 83.054967 141.591694 
L 81.994307 140.531033 
L 83.054967 139.470373 
L 81.994307 138.409713 
L 80.933647 139.470373 
L 79.872987 138.409713 
L 78.812326 139.470373 
L 79.872987 140.531033 
L 78.812326 141.591694 
z
" clip-path="url(#p9cae5561a4)" style="fill: #88ccee; fill-opacity: 0.6; stroke: #ffffff; stroke-opacity: 0.6; stroke-width: 0.339411"/>
    <path d="M 108.639277 132.363074 
L 109.699937 131.302414 
L 110.760597 132.363074 
L 111.821257 131.302414 
L 110.760597 130.241754 
L 111.821257 129.181094 
L 110.760597 128.120434 
L 109.699937 129.181094 
L 108.639277 128.120434 
L 107.578616 129.181094 
L 108.639277 130.241754 
L 107.578616 131.302414 
z
" clip-path="url(#p9cae5561a4)" style="fill: #88ccee; fill-opacity: 0.6; stroke: #ffffff; stroke-opacity: 0.6; stroke-width: 0.339411"/>
    <path d="M 155.782243 143.130602 
L 156.842903 142.069942 
L 157.903564 143.130602 
L 158.964224 142.069942 
L 157.903564 141.009282 
L 158.964224 139.948622 
L 157.903564 138.887962 
L 156.842903 139.948622 
L 155.782243 138.887962 
L 154.721583 139.948622 
L 155.782243 141.009282 
L 154.721583 142.069942 
z
" clip-path="url(#p9cae5561a4)" style="fill: #88ccee; fill-opacity: 0.6; stroke: #ffffff; stroke-opacity: 0.6; stroke-width: 0.339411"/>
    <path d="M 102.623354 110.985754 
L 103.684014 109.925094 
L 104.744674 110.985754 
L 105.805334 109.925094 
L 104.744674 108.864434 
L 105.805334 107.803774 
L 104.744674 106.743113 
L 103.684014 107.803774 
L 102.623354 106.743113 
L 101.562694 107.803774 
L 102.623354 108.864434 
L 101.562694 109.925094 
z
" clip-path="url(#p9cae5561a4)" style="fill: #88ccee; fill-opacity: 0.6; stroke: #ffffff; stroke-opacity: 0.6; stroke-width: 0.339411"/>
    <path d="M 164.790431 154.495735 
L 165.851091 153.435075 
L 166.911752 154.495735 
L 167.972412 153.435075 
L 166.911752 152.374415 
L 167.972412 151.313755 
L 166.911752 150.253095 
L 165.851091 151.313755 
L 164.790431 150.253095 
L 163.729771 151.313755 
L 164.790431 152.374415 
L 163.729771 153.435075 
z
" clip-path="url(#p9cae5561a4)" style="fill: #88ccee; fill-opacity: 0.6; stroke: #ffffff; stroke-opacity: 0.6; stroke-width: 0.339411"/>
    <path d="M 102.726132 164.92741 
L 103.786792 163.86675 
L 104.847452 164.92741 
L 105.908112 163.86675 
L 104.847452 162.806089 
L 105.908112 161.745429 
L 104.847452 160.684769 
L 103.786792 161.745429 
L 102.726132 160.684769 
L 101.665471 161.745429 
L 102.726132 162.806089 
L 101.665471 163.86675 
z
" clip-path="url(#p9cae5561a4)" style="fill: #88ccee; fill-opacity: 0.6; stroke: #ffffff; stroke-opacity: 0.6; stroke-width: 0.339411"/>
    <path d="M 103.794455 79.935892 
L 104.855115 78.875232 
L 105.915775 79.935892 
L 106.976436 78.875232 
L 105.915775 77.814571 
L 106.976436 76.753911 
L 105.915775 75.693251 
L 104.855115 76.753911 
L 103.794455 75.693251 
L 102.733795 76.753911 
L 103.794455 77.814571 
L 102.733795 78.875232 
z
" clip-path="url(#p9cae5561a4)" style="fill: #88ccee; fill-opacity: 0.6; stroke: #ffffff; stroke-opacity: 0.6; stroke-width: 0.339411"/>
    <path d="M 100.590366 112.551976 
L 101.651026 111.491316 
L 102.711687 112.551976 
L 103.772347 111.491316 
L 102.711687 110.430656 
L 103.772347 109.369996 
L 102.711687 108.309336 
L 101.651026 109.369996 
L 100.590366 108.309336 
L 99.529706 109.369996 
L 100.590366 110.430656 
L 99.529706 111.491316 
z
" clip-path="url(#p9cae5561a4)" style="fill: #88ccee; fill-opacity: 0.6; stroke: #ffffff; stroke-opacity: 0.6; stroke-width: 0.339411"/>
    <path d="M 90.566214 135.323541 
L 91.626874 134.26288 
L 92.687535 135.323541 
L 93.748195 134.26288 
L 92.687535 133.20222 
L 93.748195 132.14156 
L 92.687535 131.0809 
L 91.626874 132.14156 
L 90.566214 131.0809 
L 89.505554 132.14156 
L 90.566214 133.20222 
L 89.505554 134.26288 
z
" clip-path="url(#p9cae5561a4)" style="fill: #88ccee; fill-opacity: 0.6; stroke: #ffffff; stroke-opacity: 0.6; stroke-width: 0.339411"/>
    <path d="M 94.952478 150.924923 
L 96.013138 149.864263 
L 97.073798 150.924923 
L 98.134458 149.864263 
L 97.073798 148.803603 
L 98.134458 147.742943 
L 97.073798 146.682283 
L 96.013138 147.742943 
L 94.952478 146.682283 
L 93.891817 147.742943 
L 94.952478 148.803603 
L 93.891817 149.864263 
z
" clip-path="url(#p9cae5561a4)" style="fill: #88ccee; fill-opacity: 0.6; stroke: #ffffff; stroke-opacity: 0.6; stroke-width: 0.339411"/>
    <path d="M 94.84076 156.897735 
L 95.901421 155.837075 
L 96.962081 156.897735 
L 98.022741 155.837075 
L 96.962081 154.776415 
L 98.022741 153.715755 
L 96.962081 152.655095 
L 95.901421 153.715755 
L 94.84076 152.655095 
L 93.7801 153.715755 
L 94.84076 154.776415 
L 93.7801 155.837075 
z
" clip-path="url(#p9cae5561a4)" style="fill: #88ccee; fill-opacity: 0.6; stroke: #ffffff; stroke-opacity: 0.6; stroke-width: 0.339411"/>
    <path d="M 95.377985 128.606417 
L 96.438645 127.545756 
L 97.499305 128.606417 
L 98.559965 127.545756 
L 97.499305 126.485096 
L 98.559965 125.424436 
L 97.499305 124.363776 
L 96.438645 125.424436 
L 95.377985 124.363776 
L 94.317325 125.424436 
L 95.377985 126.485096 
L 94.317325 127.545756 
z
" clip-path="url(#p9cae5561a4)" style="fill: #88ccee; fill-opacity: 0.6; stroke: #ffffff; stroke-opacity: 0.6; stroke-width: 0.339411"/>
    <path d="M 111.82217 67.199895 
L 112.88283 66.139234 
L 113.94349 67.199895 
L 115.00415 66.139234 
L 113.94349 65.078574 
L 115.00415 64.017914 
L 113.94349 62.957254 
L 112.88283 64.017914 
L 111.82217 62.957254 
L 110.761509 64.017914 
L 111.82217 65.078574 
L 110.761509 66.139234 
z
" clip-path="url(#p9cae5561a4)" style="fill: #88ccee; fill-opacity: 0.6; stroke: #ffffff; stroke-opacity: 0.6; stroke-width: 0.339411"/>
    <path d="M 117.77985 81.642676 
L 118.84051 80.582016 
L 119.90117 81.642676 
L 120.96183 80.582016 
L 119.90117 79.521355 
L 120.96183 78.460695 
L 119.90117 77.400035 
L 118.84051 78.460695 
L 117.77985 77.400035 
L 116.719189 78.460695 
L 117.77985 79.521355 
L 116.719189 80.582016 
z
" clip-path="url(#p9cae5561a4)" style="fill: #88ccee; fill-opacity: 0.6; stroke: #ffffff; stroke-opacity: 0.6; stroke-width: 0.339411"/>
    <path d="M 172.213595 89.162278 
L 173.274256 88.101618 
L 174.334916 89.162278 
L 175.395576 88.101618 
L 174.334916 87.040958 
L 175.395576 85.980298 
L 174.334916 84.919638 
L 173.274256 85.980298 
L 172.213595 84.919638 
L 171.152935 85.980298 
L 172.213595 87.040958 
L 171.152935 88.101618 
z
" clip-path="url(#p9cae5561a4)" style="fill: #88ccee; fill-opacity: 0.6; stroke: #ffffff; stroke-opacity: 0.6; stroke-width: 0.339411"/>
    <path d="M 179.885153 163.041225 
L 180.945813 161.980564 
L 182.006473 163.041225 
L 183.067133 161.980564 
L 182.006473 160.919904 
L 183.067133 159.859244 
L 182.006473 158.798584 
L 180.945813 159.859244 
L 179.885153 158.798584 
L 178.824493 159.859244 
L 179.885153 160.919904 
L 178.824493 161.980564 
z
" clip-path="url(#p9cae5561a4)" style="fill: #88ccee; fill-opacity: 0.6; stroke: #ffffff; stroke-opacity: 0.6; stroke-width: 0.339411"/>
    <path d="M 93.661177 150.951692 
L 94.721837 149.891032 
L 95.782497 150.951692 
L 96.843158 149.891032 
L 95.782497 148.830372 
L 96.843158 147.769712 
L 95.782497 146.709051 
L 94.721837 147.769712 
L 93.661177 146.709051 
L 92.600517 147.769712 
L 93.661177 148.830372 
L 92.600517 149.891032 
z
" clip-path="url(#p9cae5561a4)" style="fill: #88ccee; fill-opacity: 0.6; stroke: #ffffff; stroke-opacity: 0.6; stroke-width: 0.339411"/>
    <path d="M 118.829233 97.393337 
L 119.889893 96.332677 
L 120.950553 97.393337 
L 122.011213 96.332677 
L 120.950553 95.272016 
L 122.011213 94.211356 
L 120.950553 93.150696 
L 119.889893 94.211356 
L 118.829233 93.150696 
L 117.768573 94.211356 
L 118.829233 95.272016 
L 117.768573 96.332677 
z
" clip-path="url(#p9cae5561a4)" style="fill: #88ccee; fill-opacity: 0.6; stroke: #ffffff; stroke-opacity: 0.6; stroke-width: 0.339411"/>
    <path d="M 124.871435 130.314042 
L 125.932095 129.253382 
L 126.992755 130.314042 
L 128.053416 129.253382 
L 126.992755 128.192722 
L 128.053416 127.132062 
L 126.992755 126.071401 
L 125.932095 127.132062 
L 124.871435 126.071401 
L 123.810775 127.132062 
L 124.871435 128.192722 
L 123.810775 129.253382 
z
" clip-path="url(#p9cae5561a4)" style="fill: #88ccee; fill-opacity: 0.6; stroke: #ffffff; stroke-opacity: 0.6; stroke-width: 0.339411"/>
   </g>
   <g id="matplotlib.axis_1">
    <g id="xtick_1">
     <g id="line2d_1">
      <defs>
       <path id="m3d2ff790d0" d="M 0 0 
L 0 8 
" style="stroke: #000000"/>
      </defs>
      <g>
       <use xlink:href="#m3d2ff790d0" x="62.541639" y="192.727559" style="stroke: #000000"/>
      </g>
     </g>
     <g id="text_1">
      <!-- 20 -->
      <g transform="translate(49.878826 213.345684) scale(0.12 -0.12)">
       <defs>
        <path id="DejaVuSans-2212" d="M 678 2272 
L 4684 2272 
L 4684 1741 
L 678 1741 
L 678 2272 
z
" transform="scale(0.015625)"/>
        <path id="DejaVuSans-32" d="M 1228 531 
L 3431 531 
L 3431 0 
L 469 0 
L 469 531 
Q 828 903 1448 1529 
Q 2069 2156 2228 2338 
Q 2531 2678 2651 2914 
Q 2772 3150 2772 3378 
Q 2772 3750 2511 3984 
Q 2250 4219 1831 4219 
Q 1534 4219 1204 4116 
Q 875 4013 500 3803 
L 500 4441 
Q 881 4594 1212 4672 
Q 1544 4750 1819 4750 
Q 2544 4750 2975 4387 
Q 3406 4025 3406 3419 
Q 3406 3131 3298 2873 
Q 3191 2616 2906 2266 
Q 2828 2175 2409 1742 
Q 1991 1309 1228 531 
z
" transform="scale(0.015625)"/>
        <path id="DejaVuSans-30" d="M 2034 4250 
Q 1547 4250 1301 3770 
Q 1056 3291 1056 2328 
Q 1056 1369 1301 889 
Q 1547 409 2034 409 
Q 2525 409 2770 889 
Q 3016 1369 3016 2328 
Q 3016 3291 2770 3770 
Q 2525 4250 2034 4250 
z
M 2034 4750 
Q 2819 4750 3233 4129 
Q 3647 3509 3647 2328 
Q 3647 1150 3233 529 
Q 2819 -91 2034 -91 
Q 1250 -91 836 529 
Q 422 1150 422 2328 
Q 422 3509 836 4129 
Q 1250 4750 2034 4750 
z
" transform="scale(0.015625)"/>
       </defs>
       <use xlink:href="#DejaVuSans-2212"/>
       <use xlink:href="#DejaVuSans-32" x="83.789062"/>
       <use xlink:href="#DejaVuSans-30" x="147.412109"/>
      </g>
     </g>
    </g>
    <g id="xtick_2">
     <g id="line2d_2">
      <g>
       <use xlink:href="#m3d2ff790d0" x="101.858865" y="192.727559" style="stroke: #000000"/>
      </g>
     </g>
     <g id="text_2">
      <!-- 10 -->
      <g transform="translate(89.196052 213.345684) scale(0.12 -0.12)">
       <defs>
        <path id="DejaVuSans-31" d="M 794 531 
L 1825 531 
L 1825 4091 
L 703 3866 
L 703 4441 
L 1819 4666 
L 2450 4666 
L 2450 531 
L 3481 531 
L 3481 0 
L 794 0 
L 794 531 
z
" transform="scale(0.015625)"/>
       </defs>
       <use xlink:href="#DejaVuSans-2212"/>
       <use xlink:href="#DejaVuSans-31" x="83.789062"/>
       <use xlink:href="#DejaVuSans-30" x="147.412109"/>
      </g>
     </g>
    </g>
    <g id="xtick_3">
     <g id="line2d_3">
      <g>
       <use xlink:href="#m3d2ff790d0" x="141.176091" y="192.727559" style="stroke: #000000"/>
      </g>
     </g>
     <g id="text_3">
      <!-- 0 -->
      <g transform="translate(137.358591 213.345684) scale(0.12 -0.12)">
       <use xlink:href="#DejaVuSans-30"/>
      </g>
     </g>
    </g>
    <g id="xtick_4">
     <g id="line2d_4">
      <g>
       <use xlink:href="#m3d2ff790d0" x="180.493317" y="192.727559" style="stroke: #000000"/>
      </g>
     </g>
     <g id="text_4">
      <!-- 10 -->
      <g transform="translate(172.858317 213.345684) scale(0.12 -0.12)">
       <use xlink:href="#DejaVuSans-31"/>
       <use xlink:href="#DejaVuSans-30" x="63.623047"/>
      </g>
     </g>
    </g>
    <g id="xtick_5">
     <g id="line2d_5">
      <g>
       <use xlink:href="#m3d2ff790d0" x="219.810543" y="192.727559" style="stroke: #000000"/>
      </g>
     </g>
     <g id="text_5">
      <!-- 20 -->
      <g transform="translate(212.175543 213.345684) scale(0.12 -0.12)">
       <use xlink:href="#DejaVuSans-32"/>
       <use xlink:href="#DejaVuSans-30" x="63.623047"/>
      </g>
     </g>
    </g>
    <g id="text_6">
     <!-- PC 1 (14.38%) -->
     <g transform="translate(109.404717 228.959434) scale(0.12 -0.12)">
      <defs>
       <path id="DejaVuSans-50" d="M 1259 4147 
L 1259 2394 
L 2053 2394 
Q 2494 2394 2734 2622 
Q 2975 2850 2975 3272 
Q 2975 3691 2734 3919 
Q 2494 4147 2053 4147 
L 1259 4147 
z
M 628 4666 
L 2053 4666 
Q 2838 4666 3239 4311 
Q 3641 3956 3641 3272 
Q 3641 2581 3239 2228 
Q 2838 1875 2053 1875 
L 1259 1875 
L 1259 0 
L 628 0 
L 628 4666 
z
" transform="scale(0.015625)"/>
       <path id="DejaVuSans-43" d="M 4122 4306 
L 4122 3641 
Q 3803 3938 3442 4084 
Q 3081 4231 2675 4231 
Q 1875 4231 1450 3742 
Q 1025 3253 1025 2328 
Q 1025 1406 1450 917 
Q 1875 428 2675 428 
Q 3081 428 3442 575 
Q 3803 722 4122 1019 
L 4122 359 
Q 3791 134 3420 21 
Q 3050 -91 2638 -91 
Q 1578 -91 968 557 
Q 359 1206 359 2328 
Q 359 3453 968 4101 
Q 1578 4750 2638 4750 
Q 3056 4750 3426 4639 
Q 3797 4528 4122 4306 
z
" transform="scale(0.015625)"/>
       <path id="DejaVuSans-20" transform="scale(0.015625)"/>
       <path id="DejaVuSans-28" d="M 1984 4856 
Q 1566 4138 1362 3434 
Q 1159 2731 1159 2009 
Q 1159 1288 1364 580 
Q 1569 -128 1984 -844 
L 1484 -844 
Q 1016 -109 783 600 
Q 550 1309 550 2009 
Q 550 2706 781 3412 
Q 1013 4119 1484 4856 
L 1984 4856 
z
" transform="scale(0.015625)"/>
       <path id="DejaVuSans-34" d="M 2419 4116 
L 825 1625 
L 2419 1625 
L 2419 4116 
z
M 2253 4666 
L 3047 4666 
L 3047 1625 
L 3713 1625 
L 3713 1100 
L 3047 1100 
L 3047 0 
L 2419 0 
L 2419 1100 
L 313 1100 
L 313 1709 
L 2253 4666 
z
" transform="scale(0.015625)"/>
       <path id="DejaVuSans-2e" d="M 684 794 
L 1344 794 
L 1344 0 
L 684 0 
L 684 794 
z
" transform="scale(0.015625)"/>
       <path id="DejaVuSans-33" d="M 2597 2516 
Q 3050 2419 3304 2112 
Q 3559 1806 3559 1356 
Q 3559 666 3084 287 
Q 2609 -91 1734 -91 
Q 1441 -91 1130 -33 
Q 819 25 488 141 
L 488 750 
Q 750 597 1062 519 
Q 1375 441 1716 441 
Q 2309 441 2620 675 
Q 2931 909 2931 1356 
Q 2931 1769 2642 2001 
Q 2353 2234 1838 2234 
L 1294 2234 
L 1294 2753 
L 1863 2753 
Q 2328 2753 2575 2939 
Q 2822 3125 2822 3475 
Q 2822 3834 2567 4026 
Q 2313 4219 1838 4219 
Q 1578 4219 1281 4162 
Q 984 4106 628 3988 
L 628 4550 
Q 988 4650 1302 4700 
Q 1616 4750 1894 4750 
Q 2613 4750 3031 4423 
Q 3450 4097 3450 3541 
Q 3450 3153 3228 2886 
Q 3006 2619 2597 2516 
z
" transform="scale(0.015625)"/>
       <path id="DejaVuSans-38" d="M 2034 2216 
Q 1584 2216 1326 1975 
Q 1069 1734 1069 1313 
Q 1069 891 1326 650 
Q 1584 409 2034 409 
Q 2484 409 2743 651 
Q 3003 894 3003 1313 
Q 3003 1734 2745 1975 
Q 2488 2216 2034 2216 
z
M 1403 2484 
Q 997 2584 770 2862 
Q 544 3141 544 3541 
Q 544 4100 942 4425 
Q 1341 4750 2034 4750 
Q 2731 4750 3128 4425 
Q 3525 4100 3525 3541 
Q 3525 3141 3298 2862 
Q 3072 2584 2669 2484 
Q 3125 2378 3379 2068 
Q 3634 1759 3634 1313 
Q 3634 634 3220 271 
Q 2806 -91 2034 -91 
Q 1263 -91 848 271 
Q 434 634 434 1313 
Q 434 1759 690 2068 
Q 947 2378 1403 2484 
z
M 1172 3481 
Q 1172 3119 1398 2916 
Q 1625 2713 2034 2713 
Q 2441 2713 2670 2916 
Q 2900 3119 2900 3481 
Q 2900 3844 2670 4047 
Q 2441 4250 2034 4250 
Q 1625 4250 1398 4047 
Q 1172 3844 1172 3481 
z
" transform="scale(0.015625)"/>
       <path id="DejaVuSans-25" d="M 4653 2053 
Q 4381 2053 4226 1822 
Q 4072 1591 4072 1178 
Q 4072 772 4226 539 
Q 4381 306 4653 306 
Q 4919 306 5073 539 
Q 5228 772 5228 1178 
Q 5228 1588 5073 1820 
Q 4919 2053 4653 2053 
z
M 4653 2450 
Q 5147 2450 5437 2106 
Q 5728 1763 5728 1178 
Q 5728 594 5436 251 
Q 5144 -91 4653 -91 
Q 4153 -91 3862 251 
Q 3572 594 3572 1178 
Q 3572 1766 3864 2108 
Q 4156 2450 4653 2450 
z
M 1428 4353 
Q 1159 4353 1004 4120 
Q 850 3888 850 3481 
Q 850 3069 1003 2837 
Q 1156 2606 1428 2606 
Q 1700 2606 1854 2837 
Q 2009 3069 2009 3481 
Q 2009 3884 1853 4118 
Q 1697 4353 1428 4353 
z
M 4250 4750 
L 4750 4750 
L 1831 -91 
L 1331 -91 
L 4250 4750 
z
M 1428 4750 
Q 1922 4750 2215 4408 
Q 2509 4066 2509 3481 
Q 2509 2891 2217 2550 
Q 1925 2209 1428 2209 
Q 931 2209 642 2551 
Q 353 2894 353 3481 
Q 353 4063 643 4406 
Q 934 4750 1428 4750 
z
" transform="scale(0.015625)"/>
       <path id="DejaVuSans-29" d="M 513 4856 
L 1013 4856 
Q 1481 4119 1714 3412 
Q 1947 2706 1947 2009 
Q 1947 1309 1714 600 
Q 1481 -109 1013 -844 
L 513 -844 
Q 928 -128 1133 580 
Q 1338 1288 1338 2009 
Q 1338 2731 1133 3434 
Q 928 4138 513 4856 
z
" transform="scale(0.015625)"/>
      </defs>
      <use xlink:href="#DejaVuSans-50"/>
      <use xlink:href="#DejaVuSans-43" x="60.302734"/>
      <use xlink:href="#DejaVuSans-20" x="130.126953"/>
      <use xlink:href="#DejaVuSans-31" x="161.914062"/>
      <use xlink:href="#DejaVuSans-20" x="225.537109"/>
      <use xlink:href="#DejaVuSans-28" x="257.324219"/>
      <use xlink:href="#DejaVuSans-31" x="296.337891"/>
      <use xlink:href="#DejaVuSans-34" x="359.960938"/>
      <use xlink:href="#DejaVuSans-2e" x="423.583984"/>
      <use xlink:href="#DejaVuSans-33" x="455.371094"/>
      <use xlink:href="#DejaVuSans-38" x="518.994141"/>
      <use xlink:href="#DejaVuSans-25" x="582.617188"/>
      <use xlink:href="#DejaVuSans-29" x="677.636719"/>
     </g>
    </g>
   </g>
   <g id="matplotlib.axis_2">
    <g id="ytick_1">
     <g id="line2d_6">
      <defs>
       <path id="mf337682ae5" d="M 0 0 
L -8 0 
" style="stroke: #000000"/>
      </defs>
      <g>
       <use xlink:href="#mf337682ae5" x="59.639375" y="189.825295" style="stroke: #000000"/>
      </g>
     </g>
     <g id="text_7">
      <!-- 20 -->
      <g transform="translate(22.81375 194.384358) scale(0.12 -0.12)">
       <use xlink:href="#DejaVuSans-2212"/>
       <use xlink:href="#DejaVuSans-32" x="83.789062"/>
       <use xlink:href="#DejaVuSans-30" x="147.412109"/>
      </g>
     </g>
    </g>
    <g id="ytick_2">
     <g id="line2d_7">
      <g>
       <use xlink:href="#mf337682ae5" x="59.639375" y="150.508069" style="stroke: #000000"/>
      </g>
     </g>
     <g id="text_8">
      <!-- 10 -->
      <g transform="translate(22.81375 155.067132) scale(0.12 -0.12)">
       <use xlink:href="#DejaVuSans-2212"/>
       <use xlink:href="#DejaVuSans-31" x="83.789062"/>
       <use xlink:href="#DejaVuSans-30" x="147.412109"/>
      </g>
     </g>
    </g>
    <g id="ytick_3">
     <g id="line2d_8">
      <g>
       <use xlink:href="#mf337682ae5" x="59.639375" y="111.190843" style="stroke: #000000"/>
      </g>
     </g>
     <g id="text_9">
      <!-- 0 -->
      <g transform="translate(40.504375 115.749906) scale(0.12 -0.12)">
       <use xlink:href="#DejaVuSans-30"/>
      </g>
     </g>
    </g>
    <g id="ytick_4">
     <g id="line2d_9">
      <g>
       <use xlink:href="#mf337682ae5" x="59.639375" y="71.873617" style="stroke: #000000"/>
      </g>
     </g>
     <g id="text_10">
      <!-- 10 -->
      <g transform="translate(32.869375 76.432679) scale(0.12 -0.12)">
       <use xlink:href="#DejaVuSans-31"/>
       <use xlink:href="#DejaVuSans-30" x="63.623047"/>
      </g>
     </g>
    </g>
    <g id="ytick_5">
     <g id="line2d_10">
      <g>
       <use xlink:href="#mf337682ae5" x="59.639375" y="32.556391" style="stroke: #000000"/>
      </g>
     </g>
     <g id="text_11">
      <!-- 20 -->
      <g transform="translate(32.869375 37.115453) scale(0.12 -0.12)">
       <use xlink:href="#DejaVuSans-32"/>
       <use xlink:href="#DejaVuSans-30" x="63.623047"/>
      </g>
     </g>
    </g>
    <g id="text_12">
     <!-- PC 2 (7.33%) -->
     <g transform="translate(16.318125 139.144717) rotate(-90) scale(0.12 -0.12)">
      <defs>
       <path id="DejaVuSans-37" d="M 525 4666 
L 3525 4666 
L 3525 4397 
L 1831 0 
L 1172 0 
L 2766 4134 
L 525 4134 
L 525 4666 
z
" transform="scale(0.015625)"/>
      </defs>
      <use xlink:href="#DejaVuSans-50"/>
      <use xlink:href="#DejaVuSans-43" x="60.302734"/>
      <use xlink:href="#DejaVuSans-20" x="130.126953"/>
      <use xlink:href="#DejaVuSans-32" x="161.914062"/>
      <use xlink:href="#DejaVuSans-20" x="225.537109"/>
      <use xlink:href="#DejaVuSans-28" x="257.324219"/>
      <use xlink:href="#DejaVuSans-37" x="296.337891"/>
      <use xlink:href="#DejaVuSans-2e" x="359.960938"/>
      <use xlink:href="#DejaVuSans-33" x="391.748047"/>
      <use xlink:href="#DejaVuSans-33" x="455.371094"/>
      <use xlink:href="#DejaVuSans-25" x="518.994141"/>
      <use xlink:href="#DejaVuSans-29" x="614.013672"/>
     </g>
    </g>
   </g>
   <g id="patch_3">
    <path d="M 59.639375 192.727559 
L 59.639375 7.2 
" style="fill: none; stroke: #000000; stroke-width: 2; stroke-linejoin: miter; stroke-linecap: square"/>
   </g>
   <g id="patch_4">
    <path d="M 59.639375 192.727559 
L 245.166934 192.727559 
" style="fill: none; stroke: #000000; stroke-width: 2; stroke-linejoin: miter; stroke-linecap: square"/>
   </g>
  </g>
 </g>
 <defs>
  <clipPath id="p9cae5561a4">
   <rect x="59.639375" y="7.2" width="185.527559" height="185.527559"/>
  </clipPath>
 </defs>
</svg>
