<?xml version="1.0" encoding="utf-8" standalone="no"?>
<!DOCTYPE svg PUBLIC "-//W3C//DTD SVG 1.1//EN"
  "http://www.w3.org/Graphics/SVG/1.1/DTD/svg11.dtd">
<svg xmlns:xlink="http://www.w3.org/1999/xlink" width="252.366934pt" height="238.655059pt" viewBox="0 0 252.366934 238.655059" xmlns="http://www.w3.org/2000/svg" version="1.1">
 <metadata>
  <rdf:RDF xmlns:dc="http://purl.org/dc/elements/1.1/" xmlns:cc="http://creativecommons.org/ns#" xmlns:rdf="http://www.w3.org/1999/02/22-rdf-syntax-ns#">
   <cc:Work>
    <dc:type rdf:resource="http://purl.org/dc/dcmitype/StillImage"/>
    <dc:date>2025-08-27T15:09:21.260526</dc:date>
    <dc:format>image/svg+xml</dc:format>
    <dc:creator>
     <cc:Agent>
      <dc:title>Matplotlib v3.6.2, https://matplotlib.org/</dc:title>
     </cc:Agent>
    </dc:creator>
   </cc:Work>
  </rdf:RDF>
 </metadata>
 <defs>
  <style type="text/css">*{stroke-linejoin: round; stroke-linecap: butt}</style>
 </defs>
 <g id="figure_1">
  <g id="patch_1">
   <path d="M 0 238.655059 
L 252.366934 238.655059 
L 252.366934 0 
L 0 0 
L 0 238.655059 
z
" style="fill: none"/>
  </g>
  <g id="axes_1">
   <g id="patch_2">
    <path d="M 59.639375 192.727559 
L 245.166934 192.727559 
L 245.166934 7.2 
L 59.639375 7.2 
L 59.639375 192.727559 
z
" style="fill: none"/>
   </g>
   <g id="PathCollection_1">
    <path d="M 80.740776 76.807748 
L 82.540776 73.807748 
L 80.740776 70.807748 
L 78.940776 73.807748 
z
" clip-path="url(#p27ead537d6)" style="fill: #332288; fill-opacity: 0.6; stroke: #ffffff; stroke-opacity: 0.6; stroke-width: 0.339411"/>
    <path d="M 117.031721 58.554376 
L 118.831721 55.554376 
L 117.031721 52.554376 
L 115.231721 55.554376 
z
" clip-path="url(#p27ead537d6)" style="fill: #332288; fill-opacity: 0.6; stroke: #ffffff; stroke-opacity: 0.6; stroke-width: 0.339411"/>
    <path d="M 105.618107 62.138517 
L 107.418107 59.138517 
L 105.618107 56.138517 
L 103.818107 59.138517 
z
" clip-path="url(#p27ead537d6)" style="fill: #332288; fill-opacity: 0.6; stroke: #ffffff; stroke-opacity: 0.6; stroke-width: 0.339411"/>
    <path d="M 156.721195 41.730869 
L 158.521195 38.730869 
L 156.721195 35.730869 
L 154.921195 38.730869 
z
" clip-path="url(#p27ead537d6)" style="fill: #332288; fill-opacity: 0.6; stroke: #ffffff; stroke-opacity: 0.6; stroke-width: 0.339411"/>
    <path d="M 134.96298 45.142742 
L 136.76298 42.142742 
L 134.96298 39.142742 
L 133.16298 42.142742 
z
" clip-path="url(#p27ead537d6)" style="fill: #332288; fill-opacity: 0.6; stroke: #ffffff; stroke-opacity: 0.6; stroke-width: 0.339411"/>
    <path d="M 162.046509 90.926128 
L 163.846509 87.926128 
L 162.046509 84.926128 
L 160.246509 87.926128 
z
" clip-path="url(#p27ead537d6)" style="fill: #332288; fill-opacity: 0.6; stroke: #ffffff; stroke-opacity: 0.6; stroke-width: 0.339411"/>
    <path d="M 175.648271 76.504826 
L 177.448271 73.504826 
L 175.648271 70.504826 
L 173.848271 73.504826 
z
" clip-path="url(#p27ead537d6)" style="fill: #332288; fill-opacity: 0.6; stroke: #ffffff; stroke-opacity: 0.6; stroke-width: 0.339411"/>
    <path d="M 87.615506 68.211607 
L 89.415506 65.211607 
L 87.615506 62.211607 
L 85.815506 65.211607 
z
" clip-path="url(#p27ead537d6)" style="fill: #332288; fill-opacity: 0.6; stroke: #ffffff; stroke-opacity: 0.6; stroke-width: 0.339411"/>
    <path d="M 151.350586 100.158678 
L 153.150586 97.158678 
L 151.350586 94.158678 
L 149.550586 97.158678 
z
" clip-path="url(#p27ead537d6)" style="fill: #332288; fill-opacity: 0.6; stroke: #ffffff; stroke-opacity: 0.6; stroke-width: 0.339411"/>
    <path d="M 183.387738 118.995548 
L 185.187738 115.995548 
L 183.387738 112.995548 
L 181.587738 115.995548 
z
" clip-path="url(#p27ead537d6)" style="fill: #332288; fill-opacity: 0.6; stroke: #ffffff; stroke-opacity: 0.6; stroke-width: 0.339411"/>
    <path d="M 151.361535 34.430853 
L 153.161535 31.430853 
L 151.361535 28.430853 
L 149.561535 31.430853 
z
" clip-path="url(#p27ead537d6)" style="fill: #332288; fill-opacity: 0.6; stroke: #ffffff; stroke-opacity: 0.6; stroke-width: 0.339411"/>
    <path d="M 93.346918 63.785081 
L 95.146918 60.785081 
L 93.346918 57.785081 
L 91.546918 60.785081 
z
" clip-path="url(#p27ead537d6)" style="fill: #332288; fill-opacity: 0.6; stroke: #ffffff; stroke-opacity: 0.6; stroke-width: 0.339411"/>
    <path d="M 103.730129 69.15128 
L 105.530129 66.15128 
L 103.730129 63.15128 
L 101.930129 66.15128 
z
" clip-path="url(#p27ead537d6)" style="fill: #332288; fill-opacity: 0.6; stroke: #ffffff; stroke-opacity: 0.6; stroke-width: 0.339411"/>
    <path d="M 166.939875 51.199158 
L 168.739875 48.199158 
L 166.939875 45.199158 
L 165.139875 48.199158 
z
" clip-path="url(#p27ead537d6)" style="fill: #332288; fill-opacity: 0.6; stroke: #ffffff; stroke-opacity: 0.6; stroke-width: 0.339411"/>
    <path d="M 147.492628 66.073167 
L 149.292628 63.073167 
L 147.492628 60.073167 
L 145.692628 63.073167 
z
" clip-path="url(#p27ead537d6)" style="fill: #332288; fill-opacity: 0.6; stroke: #ffffff; stroke-opacity: 0.6; stroke-width: 0.339411"/>
    <path d="M 156.933628 68.675909 
L 158.733628 65.675909 
L 156.933628 62.675909 
L 155.133628 65.675909 
z
" clip-path="url(#p27ead537d6)" style="fill: #332288; fill-opacity: 0.6; stroke: #ffffff; stroke-opacity: 0.6; stroke-width: 0.339411"/>
    <path d="M 150.253701 42.447691 
L 152.053701 39.447691 
L 150.253701 36.447691 
L 148.453701 39.447691 
z
" clip-path="url(#p27ead537d6)" style="fill: #332288; fill-opacity: 0.6; stroke: #ffffff; stroke-opacity: 0.6; stroke-width: 0.339411"/>
    <path d="M 166.288318 94.746067 
L 168.088318 91.746067 
L 166.288318 88.746067 
L 164.488318 91.746067 
z
" clip-path="url(#p27ead537d6)" style="fill: #332288; fill-opacity: 0.6; stroke: #ffffff; stroke-opacity: 0.6; stroke-width: 0.339411"/>
    <path d="M 91.931531 65.137119 
L 93.731531 62.137119 
L 91.931531 59.137119 
L 90.131531 62.137119 
z
" clip-path="url(#p27ead537d6)" style="fill: #332288; fill-opacity: 0.6; stroke: #ffffff; stroke-opacity: 0.6; stroke-width: 0.339411"/>
    <path d="M 158.774686 82.58069 
L 160.574686 79.58069 
L 158.774686 76.58069 
L 156.974686 79.58069 
z
" clip-path="url(#p27ead537d6)" style="fill: #332288; fill-opacity: 0.6; stroke: #ffffff; stroke-opacity: 0.6; stroke-width: 0.339411"/>
    <path d="M 166.295557 94.936557 
L 168.095557 91.936557 
L 166.295557 88.936557 
L 164.495557 91.936557 
z
" clip-path="url(#p27ead537d6)" style="fill: #332288; fill-opacity: 0.6; stroke: #ffffff; stroke-opacity: 0.6; stroke-width: 0.339411"/>
    <path d="M 106.512212 46.813229 
L 108.312212 43.813229 
L 106.512212 40.813229 
L 104.712212 43.813229 
z
" clip-path="url(#p27ead537d6)" style="fill: #332288; fill-opacity: 0.6; stroke: #ffffff; stroke-opacity: 0.6; stroke-width: 0.339411"/>
    <path d="M 154.738531 35.615396 
L 156.538531 32.615396 
L 154.738531 29.615396 
L 152.938531 32.615396 
z
" clip-path="url(#p27ead537d6)" style="fill: #332288; fill-opacity: 0.6; stroke: #ffffff; stroke-opacity: 0.6; stroke-width: 0.339411"/>
    <path d="M 105.542717 62.188848 
L 107.342717 59.188848 
L 105.542717 56.188848 
L 103.742717 59.188848 
z
" clip-path="url(#p27ead537d6)" style="fill: #332288; fill-opacity: 0.6; stroke: #ffffff; stroke-opacity: 0.6; stroke-width: 0.339411"/>
    <path d="M 156.229008 31.018876 
L 158.029008 28.018876 
L 156.229008 25.018876 
L 154.429008 28.018876 
z
" clip-path="url(#p27ead537d6)" style="fill: #332288; fill-opacity: 0.6; stroke: #ffffff; stroke-opacity: 0.6; stroke-width: 0.339411"/>
    <path d="M 119.084221 59.744253 
L 120.884221 56.744253 
L 119.084221 53.744253 
L 117.284221 56.744253 
z
" clip-path="url(#p27ead537d6)" style="fill: #332288; fill-opacity: 0.6; stroke: #ffffff; stroke-opacity: 0.6; stroke-width: 0.339411"/>
    <path d="M 157.207891 44.454852 
L 159.007891 41.454852 
L 157.207891 38.454852 
L 155.407891 41.454852 
z
" clip-path="url(#p27ead537d6)" style="fill: #332288; fill-opacity: 0.6; stroke: #ffffff; stroke-opacity: 0.6; stroke-width: 0.339411"/>
    <path d="M 169.555001 89.019983 
L 171.355001 86.019983 
L 169.555001 83.019983 
L 167.755001 86.019983 
z
" clip-path="url(#p27ead537d6)" style="fill: #332288; fill-opacity: 0.6; stroke: #ffffff; stroke-opacity: 0.6; stroke-width: 0.339411"/>
    <path d="M 89.31776 64.612876 
L 91.11776 61.612876 
L 89.31776 58.612876 
L 87.51776 61.612876 
z
" clip-path="url(#p27ead537d6)" style="fill: #332288; fill-opacity: 0.6; stroke: #ffffff; stroke-opacity: 0.6; stroke-width: 0.339411"/>
    <path d="M 141.090549 43.743445 
L 142.890549 40.743445 
L 141.090549 37.743445 
L 139.290549 40.743445 
z
" clip-path="url(#p27ead537d6)" style="fill: #332288; fill-opacity: 0.6; stroke: #ffffff; stroke-opacity: 0.6; stroke-width: 0.339411"/>
    <path d="M 89.204844 64.823693 
L 91.004844 61.823693 
L 89.204844 58.823693 
L 87.404844 61.823693 
z
" clip-path="url(#p27ead537d6)" style="fill: #332288; fill-opacity: 0.6; stroke: #ffffff; stroke-opacity: 0.6; stroke-width: 0.339411"/>
    <path d="M 124.052958 64.848011 
L 125.852958 61.848011 
L 124.052958 58.848011 
L 122.252958 61.848011 
z
" clip-path="url(#p27ead537d6)" style="fill: #332288; fill-opacity: 0.6; stroke: #ffffff; stroke-opacity: 0.6; stroke-width: 0.339411"/>
    <path d="M 89.681958 64.3125 
L 91.481958 61.3125 
L 89.681958 58.3125 
L 87.881958 61.3125 
z
" clip-path="url(#p27ead537d6)" style="fill: #332288; fill-opacity: 0.6; stroke: #ffffff; stroke-opacity: 0.6; stroke-width: 0.339411"/>
    <path d="M 105.512212 69.594823 
L 107.312212 66.594823 
L 105.512212 63.594823 
L 103.712212 66.594823 
z
" clip-path="url(#p27ead537d6)" style="fill: #332288; fill-opacity: 0.6; stroke: #ffffff; stroke-opacity: 0.6; stroke-width: 0.339411"/>
    <path d="M 122.210111 53.960768 
L 124.010111 50.960768 
L 122.210111 47.960768 
L 120.410111 50.960768 
z
" clip-path="url(#p27ead537d6)" style="fill: #332288; fill-opacity: 0.6; stroke: #ffffff; stroke-opacity: 0.6; stroke-width: 0.339411"/>
    <path d="M 156.915428 33.703087 
L 158.715428 30.703087 
L 156.915428 27.703087 
L 155.115428 30.703087 
z
" clip-path="url(#p27ead537d6)" style="fill: #332288; fill-opacity: 0.6; stroke: #ffffff; stroke-opacity: 0.6; stroke-width: 0.339411"/>
    <path d="M 114.613226 69.45753 
L 116.413226 66.45753 
L 114.613226 63.45753 
L 112.813226 66.45753 
z
" clip-path="url(#p27ead537d6)" style="fill: #332288; fill-opacity: 0.6; stroke: #ffffff; stroke-opacity: 0.6; stroke-width: 0.339411"/>
    <path d="M 155.555321 37.666442 
L 157.355321 34.666442 
L 155.555321 31.666442 
L 153.755321 34.666442 
z
" clip-path="url(#p27ead537d6)" style="fill: #332288; fill-opacity: 0.6; stroke: #ffffff; stroke-opacity: 0.6; stroke-width: 0.339411"/>
    <path d="M 96.345321 59.352829 
L 98.145321 56.352829 
L 96.345321 53.352829 
L 94.545321 56.352829 
z
" clip-path="url(#p27ead537d6)" style="fill: #332288; fill-opacity: 0.6; stroke: #ffffff; stroke-opacity: 0.6; stroke-width: 0.339411"/>
    <path d="M 80.033042 78.014837 
L 81.833042 75.014837 
L 80.033042 72.014837 
L 78.233042 75.014837 
z
" clip-path="url(#p27ead537d6)" style="fill: #332288; fill-opacity: 0.6; stroke: #ffffff; stroke-opacity: 0.6; stroke-width: 0.339411"/>
    <path d="M 117.740744 60.161874 
L 119.540744 57.161874 
L 117.740744 54.161874 
L 115.940744 57.161874 
z
" clip-path="url(#p27ead537d6)" style="fill: #332288; fill-opacity: 0.6; stroke: #ffffff; stroke-opacity: 0.6; stroke-width: 0.339411"/>
    <path d="M 164.240819 69.498376 
L 166.040819 66.498376 
L 164.240819 63.498376 
L 162.440819 66.498376 
z
" clip-path="url(#p27ead537d6)" style="fill: #332288; fill-opacity: 0.6; stroke: #ffffff; stroke-opacity: 0.6; stroke-width: 0.339411"/>
    <path d="M 100.817982 127.308489 
L 102.617982 124.308489 
L 100.817982 121.308489 
L 99.017982 124.308489 
z
" clip-path="url(#p27ead537d6)" style="fill: #332288; fill-opacity: 0.6; stroke: #ffffff; stroke-opacity: 0.6; stroke-width: 0.339411"/>
    <path d="M 149.930607 41.757589 
L 151.730607 38.757589 
L 149.930607 35.757589 
L 148.130607 38.757589 
z
" clip-path="url(#p27ead537d6)" style="fill: #332288; fill-opacity: 0.6; stroke: #ffffff; stroke-opacity: 0.6; stroke-width: 0.339411"/>
    <path d="M 163.642812 90.825332 
L 165.442812 87.825332 
L 163.642812 84.825332 
L 161.842812 87.825332 
z
" clip-path="url(#p27ead537d6)" style="fill: #332288; fill-opacity: 0.6; stroke: #ffffff; stroke-opacity: 0.6; stroke-width: 0.339411"/>
    <path d="M 153.577535 33.497112 
L 155.377535 30.497112 
L 153.577535 27.497112 
L 151.777535 30.497112 
z
" clip-path="url(#p27ead537d6)" style="fill: #332288; fill-opacity: 0.6; stroke: #ffffff; stroke-opacity: 0.6; stroke-width: 0.339411"/>
    <path d="M 167.369461 81.84837 
L 169.169461 78.84837 
L 167.369461 75.84837 
L 165.569461 78.84837 
z
" clip-path="url(#p27ead537d6)" style="fill: #332288; fill-opacity: 0.6; stroke: #ffffff; stroke-opacity: 0.6; stroke-width: 0.339411"/>
    <path d="M 118.975132 60.780166 
L 120.775132 57.780166 
L 118.975132 54.780166 
L 117.175132 57.780166 
z
" clip-path="url(#p27ead537d6)" style="fill: #332288; fill-opacity: 0.6; stroke: #ffffff; stroke-opacity: 0.6; stroke-width: 0.339411"/>
    <path d="M 163.357764 73.88369 
L 165.157764 70.88369 
L 163.357764 67.88369 
L 161.557764 70.88369 
z
" clip-path="url(#p27ead537d6)" style="fill: #332288; fill-opacity: 0.6; stroke: #ffffff; stroke-opacity: 0.6; stroke-width: 0.339411"/>
    <path d="M 168.607191 26.01381 
L 170.407191 23.01381 
L 168.607191 20.01381 
L 166.807191 23.01381 
z
" clip-path="url(#p27ead537d6)" style="fill: #332288; fill-opacity: 0.6; stroke: #ffffff; stroke-opacity: 0.6; stroke-width: 0.339411"/>
    <path d="M 166.717602 100.374949 
L 168.517602 97.374949 
L 166.717602 94.374949 
L 164.917602 97.374949 
z
" clip-path="url(#p27ead537d6)" style="fill: #332288; fill-opacity: 0.6; stroke: #ffffff; stroke-opacity: 0.6; stroke-width: 0.339411"/>
    <path d="M 109.062237 122.540473 
L 110.862237 119.540473 
L 109.062237 116.540473 
L 107.262237 119.540473 
z
" clip-path="url(#p27ead537d6)" style="fill: #332288; fill-opacity: 0.6; stroke: #ffffff; stroke-opacity: 0.6; stroke-width: 0.339411"/>
    <path d="M 160.384134 76.421893 
L 162.184134 73.421893 
L 160.384134 70.421893 
L 158.584134 73.421893 
z
" clip-path="url(#p27ead537d6)" style="fill: #332288; fill-opacity: 0.6; stroke: #ffffff; stroke-opacity: 0.6; stroke-width: 0.339411"/>
    <path d="M 156.091784 37.581227 
L 157.891784 34.581227 
L 156.091784 31.581227 
L 154.291784 34.581227 
z
" clip-path="url(#p27ead537d6)" style="fill: #332288; fill-opacity: 0.6; stroke: #ffffff; stroke-opacity: 0.6; stroke-width: 0.339411"/>
    <path d="M 151.533797 33.849745 
L 153.333797 30.849745 
L 151.533797 27.849745 
L 149.733797 30.849745 
z
" clip-path="url(#p27ead537d6)" style="fill: #332288; fill-opacity: 0.6; stroke: #ffffff; stroke-opacity: 0.6; stroke-width: 0.339411"/>
    <path d="M 89.728635 62.160963 
L 91.528635 59.160963 
L 89.728635 56.160963 
L 87.928635 59.160963 
z
" clip-path="url(#p27ead537d6)" style="fill: #332288; fill-opacity: 0.6; stroke: #ffffff; stroke-opacity: 0.6; stroke-width: 0.339411"/>
    <path d="M 162.007542 23.836422 
L 163.807542 20.836422 
L 162.007542 17.836422 
L 160.207542 20.836422 
z
" clip-path="url(#p27ead537d6)" style="fill: #332288; fill-opacity: 0.6; stroke: #ffffff; stroke-opacity: 0.6; stroke-width: 0.339411"/>
    <path d="M 162.695836 56.467297 
L 164.495836 53.467297 
L 162.695836 50.467297 
L 160.895836 53.467297 
z
" clip-path="url(#p27ead537d6)" style="fill: #332288; fill-opacity: 0.6; stroke: #ffffff; stroke-opacity: 0.6; stroke-width: 0.339411"/>
    <path d="M 153.567206 37.202873 
L 155.367206 34.202873 
L 153.567206 31.202873 
L 151.767206 34.202873 
z
" clip-path="url(#p27ead537d6)" style="fill: #332288; fill-opacity: 0.6; stroke: #ffffff; stroke-opacity: 0.6; stroke-width: 0.339411"/>
    <path d="M 151.526904 33.836155 
L 153.326904 30.836155 
L 151.526904 27.836155 
L 149.726904 30.836155 
z
" clip-path="url(#p27ead537d6)" style="fill: #332288; fill-opacity: 0.6; stroke: #ffffff; stroke-opacity: 0.6; stroke-width: 0.339411"/>
    <path d="M 89.065364 67.059613 
L 90.865364 64.059613 
L 89.065364 61.059613 
L 87.265364 64.059613 
z
" clip-path="url(#p27ead537d6)" style="fill: #332288; fill-opacity: 0.6; stroke: #ffffff; stroke-opacity: 0.6; stroke-width: 0.339411"/>
    <path d="M 164.968126 82.748735 
L 166.768126 79.748735 
L 164.968126 76.748735 
L 163.168126 79.748735 
z
" clip-path="url(#p27ead537d6)" style="fill: #332288; fill-opacity: 0.6; stroke: #ffffff; stroke-opacity: 0.6; stroke-width: 0.339411"/>
    <path d="M 139.009942 59.176593 
L 140.809942 56.176593 
L 139.009942 53.176593 
L 137.209942 56.176593 
z
" clip-path="url(#p27ead537d6)" style="fill: #332288; fill-opacity: 0.6; stroke: #ffffff; stroke-opacity: 0.6; stroke-width: 0.339411"/>
    <path d="M 156.2891 40.670695 
L 158.0891 37.670695 
L 156.2891 34.670695 
L 154.4891 37.670695 
z
" clip-path="url(#p27ead537d6)" style="fill: #332288; fill-opacity: 0.6; stroke: #ffffff; stroke-opacity: 0.6; stroke-width: 0.339411"/>
    <path d="M 112.53262 70.807806 
L 110.4113 75.050447 
L 114.653941 75.050447 
z
" clip-path="url(#p27ead537d6)" style="fill: #117733; fill-opacity: 0.6; stroke: #ffffff; stroke-opacity: 0.6; stroke-width: 0.339411"/>
    <path d="M 143.957152 143.310576 
L 141.835832 147.553217 
L 146.078472 147.553217 
z
" clip-path="url(#p27ead537d6)" style="fill: #117733; fill-opacity: 0.6; stroke: #ffffff; stroke-opacity: 0.6; stroke-width: 0.339411"/>
    <path d="M 109.187999 138.525918 
L 107.066678 142.768558 
L 111.309319 142.768558 
z
" clip-path="url(#p27ead537d6)" style="fill: #117733; fill-opacity: 0.6; stroke: #ffffff; stroke-opacity: 0.6; stroke-width: 0.339411"/>
    <path d="M 111.860004 98.334988 
L 109.738684 102.577629 
L 113.981324 102.577629 
z
" clip-path="url(#p27ead537d6)" style="fill: #117733; fill-opacity: 0.6; stroke: #ffffff; stroke-opacity: 0.6; stroke-width: 0.339411"/>
    <path d="M 107.360012 142.488662 
L 105.238692 146.731303 
L 109.481333 146.731303 
z
" clip-path="url(#p27ead537d6)" style="fill: #117733; fill-opacity: 0.6; stroke: #ffffff; stroke-opacity: 0.6; stroke-width: 0.339411"/>
    <path d="M 93.162519 139.079237 
L 91.041199 143.321878 
L 95.283839 143.321878 
z
" clip-path="url(#p27ead537d6)" style="fill: #117733; fill-opacity: 0.6; stroke: #ffffff; stroke-opacity: 0.6; stroke-width: 0.339411"/>
    <path d="M 82.012 107.509402 
L 79.89068 111.752043 
L 84.13332 111.752043 
z
" clip-path="url(#p27ead537d6)" style="fill: #117733; fill-opacity: 0.6; stroke: #ffffff; stroke-opacity: 0.6; stroke-width: 0.339411"/>
    <path d="M 89.915187 123.103544 
L 87.793867 127.346185 
L 92.036507 127.346185 
z
" clip-path="url(#p27ead537d6)" style="fill: #117733; fill-opacity: 0.6; stroke: #ffffff; stroke-opacity: 0.6; stroke-width: 0.339411"/>
    <path d="M 119.972287 149.989631 
L 117.850967 154.232271 
L 122.093607 154.232271 
z
" clip-path="url(#p27ead537d6)" style="fill: #117733; fill-opacity: 0.6; stroke: #ffffff; stroke-opacity: 0.6; stroke-width: 0.339411"/>
    <path d="M 121.594348 134.099058 
L 119.473028 138.341699 
L 123.715669 138.341699 
z
" clip-path="url(#p27ead537d6)" style="fill: #117733; fill-opacity: 0.6; stroke: #ffffff; stroke-opacity: 0.6; stroke-width: 0.339411"/>
    <path d="M 131.258729 101.019263 
L 129.137409 105.261904 
L 133.38005 105.261904 
z
" clip-path="url(#p27ead537d6)" style="fill: #117733; fill-opacity: 0.6; stroke: #ffffff; stroke-opacity: 0.6; stroke-width: 0.339411"/>
    <path d="M 88.71598 125.322485 
L 86.594659 129.565126 
L 90.8373 129.565126 
z
" clip-path="url(#p27ead537d6)" style="fill: #117733; fill-opacity: 0.6; stroke: #ffffff; stroke-opacity: 0.6; stroke-width: 0.339411"/>
    <path d="M 138.307478 102.536483 
L 136.186158 106.779123 
L 140.428798 106.779123 
z
" clip-path="url(#p27ead537d6)" style="fill: #117733; fill-opacity: 0.6; stroke: #ffffff; stroke-opacity: 0.6; stroke-width: 0.339411"/>
    <path d="M 115.70401 76.220077 
L 113.58269 80.462718 
L 117.825331 80.462718 
z
" clip-path="url(#p27ead537d6)" style="fill: #117733; fill-opacity: 0.6; stroke: #ffffff; stroke-opacity: 0.6; stroke-width: 0.339411"/>
    <path d="M 118.553254 133.1746 
L 116.431933 137.417241 
L 120.674574 137.417241 
z
" clip-path="url(#p27ead537d6)" style="fill: #117733; fill-opacity: 0.6; stroke: #ffffff; stroke-opacity: 0.6; stroke-width: 0.339411"/>
    <path d="M 130.310789 133.337788 
L 128.189468 137.580429 
L 132.432109 137.580429 
z
" clip-path="url(#p27ead537d6)" style="fill: #117733; fill-opacity: 0.6; stroke: #ffffff; stroke-opacity: 0.6; stroke-width: 0.339411"/>
    <path d="M 109.164416 74.433454 
L 107.043095 78.676094 
L 111.285736 78.676094 
z
" clip-path="url(#p27ead537d6)" style="fill: #117733; fill-opacity: 0.6; stroke: #ffffff; stroke-opacity: 0.6; stroke-width: 0.339411"/>
    <path d="M 83.398333 141.523371 
L 81.277012 145.766012 
L 85.519653 145.766012 
z
" clip-path="url(#p27ead537d6)" style="fill: #117733; fill-opacity: 0.6; stroke: #ffffff; stroke-opacity: 0.6; stroke-width: 0.339411"/>
    <path d="M 149.103505 117.806009 
L 146.982185 122.04865 
L 151.224826 122.04865 
z
" clip-path="url(#p27ead537d6)" style="fill: #117733; fill-opacity: 0.6; stroke: #ffffff; stroke-opacity: 0.6; stroke-width: 0.339411"/>
    <path d="M 160.075356 110.110239 
L 157.954036 114.35288 
L 162.196676 114.35288 
z
" clip-path="url(#p27ead537d6)" style="fill: #117733; fill-opacity: 0.6; stroke: #ffffff; stroke-opacity: 0.6; stroke-width: 0.339411"/>
    <path d="M 164.111764 52.491308 
L 161.990444 56.733949 
L 166.233084 56.733949 
z
" clip-path="url(#p27ead537d6)" style="fill: #117733; fill-opacity: 0.6; stroke: #ffffff; stroke-opacity: 0.6; stroke-width: 0.339411"/>
    <path d="M 85.994904 157.17034 
L 83.873583 161.41298 
L 88.116224 161.41298 
z
" clip-path="url(#p27ead537d6)" style="fill: #117733; fill-opacity: 0.6; stroke: #ffffff; stroke-opacity: 0.6; stroke-width: 0.339411"/>
    <path d="M 126.13608 131.073769 
L 124.01476 135.31641 
L 128.257401 135.31641 
z
" clip-path="url(#p27ead537d6)" style="fill: #117733; fill-opacity: 0.6; stroke: #ffffff; stroke-opacity: 0.6; stroke-width: 0.339411"/>
    <path d="M 105.272808 90.322022 
L 103.151488 94.564663 
L 107.394129 94.564663 
z
" clip-path="url(#p27ead537d6)" style="fill: #117733; fill-opacity: 0.6; stroke: #ffffff; stroke-opacity: 0.6; stroke-width: 0.339411"/>
    <path d="M 108.955206 176.067033 
L 106.833885 180.309674 
L 111.076526 180.309674 
z
" clip-path="url(#p27ead537d6)" style="fill: #117733; fill-opacity: 0.6; stroke: #ffffff; stroke-opacity: 0.6; stroke-width: 0.339411"/>
    <path d="M 91.965806 158.781489 
L 89.844486 163.024129 
L 94.087127 163.024129 
z
" clip-path="url(#p27ead537d6)" style="fill: #117733; fill-opacity: 0.6; stroke: #ffffff; stroke-opacity: 0.6; stroke-width: 0.339411"/>
    <path d="M 182.188489 107.321881 
L 180.067169 111.564522 
L 184.309809 111.564522 
z
" clip-path="url(#p27ead537d6)" style="fill: #117733; fill-opacity: 0.6; stroke: #ffffff; stroke-opacity: 0.6; stroke-width: 0.339411"/>
    <path d="M 88.57878 123.304171 
L 86.457459 127.546812 
L 90.7001 127.546812 
z
" clip-path="url(#p27ead537d6)" style="fill: #117733; fill-opacity: 0.6; stroke: #ffffff; stroke-opacity: 0.6; stroke-width: 0.339411"/>
    <path d="M 104.158582 130.555911 
L 102.037262 134.798552 
L 106.279903 134.798552 
z
" clip-path="url(#p27ead537d6)" style="fill: #117733; fill-opacity: 0.6; stroke: #ffffff; stroke-opacity: 0.6; stroke-width: 0.339411"/>
    <path d="M 79.820353 128.113633 
L 77.699033 132.356273 
L 81.941673 132.356273 
z
" clip-path="url(#p27ead537d6)" style="fill: #117733; fill-opacity: 0.6; stroke: #ffffff; stroke-opacity: 0.6; stroke-width: 0.339411"/>
    <path d="M 188.190085 93.013672 
L 186.068765 97.256313 
L 190.311406 97.256313 
z
" clip-path="url(#p27ead537d6)" style="fill: #117733; fill-opacity: 0.6; stroke: #ffffff; stroke-opacity: 0.6; stroke-width: 0.339411"/>
    <path d="M 157.475215 58.37403 
L 155.353895 62.616671 
L 159.596535 62.616671 
z
" clip-path="url(#p27ead537d6)" style="fill: #117733; fill-opacity: 0.6; stroke: #ffffff; stroke-opacity: 0.6; stroke-width: 0.339411"/>
    <path d="M 106.532347 177.415676 
L 104.411027 181.658317 
L 108.653668 181.658317 
z
" clip-path="url(#p27ead537d6)" style="fill: #117733; fill-opacity: 0.6; stroke: #ffffff; stroke-opacity: 0.6; stroke-width: 0.339411"/>
    <path d="M 111.951031 155.822086 
L 109.829711 160.064727 
L 114.072351 160.064727 
z
" clip-path="url(#p27ead537d6)" style="fill: #117733; fill-opacity: 0.6; stroke: #ffffff; stroke-opacity: 0.6; stroke-width: 0.339411"/>
    <path d="M 116.249974 108.201394 
L 114.128653 112.444035 
L 118.371294 112.444035 
z
" clip-path="url(#p27ead537d6)" style="fill: #117733; fill-opacity: 0.6; stroke: #ffffff; stroke-opacity: 0.6; stroke-width: 0.339411"/>
    <path d="M 137.51141 81.157717 
L 135.39009 85.400358 
L 139.63273 85.400358 
z
" clip-path="url(#p27ead537d6)" style="fill: #117733; fill-opacity: 0.6; stroke: #ffffff; stroke-opacity: 0.6; stroke-width: 0.339411"/>
    <path d="M 116.28333 95.636999 
L 114.16201 99.87964 
L 118.40465 99.87964 
z
" clip-path="url(#p27ead537d6)" style="fill: #117733; fill-opacity: 0.6; stroke: #ffffff; stroke-opacity: 0.6; stroke-width: 0.339411"/>
    <path d="M 119.806147 149.771846 
L 117.684827 154.014487 
L 121.927468 154.014487 
z
" clip-path="url(#p27ead537d6)" style="fill: #117733; fill-opacity: 0.6; stroke: #ffffff; stroke-opacity: 0.6; stroke-width: 0.339411"/>
    <path d="M 105.337457 71.231181 
L 103.216137 75.473821 
L 107.458778 75.473821 
z
" clip-path="url(#p27ead537d6)" style="fill: #117733; fill-opacity: 0.6; stroke: #ffffff; stroke-opacity: 0.6; stroke-width: 0.339411"/>
    <path d="M 102.393386 72.264083 
L 100.272065 76.506724 
L 104.514706 76.506724 
z
" clip-path="url(#p27ead537d6)" style="fill: #117733; fill-opacity: 0.6; stroke: #ffffff; stroke-opacity: 0.6; stroke-width: 0.339411"/>
    <path d="M 87.158621 133.594391 
L 85.037301 137.837032 
L 89.279941 137.837032 
z
" clip-path="url(#p27ead537d6)" style="fill: #117733; fill-opacity: 0.6; stroke: #ffffff; stroke-opacity: 0.6; stroke-width: 0.339411"/>
    <path d="M 118.292891 137.292932 
L 116.17157 141.535572 
L 120.414211 141.535572 
z
" clip-path="url(#p27ead537d6)" style="fill: #117733; fill-opacity: 0.6; stroke: #ffffff; stroke-opacity: 0.6; stroke-width: 0.339411"/>
    <path d="M 160.932929 41.839259 
L 158.811609 46.081899 
L 163.054249 46.081899 
z
" clip-path="url(#p27ead537d6)" style="fill: #117733; fill-opacity: 0.6; stroke: #ffffff; stroke-opacity: 0.6; stroke-width: 0.339411"/>
    <path d="M 201.876557 107.507799 
L 199.755237 111.750439 
L 203.997877 111.750439 
z
" clip-path="url(#p27ead537d6)" style="fill: #117733; fill-opacity: 0.6; stroke: #ffffff; stroke-opacity: 0.6; stroke-width: 0.339411"/>
    <path d="M 87.535792 138.804527 
L 85.414472 143.047168 
L 89.657112 143.047168 
z
" clip-path="url(#p27ead537d6)" style="fill: #117733; fill-opacity: 0.6; stroke: #ffffff; stroke-opacity: 0.6; stroke-width: 0.339411"/>
    <path d="M 90.599404 121.065424 
L 88.478084 125.308064 
L 92.720725 125.308064 
z
" clip-path="url(#p27ead537d6)" style="fill: #117733; fill-opacity: 0.6; stroke: #ffffff; stroke-opacity: 0.6; stroke-width: 0.339411"/>
    <path d="M 115.23398 75.618289 
L 113.11266 79.86093 
L 117.3553 79.86093 
z
" clip-path="url(#p27ead537d6)" style="fill: #117733; fill-opacity: 0.6; stroke: #ffffff; stroke-opacity: 0.6; stroke-width: 0.339411"/>
    <path d="M 156.484026 82.976339 
L 154.362705 87.21898 
L 158.605346 87.21898 
z
" clip-path="url(#p27ead537d6)" style="fill: #117733; fill-opacity: 0.6; stroke: #ffffff; stroke-opacity: 0.6; stroke-width: 0.339411"/>
    <path d="M 122.445827 90.120001 
L 120.324507 94.362642 
L 124.567148 94.362642 
z
" clip-path="url(#p27ead537d6)" style="fill: #117733; fill-opacity: 0.6; stroke: #ffffff; stroke-opacity: 0.6; stroke-width: 0.339411"/>
    <path d="M 136.10033 59.850656 
L 133.979009 64.093297 
L 138.22165 64.093297 
z
" clip-path="url(#p27ead537d6)" style="fill: #117733; fill-opacity: 0.6; stroke: #ffffff; stroke-opacity: 0.6; stroke-width: 0.339411"/>
    <path d="M 186.642644 99.423786 
L 184.521324 103.666427 
L 188.763965 103.666427 
z
" clip-path="url(#p27ead537d6)" style="fill: #117733; fill-opacity: 0.6; stroke: #ffffff; stroke-opacity: 0.6; stroke-width: 0.339411"/>
    <path d="M 114.507111 91.40518 
L 112.385791 95.64782 
L 116.628431 95.64782 
z
" clip-path="url(#p27ead537d6)" style="fill: #117733; fill-opacity: 0.6; stroke: #ffffff; stroke-opacity: 0.6; stroke-width: 0.339411"/>
    <path d="M 136.155003 56.127792 
L 134.033683 60.370433 
L 138.276323 60.370433 
z
" clip-path="url(#p27ead537d6)" style="fill: #117733; fill-opacity: 0.6; stroke: #ffffff; stroke-opacity: 0.6; stroke-width: 0.339411"/>
    <path d="M 102.521644 60.964148 
L 100.400323 65.206789 
L 104.642964 65.206789 
z
" clip-path="url(#p27ead537d6)" style="fill: #117733; fill-opacity: 0.6; stroke: #ffffff; stroke-opacity: 0.6; stroke-width: 0.339411"/>
    <path d="M 167.507954 93.690559 
L 165.386634 97.933199 
L 169.629275 97.933199 
z
" clip-path="url(#p27ead537d6)" style="fill: #117733; fill-opacity: 0.6; stroke: #ffffff; stroke-opacity: 0.6; stroke-width: 0.339411"/>
    <path d="M 102.157037 65.113284 
L 100.035717 69.355924 
L 104.278357 69.355924 
z
" clip-path="url(#p27ead537d6)" style="fill: #117733; fill-opacity: 0.6; stroke: #ffffff; stroke-opacity: 0.6; stroke-width: 0.339411"/>
    <path d="M 118.348872 109.438288 
L 116.227551 113.680929 
L 120.470192 113.680929 
z
" clip-path="url(#p27ead537d6)" style="fill: #117733; fill-opacity: 0.6; stroke: #ffffff; stroke-opacity: 0.6; stroke-width: 0.339411"/>
    <path d="M 131.73158 94.960142 
L 129.61026 99.202783 
L 133.852901 99.202783 
z
" clip-path="url(#p27ead537d6)" style="fill: #117733; fill-opacity: 0.6; stroke: #ffffff; stroke-opacity: 0.6; stroke-width: 0.339411"/>
    <path d="M 131.863618 158.192148 
L 129.742298 162.434788 
L 133.984939 162.434788 
z
" clip-path="url(#p27ead537d6)" style="fill: #117733; fill-opacity: 0.6; stroke: #ffffff; stroke-opacity: 0.6; stroke-width: 0.339411"/>
    <path d="M 96.486686 76.026295 
L 94.365366 80.268936 
L 98.608006 80.268936 
z
" clip-path="url(#p27ead537d6)" style="fill: #117733; fill-opacity: 0.6; stroke: #ffffff; stroke-opacity: 0.6; stroke-width: 0.339411"/>
    <path d="M 107.895105 156.846 
L 105.773785 161.088641 
L 110.016426 161.088641 
z
" clip-path="url(#p27ead537d6)" style="fill: #117733; fill-opacity: 0.6; stroke: #ffffff; stroke-opacity: 0.6; stroke-width: 0.339411"/>
    <path d="M 121.13543 148.579932 
L 119.014109 152.822573 
L 123.25675 152.822573 
z
" clip-path="url(#p27ead537d6)" style="fill: #117733; fill-opacity: 0.6; stroke: #ffffff; stroke-opacity: 0.6; stroke-width: 0.339411"/>
    <path d="M 121.262174 128.915254 
L 119.140854 133.157895 
L 123.383495 133.157895 
z
" clip-path="url(#p27ead537d6)" style="fill: #117733; fill-opacity: 0.6; stroke: #ffffff; stroke-opacity: 0.6; stroke-width: 0.339411"/>
    <path d="M 156.514752 119.211273 
L 160.757393 119.211273 
L 160.757393 114.968633 
L 156.514752 114.968633 
z
" clip-path="url(#p27ead537d6)" style="fill: #44aa99; fill-opacity: 0.6; stroke: #ffffff; stroke-opacity: 0.6; stroke-width: 0.339411"/>
    <path d="M 149.085661 129.859952 
L 153.328301 129.859952 
L 153.328301 125.617312 
L 149.085661 125.617312 
z
" clip-path="url(#p27ead537d6)" style="fill: #44aa99; fill-opacity: 0.6; stroke: #ffffff; stroke-opacity: 0.6; stroke-width: 0.339411"/>
    <path d="M 211.904465 103.730133 
L 216.147105 103.730133 
L 216.147105 99.487492 
L 211.904465 99.487492 
z
" clip-path="url(#p27ead537d6)" style="fill: #44aa99; fill-opacity: 0.6; stroke: #ffffff; stroke-opacity: 0.6; stroke-width: 0.339411"/>
    <path d="M 200.107269 95.233996 
L 204.34991 95.233996 
L 204.34991 90.991355 
L 200.107269 90.991355 
z
" clip-path="url(#p27ead537d6)" style="fill: #44aa99; fill-opacity: 0.6; stroke: #ffffff; stroke-opacity: 0.6; stroke-width: 0.339411"/>
    <path d="M 189.490785 98.672768 
L 193.733426 98.672768 
L 193.733426 94.430128 
L 189.490785 94.430128 
z
" clip-path="url(#p27ead537d6)" style="fill: #44aa99; fill-opacity: 0.6; stroke: #ffffff; stroke-opacity: 0.6; stroke-width: 0.339411"/>
    <path d="M 193.002192 128.689025 
L 197.244833 128.689025 
L 197.244833 124.446384 
L 193.002192 124.446384 
z
" clip-path="url(#p27ead537d6)" style="fill: #44aa99; fill-opacity: 0.6; stroke: #ffffff; stroke-opacity: 0.6; stroke-width: 0.339411"/>
    <path d="M 137.566817 116.340519 
L 141.809458 116.340519 
L 141.809458 112.097879 
L 137.566817 112.097879 
z
" clip-path="url(#p27ead537d6)" style="fill: #44aa99; fill-opacity: 0.6; stroke: #ffffff; stroke-opacity: 0.6; stroke-width: 0.339411"/>
    <path d="M 229.578634 121.729928 
L 233.821275 121.729928 
L 233.821275 117.487288 
L 229.578634 117.487288 
z
" clip-path="url(#p27ead537d6)" style="fill: #44aa99; fill-opacity: 0.6; stroke: #ffffff; stroke-opacity: 0.6; stroke-width: 0.339411"/>
    <path d="M 179.832761 98.29209 
L 184.075401 98.29209 
L 184.075401 94.04945 
L 179.832761 94.04945 
z
" clip-path="url(#p27ead537d6)" style="fill: #44aa99; fill-opacity: 0.6; stroke: #ffffff; stroke-opacity: 0.6; stroke-width: 0.339411"/>
    <path d="M 183.290227 122.803746 
L 187.532868 122.803746 
L 187.532868 118.561105 
L 183.290227 118.561105 
z
" clip-path="url(#p27ead537d6)" style="fill: #44aa99; fill-opacity: 0.6; stroke: #ffffff; stroke-opacity: 0.6; stroke-width: 0.339411"/>
    <path d="M 172.257992 118.460034 
L 176.500633 118.460034 
L 176.500633 114.217393 
L 172.257992 114.217393 
z
" clip-path="url(#p27ead537d6)" style="fill: #44aa99; fill-opacity: 0.6; stroke: #ffffff; stroke-opacity: 0.6; stroke-width: 0.339411"/>
    <path d="M 175.432008 123.553211 
L 179.674649 123.553211 
L 179.674649 119.31057 
L 175.432008 119.31057 
z
" clip-path="url(#p27ead537d6)" style="fill: #44aa99; fill-opacity: 0.6; stroke: #ffffff; stroke-opacity: 0.6; stroke-width: 0.339411"/>
    <path d="M 123.78912 111.000745 
L 128.03176 111.000745 
L 128.03176 106.758104 
L 123.78912 106.758104 
z
" clip-path="url(#p27ead537d6)" style="fill: #44aa99; fill-opacity: 0.6; stroke: #ffffff; stroke-opacity: 0.6; stroke-width: 0.339411"/>
    <path d="M 197.450546 83.684172 
L 201.693187 83.684172 
L 201.693187 79.441532 
L 197.450546 79.441532 
z
" clip-path="url(#p27ead537d6)" style="fill: #44aa99; fill-opacity: 0.6; stroke: #ffffff; stroke-opacity: 0.6; stroke-width: 0.339411"/>
    <path d="M 144.325108 132.564222 
L 148.567749 132.564222 
L 148.567749 128.321581 
L 144.325108 128.321581 
z
" clip-path="url(#p27ead537d6)" style="fill: #44aa99; fill-opacity: 0.6; stroke: #ffffff; stroke-opacity: 0.6; stroke-width: 0.339411"/>
    <path d="M 169.948453 154.088616 
L 174.191094 154.088616 
L 174.191094 149.845975 
L 169.948453 149.845975 
z
" clip-path="url(#p27ead537d6)" style="fill: #44aa99; fill-opacity: 0.6; stroke: #ffffff; stroke-opacity: 0.6; stroke-width: 0.339411"/>
    <path d="M 160.854296 84.092817 
L 165.096937 84.092817 
L 165.096937 79.850176 
L 160.854296 79.850176 
z
" clip-path="url(#p27ead537d6)" style="fill: #44aa99; fill-opacity: 0.6; stroke: #ffffff; stroke-opacity: 0.6; stroke-width: 0.339411"/>
    <path d="M 195.409971 80.094112 
L 199.652612 80.094112 
L 199.652612 75.851471 
L 195.409971 75.851471 
z
" clip-path="url(#p27ead537d6)" style="fill: #44aa99; fill-opacity: 0.6; stroke: #ffffff; stroke-opacity: 0.6; stroke-width: 0.339411"/>
    <path d="M 141.835832 147.553217 
L 146.078472 147.553217 
L 146.078472 143.310576 
L 141.835832 143.310576 
z
" clip-path="url(#p27ead537d6)" style="fill: #44aa99; fill-opacity: 0.6; stroke: #ffffff; stroke-opacity: 0.6; stroke-width: 0.339411"/>
    <path d="M 206.398718 125.602806 
L 210.641359 125.602806 
L 210.641359 121.360166 
L 206.398718 121.360166 
z
" clip-path="url(#p27ead537d6)" style="fill: #44aa99; fill-opacity: 0.6; stroke: #ffffff; stroke-opacity: 0.6; stroke-width: 0.339411"/>
    <path d="M 156.2344 115.271485 
L 160.477041 115.271485 
L 160.477041 111.028845 
L 156.2344 111.028845 
z
" clip-path="url(#p27ead537d6)" style="fill: #44aa99; fill-opacity: 0.6; stroke: #ffffff; stroke-opacity: 0.6; stroke-width: 0.339411"/>
    <path d="M 205.467692 112.939453 
L 209.710332 112.939453 
L 209.710332 108.696812 
L 205.467692 108.696812 
z
" clip-path="url(#p27ead537d6)" style="fill: #44aa99; fill-opacity: 0.6; stroke: #ffffff; stroke-opacity: 0.6; stroke-width: 0.339411"/>
    <path d="M 226.936259 122.216808 
L 231.1789 122.216808 
L 231.1789 117.974167 
L 226.936259 117.974167 
z
" clip-path="url(#p27ead537d6)" style="fill: #44aa99; fill-opacity: 0.6; stroke: #ffffff; stroke-opacity: 0.6; stroke-width: 0.339411"/>
    <path d="M 177.930366 90.727027 
L 182.173006 90.727027 
L 182.173006 86.484387 
L 177.930366 86.484387 
z
" clip-path="url(#p27ead537d6)" style="fill: #44aa99; fill-opacity: 0.6; stroke: #ffffff; stroke-opacity: 0.6; stroke-width: 0.339411"/>
    <path d="M 133.50985 134.124807 
L 137.75249 134.124807 
L 137.75249 129.882166 
L 133.50985 129.882166 
z
" clip-path="url(#p27ead537d6)" style="fill: #44aa99; fill-opacity: 0.6; stroke: #ffffff; stroke-opacity: 0.6; stroke-width: 0.339411"/>
    <path d="M 162.259385 130.326199 
L 166.502026 130.326199 
L 166.502026 126.083559 
L 162.259385 126.083559 
z
" clip-path="url(#p27ead537d6)" style="fill: #44aa99; fill-opacity: 0.6; stroke: #ffffff; stroke-opacity: 0.6; stroke-width: 0.339411"/>
    <path d="M 204.61332 106.211371 
L 208.855961 106.211371 
L 208.855961 101.96873 
L 204.61332 101.96873 
z
" clip-path="url(#p27ead537d6)" style="fill: #44aa99; fill-opacity: 0.6; stroke: #ffffff; stroke-opacity: 0.6; stroke-width: 0.339411"/>
    <path d="M 176.421874 83.116435 
L 180.664514 83.116435 
L 180.664514 78.873795 
L 176.421874 78.873795 
z
" clip-path="url(#p27ead537d6)" style="fill: #44aa99; fill-opacity: 0.6; stroke: #ffffff; stroke-opacity: 0.6; stroke-width: 0.339411"/>
    <path d="M 229.855051 103.350928 
L 234.097692 103.350928 
L 234.097692 99.108287 
L 229.855051 99.108287 
z
" clip-path="url(#p27ead537d6)" style="fill: #44aa99; fill-opacity: 0.6; stroke: #ffffff; stroke-opacity: 0.6; stroke-width: 0.339411"/>
    <path d="M 226.768482 103.382116 
L 231.011123 103.382116 
L 231.011123 99.139475 
L 226.768482 99.139475 
z
" clip-path="url(#p27ead537d6)" style="fill: #44aa99; fill-opacity: 0.6; stroke: #ffffff; stroke-opacity: 0.6; stroke-width: 0.339411"/>
    <path d="M 157.863049 106.86759 
L 162.105689 106.86759 
L 162.105689 102.62495 
L 157.863049 102.62495 
z
" clip-path="url(#p27ead537d6)" style="fill: #44aa99; fill-opacity: 0.6; stroke: #ffffff; stroke-opacity: 0.6; stroke-width: 0.339411"/>
    <path d="M 186.127509 120.291236 
L 190.37015 120.291236 
L 190.37015 116.048595 
L 186.127509 116.048595 
z
" clip-path="url(#p27ead537d6)" style="fill: #44aa99; fill-opacity: 0.6; stroke: #ffffff; stroke-opacity: 0.6; stroke-width: 0.339411"/>
    <path d="M 194.475436 124.289171 
L 198.718076 124.289171 
L 198.718076 120.046531 
L 194.475436 120.046531 
z
" clip-path="url(#p27ead537d6)" style="fill: #44aa99; fill-opacity: 0.6; stroke: #ffffff; stroke-opacity: 0.6; stroke-width: 0.339411"/>
    <path d="M 226.837306 127.295592 
L 231.079947 127.295592 
L 231.079947 123.052952 
L 226.837306 123.052952 
z
" clip-path="url(#p27ead537d6)" style="fill: #44aa99; fill-opacity: 0.6; stroke: #ffffff; stroke-opacity: 0.6; stroke-width: 0.339411"/>
    <path d="M 182.613542 74.815947 
L 186.856183 74.815947 
L 186.856183 70.573306 
L 182.613542 70.573306 
z
" clip-path="url(#p27ead537d6)" style="fill: #44aa99; fill-opacity: 0.6; stroke: #ffffff; stroke-opacity: 0.6; stroke-width: 0.339411"/>
    <path d="M 194.195239 90.075996 
L 198.437879 90.075996 
L 198.437879 85.833355 
L 194.195239 85.833355 
z
" clip-path="url(#p27ead537d6)" style="fill: #44aa99; fill-opacity: 0.6; stroke: #ffffff; stroke-opacity: 0.6; stroke-width: 0.339411"/>
    <path d="M 174.032588 138.888295 
L 178.275228 138.888295 
L 178.275228 134.645655 
L 174.032588 134.645655 
z
" clip-path="url(#p27ead537d6)" style="fill: #44aa99; fill-opacity: 0.6; stroke: #ffffff; stroke-opacity: 0.6; stroke-width: 0.339411"/>
    <path d="M 214.544526 98.398896 
L 218.787166 98.398896 
L 218.787166 94.156256 
L 214.544526 94.156256 
z
" clip-path="url(#p27ead537d6)" style="fill: #44aa99; fill-opacity: 0.6; stroke: #ffffff; stroke-opacity: 0.6; stroke-width: 0.339411"/>
    <path d="M 157.738055 150.670277 
L 161.980695 150.670277 
L 161.980695 146.427636 
L 157.738055 146.427636 
z
" clip-path="url(#p27ead537d6)" style="fill: #44aa99; fill-opacity: 0.6; stroke: #ffffff; stroke-opacity: 0.6; stroke-width: 0.339411"/>
    <path d="M 185.964031 94.799409 
L 190.206672 94.799409 
L 190.206672 90.556768 
L 185.964031 90.556768 
z
" clip-path="url(#p27ead537d6)" style="fill: #44aa99; fill-opacity: 0.6; stroke: #ffffff; stroke-opacity: 0.6; stroke-width: 0.339411"/>
    <path d="M 153.941695 147.573983 
L 158.184335 147.573983 
L 158.184335 143.331342 
L 153.941695 143.331342 
z
" clip-path="url(#p27ead537d6)" style="fill: #44aa99; fill-opacity: 0.6; stroke: #ffffff; stroke-opacity: 0.6; stroke-width: 0.339411"/>
    <path d="M 200.499368 106.313815 
L 204.742008 106.313815 
L 204.742008 102.071174 
L 200.499368 102.071174 
z
" clip-path="url(#p27ead537d6)" style="fill: #44aa99; fill-opacity: 0.6; stroke: #ffffff; stroke-opacity: 0.6; stroke-width: 0.339411"/>
    <path d="M 168.196479 148.022514 
L 172.43912 148.022514 
L 172.43912 143.779874 
L 168.196479 143.779874 
z
" clip-path="url(#p27ead537d6)" style="fill: #44aa99; fill-opacity: 0.6; stroke: #ffffff; stroke-opacity: 0.6; stroke-width: 0.339411"/>
    <path d="M 222.660822 124.408697 
L 226.903463 124.408697 
L 226.903463 120.166057 
L 222.660822 120.166057 
z
" clip-path="url(#p27ead537d6)" style="fill: #44aa99; fill-opacity: 0.6; stroke: #ffffff; stroke-opacity: 0.6; stroke-width: 0.339411"/>
    <path d="M 148.314902 119.357544 
L 152.557542 119.357544 
L 152.557542 115.114903 
L 148.314902 115.114903 
z
" clip-path="url(#p27ead537d6)" style="fill: #44aa99; fill-opacity: 0.6; stroke: #ffffff; stroke-opacity: 0.6; stroke-width: 0.339411"/>
    <path d="M 137.78265 129.449371 
L 142.02529 129.449371 
L 142.02529 125.20673 
L 137.78265 125.20673 
z
" clip-path="url(#p27ead537d6)" style="fill: #44aa99; fill-opacity: 0.6; stroke: #ffffff; stroke-opacity: 0.6; stroke-width: 0.339411"/>
    <path d="M 171.858147 76.918956 
L 176.100787 76.918956 
L 176.100787 72.676315 
L 171.858147 72.676315 
z
" clip-path="url(#p27ead537d6)" style="fill: #44aa99; fill-opacity: 0.6; stroke: #ffffff; stroke-opacity: 0.6; stroke-width: 0.339411"/>
    <path d="M 159.549199 130.799134 
L 163.79184 130.799134 
L 163.79184 126.556494 
L 159.549199 126.556494 
z
" clip-path="url(#p27ead537d6)" style="fill: #44aa99; fill-opacity: 0.6; stroke: #ffffff; stroke-opacity: 0.6; stroke-width: 0.339411"/>
    <path d="M 166.184158 98.728939 
L 170.426798 98.728939 
L 170.426798 94.486299 
L 166.184158 94.486299 
z
" clip-path="url(#p27ead537d6)" style="fill: #44aa99; fill-opacity: 0.6; stroke: #ffffff; stroke-opacity: 0.6; stroke-width: 0.339411"/>
    <path d="M 165.088294 101.810331 
L 169.330935 101.810331 
L 169.330935 97.56769 
L 165.088294 97.56769 
z
" clip-path="url(#p27ead537d6)" style="fill: #44aa99; fill-opacity: 0.6; stroke: #ffffff; stroke-opacity: 0.6; stroke-width: 0.339411"/>
    <path d="M 185.865607 112.575864 
L 190.108248 112.575864 
L 190.108248 108.333223 
L 185.865607 108.333223 
z
" clip-path="url(#p27ead537d6)" style="fill: #44aa99; fill-opacity: 0.6; stroke: #ffffff; stroke-opacity: 0.6; stroke-width: 0.339411"/>
    <path d="M 173.596232 56.549124 
L 177.838873 56.549124 
L 177.838873 52.306483 
L 173.596232 52.306483 
z
" clip-path="url(#p27ead537d6)" style="fill: #44aa99; fill-opacity: 0.6; stroke: #ffffff; stroke-opacity: 0.6; stroke-width: 0.339411"/>
    <path d="M 177.15268 148.700981 
L 181.395321 148.700981 
L 181.395321 144.45834 
L 177.15268 144.45834 
z
" clip-path="url(#p27ead537d6)" style="fill: #44aa99; fill-opacity: 0.6; stroke: #ffffff; stroke-opacity: 0.6; stroke-width: 0.339411"/>
    <path d="M 165.379069 137.358117 
L 169.62171 137.358117 
L 169.62171 133.115476 
L 165.379069 133.115476 
z
" clip-path="url(#p27ead537d6)" style="fill: #44aa99; fill-opacity: 0.6; stroke: #ffffff; stroke-opacity: 0.6; stroke-width: 0.339411"/>
    <path d="M 215.188245 114.284948 
L 219.430886 114.284948 
L 219.430886 110.042307 
L 215.188245 110.042307 
z
" clip-path="url(#p27ead537d6)" style="fill: #44aa99; fill-opacity: 0.6; stroke: #ffffff; stroke-opacity: 0.6; stroke-width: 0.339411"/>
    <path d="M 178.993765 115.323859 
L 183.236406 115.323859 
L 183.236406 111.081218 
L 178.993765 111.081218 
z
" clip-path="url(#p27ead537d6)" style="fill: #44aa99; fill-opacity: 0.6; stroke: #ffffff; stroke-opacity: 0.6; stroke-width: 0.339411"/>
    <path d="M 211.418466 127.225157 
L 215.661107 127.225157 
L 215.661107 122.982516 
L 211.418466 122.982516 
z
" clip-path="url(#p27ead537d6)" style="fill: #44aa99; fill-opacity: 0.6; stroke: #ffffff; stroke-opacity: 0.6; stroke-width: 0.339411"/>
    <path d="M 182.161595 141.148663 
L 186.404235 141.148663 
L 186.404235 136.906022 
L 182.161595 136.906022 
z
" clip-path="url(#p27ead537d6)" style="fill: #44aa99; fill-opacity: 0.6; stroke: #ffffff; stroke-opacity: 0.6; stroke-width: 0.339411"/>
    <path d="M 219.422414 98.537043 
L 223.665055 98.537043 
L 223.665055 94.294402 
L 219.422414 94.294402 
z
" clip-path="url(#p27ead537d6)" style="fill: #44aa99; fill-opacity: 0.6; stroke: #ffffff; stroke-opacity: 0.6; stroke-width: 0.339411"/>
    <path d="M 174.642998 141.320066 
L 178.885639 141.320066 
L 178.885639 137.077426 
L 174.642998 137.077426 
z
" clip-path="url(#p27ead537d6)" style="fill: #44aa99; fill-opacity: 0.6; stroke: #ffffff; stroke-opacity: 0.6; stroke-width: 0.339411"/>
    <path d="M 147.976404 112.889593 
L 152.219044 112.889593 
L 152.219044 108.646952 
L 147.976404 108.646952 
z
" clip-path="url(#p27ead537d6)" style="fill: #44aa99; fill-opacity: 0.6; stroke: #ffffff; stroke-opacity: 0.6; stroke-width: 0.339411"/>
    <path d="M 220.525556 108.554293 
L 224.768197 108.554293 
L 224.768197 104.311653 
L 220.525556 104.311653 
z
" clip-path="url(#p27ead537d6)" style="fill: #44aa99; fill-opacity: 0.6; stroke: #ffffff; stroke-opacity: 0.6; stroke-width: 0.339411"/>
    <path d="M 176.525699 78.380416 
L 180.768339 78.380416 
L 180.768339 74.137775 
L 176.525699 74.137775 
z
" clip-path="url(#p27ead537d6)" style="fill: #44aa99; fill-opacity: 0.6; stroke: #ffffff; stroke-opacity: 0.6; stroke-width: 0.339411"/>
    <path d="M 202.084657 103.831745 
L 206.327298 103.831745 
L 206.327298 99.589104 
L 202.084657 99.589104 
z
" clip-path="url(#p27ead537d6)" style="fill: #44aa99; fill-opacity: 0.6; stroke: #ffffff; stroke-opacity: 0.6; stroke-width: 0.339411"/>
    <path d="M 157.130044 172.215731 
L 158.190704 171.155071 
L 159.251364 172.215731 
L 160.312024 171.155071 
L 159.251364 170.094411 
L 160.312024 169.033751 
L 159.251364 167.973091 
L 158.190704 169.033751 
L 157.130044 167.973091 
L 156.069383 169.033751 
L 157.130044 170.094411 
L 156.069383 171.155071 
z
" clip-path="url(#p27ead537d6)" style="fill: #88ccee; fill-opacity: 0.6; stroke: #ffffff; stroke-opacity: 0.6; stroke-width: 0.339411"/>
    <path d="M 194.711124 92.984142 
L 195.771785 91.923482 
L 196.832445 92.984142 
L 197.893105 91.923482 
L 196.832445 90.862822 
L 197.893105 89.802162 
L 196.832445 88.741502 
L 195.771785 89.802162 
L 194.711124 88.741502 
L 193.650464 89.802162 
L 194.711124 90.862822 
L 193.650464 91.923482 
z
" clip-path="url(#p27ead537d6)" style="fill: #88ccee; fill-opacity: 0.6; stroke: #ffffff; stroke-opacity: 0.6; stroke-width: 0.339411"/>
    <path d="M 179.987372 99.39777 
L 181.048032 98.33711 
L 182.108692 99.39777 
L 183.169352 98.33711 
L 182.108692 97.276449 
L 183.169352 96.215789 
L 182.108692 95.155129 
L 181.048032 96.215789 
L 179.987372 95.155129 
L 178.926711 96.215789 
L 179.987372 97.276449 
L 178.926711 98.33711 
z
" clip-path="url(#p27ead537d6)" style="fill: #88ccee; fill-opacity: 0.6; stroke: #ffffff; stroke-opacity: 0.6; stroke-width: 0.339411"/>
    <path d="M 197.602259 76.980618 
L 198.662919 75.919958 
L 199.723579 76.980618 
L 200.78424 75.919958 
L 199.723579 74.859297 
L 200.78424 73.798637 
L 199.723579 72.737977 
L 198.662919 73.798637 
L 197.602259 72.737977 
L 196.541599 73.798637 
L 197.602259 74.859297 
L 196.541599 75.919958 
z
" clip-path="url(#p27ead537d6)" style="fill: #88ccee; fill-opacity: 0.6; stroke: #ffffff; stroke-opacity: 0.6; stroke-width: 0.339411"/>
    <path d="M 172.022263 92.684458 
L 173.082923 91.623798 
L 174.143583 92.684458 
L 175.204243 91.623798 
L 174.143583 90.563138 
L 175.204243 89.502478 
L 174.143583 88.441818 
L 173.082923 89.502478 
L 172.022263 88.441818 
L 170.961603 89.502478 
L 172.022263 90.563138 
L 170.961603 91.623798 
z
" clip-path="url(#p27ead537d6)" style="fill: #88ccee; fill-opacity: 0.6; stroke: #ffffff; stroke-opacity: 0.6; stroke-width: 0.339411"/>
    <path d="M 202.136012 98.720076 
L 203.196672 97.659415 
L 204.257333 98.720076 
L 205.317993 97.659415 
L 204.257333 96.598755 
L 205.317993 95.538095 
L 204.257333 94.477435 
L 203.196672 95.538095 
L 202.136012 94.477435 
L 201.075352 95.538095 
L 202.136012 96.598755 
L 201.075352 97.659415 
z
" clip-path="url(#p27ead537d6)" style="fill: #88ccee; fill-opacity: 0.6; stroke: #ffffff; stroke-opacity: 0.6; stroke-width: 0.339411"/>
    <path d="M 186.019704 67.867311 
L 187.080364 66.806651 
L 188.141024 67.867311 
L 189.201685 66.806651 
L 188.141024 65.745991 
L 189.201685 64.68533 
L 188.141024 63.62467 
L 187.080364 64.68533 
L 186.019704 63.62467 
L 184.959044 64.68533 
L 186.019704 65.745991 
L 184.959044 66.806651 
z
" clip-path="url(#p27ead537d6)" style="fill: #88ccee; fill-opacity: 0.6; stroke: #ffffff; stroke-opacity: 0.6; stroke-width: 0.339411"/>
    <path d="M 199.990699 129.226839 
L 201.051359 128.166179 
L 202.112019 129.226839 
L 203.17268 128.166179 
L 202.112019 127.105519 
L 203.17268 126.044859 
L 202.112019 124.984198 
L 201.051359 126.044859 
L 199.990699 124.984198 
L 198.930039 126.044859 
L 199.990699 127.105519 
L 198.930039 128.166179 
z
" clip-path="url(#p27ead537d6)" style="fill: #88ccee; fill-opacity: 0.6; stroke: #ffffff; stroke-opacity: 0.6; stroke-width: 0.339411"/>
    <path d="M 189.940705 53.056491 
L 191.001365 51.995831 
L 192.062025 53.056491 
L 193.122685 51.995831 
L 192.062025 50.935171 
L 193.122685 49.874511 
L 192.062025 48.81385 
L 191.001365 49.874511 
L 189.940705 48.81385 
L 188.880045 49.874511 
L 189.940705 50.935171 
L 188.880045 51.995831 
z
" clip-path="url(#p27ead537d6)" style="fill: #88ccee; fill-opacity: 0.6; stroke: #ffffff; stroke-opacity: 0.6; stroke-width: 0.339411"/>
    <path d="M 153.24519 105.499876 
L 154.30585 104.439216 
L 155.366511 105.499876 
L 156.427171 104.439216 
L 155.366511 103.378556 
L 156.427171 102.317895 
L 155.366511 101.257235 
L 154.30585 102.317895 
L 153.24519 101.257235 
L 152.18453 102.317895 
L 153.24519 103.378556 
L 152.18453 104.439216 
z
" clip-path="url(#p27ead537d6)" style="fill: #88ccee; fill-opacity: 0.6; stroke: #ffffff; stroke-opacity: 0.6; stroke-width: 0.339411"/>
    <path d="M 143.581836 160.35792 
L 144.642497 159.297259 
L 145.703157 160.35792 
L 146.763817 159.297259 
L 145.703157 158.236599 
L 146.763817 157.175939 
L 145.703157 156.115279 
L 144.642497 157.175939 
L 143.581836 156.115279 
L 142.521176 157.175939 
L 143.581836 158.236599 
L 142.521176 159.297259 
z
" clip-path="url(#p27ead537d6)" style="fill: #88ccee; fill-opacity: 0.6; stroke: #ffffff; stroke-opacity: 0.6; stroke-width: 0.339411"/>
    <path d="M 173.3868 99.868427 
L 174.44746 98.807767 
L 175.508121 99.868427 
L 176.568781 98.807767 
L 175.508121 97.747107 
L 176.568781 96.686447 
L 175.508121 95.625786 
L 174.44746 96.686447 
L 173.3868 95.625786 
L 172.32614 96.686447 
L 173.3868 97.747107 
L 172.32614 98.807767 
z
" clip-path="url(#p27ead537d6)" style="fill: #88ccee; fill-opacity: 0.6; stroke: #ffffff; stroke-opacity: 0.6; stroke-width: 0.339411"/>
    <path d="M 166.899561 71.822903 
L 167.960221 70.762243 
L 169.020882 71.822903 
L 170.081542 70.762243 
L 169.020882 69.701583 
L 170.081542 68.640923 
L 169.020882 67.580262 
L 167.960221 68.640923 
L 166.899561 67.580262 
L 165.838901 68.640923 
L 166.899561 69.701583 
L 165.838901 70.762243 
z
" clip-path="url(#p27ead537d6)" style="fill: #88ccee; fill-opacity: 0.6; stroke: #ffffff; stroke-opacity: 0.6; stroke-width: 0.339411"/>
    <path d="M 177.137768 62.894015 
L 178.198428 61.833355 
L 179.259089 62.894015 
L 180.319749 61.833355 
L 179.259089 60.772695 
L 180.319749 59.712035 
L 179.259089 58.651374 
L 178.198428 59.712035 
L 177.137768 58.651374 
L 176.077108 59.712035 
L 177.137768 60.772695 
L 176.077108 61.833355 
z
" clip-path="url(#p27ead537d6)" style="fill: #88ccee; fill-opacity: 0.6; stroke: #ffffff; stroke-opacity: 0.6; stroke-width: 0.339411"/>
    <path d="M 193.051148 99.332602 
L 194.111809 98.271942 
L 195.172469 99.332602 
L 196.233129 98.271942 
L 195.172469 97.211281 
L 196.233129 96.150621 
L 195.172469 95.089961 
L 194.111809 96.150621 
L 193.051148 95.089961 
L 191.990488 96.150621 
L 193.051148 97.211281 
L 191.990488 98.271942 
z
" clip-path="url(#p27ead537d6)" style="fill: #88ccee; fill-opacity: 0.6; stroke: #ffffff; stroke-opacity: 0.6; stroke-width: 0.339411"/>
    <path d="M 182.12741 137.979692 
L 183.18807 136.919032 
L 184.24873 137.979692 
L 185.30939 136.919032 
L 184.24873 135.858372 
L 185.30939 134.797711 
L 184.24873 133.737051 
L 183.18807 134.797711 
L 182.12741 133.737051 
L 181.066749 134.797711 
L 182.12741 135.858372 
L 181.066749 136.919032 
z
" clip-path="url(#p27ead537d6)" style="fill: #88ccee; fill-opacity: 0.6; stroke: #ffffff; stroke-opacity: 0.6; stroke-width: 0.339411"/>
    <path d="M 196.211698 96.830679 
L 197.272359 95.770019 
L 198.333019 96.830679 
L 199.393679 95.770019 
L 198.333019 94.709358 
L 199.393679 93.648698 
L 198.333019 92.588038 
L 197.272359 93.648698 
L 196.211698 92.588038 
L 195.151038 93.648698 
L 196.211698 94.709358 
L 195.151038 95.770019 
z
" clip-path="url(#p27ead537d6)" style="fill: #88ccee; fill-opacity: 0.6; stroke: #ffffff; stroke-opacity: 0.6; stroke-width: 0.339411"/>
    <path d="M 176.336284 105.417685 
L 177.396944 104.357025 
L 178.457604 105.417685 
L 179.518264 104.357025 
L 178.457604 103.296365 
L 179.518264 102.235705 
L 178.457604 101.175044 
L 177.396944 102.235705 
L 176.336284 101.175044 
L 175.275624 102.235705 
L 176.336284 103.296365 
L 175.275624 104.357025 
z
" clip-path="url(#p27ead537d6)" style="fill: #88ccee; fill-opacity: 0.6; stroke: #ffffff; stroke-opacity: 0.6; stroke-width: 0.339411"/>
    <path d="M 174.498926 137.839748 
L 175.559586 136.779088 
L 176.620246 137.839748 
L 177.680906 136.779088 
L 176.620246 135.718428 
L 177.680906 134.657767 
L 176.620246 133.597107 
L 175.559586 134.657767 
L 174.498926 133.597107 
L 173.438266 134.657767 
L 174.498926 135.718428 
L 173.438266 136.779088 
z
" clip-path="url(#p27ead537d6)" style="fill: #88ccee; fill-opacity: 0.6; stroke: #ffffff; stroke-opacity: 0.6; stroke-width: 0.339411"/>
    <path d="M 165.554075 102.218062 
L 166.614736 101.157402 
L 167.675396 102.218062 
L 168.736056 101.157402 
L 167.675396 100.096741 
L 168.736056 99.036081 
L 167.675396 97.975421 
L 166.614736 99.036081 
L 165.554075 97.975421 
L 164.493415 99.036081 
L 165.554075 100.096741 
L 164.493415 101.157402 
z
" clip-path="url(#p27ead537d6)" style="fill: #88ccee; fill-opacity: 0.6; stroke: #ffffff; stroke-opacity: 0.6; stroke-width: 0.339411"/>
    <path d="M 150.347456 123.087862 
L 151.408116 122.027202 
L 152.468776 123.087862 
L 153.529436 122.027202 
L 152.468776 120.966542 
L 153.529436 119.905882 
L 152.468776 118.845222 
L 151.408116 119.905882 
L 150.347456 118.845222 
L 149.286795 119.905882 
L 150.347456 120.966542 
L 149.286795 122.027202 
z
" clip-path="url(#p27ead537d6)" style="fill: #88ccee; fill-opacity: 0.6; stroke: #ffffff; stroke-opacity: 0.6; stroke-width: 0.339411"/>
    <path d="M 142.401558 162.763826 
L 143.462218 161.703165 
L 144.522879 162.763826 
L 145.583539 161.703165 
L 144.522879 160.642505 
L 145.583539 159.581845 
L 144.522879 158.521185 
L 143.462218 159.581845 
L 142.401558 158.521185 
L 141.340898 159.581845 
L 142.401558 160.642505 
L 141.340898 161.703165 
z
" clip-path="url(#p27ead537d6)" style="fill: #88ccee; fill-opacity: 0.6; stroke: #ffffff; stroke-opacity: 0.6; stroke-width: 0.339411"/>
    <path d="M 199.895659 100.188172 
L 200.956319 99.127512 
L 202.016979 100.188172 
L 203.07764 99.127512 
L 202.016979 98.066851 
L 203.07764 97.006191 
L 202.016979 95.945531 
L 200.956319 97.006191 
L 199.895659 95.945531 
L 198.834999 97.006191 
L 199.895659 98.066851 
L 198.834999 99.127512 
z
" clip-path="url(#p27ead537d6)" style="fill: #88ccee; fill-opacity: 0.6; stroke: #ffffff; stroke-opacity: 0.6; stroke-width: 0.339411"/>
    <path d="M 166.077747 44.772205 
L 167.138407 43.711545 
L 168.199067 44.772205 
L 169.259727 43.711545 
L 168.199067 42.650885 
L 169.259727 41.590224 
L 168.199067 40.529564 
L 167.138407 41.590224 
L 166.077747 40.529564 
L 165.017087 41.590224 
L 166.077747 42.650885 
L 165.017087 43.711545 
z
" clip-path="url(#p27ead537d6)" style="fill: #88ccee; fill-opacity: 0.6; stroke: #ffffff; stroke-opacity: 0.6; stroke-width: 0.339411"/>
    <path d="M 154.829835 122.860447 
L 155.890495 121.799787 
L 156.951155 122.860447 
L 158.011816 121.799787 
L 156.951155 120.739127 
L 158.011816 119.678466 
L 156.951155 118.617806 
L 155.890495 119.678466 
L 154.829835 118.617806 
L 153.769175 119.678466 
L 154.829835 120.739127 
L 153.769175 121.799787 
z
" clip-path="url(#p27ead537d6)" style="fill: #88ccee; fill-opacity: 0.6; stroke: #ffffff; stroke-opacity: 0.6; stroke-width: 0.339411"/>
    <path d="M 181.297161 89.37016 
L 182.357821 88.309499 
L 183.418481 89.37016 
L 184.479141 88.309499 
L 183.418481 87.248839 
L 184.479141 86.188179 
L 183.418481 85.127519 
L 182.357821 86.188179 
L 181.297161 85.127519 
L 180.236501 86.188179 
L 181.297161 87.248839 
L 180.236501 88.309499 
z
" clip-path="url(#p27ead537d6)" style="fill: #88ccee; fill-opacity: 0.6; stroke: #ffffff; stroke-opacity: 0.6; stroke-width: 0.339411"/>
    <path d="M 170.409313 76.993762 
L 171.469973 75.933102 
L 172.530634 76.993762 
L 173.591294 75.933102 
L 172.530634 74.872442 
L 173.591294 73.811782 
L 172.530634 72.751122 
L 171.469973 73.811782 
L 170.409313 72.751122 
L 169.348653 73.811782 
L 170.409313 74.872442 
L 169.348653 75.933102 
z
" clip-path="url(#p27ead537d6)" style="fill: #88ccee; fill-opacity: 0.6; stroke: #ffffff; stroke-opacity: 0.6; stroke-width: 0.339411"/>
    <path d="M 138.860235 82.503612 
L 139.920895 81.442952 
L 140.981555 82.503612 
L 142.042215 81.442952 
L 140.981555 80.382292 
L 142.042215 79.321632 
L 140.981555 78.260972 
L 139.920895 79.321632 
L 138.860235 78.260972 
L 137.799574 79.321632 
L 138.860235 80.382292 
L 137.799574 81.442952 
z
" clip-path="url(#p27ead537d6)" style="fill: #88ccee; fill-opacity: 0.6; stroke: #ffffff; stroke-opacity: 0.6; stroke-width: 0.339411"/>
    <path d="M 145.274441 169.334226 
L 146.335101 168.273566 
L 147.395762 169.334226 
L 148.456422 168.273566 
L 147.395762 167.212906 
L 148.456422 166.152246 
L 147.395762 165.091585 
L 146.335101 166.152246 
L 145.274441 165.091585 
L 144.213781 166.152246 
L 145.274441 167.212906 
L 144.213781 168.273566 
z
" clip-path="url(#p27ead537d6)" style="fill: #88ccee; fill-opacity: 0.6; stroke: #ffffff; stroke-opacity: 0.6; stroke-width: 0.339411"/>
    <path d="M 141.492989 165.322676 
L 142.553649 164.262016 
L 143.614309 165.322676 
L 144.67497 164.262016 
L 143.614309 163.201356 
L 144.67497 162.140696 
L 143.614309 161.080036 
L 142.553649 162.140696 
L 141.492989 161.080036 
L 140.432329 162.140696 
L 141.492989 163.201356 
L 140.432329 164.262016 
z
" clip-path="url(#p27ead537d6)" style="fill: #88ccee; fill-opacity: 0.6; stroke: #ffffff; stroke-opacity: 0.6; stroke-width: 0.339411"/>
    <path d="M 157.301924 68.821085 
L 158.362584 67.760424 
L 159.423244 68.821085 
L 160.483904 67.760424 
L 159.423244 66.699764 
L 160.483904 65.639104 
L 159.423244 64.578444 
L 158.362584 65.639104 
L 157.301924 64.578444 
L 156.241263 65.639104 
L 157.301924 66.699764 
L 156.241263 67.760424 
z
" clip-path="url(#p27ead537d6)" style="fill: #88ccee; fill-opacity: 0.6; stroke: #ffffff; stroke-opacity: 0.6; stroke-width: 0.339411"/>
    <path d="M 184.344983 78.834685 
L 185.405643 77.774025 
L 186.466303 78.834685 
L 187.526963 77.774025 
L 186.466303 76.713365 
L 187.526963 75.652705 
L 186.466303 74.592044 
L 185.405643 75.652705 
L 184.344983 74.592044 
L 183.284323 75.652705 
L 184.344983 76.713365 
L 183.284323 77.774025 
z
" clip-path="url(#p27ead537d6)" style="fill: #88ccee; fill-opacity: 0.6; stroke: #ffffff; stroke-opacity: 0.6; stroke-width: 0.339411"/>
    <path d="M 215.552908 91.390402 
L 216.613568 90.329742 
L 217.674228 91.390402 
L 218.734889 90.329742 
L 217.674228 89.269082 
L 218.734889 88.208421 
L 217.674228 87.147761 
L 216.613568 88.208421 
L 215.552908 87.147761 
L 214.492248 88.208421 
L 215.552908 89.269082 
L 214.492248 90.329742 
z
" clip-path="url(#p27ead537d6)" style="fill: #88ccee; fill-opacity: 0.6; stroke: #ffffff; stroke-opacity: 0.6; stroke-width: 0.339411"/>
    <path d="M 125.770364 120.208188 
L 126.831024 119.147528 
L 127.891684 120.208188 
L 128.952344 119.147528 
L 127.891684 118.086868 
L 128.952344 117.026208 
L 127.891684 115.965547 
L 126.831024 117.026208 
L 125.770364 115.965547 
L 124.709704 117.026208 
L 125.770364 118.086868 
L 124.709704 119.147528 
z
" clip-path="url(#p27ead537d6)" style="fill: #88ccee; fill-opacity: 0.6; stroke: #ffffff; stroke-opacity: 0.6; stroke-width: 0.339411"/>
    <path d="M 207.223245 95.922317 
L 208.283906 94.861657 
L 209.344566 95.922317 
L 210.405226 94.861657 
L 209.344566 93.800997 
L 210.405226 92.740337 
L 209.344566 91.679677 
L 208.283906 92.740337 
L 207.223245 91.679677 
L 206.162585 92.740337 
L 207.223245 93.800997 
L 206.162585 94.861657 
z
" clip-path="url(#p27ead537d6)" style="fill: #88ccee; fill-opacity: 0.6; stroke: #ffffff; stroke-opacity: 0.6; stroke-width: 0.339411"/>
    <path d="M 169.277091 79.094186 
L 170.337751 78.033526 
L 171.398411 79.094186 
L 172.459072 78.033526 
L 171.398411 76.972866 
L 172.459072 75.912206 
L 171.398411 74.851546 
L 170.337751 75.912206 
L 169.277091 74.851546 
L 168.216431 75.912206 
L 169.277091 76.972866 
L 168.216431 78.033526 
z
" clip-path="url(#p27ead537d6)" style="fill: #88ccee; fill-opacity: 0.6; stroke: #ffffff; stroke-opacity: 0.6; stroke-width: 0.339411"/>
    <path d="M 197.907207 97.633475 
L 198.967868 96.572815 
L 200.028528 97.633475 
L 201.089188 96.572815 
L 200.028528 95.512154 
L 201.089188 94.451494 
L 200.028528 93.390834 
L 198.967868 94.451494 
L 197.907207 93.390834 
L 196.846547 94.451494 
L 197.907207 95.512154 
L 196.846547 96.572815 
z
" clip-path="url(#p27ead537d6)" style="fill: #88ccee; fill-opacity: 0.6; stroke: #ffffff; stroke-opacity: 0.6; stroke-width: 0.339411"/>
    <path d="M 216.41849 97.210225 
L 217.47915 96.149565 
L 218.53981 97.210225 
L 219.60047 96.149565 
L 218.53981 95.088905 
L 219.60047 94.028245 
L 218.53981 92.967585 
L 217.47915 94.028245 
L 216.41849 92.967585 
L 215.35783 94.028245 
L 216.41849 95.088905 
L 215.35783 96.149565 
z
" clip-path="url(#p27ead537d6)" style="fill: #88ccee; fill-opacity: 0.6; stroke: #ffffff; stroke-opacity: 0.6; stroke-width: 0.339411"/>
    <path d="M 175.331221 137.67521 
L 176.391881 136.61455 
L 177.452542 137.67521 
L 178.513202 136.61455 
L 177.452542 135.553889 
L 178.513202 134.493229 
L 177.452542 133.432569 
L 176.391881 134.493229 
L 175.331221 133.432569 
L 174.270561 134.493229 
L 175.331221 135.553889 
L 174.270561 136.61455 
z
" clip-path="url(#p27ead537d6)" style="fill: #88ccee; fill-opacity: 0.6; stroke: #ffffff; stroke-opacity: 0.6; stroke-width: 0.339411"/>
    <path d="M 130.691811 140.889071 
L 131.752471 139.828411 
L 132.813131 140.889071 
L 133.873791 139.828411 
L 132.813131 138.767751 
L 133.873791 137.707091 
L 132.813131 136.64643 
L 131.752471 137.707091 
L 130.691811 136.64643 
L 129.63115 137.707091 
L 130.691811 138.767751 
L 129.63115 139.828411 
z
" clip-path="url(#p27ead537d6)" style="fill: #88ccee; fill-opacity: 0.6; stroke: #ffffff; stroke-opacity: 0.6; stroke-width: 0.339411"/>
    <path d="M 175.624353 104.152696 
L 176.685013 103.092035 
L 177.745673 104.152696 
L 178.806333 103.092035 
L 177.745673 102.031375 
L 178.806333 100.970715 
L 177.745673 99.910055 
L 176.685013 100.970715 
L 175.624353 99.910055 
L 174.563693 100.970715 
L 175.624353 102.031375 
L 174.563693 103.092035 
z
" clip-path="url(#p27ead537d6)" style="fill: #88ccee; fill-opacity: 0.6; stroke: #ffffff; stroke-opacity: 0.6; stroke-width: 0.339411"/>
    <path d="M 192.168751 125.046418 
L 193.229411 123.985758 
L 194.290071 125.046418 
L 195.350731 123.985758 
L 194.290071 122.925098 
L 195.350731 121.864437 
L 194.290071 120.803777 
L 193.229411 121.864437 
L 192.168751 120.803777 
L 191.10809 121.864437 
L 192.168751 122.925098 
L 191.10809 123.985758 
z
" clip-path="url(#p27ead537d6)" style="fill: #88ccee; fill-opacity: 0.6; stroke: #ffffff; stroke-opacity: 0.6; stroke-width: 0.339411"/>
    <path d="M 198.931264 113.530247 
L 199.991924 112.469586 
L 201.052584 113.530247 
L 202.113244 112.469586 
L 201.052584 111.408926 
L 202.113244 110.348266 
L 201.052584 109.287606 
L 199.991924 110.348266 
L 198.931264 109.287606 
L 197.870604 110.348266 
L 198.931264 111.408926 
L 197.870604 112.469586 
z
" clip-path="url(#p27ead537d6)" style="fill: #88ccee; fill-opacity: 0.6; stroke: #ffffff; stroke-opacity: 0.6; stroke-width: 0.339411"/>
    <path d="M 174.178241 137.817283 
L 175.238902 136.756623 
L 176.299562 137.817283 
L 177.360222 136.756623 
L 176.299562 135.695963 
L 177.360222 134.635303 
L 176.299562 133.574642 
L 175.238902 134.635303 
L 174.178241 133.574642 
L 173.117581 134.635303 
L 174.178241 135.695963 
L 173.117581 136.756623 
z
" clip-path="url(#p27ead537d6)" style="fill: #88ccee; fill-opacity: 0.6; stroke: #ffffff; stroke-opacity: 0.6; stroke-width: 0.339411"/>
    <path d="M 188.647517 95.938515 
L 189.708177 94.877855 
L 190.768838 95.938515 
L 191.829498 94.877855 
L 190.768838 93.817195 
L 191.829498 92.756535 
L 190.768838 91.695874 
L 189.708177 92.756535 
L 188.647517 91.695874 
L 187.586857 92.756535 
L 188.647517 93.817195 
L 187.586857 94.877855 
z
" clip-path="url(#p27ead537d6)" style="fill: #88ccee; fill-opacity: 0.6; stroke: #ffffff; stroke-opacity: 0.6; stroke-width: 0.339411"/>
    <path d="M 207.571868 115.358483 
L 208.632528 114.297823 
L 209.693189 115.358483 
L 210.753849 114.297823 
L 209.693189 113.237163 
L 210.753849 112.176503 
L 209.693189 111.115842 
L 208.632528 112.176503 
L 207.571868 111.115842 
L 206.511208 112.176503 
L 207.571868 113.237163 
L 206.511208 114.297823 
z
" clip-path="url(#p27ead537d6)" style="fill: #88ccee; fill-opacity: 0.6; stroke: #ffffff; stroke-opacity: 0.6; stroke-width: 0.339411"/>
    <path d="M 171.811345 53.742358 
L 172.872005 52.681698 
L 173.932665 53.742358 
L 174.993325 52.681698 
L 173.932665 51.621038 
L 174.993325 50.560378 
L 173.932665 49.499718 
L 172.872005 50.560378 
L 171.811345 49.499718 
L 170.750685 50.560378 
L 171.811345 51.621038 
L 170.750685 52.681698 
z
" clip-path="url(#p27ead537d6)" style="fill: #88ccee; fill-opacity: 0.6; stroke: #ffffff; stroke-opacity: 0.6; stroke-width: 0.339411"/>
    <path d="M 209.029444 101.622117 
L 210.090104 100.561457 
L 211.150765 101.622117 
L 212.211425 100.561457 
L 211.150765 99.500796 
L 212.211425 98.440136 
L 211.150765 97.379476 
L 210.090104 98.440136 
L 209.029444 97.379476 
L 207.968784 98.440136 
L 209.029444 99.500796 
L 207.968784 100.561457 
z
" clip-path="url(#p27ead537d6)" style="fill: #88ccee; fill-opacity: 0.6; stroke: #ffffff; stroke-opacity: 0.6; stroke-width: 0.339411"/>
    <path d="M 215.323358 106.498299 
L 216.384018 105.437638 
L 217.444678 106.498299 
L 218.505338 105.437638 
L 217.444678 104.376978 
L 218.505338 103.316318 
L 217.444678 102.255658 
L 216.384018 103.316318 
L 215.323358 102.255658 
L 214.262697 103.316318 
L 215.323358 104.376978 
L 214.262697 105.437638 
z
" clip-path="url(#p27ead537d6)" style="fill: #88ccee; fill-opacity: 0.6; stroke: #ffffff; stroke-opacity: 0.6; stroke-width: 0.339411"/>
    <path d="M 168.91845 105.674859 
L 169.97911 104.614199 
L 171.03977 105.674859 
L 172.100431 104.614199 
L 171.03977 103.553539 
L 172.100431 102.492879 
L 171.03977 101.432219 
L 169.97911 102.492879 
L 168.91845 101.432219 
L 167.85779 102.492879 
L 168.91845 103.553539 
L 167.85779 104.614199 
z
" clip-path="url(#p27ead537d6)" style="fill: #88ccee; fill-opacity: 0.6; stroke: #ffffff; stroke-opacity: 0.6; stroke-width: 0.339411"/>
    <path d="M 167.50359 133.432439 
L 168.56425 132.371779 
L 169.62491 133.432439 
L 170.685571 132.371779 
L 169.62491 131.311119 
L 170.685571 130.250459 
L 169.62491 129.189798 
L 168.56425 130.250459 
L 167.50359 129.189798 
L 166.44293 130.250459 
L 167.50359 131.311119 
L 166.44293 132.371779 
z
" clip-path="url(#p27ead537d6)" style="fill: #88ccee; fill-opacity: 0.6; stroke: #ffffff; stroke-opacity: 0.6; stroke-width: 0.339411"/>
    <path d="M 174.112771 114.074241 
L 175.173431 113.013581 
L 176.234091 114.074241 
L 177.294751 113.013581 
L 176.234091 111.95292 
L 177.294751 110.89226 
L 176.234091 109.8316 
L 175.173431 110.89226 
L 174.112771 109.8316 
L 173.052111 110.89226 
L 174.112771 111.95292 
L 173.052111 113.013581 
z
" clip-path="url(#p27ead537d6)" style="fill: #88ccee; fill-opacity: 0.6; stroke: #ffffff; stroke-opacity: 0.6; stroke-width: 0.339411"/>
    <path d="M 147.273983 63.524917 
L 148.334643 62.464256 
L 149.395303 63.524917 
L 150.455963 62.464256 
L 149.395303 61.403596 
L 150.455963 60.342936 
L 149.395303 59.282276 
L 148.334643 60.342936 
L 147.273983 59.282276 
L 146.213323 60.342936 
L 147.273983 61.403596 
L 146.213323 62.464256 
z
" clip-path="url(#p27ead537d6)" style="fill: #88ccee; fill-opacity: 0.6; stroke: #ffffff; stroke-opacity: 0.6; stroke-width: 0.339411"/>
    <path d="M 171.089985 96.634246 
L 172.150645 95.573585 
L 173.211305 96.634246 
L 174.271966 95.573585 
L 173.211305 94.512925 
L 174.271966 93.452265 
L 173.211305 92.391605 
L 172.150645 93.452265 
L 171.089985 92.391605 
L 170.029325 93.452265 
L 171.089985 94.512925 
L 170.029325 95.573585 
z
" clip-path="url(#p27ead537d6)" style="fill: #88ccee; fill-opacity: 0.6; stroke: #ffffff; stroke-opacity: 0.6; stroke-width: 0.339411"/>
    <path d="M 157.94938 148.040002 
L 159.01004 146.979342 
L 160.0707 148.040002 
L 161.13136 146.979342 
L 160.0707 145.918682 
L 161.13136 144.858022 
L 160.0707 143.797362 
L 159.01004 144.858022 
L 157.94938 143.797362 
L 156.88872 144.858022 
L 157.94938 145.918682 
L 156.88872 146.979342 
z
" clip-path="url(#p27ead537d6)" style="fill: #88ccee; fill-opacity: 0.6; stroke: #ffffff; stroke-opacity: 0.6; stroke-width: 0.339411"/>
    <path d="M 136.576512 154.74306 
L 137.637173 153.6824 
L 138.697833 154.74306 
L 139.758493 153.6824 
L 138.697833 152.62174 
L 139.758493 151.56108 
L 138.697833 150.500419 
L 137.637173 151.56108 
L 136.576512 150.500419 
L 135.515852 151.56108 
L 136.576512 152.62174 
L 135.515852 153.6824 
z
" clip-path="url(#p27ead537d6)" style="fill: #88ccee; fill-opacity: 0.6; stroke: #ffffff; stroke-opacity: 0.6; stroke-width: 0.339411"/>
    <path d="M 180.048429 72.752763 
L 181.109089 71.692103 
L 182.16975 72.752763 
L 183.23041 71.692103 
L 182.16975 70.631443 
L 183.23041 69.570783 
L 182.16975 68.510123 
L 181.109089 69.570783 
L 180.048429 68.510123 
L 178.987769 69.570783 
L 180.048429 70.631443 
L 178.987769 71.692103 
z
" clip-path="url(#p27ead537d6)" style="fill: #88ccee; fill-opacity: 0.6; stroke: #ffffff; stroke-opacity: 0.6; stroke-width: 0.339411"/>
    <path d="M 221.875024 112.201143 
L 222.935685 111.140483 
L 223.996345 112.201143 
L 225.057005 111.140483 
L 223.996345 110.079823 
L 225.057005 109.019162 
L 223.996345 107.958502 
L 222.935685 109.019162 
L 221.875024 107.958502 
L 220.814364 109.019162 
L 221.875024 110.079823 
L 220.814364 111.140483 
z
" clip-path="url(#p27ead537d6)" style="fill: #88ccee; fill-opacity: 0.6; stroke: #ffffff; stroke-opacity: 0.6; stroke-width: 0.339411"/>
    <path d="M 217.006771 96.252376 
L 218.067432 95.191716 
L 219.128092 96.252376 
L 220.188752 95.191716 
L 219.128092 94.131056 
L 220.188752 93.070396 
L 219.128092 92.009736 
L 218.067432 93.070396 
L 217.006771 92.009736 
L 215.946111 93.070396 
L 217.006771 94.131056 
L 215.946111 95.191716 
z
" clip-path="url(#p27ead537d6)" style="fill: #88ccee; fill-opacity: 0.6; stroke: #ffffff; stroke-opacity: 0.6; stroke-width: 0.339411"/>
    <path d="M 172.549778 105.50532 
L 173.610438 104.44466 
L 174.671098 105.50532 
L 175.731758 104.44466 
L 174.671098 103.384 
L 175.731758 102.323339 
L 174.671098 101.262679 
L 173.610438 102.323339 
L 172.549778 101.262679 
L 171.489117 102.323339 
L 172.549778 103.384 
L 171.489117 104.44466 
z
" clip-path="url(#p27ead537d6)" style="fill: #88ccee; fill-opacity: 0.6; stroke: #ffffff; stroke-opacity: 0.6; stroke-width: 0.339411"/>
    <path d="M 148.536283 144.575811 
L 149.596943 143.51515 
L 150.657603 144.575811 
L 151.718263 143.51515 
L 150.657603 142.45449 
L 151.718263 141.39383 
L 150.657603 140.33317 
L 149.596943 141.39383 
L 148.536283 140.33317 
L 147.475623 141.39383 
L 148.536283 142.45449 
L 147.475623 143.51515 
z
" clip-path="url(#p27ead537d6)" style="fill: #88ccee; fill-opacity: 0.6; stroke: #ffffff; stroke-opacity: 0.6; stroke-width: 0.339411"/>
    <path d="M 135.072392 164.118183 
L 136.133052 163.057523 
L 137.193712 164.118183 
L 138.254372 163.057523 
L 137.193712 161.996863 
L 138.254372 160.936203 
L 137.193712 159.875542 
L 136.133052 160.936203 
L 135.072392 159.875542 
L 134.011731 160.936203 
L 135.072392 161.996863 
L 134.011731 163.057523 
z
" clip-path="url(#p27ead537d6)" style="fill: #88ccee; fill-opacity: 0.6; stroke: #ffffff; stroke-opacity: 0.6; stroke-width: 0.339411"/>
    <path d="M 168.449078 125.754423 
L 169.509738 124.693763 
L 170.570398 125.754423 
L 171.631058 124.693763 
L 170.570398 123.633103 
L 171.631058 122.572443 
L 170.570398 121.511782 
L 169.509738 122.572443 
L 168.449078 121.511782 
L 167.388418 122.572443 
L 168.449078 123.633103 
L 167.388418 124.693763 
z
" clip-path="url(#p27ead537d6)" style="fill: #88ccee; fill-opacity: 0.6; stroke: #ffffff; stroke-opacity: 0.6; stroke-width: 0.339411"/>
    <path d="M 176.469717 124.223776 
L 177.530377 123.163116 
L 178.591038 124.223776 
L 179.651698 123.163116 
L 178.591038 122.102456 
L 179.651698 121.041796 
L 178.591038 119.981136 
L 177.530377 121.041796 
L 176.469717 119.981136 
L 175.409057 121.041796 
L 176.469717 122.102456 
L 175.409057 123.163116 
z
" clip-path="url(#p27ead537d6)" style="fill: #88ccee; fill-opacity: 0.6; stroke: #ffffff; stroke-opacity: 0.6; stroke-width: 0.339411"/>
   </g>
   <g id="matplotlib.axis_1">
    <g id="xtick_1">
     <g id="line2d_1">
      <defs>
       <path id="m92236104a7" d="M 0 0 
L 0 8 
" style="stroke: #000000"/>
      </defs>
      <g>
       <use xlink:href="#m92236104a7" x="62.751309" y="192.727559" style="stroke: #000000"/>
      </g>
     </g>
     <g id="text_1">
      <!-- 20 -->
      <g transform="translate(50.088496 213.345684) scale(0.12 -0.12)">
       <defs>
        <path id="DejaVuSans-2212" d="M 678 2272 
L 4684 2272 
L 4684 1741 
L 678 1741 
L 678 2272 
z
" transform="scale(0.015625)"/>
        <path id="DejaVuSans-32" d="M 1228 531 
L 3431 531 
L 3431 0 
L 469 0 
L 469 531 
Q 828 903 1448 1529 
Q 2069 2156 2228 2338 
Q 2531 2678 2651 2914 
Q 2772 3150 2772 3378 
Q 2772 3750 2511 3984 
Q 2250 4219 1831 4219 
Q 1534 4219 1204 4116 
Q 875 4013 500 3803 
L 500 4441 
Q 881 4594 1212 4672 
Q 1544 4750 1819 4750 
Q 2544 4750 2975 4387 
Q 3406 4025 3406 3419 
Q 3406 3131 3298 2873 
Q 3191 2616 2906 2266 
Q 2828 2175 2409 1742 
Q 1991 1309 1228 531 
z
" transform="scale(0.015625)"/>
        <path id="DejaVuSans-30" d="M 2034 4250 
Q 1547 4250 1301 3770 
Q 1056 3291 1056 2328 
Q 1056 1369 1301 889 
Q 1547 409 2034 409 
Q 2525 409 2770 889 
Q 3016 1369 3016 2328 
Q 3016 3291 2770 3770 
Q 2525 4250 2034 4250 
z
M 2034 4750 
Q 2819 4750 3233 4129 
Q 3647 3509 3647 2328 
Q 3647 1150 3233 529 
Q 2819 -91 2034 -91 
Q 1250 -91 836 529 
Q 422 1150 422 2328 
Q 422 3509 836 4129 
Q 1250 4750 2034 4750 
z
" transform="scale(0.015625)"/>
       </defs>
       <use xlink:href="#DejaVuSans-2212"/>
       <use xlink:href="#DejaVuSans-32" x="83.789062"/>
       <use xlink:href="#DejaVuSans-30" x="147.412109"/>
      </g>
     </g>
    </g>
    <g id="xtick_2">
     <g id="line2d_2">
      <g>
       <use xlink:href="#m92236104a7" x="108.636107" y="192.727559" style="stroke: #000000"/>
      </g>
     </g>
     <g id="text_2">
      <!-- 10 -->
      <g transform="translate(95.973295 213.345684) scale(0.12 -0.12)">
       <defs>
        <path id="DejaVuSans-31" d="M 794 531 
L 1825 531 
L 1825 4091 
L 703 3866 
L 703 4441 
L 1819 4666 
L 2450 4666 
L 2450 531 
L 3481 531 
L 3481 0 
L 794 0 
L 794 531 
z
" transform="scale(0.015625)"/>
       </defs>
       <use xlink:href="#DejaVuSans-2212"/>
       <use xlink:href="#DejaVuSans-31" x="83.789062"/>
       <use xlink:href="#DejaVuSans-30" x="147.412109"/>
      </g>
     </g>
    </g>
    <g id="xtick_3">
     <g id="line2d_3">
      <g>
       <use xlink:href="#m92236104a7" x="154.520906" y="192.727559" style="stroke: #000000"/>
      </g>
     </g>
     <g id="text_3">
      <!-- 0 -->
      <g transform="translate(150.703406 213.345684) scale(0.12 -0.12)">
       <use xlink:href="#DejaVuSans-30"/>
      </g>
     </g>
    </g>
    <g id="xtick_4">
     <g id="line2d_4">
      <g>
       <use xlink:href="#m92236104a7" x="200.405705" y="192.727559" style="stroke: #000000"/>
      </g>
     </g>
     <g id="text_4">
      <!-- 10 -->
      <g transform="translate(192.770705 213.345684) scale(0.12 -0.12)">
       <use xlink:href="#DejaVuSans-31"/>
       <use xlink:href="#DejaVuSans-30" x="63.623047"/>
      </g>
     </g>
    </g>
    <g id="text_5">
     <!-- PC 1 (8.79%) -->
     <g transform="translate(113.222217 228.959434) scale(0.12 -0.12)">
      <defs>
       <path id="DejaVuSans-50" d="M 1259 4147 
L 1259 2394 
L 2053 2394 
Q 2494 2394 2734 2622 
Q 2975 2850 2975 3272 
Q 2975 3691 2734 3919 
Q 2494 4147 2053 4147 
L 1259 4147 
z
M 628 4666 
L 2053 4666 
Q 2838 4666 3239 4311 
Q 3641 3956 3641 3272 
Q 3641 2581 3239 2228 
Q 2838 1875 2053 1875 
L 1259 1875 
L 1259 0 
L 628 0 
L 628 4666 
z
" transform="scale(0.015625)"/>
       <path id="DejaVuSans-43" d="M 4122 4306 
L 4122 3641 
Q 3803 3938 3442 4084 
Q 3081 4231 2675 4231 
Q 1875 4231 1450 3742 
Q 1025 3253 1025 2328 
Q 1025 1406 1450 917 
Q 1875 428 2675 428 
Q 3081 428 3442 575 
Q 3803 722 4122 1019 
L 4122 359 
Q 3791 134 3420 21 
Q 3050 -91 2638 -91 
Q 1578 -91 968 557 
Q 359 1206 359 2328 
Q 359 3453 968 4101 
Q 1578 4750 2638 4750 
Q 3056 4750 3426 4639 
Q 3797 4528 4122 4306 
z
" transform="scale(0.015625)"/>
       <path id="DejaVuSans-20" transform="scale(0.015625)"/>
       <path id="DejaVuSans-28" d="M 1984 4856 
Q 1566 4138 1362 3434 
Q 1159 2731 1159 2009 
Q 1159 1288 1364 580 
Q 1569 -128 1984 -844 
L 1484 -844 
Q 1016 -109 783 600 
Q 550 1309 550 2009 
Q 550 2706 781 3412 
Q 1013 4119 1484 4856 
L 1984 4856 
z
" transform="scale(0.015625)"/>
       <path id="DejaVuSans-38" d="M 2034 2216 
Q 1584 2216 1326 1975 
Q 1069 1734 1069 1313 
Q 1069 891 1326 650 
Q 1584 409 2034 409 
Q 2484 409 2743 651 
Q 3003 894 3003 1313 
Q 3003 1734 2745 1975 
Q 2488 2216 2034 2216 
z
M 1403 2484 
Q 997 2584 770 2862 
Q 544 3141 544 3541 
Q 544 4100 942 4425 
Q 1341 4750 2034 4750 
Q 2731 4750 3128 4425 
Q 3525 4100 3525 3541 
Q 3525 3141 3298 2862 
Q 3072 2584 2669 2484 
Q 3125 2378 3379 2068 
Q 3634 1759 3634 1313 
Q 3634 634 3220 271 
Q 2806 -91 2034 -91 
Q 1263 -91 848 271 
Q 434 634 434 1313 
Q 434 1759 690 2068 
Q 947 2378 1403 2484 
z
M 1172 3481 
Q 1172 3119 1398 2916 
Q 1625 2713 2034 2713 
Q 2441 2713 2670 2916 
Q 2900 3119 2900 3481 
Q 2900 3844 2670 4047 
Q 2441 4250 2034 4250 
Q 1625 4250 1398 4047 
Q 1172 3844 1172 3481 
z
" transform="scale(0.015625)"/>
       <path id="DejaVuSans-2e" d="M 684 794 
L 1344 794 
L 1344 0 
L 684 0 
L 684 794 
z
" transform="scale(0.015625)"/>
       <path id="DejaVuSans-37" d="M 525 4666 
L 3525 4666 
L 3525 4397 
L 1831 0 
L 1172 0 
L 2766 4134 
L 525 4134 
L 525 4666 
z
" transform="scale(0.015625)"/>
       <path id="DejaVuSans-39" d="M 703 97 
L 703 672 
Q 941 559 1184 500 
Q 1428 441 1663 441 
Q 2288 441 2617 861 
Q 2947 1281 2994 2138 
Q 2813 1869 2534 1725 
Q 2256 1581 1919 1581 
Q 1219 1581 811 2004 
Q 403 2428 403 3163 
Q 403 3881 828 4315 
Q 1253 4750 1959 4750 
Q 2769 4750 3195 4129 
Q 3622 3509 3622 2328 
Q 3622 1225 3098 567 
Q 2575 -91 1691 -91 
Q 1453 -91 1209 -44 
Q 966 3 703 97 
z
M 1959 2075 
Q 2384 2075 2632 2365 
Q 2881 2656 2881 3163 
Q 2881 3666 2632 3958 
Q 2384 4250 1959 4250 
Q 1534 4250 1286 3958 
Q 1038 3666 1038 3163 
Q 1038 2656 1286 2365 
Q 1534 2075 1959 2075 
z
" transform="scale(0.015625)"/>
       <path id="DejaVuSans-25" d="M 4653 2053 
Q 4381 2053 4226 1822 
Q 4072 1591 4072 1178 
Q 4072 772 4226 539 
Q 4381 306 4653 306 
Q 4919 306 5073 539 
Q 5228 772 5228 1178 
Q 5228 1588 5073 1820 
Q 4919 2053 4653 2053 
z
M 4653 2450 
Q 5147 2450 5437 2106 
Q 5728 1763 5728 1178 
Q 5728 594 5436 251 
Q 5144 -91 4653 -91 
Q 4153 -91 3862 251 
Q 3572 594 3572 1178 
Q 3572 1766 3864 2108 
Q 4156 2450 4653 2450 
z
M 1428 4353 
Q 1159 4353 1004 4120 
Q 850 3888 850 3481 
Q 850 3069 1003 2837 
Q 1156 2606 1428 2606 
Q 1700 2606 1854 2837 
Q 2009 3069 2009 3481 
Q 2009 3884 1853 4118 
Q 1697 4353 1428 4353 
z
M 4250 4750 
L 4750 4750 
L 1831 -91 
L 1331 -91 
L 4250 4750 
z
M 1428 4750 
Q 1922 4750 2215 4408 
Q 2509 4066 2509 3481 
Q 2509 2891 2217 2550 
Q 1925 2209 1428 2209 
Q 931 2209 642 2551 
Q 353 2894 353 3481 
Q 353 4063 643 4406 
Q 934 4750 1428 4750 
z
" transform="scale(0.015625)"/>
       <path id="DejaVuSans-29" d="M 513 4856 
L 1013 4856 
Q 1481 4119 1714 3412 
Q 1947 2706 1947 2009 
Q 1947 1309 1714 600 
Q 1481 -109 1013 -844 
L 513 -844 
Q 928 -128 1133 580 
Q 1338 1288 1338 2009 
Q 1338 2731 1133 3434 
Q 928 4138 513 4856 
z
" transform="scale(0.015625)"/>
      </defs>
      <use xlink:href="#DejaVuSans-50"/>
      <use xlink:href="#DejaVuSans-43" x="60.302734"/>
      <use xlink:href="#DejaVuSans-20" x="130.126953"/>
      <use xlink:href="#DejaVuSans-31" x="161.914062"/>
      <use xlink:href="#DejaVuSans-20" x="225.537109"/>
      <use xlink:href="#DejaVuSans-28" x="257.324219"/>
      <use xlink:href="#DejaVuSans-38" x="296.337891"/>
      <use xlink:href="#DejaVuSans-2e" x="359.960938"/>
      <use xlink:href="#DejaVuSans-37" x="391.748047"/>
      <use xlink:href="#DejaVuSans-39" x="455.371094"/>
      <use xlink:href="#DejaVuSans-25" x="518.994141"/>
      <use xlink:href="#DejaVuSans-29" x="614.013672"/>
     </g>
    </g>
   </g>
   <g id="matplotlib.axis_2">
    <g id="ytick_1">
     <g id="line2d_5">
      <defs>
       <path id="m3a479f9b9c" d="M 0 0 
L -8 0 
" style="stroke: #000000"/>
      </defs>
      <g>
       <use xlink:href="#m3a479f9b9c" x="59.639375" y="189.615625" style="stroke: #000000"/>
      </g>
     </g>
     <g id="text_6">
      <!-- 20 -->
      <g transform="translate(22.81375 194.174688) scale(0.12 -0.12)">
       <use xlink:href="#DejaVuSans-2212"/>
       <use xlink:href="#DejaVuSans-32" x="83.789062"/>
       <use xlink:href="#DejaVuSans-30" x="147.412109"/>
      </g>
     </g>
    </g>
    <g id="ytick_2">
     <g id="line2d_6">
      <g>
       <use xlink:href="#m3a479f9b9c" x="59.639375" y="143.730827" style="stroke: #000000"/>
      </g>
     </g>
     <g id="text_7">
      <!-- 10 -->
      <g transform="translate(22.81375 148.289889) scale(0.12 -0.12)">
       <use xlink:href="#DejaVuSans-2212"/>
       <use xlink:href="#DejaVuSans-31" x="83.789062"/>
       <use xlink:href="#DejaVuSans-30" x="147.412109"/>
      </g>
     </g>
    </g>
    <g id="ytick_3">
     <g id="line2d_7">
      <g>
       <use xlink:href="#m3a479f9b9c" x="59.639375" y="97.846028" style="stroke: #000000"/>
      </g>
     </g>
     <g id="text_8">
      <!-- 0 -->
      <g transform="translate(40.504375 102.405091) scale(0.12 -0.12)">
       <use xlink:href="#DejaVuSans-30"/>
      </g>
     </g>
    </g>
    <g id="ytick_4">
     <g id="line2d_8">
      <g>
       <use xlink:href="#m3a479f9b9c" x="59.639375" y="51.961229" style="stroke: #000000"/>
      </g>
     </g>
     <g id="text_9">
      <!-- 10 -->
      <g transform="translate(32.869375 56.520292) scale(0.12 -0.12)">
       <use xlink:href="#DejaVuSans-31"/>
       <use xlink:href="#DejaVuSans-30" x="63.623047"/>
      </g>
     </g>
    </g>
    <g id="text_10">
     <!-- PC 2 (7.62%) -->
     <g transform="translate(16.318125 139.144717) rotate(-90) scale(0.12 -0.12)">
      <defs>
       <path id="DejaVuSans-36" d="M 2113 2584 
Q 1688 2584 1439 2293 
Q 1191 2003 1191 1497 
Q 1191 994 1439 701 
Q 1688 409 2113 409 
Q 2538 409 2786 701 
Q 3034 994 3034 1497 
Q 3034 2003 2786 2293 
Q 2538 2584 2113 2584 
z
M 3366 4563 
L 3366 3988 
Q 3128 4100 2886 4159 
Q 2644 4219 2406 4219 
Q 1781 4219 1451 3797 
Q 1122 3375 1075 2522 
Q 1259 2794 1537 2939 
Q 1816 3084 2150 3084 
Q 2853 3084 3261 2657 
Q 3669 2231 3669 1497 
Q 3669 778 3244 343 
Q 2819 -91 2113 -91 
Q 1303 -91 875 529 
Q 447 1150 447 2328 
Q 447 3434 972 4092 
Q 1497 4750 2381 4750 
Q 2619 4750 2861 4703 
Q 3103 4656 3366 4563 
z
" transform="scale(0.015625)"/>
      </defs>
      <use xlink:href="#DejaVuSans-50"/>
      <use xlink:href="#DejaVuSans-43" x="60.302734"/>
      <use xlink:href="#DejaVuSans-20" x="130.126953"/>
      <use xlink:href="#DejaVuSans-32" x="161.914062"/>
      <use xlink:href="#DejaVuSans-20" x="225.537109"/>
      <use xlink:href="#DejaVuSans-28" x="257.324219"/>
      <use xlink:href="#DejaVuSans-37" x="296.337891"/>
      <use xlink:href="#DejaVuSans-2e" x="359.960938"/>
      <use xlink:href="#DejaVuSans-36" x="391.748047"/>
      <use xlink:href="#DejaVuSans-32" x="455.371094"/>
      <use xlink:href="#DejaVuSans-25" x="518.994141"/>
      <use xlink:href="#DejaVuSans-29" x="614.013672"/>
     </g>
    </g>
   </g>
   <g id="patch_3">
    <path d="M 59.639375 192.727559 
L 59.639375 7.2 
" style="fill: none; stroke: #000000; stroke-width: 2; stroke-linejoin: miter; stroke-linecap: square"/>
   </g>
   <g id="patch_4">
    <path d="M 59.639375 192.727559 
L 245.166934 192.727559 
" style="fill: none; stroke: #000000; stroke-width: 2; stroke-linejoin: miter; stroke-linecap: square"/>
   </g>
  </g>
 </g>
 <defs>
  <clipPath id="p27ead537d6">
   <rect x="59.639375" y="7.2" width="185.527559" height="185.527559"/>
  </clipPath>
 </defs>
</svg>
