<?xml version="1.0" encoding="utf-8" standalone="no"?>
<!DOCTYPE svg PUBLIC "-//W3C//DTD SVG 1.1//EN"
  "http://www.w3.org/Graphics/SVG/1.1/DTD/svg11.dtd">
<svg xmlns:xlink="http://www.w3.org/1999/xlink" width="253.942803pt" height="238.655059pt" viewBox="0 0 253.942803 238.655059" xmlns="http://www.w3.org/2000/svg" version="1.1">
 <metadata>
  <rdf:RDF xmlns:dc="http://purl.org/dc/elements/1.1/" xmlns:cc="http://creativecommons.org/ns#" xmlns:rdf="http://www.w3.org/1999/02/22-rdf-syntax-ns#">
   <cc:Work>
    <dc:type rdf:resource="http://purl.org/dc/dcmitype/StillImage"/>
    <dc:date>2025-08-27T10:54:50.441248</dc:date>
    <dc:format>image/svg+xml</dc:format>
    <dc:creator>
     <cc:Agent>
      <dc:title>Matplotlib v3.6.2, https://matplotlib.org/</dc:title>
     </cc:Agent>
    </dc:creator>
   </cc:Work>
  </rdf:RDF>
 </metadata>
 <defs>
  <style type="text/css">*{stroke-linejoin: round; stroke-linecap: butt}</style>
 </defs>
 <g id="figure_1">
  <g id="patch_1">
   <path d="M 0 238.655059 
L 253.942803 238.655059 
L 253.942803 0 
L 0 0 
L 0 238.655059 
z
" style="fill: none"/>
  </g>
  <g id="axes_1">
   <g id="patch_2">
    <path d="M 59.639375 192.727559 
L 245.166934 192.727559 
L 245.166934 7.2 
L 59.639375 7.2 
L 59.639375 192.727559 
z
" style="fill: none"/>
   </g>
   <g id="PathCollection_1">
    <path d="M 219.872136 64.878422 
L 221.672136 61.878422 
L 219.872136 58.878422 
L 218.072136 61.878422 
z
" clip-path="url(#p2eae15e887)" style="fill: #332288; fill-opacity: 0.6; stroke: #ffffff; stroke-opacity: 0.6; stroke-width: 0.339411"/>
    <path d="M 163.381312 126.989279 
L 165.181312 123.989279 
L 163.381312 120.989279 
L 161.581312 123.989279 
z
" clip-path="url(#p2eae15e887)" style="fill: #332288; fill-opacity: 0.6; stroke: #ffffff; stroke-opacity: 0.6; stroke-width: 0.339411"/>
    <path d="M 230.945323 75.760679 
L 232.745323 72.760679 
L 230.945323 69.760679 
L 229.145323 72.760679 
z
" clip-path="url(#p2eae15e887)" style="fill: #332288; fill-opacity: 0.6; stroke: #ffffff; stroke-opacity: 0.6; stroke-width: 0.339411"/>
    <path d="M 134.466293 134.725428 
L 136.266293 131.725428 
L 134.466293 128.725428 
L 132.666293 131.725428 
z
" clip-path="url(#p2eae15e887)" style="fill: #332288; fill-opacity: 0.6; stroke: #ffffff; stroke-opacity: 0.6; stroke-width: 0.339411"/>
    <path d="M 194.332683 155.696615 
L 196.132683 152.696615 
L 194.332683 149.696615 
L 192.532683 152.696615 
z
" clip-path="url(#p2eae15e887)" style="fill: #332288; fill-opacity: 0.6; stroke: #ffffff; stroke-opacity: 0.6; stroke-width: 0.339411"/>
    <path d="M 140.359562 143.097081 
L 142.159562 140.097081 
L 140.359562 137.097081 
L 138.559562 140.097081 
z
" clip-path="url(#p2eae15e887)" style="fill: #332288; fill-opacity: 0.6; stroke: #ffffff; stroke-opacity: 0.6; stroke-width: 0.339411"/>
    <path d="M 231.852626 75.20802 
L 233.652626 72.20802 
L 231.852626 69.20802 
L 230.052626 72.20802 
z
" clip-path="url(#p2eae15e887)" style="fill: #332288; fill-opacity: 0.6; stroke: #ffffff; stroke-opacity: 0.6; stroke-width: 0.339411"/>
    <path d="M 135.059994 140.628337 
L 136.859994 137.628337 
L 135.059994 134.628337 
L 133.259994 137.628337 
z
" clip-path="url(#p2eae15e887)" style="fill: #332288; fill-opacity: 0.6; stroke: #ffffff; stroke-opacity: 0.6; stroke-width: 0.339411"/>
    <path d="M 230.934212 75.698924 
L 232.734212 72.698924 
L 230.934212 69.698924 
L 229.134212 72.698924 
z
" clip-path="url(#p2eae15e887)" style="fill: #332288; fill-opacity: 0.6; stroke: #ffffff; stroke-opacity: 0.6; stroke-width: 0.339411"/>
    <path d="M 129.882766 143.896444 
L 131.682766 140.896444 
L 129.882766 137.896444 
L 128.082766 140.896444 
z
" clip-path="url(#p2eae15e887)" style="fill: #332288; fill-opacity: 0.6; stroke: #ffffff; stroke-opacity: 0.6; stroke-width: 0.339411"/>
    <path d="M 191.257628 129.610454 
L 193.057628 126.610454 
L 191.257628 123.610454 
L 189.457628 126.610454 
z
" clip-path="url(#p2eae15e887)" style="fill: #332288; fill-opacity: 0.6; stroke: #ffffff; stroke-opacity: 0.6; stroke-width: 0.339411"/>
    <path d="M 183.750512 139.109124 
L 185.550512 136.109124 
L 183.750512 133.109124 
L 181.950512 136.109124 
z
" clip-path="url(#p2eae15e887)" style="fill: #332288; fill-opacity: 0.6; stroke: #ffffff; stroke-opacity: 0.6; stroke-width: 0.339411"/>
    <path d="M 187.906325 165.094369 
L 189.706325 162.094369 
L 187.906325 159.094369 
L 186.106325 162.094369 
z
" clip-path="url(#p2eae15e887)" style="fill: #332288; fill-opacity: 0.6; stroke: #ffffff; stroke-opacity: 0.6; stroke-width: 0.339411"/>
    <path d="M 182.650272 137.642146 
L 184.450272 134.642146 
L 182.650272 131.642146 
L 180.850272 134.642146 
z
" clip-path="url(#p2eae15e887)" style="fill: #332288; fill-opacity: 0.6; stroke: #ffffff; stroke-opacity: 0.6; stroke-width: 0.339411"/>
    <path d="M 201.506337 46.620293 
L 203.306337 43.620293 
L 201.506337 40.620293 
L 199.706337 43.620293 
z
" clip-path="url(#p2eae15e887)" style="fill: #332288; fill-opacity: 0.6; stroke: #ffffff; stroke-opacity: 0.6; stroke-width: 0.339411"/>
    <path d="M 206.287394 51.282875 
L 208.087394 48.282875 
L 206.287394 45.282875 
L 204.487394 48.282875 
z
" clip-path="url(#p2eae15e887)" style="fill: #332288; fill-opacity: 0.6; stroke: #ffffff; stroke-opacity: 0.6; stroke-width: 0.339411"/>
    <path d="M 193.554043 164.226729 
L 195.354043 161.226729 
L 193.554043 158.226729 
L 191.754043 161.226729 
z
" clip-path="url(#p2eae15e887)" style="fill: #332288; fill-opacity: 0.6; stroke: #ffffff; stroke-opacity: 0.6; stroke-width: 0.339411"/>
    <path d="M 139.893996 143.887152 
L 141.693996 140.887152 
L 139.893996 137.887152 
L 138.093996 140.887152 
z
" clip-path="url(#p2eae15e887)" style="fill: #332288; fill-opacity: 0.6; stroke: #ffffff; stroke-opacity: 0.6; stroke-width: 0.339411"/>
    <path d="M 196.452829 164.376137 
L 198.252829 161.376137 
L 196.452829 158.376137 
L 194.652829 161.376137 
z
" clip-path="url(#p2eae15e887)" style="fill: #332288; fill-opacity: 0.6; stroke: #ffffff; stroke-opacity: 0.6; stroke-width: 0.339411"/>
    <path d="M 185.858583 172.120136 
L 187.658583 169.120136 
L 185.858583 166.120136 
L 184.058583 169.120136 
z
" clip-path="url(#p2eae15e887)" style="fill: #332288; fill-opacity: 0.6; stroke: #ffffff; stroke-opacity: 0.6; stroke-width: 0.339411"/>
    <path d="M 137.754199 138.014761 
L 139.554199 135.014761 
L 137.754199 132.014761 
L 135.954199 135.014761 
z
" clip-path="url(#p2eae15e887)" style="fill: #332288; fill-opacity: 0.6; stroke: #ffffff; stroke-opacity: 0.6; stroke-width: 0.339411"/>
    <path d="M 123.579555 124.537037 
L 125.379555 121.537037 
L 123.579555 118.537037 
L 121.779555 121.537037 
z
" clip-path="url(#p2eae15e887)" style="fill: #332288; fill-opacity: 0.6; stroke: #ffffff; stroke-opacity: 0.6; stroke-width: 0.339411"/>
    <path d="M 184.739223 177.985644 
L 186.539223 174.985644 
L 184.739223 171.985644 
L 182.939223 174.985644 
z
" clip-path="url(#p2eae15e887)" style="fill: #332288; fill-opacity: 0.6; stroke: #ffffff; stroke-opacity: 0.6; stroke-width: 0.339411"/>
    <path d="M 200.59444 86.550703 
L 202.39444 83.550703 
L 200.59444 80.550703 
L 198.79444 83.550703 
z
" clip-path="url(#p2eae15e887)" style="fill: #332288; fill-opacity: 0.6; stroke: #ffffff; stroke-opacity: 0.6; stroke-width: 0.339411"/>
    <path d="M 218.717727 65.463635 
L 220.517727 62.463635 
L 218.717727 59.463635 
L 216.917727 62.463635 
z
" clip-path="url(#p2eae15e887)" style="fill: #332288; fill-opacity: 0.6; stroke: #ffffff; stroke-opacity: 0.6; stroke-width: 0.339411"/>
    <path d="M 142.867393 124.072717 
L 144.667393 121.072717 
L 142.867393 118.072717 
L 141.067393 121.072717 
z
" clip-path="url(#p2eae15e887)" style="fill: #332288; fill-opacity: 0.6; stroke: #ffffff; stroke-opacity: 0.6; stroke-width: 0.339411"/>
    <path d="M 232.023433 76.541549 
L 233.823433 73.541549 
L 232.023433 70.541549 
L 230.223433 73.541549 
z
" clip-path="url(#p2eae15e887)" style="fill: #332288; fill-opacity: 0.6; stroke: #ffffff; stroke-opacity: 0.6; stroke-width: 0.339411"/>
    <path d="M 210.39591 54.622879 
L 212.19591 51.622879 
L 210.39591 48.622879 
L 208.59591 51.622879 
z
" clip-path="url(#p2eae15e887)" style="fill: #332288; fill-opacity: 0.6; stroke: #ffffff; stroke-opacity: 0.6; stroke-width: 0.339411"/>
    <path d="M 218.605843 66.083656 
L 220.405843 63.083656 
L 218.605843 60.083656 
L 216.805843 63.083656 
z
" clip-path="url(#p2eae15e887)" style="fill: #332288; fill-opacity: 0.6; stroke: #ffffff; stroke-opacity: 0.6; stroke-width: 0.339411"/>
    <path d="M 143.00898 122.913006 
L 144.80898 119.913006 
L 143.00898 116.913006 
L 141.20898 119.913006 
z
" clip-path="url(#p2eae15e887)" style="fill: #332288; fill-opacity: 0.6; stroke: #ffffff; stroke-opacity: 0.6; stroke-width: 0.339411"/>
    <path d="M 211.958839 125.449206 
L 213.758839 122.449206 
L 211.958839 119.449206 
L 210.158839 122.449206 
z
" clip-path="url(#p2eae15e887)" style="fill: #332288; fill-opacity: 0.6; stroke: #ffffff; stroke-opacity: 0.6; stroke-width: 0.339411"/>
    <path d="M 230.846691 76.380814 
L 232.646691 73.380814 
L 230.846691 70.380814 
L 229.046691 73.380814 
z
" clip-path="url(#p2eae15e887)" style="fill: #332288; fill-opacity: 0.6; stroke: #ffffff; stroke-opacity: 0.6; stroke-width: 0.339411"/>
    <path d="M 162.777278 125.446981 
L 164.577278 122.446981 
L 162.777278 119.446981 
L 160.977278 122.446981 
z
" clip-path="url(#p2eae15e887)" style="fill: #332288; fill-opacity: 0.6; stroke: #ffffff; stroke-opacity: 0.6; stroke-width: 0.339411"/>
    <path d="M 208.475607 88.962515 
L 210.275607 85.962515 
L 208.475607 82.962515 
L 206.675607 85.962515 
z
" clip-path="url(#p2eae15e887)" style="fill: #332288; fill-opacity: 0.6; stroke: #ffffff; stroke-opacity: 0.6; stroke-width: 0.339411"/>
    <path d="M 184.643081 178.180508 
L 186.443081 175.180508 
L 184.643081 172.180508 
L 182.843081 175.180508 
z
" clip-path="url(#p2eae15e887)" style="fill: #332288; fill-opacity: 0.6; stroke: #ffffff; stroke-opacity: 0.6; stroke-width: 0.339411"/>
    <path d="M 175.0228 153.744792 
L 176.8228 150.744792 
L 175.0228 147.744792 
L 173.2228 150.744792 
z
" clip-path="url(#p2eae15e887)" style="fill: #332288; fill-opacity: 0.6; stroke: #ffffff; stroke-opacity: 0.6; stroke-width: 0.339411"/>
    <path d="M 177.161673 159.564086 
L 178.961673 156.564086 
L 177.161673 153.564086 
L 175.361673 156.564086 
z
" clip-path="url(#p2eae15e887)" style="fill: #332288; fill-opacity: 0.6; stroke: #ffffff; stroke-opacity: 0.6; stroke-width: 0.339411"/>
    <path d="M 230.308454 77.403843 
L 232.108454 74.403843 
L 230.308454 71.403843 
L 228.508454 74.403843 
z
" clip-path="url(#p2eae15e887)" style="fill: #332288; fill-opacity: 0.6; stroke: #ffffff; stroke-opacity: 0.6; stroke-width: 0.339411"/>
    <path d="M 219.210617 49.830248 
L 221.010617 46.830248 
L 219.210617 43.830248 
L 217.410617 46.830248 
z
" clip-path="url(#p2eae15e887)" style="fill: #332288; fill-opacity: 0.6; stroke: #ffffff; stroke-opacity: 0.6; stroke-width: 0.339411"/>
    <path d="M 216.18154 123.201035 
L 217.98154 120.201035 
L 216.18154 117.201035 
L 214.38154 120.201035 
z
" clip-path="url(#p2eae15e887)" style="fill: #332288; fill-opacity: 0.6; stroke: #ffffff; stroke-opacity: 0.6; stroke-width: 0.339411"/>
    <path d="M 209.100214 50.031955 
L 210.900214 47.031955 
L 209.100214 44.031955 
L 207.300214 47.031955 
z
" clip-path="url(#p2eae15e887)" style="fill: #332288; fill-opacity: 0.6; stroke: #ffffff; stroke-opacity: 0.6; stroke-width: 0.339411"/>
    <path d="M 230.945996 75.717097 
L 232.745996 72.717097 
L 230.945996 69.717097 
L 229.145996 72.717097 
z
" clip-path="url(#p2eae15e887)" style="fill: #332288; fill-opacity: 0.6; stroke: #ffffff; stroke-opacity: 0.6; stroke-width: 0.339411"/>
    <path d="M 193.763857 164.927977 
L 195.563857 161.927977 
L 193.763857 158.927977 
L 191.963857 161.927977 
z
" clip-path="url(#p2eae15e887)" style="fill: #332288; fill-opacity: 0.6; stroke: #ffffff; stroke-opacity: 0.6; stroke-width: 0.339411"/>
    <path d="M 194.543355 169.565091 
L 196.343355 166.565091 
L 194.543355 163.565091 
L 192.743355 166.565091 
z
" clip-path="url(#p2eae15e887)" style="fill: #332288; fill-opacity: 0.6; stroke: #ffffff; stroke-opacity: 0.6; stroke-width: 0.339411"/>
    <path d="M 184.996174 166.294624 
L 186.796174 163.294624 
L 184.996174 160.294624 
L 183.196174 163.294624 
z
" clip-path="url(#p2eae15e887)" style="fill: #332288; fill-opacity: 0.6; stroke: #ffffff; stroke-opacity: 0.6; stroke-width: 0.339411"/>
    <path d="M 169.503322 144.97422 
L 171.303322 141.97422 
L 169.503322 138.97422 
L 167.703322 141.97422 
z
" clip-path="url(#p2eae15e887)" style="fill: #332288; fill-opacity: 0.6; stroke: #ffffff; stroke-opacity: 0.6; stroke-width: 0.339411"/>
    <path d="M 206.684304 43.407052 
L 208.484304 40.407052 
L 206.684304 37.407052 
L 204.884304 40.407052 
z
" clip-path="url(#p2eae15e887)" style="fill: #332288; fill-opacity: 0.6; stroke: #ffffff; stroke-opacity: 0.6; stroke-width: 0.339411"/>
    <path d="M 194.000252 155.173538 
L 195.800252 152.173538 
L 194.000252 149.173538 
L 192.200252 152.173538 
z
" clip-path="url(#p2eae15e887)" style="fill: #332288; fill-opacity: 0.6; stroke: #ffffff; stroke-opacity: 0.6; stroke-width: 0.339411"/>
    <path d="M 137.772704 137.995779 
L 139.572704 134.995779 
L 137.772704 131.995779 
L 135.972704 134.995779 
z
" clip-path="url(#p2eae15e887)" style="fill: #332288; fill-opacity: 0.6; stroke: #ffffff; stroke-opacity: 0.6; stroke-width: 0.339411"/>
    <path d="M 206.639746 43.373249 
L 208.439746 40.373249 
L 206.639746 37.373249 
L 204.839746 40.373249 
z
" clip-path="url(#p2eae15e887)" style="fill: #332288; fill-opacity: 0.6; stroke: #ffffff; stroke-opacity: 0.6; stroke-width: 0.339411"/>
    <path d="M 218.583197 78.579344 
L 220.383197 75.579344 
L 218.583197 72.579344 
L 216.783197 75.579344 
z
" clip-path="url(#p2eae15e887)" style="fill: #332288; fill-opacity: 0.6; stroke: #ffffff; stroke-opacity: 0.6; stroke-width: 0.339411"/>
    <path d="M 195.099812 156.150196 
L 196.899812 153.150196 
L 195.099812 150.150196 
L 193.299812 153.150196 
z
" clip-path="url(#p2eae15e887)" style="fill: #332288; fill-opacity: 0.6; stroke: #ffffff; stroke-opacity: 0.6; stroke-width: 0.339411"/>
    <path d="M 231.748426 75.292154 
L 233.548426 72.292154 
L 231.748426 69.292154 
L 229.948426 72.292154 
z
" clip-path="url(#p2eae15e887)" style="fill: #332288; fill-opacity: 0.6; stroke: #ffffff; stroke-opacity: 0.6; stroke-width: 0.339411"/>
    <path d="M 178.999142 132.036601 
L 180.799142 129.036601 
L 178.999142 126.036601 
L 177.199142 129.036601 
z
" clip-path="url(#p2eae15e887)" style="fill: #332288; fill-opacity: 0.6; stroke: #ffffff; stroke-opacity: 0.6; stroke-width: 0.339411"/>
    <path d="M 199.649202 54.948127 
L 201.449202 51.948127 
L 199.649202 48.948127 
L 197.849202 51.948127 
z
" clip-path="url(#p2eae15e887)" style="fill: #332288; fill-opacity: 0.6; stroke: #ffffff; stroke-opacity: 0.6; stroke-width: 0.339411"/>
    <path d="M 192.661899 166.825608 
L 194.461899 163.825608 
L 192.661899 160.825608 
L 190.861899 163.825608 
z
" clip-path="url(#p2eae15e887)" style="fill: #332288; fill-opacity: 0.6; stroke: #ffffff; stroke-opacity: 0.6; stroke-width: 0.339411"/>
    <path d="M 192.822958 167.627842 
L 194.622958 164.627842 
L 192.822958 161.627842 
L 191.022958 164.627842 
z
" clip-path="url(#p2eae15e887)" style="fill: #332288; fill-opacity: 0.6; stroke: #ffffff; stroke-opacity: 0.6; stroke-width: 0.339411"/>
    <path d="M 150.818734 161.171319 
L 152.618734 158.171319 
L 150.818734 155.171319 
L 149.018734 158.171319 
z
" clip-path="url(#p2eae15e887)" style="fill: #332288; fill-opacity: 0.6; stroke: #ffffff; stroke-opacity: 0.6; stroke-width: 0.339411"/>
    <path d="M 208.174435 88.847277 
L 209.974435 85.847277 
L 208.174435 82.847277 
L 206.374435 85.847277 
z
" clip-path="url(#p2eae15e887)" style="fill: #332288; fill-opacity: 0.6; stroke: #ffffff; stroke-opacity: 0.6; stroke-width: 0.339411"/>
    <path d="M 129.014347 143.140385 
L 130.814347 140.140385 
L 129.014347 137.140385 
L 127.214347 140.140385 
z
" clip-path="url(#p2eae15e887)" style="fill: #332288; fill-opacity: 0.6; stroke: #ffffff; stroke-opacity: 0.6; stroke-width: 0.339411"/>
    <path d="M 198.094435 54.882398 
L 199.894435 51.882398 
L 198.094435 48.882398 
L 196.294435 51.882398 
z
" clip-path="url(#p2eae15e887)" style="fill: #332288; fill-opacity: 0.6; stroke: #ffffff; stroke-opacity: 0.6; stroke-width: 0.339411"/>
    <path d="M 231.7526 75.463433 
L 233.5526 72.463433 
L 231.7526 69.463433 
L 229.9526 72.463433 
z
" clip-path="url(#p2eae15e887)" style="fill: #332288; fill-opacity: 0.6; stroke: #ffffff; stroke-opacity: 0.6; stroke-width: 0.339411"/>
    <path d="M 137.731688 138.653836 
L 139.531688 135.653836 
L 137.731688 132.653836 
L 135.931688 135.653836 
z
" clip-path="url(#p2eae15e887)" style="fill: #332288; fill-opacity: 0.6; stroke: #ffffff; stroke-opacity: 0.6; stroke-width: 0.339411"/>
    <path d="M 193.585518 164.254249 
L 195.385518 161.254249 
L 193.585518 158.254249 
L 191.785518 161.254249 
z
" clip-path="url(#p2eae15e887)" style="fill: #332288; fill-opacity: 0.6; stroke: #ffffff; stroke-opacity: 0.6; stroke-width: 0.339411"/>
    <path d="M 195.167 52.260667 
L 193.045679 56.503307 
L 197.28832 56.503307 
z
" clip-path="url(#p2eae15e887)" style="fill: #117733; fill-opacity: 0.6; stroke: #ffffff; stroke-opacity: 0.6; stroke-width: 0.339411"/>
    <path d="M 181.894925 80.44289 
L 179.773604 84.685531 
L 184.016245 84.685531 
z
" clip-path="url(#p2eae15e887)" style="fill: #117733; fill-opacity: 0.6; stroke: #ffffff; stroke-opacity: 0.6; stroke-width: 0.339411"/>
    <path d="M 191.992054 111.858181 
L 189.870734 116.100821 
L 194.113374 116.100821 
z
" clip-path="url(#p2eae15e887)" style="fill: #117733; fill-opacity: 0.6; stroke: #ffffff; stroke-opacity: 0.6; stroke-width: 0.339411"/>
    <path d="M 187.380136 84.565689 
L 185.258815 88.808329 
L 189.501456 88.808329 
z
" clip-path="url(#p2eae15e887)" style="fill: #117733; fill-opacity: 0.6; stroke: #ffffff; stroke-opacity: 0.6; stroke-width: 0.339411"/>
    <path d="M 212.415112 68.965708 
L 210.293791 73.208349 
L 214.536432 73.208349 
z
" clip-path="url(#p2eae15e887)" style="fill: #117733; fill-opacity: 0.6; stroke: #ffffff; stroke-opacity: 0.6; stroke-width: 0.339411"/>
    <path d="M 169.427745 78.415434 
L 167.306425 82.658075 
L 171.549065 82.658075 
z
" clip-path="url(#p2eae15e887)" style="fill: #117733; fill-opacity: 0.6; stroke: #ffffff; stroke-opacity: 0.6; stroke-width: 0.339411"/>
    <path d="M 183.02549 100.370267 
L 180.90417 104.612908 
L 185.146811 104.612908 
z
" clip-path="url(#p2eae15e887)" style="fill: #117733; fill-opacity: 0.6; stroke: #ffffff; stroke-opacity: 0.6; stroke-width: 0.339411"/>
    <path d="M 218.984801 68.836345 
L 216.863481 73.078986 
L 221.106121 73.078986 
z
" clip-path="url(#p2eae15e887)" style="fill: #117733; fill-opacity: 0.6; stroke: #ffffff; stroke-opacity: 0.6; stroke-width: 0.339411"/>
    <path d="M 200.696963 74.371493 
L 198.575643 78.614134 
L 202.818283 78.614134 
z
" clip-path="url(#p2eae15e887)" style="fill: #117733; fill-opacity: 0.6; stroke: #ffffff; stroke-opacity: 0.6; stroke-width: 0.339411"/>
    <path d="M 216.941272 54.237185 
L 214.819952 58.479825 
L 219.062593 58.479825 
z
" clip-path="url(#p2eae15e887)" style="fill: #117733; fill-opacity: 0.6; stroke: #ffffff; stroke-opacity: 0.6; stroke-width: 0.339411"/>
    <path d="M 217.550164 70.39642 
L 215.428844 74.639061 
L 219.671485 74.639061 
z
" clip-path="url(#p2eae15e887)" style="fill: #117733; fill-opacity: 0.6; stroke: #ffffff; stroke-opacity: 0.6; stroke-width: 0.339411"/>
    <path d="M 161.799676 56.31774 
L 159.678356 60.560381 
L 163.920997 60.560381 
z
" clip-path="url(#p2eae15e887)" style="fill: #117733; fill-opacity: 0.6; stroke: #ffffff; stroke-opacity: 0.6; stroke-width: 0.339411"/>
    <path d="M 155.815049 56.050154 
L 153.693729 60.292795 
L 157.936369 60.292795 
z
" clip-path="url(#p2eae15e887)" style="fill: #117733; fill-opacity: 0.6; stroke: #ffffff; stroke-opacity: 0.6; stroke-width: 0.339411"/>
    <path d="M 203.131762 52.786825 
L 201.010442 57.029466 
L 205.253083 57.029466 
z
" clip-path="url(#p2eae15e887)" style="fill: #117733; fill-opacity: 0.6; stroke: #ffffff; stroke-opacity: 0.6; stroke-width: 0.339411"/>
    <path d="M 221.909263 117.339823 
L 219.787942 121.582463 
L 224.030583 121.582463 
z
" clip-path="url(#p2eae15e887)" style="fill: #117733; fill-opacity: 0.6; stroke: #ffffff; stroke-opacity: 0.6; stroke-width: 0.339411"/>
    <path d="M 208.228646 68.036777 
L 206.107325 72.279418 
L 210.349966 72.279418 
z
" clip-path="url(#p2eae15e887)" style="fill: #117733; fill-opacity: 0.6; stroke: #ffffff; stroke-opacity: 0.6; stroke-width: 0.339411"/>
    <path d="M 179.773316 85.26738 
L 177.651996 89.510021 
L 181.894636 89.510021 
z
" clip-path="url(#p2eae15e887)" style="fill: #117733; fill-opacity: 0.6; stroke: #ffffff; stroke-opacity: 0.6; stroke-width: 0.339411"/>
    <path d="M 212.535095 50.789576 
L 210.413775 55.032217 
L 214.656416 55.032217 
z
" clip-path="url(#p2eae15e887)" style="fill: #117733; fill-opacity: 0.6; stroke: #ffffff; stroke-opacity: 0.6; stroke-width: 0.339411"/>
    <path d="M 200.698127 65.680321 
L 198.576807 69.922962 
L 202.819448 69.922962 
z
" clip-path="url(#p2eae15e887)" style="fill: #117733; fill-opacity: 0.6; stroke: #ffffff; stroke-opacity: 0.6; stroke-width: 0.339411"/>
    <path d="M 90.308704 79.564726 
L 88.187384 83.807366 
L 92.430025 83.807366 
z
" clip-path="url(#p2eae15e887)" style="fill: #117733; fill-opacity: 0.6; stroke: #ffffff; stroke-opacity: 0.6; stroke-width: 0.339411"/>
    <path d="M 125.807607 59.81356 
L 123.686286 64.056201 
L 127.928927 64.056201 
z
" clip-path="url(#p2eae15e887)" style="fill: #117733; fill-opacity: 0.6; stroke: #ffffff; stroke-opacity: 0.6; stroke-width: 0.339411"/>
    <path d="M 194.362103 80.028721 
L 192.240783 84.271361 
L 196.483424 84.271361 
z
" clip-path="url(#p2eae15e887)" style="fill: #117733; fill-opacity: 0.6; stroke: #ffffff; stroke-opacity: 0.6; stroke-width: 0.339411"/>
    <path d="M 106.90674 82.015959 
L 104.785419 86.2586 
L 109.02806 86.2586 
z
" clip-path="url(#p2eae15e887)" style="fill: #117733; fill-opacity: 0.6; stroke: #ffffff; stroke-opacity: 0.6; stroke-width: 0.339411"/>
    <path d="M 134.733247 47.181395 
L 132.611927 51.424035 
L 136.854568 51.424035 
z
" clip-path="url(#p2eae15e887)" style="fill: #117733; fill-opacity: 0.6; stroke: #ffffff; stroke-opacity: 0.6; stroke-width: 0.339411"/>
    <path d="M 185.943895 62.427235 
L 183.822574 66.669875 
L 188.065215 66.669875 
z
" clip-path="url(#p2eae15e887)" style="fill: #117733; fill-opacity: 0.6; stroke: #ffffff; stroke-opacity: 0.6; stroke-width: 0.339411"/>
    <path d="M 200.604307 74.35285 
L 198.482987 78.595491 
L 202.725628 78.595491 
z
" clip-path="url(#p2eae15e887)" style="fill: #117733; fill-opacity: 0.6; stroke: #ffffff; stroke-opacity: 0.6; stroke-width: 0.339411"/>
    <path d="M 192.257265 79.738975 
L 190.135944 83.981616 
L 194.378585 83.981616 
z
" clip-path="url(#p2eae15e887)" style="fill: #117733; fill-opacity: 0.6; stroke: #ffffff; stroke-opacity: 0.6; stroke-width: 0.339411"/>
    <path d="M 199.104928 85.659465 
L 196.983608 89.902105 
L 201.226249 89.902105 
z
" clip-path="url(#p2eae15e887)" style="fill: #117733; fill-opacity: 0.6; stroke: #ffffff; stroke-opacity: 0.6; stroke-width: 0.339411"/>
    <path d="M 215.366359 68.625652 
L 213.245039 72.868293 
L 217.487679 72.868293 
z
" clip-path="url(#p2eae15e887)" style="fill: #117733; fill-opacity: 0.6; stroke: #ffffff; stroke-opacity: 0.6; stroke-width: 0.339411"/>
    <path d="M 94.732023 46.630915 
L 92.610702 50.873556 
L 96.853343 50.873556 
z
" clip-path="url(#p2eae15e887)" style="fill: #117733; fill-opacity: 0.6; stroke: #ffffff; stroke-opacity: 0.6; stroke-width: 0.339411"/>
    <path d="M 200.520793 79.429268 
L 198.399473 83.671909 
L 202.642114 83.671909 
z
" clip-path="url(#p2eae15e887)" style="fill: #117733; fill-opacity: 0.6; stroke: #ffffff; stroke-opacity: 0.6; stroke-width: 0.339411"/>
    <path d="M 210.06921 31.915324 
L 207.947889 36.157965 
L 212.19053 36.157965 
z
" clip-path="url(#p2eae15e887)" style="fill: #117733; fill-opacity: 0.6; stroke: #ffffff; stroke-opacity: 0.6; stroke-width: 0.339411"/>
    <path d="M 229.79635 102.361433 
L 227.67503 106.604073 
L 231.917671 106.604073 
z
" clip-path="url(#p2eae15e887)" style="fill: #117733; fill-opacity: 0.6; stroke: #ffffff; stroke-opacity: 0.6; stroke-width: 0.339411"/>
    <path d="M 192.460477 66.760346 
L 190.339157 71.002987 
L 194.581797 71.002987 
z
" clip-path="url(#p2eae15e887)" style="fill: #117733; fill-opacity: 0.6; stroke: #ffffff; stroke-opacity: 0.6; stroke-width: 0.339411"/>
    <path d="M 123.774639 55.962755 
L 121.653319 60.205396 
L 125.89596 60.205396 
z
" clip-path="url(#p2eae15e887)" style="fill: #117733; fill-opacity: 0.6; stroke: #ffffff; stroke-opacity: 0.6; stroke-width: 0.339411"/>
    <path d="M 144.031458 22.153317 
L 141.910138 26.395958 
L 146.152778 26.395958 
z
" clip-path="url(#p2eae15e887)" style="fill: #117733; fill-opacity: 0.6; stroke: #ffffff; stroke-opacity: 0.6; stroke-width: 0.339411"/>
    <path d="M 124.873022 41.745291 
L 122.751702 45.987931 
L 126.994343 45.987931 
z
" clip-path="url(#p2eae15e887)" style="fill: #117733; fill-opacity: 0.6; stroke: #ffffff; stroke-opacity: 0.6; stroke-width: 0.339411"/>
    <path d="M 145.331579 63.543007 
L 143.210259 67.785648 
L 147.452899 67.785648 
z
" clip-path="url(#p2eae15e887)" style="fill: #117733; fill-opacity: 0.6; stroke: #ffffff; stroke-opacity: 0.6; stroke-width: 0.339411"/>
    <path d="M 196.875107 112.157434 
L 194.753787 116.400074 
L 198.996428 116.400074 
z
" clip-path="url(#p2eae15e887)" style="fill: #117733; fill-opacity: 0.6; stroke: #ffffff; stroke-opacity: 0.6; stroke-width: 0.339411"/>
    <path d="M 148.608969 43.726337 
L 146.487649 47.968978 
L 150.73029 47.968978 
z
" clip-path="url(#p2eae15e887)" style="fill: #117733; fill-opacity: 0.6; stroke: #ffffff; stroke-opacity: 0.6; stroke-width: 0.339411"/>
    <path d="M 196.752784 66.303772 
L 194.631464 70.546413 
L 198.874105 70.546413 
z
" clip-path="url(#p2eae15e887)" style="fill: #117733; fill-opacity: 0.6; stroke: #ffffff; stroke-opacity: 0.6; stroke-width: 0.339411"/>
    <path d="M 190.862451 38.826231 
L 188.741131 43.068871 
L 192.983772 43.068871 
z
" clip-path="url(#p2eae15e887)" style="fill: #117733; fill-opacity: 0.6; stroke: #ffffff; stroke-opacity: 0.6; stroke-width: 0.339411"/>
    <path d="M 214.617936 62.710323 
L 212.496616 66.952963 
L 216.739257 66.952963 
z
" clip-path="url(#p2eae15e887)" style="fill: #117733; fill-opacity: 0.6; stroke: #ffffff; stroke-opacity: 0.6; stroke-width: 0.339411"/>
    <path d="M 152.180616 104.057312 
L 150.059295 108.299953 
L 154.301936 108.299953 
z
" clip-path="url(#p2eae15e887)" style="fill: #117733; fill-opacity: 0.6; stroke: #ffffff; stroke-opacity: 0.6; stroke-width: 0.339411"/>
    <path d="M 125.030232 57.802841 
L 122.908912 62.045481 
L 127.151552 62.045481 
z
" clip-path="url(#p2eae15e887)" style="fill: #117733; fill-opacity: 0.6; stroke: #ffffff; stroke-opacity: 0.6; stroke-width: 0.339411"/>
    <path d="M 117.407984 52.964446 
L 115.286664 57.207087 
L 119.529305 57.207087 
z
" clip-path="url(#p2eae15e887)" style="fill: #117733; fill-opacity: 0.6; stroke: #ffffff; stroke-opacity: 0.6; stroke-width: 0.339411"/>
    <path d="M 208.53321 73.091444 
L 206.411889 77.334085 
L 210.65453 77.334085 
z
" clip-path="url(#p2eae15e887)" style="fill: #117733; fill-opacity: 0.6; stroke: #ffffff; stroke-opacity: 0.6; stroke-width: 0.339411"/>
    <path d="M 185.16721 49.484182 
L 183.04589 53.726823 
L 187.288531 53.726823 
z
" clip-path="url(#p2eae15e887)" style="fill: #117733; fill-opacity: 0.6; stroke: #ffffff; stroke-opacity: 0.6; stroke-width: 0.339411"/>
    <path d="M 117.375873 63.750226 
L 115.254553 67.992867 
L 119.497194 67.992867 
z
" clip-path="url(#p2eae15e887)" style="fill: #117733; fill-opacity: 0.6; stroke: #ffffff; stroke-opacity: 0.6; stroke-width: 0.339411"/>
    <path d="M 187.358292 74.117038 
L 185.236972 78.359678 
L 189.479613 78.359678 
z
" clip-path="url(#p2eae15e887)" style="fill: #117733; fill-opacity: 0.6; stroke: #ffffff; stroke-opacity: 0.6; stroke-width: 0.339411"/>
    <path d="M 197.975894 58.365048 
L 195.854573 62.607688 
L 200.097214 62.607688 
z
" clip-path="url(#p2eae15e887)" style="fill: #117733; fill-opacity: 0.6; stroke: #ffffff; stroke-opacity: 0.6; stroke-width: 0.339411"/>
    <path d="M 204.324457 53.038556 
L 202.203137 57.281196 
L 206.445778 57.281196 
z
" clip-path="url(#p2eae15e887)" style="fill: #117733; fill-opacity: 0.6; stroke: #ffffff; stroke-opacity: 0.6; stroke-width: 0.339411"/>
    <path d="M 200.757866 65.296198 
L 198.636546 69.538839 
L 202.879187 69.538839 
z
" clip-path="url(#p2eae15e887)" style="fill: #117733; fill-opacity: 0.6; stroke: #ffffff; stroke-opacity: 0.6; stroke-width: 0.339411"/>
    <path d="M 184.841944 61.632837 
L 182.720623 65.875477 
L 186.963264 65.875477 
z
" clip-path="url(#p2eae15e887)" style="fill: #117733; fill-opacity: 0.6; stroke: #ffffff; stroke-opacity: 0.6; stroke-width: 0.339411"/>
    <path d="M 205.185143 117.866382 
L 203.063822 122.109022 
L 207.306463 122.109022 
z
" clip-path="url(#p2eae15e887)" style="fill: #117733; fill-opacity: 0.6; stroke: #ffffff; stroke-opacity: 0.6; stroke-width: 0.339411"/>
    <path d="M 206.622851 66.812079 
L 204.501531 71.05472 
L 208.744172 71.05472 
z
" clip-path="url(#p2eae15e887)" style="fill: #117733; fill-opacity: 0.6; stroke: #ffffff; stroke-opacity: 0.6; stroke-width: 0.339411"/>
    <path d="M 161.796025 56.342658 
L 159.674705 60.585299 
L 163.917345 60.585299 
z
" clip-path="url(#p2eae15e887)" style="fill: #117733; fill-opacity: 0.6; stroke: #ffffff; stroke-opacity: 0.6; stroke-width: 0.339411"/>
    <path d="M 217.007962 67.394465 
L 214.886641 71.637105 
L 219.129282 71.637105 
z
" clip-path="url(#p2eae15e887)" style="fill: #117733; fill-opacity: 0.6; stroke: #ffffff; stroke-opacity: 0.6; stroke-width: 0.339411"/>
    <path d="M 149.118084 46.322386 
L 146.996764 50.565026 
L 151.239404 50.565026 
z
" clip-path="url(#p2eae15e887)" style="fill: #117733; fill-opacity: 0.6; stroke: #ffffff; stroke-opacity: 0.6; stroke-width: 0.339411"/>
    <path d="M 171.589041 84.476293 
L 169.467721 88.718934 
L 173.710361 88.718934 
z
" clip-path="url(#p2eae15e887)" style="fill: #117733; fill-opacity: 0.6; stroke: #ffffff; stroke-opacity: 0.6; stroke-width: 0.339411"/>
    <path d="M 108.28541 88.768956 
L 106.164089 93.011596 
L 110.40673 93.011596 
z
" clip-path="url(#p2eae15e887)" style="fill: #117733; fill-opacity: 0.6; stroke: #ffffff; stroke-opacity: 0.6; stroke-width: 0.339411"/>
    <path d="M 195.65895 65.379472 
L 193.537629 69.622113 
L 197.78027 69.622113 
z
" clip-path="url(#p2eae15e887)" style="fill: #117733; fill-opacity: 0.6; stroke: #ffffff; stroke-opacity: 0.6; stroke-width: 0.339411"/>
    <path d="M 138.999327 127.378519 
L 143.241968 127.378519 
L 143.241968 123.135878 
L 138.999327 123.135878 
z
" clip-path="url(#p2eae15e887)" style="fill: #44aa99; fill-opacity: 0.6; stroke: #ffffff; stroke-opacity: 0.6; stroke-width: 0.339411"/>
    <path d="M 121.17956 114.055551 
L 125.422201 114.055551 
L 125.422201 109.812911 
L 121.17956 109.812911 
z
" clip-path="url(#p2eae15e887)" style="fill: #44aa99; fill-opacity: 0.6; stroke: #ffffff; stroke-opacity: 0.6; stroke-width: 0.339411"/>
    <path d="M 136.591045 136.590057 
L 140.833685 136.590057 
L 140.833685 132.347417 
L 136.591045 132.347417 
z
" clip-path="url(#p2eae15e887)" style="fill: #44aa99; fill-opacity: 0.6; stroke: #ffffff; stroke-opacity: 0.6; stroke-width: 0.339411"/>
    <path d="M 79.515938 92.809205 
L 83.758579 92.809205 
L 83.758579 88.566564 
L 79.515938 88.566564 
z
" clip-path="url(#p2eae15e887)" style="fill: #44aa99; fill-opacity: 0.6; stroke: #ffffff; stroke-opacity: 0.6; stroke-width: 0.339411"/>
    <path d="M 93.814238 115.013583 
L 98.056878 115.013583 
L 98.056878 110.770942 
L 93.814238 110.770942 
z
" clip-path="url(#p2eae15e887)" style="fill: #44aa99; fill-opacity: 0.6; stroke: #ffffff; stroke-opacity: 0.6; stroke-width: 0.339411"/>
    <path d="M 105.860953 110.747322 
L 110.103594 110.747322 
L 110.103594 106.504681 
L 105.860953 106.504681 
z
" clip-path="url(#p2eae15e887)" style="fill: #44aa99; fill-opacity: 0.6; stroke: #ffffff; stroke-opacity: 0.6; stroke-width: 0.339411"/>
    <path d="M 153.403415 101.767077 
L 157.646055 101.767077 
L 157.646055 97.524436 
L 153.403415 97.524436 
z
" clip-path="url(#p2eae15e887)" style="fill: #44aa99; fill-opacity: 0.6; stroke: #ffffff; stroke-opacity: 0.6; stroke-width: 0.339411"/>
    <path d="M 118.376152 105.018405 
L 122.618792 105.018405 
L 122.618792 100.775764 
L 118.376152 100.775764 
z
" clip-path="url(#p2eae15e887)" style="fill: #44aa99; fill-opacity: 0.6; stroke: #ffffff; stroke-opacity: 0.6; stroke-width: 0.339411"/>
    <path d="M 164.18389 109.881022 
L 168.426531 109.881022 
L 168.426531 105.638382 
L 164.18389 105.638382 
z
" clip-path="url(#p2eae15e887)" style="fill: #44aa99; fill-opacity: 0.6; stroke: #ffffff; stroke-opacity: 0.6; stroke-width: 0.339411"/>
    <path d="M 95.292037 99.718645 
L 99.534677 99.718645 
L 99.534677 95.476004 
L 95.292037 95.476004 
z
" clip-path="url(#p2eae15e887)" style="fill: #44aa99; fill-opacity: 0.6; stroke: #ffffff; stroke-opacity: 0.6; stroke-width: 0.339411"/>
    <path d="M 86.79971 86.974379 
L 91.042351 86.974379 
L 91.042351 82.731738 
L 86.79971 82.731738 
z
" clip-path="url(#p2eae15e887)" style="fill: #44aa99; fill-opacity: 0.6; stroke: #ffffff; stroke-opacity: 0.6; stroke-width: 0.339411"/>
    <path d="M 115.950685 101.261819 
L 120.193326 101.261819 
L 120.193326 97.019179 
L 115.950685 97.019179 
z
" clip-path="url(#p2eae15e887)" style="fill: #44aa99; fill-opacity: 0.6; stroke: #ffffff; stroke-opacity: 0.6; stroke-width: 0.339411"/>
    <path d="M 112.908167 101.877932 
L 117.150808 101.877932 
L 117.150808 97.635291 
L 112.908167 97.635291 
z
" clip-path="url(#p2eae15e887)" style="fill: #44aa99; fill-opacity: 0.6; stroke: #ffffff; stroke-opacity: 0.6; stroke-width: 0.339411"/>
    <path d="M 115.239541 102.033406 
L 119.482182 102.033406 
L 119.482182 97.790765 
L 115.239541 97.790765 
z
" clip-path="url(#p2eae15e887)" style="fill: #44aa99; fill-opacity: 0.6; stroke: #ffffff; stroke-opacity: 0.6; stroke-width: 0.339411"/>
    <path d="M 111.706849 105.121119 
L 115.949489 105.121119 
L 115.949489 100.878478 
L 111.706849 100.878478 
z
" clip-path="url(#p2eae15e887)" style="fill: #44aa99; fill-opacity: 0.6; stroke: #ffffff; stroke-opacity: 0.6; stroke-width: 0.339411"/>
    <path d="M 124.012276 124.635381 
L 128.254917 124.635381 
L 128.254917 120.39274 
L 124.012276 120.39274 
z
" clip-path="url(#p2eae15e887)" style="fill: #44aa99; fill-opacity: 0.6; stroke: #ffffff; stroke-opacity: 0.6; stroke-width: 0.339411"/>
    <path d="M 88.140135 109.933282 
L 92.382776 109.933282 
L 92.382776 105.690641 
L 88.140135 105.690641 
z
" clip-path="url(#p2eae15e887)" style="fill: #44aa99; fill-opacity: 0.6; stroke: #ffffff; stroke-opacity: 0.6; stroke-width: 0.339411"/>
    <path d="M 75.575377 97.757021 
L 79.818018 97.757021 
L 79.818018 93.51438 
L 75.575377 93.51438 
z
" clip-path="url(#p2eae15e887)" style="fill: #44aa99; fill-opacity: 0.6; stroke: #ffffff; stroke-opacity: 0.6; stroke-width: 0.339411"/>
    <path d="M 148.514527 112.652248 
L 152.757168 112.652248 
L 152.757168 108.409607 
L 148.514527 108.409607 
z
" clip-path="url(#p2eae15e887)" style="fill: #44aa99; fill-opacity: 0.6; stroke: #ffffff; stroke-opacity: 0.6; stroke-width: 0.339411"/>
    <path d="M 136.558173 118.330373 
L 140.800814 118.330373 
L 140.800814 114.087732 
L 136.558173 114.087732 
z
" clip-path="url(#p2eae15e887)" style="fill: #44aa99; fill-opacity: 0.6; stroke: #ffffff; stroke-opacity: 0.6; stroke-width: 0.339411"/>
    <path d="M 164.437462 132.950729 
L 168.680103 132.950729 
L 168.680103 128.708088 
L 164.437462 128.708088 
z
" clip-path="url(#p2eae15e887)" style="fill: #44aa99; fill-opacity: 0.6; stroke: #ffffff; stroke-opacity: 0.6; stroke-width: 0.339411"/>
    <path d="M 204.041668 112.553803 
L 208.284309 112.553803 
L 208.284309 108.311162 
L 204.041668 108.311162 
z
" clip-path="url(#p2eae15e887)" style="fill: #44aa99; fill-opacity: 0.6; stroke: #ffffff; stroke-opacity: 0.6; stroke-width: 0.339411"/>
    <path d="M 131.865933 133.947798 
L 136.108574 133.947798 
L 136.108574 129.705158 
L 131.865933 129.705158 
z
" clip-path="url(#p2eae15e887)" style="fill: #44aa99; fill-opacity: 0.6; stroke: #ffffff; stroke-opacity: 0.6; stroke-width: 0.339411"/>
    <path d="M 74.50763 78.440207 
L 78.750271 78.440207 
L 78.750271 74.197567 
L 74.50763 74.197567 
z
" clip-path="url(#p2eae15e887)" style="fill: #44aa99; fill-opacity: 0.6; stroke: #ffffff; stroke-opacity: 0.6; stroke-width: 0.339411"/>
    <path d="M 154.094472 146.373192 
L 158.337113 146.373192 
L 158.337113 142.130551 
L 154.094472 142.130551 
z
" clip-path="url(#p2eae15e887)" style="fill: #44aa99; fill-opacity: 0.6; stroke: #ffffff; stroke-opacity: 0.6; stroke-width: 0.339411"/>
    <path d="M 82.775912 82.419508 
L 87.018553 82.419508 
L 87.018553 78.176868 
L 82.775912 78.176868 
z
" clip-path="url(#p2eae15e887)" style="fill: #44aa99; fill-opacity: 0.6; stroke: #ffffff; stroke-opacity: 0.6; stroke-width: 0.339411"/>
    <path d="M 112.915941 121.123256 
L 117.158581 121.123256 
L 117.158581 116.880615 
L 112.915941 116.880615 
z
" clip-path="url(#p2eae15e887)" style="fill: #44aa99; fill-opacity: 0.6; stroke: #ffffff; stroke-opacity: 0.6; stroke-width: 0.339411"/>
    <path d="M 179.530149 94.666508 
L 183.772789 94.666508 
L 183.772789 90.423867 
L 179.530149 90.423867 
z
" clip-path="url(#p2eae15e887)" style="fill: #44aa99; fill-opacity: 0.6; stroke: #ffffff; stroke-opacity: 0.6; stroke-width: 0.339411"/>
    <path d="M 188.137845 111.985922 
L 192.380486 111.985922 
L 192.380486 107.743281 
L 188.137845 107.743281 
z
" clip-path="url(#p2eae15e887)" style="fill: #44aa99; fill-opacity: 0.6; stroke: #ffffff; stroke-opacity: 0.6; stroke-width: 0.339411"/>
    <path d="M 137.369038 130.320717 
L 141.611678 130.320717 
L 141.611678 126.078076 
L 137.369038 126.078076 
z
" clip-path="url(#p2eae15e887)" style="fill: #44aa99; fill-opacity: 0.6; stroke: #ffffff; stroke-opacity: 0.6; stroke-width: 0.339411"/>
    <path d="M 72.603707 74.777952 
L 76.846348 74.777952 
L 76.846348 70.535312 
L 72.603707 70.535312 
z
" clip-path="url(#p2eae15e887)" style="fill: #44aa99; fill-opacity: 0.6; stroke: #ffffff; stroke-opacity: 0.6; stroke-width: 0.339411"/>
    <path d="M 86.139593 110.261593 
L 90.382233 110.261593 
L 90.382233 106.018952 
L 86.139593 106.018952 
z
" clip-path="url(#p2eae15e887)" style="fill: #44aa99; fill-opacity: 0.6; stroke: #ffffff; stroke-opacity: 0.6; stroke-width: 0.339411"/>
    <path d="M 122.405931 131.984833 
L 126.648572 131.984833 
L 126.648572 127.742192 
L 122.405931 127.742192 
z
" clip-path="url(#p2eae15e887)" style="fill: #44aa99; fill-opacity: 0.6; stroke: #ffffff; stroke-opacity: 0.6; stroke-width: 0.339411"/>
    <path d="M 119.411219 66.836593 
L 123.65386 66.836593 
L 123.65386 62.593952 
L 119.411219 62.593952 
z
" clip-path="url(#p2eae15e887)" style="fill: #44aa99; fill-opacity: 0.6; stroke: #ffffff; stroke-opacity: 0.6; stroke-width: 0.339411"/>
    <path d="M 84.305185 97.736732 
L 88.547826 97.736732 
L 88.547826 93.494092 
L 84.305185 93.494092 
z
" clip-path="url(#p2eae15e887)" style="fill: #44aa99; fill-opacity: 0.6; stroke: #ffffff; stroke-opacity: 0.6; stroke-width: 0.339411"/>
    <path d="M 86.041841 110.44049 
L 90.284482 110.44049 
L 90.284482 106.19785 
L 86.041841 106.19785 
z
" clip-path="url(#p2eae15e887)" style="fill: #44aa99; fill-opacity: 0.6; stroke: #ffffff; stroke-opacity: 0.6; stroke-width: 0.339411"/>
    <path d="M 185.338093 108.027095 
L 189.580734 108.027095 
L 189.580734 103.784455 
L 185.338093 103.784455 
z
" clip-path="url(#p2eae15e887)" style="fill: #44aa99; fill-opacity: 0.6; stroke: #ffffff; stroke-opacity: 0.6; stroke-width: 0.339411"/>
    <path d="M 116.812234 99.72851 
L 121.054874 99.72851 
L 121.054874 95.485869 
L 116.812234 95.485869 
z
" clip-path="url(#p2eae15e887)" style="fill: #44aa99; fill-opacity: 0.6; stroke: #ffffff; stroke-opacity: 0.6; stroke-width: 0.339411"/>
    <path d="M 79.408805 76.67094 
L 83.651445 76.67094 
L 83.651445 72.428299 
L 79.408805 72.428299 
z
" clip-path="url(#p2eae15e887)" style="fill: #44aa99; fill-opacity: 0.6; stroke: #ffffff; stroke-opacity: 0.6; stroke-width: 0.339411"/>
    <path d="M 151.220893 102.756594 
L 155.463534 102.756594 
L 155.463534 98.513953 
L 151.220893 98.513953 
z
" clip-path="url(#p2eae15e887)" style="fill: #44aa99; fill-opacity: 0.6; stroke: #ffffff; stroke-opacity: 0.6; stroke-width: 0.339411"/>
    <path d="M 119.428756 67.029963 
L 123.671397 67.029963 
L 123.671397 62.787322 
L 119.428756 62.787322 
z
" clip-path="url(#p2eae15e887)" style="fill: #44aa99; fill-opacity: 0.6; stroke: #ffffff; stroke-opacity: 0.6; stroke-width: 0.339411"/>
    <path d="M 95.379308 106.021874 
L 99.621949 106.021874 
L 99.621949 101.779233 
L 95.379308 101.779233 
z
" clip-path="url(#p2eae15e887)" style="fill: #44aa99; fill-opacity: 0.6; stroke: #ffffff; stroke-opacity: 0.6; stroke-width: 0.339411"/>
    <path d="M 182.888818 106.287085 
L 187.131459 106.287085 
L 187.131459 102.044444 
L 182.888818 102.044444 
z
" clip-path="url(#p2eae15e887)" style="fill: #44aa99; fill-opacity: 0.6; stroke: #ffffff; stroke-opacity: 0.6; stroke-width: 0.339411"/>
    <path d="M 140.468714 122.661487 
L 144.711355 122.661487 
L 144.711355 118.418846 
L 140.468714 118.418846 
z
" clip-path="url(#p2eae15e887)" style="fill: #44aa99; fill-opacity: 0.6; stroke: #ffffff; stroke-opacity: 0.6; stroke-width: 0.339411"/>
    <path d="M 94.696683 90.616668 
L 98.939324 90.616668 
L 98.939324 86.374028 
L 94.696683 86.374028 
z
" clip-path="url(#p2eae15e887)" style="fill: #44aa99; fill-opacity: 0.6; stroke: #ffffff; stroke-opacity: 0.6; stroke-width: 0.339411"/>
    <path d="M 183.358494 81.532258 
L 187.601135 81.532258 
L 187.601135 77.289617 
L 183.358494 77.289617 
z
" clip-path="url(#p2eae15e887)" style="fill: #44aa99; fill-opacity: 0.6; stroke: #ffffff; stroke-opacity: 0.6; stroke-width: 0.339411"/>
    <path d="M 151.02984 85.109403 
L 155.272481 85.109403 
L 155.272481 80.866762 
L 151.02984 80.866762 
z
" clip-path="url(#p2eae15e887)" style="fill: #44aa99; fill-opacity: 0.6; stroke: #ffffff; stroke-opacity: 0.6; stroke-width: 0.339411"/>
    <path d="M 119.677106 121.169027 
L 123.919747 121.169027 
L 123.919747 116.926386 
L 119.677106 116.926386 
z
" clip-path="url(#p2eae15e887)" style="fill: #44aa99; fill-opacity: 0.6; stroke: #ffffff; stroke-opacity: 0.6; stroke-width: 0.339411"/>
    <path d="M 142.54833 119.037527 
L 146.790971 119.037527 
L 146.790971 114.794886 
L 142.54833 114.794886 
z
" clip-path="url(#p2eae15e887)" style="fill: #44aa99; fill-opacity: 0.6; stroke: #ffffff; stroke-opacity: 0.6; stroke-width: 0.339411"/>
    <path d="M 114.425946 102.006602 
L 118.668587 102.006602 
L 118.668587 97.763962 
L 114.425946 97.763962 
z
" clip-path="url(#p2eae15e887)" style="fill: #44aa99; fill-opacity: 0.6; stroke: #ffffff; stroke-opacity: 0.6; stroke-width: 0.339411"/>
    <path d="M 120.420876 110.9209 
L 124.663517 110.9209 
L 124.663517 106.678259 
L 120.420876 106.678259 
z
" clip-path="url(#p2eae15e887)" style="fill: #44aa99; fill-opacity: 0.6; stroke: #ffffff; stroke-opacity: 0.6; stroke-width: 0.339411"/>
    <path d="M 185.572769 96.446027 
L 189.81541 96.446027 
L 189.81541 92.203387 
L 185.572769 92.203387 
z
" clip-path="url(#p2eae15e887)" style="fill: #44aa99; fill-opacity: 0.6; stroke: #ffffff; stroke-opacity: 0.6; stroke-width: 0.339411"/>
    <path d="M 117.012998 117.791586 
L 121.255639 117.791586 
L 121.255639 113.548946 
L 117.012998 113.548946 
z
" clip-path="url(#p2eae15e887)" style="fill: #44aa99; fill-opacity: 0.6; stroke: #ffffff; stroke-opacity: 0.6; stroke-width: 0.339411"/>
    <path d="M 133.90311 128.246908 
L 138.14575 128.246908 
L 138.14575 124.004267 
L 133.90311 124.004267 
z
" clip-path="url(#p2eae15e887)" style="fill: #44aa99; fill-opacity: 0.6; stroke: #ffffff; stroke-opacity: 0.6; stroke-width: 0.339411"/>
    <path d="M 167.461867 117.783202 
L 171.704508 117.783202 
L 171.704508 113.540562 
L 167.461867 113.540562 
z
" clip-path="url(#p2eae15e887)" style="fill: #44aa99; fill-opacity: 0.6; stroke: #ffffff; stroke-opacity: 0.6; stroke-width: 0.339411"/>
    <path d="M 171.42206 89.503776 
L 175.6647 89.503776 
L 175.6647 85.261136 
L 171.42206 85.261136 
z
" clip-path="url(#p2eae15e887)" style="fill: #44aa99; fill-opacity: 0.6; stroke: #ffffff; stroke-opacity: 0.6; stroke-width: 0.339411"/>
    <path d="M 138.989037 111.027733 
L 143.231677 111.027733 
L 143.231677 106.785093 
L 138.989037 106.785093 
z
" clip-path="url(#p2eae15e887)" style="fill: #44aa99; fill-opacity: 0.6; stroke: #ffffff; stroke-opacity: 0.6; stroke-width: 0.339411"/>
    <path d="M 127.737274 128.877817 
L 131.979915 128.877817 
L 131.979915 124.635176 
L 127.737274 124.635176 
z
" clip-path="url(#p2eae15e887)" style="fill: #44aa99; fill-opacity: 0.6; stroke: #ffffff; stroke-opacity: 0.6; stroke-width: 0.339411"/>
    <path d="M 156.801255 98.510771 
L 161.043896 98.510771 
L 161.043896 94.26813 
L 156.801255 94.26813 
z
" clip-path="url(#p2eae15e887)" style="fill: #44aa99; fill-opacity: 0.6; stroke: #ffffff; stroke-opacity: 0.6; stroke-width: 0.339411"/>
    <path d="M 113.511112 102.410356 
L 117.753752 102.410356 
L 117.753752 98.167715 
L 113.511112 98.167715 
z
" clip-path="url(#p2eae15e887)" style="fill: #44aa99; fill-opacity: 0.6; stroke: #ffffff; stroke-opacity: 0.6; stroke-width: 0.339411"/>
    <path d="M 164.914193 110.62653 
L 169.156834 110.62653 
L 169.156834 106.383889 
L 164.914193 106.383889 
z
" clip-path="url(#p2eae15e887)" style="fill: #44aa99; fill-opacity: 0.6; stroke: #ffffff; stroke-opacity: 0.6; stroke-width: 0.339411"/>
    <path d="M 70.661556 81.660258 
L 74.904197 81.660258 
L 74.904197 77.417618 
L 70.661556 77.417618 
z
" clip-path="url(#p2eae15e887)" style="fill: #44aa99; fill-opacity: 0.6; stroke: #ffffff; stroke-opacity: 0.6; stroke-width: 0.339411"/>
    <path d="M 128.533979 130.0123 
L 132.77662 130.0123 
L 132.77662 125.769659 
L 128.533979 125.769659 
z
" clip-path="url(#p2eae15e887)" style="fill: #44aa99; fill-opacity: 0.6; stroke: #ffffff; stroke-opacity: 0.6; stroke-width: 0.339411"/>
    <path d="M 103.852592 110.656843 
L 108.095233 110.656843 
L 108.095233 106.414202 
L 103.852592 106.414202 
z
" clip-path="url(#p2eae15e887)" style="fill: #44aa99; fill-opacity: 0.6; stroke: #ffffff; stroke-opacity: 0.6; stroke-width: 0.339411"/>
    <path d="M 102.176423 92.274319 
L 103.237083 91.213659 
L 104.297743 92.274319 
L 105.358403 91.213659 
L 104.297743 90.152999 
L 105.358403 89.092338 
L 104.297743 88.031678 
L 103.237083 89.092338 
L 102.176423 88.031678 
L 101.115762 89.092338 
L 102.176423 90.152999 
L 101.115762 91.213659 
z
" clip-path="url(#p2eae15e887)" style="fill: #88ccee; fill-opacity: 0.6; stroke: #ffffff; stroke-opacity: 0.6; stroke-width: 0.339411"/>
    <path d="M 130.180914 85.96987 
L 131.241574 84.909209 
L 132.302234 85.96987 
L 133.362895 84.909209 
L 132.302234 83.848549 
L 133.362895 82.787889 
L 132.302234 81.727229 
L 131.241574 82.787889 
L 130.180914 81.727229 
L 129.120254 82.787889 
L 130.180914 83.848549 
L 129.120254 84.909209 
z
" clip-path="url(#p2eae15e887)" style="fill: #88ccee; fill-opacity: 0.6; stroke: #ffffff; stroke-opacity: 0.6; stroke-width: 0.339411"/>
    <path d="M 97.572158 65.006621 
L 98.632818 63.945961 
L 99.693478 65.006621 
L 100.754138 63.945961 
L 99.693478 62.885301 
L 100.754138 61.824641 
L 99.693478 60.763981 
L 98.632818 61.824641 
L 97.572158 60.763981 
L 96.511497 61.824641 
L 97.572158 62.885301 
L 96.511497 63.945961 
z
" clip-path="url(#p2eae15e887)" style="fill: #88ccee; fill-opacity: 0.6; stroke: #ffffff; stroke-opacity: 0.6; stroke-width: 0.339411"/>
    <path d="M 144.296407 85.678202 
L 145.357067 84.617542 
L 146.417727 85.678202 
L 147.478387 84.617542 
L 146.417727 83.556882 
L 147.478387 82.496221 
L 146.417727 81.435561 
L 145.357067 82.496221 
L 144.296407 81.435561 
L 143.235747 82.496221 
L 144.296407 83.556882 
L 143.235747 84.617542 
z
" clip-path="url(#p2eae15e887)" style="fill: #88ccee; fill-opacity: 0.6; stroke: #ffffff; stroke-opacity: 0.6; stroke-width: 0.339411"/>
    <path d="M 173.91105 81.084136 
L 174.97171 80.023476 
L 176.03237 81.084136 
L 177.093031 80.023476 
L 176.03237 78.962816 
L 177.093031 77.902156 
L 176.03237 76.841495 
L 174.97171 77.902156 
L 173.91105 76.841495 
L 172.85039 77.902156 
L 173.91105 78.962816 
L 172.85039 80.023476 
z
" clip-path="url(#p2eae15e887)" style="fill: #88ccee; fill-opacity: 0.6; stroke: #ffffff; stroke-opacity: 0.6; stroke-width: 0.339411"/>
    <path d="M 178.096175 104.851604 
L 179.156835 103.790944 
L 180.217495 104.851604 
L 181.278155 103.790944 
L 180.217495 102.730284 
L 181.278155 101.669624 
L 180.217495 100.608963 
L 179.156835 101.669624 
L 178.096175 100.608963 
L 177.035514 101.669624 
L 178.096175 102.730284 
L 177.035514 103.790944 
z
" clip-path="url(#p2eae15e887)" style="fill: #88ccee; fill-opacity: 0.6; stroke: #ffffff; stroke-opacity: 0.6; stroke-width: 0.339411"/>
    <path d="M 91.691822 77.268784 
L 92.752482 76.208124 
L 93.813142 77.268784 
L 94.873803 76.208124 
L 93.813142 75.147464 
L 94.873803 74.086804 
L 93.813142 73.026144 
L 92.752482 74.086804 
L 91.691822 73.026144 
L 90.631162 74.086804 
L 91.691822 75.147464 
L 90.631162 76.208124 
z
" clip-path="url(#p2eae15e887)" style="fill: #88ccee; fill-opacity: 0.6; stroke: #ffffff; stroke-opacity: 0.6; stroke-width: 0.339411"/>
    <path d="M 82.247844 74.469997 
L 83.308505 73.409337 
L 84.369165 74.469997 
L 85.429825 73.409337 
L 84.369165 72.348677 
L 85.429825 71.288017 
L 84.369165 70.227356 
L 83.308505 71.288017 
L 82.247844 70.227356 
L 81.187184 71.288017 
L 82.247844 72.348677 
L 81.187184 73.409337 
z
" clip-path="url(#p2eae15e887)" style="fill: #88ccee; fill-opacity: 0.6; stroke: #ffffff; stroke-opacity: 0.6; stroke-width: 0.339411"/>
    <path d="M 153.15125 124.222854 
L 154.21191 123.162194 
L 155.27257 124.222854 
L 156.33323 123.162194 
L 155.27257 122.101534 
L 156.33323 121.040874 
L 155.27257 119.980213 
L 154.21191 121.040874 
L 153.15125 119.980213 
L 152.09059 121.040874 
L 153.15125 122.101534 
L 152.09059 123.162194 
z
" clip-path="url(#p2eae15e887)" style="fill: #88ccee; fill-opacity: 0.6; stroke: #ffffff; stroke-opacity: 0.6; stroke-width: 0.339411"/>
    <path d="M 176.328203 124.059673 
L 177.388864 122.999012 
L 178.449524 124.059673 
L 179.510184 122.999012 
L 178.449524 121.938352 
L 179.510184 120.877692 
L 178.449524 119.817032 
L 177.388864 120.877692 
L 176.328203 119.817032 
L 175.267543 120.877692 
L 176.328203 121.938352 
L 175.267543 122.999012 
z
" clip-path="url(#p2eae15e887)" style="fill: #88ccee; fill-opacity: 0.6; stroke: #ffffff; stroke-opacity: 0.6; stroke-width: 0.339411"/>
    <path d="M 80.297142 84.223605 
L 81.357802 83.162945 
L 82.418462 84.223605 
L 83.479122 83.162945 
L 82.418462 82.102285 
L 83.479122 81.041625 
L 82.418462 79.980965 
L 81.357802 81.041625 
L 80.297142 79.980965 
L 79.236482 81.041625 
L 80.297142 82.102285 
L 79.236482 83.162945 
z
" clip-path="url(#p2eae15e887)" style="fill: #88ccee; fill-opacity: 0.6; stroke: #ffffff; stroke-opacity: 0.6; stroke-width: 0.339411"/>
    <path d="M 176.391313 125.070617 
L 177.451973 124.009957 
L 178.512633 125.070617 
L 179.573293 124.009957 
L 178.512633 122.949297 
L 179.573293 121.888637 
L 178.512633 120.827977 
L 177.451973 121.888637 
L 176.391313 120.827977 
L 175.330653 121.888637 
L 176.391313 122.949297 
L 175.330653 124.009957 
z
" clip-path="url(#p2eae15e887)" style="fill: #88ccee; fill-opacity: 0.6; stroke: #ffffff; stroke-opacity: 0.6; stroke-width: 0.339411"/>
    <path d="M 129.321367 70.705516 
L 130.382027 69.644856 
L 131.442688 70.705516 
L 132.503348 69.644856 
L 131.442688 68.584196 
L 132.503348 67.523536 
L 131.442688 66.462876 
L 130.382027 67.523536 
L 129.321367 66.462876 
L 128.260707 67.523536 
L 129.321367 68.584196 
L 128.260707 69.644856 
z
" clip-path="url(#p2eae15e887)" style="fill: #88ccee; fill-opacity: 0.6; stroke: #ffffff; stroke-opacity: 0.6; stroke-width: 0.339411"/>
    <path d="M 139.020779 73.543221 
L 140.081439 72.482561 
L 141.142099 73.543221 
L 142.202759 72.482561 
L 141.142099 71.421901 
L 142.202759 70.361241 
L 141.142099 69.300581 
L 140.081439 70.361241 
L 139.020779 69.300581 
L 137.960119 70.361241 
L 139.020779 71.421901 
L 137.960119 72.482561 
z
" clip-path="url(#p2eae15e887)" style="fill: #88ccee; fill-opacity: 0.6; stroke: #ffffff; stroke-opacity: 0.6; stroke-width: 0.339411"/>
    <path d="M 135.984696 79.51933 
L 137.045356 78.45867 
L 138.106016 79.51933 
L 139.166676 78.45867 
L 138.106016 77.39801 
L 139.166676 76.33735 
L 138.106016 75.27669 
L 137.045356 76.33735 
L 135.984696 75.27669 
L 134.924035 76.33735 
L 135.984696 77.39801 
L 134.924035 78.45867 
z
" clip-path="url(#p2eae15e887)" style="fill: #88ccee; fill-opacity: 0.6; stroke: #ffffff; stroke-opacity: 0.6; stroke-width: 0.339411"/>
    <path d="M 89.28519 75.331941 
L 90.34585 74.271281 
L 91.40651 75.331941 
L 92.467171 74.271281 
L 91.40651 73.210621 
L 92.467171 72.149961 
L 91.40651 71.089301 
L 90.34585 72.149961 
L 89.28519 71.089301 
L 88.22453 72.149961 
L 89.28519 73.210621 
L 88.22453 74.271281 
z
" clip-path="url(#p2eae15e887)" style="fill: #88ccee; fill-opacity: 0.6; stroke: #ffffff; stroke-opacity: 0.6; stroke-width: 0.339411"/>
    <path d="M 210.648173 114.376559 
L 211.708833 113.315899 
L 212.769494 114.376559 
L 213.830154 113.315899 
L 212.769494 112.255239 
L 213.830154 111.194579 
L 212.769494 110.133919 
L 211.708833 111.194579 
L 210.648173 110.133919 
L 209.587513 111.194579 
L 210.648173 112.255239 
L 209.587513 113.315899 
z
" clip-path="url(#p2eae15e887)" style="fill: #88ccee; fill-opacity: 0.6; stroke: #ffffff; stroke-opacity: 0.6; stroke-width: 0.339411"/>
    <path d="M 75.074755 83.210963 
L 76.135415 82.150303 
L 77.196076 83.210963 
L 78.256736 82.150303 
L 77.196076 81.089643 
L 78.256736 80.028982 
L 77.196076 78.968322 
L 76.135415 80.028982 
L 75.074755 78.968322 
L 74.014095 80.028982 
L 75.074755 81.089643 
L 74.014095 82.150303 
z
" clip-path="url(#p2eae15e887)" style="fill: #88ccee; fill-opacity: 0.6; stroke: #ffffff; stroke-opacity: 0.6; stroke-width: 0.339411"/>
    <path d="M 208.448852 103.595897 
L 209.509512 102.535237 
L 210.570172 103.595897 
L 211.630832 102.535237 
L 210.570172 101.474577 
L 211.630832 100.413917 
L 210.570172 99.353256 
L 209.509512 100.413917 
L 208.448852 99.353256 
L 207.388192 100.413917 
L 208.448852 101.474577 
L 207.388192 102.535237 
z
" clip-path="url(#p2eae15e887)" style="fill: #88ccee; fill-opacity: 0.6; stroke: #ffffff; stroke-opacity: 0.6; stroke-width: 0.339411"/>
    <path d="M 178.120794 94.54024 
L 179.181454 93.47958 
L 180.242114 94.54024 
L 181.302774 93.47958 
L 180.242114 92.41892 
L 181.302774 91.358259 
L 180.242114 90.297599 
L 179.181454 91.358259 
L 178.120794 90.297599 
L 177.060134 91.358259 
L 178.120794 92.41892 
L 177.060134 93.47958 
z
" clip-path="url(#p2eae15e887)" style="fill: #88ccee; fill-opacity: 0.6; stroke: #ffffff; stroke-opacity: 0.6; stroke-width: 0.339411"/>
    <path d="M 119.812153 111.733745 
L 120.872813 110.673085 
L 121.933474 111.733745 
L 122.994134 110.673085 
L 121.933474 109.612425 
L 122.994134 108.551765 
L 121.933474 107.491105 
L 120.872813 108.551765 
L 119.812153 107.491105 
L 118.751493 108.551765 
L 119.812153 109.612425 
L 118.751493 110.673085 
z
" clip-path="url(#p2eae15e887)" style="fill: #88ccee; fill-opacity: 0.6; stroke: #ffffff; stroke-opacity: 0.6; stroke-width: 0.339411"/>
    <path d="M 169.874331 91.638659 
L 170.934992 90.577999 
L 171.995652 91.638659 
L 173.056312 90.577999 
L 171.995652 89.517338 
L 173.056312 88.456678 
L 171.995652 87.396018 
L 170.934992 88.456678 
L 169.874331 87.396018 
L 168.813671 88.456678 
L 169.874331 89.517338 
L 168.813671 90.577999 
z
" clip-path="url(#p2eae15e887)" style="fill: #88ccee; fill-opacity: 0.6; stroke: #ffffff; stroke-opacity: 0.6; stroke-width: 0.339411"/>
    <path d="M 103.010565 84.010231 
L 104.071226 82.949571 
L 105.131886 84.010231 
L 106.192546 82.949571 
L 105.131886 81.888911 
L 106.192546 80.828251 
L 105.131886 79.767591 
L 104.071226 80.828251 
L 103.010565 79.767591 
L 101.949905 80.828251 
L 103.010565 81.888911 
L 101.949905 82.949571 
z
" clip-path="url(#p2eae15e887)" style="fill: #88ccee; fill-opacity: 0.6; stroke: #ffffff; stroke-opacity: 0.6; stroke-width: 0.339411"/>
    <path d="M 198.488324 140.832833 
L 199.548984 139.772173 
L 200.609644 140.832833 
L 201.670304 139.772173 
L 200.609644 138.711513 
L 201.670304 137.650853 
L 200.609644 136.590193 
L 199.548984 137.650853 
L 198.488324 136.590193 
L 197.427663 137.650853 
L 198.488324 138.711513 
L 197.427663 139.772173 
z
" clip-path="url(#p2eae15e887)" style="fill: #88ccee; fill-opacity: 0.6; stroke: #ffffff; stroke-opacity: 0.6; stroke-width: 0.339411"/>
    <path d="M 109.727454 92.335755 
L 110.788115 91.275095 
L 111.848775 92.335755 
L 112.909435 91.275095 
L 111.848775 90.214435 
L 112.909435 89.153775 
L 111.848775 88.093115 
L 110.788115 89.153775 
L 109.727454 88.093115 
L 108.666794 89.153775 
L 109.727454 90.214435 
L 108.666794 91.275095 
z
" clip-path="url(#p2eae15e887)" style="fill: #88ccee; fill-opacity: 0.6; stroke: #ffffff; stroke-opacity: 0.6; stroke-width: 0.339411"/>
    <path d="M 171.31296 87.324055 
L 172.37362 86.263394 
L 173.43428 87.324055 
L 174.494941 86.263394 
L 173.43428 85.202734 
L 174.494941 84.142074 
L 173.43428 83.081414 
L 172.37362 84.142074 
L 171.31296 83.081414 
L 170.2523 84.142074 
L 171.31296 85.202734 
L 170.2523 86.263394 
z
" clip-path="url(#p2eae15e887)" style="fill: #88ccee; fill-opacity: 0.6; stroke: #ffffff; stroke-opacity: 0.6; stroke-width: 0.339411"/>
    <path d="M 173.424329 92.244043 
L 174.484989 91.183383 
L 175.545649 92.244043 
L 176.606309 91.183383 
L 175.545649 90.122723 
L 176.606309 89.062063 
L 175.545649 88.001402 
L 174.484989 89.062063 
L 173.424329 88.001402 
L 172.363669 89.062063 
L 173.424329 90.122723 
L 172.363669 91.183383 
z
" clip-path="url(#p2eae15e887)" style="fill: #88ccee; fill-opacity: 0.6; stroke: #ffffff; stroke-opacity: 0.6; stroke-width: 0.339411"/>
    <path d="M 173.974994 123.376893 
L 175.035654 122.316233 
L 176.096314 123.376893 
L 177.156974 122.316233 
L 176.096314 121.255573 
L 177.156974 120.194913 
L 176.096314 119.134253 
L 175.035654 120.194913 
L 173.974994 119.134253 
L 172.914333 120.194913 
L 173.974994 121.255573 
L 172.914333 122.316233 
z
" clip-path="url(#p2eae15e887)" style="fill: #88ccee; fill-opacity: 0.6; stroke: #ffffff; stroke-opacity: 0.6; stroke-width: 0.339411"/>
    <path d="M 76.406962 90.345275 
L 77.467622 89.284615 
L 78.528282 90.345275 
L 79.588942 89.284615 
L 78.528282 88.223955 
L 79.588942 87.163295 
L 78.528282 86.102635 
L 77.467622 87.163295 
L 76.406962 86.102635 
L 75.346302 87.163295 
L 76.406962 88.223955 
L 75.346302 89.284615 
z
" clip-path="url(#p2eae15e887)" style="fill: #88ccee; fill-opacity: 0.6; stroke: #ffffff; stroke-opacity: 0.6; stroke-width: 0.339411"/>
    <path d="M 177.829506 81.403812 
L 178.890166 80.343152 
L 179.950826 81.403812 
L 181.011487 80.343152 
L 179.950826 79.282492 
L 181.011487 78.221831 
L 179.950826 77.161171 
L 178.890166 78.221831 
L 177.829506 77.161171 
L 176.768846 78.221831 
L 177.829506 79.282492 
L 176.768846 80.343152 
z
" clip-path="url(#p2eae15e887)" style="fill: #88ccee; fill-opacity: 0.6; stroke: #ffffff; stroke-opacity: 0.6; stroke-width: 0.339411"/>
    <path d="M 94.707865 96.853587 
L 95.768526 95.792927 
L 96.829186 96.853587 
L 97.889846 95.792927 
L 96.829186 94.732267 
L 97.889846 93.671606 
L 96.829186 92.610946 
L 95.768526 93.671606 
L 94.707865 92.610946 
L 93.647205 93.671606 
L 94.707865 94.732267 
L 93.647205 95.792927 
z
" clip-path="url(#p2eae15e887)" style="fill: #88ccee; fill-opacity: 0.6; stroke: #ffffff; stroke-opacity: 0.6; stroke-width: 0.339411"/>
    <path d="M 184.142072 123.781497 
L 185.202732 122.720837 
L 186.263392 123.781497 
L 187.324053 122.720837 
L 186.263392 121.660177 
L 187.324053 120.599517 
L 186.263392 119.538857 
L 185.202732 120.599517 
L 184.142072 119.538857 
L 183.081412 120.599517 
L 184.142072 121.660177 
L 183.081412 122.720837 
z
" clip-path="url(#p2eae15e887)" style="fill: #88ccee; fill-opacity: 0.6; stroke: #ffffff; stroke-opacity: 0.6; stroke-width: 0.339411"/>
    <path d="M 114.380202 70.44189 
L 115.440862 69.38123 
L 116.501522 70.44189 
L 117.562183 69.38123 
L 116.501522 68.32057 
L 117.562183 67.25991 
L 116.501522 66.199249 
L 115.440862 67.25991 
L 114.380202 66.199249 
L 113.319542 67.25991 
L 114.380202 68.32057 
L 113.319542 69.38123 
z
" clip-path="url(#p2eae15e887)" style="fill: #88ccee; fill-opacity: 0.6; stroke: #ffffff; stroke-opacity: 0.6; stroke-width: 0.339411"/>
    <path d="M 161.242228 66.659562 
L 162.302888 65.598901 
L 163.363549 66.659562 
L 164.424209 65.598901 
L 163.363549 64.538241 
L 164.424209 63.477581 
L 163.363549 62.416921 
L 162.302888 63.477581 
L 161.242228 62.416921 
L 160.181568 63.477581 
L 161.242228 64.538241 
L 160.181568 65.598901 
z
" clip-path="url(#p2eae15e887)" style="fill: #88ccee; fill-opacity: 0.6; stroke: #ffffff; stroke-opacity: 0.6; stroke-width: 0.339411"/>
    <path d="M 165.646622 135.676873 
L 166.707283 134.616213 
L 167.767943 135.676873 
L 168.828603 134.616213 
L 167.767943 133.555553 
L 168.828603 132.494893 
L 167.767943 131.434233 
L 166.707283 132.494893 
L 165.646622 131.434233 
L 164.585962 132.494893 
L 165.646622 133.555553 
L 164.585962 134.616213 
z
" clip-path="url(#p2eae15e887)" style="fill: #88ccee; fill-opacity: 0.6; stroke: #ffffff; stroke-opacity: 0.6; stroke-width: 0.339411"/>
    <path d="M 167.451865 110.856427 
L 168.512525 109.795767 
L 169.573185 110.856427 
L 170.633846 109.795767 
L 169.573185 108.735107 
L 170.633846 107.674447 
L 169.573185 106.613786 
L 168.512525 107.674447 
L 167.451865 106.613786 
L 166.391205 107.674447 
L 167.451865 108.735107 
L 166.391205 109.795767 
z
" clip-path="url(#p2eae15e887)" style="fill: #88ccee; fill-opacity: 0.6; stroke: #ffffff; stroke-opacity: 0.6; stroke-width: 0.339411"/>
    <path d="M 151.323171 102.121721 
L 152.383831 101.061061 
L 153.444491 102.121721 
L 154.505151 101.061061 
L 153.444491 100.000401 
L 154.505151 98.939741 
L 153.444491 97.879081 
L 152.383831 98.939741 
L 151.323171 97.879081 
L 150.262511 98.939741 
L 151.323171 100.000401 
L 150.262511 101.061061 
z
" clip-path="url(#p2eae15e887)" style="fill: #88ccee; fill-opacity: 0.6; stroke: #ffffff; stroke-opacity: 0.6; stroke-width: 0.339411"/>
    <path d="M 145.107214 61.768021 
L 146.167875 60.707361 
L 147.228535 61.768021 
L 148.289195 60.707361 
L 147.228535 59.646701 
L 148.289195 58.58604 
L 147.228535 57.52538 
L 146.167875 58.58604 
L 145.107214 57.52538 
L 144.046554 58.58604 
L 145.107214 59.646701 
L 144.046554 60.707361 
z
" clip-path="url(#p2eae15e887)" style="fill: #88ccee; fill-opacity: 0.6; stroke: #ffffff; stroke-opacity: 0.6; stroke-width: 0.339411"/>
    <path d="M 76.870697 81.142582 
L 77.931358 80.081921 
L 78.992018 81.142582 
L 80.052678 80.081921 
L 78.992018 79.021261 
L 80.052678 77.960601 
L 78.992018 76.899941 
L 77.931358 77.960601 
L 76.870697 76.899941 
L 75.810037 77.960601 
L 76.870697 79.021261 
L 75.810037 80.081921 
z
" clip-path="url(#p2eae15e887)" style="fill: #88ccee; fill-opacity: 0.6; stroke: #ffffff; stroke-opacity: 0.6; stroke-width: 0.339411"/>
    <path d="M 181.534139 106.391134 
L 182.594799 105.330474 
L 183.655459 106.391134 
L 184.716119 105.330474 
L 183.655459 104.269814 
L 184.716119 103.209154 
L 183.655459 102.148493 
L 182.594799 103.209154 
L 181.534139 102.148493 
L 180.473479 103.209154 
L 181.534139 104.269814 
L 180.473479 105.330474 
z
" clip-path="url(#p2eae15e887)" style="fill: #88ccee; fill-opacity: 0.6; stroke: #ffffff; stroke-opacity: 0.6; stroke-width: 0.339411"/>
    <path d="M 175.800771 110.828754 
L 176.861431 109.768094 
L 177.922091 110.828754 
L 178.982751 109.768094 
L 177.922091 108.707434 
L 178.982751 107.646774 
L 177.922091 106.586113 
L 176.861431 107.646774 
L 175.800771 106.586113 
L 174.740111 107.646774 
L 175.800771 108.707434 
L 174.740111 109.768094 
z
" clip-path="url(#p2eae15e887)" style="fill: #88ccee; fill-opacity: 0.6; stroke: #ffffff; stroke-opacity: 0.6; stroke-width: 0.339411"/>
    <path d="M 123.838669 59.962585 
L 124.899329 58.901925 
L 125.95999 59.962585 
L 127.02065 58.901925 
L 125.95999 57.841265 
L 127.02065 56.780605 
L 125.95999 55.719944 
L 124.899329 56.780605 
L 123.838669 55.719944 
L 122.778009 56.780605 
L 123.838669 57.841265 
L 122.778009 58.901925 
z
" clip-path="url(#p2eae15e887)" style="fill: #88ccee; fill-opacity: 0.6; stroke: #ffffff; stroke-opacity: 0.6; stroke-width: 0.339411"/>
    <path d="M 106.264598 94.635473 
L 107.325258 93.574812 
L 108.385918 94.635473 
L 109.446578 93.574812 
L 108.385918 92.514152 
L 109.446578 91.453492 
L 108.385918 90.392832 
L 107.325258 91.453492 
L 106.264598 90.392832 
L 105.203938 91.453492 
L 106.264598 92.514152 
L 105.203938 93.574812 
z
" clip-path="url(#p2eae15e887)" style="fill: #88ccee; fill-opacity: 0.6; stroke: #ffffff; stroke-opacity: 0.6; stroke-width: 0.339411"/>
    <path d="M 134.00536 85.546071 
L 135.06602 84.485411 
L 136.12668 85.546071 
L 137.18734 84.485411 
L 136.12668 83.424751 
L 137.18734 82.364091 
L 136.12668 81.30343 
L 135.06602 82.364091 
L 134.00536 81.30343 
L 132.944699 82.364091 
L 134.00536 83.424751 
L 132.944699 84.485411 
z
" clip-path="url(#p2eae15e887)" style="fill: #88ccee; fill-opacity: 0.6; stroke: #ffffff; stroke-opacity: 0.6; stroke-width: 0.339411"/>
    <path d="M 84.924766 67.938031 
L 85.985427 66.877371 
L 87.046087 67.938031 
L 88.106747 66.877371 
L 87.046087 65.816711 
L 88.106747 64.756051 
L 87.046087 63.69539 
L 85.985427 64.756051 
L 84.924766 63.69539 
L 83.864106 64.756051 
L 84.924766 65.816711 
L 83.864106 66.877371 
z
" clip-path="url(#p2eae15e887)" style="fill: #88ccee; fill-opacity: 0.6; stroke: #ffffff; stroke-opacity: 0.6; stroke-width: 0.339411"/>
    <path d="M 91.008379 43.392164 
L 92.069039 42.331504 
L 93.129699 43.392164 
L 94.190359 42.331504 
L 93.129699 41.270843 
L 94.190359 40.210183 
L 93.129699 39.149523 
L 92.069039 40.210183 
L 91.008379 39.149523 
L 89.947719 40.210183 
L 91.008379 41.270843 
L 89.947719 42.331504 
z
" clip-path="url(#p2eae15e887)" style="fill: #88ccee; fill-opacity: 0.6; stroke: #ffffff; stroke-opacity: 0.6; stroke-width: 0.339411"/>
    <path d="M 150.974646 98.143798 
L 152.035306 97.083137 
L 153.095966 98.143798 
L 154.156627 97.083137 
L 153.095966 96.022477 
L 154.156627 94.961817 
L 153.095966 93.901157 
L 152.035306 94.961817 
L 150.974646 93.901157 
L 149.913986 94.961817 
L 150.974646 96.022477 
L 149.913986 97.083137 
z
" clip-path="url(#p2eae15e887)" style="fill: #88ccee; fill-opacity: 0.6; stroke: #ffffff; stroke-opacity: 0.6; stroke-width: 0.339411"/>
    <path d="M 171.633019 113.994037 
L 172.69368 112.933377 
L 173.75434 113.994037 
L 174.815 112.933377 
L 173.75434 111.872716 
L 174.815 110.812056 
L 173.75434 109.751396 
L 172.69368 110.812056 
L 171.633019 109.751396 
L 170.572359 110.812056 
L 171.633019 111.872716 
L 170.572359 112.933377 
z
" clip-path="url(#p2eae15e887)" style="fill: #88ccee; fill-opacity: 0.6; stroke: #ffffff; stroke-opacity: 0.6; stroke-width: 0.339411"/>
    <path d="M 101.85859 88.998941 
L 102.91925 87.938281 
L 103.97991 88.998941 
L 105.04057 87.938281 
L 103.97991 86.877621 
L 105.04057 85.816961 
L 103.97991 84.7563 
L 102.91925 85.816961 
L 101.85859 84.7563 
L 100.79793 85.816961 
L 101.85859 86.877621 
L 100.79793 87.938281 
z
" clip-path="url(#p2eae15e887)" style="fill: #88ccee; fill-opacity: 0.6; stroke: #ffffff; stroke-opacity: 0.6; stroke-width: 0.339411"/>
    <path d="M 134.52489 32.78691 
L 135.58555 31.72625 
L 136.64621 32.78691 
L 137.70687 31.72625 
L 136.64621 30.66559 
L 137.70687 29.604929 
L 136.64621 28.544269 
L 135.58555 29.604929 
L 134.52489 28.544269 
L 133.46423 29.604929 
L 134.52489 30.66559 
L 133.46423 31.72625 
z
" clip-path="url(#p2eae15e887)" style="fill: #88ccee; fill-opacity: 0.6; stroke: #ffffff; stroke-opacity: 0.6; stroke-width: 0.339411"/>
    <path d="M 74.753769 82.979952 
L 75.81443 81.919292 
L 76.87509 82.979952 
L 77.93575 81.919292 
L 76.87509 80.858632 
L 77.93575 79.797972 
L 76.87509 78.737312 
L 75.81443 79.797972 
L 74.753769 78.737312 
L 73.693109 79.797972 
L 74.753769 80.858632 
L 73.693109 81.919292 
z
" clip-path="url(#p2eae15e887)" style="fill: #88ccee; fill-opacity: 0.6; stroke: #ffffff; stroke-opacity: 0.6; stroke-width: 0.339411"/>
    <path d="M 177.685919 84.606878 
L 178.746579 83.546218 
L 179.807239 84.606878 
L 180.8679 83.546218 
L 179.807239 82.485558 
L 180.8679 81.424898 
L 179.807239 80.364238 
L 178.746579 81.424898 
L 177.685919 80.364238 
L 176.625259 81.424898 
L 177.685919 82.485558 
L 176.625259 83.546218 
z
" clip-path="url(#p2eae15e887)" style="fill: #88ccee; fill-opacity: 0.6; stroke: #ffffff; stroke-opacity: 0.6; stroke-width: 0.339411"/>
    <path d="M 96.645588 59.34141 
L 97.706248 58.28075 
L 98.766908 59.34141 
L 99.827569 58.28075 
L 98.766908 57.22009 
L 99.827569 56.15943 
L 98.766908 55.09877 
L 97.706248 56.15943 
L 96.645588 55.09877 
L 95.584928 56.15943 
L 96.645588 57.22009 
L 95.584928 58.28075 
z
" clip-path="url(#p2eae15e887)" style="fill: #88ccee; fill-opacity: 0.6; stroke: #ffffff; stroke-opacity: 0.6; stroke-width: 0.339411"/>
    <path d="M 135.56341 75.296636 
L 136.62407 74.235975 
L 137.68473 75.296636 
L 138.74539 74.235975 
L 137.68473 73.175315 
L 138.74539 72.114655 
L 137.68473 71.053995 
L 136.62407 72.114655 
L 135.56341 71.053995 
L 134.50275 72.114655 
L 135.56341 73.175315 
L 134.50275 74.235975 
z
" clip-path="url(#p2eae15e887)" style="fill: #88ccee; fill-opacity: 0.6; stroke: #ffffff; stroke-opacity: 0.6; stroke-width: 0.339411"/>
    <path d="M 75.688343 76.333352 
L 76.749003 75.272692 
L 77.809663 76.333352 
L 78.870323 75.272692 
L 77.809663 74.212032 
L 78.870323 73.151372 
L 77.809663 72.090712 
L 76.749003 73.151372 
L 75.688343 72.090712 
L 74.627683 73.151372 
L 75.688343 74.212032 
L 74.627683 75.272692 
z
" clip-path="url(#p2eae15e887)" style="fill: #88ccee; fill-opacity: 0.6; stroke: #ffffff; stroke-opacity: 0.6; stroke-width: 0.339411"/>
    <path d="M 114.479693 108.365222 
L 115.540354 107.304562 
L 116.601014 108.365222 
L 117.661674 107.304562 
L 116.601014 106.243901 
L 117.661674 105.183241 
L 116.601014 104.122581 
L 115.540354 105.183241 
L 114.479693 104.122581 
L 113.419033 105.183241 
L 114.479693 106.243901 
L 113.419033 107.304562 
z
" clip-path="url(#p2eae15e887)" style="fill: #88ccee; fill-opacity: 0.6; stroke: #ffffff; stroke-opacity: 0.6; stroke-width: 0.339411"/>
    <path d="M 90.095799 49.454815 
L 91.156459 48.394155 
L 92.21712 49.454815 
L 93.27778 48.394155 
L 92.21712 47.333495 
L 93.27778 46.272834 
L 92.21712 45.212174 
L 91.156459 46.272834 
L 90.095799 45.212174 
L 89.035139 46.272834 
L 90.095799 47.333495 
L 89.035139 48.394155 
z
" clip-path="url(#p2eae15e887)" style="fill: #88ccee; fill-opacity: 0.6; stroke: #ffffff; stroke-opacity: 0.6; stroke-width: 0.339411"/>
    <path d="M 154.946043 94.339037 
L 156.006704 93.278376 
L 157.067364 94.339037 
L 158.128024 93.278376 
L 157.067364 92.217716 
L 158.128024 91.157056 
L 157.067364 90.096396 
L 156.006704 91.157056 
L 154.946043 90.096396 
L 153.885383 91.157056 
L 154.946043 92.217716 
L 153.885383 93.278376 
z
" clip-path="url(#p2eae15e887)" style="fill: #88ccee; fill-opacity: 0.6; stroke: #ffffff; stroke-opacity: 0.6; stroke-width: 0.339411"/>
    <path d="M 123.93626 76.338379 
L 124.996921 75.277719 
L 126.057581 76.338379 
L 127.118241 75.277719 
L 126.057581 74.217058 
L 127.118241 73.156398 
L 126.057581 72.095738 
L 124.996921 73.156398 
L 123.93626 72.095738 
L 122.8756 73.156398 
L 123.93626 74.217058 
L 122.8756 75.277719 
z
" clip-path="url(#p2eae15e887)" style="fill: #88ccee; fill-opacity: 0.6; stroke: #ffffff; stroke-opacity: 0.6; stroke-width: 0.339411"/>
    <path d="M 193.929648 87.356436 
L 194.990308 86.295776 
L 196.050968 87.356436 
L 197.111628 86.295776 
L 196.050968 85.235116 
L 197.111628 84.174456 
L 196.050968 83.113796 
L 194.990308 84.174456 
L 193.929648 83.113796 
L 192.868988 84.174456 
L 193.929648 85.235116 
L 192.868988 86.295776 
z
" clip-path="url(#p2eae15e887)" style="fill: #88ccee; fill-opacity: 0.6; stroke: #ffffff; stroke-opacity: 0.6; stroke-width: 0.339411"/>
    <path d="M 144.805539 34.023151 
L 145.8662 32.962491 
L 146.92686 34.023151 
L 147.98752 32.962491 
L 146.92686 31.90183 
L 147.98752 30.84117 
L 146.92686 29.78051 
L 145.8662 30.84117 
L 144.805539 29.78051 
L 143.744879 30.84117 
L 144.805539 31.90183 
L 143.744879 32.962491 
z
" clip-path="url(#p2eae15e887)" style="fill: #88ccee; fill-opacity: 0.6; stroke: #ffffff; stroke-opacity: 0.6; stroke-width: 0.339411"/>
    <path d="M 75.933779 77.305607 
L 76.994439 76.244947 
L 78.0551 77.305607 
L 79.11576 76.244947 
L 78.0551 75.184287 
L 79.11576 74.123627 
L 78.0551 73.062967 
L 76.994439 74.123627 
L 75.933779 73.062967 
L 74.873119 74.123627 
L 75.933779 75.184287 
L 74.873119 76.244947 
z
" clip-path="url(#p2eae15e887)" style="fill: #88ccee; fill-opacity: 0.6; stroke: #ffffff; stroke-opacity: 0.6; stroke-width: 0.339411"/>
    <path d="M 149.525073 127.583384 
L 150.585733 126.522724 
L 151.646394 127.583384 
L 152.707054 126.522724 
L 151.646394 125.462064 
L 152.707054 124.401404 
L 151.646394 123.340744 
L 150.585733 124.401404 
L 149.525073 123.340744 
L 148.464413 124.401404 
L 149.525073 125.462064 
L 148.464413 126.522724 
z
" clip-path="url(#p2eae15e887)" style="fill: #88ccee; fill-opacity: 0.6; stroke: #ffffff; stroke-opacity: 0.6; stroke-width: 0.339411"/>
    <path d="M 171.412447 90.66405 
L 172.473107 89.60339 
L 173.533767 90.66405 
L 174.594428 89.60339 
L 173.533767 88.54273 
L 174.594428 87.48207 
L 173.533767 86.42141 
L 172.473107 87.48207 
L 171.412447 86.42141 
L 170.351787 87.48207 
L 171.412447 88.54273 
L 170.351787 89.60339 
z
" clip-path="url(#p2eae15e887)" style="fill: #88ccee; fill-opacity: 0.6; stroke: #ffffff; stroke-opacity: 0.6; stroke-width: 0.339411"/>
   </g>
   <g id="matplotlib.axis_1">
    <g id="xtick_1">
     <g id="line2d_1">
      <defs>
       <path id="m656b8eda79" d="M 0 0 
L 0 8 
" style="stroke: #000000"/>
      </defs>
      <g>
       <use xlink:href="#m656b8eda79" x="77.405008" y="192.727559" style="stroke: #000000"/>
      </g>
     </g>
     <g id="text_1">
      <!-- 20 -->
      <g transform="translate(64.742195 213.345684) scale(0.12 -0.12)">
       <defs>
        <path id="DejaVuSans-2212" d="M 678 2272 
L 4684 2272 
L 4684 1741 
L 678 1741 
L 678 2272 
z
" transform="scale(0.015625)"/>
        <path id="DejaVuSans-32" d="M 1228 531 
L 3431 531 
L 3431 0 
L 469 0 
L 469 531 
Q 828 903 1448 1529 
Q 2069 2156 2228 2338 
Q 2531 2678 2651 2914 
Q 2772 3150 2772 3378 
Q 2772 3750 2511 3984 
Q 2250 4219 1831 4219 
Q 1534 4219 1204 4116 
Q 875 4013 500 3803 
L 500 4441 
Q 881 4594 1212 4672 
Q 1544 4750 1819 4750 
Q 2544 4750 2975 4387 
Q 3406 4025 3406 3419 
Q 3406 3131 3298 2873 
Q 3191 2616 2906 2266 
Q 2828 2175 2409 1742 
Q 1991 1309 1228 531 
z
" transform="scale(0.015625)"/>
        <path id="DejaVuSans-30" d="M 2034 4250 
Q 1547 4250 1301 3770 
Q 1056 3291 1056 2328 
Q 1056 1369 1301 889 
Q 1547 409 2034 409 
Q 2525 409 2770 889 
Q 3016 1369 3016 2328 
Q 3016 3291 2770 3770 
Q 2525 4250 2034 4250 
z
M 2034 4750 
Q 2819 4750 3233 4129 
Q 3647 3509 3647 2328 
Q 3647 1150 3233 529 
Q 2819 -91 2034 -91 
Q 1250 -91 836 529 
Q 422 1150 422 2328 
Q 422 3509 836 4129 
Q 1250 4750 2034 4750 
z
" transform="scale(0.015625)"/>
       </defs>
       <use xlink:href="#DejaVuSans-2212"/>
       <use xlink:href="#DejaVuSans-32" x="83.789062"/>
       <use xlink:href="#DejaVuSans-30" x="147.412109"/>
      </g>
     </g>
    </g>
    <g id="xtick_2">
     <g id="line2d_2">
      <g>
       <use xlink:href="#m656b8eda79" x="117.830707" y="192.727559" style="stroke: #000000"/>
      </g>
     </g>
     <g id="text_2">
      <!-- 10 -->
      <g transform="translate(105.167894 213.345684) scale(0.12 -0.12)">
       <defs>
        <path id="DejaVuSans-31" d="M 794 531 
L 1825 531 
L 1825 4091 
L 703 3866 
L 703 4441 
L 1819 4666 
L 2450 4666 
L 2450 531 
L 3481 531 
L 3481 0 
L 794 0 
L 794 531 
z
" transform="scale(0.015625)"/>
       </defs>
       <use xlink:href="#DejaVuSans-2212"/>
       <use xlink:href="#DejaVuSans-31" x="83.789062"/>
       <use xlink:href="#DejaVuSans-30" x="147.412109"/>
      </g>
     </g>
    </g>
    <g id="xtick_3">
     <g id="line2d_3">
      <g>
       <use xlink:href="#m656b8eda79" x="158.256405" y="192.727559" style="stroke: #000000"/>
      </g>
     </g>
     <g id="text_3">
      <!-- 0 -->
      <g transform="translate(154.438905 213.345684) scale(0.12 -0.12)">
       <use xlink:href="#DejaVuSans-30"/>
      </g>
     </g>
    </g>
    <g id="xtick_4">
     <g id="line2d_4">
      <g>
       <use xlink:href="#m656b8eda79" x="198.682104" y="192.727559" style="stroke: #000000"/>
      </g>
     </g>
     <g id="text_4">
      <!-- 10 -->
      <g transform="translate(191.047104 213.345684) scale(0.12 -0.12)">
       <use xlink:href="#DejaVuSans-31"/>
       <use xlink:href="#DejaVuSans-30" x="63.623047"/>
      </g>
     </g>
    </g>
    <g id="xtick_5">
     <g id="line2d_5">
      <g>
       <use xlink:href="#m656b8eda79" x="239.107803" y="192.727559" style="stroke: #000000"/>
      </g>
     </g>
     <g id="text_5">
      <!-- 20 -->
      <g transform="translate(231.472803 213.345684) scale(0.12 -0.12)">
       <use xlink:href="#DejaVuSans-32"/>
       <use xlink:href="#DejaVuSans-30" x="63.623047"/>
      </g>
     </g>
    </g>
    <g id="text_6">
     <!-- PC 1 (15.08%) -->
     <g transform="translate(109.404717 228.959434) scale(0.12 -0.12)">
      <defs>
       <path id="DejaVuSans-50" d="M 1259 4147 
L 1259 2394 
L 2053 2394 
Q 2494 2394 2734 2622 
Q 2975 2850 2975 3272 
Q 2975 3691 2734 3919 
Q 2494 4147 2053 4147 
L 1259 4147 
z
M 628 4666 
L 2053 4666 
Q 2838 4666 3239 4311 
Q 3641 3956 3641 3272 
Q 3641 2581 3239 2228 
Q 2838 1875 2053 1875 
L 1259 1875 
L 1259 0 
L 628 0 
L 628 4666 
z
" transform="scale(0.015625)"/>
       <path id="DejaVuSans-43" d="M 4122 4306 
L 4122 3641 
Q 3803 3938 3442 4084 
Q 3081 4231 2675 4231 
Q 1875 4231 1450 3742 
Q 1025 3253 1025 2328 
Q 1025 1406 1450 917 
Q 1875 428 2675 428 
Q 3081 428 3442 575 
Q 3803 722 4122 1019 
L 4122 359 
Q 3791 134 3420 21 
Q 3050 -91 2638 -91 
Q 1578 -91 968 557 
Q 359 1206 359 2328 
Q 359 3453 968 4101 
Q 1578 4750 2638 4750 
Q 3056 4750 3426 4639 
Q 3797 4528 4122 4306 
z
" transform="scale(0.015625)"/>
       <path id="DejaVuSans-20" transform="scale(0.015625)"/>
       <path id="DejaVuSans-28" d="M 1984 4856 
Q 1566 4138 1362 3434 
Q 1159 2731 1159 2009 
Q 1159 1288 1364 580 
Q 1569 -128 1984 -844 
L 1484 -844 
Q 1016 -109 783 600 
Q 550 1309 550 2009 
Q 550 2706 781 3412 
Q 1013 4119 1484 4856 
L 1984 4856 
z
" transform="scale(0.015625)"/>
       <path id="DejaVuSans-35" d="M 691 4666 
L 3169 4666 
L 3169 4134 
L 1269 4134 
L 1269 2991 
Q 1406 3038 1543 3061 
Q 1681 3084 1819 3084 
Q 2600 3084 3056 2656 
Q 3513 2228 3513 1497 
Q 3513 744 3044 326 
Q 2575 -91 1722 -91 
Q 1428 -91 1123 -41 
Q 819 9 494 109 
L 494 744 
Q 775 591 1075 516 
Q 1375 441 1709 441 
Q 2250 441 2565 725 
Q 2881 1009 2881 1497 
Q 2881 1984 2565 2268 
Q 2250 2553 1709 2553 
Q 1456 2553 1204 2497 
Q 953 2441 691 2322 
L 691 4666 
z
" transform="scale(0.015625)"/>
       <path id="DejaVuSans-2e" d="M 684 794 
L 1344 794 
L 1344 0 
L 684 0 
L 684 794 
z
" transform="scale(0.015625)"/>
       <path id="DejaVuSans-38" d="M 2034 2216 
Q 1584 2216 1326 1975 
Q 1069 1734 1069 1313 
Q 1069 891 1326 650 
Q 1584 409 2034 409 
Q 2484 409 2743 651 
Q 3003 894 3003 1313 
Q 3003 1734 2745 1975 
Q 2488 2216 2034 2216 
z
M 1403 2484 
Q 997 2584 770 2862 
Q 544 3141 544 3541 
Q 544 4100 942 4425 
Q 1341 4750 2034 4750 
Q 2731 4750 3128 4425 
Q 3525 4100 3525 3541 
Q 3525 3141 3298 2862 
Q 3072 2584 2669 2484 
Q 3125 2378 3379 2068 
Q 3634 1759 3634 1313 
Q 3634 634 3220 271 
Q 2806 -91 2034 -91 
Q 1263 -91 848 271 
Q 434 634 434 1313 
Q 434 1759 690 2068 
Q 947 2378 1403 2484 
z
M 1172 3481 
Q 1172 3119 1398 2916 
Q 1625 2713 2034 2713 
Q 2441 2713 2670 2916 
Q 2900 3119 2900 3481 
Q 2900 3844 2670 4047 
Q 2441 4250 2034 4250 
Q 1625 4250 1398 4047 
Q 1172 3844 1172 3481 
z
" transform="scale(0.015625)"/>
       <path id="DejaVuSans-25" d="M 4653 2053 
Q 4381 2053 4226 1822 
Q 4072 1591 4072 1178 
Q 4072 772 4226 539 
Q 4381 306 4653 306 
Q 4919 306 5073 539 
Q 5228 772 5228 1178 
Q 5228 1588 5073 1820 
Q 4919 2053 4653 2053 
z
M 4653 2450 
Q 5147 2450 5437 2106 
Q 5728 1763 5728 1178 
Q 5728 594 5436 251 
Q 5144 -91 4653 -91 
Q 4153 -91 3862 251 
Q 3572 594 3572 1178 
Q 3572 1766 3864 2108 
Q 4156 2450 4653 2450 
z
M 1428 4353 
Q 1159 4353 1004 4120 
Q 850 3888 850 3481 
Q 850 3069 1003 2837 
Q 1156 2606 1428 2606 
Q 1700 2606 1854 2837 
Q 2009 3069 2009 3481 
Q 2009 3884 1853 4118 
Q 1697 4353 1428 4353 
z
M 4250 4750 
L 4750 4750 
L 1831 -91 
L 1331 -91 
L 4250 4750 
z
M 1428 4750 
Q 1922 4750 2215 4408 
Q 2509 4066 2509 3481 
Q 2509 2891 2217 2550 
Q 1925 2209 1428 2209 
Q 931 2209 642 2551 
Q 353 2894 353 3481 
Q 353 4063 643 4406 
Q 934 4750 1428 4750 
z
" transform="scale(0.015625)"/>
       <path id="DejaVuSans-29" d="M 513 4856 
L 1013 4856 
Q 1481 4119 1714 3412 
Q 1947 2706 1947 2009 
Q 1947 1309 1714 600 
Q 1481 -109 1013 -844 
L 513 -844 
Q 928 -128 1133 580 
Q 1338 1288 1338 2009 
Q 1338 2731 1133 3434 
Q 928 4138 513 4856 
z
" transform="scale(0.015625)"/>
      </defs>
      <use xlink:href="#DejaVuSans-50"/>
      <use xlink:href="#DejaVuSans-43" x="60.302734"/>
      <use xlink:href="#DejaVuSans-20" x="130.126953"/>
      <use xlink:href="#DejaVuSans-31" x="161.914062"/>
      <use xlink:href="#DejaVuSans-20" x="225.537109"/>
      <use xlink:href="#DejaVuSans-28" x="257.324219"/>
      <use xlink:href="#DejaVuSans-31" x="296.337891"/>
      <use xlink:href="#DejaVuSans-35" x="359.960938"/>
      <use xlink:href="#DejaVuSans-2e" x="423.583984"/>
      <use xlink:href="#DejaVuSans-30" x="455.371094"/>
      <use xlink:href="#DejaVuSans-38" x="518.994141"/>
      <use xlink:href="#DejaVuSans-25" x="582.617188"/>
      <use xlink:href="#DejaVuSans-29" x="677.636719"/>
     </g>
    </g>
   </g>
   <g id="matplotlib.axis_2">
    <g id="ytick_1">
     <g id="line2d_6">
      <defs>
       <path id="m25e5c99c71" d="M 0 0 
L -8 0 
" style="stroke: #000000"/>
      </defs>
      <g>
       <use xlink:href="#m25e5c99c71" x="59.639375" y="174.961926" style="stroke: #000000"/>
      </g>
     </g>
     <g id="text_7">
      <!-- 20 -->
      <g transform="translate(22.81375 179.520989) scale(0.12 -0.12)">
       <use xlink:href="#DejaVuSans-2212"/>
       <use xlink:href="#DejaVuSans-32" x="83.789062"/>
       <use xlink:href="#DejaVuSans-30" x="147.412109"/>
      </g>
     </g>
    </g>
    <g id="ytick_2">
     <g id="line2d_7">
      <g>
       <use xlink:href="#m25e5c99c71" x="59.639375" y="134.536227" style="stroke: #000000"/>
      </g>
     </g>
     <g id="text_8">
      <!-- 10 -->
      <g transform="translate(22.81375 139.09529) scale(0.12 -0.12)">
       <use xlink:href="#DejaVuSans-2212"/>
       <use xlink:href="#DejaVuSans-31" x="83.789062"/>
       <use xlink:href="#DejaVuSans-30" x="147.412109"/>
      </g>
     </g>
    </g>
    <g id="ytick_3">
     <g id="line2d_8">
      <g>
       <use xlink:href="#m25e5c99c71" x="59.639375" y="94.110529" style="stroke: #000000"/>
      </g>
     </g>
     <g id="text_9">
      <!-- 0 -->
      <g transform="translate(40.504375 98.669591) scale(0.12 -0.12)">
       <use xlink:href="#DejaVuSans-30"/>
      </g>
     </g>
    </g>
    <g id="ytick_4">
     <g id="line2d_9">
      <g>
       <use xlink:href="#m25e5c99c71" x="59.639375" y="53.68483" style="stroke: #000000"/>
      </g>
     </g>
     <g id="text_10">
      <!-- 10 -->
      <g transform="translate(32.869375 58.243893) scale(0.12 -0.12)">
       <use xlink:href="#DejaVuSans-31"/>
       <use xlink:href="#DejaVuSans-30" x="63.623047"/>
      </g>
     </g>
    </g>
    <g id="ytick_5">
     <g id="line2d_10">
      <g>
       <use xlink:href="#m25e5c99c71" x="59.639375" y="13.259131" style="stroke: #000000"/>
      </g>
     </g>
     <g id="text_11">
      <!-- 20 -->
      <g transform="translate(32.869375 17.818194) scale(0.12 -0.12)">
       <use xlink:href="#DejaVuSans-32"/>
       <use xlink:href="#DejaVuSans-30" x="63.623047"/>
      </g>
     </g>
    </g>
    <g id="text_12">
     <!-- PC 2 (8.22%) -->
     <g transform="translate(16.318125 139.144717) rotate(-90) scale(0.12 -0.12)">
      <use xlink:href="#DejaVuSans-50"/>
      <use xlink:href="#DejaVuSans-43" x="60.302734"/>
      <use xlink:href="#DejaVuSans-20" x="130.126953"/>
      <use xlink:href="#DejaVuSans-32" x="161.914062"/>
      <use xlink:href="#DejaVuSans-20" x="225.537109"/>
      <use xlink:href="#DejaVuSans-28" x="257.324219"/>
      <use xlink:href="#DejaVuSans-38" x="296.337891"/>
      <use xlink:href="#DejaVuSans-2e" x="359.960938"/>
      <use xlink:href="#DejaVuSans-32" x="391.748047"/>
      <use xlink:href="#DejaVuSans-32" x="455.371094"/>
      <use xlink:href="#DejaVuSans-25" x="518.994141"/>
      <use xlink:href="#DejaVuSans-29" x="614.013672"/>
     </g>
    </g>
   </g>
   <g id="patch_3">
    <path d="M 59.639375 192.727559 
L 59.639375 7.2 
" style="fill: none; stroke: #000000; stroke-width: 2; stroke-linejoin: miter; stroke-linecap: square"/>
   </g>
   <g id="patch_4">
    <path d="M 59.639375 192.727559 
L 245.166934 192.727559 
" style="fill: none; stroke: #000000; stroke-width: 2; stroke-linejoin: miter; stroke-linecap: square"/>
   </g>
  </g>
 </g>
 <defs>
  <clipPath id="p2eae15e887">
   <rect x="59.639375" y="7.2" width="185.527559" height="185.527559"/>
  </clipPath>
 </defs>
</svg>
