<?xml version="1.0" encoding="utf-8" standalone="no"?>
<!DOCTYPE svg PUBLIC "-//W3C//DTD SVG 1.1//EN"
  "http://www.w3.org/Graphics/SVG/1.1/DTD/svg11.dtd">
<svg xmlns:xlink="http://www.w3.org/1999/xlink" width="242.311309pt" height="238.655059pt" viewBox="0 0 242.311309 238.655059" xmlns="http://www.w3.org/2000/svg" version="1.1">
 <metadata>
  <rdf:RDF xmlns:dc="http://purl.org/dc/elements/1.1/" xmlns:cc="http://creativecommons.org/ns#" xmlns:rdf="http://www.w3.org/1999/02/22-rdf-syntax-ns#">
   <cc:Work>
    <dc:type rdf:resource="http://purl.org/dc/dcmitype/StillImage"/>
    <dc:date>2025-08-27T15:08:56.866913</dc:date>
    <dc:format>image/svg+xml</dc:format>
    <dc:creator>
     <cc:Agent>
      <dc:title>Matplotlib v3.6.2, https://matplotlib.org/</dc:title>
     </cc:Agent>
    </dc:creator>
   </cc:Work>
  </rdf:RDF>
 </metadata>
 <defs>
  <style type="text/css">*{stroke-linejoin: round; stroke-linecap: butt}</style>
 </defs>
 <g id="figure_1">
  <g id="patch_1">
   <path d="M 0 238.655059 
L 242.311309 238.655059 
L 242.311309 0 
L 0 0 
L 0 238.655059 
z
" style="fill: none"/>
  </g>
  <g id="axes_1">
   <g id="patch_2">
    <path d="M 49.58375 192.727559 
L 235.111309 192.727559 
L 235.111309 7.2 
L 49.58375 7.2 
L 49.58375 192.727559 
z
" style="fill: none"/>
   </g>
   <g id="PathCollection_1">
    <path d="M 215.171543 56.64786 
L 216.971543 53.64786 
L 215.171543 50.64786 
L 213.371543 53.64786 
z
" clip-path="url(#pc37265f046)" style="fill: #332288; fill-opacity: 0.6; stroke: #ffffff; stroke-opacity: 0.6; stroke-width: 0.339411"/>
    <path d="M 182.461719 65.302752 
L 184.261719 62.302752 
L 182.461719 59.302752 
L 180.661719 62.302752 
z
" clip-path="url(#pc37265f046)" style="fill: #332288; fill-opacity: 0.6; stroke: #ffffff; stroke-opacity: 0.6; stroke-width: 0.339411"/>
    <path d="M 201.080395 57.466961 
L 202.880395 54.466961 
L 201.080395 51.466961 
L 199.280395 54.466961 
z
" clip-path="url(#pc37265f046)" style="fill: #332288; fill-opacity: 0.6; stroke: #ffffff; stroke-opacity: 0.6; stroke-width: 0.339411"/>
    <path d="M 140.596646 116.029177 
L 142.396646 113.029177 
L 140.596646 110.029177 
L 138.796646 113.029177 
z
" clip-path="url(#pc37265f046)" style="fill: #332288; fill-opacity: 0.6; stroke: #ffffff; stroke-opacity: 0.6; stroke-width: 0.339411"/>
    <path d="M 129.193286 112.172601 
L 130.993286 109.172601 
L 129.193286 106.172601 
L 127.393286 109.172601 
z
" clip-path="url(#pc37265f046)" style="fill: #332288; fill-opacity: 0.6; stroke: #ffffff; stroke-opacity: 0.6; stroke-width: 0.339411"/>
    <path d="M 113.602216 64.447914 
L 115.402216 61.447914 
L 113.602216 58.447914 
L 111.802216 61.447914 
z
" clip-path="url(#pc37265f046)" style="fill: #332288; fill-opacity: 0.6; stroke: #ffffff; stroke-opacity: 0.6; stroke-width: 0.339411"/>
    <path d="M 120.321288 105.133285 
L 122.121288 102.133285 
L 120.321288 99.133285 
L 118.521288 102.133285 
z
" clip-path="url(#pc37265f046)" style="fill: #332288; fill-opacity: 0.6; stroke: #ffffff; stroke-opacity: 0.6; stroke-width: 0.339411"/>
    <path d="M 212.819316 55.058197 
L 214.619316 52.058197 
L 212.819316 49.058197 
L 211.019316 52.058197 
z
" clip-path="url(#pc37265f046)" style="fill: #332288; fill-opacity: 0.6; stroke: #ffffff; stroke-opacity: 0.6; stroke-width: 0.339411"/>
    <path d="M 165.06381 73.283804 
L 166.86381 70.283804 
L 165.06381 67.283804 
L 163.26381 70.283804 
z
" clip-path="url(#pc37265f046)" style="fill: #332288; fill-opacity: 0.6; stroke: #ffffff; stroke-opacity: 0.6; stroke-width: 0.339411"/>
    <path d="M 160.280506 139.222335 
L 162.080506 136.222335 
L 160.280506 133.222335 
L 158.480506 136.222335 
z
" clip-path="url(#pc37265f046)" style="fill: #332288; fill-opacity: 0.6; stroke: #ffffff; stroke-opacity: 0.6; stroke-width: 0.339411"/>
    <path d="M 132.11674 102.914534 
L 133.91674 99.914534 
L 132.11674 96.914534 
L 130.31674 99.914534 
z
" clip-path="url(#pc37265f046)" style="fill: #332288; fill-opacity: 0.6; stroke: #ffffff; stroke-opacity: 0.6; stroke-width: 0.339411"/>
    <path d="M 212.148946 67.176984 
L 213.948946 64.176984 
L 212.148946 61.176984 
L 210.348946 64.176984 
z
" clip-path="url(#pc37265f046)" style="fill: #332288; fill-opacity: 0.6; stroke: #ffffff; stroke-opacity: 0.6; stroke-width: 0.339411"/>
    <path d="M 198.955025 58.963963 
L 200.755025 55.963963 
L 198.955025 52.963963 
L 197.155025 55.963963 
z
" clip-path="url(#pc37265f046)" style="fill: #332288; fill-opacity: 0.6; stroke: #ffffff; stroke-opacity: 0.6; stroke-width: 0.339411"/>
    <path d="M 134.578442 105.709635 
L 136.378442 102.709635 
L 134.578442 99.709635 
L 132.778442 102.709635 
z
" clip-path="url(#pc37265f046)" style="fill: #332288; fill-opacity: 0.6; stroke: #ffffff; stroke-opacity: 0.6; stroke-width: 0.339411"/>
    <path d="M 136.420721 79.545934 
L 138.220721 76.545934 
L 136.420721 73.545934 
L 134.620721 76.545934 
z
" clip-path="url(#pc37265f046)" style="fill: #332288; fill-opacity: 0.6; stroke: #ffffff; stroke-opacity: 0.6; stroke-width: 0.339411"/>
    <path d="M 119.263207 65.12028 
L 121.063207 62.12028 
L 119.263207 59.12028 
L 117.463207 62.12028 
z
" clip-path="url(#pc37265f046)" style="fill: #332288; fill-opacity: 0.6; stroke: #ffffff; stroke-opacity: 0.6; stroke-width: 0.339411"/>
    <path d="M 122.864216 113.326801 
L 124.664216 110.326801 
L 122.864216 107.326801 
L 121.064216 110.326801 
z
" clip-path="url(#pc37265f046)" style="fill: #332288; fill-opacity: 0.6; stroke: #ffffff; stroke-opacity: 0.6; stroke-width: 0.339411"/>
    <path d="M 115.588494 68.792343 
L 117.388494 65.792343 
L 115.588494 62.792343 
L 113.788494 65.792343 
z
" clip-path="url(#pc37265f046)" style="fill: #332288; fill-opacity: 0.6; stroke: #ffffff; stroke-opacity: 0.6; stroke-width: 0.339411"/>
    <path d="M 212.89096 63.043996 
L 214.69096 60.043996 
L 212.89096 57.043996 
L 211.09096 60.043996 
z
" clip-path="url(#pc37265f046)" style="fill: #332288; fill-opacity: 0.6; stroke: #ffffff; stroke-opacity: 0.6; stroke-width: 0.339411"/>
    <path d="M 112.896732 67.071509 
L 114.696732 64.071509 
L 112.896732 61.071509 
L 111.096732 64.071509 
z
" clip-path="url(#pc37265f046)" style="fill: #332288; fill-opacity: 0.6; stroke: #ffffff; stroke-opacity: 0.6; stroke-width: 0.339411"/>
    <path d="M 116.000763 69.71457 
L 117.800763 66.71457 
L 116.000763 63.71457 
L 114.200763 66.71457 
z
" clip-path="url(#pc37265f046)" style="fill: #332288; fill-opacity: 0.6; stroke: #ffffff; stroke-opacity: 0.6; stroke-width: 0.339411"/>
    <path d="M 208.149137 65.620159 
L 209.949137 62.620159 
L 208.149137 59.620159 
L 206.349137 62.620159 
z
" clip-path="url(#pc37265f046)" style="fill: #332288; fill-opacity: 0.6; stroke: #ffffff; stroke-opacity: 0.6; stroke-width: 0.339411"/>
    <path d="M 130.843287 102.213579 
L 132.643287 99.213579 
L 130.843287 96.213579 
L 129.043287 99.213579 
z
" clip-path="url(#pc37265f046)" style="fill: #332288; fill-opacity: 0.6; stroke: #ffffff; stroke-opacity: 0.6; stroke-width: 0.339411"/>
    <path d="M 202.060014 58.722216 
L 203.860014 55.722216 
L 202.060014 52.722216 
L 200.260014 55.722216 
z
" clip-path="url(#pc37265f046)" style="fill: #332288; fill-opacity: 0.6; stroke: #ffffff; stroke-opacity: 0.6; stroke-width: 0.339411"/>
    <path d="M 129.812847 99.45907 
L 131.612847 96.45907 
L 129.812847 93.45907 
L 128.012847 96.45907 
z
" clip-path="url(#pc37265f046)" style="fill: #332288; fill-opacity: 0.6; stroke: #ffffff; stroke-opacity: 0.6; stroke-width: 0.339411"/>
    <path d="M 183.408443 64.5275 
L 185.208443 61.5275 
L 183.408443 58.5275 
L 181.608443 61.5275 
z
" clip-path="url(#pc37265f046)" style="fill: #332288; fill-opacity: 0.6; stroke: #ffffff; stroke-opacity: 0.6; stroke-width: 0.339411"/>
    <path d="M 124.042501 106.797314 
L 125.842501 103.797314 
L 124.042501 100.797314 
L 122.242501 103.797314 
z
" clip-path="url(#pc37265f046)" style="fill: #332288; fill-opacity: 0.6; stroke: #ffffff; stroke-opacity: 0.6; stroke-width: 0.339411"/>
    <path d="M 142.135654 109.184742 
L 143.935654 106.184742 
L 142.135654 103.184742 
L 140.335654 106.184742 
z
" clip-path="url(#pc37265f046)" style="fill: #332288; fill-opacity: 0.6; stroke: #ffffff; stroke-opacity: 0.6; stroke-width: 0.339411"/>
    <path d="M 208.74509 62.675414 
L 210.54509 59.675414 
L 208.74509 56.675414 
L 206.94509 59.675414 
z
" clip-path="url(#pc37265f046)" style="fill: #332288; fill-opacity: 0.6; stroke: #ffffff; stroke-opacity: 0.6; stroke-width: 0.339411"/>
    <path d="M 128.998686 113.107264 
L 130.798686 110.107264 
L 128.998686 107.107264 
L 127.198686 110.107264 
z
" clip-path="url(#pc37265f046)" style="fill: #332288; fill-opacity: 0.6; stroke: #ffffff; stroke-opacity: 0.6; stroke-width: 0.339411"/>
    <path d="M 210.985087 65.703579 
L 212.785087 62.703579 
L 210.985087 59.703579 
L 209.185087 62.703579 
z
" clip-path="url(#pc37265f046)" style="fill: #332288; fill-opacity: 0.6; stroke: #ffffff; stroke-opacity: 0.6; stroke-width: 0.339411"/>
    <path d="M 185.549913 71.15003 
L 187.349913 68.15003 
L 185.549913 65.15003 
L 183.749913 68.15003 
z
" clip-path="url(#pc37265f046)" style="fill: #332288; fill-opacity: 0.6; stroke: #ffffff; stroke-opacity: 0.6; stroke-width: 0.339411"/>
    <path d="M 216.139296 61.286935 
L 217.939296 58.286935 
L 216.139296 55.286935 
L 214.339296 58.286935 
z
" clip-path="url(#pc37265f046)" style="fill: #332288; fill-opacity: 0.6; stroke: #ffffff; stroke-opacity: 0.6; stroke-width: 0.339411"/>
    <path d="M 198.241171 60.293475 
L 200.041171 57.293475 
L 198.241171 54.293475 
L 196.441171 57.293475 
z
" clip-path="url(#pc37265f046)" style="fill: #332288; fill-opacity: 0.6; stroke: #ffffff; stroke-opacity: 0.6; stroke-width: 0.339411"/>
    <path d="M 181.934855 63.086385 
L 183.734855 60.086385 
L 181.934855 57.086385 
L 180.134855 60.086385 
z
" clip-path="url(#pc37265f046)" style="fill: #332288; fill-opacity: 0.6; stroke: #ffffff; stroke-opacity: 0.6; stroke-width: 0.339411"/>
    <path d="M 129.798795 104.704782 
L 131.598795 101.704782 
L 129.798795 98.704782 
L 127.998795 101.704782 
z
" clip-path="url(#pc37265f046)" style="fill: #332288; fill-opacity: 0.6; stroke: #ffffff; stroke-opacity: 0.6; stroke-width: 0.339411"/>
    <path d="M 183.43965 71.260589 
L 185.23965 68.260589 
L 183.43965 65.260589 
L 181.63965 68.260589 
z
" clip-path="url(#pc37265f046)" style="fill: #332288; fill-opacity: 0.6; stroke: #ffffff; stroke-opacity: 0.6; stroke-width: 0.339411"/>
    <path d="M 124.082613 101.777614 
L 125.882613 98.777614 
L 124.082613 95.777614 
L 122.282613 98.777614 
z
" clip-path="url(#pc37265f046)" style="fill: #332288; fill-opacity: 0.6; stroke: #ffffff; stroke-opacity: 0.6; stroke-width: 0.339411"/>
    <path d="M 209.972857 58.180633 
L 211.772857 55.180633 
L 209.972857 52.180633 
L 208.172857 55.180633 
z
" clip-path="url(#pc37265f046)" style="fill: #332288; fill-opacity: 0.6; stroke: #ffffff; stroke-opacity: 0.6; stroke-width: 0.339411"/>
    <path d="M 208.557222 60.396919 
L 210.357222 57.396919 
L 208.557222 54.396919 
L 206.757222 57.396919 
z
" clip-path="url(#pc37265f046)" style="fill: #332288; fill-opacity: 0.6; stroke: #ffffff; stroke-opacity: 0.6; stroke-width: 0.339411"/>
    <path d="M 185.712827 64.134762 
L 187.512827 61.134762 
L 185.712827 58.134762 
L 183.912827 61.134762 
z
" clip-path="url(#pc37265f046)" style="fill: #332288; fill-opacity: 0.6; stroke: #ffffff; stroke-opacity: 0.6; stroke-width: 0.339411"/>
    <path d="M 121.439333 104.306037 
L 123.239333 101.306037 
L 121.439333 98.306037 
L 119.639333 101.306037 
z
" clip-path="url(#pc37265f046)" style="fill: #332288; fill-opacity: 0.6; stroke: #ffffff; stroke-opacity: 0.6; stroke-width: 0.339411"/>
    <path d="M 181.109136 73.782953 
L 182.909136 70.782953 
L 181.109136 67.782953 
L 179.309136 70.782953 
z
" clip-path="url(#pc37265f046)" style="fill: #332288; fill-opacity: 0.6; stroke: #ffffff; stroke-opacity: 0.6; stroke-width: 0.339411"/>
    <path d="M 122.177433 112.819294 
L 123.977433 109.819294 
L 122.177433 106.819294 
L 120.377433 109.819294 
z
" clip-path="url(#pc37265f046)" style="fill: #332288; fill-opacity: 0.6; stroke: #ffffff; stroke-opacity: 0.6; stroke-width: 0.339411"/>
    <path d="M 119.917126 63.345966 
L 121.717126 60.345966 
L 119.917126 57.345966 
L 118.117126 60.345966 
z
" clip-path="url(#pc37265f046)" style="fill: #332288; fill-opacity: 0.6; stroke: #ffffff; stroke-opacity: 0.6; stroke-width: 0.339411"/>
    <path d="M 126.801569 100.308465 
L 128.601569 97.308465 
L 126.801569 94.308465 
L 125.001569 97.308465 
z
" clip-path="url(#pc37265f046)" style="fill: #332288; fill-opacity: 0.6; stroke: #ffffff; stroke-opacity: 0.6; stroke-width: 0.339411"/>
    <path d="M 132.284983 108.819953 
L 134.084983 105.819953 
L 132.284983 102.819953 
L 130.484983 105.819953 
z
" clip-path="url(#pc37265f046)" style="fill: #332288; fill-opacity: 0.6; stroke: #ffffff; stroke-opacity: 0.6; stroke-width: 0.339411"/>
    <path d="M 202.237796 62.386452 
L 204.037796 59.386452 
L 202.237796 56.386452 
L 200.437796 59.386452 
z
" clip-path="url(#pc37265f046)" style="fill: #332288; fill-opacity: 0.6; stroke: #ffffff; stroke-opacity: 0.6; stroke-width: 0.339411"/>
    <path d="M 141.61535 108.766023 
L 143.41535 105.766023 
L 141.61535 102.766023 
L 139.81535 105.766023 
z
" clip-path="url(#pc37265f046)" style="fill: #332288; fill-opacity: 0.6; stroke: #ffffff; stroke-opacity: 0.6; stroke-width: 0.339411"/>
    <path d="M 131.3718 133.301868 
L 133.1718 130.301868 
L 131.3718 127.301868 
L 129.5718 130.301868 
z
" clip-path="url(#pc37265f046)" style="fill: #332288; fill-opacity: 0.6; stroke: #ffffff; stroke-opacity: 0.6; stroke-width: 0.339411"/>
    <path d="M 115.642324 62.445317 
L 117.442324 59.445317 
L 115.642324 56.445317 
L 113.842324 59.445317 
z
" clip-path="url(#pc37265f046)" style="fill: #332288; fill-opacity: 0.6; stroke: #ffffff; stroke-opacity: 0.6; stroke-width: 0.339411"/>
    <path d="M 178.100619 71.511567 
L 179.900619 68.511567 
L 178.100619 65.511567 
L 176.300619 68.511567 
z
" clip-path="url(#pc37265f046)" style="fill: #332288; fill-opacity: 0.6; stroke: #ffffff; stroke-opacity: 0.6; stroke-width: 0.339411"/>
    <path d="M 144.841961 106.20175 
L 146.641961 103.20175 
L 144.841961 100.20175 
L 143.041961 103.20175 
z
" clip-path="url(#pc37265f046)" style="fill: #332288; fill-opacity: 0.6; stroke: #ffffff; stroke-opacity: 0.6; stroke-width: 0.339411"/>
    <path d="M 125.472548 104.431731 
L 127.272548 101.431731 
L 125.472548 98.431731 
L 123.672548 101.431731 
z
" clip-path="url(#pc37265f046)" style="fill: #332288; fill-opacity: 0.6; stroke: #ffffff; stroke-opacity: 0.6; stroke-width: 0.339411"/>
    <path d="M 125.947204 111.704887 
L 127.747204 108.704887 
L 125.947204 105.704887 
L 124.147204 108.704887 
z
" clip-path="url(#pc37265f046)" style="fill: #332288; fill-opacity: 0.6; stroke: #ffffff; stroke-opacity: 0.6; stroke-width: 0.339411"/>
    <path d="M 212.868482 56.443037 
L 214.668482 53.443037 
L 212.868482 50.443037 
L 211.068482 53.443037 
z
" clip-path="url(#pc37265f046)" style="fill: #332288; fill-opacity: 0.6; stroke: #ffffff; stroke-opacity: 0.6; stroke-width: 0.339411"/>
    <path d="M 128.317873 135.499197 
L 130.117873 132.499197 
L 128.317873 129.499197 
L 126.517873 132.499197 
z
" clip-path="url(#pc37265f046)" style="fill: #332288; fill-opacity: 0.6; stroke: #ffffff; stroke-opacity: 0.6; stroke-width: 0.339411"/>
    <path d="M 140.678183 112.672348 
L 142.478183 109.672348 
L 140.678183 106.672348 
L 138.878183 109.672348 
z
" clip-path="url(#pc37265f046)" style="fill: #332288; fill-opacity: 0.6; stroke: #ffffff; stroke-opacity: 0.6; stroke-width: 0.339411"/>
    <path d="M 136.182671 118.576185 
L 137.982671 115.576185 
L 136.182671 112.576185 
L 134.382671 115.576185 
z
" clip-path="url(#pc37265f046)" style="fill: #332288; fill-opacity: 0.6; stroke: #ffffff; stroke-opacity: 0.6; stroke-width: 0.339411"/>
    <path d="M 128.670633 106.494939 
L 130.470633 103.494939 
L 128.670633 100.494939 
L 126.870633 103.494939 
z
" clip-path="url(#pc37265f046)" style="fill: #332288; fill-opacity: 0.6; stroke: #ffffff; stroke-opacity: 0.6; stroke-width: 0.339411"/>
    <path d="M 209.783198 57.327963 
L 211.583198 54.327963 
L 209.783198 51.327963 
L 207.983198 54.327963 
z
" clip-path="url(#pc37265f046)" style="fill: #332288; fill-opacity: 0.6; stroke: #ffffff; stroke-opacity: 0.6; stroke-width: 0.339411"/>
    <path d="M 143.375869 113.162997 
L 145.175869 110.162997 
L 143.375869 107.162997 
L 141.575869 110.162997 
z
" clip-path="url(#pc37265f046)" style="fill: #332288; fill-opacity: 0.6; stroke: #ffffff; stroke-opacity: 0.6; stroke-width: 0.339411"/>
    <path d="M 147.947413 78.428526 
L 149.747413 75.428526 
L 147.947413 72.428526 
L 146.147413 75.428526 
z
" clip-path="url(#pc37265f046)" style="fill: #332288; fill-opacity: 0.6; stroke: #ffffff; stroke-opacity: 0.6; stroke-width: 0.339411"/>
    <path d="M 138.914292 115.689252 
L 140.714292 112.689252 
L 138.914292 109.689252 
L 137.114292 112.689252 
z
" clip-path="url(#pc37265f046)" style="fill: #332288; fill-opacity: 0.6; stroke: #ffffff; stroke-opacity: 0.6; stroke-width: 0.339411"/>
    <path d="M 212.495986 77.904581 
L 210.374666 82.147222 
L 214.617306 82.147222 
z
" clip-path="url(#pc37265f046)" style="fill: #117733; fill-opacity: 0.6; stroke: #ffffff; stroke-opacity: 0.6; stroke-width: 0.339411"/>
    <path d="M 211.512761 109.001048 
L 209.391441 113.243689 
L 213.634081 113.243689 
z
" clip-path="url(#pc37265f046)" style="fill: #117733; fill-opacity: 0.6; stroke: #ffffff; stroke-opacity: 0.6; stroke-width: 0.339411"/>
    <path d="M 200.694264 68.705054 
L 198.572944 72.947695 
L 202.815584 72.947695 
z
" clip-path="url(#pc37265f046)" style="fill: #117733; fill-opacity: 0.6; stroke: #ffffff; stroke-opacity: 0.6; stroke-width: 0.339411"/>
    <path d="M 203.701252 73.674795 
L 201.579931 77.917436 
L 205.822572 77.917436 
z
" clip-path="url(#pc37265f046)" style="fill: #117733; fill-opacity: 0.6; stroke: #ffffff; stroke-opacity: 0.6; stroke-width: 0.339411"/>
    <path d="M 185.775172 129.750677 
L 183.653852 133.993318 
L 187.896493 133.993318 
z
" clip-path="url(#pc37265f046)" style="fill: #117733; fill-opacity: 0.6; stroke: #ffffff; stroke-opacity: 0.6; stroke-width: 0.339411"/>
    <path d="M 202.699645 88.940111 
L 200.578325 93.182751 
L 204.820965 93.182751 
z
" clip-path="url(#pc37265f046)" style="fill: #117733; fill-opacity: 0.6; stroke: #ffffff; stroke-opacity: 0.6; stroke-width: 0.339411"/>
    <path d="M 210.017745 76.421597 
L 207.896425 80.664238 
L 212.139065 80.664238 
z
" clip-path="url(#pc37265f046)" style="fill: #117733; fill-opacity: 0.6; stroke: #ffffff; stroke-opacity: 0.6; stroke-width: 0.339411"/>
    <path d="M 192.385043 92.007401 
L 190.263723 96.250042 
L 194.506364 96.250042 
z
" clip-path="url(#pc37265f046)" style="fill: #117733; fill-opacity: 0.6; stroke: #ffffff; stroke-opacity: 0.6; stroke-width: 0.339411"/>
    <path d="M 181.691362 84.996908 
L 179.570042 89.239549 
L 183.812682 89.239549 
z
" clip-path="url(#pc37265f046)" style="fill: #117733; fill-opacity: 0.6; stroke: #ffffff; stroke-opacity: 0.6; stroke-width: 0.339411"/>
    <path d="M 209.880127 115.198277 
L 207.758807 119.440917 
L 212.001447 119.440917 
z
" clip-path="url(#pc37265f046)" style="fill: #117733; fill-opacity: 0.6; stroke: #ffffff; stroke-opacity: 0.6; stroke-width: 0.339411"/>
    <path d="M 189.751852 105.978993 
L 187.630532 110.221634 
L 191.873173 110.221634 
z
" clip-path="url(#pc37265f046)" style="fill: #117733; fill-opacity: 0.6; stroke: #ffffff; stroke-opacity: 0.6; stroke-width: 0.339411"/>
    <path d="M 207.761945 85.616993 
L 205.640625 89.859634 
L 209.883265 89.859634 
z
" clip-path="url(#pc37265f046)" style="fill: #117733; fill-opacity: 0.6; stroke: #ffffff; stroke-opacity: 0.6; stroke-width: 0.339411"/>
    <path d="M 203.431481 95.868634 
L 201.310161 100.111274 
L 205.552802 100.111274 
z
" clip-path="url(#pc37265f046)" style="fill: #117733; fill-opacity: 0.6; stroke: #ffffff; stroke-opacity: 0.6; stroke-width: 0.339411"/>
    <path d="M 198.946193 83.466047 
L 196.824873 87.708688 
L 201.067514 87.708688 
z
" clip-path="url(#pc37265f046)" style="fill: #117733; fill-opacity: 0.6; stroke: #ffffff; stroke-opacity: 0.6; stroke-width: 0.339411"/>
    <path d="M 186.53728 139.044559 
L 184.415959 143.2872 
L 188.6586 143.2872 
z
" clip-path="url(#pc37265f046)" style="fill: #117733; fill-opacity: 0.6; stroke: #ffffff; stroke-opacity: 0.6; stroke-width: 0.339411"/>
    <path d="M 183.882512 92.209897 
L 181.761192 96.452538 
L 186.003832 96.452538 
z
" clip-path="url(#pc37265f046)" style="fill: #117733; fill-opacity: 0.6; stroke: #ffffff; stroke-opacity: 0.6; stroke-width: 0.339411"/>
    <path d="M 195.838294 84.992452 
L 193.716974 89.235093 
L 197.959614 89.235093 
z
" clip-path="url(#pc37265f046)" style="fill: #117733; fill-opacity: 0.6; stroke: #ffffff; stroke-opacity: 0.6; stroke-width: 0.339411"/>
    <path d="M 209.1724 71.205979 
L 207.05108 75.448619 
L 211.293721 75.448619 
z
" clip-path="url(#pc37265f046)" style="fill: #117733; fill-opacity: 0.6; stroke: #ffffff; stroke-opacity: 0.6; stroke-width: 0.339411"/>
    <path d="M 132.903819 134.102144 
L 130.782499 138.344785 
L 135.025139 138.344785 
z
" clip-path="url(#pc37265f046)" style="fill: #117733; fill-opacity: 0.6; stroke: #ffffff; stroke-opacity: 0.6; stroke-width: 0.339411"/>
    <path d="M 156.462912 134.817521 
L 154.341591 139.060162 
L 158.584232 139.060162 
z
" clip-path="url(#pc37265f046)" style="fill: #117733; fill-opacity: 0.6; stroke: #ffffff; stroke-opacity: 0.6; stroke-width: 0.339411"/>
    <path d="M 134.217083 136.479522 
L 132.095762 140.722163 
L 136.338403 140.722163 
z
" clip-path="url(#pc37265f046)" style="fill: #117733; fill-opacity: 0.6; stroke: #ffffff; stroke-opacity: 0.6; stroke-width: 0.339411"/>
    <path d="M 199.340517 81.985801 
L 197.219197 86.228442 
L 201.461837 86.228442 
z
" clip-path="url(#pc37265f046)" style="fill: #117733; fill-opacity: 0.6; stroke: #ffffff; stroke-opacity: 0.6; stroke-width: 0.339411"/>
    <path d="M 165.342429 128.326067 
L 163.221109 132.568708 
L 167.463749 132.568708 
z
" clip-path="url(#pc37265f046)" style="fill: #117733; fill-opacity: 0.6; stroke: #ffffff; stroke-opacity: 0.6; stroke-width: 0.339411"/>
    <path d="M 203.165511 84.644636 
L 201.04419 88.887277 
L 205.286831 88.887277 
z
" clip-path="url(#pc37265f046)" style="fill: #117733; fill-opacity: 0.6; stroke: #ffffff; stroke-opacity: 0.6; stroke-width: 0.339411"/>
    <path d="M 185.892902 134.027513 
L 183.771582 138.270154 
L 188.014223 138.270154 
z
" clip-path="url(#pc37265f046)" style="fill: #117733; fill-opacity: 0.6; stroke: #ffffff; stroke-opacity: 0.6; stroke-width: 0.339411"/>
    <path d="M 185.51712 88.173959 
L 183.3958 92.416599 
L 187.63844 92.416599 
z
" clip-path="url(#pc37265f046)" style="fill: #117733; fill-opacity: 0.6; stroke: #ffffff; stroke-opacity: 0.6; stroke-width: 0.339411"/>
    <path d="M 136.174216 50.503653 
L 134.052896 54.746294 
L 138.295536 54.746294 
z
" clip-path="url(#pc37265f046)" style="fill: #117733; fill-opacity: 0.6; stroke: #ffffff; stroke-opacity: 0.6; stroke-width: 0.339411"/>
    <path d="M 209.045189 85.149462 
L 206.923868 89.392103 
L 211.166509 89.392103 
z
" clip-path="url(#pc37265f046)" style="fill: #117733; fill-opacity: 0.6; stroke: #ffffff; stroke-opacity: 0.6; stroke-width: 0.339411"/>
    <path d="M 191.853022 128.589642 
L 189.731702 132.832283 
L 193.974342 132.832283 
z
" clip-path="url(#pc37265f046)" style="fill: #117733; fill-opacity: 0.6; stroke: #ffffff; stroke-opacity: 0.6; stroke-width: 0.339411"/>
    <path d="M 195.627765 92.014253 
L 193.506445 96.256894 
L 197.749085 96.256894 
z
" clip-path="url(#pc37265f046)" style="fill: #117733; fill-opacity: 0.6; stroke: #ffffff; stroke-opacity: 0.6; stroke-width: 0.339411"/>
    <path d="M 135.39549 141.065088 
L 133.274169 145.307729 
L 137.51681 145.307729 
z
" clip-path="url(#pc37265f046)" style="fill: #117733; fill-opacity: 0.6; stroke: #ffffff; stroke-opacity: 0.6; stroke-width: 0.339411"/>
    <path d="M 120.096876 28.390513 
L 117.975556 32.633154 
L 122.218197 32.633154 
z
" clip-path="url(#pc37265f046)" style="fill: #117733; fill-opacity: 0.6; stroke: #ffffff; stroke-opacity: 0.6; stroke-width: 0.339411"/>
    <path d="M 188.501755 131.533172 
L 186.380435 135.775813 
L 190.623076 135.775813 
z
" clip-path="url(#pc37265f046)" style="fill: #117733; fill-opacity: 0.6; stroke: #ffffff; stroke-opacity: 0.6; stroke-width: 0.339411"/>
    <path d="M 191.971494 133.53082 
L 189.850173 137.773461 
L 194.092814 137.773461 
z
" clip-path="url(#pc37265f046)" style="fill: #117733; fill-opacity: 0.6; stroke: #ffffff; stroke-opacity: 0.6; stroke-width: 0.339411"/>
    <path d="M 212.704952 116.072572 
L 210.583631 120.315212 
L 214.826272 120.315212 
z
" clip-path="url(#pc37265f046)" style="fill: #117733; fill-opacity: 0.6; stroke: #ffffff; stroke-opacity: 0.6; stroke-width: 0.339411"/>
    <path d="M 185.693167 69.274319 
L 183.571847 73.516959 
L 187.814488 73.516959 
z
" clip-path="url(#pc37265f046)" style="fill: #117733; fill-opacity: 0.6; stroke: #ffffff; stroke-opacity: 0.6; stroke-width: 0.339411"/>
    <path d="M 189.753096 89.37089 
L 187.631776 93.613531 
L 191.874417 93.613531 
z
" clip-path="url(#pc37265f046)" style="fill: #117733; fill-opacity: 0.6; stroke: #ffffff; stroke-opacity: 0.6; stroke-width: 0.339411"/>
    <path d="M 184.191282 89.040418 
L 182.069962 93.283058 
L 186.312603 93.283058 
z
" clip-path="url(#pc37265f046)" style="fill: #117733; fill-opacity: 0.6; stroke: #ffffff; stroke-opacity: 0.6; stroke-width: 0.339411"/>
    <path d="M 208.39773 77.794051 
L 206.27641 82.036691 
L 210.519051 82.036691 
z
" clip-path="url(#pc37265f046)" style="fill: #117733; fill-opacity: 0.6; stroke: #ffffff; stroke-opacity: 0.6; stroke-width: 0.339411"/>
    <path d="M 195.74497 88.990059 
L 193.62365 93.232699 
L 197.866291 93.232699 
z
" clip-path="url(#pc37265f046)" style="fill: #117733; fill-opacity: 0.6; stroke: #ffffff; stroke-opacity: 0.6; stroke-width: 0.339411"/>
    <path d="M 203.020191 81.53211 
L 200.89887 85.774751 
L 205.141511 85.774751 
z
" clip-path="url(#pc37265f046)" style="fill: #117733; fill-opacity: 0.6; stroke: #ffffff; stroke-opacity: 0.6; stroke-width: 0.339411"/>
    <path d="M 189.604148 135.57359 
L 187.482828 139.81623 
L 191.725468 139.81623 
z
" clip-path="url(#pc37265f046)" style="fill: #117733; fill-opacity: 0.6; stroke: #ffffff; stroke-opacity: 0.6; stroke-width: 0.339411"/>
    <path d="M 130.28116 133.398539 
L 128.159839 137.64118 
L 132.40248 137.64118 
z
" clip-path="url(#pc37265f046)" style="fill: #117733; fill-opacity: 0.6; stroke: #ffffff; stroke-opacity: 0.6; stroke-width: 0.339411"/>
    <path d="M 123.615864 26.80692 
L 121.494543 31.049561 
L 125.737184 31.049561 
z
" clip-path="url(#pc37265f046)" style="fill: #117733; fill-opacity: 0.6; stroke: #ffffff; stroke-opacity: 0.6; stroke-width: 0.339411"/>
    <path d="M 210.831358 91.397175 
L 208.710037 95.639815 
L 212.952678 95.639815 
z
" clip-path="url(#pc37265f046)" style="fill: #117733; fill-opacity: 0.6; stroke: #ffffff; stroke-opacity: 0.6; stroke-width: 0.339411"/>
    <path d="M 206.670392 76.40892 
L 204.549072 80.651561 
L 208.791712 80.651561 
z
" clip-path="url(#pc37265f046)" style="fill: #117733; fill-opacity: 0.6; stroke: #ffffff; stroke-opacity: 0.6; stroke-width: 0.339411"/>
    <path d="M 201.847158 87.34646 
L 199.725838 91.5891 
L 203.968478 91.5891 
z
" clip-path="url(#pc37265f046)" style="fill: #117733; fill-opacity: 0.6; stroke: #ffffff; stroke-opacity: 0.6; stroke-width: 0.339411"/>
    <path d="M 187.088995 123.055732 
L 184.967675 127.298373 
L 189.210315 127.298373 
z
" clip-path="url(#pc37265f046)" style="fill: #117733; fill-opacity: 0.6; stroke: #ffffff; stroke-opacity: 0.6; stroke-width: 0.339411"/>
    <path d="M 204.35365 93.458483 
L 202.23233 97.701123 
L 206.474971 97.701123 
z
" clip-path="url(#pc37265f046)" style="fill: #117733; fill-opacity: 0.6; stroke: #ffffff; stroke-opacity: 0.6; stroke-width: 0.339411"/>
    <path d="M 206.804359 118.774289 
L 204.683038 123.01693 
L 208.925679 123.01693 
z
" clip-path="url(#pc37265f046)" style="fill: #117733; fill-opacity: 0.6; stroke: #ffffff; stroke-opacity: 0.6; stroke-width: 0.339411"/>
    <path d="M 152.625852 140.533647 
L 150.504532 144.776288 
L 154.747172 144.776288 
z
" clip-path="url(#pc37265f046)" style="fill: #117733; fill-opacity: 0.6; stroke: #ffffff; stroke-opacity: 0.6; stroke-width: 0.339411"/>
    <path d="M 208.189929 114.006537 
L 206.068608 118.249178 
L 210.311249 118.249178 
z
" clip-path="url(#pc37265f046)" style="fill: #117733; fill-opacity: 0.6; stroke: #ffffff; stroke-opacity: 0.6; stroke-width: 0.339411"/>
    <path d="M 203.819587 117.027063 
L 201.698266 121.269704 
L 205.940907 121.269704 
z
" clip-path="url(#pc37265f046)" style="fill: #117733; fill-opacity: 0.6; stroke: #ffffff; stroke-opacity: 0.6; stroke-width: 0.339411"/>
    <path d="M 194.444303 82.727724 
L 192.322983 86.970365 
L 196.565624 86.970365 
z
" clip-path="url(#pc37265f046)" style="fill: #117733; fill-opacity: 0.6; stroke: #ffffff; stroke-opacity: 0.6; stroke-width: 0.339411"/>
    <path d="M 148.270902 133.998862 
L 146.149582 138.241503 
L 150.392222 138.241503 
z
" clip-path="url(#pc37265f046)" style="fill: #117733; fill-opacity: 0.6; stroke: #ffffff; stroke-opacity: 0.6; stroke-width: 0.339411"/>
    <path d="M 191.056205 77.343452 
L 188.934885 81.586093 
L 193.177525 81.586093 
z
" clip-path="url(#pc37265f046)" style="fill: #117733; fill-opacity: 0.6; stroke: #ffffff; stroke-opacity: 0.6; stroke-width: 0.339411"/>
    <path d="M 208.577007 113.64512 
L 206.455687 117.887761 
L 210.698327 117.887761 
z
" clip-path="url(#pc37265f046)" style="fill: #117733; fill-opacity: 0.6; stroke: #ffffff; stroke-opacity: 0.6; stroke-width: 0.339411"/>
    <path d="M 189.673784 129.166503 
L 187.552464 133.409143 
L 191.795104 133.409143 
z
" clip-path="url(#pc37265f046)" style="fill: #117733; fill-opacity: 0.6; stroke: #ffffff; stroke-opacity: 0.6; stroke-width: 0.339411"/>
    <path d="M 173.433305 176.779819 
L 171.311984 181.02246 
L 175.554625 181.02246 
z
" clip-path="url(#pc37265f046)" style="fill: #117733; fill-opacity: 0.6; stroke: #ffffff; stroke-opacity: 0.6; stroke-width: 0.339411"/>
    <path d="M 192.798764 78.567951 
L 190.677444 82.810591 
L 194.920085 82.810591 
z
" clip-path="url(#pc37265f046)" style="fill: #117733; fill-opacity: 0.6; stroke: #ffffff; stroke-opacity: 0.6; stroke-width: 0.339411"/>
    <path d="M 191.463536 133.927825 
L 189.342216 138.170466 
L 193.584856 138.170466 
z
" clip-path="url(#pc37265f046)" style="fill: #117733; fill-opacity: 0.6; stroke: #ffffff; stroke-opacity: 0.6; stroke-width: 0.339411"/>
    <path d="M 182.067852 87.25054 
L 179.946531 91.493181 
L 184.189172 91.493181 
z
" clip-path="url(#pc37265f046)" style="fill: #117733; fill-opacity: 0.6; stroke: #ffffff; stroke-opacity: 0.6; stroke-width: 0.339411"/>
    <path d="M 212.456712 83.668948 
L 210.335392 87.911589 
L 214.578032 87.911589 
z
" clip-path="url(#pc37265f046)" style="fill: #117733; fill-opacity: 0.6; stroke: #ffffff; stroke-opacity: 0.6; stroke-width: 0.339411"/>
    <path d="M 178.432688 123.379927 
L 182.675329 123.379927 
L 182.675329 119.137286 
L 178.432688 119.137286 
z
" clip-path="url(#pc37265f046)" style="fill: #44aa99; fill-opacity: 0.6; stroke: #ffffff; stroke-opacity: 0.6; stroke-width: 0.339411"/>
    <path d="M 164.1437 102.154634 
L 168.386341 102.154634 
L 168.386341 97.911993 
L 164.1437 97.911993 
z
" clip-path="url(#pc37265f046)" style="fill: #44aa99; fill-opacity: 0.6; stroke: #ffffff; stroke-opacity: 0.6; stroke-width: 0.339411"/>
    <path d="M 128.889553 68.610819 
L 133.132194 68.610819 
L 133.132194 64.368178 
L 128.889553 64.368178 
z
" clip-path="url(#pc37265f046)" style="fill: #44aa99; fill-opacity: 0.6; stroke: #ffffff; stroke-opacity: 0.6; stroke-width: 0.339411"/>
    <path d="M 121.163052 37.11438 
L 125.405693 37.11438 
L 125.405693 32.871739 
L 121.163052 32.871739 
z
" clip-path="url(#pc37265f046)" style="fill: #44aa99; fill-opacity: 0.6; stroke: #ffffff; stroke-opacity: 0.6; stroke-width: 0.339411"/>
    <path d="M 141.628848 126.913582 
L 145.871489 126.913582 
L 145.871489 122.670941 
L 141.628848 122.670941 
z
" clip-path="url(#pc37265f046)" style="fill: #44aa99; fill-opacity: 0.6; stroke: #ffffff; stroke-opacity: 0.6; stroke-width: 0.339411"/>
    <path d="M 146.021297 143.262621 
L 150.263938 143.262621 
L 150.263938 139.01998 
L 146.021297 139.01998 
z
" clip-path="url(#pc37265f046)" style="fill: #44aa99; fill-opacity: 0.6; stroke: #ffffff; stroke-opacity: 0.6; stroke-width: 0.339411"/>
    <path d="M 169.230942 117.477993 
L 173.473583 117.477993 
L 173.473583 113.235353 
L 169.230942 113.235353 
z
" clip-path="url(#pc37265f046)" style="fill: #44aa99; fill-opacity: 0.6; stroke: #ffffff; stroke-opacity: 0.6; stroke-width: 0.339411"/>
    <path d="M 108.93677 38.498718 
L 113.17941 38.498718 
L 113.17941 34.256077 
L 108.93677 34.256077 
z
" clip-path="url(#pc37265f046)" style="fill: #44aa99; fill-opacity: 0.6; stroke: #ffffff; stroke-opacity: 0.6; stroke-width: 0.339411"/>
    <path d="M 128.033346 54.147569 
L 132.275987 54.147569 
L 132.275987 49.904928 
L 128.033346 49.904928 
z
" clip-path="url(#pc37265f046)" style="fill: #44aa99; fill-opacity: 0.6; stroke: #ffffff; stroke-opacity: 0.6; stroke-width: 0.339411"/>
    <path d="M 126.145182 45.725901 
L 130.387822 45.725901 
L 130.387822 41.48326 
L 126.145182 41.48326 
z
" clip-path="url(#pc37265f046)" style="fill: #44aa99; fill-opacity: 0.6; stroke: #ffffff; stroke-opacity: 0.6; stroke-width: 0.339411"/>
    <path d="M 165.272655 143.382875 
L 169.515296 143.382875 
L 169.515296 139.140234 
L 165.272655 139.140234 
z
" clip-path="url(#pc37265f046)" style="fill: #44aa99; fill-opacity: 0.6; stroke: #ffffff; stroke-opacity: 0.6; stroke-width: 0.339411"/>
    <path d="M 137.118258 61.452615 
L 141.360899 61.452615 
L 141.360899 57.209975 
L 137.118258 57.209975 
z
" clip-path="url(#pc37265f046)" style="fill: #44aa99; fill-opacity: 0.6; stroke: #ffffff; stroke-opacity: 0.6; stroke-width: 0.339411"/>
    <path d="M 205.925571 124.855971 
L 210.168211 124.855971 
L 210.168211 120.61333 
L 205.925571 120.61333 
z
" clip-path="url(#pc37265f046)" style="fill: #44aa99; fill-opacity: 0.6; stroke: #ffffff; stroke-opacity: 0.6; stroke-width: 0.339411"/>
    <path d="M 137.703787 71.447984 
L 141.946428 71.447984 
L 141.946428 67.205343 
L 137.703787 67.205343 
z
" clip-path="url(#pc37265f046)" style="fill: #44aa99; fill-opacity: 0.6; stroke: #ffffff; stroke-opacity: 0.6; stroke-width: 0.339411"/>
    <path d="M 169.803653 97.260309 
L 174.046293 97.260309 
L 174.046293 93.017668 
L 169.803653 93.017668 
z
" clip-path="url(#pc37265f046)" style="fill: #44aa99; fill-opacity: 0.6; stroke: #ffffff; stroke-opacity: 0.6; stroke-width: 0.339411"/>
    <path d="M 159.666656 151.333957 
L 163.909296 151.333957 
L 163.909296 147.091316 
L 159.666656 147.091316 
z
" clip-path="url(#pc37265f046)" style="fill: #44aa99; fill-opacity: 0.6; stroke: #ffffff; stroke-opacity: 0.6; stroke-width: 0.339411"/>
    <path d="M 134.741767 65.018108 
L 138.984408 65.018108 
L 138.984408 60.775467 
L 134.741767 60.775467 
z
" clip-path="url(#pc37265f046)" style="fill: #44aa99; fill-opacity: 0.6; stroke: #ffffff; stroke-opacity: 0.6; stroke-width: 0.339411"/>
    <path d="M 141.645336 65.98869 
L 145.887976 65.98869 
L 145.887976 61.746049 
L 141.645336 61.746049 
z
" clip-path="url(#pc37265f046)" style="fill: #44aa99; fill-opacity: 0.6; stroke: #ffffff; stroke-opacity: 0.6; stroke-width: 0.339411"/>
    <path d="M 208.173144 114.644799 
L 212.415784 114.644799 
L 212.415784 110.402159 
L 208.173144 110.402159 
z
" clip-path="url(#pc37265f046)" style="fill: #44aa99; fill-opacity: 0.6; stroke: #ffffff; stroke-opacity: 0.6; stroke-width: 0.339411"/>
    <path d="M 119.656689 66.812081 
L 123.89933 66.812081 
L 123.89933 62.569441 
L 119.656689 62.569441 
z
" clip-path="url(#pc37265f046)" style="fill: #44aa99; fill-opacity: 0.6; stroke: #ffffff; stroke-opacity: 0.6; stroke-width: 0.339411"/>
    <path d="M 145.677036 124.317383 
L 149.919676 124.317383 
L 149.919676 120.074742 
L 145.677036 120.074742 
z
" clip-path="url(#pc37265f046)" style="fill: #44aa99; fill-opacity: 0.6; stroke: #ffffff; stroke-opacity: 0.6; stroke-width: 0.339411"/>
    <path d="M 116.427 39.614791 
L 120.669641 39.614791 
L 120.669641 35.37215 
L 116.427 35.37215 
z
" clip-path="url(#pc37265f046)" style="fill: #44aa99; fill-opacity: 0.6; stroke: #ffffff; stroke-opacity: 0.6; stroke-width: 0.339411"/>
    <path d="M 114.723067 23.14774 
L 118.965708 23.14774 
L 118.965708 18.905099 
L 114.723067 18.905099 
z
" clip-path="url(#pc37265f046)" style="fill: #44aa99; fill-opacity: 0.6; stroke: #ffffff; stroke-opacity: 0.6; stroke-width: 0.339411"/>
    <path d="M 150.714165 125.919298 
L 154.956805 125.919298 
L 154.956805 121.676657 
L 150.714165 121.676657 
z
" clip-path="url(#pc37265f046)" style="fill: #44aa99; fill-opacity: 0.6; stroke: #ffffff; stroke-opacity: 0.6; stroke-width: 0.339411"/>
    <path d="M 203.977115 125.535429 
L 208.219755 125.535429 
L 208.219755 121.292788 
L 203.977115 121.292788 
z
" clip-path="url(#pc37265f046)" style="fill: #44aa99; fill-opacity: 0.6; stroke: #ffffff; stroke-opacity: 0.6; stroke-width: 0.339411"/>
    <path d="M 158.839237 147.244116 
L 163.081877 147.244116 
L 163.081877 143.001475 
L 158.839237 143.001475 
z
" clip-path="url(#pc37265f046)" style="fill: #44aa99; fill-opacity: 0.6; stroke: #ffffff; stroke-opacity: 0.6; stroke-width: 0.339411"/>
    <path d="M 124.16929 37.831292 
L 128.411931 37.831292 
L 128.411931 33.588651 
L 124.16929 33.588651 
z
" clip-path="url(#pc37265f046)" style="fill: #44aa99; fill-opacity: 0.6; stroke: #ffffff; stroke-opacity: 0.6; stroke-width: 0.339411"/>
    <path d="M 144.18259 62.296066 
L 148.425231 62.296066 
L 148.425231 58.053425 
L 144.18259 58.053425 
z
" clip-path="url(#pc37265f046)" style="fill: #44aa99; fill-opacity: 0.6; stroke: #ffffff; stroke-opacity: 0.6; stroke-width: 0.339411"/>
    <path d="M 117.444322 26.183903 
L 121.686962 26.183903 
L 121.686962 21.941263 
L 117.444322 21.941263 
z
" clip-path="url(#pc37265f046)" style="fill: #44aa99; fill-opacity: 0.6; stroke: #ffffff; stroke-opacity: 0.6; stroke-width: 0.339411"/>
    <path d="M 127.237162 34.716021 
L 131.479803 34.716021 
L 131.479803 30.473381 
L 127.237162 30.473381 
z
" clip-path="url(#pc37265f046)" style="fill: #44aa99; fill-opacity: 0.6; stroke: #ffffff; stroke-opacity: 0.6; stroke-width: 0.339411"/>
    <path d="M 153.420563 121.367201 
L 157.663204 121.367201 
L 157.663204 117.12456 
L 153.420563 117.12456 
z
" clip-path="url(#pc37265f046)" style="fill: #44aa99; fill-opacity: 0.6; stroke: #ffffff; stroke-opacity: 0.6; stroke-width: 0.339411"/>
    <path d="M 143.998373 75.99564 
L 148.241014 75.99564 
L 148.241014 71.752999 
L 143.998373 71.752999 
z
" clip-path="url(#pc37265f046)" style="fill: #44aa99; fill-opacity: 0.6; stroke: #ffffff; stroke-opacity: 0.6; stroke-width: 0.339411"/>
    <path d="M 118.222323 31.921217 
L 122.464964 31.921217 
L 122.464964 27.678576 
L 118.222323 27.678576 
z
" clip-path="url(#pc37265f046)" style="fill: #44aa99; fill-opacity: 0.6; stroke: #ffffff; stroke-opacity: 0.6; stroke-width: 0.339411"/>
    <path d="M 110.899585 30.269574 
L 115.142226 30.269574 
L 115.142226 26.026933 
L 110.899585 26.026933 
z
" clip-path="url(#pc37265f046)" style="fill: #44aa99; fill-opacity: 0.6; stroke: #ffffff; stroke-opacity: 0.6; stroke-width: 0.339411"/>
    <path d="M 120.823144 67.582889 
L 125.065784 67.582889 
L 125.065784 63.340248 
L 120.823144 63.340248 
z
" clip-path="url(#pc37265f046)" style="fill: #44aa99; fill-opacity: 0.6; stroke: #ffffff; stroke-opacity: 0.6; stroke-width: 0.339411"/>
    <path d="M 143.675483 118.115664 
L 147.918123 118.115664 
L 147.918123 113.873024 
L 143.675483 113.873024 
z
" clip-path="url(#pc37265f046)" style="fill: #44aa99; fill-opacity: 0.6; stroke: #ffffff; stroke-opacity: 0.6; stroke-width: 0.339411"/>
    <path d="M 157.189516 148.637529 
L 161.432156 148.637529 
L 161.432156 144.394888 
L 157.189516 144.394888 
z
" clip-path="url(#pc37265f046)" style="fill: #44aa99; fill-opacity: 0.6; stroke: #ffffff; stroke-opacity: 0.6; stroke-width: 0.339411"/>
    <path d="M 110.224712 31.684034 
L 114.467352 31.684034 
L 114.467352 27.441393 
L 110.224712 27.441393 
z
" clip-path="url(#pc37265f046)" style="fill: #44aa99; fill-opacity: 0.6; stroke: #ffffff; stroke-opacity: 0.6; stroke-width: 0.339411"/>
    <path d="M 162.124113 149.923277 
L 166.366754 149.923277 
L 166.366754 145.680636 
L 162.124113 145.680636 
z
" clip-path="url(#pc37265f046)" style="fill: #44aa99; fill-opacity: 0.6; stroke: #ffffff; stroke-opacity: 0.6; stroke-width: 0.339411"/>
    <path d="M 146.387449 67.352569 
L 150.63009 67.352569 
L 150.63009 63.109929 
L 146.387449 63.109929 
z
" clip-path="url(#pc37265f046)" style="fill: #44aa99; fill-opacity: 0.6; stroke: #ffffff; stroke-opacity: 0.6; stroke-width: 0.339411"/>
    <path d="M 155.127991 104.39098 
L 159.370632 104.39098 
L 159.370632 100.148339 
L 155.127991 100.148339 
z
" clip-path="url(#pc37265f046)" style="fill: #44aa99; fill-opacity: 0.6; stroke: #ffffff; stroke-opacity: 0.6; stroke-width: 0.339411"/>
    <path d="M 124.209465 29.406087 
L 128.452106 29.406087 
L 128.452106 25.163446 
L 124.209465 25.163446 
z
" clip-path="url(#pc37265f046)" style="fill: #44aa99; fill-opacity: 0.6; stroke: #ffffff; stroke-opacity: 0.6; stroke-width: 0.339411"/>
    <path d="M 165.474033 147.078845 
L 169.716674 147.078845 
L 169.716674 142.836205 
L 165.474033 142.836205 
z
" clip-path="url(#pc37265f046)" style="fill: #44aa99; fill-opacity: 0.6; stroke: #ffffff; stroke-opacity: 0.6; stroke-width: 0.339411"/>
    <path d="M 111.800917 33.874716 
L 116.043557 33.874716 
L 116.043557 29.632075 
L 111.800917 29.632075 
z
" clip-path="url(#pc37265f046)" style="fill: #44aa99; fill-opacity: 0.6; stroke: #ffffff; stroke-opacity: 0.6; stroke-width: 0.339411"/>
    <path d="M 209.164561 123.774796 
L 213.407202 123.774796 
L 213.407202 119.532155 
L 209.164561 119.532155 
z
" clip-path="url(#pc37265f046)" style="fill: #44aa99; fill-opacity: 0.6; stroke: #ffffff; stroke-opacity: 0.6; stroke-width: 0.339411"/>
    <path d="M 157.191416 97.160892 
L 161.434056 97.160892 
L 161.434056 92.918252 
L 157.191416 92.918252 
z
" clip-path="url(#pc37265f046)" style="fill: #44aa99; fill-opacity: 0.6; stroke: #ffffff; stroke-opacity: 0.6; stroke-width: 0.339411"/>
    <path d="M 147.791139 119.967402 
L 152.033779 119.967402 
L 152.033779 115.724761 
L 147.791139 115.724761 
z
" clip-path="url(#pc37265f046)" style="fill: #44aa99; fill-opacity: 0.6; stroke: #ffffff; stroke-opacity: 0.6; stroke-width: 0.339411"/>
    <path d="M 166.640254 146.121409 
L 170.882895 146.121409 
L 170.882895 141.878768 
L 166.640254 141.878768 
z
" clip-path="url(#pc37265f046)" style="fill: #44aa99; fill-opacity: 0.6; stroke: #ffffff; stroke-opacity: 0.6; stroke-width: 0.339411"/>
    <path d="M 154.111699 118.454173 
L 158.35434 118.454173 
L 158.35434 114.211532 
L 154.111699 114.211532 
z
" clip-path="url(#pc37265f046)" style="fill: #44aa99; fill-opacity: 0.6; stroke: #ffffff; stroke-opacity: 0.6; stroke-width: 0.339411"/>
    <path d="M 137.373372 68.43593 
L 141.616013 68.43593 
L 141.616013 64.193289 
L 137.373372 64.193289 
z
" clip-path="url(#pc37265f046)" style="fill: #44aa99; fill-opacity: 0.6; stroke: #ffffff; stroke-opacity: 0.6; stroke-width: 0.339411"/>
    <path d="M 139.261069 89.160762 
L 143.503709 89.160762 
L 143.503709 84.918121 
L 139.261069 84.918121 
z
" clip-path="url(#pc37265f046)" style="fill: #44aa99; fill-opacity: 0.6; stroke: #ffffff; stroke-opacity: 0.6; stroke-width: 0.339411"/>
    <path d="M 108.914189 24.235025 
L 113.15683 24.235025 
L 113.15683 19.992385 
L 108.914189 19.992385 
z
" clip-path="url(#pc37265f046)" style="fill: #44aa99; fill-opacity: 0.6; stroke: #ffffff; stroke-opacity: 0.6; stroke-width: 0.339411"/>
    <path d="M 159.263158 127.968794 
L 163.505799 127.968794 
L 163.505799 123.726153 
L 159.263158 123.726153 
z
" clip-path="url(#pc37265f046)" style="fill: #44aa99; fill-opacity: 0.6; stroke: #ffffff; stroke-opacity: 0.6; stroke-width: 0.339411"/>
    <path d="M 161.859021 145.729757 
L 166.101662 145.729757 
L 166.101662 141.487116 
L 161.859021 141.487116 
z
" clip-path="url(#pc37265f046)" style="fill: #44aa99; fill-opacity: 0.6; stroke: #ffffff; stroke-opacity: 0.6; stroke-width: 0.339411"/>
    <path d="M 111.984332 25.505843 
L 116.226973 25.505843 
L 116.226973 21.263203 
L 111.984332 21.263203 
z
" clip-path="url(#pc37265f046)" style="fill: #44aa99; fill-opacity: 0.6; stroke: #ffffff; stroke-opacity: 0.6; stroke-width: 0.339411"/>
    <path d="M 144.493175 56.717536 
L 148.735815 56.717536 
L 148.735815 52.474895 
L 144.493175 52.474895 
z
" clip-path="url(#pc37265f046)" style="fill: #44aa99; fill-opacity: 0.6; stroke: #ffffff; stroke-opacity: 0.6; stroke-width: 0.339411"/>
    <path d="M 119.690817 23.911798 
L 123.933457 23.911798 
L 123.933457 19.669158 
L 119.690817 19.669158 
z
" clip-path="url(#pc37265f046)" style="fill: #44aa99; fill-opacity: 0.6; stroke: #ffffff; stroke-opacity: 0.6; stroke-width: 0.339411"/>
    <path d="M 143.036074 72.161358 
L 147.278715 72.161358 
L 147.278715 67.918717 
L 143.036074 67.918717 
z
" clip-path="url(#pc37265f046)" style="fill: #44aa99; fill-opacity: 0.6; stroke: #ffffff; stroke-opacity: 0.6; stroke-width: 0.339411"/>
    <path d="M 113.87588 30.863746 
L 118.118521 30.863746 
L 118.118521 26.621105 
L 113.87588 26.621105 
z
" clip-path="url(#pc37265f046)" style="fill: #44aa99; fill-opacity: 0.6; stroke: #ffffff; stroke-opacity: 0.6; stroke-width: 0.339411"/>
    <path d="M 158.548238 146.270978 
L 162.790878 146.270978 
L 162.790878 142.028337 
L 158.548238 142.028337 
z
" clip-path="url(#pc37265f046)" style="fill: #44aa99; fill-opacity: 0.6; stroke: #ffffff; stroke-opacity: 0.6; stroke-width: 0.339411"/>
    <path d="M 177.013858 139.039133 
L 181.256499 139.039133 
L 181.256499 134.796492 
L 177.013858 134.796492 
z
" clip-path="url(#pc37265f046)" style="fill: #44aa99; fill-opacity: 0.6; stroke: #ffffff; stroke-opacity: 0.6; stroke-width: 0.339411"/>
    <path d="M 112.345193 36.008142 
L 116.587833 36.008142 
L 116.587833 31.765501 
L 112.345193 31.765501 
z
" clip-path="url(#pc37265f046)" style="fill: #44aa99; fill-opacity: 0.6; stroke: #ffffff; stroke-opacity: 0.6; stroke-width: 0.339411"/>
    <path d="M 118.179781 111.890336 
L 122.422421 111.890336 
L 122.422421 107.647695 
L 118.179781 107.647695 
z
" clip-path="url(#pc37265f046)" style="fill: #44aa99; fill-opacity: 0.6; stroke: #ffffff; stroke-opacity: 0.6; stroke-width: 0.339411"/>
    <path d="M 118.868421 36.963252 
L 123.111061 36.963252 
L 123.111061 32.720612 
L 118.868421 32.720612 
z
" clip-path="url(#pc37265f046)" style="fill: #44aa99; fill-opacity: 0.6; stroke: #ffffff; stroke-opacity: 0.6; stroke-width: 0.339411"/>
    <path d="M 154.242306 96.191531 
L 155.302966 95.130871 
L 156.363626 96.191531 
L 157.424287 95.130871 
L 156.363626 94.07021 
L 157.424287 93.00955 
L 156.363626 91.94889 
L 155.302966 93.00955 
L 154.242306 91.94889 
L 153.181646 93.00955 
L 154.242306 94.07021 
L 153.181646 95.130871 
z
" clip-path="url(#pc37265f046)" style="fill: #88ccee; fill-opacity: 0.6; stroke: #ffffff; stroke-opacity: 0.6; stroke-width: 0.339411"/>
    <path d="M 137.370223 152.301418 
L 138.430883 151.240758 
L 139.491543 152.301418 
L 140.552203 151.240758 
L 139.491543 150.180098 
L 140.552203 149.119438 
L 139.491543 148.058777 
L 138.430883 149.119438 
L 137.370223 148.058777 
L 136.309563 149.119438 
L 137.370223 150.180098 
L 136.309563 151.240758 
z
" clip-path="url(#pc37265f046)" style="fill: #88ccee; fill-opacity: 0.6; stroke: #ffffff; stroke-opacity: 0.6; stroke-width: 0.339411"/>
    <path d="M 122.667682 59.213531 
L 123.728342 58.152871 
L 124.789002 59.213531 
L 125.849662 58.152871 
L 124.789002 57.092211 
L 125.849662 56.031551 
L 124.789002 54.970891 
L 123.728342 56.031551 
L 122.667682 54.970891 
L 121.607022 56.031551 
L 122.667682 57.092211 
L 121.607022 58.152871 
z
" clip-path="url(#pc37265f046)" style="fill: #88ccee; fill-opacity: 0.6; stroke: #ffffff; stroke-opacity: 0.6; stroke-width: 0.339411"/>
    <path d="M 134.110283 41.896731 
L 135.170944 40.836071 
L 136.231604 41.896731 
L 137.292264 40.836071 
L 136.231604 39.775411 
L 137.292264 38.714751 
L 136.231604 37.654091 
L 135.170944 38.714751 
L 134.110283 37.654091 
L 133.049623 38.714751 
L 134.110283 39.775411 
L 133.049623 40.836071 
z
" clip-path="url(#pc37265f046)" style="fill: #88ccee; fill-opacity: 0.6; stroke: #ffffff; stroke-opacity: 0.6; stroke-width: 0.339411"/>
    <path d="M 147.325068 70.208104 
L 148.385728 69.147444 
L 149.446388 70.208104 
L 150.507049 69.147444 
L 149.446388 68.086784 
L 150.507049 67.026124 
L 149.446388 65.965464 
L 148.385728 67.026124 
L 147.325068 65.965464 
L 146.264408 67.026124 
L 147.325068 68.086784 
L 146.264408 69.147444 
z
" clip-path="url(#pc37265f046)" style="fill: #88ccee; fill-opacity: 0.6; stroke: #ffffff; stroke-opacity: 0.6; stroke-width: 0.339411"/>
    <path d="M 134.177347 43.55942 
L 135.238007 42.49876 
L 136.298667 43.55942 
L 137.359327 42.49876 
L 136.298667 41.4381 
L 137.359327 40.377439 
L 136.298667 39.316779 
L 135.238007 40.377439 
L 134.177347 39.316779 
L 133.116686 40.377439 
L 134.177347 41.4381 
L 133.116686 42.49876 
z
" clip-path="url(#pc37265f046)" style="fill: #88ccee; fill-opacity: 0.6; stroke: #ffffff; stroke-opacity: 0.6; stroke-width: 0.339411"/>
    <path d="M 134.803781 40.287716 
L 135.864442 39.227056 
L 136.925102 40.287716 
L 137.985762 39.227056 
L 136.925102 38.166396 
L 137.985762 37.105736 
L 136.925102 36.045076 
L 135.864442 37.105736 
L 134.803781 36.045076 
L 133.743121 37.105736 
L 134.803781 38.166396 
L 133.743121 39.227056 
z
" clip-path="url(#pc37265f046)" style="fill: #88ccee; fill-opacity: 0.6; stroke: #ffffff; stroke-opacity: 0.6; stroke-width: 0.339411"/>
    <path d="M 137.884701 65.623325 
L 138.945362 64.562665 
L 140.006022 65.623325 
L 141.066682 64.562665 
L 140.006022 63.502005 
L 141.066682 62.441345 
L 140.006022 61.380685 
L 138.945362 62.441345 
L 137.884701 61.380685 
L 136.824041 62.441345 
L 137.884701 63.502005 
L 136.824041 64.562665 
z
" clip-path="url(#pc37265f046)" style="fill: #88ccee; fill-opacity: 0.6; stroke: #ffffff; stroke-opacity: 0.6; stroke-width: 0.339411"/>
    <path d="M 116.080985 27.914254 
L 117.141645 26.853594 
L 118.202305 27.914254 
L 119.262965 26.853594 
L 118.202305 25.792934 
L 119.262965 24.732274 
L 118.202305 23.671613 
L 117.141645 24.732274 
L 116.080985 23.671613 
L 115.020325 24.732274 
L 116.080985 25.792934 
L 115.020325 26.853594 
z
" clip-path="url(#pc37265f046)" style="fill: #88ccee; fill-opacity: 0.6; stroke: #ffffff; stroke-opacity: 0.6; stroke-width: 0.339411"/>
    <path d="M 176.658962 170.997335 
L 177.719622 169.936675 
L 178.780283 170.997335 
L 179.840943 169.936675 
L 178.780283 168.876015 
L 179.840943 167.815355 
L 178.780283 166.754695 
L 177.719622 167.815355 
L 176.658962 166.754695 
L 175.598302 167.815355 
L 176.658962 168.876015 
L 175.598302 169.936675 
z
" clip-path="url(#pc37265f046)" style="fill: #88ccee; fill-opacity: 0.6; stroke: #ffffff; stroke-opacity: 0.6; stroke-width: 0.339411"/>
    <path d="M 170.985751 176.73671 
L 172.046411 175.67605 
L 173.107071 176.73671 
L 174.167732 175.67605 
L 173.107071 174.615389 
L 174.167732 173.554729 
L 173.107071 172.494069 
L 172.046411 173.554729 
L 170.985751 172.494069 
L 169.925091 173.554729 
L 170.985751 174.615389 
L 169.925091 175.67605 
z
" clip-path="url(#pc37265f046)" style="fill: #88ccee; fill-opacity: 0.6; stroke: #ffffff; stroke-opacity: 0.6; stroke-width: 0.339411"/>
    <path d="M 158.631218 125.987939 
L 159.691878 124.927278 
L 160.752539 125.987939 
L 161.813199 124.927278 
L 160.752539 123.866618 
L 161.813199 122.805958 
L 160.752539 121.745298 
L 159.691878 122.805958 
L 158.631218 121.745298 
L 157.570558 122.805958 
L 158.631218 123.866618 
L 157.570558 124.927278 
z
" clip-path="url(#pc37265f046)" style="fill: #88ccee; fill-opacity: 0.6; stroke: #ffffff; stroke-opacity: 0.6; stroke-width: 0.339411"/>
    <path d="M 137.339724 137.990109 
L 138.400384 136.929448 
L 139.461044 137.990109 
L 140.521704 136.929448 
L 139.461044 135.868788 
L 140.521704 134.808128 
L 139.461044 133.747468 
L 138.400384 134.808128 
L 137.339724 133.747468 
L 136.279063 134.808128 
L 137.339724 135.868788 
L 136.279063 136.929448 
z
" clip-path="url(#pc37265f046)" style="fill: #88ccee; fill-opacity: 0.6; stroke: #ffffff; stroke-opacity: 0.6; stroke-width: 0.339411"/>
    <path d="M 109.880616 33.982485 
L 110.941276 32.921825 
L 112.001936 33.982485 
L 113.062596 32.921825 
L 112.001936 31.861165 
L 113.062596 30.800505 
L 112.001936 29.739844 
L 110.941276 30.800505 
L 109.880616 29.739844 
L 108.819955 30.800505 
L 109.880616 31.861165 
L 108.819955 32.921825 
z
" clip-path="url(#pc37265f046)" style="fill: #88ccee; fill-opacity: 0.6; stroke: #ffffff; stroke-opacity: 0.6; stroke-width: 0.339411"/>
    <path d="M 141.687342 144.82317 
L 142.748003 143.762509 
L 143.808663 144.82317 
L 144.869323 143.762509 
L 143.808663 142.701849 
L 144.869323 141.641189 
L 143.808663 140.580529 
L 142.748003 141.641189 
L 141.687342 140.580529 
L 140.626682 141.641189 
L 141.687342 142.701849 
L 140.626682 143.762509 
z
" clip-path="url(#pc37265f046)" style="fill: #88ccee; fill-opacity: 0.6; stroke: #ffffff; stroke-opacity: 0.6; stroke-width: 0.339411"/>
    <path d="M 172.257419 174.082829 
L 173.318079 173.022168 
L 174.378739 174.082829 
L 175.4394 173.022168 
L 174.378739 171.961508 
L 175.4394 170.900848 
L 174.378739 169.840188 
L 173.318079 170.900848 
L 172.257419 169.840188 
L 171.196759 170.900848 
L 172.257419 171.961508 
L 171.196759 173.022168 
z
" clip-path="url(#pc37265f046)" style="fill: #88ccee; fill-opacity: 0.6; stroke: #ffffff; stroke-opacity: 0.6; stroke-width: 0.339411"/>
    <path d="M 140.741594 150.316368 
L 141.802254 149.255708 
L 142.862915 150.316368 
L 143.923575 149.255708 
L 142.862915 148.195048 
L 143.923575 147.134388 
L 142.862915 146.073728 
L 141.802254 147.134388 
L 140.741594 146.073728 
L 139.680934 147.134388 
L 140.741594 148.195048 
L 139.680934 149.255708 
z
" clip-path="url(#pc37265f046)" style="fill: #88ccee; fill-opacity: 0.6; stroke: #ffffff; stroke-opacity: 0.6; stroke-width: 0.339411"/>
    <path d="M 143.498831 45.017136 
L 144.559491 43.956476 
L 145.620151 45.017136 
L 146.680811 43.956476 
L 145.620151 42.895816 
L 146.680811 41.835156 
L 145.620151 40.774496 
L 144.559491 41.835156 
L 143.498831 40.774496 
L 142.438171 41.835156 
L 143.498831 42.895816 
L 142.438171 43.956476 
z
" clip-path="url(#pc37265f046)" style="fill: #88ccee; fill-opacity: 0.6; stroke: #ffffff; stroke-opacity: 0.6; stroke-width: 0.339411"/>
    <path d="M 148.778494 66.232057 
L 149.839154 65.171397 
L 150.899814 66.232057 
L 151.960475 65.171397 
L 150.899814 64.110737 
L 151.960475 63.050077 
L 150.899814 61.989417 
L 149.839154 63.050077 
L 148.778494 61.989417 
L 147.717834 63.050077 
L 148.778494 64.110737 
L 147.717834 65.171397 
z
" clip-path="url(#pc37265f046)" style="fill: #88ccee; fill-opacity: 0.6; stroke: #ffffff; stroke-opacity: 0.6; stroke-width: 0.339411"/>
    <path d="M 161.029999 137.836565 
L 162.090659 136.775905 
L 163.151319 137.836565 
L 164.211979 136.775905 
L 163.151319 135.715245 
L 164.211979 134.654584 
L 163.151319 133.593924 
L 162.090659 134.654584 
L 161.029999 133.593924 
L 159.969339 134.654584 
L 161.029999 135.715245 
L 159.969339 136.775905 
z
" clip-path="url(#pc37265f046)" style="fill: #88ccee; fill-opacity: 0.6; stroke: #ffffff; stroke-opacity: 0.6; stroke-width: 0.339411"/>
    <path d="M 140.308984 144.126741 
L 141.369644 143.06608 
L 142.430304 144.126741 
L 143.490964 143.06608 
L 142.430304 142.00542 
L 143.490964 140.94476 
L 142.430304 139.8841 
L 141.369644 140.94476 
L 140.308984 139.8841 
L 139.248324 140.94476 
L 140.308984 142.00542 
L 139.248324 143.06608 
z
" clip-path="url(#pc37265f046)" style="fill: #88ccee; fill-opacity: 0.6; stroke: #ffffff; stroke-opacity: 0.6; stroke-width: 0.339411"/>
    <path d="M 170.005293 175.228852 
L 171.065953 174.168191 
L 172.126614 175.228852 
L 173.187274 174.168191 
L 172.126614 173.107531 
L 173.187274 172.046871 
L 172.126614 170.986211 
L 171.065953 172.046871 
L 170.005293 170.986211 
L 168.944633 172.046871 
L 170.005293 173.107531 
L 168.944633 174.168191 
z
" clip-path="url(#pc37265f046)" style="fill: #88ccee; fill-opacity: 0.6; stroke: #ffffff; stroke-opacity: 0.6; stroke-width: 0.339411"/>
    <path d="M 131.693509 45.582339 
L 132.754169 44.521678 
L 133.814829 45.582339 
L 134.875489 44.521678 
L 133.814829 43.461018 
L 134.875489 42.400358 
L 133.814829 41.339698 
L 132.754169 42.400358 
L 131.693509 41.339698 
L 130.632849 42.400358 
L 131.693509 43.461018 
L 130.632849 44.521678 
z
" clip-path="url(#pc37265f046)" style="fill: #88ccee; fill-opacity: 0.6; stroke: #ffffff; stroke-opacity: 0.6; stroke-width: 0.339411"/>
    <path d="M 125.329621 139.003684 
L 126.390281 137.943024 
L 127.450941 139.003684 
L 128.511601 137.943024 
L 127.450941 136.882364 
L 128.511601 135.821704 
L 127.450941 134.761044 
L 126.390281 135.821704 
L 125.329621 134.761044 
L 124.268961 135.821704 
L 125.329621 136.882364 
L 124.268961 137.943024 
z
" clip-path="url(#pc37265f046)" style="fill: #88ccee; fill-opacity: 0.6; stroke: #ffffff; stroke-opacity: 0.6; stroke-width: 0.339411"/>
    <path d="M 155.947594 157.484312 
L 157.008255 156.423652 
L 158.068915 157.484312 
L 159.129575 156.423652 
L 158.068915 155.362992 
L 159.129575 154.302332 
L 158.068915 153.241672 
L 157.008255 154.302332 
L 155.947594 153.241672 
L 154.886934 154.302332 
L 155.947594 155.362992 
L 154.886934 156.423652 
z
" clip-path="url(#pc37265f046)" style="fill: #88ccee; fill-opacity: 0.6; stroke: #ffffff; stroke-opacity: 0.6; stroke-width: 0.339411"/>
    <path d="M 141.660175 152.026041 
L 142.720835 150.965381 
L 143.781495 152.026041 
L 144.842155 150.965381 
L 143.781495 149.904721 
L 144.842155 148.844061 
L 143.781495 147.7834 
L 142.720835 148.844061 
L 141.660175 147.7834 
L 140.599515 148.844061 
L 141.660175 149.904721 
L 140.599515 150.965381 
z
" clip-path="url(#pc37265f046)" style="fill: #88ccee; fill-opacity: 0.6; stroke: #ffffff; stroke-opacity: 0.6; stroke-width: 0.339411"/>
    <path d="M 163.264696 135.283348 
L 164.325356 134.222688 
L 165.386016 135.283348 
L 166.446676 134.222688 
L 165.386016 133.162027 
L 166.446676 132.101367 
L 165.386016 131.040707 
L 164.325356 132.101367 
L 163.264696 131.040707 
L 162.204036 132.101367 
L 163.264696 133.162027 
L 162.204036 134.222688 
z
" clip-path="url(#pc37265f046)" style="fill: #88ccee; fill-opacity: 0.6; stroke: #ffffff; stroke-opacity: 0.6; stroke-width: 0.339411"/>
    <path d="M 162.210973 136.183544 
L 163.271633 135.122884 
L 164.332294 136.183544 
L 165.392954 135.122884 
L 164.332294 134.062223 
L 165.392954 133.001563 
L 164.332294 131.940903 
L 163.271633 133.001563 
L 162.210973 131.940903 
L 161.150313 133.001563 
L 162.210973 134.062223 
L 161.150313 135.122884 
z
" clip-path="url(#pc37265f046)" style="fill: #88ccee; fill-opacity: 0.6; stroke: #ffffff; stroke-opacity: 0.6; stroke-width: 0.339411"/>
    <path d="M 164.567046 175.461239 
L 165.627706 174.400579 
L 166.688366 175.461239 
L 167.749026 174.400579 
L 166.688366 173.339919 
L 167.749026 172.279259 
L 166.688366 171.218599 
L 165.627706 172.279259 
L 164.567046 171.218599 
L 163.506386 172.279259 
L 164.567046 173.339919 
L 163.506386 174.400579 
z
" clip-path="url(#pc37265f046)" style="fill: #88ccee; fill-opacity: 0.6; stroke: #ffffff; stroke-opacity: 0.6; stroke-width: 0.339411"/>
    <path d="M 163.565262 172.947279 
L 164.625922 171.886619 
L 165.686583 172.947279 
L 166.747243 171.886619 
L 165.686583 170.825959 
L 166.747243 169.765298 
L 165.686583 168.704638 
L 164.625922 169.765298 
L 163.565262 168.704638 
L 162.504602 169.765298 
L 163.565262 170.825959 
L 162.504602 171.886619 
z
" clip-path="url(#pc37265f046)" style="fill: #88ccee; fill-opacity: 0.6; stroke: #ffffff; stroke-opacity: 0.6; stroke-width: 0.339411"/>
    <path d="M 149.231021 60.1573 
L 150.291681 59.09664 
L 151.352341 60.1573 
L 152.413002 59.09664 
L 151.352341 58.035979 
L 152.413002 56.975319 
L 151.352341 55.914659 
L 150.291681 56.975319 
L 149.231021 55.914659 
L 148.170361 56.975319 
L 149.231021 58.035979 
L 148.170361 59.09664 
z
" clip-path="url(#pc37265f046)" style="fill: #88ccee; fill-opacity: 0.6; stroke: #ffffff; stroke-opacity: 0.6; stroke-width: 0.339411"/>
    <path d="M 153.485111 129.827671 
L 154.545771 128.767011 
L 155.606431 129.827671 
L 156.667091 128.767011 
L 155.606431 127.706351 
L 156.667091 126.645691 
L 155.606431 125.585031 
L 154.545771 126.645691 
L 153.485111 125.585031 
L 152.424451 126.645691 
L 153.485111 127.706351 
L 152.424451 128.767011 
z
" clip-path="url(#pc37265f046)" style="fill: #88ccee; fill-opacity: 0.6; stroke: #ffffff; stroke-opacity: 0.6; stroke-width: 0.339411"/>
    <path d="M 135.731878 36.525718 
L 136.792538 35.465058 
L 137.853198 36.525718 
L 138.913859 35.465058 
L 137.853198 34.404398 
L 138.913859 33.343738 
L 137.853198 32.283078 
L 136.792538 33.343738 
L 135.731878 32.283078 
L 134.671218 33.343738 
L 135.731878 34.404398 
L 134.671218 35.465058 
z
" clip-path="url(#pc37265f046)" style="fill: #88ccee; fill-opacity: 0.6; stroke: #ffffff; stroke-opacity: 0.6; stroke-width: 0.339411"/>
    <path d="M 200.206166 81.430915 
L 201.266826 80.370255 
L 202.327486 81.430915 
L 203.388146 80.370255 
L 202.327486 79.309594 
L 203.388146 78.248934 
L 202.327486 77.188274 
L 201.266826 78.248934 
L 200.206166 77.188274 
L 199.145505 78.248934 
L 200.206166 79.309594 
L 199.145505 80.370255 
z
" clip-path="url(#pc37265f046)" style="fill: #88ccee; fill-opacity: 0.6; stroke: #ffffff; stroke-opacity: 0.6; stroke-width: 0.339411"/>
    <path d="M 137.427211 145.661393 
L 138.487871 144.600733 
L 139.548531 145.661393 
L 140.609192 144.600733 
L 139.548531 143.540072 
L 140.609192 142.479412 
L 139.548531 141.418752 
L 138.487871 142.479412 
L 137.427211 141.418752 
L 136.366551 142.479412 
L 137.427211 143.540072 
L 136.366551 144.600733 
z
" clip-path="url(#pc37265f046)" style="fill: #88ccee; fill-opacity: 0.6; stroke: #ffffff; stroke-opacity: 0.6; stroke-width: 0.339411"/>
    <path d="M 146.339983 58.546322 
L 147.400643 57.485662 
L 148.461304 58.546322 
L 149.521964 57.485662 
L 148.461304 56.425002 
L 149.521964 55.364342 
L 148.461304 54.303682 
L 147.400643 55.364342 
L 146.339983 54.303682 
L 145.279323 55.364342 
L 146.339983 56.425002 
L 145.279323 57.485662 
z
" clip-path="url(#pc37265f046)" style="fill: #88ccee; fill-opacity: 0.6; stroke: #ffffff; stroke-opacity: 0.6; stroke-width: 0.339411"/>
    <path d="M 137.73965 133.867153 
L 138.80031 132.806493 
L 139.86097 133.867153 
L 140.92163 132.806493 
L 139.86097 131.745833 
L 140.92163 130.685172 
L 139.86097 129.624512 
L 138.80031 130.685172 
L 137.73965 129.624512 
L 136.67899 130.685172 
L 137.73965 131.745833 
L 136.67899 132.806493 
z
" clip-path="url(#pc37265f046)" style="fill: #88ccee; fill-opacity: 0.6; stroke: #ffffff; stroke-opacity: 0.6; stroke-width: 0.339411"/>
    <path d="M 134.1957 33.869308 
L 135.25636 32.808648 
L 136.31702 33.869308 
L 137.37768 32.808648 
L 136.31702 31.747987 
L 137.37768 30.687327 
L 136.31702 29.626667 
L 135.25636 30.687327 
L 134.1957 29.626667 
L 133.13504 30.687327 
L 134.1957 31.747987 
L 133.13504 32.808648 
z
" clip-path="url(#pc37265f046)" style="fill: #88ccee; fill-opacity: 0.6; stroke: #ffffff; stroke-opacity: 0.6; stroke-width: 0.339411"/>
    <path d="M 174.74869 169.77605 
L 175.809351 168.715389 
L 176.870011 169.77605 
L 177.930671 168.715389 
L 176.870011 167.654729 
L 177.930671 166.594069 
L 176.870011 165.533409 
L 175.809351 166.594069 
L 174.74869 165.533409 
L 173.68803 166.594069 
L 174.74869 167.654729 
L 173.68803 168.715389 
z
" clip-path="url(#pc37265f046)" style="fill: #88ccee; fill-opacity: 0.6; stroke: #ffffff; stroke-opacity: 0.6; stroke-width: 0.339411"/>
    <path d="M 171.542207 171.11545 
L 172.602868 170.05479 
L 173.663528 171.11545 
L 174.724188 170.05479 
L 173.663528 168.99413 
L 174.724188 167.93347 
L 173.663528 166.87281 
L 172.602868 167.93347 
L 171.542207 166.87281 
L 170.481547 167.93347 
L 171.542207 168.99413 
L 170.481547 170.05479 
z
" clip-path="url(#pc37265f046)" style="fill: #88ccee; fill-opacity: 0.6; stroke: #ffffff; stroke-opacity: 0.6; stroke-width: 0.339411"/>
    <path d="M 174.585599 165.282344 
L 175.64626 164.221684 
L 176.70692 165.282344 
L 177.76758 164.221684 
L 176.70692 163.161024 
L 177.76758 162.100363 
L 176.70692 161.039703 
L 175.64626 162.100363 
L 174.585599 161.039703 
L 173.524939 162.100363 
L 174.585599 163.161024 
L 173.524939 164.221684 
z
" clip-path="url(#pc37265f046)" style="fill: #88ccee; fill-opacity: 0.6; stroke: #ffffff; stroke-opacity: 0.6; stroke-width: 0.339411"/>
    <path d="M 140.691287 48.502678 
L 141.751947 47.442017 
L 142.812607 48.502678 
L 143.873267 47.442017 
L 142.812607 46.381357 
L 143.873267 45.320697 
L 142.812607 44.260037 
L 141.751947 45.320697 
L 140.691287 44.260037 
L 139.630627 45.320697 
L 140.691287 46.381357 
L 139.630627 47.442017 
z
" clip-path="url(#pc37265f046)" style="fill: #88ccee; fill-opacity: 0.6; stroke: #ffffff; stroke-opacity: 0.6; stroke-width: 0.339411"/>
    <path d="M 132.921288 55.154972 
L 133.981948 54.094312 
L 135.042608 55.154972 
L 136.103268 54.094312 
L 135.042608 53.033651 
L 136.103268 51.972991 
L 135.042608 50.912331 
L 133.981948 51.972991 
L 132.921288 50.912331 
L 131.860628 51.972991 
L 132.921288 53.033651 
L 131.860628 54.094312 
z
" clip-path="url(#pc37265f046)" style="fill: #88ccee; fill-opacity: 0.6; stroke: #ffffff; stroke-opacity: 0.6; stroke-width: 0.339411"/>
    <path d="M 169.602965 170.788571 
L 170.663625 169.727911 
L 171.724286 170.788571 
L 172.784946 169.727911 
L 171.724286 168.66725 
L 172.784946 167.60659 
L 171.724286 166.54593 
L 170.663625 167.60659 
L 169.602965 166.54593 
L 168.542305 167.60659 
L 169.602965 168.66725 
L 168.542305 169.727911 
z
" clip-path="url(#pc37265f046)" style="fill: #88ccee; fill-opacity: 0.6; stroke: #ffffff; stroke-opacity: 0.6; stroke-width: 0.339411"/>
    <path d="M 131.612942 50.774201 
L 132.673602 49.713541 
L 133.734262 50.774201 
L 134.794922 49.713541 
L 133.734262 48.65288 
L 134.794922 47.59222 
L 133.734262 46.53156 
L 132.673602 47.59222 
L 131.612942 46.53156 
L 130.552282 47.59222 
L 131.612942 48.65288 
L 130.552282 49.713541 
z
" clip-path="url(#pc37265f046)" style="fill: #88ccee; fill-opacity: 0.6; stroke: #ffffff; stroke-opacity: 0.6; stroke-width: 0.339411"/>
    <path d="M 139.654383 31.911963 
L 140.715043 30.851303 
L 141.775703 31.911963 
L 142.836363 30.851303 
L 141.775703 29.790643 
L 142.836363 28.729983 
L 141.775703 27.669323 
L 140.715043 28.729983 
L 139.654383 27.669323 
L 138.593723 28.729983 
L 139.654383 29.790643 
L 138.593723 30.851303 
z
" clip-path="url(#pc37265f046)" style="fill: #88ccee; fill-opacity: 0.6; stroke: #ffffff; stroke-opacity: 0.6; stroke-width: 0.339411"/>
    <path d="M 134.67625 125.601762 
L 135.73691 124.541102 
L 136.79757 125.601762 
L 137.858231 124.541102 
L 136.79757 123.480441 
L 137.858231 122.419781 
L 136.79757 121.359121 
L 135.73691 122.419781 
L 134.67625 121.359121 
L 133.61559 122.419781 
L 134.67625 123.480441 
L 133.61559 124.541102 
z
" clip-path="url(#pc37265f046)" style="fill: #88ccee; fill-opacity: 0.6; stroke: #ffffff; stroke-opacity: 0.6; stroke-width: 0.339411"/>
    <path d="M 146.4763 147.675052 
L 147.536961 146.614392 
L 148.597621 147.675052 
L 149.658281 146.614392 
L 148.597621 145.553732 
L 149.658281 144.493071 
L 148.597621 143.432411 
L 147.536961 144.493071 
L 146.4763 143.432411 
L 145.41564 144.493071 
L 146.4763 145.553732 
L 145.41564 146.614392 
z
" clip-path="url(#pc37265f046)" style="fill: #88ccee; fill-opacity: 0.6; stroke: #ffffff; stroke-opacity: 0.6; stroke-width: 0.339411"/>
    <path d="M 135.631697 34.264704 
L 136.692357 33.204044 
L 137.753017 34.264704 
L 138.813677 33.204044 
L 137.753017 32.143384 
L 138.813677 31.082723 
L 137.753017 30.022063 
L 136.692357 31.082723 
L 135.631697 30.022063 
L 134.571037 31.082723 
L 135.631697 32.143384 
L 134.571037 33.204044 
z
" clip-path="url(#pc37265f046)" style="fill: #88ccee; fill-opacity: 0.6; stroke: #ffffff; stroke-opacity: 0.6; stroke-width: 0.339411"/>
    <path d="M 124.661074 42.989482 
L 125.721734 41.928822 
L 126.782394 42.989482 
L 127.843054 41.928822 
L 126.782394 40.868162 
L 127.843054 39.807502 
L 126.782394 38.746842 
L 125.721734 39.807502 
L 124.661074 38.746842 
L 123.600414 39.807502 
L 124.661074 40.868162 
L 123.600414 41.928822 
z
" clip-path="url(#pc37265f046)" style="fill: #88ccee; fill-opacity: 0.6; stroke: #ffffff; stroke-opacity: 0.6; stroke-width: 0.339411"/>
    <path d="M 164.683737 169.134502 
L 165.744398 168.073841 
L 166.805058 169.134502 
L 167.865718 168.073841 
L 166.805058 167.013181 
L 167.865718 165.952521 
L 166.805058 164.891861 
L 165.744398 165.952521 
L 164.683737 164.891861 
L 163.623077 165.952521 
L 164.683737 167.013181 
L 163.623077 168.073841 
z
" clip-path="url(#pc37265f046)" style="fill: #88ccee; fill-opacity: 0.6; stroke: #ffffff; stroke-opacity: 0.6; stroke-width: 0.339411"/>
    <path d="M 138.920464 135.247948 
L 139.981124 134.187288 
L 141.041785 135.247948 
L 142.102445 134.187288 
L 141.041785 133.126627 
L 142.102445 132.065967 
L 141.041785 131.005307 
L 139.981124 132.065967 
L 138.920464 131.005307 
L 137.859804 132.065967 
L 138.920464 133.126627 
L 137.859804 134.187288 
z
" clip-path="url(#pc37265f046)" style="fill: #88ccee; fill-opacity: 0.6; stroke: #ffffff; stroke-opacity: 0.6; stroke-width: 0.339411"/>
    <path d="M 159.191874 139.921335 
L 160.252534 138.860675 
L 161.313194 139.921335 
L 162.373854 138.860675 
L 161.313194 137.800015 
L 162.373854 136.739355 
L 161.313194 135.678694 
L 160.252534 136.739355 
L 159.191874 135.678694 
L 158.131213 136.739355 
L 159.191874 137.800015 
L 158.131213 138.860675 
z
" clip-path="url(#pc37265f046)" style="fill: #88ccee; fill-opacity: 0.6; stroke: #ffffff; stroke-opacity: 0.6; stroke-width: 0.339411"/>
    <path d="M 138.816495 52.051009 
L 139.877155 50.990349 
L 140.937815 52.051009 
L 141.998475 50.990349 
L 140.937815 49.929689 
L 141.998475 48.869028 
L 140.937815 47.808368 
L 139.877155 48.869028 
L 138.816495 47.808368 
L 137.755835 48.869028 
L 138.816495 49.929689 
L 137.755835 50.990349 
z
" clip-path="url(#pc37265f046)" style="fill: #88ccee; fill-opacity: 0.6; stroke: #ffffff; stroke-opacity: 0.6; stroke-width: 0.339411"/>
    <path d="M 167.213341 179.193805 
L 168.274001 178.133145 
L 169.334662 179.193805 
L 170.395322 178.133145 
L 169.334662 177.072485 
L 170.395322 176.011824 
L 169.334662 174.951164 
L 168.274001 176.011824 
L 167.213341 174.951164 
L 166.152681 176.011824 
L 167.213341 177.072485 
L 166.152681 178.133145 
z
" clip-path="url(#pc37265f046)" style="fill: #88ccee; fill-opacity: 0.6; stroke: #ffffff; stroke-opacity: 0.6; stroke-width: 0.339411"/>
    <path d="M 182.939445 132.643356 
L 184.000105 131.582696 
L 185.060765 132.643356 
L 186.121425 131.582696 
L 185.060765 130.522036 
L 186.121425 129.461376 
L 185.060765 128.400716 
L 184.000105 129.461376 
L 182.939445 128.400716 
L 181.878785 129.461376 
L 182.939445 130.522036 
L 181.878785 131.582696 
z
" clip-path="url(#pc37265f046)" style="fill: #88ccee; fill-opacity: 0.6; stroke: #ffffff; stroke-opacity: 0.6; stroke-width: 0.339411"/>
    <path d="M 144.169332 55.14112 
L 145.229992 54.08046 
L 146.290652 55.14112 
L 147.351312 54.08046 
L 146.290652 53.019799 
L 147.351312 51.959139 
L 146.290652 50.898479 
L 145.229992 51.959139 
L 144.169332 50.898479 
L 143.108672 51.959139 
L 144.169332 53.019799 
L 143.108672 54.08046 
z
" clip-path="url(#pc37265f046)" style="fill: #88ccee; fill-opacity: 0.6; stroke: #ffffff; stroke-opacity: 0.6; stroke-width: 0.339411"/>
    <path d="M 141.090523 33.4243 
L 142.151183 32.36364 
L 143.211843 33.4243 
L 144.272503 32.36364 
L 143.211843 31.30298 
L 144.272503 30.24232 
L 143.211843 29.181659 
L 142.151183 30.24232 
L 141.090523 29.181659 
L 140.029862 30.24232 
L 141.090523 31.30298 
L 140.029862 32.36364 
z
" clip-path="url(#pc37265f046)" style="fill: #88ccee; fill-opacity: 0.6; stroke: #ffffff; stroke-opacity: 0.6; stroke-width: 0.339411"/>
    <path d="M 138.239426 33.338507 
L 139.300086 32.277847 
L 140.360746 33.338507 
L 141.421407 32.277847 
L 140.360746 31.217187 
L 141.421407 30.156527 
L 140.360746 29.095866 
L 139.300086 30.156527 
L 138.239426 29.095866 
L 137.178766 30.156527 
L 138.239426 31.217187 
L 137.178766 32.277847 
z
" clip-path="url(#pc37265f046)" style="fill: #88ccee; fill-opacity: 0.6; stroke: #ffffff; stroke-opacity: 0.6; stroke-width: 0.339411"/>
    <path d="M 120.566484 41.111496 
L 121.627144 40.050836 
L 122.687804 41.111496 
L 123.748464 40.050836 
L 122.687804 38.990175 
L 123.748464 37.929515 
L 122.687804 36.868855 
L 121.627144 37.929515 
L 120.566484 36.868855 
L 119.505824 37.929515 
L 120.566484 38.990175 
L 119.505824 40.050836 
z
" clip-path="url(#pc37265f046)" style="fill: #88ccee; fill-opacity: 0.6; stroke: #ffffff; stroke-opacity: 0.6; stroke-width: 0.339411"/>
    <path d="M 166.417454 177.576395 
L 167.478114 176.515735 
L 168.538774 177.576395 
L 169.599435 176.515735 
L 168.538774 175.455075 
L 169.599435 174.394414 
L 168.538774 173.333754 
L 167.478114 174.394414 
L 166.417454 173.333754 
L 165.356794 174.394414 
L 166.417454 175.455075 
L 165.356794 176.515735 
z
" clip-path="url(#pc37265f046)" style="fill: #88ccee; fill-opacity: 0.6; stroke: #ffffff; stroke-opacity: 0.6; stroke-width: 0.339411"/>
    <path d="M 166.847765 177.290331 
L 167.908426 176.229671 
L 168.969086 177.290331 
L 170.029746 176.229671 
L 168.969086 175.16901 
L 170.029746 174.10835 
L 168.969086 173.04769 
L 167.908426 174.10835 
L 166.847765 173.04769 
L 165.787105 174.10835 
L 166.847765 175.16901 
L 165.787105 176.229671 
z
" clip-path="url(#pc37265f046)" style="fill: #88ccee; fill-opacity: 0.6; stroke: #ffffff; stroke-opacity: 0.6; stroke-width: 0.339411"/>
    <path d="M 151.646004 156.726333 
L 152.706664 155.665673 
L 153.767325 156.726333 
L 154.827985 155.665673 
L 153.767325 154.605013 
L 154.827985 153.544352 
L 153.767325 152.483692 
L 152.706664 153.544352 
L 151.646004 152.483692 
L 150.585344 153.544352 
L 151.646004 154.605013 
L 150.585344 155.665673 
z
" clip-path="url(#pc37265f046)" style="fill: #88ccee; fill-opacity: 0.6; stroke: #ffffff; stroke-opacity: 0.6; stroke-width: 0.339411"/>
    <path d="M 157.420441 152.937047 
L 158.481101 151.876387 
L 159.541761 152.937047 
L 160.602421 151.876387 
L 159.541761 150.815726 
L 160.602421 149.755066 
L 159.541761 148.694406 
L 158.481101 149.755066 
L 157.420441 148.694406 
L 156.35978 149.755066 
L 157.420441 150.815726 
L 156.35978 151.876387 
z
" clip-path="url(#pc37265f046)" style="fill: #88ccee; fill-opacity: 0.6; stroke: #ffffff; stroke-opacity: 0.6; stroke-width: 0.339411"/>
   </g>
   <g id="matplotlib.axis_1">
    <g id="xtick_1">
     <g id="line2d_1">
      <defs>
       <path id="me29e14bf6e" d="M 0 0 
L 0 8 
" style="stroke: #000000"/>
      </defs>
      <g>
       <use xlink:href="#me29e14bf6e" x="81.275546" y="192.727559" style="stroke: #000000"/>
      </g>
     </g>
     <g id="text_1">
      <!-- 0 -->
      <g transform="translate(77.458046 213.345684) scale(0.12 -0.12)">
       <defs>
        <path id="DejaVuSans-30" d="M 2034 4250 
Q 1547 4250 1301 3770 
Q 1056 3291 1056 2328 
Q 1056 1369 1301 889 
Q 1547 409 2034 409 
Q 2525 409 2770 889 
Q 3016 1369 3016 2328 
Q 3016 3291 2770 3770 
Q 2525 4250 2034 4250 
z
M 2034 4750 
Q 2819 4750 3233 4129 
Q 3647 3509 3647 2328 
Q 3647 1150 3233 529 
Q 2819 -91 2034 -91 
Q 1250 -91 836 529 
Q 422 1150 422 2328 
Q 422 3509 836 4129 
Q 1250 4750 2034 4750 
z
" transform="scale(0.015625)"/>
       </defs>
       <use xlink:href="#DejaVuSans-30"/>
      </g>
     </g>
    </g>
    <g id="xtick_2">
     <g id="line2d_2">
      <g>
       <use xlink:href="#me29e14bf6e" x="200.91974" y="192.727559" style="stroke: #000000"/>
      </g>
     </g>
     <g id="text_2">
      <!-- 10 -->
      <g transform="translate(193.28474 213.345684) scale(0.12 -0.12)">
       <defs>
        <path id="DejaVuSans-31" d="M 794 531 
L 1825 531 
L 1825 4091 
L 703 3866 
L 703 4441 
L 1819 4666 
L 2450 4666 
L 2450 531 
L 3481 531 
L 3481 0 
L 794 0 
L 794 531 
z
" transform="scale(0.015625)"/>
       </defs>
       <use xlink:href="#DejaVuSans-31"/>
       <use xlink:href="#DejaVuSans-30" x="63.623047"/>
      </g>
     </g>
    </g>
    <g id="text_3">
     <!-- UMAP 1 -->
     <g transform="translate(119.332842 228.959434) scale(0.12 -0.12)">
      <defs>
       <path id="DejaVuSans-55" d="M 556 4666 
L 1191 4666 
L 1191 1831 
Q 1191 1081 1462 751 
Q 1734 422 2344 422 
Q 2950 422 3222 751 
Q 3494 1081 3494 1831 
L 3494 4666 
L 4128 4666 
L 4128 1753 
Q 4128 841 3676 375 
Q 3225 -91 2344 -91 
Q 1459 -91 1007 375 
Q 556 841 556 1753 
L 556 4666 
z
" transform="scale(0.015625)"/>
       <path id="DejaVuSans-4d" d="M 628 4666 
L 1569 4666 
L 2759 1491 
L 3956 4666 
L 4897 4666 
L 4897 0 
L 4281 0 
L 4281 4097 
L 3078 897 
L 2444 897 
L 1241 4097 
L 1241 0 
L 628 0 
L 628 4666 
z
" transform="scale(0.015625)"/>
       <path id="DejaVuSans-41" d="M 2188 4044 
L 1331 1722 
L 3047 1722 
L 2188 4044 
z
M 1831 4666 
L 2547 4666 
L 4325 0 
L 3669 0 
L 3244 1197 
L 1141 1197 
L 716 0 
L 50 0 
L 1831 4666 
z
" transform="scale(0.015625)"/>
       <path id="DejaVuSans-50" d="M 1259 4147 
L 1259 2394 
L 2053 2394 
Q 2494 2394 2734 2622 
Q 2975 2850 2975 3272 
Q 2975 3691 2734 3919 
Q 2494 4147 2053 4147 
L 1259 4147 
z
M 628 4666 
L 2053 4666 
Q 2838 4666 3239 4311 
Q 3641 3956 3641 3272 
Q 3641 2581 3239 2228 
Q 2838 1875 2053 1875 
L 1259 1875 
L 1259 0 
L 628 0 
L 628 4666 
z
" transform="scale(0.015625)"/>
       <path id="DejaVuSans-20" transform="scale(0.015625)"/>
      </defs>
      <use xlink:href="#DejaVuSans-55"/>
      <use xlink:href="#DejaVuSans-4d" x="73.193359"/>
      <use xlink:href="#DejaVuSans-41" x="159.472656"/>
      <use xlink:href="#DejaVuSans-50" x="227.880859"/>
      <use xlink:href="#DejaVuSans-20" x="288.183594"/>
      <use xlink:href="#DejaVuSans-31" x="319.970703"/>
     </g>
    </g>
   </g>
   <g id="matplotlib.axis_2">
    <g id="ytick_1">
     <g id="line2d_3">
      <defs>
       <path id="mb46e3ed9f2" d="M 0 0 
L -8 0 
" style="stroke: #000000"/>
      </defs>
      <g>
       <use xlink:href="#mb46e3ed9f2" x="49.58375" y="161.035764" style="stroke: #000000"/>
      </g>
     </g>
     <g id="text_4">
      <!-- 0 -->
      <g transform="translate(30.44875 165.594826) scale(0.12 -0.12)">
       <use xlink:href="#DejaVuSans-30"/>
      </g>
     </g>
    </g>
    <g id="ytick_2">
     <g id="line2d_4">
      <g>
       <use xlink:href="#mb46e3ed9f2" x="49.58375" y="41.391569" style="stroke: #000000"/>
      </g>
     </g>
     <g id="text_5">
      <!-- 10 -->
      <g transform="translate(22.81375 45.950631) scale(0.12 -0.12)">
       <use xlink:href="#DejaVuSans-31"/>
       <use xlink:href="#DejaVuSans-30" x="63.623047"/>
      </g>
     </g>
    </g>
    <g id="text_6">
     <!-- UMAP 2 -->
     <g transform="translate(16.318125 122.978467) rotate(-90) scale(0.12 -0.12)">
      <defs>
       <path id="DejaVuSans-32" d="M 1228 531 
L 3431 531 
L 3431 0 
L 469 0 
L 469 531 
Q 828 903 1448 1529 
Q 2069 2156 2228 2338 
Q 2531 2678 2651 2914 
Q 2772 3150 2772 3378 
Q 2772 3750 2511 3984 
Q 2250 4219 1831 4219 
Q 1534 4219 1204 4116 
Q 875 4013 500 3803 
L 500 4441 
Q 881 4594 1212 4672 
Q 1544 4750 1819 4750 
Q 2544 4750 2975 4387 
Q 3406 4025 3406 3419 
Q 3406 3131 3298 2873 
Q 3191 2616 2906 2266 
Q 2828 2175 2409 1742 
Q 1991 1309 1228 531 
z
" transform="scale(0.015625)"/>
      </defs>
      <use xlink:href="#DejaVuSans-55"/>
      <use xlink:href="#DejaVuSans-4d" x="73.193359"/>
      <use xlink:href="#DejaVuSans-41" x="159.472656"/>
      <use xlink:href="#DejaVuSans-50" x="227.880859"/>
      <use xlink:href="#DejaVuSans-20" x="288.183594"/>
      <use xlink:href="#DejaVuSans-32" x="319.970703"/>
     </g>
    </g>
   </g>
   <g id="patch_3">
    <path d="M 49.58375 192.727559 
L 49.58375 7.2 
" style="fill: none; stroke: #000000; stroke-width: 2; stroke-linejoin: miter; stroke-linecap: square"/>
   </g>
   <g id="patch_4">
    <path d="M 49.58375 192.727559 
L 235.111309 192.727559 
" style="fill: none; stroke: #000000; stroke-width: 2; stroke-linejoin: miter; stroke-linecap: square"/>
   </g>
  </g>
 </g>
 <defs>
  <clipPath id="pc37265f046">
   <rect x="49.58375" y="7.2" width="185.527559" height="185.527559"/>
  </clipPath>
 </defs>
</svg>
