<?xml version="1.0" encoding="utf-8" standalone="no"?>
<!DOCTYPE svg PUBLIC "-//W3C//DTD SVG 1.1//EN"
  "http://www.w3.org/Graphics/SVG/1.1/DTD/svg11.dtd">
<svg xmlns:xlink="http://www.w3.org/1999/xlink" width="234.676309pt" height="238.655059pt" viewBox="0 0 234.676309 238.655059" xmlns="http://www.w3.org/2000/svg" version="1.1">
 <metadata>
  <rdf:RDF xmlns:dc="http://purl.org/dc/elements/1.1/" xmlns:cc="http://creativecommons.org/ns#" xmlns:rdf="http://www.w3.org/1999/02/22-rdf-syntax-ns#">
   <cc:Work>
    <dc:type rdf:resource="http://purl.org/dc/dcmitype/StillImage"/>
    <dc:date>2025-08-27T10:55:31.297248</dc:date>
    <dc:format>image/svg+xml</dc:format>
    <dc:creator>
     <cc:Agent>
      <dc:title>Matplotlib v3.6.2, https://matplotlib.org/</dc:title>
     </cc:Agent>
    </dc:creator>
   </cc:Work>
  </rdf:RDF>
 </metadata>
 <defs>
  <style type="text/css">*{stroke-linejoin: round; stroke-linecap: butt}</style>
 </defs>
 <g id="figure_1">
  <g id="patch_1">
   <path d="M 0 238.655059 
L 234.676309 238.655059 
L 234.676309 0 
L 0 0 
L 0 238.655059 
z
" style="fill: none"/>
  </g>
  <g id="axes_1">
   <g id="patch_2">
    <path d="M 41.94875 192.727559 
L 227.476309 192.727559 
L 227.476309 7.2 
L 41.94875 7.2 
L 41.94875 192.727559 
z
" style="fill: none"/>
   </g>
   <g id="PathCollection_1">
    <path d="M 204.486798 77.138657 
L 206.286798 74.138657 
L 204.486798 71.138657 
L 202.686798 74.138657 
z
" clip-path="url(#p129dde9f25)" style="fill: #332288; fill-opacity: 0.6; stroke: #ffffff; stroke-opacity: 0.6; stroke-width: 0.339411"/>
    <path d="M 175.716587 108.548034 
L 177.516587 105.548034 
L 175.716587 102.548034 
L 173.916587 105.548034 
z
" clip-path="url(#p129dde9f25)" style="fill: #332288; fill-opacity: 0.6; stroke: #ffffff; stroke-opacity: 0.6; stroke-width: 0.339411"/>
    <path d="M 193.000817 72.549175 
L 194.800817 69.549175 
L 193.000817 66.549175 
L 191.200817 69.549175 
z
" clip-path="url(#p129dde9f25)" style="fill: #332288; fill-opacity: 0.6; stroke: #ffffff; stroke-opacity: 0.6; stroke-width: 0.339411"/>
    <path d="M 203.09593 123.403466 
L 204.89593 120.403466 
L 203.09593 117.403466 
L 201.29593 120.403466 
z
" clip-path="url(#p129dde9f25)" style="fill: #332288; fill-opacity: 0.6; stroke: #ffffff; stroke-opacity: 0.6; stroke-width: 0.339411"/>
    <path d="M 186.907892 121.018509 
L 188.707892 118.018509 
L 186.907892 115.018509 
L 185.107892 118.018509 
z
" clip-path="url(#p129dde9f25)" style="fill: #332288; fill-opacity: 0.6; stroke: #ffffff; stroke-opacity: 0.6; stroke-width: 0.339411"/>
    <path d="M 125.284869 97.868017 
L 127.084869 94.868017 
L 125.284869 91.868017 
L 123.484869 94.868017 
z
" clip-path="url(#p129dde9f25)" style="fill: #332288; fill-opacity: 0.6; stroke: #ffffff; stroke-opacity: 0.6; stroke-width: 0.339411"/>
    <path d="M 201.103916 77.356435 
L 202.903916 74.356435 
L 201.103916 71.356435 
L 199.303916 74.356435 
z
" clip-path="url(#p129dde9f25)" style="fill: #332288; fill-opacity: 0.6; stroke: #ffffff; stroke-opacity: 0.6; stroke-width: 0.339411"/>
    <path d="M 204.101296 121.285386 
L 205.901296 118.285386 
L 204.101296 115.285386 
L 202.301296 118.285386 
z
" clip-path="url(#p129dde9f25)" style="fill: #332288; fill-opacity: 0.6; stroke: #ffffff; stroke-opacity: 0.6; stroke-width: 0.339411"/>
    <path d="M 189.765236 69.064686 
L 191.565236 66.064686 
L 189.765236 63.064686 
L 187.965236 66.064686 
z
" clip-path="url(#p129dde9f25)" style="fill: #332288; fill-opacity: 0.6; stroke: #ffffff; stroke-opacity: 0.6; stroke-width: 0.339411"/>
    <path d="M 205.810843 120.530986 
L 207.610843 117.530986 
L 205.810843 114.530986 
L 204.010843 117.530986 
z
" clip-path="url(#p129dde9f25)" style="fill: #332288; fill-opacity: 0.6; stroke: #ffffff; stroke-opacity: 0.6; stroke-width: 0.339411"/>
    <path d="M 199.726775 90.634494 
L 201.526775 87.634494 
L 199.726775 84.634494 
L 197.926775 87.634494 
z
" clip-path="url(#p129dde9f25)" style="fill: #332288; fill-opacity: 0.6; stroke: #ffffff; stroke-opacity: 0.6; stroke-width: 0.339411"/>
    <path d="M 197.017017 107.333046 
L 198.817017 104.333046 
L 197.017017 101.333046 
L 195.217017 104.333046 
z
" clip-path="url(#p129dde9f25)" style="fill: #332288; fill-opacity: 0.6; stroke: #ffffff; stroke-opacity: 0.6; stroke-width: 0.339411"/>
    <path d="M 198.272872 110.668095 
L 200.072872 107.668095 
L 198.272872 104.668095 
L 196.472872 107.668095 
z
" clip-path="url(#p129dde9f25)" style="fill: #332288; fill-opacity: 0.6; stroke: #ffffff; stroke-opacity: 0.6; stroke-width: 0.339411"/>
    <path d="M 199.294333 109.065103 
L 201.094333 106.065103 
L 199.294333 103.065103 
L 197.494333 106.065103 
z
" clip-path="url(#p129dde9f25)" style="fill: #332288; fill-opacity: 0.6; stroke: #ffffff; stroke-opacity: 0.6; stroke-width: 0.339411"/>
    <path d="M 197.887262 64.534718 
L 199.687262 61.534718 
L 197.887262 58.534718 
L 196.087262 61.534718 
z
" clip-path="url(#p129dde9f25)" style="fill: #332288; fill-opacity: 0.6; stroke: #ffffff; stroke-opacity: 0.6; stroke-width: 0.339411"/>
    <path d="M 199.839333 63.196855 
L 201.639333 60.196855 
L 199.839333 57.196855 
L 198.039333 60.196855 
z
" clip-path="url(#p129dde9f25)" style="fill: #332288; fill-opacity: 0.6; stroke: #ffffff; stroke-opacity: 0.6; stroke-width: 0.339411"/>
    <path d="M 191.423746 114.965106 
L 193.223746 111.965106 
L 191.423746 108.965106 
L 189.623746 111.965106 
z
" clip-path="url(#p129dde9f25)" style="fill: #332288; fill-opacity: 0.6; stroke: #ffffff; stroke-opacity: 0.6; stroke-width: 0.339411"/>
    <path d="M 125.562395 90.135227 
L 127.362395 87.135227 
L 125.562395 84.135227 
L 123.762395 87.135227 
z
" clip-path="url(#p129dde9f25)" style="fill: #332288; fill-opacity: 0.6; stroke: #ffffff; stroke-opacity: 0.6; stroke-width: 0.339411"/>
    <path d="M 208.835502 113.391908 
L 210.635502 110.391908 
L 208.835502 107.391908 
L 207.035502 110.391908 
z
" clip-path="url(#p129dde9f25)" style="fill: #332288; fill-opacity: 0.6; stroke: #ffffff; stroke-opacity: 0.6; stroke-width: 0.339411"/>
    <path d="M 196.305588 114.176386 
L 198.105588 111.176386 
L 196.305588 108.176386 
L 194.505588 111.176386 
z
" clip-path="url(#p129dde9f25)" style="fill: #332288; fill-opacity: 0.6; stroke: #ffffff; stroke-opacity: 0.6; stroke-width: 0.339411"/>
    <path d="M 120.73935 90.291574 
L 122.53935 87.291574 
L 120.73935 84.291574 
L 118.93935 87.291574 
z
" clip-path="url(#p129dde9f25)" style="fill: #332288; fill-opacity: 0.6; stroke: #ffffff; stroke-opacity: 0.6; stroke-width: 0.339411"/>
    <path d="M 206.27102 116.353401 
L 208.07102 113.353401 
L 206.27102 110.353401 
L 204.47102 113.353401 
z
" clip-path="url(#p129dde9f25)" style="fill: #332288; fill-opacity: 0.6; stroke: #ffffff; stroke-opacity: 0.6; stroke-width: 0.339411"/>
    <path d="M 191.636898 112.485327 
L 193.436898 109.485327 
L 191.636898 106.485327 
L 189.836898 109.485327 
z
" clip-path="url(#p129dde9f25)" style="fill: #332288; fill-opacity: 0.6; stroke: #ffffff; stroke-opacity: 0.6; stroke-width: 0.339411"/>
    <path d="M 210.795373 85.937165 
L 212.595373 82.937165 
L 210.795373 79.937165 
L 208.995373 82.937165 
z
" clip-path="url(#p129dde9f25)" style="fill: #332288; fill-opacity: 0.6; stroke: #ffffff; stroke-opacity: 0.6; stroke-width: 0.339411"/>
    <path d="M 187.581136 68.262414 
L 189.381136 65.262414 
L 187.581136 62.262414 
L 185.781136 65.262414 
z
" clip-path="url(#p129dde9f25)" style="fill: #332288; fill-opacity: 0.6; stroke: #ffffff; stroke-opacity: 0.6; stroke-width: 0.339411"/>
    <path d="M 126.623914 88.616398 
L 128.423914 85.616398 
L 126.623914 82.616398 
L 124.823914 85.616398 
z
" clip-path="url(#p129dde9f25)" style="fill: #332288; fill-opacity: 0.6; stroke: #ffffff; stroke-opacity: 0.6; stroke-width: 0.339411"/>
    <path d="M 202.948805 81.126014 
L 204.748805 78.126014 
L 202.948805 75.126014 
L 201.148805 78.126014 
z
" clip-path="url(#p129dde9f25)" style="fill: #332288; fill-opacity: 0.6; stroke: #ffffff; stroke-opacity: 0.6; stroke-width: 0.339411"/>
    <path d="M 194.644239 63.82606 
L 196.444239 60.82606 
L 194.644239 57.82606 
L 192.844239 60.82606 
z
" clip-path="url(#p129dde9f25)" style="fill: #332288; fill-opacity: 0.6; stroke: #ffffff; stroke-opacity: 0.6; stroke-width: 0.339411"/>
    <path d="M 201.895742 70.333632 
L 203.695742 67.333632 
L 201.895742 64.333632 
L 200.095742 67.333632 
z
" clip-path="url(#p129dde9f25)" style="fill: #332288; fill-opacity: 0.6; stroke: #ffffff; stroke-opacity: 0.6; stroke-width: 0.339411"/>
    <path d="M 124.326402 91.321633 
L 126.126402 88.321633 
L 124.326402 85.321633 
L 122.526402 88.321633 
z
" clip-path="url(#p129dde9f25)" style="fill: #332288; fill-opacity: 0.6; stroke: #ffffff; stroke-opacity: 0.6; stroke-width: 0.339411"/>
    <path d="M 189.296178 87.169823 
L 191.096178 84.169823 
L 189.296178 81.169823 
L 187.496178 84.169823 
z
" clip-path="url(#p129dde9f25)" style="fill: #332288; fill-opacity: 0.6; stroke: #ffffff; stroke-opacity: 0.6; stroke-width: 0.339411"/>
    <path d="M 199.743882 82.444765 
L 201.543882 79.444765 
L 199.743882 76.444765 
L 197.943882 79.444765 
z
" clip-path="url(#p129dde9f25)" style="fill: #332288; fill-opacity: 0.6; stroke: #ffffff; stroke-opacity: 0.6; stroke-width: 0.339411"/>
    <path d="M 140.923577 181.19272 
L 142.723577 178.19272 
L 140.923577 175.19272 
L 139.123577 178.19272 
z
" clip-path="url(#p129dde9f25)" style="fill: #332288; fill-opacity: 0.6; stroke: #ffffff; stroke-opacity: 0.6; stroke-width: 0.339411"/>
    <path d="M 208.045689 82.89205 
L 209.845689 79.89205 
L 208.045689 76.89205 
L 206.245689 79.89205 
z
" clip-path="url(#p129dde9f25)" style="fill: #332288; fill-opacity: 0.6; stroke: #ffffff; stroke-opacity: 0.6; stroke-width: 0.339411"/>
    <path d="M 194.094141 115.169888 
L 195.894141 112.169888 
L 194.094141 109.169888 
L 192.294141 112.169888 
z
" clip-path="url(#p129dde9f25)" style="fill: #332288; fill-opacity: 0.6; stroke: #ffffff; stroke-opacity: 0.6; stroke-width: 0.339411"/>
    <path d="M 201.735134 108.39093 
L 203.535134 105.39093 
L 201.735134 102.39093 
L 199.935134 105.39093 
z
" clip-path="url(#p129dde9f25)" style="fill: #332288; fill-opacity: 0.6; stroke: #ffffff; stroke-opacity: 0.6; stroke-width: 0.339411"/>
    <path d="M 195.766999 124.039017 
L 197.566999 121.039017 
L 195.766999 118.039017 
L 193.966999 121.039017 
z
" clip-path="url(#p129dde9f25)" style="fill: #332288; fill-opacity: 0.6; stroke: #ffffff; stroke-opacity: 0.6; stroke-width: 0.339411"/>
    <path d="M 196.445232 77.960636 
L 198.245232 74.960636 
L 196.445232 71.960636 
L 194.645232 74.960636 
z
" clip-path="url(#p129dde9f25)" style="fill: #332288; fill-opacity: 0.6; stroke: #ffffff; stroke-opacity: 0.6; stroke-width: 0.339411"/>
    <path d="M 205.146366 78.182333 
L 206.946366 75.182333 
L 205.146366 72.182333 
L 203.346366 75.182333 
z
" clip-path="url(#p129dde9f25)" style="fill: #332288; fill-opacity: 0.6; stroke: #ffffff; stroke-opacity: 0.6; stroke-width: 0.339411"/>
    <path d="M 191.269498 85.346048 
L 193.069498 82.346048 
L 191.269498 79.346048 
L 189.469498 82.346048 
z
" clip-path="url(#p129dde9f25)" style="fill: #332288; fill-opacity: 0.6; stroke: #ffffff; stroke-opacity: 0.6; stroke-width: 0.339411"/>
    <path d="M 213.652785 76.565598 
L 215.452785 73.565598 
L 213.652785 70.565598 
L 211.852785 73.565598 
z
" clip-path="url(#p129dde9f25)" style="fill: #332288; fill-opacity: 0.6; stroke: #ffffff; stroke-opacity: 0.6; stroke-width: 0.339411"/>
    <path d="M 191.876601 72.530908 
L 193.676601 69.530908 
L 191.876601 66.530908 
L 190.076601 69.530908 
z
" clip-path="url(#p129dde9f25)" style="fill: #332288; fill-opacity: 0.6; stroke: #ffffff; stroke-opacity: 0.6; stroke-width: 0.339411"/>
    <path d="M 186.078972 112.301122 
L 187.878972 109.301122 
L 186.078972 106.301122 
L 184.278972 109.301122 
z
" clip-path="url(#p129dde9f25)" style="fill: #332288; fill-opacity: 0.6; stroke: #ffffff; stroke-opacity: 0.6; stroke-width: 0.339411"/>
    <path d="M 206.772806 110.673709 
L 208.572806 107.673709 
L 206.772806 104.673709 
L 204.972806 107.673709 
z
" clip-path="url(#p129dde9f25)" style="fill: #332288; fill-opacity: 0.6; stroke: #ffffff; stroke-opacity: 0.6; stroke-width: 0.339411"/>
    <path d="M 198.653926 103.559322 
L 200.453926 100.559322 
L 198.653926 97.559322 
L 196.853926 100.559322 
z
" clip-path="url(#p129dde9f25)" style="fill: #332288; fill-opacity: 0.6; stroke: #ffffff; stroke-opacity: 0.6; stroke-width: 0.339411"/>
    <path d="M 188.545893 109.962249 
L 190.345893 106.962249 
L 188.545893 103.962249 
L 186.745893 106.962249 
z
" clip-path="url(#p129dde9f25)" style="fill: #332288; fill-opacity: 0.6; stroke: #ffffff; stroke-opacity: 0.6; stroke-width: 0.339411"/>
    <path d="M 203.474475 69.05617 
L 205.274475 66.05617 
L 203.474475 63.05617 
L 201.674475 66.05617 
z
" clip-path="url(#p129dde9f25)" style="fill: #332288; fill-opacity: 0.6; stroke: #ffffff; stroke-opacity: 0.6; stroke-width: 0.339411"/>
    <path d="M 189.307101 119.347273 
L 191.107101 116.347273 
L 189.307101 113.347273 
L 187.507101 116.347273 
z
" clip-path="url(#p129dde9f25)" style="fill: #332288; fill-opacity: 0.6; stroke: #ffffff; stroke-opacity: 0.6; stroke-width: 0.339411"/>
    <path d="M 122.459466 93.696826 
L 124.259466 90.696826 
L 122.459466 87.696826 
L 120.659466 90.696826 
z
" clip-path="url(#p129dde9f25)" style="fill: #332288; fill-opacity: 0.6; stroke: #ffffff; stroke-opacity: 0.6; stroke-width: 0.339411"/>
    <path d="M 204.894898 69.155899 
L 206.694898 66.155899 
L 204.894898 63.155899 
L 203.094898 66.155899 
z
" clip-path="url(#p129dde9f25)" style="fill: #332288; fill-opacity: 0.6; stroke: #ffffff; stroke-opacity: 0.6; stroke-width: 0.339411"/>
    <path d="M 213.446329 82.161785 
L 215.246329 79.161785 
L 213.446329 76.161785 
L 211.646329 79.161785 
z
" clip-path="url(#p129dde9f25)" style="fill: #332288; fill-opacity: 0.6; stroke: #ffffff; stroke-opacity: 0.6; stroke-width: 0.339411"/>
    <path d="M 193.14504 121.972146 
L 194.94504 118.972146 
L 193.14504 115.972146 
L 191.34504 118.972146 
z
" clip-path="url(#p129dde9f25)" style="fill: #332288; fill-opacity: 0.6; stroke: #ffffff; stroke-opacity: 0.6; stroke-width: 0.339411"/>
    <path d="M 190.153816 72.58352 
L 191.953816 69.58352 
L 190.153816 66.58352 
L 188.353816 69.58352 
z
" clip-path="url(#p129dde9f25)" style="fill: #332288; fill-opacity: 0.6; stroke: #ffffff; stroke-opacity: 0.6; stroke-width: 0.339411"/>
    <path d="M 202.832128 107.94349 
L 204.632128 104.94349 
L 202.832128 101.94349 
L 201.032128 104.94349 
z
" clip-path="url(#p129dde9f25)" style="fill: #332288; fill-opacity: 0.6; stroke: #ffffff; stroke-opacity: 0.6; stroke-width: 0.339411"/>
    <path d="M 212.583889 76.585151 
L 214.383889 73.585151 
L 212.583889 70.585151 
L 210.783889 73.585151 
z
" clip-path="url(#p129dde9f25)" style="fill: #332288; fill-opacity: 0.6; stroke: #ffffff; stroke-opacity: 0.6; stroke-width: 0.339411"/>
    <path d="M 189.101561 114.065879 
L 190.901561 111.065879 
L 189.101561 108.065879 
L 187.301561 111.065879 
z
" clip-path="url(#p129dde9f25)" style="fill: #332288; fill-opacity: 0.6; stroke: #ffffff; stroke-opacity: 0.6; stroke-width: 0.339411"/>
    <path d="M 182.352283 114.357021 
L 184.152283 111.357021 
L 182.352283 108.357021 
L 180.552283 111.357021 
z
" clip-path="url(#p129dde9f25)" style="fill: #332288; fill-opacity: 0.6; stroke: #ffffff; stroke-opacity: 0.6; stroke-width: 0.339411"/>
    <path d="M 147.158623 114.583532 
L 148.958623 111.583532 
L 147.158623 108.583532 
L 145.358623 111.583532 
z
" clip-path="url(#p129dde9f25)" style="fill: #332288; fill-opacity: 0.6; stroke: #ffffff; stroke-opacity: 0.6; stroke-width: 0.339411"/>
    <path d="M 212.449832 86.018769 
L 214.249832 83.018769 
L 212.449832 80.018769 
L 210.649832 83.018769 
z
" clip-path="url(#p129dde9f25)" style="fill: #332288; fill-opacity: 0.6; stroke: #ffffff; stroke-opacity: 0.6; stroke-width: 0.339411"/>
    <path d="M 202.136942 117.610804 
L 203.936942 114.610804 
L 202.136942 111.610804 
L 200.336942 114.610804 
z
" clip-path="url(#p129dde9f25)" style="fill: #332288; fill-opacity: 0.6; stroke: #ffffff; stroke-opacity: 0.6; stroke-width: 0.339411"/>
    <path d="M 210.445234 74.524862 
L 212.245234 71.524862 
L 210.445234 68.524862 
L 208.645234 71.524862 
z
" clip-path="url(#p129dde9f25)" style="fill: #332288; fill-opacity: 0.6; stroke: #ffffff; stroke-opacity: 0.6; stroke-width: 0.339411"/>
    <path d="M 191.517735 75.070091 
L 193.317735 72.070091 
L 191.517735 69.070091 
L 189.717735 72.070091 
z
" clip-path="url(#p129dde9f25)" style="fill: #332288; fill-opacity: 0.6; stroke: #ffffff; stroke-opacity: 0.6; stroke-width: 0.339411"/>
    <path d="M 119.869307 96.44325 
L 121.669307 93.44325 
L 119.869307 90.44325 
L 118.069307 93.44325 
z
" clip-path="url(#p129dde9f25)" style="fill: #332288; fill-opacity: 0.6; stroke: #ffffff; stroke-opacity: 0.6; stroke-width: 0.339411"/>
    <path d="M 194.835665 118.03755 
L 196.635665 115.03755 
L 194.835665 112.03755 
L 193.035665 115.03755 
z
" clip-path="url(#p129dde9f25)" style="fill: #332288; fill-opacity: 0.6; stroke: #ffffff; stroke-opacity: 0.6; stroke-width: 0.339411"/>
    <path d="M 175.492057 80.751219 
L 173.370736 84.99386 
L 177.613377 84.99386 
z
" clip-path="url(#p129dde9f25)" style="fill: #117733; fill-opacity: 0.6; stroke: #ffffff; stroke-opacity: 0.6; stroke-width: 0.339411"/>
    <path d="M 147.259638 94.779174 
L 145.138318 99.021815 
L 149.380958 99.021815 
z
" clip-path="url(#p129dde9f25)" style="fill: #117733; fill-opacity: 0.6; stroke: #ffffff; stroke-opacity: 0.6; stroke-width: 0.339411"/>
    <path d="M 145.729294 109.461917 
L 143.607974 113.704558 
L 147.850614 113.704558 
z
" clip-path="url(#p129dde9f25)" style="fill: #117733; fill-opacity: 0.6; stroke: #ffffff; stroke-opacity: 0.6; stroke-width: 0.339411"/>
    <path d="M 150.331391 95.032218 
L 148.210071 99.274859 
L 152.452712 99.274859 
z
" clip-path="url(#p129dde9f25)" style="fill: #117733; fill-opacity: 0.6; stroke: #ffffff; stroke-opacity: 0.6; stroke-width: 0.339411"/>
    <path d="M 167.065574 138.415358 
L 164.944254 142.657999 
L 169.186894 142.657999 
z
" clip-path="url(#p129dde9f25)" style="fill: #117733; fill-opacity: 0.6; stroke: #ffffff; stroke-opacity: 0.6; stroke-width: 0.339411"/>
    <path d="M 186.674754 71.886363 
L 184.553434 76.129004 
L 188.796074 76.129004 
z
" clip-path="url(#p129dde9f25)" style="fill: #117733; fill-opacity: 0.6; stroke: #ffffff; stroke-opacity: 0.6; stroke-width: 0.339411"/>
    <path d="M 206.389966 94.237971 
L 204.268646 98.480611 
L 208.511287 98.480611 
z
" clip-path="url(#p129dde9f25)" style="fill: #117733; fill-opacity: 0.6; stroke: #ffffff; stroke-opacity: 0.6; stroke-width: 0.339411"/>
    <path d="M 156.9778 76.020108 
L 154.856479 80.262749 
L 159.09912 80.262749 
z
" clip-path="url(#p129dde9f25)" style="fill: #117733; fill-opacity: 0.6; stroke: #ffffff; stroke-opacity: 0.6; stroke-width: 0.339411"/>
    <path d="M 148.853051 164.330915 
L 146.731731 168.573556 
L 150.974371 168.573556 
z
" clip-path="url(#p129dde9f25)" style="fill: #117733; fill-opacity: 0.6; stroke: #ffffff; stroke-opacity: 0.6; stroke-width: 0.339411"/>
    <path d="M 156.294828 79.037522 
L 154.173507 83.280163 
L 158.416148 83.280163 
z
" clip-path="url(#p129dde9f25)" style="fill: #117733; fill-opacity: 0.6; stroke: #ffffff; stroke-opacity: 0.6; stroke-width: 0.339411"/>
    <path d="M 168.001801 132.49652 
L 165.88048 136.73916 
L 170.123121 136.73916 
z
" clip-path="url(#p129dde9f25)" style="fill: #117733; fill-opacity: 0.6; stroke: #ffffff; stroke-opacity: 0.6; stroke-width: 0.339411"/>
    <path d="M 164.180058 137.894726 
L 162.058738 142.137367 
L 166.301378 142.137367 
z
" clip-path="url(#p129dde9f25)" style="fill: #117733; fill-opacity: 0.6; stroke: #ffffff; stroke-opacity: 0.6; stroke-width: 0.339411"/>
    <path d="M 148.859059 86.023067 
L 146.737738 90.265708 
L 150.980379 90.265708 
z
" clip-path="url(#p129dde9f25)" style="fill: #117733; fill-opacity: 0.6; stroke: #ffffff; stroke-opacity: 0.6; stroke-width: 0.339411"/>
    <path d="M 154.154391 75.898362 
L 152.033071 80.141003 
L 156.275711 80.141003 
z
" clip-path="url(#p129dde9f25)" style="fill: #117733; fill-opacity: 0.6; stroke: #ffffff; stroke-opacity: 0.6; stroke-width: 0.339411"/>
    <path d="M 173.426704 93.110543 
L 171.305384 97.353184 
L 175.548025 97.353184 
z
" clip-path="url(#p129dde9f25)" style="fill: #117733; fill-opacity: 0.6; stroke: #ffffff; stroke-opacity: 0.6; stroke-width: 0.339411"/>
    <path d="M 151.635567 70.590616 
L 149.514246 74.833257 
L 153.756887 74.833257 
z
" clip-path="url(#p129dde9f25)" style="fill: #117733; fill-opacity: 0.6; stroke: #ffffff; stroke-opacity: 0.6; stroke-width: 0.339411"/>
    <path d="M 161.848668 128.608202 
L 159.727348 132.850843 
L 163.969989 132.850843 
z
" clip-path="url(#p129dde9f25)" style="fill: #117733; fill-opacity: 0.6; stroke: #ffffff; stroke-opacity: 0.6; stroke-width: 0.339411"/>
    <path d="M 161.865138 85.587871 
L 159.743818 89.830512 
L 163.986458 89.830512 
z
" clip-path="url(#p129dde9f25)" style="fill: #117733; fill-opacity: 0.6; stroke: #ffffff; stroke-opacity: 0.6; stroke-width: 0.339411"/>
    <path d="M 207.325044 87.375329 
L 205.203723 91.61797 
L 209.446364 91.61797 
z
" clip-path="url(#p129dde9f25)" style="fill: #117733; fill-opacity: 0.6; stroke: #ffffff; stroke-opacity: 0.6; stroke-width: 0.339411"/>
    <path d="M 166.369119 80.669012 
L 164.247799 84.911653 
L 168.490439 84.911653 
z
" clip-path="url(#p129dde9f25)" style="fill: #117733; fill-opacity: 0.6; stroke: #ffffff; stroke-opacity: 0.6; stroke-width: 0.339411"/>
    <path d="M 150.250769 98.973371 
L 148.129448 103.216012 
L 152.372089 103.216012 
z
" clip-path="url(#p129dde9f25)" style="fill: #117733; fill-opacity: 0.6; stroke: #ffffff; stroke-opacity: 0.6; stroke-width: 0.339411"/>
    <path d="M 154.826056 89.563981 
L 152.704736 93.806621 
L 156.947377 93.806621 
z
" clip-path="url(#p129dde9f25)" style="fill: #117733; fill-opacity: 0.6; stroke: #ffffff; stroke-opacity: 0.6; stroke-width: 0.339411"/>
    <path d="M 132.106051 102.855866 
L 129.98473 107.098507 
L 134.227371 107.098507 
z
" clip-path="url(#p129dde9f25)" style="fill: #117733; fill-opacity: 0.6; stroke: #ffffff; stroke-opacity: 0.6; stroke-width: 0.339411"/>
    <path d="M 104.052755 115.846023 
L 101.931434 120.088664 
L 106.174075 120.088664 
z
" clip-path="url(#p129dde9f25)" style="fill: #117733; fill-opacity: 0.6; stroke: #ffffff; stroke-opacity: 0.6; stroke-width: 0.339411"/>
    <path d="M 160.851267 69.732085 
L 158.729947 73.974726 
L 162.972588 73.974726 
z
" clip-path="url(#p129dde9f25)" style="fill: #117733; fill-opacity: 0.6; stroke: #ffffff; stroke-opacity: 0.6; stroke-width: 0.339411"/>
    <path d="M 162.531191 135.267917 
L 160.409871 139.510558 
L 164.652511 139.510558 
z
" clip-path="url(#p129dde9f25)" style="fill: #117733; fill-opacity: 0.6; stroke: #ffffff; stroke-opacity: 0.6; stroke-width: 0.339411"/>
    <path d="M 164.362393 91.454374 
L 162.241072 95.697015 
L 166.483713 95.697015 
z
" clip-path="url(#p129dde9f25)" style="fill: #117733; fill-opacity: 0.6; stroke: #ffffff; stroke-opacity: 0.6; stroke-width: 0.339411"/>
    <path d="M 151.643105 89.420832 
L 149.521784 93.663473 
L 153.764425 93.663473 
z
" clip-path="url(#p129dde9f25)" style="fill: #117733; fill-opacity: 0.6; stroke: #ffffff; stroke-opacity: 0.6; stroke-width: 0.339411"/>
    <path d="M 158.604118 83.477342 
L 156.482798 87.719983 
L 160.725439 87.719983 
z
" clip-path="url(#p129dde9f25)" style="fill: #117733; fill-opacity: 0.6; stroke: #ffffff; stroke-opacity: 0.6; stroke-width: 0.339411"/>
    <path d="M 103.666394 119.71045 
L 101.545073 123.95309 
L 105.787714 123.95309 
z
" clip-path="url(#p129dde9f25)" style="fill: #117733; fill-opacity: 0.6; stroke: #ffffff; stroke-opacity: 0.6; stroke-width: 0.339411"/>
    <path d="M 152.637911 93.996299 
L 150.516591 98.23894 
L 154.759232 98.23894 
z
" clip-path="url(#p129dde9f25)" style="fill: #117733; fill-opacity: 0.6; stroke: #ffffff; stroke-opacity: 0.6; stroke-width: 0.339411"/>
    <path d="M 191.73203 74.057873 
L 189.61071 78.300514 
L 193.853351 78.300514 
z
" clip-path="url(#p129dde9f25)" style="fill: #117733; fill-opacity: 0.6; stroke: #ffffff; stroke-opacity: 0.6; stroke-width: 0.339411"/>
    <path d="M 109.997254 110.662831 
L 107.875933 114.905472 
L 112.118574 114.905472 
z
" clip-path="url(#p129dde9f25)" style="fill: #117733; fill-opacity: 0.6; stroke: #ffffff; stroke-opacity: 0.6; stroke-width: 0.339411"/>
    <path d="M 158.611335 91.717431 
L 156.490014 95.960071 
L 160.732655 95.960071 
z
" clip-path="url(#p129dde9f25)" style="fill: #117733; fill-opacity: 0.6; stroke: #ffffff; stroke-opacity: 0.6; stroke-width: 0.339411"/>
    <path d="M 165.401853 68.876228 
L 163.280532 73.118869 
L 167.523173 73.118869 
z
" clip-path="url(#p129dde9f25)" style="fill: #117733; fill-opacity: 0.6; stroke: #ffffff; stroke-opacity: 0.6; stroke-width: 0.339411"/>
    <path d="M 200.044362 79.451686 
L 197.923041 83.694327 
L 202.165682 83.694327 
z
" clip-path="url(#p129dde9f25)" style="fill: #117733; fill-opacity: 0.6; stroke: #ffffff; stroke-opacity: 0.6; stroke-width: 0.339411"/>
    <path d="M 155.788128 93.173766 
L 153.666808 97.416406 
L 157.909449 97.416406 
z
" clip-path="url(#p129dde9f25)" style="fill: #117733; fill-opacity: 0.6; stroke: #ffffff; stroke-opacity: 0.6; stroke-width: 0.339411"/>
    <path d="M 171.795917 67.070838 
L 169.674597 71.313479 
L 173.917237 71.313479 
z
" clip-path="url(#p129dde9f25)" style="fill: #117733; fill-opacity: 0.6; stroke: #ffffff; stroke-opacity: 0.6; stroke-width: 0.339411"/>
    <path d="M 108.014126 113.473007 
L 105.892806 117.715648 
L 110.135447 117.715648 
z
" clip-path="url(#p129dde9f25)" style="fill: #117733; fill-opacity: 0.6; stroke: #ffffff; stroke-opacity: 0.6; stroke-width: 0.339411"/>
    <path d="M 145.028524 78.395554 
L 142.907203 82.638195 
L 147.149844 82.638195 
z
" clip-path="url(#p129dde9f25)" style="fill: #117733; fill-opacity: 0.6; stroke: #ffffff; stroke-opacity: 0.6; stroke-width: 0.339411"/>
    <path d="M 158.770418 132.818245 
L 156.649098 137.060886 
L 160.891738 137.060886 
z
" clip-path="url(#p129dde9f25)" style="fill: #117733; fill-opacity: 0.6; stroke: #ffffff; stroke-opacity: 0.6; stroke-width: 0.339411"/>
    <path d="M 200.480184 83.912095 
L 198.358863 88.154735 
L 202.601504 88.154735 
z
" clip-path="url(#p129dde9f25)" style="fill: #117733; fill-opacity: 0.6; stroke: #ffffff; stroke-opacity: 0.6; stroke-width: 0.339411"/>
    <path d="M 161.443931 87.482802 
L 159.322611 91.725442 
L 163.565251 91.725442 
z
" clip-path="url(#p129dde9f25)" style="fill: #117733; fill-opacity: 0.6; stroke: #ffffff; stroke-opacity: 0.6; stroke-width: 0.339411"/>
    <path d="M 150.215798 109.104132 
L 148.094478 113.346773 
L 152.337118 113.346773 
z
" clip-path="url(#p129dde9f25)" style="fill: #117733; fill-opacity: 0.6; stroke: #ffffff; stroke-opacity: 0.6; stroke-width: 0.339411"/>
    <path d="M 139.630344 82.789088 
L 137.509024 87.031728 
L 141.751665 87.031728 
z
" clip-path="url(#p129dde9f25)" style="fill: #117733; fill-opacity: 0.6; stroke: #ffffff; stroke-opacity: 0.6; stroke-width: 0.339411"/>
    <path d="M 151.471079 79.289232 
L 149.349758 83.531873 
L 153.592399 83.531873 
z
" clip-path="url(#p129dde9f25)" style="fill: #117733; fill-opacity: 0.6; stroke: #ffffff; stroke-opacity: 0.6; stroke-width: 0.339411"/>
    <path d="M 151.114522 92.540923 
L 148.993202 96.783563 
L 153.235843 96.783563 
z
" clip-path="url(#p129dde9f25)" style="fill: #117733; fill-opacity: 0.6; stroke: #ffffff; stroke-opacity: 0.6; stroke-width: 0.339411"/>
    <path d="M 163.502098 77.21222 
L 161.380778 81.454861 
L 165.623418 81.454861 
z
" clip-path="url(#p129dde9f25)" style="fill: #117733; fill-opacity: 0.6; stroke: #ffffff; stroke-opacity: 0.6; stroke-width: 0.339411"/>
    <path d="M 162.405713 69.815936 
L 160.284393 74.058577 
L 164.527033 74.058577 
z
" clip-path="url(#p129dde9f25)" style="fill: #117733; fill-opacity: 0.6; stroke: #ffffff; stroke-opacity: 0.6; stroke-width: 0.339411"/>
    <path d="M 159.68551 73.960391 
L 157.564189 78.203032 
L 161.80683 78.203032 
z
" clip-path="url(#p129dde9f25)" style="fill: #117733; fill-opacity: 0.6; stroke: #ffffff; stroke-opacity: 0.6; stroke-width: 0.339411"/>
    <path d="M 165.626764 80.604632 
L 163.505444 84.847273 
L 167.748085 84.847273 
z
" clip-path="url(#p129dde9f25)" style="fill: #117733; fill-opacity: 0.6; stroke: #ffffff; stroke-opacity: 0.6; stroke-width: 0.339411"/>
    <path d="M 157.584137 82.293957 
L 155.462817 86.536598 
L 159.705458 86.536598 
z
" clip-path="url(#p129dde9f25)" style="fill: #117733; fill-opacity: 0.6; stroke: #ffffff; stroke-opacity: 0.6; stroke-width: 0.339411"/>
    <path d="M 203.70569 88.532186 
L 201.584369 92.774827 
L 205.82701 92.774827 
z
" clip-path="url(#p129dde9f25)" style="fill: #117733; fill-opacity: 0.6; stroke: #ffffff; stroke-opacity: 0.6; stroke-width: 0.339411"/>
    <path d="M 162.206573 71.446473 
L 160.085253 75.689114 
L 164.327893 75.689114 
z
" clip-path="url(#p129dde9f25)" style="fill: #117733; fill-opacity: 0.6; stroke: #ffffff; stroke-opacity: 0.6; stroke-width: 0.339411"/>
    <path d="M 163.923271 93.196895 
L 161.80195 97.439535 
L 166.044591 97.439535 
z
" clip-path="url(#p129dde9f25)" style="fill: #117733; fill-opacity: 0.6; stroke: #ffffff; stroke-opacity: 0.6; stroke-width: 0.339411"/>
    <path d="M 168.663114 132.140081 
L 166.541794 136.382721 
L 170.784435 136.382721 
z
" clip-path="url(#p129dde9f25)" style="fill: #117733; fill-opacity: 0.6; stroke: #ffffff; stroke-opacity: 0.6; stroke-width: 0.339411"/>
    <path d="M 163.350575 138.137102 
L 161.229255 142.379742 
L 165.471896 142.379742 
z
" clip-path="url(#p129dde9f25)" style="fill: #117733; fill-opacity: 0.6; stroke: #ffffff; stroke-opacity: 0.6; stroke-width: 0.339411"/>
    <path d="M 150.845495 78.548223 
L 148.724175 82.790864 
L 152.966815 82.790864 
z
" clip-path="url(#p129dde9f25)" style="fill: #117733; fill-opacity: 0.6; stroke: #ffffff; stroke-opacity: 0.6; stroke-width: 0.339411"/>
    <path d="M 165.732649 77.966758 
L 163.611329 82.209399 
L 167.853969 82.209399 
z
" clip-path="url(#p129dde9f25)" style="fill: #117733; fill-opacity: 0.6; stroke: #ffffff; stroke-opacity: 0.6; stroke-width: 0.339411"/>
    <path d="M 157.786847 108.265829 
L 155.665527 112.508469 
L 159.908167 112.508469 
z
" clip-path="url(#p129dde9f25)" style="fill: #117733; fill-opacity: 0.6; stroke: #ffffff; stroke-opacity: 0.6; stroke-width: 0.339411"/>
    <path d="M 129.424973 100.409981 
L 127.303652 104.652621 
L 131.546293 104.652621 
z
" clip-path="url(#p129dde9f25)" style="fill: #117733; fill-opacity: 0.6; stroke: #ffffff; stroke-opacity: 0.6; stroke-width: 0.339411"/>
    <path d="M 155.992371 70.351152 
L 153.871051 74.593793 
L 158.113692 74.593793 
z
" clip-path="url(#p129dde9f25)" style="fill: #117733; fill-opacity: 0.6; stroke: #ffffff; stroke-opacity: 0.6; stroke-width: 0.339411"/>
    <path d="M 134.404041 156.27063 
L 138.646682 156.27063 
L 138.646682 152.02799 
L 134.404041 152.02799 
z
" clip-path="url(#p129dde9f25)" style="fill: #44aa99; fill-opacity: 0.6; stroke: #ffffff; stroke-opacity: 0.6; stroke-width: 0.339411"/>
    <path d="M 146.966291 120.008468 
L 151.208931 120.008468 
L 151.208931 115.765827 
L 146.966291 115.765827 
z
" clip-path="url(#p129dde9f25)" style="fill: #44aa99; fill-opacity: 0.6; stroke: #ffffff; stroke-opacity: 0.6; stroke-width: 0.339411"/>
    <path d="M 127.27607 128.911411 
L 131.518711 128.911411 
L 131.518711 124.66877 
L 127.27607 124.66877 
z
" clip-path="url(#p129dde9f25)" style="fill: #44aa99; fill-opacity: 0.6; stroke: #ffffff; stroke-opacity: 0.6; stroke-width: 0.339411"/>
    <path d="M 128.936691 180.346166 
L 133.179332 180.346166 
L 133.179332 176.103526 
L 128.936691 176.103526 
z
" clip-path="url(#p129dde9f25)" style="fill: #44aa99; fill-opacity: 0.6; stroke: #ffffff; stroke-opacity: 0.6; stroke-width: 0.339411"/>
    <path d="M 126.847337 119.131506 
L 131.089977 119.131506 
L 131.089977 114.888866 
L 126.847337 114.888866 
z
" clip-path="url(#p129dde9f25)" style="fill: #44aa99; fill-opacity: 0.6; stroke: #ffffff; stroke-opacity: 0.6; stroke-width: 0.339411"/>
    <path d="M 125.926144 102.27669 
L 130.168784 102.27669 
L 130.168784 98.03405 
L 125.926144 98.03405 
z
" clip-path="url(#p129dde9f25)" style="fill: #44aa99; fill-opacity: 0.6; stroke: #ffffff; stroke-opacity: 0.6; stroke-width: 0.339411"/>
    <path d="M 144.993787 96.315496 
L 149.236428 96.315496 
L 149.236428 92.072855 
L 144.993787 92.072855 
z
" clip-path="url(#p129dde9f25)" style="fill: #44aa99; fill-opacity: 0.6; stroke: #ffffff; stroke-opacity: 0.6; stroke-width: 0.339411"/>
    <path d="M 139.272483 122.359631 
L 143.515124 122.359631 
L 143.515124 118.116991 
L 139.272483 118.116991 
z
" clip-path="url(#p129dde9f25)" style="fill: #44aa99; fill-opacity: 0.6; stroke: #ffffff; stroke-opacity: 0.6; stroke-width: 0.339411"/>
    <path d="M 188.609816 93.520422 
L 192.852457 93.520422 
L 192.852457 89.277781 
L 188.609816 89.277781 
z
" clip-path="url(#p129dde9f25)" style="fill: #44aa99; fill-opacity: 0.6; stroke: #ffffff; stroke-opacity: 0.6; stroke-width: 0.339411"/>
    <path d="M 140.790985 101.385846 
L 145.033626 101.385846 
L 145.033626 97.143205 
L 140.790985 97.143205 
z
" clip-path="url(#p129dde9f25)" style="fill: #44aa99; fill-opacity: 0.6; stroke: #ffffff; stroke-opacity: 0.6; stroke-width: 0.339411"/>
    <path d="M 119.388561 126.996631 
L 123.631202 126.996631 
L 123.631202 122.75399 
L 119.388561 122.75399 
z
" clip-path="url(#p129dde9f25)" style="fill: #44aa99; fill-opacity: 0.6; stroke: #ffffff; stroke-opacity: 0.6; stroke-width: 0.339411"/>
    <path d="M 161.822898 129.850115 
L 166.065538 129.850115 
L 166.065538 125.607474 
L 161.822898 125.607474 
z
" clip-path="url(#p129dde9f25)" style="fill: #44aa99; fill-opacity: 0.6; stroke: #ffffff; stroke-opacity: 0.6; stroke-width: 0.339411"/>
    <path d="M 156.848448 117.576076 
L 161.091089 117.576076 
L 161.091089 113.333436 
L 156.848448 113.333436 
z
" clip-path="url(#p129dde9f25)" style="fill: #44aa99; fill-opacity: 0.6; stroke: #ffffff; stroke-opacity: 0.6; stroke-width: 0.339411"/>
    <path d="M 158.744147 126.884747 
L 162.986787 126.884747 
L 162.986787 122.642106 
L 158.744147 122.642106 
z
" clip-path="url(#p129dde9f25)" style="fill: #44aa99; fill-opacity: 0.6; stroke: #ffffff; stroke-opacity: 0.6; stroke-width: 0.339411"/>
    <path d="M 120.938483 114.517541 
L 125.181123 114.517541 
L 125.181123 110.2749 
L 120.938483 110.2749 
z
" clip-path="url(#p129dde9f25)" style="fill: #44aa99; fill-opacity: 0.6; stroke: #ffffff; stroke-opacity: 0.6; stroke-width: 0.339411"/>
    <path d="M 105.260167 121.279927 
L 109.502807 121.279927 
L 109.502807 117.037287 
L 105.260167 117.037287 
z
" clip-path="url(#p129dde9f25)" style="fill: #44aa99; fill-opacity: 0.6; stroke: #ffffff; stroke-opacity: 0.6; stroke-width: 0.339411"/>
    <path d="M 133.119046 130.660943 
L 137.361687 130.660943 
L 137.361687 126.418303 
L 133.119046 126.418303 
z
" clip-path="url(#p129dde9f25)" style="fill: #44aa99; fill-opacity: 0.6; stroke: #ffffff; stroke-opacity: 0.6; stroke-width: 0.339411"/>
    <path d="M 120.636435 120.994641 
L 124.879075 120.994641 
L 124.879075 116.752 
L 120.636435 116.752 
z
" clip-path="url(#p129dde9f25)" style="fill: #44aa99; fill-opacity: 0.6; stroke: #ffffff; stroke-opacity: 0.6; stroke-width: 0.339411"/>
    <path d="M 155.559574 107.01715 
L 159.802214 107.01715 
L 159.802214 102.774509 
L 155.559574 102.774509 
z
" clip-path="url(#p129dde9f25)" style="fill: #44aa99; fill-opacity: 0.6; stroke: #ffffff; stroke-opacity: 0.6; stroke-width: 0.339411"/>
    <path d="M 133.858556 181.025355 
L 138.101197 181.025355 
L 138.101197 176.782715 
L 133.858556 176.782715 
z
" clip-path="url(#p129dde9f25)" style="fill: #44aa99; fill-opacity: 0.6; stroke: #ffffff; stroke-opacity: 0.6; stroke-width: 0.339411"/>
    <path d="M 124.81128 124.10232 
L 129.053921 124.10232 
L 129.053921 119.85968 
L 124.81128 119.85968 
z
" clip-path="url(#p129dde9f25)" style="fill: #44aa99; fill-opacity: 0.6; stroke: #ffffff; stroke-opacity: 0.6; stroke-width: 0.339411"/>
    <path d="M 160.518054 106.302877 
L 164.760695 106.302877 
L 164.760695 102.060236 
L 160.518054 102.060236 
z
" clip-path="url(#p129dde9f25)" style="fill: #44aa99; fill-opacity: 0.6; stroke: #ffffff; stroke-opacity: 0.6; stroke-width: 0.339411"/>
    <path d="M 120.25419 112.247629 
L 124.496831 112.247629 
L 124.496831 108.004988 
L 120.25419 108.004988 
z
" clip-path="url(#p129dde9f25)" style="fill: #44aa99; fill-opacity: 0.6; stroke: #ffffff; stroke-opacity: 0.6; stroke-width: 0.339411"/>
    <path d="M 104.903399 125.625615 
L 109.14604 125.625615 
L 109.14604 121.382974 
L 104.903399 121.382974 
z
" clip-path="url(#p129dde9f25)" style="fill: #44aa99; fill-opacity: 0.6; stroke: #ffffff; stroke-opacity: 0.6; stroke-width: 0.339411"/>
    <path d="M 146.846968 120.797851 
L 151.089609 120.797851 
L 151.089609 116.55521 
L 146.846968 116.55521 
z
" clip-path="url(#p129dde9f25)" style="fill: #44aa99; fill-opacity: 0.6; stroke: #ffffff; stroke-opacity: 0.6; stroke-width: 0.339411"/>
    <path d="M 99.632147 151.164545 
L 103.874788 151.164545 
L 103.874788 146.921904 
L 99.632147 146.921904 
z
" clip-path="url(#p129dde9f25)" style="fill: #44aa99; fill-opacity: 0.6; stroke: #ffffff; stroke-opacity: 0.6; stroke-width: 0.339411"/>
    <path d="M 125.756244 119.796537 
L 129.998885 119.796537 
L 129.998885 115.553896 
L 125.756244 115.553896 
z
" clip-path="url(#p129dde9f25)" style="fill: #44aa99; fill-opacity: 0.6; stroke: #ffffff; stroke-opacity: 0.6; stroke-width: 0.339411"/>
    <path d="M 150.545779 164.627459 
L 154.788419 164.627459 
L 154.788419 160.384818 
L 150.545779 160.384818 
z
" clip-path="url(#p129dde9f25)" style="fill: #44aa99; fill-opacity: 0.6; stroke: #ffffff; stroke-opacity: 0.6; stroke-width: 0.339411"/>
    <path d="M 158.53645 129.744286 
L 162.779091 129.744286 
L 162.779091 125.501646 
L 158.53645 125.501646 
z
" clip-path="url(#p129dde9f25)" style="fill: #44aa99; fill-opacity: 0.6; stroke: #ffffff; stroke-opacity: 0.6; stroke-width: 0.339411"/>
    <path d="M 138.479405 117.027525 
L 142.722045 117.027525 
L 142.722045 112.784885 
L 138.479405 112.784885 
z
" clip-path="url(#p129dde9f25)" style="fill: #44aa99; fill-opacity: 0.6; stroke: #ffffff; stroke-opacity: 0.6; stroke-width: 0.339411"/>
    <path d="M 136.142084 125.84375 
L 140.384725 125.84375 
L 140.384725 121.601109 
L 136.142084 121.601109 
z
" clip-path="url(#p129dde9f25)" style="fill: #44aa99; fill-opacity: 0.6; stroke: #ffffff; stroke-opacity: 0.6; stroke-width: 0.339411"/>
    <path d="M 133.523183 107.071688 
L 137.765824 107.071688 
L 137.765824 102.829048 
L 133.523183 102.829048 
z
" clip-path="url(#p129dde9f25)" style="fill: #44aa99; fill-opacity: 0.6; stroke: #ffffff; stroke-opacity: 0.6; stroke-width: 0.339411"/>
    <path d="M 123.321982 117.781731 
L 127.564622 117.781731 
L 127.564622 113.53909 
L 123.321982 113.53909 
z
" clip-path="url(#p129dde9f25)" style="fill: #44aa99; fill-opacity: 0.6; stroke: #ffffff; stroke-opacity: 0.6; stroke-width: 0.339411"/>
    <path d="M 132.378161 94.131925 
L 136.620802 94.131925 
L 136.620802 89.889284 
L 132.378161 89.889284 
z
" clip-path="url(#p129dde9f25)" style="fill: #44aa99; fill-opacity: 0.6; stroke: #ffffff; stroke-opacity: 0.6; stroke-width: 0.339411"/>
    <path d="M 168.088048 120.639507 
L 172.330688 120.639507 
L 172.330688 116.396866 
L 168.088048 116.396866 
z
" clip-path="url(#p129dde9f25)" style="fill: #44aa99; fill-opacity: 0.6; stroke: #ffffff; stroke-opacity: 0.6; stroke-width: 0.339411"/>
    <path d="M 133.679092 105.928856 
L 137.921733 105.928856 
L 137.921733 101.686216 
L 133.679092 101.686216 
z
" clip-path="url(#p129dde9f25)" style="fill: #44aa99; fill-opacity: 0.6; stroke: #ffffff; stroke-opacity: 0.6; stroke-width: 0.339411"/>
    <path d="M 154.1912 125.908321 
L 158.433841 125.908321 
L 158.433841 121.66568 
L 154.1912 121.66568 
z
" clip-path="url(#p129dde9f25)" style="fill: #44aa99; fill-opacity: 0.6; stroke: #ffffff; stroke-opacity: 0.6; stroke-width: 0.339411"/>
    <path d="M 164.417566 106.463789 
L 168.660207 106.463789 
L 168.660207 102.221148 
L 164.417566 102.221148 
z
" clip-path="url(#p129dde9f25)" style="fill: #44aa99; fill-opacity: 0.6; stroke: #ffffff; stroke-opacity: 0.6; stroke-width: 0.339411"/>
    <path d="M 131.133372 127.321783 
L 135.376013 127.321783 
L 135.376013 123.079142 
L 131.133372 123.079142 
z
" clip-path="url(#p129dde9f25)" style="fill: #44aa99; fill-opacity: 0.6; stroke: #ffffff; stroke-opacity: 0.6; stroke-width: 0.339411"/>
    <path d="M 152.513032 119.39293 
L 156.755672 119.39293 
L 156.755672 115.150289 
L 152.513032 115.150289 
z
" clip-path="url(#p129dde9f25)" style="fill: #44aa99; fill-opacity: 0.6; stroke: #ffffff; stroke-opacity: 0.6; stroke-width: 0.339411"/>
    <path d="M 131.813598 93.929827 
L 136.056239 93.929827 
L 136.056239 89.687186 
L 131.813598 89.687186 
z
" clip-path="url(#p129dde9f25)" style="fill: #44aa99; fill-opacity: 0.6; stroke: #ffffff; stroke-opacity: 0.6; stroke-width: 0.339411"/>
    <path d="M 144.627849 107.356895 
L 148.87049 107.356895 
L 148.87049 103.114255 
L 144.627849 103.114255 
z
" clip-path="url(#p129dde9f25)" style="fill: #44aa99; fill-opacity: 0.6; stroke: #ffffff; stroke-opacity: 0.6; stroke-width: 0.339411"/>
    <path d="M 151.564019 132.400241 
L 155.80666 132.400241 
L 155.80666 128.157601 
L 151.564019 128.157601 
z
" clip-path="url(#p129dde9f25)" style="fill: #44aa99; fill-opacity: 0.6; stroke: #ffffff; stroke-opacity: 0.6; stroke-width: 0.339411"/>
    <path d="M 163.540756 123.263487 
L 167.783397 123.263487 
L 167.783397 119.020846 
L 163.540756 119.020846 
z
" clip-path="url(#p129dde9f25)" style="fill: #44aa99; fill-opacity: 0.6; stroke: #ffffff; stroke-opacity: 0.6; stroke-width: 0.339411"/>
    <path d="M 161.347497 121.28318 
L 165.590137 121.28318 
L 165.590137 117.040539 
L 161.347497 117.040539 
z
" clip-path="url(#p129dde9f25)" style="fill: #44aa99; fill-opacity: 0.6; stroke: #ffffff; stroke-opacity: 0.6; stroke-width: 0.339411"/>
    <path d="M 147.233079 77.469985 
L 151.47572 77.469985 
L 151.47572 73.227344 
L 147.233079 73.227344 
z
" clip-path="url(#p129dde9f25)" style="fill: #44aa99; fill-opacity: 0.6; stroke: #ffffff; stroke-opacity: 0.6; stroke-width: 0.339411"/>
    <path d="M 141.121918 94.473747 
L 145.364559 94.473747 
L 145.364559 90.231106 
L 141.121918 90.231106 
z
" clip-path="url(#p129dde9f25)" style="fill: #44aa99; fill-opacity: 0.6; stroke: #ffffff; stroke-opacity: 0.6; stroke-width: 0.339411"/>
    <path d="M 119.725545 156.92617 
L 123.968186 156.92617 
L 123.968186 152.683529 
L 119.725545 152.683529 
z
" clip-path="url(#p129dde9f25)" style="fill: #44aa99; fill-opacity: 0.6; stroke: #ffffff; stroke-opacity: 0.6; stroke-width: 0.339411"/>
    <path d="M 128.418717 103.843051 
L 132.661358 103.843051 
L 132.661358 99.60041 
L 128.418717 99.60041 
z
" clip-path="url(#p129dde9f25)" style="fill: #44aa99; fill-opacity: 0.6; stroke: #ffffff; stroke-opacity: 0.6; stroke-width: 0.339411"/>
    <path d="M 126.610911 109.497127 
L 130.853551 109.497127 
L 130.853551 105.254486 
L 126.610911 105.254486 
z
" clip-path="url(#p129dde9f25)" style="fill: #44aa99; fill-opacity: 0.6; stroke: #ffffff; stroke-opacity: 0.6; stroke-width: 0.339411"/>
    <path d="M 123.587524 112.961352 
L 127.830165 112.961352 
L 127.830165 108.718711 
L 123.587524 108.718711 
z
" clip-path="url(#p129dde9f25)" style="fill: #44aa99; fill-opacity: 0.6; stroke: #ffffff; stroke-opacity: 0.6; stroke-width: 0.339411"/>
    <path d="M 157.680491 124.304553 
L 161.923132 124.304553 
L 161.923132 120.061913 
L 157.680491 120.061913 
z
" clip-path="url(#p129dde9f25)" style="fill: #44aa99; fill-opacity: 0.6; stroke: #ffffff; stroke-opacity: 0.6; stroke-width: 0.339411"/>
    <path d="M 127.485475 128.483272 
L 131.728115 128.483272 
L 131.728115 124.240632 
L 127.485475 124.240632 
z
" clip-path="url(#p129dde9f25)" style="fill: #44aa99; fill-opacity: 0.6; stroke: #ffffff; stroke-opacity: 0.6; stroke-width: 0.339411"/>
    <path d="M 125.461212 127.840377 
L 129.703853 127.840377 
L 129.703853 123.597736 
L 125.461212 123.597736 
z
" clip-path="url(#p129dde9f25)" style="fill: #44aa99; fill-opacity: 0.6; stroke: #ffffff; stroke-opacity: 0.6; stroke-width: 0.339411"/>
    <path d="M 159.197144 112.705649 
L 163.439785 112.705649 
L 163.439785 108.463009 
L 159.197144 108.463009 
z
" clip-path="url(#p129dde9f25)" style="fill: #44aa99; fill-opacity: 0.6; stroke: #ffffff; stroke-opacity: 0.6; stroke-width: 0.339411"/>
    <path d="M 101.718694 127.6547 
L 105.961334 127.6547 
L 105.961334 123.412059 
L 101.718694 123.412059 
z
" clip-path="url(#p129dde9f25)" style="fill: #44aa99; fill-opacity: 0.6; stroke: #ffffff; stroke-opacity: 0.6; stroke-width: 0.339411"/>
    <path d="M 160.441593 118.167253 
L 164.684233 118.167253 
L 164.684233 113.924612 
L 160.441593 113.924612 
z
" clip-path="url(#p129dde9f25)" style="fill: #44aa99; fill-opacity: 0.6; stroke: #ffffff; stroke-opacity: 0.6; stroke-width: 0.339411"/>
    <path d="M 106.709995 123.62817 
L 110.952636 123.62817 
L 110.952636 119.385529 
L 106.709995 119.385529 
z
" clip-path="url(#p129dde9f25)" style="fill: #44aa99; fill-opacity: 0.6; stroke: #ffffff; stroke-opacity: 0.6; stroke-width: 0.339411"/>
    <path d="M 150.884235 123.840217 
L 155.126876 123.840217 
L 155.126876 119.597577 
L 150.884235 119.597577 
z
" clip-path="url(#p129dde9f25)" style="fill: #44aa99; fill-opacity: 0.6; stroke: #ffffff; stroke-opacity: 0.6; stroke-width: 0.339411"/>
    <path d="M 156.606458 125.281309 
L 160.849099 125.281309 
L 160.849099 121.038669 
L 156.606458 121.038669 
z
" clip-path="url(#p129dde9f25)" style="fill: #44aa99; fill-opacity: 0.6; stroke: #ffffff; stroke-opacity: 0.6; stroke-width: 0.339411"/>
    <path d="M 147.631103 105.848916 
L 151.873744 105.848916 
L 151.873744 101.606276 
L 147.631103 101.606276 
z
" clip-path="url(#p129dde9f25)" style="fill: #44aa99; fill-opacity: 0.6; stroke: #ffffff; stroke-opacity: 0.6; stroke-width: 0.339411"/>
    <path d="M 116.511156 120.207255 
L 120.753796 120.207255 
L 120.753796 115.964614 
L 116.511156 115.964614 
z
" clip-path="url(#p129dde9f25)" style="fill: #44aa99; fill-opacity: 0.6; stroke: #ffffff; stroke-opacity: 0.6; stroke-width: 0.339411"/>
    <path d="M 134.015367 114.61614 
L 138.258008 114.61614 
L 138.258008 110.3735 
L 134.015367 110.3735 
z
" clip-path="url(#p129dde9f25)" style="fill: #44aa99; fill-opacity: 0.6; stroke: #ffffff; stroke-opacity: 0.6; stroke-width: 0.339411"/>
    <path d="M 141.383325 114.688339 
L 145.625966 114.688339 
L 145.625966 110.445698 
L 141.383325 110.445698 
z
" clip-path="url(#p129dde9f25)" style="fill: #44aa99; fill-opacity: 0.6; stroke: #ffffff; stroke-opacity: 0.6; stroke-width: 0.339411"/>
    <path d="M 123.449846 157.982999 
L 124.510506 156.922339 
L 125.571166 157.982999 
L 126.631826 156.922339 
L 125.571166 155.861679 
L 126.631826 154.801018 
L 125.571166 153.740358 
L 124.510506 154.801018 
L 123.449846 153.740358 
L 122.389186 154.801018 
L 123.449846 155.861679 
L 122.389186 156.922339 
z
" clip-path="url(#p129dde9f25)" style="fill: #88ccee; fill-opacity: 0.6; stroke: #ffffff; stroke-opacity: 0.6; stroke-width: 0.339411"/>
    <path d="M 131.851662 164.457575 
L 132.912322 163.396915 
L 133.972982 164.457575 
L 135.033642 163.396915 
L 133.972982 162.336254 
L 135.033642 161.275594 
L 133.972982 160.214934 
L 132.912322 161.275594 
L 131.851662 160.214934 
L 130.791002 161.275594 
L 131.851662 162.336254 
L 130.791002 163.396915 
z
" clip-path="url(#p129dde9f25)" style="fill: #88ccee; fill-opacity: 0.6; stroke: #ffffff; stroke-opacity: 0.6; stroke-width: 0.339411"/>
    <path d="M 127.005861 168.345712 
L 128.066521 167.285051 
L 129.127181 168.345712 
L 130.187841 167.285051 
L 129.127181 166.224391 
L 130.187841 165.163731 
L 129.127181 164.103071 
L 128.066521 165.163731 
L 127.005861 164.103071 
L 125.9452 165.163731 
L 127.005861 166.224391 
L 125.9452 167.285051 
z
" clip-path="url(#p129dde9f25)" style="fill: #88ccee; fill-opacity: 0.6; stroke: #ffffff; stroke-opacity: 0.6; stroke-width: 0.339411"/>
    <path d="M 106.692775 158.055651 
L 107.753435 156.994991 
L 108.814095 158.055651 
L 109.874756 156.994991 
L 108.814095 155.934331 
L 109.874756 154.873671 
L 108.814095 153.81301 
L 107.753435 154.873671 
L 106.692775 153.81301 
L 105.632115 154.873671 
L 106.692775 155.934331 
L 105.632115 156.994991 
z
" clip-path="url(#p129dde9f25)" style="fill: #88ccee; fill-opacity: 0.6; stroke: #ffffff; stroke-opacity: 0.6; stroke-width: 0.339411"/>
    <path d="M 145.53276 163.725643 
L 146.59342 162.664982 
L 147.65408 163.725643 
L 148.714741 162.664982 
L 147.65408 161.604322 
L 148.714741 160.543662 
L 147.65408 159.483002 
L 146.59342 160.543662 
L 145.53276 159.483002 
L 144.4721 160.543662 
L 145.53276 161.604322 
L 144.4721 162.664982 
z
" clip-path="url(#p129dde9f25)" style="fill: #88ccee; fill-opacity: 0.6; stroke: #ffffff; stroke-opacity: 0.6; stroke-width: 0.339411"/>
    <path d="M 179.558131 93.375788 
L 180.618791 92.315128 
L 181.679451 93.375788 
L 182.740111 92.315128 
L 181.679451 91.254468 
L 182.740111 90.193808 
L 181.679451 89.133148 
L 180.618791 90.193808 
L 179.558131 89.133148 
L 178.49747 90.193808 
L 179.558131 91.254468 
L 178.49747 92.315128 
z
" clip-path="url(#p129dde9f25)" style="fill: #88ccee; fill-opacity: 0.6; stroke: #ffffff; stroke-opacity: 0.6; stroke-width: 0.339411"/>
    <path d="M 108.663654 151.94125 
L 109.724314 150.88059 
L 110.784974 151.94125 
L 111.845634 150.88059 
L 110.784974 149.819929 
L 111.845634 148.759269 
L 110.784974 147.698609 
L 109.724314 148.759269 
L 108.663654 147.698609 
L 107.602994 148.759269 
L 108.663654 149.819929 
L 107.602994 150.88059 
z
" clip-path="url(#p129dde9f25)" style="fill: #88ccee; fill-opacity: 0.6; stroke: #ffffff; stroke-opacity: 0.6; stroke-width: 0.339411"/>
    <path d="M 129.224832 171.387313 
L 130.285492 170.326653 
L 131.346152 171.387313 
L 132.406812 170.326653 
L 131.346152 169.265992 
L 132.406812 168.205332 
L 131.346152 167.144672 
L 130.285492 168.205332 
L 129.224832 167.144672 
L 128.164172 168.205332 
L 129.224832 169.265992 
L 128.164172 170.326653 
z
" clip-path="url(#p129dde9f25)" style="fill: #88ccee; fill-opacity: 0.6; stroke: #ffffff; stroke-opacity: 0.6; stroke-width: 0.339411"/>
    <path d="M 105.858702 147.746454 
L 106.919362 146.685794 
L 107.980022 147.746454 
L 109.040683 146.685794 
L 107.980022 145.625134 
L 109.040683 144.564473 
L 107.980022 143.503813 
L 106.919362 144.564473 
L 105.858702 143.503813 
L 104.798042 144.564473 
L 105.858702 145.625134 
L 104.798042 146.685794 
z
" clip-path="url(#p129dde9f25)" style="fill: #88ccee; fill-opacity: 0.6; stroke: #ffffff; stroke-opacity: 0.6; stroke-width: 0.339411"/>
    <path d="M 195.92604 92.136935 
L 196.9867 91.076275 
L 198.04736 92.136935 
L 199.108021 91.076275 
L 198.04736 90.015615 
L 199.108021 88.954955 
L 198.04736 87.894294 
L 196.9867 88.954955 
L 195.92604 87.894294 
L 194.86538 88.954955 
L 195.92604 90.015615 
L 194.86538 91.076275 
z
" clip-path="url(#p129dde9f25)" style="fill: #88ccee; fill-opacity: 0.6; stroke: #ffffff; stroke-opacity: 0.6; stroke-width: 0.339411"/>
    <path d="M 129.934606 159.530837 
L 130.995267 158.470177 
L 132.055927 159.530837 
L 133.116587 158.470177 
L 132.055927 157.409516 
L 133.116587 156.348856 
L 132.055927 155.288196 
L 130.995267 156.348856 
L 129.934606 155.288196 
L 128.873946 156.348856 
L 129.934606 157.409516 
L 128.873946 158.470177 
z
" clip-path="url(#p129dde9f25)" style="fill: #88ccee; fill-opacity: 0.6; stroke: #ffffff; stroke-opacity: 0.6; stroke-width: 0.339411"/>
    <path d="M 128.403298 122.446299 
L 129.463958 121.385639 
L 130.524618 122.446299 
L 131.585279 121.385639 
L 130.524618 120.324979 
L 131.585279 119.264319 
L 130.524618 118.203659 
L 129.463958 119.264319 
L 128.403298 118.203659 
L 127.342638 119.264319 
L 128.403298 120.324979 
L 127.342638 121.385639 
z
" clip-path="url(#p129dde9f25)" style="fill: #88ccee; fill-opacity: 0.6; stroke: #ffffff; stroke-opacity: 0.6; stroke-width: 0.339411"/>
    <path d="M 150.244943 158.742753 
L 151.305604 157.682093 
L 152.366264 158.742753 
L 153.426924 157.682093 
L 152.366264 156.621433 
L 153.426924 155.560773 
L 152.366264 154.500113 
L 151.305604 155.560773 
L 150.244943 154.500113 
L 149.184283 155.560773 
L 150.244943 156.621433 
L 149.184283 157.682093 
z
" clip-path="url(#p129dde9f25)" style="fill: #88ccee; fill-opacity: 0.6; stroke: #ffffff; stroke-opacity: 0.6; stroke-width: 0.339411"/>
    <path d="M 143.567043 165.340563 
L 144.627703 164.279903 
L 145.688364 165.340563 
L 146.749024 164.279903 
L 145.688364 163.219243 
L 146.749024 162.158583 
L 145.688364 161.097922 
L 144.627703 162.158583 
L 143.567043 161.097922 
L 142.506383 162.158583 
L 143.567043 163.219243 
L 142.506383 164.279903 
z
" clip-path="url(#p129dde9f25)" style="fill: #88ccee; fill-opacity: 0.6; stroke: #ffffff; stroke-opacity: 0.6; stroke-width: 0.339411"/>
    <path d="M 106.612909 160.628499 
L 107.673569 159.567839 
L 108.734229 160.628499 
L 109.794889 159.567839 
L 108.734229 158.507179 
L 109.794889 157.446518 
L 108.734229 156.385858 
L 107.673569 157.446518 
L 106.612909 156.385858 
L 105.552249 157.446518 
L 106.612909 158.507179 
L 105.552249 159.567839 
z
" clip-path="url(#p129dde9f25)" style="fill: #88ccee; fill-opacity: 0.6; stroke: #ffffff; stroke-opacity: 0.6; stroke-width: 0.339411"/>
    <path d="M 130.995553 172.84189 
L 132.056213 171.78123 
L 133.116873 172.84189 
L 134.177533 171.78123 
L 133.116873 170.720569 
L 134.177533 169.659909 
L 133.116873 168.599249 
L 132.056213 169.659909 
L 130.995553 168.599249 
L 129.934893 169.659909 
L 130.995553 170.720569 
L 129.934893 171.78123 
z
" clip-path="url(#p129dde9f25)" style="fill: #88ccee; fill-opacity: 0.6; stroke: #ffffff; stroke-opacity: 0.6; stroke-width: 0.339411"/>
    <path d="M 137.385798 173.476124 
L 138.446459 172.415464 
L 139.507119 173.476124 
L 140.567779 172.415464 
L 139.507119 171.354803 
L 140.567779 170.294143 
L 139.507119 169.233483 
L 138.446459 170.294143 
L 137.385798 169.233483 
L 136.325138 170.294143 
L 137.385798 171.354803 
L 136.325138 172.415464 
z
" clip-path="url(#p129dde9f25)" style="fill: #88ccee; fill-opacity: 0.6; stroke: #ffffff; stroke-opacity: 0.6; stroke-width: 0.339411"/>
    <path d="M 114.517879 145.473743 
L 115.578539 144.413082 
L 116.6392 145.473743 
L 117.69986 144.413082 
L 116.6392 143.352422 
L 117.69986 142.291762 
L 116.6392 141.231102 
L 115.578539 142.291762 
L 114.517879 141.231102 
L 113.457219 142.291762 
L 114.517879 143.352422 
L 113.457219 144.413082 
z
" clip-path="url(#p129dde9f25)" style="fill: #88ccee; fill-opacity: 0.6; stroke: #ffffff; stroke-opacity: 0.6; stroke-width: 0.339411"/>
    <path d="M 136.951285 177.156257 
L 138.011945 176.095597 
L 139.072605 177.156257 
L 140.133265 176.095597 
L 139.072605 175.034937 
L 140.133265 173.974276 
L 139.072605 172.913616 
L 138.011945 173.974276 
L 136.951285 172.913616 
L 135.890625 173.974276 
L 136.951285 175.034937 
L 135.890625 176.095597 
z
" clip-path="url(#p129dde9f25)" style="fill: #88ccee; fill-opacity: 0.6; stroke: #ffffff; stroke-opacity: 0.6; stroke-width: 0.339411"/>
    <path d="M 129.062405 166.518814 
L 130.123065 165.458154 
L 131.183725 166.518814 
L 132.244385 165.458154 
L 131.183725 164.397493 
L 132.244385 163.336833 
L 131.183725 162.276173 
L 130.123065 163.336833 
L 129.062405 162.276173 
L 128.001744 163.336833 
L 129.062405 164.397493 
L 128.001744 165.458154 
z
" clip-path="url(#p129dde9f25)" style="fill: #88ccee; fill-opacity: 0.6; stroke: #ffffff; stroke-opacity: 0.6; stroke-width: 0.339411"/>
    <path d="M 130.726221 157.317711 
L 131.786881 156.257051 
L 132.847542 157.317711 
L 133.908202 156.257051 
L 132.847542 155.196391 
L 133.908202 154.135731 
L 132.847542 153.07507 
L 131.786881 154.135731 
L 130.726221 153.07507 
L 129.665561 154.135731 
L 130.726221 155.196391 
L 129.665561 156.257051 
z
" clip-path="url(#p129dde9f25)" style="fill: #88ccee; fill-opacity: 0.6; stroke: #ffffff; stroke-opacity: 0.6; stroke-width: 0.339411"/>
    <path d="M 102.339535 159.038261 
L 103.400195 157.9776 
L 104.460856 159.038261 
L 105.521516 157.9776 
L 104.460856 156.91694 
L 105.521516 155.85628 
L 104.460856 154.79562 
L 103.400195 155.85628 
L 102.339535 154.79562 
L 101.278875 155.85628 
L 102.339535 156.91694 
L 101.278875 157.9776 
z
" clip-path="url(#p129dde9f25)" style="fill: #88ccee; fill-opacity: 0.6; stroke: #ffffff; stroke-opacity: 0.6; stroke-width: 0.339411"/>
    <path d="M 121.098212 160.336092 
L 122.158872 159.275432 
L 123.219532 160.336092 
L 124.280193 159.275432 
L 123.219532 158.214772 
L 124.280193 157.154112 
L 123.219532 156.093452 
L 122.158872 157.154112 
L 121.098212 156.093452 
L 120.037552 157.154112 
L 121.098212 158.214772 
L 120.037552 159.275432 
z
" clip-path="url(#p129dde9f25)" style="fill: #88ccee; fill-opacity: 0.6; stroke: #ffffff; stroke-opacity: 0.6; stroke-width: 0.339411"/>
    <path d="M 141.45906 179.685979 
L 142.51972 178.625319 
L 143.58038 179.685979 
L 144.641041 178.625319 
L 143.58038 177.564659 
L 144.641041 176.503998 
L 143.58038 175.443338 
L 142.51972 176.503998 
L 141.45906 175.443338 
L 140.3984 176.503998 
L 141.45906 177.564659 
L 140.3984 178.625319 
z
" clip-path="url(#p129dde9f25)" style="fill: #88ccee; fill-opacity: 0.6; stroke: #ffffff; stroke-opacity: 0.6; stroke-width: 0.339411"/>
    <path d="M 135.738538 169.643947 
L 136.799199 168.583287 
L 137.859859 169.643947 
L 138.920519 168.583287 
L 137.859859 167.522627 
L 138.920519 166.461967 
L 137.859859 165.401307 
L 136.799199 166.461967 
L 135.738538 165.401307 
L 134.677878 166.461967 
L 135.738538 167.522627 
L 134.677878 168.583287 
z
" clip-path="url(#p129dde9f25)" style="fill: #88ccee; fill-opacity: 0.6; stroke: #ffffff; stroke-opacity: 0.6; stroke-width: 0.339411"/>
    <path d="M 148.079472 145.414761 
L 149.140133 144.354101 
L 150.200793 145.414761 
L 151.261453 144.354101 
L 150.200793 143.293441 
L 151.261453 142.232781 
L 150.200793 141.172121 
L 149.140133 142.232781 
L 148.079472 141.172121 
L 147.018812 142.232781 
L 148.079472 143.293441 
L 147.018812 144.354101 
z
" clip-path="url(#p129dde9f25)" style="fill: #88ccee; fill-opacity: 0.6; stroke: #ffffff; stroke-opacity: 0.6; stroke-width: 0.339411"/>
    <path d="M 143.756583 158.437845 
L 144.817243 157.377185 
L 145.877903 158.437845 
L 146.938564 157.377185 
L 145.877903 156.316525 
L 146.938564 155.255865 
L 145.877903 154.195205 
L 144.817243 155.255865 
L 143.756583 154.195205 
L 142.695923 155.255865 
L 143.756583 156.316525 
L 142.695923 157.377185 
z
" clip-path="url(#p129dde9f25)" style="fill: #88ccee; fill-opacity: 0.6; stroke: #ffffff; stroke-opacity: 0.6; stroke-width: 0.339411"/>
    <path d="M 139.238587 178.778334 
L 140.299247 177.717674 
L 141.359908 178.778334 
L 142.420568 177.717674 
L 141.359908 176.657014 
L 142.420568 175.596354 
L 141.359908 174.535694 
L 140.299247 175.596354 
L 139.238587 174.535694 
L 138.177927 175.596354 
L 139.238587 176.657014 
L 138.177927 177.717674 
z
" clip-path="url(#p129dde9f25)" style="fill: #88ccee; fill-opacity: 0.6; stroke: #ffffff; stroke-opacity: 0.6; stroke-width: 0.339411"/>
    <path d="M 127.296558 153.127238 
L 128.357218 152.066577 
L 129.417878 153.127238 
L 130.478538 152.066577 
L 129.417878 151.005917 
L 130.478538 149.945257 
L 129.417878 148.884597 
L 128.357218 149.945257 
L 127.296558 148.884597 
L 126.235897 149.945257 
L 127.296558 151.005917 
L 126.235897 152.066577 
z
" clip-path="url(#p129dde9f25)" style="fill: #88ccee; fill-opacity: 0.6; stroke: #ffffff; stroke-opacity: 0.6; stroke-width: 0.339411"/>
    <path d="M 152.487669 150.036267 
L 153.548329 148.975607 
L 154.60899 150.036267 
L 155.66965 148.975607 
L 154.60899 147.914946 
L 155.66965 146.854286 
L 154.60899 145.793626 
L 153.548329 146.854286 
L 152.487669 145.793626 
L 151.427009 146.854286 
L 152.487669 147.914946 
L 151.427009 148.975607 
z
" clip-path="url(#p129dde9f25)" style="fill: #88ccee; fill-opacity: 0.6; stroke: #ffffff; stroke-opacity: 0.6; stroke-width: 0.339411"/>
    <path d="M 111.369895 146.40303 
L 112.430555 145.34237 
L 113.491215 146.40303 
L 114.551875 145.34237 
L 113.491215 144.28171 
L 114.551875 143.221049 
L 113.491215 142.160389 
L 112.430555 143.221049 
L 111.369895 142.160389 
L 110.309235 143.221049 
L 111.369895 144.28171 
L 110.309235 145.34237 
z
" clip-path="url(#p129dde9f25)" style="fill: #88ccee; fill-opacity: 0.6; stroke: #ffffff; stroke-opacity: 0.6; stroke-width: 0.339411"/>
    <path d="M 127.760774 179.334213 
L 128.821434 178.273553 
L 129.882094 179.334213 
L 130.942754 178.273553 
L 129.882094 177.212892 
L 130.942754 176.152232 
L 129.882094 175.091572 
L 128.821434 176.152232 
L 127.760774 175.091572 
L 126.700114 176.152232 
L 127.760774 177.212892 
L 126.700114 178.273553 
z
" clip-path="url(#p129dde9f25)" style="fill: #88ccee; fill-opacity: 0.6; stroke: #ffffff; stroke-opacity: 0.6; stroke-width: 0.339411"/>
    <path d="M 102.537216 157.701586 
L 103.597876 156.640926 
L 104.658536 157.701586 
L 105.719196 156.640926 
L 104.658536 155.580266 
L 105.719196 154.519606 
L 104.658536 153.458946 
L 103.597876 154.519606 
L 102.537216 153.458946 
L 101.476556 154.519606 
L 102.537216 155.580266 
L 101.476556 156.640926 
z
" clip-path="url(#p129dde9f25)" style="fill: #88ccee; fill-opacity: 0.6; stroke: #ffffff; stroke-opacity: 0.6; stroke-width: 0.339411"/>
    <path d="M 184.455277 94.272647 
L 185.515937 93.211987 
L 186.576597 94.272647 
L 187.637257 93.211987 
L 186.576597 92.151326 
L 187.637257 91.090666 
L 186.576597 90.030006 
L 185.515937 91.090666 
L 184.455277 90.030006 
L 183.394617 91.090666 
L 184.455277 92.151326 
L 183.394617 93.211987 
z
" clip-path="url(#p129dde9f25)" style="fill: #88ccee; fill-opacity: 0.6; stroke: #ffffff; stroke-opacity: 0.6; stroke-width: 0.339411"/>
    <path d="M 133.580483 123.945191 
L 134.641143 122.88453 
L 135.701803 123.945191 
L 136.762463 122.88453 
L 135.701803 121.82387 
L 136.762463 120.76321 
L 135.701803 119.70255 
L 134.641143 120.76321 
L 133.580483 119.70255 
L 132.519823 120.76321 
L 133.580483 121.82387 
L 132.519823 122.88453 
z
" clip-path="url(#p129dde9f25)" style="fill: #88ccee; fill-opacity: 0.6; stroke: #ffffff; stroke-opacity: 0.6; stroke-width: 0.339411"/>
    <path d="M 136.310545 162.965623 
L 137.371206 161.904963 
L 138.431866 162.965623 
L 139.492526 161.904963 
L 138.431866 160.844303 
L 139.492526 159.783643 
L 138.431866 158.722983 
L 137.371206 159.783643 
L 136.310545 158.722983 
L 135.249885 159.783643 
L 136.310545 160.844303 
L 135.249885 161.904963 
z
" clip-path="url(#p129dde9f25)" style="fill: #88ccee; fill-opacity: 0.6; stroke: #ffffff; stroke-opacity: 0.6; stroke-width: 0.339411"/>
    <path d="M 107.880636 152.493527 
L 108.941296 151.432867 
L 110.001956 152.493527 
L 111.062616 151.432867 
L 110.001956 150.372207 
L 111.062616 149.311547 
L 110.001956 148.250886 
L 108.941296 149.311547 
L 107.880636 148.250886 
L 106.819976 149.311547 
L 107.880636 150.372207 
L 106.819976 151.432867 
z
" clip-path="url(#p129dde9f25)" style="fill: #88ccee; fill-opacity: 0.6; stroke: #ffffff; stroke-opacity: 0.6; stroke-width: 0.339411"/>
    <path d="M 176.882302 101.848677 
L 177.942962 100.788016 
L 179.003622 101.848677 
L 180.064283 100.788016 
L 179.003622 99.727356 
L 180.064283 98.666696 
L 179.003622 97.606036 
L 177.942962 98.666696 
L 176.882302 97.606036 
L 175.821642 98.666696 
L 176.882302 99.727356 
L 175.821642 100.788016 
z
" clip-path="url(#p129dde9f25)" style="fill: #88ccee; fill-opacity: 0.6; stroke: #ffffff; stroke-opacity: 0.6; stroke-width: 0.339411"/>
    <path d="M 112.029042 144.588794 
L 113.089703 143.528134 
L 114.150363 144.588794 
L 115.211023 143.528134 
L 114.150363 142.467474 
L 115.211023 141.406814 
L 114.150363 140.346154 
L 113.089703 141.406814 
L 112.029042 140.346154 
L 110.968382 141.406814 
L 112.029042 142.467474 
L 110.968382 143.528134 
z
" clip-path="url(#p129dde9f25)" style="fill: #88ccee; fill-opacity: 0.6; stroke: #ffffff; stroke-opacity: 0.6; stroke-width: 0.339411"/>
    <path d="M 142.894203 175.846725 
L 143.954864 174.786065 
L 145.015524 175.846725 
L 146.076184 174.786065 
L 145.015524 173.725405 
L 146.076184 172.664745 
L 145.015524 171.604085 
L 143.954864 172.664745 
L 142.894203 171.604085 
L 141.833543 172.664745 
L 142.894203 173.725405 
L 141.833543 174.786065 
z
" clip-path="url(#p129dde9f25)" style="fill: #88ccee; fill-opacity: 0.6; stroke: #ffffff; stroke-opacity: 0.6; stroke-width: 0.339411"/>
    <path d="M 141.855431 125.161602 
L 142.916092 124.100942 
L 143.976752 125.161602 
L 145.037412 124.100942 
L 143.976752 123.040282 
L 145.037412 121.979622 
L 143.976752 120.918962 
L 142.916092 121.979622 
L 141.855431 120.918962 
L 140.794771 121.979622 
L 141.855431 123.040282 
L 140.794771 124.100942 
z
" clip-path="url(#p129dde9f25)" style="fill: #88ccee; fill-opacity: 0.6; stroke: #ffffff; stroke-opacity: 0.6; stroke-width: 0.339411"/>
    <path d="M 145.431626 175.8762 
L 146.492286 174.81554 
L 147.552946 175.8762 
L 148.613606 174.81554 
L 147.552946 173.75488 
L 148.613606 172.69422 
L 147.552946 171.63356 
L 146.492286 172.69422 
L 145.431626 171.63356 
L 144.370965 172.69422 
L 145.431626 173.75488 
L 144.370965 174.81554 
z
" clip-path="url(#p129dde9f25)" style="fill: #88ccee; fill-opacity: 0.6; stroke: #ffffff; stroke-opacity: 0.6; stroke-width: 0.339411"/>
    <path d="M 105.003579 152.095145 
L 106.064239 151.034485 
L 107.124899 152.095145 
L 108.185559 151.034485 
L 107.124899 149.973824 
L 108.185559 148.913164 
L 107.124899 147.852504 
L 106.064239 148.913164 
L 105.003579 147.852504 
L 103.942918 148.913164 
L 105.003579 149.973824 
L 103.942918 151.034485 
z
" clip-path="url(#p129dde9f25)" style="fill: #88ccee; fill-opacity: 0.6; stroke: #ffffff; stroke-opacity: 0.6; stroke-width: 0.339411"/>
    <path d="M 120.15529 171.37631 
L 121.21595 170.31565 
L 122.27661 171.37631 
L 123.33727 170.31565 
L 122.27661 169.25499 
L 123.33727 168.19433 
L 122.27661 167.133669 
L 121.21595 168.19433 
L 120.15529 167.133669 
L 119.094629 168.19433 
L 120.15529 169.25499 
L 119.094629 170.31565 
z
" clip-path="url(#p129dde9f25)" style="fill: #88ccee; fill-opacity: 0.6; stroke: #ffffff; stroke-opacity: 0.6; stroke-width: 0.339411"/>
    <path d="M 129.612386 175.927425 
L 130.673047 174.866765 
L 131.733707 175.927425 
L 132.794367 174.866765 
L 131.733707 173.806104 
L 132.794367 172.745444 
L 131.733707 171.684784 
L 130.673047 172.745444 
L 129.612386 171.684784 
L 128.551726 172.745444 
L 129.612386 173.806104 
L 128.551726 174.866765 
z
" clip-path="url(#p129dde9f25)" style="fill: #88ccee; fill-opacity: 0.6; stroke: #ffffff; stroke-opacity: 0.6; stroke-width: 0.339411"/>
    <path d="M 123.100173 164.000552 
L 124.160833 162.939892 
L 125.221493 164.000552 
L 126.282154 162.939892 
L 125.221493 161.879232 
L 126.282154 160.818572 
L 125.221493 159.757912 
L 124.160833 160.818572 
L 123.100173 159.757912 
L 122.039513 160.818572 
L 123.100173 161.879232 
L 122.039513 162.939892 
z
" clip-path="url(#p129dde9f25)" style="fill: #88ccee; fill-opacity: 0.6; stroke: #ffffff; stroke-opacity: 0.6; stroke-width: 0.339411"/>
    <path d="M 102.664489 148.031803 
L 103.725149 146.971143 
L 104.785809 148.031803 
L 105.846469 146.971143 
L 104.785809 145.910483 
L 105.846469 144.849823 
L 104.785809 143.789163 
L 103.725149 144.849823 
L 102.664489 143.789163 
L 101.603829 144.849823 
L 102.664489 145.910483 
L 101.603829 146.971143 
z
" clip-path="url(#p129dde9f25)" style="fill: #88ccee; fill-opacity: 0.6; stroke: #ffffff; stroke-opacity: 0.6; stroke-width: 0.339411"/>
    <path d="M 129.366356 119.14731 
L 130.427016 118.08665 
L 131.487676 119.14731 
L 132.548336 118.08665 
L 131.487676 117.02599 
L 132.548336 115.965329 
L 131.487676 114.904669 
L 130.427016 115.965329 
L 129.366356 114.904669 
L 128.305696 115.965329 
L 129.366356 117.02599 
L 128.305696 118.08665 
z
" clip-path="url(#p129dde9f25)" style="fill: #88ccee; fill-opacity: 0.6; stroke: #ffffff; stroke-opacity: 0.6; stroke-width: 0.339411"/>
    <path d="M 126.069719 170.830444 
L 127.13038 169.769784 
L 128.19104 170.830444 
L 129.2517 169.769784 
L 128.19104 168.709124 
L 129.2517 167.648464 
L 128.19104 166.587804 
L 127.13038 167.648464 
L 126.069719 166.587804 
L 125.009059 167.648464 
L 126.069719 168.709124 
L 125.009059 169.769784 
z
" clip-path="url(#p129dde9f25)" style="fill: #88ccee; fill-opacity: 0.6; stroke: #ffffff; stroke-opacity: 0.6; stroke-width: 0.339411"/>
    <path d="M 135.929412 152.083272 
L 136.990072 151.022611 
L 138.050733 152.083272 
L 139.111393 151.022611 
L 138.050733 149.961951 
L 139.111393 148.901291 
L 138.050733 147.840631 
L 136.990072 148.901291 
L 135.929412 147.840631 
L 134.868752 148.901291 
L 135.929412 149.961951 
L 134.868752 151.022611 
z
" clip-path="url(#p129dde9f25)" style="fill: #88ccee; fill-opacity: 0.6; stroke: #ffffff; stroke-opacity: 0.6; stroke-width: 0.339411"/>
    <path d="M 109.68039 141.633338 
L 110.74105 140.572678 
L 111.80171 141.633338 
L 112.862371 140.572678 
L 111.80171 139.512018 
L 112.862371 138.451358 
L 111.80171 137.390698 
L 110.74105 138.451358 
L 109.68039 137.390698 
L 108.61973 138.451358 
L 109.68039 139.512018 
L 108.61973 140.572678 
z
" clip-path="url(#p129dde9f25)" style="fill: #88ccee; fill-opacity: 0.6; stroke: #ffffff; stroke-opacity: 0.6; stroke-width: 0.339411"/>
    <path d="M 152.424304 160.819683 
L 153.484965 159.759023 
L 154.545625 160.819683 
L 155.606285 159.759023 
L 154.545625 158.698362 
L 155.606285 157.637702 
L 154.545625 156.577042 
L 153.484965 157.637702 
L 152.424304 156.577042 
L 151.363644 157.637702 
L 152.424304 158.698362 
L 151.363644 159.759023 
z
" clip-path="url(#p129dde9f25)" style="fill: #88ccee; fill-opacity: 0.6; stroke: #ffffff; stroke-opacity: 0.6; stroke-width: 0.339411"/>
    <path d="M 121.067156 173.769187 
L 122.127816 172.708527 
L 123.188477 173.769187 
L 124.249137 172.708527 
L 123.188477 171.647867 
L 124.249137 170.587207 
L 123.188477 169.526547 
L 122.127816 170.587207 
L 121.067156 169.526547 
L 120.006496 170.587207 
L 121.067156 171.647867 
L 120.006496 172.708527 
z
" clip-path="url(#p129dde9f25)" style="fill: #88ccee; fill-opacity: 0.6; stroke: #ffffff; stroke-opacity: 0.6; stroke-width: 0.339411"/>
    <path d="M 124.135317 167.776725 
L 125.195977 166.716065 
L 126.256637 167.776725 
L 127.317297 166.716065 
L 126.256637 165.655405 
L 127.317297 164.594745 
L 126.256637 163.534085 
L 125.195977 164.594745 
L 124.135317 163.534085 
L 123.074657 164.594745 
L 124.135317 165.655405 
L 123.074657 166.716065 
z
" clip-path="url(#p129dde9f25)" style="fill: #88ccee; fill-opacity: 0.6; stroke: #ffffff; stroke-opacity: 0.6; stroke-width: 0.339411"/>
    <path d="M 118.906814 147.89171 
L 119.967475 146.83105 
L 121.028135 147.89171 
L 122.088795 146.83105 
L 121.028135 145.77039 
L 122.088795 144.709729 
L 121.028135 143.649069 
L 119.967475 144.709729 
L 118.906814 143.649069 
L 117.846154 144.709729 
L 118.906814 145.77039 
L 117.846154 146.83105 
z
" clip-path="url(#p129dde9f25)" style="fill: #88ccee; fill-opacity: 0.6; stroke: #ffffff; stroke-opacity: 0.6; stroke-width: 0.339411"/>
    <path d="M 127.355937 151.186311 
L 128.416597 150.125651 
L 129.477258 151.186311 
L 130.537918 150.125651 
L 129.477258 149.064991 
L 130.537918 148.00433 
L 129.477258 146.94367 
L 128.416597 148.00433 
L 127.355937 146.94367 
L 126.295277 148.00433 
L 127.355937 149.064991 
L 126.295277 150.125651 
z
" clip-path="url(#p129dde9f25)" style="fill: #88ccee; fill-opacity: 0.6; stroke: #ffffff; stroke-opacity: 0.6; stroke-width: 0.339411"/>
    <path d="M 124.01573 160.679698 
L 125.07639 159.619038 
L 126.13705 160.679698 
L 127.19771 159.619038 
L 126.13705 158.558377 
L 127.19771 157.497717 
L 126.13705 156.437057 
L 125.07639 157.497717 
L 124.01573 156.437057 
L 122.95507 157.497717 
L 124.01573 158.558377 
L 122.95507 159.619038 
z
" clip-path="url(#p129dde9f25)" style="fill: #88ccee; fill-opacity: 0.6; stroke: #ffffff; stroke-opacity: 0.6; stroke-width: 0.339411"/>
    <path d="M 135.08526 174.407643 
L 136.145921 173.346982 
L 137.206581 174.407643 
L 138.267241 173.346982 
L 137.206581 172.286322 
L 138.267241 171.225662 
L 137.206581 170.165002 
L 136.145921 171.225662 
L 135.08526 170.165002 
L 134.0246 171.225662 
L 135.08526 172.286322 
L 134.0246 173.346982 
z
" clip-path="url(#p129dde9f25)" style="fill: #88ccee; fill-opacity: 0.6; stroke: #ffffff; stroke-opacity: 0.6; stroke-width: 0.339411"/>
    <path d="M 143.635207 171.491827 
L 144.695867 170.431166 
L 145.756527 171.491827 
L 146.817187 170.431166 
L 145.756527 169.370506 
L 146.817187 168.309846 
L 145.756527 167.249186 
L 144.695867 168.309846 
L 143.635207 167.249186 
L 142.574547 168.309846 
L 143.635207 169.370506 
L 142.574547 170.431166 
z
" clip-path="url(#p129dde9f25)" style="fill: #88ccee; fill-opacity: 0.6; stroke: #ffffff; stroke-opacity: 0.6; stroke-width: 0.339411"/>
    <path d="M 138.256632 161.868672 
L 139.317292 160.808012 
L 140.377952 161.868672 
L 141.438612 160.808012 
L 140.377952 159.747352 
L 141.438612 158.686692 
L 140.377952 157.626032 
L 139.317292 158.686692 
L 138.256632 157.626032 
L 137.195972 158.686692 
L 138.256632 159.747352 
L 137.195972 160.808012 
z
" clip-path="url(#p129dde9f25)" style="fill: #88ccee; fill-opacity: 0.6; stroke: #ffffff; stroke-opacity: 0.6; stroke-width: 0.339411"/>
    <path d="M 146.589578 133.841805 
L 147.650238 132.781145 
L 148.710898 133.841805 
L 149.771558 132.781145 
L 148.710898 131.720485 
L 149.771558 130.659825 
L 148.710898 129.599165 
L 147.650238 130.659825 
L 146.589578 129.599165 
L 145.528917 130.659825 
L 146.589578 131.720485 
L 145.528917 132.781145 
z
" clip-path="url(#p129dde9f25)" style="fill: #88ccee; fill-opacity: 0.6; stroke: #ffffff; stroke-opacity: 0.6; stroke-width: 0.339411"/>
    <path d="M 120.613511 147.316863 
L 121.674171 146.256203 
L 122.734831 147.316863 
L 123.795491 146.256203 
L 122.734831 145.195542 
L 123.795491 144.134882 
L 122.734831 143.074222 
L 121.674171 144.134882 
L 120.613511 143.074222 
L 119.552851 144.134882 
L 120.613511 145.195542 
L 119.552851 146.256203 
z
" clip-path="url(#p129dde9f25)" style="fill: #88ccee; fill-opacity: 0.6; stroke: #ffffff; stroke-opacity: 0.6; stroke-width: 0.339411"/>
    <path d="M 135.811284 174.802896 
L 136.871945 173.742236 
L 137.932605 174.802896 
L 138.993265 173.742236 
L 137.932605 172.681576 
L 138.993265 171.620915 
L 137.932605 170.560255 
L 136.871945 171.620915 
L 135.811284 170.560255 
L 134.750624 171.620915 
L 135.811284 172.681576 
L 134.750624 173.742236 
z
" clip-path="url(#p129dde9f25)" style="fill: #88ccee; fill-opacity: 0.6; stroke: #ffffff; stroke-opacity: 0.6; stroke-width: 0.339411"/>
    <path d="M 102.162426 155.408669 
L 103.223086 154.348009 
L 104.283746 155.408669 
L 105.344407 154.348009 
L 104.283746 153.287349 
L 105.344407 152.226688 
L 104.283746 151.166028 
L 103.223086 152.226688 
L 102.162426 151.166028 
L 101.101766 152.226688 
L 102.162426 153.287349 
L 101.101766 154.348009 
z
" clip-path="url(#p129dde9f25)" style="fill: #88ccee; fill-opacity: 0.6; stroke: #ffffff; stroke-opacity: 0.6; stroke-width: 0.339411"/>
   </g>
   <g id="matplotlib.axis_1">
    <g id="xtick_1">
     <g id="line2d_1">
      <defs>
       <path id="m70f6ebf57c" d="M 0 0 
L 0 8 
" style="stroke: #000000"/>
      </defs>
      <g>
       <use xlink:href="#m70f6ebf57c" x="110.930703" y="192.727559" style="stroke: #000000"/>
      </g>
     </g>
     <g id="text_1">
      <!-- 0 -->
      <g transform="translate(107.113203 213.345684) scale(0.12 -0.12)">
       <defs>
        <path id="DejaVuSans-30" d="M 2034 4250 
Q 1547 4250 1301 3770 
Q 1056 3291 1056 2328 
Q 1056 1369 1301 889 
Q 1547 409 2034 409 
Q 2525 409 2770 889 
Q 3016 1369 3016 2328 
Q 3016 3291 2770 3770 
Q 2525 4250 2034 4250 
z
M 2034 4750 
Q 2819 4750 3233 4129 
Q 3647 3509 3647 2328 
Q 3647 1150 3233 529 
Q 2819 -91 2034 -91 
Q 1250 -91 836 529 
Q 422 1150 422 2328 
Q 422 3509 836 4129 
Q 1250 4750 2034 4750 
z
" transform="scale(0.015625)"/>
       </defs>
       <use xlink:href="#DejaVuSans-30"/>
      </g>
     </g>
    </g>
    <g id="text_2">
     <!-- UMAP 1 -->
     <g transform="translate(111.697842 228.959434) scale(0.12 -0.12)">
      <defs>
       <path id="DejaVuSans-55" d="M 556 4666 
L 1191 4666 
L 1191 1831 
Q 1191 1081 1462 751 
Q 1734 422 2344 422 
Q 2950 422 3222 751 
Q 3494 1081 3494 1831 
L 3494 4666 
L 4128 4666 
L 4128 1753 
Q 4128 841 3676 375 
Q 3225 -91 2344 -91 
Q 1459 -91 1007 375 
Q 556 841 556 1753 
L 556 4666 
z
" transform="scale(0.015625)"/>
       <path id="DejaVuSans-4d" d="M 628 4666 
L 1569 4666 
L 2759 1491 
L 3956 4666 
L 4897 4666 
L 4897 0 
L 4281 0 
L 4281 4097 
L 3078 897 
L 2444 897 
L 1241 4097 
L 1241 0 
L 628 0 
L 628 4666 
z
" transform="scale(0.015625)"/>
       <path id="DejaVuSans-41" d="M 2188 4044 
L 1331 1722 
L 3047 1722 
L 2188 4044 
z
M 1831 4666 
L 2547 4666 
L 4325 0 
L 3669 0 
L 3244 1197 
L 1141 1197 
L 716 0 
L 50 0 
L 1831 4666 
z
" transform="scale(0.015625)"/>
       <path id="DejaVuSans-50" d="M 1259 4147 
L 1259 2394 
L 2053 2394 
Q 2494 2394 2734 2622 
Q 2975 2850 2975 3272 
Q 2975 3691 2734 3919 
Q 2494 4147 2053 4147 
L 1259 4147 
z
M 628 4666 
L 2053 4666 
Q 2838 4666 3239 4311 
Q 3641 3956 3641 3272 
Q 3641 2581 3239 2228 
Q 2838 1875 2053 1875 
L 1259 1875 
L 1259 0 
L 628 0 
L 628 4666 
z
" transform="scale(0.015625)"/>
       <path id="DejaVuSans-20" transform="scale(0.015625)"/>
       <path id="DejaVuSans-31" d="M 794 531 
L 1825 531 
L 1825 4091 
L 703 3866 
L 703 4441 
L 1819 4666 
L 2450 4666 
L 2450 531 
L 3481 531 
L 3481 0 
L 794 0 
L 794 531 
z
" transform="scale(0.015625)"/>
      </defs>
      <use xlink:href="#DejaVuSans-55"/>
      <use xlink:href="#DejaVuSans-4d" x="73.193359"/>
      <use xlink:href="#DejaVuSans-41" x="159.472656"/>
      <use xlink:href="#DejaVuSans-50" x="227.880859"/>
      <use xlink:href="#DejaVuSans-20" x="288.183594"/>
      <use xlink:href="#DejaVuSans-31" x="319.970703"/>
     </g>
    </g>
   </g>
   <g id="matplotlib.axis_2">
    <g id="ytick_1">
     <g id="line2d_2">
      <defs>
       <path id="m3c619373be" d="M 0 0 
L -8 0 
" style="stroke: #000000"/>
      </defs>
      <g>
       <use xlink:href="#m3c619373be" x="41.94875" y="123.745606" style="stroke: #000000"/>
      </g>
     </g>
     <g id="text_3">
      <!-- 0 -->
      <g transform="translate(22.81375 128.304669) scale(0.12 -0.12)">
       <use xlink:href="#DejaVuSans-30"/>
      </g>
     </g>
    </g>
    <g id="text_4">
     <!-- UMAP 2 -->
     <g transform="translate(16.318125 122.978467) rotate(-90) scale(0.12 -0.12)">
      <defs>
       <path id="DejaVuSans-32" d="M 1228 531 
L 3431 531 
L 3431 0 
L 469 0 
L 469 531 
Q 828 903 1448 1529 
Q 2069 2156 2228 2338 
Q 2531 2678 2651 2914 
Q 2772 3150 2772 3378 
Q 2772 3750 2511 3984 
Q 2250 4219 1831 4219 
Q 1534 4219 1204 4116 
Q 875 4013 500 3803 
L 500 4441 
Q 881 4594 1212 4672 
Q 1544 4750 1819 4750 
Q 2544 4750 2975 4387 
Q 3406 4025 3406 3419 
Q 3406 3131 3298 2873 
Q 3191 2616 2906 2266 
Q 2828 2175 2409 1742 
Q 1991 1309 1228 531 
z
" transform="scale(0.015625)"/>
      </defs>
      <use xlink:href="#DejaVuSans-55"/>
      <use xlink:href="#DejaVuSans-4d" x="73.193359"/>
      <use xlink:href="#DejaVuSans-41" x="159.472656"/>
      <use xlink:href="#DejaVuSans-50" x="227.880859"/>
      <use xlink:href="#DejaVuSans-20" x="288.183594"/>
      <use xlink:href="#DejaVuSans-32" x="319.970703"/>
     </g>
    </g>
   </g>
   <g id="patch_3">
    <path d="M 41.94875 192.727559 
L 41.94875 7.2 
" style="fill: none; stroke: #000000; stroke-width: 2; stroke-linejoin: miter; stroke-linecap: square"/>
   </g>
   <g id="patch_4">
    <path d="M 41.94875 192.727559 
L 227.476309 192.727559 
" style="fill: none; stroke: #000000; stroke-width: 2; stroke-linejoin: miter; stroke-linecap: square"/>
   </g>
  </g>
 </g>
 <defs>
  <clipPath id="p129dde9f25">
   <rect x="41.94875" y="7.2" width="185.527559" height="185.527559"/>
  </clipPath>
 </defs>
</svg>
