<?xml version="1.0" encoding="utf-8" standalone="no"?>
<!DOCTYPE svg PUBLIC "-//W3C//DTD SVG 1.1//EN"
  "http://www.w3.org/Graphics/SVG/1.1/DTD/svg11.dtd">
<svg xmlns:xlink="http://www.w3.org/1999/xlink" width="252.472275pt" height="238.655059pt" viewBox="0 0 252.472275 238.655059" xmlns="http://www.w3.org/2000/svg" version="1.1">
 <metadata>
  <rdf:RDF xmlns:dc="http://purl.org/dc/elements/1.1/" xmlns:cc="http://creativecommons.org/ns#" xmlns:rdf="http://www.w3.org/1999/02/22-rdf-syntax-ns#">
   <cc:Work>
    <dc:type rdf:resource="http://purl.org/dc/dcmitype/StillImage"/>
    <dc:date>2025-08-27T10:55:05.237729</dc:date>
    <dc:format>image/svg+xml</dc:format>
    <dc:creator>
     <cc:Agent>
      <dc:title>Matplotlib v3.6.2, https://matplotlib.org/</dc:title>
     </cc:Agent>
    </dc:creator>
   </cc:Work>
  </rdf:RDF>
 </metadata>
 <defs>
  <style type="text/css">*{stroke-linejoin: round; stroke-linecap: butt}</style>
 </defs>
 <g id="figure_1">
  <g id="patch_1">
   <path d="M 0 238.655059 
L 252.472275 238.655059 
L 252.472275 0 
L 0 0 
L 0 238.655059 
z
" style="fill: none"/>
  </g>
  <g id="axes_1">
   <g id="patch_2">
    <path d="M 59.639375 192.727559 
L 245.166934 192.727559 
L 245.166934 7.2 
L 59.639375 7.2 
L 59.639375 192.727559 
z
" style="fill: none"/>
   </g>
   <g id="PathCollection_1">
    <path d="M 77.624759 131.875309 
L 79.424759 128.875309 
L 77.624759 125.875309 
L 75.824759 128.875309 
z
" clip-path="url(#p594eb6bfa1)" style="fill: #332288; fill-opacity: 0.6; stroke: #ffffff; stroke-opacity: 0.6; stroke-width: 0.339411"/>
    <path d="M 146.281257 83.786227 
L 148.081257 80.786227 
L 146.281257 77.786227 
L 144.481257 80.786227 
z
" clip-path="url(#p594eb6bfa1)" style="fill: #332288; fill-opacity: 0.6; stroke: #ffffff; stroke-opacity: 0.6; stroke-width: 0.339411"/>
    <path d="M 78.71474 116.391073 
L 80.51474 113.391073 
L 78.71474 110.391073 
L 76.91474 113.391073 
z
" clip-path="url(#p594eb6bfa1)" style="fill: #332288; fill-opacity: 0.6; stroke: #ffffff; stroke-opacity: 0.6; stroke-width: 0.339411"/>
    <path d="M 123.770299 42.841637 
L 125.570299 39.841637 
L 123.770299 36.841637 
L 121.970299 39.841637 
z
" clip-path="url(#p594eb6bfa1)" style="fill: #332288; fill-opacity: 0.6; stroke: #ffffff; stroke-opacity: 0.6; stroke-width: 0.339411"/>
    <path d="M 91.798993 48.79204 
L 93.598993 45.79204 
L 91.798993 42.79204 
L 89.998993 45.79204 
z
" clip-path="url(#p594eb6bfa1)" style="fill: #332288; fill-opacity: 0.6; stroke: #ffffff; stroke-opacity: 0.6; stroke-width: 0.339411"/>
    <path d="M 186.983366 86.032713 
L 188.783366 83.032713 
L 186.983366 80.032713 
L 185.183366 83.032713 
z
" clip-path="url(#p594eb6bfa1)" style="fill: #332288; fill-opacity: 0.6; stroke: #ffffff; stroke-opacity: 0.6; stroke-width: 0.339411"/>
    <path d="M 80.273542 120.257088 
L 82.073542 117.257088 
L 80.273542 114.257088 
L 78.473542 117.257088 
z
" clip-path="url(#p594eb6bfa1)" style="fill: #332288; fill-opacity: 0.6; stroke: #ffffff; stroke-opacity: 0.6; stroke-width: 0.339411"/>
    <path d="M 117.944462 34.870963 
L 119.744462 31.870963 
L 117.944462 28.870963 
L 116.144462 31.870963 
z
" clip-path="url(#p594eb6bfa1)" style="fill: #332288; fill-opacity: 0.6; stroke: #ffffff; stroke-opacity: 0.6; stroke-width: 0.339411"/>
    <path d="M 78.71474 116.391073 
L 80.51474 113.391073 
L 78.71474 110.391073 
L 76.91474 113.391073 
z
" clip-path="url(#p594eb6bfa1)" style="fill: #332288; fill-opacity: 0.6; stroke: #ffffff; stroke-opacity: 0.6; stroke-width: 0.339411"/>
    <path d="M 119.828233 32.961194 
L 121.628233 29.961194 
L 119.828233 26.961194 
L 118.028233 29.961194 
z
" clip-path="url(#p594eb6bfa1)" style="fill: #332288; fill-opacity: 0.6; stroke: #ffffff; stroke-opacity: 0.6; stroke-width: 0.339411"/>
    <path d="M 100.691129 79.135061 
L 102.491129 76.135061 
L 100.691129 73.135061 
L 98.891129 76.135061 
z
" clip-path="url(#p594eb6bfa1)" style="fill: #332288; fill-opacity: 0.6; stroke: #ffffff; stroke-opacity: 0.6; stroke-width: 0.339411"/>
    <path d="M 82.323115 38.604049 
L 84.123115 35.604049 
L 82.323115 32.604049 
L 80.523115 35.604049 
z
" clip-path="url(#p594eb6bfa1)" style="fill: #332288; fill-opacity: 0.6; stroke: #ffffff; stroke-opacity: 0.6; stroke-width: 0.339411"/>
    <path d="M 110.127758 28.646115 
L 111.927758 25.646115 
L 110.127758 22.646115 
L 108.327758 25.646115 
z
" clip-path="url(#p594eb6bfa1)" style="fill: #332288; fill-opacity: 0.6; stroke: #ffffff; stroke-opacity: 0.6; stroke-width: 0.339411"/>
    <path d="M 82.323115 38.604049 
L 84.123115 35.604049 
L 82.323115 32.604049 
L 80.523115 35.604049 
z
" clip-path="url(#p594eb6bfa1)" style="fill: #332288; fill-opacity: 0.6; stroke: #ffffff; stroke-opacity: 0.6; stroke-width: 0.339411"/>
    <path d="M 108.672055 161.736941 
L 110.472055 158.736941 
L 108.672055 155.736941 
L 106.872055 158.736941 
z
" clip-path="url(#p594eb6bfa1)" style="fill: #332288; fill-opacity: 0.6; stroke: #ffffff; stroke-opacity: 0.6; stroke-width: 0.339411"/>
    <path d="M 102.085223 140.981632 
L 103.885223 137.981632 
L 102.085223 134.981632 
L 100.285223 137.981632 
z
" clip-path="url(#p594eb6bfa1)" style="fill: #332288; fill-opacity: 0.6; stroke: #ffffff; stroke-opacity: 0.6; stroke-width: 0.339411"/>
    <path d="M 99.726513 39.977982 
L 101.526513 36.977982 
L 99.726513 33.977982 
L 97.926513 36.977982 
z
" clip-path="url(#p594eb6bfa1)" style="fill: #332288; fill-opacity: 0.6; stroke: #ffffff; stroke-opacity: 0.6; stroke-width: 0.339411"/>
    <path d="M 187.923349 87.486177 
L 189.723349 84.486177 
L 187.923349 81.486177 
L 186.123349 84.486177 
z
" clip-path="url(#p594eb6bfa1)" style="fill: #332288; fill-opacity: 0.6; stroke: #ffffff; stroke-opacity: 0.6; stroke-width: 0.339411"/>
    <path d="M 89.006696 42.886675 
L 90.806696 39.886675 
L 89.006696 36.886675 
L 87.206696 39.886675 
z
" clip-path="url(#p594eb6bfa1)" style="fill: #332288; fill-opacity: 0.6; stroke: #ffffff; stroke-opacity: 0.6; stroke-width: 0.339411"/>
    <path d="M 100.509481 30.434895 
L 102.309481 27.434895 
L 100.509481 24.434895 
L 98.709481 27.434895 
z
" clip-path="url(#p594eb6bfa1)" style="fill: #332288; fill-opacity: 0.6; stroke: #ffffff; stroke-opacity: 0.6; stroke-width: 0.339411"/>
    <path d="M 175.801411 75.852221 
L 177.601411 72.852221 
L 175.801411 69.852221 
L 174.001411 72.852221 
z
" clip-path="url(#p594eb6bfa1)" style="fill: #332288; fill-opacity: 0.6; stroke: #ffffff; stroke-opacity: 0.6; stroke-width: 0.339411"/>
    <path d="M 139.42526 58.684612 
L 141.22526 55.684612 
L 139.42526 52.684612 
L 137.62526 55.684612 
z
" clip-path="url(#p594eb6bfa1)" style="fill: #332288; fill-opacity: 0.6; stroke: #ffffff; stroke-opacity: 0.6; stroke-width: 0.339411"/>
    <path d="M 106.86663 35.523193 
L 108.66663 32.523193 
L 106.86663 29.523193 
L 105.06663 32.523193 
z
" clip-path="url(#p594eb6bfa1)" style="fill: #332288; fill-opacity: 0.6; stroke: #ffffff; stroke-opacity: 0.6; stroke-width: 0.339411"/>
    <path d="M 102.692975 124.566073 
L 104.492975 121.566073 
L 102.692975 118.566073 
L 100.892975 121.566073 
z
" clip-path="url(#p594eb6bfa1)" style="fill: #332288; fill-opacity: 0.6; stroke: #ffffff; stroke-opacity: 0.6; stroke-width: 0.339411"/>
    <path d="M 78.050223 132.05282 
L 79.850223 129.05282 
L 78.050223 126.05282 
L 76.250223 129.05282 
z
" clip-path="url(#p594eb6bfa1)" style="fill: #332288; fill-opacity: 0.6; stroke: #ffffff; stroke-opacity: 0.6; stroke-width: 0.339411"/>
    <path d="M 172.78942 98.911925 
L 174.58942 95.911925 
L 172.78942 92.911925 
L 170.98942 95.911925 
z
" clip-path="url(#p594eb6bfa1)" style="fill: #332288; fill-opacity: 0.6; stroke: #ffffff; stroke-opacity: 0.6; stroke-width: 0.339411"/>
    <path d="M 80.528469 119.144363 
L 82.328469 116.144363 
L 80.528469 113.144363 
L 78.728469 116.144363 
z
" clip-path="url(#p594eb6bfa1)" style="fill: #332288; fill-opacity: 0.6; stroke: #ffffff; stroke-opacity: 0.6; stroke-width: 0.339411"/>
    <path d="M 108.144052 150.866398 
L 109.944052 147.866398 
L 108.144052 144.866398 
L 106.344052 147.866398 
z
" clip-path="url(#p594eb6bfa1)" style="fill: #332288; fill-opacity: 0.6; stroke: #ffffff; stroke-opacity: 0.6; stroke-width: 0.339411"/>
    <path d="M 79.126299 131.160306 
L 80.926299 128.160306 
L 79.126299 125.160306 
L 77.326299 128.160306 
z
" clip-path="url(#p594eb6bfa1)" style="fill: #332288; fill-opacity: 0.6; stroke: #ffffff; stroke-opacity: 0.6; stroke-width: 0.339411"/>
    <path d="M 171.261653 97.321557 
L 173.061653 94.321557 
L 171.261653 91.321557 
L 169.461653 94.321557 
z
" clip-path="url(#p594eb6bfa1)" style="fill: #332288; fill-opacity: 0.6; stroke: #ffffff; stroke-opacity: 0.6; stroke-width: 0.339411"/>
    <path d="M 100.598634 91.673565 
L 102.398634 88.673565 
L 100.598634 85.673565 
L 98.798634 88.673565 
z
" clip-path="url(#p594eb6bfa1)" style="fill: #332288; fill-opacity: 0.6; stroke: #ffffff; stroke-opacity: 0.6; stroke-width: 0.339411"/>
    <path d="M 79.717074 116.014335 
L 81.517074 113.014335 
L 79.717074 110.014335 
L 77.917074 113.014335 
z
" clip-path="url(#p594eb6bfa1)" style="fill: #332288; fill-opacity: 0.6; stroke: #ffffff; stroke-opacity: 0.6; stroke-width: 0.339411"/>
    <path d="M 186.670419 112.313673 
L 188.470419 109.313673 
L 186.670419 106.313673 
L 184.870419 109.313673 
z
" clip-path="url(#p594eb6bfa1)" style="fill: #332288; fill-opacity: 0.6; stroke: #ffffff; stroke-opacity: 0.6; stroke-width: 0.339411"/>
    <path d="M 97.842892 135.619468 
L 99.642892 132.619468 
L 97.842892 129.619468 
L 96.042892 132.619468 
z
" clip-path="url(#p594eb6bfa1)" style="fill: #332288; fill-opacity: 0.6; stroke: #ffffff; stroke-opacity: 0.6; stroke-width: 0.339411"/>
    <path d="M 106.86663 35.523193 
L 108.66663 32.523193 
L 106.86663 29.523193 
L 105.06663 32.523193 
z
" clip-path="url(#p594eb6bfa1)" style="fill: #332288; fill-opacity: 0.6; stroke: #ffffff; stroke-opacity: 0.6; stroke-width: 0.339411"/>
    <path d="M 122.758527 25.242293 
L 124.558527 22.242293 
L 122.758527 19.242293 
L 120.958527 22.242293 
z
" clip-path="url(#p594eb6bfa1)" style="fill: #332288; fill-opacity: 0.6; stroke: #ffffff; stroke-opacity: 0.6; stroke-width: 0.339411"/>
    <path d="M 110.576854 43.362453 
L 112.376854 40.362453 
L 110.576854 37.362453 
L 108.776854 40.362453 
z
" clip-path="url(#p594eb6bfa1)" style="fill: #332288; fill-opacity: 0.6; stroke: #ffffff; stroke-opacity: 0.6; stroke-width: 0.339411"/>
    <path d="M 81.153143 95.816528 
L 82.953143 92.816528 
L 81.153143 89.816528 
L 79.353143 92.816528 
z
" clip-path="url(#p594eb6bfa1)" style="fill: #332288; fill-opacity: 0.6; stroke: #ffffff; stroke-opacity: 0.6; stroke-width: 0.339411"/>
    <path d="M 92.599978 136.529683 
L 94.399978 133.529683 
L 92.599978 130.529683 
L 90.799978 133.529683 
z
" clip-path="url(#p594eb6bfa1)" style="fill: #332288; fill-opacity: 0.6; stroke: #ffffff; stroke-opacity: 0.6; stroke-width: 0.339411"/>
    <path d="M 97.609134 89.005627 
L 99.409134 86.005627 
L 97.609134 83.005627 
L 95.809134 86.005627 
z
" clip-path="url(#p594eb6bfa1)" style="fill: #332288; fill-opacity: 0.6; stroke: #ffffff; stroke-opacity: 0.6; stroke-width: 0.339411"/>
    <path d="M 97.93995 147.927037 
L 99.73995 144.927037 
L 97.93995 141.927037 
L 96.13995 144.927037 
z
" clip-path="url(#p594eb6bfa1)" style="fill: #332288; fill-opacity: 0.6; stroke: #ffffff; stroke-opacity: 0.6; stroke-width: 0.339411"/>
    <path d="M 78.71474 116.391073 
L 80.51474 113.391073 
L 78.71474 110.391073 
L 76.91474 113.391073 
z
" clip-path="url(#p594eb6bfa1)" style="fill: #332288; fill-opacity: 0.6; stroke: #ffffff; stroke-opacity: 0.6; stroke-width: 0.339411"/>
    <path d="M 95.349265 45.030295 
L 97.149265 42.030295 
L 95.349265 39.030295 
L 93.549265 42.030295 
z
" clip-path="url(#p594eb6bfa1)" style="fill: #332288; fill-opacity: 0.6; stroke: #ffffff; stroke-opacity: 0.6; stroke-width: 0.339411"/>
    <path d="M 93.095575 52.652278 
L 94.895575 49.652278 
L 93.095575 46.652278 
L 91.295575 49.652278 
z
" clip-path="url(#p594eb6bfa1)" style="fill: #332288; fill-opacity: 0.6; stroke: #ffffff; stroke-opacity: 0.6; stroke-width: 0.339411"/>
    <path d="M 118.555523 42.541022 
L 120.355523 39.541022 
L 118.555523 36.541022 
L 116.755523 39.541022 
z
" clip-path="url(#p594eb6bfa1)" style="fill: #332288; fill-opacity: 0.6; stroke: #ffffff; stroke-opacity: 0.6; stroke-width: 0.339411"/>
    <path d="M 100.284464 23.365162 
L 102.084464 20.365162 
L 100.284464 17.365162 
L 98.484464 20.365162 
z
" clip-path="url(#p594eb6bfa1)" style="fill: #332288; fill-opacity: 0.6; stroke: #ffffff; stroke-opacity: 0.6; stroke-width: 0.339411"/>
    <path d="M 89.967302 127.959297 
L 91.767302 124.959297 
L 89.967302 121.959297 
L 88.167302 124.959297 
z
" clip-path="url(#p594eb6bfa1)" style="fill: #332288; fill-opacity: 0.6; stroke: #ffffff; stroke-opacity: 0.6; stroke-width: 0.339411"/>
    <path d="M 104.062436 38.27562 
L 105.862436 35.27562 
L 104.062436 32.27562 
L 102.262436 35.27562 
z
" clip-path="url(#p594eb6bfa1)" style="fill: #332288; fill-opacity: 0.6; stroke: #ffffff; stroke-opacity: 0.6; stroke-width: 0.339411"/>
    <path d="M 175.801411 75.852221 
L 177.601411 72.852221 
L 175.801411 69.852221 
L 174.001411 72.852221 
z
" clip-path="url(#p594eb6bfa1)" style="fill: #332288; fill-opacity: 0.6; stroke: #ffffff; stroke-opacity: 0.6; stroke-width: 0.339411"/>
    <path d="M 89.967302 127.959297 
L 91.767302 124.959297 
L 89.967302 121.959297 
L 88.167302 124.959297 
z
" clip-path="url(#p594eb6bfa1)" style="fill: #332288; fill-opacity: 0.6; stroke: #ffffff; stroke-opacity: 0.6; stroke-width: 0.339411"/>
    <path d="M 98.631436 117.372215 
L 100.431436 114.372215 
L 98.631436 111.372215 
L 96.831436 114.372215 
z
" clip-path="url(#p594eb6bfa1)" style="fill: #332288; fill-opacity: 0.6; stroke: #ffffff; stroke-opacity: 0.6; stroke-width: 0.339411"/>
    <path d="M 100.724775 42.621712 
L 102.524775 39.621712 
L 100.724775 36.621712 
L 98.924775 39.621712 
z
" clip-path="url(#p594eb6bfa1)" style="fill: #332288; fill-opacity: 0.6; stroke: #ffffff; stroke-opacity: 0.6; stroke-width: 0.339411"/>
    <path d="M 79.814892 118.630244 
L 81.614892 115.630244 
L 79.814892 112.630244 
L 78.014892 115.630244 
z
" clip-path="url(#p594eb6bfa1)" style="fill: #332288; fill-opacity: 0.6; stroke: #ffffff; stroke-opacity: 0.6; stroke-width: 0.339411"/>
    <path d="M 122.759372 69.727951 
L 124.559372 66.727951 
L 122.759372 63.727951 
L 120.959372 66.727951 
z
" clip-path="url(#p594eb6bfa1)" style="fill: #332288; fill-opacity: 0.6; stroke: #ffffff; stroke-opacity: 0.6; stroke-width: 0.339411"/>
    <path d="M 100.057853 149.884964 
L 101.857853 146.884964 
L 100.057853 143.884964 
L 98.257853 146.884964 
z
" clip-path="url(#p594eb6bfa1)" style="fill: #332288; fill-opacity: 0.6; stroke: #ffffff; stroke-opacity: 0.6; stroke-width: 0.339411"/>
    <path d="M 93.773925 44.427382 
L 95.573925 41.427382 
L 93.773925 38.427382 
L 91.973925 41.427382 
z
" clip-path="url(#p594eb6bfa1)" style="fill: #332288; fill-opacity: 0.6; stroke: #ffffff; stroke-opacity: 0.6; stroke-width: 0.339411"/>
    <path d="M 96.639134 46.380254 
L 98.439134 43.380254 
L 96.639134 40.380254 
L 94.839134 43.380254 
z
" clip-path="url(#p594eb6bfa1)" style="fill: #332288; fill-opacity: 0.6; stroke: #ffffff; stroke-opacity: 0.6; stroke-width: 0.339411"/>
    <path d="M 142.320092 28.087354 
L 144.120092 25.087354 
L 142.320092 22.087354 
L 140.520092 25.087354 
z
" clip-path="url(#p594eb6bfa1)" style="fill: #332288; fill-opacity: 0.6; stroke: #ffffff; stroke-opacity: 0.6; stroke-width: 0.339411"/>
    <path d="M 98.263881 135.739924 
L 100.063881 132.739924 
L 98.263881 129.739924 
L 96.463881 132.739924 
z
" clip-path="url(#p594eb6bfa1)" style="fill: #332288; fill-opacity: 0.6; stroke: #ffffff; stroke-opacity: 0.6; stroke-width: 0.339411"/>
    <path d="M 131.754812 30.352043 
L 133.554812 27.352043 
L 131.754812 24.352043 
L 129.954812 27.352043 
z
" clip-path="url(#p594eb6bfa1)" style="fill: #332288; fill-opacity: 0.6; stroke: #ffffff; stroke-opacity: 0.6; stroke-width: 0.339411"/>
    <path d="M 100.617173 152.027394 
L 102.417173 149.027394 
L 100.617173 146.027394 
L 98.817173 149.027394 
z
" clip-path="url(#p594eb6bfa1)" style="fill: #332288; fill-opacity: 0.6; stroke: #ffffff; stroke-opacity: 0.6; stroke-width: 0.339411"/>
    <path d="M 79.814892 118.630244 
L 81.614892 115.630244 
L 79.814892 112.630244 
L 78.014892 115.630244 
z
" clip-path="url(#p594eb6bfa1)" style="fill: #332288; fill-opacity: 0.6; stroke: #ffffff; stroke-opacity: 0.6; stroke-width: 0.339411"/>
    <path d="M 177.347052 75.761973 
L 179.147052 72.761973 
L 177.347052 69.761973 
L 175.547052 72.761973 
z
" clip-path="url(#p594eb6bfa1)" style="fill: #332288; fill-opacity: 0.6; stroke: #ffffff; stroke-opacity: 0.6; stroke-width: 0.339411"/>
    <path d="M 99.726513 39.977982 
L 101.526513 36.977982 
L 99.726513 33.977982 
L 97.926513 36.977982 
z
" clip-path="url(#p594eb6bfa1)" style="fill: #332288; fill-opacity: 0.6; stroke: #ffffff; stroke-opacity: 0.6; stroke-width: 0.339411"/>
    <path d="M 92.461654 130.909225 
L 90.340333 135.151865 
L 94.582974 135.151865 
z
" clip-path="url(#p594eb6bfa1)" style="fill: #117733; fill-opacity: 0.6; stroke: #ffffff; stroke-opacity: 0.6; stroke-width: 0.339411"/>
    <path d="M 135.244702 120.818501 
L 133.123382 125.061142 
L 137.366022 125.061142 
z
" clip-path="url(#p594eb6bfa1)" style="fill: #117733; fill-opacity: 0.6; stroke: #ffffff; stroke-opacity: 0.6; stroke-width: 0.339411"/>
    <path d="M 148.921769 101.749121 
L 146.800449 105.991762 
L 151.04309 105.991762 
z
" clip-path="url(#p594eb6bfa1)" style="fill: #117733; fill-opacity: 0.6; stroke: #ffffff; stroke-opacity: 0.6; stroke-width: 0.339411"/>
    <path d="M 126.257941 96.90821 
L 124.136621 101.15085 
L 128.379261 101.15085 
z
" clip-path="url(#p594eb6bfa1)" style="fill: #117733; fill-opacity: 0.6; stroke: #ffffff; stroke-opacity: 0.6; stroke-width: 0.339411"/>
    <path d="M 143.013872 159.8886 
L 140.892552 164.131241 
L 145.135193 164.131241 
z
" clip-path="url(#p594eb6bfa1)" style="fill: #117733; fill-opacity: 0.6; stroke: #ffffff; stroke-opacity: 0.6; stroke-width: 0.339411"/>
    <path d="M 94.889459 126.452084 
L 92.768139 130.694725 
L 97.010779 130.694725 
z
" clip-path="url(#p594eb6bfa1)" style="fill: #117733; fill-opacity: 0.6; stroke: #ffffff; stroke-opacity: 0.6; stroke-width: 0.339411"/>
    <path d="M 165.919883 105.924773 
L 163.798563 110.167413 
L 168.041203 110.167413 
z
" clip-path="url(#p594eb6bfa1)" style="fill: #117733; fill-opacity: 0.6; stroke: #ffffff; stroke-opacity: 0.6; stroke-width: 0.339411"/>
    <path d="M 101.879934 130.720485 
L 99.758613 134.963125 
L 104.001254 134.963125 
z
" clip-path="url(#p594eb6bfa1)" style="fill: #117733; fill-opacity: 0.6; stroke: #ffffff; stroke-opacity: 0.6; stroke-width: 0.339411"/>
    <path d="M 153.708791 132.797213 
L 151.587471 137.039854 
L 155.830111 137.039854 
z
" clip-path="url(#p594eb6bfa1)" style="fill: #117733; fill-opacity: 0.6; stroke: #ffffff; stroke-opacity: 0.6; stroke-width: 0.339411"/>
    <path d="M 110.239391 132.432065 
L 108.11807 136.674706 
L 112.360711 136.674706 
z
" clip-path="url(#p594eb6bfa1)" style="fill: #117733; fill-opacity: 0.6; stroke: #ffffff; stroke-opacity: 0.6; stroke-width: 0.339411"/>
    <path d="M 137.569417 138.544862 
L 135.448097 142.787503 
L 139.690738 142.787503 
z
" clip-path="url(#p594eb6bfa1)" style="fill: #117733; fill-opacity: 0.6; stroke: #ffffff; stroke-opacity: 0.6; stroke-width: 0.339411"/>
    <path d="M 155.487967 169.560079 
L 153.366647 173.802719 
L 157.609288 173.802719 
z
" clip-path="url(#p594eb6bfa1)" style="fill: #117733; fill-opacity: 0.6; stroke: #ffffff; stroke-opacity: 0.6; stroke-width: 0.339411"/>
    <path d="M 119.703141 94.490041 
L 117.58182 98.732682 
L 121.824461 98.732682 
z
" clip-path="url(#p594eb6bfa1)" style="fill: #117733; fill-opacity: 0.6; stroke: #ffffff; stroke-opacity: 0.6; stroke-width: 0.339411"/>
    <path d="M 103.029378 117.412363 
L 100.908058 121.655003 
L 105.150699 121.655003 
z
" clip-path="url(#p594eb6bfa1)" style="fill: #117733; fill-opacity: 0.6; stroke: #ffffff; stroke-opacity: 0.6; stroke-width: 0.339411"/>
    <path d="M 111.163899 116.843866 
L 109.042579 121.086507 
L 113.28522 121.086507 
z
" clip-path="url(#p594eb6bfa1)" style="fill: #117733; fill-opacity: 0.6; stroke: #ffffff; stroke-opacity: 0.6; stroke-width: 0.339411"/>
    <path d="M 110.171187 114.254389 
L 108.049867 118.49703 
L 112.292508 118.49703 
z
" clip-path="url(#p594eb6bfa1)" style="fill: #117733; fill-opacity: 0.6; stroke: #ffffff; stroke-opacity: 0.6; stroke-width: 0.339411"/>
    <path d="M 179.706774 149.552032 
L 177.585454 153.794673 
L 181.828095 153.794673 
z
" clip-path="url(#p594eb6bfa1)" style="fill: #117733; fill-opacity: 0.6; stroke: #ffffff; stroke-opacity: 0.6; stroke-width: 0.339411"/>
    <path d="M 95.624281 134.429537 
L 93.502961 138.672177 
L 97.745601 138.672177 
z
" clip-path="url(#p594eb6bfa1)" style="fill: #117733; fill-opacity: 0.6; stroke: #ffffff; stroke-opacity: 0.6; stroke-width: 0.339411"/>
    <path d="M 106.408067 123.440998 
L 104.286747 127.683639 
L 108.529388 127.683639 
z
" clip-path="url(#p594eb6bfa1)" style="fill: #117733; fill-opacity: 0.6; stroke: #ffffff; stroke-opacity: 0.6; stroke-width: 0.339411"/>
    <path d="M 169.903228 58.979005 
L 167.781907 63.221646 
L 172.024548 63.221646 
z
" clip-path="url(#p594eb6bfa1)" style="fill: #117733; fill-opacity: 0.6; stroke: #ffffff; stroke-opacity: 0.6; stroke-width: 0.339411"/>
    <path d="M 150.210797 104.953677 
L 148.089476 109.196318 
L 152.332117 109.196318 
z
" clip-path="url(#p594eb6bfa1)" style="fill: #117733; fill-opacity: 0.6; stroke: #ffffff; stroke-opacity: 0.6; stroke-width: 0.339411"/>
    <path d="M 146.214162 103.031769 
L 144.092842 107.27441 
L 148.335482 107.27441 
z
" clip-path="url(#p594eb6bfa1)" style="fill: #117733; fill-opacity: 0.6; stroke: #ffffff; stroke-opacity: 0.6; stroke-width: 0.339411"/>
    <path d="M 165.676051 56.534074 
L 163.55473 60.776715 
L 167.797371 60.776715 
z
" clip-path="url(#p594eb6bfa1)" style="fill: #117733; fill-opacity: 0.6; stroke: #ffffff; stroke-opacity: 0.6; stroke-width: 0.339411"/>
    <path d="M 143.561773 128.266413 
L 141.440453 132.509054 
L 145.683093 132.509054 
z
" clip-path="url(#p594eb6bfa1)" style="fill: #117733; fill-opacity: 0.6; stroke: #ffffff; stroke-opacity: 0.6; stroke-width: 0.339411"/>
    <path d="M 125.997755 106.459555 
L 123.876434 110.702196 
L 128.119075 110.702196 
z
" clip-path="url(#p594eb6bfa1)" style="fill: #117733; fill-opacity: 0.6; stroke: #ffffff; stroke-opacity: 0.6; stroke-width: 0.339411"/>
    <path d="M 131.837146 131.3104 
L 129.715825 135.553041 
L 133.958466 135.553041 
z
" clip-path="url(#p594eb6bfa1)" style="fill: #117733; fill-opacity: 0.6; stroke: #ffffff; stroke-opacity: 0.6; stroke-width: 0.339411"/>
    <path d="M 112.35392 123.728688 
L 110.2326 127.971329 
L 114.47524 127.971329 
z
" clip-path="url(#p594eb6bfa1)" style="fill: #117733; fill-opacity: 0.6; stroke: #ffffff; stroke-opacity: 0.6; stroke-width: 0.339411"/>
    <path d="M 117.879839 108.768328 
L 115.758519 113.010968 
L 120.001159 113.010968 
z
" clip-path="url(#p594eb6bfa1)" style="fill: #117733; fill-opacity: 0.6; stroke: #ffffff; stroke-opacity: 0.6; stroke-width: 0.339411"/>
    <path d="M 114.922183 123.775434 
L 112.800862 128.018075 
L 117.043503 128.018075 
z
" clip-path="url(#p594eb6bfa1)" style="fill: #117733; fill-opacity: 0.6; stroke: #ffffff; stroke-opacity: 0.6; stroke-width: 0.339411"/>
    <path d="M 171.000615 104.414561 
L 168.879295 108.657202 
L 173.121936 108.657202 
z
" clip-path="url(#p594eb6bfa1)" style="fill: #117733; fill-opacity: 0.6; stroke: #ffffff; stroke-opacity: 0.6; stroke-width: 0.339411"/>
    <path d="M 118.963573 125.627045 
L 116.842252 129.869685 
L 121.084893 129.869685 
z
" clip-path="url(#p594eb6bfa1)" style="fill: #117733; fill-opacity: 0.6; stroke: #ffffff; stroke-opacity: 0.6; stroke-width: 0.339411"/>
    <path d="M 91.034639 116.083005 
L 88.913318 120.325646 
L 93.155959 120.325646 
z
" clip-path="url(#p594eb6bfa1)" style="fill: #117733; fill-opacity: 0.6; stroke: #ffffff; stroke-opacity: 0.6; stroke-width: 0.339411"/>
    <path d="M 109.774739 138.51939 
L 107.653419 142.762031 
L 111.89606 142.762031 
z
" clip-path="url(#p594eb6bfa1)" style="fill: #117733; fill-opacity: 0.6; stroke: #ffffff; stroke-opacity: 0.6; stroke-width: 0.339411"/>
    <path d="M 101.702323 131.823235 
L 99.581002 136.065876 
L 103.823643 136.065876 
z
" clip-path="url(#p594eb6bfa1)" style="fill: #117733; fill-opacity: 0.6; stroke: #ffffff; stroke-opacity: 0.6; stroke-width: 0.339411"/>
    <path d="M 132.704613 127.366281 
L 130.583292 131.608922 
L 134.825933 131.608922 
z
" clip-path="url(#p594eb6bfa1)" style="fill: #117733; fill-opacity: 0.6; stroke: #ffffff; stroke-opacity: 0.6; stroke-width: 0.339411"/>
    <path d="M 109.270979 135.617082 
L 107.149659 139.859722 
L 111.392299 139.859722 
z
" clip-path="url(#p594eb6bfa1)" style="fill: #117733; fill-opacity: 0.6; stroke: #ffffff; stroke-opacity: 0.6; stroke-width: 0.339411"/>
    <path d="M 148.59768 86.422623 
L 146.47636 90.665263 
L 150.719 90.665263 
z
" clip-path="url(#p594eb6bfa1)" style="fill: #117733; fill-opacity: 0.6; stroke: #ffffff; stroke-opacity: 0.6; stroke-width: 0.339411"/>
    <path d="M 134.923873 122.391296 
L 132.802552 126.633937 
L 137.045193 126.633937 
z
" clip-path="url(#p594eb6bfa1)" style="fill: #117733; fill-opacity: 0.6; stroke: #ffffff; stroke-opacity: 0.6; stroke-width: 0.339411"/>
    <path d="M 122.893021 96.687614 
L 120.7717 100.930255 
L 125.014341 100.930255 
z
" clip-path="url(#p594eb6bfa1)" style="fill: #117733; fill-opacity: 0.6; stroke: #ffffff; stroke-opacity: 0.6; stroke-width: 0.339411"/>
    <path d="M 119.106473 130.280663 
L 116.985153 134.523304 
L 121.227794 134.523304 
z
" clip-path="url(#p594eb6bfa1)" style="fill: #117733; fill-opacity: 0.6; stroke: #ffffff; stroke-opacity: 0.6; stroke-width: 0.339411"/>
    <path d="M 149.296491 131.111881 
L 147.17517 135.354522 
L 151.417811 135.354522 
z
" clip-path="url(#p594eb6bfa1)" style="fill: #117733; fill-opacity: 0.6; stroke: #ffffff; stroke-opacity: 0.6; stroke-width: 0.339411"/>
    <path d="M 104.868205 129.620206 
L 102.746885 133.862846 
L 106.989525 133.862846 
z
" clip-path="url(#p594eb6bfa1)" style="fill: #117733; fill-opacity: 0.6; stroke: #ffffff; stroke-opacity: 0.6; stroke-width: 0.339411"/>
    <path d="M 104.011405 122.453678 
L 101.890085 126.696319 
L 106.132726 126.696319 
z
" clip-path="url(#p594eb6bfa1)" style="fill: #117733; fill-opacity: 0.6; stroke: #ffffff; stroke-opacity: 0.6; stroke-width: 0.339411"/>
    <path d="M 187.860942 75.089404 
L 185.739621 79.332045 
L 189.982262 79.332045 
z
" clip-path="url(#p594eb6bfa1)" style="fill: #117733; fill-opacity: 0.6; stroke: #ffffff; stroke-opacity: 0.6; stroke-width: 0.339411"/>
    <path d="M 136.296538 108.259386 
L 134.175218 112.502026 
L 138.417859 112.502026 
z
" clip-path="url(#p594eb6bfa1)" style="fill: #117733; fill-opacity: 0.6; stroke: #ffffff; stroke-opacity: 0.6; stroke-width: 0.339411"/>
    <path d="M 131.593093 124.427689 
L 129.471773 128.67033 
L 133.714414 128.67033 
z
" clip-path="url(#p594eb6bfa1)" style="fill: #117733; fill-opacity: 0.6; stroke: #ffffff; stroke-opacity: 0.6; stroke-width: 0.339411"/>
    <path d="M 107.761226 97.526074 
L 105.639906 101.768715 
L 109.882547 101.768715 
z
" clip-path="url(#p594eb6bfa1)" style="fill: #117733; fill-opacity: 0.6; stroke: #ffffff; stroke-opacity: 0.6; stroke-width: 0.339411"/>
    <path d="M 127.4903 124.266611 
L 125.36898 128.509251 
L 129.61162 128.509251 
z
" clip-path="url(#p594eb6bfa1)" style="fill: #117733; fill-opacity: 0.6; stroke: #ffffff; stroke-opacity: 0.6; stroke-width: 0.339411"/>
    <path d="M 140.172146 116.104656 
L 138.050825 120.347296 
L 142.293466 120.347296 
z
" clip-path="url(#p594eb6bfa1)" style="fill: #117733; fill-opacity: 0.6; stroke: #ffffff; stroke-opacity: 0.6; stroke-width: 0.339411"/>
    <path d="M 140.27176 134.442736 
L 138.15044 138.685377 
L 142.39308 138.685377 
z
" clip-path="url(#p594eb6bfa1)" style="fill: #117733; fill-opacity: 0.6; stroke: #ffffff; stroke-opacity: 0.6; stroke-width: 0.339411"/>
    <path d="M 115.508202 114.077249 
L 113.386882 118.31989 
L 117.629523 118.31989 
z
" clip-path="url(#p594eb6bfa1)" style="fill: #117733; fill-opacity: 0.6; stroke: #ffffff; stroke-opacity: 0.6; stroke-width: 0.339411"/>
    <path d="M 92.933453 139.756857 
L 90.812133 143.999498 
L 95.054773 143.999498 
z
" clip-path="url(#p594eb6bfa1)" style="fill: #117733; fill-opacity: 0.6; stroke: #ffffff; stroke-opacity: 0.6; stroke-width: 0.339411"/>
    <path d="M 106.408067 123.440998 
L 104.286747 127.683639 
L 108.529388 127.683639 
z
" clip-path="url(#p594eb6bfa1)" style="fill: #117733; fill-opacity: 0.6; stroke: #ffffff; stroke-opacity: 0.6; stroke-width: 0.339411"/>
    <path d="M 127.279063 106.978215 
L 125.157742 111.220856 
L 129.400383 111.220856 
z
" clip-path="url(#p594eb6bfa1)" style="fill: #117733; fill-opacity: 0.6; stroke: #ffffff; stroke-opacity: 0.6; stroke-width: 0.339411"/>
    <path d="M 115.074195 123.405682 
L 112.952875 127.648322 
L 117.195515 127.648322 
z
" clip-path="url(#p594eb6bfa1)" style="fill: #117733; fill-opacity: 0.6; stroke: #ffffff; stroke-opacity: 0.6; stroke-width: 0.339411"/>
    <path d="M 106.431115 145.051064 
L 104.309795 149.293705 
L 108.552435 149.293705 
z
" clip-path="url(#p594eb6bfa1)" style="fill: #117733; fill-opacity: 0.6; stroke: #ffffff; stroke-opacity: 0.6; stroke-width: 0.339411"/>
    <path d="M 155.487967 169.560079 
L 153.366647 173.802719 
L 157.609288 173.802719 
z
" clip-path="url(#p594eb6bfa1)" style="fill: #117733; fill-opacity: 0.6; stroke: #ffffff; stroke-opacity: 0.6; stroke-width: 0.339411"/>
    <path d="M 93.156308 109.639793 
L 91.034988 113.882433 
L 95.277628 113.882433 
z
" clip-path="url(#p594eb6bfa1)" style="fill: #117733; fill-opacity: 0.6; stroke: #ffffff; stroke-opacity: 0.6; stroke-width: 0.339411"/>
    <path d="M 135.142257 135.928615 
L 133.020937 140.171255 
L 137.263577 140.171255 
z
" clip-path="url(#p594eb6bfa1)" style="fill: #117733; fill-opacity: 0.6; stroke: #ffffff; stroke-opacity: 0.6; stroke-width: 0.339411"/>
    <path d="M 163.747424 105.625815 
L 161.626103 109.868456 
L 165.868744 109.868456 
z
" clip-path="url(#p594eb6bfa1)" style="fill: #117733; fill-opacity: 0.6; stroke: #ffffff; stroke-opacity: 0.6; stroke-width: 0.339411"/>
    <path d="M 161.684707 61.934474 
L 159.563386 66.177115 
L 163.806027 66.177115 
z
" clip-path="url(#p594eb6bfa1)" style="fill: #117733; fill-opacity: 0.6; stroke: #ffffff; stroke-opacity: 0.6; stroke-width: 0.339411"/>
    <path d="M 125.771921 117.105297 
L 123.650601 121.347938 
L 127.893242 121.347938 
z
" clip-path="url(#p594eb6bfa1)" style="fill: #117733; fill-opacity: 0.6; stroke: #ffffff; stroke-opacity: 0.6; stroke-width: 0.339411"/>
    <path d="M 182.238003 59.978086 
L 186.480644 59.978086 
L 186.480644 55.735446 
L 182.238003 55.735446 
z
" clip-path="url(#p594eb6bfa1)" style="fill: #44aa99; fill-opacity: 0.6; stroke: #ffffff; stroke-opacity: 0.6; stroke-width: 0.339411"/>
    <path d="M 184.744868 123.771804 
L 188.987508 123.771804 
L 188.987508 119.529163 
L 184.744868 119.529163 
z
" clip-path="url(#p594eb6bfa1)" style="fill: #44aa99; fill-opacity: 0.6; stroke: #ffffff; stroke-opacity: 0.6; stroke-width: 0.339411"/>
    <path d="M 208.2482 110.21908 
L 212.49084 110.21908 
L 212.49084 105.976439 
L 208.2482 105.976439 
z
" clip-path="url(#p594eb6bfa1)" style="fill: #44aa99; fill-opacity: 0.6; stroke: #ffffff; stroke-opacity: 0.6; stroke-width: 0.339411"/>
    <path d="M 193.285844 68.714187 
L 197.528485 68.714187 
L 197.528485 64.471546 
L 193.285844 64.471546 
z
" clip-path="url(#p594eb6bfa1)" style="fill: #44aa99; fill-opacity: 0.6; stroke: #ffffff; stroke-opacity: 0.6; stroke-width: 0.339411"/>
    <path d="M 217.646835 105.857543 
L 221.889476 105.857543 
L 221.889476 101.614903 
L 217.646835 101.614903 
z
" clip-path="url(#p594eb6bfa1)" style="fill: #44aa99; fill-opacity: 0.6; stroke: #ffffff; stroke-opacity: 0.6; stroke-width: 0.339411"/>
    <path d="M 175.168135 54.221274 
L 179.410775 54.221274 
L 179.410775 49.978634 
L 175.168135 49.978634 
z
" clip-path="url(#p594eb6bfa1)" style="fill: #44aa99; fill-opacity: 0.6; stroke: #ffffff; stroke-opacity: 0.6; stroke-width: 0.339411"/>
    <path d="M 176.87054 85.993537 
L 181.113181 85.993537 
L 181.113181 81.750897 
L 176.87054 81.750897 
z
" clip-path="url(#p594eb6bfa1)" style="fill: #44aa99; fill-opacity: 0.6; stroke: #ffffff; stroke-opacity: 0.6; stroke-width: 0.339411"/>
    <path d="M 207.827497 82.260725 
L 212.070137 82.260725 
L 212.070137 78.018084 
L 207.827497 78.018084 
z
" clip-path="url(#p594eb6bfa1)" style="fill: #44aa99; fill-opacity: 0.6; stroke: #ffffff; stroke-opacity: 0.6; stroke-width: 0.339411"/>
    <path d="M 161.291181 97.6285 
L 165.533821 97.6285 
L 165.533821 93.385859 
L 161.291181 93.385859 
z
" clip-path="url(#p594eb6bfa1)" style="fill: #44aa99; fill-opacity: 0.6; stroke: #ffffff; stroke-opacity: 0.6; stroke-width: 0.339411"/>
    <path d="M 162.445719 65.321032 
L 166.688359 65.321032 
L 166.688359 61.078391 
L 162.445719 61.078391 
z
" clip-path="url(#p594eb6bfa1)" style="fill: #44aa99; fill-opacity: 0.6; stroke: #ffffff; stroke-opacity: 0.6; stroke-width: 0.339411"/>
    <path d="M 213.975004 125.633016 
L 218.217645 125.633016 
L 218.217645 121.390375 
L 213.975004 121.390375 
z
" clip-path="url(#p594eb6bfa1)" style="fill: #44aa99; fill-opacity: 0.6; stroke: #ffffff; stroke-opacity: 0.6; stroke-width: 0.339411"/>
    <path d="M 181.19204 154.352328 
L 185.434681 154.352328 
L 185.434681 150.109687 
L 181.19204 150.109687 
z
" clip-path="url(#p594eb6bfa1)" style="fill: #44aa99; fill-opacity: 0.6; stroke: #ffffff; stroke-opacity: 0.6; stroke-width: 0.339411"/>
    <path d="M 165.152849 76.962819 
L 169.39549 76.962819 
L 169.39549 72.720179 
L 165.152849 72.720179 
z
" clip-path="url(#p594eb6bfa1)" style="fill: #44aa99; fill-opacity: 0.6; stroke: #ffffff; stroke-opacity: 0.6; stroke-width: 0.339411"/>
    <path d="M 184.631599 155.098442 
L 188.87424 155.098442 
L 188.87424 150.855802 
L 184.631599 150.855802 
z
" clip-path="url(#p594eb6bfa1)" style="fill: #44aa99; fill-opacity: 0.6; stroke: #ffffff; stroke-opacity: 0.6; stroke-width: 0.339411"/>
    <path d="M 204.605698 113.311617 
L 208.848338 113.311617 
L 208.848338 109.068976 
L 204.605698 109.068976 
z
" clip-path="url(#p594eb6bfa1)" style="fill: #44aa99; fill-opacity: 0.6; stroke: #ffffff; stroke-opacity: 0.6; stroke-width: 0.339411"/>
    <path d="M 186.606173 53.863783 
L 190.848814 53.863783 
L 190.848814 49.621142 
L 186.606173 49.621142 
z
" clip-path="url(#p594eb6bfa1)" style="fill: #44aa99; fill-opacity: 0.6; stroke: #ffffff; stroke-opacity: 0.6; stroke-width: 0.339411"/>
    <path d="M 194.43077 90.711641 
L 198.673411 90.711641 
L 198.673411 86.469001 
L 194.43077 86.469001 
z
" clip-path="url(#p594eb6bfa1)" style="fill: #44aa99; fill-opacity: 0.6; stroke: #ffffff; stroke-opacity: 0.6; stroke-width: 0.339411"/>
    <path d="M 212.305965 71.51284 
L 216.548605 71.51284 
L 216.548605 67.270199 
L 212.305965 67.270199 
z
" clip-path="url(#p594eb6bfa1)" style="fill: #44aa99; fill-opacity: 0.6; stroke: #ffffff; stroke-opacity: 0.6; stroke-width: 0.339411"/>
    <path d="M 157.478848 76.285066 
L 161.721489 76.285066 
L 161.721489 72.042425 
L 157.478848 72.042425 
z
" clip-path="url(#p594eb6bfa1)" style="fill: #44aa99; fill-opacity: 0.6; stroke: #ffffff; stroke-opacity: 0.6; stroke-width: 0.339411"/>
    <path d="M 193.055488 102.202213 
L 197.298128 102.202213 
L 197.298128 97.959572 
L 193.055488 97.959572 
z
" clip-path="url(#p594eb6bfa1)" style="fill: #44aa99; fill-opacity: 0.6; stroke: #ffffff; stroke-opacity: 0.6; stroke-width: 0.339411"/>
    <path d="M 179.386355 99.788122 
L 183.628995 99.788122 
L 183.628995 95.545482 
L 179.386355 95.545482 
z
" clip-path="url(#p594eb6bfa1)" style="fill: #44aa99; fill-opacity: 0.6; stroke: #ffffff; stroke-opacity: 0.6; stroke-width: 0.339411"/>
    <path d="M 124.484388 100.173305 
L 128.727028 100.173305 
L 128.727028 95.930665 
L 124.484388 95.930665 
z
" clip-path="url(#p594eb6bfa1)" style="fill: #44aa99; fill-opacity: 0.6; stroke: #ffffff; stroke-opacity: 0.6; stroke-width: 0.339411"/>
    <path d="M 209.29846 94.991969 
L 213.541101 94.991969 
L 213.541101 90.749329 
L 209.29846 90.749329 
z
" clip-path="url(#p594eb6bfa1)" style="fill: #44aa99; fill-opacity: 0.6; stroke: #ffffff; stroke-opacity: 0.6; stroke-width: 0.339411"/>
    <path d="M 215.391019 115.554548 
L 219.63366 115.554548 
L 219.63366 111.311908 
L 215.391019 111.311908 
z
" clip-path="url(#p594eb6bfa1)" style="fill: #44aa99; fill-opacity: 0.6; stroke: #ffffff; stroke-opacity: 0.6; stroke-width: 0.339411"/>
    <path d="M 149.040235 52.281362 
L 153.282875 52.281362 
L 153.282875 48.038722 
L 149.040235 48.038722 
z
" clip-path="url(#p594eb6bfa1)" style="fill: #44aa99; fill-opacity: 0.6; stroke: #ffffff; stroke-opacity: 0.6; stroke-width: 0.339411"/>
    <path d="M 178.307144 39.388783 
L 182.549785 39.388783 
L 182.549785 35.146142 
L 178.307144 35.146142 
z
" clip-path="url(#p594eb6bfa1)" style="fill: #44aa99; fill-opacity: 0.6; stroke: #ffffff; stroke-opacity: 0.6; stroke-width: 0.339411"/>
    <path d="M 213.93906 108.900825 
L 218.181701 108.900825 
L 218.181701 104.658185 
L 213.93906 104.658185 
z
" clip-path="url(#p594eb6bfa1)" style="fill: #44aa99; fill-opacity: 0.6; stroke: #ffffff; stroke-opacity: 0.6; stroke-width: 0.339411"/>
    <path d="M 167.350042 131.73186 
L 171.592683 131.73186 
L 171.592683 127.48922 
L 167.350042 127.48922 
z
" clip-path="url(#p594eb6bfa1)" style="fill: #44aa99; fill-opacity: 0.6; stroke: #ffffff; stroke-opacity: 0.6; stroke-width: 0.339411"/>
    <path d="M 181.334638 158.07042 
L 185.577279 158.07042 
L 185.577279 153.827779 
L 181.334638 153.827779 
z
" clip-path="url(#p594eb6bfa1)" style="fill: #44aa99; fill-opacity: 0.6; stroke: #ffffff; stroke-opacity: 0.6; stroke-width: 0.339411"/>
    <path d="M 200.728865 65.910124 
L 204.971506 65.910124 
L 204.971506 61.667484 
L 200.728865 61.667484 
z
" clip-path="url(#p594eb6bfa1)" style="fill: #44aa99; fill-opacity: 0.6; stroke: #ffffff; stroke-opacity: 0.6; stroke-width: 0.339411"/>
    <path d="M 212.868 95.048441 
L 217.11064 95.048441 
L 217.11064 90.805801 
L 212.868 90.805801 
z
" clip-path="url(#p594eb6bfa1)" style="fill: #44aa99; fill-opacity: 0.6; stroke: #ffffff; stroke-opacity: 0.6; stroke-width: 0.339411"/>
    <path d="M 186.419096 86.525391 
L 190.661736 86.525391 
L 190.661736 82.28275 
L 186.419096 82.28275 
z
" clip-path="url(#p594eb6bfa1)" style="fill: #44aa99; fill-opacity: 0.6; stroke: #ffffff; stroke-opacity: 0.6; stroke-width: 0.339411"/>
    <path d="M 215.726355 92.946574 
L 219.968996 92.946574 
L 219.968996 88.703933 
L 215.726355 88.703933 
z
" clip-path="url(#p594eb6bfa1)" style="fill: #44aa99; fill-opacity: 0.6; stroke: #ffffff; stroke-opacity: 0.6; stroke-width: 0.339411"/>
    <path d="M 165.464441 67.42732 
L 169.707081 67.42732 
L 169.707081 63.184679 
L 165.464441 63.184679 
z
" clip-path="url(#p594eb6bfa1)" style="fill: #44aa99; fill-opacity: 0.6; stroke: #ffffff; stroke-opacity: 0.6; stroke-width: 0.339411"/>
    <path d="M 176.921043 72.350219 
L 181.163683 72.350219 
L 181.163683 68.107578 
L 176.921043 68.107578 
z
" clip-path="url(#p594eb6bfa1)" style="fill: #44aa99; fill-opacity: 0.6; stroke: #ffffff; stroke-opacity: 0.6; stroke-width: 0.339411"/>
    <path d="M 175.779672 67.070991 
L 180.022313 67.070991 
L 180.022313 62.82835 
L 175.779672 62.82835 
z
" clip-path="url(#p594eb6bfa1)" style="fill: #44aa99; fill-opacity: 0.6; stroke: #ffffff; stroke-opacity: 0.6; stroke-width: 0.339411"/>
    <path d="M 165.945028 154.196604 
L 170.187669 154.196604 
L 170.187669 149.953964 
L 165.945028 149.953964 
z
" clip-path="url(#p594eb6bfa1)" style="fill: #44aa99; fill-opacity: 0.6; stroke: #ffffff; stroke-opacity: 0.6; stroke-width: 0.339411"/>
    <path d="M 159.187727 95.282551 
L 163.430368 95.282551 
L 163.430368 91.039911 
L 159.187727 91.039911 
z
" clip-path="url(#p594eb6bfa1)" style="fill: #44aa99; fill-opacity: 0.6; stroke: #ffffff; stroke-opacity: 0.6; stroke-width: 0.339411"/>
    <path d="M 203.900717 114.310439 
L 208.143358 114.310439 
L 208.143358 110.067798 
L 203.900717 110.067798 
z
" clip-path="url(#p594eb6bfa1)" style="fill: #44aa99; fill-opacity: 0.6; stroke: #ffffff; stroke-opacity: 0.6; stroke-width: 0.339411"/>
    <path d="M 187.864779 114.710633 
L 192.10742 114.710633 
L 192.10742 110.467992 
L 187.864779 110.467992 
z
" clip-path="url(#p594eb6bfa1)" style="fill: #44aa99; fill-opacity: 0.6; stroke: #ffffff; stroke-opacity: 0.6; stroke-width: 0.339411"/>
    <path d="M 165.464441 67.42732 
L 169.707081 67.42732 
L 169.707081 63.184679 
L 165.464441 63.184679 
z
" clip-path="url(#p594eb6bfa1)" style="fill: #44aa99; fill-opacity: 0.6; stroke: #ffffff; stroke-opacity: 0.6; stroke-width: 0.339411"/>
    <path d="M 193.937391 85.518124 
L 198.180032 85.518124 
L 198.180032 81.275483 
L 193.937391 81.275483 
z
" clip-path="url(#p594eb6bfa1)" style="fill: #44aa99; fill-opacity: 0.6; stroke: #ffffff; stroke-opacity: 0.6; stroke-width: 0.339411"/>
    <path d="M 180.380908 138.797121 
L 184.623548 138.797121 
L 184.623548 134.55448 
L 180.380908 134.55448 
z
" clip-path="url(#p594eb6bfa1)" style="fill: #44aa99; fill-opacity: 0.6; stroke: #ffffff; stroke-opacity: 0.6; stroke-width: 0.339411"/>
    <path d="M 182.438283 55.158455 
L 186.680924 55.158455 
L 186.680924 50.915815 
L 182.438283 50.915815 
z
" clip-path="url(#p594eb6bfa1)" style="fill: #44aa99; fill-opacity: 0.6; stroke: #ffffff; stroke-opacity: 0.6; stroke-width: 0.339411"/>
    <path d="M 185.719507 68.684439 
L 189.962148 68.684439 
L 189.962148 64.441798 
L 185.719507 64.441798 
z
" clip-path="url(#p594eb6bfa1)" style="fill: #44aa99; fill-opacity: 0.6; stroke: #ffffff; stroke-opacity: 0.6; stroke-width: 0.339411"/>
    <path d="M 138.812243 76.026436 
L 143.054883 76.026436 
L 143.054883 71.783795 
L 138.812243 71.783795 
z
" clip-path="url(#p594eb6bfa1)" style="fill: #44aa99; fill-opacity: 0.6; stroke: #ffffff; stroke-opacity: 0.6; stroke-width: 0.339411"/>
    <path d="M 177.43865 106.289781 
L 181.681291 106.289781 
L 181.681291 102.04714 
L 177.43865 102.04714 
z
" clip-path="url(#p594eb6bfa1)" style="fill: #44aa99; fill-opacity: 0.6; stroke: #ffffff; stroke-opacity: 0.6; stroke-width: 0.339411"/>
    <path d="M 195.045202 89.531109 
L 199.287842 89.531109 
L 199.287842 85.288468 
L 195.045202 85.288468 
z
" clip-path="url(#p594eb6bfa1)" style="fill: #44aa99; fill-opacity: 0.6; stroke: #ffffff; stroke-opacity: 0.6; stroke-width: 0.339411"/>
    <path d="M 166.878241 51.312654 
L 171.120882 51.312654 
L 171.120882 47.070013 
L 166.878241 47.070013 
z
" clip-path="url(#p594eb6bfa1)" style="fill: #44aa99; fill-opacity: 0.6; stroke: #ffffff; stroke-opacity: 0.6; stroke-width: 0.339411"/>
    <path d="M 145.367378 58.942453 
L 149.610019 58.942453 
L 149.610019 54.699813 
L 145.367378 54.699813 
z
" clip-path="url(#p594eb6bfa1)" style="fill: #44aa99; fill-opacity: 0.6; stroke: #ffffff; stroke-opacity: 0.6; stroke-width: 0.339411"/>
    <path d="M 198.922109 109.578789 
L 203.16475 109.578789 
L 203.16475 105.336148 
L 198.922109 105.336148 
z
" clip-path="url(#p594eb6bfa1)" style="fill: #44aa99; fill-opacity: 0.6; stroke: #ffffff; stroke-opacity: 0.6; stroke-width: 0.339411"/>
    <path d="M 164.965472 149.304154 
L 169.208113 149.304154 
L 169.208113 145.061513 
L 164.965472 145.061513 
z
" clip-path="url(#p594eb6bfa1)" style="fill: #44aa99; fill-opacity: 0.6; stroke: #ffffff; stroke-opacity: 0.6; stroke-width: 0.339411"/>
    <path d="M 213.153442 95.189993 
L 217.396082 95.189993 
L 217.396082 90.947353 
L 213.153442 90.947353 
z
" clip-path="url(#p594eb6bfa1)" style="fill: #44aa99; fill-opacity: 0.6; stroke: #ffffff; stroke-opacity: 0.6; stroke-width: 0.339411"/>
    <path d="M 212.820962 106.479378 
L 217.063602 106.479378 
L 217.063602 102.236737 
L 212.820962 102.236737 
z
" clip-path="url(#p594eb6bfa1)" style="fill: #44aa99; fill-opacity: 0.6; stroke: #ffffff; stroke-opacity: 0.6; stroke-width: 0.339411"/>
    <path d="M 183.99131 82.152413 
L 188.23395 82.152413 
L 188.23395 77.909772 
L 183.99131 77.909772 
z
" clip-path="url(#p594eb6bfa1)" style="fill: #44aa99; fill-opacity: 0.6; stroke: #ffffff; stroke-opacity: 0.6; stroke-width: 0.339411"/>
    <path d="M 105.754214 99.336032 
L 109.996855 99.336032 
L 109.996855 95.093391 
L 105.754214 95.093391 
z
" clip-path="url(#p594eb6bfa1)" style="fill: #44aa99; fill-opacity: 0.6; stroke: #ffffff; stroke-opacity: 0.6; stroke-width: 0.339411"/>
    <path d="M 163.666847 76.909283 
L 167.909488 76.909283 
L 167.909488 72.666642 
L 163.666847 72.666642 
z
" clip-path="url(#p594eb6bfa1)" style="fill: #44aa99; fill-opacity: 0.6; stroke: #ffffff; stroke-opacity: 0.6; stroke-width: 0.339411"/>
    <path d="M 198.038975 102.245318 
L 202.281616 102.245318 
L 202.281616 98.002677 
L 198.038975 98.002677 
z
" clip-path="url(#p594eb6bfa1)" style="fill: #44aa99; fill-opacity: 0.6; stroke: #ffffff; stroke-opacity: 0.6; stroke-width: 0.339411"/>
    <path d="M 207.562748 98.307142 
L 211.805389 98.307142 
L 211.805389 94.064502 
L 207.562748 94.064502 
z
" clip-path="url(#p594eb6bfa1)" style="fill: #44aa99; fill-opacity: 0.6; stroke: #ffffff; stroke-opacity: 0.6; stroke-width: 0.339411"/>
    <path d="M 186.738545 154.178031 
L 190.981186 154.178031 
L 190.981186 149.93539 
L 186.738545 149.93539 
z
" clip-path="url(#p594eb6bfa1)" style="fill: #44aa99; fill-opacity: 0.6; stroke: #ffffff; stroke-opacity: 0.6; stroke-width: 0.339411"/>
    <path d="M 176.141446 84.863893 
L 180.384087 84.863893 
L 180.384087 80.621253 
L 176.141446 80.621253 
z
" clip-path="url(#p594eb6bfa1)" style="fill: #44aa99; fill-opacity: 0.6; stroke: #ffffff; stroke-opacity: 0.6; stroke-width: 0.339411"/>
    <path d="M 220.3991 96.764192 
L 224.64174 96.764192 
L 224.64174 92.521551 
L 220.3991 92.521551 
z
" clip-path="url(#p594eb6bfa1)" style="fill: #44aa99; fill-opacity: 0.6; stroke: #ffffff; stroke-opacity: 0.6; stroke-width: 0.339411"/>
    <path d="M 198.344755 67.252038 
L 202.587396 67.252038 
L 202.587396 63.009397 
L 198.344755 63.009397 
z
" clip-path="url(#p594eb6bfa1)" style="fill: #44aa99; fill-opacity: 0.6; stroke: #ffffff; stroke-opacity: 0.6; stroke-width: 0.339411"/>
    <path d="M 197.453627 97.922471 
L 201.696267 97.922471 
L 201.696267 93.67983 
L 197.453627 93.67983 
z
" clip-path="url(#p594eb6bfa1)" style="fill: #44aa99; fill-opacity: 0.6; stroke: #ffffff; stroke-opacity: 0.6; stroke-width: 0.339411"/>
    <path d="M 164.73599 63.555234 
L 165.79665 62.494573 
L 166.85731 63.555234 
L 167.91797 62.494573 
L 166.85731 61.433913 
L 167.91797 60.373253 
L 166.85731 59.312593 
L 165.79665 60.373253 
L 164.73599 59.312593 
L 163.67533 60.373253 
L 164.73599 61.433913 
L 163.67533 62.494573 
z
" clip-path="url(#p594eb6bfa1)" style="fill: #88ccee; fill-opacity: 0.6; stroke: #ffffff; stroke-opacity: 0.6; stroke-width: 0.339411"/>
    <path d="M 203.466592 91.997141 
L 204.527252 90.936481 
L 205.587912 91.997141 
L 206.648572 90.936481 
L 205.587912 89.875821 
L 206.648572 88.815161 
L 205.587912 87.754501 
L 204.527252 88.815161 
L 203.466592 87.754501 
L 202.405932 88.815161 
L 203.466592 89.875821 
L 202.405932 90.936481 
z
" clip-path="url(#p594eb6bfa1)" style="fill: #88ccee; fill-opacity: 0.6; stroke: #ffffff; stroke-opacity: 0.6; stroke-width: 0.339411"/>
    <path d="M 201.055783 84.751773 
L 202.116443 83.691113 
L 203.177103 84.751773 
L 204.237763 83.691113 
L 203.177103 82.630453 
L 204.237763 81.569793 
L 203.177103 80.509133 
L 202.116443 81.569793 
L 201.055783 80.509133 
L 199.995123 81.569793 
L 201.055783 82.630453 
L 199.995123 83.691113 
z
" clip-path="url(#p594eb6bfa1)" style="fill: #88ccee; fill-opacity: 0.6; stroke: #ffffff; stroke-opacity: 0.6; stroke-width: 0.339411"/>
    <path d="M 184.139327 121.136116 
L 185.199987 120.075456 
L 186.260648 121.136116 
L 187.321308 120.075456 
L 186.260648 119.014795 
L 187.321308 117.954135 
L 186.260648 116.893475 
L 185.199987 117.954135 
L 184.139327 116.893475 
L 183.078667 117.954135 
L 184.139327 119.014795 
L 183.078667 120.075456 
z
" clip-path="url(#p594eb6bfa1)" style="fill: #88ccee; fill-opacity: 0.6; stroke: #ffffff; stroke-opacity: 0.6; stroke-width: 0.339411"/>
    <path d="M 180.047823 172.917931 
L 181.108483 171.857271 
L 182.169144 172.917931 
L 183.229804 171.857271 
L 182.169144 170.796611 
L 183.229804 169.735951 
L 182.169144 168.67529 
L 181.108483 169.735951 
L 180.047823 168.67529 
L 178.987163 169.735951 
L 180.047823 170.796611 
L 178.987163 171.857271 
z
" clip-path="url(#p594eb6bfa1)" style="fill: #88ccee; fill-opacity: 0.6; stroke: #ffffff; stroke-opacity: 0.6; stroke-width: 0.339411"/>
    <path d="M 95.899235 102.411458 
L 96.959895 101.350798 
L 98.020556 102.411458 
L 99.081216 101.350798 
L 98.020556 100.290138 
L 99.081216 99.229478 
L 98.020556 98.168817 
L 96.959895 99.229478 
L 95.899235 98.168817 
L 94.838575 99.229478 
L 95.899235 100.290138 
L 94.838575 101.350798 
z
" clip-path="url(#p594eb6bfa1)" style="fill: #88ccee; fill-opacity: 0.6; stroke: #ffffff; stroke-opacity: 0.6; stroke-width: 0.339411"/>
    <path d="M 210.33966 91.507233 
L 211.400321 90.446573 
L 212.460981 91.507233 
L 213.521641 90.446573 
L 212.460981 89.385913 
L 213.521641 88.325253 
L 212.460981 87.264592 
L 211.400321 88.325253 
L 210.33966 87.264592 
L 209.279 88.325253 
L 210.33966 89.385913 
L 209.279 90.446573 
z
" clip-path="url(#p594eb6bfa1)" style="fill: #88ccee; fill-opacity: 0.6; stroke: #ffffff; stroke-opacity: 0.6; stroke-width: 0.339411"/>
    <path d="M 206.178915 98.726792 
L 207.239575 97.666132 
L 208.300235 98.726792 
L 209.360895 97.666132 
L 208.300235 96.605472 
L 209.360895 95.544812 
L 208.300235 94.484152 
L 207.239575 95.544812 
L 206.178915 94.484152 
L 205.118255 95.544812 
L 206.178915 96.605472 
L 205.118255 97.666132 
z
" clip-path="url(#p594eb6bfa1)" style="fill: #88ccee; fill-opacity: 0.6; stroke: #ffffff; stroke-opacity: 0.6; stroke-width: 0.339411"/>
    <path d="M 197.929775 80.874044 
L 198.990435 79.813384 
L 200.051095 80.874044 
L 201.111756 79.813384 
L 200.051095 78.752724 
L 201.111756 77.692063 
L 200.051095 76.631403 
L 198.990435 77.692063 
L 197.929775 76.631403 
L 196.869115 77.692063 
L 197.929775 78.752724 
L 196.869115 79.813384 
z
" clip-path="url(#p594eb6bfa1)" style="fill: #88ccee; fill-opacity: 0.6; stroke: #ffffff; stroke-opacity: 0.6; stroke-width: 0.339411"/>
    <path d="M 150.962054 93.374174 
L 152.022714 92.313514 
L 153.083374 93.374174 
L 154.144034 92.313514 
L 153.083374 91.252854 
L 154.144034 90.192194 
L 153.083374 89.131534 
L 152.022714 90.192194 
L 150.962054 89.131534 
L 149.901393 90.192194 
L 150.962054 91.252854 
L 149.901393 92.313514 
z
" clip-path="url(#p594eb6bfa1)" style="fill: #88ccee; fill-opacity: 0.6; stroke: #ffffff; stroke-opacity: 0.6; stroke-width: 0.339411"/>
    <path d="M 206.787332 63.838258 
L 207.847993 62.777598 
L 208.908653 63.838258 
L 209.969313 62.777598 
L 208.908653 61.716938 
L 209.969313 60.656278 
L 208.908653 59.595618 
L 207.847993 60.656278 
L 206.787332 59.595618 
L 205.726672 60.656278 
L 206.787332 61.716938 
L 205.726672 62.777598 
z
" clip-path="url(#p594eb6bfa1)" style="fill: #88ccee; fill-opacity: 0.6; stroke: #ffffff; stroke-opacity: 0.6; stroke-width: 0.339411"/>
    <path d="M 152.441757 93.933073 
L 153.502418 92.872413 
L 154.563078 93.933073 
L 155.623738 92.872413 
L 154.563078 91.811753 
L 155.623738 90.751093 
L 154.563078 89.690432 
L 153.502418 90.751093 
L 152.441757 89.690432 
L 151.381097 90.751093 
L 152.441757 91.811753 
L 151.381097 92.872413 
z
" clip-path="url(#p594eb6bfa1)" style="fill: #88ccee; fill-opacity: 0.6; stroke: #ffffff; stroke-opacity: 0.6; stroke-width: 0.339411"/>
    <path d="M 191.198413 168.819269 
L 192.259073 167.758609 
L 193.319733 168.819269 
L 194.380393 167.758609 
L 193.319733 166.697949 
L 194.380393 165.637289 
L 193.319733 164.576629 
L 192.259073 165.637289 
L 191.198413 164.576629 
L 190.137752 165.637289 
L 191.198413 166.697949 
L 190.137752 167.758609 
z
" clip-path="url(#p594eb6bfa1)" style="fill: #88ccee; fill-opacity: 0.6; stroke: #ffffff; stroke-opacity: 0.6; stroke-width: 0.339411"/>
    <path d="M 181.516528 170.642736 
L 182.577188 169.582076 
L 183.637848 170.642736 
L 184.698508 169.582076 
L 183.637848 168.521416 
L 184.698508 167.460755 
L 183.637848 166.400095 
L 182.577188 167.460755 
L 181.516528 166.400095 
L 180.455867 167.460755 
L 181.516528 168.521416 
L 180.455867 169.582076 
z
" clip-path="url(#p594eb6bfa1)" style="fill: #88ccee; fill-opacity: 0.6; stroke: #ffffff; stroke-opacity: 0.6; stroke-width: 0.339411"/>
    <path d="M 184.152666 118.063149 
L 185.213326 117.002489 
L 186.273986 118.063149 
L 187.334646 117.002489 
L 186.273986 115.941829 
L 187.334646 114.881169 
L 186.273986 113.820509 
L 185.213326 114.881169 
L 184.152666 113.820509 
L 183.092006 114.881169 
L 184.152666 115.941829 
L 183.092006 117.002489 
z
" clip-path="url(#p594eb6bfa1)" style="fill: #88ccee; fill-opacity: 0.6; stroke: #ffffff; stroke-opacity: 0.6; stroke-width: 0.339411"/>
    <path d="M 196.927143 105.967891 
L 197.987803 104.907231 
L 199.048463 105.967891 
L 200.109124 104.907231 
L 199.048463 103.84657 
L 200.109124 102.78591 
L 199.048463 101.72525 
L 197.987803 102.78591 
L 196.927143 101.72525 
L 195.866483 102.78591 
L 196.927143 103.84657 
L 195.866483 104.907231 
z
" clip-path="url(#p594eb6bfa1)" style="fill: #88ccee; fill-opacity: 0.6; stroke: #ffffff; stroke-opacity: 0.6; stroke-width: 0.339411"/>
    <path d="M 127.507071 110.603554 
L 128.567731 109.542893 
L 129.628391 110.603554 
L 130.689051 109.542893 
L 129.628391 108.482233 
L 130.689051 107.421573 
L 129.628391 106.360913 
L 128.567731 107.421573 
L 127.507071 106.360913 
L 126.446411 107.421573 
L 127.507071 108.482233 
L 126.446411 109.542893 
z
" clip-path="url(#p594eb6bfa1)" style="fill: #88ccee; fill-opacity: 0.6; stroke: #ffffff; stroke-opacity: 0.6; stroke-width: 0.339411"/>
    <path d="M 218.851335 102.235769 
L 219.911995 101.175109 
L 220.972656 102.235769 
L 222.033316 101.175109 
L 220.972656 100.114449 
L 222.033316 99.053789 
L 220.972656 97.993128 
L 219.911995 99.053789 
L 218.851335 97.993128 
L 217.790675 99.053789 
L 218.851335 100.114449 
L 217.790675 101.175109 
z
" clip-path="url(#p594eb6bfa1)" style="fill: #88ccee; fill-opacity: 0.6; stroke: #ffffff; stroke-opacity: 0.6; stroke-width: 0.339411"/>
    <path d="M 149.786866 112.90077 
L 150.847526 111.84011 
L 151.908186 112.90077 
L 152.968846 111.84011 
L 151.908186 110.779449 
L 152.968846 109.718789 
L 151.908186 108.658129 
L 150.847526 109.718789 
L 149.786866 108.658129 
L 148.726206 109.718789 
L 149.786866 110.779449 
L 148.726206 111.84011 
z
" clip-path="url(#p594eb6bfa1)" style="fill: #88ccee; fill-opacity: 0.6; stroke: #ffffff; stroke-opacity: 0.6; stroke-width: 0.339411"/>
    <path d="M 196.818189 154.50261 
L 197.87885 153.44195 
L 198.93951 154.50261 
L 200.00017 153.44195 
L 198.93951 152.38129 
L 200.00017 151.32063 
L 198.93951 150.259969 
L 197.87885 151.32063 
L 196.818189 150.259969 
L 195.757529 151.32063 
L 196.818189 152.38129 
L 195.757529 153.44195 
z
" clip-path="url(#p594eb6bfa1)" style="fill: #88ccee; fill-opacity: 0.6; stroke: #ffffff; stroke-opacity: 0.6; stroke-width: 0.339411"/>
    <path d="M 217.562412 87.352858 
L 218.623072 86.292197 
L 219.683732 87.352858 
L 220.744393 86.292197 
L 219.683732 85.231537 
L 220.744393 84.170877 
L 219.683732 83.110217 
L 218.623072 84.170877 
L 217.562412 83.110217 
L 216.501752 84.170877 
L 217.562412 85.231537 
L 216.501752 86.292197 
z
" clip-path="url(#p594eb6bfa1)" style="fill: #88ccee; fill-opacity: 0.6; stroke: #ffffff; stroke-opacity: 0.6; stroke-width: 0.339411"/>
    <path d="M 172.262286 142.831061 
L 173.322947 141.770401 
L 174.383607 142.831061 
L 175.444267 141.770401 
L 174.383607 140.709741 
L 175.444267 139.64908 
L 174.383607 138.58842 
L 173.322947 139.64908 
L 172.262286 138.58842 
L 171.201626 139.64908 
L 172.262286 140.709741 
L 171.201626 141.770401 
z
" clip-path="url(#p594eb6bfa1)" style="fill: #88ccee; fill-opacity: 0.6; stroke: #ffffff; stroke-opacity: 0.6; stroke-width: 0.339411"/>
    <path d="M 206.394415 105.948474 
L 207.455075 104.887814 
L 208.515735 105.948474 
L 209.576395 104.887814 
L 208.515735 103.827154 
L 209.576395 102.766493 
L 208.515735 101.705833 
L 207.455075 102.766493 
L 206.394415 101.705833 
L 205.333754 102.766493 
L 206.394415 103.827154 
L 205.333754 104.887814 
z
" clip-path="url(#p594eb6bfa1)" style="fill: #88ccee; fill-opacity: 0.6; stroke: #ffffff; stroke-opacity: 0.6; stroke-width: 0.339411"/>
    <path d="M 120.444513 88.801243 
L 121.505174 87.740583 
L 122.565834 88.801243 
L 123.626494 87.740583 
L 122.565834 86.679923 
L 123.626494 85.619263 
L 122.565834 84.558603 
L 121.505174 85.619263 
L 120.444513 84.558603 
L 119.383853 85.619263 
L 120.444513 86.679923 
L 119.383853 87.740583 
z
" clip-path="url(#p594eb6bfa1)" style="fill: #88ccee; fill-opacity: 0.6; stroke: #ffffff; stroke-opacity: 0.6; stroke-width: 0.339411"/>
    <path d="M 203.832082 109.332752 
L 204.892742 108.272092 
L 205.953403 109.332752 
L 207.014063 108.272092 
L 205.953403 107.211431 
L 207.014063 106.150771 
L 205.953403 105.090111 
L 204.892742 106.150771 
L 203.832082 105.090111 
L 202.771422 106.150771 
L 203.832082 107.211431 
L 202.771422 108.272092 
z
" clip-path="url(#p594eb6bfa1)" style="fill: #88ccee; fill-opacity: 0.6; stroke: #ffffff; stroke-opacity: 0.6; stroke-width: 0.339411"/>
    <path d="M 155.329159 119.802054 
L 156.389819 118.741394 
L 157.450479 119.802054 
L 158.511139 118.741394 
L 157.450479 117.680734 
L 158.511139 116.620073 
L 157.450479 115.559413 
L 156.389819 116.620073 
L 155.329159 115.559413 
L 154.268499 116.620073 
L 155.329159 117.680734 
L 154.268499 118.741394 
z
" clip-path="url(#p594eb6bfa1)" style="fill: #88ccee; fill-opacity: 0.6; stroke: #ffffff; stroke-opacity: 0.6; stroke-width: 0.339411"/>
    <path d="M 185.648625 181.683718 
L 186.709285 180.623058 
L 187.769945 181.683718 
L 188.830605 180.623058 
L 187.769945 179.562398 
L 188.830605 178.501737 
L 187.769945 177.441077 
L 186.709285 178.501737 
L 185.648625 177.441077 
L 184.587964 178.501737 
L 185.648625 179.562398 
L 184.587964 180.623058 
z
" clip-path="url(#p594eb6bfa1)" style="fill: #88ccee; fill-opacity: 0.6; stroke: #ffffff; stroke-opacity: 0.6; stroke-width: 0.339411"/>
    <path d="M 184.870485 110.249432 
L 185.931145 109.188772 
L 186.991805 110.249432 
L 188.052465 109.188772 
L 186.991805 108.128112 
L 188.052465 107.067452 
L 186.991805 106.006792 
L 185.931145 107.067452 
L 184.870485 106.006792 
L 183.809825 107.067452 
L 184.870485 108.128112 
L 183.809825 109.188772 
z
" clip-path="url(#p594eb6bfa1)" style="fill: #88ccee; fill-opacity: 0.6; stroke: #ffffff; stroke-opacity: 0.6; stroke-width: 0.339411"/>
    <path d="M 208.124723 89.776731 
L 209.185383 88.716071 
L 210.246043 89.776731 
L 211.306704 88.716071 
L 210.246043 87.655411 
L 211.306704 86.59475 
L 210.246043 85.53409 
L 209.185383 86.59475 
L 208.124723 85.53409 
L 207.064063 86.59475 
L 208.124723 87.655411 
L 207.064063 88.716071 
z
" clip-path="url(#p594eb6bfa1)" style="fill: #88ccee; fill-opacity: 0.6; stroke: #ffffff; stroke-opacity: 0.6; stroke-width: 0.339411"/>
    <path d="M 177.957434 179.281983 
L 179.018094 178.221323 
L 180.078754 179.281983 
L 181.139414 178.221323 
L 180.078754 177.160663 
L 181.139414 176.100002 
L 180.078754 175.039342 
L 179.018094 176.100002 
L 177.957434 175.039342 
L 176.896774 176.100002 
L 177.957434 177.160663 
L 176.896774 178.221323 
z
" clip-path="url(#p594eb6bfa1)" style="fill: #88ccee; fill-opacity: 0.6; stroke: #ffffff; stroke-opacity: 0.6; stroke-width: 0.339411"/>
    <path d="M 203.926656 87.706 
L 204.987317 86.64534 
L 206.047977 87.706 
L 207.108637 86.64534 
L 206.047977 85.584679 
L 207.108637 84.524019 
L 206.047977 83.463359 
L 204.987317 84.524019 
L 203.926656 83.463359 
L 202.865996 84.524019 
L 203.926656 85.584679 
L 202.865996 86.64534 
z
" clip-path="url(#p594eb6bfa1)" style="fill: #88ccee; fill-opacity: 0.6; stroke: #ffffff; stroke-opacity: 0.6; stroke-width: 0.339411"/>
    <path d="M 180.205381 110.028456 
L 181.266041 108.967796 
L 182.326702 110.028456 
L 183.387362 108.967796 
L 182.326702 107.907135 
L 183.387362 106.846475 
L 182.326702 105.785815 
L 181.266041 106.846475 
L 180.205381 105.785815 
L 179.144721 106.846475 
L 180.205381 107.907135 
L 179.144721 108.967796 
z
" clip-path="url(#p594eb6bfa1)" style="fill: #88ccee; fill-opacity: 0.6; stroke: #ffffff; stroke-opacity: 0.6; stroke-width: 0.339411"/>
    <path d="M 182.211856 174.737061 
L 183.272516 173.676401 
L 184.333176 174.737061 
L 185.393836 173.676401 
L 184.333176 172.61574 
L 185.393836 171.55508 
L 184.333176 170.49442 
L 183.272516 171.55508 
L 182.211856 170.49442 
L 181.151196 171.55508 
L 182.211856 172.61574 
L 181.151196 173.676401 
z
" clip-path="url(#p594eb6bfa1)" style="fill: #88ccee; fill-opacity: 0.6; stroke: #ffffff; stroke-opacity: 0.6; stroke-width: 0.339411"/>
    <path d="M 151.417838 101.174321 
L 152.478498 100.113661 
L 153.539158 101.174321 
L 154.599819 100.113661 
L 153.539158 99.053001 
L 154.599819 97.992341 
L 153.539158 96.93168 
L 152.478498 97.992341 
L 151.417838 96.93168 
L 150.357178 97.992341 
L 151.417838 99.053001 
L 150.357178 100.113661 
z
" clip-path="url(#p594eb6bfa1)" style="fill: #88ccee; fill-opacity: 0.6; stroke: #ffffff; stroke-opacity: 0.6; stroke-width: 0.339411"/>
    <path d="M 162.045772 90.723795 
L 163.106432 89.663135 
L 164.167093 90.723795 
L 165.227753 89.663135 
L 164.167093 88.602475 
L 165.227753 87.541814 
L 164.167093 86.481154 
L 163.106432 87.541814 
L 162.045772 86.481154 
L 160.985112 87.541814 
L 162.045772 88.602475 
L 160.985112 89.663135 
z
" clip-path="url(#p594eb6bfa1)" style="fill: #88ccee; fill-opacity: 0.6; stroke: #ffffff; stroke-opacity: 0.6; stroke-width: 0.339411"/>
    <path d="M 189.19918 107.440217 
L 190.259841 106.379557 
L 191.320501 107.440217 
L 192.381161 106.379557 
L 191.320501 105.318897 
L 192.381161 104.258237 
L 191.320501 103.197577 
L 190.259841 104.258237 
L 189.19918 103.197577 
L 188.13852 104.258237 
L 189.19918 105.318897 
L 188.13852 106.379557 
z
" clip-path="url(#p594eb6bfa1)" style="fill: #88ccee; fill-opacity: 0.6; stroke: #ffffff; stroke-opacity: 0.6; stroke-width: 0.339411"/>
    <path d="M 210.084995 120.082622 
L 211.145656 119.021961 
L 212.206316 120.082622 
L 213.266976 119.021961 
L 212.206316 117.961301 
L 213.266976 116.900641 
L 212.206316 115.839981 
L 211.145656 116.900641 
L 210.084995 115.839981 
L 209.024335 116.900641 
L 210.084995 117.961301 
L 209.024335 119.021961 
z
" clip-path="url(#p594eb6bfa1)" style="fill: #88ccee; fill-opacity: 0.6; stroke: #ffffff; stroke-opacity: 0.6; stroke-width: 0.339411"/>
    <path d="M 145.444758 129.004403 
L 146.505418 127.943743 
L 147.566078 129.004403 
L 148.626738 127.943743 
L 147.566078 126.883082 
L 148.626738 125.822422 
L 147.566078 124.761762 
L 146.505418 125.822422 
L 145.444758 124.761762 
L 144.384098 125.822422 
L 145.444758 126.883082 
L 144.384098 127.943743 
z
" clip-path="url(#p594eb6bfa1)" style="fill: #88ccee; fill-opacity: 0.6; stroke: #ffffff; stroke-opacity: 0.6; stroke-width: 0.339411"/>
    <path d="M 218.37272 96.292704 
L 219.433381 95.232044 
L 220.494041 96.292704 
L 221.554701 95.232044 
L 220.494041 94.171384 
L 221.554701 93.110724 
L 220.494041 92.050064 
L 219.433381 93.110724 
L 218.37272 92.050064 
L 217.31206 93.110724 
L 218.37272 94.171384 
L 217.31206 95.232044 
z
" clip-path="url(#p594eb6bfa1)" style="fill: #88ccee; fill-opacity: 0.6; stroke: #ffffff; stroke-opacity: 0.6; stroke-width: 0.339411"/>
    <path d="M 190.926148 146.133756 
L 191.986808 145.073096 
L 193.047468 146.133756 
L 194.108128 145.073096 
L 193.047468 144.012436 
L 194.108128 142.951776 
L 193.047468 141.891115 
L 191.986808 142.951776 
L 190.926148 141.891115 
L 189.865488 142.951776 
L 190.926148 144.012436 
L 189.865488 145.073096 
z
" clip-path="url(#p594eb6bfa1)" style="fill: #88ccee; fill-opacity: 0.6; stroke: #ffffff; stroke-opacity: 0.6; stroke-width: 0.339411"/>
    <path d="M 156.683499 79.566925 
L 157.744159 78.506265 
L 158.804819 79.566925 
L 159.865479 78.506265 
L 158.804819 77.445605 
L 159.865479 76.384945 
L 158.804819 75.324284 
L 157.744159 76.384945 
L 156.683499 75.324284 
L 155.622839 76.384945 
L 156.683499 77.445605 
L 155.622839 78.506265 
z
" clip-path="url(#p594eb6bfa1)" style="fill: #88ccee; fill-opacity: 0.6; stroke: #ffffff; stroke-opacity: 0.6; stroke-width: 0.339411"/>
    <path d="M 136.440909 87.404677 
L 137.501569 86.344017 
L 138.562229 87.404677 
L 139.622889 86.344017 
L 138.562229 85.283357 
L 139.622889 84.222697 
L 138.562229 83.162037 
L 137.501569 84.222697 
L 136.440909 83.162037 
L 135.380248 84.222697 
L 136.440909 85.283357 
L 135.380248 86.344017 
z
" clip-path="url(#p594eb6bfa1)" style="fill: #88ccee; fill-opacity: 0.6; stroke: #ffffff; stroke-opacity: 0.6; stroke-width: 0.339411"/>
    <path d="M 166.657753 73.892732 
L 167.718413 72.832072 
L 168.779073 73.892732 
L 169.839733 72.832072 
L 168.779073 71.771412 
L 169.839733 70.710752 
L 168.779073 69.650092 
L 167.718413 70.710752 
L 166.657753 69.650092 
L 165.597093 70.710752 
L 166.657753 71.771412 
L 165.597093 72.832072 
z
" clip-path="url(#p594eb6bfa1)" style="fill: #88ccee; fill-opacity: 0.6; stroke: #ffffff; stroke-opacity: 0.6; stroke-width: 0.339411"/>
    <path d="M 189.865635 121.595883 
L 190.926295 120.535223 
L 191.986955 121.595883 
L 193.047616 120.535223 
L 191.986955 119.474563 
L 193.047616 118.413902 
L 191.986955 117.353242 
L 190.926295 118.413902 
L 189.865635 117.353242 
L 188.804975 118.413902 
L 189.865635 119.474563 
L 188.804975 120.535223 
z
" clip-path="url(#p594eb6bfa1)" style="fill: #88ccee; fill-opacity: 0.6; stroke: #ffffff; stroke-opacity: 0.6; stroke-width: 0.339411"/>
    <path d="M 203.188075 104.979863 
L 204.248735 103.919203 
L 205.309395 104.979863 
L 206.370055 103.919203 
L 205.309395 102.858543 
L 206.370055 101.797883 
L 205.309395 100.737223 
L 204.248735 101.797883 
L 203.188075 100.737223 
L 202.127415 101.797883 
L 203.188075 102.858543 
L 202.127415 103.919203 
z
" clip-path="url(#p594eb6bfa1)" style="fill: #88ccee; fill-opacity: 0.6; stroke: #ffffff; stroke-opacity: 0.6; stroke-width: 0.339411"/>
    <path d="M 215.819592 86.088596 
L 216.880252 85.027936 
L 217.940912 86.088596 
L 219.001573 85.027936 
L 217.940912 83.967276 
L 219.001573 82.906616 
L 217.940912 81.845955 
L 216.880252 82.906616 
L 215.819592 81.845955 
L 214.758932 82.906616 
L 215.819592 83.967276 
L 214.758932 85.027936 
z
" clip-path="url(#p594eb6bfa1)" style="fill: #88ccee; fill-opacity: 0.6; stroke: #ffffff; stroke-opacity: 0.6; stroke-width: 0.339411"/>
    <path d="M 156.915532 64.488635 
L 157.976193 63.427975 
L 159.036853 64.488635 
L 160.097513 63.427975 
L 159.036853 62.367315 
L 160.097513 61.306654 
L 159.036853 60.245994 
L 157.976193 61.306654 
L 156.915532 60.245994 
L 155.854872 61.306654 
L 156.915532 62.367315 
L 155.854872 63.427975 
z
" clip-path="url(#p594eb6bfa1)" style="fill: #88ccee; fill-opacity: 0.6; stroke: #ffffff; stroke-opacity: 0.6; stroke-width: 0.339411"/>
    <path d="M 174.282503 115.015114 
L 175.343163 113.954454 
L 176.403823 115.015114 
L 177.464484 113.954454 
L 176.403823 112.893794 
L 177.464484 111.833134 
L 176.403823 110.772473 
L 175.343163 111.833134 
L 174.282503 110.772473 
L 173.221843 111.833134 
L 174.282503 112.893794 
L 173.221843 113.954454 
z
" clip-path="url(#p594eb6bfa1)" style="fill: #88ccee; fill-opacity: 0.6; stroke: #ffffff; stroke-opacity: 0.6; stroke-width: 0.339411"/>
    <path d="M 185.013032 105.074982 
L 186.073692 104.014321 
L 187.134352 105.074982 
L 188.195012 104.014321 
L 187.134352 102.953661 
L 188.195012 101.893001 
L 187.134352 100.832341 
L 186.073692 101.893001 
L 185.013032 100.832341 
L 183.952372 101.893001 
L 185.013032 102.953661 
L 183.952372 104.014321 
z
" clip-path="url(#p594eb6bfa1)" style="fill: #88ccee; fill-opacity: 0.6; stroke: #ffffff; stroke-opacity: 0.6; stroke-width: 0.339411"/>
    <path d="M 162.919969 123.311389 
L 163.980629 122.250729 
L 165.041289 123.311389 
L 166.10195 122.250729 
L 165.041289 121.190069 
L 166.10195 120.129409 
L 165.041289 119.068748 
L 163.980629 120.129409 
L 162.919969 119.068748 
L 161.859309 120.129409 
L 162.919969 121.190069 
L 161.859309 122.250729 
z
" clip-path="url(#p594eb6bfa1)" style="fill: #88ccee; fill-opacity: 0.6; stroke: #ffffff; stroke-opacity: 0.6; stroke-width: 0.339411"/>
    <path d="M 219.597023 100.864708 
L 220.657683 99.804048 
L 221.718344 100.864708 
L 222.779004 99.804048 
L 221.718344 98.743388 
L 222.779004 97.682728 
L 221.718344 96.622068 
L 220.657683 97.682728 
L 219.597023 96.622068 
L 218.536363 97.682728 
L 219.597023 98.743388 
L 218.536363 99.804048 
z
" clip-path="url(#p594eb6bfa1)" style="fill: #88ccee; fill-opacity: 0.6; stroke: #ffffff; stroke-opacity: 0.6; stroke-width: 0.339411"/>
    <path d="M 173.835211 167.768534 
L 174.895871 166.707874 
L 175.956531 167.768534 
L 177.017191 166.707874 
L 175.956531 165.647214 
L 177.017191 164.586554 
L 175.956531 163.525894 
L 174.895871 164.586554 
L 173.835211 163.525894 
L 172.774551 164.586554 
L 173.835211 165.647214 
L 172.774551 166.707874 
z
" clip-path="url(#p594eb6bfa1)" style="fill: #88ccee; fill-opacity: 0.6; stroke: #ffffff; stroke-opacity: 0.6; stroke-width: 0.339411"/>
    <path d="M 172.807379 104.617496 
L 173.868039 103.556836 
L 174.928699 104.617496 
L 175.989359 103.556836 
L 174.928699 102.496176 
L 175.989359 101.435516 
L 174.928699 100.374855 
L 173.868039 101.435516 
L 172.807379 100.374855 
L 171.746718 101.435516 
L 172.807379 102.496176 
L 171.746718 103.556836 
z
" clip-path="url(#p594eb6bfa1)" style="fill: #88ccee; fill-opacity: 0.6; stroke: #ffffff; stroke-opacity: 0.6; stroke-width: 0.339411"/>
    <path d="M 183.294767 80.241892 
L 184.355427 79.181232 
L 185.416087 80.241892 
L 186.476747 79.181232 
L 185.416087 78.120572 
L 186.476747 77.059912 
L 185.416087 75.999252 
L 184.355427 77.059912 
L 183.294767 75.999252 
L 182.234106 77.059912 
L 183.294767 78.120572 
L 182.234106 79.181232 
z
" clip-path="url(#p594eb6bfa1)" style="fill: #88ccee; fill-opacity: 0.6; stroke: #ffffff; stroke-opacity: 0.6; stroke-width: 0.339411"/>
    <path d="M 215.073412 93.52655 
L 216.134072 92.46589 
L 217.194732 93.52655 
L 218.255392 92.46589 
L 217.194732 91.40523 
L 218.255392 90.344569 
L 217.194732 89.283909 
L 216.134072 90.344569 
L 215.073412 89.283909 
L 214.012752 90.344569 
L 215.073412 91.40523 
L 214.012752 92.46589 
z
" clip-path="url(#p594eb6bfa1)" style="fill: #88ccee; fill-opacity: 0.6; stroke: #ffffff; stroke-opacity: 0.6; stroke-width: 0.339411"/>
    <path d="M 187.33213 68.125622 
L 188.39279 67.064962 
L 189.45345 68.125622 
L 190.51411 67.064962 
L 189.45345 66.004302 
L 190.51411 64.943641 
L 189.45345 63.882981 
L 188.39279 64.943641 
L 187.33213 63.882981 
L 186.27147 64.943641 
L 187.33213 66.004302 
L 186.27147 67.064962 
z
" clip-path="url(#p594eb6bfa1)" style="fill: #88ccee; fill-opacity: 0.6; stroke: #ffffff; stroke-opacity: 0.6; stroke-width: 0.339411"/>
    <path d="M 203.411955 74.455519 
L 204.472616 73.394859 
L 205.533276 74.455519 
L 206.593936 73.394859 
L 205.533276 72.334199 
L 206.593936 71.273539 
L 205.533276 70.212878 
L 204.472616 71.273539 
L 203.411955 70.212878 
L 202.351295 71.273539 
L 203.411955 72.334199 
L 202.351295 73.394859 
z
" clip-path="url(#p594eb6bfa1)" style="fill: #88ccee; fill-opacity: 0.6; stroke: #ffffff; stroke-opacity: 0.6; stroke-width: 0.339411"/>
    <path d="M 181.63376 137.650215 
L 182.69442 136.589555 
L 183.75508 137.650215 
L 184.81574 136.589555 
L 183.75508 135.528895 
L 184.81574 134.468235 
L 183.75508 133.407575 
L 182.69442 134.468235 
L 181.63376 133.407575 
L 180.573099 134.468235 
L 181.63376 135.528895 
L 180.573099 136.589555 
z
" clip-path="url(#p594eb6bfa1)" style="fill: #88ccee; fill-opacity: 0.6; stroke: #ffffff; stroke-opacity: 0.6; stroke-width: 0.339411"/>
    <path d="M 178.708148 170.136185 
L 179.768808 169.075525 
L 180.829468 170.136185 
L 181.890128 169.075525 
L 180.829468 168.014865 
L 181.890128 166.954205 
L 180.829468 165.893545 
L 179.768808 166.954205 
L 178.708148 165.893545 
L 177.647487 166.954205 
L 178.708148 168.014865 
L 177.647487 169.075525 
z
" clip-path="url(#p594eb6bfa1)" style="fill: #88ccee; fill-opacity: 0.6; stroke: #ffffff; stroke-opacity: 0.6; stroke-width: 0.339411"/>
    <path d="M 143.657991 106.210054 
L 144.718651 105.149394 
L 145.779312 106.210054 
L 146.839972 105.149394 
L 145.779312 104.088733 
L 146.839972 103.028073 
L 145.779312 101.967413 
L 144.718651 103.028073 
L 143.657991 101.967413 
L 142.597331 103.028073 
L 143.657991 104.088733 
L 142.597331 105.149394 
z
" clip-path="url(#p594eb6bfa1)" style="fill: #88ccee; fill-opacity: 0.6; stroke: #ffffff; stroke-opacity: 0.6; stroke-width: 0.339411"/>
    <path d="M 151.45185 121.971879 
L 152.51251 120.911219 
L 153.57317 121.971879 
L 154.63383 120.911219 
L 153.57317 119.850558 
L 154.63383 118.789898 
L 153.57317 117.729238 
L 152.51251 118.789898 
L 151.45185 117.729238 
L 150.39119 118.789898 
L 151.45185 119.850558 
L 150.39119 120.911219 
z
" clip-path="url(#p594eb6bfa1)" style="fill: #88ccee; fill-opacity: 0.6; stroke: #ffffff; stroke-opacity: 0.6; stroke-width: 0.339411"/>
    <path d="M 215.726781 92.495213 
L 216.787441 91.434553 
L 217.848101 92.495213 
L 218.908761 91.434553 
L 217.848101 90.373893 
L 218.908761 89.313233 
L 217.848101 88.252572 
L 216.787441 89.313233 
L 215.726781 88.252572 
L 214.666121 89.313233 
L 215.726781 90.373893 
L 214.666121 91.434553 
z
" clip-path="url(#p594eb6bfa1)" style="fill: #88ccee; fill-opacity: 0.6; stroke: #ffffff; stroke-opacity: 0.6; stroke-width: 0.339411"/>
    <path d="M 154.220752 98.549125 
L 155.281413 97.488465 
L 156.342073 98.549125 
L 157.402733 97.488465 
L 156.342073 96.427805 
L 157.402733 95.367145 
L 156.342073 94.306485 
L 155.281413 95.367145 
L 154.220752 94.306485 
L 153.160092 95.367145 
L 154.220752 96.427805 
L 153.160092 97.488465 
z
" clip-path="url(#p594eb6bfa1)" style="fill: #88ccee; fill-opacity: 0.6; stroke: #ffffff; stroke-opacity: 0.6; stroke-width: 0.339411"/>
    <path d="M 175.504383 158.645051 
L 176.565044 157.584391 
L 177.625704 158.645051 
L 178.686364 157.584391 
L 177.625704 156.523731 
L 178.686364 155.46307 
L 177.625704 154.40241 
L 176.565044 155.46307 
L 175.504383 154.40241 
L 174.443723 155.46307 
L 175.504383 156.523731 
L 174.443723 157.584391 
z
" clip-path="url(#p594eb6bfa1)" style="fill: #88ccee; fill-opacity: 0.6; stroke: #ffffff; stroke-opacity: 0.6; stroke-width: 0.339411"/>
   </g>
   <g id="matplotlib.axis_1">
    <g id="xtick_1">
     <g id="line2d_1">
      <defs>
       <path id="m3a756cb7b3" d="M 0 0 
L 0 8 
" style="stroke: #000000"/>
      </defs>
      <g>
       <use xlink:href="#m3a756cb7b3" x="65.884226" y="192.727559" style="stroke: #000000"/>
      </g>
     </g>
     <g id="text_1">
      <!-- 20 -->
      <g transform="translate(53.221414 213.345684) scale(0.12 -0.12)">
       <defs>
        <path id="DejaVuSans-2212" d="M 678 2272 
L 4684 2272 
L 4684 1741 
L 678 1741 
L 678 2272 
z
" transform="scale(0.015625)"/>
        <path id="DejaVuSans-32" d="M 1228 531 
L 3431 531 
L 3431 0 
L 469 0 
L 469 531 
Q 828 903 1448 1529 
Q 2069 2156 2228 2338 
Q 2531 2678 2651 2914 
Q 2772 3150 2772 3378 
Q 2772 3750 2511 3984 
Q 2250 4219 1831 4219 
Q 1534 4219 1204 4116 
Q 875 4013 500 3803 
L 500 4441 
Q 881 4594 1212 4672 
Q 1544 4750 1819 4750 
Q 2544 4750 2975 4387 
Q 3406 4025 3406 3419 
Q 3406 3131 3298 2873 
Q 3191 2616 2906 2266 
Q 2828 2175 2409 1742 
Q 1991 1309 1228 531 
z
" transform="scale(0.015625)"/>
        <path id="DejaVuSans-30" d="M 2034 4250 
Q 1547 4250 1301 3770 
Q 1056 3291 1056 2328 
Q 1056 1369 1301 889 
Q 1547 409 2034 409 
Q 2525 409 2770 889 
Q 3016 1369 3016 2328 
Q 3016 3291 2770 3770 
Q 2525 4250 2034 4250 
z
M 2034 4750 
Q 2819 4750 3233 4129 
Q 3647 3509 3647 2328 
Q 3647 1150 3233 529 
Q 2819 -91 2034 -91 
Q 1250 -91 836 529 
Q 422 1150 422 2328 
Q 422 3509 836 4129 
Q 1250 4750 2034 4750 
z
" transform="scale(0.015625)"/>
       </defs>
       <use xlink:href="#DejaVuSans-2212"/>
       <use xlink:href="#DejaVuSans-32" x="83.789062"/>
       <use xlink:href="#DejaVuSans-30" x="147.412109"/>
      </g>
     </g>
    </g>
    <g id="xtick_2">
     <g id="line2d_2">
      <g>
       <use xlink:href="#m3a756cb7b3" x="108.822489" y="192.727559" style="stroke: #000000"/>
      </g>
     </g>
     <g id="text_2">
      <!-- 10 -->
      <g transform="translate(96.159676 213.345684) scale(0.12 -0.12)">
       <defs>
        <path id="DejaVuSans-31" d="M 794 531 
L 1825 531 
L 1825 4091 
L 703 3866 
L 703 4441 
L 1819 4666 
L 2450 4666 
L 2450 531 
L 3481 531 
L 3481 0 
L 794 0 
L 794 531 
z
" transform="scale(0.015625)"/>
       </defs>
       <use xlink:href="#DejaVuSans-2212"/>
       <use xlink:href="#DejaVuSans-31" x="83.789062"/>
       <use xlink:href="#DejaVuSans-30" x="147.412109"/>
      </g>
     </g>
    </g>
    <g id="xtick_3">
     <g id="line2d_3">
      <g>
       <use xlink:href="#m3a756cb7b3" x="151.760751" y="192.727559" style="stroke: #000000"/>
      </g>
     </g>
     <g id="text_3">
      <!-- 0 -->
      <g transform="translate(147.943251 213.345684) scale(0.12 -0.12)">
       <use xlink:href="#DejaVuSans-30"/>
      </g>
     </g>
    </g>
    <g id="xtick_4">
     <g id="line2d_4">
      <g>
       <use xlink:href="#m3a756cb7b3" x="194.699013" y="192.727559" style="stroke: #000000"/>
      </g>
     </g>
     <g id="text_4">
      <!-- 10 -->
      <g transform="translate(187.064013 213.345684) scale(0.12 -0.12)">
       <use xlink:href="#DejaVuSans-31"/>
       <use xlink:href="#DejaVuSans-30" x="63.623047"/>
      </g>
     </g>
    </g>
    <g id="xtick_5">
     <g id="line2d_5">
      <g>
       <use xlink:href="#m3a756cb7b3" x="237.637275" y="192.727559" style="stroke: #000000"/>
      </g>
     </g>
     <g id="text_5">
      <!-- 20 -->
      <g transform="translate(230.002275 213.345684) scale(0.12 -0.12)">
       <use xlink:href="#DejaVuSans-32"/>
       <use xlink:href="#DejaVuSans-30" x="63.623047"/>
      </g>
     </g>
    </g>
    <g id="text_6">
     <!-- PC 1 (12.69%) -->
     <g transform="translate(109.404717 228.959434) scale(0.12 -0.12)">
      <defs>
       <path id="DejaVuSans-50" d="M 1259 4147 
L 1259 2394 
L 2053 2394 
Q 2494 2394 2734 2622 
Q 2975 2850 2975 3272 
Q 2975 3691 2734 3919 
Q 2494 4147 2053 4147 
L 1259 4147 
z
M 628 4666 
L 2053 4666 
Q 2838 4666 3239 4311 
Q 3641 3956 3641 3272 
Q 3641 2581 3239 2228 
Q 2838 1875 2053 1875 
L 1259 1875 
L 1259 0 
L 628 0 
L 628 4666 
z
" transform="scale(0.015625)"/>
       <path id="DejaVuSans-43" d="M 4122 4306 
L 4122 3641 
Q 3803 3938 3442 4084 
Q 3081 4231 2675 4231 
Q 1875 4231 1450 3742 
Q 1025 3253 1025 2328 
Q 1025 1406 1450 917 
Q 1875 428 2675 428 
Q 3081 428 3442 575 
Q 3803 722 4122 1019 
L 4122 359 
Q 3791 134 3420 21 
Q 3050 -91 2638 -91 
Q 1578 -91 968 557 
Q 359 1206 359 2328 
Q 359 3453 968 4101 
Q 1578 4750 2638 4750 
Q 3056 4750 3426 4639 
Q 3797 4528 4122 4306 
z
" transform="scale(0.015625)"/>
       <path id="DejaVuSans-20" transform="scale(0.015625)"/>
       <path id="DejaVuSans-28" d="M 1984 4856 
Q 1566 4138 1362 3434 
Q 1159 2731 1159 2009 
Q 1159 1288 1364 580 
Q 1569 -128 1984 -844 
L 1484 -844 
Q 1016 -109 783 600 
Q 550 1309 550 2009 
Q 550 2706 781 3412 
Q 1013 4119 1484 4856 
L 1984 4856 
z
" transform="scale(0.015625)"/>
       <path id="DejaVuSans-2e" d="M 684 794 
L 1344 794 
L 1344 0 
L 684 0 
L 684 794 
z
" transform="scale(0.015625)"/>
       <path id="DejaVuSans-36" d="M 2113 2584 
Q 1688 2584 1439 2293 
Q 1191 2003 1191 1497 
Q 1191 994 1439 701 
Q 1688 409 2113 409 
Q 2538 409 2786 701 
Q 3034 994 3034 1497 
Q 3034 2003 2786 2293 
Q 2538 2584 2113 2584 
z
M 3366 4563 
L 3366 3988 
Q 3128 4100 2886 4159 
Q 2644 4219 2406 4219 
Q 1781 4219 1451 3797 
Q 1122 3375 1075 2522 
Q 1259 2794 1537 2939 
Q 1816 3084 2150 3084 
Q 2853 3084 3261 2657 
Q 3669 2231 3669 1497 
Q 3669 778 3244 343 
Q 2819 -91 2113 -91 
Q 1303 -91 875 529 
Q 447 1150 447 2328 
Q 447 3434 972 4092 
Q 1497 4750 2381 4750 
Q 2619 4750 2861 4703 
Q 3103 4656 3366 4563 
z
" transform="scale(0.015625)"/>
       <path id="DejaVuSans-39" d="M 703 97 
L 703 672 
Q 941 559 1184 500 
Q 1428 441 1663 441 
Q 2288 441 2617 861 
Q 2947 1281 2994 2138 
Q 2813 1869 2534 1725 
Q 2256 1581 1919 1581 
Q 1219 1581 811 2004 
Q 403 2428 403 3163 
Q 403 3881 828 4315 
Q 1253 4750 1959 4750 
Q 2769 4750 3195 4129 
Q 3622 3509 3622 2328 
Q 3622 1225 3098 567 
Q 2575 -91 1691 -91 
Q 1453 -91 1209 -44 
Q 966 3 703 97 
z
M 1959 2075 
Q 2384 2075 2632 2365 
Q 2881 2656 2881 3163 
Q 2881 3666 2632 3958 
Q 2384 4250 1959 4250 
Q 1534 4250 1286 3958 
Q 1038 3666 1038 3163 
Q 1038 2656 1286 2365 
Q 1534 2075 1959 2075 
z
" transform="scale(0.015625)"/>
       <path id="DejaVuSans-25" d="M 4653 2053 
Q 4381 2053 4226 1822 
Q 4072 1591 4072 1178 
Q 4072 772 4226 539 
Q 4381 306 4653 306 
Q 4919 306 5073 539 
Q 5228 772 5228 1178 
Q 5228 1588 5073 1820 
Q 4919 2053 4653 2053 
z
M 4653 2450 
Q 5147 2450 5437 2106 
Q 5728 1763 5728 1178 
Q 5728 594 5436 251 
Q 5144 -91 4653 -91 
Q 4153 -91 3862 251 
Q 3572 594 3572 1178 
Q 3572 1766 3864 2108 
Q 4156 2450 4653 2450 
z
M 1428 4353 
Q 1159 4353 1004 4120 
Q 850 3888 850 3481 
Q 850 3069 1003 2837 
Q 1156 2606 1428 2606 
Q 1700 2606 1854 2837 
Q 2009 3069 2009 3481 
Q 2009 3884 1853 4118 
Q 1697 4353 1428 4353 
z
M 4250 4750 
L 4750 4750 
L 1831 -91 
L 1331 -91 
L 4250 4750 
z
M 1428 4750 
Q 1922 4750 2215 4408 
Q 2509 4066 2509 3481 
Q 2509 2891 2217 2550 
Q 1925 2209 1428 2209 
Q 931 2209 642 2551 
Q 353 2894 353 3481 
Q 353 4063 643 4406 
Q 934 4750 1428 4750 
z
" transform="scale(0.015625)"/>
       <path id="DejaVuSans-29" d="M 513 4856 
L 1013 4856 
Q 1481 4119 1714 3412 
Q 1947 2706 1947 2009 
Q 1947 1309 1714 600 
Q 1481 -109 1013 -844 
L 513 -844 
Q 928 -128 1133 580 
Q 1338 1288 1338 2009 
Q 1338 2731 1133 3434 
Q 928 4138 513 4856 
z
" transform="scale(0.015625)"/>
      </defs>
      <use xlink:href="#DejaVuSans-50"/>
      <use xlink:href="#DejaVuSans-43" x="60.302734"/>
      <use xlink:href="#DejaVuSans-20" x="130.126953"/>
      <use xlink:href="#DejaVuSans-31" x="161.914062"/>
      <use xlink:href="#DejaVuSans-20" x="225.537109"/>
      <use xlink:href="#DejaVuSans-28" x="257.324219"/>
      <use xlink:href="#DejaVuSans-31" x="296.337891"/>
      <use xlink:href="#DejaVuSans-32" x="359.960938"/>
      <use xlink:href="#DejaVuSans-2e" x="423.583984"/>
      <use xlink:href="#DejaVuSans-36" x="455.371094"/>
      <use xlink:href="#DejaVuSans-39" x="518.994141"/>
      <use xlink:href="#DejaVuSans-25" x="582.617188"/>
      <use xlink:href="#DejaVuSans-29" x="677.636719"/>
     </g>
    </g>
   </g>
   <g id="matplotlib.axis_2">
    <g id="ytick_1">
     <g id="line2d_6">
      <defs>
       <path id="m02c5f319b8" d="M 0 0 
L -8 0 
" style="stroke: #000000"/>
      </defs>
      <g>
       <use xlink:href="#m02c5f319b8" x="59.639375" y="186.482708" style="stroke: #000000"/>
      </g>
     </g>
     <g id="text_7">
      <!-- 20 -->
      <g transform="translate(22.81375 191.04177) scale(0.12 -0.12)">
       <use xlink:href="#DejaVuSans-2212"/>
       <use xlink:href="#DejaVuSans-32" x="83.789062"/>
       <use xlink:href="#DejaVuSans-30" x="147.412109"/>
      </g>
     </g>
    </g>
    <g id="ytick_2">
     <g id="line2d_7">
      <g>
       <use xlink:href="#m02c5f319b8" x="59.639375" y="143.544445" style="stroke: #000000"/>
      </g>
     </g>
     <g id="text_8">
      <!-- 10 -->
      <g transform="translate(22.81375 148.103508) scale(0.12 -0.12)">
       <use xlink:href="#DejaVuSans-2212"/>
       <use xlink:href="#DejaVuSans-31" x="83.789062"/>
       <use xlink:href="#DejaVuSans-30" x="147.412109"/>
      </g>
     </g>
    </g>
    <g id="ytick_3">
     <g id="line2d_8">
      <g>
       <use xlink:href="#m02c5f319b8" x="59.639375" y="100.606183" style="stroke: #000000"/>
      </g>
     </g>
     <g id="text_9">
      <!-- 0 -->
      <g transform="translate(40.504375 105.165246) scale(0.12 -0.12)">
       <use xlink:href="#DejaVuSans-30"/>
      </g>
     </g>
    </g>
    <g id="ytick_4">
     <g id="line2d_9">
      <g>
       <use xlink:href="#m02c5f319b8" x="59.639375" y="57.667921" style="stroke: #000000"/>
      </g>
     </g>
     <g id="text_10">
      <!-- 10 -->
      <g transform="translate(32.869375 62.226983) scale(0.12 -0.12)">
       <use xlink:href="#DejaVuSans-31"/>
       <use xlink:href="#DejaVuSans-30" x="63.623047"/>
      </g>
     </g>
    </g>
    <g id="ytick_5">
     <g id="line2d_10">
      <g>
       <use xlink:href="#m02c5f319b8" x="59.639375" y="14.729659" style="stroke: #000000"/>
      </g>
     </g>
     <g id="text_11">
      <!-- 20 -->
      <g transform="translate(32.869375 19.288721) scale(0.12 -0.12)">
       <use xlink:href="#DejaVuSans-32"/>
       <use xlink:href="#DejaVuSans-30" x="63.623047"/>
      </g>
     </g>
    </g>
    <g id="text_12">
     <!-- PC 2 (8.83%) -->
     <g transform="translate(16.318125 139.144717) rotate(-90) scale(0.12 -0.12)">
      <defs>
       <path id="DejaVuSans-38" d="M 2034 2216 
Q 1584 2216 1326 1975 
Q 1069 1734 1069 1313 
Q 1069 891 1326 650 
Q 1584 409 2034 409 
Q 2484 409 2743 651 
Q 3003 894 3003 1313 
Q 3003 1734 2745 1975 
Q 2488 2216 2034 2216 
z
M 1403 2484 
Q 997 2584 770 2862 
Q 544 3141 544 3541 
Q 544 4100 942 4425 
Q 1341 4750 2034 4750 
Q 2731 4750 3128 4425 
Q 3525 4100 3525 3541 
Q 3525 3141 3298 2862 
Q 3072 2584 2669 2484 
Q 3125 2378 3379 2068 
Q 3634 1759 3634 1313 
Q 3634 634 3220 271 
Q 2806 -91 2034 -91 
Q 1263 -91 848 271 
Q 434 634 434 1313 
Q 434 1759 690 2068 
Q 947 2378 1403 2484 
z
M 1172 3481 
Q 1172 3119 1398 2916 
Q 1625 2713 2034 2713 
Q 2441 2713 2670 2916 
Q 2900 3119 2900 3481 
Q 2900 3844 2670 4047 
Q 2441 4250 2034 4250 
Q 1625 4250 1398 4047 
Q 1172 3844 1172 3481 
z
" transform="scale(0.015625)"/>
       <path id="DejaVuSans-33" d="M 2597 2516 
Q 3050 2419 3304 2112 
Q 3559 1806 3559 1356 
Q 3559 666 3084 287 
Q 2609 -91 1734 -91 
Q 1441 -91 1130 -33 
Q 819 25 488 141 
L 488 750 
Q 750 597 1062 519 
Q 1375 441 1716 441 
Q 2309 441 2620 675 
Q 2931 909 2931 1356 
Q 2931 1769 2642 2001 
Q 2353 2234 1838 2234 
L 1294 2234 
L 1294 2753 
L 1863 2753 
Q 2328 2753 2575 2939 
Q 2822 3125 2822 3475 
Q 2822 3834 2567 4026 
Q 2313 4219 1838 4219 
Q 1578 4219 1281 4162 
Q 984 4106 628 3988 
L 628 4550 
Q 988 4650 1302 4700 
Q 1616 4750 1894 4750 
Q 2613 4750 3031 4423 
Q 3450 4097 3450 3541 
Q 3450 3153 3228 2886 
Q 3006 2619 2597 2516 
z
" transform="scale(0.015625)"/>
      </defs>
      <use xlink:href="#DejaVuSans-50"/>
      <use xlink:href="#DejaVuSans-43" x="60.302734"/>
      <use xlink:href="#DejaVuSans-20" x="130.126953"/>
      <use xlink:href="#DejaVuSans-32" x="161.914062"/>
      <use xlink:href="#DejaVuSans-20" x="225.537109"/>
      <use xlink:href="#DejaVuSans-28" x="257.324219"/>
      <use xlink:href="#DejaVuSans-38" x="296.337891"/>
      <use xlink:href="#DejaVuSans-2e" x="359.960938"/>
      <use xlink:href="#DejaVuSans-38" x="391.748047"/>
      <use xlink:href="#DejaVuSans-33" x="455.371094"/>
      <use xlink:href="#DejaVuSans-25" x="518.994141"/>
      <use xlink:href="#DejaVuSans-29" x="614.013672"/>
     </g>
    </g>
   </g>
   <g id="patch_3">
    <path d="M 59.639375 192.727559 
L 59.639375 7.2 
" style="fill: none; stroke: #000000; stroke-width: 2; stroke-linejoin: miter; stroke-linecap: square"/>
   </g>
   <g id="patch_4">
    <path d="M 59.639375 192.727559 
L 245.166934 192.727559 
" style="fill: none; stroke: #000000; stroke-width: 2; stroke-linejoin: miter; stroke-linecap: square"/>
   </g>
  </g>
 </g>
 <defs>
  <clipPath id="p594eb6bfa1">
   <rect x="59.639375" y="7.2" width="185.527559" height="185.527559"/>
  </clipPath>
 </defs>
</svg>
