<?xml version="1.0" encoding="utf-8" standalone="no"?>
<!DOCTYPE svg PUBLIC "-//W3C//DTD SVG 1.1//EN"
  "http://www.w3.org/Graphics/SVG/1.1/DTD/svg11.dtd">
<svg xmlns:xlink="http://www.w3.org/1999/xlink" width="252.366934pt" height="238.655059pt" viewBox="0 0 252.366934 238.655059" xmlns="http://www.w3.org/2000/svg" version="1.1">
 <metadata>
  <rdf:RDF xmlns:dc="http://purl.org/dc/elements/1.1/" xmlns:cc="http://creativecommons.org/ns#" xmlns:rdf="http://www.w3.org/1999/02/22-rdf-syntax-ns#">
   <cc:Work>
    <dc:type rdf:resource="http://purl.org/dc/dcmitype/StillImage"/>
    <dc:date>2025-08-27T10:55:29.614263</dc:date>
    <dc:format>image/svg+xml</dc:format>
    <dc:creator>
     <cc:Agent>
      <dc:title>Matplotlib v3.6.2, https://matplotlib.org/</dc:title>
     </cc:Agent>
    </dc:creator>
   </cc:Work>
  </rdf:RDF>
 </metadata>
 <defs>
  <style type="text/css">*{stroke-linejoin: round; stroke-linecap: butt}</style>
 </defs>
 <g id="figure_1">
  <g id="patch_1">
   <path d="M 0 238.655059 
L 252.366934 238.655059 
L 252.366934 0 
L 0 0 
L 0 238.655059 
z
" style="fill: none"/>
  </g>
  <g id="axes_1">
   <g id="patch_2">
    <path d="M 59.639375 192.727559 
L 245.166934 192.727559 
L 245.166934 7.2 
L 59.639375 7.2 
L 59.639375 192.727559 
z
" style="fill: none"/>
   </g>
   <g id="PathCollection_1">
    <path d="M 100.741782 101.352412 
L 102.541782 98.352412 
L 100.741782 95.352412 
L 98.941782 98.352412 
z
" clip-path="url(#p41ac96f228)" style="fill: #332288; fill-opacity: 0.6; stroke: #ffffff; stroke-opacity: 0.6; stroke-width: 0.339411"/>
    <path d="M 124.728392 114.630631 
L 126.528392 111.630631 
L 124.728392 108.630631 
L 122.928392 111.630631 
z
" clip-path="url(#p41ac96f228)" style="fill: #332288; fill-opacity: 0.6; stroke: #ffffff; stroke-opacity: 0.6; stroke-width: 0.339411"/>
    <path d="M 99.787611 111.898109 
L 101.587611 108.898109 
L 99.787611 105.898109 
L 97.987611 108.898109 
z
" clip-path="url(#p41ac96f228)" style="fill: #332288; fill-opacity: 0.6; stroke: #ffffff; stroke-opacity: 0.6; stroke-width: 0.339411"/>
    <path d="M 87.117791 83.32221 
L 88.917791 80.32221 
L 87.117791 77.32221 
L 85.317791 80.32221 
z
" clip-path="url(#p41ac96f228)" style="fill: #332288; fill-opacity: 0.6; stroke: #ffffff; stroke-opacity: 0.6; stroke-width: 0.339411"/>
    <path d="M 105.571961 114.123077 
L 107.371961 111.123077 
L 105.571961 108.123077 
L 103.771961 111.123077 
z
" clip-path="url(#p41ac96f228)" style="fill: #332288; fill-opacity: 0.6; stroke: #ffffff; stroke-opacity: 0.6; stroke-width: 0.339411"/>
    <path d="M 122.043529 151.82912 
L 123.843529 148.82912 
L 122.043529 145.82912 
L 120.243529 148.82912 
z
" clip-path="url(#p41ac96f228)" style="fill: #332288; fill-opacity: 0.6; stroke: #ffffff; stroke-opacity: 0.6; stroke-width: 0.339411"/>
    <path d="M 102.625512 91.654314 
L 104.425512 88.654314 
L 102.625512 85.654314 
L 100.825512 88.654314 
z
" clip-path="url(#p41ac96f228)" style="fill: #332288; fill-opacity: 0.6; stroke: #ffffff; stroke-opacity: 0.6; stroke-width: 0.339411"/>
    <path d="M 76.854484 79.963866 
L 78.654484 76.963866 
L 76.854484 73.963866 
L 75.054484 76.963866 
z
" clip-path="url(#p41ac96f228)" style="fill: #332288; fill-opacity: 0.6; stroke: #ffffff; stroke-opacity: 0.6; stroke-width: 0.339411"/>
    <path d="M 99.787611 111.898109 
L 101.587611 108.898109 
L 99.787611 105.898109 
L 97.987611 108.898109 
z
" clip-path="url(#p41ac96f228)" style="fill: #332288; fill-opacity: 0.6; stroke: #ffffff; stroke-opacity: 0.6; stroke-width: 0.339411"/>
    <path d="M 80.400795 78.068312 
L 82.200795 75.068312 
L 80.400795 72.068312 
L 78.600795 75.068312 
z
" clip-path="url(#p41ac96f228)" style="fill: #332288; fill-opacity: 0.6; stroke: #ffffff; stroke-opacity: 0.6; stroke-width: 0.339411"/>
    <path d="M 77.348202 54.905628 
L 79.148202 51.905628 
L 77.348202 48.905628 
L 75.548202 51.905628 
z
" clip-path="url(#p41ac96f228)" style="fill: #332288; fill-opacity: 0.6; stroke: #ffffff; stroke-opacity: 0.6; stroke-width: 0.339411"/>
    <path d="M 104.568399 91.355285 
L 106.368399 88.355285 
L 104.568399 85.355285 
L 102.768399 88.355285 
z
" clip-path="url(#p41ac96f228)" style="fill: #332288; fill-opacity: 0.6; stroke: #ffffff; stroke-opacity: 0.6; stroke-width: 0.339411"/>
    <path d="M 76.697041 75.256697 
L 78.497041 72.256697 
L 76.697041 69.256697 
L 74.897041 72.256697 
z
" clip-path="url(#p41ac96f228)" style="fill: #332288; fill-opacity: 0.6; stroke: #ffffff; stroke-opacity: 0.6; stroke-width: 0.339411"/>
    <path d="M 104.568399 91.355285 
L 106.368399 88.355285 
L 104.568399 85.355285 
L 102.768399 88.355285 
z
" clip-path="url(#p41ac96f228)" style="fill: #332288; fill-opacity: 0.6; stroke: #ffffff; stroke-opacity: 0.6; stroke-width: 0.339411"/>
    <path d="M 122.573706 128.941683 
L 124.373706 125.941683 
L 122.573706 122.941683 
L 120.773706 125.941683 
z
" clip-path="url(#p41ac96f228)" style="fill: #332288; fill-opacity: 0.6; stroke: #ffffff; stroke-opacity: 0.6; stroke-width: 0.339411"/>
    <path d="M 114.707089 120.904642 
L 116.507089 117.904642 
L 114.707089 114.904642 
L 112.907089 117.904642 
z
" clip-path="url(#p41ac96f228)" style="fill: #332288; fill-opacity: 0.6; stroke: #ffffff; stroke-opacity: 0.6; stroke-width: 0.339411"/>
    <path d="M 93.060255 106.506666 
L 94.860255 103.506666 
L 93.060255 100.506666 
L 91.260255 103.506666 
z
" clip-path="url(#p41ac96f228)" style="fill: #332288; fill-opacity: 0.6; stroke: #ffffff; stroke-opacity: 0.6; stroke-width: 0.339411"/>
    <path d="M 127.514684 137.031236 
L 129.314684 134.031236 
L 127.514684 131.031236 
L 125.714684 134.031236 
z
" clip-path="url(#p41ac96f228)" style="fill: #332288; fill-opacity: 0.6; stroke: #ffffff; stroke-opacity: 0.6; stroke-width: 0.339411"/>
    <path d="M 93.462745 46.832266 
L 95.262745 43.832266 
L 93.462745 40.832266 
L 91.662745 43.832266 
z
" clip-path="url(#p41ac96f228)" style="fill: #332288; fill-opacity: 0.6; stroke: #ffffff; stroke-opacity: 0.6; stroke-width: 0.339411"/>
    <path d="M 81.921947 102.720345 
L 83.721947 99.720345 
L 81.921947 96.720345 
L 80.121947 99.720345 
z
" clip-path="url(#p41ac96f228)" style="fill: #332288; fill-opacity: 0.6; stroke: #ffffff; stroke-opacity: 0.6; stroke-width: 0.339411"/>
    <path d="M 120.534928 146.635833 
L 122.334928 143.635833 
L 120.534928 140.635833 
L 118.734928 143.635833 
z
" clip-path="url(#p41ac96f228)" style="fill: #332288; fill-opacity: 0.6; stroke: #ffffff; stroke-opacity: 0.6; stroke-width: 0.339411"/>
    <path d="M 80.387794 72.130114 
L 82.187794 69.130114 
L 80.387794 66.130114 
L 78.587794 69.130114 
z
" clip-path="url(#p41ac96f228)" style="fill: #332288; fill-opacity: 0.6; stroke: #ffffff; stroke-opacity: 0.6; stroke-width: 0.339411"/>
    <path d="M 92.451574 104.120565 
L 94.251574 101.120565 
L 92.451574 98.120565 
L 90.651574 101.120565 
z
" clip-path="url(#p41ac96f228)" style="fill: #332288; fill-opacity: 0.6; stroke: #ffffff; stroke-opacity: 0.6; stroke-width: 0.339411"/>
    <path d="M 93.177739 40.763332 
L 94.977739 37.763332 
L 93.177739 34.763332 
L 91.377739 37.763332 
z
" clip-path="url(#p41ac96f228)" style="fill: #332288; fill-opacity: 0.6; stroke: #ffffff; stroke-opacity: 0.6; stroke-width: 0.339411"/>
    <path d="M 104.699029 111.632011 
L 106.499029 108.632011 
L 104.699029 105.632011 
L 102.899029 108.632011 
z
" clip-path="url(#p41ac96f228)" style="fill: #332288; fill-opacity: 0.6; stroke: #ffffff; stroke-opacity: 0.6; stroke-width: 0.339411"/>
    <path d="M 131.690506 131.11441 
L 133.490506 128.11441 
L 131.690506 125.11441 
L 129.890506 128.11441 
z
" clip-path="url(#p41ac96f228)" style="fill: #332288; fill-opacity: 0.6; stroke: #ffffff; stroke-opacity: 0.6; stroke-width: 0.339411"/>
    <path d="M 96.73334 78.555727 
L 98.53334 75.555727 
L 96.73334 72.555727 
L 94.93334 75.555727 
z
" clip-path="url(#p41ac96f228)" style="fill: #332288; fill-opacity: 0.6; stroke: #ffffff; stroke-opacity: 0.6; stroke-width: 0.339411"/>
    <path d="M 125.695106 127.154248 
L 127.495106 124.154248 
L 125.695106 121.154248 
L 123.895106 124.154248 
z
" clip-path="url(#p41ac96f228)" style="fill: #332288; fill-opacity: 0.6; stroke: #ffffff; stroke-opacity: 0.6; stroke-width: 0.339411"/>
    <path d="M 102.095228 102.262194 
L 103.895228 99.262194 
L 102.095228 96.262194 
L 100.295228 99.262194 
z
" clip-path="url(#p41ac96f228)" style="fill: #332288; fill-opacity: 0.6; stroke: #ffffff; stroke-opacity: 0.6; stroke-width: 0.339411"/>
    <path d="M 118.783303 138.990555 
L 120.583303 135.990555 
L 118.783303 132.990555 
L 116.983303 135.990555 
z
" clip-path="url(#p41ac96f228)" style="fill: #332288; fill-opacity: 0.6; stroke: #ffffff; stroke-opacity: 0.6; stroke-width: 0.339411"/>
    <path d="M 84.242161 97.211669 
L 86.042161 94.211669 
L 84.242161 91.211669 
L 82.442161 94.211669 
z
" clip-path="url(#p41ac96f228)" style="fill: #332288; fill-opacity: 0.6; stroke: #ffffff; stroke-opacity: 0.6; stroke-width: 0.339411"/>
    <path d="M 86.401655 78.808123 
L 88.201655 75.808123 
L 86.401655 72.808123 
L 84.601655 75.808123 
z
" clip-path="url(#p41ac96f228)" style="fill: #332288; fill-opacity: 0.6; stroke: #ffffff; stroke-opacity: 0.6; stroke-width: 0.339411"/>
    <path d="M 217.262569 110.021497 
L 219.062569 107.021497 
L 217.262569 104.021497 
L 215.462569 107.021497 
z
" clip-path="url(#p41ac96f228)" style="fill: #332288; fill-opacity: 0.6; stroke: #ffffff; stroke-opacity: 0.6; stroke-width: 0.339411"/>
    <path d="M 101.44678 68.333243 
L 103.24678 65.333243 
L 101.44678 62.333243 
L 99.64678 65.333243 
z
" clip-path="url(#p41ac96f228)" style="fill: #332288; fill-opacity: 0.6; stroke: #ffffff; stroke-opacity: 0.6; stroke-width: 0.339411"/>
    <path d="M 92.451574 104.120565 
L 94.251574 101.120565 
L 92.451574 98.120565 
L 90.651574 101.120565 
z
" clip-path="url(#p41ac96f228)" style="fill: #332288; fill-opacity: 0.6; stroke: #ffffff; stroke-opacity: 0.6; stroke-width: 0.339411"/>
    <path d="M 79.841146 74.425943 
L 81.641146 71.425943 
L 79.841146 68.425943 
L 78.041146 71.425943 
z
" clip-path="url(#p41ac96f228)" style="fill: #332288; fill-opacity: 0.6; stroke: #ffffff; stroke-opacity: 0.6; stroke-width: 0.339411"/>
    <path d="M 94.399648 123.817738 
L 96.199648 120.817738 
L 94.399648 117.817738 
L 92.599648 120.817738 
z
" clip-path="url(#p41ac96f228)" style="fill: #332288; fill-opacity: 0.6; stroke: #ffffff; stroke-opacity: 0.6; stroke-width: 0.339411"/>
    <path d="M 85.007196 80.941125 
L 86.807196 77.941125 
L 85.007196 74.941125 
L 83.207196 77.941125 
z
" clip-path="url(#p41ac96f228)" style="fill: #332288; fill-opacity: 0.6; stroke: #ffffff; stroke-opacity: 0.6; stroke-width: 0.339411"/>
    <path d="M 107.324809 86.96441 
L 109.124809 83.96441 
L 107.324809 80.96441 
L 105.524809 83.96441 
z
" clip-path="url(#p41ac96f228)" style="fill: #332288; fill-opacity: 0.6; stroke: #ffffff; stroke-opacity: 0.6; stroke-width: 0.339411"/>
    <path d="M 82.413147 80.010121 
L 84.213147 77.010121 
L 82.413147 74.010121 
L 80.613147 77.010121 
z
" clip-path="url(#p41ac96f228)" style="fill: #332288; fill-opacity: 0.6; stroke: #ffffff; stroke-opacity: 0.6; stroke-width: 0.339411"/>
    <path d="M 104.433958 75.43207 
L 106.233958 72.43207 
L 104.433958 69.43207 
L 102.633958 72.43207 
z
" clip-path="url(#p41ac96f228)" style="fill: #332288; fill-opacity: 0.6; stroke: #ffffff; stroke-opacity: 0.6; stroke-width: 0.339411"/>
    <path d="M 99.787611 111.898109 
L 101.587611 108.898109 
L 99.787611 105.898109 
L 97.987611 108.898109 
z
" clip-path="url(#p41ac96f228)" style="fill: #332288; fill-opacity: 0.6; stroke: #ffffff; stroke-opacity: 0.6; stroke-width: 0.339411"/>
    <path d="M 98.328828 118.425664 
L 100.128828 115.425664 
L 98.328828 112.425664 
L 96.528828 115.425664 
z
" clip-path="url(#p41ac96f228)" style="fill: #332288; fill-opacity: 0.6; stroke: #ffffff; stroke-opacity: 0.6; stroke-width: 0.339411"/>
    <path d="M 87.723771 36.174808 
L 89.523771 33.174808 
L 87.723771 30.174808 
L 85.923771 33.174808 
z
" clip-path="url(#p41ac96f228)" style="fill: #332288; fill-opacity: 0.6; stroke: #ffffff; stroke-opacity: 0.6; stroke-width: 0.339411"/>
    <path d="M 72.726692 47.272721 
L 74.526692 44.272721 
L 72.726692 41.272721 
L 70.926692 44.272721 
z
" clip-path="url(#p41ac96f228)" style="fill: #332288; fill-opacity: 0.6; stroke: #ffffff; stroke-opacity: 0.6; stroke-width: 0.339411"/>
    <path d="M 99.408697 99.664905 
L 101.208697 96.664905 
L 99.408697 93.664905 
L 97.608697 96.664905 
z
" clip-path="url(#p41ac96f228)" style="fill: #332288; fill-opacity: 0.6; stroke: #ffffff; stroke-opacity: 0.6; stroke-width: 0.339411"/>
    <path d="M 105.703548 96.015018 
L 107.503548 93.015018 
L 105.703548 90.015018 
L 103.903548 93.015018 
z
" clip-path="url(#p41ac96f228)" style="fill: #332288; fill-opacity: 0.6; stroke: #ffffff; stroke-opacity: 0.6; stroke-width: 0.339411"/>
    <path d="M 108.791379 118.049169 
L 110.591379 115.049169 
L 108.791379 112.049169 
L 106.991379 115.049169 
z
" clip-path="url(#p41ac96f228)" style="fill: #332288; fill-opacity: 0.6; stroke: #ffffff; stroke-opacity: 0.6; stroke-width: 0.339411"/>
    <path d="M 120.534928 146.635833 
L 122.334928 143.635833 
L 120.534928 140.635833 
L 118.734928 143.635833 
z
" clip-path="url(#p41ac96f228)" style="fill: #332288; fill-opacity: 0.6; stroke: #ffffff; stroke-opacity: 0.6; stroke-width: 0.339411"/>
    <path d="M 105.703548 96.015018 
L 107.503548 93.015018 
L 105.703548 90.015018 
L 103.903548 93.015018 
z
" clip-path="url(#p41ac96f228)" style="fill: #332288; fill-opacity: 0.6; stroke: #ffffff; stroke-opacity: 0.6; stroke-width: 0.339411"/>
    <path d="M 95.819996 64.919215 
L 97.619996 61.919215 
L 95.819996 58.919215 
L 94.019996 61.919215 
z
" clip-path="url(#p41ac96f228)" style="fill: #332288; fill-opacity: 0.6; stroke: #ffffff; stroke-opacity: 0.6; stroke-width: 0.339411"/>
    <path d="M 98.760209 118.125886 
L 100.560209 115.125886 
L 98.760209 112.125886 
L 96.960209 115.125886 
z
" clip-path="url(#p41ac96f228)" style="fill: #332288; fill-opacity: 0.6; stroke: #ffffff; stroke-opacity: 0.6; stroke-width: 0.339411"/>
    <path d="M 100.521416 105.258516 
L 102.321416 102.258516 
L 100.521416 99.258516 
L 98.721416 102.258516 
z
" clip-path="url(#p41ac96f228)" style="fill: #332288; fill-opacity: 0.6; stroke: #ffffff; stroke-opacity: 0.6; stroke-width: 0.339411"/>
    <path d="M 75.467003 42.876306 
L 77.267003 39.876306 
L 75.467003 36.876306 
L 73.667003 39.876306 
z
" clip-path="url(#p41ac96f228)" style="fill: #332288; fill-opacity: 0.6; stroke: #ffffff; stroke-opacity: 0.6; stroke-width: 0.339411"/>
    <path d="M 107.433546 77.603517 
L 109.233546 74.603517 
L 107.433546 71.603517 
L 105.633546 74.603517 
z
" clip-path="url(#p41ac96f228)" style="fill: #332288; fill-opacity: 0.6; stroke: #ffffff; stroke-opacity: 0.6; stroke-width: 0.339411"/>
    <path d="M 99.349769 130.284 
L 101.149769 127.284 
L 99.349769 124.284 
L 97.549769 127.284 
z
" clip-path="url(#p41ac96f228)" style="fill: #332288; fill-opacity: 0.6; stroke: #ffffff; stroke-opacity: 0.6; stroke-width: 0.339411"/>
    <path d="M 98.60772 119.057854 
L 100.40772 116.057854 
L 98.60772 113.057854 
L 96.80772 116.057854 
z
" clip-path="url(#p41ac96f228)" style="fill: #332288; fill-opacity: 0.6; stroke: #ffffff; stroke-opacity: 0.6; stroke-width: 0.339411"/>
    <path d="M 136.022733 130.812569 
L 137.822733 127.812569 
L 136.022733 124.812569 
L 134.222733 127.812569 
z
" clip-path="url(#p41ac96f228)" style="fill: #332288; fill-opacity: 0.6; stroke: #ffffff; stroke-opacity: 0.6; stroke-width: 0.339411"/>
    <path d="M 91.329048 31.269882 
L 93.129048 28.269882 
L 91.329048 25.269882 
L 89.529048 28.269882 
z
" clip-path="url(#p41ac96f228)" style="fill: #332288; fill-opacity: 0.6; stroke: #ffffff; stroke-opacity: 0.6; stroke-width: 0.339411"/>
    <path d="M 74.532978 55.373993 
L 76.332978 52.373993 
L 74.532978 49.373993 
L 72.732978 52.373993 
z
" clip-path="url(#p41ac96f228)" style="fill: #332288; fill-opacity: 0.6; stroke: #ffffff; stroke-opacity: 0.6; stroke-width: 0.339411"/>
    <path d="M 106.301779 87.216577 
L 108.101779 84.216577 
L 106.301779 81.216577 
L 104.501779 84.216577 
z
" clip-path="url(#p41ac96f228)" style="fill: #332288; fill-opacity: 0.6; stroke: #ffffff; stroke-opacity: 0.6; stroke-width: 0.339411"/>
    <path d="M 100.521416 105.258516 
L 102.321416 102.258516 
L 100.521416 99.258516 
L 98.721416 102.258516 
z
" clip-path="url(#p41ac96f228)" style="fill: #332288; fill-opacity: 0.6; stroke: #ffffff; stroke-opacity: 0.6; stroke-width: 0.339411"/>
    <path d="M 122.852965 144.121642 
L 124.652965 141.121642 
L 122.852965 138.121642 
L 121.052965 141.121642 
z
" clip-path="url(#p41ac96f228)" style="fill: #332288; fill-opacity: 0.6; stroke: #ffffff; stroke-opacity: 0.6; stroke-width: 0.339411"/>
    <path d="M 93.060255 106.506666 
L 94.860255 103.506666 
L 93.060255 100.506666 
L 91.260255 103.506666 
z
" clip-path="url(#p41ac96f228)" style="fill: #332288; fill-opacity: 0.6; stroke: #ffffff; stroke-opacity: 0.6; stroke-width: 0.339411"/>
    <path d="M 132.660095 95.593356 
L 130.538775 99.835997 
L 134.781415 99.835997 
z
" clip-path="url(#p41ac96f228)" style="fill: #117733; fill-opacity: 0.6; stroke: #ffffff; stroke-opacity: 0.6; stroke-width: 0.339411"/>
    <path d="M 139.991566 139.390419 
L 137.870246 143.63306 
L 142.112887 143.63306 
z
" clip-path="url(#p41ac96f228)" style="fill: #117733; fill-opacity: 0.6; stroke: #ffffff; stroke-opacity: 0.6; stroke-width: 0.339411"/>
    <path d="M 137.592538 132.442174 
L 135.471218 136.684815 
L 139.713858 136.684815 
z
" clip-path="url(#p41ac96f228)" style="fill: #117733; fill-opacity: 0.6; stroke: #ffffff; stroke-opacity: 0.6; stroke-width: 0.339411"/>
    <path d="M 156.921763 122.63028 
L 154.800443 126.872921 
L 159.043084 126.872921 
z
" clip-path="url(#p41ac96f228)" style="fill: #117733; fill-opacity: 0.6; stroke: #ffffff; stroke-opacity: 0.6; stroke-width: 0.339411"/>
    <path d="M 171.825045 100.114679 
L 169.703724 104.357319 
L 173.946365 104.357319 
z
" clip-path="url(#p41ac96f228)" style="fill: #117733; fill-opacity: 0.6; stroke: #ffffff; stroke-opacity: 0.6; stroke-width: 0.339411"/>
    <path d="M 123.775587 104.394725 
L 121.654267 108.637365 
L 125.896907 108.637365 
z
" clip-path="url(#p41ac96f228)" style="fill: #117733; fill-opacity: 0.6; stroke: #ffffff; stroke-opacity: 0.6; stroke-width: 0.339411"/>
    <path d="M 111.057038 45.228378 
L 108.935718 49.471018 
L 113.178359 49.471018 
z
" clip-path="url(#p41ac96f228)" style="fill: #117733; fill-opacity: 0.6; stroke: #ffffff; stroke-opacity: 0.6; stroke-width: 0.339411"/>
    <path d="M 161.17457 116.400553 
L 159.053249 120.643194 
L 163.29589 120.643194 
z
" clip-path="url(#p41ac96f228)" style="fill: #117733; fill-opacity: 0.6; stroke: #ffffff; stroke-opacity: 0.6; stroke-width: 0.339411"/>
    <path d="M 209.646333 108.752606 
L 207.525013 112.995247 
L 211.767653 112.995247 
z
" clip-path="url(#p41ac96f228)" style="fill: #117733; fill-opacity: 0.6; stroke: #ffffff; stroke-opacity: 0.6; stroke-width: 0.339411"/>
    <path d="M 162.449084 108.420831 
L 160.327763 112.663472 
L 164.570404 112.663472 
z
" clip-path="url(#p41ac96f228)" style="fill: #117733; fill-opacity: 0.6; stroke: #ffffff; stroke-opacity: 0.6; stroke-width: 0.339411"/>
    <path d="M 172.004939 112.94011 
L 169.883619 117.182751 
L 174.12626 117.182751 
z
" clip-path="url(#p41ac96f228)" style="fill: #117733; fill-opacity: 0.6; stroke: #ffffff; stroke-opacity: 0.6; stroke-width: 0.339411"/>
    <path d="M 155.797478 93.455014 
L 153.676158 97.697655 
L 157.918798 97.697655 
z
" clip-path="url(#p41ac96f228)" style="fill: #117733; fill-opacity: 0.6; stroke: #ffffff; stroke-opacity: 0.6; stroke-width: 0.339411"/>
    <path d="M 137.522496 136.856553 
L 135.401176 141.099194 
L 139.643817 141.099194 
z
" clip-path="url(#p41ac96f228)" style="fill: #117733; fill-opacity: 0.6; stroke: #ffffff; stroke-opacity: 0.6; stroke-width: 0.339411"/>
    <path d="M 160.310751 127.194709 
L 158.189431 131.43735 
L 162.432072 131.43735 
z
" clip-path="url(#p41ac96f228)" style="fill: #117733; fill-opacity: 0.6; stroke: #ffffff; stroke-opacity: 0.6; stroke-width: 0.339411"/>
    <path d="M 129.823137 88.26402 
L 127.701817 92.50666 
L 131.944457 92.50666 
z
" clip-path="url(#p41ac96f228)" style="fill: #117733; fill-opacity: 0.6; stroke: #ffffff; stroke-opacity: 0.6; stroke-width: 0.339411"/>
    <path d="M 155.412734 118.721319 
L 153.291414 122.96396 
L 157.534055 122.96396 
z
" clip-path="url(#p41ac96f228)" style="fill: #117733; fill-opacity: 0.6; stroke: #ffffff; stroke-opacity: 0.6; stroke-width: 0.339411"/>
    <path d="M 152.666775 112.903417 
L 150.545455 117.146057 
L 154.788096 117.146057 
z
" clip-path="url(#p41ac96f228)" style="fill: #117733; fill-opacity: 0.6; stroke: #ffffff; stroke-opacity: 0.6; stroke-width: 0.339411"/>
    <path d="M 160.181049 130.193047 
L 158.059729 134.435688 
L 162.302369 134.435688 
z
" clip-path="url(#p41ac96f228)" style="fill: #117733; fill-opacity: 0.6; stroke: #ffffff; stroke-opacity: 0.6; stroke-width: 0.339411"/>
    <path d="M 105.076882 52.814784 
L 102.955561 57.057424 
L 107.198202 57.057424 
z
" clip-path="url(#p41ac96f228)" style="fill: #117733; fill-opacity: 0.6; stroke: #ffffff; stroke-opacity: 0.6; stroke-width: 0.339411"/>
    <path d="M 177.450723 126.83082 
L 175.329403 131.073461 
L 179.572043 131.073461 
z
" clip-path="url(#p41ac96f228)" style="fill: #117733; fill-opacity: 0.6; stroke: #ffffff; stroke-opacity: 0.6; stroke-width: 0.339411"/>
    <path d="M 146.650497 138.610992 
L 144.529177 142.853633 
L 148.771817 142.853633 
z
" clip-path="url(#p41ac96f228)" style="fill: #117733; fill-opacity: 0.6; stroke: #ffffff; stroke-opacity: 0.6; stroke-width: 0.339411"/>
    <path d="M 137.706025 105.174552 
L 135.584704 109.417193 
L 139.827345 109.417193 
z
" clip-path="url(#p41ac96f228)" style="fill: #117733; fill-opacity: 0.6; stroke: #ffffff; stroke-opacity: 0.6; stroke-width: 0.339411"/>
    <path d="M 127.916569 116.534056 
L 125.795249 120.776697 
L 130.03789 120.776697 
z
" clip-path="url(#p41ac96f228)" style="fill: #117733; fill-opacity: 0.6; stroke: #ffffff; stroke-opacity: 0.6; stroke-width: 0.339411"/>
    <path d="M 146.029634 82.953711 
L 143.908313 87.196351 
L 148.150954 87.196351 
z
" clip-path="url(#p41ac96f228)" style="fill: #117733; fill-opacity: 0.6; stroke: #ffffff; stroke-opacity: 0.6; stroke-width: 0.339411"/>
    <path d="M 143.584886 104.462131 
L 141.463566 108.704772 
L 145.706207 108.704772 
z
" clip-path="url(#p41ac96f228)" style="fill: #117733; fill-opacity: 0.6; stroke: #ffffff; stroke-opacity: 0.6; stroke-width: 0.339411"/>
    <path d="M 152.010429 113.003467 
L 149.889109 117.246108 
L 154.13175 117.246108 
z
" clip-path="url(#p41ac96f228)" style="fill: #117733; fill-opacity: 0.6; stroke: #ffffff; stroke-opacity: 0.6; stroke-width: 0.339411"/>
    <path d="M 162.865325 131.677799 
L 160.744004 135.92044 
L 164.986645 135.92044 
z
" clip-path="url(#p41ac96f228)" style="fill: #117733; fill-opacity: 0.6; stroke: #ffffff; stroke-opacity: 0.6; stroke-width: 0.339411"/>
    <path d="M 164.380198 133.065884 
L 162.258878 137.308524 
L 166.501518 137.308524 
z
" clip-path="url(#p41ac96f228)" style="fill: #117733; fill-opacity: 0.6; stroke: #ffffff; stroke-opacity: 0.6; stroke-width: 0.339411"/>
    <path d="M 145.924754 134.305563 
L 143.803433 138.548204 
L 148.046074 138.548204 
z
" clip-path="url(#p41ac96f228)" style="fill: #117733; fill-opacity: 0.6; stroke: #ffffff; stroke-opacity: 0.6; stroke-width: 0.339411"/>
    <path d="M 155.638011 77.703468 
L 153.51669 81.946109 
L 157.759331 81.946109 
z
" clip-path="url(#p41ac96f228)" style="fill: #117733; fill-opacity: 0.6; stroke: #ffffff; stroke-opacity: 0.6; stroke-width: 0.339411"/>
    <path d="M 159.003992 138.144721 
L 156.882671 142.387361 
L 161.125312 142.387361 
z
" clip-path="url(#p41ac96f228)" style="fill: #117733; fill-opacity: 0.6; stroke: #ffffff; stroke-opacity: 0.6; stroke-width: 0.339411"/>
    <path d="M 110.256868 89.46103 
L 108.135547 93.70367 
L 112.378188 93.70367 
z
" clip-path="url(#p41ac96f228)" style="fill: #117733; fill-opacity: 0.6; stroke: #ffffff; stroke-opacity: 0.6; stroke-width: 0.339411"/>
    <path d="M 159.159487 97.103558 
L 157.038166 101.346199 
L 161.280807 101.346199 
z
" clip-path="url(#p41ac96f228)" style="fill: #117733; fill-opacity: 0.6; stroke: #ffffff; stroke-opacity: 0.6; stroke-width: 0.339411"/>
    <path d="M 161.537854 130.431693 
L 159.416533 134.674334 
L 163.659174 134.674334 
z
" clip-path="url(#p41ac96f228)" style="fill: #117733; fill-opacity: 0.6; stroke: #ffffff; stroke-opacity: 0.6; stroke-width: 0.339411"/>
    <path d="M 152.529845 107.712199 
L 150.408524 111.95484 
L 154.651165 111.95484 
z
" clip-path="url(#p41ac96f228)" style="fill: #117733; fill-opacity: 0.6; stroke: #ffffff; stroke-opacity: 0.6; stroke-width: 0.339411"/>
    <path d="M 121.869138 66.960747 
L 119.747818 71.203387 
L 123.990459 71.203387 
z
" clip-path="url(#p41ac96f228)" style="fill: #117733; fill-opacity: 0.6; stroke: #ffffff; stroke-opacity: 0.6; stroke-width: 0.339411"/>
    <path d="M 124.653778 99.036165 
L 122.532458 103.278805 
L 126.775099 103.278805 
z
" clip-path="url(#p41ac96f228)" style="fill: #117733; fill-opacity: 0.6; stroke: #ffffff; stroke-opacity: 0.6; stroke-width: 0.339411"/>
    <path d="M 131.03859 94.96717 
L 128.91727 99.209811 
L 133.159911 99.209811 
z
" clip-path="url(#p41ac96f228)" style="fill: #117733; fill-opacity: 0.6; stroke: #ffffff; stroke-opacity: 0.6; stroke-width: 0.339411"/>
    <path d="M 154.599182 96.316061 
L 152.477862 100.558702 
L 156.720503 100.558702 
z
" clip-path="url(#p41ac96f228)" style="fill: #117733; fill-opacity: 0.6; stroke: #ffffff; stroke-opacity: 0.6; stroke-width: 0.339411"/>
    <path d="M 128.338985 121.349735 
L 126.217665 125.592376 
L 130.460306 125.592376 
z
" clip-path="url(#p41ac96f228)" style="fill: #117733; fill-opacity: 0.6; stroke: #ffffff; stroke-opacity: 0.6; stroke-width: 0.339411"/>
    <path d="M 157.279037 116.050511 
L 155.157717 120.293152 
L 159.400358 120.293152 
z
" clip-path="url(#p41ac96f228)" style="fill: #117733; fill-opacity: 0.6; stroke: #ffffff; stroke-opacity: 0.6; stroke-width: 0.339411"/>
    <path d="M 126.633259 39.778789 
L 124.511938 44.02143 
L 128.754579 44.02143 
z
" clip-path="url(#p41ac96f228)" style="fill: #117733; fill-opacity: 0.6; stroke: #ffffff; stroke-opacity: 0.6; stroke-width: 0.339411"/>
    <path d="M 140.009778 133.129221 
L 137.888458 137.371862 
L 142.131098 137.371862 
z
" clip-path="url(#p41ac96f228)" style="fill: #117733; fill-opacity: 0.6; stroke: #ffffff; stroke-opacity: 0.6; stroke-width: 0.339411"/>
    <path d="M 152.36225 124.074761 
L 150.24093 128.317401 
L 154.48357 128.317401 
z
" clip-path="url(#p41ac96f228)" style="fill: #117733; fill-opacity: 0.6; stroke: #ffffff; stroke-opacity: 0.6; stroke-width: 0.339411"/>
    <path d="M 151.151574 126.752453 
L 149.030254 130.995093 
L 153.272895 130.995093 
z
" clip-path="url(#p41ac96f228)" style="fill: #117733; fill-opacity: 0.6; stroke: #ffffff; stroke-opacity: 0.6; stroke-width: 0.339411"/>
    <path d="M 138.663918 123.347064 
L 136.542598 127.589705 
L 140.785238 127.589705 
z
" clip-path="url(#p41ac96f228)" style="fill: #117733; fill-opacity: 0.6; stroke: #ffffff; stroke-opacity: 0.6; stroke-width: 0.339411"/>
    <path d="M 166.486473 126.886798 
L 164.365152 131.129439 
L 168.607793 131.129439 
z
" clip-path="url(#p41ac96f228)" style="fill: #117733; fill-opacity: 0.6; stroke: #ffffff; stroke-opacity: 0.6; stroke-width: 0.339411"/>
    <path d="M 161.098176 118.967658 
L 158.976856 123.210299 
L 163.219496 123.210299 
z
" clip-path="url(#p41ac96f228)" style="fill: #117733; fill-opacity: 0.6; stroke: #ffffff; stroke-opacity: 0.6; stroke-width: 0.339411"/>
    <path d="M 140.491755 108.630339 
L 138.370434 112.87298 
L 142.613075 112.87298 
z
" clip-path="url(#p41ac96f228)" style="fill: #117733; fill-opacity: 0.6; stroke: #ffffff; stroke-opacity: 0.6; stroke-width: 0.339411"/>
    <path d="M 147.388923 112.974576 
L 145.267603 117.217217 
L 149.510243 117.217217 
z
" clip-path="url(#p41ac96f228)" style="fill: #117733; fill-opacity: 0.6; stroke: #ffffff; stroke-opacity: 0.6; stroke-width: 0.339411"/>
    <path d="M 162.44923 121.585419 
L 160.327909 125.828059 
L 164.57055 125.828059 
z
" clip-path="url(#p41ac96f228)" style="fill: #117733; fill-opacity: 0.6; stroke: #ffffff; stroke-opacity: 0.6; stroke-width: 0.339411"/>
    <path d="M 162.673909 121.425766 
L 160.552589 125.668407 
L 164.79523 125.668407 
z
" clip-path="url(#p41ac96f228)" style="fill: #117733; fill-opacity: 0.6; stroke: #ffffff; stroke-opacity: 0.6; stroke-width: 0.339411"/>
    <path d="M 105.076882 52.814784 
L 102.955561 57.057424 
L 107.198202 57.057424 
z
" clip-path="url(#p41ac96f228)" style="fill: #117733; fill-opacity: 0.6; stroke: #ffffff; stroke-opacity: 0.6; stroke-width: 0.339411"/>
    <path d="M 142.923166 105.354732 
L 140.801846 109.597372 
L 145.044487 109.597372 
z
" clip-path="url(#p41ac96f228)" style="fill: #117733; fill-opacity: 0.6; stroke: #ffffff; stroke-opacity: 0.6; stroke-width: 0.339411"/>
    <path d="M 161.88919 120.606632 
L 159.767869 124.849273 
L 164.01051 124.849273 
z
" clip-path="url(#p41ac96f228)" style="fill: #117733; fill-opacity: 0.6; stroke: #ffffff; stroke-opacity: 0.6; stroke-width: 0.339411"/>
    <path d="M 155.178522 98.016392 
L 153.057202 102.259033 
L 157.299843 102.259033 
z
" clip-path="url(#p41ac96f228)" style="fill: #117733; fill-opacity: 0.6; stroke: #ffffff; stroke-opacity: 0.6; stroke-width: 0.339411"/>
    <path d="M 155.797478 93.455014 
L 153.676158 97.697655 
L 157.918798 97.697655 
z
" clip-path="url(#p41ac96f228)" style="fill: #117733; fill-opacity: 0.6; stroke: #ffffff; stroke-opacity: 0.6; stroke-width: 0.339411"/>
    <path d="M 150.110904 129.741391 
L 147.989583 133.984031 
L 152.232224 133.984031 
z
" clip-path="url(#p41ac96f228)" style="fill: #117733; fill-opacity: 0.6; stroke: #ffffff; stroke-opacity: 0.6; stroke-width: 0.339411"/>
    <path d="M 159.414201 113.702573 
L 157.292881 117.945214 
L 161.535521 117.945214 
z
" clip-path="url(#p41ac96f228)" style="fill: #117733; fill-opacity: 0.6; stroke: #ffffff; stroke-opacity: 0.6; stroke-width: 0.339411"/>
    <path d="M 172.02267 128.656647 
L 169.901349 132.899288 
L 174.14399 132.899288 
z
" clip-path="url(#p41ac96f228)" style="fill: #117733; fill-opacity: 0.6; stroke: #ffffff; stroke-opacity: 0.6; stroke-width: 0.339411"/>
    <path d="M 141.466934 123.646241 
L 139.345613 127.888881 
L 143.588254 127.888881 
z
" clip-path="url(#p41ac96f228)" style="fill: #117733; fill-opacity: 0.6; stroke: #ffffff; stroke-opacity: 0.6; stroke-width: 0.339411"/>
    <path d="M 154.97228 110.76857 
L 152.85096 115.01121 
L 157.0936 115.01121 
z
" clip-path="url(#p41ac96f228)" style="fill: #117733; fill-opacity: 0.6; stroke: #ffffff; stroke-opacity: 0.6; stroke-width: 0.339411"/>
    <path d="M 199.062254 111.760217 
L 203.304895 111.760217 
L 203.304895 107.517576 
L 199.062254 107.517576 
z
" clip-path="url(#p41ac96f228)" style="fill: #44aa99; fill-opacity: 0.6; stroke: #ffffff; stroke-opacity: 0.6; stroke-width: 0.339411"/>
    <path d="M 139.336244 121.339652 
L 143.578885 121.339652 
L 143.578885 117.097011 
L 139.336244 117.097011 
z
" clip-path="url(#p41ac96f228)" style="fill: #44aa99; fill-opacity: 0.6; stroke: #ffffff; stroke-opacity: 0.6; stroke-width: 0.339411"/>
    <path d="M 159.791355 123.248316 
L 164.033996 123.248316 
L 164.033996 119.005675 
L 159.791355 119.005675 
z
" clip-path="url(#p41ac96f228)" style="fill: #44aa99; fill-opacity: 0.6; stroke: #ffffff; stroke-opacity: 0.6; stroke-width: 0.339411"/>
    <path d="M 204.064177 104.483336 
L 208.306817 104.483336 
L 208.306817 100.240695 
L 204.064177 100.240695 
z
" clip-path="url(#p41ac96f228)" style="fill: #44aa99; fill-opacity: 0.6; stroke: #ffffff; stroke-opacity: 0.6; stroke-width: 0.339411"/>
    <path d="M 136.669309 123.517153 
L 140.91195 123.517153 
L 140.91195 119.274512 
L 136.669309 119.274512 
z
" clip-path="url(#p41ac96f228)" style="fill: #44aa99; fill-opacity: 0.6; stroke: #ffffff; stroke-opacity: 0.6; stroke-width: 0.339411"/>
    <path d="M 122.937879 140.174351 
L 127.18052 140.174351 
L 127.18052 135.93171 
L 122.937879 135.93171 
z
" clip-path="url(#p41ac96f228)" style="fill: #44aa99; fill-opacity: 0.6; stroke: #ffffff; stroke-opacity: 0.6; stroke-width: 0.339411"/>
    <path d="M 152.400048 124.521245 
L 156.642689 124.521245 
L 156.642689 120.278604 
L 152.400048 120.278604 
z
" clip-path="url(#p41ac96f228)" style="fill: #44aa99; fill-opacity: 0.6; stroke: #ffffff; stroke-opacity: 0.6; stroke-width: 0.339411"/>
    <path d="M 144.293672 127.643291 
L 148.536313 127.643291 
L 148.536313 123.40065 
L 144.293672 123.40065 
z
" clip-path="url(#p41ac96f228)" style="fill: #44aa99; fill-opacity: 0.6; stroke: #ffffff; stroke-opacity: 0.6; stroke-width: 0.339411"/>
    <path d="M 125.460762 59.902468 
L 129.703403 59.902468 
L 129.703403 55.659827 
L 125.460762 55.659827 
z
" clip-path="url(#p41ac96f228)" style="fill: #44aa99; fill-opacity: 0.6; stroke: #ffffff; stroke-opacity: 0.6; stroke-width: 0.339411"/>
    <path d="M 116.645429 148.101187 
L 120.88807 148.101187 
L 120.88807 143.858546 
L 116.645429 143.858546 
z
" clip-path="url(#p41ac96f228)" style="fill: #44aa99; fill-opacity: 0.6; stroke: #ffffff; stroke-opacity: 0.6; stroke-width: 0.339411"/>
    <path d="M 164.879101 125.822157 
L 169.121741 125.822157 
L 169.121741 121.579516 
L 164.879101 121.579516 
z
" clip-path="url(#p41ac96f228)" style="fill: #44aa99; fill-opacity: 0.6; stroke: #ffffff; stroke-opacity: 0.6; stroke-width: 0.339411"/>
    <path d="M 137.928952 122.751936 
L 142.171593 122.751936 
L 142.171593 118.509296 
L 137.928952 118.509296 
z
" clip-path="url(#p41ac96f228)" style="fill: #44aa99; fill-opacity: 0.6; stroke: #ffffff; stroke-opacity: 0.6; stroke-width: 0.339411"/>
    <path d="M 128.311324 128.815843 
L 132.553965 128.815843 
L 132.553965 124.573202 
L 128.311324 124.573202 
z
" clip-path="url(#p41ac96f228)" style="fill: #44aa99; fill-opacity: 0.6; stroke: #ffffff; stroke-opacity: 0.6; stroke-width: 0.339411"/>
    <path d="M 138.541663 124.40602 
L 142.784304 124.40602 
L 142.784304 120.16338 
L 138.541663 120.16338 
z
" clip-path="url(#p41ac96f228)" style="fill: #44aa99; fill-opacity: 0.6; stroke: #ffffff; stroke-opacity: 0.6; stroke-width: 0.339411"/>
    <path d="M 134.06274 132.583442 
L 138.305381 132.583442 
L 138.305381 128.340801 
L 134.06274 128.340801 
z
" clip-path="url(#p41ac96f228)" style="fill: #44aa99; fill-opacity: 0.6; stroke: #ffffff; stroke-opacity: 0.6; stroke-width: 0.339411"/>
    <path d="M 156.026466 93.887707 
L 160.269106 93.887707 
L 160.269106 89.645067 
L 156.026466 89.645067 
z
" clip-path="url(#p41ac96f228)" style="fill: #44aa99; fill-opacity: 0.6; stroke: #ffffff; stroke-opacity: 0.6; stroke-width: 0.339411"/>
    <path d="M 137.907588 115.915773 
L 142.150229 115.915773 
L 142.150229 111.673132 
L 137.907588 111.673132 
z
" clip-path="url(#p41ac96f228)" style="fill: #44aa99; fill-opacity: 0.6; stroke: #ffffff; stroke-opacity: 0.6; stroke-width: 0.339411"/>
    <path d="M 152.194938 128.360962 
L 156.437579 128.360962 
L 156.437579 124.118321 
L 152.194938 124.118321 
z
" clip-path="url(#p41ac96f228)" style="fill: #44aa99; fill-opacity: 0.6; stroke: #ffffff; stroke-opacity: 0.6; stroke-width: 0.339411"/>
    <path d="M 144.357254 135.59962 
L 148.599895 135.59962 
L 148.599895 131.35698 
L 144.357254 131.35698 
z
" clip-path="url(#p41ac96f228)" style="fill: #44aa99; fill-opacity: 0.6; stroke: #ffffff; stroke-opacity: 0.6; stroke-width: 0.339411"/>
    <path d="M 203.823736 96.159096 
L 208.066376 96.159096 
L 208.066376 91.916455 
L 203.823736 91.916455 
z
" clip-path="url(#p41ac96f228)" style="fill: #44aa99; fill-opacity: 0.6; stroke: #ffffff; stroke-opacity: 0.6; stroke-width: 0.339411"/>
    <path d="M 165.16663 126.976185 
L 169.409271 126.976185 
L 169.409271 122.733544 
L 165.16663 122.733544 
z
" clip-path="url(#p41ac96f228)" style="fill: #44aa99; fill-opacity: 0.6; stroke: #ffffff; stroke-opacity: 0.6; stroke-width: 0.339411"/>
    <path d="M 145.678434 138.220498 
L 149.921074 138.220498 
L 149.921074 133.977858 
L 145.678434 133.977858 
z
" clip-path="url(#p41ac96f228)" style="fill: #44aa99; fill-opacity: 0.6; stroke: #ffffff; stroke-opacity: 0.6; stroke-width: 0.339411"/>
    <path d="M 130.32151 137.065139 
L 134.564151 137.065139 
L 134.564151 132.822498 
L 130.32151 132.822498 
z
" clip-path="url(#p41ac96f228)" style="fill: #44aa99; fill-opacity: 0.6; stroke: #ffffff; stroke-opacity: 0.6; stroke-width: 0.339411"/>
    <path d="M 138.09543 79.379337 
L 142.338071 79.379337 
L 142.338071 75.136696 
L 138.09543 75.136696 
z
" clip-path="url(#p41ac96f228)" style="fill: #44aa99; fill-opacity: 0.6; stroke: #ffffff; stroke-opacity: 0.6; stroke-width: 0.339411"/>
    <path d="M 115.331457 108.886682 
L 119.574098 108.886682 
L 119.574098 104.644041 
L 115.331457 104.644041 
z
" clip-path="url(#p41ac96f228)" style="fill: #44aa99; fill-opacity: 0.6; stroke: #ffffff; stroke-opacity: 0.6; stroke-width: 0.339411"/>
    <path d="M 199.672185 52.288811 
L 203.914826 52.288811 
L 203.914826 48.04617 
L 199.672185 48.04617 
z
" clip-path="url(#p41ac96f228)" style="fill: #44aa99; fill-opacity: 0.6; stroke: #ffffff; stroke-opacity: 0.6; stroke-width: 0.339411"/>
    <path d="M 136.924876 124.181955 
L 141.167517 124.181955 
L 141.167517 119.939314 
L 136.924876 119.939314 
z
" clip-path="url(#p41ac96f228)" style="fill: #44aa99; fill-opacity: 0.6; stroke: #ffffff; stroke-opacity: 0.6; stroke-width: 0.339411"/>
    <path d="M 209.071015 99.553435 
L 213.313656 99.553435 
L 213.313656 95.310794 
L 209.071015 95.310794 
z
" clip-path="url(#p41ac96f228)" style="fill: #44aa99; fill-opacity: 0.6; stroke: #ffffff; stroke-opacity: 0.6; stroke-width: 0.339411"/>
    <path d="M 146.093331 116.610485 
L 150.335971 116.610485 
L 150.335971 112.367844 
L 146.093331 112.367844 
z
" clip-path="url(#p41ac96f228)" style="fill: #44aa99; fill-opacity: 0.6; stroke: #ffffff; stroke-opacity: 0.6; stroke-width: 0.339411"/>
    <path d="M 139.840501 104.473373 
L 144.083142 104.473373 
L 144.083142 100.230732 
L 139.840501 100.230732 
z
" clip-path="url(#p41ac96f228)" style="fill: #44aa99; fill-opacity: 0.6; stroke: #ffffff; stroke-opacity: 0.6; stroke-width: 0.339411"/>
    <path d="M 141.489811 127.115954 
L 145.732452 127.115954 
L 145.732452 122.873313 
L 141.489811 122.873313 
z
" clip-path="url(#p41ac96f228)" style="fill: #44aa99; fill-opacity: 0.6; stroke: #ffffff; stroke-opacity: 0.6; stroke-width: 0.339411"/>
    <path d="M 120.144749 137.85951 
L 124.38739 137.85951 
L 124.38739 133.616869 
L 120.144749 133.616869 
z
" clip-path="url(#p41ac96f228)" style="fill: #44aa99; fill-opacity: 0.6; stroke: #ffffff; stroke-opacity: 0.6; stroke-width: 0.339411"/>
    <path d="M 140.244429 131.506226 
L 144.48707 131.506226 
L 144.48707 127.263586 
L 140.244429 127.263586 
z
" clip-path="url(#p41ac96f228)" style="fill: #44aa99; fill-opacity: 0.6; stroke: #ffffff; stroke-opacity: 0.6; stroke-width: 0.339411"/>
    <path d="M 121.069845 139.967762 
L 125.312486 139.967762 
L 125.312486 135.725121 
L 121.069845 135.725121 
z
" clip-path="url(#p41ac96f228)" style="fill: #44aa99; fill-opacity: 0.6; stroke: #ffffff; stroke-opacity: 0.6; stroke-width: 0.339411"/>
    <path d="M 128.442667 119.812817 
L 132.685308 119.812817 
L 132.685308 115.570176 
L 128.442667 115.570176 
z
" clip-path="url(#p41ac96f228)" style="fill: #44aa99; fill-opacity: 0.6; stroke: #ffffff; stroke-opacity: 0.6; stroke-width: 0.339411"/>
    <path d="M 125.321839 153.441041 
L 129.56448 153.441041 
L 129.56448 149.198401 
L 125.321839 149.198401 
z
" clip-path="url(#p41ac96f228)" style="fill: #44aa99; fill-opacity: 0.6; stroke: #ffffff; stroke-opacity: 0.6; stroke-width: 0.339411"/>
    <path d="M 148.319975 129.929906 
L 152.562615 129.929906 
L 152.562615 125.687265 
L 148.319975 125.687265 
z
" clip-path="url(#p41ac96f228)" style="fill: #44aa99; fill-opacity: 0.6; stroke: #ffffff; stroke-opacity: 0.6; stroke-width: 0.339411"/>
    <path d="M 147.316692 114.049431 
L 151.559333 114.049431 
L 151.559333 109.80679 
L 147.316692 109.80679 
z
" clip-path="url(#p41ac96f228)" style="fill: #44aa99; fill-opacity: 0.6; stroke: #ffffff; stroke-opacity: 0.6; stroke-width: 0.339411"/>
    <path d="M 139.240614 121.491168 
L 143.483255 121.491168 
L 143.483255 117.248527 
L 139.240614 117.248527 
z
" clip-path="url(#p41ac96f228)" style="fill: #44aa99; fill-opacity: 0.6; stroke: #ffffff; stroke-opacity: 0.6; stroke-width: 0.339411"/>
    <path d="M 148.032269 131.249213 
L 152.27491 131.249213 
L 152.27491 127.006573 
L 148.032269 127.006573 
z
" clip-path="url(#p41ac96f228)" style="fill: #44aa99; fill-opacity: 0.6; stroke: #ffffff; stroke-opacity: 0.6; stroke-width: 0.339411"/>
    <path d="M 121.069845 139.967762 
L 125.312486 139.967762 
L 125.312486 135.725121 
L 121.069845 135.725121 
z
" clip-path="url(#p41ac96f228)" style="fill: #44aa99; fill-opacity: 0.6; stroke: #ffffff; stroke-opacity: 0.6; stroke-width: 0.339411"/>
    <path d="M 128.752876 137.079974 
L 132.995516 137.079974 
L 132.995516 132.837333 
L 128.752876 132.837333 
z
" clip-path="url(#p41ac96f228)" style="fill: #44aa99; fill-opacity: 0.6; stroke: #ffffff; stroke-opacity: 0.6; stroke-width: 0.339411"/>
    <path d="M 151.456747 130.873369 
L 155.699387 130.873369 
L 155.699387 126.630728 
L 151.456747 126.630728 
z
" clip-path="url(#p41ac96f228)" style="fill: #44aa99; fill-opacity: 0.6; stroke: #ffffff; stroke-opacity: 0.6; stroke-width: 0.339411"/>
    <path d="M 134.084663 133.278091 
L 138.327304 133.278091 
L 138.327304 129.03545 
L 134.084663 129.03545 
z
" clip-path="url(#p41ac96f228)" style="fill: #44aa99; fill-opacity: 0.6; stroke: #ffffff; stroke-opacity: 0.6; stroke-width: 0.339411"/>
    <path d="M 122.553783 118.956871 
L 126.796424 118.956871 
L 126.796424 114.71423 
L 122.553783 114.71423 
z
" clip-path="url(#p41ac96f228)" style="fill: #44aa99; fill-opacity: 0.6; stroke: #ffffff; stroke-opacity: 0.6; stroke-width: 0.339411"/>
    <path d="M 166.450794 122.295905 
L 170.693435 122.295905 
L 170.693435 118.053265 
L 166.450794 118.053265 
z
" clip-path="url(#p41ac96f228)" style="fill: #44aa99; fill-opacity: 0.6; stroke: #ffffff; stroke-opacity: 0.6; stroke-width: 0.339411"/>
    <path d="M 149.381615 128.10016 
L 153.624256 128.10016 
L 153.624256 123.857519 
L 149.381615 123.857519 
z
" clip-path="url(#p41ac96f228)" style="fill: #44aa99; fill-opacity: 0.6; stroke: #ffffff; stroke-opacity: 0.6; stroke-width: 0.339411"/>
    <path d="M 203.638702 89.079206 
L 207.881343 89.079206 
L 207.881343 84.836566 
L 203.638702 84.836566 
z
" clip-path="url(#p41ac96f228)" style="fill: #44aa99; fill-opacity: 0.6; stroke: #ffffff; stroke-opacity: 0.6; stroke-width: 0.339411"/>
    <path d="M 133.834953 144.800336 
L 138.077593 144.800336 
L 138.077593 140.557695 
L 133.834953 140.557695 
z
" clip-path="url(#p41ac96f228)" style="fill: #44aa99; fill-opacity: 0.6; stroke: #ffffff; stroke-opacity: 0.6; stroke-width: 0.339411"/>
    <path d="M 144.704373 128.380907 
L 148.947014 128.380907 
L 148.947014 124.138266 
L 144.704373 124.138266 
z
" clip-path="url(#p41ac96f228)" style="fill: #44aa99; fill-opacity: 0.6; stroke: #ffffff; stroke-opacity: 0.6; stroke-width: 0.339411"/>
    <path d="M 132.646115 133.395989 
L 136.888756 133.395989 
L 136.888756 129.153348 
L 132.646115 129.153348 
z
" clip-path="url(#p41ac96f228)" style="fill: #44aa99; fill-opacity: 0.6; stroke: #ffffff; stroke-opacity: 0.6; stroke-width: 0.339411"/>
    <path d="M 137.628201 137.054849 
L 141.870842 137.054849 
L 141.870842 132.812208 
L 137.628201 132.812208 
z
" clip-path="url(#p41ac96f228)" style="fill: #44aa99; fill-opacity: 0.6; stroke: #ffffff; stroke-opacity: 0.6; stroke-width: 0.339411"/>
    <path d="M 139.494669 112.816581 
L 143.73731 112.816581 
L 143.73731 108.573941 
L 139.494669 108.573941 
z
" clip-path="url(#p41ac96f228)" style="fill: #44aa99; fill-opacity: 0.6; stroke: #ffffff; stroke-opacity: 0.6; stroke-width: 0.339411"/>
    <path d="M 160.923858 126.71002 
L 165.166498 126.71002 
L 165.166498 122.46738 
L 160.923858 122.46738 
z
" clip-path="url(#p41ac96f228)" style="fill: #44aa99; fill-opacity: 0.6; stroke: #ffffff; stroke-opacity: 0.6; stroke-width: 0.339411"/>
    <path d="M 133.941712 131.520497 
L 138.184352 131.520497 
L 138.184352 127.277856 
L 133.941712 127.277856 
z
" clip-path="url(#p41ac96f228)" style="fill: #44aa99; fill-opacity: 0.6; stroke: #ffffff; stroke-opacity: 0.6; stroke-width: 0.339411"/>
    <path d="M 126.788669 41.993143 
L 131.031309 41.993143 
L 131.031309 37.750503 
L 126.788669 37.750503 
z
" clip-path="url(#p41ac96f228)" style="fill: #44aa99; fill-opacity: 0.6; stroke: #ffffff; stroke-opacity: 0.6; stroke-width: 0.339411"/>
    <path d="M 137.443442 133.250274 
L 141.686083 133.250274 
L 141.686083 129.007634 
L 137.443442 129.007634 
z
" clip-path="url(#p41ac96f228)" style="fill: #44aa99; fill-opacity: 0.6; stroke: #ffffff; stroke-opacity: 0.6; stroke-width: 0.339411"/>
    <path d="M 153.421767 90.479783 
L 157.664408 90.479783 
L 157.664408 86.237142 
L 153.421767 86.237142 
z
" clip-path="url(#p41ac96f228)" style="fill: #44aa99; fill-opacity: 0.6; stroke: #ffffff; stroke-opacity: 0.6; stroke-width: 0.339411"/>
    <path d="M 149.978727 129.822351 
L 154.221368 129.822351 
L 154.221368 125.57971 
L 149.978727 125.57971 
z
" clip-path="url(#p41ac96f228)" style="fill: #44aa99; fill-opacity: 0.6; stroke: #ffffff; stroke-opacity: 0.6; stroke-width: 0.339411"/>
    <path d="M 139.563026 123.297274 
L 143.805666 123.297274 
L 143.805666 119.054633 
L 139.563026 119.054633 
z
" clip-path="url(#p41ac96f228)" style="fill: #44aa99; fill-opacity: 0.6; stroke: #ffffff; stroke-opacity: 0.6; stroke-width: 0.339411"/>
    <path d="M 144.148772 145.310038 
L 148.391412 145.310038 
L 148.391412 141.067397 
L 144.148772 141.067397 
z
" clip-path="url(#p41ac96f228)" style="fill: #44aa99; fill-opacity: 0.6; stroke: #ffffff; stroke-opacity: 0.6; stroke-width: 0.339411"/>
    <path d="M 153.66638 127.560184 
L 157.909021 127.560184 
L 157.909021 123.317543 
L 153.66638 123.317543 
z
" clip-path="url(#p41ac96f228)" style="fill: #44aa99; fill-opacity: 0.6; stroke: #ffffff; stroke-opacity: 0.6; stroke-width: 0.339411"/>
    <path d="M 137.553387 129.753246 
L 141.796028 129.753246 
L 141.796028 125.510605 
L 137.553387 125.510605 
z
" clip-path="url(#p41ac96f228)" style="fill: #44aa99; fill-opacity: 0.6; stroke: #ffffff; stroke-opacity: 0.6; stroke-width: 0.339411"/>
    <path d="M 126.831092 120.048313 
L 131.073733 120.048313 
L 131.073733 115.805673 
L 126.831092 115.805673 
z
" clip-path="url(#p41ac96f228)" style="fill: #44aa99; fill-opacity: 0.6; stroke: #ffffff; stroke-opacity: 0.6; stroke-width: 0.339411"/>
    <path d="M 195.193879 95.215147 
L 196.254539 94.154487 
L 197.315199 95.215147 
L 198.37586 94.154487 
L 197.315199 93.093827 
L 198.37586 92.033167 
L 197.315199 90.972506 
L 196.254539 92.033167 
L 195.193879 90.972506 
L 194.133219 92.033167 
L 195.193879 93.093827 
L 194.133219 94.154487 
z
" clip-path="url(#p41ac96f228)" style="fill: #88ccee; fill-opacity: 0.6; stroke: #ffffff; stroke-opacity: 0.6; stroke-width: 0.339411"/>
    <path d="M 221.921756 103.405478 
L 222.982416 102.344818 
L 224.043076 103.405478 
L 225.103737 102.344818 
L 224.043076 101.284158 
L 225.103737 100.223498 
L 224.043076 99.162837 
L 222.982416 100.223498 
L 221.921756 99.162837 
L 220.861096 100.223498 
L 221.921756 101.284158 
L 220.861096 102.344818 
z
" clip-path="url(#p41ac96f228)" style="fill: #88ccee; fill-opacity: 0.6; stroke: #ffffff; stroke-opacity: 0.6; stroke-width: 0.339411"/>
    <path d="M 207.8636 92.2154 
L 208.92426 91.15474 
L 209.98492 92.2154 
L 211.045581 91.15474 
L 209.98492 90.09408 
L 211.045581 89.03342 
L 209.98492 87.97276 
L 208.92426 89.03342 
L 207.8636 87.97276 
L 206.80294 89.03342 
L 207.8636 90.09408 
L 206.80294 91.15474 
z
" clip-path="url(#p41ac96f228)" style="fill: #88ccee; fill-opacity: 0.6; stroke: #ffffff; stroke-opacity: 0.6; stroke-width: 0.339411"/>
    <path d="M 225.30844 33.418081 
L 226.3691 32.357421 
L 227.42976 33.418081 
L 228.49042 32.357421 
L 227.42976 31.296761 
L 228.49042 30.236101 
L 227.42976 29.175441 
L 226.3691 30.236101 
L 225.30844 29.175441 
L 224.24778 30.236101 
L 225.30844 31.296761 
L 224.24778 32.357421 
z
" clip-path="url(#p41ac96f228)" style="fill: #88ccee; fill-opacity: 0.6; stroke: #ffffff; stroke-opacity: 0.6; stroke-width: 0.339411"/>
    <path d="M 210.39467 116.298452 
L 211.45533 115.237792 
L 212.51599 116.298452 
L 213.57665 115.237792 
L 212.51599 114.177132 
L 213.57665 113.116472 
L 212.51599 112.055812 
L 211.45533 113.116472 
L 210.39467 112.055812 
L 209.33401 113.116472 
L 210.39467 114.177132 
L 209.33401 115.237792 
z
" clip-path="url(#p41ac96f228)" style="fill: #88ccee; fill-opacity: 0.6; stroke: #ffffff; stroke-opacity: 0.6; stroke-width: 0.339411"/>
    <path d="M 128.102528 88.408254 
L 129.163188 87.347594 
L 130.223848 88.408254 
L 131.284508 87.347594 
L 130.223848 86.286934 
L 131.284508 85.226274 
L 130.223848 84.165614 
L 129.163188 85.226274 
L 128.102528 84.165614 
L 127.041868 85.226274 
L 128.102528 86.286934 
L 127.041868 87.347594 
z
" clip-path="url(#p41ac96f228)" style="fill: #88ccee; fill-opacity: 0.6; stroke: #ffffff; stroke-opacity: 0.6; stroke-width: 0.339411"/>
    <path d="M 207.424405 62.685093 
L 208.485065 61.624433 
L 209.545725 62.685093 
L 210.606385 61.624433 
L 209.545725 60.563773 
L 210.606385 59.503113 
L 209.545725 58.442453 
L 208.485065 59.503113 
L 207.424405 58.442453 
L 206.363745 59.503113 
L 207.424405 60.563773 
L 206.363745 61.624433 
z
" clip-path="url(#p41ac96f228)" style="fill: #88ccee; fill-opacity: 0.6; stroke: #ffffff; stroke-opacity: 0.6; stroke-width: 0.339411"/>
    <path d="M 202.035061 100.211584 
L 203.095722 99.150924 
L 204.156382 100.211584 
L 205.217042 99.150924 
L 204.156382 98.090264 
L 205.217042 97.029603 
L 204.156382 95.968943 
L 203.095722 97.029603 
L 202.035061 95.968943 
L 200.974401 97.029603 
L 202.035061 98.090264 
L 200.974401 99.150924 
z
" clip-path="url(#p41ac96f228)" style="fill: #88ccee; fill-opacity: 0.6; stroke: #ffffff; stroke-opacity: 0.6; stroke-width: 0.339411"/>
    <path d="M 212.173032 69.457188 
L 213.233692 68.396528 
L 214.294352 69.457188 
L 215.355012 68.396528 
L 214.294352 67.335868 
L 215.355012 66.275207 
L 214.294352 65.214547 
L 213.233692 66.275207 
L 212.173032 65.214547 
L 211.112372 66.275207 
L 212.173032 67.335868 
L 211.112372 68.396528 
z
" clip-path="url(#p41ac96f228)" style="fill: #88ccee; fill-opacity: 0.6; stroke: #ffffff; stroke-opacity: 0.6; stroke-width: 0.339411"/>
    <path d="M 105.944904 49.337877 
L 107.005564 48.277217 
L 108.066224 49.337877 
L 109.126884 48.277217 
L 108.066224 47.216557 
L 109.126884 46.155897 
L 108.066224 45.095236 
L 107.005564 46.155897 
L 105.944904 45.095236 
L 104.884243 46.155897 
L 105.944904 47.216557 
L 104.884243 48.277217 
z
" clip-path="url(#p41ac96f228)" style="fill: #88ccee; fill-opacity: 0.6; stroke: #ffffff; stroke-opacity: 0.6; stroke-width: 0.339411"/>
    <path d="M 208.007628 81.813982 
L 209.068288 80.753321 
L 210.128948 81.813982 
L 211.189608 80.753321 
L 210.128948 79.692661 
L 211.189608 78.632001 
L 210.128948 77.571341 
L 209.068288 78.632001 
L 208.007628 77.571341 
L 206.946968 78.632001 
L 208.007628 79.692661 
L 206.946968 80.753321 
z
" clip-path="url(#p41ac96f228)" style="fill: #88ccee; fill-opacity: 0.6; stroke: #ffffff; stroke-opacity: 0.6; stroke-width: 0.339411"/>
    <path d="M 149.161449 137.658846 
L 150.222109 136.598186 
L 151.282769 137.658846 
L 152.343429 136.598186 
L 151.282769 135.537526 
L 152.343429 134.476866 
L 151.282769 133.416206 
L 150.222109 134.476866 
L 149.161449 133.416206 
L 148.100789 134.476866 
L 149.161449 135.537526 
L 148.100789 136.598186 
z
" clip-path="url(#p41ac96f228)" style="fill: #88ccee; fill-opacity: 0.6; stroke: #ffffff; stroke-opacity: 0.6; stroke-width: 0.339411"/>
    <path d="M 200.357158 99.75846 
L 201.417818 98.6978 
L 202.478478 99.75846 
L 203.539138 98.6978 
L 202.478478 97.63714 
L 203.539138 96.57648 
L 202.478478 95.51582 
L 201.417818 96.57648 
L 200.357158 95.51582 
L 199.296497 96.57648 
L 200.357158 97.63714 
L 199.296497 98.6978 
z
" clip-path="url(#p41ac96f228)" style="fill: #88ccee; fill-opacity: 0.6; stroke: #ffffff; stroke-opacity: 0.6; stroke-width: 0.339411"/>
    <path d="M 215.525961 113.087965 
L 216.586621 112.027304 
L 217.647281 113.087965 
L 218.707941 112.027304 
L 217.647281 110.966644 
L 218.707941 109.905984 
L 217.647281 108.845324 
L 216.586621 109.905984 
L 215.525961 108.845324 
L 214.465301 109.905984 
L 215.525961 110.966644 
L 214.465301 112.027304 
z
" clip-path="url(#p41ac96f228)" style="fill: #88ccee; fill-opacity: 0.6; stroke: #ffffff; stroke-opacity: 0.6; stroke-width: 0.339411"/>
    <path d="M 221.321563 24.964036 
L 222.382223 23.903376 
L 223.442883 24.964036 
L 224.503544 23.903376 
L 223.442883 22.842715 
L 224.503544 21.782055 
L 223.442883 20.721395 
L 222.382223 21.782055 
L 221.321563 20.721395 
L 220.260903 21.782055 
L 221.321563 22.842715 
L 220.260903 23.903376 
z
" clip-path="url(#p41ac96f228)" style="fill: #88ccee; fill-opacity: 0.6; stroke: #ffffff; stroke-opacity: 0.6; stroke-width: 0.339411"/>
    <path d="M 207.933335 114.323582 
L 208.993995 113.262922 
L 210.054655 114.323582 
L 211.115315 113.262922 
L 210.054655 112.202262 
L 211.115315 111.141602 
L 210.054655 110.080941 
L 208.993995 111.141602 
L 207.933335 110.080941 
L 206.872675 111.141602 
L 207.933335 112.202262 
L 206.872675 113.262922 
z
" clip-path="url(#p41ac96f228)" style="fill: #88ccee; fill-opacity: 0.6; stroke: #ffffff; stroke-opacity: 0.6; stroke-width: 0.339411"/>
    <path d="M 195.455277 111.463766 
L 196.515938 110.403106 
L 197.576598 111.463766 
L 198.637258 110.403106 
L 197.576598 109.342446 
L 198.637258 108.281786 
L 197.576598 107.221126 
L 196.515938 108.281786 
L 195.455277 107.221126 
L 194.394617 108.281786 
L 195.455277 109.342446 
L 194.394617 110.403106 
z
" clip-path="url(#p41ac96f228)" style="fill: #88ccee; fill-opacity: 0.6; stroke: #ffffff; stroke-opacity: 0.6; stroke-width: 0.339411"/>
    <path d="M 200.880154 68.397899 
L 201.940814 67.337238 
L 203.001474 68.397899 
L 204.062135 67.337238 
L 203.001474 66.276578 
L 204.062135 65.215918 
L 203.001474 64.155258 
L 201.940814 65.215918 
L 200.880154 64.155258 
L 199.819494 65.215918 
L 200.880154 66.276578 
L 199.819494 67.337238 
z
" clip-path="url(#p41ac96f228)" style="fill: #88ccee; fill-opacity: 0.6; stroke: #ffffff; stroke-opacity: 0.6; stroke-width: 0.339411"/>
    <path d="M 204.469666 103.118222 
L 205.530326 102.057562 
L 206.590986 103.118222 
L 207.651647 102.057562 
L 206.590986 100.996901 
L 207.651647 99.936241 
L 206.590986 98.875581 
L 205.530326 99.936241 
L 204.469666 98.875581 
L 203.409006 99.936241 
L 204.469666 100.996901 
L 203.409006 102.057562 
z
" clip-path="url(#p41ac96f228)" style="fill: #88ccee; fill-opacity: 0.6; stroke: #ffffff; stroke-opacity: 0.6; stroke-width: 0.339411"/>
    <path d="M 214.788305 94.615977 
L 215.848965 93.555317 
L 216.909625 94.615977 
L 217.970285 93.555317 
L 216.909625 92.494657 
L 217.970285 91.433997 
L 216.909625 90.373337 
L 215.848965 91.433997 
L 214.788305 90.373337 
L 213.727645 91.433997 
L 214.788305 92.494657 
L 213.727645 93.555317 
z
" clip-path="url(#p41ac96f228)" style="fill: #88ccee; fill-opacity: 0.6; stroke: #ffffff; stroke-opacity: 0.6; stroke-width: 0.339411"/>
    <path d="M 205.99394 98.095645 
L 207.0546 97.034985 
L 208.11526 98.095645 
L 209.17592 97.034985 
L 208.11526 95.974325 
L 209.17592 94.913664 
L 208.11526 93.853004 
L 207.0546 94.913664 
L 205.99394 93.853004 
L 204.93328 94.913664 
L 205.99394 95.974325 
L 204.93328 97.034985 
z
" clip-path="url(#p41ac96f228)" style="fill: #88ccee; fill-opacity: 0.6; stroke: #ffffff; stroke-opacity: 0.6; stroke-width: 0.339411"/>
    <path d="M 214.662557 22.408638 
L 215.723217 21.347978 
L 216.783878 22.408638 
L 217.844538 21.347978 
L 216.783878 20.287317 
L 217.844538 19.226657 
L 216.783878 18.165997 
L 215.723217 19.226657 
L 214.662557 18.165997 
L 213.601897 19.226657 
L 214.662557 20.287317 
L 213.601897 21.347978 
z
" clip-path="url(#p41ac96f228)" style="fill: #88ccee; fill-opacity: 0.6; stroke: #ffffff; stroke-opacity: 0.6; stroke-width: 0.339411"/>
    <path d="M 213.723768 74.582491 
L 214.784428 73.521831 
L 215.845089 74.582491 
L 216.905749 73.521831 
L 215.845089 72.461171 
L 216.905749 71.400511 
L 215.845089 70.339851 
L 214.784428 71.400511 
L 213.723768 70.339851 
L 212.663108 71.400511 
L 213.723768 72.461171 
L 212.663108 73.521831 
z
" clip-path="url(#p41ac96f228)" style="fill: #88ccee; fill-opacity: 0.6; stroke: #ffffff; stroke-opacity: 0.6; stroke-width: 0.339411"/>
    <path d="M 200.236398 101.263183 
L 201.297059 100.202523 
L 202.357719 101.263183 
L 203.418379 100.202523 
L 202.357719 99.141863 
L 203.418379 98.081203 
L 202.357719 97.020543 
L 201.297059 98.081203 
L 200.236398 97.020543 
L 199.175738 98.081203 
L 200.236398 99.141863 
L 199.175738 100.202523 
z
" clip-path="url(#p41ac96f228)" style="fill: #88ccee; fill-opacity: 0.6; stroke: #ffffff; stroke-opacity: 0.6; stroke-width: 0.339411"/>
    <path d="M 210.666038 103.385401 
L 211.726698 102.32474 
L 212.787358 103.385401 
L 213.848018 102.32474 
L 212.787358 101.26408 
L 213.848018 100.20342 
L 212.787358 99.14276 
L 211.726698 100.20342 
L 210.666038 99.14276 
L 209.605378 100.20342 
L 210.666038 101.26408 
L 209.605378 102.32474 
z
" clip-path="url(#p41ac96f228)" style="fill: #88ccee; fill-opacity: 0.6; stroke: #ffffff; stroke-opacity: 0.6; stroke-width: 0.339411"/>
    <path d="M 170.972452 127.846355 
L 172.033112 126.785695 
L 173.093772 127.846355 
L 174.154432 126.785695 
L 173.093772 125.725035 
L 174.154432 124.664375 
L 173.093772 123.603715 
L 172.033112 124.664375 
L 170.972452 123.603715 
L 169.911792 124.664375 
L 170.972452 125.725035 
L 169.911792 126.785695 
z
" clip-path="url(#p41ac96f228)" style="fill: #88ccee; fill-opacity: 0.6; stroke: #ffffff; stroke-opacity: 0.6; stroke-width: 0.339411"/>
    <path d="M 213.686123 92.738955 
L 214.746783 91.678295 
L 215.807444 92.738955 
L 216.868104 91.678295 
L 215.807444 90.617635 
L 216.868104 89.556975 
L 215.807444 88.496315 
L 214.746783 89.556975 
L 213.686123 88.496315 
L 212.625463 89.556975 
L 213.686123 90.617635 
L 212.625463 91.678295 
z
" clip-path="url(#p41ac96f228)" style="fill: #88ccee; fill-opacity: 0.6; stroke: #ffffff; stroke-opacity: 0.6; stroke-width: 0.339411"/>
    <path d="M 215.064943 115.982107 
L 216.125603 114.921447 
L 217.186263 115.982107 
L 218.246923 114.921447 
L 217.186263 113.860786 
L 218.246923 112.800126 
L 217.186263 111.739466 
L 216.125603 112.800126 
L 215.064943 111.739466 
L 214.004283 112.800126 
L 215.064943 113.860786 
L 214.004283 114.921447 
z
" clip-path="url(#p41ac96f228)" style="fill: #88ccee; fill-opacity: 0.6; stroke: #ffffff; stroke-opacity: 0.6; stroke-width: 0.339411"/>
    <path d="M 201.34931 112.804439 
L 202.40997 111.743779 
L 203.47063 112.804439 
L 204.53129 111.743779 
L 203.47063 110.683119 
L 204.53129 109.622459 
L 203.47063 108.561799 
L 202.40997 109.622459 
L 201.34931 108.561799 
L 200.288649 109.622459 
L 201.34931 110.683119 
L 200.288649 111.743779 
z
" clip-path="url(#p41ac96f228)" style="fill: #88ccee; fill-opacity: 0.6; stroke: #ffffff; stroke-opacity: 0.6; stroke-width: 0.339411"/>
    <path d="M 181.083831 135.687884 
L 182.144491 134.627224 
L 183.205151 135.687884 
L 184.265811 134.627224 
L 183.205151 133.566564 
L 184.265811 132.505904 
L 183.205151 131.445244 
L 182.144491 132.505904 
L 181.083831 131.445244 
L 180.023171 132.505904 
L 181.083831 133.566564 
L 180.023171 134.627224 
z
" clip-path="url(#p41ac96f228)" style="fill: #88ccee; fill-opacity: 0.6; stroke: #ffffff; stroke-opacity: 0.6; stroke-width: 0.339411"/>
    <path d="M 194.262679 42.626999 
L 195.323339 41.566339 
L 196.383999 42.626999 
L 197.444659 41.566339 
L 196.383999 40.505679 
L 197.444659 39.445019 
L 196.383999 38.384358 
L 195.323339 39.445019 
L 194.262679 38.384358 
L 193.202019 39.445019 
L 194.262679 40.505679 
L 193.202019 41.566339 
z
" clip-path="url(#p41ac96f228)" style="fill: #88ccee; fill-opacity: 0.6; stroke: #ffffff; stroke-opacity: 0.6; stroke-width: 0.339411"/>
    <path d="M 218.330958 103.095044 
L 219.391619 102.034384 
L 220.452279 103.095044 
L 221.512939 102.034384 
L 220.452279 100.973724 
L 221.512939 99.913064 
L 220.452279 98.852404 
L 219.391619 99.913064 
L 218.330958 98.852404 
L 217.270298 99.913064 
L 218.330958 100.973724 
L 217.270298 102.034384 
z
" clip-path="url(#p41ac96f228)" style="fill: #88ccee; fill-opacity: 0.6; stroke: #ffffff; stroke-opacity: 0.6; stroke-width: 0.339411"/>
    <path d="M 216.656674 55.420678 
L 217.717335 54.360018 
L 218.777995 55.420678 
L 219.838655 54.360018 
L 218.777995 53.299358 
L 219.838655 52.238698 
L 218.777995 51.178038 
L 217.717335 52.238698 
L 216.656674 51.178038 
L 215.596014 52.238698 
L 216.656674 53.299358 
L 215.596014 54.360018 
z
" clip-path="url(#p41ac96f228)" style="fill: #88ccee; fill-opacity: 0.6; stroke: #ffffff; stroke-opacity: 0.6; stroke-width: 0.339411"/>
    <path d="M 127.909091 69.560343 
L 128.969751 68.499682 
L 130.030411 69.560343 
L 131.091071 68.499682 
L 130.030411 67.439022 
L 131.091071 66.378362 
L 130.030411 65.317702 
L 128.969751 66.378362 
L 127.909091 65.317702 
L 126.848431 66.378362 
L 127.909091 67.439022 
L 126.848431 68.499682 
z
" clip-path="url(#p41ac96f228)" style="fill: #88ccee; fill-opacity: 0.6; stroke: #ffffff; stroke-opacity: 0.6; stroke-width: 0.339411"/>
    <path d="M 151.272808 133.21902 
L 152.333468 132.15836 
L 153.394128 133.21902 
L 154.454788 132.15836 
L 153.394128 131.0977 
L 154.454788 130.03704 
L 153.394128 128.976379 
L 152.333468 130.03704 
L 151.272808 128.976379 
L 150.212147 130.03704 
L 151.272808 131.0977 
L 150.212147 132.15836 
z
" clip-path="url(#p41ac96f228)" style="fill: #88ccee; fill-opacity: 0.6; stroke: #ffffff; stroke-opacity: 0.6; stroke-width: 0.339411"/>
    <path d="M 209.022132 119.997378 
L 210.082792 118.936718 
L 211.143452 119.997378 
L 212.204112 118.936718 
L 211.143452 117.876058 
L 212.204112 116.815398 
L 211.143452 115.754738 
L 210.082792 116.815398 
L 209.022132 115.754738 
L 207.961471 116.815398 
L 209.022132 117.876058 
L 207.961471 118.936718 
z
" clip-path="url(#p41ac96f228)" style="fill: #88ccee; fill-opacity: 0.6; stroke: #ffffff; stroke-opacity: 0.6; stroke-width: 0.339411"/>
    <path d="M 212.438571 53.198281 
L 213.499231 52.137621 
L 214.559891 53.198281 
L 215.620551 52.137621 
L 214.559891 51.076961 
L 215.620551 50.016301 
L 214.559891 48.955641 
L 213.499231 50.016301 
L 212.438571 48.955641 
L 211.377911 50.016301 
L 212.438571 51.076961 
L 211.377911 52.137621 
z
" clip-path="url(#p41ac96f228)" style="fill: #88ccee; fill-opacity: 0.6; stroke: #ffffff; stroke-opacity: 0.6; stroke-width: 0.339411"/>
    <path d="M 135.783696 82.760518 
L 136.844356 81.699858 
L 137.905016 82.760518 
L 138.965677 81.699858 
L 137.905016 80.639198 
L 138.965677 79.578538 
L 137.905016 78.517878 
L 136.844356 79.578538 
L 135.783696 78.517878 
L 134.723036 79.578538 
L 135.783696 80.639198 
L 134.723036 81.699858 
z
" clip-path="url(#p41ac96f228)" style="fill: #88ccee; fill-opacity: 0.6; stroke: #ffffff; stroke-opacity: 0.6; stroke-width: 0.339411"/>
    <path d="M 202.680268 65.723054 
L 203.740928 64.662394 
L 204.801589 65.723054 
L 205.862249 64.662394 
L 204.801589 63.601733 
L 205.862249 62.541073 
L 204.801589 61.480413 
L 203.740928 62.541073 
L 202.680268 61.480413 
L 201.619608 62.541073 
L 202.680268 63.601733 
L 201.619608 64.662394 
z
" clip-path="url(#p41ac96f228)" style="fill: #88ccee; fill-opacity: 0.6; stroke: #ffffff; stroke-opacity: 0.6; stroke-width: 0.339411"/>
    <path d="M 226.51699 113.563466 
L 227.57765 112.502805 
L 228.63831 113.563466 
L 229.69897 112.502805 
L 228.63831 111.442145 
L 229.69897 110.381485 
L 228.63831 109.320825 
L 227.57765 110.381485 
L 226.51699 109.320825 
L 225.45633 110.381485 
L 226.51699 111.442145 
L 225.45633 112.502805 
z
" clip-path="url(#p41ac96f228)" style="fill: #88ccee; fill-opacity: 0.6; stroke: #ffffff; stroke-opacity: 0.6; stroke-width: 0.339411"/>
    <path d="M 147.117401 117.146669 
L 148.178061 116.086009 
L 149.238722 117.146669 
L 150.299382 116.086009 
L 149.238722 115.025348 
L 150.299382 113.964688 
L 149.238722 112.904028 
L 148.178061 113.964688 
L 147.117401 112.904028 
L 146.056741 113.964688 
L 147.117401 115.025348 
L 146.056741 116.086009 
z
" clip-path="url(#p41ac96f228)" style="fill: #88ccee; fill-opacity: 0.6; stroke: #ffffff; stroke-opacity: 0.6; stroke-width: 0.339411"/>
    <path d="M 207.439982 112.280989 
L 208.500642 111.220329 
L 209.561302 112.280989 
L 210.621962 111.220329 
L 209.561302 110.159669 
L 210.621962 109.099009 
L 209.561302 108.038348 
L 208.500642 109.099009 
L 207.439982 108.038348 
L 206.379322 109.099009 
L 207.439982 110.159669 
L 206.379322 111.220329 
z
" clip-path="url(#p41ac96f228)" style="fill: #88ccee; fill-opacity: 0.6; stroke: #ffffff; stroke-opacity: 0.6; stroke-width: 0.339411"/>
    <path d="M 225.498115 69.469597 
L 226.558775 68.408936 
L 227.619436 69.469597 
L 228.680096 68.408936 
L 227.619436 67.348276 
L 228.680096 66.287616 
L 227.619436 65.226956 
L 226.558775 66.287616 
L 225.498115 65.226956 
L 224.437455 66.287616 
L 225.498115 67.348276 
L 224.437455 68.408936 
z
" clip-path="url(#p41ac96f228)" style="fill: #88ccee; fill-opacity: 0.6; stroke: #ffffff; stroke-opacity: 0.6; stroke-width: 0.339411"/>
    <path d="M 214.192511 90.307983 
L 215.253171 89.247323 
L 216.313831 90.307983 
L 217.374492 89.247323 
L 216.313831 88.186662 
L 217.374492 87.126002 
L 216.313831 86.065342 
L 215.253171 87.126002 
L 214.192511 86.065342 
L 213.131851 87.126002 
L 214.192511 88.186662 
L 213.131851 89.247323 
z
" clip-path="url(#p41ac96f228)" style="fill: #88ccee; fill-opacity: 0.6; stroke: #ffffff; stroke-opacity: 0.6; stroke-width: 0.339411"/>
    <path d="M 206.644397 103.463437 
L 207.705058 102.402777 
L 208.765718 103.463437 
L 209.826378 102.402777 
L 208.765718 101.342117 
L 209.826378 100.281457 
L 208.765718 99.220796 
L 207.705058 100.281457 
L 206.644397 99.220796 
L 205.583737 100.281457 
L 206.644397 101.342117 
L 205.583737 102.402777 
z
" clip-path="url(#p41ac96f228)" style="fill: #88ccee; fill-opacity: 0.6; stroke: #ffffff; stroke-opacity: 0.6; stroke-width: 0.339411"/>
    <path d="M 209.357104 89.860213 
L 210.417764 88.799553 
L 211.478424 89.860213 
L 212.539085 88.799553 
L 211.478424 87.738893 
L 212.539085 86.678233 
L 211.478424 85.617573 
L 210.417764 86.678233 
L 209.357104 85.617573 
L 208.296444 86.678233 
L 209.357104 87.738893 
L 208.296444 88.799553 
z
" clip-path="url(#p41ac96f228)" style="fill: #88ccee; fill-opacity: 0.6; stroke: #ffffff; stroke-opacity: 0.6; stroke-width: 0.339411"/>
    <path d="M 215.634473 70.631373 
L 216.695133 69.570713 
L 217.755793 70.631373 
L 218.816453 69.570713 
L 217.755793 68.510053 
L 218.816453 67.449393 
L 217.755793 66.388733 
L 216.695133 67.449393 
L 215.634473 66.388733 
L 214.573812 67.449393 
L 215.634473 68.510053 
L 214.573812 69.570713 
z
" clip-path="url(#p41ac96f228)" style="fill: #88ccee; fill-opacity: 0.6; stroke: #ffffff; stroke-opacity: 0.6; stroke-width: 0.339411"/>
    <path d="M 172.737919 133.352213 
L 173.798579 132.291553 
L 174.859239 133.352213 
L 175.919899 132.291553 
L 174.859239 131.230893 
L 175.919899 130.170233 
L 174.859239 129.109572 
L 173.798579 130.170233 
L 172.737919 129.109572 
L 171.677259 130.170233 
L 172.737919 131.230893 
L 171.677259 132.291553 
z
" clip-path="url(#p41ac96f228)" style="fill: #88ccee; fill-opacity: 0.6; stroke: #ffffff; stroke-opacity: 0.6; stroke-width: 0.339411"/>
    <path d="M 199.103826 106.891337 
L 200.164487 105.830677 
L 201.225147 106.891337 
L 202.285807 105.830677 
L 201.225147 104.770017 
L 202.285807 103.709356 
L 201.225147 102.648696 
L 200.164487 103.709356 
L 199.103826 102.648696 
L 198.043166 103.709356 
L 199.103826 104.770017 
L 198.043166 105.830677 
z
" clip-path="url(#p41ac96f228)" style="fill: #88ccee; fill-opacity: 0.6; stroke: #ffffff; stroke-opacity: 0.6; stroke-width: 0.339411"/>
    <path d="M 193.077178 91.840919 
L 194.137839 90.780258 
L 195.198499 91.840919 
L 196.259159 90.780258 
L 195.198499 89.719598 
L 196.259159 88.658938 
L 195.198499 87.598278 
L 194.137839 88.658938 
L 193.077178 87.598278 
L 192.016518 88.658938 
L 193.077178 89.719598 
L 192.016518 90.780258 
z
" clip-path="url(#p41ac96f228)" style="fill: #88ccee; fill-opacity: 0.6; stroke: #ffffff; stroke-opacity: 0.6; stroke-width: 0.339411"/>
    <path d="M 198.038184 64.50294 
L 199.098844 63.44228 
L 200.159504 64.50294 
L 201.220165 63.44228 
L 200.159504 62.38162 
L 201.220165 61.32096 
L 200.159504 60.260299 
L 199.098844 61.32096 
L 198.038184 60.260299 
L 196.977524 61.32096 
L 198.038184 62.38162 
L 196.977524 63.44228 
z
" clip-path="url(#p41ac96f228)" style="fill: #88ccee; fill-opacity: 0.6; stroke: #ffffff; stroke-opacity: 0.6; stroke-width: 0.339411"/>
    <path d="M 193.99731 121.518243 
L 195.057971 120.457583 
L 196.118631 121.518243 
L 197.179291 120.457583 
L 196.118631 119.396923 
L 197.179291 118.336263 
L 196.118631 117.275602 
L 195.057971 118.336263 
L 193.99731 117.275602 
L 192.93665 118.336263 
L 193.99731 119.396923 
L 192.93665 120.457583 
z
" clip-path="url(#p41ac96f228)" style="fill: #88ccee; fill-opacity: 0.6; stroke: #ffffff; stroke-opacity: 0.6; stroke-width: 0.339411"/>
    <path d="M 213.997593 87.9633 
L 215.058253 86.90264 
L 216.118913 87.9633 
L 217.179574 86.90264 
L 216.118913 85.841979 
L 217.179574 84.781319 
L 216.118913 83.720659 
L 215.058253 84.781319 
L 213.997593 83.720659 
L 212.936933 84.781319 
L 213.997593 85.841979 
L 212.936933 86.90264 
z
" clip-path="url(#p41ac96f228)" style="fill: #88ccee; fill-opacity: 0.6; stroke: #ffffff; stroke-opacity: 0.6; stroke-width: 0.339411"/>
    <path d="M 206.286247 82.25281 
L 207.346908 81.19215 
L 208.407568 82.25281 
L 209.468228 81.19215 
L 208.407568 80.131489 
L 209.468228 79.070829 
L 208.407568 78.010169 
L 207.346908 79.070829 
L 206.286247 78.010169 
L 205.225587 79.070829 
L 206.286247 80.131489 
L 205.225587 81.19215 
z
" clip-path="url(#p41ac96f228)" style="fill: #88ccee; fill-opacity: 0.6; stroke: #ffffff; stroke-opacity: 0.6; stroke-width: 0.339411"/>
    <path d="M 191.888078 96.556998 
L 192.948739 95.496338 
L 194.009399 96.556998 
L 195.070059 95.496338 
L 194.009399 94.435678 
L 195.070059 93.375018 
L 194.009399 92.314358 
L 192.948739 93.375018 
L 191.888078 92.314358 
L 190.827418 93.375018 
L 191.888078 94.435678 
L 190.827418 95.496338 
z
" clip-path="url(#p41ac96f228)" style="fill: #88ccee; fill-opacity: 0.6; stroke: #ffffff; stroke-opacity: 0.6; stroke-width: 0.339411"/>
    <path d="M 187.024918 99.36408 
L 188.085578 98.30342 
L 189.146238 99.36408 
L 190.206899 98.30342 
L 189.146238 97.24276 
L 190.206899 96.1821 
L 189.146238 95.12144 
L 188.085578 96.1821 
L 187.024918 95.12144 
L 185.964258 96.1821 
L 187.024918 97.24276 
L 185.964258 98.30342 
z
" clip-path="url(#p41ac96f228)" style="fill: #88ccee; fill-opacity: 0.6; stroke: #ffffff; stroke-opacity: 0.6; stroke-width: 0.339411"/>
    <path d="M 213.765005 83.394718 
L 214.825665 82.334058 
L 215.886325 83.394718 
L 216.946985 82.334058 
L 215.886325 81.273398 
L 216.946985 80.212738 
L 215.886325 79.152077 
L 214.825665 80.212738 
L 213.765005 79.152077 
L 212.704345 80.212738 
L 213.765005 81.273398 
L 212.704345 82.334058 
z
" clip-path="url(#p41ac96f228)" style="fill: #88ccee; fill-opacity: 0.6; stroke: #ffffff; stroke-opacity: 0.6; stroke-width: 0.339411"/>
    <path d="M 211.385472 110.807951 
L 212.446132 109.747291 
L 213.506792 110.807951 
L 214.567452 109.747291 
L 213.506792 108.686631 
L 214.567452 107.62597 
L 213.506792 106.56531 
L 212.446132 107.62597 
L 211.385472 106.56531 
L 210.324812 107.62597 
L 211.385472 108.686631 
L 210.324812 109.747291 
z
" clip-path="url(#p41ac96f228)" style="fill: #88ccee; fill-opacity: 0.6; stroke: #ffffff; stroke-opacity: 0.6; stroke-width: 0.339411"/>
    <path d="M 220.838894 107.407105 
L 221.899554 106.346445 
L 222.960214 107.407105 
L 224.020875 106.346445 
L 222.960214 105.285785 
L 224.020875 104.225125 
L 222.960214 103.164464 
L 221.899554 104.225125 
L 220.838894 103.164464 
L 219.778234 104.225125 
L 220.838894 105.285785 
L 219.778234 106.346445 
z
" clip-path="url(#p41ac96f228)" style="fill: #88ccee; fill-opacity: 0.6; stroke: #ffffff; stroke-opacity: 0.6; stroke-width: 0.339411"/>
    <path d="M 194.815533 99.881712 
L 195.876193 98.821052 
L 196.936853 99.881712 
L 197.997514 98.821052 
L 196.936853 97.760392 
L 197.997514 96.699732 
L 196.936853 95.639072 
L 195.876193 96.699732 
L 194.815533 95.639072 
L 193.754873 96.699732 
L 194.815533 97.760392 
L 193.754873 98.821052 
z
" clip-path="url(#p41ac96f228)" style="fill: #88ccee; fill-opacity: 0.6; stroke: #ffffff; stroke-opacity: 0.6; stroke-width: 0.339411"/>
    <path d="M 134.757619 49.71362 
L 135.818279 48.65296 
L 136.878939 49.71362 
L 137.939599 48.65296 
L 136.878939 47.592299 
L 137.939599 46.531639 
L 136.878939 45.470979 
L 135.818279 46.531639 
L 134.757619 45.470979 
L 133.696959 46.531639 
L 134.757619 47.592299 
L 133.696959 48.65296 
z
" clip-path="url(#p41ac96f228)" style="fill: #88ccee; fill-opacity: 0.6; stroke: #ffffff; stroke-opacity: 0.6; stroke-width: 0.339411"/>
    <path d="M 192.267169 95.591645 
L 193.327829 94.530985 
L 194.38849 95.591645 
L 195.44915 94.530985 
L 194.38849 93.470325 
L 195.44915 92.409665 
L 194.38849 91.349004 
L 193.327829 92.409665 
L 192.267169 91.349004 
L 191.206509 92.409665 
L 192.267169 93.470325 
L 191.206509 94.530985 
z
" clip-path="url(#p41ac96f228)" style="fill: #88ccee; fill-opacity: 0.6; stroke: #ffffff; stroke-opacity: 0.6; stroke-width: 0.339411"/>
    <path d="M 222.385585 112.569258 
L 223.446245 111.508598 
L 224.506905 112.569258 
L 225.567566 111.508598 
L 224.506905 110.447937 
L 225.567566 109.387277 
L 224.506905 108.326617 
L 223.446245 109.387277 
L 222.385585 108.326617 
L 221.324925 109.387277 
L 222.385585 110.447937 
L 221.324925 111.508598 
z
" clip-path="url(#p41ac96f228)" style="fill: #88ccee; fill-opacity: 0.6; stroke: #ffffff; stroke-opacity: 0.6; stroke-width: 0.339411"/>
    <path d="M 213.949848 31.717167 
L 215.010509 30.656507 
L 216.071169 31.717167 
L 217.131829 30.656507 
L 216.071169 29.595847 
L 217.131829 28.535187 
L 216.071169 27.474527 
L 215.010509 28.535187 
L 213.949848 27.474527 
L 212.889188 28.535187 
L 213.949848 29.595847 
L 212.889188 30.656507 
z
" clip-path="url(#p41ac96f228)" style="fill: #88ccee; fill-opacity: 0.6; stroke: #ffffff; stroke-opacity: 0.6; stroke-width: 0.339411"/>
   </g>
   <g id="matplotlib.axis_1">
    <g id="xtick_1">
     <g id="line2d_1">
      <defs>
       <path id="m4931bd7daf" d="M 0 0 
L 0 8 
" style="stroke: #000000"/>
      </defs>
      <g>
       <use xlink:href="#m4931bd7daf" x="81.24753" y="192.727559" style="stroke: #000000"/>
      </g>
     </g>
     <g id="text_1">
      <!-- 20 -->
      <g transform="translate(68.584717 213.345684) scale(0.12 -0.12)">
       <defs>
        <path id="DejaVuSans-2212" d="M 678 2272 
L 4684 2272 
L 4684 1741 
L 678 1741 
L 678 2272 
z
" transform="scale(0.015625)"/>
        <path id="DejaVuSans-32" d="M 1228 531 
L 3431 531 
L 3431 0 
L 469 0 
L 469 531 
Q 828 903 1448 1529 
Q 2069 2156 2228 2338 
Q 2531 2678 2651 2914 
Q 2772 3150 2772 3378 
Q 2772 3750 2511 3984 
Q 2250 4219 1831 4219 
Q 1534 4219 1204 4116 
Q 875 4013 500 3803 
L 500 4441 
Q 881 4594 1212 4672 
Q 1544 4750 1819 4750 
Q 2544 4750 2975 4387 
Q 3406 4025 3406 3419 
Q 3406 3131 3298 2873 
Q 3191 2616 2906 2266 
Q 2828 2175 2409 1742 
Q 1991 1309 1228 531 
z
" transform="scale(0.015625)"/>
        <path id="DejaVuSans-30" d="M 2034 4250 
Q 1547 4250 1301 3770 
Q 1056 3291 1056 2328 
Q 1056 1369 1301 889 
Q 1547 409 2034 409 
Q 2525 409 2770 889 
Q 3016 1369 3016 2328 
Q 3016 3291 2770 3770 
Q 2525 4250 2034 4250 
z
M 2034 4750 
Q 2819 4750 3233 4129 
Q 3647 3509 3647 2328 
Q 3647 1150 3233 529 
Q 2819 -91 2034 -91 
Q 1250 -91 836 529 
Q 422 1150 422 2328 
Q 422 3509 836 4129 
Q 1250 4750 2034 4750 
z
" transform="scale(0.015625)"/>
       </defs>
       <use xlink:href="#DejaVuSans-2212"/>
       <use xlink:href="#DejaVuSans-32" x="83.789062"/>
       <use xlink:href="#DejaVuSans-30" x="147.412109"/>
      </g>
     </g>
    </g>
    <g id="xtick_2">
     <g id="line2d_2">
      <g>
       <use xlink:href="#m4931bd7daf" x="115.15588" y="192.727559" style="stroke: #000000"/>
      </g>
     </g>
     <g id="text_2">
      <!-- 10 -->
      <g transform="translate(102.493067 213.345684) scale(0.12 -0.12)">
       <defs>
        <path id="DejaVuSans-31" d="M 794 531 
L 1825 531 
L 1825 4091 
L 703 3866 
L 703 4441 
L 1819 4666 
L 2450 4666 
L 2450 531 
L 3481 531 
L 3481 0 
L 794 0 
L 794 531 
z
" transform="scale(0.015625)"/>
       </defs>
       <use xlink:href="#DejaVuSans-2212"/>
       <use xlink:href="#DejaVuSans-31" x="83.789062"/>
       <use xlink:href="#DejaVuSans-30" x="147.412109"/>
      </g>
     </g>
    </g>
    <g id="xtick_3">
     <g id="line2d_3">
      <g>
       <use xlink:href="#m4931bd7daf" x="149.06423" y="192.727559" style="stroke: #000000"/>
      </g>
     </g>
     <g id="text_3">
      <!-- 0 -->
      <g transform="translate(145.24673 213.345684) scale(0.12 -0.12)">
       <use xlink:href="#DejaVuSans-30"/>
      </g>
     </g>
    </g>
    <g id="xtick_4">
     <g id="line2d_4">
      <g>
       <use xlink:href="#m4931bd7daf" x="182.972581" y="192.727559" style="stroke: #000000"/>
      </g>
     </g>
     <g id="text_4">
      <!-- 10 -->
      <g transform="translate(175.337581 213.345684) scale(0.12 -0.12)">
       <use xlink:href="#DejaVuSans-31"/>
       <use xlink:href="#DejaVuSans-30" x="63.623047"/>
      </g>
     </g>
    </g>
    <g id="xtick_5">
     <g id="line2d_5">
      <g>
       <use xlink:href="#m4931bd7daf" x="216.880931" y="192.727559" style="stroke: #000000"/>
      </g>
     </g>
     <g id="text_5">
      <!-- 20 -->
      <g transform="translate(209.245931 213.345684) scale(0.12 -0.12)">
       <use xlink:href="#DejaVuSans-32"/>
       <use xlink:href="#DejaVuSans-30" x="63.623047"/>
      </g>
     </g>
    </g>
    <g id="text_6">
     <!-- PC 1 (19.05%) -->
     <g transform="translate(109.404717 228.959434) scale(0.12 -0.12)">
      <defs>
       <path id="DejaVuSans-50" d="M 1259 4147 
L 1259 2394 
L 2053 2394 
Q 2494 2394 2734 2622 
Q 2975 2850 2975 3272 
Q 2975 3691 2734 3919 
Q 2494 4147 2053 4147 
L 1259 4147 
z
M 628 4666 
L 2053 4666 
Q 2838 4666 3239 4311 
Q 3641 3956 3641 3272 
Q 3641 2581 3239 2228 
Q 2838 1875 2053 1875 
L 1259 1875 
L 1259 0 
L 628 0 
L 628 4666 
z
" transform="scale(0.015625)"/>
       <path id="DejaVuSans-43" d="M 4122 4306 
L 4122 3641 
Q 3803 3938 3442 4084 
Q 3081 4231 2675 4231 
Q 1875 4231 1450 3742 
Q 1025 3253 1025 2328 
Q 1025 1406 1450 917 
Q 1875 428 2675 428 
Q 3081 428 3442 575 
Q 3803 722 4122 1019 
L 4122 359 
Q 3791 134 3420 21 
Q 3050 -91 2638 -91 
Q 1578 -91 968 557 
Q 359 1206 359 2328 
Q 359 3453 968 4101 
Q 1578 4750 2638 4750 
Q 3056 4750 3426 4639 
Q 3797 4528 4122 4306 
z
" transform="scale(0.015625)"/>
       <path id="DejaVuSans-20" transform="scale(0.015625)"/>
       <path id="DejaVuSans-28" d="M 1984 4856 
Q 1566 4138 1362 3434 
Q 1159 2731 1159 2009 
Q 1159 1288 1364 580 
Q 1569 -128 1984 -844 
L 1484 -844 
Q 1016 -109 783 600 
Q 550 1309 550 2009 
Q 550 2706 781 3412 
Q 1013 4119 1484 4856 
L 1984 4856 
z
" transform="scale(0.015625)"/>
       <path id="DejaVuSans-39" d="M 703 97 
L 703 672 
Q 941 559 1184 500 
Q 1428 441 1663 441 
Q 2288 441 2617 861 
Q 2947 1281 2994 2138 
Q 2813 1869 2534 1725 
Q 2256 1581 1919 1581 
Q 1219 1581 811 2004 
Q 403 2428 403 3163 
Q 403 3881 828 4315 
Q 1253 4750 1959 4750 
Q 2769 4750 3195 4129 
Q 3622 3509 3622 2328 
Q 3622 1225 3098 567 
Q 2575 -91 1691 -91 
Q 1453 -91 1209 -44 
Q 966 3 703 97 
z
M 1959 2075 
Q 2384 2075 2632 2365 
Q 2881 2656 2881 3163 
Q 2881 3666 2632 3958 
Q 2384 4250 1959 4250 
Q 1534 4250 1286 3958 
Q 1038 3666 1038 3163 
Q 1038 2656 1286 2365 
Q 1534 2075 1959 2075 
z
" transform="scale(0.015625)"/>
       <path id="DejaVuSans-2e" d="M 684 794 
L 1344 794 
L 1344 0 
L 684 0 
L 684 794 
z
" transform="scale(0.015625)"/>
       <path id="DejaVuSans-35" d="M 691 4666 
L 3169 4666 
L 3169 4134 
L 1269 4134 
L 1269 2991 
Q 1406 3038 1543 3061 
Q 1681 3084 1819 3084 
Q 2600 3084 3056 2656 
Q 3513 2228 3513 1497 
Q 3513 744 3044 326 
Q 2575 -91 1722 -91 
Q 1428 -91 1123 -41 
Q 819 9 494 109 
L 494 744 
Q 775 591 1075 516 
Q 1375 441 1709 441 
Q 2250 441 2565 725 
Q 2881 1009 2881 1497 
Q 2881 1984 2565 2268 
Q 2250 2553 1709 2553 
Q 1456 2553 1204 2497 
Q 953 2441 691 2322 
L 691 4666 
z
" transform="scale(0.015625)"/>
       <path id="DejaVuSans-25" d="M 4653 2053 
Q 4381 2053 4226 1822 
Q 4072 1591 4072 1178 
Q 4072 772 4226 539 
Q 4381 306 4653 306 
Q 4919 306 5073 539 
Q 5228 772 5228 1178 
Q 5228 1588 5073 1820 
Q 4919 2053 4653 2053 
z
M 4653 2450 
Q 5147 2450 5437 2106 
Q 5728 1763 5728 1178 
Q 5728 594 5436 251 
Q 5144 -91 4653 -91 
Q 4153 -91 3862 251 
Q 3572 594 3572 1178 
Q 3572 1766 3864 2108 
Q 4156 2450 4653 2450 
z
M 1428 4353 
Q 1159 4353 1004 4120 
Q 850 3888 850 3481 
Q 850 3069 1003 2837 
Q 1156 2606 1428 2606 
Q 1700 2606 1854 2837 
Q 2009 3069 2009 3481 
Q 2009 3884 1853 4118 
Q 1697 4353 1428 4353 
z
M 4250 4750 
L 4750 4750 
L 1831 -91 
L 1331 -91 
L 4250 4750 
z
M 1428 4750 
Q 1922 4750 2215 4408 
Q 2509 4066 2509 3481 
Q 2509 2891 2217 2550 
Q 1925 2209 1428 2209 
Q 931 2209 642 2551 
Q 353 2894 353 3481 
Q 353 4063 643 4406 
Q 934 4750 1428 4750 
z
" transform="scale(0.015625)"/>
       <path id="DejaVuSans-29" d="M 513 4856 
L 1013 4856 
Q 1481 4119 1714 3412 
Q 1947 2706 1947 2009 
Q 1947 1309 1714 600 
Q 1481 -109 1013 -844 
L 513 -844 
Q 928 -128 1133 580 
Q 1338 1288 1338 2009 
Q 1338 2731 1133 3434 
Q 928 4138 513 4856 
z
" transform="scale(0.015625)"/>
      </defs>
      <use xlink:href="#DejaVuSans-50"/>
      <use xlink:href="#DejaVuSans-43" x="60.302734"/>
      <use xlink:href="#DejaVuSans-20" x="130.126953"/>
      <use xlink:href="#DejaVuSans-31" x="161.914062"/>
      <use xlink:href="#DejaVuSans-20" x="225.537109"/>
      <use xlink:href="#DejaVuSans-28" x="257.324219"/>
      <use xlink:href="#DejaVuSans-31" x="296.337891"/>
      <use xlink:href="#DejaVuSans-39" x="359.960938"/>
      <use xlink:href="#DejaVuSans-2e" x="423.583984"/>
      <use xlink:href="#DejaVuSans-30" x="455.371094"/>
      <use xlink:href="#DejaVuSans-35" x="518.994141"/>
      <use xlink:href="#DejaVuSans-25" x="582.617188"/>
      <use xlink:href="#DejaVuSans-29" x="677.636719"/>
     </g>
    </g>
   </g>
   <g id="matplotlib.axis_2">
    <g id="ytick_1">
     <g id="line2d_6">
      <defs>
       <path id="m9d1d792870" d="M 0 0 
L -8 0 
" style="stroke: #000000"/>
      </defs>
      <g>
       <use xlink:href="#m9d1d792870" x="59.639375" y="171.119405" style="stroke: #000000"/>
      </g>
     </g>
     <g id="text_7">
      <!-- 20 -->
      <g transform="translate(22.81375 175.678467) scale(0.12 -0.12)">
       <use xlink:href="#DejaVuSans-2212"/>
       <use xlink:href="#DejaVuSans-32" x="83.789062"/>
       <use xlink:href="#DejaVuSans-30" x="147.412109"/>
      </g>
     </g>
    </g>
    <g id="ytick_2">
     <g id="line2d_7">
      <g>
       <use xlink:href="#m9d1d792870" x="59.639375" y="137.211054" style="stroke: #000000"/>
      </g>
     </g>
     <g id="text_8">
      <!-- 10 -->
      <g transform="translate(22.81375 141.770117) scale(0.12 -0.12)">
       <use xlink:href="#DejaVuSans-2212"/>
       <use xlink:href="#DejaVuSans-31" x="83.789062"/>
       <use xlink:href="#DejaVuSans-30" x="147.412109"/>
      </g>
     </g>
    </g>
    <g id="ytick_3">
     <g id="line2d_8">
      <g>
       <use xlink:href="#m9d1d792870" x="59.639375" y="103.302704" style="stroke: #000000"/>
      </g>
     </g>
     <g id="text_9">
      <!-- 0 -->
      <g transform="translate(40.504375 107.861766) scale(0.12 -0.12)">
       <use xlink:href="#DejaVuSans-30"/>
      </g>
     </g>
    </g>
    <g id="ytick_4">
     <g id="line2d_9">
      <g>
       <use xlink:href="#m9d1d792870" x="59.639375" y="69.394353" style="stroke: #000000"/>
      </g>
     </g>
     <g id="text_10">
      <!-- 10 -->
      <g transform="translate(32.869375 73.953416) scale(0.12 -0.12)">
       <use xlink:href="#DejaVuSans-31"/>
       <use xlink:href="#DejaVuSans-30" x="63.623047"/>
      </g>
     </g>
    </g>
    <g id="ytick_5">
     <g id="line2d_10">
      <g>
       <use xlink:href="#m9d1d792870" x="59.639375" y="35.486003" style="stroke: #000000"/>
      </g>
     </g>
     <g id="text_11">
      <!-- 20 -->
      <g transform="translate(32.869375 40.045065) scale(0.12 -0.12)">
       <use xlink:href="#DejaVuSans-32"/>
       <use xlink:href="#DejaVuSans-30" x="63.623047"/>
      </g>
     </g>
    </g>
    <g id="text_12">
     <!-- PC 2 (8.95%) -->
     <g transform="translate(16.318125 139.144717) rotate(-90) scale(0.12 -0.12)">
      <defs>
       <path id="DejaVuSans-38" d="M 2034 2216 
Q 1584 2216 1326 1975 
Q 1069 1734 1069 1313 
Q 1069 891 1326 650 
Q 1584 409 2034 409 
Q 2484 409 2743 651 
Q 3003 894 3003 1313 
Q 3003 1734 2745 1975 
Q 2488 2216 2034 2216 
z
M 1403 2484 
Q 997 2584 770 2862 
Q 544 3141 544 3541 
Q 544 4100 942 4425 
Q 1341 4750 2034 4750 
Q 2731 4750 3128 4425 
Q 3525 4100 3525 3541 
Q 3525 3141 3298 2862 
Q 3072 2584 2669 2484 
Q 3125 2378 3379 2068 
Q 3634 1759 3634 1313 
Q 3634 634 3220 271 
Q 2806 -91 2034 -91 
Q 1263 -91 848 271 
Q 434 634 434 1313 
Q 434 1759 690 2068 
Q 947 2378 1403 2484 
z
M 1172 3481 
Q 1172 3119 1398 2916 
Q 1625 2713 2034 2713 
Q 2441 2713 2670 2916 
Q 2900 3119 2900 3481 
Q 2900 3844 2670 4047 
Q 2441 4250 2034 4250 
Q 1625 4250 1398 4047 
Q 1172 3844 1172 3481 
z
" transform="scale(0.015625)"/>
      </defs>
      <use xlink:href="#DejaVuSans-50"/>
      <use xlink:href="#DejaVuSans-43" x="60.302734"/>
      <use xlink:href="#DejaVuSans-20" x="130.126953"/>
      <use xlink:href="#DejaVuSans-32" x="161.914062"/>
      <use xlink:href="#DejaVuSans-20" x="225.537109"/>
      <use xlink:href="#DejaVuSans-28" x="257.324219"/>
      <use xlink:href="#DejaVuSans-38" x="296.337891"/>
      <use xlink:href="#DejaVuSans-2e" x="359.960938"/>
      <use xlink:href="#DejaVuSans-39" x="391.748047"/>
      <use xlink:href="#DejaVuSans-35" x="455.371094"/>
      <use xlink:href="#DejaVuSans-25" x="518.994141"/>
      <use xlink:href="#DejaVuSans-29" x="614.013672"/>
     </g>
    </g>
   </g>
   <g id="patch_3">
    <path d="M 59.639375 192.727559 
L 59.639375 7.2 
" style="fill: none; stroke: #000000; stroke-width: 2; stroke-linejoin: miter; stroke-linecap: square"/>
   </g>
   <g id="patch_4">
    <path d="M 59.639375 192.727559 
L 245.166934 192.727559 
" style="fill: none; stroke: #000000; stroke-width: 2; stroke-linejoin: miter; stroke-linecap: square"/>
   </g>
  </g>
 </g>
 <defs>
  <clipPath id="p41ac96f228">
   <rect x="59.639375" y="7.2" width="185.527559" height="185.527559"/>
  </clipPath>
 </defs>
</svg>
