<?xml version="1.0" encoding="utf-8" standalone="no"?>
<!DOCTYPE svg PUBLIC "-//W3C//DTD SVG 1.1//EN"
  "http://www.w3.org/Graphics/SVG/1.1/DTD/svg11.dtd">
<svg xmlns:xlink="http://www.w3.org/1999/xlink" width="242.311309pt" height="238.655059pt" viewBox="0 0 242.311309 238.655059" xmlns="http://www.w3.org/2000/svg" version="1.1">
 <metadata>
  <rdf:RDF xmlns:dc="http://purl.org/dc/elements/1.1/" xmlns:cc="http://creativecommons.org/ns#" xmlns:rdf="http://www.w3.org/1999/02/22-rdf-syntax-ns#">
   <cc:Work>
    <dc:type rdf:resource="http://purl.org/dc/dcmitype/StillImage"/>
    <dc:date>2025-08-27T15:09:10.390029</dc:date>
    <dc:format>image/svg+xml</dc:format>
    <dc:creator>
     <cc:Agent>
      <dc:title>Matplotlib v3.6.2, https://matplotlib.org/</dc:title>
     </cc:Agent>
    </dc:creator>
   </cc:Work>
  </rdf:RDF>
 </metadata>
 <defs>
  <style type="text/css">*{stroke-linejoin: round; stroke-linecap: butt}</style>
 </defs>
 <g id="figure_1">
  <g id="patch_1">
   <path d="M 0 238.655059 
L 242.311309 238.655059 
L 242.311309 0 
L 0 0 
L 0 238.655059 
z
" style="fill: none"/>
  </g>
  <g id="axes_1">
   <g id="patch_2">
    <path d="M 49.58375 192.727559 
L 235.111309 192.727559 
L 235.111309 7.2 
L 49.58375 7.2 
L 49.58375 192.727559 
z
" style="fill: none"/>
   </g>
   <g id="PathCollection_1">
    <path d="M 91.965727 145.568461 
L 93.765727 142.568461 
L 91.965727 139.568461 
L 90.165727 142.568461 
z
" clip-path="url(#p0dc1e79d53)" style="fill: #332288; fill-opacity: 0.6; stroke: #ffffff; stroke-opacity: 0.6; stroke-width: 0.339411"/>
    <path d="M 85.706472 126.223158 
L 87.506472 123.223158 
L 85.706472 120.223158 
L 83.906472 123.223158 
z
" clip-path="url(#p0dc1e79d53)" style="fill: #332288; fill-opacity: 0.6; stroke: #ffffff; stroke-opacity: 0.6; stroke-width: 0.339411"/>
    <path d="M 76.644758 137.159452 
L 78.444758 134.159452 
L 76.644758 131.159452 
L 74.844758 134.159452 
z
" clip-path="url(#p0dc1e79d53)" style="fill: #332288; fill-opacity: 0.6; stroke: #ffffff; stroke-opacity: 0.6; stroke-width: 0.339411"/>
    <path d="M 175.257169 99.814505 
L 177.057169 96.814505 
L 175.257169 93.814505 
L 173.457169 96.814505 
z
" clip-path="url(#p0dc1e79d53)" style="fill: #332288; fill-opacity: 0.6; stroke: #ffffff; stroke-opacity: 0.6; stroke-width: 0.339411"/>
    <path d="M 186.933048 107.804164 
L 188.733048 104.804164 
L 186.933048 101.804164 
L 185.133048 104.804164 
z
" clip-path="url(#p0dc1e79d53)" style="fill: #332288; fill-opacity: 0.6; stroke: #ffffff; stroke-opacity: 0.6; stroke-width: 0.339411"/>
    <path d="M 150.22317 78.851685 
L 152.02317 75.851685 
L 150.22317 72.851685 
L 148.42317 75.851685 
z
" clip-path="url(#p0dc1e79d53)" style="fill: #332288; fill-opacity: 0.6; stroke: #ffffff; stroke-opacity: 0.6; stroke-width: 0.339411"/>
    <path d="M 202.52538 115.199438 
L 204.32538 112.199438 
L 202.52538 109.199438 
L 200.72538 112.199438 
z
" clip-path="url(#p0dc1e79d53)" style="fill: #332288; fill-opacity: 0.6; stroke: #ffffff; stroke-opacity: 0.6; stroke-width: 0.339411"/>
    <path d="M 92.631744 157.587409 
L 94.431744 154.587409 
L 92.631744 151.587409 
L 90.831744 154.587409 
z
" clip-path="url(#p0dc1e79d53)" style="fill: #332288; fill-opacity: 0.6; stroke: #ffffff; stroke-opacity: 0.6; stroke-width: 0.339411"/>
    <path d="M 99.029229 119.925772 
L 100.829229 116.925772 
L 99.029229 113.925772 
L 97.229229 116.925772 
z
" clip-path="url(#p0dc1e79d53)" style="fill: #332288; fill-opacity: 0.6; stroke: #ffffff; stroke-opacity: 0.6; stroke-width: 0.339411"/>
    <path d="M 180.268144 149.142307 
L 182.068144 146.142307 
L 180.268144 143.142307 
L 178.468144 146.142307 
z
" clip-path="url(#p0dc1e79d53)" style="fill: #332288; fill-opacity: 0.6; stroke: #ffffff; stroke-opacity: 0.6; stroke-width: 0.339411"/>
    <path d="M 193.883256 115.794376 
L 195.683256 112.794376 
L 193.883256 109.794376 
L 192.083256 112.794376 
z
" clip-path="url(#p0dc1e79d53)" style="fill: #332288; fill-opacity: 0.6; stroke: #ffffff; stroke-opacity: 0.6; stroke-width: 0.339411"/>
    <path d="M 92.904848 153.287258 
L 94.704848 150.287258 
L 92.904848 147.287258 
L 91.104848 150.287258 
z
" clip-path="url(#p0dc1e79d53)" style="fill: #332288; fill-opacity: 0.6; stroke: #ffffff; stroke-opacity: 0.6; stroke-width: 0.339411"/>
    <path d="M 78.145446 134.731838 
L 79.945446 131.731838 
L 78.145446 128.731838 
L 76.345446 131.731838 
z
" clip-path="url(#p0dc1e79d53)" style="fill: #332288; fill-opacity: 0.6; stroke: #ffffff; stroke-opacity: 0.6; stroke-width: 0.339411"/>
    <path d="M 189.6442 127.550967 
L 191.4442 124.550967 
L 189.6442 121.550967 
L 187.8442 124.550967 
z
" clip-path="url(#p0dc1e79d53)" style="fill: #332288; fill-opacity: 0.6; stroke: #ffffff; stroke-opacity: 0.6; stroke-width: 0.339411"/>
    <path d="M 160.833593 82.40578 
L 162.633593 79.40578 
L 160.833593 76.40578 
L 159.033593 79.40578 
z
" clip-path="url(#p0dc1e79d53)" style="fill: #332288; fill-opacity: 0.6; stroke: #ffffff; stroke-opacity: 0.6; stroke-width: 0.339411"/>
    <path d="M 143.570074 75.481356 
L 145.370074 72.481356 
L 143.570074 69.481356 
L 141.770074 72.481356 
z
" clip-path="url(#p0dc1e79d53)" style="fill: #332288; fill-opacity: 0.6; stroke: #ffffff; stroke-opacity: 0.6; stroke-width: 0.339411"/>
    <path d="M 185.533571 108.816674 
L 187.333571 105.816674 
L 185.533571 102.816674 
L 183.733571 105.816674 
z
" clip-path="url(#p0dc1e79d53)" style="fill: #332288; fill-opacity: 0.6; stroke: #ffffff; stroke-opacity: 0.6; stroke-width: 0.339411"/>
    <path d="M 154.07591 82.151952 
L 155.87591 79.151952 
L 154.07591 76.151952 
L 152.27591 79.151952 
z
" clip-path="url(#p0dc1e79d53)" style="fill: #332288; fill-opacity: 0.6; stroke: #ffffff; stroke-opacity: 0.6; stroke-width: 0.339411"/>
    <path d="M 86.370631 153.735346 
L 88.170631 150.735346 
L 86.370631 147.735346 
L 84.570631 150.735346 
z
" clip-path="url(#p0dc1e79d53)" style="fill: #332288; fill-opacity: 0.6; stroke: #ffffff; stroke-opacity: 0.6; stroke-width: 0.339411"/>
    <path d="M 150.314189 80.274464 
L 152.114189 77.274464 
L 150.314189 74.274464 
L 148.514189 77.274464 
z
" clip-path="url(#p0dc1e79d53)" style="fill: #332288; fill-opacity: 0.6; stroke: #ffffff; stroke-opacity: 0.6; stroke-width: 0.339411"/>
    <path d="M 156.002601 76.34621 
L 157.802601 73.34621 
L 156.002601 70.34621 
L 154.202601 73.34621 
z
" clip-path="url(#p0dc1e79d53)" style="fill: #332288; fill-opacity: 0.6; stroke: #ffffff; stroke-opacity: 0.6; stroke-width: 0.339411"/>
    <path d="M 89.190043 154.549756 
L 90.990043 151.549756 
L 89.190043 148.549756 
L 87.390043 151.549756 
z
" clip-path="url(#p0dc1e79d53)" style="fill: #332288; fill-opacity: 0.6; stroke: #ffffff; stroke-opacity: 0.6; stroke-width: 0.339411"/>
    <path d="M 192.641266 119.18418 
L 194.441266 116.18418 
L 192.641266 113.18418 
L 190.841266 116.18418 
z
" clip-path="url(#p0dc1e79d53)" style="fill: #332288; fill-opacity: 0.6; stroke: #ffffff; stroke-opacity: 0.6; stroke-width: 0.339411"/>
    <path d="M 81.311911 139.355528 
L 83.111911 136.355528 
L 81.311911 133.355528 
L 79.511911 136.355528 
z
" clip-path="url(#p0dc1e79d53)" style="fill: #332288; fill-opacity: 0.6; stroke: #ffffff; stroke-opacity: 0.6; stroke-width: 0.339411"/>
    <path d="M 194.516727 112.087239 
L 196.316727 109.087239 
L 194.516727 106.087239 
L 192.716727 109.087239 
z
" clip-path="url(#p0dc1e79d53)" style="fill: #332288; fill-opacity: 0.6; stroke: #ffffff; stroke-opacity: 0.6; stroke-width: 0.339411"/>
    <path d="M 87.133748 128.137821 
L 88.933748 125.137821 
L 87.133748 122.137821 
L 85.333748 125.137821 
z
" clip-path="url(#p0dc1e79d53)" style="fill: #332288; fill-opacity: 0.6; stroke: #ffffff; stroke-opacity: 0.6; stroke-width: 0.339411"/>
    <path d="M 199.389073 121.341826 
L 201.189073 118.341826 
L 199.389073 115.341826 
L 197.589073 118.341826 
z
" clip-path="url(#p0dc1e79d53)" style="fill: #332288; fill-opacity: 0.6; stroke: #ffffff; stroke-opacity: 0.6; stroke-width: 0.339411"/>
    <path d="M 172.635093 105.794713 
L 174.435093 102.794713 
L 172.635093 99.794713 
L 170.835093 102.794713 
z
" clip-path="url(#p0dc1e79d53)" style="fill: #332288; fill-opacity: 0.6; stroke: #ffffff; stroke-opacity: 0.6; stroke-width: 0.339411"/>
    <path d="M 96.568679 159.258083 
L 98.368679 156.258083 
L 96.568679 153.258083 
L 94.768679 156.258083 
z
" clip-path="url(#p0dc1e79d53)" style="fill: #332288; fill-opacity: 0.6; stroke: #ffffff; stroke-opacity: 0.6; stroke-width: 0.339411"/>
    <path d="M 183.927508 104.598113 
L 185.727508 101.598113 
L 183.927508 98.598113 
L 182.127508 101.598113 
z
" clip-path="url(#p0dc1e79d53)" style="fill: #332288; fill-opacity: 0.6; stroke: #ffffff; stroke-opacity: 0.6; stroke-width: 0.339411"/>
    <path d="M 100.037435 160.93391 
L 101.837435 157.93391 
L 100.037435 154.93391 
L 98.237435 157.93391 
z
" clip-path="url(#p0dc1e79d53)" style="fill: #332288; fill-opacity: 0.6; stroke: #ffffff; stroke-opacity: 0.6; stroke-width: 0.339411"/>
    <path d="M 86.621937 121.154226 
L 88.421937 118.154226 
L 86.621937 115.154226 
L 84.821937 118.154226 
z
" clip-path="url(#p0dc1e79d53)" style="fill: #332288; fill-opacity: 0.6; stroke: #ffffff; stroke-opacity: 0.6; stroke-width: 0.339411"/>
    <path d="M 99.195554 157.162163 
L 100.995554 154.162163 
L 99.195554 151.162163 
L 97.395554 154.162163 
z
" clip-path="url(#p0dc1e79d53)" style="fill: #332288; fill-opacity: 0.6; stroke: #ffffff; stroke-opacity: 0.6; stroke-width: 0.339411"/>
    <path d="M 83.291779 131.947674 
L 85.091779 128.947674 
L 83.291779 125.947674 
L 81.491779 128.947674 
z
" clip-path="url(#p0dc1e79d53)" style="fill: #332288; fill-opacity: 0.6; stroke: #ffffff; stroke-opacity: 0.6; stroke-width: 0.339411"/>
    <path d="M 90.3882 131.217134 
L 92.1882 128.217134 
L 90.3882 125.217134 
L 88.5882 128.217134 
z
" clip-path="url(#p0dc1e79d53)" style="fill: #332288; fill-opacity: 0.6; stroke: #ffffff; stroke-opacity: 0.6; stroke-width: 0.339411"/>
    <path d="M 191.527549 117.128209 
L 193.327549 114.128209 
L 191.527549 111.128209 
L 189.727549 114.128209 
z
" clip-path="url(#p0dc1e79d53)" style="fill: #332288; fill-opacity: 0.6; stroke: #ffffff; stroke-opacity: 0.6; stroke-width: 0.339411"/>
    <path d="M 88.811368 126.070453 
L 90.611368 123.070453 
L 88.811368 120.070453 
L 87.011368 123.070453 
z
" clip-path="url(#p0dc1e79d53)" style="fill: #332288; fill-opacity: 0.6; stroke: #ffffff; stroke-opacity: 0.6; stroke-width: 0.339411"/>
    <path d="M 198.558801 118.487833 
L 200.358801 115.487833 
L 198.558801 112.487833 
L 196.758801 115.487833 
z
" clip-path="url(#p0dc1e79d53)" style="fill: #332288; fill-opacity: 0.6; stroke: #ffffff; stroke-opacity: 0.6; stroke-width: 0.339411"/>
    <path d="M 88.615334 151.354192 
L 90.415334 148.354192 
L 88.615334 145.354192 
L 86.815334 148.354192 
z
" clip-path="url(#p0dc1e79d53)" style="fill: #332288; fill-opacity: 0.6; stroke: #ffffff; stroke-opacity: 0.6; stroke-width: 0.339411"/>
    <path d="M 92.359702 145.11373 
L 94.159702 142.11373 
L 92.359702 139.11373 
L 90.559702 142.11373 
z
" clip-path="url(#p0dc1e79d53)" style="fill: #332288; fill-opacity: 0.6; stroke: #ffffff; stroke-opacity: 0.6; stroke-width: 0.339411"/>
    <path d="M 92.986854 132.27309 
L 94.786854 129.27309 
L 92.986854 126.27309 
L 91.186854 129.27309 
z
" clip-path="url(#p0dc1e79d53)" style="fill: #332288; fill-opacity: 0.6; stroke: #ffffff; stroke-opacity: 0.6; stroke-width: 0.339411"/>
    <path d="M 200.101963 111.692721 
L 201.901963 108.692721 
L 200.101963 105.692721 
L 198.301963 108.692721 
z
" clip-path="url(#p0dc1e79d53)" style="fill: #332288; fill-opacity: 0.6; stroke: #ffffff; stroke-opacity: 0.6; stroke-width: 0.339411"/>
    <path d="M 94.901196 115.512866 
L 96.701196 112.512866 
L 94.901196 109.512866 
L 93.101196 112.512866 
z
" clip-path="url(#p0dc1e79d53)" style="fill: #332288; fill-opacity: 0.6; stroke: #ffffff; stroke-opacity: 0.6; stroke-width: 0.339411"/>
    <path d="M 187.474168 106.849909 
L 189.274168 103.849909 
L 187.474168 100.849909 
L 185.674168 103.849909 
z
" clip-path="url(#p0dc1e79d53)" style="fill: #332288; fill-opacity: 0.6; stroke: #ffffff; stroke-opacity: 0.6; stroke-width: 0.339411"/>
    <path d="M 147.937649 73.497118 
L 149.737649 70.497118 
L 147.937649 67.497118 
L 146.137649 70.497118 
z
" clip-path="url(#p0dc1e79d53)" style="fill: #332288; fill-opacity: 0.6; stroke: #ffffff; stroke-opacity: 0.6; stroke-width: 0.339411"/>
    <path d="M 195.307179 118.113934 
L 197.107179 115.113934 
L 195.307179 112.113934 
L 193.507179 115.113934 
z
" clip-path="url(#p0dc1e79d53)" style="fill: #332288; fill-opacity: 0.6; stroke: #ffffff; stroke-opacity: 0.6; stroke-width: 0.339411"/>
    <path d="M 191.163007 123.197097 
L 192.963007 120.197097 
L 191.163007 117.197097 
L 189.363007 120.197097 
z
" clip-path="url(#p0dc1e79d53)" style="fill: #332288; fill-opacity: 0.6; stroke: #ffffff; stroke-opacity: 0.6; stroke-width: 0.339411"/>
    <path d="M 83.908498 138.854858 
L 85.708498 135.854858 
L 83.908498 132.854858 
L 82.108498 135.854858 
z
" clip-path="url(#p0dc1e79d53)" style="fill: #332288; fill-opacity: 0.6; stroke: #ffffff; stroke-opacity: 0.6; stroke-width: 0.339411"/>
    <path d="M 177.378646 101.644661 
L 179.178646 98.644661 
L 177.378646 95.644661 
L 175.578646 98.644661 
z
" clip-path="url(#p0dc1e79d53)" style="fill: #332288; fill-opacity: 0.6; stroke: #ffffff; stroke-opacity: 0.6; stroke-width: 0.339411"/>
    <path d="M 108.773982 155.787063 
L 110.573982 152.787063 
L 108.773982 149.787063 
L 106.973982 152.787063 
z
" clip-path="url(#p0dc1e79d53)" style="fill: #332288; fill-opacity: 0.6; stroke: #ffffff; stroke-opacity: 0.6; stroke-width: 0.339411"/>
    <path d="M 151.366389 80.468276 
L 153.166389 77.468276 
L 151.366389 74.468276 
L 149.566389 77.468276 
z
" clip-path="url(#p0dc1e79d53)" style="fill: #332288; fill-opacity: 0.6; stroke: #ffffff; stroke-opacity: 0.6; stroke-width: 0.339411"/>
    <path d="M 94.252929 120.318633 
L 96.052929 117.318633 
L 94.252929 114.318633 
L 92.452929 117.318633 
z
" clip-path="url(#p0dc1e79d53)" style="fill: #332288; fill-opacity: 0.6; stroke: #ffffff; stroke-opacity: 0.6; stroke-width: 0.339411"/>
    <path d="M 174.948121 95.626309 
L 176.748121 92.626309 
L 174.948121 89.626309 
L 173.148121 92.626309 
z
" clip-path="url(#p0dc1e79d53)" style="fill: #332288; fill-opacity: 0.6; stroke: #ffffff; stroke-opacity: 0.6; stroke-width: 0.339411"/>
    <path d="M 201.272968 115.618479 
L 203.072968 112.618479 
L 201.272968 109.618479 
L 199.472968 112.618479 
z
" clip-path="url(#p0dc1e79d53)" style="fill: #332288; fill-opacity: 0.6; stroke: #ffffff; stroke-opacity: 0.6; stroke-width: 0.339411"/>
    <path d="M 189.210817 110.421867 
L 191.010817 107.421867 
L 189.210817 104.421867 
L 187.410817 107.421867 
z
" clip-path="url(#p0dc1e79d53)" style="fill: #332288; fill-opacity: 0.6; stroke: #ffffff; stroke-opacity: 0.6; stroke-width: 0.339411"/>
    <path d="M 96.877347 147.344566 
L 98.677347 144.344566 
L 96.877347 141.344566 
L 95.077347 144.344566 
z
" clip-path="url(#p0dc1e79d53)" style="fill: #332288; fill-opacity: 0.6; stroke: #ffffff; stroke-opacity: 0.6; stroke-width: 0.339411"/>
    <path d="M 106.266467 156.169842 
L 108.066467 153.169842 
L 106.266467 150.169842 
L 104.466467 153.169842 
z
" clip-path="url(#p0dc1e79d53)" style="fill: #332288; fill-opacity: 0.6; stroke: #ffffff; stroke-opacity: 0.6; stroke-width: 0.339411"/>
    <path d="M 171.656704 101.321687 
L 173.456704 98.321687 
L 171.656704 95.321687 
L 169.856704 98.321687 
z
" clip-path="url(#p0dc1e79d53)" style="fill: #332288; fill-opacity: 0.6; stroke: #ffffff; stroke-opacity: 0.6; stroke-width: 0.339411"/>
    <path d="M 177.825051 106.790627 
L 179.625051 103.790627 
L 177.825051 100.790627 
L 176.025051 103.790627 
z
" clip-path="url(#p0dc1e79d53)" style="fill: #332288; fill-opacity: 0.6; stroke: #ffffff; stroke-opacity: 0.6; stroke-width: 0.339411"/>
    <path d="M 194.951903 111.038658 
L 196.751903 108.038658 
L 194.951903 105.038658 
L 193.151903 108.038658 
z
" clip-path="url(#p0dc1e79d53)" style="fill: #332288; fill-opacity: 0.6; stroke: #ffffff; stroke-opacity: 0.6; stroke-width: 0.339411"/>
    <path d="M 95.680259 155.665644 
L 97.480259 152.665644 
L 95.680259 149.665644 
L 93.880259 152.665644 
z
" clip-path="url(#p0dc1e79d53)" style="fill: #332288; fill-opacity: 0.6; stroke: #ffffff; stroke-opacity: 0.6; stroke-width: 0.339411"/>
    <path d="M 171.592919 108.874988 
L 173.392919 105.874988 
L 171.592919 102.874988 
L 169.792919 105.874988 
z
" clip-path="url(#p0dc1e79d53)" style="fill: #332288; fill-opacity: 0.6; stroke: #ffffff; stroke-opacity: 0.6; stroke-width: 0.339411"/>
    <path d="M 164.569582 74.880557 
L 166.369582 71.880557 
L 164.569582 68.880557 
L 162.769582 71.880557 
z
" clip-path="url(#p0dc1e79d53)" style="fill: #332288; fill-opacity: 0.6; stroke: #ffffff; stroke-opacity: 0.6; stroke-width: 0.339411"/>
    <path d="M 174.778989 103.937324 
L 176.578989 100.937324 
L 174.778989 97.937324 
L 172.978989 100.937324 
z
" clip-path="url(#p0dc1e79d53)" style="fill: #332288; fill-opacity: 0.6; stroke: #ffffff; stroke-opacity: 0.6; stroke-width: 0.339411"/>
    <path d="M 66.291734 91.522938 
L 64.170413 95.765578 
L 68.413054 95.765578 
z
" clip-path="url(#p0dc1e79d53)" style="fill: #117733; fill-opacity: 0.6; stroke: #ffffff; stroke-opacity: 0.6; stroke-width: 0.339411"/>
    <path d="M 207.886017 93.326562 
L 205.764696 97.569203 
L 210.007337 97.569203 
z
" clip-path="url(#p0dc1e79d53)" style="fill: #117733; fill-opacity: 0.6; stroke: #ffffff; stroke-opacity: 0.6; stroke-width: 0.339411"/>
    <path d="M 87.05441 88.956524 
L 84.933089 93.199165 
L 89.17573 93.199165 
z
" clip-path="url(#p0dc1e79d53)" style="fill: #117733; fill-opacity: 0.6; stroke: #ffffff; stroke-opacity: 0.6; stroke-width: 0.339411"/>
    <path d="M 63.553534 92.454138 
L 61.432213 96.696778 
L 65.674854 96.696778 
z
" clip-path="url(#p0dc1e79d53)" style="fill: #117733; fill-opacity: 0.6; stroke: #ffffff; stroke-opacity: 0.6; stroke-width: 0.339411"/>
    <path d="M 139.699016 106.052796 
L 137.577696 110.295437 
L 141.820336 110.295437 
z
" clip-path="url(#p0dc1e79d53)" style="fill: #117733; fill-opacity: 0.6; stroke: #ffffff; stroke-opacity: 0.6; stroke-width: 0.339411"/>
    <path d="M 79.497594 96.078782 
L 77.376273 100.321422 
L 81.618914 100.321422 
z
" clip-path="url(#p0dc1e79d53)" style="fill: #117733; fill-opacity: 0.6; stroke: #ffffff; stroke-opacity: 0.6; stroke-width: 0.339411"/>
    <path d="M 71.828866 89.753454 
L 69.707546 93.996095 
L 73.950186 93.996095 
z
" clip-path="url(#p0dc1e79d53)" style="fill: #117733; fill-opacity: 0.6; stroke: #ffffff; stroke-opacity: 0.6; stroke-width: 0.339411"/>
    <path d="M 84.653171 101.144406 
L 82.53185 105.387047 
L 86.774491 105.387047 
z
" clip-path="url(#p0dc1e79d53)" style="fill: #117733; fill-opacity: 0.6; stroke: #ffffff; stroke-opacity: 0.6; stroke-width: 0.339411"/>
    <path d="M 89.371973 93.58796 
L 87.250653 97.830601 
L 91.493294 97.830601 
z
" clip-path="url(#p0dc1e79d53)" style="fill: #117733; fill-opacity: 0.6; stroke: #ffffff; stroke-opacity: 0.6; stroke-width: 0.339411"/>
    <path d="M 202.86007 83.719955 
L 200.73875 87.962596 
L 204.98139 87.962596 
z
" clip-path="url(#p0dc1e79d53)" style="fill: #117733; fill-opacity: 0.6; stroke: #ffffff; stroke-opacity: 0.6; stroke-width: 0.339411"/>
    <path d="M 153.137153 115.486769 
L 151.015832 119.72941 
L 155.258473 119.72941 
z
" clip-path="url(#p0dc1e79d53)" style="fill: #117733; fill-opacity: 0.6; stroke: #ffffff; stroke-opacity: 0.6; stroke-width: 0.339411"/>
    <path d="M 78.136754 90.97079 
L 76.015434 95.213431 
L 80.258075 95.213431 
z
" clip-path="url(#p0dc1e79d53)" style="fill: #117733; fill-opacity: 0.6; stroke: #ffffff; stroke-opacity: 0.6; stroke-width: 0.339411"/>
    <path d="M 89.13764 107.461364 
L 87.016319 111.704004 
L 91.25896 111.704004 
z
" clip-path="url(#p0dc1e79d53)" style="fill: #117733; fill-opacity: 0.6; stroke: #ffffff; stroke-opacity: 0.6; stroke-width: 0.339411"/>
    <path d="M 71.761226 99.076862 
L 69.639906 103.319503 
L 73.882546 103.319503 
z
" clip-path="url(#p0dc1e79d53)" style="fill: #117733; fill-opacity: 0.6; stroke: #ffffff; stroke-opacity: 0.6; stroke-width: 0.339411"/>
    <path d="M 141.652752 119.789838 
L 139.531432 124.032478 
L 143.774073 124.032478 
z
" clip-path="url(#p0dc1e79d53)" style="fill: #117733; fill-opacity: 0.6; stroke: #ffffff; stroke-opacity: 0.6; stroke-width: 0.339411"/>
    <path d="M 85.839683 87.043791 
L 83.718363 91.286431 
L 87.961003 91.286431 
z
" clip-path="url(#p0dc1e79d53)" style="fill: #117733; fill-opacity: 0.6; stroke: #ffffff; stroke-opacity: 0.6; stroke-width: 0.339411"/>
    <path d="M 67.723496 108.856656 
L 65.602176 113.099297 
L 69.844817 113.099297 
z
" clip-path="url(#p0dc1e79d53)" style="fill: #117733; fill-opacity: 0.6; stroke: #ffffff; stroke-opacity: 0.6; stroke-width: 0.339411"/>
    <path d="M 90.44858 129.567506 
L 88.32726 133.810147 
L 92.569901 133.810147 
z
" clip-path="url(#p0dc1e79d53)" style="fill: #117733; fill-opacity: 0.6; stroke: #ffffff; stroke-opacity: 0.6; stroke-width: 0.339411"/>
    <path d="M 128.820697 147.574821 
L 126.699377 151.817462 
L 130.942018 151.817462 
z
" clip-path="url(#p0dc1e79d53)" style="fill: #117733; fill-opacity: 0.6; stroke: #ffffff; stroke-opacity: 0.6; stroke-width: 0.339411"/>
    <path d="M 165.026344 153.726787 
L 162.905024 157.969427 
L 167.147664 157.969427 
z
" clip-path="url(#p0dc1e79d53)" style="fill: #117733; fill-opacity: 0.6; stroke: #ffffff; stroke-opacity: 0.6; stroke-width: 0.339411"/>
    <path d="M 110.590336 145.843978 
L 108.469016 150.086619 
L 112.711657 150.086619 
z
" clip-path="url(#p0dc1e79d53)" style="fill: #117733; fill-opacity: 0.6; stroke: #ffffff; stroke-opacity: 0.6; stroke-width: 0.339411"/>
    <path d="M 75.443479 102.478778 
L 73.322159 106.721419 
L 77.564799 106.721419 
z
" clip-path="url(#p0dc1e79d53)" style="fill: #117733; fill-opacity: 0.6; stroke: #ffffff; stroke-opacity: 0.6; stroke-width: 0.339411"/>
    <path d="M 163.000349 126.977245 
L 160.879029 131.219886 
L 165.121669 131.219886 
z
" clip-path="url(#p0dc1e79d53)" style="fill: #117733; fill-opacity: 0.6; stroke: #ffffff; stroke-opacity: 0.6; stroke-width: 0.339411"/>
    <path d="M 67.411912 103.513233 
L 65.290592 107.755873 
L 69.533232 107.755873 
z
" clip-path="url(#p0dc1e79d53)" style="fill: #117733; fill-opacity: 0.6; stroke: #ffffff; stroke-opacity: 0.6; stroke-width: 0.339411"/>
    <path d="M 144.479147 114.214758 
L 142.357827 118.457399 
L 146.600468 118.457399 
z
" clip-path="url(#p0dc1e79d53)" style="fill: #117733; fill-opacity: 0.6; stroke: #ffffff; stroke-opacity: 0.6; stroke-width: 0.339411"/>
    <path d="M 91.575223 97.416312 
L 89.453902 101.658953 
L 93.696543 101.658953 
z
" clip-path="url(#p0dc1e79d53)" style="fill: #117733; fill-opacity: 0.6; stroke: #ffffff; stroke-opacity: 0.6; stroke-width: 0.339411"/>
    <path d="M 154.147694 50.001251 
L 152.026374 54.243891 
L 156.269014 54.243891 
z
" clip-path="url(#p0dc1e79d53)" style="fill: #117733; fill-opacity: 0.6; stroke: #ffffff; stroke-opacity: 0.6; stroke-width: 0.339411"/>
    <path d="M 76.816483 92.923526 
L 74.695162 97.166166 
L 78.937803 97.166166 
z
" clip-path="url(#p0dc1e79d53)" style="fill: #117733; fill-opacity: 0.6; stroke: #ffffff; stroke-opacity: 0.6; stroke-width: 0.339411"/>
    <path d="M 145.809127 111.808763 
L 143.687807 116.051403 
L 147.930448 116.051403 
z
" clip-path="url(#p0dc1e79d53)" style="fill: #117733; fill-opacity: 0.6; stroke: #ffffff; stroke-opacity: 0.6; stroke-width: 0.339411"/>
    <path d="M 82.904913 99.352218 
L 80.783593 103.594859 
L 85.026233 103.594859 
z
" clip-path="url(#p0dc1e79d53)" style="fill: #117733; fill-opacity: 0.6; stroke: #ffffff; stroke-opacity: 0.6; stroke-width: 0.339411"/>
    <path d="M 150.228635 157.130061 
L 148.107315 161.372702 
L 152.349956 161.372702 
z
" clip-path="url(#p0dc1e79d53)" style="fill: #117733; fill-opacity: 0.6; stroke: #ffffff; stroke-opacity: 0.6; stroke-width: 0.339411"/>
    <path d="M 119.158831 38.468706 
L 117.03751 42.711347 
L 121.280151 42.711347 
z
" clip-path="url(#p0dc1e79d53)" style="fill: #117733; fill-opacity: 0.6; stroke: #ffffff; stroke-opacity: 0.6; stroke-width: 0.339411"/>
    <path d="M 143.19236 117.996051 
L 141.07104 122.238692 
L 145.31368 122.238692 
z
" clip-path="url(#p0dc1e79d53)" style="fill: #117733; fill-opacity: 0.6; stroke: #ffffff; stroke-opacity: 0.6; stroke-width: 0.339411"/>
    <path d="M 136.318069 113.958429 
L 134.196749 118.201069 
L 138.439389 118.201069 
z
" clip-path="url(#p0dc1e79d53)" style="fill: #117733; fill-opacity: 0.6; stroke: #ffffff; stroke-opacity: 0.6; stroke-width: 0.339411"/>
    <path d="M 204.340526 85.531494 
L 202.219205 89.774135 
L 206.461846 89.774135 
z
" clip-path="url(#p0dc1e79d53)" style="fill: #117733; fill-opacity: 0.6; stroke: #ffffff; stroke-opacity: 0.6; stroke-width: 0.339411"/>
    <path d="M 73.9268 118.316991 
L 71.805479 122.559632 
L 76.04812 122.559632 
z
" clip-path="url(#p0dc1e79d53)" style="fill: #117733; fill-opacity: 0.6; stroke: #ffffff; stroke-opacity: 0.6; stroke-width: 0.339411"/>
    <path d="M 83.361653 94.446505 
L 81.240332 98.689146 
L 85.482973 98.689146 
z
" clip-path="url(#p0dc1e79d53)" style="fill: #117733; fill-opacity: 0.6; stroke: #ffffff; stroke-opacity: 0.6; stroke-width: 0.339411"/>
    <path d="M 88.90523 90.538896 
L 86.783909 94.781536 
L 91.02655 94.781536 
z
" clip-path="url(#p0dc1e79d53)" style="fill: #117733; fill-opacity: 0.6; stroke: #ffffff; stroke-opacity: 0.6; stroke-width: 0.339411"/>
    <path d="M 67.655762 92.351078 
L 65.534442 96.593719 
L 69.777082 96.593719 
z
" clip-path="url(#p0dc1e79d53)" style="fill: #117733; fill-opacity: 0.6; stroke: #ffffff; stroke-opacity: 0.6; stroke-width: 0.339411"/>
    <path d="M 70.796808 109.359743 
L 68.675488 113.602384 
L 72.918129 113.602384 
z
" clip-path="url(#p0dc1e79d53)" style="fill: #117733; fill-opacity: 0.6; stroke: #ffffff; stroke-opacity: 0.6; stroke-width: 0.339411"/>
    <path d="M 66.126124 100.88178 
L 64.004804 105.12442 
L 68.247444 105.12442 
z
" clip-path="url(#p0dc1e79d53)" style="fill: #117733; fill-opacity: 0.6; stroke: #ffffff; stroke-opacity: 0.6; stroke-width: 0.339411"/>
    <path d="M 141.181135 114.455362 
L 139.059815 118.698003 
L 143.302456 118.698003 
z
" clip-path="url(#p0dc1e79d53)" style="fill: #117733; fill-opacity: 0.6; stroke: #ffffff; stroke-opacity: 0.6; stroke-width: 0.339411"/>
    <path d="M 111.993056 148.076472 
L 109.871735 152.319113 
L 114.114376 152.319113 
z
" clip-path="url(#p0dc1e79d53)" style="fill: #117733; fill-opacity: 0.6; stroke: #ffffff; stroke-opacity: 0.6; stroke-width: 0.339411"/>
    <path d="M 119.51629 50.953426 
L 117.394969 55.196067 
L 121.63761 55.196067 
z
" clip-path="url(#p0dc1e79d53)" style="fill: #117733; fill-opacity: 0.6; stroke: #ffffff; stroke-opacity: 0.6; stroke-width: 0.339411"/>
    <path d="M 87.227509 106.670789 
L 85.106188 110.913429 
L 89.348829 110.913429 
z
" clip-path="url(#p0dc1e79d53)" style="fill: #117733; fill-opacity: 0.6; stroke: #ffffff; stroke-opacity: 0.6; stroke-width: 0.339411"/>
    <path d="M 69.190491 90.883313 
L 67.069171 95.125954 
L 71.311812 95.125954 
z
" clip-path="url(#p0dc1e79d53)" style="fill: #117733; fill-opacity: 0.6; stroke: #ffffff; stroke-opacity: 0.6; stroke-width: 0.339411"/>
    <path d="M 74.256742 99.851101 
L 72.135422 104.093742 
L 76.378063 104.093742 
z
" clip-path="url(#p0dc1e79d53)" style="fill: #117733; fill-opacity: 0.6; stroke: #ffffff; stroke-opacity: 0.6; stroke-width: 0.339411"/>
    <path d="M 148.002435 108.217902 
L 145.881114 112.460543 
L 150.123755 112.460543 
z
" clip-path="url(#p0dc1e79d53)" style="fill: #117733; fill-opacity: 0.6; stroke: #ffffff; stroke-opacity: 0.6; stroke-width: 0.339411"/>
    <path d="M 79.510684 108.125421 
L 77.389364 112.368062 
L 81.632004 112.368062 
z
" clip-path="url(#p0dc1e79d53)" style="fill: #117733; fill-opacity: 0.6; stroke: #ffffff; stroke-opacity: 0.6; stroke-width: 0.339411"/>
    <path d="M 198.902952 91.28722 
L 196.781631 95.529861 
L 201.024272 95.529861 
z
" clip-path="url(#p0dc1e79d53)" style="fill: #117733; fill-opacity: 0.6; stroke: #ffffff; stroke-opacity: 0.6; stroke-width: 0.339411"/>
    <path d="M 171.898471 150.380491 
L 169.777151 154.623131 
L 174.019792 154.623131 
z
" clip-path="url(#p0dc1e79d53)" style="fill: #117733; fill-opacity: 0.6; stroke: #ffffff; stroke-opacity: 0.6; stroke-width: 0.339411"/>
    <path d="M 205.844452 90.63072 
L 203.723132 94.873361 
L 207.965773 94.873361 
z
" clip-path="url(#p0dc1e79d53)" style="fill: #117733; fill-opacity: 0.6; stroke: #ffffff; stroke-opacity: 0.6; stroke-width: 0.339411"/>
    <path d="M 197.517472 91.084435 
L 195.396152 95.327076 
L 199.638792 95.327076 
z
" clip-path="url(#p0dc1e79d53)" style="fill: #117733; fill-opacity: 0.6; stroke: #ffffff; stroke-opacity: 0.6; stroke-width: 0.339411"/>
    <path d="M 72.923345 118.062078 
L 70.802024 122.304719 
L 75.044665 122.304719 
z
" clip-path="url(#p0dc1e79d53)" style="fill: #117733; fill-opacity: 0.6; stroke: #ffffff; stroke-opacity: 0.6; stroke-width: 0.339411"/>
    <path d="M 142.661871 138.370919 
L 140.54055 142.61356 
L 144.783191 142.61356 
z
" clip-path="url(#p0dc1e79d53)" style="fill: #117733; fill-opacity: 0.6; stroke: #ffffff; stroke-opacity: 0.6; stroke-width: 0.339411"/>
    <path d="M 67.665985 113.764461 
L 65.544665 118.007102 
L 69.787305 118.007102 
z
" clip-path="url(#p0dc1e79d53)" style="fill: #117733; fill-opacity: 0.6; stroke: #ffffff; stroke-opacity: 0.6; stroke-width: 0.339411"/>
    <path d="M 199.243724 85.964448 
L 197.122403 90.207089 
L 201.365044 90.207089 
z
" clip-path="url(#p0dc1e79d53)" style="fill: #117733; fill-opacity: 0.6; stroke: #ffffff; stroke-opacity: 0.6; stroke-width: 0.339411"/>
    <path d="M 140.129695 110.241518 
L 138.008375 114.484159 
L 142.251016 114.484159 
z
" clip-path="url(#p0dc1e79d53)" style="fill: #117733; fill-opacity: 0.6; stroke: #ffffff; stroke-opacity: 0.6; stroke-width: 0.339411"/>
    <path d="M 214.366544 156.715162 
L 212.245224 160.957803 
L 216.487865 160.957803 
z
" clip-path="url(#p0dc1e79d53)" style="fill: #117733; fill-opacity: 0.6; stroke: #ffffff; stroke-opacity: 0.6; stroke-width: 0.339411"/>
    <path d="M 68.166234 113.368586 
L 66.044914 117.611226 
L 70.287555 117.611226 
z
" clip-path="url(#p0dc1e79d53)" style="fill: #117733; fill-opacity: 0.6; stroke: #ffffff; stroke-opacity: 0.6; stroke-width: 0.339411"/>
    <path d="M 143.46539 117.432493 
L 141.344069 121.675134 
L 145.58671 121.675134 
z
" clip-path="url(#p0dc1e79d53)" style="fill: #117733; fill-opacity: 0.6; stroke: #ffffff; stroke-opacity: 0.6; stroke-width: 0.339411"/>
    <path d="M 87.561912 90.661072 
L 85.440592 94.903713 
L 89.683233 94.903713 
z
" clip-path="url(#p0dc1e79d53)" style="fill: #117733; fill-opacity: 0.6; stroke: #ffffff; stroke-opacity: 0.6; stroke-width: 0.339411"/>
    <path d="M 86.20956 110.643366 
L 84.088239 114.886006 
L 88.33088 114.886006 
z
" clip-path="url(#p0dc1e79d53)" style="fill: #117733; fill-opacity: 0.6; stroke: #ffffff; stroke-opacity: 0.6; stroke-width: 0.339411"/>
    <path d="M 142.742656 103.598303 
L 146.985297 103.598303 
L 146.985297 99.355662 
L 142.742656 99.355662 
z
" clip-path="url(#p0dc1e79d53)" style="fill: #44aa99; fill-opacity: 0.6; stroke: #ffffff; stroke-opacity: 0.6; stroke-width: 0.339411"/>
    <path d="M 94.786012 93.037824 
L 99.028653 93.037824 
L 99.028653 88.795184 
L 94.786012 88.795184 
z
" clip-path="url(#p0dc1e79d53)" style="fill: #44aa99; fill-opacity: 0.6; stroke: #ffffff; stroke-opacity: 0.6; stroke-width: 0.339411"/>
    <path d="M 147.99276 69.199724 
L 152.235401 69.199724 
L 152.235401 64.957084 
L 147.99276 64.957084 
z
" clip-path="url(#p0dc1e79d53)" style="fill: #44aa99; fill-opacity: 0.6; stroke: #ffffff; stroke-opacity: 0.6; stroke-width: 0.339411"/>
    <path d="M 125.078621 54.943591 
L 129.321262 54.943591 
L 129.321262 50.70095 
L 125.078621 50.70095 
z
" clip-path="url(#p0dc1e79d53)" style="fill: #44aa99; fill-opacity: 0.6; stroke: #ffffff; stroke-opacity: 0.6; stroke-width: 0.339411"/>
    <path d="M 171.142474 158.005449 
L 175.385115 158.005449 
L 175.385115 153.762809 
L 171.142474 153.762809 
z
" clip-path="url(#p0dc1e79d53)" style="fill: #44aa99; fill-opacity: 0.6; stroke: #ffffff; stroke-opacity: 0.6; stroke-width: 0.339411"/>
    <path d="M 140.558114 146.085694 
L 144.800755 146.085694 
L 144.800755 141.843054 
L 140.558114 141.843054 
z
" clip-path="url(#p0dc1e79d53)" style="fill: #44aa99; fill-opacity: 0.6; stroke: #ffffff; stroke-opacity: 0.6; stroke-width: 0.339411"/>
    <path d="M 146.719164 94.47369 
L 150.961805 94.47369 
L 150.961805 90.23105 
L 146.719164 90.23105 
z
" clip-path="url(#p0dc1e79d53)" style="fill: #44aa99; fill-opacity: 0.6; stroke: #ffffff; stroke-opacity: 0.6; stroke-width: 0.339411"/>
    <path d="M 128.784394 50.621528 
L 133.027035 50.621528 
L 133.027035 46.378887 
L 128.784394 46.378887 
z
" clip-path="url(#p0dc1e79d53)" style="fill: #44aa99; fill-opacity: 0.6; stroke: #ffffff; stroke-opacity: 0.6; stroke-width: 0.339411"/>
    <path d="M 143.530833 61.87255 
L 147.773474 61.87255 
L 147.773474 57.629909 
L 143.530833 57.629909 
z
" clip-path="url(#p0dc1e79d53)" style="fill: #44aa99; fill-opacity: 0.6; stroke: #ffffff; stroke-opacity: 0.6; stroke-width: 0.339411"/>
    <path d="M 142.517543 55.577946 
L 146.760184 55.577946 
L 146.760184 51.335305 
L 142.517543 51.335305 
z
" clip-path="url(#p0dc1e79d53)" style="fill: #44aa99; fill-opacity: 0.6; stroke: #ffffff; stroke-opacity: 0.6; stroke-width: 0.339411"/>
    <path d="M 175.740081 152.104842 
L 179.982722 152.104842 
L 179.982722 147.862202 
L 175.740081 147.862202 
z
" clip-path="url(#p0dc1e79d53)" style="fill: #44aa99; fill-opacity: 0.6; stroke: #ffffff; stroke-opacity: 0.6; stroke-width: 0.339411"/>
    <path d="M 141.550838 58.771306 
L 145.793479 58.771306 
L 145.793479 54.528665 
L 141.550838 54.528665 
z
" clip-path="url(#p0dc1e79d53)" style="fill: #44aa99; fill-opacity: 0.6; stroke: #ffffff; stroke-opacity: 0.6; stroke-width: 0.339411"/>
    <path d="M 198.159808 87.757257 
L 202.402448 87.757257 
L 202.402448 83.514616 
L 198.159808 83.514616 
z
" clip-path="url(#p0dc1e79d53)" style="fill: #44aa99; fill-opacity: 0.6; stroke: #ffffff; stroke-opacity: 0.6; stroke-width: 0.339411"/>
    <path d="M 164.18313 65.361456 
L 168.42577 65.361456 
L 168.42577 61.118815 
L 164.18313 61.118815 
z
" clip-path="url(#p0dc1e79d53)" style="fill: #44aa99; fill-opacity: 0.6; stroke: #ffffff; stroke-opacity: 0.6; stroke-width: 0.339411"/>
    <path d="M 96.249918 99.738136 
L 100.492558 99.738136 
L 100.492558 95.495495 
L 96.249918 95.495495 
z
" clip-path="url(#p0dc1e79d53)" style="fill: #44aa99; fill-opacity: 0.6; stroke: #ffffff; stroke-opacity: 0.6; stroke-width: 0.339411"/>
    <path d="M 178.736511 161.837811 
L 182.979152 161.837811 
L 182.979152 157.59517 
L 178.736511 157.59517 
z
" clip-path="url(#p0dc1e79d53)" style="fill: #44aa99; fill-opacity: 0.6; stroke: #ffffff; stroke-opacity: 0.6; stroke-width: 0.339411"/>
    <path d="M 180.662059 90.792025 
L 184.904699 90.792025 
L 184.904699 86.549385 
L 180.662059 86.549385 
z
" clip-path="url(#p0dc1e79d53)" style="fill: #44aa99; fill-opacity: 0.6; stroke: #ffffff; stroke-opacity: 0.6; stroke-width: 0.339411"/>
    <path d="M 169.711819 48.984131 
L 173.95446 48.984131 
L 173.95446 44.74149 
L 169.711819 44.74149 
z
" clip-path="url(#p0dc1e79d53)" style="fill: #44aa99; fill-opacity: 0.6; stroke: #ffffff; stroke-opacity: 0.6; stroke-width: 0.339411"/>
    <path d="M 207.070978 94.18218 
L 211.313619 94.18218 
L 211.313619 89.93954 
L 207.070978 89.93954 
z
" clip-path="url(#p0dc1e79d53)" style="fill: #44aa99; fill-opacity: 0.6; stroke: #ffffff; stroke-opacity: 0.6; stroke-width: 0.339411"/>
    <path d="M 140.383167 44.541516 
L 144.625808 44.541516 
L 144.625808 40.298875 
L 140.383167 40.298875 
z
" clip-path="url(#p0dc1e79d53)" style="fill: #44aa99; fill-opacity: 0.6; stroke: #ffffff; stroke-opacity: 0.6; stroke-width: 0.339411"/>
    <path d="M 176.294379 117.832297 
L 180.53702 117.832297 
L 180.53702 113.589657 
L 176.294379 113.589657 
z
" clip-path="url(#p0dc1e79d53)" style="fill: #44aa99; fill-opacity: 0.6; stroke: #ffffff; stroke-opacity: 0.6; stroke-width: 0.339411"/>
    <path d="M 126.656997 48.43273 
L 130.899637 48.43273 
L 130.899637 44.19009 
L 126.656997 44.19009 
z
" clip-path="url(#p0dc1e79d53)" style="fill: #44aa99; fill-opacity: 0.6; stroke: #ffffff; stroke-opacity: 0.6; stroke-width: 0.339411"/>
    <path d="M 116.764936 58.11569 
L 121.007576 58.11569 
L 121.007576 53.873049 
L 116.764936 53.873049 
z
" clip-path="url(#p0dc1e79d53)" style="fill: #44aa99; fill-opacity: 0.6; stroke: #ffffff; stroke-opacity: 0.6; stroke-width: 0.339411"/>
    <path d="M 174.352665 135.714498 
L 178.595305 135.714498 
L 178.595305 131.471858 
L 174.352665 131.471858 
z
" clip-path="url(#p0dc1e79d53)" style="fill: #44aa99; fill-opacity: 0.6; stroke: #ffffff; stroke-opacity: 0.6; stroke-width: 0.339411"/>
    <path d="M 191.905491 88.094624 
L 196.148132 88.094624 
L 196.148132 83.851983 
L 191.905491 83.851983 
z
" clip-path="url(#p0dc1e79d53)" style="fill: #44aa99; fill-opacity: 0.6; stroke: #ffffff; stroke-opacity: 0.6; stroke-width: 0.339411"/>
    <path d="M 180.506092 163.954906 
L 184.748733 163.954906 
L 184.748733 159.712265 
L 180.506092 159.712265 
z
" clip-path="url(#p0dc1e79d53)" style="fill: #44aa99; fill-opacity: 0.6; stroke: #ffffff; stroke-opacity: 0.6; stroke-width: 0.339411"/>
    <path d="M 134.732034 44.155062 
L 138.974675 44.155062 
L 138.974675 39.912422 
L 134.732034 39.912422 
z
" clip-path="url(#p0dc1e79d53)" style="fill: #44aa99; fill-opacity: 0.6; stroke: #ffffff; stroke-opacity: 0.6; stroke-width: 0.339411"/>
    <path d="M 110.923455 77.579209 
L 115.166095 77.579209 
L 115.166095 73.336569 
L 110.923455 73.336569 
z
" clip-path="url(#p0dc1e79d53)" style="fill: #44aa99; fill-opacity: 0.6; stroke: #ffffff; stroke-opacity: 0.6; stroke-width: 0.339411"/>
    <path d="M 122.14315 62.522071 
L 126.38579 62.522071 
L 126.38579 58.279431 
L 122.14315 58.279431 
z
" clip-path="url(#p0dc1e79d53)" style="fill: #44aa99; fill-opacity: 0.6; stroke: #ffffff; stroke-opacity: 0.6; stroke-width: 0.339411"/>
    <path d="M 131.215869 43.750674 
L 135.458509 43.750674 
L 135.458509 39.508034 
L 131.215869 39.508034 
z
" clip-path="url(#p0dc1e79d53)" style="fill: #44aa99; fill-opacity: 0.6; stroke: #ffffff; stroke-opacity: 0.6; stroke-width: 0.339411"/>
    <path d="M 178.673207 115.719657 
L 182.915847 115.719657 
L 182.915847 111.477016 
L 178.673207 111.477016 
z
" clip-path="url(#p0dc1e79d53)" style="fill: #44aa99; fill-opacity: 0.6; stroke: #ffffff; stroke-opacity: 0.6; stroke-width: 0.339411"/>
    <path d="M 170.640589 66.768042 
L 174.883229 66.768042 
L 174.883229 62.525401 
L 170.640589 62.525401 
z
" clip-path="url(#p0dc1e79d53)" style="fill: #44aa99; fill-opacity: 0.6; stroke: #ffffff; stroke-opacity: 0.6; stroke-width: 0.339411"/>
    <path d="M 123.674459 54.935741 
L 127.9171 54.935741 
L 127.9171 50.6931 
L 123.674459 50.6931 
z
" clip-path="url(#p0dc1e79d53)" style="fill: #44aa99; fill-opacity: 0.6; stroke: #ffffff; stroke-opacity: 0.6; stroke-width: 0.339411"/>
    <path d="M 117.906043 59.958699 
L 122.148683 59.958699 
L 122.148683 55.716058 
L 117.906043 55.716058 
z
" clip-path="url(#p0dc1e79d53)" style="fill: #44aa99; fill-opacity: 0.6; stroke: #ffffff; stroke-opacity: 0.6; stroke-width: 0.339411"/>
    <path d="M 159.802519 68.271995 
L 164.04516 68.271995 
L 164.04516 64.029354 
L 159.802519 64.029354 
z
" clip-path="url(#p0dc1e79d53)" style="fill: #44aa99; fill-opacity: 0.6; stroke: #ffffff; stroke-opacity: 0.6; stroke-width: 0.339411"/>
    <path d="M 170.340534 111.129243 
L 174.583175 111.129243 
L 174.583175 106.886603 
L 170.340534 106.886603 
z
" clip-path="url(#p0dc1e79d53)" style="fill: #44aa99; fill-opacity: 0.6; stroke: #ffffff; stroke-opacity: 0.6; stroke-width: 0.339411"/>
    <path d="M 182.29787 160.50775 
L 186.540511 160.50775 
L 186.540511 156.265109 
L 182.29787 156.265109 
z
" clip-path="url(#p0dc1e79d53)" style="fill: #44aa99; fill-opacity: 0.6; stroke: #ffffff; stroke-opacity: 0.6; stroke-width: 0.339411"/>
    <path d="M 118.806981 44.465085 
L 123.049622 44.465085 
L 123.049622 40.222445 
L 118.806981 40.222445 
z
" clip-path="url(#p0dc1e79d53)" style="fill: #44aa99; fill-opacity: 0.6; stroke: #ffffff; stroke-opacity: 0.6; stroke-width: 0.339411"/>
    <path d="M 175.224394 157.814231 
L 179.467035 157.814231 
L 179.467035 153.57159 
L 175.224394 153.57159 
z
" clip-path="url(#p0dc1e79d53)" style="fill: #44aa99; fill-opacity: 0.6; stroke: #ffffff; stroke-opacity: 0.6; stroke-width: 0.339411"/>
    <path d="M 172.400904 55.113515 
L 176.643544 55.113515 
L 176.643544 50.870875 
L 172.400904 50.870875 
z
" clip-path="url(#p0dc1e79d53)" style="fill: #44aa99; fill-opacity: 0.6; stroke: #ffffff; stroke-opacity: 0.6; stroke-width: 0.339411"/>
    <path d="M 129.515947 66.255318 
L 133.758588 66.255318 
L 133.758588 62.012677 
L 129.515947 62.012677 
z
" clip-path="url(#p0dc1e79d53)" style="fill: #44aa99; fill-opacity: 0.6; stroke: #ffffff; stroke-opacity: 0.6; stroke-width: 0.339411"/>
    <path d="M 123.125132 49.879643 
L 127.367773 49.879643 
L 127.367773 45.637002 
L 123.125132 45.637002 
z
" clip-path="url(#p0dc1e79d53)" style="fill: #44aa99; fill-opacity: 0.6; stroke: #ffffff; stroke-opacity: 0.6; stroke-width: 0.339411"/>
    <path d="M 177.704071 160.629546 
L 181.946712 160.629546 
L 181.946712 156.386906 
L 177.704071 156.386906 
z
" clip-path="url(#p0dc1e79d53)" style="fill: #44aa99; fill-opacity: 0.6; stroke: #ffffff; stroke-opacity: 0.6; stroke-width: 0.339411"/>
    <path d="M 115.577296 53.793471 
L 119.819937 53.793471 
L 119.819937 49.55083 
L 115.577296 49.55083 
z
" clip-path="url(#p0dc1e79d53)" style="fill: #44aa99; fill-opacity: 0.6; stroke: #ffffff; stroke-opacity: 0.6; stroke-width: 0.339411"/>
    <path d="M 193.813624 87.020635 
L 198.056265 87.020635 
L 198.056265 82.777995 
L 193.813624 82.777995 
z
" clip-path="url(#p0dc1e79d53)" style="fill: #44aa99; fill-opacity: 0.6; stroke: #ffffff; stroke-opacity: 0.6; stroke-width: 0.339411"/>
    <path d="M 133.939867 60.017818 
L 138.182508 60.017818 
L 138.182508 55.775178 
L 133.939867 55.775178 
z
" clip-path="url(#p0dc1e79d53)" style="fill: #44aa99; fill-opacity: 0.6; stroke: #ffffff; stroke-opacity: 0.6; stroke-width: 0.339411"/>
    <path d="M 178.645759 122.206215 
L 182.8884 122.206215 
L 182.8884 117.963574 
L 178.645759 117.963574 
z
" clip-path="url(#p0dc1e79d53)" style="fill: #44aa99; fill-opacity: 0.6; stroke: #ffffff; stroke-opacity: 0.6; stroke-width: 0.339411"/>
    <path d="M 184.628755 157.916429 
L 188.871396 157.916429 
L 188.871396 153.673788 
L 184.628755 153.673788 
z
" clip-path="url(#p0dc1e79d53)" style="fill: #44aa99; fill-opacity: 0.6; stroke: #ffffff; stroke-opacity: 0.6; stroke-width: 0.339411"/>
    <path d="M 189.403382 140.246228 
L 193.646023 140.246228 
L 193.646023 136.003587 
L 189.403382 136.003587 
z
" clip-path="url(#p0dc1e79d53)" style="fill: #44aa99; fill-opacity: 0.6; stroke: #ffffff; stroke-opacity: 0.6; stroke-width: 0.339411"/>
    <path d="M 161.617093 61.592769 
L 165.859734 61.592769 
L 165.859734 57.350128 
L 161.617093 57.350128 
z
" clip-path="url(#p0dc1e79d53)" style="fill: #44aa99; fill-opacity: 0.6; stroke: #ffffff; stroke-opacity: 0.6; stroke-width: 0.339411"/>
    <path d="M 170.007547 85.382809 
L 174.250187 85.382809 
L 174.250187 81.140169 
L 170.007547 81.140169 
z
" clip-path="url(#p0dc1e79d53)" style="fill: #44aa99; fill-opacity: 0.6; stroke: #ffffff; stroke-opacity: 0.6; stroke-width: 0.339411"/>
    <path d="M 112.021311 47.653806 
L 116.263951 47.653806 
L 116.263951 43.411166 
L 112.021311 43.411166 
z
" clip-path="url(#p0dc1e79d53)" style="fill: #44aa99; fill-opacity: 0.6; stroke: #ffffff; stroke-opacity: 0.6; stroke-width: 0.339411"/>
    <path d="M 169.288275 140.344842 
L 173.530916 140.344842 
L 173.530916 136.102202 
L 169.288275 136.102202 
z
" clip-path="url(#p0dc1e79d53)" style="fill: #44aa99; fill-opacity: 0.6; stroke: #ffffff; stroke-opacity: 0.6; stroke-width: 0.339411"/>
    <path d="M 181.367126 156.680798 
L 185.609766 156.680798 
L 185.609766 152.438157 
L 181.367126 152.438157 
z
" clip-path="url(#p0dc1e79d53)" style="fill: #44aa99; fill-opacity: 0.6; stroke: #ffffff; stroke-opacity: 0.6; stroke-width: 0.339411"/>
    <path d="M 115.027241 58.778389 
L 119.269881 58.778389 
L 119.269881 54.535748 
L 115.027241 54.535748 
z
" clip-path="url(#p0dc1e79d53)" style="fill: #44aa99; fill-opacity: 0.6; stroke: #ffffff; stroke-opacity: 0.6; stroke-width: 0.339411"/>
    <path d="M 164.513141 52.779395 
L 168.755781 52.779395 
L 168.755781 48.536754 
L 164.513141 48.536754 
z
" clip-path="url(#p0dc1e79d53)" style="fill: #44aa99; fill-opacity: 0.6; stroke: #ffffff; stroke-opacity: 0.6; stroke-width: 0.339411"/>
    <path d="M 130.470735 60.719597 
L 134.713375 60.719597 
L 134.713375 56.476956 
L 130.470735 56.476956 
z
" clip-path="url(#p0dc1e79d53)" style="fill: #44aa99; fill-opacity: 0.6; stroke: #ffffff; stroke-opacity: 0.6; stroke-width: 0.339411"/>
    <path d="M 171.984169 60.704886 
L 176.22681 60.704886 
L 176.22681 56.462245 
L 171.984169 56.462245 
z
" clip-path="url(#p0dc1e79d53)" style="fill: #44aa99; fill-opacity: 0.6; stroke: #ffffff; stroke-opacity: 0.6; stroke-width: 0.339411"/>
    <path d="M 116.688187 45.799867 
L 120.930828 45.799867 
L 120.930828 41.557227 
L 116.688187 41.557227 
z
" clip-path="url(#p0dc1e79d53)" style="fill: #44aa99; fill-opacity: 0.6; stroke: #ffffff; stroke-opacity: 0.6; stroke-width: 0.339411"/>
    <path d="M 184.439544 159.047821 
L 188.682185 159.047821 
L 188.682185 154.805181 
L 184.439544 154.805181 
z
" clip-path="url(#p0dc1e79d53)" style="fill: #44aa99; fill-opacity: 0.6; stroke: #ffffff; stroke-opacity: 0.6; stroke-width: 0.339411"/>
    <path d="M 136.776802 112.668409 
L 141.019442 112.668409 
L 141.019442 108.425769 
L 136.776802 108.425769 
z
" clip-path="url(#p0dc1e79d53)" style="fill: #44aa99; fill-opacity: 0.6; stroke: #ffffff; stroke-opacity: 0.6; stroke-width: 0.339411"/>
    <path d="M 118.123598 52.677739 
L 122.366239 52.677739 
L 122.366239 48.435098 
L 118.123598 48.435098 
z
" clip-path="url(#p0dc1e79d53)" style="fill: #44aa99; fill-opacity: 0.6; stroke: #ffffff; stroke-opacity: 0.6; stroke-width: 0.339411"/>
    <path d="M 175.552066 114.991613 
L 179.794706 114.991613 
L 179.794706 110.748972 
L 175.552066 110.748972 
z
" clip-path="url(#p0dc1e79d53)" style="fill: #44aa99; fill-opacity: 0.6; stroke: #ffffff; stroke-opacity: 0.6; stroke-width: 0.339411"/>
    <path d="M 126.333698 57.667479 
L 130.576339 57.667479 
L 130.576339 53.424838 
L 126.333698 53.424838 
z
" clip-path="url(#p0dc1e79d53)" style="fill: #44aa99; fill-opacity: 0.6; stroke: #ffffff; stroke-opacity: 0.6; stroke-width: 0.339411"/>
    <path d="M 136.888906 52.676231 
L 137.949566 51.615571 
L 139.010226 52.676231 
L 140.070886 51.615571 
L 139.010226 50.554911 
L 140.070886 49.494251 
L 139.010226 48.433591 
L 137.949566 49.494251 
L 136.888906 48.433591 
L 135.828246 49.494251 
L 136.888906 50.554911 
L 135.828246 51.615571 
z
" clip-path="url(#p0dc1e79d53)" style="fill: #88ccee; fill-opacity: 0.6; stroke: #ffffff; stroke-opacity: 0.6; stroke-width: 0.339411"/>
    <path d="M 148.658539 159.944133 
L 149.719199 158.883473 
L 150.779859 159.944133 
L 151.84052 158.883473 
L 150.779859 157.822813 
L 151.84052 156.762152 
L 150.779859 155.701492 
L 149.719199 156.762152 
L 148.658539 155.701492 
L 147.597879 156.762152 
L 148.658539 157.822813 
L 147.597879 158.883473 
z
" clip-path="url(#p0dc1e79d53)" style="fill: #88ccee; fill-opacity: 0.6; stroke: #ffffff; stroke-opacity: 0.6; stroke-width: 0.339411"/>
    <path d="M 149.915864 62.605572 
L 150.976524 61.544911 
L 152.037184 62.605572 
L 153.097845 61.544911 
L 152.037184 60.484251 
L 153.097845 59.423591 
L 152.037184 58.362931 
L 150.976524 59.423591 
L 149.915864 58.362931 
L 148.855204 59.423591 
L 149.915864 60.484251 
L 148.855204 61.544911 
z
" clip-path="url(#p0dc1e79d53)" style="fill: #88ccee; fill-opacity: 0.6; stroke: #ffffff; stroke-opacity: 0.6; stroke-width: 0.339411"/>
    <path d="M 143.745223 41.9423 
L 144.805883 40.88164 
L 145.866544 41.9423 
L 146.927204 40.88164 
L 145.866544 39.82098 
L 146.927204 38.760319 
L 145.866544 37.699659 
L 144.805883 38.760319 
L 143.745223 37.699659 
L 142.684563 38.760319 
L 143.745223 39.82098 
L 142.684563 40.88164 
z
" clip-path="url(#p0dc1e79d53)" style="fill: #88ccee; fill-opacity: 0.6; stroke: #ffffff; stroke-opacity: 0.6; stroke-width: 0.339411"/>
    <path d="M 171.985969 57.760791 
L 173.046629 56.700131 
L 174.107289 57.760791 
L 175.167949 56.700131 
L 174.107289 55.639471 
L 175.167949 54.57881 
L 174.107289 53.51815 
L 173.046629 54.57881 
L 171.985969 53.51815 
L 170.925308 54.57881 
L 171.985969 55.639471 
L 170.925308 56.700131 
z
" clip-path="url(#p0dc1e79d53)" style="fill: #88ccee; fill-opacity: 0.6; stroke: #ffffff; stroke-opacity: 0.6; stroke-width: 0.339411"/>
    <path d="M 149.805143 48.941217 
L 150.865804 47.880557 
L 151.926464 48.941217 
L 152.987124 47.880557 
L 151.926464 46.819897 
L 152.987124 45.759237 
L 151.926464 44.698577 
L 150.865804 45.759237 
L 149.805143 44.698577 
L 148.744483 45.759237 
L 149.805143 46.819897 
L 148.744483 47.880557 
z
" clip-path="url(#p0dc1e79d53)" style="fill: #88ccee; fill-opacity: 0.6; stroke: #ffffff; stroke-opacity: 0.6; stroke-width: 0.339411"/>
    <path d="M 138.234683 39.895381 
L 139.295343 38.834721 
L 140.356003 39.895381 
L 141.416663 38.834721 
L 140.356003 37.774061 
L 141.416663 36.713401 
L 140.356003 35.65274 
L 139.295343 36.713401 
L 138.234683 35.65274 
L 137.174022 36.713401 
L 138.234683 37.774061 
L 137.174022 38.834721 
z
" clip-path="url(#p0dc1e79d53)" style="fill: #88ccee; fill-opacity: 0.6; stroke: #ffffff; stroke-opacity: 0.6; stroke-width: 0.339411"/>
    <path d="M 162.289415 53.364104 
L 163.350075 52.303444 
L 164.410736 53.364104 
L 165.471396 52.303444 
L 164.410736 51.242784 
L 165.471396 50.182124 
L 164.410736 49.121464 
L 163.350075 50.182124 
L 162.289415 49.121464 
L 161.228755 50.182124 
L 162.289415 51.242784 
L 161.228755 52.303444 
z
" clip-path="url(#p0dc1e79d53)" style="fill: #88ccee; fill-opacity: 0.6; stroke: #ffffff; stroke-opacity: 0.6; stroke-width: 0.339411"/>
    <path d="M 114.891612 49.31574 
L 115.952273 48.25508 
L 117.012933 49.31574 
L 118.073593 48.25508 
L 117.012933 47.19442 
L 118.073593 46.13376 
L 117.012933 45.0731 
L 115.952273 46.13376 
L 114.891612 45.0731 
L 113.830952 46.13376 
L 114.891612 47.19442 
L 113.830952 48.25508 
z
" clip-path="url(#p0dc1e79d53)" style="fill: #88ccee; fill-opacity: 0.6; stroke: #ffffff; stroke-opacity: 0.6; stroke-width: 0.339411"/>
    <path d="M 208.824372 148.135268 
L 209.885032 147.074607 
L 210.945692 148.135268 
L 212.006352 147.074607 
L 210.945692 146.013947 
L 212.006352 144.953287 
L 210.945692 143.892627 
L 209.885032 144.953287 
L 208.824372 143.892627 
L 207.763711 144.953287 
L 208.824372 146.013947 
L 207.763711 147.074607 
z
" clip-path="url(#p0dc1e79d53)" style="fill: #88ccee; fill-opacity: 0.6; stroke: #ffffff; stroke-opacity: 0.6; stroke-width: 0.339411"/>
    <path d="M 220.080865 158.725575 
L 221.141525 157.664915 
L 222.202185 158.725575 
L 223.262846 157.664915 
L 222.202185 156.604255 
L 223.262846 155.543595 
L 222.202185 154.482935 
L 221.141525 155.543595 
L 220.080865 154.482935 
L 219.020205 155.543595 
L 220.080865 156.604255 
L 219.020205 157.664915 
z
" clip-path="url(#p0dc1e79d53)" style="fill: #88ccee; fill-opacity: 0.6; stroke: #ffffff; stroke-opacity: 0.6; stroke-width: 0.339411"/>
    <path d="M 166.345577 140.595298 
L 167.406237 139.534638 
L 168.466897 140.595298 
L 169.527557 139.534638 
L 168.466897 138.473977 
L 169.527557 137.413317 
L 168.466897 136.352657 
L 167.406237 137.413317 
L 166.345577 136.352657 
L 165.284917 137.413317 
L 166.345577 138.473977 
L 165.284917 139.534638 
z
" clip-path="url(#p0dc1e79d53)" style="fill: #88ccee; fill-opacity: 0.6; stroke: #ffffff; stroke-opacity: 0.6; stroke-width: 0.339411"/>
    <path d="M 153.308443 144.171466 
L 154.369103 143.110806 
L 155.429763 144.171466 
L 156.490423 143.110806 
L 155.429763 142.050146 
L 156.490423 140.989486 
L 155.429763 139.928826 
L 154.369103 140.989486 
L 153.308443 139.928826 
L 152.247782 140.989486 
L 153.308443 142.050146 
L 152.247782 143.110806 
z
" clip-path="url(#p0dc1e79d53)" style="fill: #88ccee; fill-opacity: 0.6; stroke: #ffffff; stroke-opacity: 0.6; stroke-width: 0.339411"/>
    <path d="M 113.269966 50.134238 
L 114.330627 49.073577 
L 115.391287 50.134238 
L 116.451947 49.073577 
L 115.391287 48.012917 
L 116.451947 46.952257 
L 115.391287 45.891597 
L 114.330627 46.952257 
L 113.269966 45.891597 
L 112.209306 46.952257 
L 113.269966 48.012917 
L 112.209306 49.073577 
z
" clip-path="url(#p0dc1e79d53)" style="fill: #88ccee; fill-opacity: 0.6; stroke: #ffffff; stroke-opacity: 0.6; stroke-width: 0.339411"/>
    <path d="M 150.229331 154.83068 
L 151.289991 153.77002 
L 152.350651 154.83068 
L 153.411312 153.77002 
L 152.350651 152.709359 
L 153.411312 151.648699 
L 152.350651 150.588039 
L 151.289991 151.648699 
L 150.229331 150.588039 
L 149.168671 151.648699 
L 150.229331 152.709359 
L 149.168671 153.77002 
z
" clip-path="url(#p0dc1e79d53)" style="fill: #88ccee; fill-opacity: 0.6; stroke: #ffffff; stroke-opacity: 0.6; stroke-width: 0.339411"/>
    <path d="M 210.097578 156.404782 
L 211.158238 155.344122 
L 212.218898 156.404782 
L 213.279558 155.344122 
L 212.218898 154.283462 
L 213.279558 153.222802 
L 212.218898 152.162142 
L 211.158238 153.222802 
L 210.097578 152.162142 
L 209.036918 153.222802 
L 210.097578 154.283462 
L 209.036918 155.344122 
z
" clip-path="url(#p0dc1e79d53)" style="fill: #88ccee; fill-opacity: 0.6; stroke: #ffffff; stroke-opacity: 0.6; stroke-width: 0.339411"/>
    <path d="M 159.566307 158.251492 
L 160.626967 157.190832 
L 161.687627 158.251492 
L 162.748288 157.190832 
L 161.687627 156.130172 
L 162.748288 155.069512 
L 161.687627 154.008852 
L 160.626967 155.069512 
L 159.566307 154.008852 
L 158.505647 155.069512 
L 159.566307 156.130172 
L 158.505647 157.190832 
z
" clip-path="url(#p0dc1e79d53)" style="fill: #88ccee; fill-opacity: 0.6; stroke: #ffffff; stroke-opacity: 0.6; stroke-width: 0.339411"/>
    <path d="M 165.361782 47.437953 
L 166.422442 46.377293 
L 167.483102 47.437953 
L 168.543762 46.377293 
L 167.483102 45.316633 
L 168.543762 44.255973 
L 167.483102 43.195313 
L 166.422442 44.255973 
L 165.361782 43.195313 
L 164.301122 44.255973 
L 165.361782 45.316633 
L 164.301122 46.377293 
z
" clip-path="url(#p0dc1e79d53)" style="fill: #88ccee; fill-opacity: 0.6; stroke: #ffffff; stroke-opacity: 0.6; stroke-width: 0.339411"/>
    <path d="M 168.219335 55.190167 
L 169.279995 54.129506 
L 170.340655 55.190167 
L 171.401315 54.129506 
L 170.340655 53.068846 
L 171.401315 52.008186 
L 170.340655 50.947526 
L 169.279995 52.008186 
L 168.219335 50.947526 
L 167.158675 52.008186 
L 168.219335 53.068846 
L 167.158675 54.129506 
z
" clip-path="url(#p0dc1e79d53)" style="fill: #88ccee; fill-opacity: 0.6; stroke: #ffffff; stroke-opacity: 0.6; stroke-width: 0.339411"/>
    <path d="M 172.937832 144.193722 
L 173.998492 143.133062 
L 175.059152 144.193722 
L 176.119813 143.133062 
L 175.059152 142.072402 
L 176.119813 141.011742 
L 175.059152 139.951081 
L 173.998492 141.011742 
L 172.937832 139.951081 
L 171.877172 141.011742 
L 172.937832 142.072402 
L 171.877172 143.133062 
z
" clip-path="url(#p0dc1e79d53)" style="fill: #88ccee; fill-opacity: 0.6; stroke: #ffffff; stroke-opacity: 0.6; stroke-width: 0.339411"/>
    <path d="M 153.768064 153.169071 
L 154.828724 152.10841 
L 155.889385 153.169071 
L 156.950045 152.10841 
L 155.889385 151.04775 
L 156.950045 149.98709 
L 155.889385 148.92643 
L 154.828724 149.98709 
L 153.768064 148.92643 
L 152.707404 149.98709 
L 153.768064 151.04775 
L 152.707404 152.10841 
z
" clip-path="url(#p0dc1e79d53)" style="fill: #88ccee; fill-opacity: 0.6; stroke: #ffffff; stroke-opacity: 0.6; stroke-width: 0.339411"/>
    <path d="M 214.787315 164.864291 
L 215.847975 163.803631 
L 216.908635 164.864291 
L 217.969295 163.803631 
L 216.908635 162.742971 
L 217.969295 161.682311 
L 216.908635 160.621651 
L 215.847975 161.682311 
L 214.787315 160.621651 
L 213.726654 161.682311 
L 214.787315 162.742971 
L 213.726654 163.803631 
z
" clip-path="url(#p0dc1e79d53)" style="fill: #88ccee; fill-opacity: 0.6; stroke: #ffffff; stroke-opacity: 0.6; stroke-width: 0.339411"/>
    <path d="M 149.15379 45.42294 
L 150.21445 44.36228 
L 151.27511 45.42294 
L 152.33577 44.36228 
L 151.27511 43.30162 
L 152.33577 42.24096 
L 151.27511 41.1803 
L 150.21445 42.24096 
L 149.15379 41.1803 
L 148.09313 42.24096 
L 149.15379 43.30162 
L 148.09313 44.36228 
z
" clip-path="url(#p0dc1e79d53)" style="fill: #88ccee; fill-opacity: 0.6; stroke: #ffffff; stroke-opacity: 0.6; stroke-width: 0.339411"/>
    <path d="M 120.880262 152.570952 
L 121.940922 151.510292 
L 123.001582 152.570952 
L 124.062242 151.510292 
L 123.001582 150.449632 
L 124.062242 149.388972 
L 123.001582 148.328312 
L 121.940922 149.388972 
L 120.880262 148.328312 
L 119.819602 149.388972 
L 120.880262 150.449632 
L 119.819602 151.510292 
z
" clip-path="url(#p0dc1e79d53)" style="fill: #88ccee; fill-opacity: 0.6; stroke: #ffffff; stroke-opacity: 0.6; stroke-width: 0.339411"/>
    <path d="M 187.337053 146.807793 
L 188.397713 145.747132 
L 189.458374 146.807793 
L 190.519034 145.747132 
L 189.458374 144.686472 
L 190.519034 143.625812 
L 189.458374 142.565152 
L 188.397713 143.625812 
L 187.337053 142.565152 
L 186.276393 143.625812 
L 187.337053 144.686472 
L 186.276393 145.747132 
z
" clip-path="url(#p0dc1e79d53)" style="fill: #88ccee; fill-opacity: 0.6; stroke: #ffffff; stroke-opacity: 0.6; stroke-width: 0.339411"/>
    <path d="M 149.982489 156.210805 
L 151.043149 155.150145 
L 152.103809 156.210805 
L 153.164469 155.150145 
L 152.103809 154.089485 
L 153.164469 153.028825 
L 152.103809 151.968165 
L 151.043149 153.028825 
L 149.982489 151.968165 
L 148.921829 153.028825 
L 149.982489 154.089485 
L 148.921829 155.150145 
z
" clip-path="url(#p0dc1e79d53)" style="fill: #88ccee; fill-opacity: 0.6; stroke: #ffffff; stroke-opacity: 0.6; stroke-width: 0.339411"/>
    <path d="M 165.236681 152.824559 
L 166.297341 151.763899 
L 167.358001 152.824559 
L 168.418661 151.763899 
L 167.358001 150.703239 
L 168.418661 149.642579 
L 167.358001 148.581918 
L 166.297341 149.642579 
L 165.236681 148.581918 
L 164.176021 149.642579 
L 165.236681 150.703239 
L 164.176021 151.763899 
z
" clip-path="url(#p0dc1e79d53)" style="fill: #88ccee; fill-opacity: 0.6; stroke: #ffffff; stroke-opacity: 0.6; stroke-width: 0.339411"/>
    <path d="M 168.313622 144.450286 
L 169.374282 143.389625 
L 170.434942 144.450286 
L 171.495603 143.389625 
L 170.434942 142.328965 
L 171.495603 141.268305 
L 170.434942 140.207645 
L 169.374282 141.268305 
L 168.313622 140.207645 
L 167.252962 141.268305 
L 168.313622 142.328965 
L 167.252962 143.389625 
z
" clip-path="url(#p0dc1e79d53)" style="fill: #88ccee; fill-opacity: 0.6; stroke: #ffffff; stroke-opacity: 0.6; stroke-width: 0.339411"/>
    <path d="M 210.688383 163.005238 
L 211.749043 161.944578 
L 212.809703 163.005238 
L 213.870363 161.944578 
L 212.809703 160.883918 
L 213.870363 159.823258 
L 212.809703 158.762598 
L 211.749043 159.823258 
L 210.688383 158.762598 
L 209.627722 159.823258 
L 210.688383 160.883918 
L 209.627722 161.944578 
z
" clip-path="url(#p0dc1e79d53)" style="fill: #88ccee; fill-opacity: 0.6; stroke: #ffffff; stroke-opacity: 0.6; stroke-width: 0.339411"/>
    <path d="M 210.984929 156.107837 
L 212.045589 155.047177 
L 213.106249 156.107837 
L 214.166909 155.047177 
L 213.106249 153.986516 
L 214.166909 152.925856 
L 213.106249 151.865196 
L 212.045589 152.925856 
L 210.984929 151.865196 
L 209.924268 152.925856 
L 210.984929 153.986516 
L 209.924268 155.047177 
z
" clip-path="url(#p0dc1e79d53)" style="fill: #88ccee; fill-opacity: 0.6; stroke: #ffffff; stroke-opacity: 0.6; stroke-width: 0.339411"/>
    <path d="M 116.218389 80.54272 
L 117.279049 79.48206 
L 118.339709 80.54272 
L 119.400369 79.48206 
L 118.339709 78.4214 
L 119.400369 77.36074 
L 118.339709 76.300079 
L 117.279049 77.36074 
L 116.218389 76.300079 
L 115.157729 77.36074 
L 116.218389 78.4214 
L 115.157729 79.48206 
z
" clip-path="url(#p0dc1e79d53)" style="fill: #88ccee; fill-opacity: 0.6; stroke: #ffffff; stroke-opacity: 0.6; stroke-width: 0.339411"/>
    <path d="M 175.045066 139.265519 
L 176.105726 138.204859 
L 177.166386 139.265519 
L 178.227046 138.204859 
L 177.166386 137.144199 
L 178.227046 136.083539 
L 177.166386 135.022879 
L 176.105726 136.083539 
L 175.045066 135.022879 
L 173.984406 136.083539 
L 175.045066 137.144199 
L 173.984406 138.204859 
z
" clip-path="url(#p0dc1e79d53)" style="fill: #88ccee; fill-opacity: 0.6; stroke: #ffffff; stroke-opacity: 0.6; stroke-width: 0.339411"/>
    <path d="M 139.597465 38.451185 
L 140.658125 37.390524 
L 141.718785 38.451185 
L 142.779445 37.390524 
L 141.718785 36.329864 
L 142.779445 35.269204 
L 141.718785 34.208544 
L 140.658125 35.269204 
L 139.597465 34.208544 
L 138.536805 35.269204 
L 139.597465 36.329864 
L 138.536805 37.390524 
z
" clip-path="url(#p0dc1e79d53)" style="fill: #88ccee; fill-opacity: 0.6; stroke: #ffffff; stroke-opacity: 0.6; stroke-width: 0.339411"/>
    <path d="M 68.52261 110.817752 
L 69.58327 109.757092 
L 70.643931 110.817752 
L 71.704591 109.757092 
L 70.643931 108.696432 
L 71.704591 107.635771 
L 70.643931 106.575111 
L 69.58327 107.635771 
L 68.52261 106.575111 
L 67.46195 107.635771 
L 68.52261 108.696432 
L 67.46195 109.757092 
z
" clip-path="url(#p0dc1e79d53)" style="fill: #88ccee; fill-opacity: 0.6; stroke: #ffffff; stroke-opacity: 0.6; stroke-width: 0.339411"/>
    <path d="M 144.893758 158.372149 
L 145.954418 157.311488 
L 147.015078 158.372149 
L 148.075738 157.311488 
L 147.015078 156.250828 
L 148.075738 155.190168 
L 147.015078 154.129508 
L 145.954418 155.190168 
L 144.893758 154.129508 
L 143.833097 155.190168 
L 144.893758 156.250828 
L 143.833097 157.311488 
z
" clip-path="url(#p0dc1e79d53)" style="fill: #88ccee; fill-opacity: 0.6; stroke: #ffffff; stroke-opacity: 0.6; stroke-width: 0.339411"/>
    <path d="M 123.26237 72.625638 
L 124.323031 71.564978 
L 125.383691 72.625638 
L 126.444351 71.564978 
L 125.383691 70.504318 
L 126.444351 69.443657 
L 125.383691 68.382997 
L 124.323031 69.443657 
L 123.26237 68.382997 
L 122.20171 69.443657 
L 123.26237 70.504318 
L 122.20171 71.564978 
z
" clip-path="url(#p0dc1e79d53)" style="fill: #88ccee; fill-opacity: 0.6; stroke: #ffffff; stroke-opacity: 0.6; stroke-width: 0.339411"/>
    <path d="M 156.760362 144.509239 
L 157.821022 143.448579 
L 158.881682 144.509239 
L 159.942342 143.448579 
L 158.881682 142.387919 
L 159.942342 141.327259 
L 158.881682 140.266599 
L 157.821022 141.327259 
L 156.760362 140.266599 
L 155.699701 141.327259 
L 156.760362 142.387919 
L 155.699701 143.448579 
z
" clip-path="url(#p0dc1e79d53)" style="fill: #88ccee; fill-opacity: 0.6; stroke: #ffffff; stroke-opacity: 0.6; stroke-width: 0.339411"/>
    <path d="M 145.847116 36.217069 
L 146.907776 35.156409 
L 147.968436 36.217069 
L 149.029096 35.156409 
L 147.968436 34.095749 
L 149.029096 33.035089 
L 147.968436 31.974429 
L 146.907776 33.035089 
L 145.847116 31.974429 
L 144.786456 33.035089 
L 145.847116 34.095749 
L 144.786456 35.156409 
z
" clip-path="url(#p0dc1e79d53)" style="fill: #88ccee; fill-opacity: 0.6; stroke: #ffffff; stroke-opacity: 0.6; stroke-width: 0.339411"/>
    <path d="M 209.333547 144.881277 
L 210.394208 143.820616 
L 211.454868 144.881277 
L 212.515528 143.820616 
L 211.454868 142.759956 
L 212.515528 141.699296 
L 211.454868 140.638636 
L 210.394208 141.699296 
L 209.333547 140.638636 
L 208.272887 141.699296 
L 209.333547 142.759956 
L 208.272887 143.820616 
z
" clip-path="url(#p0dc1e79d53)" style="fill: #88ccee; fill-opacity: 0.6; stroke: #ffffff; stroke-opacity: 0.6; stroke-width: 0.339411"/>
    <path d="M 218.003756 152.531883 
L 219.064416 151.471223 
L 220.125077 152.531883 
L 221.185737 151.471223 
L 220.125077 150.410562 
L 221.185737 149.349902 
L 220.125077 148.289242 
L 219.064416 149.349902 
L 218.003756 148.289242 
L 216.943096 149.349902 
L 218.003756 150.410562 
L 216.943096 151.471223 
z
" clip-path="url(#p0dc1e79d53)" style="fill: #88ccee; fill-opacity: 0.6; stroke: #ffffff; stroke-opacity: 0.6; stroke-width: 0.339411"/>
    <path d="M 213.846706 148.969844 
L 214.907366 147.909184 
L 215.968026 148.969844 
L 217.028686 147.909184 
L 215.968026 146.848524 
L 217.028686 145.787864 
L 215.968026 144.727203 
L 214.907366 145.787864 
L 213.846706 144.727203 
L 212.786045 145.787864 
L 213.846706 146.848524 
L 212.786045 147.909184 
z
" clip-path="url(#p0dc1e79d53)" style="fill: #88ccee; fill-opacity: 0.6; stroke: #ffffff; stroke-opacity: 0.6; stroke-width: 0.339411"/>
    <path d="M 160.172291 48.847242 
L 161.232951 47.786582 
L 162.293612 48.847242 
L 163.354272 47.786582 
L 162.293612 46.725922 
L 163.354272 45.665262 
L 162.293612 44.604602 
L 161.232951 45.665262 
L 160.172291 44.604602 
L 159.111631 45.665262 
L 160.172291 46.725922 
L 159.111631 47.786582 
z
" clip-path="url(#p0dc1e79d53)" style="fill: #88ccee; fill-opacity: 0.6; stroke: #ffffff; stroke-opacity: 0.6; stroke-width: 0.339411"/>
    <path d="M 147.368724 47.40185 
L 148.429384 46.34119 
L 149.490044 47.40185 
L 150.550704 46.34119 
L 149.490044 45.28053 
L 150.550704 44.21987 
L 149.490044 43.159209 
L 148.429384 44.21987 
L 147.368724 43.159209 
L 146.308064 44.21987 
L 147.368724 45.28053 
L 146.308064 46.34119 
z
" clip-path="url(#p0dc1e79d53)" style="fill: #88ccee; fill-opacity: 0.6; stroke: #ffffff; stroke-opacity: 0.6; stroke-width: 0.339411"/>
    <path d="M 206.431508 153.083085 
L 207.492169 152.022425 
L 208.552829 153.083085 
L 209.613489 152.022425 
L 208.552829 150.961765 
L 209.613489 149.901104 
L 208.552829 148.840444 
L 207.492169 149.901104 
L 206.431508 148.840444 
L 205.370848 149.901104 
L 206.431508 150.961765 
L 205.370848 152.022425 
z
" clip-path="url(#p0dc1e79d53)" style="fill: #88ccee; fill-opacity: 0.6; stroke: #ffffff; stroke-opacity: 0.6; stroke-width: 0.339411"/>
    <path d="M 156.699683 47.814218 
L 157.760343 46.753558 
L 158.821003 47.814218 
L 159.881663 46.753558 
L 158.821003 45.692897 
L 159.881663 44.632237 
L 158.821003 43.571577 
L 157.760343 44.632237 
L 156.699683 43.571577 
L 155.639022 44.632237 
L 156.699683 45.692897 
L 155.639022 46.753558 
z
" clip-path="url(#p0dc1e79d53)" style="fill: #88ccee; fill-opacity: 0.6; stroke: #ffffff; stroke-opacity: 0.6; stroke-width: 0.339411"/>
    <path d="M 147.447149 35.10777 
L 148.507809 34.04711 
L 149.568469 35.10777 
L 150.62913 34.04711 
L 149.568469 32.98645 
L 150.62913 31.92579 
L 149.568469 30.86513 
L 148.507809 31.92579 
L 147.447149 30.86513 
L 146.386489 31.92579 
L 147.447149 32.98645 
L 146.386489 34.04711 
z
" clip-path="url(#p0dc1e79d53)" style="fill: #88ccee; fill-opacity: 0.6; stroke: #ffffff; stroke-opacity: 0.6; stroke-width: 0.339411"/>
    <path d="M 162.403924 138.994667 
L 163.464584 137.934006 
L 164.525245 138.994667 
L 165.585905 137.934006 
L 164.525245 136.873346 
L 165.585905 135.812686 
L 164.525245 134.752026 
L 163.464584 135.812686 
L 162.403924 134.752026 
L 161.343264 135.812686 
L 162.403924 136.873346 
L 161.343264 137.934006 
z
" clip-path="url(#p0dc1e79d53)" style="fill: #88ccee; fill-opacity: 0.6; stroke: #ffffff; stroke-opacity: 0.6; stroke-width: 0.339411"/>
    <path d="M 158.064863 150.430906 
L 159.125523 149.370246 
L 160.186183 150.430906 
L 161.246843 149.370246 
L 160.186183 148.309586 
L 161.246843 147.248926 
L 160.186183 146.188266 
L 159.125523 147.248926 
L 158.064863 146.188266 
L 157.004202 147.248926 
L 158.064863 148.309586 
L 157.004202 149.370246 
z
" clip-path="url(#p0dc1e79d53)" style="fill: #88ccee; fill-opacity: 0.6; stroke: #ffffff; stroke-opacity: 0.6; stroke-width: 0.339411"/>
    <path d="M 140.811227 36.278892 
L 141.871887 35.218232 
L 142.932547 36.278892 
L 143.993207 35.218232 
L 142.932547 34.157572 
L 143.993207 33.096912 
L 142.932547 32.036251 
L 141.871887 33.096912 
L 140.811227 32.036251 
L 139.750567 33.096912 
L 140.811227 34.157572 
L 139.750567 35.218232 
z
" clip-path="url(#p0dc1e79d53)" style="fill: #88ccee; fill-opacity: 0.6; stroke: #ffffff; stroke-opacity: 0.6; stroke-width: 0.339411"/>
    <path d="M 147.479386 39.80741 
L 148.540046 38.74675 
L 149.600706 39.80741 
L 150.661366 38.74675 
L 149.600706 37.68609 
L 150.661366 36.62543 
L 149.600706 35.56477 
L 148.540046 36.62543 
L 147.479386 35.56477 
L 146.418726 36.62543 
L 147.479386 37.68609 
L 146.418726 38.74675 
z
" clip-path="url(#p0dc1e79d53)" style="fill: #88ccee; fill-opacity: 0.6; stroke: #ffffff; stroke-opacity: 0.6; stroke-width: 0.339411"/>
    <path d="M 203.278865 139.845154 
L 204.339525 138.784494 
L 205.400185 139.845154 
L 206.460845 138.784494 
L 205.400185 137.723833 
L 206.460845 136.663173 
L 205.400185 135.602513 
L 204.339525 136.663173 
L 203.278865 135.602513 
L 202.218205 136.663173 
L 203.278865 137.723833 
L 202.218205 138.784494 
z
" clip-path="url(#p0dc1e79d53)" style="fill: #88ccee; fill-opacity: 0.6; stroke: #ffffff; stroke-opacity: 0.6; stroke-width: 0.339411"/>
    <path d="M 152.698969 147.638831 
L 153.759629 146.578171 
L 154.820289 147.638831 
L 155.880949 146.578171 
L 154.820289 145.517511 
L 155.880949 144.456851 
L 154.820289 143.39619 
L 153.759629 144.456851 
L 152.698969 143.39619 
L 151.638309 144.456851 
L 152.698969 145.517511 
L 151.638309 146.578171 
z
" clip-path="url(#p0dc1e79d53)" style="fill: #88ccee; fill-opacity: 0.6; stroke: #ffffff; stroke-opacity: 0.6; stroke-width: 0.339411"/>
    <path d="M 163.68407 147.361919 
L 164.744731 146.301259 
L 165.805391 147.361919 
L 166.866051 146.301259 
L 165.805391 145.240599 
L 166.866051 144.179938 
L 165.805391 143.119278 
L 164.744731 144.179938 
L 163.68407 143.119278 
L 162.62341 144.179938 
L 163.68407 145.240599 
L 162.62341 146.301259 
z
" clip-path="url(#p0dc1e79d53)" style="fill: #88ccee; fill-opacity: 0.6; stroke: #ffffff; stroke-opacity: 0.6; stroke-width: 0.339411"/>
    <path d="M 159.231176 51.168198 
L 160.291836 50.107538 
L 161.352496 51.168198 
L 162.413156 50.107538 
L 161.352496 49.046877 
L 162.413156 47.986217 
L 161.352496 46.925557 
L 160.291836 47.986217 
L 159.231176 46.925557 
L 158.170515 47.986217 
L 159.231176 49.046877 
L 158.170515 50.107538 
z
" clip-path="url(#p0dc1e79d53)" style="fill: #88ccee; fill-opacity: 0.6; stroke: #ffffff; stroke-opacity: 0.6; stroke-width: 0.339411"/>
    <path d="M 213.699212 157.299512 
L 214.759872 156.238852 
L 215.820533 157.299512 
L 216.881193 156.238852 
L 215.820533 155.178191 
L 216.881193 154.117531 
L 215.820533 153.056871 
L 214.759872 154.117531 
L 213.699212 153.056871 
L 212.638552 154.117531 
L 213.699212 155.178191 
L 212.638552 156.238852 
z
" clip-path="url(#p0dc1e79d53)" style="fill: #88ccee; fill-opacity: 0.6; stroke: #ffffff; stroke-opacity: 0.6; stroke-width: 0.339411"/>
    <path d="M 140.222345 114.749417 
L 141.283006 113.688757 
L 142.343666 114.749417 
L 143.404326 113.688757 
L 142.343666 112.628097 
L 143.404326 111.567436 
L 142.343666 110.506776 
L 141.283006 111.567436 
L 140.222345 110.506776 
L 139.161685 111.567436 
L 140.222345 112.628097 
L 139.161685 113.688757 
z
" clip-path="url(#p0dc1e79d53)" style="fill: #88ccee; fill-opacity: 0.6; stroke: #ffffff; stroke-opacity: 0.6; stroke-width: 0.339411"/>
    <path d="M 166.667595 56.145396 
L 167.728256 55.084736 
L 168.788916 56.145396 
L 169.849576 55.084736 
L 168.788916 54.024076 
L 169.849576 52.963416 
L 168.788916 51.902756 
L 167.728256 52.963416 
L 166.667595 51.902756 
L 165.606935 52.963416 
L 166.667595 54.024076 
L 165.606935 55.084736 
z
" clip-path="url(#p0dc1e79d53)" style="fill: #88ccee; fill-opacity: 0.6; stroke: #ffffff; stroke-opacity: 0.6; stroke-width: 0.339411"/>
    <path d="M 144.956691 35.252963 
L 146.017352 34.192303 
L 147.078012 35.252963 
L 148.138672 34.192303 
L 147.078012 33.131643 
L 148.138672 32.070983 
L 147.078012 31.010323 
L 146.017352 32.070983 
L 144.956691 31.010323 
L 143.896031 32.070983 
L 144.956691 33.131643 
L 143.896031 34.192303 
z
" clip-path="url(#p0dc1e79d53)" style="fill: #88ccee; fill-opacity: 0.6; stroke: #ffffff; stroke-opacity: 0.6; stroke-width: 0.339411"/>
    <path d="M 137.853545 38.038544 
L 138.914205 36.977884 
L 139.974865 38.038544 
L 141.035525 36.977884 
L 139.974865 35.917224 
L 141.035525 34.856563 
L 139.974865 33.795903 
L 138.914205 34.856563 
L 137.853545 33.795903 
L 136.792885 34.856563 
L 137.853545 35.917224 
L 136.792885 36.977884 
z
" clip-path="url(#p0dc1e79d53)" style="fill: #88ccee; fill-opacity: 0.6; stroke: #ffffff; stroke-opacity: 0.6; stroke-width: 0.339411"/>
    <path d="M 143.742936 47.424632 
L 144.803596 46.363972 
L 145.864256 47.424632 
L 146.924916 46.363972 
L 145.864256 45.303312 
L 146.924916 44.242652 
L 145.864256 43.181992 
L 144.803596 44.242652 
L 143.742936 43.181992 
L 142.682276 44.242652 
L 143.742936 45.303312 
L 142.682276 46.363972 
z
" clip-path="url(#p0dc1e79d53)" style="fill: #88ccee; fill-opacity: 0.6; stroke: #ffffff; stroke-opacity: 0.6; stroke-width: 0.339411"/>
    <path d="M 219.290738 160.917239 
L 220.351399 159.856579 
L 221.412059 160.917239 
L 222.472719 159.856579 
L 221.412059 158.795918 
L 222.472719 157.735258 
L 221.412059 156.674598 
L 220.351399 157.735258 
L 219.290738 156.674598 
L 218.230078 157.735258 
L 219.290738 158.795918 
L 218.230078 159.856579 
z
" clip-path="url(#p0dc1e79d53)" style="fill: #88ccee; fill-opacity: 0.6; stroke: #ffffff; stroke-opacity: 0.6; stroke-width: 0.339411"/>
    <path d="M 215.801196 160.127076 
L 216.861856 159.066416 
L 217.922516 160.127076 
L 218.983176 159.066416 
L 217.922516 158.005756 
L 218.983176 156.945096 
L 217.922516 155.884436 
L 216.861856 156.945096 
L 215.801196 155.884436 
L 214.740536 156.945096 
L 215.801196 158.005756 
L 214.740536 159.066416 
z
" clip-path="url(#p0dc1e79d53)" style="fill: #88ccee; fill-opacity: 0.6; stroke: #ffffff; stroke-opacity: 0.6; stroke-width: 0.339411"/>
    <path d="M 176.062716 146.674663 
L 177.123376 145.614003 
L 178.184036 146.674663 
L 179.244697 145.614003 
L 178.184036 144.553343 
L 179.244697 143.492683 
L 178.184036 142.432023 
L 177.123376 143.492683 
L 176.062716 142.432023 
L 175.002056 143.492683 
L 176.062716 144.553343 
L 175.002056 145.614003 
z
" clip-path="url(#p0dc1e79d53)" style="fill: #88ccee; fill-opacity: 0.6; stroke: #ffffff; stroke-opacity: 0.6; stroke-width: 0.339411"/>
    <path d="M 177.392573 150.228612 
L 178.453233 149.167952 
L 179.513893 150.228612 
L 180.574553 149.167952 
L 179.513893 148.107291 
L 180.574553 147.046631 
L 179.513893 145.985971 
L 178.453233 147.046631 
L 177.392573 145.985971 
L 176.331912 147.046631 
L 177.392573 148.107291 
L 176.331912 149.167952 
z
" clip-path="url(#p0dc1e79d53)" style="fill: #88ccee; fill-opacity: 0.6; stroke: #ffffff; stroke-opacity: 0.6; stroke-width: 0.339411"/>
   </g>
   <g id="matplotlib.axis_1">
    <g id="xtick_1">
     <g id="line2d_1">
      <defs>
       <path id="m26d63b1783" d="M 0 0 
L 0 8 
" style="stroke: #000000"/>
      </defs>
      <g>
       <use xlink:href="#m26d63b1783" x="181.925763" y="192.727559" style="stroke: #000000"/>
      </g>
     </g>
     <g id="text_1">
      <!-- 10 -->
      <g transform="translate(174.290763 213.345684) scale(0.12 -0.12)">
       <defs>
        <path id="DejaVuSans-31" d="M 794 531 
L 1825 531 
L 1825 4091 
L 703 3866 
L 703 4441 
L 1819 4666 
L 2450 4666 
L 2450 531 
L 3481 531 
L 3481 0 
L 794 0 
L 794 531 
z
" transform="scale(0.015625)"/>
        <path id="DejaVuSans-30" d="M 2034 4250 
Q 1547 4250 1301 3770 
Q 1056 3291 1056 2328 
Q 1056 1369 1301 889 
Q 1547 409 2034 409 
Q 2525 409 2770 889 
Q 3016 1369 3016 2328 
Q 3016 3291 2770 3770 
Q 2525 4250 2034 4250 
z
M 2034 4750 
Q 2819 4750 3233 4129 
Q 3647 3509 3647 2328 
Q 3647 1150 3233 529 
Q 2819 -91 2034 -91 
Q 1250 -91 836 529 
Q 422 1150 422 2328 
Q 422 3509 836 4129 
Q 1250 4750 2034 4750 
z
" transform="scale(0.015625)"/>
       </defs>
       <use xlink:href="#DejaVuSans-31"/>
       <use xlink:href="#DejaVuSans-30" x="63.623047"/>
      </g>
     </g>
    </g>
    <g id="text_2">
     <!-- UMAP 1 -->
     <g transform="translate(119.332842 228.959434) scale(0.12 -0.12)">
      <defs>
       <path id="DejaVuSans-55" d="M 556 4666 
L 1191 4666 
L 1191 1831 
Q 1191 1081 1462 751 
Q 1734 422 2344 422 
Q 2950 422 3222 751 
Q 3494 1081 3494 1831 
L 3494 4666 
L 4128 4666 
L 4128 1753 
Q 4128 841 3676 375 
Q 3225 -91 2344 -91 
Q 1459 -91 1007 375 
Q 556 841 556 1753 
L 556 4666 
z
" transform="scale(0.015625)"/>
       <path id="DejaVuSans-4d" d="M 628 4666 
L 1569 4666 
L 2759 1491 
L 3956 4666 
L 4897 4666 
L 4897 0 
L 4281 0 
L 4281 4097 
L 3078 897 
L 2444 897 
L 1241 4097 
L 1241 0 
L 628 0 
L 628 4666 
z
" transform="scale(0.015625)"/>
       <path id="DejaVuSans-41" d="M 2188 4044 
L 1331 1722 
L 3047 1722 
L 2188 4044 
z
M 1831 4666 
L 2547 4666 
L 4325 0 
L 3669 0 
L 3244 1197 
L 1141 1197 
L 716 0 
L 50 0 
L 1831 4666 
z
" transform="scale(0.015625)"/>
       <path id="DejaVuSans-50" d="M 1259 4147 
L 1259 2394 
L 2053 2394 
Q 2494 2394 2734 2622 
Q 2975 2850 2975 3272 
Q 2975 3691 2734 3919 
Q 2494 4147 2053 4147 
L 1259 4147 
z
M 628 4666 
L 2053 4666 
Q 2838 4666 3239 4311 
Q 3641 3956 3641 3272 
Q 3641 2581 3239 2228 
Q 2838 1875 2053 1875 
L 1259 1875 
L 1259 0 
L 628 0 
L 628 4666 
z
" transform="scale(0.015625)"/>
       <path id="DejaVuSans-20" transform="scale(0.015625)"/>
      </defs>
      <use xlink:href="#DejaVuSans-55"/>
      <use xlink:href="#DejaVuSans-4d" x="73.193359"/>
      <use xlink:href="#DejaVuSans-41" x="159.472656"/>
      <use xlink:href="#DejaVuSans-50" x="227.880859"/>
      <use xlink:href="#DejaVuSans-20" x="288.183594"/>
      <use xlink:href="#DejaVuSans-31" x="319.970703"/>
     </g>
    </g>
   </g>
   <g id="matplotlib.axis_2">
    <g id="ytick_1">
     <g id="line2d_2">
      <defs>
       <path id="mb41bab6986" d="M 0 0 
L -8 0 
" style="stroke: #000000"/>
      </defs>
      <g>
       <use xlink:href="#mb41bab6986" x="49.58375" y="60.385546" style="stroke: #000000"/>
      </g>
     </g>
     <g id="text_3">
      <!-- 10 -->
      <g transform="translate(22.81375 64.944608) scale(0.12 -0.12)">
       <use xlink:href="#DejaVuSans-31"/>
       <use xlink:href="#DejaVuSans-30" x="63.623047"/>
      </g>
     </g>
    </g>
    <g id="text_4">
     <!-- UMAP 2 -->
     <g transform="translate(16.318125 122.978467) rotate(-90) scale(0.12 -0.12)">
      <defs>
       <path id="DejaVuSans-32" d="M 1228 531 
L 3431 531 
L 3431 0 
L 469 0 
L 469 531 
Q 828 903 1448 1529 
Q 2069 2156 2228 2338 
Q 2531 2678 2651 2914 
Q 2772 3150 2772 3378 
Q 2772 3750 2511 3984 
Q 2250 4219 1831 4219 
Q 1534 4219 1204 4116 
Q 875 4013 500 3803 
L 500 4441 
Q 881 4594 1212 4672 
Q 1544 4750 1819 4750 
Q 2544 4750 2975 4387 
Q 3406 4025 3406 3419 
Q 3406 3131 3298 2873 
Q 3191 2616 2906 2266 
Q 2828 2175 2409 1742 
Q 1991 1309 1228 531 
z
" transform="scale(0.015625)"/>
      </defs>
      <use xlink:href="#DejaVuSans-55"/>
      <use xlink:href="#DejaVuSans-4d" x="73.193359"/>
      <use xlink:href="#DejaVuSans-41" x="159.472656"/>
      <use xlink:href="#DejaVuSans-50" x="227.880859"/>
      <use xlink:href="#DejaVuSans-20" x="288.183594"/>
      <use xlink:href="#DejaVuSans-32" x="319.970703"/>
     </g>
    </g>
   </g>
   <g id="patch_3">
    <path d="M 49.58375 192.727559 
L 49.58375 7.2 
" style="fill: none; stroke: #000000; stroke-width: 2; stroke-linejoin: miter; stroke-linecap: square"/>
   </g>
   <g id="patch_4">
    <path d="M 49.58375 192.727559 
L 235.111309 192.727559 
" style="fill: none; stroke: #000000; stroke-width: 2; stroke-linejoin: miter; stroke-linecap: square"/>
   </g>
  </g>
 </g>
 <defs>
  <clipPath id="p0dc1e79d53">
   <rect x="49.58375" y="7.2" width="185.527559" height="185.527559"/>
  </clipPath>
 </defs>
</svg>
