<?xml version="1.0" encoding="utf-8" standalone="no"?>
<!DOCTYPE svg PUBLIC "-//W3C//DTD SVG 1.1//EN"
  "http://www.w3.org/Graphics/SVG/1.1/DTD/svg11.dtd">
<svg xmlns:xlink="http://www.w3.org/1999/xlink" width="252.366934pt" height="238.655059pt" viewBox="0 0 252.366934 238.655059" xmlns="http://www.w3.org/2000/svg" version="1.1">
 <metadata>
  <rdf:RDF xmlns:dc="http://purl.org/dc/elements/1.1/" xmlns:cc="http://creativecommons.org/ns#" xmlns:rdf="http://www.w3.org/1999/02/22-rdf-syntax-ns#">
   <cc:Work>
    <dc:type rdf:resource="http://purl.org/dc/dcmitype/StillImage"/>
    <dc:date>2025-08-27T15:08:28.104915</dc:date>
    <dc:format>image/svg+xml</dc:format>
    <dc:creator>
     <cc:Agent>
      <dc:title>Matplotlib v3.6.2, https://matplotlib.org/</dc:title>
     </cc:Agent>
    </dc:creator>
   </cc:Work>
  </rdf:RDF>
 </metadata>
 <defs>
  <style type="text/css">*{stroke-linejoin: round; stroke-linecap: butt}</style>
 </defs>
 <g id="figure_1">
  <g id="patch_1">
   <path d="M 0 238.655059 
L 252.366934 238.655059 
L 252.366934 0 
L 0 0 
L 0 238.655059 
z
" style="fill: none"/>
  </g>
  <g id="axes_1">
   <g id="patch_2">
    <path d="M 59.639375 192.727559 
L 245.166934 192.727559 
L 245.166934 7.2 
L 59.639375 7.2 
L 59.639375 192.727559 
z
" style="fill: none"/>
   </g>
   <g id="PathCollection_1">
    <path d="M 79.147766 71.588323 
L 80.947766 68.588323 
L 79.147766 65.588323 
L 77.347766 68.588323 
z
" clip-path="url(#p3962b93d11)" style="fill: #332288; fill-opacity: 0.6; stroke: #ffffff; stroke-opacity: 0.6; stroke-width: 0.339411"/>
    <path d="M 76.066603 71.600991 
L 77.866603 68.600991 
L 76.066603 65.600991 
L 74.266603 68.600991 
z
" clip-path="url(#p3962b93d11)" style="fill: #332288; fill-opacity: 0.6; stroke: #ffffff; stroke-opacity: 0.6; stroke-width: 0.339411"/>
    <path d="M 77.353538 72.442866 
L 79.153538 69.442866 
L 77.353538 66.442866 
L 75.553538 69.442866 
z
" clip-path="url(#p3962b93d11)" style="fill: #332288; fill-opacity: 0.6; stroke: #ffffff; stroke-opacity: 0.6; stroke-width: 0.339411"/>
    <path d="M 130.309498 62.090074 
L 132.109498 59.090074 
L 130.309498 56.090074 
L 128.509498 59.090074 
z
" clip-path="url(#p3962b93d11)" style="fill: #332288; fill-opacity: 0.6; stroke: #ffffff; stroke-opacity: 0.6; stroke-width: 0.339411"/>
    <path d="M 129.791945 57.559887 
L 131.591945 54.559887 
L 129.791945 51.559887 
L 127.991945 54.559887 
z
" clip-path="url(#p3962b93d11)" style="fill: #332288; fill-opacity: 0.6; stroke: #ffffff; stroke-opacity: 0.6; stroke-width: 0.339411"/>
    <path d="M 201.410046 57.501824 
L 203.210046 54.501824 
L 201.410046 51.501824 
L 199.610046 54.501824 
z
" clip-path="url(#p3962b93d11)" style="fill: #332288; fill-opacity: 0.6; stroke: #ffffff; stroke-opacity: 0.6; stroke-width: 0.339411"/>
    <path d="M 186.711216 60.667662 
L 188.511216 57.667662 
L 186.711216 54.667662 
L 184.911216 57.667662 
z
" clip-path="url(#p3962b93d11)" style="fill: #332288; fill-opacity: 0.6; stroke: #ffffff; stroke-opacity: 0.6; stroke-width: 0.339411"/>
    <path d="M 74.624932 70.625954 
L 76.424932 67.625954 
L 74.624932 64.625954 
L 72.824932 67.625954 
z
" clip-path="url(#p3962b93d11)" style="fill: #332288; fill-opacity: 0.6; stroke: #ffffff; stroke-opacity: 0.6; stroke-width: 0.339411"/>
    <path d="M 74.427306 67.392782 
L 76.227306 64.392782 
L 74.427306 61.392782 
L 72.627306 64.392782 
z
" clip-path="url(#p3962b93d11)" style="fill: #332288; fill-opacity: 0.6; stroke: #ffffff; stroke-opacity: 0.6; stroke-width: 0.339411"/>
    <path d="M 184.082241 77.041485 
L 185.882241 74.041485 
L 184.082241 71.041485 
L 182.282241 74.041485 
z
" clip-path="url(#p3962b93d11)" style="fill: #332288; fill-opacity: 0.6; stroke: #ffffff; stroke-opacity: 0.6; stroke-width: 0.339411"/>
    <path d="M 74.452306 68.226745 
L 76.252306 65.226745 
L 74.452306 62.226745 
L 72.652306 65.226745 
z
" clip-path="url(#p3962b93d11)" style="fill: #332288; fill-opacity: 0.6; stroke: #ffffff; stroke-opacity: 0.6; stroke-width: 0.339411"/>
    <path d="M 78.975395 67.026616 
L 80.775395 64.026616 
L 78.975395 61.026616 
L 77.175395 64.026616 
z
" clip-path="url(#p3962b93d11)" style="fill: #332288; fill-opacity: 0.6; stroke: #ffffff; stroke-opacity: 0.6; stroke-width: 0.339411"/>
    <path d="M 77.602915 72.9054 
L 79.402915 69.9054 
L 77.602915 66.9054 
L 75.802915 69.9054 
z
" clip-path="url(#p3962b93d11)" style="fill: #332288; fill-opacity: 0.6; stroke: #ffffff; stroke-opacity: 0.6; stroke-width: 0.339411"/>
    <path d="M 129.500982 61.749589 
L 131.300982 58.749589 
L 129.500982 55.749589 
L 127.700982 58.749589 
z
" clip-path="url(#p3962b93d11)" style="fill: #332288; fill-opacity: 0.6; stroke: #ffffff; stroke-opacity: 0.6; stroke-width: 0.339411"/>
    <path d="M 199.355633 71.470999 
L 201.155633 68.470999 
L 199.355633 65.470999 
L 197.555633 68.470999 
z
" clip-path="url(#p3962b93d11)" style="fill: #332288; fill-opacity: 0.6; stroke: #ffffff; stroke-opacity: 0.6; stroke-width: 0.339411"/>
    <path d="M 201.816713 59.050848 
L 203.616713 56.050848 
L 201.816713 53.050848 
L 200.016713 56.050848 
z
" clip-path="url(#p3962b93d11)" style="fill: #332288; fill-opacity: 0.6; stroke: #ffffff; stroke-opacity: 0.6; stroke-width: 0.339411"/>
    <path d="M 76.967239 68.148678 
L 78.767239 65.148678 
L 76.967239 62.148678 
L 75.167239 65.148678 
z
" clip-path="url(#p3962b93d11)" style="fill: #332288; fill-opacity: 0.6; stroke: #ffffff; stroke-opacity: 0.6; stroke-width: 0.339411"/>
    <path d="M 174.112303 113.012586 
L 175.912303 110.012586 
L 174.112303 107.012586 
L 172.312303 110.012586 
z
" clip-path="url(#p3962b93d11)" style="fill: #332288; fill-opacity: 0.6; stroke: #ffffff; stroke-opacity: 0.6; stroke-width: 0.339411"/>
    <path d="M 84.168078 75.155298 
L 85.968078 72.155298 
L 84.168078 69.155298 
L 82.368078 72.155298 
z
" clip-path="url(#p3962b93d11)" style="fill: #332288; fill-opacity: 0.6; stroke: #ffffff; stroke-opacity: 0.6; stroke-width: 0.339411"/>
    <path d="M 202.06235 60.2603 
L 203.86235 57.2603 
L 202.06235 54.2603 
L 200.26235 57.2603 
z
" clip-path="url(#p3962b93d11)" style="fill: #332288; fill-opacity: 0.6; stroke: #ffffff; stroke-opacity: 0.6; stroke-width: 0.339411"/>
    <path d="M 173.684085 112.471014 
L 175.484085 109.471014 
L 173.684085 106.471014 
L 171.884085 109.471014 
z
" clip-path="url(#p3962b93d11)" style="fill: #332288; fill-opacity: 0.6; stroke: #ffffff; stroke-opacity: 0.6; stroke-width: 0.339411"/>
    <path d="M 79.635152 70.309136 
L 81.435152 67.309136 
L 79.635152 64.309136 
L 77.835152 67.309136 
z
" clip-path="url(#p3962b93d11)" style="fill: #332288; fill-opacity: 0.6; stroke: #ffffff; stroke-opacity: 0.6; stroke-width: 0.339411"/>
    <path d="M 79.02225 67.958574 
L 80.82225 64.958574 
L 79.02225 61.958574 
L 77.22225 64.958574 
z
" clip-path="url(#p3962b93d11)" style="fill: #332288; fill-opacity: 0.6; stroke: #ffffff; stroke-opacity: 0.6; stroke-width: 0.339411"/>
    <path d="M 77.275448 72.918416 
L 79.075448 69.918416 
L 77.275448 66.918416 
L 75.475448 69.918416 
z
" clip-path="url(#p3962b93d11)" style="fill: #332288; fill-opacity: 0.6; stroke: #ffffff; stroke-opacity: 0.6; stroke-width: 0.339411"/>
    <path d="M 80.277605 72.116907 
L 82.077605 69.116907 
L 80.277605 66.116907 
L 78.477605 69.116907 
z
" clip-path="url(#p3962b93d11)" style="fill: #332288; fill-opacity: 0.6; stroke: #ffffff; stroke-opacity: 0.6; stroke-width: 0.339411"/>
    <path d="M 77.940688 68.746726 
L 79.740688 65.746726 
L 77.940688 62.746726 
L 76.140688 65.746726 
z
" clip-path="url(#p3962b93d11)" style="fill: #332288; fill-opacity: 0.6; stroke: #ffffff; stroke-opacity: 0.6; stroke-width: 0.339411"/>
    <path d="M 77.210666 68.805797 
L 79.010666 65.805797 
L 77.210666 62.805797 
L 75.410666 65.805797 
z
" clip-path="url(#p3962b93d11)" style="fill: #332288; fill-opacity: 0.6; stroke: #ffffff; stroke-opacity: 0.6; stroke-width: 0.339411"/>
    <path d="M 75.330236 69.21124 
L 77.130236 66.21124 
L 75.330236 63.21124 
L 73.530236 66.21124 
z
" clip-path="url(#p3962b93d11)" style="fill: #332288; fill-opacity: 0.6; stroke: #ffffff; stroke-opacity: 0.6; stroke-width: 0.339411"/>
    <path d="M 75.869752 69.261936 
L 77.669752 66.261936 
L 75.869752 63.261936 
L 74.069752 66.261936 
z
" clip-path="url(#p3962b93d11)" style="fill: #332288; fill-opacity: 0.6; stroke: #ffffff; stroke-opacity: 0.6; stroke-width: 0.339411"/>
    <path d="M 82.762076 66.586685 
L 84.562076 63.586685 
L 82.762076 60.586685 
L 80.962076 63.586685 
z
" clip-path="url(#p3962b93d11)" style="fill: #332288; fill-opacity: 0.6; stroke: #ffffff; stroke-opacity: 0.6; stroke-width: 0.339411"/>
    <path d="M 75.87874 69.599083 
L 77.67874 66.599083 
L 75.87874 63.599083 
L 74.07874 66.599083 
z
" clip-path="url(#p3962b93d11)" style="fill: #332288; fill-opacity: 0.6; stroke: #ffffff; stroke-opacity: 0.6; stroke-width: 0.339411"/>
    <path d="M 191.971522 72.011343 
L 193.771522 69.011343 
L 191.971522 66.011343 
L 190.171522 69.011343 
z
" clip-path="url(#p3962b93d11)" style="fill: #332288; fill-opacity: 0.6; stroke: #ffffff; stroke-opacity: 0.6; stroke-width: 0.339411"/>
    <path d="M 74.378844 67.920043 
L 76.178844 64.920043 
L 74.378844 61.920043 
L 72.578844 64.920043 
z
" clip-path="url(#p3962b93d11)" style="fill: #332288; fill-opacity: 0.6; stroke: #ffffff; stroke-opacity: 0.6; stroke-width: 0.339411"/>
    <path d="M 78.287208 70.255757 
L 80.087208 67.255757 
L 78.287208 64.255757 
L 76.487208 67.255757 
z
" clip-path="url(#p3962b93d11)" style="fill: #332288; fill-opacity: 0.6; stroke: #ffffff; stroke-opacity: 0.6; stroke-width: 0.339411"/>
    <path d="M 77.939842 72.695239 
L 79.739842 69.695239 
L 77.939842 66.695239 
L 76.139842 69.695239 
z
" clip-path="url(#p3962b93d11)" style="fill: #332288; fill-opacity: 0.6; stroke: #ffffff; stroke-opacity: 0.6; stroke-width: 0.339411"/>
    <path d="M 75.06681 71.772337 
L 76.86681 68.772337 
L 75.06681 65.772337 
L 73.26681 68.772337 
z
" clip-path="url(#p3962b93d11)" style="fill: #332288; fill-opacity: 0.6; stroke: #ffffff; stroke-opacity: 0.6; stroke-width: 0.339411"/>
    <path d="M 82.560574 65.969069 
L 84.360574 62.969069 
L 82.560574 59.969069 
L 80.760574 62.969069 
z
" clip-path="url(#p3962b93d11)" style="fill: #332288; fill-opacity: 0.6; stroke: #ffffff; stroke-opacity: 0.6; stroke-width: 0.339411"/>
    <path d="M 73.953465 70.678481 
L 75.753465 67.678481 
L 73.953465 64.678481 
L 72.153465 67.678481 
z
" clip-path="url(#p3962b93d11)" style="fill: #332288; fill-opacity: 0.6; stroke: #ffffff; stroke-opacity: 0.6; stroke-width: 0.339411"/>
    <path d="M 78.22273 68.489571 
L 80.02273 65.489571 
L 78.22273 62.489571 
L 76.42273 65.489571 
z
" clip-path="url(#p3962b93d11)" style="fill: #332288; fill-opacity: 0.6; stroke: #ffffff; stroke-opacity: 0.6; stroke-width: 0.339411"/>
    <path d="M 79.81817 71.582778 
L 81.61817 68.582778 
L 79.81817 65.582778 
L 78.01817 68.582778 
z
" clip-path="url(#p3962b93d11)" style="fill: #332288; fill-opacity: 0.6; stroke: #ffffff; stroke-opacity: 0.6; stroke-width: 0.339411"/>
    <path d="M 77.391492 72.176881 
L 79.191492 69.176881 
L 77.391492 66.176881 
L 75.591492 69.176881 
z
" clip-path="url(#p3962b93d11)" style="fill: #332288; fill-opacity: 0.6; stroke: #ffffff; stroke-opacity: 0.6; stroke-width: 0.339411"/>
    <path d="M 177.651999 80.033753 
L 179.451999 77.033753 
L 177.651999 74.033753 
L 175.851999 77.033753 
z
" clip-path="url(#p3962b93d11)" style="fill: #332288; fill-opacity: 0.6; stroke: #ffffff; stroke-opacity: 0.6; stroke-width: 0.339411"/>
    <path d="M 169.900537 102.305548 
L 171.700537 99.305548 
L 169.900537 96.305548 
L 168.100537 99.305548 
z
" clip-path="url(#p3962b93d11)" style="fill: #332288; fill-opacity: 0.6; stroke: #ffffff; stroke-opacity: 0.6; stroke-width: 0.339411"/>
    <path d="M 76.382834 68.5269 
L 78.182834 65.5269 
L 76.382834 62.5269 
L 74.582834 65.5269 
z
" clip-path="url(#p3962b93d11)" style="fill: #332288; fill-opacity: 0.6; stroke: #ffffff; stroke-opacity: 0.6; stroke-width: 0.339411"/>
    <path d="M 170.291568 108.108345 
L 172.091568 105.108345 
L 170.291568 102.108345 
L 168.491568 105.108345 
z
" clip-path="url(#p3962b93d11)" style="fill: #332288; fill-opacity: 0.6; stroke: #ffffff; stroke-opacity: 0.6; stroke-width: 0.339411"/>
    <path d="M 77.48432 71.65504 
L 79.28432 68.65504 
L 77.48432 65.65504 
L 75.68432 68.65504 
z
" clip-path="url(#p3962b93d11)" style="fill: #332288; fill-opacity: 0.6; stroke: #ffffff; stroke-opacity: 0.6; stroke-width: 0.339411"/>
    <path d="M 74.141065 64.073665 
L 75.941065 61.073665 
L 74.141065 58.073665 
L 72.341065 61.073665 
z
" clip-path="url(#p3962b93d11)" style="fill: #332288; fill-opacity: 0.6; stroke: #ffffff; stroke-opacity: 0.6; stroke-width: 0.339411"/>
    <path d="M 77.260138 69.45461 
L 79.060138 66.45461 
L 77.260138 63.45461 
L 75.460138 66.45461 
z
" clip-path="url(#p3962b93d11)" style="fill: #332288; fill-opacity: 0.6; stroke: #ffffff; stroke-opacity: 0.6; stroke-width: 0.339411"/>
    <path d="M 76.884036 67.708368 
L 78.684036 64.708368 
L 76.884036 61.708368 
L 75.084036 64.708368 
z
" clip-path="url(#p3962b93d11)" style="fill: #332288; fill-opacity: 0.6; stroke: #ffffff; stroke-opacity: 0.6; stroke-width: 0.339411"/>
    <path d="M 133.432372 64.774887 
L 135.232372 61.774887 
L 133.432372 58.774887 
L 131.632372 61.774887 
z
" clip-path="url(#p3962b93d11)" style="fill: #332288; fill-opacity: 0.6; stroke: #ffffff; stroke-opacity: 0.6; stroke-width: 0.339411"/>
    <path d="M 169.314751 112.722849 
L 171.114751 109.722849 
L 169.314751 106.722849 
L 167.514751 109.722849 
z
" clip-path="url(#p3962b93d11)" style="fill: #332288; fill-opacity: 0.6; stroke: #ffffff; stroke-opacity: 0.6; stroke-width: 0.339411"/>
    <path d="M 191.753196 59.618067 
L 193.553196 56.618067 
L 191.753196 53.618067 
L 189.953196 56.618067 
z
" clip-path="url(#p3962b93d11)" style="fill: #332288; fill-opacity: 0.6; stroke: #ffffff; stroke-opacity: 0.6; stroke-width: 0.339411"/>
    <path d="M 74.608949 70.408961 
L 76.408949 67.408961 
L 74.608949 64.408961 
L 72.808949 67.408961 
z
" clip-path="url(#p3962b93d11)" style="fill: #332288; fill-opacity: 0.6; stroke: #ffffff; stroke-opacity: 0.6; stroke-width: 0.339411"/>
    <path d="M 73.023303 69.581873 
L 74.823303 66.581873 
L 73.023303 63.581873 
L 71.223303 66.581873 
z
" clip-path="url(#p3962b93d11)" style="fill: #332288; fill-opacity: 0.6; stroke: #ffffff; stroke-opacity: 0.6; stroke-width: 0.339411"/>
    <path d="M 75.312127 67.779765 
L 77.112127 64.779765 
L 75.312127 61.779765 
L 73.512127 64.779765 
z
" clip-path="url(#p3962b93d11)" style="fill: #332288; fill-opacity: 0.6; stroke: #ffffff; stroke-opacity: 0.6; stroke-width: 0.339411"/>
    <path d="M 77.421086 73.873689 
L 79.221086 70.873689 
L 77.421086 67.873689 
L 75.621086 70.873689 
z
" clip-path="url(#p3962b93d11)" style="fill: #332288; fill-opacity: 0.6; stroke: #ffffff; stroke-opacity: 0.6; stroke-width: 0.339411"/>
    <path d="M 174.439234 61.764514 
L 176.239234 58.764514 
L 174.439234 55.764514 
L 172.639234 58.764514 
z
" clip-path="url(#p3962b93d11)" style="fill: #332288; fill-opacity: 0.6; stroke: #ffffff; stroke-opacity: 0.6; stroke-width: 0.339411"/>
    <path d="M 77.74567 73.692639 
L 79.54567 70.692639 
L 77.74567 67.692639 
L 75.94567 70.692639 
z
" clip-path="url(#p3962b93d11)" style="fill: #332288; fill-opacity: 0.6; stroke: #ffffff; stroke-opacity: 0.6; stroke-width: 0.339411"/>
    <path d="M 78.165627 69.859506 
L 79.965627 66.859506 
L 78.165627 63.859506 
L 76.365627 66.859506 
z
" clip-path="url(#p3962b93d11)" style="fill: #332288; fill-opacity: 0.6; stroke: #ffffff; stroke-opacity: 0.6; stroke-width: 0.339411"/>
    <path d="M 75.238116 68.055201 
L 77.038116 65.055201 
L 75.238116 62.055201 
L 73.438116 65.055201 
z
" clip-path="url(#p3962b93d11)" style="fill: #332288; fill-opacity: 0.6; stroke: #ffffff; stroke-opacity: 0.6; stroke-width: 0.339411"/>
    <path d="M 72.784331 69.58805 
L 74.584331 66.58805 
L 72.784331 63.58805 
L 70.984331 66.58805 
z
" clip-path="url(#p3962b93d11)" style="fill: #332288; fill-opacity: 0.6; stroke: #ffffff; stroke-opacity: 0.6; stroke-width: 0.339411"/>
    <path d="M 123.98598 55.704309 
L 125.78598 52.704309 
L 123.98598 49.704309 
L 122.18598 52.704309 
z
" clip-path="url(#p3962b93d11)" style="fill: #332288; fill-opacity: 0.6; stroke: #ffffff; stroke-opacity: 0.6; stroke-width: 0.339411"/>
    <path d="M 85.094101 69.322497 
L 86.894101 66.322497 
L 85.094101 63.322497 
L 83.294101 66.322497 
z
" clip-path="url(#p3962b93d11)" style="fill: #332288; fill-opacity: 0.6; stroke: #ffffff; stroke-opacity: 0.6; stroke-width: 0.339411"/>
    <path d="M 77.628325 70.810731 
L 79.428325 67.810731 
L 77.628325 64.810731 
L 75.828325 67.810731 
z
" clip-path="url(#p3962b93d11)" style="fill: #332288; fill-opacity: 0.6; stroke: #ffffff; stroke-opacity: 0.6; stroke-width: 0.339411"/>
    <path d="M 166.595475 153.120765 
L 164.474155 157.363405 
L 168.716796 157.363405 
z
" clip-path="url(#p3962b93d11)" style="fill: #117733; fill-opacity: 0.6; stroke: #ffffff; stroke-opacity: 0.6; stroke-width: 0.339411"/>
    <path d="M 202.437453 84.645346 
L 200.316132 88.887987 
L 204.558773 88.887987 
z
" clip-path="url(#p3962b93d11)" style="fill: #117733; fill-opacity: 0.6; stroke: #ffffff; stroke-opacity: 0.6; stroke-width: 0.339411"/>
    <path d="M 212.110816 76.311935 
L 209.989496 80.554576 
L 214.232137 80.554576 
z
" clip-path="url(#p3962b93d11)" style="fill: #117733; fill-opacity: 0.6; stroke: #ffffff; stroke-opacity: 0.6; stroke-width: 0.339411"/>
    <path d="M 162.261042 145.315342 
L 160.139722 149.557982 
L 164.382362 149.557982 
z
" clip-path="url(#p3962b93d11)" style="fill: #117733; fill-opacity: 0.6; stroke: #ffffff; stroke-opacity: 0.6; stroke-width: 0.339411"/>
    <path d="M 207.380512 87.89384 
L 205.259191 92.13648 
L 209.501832 92.13648 
z
" clip-path="url(#p3962b93d11)" style="fill: #117733; fill-opacity: 0.6; stroke: #ffffff; stroke-opacity: 0.6; stroke-width: 0.339411"/>
    <path d="M 165.372192 143.389721 
L 163.250872 147.632362 
L 167.493513 147.632362 
z
" clip-path="url(#p3962b93d11)" style="fill: #117733; fill-opacity: 0.6; stroke: #ffffff; stroke-opacity: 0.6; stroke-width: 0.339411"/>
    <path d="M 163.589468 151.470296 
L 161.468148 155.712937 
L 165.710789 155.712937 
z
" clip-path="url(#p3962b93d11)" style="fill: #117733; fill-opacity: 0.6; stroke: #ffffff; stroke-opacity: 0.6; stroke-width: 0.339411"/>
    <path d="M 165.974583 136.498458 
L 163.853263 140.741098 
L 168.095904 140.741098 
z
" clip-path="url(#p3962b93d11)" style="fill: #117733; fill-opacity: 0.6; stroke: #ffffff; stroke-opacity: 0.6; stroke-width: 0.339411"/>
    <path d="M 201.283644 86.121937 
L 199.162324 90.364577 
L 203.404965 90.364577 
z
" clip-path="url(#p3962b93d11)" style="fill: #117733; fill-opacity: 0.6; stroke: #ffffff; stroke-opacity: 0.6; stroke-width: 0.339411"/>
    <path d="M 198.320814 30.768718 
L 196.199494 35.011359 
L 200.442135 35.011359 
z
" clip-path="url(#p3962b93d11)" style="fill: #117733; fill-opacity: 0.6; stroke: #ffffff; stroke-opacity: 0.6; stroke-width: 0.339411"/>
    <path d="M 164.901005 133.674239 
L 162.779684 137.91688 
L 167.022325 137.91688 
z
" clip-path="url(#p3962b93d11)" style="fill: #117733; fill-opacity: 0.6; stroke: #ffffff; stroke-opacity: 0.6; stroke-width: 0.339411"/>
    <path d="M 167.501332 152.049238 
L 165.380012 156.291879 
L 169.622653 156.291879 
z
" clip-path="url(#p3962b93d11)" style="fill: #117733; fill-opacity: 0.6; stroke: #ffffff; stroke-opacity: 0.6; stroke-width: 0.339411"/>
    <path d="M 204.254504 29.709847 
L 202.133183 33.952488 
L 206.375824 33.952488 
z
" clip-path="url(#p3962b93d11)" style="fill: #117733; fill-opacity: 0.6; stroke: #ffffff; stroke-opacity: 0.6; stroke-width: 0.339411"/>
    <path d="M 195.468089 39.123832 
L 193.346768 43.366473 
L 197.589409 43.366473 
z
" clip-path="url(#p3962b93d11)" style="fill: #117733; fill-opacity: 0.6; stroke: #ffffff; stroke-opacity: 0.6; stroke-width: 0.339411"/>
    <path d="M 208.539516 71.681519 
L 206.418196 75.924159 
L 210.660837 75.924159 
z
" clip-path="url(#p3962b93d11)" style="fill: #117733; fill-opacity: 0.6; stroke: #ffffff; stroke-opacity: 0.6; stroke-width: 0.339411"/>
    <path d="M 199.995068 77.84801 
L 197.873748 82.090651 
L 202.116388 82.090651 
z
" clip-path="url(#p3962b93d11)" style="fill: #117733; fill-opacity: 0.6; stroke: #ffffff; stroke-opacity: 0.6; stroke-width: 0.339411"/>
    <path d="M 169.99047 119.53735 
L 167.869149 123.77999 
L 172.11179 123.77999 
z
" clip-path="url(#p3962b93d11)" style="fill: #117733; fill-opacity: 0.6; stroke: #ffffff; stroke-opacity: 0.6; stroke-width: 0.339411"/>
    <path d="M 164.2373 132.249167 
L 162.11598 136.491808 
L 166.35862 136.491808 
z
" clip-path="url(#p3962b93d11)" style="fill: #117733; fill-opacity: 0.6; stroke: #ffffff; stroke-opacity: 0.6; stroke-width: 0.339411"/>
    <path d="M 201.818299 73.222805 
L 199.696979 77.465446 
L 203.93962 77.465446 
z
" clip-path="url(#p3962b93d11)" style="fill: #117733; fill-opacity: 0.6; stroke: #ffffff; stroke-opacity: 0.6; stroke-width: 0.339411"/>
    <path d="M 202.931691 57.40279 
L 200.810371 61.64543 
L 205.053011 61.64543 
z
" clip-path="url(#p3962b93d11)" style="fill: #117733; fill-opacity: 0.6; stroke: #ffffff; stroke-opacity: 0.6; stroke-width: 0.339411"/>
    <path d="M 204.265038 56.060888 
L 202.143718 60.303529 
L 206.386359 60.303529 
z
" clip-path="url(#p3962b93d11)" style="fill: #117733; fill-opacity: 0.6; stroke: #ffffff; stroke-opacity: 0.6; stroke-width: 0.339411"/>
    <path d="M 207.522104 65.4671 
L 205.400784 69.709741 
L 209.643424 69.709741 
z
" clip-path="url(#p3962b93d11)" style="fill: #117733; fill-opacity: 0.6; stroke: #ffffff; stroke-opacity: 0.6; stroke-width: 0.339411"/>
    <path d="M 208.542656 18.223636 
L 206.421335 22.466277 
L 210.663976 22.466277 
z
" clip-path="url(#p3962b93d11)" style="fill: #117733; fill-opacity: 0.6; stroke: #ffffff; stroke-opacity: 0.6; stroke-width: 0.339411"/>
    <path d="M 198.01333 27.410277 
L 195.89201 31.652918 
L 200.134651 31.652918 
z
" clip-path="url(#p3962b93d11)" style="fill: #117733; fill-opacity: 0.6; stroke: #ffffff; stroke-opacity: 0.6; stroke-width: 0.339411"/>
    <path d="M 198.426666 80.200012 
L 196.305346 84.442653 
L 200.547986 84.442653 
z
" clip-path="url(#p3962b93d11)" style="fill: #117733; fill-opacity: 0.6; stroke: #ffffff; stroke-opacity: 0.6; stroke-width: 0.339411"/>
    <path d="M 206.274599 53.29457 
L 204.153279 57.537211 
L 208.39592 57.537211 
z
" clip-path="url(#p3962b93d11)" style="fill: #117733; fill-opacity: 0.6; stroke: #ffffff; stroke-opacity: 0.6; stroke-width: 0.339411"/>
    <path d="M 201.968313 53.594407 
L 199.846992 57.837047 
L 204.089633 57.837047 
z
" clip-path="url(#p3962b93d11)" style="fill: #117733; fill-opacity: 0.6; stroke: #ffffff; stroke-opacity: 0.6; stroke-width: 0.339411"/>
    <path d="M 167.582578 152.101678 
L 165.461258 156.344319 
L 169.703898 156.344319 
z
" clip-path="url(#p3962b93d11)" style="fill: #117733; fill-opacity: 0.6; stroke: #ffffff; stroke-opacity: 0.6; stroke-width: 0.339411"/>
    <path d="M 199.005028 34.476747 
L 196.883707 38.719388 
L 201.126348 38.719388 
z
" clip-path="url(#p3962b93d11)" style="fill: #117733; fill-opacity: 0.6; stroke: #ffffff; stroke-opacity: 0.6; stroke-width: 0.339411"/>
    <path d="M 164.772993 133.90468 
L 162.651673 138.147321 
L 166.894314 138.147321 
z
" clip-path="url(#p3962b93d11)" style="fill: #117733; fill-opacity: 0.6; stroke: #ffffff; stroke-opacity: 0.6; stroke-width: 0.339411"/>
    <path d="M 202.016002 57.271479 
L 199.894682 61.51412 
L 204.137323 61.51412 
z
" clip-path="url(#p3962b93d11)" style="fill: #117733; fill-opacity: 0.6; stroke: #ffffff; stroke-opacity: 0.6; stroke-width: 0.339411"/>
    <path d="M 201.948218 34.038263 
L 199.826897 38.280903 
L 204.069538 38.280903 
z
" clip-path="url(#p3962b93d11)" style="fill: #117733; fill-opacity: 0.6; stroke: #ffffff; stroke-opacity: 0.6; stroke-width: 0.339411"/>
    <path d="M 214.596709 25.566078 
L 212.475389 29.808719 
L 216.718029 29.808719 
z
" clip-path="url(#p3962b93d11)" style="fill: #117733; fill-opacity: 0.6; stroke: #ffffff; stroke-opacity: 0.6; stroke-width: 0.339411"/>
    <path d="M 210.802587 29.019701 
L 208.681266 33.262341 
L 212.923907 33.262341 
z
" clip-path="url(#p3962b93d11)" style="fill: #117733; fill-opacity: 0.6; stroke: #ffffff; stroke-opacity: 0.6; stroke-width: 0.339411"/>
    <path d="M 198.94139 37.961312 
L 196.82007 42.203952 
L 201.06271 42.203952 
z
" clip-path="url(#p3962b93d11)" style="fill: #117733; fill-opacity: 0.6; stroke: #ffffff; stroke-opacity: 0.6; stroke-width: 0.339411"/>
    <path d="M 211.013244 52.172586 
L 208.891924 56.415227 
L 213.134564 56.415227 
z
" clip-path="url(#p3962b93d11)" style="fill: #117733; fill-opacity: 0.6; stroke: #ffffff; stroke-opacity: 0.6; stroke-width: 0.339411"/>
    <path d="M 187.938411 46.978785 
L 185.817091 51.221426 
L 190.059732 51.221426 
z
" clip-path="url(#p3962b93d11)" style="fill: #117733; fill-opacity: 0.6; stroke: #ffffff; stroke-opacity: 0.6; stroke-width: 0.339411"/>
    <path d="M 208.841638 63.092103 
L 206.720318 67.334744 
L 210.962959 67.334744 
z
" clip-path="url(#p3962b93d11)" style="fill: #117733; fill-opacity: 0.6; stroke: #ffffff; stroke-opacity: 0.6; stroke-width: 0.339411"/>
    <path d="M 168.350228 157.782997 
L 166.228908 162.025637 
L 170.471549 162.025637 
z
" clip-path="url(#p3962b93d11)" style="fill: #117733; fill-opacity: 0.6; stroke: #ffffff; stroke-opacity: 0.6; stroke-width: 0.339411"/>
    <path d="M 194.330588 52.246755 
L 192.209268 56.489396 
L 196.451908 56.489396 
z
" clip-path="url(#p3962b93d11)" style="fill: #117733; fill-opacity: 0.6; stroke: #ffffff; stroke-opacity: 0.6; stroke-width: 0.339411"/>
    <path d="M 194.702048 59.085251 
L 192.580728 63.327892 
L 196.823368 63.327892 
z
" clip-path="url(#p3962b93d11)" style="fill: #117733; fill-opacity: 0.6; stroke: #ffffff; stroke-opacity: 0.6; stroke-width: 0.339411"/>
    <path d="M 194.02333 73.397233 
L 191.90201 77.639873 
L 196.144651 77.639873 
z
" clip-path="url(#p3962b93d11)" style="fill: #117733; fill-opacity: 0.6; stroke: #ffffff; stroke-opacity: 0.6; stroke-width: 0.339411"/>
    <path d="M 194.07891 40.58823 
L 191.95759 44.830871 
L 196.20023 44.830871 
z
" clip-path="url(#p3962b93d11)" style="fill: #117733; fill-opacity: 0.6; stroke: #ffffff; stroke-opacity: 0.6; stroke-width: 0.339411"/>
    <path d="M 205.367678 85.319667 
L 203.246357 89.562308 
L 207.488998 89.562308 
z
" clip-path="url(#p3962b93d11)" style="fill: #117733; fill-opacity: 0.6; stroke: #ffffff; stroke-opacity: 0.6; stroke-width: 0.339411"/>
    <path d="M 208.595156 61.064448 
L 206.473836 65.307089 
L 210.716476 65.307089 
z
" clip-path="url(#p3962b93d11)" style="fill: #117733; fill-opacity: 0.6; stroke: #ffffff; stroke-opacity: 0.6; stroke-width: 0.339411"/>
    <path d="M 164.355055 151.435236 
L 162.233734 155.677877 
L 166.476375 155.677877 
z
" clip-path="url(#p3962b93d11)" style="fill: #117733; fill-opacity: 0.6; stroke: #ffffff; stroke-opacity: 0.6; stroke-width: 0.339411"/>
    <path d="M 195.574079 40.989661 
L 193.452759 45.232302 
L 197.6954 45.232302 
z
" clip-path="url(#p3962b93d11)" style="fill: #117733; fill-opacity: 0.6; stroke: #ffffff; stroke-opacity: 0.6; stroke-width: 0.339411"/>
    <path d="M 195.348523 50.049315 
L 193.227202 54.291956 
L 197.469843 54.291956 
z
" clip-path="url(#p3962b93d11)" style="fill: #117733; fill-opacity: 0.6; stroke: #ffffff; stroke-opacity: 0.6; stroke-width: 0.339411"/>
    <path d="M 202.389778 45.09115 
L 200.268458 49.333791 
L 204.511099 49.333791 
z
" clip-path="url(#p3962b93d11)" style="fill: #117733; fill-opacity: 0.6; stroke: #ffffff; stroke-opacity: 0.6; stroke-width: 0.339411"/>
    <path d="M 210.360663 75.797035 
L 208.239343 80.039675 
L 212.481983 80.039675 
z
" clip-path="url(#p3962b93d11)" style="fill: #117733; fill-opacity: 0.6; stroke: #ffffff; stroke-opacity: 0.6; stroke-width: 0.339411"/>
    <path d="M 164.793499 65.53999 
L 162.672179 69.782631 
L 166.91482 69.782631 
z
" clip-path="url(#p3962b93d11)" style="fill: #117733; fill-opacity: 0.6; stroke: #ffffff; stroke-opacity: 0.6; stroke-width: 0.339411"/>
    <path d="M 197.062939 40.937714 
L 194.941619 45.180354 
L 199.184259 45.180354 
z
" clip-path="url(#p3962b93d11)" style="fill: #117733; fill-opacity: 0.6; stroke: #ffffff; stroke-opacity: 0.6; stroke-width: 0.339411"/>
    <path d="M 168.499341 149.494806 
L 166.378021 153.737446 
L 170.620662 153.737446 
z
" clip-path="url(#p3962b93d11)" style="fill: #117733; fill-opacity: 0.6; stroke: #ffffff; stroke-opacity: 0.6; stroke-width: 0.339411"/>
    <path d="M 199.482436 64.066181 
L 197.361116 68.308822 
L 201.603756 68.308822 
z
" clip-path="url(#p3962b93d11)" style="fill: #117733; fill-opacity: 0.6; stroke: #ffffff; stroke-opacity: 0.6; stroke-width: 0.339411"/>
    <path d="M 202.72526 69.434479 
L 200.603939 73.677119 
L 204.84658 73.677119 
z
" clip-path="url(#p3962b93d11)" style="fill: #117733; fill-opacity: 0.6; stroke: #ffffff; stroke-opacity: 0.6; stroke-width: 0.339411"/>
    <path d="M 205.331509 89.145303 
L 203.210189 93.387943 
L 207.45283 93.387943 
z
" clip-path="url(#p3962b93d11)" style="fill: #117733; fill-opacity: 0.6; stroke: #ffffff; stroke-opacity: 0.6; stroke-width: 0.339411"/>
    <path d="M 164.543401 151.017112 
L 162.422081 155.259753 
L 166.664722 155.259753 
z
" clip-path="url(#p3962b93d11)" style="fill: #117733; fill-opacity: 0.6; stroke: #ffffff; stroke-opacity: 0.6; stroke-width: 0.339411"/>
    <path d="M 169.439233 118.086828 
L 167.317912 122.329469 
L 171.560553 122.329469 
z
" clip-path="url(#p3962b93d11)" style="fill: #117733; fill-opacity: 0.6; stroke: #ffffff; stroke-opacity: 0.6; stroke-width: 0.339411"/>
    <path d="M 204.850753 35.46998 
L 202.729432 39.712621 
L 206.972073 39.712621 
z
" clip-path="url(#p3962b93d11)" style="fill: #117733; fill-opacity: 0.6; stroke: #ffffff; stroke-opacity: 0.6; stroke-width: 0.339411"/>
    <path d="M 206.440639 89.028957 
L 204.319319 93.271597 
L 208.56196 93.271597 
z
" clip-path="url(#p3962b93d11)" style="fill: #117733; fill-opacity: 0.6; stroke: #ffffff; stroke-opacity: 0.6; stroke-width: 0.339411"/>
    <path d="M 209.614113 51.325818 
L 207.492793 55.568459 
L 211.735434 55.568459 
z
" clip-path="url(#p3962b93d11)" style="fill: #117733; fill-opacity: 0.6; stroke: #ffffff; stroke-opacity: 0.6; stroke-width: 0.339411"/>
    <path d="M 208.116331 59.47555 
L 205.995011 63.718191 
L 210.237651 63.718191 
z
" clip-path="url(#p3962b93d11)" style="fill: #117733; fill-opacity: 0.6; stroke: #ffffff; stroke-opacity: 0.6; stroke-width: 0.339411"/>
    <path d="M 167.625159 150.742488 
L 165.503839 154.985129 
L 169.74648 154.985129 
z
" clip-path="url(#p3962b93d11)" style="fill: #117733; fill-opacity: 0.6; stroke: #ffffff; stroke-opacity: 0.6; stroke-width: 0.339411"/>
    <path d="M 211.571474 104.47291 
L 215.814115 104.47291 
L 215.814115 100.23027 
L 211.571474 100.23027 
z
" clip-path="url(#p3962b93d11)" style="fill: #44aa99; fill-opacity: 0.6; stroke: #ffffff; stroke-opacity: 0.6; stroke-width: 0.339411"/>
    <path d="M 190.39943 141.798646 
L 194.642071 141.798646 
L 194.642071 137.556005 
L 190.39943 137.556005 
z
" clip-path="url(#p3962b93d11)" style="fill: #44aa99; fill-opacity: 0.6; stroke: #ffffff; stroke-opacity: 0.6; stroke-width: 0.339411"/>
    <path d="M 211.647609 92.401568 
L 215.89025 92.401568 
L 215.89025 88.158927 
L 211.647609 88.158927 
z
" clip-path="url(#p3962b93d11)" style="fill: #44aa99; fill-opacity: 0.6; stroke: #ffffff; stroke-opacity: 0.6; stroke-width: 0.339411"/>
    <path d="M 185.725922 128.121908 
L 189.968563 128.121908 
L 189.968563 123.879267 
L 185.725922 123.879267 
z
" clip-path="url(#p3962b93d11)" style="fill: #44aa99; fill-opacity: 0.6; stroke: #ffffff; stroke-opacity: 0.6; stroke-width: 0.339411"/>
    <path d="M 189.273582 134.454025 
L 193.516223 134.454025 
L 193.516223 130.211384 
L 189.273582 130.211384 
z
" clip-path="url(#p3962b93d11)" style="fill: #44aa99; fill-opacity: 0.6; stroke: #ffffff; stroke-opacity: 0.6; stroke-width: 0.339411"/>
    <path d="M 193.330003 134.802688 
L 197.572644 134.802688 
L 197.572644 130.560047 
L 193.330003 130.560047 
z
" clip-path="url(#p3962b93d11)" style="fill: #44aa99; fill-opacity: 0.6; stroke: #ffffff; stroke-opacity: 0.6; stroke-width: 0.339411"/>
    <path d="M 211.322351 119.239939 
L 215.564992 119.239939 
L 215.564992 114.997299 
L 211.322351 114.997299 
z
" clip-path="url(#p3962b93d11)" style="fill: #44aa99; fill-opacity: 0.6; stroke: #ffffff; stroke-opacity: 0.6; stroke-width: 0.339411"/>
    <path d="M 218.074607 108.81381 
L 222.317248 108.81381 
L 222.317248 104.57117 
L 218.074607 104.57117 
z
" clip-path="url(#p3962b93d11)" style="fill: #44aa99; fill-opacity: 0.6; stroke: #ffffff; stroke-opacity: 0.6; stroke-width: 0.339411"/>
    <path d="M 211.830847 99.405616 
L 216.073487 99.405616 
L 216.073487 95.162975 
L 211.830847 95.162975 
z
" clip-path="url(#p3962b93d11)" style="fill: #44aa99; fill-opacity: 0.6; stroke: #ffffff; stroke-opacity: 0.6; stroke-width: 0.339411"/>
    <path d="M 199.605041 40.460325 
L 203.847682 40.460325 
L 203.847682 36.217685 
L 199.605041 36.217685 
z
" clip-path="url(#p3962b93d11)" style="fill: #44aa99; fill-opacity: 0.6; stroke: #ffffff; stroke-opacity: 0.6; stroke-width: 0.339411"/>
    <path d="M 192.089144 127.821895 
L 196.331785 127.821895 
L 196.331785 123.579254 
L 192.089144 123.579254 
z
" clip-path="url(#p3962b93d11)" style="fill: #44aa99; fill-opacity: 0.6; stroke: #ffffff; stroke-opacity: 0.6; stroke-width: 0.339411"/>
    <path d="M 217.751392 93.753969 
L 221.994033 93.753969 
L 221.994033 89.511329 
L 217.751392 89.511329 
z
" clip-path="url(#p3962b93d11)" style="fill: #44aa99; fill-opacity: 0.6; stroke: #ffffff; stroke-opacity: 0.6; stroke-width: 0.339411"/>
    <path d="M 202.58932 108.539674 
L 206.83196 108.539674 
L 206.83196 104.297033 
L 202.58932 104.297033 
z
" clip-path="url(#p3962b93d11)" style="fill: #44aa99; fill-opacity: 0.6; stroke: #ffffff; stroke-opacity: 0.6; stroke-width: 0.339411"/>
    <path d="M 201.198544 34.810637 
L 205.441184 34.810637 
L 205.441184 30.567996 
L 201.198544 30.567996 
z
" clip-path="url(#p3962b93d11)" style="fill: #44aa99; fill-opacity: 0.6; stroke: #ffffff; stroke-opacity: 0.6; stroke-width: 0.339411"/>
    <path d="M 192.83365 70.972199 
L 197.076291 70.972199 
L 197.076291 66.729558 
L 192.83365 66.729558 
z
" clip-path="url(#p3962b93d11)" style="fill: #44aa99; fill-opacity: 0.6; stroke: #ffffff; stroke-opacity: 0.6; stroke-width: 0.339411"/>
    <path d="M 189.628022 144.698544 
L 193.870663 144.698544 
L 193.870663 140.455904 
L 189.628022 140.455904 
z
" clip-path="url(#p3962b93d11)" style="fill: #44aa99; fill-opacity: 0.6; stroke: #ffffff; stroke-opacity: 0.6; stroke-width: 0.339411"/>
    <path d="M 201.138238 93.605193 
L 205.380879 93.605193 
L 205.380879 89.362552 
L 201.138238 89.362552 
z
" clip-path="url(#p3962b93d11)" style="fill: #44aa99; fill-opacity: 0.6; stroke: #ffffff; stroke-opacity: 0.6; stroke-width: 0.339411"/>
    <path d="M 205.083754 106.822329 
L 209.326395 106.822329 
L 209.326395 102.579688 
L 205.083754 102.579688 
z
" clip-path="url(#p3962b93d11)" style="fill: #44aa99; fill-opacity: 0.6; stroke: #ffffff; stroke-opacity: 0.6; stroke-width: 0.339411"/>
    <path d="M 197.263033 107.97609 
L 201.505674 107.97609 
L 201.505674 103.733449 
L 197.263033 103.733449 
z
" clip-path="url(#p3962b93d11)" style="fill: #44aa99; fill-opacity: 0.6; stroke: #ffffff; stroke-opacity: 0.6; stroke-width: 0.339411"/>
    <path d="M 194.128783 63.778129 
L 198.371424 63.778129 
L 198.371424 59.535489 
L 194.128783 59.535489 
z
" clip-path="url(#p3962b93d11)" style="fill: #44aa99; fill-opacity: 0.6; stroke: #ffffff; stroke-opacity: 0.6; stroke-width: 0.339411"/>
    <path d="M 217.758355 103.930022 
L 222.000996 103.930022 
L 222.000996 99.687382 
L 217.758355 99.687382 
z
" clip-path="url(#p3962b93d11)" style="fill: #44aa99; fill-opacity: 0.6; stroke: #ffffff; stroke-opacity: 0.6; stroke-width: 0.339411"/>
    <path d="M 191.844039 135.192941 
L 196.08668 135.192941 
L 196.08668 130.950301 
L 191.844039 130.950301 
z
" clip-path="url(#p3962b93d11)" style="fill: #44aa99; fill-opacity: 0.6; stroke: #ffffff; stroke-opacity: 0.6; stroke-width: 0.339411"/>
    <path d="M 202.257275 68.330876 
L 206.499916 68.330876 
L 206.499916 64.088235 
L 202.257275 64.088235 
z
" clip-path="url(#p3962b93d11)" style="fill: #44aa99; fill-opacity: 0.6; stroke: #ffffff; stroke-opacity: 0.6; stroke-width: 0.339411"/>
    <path d="M 209.128743 33.258694 
L 213.371384 33.258694 
L 213.371384 29.016053 
L 209.128743 29.016053 
z
" clip-path="url(#p3962b93d11)" style="fill: #44aa99; fill-opacity: 0.6; stroke: #ffffff; stroke-opacity: 0.6; stroke-width: 0.339411"/>
    <path d="M 199.985739 107.458081 
L 204.228379 107.458081 
L 204.228379 103.21544 
L 199.985739 103.21544 
z
" clip-path="url(#p3962b93d11)" style="fill: #44aa99; fill-opacity: 0.6; stroke: #ffffff; stroke-opacity: 0.6; stroke-width: 0.339411"/>
    <path d="M 190.627858 142.422414 
L 194.870498 142.422414 
L 194.870498 138.179773 
L 190.627858 138.179773 
z
" clip-path="url(#p3962b93d11)" style="fill: #44aa99; fill-opacity: 0.6; stroke: #ffffff; stroke-opacity: 0.6; stroke-width: 0.339411"/>
    <path d="M 190.432554 134.422065 
L 194.675195 134.422065 
L 194.675195 130.179424 
L 190.432554 130.179424 
z
" clip-path="url(#p3962b93d11)" style="fill: #44aa99; fill-opacity: 0.6; stroke: #ffffff; stroke-opacity: 0.6; stroke-width: 0.339411"/>
    <path d="M 195.734579 31.159408 
L 199.97722 31.159408 
L 199.97722 26.916767 
L 195.734579 26.916767 
z
" clip-path="url(#p3962b93d11)" style="fill: #44aa99; fill-opacity: 0.6; stroke: #ffffff; stroke-opacity: 0.6; stroke-width: 0.339411"/>
    <path d="M 216.338471 109.588876 
L 220.581112 109.588876 
L 220.581112 105.346236 
L 216.338471 105.346236 
z
" clip-path="url(#p3962b93d11)" style="fill: #44aa99; fill-opacity: 0.6; stroke: #ffffff; stroke-opacity: 0.6; stroke-width: 0.339411"/>
    <path d="M 216.757077 106.72459 
L 220.999718 106.72459 
L 220.999718 102.481949 
L 216.757077 102.481949 
z
" clip-path="url(#p3962b93d11)" style="fill: #44aa99; fill-opacity: 0.6; stroke: #ffffff; stroke-opacity: 0.6; stroke-width: 0.339411"/>
    <path d="M 208.311236 75.900944 
L 212.553876 75.900944 
L 212.553876 71.658303 
L 208.311236 71.658303 
z
" clip-path="url(#p3962b93d11)" style="fill: #44aa99; fill-opacity: 0.6; stroke: #ffffff; stroke-opacity: 0.6; stroke-width: 0.339411"/>
    <path d="M 202.484552 34.40949 
L 206.727192 34.40949 
L 206.727192 30.166849 
L 202.484552 30.166849 
z
" clip-path="url(#p3962b93d11)" style="fill: #44aa99; fill-opacity: 0.6; stroke: #ffffff; stroke-opacity: 0.6; stroke-width: 0.339411"/>
    <path d="M 218.644434 106.4686 
L 222.887074 106.4686 
L 222.887074 102.225959 
L 218.644434 102.225959 
z
" clip-path="url(#p3962b93d11)" style="fill: #44aa99; fill-opacity: 0.6; stroke: #ffffff; stroke-opacity: 0.6; stroke-width: 0.339411"/>
    <path d="M 210.452319 100.950076 
L 214.69496 100.950076 
L 214.69496 96.707436 
L 210.452319 96.707436 
z
" clip-path="url(#p3962b93d11)" style="fill: #44aa99; fill-opacity: 0.6; stroke: #ffffff; stroke-opacity: 0.6; stroke-width: 0.339411"/>
    <path d="M 191.217077 145.029399 
L 195.459718 145.029399 
L 195.459718 140.786759 
L 191.217077 140.786759 
z
" clip-path="url(#p3962b93d11)" style="fill: #44aa99; fill-opacity: 0.6; stroke: #ffffff; stroke-opacity: 0.6; stroke-width: 0.339411"/>
    <path d="M 205.18114 39.452286 
L 209.423781 39.452286 
L 209.423781 35.209645 
L 205.18114 35.209645 
z
" clip-path="url(#p3962b93d11)" style="fill: #44aa99; fill-opacity: 0.6; stroke: #ffffff; stroke-opacity: 0.6; stroke-width: 0.339411"/>
    <path d="M 191.325616 146.031444 
L 195.568256 146.031444 
L 195.568256 141.788803 
L 191.325616 141.788803 
z
" clip-path="url(#p3962b93d11)" style="fill: #44aa99; fill-opacity: 0.6; stroke: #ffffff; stroke-opacity: 0.6; stroke-width: 0.339411"/>
    <path d="M 216.709224 95.00275 
L 220.951864 95.00275 
L 220.951864 90.760109 
L 216.709224 90.760109 
z
" clip-path="url(#p3962b93d11)" style="fill: #44aa99; fill-opacity: 0.6; stroke: #ffffff; stroke-opacity: 0.6; stroke-width: 0.339411"/>
    <path d="M 187.13207 141.87861 
L 191.37471 141.87861 
L 191.37471 137.63597 
L 187.13207 137.63597 
z
" clip-path="url(#p3962b93d11)" style="fill: #44aa99; fill-opacity: 0.6; stroke: #ffffff; stroke-opacity: 0.6; stroke-width: 0.339411"/>
    <path d="M 201.082389 35.899761 
L 205.325029 35.899761 
L 205.325029 31.65712 
L 201.082389 31.65712 
z
" clip-path="url(#p3962b93d11)" style="fill: #44aa99; fill-opacity: 0.6; stroke: #ffffff; stroke-opacity: 0.6; stroke-width: 0.339411"/>
    <path d="M 192.298151 146.311394 
L 196.540792 146.311394 
L 196.540792 142.068753 
L 192.298151 142.068753 
z
" clip-path="url(#p3962b93d11)" style="fill: #44aa99; fill-opacity: 0.6; stroke: #ffffff; stroke-opacity: 0.6; stroke-width: 0.339411"/>
    <path d="M 190.857971 136.671059 
L 195.100611 136.671059 
L 195.100611 132.428418 
L 190.857971 132.428418 
z
" clip-path="url(#p3962b93d11)" style="fill: #44aa99; fill-opacity: 0.6; stroke: #ffffff; stroke-opacity: 0.6; stroke-width: 0.339411"/>
    <path d="M 187.696988 144.391962 
L 191.939629 144.391962 
L 191.939629 140.149322 
L 187.696988 140.149322 
z
" clip-path="url(#p3962b93d11)" style="fill: #44aa99; fill-opacity: 0.6; stroke: #ffffff; stroke-opacity: 0.6; stroke-width: 0.339411"/>
    <path d="M 216.594079 104.201105 
L 220.83672 104.201105 
L 220.83672 99.958464 
L 216.594079 99.958464 
z
" clip-path="url(#p3962b93d11)" style="fill: #44aa99; fill-opacity: 0.6; stroke: #ffffff; stroke-opacity: 0.6; stroke-width: 0.339411"/>
    <path d="M 202.100501 81.828996 
L 206.343141 81.828996 
L 206.343141 77.586355 
L 202.100501 77.586355 
z
" clip-path="url(#p3962b93d11)" style="fill: #44aa99; fill-opacity: 0.6; stroke: #ffffff; stroke-opacity: 0.6; stroke-width: 0.339411"/>
    <path d="M 201.843087 81.414572 
L 206.085727 81.414572 
L 206.085727 77.171931 
L 201.843087 77.171931 
z
" clip-path="url(#p3962b93d11)" style="fill: #44aa99; fill-opacity: 0.6; stroke: #ffffff; stroke-opacity: 0.6; stroke-width: 0.339411"/>
    <path d="M 201.481875 34.202159 
L 205.724516 34.202159 
L 205.724516 29.959518 
L 201.481875 29.959518 
z
" clip-path="url(#p3962b93d11)" style="fill: #44aa99; fill-opacity: 0.6; stroke: #ffffff; stroke-opacity: 0.6; stroke-width: 0.339411"/>
    <path d="M 181.92785 151.336001 
L 186.170491 151.336001 
L 186.170491 147.093361 
L 181.92785 147.093361 
z
" clip-path="url(#p3962b93d11)" style="fill: #44aa99; fill-opacity: 0.6; stroke: #ffffff; stroke-opacity: 0.6; stroke-width: 0.339411"/>
    <path d="M 185.707244 131.18674 
L 189.949885 131.18674 
L 189.949885 126.9441 
L 185.707244 126.9441 
z
" clip-path="url(#p3962b93d11)" style="fill: #44aa99; fill-opacity: 0.6; stroke: #ffffff; stroke-opacity: 0.6; stroke-width: 0.339411"/>
    <path d="M 220.114432 101.495638 
L 224.357073 101.495638 
L 224.357073 97.252997 
L 220.114432 97.252997 
z
" clip-path="url(#p3962b93d11)" style="fill: #44aa99; fill-opacity: 0.6; stroke: #ffffff; stroke-opacity: 0.6; stroke-width: 0.339411"/>
    <path d="M 168.696171 138.624012 
L 172.938812 138.624012 
L 172.938812 134.381371 
L 168.696171 134.381371 
z
" clip-path="url(#p3962b93d11)" style="fill: #44aa99; fill-opacity: 0.6; stroke: #ffffff; stroke-opacity: 0.6; stroke-width: 0.339411"/>
    <path d="M 210.955916 99.810124 
L 215.198556 99.810124 
L 215.198556 95.567483 
L 210.955916 95.567483 
z
" clip-path="url(#p3962b93d11)" style="fill: #44aa99; fill-opacity: 0.6; stroke: #ffffff; stroke-opacity: 0.6; stroke-width: 0.339411"/>
    <path d="M 217.032153 107.477172 
L 221.274794 107.477172 
L 221.274794 103.234531 
L 217.032153 103.234531 
z
" clip-path="url(#p3962b93d11)" style="fill: #44aa99; fill-opacity: 0.6; stroke: #ffffff; stroke-opacity: 0.6; stroke-width: 0.339411"/>
    <path d="M 188.88442 141.989591 
L 193.127061 141.989591 
L 193.127061 137.74695 
L 188.88442 137.74695 
z
" clip-path="url(#p3962b93d11)" style="fill: #44aa99; fill-opacity: 0.6; stroke: #ffffff; stroke-opacity: 0.6; stroke-width: 0.339411"/>
    <path d="M 179.258424 56.549235 
L 183.501065 56.549235 
L 183.501065 52.306594 
L 179.258424 52.306594 
z
" clip-path="url(#p3962b93d11)" style="fill: #44aa99; fill-opacity: 0.6; stroke: #ffffff; stroke-opacity: 0.6; stroke-width: 0.339411"/>
    <path d="M 217.019954 100.04082 
L 221.262595 100.04082 
L 221.262595 95.79818 
L 217.019954 95.79818 
z
" clip-path="url(#p3962b93d11)" style="fill: #44aa99; fill-opacity: 0.6; stroke: #ffffff; stroke-opacity: 0.6; stroke-width: 0.339411"/>
    <path d="M 213.017527 45.6798 
L 217.260168 45.6798 
L 217.260168 41.437159 
L 213.017527 41.437159 
z
" clip-path="url(#p3962b93d11)" style="fill: #44aa99; fill-opacity: 0.6; stroke: #ffffff; stroke-opacity: 0.6; stroke-width: 0.339411"/>
    <path d="M 220.136688 114.239326 
L 224.379329 114.239326 
L 224.379329 109.996685 
L 220.136688 109.996685 
z
" clip-path="url(#p3962b93d11)" style="fill: #44aa99; fill-opacity: 0.6; stroke: #ffffff; stroke-opacity: 0.6; stroke-width: 0.339411"/>
    <path d="M 213.84056 92.342203 
L 218.0832 92.342203 
L 218.0832 88.099563 
L 213.84056 88.099563 
z
" clip-path="url(#p3962b93d11)" style="fill: #44aa99; fill-opacity: 0.6; stroke: #ffffff; stroke-opacity: 0.6; stroke-width: 0.339411"/>
    <path d="M 191.136372 145.633783 
L 195.379012 145.633783 
L 195.379012 141.391143 
L 191.136372 141.391143 
z
" clip-path="url(#p3962b93d11)" style="fill: #44aa99; fill-opacity: 0.6; stroke: #ffffff; stroke-opacity: 0.6; stroke-width: 0.339411"/>
    <path d="M 210.418483 38.729788 
L 214.661123 38.729788 
L 214.661123 34.487147 
L 210.418483 34.487147 
z
" clip-path="url(#p3962b93d11)" style="fill: #44aa99; fill-opacity: 0.6; stroke: #ffffff; stroke-opacity: 0.6; stroke-width: 0.339411"/>
    <path d="M 206.281888 38.540254 
L 210.524528 38.540254 
L 210.524528 34.297613 
L 206.281888 34.297613 
z
" clip-path="url(#p3962b93d11)" style="fill: #44aa99; fill-opacity: 0.6; stroke: #ffffff; stroke-opacity: 0.6; stroke-width: 0.339411"/>
    <path d="M 211.966475 103.470577 
L 216.209116 103.470577 
L 216.209116 99.227936 
L 211.966475 99.227936 
z
" clip-path="url(#p3962b93d11)" style="fill: #44aa99; fill-opacity: 0.6; stroke: #ffffff; stroke-opacity: 0.6; stroke-width: 0.339411"/>
    <path d="M 213.902476 113.237892 
L 218.145117 113.237892 
L 218.145117 108.995252 
L 213.902476 108.995252 
z
" clip-path="url(#p3962b93d11)" style="fill: #44aa99; fill-opacity: 0.6; stroke: #ffffff; stroke-opacity: 0.6; stroke-width: 0.339411"/>
    <path d="M 204.102463 76.624678 
L 205.163123 75.564018 
L 206.223783 76.624678 
L 207.284443 75.564018 
L 206.223783 74.503358 
L 207.284443 73.442697 
L 206.223783 72.382037 
L 205.163123 73.442697 
L 204.102463 72.382037 
L 203.041802 73.442697 
L 204.102463 74.503358 
L 203.041802 75.564018 
z
" clip-path="url(#p3962b93d11)" style="fill: #88ccee; fill-opacity: 0.6; stroke: #ffffff; stroke-opacity: 0.6; stroke-width: 0.339411"/>
    <path d="M 208.536876 59.224513 
L 209.597536 58.163853 
L 210.658197 59.224513 
L 211.718857 58.163853 
L 210.658197 57.103192 
L 211.718857 56.042532 
L 210.658197 54.981872 
L 209.597536 56.042532 
L 208.536876 54.981872 
L 207.476216 56.042532 
L 208.536876 57.103192 
L 207.476216 58.163853 
z
" clip-path="url(#p3962b93d11)" style="fill: #88ccee; fill-opacity: 0.6; stroke: #ffffff; stroke-opacity: 0.6; stroke-width: 0.339411"/>
    <path d="M 210.166657 68.479504 
L 211.227317 67.418843 
L 212.287977 68.479504 
L 213.348637 67.418843 
L 212.287977 66.358183 
L 213.348637 65.297523 
L 212.287977 64.236863 
L 211.227317 65.297523 
L 210.166657 64.236863 
L 209.105996 65.297523 
L 210.166657 66.358183 
L 209.105996 67.418843 
z
" clip-path="url(#p3962b93d11)" style="fill: #88ccee; fill-opacity: 0.6; stroke: #ffffff; stroke-opacity: 0.6; stroke-width: 0.339411"/>
    <path d="M 208.5435 59.378975 
L 209.60416 58.318315 
L 210.66482 59.378975 
L 211.72548 58.318315 
L 210.66482 57.257655 
L 211.72548 56.196995 
L 210.66482 55.136335 
L 209.60416 56.196995 
L 208.5435 55.136335 
L 207.48284 56.196995 
L 208.5435 57.257655 
L 207.48284 58.318315 
z
" clip-path="url(#p3962b93d11)" style="fill: #88ccee; fill-opacity: 0.6; stroke: #ffffff; stroke-opacity: 0.6; stroke-width: 0.339411"/>
    <path d="M 206.903839 56.636574 
L 207.964499 55.575913 
L 209.025159 56.636574 
L 210.08582 55.575913 
L 209.025159 54.515253 
L 210.08582 53.454593 
L 209.025159 52.393933 
L 207.964499 53.454593 
L 206.903839 52.393933 
L 205.843179 53.454593 
L 206.903839 54.515253 
L 205.843179 55.575913 
z
" clip-path="url(#p3962b93d11)" style="fill: #88ccee; fill-opacity: 0.6; stroke: #ffffff; stroke-opacity: 0.6; stroke-width: 0.339411"/>
    <path d="M 201.074851 51.979848 
L 202.135511 50.919188 
L 203.196171 51.979848 
L 204.256832 50.919188 
L 203.196171 49.858528 
L 204.256832 48.797867 
L 203.196171 47.737207 
L 202.135511 48.797867 
L 201.074851 47.737207 
L 200.014191 48.797867 
L 201.074851 49.858528 
L 200.014191 50.919188 
z
" clip-path="url(#p3962b93d11)" style="fill: #88ccee; fill-opacity: 0.6; stroke: #ffffff; stroke-opacity: 0.6; stroke-width: 0.339411"/>
    <path d="M 202.350033 53.438126 
L 203.410693 52.377466 
L 204.471353 53.438126 
L 205.532014 52.377466 
L 204.471353 51.316805 
L 205.532014 50.256145 
L 204.471353 49.195485 
L 203.410693 50.256145 
L 202.350033 49.195485 
L 201.289373 50.256145 
L 202.350033 51.316805 
L 201.289373 52.377466 
z
" clip-path="url(#p3962b93d11)" style="fill: #88ccee; fill-opacity: 0.6; stroke: #ffffff; stroke-opacity: 0.6; stroke-width: 0.339411"/>
    <path d="M 206.546874 54.281624 
L 207.607534 53.220964 
L 208.668194 54.281624 
L 209.728854 53.220964 
L 208.668194 52.160303 
L 209.728854 51.099643 
L 208.668194 50.038983 
L 207.607534 51.099643 
L 206.546874 50.038983 
L 205.486214 51.099643 
L 206.546874 52.160303 
L 205.486214 53.220964 
z
" clip-path="url(#p3962b93d11)" style="fill: #88ccee; fill-opacity: 0.6; stroke: #ffffff; stroke-opacity: 0.6; stroke-width: 0.339411"/>
    <path d="M 202.295681 59.690386 
L 203.356341 58.629726 
L 204.417001 59.690386 
L 205.477661 58.629726 
L 204.417001 57.569065 
L 205.477661 56.508405 
L 204.417001 55.447745 
L 203.356341 56.508405 
L 202.295681 55.447745 
L 201.23502 56.508405 
L 202.295681 57.569065 
L 201.23502 58.629726 
z
" clip-path="url(#p3962b93d11)" style="fill: #88ccee; fill-opacity: 0.6; stroke: #ffffff; stroke-opacity: 0.6; stroke-width: 0.339411"/>
    <path d="M 164.064549 74.923679 
L 165.125209 73.863019 
L 166.18587 74.923679 
L 167.24653 73.863019 
L 166.18587 72.802359 
L 167.24653 71.741699 
L 166.18587 70.681038 
L 165.125209 71.741699 
L 164.064549 70.681038 
L 163.003889 71.741699 
L 164.064549 72.802359 
L 163.003889 73.863019 
z
" clip-path="url(#p3962b93d11)" style="fill: #88ccee; fill-opacity: 0.6; stroke: #ffffff; stroke-opacity: 0.6; stroke-width: 0.339411"/>
    <path d="M 211.386899 61.811008 
L 212.44756 60.750348 
L 213.50822 61.811008 
L 214.56888 60.750348 
L 213.50822 59.689687 
L 214.56888 58.629027 
L 213.50822 57.568367 
L 212.44756 58.629027 
L 211.386899 57.568367 
L 210.326239 58.629027 
L 211.386899 59.689687 
L 210.326239 60.750348 
z
" clip-path="url(#p3962b93d11)" style="fill: #88ccee; fill-opacity: 0.6; stroke: #ffffff; stroke-opacity: 0.6; stroke-width: 0.339411"/>
    <path d="M 214.804686 34.980188 
L 215.865346 33.919528 
L 216.926006 34.980188 
L 217.986666 33.919528 
L 216.926006 32.858868 
L 217.986666 31.798207 
L 216.926006 30.737547 
L 215.865346 31.798207 
L 214.804686 30.737547 
L 213.744026 31.798207 
L 214.804686 32.858868 
L 213.744026 33.919528 
z
" clip-path="url(#p3962b93d11)" style="fill: #88ccee; fill-opacity: 0.6; stroke: #ffffff; stroke-opacity: 0.6; stroke-width: 0.339411"/>
    <path d="M 203.551143 86.79247 
L 204.611803 85.731809 
L 205.672463 86.79247 
L 206.733123 85.731809 
L 205.672463 84.671149 
L 206.733123 83.610489 
L 205.672463 82.549829 
L 204.611803 83.610489 
L 203.551143 82.549829 
L 202.490483 83.610489 
L 203.551143 84.671149 
L 202.490483 85.731809 
z
" clip-path="url(#p3962b93d11)" style="fill: #88ccee; fill-opacity: 0.6; stroke: #ffffff; stroke-opacity: 0.6; stroke-width: 0.339411"/>
    <path d="M 188.654597 56.881262 
L 189.715257 55.820601 
L 190.775917 56.881262 
L 191.836577 55.820601 
L 190.775917 54.759941 
L 191.836577 53.699281 
L 190.775917 52.638621 
L 189.715257 53.699281 
L 188.654597 52.638621 
L 187.593936 53.699281 
L 188.654597 54.759941 
L 187.593936 55.820601 
z
" clip-path="url(#p3962b93d11)" style="fill: #88ccee; fill-opacity: 0.6; stroke: #ffffff; stroke-opacity: 0.6; stroke-width: 0.339411"/>
    <path d="M 209.324139 61.316967 
L 210.384799 60.256307 
L 211.445459 61.316967 
L 212.506119 60.256307 
L 211.445459 59.195647 
L 212.506119 58.134987 
L 211.445459 57.074327 
L 210.384799 58.134987 
L 209.324139 57.074327 
L 208.263478 58.134987 
L 209.324139 59.195647 
L 208.263478 60.256307 
z
" clip-path="url(#p3962b93d11)" style="fill: #88ccee; fill-opacity: 0.6; stroke: #ffffff; stroke-opacity: 0.6; stroke-width: 0.339411"/>
    <path d="M 184.845797 78.550643 
L 185.906457 77.489983 
L 186.967117 78.550643 
L 188.027777 77.489983 
L 186.967117 76.429323 
L 188.027777 75.368663 
L 186.967117 74.308003 
L 185.906457 75.368663 
L 184.845797 74.308003 
L 183.785136 75.368663 
L 184.845797 76.429323 
L 183.785136 77.489983 
z
" clip-path="url(#p3962b93d11)" style="fill: #88ccee; fill-opacity: 0.6; stroke: #ffffff; stroke-opacity: 0.6; stroke-width: 0.339411"/>
    <path d="M 214.218638 56.768654 
L 215.279298 55.707994 
L 216.339958 56.768654 
L 217.400619 55.707994 
L 216.339958 54.647334 
L 217.400619 53.586674 
L 216.339958 52.526013 
L 215.279298 53.586674 
L 214.218638 52.526013 
L 213.157978 53.586674 
L 214.218638 54.647334 
L 213.157978 55.707994 
z
" clip-path="url(#p3962b93d11)" style="fill: #88ccee; fill-opacity: 0.6; stroke: #ffffff; stroke-opacity: 0.6; stroke-width: 0.339411"/>
    <path d="M 210.568622 60.077581 
L 211.629283 59.01692 
L 212.689943 60.077581 
L 213.750603 59.01692 
L 212.689943 57.95626 
L 213.750603 56.8956 
L 212.689943 55.83494 
L 211.629283 56.8956 
L 210.568622 55.83494 
L 209.507962 56.8956 
L 210.568622 57.95626 
L 209.507962 59.01692 
z
" clip-path="url(#p3962b93d11)" style="fill: #88ccee; fill-opacity: 0.6; stroke: #ffffff; stroke-opacity: 0.6; stroke-width: 0.339411"/>
    <path d="M 206.943905 37.361013 
L 208.004565 36.300353 
L 209.065225 37.361013 
L 210.125886 36.300353 
L 209.065225 35.239693 
L 210.125886 34.179033 
L 209.065225 33.118373 
L 208.004565 34.179033 
L 206.943905 33.118373 
L 205.883245 34.179033 
L 206.943905 35.239693 
L 205.883245 36.300353 
z
" clip-path="url(#p3962b93d11)" style="fill: #88ccee; fill-opacity: 0.6; stroke: #ffffff; stroke-opacity: 0.6; stroke-width: 0.339411"/>
    <path d="M 208.782748 57.566147 
L 209.843408 56.505487 
L 210.904068 57.566147 
L 211.964728 56.505487 
L 210.904068 55.444826 
L 211.964728 54.384166 
L 210.904068 53.323506 
L 209.843408 54.384166 
L 208.782748 53.323506 
L 207.722088 54.384166 
L 208.782748 55.444826 
L 207.722088 56.505487 
z
" clip-path="url(#p3962b93d11)" style="fill: #88ccee; fill-opacity: 0.6; stroke: #ffffff; stroke-opacity: 0.6; stroke-width: 0.339411"/>
    <path d="M 175.250111 51.340522 
L 176.310771 50.279862 
L 177.371431 51.340522 
L 178.432091 50.279862 
L 177.371431 49.219202 
L 178.432091 48.158541 
L 177.371431 47.097881 
L 176.310771 48.158541 
L 175.250111 47.097881 
L 174.189451 48.158541 
L 175.250111 49.219202 
L 174.189451 50.279862 
z
" clip-path="url(#p3962b93d11)" style="fill: #88ccee; fill-opacity: 0.6; stroke: #ffffff; stroke-opacity: 0.6; stroke-width: 0.339411"/>
    <path d="M 192.075227 68.338097 
L 193.135887 67.277437 
L 194.196547 68.338097 
L 195.257207 67.277437 
L 194.196547 66.216777 
L 195.257207 65.156117 
L 194.196547 64.095457 
L 193.135887 65.156117 
L 192.075227 64.095457 
L 191.014567 65.156117 
L 192.075227 66.216777 
L 191.014567 67.277437 
z
" clip-path="url(#p3962b93d11)" style="fill: #88ccee; fill-opacity: 0.6; stroke: #ffffff; stroke-opacity: 0.6; stroke-width: 0.339411"/>
    <path d="M 208.281214 55.686422 
L 209.341874 54.625762 
L 210.402534 55.686422 
L 211.463195 54.625762 
L 210.402534 53.565102 
L 211.463195 52.504442 
L 210.402534 51.443781 
L 209.341874 52.504442 
L 208.281214 51.443781 
L 207.220554 52.504442 
L 208.281214 53.565102 
L 207.220554 54.625762 
z
" clip-path="url(#p3962b93d11)" style="fill: #88ccee; fill-opacity: 0.6; stroke: #ffffff; stroke-opacity: 0.6; stroke-width: 0.339411"/>
    <path d="M 202.560582 58.470389 
L 203.621242 57.409729 
L 204.681902 58.470389 
L 205.742562 57.409729 
L 204.681902 56.349069 
L 205.742562 55.288408 
L 204.681902 54.227748 
L 203.621242 55.288408 
L 202.560582 54.227748 
L 201.499922 55.288408 
L 202.560582 56.349069 
L 201.499922 57.409729 
z
" clip-path="url(#p3962b93d11)" style="fill: #88ccee; fill-opacity: 0.6; stroke: #ffffff; stroke-opacity: 0.6; stroke-width: 0.339411"/>
    <path d="M 218.500095 56.733237 
L 219.560755 55.672577 
L 220.621416 56.733237 
L 221.682076 55.672577 
L 220.621416 54.611917 
L 221.682076 53.551257 
L 220.621416 52.490596 
L 219.560755 53.551257 
L 218.500095 52.490596 
L 217.439435 53.551257 
L 218.500095 54.611917 
L 217.439435 55.672577 
z
" clip-path="url(#p3962b93d11)" style="fill: #88ccee; fill-opacity: 0.6; stroke: #ffffff; stroke-opacity: 0.6; stroke-width: 0.339411"/>
    <path d="M 207.199052 59.55635 
L 208.259712 58.495689 
L 209.320372 59.55635 
L 210.381032 58.495689 
L 209.320372 57.435029 
L 210.381032 56.374369 
L 209.320372 55.313709 
L 208.259712 56.374369 
L 207.199052 55.313709 
L 206.138392 56.374369 
L 207.199052 57.435029 
L 206.138392 58.495689 
z
" clip-path="url(#p3962b93d11)" style="fill: #88ccee; fill-opacity: 0.6; stroke: #ffffff; stroke-opacity: 0.6; stroke-width: 0.339411"/>
    <path d="M 185.149691 93.755617 
L 186.210351 92.694957 
L 187.271012 93.755617 
L 188.331672 92.694957 
L 187.271012 91.634297 
L 188.331672 90.573636 
L 187.271012 89.512976 
L 186.210351 90.573636 
L 185.149691 89.512976 
L 184.089031 90.573636 
L 185.149691 91.634297 
L 184.089031 92.694957 
z
" clip-path="url(#p3962b93d11)" style="fill: #88ccee; fill-opacity: 0.6; stroke: #ffffff; stroke-opacity: 0.6; stroke-width: 0.339411"/>
    <path d="M 211.302018 41.033898 
L 212.362679 39.973237 
L 213.423339 41.033898 
L 214.483999 39.973237 
L 213.423339 38.912577 
L 214.483999 37.851917 
L 213.423339 36.791257 
L 212.362679 37.851917 
L 211.302018 36.791257 
L 210.241358 37.851917 
L 211.302018 38.912577 
L 210.241358 39.973237 
z
" clip-path="url(#p3962b93d11)" style="fill: #88ccee; fill-opacity: 0.6; stroke: #ffffff; stroke-opacity: 0.6; stroke-width: 0.339411"/>
    <path d="M 178.393446 50.182768 
L 179.454106 49.122108 
L 180.514767 50.182768 
L 181.575427 49.122108 
L 180.514767 48.061447 
L 181.575427 47.000787 
L 180.514767 45.940127 
L 179.454106 47.000787 
L 178.393446 45.940127 
L 177.332786 47.000787 
L 178.393446 48.061447 
L 177.332786 49.122108 
z
" clip-path="url(#p3962b93d11)" style="fill: #88ccee; fill-opacity: 0.6; stroke: #ffffff; stroke-opacity: 0.6; stroke-width: 0.339411"/>
    <path d="M 211.790872 39.648726 
L 212.851532 38.588065 
L 213.912192 39.648726 
L 214.972852 38.588065 
L 213.912192 37.527405 
L 214.972852 36.466745 
L 213.912192 35.406085 
L 212.851532 36.466745 
L 211.790872 35.406085 
L 210.730211 36.466745 
L 211.790872 37.527405 
L 210.730211 38.588065 
z
" clip-path="url(#p3962b93d11)" style="fill: #88ccee; fill-opacity: 0.6; stroke: #ffffff; stroke-opacity: 0.6; stroke-width: 0.339411"/>
    <path d="M 204.135724 27.689561 
L 205.196384 26.6289 
L 206.257044 27.689561 
L 207.317704 26.6289 
L 206.257044 25.56824 
L 207.317704 24.50758 
L 206.257044 23.44692 
L 205.196384 24.50758 
L 204.135724 23.44692 
L 203.075063 24.50758 
L 204.135724 25.56824 
L 203.075063 26.6289 
z
" clip-path="url(#p3962b93d11)" style="fill: #88ccee; fill-opacity: 0.6; stroke: #ffffff; stroke-opacity: 0.6; stroke-width: 0.339411"/>
    <path d="M 212.030167 44.236237 
L 213.090827 43.175577 
L 214.151487 44.236237 
L 215.212147 43.175577 
L 214.151487 42.114917 
L 215.212147 41.054257 
L 214.151487 39.993597 
L 213.090827 41.054257 
L 212.030167 39.993597 
L 210.969506 41.054257 
L 212.030167 42.114917 
L 210.969506 43.175577 
z
" clip-path="url(#p3962b93d11)" style="fill: #88ccee; fill-opacity: 0.6; stroke: #ffffff; stroke-opacity: 0.6; stroke-width: 0.339411"/>
    <path d="M 182.513485 65.31683 
L 183.574145 64.256169 
L 184.634805 65.31683 
L 185.695465 64.256169 
L 184.634805 63.195509 
L 185.695465 62.134849 
L 184.634805 61.074189 
L 183.574145 62.134849 
L 182.513485 61.074189 
L 181.452825 62.134849 
L 182.513485 63.195509 
L 181.452825 64.256169 
z
" clip-path="url(#p3962b93d11)" style="fill: #88ccee; fill-opacity: 0.6; stroke: #ffffff; stroke-opacity: 0.6; stroke-width: 0.339411"/>
    <path d="M 182.139772 63.211483 
L 183.200432 62.150823 
L 184.261093 63.211483 
L 185.321753 62.150823 
L 184.261093 61.090163 
L 185.321753 60.029503 
L 184.261093 58.968842 
L 183.200432 60.029503 
L 182.139772 58.968842 
L 181.079112 60.029503 
L 182.139772 61.090163 
L 181.079112 62.150823 
z
" clip-path="url(#p3962b93d11)" style="fill: #88ccee; fill-opacity: 0.6; stroke: #ffffff; stroke-opacity: 0.6; stroke-width: 0.339411"/>
    <path d="M 211.623102 55.580188 
L 212.683762 54.519528 
L 213.744422 55.580188 
L 214.805083 54.519528 
L 213.744422 53.458868 
L 214.805083 52.398208 
L 213.744422 51.337547 
L 212.683762 52.398208 
L 211.623102 51.337547 
L 210.562442 52.398208 
L 211.623102 53.458868 
L 210.562442 54.519528 
z
" clip-path="url(#p3962b93d11)" style="fill: #88ccee; fill-opacity: 0.6; stroke: #ffffff; stroke-opacity: 0.6; stroke-width: 0.339411"/>
    <path d="M 206.286509 72.39729 
L 207.347169 71.33663 
L 208.407829 72.39729 
L 209.468489 71.33663 
L 208.407829 70.27597 
L 209.468489 69.21531 
L 208.407829 68.15465 
L 207.347169 69.21531 
L 206.286509 68.15465 
L 205.225848 69.21531 
L 206.286509 70.27597 
L 205.225848 71.33663 
z
" clip-path="url(#p3962b93d11)" style="fill: #88ccee; fill-opacity: 0.6; stroke: #ffffff; stroke-opacity: 0.6; stroke-width: 0.339411"/>
    <path d="M 196.207318 41.372604 
L 197.267978 40.311943 
L 198.328638 41.372604 
L 199.389298 40.311943 
L 198.328638 39.251283 
L 199.389298 38.190623 
L 198.328638 37.129963 
L 197.267978 38.190623 
L 196.207318 37.129963 
L 195.146658 38.190623 
L 196.207318 39.251283 
L 195.146658 40.311943 
z
" clip-path="url(#p3962b93d11)" style="fill: #88ccee; fill-opacity: 0.6; stroke: #ffffff; stroke-opacity: 0.6; stroke-width: 0.339411"/>
    <path d="M 195.977666 61.095548 
L 197.038326 60.034888 
L 198.098987 61.095548 
L 199.159647 60.034888 
L 198.098987 58.974228 
L 199.159647 57.913568 
L 198.098987 56.852907 
L 197.038326 57.913568 
L 195.977666 56.852907 
L 194.917006 57.913568 
L 195.977666 58.974228 
L 194.917006 60.034888 
z
" clip-path="url(#p3962b93d11)" style="fill: #88ccee; fill-opacity: 0.6; stroke: #ffffff; stroke-opacity: 0.6; stroke-width: 0.339411"/>
    <path d="M 198.866567 58.157556 
L 199.927227 57.096896 
L 200.987887 58.157556 
L 202.048547 57.096896 
L 200.987887 56.036235 
L 202.048547 54.975575 
L 200.987887 53.914915 
L 199.927227 54.975575 
L 198.866567 53.914915 
L 197.805907 54.975575 
L 198.866567 56.036235 
L 197.805907 57.096896 
z
" clip-path="url(#p3962b93d11)" style="fill: #88ccee; fill-opacity: 0.6; stroke: #ffffff; stroke-opacity: 0.6; stroke-width: 0.339411"/>
    <path d="M 212.026161 50.057453 
L 213.086821 48.996793 
L 214.147481 50.057453 
L 215.208141 48.996793 
L 214.147481 47.936133 
L 215.208141 46.875473 
L 214.147481 45.814813 
L 213.086821 46.875473 
L 212.026161 45.814813 
L 210.965501 46.875473 
L 212.026161 47.936133 
L 210.965501 48.996793 
z
" clip-path="url(#p3962b93d11)" style="fill: #88ccee; fill-opacity: 0.6; stroke: #ffffff; stroke-opacity: 0.6; stroke-width: 0.339411"/>
    <path d="M 205.738 62.36373 
L 206.79866 61.303069 
L 207.85932 62.36373 
L 208.91998 61.303069 
L 207.85932 60.242409 
L 208.91998 59.181749 
L 207.85932 58.121089 
L 206.79866 59.181749 
L 205.738 58.121089 
L 204.677339 59.181749 
L 205.738 60.242409 
L 204.677339 61.303069 
z
" clip-path="url(#p3962b93d11)" style="fill: #88ccee; fill-opacity: 0.6; stroke: #ffffff; stroke-opacity: 0.6; stroke-width: 0.339411"/>
    <path d="M 209.737032 36.81455 
L 210.797692 35.75389 
L 211.858352 36.81455 
L 212.919012 35.75389 
L 211.858352 34.69323 
L 212.919012 33.632569 
L 211.858352 32.571909 
L 210.797692 33.632569 
L 209.737032 32.571909 
L 208.676371 33.632569 
L 209.737032 34.69323 
L 208.676371 35.75389 
z
" clip-path="url(#p3962b93d11)" style="fill: #88ccee; fill-opacity: 0.6; stroke: #ffffff; stroke-opacity: 0.6; stroke-width: 0.339411"/>
    <path d="M 212.460053 74.692741 
L 213.520713 73.632081 
L 214.581373 74.692741 
L 215.642034 73.632081 
L 214.581373 72.57142 
L 215.642034 71.51076 
L 214.581373 70.4501 
L 213.520713 71.51076 
L 212.460053 70.4501 
L 211.399393 71.51076 
L 212.460053 72.57142 
L 211.399393 73.632081 
z
" clip-path="url(#p3962b93d11)" style="fill: #88ccee; fill-opacity: 0.6; stroke: #ffffff; stroke-opacity: 0.6; stroke-width: 0.339411"/>
    <path d="M 195.812067 41.182634 
L 196.872727 40.121974 
L 197.933388 41.182634 
L 198.994048 40.121974 
L 197.933388 39.061314 
L 198.994048 38.000654 
L 197.933388 36.939993 
L 196.872727 38.000654 
L 195.812067 36.939993 
L 194.751407 38.000654 
L 195.812067 39.061314 
L 194.751407 40.121974 
z
" clip-path="url(#p3962b93d11)" style="fill: #88ccee; fill-opacity: 0.6; stroke: #ffffff; stroke-opacity: 0.6; stroke-width: 0.339411"/>
    <path d="M 214.701042 88.70777 
L 215.761703 87.64711 
L 216.822363 88.70777 
L 217.883023 87.64711 
L 216.822363 86.586449 
L 217.883023 85.525789 
L 216.822363 84.465129 
L 215.761703 85.525789 
L 214.701042 84.465129 
L 213.640382 85.525789 
L 214.701042 86.586449 
L 213.640382 87.64711 
z
" clip-path="url(#p3962b93d11)" style="fill: #88ccee; fill-opacity: 0.6; stroke: #ffffff; stroke-opacity: 0.6; stroke-width: 0.339411"/>
    <path d="M 205.252588 34.629918 
L 206.313249 33.569258 
L 207.373909 34.629918 
L 208.434569 33.569258 
L 207.373909 32.508598 
L 208.434569 31.447938 
L 207.373909 30.387278 
L 206.313249 31.447938 
L 205.252588 30.387278 
L 204.191928 31.447938 
L 205.252588 32.508598 
L 204.191928 33.569258 
z
" clip-path="url(#p3962b93d11)" style="fill: #88ccee; fill-opacity: 0.6; stroke: #ffffff; stroke-opacity: 0.6; stroke-width: 0.339411"/>
    <path d="M 199.956193 62.296939 
L 201.016853 61.236279 
L 202.077513 62.296939 
L 203.138173 61.236279 
L 202.077513 60.175618 
L 203.138173 59.114958 
L 202.077513 58.054298 
L 201.016853 59.114958 
L 199.956193 58.054298 
L 198.895532 59.114958 
L 199.956193 60.175618 
L 198.895532 61.236279 
z
" clip-path="url(#p3962b93d11)" style="fill: #88ccee; fill-opacity: 0.6; stroke: #ffffff; stroke-opacity: 0.6; stroke-width: 0.339411"/>
    <path d="M 203.71311 40.842139 
L 204.77377 39.781479 
L 205.83443 40.842139 
L 206.89509 39.781479 
L 205.83443 38.720819 
L 206.89509 37.660159 
L 205.83443 36.599498 
L 204.77377 37.660159 
L 203.71311 36.599498 
L 202.65245 37.660159 
L 203.71311 38.720819 
L 202.65245 39.781479 
z
" clip-path="url(#p3962b93d11)" style="fill: #88ccee; fill-opacity: 0.6; stroke: #ffffff; stroke-opacity: 0.6; stroke-width: 0.339411"/>
    <path d="M 207.229446 37.649311 
L 208.290106 36.588651 
L 209.350766 37.649311 
L 210.411426 36.588651 
L 209.350766 35.527991 
L 210.411426 34.467331 
L 209.350766 33.406671 
L 208.290106 34.467331 
L 207.229446 33.406671 
L 206.168786 34.467331 
L 207.229446 35.527991 
L 206.168786 36.588651 
z
" clip-path="url(#p3962b93d11)" style="fill: #88ccee; fill-opacity: 0.6; stroke: #ffffff; stroke-opacity: 0.6; stroke-width: 0.339411"/>
    <path d="M 216.034271 36.561803 
L 217.094931 35.501143 
L 218.155591 36.561803 
L 219.216252 35.501143 
L 218.155591 34.440483 
L 219.216252 33.379822 
L 218.155591 32.319162 
L 217.094931 33.379822 
L 216.034271 32.319162 
L 214.973611 33.379822 
L 216.034271 34.440483 
L 214.973611 35.501143 
z
" clip-path="url(#p3962b93d11)" style="fill: #88ccee; fill-opacity: 0.6; stroke: #ffffff; stroke-opacity: 0.6; stroke-width: 0.339411"/>
    <path d="M 215.14626 74.858153 
L 216.20692 73.797492 
L 217.26758 74.858153 
L 218.328241 73.797492 
L 217.26758 72.736832 
L 218.328241 71.676172 
L 217.26758 70.615512 
L 216.20692 71.676172 
L 215.14626 70.615512 
L 214.0856 71.676172 
L 215.14626 72.736832 
L 214.0856 73.797492 
z
" clip-path="url(#p3962b93d11)" style="fill: #88ccee; fill-opacity: 0.6; stroke: #ffffff; stroke-opacity: 0.6; stroke-width: 0.339411"/>
    <path d="M 205.356181 35.823385 
L 206.416842 34.762725 
L 207.477502 35.823385 
L 208.538162 34.762725 
L 207.477502 33.702065 
L 208.538162 32.641405 
L 207.477502 31.580745 
L 206.416842 32.641405 
L 205.356181 31.580745 
L 204.295521 32.641405 
L 205.356181 33.702065 
L 204.295521 34.762725 
z
" clip-path="url(#p3962b93d11)" style="fill: #88ccee; fill-opacity: 0.6; stroke: #ffffff; stroke-opacity: 0.6; stroke-width: 0.339411"/>
    <path d="M 150.522208 53.612503 
L 151.582868 52.551843 
L 152.643528 53.612503 
L 153.704188 52.551843 
L 152.643528 51.491183 
L 153.704188 50.430523 
L 152.643528 49.369863 
L 151.582868 50.430523 
L 150.522208 49.369863 
L 149.461548 50.430523 
L 150.522208 51.491183 
L 149.461548 52.551843 
z
" clip-path="url(#p3962b93d11)" style="fill: #88ccee; fill-opacity: 0.6; stroke: #ffffff; stroke-opacity: 0.6; stroke-width: 0.339411"/>
    <path d="M 216.752931 56.672524 
L 217.813591 55.611864 
L 218.874251 56.672524 
L 219.934911 55.611864 
L 218.874251 54.551203 
L 219.934911 53.490543 
L 218.874251 52.429883 
L 217.813591 53.490543 
L 216.752931 52.429883 
L 215.692271 53.490543 
L 216.752931 54.551203 
L 215.692271 55.611864 
z
" clip-path="url(#p3962b93d11)" style="fill: #88ccee; fill-opacity: 0.6; stroke: #ffffff; stroke-opacity: 0.6; stroke-width: 0.339411"/>
    <path d="M 208.700017 40.733552 
L 209.760677 39.672892 
L 210.821337 40.733552 
L 211.881998 39.672892 
L 210.821337 38.612231 
L 211.881998 37.551571 
L 210.821337 36.490911 
L 209.760677 37.551571 
L 208.700017 36.490911 
L 207.639357 37.551571 
L 208.700017 38.612231 
L 207.639357 39.672892 
z
" clip-path="url(#p3962b93d11)" style="fill: #88ccee; fill-opacity: 0.6; stroke: #ffffff; stroke-opacity: 0.6; stroke-width: 0.339411"/>
    <path d="M 171.290606 106.388447 
L 172.351266 105.327787 
L 173.411926 106.388447 
L 174.472586 105.327787 
L 173.411926 104.267127 
L 174.472586 103.206466 
L 173.411926 102.145806 
L 172.351266 103.206466 
L 171.290606 102.145806 
L 170.229946 103.206466 
L 171.290606 104.267127 
L 170.229946 105.327787 
z
" clip-path="url(#p3962b93d11)" style="fill: #88ccee; fill-opacity: 0.6; stroke: #ffffff; stroke-opacity: 0.6; stroke-width: 0.339411"/>
    <path d="M 198.926813 44.069316 
L 199.987473 43.008656 
L 201.048134 44.069316 
L 202.108794 43.008656 
L 201.048134 41.947996 
L 202.108794 40.887335 
L 201.048134 39.826675 
L 199.987473 40.887335 
L 198.926813 39.826675 
L 197.866153 40.887335 
L 198.926813 41.947996 
L 197.866153 43.008656 
z
" clip-path="url(#p3962b93d11)" style="fill: #88ccee; fill-opacity: 0.6; stroke: #ffffff; stroke-opacity: 0.6; stroke-width: 0.339411"/>
    <path d="M 214.763434 78.333968 
L 215.824094 77.273308 
L 216.884755 78.333968 
L 217.945415 77.273308 
L 216.884755 76.212648 
L 217.945415 75.151988 
L 216.884755 74.091327 
L 215.824094 75.151988 
L 214.763434 74.091327 
L 213.702774 75.151988 
L 214.763434 76.212648 
L 213.702774 77.273308 
z
" clip-path="url(#p3962b93d11)" style="fill: #88ccee; fill-opacity: 0.6; stroke: #ffffff; stroke-opacity: 0.6; stroke-width: 0.339411"/>
    <path d="M 173.111907 51.413333 
L 174.172567 50.352673 
L 175.233227 51.413333 
L 176.293887 50.352673 
L 175.233227 49.292012 
L 176.293887 48.231352 
L 175.233227 47.170692 
L 174.172567 48.231352 
L 173.111907 47.170692 
L 172.051247 48.231352 
L 173.111907 49.292012 
L 172.051247 50.352673 
z
" clip-path="url(#p3962b93d11)" style="fill: #88ccee; fill-opacity: 0.6; stroke: #ffffff; stroke-opacity: 0.6; stroke-width: 0.339411"/>
    <path d="M 203.002095 54.659445 
L 204.062755 53.598785 
L 205.123415 54.659445 
L 206.184076 53.598785 
L 205.123415 52.538125 
L 206.184076 51.477465 
L 205.123415 50.416805 
L 204.062755 51.477465 
L 203.002095 50.416805 
L 201.941435 51.477465 
L 203.002095 52.538125 
L 201.941435 53.598785 
z
" clip-path="url(#p3962b93d11)" style="fill: #88ccee; fill-opacity: 0.6; stroke: #ffffff; stroke-opacity: 0.6; stroke-width: 0.339411"/>
    <path d="M 211.753466 40.986821 
L 212.814126 39.926161 
L 213.874787 40.986821 
L 214.935447 39.926161 
L 213.874787 38.8655 
L 214.935447 37.80484 
L 213.874787 36.74418 
L 212.814126 37.80484 
L 211.753466 36.74418 
L 210.692806 37.80484 
L 211.753466 38.8655 
L 210.692806 39.926161 
z
" clip-path="url(#p3962b93d11)" style="fill: #88ccee; fill-opacity: 0.6; stroke: #ffffff; stroke-opacity: 0.6; stroke-width: 0.339411"/>
    <path d="M 197.709125 95.995739 
L 198.769786 94.935079 
L 199.830446 95.995739 
L 200.891106 94.935079 
L 199.830446 93.874419 
L 200.891106 92.813759 
L 199.830446 91.753098 
L 198.769786 92.813759 
L 197.709125 91.753098 
L 196.648465 92.813759 
L 197.709125 93.874419 
L 196.648465 94.935079 
z
" clip-path="url(#p3962b93d11)" style="fill: #88ccee; fill-opacity: 0.6; stroke: #ffffff; stroke-opacity: 0.6; stroke-width: 0.339411"/>
    <path d="M 214.688394 66.207917 
L 215.749054 65.147256 
L 216.809714 66.207917 
L 217.870375 65.147256 
L 216.809714 64.086596 
L 217.870375 63.025936 
L 216.809714 61.965276 
L 215.749054 63.025936 
L 214.688394 61.965276 
L 213.627734 63.025936 
L 214.688394 64.086596 
L 213.627734 65.147256 
z
" clip-path="url(#p3962b93d11)" style="fill: #88ccee; fill-opacity: 0.6; stroke: #ffffff; stroke-opacity: 0.6; stroke-width: 0.339411"/>
    <path d="M 206.199784 55.672122 
L 207.260444 54.611462 
L 208.321105 55.672122 
L 209.381765 54.611462 
L 208.321105 53.550802 
L 209.381765 52.490141 
L 208.321105 51.429481 
L 207.260444 52.490141 
L 206.199784 51.429481 
L 205.139124 52.490141 
L 206.199784 53.550802 
L 205.139124 54.611462 
z
" clip-path="url(#p3962b93d11)" style="fill: #88ccee; fill-opacity: 0.6; stroke: #ffffff; stroke-opacity: 0.6; stroke-width: 0.339411"/>
   </g>
   <g id="matplotlib.axis_1">
    <g id="xtick_1">
     <g id="line2d_1">
      <defs>
       <path id="m1bfaca990c" d="M 0 0 
L 0 8 
" style="stroke: #000000"/>
      </defs>
      <g>
       <use xlink:href="#m1bfaca990c" x="95.187701" y="192.727559" style="stroke: #000000"/>
      </g>
     </g>
     <g id="text_1">
      <!-- 20 -->
      <g transform="translate(82.524889 213.345684) scale(0.12 -0.12)">
       <defs>
        <path id="DejaVuSans-2212" d="M 678 2272 
L 4684 2272 
L 4684 1741 
L 678 1741 
L 678 2272 
z
" transform="scale(0.015625)"/>
        <path id="DejaVuSans-32" d="M 1228 531 
L 3431 531 
L 3431 0 
L 469 0 
L 469 531 
Q 828 903 1448 1529 
Q 2069 2156 2228 2338 
Q 2531 2678 2651 2914 
Q 2772 3150 2772 3378 
Q 2772 3750 2511 3984 
Q 2250 4219 1831 4219 
Q 1534 4219 1204 4116 
Q 875 4013 500 3803 
L 500 4441 
Q 881 4594 1212 4672 
Q 1544 4750 1819 4750 
Q 2544 4750 2975 4387 
Q 3406 4025 3406 3419 
Q 3406 3131 3298 2873 
Q 3191 2616 2906 2266 
Q 2828 2175 2409 1742 
Q 1991 1309 1228 531 
z
" transform="scale(0.015625)"/>
        <path id="DejaVuSans-30" d="M 2034 4250 
Q 1547 4250 1301 3770 
Q 1056 3291 1056 2328 
Q 1056 1369 1301 889 
Q 1547 409 2034 409 
Q 2525 409 2770 889 
Q 3016 1369 3016 2328 
Q 3016 3291 2770 3770 
Q 2525 4250 2034 4250 
z
M 2034 4750 
Q 2819 4750 3233 4129 
Q 3647 3509 3647 2328 
Q 3647 1150 3233 529 
Q 2819 -91 2034 -91 
Q 1250 -91 836 529 
Q 422 1150 422 2328 
Q 422 3509 836 4129 
Q 1250 4750 2034 4750 
z
" transform="scale(0.015625)"/>
       </defs>
       <use xlink:href="#DejaVuSans-2212"/>
       <use xlink:href="#DejaVuSans-32" x="83.789062"/>
       <use xlink:href="#DejaVuSans-30" x="147.412109"/>
      </g>
     </g>
    </g>
    <g id="xtick_2">
     <g id="line2d_2">
      <g>
       <use xlink:href="#m1bfaca990c" x="135.782152" y="192.727559" style="stroke: #000000"/>
      </g>
     </g>
     <g id="text_2">
      <!-- 10 -->
      <g transform="translate(123.119339 213.345684) scale(0.12 -0.12)">
       <defs>
        <path id="DejaVuSans-31" d="M 794 531 
L 1825 531 
L 1825 4091 
L 703 3866 
L 703 4441 
L 1819 4666 
L 2450 4666 
L 2450 531 
L 3481 531 
L 3481 0 
L 794 0 
L 794 531 
z
" transform="scale(0.015625)"/>
       </defs>
       <use xlink:href="#DejaVuSans-2212"/>
       <use xlink:href="#DejaVuSans-31" x="83.789062"/>
       <use xlink:href="#DejaVuSans-30" x="147.412109"/>
      </g>
     </g>
    </g>
    <g id="xtick_3">
     <g id="line2d_3">
      <g>
       <use xlink:href="#m1bfaca990c" x="176.376603" y="192.727559" style="stroke: #000000"/>
      </g>
     </g>
     <g id="text_3">
      <!-- 0 -->
      <g transform="translate(172.559103 213.345684) scale(0.12 -0.12)">
       <use xlink:href="#DejaVuSans-30"/>
      </g>
     </g>
    </g>
    <g id="xtick_4">
     <g id="line2d_4">
      <g>
       <use xlink:href="#m1bfaca990c" x="216.971053" y="192.727559" style="stroke: #000000"/>
      </g>
     </g>
     <g id="text_4">
      <!-- 10 -->
      <g transform="translate(209.336053 213.345684) scale(0.12 -0.12)">
       <use xlink:href="#DejaVuSans-31"/>
       <use xlink:href="#DejaVuSans-30" x="63.623047"/>
      </g>
     </g>
    </g>
    <g id="text_5">
     <!-- PC 1 (18.48%) -->
     <g transform="translate(109.404717 228.959434) scale(0.12 -0.12)">
      <defs>
       <path id="DejaVuSans-50" d="M 1259 4147 
L 1259 2394 
L 2053 2394 
Q 2494 2394 2734 2622 
Q 2975 2850 2975 3272 
Q 2975 3691 2734 3919 
Q 2494 4147 2053 4147 
L 1259 4147 
z
M 628 4666 
L 2053 4666 
Q 2838 4666 3239 4311 
Q 3641 3956 3641 3272 
Q 3641 2581 3239 2228 
Q 2838 1875 2053 1875 
L 1259 1875 
L 1259 0 
L 628 0 
L 628 4666 
z
" transform="scale(0.015625)"/>
       <path id="DejaVuSans-43" d="M 4122 4306 
L 4122 3641 
Q 3803 3938 3442 4084 
Q 3081 4231 2675 4231 
Q 1875 4231 1450 3742 
Q 1025 3253 1025 2328 
Q 1025 1406 1450 917 
Q 1875 428 2675 428 
Q 3081 428 3442 575 
Q 3803 722 4122 1019 
L 4122 359 
Q 3791 134 3420 21 
Q 3050 -91 2638 -91 
Q 1578 -91 968 557 
Q 359 1206 359 2328 
Q 359 3453 968 4101 
Q 1578 4750 2638 4750 
Q 3056 4750 3426 4639 
Q 3797 4528 4122 4306 
z
" transform="scale(0.015625)"/>
       <path id="DejaVuSans-20" transform="scale(0.015625)"/>
       <path id="DejaVuSans-28" d="M 1984 4856 
Q 1566 4138 1362 3434 
Q 1159 2731 1159 2009 
Q 1159 1288 1364 580 
Q 1569 -128 1984 -844 
L 1484 -844 
Q 1016 -109 783 600 
Q 550 1309 550 2009 
Q 550 2706 781 3412 
Q 1013 4119 1484 4856 
L 1984 4856 
z
" transform="scale(0.015625)"/>
       <path id="DejaVuSans-38" d="M 2034 2216 
Q 1584 2216 1326 1975 
Q 1069 1734 1069 1313 
Q 1069 891 1326 650 
Q 1584 409 2034 409 
Q 2484 409 2743 651 
Q 3003 894 3003 1313 
Q 3003 1734 2745 1975 
Q 2488 2216 2034 2216 
z
M 1403 2484 
Q 997 2584 770 2862 
Q 544 3141 544 3541 
Q 544 4100 942 4425 
Q 1341 4750 2034 4750 
Q 2731 4750 3128 4425 
Q 3525 4100 3525 3541 
Q 3525 3141 3298 2862 
Q 3072 2584 2669 2484 
Q 3125 2378 3379 2068 
Q 3634 1759 3634 1313 
Q 3634 634 3220 271 
Q 2806 -91 2034 -91 
Q 1263 -91 848 271 
Q 434 634 434 1313 
Q 434 1759 690 2068 
Q 947 2378 1403 2484 
z
M 1172 3481 
Q 1172 3119 1398 2916 
Q 1625 2713 2034 2713 
Q 2441 2713 2670 2916 
Q 2900 3119 2900 3481 
Q 2900 3844 2670 4047 
Q 2441 4250 2034 4250 
Q 1625 4250 1398 4047 
Q 1172 3844 1172 3481 
z
" transform="scale(0.015625)"/>
       <path id="DejaVuSans-2e" d="M 684 794 
L 1344 794 
L 1344 0 
L 684 0 
L 684 794 
z
" transform="scale(0.015625)"/>
       <path id="DejaVuSans-34" d="M 2419 4116 
L 825 1625 
L 2419 1625 
L 2419 4116 
z
M 2253 4666 
L 3047 4666 
L 3047 1625 
L 3713 1625 
L 3713 1100 
L 3047 1100 
L 3047 0 
L 2419 0 
L 2419 1100 
L 313 1100 
L 313 1709 
L 2253 4666 
z
" transform="scale(0.015625)"/>
       <path id="DejaVuSans-25" d="M 4653 2053 
Q 4381 2053 4226 1822 
Q 4072 1591 4072 1178 
Q 4072 772 4226 539 
Q 4381 306 4653 306 
Q 4919 306 5073 539 
Q 5228 772 5228 1178 
Q 5228 1588 5073 1820 
Q 4919 2053 4653 2053 
z
M 4653 2450 
Q 5147 2450 5437 2106 
Q 5728 1763 5728 1178 
Q 5728 594 5436 251 
Q 5144 -91 4653 -91 
Q 4153 -91 3862 251 
Q 3572 594 3572 1178 
Q 3572 1766 3864 2108 
Q 4156 2450 4653 2450 
z
M 1428 4353 
Q 1159 4353 1004 4120 
Q 850 3888 850 3481 
Q 850 3069 1003 2837 
Q 1156 2606 1428 2606 
Q 1700 2606 1854 2837 
Q 2009 3069 2009 3481 
Q 2009 3884 1853 4118 
Q 1697 4353 1428 4353 
z
M 4250 4750 
L 4750 4750 
L 1831 -91 
L 1331 -91 
L 4250 4750 
z
M 1428 4750 
Q 1922 4750 2215 4408 
Q 2509 4066 2509 3481 
Q 2509 2891 2217 2550 
Q 1925 2209 1428 2209 
Q 931 2209 642 2551 
Q 353 2894 353 3481 
Q 353 4063 643 4406 
Q 934 4750 1428 4750 
z
" transform="scale(0.015625)"/>
       <path id="DejaVuSans-29" d="M 513 4856 
L 1013 4856 
Q 1481 4119 1714 3412 
Q 1947 2706 1947 2009 
Q 1947 1309 1714 600 
Q 1481 -109 1013 -844 
L 513 -844 
Q 928 -128 1133 580 
Q 1338 1288 1338 2009 
Q 1338 2731 1133 3434 
Q 928 4138 513 4856 
z
" transform="scale(0.015625)"/>
      </defs>
      <use xlink:href="#DejaVuSans-50"/>
      <use xlink:href="#DejaVuSans-43" x="60.302734"/>
      <use xlink:href="#DejaVuSans-20" x="130.126953"/>
      <use xlink:href="#DejaVuSans-31" x="161.914062"/>
      <use xlink:href="#DejaVuSans-20" x="225.537109"/>
      <use xlink:href="#DejaVuSans-28" x="257.324219"/>
      <use xlink:href="#DejaVuSans-31" x="296.337891"/>
      <use xlink:href="#DejaVuSans-38" x="359.960938"/>
      <use xlink:href="#DejaVuSans-2e" x="423.583984"/>
      <use xlink:href="#DejaVuSans-34" x="455.371094"/>
      <use xlink:href="#DejaVuSans-38" x="518.994141"/>
      <use xlink:href="#DejaVuSans-25" x="582.617188"/>
      <use xlink:href="#DejaVuSans-29" x="677.636719"/>
     </g>
    </g>
   </g>
   <g id="matplotlib.axis_2">
    <g id="ytick_1">
     <g id="line2d_5">
      <defs>
       <path id="m2c7fa5bfd3" d="M 0 0 
L -8 0 
" style="stroke: #000000"/>
      </defs>
      <g>
       <use xlink:href="#m2c7fa5bfd3" x="59.639375" y="157.179233" style="stroke: #000000"/>
      </g>
     </g>
     <g id="text_6">
      <!-- 20 -->
      <g transform="translate(22.81375 161.738296) scale(0.12 -0.12)">
       <use xlink:href="#DejaVuSans-2212"/>
       <use xlink:href="#DejaVuSans-32" x="83.789062"/>
       <use xlink:href="#DejaVuSans-30" x="147.412109"/>
      </g>
     </g>
    </g>
    <g id="ytick_2">
     <g id="line2d_6">
      <g>
       <use xlink:href="#m2c7fa5bfd3" x="59.639375" y="116.584782" style="stroke: #000000"/>
      </g>
     </g>
     <g id="text_7">
      <!-- 10 -->
      <g transform="translate(22.81375 121.143845) scale(0.12 -0.12)">
       <use xlink:href="#DejaVuSans-2212"/>
       <use xlink:href="#DejaVuSans-31" x="83.789062"/>
       <use xlink:href="#DejaVuSans-30" x="147.412109"/>
      </g>
     </g>
    </g>
    <g id="ytick_3">
     <g id="line2d_7">
      <g>
       <use xlink:href="#m2c7fa5bfd3" x="59.639375" y="75.990331" style="stroke: #000000"/>
      </g>
     </g>
     <g id="text_8">
      <!-- 0 -->
      <g transform="translate(40.504375 80.549394) scale(0.12 -0.12)">
       <use xlink:href="#DejaVuSans-30"/>
      </g>
     </g>
    </g>
    <g id="ytick_4">
     <g id="line2d_8">
      <g>
       <use xlink:href="#m2c7fa5bfd3" x="59.639375" y="35.395881" style="stroke: #000000"/>
      </g>
     </g>
     <g id="text_9">
      <!-- 10 -->
      <g transform="translate(32.869375 39.954943) scale(0.12 -0.12)">
       <use xlink:href="#DejaVuSans-31"/>
       <use xlink:href="#DejaVuSans-30" x="63.623047"/>
      </g>
     </g>
    </g>
    <g id="text_10">
     <!-- PC 2 (8.85%) -->
     <g transform="translate(16.318125 139.144717) rotate(-90) scale(0.12 -0.12)">
      <defs>
       <path id="DejaVuSans-35" d="M 691 4666 
L 3169 4666 
L 3169 4134 
L 1269 4134 
L 1269 2991 
Q 1406 3038 1543 3061 
Q 1681 3084 1819 3084 
Q 2600 3084 3056 2656 
Q 3513 2228 3513 1497 
Q 3513 744 3044 326 
Q 2575 -91 1722 -91 
Q 1428 -91 1123 -41 
Q 819 9 494 109 
L 494 744 
Q 775 591 1075 516 
Q 1375 441 1709 441 
Q 2250 441 2565 725 
Q 2881 1009 2881 1497 
Q 2881 1984 2565 2268 
Q 2250 2553 1709 2553 
Q 1456 2553 1204 2497 
Q 953 2441 691 2322 
L 691 4666 
z
" transform="scale(0.015625)"/>
      </defs>
      <use xlink:href="#DejaVuSans-50"/>
      <use xlink:href="#DejaVuSans-43" x="60.302734"/>
      <use xlink:href="#DejaVuSans-20" x="130.126953"/>
      <use xlink:href="#DejaVuSans-32" x="161.914062"/>
      <use xlink:href="#DejaVuSans-20" x="225.537109"/>
      <use xlink:href="#DejaVuSans-28" x="257.324219"/>
      <use xlink:href="#DejaVuSans-38" x="296.337891"/>
      <use xlink:href="#DejaVuSans-2e" x="359.960938"/>
      <use xlink:href="#DejaVuSans-38" x="391.748047"/>
      <use xlink:href="#DejaVuSans-35" x="455.371094"/>
      <use xlink:href="#DejaVuSans-25" x="518.994141"/>
      <use xlink:href="#DejaVuSans-29" x="614.013672"/>
     </g>
    </g>
   </g>
   <g id="patch_3">
    <path d="M 59.639375 192.727559 
L 59.639375 7.2 
" style="fill: none; stroke: #000000; stroke-width: 2; stroke-linejoin: miter; stroke-linecap: square"/>
   </g>
   <g id="patch_4">
    <path d="M 59.639375 192.727559 
L 245.166934 192.727559 
" style="fill: none; stroke: #000000; stroke-width: 2; stroke-linejoin: miter; stroke-linecap: square"/>
   </g>
  </g>
 </g>
 <defs>
  <clipPath id="p3962b93d11">
   <rect x="59.639375" y="7.2" width="185.527559" height="185.527559"/>
  </clipPath>
 </defs>
</svg>
