<?xml version="1.0" encoding="utf-8" standalone="no"?>
<!DOCTYPE svg PUBLIC "-//W3C//DTD SVG 1.1//EN"
  "http://www.w3.org/Graphics/SVG/1.1/DTD/svg11.dtd">
<svg xmlns:xlink="http://www.w3.org/1999/xlink" width="242.311309pt" height="238.655059pt" viewBox="0 0 242.311309 238.655059" xmlns="http://www.w3.org/2000/svg" version="1.1">
 <metadata>
  <rdf:RDF xmlns:dc="http://purl.org/dc/elements/1.1/" xmlns:cc="http://creativecommons.org/ns#" xmlns:rdf="http://www.w3.org/1999/02/22-rdf-syntax-ns#">
   <cc:Work>
    <dc:type rdf:resource="http://purl.org/dc/dcmitype/StillImage"/>
    <dc:date>2025-08-27T15:08:15.135457</dc:date>
    <dc:format>image/svg+xml</dc:format>
    <dc:creator>
     <cc:Agent>
      <dc:title>Matplotlib v3.6.2, https://matplotlib.org/</dc:title>
     </cc:Agent>
    </dc:creator>
   </cc:Work>
  </rdf:RDF>
 </metadata>
 <defs>
  <style type="text/css">*{stroke-linejoin: round; stroke-linecap: butt}</style>
 </defs>
 <g id="figure_1">
  <g id="patch_1">
   <path d="M 0 238.655059 
L 242.311309 238.655059 
L 242.311309 0 
L 0 0 
L 0 238.655059 
z
" style="fill: none"/>
  </g>
  <g id="axes_1">
   <g id="patch_2">
    <path d="M 49.58375 192.727559 
L 235.111309 192.727559 
L 235.111309 7.2 
L 49.58375 7.2 
L 49.58375 192.727559 
z
" style="fill: none"/>
   </g>
   <g id="PathCollection_1">
    <path d="M 74.187901 98.56043 
L 75.987901 95.56043 
L 74.187901 92.56043 
L 72.387901 95.56043 
z
" clip-path="url(#p8747993229)" style="fill: #332288; fill-opacity: 0.6; stroke: #ffffff; stroke-opacity: 0.6; stroke-width: 0.339411"/>
    <path d="M 67.430971 105.273073 
L 69.230971 102.273073 
L 67.430971 99.273073 
L 65.630971 102.273073 
z
" clip-path="url(#p8747993229)" style="fill: #332288; fill-opacity: 0.6; stroke: #ffffff; stroke-opacity: 0.6; stroke-width: 0.339411"/>
    <path d="M 80.43818 83.33761 
L 82.23818 80.33761 
L 80.43818 77.33761 
L 78.63818 80.33761 
z
" clip-path="url(#p8747993229)" style="fill: #332288; fill-opacity: 0.6; stroke: #ffffff; stroke-opacity: 0.6; stroke-width: 0.339411"/>
    <path d="M 65.686653 105.646465 
L 67.486653 102.646465 
L 65.686653 99.646465 
L 63.886653 102.646465 
z
" clip-path="url(#p8747993229)" style="fill: #332288; fill-opacity: 0.6; stroke: #ffffff; stroke-opacity: 0.6; stroke-width: 0.339411"/>
    <path d="M 104.683053 102.809903 
L 106.483053 99.809903 
L 104.683053 96.809903 
L 102.883053 99.809903 
z
" clip-path="url(#p8747993229)" style="fill: #332288; fill-opacity: 0.6; stroke: #ffffff; stroke-opacity: 0.6; stroke-width: 0.339411"/>
    <path d="M 139.493299 119.582337 
L 141.293299 116.582337 
L 139.493299 113.582337 
L 137.693299 116.582337 
z
" clip-path="url(#p8747993229)" style="fill: #332288; fill-opacity: 0.6; stroke: #ffffff; stroke-opacity: 0.6; stroke-width: 0.339411"/>
    <path d="M 124.430885 65.267783 
L 126.230885 62.267783 
L 124.430885 59.267783 
L 122.630885 62.267783 
z
" clip-path="url(#p8747993229)" style="fill: #332288; fill-opacity: 0.6; stroke: #ffffff; stroke-opacity: 0.6; stroke-width: 0.339411"/>
    <path d="M 66.195322 113.833738 
L 67.995322 110.833738 
L 66.195322 107.833738 
L 64.395322 110.833738 
z
" clip-path="url(#p8747993229)" style="fill: #332288; fill-opacity: 0.6; stroke: #ffffff; stroke-opacity: 0.6; stroke-width: 0.339411"/>
    <path d="M 94.579689 96.552866 
L 96.379689 93.552866 
L 94.579689 90.552866 
L 92.779689 93.552866 
z
" clip-path="url(#p8747993229)" style="fill: #332288; fill-opacity: 0.6; stroke: #ffffff; stroke-opacity: 0.6; stroke-width: 0.339411"/>
    <path d="M 91.865006 103.084641 
L 93.665006 100.084641 
L 91.865006 97.084641 
L 90.065006 100.084641 
z
" clip-path="url(#p8747993229)" style="fill: #332288; fill-opacity: 0.6; stroke: #ffffff; stroke-opacity: 0.6; stroke-width: 0.339411"/>
    <path d="M 96.9188 97.280923 
L 98.7188 94.280923 
L 96.9188 91.280923 
L 95.1188 94.280923 
z
" clip-path="url(#p8747993229)" style="fill: #332288; fill-opacity: 0.6; stroke: #ffffff; stroke-opacity: 0.6; stroke-width: 0.339411"/>
    <path d="M 93.286169 93.956883 
L 95.086169 90.956883 
L 93.286169 87.956883 
L 91.486169 90.956883 
z
" clip-path="url(#p8747993229)" style="fill: #332288; fill-opacity: 0.6; stroke: #ffffff; stroke-opacity: 0.6; stroke-width: 0.339411"/>
    <path d="M 65.7779 104.720593 
L 67.5779 101.720593 
L 65.7779 98.720593 
L 63.9779 101.720593 
z
" clip-path="url(#p8747993229)" style="fill: #332288; fill-opacity: 0.6; stroke: #ffffff; stroke-opacity: 0.6; stroke-width: 0.339411"/>
    <path d="M 81.302229 88.866229 
L 83.102229 85.866229 
L 81.302229 82.866229 
L 79.502229 85.866229 
z
" clip-path="url(#p8747993229)" style="fill: #332288; fill-opacity: 0.6; stroke: #ffffff; stroke-opacity: 0.6; stroke-width: 0.339411"/>
    <path d="M 124.013785 62.591821 
L 125.813785 59.591821 
L 124.013785 56.591821 
L 122.213785 59.591821 
z
" clip-path="url(#p8747993229)" style="fill: #332288; fill-opacity: 0.6; stroke: #ffffff; stroke-opacity: 0.6; stroke-width: 0.339411"/>
    <path d="M 138.221581 115.996419 
L 140.021581 112.996419 
L 138.221581 109.996419 
L 136.421581 112.996419 
z
" clip-path="url(#p8747993229)" style="fill: #332288; fill-opacity: 0.6; stroke: #ffffff; stroke-opacity: 0.6; stroke-width: 0.339411"/>
    <path d="M 67.507626 110.275724 
L 69.307626 107.275724 
L 67.507626 104.275724 
L 65.707626 107.275724 
z
" clip-path="url(#p8747993229)" style="fill: #332288; fill-opacity: 0.6; stroke: #ffffff; stroke-opacity: 0.6; stroke-width: 0.339411"/>
    <path d="M 145.153132 115.429296 
L 146.953132 112.429296 
L 145.153132 109.429296 
L 143.353132 112.429296 
z
" clip-path="url(#p8747993229)" style="fill: #332288; fill-opacity: 0.6; stroke: #ffffff; stroke-opacity: 0.6; stroke-width: 0.339411"/>
    <path d="M 77.882037 107.221081 
L 79.682037 104.221081 
L 77.882037 101.221081 
L 76.082037 104.221081 
z
" clip-path="url(#p8747993229)" style="fill: #332288; fill-opacity: 0.6; stroke: #ffffff; stroke-opacity: 0.6; stroke-width: 0.339411"/>
    <path d="M 138.700565 116.587777 
L 140.500565 113.587777 
L 138.700565 110.587777 
L 136.900565 113.587777 
z
" clip-path="url(#p8747993229)" style="fill: #332288; fill-opacity: 0.6; stroke: #ffffff; stroke-opacity: 0.6; stroke-width: 0.339411"/>
    <path d="M 145.779303 116.157213 
L 147.579303 113.157213 
L 145.779303 110.157213 
L 143.979303 113.157213 
z
" clip-path="url(#p8747993229)" style="fill: #332288; fill-opacity: 0.6; stroke: #ffffff; stroke-opacity: 0.6; stroke-width: 0.339411"/>
    <path d="M 108.22544 101.056867 
L 110.02544 98.056867 
L 108.22544 95.056867 
L 106.42544 98.056867 
z
" clip-path="url(#p8747993229)" style="fill: #332288; fill-opacity: 0.6; stroke: #ffffff; stroke-opacity: 0.6; stroke-width: 0.339411"/>
    <path d="M 94.13072 99.786018 
L 95.93072 96.786018 
L 94.13072 93.786018 
L 92.33072 96.786018 
z
" clip-path="url(#p8747993229)" style="fill: #332288; fill-opacity: 0.6; stroke: #ffffff; stroke-opacity: 0.6; stroke-width: 0.339411"/>
    <path d="M 81.621595 85.473009 
L 83.421595 82.473009 
L 81.621595 79.473009 
L 79.821595 82.473009 
z
" clip-path="url(#p8747993229)" style="fill: #332288; fill-opacity: 0.6; stroke: #ffffff; stroke-opacity: 0.6; stroke-width: 0.339411"/>
    <path d="M 82.581733 111.367112 
L 84.381733 108.367112 
L 82.581733 105.367112 
L 80.781733 108.367112 
z
" clip-path="url(#p8747993229)" style="fill: #332288; fill-opacity: 0.6; stroke: #ffffff; stroke-opacity: 0.6; stroke-width: 0.339411"/>
    <path d="M 95.13027 95.882932 
L 96.93027 92.882932 
L 95.13027 89.882932 
L 93.33027 92.882932 
z
" clip-path="url(#p8747993229)" style="fill: #332288; fill-opacity: 0.6; stroke: #ffffff; stroke-opacity: 0.6; stroke-width: 0.339411"/>
    <path d="M 103.160862 106.715625 
L 104.960862 103.715625 
L 103.160862 100.715625 
L 101.360862 103.715625 
z
" clip-path="url(#p8747993229)" style="fill: #332288; fill-opacity: 0.6; stroke: #ffffff; stroke-opacity: 0.6; stroke-width: 0.339411"/>
    <path d="M 101.227643 95.155518 
L 103.027643 92.155518 
L 101.227643 89.155518 
L 99.427643 92.155518 
z
" clip-path="url(#p8747993229)" style="fill: #332288; fill-opacity: 0.6; stroke: #ffffff; stroke-opacity: 0.6; stroke-width: 0.339411"/>
    <path d="M 98.781825 93.235355 
L 100.581825 90.235355 
L 98.781825 87.235355 
L 96.981825 90.235355 
z
" clip-path="url(#p8747993229)" style="fill: #332288; fill-opacity: 0.6; stroke: #ffffff; stroke-opacity: 0.6; stroke-width: 0.339411"/>
    <path d="M 103.096724 102.932442 
L 104.896724 99.932442 
L 103.096724 96.932442 
L 101.296724 99.932442 
z
" clip-path="url(#p8747993229)" style="fill: #332288; fill-opacity: 0.6; stroke: #ffffff; stroke-opacity: 0.6; stroke-width: 0.339411"/>
    <path d="M 99.374698 96.214188 
L 101.174698 93.214188 
L 99.374698 90.214188 
L 97.574698 93.214188 
z
" clip-path="url(#p8747993229)" style="fill: #332288; fill-opacity: 0.6; stroke: #ffffff; stroke-opacity: 0.6; stroke-width: 0.339411"/>
    <path d="M 125.554148 65.36829 
L 127.354148 62.36829 
L 125.554148 59.36829 
L 123.754148 62.36829 
z
" clip-path="url(#p8747993229)" style="fill: #332288; fill-opacity: 0.6; stroke: #ffffff; stroke-opacity: 0.6; stroke-width: 0.339411"/>
    <path d="M 98.357643 96.743982 
L 100.157643 93.743982 
L 98.357643 90.743982 
L 96.557643 93.743982 
z
" clip-path="url(#p8747993229)" style="fill: #332288; fill-opacity: 0.6; stroke: #ffffff; stroke-opacity: 0.6; stroke-width: 0.339411"/>
    <path d="M 79.294254 79.358248 
L 81.094254 76.358248 
L 79.294254 73.358248 
L 77.494254 76.358248 
z
" clip-path="url(#p8747993229)" style="fill: #332288; fill-opacity: 0.6; stroke: #ffffff; stroke-opacity: 0.6; stroke-width: 0.339411"/>
    <path d="M 70.026512 103.227068 
L 71.826512 100.227068 
L 70.026512 97.227068 
L 68.226512 100.227068 
z
" clip-path="url(#p8747993229)" style="fill: #332288; fill-opacity: 0.6; stroke: #ffffff; stroke-opacity: 0.6; stroke-width: 0.339411"/>
    <path d="M 70.992574 97.243005 
L 72.792574 94.243005 
L 70.992574 91.243005 
L 69.192574 94.243005 
z
" clip-path="url(#p8747993229)" style="fill: #332288; fill-opacity: 0.6; stroke: #ffffff; stroke-opacity: 0.6; stroke-width: 0.339411"/>
    <path d="M 86.117365 78.827548 
L 87.917365 75.827548 
L 86.117365 72.827548 
L 84.317365 75.827548 
z
" clip-path="url(#p8747993229)" style="fill: #332288; fill-opacity: 0.6; stroke: #ffffff; stroke-opacity: 0.6; stroke-width: 0.339411"/>
    <path d="M 68.362118 115.252873 
L 70.162118 112.252873 
L 68.362118 109.252873 
L 66.562118 112.252873 
z
" clip-path="url(#p8747993229)" style="fill: #332288; fill-opacity: 0.6; stroke: #ffffff; stroke-opacity: 0.6; stroke-width: 0.339411"/>
    <path d="M 85.773364 108.314444 
L 87.573364 105.314444 
L 85.773364 102.314444 
L 83.973364 105.314444 
z
" clip-path="url(#p8747993229)" style="fill: #332288; fill-opacity: 0.6; stroke: #ffffff; stroke-opacity: 0.6; stroke-width: 0.339411"/>
    <path d="M 83.494005 108.946377 
L 85.294005 105.946377 
L 83.494005 102.946377 
L 81.694005 105.946377 
z
" clip-path="url(#p8747993229)" style="fill: #332288; fill-opacity: 0.6; stroke: #ffffff; stroke-opacity: 0.6; stroke-width: 0.339411"/>
    <path d="M 81.416385 81.694378 
L 83.216385 78.694378 
L 81.416385 75.694378 
L 79.616385 78.694378 
z
" clip-path="url(#p8747993229)" style="fill: #332288; fill-opacity: 0.6; stroke: #ffffff; stroke-opacity: 0.6; stroke-width: 0.339411"/>
    <path d="M 141.809161 113.040745 
L 143.609161 110.040745 
L 141.809161 107.040745 
L 140.009161 110.040745 
z
" clip-path="url(#p8747993229)" style="fill: #332288; fill-opacity: 0.6; stroke: #ffffff; stroke-opacity: 0.6; stroke-width: 0.339411"/>
    <path d="M 127.325945 130.711771 
L 129.125945 127.711771 
L 127.325945 124.711771 
L 125.525945 127.711771 
z
" clip-path="url(#p8747993229)" style="fill: #332288; fill-opacity: 0.6; stroke: #ffffff; stroke-opacity: 0.6; stroke-width: 0.339411"/>
    <path d="M 69.205287 111.521502 
L 71.005287 108.521502 
L 69.205287 105.521502 
L 67.405287 108.521502 
z
" clip-path="url(#p8747993229)" style="fill: #332288; fill-opacity: 0.6; stroke: #ffffff; stroke-opacity: 0.6; stroke-width: 0.339411"/>
    <path d="M 145.037389 118.214154 
L 146.837389 115.214154 
L 145.037389 112.214154 
L 143.237389 115.214154 
z
" clip-path="url(#p8747993229)" style="fill: #332288; fill-opacity: 0.6; stroke: #ffffff; stroke-opacity: 0.6; stroke-width: 0.339411"/>
    <path d="M 83.162783 79.595795 
L 84.962783 76.595795 
L 83.162783 73.595795 
L 81.362783 76.595795 
z
" clip-path="url(#p8747993229)" style="fill: #332288; fill-opacity: 0.6; stroke: #ffffff; stroke-opacity: 0.6; stroke-width: 0.339411"/>
    <path d="M 105.892741 105.172995 
L 107.692741 102.172995 
L 105.892741 99.172995 
L 104.092741 102.172995 
z
" clip-path="url(#p8747993229)" style="fill: #332288; fill-opacity: 0.6; stroke: #ffffff; stroke-opacity: 0.6; stroke-width: 0.339411"/>
    <path d="M 85.822488 88.214072 
L 87.622488 85.214072 
L 85.822488 82.214072 
L 84.022488 85.214072 
z
" clip-path="url(#p8747993229)" style="fill: #332288; fill-opacity: 0.6; stroke: #ffffff; stroke-opacity: 0.6; stroke-width: 0.339411"/>
    <path d="M 87.719961 106.993583 
L 89.519961 103.993583 
L 87.719961 100.993583 
L 85.919961 103.993583 
z
" clip-path="url(#p8747993229)" style="fill: #332288; fill-opacity: 0.6; stroke: #ffffff; stroke-opacity: 0.6; stroke-width: 0.339411"/>
    <path d="M 103.96478 103.777695 
L 105.76478 100.777695 
L 103.96478 97.777695 
L 102.16478 100.777695 
z
" clip-path="url(#p8747993229)" style="fill: #332288; fill-opacity: 0.6; stroke: #ffffff; stroke-opacity: 0.6; stroke-width: 0.339411"/>
    <path d="M 143.810709 117.583259 
L 145.610709 114.583259 
L 143.810709 111.583259 
L 142.010709 114.583259 
z
" clip-path="url(#p8747993229)" style="fill: #332288; fill-opacity: 0.6; stroke: #ffffff; stroke-opacity: 0.6; stroke-width: 0.339411"/>
    <path d="M 130.209499 62.600148 
L 132.009499 59.600148 
L 130.209499 56.600148 
L 128.409499 59.600148 
z
" clip-path="url(#p8747993229)" style="fill: #332288; fill-opacity: 0.6; stroke: #ffffff; stroke-opacity: 0.6; stroke-width: 0.339411"/>
    <path d="M 64.821256 114.290814 
L 66.621256 111.290814 
L 64.821256 108.290814 
L 63.021256 111.290814 
z
" clip-path="url(#p8747993229)" style="fill: #332288; fill-opacity: 0.6; stroke: #ffffff; stroke-opacity: 0.6; stroke-width: 0.339411"/>
    <path d="M 67.054102 115.409864 
L 68.854102 112.409864 
L 67.054102 109.409864 
L 65.254102 112.409864 
z
" clip-path="url(#p8747993229)" style="fill: #332288; fill-opacity: 0.6; stroke: #ffffff; stroke-opacity: 0.6; stroke-width: 0.339411"/>
    <path d="M 78.895573 90.898791 
L 80.695573 87.898791 
L 78.895573 84.898791 
L 77.095573 87.898791 
z
" clip-path="url(#p8747993229)" style="fill: #332288; fill-opacity: 0.6; stroke: #ffffff; stroke-opacity: 0.6; stroke-width: 0.339411"/>
    <path d="M 73.670329 94.64886 
L 75.470329 91.64886 
L 73.670329 88.64886 
L 71.870329 91.64886 
z
" clip-path="url(#p8747993229)" style="fill: #332288; fill-opacity: 0.6; stroke: #ffffff; stroke-opacity: 0.6; stroke-width: 0.339411"/>
    <path d="M 169.109729 98.445945 
L 170.909729 95.445945 
L 169.109729 92.445945 
L 167.309729 95.445945 
z
" clip-path="url(#p8747993229)" style="fill: #332288; fill-opacity: 0.6; stroke: #ffffff; stroke-opacity: 0.6; stroke-width: 0.339411"/>
    <path d="M 71.837381 97.151259 
L 73.637381 94.151259 
L 71.837381 91.151259 
L 70.037381 94.151259 
z
" clip-path="url(#p8747993229)" style="fill: #332288; fill-opacity: 0.6; stroke: #ffffff; stroke-opacity: 0.6; stroke-width: 0.339411"/>
    <path d="M 84.821363 81.226993 
L 86.621363 78.226993 
L 84.821363 75.226993 
L 83.021363 78.226993 
z
" clip-path="url(#p8747993229)" style="fill: #332288; fill-opacity: 0.6; stroke: #ffffff; stroke-opacity: 0.6; stroke-width: 0.339411"/>
    <path d="M 78.054064 88.799525 
L 79.854064 85.799525 
L 78.054064 82.799525 
L 76.254064 85.799525 
z
" clip-path="url(#p8747993229)" style="fill: #332288; fill-opacity: 0.6; stroke: #ffffff; stroke-opacity: 0.6; stroke-width: 0.339411"/>
    <path d="M 63.260218 113.761586 
L 65.060218 110.761586 
L 63.260218 107.761586 
L 61.460218 110.761586 
z
" clip-path="url(#p8747993229)" style="fill: #332288; fill-opacity: 0.6; stroke: #ffffff; stroke-opacity: 0.6; stroke-width: 0.339411"/>
    <path d="M 101.022551 98.004894 
L 102.822551 95.004894 
L 101.022551 92.004894 
L 99.222551 95.004894 
z
" clip-path="url(#p8747993229)" style="fill: #332288; fill-opacity: 0.6; stroke: #ffffff; stroke-opacity: 0.6; stroke-width: 0.339411"/>
    <path d="M 67.695187 100.544002 
L 69.495187 97.544002 
L 67.695187 94.544002 
L 65.895187 97.544002 
z
" clip-path="url(#p8747993229)" style="fill: #332288; fill-opacity: 0.6; stroke: #ffffff; stroke-opacity: 0.6; stroke-width: 0.339411"/>
    <path d="M 88.067878 86.676027 
L 89.867878 83.676027 
L 88.067878 80.676027 
L 86.267878 83.676027 
z
" clip-path="url(#p8747993229)" style="fill: #332288; fill-opacity: 0.6; stroke: #ffffff; stroke-opacity: 0.6; stroke-width: 0.339411"/>
    <path d="M 134.295018 127.827714 
L 132.173697 132.070355 
L 136.416338 132.070355 
z
" clip-path="url(#p8747993229)" style="fill: #117733; fill-opacity: 0.6; stroke: #ffffff; stroke-opacity: 0.6; stroke-width: 0.339411"/>
    <path d="M 139.613616 65.532913 
L 137.492296 69.775554 
L 141.734936 69.775554 
z
" clip-path="url(#p8747993229)" style="fill: #117733; fill-opacity: 0.6; stroke: #ffffff; stroke-opacity: 0.6; stroke-width: 0.339411"/>
    <path d="M 131.015903 76.822233 
L 128.894582 81.064874 
L 133.137223 81.064874 
z
" clip-path="url(#p8747993229)" style="fill: #117733; fill-opacity: 0.6; stroke: #ffffff; stroke-opacity: 0.6; stroke-width: 0.339411"/>
    <path d="M 135.450248 119.932428 
L 133.328927 124.175069 
L 137.571568 124.175069 
z
" clip-path="url(#p8747993229)" style="fill: #117733; fill-opacity: 0.6; stroke: #ffffff; stroke-opacity: 0.6; stroke-width: 0.339411"/>
    <path d="M 142.391509 54.103121 
L 140.270189 58.345762 
L 144.512829 58.345762 
z
" clip-path="url(#p8747993229)" style="fill: #117733; fill-opacity: 0.6; stroke: #ffffff; stroke-opacity: 0.6; stroke-width: 0.339411"/>
    <path d="M 129.062655 132.776176 
L 126.941335 137.018817 
L 131.183976 137.018817 
z
" clip-path="url(#p8747993229)" style="fill: #117733; fill-opacity: 0.6; stroke: #ffffff; stroke-opacity: 0.6; stroke-width: 0.339411"/>
    <path d="M 134.173685 124.056601 
L 132.052364 128.299242 
L 136.295005 128.299242 
z
" clip-path="url(#p8747993229)" style="fill: #117733; fill-opacity: 0.6; stroke: #ffffff; stroke-opacity: 0.6; stroke-width: 0.339411"/>
    <path d="M 130.851269 138.399187 
L 128.729948 142.641827 
L 132.972589 142.641827 
z
" clip-path="url(#p8747993229)" style="fill: #117733; fill-opacity: 0.6; stroke: #ffffff; stroke-opacity: 0.6; stroke-width: 0.339411"/>
    <path d="M 134.270956 57.067801 
L 132.149636 61.310441 
L 136.392277 61.310441 
z
" clip-path="url(#p8747993229)" style="fill: #117733; fill-opacity: 0.6; stroke: #ffffff; stroke-opacity: 0.6; stroke-width: 0.339411"/>
    <path d="M 159.608203 65.141472 
L 157.486883 69.384112 
L 161.729524 69.384112 
z
" clip-path="url(#p8747993229)" style="fill: #117733; fill-opacity: 0.6; stroke: #ffffff; stroke-opacity: 0.6; stroke-width: 0.339411"/>
    <path d="M 128.921437 136.424734 
L 126.800116 140.667375 
L 131.042757 140.667375 
z
" clip-path="url(#p8747993229)" style="fill: #117733; fill-opacity: 0.6; stroke: #ffffff; stroke-opacity: 0.6; stroke-width: 0.339411"/>
    <path d="M 129.765442 127.542536 
L 127.644121 131.785177 
L 131.886762 131.785177 
z
" clip-path="url(#p8747993229)" style="fill: #117733; fill-opacity: 0.6; stroke: #ffffff; stroke-opacity: 0.6; stroke-width: 0.339411"/>
    <path d="M 168.880251 61.585692 
L 166.758931 65.828333 
L 171.001572 65.828333 
z
" clip-path="url(#p8747993229)" style="fill: #117733; fill-opacity: 0.6; stroke: #ffffff; stroke-opacity: 0.6; stroke-width: 0.339411"/>
    <path d="M 158.280563 69.732464 
L 156.159243 73.975105 
L 160.401884 73.975105 
z
" clip-path="url(#p8747993229)" style="fill: #117733; fill-opacity: 0.6; stroke: #ffffff; stroke-opacity: 0.6; stroke-width: 0.339411"/>
    <path d="M 140.38924 78.570671 
L 138.267919 82.813312 
L 142.51056 82.813312 
z
" clip-path="url(#p8747993229)" style="fill: #117733; fill-opacity: 0.6; stroke: #ffffff; stroke-opacity: 0.6; stroke-width: 0.339411"/>
    <path d="M 159.389204 41.55993 
L 157.267883 45.802571 
L 161.510524 45.802571 
z
" clip-path="url(#p8747993229)" style="fill: #117733; fill-opacity: 0.6; stroke: #ffffff; stroke-opacity: 0.6; stroke-width: 0.339411"/>
    <path d="M 135.249602 136.859244 
L 133.128282 141.101885 
L 137.370923 141.101885 
z
" clip-path="url(#p8747993229)" style="fill: #117733; fill-opacity: 0.6; stroke: #ffffff; stroke-opacity: 0.6; stroke-width: 0.339411"/>
    <path d="M 131.22164 137.178392 
L 129.10032 141.421032 
L 133.342961 141.421032 
z
" clip-path="url(#p8747993229)" style="fill: #117733; fill-opacity: 0.6; stroke: #ffffff; stroke-opacity: 0.6; stroke-width: 0.339411"/>
    <path d="M 172.152682 95.322594 
L 170.031362 99.565235 
L 174.274002 99.565235 
z
" clip-path="url(#p8747993229)" style="fill: #117733; fill-opacity: 0.6; stroke: #ffffff; stroke-opacity: 0.6; stroke-width: 0.339411"/>
    <path d="M 137.30193 78.818788 
L 135.18061 83.061429 
L 139.42325 83.061429 
z
" clip-path="url(#p8747993229)" style="fill: #117733; fill-opacity: 0.6; stroke: #ffffff; stroke-opacity: 0.6; stroke-width: 0.339411"/>
    <path d="M 134.865618 79.686381 
L 132.744297 83.929022 
L 136.986938 83.929022 
z
" clip-path="url(#p8747993229)" style="fill: #117733; fill-opacity: 0.6; stroke: #ffffff; stroke-opacity: 0.6; stroke-width: 0.339411"/>
    <path d="M 133.586466 74.006534 
L 131.465146 78.249175 
L 135.707786 78.249175 
z
" clip-path="url(#p8747993229)" style="fill: #117733; fill-opacity: 0.6; stroke: #ffffff; stroke-opacity: 0.6; stroke-width: 0.339411"/>
    <path d="M 167.889387 56.757124 
L 165.768067 60.999765 
L 170.010707 60.999765 
z
" clip-path="url(#p8747993229)" style="fill: #117733; fill-opacity: 0.6; stroke: #ffffff; stroke-opacity: 0.6; stroke-width: 0.339411"/>
    <path d="M 163.021843 70.716868 
L 160.900522 74.959509 
L 165.143163 74.959509 
z
" clip-path="url(#p8747993229)" style="fill: #117733; fill-opacity: 0.6; stroke: #ffffff; stroke-opacity: 0.6; stroke-width: 0.339411"/>
    <path d="M 138.773044 75.623052 
L 136.651723 79.865692 
L 140.894364 79.865692 
z
" clip-path="url(#p8747993229)" style="fill: #117733; fill-opacity: 0.6; stroke: #ffffff; stroke-opacity: 0.6; stroke-width: 0.339411"/>
    <path d="M 130.029734 74.001073 
L 127.908413 78.243714 
L 132.151054 78.243714 
z
" clip-path="url(#p8747993229)" style="fill: #117733; fill-opacity: 0.6; stroke: #ffffff; stroke-opacity: 0.6; stroke-width: 0.339411"/>
    <path d="M 129.044898 60.331933 
L 126.923578 64.574574 
L 131.166218 64.574574 
z
" clip-path="url(#p8747993229)" style="fill: #117733; fill-opacity: 0.6; stroke: #ffffff; stroke-opacity: 0.6; stroke-width: 0.339411"/>
    <path d="M 129.308281 127.984812 
L 127.18696 132.227452 
L 131.429601 132.227452 
z
" clip-path="url(#p8747993229)" style="fill: #117733; fill-opacity: 0.6; stroke: #ffffff; stroke-opacity: 0.6; stroke-width: 0.339411"/>
    <path d="M 165.634417 70.299873 
L 163.513097 74.542514 
L 167.755738 74.542514 
z
" clip-path="url(#p8747993229)" style="fill: #117733; fill-opacity: 0.6; stroke: #ffffff; stroke-opacity: 0.6; stroke-width: 0.339411"/>
    <path d="M 133.651963 139.568384 
L 131.530643 143.811025 
L 135.773283 143.811025 
z
" clip-path="url(#p8747993229)" style="fill: #117733; fill-opacity: 0.6; stroke: #ffffff; stroke-opacity: 0.6; stroke-width: 0.339411"/>
    <path d="M 139.722772 63.333604 
L 137.601452 67.576245 
L 141.844092 67.576245 
z
" clip-path="url(#p8747993229)" style="fill: #117733; fill-opacity: 0.6; stroke: #ffffff; stroke-opacity: 0.6; stroke-width: 0.339411"/>
    <path d="M 182.21164 18.755148 
L 180.09032 22.997789 
L 184.332961 22.997789 
z
" clip-path="url(#p8747993229)" style="fill: #117733; fill-opacity: 0.6; stroke: #ffffff; stroke-opacity: 0.6; stroke-width: 0.339411"/>
    <path d="M 172.710091 52.031759 
L 170.588771 56.274399 
L 174.831411 56.274399 
z
" clip-path="url(#p8747993229)" style="fill: #117733; fill-opacity: 0.6; stroke: #ffffff; stroke-opacity: 0.6; stroke-width: 0.339411"/>
    <path d="M 176.182448 45.951723 
L 174.061127 50.194363 
L 178.303768 50.194363 
z
" clip-path="url(#p8747993229)" style="fill: #117733; fill-opacity: 0.6; stroke: #ffffff; stroke-opacity: 0.6; stroke-width: 0.339411"/>
    <path d="M 163.188068 72.800332 
L 161.066748 77.042972 
L 165.309389 77.042972 
z
" clip-path="url(#p8747993229)" style="fill: #117733; fill-opacity: 0.6; stroke: #ffffff; stroke-opacity: 0.6; stroke-width: 0.339411"/>
    <path d="M 125.857867 124.362607 
L 123.736547 128.605247 
L 127.979187 128.605247 
z
" clip-path="url(#p8747993229)" style="fill: #117733; fill-opacity: 0.6; stroke: #ffffff; stroke-opacity: 0.6; stroke-width: 0.339411"/>
    <path d="M 146.727441 58.120903 
L 144.606121 62.363543 
L 148.848762 62.363543 
z
" clip-path="url(#p8747993229)" style="fill: #117733; fill-opacity: 0.6; stroke: #ffffff; stroke-opacity: 0.6; stroke-width: 0.339411"/>
    <path d="M 129.598007 78.106782 
L 127.476686 82.349423 
L 131.719327 82.349423 
z
" clip-path="url(#p8747993229)" style="fill: #117733; fill-opacity: 0.6; stroke: #ffffff; stroke-opacity: 0.6; stroke-width: 0.339411"/>
    <path d="M 135.913561 127.856981 
L 133.792241 132.099621 
L 138.034882 132.099621 
z
" clip-path="url(#p8747993229)" style="fill: #117733; fill-opacity: 0.6; stroke: #ffffff; stroke-opacity: 0.6; stroke-width: 0.339411"/>
    <path d="M 159.86675 69.578974 
L 157.745429 73.821614 
L 161.98807 73.821614 
z
" clip-path="url(#p8747993229)" style="fill: #117733; fill-opacity: 0.6; stroke: #ffffff; stroke-opacity: 0.6; stroke-width: 0.339411"/>
    <path d="M 145.474097 61.017903 
L 143.352776 65.260544 
L 147.595417 65.260544 
z
" clip-path="url(#p8747993229)" style="fill: #117733; fill-opacity: 0.6; stroke: #ffffff; stroke-opacity: 0.6; stroke-width: 0.339411"/>
    <path d="M 137.494123 72.840644 
L 135.372803 77.083284 
L 139.615444 77.083284 
z
" clip-path="url(#p8747993229)" style="fill: #117733; fill-opacity: 0.6; stroke: #ffffff; stroke-opacity: 0.6; stroke-width: 0.339411"/>
    <path d="M 159.662869 72.632717 
L 157.541549 76.875357 
L 161.78419 76.875357 
z
" clip-path="url(#p8747993229)" style="fill: #117733; fill-opacity: 0.6; stroke: #ffffff; stroke-opacity: 0.6; stroke-width: 0.339411"/>
    <path d="M 140.206247 54.404466 
L 138.084926 58.647106 
L 142.327567 58.647106 
z
" clip-path="url(#p8747993229)" style="fill: #117733; fill-opacity: 0.6; stroke: #ffffff; stroke-opacity: 0.6; stroke-width: 0.339411"/>
    <path d="M 172.126319 94.206494 
L 170.004999 98.449134 
L 174.24764 98.449134 
z
" clip-path="url(#p8747993229)" style="fill: #117733; fill-opacity: 0.6; stroke: #ffffff; stroke-opacity: 0.6; stroke-width: 0.339411"/>
    <path d="M 137.751726 128.577095 
L 135.630406 132.819736 
L 139.873046 132.819736 
z
" clip-path="url(#p8747993229)" style="fill: #117733; fill-opacity: 0.6; stroke: #ffffff; stroke-opacity: 0.6; stroke-width: 0.339411"/>
    <path d="M 163.640914 67.263882 
L 161.519594 71.506523 
L 165.762234 71.506523 
z
" clip-path="url(#p8747993229)" style="fill: #117733; fill-opacity: 0.6; stroke: #ffffff; stroke-opacity: 0.6; stroke-width: 0.339411"/>
    <path d="M 207.044275 43.771974 
L 204.922954 48.014615 
L 209.165595 48.014615 
z
" clip-path="url(#p8747993229)" style="fill: #117733; fill-opacity: 0.6; stroke: #ffffff; stroke-opacity: 0.6; stroke-width: 0.339411"/>
    <path d="M 203.571991 41.00314 
L 201.450671 45.245781 
L 205.693311 45.245781 
z
" clip-path="url(#p8747993229)" style="fill: #117733; fill-opacity: 0.6; stroke: #ffffff; stroke-opacity: 0.6; stroke-width: 0.339411"/>
    <path d="M 136.092744 73.481295 
L 133.971424 77.723935 
L 138.214064 77.723935 
z
" clip-path="url(#p8747993229)" style="fill: #117733; fill-opacity: 0.6; stroke: #ffffff; stroke-opacity: 0.6; stroke-width: 0.339411"/>
    <path d="M 185.637859 70.95146 
L 183.516539 75.194101 
L 187.759179 75.194101 
z
" clip-path="url(#p8747993229)" style="fill: #117733; fill-opacity: 0.6; stroke: #ffffff; stroke-opacity: 0.6; stroke-width: 0.339411"/>
    <path d="M 163.415888 67.439927 
L 161.294568 71.682568 
L 165.537208 71.682568 
z
" clip-path="url(#p8747993229)" style="fill: #117733; fill-opacity: 0.6; stroke: #ffffff; stroke-opacity: 0.6; stroke-width: 0.339411"/>
    <path d="M 136.337234 125.448147 
L 134.215913 129.690788 
L 138.458554 129.690788 
z
" clip-path="url(#p8747993229)" style="fill: #117733; fill-opacity: 0.6; stroke: #ffffff; stroke-opacity: 0.6; stroke-width: 0.339411"/>
    <path d="M 137.534696 58.234027 
L 135.413376 62.476668 
L 139.656017 62.476668 
z
" clip-path="url(#p8747993229)" style="fill: #117733; fill-opacity: 0.6; stroke: #ffffff; stroke-opacity: 0.6; stroke-width: 0.339411"/>
    <path d="M 174.524053 96.434662 
L 172.402733 100.677303 
L 176.645373 100.677303 
z
" clip-path="url(#p8747993229)" style="fill: #117733; fill-opacity: 0.6; stroke: #ffffff; stroke-opacity: 0.6; stroke-width: 0.339411"/>
    <path d="M 130.754724 60.84552 
L 128.633403 65.08816 
L 132.876044 65.08816 
z
" clip-path="url(#p8747993229)" style="fill: #117733; fill-opacity: 0.6; stroke: #ffffff; stroke-opacity: 0.6; stroke-width: 0.339411"/>
    <path d="M 127.416072 128.019648 
L 125.294751 132.262289 
L 129.537392 132.262289 
z
" clip-path="url(#p8747993229)" style="fill: #117733; fill-opacity: 0.6; stroke: #ffffff; stroke-opacity: 0.6; stroke-width: 0.339411"/>
    <path d="M 132.941403 135.106296 
L 130.820082 139.348937 
L 135.062723 139.348937 
z
" clip-path="url(#p8747993229)" style="fill: #117733; fill-opacity: 0.6; stroke: #ffffff; stroke-opacity: 0.6; stroke-width: 0.339411"/>
    <path d="M 179.313197 28.701323 
L 177.191876 32.943964 
L 181.434517 32.943964 
z
" clip-path="url(#p8747993229)" style="fill: #117733; fill-opacity: 0.6; stroke: #ffffff; stroke-opacity: 0.6; stroke-width: 0.339411"/>
    <path d="M 131.777555 58.248255 
L 129.656235 62.490895 
L 133.898875 62.490895 
z
" clip-path="url(#p8747993229)" style="fill: #117733; fill-opacity: 0.6; stroke: #ffffff; stroke-opacity: 0.6; stroke-width: 0.339411"/>
    <path d="M 136.53587 75.839121 
L 134.41455 80.081762 
L 138.65719 80.081762 
z
" clip-path="url(#p8747993229)" style="fill: #117733; fill-opacity: 0.6; stroke: #ffffff; stroke-opacity: 0.6; stroke-width: 0.339411"/>
    <path d="M 126.971917 77.263475 
L 124.850597 81.506115 
L 129.093237 81.506115 
z
" clip-path="url(#p8747993229)" style="fill: #117733; fill-opacity: 0.6; stroke: #ffffff; stroke-opacity: 0.6; stroke-width: 0.339411"/>
    <path d="M 137.356825 123.653781 
L 135.235505 127.896421 
L 139.478145 127.896421 
z
" clip-path="url(#p8747993229)" style="fill: #117733; fill-opacity: 0.6; stroke: #ffffff; stroke-opacity: 0.6; stroke-width: 0.339411"/>
    <path d="M 134.167035 39.684865 
L 138.409675 39.684865 
L 138.409675 35.442224 
L 134.167035 35.442224 
z
" clip-path="url(#p8747993229)" style="fill: #44aa99; fill-opacity: 0.6; stroke: #ffffff; stroke-opacity: 0.6; stroke-width: 0.339411"/>
    <path d="M 165.646458 109.863259 
L 169.889099 109.863259 
L 169.889099 105.620618 
L 165.646458 105.620618 
z
" clip-path="url(#p8747993229)" style="fill: #44aa99; fill-opacity: 0.6; stroke: #ffffff; stroke-opacity: 0.6; stroke-width: 0.339411"/>
    <path d="M 137.869759 38.025505 
L 142.1124 38.025505 
L 142.1124 33.782864 
L 137.869759 33.782864 
z
" clip-path="url(#p8747993229)" style="fill: #44aa99; fill-opacity: 0.6; stroke: #ffffff; stroke-opacity: 0.6; stroke-width: 0.339411"/>
    <path d="M 158.620058 104.721301 
L 162.862699 104.721301 
L 162.862699 100.47866 
L 158.620058 100.47866 
z
" clip-path="url(#p8747993229)" style="fill: #44aa99; fill-opacity: 0.6; stroke: #ffffff; stroke-opacity: 0.6; stroke-width: 0.339411"/>
    <path d="M 157.222052 112.133021 
L 161.464693 112.133021 
L 161.464693 107.890381 
L 157.222052 107.890381 
z
" clip-path="url(#p8747993229)" style="fill: #44aa99; fill-opacity: 0.6; stroke: #ffffff; stroke-opacity: 0.6; stroke-width: 0.339411"/>
    <path d="M 176.230807 113.204841 
L 180.473448 113.204841 
L 180.473448 108.9622 
L 176.230807 108.9622 
z
" clip-path="url(#p8747993229)" style="fill: #44aa99; fill-opacity: 0.6; stroke: #ffffff; stroke-opacity: 0.6; stroke-width: 0.339411"/>
    <path d="M 133.934659 47.316763 
L 138.177299 47.316763 
L 138.177299 43.074122 
L 133.934659 43.074122 
z
" clip-path="url(#p8747993229)" style="fill: #44aa99; fill-opacity: 0.6; stroke: #ffffff; stroke-opacity: 0.6; stroke-width: 0.339411"/>
    <path d="M 148.150038 38.544811 
L 152.392679 38.544811 
L 152.392679 34.30217 
L 148.150038 34.30217 
z
" clip-path="url(#p8747993229)" style="fill: #44aa99; fill-opacity: 0.6; stroke: #ffffff; stroke-opacity: 0.6; stroke-width: 0.339411"/>
    <path d="M 138.522267 41.086235 
L 142.764908 41.086235 
L 142.764908 36.843594 
L 138.522267 36.843594 
z
" clip-path="url(#p8747993229)" style="fill: #44aa99; fill-opacity: 0.6; stroke: #ffffff; stroke-opacity: 0.6; stroke-width: 0.339411"/>
    <path d="M 178.861558 24.68416 
L 183.104199 24.68416 
L 183.104199 20.441519 
L 178.861558 20.441519 
z
" clip-path="url(#p8747993229)" style="fill: #44aa99; fill-opacity: 0.6; stroke: #ffffff; stroke-opacity: 0.6; stroke-width: 0.339411"/>
    <path d="M 176.736661 106.251873 
L 180.979302 106.251873 
L 180.979302 102.009232 
L 176.736661 102.009232 
z
" clip-path="url(#p8747993229)" style="fill: #44aa99; fill-opacity: 0.6; stroke: #ffffff; stroke-opacity: 0.6; stroke-width: 0.339411"/>
    <path d="M 143.038136 42.652236 
L 147.280776 42.652236 
L 147.280776 38.409595 
L 143.038136 38.409595 
z
" clip-path="url(#p8747993229)" style="fill: #44aa99; fill-opacity: 0.6; stroke: #ffffff; stroke-opacity: 0.6; stroke-width: 0.339411"/>
    <path d="M 148.564293 107.311693 
L 152.806934 107.311693 
L 152.806934 103.069053 
L 148.564293 103.069053 
z
" clip-path="url(#p8747993229)" style="fill: #44aa99; fill-opacity: 0.6; stroke: #ffffff; stroke-opacity: 0.6; stroke-width: 0.339411"/>
    <path d="M 175.687772 24.264854 
L 179.930412 24.264854 
L 179.930412 20.022213 
L 175.687772 20.022213 
z
" clip-path="url(#p8747993229)" style="fill: #44aa99; fill-opacity: 0.6; stroke: #ffffff; stroke-opacity: 0.6; stroke-width: 0.339411"/>
    <path d="M 146.33533 101.578752 
L 150.57797 101.578752 
L 150.57797 97.336112 
L 146.33533 97.336112 
z
" clip-path="url(#p8747993229)" style="fill: #44aa99; fill-opacity: 0.6; stroke: #ffffff; stroke-opacity: 0.6; stroke-width: 0.339411"/>
    <path d="M 170.668702 108.627454 
L 174.911343 108.627454 
L 174.911343 104.384813 
L 170.668702 104.384813 
z
" clip-path="url(#p8747993229)" style="fill: #44aa99; fill-opacity: 0.6; stroke: #ffffff; stroke-opacity: 0.6; stroke-width: 0.339411"/>
    <path d="M 137.3843 60.665909 
L 141.626941 60.665909 
L 141.626941 56.423269 
L 137.3843 56.423269 
z
" clip-path="url(#p8747993229)" style="fill: #44aa99; fill-opacity: 0.6; stroke: #ffffff; stroke-opacity: 0.6; stroke-width: 0.339411"/>
    <path d="M 152.311334 42.542505 
L 156.553975 42.542505 
L 156.553975 38.299864 
L 152.311334 38.299864 
z
" clip-path="url(#p8747993229)" style="fill: #44aa99; fill-opacity: 0.6; stroke: #ffffff; stroke-opacity: 0.6; stroke-width: 0.339411"/>
    <path d="M 154.28237 110.46706 
L 158.525011 110.46706 
L 158.525011 106.224419 
L 154.28237 106.224419 
z
" clip-path="url(#p8747993229)" style="fill: #44aa99; fill-opacity: 0.6; stroke: #ffffff; stroke-opacity: 0.6; stroke-width: 0.339411"/>
    <path d="M 183.917785 38.228303 
L 188.160426 38.228303 
L 188.160426 33.985662 
L 183.917785 33.985662 
z
" clip-path="url(#p8747993229)" style="fill: #44aa99; fill-opacity: 0.6; stroke: #ffffff; stroke-opacity: 0.6; stroke-width: 0.339411"/>
    <path d="M 143.410382 38.328332 
L 147.653023 38.328332 
L 147.653023 34.085691 
L 143.410382 34.085691 
z
" clip-path="url(#p8747993229)" style="fill: #44aa99; fill-opacity: 0.6; stroke: #ffffff; stroke-opacity: 0.6; stroke-width: 0.339411"/>
    <path d="M 174.794445 113.632328 
L 179.037086 113.632328 
L 179.037086 109.389688 
L 174.794445 109.389688 
z
" clip-path="url(#p8747993229)" style="fill: #44aa99; fill-opacity: 0.6; stroke: #ffffff; stroke-opacity: 0.6; stroke-width: 0.339411"/>
    <path d="M 208.877401 46.827969 
L 213.120042 46.827969 
L 213.120042 42.585328 
L 208.877401 42.585328 
z
" clip-path="url(#p8747993229)" style="fill: #44aa99; fill-opacity: 0.6; stroke: #ffffff; stroke-opacity: 0.6; stroke-width: 0.339411"/>
    <path d="M 192.138506 37.963204 
L 196.381147 37.963204 
L 196.381147 33.720563 
L 192.138506 33.720563 
z
" clip-path="url(#p8747993229)" style="fill: #44aa99; fill-opacity: 0.6; stroke: #ffffff; stroke-opacity: 0.6; stroke-width: 0.339411"/>
    <path d="M 105.129347 90.387662 
L 109.371987 90.387662 
L 109.371987 86.145022 
L 105.129347 86.145022 
z
" clip-path="url(#p8747993229)" style="fill: #44aa99; fill-opacity: 0.6; stroke: #ffffff; stroke-opacity: 0.6; stroke-width: 0.339411"/>
    <path d="M 159.326091 116.674404 
L 163.568732 116.674404 
L 163.568732 112.431763 
L 159.326091 112.431763 
z
" clip-path="url(#p8747993229)" style="fill: #44aa99; fill-opacity: 0.6; stroke: #ffffff; stroke-opacity: 0.6; stroke-width: 0.339411"/>
    <path d="M 171.802827 111.308483 
L 176.045468 111.308483 
L 176.045468 107.065842 
L 171.802827 107.065842 
z
" clip-path="url(#p8747993229)" style="fill: #44aa99; fill-opacity: 0.6; stroke: #ffffff; stroke-opacity: 0.6; stroke-width: 0.339411"/>
    <path d="M 183.165414 50.681002 
L 187.408054 50.681002 
L 187.408054 46.438361 
L 183.165414 46.438361 
z
" clip-path="url(#p8747993229)" style="fill: #44aa99; fill-opacity: 0.6; stroke: #ffffff; stroke-opacity: 0.6; stroke-width: 0.339411"/>
    <path d="M 134.433067 33.647325 
L 138.675708 33.647325 
L 138.675708 29.404685 
L 134.433067 29.404685 
z
" clip-path="url(#p8747993229)" style="fill: #44aa99; fill-opacity: 0.6; stroke: #ffffff; stroke-opacity: 0.6; stroke-width: 0.339411"/>
    <path d="M 138.816913 34.01061 
L 143.059553 34.01061 
L 143.059553 29.767969 
L 138.816913 29.767969 
z
" clip-path="url(#p8747993229)" style="fill: #44aa99; fill-opacity: 0.6; stroke: #ffffff; stroke-opacity: 0.6; stroke-width: 0.339411"/>
    <path d="M 140.760987 43.776903 
L 145.003627 43.776903 
L 145.003627 39.534262 
L 140.760987 39.534262 
z
" clip-path="url(#p8747993229)" style="fill: #44aa99; fill-opacity: 0.6; stroke: #ffffff; stroke-opacity: 0.6; stroke-width: 0.339411"/>
    <path d="M 176.533727 24.727816 
L 180.776367 24.727816 
L 180.776367 20.485176 
L 176.533727 20.485176 
z
" clip-path="url(#p8747993229)" style="fill: #44aa99; fill-opacity: 0.6; stroke: #ffffff; stroke-opacity: 0.6; stroke-width: 0.339411"/>
    <path d="M 142.562399 33.906476 
L 146.805039 33.906476 
L 146.805039 29.663835 
L 142.562399 29.663835 
z
" clip-path="url(#p8747993229)" style="fill: #44aa99; fill-opacity: 0.6; stroke: #ffffff; stroke-opacity: 0.6; stroke-width: 0.339411"/>
    <path d="M 137.871777 35.930593 
L 142.114418 35.930593 
L 142.114418 31.687953 
L 137.871777 31.687953 
z
" clip-path="url(#p8747993229)" style="fill: #44aa99; fill-opacity: 0.6; stroke: #ffffff; stroke-opacity: 0.6; stroke-width: 0.339411"/>
    <path d="M 160.744999 115.478036 
L 164.98764 115.478036 
L 164.98764 111.235395 
L 160.744999 111.235395 
z
" clip-path="url(#p8747993229)" style="fill: #44aa99; fill-opacity: 0.6; stroke: #ffffff; stroke-opacity: 0.6; stroke-width: 0.339411"/>
    <path d="M 181.000049 27.239275 
L 185.242689 27.239275 
L 185.242689 22.996634 
L 181.000049 22.996634 
z
" clip-path="url(#p8747993229)" style="fill: #44aa99; fill-opacity: 0.6; stroke: #ffffff; stroke-opacity: 0.6; stroke-width: 0.339411"/>
    <path d="M 162.392857 113.869395 
L 166.635498 113.869395 
L 166.635498 109.626754 
L 162.392857 109.626754 
z
" clip-path="url(#p8747993229)" style="fill: #44aa99; fill-opacity: 0.6; stroke: #ffffff; stroke-opacity: 0.6; stroke-width: 0.339411"/>
    <path d="M 141.481652 32.530147 
L 145.724293 32.530147 
L 145.724293 28.287507 
L 141.481652 28.287507 
z
" clip-path="url(#p8747993229)" style="fill: #44aa99; fill-opacity: 0.6; stroke: #ffffff; stroke-opacity: 0.6; stroke-width: 0.339411"/>
    <path d="M 168.614009 111.897481 
L 172.85665 111.897481 
L 172.85665 107.65484 
L 168.614009 107.65484 
z
" clip-path="url(#p8747993229)" style="fill: #44aa99; fill-opacity: 0.6; stroke: #ffffff; stroke-opacity: 0.6; stroke-width: 0.339411"/>
    <path d="M 180.591596 38.322247 
L 184.834236 38.322247 
L 184.834236 34.079606 
L 180.591596 34.079606 
z
" clip-path="url(#p8747993229)" style="fill: #44aa99; fill-opacity: 0.6; stroke: #ffffff; stroke-opacity: 0.6; stroke-width: 0.339411"/>
    <path d="M 168.014641 110.5327 
L 172.257281 110.5327 
L 172.257281 106.29006 
L 168.014641 106.29006 
z
" clip-path="url(#p8747993229)" style="fill: #44aa99; fill-opacity: 0.6; stroke: #ffffff; stroke-opacity: 0.6; stroke-width: 0.339411"/>
    <path d="M 166.946722 114.166044 
L 171.189362 114.166044 
L 171.189362 109.923403 
L 166.946722 109.923403 
z
" clip-path="url(#p8747993229)" style="fill: #44aa99; fill-opacity: 0.6; stroke: #ffffff; stroke-opacity: 0.6; stroke-width: 0.339411"/>
    <path d="M 167.180012 108.67624 
L 171.422652 108.67624 
L 171.422652 104.433599 
L 167.180012 104.433599 
z
" clip-path="url(#p8747993229)" style="fill: #44aa99; fill-opacity: 0.6; stroke: #ffffff; stroke-opacity: 0.6; stroke-width: 0.339411"/>
    <path d="M 138.160406 33.042091 
L 142.403047 33.042091 
L 142.403047 28.79945 
L 138.160406 28.79945 
z
" clip-path="url(#p8747993229)" style="fill: #44aa99; fill-opacity: 0.6; stroke: #ffffff; stroke-opacity: 0.6; stroke-width: 0.339411"/>
    <path d="M 147.498568 112.250522 
L 151.741209 112.250522 
L 151.741209 108.007881 
L 147.498568 108.007881 
z
" clip-path="url(#p8747993229)" style="fill: #44aa99; fill-opacity: 0.6; stroke: #ffffff; stroke-opacity: 0.6; stroke-width: 0.339411"/>
    <path d="M 145.054359 108.689894 
L 149.297 108.689894 
L 149.297 104.447253 
L 145.054359 104.447253 
z
" clip-path="url(#p8747993229)" style="fill: #44aa99; fill-opacity: 0.6; stroke: #ffffff; stroke-opacity: 0.6; stroke-width: 0.339411"/>
    <path d="M 176.610118 27.17358 
L 180.852759 27.17358 
L 180.852759 22.930939 
L 176.610118 22.930939 
z
" clip-path="url(#p8747993229)" style="fill: #44aa99; fill-opacity: 0.6; stroke: #ffffff; stroke-opacity: 0.6; stroke-width: 0.339411"/>
    <path d="M 166.360132 116.571481 
L 170.602772 116.571481 
L 170.602772 112.328841 
L 166.360132 112.328841 
z
" clip-path="url(#p8747993229)" style="fill: #44aa99; fill-opacity: 0.6; stroke: #ffffff; stroke-opacity: 0.6; stroke-width: 0.339411"/>
    <path d="M 164.752693 117.209811 
L 168.995333 117.209811 
L 168.995333 112.967171 
L 164.752693 112.967171 
z
" clip-path="url(#p8747993229)" style="fill: #44aa99; fill-opacity: 0.6; stroke: #ffffff; stroke-opacity: 0.6; stroke-width: 0.339411"/>
    <path d="M 150.610663 37.524425 
L 154.853303 37.524425 
L 154.853303 33.281784 
L 150.610663 33.281784 
z
" clip-path="url(#p8747993229)" style="fill: #44aa99; fill-opacity: 0.6; stroke: #ffffff; stroke-opacity: 0.6; stroke-width: 0.339411"/>
    <path d="M 174.799569 115.06674 
L 179.04221 115.06674 
L 179.04221 110.8241 
L 174.799569 110.8241 
z
" clip-path="url(#p8747993229)" style="fill: #44aa99; fill-opacity: 0.6; stroke: #ffffff; stroke-opacity: 0.6; stroke-width: 0.339411"/>
    <path d="M 133.302016 36.083338 
L 137.544657 36.083338 
L 137.544657 31.840697 
L 133.302016 31.840697 
z
" clip-path="url(#p8747993229)" style="fill: #44aa99; fill-opacity: 0.6; stroke: #ffffff; stroke-opacity: 0.6; stroke-width: 0.339411"/>
    <path d="M 150.341244 40.296857 
L 154.583885 40.296857 
L 154.583885 36.054216 
L 150.341244 36.054216 
z
" clip-path="url(#p8747993229)" style="fill: #44aa99; fill-opacity: 0.6; stroke: #ffffff; stroke-opacity: 0.6; stroke-width: 0.339411"/>
    <path d="M 165.01177 108.933182 
L 169.254411 108.933182 
L 169.254411 104.690541 
L 165.01177 104.690541 
z
" clip-path="url(#p8747993229)" style="fill: #44aa99; fill-opacity: 0.6; stroke: #ffffff; stroke-opacity: 0.6; stroke-width: 0.339411"/>
    <path d="M 179.275248 35.919847 
L 183.517888 35.919847 
L 183.517888 31.677207 
L 179.275248 31.677207 
z
" clip-path="url(#p8747993229)" style="fill: #44aa99; fill-opacity: 0.6; stroke: #ffffff; stroke-opacity: 0.6; stroke-width: 0.339411"/>
    <path d="M 139.848026 39.116189 
L 144.090666 39.116189 
L 144.090666 34.873548 
L 139.848026 34.873548 
z
" clip-path="url(#p8747993229)" style="fill: #44aa99; fill-opacity: 0.6; stroke: #ffffff; stroke-opacity: 0.6; stroke-width: 0.339411"/>
    <path d="M 152.168053 50.174812 
L 156.410694 50.174812 
L 156.410694 45.932171 
L 152.168053 45.932171 
z
" clip-path="url(#p8747993229)" style="fill: #44aa99; fill-opacity: 0.6; stroke: #ffffff; stroke-opacity: 0.6; stroke-width: 0.339411"/>
    <path d="M 148.141554 39.394842 
L 152.384195 39.394842 
L 152.384195 35.152201 
L 148.141554 35.152201 
z
" clip-path="url(#p8747993229)" style="fill: #44aa99; fill-opacity: 0.6; stroke: #ffffff; stroke-opacity: 0.6; stroke-width: 0.339411"/>
    <path d="M 139.010067 34.986647 
L 143.252707 34.986647 
L 143.252707 30.744007 
L 139.010067 30.744007 
z
" clip-path="url(#p8747993229)" style="fill: #44aa99; fill-opacity: 0.6; stroke: #ffffff; stroke-opacity: 0.6; stroke-width: 0.339411"/>
    <path d="M 162.349908 113.187149 
L 166.592548 113.187149 
L 166.592548 108.944509 
L 162.349908 108.944509 
z
" clip-path="url(#p8747993229)" style="fill: #44aa99; fill-opacity: 0.6; stroke: #ffffff; stroke-opacity: 0.6; stroke-width: 0.339411"/>
    <path d="M 155.97058 58.853795 
L 160.21322 58.853795 
L 160.21322 54.611154 
L 155.97058 54.611154 
z
" clip-path="url(#p8747993229)" style="fill: #44aa99; fill-opacity: 0.6; stroke: #ffffff; stroke-opacity: 0.6; stroke-width: 0.339411"/>
    <path d="M 174.466343 26.582212 
L 178.708983 26.582212 
L 178.708983 22.339572 
L 174.466343 22.339572 
z
" clip-path="url(#p8747993229)" style="fill: #44aa99; fill-opacity: 0.6; stroke: #ffffff; stroke-opacity: 0.6; stroke-width: 0.339411"/>
    <path d="M 135.083165 42.592373 
L 139.325806 42.592373 
L 139.325806 38.349732 
L 135.083165 38.349732 
z
" clip-path="url(#p8747993229)" style="fill: #44aa99; fill-opacity: 0.6; stroke: #ffffff; stroke-opacity: 0.6; stroke-width: 0.339411"/>
    <path d="M 136.868982 41.821961 
L 141.111623 41.821961 
L 141.111623 37.57932 
L 136.868982 37.57932 
z
" clip-path="url(#p8747993229)" style="fill: #44aa99; fill-opacity: 0.6; stroke: #ffffff; stroke-opacity: 0.6; stroke-width: 0.339411"/>
    <path d="M 208.042212 50.493592 
L 209.102873 49.432932 
L 210.163533 50.493592 
L 211.224193 49.432932 
L 210.163533 48.372271 
L 211.224193 47.311611 
L 210.163533 46.250951 
L 209.102873 47.311611 
L 208.042212 46.250951 
L 206.981552 47.311611 
L 208.042212 48.372271 
L 206.981552 49.432932 
z
" clip-path="url(#p8747993229)" style="fill: #88ccee; fill-opacity: 0.6; stroke: #ffffff; stroke-opacity: 0.6; stroke-width: 0.339411"/>
    <path d="M 205.910489 58.729583 
L 206.97115 57.668923 
L 208.03181 58.729583 
L 209.09247 57.668923 
L 208.03181 56.608263 
L 209.09247 55.547602 
L 208.03181 54.486942 
L 206.97115 55.547602 
L 205.910489 54.486942 
L 204.849829 55.547602 
L 205.910489 56.608263 
L 204.849829 57.668923 
z
" clip-path="url(#p8747993229)" style="fill: #88ccee; fill-opacity: 0.6; stroke: #ffffff; stroke-opacity: 0.6; stroke-width: 0.339411"/>
    <path d="M 173.20157 47.710062 
L 174.26223 46.649402 
L 175.322891 47.710062 
L 176.383551 46.649402 
L 175.322891 45.588742 
L 176.383551 44.528082 
L 175.322891 43.467422 
L 174.26223 44.528082 
L 173.20157 43.467422 
L 172.14091 44.528082 
L 173.20157 45.588742 
L 172.14091 46.649402 
z
" clip-path="url(#p8747993229)" style="fill: #88ccee; fill-opacity: 0.6; stroke: #ffffff; stroke-opacity: 0.6; stroke-width: 0.339411"/>
    <path d="M 203.673813 45.730547 
L 204.734473 44.669887 
L 205.795133 45.730547 
L 206.855794 44.669887 
L 205.795133 43.609227 
L 206.855794 42.548567 
L 205.795133 41.487907 
L 204.734473 42.548567 
L 203.673813 41.487907 
L 202.613153 42.548567 
L 203.673813 43.609227 
L 202.613153 44.669887 
z
" clip-path="url(#p8747993229)" style="fill: #88ccee; fill-opacity: 0.6; stroke: #ffffff; stroke-opacity: 0.6; stroke-width: 0.339411"/>
    <path d="M 176.96946 59.255802 
L 178.03012 58.195142 
L 179.09078 59.255802 
L 180.15144 58.195142 
L 179.09078 57.134482 
L 180.15144 56.073822 
L 179.09078 55.013162 
L 178.03012 56.073822 
L 176.96946 55.013162 
L 175.9088 56.073822 
L 176.96946 57.134482 
L 175.9088 58.195142 
z
" clip-path="url(#p8747993229)" style="fill: #88ccee; fill-opacity: 0.6; stroke: #ffffff; stroke-opacity: 0.6; stroke-width: 0.339411"/>
    <path d="M 205.593406 54.784205 
L 206.654066 53.723545 
L 207.714727 54.784205 
L 208.775387 53.723545 
L 207.714727 52.662885 
L 208.775387 51.602224 
L 207.714727 50.541564 
L 206.654066 51.602224 
L 205.593406 50.541564 
L 204.532746 51.602224 
L 205.593406 52.662885 
L 204.532746 53.723545 
z
" clip-path="url(#p8747993229)" style="fill: #88ccee; fill-opacity: 0.6; stroke: #ffffff; stroke-opacity: 0.6; stroke-width: 0.339411"/>
    <path d="M 200.042125 44.703023 
L 201.102785 43.642363 
L 202.163445 44.703023 
L 203.224105 43.642363 
L 202.163445 42.581703 
L 203.224105 41.521043 
L 202.163445 40.460382 
L 201.102785 41.521043 
L 200.042125 40.460382 
L 198.981465 41.521043 
L 200.042125 42.581703 
L 198.981465 43.642363 
z
" clip-path="url(#p8747993229)" style="fill: #88ccee; fill-opacity: 0.6; stroke: #ffffff; stroke-opacity: 0.6; stroke-width: 0.339411"/>
    <path d="M 191.861901 49.499602 
L 192.922562 48.438942 
L 193.983222 49.499602 
L 195.043882 48.438942 
L 193.983222 47.378282 
L 195.043882 46.317622 
L 193.983222 45.256962 
L 192.922562 46.317622 
L 191.861901 45.256962 
L 190.801241 46.317622 
L 191.861901 47.378282 
L 190.801241 48.438942 
z
" clip-path="url(#p8747993229)" style="fill: #88ccee; fill-opacity: 0.6; stroke: #ffffff; stroke-opacity: 0.6; stroke-width: 0.339411"/>
    <path d="M 206.37747 42.802153 
L 207.43813 41.741492 
L 208.49879 42.802153 
L 209.55945 41.741492 
L 208.49879 40.680832 
L 209.55945 39.620172 
L 208.49879 38.559512 
L 207.43813 39.620172 
L 206.37747 38.559512 
L 205.316809 39.620172 
L 206.37747 40.680832 
L 205.316809 41.741492 
z
" clip-path="url(#p8747993229)" style="fill: #88ccee; fill-opacity: 0.6; stroke: #ffffff; stroke-opacity: 0.6; stroke-width: 0.339411"/>
    <path d="M 177.123462 71.48094 
L 178.184122 70.42028 
L 179.244783 71.48094 
L 180.305443 70.42028 
L 179.244783 69.35962 
L 180.305443 68.29896 
L 179.244783 67.2383 
L 178.184122 68.29896 
L 177.123462 67.2383 
L 176.062802 68.29896 
L 177.123462 69.35962 
L 176.062802 70.42028 
z
" clip-path="url(#p8747993229)" style="fill: #88ccee; fill-opacity: 0.6; stroke: #ffffff; stroke-opacity: 0.6; stroke-width: 0.339411"/>
    <path d="M 166.356968 53.325507 
L 167.417629 52.264847 
L 168.478289 53.325507 
L 169.538949 52.264847 
L 168.478289 51.204187 
L 169.538949 50.143527 
L 168.478289 49.082867 
L 167.417629 50.143527 
L 166.356968 49.082867 
L 165.296308 50.143527 
L 166.356968 51.204187 
L 165.296308 52.264847 
z
" clip-path="url(#p8747993229)" style="fill: #88ccee; fill-opacity: 0.6; stroke: #ffffff; stroke-opacity: 0.6; stroke-width: 0.339411"/>
    <path d="M 172.683698 57.208974 
L 173.744358 56.148314 
L 174.805018 57.208974 
L 175.865678 56.148314 
L 174.805018 55.087654 
L 175.865678 54.026994 
L 174.805018 52.966334 
L 173.744358 54.026994 
L 172.683698 52.966334 
L 171.623038 54.026994 
L 172.683698 55.087654 
L 171.623038 56.148314 
z
" clip-path="url(#p8747993229)" style="fill: #88ccee; fill-opacity: 0.6; stroke: #ffffff; stroke-opacity: 0.6; stroke-width: 0.339411"/>
    <path d="M 175.41183 85.566217 
L 176.47249 84.505557 
L 177.533151 85.566217 
L 178.593811 84.505557 
L 177.533151 83.444897 
L 178.593811 82.384237 
L 177.533151 81.323577 
L 176.47249 82.384237 
L 175.41183 81.323577 
L 174.35117 82.384237 
L 175.41183 83.444897 
L 174.35117 84.505557 
z
" clip-path="url(#p8747993229)" style="fill: #88ccee; fill-opacity: 0.6; stroke: #ffffff; stroke-opacity: 0.6; stroke-width: 0.339411"/>
    <path d="M 165.648146 59.569404 
L 166.708806 58.508744 
L 167.769466 59.569404 
L 168.830127 58.508744 
L 167.769466 57.448084 
L 168.830127 56.387424 
L 167.769466 55.326764 
L 166.708806 56.387424 
L 165.648146 55.326764 
L 164.587486 56.387424 
L 165.648146 57.448084 
L 164.587486 58.508744 
z
" clip-path="url(#p8747993229)" style="fill: #88ccee; fill-opacity: 0.6; stroke: #ffffff; stroke-opacity: 0.6; stroke-width: 0.339411"/>
    <path d="M 201.042667 51.9848 
L 202.103327 50.92414 
L 203.163988 51.9848 
L 204.224648 50.92414 
L 203.163988 49.86348 
L 204.224648 48.80282 
L 203.163988 47.74216 
L 202.103327 48.80282 
L 201.042667 47.74216 
L 199.982007 48.80282 
L 201.042667 49.86348 
L 199.982007 50.92414 
z
" clip-path="url(#p8747993229)" style="fill: #88ccee; fill-opacity: 0.6; stroke: #ffffff; stroke-opacity: 0.6; stroke-width: 0.339411"/>
    <path d="M 183.998293 73.409139 
L 185.058953 72.348479 
L 186.119613 73.409139 
L 187.180274 72.348479 
L 186.119613 71.287819 
L 187.180274 70.227158 
L 186.119613 69.166498 
L 185.058953 70.227158 
L 183.998293 69.166498 
L 182.937633 70.227158 
L 183.998293 71.287819 
L 182.937633 72.348479 
z
" clip-path="url(#p8747993229)" style="fill: #88ccee; fill-opacity: 0.6; stroke: #ffffff; stroke-opacity: 0.6; stroke-width: 0.339411"/>
    <path d="M 210.52156 56.621614 
L 211.58222 55.560954 
L 212.64288 56.621614 
L 213.70354 55.560954 
L 212.64288 54.500294 
L 213.70354 53.439634 
L 212.64288 52.378973 
L 211.58222 53.439634 
L 210.52156 52.378973 
L 209.460899 53.439634 
L 210.52156 54.500294 
L 209.460899 55.560954 
z
" clip-path="url(#p8747993229)" style="fill: #88ccee; fill-opacity: 0.6; stroke: #ffffff; stroke-opacity: 0.6; stroke-width: 0.339411"/>
    <path d="M 187.91117 35.641701 
L 188.97183 34.581041 
L 190.03249 35.641701 
L 191.09315 34.581041 
L 190.03249 33.520381 
L 191.09315 32.459721 
L 190.03249 31.39906 
L 188.97183 32.459721 
L 187.91117 31.39906 
L 186.85051 32.459721 
L 187.91117 33.520381 
L 186.85051 34.581041 
z
" clip-path="url(#p8747993229)" style="fill: #88ccee; fill-opacity: 0.6; stroke: #ffffff; stroke-opacity: 0.6; stroke-width: 0.339411"/>
    <path d="M 182.681906 42.545449 
L 183.742566 41.484789 
L 184.803226 42.545449 
L 185.863886 41.484789 
L 184.803226 40.424129 
L 185.863886 39.363469 
L 184.803226 38.302809 
L 183.742566 39.363469 
L 182.681906 38.302809 
L 181.621246 39.363469 
L 182.681906 40.424129 
L 181.621246 41.484789 
z
" clip-path="url(#p8747993229)" style="fill: #88ccee; fill-opacity: 0.6; stroke: #ffffff; stroke-opacity: 0.6; stroke-width: 0.339411"/>
    <path d="M 185.745249 46.446322 
L 186.805909 45.385662 
L 187.866569 46.446322 
L 188.92723 45.385662 
L 187.866569 44.325002 
L 188.92723 43.264342 
L 187.866569 42.203682 
L 186.805909 43.264342 
L 185.745249 42.203682 
L 184.684589 43.264342 
L 185.745249 44.325002 
L 184.684589 45.385662 
z
" clip-path="url(#p8747993229)" style="fill: #88ccee; fill-opacity: 0.6; stroke: #ffffff; stroke-opacity: 0.6; stroke-width: 0.339411"/>
    <path d="M 195.958737 48.360786 
L 197.019397 47.300126 
L 198.080057 48.360786 
L 199.140717 47.300126 
L 198.080057 46.239466 
L 199.140717 45.178806 
L 198.080057 44.118146 
L 197.019397 45.178806 
L 195.958737 44.118146 
L 194.898076 45.178806 
L 195.958737 46.239466 
L 194.898076 47.300126 
z
" clip-path="url(#p8747993229)" style="fill: #88ccee; fill-opacity: 0.6; stroke: #ffffff; stroke-opacity: 0.6; stroke-width: 0.339411"/>
    <path d="M 212.546301 53.478232 
L 213.606961 52.417572 
L 214.667621 53.478232 
L 215.728282 52.417572 
L 214.667621 51.356912 
L 215.728282 50.296252 
L 214.667621 49.235592 
L 213.606961 50.296252 
L 212.546301 49.235592 
L 211.485641 50.296252 
L 212.546301 51.356912 
L 211.485641 52.417572 
z
" clip-path="url(#p8747993229)" style="fill: #88ccee; fill-opacity: 0.6; stroke: #ffffff; stroke-opacity: 0.6; stroke-width: 0.339411"/>
    <path d="M 186.29062 38.768096 
L 187.35128 37.707436 
L 188.41194 38.768096 
L 189.472601 37.707436 
L 188.41194 36.646776 
L 189.472601 35.586116 
L 188.41194 34.525456 
L 187.35128 35.586116 
L 186.29062 34.525456 
L 185.22996 35.586116 
L 186.29062 36.646776 
L 185.22996 37.707436 
z
" clip-path="url(#p8747993229)" style="fill: #88ccee; fill-opacity: 0.6; stroke: #ffffff; stroke-opacity: 0.6; stroke-width: 0.339411"/>
    <path d="M 185.206753 56.696543 
L 186.267413 55.635883 
L 187.328073 56.696543 
L 188.388733 55.635883 
L 187.328073 54.575223 
L 188.388733 53.514563 
L 187.328073 52.453902 
L 186.267413 53.514563 
L 185.206753 52.453902 
L 184.146093 53.514563 
L 185.206753 54.575223 
L 184.146093 55.635883 
z
" clip-path="url(#p8747993229)" style="fill: #88ccee; fill-opacity: 0.6; stroke: #ffffff; stroke-opacity: 0.6; stroke-width: 0.339411"/>
    <path d="M 171.761995 64.021665 
L 172.822655 62.961005 
L 173.883315 64.021665 
L 174.943975 62.961005 
L 173.883315 61.900345 
L 174.943975 60.839684 
L 173.883315 59.779024 
L 172.822655 60.839684 
L 171.761995 59.779024 
L 170.701335 60.839684 
L 171.761995 61.900345 
L 170.701335 62.961005 
z
" clip-path="url(#p8747993229)" style="fill: #88ccee; fill-opacity: 0.6; stroke: #ffffff; stroke-opacity: 0.6; stroke-width: 0.339411"/>
    <path d="M 211.435267 58.382212 
L 212.495927 57.321552 
L 213.556587 58.382212 
L 214.617247 57.321552 
L 213.556587 56.260892 
L 214.617247 55.200232 
L 213.556587 54.139572 
L 212.495927 55.200232 
L 211.435267 54.139572 
L 210.374607 55.200232 
L 211.435267 56.260892 
L 210.374607 57.321552 
z
" clip-path="url(#p8747993229)" style="fill: #88ccee; fill-opacity: 0.6; stroke: #ffffff; stroke-opacity: 0.6; stroke-width: 0.339411"/>
    <path d="M 180.626155 53.457871 
L 181.686815 52.397211 
L 182.747476 53.457871 
L 183.808136 52.397211 
L 182.747476 51.336551 
L 183.808136 50.275891 
L 182.747476 49.215231 
L 181.686815 50.275891 
L 180.626155 49.215231 
L 179.565495 50.275891 
L 180.626155 51.336551 
L 179.565495 52.397211 
z
" clip-path="url(#p8747993229)" style="fill: #88ccee; fill-opacity: 0.6; stroke: #ffffff; stroke-opacity: 0.6; stroke-width: 0.339411"/>
    <path d="M 158.415637 65.894354 
L 159.476298 64.833694 
L 160.536958 65.894354 
L 161.597618 64.833694 
L 160.536958 63.773034 
L 161.597618 62.712374 
L 160.536958 61.651714 
L 159.476298 62.712374 
L 158.415637 61.651714 
L 157.354977 62.712374 
L 158.415637 63.773034 
L 157.354977 64.833694 
z
" clip-path="url(#p8747993229)" style="fill: #88ccee; fill-opacity: 0.6; stroke: #ffffff; stroke-opacity: 0.6; stroke-width: 0.339411"/>
    <path d="M 195.664159 54.597936 
L 196.72482 53.537275 
L 197.78548 54.597936 
L 198.84614 53.537275 
L 197.78548 52.476615 
L 198.84614 51.415955 
L 197.78548 50.355295 
L 196.72482 51.415955 
L 195.664159 50.355295 
L 194.603499 51.415955 
L 195.664159 52.476615 
L 194.603499 53.537275 
z
" clip-path="url(#p8747993229)" style="fill: #88ccee; fill-opacity: 0.6; stroke: #ffffff; stroke-opacity: 0.6; stroke-width: 0.339411"/>
    <path d="M 174.97308 45.238506 
L 176.03374 44.177846 
L 177.0944 45.238506 
L 178.155061 44.177846 
L 177.0944 43.117186 
L 178.155061 42.056526 
L 177.0944 40.995866 
L 176.03374 42.056526 
L 174.97308 40.995866 
L 173.91242 42.056526 
L 174.97308 43.117186 
L 173.91242 44.177846 
z
" clip-path="url(#p8747993229)" style="fill: #88ccee; fill-opacity: 0.6; stroke: #ffffff; stroke-opacity: 0.6; stroke-width: 0.339411"/>
    <path d="M 169.901846 67.255744 
L 170.962506 66.195083 
L 172.023166 67.255744 
L 173.083826 66.195083 
L 172.023166 65.134423 
L 173.083826 64.073763 
L 172.023166 63.013103 
L 170.962506 64.073763 
L 169.901846 63.013103 
L 168.841186 64.073763 
L 169.901846 65.134423 
L 168.841186 66.195083 
z
" clip-path="url(#p8747993229)" style="fill: #88ccee; fill-opacity: 0.6; stroke: #ffffff; stroke-opacity: 0.6; stroke-width: 0.339411"/>
    <path d="M 196.631284 56.59159 
L 197.691944 55.53093 
L 198.752604 56.59159 
L 199.813265 55.53093 
L 198.752604 54.47027 
L 199.813265 53.409609 
L 198.752604 52.348949 
L 197.691944 53.409609 
L 196.631284 52.348949 
L 195.570624 53.409609 
L 196.631284 54.47027 
L 195.570624 55.53093 
z
" clip-path="url(#p8747993229)" style="fill: #88ccee; fill-opacity: 0.6; stroke: #ffffff; stroke-opacity: 0.6; stroke-width: 0.339411"/>
    <path d="M 175.263064 67.013307 
L 176.323725 65.952647 
L 177.384385 67.013307 
L 178.445045 65.952647 
L 177.384385 64.891986 
L 178.445045 63.831326 
L 177.384385 62.770666 
L 176.323725 63.831326 
L 175.263064 62.770666 
L 174.202404 63.831326 
L 175.263064 64.891986 
L 174.202404 65.952647 
z
" clip-path="url(#p8747993229)" style="fill: #88ccee; fill-opacity: 0.6; stroke: #ffffff; stroke-opacity: 0.6; stroke-width: 0.339411"/>
    <path d="M 179.056483 82.095109 
L 180.117143 81.034449 
L 181.177803 82.095109 
L 182.238463 81.034449 
L 181.177803 79.973789 
L 182.238463 78.913128 
L 181.177803 77.852468 
L 180.117143 78.913128 
L 179.056483 77.852468 
L 177.995823 78.913128 
L 179.056483 79.973789 
L 177.995823 81.034449 
z
" clip-path="url(#p8747993229)" style="fill: #88ccee; fill-opacity: 0.6; stroke: #ffffff; stroke-opacity: 0.6; stroke-width: 0.339411"/>
    <path d="M 198.132995 50.924248 
L 199.193655 49.863588 
L 200.254315 50.924248 
L 201.314975 49.863588 
L 200.254315 48.802928 
L 201.314975 47.742268 
L 200.254315 46.681608 
L 199.193655 47.742268 
L 198.132995 46.681608 
L 197.072335 47.742268 
L 198.132995 48.802928 
L 197.072335 49.863588 
z
" clip-path="url(#p8747993229)" style="fill: #88ccee; fill-opacity: 0.6; stroke: #ffffff; stroke-opacity: 0.6; stroke-width: 0.339411"/>
    <path d="M 188.058473 56.022279 
L 189.119133 54.961619 
L 190.179794 56.022279 
L 191.240454 54.961619 
L 190.179794 53.900959 
L 191.240454 52.840299 
L 190.179794 51.779639 
L 189.119133 52.840299 
L 188.058473 51.779639 
L 186.997813 52.840299 
L 188.058473 53.900959 
L 186.997813 54.961619 
z
" clip-path="url(#p8747993229)" style="fill: #88ccee; fill-opacity: 0.6; stroke: #ffffff; stroke-opacity: 0.6; stroke-width: 0.339411"/>
    <path d="M 189.218176 44.523326 
L 190.278837 43.462666 
L 191.339497 44.523326 
L 192.400157 43.462666 
L 191.339497 42.402006 
L 192.400157 41.341346 
L 191.339497 40.280685 
L 190.278837 41.341346 
L 189.218176 40.280685 
L 188.157516 41.341346 
L 189.218176 42.402006 
L 188.157516 43.462666 
z
" clip-path="url(#p8747993229)" style="fill: #88ccee; fill-opacity: 0.6; stroke: #ffffff; stroke-opacity: 0.6; stroke-width: 0.339411"/>
    <path d="M 196.256941 48.012128 
L 197.317601 46.951468 
L 198.378262 48.012128 
L 199.438922 46.951468 
L 198.378262 45.890808 
L 199.438922 44.830148 
L 198.378262 43.769488 
L 197.317601 44.830148 
L 196.256941 43.769488 
L 195.196281 44.830148 
L 196.256941 45.890808 
L 195.196281 46.951468 
z
" clip-path="url(#p8747993229)" style="fill: #88ccee; fill-opacity: 0.6; stroke: #ffffff; stroke-opacity: 0.6; stroke-width: 0.339411"/>
    <path d="M 208.02703 55.834752 
L 209.08769 54.774092 
L 210.14835 55.834752 
L 211.20901 54.774092 
L 210.14835 53.713432 
L 211.20901 52.652772 
L 210.14835 51.592111 
L 209.08769 52.652772 
L 208.02703 51.592111 
L 206.966369 52.652772 
L 208.02703 53.713432 
L 206.966369 54.774092 
z
" clip-path="url(#p8747993229)" style="fill: #88ccee; fill-opacity: 0.6; stroke: #ffffff; stroke-opacity: 0.6; stroke-width: 0.339411"/>
    <path d="M 161.012381 56.838298 
L 162.073041 55.777638 
L 163.133701 56.838298 
L 164.194361 55.777638 
L 163.133701 54.716978 
L 164.194361 53.656317 
L 163.133701 52.595657 
L 162.073041 53.656317 
L 161.012381 52.595657 
L 159.95172 53.656317 
L 161.012381 54.716978 
L 159.95172 55.777638 
z
" clip-path="url(#p8747993229)" style="fill: #88ccee; fill-opacity: 0.6; stroke: #ffffff; stroke-opacity: 0.6; stroke-width: 0.339411"/>
    <path d="M 186.010065 39.935873 
L 187.070725 38.875213 
L 188.131386 39.935873 
L 189.192046 38.875213 
L 188.131386 37.814553 
L 189.192046 36.753893 
L 188.131386 35.693233 
L 187.070725 36.753893 
L 186.010065 35.693233 
L 184.949405 36.753893 
L 186.010065 37.814553 
L 184.949405 38.875213 
z
" clip-path="url(#p8747993229)" style="fill: #88ccee; fill-opacity: 0.6; stroke: #ffffff; stroke-opacity: 0.6; stroke-width: 0.339411"/>
    <path d="M 176.101457 59.437937 
L 177.162117 58.377277 
L 178.222778 59.437937 
L 179.283438 58.377277 
L 178.222778 57.316617 
L 179.283438 56.255957 
L 178.222778 55.195297 
L 177.162117 56.255957 
L 176.101457 55.195297 
L 175.040797 56.255957 
L 176.101457 57.316617 
L 175.040797 58.377277 
z
" clip-path="url(#p8747993229)" style="fill: #88ccee; fill-opacity: 0.6; stroke: #ffffff; stroke-opacity: 0.6; stroke-width: 0.339411"/>
    <path d="M 158.199563 46.947618 
L 159.260223 45.886957 
L 160.320883 46.947618 
L 161.381544 45.886957 
L 160.320883 44.826297 
L 161.381544 43.765637 
L 160.320883 42.704977 
L 159.260223 43.765637 
L 158.199563 42.704977 
L 157.138903 43.765637 
L 158.199563 44.826297 
L 157.138903 45.886957 
z
" clip-path="url(#p8747993229)" style="fill: #88ccee; fill-opacity: 0.6; stroke: #ffffff; stroke-opacity: 0.6; stroke-width: 0.339411"/>
    <path d="M 170.934914 71.824859 
L 171.995574 70.764199 
L 173.056234 71.824859 
L 174.116894 70.764199 
L 173.056234 69.703539 
L 174.116894 68.642878 
L 173.056234 67.582218 
L 171.995574 68.642878 
L 170.934914 67.582218 
L 169.874253 68.642878 
L 170.934914 69.703539 
L 169.874253 70.764199 
z
" clip-path="url(#p8747993229)" style="fill: #88ccee; fill-opacity: 0.6; stroke: #ffffff; stroke-opacity: 0.6; stroke-width: 0.339411"/>
    <path d="M 170.213766 57.017751 
L 171.274426 55.957091 
L 172.335086 57.017751 
L 173.395746 55.957091 
L 172.335086 54.896431 
L 173.395746 53.835771 
L 172.335086 52.77511 
L 171.274426 53.835771 
L 170.213766 52.77511 
L 169.153105 53.835771 
L 170.213766 54.896431 
L 169.153105 55.957091 
z
" clip-path="url(#p8747993229)" style="fill: #88ccee; fill-opacity: 0.6; stroke: #ffffff; stroke-opacity: 0.6; stroke-width: 0.339411"/>
    <path d="M 169.727034 69.814428 
L 170.787694 68.753767 
L 171.848354 69.814428 
L 172.909015 68.753767 
L 171.848354 67.693107 
L 172.909015 66.632447 
L 171.848354 65.571787 
L 170.787694 66.632447 
L 169.727034 65.571787 
L 168.666374 66.632447 
L 169.727034 67.693107 
L 168.666374 68.753767 
z
" clip-path="url(#p8747993229)" style="fill: #88ccee; fill-opacity: 0.6; stroke: #ffffff; stroke-opacity: 0.6; stroke-width: 0.339411"/>
    <path d="M 195.428363 40.667368 
L 196.489023 39.606707 
L 197.549683 40.667368 
L 198.610344 39.606707 
L 197.549683 38.546047 
L 198.610344 37.485387 
L 197.549683 36.424727 
L 196.489023 37.485387 
L 195.428363 36.424727 
L 194.367703 37.485387 
L 195.428363 38.546047 
L 194.367703 39.606707 
z
" clip-path="url(#p8747993229)" style="fill: #88ccee; fill-opacity: 0.6; stroke: #ffffff; stroke-opacity: 0.6; stroke-width: 0.339411"/>
    <path d="M 183.884388 42.303763 
L 184.945048 41.243103 
L 186.005708 42.303763 
L 187.066369 41.243103 
L 186.005708 40.182443 
L 187.066369 39.121783 
L 186.005708 38.061123 
L 184.945048 39.121783 
L 183.884388 38.061123 
L 182.823728 39.121783 
L 183.884388 40.182443 
L 182.823728 41.243103 
z
" clip-path="url(#p8747993229)" style="fill: #88ccee; fill-opacity: 0.6; stroke: #ffffff; stroke-opacity: 0.6; stroke-width: 0.339411"/>
    <path d="M 169.816468 61.291192 
L 170.877128 60.230532 
L 171.937788 61.291192 
L 172.998449 60.230532 
L 171.937788 59.169872 
L 172.998449 58.109212 
L 171.937788 57.048552 
L 170.877128 58.109212 
L 169.816468 57.048552 
L 168.755808 58.109212 
L 169.816468 59.169872 
L 168.755808 60.230532 
z
" clip-path="url(#p8747993229)" style="fill: #88ccee; fill-opacity: 0.6; stroke: #ffffff; stroke-opacity: 0.6; stroke-width: 0.339411"/>
    <path d="M 172.129726 62.486585 
L 173.190387 61.425925 
L 174.251047 62.486585 
L 175.311707 61.425925 
L 174.251047 60.365265 
L 175.311707 59.304605 
L 174.251047 58.243945 
L 173.190387 59.304605 
L 172.129726 58.243945 
L 171.069066 59.304605 
L 172.129726 60.365265 
L 171.069066 61.425925 
z
" clip-path="url(#p8747993229)" style="fill: #88ccee; fill-opacity: 0.6; stroke: #ffffff; stroke-opacity: 0.6; stroke-width: 0.339411"/>
    <path d="M 207.784895 54.461144 
L 208.845555 53.400484 
L 209.906215 54.461144 
L 210.966875 53.400484 
L 209.906215 52.339824 
L 210.966875 51.279164 
L 209.906215 50.218504 
L 208.845555 51.279164 
L 207.784895 50.218504 
L 206.724235 51.279164 
L 207.784895 52.339824 
L 206.724235 53.400484 
z
" clip-path="url(#p8747993229)" style="fill: #88ccee; fill-opacity: 0.6; stroke: #ffffff; stroke-opacity: 0.6; stroke-width: 0.339411"/>
    <path d="M 190.235033 36.986767 
L 191.295693 35.926107 
L 192.356353 36.986767 
L 193.417013 35.926107 
L 192.356353 34.865446 
L 193.417013 33.804786 
L 192.356353 32.744126 
L 191.295693 33.804786 
L 190.235033 32.744126 
L 189.174373 33.804786 
L 190.235033 34.865446 
L 189.174373 35.926107 
z
" clip-path="url(#p8747993229)" style="fill: #88ccee; fill-opacity: 0.6; stroke: #ffffff; stroke-opacity: 0.6; stroke-width: 0.339411"/>
    <path d="M 181.876838 63.423832 
L 182.937498 62.363172 
L 183.998159 63.423832 
L 185.058819 62.363172 
L 183.998159 61.302512 
L 185.058819 60.241851 
L 183.998159 59.181191 
L 182.937498 60.241851 
L 181.876838 59.181191 
L 180.816178 60.241851 
L 181.876838 61.302512 
L 180.816178 62.363172 
z
" clip-path="url(#p8747993229)" style="fill: #88ccee; fill-opacity: 0.6; stroke: #ffffff; stroke-opacity: 0.6; stroke-width: 0.339411"/>
    <path d="M 182.3861 41.112485 
L 183.44676 40.051825 
L 184.50742 41.112485 
L 185.568081 40.051825 
L 184.50742 38.991165 
L 185.568081 37.930505 
L 184.50742 36.869845 
L 183.44676 37.930505 
L 182.3861 36.869845 
L 181.32544 37.930505 
L 182.3861 38.991165 
L 181.32544 40.051825 
z
" clip-path="url(#p8747993229)" style="fill: #88ccee; fill-opacity: 0.6; stroke: #ffffff; stroke-opacity: 0.6; stroke-width: 0.339411"/>
    <path d="M 198.148538 55.308728 
L 199.209199 54.248068 
L 200.269859 55.308728 
L 201.330519 54.248068 
L 200.269859 53.187407 
L 201.330519 52.126747 
L 200.269859 51.066087 
L 199.209199 52.126747 
L 198.148538 51.066087 
L 197.087878 52.126747 
L 198.148538 53.187407 
L 197.087878 54.248068 
z
" clip-path="url(#p8747993229)" style="fill: #88ccee; fill-opacity: 0.6; stroke: #ffffff; stroke-opacity: 0.6; stroke-width: 0.339411"/>
    <path d="M 181.065637 48.075414 
L 182.126297 47.014754 
L 183.186957 48.075414 
L 184.247617 47.014754 
L 183.186957 45.954094 
L 184.247617 44.893434 
L 183.186957 43.832774 
L 182.126297 44.893434 
L 181.065637 43.832774 
L 180.004977 44.893434 
L 181.065637 45.954094 
L 180.004977 47.014754 
z
" clip-path="url(#p8747993229)" style="fill: #88ccee; fill-opacity: 0.6; stroke: #ffffff; stroke-opacity: 0.6; stroke-width: 0.339411"/>
    <path d="M 165.166212 64.77508 
L 166.226872 63.71442 
L 167.287533 64.77508 
L 168.348193 63.71442 
L 167.287533 62.65376 
L 168.348193 61.593099 
L 167.287533 60.532439 
L 166.226872 61.593099 
L 165.166212 60.532439 
L 164.105552 61.593099 
L 165.166212 62.65376 
L 164.105552 63.71442 
z
" clip-path="url(#p8747993229)" style="fill: #88ccee; fill-opacity: 0.6; stroke: #ffffff; stroke-opacity: 0.6; stroke-width: 0.339411"/>
    <path d="M 201.71385 56.291961 
L 202.77451 55.231301 
L 203.83517 56.291961 
L 204.89583 55.231301 
L 203.83517 54.170641 
L 204.89583 53.109981 
L 203.83517 52.049321 
L 202.77451 53.109981 
L 201.71385 52.049321 
L 200.653189 53.109981 
L 201.71385 54.170641 
L 200.653189 55.231301 
z
" clip-path="url(#p8747993229)" style="fill: #88ccee; fill-opacity: 0.6; stroke: #ffffff; stroke-opacity: 0.6; stroke-width: 0.339411"/>
    <path d="M 181.51328 71.117373 
L 182.57394 70.056712 
L 183.634601 71.117373 
L 184.695261 70.056712 
L 183.634601 68.996052 
L 184.695261 67.935392 
L 183.634601 66.874732 
L 182.57394 67.935392 
L 181.51328 66.874732 
L 180.45262 67.935392 
L 181.51328 68.996052 
L 180.45262 70.056712 
z
" clip-path="url(#p8747993229)" style="fill: #88ccee; fill-opacity: 0.6; stroke: #ffffff; stroke-opacity: 0.6; stroke-width: 0.339411"/>
    <path d="M 194.067851 43.34727 
L 195.128512 42.28661 
L 196.189172 43.34727 
L 197.249832 42.28661 
L 196.189172 41.22595 
L 197.249832 40.165289 
L 196.189172 39.104629 
L 195.128512 40.165289 
L 194.067851 39.104629 
L 193.007191 40.165289 
L 194.067851 41.22595 
L 193.007191 42.28661 
z
" clip-path="url(#p8747993229)" style="fill: #88ccee; fill-opacity: 0.6; stroke: #ffffff; stroke-opacity: 0.6; stroke-width: 0.339411"/>
    <path d="M 186.658439 42.281131 
L 187.719099 41.22047 
L 188.77976 42.281131 
L 189.84042 41.22047 
L 188.77976 40.15981 
L 189.84042 39.09915 
L 188.77976 38.03849 
L 187.719099 39.09915 
L 186.658439 38.03849 
L 185.597779 39.09915 
L 186.658439 40.15981 
L 185.597779 41.22047 
z
" clip-path="url(#p8747993229)" style="fill: #88ccee; fill-opacity: 0.6; stroke: #ffffff; stroke-opacity: 0.6; stroke-width: 0.339411"/>
    <path d="M 182.22142 48.542044 
L 183.28208 47.481383 
L 184.34274 48.542044 
L 185.403401 47.481383 
L 184.34274 46.420723 
L 185.403401 45.360063 
L 184.34274 44.299403 
L 183.28208 45.360063 
L 182.22142 44.299403 
L 181.16076 45.360063 
L 182.22142 46.420723 
L 181.16076 47.481383 
z
" clip-path="url(#p8747993229)" style="fill: #88ccee; fill-opacity: 0.6; stroke: #ffffff; stroke-opacity: 0.6; stroke-width: 0.339411"/>
    <path d="M 207.76391 56.651092 
L 208.82457 55.590432 
L 209.88523 56.651092 
L 210.945891 55.590432 
L 209.88523 54.529772 
L 210.945891 53.469112 
L 209.88523 52.408452 
L 208.82457 53.469112 
L 207.76391 52.408452 
L 206.70325 53.469112 
L 207.76391 54.529772 
L 206.70325 55.590432 
z
" clip-path="url(#p8747993229)" style="fill: #88ccee; fill-opacity: 0.6; stroke: #ffffff; stroke-opacity: 0.6; stroke-width: 0.339411"/>
    <path d="M 192.15839 42.698867 
L 193.21905 41.638207 
L 194.27971 42.698867 
L 195.34037 41.638207 
L 194.27971 40.577546 
L 195.34037 39.516886 
L 194.27971 38.456226 
L 193.21905 39.516886 
L 192.15839 38.456226 
L 191.09773 39.516886 
L 192.15839 40.577546 
L 191.09773 41.638207 
z
" clip-path="url(#p8747993229)" style="fill: #88ccee; fill-opacity: 0.6; stroke: #ffffff; stroke-opacity: 0.6; stroke-width: 0.339411"/>
   </g>
   <g id="matplotlib.axis_1">
    <g id="xtick_1">
     <g id="line2d_1">
      <defs>
       <path id="mc53ba797d2" d="M 0 0 
L 0 8 
" style="stroke: #000000"/>
      </defs>
      <g>
       <use xlink:href="#mc53ba797d2" x="98.41426" y="192.727559" style="stroke: #000000"/>
      </g>
     </g>
     <g id="text_1">
      <!-- 0 -->
      <g transform="translate(94.59676 213.345684) scale(0.12 -0.12)">
       <defs>
        <path id="DejaVuSans-30" d="M 2034 4250 
Q 1547 4250 1301 3770 
Q 1056 3291 1056 2328 
Q 1056 1369 1301 889 
Q 1547 409 2034 409 
Q 2525 409 2770 889 
Q 3016 1369 3016 2328 
Q 3016 3291 2770 3770 
Q 2525 4250 2034 4250 
z
M 2034 4750 
Q 2819 4750 3233 4129 
Q 3647 3509 3647 2328 
Q 3647 1150 3233 529 
Q 2819 -91 2034 -91 
Q 1250 -91 836 529 
Q 422 1150 422 2328 
Q 422 3509 836 4129 
Q 1250 4750 2034 4750 
z
" transform="scale(0.015625)"/>
       </defs>
       <use xlink:href="#DejaVuSans-30"/>
      </g>
     </g>
    </g>
    <g id="xtick_2">
     <g id="line2d_2">
      <g>
       <use xlink:href="#mc53ba797d2" x="200.664103" y="192.727559" style="stroke: #000000"/>
      </g>
     </g>
     <g id="text_2">
      <!-- 10 -->
      <g transform="translate(193.029103 213.345684) scale(0.12 -0.12)">
       <defs>
        <path id="DejaVuSans-31" d="M 794 531 
L 1825 531 
L 1825 4091 
L 703 3866 
L 703 4441 
L 1819 4666 
L 2450 4666 
L 2450 531 
L 3481 531 
L 3481 0 
L 794 0 
L 794 531 
z
" transform="scale(0.015625)"/>
       </defs>
       <use xlink:href="#DejaVuSans-31"/>
       <use xlink:href="#DejaVuSans-30" x="63.623047"/>
      </g>
     </g>
    </g>
    <g id="text_3">
     <!-- UMAP 1 -->
     <g transform="translate(119.332842 228.959434) scale(0.12 -0.12)">
      <defs>
       <path id="DejaVuSans-55" d="M 556 4666 
L 1191 4666 
L 1191 1831 
Q 1191 1081 1462 751 
Q 1734 422 2344 422 
Q 2950 422 3222 751 
Q 3494 1081 3494 1831 
L 3494 4666 
L 4128 4666 
L 4128 1753 
Q 4128 841 3676 375 
Q 3225 -91 2344 -91 
Q 1459 -91 1007 375 
Q 556 841 556 1753 
L 556 4666 
z
" transform="scale(0.015625)"/>
       <path id="DejaVuSans-4d" d="M 628 4666 
L 1569 4666 
L 2759 1491 
L 3956 4666 
L 4897 4666 
L 4897 0 
L 4281 0 
L 4281 4097 
L 3078 897 
L 2444 897 
L 1241 4097 
L 1241 0 
L 628 0 
L 628 4666 
z
" transform="scale(0.015625)"/>
       <path id="DejaVuSans-41" d="M 2188 4044 
L 1331 1722 
L 3047 1722 
L 2188 4044 
z
M 1831 4666 
L 2547 4666 
L 4325 0 
L 3669 0 
L 3244 1197 
L 1141 1197 
L 716 0 
L 50 0 
L 1831 4666 
z
" transform="scale(0.015625)"/>
       <path id="DejaVuSans-50" d="M 1259 4147 
L 1259 2394 
L 2053 2394 
Q 2494 2394 2734 2622 
Q 2975 2850 2975 3272 
Q 2975 3691 2734 3919 
Q 2494 4147 2053 4147 
L 1259 4147 
z
M 628 4666 
L 2053 4666 
Q 2838 4666 3239 4311 
Q 3641 3956 3641 3272 
Q 3641 2581 3239 2228 
Q 2838 1875 2053 1875 
L 1259 1875 
L 1259 0 
L 628 0 
L 628 4666 
z
" transform="scale(0.015625)"/>
       <path id="DejaVuSans-20" transform="scale(0.015625)"/>
      </defs>
      <use xlink:href="#DejaVuSans-55"/>
      <use xlink:href="#DejaVuSans-4d" x="73.193359"/>
      <use xlink:href="#DejaVuSans-41" x="159.472656"/>
      <use xlink:href="#DejaVuSans-50" x="227.880859"/>
      <use xlink:href="#DejaVuSans-20" x="288.183594"/>
      <use xlink:href="#DejaVuSans-31" x="319.970703"/>
     </g>
    </g>
   </g>
   <g id="matplotlib.axis_2">
    <g id="ytick_1">
     <g id="line2d_3">
      <defs>
       <path id="m147d5cf807" d="M 0 0 
L -8 0 
" style="stroke: #000000"/>
      </defs>
      <g>
       <use xlink:href="#m147d5cf807" x="49.58375" y="143.897049" style="stroke: #000000"/>
      </g>
     </g>
     <g id="text_4">
      <!-- 0 -->
      <g transform="translate(30.44875 148.456112) scale(0.12 -0.12)">
       <use xlink:href="#DejaVuSans-30"/>
      </g>
     </g>
    </g>
    <g id="ytick_2">
     <g id="line2d_4">
      <g>
       <use xlink:href="#m147d5cf807" x="49.58375" y="41.647206" style="stroke: #000000"/>
      </g>
     </g>
     <g id="text_5">
      <!-- 10 -->
      <g transform="translate(22.81375 46.206269) scale(0.12 -0.12)">
       <use xlink:href="#DejaVuSans-31"/>
       <use xlink:href="#DejaVuSans-30" x="63.623047"/>
      </g>
     </g>
    </g>
    <g id="text_6">
     <!-- UMAP 2 -->
     <g transform="translate(16.318125 122.978467) rotate(-90) scale(0.12 -0.12)">
      <defs>
       <path id="DejaVuSans-32" d="M 1228 531 
L 3431 531 
L 3431 0 
L 469 0 
L 469 531 
Q 828 903 1448 1529 
Q 2069 2156 2228 2338 
Q 2531 2678 2651 2914 
Q 2772 3150 2772 3378 
Q 2772 3750 2511 3984 
Q 2250 4219 1831 4219 
Q 1534 4219 1204 4116 
Q 875 4013 500 3803 
L 500 4441 
Q 881 4594 1212 4672 
Q 1544 4750 1819 4750 
Q 2544 4750 2975 4387 
Q 3406 4025 3406 3419 
Q 3406 3131 3298 2873 
Q 3191 2616 2906 2266 
Q 2828 2175 2409 1742 
Q 1991 1309 1228 531 
z
" transform="scale(0.015625)"/>
      </defs>
      <use xlink:href="#DejaVuSans-55"/>
      <use xlink:href="#DejaVuSans-4d" x="73.193359"/>
      <use xlink:href="#DejaVuSans-41" x="159.472656"/>
      <use xlink:href="#DejaVuSans-50" x="227.880859"/>
      <use xlink:href="#DejaVuSans-20" x="288.183594"/>
      <use xlink:href="#DejaVuSans-32" x="319.970703"/>
     </g>
    </g>
   </g>
   <g id="patch_3">
    <path d="M 49.58375 192.727559 
L 49.58375 7.2 
" style="fill: none; stroke: #000000; stroke-width: 2; stroke-linejoin: miter; stroke-linecap: square"/>
   </g>
   <g id="patch_4">
    <path d="M 49.58375 192.727559 
L 235.111309 192.727559 
" style="fill: none; stroke: #000000; stroke-width: 2; stroke-linejoin: miter; stroke-linecap: square"/>
   </g>
  </g>
 </g>
 <defs>
  <clipPath id="p8747993229">
   <rect x="49.58375" y="7.2" width="185.527559" height="185.527559"/>
  </clipPath>
 </defs>
</svg>
