<?xml version="1.0" encoding="utf-8" standalone="no"?>
<!DOCTYPE svg PUBLIC "-//W3C//DTD SVG 1.1//EN"
  "http://www.w3.org/Graphics/SVG/1.1/DTD/svg11.dtd">
<svg xmlns:xlink="http://www.w3.org/1999/xlink" width="242.311309pt" height="238.655059pt" viewBox="0 0 242.311309 238.655059" xmlns="http://www.w3.org/2000/svg" version="1.1">
 <metadata>
  <rdf:RDF xmlns:dc="http://purl.org/dc/elements/1.1/" xmlns:cc="http://creativecommons.org/ns#" xmlns:rdf="http://www.w3.org/1999/02/22-rdf-syntax-ns#">
   <cc:Work>
    <dc:type rdf:resource="http://purl.org/dc/dcmitype/StillImage"/>
    <dc:date>2025-08-27T12:03:30.134884</dc:date>
    <dc:format>image/svg+xml</dc:format>
    <dc:creator>
     <cc:Agent>
      <dc:title>Matplotlib v3.6.2, https://matplotlib.org/</dc:title>
     </cc:Agent>
    </dc:creator>
   </cc:Work>
  </rdf:RDF>
 </metadata>
 <defs>
  <style type="text/css">*{stroke-linejoin: round; stroke-linecap: butt}</style>
 </defs>
 <g id="figure_1">
  <g id="patch_1">
   <path d="M 0 238.655059 
L 242.311309 238.655059 
L 242.311309 0 
L 0 0 
L 0 238.655059 
z
" style="fill: none"/>
  </g>
  <g id="axes_1">
   <g id="patch_2">
    <path d="M 49.58375 192.727559 
L 235.111309 192.727559 
L 235.111309 7.2 
L 49.58375 7.2 
L 49.58375 192.727559 
z
" style="fill: none"/>
   </g>
   <g id="PathCollection_1">
    <path d="M 175.349746 56.551996 
L 177.149746 53.551996 
L 175.349746 50.551996 
L 173.549746 53.551996 
z
" clip-path="url(#p4ca81b4912)" style="fill: #332288; fill-opacity: 0.6; stroke: #ffffff; stroke-opacity: 0.6; stroke-width: 0.339411"/>
    <path d="M 150.754393 54.275521 
L 152.554393 51.275521 
L 150.754393 48.275521 
L 148.954393 51.275521 
z
" clip-path="url(#p4ca81b4912)" style="fill: #332288; fill-opacity: 0.6; stroke: #ffffff; stroke-opacity: 0.6; stroke-width: 0.339411"/>
    <path d="M 165.504163 60.150979 
L 167.304163 57.150979 
L 165.504163 54.150979 
L 163.704163 57.150979 
z
" clip-path="url(#p4ca81b4912)" style="fill: #332288; fill-opacity: 0.6; stroke: #ffffff; stroke-opacity: 0.6; stroke-width: 0.339411"/>
    <path d="M 169.51309 46.760243 
L 171.31309 43.760243 
L 169.51309 40.760243 
L 167.71309 43.760243 
z
" clip-path="url(#p4ca81b4912)" style="fill: #332288; fill-opacity: 0.6; stroke: #ffffff; stroke-opacity: 0.6; stroke-width: 0.339411"/>
    <path d="M 171.631345 129.783397 
L 173.431345 126.783397 
L 171.631345 123.783397 
L 169.831345 126.783397 
z
" clip-path="url(#p4ca81b4912)" style="fill: #332288; fill-opacity: 0.6; stroke: #ffffff; stroke-opacity: 0.6; stroke-width: 0.339411"/>
    <path d="M 191.736963 71.377827 
L 193.536963 68.377827 
L 191.736963 65.377827 
L 189.936963 68.377827 
z
" clip-path="url(#p4ca81b4912)" style="fill: #332288; fill-opacity: 0.6; stroke: #ffffff; stroke-opacity: 0.6; stroke-width: 0.339411"/>
    <path d="M 163.917947 76.319484 
L 165.717947 73.319484 
L 163.917947 70.319484 
L 162.117947 73.319484 
z
" clip-path="url(#p4ca81b4912)" style="fill: #332288; fill-opacity: 0.6; stroke: #ffffff; stroke-opacity: 0.6; stroke-width: 0.339411"/>
    <path d="M 216.36435 140.949398 
L 218.16435 137.949398 
L 216.36435 134.949398 
L 214.56435 137.949398 
z
" clip-path="url(#p4ca81b4912)" style="fill: #332288; fill-opacity: 0.6; stroke: #ffffff; stroke-opacity: 0.6; stroke-width: 0.339411"/>
    <path d="M 121.853799 105.442402 
L 123.653799 102.442402 
L 121.853799 99.442402 
L 120.053799 102.442402 
z
" clip-path="url(#p4ca81b4912)" style="fill: #332288; fill-opacity: 0.6; stroke: #ffffff; stroke-opacity: 0.6; stroke-width: 0.339411"/>
    <path d="M 215.384339 102.94537 
L 217.184339 99.94537 
L 215.384339 96.94537 
L 213.584339 99.94537 
z
" clip-path="url(#p4ca81b4912)" style="fill: #332288; fill-opacity: 0.6; stroke: #ffffff; stroke-opacity: 0.6; stroke-width: 0.339411"/>
    <path d="M 219.330507 109.338438 
L 221.130507 106.338438 
L 219.330507 103.338438 
L 217.530507 106.338438 
z
" clip-path="url(#p4ca81b4912)" style="fill: #332288; fill-opacity: 0.6; stroke: #ffffff; stroke-opacity: 0.6; stroke-width: 0.339411"/>
    <path d="M 168.379211 128.420441 
L 170.179211 125.420441 
L 168.379211 122.420441 
L 166.579211 125.420441 
z
" clip-path="url(#p4ca81b4912)" style="fill: #332288; fill-opacity: 0.6; stroke: #ffffff; stroke-opacity: 0.6; stroke-width: 0.339411"/>
    <path d="M 168.022476 96.721973 
L 169.822476 93.721973 
L 168.022476 90.721973 
L 166.222476 93.721973 
z
" clip-path="url(#p4ca81b4912)" style="fill: #332288; fill-opacity: 0.6; stroke: #ffffff; stroke-opacity: 0.6; stroke-width: 0.339411"/>
    <path d="M 170.80378 65.868104 
L 172.60378 62.868104 
L 170.80378 59.868104 
L 169.00378 62.868104 
z
" clip-path="url(#p4ca81b4912)" style="fill: #332288; fill-opacity: 0.6; stroke: #ffffff; stroke-opacity: 0.6; stroke-width: 0.339411"/>
    <path d="M 184.558631 58.65752 
L 186.358631 55.65752 
L 184.558631 52.65752 
L 182.758631 55.65752 
z
" clip-path="url(#p4ca81b4912)" style="fill: #332288; fill-opacity: 0.6; stroke: #ffffff; stroke-opacity: 0.6; stroke-width: 0.339411"/>
    <path d="M 196.596468 153.878773 
L 198.396468 150.878773 
L 196.596468 147.878773 
L 194.796468 150.878773 
z
" clip-path="url(#p4ca81b4912)" style="fill: #332288; fill-opacity: 0.6; stroke: #ffffff; stroke-opacity: 0.6; stroke-width: 0.339411"/>
    <path d="M 201.096646 73.689978 
L 202.896646 70.689978 
L 201.096646 67.689978 
L 199.296646 70.689978 
z
" clip-path="url(#p4ca81b4912)" style="fill: #332288; fill-opacity: 0.6; stroke: #ffffff; stroke-opacity: 0.6; stroke-width: 0.339411"/>
    <path d="M 130.278858 129.854246 
L 132.078858 126.854246 
L 130.278858 123.854246 
L 128.478858 126.854246 
z
" clip-path="url(#p4ca81b4912)" style="fill: #332288; fill-opacity: 0.6; stroke: #ffffff; stroke-opacity: 0.6; stroke-width: 0.339411"/>
    <path d="M 180.830837 86.618377 
L 182.630837 83.618377 
L 180.830837 80.618377 
L 179.030837 83.618377 
z
" clip-path="url(#p4ca81b4912)" style="fill: #332288; fill-opacity: 0.6; stroke: #ffffff; stroke-opacity: 0.6; stroke-width: 0.339411"/>
    <path d="M 161.444843 111.09948 
L 163.244843 108.09948 
L 161.444843 105.09948 
L 159.644843 108.09948 
z
" clip-path="url(#p4ca81b4912)" style="fill: #332288; fill-opacity: 0.6; stroke: #ffffff; stroke-opacity: 0.6; stroke-width: 0.339411"/>
    <path d="M 196.375714 100.244302 
L 198.175714 97.244302 
L 196.375714 94.244302 
L 194.575714 97.244302 
z
" clip-path="url(#p4ca81b4912)" style="fill: #332288; fill-opacity: 0.6; stroke: #ffffff; stroke-opacity: 0.6; stroke-width: 0.339411"/>
    <path d="M 197.890623 151.156181 
L 199.690623 148.156181 
L 197.890623 145.156181 
L 196.090623 148.156181 
z
" clip-path="url(#p4ca81b4912)" style="fill: #332288; fill-opacity: 0.6; stroke: #ffffff; stroke-opacity: 0.6; stroke-width: 0.339411"/>
    <path d="M 208.093124 126.628456 
L 209.893124 123.628456 
L 208.093124 120.628456 
L 206.293124 123.628456 
z
" clip-path="url(#p4ca81b4912)" style="fill: #332288; fill-opacity: 0.6; stroke: #ffffff; stroke-opacity: 0.6; stroke-width: 0.339411"/>
    <path d="M 218.712049 106.433088 
L 220.512049 103.433088 
L 218.712049 100.433088 
L 216.912049 103.433088 
z
" clip-path="url(#p4ca81b4912)" style="fill: #332288; fill-opacity: 0.6; stroke: #ffffff; stroke-opacity: 0.6; stroke-width: 0.339411"/>
    <path d="M 192.657665 114.503623 
L 194.457665 111.503623 
L 192.657665 108.503623 
L 190.857665 111.503623 
z
" clip-path="url(#p4ca81b4912)" style="fill: #332288; fill-opacity: 0.6; stroke: #ffffff; stroke-opacity: 0.6; stroke-width: 0.339411"/>
    <path d="M 217.523467 136.240681 
L 219.323467 133.240681 
L 217.523467 130.240681 
L 215.723467 133.240681 
z
" clip-path="url(#p4ca81b4912)" style="fill: #332288; fill-opacity: 0.6; stroke: #ffffff; stroke-opacity: 0.6; stroke-width: 0.339411"/>
    <path d="M 170.524001 50.319578 
L 172.324001 47.319578 
L 170.524001 44.319578 
L 168.724001 47.319578 
z
" clip-path="url(#p4ca81b4912)" style="fill: #332288; fill-opacity: 0.6; stroke: #ffffff; stroke-opacity: 0.6; stroke-width: 0.339411"/>
    <path d="M 219.713101 108.168433 
L 221.513101 105.168433 
L 219.713101 102.168433 
L 217.913101 105.168433 
z
" clip-path="url(#p4ca81b4912)" style="fill: #332288; fill-opacity: 0.6; stroke: #ffffff; stroke-opacity: 0.6; stroke-width: 0.339411"/>
    <path d="M 185.459278 52.255882 
L 187.259278 49.255882 
L 185.459278 46.255882 
L 183.659278 49.255882 
z
" clip-path="url(#p4ca81b4912)" style="fill: #332288; fill-opacity: 0.6; stroke: #ffffff; stroke-opacity: 0.6; stroke-width: 0.339411"/>
    <path d="M 154.845254 104.685384 
L 156.645254 101.685384 
L 154.845254 98.685384 
L 153.045254 101.685384 
z
" clip-path="url(#p4ca81b4912)" style="fill: #332288; fill-opacity: 0.6; stroke: #ffffff; stroke-opacity: 0.6; stroke-width: 0.339411"/>
    <path d="M 187.424595 44.675352 
L 189.224595 41.675352 
L 187.424595 38.675352 
L 185.624595 41.675352 
z
" clip-path="url(#p4ca81b4912)" style="fill: #332288; fill-opacity: 0.6; stroke: #ffffff; stroke-opacity: 0.6; stroke-width: 0.339411"/>
    <path d="M 197.228194 152.968387 
L 199.028194 149.968387 
L 197.228194 146.968387 
L 195.428194 149.968387 
z
" clip-path="url(#p4ca81b4912)" style="fill: #332288; fill-opacity: 0.6; stroke: #ffffff; stroke-opacity: 0.6; stroke-width: 0.339411"/>
    <path d="M 208.830269 130.02872 
L 210.630269 127.02872 
L 208.830269 124.02872 
L 207.030269 127.02872 
z
" clip-path="url(#p4ca81b4912)" style="fill: #332288; fill-opacity: 0.6; stroke: #ffffff; stroke-opacity: 0.6; stroke-width: 0.339411"/>
    <path d="M 220.694224 103.699141 
L 222.494224 100.699141 
L 220.694224 97.699141 
L 218.894224 100.699141 
z
" clip-path="url(#p4ca81b4912)" style="fill: #332288; fill-opacity: 0.6; stroke: #ffffff; stroke-opacity: 0.6; stroke-width: 0.339411"/>
    <path d="M 181.163967 141.540242 
L 182.963967 138.540242 
L 181.163967 135.540242 
L 179.363967 138.540242 
z
" clip-path="url(#p4ca81b4912)" style="fill: #332288; fill-opacity: 0.6; stroke: #ffffff; stroke-opacity: 0.6; stroke-width: 0.339411"/>
    <path d="M 172.417024 54.741956 
L 174.217024 51.741956 
L 172.417024 48.741956 
L 170.617024 51.741956 
z
" clip-path="url(#p4ca81b4912)" style="fill: #332288; fill-opacity: 0.6; stroke: #ffffff; stroke-opacity: 0.6; stroke-width: 0.339411"/>
    <path d="M 177.819835 112.198514 
L 179.619835 109.198514 
L 177.819835 106.198514 
L 176.019835 109.198514 
z
" clip-path="url(#p4ca81b4912)" style="fill: #332288; fill-opacity: 0.6; stroke: #ffffff; stroke-opacity: 0.6; stroke-width: 0.339411"/>
    <path d="M 189.295535 58.179282 
L 191.095535 55.179282 
L 189.295535 52.179282 
L 187.495535 55.179282 
z
" clip-path="url(#p4ca81b4912)" style="fill: #332288; fill-opacity: 0.6; stroke: #ffffff; stroke-opacity: 0.6; stroke-width: 0.339411"/>
    <path d="M 153.965571 52.451678 
L 155.765571 49.451678 
L 153.965571 46.451678 
L 152.165571 49.451678 
z
" clip-path="url(#p4ca81b4912)" style="fill: #332288; fill-opacity: 0.6; stroke: #ffffff; stroke-opacity: 0.6; stroke-width: 0.339411"/>
    <path d="M 187.49617 53.192415 
L 189.29617 50.192415 
L 187.49617 47.192415 
L 185.69617 50.192415 
z
" clip-path="url(#p4ca81b4912)" style="fill: #332288; fill-opacity: 0.6; stroke: #ffffff; stroke-opacity: 0.6; stroke-width: 0.339411"/>
    <path d="M 208.777046 109.972108 
L 210.577046 106.972108 
L 208.777046 103.972108 
L 206.977046 106.972108 
z
" clip-path="url(#p4ca81b4912)" style="fill: #332288; fill-opacity: 0.6; stroke: #ffffff; stroke-opacity: 0.6; stroke-width: 0.339411"/>
    <path d="M 201.687557 66.278062 
L 203.487557 63.278062 
L 201.687557 60.278062 
L 199.887557 63.278062 
z
" clip-path="url(#p4ca81b4912)" style="fill: #332288; fill-opacity: 0.6; stroke: #ffffff; stroke-opacity: 0.6; stroke-width: 0.339411"/>
    <path d="M 190.993381 111.472658 
L 192.793381 108.472658 
L 190.993381 105.472658 
L 189.193381 108.472658 
z
" clip-path="url(#p4ca81b4912)" style="fill: #332288; fill-opacity: 0.6; stroke: #ffffff; stroke-opacity: 0.6; stroke-width: 0.339411"/>
    <path d="M 213.004303 140.424074 
L 214.804303 137.424074 
L 213.004303 134.424074 
L 211.204303 137.424074 
z
" clip-path="url(#p4ca81b4912)" style="fill: #332288; fill-opacity: 0.6; stroke: #ffffff; stroke-opacity: 0.6; stroke-width: 0.339411"/>
    <path d="M 122.922385 104.173887 
L 124.722385 101.173887 
L 122.922385 98.173887 
L 121.122385 101.173887 
z
" clip-path="url(#p4ca81b4912)" style="fill: #332288; fill-opacity: 0.6; stroke: #ffffff; stroke-opacity: 0.6; stroke-width: 0.339411"/>
    <path d="M 168.240765 118.294071 
L 170.040765 115.294071 
L 168.240765 112.294071 
L 166.440765 115.294071 
z
" clip-path="url(#p4ca81b4912)" style="fill: #332288; fill-opacity: 0.6; stroke: #ffffff; stroke-opacity: 0.6; stroke-width: 0.339411"/>
    <path d="M 174.078365 131.464075 
L 175.878365 128.464075 
L 174.078365 125.464075 
L 172.278365 128.464075 
z
" clip-path="url(#p4ca81b4912)" style="fill: #332288; fill-opacity: 0.6; stroke: #ffffff; stroke-opacity: 0.6; stroke-width: 0.339411"/>
    <path d="M 164.720738 60.548445 
L 166.520738 57.548445 
L 164.720738 54.548445 
L 162.920738 57.548445 
z
" clip-path="url(#p4ca81b4912)" style="fill: #332288; fill-opacity: 0.6; stroke: #ffffff; stroke-opacity: 0.6; stroke-width: 0.339411"/>
    <path d="M 196.425783 89.723565 
L 198.225783 86.723565 
L 196.425783 83.723565 
L 194.625783 86.723565 
z
" clip-path="url(#p4ca81b4912)" style="fill: #332288; fill-opacity: 0.6; stroke: #ffffff; stroke-opacity: 0.6; stroke-width: 0.339411"/>
    <path d="M 195.618936 66.814158 
L 197.418936 63.814158 
L 195.618936 60.814158 
L 193.818936 63.814158 
z
" clip-path="url(#p4ca81b4912)" style="fill: #332288; fill-opacity: 0.6; stroke: #ffffff; stroke-opacity: 0.6; stroke-width: 0.339411"/>
    <path d="M 152.069956 81.038064 
L 153.869956 78.038064 
L 152.069956 75.038064 
L 150.269956 78.038064 
z
" clip-path="url(#p4ca81b4912)" style="fill: #332288; fill-opacity: 0.6; stroke: #ffffff; stroke-opacity: 0.6; stroke-width: 0.339411"/>
    <path d="M 195.969587 69.421693 
L 197.769587 66.421693 
L 195.969587 63.421693 
L 194.169587 66.421693 
z
" clip-path="url(#p4ca81b4912)" style="fill: #332288; fill-opacity: 0.6; stroke: #ffffff; stroke-opacity: 0.6; stroke-width: 0.339411"/>
    <path d="M 197.96086 81.710669 
L 199.76086 78.710669 
L 197.96086 75.710669 
L 196.16086 78.710669 
z
" clip-path="url(#p4ca81b4912)" style="fill: #332288; fill-opacity: 0.6; stroke: #ffffff; stroke-opacity: 0.6; stroke-width: 0.339411"/>
    <path d="M 221.043184 101.913396 
L 222.843184 98.913396 
L 221.043184 95.913396 
L 219.243184 98.913396 
z
" clip-path="url(#p4ca81b4912)" style="fill: #332288; fill-opacity: 0.6; stroke: #ffffff; stroke-opacity: 0.6; stroke-width: 0.339411"/>
    <path d="M 182.799209 143.937999 
L 184.599209 140.937999 
L 182.799209 137.937999 
L 180.999209 140.937999 
z
" clip-path="url(#p4ca81b4912)" style="fill: #332288; fill-opacity: 0.6; stroke: #ffffff; stroke-opacity: 0.6; stroke-width: 0.339411"/>
    <path d="M 198.049716 70.94063 
L 199.849716 67.94063 
L 198.049716 64.94063 
L 196.249716 67.94063 
z
" clip-path="url(#p4ca81b4912)" style="fill: #332288; fill-opacity: 0.6; stroke: #ffffff; stroke-opacity: 0.6; stroke-width: 0.339411"/>
    <path d="M 158.157386 65.44392 
L 159.957386 62.44392 
L 158.157386 59.44392 
L 156.357386 62.44392 
z
" clip-path="url(#p4ca81b4912)" style="fill: #332288; fill-opacity: 0.6; stroke: #ffffff; stroke-opacity: 0.6; stroke-width: 0.339411"/>
    <path d="M 155.790428 126.166007 
L 157.590428 123.166007 
L 155.790428 120.166007 
L 153.990428 123.166007 
z
" clip-path="url(#p4ca81b4912)" style="fill: #332288; fill-opacity: 0.6; stroke: #ffffff; stroke-opacity: 0.6; stroke-width: 0.339411"/>
    <path d="M 182.847828 145.142125 
L 184.647828 142.142125 
L 182.847828 139.142125 
L 181.047828 142.142125 
z
" clip-path="url(#p4ca81b4912)" style="fill: #332288; fill-opacity: 0.6; stroke: #ffffff; stroke-opacity: 0.6; stroke-width: 0.339411"/>
    <path d="M 163.49308 73.402339 
L 165.29308 70.402339 
L 163.49308 67.402339 
L 161.69308 70.402339 
z
" clip-path="url(#p4ca81b4912)" style="fill: #332288; fill-opacity: 0.6; stroke: #ffffff; stroke-opacity: 0.6; stroke-width: 0.339411"/>
    <path d="M 196.907852 166.98525 
L 198.707852 163.98525 
L 196.907852 160.98525 
L 195.107852 163.98525 
z
" clip-path="url(#p4ca81b4912)" style="fill: #332288; fill-opacity: 0.6; stroke: #ffffff; stroke-opacity: 0.6; stroke-width: 0.339411"/>
    <path d="M 192.352013 71.028331 
L 194.152013 68.028331 
L 192.352013 65.028331 
L 190.552013 68.028331 
z
" clip-path="url(#p4ca81b4912)" style="fill: #332288; fill-opacity: 0.6; stroke: #ffffff; stroke-opacity: 0.6; stroke-width: 0.339411"/>
    <path d="M 215.3791 139.170952 
L 217.1791 136.170952 
L 215.3791 133.170952 
L 213.5791 136.170952 
z
" clip-path="url(#p4ca81b4912)" style="fill: #332288; fill-opacity: 0.6; stroke: #ffffff; stroke-opacity: 0.6; stroke-width: 0.339411"/>
    <path d="M 194.04279 64.780491 
L 195.84279 61.780491 
L 194.04279 58.780491 
L 192.24279 61.780491 
z
" clip-path="url(#p4ca81b4912)" style="fill: #332288; fill-opacity: 0.6; stroke: #ffffff; stroke-opacity: 0.6; stroke-width: 0.339411"/>
    <path d="M 178.408591 65.819464 
L 176.287271 70.062105 
L 180.529911 70.062105 
z
" clip-path="url(#p4ca81b4912)" style="fill: #117733; fill-opacity: 0.6; stroke: #ffffff; stroke-opacity: 0.6; stroke-width: 0.339411"/>
    <path d="M 202.521361 149.727069 
L 200.40004 153.96971 
L 204.642681 153.96971 
z
" clip-path="url(#p4ca81b4912)" style="fill: #117733; fill-opacity: 0.6; stroke: #ffffff; stroke-opacity: 0.6; stroke-width: 0.339411"/>
    <path d="M 96.925387 144.639043 
L 94.804067 148.881684 
L 99.046707 148.881684 
z
" clip-path="url(#p4ca81b4912)" style="fill: #117733; fill-opacity: 0.6; stroke: #ffffff; stroke-opacity: 0.6; stroke-width: 0.339411"/>
    <path d="M 95.409616 136.491215 
L 93.288295 140.733856 
L 97.530936 140.733856 
z
" clip-path="url(#p4ca81b4912)" style="fill: #117733; fill-opacity: 0.6; stroke: #ffffff; stroke-opacity: 0.6; stroke-width: 0.339411"/>
    <path d="M 117.33553 162.726381 
L 115.21421 166.969022 
L 119.45685 166.969022 
z
" clip-path="url(#p4ca81b4912)" style="fill: #117733; fill-opacity: 0.6; stroke: #ffffff; stroke-opacity: 0.6; stroke-width: 0.339411"/>
    <path d="M 155.132083 65.203991 
L 153.010762 69.446632 
L 157.253403 69.446632 
z
" clip-path="url(#p4ca81b4912)" style="fill: #117733; fill-opacity: 0.6; stroke: #ffffff; stroke-opacity: 0.6; stroke-width: 0.339411"/>
    <path d="M 160.957909 76.890952 
L 158.836588 81.133592 
L 163.079229 81.133592 
z
" clip-path="url(#p4ca81b4912)" style="fill: #117733; fill-opacity: 0.6; stroke: #ffffff; stroke-opacity: 0.6; stroke-width: 0.339411"/>
    <path d="M 174.468141 66.72728 
L 172.34682 70.969921 
L 176.589461 70.969921 
z
" clip-path="url(#p4ca81b4912)" style="fill: #117733; fill-opacity: 0.6; stroke: #ffffff; stroke-opacity: 0.6; stroke-width: 0.339411"/>
    <path d="M 167.495366 69.26141 
L 165.374046 73.50405 
L 169.616687 73.50405 
z
" clip-path="url(#p4ca81b4912)" style="fill: #117733; fill-opacity: 0.6; stroke: #ffffff; stroke-opacity: 0.6; stroke-width: 0.339411"/>
    <path d="M 175.731706 42.887431 
L 173.610385 47.130072 
L 177.853026 47.130072 
z
" clip-path="url(#p4ca81b4912)" style="fill: #117733; fill-opacity: 0.6; stroke: #ffffff; stroke-opacity: 0.6; stroke-width: 0.339411"/>
    <path d="M 210.110651 148.395816 
L 207.98933 152.638457 
L 212.231971 152.638457 
z
" clip-path="url(#p4ca81b4912)" style="fill: #117733; fill-opacity: 0.6; stroke: #ffffff; stroke-opacity: 0.6; stroke-width: 0.339411"/>
    <path d="M 148.799111 49.954076 
L 146.677791 54.196717 
L 150.920432 54.196717 
z
" clip-path="url(#p4ca81b4912)" style="fill: #117733; fill-opacity: 0.6; stroke: #ffffff; stroke-opacity: 0.6; stroke-width: 0.339411"/>
    <path d="M 151.213146 47.741063 
L 149.091826 51.983704 
L 153.334466 51.983704 
z
" clip-path="url(#p4ca81b4912)" style="fill: #117733; fill-opacity: 0.6; stroke: #ffffff; stroke-opacity: 0.6; stroke-width: 0.339411"/>
    <path d="M 189.261677 72.246679 
L 187.140356 76.48932 
L 191.382997 76.48932 
z
" clip-path="url(#p4ca81b4912)" style="fill: #117733; fill-opacity: 0.6; stroke: #ffffff; stroke-opacity: 0.6; stroke-width: 0.339411"/>
    <path d="M 160.924234 146.639753 
L 158.802913 150.882394 
L 163.045554 150.882394 
z
" clip-path="url(#p4ca81b4912)" style="fill: #117733; fill-opacity: 0.6; stroke: #ffffff; stroke-opacity: 0.6; stroke-width: 0.339411"/>
    <path d="M 163.807739 108.245572 
L 161.686419 112.488213 
L 165.929059 112.488213 
z
" clip-path="url(#p4ca81b4912)" style="fill: #117733; fill-opacity: 0.6; stroke: #ffffff; stroke-opacity: 0.6; stroke-width: 0.339411"/>
    <path d="M 187.6098 65.964375 
L 185.48848 70.207016 
L 189.731121 70.207016 
z
" clip-path="url(#p4ca81b4912)" style="fill: #117733; fill-opacity: 0.6; stroke: #ffffff; stroke-opacity: 0.6; stroke-width: 0.339411"/>
    <path d="M 152.658726 120.972829 
L 150.537406 125.21547 
L 154.780046 125.21547 
z
" clip-path="url(#p4ca81b4912)" style="fill: #117733; fill-opacity: 0.6; stroke: #ffffff; stroke-opacity: 0.6; stroke-width: 0.339411"/>
    <path d="M 204.868862 158.076408 
L 202.747542 162.319049 
L 206.990183 162.319049 
z
" clip-path="url(#p4ca81b4912)" style="fill: #117733; fill-opacity: 0.6; stroke: #ffffff; stroke-opacity: 0.6; stroke-width: 0.339411"/>
    <path d="M 168.439744 74.755556 
L 166.318424 78.998197 
L 170.561064 78.998197 
z
" clip-path="url(#p4ca81b4912)" style="fill: #117733; fill-opacity: 0.6; stroke: #ffffff; stroke-opacity: 0.6; stroke-width: 0.339411"/>
    <path d="M 148.417103 145.431915 
L 146.295782 149.674556 
L 150.538423 149.674556 
z
" clip-path="url(#p4ca81b4912)" style="fill: #117733; fill-opacity: 0.6; stroke: #ffffff; stroke-opacity: 0.6; stroke-width: 0.339411"/>
    <path d="M 153.511438 67.584168 
L 151.390118 71.826809 
L 155.632758 71.826809 
z
" clip-path="url(#p4ca81b4912)" style="fill: #117733; fill-opacity: 0.6; stroke: #ffffff; stroke-opacity: 0.6; stroke-width: 0.339411"/>
    <path d="M 174.275908 53.953609 
L 172.154587 58.196249 
L 176.397228 58.196249 
z
" clip-path="url(#p4ca81b4912)" style="fill: #117733; fill-opacity: 0.6; stroke: #ffffff; stroke-opacity: 0.6; stroke-width: 0.339411"/>
    <path d="M 176.162917 44.252824 
L 174.041597 48.495464 
L 178.284237 48.495464 
z
" clip-path="url(#p4ca81b4912)" style="fill: #117733; fill-opacity: 0.6; stroke: #ffffff; stroke-opacity: 0.6; stroke-width: 0.339411"/>
    <path d="M 155.991992 72.279157 
L 153.870671 76.521798 
L 158.113312 76.521798 
z
" clip-path="url(#p4ca81b4912)" style="fill: #117733; fill-opacity: 0.6; stroke: #ffffff; stroke-opacity: 0.6; stroke-width: 0.339411"/>
    <path d="M 181.652176 52.522063 
L 179.530856 56.764704 
L 183.773496 56.764704 
z
" clip-path="url(#p4ca81b4912)" style="fill: #117733; fill-opacity: 0.6; stroke: #ffffff; stroke-opacity: 0.6; stroke-width: 0.339411"/>
    <path d="M 99.946916 136.584994 
L 97.825596 140.827634 
L 102.068236 140.827634 
z
" clip-path="url(#p4ca81b4912)" style="fill: #117733; fill-opacity: 0.6; stroke: #ffffff; stroke-opacity: 0.6; stroke-width: 0.339411"/>
    <path d="M 164.782707 91.759584 
L 162.661387 96.002224 
L 166.904028 96.002224 
z
" clip-path="url(#p4ca81b4912)" style="fill: #117733; fill-opacity: 0.6; stroke: #ffffff; stroke-opacity: 0.6; stroke-width: 0.339411"/>
    <path d="M 99.859598 146.752757 
L 97.738278 150.995397 
L 101.980919 150.995397 
z
" clip-path="url(#p4ca81b4912)" style="fill: #117733; fill-opacity: 0.6; stroke: #ffffff; stroke-opacity: 0.6; stroke-width: 0.339411"/>
    <path d="M 143.045466 56.826121 
L 140.924146 61.068762 
L 145.166787 61.068762 
z
" clip-path="url(#p4ca81b4912)" style="fill: #117733; fill-opacity: 0.6; stroke: #ffffff; stroke-opacity: 0.6; stroke-width: 0.339411"/>
    <path d="M 105.119094 139.701601 
L 102.997774 143.944241 
L 107.240414 143.944241 
z
" clip-path="url(#p4ca81b4912)" style="fill: #117733; fill-opacity: 0.6; stroke: #ffffff; stroke-opacity: 0.6; stroke-width: 0.339411"/>
    <path d="M 190.153704 135.84669 
L 188.032384 140.089331 
L 192.275024 140.089331 
z
" clip-path="url(#p4ca81b4912)" style="fill: #117733; fill-opacity: 0.6; stroke: #ffffff; stroke-opacity: 0.6; stroke-width: 0.339411"/>
    <path d="M 210.743954 92.103037 
L 208.622634 96.345678 
L 212.865274 96.345678 
z
" clip-path="url(#p4ca81b4912)" style="fill: #117733; fill-opacity: 0.6; stroke: #ffffff; stroke-opacity: 0.6; stroke-width: 0.339411"/>
    <path d="M 172.595779 62.796604 
L 170.474458 67.039245 
L 174.717099 67.039245 
z
" clip-path="url(#p4ca81b4912)" style="fill: #117733; fill-opacity: 0.6; stroke: #ffffff; stroke-opacity: 0.6; stroke-width: 0.339411"/>
    <path d="M 183.248505 93.507006 
L 181.127184 97.749647 
L 185.369825 97.749647 
z
" clip-path="url(#p4ca81b4912)" style="fill: #117733; fill-opacity: 0.6; stroke: #ffffff; stroke-opacity: 0.6; stroke-width: 0.339411"/>
    <path d="M 208.413931 155.35414 
L 206.29261 159.596781 
L 210.535251 159.596781 
z
" clip-path="url(#p4ca81b4912)" style="fill: #117733; fill-opacity: 0.6; stroke: #ffffff; stroke-opacity: 0.6; stroke-width: 0.339411"/>
    <path d="M 165.372125 46.608748 
L 163.250805 50.851388 
L 167.493445 50.851388 
z
" clip-path="url(#p4ca81b4912)" style="fill: #117733; fill-opacity: 0.6; stroke: #ffffff; stroke-opacity: 0.6; stroke-width: 0.339411"/>
    <path d="M 209.332817 155.86799 
L 207.211496 160.110631 
L 211.454137 160.110631 
z
" clip-path="url(#p4ca81b4912)" style="fill: #117733; fill-opacity: 0.6; stroke: #ffffff; stroke-opacity: 0.6; stroke-width: 0.339411"/>
    <path d="M 93.766331 138.195896 
L 91.64501 142.438537 
L 95.887651 142.438537 
z
" clip-path="url(#p4ca81b4912)" style="fill: #117733; fill-opacity: 0.6; stroke: #ffffff; stroke-opacity: 0.6; stroke-width: 0.339411"/>
    <path d="M 199.684086 74.995041 
L 197.562766 79.237682 
L 201.805407 79.237682 
z
" clip-path="url(#p4ca81b4912)" style="fill: #117733; fill-opacity: 0.6; stroke: #ffffff; stroke-opacity: 0.6; stroke-width: 0.339411"/>
    <path d="M 133.704684 173.78602 
L 131.583364 178.028661 
L 135.826004 178.028661 
z
" clip-path="url(#p4ca81b4912)" style="fill: #117733; fill-opacity: 0.6; stroke: #ffffff; stroke-opacity: 0.6; stroke-width: 0.339411"/>
    <path d="M 199.218989 153.874614 
L 197.097668 158.117255 
L 201.340309 158.117255 
z
" clip-path="url(#p4ca81b4912)" style="fill: #117733; fill-opacity: 0.6; stroke: #ffffff; stroke-opacity: 0.6; stroke-width: 0.339411"/>
    <path d="M 176.889344 75.193387 
L 174.768024 79.436027 
L 179.010665 79.436027 
z
" clip-path="url(#p4ca81b4912)" style="fill: #117733; fill-opacity: 0.6; stroke: #ffffff; stroke-opacity: 0.6; stroke-width: 0.339411"/>
    <path d="M 100.301295 136.868657 
L 98.179975 141.111298 
L 102.422616 141.111298 
z
" clip-path="url(#p4ca81b4912)" style="fill: #117733; fill-opacity: 0.6; stroke: #ffffff; stroke-opacity: 0.6; stroke-width: 0.339411"/>
    <path d="M 186.055668 75.227076 
L 183.934347 79.469717 
L 188.176988 79.469717 
z
" clip-path="url(#p4ca81b4912)" style="fill: #117733; fill-opacity: 0.6; stroke: #ffffff; stroke-opacity: 0.6; stroke-width: 0.339411"/>
    <path d="M 160.244495 68.861944 
L 158.123175 73.104584 
L 162.365815 73.104584 
z
" clip-path="url(#p4ca81b4912)" style="fill: #117733; fill-opacity: 0.6; stroke: #ffffff; stroke-opacity: 0.6; stroke-width: 0.339411"/>
    <path d="M 168.081432 79.567344 
L 165.960111 83.809985 
L 170.202752 83.809985 
z
" clip-path="url(#p4ca81b4912)" style="fill: #117733; fill-opacity: 0.6; stroke: #ffffff; stroke-opacity: 0.6; stroke-width: 0.339411"/>
    <path d="M 98.705791 135.529633 
L 96.58447 139.772274 
L 100.827111 139.772274 
z
" clip-path="url(#p4ca81b4912)" style="fill: #117733; fill-opacity: 0.6; stroke: #ffffff; stroke-opacity: 0.6; stroke-width: 0.339411"/>
    <path d="M 166.848359 85.154551 
L 164.727039 89.397191 
L 168.969679 89.397191 
z
" clip-path="url(#p4ca81b4912)" style="fill: #117733; fill-opacity: 0.6; stroke: #ffffff; stroke-opacity: 0.6; stroke-width: 0.339411"/>
    <path d="M 155.182539 78.40141 
L 153.061219 82.644051 
L 157.303859 82.644051 
z
" clip-path="url(#p4ca81b4912)" style="fill: #117733; fill-opacity: 0.6; stroke: #ffffff; stroke-opacity: 0.6; stroke-width: 0.339411"/>
    <path d="M 172.276916 87.424738 
L 170.155596 91.667379 
L 174.398236 91.667379 
z
" clip-path="url(#p4ca81b4912)" style="fill: #117733; fill-opacity: 0.6; stroke: #ffffff; stroke-opacity: 0.6; stroke-width: 0.339411"/>
    <path d="M 180.87861 65.897448 
L 178.757289 70.140089 
L 182.99993 70.140089 
z
" clip-path="url(#p4ca81b4912)" style="fill: #117733; fill-opacity: 0.6; stroke: #ffffff; stroke-opacity: 0.6; stroke-width: 0.339411"/>
    <path d="M 211.209897 90.457245 
L 209.088576 94.699886 
L 213.331217 94.699886 
z
" clip-path="url(#p4ca81b4912)" style="fill: #117733; fill-opacity: 0.6; stroke: #ffffff; stroke-opacity: 0.6; stroke-width: 0.339411"/>
    <path d="M 165.107655 44.366665 
L 162.986334 48.609306 
L 167.228975 48.609306 
z
" clip-path="url(#p4ca81b4912)" style="fill: #117733; fill-opacity: 0.6; stroke: #ffffff; stroke-opacity: 0.6; stroke-width: 0.339411"/>
    <path d="M 180.289319 70.967481 
L 178.167998 75.210122 
L 182.410639 75.210122 
z
" clip-path="url(#p4ca81b4912)" style="fill: #117733; fill-opacity: 0.6; stroke: #ffffff; stroke-opacity: 0.6; stroke-width: 0.339411"/>
    <path d="M 168.592246 72.46163 
L 166.470926 76.704271 
L 170.713567 76.704271 
z
" clip-path="url(#p4ca81b4912)" style="fill: #117733; fill-opacity: 0.6; stroke: #ffffff; stroke-opacity: 0.6; stroke-width: 0.339411"/>
    <path d="M 175.614878 69.263339 
L 173.493558 73.50598 
L 177.736199 73.50598 
z
" clip-path="url(#p4ca81b4912)" style="fill: #117733; fill-opacity: 0.6; stroke: #ffffff; stroke-opacity: 0.6; stroke-width: 0.339411"/>
    <path d="M 112.501658 168.988439 
L 110.380338 173.23108 
L 114.622978 173.23108 
z
" clip-path="url(#p4ca81b4912)" style="fill: #117733; fill-opacity: 0.6; stroke: #ffffff; stroke-opacity: 0.6; stroke-width: 0.339411"/>
    <path d="M 211.202108 102.87126 
L 209.080788 107.1139 
L 213.323429 107.1139 
z
" clip-path="url(#p4ca81b4912)" style="fill: #117733; fill-opacity: 0.6; stroke: #ffffff; stroke-opacity: 0.6; stroke-width: 0.339411"/>
    <path d="M 170.314289 48.970967 
L 168.192969 53.213608 
L 172.435609 53.213608 
z
" clip-path="url(#p4ca81b4912)" style="fill: #117733; fill-opacity: 0.6; stroke: #ffffff; stroke-opacity: 0.6; stroke-width: 0.339411"/>
    <path d="M 176.71566 113.734211 
L 174.594339 117.976852 
L 178.83698 117.976852 
z
" clip-path="url(#p4ca81b4912)" style="fill: #117733; fill-opacity: 0.6; stroke: #ffffff; stroke-opacity: 0.6; stroke-width: 0.339411"/>
    <path d="M 90.885248 140.223299 
L 88.763927 144.465939 
L 93.006568 144.465939 
z
" clip-path="url(#p4ca81b4912)" style="fill: #117733; fill-opacity: 0.6; stroke: #ffffff; stroke-opacity: 0.6; stroke-width: 0.339411"/>
    <path d="M 183.094073 48.577022 
L 180.972753 52.819663 
L 185.215394 52.819663 
z
" clip-path="url(#p4ca81b4912)" style="fill: #117733; fill-opacity: 0.6; stroke: #ffffff; stroke-opacity: 0.6; stroke-width: 0.339411"/>
    <path d="M 105.231316 148.390894 
L 103.109995 152.633534 
L 107.352636 152.633534 
z
" clip-path="url(#p4ca81b4912)" style="fill: #117733; fill-opacity: 0.6; stroke: #ffffff; stroke-opacity: 0.6; stroke-width: 0.339411"/>
    <path d="M 142.9218 82.742111 
L 147.164441 82.742111 
L 147.164441 78.49947 
L 142.9218 78.49947 
z
" clip-path="url(#p4ca81b4912)" style="fill: #44aa99; fill-opacity: 0.6; stroke: #ffffff; stroke-opacity: 0.6; stroke-width: 0.339411"/>
    <path d="M 176.320945 102.686903 
L 180.563586 102.686903 
L 180.563586 98.444262 
L 176.320945 98.444262 
z
" clip-path="url(#p4ca81b4912)" style="fill: #44aa99; fill-opacity: 0.6; stroke: #ffffff; stroke-opacity: 0.6; stroke-width: 0.339411"/>
    <path d="M 111.150947 170.392346 
L 115.393587 170.392346 
L 115.393587 166.149705 
L 111.150947 166.149705 
z
" clip-path="url(#p4ca81b4912)" style="fill: #44aa99; fill-opacity: 0.6; stroke: #ffffff; stroke-opacity: 0.6; stroke-width: 0.339411"/>
    <path d="M 143.306083 139.02615 
L 147.548724 139.02615 
L 147.548724 134.78351 
L 143.306083 134.78351 
z
" clip-path="url(#p4ca81b4912)" style="fill: #44aa99; fill-opacity: 0.6; stroke: #ffffff; stroke-opacity: 0.6; stroke-width: 0.339411"/>
    <path d="M 157.380473 132.086473 
L 161.623114 132.086473 
L 161.623114 127.843833 
L 157.380473 127.843833 
z
" clip-path="url(#p4ca81b4912)" style="fill: #44aa99; fill-opacity: 0.6; stroke: #ffffff; stroke-opacity: 0.6; stroke-width: 0.339411"/>
    <path d="M 123.7922 136.412108 
L 128.034841 136.412108 
L 128.034841 132.169467 
L 123.7922 132.169467 
z
" clip-path="url(#p4ca81b4912)" style="fill: #44aa99; fill-opacity: 0.6; stroke: #ffffff; stroke-opacity: 0.6; stroke-width: 0.339411"/>
    <path d="M 137.066053 162.869943 
L 141.308693 162.869943 
L 141.308693 158.627302 
L 137.066053 158.627302 
z
" clip-path="url(#p4ca81b4912)" style="fill: #44aa99; fill-opacity: 0.6; stroke: #ffffff; stroke-opacity: 0.6; stroke-width: 0.339411"/>
    <path d="M 126.51026 144.034665 
L 130.752901 144.034665 
L 130.752901 139.792024 
L 126.51026 139.792024 
z
" clip-path="url(#p4ca81b4912)" style="fill: #44aa99; fill-opacity: 0.6; stroke: #ffffff; stroke-opacity: 0.6; stroke-width: 0.339411"/>
    <path d="M 131.084859 170.728786 
L 135.327499 170.728786 
L 135.327499 166.486145 
L 131.084859 166.486145 
z
" clip-path="url(#p4ca81b4912)" style="fill: #44aa99; fill-opacity: 0.6; stroke: #ffffff; stroke-opacity: 0.6; stroke-width: 0.339411"/>
    <path d="M 196.606529 170.761806 
L 200.84917 170.761806 
L 200.84917 166.519165 
L 196.606529 166.519165 
z
" clip-path="url(#p4ca81b4912)" style="fill: #44aa99; fill-opacity: 0.6; stroke: #ffffff; stroke-opacity: 0.6; stroke-width: 0.339411"/>
    <path d="M 184.647733 123.623106 
L 188.890373 123.623106 
L 188.890373 119.380465 
L 184.647733 119.380465 
z
" clip-path="url(#p4ca81b4912)" style="fill: #44aa99; fill-opacity: 0.6; stroke: #ffffff; stroke-opacity: 0.6; stroke-width: 0.339411"/>
    <path d="M 153.415806 177.91592 
L 157.658446 177.91592 
L 157.658446 173.673279 
L 153.415806 173.673279 
z
" clip-path="url(#p4ca81b4912)" style="fill: #44aa99; fill-opacity: 0.6; stroke: #ffffff; stroke-opacity: 0.6; stroke-width: 0.339411"/>
    <path d="M 150.309561 109.039542 
L 154.552202 109.039542 
L 154.552202 104.796902 
L 150.309561 104.796902 
z
" clip-path="url(#p4ca81b4912)" style="fill: #44aa99; fill-opacity: 0.6; stroke: #ffffff; stroke-opacity: 0.6; stroke-width: 0.339411"/>
    <path d="M 126.679698 149.543916 
L 130.922339 149.543916 
L 130.922339 145.301275 
L 126.679698 145.301275 
z
" clip-path="url(#p4ca81b4912)" style="fill: #44aa99; fill-opacity: 0.6; stroke: #ffffff; stroke-opacity: 0.6; stroke-width: 0.339411"/>
    <path d="M 150.003846 88.136443 
L 154.246486 88.136443 
L 154.246486 83.893803 
L 150.003846 83.893803 
z
" clip-path="url(#p4ca81b4912)" style="fill: #44aa99; fill-opacity: 0.6; stroke: #ffffff; stroke-opacity: 0.6; stroke-width: 0.339411"/>
    <path d="M 135.200578 178.478028 
L 139.443218 178.478028 
L 139.443218 174.235387 
L 135.200578 174.235387 
z
" clip-path="url(#p4ca81b4912)" style="fill: #44aa99; fill-opacity: 0.6; stroke: #ffffff; stroke-opacity: 0.6; stroke-width: 0.339411"/>
    <path d="M 136.982619 153.008582 
L 141.225259 153.008582 
L 141.225259 148.765941 
L 136.982619 148.765941 
z
" clip-path="url(#p4ca81b4912)" style="fill: #44aa99; fill-opacity: 0.6; stroke: #ffffff; stroke-opacity: 0.6; stroke-width: 0.339411"/>
    <path d="M 134.894559 135.313686 
L 139.1372 135.313686 
L 139.1372 131.071045 
L 134.894559 131.071045 
z
" clip-path="url(#p4ca81b4912)" style="fill: #44aa99; fill-opacity: 0.6; stroke: #ffffff; stroke-opacity: 0.6; stroke-width: 0.339411"/>
    <path d="M 203.41245 154.253957 
L 207.655091 154.253957 
L 207.655091 150.011317 
L 203.41245 150.011317 
z
" clip-path="url(#p4ca81b4912)" style="fill: #44aa99; fill-opacity: 0.6; stroke: #ffffff; stroke-opacity: 0.6; stroke-width: 0.339411"/>
    <path d="M 157.557038 162.758383 
L 161.799679 162.758383 
L 161.799679 158.515742 
L 157.557038 158.515742 
z
" clip-path="url(#p4ca81b4912)" style="fill: #44aa99; fill-opacity: 0.6; stroke: #ffffff; stroke-opacity: 0.6; stroke-width: 0.339411"/>
    <path d="M 95.686183 147.105646 
L 99.928823 147.105646 
L 99.928823 142.863006 
L 95.686183 142.863006 
z
" clip-path="url(#p4ca81b4912)" style="fill: #44aa99; fill-opacity: 0.6; stroke: #ffffff; stroke-opacity: 0.6; stroke-width: 0.339411"/>
    <path d="M 132.2403 132.226976 
L 136.482941 132.226976 
L 136.482941 127.984335 
L 132.2403 127.984335 
z
" clip-path="url(#p4ca81b4912)" style="fill: #44aa99; fill-opacity: 0.6; stroke: #ffffff; stroke-opacity: 0.6; stroke-width: 0.339411"/>
    <path d="M 137.830324 173.172809 
L 142.072964 173.172809 
L 142.072964 168.930168 
L 137.830324 168.930168 
z
" clip-path="url(#p4ca81b4912)" style="fill: #44aa99; fill-opacity: 0.6; stroke: #ffffff; stroke-opacity: 0.6; stroke-width: 0.339411"/>
    <path d="M 186.071856 167.06298 
L 190.314496 167.06298 
L 190.314496 162.820339 
L 186.071856 162.820339 
z
" clip-path="url(#p4ca81b4912)" style="fill: #44aa99; fill-opacity: 0.6; stroke: #ffffff; stroke-opacity: 0.6; stroke-width: 0.339411"/>
    <path d="M 138.94314 165.706129 
L 143.18578 165.706129 
L 143.18578 161.463489 
L 138.94314 161.463489 
z
" clip-path="url(#p4ca81b4912)" style="fill: #44aa99; fill-opacity: 0.6; stroke: #ffffff; stroke-opacity: 0.6; stroke-width: 0.339411"/>
    <path d="M 134.875785 128.169663 
L 139.118426 128.169663 
L 139.118426 123.927023 
L 134.875785 123.927023 
z
" clip-path="url(#p4ca81b4912)" style="fill: #44aa99; fill-opacity: 0.6; stroke: #ffffff; stroke-opacity: 0.6; stroke-width: 0.339411"/>
    <path d="M 190.306099 120.504432 
L 194.54874 120.504432 
L 194.54874 116.261792 
L 190.306099 116.261792 
z
" clip-path="url(#p4ca81b4912)" style="fill: #44aa99; fill-opacity: 0.6; stroke: #ffffff; stroke-opacity: 0.6; stroke-width: 0.339411"/>
    <path d="M 179.984827 118.672555 
L 184.227468 118.672555 
L 184.227468 114.429914 
L 179.984827 114.429914 
z
" clip-path="url(#p4ca81b4912)" style="fill: #44aa99; fill-opacity: 0.6; stroke: #ffffff; stroke-opacity: 0.6; stroke-width: 0.339411"/>
    <path d="M 149.470947 175.555596 
L 153.713588 175.555596 
L 153.713588 171.312956 
L 149.470947 171.312956 
z
" clip-path="url(#p4ca81b4912)" style="fill: #44aa99; fill-opacity: 0.6; stroke: #ffffff; stroke-opacity: 0.6; stroke-width: 0.339411"/>
    <path d="M 166.3051 139.653503 
L 170.547741 139.653503 
L 170.547741 135.410863 
L 166.3051 135.410863 
z
" clip-path="url(#p4ca81b4912)" style="fill: #44aa99; fill-opacity: 0.6; stroke: #ffffff; stroke-opacity: 0.6; stroke-width: 0.339411"/>
    <path d="M 115.16043 167.005795 
L 119.40307 167.005795 
L 119.40307 162.763154 
L 115.16043 162.763154 
z
" clip-path="url(#p4ca81b4912)" style="fill: #44aa99; fill-opacity: 0.6; stroke: #ffffff; stroke-opacity: 0.6; stroke-width: 0.339411"/>
    <path d="M 206.588235 126.253289 
L 210.830875 126.253289 
L 210.830875 122.010648 
L 206.588235 122.010648 
z
" clip-path="url(#p4ca81b4912)" style="fill: #44aa99; fill-opacity: 0.6; stroke: #ffffff; stroke-opacity: 0.6; stroke-width: 0.339411"/>
    <path d="M 184.945554 131.113871 
L 189.188195 131.113871 
L 189.188195 126.87123 
L 184.945554 126.87123 
z
" clip-path="url(#p4ca81b4912)" style="fill: #44aa99; fill-opacity: 0.6; stroke: #ffffff; stroke-opacity: 0.6; stroke-width: 0.339411"/>
    <path d="M 153.65096 165.213719 
L 157.893601 165.213719 
L 157.893601 160.971079 
L 153.65096 160.971079 
z
" clip-path="url(#p4ca81b4912)" style="fill: #44aa99; fill-opacity: 0.6; stroke: #ffffff; stroke-opacity: 0.6; stroke-width: 0.339411"/>
    <path d="M 143.175749 109.539512 
L 147.41839 109.539512 
L 147.41839 105.296871 
L 143.175749 105.296871 
z
" clip-path="url(#p4ca81b4912)" style="fill: #44aa99; fill-opacity: 0.6; stroke: #ffffff; stroke-opacity: 0.6; stroke-width: 0.339411"/>
    <path d="M 134.708756 150.432465 
L 138.951396 150.432465 
L 138.951396 146.189824 
L 134.708756 146.189824 
z
" clip-path="url(#p4ca81b4912)" style="fill: #44aa99; fill-opacity: 0.6; stroke: #ffffff; stroke-opacity: 0.6; stroke-width: 0.339411"/>
    <path d="M 113.96432 168.004295 
L 118.206961 168.004295 
L 118.206961 163.761654 
L 113.96432 163.761654 
z
" clip-path="url(#p4ca81b4912)" style="fill: #44aa99; fill-opacity: 0.6; stroke: #ffffff; stroke-opacity: 0.6; stroke-width: 0.339411"/>
    <path d="M 153.132956 125.500714 
L 157.375596 125.500714 
L 157.375596 121.258074 
L 153.132956 121.258074 
z
" clip-path="url(#p4ca81b4912)" style="fill: #44aa99; fill-opacity: 0.6; stroke: #ffffff; stroke-opacity: 0.6; stroke-width: 0.339411"/>
    <path d="M 183.871758 163.552125 
L 188.114398 163.552125 
L 188.114398 159.309484 
L 183.871758 159.309484 
z
" clip-path="url(#p4ca81b4912)" style="fill: #44aa99; fill-opacity: 0.6; stroke: #ffffff; stroke-opacity: 0.6; stroke-width: 0.339411"/>
    <path d="M 137.168887 171.064028 
L 141.411528 171.064028 
L 141.411528 166.821388 
L 137.168887 166.821388 
z
" clip-path="url(#p4ca81b4912)" style="fill: #44aa99; fill-opacity: 0.6; stroke: #ffffff; stroke-opacity: 0.6; stroke-width: 0.339411"/>
    <path d="M 106.97618 141.675107 
L 111.218821 141.675107 
L 111.218821 137.432466 
L 106.97618 137.432466 
z
" clip-path="url(#p4ca81b4912)" style="fill: #44aa99; fill-opacity: 0.6; stroke: #ffffff; stroke-opacity: 0.6; stroke-width: 0.339411"/>
    <path d="M 181.984537 128.417275 
L 186.227178 128.417275 
L 186.227178 124.174634 
L 181.984537 124.174634 
z
" clip-path="url(#p4ca81b4912)" style="fill: #44aa99; fill-opacity: 0.6; stroke: #ffffff; stroke-opacity: 0.6; stroke-width: 0.339411"/>
    <path d="M 168.704685 102.574829 
L 172.947325 102.574829 
L 172.947325 98.332188 
L 168.704685 98.332188 
z
" clip-path="url(#p4ca81b4912)" style="fill: #44aa99; fill-opacity: 0.6; stroke: #ffffff; stroke-opacity: 0.6; stroke-width: 0.339411"/>
    <path d="M 148.502556 115.025771 
L 152.745197 115.025771 
L 152.745197 110.783131 
L 148.502556 110.783131 
z
" clip-path="url(#p4ca81b4912)" style="fill: #44aa99; fill-opacity: 0.6; stroke: #ffffff; stroke-opacity: 0.6; stroke-width: 0.339411"/>
    <path d="M 161.815281 165.698799 
L 166.057921 165.698799 
L 166.057921 161.456158 
L 161.815281 161.456158 
z
" clip-path="url(#p4ca81b4912)" style="fill: #44aa99; fill-opacity: 0.6; stroke: #ffffff; stroke-opacity: 0.6; stroke-width: 0.339411"/>
    <path d="M 156.931622 141.862425 
L 161.174262 141.862425 
L 161.174262 137.619784 
L 156.931622 137.619784 
z
" clip-path="url(#p4ca81b4912)" style="fill: #44aa99; fill-opacity: 0.6; stroke: #ffffff; stroke-opacity: 0.6; stroke-width: 0.339411"/>
    <path d="M 133.839671 164.568282 
L 138.082312 164.568282 
L 138.082312 160.325642 
L 133.839671 160.325642 
z
" clip-path="url(#p4ca81b4912)" style="fill: #44aa99; fill-opacity: 0.6; stroke: #ffffff; stroke-opacity: 0.6; stroke-width: 0.339411"/>
    <path d="M 197.553851 164.949112 
L 201.796491 164.949112 
L 201.796491 160.706471 
L 197.553851 160.706471 
z
" clip-path="url(#p4ca81b4912)" style="fill: #44aa99; fill-opacity: 0.6; stroke: #ffffff; stroke-opacity: 0.6; stroke-width: 0.339411"/>
    <path d="M 129.787393 140.541982 
L 134.030034 140.541982 
L 134.030034 136.299341 
L 129.787393 136.299341 
z
" clip-path="url(#p4ca81b4912)" style="fill: #44aa99; fill-opacity: 0.6; stroke: #ffffff; stroke-opacity: 0.6; stroke-width: 0.339411"/>
    <path d="M 150.74004 177.740196 
L 154.982681 177.740196 
L 154.982681 173.497556 
L 150.74004 173.497556 
z
" clip-path="url(#p4ca81b4912)" style="fill: #44aa99; fill-opacity: 0.6; stroke: #ffffff; stroke-opacity: 0.6; stroke-width: 0.339411"/>
    <path d="M 144.826879 96.099785 
L 149.06952 96.099785 
L 149.06952 91.857144 
L 144.826879 91.857144 
z
" clip-path="url(#p4ca81b4912)" style="fill: #44aa99; fill-opacity: 0.6; stroke: #ffffff; stroke-opacity: 0.6; stroke-width: 0.339411"/>
    <path d="M 186.943236 114.580025 
L 191.185877 114.580025 
L 191.185877 110.337384 
L 186.943236 110.337384 
z
" clip-path="url(#p4ca81b4912)" style="fill: #44aa99; fill-opacity: 0.6; stroke: #ffffff; stroke-opacity: 0.6; stroke-width: 0.339411"/>
    <path d="M 164.203422 103.228047 
L 168.446062 103.228047 
L 168.446062 98.985406 
L 164.203422 98.985406 
z
" clip-path="url(#p4ca81b4912)" style="fill: #44aa99; fill-opacity: 0.6; stroke: #ffffff; stroke-opacity: 0.6; stroke-width: 0.339411"/>
    <path d="M 186.036702 119.949478 
L 190.279343 119.949478 
L 190.279343 115.706838 
L 186.036702 115.706838 
z
" clip-path="url(#p4ca81b4912)" style="fill: #44aa99; fill-opacity: 0.6; stroke: #ffffff; stroke-opacity: 0.6; stroke-width: 0.339411"/>
    <path d="M 141.522437 149.826456 
L 145.765077 149.826456 
L 145.765077 145.583815 
L 141.522437 145.583815 
z
" clip-path="url(#p4ca81b4912)" style="fill: #44aa99; fill-opacity: 0.6; stroke: #ffffff; stroke-opacity: 0.6; stroke-width: 0.339411"/>
    <path d="M 98.13767 147.004699 
L 102.380311 147.004699 
L 102.380311 142.762058 
L 98.13767 142.762058 
z
" clip-path="url(#p4ca81b4912)" style="fill: #44aa99; fill-opacity: 0.6; stroke: #ffffff; stroke-opacity: 0.6; stroke-width: 0.339411"/>
    <path d="M 147.466216 156.327091 
L 151.708857 156.327091 
L 151.708857 152.08445 
L 147.466216 152.08445 
z
" clip-path="url(#p4ca81b4912)" style="fill: #44aa99; fill-opacity: 0.6; stroke: #ffffff; stroke-opacity: 0.6; stroke-width: 0.339411"/>
    <path d="M 128.625079 166.103314 
L 132.86772 166.103314 
L 132.86772 161.860673 
L 128.625079 161.860673 
z
" clip-path="url(#p4ca81b4912)" style="fill: #44aa99; fill-opacity: 0.6; stroke: #ffffff; stroke-opacity: 0.6; stroke-width: 0.339411"/>
    <path d="M 121.882191 139.242566 
L 126.124832 139.242566 
L 126.124832 134.999925 
L 121.882191 134.999925 
z
" clip-path="url(#p4ca81b4912)" style="fill: #44aa99; fill-opacity: 0.6; stroke: #ffffff; stroke-opacity: 0.6; stroke-width: 0.339411"/>
    <path d="M 157.548165 113.572579 
L 161.790806 113.572579 
L 161.790806 109.329938 
L 157.548165 109.329938 
z
" clip-path="url(#p4ca81b4912)" style="fill: #44aa99; fill-opacity: 0.6; stroke: #ffffff; stroke-opacity: 0.6; stroke-width: 0.339411"/>
    <path d="M 143.501506 178.790638 
L 147.744147 178.790638 
L 147.744147 174.547997 
L 143.501506 174.547997 
z
" clip-path="url(#p4ca81b4912)" style="fill: #44aa99; fill-opacity: 0.6; stroke: #ffffff; stroke-opacity: 0.6; stroke-width: 0.339411"/>
    <path d="M 104.604433 153.153313 
L 108.847074 153.153313 
L 108.847074 148.910673 
L 104.604433 148.910673 
z
" clip-path="url(#p4ca81b4912)" style="fill: #44aa99; fill-opacity: 0.6; stroke: #ffffff; stroke-opacity: 0.6; stroke-width: 0.339411"/>
    <path d="M 155.637889 167.948455 
L 159.880529 167.948455 
L 159.880529 163.705814 
L 155.637889 163.705814 
z
" clip-path="url(#p4ca81b4912)" style="fill: #44aa99; fill-opacity: 0.6; stroke: #ffffff; stroke-opacity: 0.6; stroke-width: 0.339411"/>
    <path d="M 163.304606 105.93565 
L 167.547246 105.93565 
L 167.547246 101.693009 
L 163.304606 101.693009 
z
" clip-path="url(#p4ca81b4912)" style="fill: #44aa99; fill-opacity: 0.6; stroke: #ffffff; stroke-opacity: 0.6; stroke-width: 0.339411"/>
    <path d="M 183.842664 109.525998 
L 184.903325 108.465338 
L 185.963985 109.525998 
L 187.024645 108.465338 
L 185.963985 107.404678 
L 187.024645 106.344018 
L 185.963985 105.283358 
L 184.903325 106.344018 
L 183.842664 105.283358 
L 182.782004 106.344018 
L 183.842664 107.404678 
L 182.782004 108.465338 
z
" clip-path="url(#p4ca81b4912)" style="fill: #88ccee; fill-opacity: 0.6; stroke: #ffffff; stroke-opacity: 0.6; stroke-width: 0.339411"/>
    <path d="M 162.488158 118.578452 
L 163.548818 117.517792 
L 164.609478 118.578452 
L 165.670138 117.517792 
L 164.609478 116.457132 
L 165.670138 115.396472 
L 164.609478 114.335812 
L 163.548818 115.396472 
L 162.488158 114.335812 
L 161.427497 115.396472 
L 162.488158 116.457132 
L 161.427497 117.517792 
z
" clip-path="url(#p4ca81b4912)" style="fill: #88ccee; fill-opacity: 0.6; stroke: #ffffff; stroke-opacity: 0.6; stroke-width: 0.339411"/>
    <path d="M 138.148515 147.67148 
L 139.209175 146.61082 
L 140.269835 147.67148 
L 141.330495 146.61082 
L 140.269835 145.55016 
L 141.330495 144.4895 
L 140.269835 143.428839 
L 139.209175 144.4895 
L 138.148515 143.428839 
L 137.087855 144.4895 
L 138.148515 145.55016 
L 137.087855 146.61082 
z
" clip-path="url(#p4ca81b4912)" style="fill: #88ccee; fill-opacity: 0.6; stroke: #ffffff; stroke-opacity: 0.6; stroke-width: 0.339411"/>
    <path d="M 172.947636 158.930067 
L 174.008296 157.869407 
L 175.068957 158.930067 
L 176.129617 157.869407 
L 175.068957 156.808746 
L 176.129617 155.748086 
L 175.068957 154.687426 
L 174.008296 155.748086 
L 172.947636 154.687426 
L 171.886976 155.748086 
L 172.947636 156.808746 
L 171.886976 157.869407 
z
" clip-path="url(#p4ca81b4912)" style="fill: #88ccee; fill-opacity: 0.6; stroke: #ffffff; stroke-opacity: 0.6; stroke-width: 0.339411"/>
    <path d="M 164.873559 139.274005 
L 165.934219 138.213345 
L 166.99488 139.274005 
L 168.05554 138.213345 
L 166.99488 137.152685 
L 168.05554 136.092025 
L 166.99488 135.031364 
L 165.934219 136.092025 
L 164.873559 135.031364 
L 163.812899 136.092025 
L 164.873559 137.152685 
L 163.812899 138.213345 
z
" clip-path="url(#p4ca81b4912)" style="fill: #88ccee; fill-opacity: 0.6; stroke: #ffffff; stroke-opacity: 0.6; stroke-width: 0.339411"/>
    <path d="M 136.87181 107.920149 
L 137.93247 106.859489 
L 138.99313 107.920149 
L 140.05379 106.859489 
L 138.99313 105.798829 
L 140.05379 104.738168 
L 138.99313 103.677508 
L 137.93247 104.738168 
L 136.87181 103.677508 
L 135.811149 104.738168 
L 136.87181 105.798829 
L 135.811149 106.859489 
z
" clip-path="url(#p4ca81b4912)" style="fill: #88ccee; fill-opacity: 0.6; stroke: #ffffff; stroke-opacity: 0.6; stroke-width: 0.339411"/>
    <path d="M 126.777136 98.584035 
L 127.837796 97.523375 
L 128.898456 98.584035 
L 129.959116 97.523375 
L 128.898456 96.462715 
L 129.959116 95.402055 
L 128.898456 94.341395 
L 127.837796 95.402055 
L 126.777136 94.341395 
L 125.716476 95.402055 
L 126.777136 96.462715 
L 125.716476 97.523375 
z
" clip-path="url(#p4ca81b4912)" style="fill: #88ccee; fill-opacity: 0.6; stroke: #ffffff; stroke-opacity: 0.6; stroke-width: 0.339411"/>
    <path d="M 176.234122 136.007959 
L 177.294782 134.947299 
L 178.355442 136.007959 
L 179.416102 134.947299 
L 178.355442 133.886639 
L 179.416102 132.825979 
L 178.355442 131.765319 
L 177.294782 132.825979 
L 176.234122 131.765319 
L 175.173461 132.825979 
L 176.234122 133.886639 
L 175.173461 134.947299 
z
" clip-path="url(#p4ca81b4912)" style="fill: #88ccee; fill-opacity: 0.6; stroke: #ffffff; stroke-opacity: 0.6; stroke-width: 0.339411"/>
    <path d="M 168.431754 150.586234 
L 169.492414 149.525574 
L 170.553074 150.586234 
L 171.613735 149.525574 
L 170.553074 148.464914 
L 171.613735 147.404254 
L 170.553074 146.343594 
L 169.492414 147.404254 
L 168.431754 146.343594 
L 167.371094 147.404254 
L 168.431754 148.464914 
L 167.371094 149.525574 
z
" clip-path="url(#p4ca81b4912)" style="fill: #88ccee; fill-opacity: 0.6; stroke: #ffffff; stroke-opacity: 0.6; stroke-width: 0.339411"/>
    <path d="M 161.013931 157.07237 
L 162.074591 156.01171 
L 163.135251 157.07237 
L 164.195911 156.01171 
L 163.135251 154.951049 
L 164.195911 153.890389 
L 163.135251 152.829729 
L 162.074591 153.890389 
L 161.013931 152.829729 
L 159.95327 153.890389 
L 161.013931 154.951049 
L 159.95327 156.01171 
z
" clip-path="url(#p4ca81b4912)" style="fill: #88ccee; fill-opacity: 0.6; stroke: #ffffff; stroke-opacity: 0.6; stroke-width: 0.339411"/>
    <path d="M 135.418716 180.780755 
L 136.479376 179.720095 
L 137.540036 180.780755 
L 138.600696 179.720095 
L 137.540036 178.659434 
L 138.600696 177.598774 
L 137.540036 176.538114 
L 136.479376 177.598774 
L 135.418716 176.538114 
L 134.358056 177.598774 
L 135.418716 178.659434 
L 134.358056 179.720095 
z
" clip-path="url(#p4ca81b4912)" style="fill: #88ccee; fill-opacity: 0.6; stroke: #ffffff; stroke-opacity: 0.6; stroke-width: 0.339411"/>
    <path d="M 130.426771 104.97166 
L 131.487432 103.911 
L 132.548092 104.97166 
L 133.608752 103.911 
L 132.548092 102.850339 
L 133.608752 101.789679 
L 132.548092 100.729019 
L 131.487432 101.789679 
L 130.426771 100.729019 
L 129.366111 101.789679 
L 130.426771 102.850339 
L 129.366111 103.911 
z
" clip-path="url(#p4ca81b4912)" style="fill: #88ccee; fill-opacity: 0.6; stroke: #ffffff; stroke-opacity: 0.6; stroke-width: 0.339411"/>
    <path d="M 121.574931 161.724702 
L 122.635591 160.664042 
L 123.696251 161.724702 
L 124.756911 160.664042 
L 123.696251 159.603381 
L 124.756911 158.542721 
L 123.696251 157.482061 
L 122.635591 158.542721 
L 121.574931 157.482061 
L 120.514271 158.542721 
L 121.574931 159.603381 
L 120.514271 160.664042 
z
" clip-path="url(#p4ca81b4912)" style="fill: #88ccee; fill-opacity: 0.6; stroke: #ffffff; stroke-opacity: 0.6; stroke-width: 0.339411"/>
    <path d="M 143.047666 92.954443 
L 144.108326 91.893782 
L 145.168987 92.954443 
L 146.229647 91.893782 
L 145.168987 90.833122 
L 146.229647 89.772462 
L 145.168987 88.711802 
L 144.108326 89.772462 
L 143.047666 88.711802 
L 141.987006 89.772462 
L 143.047666 90.833122 
L 141.987006 91.893782 
z
" clip-path="url(#p4ca81b4912)" style="fill: #88ccee; fill-opacity: 0.6; stroke: #ffffff; stroke-opacity: 0.6; stroke-width: 0.339411"/>
    <path d="M 178.039711 132.736657 
L 179.100371 131.675996 
L 180.161031 132.736657 
L 181.221692 131.675996 
L 180.161031 130.615336 
L 181.221692 129.554676 
L 180.161031 128.494016 
L 179.100371 129.554676 
L 178.039711 128.494016 
L 176.979051 129.554676 
L 178.039711 130.615336 
L 176.979051 131.675996 
z
" clip-path="url(#p4ca81b4912)" style="fill: #88ccee; fill-opacity: 0.6; stroke: #ffffff; stroke-opacity: 0.6; stroke-width: 0.339411"/>
    <path d="M 163.676401 149.14402 
L 164.737061 148.08336 
L 165.797721 149.14402 
L 166.858381 148.08336 
L 165.797721 147.0227 
L 166.858381 145.96204 
L 165.797721 144.90138 
L 164.737061 145.96204 
L 163.676401 144.90138 
L 162.615741 145.96204 
L 163.676401 147.0227 
L 162.615741 148.08336 
z
" clip-path="url(#p4ca81b4912)" style="fill: #88ccee; fill-opacity: 0.6; stroke: #ffffff; stroke-opacity: 0.6; stroke-width: 0.339411"/>
    <path d="M 175.211112 112.192835 
L 176.271773 111.132175 
L 177.332433 112.192835 
L 178.393093 111.132175 
L 177.332433 110.071514 
L 178.393093 109.010854 
L 177.332433 107.950194 
L 176.271773 109.010854 
L 175.211112 107.950194 
L 174.150452 109.010854 
L 175.211112 110.071514 
L 174.150452 111.132175 
z
" clip-path="url(#p4ca81b4912)" style="fill: #88ccee; fill-opacity: 0.6; stroke: #ffffff; stroke-opacity: 0.6; stroke-width: 0.339411"/>
    <path d="M 160.822852 133.208853 
L 161.883512 132.148192 
L 162.944173 133.208853 
L 164.004833 132.148192 
L 162.944173 131.087532 
L 164.004833 130.026872 
L 162.944173 128.966212 
L 161.883512 130.026872 
L 160.822852 128.966212 
L 159.762192 130.026872 
L 160.822852 131.087532 
L 159.762192 132.148192 
z
" clip-path="url(#p4ca81b4912)" style="fill: #88ccee; fill-opacity: 0.6; stroke: #ffffff; stroke-opacity: 0.6; stroke-width: 0.339411"/>
    <path d="M 144.010114 176.595061 
L 145.070774 175.534401 
L 146.131434 176.595061 
L 147.192095 175.534401 
L 146.131434 174.47374 
L 147.192095 173.41308 
L 146.131434 172.35242 
L 145.070774 173.41308 
L 144.010114 172.35242 
L 142.949454 173.41308 
L 144.010114 174.47374 
L 142.949454 175.534401 
z
" clip-path="url(#p4ca81b4912)" style="fill: #88ccee; fill-opacity: 0.6; stroke: #ffffff; stroke-opacity: 0.6; stroke-width: 0.339411"/>
    <path d="M 204.854351 129.899565 
L 205.915011 128.838905 
L 206.975672 129.899565 
L 208.036332 128.838905 
L 206.975672 127.778245 
L 208.036332 126.717585 
L 206.975672 125.656924 
L 205.915011 126.717585 
L 204.854351 125.656924 
L 203.793691 126.717585 
L 204.854351 127.778245 
L 203.793691 128.838905 
z
" clip-path="url(#p4ca81b4912)" style="fill: #88ccee; fill-opacity: 0.6; stroke: #ffffff; stroke-opacity: 0.6; stroke-width: 0.339411"/>
    <path d="M 167.324367 168.491152 
L 168.385028 167.430492 
L 169.445688 168.491152 
L 170.506348 167.430492 
L 169.445688 166.369832 
L 170.506348 165.309172 
L 169.445688 164.248511 
L 168.385028 165.309172 
L 167.324367 164.248511 
L 166.263707 165.309172 
L 167.324367 166.369832 
L 166.263707 167.430492 
z
" clip-path="url(#p4ca81b4912)" style="fill: #88ccee; fill-opacity: 0.6; stroke: #ffffff; stroke-opacity: 0.6; stroke-width: 0.339411"/>
    <path d="M 180.777665 133.002556 
L 181.838325 131.941896 
L 182.898985 133.002556 
L 183.959645 131.941896 
L 182.898985 130.881236 
L 183.959645 129.820576 
L 182.898985 128.759916 
L 181.838325 129.820576 
L 180.777665 128.759916 
L 179.717005 129.820576 
L 180.777665 130.881236 
L 179.717005 131.941896 
z
" clip-path="url(#p4ca81b4912)" style="fill: #88ccee; fill-opacity: 0.6; stroke: #ffffff; stroke-opacity: 0.6; stroke-width: 0.339411"/>
    <path d="M 158.379804 158.862361 
L 159.440465 157.801701 
L 160.501125 158.862361 
L 161.561785 157.801701 
L 160.501125 156.741041 
L 161.561785 155.680381 
L 160.501125 154.619721 
L 159.440465 155.680381 
L 158.379804 154.619721 
L 157.319144 155.680381 
L 158.379804 156.741041 
L 157.319144 157.801701 
z
" clip-path="url(#p4ca81b4912)" style="fill: #88ccee; fill-opacity: 0.6; stroke: #ffffff; stroke-opacity: 0.6; stroke-width: 0.339411"/>
    <path d="M 124.341905 109.82089 
L 125.402565 108.76023 
L 126.463225 109.82089 
L 127.523885 108.76023 
L 126.463225 107.69957 
L 127.523885 106.63891 
L 126.463225 105.57825 
L 125.402565 106.63891 
L 124.341905 105.57825 
L 123.281245 106.63891 
L 124.341905 107.69957 
L 123.281245 108.76023 
z
" clip-path="url(#p4ca81b4912)" style="fill: #88ccee; fill-opacity: 0.6; stroke: #ffffff; stroke-opacity: 0.6; stroke-width: 0.339411"/>
    <path d="M 142.971253 120.011096 
L 144.031913 118.950436 
L 145.092574 120.011096 
L 146.153234 118.950436 
L 145.092574 117.889776 
L 146.153234 116.829116 
L 145.092574 115.768455 
L 144.031913 116.829116 
L 142.971253 115.768455 
L 141.910593 116.829116 
L 142.971253 117.889776 
L 141.910593 118.950436 
z
" clip-path="url(#p4ca81b4912)" style="fill: #88ccee; fill-opacity: 0.6; stroke: #ffffff; stroke-opacity: 0.6; stroke-width: 0.339411"/>
    <path d="M 191.395223 93.080537 
L 192.455883 92.019877 
L 193.516543 93.080537 
L 194.577204 92.019877 
L 193.516543 90.959217 
L 194.577204 89.898557 
L 193.516543 88.837896 
L 192.455883 89.898557 
L 191.395223 88.837896 
L 190.334563 89.898557 
L 191.395223 90.959217 
L 190.334563 92.019877 
z
" clip-path="url(#p4ca81b4912)" style="fill: #88ccee; fill-opacity: 0.6; stroke: #ffffff; stroke-opacity: 0.6; stroke-width: 0.339411"/>
    <path d="M 141.733878 180.15299 
L 142.794538 179.09233 
L 143.855198 180.15299 
L 144.915858 179.09233 
L 143.855198 178.031669 
L 144.915858 176.971009 
L 143.855198 175.910349 
L 142.794538 176.971009 
L 141.733878 175.910349 
L 140.673218 176.971009 
L 141.733878 178.031669 
L 140.673218 179.09233 
z
" clip-path="url(#p4ca81b4912)" style="fill: #88ccee; fill-opacity: 0.6; stroke: #ffffff; stroke-opacity: 0.6; stroke-width: 0.339411"/>
    <path d="M 139.29421 97.202967 
L 140.35487 96.142307 
L 141.415531 97.202967 
L 142.476191 96.142307 
L 141.415531 95.081647 
L 142.476191 94.020987 
L 141.415531 92.960327 
L 140.35487 94.020987 
L 139.29421 92.960327 
L 138.23355 94.020987 
L 139.29421 95.081647 
L 138.23355 96.142307 
z
" clip-path="url(#p4ca81b4912)" style="fill: #88ccee; fill-opacity: 0.6; stroke: #ffffff; stroke-opacity: 0.6; stroke-width: 0.339411"/>
    <path d="M 132.101203 110.354831 
L 133.161863 109.294171 
L 134.222524 110.354831 
L 135.283184 109.294171 
L 134.222524 108.23351 
L 135.283184 107.17285 
L 134.222524 106.11219 
L 133.161863 107.17285 
L 132.101203 106.11219 
L 131.040543 107.17285 
L 132.101203 108.23351 
L 131.040543 109.294171 
z
" clip-path="url(#p4ca81b4912)" style="fill: #88ccee; fill-opacity: 0.6; stroke: #ffffff; stroke-opacity: 0.6; stroke-width: 0.339411"/>
    <path d="M 155.521411 142.670473 
L 156.582071 141.609813 
L 157.642731 142.670473 
L 158.703391 141.609813 
L 157.642731 140.549152 
L 158.703391 139.488492 
L 157.642731 138.427832 
L 156.582071 139.488492 
L 155.521411 138.427832 
L 154.460751 139.488492 
L 155.521411 140.549152 
L 154.460751 141.609813 
z
" clip-path="url(#p4ca81b4912)" style="fill: #88ccee; fill-opacity: 0.6; stroke: #ffffff; stroke-opacity: 0.6; stroke-width: 0.339411"/>
    <path d="M 169.120042 113.264173 
L 170.180702 112.203513 
L 171.241362 113.264173 
L 172.302022 112.203513 
L 171.241362 111.142853 
L 172.302022 110.082193 
L 171.241362 109.021533 
L 170.180702 110.082193 
L 169.120042 109.021533 
L 168.059382 110.082193 
L 169.120042 111.142853 
L 168.059382 112.203513 
z
" clip-path="url(#p4ca81b4912)" style="fill: #88ccee; fill-opacity: 0.6; stroke: #ffffff; stroke-opacity: 0.6; stroke-width: 0.339411"/>
    <path d="M 171.641791 83.196568 
L 172.702451 82.135908 
L 173.763112 83.196568 
L 174.823772 82.135908 
L 173.763112 81.075248 
L 174.823772 80.014587 
L 173.763112 78.953927 
L 172.702451 80.014587 
L 171.641791 78.953927 
L 170.581131 80.014587 
L 171.641791 81.075248 
L 170.581131 82.135908 
z
" clip-path="url(#p4ca81b4912)" style="fill: #88ccee; fill-opacity: 0.6; stroke: #ffffff; stroke-opacity: 0.6; stroke-width: 0.339411"/>
    <path d="M 131.181599 119.536351 
L 132.242259 118.475691 
L 133.30292 119.536351 
L 134.36358 118.475691 
L 133.30292 117.415031 
L 134.36358 116.35437 
L 133.30292 115.29371 
L 132.242259 116.35437 
L 131.181599 115.29371 
L 130.120939 116.35437 
L 131.181599 117.415031 
L 130.120939 118.475691 
z
" clip-path="url(#p4ca81b4912)" style="fill: #88ccee; fill-opacity: 0.6; stroke: #ffffff; stroke-opacity: 0.6; stroke-width: 0.339411"/>
    <path d="M 204.538869 124.965612 
L 205.599529 123.904952 
L 206.660189 124.965612 
L 207.720849 123.904952 
L 206.660189 122.844292 
L 207.720849 121.783631 
L 206.660189 120.722971 
L 205.599529 121.783631 
L 204.538869 120.722971 
L 203.478208 121.783631 
L 204.538869 122.844292 
L 203.478208 123.904952 
z
" clip-path="url(#p4ca81b4912)" style="fill: #88ccee; fill-opacity: 0.6; stroke: #ffffff; stroke-opacity: 0.6; stroke-width: 0.339411"/>
    <path d="M 166.564096 176.962537 
L 167.624756 175.901876 
L 168.685417 176.962537 
L 169.746077 175.901876 
L 168.685417 174.841216 
L 169.746077 173.780556 
L 168.685417 172.719896 
L 167.624756 173.780556 
L 166.564096 172.719896 
L 165.503436 173.780556 
L 166.564096 174.841216 
L 165.503436 175.901876 
z
" clip-path="url(#p4ca81b4912)" style="fill: #88ccee; fill-opacity: 0.6; stroke: #ffffff; stroke-opacity: 0.6; stroke-width: 0.339411"/>
    <path d="M 133.120283 180.681564 
L 134.180943 179.620904 
L 135.241603 180.681564 
L 136.302264 179.620904 
L 135.241603 178.560244 
L 136.302264 177.499584 
L 135.241603 176.438924 
L 134.180943 177.499584 
L 133.120283 176.438924 
L 132.059623 177.499584 
L 133.120283 178.560244 
L 132.059623 179.620904 
z
" clip-path="url(#p4ca81b4912)" style="fill: #88ccee; fill-opacity: 0.6; stroke: #ffffff; stroke-opacity: 0.6; stroke-width: 0.339411"/>
    <path d="M 166.672121 120.052679 
L 167.732781 118.992019 
L 168.793441 120.052679 
L 169.854101 118.992019 
L 168.793441 117.931359 
L 169.854101 116.870699 
L 168.793441 115.810039 
L 167.732781 116.870699 
L 166.672121 115.810039 
L 165.611461 116.870699 
L 166.672121 117.931359 
L 165.611461 118.992019 
z
" clip-path="url(#p4ca81b4912)" style="fill: #88ccee; fill-opacity: 0.6; stroke: #ffffff; stroke-opacity: 0.6; stroke-width: 0.339411"/>
    <path d="M 168.861797 170.590098 
L 169.922457 169.529438 
L 170.983117 170.590098 
L 172.043777 169.529438 
L 170.983117 168.468778 
L 172.043777 167.408118 
L 170.983117 166.347458 
L 169.922457 167.408118 
L 168.861797 166.347458 
L 167.801136 167.408118 
L 168.861797 168.468778 
L 167.801136 169.529438 
z
" clip-path="url(#p4ca81b4912)" style="fill: #88ccee; fill-opacity: 0.6; stroke: #ffffff; stroke-opacity: 0.6; stroke-width: 0.339411"/>
    <path d="M 125.501621 97.871819 
L 126.562281 96.811159 
L 127.622941 97.871819 
L 128.683601 96.811159 
L 127.622941 95.750498 
L 128.683601 94.689838 
L 127.622941 93.629178 
L 126.562281 94.689838 
L 125.501621 93.629178 
L 124.440961 94.689838 
L 125.501621 95.750498 
L 124.440961 96.811159 
z
" clip-path="url(#p4ca81b4912)" style="fill: #88ccee; fill-opacity: 0.6; stroke: #ffffff; stroke-opacity: 0.6; stroke-width: 0.339411"/>
    <path d="M 149.035008 114.736253 
L 150.095668 113.675592 
L 151.156328 114.736253 
L 152.216988 113.675592 
L 151.156328 112.614932 
L 152.216988 111.554272 
L 151.156328 110.493612 
L 150.095668 111.554272 
L 149.035008 110.493612 
L 147.974348 111.554272 
L 149.035008 112.614932 
L 147.974348 113.675592 
z
" clip-path="url(#p4ca81b4912)" style="fill: #88ccee; fill-opacity: 0.6; stroke: #ffffff; stroke-opacity: 0.6; stroke-width: 0.339411"/>
    <path d="M 194.912461 160.663493 
L 195.973122 159.602833 
L 197.033782 160.663493 
L 198.094442 159.602833 
L 197.033782 158.542173 
L 198.094442 157.481513 
L 197.033782 156.420852 
L 195.973122 157.481513 
L 194.912461 156.420852 
L 193.851801 157.481513 
L 194.912461 158.542173 
L 193.851801 159.602833 
z
" clip-path="url(#p4ca81b4912)" style="fill: #88ccee; fill-opacity: 0.6; stroke: #ffffff; stroke-opacity: 0.6; stroke-width: 0.339411"/>
    <path d="M 130.274171 101.196282 
L 131.334831 100.135622 
L 132.395491 101.196282 
L 133.456151 100.135622 
L 132.395491 99.074961 
L 133.456151 98.014301 
L 132.395491 96.953641 
L 131.334831 98.014301 
L 130.274171 96.953641 
L 129.213511 98.014301 
L 130.274171 99.074961 
L 129.213511 100.135622 
z
" clip-path="url(#p4ca81b4912)" style="fill: #88ccee; fill-opacity: 0.6; stroke: #ffffff; stroke-opacity: 0.6; stroke-width: 0.339411"/>
    <path d="M 136.884858 92.875163 
L 137.945519 91.814503 
L 139.006179 92.875163 
L 140.066839 91.814503 
L 139.006179 90.753843 
L 140.066839 89.693183 
L 139.006179 88.632523 
L 137.945519 89.693183 
L 136.884858 88.632523 
L 135.824198 89.693183 
L 136.884858 90.753843 
L 135.824198 91.814503 
z
" clip-path="url(#p4ca81b4912)" style="fill: #88ccee; fill-opacity: 0.6; stroke: #ffffff; stroke-opacity: 0.6; stroke-width: 0.339411"/>
    <path d="M 158.265484 116.511477 
L 159.326144 115.450817 
L 160.386805 116.511477 
L 161.447465 115.450817 
L 160.386805 114.390156 
L 161.447465 113.329496 
L 160.386805 112.268836 
L 159.326144 113.329496 
L 158.265484 112.268836 
L 157.204824 113.329496 
L 158.265484 114.390156 
L 157.204824 115.450817 
z
" clip-path="url(#p4ca81b4912)" style="fill: #88ccee; fill-opacity: 0.6; stroke: #ffffff; stroke-opacity: 0.6; stroke-width: 0.339411"/>
    <path d="M 129.180037 106.662112 
L 130.240697 105.601452 
L 131.301357 106.662112 
L 132.362018 105.601452 
L 131.301357 104.540792 
L 132.362018 103.480132 
L 131.301357 102.419471 
L 130.240697 103.480132 
L 129.180037 102.419471 
L 128.119377 103.480132 
L 129.180037 104.540792 
L 128.119377 105.601452 
z
" clip-path="url(#p4ca81b4912)" style="fill: #88ccee; fill-opacity: 0.6; stroke: #ffffff; stroke-opacity: 0.6; stroke-width: 0.339411"/>
    <path d="M 170.580276 167.203813 
L 171.640936 166.143153 
L 172.701597 167.203813 
L 173.762257 166.143153 
L 172.701597 165.082493 
L 173.762257 164.021833 
L 172.701597 162.961173 
L 171.640936 164.021833 
L 170.580276 162.961173 
L 169.519616 164.021833 
L 170.580276 165.082493 
L 169.519616 166.143153 
z
" clip-path="url(#p4ca81b4912)" style="fill: #88ccee; fill-opacity: 0.6; stroke: #ffffff; stroke-opacity: 0.6; stroke-width: 0.339411"/>
    <path d="M 159.025657 167.894238 
L 160.086317 166.833578 
L 161.146977 167.894238 
L 162.207637 166.833578 
L 161.146977 165.772918 
L 162.207637 164.712258 
L 161.146977 163.651598 
L 160.086317 164.712258 
L 159.025657 163.651598 
L 157.964997 164.712258 
L 159.025657 165.772918 
L 157.964997 166.833578 
z
" clip-path="url(#p4ca81b4912)" style="fill: #88ccee; fill-opacity: 0.6; stroke: #ffffff; stroke-opacity: 0.6; stroke-width: 0.339411"/>
    <path d="M 199.591367 109.313329 
L 200.652027 108.252669 
L 201.712687 109.313329 
L 202.773347 108.252669 
L 201.712687 107.192009 
L 202.773347 106.131349 
L 201.712687 105.070689 
L 200.652027 106.131349 
L 199.591367 105.070689 
L 198.530706 106.131349 
L 199.591367 107.192009 
L 198.530706 108.252669 
z
" clip-path="url(#p4ca81b4912)" style="fill: #88ccee; fill-opacity: 0.6; stroke: #ffffff; stroke-opacity: 0.6; stroke-width: 0.339411"/>
    <path d="M 139.035381 128.428162 
L 140.096041 127.367502 
L 141.156701 128.428162 
L 142.217361 127.367502 
L 141.156701 126.306842 
L 142.217361 125.246181 
L 141.156701 124.185521 
L 140.096041 125.246181 
L 139.035381 124.185521 
L 137.97472 125.246181 
L 139.035381 126.306842 
L 137.97472 127.367502 
z
" clip-path="url(#p4ca81b4912)" style="fill: #88ccee; fill-opacity: 0.6; stroke: #ffffff; stroke-opacity: 0.6; stroke-width: 0.339411"/>
    <path d="M 174.385745 151.49917 
L 175.446405 150.43851 
L 176.507065 151.49917 
L 177.567725 150.43851 
L 176.507065 149.377849 
L 177.567725 148.317189 
L 176.507065 147.256529 
L 175.446405 148.317189 
L 174.385745 147.256529 
L 173.325085 148.317189 
L 174.385745 149.377849 
L 173.325085 150.43851 
z
" clip-path="url(#p4ca81b4912)" style="fill: #88ccee; fill-opacity: 0.6; stroke: #ffffff; stroke-opacity: 0.6; stroke-width: 0.339411"/>
    <path d="M 142.010686 84.260604 
L 143.071346 83.199944 
L 144.132006 84.260604 
L 145.192666 83.199944 
L 144.132006 82.139284 
L 145.192666 81.078623 
L 144.132006 80.017963 
L 143.071346 81.078623 
L 142.010686 80.017963 
L 140.950026 81.078623 
L 142.010686 82.139284 
L 140.950026 83.199944 
z
" clip-path="url(#p4ca81b4912)" style="fill: #88ccee; fill-opacity: 0.6; stroke: #ffffff; stroke-opacity: 0.6; stroke-width: 0.339411"/>
    <path d="M 194.13774 161.938952 
L 195.1984 160.878292 
L 196.25906 161.938952 
L 197.319721 160.878292 
L 196.25906 159.817632 
L 197.319721 158.756971 
L 196.25906 157.696311 
L 195.1984 158.756971 
L 194.13774 157.696311 
L 193.07708 158.756971 
L 194.13774 159.817632 
L 193.07708 160.878292 
z
" clip-path="url(#p4ca81b4912)" style="fill: #88ccee; fill-opacity: 0.6; stroke: #ffffff; stroke-opacity: 0.6; stroke-width: 0.339411"/>
    <path d="M 144.600243 167.63743 
L 145.660903 166.576769 
L 146.721563 167.63743 
L 147.782223 166.576769 
L 146.721563 165.516109 
L 147.782223 164.455449 
L 146.721563 163.394789 
L 145.660903 164.455449 
L 144.600243 163.394789 
L 143.539583 164.455449 
L 144.600243 165.516109 
L 143.539583 166.576769 
z
" clip-path="url(#p4ca81b4912)" style="fill: #88ccee; fill-opacity: 0.6; stroke: #ffffff; stroke-opacity: 0.6; stroke-width: 0.339411"/>
    <path d="M 125.584639 125.15619 
L 126.645299 124.09553 
L 127.70596 125.15619 
L 128.76662 124.09553 
L 127.70596 123.03487 
L 128.76662 121.97421 
L 127.70596 120.91355 
L 126.645299 121.97421 
L 125.584639 120.91355 
L 124.523979 121.97421 
L 125.584639 123.03487 
L 124.523979 124.09553 
z
" clip-path="url(#p4ca81b4912)" style="fill: #88ccee; fill-opacity: 0.6; stroke: #ffffff; stroke-opacity: 0.6; stroke-width: 0.339411"/>
    <path d="M 188.418559 92.232881 
L 189.479219 91.172221 
L 190.539879 92.232881 
L 191.600539 91.172221 
L 190.539879 90.111561 
L 191.600539 89.050901 
L 190.539879 87.990241 
L 189.479219 89.050901 
L 188.418559 87.990241 
L 187.357899 89.050901 
L 188.418559 90.111561 
L 187.357899 91.172221 
z
" clip-path="url(#p4ca81b4912)" style="fill: #88ccee; fill-opacity: 0.6; stroke: #ffffff; stroke-opacity: 0.6; stroke-width: 0.339411"/>
    <path d="M 177.917208 157.340027 
L 178.977868 156.279366 
L 180.038528 157.340027 
L 181.099189 156.279366 
L 180.038528 155.218706 
L 181.099189 154.158046 
L 180.038528 153.097386 
L 178.977868 154.158046 
L 177.917208 153.097386 
L 176.856548 154.158046 
L 177.917208 155.218706 
L 176.856548 156.279366 
z
" clip-path="url(#p4ca81b4912)" style="fill: #88ccee; fill-opacity: 0.6; stroke: #ffffff; stroke-opacity: 0.6; stroke-width: 0.339411"/>
    <path d="M 178.623692 100.766486 
L 179.684352 99.705826 
L 180.745013 100.766486 
L 181.805673 99.705826 
L 180.745013 98.645165 
L 181.805673 97.584505 
L 180.745013 96.523845 
L 179.684352 97.584505 
L 178.623692 96.523845 
L 177.563032 97.584505 
L 178.623692 98.645165 
L 177.563032 99.705826 
z
" clip-path="url(#p4ca81b4912)" style="fill: #88ccee; fill-opacity: 0.6; stroke: #ffffff; stroke-opacity: 0.6; stroke-width: 0.339411"/>
    <path d="M 138.335826 145.396332 
L 139.396486 144.335672 
L 140.457146 145.396332 
L 141.517806 144.335672 
L 140.457146 143.275011 
L 141.517806 142.214351 
L 140.457146 141.153691 
L 139.396486 142.214351 
L 138.335826 141.153691 
L 137.275166 142.214351 
L 138.335826 143.275011 
L 137.275166 144.335672 
z
" clip-path="url(#p4ca81b4912)" style="fill: #88ccee; fill-opacity: 0.6; stroke: #ffffff; stroke-opacity: 0.6; stroke-width: 0.339411"/>
    <path d="M 140.491045 99.166538 
L 141.551705 98.105877 
L 142.612365 99.166538 
L 143.673025 98.105877 
L 142.612365 97.045217 
L 143.673025 95.984557 
L 142.612365 94.923897 
L 141.551705 95.984557 
L 140.491045 94.923897 
L 139.430385 95.984557 
L 140.491045 97.045217 
L 139.430385 98.105877 
z
" clip-path="url(#p4ca81b4912)" style="fill: #88ccee; fill-opacity: 0.6; stroke: #ffffff; stroke-opacity: 0.6; stroke-width: 0.339411"/>
    <path d="M 174.970064 124.217495 
L 176.030724 123.156835 
L 177.091384 124.217495 
L 178.152044 123.156835 
L 177.091384 122.096175 
L 178.152044 121.035515 
L 177.091384 119.974855 
L 176.030724 121.035515 
L 174.970064 119.974855 
L 173.909404 121.035515 
L 174.970064 122.096175 
L 173.909404 123.156835 
z
" clip-path="url(#p4ca81b4912)" style="fill: #88ccee; fill-opacity: 0.6; stroke: #ffffff; stroke-opacity: 0.6; stroke-width: 0.339411"/>
    <path d="M 177.033251 157.237755 
L 178.093911 156.177095 
L 179.154571 157.237755 
L 180.215231 156.177095 
L 179.154571 155.116435 
L 180.215231 154.055775 
L 179.154571 152.995115 
L 178.093911 154.055775 
L 177.033251 152.995115 
L 175.972591 154.055775 
L 177.033251 155.116435 
L 175.972591 156.177095 
z
" clip-path="url(#p4ca81b4912)" style="fill: #88ccee; fill-opacity: 0.6; stroke: #ffffff; stroke-opacity: 0.6; stroke-width: 0.339411"/>
    <path d="M 164.312014 172.365104 
L 165.372674 171.304444 
L 166.433334 172.365104 
L 167.493995 171.304444 
L 166.433334 170.243784 
L 167.493995 169.183124 
L 166.433334 168.122464 
L 165.372674 169.183124 
L 164.312014 168.122464 
L 163.251354 169.183124 
L 164.312014 170.243784 
L 163.251354 171.304444 
z
" clip-path="url(#p4ca81b4912)" style="fill: #88ccee; fill-opacity: 0.6; stroke: #ffffff; stroke-opacity: 0.6; stroke-width: 0.339411"/>
    <path d="M 150.477053 140.237157 
L 151.537713 139.176497 
L 152.598373 140.237157 
L 153.659033 139.176497 
L 152.598373 138.115837 
L 153.659033 137.055176 
L 152.598373 135.994516 
L 151.537713 137.055176 
L 150.477053 135.994516 
L 149.416393 137.055176 
L 150.477053 138.115837 
L 149.416393 139.176497 
z
" clip-path="url(#p4ca81b4912)" style="fill: #88ccee; fill-opacity: 0.6; stroke: #ffffff; stroke-opacity: 0.6; stroke-width: 0.339411"/>
    <path d="M 167.455096 172.49391 
L 168.515756 171.43325 
L 169.576416 172.49391 
L 170.637076 171.43325 
L 169.576416 170.37259 
L 170.637076 169.311929 
L 169.576416 168.251269 
L 168.515756 169.311929 
L 167.455096 168.251269 
L 166.394435 169.311929 
L 167.455096 170.37259 
L 166.394435 171.43325 
z
" clip-path="url(#p4ca81b4912)" style="fill: #88ccee; fill-opacity: 0.6; stroke: #ffffff; stroke-opacity: 0.6; stroke-width: 0.339411"/>
   </g>
   <g id="matplotlib.axis_1">
    <g id="xtick_1">
     <g id="line2d_1">
      <defs>
       <path id="md2c5171860" d="M 0 0 
L 0 8 
" style="stroke: #000000"/>
      </defs>
      <g>
       <use xlink:href="#md2c5171860" x="194.122238" y="192.727559" style="stroke: #000000"/>
      </g>
     </g>
     <g id="text_1">
      <!-- 10 -->
      <g transform="translate(186.487238 213.345684) scale(0.12 -0.12)">
       <defs>
        <path id="DejaVuSans-31" d="M 794 531 
L 1825 531 
L 1825 4091 
L 703 3866 
L 703 4441 
L 1819 4666 
L 2450 4666 
L 2450 531 
L 3481 531 
L 3481 0 
L 794 0 
L 794 531 
z
" transform="scale(0.015625)"/>
        <path id="DejaVuSans-30" d="M 2034 4250 
Q 1547 4250 1301 3770 
Q 1056 3291 1056 2328 
Q 1056 1369 1301 889 
Q 1547 409 2034 409 
Q 2525 409 2770 889 
Q 3016 1369 3016 2328 
Q 3016 3291 2770 3770 
Q 2525 4250 2034 4250 
z
M 2034 4750 
Q 2819 4750 3233 4129 
Q 3647 3509 3647 2328 
Q 3647 1150 3233 529 
Q 2819 -91 2034 -91 
Q 1250 -91 836 529 
Q 422 1150 422 2328 
Q 422 3509 836 4129 
Q 1250 4750 2034 4750 
z
" transform="scale(0.015625)"/>
       </defs>
       <use xlink:href="#DejaVuSans-31"/>
       <use xlink:href="#DejaVuSans-30" x="63.623047"/>
      </g>
     </g>
    </g>
    <g id="text_2">
     <!-- UMAP 1 -->
     <g transform="translate(119.332842 228.959434) scale(0.12 -0.12)">
      <defs>
       <path id="DejaVuSans-55" d="M 556 4666 
L 1191 4666 
L 1191 1831 
Q 1191 1081 1462 751 
Q 1734 422 2344 422 
Q 2950 422 3222 751 
Q 3494 1081 3494 1831 
L 3494 4666 
L 4128 4666 
L 4128 1753 
Q 4128 841 3676 375 
Q 3225 -91 2344 -91 
Q 1459 -91 1007 375 
Q 556 841 556 1753 
L 556 4666 
z
" transform="scale(0.015625)"/>
       <path id="DejaVuSans-4d" d="M 628 4666 
L 1569 4666 
L 2759 1491 
L 3956 4666 
L 4897 4666 
L 4897 0 
L 4281 0 
L 4281 4097 
L 3078 897 
L 2444 897 
L 1241 4097 
L 1241 0 
L 628 0 
L 628 4666 
z
" transform="scale(0.015625)"/>
       <path id="DejaVuSans-41" d="M 2188 4044 
L 1331 1722 
L 3047 1722 
L 2188 4044 
z
M 1831 4666 
L 2547 4666 
L 4325 0 
L 3669 0 
L 3244 1197 
L 1141 1197 
L 716 0 
L 50 0 
L 1831 4666 
z
" transform="scale(0.015625)"/>
       <path id="DejaVuSans-50" d="M 1259 4147 
L 1259 2394 
L 2053 2394 
Q 2494 2394 2734 2622 
Q 2975 2850 2975 3272 
Q 2975 3691 2734 3919 
Q 2494 4147 2053 4147 
L 1259 4147 
z
M 628 4666 
L 2053 4666 
Q 2838 4666 3239 4311 
Q 3641 3956 3641 3272 
Q 3641 2581 3239 2228 
Q 2838 1875 2053 1875 
L 1259 1875 
L 1259 0 
L 628 0 
L 628 4666 
z
" transform="scale(0.015625)"/>
       <path id="DejaVuSans-20" transform="scale(0.015625)"/>
      </defs>
      <use xlink:href="#DejaVuSans-55"/>
      <use xlink:href="#DejaVuSans-4d" x="73.193359"/>
      <use xlink:href="#DejaVuSans-41" x="159.472656"/>
      <use xlink:href="#DejaVuSans-50" x="227.880859"/>
      <use xlink:href="#DejaVuSans-20" x="288.183594"/>
      <use xlink:href="#DejaVuSans-31" x="319.970703"/>
     </g>
    </g>
   </g>
   <g id="matplotlib.axis_2">
    <g id="ytick_1">
     <g id="line2d_2">
      <defs>
       <path id="mdce242090c" d="M 0 0 
L -8 0 
" style="stroke: #000000"/>
      </defs>
      <g>
       <use xlink:href="#mdce242090c" x="49.58375" y="48.189071" style="stroke: #000000"/>
      </g>
     </g>
     <g id="text_3">
      <!-- 10 -->
      <g transform="translate(22.81375 52.748134) scale(0.12 -0.12)">
       <use xlink:href="#DejaVuSans-31"/>
       <use xlink:href="#DejaVuSans-30" x="63.623047"/>
      </g>
     </g>
    </g>
    <g id="text_4">
     <!-- UMAP 2 -->
     <g transform="translate(16.318125 122.978467) rotate(-90) scale(0.12 -0.12)">
      <defs>
       <path id="DejaVuSans-32" d="M 1228 531 
L 3431 531 
L 3431 0 
L 469 0 
L 469 531 
Q 828 903 1448 1529 
Q 2069 2156 2228 2338 
Q 2531 2678 2651 2914 
Q 2772 3150 2772 3378 
Q 2772 3750 2511 3984 
Q 2250 4219 1831 4219 
Q 1534 4219 1204 4116 
Q 875 4013 500 3803 
L 500 4441 
Q 881 4594 1212 4672 
Q 1544 4750 1819 4750 
Q 2544 4750 2975 4387 
Q 3406 4025 3406 3419 
Q 3406 3131 3298 2873 
Q 3191 2616 2906 2266 
Q 2828 2175 2409 1742 
Q 1991 1309 1228 531 
z
" transform="scale(0.015625)"/>
      </defs>
      <use xlink:href="#DejaVuSans-55"/>
      <use xlink:href="#DejaVuSans-4d" x="73.193359"/>
      <use xlink:href="#DejaVuSans-41" x="159.472656"/>
      <use xlink:href="#DejaVuSans-50" x="227.880859"/>
      <use xlink:href="#DejaVuSans-20" x="288.183594"/>
      <use xlink:href="#DejaVuSans-32" x="319.970703"/>
     </g>
    </g>
   </g>
   <g id="patch_3">
    <path d="M 49.58375 192.727559 
L 49.58375 7.2 
" style="fill: none; stroke: #000000; stroke-width: 2; stroke-linejoin: miter; stroke-linecap: square"/>
   </g>
   <g id="patch_4">
    <path d="M 49.58375 192.727559 
L 235.111309 192.727559 
" style="fill: none; stroke: #000000; stroke-width: 2; stroke-linejoin: miter; stroke-linecap: square"/>
   </g>
  </g>
 </g>
 <defs>
  <clipPath id="p4ca81b4912">
   <rect x="49.58375" y="7.2" width="185.527559" height="185.527559"/>
  </clipPath>
 </defs>
</svg>
