<?xml version="1.0" encoding="utf-8" standalone="no"?>
<!DOCTYPE svg PUBLIC "-//W3C//DTD SVG 1.1//EN"
  "http://www.w3.org/Graphics/SVG/1.1/DTD/svg11.dtd">
<svg xmlns:xlink="http://www.w3.org/1999/xlink" width="477.555444pt" height="348.938719pt" viewBox="0 0 477.555444 348.938719" xmlns="http://www.w3.org/2000/svg" version="1.1">
 <metadata>
  <rdf:RDF xmlns:dc="http://purl.org/dc/elements/1.1/" xmlns:cc="http://creativecommons.org/ns#" xmlns:rdf="http://www.w3.org/1999/02/22-rdf-syntax-ns#">
   <cc:Work>
    <dc:type rdf:resource="http://purl.org/dc/dcmitype/StillImage"/>
    <dc:date>2024-07-08T15:51:21.431002</dc:date>
    <dc:format>image/svg+xml</dc:format>
    <dc:creator>
     <cc:Agent>
      <dc:title>Matplotlib v3.8.4, https://matplotlib.org/</dc:title>
     </cc:Agent>
    </dc:creator>
   </cc:Work>
  </rdf:RDF>
 </metadata>
 <defs>
  <style type="text/css">*{stroke-linejoin: round; stroke-linecap: butt}</style>
 </defs>
 <g id="figure_1">
  <g id="patch_1">
   <path d="M 0 348.938719 
L 477.555444 348.938719 
L 477.555444 -0 
L 0 -0 
L 0 348.938719 
z
" style="fill: none"/>
  </g>
  <g id="axes_1">
   <g id="patch_2">
    <path d="M 70.809844 295.268719 
L 427.929844 295.268719 
L 427.929844 29.156719 
L 70.809844 29.156719 
L 70.809844 295.268719 
z
" style="fill: none"/>
   </g>
   <g id="PathCollection_1">
    <defs>
     <path id="C0_0_7a7c73a095" d="M 0 1.5 
C 0.397805 1.5 0.77937 1.341951 1.06066 1.06066 
C 1.341951 0.77937 1.5 0.397805 1.5 -0 
C 1.5 -0.397805 1.341951 -0.77937 1.06066 -1.06066 
C 0.77937 -1.341951 0.397805 -1.5 0 -1.5 
C -0.397805 -1.5 -0.77937 -1.341951 -1.06066 -1.06066 
C -1.341951 -0.77937 -1.5 -0.397805 -1.5 0 
C -1.5 0.397805 -1.341951 0.77937 -1.06066 1.06066 
C -0.77937 1.341951 -0.397805 1.5 0 1.5 
z
"/>
    </defs>
    <g clip-path="url(#pe241886b01)">
     <use xlink:href="#C0_0_7a7c73a095" x="312.440438" y="118.61152" style="fill: #e6194b; fill-opacity: 0.8; stroke: #e6194b; stroke-opacity: 0.8"/>
    </g>
    <g clip-path="url(#pe241886b01)">
     <use xlink:href="#C0_0_7a7c73a095" x="325.805662" y="213.938127" style="fill: #e6194b; fill-opacity: 0.8; stroke: #e6194b; stroke-opacity: 0.8"/>
    </g>
    <g clip-path="url(#pe241886b01)">
     <use xlink:href="#C0_0_7a7c73a095" x="340.064712" y="185.120432" style="fill: #e6194b; fill-opacity: 0.8; stroke: #e6194b; stroke-opacity: 0.8"/>
    </g>
    <g clip-path="url(#pe241886b01)">
     <use xlink:href="#C0_0_7a7c73a095" x="374.599703" y="191.770638" style="fill: #e6194b; fill-opacity: 0.8; stroke: #e6194b; stroke-opacity: 0.8"/>
    </g>
    <g clip-path="url(#pe241886b01)">
     <use xlink:href="#C0_0_7a7c73a095" x="298.84232" y="41.252719" style="fill: #911eb4; fill-opacity: 0.8; stroke: #911eb4; stroke-opacity: 0.8"/>
    </g>
    <g clip-path="url(#pe241886b01)">
     <use xlink:href="#C0_0_7a7c73a095" x="184.591174" y="139.395218" style="fill: #911eb4; fill-opacity: 0.8; stroke: #911eb4; stroke-opacity: 0.8"/>
    </g>
    <g clip-path="url(#pe241886b01)">
     <use xlink:href="#C0_0_7a7c73a095" x="189.698203" y="186.855714" style="fill: #911eb4; fill-opacity: 0.8; stroke: #911eb4; stroke-opacity: 0.8"/>
    </g>
    <g clip-path="url(#pe241886b01)">
     <use xlink:href="#C0_0_7a7c73a095" x="296.811175" y="51.919777" style="fill: #911eb4; fill-opacity: 0.8; stroke: #911eb4; stroke-opacity: 0.8"/>
    </g>
    <g clip-path="url(#pe241886b01)">
     <use xlink:href="#C0_0_7a7c73a095" x="251.857873" y="181.59903" style="fill: #911eb4; fill-opacity: 0.8; stroke: #911eb4; stroke-opacity: 0.8"/>
    </g>
    <g clip-path="url(#pe241886b01)">
     <use xlink:href="#C0_0_7a7c73a095" x="192.295986" y="194.91167" style="fill: #911eb4; fill-opacity: 0.8; stroke: #911eb4; stroke-opacity: 0.8"/>
    </g>
    <g clip-path="url(#pe241886b01)">
     <use xlink:href="#C0_0_7a7c73a095" x="304.902168" y="143.819851" style="fill: #42d4f4; fill-opacity: 0.8; stroke: #42d4f4; stroke-opacity: 0.8"/>
    </g>
    <g clip-path="url(#pe241886b01)">
     <use xlink:href="#C0_0_7a7c73a095" x="259.119689" y="73.702462" style="fill: #42d4f4; fill-opacity: 0.8; stroke: #42d4f4; stroke-opacity: 0.8"/>
    </g>
    <g clip-path="url(#pe241886b01)">
     <use xlink:href="#C0_0_7a7c73a095" x="201.488409" y="126.603067" style="fill: #42d4f4; fill-opacity: 0.8; stroke: #42d4f4; stroke-opacity: 0.8"/>
    </g>
    <g clip-path="url(#pe241886b01)">
     <use xlink:href="#C0_0_7a7c73a095" x="203.932182" y="106.969047" style="fill: #42d4f4; fill-opacity: 0.8; stroke: #42d4f4; stroke-opacity: 0.8"/>
    </g>
    <g clip-path="url(#pe241886b01)">
     <use xlink:href="#C0_0_7a7c73a095" x="246.012451" y="178.432089" style="fill: #42d4f4; fill-opacity: 0.8; stroke: #42d4f4; stroke-opacity: 0.8"/>
    </g>
    <g clip-path="url(#pe241886b01)">
     <use xlink:href="#C0_0_7a7c73a095" x="117.608499" y="185.347382" style="fill: #42d4f4; fill-opacity: 0.8; stroke: #42d4f4; stroke-opacity: 0.8"/>
    </g>
    <g clip-path="url(#pe241886b01)">
     <use xlink:href="#C0_0_7a7c73a095" x="124.21818" y="185.102676" style="fill: #42d4f4; fill-opacity: 0.8; stroke: #42d4f4; stroke-opacity: 0.8"/>
    </g>
    <g clip-path="url(#pe241886b01)">
     <use xlink:href="#C0_0_7a7c73a095" x="154.346561" y="114.969589" style="fill: #42d4f4; fill-opacity: 0.8; stroke: #42d4f4; stroke-opacity: 0.8"/>
    </g>
    <g clip-path="url(#pe241886b01)">
     <use xlink:href="#C0_0_7a7c73a095" x="113.774468" y="214.181452" style="fill: #42d4f4; fill-opacity: 0.8; stroke: #42d4f4; stroke-opacity: 0.8"/>
    </g>
    <g clip-path="url(#pe241886b01)">
     <use xlink:href="#C0_0_7a7c73a095" x="87.042571" y="208.817997" style="fill: #42d4f4; fill-opacity: 0.8; stroke: #42d4f4; stroke-opacity: 0.8"/>
    </g>
    <g clip-path="url(#pe241886b01)">
     <use xlink:href="#C0_0_7a7c73a095" x="157.232264" y="142.984238" style="fill: #f032e6; fill-opacity: 0.8; stroke: #f032e6; stroke-opacity: 0.8"/>
    </g>
    <g clip-path="url(#pe241886b01)">
     <use xlink:href="#C0_0_7a7c73a095" x="117.349222" y="152.130986" style="fill: #bfef45; fill-opacity: 0.8; stroke: #bfef45; stroke-opacity: 0.8"/>
    </g>
    <g clip-path="url(#pe241886b01)">
     <use xlink:href="#C0_0_7a7c73a095" x="200.375485" y="170.213091" style="fill: #bfef45; fill-opacity: 0.8; stroke: #bfef45; stroke-opacity: 0.8"/>
    </g>
    <g clip-path="url(#pe241886b01)">
     <use xlink:href="#C0_0_7a7c73a095" x="98.553486" y="197.39892" style="fill: #bfef45; fill-opacity: 0.8; stroke: #bfef45; stroke-opacity: 0.8"/>
    </g>
    <g clip-path="url(#pe241886b01)">
     <use xlink:href="#C0_0_7a7c73a095" x="378.294783" y="111.75183" style="fill: #dcbeff; fill-opacity: 0.8; stroke: #dcbeff; stroke-opacity: 0.8"/>
    </g>
    <g clip-path="url(#pe241886b01)">
     <use xlink:href="#C0_0_7a7c73a095" x="404.604964" y="190.275893" style="fill: #dcbeff; fill-opacity: 0.8; stroke: #dcbeff; stroke-opacity: 0.8"/>
    </g>
    <g clip-path="url(#pe241886b01)">
     <use xlink:href="#C0_0_7a7c73a095" x="281.901797" y="129.394212" style="fill: #dcbeff; fill-opacity: 0.8; stroke: #dcbeff; stroke-opacity: 0.8"/>
    </g>
    <g clip-path="url(#pe241886b01)">
     <use xlink:href="#C0_0_7a7c73a095" x="213.840289" y="165.841371" style="fill: #dcbeff; fill-opacity: 0.8; stroke: #dcbeff; stroke-opacity: 0.8"/>
    </g>
    <g clip-path="url(#pe241886b01)">
     <use xlink:href="#C0_0_7a7c73a095" x="313.140759" y="78.476623" style="fill: #dcbeff; fill-opacity: 0.8; stroke: #dcbeff; stroke-opacity: 0.8"/>
    </g>
    <g clip-path="url(#pe241886b01)">
     <use xlink:href="#C0_0_7a7c73a095" x="193.661192" y="173.029619" style="fill: #dcbeff; fill-opacity: 0.8; stroke: #dcbeff; stroke-opacity: 0.8"/>
    </g>
    <g clip-path="url(#pe241886b01)">
     <use xlink:href="#C0_0_7a7c73a095" x="389.9383" y="242.97703" style="fill: #dcbeff; fill-opacity: 0.8; stroke: #dcbeff; stroke-opacity: 0.8"/>
    </g>
    <g clip-path="url(#pe241886b01)">
     <use xlink:href="#C0_0_7a7c73a095" x="370.157712" y="257.834033" style="fill: #dcbeff; fill-opacity: 0.8; stroke: #dcbeff; stroke-opacity: 0.8"/>
    </g>
    <g clip-path="url(#pe241886b01)">
     <use xlink:href="#C0_0_7a7c73a095" x="236.051619" y="144.843188" style="fill: #dcbeff; fill-opacity: 0.8; stroke: #dcbeff; stroke-opacity: 0.8"/>
    </g>
    <g clip-path="url(#pe241886b01)">
     <use xlink:href="#C0_0_7a7c73a095" x="208.646935" y="144.933533" style="fill: #dcbeff; fill-opacity: 0.8; stroke: #dcbeff; stroke-opacity: 0.8"/>
    </g>
    <g clip-path="url(#pe241886b01)">
     <use xlink:href="#C0_0_7a7c73a095" x="285.555833" y="157.101278" style="fill: #dcbeff; fill-opacity: 0.8; stroke: #dcbeff; stroke-opacity: 0.8"/>
    </g>
    <g clip-path="url(#pe241886b01)">
     <use xlink:href="#C0_0_7a7c73a095" x="407.981102" y="219.29515" style="fill: #dcbeff; fill-opacity: 0.8; stroke: #dcbeff; stroke-opacity: 0.8"/>
    </g>
    <g clip-path="url(#pe241886b01)">
     <use xlink:href="#C0_0_7a7c73a095" x="121.946197" y="181.63891" style="fill: #dcbeff; fill-opacity: 0.8; stroke: #dcbeff; stroke-opacity: 0.8"/>
    </g>
    <g clip-path="url(#pe241886b01)">
     <use xlink:href="#C0_0_7a7c73a095" x="213.341678" y="277.485043" style="fill: #dcbeff; fill-opacity: 0.8; stroke: #dcbeff; stroke-opacity: 0.8"/>
    </g>
    <g clip-path="url(#pe241886b01)">
     <use xlink:href="#C0_0_7a7c73a095" x="411.697116" y="235.695749" style="fill: #dcbeff; fill-opacity: 0.8; stroke: #dcbeff; stroke-opacity: 0.8"/>
    </g>
    <g clip-path="url(#pe241886b01)">
     <use xlink:href="#C0_0_7a7c73a095" x="399.789595" y="254.786247" style="fill: #dcbeff; fill-opacity: 0.8; stroke: #dcbeff; stroke-opacity: 0.8"/>
    </g>
    <g clip-path="url(#pe241886b01)">
     <use xlink:href="#C0_0_7a7c73a095" x="127.069944" y="178.160016" style="fill: #dcbeff; fill-opacity: 0.8; stroke: #dcbeff; stroke-opacity: 0.8"/>
    </g>
    <g clip-path="url(#pe241886b01)">
     <use xlink:href="#C0_0_7a7c73a095" x="241.973231" y="283.172719" style="fill: #dcbeff; fill-opacity: 0.8; stroke: #dcbeff; stroke-opacity: 0.8"/>
    </g>
    <g clip-path="url(#pe241886b01)">
     <use xlink:href="#C0_0_7a7c73a095" x="397.019462" y="231.048809" style="fill: #dcbeff; fill-opacity: 0.8; stroke: #dcbeff; stroke-opacity: 0.8"/>
    </g>
    <g clip-path="url(#pe241886b01)">
     <use xlink:href="#C0_0_7a7c73a095" x="262.38578" y="179.749369" style="fill: #dcbeff; fill-opacity: 0.8; stroke: #dcbeff; stroke-opacity: 0.8"/>
    </g>
    <g clip-path="url(#pe241886b01)">
     <use xlink:href="#C0_0_7a7c73a095" x="137.316714" y="192.820127" style="fill: #dcbeff; fill-opacity: 0.8; stroke: #dcbeff; stroke-opacity: 0.8"/>
    </g>
    <g clip-path="url(#pe241886b01)">
     <use xlink:href="#C0_0_7a7c73a095" x="120.841223" y="251.55399" style="fill: #9a6324; fill-opacity: 0.8; stroke: #9a6324; stroke-opacity: 0.8"/>
    </g>
    <g clip-path="url(#pe241886b01)">
     <use xlink:href="#C0_0_7a7c73a095" x="284.908842" y="114.272732" style="fill: #fffac8; fill-opacity: 0.8; stroke: #fffac8; stroke-opacity: 0.8"/>
    </g>
    <g clip-path="url(#pe241886b01)">
     <use xlink:href="#C0_0_7a7c73a095" x="137.115019" y="243.022323" style="fill: #800000; fill-opacity: 0.8; stroke: #800000; stroke-opacity: 0.8"/>
    </g>
    <g clip-path="url(#pe241886b01)">
     <use xlink:href="#C0_0_7a7c73a095" x="151.552218" y="233.042753" style="fill: #800000; fill-opacity: 0.8; stroke: #800000; stroke-opacity: 0.8"/>
    </g>
   </g>
   <g id="matplotlib.axis_1">
    <g id="xtick_1">
     <g id="line2d_1">
      <defs>
       <path id="m72ed6e3a90" d="M 0 0 
L 0 8 
" style="stroke: #000000; stroke-width: 3"/>
      </defs>
      <g>
       <use xlink:href="#m72ed6e3a90" x="87.136013" y="295.268719" style="stroke: #000000; stroke-width: 3"/>
      </g>
     </g>
     <g id="text_1">
      <!-- −15 -->
      <g transform="translate(71.307497 318.166375) scale(0.15 -0.15)">
       <defs>
        <path id="DejaVuSans-2212" d="M 678 2272 
L 4684 2272 
L 4684 1741 
L 678 1741 
L 678 2272 
z
" transform="scale(0.015625)"/>
        <path id="DejaVuSans-31" d="M 794 531 
L 1825 531 
L 1825 4091 
L 703 3866 
L 703 4441 
L 1819 4666 
L 2450 4666 
L 2450 531 
L 3481 531 
L 3481 0 
L 794 0 
L 794 531 
z
" transform="scale(0.015625)"/>
        <path id="DejaVuSans-35" d="M 691 4666 
L 3169 4666 
L 3169 4134 
L 1269 4134 
L 1269 2991 
Q 1406 3038 1543 3061 
Q 1681 3084 1819 3084 
Q 2600 3084 3056 2656 
Q 3513 2228 3513 1497 
Q 3513 744 3044 326 
Q 2575 -91 1722 -91 
Q 1428 -91 1123 -41 
Q 819 9 494 109 
L 494 744 
Q 775 591 1075 516 
Q 1375 441 1709 441 
Q 2250 441 2565 725 
Q 2881 1009 2881 1497 
Q 2881 1984 2565 2268 
Q 2250 2553 1709 2553 
Q 1456 2553 1204 2497 
Q 953 2441 691 2322 
L 691 4666 
z
" transform="scale(0.015625)"/>
       </defs>
       <use xlink:href="#DejaVuSans-2212"/>
       <use xlink:href="#DejaVuSans-31" x="83.789062"/>
       <use xlink:href="#DejaVuSans-35" x="147.412109"/>
      </g>
     </g>
    </g>
    <g id="xtick_2">
     <g id="line2d_2">
      <g>
       <use xlink:href="#m72ed6e3a90" x="138.66003" y="295.268719" style="stroke: #000000; stroke-width: 3"/>
      </g>
     </g>
     <g id="text_2">
      <!-- −10 -->
      <g transform="translate(122.831515 318.166375) scale(0.15 -0.15)">
       <defs>
        <path id="DejaVuSans-30" d="M 2034 4250 
Q 1547 4250 1301 3770 
Q 1056 3291 1056 2328 
Q 1056 1369 1301 889 
Q 1547 409 2034 409 
Q 2525 409 2770 889 
Q 3016 1369 3016 2328 
Q 3016 3291 2770 3770 
Q 2525 4250 2034 4250 
z
M 2034 4750 
Q 2819 4750 3233 4129 
Q 3647 3509 3647 2328 
Q 3647 1150 3233 529 
Q 2819 -91 2034 -91 
Q 1250 -91 836 529 
Q 422 1150 422 2328 
Q 422 3509 836 4129 
Q 1250 4750 2034 4750 
z
" transform="scale(0.015625)"/>
       </defs>
       <use xlink:href="#DejaVuSans-2212"/>
       <use xlink:href="#DejaVuSans-31" x="83.789062"/>
       <use xlink:href="#DejaVuSans-30" x="147.412109"/>
      </g>
     </g>
    </g>
    <g id="xtick_3">
     <g id="line2d_3">
      <g>
       <use xlink:href="#m72ed6e3a90" x="190.184048" y="295.268719" style="stroke: #000000; stroke-width: 3"/>
      </g>
     </g>
     <g id="text_3">
      <!-- −5 -->
      <g transform="translate(179.127407 318.166375) scale(0.15 -0.15)">
       <use xlink:href="#DejaVuSans-2212"/>
       <use xlink:href="#DejaVuSans-35" x="83.789062"/>
      </g>
     </g>
    </g>
    <g id="xtick_4">
     <g id="line2d_4">
      <g>
       <use xlink:href="#m72ed6e3a90" x="241.708065" y="295.268719" style="stroke: #000000; stroke-width: 3"/>
      </g>
     </g>
     <g id="text_4">
      <!-- 0 -->
      <g transform="translate(236.93619 318.166375) scale(0.15 -0.15)">
       <use xlink:href="#DejaVuSans-30"/>
      </g>
     </g>
    </g>
    <g id="xtick_5">
     <g id="line2d_5">
      <g>
       <use xlink:href="#m72ed6e3a90" x="293.232082" y="295.268719" style="stroke: #000000; stroke-width: 3"/>
      </g>
     </g>
     <g id="text_5">
      <!-- 5 -->
      <g transform="translate(288.460207 318.166375) scale(0.15 -0.15)">
       <use xlink:href="#DejaVuSans-35"/>
      </g>
     </g>
    </g>
    <g id="xtick_6">
     <g id="line2d_6">
      <g>
       <use xlink:href="#m72ed6e3a90" x="344.7561" y="295.268719" style="stroke: #000000; stroke-width: 3"/>
      </g>
     </g>
     <g id="text_6">
      <!-- 10 -->
      <g transform="translate(335.21235 318.166375) scale(0.15 -0.15)">
       <use xlink:href="#DejaVuSans-31"/>
       <use xlink:href="#DejaVuSans-30" x="63.623047"/>
      </g>
     </g>
    </g>
    <g id="xtick_7">
     <g id="line2d_7">
      <g>
       <use xlink:href="#m72ed6e3a90" x="396.280117" y="295.268719" style="stroke: #000000; stroke-width: 3"/>
      </g>
     </g>
     <g id="text_7">
      <!-- 15 -->
      <g transform="translate(386.736367 318.166375) scale(0.15 -0.15)">
       <use xlink:href="#DejaVuSans-31"/>
       <use xlink:href="#DejaVuSans-35" x="63.623047"/>
      </g>
     </g>
    </g>
    <g id="text_8">
     <!-- PCA 1, var 20.15% -->
     <g transform="translate(170.136562 338.20325) scale(0.17 -0.17)">
      <defs>
       <path id="DejaVuSans-50" d="M 1259 4147 
L 1259 2394 
L 2053 2394 
Q 2494 2394 2734 2622 
Q 2975 2850 2975 3272 
Q 2975 3691 2734 3919 
Q 2494 4147 2053 4147 
L 1259 4147 
z
M 628 4666 
L 2053 4666 
Q 2838 4666 3239 4311 
Q 3641 3956 3641 3272 
Q 3641 2581 3239 2228 
Q 2838 1875 2053 1875 
L 1259 1875 
L 1259 0 
L 628 0 
L 628 4666 
z
" transform="scale(0.015625)"/>
       <path id="DejaVuSans-43" d="M 4122 4306 
L 4122 3641 
Q 3803 3938 3442 4084 
Q 3081 4231 2675 4231 
Q 1875 4231 1450 3742 
Q 1025 3253 1025 2328 
Q 1025 1406 1450 917 
Q 1875 428 2675 428 
Q 3081 428 3442 575 
Q 3803 722 4122 1019 
L 4122 359 
Q 3791 134 3420 21 
Q 3050 -91 2638 -91 
Q 1578 -91 968 557 
Q 359 1206 359 2328 
Q 359 3453 968 4101 
Q 1578 4750 2638 4750 
Q 3056 4750 3426 4639 
Q 3797 4528 4122 4306 
z
" transform="scale(0.015625)"/>
       <path id="DejaVuSans-41" d="M 2188 4044 
L 1331 1722 
L 3047 1722 
L 2188 4044 
z
M 1831 4666 
L 2547 4666 
L 4325 0 
L 3669 0 
L 3244 1197 
L 1141 1197 
L 716 0 
L 50 0 
L 1831 4666 
z
" transform="scale(0.015625)"/>
       <path id="DejaVuSans-20" transform="scale(0.015625)"/>
       <path id="DejaVuSans-2c" d="M 750 794 
L 1409 794 
L 1409 256 
L 897 -744 
L 494 -744 
L 750 256 
L 750 794 
z
" transform="scale(0.015625)"/>
       <path id="DejaVuSans-76" d="M 191 3500 
L 800 3500 
L 1894 563 
L 2988 3500 
L 3597 3500 
L 2284 0 
L 1503 0 
L 191 3500 
z
" transform="scale(0.015625)"/>
       <path id="DejaVuSans-61" d="M 2194 1759 
Q 1497 1759 1228 1600 
Q 959 1441 959 1056 
Q 959 750 1161 570 
Q 1363 391 1709 391 
Q 2188 391 2477 730 
Q 2766 1069 2766 1631 
L 2766 1759 
L 2194 1759 
z
M 3341 1997 
L 3341 0 
L 2766 0 
L 2766 531 
Q 2569 213 2275 61 
Q 1981 -91 1556 -91 
Q 1019 -91 701 211 
Q 384 513 384 1019 
Q 384 1609 779 1909 
Q 1175 2209 1959 2209 
L 2766 2209 
L 2766 2266 
Q 2766 2663 2505 2880 
Q 2244 3097 1772 3097 
Q 1472 3097 1187 3025 
Q 903 2953 641 2809 
L 641 3341 
Q 956 3463 1253 3523 
Q 1550 3584 1831 3584 
Q 2591 3584 2966 3190 
Q 3341 2797 3341 1997 
z
" transform="scale(0.015625)"/>
       <path id="DejaVuSans-72" d="M 2631 2963 
Q 2534 3019 2420 3045 
Q 2306 3072 2169 3072 
Q 1681 3072 1420 2755 
Q 1159 2438 1159 1844 
L 1159 0 
L 581 0 
L 581 3500 
L 1159 3500 
L 1159 2956 
Q 1341 3275 1631 3429 
Q 1922 3584 2338 3584 
Q 2397 3584 2469 3576 
Q 2541 3569 2628 3553 
L 2631 2963 
z
" transform="scale(0.015625)"/>
       <path id="DejaVuSans-32" d="M 1228 531 
L 3431 531 
L 3431 0 
L 469 0 
L 469 531 
Q 828 903 1448 1529 
Q 2069 2156 2228 2338 
Q 2531 2678 2651 2914 
Q 2772 3150 2772 3378 
Q 2772 3750 2511 3984 
Q 2250 4219 1831 4219 
Q 1534 4219 1204 4116 
Q 875 4013 500 3803 
L 500 4441 
Q 881 4594 1212 4672 
Q 1544 4750 1819 4750 
Q 2544 4750 2975 4387 
Q 3406 4025 3406 3419 
Q 3406 3131 3298 2873 
Q 3191 2616 2906 2266 
Q 2828 2175 2409 1742 
Q 1991 1309 1228 531 
z
" transform="scale(0.015625)"/>
       <path id="DejaVuSans-2e" d="M 684 794 
L 1344 794 
L 1344 0 
L 684 0 
L 684 794 
z
" transform="scale(0.015625)"/>
       <path id="DejaVuSans-25" d="M 4653 2053 
Q 4381 2053 4226 1822 
Q 4072 1591 4072 1178 
Q 4072 772 4226 539 
Q 4381 306 4653 306 
Q 4919 306 5073 539 
Q 5228 772 5228 1178 
Q 5228 1588 5073 1820 
Q 4919 2053 4653 2053 
z
M 4653 2450 
Q 5147 2450 5437 2106 
Q 5728 1763 5728 1178 
Q 5728 594 5436 251 
Q 5144 -91 4653 -91 
Q 4153 -91 3862 251 
Q 3572 594 3572 1178 
Q 3572 1766 3864 2108 
Q 4156 2450 4653 2450 
z
M 1428 4353 
Q 1159 4353 1004 4120 
Q 850 3888 850 3481 
Q 850 3069 1003 2837 
Q 1156 2606 1428 2606 
Q 1700 2606 1854 2837 
Q 2009 3069 2009 3481 
Q 2009 3884 1853 4118 
Q 1697 4353 1428 4353 
z
M 4250 4750 
L 4750 4750 
L 1831 -91 
L 1331 -91 
L 4250 4750 
z
M 1428 4750 
Q 1922 4750 2215 4408 
Q 2509 4066 2509 3481 
Q 2509 2891 2217 2550 
Q 1925 2209 1428 2209 
Q 931 2209 642 2551 
Q 353 2894 353 3481 
Q 353 4063 643 4406 
Q 934 4750 1428 4750 
z
" transform="scale(0.015625)"/>
      </defs>
      <use xlink:href="#DejaVuSans-50"/>
      <use xlink:href="#DejaVuSans-43" x="60.302734"/>
      <use xlink:href="#DejaVuSans-41" x="130.126953"/>
      <use xlink:href="#DejaVuSans-20" x="198.535156"/>
      <use xlink:href="#DejaVuSans-31" x="230.322266"/>
      <use xlink:href="#DejaVuSans-2c" x="293.945312"/>
      <use xlink:href="#DejaVuSans-20" x="325.732422"/>
      <use xlink:href="#DejaVuSans-76" x="357.519531"/>
      <use xlink:href="#DejaVuSans-61" x="416.699219"/>
      <use xlink:href="#DejaVuSans-72" x="477.978516"/>
      <use xlink:href="#DejaVuSans-20" x="519.091797"/>
      <use xlink:href="#DejaVuSans-32" x="550.878906"/>
      <use xlink:href="#DejaVuSans-30" x="614.501953"/>
      <use xlink:href="#DejaVuSans-2e" x="678.125"/>
      <use xlink:href="#DejaVuSans-31" x="709.912109"/>
      <use xlink:href="#DejaVuSans-35" x="773.535156"/>
      <use xlink:href="#DejaVuSans-25" x="837.158203"/>
     </g>
    </g>
   </g>
   <g id="matplotlib.axis_2">
    <g id="ytick_1">
     <g id="line2d_8">
      <defs>
       <path id="me2b9572c9a" d="M 0 0 
L -8 0 
" style="stroke: #000000; stroke-width: 3"/>
      </defs>
      <g>
       <use xlink:href="#me2b9572c9a" x="70.809844" y="293.9862" style="stroke: #000000; stroke-width: 3"/>
      </g>
     </g>
     <g id="text_9">
      <!-- −15 -->
      <g transform="translate(27.652812 299.685028) scale(0.15 -0.15)">
       <use xlink:href="#DejaVuSans-2212"/>
       <use xlink:href="#DejaVuSans-31" x="83.789062"/>
       <use xlink:href="#DejaVuSans-35" x="147.412109"/>
      </g>
     </g>
    </g>
    <g id="ytick_2">
     <g id="line2d_9">
      <g>
       <use xlink:href="#me2b9572c9a" x="70.809844" y="254.346244" style="stroke: #000000; stroke-width: 3"/>
      </g>
     </g>
     <g id="text_10">
      <!-- −10 -->
      <g transform="translate(27.652812 260.045072) scale(0.15 -0.15)">
       <use xlink:href="#DejaVuSans-2212"/>
       <use xlink:href="#DejaVuSans-31" x="83.789062"/>
       <use xlink:href="#DejaVuSans-30" x="147.412109"/>
      </g>
     </g>
    </g>
    <g id="ytick_3">
     <g id="line2d_10">
      <g>
       <use xlink:href="#me2b9572c9a" x="70.809844" y="214.706287" style="stroke: #000000; stroke-width: 3"/>
      </g>
     </g>
     <g id="text_11">
      <!-- −5 -->
      <g transform="translate(37.196562 220.405116) scale(0.15 -0.15)">
       <use xlink:href="#DejaVuSans-2212"/>
       <use xlink:href="#DejaVuSans-35" x="83.789062"/>
      </g>
     </g>
    </g>
    <g id="ytick_4">
     <g id="line2d_11">
      <g>
       <use xlink:href="#me2b9572c9a" x="70.809844" y="175.066331" style="stroke: #000000; stroke-width: 3"/>
      </g>
     </g>
     <g id="text_12">
      <!-- 0 -->
      <g transform="translate(49.766094 180.765159) scale(0.15 -0.15)">
       <use xlink:href="#DejaVuSans-30"/>
      </g>
     </g>
    </g>
    <g id="ytick_5">
     <g id="line2d_12">
      <g>
       <use xlink:href="#me2b9572c9a" x="70.809844" y="135.426375" style="stroke: #000000; stroke-width: 3"/>
      </g>
     </g>
     <g id="text_13">
      <!-- 5 -->
      <g transform="translate(49.766094 141.125203) scale(0.15 -0.15)">
       <use xlink:href="#DejaVuSans-35"/>
      </g>
     </g>
    </g>
    <g id="ytick_6">
     <g id="line2d_13">
      <g>
       <use xlink:href="#me2b9572c9a" x="70.809844" y="95.786419" style="stroke: #000000; stroke-width: 3"/>
      </g>
     </g>
     <g id="text_14">
      <!-- 10 -->
      <g transform="translate(40.222344 101.485247) scale(0.15 -0.15)">
       <use xlink:href="#DejaVuSans-31"/>
       <use xlink:href="#DejaVuSans-30" x="63.623047"/>
      </g>
     </g>
    </g>
    <g id="ytick_7">
     <g id="line2d_14">
      <g>
       <use xlink:href="#me2b9572c9a" x="70.809844" y="56.146463" style="stroke: #000000; stroke-width: 3"/>
      </g>
     </g>
     <g id="text_15">
      <!-- 15 -->
      <g transform="translate(40.222344 61.845291) scale(0.15 -0.15)">
       <use xlink:href="#DejaVuSans-31"/>
       <use xlink:href="#DejaVuSans-35" x="63.623047"/>
      </g>
     </g>
    </g>
    <g id="text_16">
     <!-- PCA 2, var 11.18% -->
     <g transform="translate(20.117344 241.446) rotate(-90) scale(0.17 -0.17)">
      <defs>
       <path id="DejaVuSans-38" d="M 2034 2216 
Q 1584 2216 1326 1975 
Q 1069 1734 1069 1313 
Q 1069 891 1326 650 
Q 1584 409 2034 409 
Q 2484 409 2743 651 
Q 3003 894 3003 1313 
Q 3003 1734 2745 1975 
Q 2488 2216 2034 2216 
z
M 1403 2484 
Q 997 2584 770 2862 
Q 544 3141 544 3541 
Q 544 4100 942 4425 
Q 1341 4750 2034 4750 
Q 2731 4750 3128 4425 
Q 3525 4100 3525 3541 
Q 3525 3141 3298 2862 
Q 3072 2584 2669 2484 
Q 3125 2378 3379 2068 
Q 3634 1759 3634 1313 
Q 3634 634 3220 271 
Q 2806 -91 2034 -91 
Q 1263 -91 848 271 
Q 434 634 434 1313 
Q 434 1759 690 2068 
Q 947 2378 1403 2484 
z
M 1172 3481 
Q 1172 3119 1398 2916 
Q 1625 2713 2034 2713 
Q 2441 2713 2670 2916 
Q 2900 3119 2900 3481 
Q 2900 3844 2670 4047 
Q 2441 4250 2034 4250 
Q 1625 4250 1398 4047 
Q 1172 3844 1172 3481 
z
" transform="scale(0.015625)"/>
      </defs>
      <use xlink:href="#DejaVuSans-50"/>
      <use xlink:href="#DejaVuSans-43" x="60.302734"/>
      <use xlink:href="#DejaVuSans-41" x="130.126953"/>
      <use xlink:href="#DejaVuSans-20" x="198.535156"/>
      <use xlink:href="#DejaVuSans-32" x="230.322266"/>
      <use xlink:href="#DejaVuSans-2c" x="293.945312"/>
      <use xlink:href="#DejaVuSans-20" x="325.732422"/>
      <use xlink:href="#DejaVuSans-76" x="357.519531"/>
      <use xlink:href="#DejaVuSans-61" x="416.699219"/>
      <use xlink:href="#DejaVuSans-72" x="477.978516"/>
      <use xlink:href="#DejaVuSans-20" x="519.091797"/>
      <use xlink:href="#DejaVuSans-31" x="550.878906"/>
      <use xlink:href="#DejaVuSans-31" x="614.501953"/>
      <use xlink:href="#DejaVuSans-2e" x="678.125"/>
      <use xlink:href="#DejaVuSans-31" x="709.912109"/>
      <use xlink:href="#DejaVuSans-38" x="773.535156"/>
      <use xlink:href="#DejaVuSans-25" x="837.158203"/>
     </g>
    </g>
   </g>
   <g id="patch_3">
    <path d="M 70.809844 295.268719 
L 70.809844 29.156719 
" style="fill: none; stroke: #000000; stroke-width: 2; stroke-linejoin: miter; stroke-linecap: square"/>
   </g>
   <g id="patch_4">
    <path d="M 70.809844 295.268719 
L 427.929844 295.268719 
" style="fill: none; stroke: #000000; stroke-width: 2; stroke-linejoin: miter; stroke-linecap: square"/>
   </g>
   <g id="text_17">
    <!-- PCA - Embeddings resp. atom types -->
    <g transform="translate(60.878438 23.156719) scale(0.21 -0.21)">
     <defs>
      <path id="DejaVuSans-2d" d="M 313 2009 
L 1997 2009 
L 1997 1497 
L 313 1497 
L 313 2009 
z
" transform="scale(0.015625)"/>
      <path id="DejaVuSans-45" d="M 628 4666 
L 3578 4666 
L 3578 4134 
L 1259 4134 
L 1259 2753 
L 3481 2753 
L 3481 2222 
L 1259 2222 
L 1259 531 
L 3634 531 
L 3634 0 
L 628 0 
L 628 4666 
z
" transform="scale(0.015625)"/>
      <path id="DejaVuSans-6d" d="M 3328 2828 
Q 3544 3216 3844 3400 
Q 4144 3584 4550 3584 
Q 5097 3584 5394 3201 
Q 5691 2819 5691 2113 
L 5691 0 
L 5113 0 
L 5113 2094 
Q 5113 2597 4934 2840 
Q 4756 3084 4391 3084 
Q 3944 3084 3684 2787 
Q 3425 2491 3425 1978 
L 3425 0 
L 2847 0 
L 2847 2094 
Q 2847 2600 2669 2842 
Q 2491 3084 2119 3084 
Q 1678 3084 1418 2786 
Q 1159 2488 1159 1978 
L 1159 0 
L 581 0 
L 581 3500 
L 1159 3500 
L 1159 2956 
Q 1356 3278 1631 3431 
Q 1906 3584 2284 3584 
Q 2666 3584 2933 3390 
Q 3200 3197 3328 2828 
z
" transform="scale(0.015625)"/>
      <path id="DejaVuSans-62" d="M 3116 1747 
Q 3116 2381 2855 2742 
Q 2594 3103 2138 3103 
Q 1681 3103 1420 2742 
Q 1159 2381 1159 1747 
Q 1159 1113 1420 752 
Q 1681 391 2138 391 
Q 2594 391 2855 752 
Q 3116 1113 3116 1747 
z
M 1159 2969 
Q 1341 3281 1617 3432 
Q 1894 3584 2278 3584 
Q 2916 3584 3314 3078 
Q 3713 2572 3713 1747 
Q 3713 922 3314 415 
Q 2916 -91 2278 -91 
Q 1894 -91 1617 61 
Q 1341 213 1159 525 
L 1159 0 
L 581 0 
L 581 4863 
L 1159 4863 
L 1159 2969 
z
" transform="scale(0.015625)"/>
      <path id="DejaVuSans-65" d="M 3597 1894 
L 3597 1613 
L 953 1613 
Q 991 1019 1311 708 
Q 1631 397 2203 397 
Q 2534 397 2845 478 
Q 3156 559 3463 722 
L 3463 178 
Q 3153 47 2828 -22 
Q 2503 -91 2169 -91 
Q 1331 -91 842 396 
Q 353 884 353 1716 
Q 353 2575 817 3079 
Q 1281 3584 2069 3584 
Q 2775 3584 3186 3129 
Q 3597 2675 3597 1894 
z
M 3022 2063 
Q 3016 2534 2758 2815 
Q 2500 3097 2075 3097 
Q 1594 3097 1305 2825 
Q 1016 2553 972 2059 
L 3022 2063 
z
" transform="scale(0.015625)"/>
      <path id="DejaVuSans-64" d="M 2906 2969 
L 2906 4863 
L 3481 4863 
L 3481 0 
L 2906 0 
L 2906 525 
Q 2725 213 2448 61 
Q 2172 -91 1784 -91 
Q 1150 -91 751 415 
Q 353 922 353 1747 
Q 353 2572 751 3078 
Q 1150 3584 1784 3584 
Q 2172 3584 2448 3432 
Q 2725 3281 2906 2969 
z
M 947 1747 
Q 947 1113 1208 752 
Q 1469 391 1925 391 
Q 2381 391 2643 752 
Q 2906 1113 2906 1747 
Q 2906 2381 2643 2742 
Q 2381 3103 1925 3103 
Q 1469 3103 1208 2742 
Q 947 2381 947 1747 
z
" transform="scale(0.015625)"/>
      <path id="DejaVuSans-69" d="M 603 3500 
L 1178 3500 
L 1178 0 
L 603 0 
L 603 3500 
z
M 603 4863 
L 1178 4863 
L 1178 4134 
L 603 4134 
L 603 4863 
z
" transform="scale(0.015625)"/>
      <path id="DejaVuSans-6e" d="M 3513 2113 
L 3513 0 
L 2938 0 
L 2938 2094 
Q 2938 2591 2744 2837 
Q 2550 3084 2163 3084 
Q 1697 3084 1428 2787 
Q 1159 2491 1159 1978 
L 1159 0 
L 581 0 
L 581 3500 
L 1159 3500 
L 1159 2956 
Q 1366 3272 1645 3428 
Q 1925 3584 2291 3584 
Q 2894 3584 3203 3211 
Q 3513 2838 3513 2113 
z
" transform="scale(0.015625)"/>
      <path id="DejaVuSans-67" d="M 2906 1791 
Q 2906 2416 2648 2759 
Q 2391 3103 1925 3103 
Q 1463 3103 1205 2759 
Q 947 2416 947 1791 
Q 947 1169 1205 825 
Q 1463 481 1925 481 
Q 2391 481 2648 825 
Q 2906 1169 2906 1791 
z
M 3481 434 
Q 3481 -459 3084 -895 
Q 2688 -1331 1869 -1331 
Q 1566 -1331 1297 -1286 
Q 1028 -1241 775 -1147 
L 775 -588 
Q 1028 -725 1275 -790 
Q 1522 -856 1778 -856 
Q 2344 -856 2625 -561 
Q 2906 -266 2906 331 
L 2906 616 
Q 2728 306 2450 153 
Q 2172 0 1784 0 
Q 1141 0 747 490 
Q 353 981 353 1791 
Q 353 2603 747 3093 
Q 1141 3584 1784 3584 
Q 2172 3584 2450 3431 
Q 2728 3278 2906 2969 
L 2906 3500 
L 3481 3500 
L 3481 434 
z
" transform="scale(0.015625)"/>
      <path id="DejaVuSans-73" d="M 2834 3397 
L 2834 2853 
Q 2591 2978 2328 3040 
Q 2066 3103 1784 3103 
Q 1356 3103 1142 2972 
Q 928 2841 928 2578 
Q 928 2378 1081 2264 
Q 1234 2150 1697 2047 
L 1894 2003 
Q 2506 1872 2764 1633 
Q 3022 1394 3022 966 
Q 3022 478 2636 193 
Q 2250 -91 1575 -91 
Q 1294 -91 989 -36 
Q 684 19 347 128 
L 347 722 
Q 666 556 975 473 
Q 1284 391 1588 391 
Q 1994 391 2212 530 
Q 2431 669 2431 922 
Q 2431 1156 2273 1281 
Q 2116 1406 1581 1522 
L 1381 1569 
Q 847 1681 609 1914 
Q 372 2147 372 2553 
Q 372 3047 722 3315 
Q 1072 3584 1716 3584 
Q 2034 3584 2315 3537 
Q 2597 3491 2834 3397 
z
" transform="scale(0.015625)"/>
      <path id="DejaVuSans-70" d="M 1159 525 
L 1159 -1331 
L 581 -1331 
L 581 3500 
L 1159 3500 
L 1159 2969 
Q 1341 3281 1617 3432 
Q 1894 3584 2278 3584 
Q 2916 3584 3314 3078 
Q 3713 2572 3713 1747 
Q 3713 922 3314 415 
Q 2916 -91 2278 -91 
Q 1894 -91 1617 61 
Q 1341 213 1159 525 
z
M 3116 1747 
Q 3116 2381 2855 2742 
Q 2594 3103 2138 3103 
Q 1681 3103 1420 2742 
Q 1159 2381 1159 1747 
Q 1159 1113 1420 752 
Q 1681 391 2138 391 
Q 2594 391 2855 752 
Q 3116 1113 3116 1747 
z
" transform="scale(0.015625)"/>
      <path id="DejaVuSans-74" d="M 1172 4494 
L 1172 3500 
L 2356 3500 
L 2356 3053 
L 1172 3053 
L 1172 1153 
Q 1172 725 1289 603 
Q 1406 481 1766 481 
L 2356 481 
L 2356 0 
L 1766 0 
Q 1100 0 847 248 
Q 594 497 594 1153 
L 594 3053 
L 172 3053 
L 172 3500 
L 594 3500 
L 594 4494 
L 1172 4494 
z
" transform="scale(0.015625)"/>
      <path id="DejaVuSans-6f" d="M 1959 3097 
Q 1497 3097 1228 2736 
Q 959 2375 959 1747 
Q 959 1119 1226 758 
Q 1494 397 1959 397 
Q 2419 397 2687 759 
Q 2956 1122 2956 1747 
Q 2956 2369 2687 2733 
Q 2419 3097 1959 3097 
z
M 1959 3584 
Q 2709 3584 3137 3096 
Q 3566 2609 3566 1747 
Q 3566 888 3137 398 
Q 2709 -91 1959 -91 
Q 1206 -91 779 398 
Q 353 888 353 1747 
Q 353 2609 779 3096 
Q 1206 3584 1959 3584 
z
" transform="scale(0.015625)"/>
      <path id="DejaVuSans-79" d="M 2059 -325 
Q 1816 -950 1584 -1140 
Q 1353 -1331 966 -1331 
L 506 -1331 
L 506 -850 
L 844 -850 
Q 1081 -850 1212 -737 
Q 1344 -625 1503 -206 
L 1606 56 
L 191 3500 
L 800 3500 
L 1894 763 
L 2988 3500 
L 3597 3500 
L 2059 -325 
z
" transform="scale(0.015625)"/>
     </defs>
     <use xlink:href="#DejaVuSans-50"/>
     <use xlink:href="#DejaVuSans-43" x="60.302734"/>
     <use xlink:href="#DejaVuSans-41" x="130.126953"/>
     <use xlink:href="#DejaVuSans-20" x="198.535156"/>
     <use xlink:href="#DejaVuSans-2d" x="230.322266"/>
     <use xlink:href="#DejaVuSans-20" x="266.40625"/>
     <use xlink:href="#DejaVuSans-45" x="298.193359"/>
     <use xlink:href="#DejaVuSans-6d" x="361.376953"/>
     <use xlink:href="#DejaVuSans-62" x="458.789062"/>
     <use xlink:href="#DejaVuSans-65" x="522.265625"/>
     <use xlink:href="#DejaVuSans-64" x="583.789062"/>
     <use xlink:href="#DejaVuSans-64" x="647.265625"/>
     <use xlink:href="#DejaVuSans-69" x="710.742188"/>
     <use xlink:href="#DejaVuSans-6e" x="738.525391"/>
     <use xlink:href="#DejaVuSans-67" x="801.904297"/>
     <use xlink:href="#DejaVuSans-73" x="865.380859"/>
     <use xlink:href="#DejaVuSans-20" x="917.480469"/>
     <use xlink:href="#DejaVuSans-72" x="949.267578"/>
     <use xlink:href="#DejaVuSans-65" x="988.130859"/>
     <use xlink:href="#DejaVuSans-73" x="1049.654297"/>
     <use xlink:href="#DejaVuSans-70" x="1101.753906"/>
     <use xlink:href="#DejaVuSans-2e" x="1165.230469"/>
     <use xlink:href="#DejaVuSans-20" x="1197.017578"/>
     <use xlink:href="#DejaVuSans-61" x="1228.804688"/>
     <use xlink:href="#DejaVuSans-74" x="1290.083984"/>
     <use xlink:href="#DejaVuSans-6f" x="1329.292969"/>
     <use xlink:href="#DejaVuSans-6d" x="1390.474609"/>
     <use xlink:href="#DejaVuSans-20" x="1487.886719"/>
     <use xlink:href="#DejaVuSans-74" x="1519.673828"/>
     <use xlink:href="#DejaVuSans-79" x="1558.882812"/>
     <use xlink:href="#DejaVuSans-70" x="1618.0625"/>
     <use xlink:href="#DejaVuSans-65" x="1681.539062"/>
     <use xlink:href="#DejaVuSans-73" x="1743.0625"/>
    </g>
   </g>
   <g id="legend_1">
    <g id="patch_5">
     <path d="M 432.995444 251.481469 
L 468.755444 251.481469 
Q 470.355444 251.481469 470.355444 249.881469 
L 470.355444 74.543969 
Q 470.355444 72.943969 468.755444 72.943969 
L 432.995444 72.943969 
Q 431.395444 72.943969 431.395444 74.543969 
L 431.395444 249.881469 
Q 431.395444 251.481469 432.995444 251.481469 
z
" style="fill: #ffffff; opacity: 0.8; stroke: #cccccc; stroke-linejoin: miter"/>
    </g>
    <g id="line2d_15">
     <path d="M 434.595444 79.422719 
L 442.595444 79.422719 
L 450.595444 79.422719 
" style="fill: none; stroke: #ffffff; stroke-width: 1.5; stroke-linecap: square"/>
     <defs>
      <path id="m0219e560a0" d="M 0 4.5 
C 1.193414 4.5 2.338109 4.025852 3.181981 3.181981 
C 4.025852 2.338109 4.5 1.193414 4.5 0 
C 4.5 -1.193414 4.025852 -2.338109 3.181981 -3.181981 
C 2.338109 -4.025852 1.193414 -4.5 0 -4.5 
C -1.193414 -4.5 -2.338109 -4.025852 -3.181981 -3.181981 
C -4.025852 -2.338109 -4.5 -1.193414 -4.5 0 
C -4.5 1.193414 -4.025852 2.338109 -3.181981 3.181981 
C -2.338109 4.025852 -1.193414 4.5 0 4.5 
z
" style="stroke: #ffffff"/>
     </defs>
     <g>
      <use xlink:href="#m0219e560a0" x="442.595444" y="79.422719" style="fill: #e6194b; stroke: #ffffff"/>
     </g>
    </g>
    <g id="text_18">
     <!-- n -->
     <g transform="translate(456.995444 82.222719) scale(0.08 -0.08)">
      <use xlink:href="#DejaVuSans-6e"/>
     </g>
    </g>
    <g id="line2d_16">
     <path d="M 434.595444 91.165219 
L 442.595444 91.165219 
L 450.595444 91.165219 
" style="fill: none; stroke: #ffffff; stroke-width: 1.5; stroke-linecap: square"/>
     <defs>
      <path id="m0db53aea54" d="M 0 4.5 
C 1.193414 4.5 2.338109 4.025852 3.181981 3.181981 
C 4.025852 2.338109 4.5 1.193414 4.5 0 
C 4.5 -1.193414 4.025852 -2.338109 3.181981 -3.181981 
C 2.338109 -4.025852 1.193414 -4.5 0 -4.5 
C -1.193414 -4.5 -2.338109 -4.025852 -3.181981 -3.181981 
C -4.025852 -2.338109 -4.5 -1.193414 -4.5 0 
C -4.5 1.193414 -4.025852 2.338109 -3.181981 3.181981 
C -2.338109 4.025852 -1.193414 4.5 0 4.5 
z
" style="stroke: #ffffff"/>
     </defs>
     <g>
      <use xlink:href="#m0db53aea54" x="442.595444" y="91.165219" style="fill: #3cb44b; stroke: #ffffff"/>
     </g>
    </g>
    <g id="text_19">
     <!-- n1 -->
     <g transform="translate(456.995444 93.965219) scale(0.08 -0.08)">
      <use xlink:href="#DejaVuSans-6e"/>
      <use xlink:href="#DejaVuSans-31" x="63.378906"/>
     </g>
    </g>
    <g id="line2d_17">
     <path d="M 434.595444 102.907719 
L 442.595444 102.907719 
L 450.595444 102.907719 
" style="fill: none; stroke: #ffffff; stroke-width: 1.5; stroke-linecap: square"/>
     <defs>
      <path id="mc6b36b3972" d="M 0 4.5 
C 1.193414 4.5 2.338109 4.025852 3.181981 3.181981 
C 4.025852 2.338109 4.5 1.193414 4.5 0 
C 4.5 -1.193414 4.025852 -2.338109 3.181981 -3.181981 
C 2.338109 -4.025852 1.193414 -4.5 0 -4.5 
C -1.193414 -4.5 -2.338109 -4.025852 -3.181981 -3.181981 
C -4.025852 -2.338109 -4.5 -1.193414 -4.5 0 
C -4.5 1.193414 -4.025852 2.338109 -3.181981 3.181981 
C -2.338109 4.025852 -1.193414 4.5 0 4.5 
z
" style="stroke: #ffffff"/>
     </defs>
     <g>
      <use xlink:href="#mc6b36b3972" x="442.595444" y="102.907719" style="fill: #ffe119; stroke: #ffffff"/>
     </g>
    </g>
    <g id="text_20">
     <!-- n2 -->
     <g transform="translate(456.995444 105.707719) scale(0.08 -0.08)">
      <use xlink:href="#DejaVuSans-6e"/>
      <use xlink:href="#DejaVuSans-32" x="63.378906"/>
     </g>
    </g>
    <g id="line2d_18">
     <path d="M 434.595444 114.650219 
L 442.595444 114.650219 
L 450.595444 114.650219 
" style="fill: none; stroke: #ffffff; stroke-width: 1.5; stroke-linecap: square"/>
     <defs>
      <path id="m896592760f" d="M 0 4.5 
C 1.193414 4.5 2.338109 4.025852 3.181981 3.181981 
C 4.025852 2.338109 4.5 1.193414 4.5 0 
C 4.5 -1.193414 4.025852 -2.338109 3.181981 -3.181981 
C 2.338109 -4.025852 1.193414 -4.5 0 -4.5 
C -1.193414 -4.5 -2.338109 -4.025852 -3.181981 -3.181981 
C -4.025852 -2.338109 -4.5 -1.193414 -4.5 0 
C -4.5 1.193414 -4.025852 2.338109 -3.181981 3.181981 
C -2.338109 4.025852 -1.193414 4.5 0 4.5 
z
" style="stroke: #ffffff"/>
     </defs>
     <g>
      <use xlink:href="#m896592760f" x="442.595444" y="114.650219" style="fill: #4363d8; stroke: #ffffff"/>
     </g>
    </g>
    <g id="text_21">
     <!-- n7 -->
     <g transform="translate(456.995444 117.450219) scale(0.08 -0.08)">
      <defs>
       <path id="DejaVuSans-37" d="M 525 4666 
L 3525 4666 
L 3525 4397 
L 1831 0 
L 1172 0 
L 2766 4134 
L 525 4134 
L 525 4666 
z
" transform="scale(0.015625)"/>
      </defs>
      <use xlink:href="#DejaVuSans-6e"/>
      <use xlink:href="#DejaVuSans-37" x="63.378906"/>
     </g>
    </g>
    <g id="line2d_19">
     <path d="M 434.595444 126.392719 
L 442.595444 126.392719 
L 450.595444 126.392719 
" style="fill: none; stroke: #ffffff; stroke-width: 1.5; stroke-linecap: square"/>
     <defs>
      <path id="m74882b3f9f" d="M 0 4.5 
C 1.193414 4.5 2.338109 4.025852 3.181981 3.181981 
C 4.025852 2.338109 4.5 1.193414 4.5 0 
C 4.5 -1.193414 4.025852 -2.338109 3.181981 -3.181981 
C 2.338109 -4.025852 1.193414 -4.5 0 -4.5 
C -1.193414 -4.5 -2.338109 -4.025852 -3.181981 -3.181981 
C -4.025852 -2.338109 -4.5 -1.193414 -4.5 0 
C -4.5 1.193414 -4.025852 2.338109 -3.181981 3.181981 
C -2.338109 4.025852 -1.193414 4.5 0 4.5 
z
" style="stroke: #ffffff"/>
     </defs>
     <g>
      <use xlink:href="#m74882b3f9f" x="442.595444" y="126.392719" style="fill: #f58231; stroke: #ffffff"/>
     </g>
    </g>
    <g id="text_22">
     <!-- n8 -->
     <g transform="translate(456.995444 129.192719) scale(0.08 -0.08)">
      <use xlink:href="#DejaVuSans-6e"/>
      <use xlink:href="#DejaVuSans-38" x="63.378906"/>
     </g>
    </g>
    <g id="line2d_20">
     <path d="M 434.595444 138.135219 
L 442.595444 138.135219 
L 450.595444 138.135219 
" style="fill: none; stroke: #ffffff; stroke-width: 1.5; stroke-linecap: square"/>
     <defs>
      <path id="mac83e669a0" d="M 0 4.5 
C 1.193414 4.5 2.338109 4.025852 3.181981 3.181981 
C 4.025852 2.338109 4.5 1.193414 4.5 0 
C 4.5 -1.193414 4.025852 -2.338109 3.181981 -3.181981 
C 2.338109 -4.025852 1.193414 -4.5 0 -4.5 
C -1.193414 -4.5 -2.338109 -4.025852 -3.181981 -3.181981 
C -4.025852 -2.338109 -4.5 -1.193414 -4.5 0 
C -4.5 1.193414 -4.025852 2.338109 -3.181981 3.181981 
C -2.338109 4.025852 -1.193414 4.5 0 4.5 
z
" style="stroke: #ffffff"/>
     </defs>
     <g>
      <use xlink:href="#mac83e669a0" x="442.595444" y="138.135219" style="fill: #911eb4; stroke: #ffffff"/>
     </g>
    </g>
    <g id="text_23">
     <!-- na -->
     <g transform="translate(456.995444 140.935219) scale(0.08 -0.08)">
      <use xlink:href="#DejaVuSans-6e"/>
      <use xlink:href="#DejaVuSans-61" x="63.378906"/>
     </g>
    </g>
    <g id="line2d_21">
     <path d="M 434.595444 149.877719 
L 442.595444 149.877719 
L 450.595444 149.877719 
" style="fill: none; stroke: #ffffff; stroke-width: 1.5; stroke-linecap: square"/>
     <defs>
      <path id="m6a571c9d72" d="M 0 4.5 
C 1.193414 4.5 2.338109 4.025852 3.181981 3.181981 
C 4.025852 2.338109 4.5 1.193414 4.5 0 
C 4.5 -1.193414 4.025852 -2.338109 3.181981 -3.181981 
C 2.338109 -4.025852 1.193414 -4.5 0 -4.5 
C -1.193414 -4.5 -2.338109 -4.025852 -3.181981 -3.181981 
C -4.025852 -2.338109 -4.5 -1.193414 -4.5 0 
C -4.5 1.193414 -4.025852 2.338109 -3.181981 3.181981 
C -2.338109 4.025852 -1.193414 4.5 0 4.5 
z
" style="stroke: #ffffff"/>
     </defs>
     <g>
      <use xlink:href="#m6a571c9d72" x="442.595444" y="149.877719" style="fill: #42d4f4; stroke: #ffffff"/>
     </g>
    </g>
    <g id="text_24">
     <!-- nb -->
     <g transform="translate(456.995444 152.677719) scale(0.08 -0.08)">
      <use xlink:href="#DejaVuSans-6e"/>
      <use xlink:href="#DejaVuSans-62" x="63.378906"/>
     </g>
    </g>
    <g id="line2d_22">
     <path d="M 434.595444 161.620219 
L 442.595444 161.620219 
L 450.595444 161.620219 
" style="fill: none; stroke: #ffffff; stroke-width: 1.5; stroke-linecap: square"/>
     <defs>
      <path id="mfb0e9a2092" d="M 0 4.5 
C 1.193414 4.5 2.338109 4.025852 3.181981 3.181981 
C 4.025852 2.338109 4.5 1.193414 4.5 0 
C 4.5 -1.193414 4.025852 -2.338109 3.181981 -3.181981 
C 2.338109 -4.025852 1.193414 -4.5 0 -4.5 
C -1.193414 -4.5 -2.338109 -4.025852 -3.181981 -3.181981 
C -4.025852 -2.338109 -4.5 -1.193414 -4.5 0 
C -4.5 1.193414 -4.025852 2.338109 -3.181981 3.181981 
C -2.338109 4.025852 -1.193414 4.5 0 4.5 
z
" style="stroke: #ffffff"/>
     </defs>
     <g>
      <use xlink:href="#mfb0e9a2092" x="442.595444" y="161.620219" style="fill: #f032e6; stroke: #ffffff"/>
     </g>
    </g>
    <g id="text_25">
     <!-- nc -->
     <g transform="translate(456.995444 164.420219) scale(0.08 -0.08)">
      <defs>
       <path id="DejaVuSans-63" d="M 3122 3366 
L 3122 2828 
Q 2878 2963 2633 3030 
Q 2388 3097 2138 3097 
Q 1578 3097 1268 2742 
Q 959 2388 959 1747 
Q 959 1106 1268 751 
Q 1578 397 2138 397 
Q 2388 397 2633 464 
Q 2878 531 3122 666 
L 3122 134 
Q 2881 22 2623 -34 
Q 2366 -91 2075 -91 
Q 1284 -91 818 406 
Q 353 903 353 1747 
Q 353 2603 823 3093 
Q 1294 3584 2113 3584 
Q 2378 3584 2631 3529 
Q 2884 3475 3122 3366 
z
" transform="scale(0.015625)"/>
      </defs>
      <use xlink:href="#DejaVuSans-6e"/>
      <use xlink:href="#DejaVuSans-63" x="63.378906"/>
     </g>
    </g>
    <g id="line2d_23">
     <path d="M 434.595444 173.362719 
L 442.595444 173.362719 
L 450.595444 173.362719 
" style="fill: none; stroke: #ffffff; stroke-width: 1.5; stroke-linecap: square"/>
     <defs>
      <path id="m590f43d35b" d="M 0 4.5 
C 1.193414 4.5 2.338109 4.025852 3.181981 3.181981 
C 4.025852 2.338109 4.5 1.193414 4.5 0 
C 4.5 -1.193414 4.025852 -2.338109 3.181981 -3.181981 
C 2.338109 -4.025852 1.193414 -4.5 0 -4.5 
C -1.193414 -4.5 -2.338109 -4.025852 -3.181981 -3.181981 
C -4.025852 -2.338109 -4.5 -1.193414 -4.5 0 
C -4.5 1.193414 -4.025852 2.338109 -3.181981 3.181981 
C -2.338109 4.025852 -1.193414 4.5 0 4.5 
z
" style="stroke: #ffffff"/>
     </defs>
     <g>
      <use xlink:href="#m590f43d35b" x="442.595444" y="173.362719" style="fill: #bfef45; stroke: #ffffff"/>
     </g>
    </g>
    <g id="text_26">
     <!-- nd -->
     <g transform="translate(456.995444 176.162719) scale(0.08 -0.08)">
      <use xlink:href="#DejaVuSans-6e"/>
      <use xlink:href="#DejaVuSans-64" x="63.378906"/>
     </g>
    </g>
    <g id="line2d_24">
     <path d="M 434.595444 185.105219 
L 442.595444 185.105219 
L 450.595444 185.105219 
" style="fill: none; stroke: #ffffff; stroke-width: 1.5; stroke-linecap: square"/>
     <defs>
      <path id="m8f57697687" d="M 0 4.5 
C 1.193414 4.5 2.338109 4.025852 3.181981 3.181981 
C 4.025852 2.338109 4.5 1.193414 4.5 0 
C 4.5 -1.193414 4.025852 -2.338109 3.181981 -3.181981 
C 2.338109 -4.025852 1.193414 -4.5 0 -4.5 
C -1.193414 -4.5 -2.338109 -4.025852 -3.181981 -3.181981 
C -4.025852 -2.338109 -4.5 -1.193414 -4.5 0 
C -4.5 1.193414 -4.025852 2.338109 -3.181981 3.181981 
C -2.338109 4.025852 -1.193414 4.5 0 4.5 
z
" style="stroke: #ffffff"/>
     </defs>
     <g>
      <use xlink:href="#m8f57697687" x="442.595444" y="185.105219" style="fill: #fabed4; stroke: #ffffff"/>
     </g>
    </g>
    <g id="text_27">
     <!-- ne -->
     <g transform="translate(456.995444 187.905219) scale(0.08 -0.08)">
      <use xlink:href="#DejaVuSans-6e"/>
      <use xlink:href="#DejaVuSans-65" x="63.378906"/>
     </g>
    </g>
    <g id="line2d_25">
     <path d="M 434.595444 196.847719 
L 442.595444 196.847719 
L 450.595444 196.847719 
" style="fill: none; stroke: #ffffff; stroke-width: 1.5; stroke-linecap: square"/>
     <defs>
      <path id="m80947f9196" d="M 0 4.5 
C 1.193414 4.5 2.338109 4.025852 3.181981 3.181981 
C 4.025852 2.338109 4.5 1.193414 4.5 0 
C 4.5 -1.193414 4.025852 -2.338109 3.181981 -3.181981 
C 2.338109 -4.025852 1.193414 -4.5 0 -4.5 
C -1.193414 -4.5 -2.338109 -4.025852 -3.181981 -3.181981 
C -4.025852 -2.338109 -4.5 -1.193414 -4.5 0 
C -4.5 1.193414 -4.025852 2.338109 -3.181981 3.181981 
C -2.338109 4.025852 -1.193414 4.5 0 4.5 
z
" style="stroke: #ffffff"/>
     </defs>
     <g>
      <use xlink:href="#m80947f9196" x="442.595444" y="196.847719" style="fill: #469990; stroke: #ffffff"/>
     </g>
    </g>
    <g id="text_28">
     <!-- nh -->
     <g transform="translate(456.995444 199.647719) scale(0.08 -0.08)">
      <defs>
       <path id="DejaVuSans-68" d="M 3513 2113 
L 3513 0 
L 2938 0 
L 2938 2094 
Q 2938 2591 2744 2837 
Q 2550 3084 2163 3084 
Q 1697 3084 1428 2787 
Q 1159 2491 1159 1978 
L 1159 0 
L 581 0 
L 581 4863 
L 1159 4863 
L 1159 2956 
Q 1366 3272 1645 3428 
Q 1925 3584 2291 3584 
Q 2894 3584 3203 3211 
Q 3513 2838 3513 2113 
z
" transform="scale(0.015625)"/>
      </defs>
      <use xlink:href="#DejaVuSans-6e"/>
      <use xlink:href="#DejaVuSans-68" x="63.378906"/>
     </g>
    </g>
    <g id="line2d_26">
     <path d="M 434.595444 208.590219 
L 442.595444 208.590219 
L 450.595444 208.590219 
" style="fill: none; stroke: #ffffff; stroke-width: 1.5; stroke-linecap: square"/>
     <defs>
      <path id="m2f272a95f9" d="M 0 4.5 
C 1.193414 4.5 2.338109 4.025852 3.181981 3.181981 
C 4.025852 2.338109 4.5 1.193414 4.5 0 
C 4.5 -1.193414 4.025852 -2.338109 3.181981 -3.181981 
C 2.338109 -4.025852 1.193414 -4.5 0 -4.5 
C -1.193414 -4.5 -2.338109 -4.025852 -3.181981 -3.181981 
C -4.025852 -2.338109 -4.5 -1.193414 -4.5 0 
C -4.5 1.193414 -4.025852 2.338109 -3.181981 3.181981 
C -2.338109 4.025852 -1.193414 4.5 0 4.5 
z
" style="stroke: #ffffff"/>
     </defs>
     <g>
      <use xlink:href="#m2f272a95f9" x="442.595444" y="208.590219" style="fill: #dcbeff; stroke: #ffffff"/>
     </g>
    </g>
    <g id="text_29">
     <!-- ns -->
     <g transform="translate(456.995444 211.390219) scale(0.08 -0.08)">
      <use xlink:href="#DejaVuSans-6e"/>
      <use xlink:href="#DejaVuSans-73" x="63.378906"/>
     </g>
    </g>
    <g id="line2d_27">
     <path d="M 434.595444 220.332719 
L 442.595444 220.332719 
L 450.595444 220.332719 
" style="fill: none; stroke: #ffffff; stroke-width: 1.5; stroke-linecap: square"/>
     <defs>
      <path id="me5eb2db8b1" d="M 0 4.5 
C 1.193414 4.5 2.338109 4.025852 3.181981 3.181981 
C 4.025852 2.338109 4.5 1.193414 4.5 0 
C 4.5 -1.193414 4.025852 -2.338109 3.181981 -3.181981 
C 2.338109 -4.025852 1.193414 -4.5 0 -4.5 
C -1.193414 -4.5 -2.338109 -4.025852 -3.181981 -3.181981 
C -4.025852 -2.338109 -4.5 -1.193414 -4.5 0 
C -4.5 1.193414 -4.025852 2.338109 -3.181981 3.181981 
C -2.338109 4.025852 -1.193414 4.5 0 4.5 
z
" style="stroke: #ffffff"/>
     </defs>
     <g>
      <use xlink:href="#me5eb2db8b1" x="442.595444" y="220.332719" style="fill: #9a6324; stroke: #ffffff"/>
     </g>
    </g>
    <g id="text_30">
     <!-- nt -->
     <g transform="translate(456.995444 223.132719) scale(0.08 -0.08)">
      <use xlink:href="#DejaVuSans-6e"/>
      <use xlink:href="#DejaVuSans-74" x="63.378906"/>
     </g>
    </g>
    <g id="line2d_28">
     <path d="M 434.595444 232.075219 
L 442.595444 232.075219 
L 450.595444 232.075219 
" style="fill: none; stroke: #ffffff; stroke-width: 1.5; stroke-linecap: square"/>
     <defs>
      <path id="m6c1a021eb5" d="M 0 4.5 
C 1.193414 4.5 2.338109 4.025852 3.181981 3.181981 
C 4.025852 2.338109 4.5 1.193414 4.5 0 
C 4.5 -1.193414 4.025852 -2.338109 3.181981 -3.181981 
C 2.338109 -4.025852 1.193414 -4.5 0 -4.5 
C -1.193414 -4.5 -2.338109 -4.025852 -3.181981 -3.181981 
C -4.025852 -2.338109 -4.5 -1.193414 -4.5 0 
C -4.5 1.193414 -4.025852 2.338109 -3.181981 3.181981 
C -2.338109 4.025852 -1.193414 4.5 0 4.5 
z
" style="stroke: #ffffff"/>
     </defs>
     <g>
      <use xlink:href="#m6c1a021eb5" x="442.595444" y="232.075219" style="fill: #fffac8; stroke: #ffffff"/>
     </g>
    </g>
    <g id="text_31">
     <!-- nu -->
     <g transform="translate(456.995444 234.875219) scale(0.08 -0.08)">
      <defs>
       <path id="DejaVuSans-75" d="M 544 1381 
L 544 3500 
L 1119 3500 
L 1119 1403 
Q 1119 906 1312 657 
Q 1506 409 1894 409 
Q 2359 409 2629 706 
Q 2900 1003 2900 1516 
L 2900 3500 
L 3475 3500 
L 3475 0 
L 2900 0 
L 2900 538 
Q 2691 219 2414 64 
Q 2138 -91 1772 -91 
Q 1169 -91 856 284 
Q 544 659 544 1381 
z
M 1991 3584 
L 1991 3584 
z
" transform="scale(0.015625)"/>
      </defs>
      <use xlink:href="#DejaVuSans-6e"/>
      <use xlink:href="#DejaVuSans-75" x="63.378906"/>
     </g>
    </g>
    <g id="line2d_29">
     <path d="M 434.595444 243.817719 
L 442.595444 243.817719 
L 450.595444 243.817719 
" style="fill: none; stroke: #ffffff; stroke-width: 1.5; stroke-linecap: square"/>
     <defs>
      <path id="mf90916c9dc" d="M 0 4.5 
C 1.193414 4.5 2.338109 4.025852 3.181981 3.181981 
C 4.025852 2.338109 4.5 1.193414 4.5 0 
C 4.5 -1.193414 4.025852 -2.338109 3.181981 -3.181981 
C 2.338109 -4.025852 1.193414 -4.5 0 -4.5 
C -1.193414 -4.5 -2.338109 -4.025852 -3.181981 -3.181981 
C -4.025852 -2.338109 -4.5 -1.193414 -4.5 0 
C -4.5 1.193414 -4.025852 2.338109 -3.181981 3.181981 
C -2.338109 4.025852 -1.193414 4.5 0 4.5 
z
" style="stroke: #ffffff"/>
     </defs>
     <g>
      <use xlink:href="#mf90916c9dc" x="442.595444" y="243.817719" style="fill: #800000; stroke: #ffffff"/>
     </g>
    </g>
    <g id="text_32">
     <!-- nv -->
     <g transform="translate(456.995444 246.617719) scale(0.08 -0.08)">
      <use xlink:href="#DejaVuSans-6e"/>
      <use xlink:href="#DejaVuSans-76" x="63.378906"/>
     </g>
    </g>
   </g>
  </g>
 </g>
 <defs>
  <clipPath id="pe241886b01">
   <rect x="70.809844" y="29.156719" width="357.12" height="266.112"/>
  </clipPath>
 </defs>
</svg>
