<?xml version="1.0" encoding="utf-8" standalone="no"?>
<!DOCTYPE svg PUBLIC "-//W3C//DTD SVG 1.1//EN"
  "http://www.w3.org/Graphics/SVG/1.1/DTD/svg11.dtd">
<svg xmlns:xlink="http://www.w3.org/1999/xlink" width="464.985912pt" height="348.938719pt" viewBox="0 0 464.985912 348.938719" xmlns="http://www.w3.org/2000/svg" version="1.1">
 <metadata>
  <rdf:RDF xmlns:dc="http://purl.org/dc/elements/1.1/" xmlns:cc="http://creativecommons.org/ns#" xmlns:rdf="http://www.w3.org/1999/02/22-rdf-syntax-ns#">
   <cc:Work>
    <dc:type rdf:resource="http://purl.org/dc/dcmitype/StillImage"/>
    <dc:date>2024-06-26T15:12:48.511474</dc:date>
    <dc:format>image/svg+xml</dc:format>
    <dc:creator>
     <cc:Agent>
      <dc:title>Matplotlib v3.8.4, https://matplotlib.org/</dc:title>
     </cc:Agent>
    </dc:creator>
   </cc:Work>
  </rdf:RDF>
 </metadata>
 <defs>
  <style type="text/css">*{stroke-linejoin: round; stroke-linecap: butt}</style>
 </defs>
 <g id="figure_1">
  <g id="patch_1">
   <path d="M 0 348.938719 
L 464.985912 348.938719 
L 464.985912 -0 
L 0 -0 
L 0 348.938719 
z
" style="fill: none"/>
  </g>
  <g id="axes_1">
   <g id="patch_2">
    <path d="M 58.240313 295.268719 
L 415.360313 295.268719 
L 415.360313 29.156719 
L 58.240313 29.156719 
L 58.240313 295.268719 
z
" style="fill: none"/>
   </g>
   <g id="PathCollection_1">
    <defs>
     <path id="C0_0_9b01318f3d" d="M 0 1.5 
C 0.397805 1.5 0.77937 1.341951 1.06066 1.06066 
C 1.341951 0.77937 1.5 0.397805 1.5 -0 
C 1.5 -0.397805 1.341951 -0.77937 1.06066 -1.06066 
C 0.77937 -1.341951 0.397805 -1.5 0 -1.5 
C -0.397805 -1.5 -0.77937 -1.341951 -1.06066 -1.06066 
C -1.341951 -0.77937 -1.5 -0.397805 -1.5 0 
C -1.5 0.397805 -1.341951 0.77937 -1.06066 1.06066 
C -0.77937 1.341951 -0.397805 1.5 0 1.5 
z
"/>
    </defs>
    <g clip-path="url(#p112fad45e7)">
     <use xlink:href="#C0_0_9b01318f3d" x="191.968316" y="139.876013" style="fill: #42d4f4; fill-opacity: 0.8; stroke: #42d4f4; stroke-opacity: 0.8"/>
    </g>
    <g clip-path="url(#p112fad45e7)">
     <use xlink:href="#C0_0_9b01318f3d" x="178.998281" y="126.363164" style="fill: #42d4f4; fill-opacity: 0.8; stroke: #42d4f4; stroke-opacity: 0.8"/>
    </g>
    <g clip-path="url(#p112fad45e7)">
     <use xlink:href="#C0_0_9b01318f3d" x="74.47304" y="270.715756" style="fill: #3cb44b; fill-opacity: 0.8; stroke: #3cb44b; stroke-opacity: 0.8"/>
    </g>
    <g clip-path="url(#p112fad45e7)">
     <use xlink:href="#C0_0_9b01318f3d" x="79.399161" y="267.305165" style="fill: #3cb44b; fill-opacity: 0.8; stroke: #3cb44b; stroke-opacity: 0.8"/>
    </g>
    <g clip-path="url(#p112fad45e7)">
     <use xlink:href="#C0_0_9b01318f3d" x="88.639725" y="283.172719" style="fill: #3cb44b; fill-opacity: 0.8; stroke: #3cb44b; stroke-opacity: 0.8"/>
    </g>
    <g clip-path="url(#p112fad45e7)">
     <use xlink:href="#C0_0_9b01318f3d" x="96.777518" y="274.834709" style="fill: #3cb44b; fill-opacity: 0.8; stroke: #3cb44b; stroke-opacity: 0.8"/>
    </g>
    <g clip-path="url(#p112fad45e7)">
     <use xlink:href="#C0_0_9b01318f3d" x="106.161633" y="278.716219" style="fill: #3cb44b; fill-opacity: 0.8; stroke: #3cb44b; stroke-opacity: 0.8"/>
    </g>
    <g clip-path="url(#p112fad45e7)">
     <use xlink:href="#C0_0_9b01318f3d" x="89.796774" y="269.225447" style="fill: #3cb44b; fill-opacity: 0.8; stroke: #3cb44b; stroke-opacity: 0.8"/>
    </g>
    <g clip-path="url(#p112fad45e7)">
     <use xlink:href="#C0_0_9b01318f3d" x="100.105746" y="265.800688" style="fill: #3cb44b; fill-opacity: 0.8; stroke: #3cb44b; stroke-opacity: 0.8"/>
    </g>
    <g clip-path="url(#p112fad45e7)">
     <use xlink:href="#C0_0_9b01318f3d" x="102.962452" y="191.507353" style="fill: #e6194b; fill-opacity: 0.8; stroke: #e6194b; stroke-opacity: 0.8"/>
    </g>
    <g clip-path="url(#p112fad45e7)">
     <use xlink:href="#C0_0_9b01318f3d" x="113.603712" y="193.922995" style="fill: #e6194b; fill-opacity: 0.8; stroke: #e6194b; stroke-opacity: 0.8"/>
    </g>
    <g clip-path="url(#p112fad45e7)">
     <use xlink:href="#C0_0_9b01318f3d" x="132.623591" y="178.536448" style="fill: #e6194b; fill-opacity: 0.8; stroke: #e6194b; stroke-opacity: 0.8"/>
    </g>
    <g clip-path="url(#p112fad45e7)">
     <use xlink:href="#C0_0_9b01318f3d" x="103.455156" y="175.423422" style="fill: #e6194b; fill-opacity: 0.8; stroke: #e6194b; stroke-opacity: 0.8"/>
    </g>
    <g clip-path="url(#p112fad45e7)">
     <use xlink:href="#C0_0_9b01318f3d" x="115.15832" y="165.534389" style="fill: #e6194b; fill-opacity: 0.8; stroke: #e6194b; stroke-opacity: 0.8"/>
    </g>
    <g clip-path="url(#p112fad45e7)">
     <use xlink:href="#C0_0_9b01318f3d" x="103.438752" y="157.446396" style="fill: #e6194b; fill-opacity: 0.8; stroke: #e6194b; stroke-opacity: 0.8"/>
    </g>
    <g clip-path="url(#p112fad45e7)">
     <use xlink:href="#C0_0_9b01318f3d" x="159.15577" y="233.882249" style="fill: #e6194b; fill-opacity: 0.8; stroke: #e6194b; stroke-opacity: 0.8"/>
    </g>
    <g clip-path="url(#p112fad45e7)">
     <use xlink:href="#C0_0_9b01318f3d" x="219.414473" y="240.820966" style="fill: #e6194b; fill-opacity: 0.8; stroke: #e6194b; stroke-opacity: 0.8"/>
    </g>
    <g clip-path="url(#p112fad45e7)">
     <use xlink:href="#C0_0_9b01318f3d" x="223.837127" y="98.206327" style="fill: #e6194b; fill-opacity: 0.8; stroke: #e6194b; stroke-opacity: 0.8"/>
    </g>
    <g clip-path="url(#p112fad45e7)">
     <use xlink:href="#C0_0_9b01318f3d" x="261.135238" y="110.24793" style="fill: #e6194b; fill-opacity: 0.8; stroke: #e6194b; stroke-opacity: 0.8"/>
    </g>
    <g clip-path="url(#p112fad45e7)">
     <use xlink:href="#C0_0_9b01318f3d" x="258.256775" y="115.605804" style="fill: #e6194b; fill-opacity: 0.8; stroke: #e6194b; stroke-opacity: 0.8"/>
    </g>
    <g clip-path="url(#p112fad45e7)">
     <use xlink:href="#C0_0_9b01318f3d" x="240.242335" y="120.837129" style="fill: #e6194b; fill-opacity: 0.8; stroke: #e6194b; stroke-opacity: 0.8"/>
    </g>
    <g clip-path="url(#p112fad45e7)">
     <use xlink:href="#C0_0_9b01318f3d" x="261.864797" y="133.310003" style="fill: #e6194b; fill-opacity: 0.8; stroke: #e6194b; stroke-opacity: 0.8"/>
    </g>
    <g clip-path="url(#p112fad45e7)">
     <use xlink:href="#C0_0_9b01318f3d" x="257.510236" y="147.201605" style="fill: #e6194b; fill-opacity: 0.8; stroke: #e6194b; stroke-opacity: 0.8"/>
    </g>
    <g clip-path="url(#p112fad45e7)">
     <use xlink:href="#C0_0_9b01318f3d" x="275.503725" y="139.515286" style="fill: #e6194b; fill-opacity: 0.8; stroke: #e6194b; stroke-opacity: 0.8"/>
    </g>
    <g clip-path="url(#p112fad45e7)">
     <use xlink:href="#C0_0_9b01318f3d" x="291.811658" y="142.323737" style="fill: #e6194b; fill-opacity: 0.8; stroke: #e6194b; stroke-opacity: 0.8"/>
    </g>
    <g clip-path="url(#p112fad45e7)">
     <use xlink:href="#C0_0_9b01318f3d" x="300.639122" y="133.318682" style="fill: #e6194b; fill-opacity: 0.8; stroke: #e6194b; stroke-opacity: 0.8"/>
    </g>
    <g clip-path="url(#p112fad45e7)">
     <use xlink:href="#C0_0_9b01318f3d" x="339.970444" y="128.581753" style="fill: #e6194b; fill-opacity: 0.8; stroke: #e6194b; stroke-opacity: 0.8"/>
    </g>
    <g clip-path="url(#p112fad45e7)">
     <use xlink:href="#C0_0_9b01318f3d" x="276.753386" y="71.965135" style="fill: #e6194b; fill-opacity: 0.8; stroke: #e6194b; stroke-opacity: 0.8"/>
    </g>
    <g clip-path="url(#p112fad45e7)">
     <use xlink:href="#C0_0_9b01318f3d" x="292.009028" y="88.704502" style="fill: #e6194b; fill-opacity: 0.8; stroke: #e6194b; stroke-opacity: 0.8"/>
    </g>
    <g clip-path="url(#p112fad45e7)">
     <use xlink:href="#C0_0_9b01318f3d" x="263.437709" y="80.894825" style="fill: #e6194b; fill-opacity: 0.8; stroke: #e6194b; stroke-opacity: 0.8"/>
    </g>
    <g clip-path="url(#p112fad45e7)">
     <use xlink:href="#C0_0_9b01318f3d" x="327.834783" y="95.421983" style="fill: #e6194b; fill-opacity: 0.8; stroke: #e6194b; stroke-opacity: 0.8"/>
    </g>
    <g clip-path="url(#p112fad45e7)">
     <use xlink:href="#C0_0_9b01318f3d" x="334.074398" y="98.54265" style="fill: #e6194b; fill-opacity: 0.8; stroke: #e6194b; stroke-opacity: 0.8"/>
    </g>
    <g clip-path="url(#p112fad45e7)">
     <use xlink:href="#C0_0_9b01318f3d" x="333.279912" y="78.667261" style="fill: #e6194b; fill-opacity: 0.8; stroke: #e6194b; stroke-opacity: 0.8"/>
    </g>
    <g clip-path="url(#p112fad45e7)">
     <use xlink:href="#C0_0_9b01318f3d" x="356.277975" y="81.088281" style="fill: #e6194b; fill-opacity: 0.8; stroke: #e6194b; stroke-opacity: 0.8"/>
    </g>
    <g clip-path="url(#p112fad45e7)">
     <use xlink:href="#C0_0_9b01318f3d" x="369.737088" y="81.372086" style="fill: #e6194b; fill-opacity: 0.8; stroke: #e6194b; stroke-opacity: 0.8"/>
    </g>
    <g clip-path="url(#p112fad45e7)">
     <use xlink:href="#C0_0_9b01318f3d" x="369.330607" y="95.758825" style="fill: #e6194b; fill-opacity: 0.8; stroke: #e6194b; stroke-opacity: 0.8"/>
    </g>
    <g clip-path="url(#p112fad45e7)">
     <use xlink:href="#C0_0_9b01318f3d" x="376.519312" y="99.685064" style="fill: #e6194b; fill-opacity: 0.8; stroke: #e6194b; stroke-opacity: 0.8"/>
    </g>
    <g clip-path="url(#p112fad45e7)">
     <use xlink:href="#C0_0_9b01318f3d" x="116.148506" y="185.06574" style="fill: #e6194b; fill-opacity: 0.8; stroke: #e6194b; stroke-opacity: 0.8"/>
    </g>
    <g clip-path="url(#p112fad45e7)">
     <use xlink:href="#C0_0_9b01318f3d" x="170.532805" y="183.658213" style="fill: #e6194b; fill-opacity: 0.8; stroke: #e6194b; stroke-opacity: 0.8"/>
    </g>
    <g clip-path="url(#p112fad45e7)">
     <use xlink:href="#C0_0_9b01318f3d" x="152.532179" y="187.719011" style="fill: #e6194b; fill-opacity: 0.8; stroke: #e6194b; stroke-opacity: 0.8"/>
    </g>
    <g clip-path="url(#p112fad45e7)">
     <use xlink:href="#C0_0_9b01318f3d" x="151.422386" y="172.197201" style="fill: #e6194b; fill-opacity: 0.8; stroke: #e6194b; stroke-opacity: 0.8"/>
    </g>
    <g clip-path="url(#p112fad45e7)">
     <use xlink:href="#C0_0_9b01318f3d" x="220.353086" y="87.851085" style="fill: #e6194b; fill-opacity: 0.8; stroke: #e6194b; stroke-opacity: 0.8"/>
    </g>
    <g clip-path="url(#p112fad45e7)">
     <use xlink:href="#C0_0_9b01318f3d" x="281.361955" y="76.332436" style="fill: #e6194b; fill-opacity: 0.8; stroke: #e6194b; stroke-opacity: 0.8"/>
    </g>
    <g clip-path="url(#p112fad45e7)">
     <use xlink:href="#C0_0_9b01318f3d" x="294.931581" y="81.661973" style="fill: #e6194b; fill-opacity: 0.8; stroke: #e6194b; stroke-opacity: 0.8"/>
    </g>
    <g clip-path="url(#p112fad45e7)">
     <use xlink:href="#C0_0_9b01318f3d" x="334.662938" y="72.43164" style="fill: #e6194b; fill-opacity: 0.8; stroke: #e6194b; stroke-opacity: 0.8"/>
    </g>
    <g clip-path="url(#p112fad45e7)">
     <use xlink:href="#C0_0_9b01318f3d" x="361.749294" y="89.969681" style="fill: #e6194b; fill-opacity: 0.8; stroke: #e6194b; stroke-opacity: 0.8"/>
    </g>
    <g clip-path="url(#p112fad45e7)">
     <use xlink:href="#C0_0_9b01318f3d" x="399.127585" y="87.099514" style="fill: #e6194b; fill-opacity: 0.8; stroke: #e6194b; stroke-opacity: 0.8"/>
    </g>
    <g clip-path="url(#p112fad45e7)">
     <use xlink:href="#C0_0_9b01318f3d" x="324.310278" y="45.378941" style="fill: #e6194b; fill-opacity: 0.8; stroke: #e6194b; stroke-opacity: 0.8"/>
    </g>
    <g clip-path="url(#p112fad45e7)">
     <use xlink:href="#C0_0_9b01318f3d" x="345.966988" y="41.252719" style="fill: #e6194b; fill-opacity: 0.8; stroke: #e6194b; stroke-opacity: 0.8"/>
    </g>
    <g clip-path="url(#p112fad45e7)">
     <use xlink:href="#C0_0_9b01318f3d" x="354.774306" y="49.202889" style="fill: #e6194b; fill-opacity: 0.8; stroke: #e6194b; stroke-opacity: 0.8"/>
    </g>
    <g clip-path="url(#p112fad45e7)">
     <use xlink:href="#C0_0_9b01318f3d" x="191.161571" y="231.396361" style="fill: #e6194b; fill-opacity: 0.8; stroke: #e6194b; stroke-opacity: 0.8"/>
    </g>
    <g clip-path="url(#p112fad45e7)">
     <use xlink:href="#C0_0_9b01318f3d" x="234.556551" y="233.658195" style="fill: #e6194b; fill-opacity: 0.8; stroke: #e6194b; stroke-opacity: 0.8"/>
    </g>
    <g clip-path="url(#p112fad45e7)">
     <use xlink:href="#C0_0_9b01318f3d" x="224.98134" y="227.025277" style="fill: #e6194b; fill-opacity: 0.8; stroke: #e6194b; stroke-opacity: 0.8"/>
    </g>
    <g clip-path="url(#p112fad45e7)">
     <use xlink:href="#C0_0_9b01318f3d" x="166.366634" y="245.037723" style="fill: #e6194b; fill-opacity: 0.8; stroke: #e6194b; stroke-opacity: 0.8"/>
    </g>
    <g clip-path="url(#p112fad45e7)">
     <use xlink:href="#C0_0_9b01318f3d" x="221.929337" y="188.127064" style="fill: #e6194b; fill-opacity: 0.8; stroke: #e6194b; stroke-opacity: 0.8"/>
    </g>
    <g clip-path="url(#p112fad45e7)">
     <use xlink:href="#C0_0_9b01318f3d" x="234.040824" y="204.381975" style="fill: #e6194b; fill-opacity: 0.8; stroke: #e6194b; stroke-opacity: 0.8"/>
    </g>
    <g clip-path="url(#p112fad45e7)">
     <use xlink:href="#C0_0_9b01318f3d" x="227.679759" y="216.978578" style="fill: #e6194b; fill-opacity: 0.8; stroke: #e6194b; stroke-opacity: 0.8"/>
    </g>
    <g clip-path="url(#p112fad45e7)">
     <use xlink:href="#C0_0_9b01318f3d" x="221.868324" y="209.279611" style="fill: #e6194b; fill-opacity: 0.8; stroke: #e6194b; stroke-opacity: 0.8"/>
    </g>
    <g clip-path="url(#p112fad45e7)">
     <use xlink:href="#C0_0_9b01318f3d" x="209.318987" y="250.520067" style="fill: #e6194b; fill-opacity: 0.8; stroke: #e6194b; stroke-opacity: 0.8"/>
    </g>
    <g clip-path="url(#p112fad45e7)">
     <use xlink:href="#C0_0_9b01318f3d" x="184.533375" y="247.60046" style="fill: #e6194b; fill-opacity: 0.8; stroke: #e6194b; stroke-opacity: 0.8"/>
    </g>
    <g clip-path="url(#p112fad45e7)">
     <use xlink:href="#C0_0_9b01318f3d" x="211.978841" y="113.602331" style="fill: #e6194b; fill-opacity: 0.8; stroke: #e6194b; stroke-opacity: 0.8"/>
    </g>
    <g clip-path="url(#p112fad45e7)">
     <use xlink:href="#C0_0_9b01318f3d" x="220.14173" y="125.777307" style="fill: #e6194b; fill-opacity: 0.8; stroke: #e6194b; stroke-opacity: 0.8"/>
    </g>
    <g clip-path="url(#p112fad45e7)">
     <use xlink:href="#C0_0_9b01318f3d" x="202.769935" y="234.623621" style="fill: #e6194b; fill-opacity: 0.8; stroke: #e6194b; stroke-opacity: 0.8"/>
    </g>
    <g clip-path="url(#p112fad45e7)">
     <use xlink:href="#C0_0_9b01318f3d" x="192.614588" y="255.226658" style="fill: #e6194b; fill-opacity: 0.8; stroke: #e6194b; stroke-opacity: 0.8"/>
    </g>
    <g clip-path="url(#p112fad45e7)">
     <use xlink:href="#C0_0_9b01318f3d" x="234.632874" y="82.424078" style="fill: #e6194b; fill-opacity: 0.8; stroke: #e6194b; stroke-opacity: 0.8"/>
    </g>
    <g clip-path="url(#p112fad45e7)">
     <use xlink:href="#C0_0_9b01318f3d" x="282.003046" y="61.786511" style="fill: #e6194b; fill-opacity: 0.8; stroke: #e6194b; stroke-opacity: 0.8"/>
    </g>
    <g clip-path="url(#p112fad45e7)">
     <use xlink:href="#C0_0_9b01318f3d" x="299.457495" y="62.975954" style="fill: #e6194b; fill-opacity: 0.8; stroke: #e6194b; stroke-opacity: 0.8"/>
    </g>
    <g clip-path="url(#p112fad45e7)">
     <use xlink:href="#C0_0_9b01318f3d" x="346.288512" y="65.079196" style="fill: #e6194b; fill-opacity: 0.8; stroke: #e6194b; stroke-opacity: 0.8"/>
    </g>
    <g clip-path="url(#p112fad45e7)">
     <use xlink:href="#C0_0_9b01318f3d" x="364.923955" y="66.855758" style="fill: #e6194b; fill-opacity: 0.8; stroke: #e6194b; stroke-opacity: 0.8"/>
    </g>
    <g clip-path="url(#p112fad45e7)">
     <use xlink:href="#C0_0_9b01318f3d" x="390.944551" y="93.251759" style="fill: #e6194b; fill-opacity: 0.8; stroke: #e6194b; stroke-opacity: 0.8"/>
    </g>
   </g>
   <g id="matplotlib.axis_1">
    <g id="xtick_1">
     <g id="line2d_1">
      <defs>
       <path id="m44e80042f4" d="M 0 0 
L 0 8 
" style="stroke: #000000; stroke-width: 3"/>
      </defs>
      <g>
       <use xlink:href="#m44e80042f4" x="69.239784" y="295.268719" style="stroke: #000000; stroke-width: 3"/>
      </g>
     </g>
     <g id="text_1">
      <!-- 8 -->
      <g transform="translate(64.467909 318.166375) scale(0.15 -0.15)">
       <defs>
        <path id="DejaVuSans-38" d="M 2034 2216 
Q 1584 2216 1326 1975 
Q 1069 1734 1069 1313 
Q 1069 891 1326 650 
Q 1584 409 2034 409 
Q 2484 409 2743 651 
Q 3003 894 3003 1313 
Q 3003 1734 2745 1975 
Q 2488 2216 2034 2216 
z
M 1403 2484 
Q 997 2584 770 2862 
Q 544 3141 544 3541 
Q 544 4100 942 4425 
Q 1341 4750 2034 4750 
Q 2731 4750 3128 4425 
Q 3525 4100 3525 3541 
Q 3525 3141 3298 2862 
Q 3072 2584 2669 2484 
Q 3125 2378 3379 2068 
Q 3634 1759 3634 1313 
Q 3634 634 3220 271 
Q 2806 -91 2034 -91 
Q 1263 -91 848 271 
Q 434 634 434 1313 
Q 434 1759 690 2068 
Q 947 2378 1403 2484 
z
M 1172 3481 
Q 1172 3119 1398 2916 
Q 1625 2713 2034 2713 
Q 2441 2713 2670 2916 
Q 2900 3119 2900 3481 
Q 2900 3844 2670 4047 
Q 2441 4250 2034 4250 
Q 1625 4250 1398 4047 
Q 1172 3844 1172 3481 
z
" transform="scale(0.015625)"/>
       </defs>
       <use xlink:href="#DejaVuSans-38"/>
      </g>
     </g>
    </g>
    <g id="xtick_2">
     <g id="line2d_2">
      <g>
       <use xlink:href="#m44e80042f4" x="129.594669" y="295.268719" style="stroke: #000000; stroke-width: 3"/>
      </g>
     </g>
     <g id="text_2">
      <!-- 9 -->
      <g transform="translate(124.822794 318.166375) scale(0.15 -0.15)">
       <defs>
        <path id="DejaVuSans-39" d="M 703 97 
L 703 672 
Q 941 559 1184 500 
Q 1428 441 1663 441 
Q 2288 441 2617 861 
Q 2947 1281 2994 2138 
Q 2813 1869 2534 1725 
Q 2256 1581 1919 1581 
Q 1219 1581 811 2004 
Q 403 2428 403 3163 
Q 403 3881 828 4315 
Q 1253 4750 1959 4750 
Q 2769 4750 3195 4129 
Q 3622 3509 3622 2328 
Q 3622 1225 3098 567 
Q 2575 -91 1691 -91 
Q 1453 -91 1209 -44 
Q 966 3 703 97 
z
M 1959 2075 
Q 2384 2075 2632 2365 
Q 2881 2656 2881 3163 
Q 2881 3666 2632 3958 
Q 2384 4250 1959 4250 
Q 1534 4250 1286 3958 
Q 1038 3666 1038 3163 
Q 1038 2656 1286 2365 
Q 1534 2075 1959 2075 
z
" transform="scale(0.015625)"/>
       </defs>
       <use xlink:href="#DejaVuSans-39"/>
      </g>
     </g>
    </g>
    <g id="xtick_3">
     <g id="line2d_3">
      <g>
       <use xlink:href="#m44e80042f4" x="189.949553" y="295.268719" style="stroke: #000000; stroke-width: 3"/>
      </g>
     </g>
     <g id="text_3">
      <!-- 10 -->
      <g transform="translate(180.405803 318.166375) scale(0.15 -0.15)">
       <defs>
        <path id="DejaVuSans-31" d="M 794 531 
L 1825 531 
L 1825 4091 
L 703 3866 
L 703 4441 
L 1819 4666 
L 2450 4666 
L 2450 531 
L 3481 531 
L 3481 0 
L 794 0 
L 794 531 
z
" transform="scale(0.015625)"/>
        <path id="DejaVuSans-30" d="M 2034 4250 
Q 1547 4250 1301 3770 
Q 1056 3291 1056 2328 
Q 1056 1369 1301 889 
Q 1547 409 2034 409 
Q 2525 409 2770 889 
Q 3016 1369 3016 2328 
Q 3016 3291 2770 3770 
Q 2525 4250 2034 4250 
z
M 2034 4750 
Q 2819 4750 3233 4129 
Q 3647 3509 3647 2328 
Q 3647 1150 3233 529 
Q 2819 -91 2034 -91 
Q 1250 -91 836 529 
Q 422 1150 422 2328 
Q 422 3509 836 4129 
Q 1250 4750 2034 4750 
z
" transform="scale(0.015625)"/>
       </defs>
       <use xlink:href="#DejaVuSans-31"/>
       <use xlink:href="#DejaVuSans-30" x="63.623047"/>
      </g>
     </g>
    </g>
    <g id="xtick_4">
     <g id="line2d_4">
      <g>
       <use xlink:href="#m44e80042f4" x="250.304437" y="295.268719" style="stroke: #000000; stroke-width: 3"/>
      </g>
     </g>
     <g id="text_4">
      <!-- 11 -->
      <g transform="translate(240.760687 318.166375) scale(0.15 -0.15)">
       <use xlink:href="#DejaVuSans-31"/>
       <use xlink:href="#DejaVuSans-31" x="63.623047"/>
      </g>
     </g>
    </g>
    <g id="xtick_5">
     <g id="line2d_5">
      <g>
       <use xlink:href="#m44e80042f4" x="310.659321" y="295.268719" style="stroke: #000000; stroke-width: 3"/>
      </g>
     </g>
     <g id="text_5">
      <!-- 12 -->
      <g transform="translate(301.115571 318.166375) scale(0.15 -0.15)">
       <defs>
        <path id="DejaVuSans-32" d="M 1228 531 
L 3431 531 
L 3431 0 
L 469 0 
L 469 531 
Q 828 903 1448 1529 
Q 2069 2156 2228 2338 
Q 2531 2678 2651 2914 
Q 2772 3150 2772 3378 
Q 2772 3750 2511 3984 
Q 2250 4219 1831 4219 
Q 1534 4219 1204 4116 
Q 875 4013 500 3803 
L 500 4441 
Q 881 4594 1212 4672 
Q 1544 4750 1819 4750 
Q 2544 4750 2975 4387 
Q 3406 4025 3406 3419 
Q 3406 3131 3298 2873 
Q 3191 2616 2906 2266 
Q 2828 2175 2409 1742 
Q 1991 1309 1228 531 
z
" transform="scale(0.015625)"/>
       </defs>
       <use xlink:href="#DejaVuSans-31"/>
       <use xlink:href="#DejaVuSans-32" x="63.623047"/>
      </g>
     </g>
    </g>
    <g id="xtick_6">
     <g id="line2d_6">
      <g>
       <use xlink:href="#m44e80042f4" x="371.014205" y="295.268719" style="stroke: #000000; stroke-width: 3"/>
      </g>
     </g>
     <g id="text_6">
      <!-- 13 -->
      <g transform="translate(361.470455 318.166375) scale(0.15 -0.15)">
       <defs>
        <path id="DejaVuSans-33" d="M 2597 2516 
Q 3050 2419 3304 2112 
Q 3559 1806 3559 1356 
Q 3559 666 3084 287 
Q 2609 -91 1734 -91 
Q 1441 -91 1130 -33 
Q 819 25 488 141 
L 488 750 
Q 750 597 1062 519 
Q 1375 441 1716 441 
Q 2309 441 2620 675 
Q 2931 909 2931 1356 
Q 2931 1769 2642 2001 
Q 2353 2234 1838 2234 
L 1294 2234 
L 1294 2753 
L 1863 2753 
Q 2328 2753 2575 2939 
Q 2822 3125 2822 3475 
Q 2822 3834 2567 4026 
Q 2313 4219 1838 4219 
Q 1578 4219 1281 4162 
Q 984 4106 628 3988 
L 628 4550 
Q 988 4650 1302 4700 
Q 1616 4750 1894 4750 
Q 2613 4750 3031 4423 
Q 3450 4097 3450 3541 
Q 3450 3153 3228 2886 
Q 3006 2619 2597 2516 
z
" transform="scale(0.015625)"/>
       </defs>
       <use xlink:href="#DejaVuSans-31"/>
       <use xlink:href="#DejaVuSans-33" x="63.623047"/>
      </g>
     </g>
    </g>
    <g id="text_7">
     <!-- UMAP 1 -->
     <g transform="translate(204.196172 338.20325) scale(0.17 -0.17)">
      <defs>
       <path id="DejaVuSans-55" d="M 556 4666 
L 1191 4666 
L 1191 1831 
Q 1191 1081 1462 751 
Q 1734 422 2344 422 
Q 2950 422 3222 751 
Q 3494 1081 3494 1831 
L 3494 4666 
L 4128 4666 
L 4128 1753 
Q 4128 841 3676 375 
Q 3225 -91 2344 -91 
Q 1459 -91 1007 375 
Q 556 841 556 1753 
L 556 4666 
z
" transform="scale(0.015625)"/>
       <path id="DejaVuSans-4d" d="M 628 4666 
L 1569 4666 
L 2759 1491 
L 3956 4666 
L 4897 4666 
L 4897 0 
L 4281 0 
L 4281 4097 
L 3078 897 
L 2444 897 
L 1241 4097 
L 1241 0 
L 628 0 
L 628 4666 
z
" transform="scale(0.015625)"/>
       <path id="DejaVuSans-41" d="M 2188 4044 
L 1331 1722 
L 3047 1722 
L 2188 4044 
z
M 1831 4666 
L 2547 4666 
L 4325 0 
L 3669 0 
L 3244 1197 
L 1141 1197 
L 716 0 
L 50 0 
L 1831 4666 
z
" transform="scale(0.015625)"/>
       <path id="DejaVuSans-50" d="M 1259 4147 
L 1259 2394 
L 2053 2394 
Q 2494 2394 2734 2622 
Q 2975 2850 2975 3272 
Q 2975 3691 2734 3919 
Q 2494 4147 2053 4147 
L 1259 4147 
z
M 628 4666 
L 2053 4666 
Q 2838 4666 3239 4311 
Q 3641 3956 3641 3272 
Q 3641 2581 3239 2228 
Q 2838 1875 2053 1875 
L 1259 1875 
L 1259 0 
L 628 0 
L 628 4666 
z
" transform="scale(0.015625)"/>
       <path id="DejaVuSans-20" transform="scale(0.015625)"/>
      </defs>
      <use xlink:href="#DejaVuSans-55"/>
      <use xlink:href="#DejaVuSans-4d" x="73.193359"/>
      <use xlink:href="#DejaVuSans-41" x="159.472656"/>
      <use xlink:href="#DejaVuSans-50" x="227.880859"/>
      <use xlink:href="#DejaVuSans-20" x="288.183594"/>
      <use xlink:href="#DejaVuSans-31" x="319.970703"/>
     </g>
    </g>
   </g>
   <g id="matplotlib.axis_2">
    <g id="ytick_1">
     <g id="line2d_7">
      <defs>
       <path id="md66cb9290c" d="M 0 0 
L -8 0 
" style="stroke: #000000; stroke-width: 3"/>
      </defs>
      <g>
       <use xlink:href="#md66cb9290c" x="58.240313" y="265.912288" style="stroke: #000000; stroke-width: 3"/>
      </g>
     </g>
     <g id="text_8">
      <!-- 14 -->
      <g transform="translate(27.652813 271.611117) scale(0.15 -0.15)">
       <defs>
        <path id="DejaVuSans-34" d="M 2419 4116 
L 825 1625 
L 2419 1625 
L 2419 4116 
z
M 2253 4666 
L 3047 4666 
L 3047 1625 
L 3713 1625 
L 3713 1100 
L 3047 1100 
L 3047 0 
L 2419 0 
L 2419 1100 
L 313 1100 
L 313 1709 
L 2253 4666 
z
" transform="scale(0.015625)"/>
       </defs>
       <use xlink:href="#DejaVuSans-31"/>
       <use xlink:href="#DejaVuSans-34" x="63.623047"/>
      </g>
     </g>
    </g>
    <g id="ytick_2">
     <g id="line2d_8">
      <g>
       <use xlink:href="#md66cb9290c" x="58.240313" y="227.021679" style="stroke: #000000; stroke-width: 3"/>
      </g>
     </g>
     <g id="text_9">
      <!-- 15 -->
      <g transform="translate(27.652813 232.720507) scale(0.15 -0.15)">
       <defs>
        <path id="DejaVuSans-35" d="M 691 4666 
L 3169 4666 
L 3169 4134 
L 1269 4134 
L 1269 2991 
Q 1406 3038 1543 3061 
Q 1681 3084 1819 3084 
Q 2600 3084 3056 2656 
Q 3513 2228 3513 1497 
Q 3513 744 3044 326 
Q 2575 -91 1722 -91 
Q 1428 -91 1123 -41 
Q 819 9 494 109 
L 494 744 
Q 775 591 1075 516 
Q 1375 441 1709 441 
Q 2250 441 2565 725 
Q 2881 1009 2881 1497 
Q 2881 1984 2565 2268 
Q 2250 2553 1709 2553 
Q 1456 2553 1204 2497 
Q 953 2441 691 2322 
L 691 4666 
z
" transform="scale(0.015625)"/>
       </defs>
       <use xlink:href="#DejaVuSans-31"/>
       <use xlink:href="#DejaVuSans-35" x="63.623047"/>
      </g>
     </g>
    </g>
    <g id="ytick_3">
     <g id="line2d_9">
      <g>
       <use xlink:href="#md66cb9290c" x="58.240313" y="188.13107" style="stroke: #000000; stroke-width: 3"/>
      </g>
     </g>
     <g id="text_10">
      <!-- 16 -->
      <g transform="translate(27.652813 193.829898) scale(0.15 -0.15)">
       <defs>
        <path id="DejaVuSans-36" d="M 2113 2584 
Q 1688 2584 1439 2293 
Q 1191 2003 1191 1497 
Q 1191 994 1439 701 
Q 1688 409 2113 409 
Q 2538 409 2786 701 
Q 3034 994 3034 1497 
Q 3034 2003 2786 2293 
Q 2538 2584 2113 2584 
z
M 3366 4563 
L 3366 3988 
Q 3128 4100 2886 4159 
Q 2644 4219 2406 4219 
Q 1781 4219 1451 3797 
Q 1122 3375 1075 2522 
Q 1259 2794 1537 2939 
Q 1816 3084 2150 3084 
Q 2853 3084 3261 2657 
Q 3669 2231 3669 1497 
Q 3669 778 3244 343 
Q 2819 -91 2113 -91 
Q 1303 -91 875 529 
Q 447 1150 447 2328 
Q 447 3434 972 4092 
Q 1497 4750 2381 4750 
Q 2619 4750 2861 4703 
Q 3103 4656 3366 4563 
z
" transform="scale(0.015625)"/>
       </defs>
       <use xlink:href="#DejaVuSans-31"/>
       <use xlink:href="#DejaVuSans-36" x="63.623047"/>
      </g>
     </g>
    </g>
    <g id="ytick_4">
     <g id="line2d_10">
      <g>
       <use xlink:href="#md66cb9290c" x="58.240313" y="149.24046" style="stroke: #000000; stroke-width: 3"/>
      </g>
     </g>
     <g id="text_11">
      <!-- 17 -->
      <g transform="translate(27.652813 154.939288) scale(0.15 -0.15)">
       <defs>
        <path id="DejaVuSans-37" d="M 525 4666 
L 3525 4666 
L 3525 4397 
L 1831 0 
L 1172 0 
L 2766 4134 
L 525 4134 
L 525 4666 
z
" transform="scale(0.015625)"/>
       </defs>
       <use xlink:href="#DejaVuSans-31"/>
       <use xlink:href="#DejaVuSans-37" x="63.623047"/>
      </g>
     </g>
    </g>
    <g id="ytick_5">
     <g id="line2d_11">
      <g>
       <use xlink:href="#md66cb9290c" x="58.240313" y="110.349851" style="stroke: #000000; stroke-width: 3"/>
      </g>
     </g>
     <g id="text_12">
      <!-- 18 -->
      <g transform="translate(27.652813 116.048679) scale(0.15 -0.15)">
       <use xlink:href="#DejaVuSans-31"/>
       <use xlink:href="#DejaVuSans-38" x="63.623047"/>
      </g>
     </g>
    </g>
    <g id="ytick_6">
     <g id="line2d_12">
      <g>
       <use xlink:href="#md66cb9290c" x="58.240313" y="71.459241" style="stroke: #000000; stroke-width: 3"/>
      </g>
     </g>
     <g id="text_13">
      <!-- 19 -->
      <g transform="translate(27.652813 77.158069) scale(0.15 -0.15)">
       <use xlink:href="#DejaVuSans-31"/>
       <use xlink:href="#DejaVuSans-39" x="63.623047"/>
      </g>
     </g>
    </g>
    <g id="ytick_7">
     <g id="line2d_13">
      <g>
       <use xlink:href="#md66cb9290c" x="58.240313" y="32.568632" style="stroke: #000000; stroke-width: 3"/>
      </g>
     </g>
     <g id="text_14">
      <!-- 20 -->
      <g transform="translate(27.652813 38.26746) scale(0.15 -0.15)">
       <use xlink:href="#DejaVuSans-32"/>
       <use xlink:href="#DejaVuSans-30" x="63.623047"/>
      </g>
     </g>
    </g>
    <g id="text_15">
     <!-- UMAP 2 -->
     <g transform="translate(20.117344 194.816859) rotate(-90) scale(0.17 -0.17)">
      <use xlink:href="#DejaVuSans-55"/>
      <use xlink:href="#DejaVuSans-4d" x="73.193359"/>
      <use xlink:href="#DejaVuSans-41" x="159.472656"/>
      <use xlink:href="#DejaVuSans-50" x="227.880859"/>
      <use xlink:href="#DejaVuSans-20" x="288.183594"/>
      <use xlink:href="#DejaVuSans-32" x="319.970703"/>
     </g>
    </g>
   </g>
   <g id="patch_3">
    <path d="M 58.240313 295.268719 
L 58.240313 29.156719 
" style="fill: none; stroke: #000000; stroke-width: 2; stroke-linejoin: miter; stroke-linecap: square"/>
   </g>
   <g id="patch_4">
    <path d="M 58.240313 295.268719 
L 415.360312 295.268719 
" style="fill: none; stroke: #000000; stroke-width: 2; stroke-linejoin: miter; stroke-linecap: square"/>
   </g>
   <g id="text_16">
    <!-- UMAP - Embeddings resp. to atom types -->
    <g transform="translate(25.018594 23.156719) scale(0.21 -0.21)">
     <defs>
      <path id="DejaVuSans-2d" d="M 313 2009 
L 1997 2009 
L 1997 1497 
L 313 1497 
L 313 2009 
z
" transform="scale(0.015625)"/>
      <path id="DejaVuSans-45" d="M 628 4666 
L 3578 4666 
L 3578 4134 
L 1259 4134 
L 1259 2753 
L 3481 2753 
L 3481 2222 
L 1259 2222 
L 1259 531 
L 3634 531 
L 3634 0 
L 628 0 
L 628 4666 
z
" transform="scale(0.015625)"/>
      <path id="DejaVuSans-6d" d="M 3328 2828 
Q 3544 3216 3844 3400 
Q 4144 3584 4550 3584 
Q 5097 3584 5394 3201 
Q 5691 2819 5691 2113 
L 5691 0 
L 5113 0 
L 5113 2094 
Q 5113 2597 4934 2840 
Q 4756 3084 4391 3084 
Q 3944 3084 3684 2787 
Q 3425 2491 3425 1978 
L 3425 0 
L 2847 0 
L 2847 2094 
Q 2847 2600 2669 2842 
Q 2491 3084 2119 3084 
Q 1678 3084 1418 2786 
Q 1159 2488 1159 1978 
L 1159 0 
L 581 0 
L 581 3500 
L 1159 3500 
L 1159 2956 
Q 1356 3278 1631 3431 
Q 1906 3584 2284 3584 
Q 2666 3584 2933 3390 
Q 3200 3197 3328 2828 
z
" transform="scale(0.015625)"/>
      <path id="DejaVuSans-62" d="M 3116 1747 
Q 3116 2381 2855 2742 
Q 2594 3103 2138 3103 
Q 1681 3103 1420 2742 
Q 1159 2381 1159 1747 
Q 1159 1113 1420 752 
Q 1681 391 2138 391 
Q 2594 391 2855 752 
Q 3116 1113 3116 1747 
z
M 1159 2969 
Q 1341 3281 1617 3432 
Q 1894 3584 2278 3584 
Q 2916 3584 3314 3078 
Q 3713 2572 3713 1747 
Q 3713 922 3314 415 
Q 2916 -91 2278 -91 
Q 1894 -91 1617 61 
Q 1341 213 1159 525 
L 1159 0 
L 581 0 
L 581 4863 
L 1159 4863 
L 1159 2969 
z
" transform="scale(0.015625)"/>
      <path id="DejaVuSans-65" d="M 3597 1894 
L 3597 1613 
L 953 1613 
Q 991 1019 1311 708 
Q 1631 397 2203 397 
Q 2534 397 2845 478 
Q 3156 559 3463 722 
L 3463 178 
Q 3153 47 2828 -22 
Q 2503 -91 2169 -91 
Q 1331 -91 842 396 
Q 353 884 353 1716 
Q 353 2575 817 3079 
Q 1281 3584 2069 3584 
Q 2775 3584 3186 3129 
Q 3597 2675 3597 1894 
z
M 3022 2063 
Q 3016 2534 2758 2815 
Q 2500 3097 2075 3097 
Q 1594 3097 1305 2825 
Q 1016 2553 972 2059 
L 3022 2063 
z
" transform="scale(0.015625)"/>
      <path id="DejaVuSans-64" d="M 2906 2969 
L 2906 4863 
L 3481 4863 
L 3481 0 
L 2906 0 
L 2906 525 
Q 2725 213 2448 61 
Q 2172 -91 1784 -91 
Q 1150 -91 751 415 
Q 353 922 353 1747 
Q 353 2572 751 3078 
Q 1150 3584 1784 3584 
Q 2172 3584 2448 3432 
Q 2725 3281 2906 2969 
z
M 947 1747 
Q 947 1113 1208 752 
Q 1469 391 1925 391 
Q 2381 391 2643 752 
Q 2906 1113 2906 1747 
Q 2906 2381 2643 2742 
Q 2381 3103 1925 3103 
Q 1469 3103 1208 2742 
Q 947 2381 947 1747 
z
" transform="scale(0.015625)"/>
      <path id="DejaVuSans-69" d="M 603 3500 
L 1178 3500 
L 1178 0 
L 603 0 
L 603 3500 
z
M 603 4863 
L 1178 4863 
L 1178 4134 
L 603 4134 
L 603 4863 
z
" transform="scale(0.015625)"/>
      <path id="DejaVuSans-6e" d="M 3513 2113 
L 3513 0 
L 2938 0 
L 2938 2094 
Q 2938 2591 2744 2837 
Q 2550 3084 2163 3084 
Q 1697 3084 1428 2787 
Q 1159 2491 1159 1978 
L 1159 0 
L 581 0 
L 581 3500 
L 1159 3500 
L 1159 2956 
Q 1366 3272 1645 3428 
Q 1925 3584 2291 3584 
Q 2894 3584 3203 3211 
Q 3513 2838 3513 2113 
z
" transform="scale(0.015625)"/>
      <path id="DejaVuSans-67" d="M 2906 1791 
Q 2906 2416 2648 2759 
Q 2391 3103 1925 3103 
Q 1463 3103 1205 2759 
Q 947 2416 947 1791 
Q 947 1169 1205 825 
Q 1463 481 1925 481 
Q 2391 481 2648 825 
Q 2906 1169 2906 1791 
z
M 3481 434 
Q 3481 -459 3084 -895 
Q 2688 -1331 1869 -1331 
Q 1566 -1331 1297 -1286 
Q 1028 -1241 775 -1147 
L 775 -588 
Q 1028 -725 1275 -790 
Q 1522 -856 1778 -856 
Q 2344 -856 2625 -561 
Q 2906 -266 2906 331 
L 2906 616 
Q 2728 306 2450 153 
Q 2172 0 1784 0 
Q 1141 0 747 490 
Q 353 981 353 1791 
Q 353 2603 747 3093 
Q 1141 3584 1784 3584 
Q 2172 3584 2450 3431 
Q 2728 3278 2906 2969 
L 2906 3500 
L 3481 3500 
L 3481 434 
z
" transform="scale(0.015625)"/>
      <path id="DejaVuSans-73" d="M 2834 3397 
L 2834 2853 
Q 2591 2978 2328 3040 
Q 2066 3103 1784 3103 
Q 1356 3103 1142 2972 
Q 928 2841 928 2578 
Q 928 2378 1081 2264 
Q 1234 2150 1697 2047 
L 1894 2003 
Q 2506 1872 2764 1633 
Q 3022 1394 3022 966 
Q 3022 478 2636 193 
Q 2250 -91 1575 -91 
Q 1294 -91 989 -36 
Q 684 19 347 128 
L 347 722 
Q 666 556 975 473 
Q 1284 391 1588 391 
Q 1994 391 2212 530 
Q 2431 669 2431 922 
Q 2431 1156 2273 1281 
Q 2116 1406 1581 1522 
L 1381 1569 
Q 847 1681 609 1914 
Q 372 2147 372 2553 
Q 372 3047 722 3315 
Q 1072 3584 1716 3584 
Q 2034 3584 2315 3537 
Q 2597 3491 2834 3397 
z
" transform="scale(0.015625)"/>
      <path id="DejaVuSans-72" d="M 2631 2963 
Q 2534 3019 2420 3045 
Q 2306 3072 2169 3072 
Q 1681 3072 1420 2755 
Q 1159 2438 1159 1844 
L 1159 0 
L 581 0 
L 581 3500 
L 1159 3500 
L 1159 2956 
Q 1341 3275 1631 3429 
Q 1922 3584 2338 3584 
Q 2397 3584 2469 3576 
Q 2541 3569 2628 3553 
L 2631 2963 
z
" transform="scale(0.015625)"/>
      <path id="DejaVuSans-70" d="M 1159 525 
L 1159 -1331 
L 581 -1331 
L 581 3500 
L 1159 3500 
L 1159 2969 
Q 1341 3281 1617 3432 
Q 1894 3584 2278 3584 
Q 2916 3584 3314 3078 
Q 3713 2572 3713 1747 
Q 3713 922 3314 415 
Q 2916 -91 2278 -91 
Q 1894 -91 1617 61 
Q 1341 213 1159 525 
z
M 3116 1747 
Q 3116 2381 2855 2742 
Q 2594 3103 2138 3103 
Q 1681 3103 1420 2742 
Q 1159 2381 1159 1747 
Q 1159 1113 1420 752 
Q 1681 391 2138 391 
Q 2594 391 2855 752 
Q 3116 1113 3116 1747 
z
" transform="scale(0.015625)"/>
      <path id="DejaVuSans-2e" d="M 684 794 
L 1344 794 
L 1344 0 
L 684 0 
L 684 794 
z
" transform="scale(0.015625)"/>
      <path id="DejaVuSans-74" d="M 1172 4494 
L 1172 3500 
L 2356 3500 
L 2356 3053 
L 1172 3053 
L 1172 1153 
Q 1172 725 1289 603 
Q 1406 481 1766 481 
L 2356 481 
L 2356 0 
L 1766 0 
Q 1100 0 847 248 
Q 594 497 594 1153 
L 594 3053 
L 172 3053 
L 172 3500 
L 594 3500 
L 594 4494 
L 1172 4494 
z
" transform="scale(0.015625)"/>
      <path id="DejaVuSans-6f" d="M 1959 3097 
Q 1497 3097 1228 2736 
Q 959 2375 959 1747 
Q 959 1119 1226 758 
Q 1494 397 1959 397 
Q 2419 397 2687 759 
Q 2956 1122 2956 1747 
Q 2956 2369 2687 2733 
Q 2419 3097 1959 3097 
z
M 1959 3584 
Q 2709 3584 3137 3096 
Q 3566 2609 3566 1747 
Q 3566 888 3137 398 
Q 2709 -91 1959 -91 
Q 1206 -91 779 398 
Q 353 888 353 1747 
Q 353 2609 779 3096 
Q 1206 3584 1959 3584 
z
" transform="scale(0.015625)"/>
      <path id="DejaVuSans-61" d="M 2194 1759 
Q 1497 1759 1228 1600 
Q 959 1441 959 1056 
Q 959 750 1161 570 
Q 1363 391 1709 391 
Q 2188 391 2477 730 
Q 2766 1069 2766 1631 
L 2766 1759 
L 2194 1759 
z
M 3341 1997 
L 3341 0 
L 2766 0 
L 2766 531 
Q 2569 213 2275 61 
Q 1981 -91 1556 -91 
Q 1019 -91 701 211 
Q 384 513 384 1019 
Q 384 1609 779 1909 
Q 1175 2209 1959 2209 
L 2766 2209 
L 2766 2266 
Q 2766 2663 2505 2880 
Q 2244 3097 1772 3097 
Q 1472 3097 1187 3025 
Q 903 2953 641 2809 
L 641 3341 
Q 956 3463 1253 3523 
Q 1550 3584 1831 3584 
Q 2591 3584 2966 3190 
Q 3341 2797 3341 1997 
z
" transform="scale(0.015625)"/>
      <path id="DejaVuSans-79" d="M 2059 -325 
Q 1816 -950 1584 -1140 
Q 1353 -1331 966 -1331 
L 506 -1331 
L 506 -850 
L 844 -850 
Q 1081 -850 1212 -737 
Q 1344 -625 1503 -206 
L 1606 56 
L 191 3500 
L 800 3500 
L 1894 763 
L 2988 3500 
L 3597 3500 
L 2059 -325 
z
" transform="scale(0.015625)"/>
     </defs>
     <use xlink:href="#DejaVuSans-55"/>
     <use xlink:href="#DejaVuSans-4d" x="73.193359"/>
     <use xlink:href="#DejaVuSans-41" x="159.472656"/>
     <use xlink:href="#DejaVuSans-50" x="227.880859"/>
     <use xlink:href="#DejaVuSans-20" x="288.183594"/>
     <use xlink:href="#DejaVuSans-2d" x="319.970703"/>
     <use xlink:href="#DejaVuSans-20" x="356.054688"/>
     <use xlink:href="#DejaVuSans-45" x="387.841797"/>
     <use xlink:href="#DejaVuSans-6d" x="451.025391"/>
     <use xlink:href="#DejaVuSans-62" x="548.4375"/>
     <use xlink:href="#DejaVuSans-65" x="611.914062"/>
     <use xlink:href="#DejaVuSans-64" x="673.4375"/>
     <use xlink:href="#DejaVuSans-64" x="736.914062"/>
     <use xlink:href="#DejaVuSans-69" x="800.390625"/>
     <use xlink:href="#DejaVuSans-6e" x="828.173828"/>
     <use xlink:href="#DejaVuSans-67" x="891.552734"/>
     <use xlink:href="#DejaVuSans-73" x="955.029297"/>
     <use xlink:href="#DejaVuSans-20" x="1007.128906"/>
     <use xlink:href="#DejaVuSans-72" x="1038.916016"/>
     <use xlink:href="#DejaVuSans-65" x="1077.779297"/>
     <use xlink:href="#DejaVuSans-73" x="1139.302734"/>
     <use xlink:href="#DejaVuSans-70" x="1191.402344"/>
     <use xlink:href="#DejaVuSans-2e" x="1254.878906"/>
     <use xlink:href="#DejaVuSans-20" x="1286.666016"/>
     <use xlink:href="#DejaVuSans-74" x="1318.453125"/>
     <use xlink:href="#DejaVuSans-6f" x="1357.662109"/>
     <use xlink:href="#DejaVuSans-20" x="1418.84375"/>
     <use xlink:href="#DejaVuSans-61" x="1450.630859"/>
     <use xlink:href="#DejaVuSans-74" x="1511.910156"/>
     <use xlink:href="#DejaVuSans-6f" x="1551.119141"/>
     <use xlink:href="#DejaVuSans-6d" x="1612.300781"/>
     <use xlink:href="#DejaVuSans-20" x="1709.712891"/>
     <use xlink:href="#DejaVuSans-74" x="1741.5"/>
     <use xlink:href="#DejaVuSans-79" x="1780.708984"/>
     <use xlink:href="#DejaVuSans-70" x="1839.888672"/>
     <use xlink:href="#DejaVuSans-65" x="1903.365234"/>
     <use xlink:href="#DejaVuSans-73" x="1964.888672"/>
    </g>
   </g>
   <g id="legend_1">
    <g id="patch_5">
     <path d="M 420.417163 222.125219 
L 456.185912 222.125219 
Q 457.785912 222.125219 457.785912 220.525219 
L 457.785912 103.900219 
Q 457.785912 102.300219 456.185912 102.300219 
L 420.417163 102.300219 
Q 418.817162 102.300219 418.817162 103.900219 
L 418.817162 220.525219 
Q 418.817162 222.125219 420.417163 222.125219 
z
" style="fill: #ffffff; opacity: 0.8; stroke: #cccccc; stroke-linejoin: miter"/>
    </g>
    <g id="line2d_14">
     <path d="M 422.017162 108.778969 
L 430.017162 108.778969 
L 438.017162 108.778969 
" style="fill: none; stroke: #ffffff; stroke-width: 1.5; stroke-linecap: square"/>
     <defs>
      <path id="mdacd9d60c3" d="M 0 4.5 
C 1.193414 4.5 2.338109 4.025852 3.181981 3.181981 
C 4.025852 2.338109 4.5 1.193414 4.5 0 
C 4.5 -1.193414 4.025852 -2.338109 3.181981 -3.181981 
C 2.338109 -4.025852 1.193414 -4.5 0 -4.5 
C -1.193414 -4.5 -2.338109 -4.025852 -3.181981 -3.181981 
C -4.025852 -2.338109 -4.5 -1.193414 -4.5 0 
C -4.5 1.193414 -4.025852 2.338109 -3.181981 3.181981 
C -2.338109 4.025852 -1.193414 4.5 0 4.5 
z
" style="stroke: #ffffff"/>
     </defs>
     <g>
      <use xlink:href="#mdacd9d60c3" x="430.017162" y="108.778969" style="fill: #e6194b; stroke: #ffffff"/>
     </g>
    </g>
    <g id="text_17">
     <!-- cl -->
     <g transform="translate(444.417162 111.578969) scale(0.08 -0.08)">
      <defs>
       <path id="DejaVuSans-63" d="M 3122 3366 
L 3122 2828 
Q 2878 2963 2633 3030 
Q 2388 3097 2138 3097 
Q 1578 3097 1268 2742 
Q 959 2388 959 1747 
Q 959 1106 1268 751 
Q 1578 397 2138 397 
Q 2388 397 2633 464 
Q 2878 531 3122 666 
L 3122 134 
Q 2881 22 2623 -34 
Q 2366 -91 2075 -91 
Q 1284 -91 818 406 
Q 353 903 353 1747 
Q 353 2603 823 3093 
Q 1294 3584 2113 3584 
Q 2378 3584 2631 3529 
Q 2884 3475 3122 3366 
z
" transform="scale(0.015625)"/>
       <path id="DejaVuSans-6c" d="M 603 4863 
L 1178 4863 
L 1178 0 
L 603 0 
L 603 4863 
z
" transform="scale(0.015625)"/>
      </defs>
      <use xlink:href="#DejaVuSans-63"/>
      <use xlink:href="#DejaVuSans-6c" x="54.980469"/>
     </g>
    </g>
    <g id="line2d_15">
     <path d="M 422.017162 120.521469 
L 430.017162 120.521469 
L 438.017162 120.521469 
" style="fill: none; stroke: #ffffff; stroke-width: 1.5; stroke-linecap: square"/>
     <defs>
      <path id="m650f3bfd41" d="M 0 4.5 
C 1.193414 4.5 2.338109 4.025852 3.181981 3.181981 
C 4.025852 2.338109 4.5 1.193414 4.5 0 
C 4.5 -1.193414 4.025852 -2.338109 3.181981 -3.181981 
C 2.338109 -4.025852 1.193414 -4.5 0 -4.5 
C -1.193414 -4.5 -2.338109 -4.025852 -3.181981 -3.181981 
C -4.025852 -2.338109 -4.5 -1.193414 -4.5 0 
C -4.5 1.193414 -4.025852 2.338109 -3.181981 3.181981 
C -2.338109 4.025852 -1.193414 4.5 0 4.5 
z
" style="stroke: #ffffff"/>
     </defs>
     <g>
      <use xlink:href="#m650f3bfd41" x="430.017162" y="120.521469" style="fill: #3cb44b; stroke: #ffffff"/>
     </g>
    </g>
    <g id="text_18">
     <!-- f -->
     <g transform="translate(444.417162 123.321469) scale(0.08 -0.08)">
      <defs>
       <path id="DejaVuSans-66" d="M 2375 4863 
L 2375 4384 
L 1825 4384 
Q 1516 4384 1395 4259 
Q 1275 4134 1275 3809 
L 1275 3500 
L 2222 3500 
L 2222 3053 
L 1275 3053 
L 1275 0 
L 697 0 
L 697 3053 
L 147 3053 
L 147 3500 
L 697 3500 
L 697 3744 
Q 697 4328 969 4595 
Q 1241 4863 1831 4863 
L 2375 4863 
z
" transform="scale(0.015625)"/>
      </defs>
      <use xlink:href="#DejaVuSans-66"/>
     </g>
    </g>
    <g id="line2d_16">
     <path d="M 422.017162 132.263969 
L 430.017162 132.263969 
L 438.017162 132.263969 
" style="fill: none; stroke: #ffffff; stroke-width: 1.5; stroke-linecap: square"/>
     <defs>
      <path id="m18e87d4767" d="M 0 4.5 
C 1.193414 4.5 2.338109 4.025852 3.181981 3.181981 
C 4.025852 2.338109 4.5 1.193414 4.5 0 
C 4.5 -1.193414 4.025852 -2.338109 3.181981 -3.181981 
C 2.338109 -4.025852 1.193414 -4.5 0 -4.5 
C -1.193414 -4.5 -2.338109 -4.025852 -3.181981 -3.181981 
C -4.025852 -2.338109 -4.5 -1.193414 -4.5 0 
C -4.5 1.193414 -4.025852 2.338109 -3.181981 3.181981 
C -2.338109 4.025852 -1.193414 4.5 0 4.5 
z
" style="stroke: #ffffff"/>
     </defs>
     <g>
      <use xlink:href="#m18e87d4767" x="430.017162" y="132.263969" style="fill: #ffe119; stroke: #ffffff"/>
     </g>
    </g>
    <g id="text_19">
     <!-- o -->
     <g transform="translate(444.417162 135.063969) scale(0.08 -0.08)">
      <use xlink:href="#DejaVuSans-6f"/>
     </g>
    </g>
    <g id="line2d_17">
     <path d="M 422.017162 144.006469 
L 430.017162 144.006469 
L 438.017162 144.006469 
" style="fill: none; stroke: #ffffff; stroke-width: 1.5; stroke-linecap: square"/>
     <defs>
      <path id="m962ca9b75a" d="M 0 4.5 
C 1.193414 4.5 2.338109 4.025852 3.181981 3.181981 
C 4.025852 2.338109 4.5 1.193414 4.5 0 
C 4.5 -1.193414 4.025852 -2.338109 3.181981 -3.181981 
C 2.338109 -4.025852 1.193414 -4.5 0 -4.5 
C -1.193414 -4.5 -2.338109 -4.025852 -3.181981 -3.181981 
C -4.025852 -2.338109 -4.5 -1.193414 -4.5 0 
C -4.5 1.193414 -4.025852 2.338109 -3.181981 3.181981 
C -2.338109 4.025852 -1.193414 4.5 0 4.5 
z
" style="stroke: #ffffff"/>
     </defs>
     <g>
      <use xlink:href="#m962ca9b75a" x="430.017162" y="144.006469" style="fill: #4363d8; stroke: #ffffff"/>
     </g>
    </g>
    <g id="text_20">
     <!-- oh -->
     <g transform="translate(444.417162 146.806469) scale(0.08 -0.08)">
      <defs>
       <path id="DejaVuSans-68" d="M 3513 2113 
L 3513 0 
L 2938 0 
L 2938 2094 
Q 2938 2591 2744 2837 
Q 2550 3084 2163 3084 
Q 1697 3084 1428 2787 
Q 1159 2491 1159 1978 
L 1159 0 
L 581 0 
L 581 4863 
L 1159 4863 
L 1159 2956 
Q 1366 3272 1645 3428 
Q 1925 3584 2291 3584 
Q 2894 3584 3203 3211 
Q 3513 2838 3513 2113 
z
" transform="scale(0.015625)"/>
      </defs>
      <use xlink:href="#DejaVuSans-6f"/>
      <use xlink:href="#DejaVuSans-68" x="61.181641"/>
     </g>
    </g>
    <g id="line2d_18">
     <path d="M 422.017162 155.748969 
L 430.017162 155.748969 
L 438.017162 155.748969 
" style="fill: none; stroke: #ffffff; stroke-width: 1.5; stroke-linecap: square"/>
     <defs>
      <path id="m2fe7c52095" d="M 0 4.5 
C 1.193414 4.5 2.338109 4.025852 3.181981 3.181981 
C 4.025852 2.338109 4.5 1.193414 4.5 0 
C 4.5 -1.193414 4.025852 -2.338109 3.181981 -3.181981 
C 2.338109 -4.025852 1.193414 -4.5 0 -4.5 
C -1.193414 -4.5 -2.338109 -4.025852 -3.181981 -3.181981 
C -4.025852 -2.338109 -4.5 -1.193414 -4.5 0 
C -4.5 1.193414 -4.025852 2.338109 -3.181981 3.181981 
C -2.338109 4.025852 -1.193414 4.5 0 4.5 
z
" style="stroke: #ffffff"/>
     </defs>
     <g>
      <use xlink:href="#m2fe7c52095" x="430.017162" y="155.748969" style="fill: #f58231; stroke: #ffffff"/>
     </g>
    </g>
    <g id="text_21">
     <!-- op -->
     <g transform="translate(444.417162 158.548969) scale(0.08 -0.08)">
      <use xlink:href="#DejaVuSans-6f"/>
      <use xlink:href="#DejaVuSans-70" x="61.181641"/>
     </g>
    </g>
    <g id="line2d_19">
     <path d="M 422.017162 167.491469 
L 430.017162 167.491469 
L 438.017162 167.491469 
" style="fill: none; stroke: #ffffff; stroke-width: 1.5; stroke-linecap: square"/>
     <defs>
      <path id="m4ad6317e92" d="M 0 4.5 
C 1.193414 4.5 2.338109 4.025852 3.181981 3.181981 
C 4.025852 2.338109 4.5 1.193414 4.5 0 
C 4.5 -1.193414 4.025852 -2.338109 3.181981 -3.181981 
C 2.338109 -4.025852 1.193414 -4.5 0 -4.5 
C -1.193414 -4.5 -2.338109 -4.025852 -3.181981 -3.181981 
C -4.025852 -2.338109 -4.5 -1.193414 -4.5 0 
C -4.5 1.193414 -4.025852 2.338109 -3.181981 3.181981 
C -2.338109 4.025852 -1.193414 4.5 0 4.5 
z
" style="stroke: #ffffff"/>
     </defs>
     <g>
      <use xlink:href="#m4ad6317e92" x="430.017162" y="167.491469" style="fill: #911eb4; stroke: #ffffff"/>
     </g>
    </g>
    <g id="text_22">
     <!-- os -->
     <g transform="translate(444.417162 170.291469) scale(0.08 -0.08)">
      <use xlink:href="#DejaVuSans-6f"/>
      <use xlink:href="#DejaVuSans-73" x="61.181641"/>
     </g>
    </g>
    <g id="line2d_20">
     <path d="M 422.017162 179.233969 
L 430.017162 179.233969 
L 438.017162 179.233969 
" style="fill: none; stroke: #ffffff; stroke-width: 1.5; stroke-linecap: square"/>
     <defs>
      <path id="m8a1122f752" d="M 0 4.5 
C 1.193414 4.5 2.338109 4.025852 3.181981 3.181981 
C 4.025852 2.338109 4.5 1.193414 4.5 0 
C 4.5 -1.193414 4.025852 -2.338109 3.181981 -3.181981 
C 2.338109 -4.025852 1.193414 -4.5 0 -4.5 
C -1.193414 -4.5 -2.338109 -4.025852 -3.181981 -3.181981 
C -4.025852 -2.338109 -4.5 -1.193414 -4.5 0 
C -4.5 1.193414 -4.025852 2.338109 -3.181981 3.181981 
C -2.338109 4.025852 -1.193414 4.5 0 4.5 
z
" style="stroke: #ffffff"/>
     </defs>
     <g>
      <use xlink:href="#m8a1122f752" x="430.017162" y="179.233969" style="fill: #42d4f4; stroke: #ffffff"/>
     </g>
    </g>
    <g id="text_23">
     <!-- p5 -->
     <g transform="translate(444.417162 182.033969) scale(0.08 -0.08)">
      <use xlink:href="#DejaVuSans-70"/>
      <use xlink:href="#DejaVuSans-35" x="63.476562"/>
     </g>
    </g>
    <g id="line2d_21">
     <path d="M 422.017162 190.976469 
L 430.017162 190.976469 
L 438.017162 190.976469 
" style="fill: none; stroke: #ffffff; stroke-width: 1.5; stroke-linecap: square"/>
     <defs>
      <path id="mec3231ed9c" d="M 0 4.5 
C 1.193414 4.5 2.338109 4.025852 3.181981 3.181981 
C 4.025852 2.338109 4.5 1.193414 4.5 0 
C 4.5 -1.193414 4.025852 -2.338109 3.181981 -3.181981 
C 2.338109 -4.025852 1.193414 -4.5 0 -4.5 
C -1.193414 -4.5 -2.338109 -4.025852 -3.181981 -3.181981 
C -4.025852 -2.338109 -4.5 -1.193414 -4.5 0 
C -4.5 1.193414 -4.025852 2.338109 -3.181981 3.181981 
C -2.338109 4.025852 -1.193414 4.5 0 4.5 
z
" style="stroke: #ffffff"/>
     </defs>
     <g>
      <use xlink:href="#mec3231ed9c" x="430.017162" y="190.976469" style="fill: #f032e6; stroke: #ffffff"/>
     </g>
    </g>
    <g id="text_24">
     <!-- s -->
     <g transform="translate(444.417162 193.776469) scale(0.08 -0.08)">
      <use xlink:href="#DejaVuSans-73"/>
     </g>
    </g>
    <g id="line2d_22">
     <path d="M 422.017162 202.718969 
L 430.017162 202.718969 
L 438.017162 202.718969 
" style="fill: none; stroke: #ffffff; stroke-width: 1.5; stroke-linecap: square"/>
     <defs>
      <path id="md1be651e51" d="M 0 4.5 
C 1.193414 4.5 2.338109 4.025852 3.181981 3.181981 
C 4.025852 2.338109 4.5 1.193414 4.5 0 
C 4.5 -1.193414 4.025852 -2.338109 3.181981 -3.181981 
C 2.338109 -4.025852 1.193414 -4.5 0 -4.5 
C -1.193414 -4.5 -2.338109 -4.025852 -3.181981 -3.181981 
C -4.025852 -2.338109 -4.5 -1.193414 -4.5 0 
C -4.5 1.193414 -4.025852 2.338109 -3.181981 3.181981 
C -2.338109 4.025852 -1.193414 4.5 0 4.5 
z
" style="stroke: #ffffff"/>
     </defs>
     <g>
      <use xlink:href="#md1be651e51" x="430.017162" y="202.718969" style="fill: #bfef45; stroke: #ffffff"/>
     </g>
    </g>
    <g id="text_25">
     <!-- ss -->
     <g transform="translate(444.417162 205.518969) scale(0.08 -0.08)">
      <use xlink:href="#DejaVuSans-73"/>
      <use xlink:href="#DejaVuSans-73" x="52.099609"/>
     </g>
    </g>
    <g id="line2d_23">
     <path d="M 422.017162 214.461469 
L 430.017162 214.461469 
L 438.017162 214.461469 
" style="fill: none; stroke: #ffffff; stroke-width: 1.5; stroke-linecap: square"/>
     <defs>
      <path id="m51b2cb72c2" d="M 0 4.5 
C 1.193414 4.5 2.338109 4.025852 3.181981 3.181981 
C 4.025852 2.338109 4.5 1.193414 4.5 0 
C 4.5 -1.193414 4.025852 -2.338109 3.181981 -3.181981 
C 2.338109 -4.025852 1.193414 -4.5 0 -4.5 
C -1.193414 -4.5 -2.338109 -4.025852 -3.181981 -3.181981 
C -4.025852 -2.338109 -4.5 -1.193414 -4.5 0 
C -4.5 1.193414 -4.025852 2.338109 -3.181981 3.181981 
C -2.338109 4.025852 -1.193414 4.5 0 4.5 
z
" style="stroke: #ffffff"/>
     </defs>
     <g>
      <use xlink:href="#m51b2cb72c2" x="430.017162" y="214.461469" style="fill: #fabed4; stroke: #ffffff"/>
     </g>
    </g>
    <g id="text_26">
     <!-- sy -->
     <g transform="translate(444.417162 217.261469) scale(0.08 -0.08)">
      <use xlink:href="#DejaVuSans-73"/>
      <use xlink:href="#DejaVuSans-79" x="52.099609"/>
     </g>
    </g>
   </g>
  </g>
 </g>
 <defs>
  <clipPath id="p112fad45e7">
   <rect x="58.240313" y="29.156719" width="357.12" height="266.112"/>
  </clipPath>
 </defs>
</svg>
