<?xml version="1.0" encoding="utf-8" standalone="no"?>
<!DOCTYPE svg PUBLIC "-//W3C//DTD SVG 1.1//EN"
  "http://www.w3.org/Graphics/SVG/1.1/DTD/svg11.dtd">
<svg xmlns:xlink="http://www.w3.org/1999/xlink" width="479.68125pt" height="348.938719pt" viewBox="0 0 479.68125 348.938719" xmlns="http://www.w3.org/2000/svg" version="1.1">
 <metadata>
  <rdf:RDF xmlns:dc="http://purl.org/dc/elements/1.1/" xmlns:cc="http://creativecommons.org/ns#" xmlns:rdf="http://www.w3.org/1999/02/22-rdf-syntax-ns#">
   <cc:Work>
    <dc:type rdf:resource="http://purl.org/dc/dcmitype/StillImage"/>
    <dc:date>2024-06-26T14:20:25.117767</dc:date>
    <dc:format>image/svg+xml</dc:format>
    <dc:creator>
     <cc:Agent>
      <dc:title>Matplotlib v3.8.4, https://matplotlib.org/</dc:title>
     </cc:Agent>
    </dc:creator>
   </cc:Work>
  </rdf:RDF>
 </metadata>
 <defs>
  <style type="text/css">*{stroke-linejoin: round; stroke-linecap: butt}</style>
 </defs>
 <g id="figure_1">
  <g id="patch_1">
   <path d="M 0 348.938719 
L 479.68125 348.938719 
L 479.68125 -0 
L 0 -0 
L 0 348.938719 
z
" style="fill: none"/>
  </g>
  <g id="axes_1">
   <g id="patch_2">
    <path d="M 61.280625 295.268719 
L 418.400625 295.268719 
L 418.400625 29.156719 
L 61.280625 29.156719 
L 61.280625 295.268719 
z
" style="fill: none"/>
   </g>
   <g id="PathCollection_1">
    <defs>
     <path id="C0_0_384f03fba2" d="M 0 1.5 
C 0.397805 1.5 0.77937 1.341951 1.06066 1.06066 
C 1.341951 0.77937 1.5 0.397805 1.5 -0 
C 1.5 -0.397805 1.341951 -0.77937 1.06066 -1.06066 
C 0.77937 -1.341951 0.397805 -1.5 0 -1.5 
C -0.397805 -1.5 -0.77937 -1.341951 -1.06066 -1.06066 
C -1.341951 -0.77937 -1.5 -0.397805 -1.5 0 
C -1.5 0.397805 -1.341951 0.77937 -1.06066 1.06066 
C -0.77937 1.341951 -0.397805 1.5 0 1.5 
z
"/>
    </defs>
    <g clip-path="url(#pa85dc28f89)">
     <use xlink:href="#C0_0_384f03fba2" x="311.867146" y="232.595743" style="fill: #dcbeff; fill-opacity: 0.8; stroke: #dcbeff; stroke-opacity: 0.8"/>
    </g>
    <g clip-path="url(#pa85dc28f89)">
     <use xlink:href="#C0_0_384f03fba2" x="306.072326" y="200.602332" style="fill: #bfef45; fill-opacity: 0.8; stroke: #bfef45; stroke-opacity: 0.8"/>
    </g>
    <g clip-path="url(#pa85dc28f89)">
     <use xlink:href="#C0_0_384f03fba2" x="391.065234" y="193.435884" style="fill: #42d4f4; fill-opacity: 0.8; stroke: #42d4f4; stroke-opacity: 0.8"/>
    </g>
    <g clip-path="url(#pa85dc28f89)">
     <use xlink:href="#C0_0_384f03fba2" x="315.451084" y="206.846062" style="fill: #bfef45; fill-opacity: 0.8; stroke: #bfef45; stroke-opacity: 0.8"/>
    </g>
    <g clip-path="url(#pa85dc28f89)">
     <use xlink:href="#C0_0_384f03fba2" x="217.49042" y="178.787252" style="fill: #f58231; fill-opacity: 0.8; stroke: #f58231; stroke-opacity: 0.8"/>
    </g>
    <g clip-path="url(#pa85dc28f89)">
     <use xlink:href="#C0_0_384f03fba2" x="319.741674" y="207.237716" style="fill: #bfef45; fill-opacity: 0.8; stroke: #bfef45; stroke-opacity: 0.8"/>
    </g>
    <g clip-path="url(#pa85dc28f89)">
     <use xlink:href="#C0_0_384f03fba2" x="121.154748" y="152.956661" style="fill: #e6194b; fill-opacity: 0.8; stroke: #e6194b; stroke-opacity: 0.8"/>
    </g>
    <g clip-path="url(#pa85dc28f89)">
     <use xlink:href="#C0_0_384f03fba2" x="135.625073" y="262.898935" style="fill: #dcbeff; fill-opacity: 0.8; stroke: #dcbeff; stroke-opacity: 0.8"/>
    </g>
    <g clip-path="url(#pa85dc28f89)">
     <use xlink:href="#C0_0_384f03fba2" x="380.541771" y="179.628179" style="fill: #42d4f4; fill-opacity: 0.8; stroke: #42d4f4; stroke-opacity: 0.8"/>
    </g>
    <g clip-path="url(#pa85dc28f89)">
     <use xlink:href="#C0_0_384f03fba2" x="399.551706" y="194.691038" style="fill: #42d4f4; fill-opacity: 0.8; stroke: #42d4f4; stroke-opacity: 0.8"/>
    </g>
    <g clip-path="url(#pa85dc28f89)">
     <use xlink:href="#C0_0_384f03fba2" x="185.51997" y="73.82345" style="fill: #911eb4; fill-opacity: 0.8; stroke: #911eb4; stroke-opacity: 0.8"/>
    </g>
    <g clip-path="url(#pa85dc28f89)">
     <use xlink:href="#C0_0_384f03fba2" x="398.041651" y="199.967267" style="fill: #42d4f4; fill-opacity: 0.8; stroke: #42d4f4; stroke-opacity: 0.8"/>
    </g>
    <g clip-path="url(#pa85dc28f89)">
     <use xlink:href="#C0_0_384f03fba2" x="133.665603" y="158.338914" style="fill: #e6194b; fill-opacity: 0.8; stroke: #e6194b; stroke-opacity: 0.8"/>
    </g>
    <g clip-path="url(#pa85dc28f89)">
     <use xlink:href="#C0_0_384f03fba2" x="391.821788" y="190.126409" style="fill: #42d4f4; fill-opacity: 0.8; stroke: #42d4f4; stroke-opacity: 0.8"/>
    </g>
    <g clip-path="url(#pa85dc28f89)">
     <use xlink:href="#C0_0_384f03fba2" x="116.318647" y="156.40453" style="fill: #e6194b; fill-opacity: 0.8; stroke: #e6194b; stroke-opacity: 0.8"/>
    </g>
    <g clip-path="url(#pa85dc28f89)">
     <use xlink:href="#C0_0_384f03fba2" x="125.918817" y="256.350984" style="fill: #dcbeff; fill-opacity: 0.8; stroke: #dcbeff; stroke-opacity: 0.8"/>
    </g>
    <g clip-path="url(#pa85dc28f89)">
     <use xlink:href="#C0_0_384f03fba2" x="125.231868" y="255.522406" style="fill: #dcbeff; fill-opacity: 0.8; stroke: #dcbeff; stroke-opacity: 0.8"/>
    </g>
    <g clip-path="url(#pa85dc28f89)">
     <use xlink:href="#C0_0_384f03fba2" x="80.826777" y="153.050281" style="fill: #800000; fill-opacity: 0.8; stroke: #800000; stroke-opacity: 0.8"/>
    </g>
    <g clip-path="url(#pa85dc28f89)">
     <use xlink:href="#C0_0_384f03fba2" x="386.350257" y="187.502556" style="fill: #42d4f4; fill-opacity: 0.8; stroke: #42d4f4; stroke-opacity: 0.8"/>
    </g>
    <g clip-path="url(#pa85dc28f89)">
     <use xlink:href="#C0_0_384f03fba2" x="136.075627" y="258.333334" style="fill: #dcbeff; fill-opacity: 0.8; stroke: #dcbeff; stroke-opacity: 0.8"/>
    </g>
    <g clip-path="url(#pa85dc28f89)">
     <use xlink:href="#C0_0_384f03fba2" x="206.336235" y="220.633102" style="fill: #42d4f4; fill-opacity: 0.8; stroke: #42d4f4; stroke-opacity: 0.8"/>
    </g>
    <g clip-path="url(#pa85dc28f89)">
     <use xlink:href="#C0_0_384f03fba2" x="144.248763" y="127.212473" style="fill: #fabed4; fill-opacity: 0.8; stroke: #fabed4; stroke-opacity: 0.8"/>
    </g>
    <g clip-path="url(#pa85dc28f89)">
     <use xlink:href="#C0_0_384f03fba2" x="317.218057" y="215.13435" style="fill: #bfef45; fill-opacity: 0.8; stroke: #bfef45; stroke-opacity: 0.8"/>
    </g>
    <g clip-path="url(#pa85dc28f89)">
     <use xlink:href="#C0_0_384f03fba2" x="125.324871" y="156.619278" style="fill: #e6194b; fill-opacity: 0.8; stroke: #e6194b; stroke-opacity: 0.8"/>
    </g>
    <g clip-path="url(#pa85dc28f89)">
     <use xlink:href="#C0_0_384f03fba2" x="129.797868" y="69.880596" style="fill: #fffac8; fill-opacity: 0.8; stroke: #fffac8; stroke-opacity: 0.8"/>
    </g>
    <g clip-path="url(#pa85dc28f89)">
     <use xlink:href="#C0_0_384f03fba2" x="288.316018" y="86.369115" style="fill: #469990; fill-opacity: 0.8; stroke: #469990; stroke-opacity: 0.8"/>
    </g>
    <g clip-path="url(#pa85dc28f89)">
     <use xlink:href="#C0_0_384f03fba2" x="305.318899" y="201.695337" style="fill: #bfef45; fill-opacity: 0.8; stroke: #bfef45; stroke-opacity: 0.8"/>
    </g>
    <g clip-path="url(#pa85dc28f89)">
     <use xlink:href="#C0_0_384f03fba2" x="281.841116" y="225.65098" style="fill: #4363d8; fill-opacity: 0.8; stroke: #4363d8; stroke-opacity: 0.8"/>
    </g>
    <g clip-path="url(#pa85dc28f89)">
     <use xlink:href="#C0_0_384f03fba2" x="204.910504" y="239.066605" style="fill: #f032e6; fill-opacity: 0.8; stroke: #f032e6; stroke-opacity: 0.8"/>
    </g>
    <g clip-path="url(#pa85dc28f89)">
     <use xlink:href="#C0_0_384f03fba2" x="174.716441" y="41.252719" style="fill: #911eb4; fill-opacity: 0.8; stroke: #911eb4; stroke-opacity: 0.8"/>
    </g>
    <g clip-path="url(#pa85dc28f89)">
     <use xlink:href="#C0_0_384f03fba2" x="133.468895" y="260.222121" style="fill: #dcbeff; fill-opacity: 0.8; stroke: #dcbeff; stroke-opacity: 0.8"/>
    </g>
    <g clip-path="url(#pa85dc28f89)">
     <use xlink:href="#C0_0_384f03fba2" x="217.812186" y="174.33444" style="fill: #f58231; fill-opacity: 0.8; stroke: #f58231; stroke-opacity: 0.8"/>
    </g>
    <g clip-path="url(#pa85dc28f89)">
     <use xlink:href="#C0_0_384f03fba2" x="126.144357" y="257.800431" style="fill: #dcbeff; fill-opacity: 0.8; stroke: #dcbeff; stroke-opacity: 0.8"/>
    </g>
    <g clip-path="url(#pa85dc28f89)">
     <use xlink:href="#C0_0_384f03fba2" x="402.167898" y="199.35664" style="fill: #42d4f4; fill-opacity: 0.8; stroke: #42d4f4; stroke-opacity: 0.8"/>
    </g>
    <g clip-path="url(#pa85dc28f89)">
     <use xlink:href="#C0_0_384f03fba2" x="387.726221" y="186.980525" style="fill: #42d4f4; fill-opacity: 0.8; stroke: #42d4f4; stroke-opacity: 0.8"/>
    </g>
    <g clip-path="url(#pa85dc28f89)">
     <use xlink:href="#C0_0_384f03fba2" x="321.979929" y="218.218182" style="fill: #bfef45; fill-opacity: 0.8; stroke: #bfef45; stroke-opacity: 0.8"/>
    </g>
    <g clip-path="url(#pa85dc28f89)">
     <use xlink:href="#C0_0_384f03fba2" x="393.23301" y="194.231825" style="fill: #42d4f4; fill-opacity: 0.8; stroke: #42d4f4; stroke-opacity: 0.8"/>
    </g>
    <g clip-path="url(#pa85dc28f89)">
     <use xlink:href="#C0_0_384f03fba2" x="126.279077" y="158.178794" style="fill: #e6194b; fill-opacity: 0.8; stroke: #e6194b; stroke-opacity: 0.8"/>
    </g>
    <g clip-path="url(#pa85dc28f89)">
     <use xlink:href="#C0_0_384f03fba2" x="124.879306" y="256.626619" style="fill: #dcbeff; fill-opacity: 0.8; stroke: #dcbeff; stroke-opacity: 0.8"/>
    </g>
    <g clip-path="url(#pa85dc28f89)">
     <use xlink:href="#C0_0_384f03fba2" x="390.92712" y="193.413277" style="fill: #42d4f4; fill-opacity: 0.8; stroke: #42d4f4; stroke-opacity: 0.8"/>
    </g>
    <g clip-path="url(#pa85dc28f89)">
     <use xlink:href="#C0_0_384f03fba2" x="131.044705" y="254.236885" style="fill: #dcbeff; fill-opacity: 0.8; stroke: #dcbeff; stroke-opacity: 0.8"/>
    </g>
    <g clip-path="url(#pa85dc28f89)">
     <use xlink:href="#C0_0_384f03fba2" x="389.734361" y="192.994454" style="fill: #42d4f4; fill-opacity: 0.8; stroke: #42d4f4; stroke-opacity: 0.8"/>
    </g>
    <g clip-path="url(#pa85dc28f89)">
     <use xlink:href="#C0_0_384f03fba2" x="383.81309" y="195.982398" style="fill: #42d4f4; fill-opacity: 0.8; stroke: #42d4f4; stroke-opacity: 0.8"/>
    </g>
    <g clip-path="url(#pa85dc28f89)">
     <use xlink:href="#C0_0_384f03fba2" x="121.102793" y="64.111685" style="fill: #e6194b; fill-opacity: 0.8; stroke: #e6194b; stroke-opacity: 0.8"/>
    </g>
    <g clip-path="url(#pa85dc28f89)">
     <use xlink:href="#C0_0_384f03fba2" x="153.774983" y="260.601214" style="fill: #e6194b; fill-opacity: 0.8; stroke: #e6194b; stroke-opacity: 0.8"/>
    </g>
    <g clip-path="url(#pa85dc28f89)">
     <use xlink:href="#C0_0_384f03fba2" x="331.910123" y="203.131243" style="fill: #bfef45; fill-opacity: 0.8; stroke: #bfef45; stroke-opacity: 0.8"/>
    </g>
    <g clip-path="url(#pa85dc28f89)">
     <use xlink:href="#C0_0_384f03fba2" x="126.660206" y="255.690047" style="fill: #dcbeff; fill-opacity: 0.8; stroke: #dcbeff; stroke-opacity: 0.8"/>
    </g>
    <g clip-path="url(#pa85dc28f89)">
     <use xlink:href="#C0_0_384f03fba2" x="130.078999" y="65.297695" style="fill: #fffac8; fill-opacity: 0.8; stroke: #fffac8; stroke-opacity: 0.8"/>
    </g>
    <g clip-path="url(#pa85dc28f89)">
     <use xlink:href="#C0_0_384f03fba2" x="124.270581" y="266.992658" style="fill: #dcbeff; fill-opacity: 0.8; stroke: #dcbeff; stroke-opacity: 0.8"/>
    </g>
    <g clip-path="url(#pa85dc28f89)">
     <use xlink:href="#C0_0_384f03fba2" x="122.147113" y="249.829126" style="fill: #3cb44b; fill-opacity: 0.8; stroke: #3cb44b; stroke-opacity: 0.8"/>
    </g>
    <g clip-path="url(#pa85dc28f89)">
     <use xlink:href="#C0_0_384f03fba2" x="173.261686" y="54.729402" style="fill: #911eb4; fill-opacity: 0.8; stroke: #911eb4; stroke-opacity: 0.8"/>
    </g>
    <g clip-path="url(#pa85dc28f89)">
     <use xlink:href="#C0_0_384f03fba2" x="179.562152" y="57.022243" style="fill: #911eb4; fill-opacity: 0.8; stroke: #911eb4; stroke-opacity: 0.8"/>
    </g>
    <g clip-path="url(#pa85dc28f89)">
     <use xlink:href="#C0_0_384f03fba2" x="132.545862" y="252.93754" style="fill: #dcbeff; fill-opacity: 0.8; stroke: #dcbeff; stroke-opacity: 0.8"/>
    </g>
    <g clip-path="url(#pa85dc28f89)">
     <use xlink:href="#C0_0_384f03fba2" x="128.420444" y="252.833472" style="fill: #dcbeff; fill-opacity: 0.8; stroke: #dcbeff; stroke-opacity: 0.8"/>
    </g>
    <g clip-path="url(#pa85dc28f89)">
     <use xlink:href="#C0_0_384f03fba2" x="394.458337" y="196.653909" style="fill: #42d4f4; fill-opacity: 0.8; stroke: #42d4f4; stroke-opacity: 0.8"/>
    </g>
    <g clip-path="url(#pa85dc28f89)">
     <use xlink:href="#C0_0_384f03fba2" x="317.610961" y="207.966577" style="fill: #bfef45; fill-opacity: 0.8; stroke: #bfef45; stroke-opacity: 0.8"/>
    </g>
    <g clip-path="url(#pa85dc28f89)">
     <use xlink:href="#C0_0_384f03fba2" x="261.787416" y="192.216575" style="fill: #9a6324; fill-opacity: 0.8; stroke: #9a6324; stroke-opacity: 0.8"/>
    </g>
    <g clip-path="url(#pa85dc28f89)">
     <use xlink:href="#C0_0_384f03fba2" x="120.339193" y="256.012417" style="fill: #3cb44b; fill-opacity: 0.8; stroke: #3cb44b; stroke-opacity: 0.8"/>
    </g>
    <g clip-path="url(#pa85dc28f89)">
     <use xlink:href="#C0_0_384f03fba2" x="319.759342" y="195.895139" style="fill: #bfef45; fill-opacity: 0.8; stroke: #bfef45; stroke-opacity: 0.8"/>
    </g>
    <g clip-path="url(#pa85dc28f89)">
     <use xlink:href="#C0_0_384f03fba2" x="138.869811" y="283.172719" style="fill: #dcbeff; fill-opacity: 0.8; stroke: #dcbeff; stroke-opacity: 0.8"/>
    </g>
    <g clip-path="url(#pa85dc28f89)">
     <use xlink:href="#C0_0_384f03fba2" x="309" y="197.956452" style="fill: #bfef45; fill-opacity: 0.8; stroke: #bfef45; stroke-opacity: 0.8"/>
    </g>
    <g clip-path="url(#pa85dc28f89)">
     <use xlink:href="#C0_0_384f03fba2" x="183.054781" y="65.414368" style="fill: #911eb4; fill-opacity: 0.8; stroke: #911eb4; stroke-opacity: 0.8"/>
    </g>
    <g clip-path="url(#pa85dc28f89)">
     <use xlink:href="#C0_0_384f03fba2" x="175.031425" y="211.39255" style="fill: #f032e6; fill-opacity: 0.8; stroke: #f032e6; stroke-opacity: 0.8"/>
    </g>
    <g clip-path="url(#pa85dc28f89)">
     <use xlink:href="#C0_0_384f03fba2" x="177.430346" y="52.017555" style="fill: #911eb4; fill-opacity: 0.8; stroke: #911eb4; stroke-opacity: 0.8"/>
    </g>
    <g clip-path="url(#pa85dc28f89)">
     <use xlink:href="#C0_0_384f03fba2" x="135.119627" y="119.460505" style="fill: #fabed4; fill-opacity: 0.8; stroke: #fabed4; stroke-opacity: 0.8"/>
    </g>
    <g clip-path="url(#pa85dc28f89)">
     <use xlink:href="#C0_0_384f03fba2" x="175.135924" y="54.321927" style="fill: #911eb4; fill-opacity: 0.8; stroke: #911eb4; stroke-opacity: 0.8"/>
    </g>
    <g clip-path="url(#pa85dc28f89)">
     <use xlink:href="#C0_0_384f03fba2" x="321.238617" y="201.252903" style="fill: #bfef45; fill-opacity: 0.8; stroke: #bfef45; stroke-opacity: 0.8"/>
    </g>
    <g clip-path="url(#pa85dc28f89)">
     <use xlink:href="#C0_0_384f03fba2" x="392.236561" y="193.60993" style="fill: #42d4f4; fill-opacity: 0.8; stroke: #42d4f4; stroke-opacity: 0.8"/>
    </g>
    <g clip-path="url(#pa85dc28f89)">
     <use xlink:href="#C0_0_384f03fba2" x="398.622911" y="197.445918" style="fill: #42d4f4; fill-opacity: 0.8; stroke: #42d4f4; stroke-opacity: 0.8"/>
    </g>
    <g clip-path="url(#pa85dc28f89)">
     <use xlink:href="#C0_0_384f03fba2" x="176.990524" y="50.135918" style="fill: #911eb4; fill-opacity: 0.8; stroke: #911eb4; stroke-opacity: 0.8"/>
    </g>
    <g clip-path="url(#pa85dc28f89)">
     <use xlink:href="#C0_0_384f03fba2" x="133.482783" y="255.916606" style="fill: #dcbeff; fill-opacity: 0.8; stroke: #dcbeff; stroke-opacity: 0.8"/>
    </g>
    <g clip-path="url(#pa85dc28f89)">
     <use xlink:href="#C0_0_384f03fba2" x="129.536108" y="168.854992" style="fill: #e6194b; fill-opacity: 0.8; stroke: #e6194b; stroke-opacity: 0.8"/>
    </g>
    <g clip-path="url(#pa85dc28f89)">
     <use xlink:href="#C0_0_384f03fba2" x="133.094332" y="251.346308" style="fill: #dcbeff; fill-opacity: 0.8; stroke: #dcbeff; stroke-opacity: 0.8"/>
    </g>
    <g clip-path="url(#pa85dc28f89)">
     <use xlink:href="#C0_0_384f03fba2" x="186.942759" y="222.060935" style="fill: #f032e6; fill-opacity: 0.8; stroke: #f032e6; stroke-opacity: 0.8"/>
    </g>
    <g clip-path="url(#pa85dc28f89)">
     <use xlink:href="#C0_0_384f03fba2" x="293.58507" y="93.515637" style="fill: #469990; fill-opacity: 0.8; stroke: #469990; stroke-opacity: 0.8"/>
    </g>
    <g clip-path="url(#pa85dc28f89)">
     <use xlink:href="#C0_0_384f03fba2" x="120.412347" y="257.486744" style="fill: #3cb44b; fill-opacity: 0.8; stroke: #3cb44b; stroke-opacity: 0.8"/>
    </g>
    <g clip-path="url(#pa85dc28f89)">
     <use xlink:href="#C0_0_384f03fba2" x="187.25036" y="50.754781" style="fill: #911eb4; fill-opacity: 0.8; stroke: #911eb4; stroke-opacity: 0.8"/>
    </g>
    <g clip-path="url(#pa85dc28f89)">
     <use xlink:href="#C0_0_384f03fba2" x="128.766214" y="257.05222" style="fill: #dcbeff; fill-opacity: 0.8; stroke: #dcbeff; stroke-opacity: 0.8"/>
    </g>
    <g clip-path="url(#pa85dc28f89)">
     <use xlink:href="#C0_0_384f03fba2" x="127.49621" y="260.499597" style="fill: #dcbeff; fill-opacity: 0.8; stroke: #dcbeff; stroke-opacity: 0.8"/>
    </g>
    <g clip-path="url(#pa85dc28f89)">
     <use xlink:href="#C0_0_384f03fba2" x="133.803741" y="158.835718" style="fill: #e6194b; fill-opacity: 0.8; stroke: #e6194b; stroke-opacity: 0.8"/>
    </g>
    <g clip-path="url(#pa85dc28f89)">
     <use xlink:href="#C0_0_384f03fba2" x="316.223968" y="208.809004" style="fill: #bfef45; fill-opacity: 0.8; stroke: #bfef45; stroke-opacity: 0.8"/>
    </g>
    <g clip-path="url(#pa85dc28f89)">
     <use xlink:href="#C0_0_384f03fba2" x="392.261816" y="194.658751" style="fill: #42d4f4; fill-opacity: 0.8; stroke: #42d4f4; stroke-opacity: 0.8"/>
    </g>
    <g clip-path="url(#pa85dc28f89)">
     <use xlink:href="#C0_0_384f03fba2" x="135.153268" y="257.53174" style="fill: #dcbeff; fill-opacity: 0.8; stroke: #dcbeff; stroke-opacity: 0.8"/>
    </g>
    <g clip-path="url(#pa85dc28f89)">
     <use xlink:href="#C0_0_384f03fba2" x="391.862652" y="196.59503" style="fill: #42d4f4; fill-opacity: 0.8; stroke: #42d4f4; stroke-opacity: 0.8"/>
    </g>
    <g clip-path="url(#pa85dc28f89)">
     <use xlink:href="#C0_0_384f03fba2" x="77.513352" y="149.760197" style="fill: #800000; fill-opacity: 0.8; stroke: #800000; stroke-opacity: 0.8"/>
    </g>
    <g clip-path="url(#pa85dc28f89)">
     <use xlink:href="#C0_0_384f03fba2" x="136.203732" y="273.234251" style="fill: #dcbeff; fill-opacity: 0.8; stroke: #dcbeff; stroke-opacity: 0.8"/>
    </g>
    <g clip-path="url(#pa85dc28f89)">
     <use xlink:href="#C0_0_384f03fba2" x="115.086077" y="230.014841" style="fill: #dcbeff; fill-opacity: 0.8; stroke: #dcbeff; stroke-opacity: 0.8"/>
    </g>
    <g clip-path="url(#pa85dc28f89)">
     <use xlink:href="#C0_0_384f03fba2" x="402.119481" y="205.326503" style="fill: #42d4f4; fill-opacity: 0.8; stroke: #42d4f4; stroke-opacity: 0.8"/>
    </g>
    <g clip-path="url(#pa85dc28f89)">
     <use xlink:href="#C0_0_384f03fba2" x="131.158385" y="256.300777" style="fill: #dcbeff; fill-opacity: 0.8; stroke: #dcbeff; stroke-opacity: 0.8"/>
    </g>
    <g clip-path="url(#pa85dc28f89)">
     <use xlink:href="#C0_0_384f03fba2" x="135.364999" y="259.634396" style="fill: #dcbeff; fill-opacity: 0.8; stroke: #dcbeff; stroke-opacity: 0.8"/>
    </g>
    <g clip-path="url(#pa85dc28f89)">
     <use xlink:href="#C0_0_384f03fba2" x="130.076923" y="251.986718" style="fill: #dcbeff; fill-opacity: 0.8; stroke: #dcbeff; stroke-opacity: 0.8"/>
    </g>
    <g clip-path="url(#pa85dc28f89)">
     <use xlink:href="#C0_0_384f03fba2" x="168.4449" y="135.539988" style="fill: #911eb4; fill-opacity: 0.8; stroke: #911eb4; stroke-opacity: 0.8"/>
    </g>
    <g clip-path="url(#pa85dc28f89)">
     <use xlink:href="#C0_0_384f03fba2" x="97.478081" y="144.672504" style="fill: #dcbeff; fill-opacity: 0.8; stroke: #dcbeff; stroke-opacity: 0.8"/>
    </g>
    <g clip-path="url(#pa85dc28f89)">
     <use xlink:href="#C0_0_384f03fba2" x="128.716617" y="263.555132" style="fill: #ffe119; fill-opacity: 0.8; stroke: #ffe119; stroke-opacity: 0.8"/>
    </g>
    <g clip-path="url(#pa85dc28f89)">
     <use xlink:href="#C0_0_384f03fba2" x="173.944235" y="43.986003" style="fill: #911eb4; fill-opacity: 0.8; stroke: #911eb4; stroke-opacity: 0.8"/>
    </g>
    <g clip-path="url(#pa85dc28f89)">
     <use xlink:href="#C0_0_384f03fba2" x="123.282948" y="245.706739" style="fill: #dcbeff; fill-opacity: 0.8; stroke: #dcbeff; stroke-opacity: 0.8"/>
    </g>
    <g clip-path="url(#pa85dc28f89)">
     <use xlink:href="#C0_0_384f03fba2" x="181.979767" y="56.108693" style="fill: #911eb4; fill-opacity: 0.8; stroke: #911eb4; stroke-opacity: 0.8"/>
    </g>
    <g clip-path="url(#pa85dc28f89)">
     <use xlink:href="#C0_0_384f03fba2" x="134.58183" y="69.313314" style="fill: #fffac8; fill-opacity: 0.8; stroke: #fffac8; stroke-opacity: 0.8"/>
    </g>
    <g clip-path="url(#pa85dc28f89)">
     <use xlink:href="#C0_0_384f03fba2" x="318.088261" y="208.734139" style="fill: #bfef45; fill-opacity: 0.8; stroke: #bfef45; stroke-opacity: 0.8"/>
    </g>
    <g clip-path="url(#pa85dc28f89)">
     <use xlink:href="#C0_0_384f03fba2" x="125.857996" y="252.043959" style="fill: #dcbeff; fill-opacity: 0.8; stroke: #dcbeff; stroke-opacity: 0.8"/>
    </g>
    <g clip-path="url(#pa85dc28f89)">
     <use xlink:href="#C0_0_384f03fba2" x="121.605624" y="158.61107" style="fill: #e6194b; fill-opacity: 0.8; stroke: #e6194b; stroke-opacity: 0.8"/>
    </g>
   </g>
   <g id="matplotlib.axis_1">
    <g id="xtick_1">
     <g id="line2d_1">
      <defs>
       <path id="mdecb4b07d5" d="M 0 0 
L 0 8 
" style="stroke: #000000; stroke-width: 3"/>
      </defs>
      <g>
       <use xlink:href="#mdecb4b07d5" x="102.866501" y="295.268719" style="stroke: #000000; stroke-width: 3"/>
      </g>
     </g>
     <g id="text_1">
      <!-- −4 -->
      <g transform="translate(91.80986 318.166375) scale(0.15 -0.15)">
       <defs>
        <path id="DejaVuSans-2212" d="M 678 2272 
L 4684 2272 
L 4684 1741 
L 678 1741 
L 678 2272 
z
" transform="scale(0.015625)"/>
        <path id="DejaVuSans-34" d="M 2419 4116 
L 825 1625 
L 2419 1625 
L 2419 4116 
z
M 2253 4666 
L 3047 4666 
L 3047 1625 
L 3713 1625 
L 3713 1100 
L 3047 1100 
L 3047 0 
L 2419 0 
L 2419 1100 
L 313 1100 
L 313 1709 
L 2253 4666 
z
" transform="scale(0.015625)"/>
       </defs>
       <use xlink:href="#DejaVuSans-2212"/>
       <use xlink:href="#DejaVuSans-34" x="83.789062"/>
      </g>
     </g>
    </g>
    <g id="xtick_2">
     <g id="line2d_2">
      <g>
       <use xlink:href="#mdecb4b07d5" x="159.935066" y="295.268719" style="stroke: #000000; stroke-width: 3"/>
      </g>
     </g>
     <g id="text_2">
      <!-- −2 -->
      <g transform="translate(148.878425 318.166375) scale(0.15 -0.15)">
       <defs>
        <path id="DejaVuSans-32" d="M 1228 531 
L 3431 531 
L 3431 0 
L 469 0 
L 469 531 
Q 828 903 1448 1529 
Q 2069 2156 2228 2338 
Q 2531 2678 2651 2914 
Q 2772 3150 2772 3378 
Q 2772 3750 2511 3984 
Q 2250 4219 1831 4219 
Q 1534 4219 1204 4116 
Q 875 4013 500 3803 
L 500 4441 
Q 881 4594 1212 4672 
Q 1544 4750 1819 4750 
Q 2544 4750 2975 4387 
Q 3406 4025 3406 3419 
Q 3406 3131 3298 2873 
Q 3191 2616 2906 2266 
Q 2828 2175 2409 1742 
Q 1991 1309 1228 531 
z
" transform="scale(0.015625)"/>
       </defs>
       <use xlink:href="#DejaVuSans-2212"/>
       <use xlink:href="#DejaVuSans-32" x="83.789062"/>
      </g>
     </g>
    </g>
    <g id="xtick_3">
     <g id="line2d_3">
      <g>
       <use xlink:href="#mdecb4b07d5" x="217.00363" y="295.268719" style="stroke: #000000; stroke-width: 3"/>
      </g>
     </g>
     <g id="text_3">
      <!-- 0 -->
      <g transform="translate(212.231755 318.166375) scale(0.15 -0.15)">
       <defs>
        <path id="DejaVuSans-30" d="M 2034 4250 
Q 1547 4250 1301 3770 
Q 1056 3291 1056 2328 
Q 1056 1369 1301 889 
Q 1547 409 2034 409 
Q 2525 409 2770 889 
Q 3016 1369 3016 2328 
Q 3016 3291 2770 3770 
Q 2525 4250 2034 4250 
z
M 2034 4750 
Q 2819 4750 3233 4129 
Q 3647 3509 3647 2328 
Q 3647 1150 3233 529 
Q 2819 -91 2034 -91 
Q 1250 -91 836 529 
Q 422 1150 422 2328 
Q 422 3509 836 4129 
Q 1250 4750 2034 4750 
z
" transform="scale(0.015625)"/>
       </defs>
       <use xlink:href="#DejaVuSans-30"/>
      </g>
     </g>
    </g>
    <g id="xtick_4">
     <g id="line2d_4">
      <g>
       <use xlink:href="#mdecb4b07d5" x="274.072195" y="295.268719" style="stroke: #000000; stroke-width: 3"/>
      </g>
     </g>
     <g id="text_4">
      <!-- 2 -->
      <g transform="translate(269.30032 318.166375) scale(0.15 -0.15)">
       <use xlink:href="#DejaVuSans-32"/>
      </g>
     </g>
    </g>
    <g id="xtick_5">
     <g id="line2d_5">
      <g>
       <use xlink:href="#mdecb4b07d5" x="331.14076" y="295.268719" style="stroke: #000000; stroke-width: 3"/>
      </g>
     </g>
     <g id="text_5">
      <!-- 4 -->
      <g transform="translate(326.368885 318.166375) scale(0.15 -0.15)">
       <use xlink:href="#DejaVuSans-34"/>
      </g>
     </g>
    </g>
    <g id="xtick_6">
     <g id="line2d_6">
      <g>
       <use xlink:href="#mdecb4b07d5" x="388.209325" y="295.268719" style="stroke: #000000; stroke-width: 3"/>
      </g>
     </g>
     <g id="text_6">
      <!-- 6 -->
      <g transform="translate(383.43745 318.166375) scale(0.15 -0.15)">
       <defs>
        <path id="DejaVuSans-36" d="M 2113 2584 
Q 1688 2584 1439 2293 
Q 1191 2003 1191 1497 
Q 1191 994 1439 701 
Q 1688 409 2113 409 
Q 2538 409 2786 701 
Q 3034 994 3034 1497 
Q 3034 2003 2786 2293 
Q 2538 2584 2113 2584 
z
M 3366 4563 
L 3366 3988 
Q 3128 4100 2886 4159 
Q 2644 4219 2406 4219 
Q 1781 4219 1451 3797 
Q 1122 3375 1075 2522 
Q 1259 2794 1537 2939 
Q 1816 3084 2150 3084 
Q 2853 3084 3261 2657 
Q 3669 2231 3669 1497 
Q 3669 778 3244 343 
Q 2819 -91 2113 -91 
Q 1303 -91 875 529 
Q 447 1150 447 2328 
Q 447 3434 972 4092 
Q 1497 4750 2381 4750 
Q 2619 4750 2861 4703 
Q 3103 4656 3366 4563 
z
" transform="scale(0.015625)"/>
       </defs>
       <use xlink:href="#DejaVuSans-36"/>
      </g>
     </g>
    </g>
    <g id="text_7">
     <!-- LDA 1 -->
     <g transform="translate(214.784219 338.20325) scale(0.17 -0.17)">
      <defs>
       <path id="DejaVuSans-4c" d="M 628 4666 
L 1259 4666 
L 1259 531 
L 3531 531 
L 3531 0 
L 628 0 
L 628 4666 
z
" transform="scale(0.015625)"/>
       <path id="DejaVuSans-44" d="M 1259 4147 
L 1259 519 
L 2022 519 
Q 2988 519 3436 956 
Q 3884 1394 3884 2338 
Q 3884 3275 3436 3711 
Q 2988 4147 2022 4147 
L 1259 4147 
z
M 628 4666 
L 1925 4666 
Q 3281 4666 3915 4102 
Q 4550 3538 4550 2338 
Q 4550 1131 3912 565 
Q 3275 0 1925 0 
L 628 0 
L 628 4666 
z
" transform="scale(0.015625)"/>
       <path id="DejaVuSans-41" d="M 2188 4044 
L 1331 1722 
L 3047 1722 
L 2188 4044 
z
M 1831 4666 
L 2547 4666 
L 4325 0 
L 3669 0 
L 3244 1197 
L 1141 1197 
L 716 0 
L 50 0 
L 1831 4666 
z
" transform="scale(0.015625)"/>
       <path id="DejaVuSans-20" transform="scale(0.015625)"/>
       <path id="DejaVuSans-31" d="M 794 531 
L 1825 531 
L 1825 4091 
L 703 3866 
L 703 4441 
L 1819 4666 
L 2450 4666 
L 2450 531 
L 3481 531 
L 3481 0 
L 794 0 
L 794 531 
z
" transform="scale(0.015625)"/>
      </defs>
      <use xlink:href="#DejaVuSans-4c"/>
      <use xlink:href="#DejaVuSans-44" x="55.712891"/>
      <use xlink:href="#DejaVuSans-41" x="130.964844"/>
      <use xlink:href="#DejaVuSans-20" x="199.373047"/>
      <use xlink:href="#DejaVuSans-31" x="231.160156"/>
     </g>
    </g>
   </g>
   <g id="matplotlib.axis_2">
    <g id="ytick_1">
     <g id="line2d_7">
      <defs>
       <path id="ma538d68344" d="M 0 0 
L -8 0 
" style="stroke: #000000; stroke-width: 3"/>
      </defs>
      <g>
       <use xlink:href="#ma538d68344" x="61.280625" y="276.943538" style="stroke: #000000; stroke-width: 3"/>
      </g>
     </g>
     <g id="text_8">
      <!-- −4 -->
      <g transform="translate(27.667344 282.642366) scale(0.15 -0.15)">
       <use xlink:href="#DejaVuSans-2212"/>
       <use xlink:href="#DejaVuSans-34" x="83.789062"/>
      </g>
     </g>
    </g>
    <g id="ytick_2">
     <g id="line2d_8">
      <g>
       <use xlink:href="#ma538d68344" x="61.280625" y="232.143749" style="stroke: #000000; stroke-width: 3"/>
      </g>
     </g>
     <g id="text_9">
      <!-- −2 -->
      <g transform="translate(27.667344 237.842578) scale(0.15 -0.15)">
       <use xlink:href="#DejaVuSans-2212"/>
       <use xlink:href="#DejaVuSans-32" x="83.789062"/>
      </g>
     </g>
    </g>
    <g id="ytick_3">
     <g id="line2d_9">
      <g>
       <use xlink:href="#ma538d68344" x="61.280625" y="187.343961" style="stroke: #000000; stroke-width: 3"/>
      </g>
     </g>
     <g id="text_10">
      <!-- 0 -->
      <g transform="translate(40.236875 193.042789) scale(0.15 -0.15)">
       <use xlink:href="#DejaVuSans-30"/>
      </g>
     </g>
    </g>
    <g id="ytick_4">
     <g id="line2d_10">
      <g>
       <use xlink:href="#ma538d68344" x="61.280625" y="142.544172" style="stroke: #000000; stroke-width: 3"/>
      </g>
     </g>
     <g id="text_11">
      <!-- 2 -->
      <g transform="translate(40.236875 148.243) scale(0.15 -0.15)">
       <use xlink:href="#DejaVuSans-32"/>
      </g>
     </g>
    </g>
    <g id="ytick_5">
     <g id="line2d_11">
      <g>
       <use xlink:href="#ma538d68344" x="61.280625" y="97.744384" style="stroke: #000000; stroke-width: 3"/>
      </g>
     </g>
     <g id="text_12">
      <!-- 4 -->
      <g transform="translate(40.236875 103.443212) scale(0.15 -0.15)">
       <use xlink:href="#DejaVuSans-34"/>
      </g>
     </g>
    </g>
    <g id="ytick_6">
     <g id="line2d_12">
      <g>
       <use xlink:href="#ma538d68344" x="61.280625" y="52.944595" style="stroke: #000000; stroke-width: 3"/>
      </g>
     </g>
     <g id="text_13">
      <!-- 6 -->
      <g transform="translate(40.236875 58.643423) scale(0.15 -0.15)">
       <use xlink:href="#DejaVuSans-36"/>
      </g>
     </g>
    </g>
    <g id="text_14">
     <!-- LDA 2 -->
     <g transform="translate(20.131875 187.269125) rotate(-90) scale(0.17 -0.17)">
      <use xlink:href="#DejaVuSans-4c"/>
      <use xlink:href="#DejaVuSans-44" x="55.712891"/>
      <use xlink:href="#DejaVuSans-41" x="130.964844"/>
      <use xlink:href="#DejaVuSans-20" x="199.373047"/>
      <use xlink:href="#DejaVuSans-32" x="231.160156"/>
     </g>
    </g>
   </g>
   <g id="patch_3">
    <path d="M 61.280625 295.268719 
L 61.280625 29.156719 
" style="fill: none; stroke: #000000; stroke-width: 2; stroke-linejoin: miter; stroke-linecap: square"/>
   </g>
   <g id="patch_4">
    <path d="M 61.280625 295.268719 
L 418.400625 295.268719 
" style="fill: none; stroke: #000000; stroke-width: 2; stroke-linejoin: miter; stroke-linecap: square"/>
   </g>
   <g id="text_15">
    <!-- LDA random - Embeddings resp. atom types -->
    <g transform="translate(7.2 23.156719) scale(0.21 -0.21)">
     <defs>
      <path id="DejaVuSans-72" d="M 2631 2963 
Q 2534 3019 2420 3045 
Q 2306 3072 2169 3072 
Q 1681 3072 1420 2755 
Q 1159 2438 1159 1844 
L 1159 0 
L 581 0 
L 581 3500 
L 1159 3500 
L 1159 2956 
Q 1341 3275 1631 3429 
Q 1922 3584 2338 3584 
Q 2397 3584 2469 3576 
Q 2541 3569 2628 3553 
L 2631 2963 
z
" transform="scale(0.015625)"/>
      <path id="DejaVuSans-61" d="M 2194 1759 
Q 1497 1759 1228 1600 
Q 959 1441 959 1056 
Q 959 750 1161 570 
Q 1363 391 1709 391 
Q 2188 391 2477 730 
Q 2766 1069 2766 1631 
L 2766 1759 
L 2194 1759 
z
M 3341 1997 
L 3341 0 
L 2766 0 
L 2766 531 
Q 2569 213 2275 61 
Q 1981 -91 1556 -91 
Q 1019 -91 701 211 
Q 384 513 384 1019 
Q 384 1609 779 1909 
Q 1175 2209 1959 2209 
L 2766 2209 
L 2766 2266 
Q 2766 2663 2505 2880 
Q 2244 3097 1772 3097 
Q 1472 3097 1187 3025 
Q 903 2953 641 2809 
L 641 3341 
Q 956 3463 1253 3523 
Q 1550 3584 1831 3584 
Q 2591 3584 2966 3190 
Q 3341 2797 3341 1997 
z
" transform="scale(0.015625)"/>
      <path id="DejaVuSans-6e" d="M 3513 2113 
L 3513 0 
L 2938 0 
L 2938 2094 
Q 2938 2591 2744 2837 
Q 2550 3084 2163 3084 
Q 1697 3084 1428 2787 
Q 1159 2491 1159 1978 
L 1159 0 
L 581 0 
L 581 3500 
L 1159 3500 
L 1159 2956 
Q 1366 3272 1645 3428 
Q 1925 3584 2291 3584 
Q 2894 3584 3203 3211 
Q 3513 2838 3513 2113 
z
" transform="scale(0.015625)"/>
      <path id="DejaVuSans-64" d="M 2906 2969 
L 2906 4863 
L 3481 4863 
L 3481 0 
L 2906 0 
L 2906 525 
Q 2725 213 2448 61 
Q 2172 -91 1784 -91 
Q 1150 -91 751 415 
Q 353 922 353 1747 
Q 353 2572 751 3078 
Q 1150 3584 1784 3584 
Q 2172 3584 2448 3432 
Q 2725 3281 2906 2969 
z
M 947 1747 
Q 947 1113 1208 752 
Q 1469 391 1925 391 
Q 2381 391 2643 752 
Q 2906 1113 2906 1747 
Q 2906 2381 2643 2742 
Q 2381 3103 1925 3103 
Q 1469 3103 1208 2742 
Q 947 2381 947 1747 
z
" transform="scale(0.015625)"/>
      <path id="DejaVuSans-6f" d="M 1959 3097 
Q 1497 3097 1228 2736 
Q 959 2375 959 1747 
Q 959 1119 1226 758 
Q 1494 397 1959 397 
Q 2419 397 2687 759 
Q 2956 1122 2956 1747 
Q 2956 2369 2687 2733 
Q 2419 3097 1959 3097 
z
M 1959 3584 
Q 2709 3584 3137 3096 
Q 3566 2609 3566 1747 
Q 3566 888 3137 398 
Q 2709 -91 1959 -91 
Q 1206 -91 779 398 
Q 353 888 353 1747 
Q 353 2609 779 3096 
Q 1206 3584 1959 3584 
z
" transform="scale(0.015625)"/>
      <path id="DejaVuSans-6d" d="M 3328 2828 
Q 3544 3216 3844 3400 
Q 4144 3584 4550 3584 
Q 5097 3584 5394 3201 
Q 5691 2819 5691 2113 
L 5691 0 
L 5113 0 
L 5113 2094 
Q 5113 2597 4934 2840 
Q 4756 3084 4391 3084 
Q 3944 3084 3684 2787 
Q 3425 2491 3425 1978 
L 3425 0 
L 2847 0 
L 2847 2094 
Q 2847 2600 2669 2842 
Q 2491 3084 2119 3084 
Q 1678 3084 1418 2786 
Q 1159 2488 1159 1978 
L 1159 0 
L 581 0 
L 581 3500 
L 1159 3500 
L 1159 2956 
Q 1356 3278 1631 3431 
Q 1906 3584 2284 3584 
Q 2666 3584 2933 3390 
Q 3200 3197 3328 2828 
z
" transform="scale(0.015625)"/>
      <path id="DejaVuSans-2d" d="M 313 2009 
L 1997 2009 
L 1997 1497 
L 313 1497 
L 313 2009 
z
" transform="scale(0.015625)"/>
      <path id="DejaVuSans-45" d="M 628 4666 
L 3578 4666 
L 3578 4134 
L 1259 4134 
L 1259 2753 
L 3481 2753 
L 3481 2222 
L 1259 2222 
L 1259 531 
L 3634 531 
L 3634 0 
L 628 0 
L 628 4666 
z
" transform="scale(0.015625)"/>
      <path id="DejaVuSans-62" d="M 3116 1747 
Q 3116 2381 2855 2742 
Q 2594 3103 2138 3103 
Q 1681 3103 1420 2742 
Q 1159 2381 1159 1747 
Q 1159 1113 1420 752 
Q 1681 391 2138 391 
Q 2594 391 2855 752 
Q 3116 1113 3116 1747 
z
M 1159 2969 
Q 1341 3281 1617 3432 
Q 1894 3584 2278 3584 
Q 2916 3584 3314 3078 
Q 3713 2572 3713 1747 
Q 3713 922 3314 415 
Q 2916 -91 2278 -91 
Q 1894 -91 1617 61 
Q 1341 213 1159 525 
L 1159 0 
L 581 0 
L 581 4863 
L 1159 4863 
L 1159 2969 
z
" transform="scale(0.015625)"/>
      <path id="DejaVuSans-65" d="M 3597 1894 
L 3597 1613 
L 953 1613 
Q 991 1019 1311 708 
Q 1631 397 2203 397 
Q 2534 397 2845 478 
Q 3156 559 3463 722 
L 3463 178 
Q 3153 47 2828 -22 
Q 2503 -91 2169 -91 
Q 1331 -91 842 396 
Q 353 884 353 1716 
Q 353 2575 817 3079 
Q 1281 3584 2069 3584 
Q 2775 3584 3186 3129 
Q 3597 2675 3597 1894 
z
M 3022 2063 
Q 3016 2534 2758 2815 
Q 2500 3097 2075 3097 
Q 1594 3097 1305 2825 
Q 1016 2553 972 2059 
L 3022 2063 
z
" transform="scale(0.015625)"/>
      <path id="DejaVuSans-69" d="M 603 3500 
L 1178 3500 
L 1178 0 
L 603 0 
L 603 3500 
z
M 603 4863 
L 1178 4863 
L 1178 4134 
L 603 4134 
L 603 4863 
z
" transform="scale(0.015625)"/>
      <path id="DejaVuSans-67" d="M 2906 1791 
Q 2906 2416 2648 2759 
Q 2391 3103 1925 3103 
Q 1463 3103 1205 2759 
Q 947 2416 947 1791 
Q 947 1169 1205 825 
Q 1463 481 1925 481 
Q 2391 481 2648 825 
Q 2906 1169 2906 1791 
z
M 3481 434 
Q 3481 -459 3084 -895 
Q 2688 -1331 1869 -1331 
Q 1566 -1331 1297 -1286 
Q 1028 -1241 775 -1147 
L 775 -588 
Q 1028 -725 1275 -790 
Q 1522 -856 1778 -856 
Q 2344 -856 2625 -561 
Q 2906 -266 2906 331 
L 2906 616 
Q 2728 306 2450 153 
Q 2172 0 1784 0 
Q 1141 0 747 490 
Q 353 981 353 1791 
Q 353 2603 747 3093 
Q 1141 3584 1784 3584 
Q 2172 3584 2450 3431 
Q 2728 3278 2906 2969 
L 2906 3500 
L 3481 3500 
L 3481 434 
z
" transform="scale(0.015625)"/>
      <path id="DejaVuSans-73" d="M 2834 3397 
L 2834 2853 
Q 2591 2978 2328 3040 
Q 2066 3103 1784 3103 
Q 1356 3103 1142 2972 
Q 928 2841 928 2578 
Q 928 2378 1081 2264 
Q 1234 2150 1697 2047 
L 1894 2003 
Q 2506 1872 2764 1633 
Q 3022 1394 3022 966 
Q 3022 478 2636 193 
Q 2250 -91 1575 -91 
Q 1294 -91 989 -36 
Q 684 19 347 128 
L 347 722 
Q 666 556 975 473 
Q 1284 391 1588 391 
Q 1994 391 2212 530 
Q 2431 669 2431 922 
Q 2431 1156 2273 1281 
Q 2116 1406 1581 1522 
L 1381 1569 
Q 847 1681 609 1914 
Q 372 2147 372 2553 
Q 372 3047 722 3315 
Q 1072 3584 1716 3584 
Q 2034 3584 2315 3537 
Q 2597 3491 2834 3397 
z
" transform="scale(0.015625)"/>
      <path id="DejaVuSans-70" d="M 1159 525 
L 1159 -1331 
L 581 -1331 
L 581 3500 
L 1159 3500 
L 1159 2969 
Q 1341 3281 1617 3432 
Q 1894 3584 2278 3584 
Q 2916 3584 3314 3078 
Q 3713 2572 3713 1747 
Q 3713 922 3314 415 
Q 2916 -91 2278 -91 
Q 1894 -91 1617 61 
Q 1341 213 1159 525 
z
M 3116 1747 
Q 3116 2381 2855 2742 
Q 2594 3103 2138 3103 
Q 1681 3103 1420 2742 
Q 1159 2381 1159 1747 
Q 1159 1113 1420 752 
Q 1681 391 2138 391 
Q 2594 391 2855 752 
Q 3116 1113 3116 1747 
z
" transform="scale(0.015625)"/>
      <path id="DejaVuSans-2e" d="M 684 794 
L 1344 794 
L 1344 0 
L 684 0 
L 684 794 
z
" transform="scale(0.015625)"/>
      <path id="DejaVuSans-74" d="M 1172 4494 
L 1172 3500 
L 2356 3500 
L 2356 3053 
L 1172 3053 
L 1172 1153 
Q 1172 725 1289 603 
Q 1406 481 1766 481 
L 2356 481 
L 2356 0 
L 1766 0 
Q 1100 0 847 248 
Q 594 497 594 1153 
L 594 3053 
L 172 3053 
L 172 3500 
L 594 3500 
L 594 4494 
L 1172 4494 
z
" transform="scale(0.015625)"/>
      <path id="DejaVuSans-79" d="M 2059 -325 
Q 1816 -950 1584 -1140 
Q 1353 -1331 966 -1331 
L 506 -1331 
L 506 -850 
L 844 -850 
Q 1081 -850 1212 -737 
Q 1344 -625 1503 -206 
L 1606 56 
L 191 3500 
L 800 3500 
L 1894 763 
L 2988 3500 
L 3597 3500 
L 2059 -325 
z
" transform="scale(0.015625)"/>
     </defs>
     <use xlink:href="#DejaVuSans-4c"/>
     <use xlink:href="#DejaVuSans-44" x="55.712891"/>
     <use xlink:href="#DejaVuSans-41" x="130.964844"/>
     <use xlink:href="#DejaVuSans-20" x="199.373047"/>
     <use xlink:href="#DejaVuSans-72" x="231.160156"/>
     <use xlink:href="#DejaVuSans-61" x="272.273438"/>
     <use xlink:href="#DejaVuSans-6e" x="333.552734"/>
     <use xlink:href="#DejaVuSans-64" x="396.931641"/>
     <use xlink:href="#DejaVuSans-6f" x="460.408203"/>
     <use xlink:href="#DejaVuSans-6d" x="521.589844"/>
     <use xlink:href="#DejaVuSans-20" x="619.001953"/>
     <use xlink:href="#DejaVuSans-2d" x="650.789062"/>
     <use xlink:href="#DejaVuSans-20" x="686.873047"/>
     <use xlink:href="#DejaVuSans-45" x="718.660156"/>
     <use xlink:href="#DejaVuSans-6d" x="781.84375"/>
     <use xlink:href="#DejaVuSans-62" x="879.255859"/>
     <use xlink:href="#DejaVuSans-65" x="942.732422"/>
     <use xlink:href="#DejaVuSans-64" x="1004.255859"/>
     <use xlink:href="#DejaVuSans-64" x="1067.732422"/>
     <use xlink:href="#DejaVuSans-69" x="1131.208984"/>
     <use xlink:href="#DejaVuSans-6e" x="1158.992188"/>
     <use xlink:href="#DejaVuSans-67" x="1222.371094"/>
     <use xlink:href="#DejaVuSans-73" x="1285.847656"/>
     <use xlink:href="#DejaVuSans-20" x="1337.947266"/>
     <use xlink:href="#DejaVuSans-72" x="1369.734375"/>
     <use xlink:href="#DejaVuSans-65" x="1408.597656"/>
     <use xlink:href="#DejaVuSans-73" x="1470.121094"/>
     <use xlink:href="#DejaVuSans-70" x="1522.220703"/>
     <use xlink:href="#DejaVuSans-2e" x="1585.697266"/>
     <use xlink:href="#DejaVuSans-20" x="1617.484375"/>
     <use xlink:href="#DejaVuSans-61" x="1649.271484"/>
     <use xlink:href="#DejaVuSans-74" x="1710.550781"/>
     <use xlink:href="#DejaVuSans-6f" x="1749.759766"/>
     <use xlink:href="#DejaVuSans-6d" x="1810.941406"/>
     <use xlink:href="#DejaVuSans-20" x="1908.353516"/>
     <use xlink:href="#DejaVuSans-74" x="1940.140625"/>
     <use xlink:href="#DejaVuSans-79" x="1979.349609"/>
     <use xlink:href="#DejaVuSans-70" x="2038.529297"/>
     <use xlink:href="#DejaVuSans-65" x="2102.005859"/>
     <use xlink:href="#DejaVuSans-73" x="2163.529297"/>
    </g>
   </g>
   <g id="legend_1">
    <g id="patch_5">
     <path d="M 423.466225 251.481469 
L 459.226225 251.481469 
Q 460.826225 251.481469 460.826225 249.881469 
L 460.826225 74.543969 
Q 460.826225 72.943969 459.226225 72.943969 
L 423.466225 72.943969 
Q 421.866225 72.943969 421.866225 74.543969 
L 421.866225 249.881469 
Q 421.866225 251.481469 423.466225 251.481469 
z
" style="fill: #ffffff; opacity: 0.8; stroke: #cccccc; stroke-linejoin: miter"/>
    </g>
    <g id="line2d_13">
     <path d="M 425.066225 79.422719 
L 433.066225 79.422719 
L 441.066225 79.422719 
" style="fill: none; stroke: #ffffff; stroke-width: 1.5; stroke-linecap: square"/>
     <defs>
      <path id="m74a0ed8233" d="M 0 4.5 
C 1.193414 4.5 2.338109 4.025852 3.181981 3.181981 
C 4.025852 2.338109 4.5 1.193414 4.5 0 
C 4.5 -1.193414 4.025852 -2.338109 3.181981 -3.181981 
C 2.338109 -4.025852 1.193414 -4.5 0 -4.5 
C -1.193414 -4.5 -2.338109 -4.025852 -3.181981 -3.181981 
C -4.025852 -2.338109 -4.5 -1.193414 -4.5 0 
C -4.5 1.193414 -4.025852 2.338109 -3.181981 3.181981 
C -2.338109 4.025852 -1.193414 4.5 0 4.5 
z
" style="stroke: #ffffff"/>
     </defs>
     <g>
      <use xlink:href="#m74a0ed8233" x="433.066225" y="79.422719" style="fill: #e6194b; stroke: #ffffff"/>
     </g>
    </g>
    <g id="text_16">
     <!-- n -->
     <g transform="translate(447.466225 82.222719) scale(0.08 -0.08)">
      <use xlink:href="#DejaVuSans-6e"/>
     </g>
    </g>
    <g id="line2d_14">
     <path d="M 425.066225 91.165219 
L 433.066225 91.165219 
L 441.066225 91.165219 
" style="fill: none; stroke: #ffffff; stroke-width: 1.5; stroke-linecap: square"/>
     <defs>
      <path id="m48ef34043a" d="M 0 4.5 
C 1.193414 4.5 2.338109 4.025852 3.181981 3.181981 
C 4.025852 2.338109 4.5 1.193414 4.5 0 
C 4.5 -1.193414 4.025852 -2.338109 3.181981 -3.181981 
C 2.338109 -4.025852 1.193414 -4.5 0 -4.5 
C -1.193414 -4.5 -2.338109 -4.025852 -3.181981 -3.181981 
C -4.025852 -2.338109 -4.5 -1.193414 -4.5 0 
C -4.5 1.193414 -4.025852 2.338109 -3.181981 3.181981 
C -2.338109 4.025852 -1.193414 4.5 0 4.5 
z
" style="stroke: #ffffff"/>
     </defs>
     <g>
      <use xlink:href="#m48ef34043a" x="433.066225" y="91.165219" style="fill: #3cb44b; stroke: #ffffff"/>
     </g>
    </g>
    <g id="text_17">
     <!-- n1 -->
     <g transform="translate(447.466225 93.965219) scale(0.08 -0.08)">
      <use xlink:href="#DejaVuSans-6e"/>
      <use xlink:href="#DejaVuSans-31" x="63.378906"/>
     </g>
    </g>
    <g id="line2d_15">
     <path d="M 425.066225 102.907719 
L 433.066225 102.907719 
L 441.066225 102.907719 
" style="fill: none; stroke: #ffffff; stroke-width: 1.5; stroke-linecap: square"/>
     <defs>
      <path id="m386deade08" d="M 0 4.5 
C 1.193414 4.5 2.338109 4.025852 3.181981 3.181981 
C 4.025852 2.338109 4.5 1.193414 4.5 0 
C 4.5 -1.193414 4.025852 -2.338109 3.181981 -3.181981 
C 2.338109 -4.025852 1.193414 -4.5 0 -4.5 
C -1.193414 -4.5 -2.338109 -4.025852 -3.181981 -3.181981 
C -4.025852 -2.338109 -4.5 -1.193414 -4.5 0 
C -4.5 1.193414 -4.025852 2.338109 -3.181981 3.181981 
C -2.338109 4.025852 -1.193414 4.5 0 4.5 
z
" style="stroke: #ffffff"/>
     </defs>
     <g>
      <use xlink:href="#m386deade08" x="433.066225" y="102.907719" style="fill: #ffe119; stroke: #ffffff"/>
     </g>
    </g>
    <g id="text_18">
     <!-- n2 -->
     <g transform="translate(447.466225 105.707719) scale(0.08 -0.08)">
      <use xlink:href="#DejaVuSans-6e"/>
      <use xlink:href="#DejaVuSans-32" x="63.378906"/>
     </g>
    </g>
    <g id="line2d_16">
     <path d="M 425.066225 114.650219 
L 433.066225 114.650219 
L 441.066225 114.650219 
" style="fill: none; stroke: #ffffff; stroke-width: 1.5; stroke-linecap: square"/>
     <defs>
      <path id="m0d527b5ff4" d="M 0 4.5 
C 1.193414 4.5 2.338109 4.025852 3.181981 3.181981 
C 4.025852 2.338109 4.5 1.193414 4.5 0 
C 4.5 -1.193414 4.025852 -2.338109 3.181981 -3.181981 
C 2.338109 -4.025852 1.193414 -4.5 0 -4.5 
C -1.193414 -4.5 -2.338109 -4.025852 -3.181981 -3.181981 
C -4.025852 -2.338109 -4.5 -1.193414 -4.5 0 
C -4.5 1.193414 -4.025852 2.338109 -3.181981 3.181981 
C -2.338109 4.025852 -1.193414 4.5 0 4.5 
z
" style="stroke: #ffffff"/>
     </defs>
     <g>
      <use xlink:href="#m0d527b5ff4" x="433.066225" y="114.650219" style="fill: #4363d8; stroke: #ffffff"/>
     </g>
    </g>
    <g id="text_19">
     <!-- n7 -->
     <g transform="translate(447.466225 117.450219) scale(0.08 -0.08)">
      <defs>
       <path id="DejaVuSans-37" d="M 525 4666 
L 3525 4666 
L 3525 4397 
L 1831 0 
L 1172 0 
L 2766 4134 
L 525 4134 
L 525 4666 
z
" transform="scale(0.015625)"/>
      </defs>
      <use xlink:href="#DejaVuSans-6e"/>
      <use xlink:href="#DejaVuSans-37" x="63.378906"/>
     </g>
    </g>
    <g id="line2d_17">
     <path d="M 425.066225 126.392719 
L 433.066225 126.392719 
L 441.066225 126.392719 
" style="fill: none; stroke: #ffffff; stroke-width: 1.5; stroke-linecap: square"/>
     <defs>
      <path id="m8eacafc095" d="M 0 4.5 
C 1.193414 4.5 2.338109 4.025852 3.181981 3.181981 
C 4.025852 2.338109 4.5 1.193414 4.5 0 
C 4.5 -1.193414 4.025852 -2.338109 3.181981 -3.181981 
C 2.338109 -4.025852 1.193414 -4.5 0 -4.5 
C -1.193414 -4.5 -2.338109 -4.025852 -3.181981 -3.181981 
C -4.025852 -2.338109 -4.5 -1.193414 -4.5 0 
C -4.5 1.193414 -4.025852 2.338109 -3.181981 3.181981 
C -2.338109 4.025852 -1.193414 4.5 0 4.5 
z
" style="stroke: #ffffff"/>
     </defs>
     <g>
      <use xlink:href="#m8eacafc095" x="433.066225" y="126.392719" style="fill: #f58231; stroke: #ffffff"/>
     </g>
    </g>
    <g id="text_20">
     <!-- n8 -->
     <g transform="translate(447.466225 129.192719) scale(0.08 -0.08)">
      <defs>
       <path id="DejaVuSans-38" d="M 2034 2216 
Q 1584 2216 1326 1975 
Q 1069 1734 1069 1313 
Q 1069 891 1326 650 
Q 1584 409 2034 409 
Q 2484 409 2743 651 
Q 3003 894 3003 1313 
Q 3003 1734 2745 1975 
Q 2488 2216 2034 2216 
z
M 1403 2484 
Q 997 2584 770 2862 
Q 544 3141 544 3541 
Q 544 4100 942 4425 
Q 1341 4750 2034 4750 
Q 2731 4750 3128 4425 
Q 3525 4100 3525 3541 
Q 3525 3141 3298 2862 
Q 3072 2584 2669 2484 
Q 3125 2378 3379 2068 
Q 3634 1759 3634 1313 
Q 3634 634 3220 271 
Q 2806 -91 2034 -91 
Q 1263 -91 848 271 
Q 434 634 434 1313 
Q 434 1759 690 2068 
Q 947 2378 1403 2484 
z
M 1172 3481 
Q 1172 3119 1398 2916 
Q 1625 2713 2034 2713 
Q 2441 2713 2670 2916 
Q 2900 3119 2900 3481 
Q 2900 3844 2670 4047 
Q 2441 4250 2034 4250 
Q 1625 4250 1398 4047 
Q 1172 3844 1172 3481 
z
" transform="scale(0.015625)"/>
      </defs>
      <use xlink:href="#DejaVuSans-6e"/>
      <use xlink:href="#DejaVuSans-38" x="63.378906"/>
     </g>
    </g>
    <g id="line2d_18">
     <path d="M 425.066225 138.135219 
L 433.066225 138.135219 
L 441.066225 138.135219 
" style="fill: none; stroke: #ffffff; stroke-width: 1.5; stroke-linecap: square"/>
     <defs>
      <path id="m06e7b18c6e" d="M 0 4.5 
C 1.193414 4.5 2.338109 4.025852 3.181981 3.181981 
C 4.025852 2.338109 4.5 1.193414 4.5 0 
C 4.5 -1.193414 4.025852 -2.338109 3.181981 -3.181981 
C 2.338109 -4.025852 1.193414 -4.5 0 -4.5 
C -1.193414 -4.5 -2.338109 -4.025852 -3.181981 -3.181981 
C -4.025852 -2.338109 -4.5 -1.193414 -4.5 0 
C -4.5 1.193414 -4.025852 2.338109 -3.181981 3.181981 
C -2.338109 4.025852 -1.193414 4.5 0 4.5 
z
" style="stroke: #ffffff"/>
     </defs>
     <g>
      <use xlink:href="#m06e7b18c6e" x="433.066225" y="138.135219" style="fill: #911eb4; stroke: #ffffff"/>
     </g>
    </g>
    <g id="text_21">
     <!-- na -->
     <g transform="translate(447.466225 140.935219) scale(0.08 -0.08)">
      <use xlink:href="#DejaVuSans-6e"/>
      <use xlink:href="#DejaVuSans-61" x="63.378906"/>
     </g>
    </g>
    <g id="line2d_19">
     <path d="M 425.066225 149.877719 
L 433.066225 149.877719 
L 441.066225 149.877719 
" style="fill: none; stroke: #ffffff; stroke-width: 1.5; stroke-linecap: square"/>
     <defs>
      <path id="m162920eb9f" d="M 0 4.5 
C 1.193414 4.5 2.338109 4.025852 3.181981 3.181981 
C 4.025852 2.338109 4.5 1.193414 4.5 0 
C 4.5 -1.193414 4.025852 -2.338109 3.181981 -3.181981 
C 2.338109 -4.025852 1.193414 -4.5 0 -4.5 
C -1.193414 -4.5 -2.338109 -4.025852 -3.181981 -3.181981 
C -4.025852 -2.338109 -4.5 -1.193414 -4.5 0 
C -4.5 1.193414 -4.025852 2.338109 -3.181981 3.181981 
C -2.338109 4.025852 -1.193414 4.5 0 4.5 
z
" style="stroke: #ffffff"/>
     </defs>
     <g>
      <use xlink:href="#m162920eb9f" x="433.066225" y="149.877719" style="fill: #42d4f4; stroke: #ffffff"/>
     </g>
    </g>
    <g id="text_22">
     <!-- nb -->
     <g transform="translate(447.466225 152.677719) scale(0.08 -0.08)">
      <use xlink:href="#DejaVuSans-6e"/>
      <use xlink:href="#DejaVuSans-62" x="63.378906"/>
     </g>
    </g>
    <g id="line2d_20">
     <path d="M 425.066225 161.620219 
L 433.066225 161.620219 
L 441.066225 161.620219 
" style="fill: none; stroke: #ffffff; stroke-width: 1.5; stroke-linecap: square"/>
     <defs>
      <path id="m7d00527817" d="M 0 4.5 
C 1.193414 4.5 2.338109 4.025852 3.181981 3.181981 
C 4.025852 2.338109 4.5 1.193414 4.5 0 
C 4.5 -1.193414 4.025852 -2.338109 3.181981 -3.181981 
C 2.338109 -4.025852 1.193414 -4.5 0 -4.5 
C -1.193414 -4.5 -2.338109 -4.025852 -3.181981 -3.181981 
C -4.025852 -2.338109 -4.5 -1.193414 -4.5 0 
C -4.5 1.193414 -4.025852 2.338109 -3.181981 3.181981 
C -2.338109 4.025852 -1.193414 4.5 0 4.5 
z
" style="stroke: #ffffff"/>
     </defs>
     <g>
      <use xlink:href="#m7d00527817" x="433.066225" y="161.620219" style="fill: #f032e6; stroke: #ffffff"/>
     </g>
    </g>
    <g id="text_23">
     <!-- nc -->
     <g transform="translate(447.466225 164.420219) scale(0.08 -0.08)">
      <defs>
       <path id="DejaVuSans-63" d="M 3122 3366 
L 3122 2828 
Q 2878 2963 2633 3030 
Q 2388 3097 2138 3097 
Q 1578 3097 1268 2742 
Q 959 2388 959 1747 
Q 959 1106 1268 751 
Q 1578 397 2138 397 
Q 2388 397 2633 464 
Q 2878 531 3122 666 
L 3122 134 
Q 2881 22 2623 -34 
Q 2366 -91 2075 -91 
Q 1284 -91 818 406 
Q 353 903 353 1747 
Q 353 2603 823 3093 
Q 1294 3584 2113 3584 
Q 2378 3584 2631 3529 
Q 2884 3475 3122 3366 
z
" transform="scale(0.015625)"/>
      </defs>
      <use xlink:href="#DejaVuSans-6e"/>
      <use xlink:href="#DejaVuSans-63" x="63.378906"/>
     </g>
    </g>
    <g id="line2d_21">
     <path d="M 425.066225 173.362719 
L 433.066225 173.362719 
L 441.066225 173.362719 
" style="fill: none; stroke: #ffffff; stroke-width: 1.5; stroke-linecap: square"/>
     <defs>
      <path id="mbe84763c82" d="M 0 4.5 
C 1.193414 4.5 2.338109 4.025852 3.181981 3.181981 
C 4.025852 2.338109 4.5 1.193414 4.5 0 
C 4.5 -1.193414 4.025852 -2.338109 3.181981 -3.181981 
C 2.338109 -4.025852 1.193414 -4.5 0 -4.5 
C -1.193414 -4.5 -2.338109 -4.025852 -3.181981 -3.181981 
C -4.025852 -2.338109 -4.5 -1.193414 -4.5 0 
C -4.5 1.193414 -4.025852 2.338109 -3.181981 3.181981 
C -2.338109 4.025852 -1.193414 4.5 0 4.5 
z
" style="stroke: #ffffff"/>
     </defs>
     <g>
      <use xlink:href="#mbe84763c82" x="433.066225" y="173.362719" style="fill: #bfef45; stroke: #ffffff"/>
     </g>
    </g>
    <g id="text_24">
     <!-- nd -->
     <g transform="translate(447.466225 176.162719) scale(0.08 -0.08)">
      <use xlink:href="#DejaVuSans-6e"/>
      <use xlink:href="#DejaVuSans-64" x="63.378906"/>
     </g>
    </g>
    <g id="line2d_22">
     <path d="M 425.066225 185.105219 
L 433.066225 185.105219 
L 441.066225 185.105219 
" style="fill: none; stroke: #ffffff; stroke-width: 1.5; stroke-linecap: square"/>
     <defs>
      <path id="m70a7f5d13b" d="M 0 4.5 
C 1.193414 4.5 2.338109 4.025852 3.181981 3.181981 
C 4.025852 2.338109 4.5 1.193414 4.5 0 
C 4.5 -1.193414 4.025852 -2.338109 3.181981 -3.181981 
C 2.338109 -4.025852 1.193414 -4.5 0 -4.5 
C -1.193414 -4.5 -2.338109 -4.025852 -3.181981 -3.181981 
C -4.025852 -2.338109 -4.5 -1.193414 -4.5 0 
C -4.5 1.193414 -4.025852 2.338109 -3.181981 3.181981 
C -2.338109 4.025852 -1.193414 4.5 0 4.5 
z
" style="stroke: #ffffff"/>
     </defs>
     <g>
      <use xlink:href="#m70a7f5d13b" x="433.066225" y="185.105219" style="fill: #fabed4; stroke: #ffffff"/>
     </g>
    </g>
    <g id="text_25">
     <!-- ne -->
     <g transform="translate(447.466225 187.905219) scale(0.08 -0.08)">
      <use xlink:href="#DejaVuSans-6e"/>
      <use xlink:href="#DejaVuSans-65" x="63.378906"/>
     </g>
    </g>
    <g id="line2d_23">
     <path d="M 425.066225 196.847719 
L 433.066225 196.847719 
L 441.066225 196.847719 
" style="fill: none; stroke: #ffffff; stroke-width: 1.5; stroke-linecap: square"/>
     <defs>
      <path id="mca0a89b73b" d="M 0 4.5 
C 1.193414 4.5 2.338109 4.025852 3.181981 3.181981 
C 4.025852 2.338109 4.5 1.193414 4.5 0 
C 4.5 -1.193414 4.025852 -2.338109 3.181981 -3.181981 
C 2.338109 -4.025852 1.193414 -4.5 0 -4.5 
C -1.193414 -4.5 -2.338109 -4.025852 -3.181981 -3.181981 
C -4.025852 -2.338109 -4.5 -1.193414 -4.5 0 
C -4.5 1.193414 -4.025852 2.338109 -3.181981 3.181981 
C -2.338109 4.025852 -1.193414 4.5 0 4.5 
z
" style="stroke: #ffffff"/>
     </defs>
     <g>
      <use xlink:href="#mca0a89b73b" x="433.066225" y="196.847719" style="fill: #469990; stroke: #ffffff"/>
     </g>
    </g>
    <g id="text_26">
     <!-- nh -->
     <g transform="translate(447.466225 199.647719) scale(0.08 -0.08)">
      <defs>
       <path id="DejaVuSans-68" d="M 3513 2113 
L 3513 0 
L 2938 0 
L 2938 2094 
Q 2938 2591 2744 2837 
Q 2550 3084 2163 3084 
Q 1697 3084 1428 2787 
Q 1159 2491 1159 1978 
L 1159 0 
L 581 0 
L 581 4863 
L 1159 4863 
L 1159 2956 
Q 1366 3272 1645 3428 
Q 1925 3584 2291 3584 
Q 2894 3584 3203 3211 
Q 3513 2838 3513 2113 
z
" transform="scale(0.015625)"/>
      </defs>
      <use xlink:href="#DejaVuSans-6e"/>
      <use xlink:href="#DejaVuSans-68" x="63.378906"/>
     </g>
    </g>
    <g id="line2d_24">
     <path d="M 425.066225 208.590219 
L 433.066225 208.590219 
L 441.066225 208.590219 
" style="fill: none; stroke: #ffffff; stroke-width: 1.5; stroke-linecap: square"/>
     <defs>
      <path id="m3792ae580c" d="M 0 4.5 
C 1.193414 4.5 2.338109 4.025852 3.181981 3.181981 
C 4.025852 2.338109 4.5 1.193414 4.5 0 
C 4.5 -1.193414 4.025852 -2.338109 3.181981 -3.181981 
C 2.338109 -4.025852 1.193414 -4.5 0 -4.5 
C -1.193414 -4.5 -2.338109 -4.025852 -3.181981 -3.181981 
C -4.025852 -2.338109 -4.5 -1.193414 -4.5 0 
C -4.5 1.193414 -4.025852 2.338109 -3.181981 3.181981 
C -2.338109 4.025852 -1.193414 4.5 0 4.5 
z
" style="stroke: #ffffff"/>
     </defs>
     <g>
      <use xlink:href="#m3792ae580c" x="433.066225" y="208.590219" style="fill: #dcbeff; stroke: #ffffff"/>
     </g>
    </g>
    <g id="text_27">
     <!-- ns -->
     <g transform="translate(447.466225 211.390219) scale(0.08 -0.08)">
      <use xlink:href="#DejaVuSans-6e"/>
      <use xlink:href="#DejaVuSans-73" x="63.378906"/>
     </g>
    </g>
    <g id="line2d_25">
     <path d="M 425.066225 220.332719 
L 433.066225 220.332719 
L 441.066225 220.332719 
" style="fill: none; stroke: #ffffff; stroke-width: 1.5; stroke-linecap: square"/>
     <defs>
      <path id="mc11c50f1e7" d="M 0 4.5 
C 1.193414 4.5 2.338109 4.025852 3.181981 3.181981 
C 4.025852 2.338109 4.5 1.193414 4.5 0 
C 4.5 -1.193414 4.025852 -2.338109 3.181981 -3.181981 
C 2.338109 -4.025852 1.193414 -4.5 0 -4.5 
C -1.193414 -4.5 -2.338109 -4.025852 -3.181981 -3.181981 
C -4.025852 -2.338109 -4.5 -1.193414 -4.5 0 
C -4.5 1.193414 -4.025852 2.338109 -3.181981 3.181981 
C -2.338109 4.025852 -1.193414 4.5 0 4.5 
z
" style="stroke: #ffffff"/>
     </defs>
     <g>
      <use xlink:href="#mc11c50f1e7" x="433.066225" y="220.332719" style="fill: #9a6324; stroke: #ffffff"/>
     </g>
    </g>
    <g id="text_28">
     <!-- nt -->
     <g transform="translate(447.466225 223.132719) scale(0.08 -0.08)">
      <use xlink:href="#DejaVuSans-6e"/>
      <use xlink:href="#DejaVuSans-74" x="63.378906"/>
     </g>
    </g>
    <g id="line2d_26">
     <path d="M 425.066225 232.075219 
L 433.066225 232.075219 
L 441.066225 232.075219 
" style="fill: none; stroke: #ffffff; stroke-width: 1.5; stroke-linecap: square"/>
     <defs>
      <path id="mc34b5d5ac7" d="M 0 4.5 
C 1.193414 4.5 2.338109 4.025852 3.181981 3.181981 
C 4.025852 2.338109 4.5 1.193414 4.5 0 
C 4.5 -1.193414 4.025852 -2.338109 3.181981 -3.181981 
C 2.338109 -4.025852 1.193414 -4.5 0 -4.5 
C -1.193414 -4.5 -2.338109 -4.025852 -3.181981 -3.181981 
C -4.025852 -2.338109 -4.5 -1.193414 -4.5 0 
C -4.5 1.193414 -4.025852 2.338109 -3.181981 3.181981 
C -2.338109 4.025852 -1.193414 4.5 0 4.5 
z
" style="stroke: #ffffff"/>
     </defs>
     <g>
      <use xlink:href="#mc34b5d5ac7" x="433.066225" y="232.075219" style="fill: #fffac8; stroke: #ffffff"/>
     </g>
    </g>
    <g id="text_29">
     <!-- nu -->
     <g transform="translate(447.466225 234.875219) scale(0.08 -0.08)">
      <defs>
       <path id="DejaVuSans-75" d="M 544 1381 
L 544 3500 
L 1119 3500 
L 1119 1403 
Q 1119 906 1312 657 
Q 1506 409 1894 409 
Q 2359 409 2629 706 
Q 2900 1003 2900 1516 
L 2900 3500 
L 3475 3500 
L 3475 0 
L 2900 0 
L 2900 538 
Q 2691 219 2414 64 
Q 2138 -91 1772 -91 
Q 1169 -91 856 284 
Q 544 659 544 1381 
z
M 1991 3584 
L 1991 3584 
z
" transform="scale(0.015625)"/>
      </defs>
      <use xlink:href="#DejaVuSans-6e"/>
      <use xlink:href="#DejaVuSans-75" x="63.378906"/>
     </g>
    </g>
    <g id="line2d_27">
     <path d="M 425.066225 243.817719 
L 433.066225 243.817719 
L 441.066225 243.817719 
" style="fill: none; stroke: #ffffff; stroke-width: 1.5; stroke-linecap: square"/>
     <defs>
      <path id="m98d45b7887" d="M 0 4.5 
C 1.193414 4.5 2.338109 4.025852 3.181981 3.181981 
C 4.025852 2.338109 4.5 1.193414 4.5 0 
C 4.5 -1.193414 4.025852 -2.338109 3.181981 -3.181981 
C 2.338109 -4.025852 1.193414 -4.5 0 -4.5 
C -1.193414 -4.5 -2.338109 -4.025852 -3.181981 -3.181981 
C -4.025852 -2.338109 -4.5 -1.193414 -4.5 0 
C -4.5 1.193414 -4.025852 2.338109 -3.181981 3.181981 
C -2.338109 4.025852 -1.193414 4.5 0 4.5 
z
" style="stroke: #ffffff"/>
     </defs>
     <g>
      <use xlink:href="#m98d45b7887" x="433.066225" y="243.817719" style="fill: #800000; stroke: #ffffff"/>
     </g>
    </g>
    <g id="text_30">
     <!-- nv -->
     <g transform="translate(447.466225 246.617719) scale(0.08 -0.08)">
      <defs>
       <path id="DejaVuSans-76" d="M 191 3500 
L 800 3500 
L 1894 563 
L 2988 3500 
L 3597 3500 
L 2284 0 
L 1503 0 
L 191 3500 
z
" transform="scale(0.015625)"/>
      </defs>
      <use xlink:href="#DejaVuSans-6e"/>
      <use xlink:href="#DejaVuSans-76" x="63.378906"/>
     </g>
    </g>
   </g>
  </g>
 </g>
 <defs>
  <clipPath id="pa85dc28f89">
   <rect x="61.280625" y="29.156719" width="357.12" height="266.112"/>
  </clipPath>
 </defs>
</svg>
