<?xml version="1.0" encoding="utf-8" standalone="no"?>
<!DOCTYPE svg PUBLIC "-//W3C//DTD SVG 1.1//EN"
  "http://www.w3.org/Graphics/SVG/1.1/DTD/svg11.dtd">
<svg xmlns:xlink="http://www.w3.org/1999/xlink" width="479.68125pt" height="348.938719pt" viewBox="0 0 479.68125 348.938719" xmlns="http://www.w3.org/2000/svg" version="1.1">
 <metadata>
  <rdf:RDF xmlns:dc="http://purl.org/dc/elements/1.1/" xmlns:cc="http://creativecommons.org/ns#" xmlns:rdf="http://www.w3.org/1999/02/22-rdf-syntax-ns#">
   <cc:Work>
    <dc:type rdf:resource="http://purl.org/dc/dcmitype/StillImage"/>
    <dc:date>2024-06-26T14:23:20.331129</dc:date>
    <dc:format>image/svg+xml</dc:format>
    <dc:creator>
     <cc:Agent>
      <dc:title>Matplotlib v3.8.4, https://matplotlib.org/</dc:title>
     </cc:Agent>
    </dc:creator>
   </cc:Work>
  </rdf:RDF>
 </metadata>
 <defs>
  <style type="text/css">*{stroke-linejoin: round; stroke-linecap: butt}</style>
 </defs>
 <g id="figure_1">
  <g id="patch_1">
   <path d="M 0 348.938719 
L 479.68125 348.938719 
L 479.68125 -0 
L 0 -0 
L 0 348.938719 
z
" style="fill: none"/>
  </g>
  <g id="axes_1">
   <g id="patch_2">
    <path d="M 61.280625 295.268719 
L 418.400625 295.268719 
L 418.400625 29.156719 
L 61.280625 29.156719 
L 61.280625 295.268719 
z
" style="fill: none"/>
   </g>
   <g id="PathCollection_1">
    <defs>
     <path id="C0_0_bef95a0308" d="M 0 1.5 
C 0.397805 1.5 0.77937 1.341951 1.06066 1.06066 
C 1.341951 0.77937 1.5 0.397805 1.5 -0 
C 1.5 -0.397805 1.341951 -0.77937 1.06066 -1.06066 
C 0.77937 -1.341951 0.397805 -1.5 0 -1.5 
C -0.397805 -1.5 -0.77937 -1.341951 -1.06066 -1.06066 
C -1.341951 -0.77937 -1.5 -0.397805 -1.5 0 
C -1.5 0.397805 -1.341951 0.77937 -1.06066 1.06066 
C -0.77937 1.341951 -0.397805 1.5 0 1.5 
z
"/>
    </defs>
    <g clip-path="url(#p6e20b5f17d)">
     <use xlink:href="#C0_0_bef95a0308" x="77.513352" y="134.044812" style="fill: #e6194b; fill-opacity: 0.8; stroke: #e6194b; stroke-opacity: 0.8"/>
    </g>
    <g clip-path="url(#p6e20b5f17d)">
     <use xlink:href="#C0_0_bef95a0308" x="293.15265" y="52.613522" style="fill: #fabed4; fill-opacity: 0.8; stroke: #fabed4; stroke-opacity: 0.8"/>
    </g>
    <g clip-path="url(#p6e20b5f17d)">
     <use xlink:href="#C0_0_bef95a0308" x="344.872827" y="152.536898" style="fill: #bfef45; fill-opacity: 0.8; stroke: #bfef45; stroke-opacity: 0.8"/>
    </g>
    <g clip-path="url(#p6e20b5f17d)">
     <use xlink:href="#C0_0_bef95a0308" x="99.150283" y="142.884365" style="fill: #e6194b; fill-opacity: 0.8; stroke: #e6194b; stroke-opacity: 0.8"/>
    </g>
    <g clip-path="url(#p6e20b5f17d)">
     <use xlink:href="#C0_0_bef95a0308" x="343.204388" y="159.224946" style="fill: #bfef45; fill-opacity: 0.8; stroke: #bfef45; stroke-opacity: 0.8"/>
    </g>
    <g clip-path="url(#p6e20b5f17d)">
     <use xlink:href="#C0_0_bef95a0308" x="213.347108" y="227.786096" style="fill: #f58231; fill-opacity: 0.8; stroke: #f58231; stroke-opacity: 0.8"/>
    </g>
    <g clip-path="url(#p6e20b5f17d)">
     <use xlink:href="#C0_0_bef95a0308" x="259.529149" y="238.754356" style="fill: #dcbeff; fill-opacity: 0.8; stroke: #dcbeff; stroke-opacity: 0.8"/>
    </g>
    <g clip-path="url(#p6e20b5f17d)">
     <use xlink:href="#C0_0_bef95a0308" x="260.322447" y="243.567448" style="fill: #dcbeff; fill-opacity: 0.8; stroke: #dcbeff; stroke-opacity: 0.8"/>
    </g>
    <g clip-path="url(#p6e20b5f17d)">
     <use xlink:href="#C0_0_bef95a0308" x="212.840461" y="241.144379" style="fill: #fffac8; fill-opacity: 0.8; stroke: #fffac8; stroke-opacity: 0.8"/>
    </g>
    <g clip-path="url(#p6e20b5f17d)">
     <use xlink:href="#C0_0_bef95a0308" x="253.155029" y="68.435946" style="fill: #42d4f4; fill-opacity: 0.8; stroke: #42d4f4; stroke-opacity: 0.8"/>
    </g>
    <g clip-path="url(#p6e20b5f17d)">
     <use xlink:href="#C0_0_bef95a0308" x="255.03925" y="78.918327" style="fill: #42d4f4; fill-opacity: 0.8; stroke: #42d4f4; stroke-opacity: 0.8"/>
    </g>
    <g clip-path="url(#p6e20b5f17d)">
     <use xlink:href="#C0_0_bef95a0308" x="216.420868" y="193.292506" style="fill: #911eb4; fill-opacity: 0.8; stroke: #911eb4; stroke-opacity: 0.8"/>
    </g>
    <g clip-path="url(#p6e20b5f17d)">
     <use xlink:href="#C0_0_bef95a0308" x="340.942114" y="144.560617" style="fill: #bfef45; fill-opacity: 0.8; stroke: #bfef45; stroke-opacity: 0.8"/>
    </g>
    <g clip-path="url(#p6e20b5f17d)">
     <use xlink:href="#C0_0_bef95a0308" x="217.774358" y="200.804514" style="fill: #911eb4; fill-opacity: 0.8; stroke: #911eb4; stroke-opacity: 0.8"/>
    </g>
    <g clip-path="url(#p6e20b5f17d)">
     <use xlink:href="#C0_0_bef95a0308" x="346.756582" y="153.208229" style="fill: #bfef45; fill-opacity: 0.8; stroke: #bfef45; stroke-opacity: 0.8"/>
    </g>
    <g clip-path="url(#p6e20b5f17d)">
     <use xlink:href="#C0_0_bef95a0308" x="295.198548" y="41.252719" style="fill: #fabed4; fill-opacity: 0.8; stroke: #fabed4; stroke-opacity: 0.8"/>
    </g>
    <g clip-path="url(#p6e20b5f17d)">
     <use xlink:href="#C0_0_bef95a0308" x="265.49122" y="232.080669" style="fill: #dcbeff; fill-opacity: 0.8; stroke: #dcbeff; stroke-opacity: 0.8"/>
    </g>
    <g clip-path="url(#p6e20b5f17d)">
     <use xlink:href="#C0_0_bef95a0308" x="260.363808" y="237.558232" style="fill: #dcbeff; fill-opacity: 0.8; stroke: #dcbeff; stroke-opacity: 0.8"/>
    </g>
    <g clip-path="url(#p6e20b5f17d)">
     <use xlink:href="#C0_0_bef95a0308" x="186.297164" y="121.527081" style="fill: #3cb44b; fill-opacity: 0.8; stroke: #3cb44b; stroke-opacity: 0.8"/>
    </g>
    <g clip-path="url(#p6e20b5f17d)">
     <use xlink:href="#C0_0_bef95a0308" x="258.927379" y="228.878792" style="fill: #dcbeff; fill-opacity: 0.8; stroke: #dcbeff; stroke-opacity: 0.8"/>
    </g>
    <g clip-path="url(#p6e20b5f17d)">
     <use xlink:href="#C0_0_bef95a0308" x="117.439791" y="131.431762" style="fill: #469990; fill-opacity: 0.8; stroke: #469990; stroke-opacity: 0.8"/>
    </g>
    <g clip-path="url(#p6e20b5f17d)">
     <use xlink:href="#C0_0_bef95a0308" x="349.798378" y="150.858018" style="fill: #bfef45; fill-opacity: 0.8; stroke: #bfef45; stroke-opacity: 0.8"/>
    </g>
    <g clip-path="url(#p6e20b5f17d)">
     <use xlink:href="#C0_0_bef95a0308" x="263.813111" y="235.696657" style="fill: #dcbeff; fill-opacity: 0.8; stroke: #dcbeff; stroke-opacity: 0.8"/>
    </g>
    <g clip-path="url(#p6e20b5f17d)">
     <use xlink:href="#C0_0_bef95a0308" x="346.036292" y="155.921932" style="fill: #bfef45; fill-opacity: 0.8; stroke: #bfef45; stroke-opacity: 0.8"/>
    </g>
    <g clip-path="url(#p6e20b5f17d)">
     <use xlink:href="#C0_0_bef95a0308" x="214.400292" y="184.876651" style="fill: #911eb4; fill-opacity: 0.8; stroke: #911eb4; stroke-opacity: 0.8"/>
    </g>
    <g clip-path="url(#p6e20b5f17d)">
     <use xlink:href="#C0_0_bef95a0308" x="261.351339" y="236.38871" style="fill: #dcbeff; fill-opacity: 0.8; stroke: #dcbeff; stroke-opacity: 0.8"/>
    </g>
    <g clip-path="url(#p6e20b5f17d)">
     <use xlink:href="#C0_0_bef95a0308" x="258.613521" y="70.690547" style="fill: #42d4f4; fill-opacity: 0.8; stroke: #42d4f4; stroke-opacity: 0.8"/>
    </g>
    <g clip-path="url(#p6e20b5f17d)">
     <use xlink:href="#C0_0_bef95a0308" x="221.234426" y="113.854767" style="fill: #f032e6; fill-opacity: 0.8; stroke: #f032e6; stroke-opacity: 0.8"/>
    </g>
    <g clip-path="url(#p6e20b5f17d)">
     <use xlink:href="#C0_0_bef95a0308" x="347.194389" y="143.531376" style="fill: #bfef45; fill-opacity: 0.8; stroke: #bfef45; stroke-opacity: 0.8"/>
    </g>
    <g clip-path="url(#p6e20b5f17d)">
     <use xlink:href="#C0_0_bef95a0308" x="213.478051" y="211.203202" style="fill: #fffac8; fill-opacity: 0.8; stroke: #fffac8; stroke-opacity: 0.8"/>
    </g>
    <g clip-path="url(#p6e20b5f17d)">
     <use xlink:href="#C0_0_bef95a0308" x="380.167575" y="116.183347" style="fill: #800000; fill-opacity: 0.8; stroke: #800000; stroke-opacity: 0.8"/>
    </g>
    <g clip-path="url(#p6e20b5f17d)">
     <use xlink:href="#C0_0_bef95a0308" x="212.422254" y="200.52588" style="fill: #911eb4; fill-opacity: 0.8; stroke: #911eb4; stroke-opacity: 0.8"/>
    </g>
    <g clip-path="url(#p6e20b5f17d)">
     <use xlink:href="#C0_0_bef95a0308" x="370.411724" y="130.691542" style="fill: #bfef45; fill-opacity: 0.8; stroke: #bfef45; stroke-opacity: 0.8"/>
    </g>
    <g clip-path="url(#p6e20b5f17d)">
     <use xlink:href="#C0_0_bef95a0308" x="218.050578" y="192.751985" style="fill: #911eb4; fill-opacity: 0.8; stroke: #911eb4; stroke-opacity: 0.8"/>
    </g>
    <g clip-path="url(#p6e20b5f17d)">
     <use xlink:href="#C0_0_bef95a0308" x="219.197981" y="84.683432" style="fill: #f032e6; fill-opacity: 0.8; stroke: #f032e6; stroke-opacity: 0.8"/>
    </g>
    <g clip-path="url(#p6e20b5f17d)">
     <use xlink:href="#C0_0_bef95a0308" x="345.908527" y="155.465809" style="fill: #bfef45; fill-opacity: 0.8; stroke: #bfef45; stroke-opacity: 0.8"/>
    </g>
    <g clip-path="url(#p6e20b5f17d)">
     <use xlink:href="#C0_0_bef95a0308" x="257.466015" y="66.328622" style="fill: #42d4f4; fill-opacity: 0.8; stroke: #42d4f4; stroke-opacity: 0.8"/>
    </g>
    <g clip-path="url(#p6e20b5f17d)">
     <use xlink:href="#C0_0_bef95a0308" x="251.215015" y="72.976766" style="fill: #42d4f4; fill-opacity: 0.8; stroke: #42d4f4; stroke-opacity: 0.8"/>
    </g>
    <g clip-path="url(#p6e20b5f17d)">
     <use xlink:href="#C0_0_bef95a0308" x="216.969715" y="196.237179" style="fill: #911eb4; fill-opacity: 0.8; stroke: #911eb4; stroke-opacity: 0.8"/>
    </g>
    <g clip-path="url(#p6e20b5f17d)">
     <use xlink:href="#C0_0_bef95a0308" x="258.32802" y="72.222743" style="fill: #42d4f4; fill-opacity: 0.8; stroke: #42d4f4; stroke-opacity: 0.8"/>
    </g>
    <g clip-path="url(#p6e20b5f17d)">
     <use xlink:href="#C0_0_bef95a0308" x="254.825086" y="65.696512" style="fill: #42d4f4; fill-opacity: 0.8; stroke: #42d4f4; stroke-opacity: 0.8"/>
    </g>
    <g clip-path="url(#p6e20b5f17d)">
     <use xlink:href="#C0_0_bef95a0308" x="101.551151" y="142.930085" style="fill: #e6194b; fill-opacity: 0.8; stroke: #e6194b; stroke-opacity: 0.8"/>
    </g>
    <g clip-path="url(#p6e20b5f17d)">
     <use xlink:href="#C0_0_bef95a0308" x="257.732015" y="234.183001" style="fill: #dcbeff; fill-opacity: 0.8; stroke: #dcbeff; stroke-opacity: 0.8"/>
    </g>
    <g clip-path="url(#p6e20b5f17d)">
     <use xlink:href="#C0_0_bef95a0308" x="250.540754" y="202.978085" style="fill: #dcbeff; fill-opacity: 0.8; stroke: #dcbeff; stroke-opacity: 0.8"/>
    </g>
    <g clip-path="url(#p6e20b5f17d)">
     <use xlink:href="#C0_0_bef95a0308" x="236.567341" y="222.9307" style="fill: #911eb4; fill-opacity: 0.8; stroke: #911eb4; stroke-opacity: 0.8"/>
    </g>
    <g clip-path="url(#p6e20b5f17d)">
     <use xlink:href="#C0_0_bef95a0308" x="259.585985" y="58.609219" style="fill: #42d4f4; fill-opacity: 0.8; stroke: #42d4f4; stroke-opacity: 0.8"/>
    </g>
    <g clip-path="url(#p6e20b5f17d)">
     <use xlink:href="#C0_0_bef95a0308" x="246.035475" y="283.172719" style="fill: #4363d8; fill-opacity: 0.8; stroke: #4363d8; stroke-opacity: 0.8"/>
    </g>
    <g clip-path="url(#p6e20b5f17d)">
     <use xlink:href="#C0_0_bef95a0308" x="99.443066" y="159.68326" style="fill: #e6194b; fill-opacity: 0.8; stroke: #e6194b; stroke-opacity: 0.8"/>
    </g>
    <g clip-path="url(#p6e20b5f17d)">
     <use xlink:href="#C0_0_bef95a0308" x="343.784661" y="162.077595" style="fill: #bfef45; fill-opacity: 0.8; stroke: #bfef45; stroke-opacity: 0.8"/>
    </g>
    <g clip-path="url(#p6e20b5f17d)">
     <use xlink:href="#C0_0_bef95a0308" x="261.195487" y="232.81362" style="fill: #dcbeff; fill-opacity: 0.8; stroke: #dcbeff; stroke-opacity: 0.8"/>
    </g>
    <g clip-path="url(#p6e20b5f17d)">
     <use xlink:href="#C0_0_bef95a0308" x="260.477264" y="79.404883" style="fill: #42d4f4; fill-opacity: 0.8; stroke: #42d4f4; stroke-opacity: 0.8"/>
    </g>
    <g clip-path="url(#p6e20b5f17d)">
     <use xlink:href="#C0_0_bef95a0308" x="260.447589" y="237.941324" style="fill: #dcbeff; fill-opacity: 0.8; stroke: #dcbeff; stroke-opacity: 0.8"/>
    </g>
    <g clip-path="url(#p6e20b5f17d)">
     <use xlink:href="#C0_0_bef95a0308" x="258.609502" y="227.537179" style="fill: #dcbeff; fill-opacity: 0.8; stroke: #dcbeff; stroke-opacity: 0.8"/>
    </g>
    <g clip-path="url(#p6e20b5f17d)">
     <use xlink:href="#C0_0_bef95a0308" x="262.76968" y="244.334311" style="fill: #dcbeff; fill-opacity: 0.8; stroke: #dcbeff; stroke-opacity: 0.8"/>
    </g>
    <g clip-path="url(#p6e20b5f17d)">
     <use xlink:href="#C0_0_bef95a0308" x="261.998782" y="230.761208" style="fill: #dcbeff; fill-opacity: 0.8; stroke: #dcbeff; stroke-opacity: 0.8"/>
    </g>
    <g clip-path="url(#p6e20b5f17d)">
     <use xlink:href="#C0_0_bef95a0308" x="255.698114" y="68.370437" style="fill: #42d4f4; fill-opacity: 0.8; stroke: #42d4f4; stroke-opacity: 0.8"/>
    </g>
    <g clip-path="url(#p6e20b5f17d)">
     <use xlink:href="#C0_0_bef95a0308" x="93.391606" y="144.757433" style="fill: #e6194b; fill-opacity: 0.8; stroke: #e6194b; stroke-opacity: 0.8"/>
    </g>
    <g clip-path="url(#p6e20b5f17d)">
     <use xlink:href="#C0_0_bef95a0308" x="402.167898" y="88.736754" style="fill: #800000; fill-opacity: 0.8; stroke: #800000; stroke-opacity: 0.8"/>
    </g>
    <g clip-path="url(#p6e20b5f17d)">
     <use xlink:href="#C0_0_bef95a0308" x="96.881271" y="148.842738" style="fill: #e6194b; fill-opacity: 0.8; stroke: #e6194b; stroke-opacity: 0.8"/>
    </g>
    <g clip-path="url(#p6e20b5f17d)">
     <use xlink:href="#C0_0_bef95a0308" x="218.110227" y="219.779894" style="fill: #fffac8; fill-opacity: 0.8; stroke: #fffac8; stroke-opacity: 0.8"/>
    </g>
    <g clip-path="url(#p6e20b5f17d)">
     <use xlink:href="#C0_0_bef95a0308" x="249.049556" y="107.862741" style="fill: #42d4f4; fill-opacity: 0.8; stroke: #42d4f4; stroke-opacity: 0.8"/>
    </g>
    <g clip-path="url(#p6e20b5f17d)">
     <use xlink:href="#C0_0_bef95a0308" x="258.821114" y="247.425863" style="fill: #9a6324; fill-opacity: 0.8; stroke: #9a6324; stroke-opacity: 0.8"/>
    </g>
    <g clip-path="url(#p6e20b5f17d)">
     <use xlink:href="#C0_0_bef95a0308" x="262.697757" y="249.023096" style="fill: #dcbeff; fill-opacity: 0.8; stroke: #dcbeff; stroke-opacity: 0.8"/>
    </g>
    <g clip-path="url(#p6e20b5f17d)">
     <use xlink:href="#C0_0_bef95a0308" x="261.108661" y="237.826845" style="fill: #dcbeff; fill-opacity: 0.8; stroke: #dcbeff; stroke-opacity: 0.8"/>
    </g>
    <g clip-path="url(#p6e20b5f17d)">
     <use xlink:href="#C0_0_bef95a0308" x="99.489876" y="146.461077" style="fill: #e6194b; fill-opacity: 0.8; stroke: #e6194b; stroke-opacity: 0.8"/>
    </g>
    <g clip-path="url(#p6e20b5f17d)">
     <use xlink:href="#C0_0_bef95a0308" x="259.344407" y="235.546057" style="fill: #dcbeff; fill-opacity: 0.8; stroke: #dcbeff; stroke-opacity: 0.8"/>
    </g>
    <g clip-path="url(#p6e20b5f17d)">
     <use xlink:href="#C0_0_bef95a0308" x="217.885822" y="198.095765" style="fill: #911eb4; fill-opacity: 0.8; stroke: #911eb4; stroke-opacity: 0.8"/>
    </g>
    <g clip-path="url(#p6e20b5f17d)">
     <use xlink:href="#C0_0_bef95a0308" x="219.14653" y="201.171112" style="fill: #911eb4; fill-opacity: 0.8; stroke: #911eb4; stroke-opacity: 0.8"/>
    </g>
    <g clip-path="url(#p6e20b5f17d)">
     <use xlink:href="#C0_0_bef95a0308" x="260.2168" y="229.910284" style="fill: #dcbeff; fill-opacity: 0.8; stroke: #dcbeff; stroke-opacity: 0.8"/>
    </g>
    <g clip-path="url(#p6e20b5f17d)">
     <use xlink:href="#C0_0_bef95a0308" x="259.688049" y="234.529624" style="fill: #dcbeff; fill-opacity: 0.8; stroke: #dcbeff; stroke-opacity: 0.8"/>
    </g>
    <g clip-path="url(#p6e20b5f17d)">
     <use xlink:href="#C0_0_bef95a0308" x="261.85459" y="245.168118" style="fill: #dcbeff; fill-opacity: 0.8; stroke: #dcbeff; stroke-opacity: 0.8"/>
    </g>
    <g clip-path="url(#p6e20b5f17d)">
     <use xlink:href="#C0_0_bef95a0308" x="212.384414" y="80.750321" style="fill: #f032e6; fill-opacity: 0.8; stroke: #f032e6; stroke-opacity: 0.8"/>
    </g>
    <g clip-path="url(#p6e20b5f17d)">
     <use xlink:href="#C0_0_bef95a0308" x="261.127743" y="234.93268" style="fill: #dcbeff; fill-opacity: 0.8; stroke: #dcbeff; stroke-opacity: 0.8"/>
    </g>
    <g clip-path="url(#p6e20b5f17d)">
     <use xlink:href="#C0_0_bef95a0308" x="219.733896" y="209.911775" style="fill: #911eb4; fill-opacity: 0.8; stroke: #911eb4; stroke-opacity: 0.8"/>
    </g>
    <g clip-path="url(#p6e20b5f17d)">
     <use xlink:href="#C0_0_bef95a0308" x="96.363064" y="153.546205" style="fill: #e6194b; fill-opacity: 0.8; stroke: #e6194b; stroke-opacity: 0.8"/>
    </g>
    <g clip-path="url(#p6e20b5f17d)">
     <use xlink:href="#C0_0_bef95a0308" x="230.666867" y="146.535051" style="fill: #e6194b; fill-opacity: 0.8; stroke: #e6194b; stroke-opacity: 0.8"/>
    </g>
    <g clip-path="url(#p6e20b5f17d)">
     <use xlink:href="#C0_0_bef95a0308" x="251.906441" y="242.159059" style="fill: #42d4f4; fill-opacity: 0.8; stroke: #42d4f4; stroke-opacity: 0.8"/>
    </g>
    <g clip-path="url(#p6e20b5f17d)">
     <use xlink:href="#C0_0_bef95a0308" x="99.783108" y="138.904566" style="fill: #e6194b; fill-opacity: 0.8; stroke: #e6194b; stroke-opacity: 0.8"/>
    </g>
    <g clip-path="url(#p6e20b5f17d)">
     <use xlink:href="#C0_0_bef95a0308" x="206.693298" y="147.713549" style="fill: #ffe119; fill-opacity: 0.8; stroke: #ffe119; stroke-opacity: 0.8"/>
    </g>
    <g clip-path="url(#p6e20b5f17d)">
     <use xlink:href="#C0_0_bef95a0308" x="209.619778" y="224.018864" style="fill: #f58231; fill-opacity: 0.8; stroke: #f58231; stroke-opacity: 0.8"/>
    </g>
    <g clip-path="url(#p6e20b5f17d)">
     <use xlink:href="#C0_0_bef95a0308" x="344.04411" y="160.476776" style="fill: #bfef45; fill-opacity: 0.8; stroke: #bfef45; stroke-opacity: 0.8"/>
    </g>
    <g clip-path="url(#p6e20b5f17d)">
     <use xlink:href="#C0_0_bef95a0308" x="261.835434" y="231.615053" style="fill: #dcbeff; fill-opacity: 0.8; stroke: #dcbeff; stroke-opacity: 0.8"/>
    </g>
    <g clip-path="url(#p6e20b5f17d)">
     <use xlink:href="#C0_0_bef95a0308" x="257.405795" y="57.156124" style="fill: #42d4f4; fill-opacity: 0.8; stroke: #42d4f4; stroke-opacity: 0.8"/>
    </g>
    <g clip-path="url(#p6e20b5f17d)">
     <use xlink:href="#C0_0_bef95a0308" x="260.036815" y="247.611932" style="fill: #dcbeff; fill-opacity: 0.8; stroke: #dcbeff; stroke-opacity: 0.8"/>
    </g>
    <g clip-path="url(#p6e20b5f17d)">
     <use xlink:href="#C0_0_bef95a0308" x="253.983859" y="74.359052" style="fill: #42d4f4; fill-opacity: 0.8; stroke: #42d4f4; stroke-opacity: 0.8"/>
    </g>
    <g clip-path="url(#p6e20b5f17d)">
     <use xlink:href="#C0_0_bef95a0308" x="218.696686" y="185.73969" style="fill: #911eb4; fill-opacity: 0.8; stroke: #911eb4; stroke-opacity: 0.8"/>
    </g>
    <g clip-path="url(#p6e20b5f17d)">
     <use xlink:href="#C0_0_bef95a0308" x="253.227658" y="252.542728" style="fill: #dcbeff; fill-opacity: 0.8; stroke: #dcbeff; stroke-opacity: 0.8"/>
    </g>
    <g clip-path="url(#p6e20b5f17d)">
     <use xlink:href="#C0_0_bef95a0308" x="264.206407" y="47.837352" style="fill: #42d4f4; fill-opacity: 0.8; stroke: #42d4f4; stroke-opacity: 0.8"/>
    </g>
    <g clip-path="url(#p6e20b5f17d)">
     <use xlink:href="#C0_0_bef95a0308" x="180.613551" y="103.016768" style="fill: #3cb44b; fill-opacity: 0.8; stroke: #3cb44b; stroke-opacity: 0.8"/>
    </g>
    <g clip-path="url(#p6e20b5f17d)">
     <use xlink:href="#C0_0_bef95a0308" x="204.126473" y="182.191151" style="fill: #911eb4; fill-opacity: 0.8; stroke: #911eb4; stroke-opacity: 0.8"/>
    </g>
    <g clip-path="url(#p6e20b5f17d)">
     <use xlink:href="#C0_0_bef95a0308" x="262.541739" y="228.852611" style="fill: #dcbeff; fill-opacity: 0.8; stroke: #dcbeff; stroke-opacity: 0.8"/>
    </g>
    <g clip-path="url(#p6e20b5f17d)">
     <use xlink:href="#C0_0_bef95a0308" x="353.753654" y="187.569894" style="fill: #bfef45; fill-opacity: 0.8; stroke: #bfef45; stroke-opacity: 0.8"/>
    </g>
    <g clip-path="url(#p6e20b5f17d)">
     <use xlink:href="#C0_0_bef95a0308" x="243.571456" y="219.825828" style="fill: #dcbeff; fill-opacity: 0.8; stroke: #dcbeff; stroke-opacity: 0.8"/>
    </g>
    <g clip-path="url(#p6e20b5f17d)">
     <use xlink:href="#C0_0_bef95a0308" x="214.735638" y="147.426735" style="fill: #bfef45; fill-opacity: 0.8; stroke: #bfef45; stroke-opacity: 0.8"/>
    </g>
    <g clip-path="url(#p6e20b5f17d)">
     <use xlink:href="#C0_0_bef95a0308" x="265.480933" y="71.247211" style="fill: #dcbeff; fill-opacity: 0.8; stroke: #dcbeff; stroke-opacity: 0.8"/>
    </g>
    <g clip-path="url(#p6e20b5f17d)">
     <use xlink:href="#C0_0_bef95a0308" x="259.157211" y="77.716183" style="fill: #42d4f4; fill-opacity: 0.8; stroke: #42d4f4; stroke-opacity: 0.8"/>
    </g>
    <g clip-path="url(#p6e20b5f17d)">
     <use xlink:href="#C0_0_bef95a0308" x="253.303519" y="78.843616" style="fill: #42d4f4; fill-opacity: 0.8; stroke: #42d4f4; stroke-opacity: 0.8"/>
    </g>
    <g clip-path="url(#p6e20b5f17d)">
     <use xlink:href="#C0_0_bef95a0308" x="254.079519" y="81.884765" style="fill: #42d4f4; fill-opacity: 0.8; stroke: #42d4f4; stroke-opacity: 0.8"/>
    </g>
    <g clip-path="url(#p6e20b5f17d)">
     <use xlink:href="#C0_0_bef95a0308" x="255.066501" y="73.193479" style="fill: #42d4f4; fill-opacity: 0.8; stroke: #42d4f4; stroke-opacity: 0.8"/>
    </g>
    <g clip-path="url(#p6e20b5f17d)">
     <use xlink:href="#C0_0_bef95a0308" x="181.020745" y="110.386239" style="fill: #3cb44b; fill-opacity: 0.8; stroke: #3cb44b; stroke-opacity: 0.8"/>
    </g>
    <g clip-path="url(#p6e20b5f17d)">
     <use xlink:href="#C0_0_bef95a0308" x="90.88324" y="117.928926" style="fill: #469990; fill-opacity: 0.8; stroke: #469990; stroke-opacity: 0.8"/>
    </g>
   </g>
   <g id="matplotlib.axis_1">
    <g id="xtick_1">
     <g id="line2d_1">
      <defs>
       <path id="m6d5c9cbc50" d="M 0 0 
L 0 8 
" style="stroke: #000000; stroke-width: 3"/>
      </defs>
      <g>
       <use xlink:href="#m6d5c9cbc50" x="89.740354" y="295.268719" style="stroke: #000000; stroke-width: 3"/>
      </g>
     </g>
     <g id="text_1">
      <!-- −7.5 -->
      <g transform="translate(71.528245 318.166375) scale(0.15 -0.15)">
       <defs>
        <path id="DejaVuSans-2212" d="M 678 2272 
L 4684 2272 
L 4684 1741 
L 678 1741 
L 678 2272 
z
" transform="scale(0.015625)"/>
        <path id="DejaVuSans-37" d="M 525 4666 
L 3525 4666 
L 3525 4397 
L 1831 0 
L 1172 0 
L 2766 4134 
L 525 4134 
L 525 4666 
z
" transform="scale(0.015625)"/>
        <path id="DejaVuSans-2e" d="M 684 794 
L 1344 794 
L 1344 0 
L 684 0 
L 684 794 
z
" transform="scale(0.015625)"/>
        <path id="DejaVuSans-35" d="M 691 4666 
L 3169 4666 
L 3169 4134 
L 1269 4134 
L 1269 2991 
Q 1406 3038 1543 3061 
Q 1681 3084 1819 3084 
Q 2600 3084 3056 2656 
Q 3513 2228 3513 1497 
Q 3513 744 3044 326 
Q 2575 -91 1722 -91 
Q 1428 -91 1123 -41 
Q 819 9 494 109 
L 494 744 
Q 775 591 1075 516 
Q 1375 441 1709 441 
Q 2250 441 2565 725 
Q 2881 1009 2881 1497 
Q 2881 1984 2565 2268 
Q 2250 2553 1709 2553 
Q 1456 2553 1204 2497 
Q 953 2441 691 2322 
L 691 4666 
z
" transform="scale(0.015625)"/>
       </defs>
       <use xlink:href="#DejaVuSans-2212"/>
       <use xlink:href="#DejaVuSans-37" x="83.789062"/>
       <use xlink:href="#DejaVuSans-2e" x="147.412109"/>
       <use xlink:href="#DejaVuSans-35" x="179.199219"/>
      </g>
     </g>
    </g>
    <g id="xtick_2">
     <g id="line2d_2">
      <g>
       <use xlink:href="#m6d5c9cbc50" x="140.800373" y="295.268719" style="stroke: #000000; stroke-width: 3"/>
      </g>
     </g>
     <g id="text_2">
      <!-- −5.0 -->
      <g transform="translate(122.588264 318.166375) scale(0.15 -0.15)">
       <defs>
        <path id="DejaVuSans-30" d="M 2034 4250 
Q 1547 4250 1301 3770 
Q 1056 3291 1056 2328 
Q 1056 1369 1301 889 
Q 1547 409 2034 409 
Q 2525 409 2770 889 
Q 3016 1369 3016 2328 
Q 3016 3291 2770 3770 
Q 2525 4250 2034 4250 
z
M 2034 4750 
Q 2819 4750 3233 4129 
Q 3647 3509 3647 2328 
Q 3647 1150 3233 529 
Q 2819 -91 2034 -91 
Q 1250 -91 836 529 
Q 422 1150 422 2328 
Q 422 3509 836 4129 
Q 1250 4750 2034 4750 
z
" transform="scale(0.015625)"/>
       </defs>
       <use xlink:href="#DejaVuSans-2212"/>
       <use xlink:href="#DejaVuSans-35" x="83.789062"/>
       <use xlink:href="#DejaVuSans-2e" x="147.412109"/>
       <use xlink:href="#DejaVuSans-30" x="179.199219"/>
      </g>
     </g>
    </g>
    <g id="xtick_3">
     <g id="line2d_3">
      <g>
       <use xlink:href="#m6d5c9cbc50" x="191.860393" y="295.268719" style="stroke: #000000; stroke-width: 3"/>
      </g>
     </g>
     <g id="text_3">
      <!-- −2.5 -->
      <g transform="translate(173.648284 318.166375) scale(0.15 -0.15)">
       <defs>
        <path id="DejaVuSans-32" d="M 1228 531 
L 3431 531 
L 3431 0 
L 469 0 
L 469 531 
Q 828 903 1448 1529 
Q 2069 2156 2228 2338 
Q 2531 2678 2651 2914 
Q 2772 3150 2772 3378 
Q 2772 3750 2511 3984 
Q 2250 4219 1831 4219 
Q 1534 4219 1204 4116 
Q 875 4013 500 3803 
L 500 4441 
Q 881 4594 1212 4672 
Q 1544 4750 1819 4750 
Q 2544 4750 2975 4387 
Q 3406 4025 3406 3419 
Q 3406 3131 3298 2873 
Q 3191 2616 2906 2266 
Q 2828 2175 2409 1742 
Q 1991 1309 1228 531 
z
" transform="scale(0.015625)"/>
       </defs>
       <use xlink:href="#DejaVuSans-2212"/>
       <use xlink:href="#DejaVuSans-32" x="83.789062"/>
       <use xlink:href="#DejaVuSans-2e" x="147.412109"/>
       <use xlink:href="#DejaVuSans-35" x="179.199219"/>
      </g>
     </g>
    </g>
    <g id="xtick_4">
     <g id="line2d_4">
      <g>
       <use xlink:href="#m6d5c9cbc50" x="242.920412" y="295.268719" style="stroke: #000000; stroke-width: 3"/>
      </g>
     </g>
     <g id="text_4">
      <!-- 0.0 -->
      <g transform="translate(230.993069 318.166375) scale(0.15 -0.15)">
       <use xlink:href="#DejaVuSans-30"/>
       <use xlink:href="#DejaVuSans-2e" x="63.623047"/>
       <use xlink:href="#DejaVuSans-30" x="95.410156"/>
      </g>
     </g>
    </g>
    <g id="xtick_5">
     <g id="line2d_5">
      <g>
       <use xlink:href="#m6d5c9cbc50" x="293.980432" y="295.268719" style="stroke: #000000; stroke-width: 3"/>
      </g>
     </g>
     <g id="text_5">
      <!-- 2.5 -->
      <g transform="translate(282.053088 318.166375) scale(0.15 -0.15)">
       <use xlink:href="#DejaVuSans-32"/>
       <use xlink:href="#DejaVuSans-2e" x="63.623047"/>
       <use xlink:href="#DejaVuSans-35" x="95.410156"/>
      </g>
     </g>
    </g>
    <g id="xtick_6">
     <g id="line2d_6">
      <g>
       <use xlink:href="#m6d5c9cbc50" x="345.040451" y="295.268719" style="stroke: #000000; stroke-width: 3"/>
      </g>
     </g>
     <g id="text_6">
      <!-- 5.0 -->
      <g transform="translate(333.113107 318.166375) scale(0.15 -0.15)">
       <use xlink:href="#DejaVuSans-35"/>
       <use xlink:href="#DejaVuSans-2e" x="63.623047"/>
       <use xlink:href="#DejaVuSans-30" x="95.410156"/>
      </g>
     </g>
    </g>
    <g id="xtick_7">
     <g id="line2d_7">
      <g>
       <use xlink:href="#m6d5c9cbc50" x="396.100471" y="295.268719" style="stroke: #000000; stroke-width: 3"/>
      </g>
     </g>
     <g id="text_7">
      <!-- 7.5 -->
      <g transform="translate(384.173127 318.166375) scale(0.15 -0.15)">
       <use xlink:href="#DejaVuSans-37"/>
       <use xlink:href="#DejaVuSans-2e" x="63.623047"/>
       <use xlink:href="#DejaVuSans-35" x="95.410156"/>
      </g>
     </g>
    </g>
    <g id="text_8">
     <!-- LDA 1 -->
     <g transform="translate(214.784219 338.20325) scale(0.17 -0.17)">
      <defs>
       <path id="DejaVuSans-4c" d="M 628 4666 
L 1259 4666 
L 1259 531 
L 3531 531 
L 3531 0 
L 628 0 
L 628 4666 
z
" transform="scale(0.015625)"/>
       <path id="DejaVuSans-44" d="M 1259 4147 
L 1259 519 
L 2022 519 
Q 2988 519 3436 956 
Q 3884 1394 3884 2338 
Q 3884 3275 3436 3711 
Q 2988 4147 2022 4147 
L 1259 4147 
z
M 628 4666 
L 1925 4666 
Q 3281 4666 3915 4102 
Q 4550 3538 4550 2338 
Q 4550 1131 3912 565 
Q 3275 0 1925 0 
L 628 0 
L 628 4666 
z
" transform="scale(0.015625)"/>
       <path id="DejaVuSans-41" d="M 2188 4044 
L 1331 1722 
L 3047 1722 
L 2188 4044 
z
M 1831 4666 
L 2547 4666 
L 4325 0 
L 3669 0 
L 3244 1197 
L 1141 1197 
L 716 0 
L 50 0 
L 1831 4666 
z
" transform="scale(0.015625)"/>
       <path id="DejaVuSans-20" transform="scale(0.015625)"/>
       <path id="DejaVuSans-31" d="M 794 531 
L 1825 531 
L 1825 4091 
L 703 3866 
L 703 4441 
L 1819 4666 
L 2450 4666 
L 2450 531 
L 3481 531 
L 3481 0 
L 794 0 
L 794 531 
z
" transform="scale(0.015625)"/>
      </defs>
      <use xlink:href="#DejaVuSans-4c"/>
      <use xlink:href="#DejaVuSans-44" x="55.712891"/>
      <use xlink:href="#DejaVuSans-41" x="130.964844"/>
      <use xlink:href="#DejaVuSans-20" x="199.373047"/>
      <use xlink:href="#DejaVuSans-31" x="231.160156"/>
     </g>
    </g>
   </g>
   <g id="matplotlib.axis_2">
    <g id="ytick_1">
     <g id="line2d_8">
      <defs>
       <path id="m1db11dbf13" d="M 0 0 
L -8 0 
" style="stroke: #000000; stroke-width: 3"/>
      </defs>
      <g>
       <use xlink:href="#m1db11dbf13" x="61.280625" y="272.721176" style="stroke: #000000; stroke-width: 3"/>
      </g>
     </g>
     <g id="text_9">
      <!-- −4 -->
      <g transform="translate(27.667344 278.420005) scale(0.15 -0.15)">
       <defs>
        <path id="DejaVuSans-34" d="M 2419 4116 
L 825 1625 
L 2419 1625 
L 2419 4116 
z
M 2253 4666 
L 3047 4666 
L 3047 1625 
L 3713 1625 
L 3713 1100 
L 3047 1100 
L 3047 0 
L 2419 0 
L 2419 1100 
L 313 1100 
L 313 1709 
L 2253 4666 
z
" transform="scale(0.015625)"/>
       </defs>
       <use xlink:href="#DejaVuSans-2212"/>
       <use xlink:href="#DejaVuSans-34" x="83.789062"/>
      </g>
     </g>
    </g>
    <g id="ytick_2">
     <g id="line2d_9">
      <g>
       <use xlink:href="#m1db11dbf13" x="61.280625" y="218.143019" style="stroke: #000000; stroke-width: 3"/>
      </g>
     </g>
     <g id="text_10">
      <!-- −2 -->
      <g transform="translate(27.667344 223.841848) scale(0.15 -0.15)">
       <use xlink:href="#DejaVuSans-2212"/>
       <use xlink:href="#DejaVuSans-32" x="83.789062"/>
      </g>
     </g>
    </g>
    <g id="ytick_3">
     <g id="line2d_10">
      <g>
       <use xlink:href="#m1db11dbf13" x="61.280625" y="163.564862" style="stroke: #000000; stroke-width: 3"/>
      </g>
     </g>
     <g id="text_11">
      <!-- 0 -->
      <g transform="translate(40.236875 169.263691) scale(0.15 -0.15)">
       <use xlink:href="#DejaVuSans-30"/>
      </g>
     </g>
    </g>
    <g id="ytick_4">
     <g id="line2d_11">
      <g>
       <use xlink:href="#m1db11dbf13" x="61.280625" y="108.986705" style="stroke: #000000; stroke-width: 3"/>
      </g>
     </g>
     <g id="text_12">
      <!-- 2 -->
      <g transform="translate(40.236875 114.685534) scale(0.15 -0.15)">
       <use xlink:href="#DejaVuSans-32"/>
      </g>
     </g>
    </g>
    <g id="ytick_5">
     <g id="line2d_12">
      <g>
       <use xlink:href="#m1db11dbf13" x="61.280625" y="54.408548" style="stroke: #000000; stroke-width: 3"/>
      </g>
     </g>
     <g id="text_13">
      <!-- 4 -->
      <g transform="translate(40.236875 60.107376) scale(0.15 -0.15)">
       <use xlink:href="#DejaVuSans-34"/>
      </g>
     </g>
    </g>
    <g id="text_14">
     <!-- LDA 2 -->
     <g transform="translate(20.131875 187.269125) rotate(-90) scale(0.17 -0.17)">
      <use xlink:href="#DejaVuSans-4c"/>
      <use xlink:href="#DejaVuSans-44" x="55.712891"/>
      <use xlink:href="#DejaVuSans-41" x="130.964844"/>
      <use xlink:href="#DejaVuSans-20" x="199.373047"/>
      <use xlink:href="#DejaVuSans-32" x="231.160156"/>
     </g>
    </g>
   </g>
   <g id="patch_3">
    <path d="M 61.280625 295.268719 
L 61.280625 29.156719 
" style="fill: none; stroke: #000000; stroke-width: 2; stroke-linejoin: miter; stroke-linecap: square"/>
   </g>
   <g id="patch_4">
    <path d="M 61.280625 295.268719 
L 418.400625 295.268719 
" style="fill: none; stroke: #000000; stroke-width: 2; stroke-linejoin: miter; stroke-linecap: square"/>
   </g>
   <g id="text_15">
    <!-- LDA random - Embeddings resp. atom types -->
    <g transform="translate(7.2 23.156719) scale(0.21 -0.21)">
     <defs>
      <path id="DejaVuSans-72" d="M 2631 2963 
Q 2534 3019 2420 3045 
Q 2306 3072 2169 3072 
Q 1681 3072 1420 2755 
Q 1159 2438 1159 1844 
L 1159 0 
L 581 0 
L 581 3500 
L 1159 3500 
L 1159 2956 
Q 1341 3275 1631 3429 
Q 1922 3584 2338 3584 
Q 2397 3584 2469 3576 
Q 2541 3569 2628 3553 
L 2631 2963 
z
" transform="scale(0.015625)"/>
      <path id="DejaVuSans-61" d="M 2194 1759 
Q 1497 1759 1228 1600 
Q 959 1441 959 1056 
Q 959 750 1161 570 
Q 1363 391 1709 391 
Q 2188 391 2477 730 
Q 2766 1069 2766 1631 
L 2766 1759 
L 2194 1759 
z
M 3341 1997 
L 3341 0 
L 2766 0 
L 2766 531 
Q 2569 213 2275 61 
Q 1981 -91 1556 -91 
Q 1019 -91 701 211 
Q 384 513 384 1019 
Q 384 1609 779 1909 
Q 1175 2209 1959 2209 
L 2766 2209 
L 2766 2266 
Q 2766 2663 2505 2880 
Q 2244 3097 1772 3097 
Q 1472 3097 1187 3025 
Q 903 2953 641 2809 
L 641 3341 
Q 956 3463 1253 3523 
Q 1550 3584 1831 3584 
Q 2591 3584 2966 3190 
Q 3341 2797 3341 1997 
z
" transform="scale(0.015625)"/>
      <path id="DejaVuSans-6e" d="M 3513 2113 
L 3513 0 
L 2938 0 
L 2938 2094 
Q 2938 2591 2744 2837 
Q 2550 3084 2163 3084 
Q 1697 3084 1428 2787 
Q 1159 2491 1159 1978 
L 1159 0 
L 581 0 
L 581 3500 
L 1159 3500 
L 1159 2956 
Q 1366 3272 1645 3428 
Q 1925 3584 2291 3584 
Q 2894 3584 3203 3211 
Q 3513 2838 3513 2113 
z
" transform="scale(0.015625)"/>
      <path id="DejaVuSans-64" d="M 2906 2969 
L 2906 4863 
L 3481 4863 
L 3481 0 
L 2906 0 
L 2906 525 
Q 2725 213 2448 61 
Q 2172 -91 1784 -91 
Q 1150 -91 751 415 
Q 353 922 353 1747 
Q 353 2572 751 3078 
Q 1150 3584 1784 3584 
Q 2172 3584 2448 3432 
Q 2725 3281 2906 2969 
z
M 947 1747 
Q 947 1113 1208 752 
Q 1469 391 1925 391 
Q 2381 391 2643 752 
Q 2906 1113 2906 1747 
Q 2906 2381 2643 2742 
Q 2381 3103 1925 3103 
Q 1469 3103 1208 2742 
Q 947 2381 947 1747 
z
" transform="scale(0.015625)"/>
      <path id="DejaVuSans-6f" d="M 1959 3097 
Q 1497 3097 1228 2736 
Q 959 2375 959 1747 
Q 959 1119 1226 758 
Q 1494 397 1959 397 
Q 2419 397 2687 759 
Q 2956 1122 2956 1747 
Q 2956 2369 2687 2733 
Q 2419 3097 1959 3097 
z
M 1959 3584 
Q 2709 3584 3137 3096 
Q 3566 2609 3566 1747 
Q 3566 888 3137 398 
Q 2709 -91 1959 -91 
Q 1206 -91 779 398 
Q 353 888 353 1747 
Q 353 2609 779 3096 
Q 1206 3584 1959 3584 
z
" transform="scale(0.015625)"/>
      <path id="DejaVuSans-6d" d="M 3328 2828 
Q 3544 3216 3844 3400 
Q 4144 3584 4550 3584 
Q 5097 3584 5394 3201 
Q 5691 2819 5691 2113 
L 5691 0 
L 5113 0 
L 5113 2094 
Q 5113 2597 4934 2840 
Q 4756 3084 4391 3084 
Q 3944 3084 3684 2787 
Q 3425 2491 3425 1978 
L 3425 0 
L 2847 0 
L 2847 2094 
Q 2847 2600 2669 2842 
Q 2491 3084 2119 3084 
Q 1678 3084 1418 2786 
Q 1159 2488 1159 1978 
L 1159 0 
L 581 0 
L 581 3500 
L 1159 3500 
L 1159 2956 
Q 1356 3278 1631 3431 
Q 1906 3584 2284 3584 
Q 2666 3584 2933 3390 
Q 3200 3197 3328 2828 
z
" transform="scale(0.015625)"/>
      <path id="DejaVuSans-2d" d="M 313 2009 
L 1997 2009 
L 1997 1497 
L 313 1497 
L 313 2009 
z
" transform="scale(0.015625)"/>
      <path id="DejaVuSans-45" d="M 628 4666 
L 3578 4666 
L 3578 4134 
L 1259 4134 
L 1259 2753 
L 3481 2753 
L 3481 2222 
L 1259 2222 
L 1259 531 
L 3634 531 
L 3634 0 
L 628 0 
L 628 4666 
z
" transform="scale(0.015625)"/>
      <path id="DejaVuSans-62" d="M 3116 1747 
Q 3116 2381 2855 2742 
Q 2594 3103 2138 3103 
Q 1681 3103 1420 2742 
Q 1159 2381 1159 1747 
Q 1159 1113 1420 752 
Q 1681 391 2138 391 
Q 2594 391 2855 752 
Q 3116 1113 3116 1747 
z
M 1159 2969 
Q 1341 3281 1617 3432 
Q 1894 3584 2278 3584 
Q 2916 3584 3314 3078 
Q 3713 2572 3713 1747 
Q 3713 922 3314 415 
Q 2916 -91 2278 -91 
Q 1894 -91 1617 61 
Q 1341 213 1159 525 
L 1159 0 
L 581 0 
L 581 4863 
L 1159 4863 
L 1159 2969 
z
" transform="scale(0.015625)"/>
      <path id="DejaVuSans-65" d="M 3597 1894 
L 3597 1613 
L 953 1613 
Q 991 1019 1311 708 
Q 1631 397 2203 397 
Q 2534 397 2845 478 
Q 3156 559 3463 722 
L 3463 178 
Q 3153 47 2828 -22 
Q 2503 -91 2169 -91 
Q 1331 -91 842 396 
Q 353 884 353 1716 
Q 353 2575 817 3079 
Q 1281 3584 2069 3584 
Q 2775 3584 3186 3129 
Q 3597 2675 3597 1894 
z
M 3022 2063 
Q 3016 2534 2758 2815 
Q 2500 3097 2075 3097 
Q 1594 3097 1305 2825 
Q 1016 2553 972 2059 
L 3022 2063 
z
" transform="scale(0.015625)"/>
      <path id="DejaVuSans-69" d="M 603 3500 
L 1178 3500 
L 1178 0 
L 603 0 
L 603 3500 
z
M 603 4863 
L 1178 4863 
L 1178 4134 
L 603 4134 
L 603 4863 
z
" transform="scale(0.015625)"/>
      <path id="DejaVuSans-67" d="M 2906 1791 
Q 2906 2416 2648 2759 
Q 2391 3103 1925 3103 
Q 1463 3103 1205 2759 
Q 947 2416 947 1791 
Q 947 1169 1205 825 
Q 1463 481 1925 481 
Q 2391 481 2648 825 
Q 2906 1169 2906 1791 
z
M 3481 434 
Q 3481 -459 3084 -895 
Q 2688 -1331 1869 -1331 
Q 1566 -1331 1297 -1286 
Q 1028 -1241 775 -1147 
L 775 -588 
Q 1028 -725 1275 -790 
Q 1522 -856 1778 -856 
Q 2344 -856 2625 -561 
Q 2906 -266 2906 331 
L 2906 616 
Q 2728 306 2450 153 
Q 2172 0 1784 0 
Q 1141 0 747 490 
Q 353 981 353 1791 
Q 353 2603 747 3093 
Q 1141 3584 1784 3584 
Q 2172 3584 2450 3431 
Q 2728 3278 2906 2969 
L 2906 3500 
L 3481 3500 
L 3481 434 
z
" transform="scale(0.015625)"/>
      <path id="DejaVuSans-73" d="M 2834 3397 
L 2834 2853 
Q 2591 2978 2328 3040 
Q 2066 3103 1784 3103 
Q 1356 3103 1142 2972 
Q 928 2841 928 2578 
Q 928 2378 1081 2264 
Q 1234 2150 1697 2047 
L 1894 2003 
Q 2506 1872 2764 1633 
Q 3022 1394 3022 966 
Q 3022 478 2636 193 
Q 2250 -91 1575 -91 
Q 1294 -91 989 -36 
Q 684 19 347 128 
L 347 722 
Q 666 556 975 473 
Q 1284 391 1588 391 
Q 1994 391 2212 530 
Q 2431 669 2431 922 
Q 2431 1156 2273 1281 
Q 2116 1406 1581 1522 
L 1381 1569 
Q 847 1681 609 1914 
Q 372 2147 372 2553 
Q 372 3047 722 3315 
Q 1072 3584 1716 3584 
Q 2034 3584 2315 3537 
Q 2597 3491 2834 3397 
z
" transform="scale(0.015625)"/>
      <path id="DejaVuSans-70" d="M 1159 525 
L 1159 -1331 
L 581 -1331 
L 581 3500 
L 1159 3500 
L 1159 2969 
Q 1341 3281 1617 3432 
Q 1894 3584 2278 3584 
Q 2916 3584 3314 3078 
Q 3713 2572 3713 1747 
Q 3713 922 3314 415 
Q 2916 -91 2278 -91 
Q 1894 -91 1617 61 
Q 1341 213 1159 525 
z
M 3116 1747 
Q 3116 2381 2855 2742 
Q 2594 3103 2138 3103 
Q 1681 3103 1420 2742 
Q 1159 2381 1159 1747 
Q 1159 1113 1420 752 
Q 1681 391 2138 391 
Q 2594 391 2855 752 
Q 3116 1113 3116 1747 
z
" transform="scale(0.015625)"/>
      <path id="DejaVuSans-74" d="M 1172 4494 
L 1172 3500 
L 2356 3500 
L 2356 3053 
L 1172 3053 
L 1172 1153 
Q 1172 725 1289 603 
Q 1406 481 1766 481 
L 2356 481 
L 2356 0 
L 1766 0 
Q 1100 0 847 248 
Q 594 497 594 1153 
L 594 3053 
L 172 3053 
L 172 3500 
L 594 3500 
L 594 4494 
L 1172 4494 
z
" transform="scale(0.015625)"/>
      <path id="DejaVuSans-79" d="M 2059 -325 
Q 1816 -950 1584 -1140 
Q 1353 -1331 966 -1331 
L 506 -1331 
L 506 -850 
L 844 -850 
Q 1081 -850 1212 -737 
Q 1344 -625 1503 -206 
L 1606 56 
L 191 3500 
L 800 3500 
L 1894 763 
L 2988 3500 
L 3597 3500 
L 2059 -325 
z
" transform="scale(0.015625)"/>
     </defs>
     <use xlink:href="#DejaVuSans-4c"/>
     <use xlink:href="#DejaVuSans-44" x="55.712891"/>
     <use xlink:href="#DejaVuSans-41" x="130.964844"/>
     <use xlink:href="#DejaVuSans-20" x="199.373047"/>
     <use xlink:href="#DejaVuSans-72" x="231.160156"/>
     <use xlink:href="#DejaVuSans-61" x="272.273438"/>
     <use xlink:href="#DejaVuSans-6e" x="333.552734"/>
     <use xlink:href="#DejaVuSans-64" x="396.931641"/>
     <use xlink:href="#DejaVuSans-6f" x="460.408203"/>
     <use xlink:href="#DejaVuSans-6d" x="521.589844"/>
     <use xlink:href="#DejaVuSans-20" x="619.001953"/>
     <use xlink:href="#DejaVuSans-2d" x="650.789062"/>
     <use xlink:href="#DejaVuSans-20" x="686.873047"/>
     <use xlink:href="#DejaVuSans-45" x="718.660156"/>
     <use xlink:href="#DejaVuSans-6d" x="781.84375"/>
     <use xlink:href="#DejaVuSans-62" x="879.255859"/>
     <use xlink:href="#DejaVuSans-65" x="942.732422"/>
     <use xlink:href="#DejaVuSans-64" x="1004.255859"/>
     <use xlink:href="#DejaVuSans-64" x="1067.732422"/>
     <use xlink:href="#DejaVuSans-69" x="1131.208984"/>
     <use xlink:href="#DejaVuSans-6e" x="1158.992188"/>
     <use xlink:href="#DejaVuSans-67" x="1222.371094"/>
     <use xlink:href="#DejaVuSans-73" x="1285.847656"/>
     <use xlink:href="#DejaVuSans-20" x="1337.947266"/>
     <use xlink:href="#DejaVuSans-72" x="1369.734375"/>
     <use xlink:href="#DejaVuSans-65" x="1408.597656"/>
     <use xlink:href="#DejaVuSans-73" x="1470.121094"/>
     <use xlink:href="#DejaVuSans-70" x="1522.220703"/>
     <use xlink:href="#DejaVuSans-2e" x="1585.697266"/>
     <use xlink:href="#DejaVuSans-20" x="1617.484375"/>
     <use xlink:href="#DejaVuSans-61" x="1649.271484"/>
     <use xlink:href="#DejaVuSans-74" x="1710.550781"/>
     <use xlink:href="#DejaVuSans-6f" x="1749.759766"/>
     <use xlink:href="#DejaVuSans-6d" x="1810.941406"/>
     <use xlink:href="#DejaVuSans-20" x="1908.353516"/>
     <use xlink:href="#DejaVuSans-74" x="1940.140625"/>
     <use xlink:href="#DejaVuSans-79" x="1979.349609"/>
     <use xlink:href="#DejaVuSans-70" x="2038.529297"/>
     <use xlink:href="#DejaVuSans-65" x="2102.005859"/>
     <use xlink:href="#DejaVuSans-73" x="2163.529297"/>
    </g>
   </g>
   <g id="legend_1">
    <g id="patch_5">
     <path d="M 423.466225 251.481469 
L 459.226225 251.481469 
Q 460.826225 251.481469 460.826225 249.881469 
L 460.826225 74.543969 
Q 460.826225 72.943969 459.226225 72.943969 
L 423.466225 72.943969 
Q 421.866225 72.943969 421.866225 74.543969 
L 421.866225 249.881469 
Q 421.866225 251.481469 423.466225 251.481469 
z
" style="fill: #ffffff; opacity: 0.8; stroke: #cccccc; stroke-linejoin: miter"/>
    </g>
    <g id="line2d_13">
     <path d="M 425.066225 79.422719 
L 433.066225 79.422719 
L 441.066225 79.422719 
" style="fill: none; stroke: #ffffff; stroke-width: 1.5; stroke-linecap: square"/>
     <defs>
      <path id="mc482930b40" d="M 0 4.5 
C 1.193414 4.5 2.338109 4.025852 3.181981 3.181981 
C 4.025852 2.338109 4.5 1.193414 4.5 0 
C 4.5 -1.193414 4.025852 -2.338109 3.181981 -3.181981 
C 2.338109 -4.025852 1.193414 -4.5 0 -4.5 
C -1.193414 -4.5 -2.338109 -4.025852 -3.181981 -3.181981 
C -4.025852 -2.338109 -4.5 -1.193414 -4.5 0 
C -4.5 1.193414 -4.025852 2.338109 -3.181981 3.181981 
C -2.338109 4.025852 -1.193414 4.5 0 4.5 
z
" style="stroke: #ffffff"/>
     </defs>
     <g>
      <use xlink:href="#mc482930b40" x="433.066225" y="79.422719" style="fill: #e6194b; stroke: #ffffff"/>
     </g>
    </g>
    <g id="text_16">
     <!-- n -->
     <g transform="translate(447.466225 82.222719) scale(0.08 -0.08)">
      <use xlink:href="#DejaVuSans-6e"/>
     </g>
    </g>
    <g id="line2d_14">
     <path d="M 425.066225 91.165219 
L 433.066225 91.165219 
L 441.066225 91.165219 
" style="fill: none; stroke: #ffffff; stroke-width: 1.5; stroke-linecap: square"/>
     <defs>
      <path id="m12e804d138" d="M 0 4.5 
C 1.193414 4.5 2.338109 4.025852 3.181981 3.181981 
C 4.025852 2.338109 4.5 1.193414 4.5 0 
C 4.5 -1.193414 4.025852 -2.338109 3.181981 -3.181981 
C 2.338109 -4.025852 1.193414 -4.5 0 -4.5 
C -1.193414 -4.5 -2.338109 -4.025852 -3.181981 -3.181981 
C -4.025852 -2.338109 -4.5 -1.193414 -4.5 0 
C -4.5 1.193414 -4.025852 2.338109 -3.181981 3.181981 
C -2.338109 4.025852 -1.193414 4.5 0 4.5 
z
" style="stroke: #ffffff"/>
     </defs>
     <g>
      <use xlink:href="#m12e804d138" x="433.066225" y="91.165219" style="fill: #3cb44b; stroke: #ffffff"/>
     </g>
    </g>
    <g id="text_17">
     <!-- n1 -->
     <g transform="translate(447.466225 93.965219) scale(0.08 -0.08)">
      <use xlink:href="#DejaVuSans-6e"/>
      <use xlink:href="#DejaVuSans-31" x="63.378906"/>
     </g>
    </g>
    <g id="line2d_15">
     <path d="M 425.066225 102.907719 
L 433.066225 102.907719 
L 441.066225 102.907719 
" style="fill: none; stroke: #ffffff; stroke-width: 1.5; stroke-linecap: square"/>
     <defs>
      <path id="m445a64730c" d="M 0 4.5 
C 1.193414 4.5 2.338109 4.025852 3.181981 3.181981 
C 4.025852 2.338109 4.5 1.193414 4.5 0 
C 4.5 -1.193414 4.025852 -2.338109 3.181981 -3.181981 
C 2.338109 -4.025852 1.193414 -4.5 0 -4.5 
C -1.193414 -4.5 -2.338109 -4.025852 -3.181981 -3.181981 
C -4.025852 -2.338109 -4.5 -1.193414 -4.5 0 
C -4.5 1.193414 -4.025852 2.338109 -3.181981 3.181981 
C -2.338109 4.025852 -1.193414 4.5 0 4.5 
z
" style="stroke: #ffffff"/>
     </defs>
     <g>
      <use xlink:href="#m445a64730c" x="433.066225" y="102.907719" style="fill: #ffe119; stroke: #ffffff"/>
     </g>
    </g>
    <g id="text_18">
     <!-- n2 -->
     <g transform="translate(447.466225 105.707719) scale(0.08 -0.08)">
      <use xlink:href="#DejaVuSans-6e"/>
      <use xlink:href="#DejaVuSans-32" x="63.378906"/>
     </g>
    </g>
    <g id="line2d_16">
     <path d="M 425.066225 114.650219 
L 433.066225 114.650219 
L 441.066225 114.650219 
" style="fill: none; stroke: #ffffff; stroke-width: 1.5; stroke-linecap: square"/>
     <defs>
      <path id="m4ab4d43a94" d="M 0 4.5 
C 1.193414 4.5 2.338109 4.025852 3.181981 3.181981 
C 4.025852 2.338109 4.5 1.193414 4.5 0 
C 4.5 -1.193414 4.025852 -2.338109 3.181981 -3.181981 
C 2.338109 -4.025852 1.193414 -4.5 0 -4.5 
C -1.193414 -4.5 -2.338109 -4.025852 -3.181981 -3.181981 
C -4.025852 -2.338109 -4.5 -1.193414 -4.5 0 
C -4.5 1.193414 -4.025852 2.338109 -3.181981 3.181981 
C -2.338109 4.025852 -1.193414 4.5 0 4.5 
z
" style="stroke: #ffffff"/>
     </defs>
     <g>
      <use xlink:href="#m4ab4d43a94" x="433.066225" y="114.650219" style="fill: #4363d8; stroke: #ffffff"/>
     </g>
    </g>
    <g id="text_19">
     <!-- n7 -->
     <g transform="translate(447.466225 117.450219) scale(0.08 -0.08)">
      <use xlink:href="#DejaVuSans-6e"/>
      <use xlink:href="#DejaVuSans-37" x="63.378906"/>
     </g>
    </g>
    <g id="line2d_17">
     <path d="M 425.066225 126.392719 
L 433.066225 126.392719 
L 441.066225 126.392719 
" style="fill: none; stroke: #ffffff; stroke-width: 1.5; stroke-linecap: square"/>
     <defs>
      <path id="m9c3fefde70" d="M 0 4.5 
C 1.193414 4.5 2.338109 4.025852 3.181981 3.181981 
C 4.025852 2.338109 4.5 1.193414 4.5 0 
C 4.5 -1.193414 4.025852 -2.338109 3.181981 -3.181981 
C 2.338109 -4.025852 1.193414 -4.5 0 -4.5 
C -1.193414 -4.5 -2.338109 -4.025852 -3.181981 -3.181981 
C -4.025852 -2.338109 -4.5 -1.193414 -4.5 0 
C -4.5 1.193414 -4.025852 2.338109 -3.181981 3.181981 
C -2.338109 4.025852 -1.193414 4.5 0 4.5 
z
" style="stroke: #ffffff"/>
     </defs>
     <g>
      <use xlink:href="#m9c3fefde70" x="433.066225" y="126.392719" style="fill: #f58231; stroke: #ffffff"/>
     </g>
    </g>
    <g id="text_20">
     <!-- n8 -->
     <g transform="translate(447.466225 129.192719) scale(0.08 -0.08)">
      <defs>
       <path id="DejaVuSans-38" d="M 2034 2216 
Q 1584 2216 1326 1975 
Q 1069 1734 1069 1313 
Q 1069 891 1326 650 
Q 1584 409 2034 409 
Q 2484 409 2743 651 
Q 3003 894 3003 1313 
Q 3003 1734 2745 1975 
Q 2488 2216 2034 2216 
z
M 1403 2484 
Q 997 2584 770 2862 
Q 544 3141 544 3541 
Q 544 4100 942 4425 
Q 1341 4750 2034 4750 
Q 2731 4750 3128 4425 
Q 3525 4100 3525 3541 
Q 3525 3141 3298 2862 
Q 3072 2584 2669 2484 
Q 3125 2378 3379 2068 
Q 3634 1759 3634 1313 
Q 3634 634 3220 271 
Q 2806 -91 2034 -91 
Q 1263 -91 848 271 
Q 434 634 434 1313 
Q 434 1759 690 2068 
Q 947 2378 1403 2484 
z
M 1172 3481 
Q 1172 3119 1398 2916 
Q 1625 2713 2034 2713 
Q 2441 2713 2670 2916 
Q 2900 3119 2900 3481 
Q 2900 3844 2670 4047 
Q 2441 4250 2034 4250 
Q 1625 4250 1398 4047 
Q 1172 3844 1172 3481 
z
" transform="scale(0.015625)"/>
      </defs>
      <use xlink:href="#DejaVuSans-6e"/>
      <use xlink:href="#DejaVuSans-38" x="63.378906"/>
     </g>
    </g>
    <g id="line2d_18">
     <path d="M 425.066225 138.135219 
L 433.066225 138.135219 
L 441.066225 138.135219 
" style="fill: none; stroke: #ffffff; stroke-width: 1.5; stroke-linecap: square"/>
     <defs>
      <path id="m7a249b639c" d="M 0 4.5 
C 1.193414 4.5 2.338109 4.025852 3.181981 3.181981 
C 4.025852 2.338109 4.5 1.193414 4.5 0 
C 4.5 -1.193414 4.025852 -2.338109 3.181981 -3.181981 
C 2.338109 -4.025852 1.193414 -4.5 0 -4.5 
C -1.193414 -4.5 -2.338109 -4.025852 -3.181981 -3.181981 
C -4.025852 -2.338109 -4.5 -1.193414 -4.5 0 
C -4.5 1.193414 -4.025852 2.338109 -3.181981 3.181981 
C -2.338109 4.025852 -1.193414 4.5 0 4.5 
z
" style="stroke: #ffffff"/>
     </defs>
     <g>
      <use xlink:href="#m7a249b639c" x="433.066225" y="138.135219" style="fill: #911eb4; stroke: #ffffff"/>
     </g>
    </g>
    <g id="text_21">
     <!-- na -->
     <g transform="translate(447.466225 140.935219) scale(0.08 -0.08)">
      <use xlink:href="#DejaVuSans-6e"/>
      <use xlink:href="#DejaVuSans-61" x="63.378906"/>
     </g>
    </g>
    <g id="line2d_19">
     <path d="M 425.066225 149.877719 
L 433.066225 149.877719 
L 441.066225 149.877719 
" style="fill: none; stroke: #ffffff; stroke-width: 1.5; stroke-linecap: square"/>
     <defs>
      <path id="m260414c217" d="M 0 4.5 
C 1.193414 4.5 2.338109 4.025852 3.181981 3.181981 
C 4.025852 2.338109 4.5 1.193414 4.5 0 
C 4.5 -1.193414 4.025852 -2.338109 3.181981 -3.181981 
C 2.338109 -4.025852 1.193414 -4.5 0 -4.5 
C -1.193414 -4.5 -2.338109 -4.025852 -3.181981 -3.181981 
C -4.025852 -2.338109 -4.5 -1.193414 -4.5 0 
C -4.5 1.193414 -4.025852 2.338109 -3.181981 3.181981 
C -2.338109 4.025852 -1.193414 4.5 0 4.5 
z
" style="stroke: #ffffff"/>
     </defs>
     <g>
      <use xlink:href="#m260414c217" x="433.066225" y="149.877719" style="fill: #42d4f4; stroke: #ffffff"/>
     </g>
    </g>
    <g id="text_22">
     <!-- nb -->
     <g transform="translate(447.466225 152.677719) scale(0.08 -0.08)">
      <use xlink:href="#DejaVuSans-6e"/>
      <use xlink:href="#DejaVuSans-62" x="63.378906"/>
     </g>
    </g>
    <g id="line2d_20">
     <path d="M 425.066225 161.620219 
L 433.066225 161.620219 
L 441.066225 161.620219 
" style="fill: none; stroke: #ffffff; stroke-width: 1.5; stroke-linecap: square"/>
     <defs>
      <path id="m8dddfb8c05" d="M 0 4.5 
C 1.193414 4.5 2.338109 4.025852 3.181981 3.181981 
C 4.025852 2.338109 4.5 1.193414 4.5 0 
C 4.5 -1.193414 4.025852 -2.338109 3.181981 -3.181981 
C 2.338109 -4.025852 1.193414 -4.5 0 -4.5 
C -1.193414 -4.5 -2.338109 -4.025852 -3.181981 -3.181981 
C -4.025852 -2.338109 -4.5 -1.193414 -4.5 0 
C -4.5 1.193414 -4.025852 2.338109 -3.181981 3.181981 
C -2.338109 4.025852 -1.193414 4.5 0 4.5 
z
" style="stroke: #ffffff"/>
     </defs>
     <g>
      <use xlink:href="#m8dddfb8c05" x="433.066225" y="161.620219" style="fill: #f032e6; stroke: #ffffff"/>
     </g>
    </g>
    <g id="text_23">
     <!-- nc -->
     <g transform="translate(447.466225 164.420219) scale(0.08 -0.08)">
      <defs>
       <path id="DejaVuSans-63" d="M 3122 3366 
L 3122 2828 
Q 2878 2963 2633 3030 
Q 2388 3097 2138 3097 
Q 1578 3097 1268 2742 
Q 959 2388 959 1747 
Q 959 1106 1268 751 
Q 1578 397 2138 397 
Q 2388 397 2633 464 
Q 2878 531 3122 666 
L 3122 134 
Q 2881 22 2623 -34 
Q 2366 -91 2075 -91 
Q 1284 -91 818 406 
Q 353 903 353 1747 
Q 353 2603 823 3093 
Q 1294 3584 2113 3584 
Q 2378 3584 2631 3529 
Q 2884 3475 3122 3366 
z
" transform="scale(0.015625)"/>
      </defs>
      <use xlink:href="#DejaVuSans-6e"/>
      <use xlink:href="#DejaVuSans-63" x="63.378906"/>
     </g>
    </g>
    <g id="line2d_21">
     <path d="M 425.066225 173.362719 
L 433.066225 173.362719 
L 441.066225 173.362719 
" style="fill: none; stroke: #ffffff; stroke-width: 1.5; stroke-linecap: square"/>
     <defs>
      <path id="mde7cdefc55" d="M 0 4.5 
C 1.193414 4.5 2.338109 4.025852 3.181981 3.181981 
C 4.025852 2.338109 4.5 1.193414 4.5 0 
C 4.5 -1.193414 4.025852 -2.338109 3.181981 -3.181981 
C 2.338109 -4.025852 1.193414 -4.5 0 -4.5 
C -1.193414 -4.5 -2.338109 -4.025852 -3.181981 -3.181981 
C -4.025852 -2.338109 -4.5 -1.193414 -4.5 0 
C -4.5 1.193414 -4.025852 2.338109 -3.181981 3.181981 
C -2.338109 4.025852 -1.193414 4.5 0 4.5 
z
" style="stroke: #ffffff"/>
     </defs>
     <g>
      <use xlink:href="#mde7cdefc55" x="433.066225" y="173.362719" style="fill: #bfef45; stroke: #ffffff"/>
     </g>
    </g>
    <g id="text_24">
     <!-- nd -->
     <g transform="translate(447.466225 176.162719) scale(0.08 -0.08)">
      <use xlink:href="#DejaVuSans-6e"/>
      <use xlink:href="#DejaVuSans-64" x="63.378906"/>
     </g>
    </g>
    <g id="line2d_22">
     <path d="M 425.066225 185.105219 
L 433.066225 185.105219 
L 441.066225 185.105219 
" style="fill: none; stroke: #ffffff; stroke-width: 1.5; stroke-linecap: square"/>
     <defs>
      <path id="m9c81a11a1e" d="M 0 4.5 
C 1.193414 4.5 2.338109 4.025852 3.181981 3.181981 
C 4.025852 2.338109 4.5 1.193414 4.5 0 
C 4.5 -1.193414 4.025852 -2.338109 3.181981 -3.181981 
C 2.338109 -4.025852 1.193414 -4.5 0 -4.5 
C -1.193414 -4.5 -2.338109 -4.025852 -3.181981 -3.181981 
C -4.025852 -2.338109 -4.5 -1.193414 -4.5 0 
C -4.5 1.193414 -4.025852 2.338109 -3.181981 3.181981 
C -2.338109 4.025852 -1.193414 4.5 0 4.5 
z
" style="stroke: #ffffff"/>
     </defs>
     <g>
      <use xlink:href="#m9c81a11a1e" x="433.066225" y="185.105219" style="fill: #fabed4; stroke: #ffffff"/>
     </g>
    </g>
    <g id="text_25">
     <!-- ne -->
     <g transform="translate(447.466225 187.905219) scale(0.08 -0.08)">
      <use xlink:href="#DejaVuSans-6e"/>
      <use xlink:href="#DejaVuSans-65" x="63.378906"/>
     </g>
    </g>
    <g id="line2d_23">
     <path d="M 425.066225 196.847719 
L 433.066225 196.847719 
L 441.066225 196.847719 
" style="fill: none; stroke: #ffffff; stroke-width: 1.5; stroke-linecap: square"/>
     <defs>
      <path id="m8936716746" d="M 0 4.5 
C 1.193414 4.5 2.338109 4.025852 3.181981 3.181981 
C 4.025852 2.338109 4.5 1.193414 4.5 0 
C 4.5 -1.193414 4.025852 -2.338109 3.181981 -3.181981 
C 2.338109 -4.025852 1.193414 -4.5 0 -4.5 
C -1.193414 -4.5 -2.338109 -4.025852 -3.181981 -3.181981 
C -4.025852 -2.338109 -4.5 -1.193414 -4.5 0 
C -4.5 1.193414 -4.025852 2.338109 -3.181981 3.181981 
C -2.338109 4.025852 -1.193414 4.5 0 4.5 
z
" style="stroke: #ffffff"/>
     </defs>
     <g>
      <use xlink:href="#m8936716746" x="433.066225" y="196.847719" style="fill: #469990; stroke: #ffffff"/>
     </g>
    </g>
    <g id="text_26">
     <!-- nh -->
     <g transform="translate(447.466225 199.647719) scale(0.08 -0.08)">
      <defs>
       <path id="DejaVuSans-68" d="M 3513 2113 
L 3513 0 
L 2938 0 
L 2938 2094 
Q 2938 2591 2744 2837 
Q 2550 3084 2163 3084 
Q 1697 3084 1428 2787 
Q 1159 2491 1159 1978 
L 1159 0 
L 581 0 
L 581 4863 
L 1159 4863 
L 1159 2956 
Q 1366 3272 1645 3428 
Q 1925 3584 2291 3584 
Q 2894 3584 3203 3211 
Q 3513 2838 3513 2113 
z
" transform="scale(0.015625)"/>
      </defs>
      <use xlink:href="#DejaVuSans-6e"/>
      <use xlink:href="#DejaVuSans-68" x="63.378906"/>
     </g>
    </g>
    <g id="line2d_24">
     <path d="M 425.066225 208.590219 
L 433.066225 208.590219 
L 441.066225 208.590219 
" style="fill: none; stroke: #ffffff; stroke-width: 1.5; stroke-linecap: square"/>
     <defs>
      <path id="m2242ff1dec" d="M 0 4.5 
C 1.193414 4.5 2.338109 4.025852 3.181981 3.181981 
C 4.025852 2.338109 4.5 1.193414 4.5 0 
C 4.5 -1.193414 4.025852 -2.338109 3.181981 -3.181981 
C 2.338109 -4.025852 1.193414 -4.5 0 -4.5 
C -1.193414 -4.5 -2.338109 -4.025852 -3.181981 -3.181981 
C -4.025852 -2.338109 -4.5 -1.193414 -4.5 0 
C -4.5 1.193414 -4.025852 2.338109 -3.181981 3.181981 
C -2.338109 4.025852 -1.193414 4.5 0 4.5 
z
" style="stroke: #ffffff"/>
     </defs>
     <g>
      <use xlink:href="#m2242ff1dec" x="433.066225" y="208.590219" style="fill: #dcbeff; stroke: #ffffff"/>
     </g>
    </g>
    <g id="text_27">
     <!-- ns -->
     <g transform="translate(447.466225 211.390219) scale(0.08 -0.08)">
      <use xlink:href="#DejaVuSans-6e"/>
      <use xlink:href="#DejaVuSans-73" x="63.378906"/>
     </g>
    </g>
    <g id="line2d_25">
     <path d="M 425.066225 220.332719 
L 433.066225 220.332719 
L 441.066225 220.332719 
" style="fill: none; stroke: #ffffff; stroke-width: 1.5; stroke-linecap: square"/>
     <defs>
      <path id="mc90af5f681" d="M 0 4.5 
C 1.193414 4.5 2.338109 4.025852 3.181981 3.181981 
C 4.025852 2.338109 4.5 1.193414 4.5 0 
C 4.5 -1.193414 4.025852 -2.338109 3.181981 -3.181981 
C 2.338109 -4.025852 1.193414 -4.5 0 -4.5 
C -1.193414 -4.5 -2.338109 -4.025852 -3.181981 -3.181981 
C -4.025852 -2.338109 -4.5 -1.193414 -4.5 0 
C -4.5 1.193414 -4.025852 2.338109 -3.181981 3.181981 
C -2.338109 4.025852 -1.193414 4.5 0 4.5 
z
" style="stroke: #ffffff"/>
     </defs>
     <g>
      <use xlink:href="#mc90af5f681" x="433.066225" y="220.332719" style="fill: #9a6324; stroke: #ffffff"/>
     </g>
    </g>
    <g id="text_28">
     <!-- nt -->
     <g transform="translate(447.466225 223.132719) scale(0.08 -0.08)">
      <use xlink:href="#DejaVuSans-6e"/>
      <use xlink:href="#DejaVuSans-74" x="63.378906"/>
     </g>
    </g>
    <g id="line2d_26">
     <path d="M 425.066225 232.075219 
L 433.066225 232.075219 
L 441.066225 232.075219 
" style="fill: none; stroke: #ffffff; stroke-width: 1.5; stroke-linecap: square"/>
     <defs>
      <path id="m4a4ba5d306" d="M 0 4.5 
C 1.193414 4.5 2.338109 4.025852 3.181981 3.181981 
C 4.025852 2.338109 4.5 1.193414 4.5 0 
C 4.5 -1.193414 4.025852 -2.338109 3.181981 -3.181981 
C 2.338109 -4.025852 1.193414 -4.5 0 -4.5 
C -1.193414 -4.5 -2.338109 -4.025852 -3.181981 -3.181981 
C -4.025852 -2.338109 -4.5 -1.193414 -4.5 0 
C -4.5 1.193414 -4.025852 2.338109 -3.181981 3.181981 
C -2.338109 4.025852 -1.193414 4.5 0 4.5 
z
" style="stroke: #ffffff"/>
     </defs>
     <g>
      <use xlink:href="#m4a4ba5d306" x="433.066225" y="232.075219" style="fill: #fffac8; stroke: #ffffff"/>
     </g>
    </g>
    <g id="text_29">
     <!-- nu -->
     <g transform="translate(447.466225 234.875219) scale(0.08 -0.08)">
      <defs>
       <path id="DejaVuSans-75" d="M 544 1381 
L 544 3500 
L 1119 3500 
L 1119 1403 
Q 1119 906 1312 657 
Q 1506 409 1894 409 
Q 2359 409 2629 706 
Q 2900 1003 2900 1516 
L 2900 3500 
L 3475 3500 
L 3475 0 
L 2900 0 
L 2900 538 
Q 2691 219 2414 64 
Q 2138 -91 1772 -91 
Q 1169 -91 856 284 
Q 544 659 544 1381 
z
M 1991 3584 
L 1991 3584 
z
" transform="scale(0.015625)"/>
      </defs>
      <use xlink:href="#DejaVuSans-6e"/>
      <use xlink:href="#DejaVuSans-75" x="63.378906"/>
     </g>
    </g>
    <g id="line2d_27">
     <path d="M 425.066225 243.817719 
L 433.066225 243.817719 
L 441.066225 243.817719 
" style="fill: none; stroke: #ffffff; stroke-width: 1.5; stroke-linecap: square"/>
     <defs>
      <path id="m4f5cd8ab96" d="M 0 4.5 
C 1.193414 4.5 2.338109 4.025852 3.181981 3.181981 
C 4.025852 2.338109 4.5 1.193414 4.5 0 
C 4.5 -1.193414 4.025852 -2.338109 3.181981 -3.181981 
C 2.338109 -4.025852 1.193414 -4.5 0 -4.5 
C -1.193414 -4.5 -2.338109 -4.025852 -3.181981 -3.181981 
C -4.025852 -2.338109 -4.5 -1.193414 -4.5 0 
C -4.5 1.193414 -4.025852 2.338109 -3.181981 3.181981 
C -2.338109 4.025852 -1.193414 4.5 0 4.5 
z
" style="stroke: #ffffff"/>
     </defs>
     <g>
      <use xlink:href="#m4f5cd8ab96" x="433.066225" y="243.817719" style="fill: #800000; stroke: #ffffff"/>
     </g>
    </g>
    <g id="text_30">
     <!-- nv -->
     <g transform="translate(447.466225 246.617719) scale(0.08 -0.08)">
      <defs>
       <path id="DejaVuSans-76" d="M 191 3500 
L 800 3500 
L 1894 563 
L 2988 3500 
L 3597 3500 
L 2284 0 
L 1503 0 
L 191 3500 
z
" transform="scale(0.015625)"/>
      </defs>
      <use xlink:href="#DejaVuSans-6e"/>
      <use xlink:href="#DejaVuSans-76" x="63.378906"/>
     </g>
    </g>
   </g>
  </g>
 </g>
 <defs>
  <clipPath id="p6e20b5f17d">
   <rect x="61.280625" y="29.156719" width="357.12" height="266.112"/>
  </clipPath>
 </defs>
</svg>
