<?xml version="1.0" encoding="utf-8" standalone="no"?>
<!DOCTYPE svg PUBLIC "-//W3C//DTD SVG 1.1//EN"
  "http://www.w3.org/Graphics/SVG/1.1/DTD/svg11.dtd">
<svg xmlns:xlink="http://www.w3.org/1999/xlink" width="468.011694pt" height="348.938719pt" viewBox="0 0 468.011694 348.938719" xmlns="http://www.w3.org/2000/svg" version="1.1">
 <metadata>
  <rdf:RDF xmlns:dc="http://purl.org/dc/elements/1.1/" xmlns:cc="http://creativecommons.org/ns#" xmlns:rdf="http://www.w3.org/1999/02/22-rdf-syntax-ns#">
   <cc:Work>
    <dc:type rdf:resource="http://purl.org/dc/dcmitype/StillImage"/>
    <dc:date>2024-06-26T15:00:09.552861</dc:date>
    <dc:format>image/svg+xml</dc:format>
    <dc:creator>
     <cc:Agent>
      <dc:title>Matplotlib v3.8.4, https://matplotlib.org/</dc:title>
     </cc:Agent>
    </dc:creator>
   </cc:Work>
  </rdf:RDF>
 </metadata>
 <defs>
  <style type="text/css">*{stroke-linejoin: round; stroke-linecap: butt}</style>
 </defs>
 <g id="figure_1">
  <g id="patch_1">
   <path d="M 0 348.938719 
L 468.011694 348.938719 
L 468.011694 -0 
L 0 -0 
L 0 348.938719 
z
" style="fill: none"/>
  </g>
  <g id="axes_1">
   <g id="patch_2">
    <path d="M 61.266094 295.268719 
L 418.386094 295.268719 
L 418.386094 29.156719 
L 61.266094 29.156719 
L 61.266094 295.268719 
z
" style="fill: none"/>
   </g>
   <g id="PathCollection_1">
    <defs>
     <path id="C0_0_990ba7623b" d="M 0 1.5 
C 0.397805 1.5 0.77937 1.341951 1.06066 1.06066 
C 1.341951 0.77937 1.5 0.397805 1.5 -0 
C 1.5 -0.397805 1.341951 -0.77937 1.06066 -1.06066 
C 0.77937 -1.341951 0.397805 -1.5 0 -1.5 
C -0.397805 -1.5 -0.77937 -1.341951 -1.06066 -1.06066 
C -1.341951 -0.77937 -1.5 -0.397805 -1.5 0 
C -1.5 0.397805 -1.341951 0.77937 -1.06066 1.06066 
C -0.77937 1.341951 -0.397805 1.5 0 1.5 
z
"/>
    </defs>
    <g clip-path="url(#pa037ebd197)">
     <use xlink:href="#C0_0_990ba7623b" x="356.418456" y="119.628704" style="fill: #911eb4; fill-opacity: 0.8; stroke: #911eb4; stroke-opacity: 0.8"/>
    </g>
    <g clip-path="url(#pa037ebd197)">
     <use xlink:href="#C0_0_990ba7623b" x="315.450845" y="73.213677" style="fill: #e6194b; fill-opacity: 0.8; stroke: #e6194b; stroke-opacity: 0.8"/>
    </g>
    <g clip-path="url(#pa037ebd197)">
     <use xlink:href="#C0_0_990ba7623b" x="132.890351" y="254.821895" style="fill: #42d4f4; fill-opacity: 0.8; stroke: #42d4f4; stroke-opacity: 0.8"/>
    </g>
    <g clip-path="url(#pa037ebd197)">
     <use xlink:href="#C0_0_990ba7623b" x="381.201675" y="99.048349" style="fill: #dcbeff; fill-opacity: 0.8; stroke: #dcbeff; stroke-opacity: 0.8"/>
    </g>
    <g clip-path="url(#pa037ebd197)">
     <use xlink:href="#C0_0_990ba7623b" x="366.641696" y="91.333995" style="fill: #911eb4; fill-opacity: 0.8; stroke: #911eb4; stroke-opacity: 0.8"/>
    </g>
    <g clip-path="url(#pa037ebd197)">
     <use xlink:href="#C0_0_990ba7623b" x="372.187698" y="94.752735" style="fill: #911eb4; fill-opacity: 0.8; stroke: #911eb4; stroke-opacity: 0.8"/>
    </g>
    <g clip-path="url(#pa037ebd197)">
     <use xlink:href="#C0_0_990ba7623b" x="355.32019" y="93.054143" style="fill: #dcbeff; fill-opacity: 0.8; stroke: #dcbeff; stroke-opacity: 0.8"/>
    </g>
    <g clip-path="url(#pa037ebd197)">
     <use xlink:href="#C0_0_990ba7623b" x="330.588633" y="86.165989" style="fill: #dcbeff; fill-opacity: 0.8; stroke: #dcbeff; stroke-opacity: 0.8"/>
    </g>
    <g clip-path="url(#pa037ebd197)">
     <use xlink:href="#C0_0_990ba7623b" x="367.931727" y="65.804818" style="fill: #dcbeff; fill-opacity: 0.8; stroke: #dcbeff; stroke-opacity: 0.8"/>
    </g>
    <g clip-path="url(#pa037ebd197)">
     <use xlink:href="#C0_0_990ba7623b" x="374.047964" y="105.68451" style="fill: #dcbeff; fill-opacity: 0.8; stroke: #dcbeff; stroke-opacity: 0.8"/>
    </g>
    <g clip-path="url(#pa037ebd197)">
     <use xlink:href="#C0_0_990ba7623b" x="377.598426" y="74.402463" style="fill: #e6194b; fill-opacity: 0.8; stroke: #e6194b; stroke-opacity: 0.8"/>
    </g>
    <g clip-path="url(#pa037ebd197)">
     <use xlink:href="#C0_0_990ba7623b" x="385.509871" y="102.02387" style="fill: #dcbeff; fill-opacity: 0.8; stroke: #dcbeff; stroke-opacity: 0.8"/>
    </g>
    <g clip-path="url(#pa037ebd197)">
     <use xlink:href="#C0_0_990ba7623b" x="360.369912" y="121.317233" style="fill: #dcbeff; fill-opacity: 0.8; stroke: #dcbeff; stroke-opacity: 0.8"/>
    </g>
    <g clip-path="url(#pa037ebd197)">
     <use xlink:href="#C0_0_990ba7623b" x="342.333391" y="96.809602" style="fill: #fffac8; fill-opacity: 0.8; stroke: #fffac8; stroke-opacity: 0.8"/>
    </g>
    <g clip-path="url(#pa037ebd197)">
     <use xlink:href="#C0_0_990ba7623b" x="347.692589" y="67.913525" style="fill: #3cb44b; fill-opacity: 0.8; stroke: #3cb44b; stroke-opacity: 0.8"/>
    </g>
    <g clip-path="url(#pa037ebd197)">
     <use xlink:href="#C0_0_990ba7623b" x="106.064635" y="216.368569" style="fill: #911eb4; fill-opacity: 0.8; stroke: #911eb4; stroke-opacity: 0.8"/>
    </g>
    <g clip-path="url(#pa037ebd197)">
     <use xlink:href="#C0_0_990ba7623b" x="97.435461" y="223.857884" style="fill: #f032e6; fill-opacity: 0.8; stroke: #f032e6; stroke-opacity: 0.8"/>
    </g>
    <g clip-path="url(#pa037ebd197)">
     <use xlink:href="#C0_0_990ba7623b" x="94.951191" y="222.24827" style="fill: #bfef45; fill-opacity: 0.8; stroke: #bfef45; stroke-opacity: 0.8"/>
    </g>
    <g clip-path="url(#pa037ebd197)">
     <use xlink:href="#C0_0_990ba7623b" x="122.422063" y="249.224044" style="fill: #bfef45; fill-opacity: 0.8; stroke: #bfef45; stroke-opacity: 0.8"/>
    </g>
    <g clip-path="url(#pa037ebd197)">
     <use xlink:href="#C0_0_990ba7623b" x="107.39605" y="251.87121" style="fill: #911eb4; fill-opacity: 0.8; stroke: #911eb4; stroke-opacity: 0.8"/>
    </g>
    <g clip-path="url(#pa037ebd197)">
     <use xlink:href="#C0_0_990ba7623b" x="351.770951" y="121.084529" style="fill: #911eb4; fill-opacity: 0.8; stroke: #911eb4; stroke-opacity: 0.8"/>
    </g>
    <g clip-path="url(#pa037ebd197)">
     <use xlink:href="#C0_0_990ba7623b" x="374.748246" y="58.51304" style="fill: #e6194b; fill-opacity: 0.8; stroke: #e6194b; stroke-opacity: 0.8"/>
    </g>
    <g clip-path="url(#pa037ebd197)">
     <use xlink:href="#C0_0_990ba7623b" x="324.49062" y="63.456222" style="fill: #fffac8; fill-opacity: 0.8; stroke: #fffac8; stroke-opacity: 0.8"/>
    </g>
    <g clip-path="url(#pa037ebd197)">
     <use xlink:href="#C0_0_990ba7623b" x="128.503373" y="257.163921" style="fill: #42d4f4; fill-opacity: 0.8; stroke: #42d4f4; stroke-opacity: 0.8"/>
    </g>
    <g clip-path="url(#pa037ebd197)">
     <use xlink:href="#C0_0_990ba7623b" x="402.153366" y="82.159891" style="fill: #dcbeff; fill-opacity: 0.8; stroke: #dcbeff; stroke-opacity: 0.8"/>
    </g>
    <g clip-path="url(#pa037ebd197)">
     <use xlink:href="#C0_0_990ba7623b" x="380.815764" y="41.252719" style="fill: #e6194b; fill-opacity: 0.8; stroke: #e6194b; stroke-opacity: 0.8"/>
    </g>
    <g clip-path="url(#pa037ebd197)">
     <use xlink:href="#C0_0_990ba7623b" x="377.482798" y="65.305431" style="fill: #dcbeff; fill-opacity: 0.8; stroke: #dcbeff; stroke-opacity: 0.8"/>
    </g>
    <g clip-path="url(#pa037ebd197)">
     <use xlink:href="#C0_0_990ba7623b" x="141.817442" y="274.422192" style="fill: #bfef45; fill-opacity: 0.8; stroke: #bfef45; stroke-opacity: 0.8"/>
    </g>
    <g clip-path="url(#pa037ebd197)">
     <use xlink:href="#C0_0_990ba7623b" x="151.580304" y="275.504432" style="fill: #bfef45; fill-opacity: 0.8; stroke: #bfef45; stroke-opacity: 0.8"/>
    </g>
    <g clip-path="url(#pa037ebd197)">
     <use xlink:href="#C0_0_990ba7623b" x="347.578351" y="85.900453" style="fill: #f58231; fill-opacity: 0.8; stroke: #f58231; stroke-opacity: 0.8"/>
    </g>
    <g clip-path="url(#pa037ebd197)">
     <use xlink:href="#C0_0_990ba7623b" x="361.917162" y="117.433065" style="fill: #e6194b; fill-opacity: 0.8; stroke: #e6194b; stroke-opacity: 0.8"/>
    </g>
    <g clip-path="url(#pa037ebd197)">
     <use xlink:href="#C0_0_990ba7623b" x="152.975313" y="273.247446" style="fill: #bfef45; fill-opacity: 0.8; stroke: #bfef45; stroke-opacity: 0.8"/>
    </g>
    <g clip-path="url(#pa037ebd197)">
     <use xlink:href="#C0_0_990ba7623b" x="359.404737" y="117.734188" style="fill: #e6194b; fill-opacity: 0.8; stroke: #e6194b; stroke-opacity: 0.8"/>
    </g>
    <g clip-path="url(#pa037ebd197)">
     <use xlink:href="#C0_0_990ba7623b" x="383.659693" y="69.803647" style="fill: #dcbeff; fill-opacity: 0.8; stroke: #dcbeff; stroke-opacity: 0.8"/>
    </g>
    <g clip-path="url(#pa037ebd197)">
     <use xlink:href="#C0_0_990ba7623b" x="107.574205" y="202.907387" style="fill: #800000; fill-opacity: 0.8; stroke: #800000; stroke-opacity: 0.8"/>
    </g>
    <g clip-path="url(#pa037ebd197)">
     <use xlink:href="#C0_0_990ba7623b" x="111.168359" y="214.211671" style="fill: #bfef45; fill-opacity: 0.8; stroke: #bfef45; stroke-opacity: 0.8"/>
    </g>
    <g clip-path="url(#pa037ebd197)">
     <use xlink:href="#C0_0_990ba7623b" x="336.673548" y="88.873159" style="fill: #fabed4; fill-opacity: 0.8; stroke: #fabed4; stroke-opacity: 0.8"/>
    </g>
    <g clip-path="url(#pa037ebd197)">
     <use xlink:href="#C0_0_990ba7623b" x="359.370439" y="84.302195" style="fill: #469990; fill-opacity: 0.8; stroke: #469990; stroke-opacity: 0.8"/>
    </g>
    <g clip-path="url(#pa037ebd197)">
     <use xlink:href="#C0_0_990ba7623b" x="353.705667" y="80.400243" style="fill: #fabed4; fill-opacity: 0.8; stroke: #fabed4; stroke-opacity: 0.8"/>
    </g>
    <g clip-path="url(#pa037ebd197)">
     <use xlink:href="#C0_0_990ba7623b" x="351.323952" y="117.861772" style="fill: #e6194b; fill-opacity: 0.8; stroke: #e6194b; stroke-opacity: 0.8"/>
    </g>
    <g clip-path="url(#pa037ebd197)">
     <use xlink:href="#C0_0_990ba7623b" x="371.9364" y="72.51934" style="fill: #e6194b; fill-opacity: 0.8; stroke: #e6194b; stroke-opacity: 0.8"/>
    </g>
    <g clip-path="url(#pa037ebd197)">
     <use xlink:href="#C0_0_990ba7623b" x="142.129085" y="268.435176" style="fill: #bfef45; fill-opacity: 0.8; stroke: #bfef45; stroke-opacity: 0.8"/>
    </g>
    <g clip-path="url(#pa037ebd197)">
     <use xlink:href="#C0_0_990ba7623b" x="130.320889" y="273.75332" style="fill: #bfef45; fill-opacity: 0.8; stroke: #bfef45; stroke-opacity: 0.8"/>
    </g>
    <g clip-path="url(#pa037ebd197)">
     <use xlink:href="#C0_0_990ba7623b" x="367.347073" y="47.695031" style="fill: #dcbeff; fill-opacity: 0.8; stroke: #dcbeff; stroke-opacity: 0.8"/>
    </g>
    <g clip-path="url(#pa037ebd197)">
     <use xlink:href="#C0_0_990ba7623b" x="357.754394" y="59.008913" style="fill: #dcbeff; fill-opacity: 0.8; stroke: #dcbeff; stroke-opacity: 0.8"/>
    </g>
    <g clip-path="url(#pa037ebd197)">
     <use xlink:href="#C0_0_990ba7623b" x="324.971025" y="77.61148" style="fill: #469990; fill-opacity: 0.8; stroke: #469990; stroke-opacity: 0.8"/>
    </g>
    <g clip-path="url(#pa037ebd197)">
     <use xlink:href="#C0_0_990ba7623b" x="339.833435" y="76.868033" style="fill: #dcbeff; fill-opacity: 0.8; stroke: #dcbeff; stroke-opacity: 0.8"/>
    </g>
    <g clip-path="url(#pa037ebd197)">
     <use xlink:href="#C0_0_990ba7623b" x="337.358484" y="81.913571" style="fill: #f58231; fill-opacity: 0.8; stroke: #f58231; stroke-opacity: 0.8"/>
    </g>
    <g clip-path="url(#pa037ebd197)">
     <use xlink:href="#C0_0_990ba7623b" x="392.044596" y="87.097817" style="fill: #dcbeff; fill-opacity: 0.8; stroke: #dcbeff; stroke-opacity: 0.8"/>
    </g>
    <g clip-path="url(#pa037ebd197)">
     <use xlink:href="#C0_0_990ba7623b" x="391.970973" y="76.797158" style="fill: #dcbeff; fill-opacity: 0.8; stroke: #dcbeff; stroke-opacity: 0.8"/>
    </g>
    <g clip-path="url(#pa037ebd197)">
     <use xlink:href="#C0_0_990ba7623b" x="119.848897" y="265.801057" style="fill: #42d4f4; fill-opacity: 0.8; stroke: #42d4f4; stroke-opacity: 0.8"/>
    </g>
    <g clip-path="url(#pa037ebd197)">
     <use xlink:href="#C0_0_990ba7623b" x="102.362163" y="275.696041" style="fill: #42d4f4; fill-opacity: 0.8; stroke: #42d4f4; stroke-opacity: 0.8"/>
    </g>
    <g clip-path="url(#pa037ebd197)">
     <use xlink:href="#C0_0_990ba7623b" x="104.087907" y="220.021657" style="fill: #42d4f4; fill-opacity: 0.8; stroke: #42d4f4; stroke-opacity: 0.8"/>
    </g>
    <g clip-path="url(#pa037ebd197)">
     <use xlink:href="#C0_0_990ba7623b" x="112.146234" y="220.372561" style="fill: #42d4f4; fill-opacity: 0.8; stroke: #42d4f4; stroke-opacity: 0.8"/>
    </g>
    <g clip-path="url(#pa037ebd197)">
     <use xlink:href="#C0_0_990ba7623b" x="391.116465" y="55.206023" style="fill: #4363d8; fill-opacity: 0.8; stroke: #4363d8; stroke-opacity: 0.8"/>
    </g>
    <g clip-path="url(#pa037ebd197)">
     <use xlink:href="#C0_0_990ba7623b" x="386.61872" y="96.541624" style="fill: #e6194b; fill-opacity: 0.8; stroke: #e6194b; stroke-opacity: 0.8"/>
    </g>
    <g clip-path="url(#pa037ebd197)">
     <use xlink:href="#C0_0_990ba7623b" x="143.166395" y="266.979335" style="fill: #42d4f4; fill-opacity: 0.8; stroke: #42d4f4; stroke-opacity: 0.8"/>
    </g>
    <g clip-path="url(#pa037ebd197)">
     <use xlink:href="#C0_0_990ba7623b" x="127.479292" y="263.066968" style="fill: #42d4f4; fill-opacity: 0.8; stroke: #42d4f4; stroke-opacity: 0.8"/>
    </g>
    <g clip-path="url(#pa037ebd197)">
     <use xlink:href="#C0_0_990ba7623b" x="77.544811" y="254.781793" style="fill: #911eb4; fill-opacity: 0.8; stroke: #911eb4; stroke-opacity: 0.8"/>
    </g>
    <g clip-path="url(#pa037ebd197)">
     <use xlink:href="#C0_0_990ba7623b" x="101.648022" y="265.062643" style="fill: #bfef45; fill-opacity: 0.8; stroke: #bfef45; stroke-opacity: 0.8"/>
    </g>
    <g clip-path="url(#pa037ebd197)">
     <use xlink:href="#C0_0_990ba7623b" x="87.597413" y="263.751525" style="fill: #f032e6; fill-opacity: 0.8; stroke: #f032e6; stroke-opacity: 0.8"/>
    </g>
    <g clip-path="url(#pa037ebd197)">
     <use xlink:href="#C0_0_990ba7623b" x="138.598202" y="283.172719" style="fill: #bfef45; fill-opacity: 0.8; stroke: #bfef45; stroke-opacity: 0.8"/>
    </g>
    <g clip-path="url(#pa037ebd197)">
     <use xlink:href="#C0_0_990ba7623b" x="141.38521" y="278.045886" style="fill: #bfef45; fill-opacity: 0.8; stroke: #bfef45; stroke-opacity: 0.8"/>
    </g>
    <g clip-path="url(#pa037ebd197)">
     <use xlink:href="#C0_0_990ba7623b" x="141.504526" y="279.844677" style="fill: #911eb4; fill-opacity: 0.8; stroke: #911eb4; stroke-opacity: 0.8"/>
    </g>
    <g clip-path="url(#pa037ebd197)">
     <use xlink:href="#C0_0_990ba7623b" x="344.929726" y="72.942218" style="fill: #ffe119; fill-opacity: 0.8; stroke: #ffe119; stroke-opacity: 0.8"/>
    </g>
    <g clip-path="url(#pa037ebd197)">
     <use xlink:href="#C0_0_990ba7623b" x="138.534154" y="252.259238" style="fill: #42d4f4; fill-opacity: 0.8; stroke: #42d4f4; stroke-opacity: 0.8"/>
    </g>
    <g clip-path="url(#pa037ebd197)">
     <use xlink:href="#C0_0_990ba7623b" x="327.03225" y="70.05184" style="fill: #dcbeff; fill-opacity: 0.8; stroke: #dcbeff; stroke-opacity: 0.8"/>
    </g>
    <g clip-path="url(#pa037ebd197)">
     <use xlink:href="#C0_0_990ba7623b" x="136.48462" y="251.591382" style="fill: #42d4f4; fill-opacity: 0.8; stroke: #42d4f4; stroke-opacity: 0.8"/>
    </g>
    <g clip-path="url(#pa037ebd197)">
     <use xlink:href="#C0_0_990ba7623b" x="329.901712" y="69.75889" style="fill: #911eb4; fill-opacity: 0.8; stroke: #911eb4; stroke-opacity: 0.8"/>
    </g>
    <g clip-path="url(#pa037ebd197)">
     <use xlink:href="#C0_0_990ba7623b" x="381.733742" y="54.59181" style="fill: #dcbeff; fill-opacity: 0.8; stroke: #dcbeff; stroke-opacity: 0.8"/>
    </g>
    <g clip-path="url(#pa037ebd197)">
     <use xlink:href="#C0_0_990ba7623b" x="369.698425" y="44.499038" style="fill: #dcbeff; fill-opacity: 0.8; stroke: #dcbeff; stroke-opacity: 0.8"/>
    </g>
    <g clip-path="url(#pa037ebd197)">
     <use xlink:href="#C0_0_990ba7623b" x="102.737184" y="200.801756" style="fill: #800000; fill-opacity: 0.8; stroke: #800000; stroke-opacity: 0.8"/>
    </g>
    <g clip-path="url(#pa037ebd197)">
     <use xlink:href="#C0_0_990ba7623b" x="154.193969" y="271.500193" style="fill: #42d4f4; fill-opacity: 0.8; stroke: #42d4f4; stroke-opacity: 0.8"/>
    </g>
    <g clip-path="url(#pa037ebd197)">
     <use xlink:href="#C0_0_990ba7623b" x="111.981723" y="259.374588" style="fill: #42d4f4; fill-opacity: 0.8; stroke: #42d4f4; stroke-opacity: 0.8"/>
    </g>
    <g clip-path="url(#pa037ebd197)">
     <use xlink:href="#C0_0_990ba7623b" x="118.249522" y="245.634459" style="fill: #911eb4; fill-opacity: 0.8; stroke: #911eb4; stroke-opacity: 0.8"/>
    </g>
    <g clip-path="url(#pa037ebd197)">
     <use xlink:href="#C0_0_990ba7623b" x="390.229213" y="83.342847" style="fill: #dcbeff; fill-opacity: 0.8; stroke: #dcbeff; stroke-opacity: 0.8"/>
    </g>
    <g clip-path="url(#pa037ebd197)">
     <use xlink:href="#C0_0_990ba7623b" x="371.104547" y="43.544363" style="fill: #dcbeff; fill-opacity: 0.8; stroke: #dcbeff; stroke-opacity: 0.8"/>
    </g>
    <g clip-path="url(#pa037ebd197)">
     <use xlink:href="#C0_0_990ba7623b" x="106.38744" y="224.76089" style="fill: #42d4f4; fill-opacity: 0.8; stroke: #42d4f4; stroke-opacity: 0.8"/>
    </g>
    <g clip-path="url(#pa037ebd197)">
     <use xlink:href="#C0_0_990ba7623b" x="83.861213" y="261.952352" style="fill: #911eb4; fill-opacity: 0.8; stroke: #911eb4; stroke-opacity: 0.8"/>
    </g>
    <g clip-path="url(#pa037ebd197)">
     <use xlink:href="#C0_0_990ba7623b" x="109.365973" y="272.21336" style="fill: #bfef45; fill-opacity: 0.8; stroke: #bfef45; stroke-opacity: 0.8"/>
    </g>
    <g clip-path="url(#pa037ebd197)">
     <use xlink:href="#C0_0_990ba7623b" x="111.428067" y="270.020708" style="fill: #42d4f4; fill-opacity: 0.8; stroke: #42d4f4; stroke-opacity: 0.8"/>
    </g>
    <g clip-path="url(#pa037ebd197)">
     <use xlink:href="#C0_0_990ba7623b" x="95.836557" y="272.323042" style="fill: #42d4f4; fill-opacity: 0.8; stroke: #42d4f4; stroke-opacity: 0.8"/>
    </g>
    <g clip-path="url(#pa037ebd197)">
     <use xlink:href="#C0_0_990ba7623b" x="122.069457" y="218.571888" style="fill: #42d4f4; fill-opacity: 0.8; stroke: #42d4f4; stroke-opacity: 0.8"/>
    </g>
    <g clip-path="url(#pa037ebd197)">
     <use xlink:href="#C0_0_990ba7623b" x="111.482085" y="227.955011" style="fill: #42d4f4; fill-opacity: 0.8; stroke: #42d4f4; stroke-opacity: 0.8"/>
    </g>
    <g clip-path="url(#pa037ebd197)">
     <use xlink:href="#C0_0_990ba7623b" x="348.604349" y="64.864449" style="fill: #3cb44b; fill-opacity: 0.8; stroke: #3cb44b; stroke-opacity: 0.8"/>
    </g>
    <g clip-path="url(#pa037ebd197)">
     <use xlink:href="#C0_0_990ba7623b" x="77.498821" y="257.188599" style="fill: #911eb4; fill-opacity: 0.8; stroke: #911eb4; stroke-opacity: 0.8"/>
    </g>
    <g clip-path="url(#pa037ebd197)">
     <use xlink:href="#C0_0_990ba7623b" x="102.569291" y="269.628272" style="fill: #bfef45; fill-opacity: 0.8; stroke: #bfef45; stroke-opacity: 0.8"/>
    </g>
    <g clip-path="url(#pa037ebd197)">
     <use xlink:href="#C0_0_990ba7623b" x="90.956267" y="268.103019" style="fill: #f032e6; fill-opacity: 0.8; stroke: #f032e6; stroke-opacity: 0.8"/>
    </g>
    <g clip-path="url(#pa037ebd197)">
     <use xlink:href="#C0_0_990ba7623b" x="103.522344" y="199.929303" style="fill: #9a6324; fill-opacity: 0.8; stroke: #9a6324; stroke-opacity: 0.8"/>
    </g>
    <g clip-path="url(#pa037ebd197)">
     <use xlink:href="#C0_0_990ba7623b" x="117.623814" y="247.573518" style="fill: #42d4f4; fill-opacity: 0.8; stroke: #42d4f4; stroke-opacity: 0.8"/>
    </g>
    <g clip-path="url(#pa037ebd197)">
     <use xlink:href="#C0_0_990ba7623b" x="114.00664" y="256.275145" style="fill: #42d4f4; fill-opacity: 0.8; stroke: #42d4f4; stroke-opacity: 0.8"/>
    </g>
    <g clip-path="url(#pa037ebd197)">
     <use xlink:href="#C0_0_990ba7623b" x="376.258354" y="49.382845" style="fill: #dcbeff; fill-opacity: 0.8; stroke: #dcbeff; stroke-opacity: 0.8"/>
    </g>
    <g clip-path="url(#pa037ebd197)">
     <use xlink:href="#C0_0_990ba7623b" x="363.109789" y="56.329437" style="fill: #dcbeff; fill-opacity: 0.8; stroke: #dcbeff; stroke-opacity: 0.8"/>
    </g>
    <g clip-path="url(#pa037ebd197)">
     <use xlink:href="#C0_0_990ba7623b" x="391.664308" y="81.490493" style="fill: #dcbeff; fill-opacity: 0.8; stroke: #dcbeff; stroke-opacity: 0.8"/>
    </g>
    <g clip-path="url(#pa037ebd197)">
     <use xlink:href="#C0_0_990ba7623b" x="379.320143" y="47.373731" style="fill: #dcbeff; fill-opacity: 0.8; stroke: #dcbeff; stroke-opacity: 0.8"/>
    </g>
    <g clip-path="url(#pa037ebd197)">
     <use xlink:href="#C0_0_990ba7623b" x="395.95924" y="58.495072" style="fill: #e6194b; fill-opacity: 0.8; stroke: #e6194b; stroke-opacity: 0.8"/>
    </g>
    <g clip-path="url(#pa037ebd197)">
     <use xlink:href="#C0_0_990ba7623b" x="336.704638" y="105.215556" style="fill: #fffac8; fill-opacity: 0.8; stroke: #fffac8; stroke-opacity: 0.8"/>
    </g>
    <g clip-path="url(#pa037ebd197)">
     <use xlink:href="#C0_0_990ba7623b" x="383.669714" y="55.416989" style="fill: #dcbeff; fill-opacity: 0.8; stroke: #dcbeff; stroke-opacity: 0.8"/>
    </g>
    <g clip-path="url(#pa037ebd197)">
     <use xlink:href="#C0_0_990ba7623b" x="362.876747" y="81.018137" style="fill: #dcbeff; fill-opacity: 0.8; stroke: #dcbeff; stroke-opacity: 0.8"/>
    </g>
    <g clip-path="url(#pa037ebd197)">
     <use xlink:href="#C0_0_990ba7623b" x="382.917141" y="93.803103" style="fill: #dcbeff; fill-opacity: 0.8; stroke: #dcbeff; stroke-opacity: 0.8"/>
    </g>
    <g clip-path="url(#pa037ebd197)">
     <use xlink:href="#C0_0_990ba7623b" x="100.801501" y="198.808452" style="fill: #3cb44b; fill-opacity: 0.8; stroke: #3cb44b; stroke-opacity: 0.8"/>
    </g>
   </g>
   <g id="matplotlib.axis_1">
    <g id="xtick_1">
     <g id="line2d_1">
      <defs>
       <path id="m08180cb97e" d="M 0 0 
L 0 8 
" style="stroke: #000000; stroke-width: 3"/>
      </defs>
      <g>
       <use xlink:href="#m08180cb97e" x="119.554205" y="295.268719" style="stroke: #000000; stroke-width: 3"/>
      </g>
     </g>
     <g id="text_1">
      <!-- 4 -->
      <g transform="translate(114.78233 318.166375) scale(0.15 -0.15)">
       <defs>
        <path id="DejaVuSans-34" d="M 2419 4116 
L 825 1625 
L 2419 1625 
L 2419 4116 
z
M 2253 4666 
L 3047 4666 
L 3047 1625 
L 3713 1625 
L 3713 1100 
L 3047 1100 
L 3047 0 
L 2419 0 
L 2419 1100 
L 313 1100 
L 313 1709 
L 2253 4666 
z
" transform="scale(0.015625)"/>
       </defs>
       <use xlink:href="#DejaVuSans-34"/>
      </g>
     </g>
    </g>
    <g id="xtick_2">
     <g id="line2d_2">
      <g>
       <use xlink:href="#m08180cb97e" x="188.916089" y="295.268719" style="stroke: #000000; stroke-width: 3"/>
      </g>
     </g>
     <g id="text_2">
      <!-- 6 -->
      <g transform="translate(184.144214 318.166375) scale(0.15 -0.15)">
       <defs>
        <path id="DejaVuSans-36" d="M 2113 2584 
Q 1688 2584 1439 2293 
Q 1191 2003 1191 1497 
Q 1191 994 1439 701 
Q 1688 409 2113 409 
Q 2538 409 2786 701 
Q 3034 994 3034 1497 
Q 3034 2003 2786 2293 
Q 2538 2584 2113 2584 
z
M 3366 4563 
L 3366 3988 
Q 3128 4100 2886 4159 
Q 2644 4219 2406 4219 
Q 1781 4219 1451 3797 
Q 1122 3375 1075 2522 
Q 1259 2794 1537 2939 
Q 1816 3084 2150 3084 
Q 2853 3084 3261 2657 
Q 3669 2231 3669 1497 
Q 3669 778 3244 343 
Q 2819 -91 2113 -91 
Q 1303 -91 875 529 
Q 447 1150 447 2328 
Q 447 3434 972 4092 
Q 1497 4750 2381 4750 
Q 2619 4750 2861 4703 
Q 3103 4656 3366 4563 
z
" transform="scale(0.015625)"/>
       </defs>
       <use xlink:href="#DejaVuSans-36"/>
      </g>
     </g>
    </g>
    <g id="xtick_3">
     <g id="line2d_3">
      <g>
       <use xlink:href="#m08180cb97e" x="258.277974" y="295.268719" style="stroke: #000000; stroke-width: 3"/>
      </g>
     </g>
     <g id="text_3">
      <!-- 8 -->
      <g transform="translate(253.506099 318.166375) scale(0.15 -0.15)">
       <defs>
        <path id="DejaVuSans-38" d="M 2034 2216 
Q 1584 2216 1326 1975 
Q 1069 1734 1069 1313 
Q 1069 891 1326 650 
Q 1584 409 2034 409 
Q 2484 409 2743 651 
Q 3003 894 3003 1313 
Q 3003 1734 2745 1975 
Q 2488 2216 2034 2216 
z
M 1403 2484 
Q 997 2584 770 2862 
Q 544 3141 544 3541 
Q 544 4100 942 4425 
Q 1341 4750 2034 4750 
Q 2731 4750 3128 4425 
Q 3525 4100 3525 3541 
Q 3525 3141 3298 2862 
Q 3072 2584 2669 2484 
Q 3125 2378 3379 2068 
Q 3634 1759 3634 1313 
Q 3634 634 3220 271 
Q 2806 -91 2034 -91 
Q 1263 -91 848 271 
Q 434 634 434 1313 
Q 434 1759 690 2068 
Q 947 2378 1403 2484 
z
M 1172 3481 
Q 1172 3119 1398 2916 
Q 1625 2713 2034 2713 
Q 2441 2713 2670 2916 
Q 2900 3119 2900 3481 
Q 2900 3844 2670 4047 
Q 2441 4250 2034 4250 
Q 1625 4250 1398 4047 
Q 1172 3844 1172 3481 
z
" transform="scale(0.015625)"/>
       </defs>
       <use xlink:href="#DejaVuSans-38"/>
      </g>
     </g>
    </g>
    <g id="xtick_4">
     <g id="line2d_4">
      <g>
       <use xlink:href="#m08180cb97e" x="327.639858" y="295.268719" style="stroke: #000000; stroke-width: 3"/>
      </g>
     </g>
     <g id="text_4">
      <!-- 10 -->
      <g transform="translate(318.096108 318.166375) scale(0.15 -0.15)">
       <defs>
        <path id="DejaVuSans-31" d="M 794 531 
L 1825 531 
L 1825 4091 
L 703 3866 
L 703 4441 
L 1819 4666 
L 2450 4666 
L 2450 531 
L 3481 531 
L 3481 0 
L 794 0 
L 794 531 
z
" transform="scale(0.015625)"/>
        <path id="DejaVuSans-30" d="M 2034 4250 
Q 1547 4250 1301 3770 
Q 1056 3291 1056 2328 
Q 1056 1369 1301 889 
Q 1547 409 2034 409 
Q 2525 409 2770 889 
Q 3016 1369 3016 2328 
Q 3016 3291 2770 3770 
Q 2525 4250 2034 4250 
z
M 2034 4750 
Q 2819 4750 3233 4129 
Q 3647 3509 3647 2328 
Q 3647 1150 3233 529 
Q 2819 -91 2034 -91 
Q 1250 -91 836 529 
Q 422 1150 422 2328 
Q 422 3509 836 4129 
Q 1250 4750 2034 4750 
z
" transform="scale(0.015625)"/>
       </defs>
       <use xlink:href="#DejaVuSans-31"/>
       <use xlink:href="#DejaVuSans-30" x="63.623047"/>
      </g>
     </g>
    </g>
    <g id="xtick_5">
     <g id="line2d_5">
      <g>
       <use xlink:href="#m08180cb97e" x="397.001743" y="295.268719" style="stroke: #000000; stroke-width: 3"/>
      </g>
     </g>
     <g id="text_5">
      <!-- 12 -->
      <g transform="translate(387.457993 318.166375) scale(0.15 -0.15)">
       <defs>
        <path id="DejaVuSans-32" d="M 1228 531 
L 3431 531 
L 3431 0 
L 469 0 
L 469 531 
Q 828 903 1448 1529 
Q 2069 2156 2228 2338 
Q 2531 2678 2651 2914 
Q 2772 3150 2772 3378 
Q 2772 3750 2511 3984 
Q 2250 4219 1831 4219 
Q 1534 4219 1204 4116 
Q 875 4013 500 3803 
L 500 4441 
Q 881 4594 1212 4672 
Q 1544 4750 1819 4750 
Q 2544 4750 2975 4387 
Q 3406 4025 3406 3419 
Q 3406 3131 3298 2873 
Q 3191 2616 2906 2266 
Q 2828 2175 2409 1742 
Q 1991 1309 1228 531 
z
" transform="scale(0.015625)"/>
       </defs>
       <use xlink:href="#DejaVuSans-31"/>
       <use xlink:href="#DejaVuSans-32" x="63.623047"/>
      </g>
     </g>
    </g>
    <g id="text_6">
     <!-- UMAP 1 -->
     <g transform="translate(207.221953 338.20325) scale(0.17 -0.17)">
      <defs>
       <path id="DejaVuSans-55" d="M 556 4666 
L 1191 4666 
L 1191 1831 
Q 1191 1081 1462 751 
Q 1734 422 2344 422 
Q 2950 422 3222 751 
Q 3494 1081 3494 1831 
L 3494 4666 
L 4128 4666 
L 4128 1753 
Q 4128 841 3676 375 
Q 3225 -91 2344 -91 
Q 1459 -91 1007 375 
Q 556 841 556 1753 
L 556 4666 
z
" transform="scale(0.015625)"/>
       <path id="DejaVuSans-4d" d="M 628 4666 
L 1569 4666 
L 2759 1491 
L 3956 4666 
L 4897 4666 
L 4897 0 
L 4281 0 
L 4281 4097 
L 3078 897 
L 2444 897 
L 1241 4097 
L 1241 0 
L 628 0 
L 628 4666 
z
" transform="scale(0.015625)"/>
       <path id="DejaVuSans-41" d="M 2188 4044 
L 1331 1722 
L 3047 1722 
L 2188 4044 
z
M 1831 4666 
L 2547 4666 
L 4325 0 
L 3669 0 
L 3244 1197 
L 1141 1197 
L 716 0 
L 50 0 
L 1831 4666 
z
" transform="scale(0.015625)"/>
       <path id="DejaVuSans-50" d="M 1259 4147 
L 1259 2394 
L 2053 2394 
Q 2494 2394 2734 2622 
Q 2975 2850 2975 3272 
Q 2975 3691 2734 3919 
Q 2494 4147 2053 4147 
L 1259 4147 
z
M 628 4666 
L 2053 4666 
Q 2838 4666 3239 4311 
Q 3641 3956 3641 3272 
Q 3641 2581 3239 2228 
Q 2838 1875 2053 1875 
L 1259 1875 
L 1259 0 
L 628 0 
L 628 4666 
z
" transform="scale(0.015625)"/>
       <path id="DejaVuSans-20" transform="scale(0.015625)"/>
      </defs>
      <use xlink:href="#DejaVuSans-55"/>
      <use xlink:href="#DejaVuSans-4d" x="73.193359"/>
      <use xlink:href="#DejaVuSans-41" x="159.472656"/>
      <use xlink:href="#DejaVuSans-50" x="227.880859"/>
      <use xlink:href="#DejaVuSans-20" x="288.183594"/>
      <use xlink:href="#DejaVuSans-31" x="319.970703"/>
     </g>
    </g>
   </g>
   <g id="matplotlib.axis_2">
    <g id="ytick_1">
     <g id="line2d_6">
      <defs>
       <path id="m5baef6d9b5" d="M 0 0 
L -8 0 
" style="stroke: #000000; stroke-width: 3"/>
      </defs>
      <g>
       <use xlink:href="#m5baef6d9b5" x="61.266094" y="260.77879" style="stroke: #000000; stroke-width: 3"/>
      </g>
     </g>
     <g id="text_7">
      <!-- −6 -->
      <g transform="translate(27.652813 266.477618) scale(0.15 -0.15)">
       <defs>
        <path id="DejaVuSans-2212" d="M 678 2272 
L 4684 2272 
L 4684 1741 
L 678 1741 
L 678 2272 
z
" transform="scale(0.015625)"/>
       </defs>
       <use xlink:href="#DejaVuSans-2212"/>
       <use xlink:href="#DejaVuSans-36" x="83.789062"/>
      </g>
     </g>
    </g>
    <g id="ytick_2">
     <g id="line2d_7">
      <g>
       <use xlink:href="#m5baef6d9b5" x="61.266094" y="221.689844" style="stroke: #000000; stroke-width: 3"/>
      </g>
     </g>
     <g id="text_8">
      <!-- −4 -->
      <g transform="translate(27.652813 227.388672) scale(0.15 -0.15)">
       <use xlink:href="#DejaVuSans-2212"/>
       <use xlink:href="#DejaVuSans-34" x="83.789062"/>
      </g>
     </g>
    </g>
    <g id="ytick_3">
     <g id="line2d_8">
      <g>
       <use xlink:href="#m5baef6d9b5" x="61.266094" y="182.600898" style="stroke: #000000; stroke-width: 3"/>
      </g>
     </g>
     <g id="text_9">
      <!-- −2 -->
      <g transform="translate(27.652813 188.299726) scale(0.15 -0.15)">
       <use xlink:href="#DejaVuSans-2212"/>
       <use xlink:href="#DejaVuSans-32" x="83.789062"/>
      </g>
     </g>
    </g>
    <g id="ytick_4">
     <g id="line2d_9">
      <g>
       <use xlink:href="#m5baef6d9b5" x="61.266094" y="143.511952" style="stroke: #000000; stroke-width: 3"/>
      </g>
     </g>
     <g id="text_10">
      <!-- 0 -->
      <g transform="translate(40.222344 149.21078) scale(0.15 -0.15)">
       <use xlink:href="#DejaVuSans-30"/>
      </g>
     </g>
    </g>
    <g id="ytick_5">
     <g id="line2d_10">
      <g>
       <use xlink:href="#m5baef6d9b5" x="61.266094" y="104.423006" style="stroke: #000000; stroke-width: 3"/>
      </g>
     </g>
     <g id="text_11">
      <!-- 2 -->
      <g transform="translate(40.222344 110.121835) scale(0.15 -0.15)">
       <use xlink:href="#DejaVuSans-32"/>
      </g>
     </g>
    </g>
    <g id="ytick_6">
     <g id="line2d_11">
      <g>
       <use xlink:href="#m5baef6d9b5" x="61.266094" y="65.334061" style="stroke: #000000; stroke-width: 3"/>
      </g>
     </g>
     <g id="text_12">
      <!-- 4 -->
      <g transform="translate(40.222344 71.032889) scale(0.15 -0.15)">
       <use xlink:href="#DejaVuSans-34"/>
      </g>
     </g>
    </g>
    <g id="text_13">
     <!-- UMAP 2 -->
     <g transform="translate(20.117344 194.816859) rotate(-90) scale(0.17 -0.17)">
      <use xlink:href="#DejaVuSans-55"/>
      <use xlink:href="#DejaVuSans-4d" x="73.193359"/>
      <use xlink:href="#DejaVuSans-41" x="159.472656"/>
      <use xlink:href="#DejaVuSans-50" x="227.880859"/>
      <use xlink:href="#DejaVuSans-20" x="288.183594"/>
      <use xlink:href="#DejaVuSans-32" x="319.970703"/>
     </g>
    </g>
   </g>
   <g id="patch_3">
    <path d="M 61.266094 295.268719 
L 61.266094 29.156719 
" style="fill: none; stroke: #000000; stroke-width: 2; stroke-linejoin: miter; stroke-linecap: square"/>
   </g>
   <g id="patch_4">
    <path d="M 61.266094 295.268719 
L 418.386094 295.268719 
" style="fill: none; stroke: #000000; stroke-width: 2; stroke-linejoin: miter; stroke-linecap: square"/>
   </g>
   <g id="text_14">
    <!-- UMAP - Embeddings resp. to atom types -->
    <g transform="translate(28.044375 23.156719) scale(0.21 -0.21)">
     <defs>
      <path id="DejaVuSans-2d" d="M 313 2009 
L 1997 2009 
L 1997 1497 
L 313 1497 
L 313 2009 
z
" transform="scale(0.015625)"/>
      <path id="DejaVuSans-45" d="M 628 4666 
L 3578 4666 
L 3578 4134 
L 1259 4134 
L 1259 2753 
L 3481 2753 
L 3481 2222 
L 1259 2222 
L 1259 531 
L 3634 531 
L 3634 0 
L 628 0 
L 628 4666 
z
" transform="scale(0.015625)"/>
      <path id="DejaVuSans-6d" d="M 3328 2828 
Q 3544 3216 3844 3400 
Q 4144 3584 4550 3584 
Q 5097 3584 5394 3201 
Q 5691 2819 5691 2113 
L 5691 0 
L 5113 0 
L 5113 2094 
Q 5113 2597 4934 2840 
Q 4756 3084 4391 3084 
Q 3944 3084 3684 2787 
Q 3425 2491 3425 1978 
L 3425 0 
L 2847 0 
L 2847 2094 
Q 2847 2600 2669 2842 
Q 2491 3084 2119 3084 
Q 1678 3084 1418 2786 
Q 1159 2488 1159 1978 
L 1159 0 
L 581 0 
L 581 3500 
L 1159 3500 
L 1159 2956 
Q 1356 3278 1631 3431 
Q 1906 3584 2284 3584 
Q 2666 3584 2933 3390 
Q 3200 3197 3328 2828 
z
" transform="scale(0.015625)"/>
      <path id="DejaVuSans-62" d="M 3116 1747 
Q 3116 2381 2855 2742 
Q 2594 3103 2138 3103 
Q 1681 3103 1420 2742 
Q 1159 2381 1159 1747 
Q 1159 1113 1420 752 
Q 1681 391 2138 391 
Q 2594 391 2855 752 
Q 3116 1113 3116 1747 
z
M 1159 2969 
Q 1341 3281 1617 3432 
Q 1894 3584 2278 3584 
Q 2916 3584 3314 3078 
Q 3713 2572 3713 1747 
Q 3713 922 3314 415 
Q 2916 -91 2278 -91 
Q 1894 -91 1617 61 
Q 1341 213 1159 525 
L 1159 0 
L 581 0 
L 581 4863 
L 1159 4863 
L 1159 2969 
z
" transform="scale(0.015625)"/>
      <path id="DejaVuSans-65" d="M 3597 1894 
L 3597 1613 
L 953 1613 
Q 991 1019 1311 708 
Q 1631 397 2203 397 
Q 2534 397 2845 478 
Q 3156 559 3463 722 
L 3463 178 
Q 3153 47 2828 -22 
Q 2503 -91 2169 -91 
Q 1331 -91 842 396 
Q 353 884 353 1716 
Q 353 2575 817 3079 
Q 1281 3584 2069 3584 
Q 2775 3584 3186 3129 
Q 3597 2675 3597 1894 
z
M 3022 2063 
Q 3016 2534 2758 2815 
Q 2500 3097 2075 3097 
Q 1594 3097 1305 2825 
Q 1016 2553 972 2059 
L 3022 2063 
z
" transform="scale(0.015625)"/>
      <path id="DejaVuSans-64" d="M 2906 2969 
L 2906 4863 
L 3481 4863 
L 3481 0 
L 2906 0 
L 2906 525 
Q 2725 213 2448 61 
Q 2172 -91 1784 -91 
Q 1150 -91 751 415 
Q 353 922 353 1747 
Q 353 2572 751 3078 
Q 1150 3584 1784 3584 
Q 2172 3584 2448 3432 
Q 2725 3281 2906 2969 
z
M 947 1747 
Q 947 1113 1208 752 
Q 1469 391 1925 391 
Q 2381 391 2643 752 
Q 2906 1113 2906 1747 
Q 2906 2381 2643 2742 
Q 2381 3103 1925 3103 
Q 1469 3103 1208 2742 
Q 947 2381 947 1747 
z
" transform="scale(0.015625)"/>
      <path id="DejaVuSans-69" d="M 603 3500 
L 1178 3500 
L 1178 0 
L 603 0 
L 603 3500 
z
M 603 4863 
L 1178 4863 
L 1178 4134 
L 603 4134 
L 603 4863 
z
" transform="scale(0.015625)"/>
      <path id="DejaVuSans-6e" d="M 3513 2113 
L 3513 0 
L 2938 0 
L 2938 2094 
Q 2938 2591 2744 2837 
Q 2550 3084 2163 3084 
Q 1697 3084 1428 2787 
Q 1159 2491 1159 1978 
L 1159 0 
L 581 0 
L 581 3500 
L 1159 3500 
L 1159 2956 
Q 1366 3272 1645 3428 
Q 1925 3584 2291 3584 
Q 2894 3584 3203 3211 
Q 3513 2838 3513 2113 
z
" transform="scale(0.015625)"/>
      <path id="DejaVuSans-67" d="M 2906 1791 
Q 2906 2416 2648 2759 
Q 2391 3103 1925 3103 
Q 1463 3103 1205 2759 
Q 947 2416 947 1791 
Q 947 1169 1205 825 
Q 1463 481 1925 481 
Q 2391 481 2648 825 
Q 2906 1169 2906 1791 
z
M 3481 434 
Q 3481 -459 3084 -895 
Q 2688 -1331 1869 -1331 
Q 1566 -1331 1297 -1286 
Q 1028 -1241 775 -1147 
L 775 -588 
Q 1028 -725 1275 -790 
Q 1522 -856 1778 -856 
Q 2344 -856 2625 -561 
Q 2906 -266 2906 331 
L 2906 616 
Q 2728 306 2450 153 
Q 2172 0 1784 0 
Q 1141 0 747 490 
Q 353 981 353 1791 
Q 353 2603 747 3093 
Q 1141 3584 1784 3584 
Q 2172 3584 2450 3431 
Q 2728 3278 2906 2969 
L 2906 3500 
L 3481 3500 
L 3481 434 
z
" transform="scale(0.015625)"/>
      <path id="DejaVuSans-73" d="M 2834 3397 
L 2834 2853 
Q 2591 2978 2328 3040 
Q 2066 3103 1784 3103 
Q 1356 3103 1142 2972 
Q 928 2841 928 2578 
Q 928 2378 1081 2264 
Q 1234 2150 1697 2047 
L 1894 2003 
Q 2506 1872 2764 1633 
Q 3022 1394 3022 966 
Q 3022 478 2636 193 
Q 2250 -91 1575 -91 
Q 1294 -91 989 -36 
Q 684 19 347 128 
L 347 722 
Q 666 556 975 473 
Q 1284 391 1588 391 
Q 1994 391 2212 530 
Q 2431 669 2431 922 
Q 2431 1156 2273 1281 
Q 2116 1406 1581 1522 
L 1381 1569 
Q 847 1681 609 1914 
Q 372 2147 372 2553 
Q 372 3047 722 3315 
Q 1072 3584 1716 3584 
Q 2034 3584 2315 3537 
Q 2597 3491 2834 3397 
z
" transform="scale(0.015625)"/>
      <path id="DejaVuSans-72" d="M 2631 2963 
Q 2534 3019 2420 3045 
Q 2306 3072 2169 3072 
Q 1681 3072 1420 2755 
Q 1159 2438 1159 1844 
L 1159 0 
L 581 0 
L 581 3500 
L 1159 3500 
L 1159 2956 
Q 1341 3275 1631 3429 
Q 1922 3584 2338 3584 
Q 2397 3584 2469 3576 
Q 2541 3569 2628 3553 
L 2631 2963 
z
" transform="scale(0.015625)"/>
      <path id="DejaVuSans-70" d="M 1159 525 
L 1159 -1331 
L 581 -1331 
L 581 3500 
L 1159 3500 
L 1159 2969 
Q 1341 3281 1617 3432 
Q 1894 3584 2278 3584 
Q 2916 3584 3314 3078 
Q 3713 2572 3713 1747 
Q 3713 922 3314 415 
Q 2916 -91 2278 -91 
Q 1894 -91 1617 61 
Q 1341 213 1159 525 
z
M 3116 1747 
Q 3116 2381 2855 2742 
Q 2594 3103 2138 3103 
Q 1681 3103 1420 2742 
Q 1159 2381 1159 1747 
Q 1159 1113 1420 752 
Q 1681 391 2138 391 
Q 2594 391 2855 752 
Q 3116 1113 3116 1747 
z
" transform="scale(0.015625)"/>
      <path id="DejaVuSans-2e" d="M 684 794 
L 1344 794 
L 1344 0 
L 684 0 
L 684 794 
z
" transform="scale(0.015625)"/>
      <path id="DejaVuSans-74" d="M 1172 4494 
L 1172 3500 
L 2356 3500 
L 2356 3053 
L 1172 3053 
L 1172 1153 
Q 1172 725 1289 603 
Q 1406 481 1766 481 
L 2356 481 
L 2356 0 
L 1766 0 
Q 1100 0 847 248 
Q 594 497 594 1153 
L 594 3053 
L 172 3053 
L 172 3500 
L 594 3500 
L 594 4494 
L 1172 4494 
z
" transform="scale(0.015625)"/>
      <path id="DejaVuSans-6f" d="M 1959 3097 
Q 1497 3097 1228 2736 
Q 959 2375 959 1747 
Q 959 1119 1226 758 
Q 1494 397 1959 397 
Q 2419 397 2687 759 
Q 2956 1122 2956 1747 
Q 2956 2369 2687 2733 
Q 2419 3097 1959 3097 
z
M 1959 3584 
Q 2709 3584 3137 3096 
Q 3566 2609 3566 1747 
Q 3566 888 3137 398 
Q 2709 -91 1959 -91 
Q 1206 -91 779 398 
Q 353 888 353 1747 
Q 353 2609 779 3096 
Q 1206 3584 1959 3584 
z
" transform="scale(0.015625)"/>
      <path id="DejaVuSans-61" d="M 2194 1759 
Q 1497 1759 1228 1600 
Q 959 1441 959 1056 
Q 959 750 1161 570 
Q 1363 391 1709 391 
Q 2188 391 2477 730 
Q 2766 1069 2766 1631 
L 2766 1759 
L 2194 1759 
z
M 3341 1997 
L 3341 0 
L 2766 0 
L 2766 531 
Q 2569 213 2275 61 
Q 1981 -91 1556 -91 
Q 1019 -91 701 211 
Q 384 513 384 1019 
Q 384 1609 779 1909 
Q 1175 2209 1959 2209 
L 2766 2209 
L 2766 2266 
Q 2766 2663 2505 2880 
Q 2244 3097 1772 3097 
Q 1472 3097 1187 3025 
Q 903 2953 641 2809 
L 641 3341 
Q 956 3463 1253 3523 
Q 1550 3584 1831 3584 
Q 2591 3584 2966 3190 
Q 3341 2797 3341 1997 
z
" transform="scale(0.015625)"/>
      <path id="DejaVuSans-79" d="M 2059 -325 
Q 1816 -950 1584 -1140 
Q 1353 -1331 966 -1331 
L 506 -1331 
L 506 -850 
L 844 -850 
Q 1081 -850 1212 -737 
Q 1344 -625 1503 -206 
L 1606 56 
L 191 3500 
L 800 3500 
L 1894 763 
L 2988 3500 
L 3597 3500 
L 2059 -325 
z
" transform="scale(0.015625)"/>
     </defs>
     <use xlink:href="#DejaVuSans-55"/>
     <use xlink:href="#DejaVuSans-4d" x="73.193359"/>
     <use xlink:href="#DejaVuSans-41" x="159.472656"/>
     <use xlink:href="#DejaVuSans-50" x="227.880859"/>
     <use xlink:href="#DejaVuSans-20" x="288.183594"/>
     <use xlink:href="#DejaVuSans-2d" x="319.970703"/>
     <use xlink:href="#DejaVuSans-20" x="356.054688"/>
     <use xlink:href="#DejaVuSans-45" x="387.841797"/>
     <use xlink:href="#DejaVuSans-6d" x="451.025391"/>
     <use xlink:href="#DejaVuSans-62" x="548.4375"/>
     <use xlink:href="#DejaVuSans-65" x="611.914062"/>
     <use xlink:href="#DejaVuSans-64" x="673.4375"/>
     <use xlink:href="#DejaVuSans-64" x="736.914062"/>
     <use xlink:href="#DejaVuSans-69" x="800.390625"/>
     <use xlink:href="#DejaVuSans-6e" x="828.173828"/>
     <use xlink:href="#DejaVuSans-67" x="891.552734"/>
     <use xlink:href="#DejaVuSans-73" x="955.029297"/>
     <use xlink:href="#DejaVuSans-20" x="1007.128906"/>
     <use xlink:href="#DejaVuSans-72" x="1038.916016"/>
     <use xlink:href="#DejaVuSans-65" x="1077.779297"/>
     <use xlink:href="#DejaVuSans-73" x="1139.302734"/>
     <use xlink:href="#DejaVuSans-70" x="1191.402344"/>
     <use xlink:href="#DejaVuSans-2e" x="1254.878906"/>
     <use xlink:href="#DejaVuSans-20" x="1286.666016"/>
     <use xlink:href="#DejaVuSans-74" x="1318.453125"/>
     <use xlink:href="#DejaVuSans-6f" x="1357.662109"/>
     <use xlink:href="#DejaVuSans-20" x="1418.84375"/>
     <use xlink:href="#DejaVuSans-61" x="1450.630859"/>
     <use xlink:href="#DejaVuSans-74" x="1511.910156"/>
     <use xlink:href="#DejaVuSans-6f" x="1551.119141"/>
     <use xlink:href="#DejaVuSans-6d" x="1612.300781"/>
     <use xlink:href="#DejaVuSans-20" x="1709.712891"/>
     <use xlink:href="#DejaVuSans-74" x="1741.5"/>
     <use xlink:href="#DejaVuSans-79" x="1780.708984"/>
     <use xlink:href="#DejaVuSans-70" x="1839.888672"/>
     <use xlink:href="#DejaVuSans-65" x="1903.365234"/>
     <use xlink:href="#DejaVuSans-73" x="1964.888672"/>
    </g>
   </g>
   <g id="legend_1">
    <g id="patch_5">
     <path d="M 423.451694 251.481469 
L 459.211694 251.481469 
Q 460.811694 251.481469 460.811694 249.881469 
L 460.811694 74.543969 
Q 460.811694 72.943969 459.211694 72.943969 
L 423.451694 72.943969 
Q 421.851694 72.943969 421.851694 74.543969 
L 421.851694 249.881469 
Q 421.851694 251.481469 423.451694 251.481469 
z
" style="fill: #ffffff; opacity: 0.8; stroke: #cccccc; stroke-linejoin: miter"/>
    </g>
    <g id="line2d_12">
     <path d="M 425.051694 79.422719 
L 433.051694 79.422719 
L 441.051694 79.422719 
" style="fill: none; stroke: #ffffff; stroke-width: 1.5; stroke-linecap: square"/>
     <defs>
      <path id="m1f820fe365" d="M 0 4.5 
C 1.193414 4.5 2.338109 4.025852 3.181981 3.181981 
C 4.025852 2.338109 4.5 1.193414 4.5 0 
C 4.5 -1.193414 4.025852 -2.338109 3.181981 -3.181981 
C 2.338109 -4.025852 1.193414 -4.5 0 -4.5 
C -1.193414 -4.5 -2.338109 -4.025852 -3.181981 -3.181981 
C -4.025852 -2.338109 -4.5 -1.193414 -4.5 0 
C -4.5 1.193414 -4.025852 2.338109 -3.181981 3.181981 
C -2.338109 4.025852 -1.193414 4.5 0 4.5 
z
" style="stroke: #ffffff"/>
     </defs>
     <g>
      <use xlink:href="#m1f820fe365" x="433.051694" y="79.422719" style="fill: #e6194b; stroke: #ffffff"/>
     </g>
    </g>
    <g id="text_15">
     <!-- n -->
     <g transform="translate(447.451694 82.222719) scale(0.08 -0.08)">
      <use xlink:href="#DejaVuSans-6e"/>
     </g>
    </g>
    <g id="line2d_13">
     <path d="M 425.051694 91.165219 
L 433.051694 91.165219 
L 441.051694 91.165219 
" style="fill: none; stroke: #ffffff; stroke-width: 1.5; stroke-linecap: square"/>
     <defs>
      <path id="m8de159af5b" d="M 0 4.5 
C 1.193414 4.5 2.338109 4.025852 3.181981 3.181981 
C 4.025852 2.338109 4.5 1.193414 4.5 0 
C 4.5 -1.193414 4.025852 -2.338109 3.181981 -3.181981 
C 2.338109 -4.025852 1.193414 -4.5 0 -4.5 
C -1.193414 -4.5 -2.338109 -4.025852 -3.181981 -3.181981 
C -4.025852 -2.338109 -4.5 -1.193414 -4.5 0 
C -4.5 1.193414 -4.025852 2.338109 -3.181981 3.181981 
C -2.338109 4.025852 -1.193414 4.5 0 4.5 
z
" style="stroke: #ffffff"/>
     </defs>
     <g>
      <use xlink:href="#m8de159af5b" x="433.051694" y="91.165219" style="fill: #3cb44b; stroke: #ffffff"/>
     </g>
    </g>
    <g id="text_16">
     <!-- n1 -->
     <g transform="translate(447.451694 93.965219) scale(0.08 -0.08)">
      <use xlink:href="#DejaVuSans-6e"/>
      <use xlink:href="#DejaVuSans-31" x="63.378906"/>
     </g>
    </g>
    <g id="line2d_14">
     <path d="M 425.051694 102.907719 
L 433.051694 102.907719 
L 441.051694 102.907719 
" style="fill: none; stroke: #ffffff; stroke-width: 1.5; stroke-linecap: square"/>
     <defs>
      <path id="mea70ead1d2" d="M 0 4.5 
C 1.193414 4.5 2.338109 4.025852 3.181981 3.181981 
C 4.025852 2.338109 4.5 1.193414 4.5 0 
C 4.5 -1.193414 4.025852 -2.338109 3.181981 -3.181981 
C 2.338109 -4.025852 1.193414 -4.5 0 -4.5 
C -1.193414 -4.5 -2.338109 -4.025852 -3.181981 -3.181981 
C -4.025852 -2.338109 -4.5 -1.193414 -4.5 0 
C -4.5 1.193414 -4.025852 2.338109 -3.181981 3.181981 
C -2.338109 4.025852 -1.193414 4.5 0 4.5 
z
" style="stroke: #ffffff"/>
     </defs>
     <g>
      <use xlink:href="#mea70ead1d2" x="433.051694" y="102.907719" style="fill: #ffe119; stroke: #ffffff"/>
     </g>
    </g>
    <g id="text_17">
     <!-- n2 -->
     <g transform="translate(447.451694 105.707719) scale(0.08 -0.08)">
      <use xlink:href="#DejaVuSans-6e"/>
      <use xlink:href="#DejaVuSans-32" x="63.378906"/>
     </g>
    </g>
    <g id="line2d_15">
     <path d="M 425.051694 114.650219 
L 433.051694 114.650219 
L 441.051694 114.650219 
" style="fill: none; stroke: #ffffff; stroke-width: 1.5; stroke-linecap: square"/>
     <defs>
      <path id="m740afeccae" d="M 0 4.5 
C 1.193414 4.5 2.338109 4.025852 3.181981 3.181981 
C 4.025852 2.338109 4.5 1.193414 4.5 0 
C 4.5 -1.193414 4.025852 -2.338109 3.181981 -3.181981 
C 2.338109 -4.025852 1.193414 -4.5 0 -4.5 
C -1.193414 -4.5 -2.338109 -4.025852 -3.181981 -3.181981 
C -4.025852 -2.338109 -4.5 -1.193414 -4.5 0 
C -4.5 1.193414 -4.025852 2.338109 -3.181981 3.181981 
C -2.338109 4.025852 -1.193414 4.5 0 4.5 
z
" style="stroke: #ffffff"/>
     </defs>
     <g>
      <use xlink:href="#m740afeccae" x="433.051694" y="114.650219" style="fill: #4363d8; stroke: #ffffff"/>
     </g>
    </g>
    <g id="text_18">
     <!-- n7 -->
     <g transform="translate(447.451694 117.450219) scale(0.08 -0.08)">
      <defs>
       <path id="DejaVuSans-37" d="M 525 4666 
L 3525 4666 
L 3525 4397 
L 1831 0 
L 1172 0 
L 2766 4134 
L 525 4134 
L 525 4666 
z
" transform="scale(0.015625)"/>
      </defs>
      <use xlink:href="#DejaVuSans-6e"/>
      <use xlink:href="#DejaVuSans-37" x="63.378906"/>
     </g>
    </g>
    <g id="line2d_16">
     <path d="M 425.051694 126.392719 
L 433.051694 126.392719 
L 441.051694 126.392719 
" style="fill: none; stroke: #ffffff; stroke-width: 1.5; stroke-linecap: square"/>
     <defs>
      <path id="m4e7bc3c498" d="M 0 4.5 
C 1.193414 4.5 2.338109 4.025852 3.181981 3.181981 
C 4.025852 2.338109 4.5 1.193414 4.5 0 
C 4.5 -1.193414 4.025852 -2.338109 3.181981 -3.181981 
C 2.338109 -4.025852 1.193414 -4.5 0 -4.5 
C -1.193414 -4.5 -2.338109 -4.025852 -3.181981 -3.181981 
C -4.025852 -2.338109 -4.5 -1.193414 -4.5 0 
C -4.5 1.193414 -4.025852 2.338109 -3.181981 3.181981 
C -2.338109 4.025852 -1.193414 4.5 0 4.5 
z
" style="stroke: #ffffff"/>
     </defs>
     <g>
      <use xlink:href="#m4e7bc3c498" x="433.051694" y="126.392719" style="fill: #f58231; stroke: #ffffff"/>
     </g>
    </g>
    <g id="text_19">
     <!-- n8 -->
     <g transform="translate(447.451694 129.192719) scale(0.08 -0.08)">
      <use xlink:href="#DejaVuSans-6e"/>
      <use xlink:href="#DejaVuSans-38" x="63.378906"/>
     </g>
    </g>
    <g id="line2d_17">
     <path d="M 425.051694 138.135219 
L 433.051694 138.135219 
L 441.051694 138.135219 
" style="fill: none; stroke: #ffffff; stroke-width: 1.5; stroke-linecap: square"/>
     <defs>
      <path id="mcaa4eaf359" d="M 0 4.5 
C 1.193414 4.5 2.338109 4.025852 3.181981 3.181981 
C 4.025852 2.338109 4.5 1.193414 4.5 0 
C 4.5 -1.193414 4.025852 -2.338109 3.181981 -3.181981 
C 2.338109 -4.025852 1.193414 -4.5 0 -4.5 
C -1.193414 -4.5 -2.338109 -4.025852 -3.181981 -3.181981 
C -4.025852 -2.338109 -4.5 -1.193414 -4.5 0 
C -4.5 1.193414 -4.025852 2.338109 -3.181981 3.181981 
C -2.338109 4.025852 -1.193414 4.5 0 4.5 
z
" style="stroke: #ffffff"/>
     </defs>
     <g>
      <use xlink:href="#mcaa4eaf359" x="433.051694" y="138.135219" style="fill: #911eb4; stroke: #ffffff"/>
     </g>
    </g>
    <g id="text_20">
     <!-- na -->
     <g transform="translate(447.451694 140.935219) scale(0.08 -0.08)">
      <use xlink:href="#DejaVuSans-6e"/>
      <use xlink:href="#DejaVuSans-61" x="63.378906"/>
     </g>
    </g>
    <g id="line2d_18">
     <path d="M 425.051694 149.877719 
L 433.051694 149.877719 
L 441.051694 149.877719 
" style="fill: none; stroke: #ffffff; stroke-width: 1.5; stroke-linecap: square"/>
     <defs>
      <path id="m25f31278d4" d="M 0 4.5 
C 1.193414 4.5 2.338109 4.025852 3.181981 3.181981 
C 4.025852 2.338109 4.5 1.193414 4.5 0 
C 4.5 -1.193414 4.025852 -2.338109 3.181981 -3.181981 
C 2.338109 -4.025852 1.193414 -4.5 0 -4.5 
C -1.193414 -4.5 -2.338109 -4.025852 -3.181981 -3.181981 
C -4.025852 -2.338109 -4.5 -1.193414 -4.5 0 
C -4.5 1.193414 -4.025852 2.338109 -3.181981 3.181981 
C -2.338109 4.025852 -1.193414 4.5 0 4.5 
z
" style="stroke: #ffffff"/>
     </defs>
     <g>
      <use xlink:href="#m25f31278d4" x="433.051694" y="149.877719" style="fill: #42d4f4; stroke: #ffffff"/>
     </g>
    </g>
    <g id="text_21">
     <!-- nb -->
     <g transform="translate(447.451694 152.677719) scale(0.08 -0.08)">
      <use xlink:href="#DejaVuSans-6e"/>
      <use xlink:href="#DejaVuSans-62" x="63.378906"/>
     </g>
    </g>
    <g id="line2d_19">
     <path d="M 425.051694 161.620219 
L 433.051694 161.620219 
L 441.051694 161.620219 
" style="fill: none; stroke: #ffffff; stroke-width: 1.5; stroke-linecap: square"/>
     <defs>
      <path id="mc61799c40b" d="M 0 4.5 
C 1.193414 4.5 2.338109 4.025852 3.181981 3.181981 
C 4.025852 2.338109 4.5 1.193414 4.5 0 
C 4.5 -1.193414 4.025852 -2.338109 3.181981 -3.181981 
C 2.338109 -4.025852 1.193414 -4.5 0 -4.5 
C -1.193414 -4.5 -2.338109 -4.025852 -3.181981 -3.181981 
C -4.025852 -2.338109 -4.5 -1.193414 -4.5 0 
C -4.5 1.193414 -4.025852 2.338109 -3.181981 3.181981 
C -2.338109 4.025852 -1.193414 4.5 0 4.5 
z
" style="stroke: #ffffff"/>
     </defs>
     <g>
      <use xlink:href="#mc61799c40b" x="433.051694" y="161.620219" style="fill: #f032e6; stroke: #ffffff"/>
     </g>
    </g>
    <g id="text_22">
     <!-- nc -->
     <g transform="translate(447.451694 164.420219) scale(0.08 -0.08)">
      <defs>
       <path id="DejaVuSans-63" d="M 3122 3366 
L 3122 2828 
Q 2878 2963 2633 3030 
Q 2388 3097 2138 3097 
Q 1578 3097 1268 2742 
Q 959 2388 959 1747 
Q 959 1106 1268 751 
Q 1578 397 2138 397 
Q 2388 397 2633 464 
Q 2878 531 3122 666 
L 3122 134 
Q 2881 22 2623 -34 
Q 2366 -91 2075 -91 
Q 1284 -91 818 406 
Q 353 903 353 1747 
Q 353 2603 823 3093 
Q 1294 3584 2113 3584 
Q 2378 3584 2631 3529 
Q 2884 3475 3122 3366 
z
" transform="scale(0.015625)"/>
      </defs>
      <use xlink:href="#DejaVuSans-6e"/>
      <use xlink:href="#DejaVuSans-63" x="63.378906"/>
     </g>
    </g>
    <g id="line2d_20">
     <path d="M 425.051694 173.362719 
L 433.051694 173.362719 
L 441.051694 173.362719 
" style="fill: none; stroke: #ffffff; stroke-width: 1.5; stroke-linecap: square"/>
     <defs>
      <path id="me5198c9ac7" d="M 0 4.5 
C 1.193414 4.5 2.338109 4.025852 3.181981 3.181981 
C 4.025852 2.338109 4.5 1.193414 4.5 0 
C 4.5 -1.193414 4.025852 -2.338109 3.181981 -3.181981 
C 2.338109 -4.025852 1.193414 -4.5 0 -4.5 
C -1.193414 -4.5 -2.338109 -4.025852 -3.181981 -3.181981 
C -4.025852 -2.338109 -4.5 -1.193414 -4.5 0 
C -4.5 1.193414 -4.025852 2.338109 -3.181981 3.181981 
C -2.338109 4.025852 -1.193414 4.5 0 4.5 
z
" style="stroke: #ffffff"/>
     </defs>
     <g>
      <use xlink:href="#me5198c9ac7" x="433.051694" y="173.362719" style="fill: #bfef45; stroke: #ffffff"/>
     </g>
    </g>
    <g id="text_23">
     <!-- nd -->
     <g transform="translate(447.451694 176.162719) scale(0.08 -0.08)">
      <use xlink:href="#DejaVuSans-6e"/>
      <use xlink:href="#DejaVuSans-64" x="63.378906"/>
     </g>
    </g>
    <g id="line2d_21">
     <path d="M 425.051694 185.105219 
L 433.051694 185.105219 
L 441.051694 185.105219 
" style="fill: none; stroke: #ffffff; stroke-width: 1.5; stroke-linecap: square"/>
     <defs>
      <path id="m7b4a9710af" d="M 0 4.5 
C 1.193414 4.5 2.338109 4.025852 3.181981 3.181981 
C 4.025852 2.338109 4.5 1.193414 4.5 0 
C 4.5 -1.193414 4.025852 -2.338109 3.181981 -3.181981 
C 2.338109 -4.025852 1.193414 -4.5 0 -4.5 
C -1.193414 -4.5 -2.338109 -4.025852 -3.181981 -3.181981 
C -4.025852 -2.338109 -4.5 -1.193414 -4.5 0 
C -4.5 1.193414 -4.025852 2.338109 -3.181981 3.181981 
C -2.338109 4.025852 -1.193414 4.5 0 4.5 
z
" style="stroke: #ffffff"/>
     </defs>
     <g>
      <use xlink:href="#m7b4a9710af" x="433.051694" y="185.105219" style="fill: #fabed4; stroke: #ffffff"/>
     </g>
    </g>
    <g id="text_24">
     <!-- ne -->
     <g transform="translate(447.451694 187.905219) scale(0.08 -0.08)">
      <use xlink:href="#DejaVuSans-6e"/>
      <use xlink:href="#DejaVuSans-65" x="63.378906"/>
     </g>
    </g>
    <g id="line2d_22">
     <path d="M 425.051694 196.847719 
L 433.051694 196.847719 
L 441.051694 196.847719 
" style="fill: none; stroke: #ffffff; stroke-width: 1.5; stroke-linecap: square"/>
     <defs>
      <path id="me33209ad96" d="M 0 4.5 
C 1.193414 4.5 2.338109 4.025852 3.181981 3.181981 
C 4.025852 2.338109 4.5 1.193414 4.5 0 
C 4.5 -1.193414 4.025852 -2.338109 3.181981 -3.181981 
C 2.338109 -4.025852 1.193414 -4.5 0 -4.5 
C -1.193414 -4.5 -2.338109 -4.025852 -3.181981 -3.181981 
C -4.025852 -2.338109 -4.5 -1.193414 -4.5 0 
C -4.5 1.193414 -4.025852 2.338109 -3.181981 3.181981 
C -2.338109 4.025852 -1.193414 4.5 0 4.5 
z
" style="stroke: #ffffff"/>
     </defs>
     <g>
      <use xlink:href="#me33209ad96" x="433.051694" y="196.847719" style="fill: #469990; stroke: #ffffff"/>
     </g>
    </g>
    <g id="text_25">
     <!-- nh -->
     <g transform="translate(447.451694 199.647719) scale(0.08 -0.08)">
      <defs>
       <path id="DejaVuSans-68" d="M 3513 2113 
L 3513 0 
L 2938 0 
L 2938 2094 
Q 2938 2591 2744 2837 
Q 2550 3084 2163 3084 
Q 1697 3084 1428 2787 
Q 1159 2491 1159 1978 
L 1159 0 
L 581 0 
L 581 4863 
L 1159 4863 
L 1159 2956 
Q 1366 3272 1645 3428 
Q 1925 3584 2291 3584 
Q 2894 3584 3203 3211 
Q 3513 2838 3513 2113 
z
" transform="scale(0.015625)"/>
      </defs>
      <use xlink:href="#DejaVuSans-6e"/>
      <use xlink:href="#DejaVuSans-68" x="63.378906"/>
     </g>
    </g>
    <g id="line2d_23">
     <path d="M 425.051694 208.590219 
L 433.051694 208.590219 
L 441.051694 208.590219 
" style="fill: none; stroke: #ffffff; stroke-width: 1.5; stroke-linecap: square"/>
     <defs>
      <path id="m31b78abace" d="M 0 4.5 
C 1.193414 4.5 2.338109 4.025852 3.181981 3.181981 
C 4.025852 2.338109 4.5 1.193414 4.5 0 
C 4.5 -1.193414 4.025852 -2.338109 3.181981 -3.181981 
C 2.338109 -4.025852 1.193414 -4.5 0 -4.5 
C -1.193414 -4.5 -2.338109 -4.025852 -3.181981 -3.181981 
C -4.025852 -2.338109 -4.5 -1.193414 -4.5 0 
C -4.5 1.193414 -4.025852 2.338109 -3.181981 3.181981 
C -2.338109 4.025852 -1.193414 4.5 0 4.5 
z
" style="stroke: #ffffff"/>
     </defs>
     <g>
      <use xlink:href="#m31b78abace" x="433.051694" y="208.590219" style="fill: #dcbeff; stroke: #ffffff"/>
     </g>
    </g>
    <g id="text_26">
     <!-- ns -->
     <g transform="translate(447.451694 211.390219) scale(0.08 -0.08)">
      <use xlink:href="#DejaVuSans-6e"/>
      <use xlink:href="#DejaVuSans-73" x="63.378906"/>
     </g>
    </g>
    <g id="line2d_24">
     <path d="M 425.051694 220.332719 
L 433.051694 220.332719 
L 441.051694 220.332719 
" style="fill: none; stroke: #ffffff; stroke-width: 1.5; stroke-linecap: square"/>
     <defs>
      <path id="m2bf124ed8e" d="M 0 4.5 
C 1.193414 4.5 2.338109 4.025852 3.181981 3.181981 
C 4.025852 2.338109 4.5 1.193414 4.5 0 
C 4.5 -1.193414 4.025852 -2.338109 3.181981 -3.181981 
C 2.338109 -4.025852 1.193414 -4.5 0 -4.5 
C -1.193414 -4.5 -2.338109 -4.025852 -3.181981 -3.181981 
C -4.025852 -2.338109 -4.5 -1.193414 -4.5 0 
C -4.5 1.193414 -4.025852 2.338109 -3.181981 3.181981 
C -2.338109 4.025852 -1.193414 4.5 0 4.5 
z
" style="stroke: #ffffff"/>
     </defs>
     <g>
      <use xlink:href="#m2bf124ed8e" x="433.051694" y="220.332719" style="fill: #9a6324; stroke: #ffffff"/>
     </g>
    </g>
    <g id="text_27">
     <!-- nt -->
     <g transform="translate(447.451694 223.132719) scale(0.08 -0.08)">
      <use xlink:href="#DejaVuSans-6e"/>
      <use xlink:href="#DejaVuSans-74" x="63.378906"/>
     </g>
    </g>
    <g id="line2d_25">
     <path d="M 425.051694 232.075219 
L 433.051694 232.075219 
L 441.051694 232.075219 
" style="fill: none; stroke: #ffffff; stroke-width: 1.5; stroke-linecap: square"/>
     <defs>
      <path id="m2b0a946c6c" d="M 0 4.5 
C 1.193414 4.5 2.338109 4.025852 3.181981 3.181981 
C 4.025852 2.338109 4.5 1.193414 4.5 0 
C 4.5 -1.193414 4.025852 -2.338109 3.181981 -3.181981 
C 2.338109 -4.025852 1.193414 -4.5 0 -4.5 
C -1.193414 -4.5 -2.338109 -4.025852 -3.181981 -3.181981 
C -4.025852 -2.338109 -4.5 -1.193414 -4.5 0 
C -4.5 1.193414 -4.025852 2.338109 -3.181981 3.181981 
C -2.338109 4.025852 -1.193414 4.5 0 4.5 
z
" style="stroke: #ffffff"/>
     </defs>
     <g>
      <use xlink:href="#m2b0a946c6c" x="433.051694" y="232.075219" style="fill: #fffac8; stroke: #ffffff"/>
     </g>
    </g>
    <g id="text_28">
     <!-- nu -->
     <g transform="translate(447.451694 234.875219) scale(0.08 -0.08)">
      <defs>
       <path id="DejaVuSans-75" d="M 544 1381 
L 544 3500 
L 1119 3500 
L 1119 1403 
Q 1119 906 1312 657 
Q 1506 409 1894 409 
Q 2359 409 2629 706 
Q 2900 1003 2900 1516 
L 2900 3500 
L 3475 3500 
L 3475 0 
L 2900 0 
L 2900 538 
Q 2691 219 2414 64 
Q 2138 -91 1772 -91 
Q 1169 -91 856 284 
Q 544 659 544 1381 
z
M 1991 3584 
L 1991 3584 
z
" transform="scale(0.015625)"/>
      </defs>
      <use xlink:href="#DejaVuSans-6e"/>
      <use xlink:href="#DejaVuSans-75" x="63.378906"/>
     </g>
    </g>
    <g id="line2d_26">
     <path d="M 425.051694 243.817719 
L 433.051694 243.817719 
L 441.051694 243.817719 
" style="fill: none; stroke: #ffffff; stroke-width: 1.5; stroke-linecap: square"/>
     <defs>
      <path id="m9ea7c25625" d="M 0 4.5 
C 1.193414 4.5 2.338109 4.025852 3.181981 3.181981 
C 4.025852 2.338109 4.5 1.193414 4.5 0 
C 4.5 -1.193414 4.025852 -2.338109 3.181981 -3.181981 
C 2.338109 -4.025852 1.193414 -4.5 0 -4.5 
C -1.193414 -4.5 -2.338109 -4.025852 -3.181981 -3.181981 
C -4.025852 -2.338109 -4.5 -1.193414 -4.5 0 
C -4.5 1.193414 -4.025852 2.338109 -3.181981 3.181981 
C -2.338109 4.025852 -1.193414 4.5 0 4.5 
z
" style="stroke: #ffffff"/>
     </defs>
     <g>
      <use xlink:href="#m9ea7c25625" x="433.051694" y="243.817719" style="fill: #800000; stroke: #ffffff"/>
     </g>
    </g>
    <g id="text_29">
     <!-- nv -->
     <g transform="translate(447.451694 246.617719) scale(0.08 -0.08)">
      <defs>
       <path id="DejaVuSans-76" d="M 191 3500 
L 800 3500 
L 1894 563 
L 2988 3500 
L 3597 3500 
L 2284 0 
L 1503 0 
L 191 3500 
z
" transform="scale(0.015625)"/>
      </defs>
      <use xlink:href="#DejaVuSans-6e"/>
      <use xlink:href="#DejaVuSans-76" x="63.378906"/>
     </g>
    </g>
   </g>
  </g>
 </g>
 <defs>
  <clipPath id="pa037ebd197">
   <rect x="61.266094" y="29.156719" width="357.12" height="266.112"/>
  </clipPath>
 </defs>
</svg>
