<?xml version="1.0" encoding="utf-8" standalone="no"?>
<!DOCTYPE svg PUBLIC "-//W3C//DTD SVG 1.1//EN"
  "http://www.w3.org/Graphics/SVG/1.1/DTD/svg11.dtd">
<svg xmlns:xlink="http://www.w3.org/1999/xlink" width="397.20375pt" height="49.492913pt" viewBox="0 0 397.20375 49.492913" xmlns="http://www.w3.org/2000/svg" version="1.1">
 <metadata>
  <rdf:RDF xmlns:dc="http://purl.org/dc/elements/1.1/" xmlns:cc="http://creativecommons.org/ns#" xmlns:rdf="http://www.w3.org/1999/02/22-rdf-syntax-ns#">
   <cc:Work>
    <dc:type rdf:resource="http://purl.org/dc/dcmitype/StillImage"/>
    <dc:date>2025-02-17T11:20:14.280505</dc:date>
    <dc:format>image/svg+xml</dc:format>
    <dc:creator>
     <cc:Agent>
      <dc:title>Matplotlib v3.6.2, https://matplotlib.org/</dc:title>
     </cc:Agent>
    </dc:creator>
   </cc:Work>
  </rdf:RDF>
 </metadata>
 <defs>
  <style type="text/css">*{stroke-linejoin: round; stroke-linecap: butt}</style>
 </defs>
 <g id="figure_1">
  <g id="patch_1">
   <path d="M 0 49.492913 
L 397.20375 49.492913 
L 397.20375 0 
L 0 0 
z
" style="fill: #ffffff"/>
  </g>
  <g id="axes_1">
   <g id="legend_1">
    <g id="patch_2">
     <path d="M 9.6 35.353332 
L 387.60375 35.353332 
Q 390.00375 35.353332 390.00375 32.953332 
L 390.00375 16.539582 
Q 390.00375 14.139582 387.60375 14.139582 
L 9.6 14.139582 
Q 7.2 14.139582 7.2 16.539582 
L 7.2 32.953332 
Q 7.2 35.353332 9.6 35.353332 
z
" style="fill: #ffffff; opacity: 0.8; stroke: #cccccc; stroke-linejoin: miter"/>
    </g>
    <g id="line2d_1">
     <path d="M 12 23.857707 
L 24 23.857707 
L 36 23.857707 
" style="fill: none; stroke: #ffffff; stroke-width: 1.5; stroke-linecap: square"/>
     <defs>
      <path id="mfd2c32c35f" d="M 0 9 
C 2.386828 9 4.676219 8.051703 6.363961 6.363961 
C 8.051703 4.676219 9 2.386828 9 0 
C 9 -2.386828 8.051703 -4.676219 6.363961 -6.363961 
C 4.676219 -8.051703 2.386828 -9 0 -9 
C -2.386828 -9 -4.676219 -8.051703 -6.363961 -6.363961 
C -8.051703 -4.676219 -9 -2.386828 -9 0 
C -9 2.386828 -8.051703 4.676219 -6.363961 6.363961 
C -4.676219 8.051703 -2.386828 9 0 9 
z
" style="stroke: #ffffff"/>
     </defs>
     <g>
      <use xlink:href="#mfd2c32c35f" x="24" y="23.857707" style="fill: #882e72; stroke: #ffffff"/>
     </g>
    </g>
    <g id="text_1">
     <!-- n (21) -->
     <g transform="translate(45.6 28.057707) scale(0.12 -0.12)">
      <defs>
       <path id="DejaVuSans-6e" d="M 3513 2113 
L 3513 0 
L 2938 0 
L 2938 2094 
Q 2938 2591 2744 2837 
Q 2550 3084 2163 3084 
Q 1697 3084 1428 2787 
Q 1159 2491 1159 1978 
L 1159 0 
L 581 0 
L 581 3500 
L 1159 3500 
L 1159 2956 
Q 1366 3272 1645 3428 
Q 1925 3584 2291 3584 
Q 2894 3584 3203 3211 
Q 3513 2838 3513 2113 
z
" transform="scale(0.015625)"/>
       <path id="DejaVuSans-20" transform="scale(0.015625)"/>
       <path id="DejaVuSans-28" d="M 1984 4856 
Q 1566 4138 1362 3434 
Q 1159 2731 1159 2009 
Q 1159 1288 1364 580 
Q 1569 -128 1984 -844 
L 1484 -844 
Q 1016 -109 783 600 
Q 550 1309 550 2009 
Q 550 2706 781 3412 
Q 1013 4119 1484 4856 
L 1984 4856 
z
" transform="scale(0.015625)"/>
       <path id="DejaVuSans-32" d="M 1228 531 
L 3431 531 
L 3431 0 
L 469 0 
L 469 531 
Q 828 903 1448 1529 
Q 2069 2156 2228 2338 
Q 2531 2678 2651 2914 
Q 2772 3150 2772 3378 
Q 2772 3750 2511 3984 
Q 2250 4219 1831 4219 
Q 1534 4219 1204 4116 
Q 875 4013 500 3803 
L 500 4441 
Q 881 4594 1212 4672 
Q 1544 4750 1819 4750 
Q 2544 4750 2975 4387 
Q 3406 4025 3406 3419 
Q 3406 3131 3298 2873 
Q 3191 2616 2906 2266 
Q 2828 2175 2409 1742 
Q 1991 1309 1228 531 
z
" transform="scale(0.015625)"/>
       <path id="DejaVuSans-31" d="M 794 531 
L 1825 531 
L 1825 4091 
L 703 3866 
L 703 4441 
L 1819 4666 
L 2450 4666 
L 2450 531 
L 3481 531 
L 3481 0 
L 794 0 
L 794 531 
z
" transform="scale(0.015625)"/>
       <path id="DejaVuSans-29" d="M 513 4856 
L 1013 4856 
Q 1481 4119 1714 3412 
Q 1947 2706 1947 2009 
Q 1947 1309 1714 600 
Q 1481 -109 1013 -844 
L 513 -844 
Q 928 -128 1133 580 
Q 1338 1288 1338 2009 
Q 1338 2731 1133 3434 
Q 928 4138 513 4856 
z
" transform="scale(0.015625)"/>
      </defs>
      <use xlink:href="#DejaVuSans-6e"/>
      <use xlink:href="#DejaVuSans-20" x="63.378906"/>
      <use xlink:href="#DejaVuSans-28" x="95.166016"/>
      <use xlink:href="#DejaVuSans-32" x="134.179688"/>
      <use xlink:href="#DejaVuSans-31" x="197.802734"/>
      <use xlink:href="#DejaVuSans-29" x="261.425781"/>
     </g>
    </g>
    <g id="line2d_2">
     <path d="M 105.6525 23.857707 
L 117.6525 23.857707 
L 129.6525 23.857707 
" style="fill: none; stroke: #ffffff; stroke-width: 1.5; stroke-linecap: square"/>
     <defs>
      <path id="madb2762d88" d="M -0 12.727922 
L 12.727922 0 
L 0 -12.727922 
L -12.727922 -0 
z
" style="stroke: #ffffff; stroke-linejoin: miter"/>
     </defs>
     <g>
      <use xlink:href="#madb2762d88" x="117.6525" y="23.857707" style="fill: #4eb265; stroke: #ffffff; stroke-linejoin: miter"/>
     </g>
    </g>
    <g id="text_2">
     <!-- n3 (21) -->
     <g transform="translate(139.2525 28.057707) scale(0.12 -0.12)">
      <defs>
       <path id="DejaVuSans-33" d="M 2597 2516 
Q 3050 2419 3304 2112 
Q 3559 1806 3559 1356 
Q 3559 666 3084 287 
Q 2609 -91 1734 -91 
Q 1441 -91 1130 -33 
Q 819 25 488 141 
L 488 750 
Q 750 597 1062 519 
Q 1375 441 1716 441 
Q 2309 441 2620 675 
Q 2931 909 2931 1356 
Q 2931 1769 2642 2001 
Q 2353 2234 1838 2234 
L 1294 2234 
L 1294 2753 
L 1863 2753 
Q 2328 2753 2575 2939 
Q 2822 3125 2822 3475 
Q 2822 3834 2567 4026 
Q 2313 4219 1838 4219 
Q 1578 4219 1281 4162 
Q 984 4106 628 3988 
L 628 4550 
Q 988 4650 1302 4700 
Q 1616 4750 1894 4750 
Q 2613 4750 3031 4423 
Q 3450 4097 3450 3541 
Q 3450 3153 3228 2886 
Q 3006 2619 2597 2516 
z
" transform="scale(0.015625)"/>
      </defs>
      <use xlink:href="#DejaVuSans-6e"/>
      <use xlink:href="#DejaVuSans-33" x="63.378906"/>
      <use xlink:href="#DejaVuSans-20" x="127.001953"/>
      <use xlink:href="#DejaVuSans-28" x="158.789062"/>
      <use xlink:href="#DejaVuSans-32" x="197.802734"/>
      <use xlink:href="#DejaVuSans-31" x="261.425781"/>
      <use xlink:href="#DejaVuSans-29" x="325.048828"/>
     </g>
    </g>
    <g id="line2d_3">
     <path d="M 206.94 23.857707 
L 218.94 23.857707 
L 230.94 23.857707 
" style="fill: none; stroke: #ffffff; stroke-width: 1.5; stroke-linecap: square"/>
     <defs>
      <path id="mf15c2b7ba1" d="M 0 -9 
L -9 9 
L 9 9 
z
" style="stroke: #ffffff; stroke-linejoin: miter"/>
     </defs>
     <g>
      <use xlink:href="#mf15c2b7ba1" x="218.94" y="23.857707" style="fill: #f7f056; stroke: #ffffff; stroke-linejoin: miter"/>
     </g>
    </g>
    <g id="text_3">
     <!-- na (41) -->
     <g transform="translate(240.54 28.057707) scale(0.12 -0.12)">
      <defs>
       <path id="DejaVuSans-61" d="M 2194 1759 
Q 1497 1759 1228 1600 
Q 959 1441 959 1056 
Q 959 750 1161 570 
Q 1363 391 1709 391 
Q 2188 391 2477 730 
Q 2766 1069 2766 1631 
L 2766 1759 
L 2194 1759 
z
M 3341 1997 
L 3341 0 
L 2766 0 
L 2766 531 
Q 2569 213 2275 61 
Q 1981 -91 1556 -91 
Q 1019 -91 701 211 
Q 384 513 384 1019 
Q 384 1609 779 1909 
Q 1175 2209 1959 2209 
L 2766 2209 
L 2766 2266 
Q 2766 2663 2505 2880 
Q 2244 3097 1772 3097 
Q 1472 3097 1187 3025 
Q 903 2953 641 2809 
L 641 3341 
Q 956 3463 1253 3523 
Q 1550 3584 1831 3584 
Q 2591 3584 2966 3190 
Q 3341 2797 3341 1997 
z
" transform="scale(0.015625)"/>
       <path id="DejaVuSans-34" d="M 2419 4116 
L 825 1625 
L 2419 1625 
L 2419 4116 
z
M 2253 4666 
L 3047 4666 
L 3047 1625 
L 3713 1625 
L 3713 1100 
L 3047 1100 
L 3047 0 
L 2419 0 
L 2419 1100 
L 313 1100 
L 313 1709 
L 2253 4666 
z
" transform="scale(0.015625)"/>
      </defs>
      <use xlink:href="#DejaVuSans-6e"/>
      <use xlink:href="#DejaVuSans-61" x="63.378906"/>
      <use xlink:href="#DejaVuSans-20" x="124.658203"/>
      <use xlink:href="#DejaVuSans-28" x="156.445312"/>
      <use xlink:href="#DejaVuSans-34" x="195.458984"/>
      <use xlink:href="#DejaVuSans-31" x="259.082031"/>
      <use xlink:href="#DejaVuSans-29" x="322.705078"/>
     </g>
    </g>
    <g id="line2d_4">
     <path d="M 307.94625 23.857707 
L 319.94625 23.857707 
L 331.94625 23.857707 
" style="fill: none; stroke: #ffffff; stroke-width: 1.5; stroke-linecap: square"/>
     <defs>
      <path id="m557891cac3" d="M 0 -9 
L -2.020626 -2.781153 
L -8.559509 -2.781153 
L -3.269441 1.062306 
L -5.290067 7.281153 
L -0 3.437694 
L 5.290067 7.281153 
L 3.269441 1.062306 
L 8.559509 -2.781153 
L 2.020626 -2.781153 
z
" style="stroke: #ffffff; stroke-linejoin: bevel"/>
     </defs>
     <g>
      <use xlink:href="#m557891cac3" x="319.94625" y="23.857707" style="fill: #f1932d; stroke: #ffffff; stroke-linejoin: bevel"/>
     </g>
    </g>
    <g id="text_4">
     <!-- nh (14) -->
     <g transform="translate(341.54625 28.057707) scale(0.12 -0.12)">
      <defs>
       <path id="DejaVuSans-68" d="M 3513 2113 
L 3513 0 
L 2938 0 
L 2938 2094 
Q 2938 2591 2744 2837 
Q 2550 3084 2163 3084 
Q 1697 3084 1428 2787 
Q 1159 2491 1159 1978 
L 1159 0 
L 581 0 
L 581 4863 
L 1159 4863 
L 1159 2956 
Q 1366 3272 1645 3428 
Q 1925 3584 2291 3584 
Q 2894 3584 3203 3211 
Q 3513 2838 3513 2113 
z
" transform="scale(0.015625)"/>
      </defs>
      <use xlink:href="#DejaVuSans-6e"/>
      <use xlink:href="#DejaVuSans-68" x="63.378906"/>
      <use xlink:href="#DejaVuSans-20" x="126.757812"/>
      <use xlink:href="#DejaVuSans-28" x="158.544922"/>
      <use xlink:href="#DejaVuSans-31" x="197.558594"/>
      <use xlink:href="#DejaVuSans-34" x="261.181641"/>
      <use xlink:href="#DejaVuSans-29" x="324.804688"/>
     </g>
    </g>
   </g>
  </g>
 </g>
</svg>
