<?xml version="1.0" encoding="utf-8" standalone="no"?>
<!DOCTYPE svg PUBLIC "-//W3C//DTD SVG 1.1//EN"
  "http://www.w3.org/Graphics/SVG/1.1/DTD/svg11.dtd">
<svg xmlns:xlink="http://www.w3.org/1999/xlink" width="249.174257pt" height="238.88881pt" viewBox="0 0 249.174257 238.88881" xmlns="http://www.w3.org/2000/svg" version="1.1">
 <metadata>
  <rdf:RDF xmlns:dc="http://purl.org/dc/elements/1.1/" xmlns:cc="http://creativecommons.org/ns#" xmlns:rdf="http://www.w3.org/1999/02/22-rdf-syntax-ns#">
   <cc:Work>
    <dc:type rdf:resource="http://purl.org/dc/dcmitype/StillImage"/>
    <dc:date>2025-02-19T15:56:38.764076</dc:date>
    <dc:format>image/svg+xml</dc:format>
    <dc:creator>
     <cc:Agent>
      <dc:title>Matplotlib v3.6.2, https://matplotlib.org/</dc:title>
     </cc:Agent>
    </dc:creator>
   </cc:Work>
  </rdf:RDF>
 </metadata>
 <defs>
  <style type="text/css">*{stroke-linejoin: round; stroke-linecap: butt}</style>
 </defs>
 <g id="figure_1">
  <g id="patch_1">
   <path d="M 0 238.88881 
L 249.174257 238.88881 
L 249.174257 0 
L 0 0 
z
" style="fill: #ffffff"/>
  </g>
  <g id="axes_1">
   <g id="patch_2">
    <path d="M 59.639375 192.96131 
L 210.716849 192.96131 
L 210.716849 41.883837 
L 59.639375 41.883837 
z
" style="fill: #ffffff"/>
   </g>
   <g id="PathCollection_1">
    <defs>
     <path id="mf6f68f7163" d="M 0 -3 
L -3 3 
L 3 3 
z
" style="stroke: #ffffff; stroke-opacity: 0.6; stroke-width: 0.48"/>
    </defs>
    <g clip-path="url(#p1f6f8d68a0)">
     <use xlink:href="#mf6f68f7163" x="104.272512" y="129.661476" style="fill: #f7f056; fill-opacity: 0.6; stroke: #ffffff; stroke-opacity: 0.6; stroke-width: 0.48"/>
     <use xlink:href="#mf6f68f7163" x="192.062171" y="147.282597" style="fill: #f7f056; fill-opacity: 0.6; stroke: #ffffff; stroke-opacity: 0.6; stroke-width: 0.48"/>
     <use xlink:href="#mf6f68f7163" x="168.075103" y="162.1322" style="fill: #f7f056; fill-opacity: 0.6; stroke: #ffffff; stroke-opacity: 0.6; stroke-width: 0.48"/>
     <use xlink:href="#mf6f68f7163" x="187.685372" y="91.962143" style="fill: #f7f056; fill-opacity: 0.6; stroke: #ffffff; stroke-opacity: 0.6; stroke-width: 0.48"/>
     <use xlink:href="#mf6f68f7163" x="151.35857" y="141.284682" style="fill: #f7f056; fill-opacity: 0.6; stroke: #ffffff; stroke-opacity: 0.6; stroke-width: 0.48"/>
     <use xlink:href="#mf6f68f7163" x="174.685007" y="97.998609" style="fill: #f7f056; fill-opacity: 0.6; stroke: #ffffff; stroke-opacity: 0.6; stroke-width: 0.48"/>
     <use xlink:href="#mf6f68f7163" x="103.073313" y="127.786524" style="fill: #f7f056; fill-opacity: 0.6; stroke: #ffffff; stroke-opacity: 0.6; stroke-width: 0.48"/>
     <use xlink:href="#mf6f68f7163" x="190.733251" y="141.337626" style="fill: #f7f056; fill-opacity: 0.6; stroke: #ffffff; stroke-opacity: 0.6; stroke-width: 0.48"/>
     <use xlink:href="#mf6f68f7163" x="172.681572" y="140.406171" style="fill: #f7f056; fill-opacity: 0.6; stroke: #ffffff; stroke-opacity: 0.6; stroke-width: 0.48"/>
     <use xlink:href="#mf6f68f7163" x="181.927452" y="84.975089" style="fill: #f7f056; fill-opacity: 0.6; stroke: #ffffff; stroke-opacity: 0.6; stroke-width: 0.48"/>
     <use xlink:href="#mf6f68f7163" x="110.522553" y="99.170329" style="fill: #f7f056; fill-opacity: 0.6; stroke: #ffffff; stroke-opacity: 0.6; stroke-width: 0.48"/>
     <use xlink:href="#mf6f68f7163" x="179.789583" y="124.4639" style="fill: #f7f056; fill-opacity: 0.6; stroke: #ffffff; stroke-opacity: 0.6; stroke-width: 0.48"/>
     <use xlink:href="#mf6f68f7163" x="166.245393" y="158.587688" style="fill: #f7f056; fill-opacity: 0.6; stroke: #ffffff; stroke-opacity: 0.6; stroke-width: 0.48"/>
     <use xlink:href="#mf6f68f7163" x="160.059608" y="145.842241" style="fill: #f7f056; fill-opacity: 0.6; stroke: #ffffff; stroke-opacity: 0.6; stroke-width: 0.48"/>
     <use xlink:href="#mf6f68f7163" x="104.657929" y="156.239004" style="fill: #f7f056; fill-opacity: 0.6; stroke: #ffffff; stroke-opacity: 0.6; stroke-width: 0.48"/>
     <use xlink:href="#mf6f68f7163" x="176.915659" y="144.633689" style="fill: #f7f056; fill-opacity: 0.6; stroke: #ffffff; stroke-opacity: 0.6; stroke-width: 0.48"/>
     <use xlink:href="#mf6f68f7163" x="181.027652" y="117.474809" style="fill: #f7f056; fill-opacity: 0.6; stroke: #ffffff; stroke-opacity: 0.6; stroke-width: 0.48"/>
     <use xlink:href="#mf6f68f7163" x="89.463695" y="170.671039" style="fill: #f7f056; fill-opacity: 0.6; stroke: #ffffff; stroke-opacity: 0.6; stroke-width: 0.48"/>
     <use xlink:href="#mf6f68f7163" x="175.766713" y="108.691283" style="fill: #f7f056; fill-opacity: 0.6; stroke: #ffffff; stroke-opacity: 0.6; stroke-width: 0.48"/>
     <use xlink:href="#mf6f68f7163" x="170.109522" y="130.869212" style="fill: #f7f056; fill-opacity: 0.6; stroke: #ffffff; stroke-opacity: 0.6; stroke-width: 0.48"/>
     <use xlink:href="#mf6f68f7163" x="88.871106" y="171.319107" style="fill: #f7f056; fill-opacity: 0.6; stroke: #ffffff; stroke-opacity: 0.6; stroke-width: 0.48"/>
     <use xlink:href="#mf6f68f7163" x="177.159143" y="137.414571" style="fill: #f7f056; fill-opacity: 0.6; stroke: #ffffff; stroke-opacity: 0.6; stroke-width: 0.48"/>
     <use xlink:href="#mf6f68f7163" x="165.84117" y="177.659986" style="fill: #f7f056; fill-opacity: 0.6; stroke: #ffffff; stroke-opacity: 0.6; stroke-width: 0.48"/>
     <use xlink:href="#mf6f68f7163" x="154.409792" y="130.454958" style="fill: #f7f056; fill-opacity: 0.6; stroke: #ffffff; stroke-opacity: 0.6; stroke-width: 0.48"/>
     <use xlink:href="#mf6f68f7163" x="186.289378" y="98.569742" style="fill: #f7f056; fill-opacity: 0.6; stroke: #ffffff; stroke-opacity: 0.6; stroke-width: 0.48"/>
     <use xlink:href="#mf6f68f7163" x="169.54482" y="112.006907" style="fill: #f7f056; fill-opacity: 0.6; stroke: #ffffff; stroke-opacity: 0.6; stroke-width: 0.48"/>
     <use xlink:href="#mf6f68f7163" x="180.97243" y="148.563393" style="fill: #f7f056; fill-opacity: 0.6; stroke: #ffffff; stroke-opacity: 0.6; stroke-width: 0.48"/>
     <use xlink:href="#mf6f68f7163" x="184.417031" y="105.085639" style="fill: #f7f056; fill-opacity: 0.6; stroke: #ffffff; stroke-opacity: 0.6; stroke-width: 0.48"/>
     <use xlink:href="#mf6f68f7163" x="188.276482" y="114.696461" style="fill: #f7f056; fill-opacity: 0.6; stroke: #ffffff; stroke-opacity: 0.6; stroke-width: 0.48"/>
     <use xlink:href="#mf6f68f7163" x="189.772175" y="131.988732" style="fill: #f7f056; fill-opacity: 0.6; stroke: #ffffff; stroke-opacity: 0.6; stroke-width: 0.48"/>
     <use xlink:href="#mf6f68f7163" x="190.26241" y="127.233227" style="fill: #f7f056; fill-opacity: 0.6; stroke: #ffffff; stroke-opacity: 0.6; stroke-width: 0.48"/>
     <use xlink:href="#mf6f68f7163" x="182.136696" y="147.320323" style="fill: #f7f056; fill-opacity: 0.6; stroke: #ffffff; stroke-opacity: 0.6; stroke-width: 0.48"/>
     <use xlink:href="#mf6f68f7163" x="188.286269" y="87.232266" style="fill: #f7f056; fill-opacity: 0.6; stroke: #ffffff; stroke-opacity: 0.6; stroke-width: 0.48"/>
     <use xlink:href="#mf6f68f7163" x="187.345781" y="131.815116" style="fill: #f7f056; fill-opacity: 0.6; stroke: #ffffff; stroke-opacity: 0.6; stroke-width: 0.48"/>
     <use xlink:href="#mf6f68f7163" x="182.444522" y="87.753746" style="fill: #f7f056; fill-opacity: 0.6; stroke: #ffffff; stroke-opacity: 0.6; stroke-width: 0.48"/>
     <use xlink:href="#mf6f68f7163" x="155.210475" y="150.913195" style="fill: #f7f056; fill-opacity: 0.6; stroke: #ffffff; stroke-opacity: 0.6; stroke-width: 0.48"/>
     <use xlink:href="#mf6f68f7163" x="172.908771" y="98.619237" style="fill: #f7f056; fill-opacity: 0.6; stroke: #ffffff; stroke-opacity: 0.6; stroke-width: 0.48"/>
     <use xlink:href="#mf6f68f7163" x="186.780316" y="113.500022" style="fill: #f7f056; fill-opacity: 0.6; stroke: #ffffff; stroke-opacity: 0.6; stroke-width: 0.48"/>
     <use xlink:href="#mf6f68f7163" x="193.420785" y="111.670398" style="fill: #f7f056; fill-opacity: 0.6; stroke: #ffffff; stroke-opacity: 0.6; stroke-width: 0.48"/>
     <use xlink:href="#mf6f68f7163" x="188.877277" y="100.101621" style="fill: #f7f056; fill-opacity: 0.6; stroke: #ffffff; stroke-opacity: 0.6; stroke-width: 0.48"/>
     <use xlink:href="#mf6f68f7163" x="156.511726" y="171.312636" style="fill: #f7f056; fill-opacity: 0.6; stroke: #ffffff; stroke-opacity: 0.6; stroke-width: 0.48"/>
    </g>
   </g>
   <g id="PathCollection_2">
    <defs>
     <path id="mfdcc3de4b8" d="M 0 3 
C 0.795609 3 1.55874 2.683901 2.12132 2.12132 
C 2.683901 1.55874 3 0.795609 3 0 
C 3 -0.795609 2.683901 -1.55874 2.12132 -2.12132 
C 1.55874 -2.683901 0.795609 -3 0 -3 
C -0.795609 -3 -1.55874 -2.683901 -2.12132 -2.12132 
C -2.683901 -1.55874 -3 -0.795609 -3 0 
C -3 0.795609 -2.683901 1.55874 -2.12132 2.12132 
C -1.55874 2.683901 -0.795609 3 0 3 
z
" style="stroke: #ffffff; stroke-opacity: 0.6; stroke-width: 0.48"/>
    </defs>
    <g clip-path="url(#p1f6f8d68a0)">
     <use xlink:href="#mfdcc3de4b8" x="75.562046" y="103.055197" style="fill: #882e72; fill-opacity: 0.6; stroke: #ffffff; stroke-opacity: 0.6; stroke-width: 0.48"/>
     <use xlink:href="#mfdcc3de4b8" x="107.186131" y="115.976795" style="fill: #882e72; fill-opacity: 0.6; stroke: #ffffff; stroke-opacity: 0.6; stroke-width: 0.48"/>
     <use xlink:href="#mfdcc3de4b8" x="104.209159" y="109.920675" style="fill: #882e72; fill-opacity: 0.6; stroke: #ffffff; stroke-opacity: 0.6; stroke-width: 0.48"/>
     <use xlink:href="#mfdcc3de4b8" x="103.38257" y="109.865753" style="fill: #882e72; fill-opacity: 0.6; stroke: #ffffff; stroke-opacity: 0.6; stroke-width: 0.48"/>
     <use xlink:href="#mfdcc3de4b8" x="93.812361" y="96.104764" style="fill: #882e72; fill-opacity: 0.6; stroke: #ffffff; stroke-opacity: 0.6; stroke-width: 0.48"/>
     <use xlink:href="#mfdcc3de4b8" x="76.826394" y="107.459913" style="fill: #882e72; fill-opacity: 0.6; stroke: #ffffff; stroke-opacity: 0.6; stroke-width: 0.48"/>
     <use xlink:href="#mfdcc3de4b8" x="112.192598" y="134.334692" style="fill: #882e72; fill-opacity: 0.6; stroke: #ffffff; stroke-opacity: 0.6; stroke-width: 0.48"/>
     <use xlink:href="#mfdcc3de4b8" x="76.995657" y="108.069251" style="fill: #882e72; fill-opacity: 0.6; stroke: #ffffff; stroke-opacity: 0.6; stroke-width: 0.48"/>
     <use xlink:href="#mfdcc3de4b8" x="78.123372" y="124.259989" style="fill: #882e72; fill-opacity: 0.6; stroke: #ffffff; stroke-opacity: 0.6; stroke-width: 0.48"/>
     <use xlink:href="#mfdcc3de4b8" x="85.882921" y="90.252952" style="fill: #882e72; fill-opacity: 0.6; stroke: #ffffff; stroke-opacity: 0.6; stroke-width: 0.48"/>
     <use xlink:href="#mfdcc3de4b8" x="102.668988" y="122.353838" style="fill: #882e72; fill-opacity: 0.6; stroke: #ffffff; stroke-opacity: 0.6; stroke-width: 0.48"/>
     <use xlink:href="#mfdcc3de4b8" x="116.349082" y="117.064865" style="fill: #882e72; fill-opacity: 0.6; stroke: #ffffff; stroke-opacity: 0.6; stroke-width: 0.48"/>
     <use xlink:href="#mfdcc3de4b8" x="100.961833" y="119.732685" style="fill: #882e72; fill-opacity: 0.6; stroke: #ffffff; stroke-opacity: 0.6; stroke-width: 0.48"/>
     <use xlink:href="#mfdcc3de4b8" x="102.348114" y="97.856553" style="fill: #882e72; fill-opacity: 0.6; stroke: #ffffff; stroke-opacity: 0.6; stroke-width: 0.48"/>
     <use xlink:href="#mfdcc3de4b8" x="81.926129" y="109.898489" style="fill: #882e72; fill-opacity: 0.6; stroke: #ffffff; stroke-opacity: 0.6; stroke-width: 0.48"/>
     <use xlink:href="#mfdcc3de4b8" x="75.449405" y="103.144722" style="fill: #882e72; fill-opacity: 0.6; stroke: #ffffff; stroke-opacity: 0.6; stroke-width: 0.48"/>
     <use xlink:href="#mfdcc3de4b8" x="103.629672" y="129.107424" style="fill: #882e72; fill-opacity: 0.6; stroke: #ffffff; stroke-opacity: 0.6; stroke-width: 0.48"/>
     <use xlink:href="#mfdcc3de4b8" x="87.762897" y="139.283291" style="fill: #882e72; fill-opacity: 0.6; stroke: #ffffff; stroke-opacity: 0.6; stroke-width: 0.48"/>
     <use xlink:href="#mfdcc3de4b8" x="71.287463" y="105.770375" style="fill: #882e72; fill-opacity: 0.6; stroke: #ffffff; stroke-opacity: 0.6; stroke-width: 0.48"/>
     <use xlink:href="#mfdcc3de4b8" x="70.483648" y="107.234247" style="fill: #882e72; fill-opacity: 0.6; stroke: #ffffff; stroke-opacity: 0.6; stroke-width: 0.48"/>
     <use xlink:href="#mfdcc3de4b8" x="82.33842" y="97.670079" style="fill: #882e72; fill-opacity: 0.6; stroke: #ffffff; stroke-opacity: 0.6; stroke-width: 0.48"/>
    </g>
   </g>
   <g id="PathCollection_3">
    <defs>
     <path id="m47ddd55e5c" d="M -0 4.242641 
L 4.242641 0 
L 0 -4.242641 
L -4.242641 -0 
z
" style="stroke: #ffffff; stroke-opacity: 0.6; stroke-width: 0.48"/>
    </defs>
    <g clip-path="url(#p1f6f8d68a0)">
     <use xlink:href="#m47ddd55e5c" x="114.877482" y="152.383798" style="fill: #4eb265; fill-opacity: 0.6; stroke: #ffffff; stroke-opacity: 0.6; stroke-width: 0.48"/>
     <use xlink:href="#m47ddd55e5c" x="113.479328" y="157.406903" style="fill: #4eb265; fill-opacity: 0.6; stroke: #ffffff; stroke-opacity: 0.6; stroke-width: 0.48"/>
     <use xlink:href="#m47ddd55e5c" x="124.829043" y="140.501856" style="fill: #4eb265; fill-opacity: 0.6; stroke: #ffffff; stroke-opacity: 0.6; stroke-width: 0.48"/>
     <use xlink:href="#m47ddd55e5c" x="103.345022" y="125.188044" style="fill: #4eb265; fill-opacity: 0.6; stroke: #ffffff; stroke-opacity: 0.6; stroke-width: 0.48"/>
     <use xlink:href="#m47ddd55e5c" x="109.625872" y="149.857716" style="fill: #4eb265; fill-opacity: 0.6; stroke: #ffffff; stroke-opacity: 0.6; stroke-width: 0.48"/>
     <use xlink:href="#m47ddd55e5c" x="95.817219" y="163.694943" style="fill: #4eb265; fill-opacity: 0.6; stroke: #ffffff; stroke-opacity: 0.6; stroke-width: 0.48"/>
     <use xlink:href="#m47ddd55e5c" x="97.746707" y="167.808253" style="fill: #4eb265; fill-opacity: 0.6; stroke: #ffffff; stroke-opacity: 0.6; stroke-width: 0.48"/>
     <use xlink:href="#m47ddd55e5c" x="96.817768" y="163.558723" style="fill: #4eb265; fill-opacity: 0.6; stroke: #ffffff; stroke-opacity: 0.6; stroke-width: 0.48"/>
     <use xlink:href="#m47ddd55e5c" x="98.018661" y="165.584587" style="fill: #4eb265; fill-opacity: 0.6; stroke: #ffffff; stroke-opacity: 0.6; stroke-width: 0.48"/>
     <use xlink:href="#m47ddd55e5c" x="97.981475" y="162.588685" style="fill: #4eb265; fill-opacity: 0.6; stroke: #ffffff; stroke-opacity: 0.6; stroke-width: 0.48"/>
     <use xlink:href="#m47ddd55e5c" x="97.789888" y="167.144817" style="fill: #4eb265; fill-opacity: 0.6; stroke: #ffffff; stroke-opacity: 0.6; stroke-width: 0.48"/>
     <use xlink:href="#m47ddd55e5c" x="119.015947" y="134.415492" style="fill: #4eb265; fill-opacity: 0.6; stroke: #ffffff; stroke-opacity: 0.6; stroke-width: 0.48"/>
     <use xlink:href="#m47ddd55e5c" x="102.47237" y="158.65477" style="fill: #4eb265; fill-opacity: 0.6; stroke: #ffffff; stroke-opacity: 0.6; stroke-width: 0.48"/>
     <use xlink:href="#m47ddd55e5c" x="101.643451" y="166.923928" style="fill: #4eb265; fill-opacity: 0.6; stroke: #ffffff; stroke-opacity: 0.6; stroke-width: 0.48"/>
     <use xlink:href="#m47ddd55e5c" x="82.536092" y="152.93391" style="fill: #4eb265; fill-opacity: 0.6; stroke: #ffffff; stroke-opacity: 0.6; stroke-width: 0.48"/>
     <use xlink:href="#m47ddd55e5c" x="103.500323" y="112.309235" style="fill: #4eb265; fill-opacity: 0.6; stroke: #ffffff; stroke-opacity: 0.6; stroke-width: 0.48"/>
     <use xlink:href="#m47ddd55e5c" x="97.617117" y="105.539927" style="fill: #4eb265; fill-opacity: 0.6; stroke: #ffffff; stroke-opacity: 0.6; stroke-width: 0.48"/>
     <use xlink:href="#m47ddd55e5c" x="93.812278" y="120.52654" style="fill: #4eb265; fill-opacity: 0.6; stroke: #ffffff; stroke-opacity: 0.6; stroke-width: 0.48"/>
     <use xlink:href="#m47ddd55e5c" x="110.591538" y="138.274919" style="fill: #4eb265; fill-opacity: 0.6; stroke: #ffffff; stroke-opacity: 0.6; stroke-width: 0.48"/>
     <use xlink:href="#m47ddd55e5c" x="112.553123" y="163.683311" style="fill: #4eb265; fill-opacity: 0.6; stroke: #ffffff; stroke-opacity: 0.6; stroke-width: 0.48"/>
     <use xlink:href="#m47ddd55e5c" x="111.138153" y="148.322771" style="fill: #4eb265; fill-opacity: 0.6; stroke: #ffffff; stroke-opacity: 0.6; stroke-width: 0.48"/>
    </g>
   </g>
   <g id="PathCollection_4">
    <defs>
     <path id="m7a9c115386" d="M 0 -3 
L -0.673542 -0.927051 
L -2.85317 -0.927051 
L -1.089814 0.354102 
L -1.763356 2.427051 
L -0 1.145898 
L 1.763356 2.427051 
L 1.089814 0.354102 
L 2.85317 -0.927051 
L 0.673542 -0.927051 
z
" style="stroke: #ffffff; stroke-opacity: 0.6; stroke-width: 0.48"/>
    </defs>
    <g clip-path="url(#p1f6f8d68a0)">
     <use xlink:href="#m7a9c115386" x="84.49282" y="166.827003" style="fill: #dc050c; fill-opacity: 0.6; stroke: #ffffff; stroke-opacity: 0.6; stroke-width: 0.48"/>
     <use xlink:href="#m7a9c115386" x="97.909023" y="146.779049" style="fill: #dc050c; fill-opacity: 0.6; stroke: #ffffff; stroke-opacity: 0.6; stroke-width: 0.48"/>
     <use xlink:href="#m7a9c115386" x="96.713457" y="146.499452" style="fill: #dc050c; fill-opacity: 0.6; stroke: #ffffff; stroke-opacity: 0.6; stroke-width: 0.48"/>
     <use xlink:href="#m7a9c115386" x="86.164181" y="163.369266" style="fill: #dc050c; fill-opacity: 0.6; stroke: #ffffff; stroke-opacity: 0.6; stroke-width: 0.48"/>
     <use xlink:href="#m7a9c115386" x="105.855503" y="129.798591" style="fill: #dc050c; fill-opacity: 0.6; stroke: #ffffff; stroke-opacity: 0.6; stroke-width: 0.48"/>
     <use xlink:href="#m7a9c115386" x="98.884463" y="57.115522" style="fill: #dc050c; fill-opacity: 0.6; stroke: #ffffff; stroke-opacity: 0.6; stroke-width: 0.48"/>
     <use xlink:href="#m7a9c115386" x="95.859907" y="61.517924" style="fill: #dc050c; fill-opacity: 0.6; stroke: #ffffff; stroke-opacity: 0.6; stroke-width: 0.48"/>
     <use xlink:href="#m7a9c115386" x="97.733386" y="52.728109" style="fill: #dc050c; fill-opacity: 0.6; stroke: #ffffff; stroke-opacity: 0.6; stroke-width: 0.48"/>
     <use xlink:href="#m7a9c115386" x="99.158609" y="56.672751" style="fill: #dc050c; fill-opacity: 0.6; stroke: #ffffff; stroke-opacity: 0.6; stroke-width: 0.48"/>
     <use xlink:href="#m7a9c115386" x="93.497301" y="72.854394" style="fill: #dc050c; fill-opacity: 0.6; stroke: #ffffff; stroke-opacity: 0.6; stroke-width: 0.48"/>
     <use xlink:href="#m7a9c115386" x="109.91021" y="158.010224" style="fill: #dc050c; fill-opacity: 0.6; stroke: #ffffff; stroke-opacity: 0.6; stroke-width: 0.48"/>
     <use xlink:href="#m7a9c115386" x="88.919353" y="164.688379" style="fill: #dc050c; fill-opacity: 0.6; stroke: #ffffff; stroke-opacity: 0.6; stroke-width: 0.48"/>
     <use xlink:href="#m7a9c115386" x="98.34992" y="73.983548" style="fill: #dc050c; fill-opacity: 0.6; stroke: #ffffff; stroke-opacity: 0.6; stroke-width: 0.48"/>
     <use xlink:href="#m7a9c115386" x="91.513266" y="58.600703" style="fill: #dc050c; fill-opacity: 0.6; stroke: #ffffff; stroke-opacity: 0.6; stroke-width: 0.48"/>
    </g>
   </g>
   <g id="matplotlib.axis_1">
    <g id="xtick_1">
     <g id="line2d_1">
      <defs>
       <path id="mb68b20b956" d="M 0 0 
L 0 8 
" style="stroke: #000000"/>
      </defs>
      <g>
       <use xlink:href="#mb68b20b956" x="76.976959" y="192.96131" style="stroke: #000000"/>
      </g>
     </g>
     <g id="text_1">
      <!-- −10 -->
      <g transform="translate(64.314147 213.579435) scale(0.12 -0.12)">
       <defs>
        <path id="DejaVuSans-2212" d="M 678 2272 
L 4684 2272 
L 4684 1741 
L 678 1741 
L 678 2272 
z
" transform="scale(0.015625)"/>
        <path id="DejaVuSans-31" d="M 794 531 
L 1825 531 
L 1825 4091 
L 703 3866 
L 703 4441 
L 1819 4666 
L 2450 4666 
L 2450 531 
L 3481 531 
L 3481 0 
L 794 0 
L 794 531 
z
" transform="scale(0.015625)"/>
        <path id="DejaVuSans-30" d="M 2034 4250 
Q 1547 4250 1301 3770 
Q 1056 3291 1056 2328 
Q 1056 1369 1301 889 
Q 1547 409 2034 409 
Q 2525 409 2770 889 
Q 3016 1369 3016 2328 
Q 3016 3291 2770 3770 
Q 2525 4250 2034 4250 
z
M 2034 4750 
Q 2819 4750 3233 4129 
Q 3647 3509 3647 2328 
Q 3647 1150 3233 529 
Q 2819 -91 2034 -91 
Q 1250 -91 836 529 
Q 422 1150 422 2328 
Q 422 3509 836 4129 
Q 1250 4750 2034 4750 
z
" transform="scale(0.015625)"/>
       </defs>
       <use xlink:href="#DejaVuSans-2212"/>
       <use xlink:href="#DejaVuSans-31" x="83.789062"/>
       <use xlink:href="#DejaVuSans-30" x="147.412109"/>
      </g>
     </g>
    </g>
    <g id="xtick_2">
     <g id="line2d_2">
      <g>
       <use xlink:href="#mb68b20b956" x="126.292787" y="192.96131" style="stroke: #000000"/>
      </g>
     </g>
     <g id="text_2">
      <!-- 0 -->
      <g transform="translate(122.475287 213.579435) scale(0.12 -0.12)">
       <use xlink:href="#DejaVuSans-30"/>
      </g>
     </g>
    </g>
    <g id="xtick_3">
     <g id="line2d_3">
      <g>
       <use xlink:href="#mb68b20b956" x="175.608614" y="192.96131" style="stroke: #000000"/>
      </g>
     </g>
     <g id="text_3">
      <!-- 10 -->
      <g transform="translate(167.973614 213.579435) scale(0.12 -0.12)">
       <use xlink:href="#DejaVuSans-31"/>
       <use xlink:href="#DejaVuSans-30" x="63.623047"/>
      </g>
     </g>
    </g>
    <g id="text_4">
     <!-- PC 1 (13.27%) -->
     <g transform="translate(92.179674 229.193185) scale(0.12 -0.12)">
      <defs>
       <path id="DejaVuSans-50" d="M 1259 4147 
L 1259 2394 
L 2053 2394 
Q 2494 2394 2734 2622 
Q 2975 2850 2975 3272 
Q 2975 3691 2734 3919 
Q 2494 4147 2053 4147 
L 1259 4147 
z
M 628 4666 
L 2053 4666 
Q 2838 4666 3239 4311 
Q 3641 3956 3641 3272 
Q 3641 2581 3239 2228 
Q 2838 1875 2053 1875 
L 1259 1875 
L 1259 0 
L 628 0 
L 628 4666 
z
" transform="scale(0.015625)"/>
       <path id="DejaVuSans-43" d="M 4122 4306 
L 4122 3641 
Q 3803 3938 3442 4084 
Q 3081 4231 2675 4231 
Q 1875 4231 1450 3742 
Q 1025 3253 1025 2328 
Q 1025 1406 1450 917 
Q 1875 428 2675 428 
Q 3081 428 3442 575 
Q 3803 722 4122 1019 
L 4122 359 
Q 3791 134 3420 21 
Q 3050 -91 2638 -91 
Q 1578 -91 968 557 
Q 359 1206 359 2328 
Q 359 3453 968 4101 
Q 1578 4750 2638 4750 
Q 3056 4750 3426 4639 
Q 3797 4528 4122 4306 
z
" transform="scale(0.015625)"/>
       <path id="DejaVuSans-20" transform="scale(0.015625)"/>
       <path id="DejaVuSans-28" d="M 1984 4856 
Q 1566 4138 1362 3434 
Q 1159 2731 1159 2009 
Q 1159 1288 1364 580 
Q 1569 -128 1984 -844 
L 1484 -844 
Q 1016 -109 783 600 
Q 550 1309 550 2009 
Q 550 2706 781 3412 
Q 1013 4119 1484 4856 
L 1984 4856 
z
" transform="scale(0.015625)"/>
       <path id="DejaVuSans-33" d="M 2597 2516 
Q 3050 2419 3304 2112 
Q 3559 1806 3559 1356 
Q 3559 666 3084 287 
Q 2609 -91 1734 -91 
Q 1441 -91 1130 -33 
Q 819 25 488 141 
L 488 750 
Q 750 597 1062 519 
Q 1375 441 1716 441 
Q 2309 441 2620 675 
Q 2931 909 2931 1356 
Q 2931 1769 2642 2001 
Q 2353 2234 1838 2234 
L 1294 2234 
L 1294 2753 
L 1863 2753 
Q 2328 2753 2575 2939 
Q 2822 3125 2822 3475 
Q 2822 3834 2567 4026 
Q 2313 4219 1838 4219 
Q 1578 4219 1281 4162 
Q 984 4106 628 3988 
L 628 4550 
Q 988 4650 1302 4700 
Q 1616 4750 1894 4750 
Q 2613 4750 3031 4423 
Q 3450 4097 3450 3541 
Q 3450 3153 3228 2886 
Q 3006 2619 2597 2516 
z
" transform="scale(0.015625)"/>
       <path id="DejaVuSans-2e" d="M 684 794 
L 1344 794 
L 1344 0 
L 684 0 
L 684 794 
z
" transform="scale(0.015625)"/>
       <path id="DejaVuSans-32" d="M 1228 531 
L 3431 531 
L 3431 0 
L 469 0 
L 469 531 
Q 828 903 1448 1529 
Q 2069 2156 2228 2338 
Q 2531 2678 2651 2914 
Q 2772 3150 2772 3378 
Q 2772 3750 2511 3984 
Q 2250 4219 1831 4219 
Q 1534 4219 1204 4116 
Q 875 4013 500 3803 
L 500 4441 
Q 881 4594 1212 4672 
Q 1544 4750 1819 4750 
Q 2544 4750 2975 4387 
Q 3406 4025 3406 3419 
Q 3406 3131 3298 2873 
Q 3191 2616 2906 2266 
Q 2828 2175 2409 1742 
Q 1991 1309 1228 531 
z
" transform="scale(0.015625)"/>
       <path id="DejaVuSans-37" d="M 525 4666 
L 3525 4666 
L 3525 4397 
L 1831 0 
L 1172 0 
L 2766 4134 
L 525 4134 
L 525 4666 
z
" transform="scale(0.015625)"/>
       <path id="DejaVuSans-25" d="M 4653 2053 
Q 4381 2053 4226 1822 
Q 4072 1591 4072 1178 
Q 4072 772 4226 539 
Q 4381 306 4653 306 
Q 4919 306 5073 539 
Q 5228 772 5228 1178 
Q 5228 1588 5073 1820 
Q 4919 2053 4653 2053 
z
M 4653 2450 
Q 5147 2450 5437 2106 
Q 5728 1763 5728 1178 
Q 5728 594 5436 251 
Q 5144 -91 4653 -91 
Q 4153 -91 3862 251 
Q 3572 594 3572 1178 
Q 3572 1766 3864 2108 
Q 4156 2450 4653 2450 
z
M 1428 4353 
Q 1159 4353 1004 4120 
Q 850 3888 850 3481 
Q 850 3069 1003 2837 
Q 1156 2606 1428 2606 
Q 1700 2606 1854 2837 
Q 2009 3069 2009 3481 
Q 2009 3884 1853 4118 
Q 1697 4353 1428 4353 
z
M 4250 4750 
L 4750 4750 
L 1831 -91 
L 1331 -91 
L 4250 4750 
z
M 1428 4750 
Q 1922 4750 2215 4408 
Q 2509 4066 2509 3481 
Q 2509 2891 2217 2550 
Q 1925 2209 1428 2209 
Q 931 2209 642 2551 
Q 353 2894 353 3481 
Q 353 4063 643 4406 
Q 934 4750 1428 4750 
z
" transform="scale(0.015625)"/>
       <path id="DejaVuSans-29" d="M 513 4856 
L 1013 4856 
Q 1481 4119 1714 3412 
Q 1947 2706 1947 2009 
Q 1947 1309 1714 600 
Q 1481 -109 1013 -844 
L 513 -844 
Q 928 -128 1133 580 
Q 1338 1288 1338 2009 
Q 1338 2731 1133 3434 
Q 928 4138 513 4856 
z
" transform="scale(0.015625)"/>
      </defs>
      <use xlink:href="#DejaVuSans-50"/>
      <use xlink:href="#DejaVuSans-43" x="60.302734"/>
      <use xlink:href="#DejaVuSans-20" x="130.126953"/>
      <use xlink:href="#DejaVuSans-31" x="161.914062"/>
      <use xlink:href="#DejaVuSans-20" x="225.537109"/>
      <use xlink:href="#DejaVuSans-28" x="257.324219"/>
      <use xlink:href="#DejaVuSans-31" x="296.337891"/>
      <use xlink:href="#DejaVuSans-33" x="359.960938"/>
      <use xlink:href="#DejaVuSans-2e" x="423.583984"/>
      <use xlink:href="#DejaVuSans-32" x="455.371094"/>
      <use xlink:href="#DejaVuSans-37" x="518.994141"/>
      <use xlink:href="#DejaVuSans-25" x="582.617188"/>
      <use xlink:href="#DejaVuSans-29" x="677.636719"/>
     </g>
    </g>
   </g>
   <g id="matplotlib.axis_2">
    <g id="ytick_1">
     <g id="line2d_4">
      <defs>
       <path id="m4d67383793" d="M 0 0 
L -8 0 
" style="stroke: #000000"/>
      </defs>
      <g>
       <use xlink:href="#m4d67383793" x="59.639375" y="175.623726" style="stroke: #000000"/>
      </g>
     </g>
     <g id="text_5">
      <!-- −10 -->
      <g transform="translate(22.81375 180.182789) scale(0.12 -0.12)">
       <use xlink:href="#DejaVuSans-2212"/>
       <use xlink:href="#DejaVuSans-31" x="83.789062"/>
       <use xlink:href="#DejaVuSans-30" x="147.412109"/>
      </g>
     </g>
    </g>
    <g id="ytick_2">
     <g id="line2d_5">
      <g>
       <use xlink:href="#m4d67383793" x="59.639375" y="126.307899" style="stroke: #000000"/>
      </g>
     </g>
     <g id="text_6">
      <!-- 0 -->
      <g transform="translate(40.504375 130.866961) scale(0.12 -0.12)">
       <use xlink:href="#DejaVuSans-30"/>
      </g>
     </g>
    </g>
    <g id="ytick_3">
     <g id="line2d_6">
      <g>
       <use xlink:href="#m4d67383793" x="59.639375" y="76.992071" style="stroke: #000000"/>
      </g>
     </g>
     <g id="text_7">
      <!-- 10 -->
      <g transform="translate(32.869375 81.551134) scale(0.12 -0.12)">
       <use xlink:href="#DejaVuSans-31"/>
       <use xlink:href="#DejaVuSans-30" x="63.623047"/>
      </g>
     </g>
    </g>
    <g id="text_8">
     <!-- PC 2 (7.41%) -->
     <g transform="translate(16.318125 156.603511) rotate(-90) scale(0.12 -0.12)">
      <defs>
       <path id="DejaVuSans-34" d="M 2419 4116 
L 825 1625 
L 2419 1625 
L 2419 4116 
z
M 2253 4666 
L 3047 4666 
L 3047 1625 
L 3713 1625 
L 3713 1100 
L 3047 1100 
L 3047 0 
L 2419 0 
L 2419 1100 
L 313 1100 
L 313 1709 
L 2253 4666 
z
" transform="scale(0.015625)"/>
      </defs>
      <use xlink:href="#DejaVuSans-50"/>
      <use xlink:href="#DejaVuSans-43" x="60.302734"/>
      <use xlink:href="#DejaVuSans-20" x="130.126953"/>
      <use xlink:href="#DejaVuSans-32" x="161.914062"/>
      <use xlink:href="#DejaVuSans-20" x="225.537109"/>
      <use xlink:href="#DejaVuSans-28" x="257.324219"/>
      <use xlink:href="#DejaVuSans-37" x="296.337891"/>
      <use xlink:href="#DejaVuSans-2e" x="359.960938"/>
      <use xlink:href="#DejaVuSans-34" x="391.748047"/>
      <use xlink:href="#DejaVuSans-31" x="455.371094"/>
      <use xlink:href="#DejaVuSans-25" x="518.994141"/>
      <use xlink:href="#DejaVuSans-29" x="614.013672"/>
     </g>
    </g>
   </g>
   <g id="patch_3">
    <path d="M 59.639375 192.96131 
L 59.639375 41.883837 
" style="fill: none; stroke: #000000; stroke-width: 2; stroke-linejoin: miter; stroke-linecap: square"/>
   </g>
   <g id="patch_4">
    <path d="M 59.639375 192.96131 
L 210.716849 192.96131 
" style="fill: none; stroke: #000000; stroke-width: 2; stroke-linejoin: miter; stroke-linecap: square"/>
   </g>
  </g>
  <g id="axes_2">
   <g id="patch_5">
    <path d="M 59.639375 34.083555 
L 210.716849 34.083555 
L 210.716849 7.2 
L 59.639375 7.2 
z
" style="fill: #ffffff"/>
   </g>
   <g id="matplotlib.axis_3">
    <g id="xtick_4">
     <g id="line2d_7">
      <defs>
       <path id="m4f98ee1048" d="M 0 0 
L 0 3.5 
" style="stroke: #000000; stroke-width: 0.8"/>
      </defs>
      <g>
       <use xlink:href="#m4f98ee1048" x="76.976959" y="34.083555" style="stroke: #000000; stroke-width: 0.8"/>
      </g>
     </g>
    </g>
    <g id="xtick_5">
     <g id="line2d_8">
      <g>
       <use xlink:href="#m4f98ee1048" x="126.292787" y="34.083555" style="stroke: #000000; stroke-width: 0.8"/>
      </g>
     </g>
    </g>
    <g id="xtick_6">
     <g id="line2d_9">
      <g>
       <use xlink:href="#m4f98ee1048" x="175.608614" y="34.083555" style="stroke: #000000; stroke-width: 0.8"/>
      </g>
     </g>
    </g>
   </g>
   <g id="matplotlib.axis_4">
    <g id="ytick_4"/>
    <g id="ytick_5"/>
   </g>
   <g id="line2d_10">
    <path d="M 46.169919 34.076736 
L 63.351512 33.945013 
L 72.896841 33.660784 
L 84.351236 33.070102 
L 94.851099 32.568168 
L 101.532829 32.468923 
L 108.21456 32.610034 
L 118.714422 33.126402 
L 126.350685 33.384314 
L 132.077883 33.328751 
L 136.850547 33.062679 
L 141.623212 32.581539 
L 146.395877 31.89211 
L 152.123074 30.822796 
L 158.804805 29.327122 
L 170.2592 26.710907 
L 174.077332 26.078807 
L 177.895464 25.710151 
L 180.759062 25.651512 
L 183.622661 25.800437 
L 186.48626 26.158525 
L 189.349859 26.709323 
L 193.16799 27.683299 
L 199.849721 29.710798 
L 205.576919 31.347908 
L 209.39505 32.229404 
L 213.213182 32.903197 
L 217.031314 33.378603 
L 221.803978 33.745711 
L 227.531176 33.961547 
L 236.121972 34.063586 
L 236.121972 34.063586 
" clip-path="url(#p2a2d7bcc31)" style="fill: none; stroke: #f7f056; stroke-opacity: 0.6; stroke-width: 1.5; stroke-linecap: square"/>
   </g>
   <g id="line2d_11">
    <path d="M 46.669199 34.057316 
L 52.307048 33.884383 
L 55.595793 33.555543 
L 57.944897 33.116209 
L 60.294001 32.437885 
L 62.643105 31.479644 
L 64.992209 30.244864 
L 68.280954 28.193509 
L 72.03952 25.875753 
L 73.918803 24.955593 
L 75.798086 24.304471 
L 77.207548 24.02098 
L 78.617011 23.918202 
L 80.496294 24.04248 
L 82.375577 24.408889 
L 85.664322 25.352397 
L 88.483247 26.099343 
L 90.36253 26.400884 
L 92.241813 26.482067 
L 94.121096 26.338141 
L 96.4702 25.911864 
L 101.168407 24.953926 
L 103.04769 24.831102 
L 104.926973 24.970266 
L 106.806257 25.38661 
L 108.68554 26.049958 
L 111.034643 27.128921 
L 119.021596 31.065352 
L 121.840521 32.098664 
L 124.659445 32.870341 
L 127.47837 33.400865 
L 130.767115 33.773157 
L 134.995502 33.991801 
L 140.163531 34.068824 
L 140.163531 34.068824 
" clip-path="url(#p2a2d7bcc31)" style="fill: none; stroke: #882e72; stroke-opacity: 0.6; stroke-width: 1.5; stroke-linecap: square"/>
   </g>
   <g id="line2d_12">
    <path d="M 66.428549 34.065514 
L 71.295908 33.901732 
L 74.291206 33.580676 
L 77.660916 32.975574 
L 84.774749 31.424732 
L 86.272398 30.767836 
L 87.395635 30.040869 
L 88.518871 29.062792 
L 89.642108 27.814593 
L 91.139757 25.7644 
L 96.007116 18.49734 
L 97.130353 17.413775 
L 97.879177 16.923882 
L 98.628002 16.630021 
L 99.376826 16.528628 
L 100.125651 16.605795 
L 101.248888 17.004266 
L 102.746537 17.895687 
L 106.116247 20.121115 
L 107.613896 20.821249 
L 109.860369 21.554275 
L 112.106843 22.316734 
L 113.604492 23.055379 
L 115.102141 24.026962 
L 117.348614 25.792334 
L 120.718324 28.441038 
L 122.964798 29.867344 
L 125.211271 31.00763 
L 127.832157 32.083544 
L 130.453043 32.931047 
L 133.073929 33.522349 
L 135.694814 33.85961 
L 139.064525 34.033629 
L 140.936586 34.065111 
L 140.936586 34.065111 
" clip-path="url(#p2a2d7bcc31)" style="fill: none; stroke: #4eb265; stroke-opacity: 0.6; stroke-width: 1.5; stroke-linecap: square"/>
   </g>
   <g id="line2d_13">
    <path d="M 72.200263 34.037683 
L 74.461683 33.863152 
L 75.969296 33.548001 
L 77.22564 33.0629 
L 78.481985 32.295775 
L 79.738329 31.198199 
L 80.994673 29.778138 
L 82.753555 27.413698 
L 85.517513 23.674646 
L 87.527664 21.376276 
L 89.537815 19.074436 
L 90.794159 17.320935 
L 92.301772 14.759757 
L 94.814461 10.24987 
L 95.568267 9.262664 
L 96.322074 8.643157 
L 96.824612 8.479845 
L 97.327149 8.537977 
L 97.829687 8.826103 
L 98.332225 9.342743 
L 99.086031 10.517831 
L 100.091107 12.697243 
L 101.849989 17.357119 
L 103.357602 21.136905 
L 104.362677 23.168128 
L 105.367753 24.737691 
L 106.372828 25.903674 
L 107.629173 26.977778 
L 115.418507 32.577823 
L 116.926121 33.263131 
L 118.433734 33.688023 
L 120.192616 33.939597 
L 122.202767 34.046987 
L 122.202767 34.046987 
" clip-path="url(#p2a2d7bcc31)" style="fill: none; stroke: #dc050c; stroke-opacity: 0.6; stroke-width: 1.5; stroke-linecap: square"/>
   </g>
   <g id="patch_6">
    <path d="M 59.639375 34.083555 
L 210.716849 34.083555 
" style="fill: none; stroke: #000000; stroke-width: 0.8; stroke-linejoin: miter; stroke-linecap: square"/>
   </g>
  </g>
  <g id="axes_3">
   <g id="patch_7">
    <path d="M 215.926417 195.384882 
L 241.974257 195.384882 
L 241.974257 39.460265 
L 215.926417 39.460265 
z
" style="fill: #ffffff"/>
   </g>
   <g id="matplotlib.axis_5">
    <g id="xtick_7"/>
    <g id="xtick_8"/>
   </g>
   <g id="matplotlib.axis_6">
    <g id="ytick_6">
     <g id="line2d_14">
      <defs>
       <path id="m1b8f161f79" d="M 0 0 
L -3.5 0 
" style="stroke: #000000; stroke-width: 0.8"/>
      </defs>
      <g>
       <use xlink:href="#m1b8f161f79" x="215.926417" y="177.491042" style="stroke: #000000; stroke-width: 0.8"/>
      </g>
     </g>
    </g>
    <g id="ytick_7">
     <g id="line2d_15">
      <g>
       <use xlink:href="#m1b8f161f79" x="215.926417" y="126.592974" style="stroke: #000000; stroke-width: 0.8"/>
      </g>
     </g>
    </g>
    <g id="ytick_8">
     <g id="line2d_16">
      <g>
       <use xlink:href="#m1b8f161f79" x="215.926417" y="75.694906" style="stroke: #000000; stroke-width: 0.8"/>
      </g>
     </g>
    </g>
   </g>
   <g id="line2d_17">
    <path d="M 215.937921 217.478528 
L 216.086665 205.4181 
L 216.366693 199.387886 
L 216.821895 194.219131 
L 217.514193 189.050376 
L 218.56978 183.020162 
L 222.454491 163.206601 
L 224.407158 154.592009 
L 225.699574 148.561795 
L 226.384631 144.254499 
L 226.718835 140.808663 
L 226.844845 137.362826 
L 226.776678 133.916989 
L 226.481291 129.609693 
L 225.153072 114.103428 
L 224.410856 101.181541 
L 223.854521 96.874245 
L 223.035023 92.566949 
L 221.978041 88.259653 
L 217.856874 72.753389 
L 217.091435 68.446093 
L 216.567191 64.138797 
L 216.20129 58.970042 
L 216.011444 52.939828 
L 215.943662 46.048154 
L 215.943662 46.048154 
" clip-path="url(#pf08c88223b)" style="fill: none; stroke: #f7f056; stroke-opacity: 0.6; stroke-width: 1.5; stroke-linecap: square"/>
   </g>
   <g id="line2d_18">
    <path d="M 215.954537 161.599919 
L 216.126633 156.41312 
L 216.47073 153.112429 
L 216.918543 150.754792 
L 217.577547 148.397156 
L 218.447854 146.03952 
L 219.926223 142.738829 
L 223.851368 134.251338 
L 225.8423 130.007593 
L 227.653733 126.706902 
L 229.740797 123.406211 
L 232.117133 120.10552 
L 234.816985 116.804829 
L 238.752475 112.089556 
L 239.678469 110.674975 
L 240.349327 109.260393 
L 240.698102 107.845811 
L 240.728989 106.902757 
L 240.591189 105.959702 
L 240.285441 105.016647 
L 239.528073 103.602066 
L 238.452565 102.187484 
L 236.629306 100.301375 
L 233.947239 97.943738 
L 225.005753 90.399302 
L 222.636894 88.041666 
L 221.000083 86.155557 
L 219.621188 84.269448 
L 218.508534 82.383339 
L 217.65214 80.49723 
L 217.025769 78.61112 
L 216.508557 76.253484 
L 216.168914 73.424321 
L 215.98793 69.652102 
L 215.954686 67.765993 
L 215.954686 67.765993 
" clip-path="url(#pf08c88223b)" style="fill: none; stroke: #882e72; stroke-opacity: 0.6; stroke-width: 1.5; stroke-linecap: square"/>
   </g>
   <g id="line2d_19">
    <path d="M 215.999181 201.613738 
L 216.227549 196.442121 
L 216.580427 193.209861 
L 217.07013 190.624052 
L 217.82094 188.038244 
L 218.596807 186.098887 
L 219.579485 184.159531 
L 220.778086 182.220175 
L 222.695141 179.634366 
L 225.483279 176.402106 
L 230.098504 171.230489 
L 231.593851 169.291132 
L 232.831536 167.351776 
L 233.751788 165.41242 
L 234.170932 164.119515 
L 234.430079 162.826611 
L 234.531555 161.533707 
L 234.405454 159.59435 
L 233.984306 157.654994 
L 233.324892 155.715638 
L 232.185159 153.129829 
L 229.54096 147.958212 
L 227.353123 143.433047 
L 226.021746 140.200787 
L 224.909857 136.968526 
L 224.007582 133.736266 
L 223.169574 129.857553 
L 222.459336 125.332388 
L 221.637887 118.221415 
L 220.799116 111.756893 
L 219.878036 106.585277 
L 216.85018 91.070426 
L 216.372604 86.545261 
L 216.086779 81.373644 
L 215.954138 74.26267 
L 215.94569 72.969766 
L 215.94569 72.969766 
" clip-path="url(#pf08c88223b)" style="fill: none; stroke: #4eb265; stroke-opacity: 0.6; stroke-width: 1.5; stroke-linecap: square"/>
   </g>
   <g id="line2d_20">
    <path d="M 216.082069 239.88881 
L 216.33355 227.809562 
L 216.749818 217.395209 
L 217.411247 206.980857 
L 218.317516 196.566505 
L 220.83781 169.786742 
L 221.224082 162.347919 
L 221.358446 154.909096 
L 221.239943 147.470273 
L 220.833034 138.543685 
L 219.615429 116.227216 
L 219.495227 108.788393 
L 219.613097 101.34957 
L 219.952082 93.910746 
L 220.763923 82.00863 
L 221.417578 71.594277 
L 221.660542 64.155454 
L 221.657115 58.204396 
L 221.462183 52.253337 
L 220.969161 44.814514 
L 220.107163 35.887927 
L 217.604553 12.083693 
L 216.945003 3.157105 
L 216.710712 -1 
L 216.710712 -1 
" clip-path="url(#pf08c88223b)" style="fill: none; stroke: #dc050c; stroke-opacity: 0.6; stroke-width: 1.5; stroke-linecap: square"/>
   </g>
   <g id="patch_8">
    <path d="M 215.926417 195.384882 
L 215.926417 39.460265 
" style="fill: none; stroke: #000000; stroke-width: 0.8; stroke-linejoin: miter; stroke-linecap: square"/>
   </g>
  </g>
 </g>
 <defs>
  <clipPath id="p1f6f8d68a0">
   <rect x="59.639375" y="41.883837" width="151.077474" height="151.077474"/>
  </clipPath>
  <clipPath id="p2a2d7bcc31">
   <rect x="59.639375" y="7.2" width="151.077474" height="26.883555"/>
  </clipPath>
  <clipPath id="pf08c88223b">
   <rect x="215.926417" y="39.460265" width="26.04784" height="155.924616"/>
  </clipPath>
 </defs>
</svg>
